<svg xmlns="http://www.w3.org/2000/svg" viewBox="0 0 24 24" width="24" height="24"><path d="m20,12c0-4.34-3.66-8-8-8S4,7.66,4,12c0,2.24.98,4.3,2.53,5.77l-2.38,2.38.71.71,2.44-2.44c1.33.99,2.96,1.59,4.7,1.59s3.37-.6,4.7-1.59l2.44,2.44.71-.71-2.38-2.38c1.54-1.47,2.53-3.52,2.53-5.77Zm-15,0c0-3.79,3.21-7,7-7s7,3.21,7,7-3.21,7-7,7-7-3.21-7-7Z"/><path d="M17 11.5 12.5 11.5 12.5 7 11.5 7 11.5 12.5 17 12.5 17 11.5z"/><path d="m8.15,3.91c-1.17-1.17-3.07-1.17-4.24,0-1.17,1.17-1.17,3.07,0,4.24.9-1.84,2.4-3.34,4.24-4.24Z"/><path d="m15.85,3.91c1.84.9,3.34,2.4,4.24,4.24,1.17-1.17,1.17-3.07,0-4.24-1.17-1.17-3.07-1.17-4.24,0Z"/></svg>