<svg xmlns="http://www.w3.org/2000/svg" viewBox="0 0 24 24" width="24" height="24"><path d="M8 15 15 15 15 8 14 8 14 13.29 11.89 11.18 6.35 5.65 5.65 6.35 11.18 11.89 13.29 14 8 14 8 15z"/><path d="m12,3v1c2.14,0,4.15.83,5.66,2.34,1.51,1.51,2.34,3.52,2.34,5.66s-.83,4.15-2.34,5.66c-1.51,1.51-3.52,2.34-5.66,2.34s-4.15-.83-5.66-2.34c-1.51-1.51-2.34-3.52-2.34-5.66h-1c0,2.4.94,4.67,2.64,6.36,1.7,1.7,3.96,2.64,6.36,2.64s4.66-.94,6.36-2.64c1.7-1.7,2.64-3.96,2.64-6.36s-.94-4.67-2.64-6.36c-1.7-1.7-3.96-2.64-6.36-2.64Z"/></svg>