<svg xmlns="http://www.w3.org/2000/svg" viewBox="0 0 24 24" width="24" height="24"><path d="m17.66,17.66c-1.51,1.51-3.52,2.34-5.66,2.34s-4.15-.83-5.66-2.34c-1.51-1.51-2.34-3.52-2.34-5.66s.83-4.15,2.34-5.66c1.51-1.51,3.52-2.34,5.66-2.34v-1c-2.4,0-4.66.94-6.36,2.64-1.7,1.7-2.64,3.96-2.64,6.36s.94,4.66,2.64,6.36c1.7,1.7,3.96,2.64,6.36,2.64s4.66-.94,6.36-2.64c1.7-1.7,2.64-3.96,2.64-6.36h-1c0,2.14-.83,4.15-2.34,5.66Z"/><path d="M17.65 5.65 11.65 11.65 12.35 12.35 18.35 6.35 21 9 21 3 15 3 17.65 5.65z"/></svg>