<svg xmlns="http://www.w3.org/2000/svg" viewBox="0 0 24 24" width="24" height="24"><path class="b" d="m18,13.19v-1.19h-1v1.19c0,.91-.18,1.78-.5,2.57l-5.49-5.53,1.75-1.07c1.28-.78,1.87-2.3,1.47-3.77-.39-1.43-1.58-2.37-3.03-2.39v.5s-.14-.5-.14-.5c-1.43.02-2.66.88-3.21,2.22-.57,1.4-.26,2.98.79,4.04l.76.77-1.79,1.09c-1.61.98-2.61,2.77-2.61,4.65,0,2.88,2.33,5.22,5.19,5.22s5.17-1.42,6.56-3.57l3.4,3.42.71-.71-3.6-3.63c.48-1.01.75-2.14.75-3.33Zm-8.65-4.63c-.93-.94-.91-2.14-.57-2.96.4-.99,1.26-1.58,2.29-1.6v-.5s.11.5.11.5c1.21.02,1.87.87,2.08,1.65.22.8.08,1.98-1.03,2.65l-1.95,1.19-.93-.94Zm.84,11.44c-2.31,0-4.19-1.89-4.19-4.22,0-1.54.82-3,2.13-3.8l2-1.22,5.9,5.94c-1.19,1.98-3.36,3.3-5.84,3.3Z"/></svg>