<svg xmlns="http://www.w3.org/2000/svg" viewBox="0 0 24 24" width="24" height="24"><path d="m19.79,7.5c-.67-1.16-2.39-1.48-4.6-1.03-.72-2.13-1.86-3.47-3.19-3.47s-2.48,1.33-3.19,3.47c-2.21-.44-3.93-.12-4.6,1.03-.67,1.16-.08,2.81,1.41,4.5-1.49,1.69-2.07,3.34-1.41,4.5.48.83,1.49,1.23,2.84,1.23.54,0,1.13-.07,1.76-.2.72,2.13,1.86,3.47,3.19,3.47s2.48-1.34,3.19-3.47c.63.13,1.22.2,1.76.2,1.35,0,2.36-.4,2.84-1.23.67-1.16.08-2.81-1.41-4.5,1.49-1.69,2.07-3.34,1.41-4.5Zm-7.79-3.5c.79,0,1.62,1.01,2.21,2.71-.71.2-1.45.47-2.21.81-.76-.34-1.5-.61-2.21-.81.59-1.7,1.42-2.71,2.21-2.71Zm3,8c0,.59-.02,1.15-.07,1.69-.44.31-.92.61-1.43.91-.51.29-1.01.55-1.5.78-.49-.23-.99-.49-1.5-.78-.51-.29-.99-.6-1.43-.91-.05-.54-.07-1.1-.07-1.69s.02-1.15.07-1.69c.44-.31.92-.61,1.43-.91.51-.29,1.01-.55,1.5-.78.49.23.99.48,1.5.78.51.29.99.6,1.43.91.05.54.07,1.1.07,1.69Zm.98-.9c.37.3.7.6,1.01.9-.31.3-.64.6-1.01.9.01-.29.02-.59.02-.9s0-.6-.02-.9Zm-1.21,3.9c-.08.47-.17.91-.27,1.32-.41-.12-.84-.26-1.28-.43.26-.14.52-.28.79-.43.26-.15.52-.31.77-.46Zm-3.98.89c-.44.17-.87.31-1.28.43-.11-.41-.2-.85-.27-1.32.25.16.5.31.77.46.26.15.53.29.79.43Zm-2.77-3c-.37-.3-.7-.6-1.01-.9.31-.3.64-.6,1.01-.9-.01.29-.02.59-.02.9s0,.6.02.9Zm1.21-3.9c.07-.47.17-.91.27-1.32.41.12.84.25,1.29.42-.26.14-.53.28-.79.43-.26.15-.52.31-.77.46Zm4.77-.46c-.26-.15-.53-.3-.79-.43.45-.17.87-.31,1.29-.42.11.41.2.85.27,1.32-.25-.16-.5-.31-.77-.46Zm-8.93-.54c.27-.47.97-.72,1.95-.72.44,0,.95.06,1.5.16-.18.71-.31,1.49-.4,2.32-.67.49-1.28,1-1.81,1.51-1.18-1.36-1.63-2.59-1.24-3.27Zm0,8c-.39-.68.06-1.91,1.24-3.27.53.51,1.13,1.02,1.81,1.51.09.83.22,1.61.4,2.32-1.77.34-3.06.12-3.45-.56Zm6.93,4c-.79,0-1.62-1.01-2.21-2.71.71-.2,1.45-.47,2.21-.81.76.34,1.5.6,2.21.81-.59,1.7-1.42,2.71-2.21,2.71Zm6.93-4c-.39.68-1.68.9-3.45.56.18-.71.31-1.49.4-2.32.67-.49,1.28-1,1.81-1.51,1.18,1.36,1.63,2.59,1.24,3.27Zm-1.24-4.73c-.53-.51-1.13-1.02-1.81-1.51-.09-.83-.22-1.61-.4-2.32.55-.11,1.06-.16,1.5-.16.98,0,1.68.25,1.95.72.39.68-.06,1.91-1.24,3.27Z"/><path d="M12 10.5A1.5 1.5 0 1 0 12 13.5 1.5 1.5 0 1 0 12 10.5z"/></svg>