<svg xmlns="http://www.w3.org/2000/svg" viewBox="0 0 24 24" width="24" height="24"><path d="m18.14,4c-.17,0-4.01.07-6.14,5.52-2.13-5.45-5.96-5.52-6.14-5.52-1.58,0-2.86,1.28-2.86,2.85v3.76c0,2.27,1.37,4.31,3.42,5.2-.38.55-.58,1.2-.58,1.86,0,1.83,1.5,3.32,3.33,3.32,1.27,0,2.27-1.16,2.83-2.69.56,1.53,1.57,2.69,2.83,2.69,1.84,0,3.33-1.49,3.33-3.32,0-.67-.21-1.31-.58-1.86,2.04-.89,3.42-2.93,3.42-5.2v-3.76c0-1.57-1.28-2.85-2.86-2.85Zm-8.97,16c-1.29,0-2.33-1.04-2.33-2.32,0-.65.27-1.26.77-1.71l.67-.61-.87-.25c-2.01-.57-3.41-2.42-3.41-4.49v-3.76c0-1.02.83-1.85,1.86-1.85.16,0,3.88.12,5.64,6.17v4.28c0,2.3-1.16,4.55-2.33,4.55Zm10.83-9.38c0,2.08-1.4,3.92-3.41,4.49l-.87.25.67.61c.5.45.77,1.06.77,1.71,0,1.28-1.05,2.32-2.33,2.32-1.18,0-2.33-2.25-2.33-4.55v-4.28c1.76-6.03,5.47-6.16,5.64-6.17,1.03,0,1.86.83,1.86,1.85v3.76Z"/></svg>