<svg xmlns="http://www.w3.org/2000/svg" viewBox="0 0 24 24" width="24" height="24"><path d="m19.5,16h.5v-3c0-3.73-2.57-6.86-6.03-7.74.01-.08.03-.17.03-.26,0-1.1-.9-2-2-2s-2,.9-2,2c0,.09.01.17.03.26-3.46.88-6.03,4.01-6.03,7.74v3h.5c-.83,0-1.5.67-1.5,1.5v2c0,.83.67,1.5,1.5,1.5h15c.83,0,1.5-.67,1.5-1.5v-2c0-.83-.67-1.5-1.5-1.5ZM10.4,6.19c.36.49.94.81,1.6.81s1.23-.32,1.6-.81c2.47.58,4.44,2.47,5.13,4.89l-3.23,1.84-3.5-2-3.5,2-3.22-1.84c.69-2.42,2.66-4.31,5.13-4.89Zm-5.4,6.81c0-.3.03-.6.06-.89l3.43,1.96,3.5-2,3.5,2,3.44-1.96c.04.29.06.59.06.89v3H5v-3Zm15,6.5c0,.28-.22.5-.5.5H4.5c-.28,0-.5-.22-.5-.5v-2c0-.28.22-.5.5-.5h15c.28,0,.5.22.5.5v2Z"/></svg>