<svg xmlns="http://www.w3.org/2000/svg" width="24" height="24" viewBox="0 0 24 24"><path d="M18.5 6h-6V3h-1v3h-6A2.5 2.5 0 0 0 3 8.5V20h18V8.5A2.5 2.5 0 0 0 18.5 6M20 19H4v-6.29c.34.16.61.39.92.66.59.53 1.27 1.13 2.58 1.13s1.99-.6 2.58-1.13c.55-.49.98-.87 1.92-.87s1.37.39 1.92.87c.59.53 1.27 1.13 2.58 1.13s1.99-.6 2.58-1.13c.3-.27.58-.5.92-.66zm-1.58-6.37c-.55.49-.98.87-1.92.87s-1.37-.39-1.92-.87c-.59-.53-1.27-1.13-2.58-1.13s-1.99.6-2.58 1.13c-.55.49-.98.87-1.92.87s-1.37-.39-1.91-.87c-.42-.37-.88-.78-1.58-.99V8.5c0-.83.67-1.5 1.5-1.5h13c.83 0 1.5.67 1.5 1.5v3.14c-.7.21-1.16.61-1.58.98Z"/></svg>