<svg xmlns="http://www.w3.org/2000/svg" viewBox="0 0 24 24" width="24" height="24"><path d="m6,13.5h1c0-1.93,1.57-3.5,3.5-3.5v-1c-2.48,0-4.5,2.02-4.5,4.5Z"/><path d="m18.56,4.73l-1.73,1.73-1.67-1.67-1.76,1.8c-.9-.39-1.88-.59-2.91-.59-4.14,0-7.5,3.36-7.5,7.5s3.36,7.5,7.5,7.5,7.5-3.36,7.5-7.5c0-.9-.4-2.26-.6-2.86l1.8-1.81-1.67-1.67,1.73-1.73c.28-.28.66-.44,1.06-.44h.67v-1h-.67c-.67,0-1.3.26-1.77.73Zm-2.31,5.64l.1.3s.64,1.84.64,2.83c0,3.58-2.92,6.5-6.5,6.5s-6.5-2.92-6.5-6.5,2.92-6.5,6.5-6.5c1,0,1.94.21,2.8.64l.33.16,1.55-1.59,2.62,2.62-1.54,1.54Z"/></svg>