<svg xmlns="http://www.w3.org/2000/svg" viewBox="0 0 24 24" width="24" height="24"><path d="m16.53,3.77L7.45,12.84c-.46.08-.9.21-1.29.46-.91.56-1.41,1.47-1.41,2.56,0,.26.02.5.04.73.07.97.12,1.5-1.51,2.31l-.76.38.7.48c.83.57,2.31,1.24,3.85,1.24,1.1,0,2.24-.34,3.2-1.3.89-.88,1.36-2.23,1.27-3.53l8.69-8.69c.5-.5.77-1.15.77-1.85s-.27-1.36-.77-1.85c-.99-.99-2.71-.99-3.71,0Zm-6.96,15.22c-1.68,1.67-3.92.92-5.06.35,1.42-.96,1.35-1.91,1.28-2.83-.02-.21-.03-.42-.03-.65,0-.94.51-1.45.93-1.71.71-.44,1.73-.51,2.43-.16.98.49,1.31,1.33,1.41,1.95.18,1.09-.21,2.31-.95,3.05Zm9.96-12.22l-8.24,8.24c-.32-.84-.91-1.5-1.73-1.91-.22-.11-.46-.18-.71-.23l8.38-8.38c.61-.61,1.68-.61,2.29,0,.31.31.47.71.47,1.15s-.17.84-.47,1.15Z"/></svg>