<svg xmlns="http://www.w3.org/2000/svg" viewBox="0 0 24 24" width="24" height="24"><path d="m20,21H4v-12.07c-.64-.66-1-1.53-1-2.43,0-1.93,1.57-3.5,3.5-3.5h11c1.93,0,3.5,1.57,3.5,3.5,0,.9-.36,1.78-1,2.43v12.07Zm-15-1h14v-11.5l.17-.15c.54-.49.83-1.14.83-1.85,0-1.38-1.12-2.5-2.5-2.5H6.5c-1.38,0-2.5,1.12-2.5,2.5,0,.71.3,1.36.83,1.85l.17.15v11.5Z"/><path d="M12 7A1 1 0 1 0 12 9 1 1 0 1 0 12 7z"/><path d="M15.5 10A.5.5 0 1 0 15.5 11 .5.5 0 1 0 15.5 10z"/><path d="M16 6A1 1 0 1 0 16 8 1 1 0 1 0 16 6z"/></svg>