<svg xmlns="http://www.w3.org/2000/svg" viewBox="0 0 24 24" width="24" height="24"><path d="m20.06,10.26c0-1.14-.66-2.17-1.69-2.66-.1-1.55-1.41-2.78-3.01-2.78-.37,0-.74.07-1.08.19-.57-.64-1.4-1.02-2.28-1.02s-1.7.37-2.28,1.02c-.34-.13-.71-.19-1.08-.19-.01,0-.02,0-.03,0-.01,0-.02,0-.03,0h0c-1.57.04-2.85,1.25-2.95,2.78-1.02.49-1.69,1.52-1.69,2.66v.74h-.94v.5c0,3.15,1.95,6.18,5,7.81v1.69h8v-1.69c3.05-1.63,5-4.66,5-7.81v-.5h-.94v-.74Zm-15.11,0c0-.83.54-1.58,1.35-1.85l.4-.2-.07-.42c0-1.08.89-1.95,1.99-1.97.11,0,.21.01.31.03.03,0,.06,0,.09.01.95.2,1.67,1.04,1.67,2.04h1c0-.94-.43-1.77-1.09-2.33.38-.36.88-.58,1.42-.58.69,0,1.33.34,1.71.91l.25.38.4-.22c.3-.16.64-.25.99-.25,1.11,0,2.02.88,2.02,2.04l-.07.42.4.14c.81.27,1.35,1.01,1.35,1.85v.74H4.94v-.74Zm10.33,8.29l-.28.14v1.31h-6v-1.31l-.28-.14c-2.7-1.34-4.5-3.87-4.7-6.55h15.96c-.2,2.68-2,5.22-4.7,6.55Z"/></svg>