<svg xmlns="http://www.w3.org/2000/svg" viewBox="0 0 24 24" width="24" height="24"><path d="m6.63,13.24l-2.55,3.68,4.41-.4.38,4.48,3.13-3.19,3.13,3.19.38-4.48,4.41.4-2.55-3.68,3.63-2.57-4.28-1.16,1.15-4.34-4.01,1.91-1.86-4.08-1.86,4.08-4.01-1.91,1.15,4.34-4.28,1.16,3.63,2.57Zm.91-2.76l.96-.26-.26-.96-.6-2.25,2.06.98.92.44.42-.92.95-2.09.95,2.09.42.92.92-.44,2.06-.98-.6,2.25-.26.96.96.26,2.23.6-1.9,1.35-.81.57.56.81,1.33,1.92-2.28-.21-1-.09-.08,1-.19,2.31-1.6-1.63-.71-.73-.71.73-1.6,1.63-.19-2.31-.08-1-1,.09-2.28.21,1.33-1.92.56-.81-.81-.57-1.9-1.35,2.23-.6Z"/></svg>