<svg xmlns="http://www.w3.org/2000/svg" viewBox="0 0 24 24" width="24" height="24"><path d="M8 6A1 1 0 1 0 8 8 1 1 0 1 0 8 6z"/><path d="m12.69,5.1h0c-.89-1.32-2.36-2.1-3.93-2.1-2.62,0-4.75,2.14-4.75,4.76,0,0,0,.02,0,.02-.61.55-1,1.33-1,2.21h1.57c.64,1.19,1.78,2.09,3.16,2.4.13,1.39.8,5.45,4.27,6.5v2.1h1v-1.89c.26.03.52.05.8.05.43,0,.82-.03,1.2-.07v1.91h1v-2.07c1.7-.34,2.83-1,3.4-1.44l1.19,1.78.83-.55-1.49-2.24-7.24-11.39Zm.88,8.93c-.85-1.39-1.23-3.53.11-5.52l5.02,7.9c-2.46.37-4.25-.96-5.13-2.38Zm-4.86-2.08l-.02-.42-.42-.05c-1.03-.13-1.91-.69-2.5-1.47h0c-.12-.16-.22-.32-.32-.49,0,0,0,0,0-.01-.09-.17-.17-.34-.23-.52-.02-.04-.02-.09-.04-.14-.05-.15-.09-.29-.12-.45-.03-.16-.04-.32-.05-.49,0-.05-.01-.1-.01-.15,0-2.07,1.68-3.76,3.75-3.76,1.24,0,2.4.61,3.1,1.64l1.27,2-.05-.03c-1.58,2.07-1.72,4.73-.36,6.95,1.07,1.74,2.8,2.77,4.73,2.9-.87.37-2.06.7-3.64.7-4.72,0-5.08-5.57-5.1-6.21Z"/></svg>