<svg xmlns="http://www.w3.org/2000/svg" viewBox="0 0 24 24" width="24" height="24"><path d="m14.15,5.02c-.35.92-1.13,1.63-2.08,1.9l-.42.12c-1.25.36-2.27,1.3-2.73,2.51-.35.92-1.13,1.63-2.08,1.9l-.42.12c-1.25.36-2.27,1.3-2.73,2.51l-.78,2.03,6.03,5.23.91-2.37c.35-.92,1.13-1.63,2.08-1.9l.42-.12c1.25-.36,2.27-1.3,2.73-2.51.35-.92,1.13-1.63,2.08-1.9l.42-.12c1.25-.36,2.27-1.3,2.73-2.51l.78-2.03-6.03-5.23-.91,2.37Zm5.23,4.53c-.35.92-1.13,1.63-2.08,1.9l-.42.12c-1.25.36-2.27,1.3-2.73,2.51-.35.92-1.13,1.63-2.08,1.9l-.42.12c-1.25.36-2.27,1.3-2.73,2.51l-.4,1.04-1.81-1.57.53-1.37c.35-.92,1.13-1.63,2.08-1.9l.42-.12c1.25-.36,2.27-1.3,2.73-2.51.35-.92,1.13-1.63,2.08-1.9l.42-.12c1.24-.36,2.27-1.3,2.73-2.51l.4-1.04,1.81,1.57-.53,1.37Zm-3.9-5.21l1.81,1.57-.53,1.37c-.35.92-1.13,1.63-2.08,1.9l-.42.12c-1.25.36-2.27,1.3-2.73,2.51-.35.92-1.13,1.63-2.08,1.9l-.42.12c-1.24.36-2.27,1.3-2.73,2.51l-.4,1.04-1.81-1.57.53-1.37c.35-.92,1.13-1.63,2.08-1.9l.42-.12c1.25-.36,2.27-1.3,2.73-2.51.35-.92,1.13-1.63,2.08-1.9l.42-.12c1.25-.36,2.27-1.3,2.73-2.51l.4-1.04Z"/></svg>