<svg xmlns="http://www.w3.org/2000/svg" width="24" height="24" viewBox="0 0 24 24"><path d="M20 17h-2.72l-.07-.11c-.95-1.55-2.29-4.68-2.74-5.75.76-.6 1.29-1.46 1.47-2.41.16-.84.11-2.15-.97-3.59l-.1-.1c-1.46-1.11-3.19-1.35-4.64-.63A3.98 3.98 0 0 0 8 8c0 1.24.57 2.38 1.53 3.14-.45 1.07-1.79 4.2-2.74 5.75l-.07.11H4v4h16zm-1 3H5v-2h2.28l.36-.59c1.19-1.95 2.9-6.08 2.97-6.26l.16-.39-.36-.22C9.52 9.98 8.99 9.04 8.99 8c0-1.15.64-2.18 1.67-2.69 1.1-.54 2.39-.37 3.54.49.65.89.91 1.84.74 2.75-.15.82-.65 1.54-1.37 1.99l-.36.22.16.39c.07.17 1.78 4.31 2.97 6.26l.36.59h2.28v2Z"/></svg>