<svg xmlns="http://www.w3.org/2000/svg" viewBox="0 0 24 24" width="24" height="24"><path d="m11.5,3c-4.22,0-8.5,2.58-8.5,7.5,0,2.43,1.04,4.58,3,6.24v4.26h1v-4.74l-.19-.15c-1.84-1.48-2.81-3.42-2.81-5.61,0-4.47,3.89-6.5,7.5-6.5,4.48,0,6.5,3.51,6.5,6l1.73,4h-2.73v4h-4v3h1v-2h4v-4h3.27l-2.27-5.11c-.06-3.34-2.92-6.89-7.5-6.89Z"/><path d="m10.93,10.5h-.93v1h1c1.21-.05,2.18-1.03,2.18-2.25s-1.01-2.25-2.25-2.25c-1.07,0-2.07.42-2.83,1.17-.76.76-1.17,1.76-1.17,2.83s.42,2.07,1.17,2.83c.76.76,1.76,1.17,2.83,1.17s2.07-.42,2.83-1.17l-.71-.71c-1.13,1.13-3.11,1.13-4.24,0-.57-.57-.88-1.32-.88-2.12s.31-1.55.88-2.12c.57-.57,1.32-.88,2.12-.88.69,0,1.25.56,1.25,1.25s-.56,1.25-1.25,1.25Z"/></svg>