<svg xmlns="http://www.w3.org/2000/svg" width="24" height="24" viewBox="0 0 24 24"><path d="M14.23 3H9.76l-2.5 3H3v13h18V6h-4.27zM20 18H4V7h3.73l2.5-3h3.53l2.5 3h3.73v11Z"/><path d="M13.55 8.32c-.99-.43-2.1-.43-3.09 0-.47.21-.9.5-1.27.86s-.66.8-.86 1.27l.92.4c.15-.36.37-.68.65-.96s.6-.5.96-.65c.74-.32 1.56-.32 2.3 0 .36.15.68.37.96.65L13.01 11h3V8l-1.18 1.18c-.37-.37-.8-.66-1.27-.86ZM14.11 14.11c-.28.28-.6.5-.96.65-.74.32-1.56.32-2.3 0-.36-.15-.68-.37-.96-.65L11 13H8v3l1.18-1.18c.37.37.8.66 1.27.86a3.9 3.9 0 0 0 3.1 0c.47-.21.9-.5 1.27-.86s.66-.8.86-1.27l-.92-.4c-.15.36-.37.68-.65.96"/></svg>