<svg xmlns="http://www.w3.org/2000/svg" viewBox="0 0 24 24" width="24" height="24"><path d="m16.84,9H7.16l-2,5h-1.16v5h1v2h2v-2h10v2h2v-2h1v-5h-1.16l-2-5Zm-9,1h8.32l1.6,4H6.24l1.6-4Zm11.16,8H5v-3h14v3Z"/><path d="M6 9 6.92 6.92 9 6 6.92 5.08 6 3 5.08 5 3 6 5.08 6.92 6 9z"/><path d="M15.62 5.62 17 5 15.62 4.38 15 3 14.38 4.33 13 5 14.38 5.62 15 7 15.62 5.62z"/><path d="M19 5 18.38 6.33 17 7 18.38 7.62 19 9 19.62 7.62 21 7 19.62 6.38 19 5z"/><path d="M7 15.5A1 1 0 1 0 7 17.5 1 1 0 1 0 7 15.5z"/><path d="M17 15.5A1 1 0 1 0 17 17.5 1 1 0 1 0 17 15.5z"/></svg>