<svg xmlns="http://www.w3.org/2000/svg" viewBox="0 0 24 24" width="24" height="24"><path d="m16.5,6.5s-.09,0-.13,0c-.46-2.03-2.25-3.5-4.37-3.5s-3.91,1.47-4.37,3.5c-.04,0-.09,0-.13,0-2.48,0-4.5,2.02-4.5,4.5,0,1.91,1.22,3.6,3,4.23v3.77h12v-3.77c1.78-.63,3-2.32,3-4.23,0-2.48-2.02-4.5-4.5-4.5Zm.87,7.87l-.37.1v3.53H7v-3.53l-.37-.1c-1.55-.4-2.63-1.79-2.63-3.37,0-1.93,1.57-3.5,3.5-3.5.13,0,.26.02.48.05l.51.07.06-.51c.2-1.77,1.69-3.11,3.46-3.11s3.26,1.34,3.46,3.11l.14.5.51-.07c.13-.02.26-.04.39-.04,1.93,0,3.5,1.57,3.5,3.5,0,1.59-1.08,2.97-2.63,3.37Z"/><path d="M6 20H18V21H6z"/></svg>