<svg xmlns="http://www.w3.org/2000/svg" width="24" height="24" viewBox="0 0 24 24"><path d="M12 8.5c-1.9 0-3.5 1.6-3.5 3.5s1.6 3.5 3.5 3.5 3.5-1.6 3.5-3.5-1.6-3.5-3.5-3.5m0 6c-1.35 0-2.5-1.14-2.5-2.5s1.15-2.5 2.5-2.5 2.5 1.14 2.5 2.5-1.15 2.5-2.5 2.5"/><path d="M18.63 5.4 16.6 6.57c-.66-.56-1.41-1-2.21-1.29V2.95h-4.8v2.33c-.8.29-1.55.73-2.21 1.29L5.35 5.4l-2.4 4.15 2.01 1.16a7 7 0 0 0 0 2.58l-2.01 1.16 2.4 4.15 2.03-1.17c.66.56 1.41 1 2.21 1.29v2.33h4.8v-2.33c.8-.29 1.55-.73 2.21-1.29l2.03 1.17 2.4-4.15-2.01-1.16a7 7 0 0 0 0-2.58l2.01-1.16zm-.75 4.82.09.37a5.7 5.7 0 0 1 0 2.84l-.09.37 1.78 1.03-1.4 2.42-1.8-1.04-.27.26c-.7.66-1.54 1.16-2.44 1.43l-.35.11v2.05h-2.8v-2.05l-.35-.11c-.9-.27-1.74-.77-2.44-1.43l-.27-.26-1.8 1.04-1.4-2.42 1.78-1.03-.09-.37c-.12-.47-.18-.95-.18-1.42s.06-.95.18-1.42l.09-.37-1.78-1.03 1.4-2.42 1.8 1.04.27-.26c.7-.66 1.54-1.16 2.44-1.43l.35-.11V3.96h2.8v2.05l.35.11c.9.27 1.74.77 2.44 1.43l.27.26 1.8-1.04 1.4 2.42z"/></svg>