<svg xmlns="http://www.w3.org/2000/svg" width="24" height="24" viewBox="0 0 24 24"><path d="M12 3c-4.96 0-9 4.04-9 9s4.04 9 9 9 9-4.04 9-9-4.04-9-9-9M5.17 16.15l.48-.48-.53-.53-.32.32C4.29 14.41 4 13.24 4 12c0-4.41 3.59-8 8-8 1.24 0 2.41.29 3.46.8l-.32.32.53.53.48-.48c.4.25.79.53 1.14.84L6.02 17.28q-.465-.525-.84-1.14ZM12 20c-1.24 0-2.41-.29-3.46-.8l.32-.32-.53-.53-.48.48c-.4-.25-.79-.53-1.14-.84L17.98 6.72q.465.525.84 1.14l-.48.48.53.53.32-.32c.51 1.05.8 2.22.8 3.46 0 4.41-3.59 8-8 8Z"/><path d="m9.45 17.24.26.26.27.27.92-.93.93-.93-.26-.26-.27-.27-.93.93zM15.38 11.3l.27.27.26.26.93-.93.93-.92-.27-.27-.26-.26-.93.92zM12.41 14.27l.27.26.26.27.93-.93.93-.93-.27-.26-.26-.27-.93.93zM11.59 9.73l-.27-.26-.26-.27-.93.93-.93.93.27.26.26.27.93-.93zM14.55 6.76l-.26-.26-.27-.27-.92.93-.93.93.26.26.27.27.93-.93zM8.62 12.7l-.27-.27-.26-.26-.93.93-.93.92.27.27.26.26.93-.92z"/></svg>