<svg xmlns="http://www.w3.org/2000/svg" viewBox="0 0 24 24" width="24" height="24"><path d="m12,11c1.71,0,3-1.29,3-3s-1.29-3-3-3-3,1.29-3,3,1.29,3,3,3Zm0-5c1.16,0,2,.84,2,2s-.84,2-2,2-2-.84-2-2,.84-2,2-2Z"/><path d="m7,17h10v-1c0-2.21-1.79-4-4-4h-2c-2.21,0-4,1.79-4,4v1Zm4-4h2c1.65,0,3,1.35,3,3h-8c0-1.65,1.35-3,3-3Z"/><path d="m7,11c.31,0,.59-.07.85-.18-.54-.8-.85-1.77-.85-2.82,0-.34.04-.67.1-.99-.03,0-.06,0-.1,0-1.15,0-2,.85-2,2s.85,2,2,2Z"/><path d="m6.54,12h-.54c-1.66,0-3,1.34-3,3v1h2c0-1.54.59-2.94,1.54-4Z"/><path d="m17,11c1.15,0,2-.85,2-2s-.85-2-2-2c-.03,0-.06,0-.1,0,.06.32.1.65.1.99,0,1.06-.31,2.02-.85,2.82.26.11.54.18.85.18Z"/><path d="m18,12h-.54c.95,1.06,1.54,2.46,1.54,4h2v-1c0-1.66-1.34-3-3-3Z"/></svg>