<svg xmlns="http://www.w3.org/2000/svg" viewBox="0 0 24 24" width="24" height="24"><path d="m16.75,4.75l-4.75-2.57-4.75,2.57v5.45l-4.25,2.3v6l4.75,2.57,4.25-2.3,4.25,2.3,4.75-2.57v-6l-4.25-2.3v-5.45Zm-.5,9.98l-3.38-1.83,3.38-1.83,3.38,1.83-3.38,1.83ZM8.25,6.19l3.25,1.76v3.96l-3.25-1.76v-3.96Zm4.25,5.72v-3.96l3.25-1.76v3.96l-3.25,1.76Zm-1.37.99l-3.38,1.83-3.38-1.83,3.38-1.83,3.38,1.83Zm-2.88,2.7l3.25-1.76v4.06l-3.25,1.76v-4.06Zm7.23-10.4l-3.48,1.88-3.48-1.88,3.48-1.88,3.48,1.88ZM4,13.84l3.25,1.76v4.06l-3.25-1.76v-4.06Zm8.5,0l3.25,1.76v4.06l-3.25-1.76v-4.06Zm4.25,5.82v-4.06l3.25-1.76v4.06l-3.25,1.76Z"/></svg>