<svg xmlns="http://www.w3.org/2000/svg" width="24" height="24" viewBox="0 0 24 24"><path d="M21.15 9.8c.18-.27.34-.55.46-.85.13-.3.23-.62.29-.94.02-.12.03-.24.04-.37l.07-.75-.77.08c-.08.01-.16.02-.24.02-2.21 0-4-1.79-4-4 0-.08.01-.16.02-.24l.08-.78-.75.07c-.12 0-.25.02-.36.04-.32.07-.63.16-.94.29-.3.13-.58.28-.85.46s-.52.39-.74.61c-.23.23-.43.48-.61.74-.18.27-.34.55-.46.85-.13.3-.23.62-.29.94 0 .04 0 .07-.01.11-.36-.06-.72-.1-1.09-.1-3.45 0-6.27 2.7-6.48 6.15A3.486 3.486 0 0 0 2 15.48c0 1.93 1.57 3.5 3.5 3.5h11.75c2.62 0 4.75-2.13 4.75-4.75 0-1.43-.65-2.69-1.65-3.57.06-.05.13-.09.18-.15.23-.23.43-.48.61-.74ZM21 14.25c0 2.07-1.68 3.75-3.75 3.75H5.5A2.5 2.5 0 0 1 3 15.5a2.5 2.5 0 0 1 2.09-2.46l.41-.12v-.42C5.5 9.47 7.97 7 11 7c2.17 0 4.15 1.29 5.03 3.28l.16.36.39-.07c.26-.05.48-.07.67-.07 2.07 0 3.75 1.68 3.75 3.75M17.25 9.5c-.15 0-.31 0-.47.03a6.53 6.53 0 0 0-3.71-3.18c0-.05 0-.11.02-.16a3.8 3.8 0 0 1 .6-1.43c.14-.21.31-.41.49-.59s.38-.34.59-.49a4 4 0 0 1 1.24-.56c.07 2.66 2.22 4.81 4.87 4.87-.05.19-.11.38-.19.56a3.935 3.935 0 0 1-.86 1.27c-.1.1-.21.18-.32.27-.67-.37-1.43-.6-2.25-.6Z"/></svg>