<svg xmlns="http://www.w3.org/2000/svg" viewBox="0 0 24 24" width="24" height="24"><path d="M15.5 16A.75.75 0 1 0 15.5 17.5.75.75 0 1 0 15.5 16z"/><path d="M19.25 16A.75.75 0 1 0 19.25 17.5.75.75 0 1 0 19.25 16z"/><path d="M15.5 19A.75.75 0 1 0 15.5 20.5.75.75 0 1 0 15.5 19z"/><path d="M12 17A.75.75 0 1 0 12 18.5.75.75 0 1 0 12 17z"/><path d="M12 20A.75.75 0 1 0 12 21.5.75.75 0 1 0 12 20z"/><path d="M8.5 19A.75.75 0 1 0 8.5 20.5.75.75 0 1 0 8.5 19z"/><path d="M8.5 16A.75.75 0 1 0 8.5 17.5.75.75 0 1 0 8.5 16z"/><path d="M4.75 16A.75.75 0 1 0 4.75 17.5.75.75 0 1 0 4.75 16z"/><path d="m18.75,8.65c-.18-3.15-2.74-5.65-5.86-5.65-2.19,0-4.2,1.26-5.2,3.23-.13-.01-.26-.02-.39-.02-2.37,0-4.3,1.97-4.3,4.4s1.93,4.4,4.3,4.4h10.51c1.76,0,3.18-1.46,3.18-3.25,0-1.44-.92-2.69-2.25-3.1Zm-.94,5.35H7.3c-1.82,0-3.3-1.52-3.3-3.4s1.48-3.4,3.3-3.4c.2,0,.4.03.59.06l.39.07.16-.37c.78-1.81,2.53-2.98,4.45-2.98,2.68,0,4.87,2.24,4.87,4.99l-.02.48.43.07c1.06.18,1.82,1.11,1.82,2.21,0,1.24-.98,2.25-2.18,2.25Z"/></svg>