<svg xmlns="http://www.w3.org/2000/svg" viewBox="0 0 24 24" width="24" height="24"><path d="m12,7c-3.86,0-7,3.14-7,7s3.14,7,7,7,7-3.14,7-7c0-3.37-2.39-6.18-5.56-6.85,1.14-1.88,3.2-3.15,5.56-3.15v-1c-1.35,0-2.61.36-3.7.99-.69-.43-1.84-.99-3.3-.99-2.4,0-4,1.5-4,1.5,0,0,1.6,1.5,4,1.5.39,0,.76-.05,1.1-.12-.28.35-.53.73-.74,1.14-.12,0-.24-.02-.36-.02Zm6,7c0,3.31-2.69,6-6,6s-6-2.69-6-6,2.66-5.96,5.94-6c-.28.78-.44,1.62-.44,2.5v.46c-1.06-.15-1.59-.76-1.62-.79l-.77.64s1.01,1.18,2.88,1.18,2.84-1.13,2.88-1.18l-.77-.64s-.56.63-1.62.79v-.46c0-.85.17-1.67.47-2.41,2.85.47,5.03,2.94,5.03,5.91Z"/></svg>