<svg xmlns="http://www.w3.org/2000/svg" width="24" height="24" viewBox="0 0 24 24"><path d="M18 12.5c0-2.78-1.42-5.29-3.57-6.4a2.505 2.505 0 0 0-1.4-2.87c-.95-.43-2.05-.23-2.95.54l-.1.12c-.45.75-.59 1.51-.42 2.21-2.15 1.11-3.57 3.62-3.57 6.4 0 1.66.5 3.24 1.4 4.5H3v4h18v-4h-4.4c.9-1.26 1.4-2.84 1.4-4.5m2 5.5v2H4v-2h5.69l-.86-.86C7.67 15.99 7 14.29 7 12.5c0-2.57 1.36-4.85 3.39-5.68l.5-.2-.24-.48c-.24-.48-.18-1.07.16-1.66.58-.48 1.24-.6 1.82-.34.54.25.88.78.88 1.37 0 .23-.05.44-.15.64l-.24.48.5.2c.57.23 1.09.6 1.54 1.04-.98.58-2.65 2.02-2.65 5.14h1c0-2.81 1.58-3.98 2.3-4.36.75 1.06 1.2 2.41 1.2 3.86 0 1.8-.67 3.49-1.83 4.64l-.86.86h5.69Z"/></svg>