<svg xmlns="http://www.w3.org/2000/svg" viewBox="0 0 24 24" width="24" height="24"><path d="m20.03,12.74c.57-.14.97-.65.97-1.24s-.4-1.1-.97-1.24l-1.03-.26v.5c0-.97-.25-1.88-.69-2.67l.48-.72c.33-.49.28-1.14-.12-1.57-.4-.43-1.04-.54-1.55-.27l-.87.46c-.81-.47-1.75-.74-2.75-.74h.5l-.26-1.03c-.14-.57-.65-.97-1.24-.97s-1.1.4-1.24.97l-.26,1.03h-3c-2.76,0-5,2.24-5,5s2.24,5,5,5h2v6h9v-2l1.03-.26c.57-.14.97-.65.97-1.24s-.4-1.1-.97-1.24l-1.03-.26v-3l1.03-.26Zm-2.03,7.26h-7v-5h3v-1h-6c-2.21,0-4-1.79-4-4s1.79-4,4-4h5.5c2.48,0,4.5,2.02,4.5,4.5v9.5Z"/><path d="M12.5 8A1.5 1.5 0 1 0 12.5 11 1.5 1.5 0 1 0 12.5 8z"/><path d="M6.5 9A.5.5 0 1 0 6.5 10 .5.5 0 1 0 6.5 9z"/></svg>