<svg xmlns="http://www.w3.org/2000/svg" viewBox="0 0 24 24" width="24" height="24"><path d="m15.97,2.79l-1.87,1.87-1.7-1.7-2.57,2.57,3.97,3.97-4.29,4.29-3.97-3.97-2.57,2.57,1.7,1.7-1.87,1.87,5.24,5.24,1.87-1.87,1.7,1.7,2.57-2.57-3.97-3.97,4.29-4.29,3.97,3.97,2.57-2.57-1.7-1.7,1.87-1.87-5.24-5.24Zm-6.77,15.84l-1.16,1.16-3.83-3.83,1.16-1.16,1.91,1.91,1.91,1.91Zm2.41.99l-3.61-3.61-2.62-2.62h0s-.99-.99-.99-.99l1.16-1.16,7.23,7.23-1.16,1.16Zm8.03-8.03l-1.16,1.16-7.23-7.23,1.16-1.16,3.61,3.61,2.62,2.62h0s.99.99.99.99Zm-2.91-4.32l-1.91-1.91,1.16-1.16,3.83,3.83-1.16,1.16-1.91-1.91Z"/></svg>