<svg xmlns="http://www.w3.org/2000/svg" viewBox="0 0 24 24" width="24" height="24"><path d="m17.14,13.02l-3.56,2.65-1.9-2.16c-.28-.32-.7-.51-1.13-.51h-6.55v7h9.58c1.05,0,2.04-.47,2.71-1.28l3.95-4.83-1.37-.91c-.53-.35-1.22-.33-1.73.04Zm-1.62,5.06c-.48.58-1.18.92-1.94.92H5v-5h5.55c.14,0,.28.06.38.17l1.6,1.83h-4.53v1h5.4l.02.03.04-.03h.04v-.03l4.23-3.15c.17-.13.4-.13.58-.02l.45.3-3.25,3.97Z"/><path d="m13.64,11.84c.09.1.23.16.36.16s.27-.06.36-.16l3.41-3.58c.47-.47.73-1.1.73-1.77s-.26-1.3-.73-1.77-1.1-.73-1.77-.73h0c-.05,0-.99.01-2,.83-1.01-.82-1.95-.83-2-.83h0c-.67,0-1.3.26-1.77.73s-.73,1.1-.73,1.77.26,1.3.72,1.76l3.41,3.59Zm-2.7-6.41c.28-.28.66-.44,1.06-.44.03,0,.82.03,1.65.85.2.2.51.2.71,0,.83-.83,1.62-.85,1.65-.85.4,0,.78.16,1.06.44t0,0c.28.28.44.66.44,1.06s-.16.78-.45,1.07l-3.05,3.21-3.06-3.21c-.28-.28-.44-.66-.44-1.06s.16-.78.44-1.06Z"/></svg>