<svg xmlns="http://www.w3.org/2000/svg" viewBox="0 0 24 24" width="24" height="24"><path d="m13.5,12c1.65,0,3-1.35,3-3,0-1.9-2.36-4.54-2.63-4.84l-.37-.41-.37.41c-.27.3-2.63,2.94-2.63,4.84,0,1.65,1.35,3,3,3Zm0-6.73c.78.94,2,2.65,2,3.73s-.9,2-2,2-2-.9-2-2,1.22-2.8,2-3.73Z"/><path d="m17.14,13.02l-3.56,2.65-1.9-2.16c-.28-.33-.7-.51-1.13-.51h-6.55v7h9.58c1.05,0,2.04-.47,2.71-1.28l3.95-4.83-1.37-.92c-.53-.35-1.22-.33-1.73.04Zm-1.62,5.06c-.48.58-1.18.92-1.94.92H5v-5h5.55c.14,0,.28.06.38.17l1.6,1.83h-4.53v1h5.41l.02.03.04-.03h.04v-.03l4.23-3.15c.17-.13.4-.13.58-.02l.46.3-3.25,3.97Z"/></svg>