<svg xmlns="http://www.w3.org/2000/svg" viewBox="0 0 24 24" width="24" height="24"><path d="m16.71,5h-2.13c-1.05-2-2.58-2-2.58-2v2s0,0,0,0v5h-6c-1.92,0-2-1.79-2-2v-.5h-1v.5c0,.87.46,2.38,2,2.85v10.15h4v-4h3v4h4v-7.64c1.82-.61,3.5-1.65,4.85-3.01l.15-.15v-3.21h-2.29l-2-2Zm-3.71,15v-4h-5v4h-2v-9h6.16c.39,1.28,1.48,2.25,2.84,2.45v6.55h-2Zm7-10.21c-1.23,1.18-2.72,2.09-4.34,2.63l-.22.07c-1.35-.03-2.44-1.14-2.44-2.49v-4h3.29l2,2h1.71v1.79Z"/><path d="M16 7.25A.75.75 0 1 0 16 8.75.75.75 0 1 0 16 7.25z"/></svg>