<svg xmlns="http://www.w3.org/2000/svg" viewBox="0 0 24 24" width="24" height="24"><path d="m6.5,4h-1c-1.38,0-2.5,1.12-2.5,2.5v3c0,1.38,1.12,2.5,2.5,2.5h1.5v8h4v-11.5c0-2.48-2.02-4.5-4.5-4.5Zm3.5,15h-2v-8h-2.5c-.83,0-1.5-.67-1.5-1.5v-3c0-.83.67-1.5,1.5-1.5h1c1.93,0,3.5,1.57,3.5,3.5v10.5Z"/><path d="m18.5,4h-1c-2.48,0-4.5,2.02-4.5,4.5v11.5h4v-8h1.5c1.38,0,2.5-1.12,2.5-2.5v-3c0-1.38-1.12-2.5-2.5-2.5Zm1.5,5.5c0,.83-.67,1.5-1.5,1.5h-2.5v8h-2v-10.5c0-1.93,1.57-3.5,3.5-3.5h1c.83,0,1.5.67,1.5,1.5v3Z"/><path d="M18 6H19V10H18z"/><path d="M5 6H6V10H5z"/></svg>