<svg xmlns="http://www.w3.org/2000/svg" width="24" height="24" viewBox="0 0 24 24"><path d="M12 17c-5.61 0-7.6-4.11-7.96-5 .17-.42.71-1.55 1.8-2.63l-.69-.69c-1.53 1.52-2.12 3.12-2.13 3.15l-.06.16.06.16c.02.06 2.08 5.84 8.97 5.84.81 0 1.55-.09 2.24-.23l-.87-.87c-.43.06-.88.1-1.37.1ZM20.97 12.16l.06-.16-.06-.16C20.95 11.78 18.89 6 12 6c-1.75 0-3.18.38-4.36.94L3.35 2.65l-.71.71 18 18 .71-.71-4.08-4.08c2.74-1.72 3.69-4.36 3.7-4.4ZM12 7c5.61 0 7.6 4.11 7.96 5-.24.59-1.19 2.56-3.41 3.85l-2.13-2.13c.35-.49.58-1.07.58-1.72 0-1.64-1.36-3-3-3-.64 0-1.23.23-1.72.58L8.39 7.69c.99-.41 2.18-.68 3.61-.68Z"/></svg>