<svg xmlns="http://www.w3.org/2000/svg" viewBox="0 0 24 24" width="24" height="24"><path d="m12.5,3c-3.64,0-6.74,1.9-7.95,4.55l-1.55-1.55v4h4l-1.69-1.69c.92-2.49,3.79-4.31,7.19-4.31,4.14,0,7.5,2.69,7.5,6h1c0-3.86-3.81-7-8.5-7Z"/><path d="m11,6c-1.1,0-2,.9-2,2v8.38l-2.04-1.11c-.63-.34-1.37-.33-1.98.04-.61.36-.98,1.01-.98,1.72,0,.47.25.91.65,1.15l4.71,2.83h10.64v-6.68c0-1.01-.75-1.86-1.75-1.98l-5.25-.66v-3.68c0-1.1-.9-2-2-2Zm7.12,7.33c.5.06.88.49.88.99v5.68h-9.36l-4.48-2.69c-.1-.06-.16-.17-.16-.29,0-.36.18-.68.49-.86.31-.18.68-.19.99-.02l3.52,1.92v-10.07c0-.55.45-1,1-1s1,.45,1,1v4.57l6.12.77Z"/></svg>