<svg xmlns="http://www.w3.org/2000/svg" viewBox="0 0 24 24" width="24" height="24"><path d="m7.55,19.45l-1.55,1.55h4v-4l-1.69,1.69c-2.49-.92-4.31-3.79-4.31-7.19,0-4.14,2.69-7.5,6-7.5v-1c-3.86,0-7,3.81-7,8.5,0,3.64,1.9,6.74,4.55,7.95Z"/><path d="m12.34,5.75l-.66,5.25h-3.68c-1.1,0-2,.9-2,2s.9,2,2,2h8.39l-1.11,2.04c-.34.63-.33,1.37.04,1.98.36.61,1.01.98,1.72.98.47,0,.9-.25,1.15-.65l2.83-4.71V4h-6.68c-1.01,0-1.86.75-1.98,1.75Zm7.66,8.61l-2.68,4.48c-.06.1-.17.16-.29.16-.36,0-.68-.18-.86-.49-.18-.31-.19-.68-.02-.99l1.92-3.52h-10.07c-.55,0-1-.45-1-1s.45-1,1-1h4.57l.77-6.12c.06-.5.49-.88.99-.88h5.68v9.36Z"/></svg>