<svg xmlns="http://www.w3.org/2000/svg" viewBox="0 0 24 24" width="24" height="24"><path d="m12.34,5.75l-.66,5.25h-3.68c-1.1,0-2,.9-2,2s.9,2,2,2h8.39l-1.11,2.04c-.34.62-.33,1.36.04,1.98s1.01.98,1.72.98c.47,0,.9-.25,1.15-.65l2.83-4.71V4h-6.68c-1.01,0-1.86.75-1.98,1.75Zm7.66,8.61l-2.68,4.48c-.06.1-.17.16-.29.16-.36,0-.68-.18-.86-.49-.18-.31-.19-.68-.02-.99l1.92-3.52h-10.07c-.55,0-1-.45-1-1s.45-1,1-1h4.57l.77-6.12c.06-.5.49-.88.99-.88h5.68v9.36Z"/><path d="m4,12.5c0-3.4,1.82-6.28,4.31-7.19l1.69,1.69V3h-4l1.55,1.55c-2.65,1.21-4.55,4.31-4.55,7.95,0,4.69,3.14,8.5,7,8.5v-1c-3.31,0-6-3.36-6-7.5Z"/></svg>