<svg xmlns="http://www.w3.org/2000/svg" viewBox="0 0 24 24" width="24" height="24"><path d="m7.46,15.71c.98,1.05,2.21,1.81,3.54,2.18v3.11h.5c2.39,0,4.17-1.26,4.46-3.12,2.94-.94,5.04-3.37,5.04-5.88s-2.1-4.94-5.04-5.88c-.29-1.85-2.07-3.12-4.46-3.12h-.5v3.11c-1.33.37-2.56,1.13-3.54,2.18-1.04-.85-2.4-1.29-3.96-1.29h-.5v.5c0,1.81.74,3.35,2.15,4.5-1.41,1.15-2.15,2.69-2.15,4.5v.5h.5c1.56,0,2.91-.44,3.96-1.29Zm-1.18-3.29l.63-.42-.63-.42c-1.33-.88-2.1-2.1-2.25-3.56,1.26.1,2.33.55,3.12,1.33l.39.39.35-.43c.97-1.19,2.29-2.02,3.72-2.33l.39-.09v-2.88c1.74.15,2.93,1.12,3,2.51l.02.36.35.1c2.64.73,4.63,2.89,4.63,5.02s-1.99,4.29-4.63,5.02l-.35.1-.02.36c-.07,1.38-1.26,2.35-3,2.51v-2.88l-.39-.09c-1.43-.31-2.75-1.14-3.72-2.33l-.35-.43-.39.39c-.79.78-1.86,1.24-3.12,1.33.15-1.46.92-2.68,2.25-3.56Z"/><path d="M17 10A1 1 0 1 0 17 12 1 1 0 1 0 17 10z"/><path d="m13.61,15.89l.71-.71c-.43-.43-.76-.93-.99-1.49-.22-.54-.33-1.11-.33-1.69s.11-1.15.33-1.69c.23-.56.56-1.06.99-1.49l-.71-.71c-.52.52-.93,1.14-1.21,1.82-.27.66-.4,1.35-.4,2.07s.14,1.41.4,2.07c.28.68.68,1.3,1.21,1.82Z"/></svg>