<svg xmlns="http://www.w3.org/2000/svg" viewBox="0 0 24 24" width="24" height="24"><path d="m12,21c3.86,0,7-3.19,7-7.11,0-6.82-6.47-10.66-6.75-10.82l-.25-.15-.25.15c-.28.16-6.75,4-6.75,10.82,0,3.92,3.14,7.11,7,7.11Zm-2-3.61c0-2.17,1.33-4.21,2-5.09.67.89,2,2.92,2,5.09,0,1.44-.9,2.61-2,2.61s-2-1.17-2-2.61Zm2-13.3c1.17.77,6,4.29,6,9.8,0,2.48-1.46,4.62-3.55,5.57.34-.59.55-1.3.55-2.07,0-3.27-2.52-6.1-2.63-6.22l-.37-.41-.37.41c-.11.12-2.63,2.96-2.63,6.22,0,.77.21,1.49.55,2.07-2.09-.96-3.55-3.09-3.55-5.57,0-5.51,4.83-9.03,6-9.8Z"/></svg>