<svg xmlns="http://www.w3.org/2000/svg" viewBox="0 0 24 24" width="24" height="24"><path d="m11.99,8c-2.19,0-3.98,1.8-3.99,4.01,0,2.19,1.8,3.98,4.01,3.99,2.19,0,3.98-1.8,3.99-3.99v-.02c0-2.19-1.8-3.98-4.01-3.99Zm3.51,3.99l-.5.02c0,1.64-1.35,2.99-3.01,2.99-1.64,0-2.99-1.35-2.99-3.01,0-1.64,1.35-2.99,3.01-2.99,1.64,0,2.99,1.35,2.99,2.99h.5Z"/><path d="m19.18,9.04c.39-1.18.09-2.5-.82-3.39-.9-.91-2.21-1.22-3.4-.82-.56-1.11-1.69-1.82-2.96-1.82s-2.41.71-2.96,1.82c-1.18-.39-2.49-.09-3.39.82-.91.9-1.22,2.21-.82,3.4-1.11.55-1.82,1.69-1.82,2.96s.71,2.41,1.82,2.96c-.39,1.18-.09,2.5.82,3.39.9.91,2.21,1.22,3.4.82.56,1.11,1.69,1.82,2.96,1.82s2.41-.71,2.96-1.82c1.18.39,2.49.09,3.39-.82.91-.9,1.22-2.21.82-3.4,1.11-.55,1.82-1.69,1.82-2.96s-.71-2.41-1.82-2.96Zm-.81,5.18l-.57.18.28.53c.48.91.3,2.01-.43,2.73-.72.73-1.82.9-2.73.43l-.53-.28-.18.57c-.3.97-1.19,1.62-2.21,1.62s-1.91-.65-2.21-1.62l-.18-.57-.53.28c-.91.48-2.01.3-2.73-.43-.73-.72-.9-1.82-.43-2.73l.28-.53-.57-.18c-.97-.3-1.62-1.19-1.62-2.21s.65-1.91,1.62-2.21l.57-.18-.28-.53c-.48-.91-.3-2.01.43-2.73.72-.73,1.82-.9,2.73-.43l.53.28.18-.57c.3-.97,1.19-1.62,2.21-1.62s1.91.65,2.21,1.62l.18.57.53-.28c.91-.47,2.01-.3,2.73.43.73.72.9,1.82.43,2.73l-.28.53.57.18c.97.3,1.62,1.19,1.62,2.21s-.65,1.91-1.62,2.21Z"/></svg>