<svg xmlns="http://www.w3.org/2000/svg" viewBox="0 0 24 24" width="24" height="24"><path d="M8.5 12A1.5 1.5 0 1 0 8.5 15 1.5 1.5 0 1 0 8.5 12z"/><path d="M15.5 12A1.5 1.5 0 1 0 15.5 15 1.5 1.5 0 1 0 15.5 12z"/><path d="m12,21c4.96,0,9-4.04,9-9S16.96,3,12,3,3,7.04,3,12s4.04,9,9,9Zm7.74-11c-2.36-.26-4.45-1.7-5.54-3.84.19-.31.36-.63.5-.97.09-.21.16-.42.23-.63,2.36.93,4.16,2.95,4.81,5.44Zm-7.74-6c.68,0,1.34.1,1.98.26-.06.18-.12.37-.2.54-.15.36-.34.7-.55,1.03l-.03.05c-.07.11-.16.21-.24.32-.18.24-.36.47-.57.69-.07.08-.14.16-.22.23-.28.27-.58.52-.91.75-.16.11-.32.21-.49.31-.06.03-.11.07-.17.1-.22.12-.45.22-.68.32-.08.03-.16.06-.24.09-.17.06-.35.12-.53.17-.09.02-.18.05-.27.07-.18.04-.36.08-.55.1-.09.01-.17.03-.25.04-.27.03-.54.05-.82.05-.87,0-1.72-.17-2.52-.48,1.27-2.73,4.04-4.63,7.25-4.63Zm-7.62,5.56c.92.36,1.89.55,2.89.55.29,0,.58-.02.87-.05.09-.01.19-.03.28-.04.16-.02.32-.04.47-.07.03,0,.07-.02.1-.03.11-.02.22-.06.33-.08.16-.04.32-.09.48-.14.13-.04.25-.09.38-.14.08-.03.16-.05.23-.09.06-.02.11-.06.17-.08.13-.06.25-.12.37-.18.13-.07.25-.13.37-.21.12-.07.24-.14.35-.22.03-.02.07-.04.1-.06.09-.06.18-.13.27-.2.1-.07.2-.14.29-.22.22-.18.43-.36.63-.56.21-.21.4-.43.58-.65,0,0,0,0,0,0,1.34,2.27,3.74,3.74,6.37,3.93.04.32.07.65.07.98,0,4.41-3.59,8-8,8s-8-3.59-8-8c0-.85.14-1.67.38-2.44Z"/></svg>