<svg xmlns="http://www.w3.org/2000/svg" viewBox="0 0 24 24" width="24" height="24"><path d="m20.98,14.38l-1.62-6.48c-.28-1.12-1.28-1.89-2.43-1.89h-.94v1h.94c.69,0,1.29.47,1.46,1.14l.9,3.6c-.65-.46-1.44-.73-2.29-.73-1.86,0-3.41,1.28-3.86,3h-2.28c-.45-1.72-2-3-3.86-3-.85,0-1.64.27-2.29.73l.9-3.6c.17-.67.77-1.14,1.46-1.14h.94v-1h-.94c-1.15,0-2.15.78-2.43,1.89l-1.62,6.48h.05c-.03.21-.06.41-.06.62,0,2.21,1.79,4,4,4s4-1.79,4-4h2c0,2.21,1.79,4,4,4s4-1.79,4-4c0-.21-.03-.41-.06-.61h.05Zm-13.98,3.62c-1.65,0-3-1.35-3-3s1.35-3,3-3,3,1.35,3,3-1.35,3-3,3Zm10,0c-1.65,0-3-1.35-3-3s1.35-3,3-3,3,1.35,3,3-1.35,3-3,3Z"/></svg>