<svg xmlns="http://www.w3.org/2000/svg" viewBox="0 0 24 24" width="24" height="24"><path class="b" d="m17.36,8l.95-.95c.45-.45.7-1.05.7-1.68s-.25-1.22-.7-1.67c-.92-.92-2.42-.92-3.36,0l-2.14,2.14c-.5-1.65-2-2.84-3.81-2.84-2.21,0-4,1.79-4,4,0,.35.05.68.14,1h-1.16l-1.03,12h18.09l-1.03-12h-2.66Zm-1.71-3.59c.54-.53,1.41-.54,1.95,0,.26.26.4.6.4.97s-.14.72-.4.98l-1.65,1.65h-3.08c.08-.3.13-.61.13-.94l2.66-2.66Zm-9.65,2.59c0-1.65,1.35-3,3-3s2.93,1.26,3,2.96l.5.04h-.5c0,.35-.06.69-.18,1h-5.65c-.12-.31-.18-.65-.18-1Zm-1.96,12l.85-10h14.2l.85,10H4.04Z"/><path class="b" d="m12,14c-1.65,0-3-1.35-3-3h-1c0,2.21,1.79,4,4,4s4-1.79,4-4h-1c0,1.65-1.35,3-3,3Z"/></svg>