<svg xmlns="http://www.w3.org/2000/svg" viewBox="0 0 24 24" width="24" height="24"><path d="m12,3C7.04,3,3,7.04,3,12s4.04,9,9,9,9-4.04,9-9S16.96,3,12,3Zm7.81,7.28c-1.08-.69-2.79-1.16-4.68-1.41-.25-1.89-.72-3.6-1.41-4.68,3.03.67,5.42,3.06,6.09,6.09Zm-7.81,9.72c-.74,0-1.7-1.75-2.12-4.76.7.06,1.41.09,2.12.09s1.42-.03,2.12-.09c-.42,3.01-1.38,4.76-2.12,4.76Zm0-5.67c-.8,0-1.54-.04-2.23-.1-.06-.69-.1-1.44-.1-2.23s.04-1.54.1-2.23c.69-.06,1.44-.1,2.23-.1s1.54.04,2.23.1c.06.69.1,1.44.1,2.23s-.04,1.54-.1,2.23c-.69.06-1.44.1-2.23.1Zm-3.24-.21c-3.01-.42-4.76-1.38-4.76-2.12s1.75-1.7,4.76-2.12c-.06.7-.09,1.41-.09,2.12s.03,1.42.09,2.12Zm3.24-10.12c.74,0,1.7,1.75,2.12,4.76-.7-.06-1.41-.09-2.12-.09s-1.42.03-2.12.09c.42-3.01,1.38-4.76,2.12-4.76Zm3.24,5.88c3.01.42,4.76,1.38,4.76,2.12s-1.75,1.7-4.76,2.12c.06-.7.09-1.41.09-2.12s-.03-1.42-.09-2.12Zm-4.96-5.69c-.69,1.08-1.16,2.79-1.41,4.68-1.89.25-3.6.72-4.68,1.41.67-3.03,3.06-5.42,6.09-6.09Zm-6.09,9.53c1.08.69,2.79,1.16,4.68,1.41.25,1.89.72,3.6,1.41,4.68-3.03-.67-5.42-3.06-6.09-6.09Zm9.53,6.09c.69-1.08,1.16-2.79,1.41-4.68,1.89-.25,3.6-.72,4.68-1.41-.67,3.03-3.06,5.42-6.09,6.09Z"/></svg>