<svg xmlns="http://www.w3.org/2000/svg" viewBox="0 0 24 24" width="24" height="24"><path d="m16.97,7.81l-.67-.45-.1.8s-.22,1.58-1.35,2.87c.23-1.13.21-2.5-.52-3.98-.95-1.92-3.79-3.88-3.92-3.97l-.83-.57.05,1.01s.06,1.88-2.45,4.42c-2.07,2.09-3.17,4.35-3.17,6.54,0,3.08,2.13,6.5,5.19,6.5h1l-.59-.8c-1.71-2.3-.74-4.4.09-5.53.35,3.83,2.32,6.33,5.13,6.33,2.39,0,5.19-1.74,5.19-6.64,0-4.47-2.91-6.47-3.03-6.55Zm-2.15,12.19c-2.5,0-4.19-2.65-4.19-6.58v-1.11l-.83.73s-3.45,3.11-1.61,6.79c-2-.69-3.19-3.35-3.19-5.34s1-3.94,2.88-5.84c1.78-1.79,2.41-3.33,2.63-4.25.87.67,2.34,1.93,2.92,3.09.73,1.48.73,2.95-.02,4.77l-.55,1.34,1.26-.72c1.8-1.03,2.56-2.73,2.87-3.76.77.77,2.01,2.45,2.01,5.22,0,5.37-3.49,5.64-4.19,5.64Z"/></svg>