<svg xmlns="http://www.w3.org/2000/svg" width="24" height="24" viewBox="0 0 24 24"><path d="M8.9 3h-1c0 1.36-.38 2-.83 2.74-.46.76-.97 1.62-.97 3.25s.52 2.5.97 3.26c.44.74.83 1.38.83 2.74s-.38 2-.83 2.74c-.46.76-.97 1.62-.97 3.26h1c0-1.36.38-2 .83-2.74.46-.76.97-1.62.97-3.26s-.52-2.5-.97-3.26c-.44-.74-.83-1.38-.83-2.74s.38-2 .83-2.74c.46-.76.97-1.62.97-3.26ZM13.4 3h-1c0 1.36-.38 2-.83 2.74-.46.76-.97 1.62-.97 3.25s.52 2.5.97 3.26c.44.74.83 1.38.83 2.74s-.38 2-.83 2.74c-.46.76-.97 1.62-.97 3.26h1c0-1.36.38-2 .83-2.74.46-.76.97-1.62.97-3.26s-.52-2.5-.97-3.26c-.44-.74-.83-1.38-.83-2.74s.38-2 .83-2.74c.46-.76.97-1.62.97-3.26ZM17.9 3h-1c0 1.36-.38 2-.83 2.74-.46.76-.97 1.62-.97 3.25s.52 2.5.97 3.26c.44.74.83 1.38.83 2.74s-.38 2-.83 2.74c-.46.76-.97 1.62-.97 3.26h1c0-1.36.38-2 .83-2.74.46-.76.97-1.62.97-3.26s-.52-2.5-.97-3.26c-.44-.74-.83-1.38-.83-2.74s.38-2 .83-2.74c.46-.76.97-1.62.97-3.26Z"/></svg>