<svg xmlns="http://www.w3.org/2000/svg" viewBox="0 0 24 24" width="24" height="24"><path d="m19.46,5.52c-2.06-2.03-5.29-2.03-7.34,0l-.12.12-.12-.12c-2.05-2.03-5.28-2.03-7.34,0-.99.99-1.54,2.29-1.53,3.65,0,1.36.55,2.65,1.54,3.63l7.46,7.4,7.46-7.4c.99-.98,1.53-2.27,1.54-3.63,0-1.37-.54-2.67-1.53-3.65h0Zm-.7,6.58l-6.76,6.7-6.76-6.7c-.8-.79-1.24-1.83-1.24-2.92,0-1.1.44-2.15,1.24-2.94.83-.82,1.9-1.23,2.97-1.23s2.13.41,2.96,1.23l.83.82.83-.82c1.66-1.64,4.27-1.64,5.94,0,.8.8,1.24,1.84,1.24,2.94,0,1.1-.44,2.13-1.24,2.92Z"/><path d="M12.5 8.5 11.5 8.5 11.5 11.5 8.5 11.5 8.5 12.5 11.5 12.5 11.5 15.5 12.5 15.5 12.5 12.5 15.5 12.5 15.5 11.5 12.5 11.5 12.5 8.5z"/></svg>