<svg xmlns="http://www.w3.org/2000/svg" viewBox="0 0 24 24" width="24" height="24"><path d="m16.93,6.75c.52-.92,1.07-1.87,1.07-3.75h-1c0,1.62-.45,2.41-.93,3.25-.52.92-1.07,1.87-1.07,3.75h1c0-1.62.45-2.41.93-3.25Z"/><path d="m13.07,6.25c-.52.92-1.07,1.87-1.07,3.75h1c0-1.62.45-2.41.93-3.25.52-.92,1.07-1.87,1.07-3.75h-1c0,1.62-.45,2.41-.93,3.25Z"/><path d="m19.07,6.25c-.52.92-1.07,1.87-1.07,3.75h1c0-1.62.45-2.41.93-3.25.52-.92,1.07-1.87,1.07-3.75h-1c0,1.62-.45,2.41-.93,3.25Z"/><path d="m20,15c-.66,0-.96-.19-1.34-.42-.43-.27-.92-.58-1.87-.58s-1.43.31-1.87.58c-.38.24-.68.42-1.34.42s-.96-.19-1.33-.42c-.43-.27-.92-.58-1.86-.58s-1.43.31-1.86.58c-.38.24-.68.42-1.33.42s-.96-.19-1.33-.42c-.43-.27-.92-.58-1.86-.58v-2h-1v6.5c0,1.38,1.12,2.5,2.5,2.5h13c1.38,0,2.5-1.12,2.5-2.5v-6.5h-1v3Zm0,3.5c0,.83-.67,1.5-1.5,1.5H5.5c-.83,0-1.5-.67-1.5-1.5v-3.5c.66,0,.96.19,1.33.42.43.27.92.58,1.86.58s1.43-.31,1.86-.58c.38-.24.68-.42,1.33-.42s.96.19,1.33.42c.43.27.92.58,1.86.58s1.43-.31,1.87-.58c.38-.24.68-.42,1.34-.42s.96.19,1.34.42c.43.27.92.58,1.87.58v2.5Z"/></svg>