<svg xmlns="http://www.w3.org/2000/svg" viewBox="0 0 24 24" width="24" height="24"><path d="m12,3C7.04,3,3,7.04,3,12s4.04,9,9,9c2.25,0,4.41-.84,6.08-2.37l1.53-1.4-2,.55c-.54.15-1.08.22-1.6.22-3.31,0-6-2.69-6-6s2.69-6,6-6c.53,0,1.07.08,1.6.22l2,.55-1.53-1.4c-1.67-1.53-3.83-2.37-6.08-2.37Zm-3,9c0,3.81,3.07,6.92,6.86,7-1.18.65-2.5,1-3.86,1-4.41,0-8-3.59-8-8S7.59,4,12,4c1.36,0,2.69.35,3.86,1-3.8.07-6.86,3.19-6.86,7Z"/><path d="M17.96 10.94 17 9 16.04 10.94 14 11.12 15.59 12.71 14.88 15 17 13.59 19.12 15 18.41 12.71 20 11.12 17.96 10.94z"/></svg>