<svg xmlns="http://www.w3.org/2000/svg" viewBox="0 0 24 24" width="24" height="24"><path d="m11.5,3c-4.22,0-8.5,2.58-8.5,7.5,0,2.43,1.04,4.58,3,6.24v4.26h1v-4.74l-.19-.15c-1.84-1.48-2.81-3.42-2.81-5.61,0-4.47,3.89-6.5,7.5-6.5,4.48,0,6.5,3.51,6.5,6l1.73,4h-2.73v4h-4v3h1v-2h4v-4h3.27l-2.27-5.11c-.06-3.34-2.92-6.89-7.5-6.89Z"/><path d="m8,13c.16,0,.31-.02.46-.06.45.64,1.19,1.06,2.04,1.06s1.58-.42,2.04-1.06c.15.04.3.06.46.06.81,0,1.51-.49,1.82-1.18.69-.31,1.18-1.01,1.18-1.82,0-.75-.42-1.39-1.02-1.74-.12-1.27-1.18-2.26-2.48-2.26-.49,0-.94.15-1.33.39-.33-.24-.73-.39-1.17-.39-.75,0-1.39.42-1.74,1.03-.09-.01-.17-.03-.26-.03-1.1,0-2,.9-2,2,0,.37.11.7.28,1-.17.3-.28.63-.28,1,0,1.1.9,2,2,2Z"/></svg>