<svg xmlns="http://www.w3.org/2000/svg" viewBox="0 0 24 24" width="24" height="24"><path d="m17.15,10.02l-.05-.4-.4-.03s-.47-.03-1.04.06c0,0,0,0,0,0,.87-1.78.04-3.62,0-3.7l-.17-.37-.4.1c-.06.01-1.02.27-1.9,1-.01-.32-.05-.65-.15-.99-.58-1.91-2.43-2.62-2.51-2.65l-.39-.14-.22.35c-.05.07-1.12,1.85-.54,3.74.5,1.66,1.96,2.41,2.39,2.6-.04,1.13.36,2.02.38,2.08l.17.37.14-.03c-.49,1.17-.35,2.31-.34,2.37l.03.2c-1.12.95-1.42,2.33-1.46,2.51-.2-.03-.41-.05-.63-.05-1.95.05-3.12,1.7-3.17,1.77l-.22.32.25.29c.06.07,1.37,1.59,3.26,1.59.03,0,.06,0,.08,0,1.95-.05,3.12-1.7,3.17-1.77l.22-.32-.25-.29s-.26-.29-.66-.6c.04,0,.07,0,.1,0,.56,0,1.19-.1,1.8-.42,1.73-.91,2.1-2.91,2.11-2.99l.07-.39-.36-.16s-.32-.14-.76-.24c.11-.09.22-.18.32-.29,1.36-1.42,1.1-3.44,1.09-3.52Zm-6.89,9.98c-1.03,0-1.83-.57-2.26-.94.38-.39,1.12-1,2.1-1.02,1.03-.02,1.83.57,2.26.94-.38.39-1.12,1-2.1,1.02Zm5.08-7.15c-.7.73-1.67.91-2.23.94.01-.56.14-1.53.84-2.26.69-.73,1.67-.91,2.23-.94-.01.56-.14,1.53-.84,2.26Zm-.44-6.06c.15.54.31,1.5-.14,2.41-.45.91-1.32,1.39-1.84,1.61-.15-.54-.31-1.5.14-2.41.45-.91,1.32-1.39,1.84-1.61Zm-4.55-.1c-.3-.99,0-1.98.24-2.52.47.27,1.21.85,1.5,1.8.3.99,0,1.98-.24,2.52-.47-.27-1.21-.84-1.5-1.8Zm3.86,10.03c-.88.46-1.87.31-2.41.16.18-.52.6-1.41,1.48-1.87.88-.46,1.87-.31,2.41-.16-.18.52-.6,1.41-1.48,1.87Z"/></svg>