<svg xmlns="http://www.w3.org/2000/svg" viewBox="0 0 24 24" width="24" height="24"><path d="m21.97,10.02l-.05-.4-.4-.03s-.47-.03-1.04.06c0,0,0,0,0,0,.87-1.78.04-3.62,0-3.7l-.17-.37-.4.1c-.06.01-1.02.27-1.9,1-.01-.32-.05-.65-.15-.99-.58-1.91-2.43-2.62-2.51-2.65l-.39-.14-.22.35c-.05.07-1.12,1.85-.54,3.74.5,1.66,1.96,2.41,2.39,2.6-.04,1.13.36,2.02.38,2.08l.17.37.14-.03c-.49,1.17-.35,2.31-.34,2.37l.03.2c-1.12.95-1.42,2.32-1.46,2.51-.2-.03-.41-.05-.63-.05-1.44.03-2.44.94-2.9,1.44-.45-.5-1.46-1.41-2.9-1.44-.22,0-.42.01-.63.05-.04-.19-.34-1.57-1.46-2.51l.03-.2c0-.06.15-1.21-.34-2.37l.14.03.17-.37c.02-.05.42-.95.38-2.08.43-.19,1.88-.94,2.39-2.6.57-1.89-.5-3.67-.54-3.74l-.22-.35-.39.14c-.08.03-1.93.74-2.51,2.65-.1.34-.14.67-.15.99-.88-.74-1.84-.99-1.9-1l-.4-.1-.17.37c-.04.08-.87,1.92,0,3.7,0,0,0,0,0,0-.57-.09-1-.06-1.04-.06l-.4.03-.05.4c-.01.08-.27,2.1,1.09,3.52.1.11.21.2.33.29-.44.1-.73.23-.76.24l-.36.16.07.39c.01.08.39,2.09,2.11,2.99.61.32,1.24.42,1.8.42.03,0,.06,0,.09,0-.39.31-.62.57-.64.6l-.25.29.22.32c.05.07,1.22,1.72,3.16,1.77.03,0,.06,0,.08,0,1.45,0,2.56-.9,3.02-1.34.46.45,1.57,1.34,3.02,1.34.03,0,.06,0,.08,0,1.95-.05,3.12-1.7,3.16-1.77l.22-.32-.25-.29s-.26-.29-.64-.6c.03,0,.06,0,.09,0,.56,0,1.19-.1,1.8-.42,1.73-.91,2.1-2.91,2.11-2.99l.07-.39-.36-.16s-.32-.14-.76-.24c.11-.09.22-.18.33-.29,1.36-1.42,1.1-3.44,1.09-3.52ZM7.09,5.97c.29-.96,1.03-1.53,1.5-1.8.23.54.54,1.53.24,2.52-.29.96-1.04,1.53-1.5,1.8-.23-.54-.54-1.52-.23-2.52Zm-2.82.82c.52.22,1.4.7,1.84,1.61.44.91.29,1.87.14,2.41-.52-.22-1.4-.7-1.84-1.61-.44-.91-.29-1.87-.14-2.41Zm-1.28,3.8c.56.04,1.53.22,2.23.94.69.73.83,1.7.84,2.26-.56-.04-1.53-.21-2.23-.95-.69-.73-.82-1.7-.84-2.26Zm1.97,6.13c-.88-.46-1.3-1.35-1.48-1.87.54-.15,1.52-.31,2.41.16.88.46,1.3,1.35,1.48,1.87-.54.15-1.52.31-2.41-.16Zm3.94,3.28c-.98-.02-1.72-.63-2.1-1.02.42-.37,1.23-.98,2.26-.94.98.02,1.72.63,2.1,1.02-.42.37-1.26.96-2.26.94Zm6.16,0c-1.04.01-1.83-.57-2.26-.94.38-.39,1.12-1,2.1-1.02,1.01-.03,1.83.57,2.26.94-.38.39-1.12,1-2.1,1.02Zm5.08-7.15c-.69.73-1.67.91-2.23.94.01-.56.14-1.53.84-2.26.69-.73,1.67-.91,2.23-.94-.01.56-.14,1.53-.84,2.26Zm-.44-6.06c.15.54.31,1.5-.14,2.41-.45.91-1.32,1.39-1.84,1.61-.15-.54-.31-1.5.14-2.41.45-.91,1.32-1.39,1.84-1.61Zm-4.55-.1c-.3-.99,0-1.98.24-2.52.47.27,1.21.84,1.5,1.8.3.99,0,1.98-.24,2.52-.47-.27-1.21-.85-1.5-1.8Zm3.86,10.03c-.89.46-1.87.31-2.41.16.18-.52.59-1.41,1.48-1.87.89-.46,1.87-.31,2.41-.16-.18.52-.59,1.41-1.48,1.87Z"/></svg>