<svg xmlns="http://www.w3.org/2000/svg" viewBox="0 0 24 24" width="24" height="24"><path d="m13.92,17.03c-.22,0-.42.02-.62.06-.03-.16-.33-1.56-1.46-2.52l.03-.2c0-.06.15-1.21-.34-2.37l.14.03.17-.37c.02-.05.42-.95.38-2.08.43-.19,1.88-.94,2.39-2.6.57-1.89-.5-3.67-.54-3.74l-.22-.35-.39.14c-.08.03-1.93.74-2.51,2.65-.1.34-.14.67-.15.99-.88-.74-1.84-.99-1.9-1l-.4-.1-.17.37c-.04.08-.87,1.92,0,3.7,0,0,0,0,0,0-.57-.09-1-.06-1.04-.06l-.4.03-.05.4c-.01.08-.27,2.1,1.09,3.52.1.11.21.2.32.29-.44.1-.73.23-.76.24l-.36.16.07.39c.01.08.39,2.09,2.11,2.99.61.32,1.24.42,1.8.42.04,0,.07,0,.11,0-.4.31-.64.57-.67.6l-.25.29.22.32c.05.07,1.22,1.72,3.17,1.77.03,0,.06,0,.08,0,1.89,0,3.2-1.53,3.26-1.59l.25-.29-.22-.32c-.05-.07-1.22-1.72-3.17-1.77Zm-2.01-11.06c.29-.96,1.04-1.53,1.5-1.8.23.53.54,1.52.23,2.52-.29.96-1.03,1.53-1.5,1.8-.23-.54-.54-1.53-.24-2.52Zm-2.82.82c.52.21,1.39.69,1.84,1.61.44.91.29,1.87.14,2.41-.52-.22-1.4-.7-1.84-1.61-.44-.91-.29-1.87-.14-2.41Zm-1.28,3.8c.56.04,1.53.22,2.23.94.69.73.83,1.7.84,2.26-.56-.04-1.53-.22-2.23-.94-.69-.73-.82-1.7-.84-2.26Zm1.97,6.13c-.88-.46-1.3-1.35-1.48-1.87.54-.15,1.52-.31,2.41.16.88.46,1.3,1.35,1.48,1.87-.54.15-1.52.3-2.41-.16Zm3.94,3.28c-.98-.02-1.72-.63-2.1-1.02.42-.37,1.22-.99,2.26-.94.98.02,1.72.63,2.1,1.02-.42.37-1.27.95-2.26.94Z"/></svg>