<svg xmlns="http://www.w3.org/2000/svg" viewBox="0 0 24 24" width="24" height="24"><path d="m12,3C7.04,3,3,7.04,3,12s3.77,8.71,8.5,8.97v.03h1v-.03c4.73-.26,8.5-4.18,8.5-8.97S16.96,3,12,3Zm-6.24,14c-.43-.53-.79-1.12-1.07-1.75h6.8v1.75h-5.74Zm5.74-5.5h-7.47c.04-.6.14-1.19.3-1.75h7.17v1.75Zm0,2.75h-7.17c-.16-.56-.26-1.15-.3-1.75h7.47v1.75Zm0-5.5h-6.8c.28-.63.64-1.22,1.07-1.75h5.74v1.75Zm-4.77-2.75c1.29-1.14,2.95-1.86,4.77-1.97v1.97h-4.77Zm0,12h4.77v1.97c-1.82-.11-3.48-.84-4.77-1.97Zm5.77,1.97V4.03c4.18.26,7.5,3.73,7.5,7.97s-3.32,7.71-7.5,7.97Z"/></svg>