<svg xmlns="http://www.w3.org/2000/svg" viewBox="0 0 24 24" width="24" height="24"><path d="m17.84,14.37c-4.53,0-8.21-3.68-8.21-8.21,0-.85.13-1.69.39-2.5l.3-.92-.92.3c-3.83,1.23-6.4,4.75-6.4,8.77,0,5.08,4.13,9.21,9.21,9.21,4.02,0,7.54-2.57,8.77-6.4l.3-.92-.92.3c-.81.26-1.66.39-2.5.39Zm-5.63,5.63c-4.53,0-8.21-3.68-8.21-8.21,0-3.26,1.9-6.16,4.82-7.48-.12.61-.19,1.22-.19,1.84,0,5.08,4.13,9.21,9.21,9.21.62,0,1.24-.06,1.84-.19-1.32,2.92-4.21,4.82-7.48,4.82Z"/><path d="M15 9 15.94 6.94 18 6 15.94 5.06 15 3 14.06 5.06 12 6 14.06 6.94 15 9z"/><path d="M18.38 10.62 19 12 19.62 10.62 21 10 19.62 9.38 19 8 18.38 9.38 17 10 18.38 10.62z"/></svg>