<svg xmlns="http://www.w3.org/2000/svg" viewBox="0 0 24 24" width="24" height="24"><path d="m20.96,11.5c0-.08.01-.16,0-.24-.37-4.64-4.31-8.27-8.97-8.27S3.49,6.49,3.04,11.12c0,.02,0,.03,0,.05h0v.26c-.01.28-.02.56,0,.83v2.64c-.29,2.99,1.64,5.64,4.39,6.05.27.04.54.06.8.06,1.2,0,2.35-.41,3.29-1.18.9-.74,2.12-.84,3.17-.27.62.33,1.32.51,2.03.51h0c1.08,0,2.1-.48,2.89-1.33.96-1.04,1.46-2.51,1.35-3.89l.03-3.33h-.03Zm-8.97-7.5c4.14,0,7.64,3.23,7.97,7.35.09,1.06-.28,2.15-.98,2.91-.6.66-1.41,1.02-2.27,1.02h0c-.54,0-1.07-.13-1.55-.39-1.42-.76-3.06-.62-4.28.38-.93.76-2.11,1.08-3.32.9-1.93-.28-3.35-1.96-3.54-3.99v-.98c.41-4.1,3.83-7.2,7.96-7.2Zm6.89,14.05c-.42.46-1.14,1.01-2.16,1.01h0c-.54,0-1.08-.13-1.55-.39-1.42-.76-3.06-.62-4.28.38-.93.76-2.11,1.09-3.32.9-2.2-.32-3.74-2.47-3.54-4.94.79,1.13,1.98,1.94,3.39,2.15.27.04.53.06.8.06,1.2,0,2.35-.41,3.3-1.18.9-.74,2.12-.84,3.17-.27.62.33,1.32.51,2.02.51h.01c1.14,0,2.21-.48,3-1.34.09-.1.16-.22.24-.33v.27c.09,1.13-.33,2.35-1.09,3.17Z"/><path d="m8.81,14c1.18,0,1.73-.48,2.43-.97.76-.53,1.89-.91,2.75-.51.38.17,1.54.51,2,.51,1,0,2.12-.89,1.99-2.29-.25-2.65-2.84-4.74-5.99-4.74s-5.68,2.04-5.98,4.66c-.18,1.59.95,3.34,2.8,3.34Zm.68-5c.83,0,1.5.67,1.5,1.5s-.67,1.5-1.5,1.5-1.5-.67-1.5-1.5.67-1.5,1.5-1.5Z"/></svg>