<svg xmlns="http://www.w3.org/2000/svg" viewBox="0 0 24 24" width="24" height="24"><path d="m14.51,10.17c.65-.67.65-1.74,0-2.41-.66-.67-1.69-.67-2.34,0l-.17.17-.17-.17c-.65-.67-1.69-.67-2.34,0-.65.68-.65,1.74,0,2.41l2.51,2.58,2.51-2.58Z"/><path d="M6.5 6A1.5 1.5 0 1 0 6.5 9 1.5 1.5 0 1 0 6.5 6z"/><path d="m18.5,10h-1.09c-.4,0-.78.16-1.06.44l-3.56,3.56h-1.59l-3.56-3.56c-.28-.28-.66-.44-1.06-.44h-1.09c-.83,0-1.5.67-1.5,1.5v5.5h4v-4.79l2.79,2.79h2.41l2.79-2.79v4.79h4v-5.5c0-.83-.67-1.5-1.5-1.5Z"/><path d="M17.5 6A1.5 1.5 0 1 0 17.5 9 1.5 1.5 0 1 0 17.5 6z"/></svg>