<svg xmlns="http://www.w3.org/2000/svg" width="24" height="24" viewBox="0 0 24 24"><path d="M13.48 16.16c-.65-.36-2.13-1.25-3.26-2.38s-2.02-2.61-2.38-3.26l2.49-2.31L6.72 2.8 3.01 5.37v.25c-.04.65-.15 6.45 4.38 10.98 4.09 4.09 9.22 4.4 10.65 4.4h.5800000000000001l2.57-3.72-5.42-3.61-2.3 2.49Zm6.32 1.38L18.1 20c-1.16 0-6.13-.24-9.99-4.1s-4.1-8.84-4.1-9.99l2.46-1.7 2.57 3.86-2.43 2.25.17.34c.05.09 1.15 2.24 2.74 3.84 1.6 1.6 3.75 2.7 3.84 2.75l.34.17 2.25-2.43 3.86 2.57ZM17 3v3h-3v1h3v3h1V7h3V6h-3V3z"/></svg>