<svg xmlns="http://www.w3.org/2000/svg" width="24" height="24" viewBox="0 0 24 24"><path d="M13.5 3H13v8h8v-.5C21 6.36 17.64 3 13.5 3m.5 7V4.02c3.19.24 5.74 2.79 5.98 5.98z"/><path d="M11.01 21c2.14 0 4.15-.83 5.67-2.35A8 8 0 0 0 19 13.52l.03-.53h-8.02V4.97l-.53.04A8 8 0 0 0 3 13c0 2.14.83 4.15 2.35 5.67a7.98 7.98 0 0 0 5.67 2.35ZM6.05 8.03a6.96 6.96 0 0 1 3.96-1.97v7.93h7.93c-.21 1.5-.9 2.89-1.98 3.96C14.64 19.27 12.87 20 11 20s-3.63-.73-4.96-2.05c-1.32-1.32-2.05-3.08-2.05-4.96s.73-3.63 2.05-4.96Z"/></svg>