<svg xmlns="http://www.w3.org/2000/svg" viewBox="0 0 24 24" width="24" height="24"><path d="m4,5.5v13c0,.18.02.35.06.52.21,1.21,1.1,1.74,1.87,1.91.05.01.09.02.14.03.16.03.31.04.44.04h13.5v-1H6.5s0,0,0,0c-.09,0-.18-.01-.27-.03-.01,0-.03,0-.04,0-.57-.12-1.03-.57-1.15-1.14-.02-.1-.04-.2-.04-.32,0-.83.67-1.5,1.5-1.5h13.5V3H6.5c-1.38,0-2.5,1.12-2.5,2.5Zm15,10.5H6.5c-.56,0-1.08.2-1.5.51V5.5c0-.83.67-1.5,1.5-1.5h12.5v12Z"/><path d="M8.5 6A1.5 1.5 0 1 0 8.5 9 1.5 1.5 0 1 0 8.5 6z"/><path d="M14 9 11 12.5 9.5 11 7 14 18 14 14 9z"/></svg>