<svg xmlns="http://www.w3.org/2000/svg" viewBox="0 0 24 24" width="24" height="24"><path d="m17,6.1v-3.1h-1.5c-1.35,0-2.57.79-3.15,2h-2.85c-3.58,0-6.5,2.92-6.5,6.5,0,.19,0,4.64,1.53,9.16l.11.34h4.36v-3h4v3h4.29l.14-.25c1.62-2.84,2.06-5.65,2.18-6.75h1.39v-6h-2.1l-1.9-1.9Zm3,6.9h-1.33s-.02.48-.02.48c0,.03-.17,3.26-1.95,6.52h-2.71v-3h-6v3h-2.64c-1.36-4.25-1.36-8.46-1.36-8.5,0-3.03,2.47-5.5,5.5-5.5h3.54l.12-.33c.35-1,1.3-1.67,2.35-1.67h.5v2.52l2.48,2.48h1.52v4Z"/><path d="M16 9A1 1 0 1 0 16 11 1 1 0 1 0 16 9z"/><path d="M7 8H13V9H7z"/></svg>