<svg xmlns="http://www.w3.org/2000/svg" width="24" height="24" viewBox="0 0 24 24"><path d="M20.13 10.94a1.983 1.983 0 0 0 0-2.82l-1.77-1.77 2.12-2.12-.71-.71-2.12 2.12-1.77-1.77c-.78-.78-2.05-.78-2.83 0L10.22 6.7l7.07 7.07 2.83-2.83Zm-6.36-6.36c.38-.38 1.04-.38 1.41 0l4.24 4.24c.19.19.29.44.29.71s-.1.52-.29.71l-2.12 2.12-5.66-5.66 2.12-2.12ZM13.41 12.71l-2.12 2.12-2.12-2.12 2.12-2.12-.71-.71L8.46 12l-1.77-1.77-2.83 2.83a1.983 1.983 0 0 0 0 2.82l1.77 1.77-2.12 2.12.71.71 2.12-2.12 1.77 1.77c.39.39.9.58 1.41.58s1.02-.2 1.41-.58l2.83-2.83-1.77-1.77 2.12-2.12-.71-.71Zm-1.06 4.6-2.12 2.12c-.38.38-1.04.38-1.41 0l-4.24-4.24c-.19-.19-.29-.44-.29-.71s.1-.52.29-.71l2.12-2.12 5.66 5.66Z"/></svg>