<svg xmlns="http://www.w3.org/2000/svg" width="24" height="24" viewBox="0 0 24 24"><path d="M5 12.5h3.02c.07.28.12.59.12 1 0 2.57-1.07 4.64-2.87 5.55l.38.92c.85-.27 3.23-.98 3.97-.98.9 0 1.58.23 2.3.47.76.26 1.56.53 2.62.53s2.96-.89 3.17-.99l-.43-.9c-.52.25-2.03.89-2.74.89-.9 0-1.58-.23-2.3-.47-.76-.26-1.56-.53-2.62-.53-.44 0-1.22.17-2 .37.97-1.25 1.51-2.94 1.51-4.87 0-.4-.04-.71-.1-1h3.96v-1H8.72l-.05-.13c-.26-.65-.53-1.32-.53-2.87 0-1.74 1.18-3.5 3.81-3.5s3.18 2.34 3.21 2.44l.97-.26c-.29-1.1-1.53-3.19-4.18-3.19-3.3 0-4.81 2.33-4.81 4.5 0 1.55.25 2.35.5 3H4.98v1Z"/></svg>