<svg xmlns="http://www.w3.org/2000/svg" viewBox="0 0 24 24" width="24" height="24"><path d="M4 4 8 4 8 3 3 3 3 8 4 8 4 4z"/><path d="M4 16 3 16 3 21 8 21 8 20 4 20 4 16z"/><path d="M20 20 16 20 16 21 21 21 21 16 20 16 20 20z"/><path d="M16 4 20 4 20 8 21 8 21 3 16 3 16 4z"/><path d="m5,11h6v-6h-6v6Zm1-5h4v4h-4v-4Z"/><path d="m5,19h6v-6h-6v6Zm1-5h4v4h-4v-4Z"/><path d="m19,5h-6v6h6v-6Zm-1,5h-4v-4h4v4Z"/><path d="M13 13H15V15H13z"/><path d="M15 15H17V17H15z"/><path d="M17 17H19V19H17z"/><path d="M17 13H19V15H17z"/></svg>