<svg xmlns="http://www.w3.org/2000/svg" width="24" height="24" viewBox="0 0 24 24"><path d="M22 11h-5.02c.03-.98.44-3.3 3.63-4.01L21 6.9V5h-.5c-2.62 0-4.62.67-5.94 2C13.01 8.55 13 10.43 13 10.5V19h9zm-1 7h-7v-7.5s0-1.53 1.26-2.79C16.3 6.66 17.9 6.09 20 6.02v.1c-4.47 1.23-4 5.41-4 5.45l.06.44H21v6ZM11 11H5.98c.03-.98.44-3.3 3.63-4.01L10 6.9V5h-.5c-2.62 0-4.62.67-5.94 2C2.01 8.55 2 10.43 2 10.5V19h9zm-1 7H3v-7.5s0-1.53 1.26-2.79C5.3 6.66 6.9 6.09 9 6.02v.1c-4.47 1.23-4 5.41-4 5.45l.06.44H10v6Z"/></svg>