<svg xmlns="http://www.w3.org/2000/svg" width="24" height="24" viewBox="0 0 24 24"><path d="M20.29 8.5c-.22-.53-.5-1.05-.83-1.53-.32-.48-.69-.92-1.1-1.33-.17-.17-.34-.32-.52-.48L20 3h-5v5l2.13-2.13c.18.15.36.31.52.48.36.36.69.76.98 1.18.29.43.54.89.74 1.36.2.48.36.99.47 1.5.11.53.16 1.07.16 1.61a7.85 7.85 0 0 1-.63 3.11 7.871 7.871 0 0 1-1.72 2.54c-.36.36-.76.69-1.18.98-.43.29-.89.54-1.36.74-.48.2-.99.36-1.5.47-.53.11-1.07.16-1.61.16v1c.61 0 1.22-.06 1.81-.18.58-.12 1.15-.29 1.69-.52.53-.23 1.05-.5 1.53-.83.47-.32.92-.69 1.33-1.1s.78-.86 1.1-1.33c.33-.48.61-1 .83-1.53.23-.54.41-1.11.52-1.69.12-.59.18-1.2.18-1.81s-.06-1.22-.18-1.81c-.12-.58-.29-1.15-.52-1.69ZM4.63 8.89c.2-.47.45-.93.74-1.36.29-.42.62-.82.98-1.18s.76-.69 1.18-.98c.43-.29.89-.54 1.36-.74.48-.2.99-.36 1.5-.47A8 8 0 0 1 12 4V3c-.61 0-1.22.06-1.81.18-.58.12-1.15.29-1.69.52-.53.22-1.04.5-1.53.83-.48.32-.92.69-1.33 1.1s-.78.85-1.1 1.33c-.33.48-.61 1-.83 1.53-.23.54-.41 1.11-.52 1.69-.12.59-.18 1.2-.18 1.81s.06 1.22.18 1.81c.12.58.29 1.15.52 1.69.22.53.5 1.05.83 1.53.32.48.69.92 1.1 1.33.17.17.34.32.52.48L4 20.99h5v-5l-2.13 2.13c-.18-.15-.36-.31-.52-.48a8.1 8.1 0 0 1-1.72-2.55c-.2-.48-.36-.99-.47-1.5-.11-.53-.16-1.07-.16-1.61a7.85 7.85 0 0 1 .63-3.11Z"/></svg>