<svg xmlns="http://www.w3.org/2000/svg" viewBox="0 0 24 24" width="24" height="24"><path d="m11.94,9.63l-.46-.88c-1.17.62-2.12,1.56-2.74,2.74l.88.46c.52-1,1.32-1.8,2.32-2.32Z"/><path d="m15.26,12.52l-.88-.46c-.52,1-1.32,1.8-2.32,2.32l.46.88c1.17-.62,2.12-1.56,2.74-2.74Z"/><path d="m8.15,15.85c.63,3,3.25,5.15,6.35,5.15,3.58,0,6.5-2.92,6.5-6.5,0-3.1-2.14-5.72-5.15-6.35-.63-3-3.25-5.15-6.35-5.15-3.58,0-6.5,2.92-6.5,6.5,0,3.1,2.14,5.72,5.15,6.35Zm1.35-11.85c2.5,0,4.61,1.66,5.27,4.01-.45-.02-.95,0-1.43.09l.18.98c.5-.09,1.04-.11,1.46-.07.01.15.02.31.02.48,0,.33-.03.66-.09.98l.98.18c.07-.38.1-.77.1-1.16,0-.1,0-.18-.01-.27,2.35.66,4.01,2.77,4.01,5.27,0,3.03-2.47,5.5-5.5,5.5-2.5,0-4.61-1.66-5.27-4.01.09,0,.17.01.27.01.39,0,.78-.04,1.16-.1l-.18-.98c-.5.09-1.04.11-1.46.07-.01-.15-.02-.31-.02-.48,0-.33.03-.66.09-.98l-.98-.18c-.07.38-.1.77-.1,1.16,0,.1,0,.18.01.27-2.35-.66-4.01-2.77-4.01-5.27,0-3.03,2.47-5.5,5.5-5.5Z"/></svg>