<svg xmlns="http://www.w3.org/2000/svg" viewBox="0 0 24 24" width="24" height="24"><path d="m16.27,11.62c-.07-.75-.55-4.17-3.9-7.7l-.36-.38-.36.38c-3.38,3.56-3.84,6.99-3.91,7.73-2.22-1.55-4-1.96-4.12-1.99l-.61-.14v.62c0,6.59,3.53,10.85,9,10.85,6.22,0,9-5.45,9-10.85v-.62l-.61.13c-.12.03-1.92.44-4.13,1.96Zm-7.54.2s.18-3.33,3.28-6.81c3.1,3.48,3.28,6.78,3.28,6.79v.56c-1.09.87-2.22,2.01-3.28,3.5-1.07-1.47-2.2-2.59-3.27-3.46v-.58Zm3.28,8.19c-5.62,0-7.79-4.62-7.99-9.17,1.38.49,4.78,2.06,7.57,6.19l.42.62.41-.63c2.71-4.13,6.17-5.7,7.57-6.18-.2,4.38-2.37,9.17-7.98,9.17Z"/></svg>