<svg xmlns="http://www.w3.org/2000/svg" width="24" height="24" viewBox="0 0 24 24"><path d="M12 3c-4.96 0-9 4.04-9 9s4.04 9 9 9 9-4.04 9-9-4.04-9-9-9m0 17c-4.41 0-8-3.59-8-8s3.59-8 8-8 8 3.59 8 8-3.59 8-8 8"/><path d="M8.5 9a1.5 1.5 0 1 0 0 3 1.5 1.5 0 1 0 0-3M15.5 9c-.83 0-1.5.67-1.5 1.5s.67 1.5 1.5 1.5 1.5-.67 1.5-1.5S16.33 9 15.5 9M15.18 15.18a4.5 4.5 0 0 1-1.43.96c-.27.12-.56.2-.84.26-.59.12-1.22.12-1.82 0-.29-.06-.57-.15-.84-.26-.27-.12-.53-.25-.76-.42-.24-.16-.46-.35-.67-.55-.2-.2-.39-.43-.55-.67l-.83.56c.2.29.42.57.67.81s.52.48.81.67c.29.2.6.37.94.51.33.14.68.25 1.03.32.36.07.74.11 1.11.11s.74-.04 1.11-.11a5.3 5.3 0 0 0 1.96-.83c.29-.2.57-.42.81-.67.25-.25.47-.52.67-.81l-.83-.56c-.16.24-.35.46-.55.67Z"/></svg>