<svg xmlns="http://www.w3.org/2000/svg" width="24" height="24" viewBox="0 0 24 24"><path d="M7.5 19.79a8.9 8.9 0 0 0 4.48 1.2c3.11 0 6.14-1.61 7.81-4.5 1.2-2.08 1.52-4.51.9-6.83A8.93 8.93 0 0 0 16.5 4.2a8.96 8.96 0 0 0-6.83-.9 8.93 8.93 0 0 0-5.46 4.19c-2.48 4.3-1 9.81 3.29 12.29ZM4.6 15h7.98l-2.71 4.7a8.3 8.3 0 0 1-1.86-.77A7.95 7.95 0 0 1 4.61 15Zm6.25-5h2.31l1.15 2-1.15 2h-2.31L9.7 12zm.05 9.92L14.89 13l2.71 4.7a8.07 8.07 0 0 1-6.71 2.22ZM18.94 16c-.19.33-.4.63-.63.91L14.32 10h5.43c.53 2.04.24 4.17-.81 6m.48-7h-7.99l2.72-4.71c.64.18 1.27.44 1.86.78 1.56.9 2.75 2.28 3.41 3.93M9.94 4.27c.69-.18 1.39-.28 2.08-.28.37 0 .73.03 1.1.08l-4 6.92-2.72-4.7c.97-.96 2.18-1.66 3.53-2.02ZM5.08 8c.19-.32.4-.63.63-.92L9.7 14H4.27c-.51-1.96-.28-4.11.81-6"/></svg>