<svg xmlns="http://www.w3.org/2000/svg" viewBox="0 0 24 24" width="24" height="24"><path d="m20.14,6.81c-.16-.04-.33.02-.45.14l-3.32,3.32-2.63-2.63,3.32-3.32c.12-.12.17-.29.14-.45-.03-.16-.15-.3-.3-.36-2.49-1.03-5.32-.46-7.22,1.44-1.82,1.82-2.42,4.5-1.56,6.91l-4.96,4.96c-.09.09-.15.22-.15.35s.05.26.15.35l3.34,3.34c.09.09.22.15.35.15s.26-.05.35-.15l4.96-4.96c2.41.85,5.09.26,6.91-1.56,1.9-1.9,2.47-4.74,1.44-7.22-.06-.15-.2-.27-.36-.3Zm-1.79,6.82c-1.62,1.61-4.02,2.09-6.14,1.23-.19-.07-.4-.03-.54.11l-4.83,4.83-2.63-2.63,4.83-4.83c.14-.14.19-.36.11-.54-.87-2.11-.39-4.52,1.23-6.13,1.43-1.43,3.48-1.97,5.4-1.47l-3.1,3.1c-.2.2-.2.51,0,.71l3.34,3.34c.09.09.22.15.35.15s.26-.05.35-.15l3.1-3.1c.5,1.92-.04,3.97-1.47,5.4Z"/></svg>