<svg xmlns="http://www.w3.org/2000/svg" viewBox="0 0 24 24" width="24" height="24"><path d="m15.83,8.17c-.61-2.96-3.26-5.17-6.33-5.17-3.58,0-6.5,2.92-6.5,6.5,0,3.07,2.2,5.72,5.17,6.33.61,2.97,3.26,5.17,6.33,5.17,3.58,0,6.5-2.92,6.5-6.5,0-3.08-2.21-5.73-5.17-6.33Zm-11.83,1.33c0-3.03,2.47-5.5,5.5-5.5,2.47,0,4.64,1.68,5.29,4.01-.09,0-.19,0-.29,0-3.58,0-6.5,2.92-6.5,6.5,0,.1,0,.19,0,.29-2.32-.65-4.01-2.82-4.01-5.29Zm10.5,10.5c-2.7,0-5.03-2-5.43-4.68-.05-.24-.07-.5-.07-.82,0-3.03,2.47-5.5,5.5-5.5.31,0,.57.02.83.07h.04c2.64.42,4.63,2.74,4.63,5.43,0,3.03-2.47,5.5-5.5,5.5Z"/></svg>