<svg xmlns="http://www.w3.org/2000/svg" viewBox="0 0 24 24" width="24" height="24"><path d="m4,20h16V4H4v16Zm1-15h14v14H5V5Z"/><path d="m16.15,7.15l-1.71,1.71c-.68-.53-1.52-.85-2.44-.85s-1.76.33-2.44.85l-1.71-1.71-.71.71,1.71,1.71c-.53.68-.85,1.52-.85,2.44s.33,1.76.85,2.44l-1.71,1.71.71.71,1.71-1.71c.68.53,1.52.85,2.44.85s1.76-.33,2.44-.85l1.71,1.71.71-.71-1.71-1.71c.53-.68.85-1.52.85-2.44s-.33-1.76-.85-2.44l1.71-1.71-.71-.71Zm-4.15,7.85c-1.65,0-3-1.35-3-3s1.35-3,3-3,3,1.35,3,3-1.35,3-3,3Z"/></svg>