<svg xmlns="http://www.w3.org/2000/svg" viewBox="0 0 24 24" width="24" height="24"><path d="M4 10H5V11H4z"/><path d="M4 13H5V14H4z"/><path d="M4 16H5V17H4z"/><path d="M4 19H5V20H4z"/><path d="M19 4H20V5H19z"/><path d="M19 7H20V8H19z"/><path d="M19 10H20V11H19z"/><path d="M19 13H20V14H19z"/><path d="M19 16H20V17H19z"/><path d="M16 4H17V5H16z"/><path d="M13 4H14V5H13z"/><path d="M10 4H11V5H10z"/><path d="M7 4H8V5H7z"/><path d="M13 19H14V20H13z"/><path d="M10 19H11V20H10z"/><path d="M7 19H8V20H7z"/><path d="m17,7H7.71L3.35,2.65l-.71.71,4.35,4.35h0s1,1,1,1h0s7.29,7.29,7.29,7.29h0l1,1h0l4.35,4.35.71-.71-4.35-4.35V7Zm-1,1v7.29l-7.29-7.29h7.29Z"/><path d="M7 10.54 7 17 13.46 17 12.46 16 8 16 8 11.54 7 10.54z"/></svg>