<svg xmlns="http://www.w3.org/2000/svg" viewBox="0 0 24 24" width="24" height="24"><path d="m10.91,3.15c-1.41-.31-2.92-.14-4.23.49l.43.9c1.1-.53,2.38-.68,3.57-.41l.22-.98Z"/><path d="m11.15,14.75c-.53.17-1.08.25-1.64.25h0c-.49,0-.97-.07-1.45-.2-.17-.05-.34-.1-.5-.16l-.35.94c.19.07.39.13.58.19.56.15,1.17.23,1.72.23.66,0,1.31-.1,1.94-.3l-.3-.95Z"/><path d="m5.63,5.59l-.7-.71c-.81.8-1.4,1.81-1.69,2.91-.08.29-.14.6-.18.91l.99.12c.03-.26.08-.51.15-.77.25-.93.75-1.79,1.43-2.46Z"/><path d="m5.34,14.5l.64-.77c-.94-.79-1.6-1.88-1.86-3.08l-.98.21c.3,1.42,1.08,2.71,2.2,3.64Z"/><path d="m15.77,11.21c.15-.56.23-1.13.23-1.71v-.12s-1,.01-1,.01v.1c0,.49-.06.97-.19,1.45-.33,1.2-1.03,2.23-2.03,2.97l.6.8c1.18-.88,2.01-2.09,2.4-3.51Z"/><path d="m15.6,7.26c-.5-1.36-1.46-2.53-2.69-3.29l-.52.85c1.04.64,1.85,1.63,2.28,2.79l.94-.35Z"/><path d="m8.31,16.49c.44,1.38,1.35,2.59,2.55,3.4l.56-.83c-1.02-.69-1.78-1.71-2.16-2.88l-.95.31Z"/><path d="m19.45,12.09l.9-.44c-.64-1.31-1.71-2.38-3.01-3.01l-.44.9c1.1.53,2.01,1.44,2.54,2.54Z"/><path d="m14.51,21c.88,0,1.74-.18,2.56-.53l-.39-.92c-.97.41-2.03.55-3.08.37-.17-.03-.35-.07-.51-.11l-.26.97c.2.05.4.1.61.13.36.06.72.09,1.08.09Z"/><path d="m15.15,9.04l.12-.99c-1.47-.18-2.91.15-4.15.91l.52.85c1.05-.64,2.27-.91,3.52-.77Z"/><path d="m8.09,13.43c-.05.31-.08.62-.09.92l1,.02c0-.26.03-.52.07-.78.16-.96.57-1.85,1.18-2.59l-.77-.64c-.72.88-1.21,1.94-1.4,3.07Z"/><path d="m19.96,13.84c.03.21.04.43.04.65,0,.3-.03.61-.08.92-.21,1.23-.8,2.32-1.72,3.16l.67.74c1.09-.99,1.79-2.28,2.03-3.74.06-.36.09-.72.09-1.08,0-.26-.02-.51-.05-.77l-.99.12Z"/></svg>