<svg xmlns="http://www.w3.org/2000/svg" viewBox="0 0 24 24" width="24" height="24"><path d="m15.75,3H3v6.38c0,.84.4,1.58,1.01,2.06,0,.02-.01.04-.01.07v9.5h16v-9.5s-.01-.05-.01-.07c.61-.48,1.01-1.22,1.01-2.06V3h-5.25Zm-3.25,1h3.25v5.38c0,.9-.73,1.62-1.62,1.62s-1.62-.73-1.62-1.62v-5.38Zm-4.25,0h3.25v5.38c0,.9-.73,1.62-1.62,1.62s-1.62-.73-1.62-1.62v-5.38Zm-4.25,0h3.25v5.38c0,.9-.73,1.62-1.62,1.62s-1.62-.73-1.62-1.62v-5.38Zm6,16v-5h4v5h-4Zm9,0h-4v-6h-6v6h-4v-8.08c.2.05.41.08.62.08.88,0,1.65-.44,2.12-1.1.48.66,1.25,1.1,2.12,1.1s1.65-.44,2.12-1.1c.48.66,1.25,1.1,2.12,1.1s1.65-.44,2.12-1.1c.48.66,1.25,1.1,2.12,1.1.22,0,.42-.03.62-.08v8.08Zm1-16v5.38c0,.9-.73,1.62-1.62,1.62s-1.62-.73-1.62-1.62v-5.38h3.25Z"/></svg>