<svg xmlns="http://www.w3.org/2000/svg" width="24" height="24" viewBox="0 0 24 24"><path d="M17.92 3H6.08L2.74 7.46l1.98.99-1.2 2.4c-.34.67-.52 1.43-.52 2.18 0 2.41 1.52 4.61 3.78 5.45l2.85 1.07c.77.29 1.44.73 2.02 1.3l.35.35.35-.35a5.7 5.7 0 0 1 2.02-1.3l2.85-1.07A5.855 5.855 0 0 0 21 13.03c0-.75-.18-1.51-.51-2.18l-1.2-2.41 1.98-.99-3.34-4.46Zm1.67 8.3c.27.54.41 1.13.41 1.73 0 2-1.26 3.81-3.13 4.52l-2.85 1.07c-.75.28-1.42.68-2.02 1.2-.59-.52-1.27-.92-2.02-1.2l-2.85-1.07A4.85 4.85 0 0 1 4 13.03c0-.6.14-1.2.41-1.74l1.65-3.3-1.8-.9 2.32-3.1h10.83l2.32 3.1-1.8.9 1.65 3.3Z"/></svg>