<svg xmlns="http://www.w3.org/2000/svg" viewBox="0 0 24 24" width="24" height="24"><path d="m4,21h16V3H4v18Zm1-17h14v10c-.54,0-.78-.17-1.11-.41-.37-.26-.83-.59-1.69-.59s-1.32.33-1.69.59c-.33.24-.57.41-1.11.41s-.78-.17-1.11-.41c-.37-.26-.83-.59-1.69-.59s-1.32.33-1.69.59c-.33.24-.57.41-1.11.41s-.78-.17-1.11-.41c-.37-.26-.83-.59-1.69-.59V4Zm0,10c.54,0,.78.17,1.11.41.37.26.83.59,1.69.59s1.32-.33,1.69-.59c.33-.24.57-.41,1.11-.41s.78.17,1.11.41c.37.26.83.59,1.69.59s1.32-.33,1.69-.59c.33-.24.57-.41,1.11-.41s.78.17,1.11.41c.37.26.83.59,1.69.59v2c-.54,0-.78-.17-1.11-.41-.37-.26-.83-.59-1.69-.59s-1.32.33-1.69.59c-.33.24-.57.41-1.11.41s-.78-.17-1.11-.41c-.37-.26-.83-.59-1.69-.59s-1.32.33-1.69.59c-.33.24-.57.41-1.11.41s-.78-.17-1.11-.41c-.37-.26-.83-.59-1.69-.59v-2Zm0,3c.54,0,.78.17,1.11.41.37.26.83.59,1.69.59s1.32-.33,1.69-.59c.33-.24.57-.41,1.11-.41s.78.17,1.11.41c.37.26.83.59,1.69.59s1.32-.33,1.69-.59c.33-.24.57-.41,1.11-.41s.78.17,1.11.41c.37.26.83.59,1.69.59v2H5v-3Z"/><path d="M8.5 6A1.5 1.5 0 1 0 8.5 9 1.5 1.5 0 1 0 8.5 6z"/></svg>