<svg xmlns="http://www.w3.org/2000/svg" viewBox="0 0 24 24" width="24" height="24"><path d="m16.5,13c-1.38,0-2.5-1.12-2.5-2.5v-.05c0-.62.21-1.19.58-1.59.74-.81,1.06-1.9.86-2.99-.25-1.4-1.41-2.55-2.81-2.8-1.04-.18-2.09.09-2.88.76-.8.67-1.25,1.65-1.25,2.68,0,.84.3,1.65.86,2.28.42.47.64,1.07.64,1.72,0,1.38-1.12,2.5-2.5,2.5-1.93,0-3.5,1.57-3.5,3.5v1.5h16v-1.5c0-1.93-1.57-3.5-3.5-3.5Zm2.5,4H5v-.5c0-1.38,1.12-2.5,2.5-2.5,1.93,0,3.5-1.57,3.5-3.55,0-.84-.32-1.67-.89-2.32-.39-.45-.61-1.03-.61-1.62,0-.74.33-1.44.9-1.92.58-.48,1.31-.67,2.07-.54,1,.18,1.82,1,2,2,.14.78-.08,1.56-.61,2.14-.54.59-.84,1.4-.84,2.27v.05c0,1.93,1.57,3.5,3.5,3.5,1.38,0,2.5,1.12,2.5,2.5v.5Z"/><path d="M4 20H20V21H4z"/></svg>