<svg xmlns="http://www.w3.org/2000/svg" viewBox="0 0 24 24" width="24" height="24"><path d="M5.5 17A1.5 1.5 0 1 0 5.5 20 1.5 1.5 0 1 0 5.5 17z"/><path d="m17.85,6.79c-.78-2.25-2.95-3.79-5.38-3.79-1.65,0-3.18.69-4.27,1.9-.16-.03-.31-.04-.46-.04-1.58,0-2.86,1.27-2.86,2.82,0,.15.01.3.04.45-1.19.66-1.93,1.9-1.93,3.26s.76,2.61,1.96,3.27c.26.99,1.37,1.64,2.39,1.33,1.41,1.19,3.56,1.33,5.12.29.71.47,1.52.72,2.36.72,1.99,0,3.69-1.34,4.15-3.23,1.23-.65,2.02-1.92,2.02-3.3,0-1.84-1.33-3.37-3.15-3.68Zm.49,6.18l-.24.11-.05.26c-.27,1.54-1.63,2.66-3.22,2.66-.74,0-1.45-.25-2.05-.73l-.31-.25-.31.25c-1.3,1.03-3.21.91-4.35-.22l-.26-.25-.32.17c-.6.31-1.26-.1-1.33-.69l-.03-.28-.26-.12c-.98-.45-1.61-1.43-1.61-2.48,0-1.11.67-2.1,1.71-2.53l.43-.18-.15-.44c-.07-.21-.1-.39-.1-.56,0-1,.83-1.82,1.86-1.82.15,0,.31.03.51.08l.32.09.21-.26c.9-1.12,2.24-1.77,3.69-1.77,2.1,0,3.96,1.39,4.52,3.38l.09.33.35.03c1.46.12,2.57,1.29,2.57,2.72,0,1.08-.65,2.06-1.66,2.5Z"/></svg>