<svg xmlns="http://www.w3.org/2000/svg" viewBox="0 0 24 24" width="24" height="24"><path d="m19,3H5c-1.1,0-2,.9-2,2v16h15V5c0-.55.45-1,1-1s1,.45,1,1v12h1V5c0-1.1-.9-2-2-2ZM4,14c.35,0,.49.14.74.37.29.27.68.63,1.42.63s1.13-.37,1.42-.63c.25-.23.4-.37.74-.37s.5.14.74.37c.29.27.69.63,1.42.63s1.13-.37,1.42-.63c.25-.23.4-.37.74-.37s.5.14.75.37c.29.27.69.63,1.42.63s1.13-.37,1.42-.63c.25-.23.4-.37.75-.37v2c-.74,0-1.13.37-1.42.63-.25.23-.4.37-.75.37s-.5-.14-.75-.37c-.29-.27-.69-.63-1.42-.63s-1.13.37-1.42.63c-.25.23-.4.37-.74.37s-.5-.14-.74-.37c-.29-.27-.69-.63-1.42-.63s-1.13.37-1.42.63c-.25.23-.4.37-.74.37s-.49-.14-.74-.37c-.29-.27-.68-.63-1.42-.63v-2Zm0,3c.35,0,.49.14.74.37.29.27.68.63,1.42.63s1.13-.37,1.42-.63c.25-.23.4-.37.74-.37s.5.14.74.37c.29.27.69.63,1.42.63s1.13-.37,1.42-.63c.25-.23.4-.37.74-.37s.5.14.75.37c.29.27.69.63,1.42.63s1.13-.37,1.42-.63c.25-.23.4-.37.75-.37v3H4v-3Zm13-12v8c-.74,0-1.13.37-1.42.63-.25.23-.4.37-.75.37s-.5-.14-.75-.37c-.29-.27-.69-.63-1.42-.63s-1.13.37-1.42.63c-.25.23-.4.37-.74.37s-.5-.14-.74-.37c-.29-.27-.69-.63-1.42-.63s-1.13.37-1.42.63c-.25.23-.4.37-.74.37s-.49-.14-.74-.37c-.29-.27-.68-.63-1.42-.63V5c0-.55.45-1,1-1h12.28c-.17.3-.28.63-.28,1Z"/></svg>