<svg xmlns="http://www.w3.org/2000/svg" viewBox="0 0 24 24" width="24" height="24"><path d="m13.89,7h-3.78c-3.6,0-6.63,3.59-7.06,8.35-.04.42.1.84.39,1.16.28.31.69.49,1.11.49h13.99c.68,0,1.33-.3,1.77-.82.44-.52.62-1.19.5-1.86-.75-4.31-3.6-7.32-6.92-7.32Zm.11,9H4.55c-.14,0-.27-.06-.37-.16-.1-.11-.15-.25-.13-.39.38-4.24,2.99-7.44,6.06-7.44.19,0,.39.01.58.04.07,0,.13.02.19.04.12.02.25.04.37.08.07.02.15.05.22.07.11.03.22.07.33.11.07.03.14.06.21.09.11.05.21.1.32.16.07.04.13.07.19.11.11.07.22.13.32.21.06.04.11.08.16.12.11.09.23.18.33.27.04.04.09.07.13.11.12.11.24.23.35.35.03.03.06.06.09.09.13.14.25.29.37.45.01.02.03.03.04.05.54.72.99,1.57,1.32,2.53,0,0,0,0,0,0,.08.22.15.46.21.69.02.08.04.16.06.24.04.16.08.32.11.49.02.11.04.22.06.33.07.45.13.9.14,1.37h-2.21Zm5.54-.47c-.25.3-.61.47-1,.47h-.14c-.66,0-1.2-.5-1.29-1.18,0-.04-.02-.08-.02-.12-.03-.22-.08-.44-.12-.66-.07-.34-.15-.67-.24-.99-.02-.08-.04-.17-.07-.25-.07-.23-.16-.45-.24-.67-.02-.06-.05-.13-.07-.19-.09-.23-.2-.45-.3-.66-.02-.04-.04-.09-.07-.13-.12-.23-.24-.45-.37-.66,0-.02-.02-.03-.03-.05-.55-.88-1.21-1.62-1.95-2.18-.06-.04-.11-.09-.17-.13-.05-.04-.1-.08-.15-.12h.59c2.83,0,5.27,2.67,5.94,6.49.06.37-.04.75-.28,1.04Z"/><path d="M13.5 13A.5.5 0 1 0 13.5 14 .5.5 0 1 0 13.5 13z"/><path d="M11.5 11A.5.5 0 1 0 11.5 12 .5.5 0 1 0 11.5 11z"/><path d="M10.5 13A.5.5 0 1 0 10.5 14 .5.5 0 1 0 10.5 13z"/></svg>