<svg xmlns="http://www.w3.org/2000/svg" viewBox="0 0 24 24" width="24" height="24"><path d="m15,8v-3H3v12h1.57c-.03.16-.07.33-.07.5,0,1.38,1.12,2.5,2.5,2.5s2.5-1.12,2.5-2.5c0-.17-.03-.34-.07-.5h5.13c-.03.16-.07.33-.07.5,0,1.38,1.12,2.5,2.5,2.5s2.5-1.12,2.5-2.5c0-.17-.03-.34-.07-.5h1.57v-4.65l-2.8-4.35h-3.2Zm2.66,1l1.93,3h-4.58v-3s2.66,0,2.66,0Zm-10.66,10c-.83,0-1.5-.67-1.5-1.5,0-.26.07-.53.2-.75.27-.47.76-.75,1.3-.75s1.02.28,1.3.75c.13.22.2.49.2.75,0,.83-.67,1.5-1.5,1.5Zm7-3h-5c-.04-.06-.1-.1-.15-.15-.06-.06-.11-.13-.17-.18-.09-.09-.19-.16-.3-.23-.06-.04-.13-.09-.19-.13-.12-.07-.25-.11-.38-.16-.06-.02-.12-.05-.19-.07-.2-.05-.41-.08-.62-.08s-.42.03-.62.08c-.07.02-.12.05-.19.07-.13.04-.26.09-.38.16-.07.04-.13.09-.2.13-.1.07-.2.14-.3.23-.06.06-.12.12-.18.19-.05.05-.1.09-.14.15h-1V6h10v10Zm3,3c-.83,0-1.5-.67-1.5-1.5,0-.26.07-.53.2-.75.27-.47.76-.75,1.3-.75s1.02.28,1.3.75c.13.22.2.49.2.75,0,.83-.67,1.5-1.5,1.5Zm3-3h-1c-.04-.06-.1-.1-.15-.15-.06-.06-.11-.13-.17-.18-.09-.09-.19-.16-.3-.23-.06-.04-.13-.09-.19-.13-.12-.07-.25-.11-.38-.16-.06-.02-.12-.05-.19-.07-.2-.05-.41-.08-.62-.08s-.42.03-.62.08c-.07.02-.12.05-.19.07-.13.04-.26.09-.38.16-.07.04-.13.09-.2.13-.1.07-.2.14-.3.23-.06.06-.12.12-.18.19-.05.05-.1.09-.14.15v-3s5,0,5,0v3Z"/></svg>