<svg xmlns="http://www.w3.org/2000/svg" viewBox="0 0 24 24" width="24" height="24"><path d="M19 17A2 2 0 1 0 19 21 2 2 0 1 0 19 17z"/><path d="m19.43,4.57c-1.19-1.19-2.88-1.73-4.77-1.53-1.84.2-3.64,1.11-5.08,2.54-2.49,2.49-3.21,5.95-2,8.45.01.68-.14,1.26-.49,1.82-.29.42-.59.83-.9,1.24l-3.06,3.06s0,0,0,0h0s.22.22.22.22l.37.37.11.11,3.06-3.06c.4-.31.82-.61,1.24-.9.57-.35,1.16-.5,1.86-.48.77.37,1.62.59,2.55.59.26,0,.52-.01.78-.04,1.84-.2,3.64-1.11,5.08-2.54,2.99-2.99,3.45-7.41,1.02-9.84Zm-6.43,10.08l-1.65-1.65,1.65-1.65,1.65,1.65-1.65,1.65Zm2-1.29l1.41,1.41c-.71.47-1.48.82-2.27,1.02l-.79-.79,1.65-1.65Zm-6.91-2.91l.56.56-.64.64c-.01-.39.01-.79.08-1.19Zm6.91-5.09l1.65,1.65-1.65,1.65-1.65-1.65,1.65-1.65Zm-2,1.29l-1.41-1.41c.71-.47,1.48-.82,2.27-1.02l.79.79-1.65,1.65Zm2.35-1.65l.93-.93c.86.14,1.63.5,2.25,1.05l-1.53,1.53-1.65-1.65Zm-.71,4l-1.65,1.65-1.65-1.65,1.65-1.65,1.65,1.65Zm-2,2l-1.65,1.65-1.65-1.65,1.65-1.65,1.65,1.65Zm-3.53,3.53c-.56-.63-.91-1.41-1.04-2.25l.93-.93,1.65,1.65-1.53,1.53Zm-.11-3.89l-.79-.79c.2-.77.54-1.54,1.03-2.27l1.41,1.41-1.65,1.65Zm2,2.71l1.65,1.65-.93.93c-.86-.14-1.63-.49-2.25-1.04l1.53-1.53Zm2.35-2.35l1.65-1.65,1.65,1.65-1.65,1.65-1.65-1.65Zm2-2l1.65-1.65,1.65,1.65-1.65,1.65-1.65-1.65Zm3.65.35l.79.79c-.2.77-.54,1.54-1.02,2.27l-1.41-1.41,1.65-1.65Zm.91.2l-.56-.56.64-.64c.01.39-.01.79-.08,1.19Zm.02-1.84l-.93.93-1.65-1.65,1.53-1.53c.56.63.91,1.41,1.04,2.25Zm-5.16-3.68c.23-.03.45-.04.66-.04.07,0,.13.01.19.02l-.63.63-.56-.56c.11-.02.22-.04.33-.05Zm-4.48,2.26c.28-.28.58-.53.88-.76l1.47,1.47-1.65,1.65-1.47-1.47c.23-.31.48-.6.76-.88Zm2.93,9.67c-.3.03-.58.04-.86.03l.64-.64.56.56c-.11.02-.22.04-.33.05Zm3.6-1.49l-1.47-1.47,1.65-1.65,1.47,1.47c-.23.31-.48.6-.76.88-.28.28-.58.53-.88.76Z"/></svg>