<svg xmlns="http://www.w3.org/2000/svg" viewBox="0 0 24 24" width="24" height="24"><path d="m12.42,3.17c-2.57.57-4.62,2.59-5.22,5.15-.27,1.13-.26,2.26,0,3.35.32,1.28-.02,2.56-.89,3.44l-3.46,3.45,2.9,2.9,3.62-3.62c.86-.86,2.05-1.24,3.11-1.01.9.2,1.82.21,2.74.05,2.97-.52,5.31-2.97,5.69-5.96.3-2.31-.51-4.53-2.21-6.09-1.71-1.56-4.01-2.17-6.31-1.66Zm.3,12.69c-1.39-.3-2.94.18-4.03,1.28l-2.92,2.92-1.49-1.49,2.75-2.75c1.12-1.12,1.55-2.76,1.15-4.38-.21-.85-.22-1.73-.05-2.61l7.05,7.05s-.07.02-.1.03c-.8.14-1.59.12-2.36-.04Zm7.23-5.06c-.28,2.15-1.74,3.95-3.69,4.75l-7.82-7.82c.72-1.79,2.29-3.15,4.2-3.57,1.98-.43,3.96.08,5.42,1.42,1.46,1.34,2.15,3.25,1.9,5.23Z"/><path d="M19 17A2 2 0 1 0 19 21 2 2 0 1 0 19 17z"/></svg>