<svg xmlns="http://www.w3.org/2000/svg" viewBox="0 0 24 24" width="24" height="24"><path d="m21,16c0-7.17-5.83-13-13-13h-.38L2.8,21.2l18.2-4.82v-.38ZM7.72,6.51c5.34.12,9.65,4.43,9.77,9.77l-13.29,3.52,3.52-13.29Zm10.76,9.51c-.25-5.68-4.81-10.25-10.49-10.49l.4-1.52c6.31.2,11.41,5.3,11.61,11.61l-1.52.4Z"/><path d="M10 9A1 1 0 1 0 10 11 1 1 0 1 0 10 9z"/><path d="M13 11A1 1 0 1 0 13 13 1 1 0 1 0 13 11z"/><path d="M12 14A1 1 0 1 0 12 16 1 1 0 1 0 12 14z"/><path d="M9 12A1 1 0 1 0 9 14 1 1 0 1 0 9 12z"/><path d="M8 15A1 1 0 1 0 8 17 1 1 0 1 0 8 15z"/></svg>