<svg xmlns="http://www.w3.org/2000/svg" viewBox="0 0 24 24" width="24" height="24"><path d="m6.41,3.33l-1.35,1.08c-.33.27-.54.66-.56,1.09-.02.43.14.84.44,1.14l1.05,1.05c-.04,1.04-.5,2.01-1.3,2.67-1.07.89-1.68,2.2-1.68,3.59v7.05h10v-7.05c0-1.39-.61-2.7-1.68-3.59-.77-.64-1.22-1.57-1.29-2.57l1.58-.79c.29,1.37,1.2,3,3.39,3v-1c-1.54,0-2.13-1.13-2.36-2h2.36V3h-7.65c-.34,0-.67.12-.94.33Zm5.59,16.67H4v-4.47c1.75.11,2.76.51,3.81.93,1.1.44,2.23.89,4.19,1.01v2.53Zm0-6.05v2.51c-1.75-.11-2.76-.51-3.81-.93-1.1-.44-2.23-.89-4.19-1.01v-.58c0-1.09.48-2.12,1.32-2.82.94-.79,1.53-1.9,1.66-3.13h2.05c.12,1.22.71,2.34,1.66,3.13.84.7,1.32,1.73,1.32,2.82Zm2-7.95h-1.5s-1,0-1,0h-.12l-2,1h-2.67l-1.06-1.06c-.1-.1-.15-.24-.15-.38,0-.14.07-.27.19-.36l1.35-1.08c.09-.07.2-.11.31-.11h6.65v2Z"/><path d="M16 4H18V6H16z"/><path d="M19 4H21V6H19z"/><path d="M19 7H21V9H19z"/></svg>