<svg xmlns="http://www.w3.org/2000/svg" viewBox="0 0 24 24" width="24" height="24"><path d="M15.18 8.11 12 11.29 8.82 8.11 8.11 8.82 11.29 12 10.76 12.53 10.76 12.53 8.11 15.18 8.82 15.89 11.03 13.68 11.03 13.68 12 12.71 14.74 15.45 14.74 15.45 15.18 15.89 15.89 15.18 13.24 12.53 12.71 12 15.89 8.82 15.18 8.11z"/><path d="m12,3c-2.4,0-4.66.94-6.36,2.64-1.7,1.7-2.64,3.96-2.64,6.36s.94,4.66,2.64,6.36c1.75,1.75,4.06,2.63,6.36,2.63s4.61-.88,6.36-2.63c1.7-1.7,2.64-3.96,2.64-6.36s-.94-4.66-2.64-6.36c-1.7-1.7-3.96-2.64-6.36-2.64Zm5.66,14.66c-1.51,1.51-3.52,2.34-5.66,2.34s-4.15-.83-5.66-2.34c-1.51-1.51-2.34-3.52-2.34-5.66s.83-4.15,2.34-5.66,3.52-2.34,5.66-2.34,4.15.83,5.66,2.34,2.34,3.52,2.34,5.66-.83,4.15-2.34,5.66Z"/></svg>