<svg xmlns="http://www.w3.org/2000/svg" viewBox="0 0 24 24" width="24" height="24"><path d="m10.05,12.18c-1.27-.64-2.99-.54-4.26.25-1.17.72-1.81,1.89-1.81,3.29,0,.3.02.59.04.86.08,1.03.11,1.42-1.47,2.21l-1.51.76,1.39.96c1,.69,2.76,1.49,4.62,1.49,1.34,0,2.74-.42,3.92-1.6,1.2-1.2,1.8-3.1,1.52-4.84-.24-1.5-1.11-2.7-2.44-3.36Z"/><path d="m21.08,2.91c-1.22-1.22-3.2-1.22-4.41,0l-7.88,7.88c.61.07,1.19.23,1.71.49,1.51.76,2.52,2.08,2.89,3.73l7.69-7.69c1.22-1.22,1.22-3.2,0-4.41Z"/><path d="M6 10 7.23 7.23 10 6 7.23 4.77 6 2 4.77 4.67 2 6 4.77 7.23 6 10z"/><path d="M19 16 18.08 18 16 19 18.08 19.92 19 22 19.92 19.92 22 19 19.92 18.08 19 16z"/></svg>