<svg xmlns="http://www.w3.org/2000/svg" viewBox="0 0 24 24" width="24" height="24"><path d="m19,5.5c0-1.93-1.57-3.5-3.5-3.5-1.62,0-2.7,1.48-3.4,3.09-.69-1.51-1.83-3.09-3.6-3.09-1.93,0-3.5,1.57-3.5,3.5,0,.6.08,1.09.21,1.5h-3.21v4h20v-4h-3.21c.13-.41.21-.9.21-1.5Zm-3.5-1.5c.83,0,1.5.67,1.5,1.5,0,1.5-.63,1.5-1,1.5h-2.48c.51-1.58,1.25-3,1.98-3Zm-8.5,1.5c0-.83.67-1.5,1.5-1.5.89,0,1.71,1.53,2.2,3h-2.7c-.37,0-1,0-1-1.5Z"/><path d="M5 13 4 13 4 22 11 22 11 13 6 13 5 13z"/><path d="M18 13 13 13 13 22 20 22 20 13 19 13 18 13z"/></svg>