<svg version="1.1" xmlns="http://www.w3.org/2000/svg" xmlns:xlink="http://www.w3.org/1999/xlink" x="0px" y="0px" viewBox="0 0 24 24" xml:space="preserve" width="24" height="24"><path class="st0" d="M7,20c-1.7,0-3-1.4-3-3H2c0,2.8,2.2,5,5,5s5-2.2,5-5c0-0.8-0.2-1.6-0.6-2.3c1.5,0.1,3.2-0.1,4.4-1.8
	c0.9-1.2,2.4-1.2,3.4,0c0.5,0.7,0.8,1.6,0.8,2.6s-0.3,1.9-0.8,2.6c-0.9,1.2-2.4,1.2-3.4,0l-1.6,1.2c0.9,1.1,2,1.7,3.3,1.7
	s2.4-0.6,3.3-1.7c0.8-1,1.2-2.4,1.2-3.8s-0.4-2.8-1.2-3.8c-0.9-1.1-2-1.7-3.3-1.7s-2.4,0.6-3.3,1.7c-1.1,1.4-3,1-4,0.7
	c0.5-0.7,0.8-1.5,0.8-2.4c0-2.2-1.8-4-4-4s-4,1.8-4,4h2c0-1.1,0.9-2,2-2s2,0.9,2,2s-0.9,2-2,2v2c1.6,0,3,1.4,3,3S8.6,20,7,20L7,20z"/><path class="st0" d="M13,3h-2c0,2.8,2.5,5,5.5,5S22,5.8,22,3h-2c0,1.7-1.6,3-3.5,3S13,4.7,13,3z"/><path class="st0" d="M15 3.5 15.8 2.7 16.5 2 17.3 2.7 18 3.5 17.3 4.2 16.5 5 15.8 4.2z"/></svg>