<svg xmlns="http://www.w3.org/2000/svg" viewBox="0 0 24 24" width="24" height="24"><path d="m17.89,9.84l-.11-.79-.8-.07s-.18-.01-.43,0c.52-1.82-.24-3.5-.27-3.58l-.35-.74-.8.19c-.05.01-.74.2-1.52.68-.02-.11-.03-.23-.07-.34-.68-2.25-2.84-3.08-2.93-3.11l-.77-.29-.43.71c-.05.09-1.28,2.14-.62,4.34.5,1.66,1.8,2.54,2.49,2.9.03,1.17.43,2.05.45,2.11l.18.4c-.37,1.17-.27,2.2-.25,2.32-.82.79-1.23,1.76-1.4,2.33-.07,0-.14-.02-.21-.02-.03,0-.07,0-.1,0h0c-2.29.05-3.65,1.99-3.71,2.07l-.43.63.49.58c.06.08,1.59,1.86,3.79,1.86.03,0,.07,0,.1,0,2.29-.05,3.65-1.99,3.71-2.07l.43-.63-.46-.54c.38-.08.76-.2,1.14-.4,2.02-1.07,2.45-3.4,2.47-3.5l.13-.77-.71-.32s-.06-.02-.12-.05c1.35-1.64,1.1-3.78,1.09-3.88Z"/></svg>