<svg xmlns="http://www.w3.org/2000/svg" viewBox="0 0 24 24" width="24" height="24"><path d="m20.26,14.47l-.24-.14h-.03c-.46-.22-.97-.33-1.49-.33-.02,0-.04,0-.06,0l-2.19-5.01h1.76v-2h-2.63l-.09-.2c-.48-1.09-1.56-1.8-2.75-1.8h-1.53v2h1.53c.4,0,.76.24.92.6l1.05,2.4h-4.38l-2.69,3.02-3.02-3.02H1.84v2h1.75l2.01,2.01s-.06-.01-.1-.01c-1.11,0-2.13.51-2.79,1.38-.3.39-.53.87-.65,1.43-.04.22-.07.45-.07.69,0,1.93,1.57,3.5,3.5,3.5s3.5-1.57,3.5-3.5c0-.03,0-.06,0-.1l1.6,1.6h2.81l1.61-1.49c0,1.93,1.57,3.49,3.5,3.49s3.5-1.57,3.5-3.5c0-1.24-.67-2.4-1.74-3.03Zm-14.76,4.53c-.83,0-1.5-.67-1.5-1.5,0-.11.01-.21.03-.29.05-.23.14-.45.27-.61.29-.38.73-.6,1.2-.6.26,0,.52.07.74.19l.08.05c.34.23.57.57.65.94.02.1.03.21.03.32,0,.83-.67,1.5-1.5,1.5Zm13,0c-.83,0-1.5-.67-1.5-1.5,0-.32.11-.64.3-.9.29-.38.73-.6,1.2-.6.26,0,.52.07.74.19l.09.05c.42.28.68.75.68,1.26,0,.83-.67,1.5-1.5,1.5Z"/></svg>