<svg xmlns="http://www.w3.org/2000/svg" viewBox="0 0 24 24" width="24" height="24"><path class="b" d="m3,21h18V3H3v18Zm14-13h1v1h-1v-1Zm0,4h1v1h-1v-1Zm0,4h1v1h-1v-1Zm-2-10h1v1h-1v-1Zm0,4h1v1h-1v-1Zm0,4h1v1h-1v-1Zm0,4h1v1h-1v-1Zm-2-10h1v1h-1v-1Zm0,4h1v1h-1v-1Zm0,4h1v1h-1v-1Zm-2-10h1v1h-1v-1Zm0,4h1v1h-1v-1Zm0,4h1v1h-1v-1Zm0,4h1v1h-1v-1Zm-2-10h1v1h-1v-1Zm0,4h1v1h-1v-1Zm0,4h1v1h-1v-1Zm-2-10h1v1h-1v-1Zm0,4h1v1h-1v-1Zm0,4h1v1h-1v-1Zm0,4h1v1h-1v-1Zm-2-10h1v1h-1v-1Zm0,4h1v1h-1v-1Zm0,4h1v1h-1v-1Z"/></svg>