<svg xmlns="http://www.w3.org/2000/svg" viewBox="0 0 24 24" width="24" height="24"><path d="M18 4.09 16.65 5.44 15.29 6.79 15.29 6.79 15.29 6.79 15.15 6.94 15 7.09 17.71 9.79 20.41 12.5 20.56 12.35 20.71 12.21 20.71 12.21 20.71 12.21 22.06 10.85 23.41 9.5 20.71 6.79 18 4.09z"/><path d="m8.15,9.69l-2.25,10.12.18.18,5.42-5.42s0-.05,0-.08c0-.83.67-1.5,1.5-1.5s1.5.67,1.5,1.5-.67,1.5-1.5,1.5c-.03,0-.05,0-.08,0l-5.42,5.42.18.18,10.12-2.25,1.42-5.21-5.87-5.87-5.21,1.42Z"/><path d="M2 5H10V7H2z"/></svg>