<svg xmlns="http://www.w3.org/2000/svg" width="24" height="24" viewBox="0 0 24 24"><path d="M13.48 15.81c-.76-.45-2.03-1.26-3.03-2.26s-1.81-2.27-2.26-3.02l2.66-2.46L6.54 1.6 2.03 4.73l-.02.5c-.03.71-.16 7.04 4.79 11.98 4.46 4.46 10.04 4.8 11.62 4.8h.37l.5-.02 3.13-4.51-6.47-4.31-2.46 2.66ZM20.1 13.1c1.23-1.23 1.9-2.86 1.9-4.6s-.68-3.37-1.9-4.6S17.24 2 15.5 2s-3.37.68-4.6 1.9l1.41 1.41c.85-.85 1.98-1.32 3.18-1.32s2.33.47 3.18 1.32 1.32 1.98 1.32 3.18-.47 2.33-1.32 3.18l1.41 1.41Z"/><path d="M17.71 10.71a3.114 3.114 0 0 0 0-4.41c-1.18-1.18-3.24-1.18-4.41 0l1.41 1.41c.42-.42 1.16-.42 1.59 0 .44.44.44 1.15 0 1.59z"/></svg>