<svg xmlns="http://www.w3.org/2000/svg" viewBox="0 0 24 24" width="24" height="24"><path d="M12 9A3 3 0 1 0 12 15 3 3 0 1 0 12 9z"/><path d="m12,16c-1.09,0-2.08-.44-2.8-1.15l-3.06,5.3.86.5c3.02,1.76,6.99,1.76,10.01,0l.86-.5-3.06-5.3c-.72.71-1.71,1.15-2.8,1.15Z"/><path d="m8,12c0-1.84,1.25-3.37,2.94-3.84l-3.06-5.32-.87.49c-1.52.87-2.79,2.13-3.67,3.66-.88,1.53-1.34,3.26-1.34,5.01v1s6.14,0,6.14,0c-.08-.32-.14-.65-.14-1Z"/><path d="m16.99,3.34l-.87-.49-3.06,5.32c1.69.47,2.94,2,2.94,3.84,0,.35-.06.68-.14,1h6.13s0-.99,0-.99c0-1.75-.45-3.48-1.34-5.01-.88-1.53-2.15-2.79-3.67-3.66Z"/></svg>