<svg version="1.1" xmlns="http://www.w3.org/2000/svg" xmlns:xlink="http://www.w3.org/1999/xlink" x="0px" y="0px" viewBox="0 0 24 24" xml:space="preserve" width="24" height="24"><path class="st0" d="M1.6 11.5 4.5 8.5 7.5 5.6 10.5 8.5 13.4 11.5 10.5 14.5 7.5 17.4 4.5 14.5z"/><path class="st0" d="M17.2 12.399999999999999A4.8 4.8 0 1 0 17.2 22 4.8 4.8 0 1 0 17.2 12.399999999999999z"/><path class="st0" d="M18.8,2c-0.6,0-1.2,0.2-1.8,0.5C16.5,2.2,15.9,2,15.2,2C13.5,2,12,3.5,12,5.2c0,0.8,0.3,1.5,0.9,2.2l4.1,3.9
	l4.2-4C21.7,6.8,22,6,22,5.2C22,3.5,20.5,2,18.8,2z"/></svg>