<svg xmlns="http://www.w3.org/2000/svg" viewBox="0 0 24 24" width="24" height="24"><path d="M11 2H13V5H11z"/><path d="M19 11H22V13H19z"/><path d="m17,12c0-2.76-2.24-5-5-5s-5,2.24-5,5H1.38l5,10h15.24l-4.62-9.24v-.76Zm-11.38,4l-1-2h4.51l1,2h-4.51Zm2,4l-1-2h4.51l1,2h-4.51Zm3.75-6h4.01l1,2h-4.01l-1-2Zm6.01,4l1,2h-4.01l-1-2h4.01Z"/><path d="M17.66 7.76 18.72 6.7 19.78 5.64 19.07 4.93 18.36 4.22 17.3 5.28 16.24 6.34 16.95 7.05 17.66 7.76z"/><path d="M6.34 7.76 7.05 7.05 7.76 6.34 6.7 5.28 5.64 4.22 4.93 4.93 4.22 5.64 5.28 6.7 6.34 7.76z"/></svg>