<svg xmlns="http://www.w3.org/2000/svg" viewBox="0 0 24 24" width="24" height="24"><path d="M8.5 8A1.5 1.5 0 1 0 8.5 11 1.5 1.5 0 1 0 8.5 8z"/><path d="m15.5,11c.83,0,1.5-.67,1.5-1.5s-.67-1.5-1.5-1.5-1.5.67-1.5,1.5.67,1.5,1.5,1.5Z"/><path d="m8.65,15.98c.32.21.66.4,1.02.55.36.15.74.27,1.13.35.4.08.8.12,1.21.12s.81-.04,1.21-.12c.38-.08.76-.2,1.13-.35.36-.15.7-.34,1.02-.55.32-.21.62-.46.88-.73.27-.27.52-.57.73-.89l-1.66-1.12c-.14.21-.31.41-.49.59-.18.18-.38.35-.59.49-.21.14-.44.27-.68.37-.24.1-.5.18-.75.23-.53.11-1.09.11-1.62,0-.25-.05-.51-.13-.75-.23-.24-.1-.47-.23-.68-.37-.21-.14-.41-.31-.59-.49-.18-.18-.35-.38-.49-.59l-1.66,1.12c.21.32.46.62.73.88.27.27.57.52.89.73Z"/><path d="M5 5 9 5 9 3 3 3 3 9 5 9 5 5z"/><path d="M9 19 5 19 5 15 3 15 3 21 9 21 9 19z"/><path d="M21 15 19 15 19 19 15 19 15 21 21 21 21 15z"/><path d="M21 3 15 3 15 5 19 5 19 9 21 9 21 3z"/></svg>