<svg xmlns="http://www.w3.org/2000/svg" viewBox="0 0 24 24" width="24" height="24"><path d="m19,2H5c-1.65,0-3,1.35-3,3v7c1.09,0,1.69.38,2.13.65.35.22.56.35,1.07.35s.72-.13,1.07-.35c.44-.28,1.04-.65,2.13-.65s1.69.38,2.13.65c.35.22.56.35,1.07.35s.72-.13,1.07-.35c.44-.27,1.04-.65,2.13-.65s1.69.38,2.13.65c.35.22.56.35,1.07.35V5c0-.55.45-1,1-1s1,.45,1,1v13h2V5c0-1.65-1.35-3-3-3Z"/><path d="m14.8,18c-.51,0-.72.13-1.07.35-.44.27-1.04.65-2.13.65s-1.69-.38-2.13-.65c-.35-.22-.56-.35-1.07-.35s-.72.13-1.07.35c-.44.28-1.04.65-2.13.65s-1.69-.38-2.13-.65c-.35-.22-.56-.35-1.07-.35v4h16v-3c-1.09,0-1.69-.38-2.13-.65-.35-.22-.56-.35-1.07-.35Z"/><path d="m14.8,14c-.51,0-.72.13-1.07.35-.44.27-1.04.65-2.13.65s-1.69-.38-2.13-.65c-.35-.22-.56-.35-1.07-.35s-.72.13-1.07.35c-.44.28-1.04.65-2.13.65s-1.69-.38-2.13-.65c-.35-.22-.56-.35-1.07-.35v2c1.09,0,1.69.38,2.13.65.35.22.56.35,1.07.35s.72-.13,1.07-.35c.44-.28,1.04-.65,2.13-.65s1.69.38,2.13.65c.35.22.56.35,1.07.35s.72-.13,1.07-.35c.44-.27,1.04-.65,2.13-.65s1.69.38,2.13.65c.35.22.56.35,1.07.35v-2c-1.09,0-1.69-.38-2.13-.65-.35-.22-.56-.35-1.07-.35Z"/></svg>