<svg xmlns="http://www.w3.org/2000/svg" viewBox="0 0 24 24" width="24" height="24"><path d="m2,4v13h2c0,1.65,1.35,3,3,3s3-1.35,3-3h4c0,1.65,1.35,3,3,3s3-1.35,3-3h2v-6.24l-3.38-6.76H2Zm15.38,2l2,4h-4.13v-4h2.13Zm-4.13,0v4h-3.5v-4h3.5Zm-5.5,0v4h-3.75v-4h3.75Zm-.75,12c-.55,0-1-.45-1-1,0-.17.05-.35.13-.5.36-.62,1.33-.63,1.72-.02,0,0,.01.02.02.03.09.15.13.32.13.49,0,.55-.45,1-1,1Zm10,0c-.55,0-1-.45-1-1,0-.17.05-.35.13-.5.36-.62,1.33-.63,1.72-.02,0,0,.01.02.02.03.09.15.13.32.13.49,0,.55-.45,1-1,1Z"/></svg>