<svg xmlns="http://www.w3.org/2000/svg" width="24" height="24" viewBox="0 0 24 24"><g opacity="0.4"><path d="m10.5,14.5v-2.94l-5.56-5.56c-1.8,1.82-2.94,4.31-2.94,7,0,5.42,4.58,10,10,10,2.7,0,5.18-1.13,7-2.94l-5.56-5.56h-2.94Z"/><path d="m12,3c-2.2,0-4.25.76-5.92,2.02l4.42,4.42v-2.44h3v4.5h4.5v3h-2.44l4.42,4.42c1.26-1.67,2.02-3.72,2.02-5.92,0-5.42-4.58-10-10-10Z"/></g><path d="M20.97 6.03 21.5 5.5 22.03 4.97 20.52 3.47 19.02 1.97 18.49 2.5 17.96 3.03 19.47 4.53 20.97 6.03z"/><path d="M15.56 14.5 18 14.5 18 11.5 13.5 11.5 13.5 7 10.5 7 10.5 9.44 5.06 4 6.02 3.03 5.49 2.5 4.96 1.97 4 2.94 1.53.47.47 1.53 2.94 4 1.97 4.97 2.5 5.5 3.03 6.03 4 5.06 10.5 11.56 10.5 14.5 13.44 14.5 22.47 23.53 23.53 22.47 15.56 14.5z"/></svg>