<svg xmlns="http://www.w3.org/2000/svg" width="24" height="24" viewBox="0 0 24 24"><g opacity="0.4"><path d="m12,2C6.58,2,2,6.58,2,12s4.58,10,10,10,10-4.58,10-10S17.42,2,12,2Zm6,11.5h-7.5v-7.5h3v4.5h4.5v3Z"/></g><path d="m7.59,1.97c-1.57-1.41-3.98-1.38-5.49.14s-1.55,3.92-.14,5.49c1.12-2.48,3.15-4.5,5.63-5.63Z"/><path d="m21.9,2.1c-1.51-1.51-3.92-1.55-5.49-.14,2.48,1.12,4.5,3.15,5.63,5.63,1.41-1.57,1.38-3.98-.14-5.49Z"/><path d="M18 10.5 13.5 10.5 13.5 6 10.5 6 10.5 13.5 18 13.5 18 10.5z"/><path d="m4.56,23.06l2.45-2.45c-.87-.52-1.66-1.16-2.34-1.9l-2.23,2.23,2.12,2.12Z"/><path d="m19.44,23.06l2.12-2.12-2.23-2.23c-.68.74-1.47,1.39-2.34,1.9l2.45,2.45Z"/></svg>