<svg xmlns="http://www.w3.org/2000/svg" width="24" height="24" viewBox="0 0 24 24"><g opacity="0.4"><path d="m12,3C6.58,3,2,7.58,2,13s4.58,10,10,10,10-4.58,10-10S17.42,3,12,3Zm4,14.5h-7.93l3-6h-3.07v-3h7.93l-3,6h3.07v3Z"/></g><path d="M20.97 6.03 21.5 5.5 22.03 4.97 20.52 3.47 19.02 1.97 18.49 2.5 17.96 3.03 19.47 4.53 20.97 6.03z"/><path d="M3.03 6.03 4.53 4.53 6.02 3.03 5.49 2.5 4.96 1.97 3.46 3.47 1.97 4.97 2.5 5.5 3.03 6.03z"/><path d="M8.07 17.5 16 17.5 16 14.5 12.93 14.5 15.93 8.5 8 8.5 8 11.5 11.07 11.5 8.07 17.5z"/></svg>