<svg xmlns="http://www.w3.org/2000/svg" width="24" height="24" viewBox="0 0 24 24"><g opacity="0.4"><path d="m1,1v12h22V1H1Zm18,9H5v-1h14v1Zm-1-4c-.55,0-1-.45-1-1s.45-1,1-1,1,.45,1,1-.45,1-1,1Z"/></g><path d="m13.25,15h-1.5c0,.42-.12.58-.35.88-.27.37-.65.87-.65,1.78s.38,1.42.65,1.78c.23.3.35.47.35.88s-.12.58-.35.88c-.27.37-.65.87-.65,1.78h1.5c0-.42.12-.58.35-.88.27-.37.65-.87.65-1.78s-.38-1.42-.65-1.78c-.23-.3-.35-.47-.35-.88s.12-.58.35-.88c.27-.37.65-.87.65-1.78Z"/><path d="m17.75,15h-1.5c0,.42-.12.58-.35.88-.27.37-.65.87-.65,1.78s.38,1.42.65,1.78c.23.3.35.47.35.88s-.12.58-.35.88c-.27.37-.65.87-.65,1.78h1.5c0-.42.12-.58.35-.88.27-.37.65-.87.65-1.78s-.38-1.42-.65-1.78c-.23-.3-.35-.47-.35-.88s.12-.58.35-.88c.27-.37.65-.87.65-1.78Z"/><path d="m8.75,15h-1.5c0,.42-.12.58-.35.88-.27.37-.65.87-.65,1.78s.38,1.42.65,1.78c.23.3.35.47.35.88s-.12.58-.35.88c-.27.37-.65.87-.65,1.78h1.5c0-.42.12-.58.35-.88.27-.37.65-.87.65-1.78s-.38-1.42-.65-1.78c-.23-.3-.35-.47-.35-.88s.12-.58.35-.88c.27-.37.65-.87.65-1.78Z"/><path d="M18 4A1 1 0 1 0 18 6 1 1 0 1 0 18 4z"/><path d="M5 9H19V10H5z"/></svg>