<svg xmlns="http://www.w3.org/2000/svg" width="24" height="24" viewBox="0 0 24 24"><g opacity="0.4"><path d="m20.11,5.21c-.97-.58-2.19-1.31-4.44-1.31s-3.46.73-4.44,1.31c-.86.51-1.48.89-2.9.89s-2.04-.37-2.9-.89c-.98-.58-2.19-1.31-4.44-1.31v3c1.42,0,2.04.37,2.9.89.98.58,2.19,1.31,4.44,1.31s3.46-.73,4.44-1.31c.86-.51,1.48-.89,2.9-.89s2.04.37,2.89.89c.97.58,2.19,1.31,4.44,1.31v-3c-1.42,0-2.04-.37-2.89-.89Z"/><path d="m15.67,14.9c-2.25,0-3.46.73-4.44,1.31-.86.51-1.48.89-2.9.89s-2.04-.37-2.9-.89c-.98-.58-2.19-1.31-4.44-1.31v3c1.42,0,2.04.37,2.9.89.98.58,2.19,1.31,4.44,1.31s3.46-.73,4.44-1.31c.86-.51,1.48-.89,2.9-.89s2.04.37,2.89.89c.97.58,2.19,1.31,4.44,1.31v-3c-1.42,0-2.04-.37-2.89-.89-.97-.58-2.19-1.31-4.44-1.31Z"/></g><path d="m15.67,9.4c-2.25,0-3.46.73-4.44,1.31-.86.51-1.48.89-2.9.89s-2.04-.37-2.9-.89c-.98-.58-2.19-1.31-4.44-1.31v3c1.42,0,2.04.37,2.9.89.98.58,2.19,1.31,4.44,1.31s3.46-.73,4.44-1.31c.86-.51,1.48-.89,2.9-.89s2.04.37,2.89.89c.97.58,2.19,1.31,4.44,1.31v-3c-1.42,0-2.04-.37-2.89-.89-.97-.58-2.19-1.31-4.44-1.31Z"/></svg>