<svg xmlns="http://www.w3.org/2000/svg" width="24" height="24" viewBox="0 0 24 24"><g opacity="0.4"><path d="m11,10.5v-5.5c0-2.21-1.79-4-4-4S3,2.79,3,5v6c0,5.52,4.48,10,10,10,4.1,0,7.61-2.47,9.16-5.99-1.18,1.22-2.83,1.99-4.66,1.99-3.58,0-6.5-2.92-6.5-6.5Zm-4.25-3.5c-.69,0-1.25-.56-1.25-1.25s.56-1.25,1.25-1.25,1.25.56,1.25,1.25-.56,1.25-1.25,1.25Z"/></g><path d="m11,10v.5c0,3.58,2.92,6.5,6.5,6.5,1.83,0,3.48-.77,4.66-1.99.54-1.23.84-2.58.84-4.01v-1h-12Z"/><path d="m3,6.18c-1.16.41-2,1.51-2,2.82h2v-2.82Z"/><path d="m8,23h3v-2.2c-1.07-.22-2.08-.62-3-1.15v3.35Z"/><path d="m13,21v2h3v-2.46c-.95.3-1.95.46-3,.46Z"/><path d="M6.75 4.5A1.25 1.25 0 1 0 6.75 7 1.25 1.25 0 1 0 6.75 4.5z"/></svg>