<svg xmlns="http://www.w3.org/2000/svg" width="24" height="24" viewBox="0 0 24 24"><g opacity="0.4"><path d="m16.5,18.62c-1.31.9-2.87,1.38-4.5,1.38-4.41,0-8-3.59-8-8,0-1.63.49-3.18,1.38-4.5l-2.13-2.13h-.01c-1.45,1.89-2.24,4.19-2.24,6.63,0,6.07,4.93,11,11,11,2.43,0,4.74-.79,6.64-2.24h-.01s-2.13-2.14-2.13-2.14Z"/></g><path d="m23,12c0-6.07-4.93-11-11-11-2.3,0-4.48.71-6.32,2h.01c-.94.66-1.75,1.47-2.44,2.37l15.37,15.37c.91-.69,1.72-1.51,2.37-2.44h0c1.29-1.82,2-4.01,2-6.3Zm-4.38,4.5L7.5,5.38c1.31-.9,2.87-1.38,4.5-1.38,4.41,0,8,3.59,8,8,0,1.63-.48,3.18-1.38,4.5Z"/></svg>