<svg xmlns="http://www.w3.org/2000/svg" width="24" height="24" viewBox="0 0 24 24"><g opacity="0.4"><path d="m20.77,13.24l-.1-1.04c.76-.07,1.55-.02,2.32.09,0-.1.01-.19.01-.29,0-6.07-4.93-11-11-11-.09,0-.19.01-.28.01.07.48.12.96.12,1.45,0,.29-.01.58-.04.87l-1.04-.1c.02-.25.04-.51.04-.77,0-.46-.05-.92-.12-1.37C5.67,1.69,1.7,5.66,1.09,10.67c.71.12,1.44.16,2.15.09l.1,1.04c-.29.03-.58.04-.87.04-.49,0-.97-.05-1.45-.12,0,.09-.01.19-.01.28,0,6.07,4.93,11,11,11,.09,0,.19-.01.28-.01-.07-.48-.12-.96-.12-1.45,0-.29.01-.58.04-.87l1.04.1c-.02.25-.04.51-.04.77,0,.46.05.92.12,1.37,5-.61,8.97-4.58,9.58-9.58-.71-.12-1.43-.16-2.15-.09Zm-10.53-5.53c-.34.5-.72.96-1.14,1.39-.43.43-.89.81-1.39,1.14-.32.21-.65.41-.99.58l-.47-.93c.3-.15.6-.33.88-.52.44-.3.86-.64,1.23-1.02.38-.38.72-.79,1.02-1.23.19-.28.36-.57.52-.88l.93.48c-.17.34-.37.67-.58.99Zm6.64,6.92c-.44.3-.86.64-1.23,1.02-.38.38-.72.79-1.02,1.23-.19.28-.36.57-.52.88l-.93-.48c.17-.34.37-.67.58-.99.34-.5.72-.96,1.14-1.39.43-.43.89-.81,1.39-1.14.32-.21.65-.41.99-.58l.47.93c-.3.15-.6.33-.88.52Z"/></g><path d="m10.67,1.09c.08.45.12.91.12,1.37,0,.26-.01.52-.04.77l1.04.1c.03-.29.04-.58.04-.87,0-.48-.05-.97-.12-1.45-.35,0-.7.03-1.05.07Z"/><path d="m9.37,7.12c-.3.44-.64.86-1.02,1.23-.38.38-.79.72-1.23,1.02-.28.19-.57.36-.88.52l.47.93c.34-.17.67-.37.99-.58.5-.33.96-.72,1.39-1.14.42-.42.81-.89,1.14-1.39.21-.32.41-.65.58-.99l-.93-.48c-.16.3-.33.6-.52.88Z"/><path d="m20.67,12.2l.1,1.04c.71-.07,1.44-.02,2.14.09.05-.44.09-.88.09-1.33,0,.1-.01.19-.01.29-.77-.12-1.55-.16-2.32-.09Z"/><path d="m16.29,13.76c-.5.33-.96.72-1.39,1.14-.42.42-.81.89-1.14,1.39-.21.32-.41.65-.58.99l.93.48c.16-.3.33-.6.52-.88.3-.44.64-.86,1.02-1.23.38-.38.79-.72,1.23-1.02.28-.19.57-.36.88-.52l-.47-.93c-.34.17-.67.37-.99.58Z"/><path d="m13.24,20.77l-1.04-.1c-.03.29-.04.58-.04.87,0,.48.05.97.12,1.45l1.05-.08c-.07-.45-.12-.91-.12-1.37,0-.26.01-.52.04-.77Z"/><path d="m13.33,22.91s.07-.01.1-.02c-.03,0-.07.01-.1.02,0,0,0,0,0,0Z"/><path d="m1.09,10.67c-.05.44-.09.88-.09,1.33,0-.09.01-.19.01-.28.48.07.96.12,1.45.12.29,0,.58-.01.87-.04l-.1-1.04c-.71.07-1.44.02-2.14-.09Z"/></svg>