<svg xmlns="http://www.w3.org/2000/svg" width="24" height="24" viewBox="0 0 24 24"><g opacity="0.4"><path d="m1,10v1.5c1.14,0,2.18-.38,3-.98v-2.21c-.49.99-1.65,1.7-3,1.7Z"/><path d="m20,7.8v2.21c.82.6,1.86.98,3,.98v-1.5c-1.35,0-2.51-.7-3-1.7Z"/><path d="m12,9.5c-2.76,0-5-2.24-5-5v4.14c1.04,1.26,2.54,2.12,4.25,2.32v4.05h1.5v-4.05c1.71-.2,3.21-1.06,4.25-2.32v-4.14c0,2.76-2.24,5-5,5Z"/></g><path d="M20 15 20 2 17 2 17 15 7 15 7 2 4 2 4 15 1 15 1 18 4 18 4 22 7 22 7 18 17 18 17 22 20 22 20 18 23 18 23 15 20 15z"/></svg>