<svg xmlns="http://www.w3.org/2000/svg" width="24" height="24" viewBox="0 0 24 24"><g opacity="0.4"><path d="M17 15A1.5 1.5 0 1 0 17 18 1.5 1.5 0 1 0 17 15z"/><path d="M7 15A1.5 1.5 0 1 0 7 18 1.5 1.5 0 1 0 7 15z"/><path d="m1,23h22v-12H1v12Zm16-10.5c2.21,0,4,1.79,4,4s-1.79,4-4,4-4-1.79-4-4,1.79-4,4-4Zm-10,0c2.21,0,4,1.79,4,4s-1.79,4-4,4-4-1.79-4-4,1.79-4,4-4Z"/><path d="M1 6H23V9.5H1z"/></g><path d="M7 4 17 4 17 6 20 6 20 1 4 1 4 6 7 6 7 4z"/><path d="m21,16.5c0-2.21-1.79-4-4-4s-4,1.79-4,4,1.79,4,4,4,4-1.79,4-4Zm-5.5,0c0-.83.67-1.5,1.5-1.5s1.5.67,1.5,1.5-.67,1.5-1.5,1.5-1.5-.67-1.5-1.5Z"/><path d="m11,16.5c0-2.21-1.79-4-4-4s-4,1.79-4,4,1.79,4,4,4,4-1.79,4-4Zm-5.5,0c0-.83.67-1.5,1.5-1.5s1.5.67,1.5,1.5-.67,1.5-1.5,1.5-1.5-.67-1.5-1.5Z"/><path d="M1 9.5H23V11H1z"/></svg>