<svg xmlns="http://www.w3.org/2000/svg" width="24" height="24" viewBox="0 0 24 24"><g opacity="0.4"><path d="M11.5 9.75A1.75 1.75 0 1 0 11.5 13.25 1.75 1.75 0 1 0 11.5 9.75z"/><path d="M10.5 5.25A1.75 1.75 0 1 0 10.5 8.75 1.75 1.75 0 1 0 10.5 5.25z"/><path d="M7 8.75A1.75 1.75 0 1 0 7 12.25 1.75 1.75 0 1 0 7 8.75z"/></g><path d="m12,1C5.93,1,1,5.93,1,12s4.93,11,11,11,11-4.93,11-11S18.07,1,12,1Zm-5,11.25c-.97,0-1.75-.78-1.75-1.75s.78-1.75,1.75-1.75,1.75.78,1.75,1.75-.78,1.75-1.75,1.75Zm1.75-5.25c0-.97.78-1.75,1.75-1.75s1.75.78,1.75,1.75-.78,1.75-1.75,1.75-1.75-.78-1.75-1.75Zm2.75,6.25c-.97,0-1.75-.78-1.75-1.75s.78-1.75,1.75-1.75,1.75.78,1.75,1.75-.78,1.75-1.75,1.75Z"/></svg>