<svg xmlns="http://www.w3.org/2000/svg" width="24" height="24" viewBox="0 0 24 24"><g opacity="0.4"><path d="m12,11.5c-1.1,0-2,.45-2,1,0,1,.9,2,2,2s2-1,2-2c0-.55-.9-1-2-1Z"/><path d="m23,5.67c0-2.57-2.09-4.67-4.67-4.67-1.29,0-2.5.53-3.36,1.45-1.93-.52-4.01-.52-5.94,0-.87-.91-2.07-1.45-3.36-1.45C3.09,1,1,3.09,1,5.67c0,1,.32,1.95.89,2.73-.59,1.3-.89,2.71-.89,4.13,0,5.77,4.93,10.47,11,10.47s11-4.7,11-10.47c0-1.42-.31-2.83-.89-4.13.58-.79.89-1.74.89-2.73Zm-19.5-.65c0-.83.68-1.51,1.51-1.51.74,0,1.33.54,1.46,1.24-.74.48-1.42,1.04-2.02,1.66-.55-.23-.94-.76-.94-1.39Zm2.5,3.98c0-.83.67-1.5,1.5-1.5s1.5.67,1.5,1.5-.67,1.5-1.5,1.5-1.5-.67-1.5-1.5Zm6,10c-2.21,0-4-2.51-4-5s1.79-4,4-4,4,1.51,4,4-1.79,5-4,5Zm4.5-8.5c-.83,0-1.5-.67-1.5-1.5s.67-1.5,1.5-1.5,1.5.67,1.5,1.5-.67,1.5-1.5,1.5Zm3.06-4.09c-.61-.62-1.28-1.18-2.02-1.66.13-.7.72-1.24,1.46-1.24.83,0,1.51.68,1.51,1.51,0,.63-.39,1.17-.94,1.39Z"/></g><path d="m12,19c2.21,0,4-2.51,4-5s-1.79-4-4-4-4,1.51-4,4,1.79,5,4,5Zm0-7.5c1.1,0,2,.45,2,1,0,1-.9,2-2,2s-2-1-2-2c0-.55.9-1,2-1Z"/><path d="m4.44,6.41c.61-.62,1.28-1.18,2.02-1.66-.13-.7-.72-1.24-1.46-1.24-.83,0-1.51.68-1.51,1.51,0,.63.39,1.17.94,1.39Z"/><path d="m20.5,5.02c0-.83-.68-1.51-1.51-1.51-.74,0-1.33.54-1.46,1.24.74.48,1.42,1.04,2.02,1.66.55-.23.94-.76.94-1.39Z"/><path d="M16.5 7.5A1.5 1.5 0 1 0 16.5 10.5 1.5 1.5 0 1 0 16.5 7.5z"/><path d="M7.5 7.5A1.5 1.5 0 1 0 7.5 10.5 1.5 1.5 0 1 0 7.5 7.5z"/></svg>