<svg xmlns="http://www.w3.org/2000/svg" width="24" height="24" viewBox="0 0 24 24"><g opacity="0.4"><path d="M18.5 16A3.5 3.5 0 1 0 18.5 23 3.5 3.5 0 1 0 18.5 16z"/><path d="m13.7,1.62c-.22-.08-.43-.15-.66-.21-.17-.05-.34-.07-.5-.11-.81.05-1.9.62-3.17,2.59-1.12,1.72-2.12,4.12-2.83,6.76l-.1.38,7.67,2.06.1-.38c1.26-4.71,1.42-9.76-.51-11.08Z"/></g><path d="M5.9 22.3 7.3 16.9 8.7 11.6 10.2 12 11.6 12.4 10.2 17.7 8.8 23 7.3 22.6z"/><path d="M14.2,12.7l-0.1,0.4l4.8,1.3l0.4-1.4c1.3-4.8-1.2-9.7-5.6-11.3C15.6,2.9,15.5,8,14.2,12.7z"/><path d="M6.5,10.6c0.7-2.6,1.7-5,2.8-6.8c1.3-2,2.4-2.5,3.2-2.6c-4.6-1-9.3,2.1-10.6,7L1.5,9.7L6.4,11L6.5,10.6L6.5,10.6z"/></svg>