<svg xmlns="http://www.w3.org/2000/svg" width="24" height="24" viewBox="0 0 24 24"><g opacity="0.4"><path d="m21.9,2.09c-1.41-1.41-3.87-1.41-5.29,0L7.36,11.35c.97-.11,1.95.03,2.78.44,1.53.77,2.53,2.14,2.81,3.88.03.16.04.33.05.5l.06.06,8.85-8.84c.71-.71,1.09-1.64,1.09-2.64s-.39-1.94-1.1-2.65Z"/></g><path d="m12.95,15.67c-.28-1.73-1.28-3.11-2.81-3.88-1.48-.74-3.46-.63-4.93.28-1.35.83-2.12,2.23-2.12,3.85,0,1.22-.41,2.29-1.21,3.18l-1.08,1.2,1.27.99c1.02.79,2.85,1.71,4.84,1.71,1.44,0,2.96-.48,4.31-1.83s2.04-3.52,1.73-5.5Z"/></svg>