<svg xmlns="http://www.w3.org/2000/svg" width="24" height="24" viewBox="0 0 24 24"><g opacity="0.4"><path d="m16.62,2.09L7.36,11.35c.97-.11,1.96.03,2.78.44,1.53.77,2.53,2.15,2.81,3.88.03.16.04.33.05.5l.06.06,8.85-8.85c.71-.71,1.09-1.64,1.09-2.64s-.39-1.94-1.1-2.65c-1.41-1.41-3.87-1.41-5.29,0Z"/></g><path d="M5.5 10 6.88 6.88 10 5.5 6.88 4.12 5.5 1 4.12 4 1 5.5 4.12 6.88 5.5 10z"/><path d="M19.5 23 20.58 20.58 23 19.5 20.58 18.42 19.5 16 18.42 18.33 16 19.5 18.42 20.58 19.5 23z"/><path d="m12.95,15.67c-.28-1.73-1.28-3.11-2.81-3.88-1.48-.74-3.46-.63-4.93.28-1.35.83-2.12,2.23-2.12,3.85,0,1.22-.41,2.29-1.2,3.18l-1.08,1.2,1.28.99c1.02.79,2.85,1.71,4.84,1.71,1.44,0,2.96-.48,4.31-1.83,1.37-1.37,2.04-3.52,1.73-5.49Z"/></svg>