<svg xmlns="http://www.w3.org/2000/svg" width="24" height="24" viewBox="0 0 24 24"><g opacity="0.4"><path d="M21 6.05A1 1 0 1 0 21 8.05 1 1 0 1 0 21 6.05z"/><path d="M10 1.0499999999999998A1 1 0 1 0 10 3.05 1 1 0 1 0 10 1.0499999999999998z"/><path d="M7.87 10.05 4.41.53 1.59 1.56 4.68 10.05 7.87 10.05z"/></g><path d="m1,10.05v1.5c0,3.77,1.89,7.12,5,8.96v2.54h12v-2.54c3.11-1.84,5-5.19,5-8.96v-1.5H1Z"/><path d="M17.5 1.0499999999999998A1.5 1.5 0 1 0 17.5 4.05 1.5 1.5 0 1 0 17.5 1.0499999999999998z"/><path d="M13 4.05A2 2 0 1 0 13 8.05 2 2 0 1 0 13 4.05z"/></svg>