<svg xmlns="http://www.w3.org/2000/svg" width="24" height="24" viewBox="0 0 24 24"><g opacity="0.4"><path d="m9.5,18.38l-3.38-3.38H1v3.5c0,2.48,2.02,4.5,4.5,4.5h13c2.48,0,4.5-2.02,4.5-4.5v-3.5h-10.12l-3.38,3.38Z"/><path d="m12,1C5.93,1,1,4.7,1,9.25v1.75h22v-1.75c0-4.55-4.93-8.25-11-8.25Zm-.5,7c-.28,0-.5-.22-.5-.5s.22-.5.5-.5.5.22.5.5-.22.5-.5.5Zm3-1c-.83,0-1.5-.67-1.5-1.5s.67-1.5,1.5-1.5,1.5.67,1.5,1.5-.67,1.5-1.5,1.5Zm3.5,2c-.55,0-1-.45-1-1s.45-1,1-1,1,.45,1,1-.45,1-1,1Z"/></g><path d="M1 11 1 15 5 15 6.12 15 9.5 18.38 12.88 15 14 15 23 15 23 11 1 11z"/><path d="M18 7A1 1 0 1 0 18 9 1 1 0 1 0 18 7z"/><path d="M11.5 7A.5.5 0 1 0 11.5 8 .5.5 0 1 0 11.5 7z"/><path d="M14.5 4A1.5 1.5 0 1 0 14.5 7 1.5 1.5 0 1 0 14.5 4z"/></svg>