<svg xmlns="http://www.w3.org/2000/svg" width="24" height="24" viewBox="0 0 24 24"><g opacity="0.4"><path d="m18,1H6C3.24,1,1,3.24,1,6c0,1.09.35,2.13,1,3v14h20v-14c.65-.86,1-1.9,1-3,0-2.76-2.24-5-5-5Zm-6,8c-.55,0-1-.45-1-1s.45-1,1-1,1,.45,1,1-.45,1-1,1Zm3.5,2c-.28,0-.5-.22-.5-.5s.22-.5.5-.5.5.22.5.5-.22.5-.5.5Zm1-3c-.83,0-1.5-.67-1.5-1.5s.67-1.5,1.5-1.5,1.5.67,1.5,1.5-.67,1.5-1.5,1.5Z"/></g><path d="M16.5 5A1.5 1.5 0 1 0 16.5 8 1.5 1.5 0 1 0 16.5 5z"/><path d="M15.5 10A.5.5 0 1 0 15.5 11 .5.5 0 1 0 15.5 10z"/><path d="M12 7A1 1 0 1 0 12 9 1 1 0 1 0 12 7z"/></svg>