<svg xmlns="http://www.w3.org/2000/svg" width="24" height="24" viewBox="0 0 24 24"><g opacity="0.4"><path d="M6.6 11 .14 23 15.05 23 8.38 11 6.6 11z"/><path d="m18.13,1.35h-1.27c-.07.12-1.68,2.65-4.86,2.65v1.5c1.69,0,3.01-.56,4-1.23v2.09c-.79.75-2.12,1.63-4,1.63v1.5c1.69,0,3.01-.56,4-1.23v2.73h1.39l1.61,2.93v-5.68c1,.67,2.33,1.25,4,1.25v-1.5c-1.85,0-3.2-.9-4-1.66v-2.09c1,.67,2.33,1.25,4,1.25v-1.5c-3.11,0-4.8-2.55-4.87-2.65Z"/></g><path d="M5 1A4 4 0 1 0 5 9 4 4 0 1 0 5 1z"/><path d="M15.05 23 23.99 23 17.39 11 8.38 11 15.05 23z"/></svg>