<svg xmlns="http://www.w3.org/2000/svg" width="24" height="24" viewBox="0 0 24 24"><g opacity="0.4"><path d="m11.66,9.8l-1.17-1.27c.31-.61.51-1.3.51-2.03,0-2.48-2.02-4.5-4.5-4.5S2,4.02,2,6.5s2.02,4.5,4.5,4.5c.67,0,1.29-.15,1.86-.42l1.29,1.42,2.01-2.2Zm-6.66-3.3c0-.83.67-1.5,1.5-1.5s1.5.67,1.5,1.5-.67,1.5-1.5,1.5-1.5-.67-1.5-1.5Z"/><path d="M11.66 14.2 17.88 21 22 21 13.69 12 11.66 14.2z"/></g><path d="m6.5,22c2.48,0,4.5-2.02,4.5-4.5,0-.74-.19-1.42-.51-2.03L22,3h-4.12l-9.52,10.42c-.57-.26-1.2-.42-1.86-.42-2.48,0-4.5,2.02-4.5,4.5s2.02,4.5,4.5,4.5Zm0-6c.83,0,1.5.67,1.5,1.5s-.67,1.5-1.5,1.5-1.5-.67-1.5-1.5.67-1.5,1.5-1.5Z"/></svg>