<svg xmlns="http://www.w3.org/2000/svg" width="24" height="24" viewBox="0 0 24 24"><g opacity="0.4"><path d="m2,1v22h20V1H2Zm5,19h-2v-2h2v2Zm0-4h-2v-2h2v2Zm0-4h-2v-2h2v2Zm4,8h-2v-2h2v2Zm0-4h-2v-2h2v2Zm0-4h-2v-2h2v2Zm4,8h-2v-2h2v2Zm0-4h-2v-2h2v2Zm0-4h-2v-2h2v2Zm4,8h-2v-6h2v6Zm0-8h-2v-2h2v2Zm0-4H5v-4h14v4Z"/></g><path d="M9 18H11V20H9z"/><path d="M9 10H11V12H9z"/><path d="M5 14H7V16H5z"/><path d="M5 10H7V12H5z"/><path d="M5 4H19V8H5z"/><path d="M5 18H7V20H5z"/><path d="M17 10H19V12H17z"/><path d="M13 10H15V12H13z"/><path d="M13 14H15V16H13z"/><path d="M17 14H19V20H17z"/><path d="M13 18H15V20H13z"/><path d="M9 14H11V16H9z"/></svg>