<svg xmlns="http://www.w3.org/2000/svg" width="24" height="24" viewBox="0 0 24 24"><g opacity="0.4"><path d="M20.9,12L20.9,12c0-0.3,0-0.6,0-0.9l2.5-1.4l-3.6-6.2l-2.5,1.5c-0.5-0.4-1-0.7-1.6-0.9V1H8.4v2.9C7.8,4.2,7.3,4.5,6.8,4.8
	L4.3,3.4L0.7,9.6l2.5,1.4c0,0.3,0,0.6,0,0.9s0,0.6,0,0.9l-2.5,1.4l3.6,6.2l2.5-1.5c0.5,0.4,1,0.7,1.6,0.9V23h7.2v-2.9
	c0.6-0.2,1.1-0.6,1.6-0.9l2.5,1.5l3.6-6.2l-2.5-1.4C20.8,12.6,20.9,12.3,20.9,12z M12,17c-2.8,0-5-2.2-5-5s2.2-5,5-5s5,2.2,5,5
	S14.8,17,12,17z"/></g><path d="M12 7A5 5 0 1 0 12 17 5 5 0 1 0 12 7z"/></svg>