<svg xmlns="http://www.w3.org/2000/svg" width="24" height="24" viewBox="0 0 24 24"><g opacity="0.4"><path d="m12,4c-5.47,0-11,1.82-11,5.29,0,1.68,1.3,2.97,3.25,3.85v5.42c.47.21.97.4,1.5.56v-5.42c1.64.51,3.56.8,5.5.86v5.42c.25,0,.5.02.75.02s.5,0,.75-.02v-5.42c1.94-.06,3.86-.35,5.5-.86v5.42c.53-.17,1.03-.35,1.5-.56v-5.42c1.95-.89,3.25-2.17,3.25-3.85,0-3.47-5.53-5.29-11-5.29Z"/></g><path d="m11.25,14.57c-1.94-.06-3.86-.35-5.5-.86v5.42c1.64.51,3.56.8,5.5.86v-5.42Z"/><path d="m18.25,13.71c-1.64.51-3.56.8-5.5.86v5.42c1.94-.06,3.86-.35,5.5-.86v-5.42Z"/><path d="m4.25,18.56v-5.42c-1.95-.89-3.25-2.17-3.25-3.85v5.42c0,1.68,1.3,2.97,3.25,3.85Z"/><path d="m19.75,13.14v5.42c1.95-.89,3.25-2.17,3.25-3.85v-5.42c0,1.68-1.3,2.97-3.25,3.85Z"/></svg>