<svg xmlns="http://www.w3.org/2000/svg" width="24" height="24" viewBox="0 0 24 24"><g opacity="0.4"><path d="m2,11h20V1H2v10Zm6.25-6.75h1.5v1.25h4.5v-1.25h1.5v2.75h-7.5v-2.75Z"/><path d="m2,23h20v-10H2v10Zm6.25-6.75h1.5v1.25h4.5v-1.25h1.5v2.75h-7.5v-2.75Z"/></g><path d="M8.25 16.25 8.25 19 15.75 19 15.75 16.25 14.25 16.25 14.25 17.5 9.75 17.5 9.75 16.25 8.25 16.25z"/><path d="M15.75 4.25 14.25 4.25 14.25 5.5 9.75 5.5 9.75 4.25 8.25 4.25 8.25 7 15.75 7 15.75 4.25z"/><path d="M2 11H22V13H2z"/></svg>