<svg xmlns="http://www.w3.org/2000/svg" width="24" height="24" viewBox="0 0 24 24"><g opacity="0.4"><path d="m16.57,9.05c.25-.04.5-.05.74-.05,1.88,0,3.55.97,4.59,2.46.15-.2.28-.42.4-.64.46-.86.71-1.84.71-2.82,0-1.6-.62-3.11-1.76-4.24s-2.64-1.76-4.24-1.76-3.11.62-4.24,1.76c-.65.65-1.13,1.43-1.42,2.27,2.1.14,4,1.24,5.23,3.03Z"/></g><path d="m17.31,9c-.25,0-.49.02-.74.05-1.32-1.91-3.41-3.05-5.68-3.05-3.5,0-6.42,2.71-6.99,6.25-1.68.61-2.89,2.29-2.89,4.25,0,2.48,1.93,4.5,4.29,4.5h12.01c3.14,0,5.69-2.69,5.69-6s-2.55-6-5.69-6Z"/></svg>