<svg xmlns="http://www.w3.org/2000/svg" width="24" height="24" viewBox="0 0 24 24"><g opacity="0.4"><path d="m15.28,9.28c-.59.84-1.49,1.45-2.54,1.65l1.98,4.12c.16-.05.32-.1.47-.17.78-.32,1.51-.75,2.16-1.28l-2.08-4.32Z"/><path d="m16.33,17.66c-.1.04-.2.07-.29.1l2.35,4.89,2.7-1.3-2.41-5c-.73.52-1.51.97-2.36,1.31Z"/></g><path d="m20.13,15.13l1.06-1.06-2.12-2.12-1.06,1.06c-.81.81-1.76,1.44-2.81,1.87-1.88.76-4.01.81-5.93.17l1.98-4.12c.24.05.49.08.74.08,2.21,0,4-1.79,4-4,0-1.67-1.04-3.11-2.5-3.7V1h-3v2.3c-1.46.6-2.5,2.03-2.5,3.7,0,.85.27,1.63.72,2.28l-2.08,4.32c-.23-.18-.44-.38-.65-.59l-1.06-1.06-2.12,2.12,1.06,1.06c.45.45.94.85,1.45,1.21l-2.41,5,2.7,1.3,2.35-4.89c1.29.48,2.65.74,4.03.74,1.49,0,2.95-.28,4.33-.84,1.43-.58,2.71-1.43,3.8-2.53Z"/></svg>