<svg xmlns="http://www.w3.org/2000/svg" width="24" height="24" viewBox="0 0 24 24"><g opacity="0.4"><path d="m12,5c-4.96,0-9,4.04-9,9s4.04,9,9,9,9-4.04,9-9-4.04-9-9-9Zm0,15v-1.5c2.48,0,4.5-2.02,4.5-4.5h1.5c0,3.31-2.69,6-6,6Z"/></g><path d="m14.02,3.63c-.45.42-.85.9-1.21,1.41.56.05,1.11.16,1.64.31,1.33-1.59,3.33-2.6,5.55-2.6v-1.5c-1.52,0-2.96.39-4.21,1.08-.49-.39-1.88-1.33-3.79-1.33-2.4,0-4,1.5-4,1.5,0,0,1.6,1.5,4,1.5.77,0,1.44-.16,2.02-.37Z"/><path d="m12,18.5v1.5c3.31,0,6-2.69,6-6h-1.5c0,2.48-2.02,4.5-4.5,4.5Z"/></svg>