<svg xmlns="http://www.w3.org/2000/svg" width="24" height="24" viewBox="0 0 24 24"><g opacity="0.4"><path d="M4.5 5A2.5 2.5 0 1 0 4.5 10 2.5 2.5 0 1 0 4.5 5z"/><path d="M19.5 5A2.5 2.5 0 1 0 19.5 10 2.5 2.5 0 1 0 19.5 5z"/><path d="m7.4,13.21c-.55-.73-1.41-1.21-2.4-1.21h-1c-1.66,0-3,1.34-3,3v3h4c0-1.96.94-3.69,2.4-4.79Z"/><path d="m20,12h-1c-.98,0-1.85.48-2.4,1.21,1.45,1.1,2.4,2.83,2.4,4.79h4v-3c0-1.66-1.34-3-3-3Z"/></g><path d="M12 3A3.5 3.5 0 1 0 12 10 3.5 3.5 0 1 0 12 3z"/><path d="m5,18v3h14v-3c0-3.31-2.69-6-6-6h-2c-3.31,0-6,2.69-6,6Z"/></svg>