<svg xmlns="http://www.w3.org/2000/svg" width="24" height="24" viewBox="0 0 24 24"><g opacity="0.4"><path d="m17.3,4l-2-3h-6.61l-2,3H1v17h22V4h-5.7Zm-1.06,12.24c-.27.27-.57.52-.89.73-.32.22-.66.4-1.02.55-.36.15-.74.27-1.13.35-.39.08-.8.12-1.21.12s-.81-.04-1.21-.12c-.39-.08-.76-.2-1.13-.35-.36-.15-.7-.34-1.02-.55-.32-.21-.62-.46-.89-.73-.17-.16-.3-.36-.45-.55l-1.31,1.31v-5h5l-1.55,1.55s.04.08.07.12c.11.16.23.31.37.44.14.14.29.26.44.37.16.11.33.2.51.28.18.08.37.13.56.17.39.08.82.08,1.21,0,.19-.04.38-.1.56-.17.17-.07.35-.17.51-.28.16-.11.31-.23.44-.37.14-.14.26-.29.37-.45l2.48,1.68c-.22.32-.46.62-.73.89Zm1.76-4.24h-5l1.55-1.55s-.04-.08-.07-.12c-.11-.16-.23-.31-.37-.44-.14-.14-.29-.26-.44-.37-.16-.11-.33-.2-.51-.28-.18-.08-.37-.13-.56-.17-.39-.08-.82-.08-1.21,0-.19.04-.38.1-.56.17-.17.07-.35.17-.51.28-.16.11-.31.23-.44.37-.14.14-.26.29-.37.45l-2.48-1.68c.22-.32.46-.62.73-.89.27-.27.57-.52.89-.73.32-.22.66-.4,1.02-.55.36-.15.74-.27,1.13-.35.79-.16,1.63-.16,2.42,0,.39.08.76.2,1.13.35.36.15.7.34,1.02.55.32.21.62.46.89.73.17.16.3.36.45.55l1.31-1.31v5Z"/></g><path d="m7.76,16.24c.27.27.57.52.89.73.32.22.66.4,1.02.55.36.15.74.27,1.13.35.39.08.8.12,1.21.12s.81-.04,1.21-.12c.39-.08.76-.2,1.13-.35.35-.15.7-.34,1.02-.55.32-.21.62-.46.89-.73.27-.27.52-.57.73-.89l-2.48-1.68c-.11.16-.23.31-.37.45-.14.14-.28.26-.44.37-.16.11-.33.2-.51.28-.18.08-.37.14-.56.17-.39.08-.82.08-1.21,0-.19-.04-.38-.1-.56-.17-.18-.07-.35-.17-.51-.28-.16-.11-.31-.23-.44-.37-.13-.13-.26-.28-.37-.44-.03-.04-.04-.08-.07-.12l1.55-1.55h-5v5l1.31-1.31c.15.19.29.38.45.55Z"/><path d="m9.88,9.88c.14-.14.28-.26.44-.37.16-.11.33-.2.51-.28.18-.08.37-.14.56-.17.39-.08.82-.08,1.21,0,.19.04.38.1.56.17.18.07.35.17.51.28.16.11.31.23.44.37.13.13.26.28.37.44.03.04.04.08.07.12l-1.55,1.55h5v-5l-1.31,1.31c-.15-.19-.29-.38-.45-.55-.27-.27-.57-.52-.89-.73-.32-.22-.66-.4-1.02-.55-.36-.15-.74-.27-1.13-.35-.79-.16-1.63-.16-2.42,0-.39.08-.76.2-1.13.35-.35.15-.7.34-1.02.55-.32.21-.62.46-.89.73-.27.27-.52.57-.73.89l2.48,1.68c.11-.16.23-.31.37-.45Z"/></svg>