<svg xmlns="http://www.w3.org/2000/svg" width="24" height="24" viewBox="0 0 24 24"><g opacity="0.4"><path d="m2,5h11.93l2.02,4.05c1.16.21,2.05,1.23,2.05,2.45,0,1.38-1.12,2.5-2.5,2.5s-2.5-1.12-2.5-2.5c0-.4.1-.77.27-1.11l-1.2-2.39H2v14h20v-3h-11.93l-2.02-4.05c-1.16-.21-2.05-1.23-2.05-2.45,0-1.38,1.12-2.5,2.5-2.5s2.5,1.12,2.5,2.5c0,.4-.1.77-.27,1.11l1.2,2.39h10.07V2H2v3Z"/></g><path d="m13.27,10.39c-.17.34-.27.71-.27,1.11,0,1.38,1.12,2.5,2.5,2.5s2.5-1.12,2.5-2.5c0-1.22-.89-2.24-2.05-2.45l-2.02-4.05H2v3h10.07l1.2,2.39Z"/><path d="m11.93,16l-1.2-2.39c.17-.34.27-.71.27-1.11,0-1.38-1.12-2.5-2.5-2.5s-2.5,1.12-2.5,2.5c0,1.22.89,2.24,2.05,2.45l2.02,4.05h11.93v-3h-10.07Z"/></svg>