<svg xmlns="http://www.w3.org/2000/svg" width="24" height="24" viewBox="0 0 24 24"><g opacity="0.4"><path d="m2.74,9.01l-2.03-.32.32,2.03c.53,3.4,2.27,6.2,4.84,8,1.41-.33,2.89-.29,4.28.12-1.5-2.45-2.25-5.12-2.26-7.79-1.47-1.03-3.2-1.75-5.14-2.05Z"/><path d="m21.26,9.01c-1.94.31-3.67,1.03-5.14,2.05-.01,2.67-.76,5.34-2.26,7.79,1.39-.41,2.87-.45,4.28-.12,2.57-1.81,4.31-4.6,4.84-8.01l.32-2.03-2.03.32Z"/></g><path d="m19.92,21.15l1.81-.9-1.81-.9c-1.89-.93-4.07-1.09-6.06-.5,3.22-5.26,3.01-11.54-.63-16.66l-1.22-1.71-1.22,1.71c-3.65,5.12-3.86,11.41-.63,16.66-1.99-.59-4.17-.43-6.06.5l-1.81.9,1.81.9c1.16.57,2.42.86,3.69.86,1.19,0,2.38-.26,3.47-.76v1.76h1.5v-1.76c1.1.5,2.28.76,3.47.76,1.27,0,2.54-.29,3.69-.86Z"/></svg>