<svg xmlns="http://www.w3.org/2000/svg" width="24" height="24" viewBox="0 0 24 24"><g opacity="0.4"><path d="m12.74,5.97c-.53-.43-1.2-.62-1.88-.53-.68.09-1.27.43-1.68.98l-1.82,2.43c-.78,1.04-.63,2.53.35,3.38l2.79,2.44v5.32h3v-6.68l-2.79-2.44,1.26-1.68,3.5,2.8h4.53v-3h-3.47l-3.78-3.03Z"/><path d="M15.49 1A2.5 2.5 0 1 0 15.49 6 2.5 2.5 0 1 0 15.49 1z"/></g><path d="M18.62 13.240000000000002A4.38 4.38 0 1 0 18.62 22 4.38 4.38 0 1 0 18.62 13.240000000000002z"/><path d="M5.37 13.240000000000002A4.38 4.38 0 1 0 5.37 22 4.38 4.38 0 1 0 5.37 13.240000000000002z"/></svg>