<svg xmlns="http://www.w3.org/2000/svg" width="24" height="24" viewBox="0 0 24 24"><g opacity="0.4"><path d="m13.39,17.38c.79-.79.81-1.51.85-2.43.03-.99.08-2.23,1.29-3.44,1.21-1.21,2.45-1.25,3.44-1.28.91-.03,1.63-.06,2.42-.84-.12-.15-.25-.29-.38-.43-1.73-1.73-4.3-2.39-6.87-1.79-1.65.38-3.19,1.24-4.44,2.5-1.92,1.92-2.9,4.45-2.69,6.95.08.97.36,1.86.78,2.67,1.13-.99,2.27-1.04,3.2-1.07.92-.03,1.64-.06,2.43-.85Z"/><path d="m22.21,10.65c-1.13,1-2.28,1.05-3.21,1.08-.92.03-1.64.05-2.43.84s-.82,1.51-.85,2.43c-.03.99-.08,2.23-1.28,3.44-1.21,1.21-2.45,1.25-3.44,1.28-.91.03-1.62.06-2.4.82.12.15.23.3.37.44,1.29,1.3,3.07,2.01,5.01,2.01h0c2.28,0,4.57-.99,6.29-2.72,1.72-1.72,2.71-4.01,2.72-6.29,0-1.2-.27-2.34-.79-3.34Z"/></g><path d="m14.23,14.95c-.03.92-.05,1.64-.85,2.43s-1.51.82-2.43.85c-.93.03-2.07.08-3.2,1.07.23.45.52.87.84,1.25.78-.76,1.5-.79,2.4-.82.99-.03,2.23-.08,3.44-1.28,1.21-1.21,1.25-2.45,1.28-3.44.03-.92.06-1.64.85-2.43s1.51-.81,2.43-.84c.93-.03,2.07-.08,3.21-1.08-.23-.45-.51-.87-.84-1.26-.79.78-1.51.8-2.42.84-.99.03-2.23.07-3.44,1.28-1.21,1.21-1.25,2.45-1.29,3.44Z"/><path d="m7.41,13.33s0-.03.01-.04c.29-.84.7-1.65,1.25-2.4-.19-.31-.44-.58-.71-.88-.68-.73-1.53-1.63-1.53-3.35s.85-2.62,1.53-3.34c.62-.66,1.11-1.19,1.12-2.29-.19-.02-.38-.03-.57-.03C4.36,1,1,4.81,1,9.5c0,3.88,2.31,7.15,5.45,8.17.05-.72.25-1.28.52-1.75,0-.88.16-1.75.44-2.59Z"/><path d="m7.93,6.66c0,1.12.5,1.65,1.12,2.32.2.21.41.45.62.71,0,0,0-.01.01-.02,1.25-1.26,2.78-2.13,4.44-2.5.27-.06.53-.11.8-.14.25-.03.49-.05.73-.06,0,0,0,0,0,0-.75-2.75-2.68-4.88-5.09-5.66-.1,1.5-.87,2.34-1.51,3.02-.63.67-1.12,1.2-1.12,2.32Z"/></svg>