<svg xmlns="http://www.w3.org/2000/svg" width="24" height="24" viewBox="0 0 24 24"><g opacity="0.4"><path d="M12 10.75A2.25 2.25 0 1 0 12 15.25 2.25 2.25 0 1 0 12 10.75z"/><path d="m17.3,4l-2-2h-6.61l-2,2H1v18h22V4h-5.7Zm-5.3,14.25c-2.85,0-5.25-2.4-5.25-5.25s2.4-5.25,5.25-5.25,5.25,2.4,5.25,5.25-2.4,5.25-5.25,5.25Zm8-10.25c-.55,0-1-.45-1-1s.45-1,1-1,1,.45,1,1-.45,1-1,1Z"/></g><path d="m12,18.25c2.85,0,5.25-2.4,5.25-5.25s-2.4-5.25-5.25-5.25-5.25,2.4-5.25,5.25,2.4,5.25,5.25,5.25Zm0-7.5c1.2,0,2.25,1.05,2.25,2.25s-1.05,2.25-2.25,2.25-2.25-1.05-2.25-2.25,1.05-2.25,2.25-2.25Z"/><path d="M20 6A1 1 0 1 0 20 8 1 1 0 1 0 20 6z"/></svg>