<svg xmlns="http://www.w3.org/2000/svg" width="24" height="24" viewBox="0 0 24 24"><g opacity="0.4"><path d="m22.96,9H1v13h22v-12.5c0-.17-.03-.33-.04-.5ZM6,19c-1.1,0-2-.9-2-2s.9-2,2-2,2,.9,2,2-.9,2-2,2Zm5-4c-1.1,0-2-.9-2-2s.9-2,2-2,2,.9,2,2-.9,2-2,2Zm6.5,4c-1.38,0-2.5-1.12-2.5-2.5s1.12-2.5,2.5-2.5,2.5,1.12,2.5,2.5-1.12,2.5-2.5,2.5Z"/></g><path d="M6 15A2 2 0 1 0 6 19 2 2 0 1 0 6 15z"/><path d="m9,13c0,1.1.9,2,2,2s2-.9,2-2-.9-2-2-2-2,.9-2,2Z"/><path d="m15,16.5c0,1.38,1.12,2.5,2.5,2.5s2.5-1.12,2.5-2.5-1.12-2.5-2.5-2.5-2.5,1.12-2.5,2.5Z"/><path d="m15.41,1.06l-.56-.16L1,9h21.96c-.39-5.81-7.25-7.86-7.55-7.94Z"/></svg>