<svg xmlns="http://www.w3.org/2000/svg" width="24" height="24" viewBox="0 0 24 24"><g opacity="0.4"><path d="M11.75 13.5A1.5 1.5 0 1 0 11.75 16.5 1.5 1.5 0 1 0 11.75 13.5z"/><path d="m2,23h20v-15H2v15Zm9.75-12.5c2.48,0,4.5,2.02,4.5,4.5,0,.71-.18,1.38-.48,1.98l.04-.04,1.5,1.5-2.12,2.12-1.5-1.5.04-.04c-.6.3-1.27.48-1.98.48-2.48,0-4.5-2.02-4.5-4.5s2.02-4.5,4.5-4.5Z"/></g><path d="M18 3 18 1 15 1 15 3 9 3 9 1 6 1 6 3 2 3 2 8 22 8 22 3 18 3z"/><path d="m11.75,10.5c-2.48,0-4.5,2.02-4.5,4.5s2.02,4.5,4.5,4.5c.71,0,1.38-.18,1.98-.48l-.04.04,1.5,1.5,2.12-2.12-1.5-1.5-.04.04c.3-.6.48-1.27.48-1.98,0-2.48-2.02-4.5-4.5-4.5Zm0,6c-.83,0-1.5-.67-1.5-1.5s.67-1.5,1.5-1.5,1.5.67,1.5,1.5-.67,1.5-1.5,1.5Z"/></svg>