<svg xmlns="http://www.w3.org/2000/svg" width="24" height="24" viewBox="0 0 24 24"><g opacity="0.4"><path d="m12,1C5.93,1,1,5.93,1,12s4.93,11,11,11,11-4.93,11-11S18.07,1,12,1Zm0,19c-4.41,0-8-3.59-8-8S7.59,4,12,4s8,3.59,8,8-3.59,8-8,8Z"/></g><path d="m13.5,4.15c-.49-.09-.99-.15-1.5-.15s-1.01.05-1.5.15v2.85h3v-2.85Z"/><path d="m7,13.5v-3h-2.85c-.09.49-.15.99-.15,1.5s.05,1.01.15,1.5h2.85Z"/><path d="m13.5,19.85v-2.85h-3v2.85c.49.09.99.15,1.5.15s1.01-.05,1.5-.15Z"/><path d="m20,12c0-.51-.05-1.01-.15-1.5h-2.85v3h2.85c.09-.49.15-.99.15-1.5Z"/></svg>