<svg xmlns="http://www.w3.org/2000/svg" width="24" height="24" viewBox="0 0 24 24"><g opacity="0.4"><path d="m5.64.98L.98,18.36l17.39,4.66,4.66-17.39L5.64.98Zm5.4,10.76c-.21.8-1.04,1.28-1.84,1.06-.8-.21-1.27-1.04-1.06-1.84.21-.8,1.04-1.28,1.84-1.06.8.21,1.27,1.04,1.06,1.84Zm4.83,1.29c-.21.8-1.04,1.27-1.84,1.06-.8-.21-1.28-1.04-1.06-1.84.21-.8,1.04-1.27,1.84-1.06.8.21,1.28,1.04,1.06,1.84Z"/></g><path d="m14.03,14.1c.8.21,1.62-.26,1.84-1.06.21-.8-.26-1.62-1.06-1.84-.8-.21-1.62.26-1.84,1.06-.21.8.26,1.62,1.06,1.84Z"/><path d="m9.2,12.8c.8.21,1.62-.26,1.84-1.06.21-.8-.26-1.62-1.06-1.84-.8-.21-1.62.26-1.84,1.06-.21.8.26,1.62,1.06,1.84Z"/></svg>