<svg xmlns="http://www.w3.org/2000/svg" width="24" height="24" viewBox="0 0 24 24"><g opacity="0.4"><path d="M10.38 1 8.11 9.25 15.89 9.25 13.62 1 10.38 1z"/><path d="M15.18 1 17.45 9.25 22.8 9.25 17.85 1 15.18 1z"/><path d="M6.15 1 1.2 9.25 6.55 9.25 8.82 1 6.15 1z"/></g><path d="M22.83 10.75 17.43 10.75 14.14 21.26 22.83 10.75z"/><path d="M15.86 10.75 8.14 10.75 12 23.09 15.86 10.75z"/><path d="M6.57 10.75 1.17 10.75 9.86 21.26 6.57 10.75z"/><path d="M11.99 23.85 12 23.86 12.01 23.85 12 23.84 11.99 23.85z"/></svg>