<svg xmlns="http://www.w3.org/2000/svg" width="24" height="24" viewBox="0 0 24 24"><g opacity="0.4"><path d="m23.54,8.91l-3.09-1.79v-3.57h-3.57l-1.79-3.09-3.09,1.79-3.09-1.79-1.79,3.09h-3.57v3.57l-3.09,1.79,1.79,3.09-1.79,3.09,3.09,1.79v3.57h3.57l1.79,3.09,3.09-1.79,3.09,1.79,1.79-3.09h3.57v-3.57l3.09-1.79-1.79-3.09,1.79-3.09Zm-17.54.09c0-1.1.9-2,2-2s2,.9,2,2-.9,2-2,2-2-.9-2-2Zm3.68,8.42l-2.37-1.84,7-9,2.37,1.84-7,9Zm6.32-.42c-1.1,0-2-.9-2-2s.9-2,2-2,2,.9,2,2-.9,2-2,2Z"/></g><path class="st0" d="M8 7A2 2 0 1 0 8 11 2 2 0 1 0 8 7z"/><path class="st0" d="M7.3 15.6 10.8 11.1 14.3 6.6 15.5 7.5 16.7 8.4 13.2 12.9 9.7 17.4 8.5 16.5z"/><path class="st0" d="M16 13A2 2 0 1 0 16 17 2 2 0 1 0 16 13z"/></svg>