<svg xmlns="http://www.w3.org/2000/svg" width="24" height="24" viewBox="0 0 24 24"><g opacity="0.4"><path d="m12,1C5.93,1,1,5.93,1,12s4.93,11,11,11,11-4.93,11-11S18.07,1,12,1Zm-4,11.06l-1.47,1.47-1.06-1.06,1.47-1.47-1.47-1.47,1.06-1.06,1.47,1.47,1.47-1.47,1.06,1.06-1.47,1.47,1.47,1.47-1.06,1.06-1.47-1.47Zm6,5.44h-4v-1.5h4v1.5Zm4.53-5.03l-1.06,1.06-1.47-1.47-1.47,1.47-1.06-1.06,1.47-1.47-1.47-1.47,1.06-1.06,1.47,1.47,1.47-1.47,1.06,1.06-1.47,1.47,1.47,1.47Z"/></g><path d="M10 16H14V17.5H10z"/><path d="M14.53 13.53 16 12.06 17.47 13.53 18.53 12.47 17.06 11 18.53 9.53 17.47 8.47 16 9.94 14.53 8.47 13.47 9.53 14.94 11 13.47 12.47 14.53 13.53z"/><path d="M6.53 13.53 8 12.06 9.47 13.53 10.53 12.47 9.06 11 10.53 9.53 9.47 8.47 8 9.94 6.53 8.47 5.47 9.53 6.94 11 5.47 12.47 6.53 13.53z"/></svg>