<svg xmlns="http://www.w3.org/2000/svg" width="24" height="24" viewBox="0 0 24 24"><g opacity="0.4"><path d="m12,17c-6.17,0-8-5.25-8.07-5.46l-2.85.93c.85,2.61,4.22,7.54,10.93,7.54s10.08-4.93,10.93-7.54l-2.85-.93c-.08.22-1.91,5.47-8.08,5.47Z"/></g><path d="m3.8,16.71c-.37-.37-.7-.74-1-1.13l-1.95,1.47.9,1.2,2.05-1.55Z"/><path d="m7.92,19.3c-.49-.18-.95-.38-1.39-.6l-1.46,2.4,1.28.78,1.57-2.58Z"/><path d="m12.75,19.97c-.25.01-.49.03-.75.03s-.5-.02-.75-.03v3.03h1.5v-3.03Z"/><path d="m18.93,21.1l-1.46-2.4c-.43.23-.9.43-1.39.6l1.57,2.58,1.28-.78Z"/><path d="m23.15,17.06l-1.95-1.47c-.3.38-.63.76-1,1.13l2.05,1.55.9-1.2Z"/></svg>