<svg xmlns="http://www.w3.org/2000/svg" width="24" height="24" viewBox="0 0 24 24"><g opacity="0.4"><path d="m22.93,11.54c-.85-2.61-4.22-7.54-10.93-7.54S1.92,8.93,1.07,11.54l-.15.46.15.46c.85,2.61,4.22,7.54,10.93,7.54s10.08-4.93,10.93-7.54l.15-.46-.15-.46Zm-10.93,3.96c-1.92,0-3.5-1.58-3.5-3.5s1.58-3.5,3.5-3.5c.07,0,.13.02.2.02-.13.3-.2.63-.2.98,0,1.38,1.12,2.5,2.5,2.5.35,0,.68-.07.98-.2,0,.07.02.13.02.2,0,1.92-1.59,3.5-3.5,3.5Z"/></g><path d="m12,15.5c1.91,0,3.5-1.58,3.5-3.5,0-.07-.02-.13-.02-.2-.3.13-.63.2-.98.2-1.38,0-2.5-1.12-2.5-2.5,0-.35.07-.68.2-.98-.07,0-.13-.02-.2-.02-1.92,0-3.5,1.59-3.5,3.5s1.58,3.5,3.5,3.5Z"/></svg>