<svg xmlns="http://www.w3.org/2000/svg" width="24" height="24" viewBox="0 0 24 24"><g opacity="0.4"><path d="m12,1C7.04,1,3,5.04,3,10v7c0,3.25,2.65,6,5.79,6,2.81,0,3.94-1.54,4.93-2.9.48-.66.98-1.34,1.72-1.93.41-.33.82-.63,1.22-.92,2.13-1.56,4.34-3.18,4.34-7.25,0-4.96-4.04-9-9-9Zm3.38,9c0-.93-.39-1.92-1-2.51-1.3-1.27-3.56-1.27-4.86,0-.5.49-.83,1.15-.94,1.85,2.55.64,4.44,2.94,4.44,5.67h-1.5c0-1.92-1.26-3.53-3-4.11v4.11h-1.5v-5.1c0-1.31.53-2.58,1.45-3.48.93-.91,2.17-1.42,3.48-1.42s2.55.5,3.48,1.42c.89.88,1.45,2.25,1.45,3.58h-1.5Z"/></g><path d="m8.52,10.89c1.74.58,3,2.19,3,4.11h1.5c0-2.73-1.89-5.02-4.44-5.67.12-.7.44-1.35.94-1.85,1.29-1.27,3.56-1.27,4.86,0,.61.6,1,1.58,1,2.51h1.5c0-1.33-.55-2.71-1.45-3.58-.93-.91-2.17-1.42-3.48-1.42s-2.55.5-3.48,1.42c-.92.9-1.45,2.17-1.45,3.48v5.1h1.5v-4.11Z"/></svg>