<svg xmlns="http://www.w3.org/2000/svg" width="24" height="24" viewBox="0 0 24 24"><g opacity="0.4"><path d="m12,1C7.04,1,3,5.04,3,10h3c0-3.31,2.69-6,6-6s6,2.69,6,6c0,1.68-.53,2.26-1.27,3.06-.77.84-1.73,1.89-1.73,3.94,0,2.78-2.3,3-3,3-1.45,0-3-.79-3-3h-3c0,3.53,2.47,6,6,6,2.89,0,6-1.88,6-6,0-.89.32-1.23.94-1.91.87-.94,2.06-2.24,2.06-5.09,0-4.96-4.04-9-9-9Z"/></g><path d="m10.23,8.23c.94-.94,2.59-.94,3.54,0,.47.47.73,1.1.73,1.77s-.26,1.3-.73,1.77l1.06,1.06c.76-.76,1.17-1.76,1.17-2.83s-.42-2.07-1.17-2.83c-1.51-1.51-4.15-1.51-5.66,0-.76.76-1.17,1.76-1.17,2.83h1.5c0-.67.26-1.3.73-1.77Z"/></svg>