<svg xmlns="http://www.w3.org/2000/svg" width="24" height="24" viewBox="0 0 24 24"><g opacity="0.4"><path d="m1.11,10.5h9.39V1.11C5.64,1.78,1.78,5.64,1.11,10.5Z"/><path d="m13.5,1.11v9.39h9.39c-.67-4.86-4.52-8.72-9.39-9.39Z"/><path d="m10.5,22.89v-9.39H1.11c.67,4.86,4.52,8.72,9.39,9.39Z"/><path d="m13.5,22.89c4.86-.67,8.72-4.52,9.39-9.39h-9.39v9.39Z"/></g><path d="m22.89,10.5h-9.39V1.11c-.49-.07-.99-.11-1.5-.11s-1.01.05-1.5.11v9.39H1.11c-.07.49-.11.99-.11,1.5s.05,1.01.11,1.5h9.39v9.39c.49.07.99.11,1.5.11s1.01-.05,1.5-.11v-9.39h9.39c.07-.49.11-.99.11-1.5s-.05-1.01-.11-1.5Z"/></svg>