<svg xmlns="http://www.w3.org/2000/svg" width="24" height="24" viewBox="0 0 24 24"><g opacity="0.4"><path d="m6,12c0-3.31,2.69-6,6-6,1.11,0,2.15.31,3.04.84l2.16-2.16c-1.47-1.05-3.27-1.67-5.21-1.67C7.04,3,3,7.04,3,12c0,1.94.62,3.73,1.67,5.21l2.16-2.16c-.53-.89-.84-1.93-.84-3.04Z"/><path d="m17.16,8.96c.53.89.84,1.93.84,3.04,0,3.31-2.69,6-6,6-1.11,0-2.15-.31-3.04-.84l-2.16,2.16c1.47,1.05,3.27,1.67,5.21,1.67,4.96,0,9-4.04,9-9,0-1.94-.62-3.73-1.67-5.21l-2.16,2.16Z"/></g><path d="M13.06 13.06 22.56 3.56 21.5 2.5 20.44 1.44 10.94 10.94 1.44 20.44 2.5 21.5 3.56 22.56 13.06 13.06z"/></svg>