<svg xmlns="http://www.w3.org/2000/svg" width="24" height="24" viewBox="0 0 24 24"><g opacity="0.4"><path d="m13,9V1H3v22h18v-14h-8Zm-1.94,8.44l-2.12,2.12-4.06-4.06,4.06-4.06,2.12,2.12-1.94,1.94,1.94,1.94Zm4,2.12l-2.12-2.12,1.94-1.94-1.94-1.94,2.12-2.12,4.06,4.06-4.06,4.06Z"/></g><path d="M14.62 1 13 1 13 4 13 9 18 9 21 9 21 7.38 14.62 1z"/><path d="M15.06 19.56 19.12 15.5 15.06 11.44 12.94 13.56 14.88 15.5 12.94 17.44 15.06 19.56z"/><path d="M11.06 17.44 9.12 15.5 11.06 13.56 8.94 11.44 4.88 15.5 8.94 19.56 11.06 17.44z"/></svg>