<svg xmlns="http://www.w3.org/2000/svg" width="24" height="24" viewBox="0 0 24 24"><g opacity="0.4"><path d="M11 13.5A1.5 1.5 0 1 0 11 16.5 1.5 1.5 0 1 0 11 13.5z"/><path d="m13,9V1H3v22h18v-14h-8Zm1.94,12.06l-2.01-2.01c-.59.28-1.24.45-1.93.45-2.48,0-4.5-2.02-4.5-4.5s2.02-4.5,4.5-4.5,4.5,2.02,4.5,4.5c0,.69-.17,1.34-.45,1.93l2.01,2.01-2.12,2.12Z"/></g><path d="M14.62 1 13 1 13 4 13 9 18 9 21 9 21 7.38 14.62 1z"/><path d="m11,19.5c.69,0,1.34-.17,1.93-.45l2.01,2.01,2.12-2.12-2.01-2.01c.28-.59.45-1.24.45-1.93,0-2.48-2.02-4.5-4.5-4.5s-4.5,2.02-4.5,4.5,2.02,4.5,4.5,4.5Zm0-6c.83,0,1.5.67,1.5,1.5s-.67,1.5-1.5,1.5-1.5-.67-1.5-1.5.67-1.5,1.5-1.5Z"/></svg>