<svg xmlns="http://www.w3.org/2000/svg" width="24" height="24" viewBox="0 0 24 24"><g opacity="0.4"><path d="m23,12c0-1.52-.72-2.9-1.9-3.76.23-1.45-.24-2.94-1.32-4.01-1.08-1.09-2.57-1.57-4.02-1.33-.86-1.17-2.23-1.9-3.76-1.9s-2.9.72-3.76,1.9c-1.44-.22-2.94.24-4.01,1.32-1.09,1.08-1.56,2.58-1.33,4.02-1.17.86-1.9,2.23-1.9,3.76s.72,2.9,1.9,3.76c-.23,1.45.24,2.94,1.32,4.01,1.08,1.09,2.57,1.56,4.02,1.33.86,1.17,2.23,1.9,3.76,1.9s2.9-.72,3.76-1.9c1.44.22,2.94-.24,4.01-1.32,1.09-1.08,1.56-2.58,1.33-4.02,1.17-.86,1.9-2.23,1.9-3.76Zm-6.56.7c-.3,1.93-1.81,3.44-3.74,3.74-.23.03-.46.06-.71.06s-.48-.02-.7-.06c-1.93-.3-3.44-1.81-3.74-3.74-.03-.23-.06-.46-.06-.71s.02-.48.06-.7c.3-1.93,1.81-3.44,3.74-3.74.46-.07.96-.07,1.41,0,1.93.3,3.44,1.81,3.74,3.74.03.23.06.46.06.71s-.02.48-.06.7Z"/></g><path d="m11.3,16.44c.22.03.46.06.7.06s.48-.02.71-.06c1.93-.3,3.43-1.81,3.74-3.74.03-.22.06-.46.06-.7s-.02-.48-.06-.71c-.3-1.93-1.81-3.43-3.74-3.74-.45-.07-.95-.07-1.41,0-1.93.3-3.43,1.81-3.74,3.74-.03.22-.06.46-.06.7s.02.48.06.71c.3,1.93,1.81,3.43,3.74,3.74Z"/></svg>