<svg xmlns="http://www.w3.org/2000/svg" width="24" height="24" viewBox="0 0 24 24"><g opacity="0.4"><path d="m2.35,1.97l-.35.17v3.63c1.4-.64,2.8-.83,4.2-.76V1.06c-1.28.03-2.56.28-3.85.9Z"/><path d="m2,10.7v5.16l.89-.43c1.1-.53,2.2-.75,3.31-.78v-4.71c-1.4-.08-2.8.12-4.2.76Z"/><path d="m10.4,15.26c.64.17,1.28.35,1.93.54.75.22,1.51.43,2.27.62v-4.23c-1.4-.43-2.8-.96-4.2-1.39v4.46Z"/><path d="m22.65,16.09l.35-.17v-3.63c-1.4.64-2.8.83-4.2.76v3.94c1.28-.03,2.56-.28,3.85-.9Z"/><path d="m18.8,3.4v4.71c1.4.08,2.8-.12,4.2-.76V2.2l-.89.43c-1.1.53-2.2.75-3.31.78Z"/><path d="m14.6,12.19c1.4.43,2.8.78,4.2.86v-4.94c-1.4-.08-2.8-.42-4.2-.86v4.94Z"/><path d="m6.2,5.01v4.94c1.4.08,2.8.42,4.2.86v-4.94c-1.4-.43-2.8-.78-4.2-.86Z"/><path d="m14.6,2.8c-.64-.17-1.28-.35-1.93-.54-.75-.22-1.51-.44-2.27-.63v4.23c1.4.43,2.8.96,4.2,1.39V2.8Z"/></g><path d="m10.4,1.63c-1.39-.35-2.79-.6-4.2-.57v3.94c1.4.08,2.8.42,4.2.86V1.63Z"/><path d="m2,5.76v4.94c1.4-.64,2.8-.83,4.2-.76v-4.94c-1.4-.08-2.8.12-4.2.76Z"/><path d="m18.8,8.11v4.94c-1.4-.08-2.8-.42-4.2-.86v-4.94c1.4.43,2.8.78,4.2.86V3.4c-1.38.04-2.78-.23-4.2-.61v4.46c-1.4-.43-2.8-.96-4.2-1.39v4.94c-1.4-.43-2.8-.78-4.2-.86v4.71c1.38-.04,2.78.23,4.2.61v-4.46c1.4.43,2.8.96,4.2,1.39v4.23c1.31.33,2.63.58,3.97.58.08,0,.16,0,.23-.01v-3.94c1.4.08,2.8-.12,4.2-.76v-4.94c-1.4.64-2.8.83-4.2.76Z"/><path d="m5,14.77c-.71.12-1.41.32-2.11.66l-.89.43v7.14h3v-8.23Z"/></svg>