<svg xmlns="http://www.w3.org/2000/svg" width="24" height="24" viewBox="0 0 24 24"><g opacity="0.4"><path d="m13,9V1H3v22h18v-14h-8Zm2.56,6.5c0,.21-.02.43-.06.64l1,.58-1.19,2.07-1.01-.58c-.33.28-.7.5-1.1.64v1.16h-2.39v-1.16c-.4-.14-.77-.36-1.1-.64l-1.01.58-1.19-2.07,1-.58c-.04-.21-.06-.43-.06-.64s.02-.43.06-.64l-1-.58,1.19-2.06,1.01.58c.33-.28.7-.5,1.1-.64v-1.16h2.39v1.16c.4.14.77.36,1.1.64l1.01-.58,1.19,2.06-1,.58c.04.21.06.43.06.64Z"/><path d="m12,13.76c-.94,0-1.74.8-1.74,1.74s.8,1.74,1.74,1.74,1.74-.8,1.74-1.74-.8-1.74-1.74-1.74Z"/></g><path d="M14.62 1 13 1 13 4 13 9 18 9 21 9 21 7.38 14.62 1z"/><path d="m8.44,15.5c0,.21.02.43.06.64l-1,.58,1.19,2.07,1.01-.58c.33.28.7.5,1.1.64v1.16h2.39v-1.16c.4-.14.77-.36,1.1-.64l1.01.58,1.19-2.07-1-.58c.04-.21.06-.43.06-.64s-.02-.43-.06-.64l1-.58-1.19-2.06-1.01.58c-.33-.28-.7-.5-1.1-.64v-1.16h-2.39v1.16c-.4.14-.77.36-1.1.64l-1.01-.58-1.19,2.06,1,.58c-.04.21-.06.43-.06.64Zm3.56-1.74c.94,0,1.74.8,1.74,1.74s-.8,1.74-1.74,1.74-1.74-.8-1.74-1.74.8-1.74,1.74-1.74Z"/></svg>