<svg xmlns="http://www.w3.org/2000/svg" width="24" height="24" viewBox="0 0 24 24"><g opacity="0.4"><path d="m13.81,8.13c-2.04,2.5-5.08,3.96-8.36,3.96-1.49,0-2.93-.32-4.29-.91-.1.59-.16,1.2-.16,1.82,0,6.07,4.93,11,11,11s10.8-4.75,10.98-10.65c-3.76-.03-7.23-2.04-9.17-5.22Zm-6.31,8.87c-.83,0-1.5-.67-1.5-1.5s.67-1.5,1.5-1.5,1.5.67,1.5,1.5-.67,1.5-1.5,1.5Zm10.5-1.5c0,.83-.67,1.5-1.5,1.5s-1.5-.67-1.5-1.5.67-1.5,1.5-1.5,1.5.67,1.5,1.5Z"/><path d="m23,13.05s0-.03,0-.05c0-.01,0-.03,0-.04v.09Z"/></g><path d="M7.5 14A1.5 1.5 0 1 0 7.5 17 1.5 1.5 0 1 0 7.5 14z"/><path d="M16.5 14A1.5 1.5 0 1 0 16.5 17 1.5 1.5 0 1 0 16.5 14z"/><path d="m23,12.96c0-1.68-.4-3.26-1.08-4.68,1.26-.81,2.08-2.21,2.08-3.78,0-2.48-2.02-4.5-4.5-4.5-1.77,0-3.32,1.04-4.05,2.56-1.09-.36-2.25-.56-3.45-.56C6.56,2,2.04,5.98,1.16,11.18c1.36.59,2.8.91,4.29.91,3.28,0,6.32-1.46,8.36-3.96,1.93,3.18,5.41,5.19,9.17,5.22,0-.1.01-.2.01-.3v-.09Z"/></svg>