<svg xmlns="http://www.w3.org/2000/svg" width="24" height="24" viewBox="0 0 24 24"><g opacity="0.4"><path d="m23,12c0-6.07-4.93-11-11-11S1,5.93,1,12s4.93,11,11,11h11v-3h-3.47c2.13-2.01,3.47-4.85,3.47-8Zm-6,2c-1.1,0-2-.9-2-2s.9-2,2-2,2,.9,2,2-.9,2-2,2Zm-3-7c0,1.1-.9,2-2,2s-2-.9-2-2,.9-2,2-2,2,.9,2,2Zm-7,3c1.1,0,2,.9,2,2s-.9,2-2,2-2-.9-2-2,.9-2,2-2Zm3,7c0-1.1.9-2,2-2s2,.9,2,2-.9,2-2,2-2-.9-2-2Z"/></g><path d="M7 10A2 2 0 1 0 7 14 2 2 0 1 0 7 10z"/><path d="M12 15A2 2 0 1 0 12 19 2 2 0 1 0 12 15z"/><path d="M12 5A2 2 0 1 0 12 9 2 2 0 1 0 12 5z"/><path d="M17 10A2 2 0 1 0 17 14 2 2 0 1 0 17 10z"/></svg>