<svg xmlns="http://www.w3.org/2000/svg" width="24" height="24" viewBox="0 0 24 24"><g opacity="0.4"><path d="m12,5.93c-.95,2.38-3.1,5.2-7.98,5.69,0,.13-.02.25-.02.38,0,4.41,3.59,8,8,8s8-3.59,8-8c0-.13-.01-.26-.02-.38-4.88-.49-7.03-3.31-7.98-5.69Zm-3.5,9.07c-.83,0-1.5-.67-1.5-1.5s.67-1.5,1.5-1.5,1.5.67,1.5,1.5-.67,1.5-1.5,1.5Zm7,0c-.83,0-1.5-.67-1.5-1.5s.67-1.5,1.5-1.5,1.5.67,1.5,1.5-.67,1.5-1.5,1.5Z"/></g><path d="m23.81,23l-.81-11.05h0c-.03-6.04-4.95-10.95-11-10.95S1.03,5.91,1,11.95h0S.19,23,.19,23h23.61ZM4,12c0-.13.01-.26.02-.38,4.88-.49,7.03-3.31,7.98-5.69.95,2.38,3.1,5.2,7.98,5.69,0,.13.02.25.02.38,0,4.41-3.59,8-8,8s-8-3.59-8-8Z"/><path d="M8.5 12A1.5 1.5 0 1 0 8.5 15 1.5 1.5 0 1 0 8.5 12z"/><path d="M15.5 12A1.5 1.5 0 1 0 15.5 15 1.5 1.5 0 1 0 15.5 12z"/></svg>