<svg xmlns="http://www.w3.org/2000/svg" width="24" height="24" viewBox="0 0 24 24"><g opacity="0.4"><path d="M11 9A2 2 0 1 0 11 13 2 2 0 1 0 11 9z"/><path d="m11.62,3l-2-2H1v20h22V3h-11.38Zm4.38,15h-.12l-2.58-2.58c-.69.36-1.46.58-2.29.58-2.76,0-5-2.24-5-5s2.24-5,5-5,5,2.24,5,5c0,.83-.22,1.6-.58,2.29l2.64,2.64-2.06,2.06Z"/></g><path d="m11,16c.83,0,1.6-.22,2.29-.58l2.58,2.58h.12l2.06-2.06-2.64-2.64c.36-.69.58-1.46.58-2.29,0-2.76-2.24-5-5-5s-5,2.24-5,5,2.24,5,5,5Zm0-7c1.1,0,2,.9,2,2s-.9,2-2,2-2-.9-2-2,.9-2,2-2Z"/></svg>