<svg xmlns="http://www.w3.org/2000/svg" width="24" height="24" viewBox="0 0 24 24"><g opacity="0.4"><path d="m22.48,8.63c-.74-2.3-2.82-3.83-5.13-3.96-.83-2.16-2.93-3.66-5.34-3.66s-4.51,1.5-5.34,3.66c-2.32.13-4.39,1.66-5.13,3.96-.74,2.3.04,4.75,1.84,6.21-.6,2.23.22,4.68,2.17,6.1,1.01.73,2.19,1.09,3.37,1.09,1.09,0,2.17-.31,3.1-.91,1.94,1.25,4.52,1.22,6.47-.19,1.95-1.42,2.76-3.86,2.17-6.1,1.8-1.46,2.58-3.91,1.84-6.21Zm-6.03,4.08c-.3,1.93-1.81,3.44-3.74,3.74-.23.03-.46.06-.71.06s-.48-.02-.7-.06c-1.93-.3-3.44-1.81-3.74-3.74-.03-.23-.06-.46-.06-.71s.02-.48.06-.7c.3-1.93,1.81-3.44,3.74-3.74.46-.07.96-.07,1.41,0,1.93.3,3.44,1.81,3.74,3.74.03.23.06.46.06.71s-.02.48-.06.7Z"/></g><path d="m11.3,16.44c.22.03.46.06.7.06s.48-.02.71-.06c1.93-.3,3.43-1.81,3.74-3.74.03-.22.06-.46.06-.7s-.02-.48-.06-.71c-.3-1.93-1.81-3.43-3.74-3.74-.45-.07-.95-.07-1.41,0-1.93.3-3.43,1.81-3.74,3.74-.03.22-.06.46-.06.7s.02.48.06.71c.3,1.93,1.81,3.43,3.74,3.74Z"/></svg>