<svg xmlns="http://www.w3.org/2000/svg" width="24" height="24" viewBox="0 0 24 24"><g opacity="0.4"><path d="m15.82,9.19h-7.23c-.85,0-1.65.33-2.25.93L1.43,15.03c1.32,4.6,5.55,7.97,10.57,7.97s9.44-3.53,10.65-8.29l-4.58-4.58c-.6-.6-1.4-.93-2.25-.93Zm-8.32,6.81c-.83,0-1.5-.67-1.5-1.5s.67-1.5,1.5-1.5,1.5.67,1.5,1.5-.67,1.5-1.5,1.5Zm9,0c-.83,0-1.5-.67-1.5-1.5s.67-1.5,1.5-1.5,1.5.67,1.5,1.5-.67,1.5-1.5,1.5Z"/></g><path d="M7.5 13A1.5 1.5 0 1 0 7.5 16 1.5 1.5 0 1 0 7.5 13z"/><path d="M16.5 13A1.5 1.5 0 1 0 16.5 16 1.5 1.5 0 1 0 16.5 13z"/><path d="m12,1C5.93,1,1,5.93,1,12c0,1.05.16,2.06.43,3.03l4.9-4.9c.6-.6,1.4-.93,2.25-.93h7.23c.85,0,1.65.33,2.25.93l4.58,4.58c.22-.87.35-1.77.35-2.71,0-6.07-4.93-11-11-11Z"/></svg>