<svg xmlns="http://www.w3.org/2000/svg" width="24" height="24" viewBox="0 0 24 24"><g opacity="0.4"><path d="m18.66,4.85s0,0,0,0c-.76-1.32-2.44-1.77-3.76-1.01-.07.04-.12.09-.18.13,0-.08.02-.15.02-.23,0-1.52-1.23-2.75-2.75-2.75s-2.75,1.23-2.75,2.75c0,.08.02.15.02.23-.06-.04-.12-.09-.18-.13-1.32-.75-3-.29-3.75,1.03-.74,1.31-.3,2.97,1,3.73.07.04.14.06.21.09-.07.03-.14.05-.21.09-1.31.77-1.75,2.45-.98,3.76.76,1.3,2.42,1.74,3.73,1,.07-.04.12-.09.18-.13,0,.08-.02.15-.02.23,0,1.52,1.23,2.75,2.75,2.75s2.75-1.23,2.75-2.75c0-.08-.02-.15-.02-.23.06.04.12.09.18.13,1.32.75,3,.29,3.75-1.03.74-1.31.3-2.97-1-3.73-.07-.04-.14-.06-.21-.09.07-.03.14-.05.21-.09,1.32-.76,1.77-2.44,1.01-3.76Zm-6.67,6.85c-1.66,0-3-1.34-3-3s1.34-3,3-3,3,1.34,3,3-1.34,3-3,3Z"/></g><path d="m2.09,13.22l-1.09-.12.02.19c.63,5.05,4.64,9.01,9.7,9.57l1.28.14c-.64-5.16-4.75-9.21-9.91-9.78Z"/><path d="m21.91,13.22c-5.17.58-9.27,4.62-9.91,9.78l1.28-.14c5.06-.56,9.07-4.52,9.7-9.57l.02-.19-1.09.12Z"/><path d="M11.99 5.699999999999999A3 3 0 1 0 11.99 11.7 3 3 0 1 0 11.99 5.699999999999999z"/></svg>