<svg xmlns="http://www.w3.org/2000/svg" width="24" height="24" viewBox="0 0 24 24"><g opacity="0.4"><path d="m19.25,3.75c.29.42.37.79.17.99-.39.39-1.26.67-1.92.62-.66-.05-1.71-.35-2.32-.65-.61-.3-1.51-1.69-1.99-3.07l-.2-.59c-.32-.03-.65-.05-.98-.05C5.93,1,1,5.93,1,12s4.93,11,11,11,11-4.93,11-11c0-3.29-1.46-6.23-3.75-8.25Zm-2.64,13.12c-.07.77-.53,1.97-1.01,2.67s-1.72,1.36-2.74,1.47c-1.02.11-1.89-.24-1.92-.78-.04-.54-.34-1.46-.68-2.05-.34-.59-.84-.55-1.11.1-.27.65-1.31.78-2.32.29-1-.48-1.63-1.59-1.39-2.46.24-.87.14-1.74-.23-1.92-.37-.19-.86-.72-1.08-1.18-.23-.46-.05-.62.39-.35.44.27,1.14.65,1.56.6.04,0,.14-.06.14-.06,1.08-.43,1.96-1.21,2.65-2.14.27-.37.58-.63.86-.69.56-.12,2.14.07,3.52.42s2.59,1.17,2.67,1.82c.09.65.31,1.56.49,2.03.18.47.27,1.48.2,2.25Z"/></g><path d="m15.18,4.71c.61.3,1.65.6,2.32.65.66.05,1.53-.23,1.92-.62.2-.2.12-.57-.17-.99-1.71-1.5-3.88-2.49-6.27-2.7l.2.59c.48,1.38,1.38,2.77,1.99,3.07Z"/><path d="m9.73,10.36c-.28.06-.59.32-.86.69-.7.93-1.57,1.71-2.65,2.14,0,0-.1.05-.14.06-.42.05-1.12-.33-1.56-.6-.44-.27-.61-.11-.39.35.23.46.72.99,1.08,1.18.37.19.47,1.05.23,1.92-.24.87.38,1.98,1.39,2.46,1,.48,2.05.35,2.32-.29.27-.65.77-.69,1.11-.1.34.59.65,1.52.68,2.05.04.54.9.89,1.92.78,1.02-.11,2.25-.77,2.74-1.47s.94-1.9,1.01-2.67c.07-.77-.02-1.78-.2-2.25-.18-.47-.4-1.38-.49-2.03-.09-.65-1.29-1.46-2.67-1.82s-2.97-.54-3.52-.42Z"/></svg>