<svg xmlns="http://www.w3.org/2000/svg" width="24" height="24" viewBox="0 0 24 24"><g opacity="0.4"><path d="M13 18.71 13 22.66 20.01 18.71 16.5 16.8 13 18.71z"/><path d="M20.01 5.29 13 1.34 13 5.29 16.5 7.2 20.01 5.29z"/><path d="M6.5 8.93 3 7.03 3 16.97 6.5 15.07 6.5 8.93z"/><path d="M11 5.29 11 1.34 3.99 5.29 7.5 7.2 11 5.29z"/><path d="M15.5 8.93 12 7.03 8.5 8.93 8.5 15.07 12 16.97 15.5 15.07 15.5 8.93z"/><path d="M3.99 18.71 11 22.66 11 18.71 7.5 16.8 3.99 18.71z"/><path d="M21 18.15 21 18.11 20.97 18.17 21 18.15z"/><path d="M3 18.15 3.03 18.17 3 18.11 3 18.15z"/><path d="M21 5.89 21 5.85 20.97 5.83 21 5.89z"/><path d="M3 5.85 3 5.89 3.03 5.83 3 5.85z"/><path d="M17.5 15.07 21 16.97 21 7.03 17.5 8.93 17.5 15.07z"/></g><path d="m21,7.03v-1.14l-.03-.06-.96-.54-3.51,1.91-3.5-1.9V1.34l-1-.56-1,.56v3.95l-3.5,1.9-3.51-1.91-.96.54-.03.06v1.14l3.5,1.9v6.14l-3.5,1.9v1.14l.03.06.96.54,3.51-1.91,3.5,1.9v3.95l1,.56,1-.56v-3.95l3.5-1.9,3.51,1.91.96-.54.03-.06v-1.14l-3.5-1.9v-6.14l3.5-1.9Zm-5.5,8.04l-3.5,1.9-3.5-1.9v-6.14l3.5-1.9,3.5,1.9v6.14Z"/></svg>