<svg xmlns="http://www.w3.org/2000/svg" width="24" height="24" viewBox="0 0 24 24"><g opacity="0.4"><path d="m8.24,1.68c.19.01.36.06.45.17.24.32,1.18.33,2.09.02.78-.26,1.44-.62,1.62-.85-.13,0-.26-.02-.39-.02-1.32,0-2.58.25-3.76.68Z"/><path d="m15.26,1.49c.15.26.27.63.28.93.01.39-.05.81-.13.93-.09.12-.46,0-.84-.27-.38-.27-.79-.31-.91-.09-.12.22-.05.57.16.78.21.21.72.63,1.13.93.41.31.4.71-.02.91-.43.2-1.11.76-1.51,1.26-.4.5-.81,1.22-.91,1.6-.1.38-.25.79-.34.91-.09.12-.26.07-.38-.11-.12-.18-.48-.41-.81-.51-.33-.1-.94,0-1.35.2-.41.21-.59.75-.4,1.2.2.45.59.58.89.29.29-.29.65-.26.79.08.14.34.58.93.98,1.33s.91.59,1.14.43c.23-.16,1-.15,1.71.02.71.17,1.66.56,2.11.85.45.29,1.35.83,2,1.2.65.37.88,1.34.51,2.17-.37.83-1.61,2.29-2.76,3.25l-1,.83c-1.15.96-2.24,1.7-2.41,1.65-.17-.05-.08-1,.2-2.11.28-1.11.23-2.27-.11-2.57-.34-.31-.81-.94-1.04-1.42-.23-.48-.28-1.31-.11-1.86.17-.55.11-1.11-.13-1.24s-.68-.43-.98-.65c-.29-.22-.98-.56-1.53-.75-.55-.19-1.37-.74-1.82-1.21s-1.04-1.49-1.31-2.26-.26-2.15.02-3.06c.28-.92.31-1.81.07-2-.18-.13-.06-.43.26-.74C3.3,4.26,1,7.86,1,12c0,6.07,4.93,11,11,11s11-4.93,11-11c0-4.93-3.26-9.11-7.74-10.51Z"/></g><path d="m13.17,22.27c.17.05,1.25-.69,2.41-1.65l1-.83c1.15-.96,2.4-2.42,2.76-3.25.37-.83.14-1.81-.51-2.17-.65-.37-1.55-.91-2-1.2-.45-.29-1.4-.68-2.11-.85-.71-.17-1.48-.19-1.71-.02-.23.16-.75-.03-1.14-.43s-.84-1-.98-1.33c-.14-.34-.49-.37-.79-.08-.29.29-.69.16-.89-.29-.2-.45-.02-.99.4-1.2.41-.21,1.02-.3,1.35-.2.33.1.7.33.81.51.12.18.29.23.38.11.09-.12.24-.53.34-.91.1-.38.51-1.1.91-1.6.4-.5,1.08-1.07,1.51-1.26.43-.2.44-.6.02-.91-.42-.31-.92-.72-1.13-.93-.21-.21-.28-.56-.16-.78.12-.22.53-.18.91.09.38.27.76.39.84.27.09-.12.15-.54.13-.93,0-.3-.13-.67-.28-.93-.91-.28-1.88-.44-2.87-.47-.17.23-.84.59-1.62.85-.9.31-1.84.3-2.09-.02-.09-.12-.26-.16-.45-.17-.54.2-1.06.43-1.56.7-.31.31-.43.6-.26.74.24.18.21,1.08-.07,2-.28.92-.29,2.29-.02,3.06s.86,1.79,1.31,2.26,1.27,1.02,1.82,1.21c.55.19,1.24.53,1.53.75.29.22.73.52.98.65s.3.69.13,1.24c-.17.55-.12,1.39.11,1.86.23.48.7,1.12,1.04,1.42.34.31.39,1.46.11,2.57-.28,1.11-.37,2.06-.2,2.11Z"/></svg>