<svg xmlns="http://www.w3.org/2000/svg" width="24" height="24" viewBox="0 0 24 24"><g opacity="0.4"><path d="M15.57 14.14H17V15.57H15.57z"/><path d="M12.71 11.29H14.14V12.719999999999999H12.71z"/><path d="M15.57 2.71H17V4.14H15.57z"/><path d="M15.57 8.43H17V9.86H15.57z"/><path d="M12.71 5.57H14.14V7H12.71z"/><path d="M12.71 17H14.14V18.43H12.71z"/><path d="M15.57 19.86H17V21.29H15.57z"/><path d="M6.29 2 2 2 2 22 6.29 22 6.29 19.14 9.14 19.14 9.14 16.29 6.29 16.29 6.29 13.43 9.14 13.43 9.14 10.57 6.29 10.57 6.29 7.71 9.14 7.71 9.14 4.86 6.29 4.86 6.29 2z"/><path d="M9.14 19.14H12V22H9.14z"/><path d="M9.14 7.71H12V10.57H9.14z"/><path d="M9.14 13.43H12V16.29H9.14z"/><path d="M9.14 2H12V4.859999999999999H9.14z"/></g><path d="M6.29 13.43H9.15V16.29H6.29z"/><path d="M6.29 7.71H9.15V10.57H6.29z"/><path d="M6.29 2H9.15V4.859999999999999H6.29z"/><path d="M6.29 19.14H9.15V22H6.29z"/><path d="m12,2v2.86h-2.86v2.86h2.86v2.86h-2.86v2.86h2.86v2.86h-2.86v2.86h2.86v2.86h10V2h-10Zm2.14,16.43h-1.43v-1.43h1.43v1.43Zm0-5.71h-1.43v-1.43h1.43v1.43Zm0-5.71h-1.43v-1.43h1.43v1.43Zm2.86,14.29h-1.43v-1.43h1.43v1.43Zm0-5.71h-1.43v-1.43h1.43v1.43Zm0-5.71h-1.43v-1.43h1.43v1.43Zm0-5.71h-1.43v-1.43h1.43v1.43Z"/></svg>