<svg xmlns="http://www.w3.org/2000/svg" width="24" height="24" viewBox="0 0 24 24"><g opacity="0.4"><path d="m12,1C5.93,1,1,5.93,1,12s4.93,11,11,11,11-4.93,11-11S18.07,1,12,1Zm-4.5,8.25c.69,0,1.25.56,1.25,1.25s-.56,1.25-1.25,1.25-1.25-.56-1.25-1.25.56-1.25,1.25-1.25Zm-1,6.5c-.69,0-1.25-.56-1.25-1.25s.56-1.25,1.25-1.25,1.25.56,1.25,1.25-.56,1.25-1.25,1.25Zm3,3c-.69,0-1.25-.56-1.25-1.25s.56-1.25,1.25-1.25,1.25.56,1.25,1.25-.56,1.25-1.25,1.25Zm1-4c-.69,0-1.25-.56-1.25-1.25s.56-1.25,1.25-1.25,1.25.56,1.25,1.25-.56,1.25-1.25,1.25Zm3,3c-.69,0-1.25-.56-1.25-1.25s.56-1.25,1.25-1.25,1.25.56,1.25,1.25-.56,1.25-1.25,1.25Z"/></g><path d="M13.5 15.25A1.25 1.25 0 1 0 13.5 17.75 1.25 1.25 0 1 0 13.5 15.25z"/><path d="M10.5 12.25A1.25 1.25 0 1 0 10.5 14.75 1.25 1.25 0 1 0 10.5 12.25z"/><path d="M7.5 9.25A1.25 1.25 0 1 0 7.5 11.75 1.25 1.25 0 1 0 7.5 9.25z"/><path d="M6.5 13.25A1.25 1.25 0 1 0 6.5 15.75 1.25 1.25 0 1 0 6.5 13.25z"/><path d="M9.5 16.25A1.25 1.25 0 1 0 9.5 18.75 1.25 1.25 0 1 0 9.5 16.25z"/></svg>