<svg xmlns="http://www.w3.org/2000/svg" width="24" height="24" viewBox="0 0 24 24"><g opacity="0.4"><path d="m14,10c0-1.1-.9-2-2-2H1.91c-.58,1.35-.91,2.82-.91,4.33v2.67h13v-5Z"/><path d="m22.65,9.25h-4.65v1.5h4.91c-.06-.51-.14-1.01-.27-1.5Z"/><path d="m22.91,13.25h-4.91v1.5h4.63c.14-.49.23-.99.29-1.5Z"/></g><path d="m22.91,10.75h-4.91v-1.5h4.65c-.49-1.88-1.47-3.62-2.87-5.03-2.24-2.24-5.35-3.41-8.51-3.2-4.11.27-7.74,3.16-9.36,6.98h10.09c1.1,0,2,.9,2,2v5H1v2.5c0,3.03,2.47,5.5,5.5,5.5h5.17c5.05,0,9.65-3.61,10.96-8.25h-4.63v-1.5h4.91c.02-.17.05-.34.06-.51.04-.67.01-1.33-.06-1.99Z"/></svg>