<svg xmlns="http://www.w3.org/2000/svg" width="24" height="24" viewBox="0 0 24 24"><g opacity="0.4"><path d="M5 1A3 3 0 1 0 5 7 3 3 0 1 0 5 1z"/><path d="m1,18.5c0,2.48,2.02,4.5,4.5,4.5h13c2.48,0,4.5-2.02,4.5-4.5v-5.5H1v5.5Z"/></g><path d="m17.5,10c0-2.09.45-3.11.94-4.2.52-1.18,1.06-2.4,1.06-4.8h-1.5c0,2.09-.45,3.11-.94,4.2-.52,1.18-1.06,2.4-1.06,4.8h1.5Z"/><path d="m14.94,5.8c.52-1.18,1.06-2.4,1.06-4.8h-1.5c0,2.09-.45,3.11-.94,4.2-.52,1.18-1.06,2.4-1.06,4.8h1.5c0-2.09.45-3.11.94-4.2Z"/><path d="m21,10c0-2.09.45-3.11.94-4.2.52-1.18,1.06-2.4,1.06-4.8h-1.5c0,2.09-.45,3.11-.94,4.2-.52,1.18-1.06,2.4-1.06,4.8h1.5Z"/><path d="m5.4,8c-2.23,0-4.05,1.98-4.34,5h10.42c-1.87-3.02-3.06-5-6.08-5Z"/></svg>