<svg xmlns="http://www.w3.org/2000/svg" width="24" height="24" viewBox="0 0 24 24"><g opacity="0.4"><path d="m0,8.75v6.5c0,2.62,2.16,4.75,4.82,4.75h1.18V4h-1.18C2.16,4,0,6.13,0,8.75Zm3.5,1.25c-.83,0-1.5-.67-1.5-1.5s.67-1.5,1.5-1.5,1.5.67,1.5,1.5-.67,1.5-1.5,1.5Z"/><path d="m19.18,4h-1.18v16h1.18c2.66,0,4.82-2.13,4.82-4.75v-6.5c0-2.62-2.16-4.75-4.82-4.75Zm1.32,13c-.83,0-1.5-.67-1.5-1.5s.67-1.5,1.5-1.5,1.5.67,1.5,1.5-.67,1.5-1.5,1.5Z"/></g><path d="M20.5 14A1.5 1.5 0 1 0 20.5 17 1.5 1.5 0 1 0 20.5 14z"/><path d="M6 4H18V20H6z"/><path d="M3.5 7A1.5 1.5 0 1 0 3.5 10 1.5 1.5 0 1 0 3.5 7z"/></svg>