<svg xmlns="http://www.w3.org/2000/svg" width="24" height="24" viewBox="0 0 24 24"><g opacity="0.4"><path d="m2,1v22h14.5c3.03,0,5.5-2.47,5.5-5.5V1H2Zm10,17h-2v2h-2v-2h-2v-2h2v-2h2v2h2v2Zm3,1c-.55,0-1-.45-1-1s.45-1,1-1,1,.45,1,1-.45,1-1,1Zm2-2c-.55,0-1-.45-1-1s.45-1,1-1,1,.45,1,1-.45,1-1,1Zm2-5H5V4h14v8Z"/></g><path d="M5 4H19V12H5z"/><path d="M15 17A1 1 0 1 0 15 19 1 1 0 1 0 15 17z"/><path d="M10 20 10 18 12 18 12 16 10 16 10 14 8 14 8 16 6 16 6 18 8 18 8 20 10 20z"/><path d="M17 15A1 1 0 1 0 17 17 1 1 0 1 0 17 15z"/></svg>