<svg xmlns="http://www.w3.org/2000/svg" width="24" height="24" viewBox="0 0 24 24"><g opacity="0.4"><path d="m22.13,7.72c-.28-.65-.62-1.28-1.01-1.87-.39-.58-.85-1.13-1.34-1.63s-1.04-.95-1.63-1.34c-.59-.39-1.21-.74-1.87-1.01-.67-.28-1.36-.5-2.07-.64-1.45-.3-2.98-.3-4.43,0-.71.14-1.4.36-2.07.64-.65.28-1.28.62-1.87,1.01-.58.39-1.13.85-1.63,1.34-.17.17-.32.35-.48.52L1,2v7h7l-2.13-2.13c.15-.18.31-.36.48-.52.36-.36.76-.69,1.18-.98.43-.29.89-.54,1.36-.74.48-.2.99-.36,1.5-.46,1.05-.22,2.17-.22,3.23,0,.51.1,1.02.26,1.5.46.48.2.93.45,1.36.74.42.29.82.62,1.19.98s.69.76.98,1.18c.29.43.54.89.74,1.36.2.48.36.99.46,1.5.11.53.16,1.07.16,1.61s-.05,1.09-.16,1.62c-.1.51-.26,1.02-.46,1.5-.2.48-.45.93-.74,1.36-.29.42-.62.82-.98,1.19s-.76.69-1.18.98c-.43.29-.89.54-1.36.74-.48.2-.99.36-1.5.46-1.05.22-2.17.22-3.23,0-.51-.1-1.02-.26-1.5-.46-.48-.2-.93-.45-1.36-.74-.42-.29-.82-.62-1.19-.98s-.69-.76-.98-1.18c-.29-.43-.54-.89-.74-1.36-.2-.48-.36-.99-.46-1.5-.11-.53-.16-1.07-.16-1.61H1c0,.75.08,1.49.22,2.21.14.71.36,1.4.64,2.07.28.65.62,1.28,1.01,1.87.39.58.85,1.13,1.34,1.63s1.04.95,1.63,1.34c.59.39,1.21.74,1.87,1.01.67.28,1.36.5,2.07.64.73.15,1.47.22,2.22.22s1.49-.08,2.21-.22c.71-.14,1.4-.36,2.07-.64.65-.28,1.28-.62,1.87-1.01.58-.39,1.13-.85,1.63-1.34s.95-1.04,1.34-1.63c.39-.59.74-1.21,1.01-1.87.28-.67.5-1.36.64-2.07.15-.73.22-1.47.22-2.22s-.08-1.49-.22-2.21c-.14-.71-.36-1.4-.64-2.07Z"/></g><path d="M11.25 7 11.25 12.75 17 12.75 17 11.25 12.75 11.25 12.75 7 11.25 7z"/></svg>