<svg xmlns="http://www.w3.org/2000/svg" width="24" height="24" viewBox="0 0 24 24"><g opacity="0.4"><path d="m1.05,11h10.95v-2H1.43c-.18.65-.31,1.31-.38,2Z"/><path d="m2.21,7h9.79v-2H3.52c-.51.61-.94,1.29-1.31,2Z"/><path d="m1.43,15h10.57v-2H1.05c.06.69.19,1.35.38,2Z"/><path d="m12,3V1c-2.35,0-4.52.74-6.3,2h6.3Z"/><path d="m12,23v-2h-6.3c1.79,1.26,3.96,2,6.3,2Z"/><path d="m3.52,19h8.48v-2H2.21c.37.71.8,1.39,1.31,2Z"/></g><path d="m12,1v2h-6.3c-.81.57-1.54,1.24-2.17,2h8.48v2H2.21c-.33.63-.59,1.3-.79,2h10.57v2H1.05c-.03.33-.05.66-.05,1s.02.67.05,1h10.95v2H1.43c.2.7.46,1.37.79,2h9.79v2H3.52c.63.76,1.36,1.43,2.17,2h6.3v2c6.07,0,11-4.93,11-11S18.07,1,12,1Z"/></svg>