<svg xmlns="http://www.w3.org/2000/svg" width="24" height="24" viewBox="0 0 24 24"><g opacity="0.4"><path d="m20.84,7.01c-1.74-2.89-4.64-4.71-7.94-4.98-.6-.05-1.21-.05-1.81,0-3.3.27-6.19,2.08-7.94,4.98-1.35,2.24-1.83,4.86-1.43,7.38l2.86-1.43c-.06-1.52.32-3.06,1.13-4.4,1.24-2.06,3.28-3.34,5.61-3.53.44-.04.9-.04,1.33,0,2.32.19,4.37,1.48,5.61,3.53.81,1.34,1.19,2.88,1.13,4.4l2.86,1.43c.41-2.52-.08-5.15-1.43-7.38Z"/></g><path d="m4.87,22.55l4.78-2.39-3.24-8.11-1.82.91h0s-2.86,1.43-2.86,1.43c.14.86.38,1.72.73,2.54l2.41,5.62Z"/><path d="m21.54,16.93c.35-.82.59-1.67.73-2.54l-2.86-1.43h0s-1.82-.91-1.82-.91l-3.24,8.11,4.78,2.39,2.41-5.62Z"/></svg>