<svg xmlns="http://www.w3.org/2000/svg" width="24" height="24" viewBox="0 0 24 24"><g opacity="0.4"><path d="m12,13.9c-4.64,0-6.94,3.26-7.73,5.55.46.41.65.55,1.13.55.5,0,.68-.15,1.19-.61.61-.55,1.53-1.39,3.21-1.39s2.6.84,3.21,1.39c.51.46.69.61,1.19.61s.68-.15,1.19-.61c.61-.55,1.53-1.39,3.21-1.39.33,0,.62.04.89.09-.97-1.87-3.26-4.19-7.49-4.19Z"/></g><path d="m21.81,19.39c-.61-.55-1.53-1.39-3.21-1.39s-2.6.84-3.21,1.39c-.51.46-.7.61-1.19.61s-.68-.15-1.19-.61c-.61-.55-1.53-1.39-3.21-1.39s-2.6.84-3.21,1.39c-.51.46-.69.61-1.19.61s-.68-.15-1.19-.61c-.61-.55-1.53-1.39-3.21-1.39v3c.5,0,.68.15,1.19.61.61.55,1.53,1.39,3.21,1.39s2.6-.84,3.21-1.39c.51-.46.69-.61,1.19-.61s.68.15,1.19.61c.61.55,1.53,1.39,3.21,1.39s2.6-.84,3.21-1.39c.51-.46.7-.61,1.19-.61s.68.15,1.2.61c.61.55,1.53,1.39,3.21,1.39v-3c-.5,0-.68-.15-1.19-.61Z"/><path d="m7.56,7.89s.86-.68,2.23-1.11c-1.06,1.81-2.13,4.55-2.15,8.33.84-.54,1.85-.94,3.04-1.11.21-2.9,1.15-4.9,1.95-6.13.12.79.13,1.67-.05,2.67l1.97.35c.27-1.51.2-2.86-.09-4.05.67.22,1.36.54,2.07,1l1.08-1.68c-1.42-.91-2.78-1.39-4.04-1.59-1.07-1.92-2.68-3.16-3.81-3.7l-.86,1.81s1.17.58,2.21,1.82c-2.87.3-4.79,1.82-4.82,1.85l1.27,1.54Z"/></svg>