<svg xmlns="http://www.w3.org/2000/svg" width="24" height="24" viewBox="0 0 24 24"><g opacity="0.4"><path d="m0,4v16h24V4H0Zm11,3h2v2h-2v-2Zm0,4h2v2h-2v-2Zm-4-4h2v2h-2v-2Zm0,4h2v2h-2v-2Zm-2,2h-2v-2h2v2Zm0-4h-2v-2h2v2Zm12,8H7v-2h10v2Zm0-4h-2v-2h2v2Zm0-4h-2v-2h2v2Zm4,4h-2v-2h2v2Zm0-4h-2v-2h2v2Z"/></g><path d="M19 7H21V9H19z"/><path d="M19 11H21V13H19z"/><path d="M15 11H17V13H15z"/><path d="M15 7H17V9H15z"/><path d="M3 11H5V13H3z"/><path d="M11 7H13V9H11z"/><path d="M3 7H5V9H3z"/><path d="M7 11H9V13H7z"/><path d="M11 11H13V13H11z"/><path d="M7 7H9V9H7z"/><path d="M7 15H17V17H7z"/></svg>