<svg xmlns="http://www.w3.org/2000/svg" width="24" height="24" viewBox="0 0 24 24"><g opacity="0.4"><path d="M2 2H11V22H2z"/><path d="M13 2H22V11H13z"/></g><path d="m16.79,20.54c.75,0,1.46-.22,2.07-.62l2.26,2.26,1.06-1.06-2.26-2.26c.4-.61.62-1.32.62-2.07,0-1-.39-1.94-1.1-2.65-1.42-1.42-3.89-1.42-5.3,0-.71.71-1.1,1.65-1.1,2.65s.39,1.94,1.1,2.65c.71.71,1.65,1.1,2.65,1.1Zm-1.59-5.34c.42-.42.99-.66,1.59-.66s1.17.23,1.59.66.66.99.66,1.59-.23,1.17-.66,1.59c-.85.85-2.33.85-3.18,0-.42-.42-.66-.99-.66-1.59s.23-1.17.66-1.59Z"/></svg>