<svg xmlns="http://www.w3.org/2000/svg" width="24" height="24" viewBox="0 0 24 24"><g opacity="0.4"><path d="m7.45,15.39c.21.36.37,1.03.47,1.61h8.13c.07-.48.21-1.12.49-1.6.38-.64.82-1.15,1.29-1.69.95-1.1,2.04-2.34,2.15-4.46h0c.21-3.76-2.44-7.22-6.15-8.05-2.45-.55-4.97.02-6.89,1.57-1.87,1.5-2.94,3.71-2.94,6.06s1.14,3.68,2.14,4.83c.48.55.93,1.07,1.31,1.73Zm4.55-10.39v1.5c-1.38,0-2.5,1.12-2.5,2.5h-1.5c0-2.21,1.79-4,4-4Z"/></g><path d="m12,6.5v-1.5c-2.21,0-4,1.79-4,4h1.5c0-1.38,1.12-2.5,2.5-2.5Z"/><path d="m16,23v-5.47c0-.11.02-.31.05-.53H7.92c.03.21.06.4.08.57v5.43h8Z"/></svg>