<svg xmlns="http://www.w3.org/2000/svg" width="24" height="24" viewBox="0 0 24 24"><g opacity="0.4"><path d="m22.97,3.41l-.13-2.12-1.96.83s-2.86,1.18-5.04.02c-2.19-1.17-6.07-1.89-9.8-.02h0C1.67,4.31-.1,9.52,1.66,14.42c.62-1.32,1.42-2.46,2.39-3.41,3.1-3.04,6.83-3.01,6.98-3v.56c-1.23.42-2.66,1.15-3.98,2.45-2.69,2.64-4.05,6.67-4.05,12h3c0-1.11.07-2.16.2-3.12.59.3,1.21.56,1.87.72.73.17,1.46.25,2.18.25,2.68,0,5.12-1.06,6.32-1.95,1.97-1.48,3.6-2.89,5.2-6.37,1.53-3.33,1.22-8.88,1.21-9.11Z"/></g><path d="m3.54,17.75c.63-2.8,1.8-5.06,3.51-6.75,1.32-1.29,2.75-2.03,3.97-2.45v-.56c-.13,0-3.87-.04-6.97,3-.97.95-1.77,2.1-2.39,3.41l.55,1.31c.38.76.83,1.43,1.33,2.03Z"/></svg>