<svg xmlns="http://www.w3.org/2000/svg" width="24" height="24" viewBox="0 0 24 24"><g opacity="0.4"><path d="m12,1C7.04,1,3,4.99,3,9.88c-.03,7.04,7.81,12.61,8.14,12.85l.86.6.86-.6c.33-.23,8.17-5.81,8.14-12.84,0-4.9-4.04-8.89-9-8.89Zm4.24,11.12l-2.12,2.12-2.12-2.12-2.12,2.12-2.12-2.12,2.12-2.12-2.12-2.12,2.12-2.12,2.12,2.12,2.12-2.12,2.12,2.12-2.12,2.12,2.12,2.12Z"/></g><path d="M9.88 14.24 12 12.12 14.12 14.24 16.24 12.12 14.12 10 16.24 7.88 14.12 5.76 12 7.88 9.88 5.76 7.76 7.88 9.88 10 7.76 12.12 9.88 14.24z"/></svg>