<svg xmlns="http://www.w3.org/2000/svg" width="24" height="24" viewBox="0 0 24 24"><g opacity="0.4"><path d="m12,1C5.93,1,1,5.93,1,12s4.93,11,11,11,11-4.93,11-11S18.07,1,12,1Zm-5.43,7.65l.87-1.3,3.97,2.65-3.97,2.65-.87-1.3,2.03-1.35-2.03-1.35Zm5.43,9.35c-4,0-5-4-5-4h10s-1,4-5,4Zm5.43-6.65l-.87,1.3-3.97-2.65,3.97-2.65.87,1.3-2.03,1.35,2.03,1.35Z"/></g><path d="m12,18c4,0,5-4,5-4H7s1,4,5,4Z"/><path d="M16.57 7.35 12.59 10 16.57 12.65 17.43 11.35 15.41 10 17.43 8.65 16.57 7.35z"/><path d="M7.43 12.65 11.41 10 7.43 7.35 6.57 8.65 8.59 10 6.57 11.35 7.43 12.65z"/></svg>