<svg xmlns="http://www.w3.org/2000/svg" width="24" height="24" viewBox="0 0 24 24"><g opacity="0.4"><path d="m15.34,17.51c-1.53.04-2.68.86-3.34,1.51-.67-.64-1.81-1.47-3.34-1.51-2.42-.06-4.14,1.94-4.21,2.02l-.49.58.43.62c.06.09,1.54,2.2,4,2.26.04,0,.07,0,.11,0,1.57,0,2.81-.84,3.5-1.43.69.6,1.93,1.43,3.5,1.43.04,0,.07,0,.11,0,2.47-.06,3.94-2.17,4-2.26l.43-.62-.49-.58c-.07-.09-1.8-2.1-4.21-2.02Z"/><path d="m6.68,14.86v-.02c.02-.11.34-2.66-1.37-4.48-1.71-1.82-4.26-1.62-4.37-1.61l-.8.07-.11.79c-.01.11-.31,2.55,1.26,4.35.66-.24,2.58-.79,4.39.17.38.2.71.46.99.72Z"/><path d="m23.97,9.62l-.11-.79-.8-.07c-.11-.01-2.66-.21-4.37,1.61-1.71,1.81-1.38,4.37-1.37,4.48v.02c.29-.27.61-.52,1-.72,1.81-.96,3.72-.42,4.39-.17,1.58-1.8,1.27-4.24,1.26-4.35Z"/><path d="m4.81,4.45c-.05.17-.07.34-.1.52.69.45,1.43,1.11,1.91,2.1.39.8.5,1.61.49,2.33.72-.38,2.19-1.34,2.74-3.19.71-2.4-.61-4.63-.67-4.73l-.43-.71-.78.29c-.1.04-2.43.94-3.16,3.39Z"/><path d="m16.9,9.4c-.01-.72.1-1.53.49-2.33.48-.99,1.22-1.65,1.91-2.1-.03-.17-.05-.34-.1-.52-.73-2.44-3.06-3.35-3.16-3.39l-.78-.29-.43.71c-.06.09-1.38,2.33-.67,4.73.55,1.85,2.02,2.82,2.74,3.19Z"/></g><path d="m3.13,18.96c.47.25.95.39,1.42.47.36-.39,1.78-1.75,3.7-1.89-.22-.79-.88-2.51-2.56-3.4-2.18-1.16-4.54-.12-4.64-.07l-.71.32.13.76c.02.11.48,2.65,2.66,3.81Z"/><path d="m19.46,19.43c.47-.08.94-.22,1.42-.47,2.18-1.16,2.64-3.71,2.66-3.81l.13-.76-.71-.32c-.1-.04-2.46-1.09-4.64.07-1.68.9-2.34,2.61-2.56,3.4,1.92.13,3.34,1.49,3.7,1.89Z"/><path d="m5.31,10.36c.55.58.89,1.24,1.09,1.87l.22-.47c.04-.1,1.09-2.43,0-4.69-1.09-2.26-3.57-2.89-3.67-2.92l-.8-.2-.34.75c-.04.09-.88,2-.24,4.04.88.04,2.53.31,3.75,1.61Z"/><path d="m17.6,12.23c.21-.63.54-1.29,1.09-1.87,1.22-1.3,2.87-1.57,3.75-1.61.64-2.04-.2-3.95-.24-4.04l-.34-.75-.8.2c-.1.03-2.58.65-3.67,2.92-1.09,2.27-.05,4.59,0,4.69l.22.47Z"/></svg>