<svg xmlns="http://www.w3.org/2000/svg" width="24" height="24" viewBox="0 0 24 24"><g opacity="0.4"><path d="m12,1C5.93,1,1,4.81,1,9.5s4.93,8.5,11,8.5c.05,0,.1,0,.15,0,.22-.46.35-.97.35-1.49s-.13-1.04-.35-1.51c-.05,0-.1,0-.15,0-4.34,0-8-2.52-8-5.5s3.66-5.5,8-5.5,8,2.52,8,5.5c0,2.21-2.01,4.16-4.81,5.02.2.63.31,1.3.31,1.98,0,.37-.04.72-.1,1.08,4.4-1.11,7.6-4.31,7.6-8.08,0-4.69-4.93-8.5-11-8.5Z"/></g><path d="m6.93,13.7c1.35-.97,3.35-.87,4.55.33.66.66,1.02,1.54,1.02,2.48s-.36,1.81-1.02,2.48c-.66.66-1.54,1.02-2.48,1.02v3c1.74,0,3.37-.68,4.6-1.9s1.9-2.86,1.9-4.6-.68-3.37-1.9-4.6-2.86-1.9-4.6-1.9c-1.61,0-3.13.59-4.33,1.66.51.79,1.29,1.49,2.26,2.04Z"/></svg>