<svg xmlns="http://www.w3.org/2000/svg" width="24" height="24" viewBox="0 0 24 24"><g opacity="0.4"><path d="m9.53,18.01c-.97.97-2.56.97-3.54,0-.97-.97-.97-2.56,0-3.54l2.83-2.83-2.12-2.12-2.83,2.83c-2.14,2.14-2.14,5.63,0,7.78,1.07,1.07,2.48,1.61,3.89,1.61,1.41,0,2.82-.54,3.89-1.61l2.83-2.83-2.12-2.12-2.83,2.83Z"/><path d="m12.35,3.87l-2.83,2.83,2.12,2.12,2.83-2.83c.97-.97,2.56-.98,3.54,0,.97.97.97,2.56,0,3.54l-2.83,2.83,2.12,2.12,2.83-2.83c2.14-2.14,2.14-5.63,0-7.78-2.14-2.14-5.63-2.14-7.78,0Z"/></g><path d="M7.25 2H8.75V6H7.25z"/><path d="M2 7.25H6V8.75H2z"/><path d="M15.25 18H16.75V22H15.25z"/><path d="M18 15.25H22V16.75H18z"/></svg>