<svg xmlns="http://www.w3.org/2000/svg" width="24" height="24" viewBox="0 0 24 24"><g opacity="0.4"><path class="st0" d="M.4 18.3 6.4 12.3 12.4 6.4 15 9 17.6 11.6 11.7 17.6 5.7 23.6 3 21z"/><path class="st0" d="M23.6 5.6 23.5 5.8 23.6 5.7z"/></g><path class="st0" d="M23.6 5.6 21 3 18.3.4 15.3 3.4 12.4 6.4 15 9 17.6 11.6 20.6 8.7 23.5 5.8 23.6 5.7z"/><path class="st0" d="M10.5 4 11.5 3.3 12.5 4 12.2 2.8 13 2.1 12 2 11.5 1 11 2 10 2.1 10.8 2.8z"/><path class="st0" d="M21.3 14.7 20.5 13 19.7 14.7 18 14.9 19.4 16.1 18.8 18 20.5 16.9 22.2 18 21.6 16.1 23 14.9z"/><path class="st0" d="M3.8 8 5.5 6.9 7.2 8 6.6 6.1 8 4.9 6.3 4.7 5.5 3 4.7 4.7 3 4.9 4.4 6.1z"/></svg>