<svg xmlns="http://www.w3.org/2000/svg" width="24" height="24" viewBox="0 0 24 24"><g opacity="0.4"><path d="m12,2C5.93,2,1,6.04,1,11c0,2.7,1.48,5.24,4,6.94v5.86l5.79-3.86c.42.04.82.06,1.21.06,6.07,0,11-4.04,11-9S18.07,2,12,2Zm3.77,9.23l-3.77,3.7-3.77-3.7s-.04-.04-.07-.07c-.92-.95-.89-2.47.07-3.39.97-.96,2.54-.96,3.51,0l.25.25.25-.25c.97-.96,2.54-.96,3.51,0,.02.02.04.04.07.07.92.95.89,2.47-.07,3.39Z"/></g><path d="m12.25,7.78l-.25.25-.25-.25c-.97-.96-2.54-.96-3.51,0-.95.92-.98,2.43-.07,3.39.02.02.04.04.07.07l3.77,3.7,3.77-3.7c.95-.92.98-2.43.07-3.39-.02-.02-.04-.04-.07-.07-.97-.96-2.54-.96-3.51,0Z"/></svg>