<svg xmlns="http://www.w3.org/2000/svg" width="24" height="24" viewBox="0 0 24 24"><g opacity="0.4"><path d="m11.54,14.47c-.74,0-1.49-.3-1.97-.89-.37-.46-.56-1-.56-1.58s.19-1.13.56-1.58c.49-.59,1.24-.9,1.98-.89.31-.68.74-1.31,1.28-1.83.27-.27.57-.51.89-.72-.69-.31-1.43-.48-2.21-.48-1.18,0-2.3.38-3.24,1.06-.69-.36-1.45-.56-2.26-.56-2.76,0-5,2.24-5,5s2.24,5,5,5c.81,0,1.57-.21,2.26-.56.93.68,2.06,1.06,3.24,1.06.77,0,1.52-.17,2.21-.48-.32-.21-.62-.46-.9-.73-.54-.52-.96-1.14-1.27-1.82Zm-5.45-1.5c.02.11.06.21.08.32.05.21.1.41.17.61,0,.02.01.04.02.06-.12.02-.24.03-.37.03-1.1,0-2-.9-2-2s.9-2,2-2c.12,0,.25.01.37.03,0,.02,0,.04-.02.06-.08.2-.13.42-.18.63-.02.1-.06.2-.08.31-.06.32-.09.64-.09.97s.03.65.09.97Z"/></g><path d="m17,6c-1.59,0-3.08.61-4.18,1.7-1.16,1.11-1.82,2.68-1.82,4.3s.66,3.19,1.81,4.29c1.12,1.1,2.61,1.71,4.19,1.71,3.31,0,6-2.69,6-6s-2.69-6-6-6Z"/></svg>