<svg xmlns="http://www.w3.org/2000/svg" width="24" height="24" viewBox="0 0 24 24"><g opacity="0.4"><path d="m17.07,2h-1.8l4.67,7h-3.2l-4.67-7h-1.8l4.67,7h-3.2L7.07,2h-1.8l4.67,7h-3.2L2.07,2h-1.07v1.1l3.93,5.9H1v13h22v-13h-1.27l-4.67-7Zm-7.07,17v-7l6,3.5-6,3.5Z"/></g><path d="M17.07 2 21.73 9 23 9 23 2 17.07 2z"/><path d="M19.93 9 15.27 2 12.07 2 16.73 9 19.93 9z"/><path d="M9.93 9 5.27 2 2.07 2 6.73 9 9.93 9z"/><path d="M1 3.1 1 9 4.93 9 1 3.1z"/><path d="M14.93 9 10.27 2 7.07 2 11.73 9 14.93 9z"/><path d="M10 19 16 15.5 10 12 10 19z"/></svg>