<svg xmlns="http://www.w3.org/2000/svg" width="24" height="24" viewBox="0 0 24 24"><g opacity="0.4"><path d="m1,20h5v4.03l7.38-4.03h9.62V2H1v18Zm12.5-3h-3v-3h3v3Zm-4.33-11.08c1.51-1.51,4.14-1.51,5.66,0,.76.76,1.17,1.76,1.17,2.83s-.42,2.07-1.17,2.83c-.39.39-.84.68-1.33.88v.29h-3v-3h1.5c.27,0,.52-.1.71-.29.19-.19.29-.44.29-.71s-.1-.52-.29-.71c-.38-.38-1.04-.38-1.41,0-.19.19-.29.44-.29.71h-3c0-1.07.42-2.07,1.17-2.83Z"/></g><path d="m13.5,12.46c.49-.2.94-.5,1.33-.88.76-.76,1.17-1.76,1.17-2.83s-.42-2.07-1.17-2.83c-1.51-1.51-4.14-1.51-5.66,0-.76.76-1.17,1.76-1.17,2.83h3c0-.27.1-.52.29-.71.38-.38,1.04-.38,1.41,0,.19.19.29.44.29.71s-.1.52-.29.71c-.19.19-.44.29-.71.29h-1.5v3h3v-.29Z"/><path d="M10.5 14H13.5V17H10.5z"/></svg>