<svg xmlns="http://www.w3.org/2000/svg" width="24" height="24" viewBox="0 0 24 24"><g opacity="0.4"><path d="m12,2C5.93,2,1,6.04,1,11c0,2.7,1.48,5.24,4,6.94v5.86l5.79-3.86c.42.04.82.06,1.21.06,6.07,0,11-4.04,11-9S18.07,2,12,2Zm4.56,11.44l-2.12,2.12-2.44-2.44-2.44,2.44-2.12-2.12,2.44-2.44-2.44-2.44,2.12-2.12,2.44,2.44,2.44-2.44,2.12,2.12-2.44,2.44,2.44,2.44Z"/></g><path d="M9.56 15.56 12 13.12 14.44 15.56 16.56 13.44 14.12 11 16.56 8.56 14.44 6.44 12 8.88 9.56 6.44 7.44 8.56 9.88 11 7.44 13.44 9.56 15.56z"/></svg>