<svg xmlns="http://www.w3.org/2000/svg" width="24" height="24" viewBox="0 0 24 24"><g opacity="0.4"><path d="m1,20h5v4.03l7.38-4.03h9.62V2H1v18Zm7.23-12.22c.97-.96,2.54-.96,3.51,0l.25.25.25-.25c.97-.96,2.54-.96,3.51,0,.02.02.04.04.07.07.92.95.89,2.47-.07,3.39l-3.77,3.7-3.77-3.7s-.04-.04-.07-.07c-.92-.95-.89-2.47.07-3.39Z"/></g><path d="m12.25,7.78l-.25.25-.25-.25c-.97-.96-2.54-.96-3.51,0-.95.92-.98,2.43-.07,3.39.02.02.04.04.07.07l3.77,3.7,3.77-3.7c.95-.92.98-2.43.07-3.39-.02-.02-.04-.04-.07-.07-.97-.96-2.54-.96-3.51,0Z"/></svg>