<svg xmlns="http://www.w3.org/2000/svg" width="24" height="24" viewBox="0 0 24 24"><g opacity="0.4"><path d="m8.46,18.82c.5.11,1.01.18,1.54.18h11v-3h-10.28l-2.26,2.82Z"/><path d="m6.3,13.5h2.58l2.4-3h-4.98c.6-1.46,2.03-2.5,3.7-2.5h3.28l2.4-3h-5.68c-3.86,0-7,3.14-7,7,0,2.23,1.05,4.21,2.68,5.5l1.88-2.35c-.55-.43-.99-.99-1.26-1.65Z"/><path d="M12.72 13.5 21 13.5 21 10.5 15.12 10.5 12.72 13.5z"/><path d="M17.12 8 21 8 21 5 19.52 5 17.12 8z"/></g><path d="M5.17 22.94 13.17 12.94 21.17 2.94 20 2 18.83 1.06 10.83 11.06 2.83 21.06 4 22 5.17 22.94z"/></svg>