<svg xmlns="http://www.w3.org/2000/svg" width="24" height="24" viewBox="0 0 24 24"><g opacity="0.4"><path d="m2,9h20V2H2v7Zm15-5c.83,0,1.5.67,1.5,1.5s-.67,1.5-1.5,1.5-1.5-.67-1.5-1.5.67-1.5,1.5-1.5Zm-5,0c.83,0,1.5.67,1.5,1.5s-.67,1.5-1.5,1.5-1.5-.67-1.5-1.5.67-1.5,1.5-1.5Zm-5,0c.83,0,1.5.67,1.5,1.5s-.67,1.5-1.5,1.5-1.5-.67-1.5-1.5.67-1.5,1.5-1.5Z"/></g><path d="M7 4A1.5 1.5 0 1 0 7 7 1.5 1.5 0 1 0 7 4z"/><path d="M17 4A1.5 1.5 0 1 0 17 7 1.5 1.5 0 1 0 17 4z"/><path d="M12 4A1.5 1.5 0 1 0 12 7 1.5 1.5 0 1 0 12 4z"/><path d="m2,9v13h20v-13H2Zm15,6H7v-3h10v3Z"/></svg>