<svg xmlns="http://www.w3.org/2000/svg" width="24" height="24" viewBox="0 0 24 24"><g opacity="0.4"><path d="M4.5 6A2.5 2.5 0 1 0 4.5 11 2.5 2.5 0 1 0 4.5 6z"/><path d="M19.5 6A2.5 2.5 0 1 0 19.5 11 2.5 2.5 0 1 0 19.5 6z"/><path d="m20.5,12h-1.96c-.84,0-1.62.42-2.08,1.11l-3.26,4.89h-2.39l-3.26-4.89c-.46-.7-1.24-1.11-2.08-1.11h-1.96c-1.38,0-2.5,1.12-2.5,2.5v6.5h6v-3.3l2.2,3.3h5.61l2.2-3.3v3.3h6v-6.5c0-1.38-1.12-2.5-2.5-2.5Z"/></g><path d="M12 3A2.5 2.5 0 1 0 12 8 2.5 2.5 0 1 0 12 3z"/><path d="m9,11.73c.07.09.14.18.21.28l2.66,4h.25l2.66-4c.06-.1.14-.18.21-.28v-.73c0-1.1-.9-2-2-2h-2c-1.1,0-2,.9-2,2v.73Z"/></svg>