<svg xmlns="http://www.w3.org/2000/svg" width="24" height="24" viewBox="0 0 24 24"><g opacity="0.4"><path d="m8.86,10h6.27l-1.43,13h1.51l1.43-13h4.71l-.3,1.39c.58-.74.94-1.67.94-2.7,0-1.73-.99-3.25-2.46-3.93-.64-1.57-2.13-2.63-3.82-2.63-.28,0-.56.03-.83.09-.76-.77-1.79-1.22-2.88-1.22s-2.12.45-2.88,1.22c-.27-.06-.55-.09-.83-.09-1.7,0-3.19,1.06-3.82,2.63-1.47.68-2.46,2.21-2.46,3.93,0,1.03.36,1.96.94,2.7l-.3-1.39h4.71l1.43,13h1.51l-1.43-13Z"/></g><path d="M10.3 23 13.7 23 15.14 10 8.86 10 10.3 23z"/><path d="M15.21 23 18.57 23 21.36 10 16.64 10 15.21 23z"/><path d="M2.64 10 5.43 23 8.79 23 7.36 10 2.64 10z"/></svg>