<svg xmlns="http://www.w3.org/2000/svg" width="24" height="24" viewBox="0 0 24 24"><g opacity="0.4"><path d="m16.09,12.63l-2.61,2.82c-.79-.48-1.9-1.24-2.8-2.13-.89-.9-1.65-2.01-2.13-2.8l2.82-2.61L6.36.4,1.04,4.08l-.03.75c-.03.77-.16,7.63,5.18,12.98,4.83,4.83,10.92,5.19,12.6,5.19.18,0,.31,0,.38,0l.75-.03,3.69-5.32-7.52-5.01Z"/></g><path d="m16,2.5c1.47,0,2.85.57,3.89,1.61,2.14,2.14,2.14,5.63,0,7.78l1.06,1.06c1.32-1.32,2.05-3.08,2.05-4.95s-.73-3.63-2.05-4.95-3.08-2.05-4.95-2.05-3.63.73-4.95,2.05l1.06,1.06c1.04-1.04,2.42-1.61,3.89-1.61Z"/><path d="m18.47,10.47c1.36-1.36,1.36-3.58,0-4.95-1.32-1.32-3.63-1.32-4.95,0l1.06,1.06c.76-.76,2.07-.76,2.83,0s.78,2.05,0,2.83l1.06,1.06Z"/></svg>