<svg xmlns="http://www.w3.org/2000/svg" width="24" height="24" viewBox="0 0 24 24"><g opacity="0.4"><path d="m3,1v22h19V1H3Zm13.62,16.5c-.1,0-3.93.19-6.87-2.75-2.94-2.94-2.75-6.78-2.75-6.87l2-1.38,2,3-1.59,1.47s.71,1.39,1.72,2.4c1.01,1.01,2.4,1.72,2.4,1.72l1.47-1.6,3,2-1.38,2Z"/></g><path d="M1 11.25H3V12.75H1z"/><path d="M1 7H3V8.5H1z"/><path d="M1 15.5H3V17H1z"/><path d="m16.62,17.5l1.38-2-3-2-1.47,1.6s-1.4-.71-2.4-1.72c-1.01-1.01-1.72-2.4-1.72-2.4l1.59-1.47-2-3-2,1.38c0,.08-.19,3.93,2.75,6.87,2.93,2.93,6.77,2.75,6.87,2.75Z"/></svg>