<svg xmlns="http://www.w3.org/2000/svg" width="24" height="24" viewBox="0 0 24 24"><g opacity="0.4"><path d="m6,21c2.21,0,4-1.79,4-4,0-.86-.29-1.72-.8-2.4-.76-1.01-1.93-1.6-3.2-1.6s-2.43.58-3.2,1.6c-.52.69-.8,1.54-.8,2.4,0,2.21,1.79,4,4,4Z"/><path d="m18,21c2.21,0,4-1.79,4-4,0-.86-.29-1.72-.8-2.4-.76-1.01-1.93-1.6-3.2-1.6s-2.43.58-3.2,1.6c-.52.69-.8,1.54-.8,2.4,0,2.21,1.79,4,4,4Z"/><path d="M18.61 6 16 6 16 9.5 20.52 9.5 18.61 6z"/></g><path d="m20.39,3h-7.39v5H0v9h2c0-.86.29-1.72.8-2.4.76-1.01,1.93-1.6,3.2-1.6s2.43.58,3.2,1.6c.52.69.8,1.54.8,2.4h4c0-.86.29-1.72.8-2.4.76-1.01,1.93-1.6,3.2-1.6s2.43.58,3.2,1.6c.52.69.8,1.54.8,2.4h2v-7.38l-3.61-6.62Zm-4.39,6.5v-3.5h2.61l1.91,3.5h-4.52Z"/></svg>