<svg xmlns="http://www.w3.org/2000/svg" width="24" height="24" viewBox="0 0 24 24"><g opacity="0.4"><path d="m5.7,5.04L.3,23.7l18.66-5.4c-.36-7.17-6.09-12.9-13.26-13.26Zm1.3,13.46c-.83,0-1.5-.67-1.5-1.5s.67-1.5,1.5-1.5,1.5.67,1.5,1.5-.67,1.5-1.5,1.5Zm2-7c-.83,0-1.5-.67-1.5-1.5s.67-1.5,1.5-1.5,1.5.67,1.5,1.5-.67,1.5-1.5,1.5Zm4,6c-1.38,0-2.5-1.12-2.5-2.5s1.12-2.5,2.5-2.5,2.5,1.12,2.5,2.5-1.12,2.5-2.5,2.5Z"/></g><path d="m8,1h-1.13l-1.17,4.04c7.17.36,12.9,6.09,13.26,13.26l4.04-1.17v-1.13c0-8.27-6.73-15-15-15Z"/><path d="M7 15.5A1.5 1.5 0 1 0 7 18.5 1.5 1.5 0 1 0 7 15.5z"/><path d="M13 12.5A2.5 2.5 0 1 0 13 17.5 2.5 2.5 0 1 0 13 12.5z"/><path d="M9 8.5A1.5 1.5 0 1 0 9 11.5 1.5 1.5 0 1 0 9 8.5z"/></svg>