<svg xmlns="http://www.w3.org/2000/svg" width="24" height="24" viewBox="0 0 24 24"><g opacity="0.4"><path d="m5.75,5.5h-3.75v3.75c2.07,0,3.75-1.68,3.75-3.75Z"/><path d="M2 1H22V4H2z"/><path d="m16.75,5.5H7.25c0,2.9-2.36,5.25-5.25,5.25v12.25h7l3-13,3,13h7v-12.25c-2.89,0-5.25-2.35-5.25-5.25Z"/><path d="m22,9.25v-3.75h-3.75c0,2.07,1.68,3.75,3.75,3.75Z"/></g><path d="m22,4H2v1.5h3.75c0,2.07-1.68,3.75-3.75,3.75v1.5c2.89,0,5.25-2.35,5.25-5.25h9.5c0,2.9,2.36,5.25,5.25,5.25v-1.5c-2.07,0-3.75-1.68-3.75-3.75h3.75v-1.5Z"/></svg>