<svg xmlns="http://www.w3.org/2000/svg" width="24" height="24" viewBox="0 0 24 24"><g opacity="0.4"><path d="m1,12c0,1.84.46,3.58,1.27,5.11l8.23-5.88V1.11C5.14,1.85,1,6.44,1,12Z"/><path d="m13.5,1.11v10.11l8.23,5.88c.81-1.53,1.27-3.26,1.27-5.11,0-5.56-4.14-10.15-9.5-10.89Z"/><path d="m13.5,22.89c2.54-.35,4.8-1.56,6.48-3.34l-6.48-4.63v7.97Z"/><path d="m10.5,22.89v-7.97l-6.48,4.63c1.68,1.78,3.94,2.99,6.48,3.34Z"/></g><path d="m13.5,14.92l6.48,4.63c.69-.73,1.28-1.54,1.75-2.44l-8.23-5.88V1.11c-.49-.07-.99-.11-1.5-.11s-1.01.05-1.5.11v10.11l-8.23,5.88c.47.89,1.06,1.71,1.75,2.44l6.48-4.63v7.97c.49.07.99.11,1.5.11s1.01-.05,1.5-.11v-7.97Z"/></svg>