<svg xmlns="http://www.w3.org/2000/svg" width="24" height="24" viewBox="0 0 24 24"><g opacity="0.4"><path class="st0" d="M14.2 7.2 16.1 5.3 18 3.4 20.8 6.2 23.6 9 21.7 10.9 19.8 12.8 17 10z"/><path class="st0" d="M18.8 13.8 13.2 8.2 5 16.4 5 22 10.6 22z"/></g><path class="st0" d="M6 1 4.5 4.3 1 6 4.5 7.5 6 11 7.5 7.5 11 6 7.5 4.5z"/><path class="st0" d="M20 17 19.1 19 17 20 19.1 20.9 20 23 20.9 20.9 23 20 20.9 19.1z"/><path class="st0" d="M13.2 8.2 13.7 7.7 14.2 7.2 17 10 19.8 12.8 19.3 13.3 18.8 13.8 16 11z"/></svg>