<svg xmlns="http://www.w3.org/2000/svg" width="24" height="24" viewBox="0 0 24 24"><g opacity="0.4"><path d="m20.72,5.4l-6.25,6.25c.02.11.04.23.04.34,0,1.35-1.15,2.5-2.5,2.5s-2.5-1.15-2.5-2.5,1.15-2.5,2.5-2.5c.12,0,.23.02.34.04l1.94-1.94c-.7-.37-1.48-.59-2.29-.59-1.31,0-2.56.53-3.52,1.48s-1.48,2.21-1.48,3.52.53,2.56,1.48,3.52,2.21,1.48,3.52,1.48,2.56-.53,3.52-1.48l2.12,2.12c-1.52,1.52-3.52,2.36-5.64,2.36s-4.12-.84-5.64-2.36c-1.52-1.52-2.36-3.52-2.36-5.64s.84-4.12,2.36-5.64c1.52-1.52,3.52-2.36,5.64-2.36,1.61,0,3.16.49,4.48,1.4l2.12-2.12c-1.85-1.42-4.14-2.28-6.6-2.28C6.04,1,1,6.04,1,12s5.04,11,11,11,11-5.04,11-11c0-2.45-.86-4.74-2.28-6.6Z"/></g><path d="m12,20c2.12,0,4.12-.84,5.64-2.36l-2.12-2.12c-.96.96-2.21,1.48-3.52,1.48s-2.56-.53-3.52-1.48-1.48-2.21-1.48-3.52.53-2.56,1.48-3.52,2.2-1.48,3.52-1.48c.81,0,1.58.22,2.29.59l-1.94,1.94c-.11-.02-.23-.04-.34-.04-1.35,0-2.5,1.15-2.5,2.5s1.15,2.5,2.5,2.5,2.5-1.15,2.5-2.5c0-.12-.02-.23-.04-.34l6.25-6.25c-.61-.8-1.32-1.51-2.12-2.12l-2.12,2.12c-1.32-.91-2.87-1.4-4.48-1.4-2.12,0-4.12.84-5.64,2.36-1.52,1.52-2.36,3.53-2.36,5.64s.84,4.12,2.36,5.64c1.52,1.52,3.52,2.36,5.64,2.36Z"/></svg>