<svg xmlns="http://www.w3.org/2000/svg" width="24" height="24" viewBox="0 0 24 24"><g opacity="0.4"><path d="m19.78,4.22c-1.01-1.01-2.18-1.8-3.5-2.36-2.71-1.15-5.85-1.15-8.57,0-1.31.56-2.49,1.35-3.5,2.36-.17.17-.32.35-.48.52L1,2v7h7l-2.13-2.13c.15-.18.31-.36.48-.52.73-.73,1.59-1.31,2.54-1.71,1.97-.83,4.26-.83,6.23,0,.95.4,1.81.98,2.54,1.72.73.73,1.31,1.59,1.71,2.54.42.99.63,2.03.63,3.11h3c0-1.48-.29-2.92-.87-4.28-.56-1.31-1.35-2.49-2.36-3.5Z"/></g><path d="m18.13,17.13c-.15.18-.31.36-.48.52-.73.73-1.59,1.31-2.54,1.71-1.97.83-4.26.83-6.23,0-.95-.4-1.81-.98-2.54-1.72-.73-.73-1.31-1.59-1.71-2.54-.42-.99-.63-2.03-.63-3.11H1c0,1.48.29,2.92.87,4.28.56,1.31,1.35,2.49,2.36,3.5s2.18,1.8,3.5,2.36c1.36.57,2.8.86,4.28.86s2.92-.29,4.28-.87c1.31-.56,2.49-1.35,3.5-2.36.17-.17.32-.35.48-.52l2.75,2.75v-7h-7l2.13,2.13Z"/></svg>