<svg xmlns="http://www.w3.org/2000/svg" width="24" height="24" viewBox="0 0 24 24"><g opacity="0.4"><path d="M18.75 6 18.75 7.75 18.75 11.75 17.25 11.75 17.25 7.75 17.25 6 14.75 6 14.75 10.75 13.25 10.75 13.25 6 10.75 6 10.75 7.75 10.75 11.75 9.25 11.75 9.25 7.75 9.25 6 6.75 6 6.75 10.75 5.25 10.75 5.25 6 0 6 0 18 24 18 24 6 18.75 6z"/></g><path d="M18.75 7.75 18.75 6 17.25 6 17.25 7.75 17.25 11.75 18.75 11.75 18.75 7.75z"/><path d="M10.75 7.75 10.75 6 9.25 6 9.25 7.75 9.25 11.75 10.75 11.75 10.75 7.75z"/><path d="M13.25 6H14.75V10.75H13.25z"/><path d="M5.25 6H6.75V10.75H5.25z"/></svg>