<svg xmlns="http://www.w3.org/2000/svg" width="24" height="24" viewBox="0 0 24 24"><g opacity="0.4"><path d="M5.77 13 18.23 13 19.63 6 4.37 6 5.77 13z"/></g><path d="m11.33,18.66c-.51,1.01-1.08,2.16-1.08,4.34h1.5c0-1.82.45-2.72.92-3.66.51-1.01,1.08-2.16,1.08-4.34h-1.5c0,1.82-.45,2.72-.92,3.66Z"/><path d="m7.83,18.66c-.51,1.01-1.08,2.16-1.08,4.34h1.5c0-1.82.45-2.72.92-3.66.51-1.01,1.08-2.16,1.08-4.34h-1.5c0,1.82-.45,2.72-.92,3.66Z"/><path d="m16.17,19.34c.51-1.01,1.08-2.16,1.08-4.34h-1.5c0,1.82-.45,2.72-.92,3.66-.51,1.01-1.08,2.16-1.08,4.34h1.5c0-1.82.45-2.72.92-3.66Z"/><path d="M1 1H23V6H1z"/></svg>