<svg xmlns="http://www.w3.org/2000/svg" width="24" height="24" viewBox="0 0 24 24"><g opacity="0.4"><path d="m12,1C5.93,1,1,5.93,1,12s4.93,11,11,11,11-4.93,11-11S18.07,1,12,1Zm-6,9c0-1.1.9-2,2-2s2,.9,2,2-.9,2-2,2-2-.9-2-2Zm6,8c-1.66,0-3-1.12-3-2.5s1.34-2.5,3-2.5,3,1.12,3,2.5-1.34,2.5-3,2.5Zm4-6c-1.1,0-2-.9-2-2s.9-2,2-2,2,.9,2,2-.9,2-2,2Z"/></g><path d="M8 8A2 2 0 1 0 8 12 2 2 0 1 0 8 8z"/><path d="M12 13A3 2.5 0 1 0 12 18 3 2.5 0 1 0 12 13z"/><path d="M16 8A2 2 0 1 0 16 12 2 2 0 1 0 16 8z"/></svg>