<svg xmlns="http://www.w3.org/2000/svg" width="24" height="24" viewBox="0 0 24 24"><g opacity="0.4"><path d="m7.4,7.4c-1.23,1.23-1.9,2.86-1.9,4.6s.68,3.37,1.9,4.6l2.12-2.12c-.66-.66-1.03-1.54-1.03-2.47s.36-1.81,1.03-2.47l-2.12-2.12Z"/><path d="m14.47,9.53c.66.66,1.03,1.54,1.03,2.47s-.36,1.81-1.03,2.47l2.12,2.12c1.23-1.23,1.9-2.86,1.9-4.6s-.68-3.37-1.9-4.6l-2.12,2.12Z"/></g><path d="m12,10c-1.1,0-2,.9-2,2,0,1.1.89,2,2,2s2-.9,2-2-.9-2-2-2Z"/><path d="m6.34,6.34l-2.12-2.12C-.07,8.51-.07,15.49,4.22,19.78l2.12-2.12c-3.12-3.12-3.12-8.19,0-11.31Z"/><path d="m19.78,4.22l-2.12,2.12c3.12,3.12,3.12,8.19,0,11.31l2.12,2.12c4.29-4.29,4.29-11.27,0-15.56Z"/></svg>