<svg xmlns="http://www.w3.org/2000/svg" width="24" height="24" viewBox="0 0 24 24"><g opacity="0.4"><path d="m12,15h10.57c.18-.65.31-1.31.38-2h-10.95v2Z"/><path d="m12,19h8.48c.51-.61.94-1.29,1.31-2h-9.79v2Z"/><path d="m12,9v2h10.95c-.06-.69-.19-1.35-.38-2h-10.57Z"/><path d="m12,23c2.35,0,4.52-.74,6.3-2h-6.3v2Z"/><path d="m12,3h6.3c-1.79-1.26-3.96-2-6.3-2v2Z"/><path d="m12,7h9.79c-.37-.71-.8-1.39-1.31-2h-8.48v2Z"/></g><path d="m22.95,11h-10.95v-2h10.57c-.2-.7-.46-1.37-.79-2h-9.79v-2h8.48c-.63-.76-1.36-1.43-2.17-2h-6.3V1C5.93,1,1,5.93,1,12s4.93,11,11,11v-2h6.3c.81-.57,1.54-1.24,2.17-2h-8.48v-2h9.79c.33-.63.59-1.3.79-2h-10.57v-2h10.95c.03-.33.05-.66.05-1s-.02-.67-.05-1Z"/></svg>