<svg xmlns="http://www.w3.org/2000/svg" width="24" height="24" viewBox="0 0 24 24"><g opacity="0.4"><path d="m22.43,6.09c-.02-.65.17-1.74-.83-2.46-1.7-1.02-3.02,1.15-3.76,2.2-1.84,2.68-3.4,5.7-5.86,7.83-1.24,1.28-2.81,1.36-4.13.76.62-.51,1.24-1.02,1.82-1.5,1.76-1.55,6.29-4.89,3.2-7.33-1.42-.82-2.94-.61-4.43-.47-2.41.21-5.32,1.74-5.46,4.49-.02,1.43.54,2.81,1.45,3.94-.43.43-.85.86-1.23,1.31-.63.84-1.14,1.3-1.23,2.63,0,0,2.58,0,2.58,0,.58-.67,1.34-1.37,2.15-2.08,1.33.7,2.84.94,4.27.45,3.37-1.59,5.71-4.62,8.09-7.43-.49,1.55-1.24,3.02-1.89,4.58-.35.99-.72,1.88-.16,3.13,1.13,1.87,3.25,1.64,5.01,1.64v-2.58c-.63-.04-1.25-.09-1.78-.2-.23-.05-.44-.11-.58-.17,0-.01,0-.02,0-.03,1.08-2.76,2.79-5.56,2.79-8.72Zm-17.3,3.79c.35-1.65,2.98-1.98,5.25-1.86-1.39,1.54-3.11,2.91-4.73,4.37-.43-.76-.64-1.63-.52-2.51Zm14.39,4.91c-.06-.04-.04-.05,0,0h0Z"/></g><path d="M2 19.25H22V20.75H2z"/></svg>