<svg xmlns="http://www.w3.org/2000/svg" width="24" height="24" viewBox="0 0 24 24"><g opacity="0.4"><path d="M2 9 5 9 5 5 9 5 9 2 2 2 2 9z"/><path d="M5 15 2 15 2 22 9 22 9 19 5 19 5 15z"/><path d="M19 19 15 19 15 22 22 22 22 15 19 15 19 19z"/><path d="M15 2 15 5 19 5 19 9 22 9 22 2 15 2z"/></g><path d="M8.5 8A1.5 1.5 0 1 0 8.5 11 1.5 1.5 0 1 0 8.5 8z"/><path d="m15.5,11c.83,0,1.5-.67,1.5-1.5s-.67-1.5-1.5-1.5-1.5.67-1.5,1.5.67,1.5,1.5,1.5Z"/><path d="m16.06,15.07c.26-.26.5-.55.7-.85l-1.24-.84c-.15.23-.33.44-.52.63-.19.19-.4.37-.63.52-.23.15-.47.29-.72.39-.26.11-.53.19-.8.25-.56.11-1.15.11-1.71,0-.27-.06-.54-.14-.8-.25-.25-.11-.49-.24-.72-.39-.23-.15-.44-.33-.63-.52s-.37-.4-.52-.63l-1.24.84c.21.3.44.59.7.85.26.26.54.5.85.7.31.21.64.39.98.53.35.15.71.26,1.08.34.38.08.77.12,1.16.12s.78-.04,1.16-.12c.37-.08.73-.19,1.08-.34.34-.14.67-.32.98-.53.31-.21.59-.44.85-.7Z"/></svg>