<svg xmlns="http://www.w3.org/2000/svg" width="24" height="24" viewBox="0 0 24 24"><g opacity="0.4"><path d="m19.29,12.49c-.62.51-.96.8-1.79.8s-1.17-.28-1.79-.8c-.76-.63-1.79-1.49-3.71-1.49s-2.95.86-3.71,1.49c-.62.51-.96.8-1.79.8s-1.17-.28-1.79-.8c-.75-.63-1.79-1.49-3.71-1.49v3c.83,0,1.17.28,1.79.8.75.63,1.79,1.49,3.71,1.49s2.95-.86,3.71-1.49c.62-.51.96-.8,1.79-.8s1.18.28,1.79.8c.76.63,1.79,1.49,3.71,1.49s2.95-.86,3.71-1.49c.62-.51.96-.8,1.79-.8v-3c-1.92,0-2.95.86-3.71,1.49Z"/><path d="m17.5,19c-.83,0-1.17-.28-1.79-.8-.76-.63-1.79-1.49-3.71-1.49s-2.95.86-3.71,1.49c-.62.51-.96.8-1.79.8s-1.17-.28-1.79-.8c-.75-.63-1.79-1.49-3.71-1.49v3c.83,0,1.17.28,1.79.8.75.63,1.79,1.49,3.71,1.49s2.95-.86,3.71-1.49c.62-.51.96-.8,1.79-.8s1.18.28,1.79.8c.76.63,1.79,1.49,3.71,1.49s2.95-.86,3.71-1.49c.62-.51.96-.8,1.79-.8v-3c-1.92,0-2.95.86-3.71,1.49-.62.51-.96.8-1.79.8Z"/></g><path d="m19.5,7c1.38,0,2.5-1.12,2.5-2.5s-1.12-2.5-2.5-2.5-2.5,1.12-2.5,2.5,1.12,2.5,2.5,2.5Z"/><path d="m11.05,5.17l1.68,1.68-2.21,2.37c.42-.13.89-.22,1.47-.22,1.74,0,2.66.76,3.39,1.37.64.53,1.1.91,2.11.91s1.48-.38,2.11-.91c.15-.13.32-.26.49-.39L10.95.83l-6.06,6.66,2.22,2.02,3.94-4.34Z"/></svg>