<svg xmlns="http://www.w3.org/2000/svg" width="24" height="24" viewBox="0 0 24 24"><g opacity="0.4"><path d="M10.97 5.91 14.53 9.47 13.47 10.53 9.91 6.97 7.97 8.91 11.53 12.47 10.47 13.53 6.91 9.97 3 13.88 3 20 4 21 10.12 21 20 11.12 12.88 4 10.97 5.91z"/></g><path d="M10.47 13.53 11 13 11.53 12.47 9.75 10.69 7.97 8.91 7.44 9.44 6.91 9.97 8.69 11.75 10.47 13.53z"/><path d="M13.47 10.53 14 10 14.53 9.47 12.75 7.69 10.97 5.91 10.44 6.44 9.91 6.97 11.69 8.75 13.47 10.53z"/><path d="M4.03 21 4 21 3.5 20.5 3 20 3 19.97 3 19.94 1.73 21.2.47 22.47 1 23 1.53 23.53 2.8 22.27 4.06 21 4.03 21z"/><path d="M19.09 5.97 20 5.06 21.47 6.53 22.53 5.47 18.53 1.47 17.47 2.53 18.94 4 18.03 4.91 13.56.44 11.44 2.56 21.44 12.56 23.56 10.44 19.09 5.97z"/></svg>