<svg xmlns="http://www.w3.org/2000/svg" width="24" height="24" viewBox="0 0 24 24"><g opacity="0.4"><path d="m4,4.5c0-.54.13-1.04.35-1.5H1v3h3.35c-.22-.46-.35-.96-.35-1.5Z"/><path d="m1,18v3h3.35c-.22-.46-.35-.96-.35-1.5s.13-1.04.35-1.5H1Z"/><path d="m20,12c0,.54-.13,1.04-.35,1.5h3.35v-3h-3.35c.22.46.35.96.35,1.5Z"/><path d="m11,4.5c0,.54-.13,1.04-.35,1.5h12.35v-3h-12.35c.22.46.35.96.35,1.5Z"/><path d="m11,19.5c0,.54-.13,1.04-.35,1.5h12.35v-3h-12.35c.22.46.35.96.35,1.5Z"/><path d="m13,12c0-.54.13-1.04.35-1.5H1v3h12.35c-.22-.46-.35-.96-.35-1.5Z"/></g><path d="M7.5 1A3.5 3.5 0 1 0 7.5 8 3.5 3.5 0 1 0 7.5 1z"/><path d="M7.5 16A3.5 3.5 0 1 0 7.5 23 3.5 3.5 0 1 0 7.5 16z"/><path d="M16.5 8.5A3.5 3.5 0 1 0 16.5 15.5 3.5 3.5 0 1 0 16.5 8.5z"/></svg>