<svg xmlns="http://www.w3.org/2000/svg" width="24" height="24" viewBox="0 0 24 24"><g opacity="0.4"><path d="m20,10.5c0-5.24-4.26-9.5-9.5-9.5S1,5.26,1,10.5s4.26,9.5,9.5,9.5c2.08,0,4-.68,5.56-1.82l4.94,4.94,2.12-2.12-4.94-4.94c1.14-1.57,1.82-3.48,1.82-5.56Zm-4.44,2.94l-2.12,2.12-2.94-2.94-2.94,2.94-2.12-2.12,2.94-2.94-2.94-2.94,2.12-2.12,2.94,2.94,2.94-2.94,2.12,2.12-2.94,2.94,2.94,2.94Z"/></g><path d="M13.44 5.44 10.5 8.38 7.56 5.44 5.44 7.56 8.38 10.5 5.44 13.44 7.56 15.56 10.5 12.62 13.44 15.56 15.56 13.44 12.62 10.5 15.56 7.56 13.44 5.44z"/></svg>