<svg xmlns="http://www.w3.org/2000/svg" width="24" height="24" viewBox="0 0 24 24"><g opacity="0.4"><path d="m19,3h-5.5V1h-3v2h-5.5v6.5l-3.38.99,1.96,6.37c.24.18.45.37.63.53.51.46.69.61,1.19.61s.68-.15,1.19-.61c.61-.55,1.53-1.39,3.21-1.39s2.6.84,3.21,1.39c.51.46.69.61,1.19.61s.68-.15,1.19-.61c.61-.55,1.53-1.39,3.21-1.39.81,0,1.44.2,1.95.46l1.84-5.97-3.38-.99V3Zm-7,4.44l-4,1.18v-2.61h8v2.61l-4-1.18Z"/></g><path d="m21.81,19.39c-.61-.55-1.53-1.39-3.21-1.39s-2.6.84-3.21,1.39c-.51.46-.7.61-1.19.61s-.68-.15-1.19-.61c-.61-.55-1.53-1.39-3.21-1.39s-2.6.84-3.21,1.39c-.51.46-.69.61-1.19.61s-.68-.15-1.19-.61c-.61-.55-1.53-1.39-3.21-1.39v3c.5,0,.68.15,1.19.61.61.55,1.53,1.39,3.21,1.39s2.6-.84,3.21-1.39c.51-.46.69-.61,1.19-.61s.68.15,1.19.61c.61.55,1.53,1.39,3.21,1.39s2.6-.84,3.21-1.39c.51-.46.7-.61,1.19-.61s.68.15,1.2.61c.61.55,1.53,1.39,3.21,1.39v-3c-.5,0-.68-.15-1.19-.61Z"/><path d="M16 8.61 16 6 8 6 8 8.61 12 7.44 16 8.61z"/></svg>