<svg xmlns="http://www.w3.org/2000/svg" width="24" height="24" viewBox="0 0 24 24"><g opacity="0.4"><path d="m12,7c-4.09,0-11,.95-11,4.5v7.5c0,2.72,4.66,3.59,8,3.87v-3.87h6v3.87c3.34-.28,8-1.15,8-3.87v-7.5c0-3.55-6.91-4.5-11-4.5Zm0,3c4.34,0,7.01.93,7.82,1.5-.81.57-3.48,1.5-7.82,1.5s-7.01-.93-7.82-1.5c.81-.57,3.48-1.5,7.82-1.5Z"/></g><path d="m6,5.4l3.5-1.4-5-2v6.08c.48-.16.98-.31,1.5-.43v-2.25Z"/><path d="m12.75,7.01v-2.64l3.25-1.37-4.75-2v6.01c.26,0,.51-.01.75-.01s.49,0,.75.01Z"/><path d="m19.5,5.4l3.5-1.4-5-2v5.65c.52.12,1.02.27,1.5.43v-2.68Z"/><path d="m19.82,11.5c-.81-.57-3.48-1.5-7.82-1.5s-7.01.93-7.82,1.5c.81.57,3.48,1.5,7.82,1.5s7.01-.93,7.82-1.5Z"/></svg>