<svg xmlns="http://www.w3.org/2000/svg" width="24" height="24" viewBox="0 0 24 24"><g opacity="0.4"><path d="m12,1C5.93,1,1,5.93,1,12s4.93,11,11,11,11-4.93,11-11S18.07,1,12,1Zm-6,9c0-1.1.9-2,2-2s2,.9,2,2-.9,2-2,2-2-.9-2-2Zm2,7s1-3,4-3,4,3,4,3h-8Zm10-7s-.01.09-.01.13c-.07,1-.86,1.78-1.85,1.85-.05,0-.09.01-.13.01h0c-1.06,0-1.92-.82-1.99-1.87,0-.05-.01-.09-.01-.13h0c0-1.1.9-2,2-2h0s.09.01.13.01c1.04.07,1.87.93,1.87,1.99h0Z"/></g><path d="M8 8A2 2 0 1 0 8 12 2 2 0 1 0 8 8z"/><path d="m12,14c-3,0-4,3-4,3h8s-1-3-4-3Z"/><path d="m16,12s.09-.01.13-.01c1-.07,1.78-.86,1.85-1.85,0-.05.01-.09.01-.13h0c0-1.06-.82-1.92-1.87-1.99-.05,0-.09-.01-.13-.01h0c-1.1,0-2,.9-2,2h0s.01.09.01.13c.07,1.04.93,1.87,1.99,1.87h0Z"/></svg>