<svg xmlns="http://www.w3.org/2000/svg" width="24" height="24" viewBox="0 0 24 24"><g opacity="0.4"><path d="M3 21H7V23H3z"/><path d="M17 21H21V23H17z"/><path d="M1 11 1.82 11 2 10.65 2 7 1 7 1 11z"/><path d="M22 10.65 22.18 11 23 11 23 7 22 7 22 10.65z"/><path d="M5 6H11.25V11H5z"/><path d="M12.75 6H19V11H12.75z"/></g><path d="m22.63,11.91l-.63-1.26v-6.15c0-1.93-1.57-3.5-3.5-3.5H5.5c-1.93,0-3.5,1.57-3.5,3.5v6.15l-.63,1.26c-.24.48-.37,1.02-.37,1.56v7.53h22v-7.53c0-.54-.13-1.08-.37-1.57Zm-16.63,6.09c-1.1,0-2-.9-2-2s.9-2,2-2,2,.9,2,2-.9,2-2,2Zm5.25-7h-6.25v-5h6.25v5Zm1.5-5h6.25v5h-6.25v-5Zm5.25,12c-1.1,0-2-.9-2-2s.9-2,2-2,2,.9,2,2-.9,2-2,2Z"/></svg>