<svg xmlns="http://www.w3.org/2000/svg" width="24" height="24" viewBox="0 0 24 24"><g opacity="0.4"><path d="M1 16.25H6.88V22H1z"/><path d="M1 2H6.88V7.75H1z"/><path d="M8.38 9.25H15.63V14.75H8.38z"/><path d="M8.38 2H15.63V7.75H8.38z"/><path d="M1 9.25H6.88V14.75H1z"/><path d="M8.38 16.25H15.63V22H8.38z"/><path d="M17.12 2H23V7.75H17.12z"/><path d="M17.12 9.25H23V14.75H17.12z"/><path d="M17.12 16.25H23V22H17.12z"/></g><path d="m17.12,2h-1.5v5.75h-7.25V2h-1.5v5.75H1v1.5h5.88v5.5H1v1.5h5.88v5.75h1.5v-5.75h7.25v5.75h1.5v-5.75h5.88v-1.5h-5.88v-5.5h5.88v-1.5h-5.88V2Zm-1.5,12.75h-7.25v-5.5h7.25v5.5Z"/></svg>