<svg xmlns="http://www.w3.org/2000/svg" width="24" height="24" viewBox="0 0 24 24"><g opacity="0.4"><path d="M14 15 10 15 10 11.75 6.5 11.75 6.5 21 17.5 21 17.5 11.75 14 11.75 14 15z"/><path d="M6.5 3H17.5V10.25H6.5z"/><path d="m19,3.21v7.04h4v-1.75c0-2.51-1.7-4.63-4-5.29Z"/><path d="M1 11.75H5V21H1z"/><path d="m1,8.5v1.75h4V3.21c-2.3.66-4,2.77-4,5.29Z"/><path d="M19 11.75H23V21H19z"/></g><path d="m19,10.25V3.21c-.19-.05-.88-.21-1.5-.21v7.25H6.5V3c-.62,0-1.31.16-1.5.21v7.04H1v1.5h4v9.25h1.5v-9.25h3.5v3.25h4v-3.25h3.5v9.25h1.5v-9.25h4v-1.5h-4Z"/><path d="m5,3.21h0c-.07.02-.06.02,0,0Z"/><path d="m19,3.21h0c.06.02.07.02,0,0Z"/></svg>