<svg xmlns="http://www.w3.org/2000/svg" width="24" height="24" viewBox="0 0 24 24"><g opacity="0.4"><path d="m1,5v12h22V5H1Zm4.98,9h-1.68l3-6h1.68l-3,6Zm5.36,0h-1.68l3-6h1.68l-3,6Zm5.36,0h-1.68l3-6h1.68l-3,6Z"/></g><path d="M5.5 2H8.5V5H5.5z"/><path d="M15.5 2H18.5V5H15.5z"/><path d="M5.5 17H8.5V22H5.5z"/><path d="M15.5 17H18.5V22H15.5z"/><path d="M14.34 8 12.66 8 9.66 14 11.34 14 14.34 8z"/><path d="M19.7 8 18.02 8 15.02 14 16.7 14 19.7 8z"/><path d="M8.98 8 7.3 8 4.3 14 5.98 14 8.98 8z"/></svg>