<svg xmlns="http://www.w3.org/2000/svg" width="24" height="24" viewBox="0 0 24 24"><g opacity="0.4"><path d="m8.25,4.25c-2.96,2.96-3.93,7.04-2.74,10.21.13.72.11,1.37-.15,2.05L.44,21.44l.37.37,1.39,1.39.37.37,4.93-4.93c.66-.25,1.29-.28,1.99-.16.89.35,1.86.52,2.86.52,2.54,0,5.26-1.11,7.4-3.24,3.81-3.81,4.34-9.49,1.17-12.66C17.75-.09,12.07.44,8.25,4.25Zm9.37,9.37c-2.64,2.64-6.42,3.17-8.42,1.17-2-2-1.47-5.78,1.17-8.42,1.56-1.56,3.52-2.38,5.27-2.38,1.21,0,2.33.4,3.15,1.21,2,2,1.47,5.78-1.17,8.42Z"/></g><path d="M20.5 18A2.5 2.5 0 1 0 20.5 23 2.5 2.5 0 1 0 20.5 18z"/><path d="m8.04,12.31l.96-.96,1.65,1.65-1.61,1.61c.06.06.11.13.16.19.06.06.13.11.19.16l1.61-1.61,1.65,1.65-.96.96c.22.03.44.04.67.04l.65-.65.53.53c.19-.04.38-.08.57-.14l-.75-.75,1.65-1.65,1.33,1.33c.14-.09.28-.19.41-.3l-1.39-1.39,1.65-1.65,1.39,1.39c.1-.14.2-.27.3-.41l-1.33-1.33,1.65-1.65.75.75c.05-.19.1-.38.14-.57l-.53-.53.65-.65c0-.23-.01-.45-.04-.67l-.96.96-1.65-1.65,1.61-1.61c-.06-.06-.11-.13-.16-.19-.06-.06-.13-.1-.2-.16l-1.6,1.6-1.65-1.65.95-.95c-.21-.03-.43-.05-.65-.05l-.65.65-.53-.53c-.19.04-.38.09-.57.14l.74.74-1.65,1.65-1.34-1.34c-.14.09-.27.2-.41.3l1.39,1.39-1.65,1.65-1.39-1.39c-.1.14-.2.27-.3.41l1.33,1.33-1.65,1.65-.75-.75c-.05.19-.1.38-.14.57l.53.53-.65.65c0,.23.01.45.04.67Zm4.96,2.33l-1.65-1.65,1.65-1.65,1.65,1.65-1.65,1.65Zm2-2l-1.65-1.65,1.65-1.65,1.65,1.65-1.65,1.65Zm3.65-3.65l-1.65,1.65-1.65-1.65,1.65-1.65,1.65,1.65Zm-3.65-3.65l1.65,1.65-1.65,1.65-1.65-1.65,1.65-1.65Zm-2,2l1.65,1.65-1.65,1.65-1.65-1.65,1.65-1.65Zm-2,2l1.65,1.65-1.65,1.65-1.65-1.65,1.65-1.65Z"/></svg>