<svg xmlns="http://www.w3.org/2000/svg" width="24" height="24" viewBox="0 0 24 24"><g opacity="0.4"><path d="M8.38 2H15.63V9H8.38z"/><path d="M2.5 2 1 2 1 9 6.88 9 6.88 2 4 2 2.5 2z"/><path d="M20 2 17.12 2 17.12 9 23 9 23 2 21.5 2 20 2z"/><path d="M8.38 15H15.63V22H8.38z"/><path d="M1 22 2.5 22 4 22 6.88 22 6.88 15 1 15 1 22z"/><path d="M17.12 22 20 22 21.5 22 23 22 23 15 17.12 15 17.12 22z"/></g><path d="M19 11.25H23V12.75H19z"/><path d="M13 11.25H17V12.75H13z"/><path d="M7 11.25H11V12.75H7z"/><path d="M1 11.25H5V12.75H1z"/><path d="M6.88 2H8.379999999999999V9H6.88z"/><path d="M15.62 2H17.119999999999997V9H15.62z"/><path d="M6.88 15H8.379999999999999V22H6.88z"/><path d="M15.62 15H17.119999999999997V22H15.62z"/></svg>