<svg xmlns="http://www.w3.org/2000/svg" width="24" height="24" viewBox="0 0 24 24"><g opacity="0.4"><path d="M4 1 4 5 10.09 5 6 8.54 6 10.53 12.38 5 20 5 20 1 4 1z"/><path d="M18 5.87 6 16.27 6 18.26 18 7.86 18 5.87z"/><path d="M18 15.33 18 13.34 11.47 19 4 19 4 23 20 23 20 19 13.76 19 18 15.33z"/></g><path d="M18 19 18 15.33 13.76 19 18 19z"/><path d="M6 8.54 10.09 5 6 5 6 8.54z"/><path d="M6 10.53 6 16.27 18 5.87 18 5 12.38 5 6 10.53z"/><path d="M6 19 11.47 19 18 13.34 18 7.86 6 18.26 6 19z"/></svg>