<svg xmlns="http://www.w3.org/2000/svg" width="24" height="24" viewBox="0 0 24 24"><g opacity="0.4"><path d="m1,2v20h22V2H1Zm6,17.12l-3.56-3.56,2.12-2.12,1.44,1.44,2.44-2.44,2.12,2.12-4.56,4.56Zm0-8l-3.56-3.56,2.12-2.12,1.44,1.44,2.44-2.44,2.12,2.12-4.56,4.56Zm13,5.88h-6v-3h6v3Zm0-7h-6v-3h6v3Z"/></g><path d="M14 7H20V10H14z"/><path d="M14 14H20V17H14z"/><path d="M11.56 14.56 9.44 12.44 7 14.88 5.56 13.44 3.44 15.56 7 19.12 11.56 14.56z"/><path d="M11.56 6.56 9.44 4.44 7 6.88 5.56 5.44 3.44 7.56 7 11.12 11.56 6.56z"/></svg>