<svg xmlns="http://www.w3.org/2000/svg" width="24" height="24" viewBox="0 0 24 24"><g opacity="0.4"><path d="m13.5,6h-5.5v3h5.5c.83,0,1.5.67,1.5,1.5s-.67,1.5-1.5,1.5h-7c-3.03,0-5.5,2.47-5.5,5.5s2.47,5.5,5.5,5.5h9.5v-3H6.5c-1.38,0-2.5-1.12-2.5-2.5s1.12-2.5,2.5-2.5h7c2.48,0,4.5-2.02,4.5-4.5s-2.02-4.5-4.5-4.5Z"/></g><path d="m4,9s3-1.81,3-5c0-1.65-1.35-3-3-3s-3,1.35-3,3c0,3.19,3,5,3,5Zm0-6.5c.83,0,1.5.67,1.5,1.5s-.67,1.5-1.5,1.5-1.5-.67-1.5-1.5.67-1.5,1.5-1.5Z"/><path d="m20,15c-1.65,0-3,1.35-3,3,0,3.19,3,5,3,5,0,0,3-1.81,3-5,0-1.65-1.35-3-3-3Zm0,4.5c-.83,0-1.5-.67-1.5-1.5s.67-1.5,1.5-1.5,1.5.67,1.5,1.5-.67,1.5-1.5,1.5Z"/></svg>