<svg xmlns="http://www.w3.org/2000/svg" width="24" height="24" viewBox="0 0 24 24"><g opacity="0.4"><path d="M1 2H6.88V7.75H1z"/><path d="M1 9.25H6.88V14.75H1z"/><path d="M1 16.25H6.88V22H1z"/><path d="M8.38 2H23V7.75H8.38z"/><path d="M8.38 16.25H23V22H8.38z"/><path d="M8.38 9.25H23V14.75H8.38z"/></g><path d="M23 9.25 23 7.75 8.38 7.75 8.38 2 6.88 2 6.88 7.75 1 7.75 1 9.25 6.88 9.25 6.88 14.75 1 14.75 1 16.25 6.88 16.25 6.88 22 8.38 22 8.38 16.25 23 16.25 23 14.75 8.38 14.75 8.38 9.25 23 9.25z"/></svg>