<svg xmlns="http://www.w3.org/2000/svg" width="24" height="24" viewBox="0 0 24 24"><g opacity="0.4"><path d="m21.5,9v1.75c0,.69-.56,1.25-1.25,1.25H3.75c-.69,0-1.25-.56-1.25-1.25v-1.75h-1.5v1.75c0,.85.39,1.6,1,2.1v10.15h7v-7h6v7h7v-10.15c.61-.5,1-1.26,1-2.1v-1.75h-1.5Z"/></g><path d="m19.21,12l-1.52-8.1c.64-.5,1.06-1.28,1.06-2.15v-.75h-1.5v.75c0,.69-.56,1.25-1.25,1.25h-1.25V1h-1.5v2h-2.5V1h-1.5v2h-1.25c-.69,0-1.25-.56-1.25-1.25v-.75h-1.5v.75c0,.88.42,1.65,1.06,2.15l-1.52,8.1h14.43Z"/><path d="M9 16H15V23H9z"/></svg>