<svg xmlns="http://www.w3.org/2000/svg" width="24" height="24" viewBox="0 0 24 24"><g opacity="0.4"><path d="m12,1s-.08,0-.12,0c.24.79.37,1.63.37,2.49,0,4.82-3.92,8.75-8.75,8.75-.87,0-1.7-.13-2.49-.37,0,.04,0,.08,0,.12,0,6.07,4.93,11,11,11,.04,0,.08,0,.12,0-.24-.79-.37-1.63-.37-2.49,0-4.82,3.92-8.75,8.75-8.75.87,0,1.7.13,2.49.37,0-.04,0-.08,0-.12,0-6.07-4.93-11-11-11Z"/><path d="m13.25,20.5c0,.83.15,1.62.4,2.36,4.74-.72,8.49-4.47,9.21-9.21-.74-.26-1.53-.4-2.36-.4-4,0-7.25,3.25-7.25,7.25Z"/><path d="m1.14,10.35c.74.26,1.53.4,2.36.4,4,0,7.25-3.25,7.25-7.25,0-.83-.15-1.62-.4-2.36C5.61,1.86,1.86,5.61,1.14,10.35Z"/></g><path d="m12.25,3.5c0-.87-.13-1.7-.37-2.49-.52,0-1.03.06-1.54.13.26.74.4,1.53.4,2.36,0,4-3.25,7.25-7.25,7.25-.83,0-1.62-.15-2.36-.4-.08.5-.13,1.01-.13,1.54.79.24,1.63.37,2.49.37,4.83,0,8.75-3.93,8.75-8.75Z"/><path d="m12.12,22.99c.52,0,1.03-.06,1.54-.13-.26-.74-.4-1.53-.4-2.36,0-4,3.25-7.25,7.25-7.25.83,0,1.62.15,2.36.4.08-.5.13-1.01.13-1.54-.79-.24-1.63-.37-2.49-.37-4.83,0-8.75,3.93-8.75,8.75,0,.87.13,1.7.37,2.49Z"/></svg>