<svg xmlns="http://www.w3.org/2000/svg" width="24" height="24" viewBox="0 0 24 24"><g opacity="0.4"><path d="M1 19 1 20.5 1 22 9 22 9 15.75 1 15.75 1 19z"/><path d="M1 8H9V14.25H1z"/><path d="M15 22 23 22 23 20.5 23 19 23 15.75 15 15.75 15 22z"/><path d="M15 8H23V14.25H15z"/></g><path d="M11.25 1H12.75V5H11.25z"/><path d="M11.25 7H12.75V11H11.25z"/><path d="M11.25 13H12.75V17H11.25z"/><path d="M11.25 19H12.75V23H11.25z"/><path d="M15 14.25H23V15.75H15z"/><path d="M1 14.25H9V15.75H1z"/><path d="M1 3.5 1 5 1 8 9 8 9 2 1 2 1 3.5z"/><path d="M15 8 23 8 23 5 23 3.5 23 2 15 2 15 8z"/></svg>