<svg xmlns="http://www.w3.org/2000/svg" width="24" height="24" viewBox="0 0 24 24"><g opacity="0.4"><path d="M1 6 1 18 6.58 18 15 23.18 15 16.06 4.94 6 1 6z"/><path d="M15 13.94 15 .82 6.88 5.82 15 13.94z"/><path d="m17,7.54v8.4l.26.26c1.07-1.08,1.74-2.56,1.74-4.2,0-1.77-.78-3.36-2-4.46Z"/><path d="m17,2.84v2.24c2.39,1.39,4,3.96,4,6.92,0,2.19-.89,4.17-2.32,5.62l1.41,1.41c1.79-1.81,2.91-4.29,2.91-7.03,0-4.09-2.47-7.61-6-9.16Z"/><path d="m17,18.92v2.24c.7-.31,1.35-.69,1.96-1.14l-1.44-1.44c-.17.12-.33.24-.51.34Z"/></g><path d="M12.53 11.47 1.53.47 1 1 .47 1.53 11.47 12.53 22.47 23.53 23 23 23.53 22.47 12.53 11.47z"/></svg>