<svg xmlns="http://www.w3.org/2000/svg" width="24" height="24" viewBox="0 0 24 24"><g opacity="0.4"><path d="m12,17c-1.1,0-2,.9-2,2,0,1.1.89,2,2,2s2-.9,2-2-.9-2-2-2Z"/><path d="m17.13,16.07l.88-.88c-1.12-1.12-2.5-1.88-4-2.24l3.12,3.12Z"/><path d="m5.99,15.19l2.12,2.12c1.04-1.04,2.42-1.61,3.89-1.61s2.85.57,3.89,1.61l.18-.18-4.41-4.41c-2.14.08-4.14.95-5.67,2.47Z"/><path d="m9.85,8.79l2.84,2.84c2.28.16,4.39,1.12,6.02,2.75l2.12-2.12c-2.36-2.36-5.5-3.66-8.84-3.66-.73,0-1.44.07-2.15.19Z"/><path d="m8.15,9.21c-1.86.6-3.57,1.63-4.99,3.05l2.12,2.12c1.47-1.47,3.34-2.39,5.36-2.68l-2.5-2.5Z"/><path d="m12,4.5c-1.9,0-3.75.34-5.49.95l2.41,2.41c1-.23,2.03-.36,3.08-.36,3.61,0,7,1.4,9.55,3.95l2.12-2.12c-3.12-3.12-7.26-4.83-11.67-4.83Z"/><path d="m5.01,6.07c-1.71.8-3.3,1.89-4.67,3.27l2.12,2.12c1.39-1.39,3.05-2.43,4.84-3.1l-2.29-2.29Z"/></g><path d="M22.47 23.53 23 23 23.53 22.47 12.53 11.47 1.53.47 1 1 .47 1.53 11.47 12.53 22.47 23.53z"/></svg>