<svg xmlns="http://www.w3.org/2000/svg" width="24" height="24" viewBox="0 0 24 24"><g opacity="0.4"><path class="st0" d="M12,1C5.9,1,1,5.9,1,12s4.9,11,11,11s11-4.9,11-11S18.1,1,12,1z M8,7c1.1,0,2,0.9,2,2s-0.9,2-2,2s-2-0.9-2-2
	S6.9,7,8,7z M15.8,16.7v1c0,2.1-1.7,3.8-3.8,3.8s-3.8-1.7-3.8-3.8v-1C6.4,15.2,6,13,6,13h12C18,13,17.5,15.2,15.8,16.7z M13,11
	c0,0,0.6-2.5,3-2.5s3,2.5,3,2.5H13z"/></g><path class="st0" d="M8 7A2 2 0 1 0 8 11 2 2 0 1 0 8 7z"/><path class="st0" d="M8.2,16.7v1c0,2.1,1.7,3.8,3.8,3.8s3.8-1.7,3.8-3.8v-1C17.5,15.2,18,13,18,13H6C6,13,6.4,15.2,8.2,16.7z"/><path class="st0" d="M16,8.5c-2.4,0-3,2.5-3,2.5h6C19,11,18.4,8.5,16,8.5z"/></svg>