<svg xmlns="http://www.w3.org/2000/svg" width="24" height="24" viewBox="0 0 24 24"><g opacity="0.4"><path d="M8.17 13 11.3 13 11.91 11 8.77 11 8.17 13z"/><path d="M6.1 11 3 11 3.51 13 6.61 13 6.1 11z"/><path d="M15.23 11 12.09 11 12.7 13 15.83 13 15.23 11z"/><path d="M18.67 8 21.77 8 22.79 4 19.7 4 18.67 8z"/><path d="M4.3 4 1.21 4 2.23 8 5.33 8 4.3 4z"/><path d="M15.11 21 18.44 21 19.72 16 13.6 16 15.11 21z"/><path d="M5.56 21 8.89 21 10.4 16 4.28 16 5.56 21z"/><path d="M13.11 4 10.89 4 9.68 8 14.32 8 13.11 4z"/><path d="M17.39 13 20.49 13 21 11 17.9 11 17.39 13z"/></g><path d="M1 8H23V11H1z"/><path d="M1 13H23V16H1z"/></svg>