<svg xmlns="http://www.w3.org/2000/svg" width="24" height="24" viewBox="0 0 24 24"><g opacity="0.4"><path d="m20,17.5c0-.83-.67-1.5-1.5-1.5h-9.21l-1.64,2.77h0c-.11.17-.23.35-.38.5-.95.95-2.59.95-3.54,0-.47-.47-.73-1.1-.73-1.77,0-.45.13-.89.35-1.27h0s.69-1.18.69-1.18l-1.35-2.27c-.42.25-.78.52-1.08.83-1.04,1.04-1.61,2.42-1.61,3.89s.57,2.85,1.61,3.89c1.04,1.04,2.42,1.61,3.89,1.61s2.85-.57,3.89-1.61c.67-.67,1.15-1.49,1.41-2.39h7.71c.83,0,1.5-.67,1.5-1.5Z"/><path d="m18.5,12c-.47,0-.94.06-1.4.19l-3.81-6.45h0c-.26-.44-.74-.74-1.29-.74-.83,0-1.5.67-1.5,1.5,0,.28.08.54.21.76h0s1.24,2.09,1.24,2.09h0l.05.09,3.28,5.55h3.22c1.38,0,2.5,1.12,2.5,2.5s-1.12,2.5-2.5,2.5h-1.36l-1.26,2.32c.83.45,1.71.68,2.62.68,3.03,0,5.5-2.47,5.5-5.5s-2.47-5.5-5.5-5.5Z"/></g><path d="m5.5,19c.55,0,1.03-.3,1.29-.74h0s4.63-7.83,4.63-7.83l-1.56-2.66c-.23-.38-.36-.81-.36-1.27,0-.67.26-1.29.73-1.77.95-.95,2.59-.95,3.54,0,.15.15.27.32.37.5l.71,1.17,2.64-.09c-.05-1.41-.61-2.72-1.6-3.71-1.04-1.04-2.42-1.61-3.89-1.61s-2.85.57-3.89,1.61c-1.04,1.04-1.61,2.42-1.61,3.89s.54,2.77,1.52,3.79l-3.81,6.45h0c-.13.23-.21.48-.21.76,0,.83.67,1.5,1.5,1.5Z"/></svg>