<svg xmlns="http://www.w3.org/2000/svg" width="24" height="24" viewBox="0 0 24 24"><g opacity="0.4"><path d="m20.28,7.14c0-.9-.1-1.8-.29-2.67-.52-.55-1.1-1.05-1.72-1.49-.36,8.28-7.02,14.94-15.3,15.3.44.63.94,1.2,1.49,1.72.88.18,1.77.29,2.67.29,7.25,0,13.14-5.89,13.14-13.14Z"/><path d="m1.42,9.01c-.27.95-.42,1.95-.42,2.99,0,1.72.41,3.35,1.12,4.8.05,0,.11,0,.16,0,2.57,0,4.98-.68,7.07-1.85-1.79-2.98-4.62-5.09-7.93-5.95Z"/><path d="m21.78,7.14c0,8.07-6.57,14.64-14.64,14.64-.06,0-.11,0-.17,0,1.51.78,3.22,1.23,5.03,1.23,6.07,0,11-4.93,11-11,0-1.81-.45-3.52-1.23-5.03,0,.06,0,.11,0,.17Z"/><path d="m4.03,4.44c-.87.92-1.59,1.98-2.1,3.15,3.62.97,6.71,3.31,8.69,6.57,1.69-1.19,3.12-2.74,4.17-4.53-2.7-3.21-6.59-5.08-10.76-5.19Z"/><path d="m16.81,2.28c0-.05,0-.11,0-.16-1.45-.71-3.08-1.12-4.8-1.12-2.37,0-4.57.76-6.37,2.05,3.8.47,7.29,2.29,9.89,5.17.82-1.81,1.28-3.82,1.28-5.93Z"/></g><path d="m9.35,14.96c-2.1,1.17-4.51,1.85-7.07,1.85-.05,0-.1,0-.15,0,.25.51.53,1.01.85,1.47,8.28-.36,14.93-7.01,15.29-15.29-.46-.32-.96-.6-1.47-.85,0,.05,0,.1,0,.15,0,2.11-.46,4.12-1.28,5.93-2.59-2.86-6.07-4.68-9.85-5.16-.59.41-1.14.87-1.64,1.38,4.17.11,8.06,1.98,10.75,5.19-1.06,1.79-2.48,3.34-4.17,4.53-1.97-3.26-5.06-5.59-8.68-6.57-.2.46-.37.93-.51,1.42,3.3.86,6.13,2.97,7.92,5.94Z"/><path d="m7.14,20.28c-.9,0-1.78-.1-2.66-.28.75.7,1.58,1.3,2.5,1.78.05,0,.1,0,.15,0,8.07,0,14.64-6.57,14.64-14.64,0-.05,0-.1,0-.15-.47-.92-1.08-1.76-1.78-2.5.18.87.28,1.76.28,2.66,0,7.25-5.89,13.14-13.14,13.14Z"/><path d="m17.53,21.5c-1.63.95-3.51,1.5-5.53,1.5h11v-1.5h-5.47Z"/></svg>