<svg xmlns="http://www.w3.org/2000/svg" viewBox="0 0 24 24" width="24" height="24"><path class="b" d="m18.89,5.66c-.24-.14-.55-.06-.68.18-.33.58-.87.99-1.52,1.17-.65.17-1.32.08-1.9-.25l-3.46-2c-.12-.07-.25-.08-.38-.05-.13.04-.24.12-.3.23l-2,3.46c-.14.24-.06.54.18.68l3.46,2c.58.33.99.87,1.17,1.52.17.64.08,1.32-.25,1.9-.07.11-.08.25-.05.38.04.13.12.24.23.3.64.37,1.3.53,1.96.53,1.87,0,3.69-1.31,4.69-3.04.68-1.18.99-2.57.85-3.81-.15-1.41-.87-2.55-2-3.2Z"/><path class="b" d="m7.42,10.52l-3.78,6.54c-.14.24-.06.54.18.68l2.6,1.5c.08.04.16.07.25.07.04,0,.09,0,.13-.02.13-.04.24-.12.3-.23l3.75-6.5-3.03-1.75c-.15-.09-.28-.18-.41-.29Z"/></svg>