<svg xmlns="http://www.w3.org/2000/svg" viewBox="0 0 24 24" width="24" height="24"><path d="m12,3c-2.4,0-4.66.94-6.36,2.64-1.7,1.7-2.64,3.96-2.64,6.36s.94,4.67,2.64,6.36c1.7,1.7,3.96,2.64,6.36,2.64v-1c-2.14,0-4.15-.83-5.66-2.34-1.51-1.51-2.34-3.52-2.34-5.66s.83-4.15,2.34-5.66c1.51-1.51,3.52-2.34,5.66-2.34s4.15.83,5.66,2.34c1.51,1.51,2.34,3.52,2.34,5.66h1c0-2.4-.94-4.67-2.64-6.36-1.7-1.7-3.96-2.64-6.36-2.64Z"/><path d="M10 10 10 16 12.65 13.35 12.81 13.51 17.65 18.35 18.35 17.65 13.51 12.81 13.35 12.65 16 10 10 10z"/></svg>