<svg xmlns="http://www.w3.org/2000/svg" viewBox="0 0 24 24" width="24" height="24"><path d="M20.59 6.35 20.94 6 21.29 5.65 19.79 4.15 18.28 2.65 17.93 3 17.58 3.35 19.08 4.85 20.59 6.35z"/><path d="m21,13c0-4.88-4.12-9-9-9-2.01,0-3.89.71-5.41,1.88l-1.41-1.41,1.11-1.11-.35-.35-.35-.35-1.11,1.11-1.11-1.11-.71.71,1.12,1.12.71.71,1.36,1.36,5.68,5.68,1.29,1.29,5.68,5.68,2.18,2.18.71-.71-2.23-2.23c1.17-1.52,1.88-3.4,1.88-5.41Zm-9.5-5h1v3.79l-1-1v-2.79Zm1.71,4.5h3.79v1h-2.79l-1-1Z"/><path d="m3,13c0,4.88,4.12,9,9,9,1.81,0,3.51-.57,4.94-1.53L4.53,8.06c-.96,1.43-1.53,3.13-1.53,4.94Z"/></svg>