<svg xmlns="http://www.w3.org/2000/svg" viewBox="0 0 24 24" width="24" height="24"><path d="m20.5,11h-.53c.02-.16.03-.33.03-.5,0-2.23-1.59-4.06-3.75-4.42-.6-1.83-2.29-3.08-4.25-3.08s-3.65,1.26-4.25,3.08c-2.16.35-3.75,2.19-3.75,4.42,0,.17.01.34.03.5h-.53c-.28,0-.5.22-.5.5,0,3.15,1.95,6.19,5,7.81v1.19c0,.28.22.5.5.5h7c.28,0,.5-.22.5-.5v-1.19c3.05-1.62,5-4.65,5-7.81,0-.28-.22-.5-.5-.5Zm-1.5-.5c0,.18-.01.34-.03.5h-5.99c.02-.16.03-.33.03-.5,0-.3-.04-.6-.1-.9,0-.04-.01-.09-.03-.13-.07-.28-.16-.55-.28-.81,0-.02-.01-.04-.02-.06.03-.04.05-.09.08-.13.04-.05.08-.11.12-.16.06-.08.13-.15.2-.23.04-.04.09-.09.13-.13.07-.07.15-.13.23-.19.05-.04.1-.08.15-.12.08-.06.16-.1.25-.15.06-.03.12-.07.18-.1.08-.04.17-.08.26-.11.06-.03.13-.06.19-.08.09-.03.18-.05.28-.08.06-.02.13-.04.19-.05.11-.02.22-.03.33-.04.05,0,.11-.02.16-.02.16,0,.33,0,.49,0,0,0,0,0,0,0,1.81.16,3.17,1.66,3.17,3.48Zm-7-6.5c1.38,0,2.6.8,3.17,2.01-.08,0-.16.03-.25.04-.16.02-.31.05-.46.08-.13.03-.25.06-.37.11-.14.05-.28.11-.42.17-.15.07-.3.14-.44.22-.16.09-.32.19-.46.31-.08.06-.16.13-.24.2-.14.13-.28.27-.41.41-.04.04-.08.07-.11.12-.03-.04-.07-.06-.1-.1-.14-.16-.28-.31-.44-.45-.07-.06-.13-.11-.2-.17-.19-.15-.38-.28-.59-.39-.08-.05-.17-.08-.26-.12-.16-.08-.33-.15-.51-.2-.11-.04-.23-.07-.34-.1-.16-.04-.32-.06-.48-.09-.08-.01-.16-.04-.24-.04.56-1.21,1.78-2.01,3.17-2.01Zm-3.83,3.02c.17-.01.34-.02.51,0,0,0,0,0,0,0,1,.06,1.94.55,2.56,1.33.01.02.03.03.04.05.1.13.19.27.27.42,0,0,0,0,0,0,0,0,0,0,0,0,.29.51.44,1.09.44,1.69,0,.18-.04.32-.06.48-1.14,0-4.42.01-6.9.02-.02-.16-.03-.32-.03-.5,0-1.83,1.36-3.32,3.17-3.48Z"/></svg>