<svg xmlns="http://www.w3.org/2000/svg" width="24" height="24" viewBox="0 0 24 24"><path d="M16.5 14.5c-1.32 0-1.99-.6-2.58-1.13-.55-.49-.98-.87-1.92-.87s-1.37.39-1.92.87c-.59.53-1.27 1.13-2.58 1.13s-1.99-.6-2.58-1.13c-.55-.49-.98-.87-1.92-.87v7c0 .28.22.5.5.5h17c.28 0 .5-.22.5-.5v-7c-.94 0-1.37.39-1.92.87-.59.53-1.27 1.13-2.58 1.13"/><path d="M18.5 6h-6V3h-1v3h-6A2.5 2.5 0 0 0 3 8.5v3c1.31 0 1.99.6 2.58 1.13.55.49.98.87 1.92.87s1.37-.39 1.92-.87c.59-.53 1.27-1.13 2.58-1.13s1.99.6 2.58 1.13c.55.49.98.87 1.92.87s1.37-.39 1.92-.87c.59-.53 1.27-1.13 2.58-1.13v-3A2.5 2.5 0 0 0 18.5 6"/></svg>