<svg xmlns="http://www.w3.org/2000/svg" viewBox="0 0 24 24" width="24" height="24"><path d="m14.91,4.64l6.17-.97-.15-.99L2.92,5.51l.15.99,3.11-.49c-.09.19-.16.43-.16.74,0,.61.27.94.46,1.19.16.19.24.3.24.56s-.08.37-.24.56c-.19.24-.46.58-.46,1.19,0,.32.07.56.17.75h-2.69c-.28,0-.5.22-.5.5,0,3.15,1.95,6.18,5,7.81v1.19c0,.28.22.5.5.5h7c.28,0,.5-.22.5-.5v-1.19c3.05-1.63,5-4.66,5-7.81,0-.28-.22-.5-.5-.5h-5.76c-.07-.12-.15-.22-.22-.31-.18-.23-.29-.36-.29-.69s.11-.46.29-.69c.21-.27.51-.64.51-1.31s-.29-1.04-.51-1.31c-.18-.23-.29-.36-.29-.69s.11-.46.29-.69c.13-.17.29-.38.39-.67Zm-3.59,3.29c.16.19.24.3.24.56s-.09.37-.24.56c-.19.24-.46.57-.46,1.19,0,.32.07.56.17.75h-1.2c-.05-.07-.1-.13-.14-.19-.16-.19-.24-.3-.24-.56s.09-.37.24-.56c.19-.24.46-.57.46-1.19s-.27-.94-.46-1.19c-.16-.19-.24-.3-.24-.56s.08-.37.24-.56c.15-.18.33-.42.42-.79l1.44-.23c-.03.15-.11.25-.22.39-.19.24-.46.57-.46,1.19s.27.94.46,1.19Zm-4.05,2.88c-.16-.19-.24-.3-.24-.56s.08-.37.24-.56c.19-.24.46-.58.46-1.19s-.27-.94-.46-1.19c-.16-.19-.24-.3-.24-.56s.08-.37.24-.56c.08-.11.18-.23.26-.39l1.35-.21c-.19.24-.44.57-.44,1.16s.27.94.46,1.19c.16.19.24.3.24.56s-.09.37-.24.56c-.19.24-.46.57-.46,1.19,0,.32.07.56.17.75h-1.2c-.05-.07-.1-.13-.14-.19Zm4.98.19c-.05-.07-.1-.13-.14-.19-.16-.19-.24-.3-.24-.56s.09-.37.24-.56c.19-.24.46-.57.46-1.19s-.27-.94-.46-1.19c-.16-.19-.24-.3-.24-.56s.08-.37.24-.56c.19-.24.46-.57.46-1.18l1.06-.17c-.19.26-.39.6-.39,1.15,0,.68.29,1.04.51,1.31.18.23.29.36.29.69s-.11.46-.29.69c-.21.27-.51.64-.51,1.31,0,.45.14.76.29,1h-1.27Z"/></svg>