<svg xmlns="http://www.w3.org/2000/svg" viewBox="0 0 24 24" width="24" height="24"><path d="m12,11c0,2.76,2.24,5,5,5,.44,0,.87-.07,1.28-.18l.58.87c-.59.19-1.21.31-1.86.31-3.31,0-6-2.69-6-6,0-1.96.94-3.69,2.4-4.79l-.71-1.11h0c-.89-1.32-2.36-2.1-3.93-2.1-2.62,0-4.75,2.14-4.75,4.76,0,0,0,.02,0,.02-.61.55-1,1.33-1,2.21h1.57c.64,1.19,1.78,2.09,3.16,2.4.13,1.39.8,5.45,4.27,6.5v2.1h1v-1.89c.26.03.52.05.8.05.43,0,.82-.03,1.2-.07v1.91h1v-2.07c1.71-.34,2.82-1.01,3.39-1.44l1.19,1.79.83-.55-7.47-11.65c-1.17.92-1.94,2.33-1.94,3.93Zm-4-3c-.55,0-1-.45-1-1s.45-1,1-1,1,.45,1,1-.45,1-1,1Z"/></svg>