<svg xmlns="http://www.w3.org/2000/svg" viewBox="0 0 24 24" width="24" height="24"><path d="m20,16.09v-3.09c0-.31-.02-.61-.06-.91l-3.95,1.97-4-2-4,2-3.94-1.97c-.03.3-.06.6-.06.91v3.09c-.58.21-1,.76-1,1.41v2c0,.83.67,1.5,1.5,1.5h15c.83,0,1.5-.67,1.5-1.5v-2c0-.65-.42-1.2-1-1.41Zm0,3.41c0,.28-.22.5-.5.5H4.5c-.28,0-.5-.22-.5-.5v-2c0-.28.22-.5.5-.5h15c.28,0,.5.22.5.5v2Z"/><path d="m11.99,10.94l4,2,3.76-1.88c-.71-2.84-2.94-5.09-5.78-5.81.01-.08.03-.16.03-.25,0-1.1-.9-2-2-2s-2,.9-2,2c0,.09.01.17.03.25-2.84.72-5.07,2.97-5.78,5.81l3.75,1.88,4-2Z"/></svg>