<svg xmlns="http://www.w3.org/2000/svg" viewBox="0 0 24 24" width="24" height="24"><path d="M3 13H21V14H3z"/><path d="m6.5,21h11c1.93,0,3.5-1.57,3.5-3.5v-2c0-.28-.22-.5-.5-.5h-8.5c-.12,0-.23.04-.32.12l-2.68,2.23-2.68-2.23c-.09-.07-.2-.12-.32-.12h-2.5c-.28,0-.5.22-.5.5v2c0,1.93,1.57,3.5,3.5,3.5Z"/><path d="m3.5,12h17c.28,0,.5-.22.5-.5v-2.75c0-3.17-4.04-5.75-9-5.75S3,5.58,3,8.75v2.75c0,.28.22.5.5.5Zm14-4c.28,0,.5.22.5.5s-.22.5-.5.5-.5-.22-.5-.5.22-.5.5-.5Zm-2.5-2c.55,0,1,.45,1,1s-.45,1-1,1-1-.45-1-1,.45-1,1-1Zm-2.5,1c.28,0,.5.22.5.5s-.22.5-.5.5-.5-.22-.5-.5.22-.5.5-.5Z"/></svg>