<svg xmlns="http://www.w3.org/2000/svg" width="24" height="24" viewBox="0 0 24 24"><path d="M3 12c0 .99.43 1.91 1.18 2.55q-.24.6-.24 1.23c0 1.71 1.3 3.12 3 3.31.4 1.13 1.48 1.91 2.71 1.91.71 0 1.36-.27 1.86-.7V3.46c-.39-.28-.87-.46-1.39-.46-1.13 0-2.09.79-2.33 1.89h-.03a2.86 2.86 0 0 0-2.62 4c-1.27.48-2.13 1.7-2.13 3.11ZM18.87 8.89c.15-.36.24-.74.24-1.14a2.86 2.86 0 0 0-2.86-2.86h-.02A2.39 2.39 0 0 0 13.89 3c-.52 0-1 .18-1.39.46V20.3c.5.43 1.15.7 1.86.7 1.22 0 2.3-.78 2.7-1.91 1.68-.17 3-1.59 3-3.31q0-.63-.24-1.23C20.56 13.92 21 12.99 21 12c0-1.41-.86-2.63-2.13-3.11"/></svg>