<svg xmlns="http://www.w3.org/2000/svg" viewBox="0 0 24 24" width="24" height="24"><path d="m20.99,10.65c-.03-.19-.17-.34-.36-.4l-3.56-.96.96-3.62c.05-.19-.01-.39-.16-.51-.15-.12-.36-.15-.53-.07l-3.33,1.58-1.55-3.39c-.16-.36-.75-.36-.91,0l-1.55,3.39-3.33-1.58c-.17-.08-.38-.06-.53.07-.15.12-.21.32-.16.51l.96,3.62-3.56.96c-.19.05-.33.2-.36.4-.03.19.04.38.2.5l3.03,2.14-2.12,3.07c-.11.16-.12.37-.02.54.1.17.29.27.48.25l3.66-.33.32,3.73c.02.19.14.36.33.43.19.07.39.02.53-.12l2.6-2.64,2.6,2.64c.1.1.22.15.36.15.06,0,.11,0,.17-.03.18-.07.31-.23.33-.43l.32-3.73,3.66.33c.19.02.38-.08.48-.25.1-.17.09-.38-.02-.54l-2.12-3.07,3.03-2.14c.16-.11.24-.31.2-.5Z"/></svg>