<svg xmlns="http://www.w3.org/2000/svg" width="24" height="24" viewBox="0 0 24 24"><path d="M19.47 4.53c-1.93-1.93-4.98-2.03-7.06-.35l7.4 7.4c1.68-2.07 1.58-5.12-.35-7.05ZM8.27 21c1.18 0 2.35-.42 3.32-1.2l-7.4-7.4c-1.68 2.07-1.58 5.12.35 7.05A5.29 5.29 0 0 0 8.28 21ZM4.86 11.65l7.48 7.48 6.81-6.8-7.48-7.48zM9 12.99c-.55 0-1-.45-1-1s.45-1 1-1 1 .45 1 1-.45 1-1 1m3.01 3c-.55 0-1-.45-1-1s.45-1 1-1 1 .45 1 1-.45 1-1 1m3.01-5.01c.55 0 1 .45 1 1s-.45 1-1 1-1-.45-1-1 .45-1 1-1m-2-2c0 .55-.45 1-1 1s-1-.45-1-1 .45-1 1-1 1 .45 1 1"/></svg>