<svg xmlns="http://www.w3.org/2000/svg" viewBox="0 0 24 24" width="24" height="24"><path d="m9.55,13.09c-1.01-.51-2.38-.42-3.4.21-.91.56-1.41,1.47-1.41,2.56,0,.26.02.5.04.73.07.97.12,1.5-1.51,2.31-.16.08-.26.24-.28.41-.01.18.07.35.21.45.83.57,2.31,1.24,3.85,1.24,1.1,0,2.24-.34,3.2-1.3.98-.97,1.46-2.51,1.23-3.92-.19-1.2-.89-2.15-1.95-2.68Z"/><path d="m16.53,3.77l-8.04,8.04c.54.05,1.06.16,1.51.39,1.26.63,2.1,1.72,2.42,3.09l7.81-7.81c.5-.5.77-1.15.77-1.85s-.27-1.36-.77-1.85c-.99-.99-2.71-.99-3.71,0Z"/><path d="m3.16,6.74l2.07.96,1.03,2.15c.04.09.14.15.24.15h0c.1,0,.2-.06.24-.16l.95-2.07,2.15-1.04c.09-.04.15-.14.15-.24s-.06-.2-.15-.24l-2.07-1.04-1.04-2.08c-.09-.18-.39-.18-.48,0l-1.04,2.08-2.07,1.04c-.09.05-.15.14-.15.25,0,.1.06.2.16.24Z"/><path d="m20.89,18.32l-1.48-.74-.74-1.48c-.07-.13-.28-.13-.34,0l-.74,1.48-1.48.74c-.07.03-.11.1-.11.18,0,.07.04.14.11.17l1.48.68.74,1.54c.03.07.1.11.17.11h0c.07,0,.14-.04.17-.11l.68-1.48,1.54-.74c.07-.03.11-.1.11-.17s-.04-.14-.11-.17Z"/></svg>