<svg xmlns="http://www.w3.org/2000/svg" viewBox="0 0 24 24" width="24" height="24"><path d="m20.5,8h-.5v-1.5c0-1.93-1.57-3.5-3.5-3.5H7.5c-1.93,0-3.5,1.57-3.5,3.5v1.5h-.5c-.28,0-.5.22-.5.5v3c0,.28.22.5.5.5h.5v5.5c0,.65.42,1.2,1,1.41v1.59c0,.28.22.5.5.5h2c.28,0,.5-.22.5-.5v-1.5h8v1.5c0,.28.22.5.5.5h2c.28,0,.5-.22.5-.5v-1.59c.58-.21,1-.76,1-1.41v-5.5h.5c.28,0,.5-.22.5-.5v-3c0-.28-.22-.5-.5-.5Zm-15.5,0v-1h6.5v5h-6.5v-4Zm11.5,9c-.83,0-1.5-.67-1.5-1.5s.67-1.5,1.5-1.5,1.5.67,1.5,1.5-.67,1.5-1.5,1.5Zm-10.5-1.5c0-.83.67-1.5,1.5-1.5s1.5.67,1.5,1.5-.67,1.5-1.5,1.5-1.5-.67-1.5-1.5Zm6.5-3.5v-5h6.5v5h-6.5Z"/></svg>