<svg xmlns="http://www.w3.org/2000/svg" width="24" height="24" viewBox="0 0 24 24"><path d="M17.5 10c1.93 0 3.5-1.57 3.5-3.5S19.43 3 17.5 3 14 4.57 14 6.5V9h-4V6.5C10 4.57 8.43 3 6.5 3S3 4.57 3 6.5 4.57 10 6.5 10H9v4H6.5C4.57 14 3 15.57 3 17.5S4.57 21 6.5 21s3.5-1.57 3.5-3.5V15h4v2.5c0 1.93 1.57 3.5 3.5 3.5s3.5-1.57 3.5-3.5-1.57-3.5-3.5-3.5H15v-4zM15 6.5a2.5 2.5 0 0 1 5 0A2.5 2.5 0 0 1 17.5 9H15zm-6 11a2.5 2.5 0 0 1-5 0A2.5 2.5 0 0 1 6.5 15H9zM9 9H6.5a2.5 2.5 0 0 1 0-5A2.5 2.5 0 0 1 9 6.5zm5 5h-4v-4h4zm3.5 1a2.5 2.5 0 0 1 0 5 2.5 2.5 0 0 1-2.5-2.5V15z"/></svg>