<svg xmlns="http://www.w3.org/2000/svg" viewBox="0 0 24 24" width="24" height="24"><path d="m19.91,10.06l-1.04-4.17c-.28-1.12-1.28-1.89-2.43-1.89H7.56c-1.15,0-2.15.78-2.43,1.89l-1.04,4.17c-.63.18-1.09.75-1.09,1.44v4c0,.65.42,1.2,1,1.41v2.09c0,.55.45,1,1,1h1c.55,0,1-.45,1-1v-2h10v2c0,.55.45,1,1,1h1c.55,0,1-.45,1-1v-2.09c.58-.21,1-.76,1-1.41v-4c0-.69-.46-1.26-1.09-1.44Zm-.91,3.44c0,.83-.67,1.5-1.5,1.5s-1.5-.67-1.5-1.5.67-1.5,1.5-1.5,1.5.67,1.5,1.5Zm-11,0c0,.83-.67,1.5-1.5,1.5s-1.5-.67-1.5-1.5.67-1.5,1.5-1.5,1.5.67,1.5,1.5Zm-1.89-7.36c.17-.67.77-1.14,1.46-1.14h8.88c.69,0,1.29.47,1.46,1.14l.97,3.86H5.14l.97-3.86Z"/></svg>