<svg xmlns="http://www.w3.org/2000/svg" viewBox="0 0 24 24" width="24" height="24"><path d="M15.5 3A1.5 1.5 0 1 0 15.5 6 1.5 1.5 0 1 0 15.5 3z"/><path d="M20 6A1 1 0 1 0 20 8 1 1 0 1 0 20 6z"/><path d="m20.79,11.45c-.12-.09-.28-.12-.43-.09-.31.08-.56.12-.81.12-1.81,0-3.28-1.47-3.28-3.29,0-.02.01-.1.01-.12,0-.16-.06-.31-.19-.41-.12-.1-.28-.13-.44-.09-.32.08-.58.12-.83.12-1.81,0-3.28-1.47-3.28-3.29,0-.24.04-.5.11-.79.04-.16,0-.32-.11-.45-.11-.12-.27-.19-.43-.17C6.49,3.45,3,7.31,3,11.98c0,4.97,4.04,9.02,9,9.02s9-4.05,9-9.02v-.14c-.01-.15-.08-.3-.21-.39Zm-11.79-3.45c.55,0,1,.45,1,1s-.45,1-1,1-1-.45-1-1,.45-1,1-1Zm-1.5,6c-.83,0-1.5-.67-1.5-1.5s.67-1.5,1.5-1.5,1.5.67,1.5,1.5-.67,1.5-1.5,1.5Zm3,4c-.83,0-1.5-.67-1.5-1.5s.67-1.5,1.5-1.5,1.5.67,1.5,1.5-.67,1.5-1.5,1.5Zm2-5c-.83,0-1.5-.67-1.5-1.5s.67-1.5,1.5-1.5,1.5.67,1.5,1.5-.67,1.5-1.5,1.5Zm2.5,3c-.55,0-1-.45-1-1s.45-1,1-1,1,.45,1,1-.45,1-1,1Z"/></svg>