<svg xmlns="http://www.w3.org/2000/svg" width="24" height="24" viewBox="0 0 24 24"><path d="M15.64 4c-1.64-.05-3.09.92-3.96 2.31-.86 1.37-.78 2.55-.43 3.61L4.3 16.8a1 1 0 0 0-.3.71v1.5c0 .55.45 1 1 1h1.59c.27 0 .52-.11.71-.29l.56-.56a.5.5 0 0 0 .15-.35v-1.79l.65.65c.2.2.51.2.71 0l.5-.5a.5.5 0 0 0 .15-.35v-1.79l.65.65c.2.2.51.2.71 0l.5-.5a.5.5 0 0 0 .15-.35v-1.79l.64.46c.31.22.61.25.79.06l.68-.76c1.05.34 2.23.42 3.6-.47 1.4-.9 2.37-2.39 2.28-4.05a4.49 4.49 0 0 0-4.35-4.23Zm1.27 5.91-2.83-2.83c.78-.78 2.05-.78 2.83 0s.78 2.05 0 2.83"/></svg>