<svg xmlns="http://www.w3.org/2000/svg" viewBox="0 0 24 24" width="24" height="24"><path d="m2,15v5.5c0,.28.22.5.5.5h2.5v-7.81l-2.72,1.36c-.17.08-.28.26-.28.45Z"/><path d="m12.5,8.21v-2.21h2.5v-1h-2.5v-2h-1v2h-2.5v1h2.5v2.21l-5.25,3.1c-.15.09-.25.25-.25.43v9.25h4v-3c0-1.1.9-2,2-2s2,.9,2,2v3h4v-9.25c0-.18-.09-.34-.25-.43l-5.25-3.1Zm-.5,5.79c-.83,0-1.5-.67-1.5-1.5s.67-1.5,1.5-1.5,1.5.67,1.5,1.5-.67,1.5-1.5,1.5Z"/><path d="m21.72,14.55l-2.72-1.36v7.81h2.5c.28,0,.5-.22.5-.5v-5.5c0-.19-.11-.36-.28-.45Z"/></svg>