<svg xmlns="http://www.w3.org/2000/svg" viewBox="0 0 24 24" width="24" height="24"><path d="m17.25,9.5c-.15,0-.31,0-.47.03-1.11-2.16-3.34-3.53-5.78-3.53-3.44,0-6.27,2.69-6.48,6.15-1.48.43-2.52,1.78-2.52,3.35,0,1.93,1.57,3.5,3.5,3.5h11.75c2.62,0,4.75-2.13,4.75-4.75s-2.13-4.75-4.75-4.75Z"/><path d="m21.61,6.05c-.13-.3-.28-.58-.46-.85-.18-.27-.39-.52-.61-.74-.23-.23-.48-.43-.74-.61-.27-.18-.55-.34-.85-.46-.3-.13-.62-.23-.94-.29-.66-.13-1.36-.13-2.02,0-.32.07-.64.16-.94.29-.29.12-.58.28-.85.46-.24.16-.46.35-.66.55,1.74.54,3.27,1.63,4.35,3.13,1.5.14,2.86.78,3.92,1.75.02-.09.07-.18.08-.27.07-.33.1-.67.1-1.01s-.03-.68-.1-1.01c-.07-.32-.16-.63-.29-.94Z"/></svg>