<svg xmlns="http://www.w3.org/2000/svg" width="24" height="24" viewBox="0 0 24 24"><path d="M21 17.5v-10c0-.83-.67-1.5-1.5-1.5h-2.77l-2.35-2.82A.5.5 0 0 0 14 3h-4c-.15 0-.29.07-.38.18L7.27 6h-.56L3.36 2.65l-.71.71L5.3 6.01l3.57 3.57.7.7 4.15 4.15.7.7L18.29 19l2.35 2.35.71-.71-1.67-1.67c.74-.09 1.31-.72 1.31-1.48Zm-6.58-3.79c.35-.49.58-1.07.58-1.71 0-1.63-1.37-3-3-3-.64 0-1.22.23-1.71.58l-.72-.72A3.9 3.9 0 0 1 12 7.99c2.17 0 4 1.83 4 4a3.9 3.9 0 0 1-.87 2.43l-.72-.72ZM12 16c-2.17 0-4-1.83-4-4 0-.14.03-.28.04-.42L3.21 6.75c-.13.22-.21.48-.21.75v10c0 .83.67 1.5 1.5 1.5h10.96l-3.04-3.04c-.14.02-.28.04-.42.04"/></svg>