<svg xmlns="http://www.w3.org/2000/svg" width="24" height="24" viewBox="0 0 24 24"><path d="m13.43 9.86.71.71L20.71 4h-1.42z"/><path d="m12.72 11.99-.71-.71H12L9.29 8.59c.44-.58.71-1.3.71-2.09C10 4.57 8.43 3 6.5 3S3 4.57 3 6.5 4.57 10 6.5 10c.78 0 1.5-.27 2.09-.71L11.3 12l-2.71 2.71c-.58-.44-1.3-.71-2.09-.71C4.57 14 3 15.57 3 17.5S4.57 21 6.5 21s3.5-1.57 3.5-3.5c0-.78-.27-1.5-.71-2.09L12 12.7l7.29 7.29h1.41l-8-8h.01ZM4.5 6.5c0-1.1.9-2 2-2s2 .9 2 2-.9 2-2 2-2-.9-2-2m2 13c-1.1 0-2-.9-2-2s.9-2 2-2 2 .9 2 2-.9 2-2 2"/></svg>