<svg xmlns="http://www.w3.org/2000/svg" viewBox="0 0 24 24" width="24" height="24"><path d="m19,9.89c-.06-3.34-2.92-6.89-7.5-6.89-4.22,0-8.5,2.58-8.5,7.5,0,2.43,1.04,4.58,3,6.24v4.26h8v-2h2.5c.83,0,1.5-.67,1.5-1.5v-2.5h1.73c.34,0,.65-.17.84-.46.19-.29.21-.64.08-.95l-1.65-3.7Zm-8.07,5.11c-1.07,0-2.07-.42-2.83-1.17-.76-.76-1.17-1.76-1.17-2.83s.42-2.07,1.17-2.83c.75-.76,1.76-1.17,2.83-1.17,1.24,0,2.25,1.01,2.25,2.25s-.97,2.2-2.18,2.24h0s-1,0-1,0v-1h.93c.69,0,1.25-.56,1.25-1.25s-.56-1.25-1.25-1.25c-.8,0-1.55.31-2.12.88-.57.57-.88,1.32-.88,2.12s.31,1.55.88,2.12c1.13,1.13,3.11,1.13,4.24,0l.71.71c-.75.76-1.76,1.17-2.83,1.17Z"/></svg>