<svg xmlns="http://www.w3.org/2000/svg" viewBox="0 0 24 24" width="24" height="24"><path d="m14.4,4.2c-.15-.19-.41-.25-.63-.14l-1.93,1.01c-.39-1.2-1.52-2.06-2.84-2.06-1.65,0-3,1.35-3,3,0,.67.22,1.3.61,1.81l-3.34,1.75c-.16.09-.27.26-.27.44v7.5c0,.24.17.45.41.49l17,3s.06,0,.09,0c.12,0,.23-.04.32-.12.11-.09.18-.23.18-.38v-7.5c0-.11-.04-.22-.1-.3l-6.5-8.5Zm-5.4-.2c1.04,0,1.92.81,2,1.89,0,.03,0,.08,0,.11,0,1.1-.9,2-2,2-.45,0-.9-.16-1.26-.45-.47-.37-.74-.94-.74-1.55,0-1.1.9-2,2-2Zm-5,13.08v-5.91l16,2.67v2.57l-13.92-2.4-.17.99,14.08,2.43v2.48l-16-2.82Z"/></svg>