<svg xmlns="http://www.w3.org/2000/svg" viewBox="0 0 24 24" width="24" height="24"><path d="m12,13.42c-4.82,0-7.71,1.89-7.83,1.97-.14.09-.22.25-.22.42v3c0,.73.34,1.39.93,1.81.38.27.83.42,1.28.42.24,0,.49-.04.73-.12,3.21-1.09,7.04-1.09,10.24,0,.68.23,1.42.13,2.01-.29.59-.42.93-1.08.93-1.81v-3c0-.17-.08-.32-.22-.42-.12-.08-3.01-1.97-7.83-1.97Z"/><path d="m14.82,4.44c1.2,1.86,1.96,4.88,1.96,8.37v.23c2.24.61,3.53,1.46,3.61,1.51.25.17.43.41.54.67.04-.14.07-.28.07-.43v-1.54c0-4.09-2.58-7.6-6.18-8.82Z"/><path d="m7.22,12.81c0-3.5.77-6.53,1.97-8.39-1.23.4-2.37,1.06-3.35,1.98-1.81,1.7-2.85,4.09-2.85,6.57v1.83c0,.15.03.29.07.43.11-.27.29-.51.54-.67.08-.06,1.37-.9,3.61-1.51v-.23Z"/><path d="m8.22,12.81c1.09-.23,2.36-.39,3.78-.39s2.68.16,3.78.39c0-4.3-1.17-7.51-2.54-8.74-.08-.01-.16-.02-.24-.03,0-.01,0-.02,0-.04,0-.55-.45-1-1-1s-1,.45-1,1c0,.01,0,.02,0,.04-.08,0-.16,0-.23.02-1.38,1.23-2.55,4.44-2.55,8.75Z"/></svg>