<svg xmlns="http://www.w3.org/2000/svg" viewBox="0 0 24 24" width="24" height="24"><path d="m18.75,8.65c-.18-3.15-2.74-5.65-5.86-5.65-2.19,0-4.2,1.25-5.2,3.23-.13-.01-.26-.02-.39-.02-2.37,0-4.3,1.97-4.3,4.4s1.93,4.4,4.3,4.4h10.51c1.76,0,3.18-1.46,3.18-3.25,0-1.44-.92-2.69-2.25-3.1Z"/><path d="M6.95 21 8.09 21 10.76 16 9.63 16 6.95 21z"/><path d="M15.52 21 16.66 21 19.34 16 18.2 16 15.52 21z"/><path d="M11.24 21 12.37 21 12.91 20 11.77 20 11.24 21z"/><path d="M12.31 19 13.44 19 15.05 16 13.91 16 12.31 19z"/><path d="M3.74 19 4.87 19 6.48 16 5.34 16 3.74 19z"/><path d="M2.66 21 3.8 21 4.34 20 3.2 20 2.66 21z"/></svg>