<svg xmlns="http://www.w3.org/2000/svg" width="24" height="24" viewBox="0 0 24 24"><path d="m4.71 15.73.35.35-.68.68c.3.47.63.91 1.01 1.32l12.7-12.7c-.41-.38-.85-.71-1.32-1.01l-.68.68-.35-.35.6-.6a8.9 8.9 0 0 0-4.32-1.11C7.04 3 3 7.04 3 12c0 1.57.4 3.04 1.11 4.32l.6-.6ZM14.78 5.65l.35.35-1.57 1.57-.35-.35zm-2.52 2.52.35.35-1.57 1.57-.35-.35zm-2.52 2.52.35.35-1.57 1.57-.35-.35zm-2.52 2.52.35.35L6 15.13l-.35-.35zM19.29 8.27l-.35-.35.68-.68c-.3-.47-.63-.91-1.01-1.32l-12.7 12.7c.41.38.85.71 1.32 1.01l.68-.68.35.35-.6.6c1.28.71 2.76 1.11 4.32 1.11 4.96 0 9-4.04 9-9 0-1.57-.4-3.04-1.11-4.32l-.6.6ZM9.22 18.34l-.35-.35 1.57-1.57.35.35zm2.52-2.52-.35-.35 1.57-1.57.35.35zm2.52-2.52-.35-.35 1.57-1.57.35.35zm2.52-2.52-.35-.35L18 8.86l.35.35z"/></svg>