<svg xmlns="http://www.w3.org/2000/svg" width="24" height="24" viewBox="0 0 24 24"><path d="m9.21 9.91-3.9-3.9a9 9 0 0 0-2.28 5.49h5.53c.09-.59.31-1.13.66-1.59ZM8.55 12.5H3.03c.12 2.1.96 4.01 2.28 5.49l3.9-3.9c-.34-.46-.57-1-.66-1.59M9.91 9.21c.46-.34 1-.57 1.59-.66V3.03c-2.1.12-4.01.96-5.49 2.28zM17.99 5.3a9 9 0 0 0-5.49-2.28v5.53c.59.09 1.13.31 1.59.66l3.9-3.9ZM6.01 18.7a9 9 0 0 0 5.49 2.28v-5.53c-.59-.09-1.13-.31-1.59-.66l-3.9 3.9ZM14.79 9.91c.34.46.57 1 .66 1.59h5.53c-.12-2.1-.96-4.01-2.28-5.49l-3.9 3.9ZM12.5 15.45v5.53c2.1-.12 4.01-.96 5.49-2.28l-3.9-3.9c-.46.34-1 .57-1.59.66ZM14.79 14.09l3.9 3.9a9 9 0 0 0 2.28-5.49h-5.53c-.09.59-.31 1.13-.66 1.59Z"/></svg>