<svg xmlns="http://www.w3.org/2000/svg" viewBox="0 0 24 24" width="24" height="24"><path d="M19.28 11.55 12 15.19 4.72 11.55 4.28 12.45 10.88 15.75 4.28 19.05 4.72 19.95 12 16.31 19.28 19.95 19.72 19.05 13.12 15.75 19.72 12.45 19.28 11.55z"/><path d="m11.24,11.93c.25.05.5.07.75.07.93,0,1.84-.32,2.56-.92.92-.77,1.45-1.89,1.45-3.09,0-.7-.16-1.36-.48-1.99-.1-.19-.28-.33-.5-.38-.23-.05-.46.02-.64.16-.32.27-.72.41-1.13.39-.5-.02-1-.33-1.33-.82-.2-.29-.29-.58-.29-.88,0-.27-.15-.52-.39-.65-.25-.13-.54-.12-.78.04-1.11.75-2.44,2.07-2.46,4.08-.02,1.93,1.38,3.64,3.24,3.99Z"/></svg>