<svg xmlns="http://www.w3.org/2000/svg" viewBox="0 0 24 24" width="24" height="24"><path d="m20,12c0,1.22-.27,2.38-.79,3.47l.9.43c.59-1.22.89-2.54.89-3.93h-.23s-.77.03-.77.03Z"/><path d="m6.4,19.05c1.05.84,2.3,1.44,3.61,1.73l.22-.97c-1.16-.26-2.27-.79-3.21-1.54l-.62.78Z"/><path d="m6.99,5.76l-.63-.78c-1.05.84-1.91,1.93-2.49,3.14l.9.43c.51-1.08,1.28-2.04,2.21-2.79Z"/><path d="m13.79,19.8l.22.97c1.31-.3,2.55-.9,3.61-1.74l-.62-.78c-.93.75-2.04,1.28-3.2,1.55Z"/><path d="m17.58,4.94l-.62.79c.94.74,1.71,1.7,2.23,2.77l.9-.44c-.59-1.2-1.46-2.28-2.51-3.12Z"/><path d="m13.75,4.19l.22-.98c-1.31-.29-2.7-.29-4,.02l.23.97c1.16-.27,2.39-.27,3.56-.02Z"/><path d="m3,12.03c0,1.37.31,2.68.9,3.9l.9-.44c-.53-1.08-.8-2.25-.8-3.46h-1Z"/><path d="M12 6A6 6 0 1 0 12 18 6 6 0 1 0 12 6z"/></svg>