<svg xmlns="http://www.w3.org/2000/svg" viewBox="0 0 24 24" width="24" height="24"><path d="m16.32,3.15c-.2-.2-.51-.2-.71,0l-1.51,1.51-1.35-1.35c-.2-.2-.51-.2-.71,0l-1.87,1.87c-.09.09-.15.22-.15.35s.05.26.15.35l3.61,3.61-4.29,4.29-3.61-3.61c-.19-.19-.52-.19-.71,0l-1.87,1.87c-.2.2-.2.51,0,.71l1.35,1.35-1.51,1.51c-.2.2-.2.51,0,.71l4.53,4.53c.1.1.23.15.35.15s.26-.05.35-.15l1.51-1.51,1.35,1.35c.1.1.23.15.35.15s.26-.05.35-.15l1.87-1.87c.09-.09.15-.22.15-.35s-.05-.26-.15-.35l-3.61-3.61,4.29-4.29,3.61,3.61c.09.09.22.15.35.15s.26-.05.35-.15l1.87-1.87c.2-.2.2-.51,0-.71l-1.35-1.35,1.51-1.51c.2-.2.2-.51,0-.71l-4.53-4.53Z"/></svg>