<svg xmlns="http://www.w3.org/2000/svg" viewBox="0 0 24 24" width="24" height="24"><path d="m3.52,14.27c.03.13.12.24.23.3l1.89,1.09v2.18c0,.28.22.5.5.5h2.18l1.09,1.89c.07.12.18.2.3.23.13.03.27.02.38-.05l1.89-1.1,1.9,1.1c.08.04.16.07.25.07.04,0,.09,0,.13-.02.13-.04.24-.12.3-.23l1.09-1.89h2.18c.28,0,.5-.22.5-.5v-2.18l1.89-1.09c.12-.07.2-.18.23-.3s.02-.26-.05-.38l-1.1-1.89,1.1-1.89c.07-.11.08-.25.05-.38-.03-.13-.12-.24-.23-.3l-1.89-1.1v-2.18c0-.28-.22-.5-.5-.5h-2.18l-1.09-1.89c-.07-.11-.17-.2-.3-.23-.13-.03-.26-.02-.38.05l-1.9,1.09-1.89-1.09c-.24-.14-.54-.06-.68.18l-1.09,1.89h-2.18c-.28,0-.5.22-.5.5v2.18l-1.89,1.1c-.12.07-.2.18-.23.3-.03.13-.02.26.05.38l1.1,1.89-1.1,1.89c-.07.11-.08.25-.05.38Zm10.48,1.73c-.55,0-1-.45-1-1s.45-1,1-1,1,.45,1,1-.45,1-1,1Zm-4-8c.55,0,1,.45,1,1s-.45,1-1,1-1-.45-1-1,.45-1,1-1Zm4.6-.3l.8.6-6,8-.8-.6,6-8Z"/></svg>