<svg xmlns="http://www.w3.org/2000/svg" viewBox="0 0 24 24" width="24" height="24"><path d="m10.06,10h-4.06c-1.92,0-2-1.79-2-2v-.5h-1v.5c0,.65.24,1.65,1,2.32v10.18c0,.28.22.5.5.5h2c.28,0,.5-.22.5-.5v-3.5h5v3.5c0,.28.22.5.5.5h2c.28,0,.5-.22.5-.5v-6.5h-.36c-2.36,0-4.3-1.75-4.58-4Z"/><path d="m20.09,6.78h-1.82l-1.15-1.13c-.42-.41-.98-.64-1.57-.65h-1.97c-1.05-2-2.58-2-2.58-2v2s0,0,0,0v4.44c0,1.96,1.63,3.56,3.64,3.56h.91l3.37-1.32c.74-.29,1.32-.89,1.57-1.64l.51-1.36v-1.02c0-.49-.41-.89-.91-.89Zm-4.59,1.47c-.41,0-.75-.34-.75-.75s.34-.75.75-.75.75.34.75.75-.34.75-.75.75Z"/></svg>