<svg xmlns="http://www.w3.org/2000/svg" width="24" height="24" viewBox="0 0 24 24"><path d="m15.35 6.65-3-3c-.2-.2-.51-.2-.71 0l-3 3c-.2.2-.2.51 0 .71l3 3a.485.485 0 0 0 .7 0l3-3c.2-.2.2-.51 0-.71ZM11.65 13.65l-3 3c-.2.2-.2.51 0 .71l3 3a.485.485 0 0 0 .7 0l3-3c.2-.2.2-.51 0-.71l-3-3c-.2-.2-.51-.2-.71 0ZM7 15.5c.13 0 .26-.05.35-.15l3-3c.2-.2.2-.51 0-.71l-3-3c-.2-.2-.51-.2-.71 0l-3 3c-.2.2-.2.51 0 .71l3 3c.1.1.23.15.35.15ZM17.35 8.65c-.2-.2-.51-.2-.71 0l-3 3c-.2.2-.2.51 0 .71l3 3a.485.485 0 0 0 .7 0l3-3c.2-.2.2-.51 0-.71l-3-3Z"/></svg>