<svg xmlns="http://www.w3.org/2000/svg" viewBox="0 0 24 24" width="24" height="24"><path d="M15.61 9 13.61 3 10.69 3 8.69 9 15.61 9z"/><path d="M8.69 10 12.01 20.18 15.59 10 8.69 10z"/><path d="m17.21,3.67c-.28-.42-.75-.67-1.25-.67h-1.3l2,6h4.03c-.04-.13-.09-.26-.17-.38l-3.3-4.96Z"/><path d="m13.23,19.73l7.23-9.35c.09-.12.15-.24.2-.37h-4.01l-3.43,9.73Z"/><path d="m9.64,3h-1.6c-.5,0-.97.25-1.25.67l-3.3,4.96c-.08.12-.13.25-.17.38h4.33l2-6Z"/><path d="m3.34,10c.05.13.12.26.2.37l7.27,9.41s.01.01.02.02l-3.2-9.8H3.34Z"/></svg>