<svg xmlns="http://www.w3.org/2000/svg" width="24" height="24" viewBox="0 0 24 24"><path d="M20.97 12.16c.04-.1.04-.22 0-.32C20.95 11.78 18.89 6 12 6c-1.75 0-3.18.38-4.36.94L3.35 2.65l-.71.71 4.08 4.08 2.84 2.84 4.16 4.16 2.63 2.63 4.29 4.29.71-.71-4.08-4.08c2.74-1.72 3.69-4.36 3.7-4.4ZM12 9c1.64 0 3 1.36 3 3 0 .64-.23 1.23-.58 1.72l-4.14-4.14C10.77 9.23 11.35 9 12 9M9.06 12.6 5.15 8.69c-1.53 1.52-2.12 3.12-2.13 3.15-.04.1-.04.22 0 .32.02.06 2.08 5.84 8.97 5.84.81 0 1.55-.09 2.24-.23l-2.83-2.83z"/></svg>