<svg xmlns="http://www.w3.org/2000/svg" width="24" height="24" viewBox="0 0 24 24"><path d="M14.85 3.15A.5.5 0 0 0 14.5 3h-8C5.67 3 5 3.67 5 4.5v15c0 .83.67 1.5 1.5 1.5h11c.83 0 1.5-.67 1.5-1.5v-12a.47.47 0 0 0-.15-.35zM15.16 14c0 .19-.02.38-.05.57l.33.19c.31.18.41.57.23.88l-.42.73c-.18.31-.57.41-.88.23l-.34-.2c-.29.25-.62.44-.97.57v.39c0 .35-.29.64-.64.64h-.84c-.35 0-.64-.29-.64-.64v-.39c-.35-.13-.68-.32-.97-.57l-.34.2c-.31.18-.7.07-.88-.23l-.42-.73c-.18-.31-.07-.7.23-.88l.33-.19c-.04-.19-.05-.38-.05-.57s.02-.38.05-.57l-.33-.19a.64.64 0 0 1-.23-.88l.42-.73c.18-.31.57-.41.88-.23l.34.2c.29-.25.62-.44.97-.57v-.39c0-.35.29-.64.64-.64h.84c.35 0 .64.29.64.64v.39c.35.13.68.32.97.57l.34-.2c.31-.18.7-.07.88.23l.42.73c.18.31.07.7-.23.88l-.33.19c.04.19.05.38.05.57M14 8V4l4 4z"/><path d="M12 12.45c-.84 0-1.55.71-1.55 1.55s.71 1.55 1.55 1.55 1.55-.71 1.55-1.55-.71-1.55-1.55-1.55"/></svg>