<svg xmlns="http://www.w3.org/2000/svg" width="24" height="24" viewBox="0 0 24 24"><path d="M6.53 16.79c1.04 1.63 1.04 2.88 1.04 4.21h1c0-1.41 0-2.87-1.2-4.75zM5.21 15.18c.08.07.17.14.24.21l.74-.67c-.1-.11-.22-.21-.35-.32q-.12-.09-.24-.21c-1.68-1.69-2.53-5.95 0-8.51 2.58-2.61 8.01-1.61 9.76-.61 2.66 1.52 4.03 4.15 4.04 4.17l.89-.46c-.06-.12-1.51-2.92-4.44-4.59-2.21-1.26-8.09-2.13-10.97.77-3 3.03-2 7.9 0 9.92.1.1.21.19.31.28Z"/><path d="M11.34 21h1c0-1.9 0-3.87-2.93-7.68-.12-.16-.27-.33-.42-.52-.83-.99-1.86-2.23-1.39-3.63.36-1.05 1.17-1.53 1.79-1.74 1.3-.44 3.04-.2 4.23.6l.55-.83c-1.46-.97-3.51-1.25-5.11-.71-1.19.4-2.03 1.22-2.41 2.36-.66 1.93.68 3.53 1.57 4.59.15.17.28.34.4.49 2.72 3.54 2.72 5.26 2.72 7.07M19.87 17.2c-.87-4.22-2.13-6.93-4.08-8.77l-.69.73c1.8 1.69 2.96 4.23 3.79 8.24z"/><path d="M15.34 15.59c-1.18-4.08-4.05-5.99-4.17-6.07l-.55.84s2.68 1.8 3.75 5.51l.96-.28ZM16.11 21c0-1.2-.1-2.35-.32-3.52l-.98.18c.2 1.1.3 2.19.3 3.34z"/></svg>