<svg xmlns="http://www.w3.org/2000/svg" viewBox="0 0 24 24" width="24" height="24"><path d="m19.5,5h-7.29l-1.56-1.56c-.28-.28-.67-.44-1.06-.44h-5.09c-.83,0-1.5.67-1.5,1.5v13c0,.83.67,1.5,1.5,1.5h15c.83,0,1.5-.67,1.5-1.5V6.5c0-.83-.67-1.5-1.5-1.5Zm-4.34,7c0,.19-.02.38-.05.57l.33.19c.31.18.41.57.23.88l-.42.73c-.18.31-.57.41-.88.23l-.34-.2c-.29.25-.62.44-.97.57v.39c0,.35-.29.64-.64.64h-.84c-.35,0-.64-.29-.64-.64v-.39c-.35-.13-.68-.32-.97-.57l-.34.2c-.31.18-.7.07-.88-.23l-.42-.73c-.18-.31-.07-.7.23-.88l.33-.19c-.04-.19-.05-.38-.05-.57s.02-.38.05-.57l-.33-.19c-.31-.18-.41-.57-.23-.88l.42-.73c.18-.31.57-.41.88-.23l.34.2c.29-.25.62-.44.97-.57v-.39c0-.35.29-.64.64-.64h.84c.35,0,.64.29.64.64v.39c.35.13.68.32.97.57l.34-.2c.31-.18.7-.07.88.23l.42.73c.18.31.07.7-.23.88l-.33.19c.04.19.05.38.05.57Z"/><path d="m12,10.45c-.84,0-1.55.71-1.55,1.55s.71,1.55,1.55,1.55,1.55-.71,1.55-1.55-.71-1.55-1.55-1.55Z"/></svg>