<svg xmlns="http://www.w3.org/2000/svg" viewBox="0 0 24 24" width="24" height="24"><path d="M9.5 5A3.5 3.5 0 1 0 9.5 12 3.5 3.5 0 1 0 9.5 5z"/><path d="m10.5,13h-2c-2.48,0-4.5,2.02-4.5,4.5v1c0,.28.22.5.5.5h10c.28,0,.5-.22.5-.5v-1c0-2.48-2.02-4.5-4.5-4.5Z"/><path d="m15.5,12c2,0,3.5-1.5,3.5-3.5s-1.5-3.5-3.5-3.5c-.54,0-1.04.12-1.49.32.62.89.99,1.98.99,3.18s-.37,2.28-.99,3.18c.45.2.95.32,1.49.32Z"/><path d="m16.5,13h-1.32c1.12,1.17,1.82,2.75,1.82,4.5v1c0,.17-.02.34-.05.5h3.55c.28,0,.5-.22.5-.5v-1c0-2.48-2.02-4.5-4.5-4.5Z"/></svg>