<svg xmlns="http://www.w3.org/2000/svg" viewBox="0 0 24 24" width="24" height="24"><path d="m14.39,8.17c-.79.07-1.59.11-2.39.11s-1.6-.04-2.39-.11c-.15.99-.24,2.11-.26,3.33h5.32c-.02-1.23-.11-2.34-.26-3.33Z"/><path d="m8.34,12.5H3.03c.09,1.57.57,3.03,1.37,4.28,1.37-.39,2.79-.67,4.23-.84-.17-1.11-.26-2.28-.28-3.44Z"/><path d="m8.62,8.06c-1.45-.17-2.86-.45-4.23-.85-.79,1.25-1.28,2.72-1.37,4.28h5.32c.02-1.17.12-2.33.28-3.44Z"/><path d="m14.22,7.18c-.54-2.65-1.48-4.18-2.22-4.18s-1.67,1.52-2.22,4.18c1.47.12,2.96.12,4.43,0Z"/><path d="m9.78,16.82c.54,2.65,1.48,4.18,2.22,4.18s1.67-1.52,2.22-4.18c-1.47-.12-2.96-.12-4.43,0Z"/><path d="m9.61,15.84c1.59-.13,3.2-.13,4.79,0,.15-.99.24-2.11.26-3.34h-5.32c.02,1.23.11,2.35.26,3.34Z"/><path d="m10.21,3.18c-2.09.42-3.91,1.57-5.2,3.16,1.23.33,2.5.58,3.79.73.32-1.59.79-2.97,1.42-3.89Z"/><path d="m5.01,17.66c1.29,1.59,3.12,2.74,5.2,3.16-.63-.92-1.1-2.3-1.42-3.89-1.29.15-2.56.39-3.79.73Z"/><path d="m15.38,15.94c1.44.17,2.86.45,4.23.84.79-1.25,1.28-2.72,1.37-4.28h-5.32c-.02,1.17-.12,2.34-.28,3.44Z"/><path d="m13.79,20.82c2.09-.42,3.91-1.57,5.2-3.16-1.23-.33-2.5-.58-3.79-.73-.32,1.59-.79,2.97-1.42,3.89Z"/><path d="m18.99,6.34c-1.29-1.59-3.12-2.74-5.2-3.16.63.92,1.1,2.3,1.42,3.89,1.29-.15,2.56-.39,3.79-.73Z"/><path d="m15.38,8.06c.17,1.1.26,2.27.28,3.44h5.32c-.09-1.57-.57-3.03-1.37-4.28-1.37.39-2.79.67-4.23.85Z"/></svg>