<svg xmlns="http://www.w3.org/2000/svg" viewBox="0 0 24 24" width="24" height="24"><path d="m9.45,9.45c-.07.79-.12,1.64-.12,2.55s.04,1.76.12,2.55c.79.07,1.64.12,2.55.12s1.76-.04,2.55-.12c.07-.79.12-1.64.12-2.55s-.04-1.76-.12-2.55c-.79-.07-1.64-.12-2.55-.12s-1.76.04-2.55.12Z"/><path d="m15.56,9.57c.07.8.11,1.62.11,2.43s-.04,1.63-.11,2.43c3.44-.47,5.44-1.58,5.44-2.43s-2.01-1.96-5.44-2.43Z"/><path d="m20.82,10.2c-.72-3.52-3.5-6.31-7.02-7.02.81,1.19,1.37,3.17,1.65,5.37,2.2.28,4.18.84,5.37,1.65Z"/><path d="m12,8.33c.81,0,1.63.04,2.43.11-.47-3.44-1.58-5.44-2.43-5.44s-1.96,2.01-2.43,5.44c.8-.07,1.62-.11,2.43-.11Z"/><path d="m12,15.67c-.81,0-1.63-.04-2.43-.11.47,3.44,1.58,5.44,2.43,5.44s1.96-2.01,2.43-5.44c-.8.07-1.62.11-2.43.11Z"/><path d="m3.18,13.8c.72,3.52,3.5,6.31,7.02,7.02-.81-1.19-1.37-3.17-1.65-5.37-2.2-.28-4.18-.84-5.37-1.65Z"/><path d="m13.8,20.82c3.52-.72,6.31-3.5,7.02-7.02-1.19.81-3.17,1.37-5.37,1.65-.28,2.2-.84,4.18-1.65,5.37Z"/><path d="m8.44,14.43c-.07-.8-.11-1.62-.11-2.43s.04-1.63.11-2.43c-3.44.47-5.44,1.58-5.44,2.43s2.01,1.96,5.44,2.43Z"/><path d="m10.2,3.18c-3.52.72-6.31,3.5-7.02,7.02,1.19-.81,3.17-1.37,5.37-1.65.28-2.2.84-4.18,1.65-5.37Z"/></svg>