<svg xmlns="http://www.w3.org/2000/svg" viewBox="0 0 24 24" width="24" height="24"><path class="b" d="m19.56,9H4.44c-.26,0-.47.2-.5.45l-.93,10c-.03.29.2.55.5.55h16.99c.29,0,.53-.25.5-.55l-.93-10c-.02-.26-.24-.45-.5-.45Zm-7.56,6c-2.21,0-4-1.79-4-4h1c0,1.65,1.35,3,3,3s3-1.35,3-3h1c0,2.21-1.79,4-4,4Z"/><path class="b" d="m12.99,6.84c-.08-2.15-1.83-3.84-3.99-3.84s-4,1.79-4,4h8c0-.08,0-.15,0-.16Z"/><path class="b" d="m15,7h3.35c.42-.44.65-1.02.65-1.63s-.25-1.22-.7-1.67c-.92-.92-2.43-.92-3.36,0l-.6.6c.36.71.58,1.51.63,2.36.02.15.02.27.02.35Z"/></svg>