<svg xmlns="http://www.w3.org/2000/svg" viewBox="0 0 24 24" width="24" height="24"><path d="m17.85,13.43c-.13-.06-.27-.07-.4-.02-.13.05-.23.15-.29.28l-1.88,4.69c-.1.24,0,.52.24.63l1.88.94c.07.04.15.05.22.05.06,0,.12,0,.17-.03.13-.05.23-.15.29-.27l1.57-3.67c1.11-2.59.9-5.58-.56-8-1.4-2.32-3.72-3.78-6.36-3.99-.48-.04-.98-.04-1.46,0-2.64.21-4.96,1.67-6.36,3.99-1.46,2.42-1.67,5.42-.56,8l1.57,3.67c.05.13.16.22.29.27.13.05.27.04.4-.02l1.88-.94c.23-.12.34-.39.24-.63l-1.88-4.69c-.05-.13-.16-.23-.29-.28s-.28-.04-.4.02l-1.36.68c-.38-1.89-.04-3.88.97-5.57,1.23-2.04,3.27-3.32,5.59-3.51.43-.04.87-.04,1.3,0,2.32.19,4.35,1.47,5.59,3.51,1.02,1.69,1.35,3.68.97,5.57l-1.36-.68Z"/></svg>