<svg xmlns="http://www.w3.org/2000/svg" width="24" height="24" viewBox="0 0 24 24"><path d="M16.35 3.15A.5.5 0 0 0 16 3H8a.47.47 0 0 0-.35.15l-4.5 4.5A.5.5 0 0 0 3 8v8c0 .13.05.26.15.35l4.5 4.5c.09.09.22.15.35.15h8c.13 0 .26-.05.35-.15l4.5-4.5A.5.5 0 0 0 21 16V8a.47.47 0 0 0-.15-.35zM12.5 17h-1v-1h1zm0-4.02v1.52h-1v-1.86c0-.21.13-.4.33-.47.02 0 2.08-.77 2.08-2.11 0-.86-.54-1.64-1.32-1.93-.5-.19-1.05-.16-1.55.07-.51.24-.89.65-1.07 1.17l-.94-.33c.27-.77.84-1.4 1.59-1.75s1.57-.39 2.32-.1c1.17.44 1.96 1.59 1.97 2.86 0 1.63-1.68 2.58-2.41 2.92Z"/></svg>