<svg xmlns="http://www.w3.org/2000/svg" viewBox="0 0 24 24" width="24" height="24"><path d="m19,9.89c-.06-3.34-2.92-6.89-7.5-6.89-4.22,0-8.5,2.58-8.5,7.5,0,2.43,1.04,4.58,3,6.24v4.26h8v-2h2.5c.83,0,1.5-.67,1.5-1.5v-2.5h1.73c.34,0,.65-.17.84-.46.19-.29.21-.64.08-.95l-1.65-3.7Zm-4.18,1.93c-.31.69-1.01,1.18-1.82,1.18-.16,0-.31-.02-.46-.06-.45.64-1.19,1.06-2.04,1.06s-1.58-.42-2.04-1.06c-.15.04-.3.06-.46.06-1.1,0-2-.9-2-2,0-.37.11-.7.28-1-.17-.3-.28-.63-.28-1,0-1.1.9-2,2-2,.09,0,.18.02.26.03.34-.61.99-1.03,1.74-1.03.44,0,.84.15,1.17.39.39-.24.84-.39,1.33-.39,1.3,0,2.36,1,2.48,2.26.61.34,1.02.99,1.02,1.74,0,.81-.49,1.51-1.18,1.82Z"/></svg>