<svg xmlns="http://www.w3.org/2000/svg" width="24" height="24" viewBox="0 0 24 24"><path d="M19.5 8H16V4.5c0-.83-.67-1.5-1.5-1.5h-5C8.67 3 8 3.67 8 4.5V8H4.5C3.67 8 3 8.67 3 9.5v5c0 .83.67 1.5 1.5 1.5H8v3.5c0 .83.67 1.5 1.5 1.5h5c.83 0 1.5-.67 1.5-1.5V16h3.5c.83 0 1.5-.67 1.5-1.5v-5c0-.83-.67-1.5-1.5-1.5M8 13.53c0 .2-.22.32-.39.21l-2.3-1.53a.252.252 0 0 1 0-.42l2.3-1.53c.17-.11.39 0 .39.21v3.07Zm5.74 2.86-1.53 2.3c-.1.15-.32.15-.42 0l-1.53-2.3c-.11-.17 0-.39.21-.39h3.07c.2 0 .32.22.21.39ZM10.5 12c0-.83.67-1.5 1.5-1.5s1.5.67 1.5 1.5-.67 1.5-1.5 1.5-1.5-.67-1.5-1.5m3.03-4h-3.07c-.2 0-.32-.22-.21-.39l1.53-2.3c.1-.15.32-.15.42 0l1.53 2.3c.11.17 0 .39-.21.39Zm5.16 4.21-2.3 1.53c-.17.11-.39 0-.39-.21v-3.07c0-.2.22-.32.39-.21l2.3 1.53c.15.1.15.32 0 .42Z"/></svg>