<svg xmlns="http://www.w3.org/2000/svg" viewBox="0 0 24 24" width="24" height="24"><path d="m10.35,11.65l-2.5-2.5c-.09-.09-.22-.15-.35-.15H3.5c-.28,0-.5.22-.5.5v5c0,.28.22.5.5.5h4c.13,0,.26-.05.35-.15l2.5-2.5c.2-.2.2-.51,0-.71Z"/><path d="m20.5,9h-4c-.13,0-.26.05-.35.15l-2.5,2.5c-.2.2-.2.51,0,.71l2.5,2.5c.09.09.22.15.35.15h4c.28,0,.5-.22.5-.5v-5c0-.28-.22-.5-.5-.5Z"/><path d="m11.65,10.35c.1.1.23.15.35.15s.26-.05.35-.15l2.5-2.5c.09-.09.15-.22.15-.35V3.5c0-.28-.22-.5-.5-.5h-5c-.28,0-.5.22-.5.5v4c0,.13.05.26.15.35l2.5,2.5Z"/><path d="m12.35,13.65c-.2-.2-.51-.2-.71,0l-2.5,2.5c-.09.09-.15.22-.15.35v4c0,.28.22.5.5.5h5c.28,0,.5-.22.5-.5v-4c0-.13-.05-.26-.15-.35l-2.5-2.5Z"/></svg>