<svg xmlns="http://www.w3.org/2000/svg" width="24" height="24" viewBox="0 0 24 24"><path d="M12 8c-3.03 0-5.5 2.38-5.5 5.3 0 1.8.88 2.88 1.82 4.02.25.31.52.63.78.98.35.47.55 1.2.65 1.7h-.74v1h6v-1h-.79c.07-.47.23-1.18.67-1.67l.34-.38c1.18-1.32 2.29-2.57 2.29-4.65 0-2.92-2.47-5.3-5.5-5.3ZM11.5 4.25V6h1V2.5h-1zM2.78 7.58 2.5 8l-.28.42 1.5 1 1.5 1L5.5 10l.28-.42-1.5-1zM6.42 3.72 6 4l-.42.28 1 1.5 1 1.5L8 7l.42-.28-1-1.5zM21.22 7.58l-1.5 1-1.5 1 .28.42.28.42 1.5-1 1.5-1L21.5 8zM16.58 5.22l-1 1.5L16 7l.42.28 1-1.5 1-1.5L18 4l-.42-.28z"/></svg>