<svg xmlns="http://www.w3.org/2000/svg" viewBox="0 0 24 24" width="24" height="24"><path d="m17.15,10.02c-.03-.23-.22-.41-.45-.43-.04,0-.47-.03-1.04.06,0,0,0,0,0,0,.87-1.78.04-3.62,0-3.7-.1-.22-.34-.33-.57-.27-.06.01-1.02.27-1.9,1-.01-.32-.05-.65-.15-.99-.58-1.91-2.43-2.62-2.51-2.65-.22-.08-.47,0-.6.21-.05.07-1.12,1.85-.54,3.74.5,1.66,1.96,2.41,2.39,2.6-.04,1.13.36,2.03.38,2.08.07.15.2.23.35.26-.53,1.19-.39,2.38-.38,2.45,0,.06.03.12.06.17-1.14.95-1.45,2.35-1.49,2.54-.2-.03-.41-.05-.63-.05-1.95.05-3.12,1.7-3.16,1.77-.13.19-.12.44.03.61.06.07,1.37,1.59,3.26,1.59.03,0,.05,0,.08,0,1.95-.05,3.12-1.7,3.17-1.77.13-.19.12-.44-.03-.61-.02-.03-.26-.29-.65-.6.03,0,.06,0,.1,0,.56,0,1.19-.1,1.8-.42,1.73-.91,2.1-2.91,2.11-2.99.04-.23-.08-.45-.29-.54-.03-.01-.32-.14-.76-.24.11-.09.22-.18.32-.29,1.36-1.42,1.1-3.44,1.09-3.52Z"/></svg>