<svg xmlns="http://www.w3.org/2000/svg" viewBox="0 0 24 24" width="24" height="24"><path d="M16 5H21V6H16z"/><path d="m20.73,11.56l-8.5-4.5c-.15-.08-.32-.08-.47,0L3.27,11.56c-.16.09-.27.26-.27.44s.1.36.27.44l8.5,4.5c.07.04.15.06.23.06s.16-.02.23-.06l8.5-4.5c.16-.09.27-.26.27-.44s-.1-.36-.27-.44Z"/><path d="m20.73,15.56l-.81-.43-6.75,3.57c-.36.19-.77.29-1.18.29s-.82-.1-1.17-.29l-6.76-3.58-.81.43c-.16.09-.27.26-.27.44s.1.36.27.44l8.5,4.5c.07.04.15.06.23.06s.16-.02.23-.06l8.5-4.5c.16-.09.27-.26.27-.44s-.1-.36-.27-.44Z"/></svg>