<svg xmlns="http://www.w3.org/2000/svg" width="24" height="24" viewBox="0 0 24 24"><path d="M19.5 4h-15C3.67 4 3 4.67 3 5.5v11c0 .83.67 1.5 1.5 1.5H7v2.5c0 .18.1.35.25.44a.54.54 0 0 0 .51-.01L12.64 18h6.86c.83 0 1.5-.67 1.5-1.5v-11c0-.83-.67-1.5-1.5-1.5m-7 11h-1v-1h1zm1.27-3.73c-.35.35-.79.59-1.27.68V13h-1v-1.5c0-.28.22-.5.5-.5a1.499 1.499 0 0 0 1.06-2.56c-.57-.57-1.56-.57-2.12 0-.28.28-.44.66-.44 1.06h-1c0-.67.26-1.3.73-1.77.94-.94 2.59-.94 3.54 0 .47.47.73 1.1.73 1.77s-.26 1.3-.73 1.77"/></svg>