<svg version="1.1" xmlns="http://www.w3.org/2000/svg" xmlns:xlink="http://www.w3.org/1999/xlink" x="0px" y="0px" viewBox="0 0 24 24" xml:space="preserve" width="24" height="24"><path d="M4.6 13.4 5 13 5.4 12.6 6.9 14.1 8.4 15.6 8 16 7.6 16.3 6.1 14.9z"/><path d="M20,14.5c0-2.4-1.3-4.6-3.4-5.7l1.3-1.3C18,7.4,18,7.3,18,7.2s0-0.3-0.1-0.3l-0.6-0.6l0.6-0.6l-2.2-2.2L15,4l-0.8-0.8
	C14,3,13.7,3,13.5,3.2l-7.3,7.3C6.1,10.6,6,10.7,6,10.8s0.1,0.3,0.2,0.4l3.7,3.7C9.9,15,10.1,15,10.2,15s0.3-0.1,0.4-0.1l5.3-5.3
	c1.9,0.9,3.2,2.8,3.2,4.9c0,3-2.5,5.5-5.5,5.5H4v1h16v-1h-3C18.8,18.9,20,16.8,20,14.5L20,14.5z"/></svg>