<svg xmlns="http://www.w3.org/2000/svg" viewBox="0 0 24 24" width="24" height="24"><path d="m20.01,10.91l-.92,5.09h-2.58c-.83,0-1.5.67-1.5,1.5v3.5h1v-3.5c0-.28.22-.5.5-.5h2.5v4h1v-4.45l.99-5.46-.98-.18Z"/><path d="m7.5,16h-2.58l-.92-5.09-.98.18.99,5.46v4.45h1v-4h2.5c.28,0,.5.22.5.5v3.5h1v-3.5c0-.83-.67-1.5-1.5-1.5Z"/><path d="m18,14v-1h-5.5v-4h6.5c.16,0,.3-.07.4-.2.09-.12.12-.29.08-.44-.88-3.16-3.96-5.37-7.48-5.37s-6.6,2.21-7.48,5.37c-.04.15-.01.31.08.44.09.12.24.2.4.2h6.5v4h-5.5v1h5.5v7h1v-7h5.5Z"/></svg>