<svg xmlns="http://www.w3.org/2000/svg" viewBox="0 0 24 24" width="24" height="24"><path d="m19.06,5.85c-.58-.58-1.54-.58-2.12,0l-1.19,1.19,4.71,4.71,1.19-1.19c.58-.58.58-1.54,0-2.12l-2.59-2.59Z"/><path d="m7.84,21.05l9.56-2.12,1.54-5.66.8-.8-4.71-4.71-.8.8-5.66,1.54-2.12,9.56.34.34,4.85-4.85h.01c-.1-.19-.16-.41-.16-.65,0-.83.67-1.5,1.5-1.5s1.5.67,1.5,1.5-.67,1.5-1.5,1.5c-.24,0-.46-.06-.66-.16h.01s-4.85,4.87-4.85,4.87l.34.34Z"/><path d="M6.5 8.5 6.5 6 9 6 9 5 6.5 5 6.5 2.5 5.5 2.5 5.5 5 3 5 3 6 5.5 6 5.5 8.5 6.5 8.5z"/></svg>