<svg xmlns="http://www.w3.org/2000/svg" viewBox="0 0 24 24" width="24" height="24"><path d="m4.89,10l2.04,10.2c.09.47.51.8.98.8h1.74l-1.1-11h-3.66Z"/><path d="M10.65 21 13.35 21 14.45 10 9.55 10 10.65 21z"/><path d="m17.07,20.2l2.04-10.2h-3.66l-1.1,11h1.74c.47,0,.89-.34.98-.8Z"/><path d="m17.99,5.75c-.37-1.1-1.46-1.87-2.71-1.87-.35,0-.7.06-1.03.19-.53-.66-1.36-1.06-2.25-1.06s-1.72.4-2.25,1.06c-.33-.12-.68-.19-1.03-.19-1.25,0-2.34.77-2.71,1.87-1.18.34-2.01,1.38-2.01,2.57,0,.24.04.47.11.69h15.79c.06-.22.11-.45.11-.69,0-1.19-.83-2.23-2.01-2.57Z"/></svg>