<svg xmlns="http://www.w3.org/2000/svg" width="24" height="24" viewBox="0 0 24 24"><path d="M17.3 13.56c.13 0 .26-.05.35-.15l2.47-2.47a1.983 1.983 0 0 0 0-2.82l-1.77-1.77 2.12-2.12-.71-.71-2.12 2.12-1.77-1.77c-.75-.76-2.07-.76-2.83 0l-2.47 2.47c-.2.2-.2.51 0 .71l6.36 6.36c.1.1.23.15.35.15ZM13.41 12.71l-2.12 2.12-2.12-2.12 2.12-2.12-.71-.71L8.46 12l-1.41-1.41c-.2-.2-.51-.2-.71 0l-2.47 2.47a1.983 1.983 0 0 0 0 2.82l1.77 1.77-2.12 2.12.71.71 2.12-2.12 1.77 1.77a1.983 1.983 0 0 0 2.82 0l2.47-2.47c.2-.2.2-.51 0-.71L12 15.54l2.12-2.12z"/></svg>