<svg xmlns="http://www.w3.org/2000/svg" viewBox="0 0 24 24" width="24" height="24"><path d="m17.71,5.64c-.28-.4-.74-.64-1.23-.64h-2.98c-.28,0-.5.22-.5.5v4.5H3.5c-.28,0-.5.22-.5.5v4c0,.83.67,1.5,1.5,1.5h.07c-.03.16-.07.33-.07.5,0,1.38,1.12,2.5,2.5,2.5s2.5-1.12,2.5-2.5c0-.17-.03-.34-.07-.5h5.13c-.03.16-.07.33-.07.5,0,1.38,1.12,2.5,2.5,2.5s2.5-1.12,2.5-2.5c0-.17-.03-.34-.07-.5h.07c.83,0,1.5-.67,1.5-1.5v-3.68c0-.31-.09-.61-.27-.86l-3.02-4.32Zm-3.71.36h2.48c.16,0,.32.08.41.21l2.65,3.79h-5.54v-4Zm-7,12c-.83,0-1.5-.67-1.5-1.5,0-.26.07-.53.2-.75.28-.47.76-.75,1.3-.75.13,0,.27.02.39.05.38.1.7.35.91.7.13.22.2.49.2.75,0,.83-.67,1.5-1.5,1.5Zm10,0c-.83,0-1.5-.67-1.5-1.5,0-.26.07-.53.2-.75.28-.47.76-.75,1.3-.75.13,0,.27.02.39.05.38.1.7.35.91.7.13.22.2.49.2.75,0,.83-.67,1.5-1.5,1.5Z"/></svg>