<svg xmlns="http://www.w3.org/2000/svg" viewBox="0 0 24 24" width="24" height="24"><path d="m8,3c-.23,0-.43.15-.48.37l-.31,1.16c6.6.36,11.9,5.65,12.26,12.26l1.16-.31c.22-.06.37-.26.37-.48,0-7.17-5.83-13-13-13Z"/><path d="m6.95,5.52l-3.93,14.85c-.05.17,0,.36.13.48.09.09.22.15.35.15.04,0,.09,0,.13-.02l14.85-3.93c-.23-6.26-5.27-11.3-11.53-11.53Zm.55,12.48c-.83,0-1.5-.67-1.5-1.5s.67-1.5,1.5-1.5,1.5.67,1.5,1.5-.67,1.5-1.5,1.5Zm1-6c-.83,0-1.5-.67-1.5-1.5s.67-1.5,1.5-1.5,1.5.67,1.5,1.5-.67,1.5-1.5,1.5Zm4.5,4c-1.1,0-2-.9-2-2s.9-2,2-2,2,.9,2,2-.9,2-2,2Z"/></svg>