<svg xmlns="http://www.w3.org/2000/svg" width="24" height="24" viewBox="0 0 24 24"><path d="M18.05 21h.33c.16 0 .3-.09.39-.21l2.14-3.09c.08-.11.11-.25.08-.38s-.1-.25-.21-.32l-4.64-3.09a.49.49 0 0 0-.64.08l-2.01 2.18c-.65-.36-2.13-1.25-3.26-2.38s-2.02-2.61-2.38-3.26l2.18-2.02c.18-.17.21-.44.08-.64L7.02 3.23a.47.47 0 0 0-.32-.21.47.47 0 0 0-.38.08L3.24 5.24a.47.47 0 0 0-.21.39c-.01.26-.23 6.36 4.39 10.99 4.09 4.09 9.22 4.4 10.65 4.4ZM15 3c-1.6 0-3.11.62-4.24 1.76l.71.71c.94-.94 2.2-1.46 3.54-1.46s2.59.52 3.54 1.46 1.46 2.2 1.46 3.54-.52 2.59-1.46 3.54l.71.71c1.13-1.13 1.76-2.64 1.76-4.24s-.62-3.11-1.76-4.24a5.97 5.97 0 0 0-4.24-1.76Z"/><path d="M17.12 11.12c.57-.57.88-1.32.88-2.12s-.31-1.55-.88-2.12a3 3 0 0 0-4.24 0l.71.71c.78-.78 2.05-.78 2.83 0a1.983 1.983 0 0 1 0 2.82l.71.71Z"/></svg>