<svg xmlns="http://www.w3.org/2000/svg" width="24" height="24" viewBox="0 0 24 24"><path d="M13.26 3.09c-2.83-.39-5.62.54-7.63 2.55s-2.94 4.79-2.55 7.63c.48 3.5 3.11 6.48 6.56 7.42.78.21 1.57.32 2.36.32h.12c.82-.01 1.57-.44 2-1.14s.48-1.55.12-2.29l-.19-.39c-.53-1.1-.11-2.09.45-2.66.57-.57 1.56-.98 2.66-.45l.39.19c.74.36 1.59.31 2.29-.12s1.12-1.18 1.14-2c.01-.83-.09-1.66-.32-2.48-.93-3.45-3.92-6.08-7.42-6.56ZM7.32 14.76c-.55 0-1-.45-1-1s.45-1 1-1 1 .45 1 1-.45 1-1 1m.07-3.58c-.62 0-1.12-.5-1.12-1.12s.5-1.12 1.12-1.12 1.12.5 1.12 1.12-.5 1.12-1.12 1.12m2.81-2.61a1.25 1.25 0 1 1 0-2.5 1.25 1.25 0 0 1 0 2.5m4.06.36c-.76 0-1.38-.62-1.38-1.38s.62-1.38 1.38-1.38 1.38.62 1.38 1.38-.62 1.38-1.38 1.38"/></svg>