<svg xmlns="http://www.w3.org/2000/svg" viewBox="0 0 24 24" width="24" height="24"><path d="m8.71,17.3l2.17-3.44,3.58,2.38c.08.06.15.14.19.23l1.88,4.71.93-.37-1.88-4.71c-.11-.28-.31-.52-.56-.69l-2.33-1.56,2.89-4.55h.02s.06.07.09.1l1.28,1.6c.25.32.62.51,1.02.56.05,0,.1,0,.16,0,.35,0,.68-.12.96-.35l2.22-1.85-.64-.77-2.22,1.85c-.1.09-.23.13-.37.11-.13-.01-.26-.08-.34-.19l-1.28-1.6c-.08-.1-.17-.19-.27-.27l-1.69-1.26c-.21-.16-.46-.26-.71-.29l-3.16-.4c-.53-.07-1.06.16-1.39.59l-2.65,3.54.8.6,2.65-3.54c.11-.14.28-.22.46-.2l2.94.37-5.58,8.83c-.09.15-.25.23-.42.23h-3.45v1h3.45c.52,0,.99-.26,1.27-.7Z"/><path d="M16.49 4A1.5 1.5 0 1 0 16.49 7 1.5 1.5 0 1 0 16.49 4z"/></svg>