<svg xmlns="http://www.w3.org/2000/svg" viewBox="0 0 24 24" width="24" height="24"><path d="m13.71,10.99c.44.76.34,1.78-.3,2.42-.76.76-2.06.76-2.83,0-.76-.76-.76-2.06,0-2.83.64-.64,1.66-.74,2.42-.3l2.13-2.13c-.9-.74-1.98-1.16-3.13-1.16-1.32,0-2.57.53-3.52,1.48-.95.95-1.48,2.2-1.48,3.52s.53,2.57,1.48,3.52,2.2,1.48,3.52,1.48,2.57-.53,3.52-1.48l.71.71c-1.14,1.14-2.64,1.77-4.23,1.77s-3.09-.63-4.23-1.77-1.77-2.64-1.77-4.23.63-3.09,1.77-4.23c1.14-1.14,2.64-1.77,4.23-1.77,1.42,0,2.77.51,3.86,1.43l2.1-2.1c-1.6-1.44-3.7-2.33-5.96-2.33C7.12,3,3,7.12,3,12s4.12,9,9,9,9-4.12,9-9c0-2.26-.89-4.36-2.33-5.96l-4.95,4.95Z"/></svg>