<svg xmlns="http://www.w3.org/2000/svg" width="24" height="24" viewBox="0 0 24 24"><path d="M12 9a3 3 0 1 0 0 6 3 3 0 1 0 0-6"/><path d="M3.71 15.5c.22.53.5 1.04.83 1.53.32.47.69.92 1.1 1.33s.86.78 1.33 1.1c.48.33 1 .61 1.53.83.54.23 1.11.41 1.69.52.59.12 1.2.18 1.81.18v-1a7.85 7.85 0 0 1-3.11-.63c-.47-.2-.93-.45-1.36-.74a7.3 7.3 0 0 1-1.18-.98 8.158 8.158 0 0 1-1.72-2.55 8 8 0 0 1-.47-1.5c-.11-.53-.16-1.07-.16-1.61a7.85 7.85 0 0 1 .63-3.11c.2-.47.45-.93.74-1.36.28-.42.61-.82.98-1.18.17-.17.34-.33.52-.48L9 7.98V3H4l2.16 2.16c-.18.15-.36.31-.52.48-.41.41-.78.86-1.1 1.33-.33.48-.61 1-.83 1.53-.23.54-.41 1.11-.52 1.69-.12.59-.18 1.2-.18 1.81s.06 1.22.18 1.81c.12.58.29 1.15.52 1.69M20.29 8.5c-.22-.53-.5-1.04-.83-1.53-.32-.47-.69-.92-1.1-1.33s-.86-.78-1.33-1.1c-.48-.33-1-.61-1.53-.83-.54-.23-1.11-.41-1.69-.52-.59-.12-1.2-.18-1.81-.18v1a7.85 7.85 0 0 1 3.11.63c.47.2.93.45 1.36.74.42.28.82.61 1.18.98a8.158 8.158 0 0 1 1.72 2.55c.21.48.36.99.47 1.5.11.53.16 1.07.16 1.61a7.85 7.85 0 0 1-.63 3.11c-.2.47-.45.93-.74 1.36-.28.42-.61.82-.98 1.18-.17.17-.34.33-.52.48L15 16.02v5h5l-2.16-2.16c.18-.15.36-.31.52-.48.41-.41.78-.86 1.1-1.33.33-.48.61-1 .83-1.53.23-.54.41-1.11.52-1.69.12-.59.18-1.2.18-1.81s-.06-1.22-.18-1.81c-.12-.58-.29-1.15-.52-1.69Z"/></svg>