<svg xmlns="http://www.w3.org/2000/svg" viewBox="0 0 24 24" width="24" height="24"><path d="M12 9A3 3 0 1 0 12 15 3 3 0 1 0 12 9z"/><path d="m8,12c0-1.65,1-3.07,2.43-3.68l-2.25-3.9c-.09-.16-.26-.25-.43-.25-.08,0-.17.02-.25.07-1.37.78-2.51,1.92-3.3,3.29s-1.21,2.93-1.2,4.5c0,.28.22.5.5.5h4.55c-.02-.18-.05-.35-.05-.54Z"/><path d="m16.49,4.24c-.08-.04-.16-.07-.25-.07-.17,0-.34.09-.43.25l-2.25,3.9c1.43.61,2.43,2.03,2.43,3.68,0,.18-.03.36-.05.53h4.55c.28,0,.5-.22.5-.5,0-1.57-.41-3.13-1.2-4.5s-1.93-2.51-3.3-3.29Z"/><path d="m14.4,15.18c-.67.51-1.49.82-2.4.82s-1.73-.31-2.4-.82l-2.29,3.96c-.14.24-.06.54.18.68,2.71,1.58,6.29,1.58,9,0,.24-.14.32-.44.18-.68l-2.29-3.96Z"/></svg>