<svg xmlns="http://www.w3.org/2000/svg" viewBox="0 0 24 24" width="24" height="24"><path d="m17.98,9.34c0-.11.02-.23.02-.34,0-3.31-2.69-6-6-6s-6,2.69-6,6c0,.12.01.23.02.34-2.34.82-4.02,3.04-4.02,5.66,0,3.31,2.69,6,6,6,1.54,0,2.94-.59,4-1.54,1.06.95,2.46,1.54,4,1.54,3.31,0,6-2.69,6-6,0-2.61-1.68-4.84-4.02-5.66Zm-10.98-.34c0-2.76,2.24-5,5-5s5,2.24,5,5c0,.03,0,.06,0,.09-.32-.05-.65-.09-.99-.09-1.54,0-2.94.59-4,1.54-1.06-.95-2.46-1.54-4-1.54-.34,0-.67.03-.99.09,0-.03,0-.06,0-.09Zm-4,6c0-2.11,1.31-3.9,3.16-4.64.47,2,1.94,3.62,3.86,4.3,0,.11-.02.23-.02.34,0,1.41.49,2.7,1.3,3.72-.88.78-2.03,1.28-3.3,1.28-2.76,0-5-2.24-5-5Zm13,5c-1.27,0-2.42-.49-3.3-1.28.81-1.02,1.3-2.32,1.3-3.72,0-.12-.01-.23-.02-.34,1.92-.67,3.39-2.29,3.86-4.3,1.85.74,3.16,2.53,3.16,4.64,0,2.76-2.24,5-5,5Z"/></svg>