<svg xmlns="http://www.w3.org/2000/svg" width="24" height="24" viewBox="0 0 24 24"><path d="M16.5 4.21c-.59-.34-1.21-.6-1.85-.8L11.42 9h9.06a8.9 8.9 0 0 0-3.98-4.79M18.11 18.59 14.88 13l-4.52 7.83c.54.1 1.08.17 1.62.17 2.25 0 4.45-.85 6.13-2.41M14.31 10l4.52 7.83c.35-.41.68-.85.96-1.33a8.9 8.9 0 0 0 .97-6.5H14.3ZM9.67 3.31A9.05 9.05 0 0 0 5.88 5.4L9.11 11l4.53-7.84c-1.3-.24-2.65-.2-3.97.15M7.5 19.79c.6.34 1.22.6 1.85.79l3.22-5.59H3.53a8.93 8.93 0 0 0 3.97 4.79ZM4.21 7.5a8.95 8.95 0 0 0-.97 6.5h6.45L5.16 6.15c-.35.42-.68.86-.96 1.35Z"/></svg>