<svg xmlns="http://www.w3.org/2000/svg" viewBox="0 0 24 24" width="24" height="24"><path d="m5,5.5c0-.28.22-.5.5-.5h3.5v-1h-3.5c-.83,0-1.5.67-1.5,1.5v3.5h1v-3.5Z"/><path d="m5,18.5v-3.5h-1v3.5c0,.83.67,1.5,1.5,1.5h3.5v-1h-3.5c-.28,0-.5-.22-.5-.5Z"/><path d="m19,18.5c0,.28-.22.5-.5.5h-3.5v1h3.5c.83,0,1.5-.67,1.5-1.5v-3.5h-1v3.5Z"/><path d="m19,5.5v3.5h1v-3.5c0-.83-.67-1.5-1.5-1.5h-3.5v1h3.5c.28,0,.5.22.5.5Z"/><path d="M7 14H17V17H7z"/><path d="M17 7 7 7 7 11.5 3 11.5 3 12.5 7 12.5 17 12.5 21 12.5 21 11.5 17 11.5 17 7z"/></svg>