<svg xmlns="http://www.w3.org/2000/svg" viewBox="0 0 24 24" width="24" height="24"><path d="M11.5 3H12.5V6H11.5z"/><path d="M7.15 7.85 7.5 7.5 7.85 7.15 6.92 6.21 5.99 5.28 5.64 5.64 5.28 5.99 6.21 6.92 7.15 7.85z"/><path d="M16.85 7.85 17.79 6.92 18.72 5.99 18.36 5.64 18.01 5.28 17.08 6.21 16.15 7.15 16.5 7.5 16.85 7.85z"/><path d="M18 11.5H21V12.5H18z"/><path d="m16.19,12.29c-.04-.09-.11-.16-.19-.21v-.08c0-2.21-1.79-4-4-4s-4,1.79-4,4H3.5c-.17,0-.33.09-.42.23s-.1.33-.03.48l3.76,8c.08.17.26.29.45.29h12.24c.17,0,.33-.09.42-.23s.1-.33.03-.48l-3.76-8Zm-1.19.71h.42l1.41,3h-4.77l-1.5-3h4.44Zm-10.71,0h5.15l1.5,3h-5.24l-1.41-3Zm3.29,7l-1.41-3h5.27l1.5,3h-5.36Zm6.48,0l-1.5-3h4.74l1.41,3h-4.65Z"/></svg>