<svg xmlns="http://www.w3.org/2000/svg" viewBox="0 0 24 24" width="24" height="24"><path d="m15.85,8.17v-.02s-.02,0-.02,0c-.62-2.96-3.26-5.15-6.33-5.15-3.58,0-6.5,2.92-6.5,6.5,0,3.06,2.2,5.71,5.15,6.33v.02s.02,0,.02,0c.62,2.96,3.26,5.15,6.33,5.15,3.58,0,6.5-2.92,6.5-6.5,0-3.06-2.2-5.71-5.15-6.33Zm-6.8,6.81s-.01,0-.02,0c0,0,0-.01,0-.02-.01-.14-.02-.29-.02-.46,0-3.03,2.47-5.5,5.5-5.5.17,0,.32,0,.46.02,0,0,.01,0,.02,0,0,0,0,.01,0,.02.01.14.02.29.02.46,0,3.03-2.47,5.5-5.5,5.5-.17,0-.32,0-.46-.02Z"/></svg>