<svg xmlns="http://www.w3.org/2000/svg" width="24" height="24" viewBox="0 0 24 24"><path d="M19.48 8.84a.45.45 0 0 1-.02-.34c.04-.11.12-.2.22-.26l1.04-.52c.13-.07.23-.19.26-.33s0-.3-.09-.42l-2.83-3.78a.48.48 0 0 0-.4-.2H6.33a.48.48 0 0 0-.4.2L3.1 6.97c-.09.12-.12.27-.09.42.03.14.13.27.26.33l1.04.52c.11.05.19.14.22.26.04.11.03.23-.02.34l-1.07 2.13c-.29.59-.45 1.25-.45 1.91v.56c0 2.16 1.36 4.13 3.39 4.89l3.24 1.21a5.7 5.7 0 0 1 2.02 1.3.485.485 0 0 0 .7 0c.58-.58 1.25-1.01 2.02-1.3l3.24-1.22a5.24 5.24 0 0 0 3.39-4.89v-.56c0-.66-.16-1.32-.45-1.91l-1.07-2.13Z"/></svg>