<svg xmlns="http://www.w3.org/2000/svg" width="24" height="24" viewBox="0 0 24 24"><path d="M14 12c0-1.1-.9-2-2-2s-2 .9-2 2a2 2 0 1 0 4 0M8.11 15.89l.71-.71a4.48 4.48 0 0 1-1.32-3.19c0-1.2.47-2.33 1.32-3.18l-.71-.71a5.46 5.46 0 0 0-1.61 3.89c0 1.47.57 2.85 1.61 3.89ZM15.89 15.89c1.04-1.04 1.61-2.42 1.61-3.89s-.57-2.85-1.61-3.89l-.71.71c.85.85 1.32 1.98 1.32 3.18s-.47 2.33-1.32 3.18zM5.99 18.01C4.38 16.4 3.5 14.27 3.5 12s.88-4.4 2.49-6.01l-.71-.71C3.48 7.07 2.5 9.46 2.5 12s.99 4.92 2.78 6.72zM18.72 5.28l-.71.71C19.62 7.6 20.5 9.73 20.5 12s-.88 4.41-2.49 6.01l.71.71c1.79-1.79 2.78-4.18 2.78-6.72s-.99-4.92-2.78-6.72"/></svg>