<svg xmlns="http://www.w3.org/2000/svg" viewBox="0 0 24 24" width="24" height="24"><path class="b" d="m12,3C7.04,3,3,7.04,3,12s4.04,9,9,9,9-4.04,9-9S16.96,3,12,3Zm0,17c-4.41,0-8-3.59-8-8S7.59,4,12,4s8,3.59,8,8-3.59,8-8,8Z"/><path class="b" d="m8.13,16.58c.68.58,1.47.99,2.32,1.21l7.34-7.34c-.23-.85-.64-1.64-1.21-2.32l-8.45,8.45Z"/><path class="b" d="m13.53,6.23l-7.32,7.32c.23.85.64,1.64,1.21,2.32L15.85,7.44c-.7-.59-1.49-.99-2.32-1.21Z"/><path class="b" d="m7.76,7.76c-1.13,1.13-1.76,2.64-1.76,4.24,0,.11.01.22.02.33l6.29-6.3c-1.64-.08-3.3.48-4.55,1.73Z"/><path class="b" d="m12,18c1.6,0,3.11-.62,4.24-1.76,1.13-1.13,1.76-2.64,1.76-4.24,0-.11-.01-.22-.02-.33l-6.31,6.31c.11,0,.22.02.33.02Z"/></svg>