<svg xmlns="http://www.w3.org/2000/svg" viewBox="0 0 24 24" width="24" height="24"><path d="m12,3c-.52,0-1.74,3.06-1.74,9,0,.6.02,1.16.04,1.7.54.02,1.1.04,1.7.04,5.94,0,9-1.22,9-1.74,0-4.96-4.04-9-9-9Z"/><path d="m9.26,12c0-2.58.32-6.87,1.38-8.89-4.32.66-7.64,4.39-7.64,8.89,0,.43,2.14,1.35,6.3,1.64-.03-.59-.04-1.15-.04-1.64Z"/><path d="m10.36,14.7c.29,4.16,1.21,6.3,1.64,6.3,4.5,0,8.23-3.32,8.89-7.64-2.02,1.06-6.31,1.38-8.89,1.38-.49,0-1.05-.01-1.64-.04Z"/><path d="m3.11,13.36c.59,3.88,3.65,6.94,7.53,7.53-.75-1.42-1.12-3.96-1.28-6.25-2.28-.16-4.83-.54-6.25-1.28Z"/></svg>