<svg xmlns="http://www.w3.org/2000/svg" viewBox="0 0 24 24" width="24" height="24"><path d="m18.5,4H5.5c-.83,0-1.5.67-1.5,1.5v13c0,.83.67,1.5,1.5,1.5h13c.83,0,1.5-.67,1.5-1.5V5.5c0-.83-.67-1.5-1.5-1.5Zm-2.5,8c0,.92-.33,1.76-.85,2.44l1.71,1.71-.71.71-1.71-1.71c-.68.53-1.52.85-2.44.85s-1.76-.33-2.44-.85l-1.71,1.71-.71-.71,1.71-1.71c-.53-.68-.85-1.52-.85-2.44s.33-1.76.85-2.44l-1.71-1.71.71-.71,1.71,1.71c.68-.53,1.52-.85,2.44-.85s1.76.33,2.44.85l1.71-1.71.71.71-1.71,1.71c.53.68.85,1.52.85,2.44Z"/><path d="M12 9A3 3 0 1 0 12 15 3 3 0 1 0 12 9z"/></svg>