<svg xmlns="http://www.w3.org/2000/svg" viewBox="0 0 24 24" width="24" height="24"><path d="m18.64,8.69c-.28-.43-.75-.69-1.26-.69h-2.38v-1.5c0-.83-.67-1.5-1.5-1.5H4.5c-.83,0-1.5.67-1.5,1.5v9c0,.83.67,1.5,1.5,1.5h.07c-.03.16-.07.33-.07.5,0,1.38,1.12,2.5,2.5,2.5s2.5-1.12,2.5-2.5c0-.17-.03-.34-.07-.5h5.13c-.03.16-.07.33-.07.5,0,1.38,1.12,2.5,2.5,2.5s2.5-1.12,2.5-2.5c0-.17-.03-.34-.07-.5h.07c.83,0,1.5-.67,1.5-1.5v-2.71c0-.29-.08-.57-.24-.81l-2.12-3.29Zm-11.64,10.31c-.83,0-1.5-.67-1.5-1.5,0-.26.07-.53.2-.75.28-.47.76-.75,1.3-.75.13,0,.27.02.39.05.38.1.7.35.91.7.13.22.2.49.2.75,0,.83-.67,1.5-1.5,1.5Zm10,0c-.83,0-1.5-.67-1.5-1.5,0-.26.07-.53.2-.75.28-.47.76-.75,1.3-.75.13,0,.27.02.39.05.38.1.7.35.91.7.13.22.2.49.2.75,0,.83-.67,1.5-1.5,1.5Zm-2-7v-3s2.38,0,2.38,0c.17,0,.33.09.42.23l1.78,2.77h-4.58Z"/></svg>