<svg xmlns="http://www.w3.org/2000/svg" viewBox="0 0 24 24" width="24" height="24"><path d="m20,11.5c0,.83-.67,1.5-1.5,1.5H5.5c-.83,0-1.5-.67-1.5-1.5v-.5h-1v.5c0,.81.4,1.53,1,1.99,0,0,0,0,0,.01v7c0,.28.22.5.5.5h4.5v-5h6v5h4.5c.28,0,.5-.22.5-.5v-7s0,0,0-.01c.6-.46,1-1.17,1-1.99v-.5h-1v.5Z"/><path d="m5.87,12h12.26l-1.72-6.62c-.02-.07-.05-.12-.09-.18.42-.45.68-1.04.68-1.7v-.5h-1v.5c0,.83-.67,1.5-1.5,1.5h-.5v-2h-1v2h-2v-2h-1v2h-.5c-.83,0-1.5-.67-1.5-1.5v-.5h-1v.5c0,.66.26,1.25.68,1.7-.04.05-.07.11-.09.18l-1.72,6.62Z"/></svg>