<svg xmlns="http://www.w3.org/2000/svg" viewBox="0 0 24 24" width="24" height="24"><path d="m13.89,7h-3.78c-3.6,0-6.63,3.59-7.06,8.35-.04.42.1.84.39,1.16.29.31.69.49,1.11.49h13.99c.68,0,1.33-.3,1.77-.82.43-.52.62-1.19.5-1.86-.75-4.31-3.6-7.32-6.92-7.32Zm.11,6.5c0,.28-.22.5-.5.5s-.5-.22-.5-.5.22-.5.5-.5.5.22.5.5Zm-3.5-.5c.28,0,.5.22.5.5s-.22.5-.5.5-.5-.22-.5-.5.22-.5.5-.5Zm1-2c.28,0,.5.22.5.5s-.22.5-.5.5-.5-.22-.5-.5.22-.5.5-.5Zm8.04,4.53c-.25.3-.61.47-1,.47h-.14c-.66,0-1.2-.5-1.29-1.18,0-.04-.02-.08-.02-.13-.03-.22-.07-.43-.11-.63-.07-.35-.15-.69-.25-1.03-.02-.08-.04-.16-.06-.23-.07-.23-.16-.45-.24-.67-.03-.06-.05-.13-.07-.19-.09-.23-.19-.45-.3-.66-.02-.05-.05-.09-.07-.14-.12-.22-.24-.44-.37-.65-.01-.02-.02-.04-.03-.05-.55-.88-1.2-1.61-1.95-2.17-.06-.04-.12-.09-.18-.13-.05-.04-.1-.08-.15-.12h.59c2.83,0,5.27,2.67,5.94,6.49.06.37-.04.75-.28,1.04Z"/></svg>