<svg xmlns="http://www.w3.org/2000/svg" viewBox="0 0 24 24" width="24" height="24"><path d="m18.36,5.64c-.83-.83-1.79-1.48-2.86-1.93-1.11-.47-2.29-.71-3.5-.71-.28,0-.5.22-.5.5v4.5h1v-3.98c.9.06,1.78.26,2.61.61.95.4,1.81.98,2.54,1.71.74.74,1.31,1.59,1.71,2.54.42.99.63,2.03.63,3.11s-.21,2.13-.63,3.11c-.4.95-.98,1.81-1.71,2.54-.74.73-1.59,1.31-2.54,1.71-1.97.83-4.26.83-6.23,0-.95-.4-1.81-.98-2.54-1.71-.74-.74-1.31-1.59-1.71-2.54-.42-.99-.63-2.03-.63-3.11s.21-2.13.63-3.11c.4-.95.98-1.81,1.71-2.54l-.71-.71c-.83.83-1.48,1.79-1.93,2.86-.47,1.11-.71,2.29-.71,3.5s.24,2.39.71,3.5c.45,1.07,1.1,2.03,1.93,2.86.83.83,1.79,1.48,2.86,1.93,1.11.47,2.29.71,3.5.71s2.39-.24,3.5-.71c1.07-.45,2.03-1.1,2.86-1.93.83-.83,1.48-1.79,1.93-2.86.47-1.11.71-2.29.71-3.5s-.24-2.39-.71-3.5c-.45-1.07-1.1-2.03-1.93-2.86Z"/><path d="m12.71,11.29l-4.71-3.29,3.29,4.71c.96,1.25,2.67-.45,1.41-1.41Z"/></svg>