<svg xmlns="http://www.w3.org/2000/svg" viewBox="0 0 24 24" width="24" height="24"><path d="m17.07,7.5c.22.86,1,1.5,1.93,1.5,1.1,0,2-.9,2-2s-.9-2-2-2c-.93,0-1.71.64-1.93,1.5h-2.07v-2c0-.28-.22-.5-.5-.5h-5c-.28,0-.5.22-.5.5v2h-2.07c-.22-.86-1-1.5-1.93-1.5-1.1,0-2,.9-2,2s.9,2,2,2c.93,0,1.71-.64,1.93-1.5h2.07v1.63c-.86.38-1.64.9-2.3,1.57-.69.69-1.23,1.49-1.61,2.38-.39.93-.59,1.91-.59,2.92h-1c-.28,0-.5.22-.5.5v3c0,.28.22.5.5.5h3c.28,0,.5-.22.5-.5v-3c0-.28-.22-.5-.5-.5h-1c0-.88.17-1.73.51-2.53.33-.77.8-1.47,1.39-2.07.6-.6,1.29-1.07,2.07-1.39v-.02s.02,0,.03,0h5s.02,0,.04,0v.02c.77.33,1.46.8,2.06,1.39.6.6,1.07,1.29,1.39,2.07.34.8.51,1.65.51,2.53h-1c-.28,0-.5.22-.5.5v3c0,.28.22.5.5.5h3c.28,0,.5-.22.5-.5v-3c0-.28-.22-.5-.5-.5h-1c0-1.01-.2-1.99-.59-2.92-.38-.89-.92-1.69-1.61-2.38-.67-.67-1.44-1.19-2.3-1.57v-1.63h2.07Zm-3.07,1.5h-4v-4h4v4Z"/></svg>