<svg xmlns="http://www.w3.org/2000/svg" viewBox="0 0 24 24" width="24" height="24"><path d="m11.5,16.96v3.04h-2.5v1h6v-1h-2.5v-3.04c2.95-.21,5.49-2.24,6.29-5.1.23-.83.27-1.77.12-2.8l-.81-5.63c-.04-.25-.25-.43-.5-.43H6.39c-.25,0-.46.18-.5.43l-.81,5.63c-.15,1.03-.11,1.98.12,2.8.79,2.86,3.34,4.89,6.29,5.1Zm-5.44-5.9s0,0,0-.01c0,0,.02.01.02.02h-.02Zm.02-1.87l.75-5.2h10.35l.71,4.91c-.91-.65-1.89-.94-2.86-.9h-.02s-.02,0-.02,0c-1.18.06-2.34.6-3.34,1.64-1.55,1.6-3.46,1.79-5.12.51l-.51-.39c.01-.19.03-.38.06-.57Z"/></svg>