<svg xmlns="http://www.w3.org/2000/svg" width="24" height="24" viewBox="0 0 24 24"><path d="m20.98 6.14-.96-.29-1.25 4.14h-5.14l-1.15-3.65a.49.49 0 0 0-.47-.35c-.18.01-.41.14-.48.34l-1.22 3.66H5.23L3.98 5.85l-.96.29L4.19 10H2v1h2.49l.91 3H2v1h3.7l1.1 3.64c.06.21.26.36.48.36H8c.21 0 .41-.14.47-.34L9.69 15h4.46l1.15 3.65c.07.21.26.35.48.35h.95c.22 0 .42-.14.48-.36l1.1-3.64h3.7v-1h-3.4l.91-3h2.49v-1h-2.19l1.17-3.86Zm-8.99 1.98.59 1.88h-1.22zM5.54 11h4.44l-1 3H6.45zm2.11 6.99L6.75 15h1.9zM10.03 14l1-3h1.87l.94 3zm6.32 4h-.21l-.94-3h2.06zm1.21-4h-2.68l-.94-3h4.53z"/></svg>