<svg xmlns="http://www.w3.org/2000/svg" viewBox="0 0 24 24" width="24" height="24"><path d="m18,18.5c.83,0,1.5-.67,1.5-1.5s-.67-1.5-1.5-1.5c-.65,0-1.2.42-1.41,1h-7.09c-.28,0-.5.22-.5.5,0,.8-.31,1.55-.88,2.12-1.13,1.13-3.11,1.13-4.24,0-.57-.57-.88-1.32-.88-2.12s.31-1.55.88-2.12c.37-.37.82-.62,1.35-.76l-.25-.97c-.71.19-1.31.53-1.81,1.02-.76.75-1.17,1.76-1.17,2.83s.42,2.07,1.17,2.83c.75.76,1.76,1.17,2.83,1.17s2.07-.42,2.83-1.17c.64-.64,1.03-1.45,1.14-2.33h6.62c.21.58.76,1,1.41,1Z"/><path d="m6,15.5c-.83,0-1.5.67-1.5,1.5s.67,1.5,1.5,1.5,1.5-.67,1.5-1.5c0-.36-.13-.69-.35-.95l3.48-5.8c.07-.11.09-.25.06-.38-.03-.13-.11-.24-.23-.31-.23-.14-.42-.28-.58-.44-.57-.57-.88-1.32-.88-2.12s.31-1.55.88-2.12c1.13-1.13,3.11-1.13,4.24,0,.73.73,1.03,1.78.79,2.81l.97.23c.32-1.37-.07-2.76-1.05-3.74-1.51-1.51-4.15-1.51-5.66,0-.76.75-1.17,1.76-1.17,2.83s.42,2.07,1.17,2.83c.11.11.23.22.36.32l-3.23,5.39c-.1-.02-.2-.03-.3-.03Z"/><path d="m18,13c-.56,0-1.11.12-1.61.34l-3.24-5.39c.21-.26.35-.59.35-.95,0-.83-.67-1.5-1.5-1.5s-1.5.67-1.5,1.5.67,1.5,1.5,1.5c.1,0,.2-.01.3-.03l3.47,5.79c.07.11.18.2.31.23.13.03.27.01.38-.06.46-.28,1-.43,1.54-.43,1.65,0,3,1.35,3,3s-1.35,3-3,3c-.79,0-1.53-.3-2.09-.86l-.7.71c.75.74,1.75,1.14,2.79,1.14,2.21,0,4-1.79,4-4s-1.79-4-4-4Z"/></svg>