<svg xmlns="http://www.w3.org/2000/svg" viewBox="0 0 24 24" width="24" height="24"><path d="m13,20.5c0,.83.67,1.5,1.5,1.5h6c.83,0,1.5-.67,1.5-1.5v-6c0-.83-.67-1.5-1.5-1.5s-1.5.67-1.5,1.5v2.38l-5.94-5.94c-.59-.59-1.54-.59-2.12,0-.59.59-.59,1.54,0,2.12l5.94,5.94h-2.38c-.83,0-1.5.67-1.5,1.5Z"/><path d="m22,6.5c0-2.48-2.02-4.5-4.5-4.5H6.5c-2.48,0-4.5,2.02-4.5,4.5v11c0,2.48,2.02,4.5,4.5,4.5h3c.83,0,1.5-.67,1.5-1.5s-.67-1.5-1.5-1.5h-3c-.83,0-1.5-.67-1.5-1.5V6.5c0-.83.67-1.5,1.5-1.5h11c.83,0,1.5.67,1.5,1.5v3c0,.83.67,1.5,1.5,1.5s1.5-.67,1.5-1.5v-3Z"/></svg>