<svg xmlns="http://www.w3.org/2000/svg" viewBox="0 0 24 24" width="24" height="24"><path d="m13.25,15.75c0-.41-.34-.75-.75-.75s-.75.34-.75.75c0,.24-.07.32-.3.57-.28.3-.7.76-.7,1.59s.42,1.29.7,1.59c.23.25.3.34.3.58s-.07.32-.3.58c-.28.3-.7.76-.7,1.59,0,.41.34.75.75.75s.75-.34.75-.75c0-.24.07-.32.3-.58.28-.3.7-.76.7-1.59s-.42-1.29-.7-1.59c-.23-.25-.3-.34-.3-.58s.07-.32.3-.57c.28-.3.7-.76.7-1.59Z"/><path d="m17.75,15.75c0-.41-.34-.75-.75-.75s-.75.34-.75.75c0,.24-.07.32-.3.57-.28.3-.7.76-.7,1.59s.42,1.29.7,1.59c.23.25.3.34.3.58s-.07.32-.3.58c-.28.3-.7.76-.7,1.59,0,.41.34.75.75.75s.75-.34.75-.75c0-.24.07-.32.3-.58.28-.3.7-.76.7-1.59s-.42-1.29-.7-1.59c-.23-.25-.3-.34-.3-.58s.07-.32.3-.57c.28-.3.7-.76.7-1.59Z"/><path d="m8.75,15.75c0-.41-.34-.75-.75-.75s-.75.34-.75.75c0,.24-.07.32-.3.57-.28.3-.7.76-.7,1.59s.42,1.29.7,1.59c.23.25.3.34.3.58s-.07.32-.3.58c-.28.3-.7.76-.7,1.59,0,.41.34.75.75.75s.75-.34.75-.75c0-.24.07-.32.3-.58.28-.3.7-.76.7-1.59s-.42-1.29-.7-1.59c-.23-.25-.3-.34-.3-.58s.07-.32.3-.57c.28-.3.7-.76.7-1.59Z"/><path d="m18.5,1H5.5C3.02,1,1,3.02,1,5.5v3c0,2.48,2.02,4.5,4.5,4.5h13c2.48,0,4.5-2.02,4.5-4.5v-3c0-2.48-2.02-4.5-4.5-4.5Zm1.5,7.5c0,.83-.67,1.5-1.5,1.5H5.5c-.83,0-1.5-.67-1.5-1.5v-3c0-.83.67-1.5,1.5-1.5h13c.83,0,1.5.67,1.5,1.5v3Z"/><path d="m17.5,8H6.5c-.28,0-.5.22-.5.5s.22.5.5.5h11c.28,0,.5-.22.5-.5s-.22-.5-.5-.5Z"/><path d="M17.5 5A.5.5 0 1 0 17.5 6 .5.5 0 1 0 17.5 5z"/></svg>