<svg xmlns="http://www.w3.org/2000/svg" viewBox="0 0 24 24" width="24" height="24"><path d="m12,2C6.58,2,2,6.58,2,12c0,2.56,1.03,4.92,2.67,6.71l-1.67,1.67c-.59.59-.59,1.54,0,2.12.59.59,1.54.59,2.12,0l1.89-1.89c1.48.88,3.18,1.39,4.99,1.39s3.51-.52,4.99-1.39l1.89,1.89c.59.59,1.54.59,2.12,0,.59-.59.59-1.54,0-2.12l-1.67-1.67c1.64-1.79,2.67-4.15,2.67-6.71,0-5.42-4.58-10-10-10Zm-7,10c0-3.79,3.21-7,7-7s7,3.21,7,7-3.21,7-7,7-7-3.21-7-7Z"/><path d="m16.25,11.25h-3.5v-3.5c0-.41-.34-.75-.75-.75s-.75.34-.75.75v4.25c0,.41.34.75.75.75h4.25c.41,0,.75-.34.75-.75s-.34-.75-.75-.75Z"/><path d="m6.47,2.55c.52-.31.49-1.11-.08-1.33-1.44-.57-3.13-.28-4.29.88s-1.45,2.86-.88,4.29c.23.57,1.02.6,1.33.08.96-1.6,2.31-2.96,3.92-3.92Z"/><path d="m17.61,1.22c-.57.23-.6,1.02-.08,1.33,1.6.96,2.96,2.31,3.92,3.92.31.52,1.11.49,1.33-.08.57-1.44.28-3.13-.88-4.29-1.16-1.16-2.86-1.45-4.29-.88Z"/></svg>