<svg xmlns="http://www.w3.org/2000/svg" viewBox="0 0 24 24" width="24" height="24"><path d="m12,3C6.58,3,2,7.58,2,13s4.58,10,10,10,10-4.58,10-10S17.42,3,12,3Zm0,17c-3.79,0-7-3.21-7-7s3.21-7,7-7,7,3.21,7,7-3.21,7-7,7Z"/><path d="m19.02,1.97c-.29-.29-.77-.29-1.06,0-.29.29-.29.77,0,1.06l3.01,3c.15.15.34.22.53.22s.38-.07.53-.22c.29-.29.29-.77,0-1.06l-3.01-3Z"/><path d="m3.03,6.03l2.99-3c.29-.29.29-.77,0-1.06-.29-.29-.77-.29-1.06,0l-2.99,3c-.29.29-.29.77,0,1.06.15.15.34.22.53.22s.38-.07.53-.22Z"/><path d="m14.25,15h-2.92l3.5-4.28c.18-.22.22-.53.1-.8s-.39-.43-.68-.43h-4.5c-.41,0-.75.34-.75.75s.34.75.75.75h2.92l-3.5,4.28c-.18.22-.22.53-.1.8s.39.43.68.43h4.5c.41,0,.75-.34.75-.75s-.34-.75-.75-.75Z"/></svg>