<svg xmlns="http://www.w3.org/2000/svg" viewBox="0 0 24 24" width="24" height="24"><path d="m10.59,15.22c.15.15.34.22.53.22s.38-.07.53-.22l4.38-4.38c.29-.29.29-.77,0-1.06s-.77-.29-1.06,0l-3.84,3.84-2.09-2.09c-.29-.29-.77-.29-1.06,0s-.29.77,0,1.06l2.62,2.62Z"/><path d="m2,13c0,5.42,4.58,10,10,10s10-4.58,10-10S17.42,3,12,3,2,7.58,2,13Zm10-7c3.79,0,7,3.21,7,7s-3.21,7-7,7-7-3.21-7-7,3.21-7,7-7Z"/><path d="m20.97,6.03c.15.15.34.22.53.22s.38-.07.53-.22c.29-.29.29-.77,0-1.06l-3.01-3c-.29-.29-.77-.29-1.06,0-.29.29-.29.77,0,1.06l3.01,3Z"/><path d="m2.5,6.25c.19,0,.38-.07.53-.22l2.99-3c.29-.29.29-.77,0-1.06-.29-.29-.77-.29-1.06,0l-2.99,3c-.29.29-.29.77,0,1.06.15.15.34.22.53.22Z"/></svg>