<svg xmlns="http://www.w3.org/2000/svg" width="24" height="24" viewBox="0 0 24 24"><path d="M6.75 16.75h7c.41 0 .75-.34.75-.75s-.34-.75-.75-.75h-7c-.41 0-.75.34-.75.75s.34.75.75.75M6.75 12.75h10.5c.41 0 .75-.34.75-.75s-.34-.75-.75-.75H6.75c-.41 0-.75.34-.75.75s.34.75.75.75M6.75 8.75h10.5c.41 0 .75-.34.75-.75s-.34-.75-.75-.75H6.75c-.41 0-.75.34-.75.75s.34.75.75.75"/><path d="M5.5 22h13c2.48 0 4.5-2.02 4.5-4.5v-11C23 4.02 20.98 2 18.5 2h-13C3.02 2 1 4.02 1 6.5v11C1 19.98 3.02 22 5.5 22M4 6.5C4 5.67 4.67 5 5.5 5h13c.83 0 1.5.67 1.5 1.5v11c0 .83-.67 1.5-1.5 1.5h-13c-.83 0-1.5-.67-1.5-1.5z"/></svg>