<svg xmlns="http://www.w3.org/2000/svg" viewBox="0 0 24 24" width="24" height="24"><path d="m22,3.5c0-.83-.67-1.5-1.5-1.5h-6c-.83,0-1.5.67-1.5,1.5s.67,1.5,1.5,1.5h2.38l-5.94,5.94c-.59.59-.59,1.54,0,2.12.29.29.68.44,1.06.44s.77-.15,1.06-.44l5.94-5.94v2.38c0,.83.67,1.5,1.5,1.5s1.5-.67,1.5-1.5V3.5Z"/><path d="m6.5,5h3c.83,0,1.5-.67,1.5-1.5s-.67-1.5-1.5-1.5h-3c-2.48,0-4.5,2.02-4.5,4.5v11c0,2.48,2.02,4.5,4.5,4.5h11c2.48,0,4.5-2.02,4.5-4.5v-3c0-.83-.67-1.5-1.5-1.5s-1.5.67-1.5,1.5v3c0,.83-.67,1.5-1.5,1.5H6.5c-.83,0-1.5-.67-1.5-1.5V6.5c0-.83.67-1.5,1.5-1.5Z"/></svg>