<svg xmlns="http://www.w3.org/2000/svg" width="24" height="24" viewBox="0 0 24 24"><path d="M12.53 7.47a.754.754 0 0 0-1.06 0l-3.25 3.25c-.29.29-.29.77 0 1.06s.77.29 1.06 0l1.97-1.97V16c0 .41.34.75.75.75s.75-.34.75-.75V9.81l1.97 1.97c.15.15.34.22.53.22s.38-.07.53-.22c.29-.29.29-.77 0-1.06z"/><path d="M17.5 2h-11C4.02 2 2 4.02 2 6.5v11C2 19.98 4.02 22 6.5 22h11c2.48 0 4.5-2.02 4.5-4.5v-11C22 4.02 19.98 2 17.5 2M19 17.5c0 .83-.67 1.5-1.5 1.5h-11c-.83 0-1.5-.67-1.5-1.5v-11C5 5.67 5.67 5 6.5 5h11c.83 0 1.5.67 1.5 1.5z"/></svg>