<svg xmlns="http://www.w3.org/2000/svg" viewBox="0 0 24 24" width="24" height="24"><path d="m10.26,3.01c-.78.38-1.26,1.15-1.26,2.02v1.97h-.5c-1.38,0-2.5,1.12-2.5,2.5v5c0,1.38,1.12,2.5,2.5,2.5h.5v1.97c0,.87.48,1.64,1.26,2.02.32.16.66.23.99.23.49,0,.97-.16,1.37-.47l9.02-6.97c.56-.43.87-1.08.87-1.78s-.32-1.35-.87-1.78h0L12.63,3.25c-.68-.53-1.59-.62-2.37-.24Zm1.74,14.44v-1.95c0-.83-.67-1.5-1.5-1.5h-1.5v-4h1.5c.83,0,1.5-.67,1.5-1.5v-1.95l7.05,5.45-7.05,5.45Z"/><path d="m4,16.25V7.75c0-.83-.67-1.5-1.5-1.5s-1.5.67-1.5,1.5v8.5c0,.83.67,1.5,1.5,1.5s1.5-.67,1.5-1.5Z"/></svg>