<svg xmlns="http://www.w3.org/2000/svg" viewBox="0 0 24 24" width="24" height="24"><path d="m21.5,1h-6c-.83,0-1.5.67-1.5,1.5s.67,1.5,1.5,1.5h2.38l-6.94,6.94c-.59.59-.59,1.54,0,2.12.29.29.68.44,1.06.44s.77-.15,1.06-.44l6.94-6.94v2.38c0,.83.67,1.5,1.5,1.5s1.5-.67,1.5-1.5V2.5c0-.83-.67-1.5-1.5-1.5Z"/><path d="m12,23c2.94,0,5.7-1.14,7.78-3.22,1.64-1.64,2.71-3.73,3.07-6.04.13-.82-.43-1.59-1.25-1.72-.82-.13-1.59.43-1.72,1.25-.27,1.68-1.04,3.2-2.23,4.39-1.51,1.51-3.52,2.34-5.66,2.34s-4.15-.83-5.66-2.34-2.34-3.52-2.34-5.66.83-4.15,2.34-5.66c1.19-1.19,2.71-1.96,4.39-2.23.82-.13,1.38-.9,1.25-1.72-.13-.82-.91-1.38-1.72-1.25-2.31.37-4.4,1.43-6.04,3.07-2.08,2.08-3.22,4.84-3.22,7.78s1.14,5.7,3.22,7.78c2.08,2.08,4.84,3.22,7.78,3.22Z"/></svg>