<svg xmlns="http://www.w3.org/2000/svg" viewBox="0 0 24 24" width="24" height="24"><path d="m7.75,13.75h3.5v3.5c0,.41.34.75.75.75s.75-.34.75-.75v-3.5h3.5c.41,0,.75-.34.75-.75s-.34-.75-.75-.75h-3.5v-3.5c0-.41-.34-.75-.75-.75s-.75.34-.75.75v3.5h-3.5c-.41,0-.75.34-.75.75s.34.75.75.75Z"/><path d="m2,13c0,5.42,4.58,10,10,10s10-4.58,10-10S17.42,3,12,3,2,7.58,2,13Zm10-7c3.79,0,7,3.21,7,7s-3.21,7-7,7-7-3.21-7-7,3.21-7,7-7Z"/><path d="m22.03,4.97l-3.01-3c-.29-.29-.77-.29-1.06,0-.29.29-.29.77,0,1.06l3.01,3c.15.15.34.22.53.22s.38-.07.53-.22c.29-.29.29-.77,0-1.06Z"/><path d="m2.5,6.25c.19,0,.38-.07.53-.22l2.99-3c.29-.29.29-.77,0-1.06-.29-.29-.77-.29-1.06,0l-2.99,3c-.29.29-.29.77,0,1.06.15.15.34.22.53.22Z"/></svg>