<svg xmlns="http://www.w3.org/2000/svg" viewBox="0 0 24 24" width="24" height="24"><rect x="9" y="10" width="2" height="2" rx=".5" ry=".5"/><rect x="9" y="6" width="2" height="2" rx=".5" ry=".5"/><rect x="5" y="14" width="2" height="2" rx=".5" ry=".5"/><rect x="17" y="14" width="2" height="2" rx=".5" ry=".5"/><rect x="17" y="10" width="2" height="2" rx=".5" ry=".5"/><rect x="13" y="6" width="2" height="2" rx=".5" ry=".5"/><rect x="13" y="10" width="2" height="2" rx=".5" ry=".5"/><path d="m20.5,5h-.5v-.5c0-1.93-1.57-3.5-3.5-3.5H7.5c-1.93,0-3.5,1.57-3.5,3.5v4.5h-.5c-1.93,0-3.5,1.57-3.5,3.5v7.5c0,1.65,1.35,3,3,3h18c1.65,0,3-1.35,3-3v-11.5c0-1.93-1.57-3.5-3.5-3.5Zm.5,15h-7v-4c0-.55-.45-1-1-1h-2c-.55,0-1,.45-1,1v4H3v-7.5c0-.28.22-.5.5-.5h2c.83,0,1.5-.67,1.5-1.5v-6c0-.28.22-.5.5-.5h9c.28,0,.5.22.5.5v2c0,.83.67,1.5,1.5,1.5h2c.28,0,.5.22.5.5v11.5Z"/></svg>