<svg xmlns="http://www.w3.org/2000/svg" width="24" height="24" viewBox="0 0 24 24"><path d="M20.84 5.87c-.53-.14-.93-.37-1.4-.66-.9-.54-2.02-1.21-4.1-1.21s-3.2.67-4.11 1.21c-.76.46-1.31.79-2.56.79s-1.8-.33-2.56-.79c-.6-.36-1.29-.78-2.3-1.02C2.89 3.97 2 4.66 2 5.6v.09c0 .69.49 1.25 1.16 1.42.53.14.93.37 1.4.66.9.54 2.02 1.21 4.11 1.21s3.2-.67 4.11-1.21c.76-.46 1.31-.79 2.56-.79s1.8.33 2.56.79c.6.36 1.29.78 2.3 1.02.92.22 1.81-.47 1.81-1.41v-.09c0-.69-.49-1.25-1.16-1.42ZM20.84 11.37c-.53-.14-.93-.37-1.4-.66-.9-.54-2.02-1.21-4.1-1.21s-3.2.67-4.11 1.21c-.76.46-1.31.79-2.56.79s-1.8-.33-2.56-.79c-.6-.36-1.29-.78-2.3-1.02C2.89 9.47 2 10.16 2 11.1v.09c0 .69.49 1.25 1.16 1.42.53.14.93.37 1.4.66.9.54 2.02 1.21 4.11 1.21s3.2-.67 4.11-1.21c.76-.46 1.31-.79 2.56-.79s1.8.33 2.56.79c.6.36 1.29.78 2.3 1.02.92.22 1.81-.47 1.81-1.41v-.09c0-.69-.49-1.25-1.16-1.42ZM20.84 16.87c-.53-.14-.93-.37-1.4-.66-.9-.54-2.02-1.21-4.1-1.21s-3.2.67-4.11 1.21c-.76.46-1.31.79-2.56.79s-1.8-.33-2.56-.79c-.6-.36-1.29-.78-2.3-1.02-.92-.22-1.81.47-1.81 1.41v.09c0 .69.49 1.25 1.16 1.42.53.14.93.37 1.4.66.9.54 2.02 1.21 4.11 1.21s3.2-.67 4.11-1.21c.76-.46 1.31-.79 2.56-.79s1.8.33 2.56.79c.6.36 1.29.78 2.3 1.02.92.22 1.81-.47 1.81-1.41v-.09c0-.69-.49-1.25-1.16-1.42Z"/></svg>