<svg xmlns="http://www.w3.org/2000/svg" viewBox="0 0 24 24" width="24" height="24"><path d="m16.25,12.25h-3.5v-3.5c0-.41-.34-.75-.75-.75s-.75.34-.75.75v4.25c0,.41.34.75.75.75h4.25c.41,0,.75-.34.75-.75s-.34-.75-.75-.75Z"/><path d="m22,13c0-5.42-4.58-10-10-10S2,7.58,2,13s4.58,10,10,10,10-4.58,10-10Zm-10,7c-3.79,0-7-3.21-7-7s3.21-7,7-7,7,3.21,7,7-3.21,7-7,7Z"/><path d="m22.03,4.97l-3.01-3c-.29-.29-.77-.29-1.06,0s-.29.77,0,1.06l3.01,3c.15.15.34.22.53.22s.38-.07.53-.22c.29-.29.29-.77,0-1.06Z"/><path d="m2.5,6.25c.19,0,.38-.07.53-.22l2.99-3c.29-.29.29-.77,0-1.06-.29-.29-.77-.29-1.06,0l-2.99,3c-.29.29-.29.77,0,1.06.15.15.34.22.53.22Z"/></svg>