<svg xmlns="http://www.w3.org/2000/svg" viewBox="0 0 24 24" width="24" height="24"><path d="m18.5,5h-6.89c.55-2.39,3.07-2.5,3.39-2.5.41,0,.75-.34.75-.75s-.34-.75-.75-.75c-1.57,0-4.41.87-4.91,4h-4.59c-2.48,0-4.5,2.02-4.5,4.5,0,.95.38,1.81,1,2.44v1.12c0,3.28,1.92,6.3,4.88,7.69l3.2,1.51c.61.29,1.26.43,1.92.43s1.31-.14,1.92-.43l3.2-1.51c2.96-1.4,4.88-4.41,4.88-7.69v-1.12c.62-.63,1-1.49,1-2.44,0-2.48-2.02-4.5-4.5-4.5Zm-13,3h13c.83,0,1.5.67,1.5,1.5,0,.28-.22.5-.5.5H4.5c-.28,0-.5-.22-.5-.5,0-.83.67-1.5,1.5-1.5Zm13.5,5.06c0,2.12-1.24,4.07-3.16,4.98l-3.2,1.51c-.41.19-.87.19-1.28,0l-3.2-1.51c-1.92-.9-3.16-2.86-3.16-4.98v-.06h14v.06Z"/></svg>