<svg xmlns="http://www.w3.org/2000/svg" viewBox="0 0 24 24" width="24" height="24"><path class="b" d="m20.49,19.38l-2.39-2.38c.58-1.28.9-2.7.9-4.19v-.31c0-.83-.67-1.5-1.5-1.5s-1.5.67-1.5,1.5v.31c0,.64-.08,1.27-.24,1.86l-4.53-4.5.9-.53c1.82-1.07,2.67-3.19,2.13-5.25-.54-2.03-2.22-3.36-4.25-3.39h-.23c-1.99.03-3.7,1.22-4.46,3.1-.76,1.89-.35,4.02,1.04,5.47l-.61.36c-1.72,1.02-3.06,2.64-3.54,4.58-1.11,4.48,2.28,8.49,6.6,8.49,3.03,0,5.75-1.33,7.62-3.43l1.95,1.94c.59.58,1.54.58,2.12,0,.58-.59.58-1.54,0-2.12ZM8.1,5.22c.11-.28.57-1.2,1.82-1.22,1.05.02,1.36.89,1.43,1.16.16.61.05,1.43-.75,1.9l-1.57.93-.47-.47c-.73-.72-.71-1.66-.45-2.3Zm.71,14.78c-2.1,0-3.81-1.69-3.81-3.78,0-1.46.78-2.83,2.04-3.57l1.52-.9,5.74,5.7c-1.32,1.56-3.29,2.55-5.48,2.55Z"/></svg>