<svg xmlns="http://www.w3.org/2000/svg" viewBox="0 0 24 24" width="24" height="24"><path d="m21.5,14c-.83,0-1.5.67-1.5,1.5v2.38l-6.94-6.94c-.59-.59-1.54-.59-2.12,0-.59.59-.59,1.54,0,2.12l6.94,6.94h-2.38c-.83,0-1.5.67-1.5,1.5s.67,1.5,1.5,1.5h6c.83,0,1.5-.67,1.5-1.5v-6c0-.83-.67-1.5-1.5-1.5Z"/><path d="m10.26,22.85c.08.01.16.02.24.02.72,0,1.36-.53,1.48-1.26.13-.82-.43-1.59-1.25-1.72-1.68-.27-3.2-1.04-4.39-2.23-1.51-1.51-2.34-3.52-2.34-5.66s.83-4.15,2.34-5.66c1.51-1.51,3.52-2.34,5.66-2.34s4.15.83,5.66,2.34c1.19,1.19,1.96,2.71,2.23,4.39.13.82.89,1.38,1.72,1.25.82-.13,1.38-.9,1.25-1.72-.37-2.31-1.43-4.4-3.07-6.04-2.08-2.08-4.84-3.22-7.78-3.22s-5.7,1.14-7.78,3.22c-2.08,2.08-3.22,4.84-3.22,7.78s1.14,5.7,3.22,7.78c1.64,1.64,3.73,2.71,6.04,3.07Z"/></svg>