<svg xmlns="http://www.w3.org/2000/svg" viewBox="0 0 24 24" width="24" height="24"><path d="m21.5,2h-10c-.83,0-1.5.67-1.5,1.5s.67,1.5,1.5,1.5h10c.83,0,1.5-.67,1.5-1.5s-.67-1.5-1.5-1.5Z"/><path d="m18.5,7h-7c-.83,0-1.5.67-1.5,1.5s.67,1.5,1.5,1.5h7c.83,0,1.5-.67,1.5-1.5s-.67-1.5-1.5-1.5Z"/><path d="m17,13.5c0-.83-.67-1.5-1.5-1.5h-4c-.83,0-1.5.67-1.5,1.5s.67,1.5,1.5,1.5h4c.83,0,1.5-.67,1.5-1.5Z"/><path d="m5.95,22.4c.3.32.81.32,1.11,0l4.18-4.56c.29-.32.07-.84-.37-.84h-2.86V2.5c0-.83-.67-1.5-1.5-1.5s-1.5.67-1.5,1.5v14.5h-2.3c-.65,0-.99.78-.55,1.26l3.79,4.14Z"/></svg>