<svg xmlns="http://www.w3.org/2000/svg" viewBox="0 0 24 24" width="24" height="24"><path d="m20.97,6.03c.15.15.34.22.53.22s.38-.07.53-.22c.29-.29.29-.77,0-1.06l-3.01-3c-.29-.29-.77-.29-1.06,0-.29.29-.29.77,0,1.06l3.01,3Z"/><path d="m19.98,18.92c1.26-1.67,2.02-3.72,2.02-5.92,0-5.42-4.58-10-10-10-2.2,0-4.25.76-5.92,2.02l-1.02-1.02.96-.97c.29-.29.29-.77,0-1.06-.29-.29-.77-.29-1.06,0l-.96.97-1.72-1.72c-.29-.29-.77-.29-1.06,0s-.29.77,0,1.06l20.5,20.5c.15.15.34.22.53.22s.38-.07.53-.22c.29-.29.29-.77,0-1.06l-2.8-2.8Zm-7.98-12.92c3.79,0,7,3.21,7,7,0,1.38-.43,2.68-1.16,3.78l-3.03-3.03h1.44c.41,0,.75-.34.75-.75s-.34-.75-.75-.75h-2.94l-.56-.56v-2.94c0-.41-.34-.75-.75-.75s-.75.34-.75.75v1.44l-3.03-3.03c1.1-.73,2.4-1.16,3.78-1.16Z"/><path d="m16,19.89c-.42-.42-1.05-.54-1.61-.33-1.67.63-3.63.63-5.56-.32-1.33-.66-2.42-1.75-3.08-3.08-.95-1.93-.95-3.88-.32-5.56.21-.56.09-1.18-.33-1.61h0c-.75-.75-2.05-.51-2.44.48-.91,2.32-.96,5.02.27,7.72.98,2.14,2.72,3.89,4.87,4.87,2.69,1.23,5.4,1.18,7.72.27.99-.39,1.23-1.69.48-2.44h0Z"/></svg>