<svg xmlns="http://www.w3.org/2000/svg" width="24" height="24" viewBox="0 0 24 24"><path d="M20.48 3.09A4.47 4.47 0 0 0 16.68 1H7.32c-1.55 0-2.97.78-3.8 2.09L1.7 5.96c-.46.72-.7 1.55-.7 2.41V18.5C1 20.98 3.02 23 5.5 23h13c2.48 0 4.5-2.02 4.5-4.5V8.37c0-.85-.24-1.69-.7-2.41zM7.32 4h9.36c.52 0 .99.26 1.27.7l.83 1.3H5.23l.83-1.3c.28-.44.75-.7 1.27-.7ZM18.5 20h-13c-.83 0-1.5-.67-1.5-1.5V9h16v9.5c0 .83-.67 1.5-1.5 1.5"/><path d="M14.79 14h-2.04v-2.25c0-.41-.34-.75-.75-.75s-.75.34-.75.75V14H9.21c-.45 0-.67.54-.35.85l2.79 2.79c.2.2.51.2.71 0l2.79-2.79c.32-.32.09-.85-.35-.85Z"/></svg>