<svg xmlns="http://www.w3.org/2000/svg" viewBox="0 0 24 24" width="24" height="24"><path d="m16.17,6.01c-1.26-.08-2.5.22-3.58.87-.35.21-.82.21-1.17,0-1.08-.65-2.32-.95-3.58-.87-3.29.2-5.91,3.13-5.83,6.52.18,7.96,6.37,10.46,8.11,10.46.65,0,1.3-.15,1.89-.44.59.29,1.24.44,1.89.44,1.73,0,7.92-2.51,8.11-10.46.08-3.4-2.54-6.32-5.83-6.52Zm-2.28,13.99c-.23,0-.45-.06-.65-.17-.78-.44-1.7-.44-2.48,0-.2.11-.42.17-.6.17-.05,0-5-1.02-5.15-7.54-.04-1.8,1.31-3.36,3.02-3.46.07,0,.14,0,.2,0,.58,0,1.15.16,1.65.46,1.29.78,2.96.78,4.26,0,.56-.33,1.2-.49,1.85-.45h0c1.7.1,3.06,1.66,3.01,3.46-.15,6.52-5.1,7.53-5.11,7.53Z"/><path d="m12.59,4.97c1.79-.16,3.19-1.09,3.39-3.39.03-.32-.24-.59-.56-.56-1.79.16-3.19,1.09-3.39,3.39-.03.32.24.59.56.56Z"/></svg>