<svg xmlns="http://www.w3.org/2000/svg" viewBox="0 0 24 24" width="24" height="24"><path class="b" d="m20.72,10H7.87L4.92,1.9c-.28-.78-1.14-1.18-1.92-.9-.78.28-1.18,1.14-.9,1.92l2.57,7.08h-1.39c-.63,0-1.23.26-1.65.73-.43.47-.64,1.1-.59,1.74.29,3.42,2.09,6.31,4.96,8v.29c0,1.24,1.01,2.25,2.25,2.25h7.5c1.24,0,2.25-1.01,2.25-2.25v-.29c2.87-1.69,4.67-4.58,4.96-8,.05-.64-.16-1.27-.59-1.74-.42-.46-1.03-.73-1.65-.73Zm-4.52,8.03c-.74.39-1.2,1.15-1.2,1.97h-6c0-.82-.46-1.57-1.2-1.97-1.95-1.04-3.25-2.85-3.66-5.03h15.72c-.41,2.19-1.71,3.99-3.66,5.03Z"/><path class="b" d="M21 6A1 1 0 1 0 21 8 1 1 0 1 0 21 6z"/><path class="b" d="M10 1A1 1 0 1 0 10 3 1 1 0 1 0 10 1z"/><path class="b" d="M17.5 1A1.5 1.5 0 1 0 17.5 4 1.5 1.5 0 1 0 17.5 1z"/><path class="b" d="M13 4A2 2 0 1 0 13 8 2 2 0 1 0 13 4z"/></svg>