<svg xmlns="http://www.w3.org/2000/svg" width="24" height="24" viewBox="0 0 24 24"><path d="M12 8a4 4 0 1 0 0 8 4 4 0 1 0 0-8"/><path d="M20 8.38V6c0-1.1-.9-2-2-2h-2.38l-2.21-2.21c-.78-.78-2.05-.78-2.83 0L8.37 4H5.99c-1.1 0-2 .9-2 2v2.38l-2.21 2.21c-.78.78-.78 2.05 0 2.83l2.21 2.21v2.38c0 1.1.9 2 2 2h2.38l2.21 2.21c.39.39.9.58 1.41.58s1.02-.19 1.41-.58l2.21-2.21h2.38c1.1 0 2-.9 2-2v-2.38l2.21-2.21c.78-.78.78-2.05 0-2.83l-2.21-2.21Zm-2.41 5.41c-.37.37-.59.89-.59 1.41v1.79h-1.79c-.53 0-1.04.21-1.41.59l-1.79 1.79-1.79-1.79c-.37-.37-.89-.59-1.41-.59H7.02V15.2c0-.53-.21-1.04-.59-1.41L4.64 12l1.79-1.79c.37-.37.59-.89.59-1.41V7.01h1.79c.53 0 1.04-.21 1.41-.59l1.79-1.79 1.79 1.79c.37.37.89.59 1.41.59H17V8.8c0 .53.21 1.04.59 1.41L19.38 12z"/></svg>