<svg xmlns="http://www.w3.org/2000/svg" viewBox="0 0 24 24" width="24" height="24"><path d="m18.5,2H5.5C3.02,2,1,4.02,1,6.5v11c0,2.48,2.02,4.5,4.5,4.5h13c2.48,0,4.5-2.02,4.5-4.5V6.5c0-2.48-2.02-4.5-4.5-4.5Zm1.5,15.5c0,.83-.67,1.5-1.5,1.5H5.5c-.83,0-1.5-.67-1.5-1.5v-9h16v9Zm0-10.5H4v-.5c0-.83.67-1.5,1.5-1.5h13c.83,0,1.5.67,1.5,1.5v.5Z"/><path d="m6.75,14.75h1.25c.25,0,.48-.12.62-.32l1.55-2.24,2.92,5.42c.12.23.36.38.62.39.01,0,.03,0,.04,0,.25,0,.48-.12.62-.32l2.03-2.93h.86c.41,0,.75-.34.75-.75s-.34-.75-.75-.75h-1.25c-.25,0-.48.12-.62.32l-1.55,2.24-2.92-5.42c-.12-.23-.36-.38-.62-.39-.27-.02-.51.11-.66.32l-2.03,2.93h-.86c-.41,0-.75.34-.75.75s.34.75.75.75Z"/></svg>