<svg xmlns="http://www.w3.org/2000/svg" viewBox="0 0 24 24" width="24" height="24"><path d="m19.5,5h-2.5v-.5c0-1.93-1.57-3.5-3.5-3.5H4.5c-1.93,0-3.5,1.57-3.5,3.5v15.5c0,1.65,1.35,3,3,3h16c1.65,0,3-1.35,3-3v-11.5c0-1.93-1.57-3.5-3.5-3.5Zm.5,15H4V4.5c0-.28.22-.5.5-.5h9c.28,0,.5.22.5.5v2c0,.83.67,1.5,1.5,1.5h4c.28,0,.5.22.5.5v11.5Z"/><rect x="10" y="6" width="2" height="2" rx=".5" ry=".5"/><rect x="6" y="6" width="2" height="2" rx=".5" ry=".5"/><rect x="6" y="10" width="2" height="2" rx=".5" ry=".5"/><rect x="10" y="10" width="2" height="2" rx=".5" ry=".5"/><rect x="16" y="10" width="2" height="2" rx=".5" ry=".5"/><rect x="10" y="14" width="2" height="2" rx=".5" ry=".5"/><rect x="6" y="14" width="2" height="2" rx=".5" ry=".5"/><rect x="16" y="14" width="2" height="2" rx=".5" ry=".5"/></svg>