<svg xmlns="http://www.w3.org/2000/svg" width="24" height="24" viewBox="0 0 24 24"><path d="M19.5 2h-15C3.67 2 3 2.67 3 3.5S3.67 5 4.5 5h15c.83 0 1.5-.67 1.5-1.5S20.33 2 19.5 2M8 19a1 1 0 1 0 0 2 1 1 0 1 0 0-2M4 19a1 1 0 1 0 0 2 1 1 0 1 0 0-2M4 15a1 1 0 1 0 0 2 1 1 0 1 0 0-2M20 19a1 1 0 1 0 0 2 1 1 0 1 0 0-2M16 19a1 1 0 1 0 0 2 1 1 0 1 0 0-2M12 19a1 1 0 1 0 0 2 1 1 0 1 0 0-2M12 15a1 1 0 1 0 0 2 1 1 0 1 0 0-2M12 11a1 1 0 1 0 0 2 1 1 0 1 0 0-2M12 7a1 1 0 1 0 0 2 1 1 0 1 0 0-2M8 11a1 1 0 1 0 0 2 1 1 0 1 0 0-2M16 11a1 1 0 1 0 0 2 1 1 0 1 0 0-2M20 7a1 1 0 1 0 0 2 1 1 0 1 0 0-2M20 15a1 1 0 1 0 0 2 1 1 0 1 0 0-2M20 11a1 1 0 1 0 0 2 1 1 0 1 0 0-2M4 7a1 1 0 1 0 0 2 1 1 0 1 0 0-2M4 11a1 1 0 1 0 0 2 1 1 0 1 0 0-2"/></svg>