<svg xmlns="http://www.w3.org/2000/svg" width="24" height="24" viewBox="0 0 24 24"><path d="M1.94 15.78c0 2.35 1.53 4.35 3.65 5.06A4.9 4.9 0 0 0 9.64 23c.86 0 1.66-.22 2.36-.61.7.39 1.5.61 2.36.61 1.66 0 3.17-.85 4.05-2.17a5.33 5.33 0 0 0 3.65-5.05c0-.23-.01-.46-.04-.69.63-.89.98-1.96.98-3.09 0-1.64-.72-3.11-1.89-4.09v-.16c0-2.21-1.48-4.07-3.49-4.66A4.38 4.38 0 0 0 13.89 1c-.68 0-1.32.15-1.89.43-.57-.27-1.21-.43-1.89-.43-1.58 0-2.96.84-3.74 2.09-2.01.6-3.48 2.46-3.48 4.66v.16A5.3 5.3 0 0 0 1 12c0 1.13.35 2.2.98 3.09-.03.23-.04.46-.04.69M5.97 9.7c.18-.03.32-.15.39-.31.07-.17.04-.35-.07-.49-.25-.32-.39-.73-.39-1.15a1.856 1.856 0 0 1 2.24-1.82c.15.03.3-.04.41-.13s.18-.26.18-.41c0-.77.62-1.39 1.39-1.39s1.39.62 1.39 1.39v12.75c0 1.03-.83 1.86-1.86 1.86-.88 0-1.65-.63-1.82-1.49-.05-.23-.3-.4-.54-.4-1.29 0-2.33-1.05-2.33-2.33q0-.615.3-1.14c.13-.23.06-.52-.16-.66a2.36 2.36 0 0 1-1.08-1.97c0-1.14.85-2.13 1.97-2.3Zm6.53-4.31c0-.77.62-1.39 1.39-1.39s1.39.62 1.39 1.44c0 .15.07.29.18.38s.27.13.41.11a1.856 1.856 0 0 1 2.24 1.82c0 .42-.14.82-.39 1.15-.11.14-.14.33-.07.49.06.17.21.28.39.31 1.12.17 1.97 1.16 1.97 2.3 0 .8-.4 1.53-1.08 1.97-.22.14-.29.43-.16.66.2.35.3.74.3 1.14 0 1.29-1.05 2.33-2.38 2.33-.24 0-.44.17-.49.4-.17.86-.94 1.49-1.82 1.49-1.03 0-1.86-.83-1.86-1.86V5.39Z"/></svg>