<svg xmlns="http://www.w3.org/2000/svg" viewBox="0 0 24 24" width="24" height="24"><path d="m21.5,16c.83,0,1.5-.67,1.5-1.5s-.67-1.5-1.5-1.5h-1.5v-4c0-4.41-3.59-8-8-8S4,4.59,4,9v4h-1.5c-.83,0-1.5.67-1.5,1.5s.67,1.5,1.5,1.5h.75v4h-.75c-.83,0-1.5.67-1.5,1.5s.67,1.5,1.5,1.5h19c.83,0,1.5-.67,1.5-1.5s-.67-1.5-1.5-1.5h-.75v-4h.75Zm-8.75-3v-3.25h4.25v3.25h-4.25Zm4.17-4.75h-4.17v-4.17c2.15.33,3.85,2.02,4.17,4.17Zm-5.67-4.17v4.17h-4.17c.33-2.15,2.02-3.85,4.17-4.17Zm-4.25,5.67h4.25v3.25h-4.25v-3.25Zm-2.25,10.25v-4h2.5v4h-2.5Zm4,0v-4h2.5v4h-2.5Zm4,0v-4h2.5v4h-2.5Zm6.5,0h-2.5v-4h2.5v4Z"/></svg>