<svg xmlns="http://www.w3.org/2000/svg" width="24" height="24" viewBox="0 0 24 24"><path d="M18.5 6H18V4.5C18 2.57 16.43 1 14.5 1h-5C7.57 1 6 2.57 6 4.5V6h-.5C3.02 6 1 8.02 1 10.5v8C1 20.98 3.02 23 5.5 23h13c2.48 0 4.5-2.02 4.5-4.5v-8C23 8.02 20.98 6 18.5 6M9 4.5c0-.28.22-.5.5-.5h5c.28 0 .5.22.5.5V6H9zM5.5 9h13c.83 0 1.5.67 1.5 1.5v.84l-.72.34a17 17 0 0 1-14.55 0l-.72-.34v-.84c0-.83.67-1.5 1.5-1.5Zm13 11h-13c-.83 0-1.5-.67-1.5-1.5V13l.08.04C6.6 14.22 9.3 14.81 12 14.81s5.4-.59 7.92-1.77L20 13v5.5c0 .83-.67 1.5-1.5 1.5"/></svg>