<svg xmlns="http://www.w3.org/2000/svg" viewBox="0 0 24 24" width="24" height="24"><path d="m18.5,1h-9c-1.93,0-3.5,1.57-3.5,3.5v5.38L1.44,14.44c-.43.43-.56,1.07-.33,1.63.17.4.49.7.89.84v3.09c0,1.65,1.35,3,3,3h6.5c.18,0,.34-.04.5-.09v.09h7c1.65,0,3-1.35,3-3V4.5c0-1.93-1.57-3.5-3.5-3.5Zm-8.5,19h-5v-4.88l2.5-2.5,2.5,2.5v4.88Zm9,0h-6v-3.09c.39-.14.72-.44.89-.84.23-.56.1-1.21-.33-1.63l-4.56-4.56v-5.38c0-.28.22-.5.5-.5h9c.28,0,.5.22.5.5v15.5Z"/><rect x="11" y="6" width="2" height="2" rx=".5" ry=".5"/><rect x="15" y="6" width="2" height="2" rx=".5" ry=".5"/><rect x="15" y="10.03" width="2" height="1.97" rx=".5" ry=".5"/><rect x="6.5" y="15" width="2" height="2" rx=".5" ry=".5"/></svg>