<svg xmlns="http://www.w3.org/2000/svg" width="24" height="24" viewBox="0 0 24 24"><path d="M1.69 8.88c-.43.56-.57 1.27-.39 1.95l2.33 8.82A4.505 4.505 0 0 0 7.98 23h8.04c2.04 0 3.83-1.38 4.35-3.35l2.33-8.82c.18-.68.04-1.39-.39-1.95A2.23 2.23 0 0 0 20.53 8h-.37l-3-5.24c-.41-.72-1.33-.97-2.05-.56s-.97 1.33-.56 2.05l2.15 3.76H7.3l2.15-3.76c.41-.72.16-1.64-.56-2.05s-1.64-.16-2.05.56L3.84 8h-.37c-.7 0-1.35.32-1.78.88m15.78 10.01c-.17.66-.77 1.12-1.45 1.12H7.98c-.68 0-1.28-.46-1.45-1.12l-2.08-7.88h15.11l-2.08 7.88Z"/><path d="M10 18c.41 0 .75-.34.75-.75v-3.5c0-.41-.34-.75-.75-.75s-.75.34-.75.75v3.5c0 .41.34.75.75.75M14 18c.41 0 .75-.34.75-.75v-3.5c0-.41-.34-.75-.75-.75s-.75.34-.75.75v3.5c0 .41.34.75.75.75"/></svg>