<svg xmlns="http://www.w3.org/2000/svg" width="24" height="24" viewBox="0 0 24 24"><path d="M14.82 21H9.18c.41 1.17 1.51 2 2.82 2s2.41-.83 2.82-2M20 12.47v-2.2c0-3.86-2.64-7.17-6.15-8.05C13.55 1.5 12.84.99 12 .99s-1.54.5-1.84 1.22a7.94 7.94 0 0 0-3.73 2.04A7.92 7.92 0 0 0 4 9.99l.02 2.45-1.38 1.72c-.41.51-.64 1.16-.64 1.91 0 1.61 1.31 2.91 2.91 2.91h14.17c1.61 0 2.91-1.31 2.91-3 0-.66-.23-1.31-.64-1.82l-1.36-1.7ZM5.02 16l1.34-1.67c.41-.51.64-1.16.64-1.82v-2.5c0-1.36.54-2.64 1.52-3.59s2.26-1.46 3.64-1.41c2.67.08 4.84 2.44 4.84 5.27v2.23c0 .66.23 1.31.64 1.82l1.29 1.68H5.02Z"/></svg>