<svg xmlns="http://www.w3.org/2000/svg" viewBox="0 0 24 24" width="24" height="24"><path d="M9 6H11V8H9z"/><rect x="13" y="6" width="2" height="2" rx=".5" ry=".5"/><rect x="9" y="14" width="2" height="2" rx=".5" ry=".5"/><rect x="13" y="14" width="2" height="2" rx=".5" ry=".5"/><rect x="9" y="10" width="2" height="2" rx=".5" ry=".5"/><rect x="13" y="10" width="2" height="2" rx=".5" ry=".5"/><path d="m7,23h10c1.65,0,3-1.35,3-3V4.5c0-1.93-1.57-3.5-3.5-3.5H7.5c-1.93,0-3.5,1.57-3.5,3.5v15.5c0,1.65,1.35,3,3,3Zm0-18.5c0-.28.22-.5.5-.5h9c.28,0,.5.22.5.5v15.5s-10,0-10,0V4.5Z"/></svg>