<svg xmlns="http://www.w3.org/2000/svg" viewBox="0 0 24 24" width="24" height="24"><path d="m1.02,10.33c-.1.57.14,1.15.61,1.49l2.62,1.86-1.84,2.66c-.33.48-.36,1.11-.06,1.61s.85.8,1.43.74l3.15-.29.27,3.23c.05.58.43,1.09.99,1.29.55.2,1.17.06,1.58-.36l2.23-2.27,2.23,2.27c.29.29.68.45,1.07.45.17,0,.34-.03.51-.09.55-.2.94-.7.99-1.29l.27-3.23,3.15.29c.58.05,1.14-.23,1.43-.74.29-.5.27-1.13-.06-1.61l-1.84-2.66,2.62-1.86c.47-.34.71-.92.61-1.49-.1-.57-.52-1.03-1.09-1.19l-3.07-.83.83-3.14c.15-.56-.04-1.17-.49-1.54-.45-.37-1.07-.45-1.6-.2l-2.86,1.36-1.33-2.92c-.24-.53-.78-.88-1.36-.88s-1.12.34-1.36.88l-1.33,2.92-2.86-1.36c-.53-.25-1.15-.17-1.6.2-.45.37-.64.97-.49,1.54l.83,3.14-3.07.83c-.56.15-.98.61-1.09,1.19Zm6.38.49c.8-.22,1.27-1.04,1.06-1.83l-.39-1.45,1.31.62c.36.17.78.19,1.16.06.38-.14.68-.42.85-.79l.6-1.32.6,1.32c.17.37.47.65.85.79.38.14.79.12,1.16-.06l1.31-.62-.39,1.45c-.21.8.26,1.62,1.06,1.83l1.44.39-1.23.87c-.67.48-.83,1.4-.37,2.08l.86,1.25-1.46-.13c-.4-.04-.79.09-1.1.34-.31.26-.5.62-.53,1.02l-.12,1.47-1.01-1.03c-.28-.29-.67-.45-1.07-.45s-.79.16-1.07.45l-1.01,1.03-.12-1.47c-.03-.4-.22-.77-.53-1.02s-.7-.38-1.1-.34l-1.46.13.86-1.25c.47-.68.3-1.6-.37-2.08l-1.23-.87,1.44-.39Z"/></svg>