<svg xmlns="http://www.w3.org/2000/svg" width="24" height="24" viewBox="0 0 24 24"><path d="M16.5 1h-9C5.02 1 3 3.02 3 5.5v15.17c0 .71.36 1.35.97 1.71.32.19.67.29 1.03.29.32 0 .64-.08.94-.24L12 19.2l6.06 3.23c.63.34 1.36.32 1.97-.05s.97-1.01.97-1.71V5.5C21 3.02 18.98 1 16.5 1M18 9.5V19l-4.59-2.45c-.88-.47-1.94-.47-2.82 0L6 19V5.5C6 4.67 6.67 4 7.5 4h9c.83 0 1.5.67 1.5 1.5z"/><path d="m12.2 7.59-.2.2-.2-.2c-.78-.78-2.02-.78-2.8 0s-.78 2.02 0 2.8l2.58 2.58c.23.23.61.23.85 0l2.58-2.58c.78-.78.78-2.02 0-2.8s-2.02-.78-2.8 0Z"/></svg>