<svg xmlns="http://www.w3.org/2000/svg" viewBox="0 0 24 24" width="24" height="24"><path d="M8 6A1 1 0 1 0 8 8 1 1 0 1 0 8 6z"/><path d="m20,8h-7v-2c0-2.76-2.24-5-5-5S3,3.24,3,6v.05c-1.14.23-2,1.24-2,2.45,0,.28.22.5.5.5h1.5v2c0,3.69,2.02,6.91,5,8.65v1.85c0,.83.67,1.5,1.5,1.5s1.5-.67,1.5-1.5v-.7c.65.13,1.32.2,2,.2v.5c0,.83.67,1.5,1.5,1.5s1.5-.67,1.5-1.5v-.96c4.05-1.28,7-5.07,7-9.54,0-1.65-1.35-3-3-3Zm0,3c0,1.8-.69,3.45-1.82,4.69-.53.19-1.09.31-1.68.31-2.76,0-5-2.24-5-5h8.5Zm-14,0v-5c0-1.1.9-2,2-2s2,.9,2,2v5c0,3.32,2.5,6.06,5.72,6.45-.84.35-1.76.55-2.72.55-3.86,0-7-3.14-7-7Z"/></svg>