<svg xmlns="http://www.w3.org/2000/svg" width="24" height="24" viewBox="0 0 24 24"><path d="M19.78 4.22a4.64 4.64 0 0 0-1.91-2.48c-1.58-1.02-3.68-.98-5.21.12-1.91 1.37-2.5 3.84-1.49 5.88l-3.44 3.44c-2.04-1.02-4.52-.42-5.88 1.51-1.09 1.53-1.13 3.63-.1 5.21.6.92 1.47 1.58 2.48 1.9a4.62 4.62 0 0 0 1.9 2.48c.76.5 1.65.74 2.53.74.94 0 1.88-.28 2.68-.84 1.92-1.37 2.52-3.85 1.51-5.88l3.44-3.44c2.03 1.01 4.51.42 5.87-1.49a4.685 4.685 0 0 0 .12-5.21c-.6-.92-1.47-1.59-2.48-1.91ZM19.7 9.6c-.6.84-1.64.88-2.3.43a2.23 2.23 0 0 0-2.84.27l-4.27 4.27c-.76.76-.87 1.95-.27 2.84.45.66.41 1.71-.43 2.31-.52.37-1.29.38-1.83.03-.62-.41-.74-1-.76-1.32-.04-.77-.65-1.38-1.42-1.42-.32-.02-.92-.14-1.32-.76-.35-.54-.34-1.31.03-1.83.36-.5.87-.72 1.36-.72.34 0 .67.1.94.29.88.6 2.08.49 2.84-.27l4.27-4.27c.76-.76.88-1.96.27-2.84-.45-.66-.41-1.7.43-2.3.52-.37 1.29-.39 1.84-.04.62.4.74 1 .76 1.32.04.77.65 1.38 1.42 1.42.32.02.92.14 1.32.76.35.54.33 1.31-.04 1.83"/></svg>