<svg xmlns="http://www.w3.org/2000/svg" viewBox="0 0 24 24" width="24" height="24"><path class="b" d="m17.5,2H6.5c-2.48,0-4.5,2.02-4.5,4.5v11c0,2.48,2.02,4.5,4.5,4.5h11c2.48,0,4.5-2.02,4.5-4.5V6.5c0-2.48-2.02-4.5-4.5-4.5Zm1.5,15.5c0,.83-.67,1.5-1.5,1.5H6.5c-.83,0-1.5-.67-1.5-1.5V6.5c0-.83.67-1.5,1.5-1.5h11c.83,0,1.5.67,1.5,1.5v11Z"/><path class="b" d="m15.75,7h-7.5c-.69,0-1.25.56-1.25,1.25v7.5c0,.69.56,1.25,1.25,1.25h7.5c.69,0,1.25-.56,1.25-1.25v-7.5c0-.69-.56-1.25-1.25-1.25Zm-.25,8.5h-7v-7h7v7Z"/></svg>