<svg xmlns="http://www.w3.org/2000/svg" viewBox="0 0 24 24" width="24" height="24"><path d="m2.28,8.28c-.47-.47-1.28-.14-1.28.53v6.38c0,.67.81,1,1.28.53l3.19-3.19c.29-.29.29-.77,0-1.06l-3.19-3.19Z"/><path d="m19.5,13h-9c-1.93,0-3.5,1.57-3.5,3.5v3c0,1.93,1.57,3.5,3.5,3.5h9c1.93,0,3.5-1.57,3.5-3.5v-3c0-1.93-1.57-3.5-3.5-3.5Zm.5,6.5c0,.28-.22.5-.5.5h-9c-.28,0-.5-.22-.5-.5v-3c0-.28.22-.5.5-.5h9c.28,0,.5.22.5.5v3Z"/><path d="m19.5,1h-9c-1.93,0-3.5,1.57-3.5,3.5v3c0,1.93,1.57,3.5,3.5,3.5h9c1.93,0,3.5-1.57,3.5-3.5v-3c0-1.93-1.57-3.5-3.5-3.5Zm.5,6.5c0,.28-.22.5-.5.5h-9c-.28,0-.5-.22-.5-.5v-3c0-.28.22-.5.5-.5h9c.28,0,.5.22.5.5v3Z"/></svg>