<svg xmlns="http://www.w3.org/2000/svg" viewBox="0 0 24 24" width="24" height="24"><path d="m23,15.19v-6.38c0-.67-.81-1-1.28-.53l-3.19,3.19c-.29.29-.29.77,0,1.06l3.19,3.19c.47.47,1.28.14,1.28-.53Z"/><path d="m4.5,23h9c1.93,0,3.5-1.57,3.5-3.5v-3c0-1.93-1.57-3.5-3.5-3.5H4.5c-1.93,0-3.5,1.57-3.5,3.5v3c0,1.93,1.57,3.5,3.5,3.5Zm-.5-6.5c0-.28.22-.5.5-.5h9c.28,0,.5.22.5.5v3c0,.28-.22.5-.5.5H4.5c-.28,0-.5-.22-.5-.5v-3Z"/><path d="m4.5,11h9c1.93,0,3.5-1.57,3.5-3.5v-3c0-1.93-1.57-3.5-3.5-3.5H4.5c-1.93,0-3.5,1.57-3.5,3.5v3c0,1.93,1.57,3.5,3.5,3.5Zm-.5-6.5c0-.28.22-.5.5-.5h9c.28,0,.5.22.5.5v3c0,.28-.22.5-.5.5H4.5c-.28,0-.5-.22-.5-.5v-3Z"/></svg>