<svg xmlns="http://www.w3.org/2000/svg" viewBox="0 0 24 24" width="24" height="24"><path d="m1,20c0,1.65,1.35,3,3,3h7.5c.18,0,.34-.04.5-.09v.09h7c1.65,0,3-1.35,3-3V4.5c0-1.93-1.57-3.5-3.5-3.5h-9c-1.93,0-3.5,1.57-3.5,3.5v4.5h-1.5c-1.93,0-3.5,1.57-3.5,3.5v7.5ZM9,4.5c0-.28.22-.5.5-.5h9c.28,0,.5.22.5.5v15.5h-6v-7.5c0-1.93-1.57-3.5-3.5-3.5h-.5v-4.5Zm-5,8c0-.28.22-.5.5-.5h5c.28,0,.5.22.5.5v7.5h-6v-7.5Z"/><rect x="11" y="6" width="2" height="2" rx=".5" ry=".5"/><rect x="15" y="6" width="2" height="2" rx=".5" ry=".5"/><rect x="15" y="10.03" width="2" height="1.97" rx=".5" ry=".5"/><rect x="15" y="14" width="2" height="2" rx=".5" ry=".5"/><rect x="6" y="14" width="2" height="2" rx=".5" ry=".5"/></svg>