<svg xmlns="http://www.w3.org/2000/svg" viewBox="0 0 24 24" width="24" height="24"><path d="m8,13c-1.65,0-3,1.35-3,3s1.35,3,3,3,3-1.35,3-3-1.35-3-3-3Zm0,4.5c-.83,0-1.5-.67-1.5-1.5s.67-1.5,1.5-1.5,1.5.67,1.5,1.5-.67,1.5-1.5,1.5Z"/><path d="m16,13c-1.65,0-3,1.35-3,3s1.35,3,3,3,3-1.35,3-3-1.35-3-3-3Zm0,4.5c-.83,0-1.5-.67-1.5-1.5s.67-1.5,1.5-1.5,1.5.67,1.5,1.5-.67,1.5-1.5,1.5Z"/><path d="m20,6.05v-1.55c0-1.93-1.57-3.5-3.5-3.5H7.5c-1.93,0-3.5,1.57-3.5,3.5v1.55c-1.69.25-3,1.69-3,3.45v10c0,1.93,1.57,3.5,3.5,3.5h15c1.93,0,3.5-1.57,3.5-3.5v-10c0-1.76-1.31-3.2-3-3.45Zm-13-1.55c0-.28.22-.5.5-.5h9c.28,0,.5.22.5.5v1.5H7v-1.5Zm-2.5,4.5h15c.28,0,.5.22.5.5v1H4v-1c0-.28.22-.5.5-.5Zm15,11H4.5c-.28,0-.5-.22-.5-.5v-7.5h16v7.5c0,.28-.22.5-.5.5Z"/></svg>