<svg xmlns="http://www.w3.org/2000/svg" viewBox="0 0 24 24" width="24" height="24"><path d="m19.5,5h-1.5v-.5c0-1.38-1.12-2.5-2.5-2.5H3.5c-1.38,0-2.5,1.12-2.5,2.5v12c0,3.03,2.47,5.5,5.5,5.5h6c2.51,0,4.63-1.7,5.29-4h1.71c1.93,0,3.5-1.57,3.5-3.5v-6c0-1.93-1.57-3.5-3.5-3.5Zm-4.5,11.5c0,1.38-1.12,2.5-2.5,2.5h-6c-1.38,0-2.5-1.12-2.5-2.5V5h11v11.5Zm5-2c0,.28-.22.5-.5.5h-1.5v-7h1.5c.28,0,.5.22.5.5v6Z"/><path d="m7,16c.41,0,.75-.34.75-.75v-7.5c0-.41-.34-.75-.75-.75s-.75.34-.75.75v7.5c0,.41.34.75.75.75Z"/><path d="m12,16c.41,0,.75-.34.75-.75v-7.5c0-.41-.34-.75-.75-.75s-.75.34-.75.75v7.5c0,.41.34.75.75.75Z"/></svg>