<svg xmlns="http://www.w3.org/2000/svg" viewBox="0 0 24 24" width="24" height="24"><path d="m11.47,5.47c.29.29.77.29,1.06,0l3.19-3.19c.47-.47.14-1.28-.53-1.28h-6.38c-.67,0-1,.81-.53,1.28l3.19,3.19Z"/><path d="m19.5,7h-3c-1.93,0-3.5,1.57-3.5,3.5v9c0,1.93,1.57,3.5,3.5,3.5h3c1.93,0,3.5-1.57,3.5-3.5v-9c0-1.93-1.57-3.5-3.5-3.5Zm.5,12.5c0,.28-.22.5-.5.5h-3c-.28,0-.5-.22-.5-.5v-9c0-.28.22-.5.5-.5h3c.28,0,.5.22.5.5v9Z"/><path d="m4.5,23h3c1.93,0,3.5-1.57,3.5-3.5v-9c0-1.93-1.57-3.5-3.5-3.5h-3c-1.93,0-3.5,1.57-3.5,3.5v9c0,1.93,1.57,3.5,3.5,3.5Zm-.5-12.5c0-.28.22-.5.5-.5h3c.28,0,.5.22.5.5v9c0,.28-.22.5-.5.5h-3c-.28,0-.5-.22-.5-.5v-9Z"/></svg>