<svg xmlns="http://www.w3.org/2000/svg" viewBox="0 0 24 24" width="24" height="24"><path d="M12 1C5.93 1 1 5.93 1 12s4.93 11 11 11 11-4.93 11-11S18.07 1 12 1m6.39 12.28c.49-.05.99-.03 1.49.05a8 8 0 0 1-6.56 6.55c-.04-.29-.07-.59-.07-.88 0-.2.01-.41.03-.61a.75.75 0 0 0-.67-.82.75.75 0 0 0-.82.67 6.607 6.607 0 0 0 .04 1.75c-4.27-.09-7.72-3.55-7.82-7.82.33.04.66.08.99.08.26 0 .51-.01.76-.04a.75.75 0 0 0 .67-.82.75.75 0 0 0-.82-.67c-.49.05-.99.03-1.49-.05a8 8 0 0 1 6.56-6.55c.04.29.07.59.07.88 0 .2-.01.41-.03.61-.04.41.26.78.67.82h.08c.38 0 .7-.29.75-.67a6.607 6.607 0 0 0-.04-1.75c4.28.09 7.73 3.55 7.82 7.83-.58-.08-1.18-.11-1.75-.05a.75.75 0 0 0-.67.82c.04.41.41.71.82.67Z"/><path d="M15.44 12.69c-.17.09-.33.2-.49.3-.38.26-.74.56-1.07.88s-.62.69-.89 1.07c-.11.16-.21.32-.3.49a.75.75 0 0 0 .65 1.12c.26 0 .52-.14.65-.38l.24-.39a5.8 5.8 0 0 1 1.55-1.55q.18-.12.39-.24c.36-.2.49-.66.29-1.02a.753.753 0 0 0-1.02-.29ZM11.03 7.54a.75.75 0 0 0-1.02.28l-.24.39a5.8 5.8 0 0 1-1.55 1.55q-.18.12-.39.24c-.36.2-.49.66-.29 1.02.14.24.39.38.65.38.12 0 .25-.03.37-.1.17-.09.33-.2.49-.3.38-.26.74-.56 1.07-.88s.62-.69.89-1.07c.11-.16.21-.32.3-.49a.75.75 0 0 0-.28-1.02"/></svg>