<svg xmlns="http://www.w3.org/2000/svg" width="24" height="24" viewBox="0 0 24 24"><path d="M16.5 1h-9C5.02 1 3 3.02 3 5.5v15.17c0 .71.36 1.35.97 1.71.32.19.67.29 1.03.29.32 0 .64-.08.94-.24L12 19.2l6.06 3.23c.63.33 1.36.31 1.97-.05.61-.37.97-1.01.97-1.71V5.5C21 3.02 18.98 1 16.5 1M18 9.5V19l-4.59-2.45c-.88-.47-1.94-.47-2.82 0L6 19V5.5C6 4.67 6.67 4 7.5 4h9c.83 0 1.5.67 1.5 1.5z"/><path d="m14.9 8.54-1.64-.13c-.11 0-.2-.08-.25-.18l-.74-1.63a.3.3 0 0 0-.55 0l-.74 1.63c-.04.1-.14.17-.25.18l-1.64.13c-.26.02-.37.35-.18.52l1.34 1.21c.09.08.12.2.09.31l-.52 1.84c-.08.27.22.49.45.33l1.55-1.04c.1-.07.23-.07.33 0l1.55 1.04c.23.15.53-.06.45-.33l-.52-1.84c-.03-.11 0-.23.09-.31l1.34-1.21c.2-.18.09-.5-.18-.52Z"/></svg>