<svg xmlns="http://www.w3.org/2000/svg" viewBox="0 0 24 24" width="24" height="24"><path d="m16.62,2.09L7.36,11.35c-.76.09-1.5.32-2.15.72-1.35.83-2.12,2.23-2.12,3.85,0,.33.02.64.05.94.08,1.02.09,1.2-1.31,1.9-.47.24-.79.71-.83,1.24s.21,1.04.64,1.34c1.11.77,3.07,1.65,5.14,1.65,1.52,0,3.1-.48,4.45-1.82,1.25-1.25,1.92-3.17,1.77-5l.06.06,8.84-8.84c.71-.71,1.09-1.65,1.09-2.64s-.39-1.94-1.1-2.65c-1.41-1.41-3.87-1.41-5.29,0Zm-7.51,16.95c-1.13,1.13-2.57,1.08-3.73.75.81-1.01.83-2.08.75-3.16-.02-.23-.04-.46-.04-.71,0-.58.23-1.01.7-1.3.59-.36,1.45-.43,2.01-.15h0c.67.33,1.07.9,1.19,1.67.16,1.02-.2,2.21-.88,2.89Zm10.68-13.78l-7.92,7.92c-.31-.38-.67-.72-1.08-1.01l7.96-7.96c.19-.19.41-.22.52-.22s.33.03.52.22c.14.14.22.33.22.52s-.08.38-.22.52Z"/><path d="m1.69,6.55l1.42.63c.33.15.59.41.73.73l.62,1.4c.19.42.6.69,1.06.69s.87-.27,1.06-.69l.62-1.4c.15-.33.41-.59.73-.73l1.39-.62c.42-.19.69-.6.69-1.06s-.27-.87-.69-1.06l-1.39-.62c-.33-.15-.59-.41-.73-.73l-.62-1.41c-.18-.41-.59-.68-1.05-.69h0c-.45,0-.86.26-1.05.67h0s-.63,1.37-.63,1.37c-.14.3-.38.55-.68.7l-1.49.72c-.4.19-.66.61-.65,1.06,0,.45.28.86.69,1.04Z"/><path d="m22.47,18.68l-1.08-.48c-.25-.11-.46-.32-.57-.57l-.49-1.09c-.14-.32-.46-.53-.81-.53h0c-.35,0-.67.2-.82.52h0s-.49,1.06-.49,1.06c-.11.24-.3.43-.53.54l-1.16.56c-.31.15-.51.47-.51.82,0,.35.22.67.53.81l1.1.49c.25.11.46.32.57.57l.48,1.09c.14.32.47.53.82.53s.68-.21.82-.53l.48-1.09c.11-.25.32-.46.57-.57l1.08-.48c.32-.14.53-.47.53-.82s-.21-.68-.53-.82Z"/></svg>