<svg xmlns="http://www.w3.org/2000/svg" viewBox="0 0 24 24" width="24" height="24"><path d="M8 6A1 1 0 1 0 8 8 1 1 0 1 0 8 6z"/><path d="m21.75,16.68L13.47,3.81l-.02-.03c-1.17-1.72-3.11-2.75-5.18-2.75-3.45,0-6.26,2.81-6.26,6.26,0,.07.01.14.02.2-.61.46-1.02,1.18-1.02,2,0,.28.22.5.5.5h1.13c.72,1.49,2.02,2.66,3.62,3.21.27,1.95,1.07,4.28,2.75,5.88v2.42c0,.83.67,1.5,1.5,1.5s1.5-.67,1.5-1.5v-.76c.59.15,1.23.23,1.93.23.02,0,.05,0,.07,0v.53c0,.83.67,1.5,1.5,1.5s1.5-.67,1.5-1.5v-.85c1.3-.28,2.33-.7,3.07-1.09l.35.53c.46.69,1.39.88,2.08.42s.88-1.39.42-2.08l-1.16-1.74Zm-8.41-7.53l4.98,7.73c-2.23.06-3.86-1.24-4.69-2.59-.8-1.31-1.2-3.25-.29-5.14Zm-4.19,2.79l-.05-1.27-1.26-.16c-1.62-.21-2.84-1.59-2.84-3.22,0-1.8,1.46-3.26,3.26-3.26,1.08,0,2.08.53,2.69,1.42l1.47,2.29c-1.45,2.25-1.51,5.01-.08,7.34.79,1.29,1.91,2.24,3.21,2.78-.5.07-1.03.11-1.63.11-4.33,0-4.74-5.02-4.78-6.03Z"/></svg>