<svg xmlns="http://www.w3.org/2000/svg" width="24" height="24" viewBox="0 0 24 24"><path d="M16 17c.41 0 .75-.34.75-.75v-3.5c0-.41-.34-.75-.75-.75s-.75.34-.75.75v3.5c0 .41.34.75.75.75M12 17c.41 0 .75-.34.75-.75v-8.5c0-.41-.34-.75-.75-.75s-.75.34-.75.75v8.5c0 .41.34.75.75.75M8 17c.41 0 .75-.34.75-.75v-5.5c0-.41-.34-.75-.75-.75s-.75.34-.75.75v5.5c0 .41.34.75.75.75"/><path d="M6.5 22h11c2.48 0 4.5-2.02 4.5-4.5v-11C22 4.02 19.98 2 17.5 2h-11C4.02 2 2 4.02 2 6.5v11C2 19.98 4.02 22 6.5 22M5 6.5C5 5.67 5.67 5 6.5 5h11c.83 0 1.5.67 1.5 1.5v11c0 .83-.67 1.5-1.5 1.5h-11c-.83 0-1.5-.67-1.5-1.5z"/></svg>