<svg xmlns="http://www.w3.org/2000/svg" viewBox="0 0 24 24" width="24" height="24"><path d="m21.77,6.54L13.27,1.51c-.79-.47-1.76-.47-2.55,0L2.23,6.54c-.76.45-1.23,1.27-1.23,2.15v1.81c0,1.38,1.12,2.5,2.5,2.5h.5v5h-.5c-1.38,0-2.5,1.12-2.5,2.5s1.12,2.5,2.5,2.5h17c1.38,0,2.5-1.12,2.5-2.5s-1.12-2.5-2.5-2.5h-.5v-5h.5c1.38,0,2.5-1.12,2.5-2.5v-1.81c0-.88-.47-1.7-1.23-2.15Zm-14.77,6.46h3.5v5h-3.5v-5Zm10,5h-3.5v-5h3.5v5Zm3-8H4v-1.02l8-4.74,8,4.74v1.02Z"/><path d="M12 6A1.5 1.5 0 1 0 12 9 1.5 1.5 0 1 0 12 6z"/></svg>