<svg xmlns="http://www.w3.org/2000/svg" width="24" height="24" viewBox="0 0 24 24"><path d="M22.25 14.5h-1.42c.11-.65.17-1.32.17-2 0-.35-.02-.69-.04-1.03h.03l1.5-.5c.39-.13.6-.56.47-.95a.753.753 0 0 0-.95-.47l-1.29.43c-.48-2.23-1.56-4.18-3.04-5.6l1.09-1.09c.29-.29.29-.77 0-1.06s-.77-.29-1.06 0L16.5 3.44c-1.33-.9-2.87-1.43-4.51-1.43s-3.18.53-4.51 1.43L6.27 2.23c-.29-.29-.77-.29-1.06 0s-.29.77 0 1.06L6.3 4.38c-1.48 1.41-2.56 3.37-3.04 5.6l-1.29-.43a.753.753 0 0 0-.95.47c-.13.39.08.82.47.95l1.5.5h.03c-.03.34-.04.68-.04 1.03 0 .68.06 1.35.17 2H1.73c-.41 0-.75.34-.75.75s.34.75.75.75h1.78c.26.85.6 1.65 1.03 2.39l-1.33 1.33c-.29.29-.29.77 0 1.06.15.15.34.22.53.22s.38-.07.53-.22l1.14-1.14C7.05 21.7 9.39 23 11.99 23s4.94-1.3 6.58-3.36l1.14 1.14c.15.15.34.22.53.22s.38-.07.53-.22c.29-.29.29-.77 0-1.06l-1.33-1.33c.43-.73.77-1.54 1.03-2.39h1.78c.41 0 .75-.34.75-.75s-.34-.75-.75-.75M12 5c1.96 0 3.69 1.18 4.79 3H7.21c1.1-1.82 2.83-3 4.79-3m.75 14.93v-6.18c0-.41-.34-.75-.75-.75s-.75.34-.75.75v6.18C8.29 19.47 6 16.31 6 12.5c0-1.07.18-2.08.5-3h10.99c.32.92.5 1.93.5 3 0 3.82-2.29 6.97-5.25 7.43Z"/></svg>