<svg xmlns="http://www.w3.org/2000/svg" width="24" height="24" viewBox="0 0 24 24"><path d="M12.62 9.25H7.37c-.41 0-.75.34-.75.75s.34.75.75.75h5.25c.41 0 .75-.34.75-.75s-.34-.75-.75-.75"/><path d="M19.3 1.03Q19.15 1 19 1H6C3.79 1 2 2.79 2 5v15.72c0 .68.34 1.31.92 1.68s1.29.42 1.92.13L10 20.15l5.16 2.38q.405.18.84.18c.38 0 .75-.11 1.08-.32.58-.37.92-1 .92-1.68v-7.72h2c1.65 0 3-1.35 3-3v-5c0-2.1-1.63-3.81-3.7-3.97ZM15 19.16l-3.74-1.73c-.8-.37-1.72-.37-2.51 0l-3.74 1.73V5c0-.55.45-1 1-1h9.14c-.08.32-.14.65-.14 1v14.16ZM18 10V5c0-.55.45-1 1-1s1 .45 1 1v5z"/></svg>