<svg xmlns="http://www.w3.org/2000/svg" width="24" height="24" viewBox="0 0 24 24"><path d="M19.67 15.06c.22-.82.33-1.69.33-2.56 0-3.03-1.36-5.81-3.52-7.46A4.503 4.503 0 0 0 12 1c-1.02 0-2.02.34-2.9 1-.42.32-.78.73-1.02 1.21-.31.59-.49 1.21-.56 1.83C5.33 6.7 4 9.48 4 12.5c0 .87.11 1.73.33 2.56A4.006 4.006 0 0 0 1 19c0 2.21 1.79 4 4 4h14a3.999 3.999 0 0 0 .67-7.94M19 20H5c-.55 0-1-.45-1-1s.45-1 1-1h3.48c.2 0 .39-.12.46-.31s.03-.4-.11-.55C7.67 15.99 7 14.29 7 12.5c0-2.57 1.36-4.85 3.39-5.68a.505.505 0 0 0 .26-.69c-.14-.27-.18-.58-.13-.9.09-.53.48-1 .99-1.16.48-.15.98-.07 1.37.21s.62.74.62 1.21c0 .23-.05.44-.15.64a.505.505 0 0 0 .26.69c.5.2.95.5 1.36.86-1.04.63-2.72 2.15-2.72 5.32 0 .41.34.75.75.75s.75-.34.75-.75c0-2.71 1.54-3.81 2.2-4.16.66 1.03 1.05 2.3 1.05 3.66 0 1.8-.67 3.49-1.83 4.64-.14.14-.19.36-.11.55s.26.31.46.31H19c.55 0 1 .45 1 1s-.45 1-1 1m-2.4-3s.01-.02.02-.03c0 0 0 .02.01.03zm-9.2 0h-.03s0-.02.01-.03c0 0 .01.02.02.03"/></svg>