<svg xmlns="http://www.w3.org/2000/svg" width="24" height="24" viewBox="0 0 24 24"><path d="M12 8c-2.21 0-4 1.79-4 4s1.79 4 4 4 4-1.79 4-4-1.79-4-4-4m0 6.5c-1.35 0-2.5-1.14-2.5-2.5s1.15-2.5 2.5-2.5 2.5 1.14 2.5 2.5-1.15 2.5-2.5 2.5"/><path d="M22.05 7.41 21 5.59c-.34-.59-.89-1.01-1.55-1.19a2.53 2.53 0 0 0-1.94.25l-.3.17q-.75-.555-1.59-.93v-.34c0-1.41-1.15-2.56-2.56-2.56h-2.11c-1.41 0-2.56 1.15-2.56 2.56v.34c-.56.25-1.09.57-1.59.93l-.3-.17a2.53 2.53 0 0 0-1.94-.25c-.66.18-1.21.6-1.55 1.19L1.96 7.42c-.7 1.22-.29 2.79.93 3.49l.28.16c-.03.31-.05.62-.05.94s.02.62.05.94l-.28.16a2.553 2.553 0 0 0-.93 3.49l1.06 1.83a2.553 2.553 0 0 0 3.49.93l.3-.17q.75.555 1.59.93v.34c0 1.41 1.15 2.56 2.56 2.56h2.11c1.41 0 2.56-1.15 2.56-2.56v-.34c.56-.25 1.09-.57 1.59-.93l.3.17c1.22.7 2.79.29 3.49-.93l1.05-1.83c.7-1.22.29-2.79-.93-3.49l-.28-.16c.03-.31.05-.62.05-.94s-.02-.62-.05-.94l.28-.16c1.22-.71 1.64-2.27.93-3.49Zm-4.33 3.24c.11.44.17.9.17 1.35s-.06.9-.17 1.35c-.16.65.13 1.33.71 1.66l.8.46-.61 1.06-.82-.48c-.58-.33-1.3-.25-1.78.21a5.86 5.86 0 0 1-2.34 1.37c-.63.19-1.06.77-1.06 1.43v.93H11.4v-.93c0-.66-.43-1.24-1.06-1.43-.86-.26-1.67-.74-2.34-1.37-.48-.46-1.21-.54-1.78-.21l-.82.48-.61-1.06.8-.46c.58-.33.87-1.01.71-1.66-.11-.44-.17-.9-.17-1.35s.06-.9.17-1.35c.16-.65-.13-1.33-.71-1.66l-.8-.46.61-1.06.82.48c.58.33 1.3.25 1.78-.21a5.86 5.86 0 0 1 2.34-1.37c.63-.19 1.06-.77 1.06-1.43v-.93h1.22v.93c0 .66.43 1.24 1.06 1.43.86.26 1.67.74 2.34 1.37.48.46 1.21.54 1.78.21l.82-.48.61 1.06-.8.46c-.58.33-.87 1.01-.71 1.66"/></svg>