<svg xmlns="http://www.w3.org/2000/svg" viewBox="0 0 24 24" width="24" height="24"><path d="m21.32,10.75s.01,0,.02-.01c.26-.26.5-.55.71-.85.21-.31.39-.64.53-.98.15-.35.26-.71.34-1.09.06-.27.08-.56.09-.85.02-.42-.14-.84-.44-1.14-.3-.3-.71-.45-1.14-.44-.08,0-.15.01-.15.02-1.5,0-2.73-1.21-2.76-2.7,0-.07.02-.14.02-.21.02-.42-.15-.84-.45-1.14-.3-.3-.73-.45-1.15-.43-.28.02-.56.04-.83.09-.38.08-.74.19-1.08.34-.34.14-.67.32-.98.53-.3.21-.59.44-.85.7-.26.26-.5.55-.7.85-.21.31-.39.64-.53.98-.15.35-.26.71-.34,1.08-.04.18-.06.36-.08.54-.22-.02-.43-.04-.65-.04-3.5,0-6.42,2.71-6.99,6.25-1.68.61-2.89,2.29-2.89,4.25,0,2.48,1.93,4.5,4.29,4.5h12.01c3.14,0,5.69-2.69,5.69-6,0-1.66-.64-3.17-1.68-4.25Zm-6.82-4.09c0-.19.02-.38.06-.56.04-.18.09-.35.16-.52.07-.16.15-.32.26-.47.1-.15.21-.29.34-.41.13-.13.27-.24.41-.34l.04-.03c.56,1.82,2,3.26,3.82,3.82,0,.02-.02.03-.03.05-.1.15-.21.28-.34.41-.12.12-.26.24-.41.34-.1.07-.22.12-.33.18-.38-.08-.77-.13-1.16-.13-.25,0-.49.02-.74.05-.55-.8-1.24-1.45-2.02-1.96-.02-.15-.04-.29-.04-.44Zm2.81,11.34H5.29c-.71,0-1.29-.67-1.29-1.5s.58-1.5,1.29-1.5c.83,0,1.5-.67,1.5-1.5,0-2.48,1.83-4.5,4.09-4.5,1.51,0,2.9.93,3.61,2.44.34.72,1.18,1.05,1.92.75.32-.13.61-.19.9-.19,1.48,0,2.69,1.35,2.69,3s-1.21,3-2.69,3Z"/></svg>