<svg xmlns="http://www.w3.org/2000/svg" viewBox="0 0 24 24" width="24" height="24"><path d="m19,11.14l-.96-8.37c-.12-1.01-.97-1.77-1.99-1.77H7.95c-1.02,0-1.87.76-1.99,1.77l-.95,8.2v.17c0,3.28,2.35,6.02,5.49,6.69v2.16h-2c-.83,0-1.5.67-1.5,1.5s.67,1.5,1.5,1.5h7c.83,0,1.5-.67,1.5-1.5s-.67-1.5-1.5-1.5h-2v-2.16c3.14-.68,5.5-3.42,5.5-6.69Zm-3.84-7.14l.51,4.44c-1.42-.44-2.94-.11-4.18,1-1.01.9-2.25,1.05-3.34.41l.68-5.85h6.33Zm-7.13,7.45c.49.19,1,.3,1.51.3,1.04,0,2.07-.4,2.96-1.2,1.02-.92,2.27-1.05,3.38-.39l.12,1.06c-.04,2.09-1.82,3.78-4,3.78s-3.8-1.57-3.97-3.55Z"/></svg>