<svg xmlns="http://www.w3.org/2000/svg" viewBox="0 0 24 24" width="24" height="24"><path d="m6.5,21.53c1.69.98,3.58,1.48,5.48,1.48.96,0,1.92-.13,2.87-.38,2.84-.76,5.21-2.58,6.68-5.12,3.03-5.25,1.23-11.99-4.03-15.03-2.54-1.47-5.51-1.86-8.35-1.1-2.84.76-5.21,2.58-6.68,5.12-3.03,5.25-1.23,11.99,4.03,15.03Zm-1.43-13.53c2.2-3.82,7.11-5.13,10.93-2.93,3.82,2.21,5.13,7.11,2.93,10.93-2.2,3.82-7.11,5.13-10.93,2.93-3.82-2.21-5.13-7.11-2.93-10.93Z"/><path d="m11.29,12.19s.03.1.05.14c0,.01,0,.03.01.04l2.62,4.55c.14.24.39.38.65.38.13,0,.26-.03.37-.1.36-.21.48-.67.27-1.02l-2.52-4.37v-5.05c0-.41-.34-.75-.75-.75s-.75.34-.75.75v5.25s0,.03,0,.04c0,.05.02.1.03.15Z"/></svg>