<svg xmlns="http://www.w3.org/2000/svg" viewBox="0 0 24 24" width="24" height="24"><path d="m5.5,10c2.48,0,4.5-2.02,4.5-4.5S7.98,1,5.5,1,1,3.02,1,5.5s2.02,4.5,4.5,4.5Zm0-6c.83,0,1.5.67,1.5,1.5s-.67,1.5-1.5,1.5-1.5-.67-1.5-1.5.67-1.5,1.5-1.5Z"/><path d="m22.14,5.45c.45.05.86-.29.86-.75,0-.37-.27-.7-.64-.74-2.7-.31-4.17-2.52-4.23-2.62-.14-.22-.4-.39-.64-.34-.26,0-.5.14-.63.36-.06.1-1.46,2.3-4.22,2.61-.37.04-.64.37-.64.74h0c0,.45.4.8.86.75,1.29-.15,2.33-.63,3.14-1.18v2.09c-.7.66-1.8,1.43-3.36,1.61-.37.04-.64.37-.64.74h0c0,.45.4.8.86.75,1.29-.15,2.33-.63,3.14-1.18v2.74s-.06-.01-.09-.01H7.5c-.54,0-1.05.29-1.31.77L1.6,20.03s0,0,0,0c-.34.62-.33,1.38.03,1.99.36.61,1.02.98,1.72.98h17.3c.71,0,1.37-.38,1.72-.98.36-.61.37-1.37.02-1.99l-3.4-6.12v-5.66c.82.56,1.86,1.05,3.14,1.2.45.05.86-.29.86-.75,0-.37-.27-.7-.64-.74-1.54-.18-2.66-.96-3.36-1.63v-2.09c.82.56,1.86,1.05,3.14,1.2Zm-4.63-2.49s.02.03.04.04h-.07s.02-.03.04-.04ZM5.05,20l2.45-4.41,2.45,4.41h-4.9Zm8.33,0l-3.33-6h5.57l3.33,6h-5.57Z"/></svg>