<svg xmlns="http://www.w3.org/2000/svg" viewBox="0 0 24 24" width="24" height="24"><path d="m21,5.28v-.78c0-.83-.67-1.5-1.5-1.5h-3c-.83,0-1.5.67-1.5,1.5v.5h-6v-.5c0-.83-.67-1.5-1.5-1.5h-3c-.83,0-1.5.67-1.5,1.5v.78c-1.74.62-3,2.27-3,4.22v7c0,2.48,2.02,4.5,4.5,4.5h15c2.48,0,4.5-2.02,4.5-4.5v-7c0-1.95-1.26-3.6-3-4.22Zm0,11.22c0,.83-.67,1.5-1.5,1.5H4.5c-.83,0-1.5-.67-1.5-1.5v-7c0-.83.67-1.5,1.5-1.5h15c.83,0,1.5.67,1.5,1.5v7Z"/><path d="M16.75 10 15.25 10 15.25 12.25 13 12.25 13 13.75 15.25 13.75 15.25 16 16.75 16 16.75 13.75 19 13.75 19 12.25 16.75 12.25 16.75 10z"/><path d="M5 12.25H11V13.75H5z"/></svg>