<svg xmlns="http://www.w3.org/2000/svg" viewBox="0 0 24 24" width="24" height="24"><path d="m19.94,5.85l-5.5-3.56c-1.49-.96-3.4-.96-4.89,0l-5.5,3.56c-1.29.83-2.06,2.25-2.06,3.78v4.74c0,1.53.77,2.95,2.06,3.78l5.5,3.56c.74.48,1.59.72,2.45.72s1.7-.24,2.44-.72l5.5-3.56c1.29-.83,2.06-2.25,2.06-3.78v-4.74c0-1.53-.77-2.95-2.06-3.78Zm-8.76-1.04h0c.25-.16.53-.24.81-.24s.57.08.81.24l4.92,3.19-1.69,1.09c-.91-1.26-2.38-2.09-4.05-2.09s-3.14.83-4.05,2.09l-1.69-1.09,4.92-3.19Zm.81,9.19c-1.1,0-2-.9-2-2s.9-2,2-2,2,.9,2,2-.9,2-2,2Zm-6.31,1.63c-.43-.28-.69-.75-.69-1.26v-3.61l2.01,1.3c.02,2.21,1.49,4.05,3.49,4.69v2l-4.81-3.12Zm12.63,0l-4.81,3.12v-2c2-.64,3.47-2.48,3.49-4.69l2.01-1.3v3.61c0,.51-.26.98-.69,1.26Z"/></svg>