<svg xmlns="http://www.w3.org/2000/svg" viewBox="0 0 24 24" width="24" height="24"><path d="M18.69 6.45C18.16 3.37 15.36 1 12 1S5.84 3.36 5.31 6.45C2.75 7.41 1 9.8 1 12.5 1 16.08 4.04 19 7.78 19c.95 0 1.87-.22 2.72-.58V20h-2c-.83 0-1.5.67-1.5 1.5S7.67 23 8.5 23h7c.83 0 1.5-.67 1.5-1.5s-.67-1.5-1.5-1.5h-2v-1.58c.85.36 1.77.58 2.72.58 3.74 0 6.78-2.92 6.78-6.5 0-2.71-1.76-5.1-4.31-6.05M16.22 16c-1.2 0-2.34-.54-3.05-1.43-.28-.36-.72-.57-1.17-.57s-.89.21-1.17.57c-.71.9-1.85 1.43-3.05 1.43C5.7 16 4 14.43 4 12.5c0-1.65 1.27-3.09 3.01-3.43.43-.08.8-.35 1.02-.73.16-.28.23-.6.19-.92.04-1.9 1.72-3.43 3.78-3.43s3.73 1.53 3.78 3.43c-.04.32.03.64.19.92.22.38.59.65 1.02.73C18.74 9.4 20 10.84 20 12.5c0 1.93-1.69 3.5-3.78 3.5"/></svg>