<svg xmlns="http://www.w3.org/2000/svg" viewBox="0 0 24 24" width="24" height="24"><path d="m20.34,4.98l-6.78-3.38c-.98-.49-2.15-.49-3.12,0l-6.78,3.38c-1.02.51-1.66,1.53-1.66,2.67,0,2.41.59,10.6,8.32,14.7.53.28,1.11.42,1.68.42s1.16-.14,1.68-.42c7.72-4.09,8.32-12.28,8.32-14.7,0-1.14-.64-2.16-1.66-2.67Zm-8.06,14.72c-.17.09-.38.09-.55,0-6.07-3.22-6.72-9.49-6.72-12.03l6.78-3.38c.07-.04.15-.05.22-.05s.15.02.22.05l6.78,3.38s0-.01,0-.01c0,2.55-.65,8.82-6.72,12.04Z"/><path d="m14.47,9.47l-3.47,3.47-1.47-1.47c-.29-.29-.77-.29-1.06,0s-.29.77,0,1.06l2,2c.15.15.34.22.53.22s.38-.07.53-.22l4-4c.29-.29.29-.77,0-1.06s-.77-.29-1.06,0Z"/></svg>