<svg xmlns="http://www.w3.org/2000/svg" viewBox="0 0 24 24" width="24" height="24"><path d="m12,6c-.41,0-.75.34-.75.75v4.82l-4.17,2.41c-.36.21-.48.67-.27,1.02.14.24.39.38.65.38.13,0,.26-.03.37-.1l4.55-2.62s.04-.04.07-.06c.04-.03.08-.06.12-.1.03-.04.06-.08.08-.12.02-.04.05-.08.06-.13.02-.05.02-.1.03-.15,0-.03.02-.06.02-.09v-5.25c0-.41-.34-.75-.75-.75Z"/><path d="m14.85,1.38c-2.84-.76-5.8-.37-8.35,1.1C1.25,5.51-.56,12.25,2.47,17.5c1.47,2.54,3.84,4.37,6.68,5.12.95.25,1.91.38,2.87.38,1.91,0,3.79-.5,5.48-1.48,5.25-3.03,7.06-9.77,4.03-15.03-1.47-2.54-3.84-4.37-6.68-5.12Zm1.15,17.55c-3.82,2.2-8.72.89-10.93-2.93-2.21-3.82-.89-8.72,2.93-10.93,1.26-.73,2.63-1.07,3.99-1.07,2.77,0,5.46,1.44,6.94,4,2.21,3.82.89,8.72-2.93,10.93Z"/></svg>