<svg xmlns="http://www.w3.org/2000/svg" width="24" height="24" viewBox="0 0 24 24"><path d="M18.5 3h-13C3.02 3 1 5.02 1 7.5v9C1 18.98 3.02 21 5.5 21h13c2.48 0 4.5-2.02 4.5-4.5v-9C23 5.02 20.98 3 18.5 3M20 16.5c0 .83-.67 1.5-1.5 1.5h-13c-.83 0-1.5-.67-1.5-1.5v-9C4 6.67 4.67 6 5.5 6h13c.83 0 1.5.67 1.5 1.5z"/><path d="M6.75 12h1.5c.41 0 .75-.34.75-.75s-.34-.75-.75-.75h-1.5c-.41 0-.75.34-.75.75s.34.75.75.75M17.25 14h-1.5c-.41 0-.75.34-.75.75s.34.75.75.75h1.5c.41 0 .75-.34.75-.75s-.34-.75-.75-.75M17.25 10.5h-5.5c-.41 0-.75.34-.75.75s.34.75.75.75h5.5c.41 0 .75-.34.75-.75s-.34-.75-.75-.75M12.25 14h-5.5c-.41 0-.75.34-.75.75s.34.75.75.75h5.5c.41 0 .75-.34.75-.75s-.34-.75-.75-.75"/></svg>