<svg xmlns="http://www.w3.org/2000/svg" viewBox="0 0 24 24" width="24" height="24"><path d="m17.99,3.05s0-.03,0-.05v-.5c0-.83-.67-1.5-1.5-1.5s-1.5.67-1.5,1.5v.5h-6v-.5c0-.83-.67-1.5-1.5-1.5s-1.5.67-1.5,1.5v.5s0,.03,0,.05c-2.25.25-4.01,2.14-4.01,4.45v11c0,2.48,2.02,4.5,4.5,4.5h11c2.48,0,4.5-2.02,4.5-4.5V7.5c0-2.31-1.76-4.2-4.01-4.45Zm1.01,15.45c0,.83-.67,1.5-1.5,1.5H6.5c-.83,0-1.5-.67-1.5-1.5v-10.5h14v10.5Z"/><path d="m8.33,15.64l.42.73c.18.3.57.41.88.23l.34-.2c.29.25.62.44.97.57v.39c0,.35.29.64.64.64h.84c.35,0,.64-.29.64-.64v-.39c.35-.13.68-.32.97-.57l.34.2c.31.18.7.07.88-.23l.42-.73c.18-.31.07-.7-.23-.88l-.33-.19c.04-.19.05-.38.05-.57s-.02-.38-.05-.57l.33-.19c.31-.18.41-.57.23-.88l-.42-.73c-.18-.31-.57-.41-.88-.23l-.34.2c-.29-.25-.62-.44-.97-.57v-.39c0-.35-.29-.64-.64-.64h-.84c-.35,0-.64.29-.64.64v.39c-.35.13-.68.32-.97.57l-.34-.2c-.31-.18-.7-.07-.88.23l-.42.73c-.18.31-.07.7.23.88l.33.19c-.04.19-.05.38-.05.57s.02.38.05.57l-.33.19c-.31.18-.41.57-.23.88Zm3.67-3.18c.84,0,1.55.71,1.55,1.55s-.71,1.55-1.55,1.55-1.55-.71-1.55-1.55.71-1.55,1.55-1.55Z"/></svg>