<svg xmlns="http://www.w3.org/2000/svg" width="24" height="24" viewBox="0 0 24 24"><path d="M13.62 18H5.5c-.1 0-.21 0-.3-.03a1.653 1.653 0 0 1-.54-.23c-.08-.05-.15-.12-.22-.18-.07-.07-.13-.14-.18-.22s-.1-.17-.14-.26-.07-.18-.09-.28Q4 16.65 4 16.5v-8C4 7.67 3.33 7 2.5 7S1 7.67 1 8.5v8c0 .3.03.61.09.91.06.29.15.58.26.84.11.27.25.52.42.77.16.24.34.46.55.66s.43.39.66.55c.24.16.5.3.77.42.27.11.56.2.84.26.29.06.6.09.91.09h8.12c.83 0 1.5-.67 1.5-1.5s-.67-1.5-1.5-1.5M22.65 6.75a4 4 0 0 0-.42-.77c-.16-.24-.34-.46-.55-.66s-.43-.39-.66-.55c-.24-.16-.5-.3-.77-.42-.27-.11-.56-.2-.84-.26-.29-.06-.6-.09-.91-.09h-1.2l-1.11-1.67c-.07-.1-.14-.2-.22-.29a3 3 0 0 0-.26-.26c-.09-.08-.18-.16-.28-.23s-.21-.14-.3-.18c-.11-.06-.23-.12-.34-.16-.12-.05-.24-.09-.34-.11-.12-.03-.25-.05-.37-.07s-.25-.02-.38-.02h-3.39c-.13 0-.25 0-.38.02a3 3 0 0 0-.35.07 3 3 0 0 0-.68.26c-.11.06-.22.12-.32.2-.1.07-.19.15-.28.23s-.18.17-.26.27c-.08.09-.15.19-.22.29L6.71 4.02h-1.2c-.14 0-.27.03-.4.04L2.28 1.22c-.29-.29-.77-.29-1.06 0s-.29.77 0 1.06l20.5 20.5c.15.15.34.22.53.22s.38-.07.53-.22c.29-.29.29-.77 0-1.06l-1.61-1.61c.18-.13.36-.27.51-.42a4.5 4.5 0 0 0 .96-1.43 4.604 4.604 0 0 0 .35-1.76v-8c0-.3-.03-.61-.09-.91a4.6 4.6 0 0 0-.26-.84Zm-8.45 6.39-3.33-3.33c.93-.47 2.11-.34 2.89.44.48.48.74 1.1.74 1.76 0 .4-.11.79-.3 1.14Zm1.1 1.1c.46-.66.7-1.43.7-2.24 0-1.05-.42-2.05-1.18-2.82-1.35-1.35-3.51-1.5-5.05-.47l-1.8-1.8c.31-.1.59-.3.77-.58L10.29 4h3.4l1.55 2.33c.28.42.75.67 1.25.67h2c.1 0 .21 0 .3.03a1.653 1.653 0 0 1 .54.23c.08.05.15.12.22.18.07.07.13.14.18.22s.1.17.14.26.07.18.09.28q.03.15.03.3v8a1.5 1.5 0 0 1-.12.58c-.04.09-.08.17-.14.25-.05.08-.12.16-.19.22-.07.07-.14.13-.23.19-.08.05-.16.1-.25.13-.04.02-.08.02-.11.03l-3.68-3.68Z"/></svg>