<svg xmlns="http://www.w3.org/2000/svg" viewBox="0 0 24 24" width="24" height="24"><path d="m9.71,14.96c.08.08.1.19.07.29l-.56,1.81c-.16.52.42.95.87.65l1.74-1.16c.1-.06.22-.06.32,0l1.74,1.16c.45.3,1.03-.13.87-.65l-.56-1.81c-.03-.1,0-.21.07-.29l1.44-1.44c.35-.35.13-.94-.36-.98l-1.74-.15c-.1,0-.19-.07-.23-.16l-.88-1.78c-.21-.43-.82-.43-1.03,0l-.88,1.78c-.04.09-.13.15-.23.16l-1.74.15c-.49.04-.7.63-.36.98l1.44,1.44Z"/><path d="m17.99,3.05s0-.03,0-.05v-.5c0-.83-.67-1.5-1.5-1.5s-1.5.67-1.5,1.5v.5h-6v-.5c0-.83-.67-1.5-1.5-1.5s-1.5.67-1.5,1.5v.5s0,.03,0,.05c-2.25.25-4.01,2.14-4.01,4.45v11c0,2.48,2.02,4.5,4.5,4.5h11c2.48,0,4.5-2.02,4.5-4.5V7.5c0-2.31-1.76-4.2-4.01-4.45Zm1.01,15.45c0,.83-.67,1.5-1.5,1.5H6.5c-.83,0-1.5-.67-1.5-1.5v-10.5h14v10.5Z"/></svg>