<svg xmlns="http://www.w3.org/2000/svg" width="24" height="24" viewBox="0 0 24 24"><path d="M19.5 1h-8C9.57 1 8 2.57 8 4.5v8c0 1.93 1.57 3.5 3.5 3.5h8c1.93 0 3.5-1.57 3.5-3.5v-8C23 2.57 21.43 1 19.5 1m.5 11.5c0 .28-.22.5-.5.5h-8c-.28 0-.5-.22-.5-.5v-8c0-.28.22-.5.5-.5h8c.28 0 .5.22.5.5z"/><path d="M4.5 23h8c1.93 0 3.5-1.57 3.5-3.5 0-.83-.67-1.5-1.5-1.5s-1.5.67-1.5 1.5c0 .28-.22.5-.5.5h-8c-.28 0-.5-.22-.5-.5v-8c0-.28.22-.5.5-.5.83 0 1.5-.67 1.5-1.5S5.33 8 4.5 8C2.57 8 1 9.57 1 11.5v8C1 21.43 2.57 23 4.5 23M17.75 7.75h-4.5c-.41 0-.75.34-.75.75s.34.75.75.75h4.5c.41 0 .75-.34.75-.75s-.34-.75-.75-.75"/></svg>