<svg xmlns="http://www.w3.org/2000/svg" viewBox="0 0 24 24" width="24" height="24"><path d="m10.17,17.09c-.37-.19-.82-.05-1.01.32l-2.36,4.5c-.19.37-.05.82.32,1.01.11.06.23.09.35.09.27,0,.53-.15.67-.4l2.36-4.5c.19-.37.05-.82-.32-1.01Z"/><path d="m19.6,17.09c-.37-.19-.82-.05-1.01.32l-2.36,4.5c-.19.37-.05.82.32,1.01.11.06.23.09.35.09.27,0,.53-.15.67-.4l2.36-4.5c.19-.37.05-.82-.32-1.01Z"/><path d="m5.46,17.09c-.37-.19-.82-.05-1.01.32l-1.16,2.21c-.19.37-.05.82.32,1.01.11.06.23.09.35.09.27,0,.53-.15.67-.4l1.16-2.21c.19-.37.05-.82-.32-1.01Z"/><path d="m14.88,17.09c-.37-.19-.82-.05-1.01.32l-1.16,2.21c-.19.37-.05.82.32,1.01.11.06.23.09.35.09.27,0,.53-.15.67-.4l1.16-2.21c.19-.37.05-.82-.32-1.01Z"/><path d="m3.04,21.56c-.18-.08-.39-.08-.58,0-.09.03-.17.09-.24.16-.07.07-.12.15-.16.24-.04.1-.06.19-.06.29,0,.2.08.39.22.53.07.07.15.12.24.16.09.04.19.06.29.06.2,0,.39-.08.53-.22.07-.07.13-.15.16-.24.04-.09.06-.19.06-.29,0-.19-.08-.39-.22-.53-.07-.07-.15-.13-.24-.16Z"/><path d="m11.89,21.56c-.09.03-.17.09-.24.16-.07.07-.13.15-.16.24-.04.1-.06.19-.06.29,0,.2.08.39.22.53.07.07.15.12.24.16.09.04.19.06.29.06.2,0,.39-.08.53-.22.07-.07.12-.15.16-.24s.06-.19.06-.29c0-.19-.08-.39-.22-.53-.21-.21-.54-.28-.82-.16Z"/><path d="m20.11,7.25c-.57-3.54-3.48-6.25-6.99-6.25-2.28,0-4.36,1.14-5.68,3.05-.25-.04-.5-.05-.74-.05-3.14,0-5.69,2.69-5.69,6s2.55,6,5.69,6h12.01c2.37,0,4.29-2.02,4.29-4.5,0-1.97-1.21-3.64-2.89-4.25Zm-1.4,5.75H6.69c-1.48,0-2.69-1.35-2.69-3s1.21-3,2.69-3c.29,0,.59.06.9.19.74.3,1.58-.03,1.92-.75.71-1.5,2.09-2.44,3.61-2.44,2.25,0,4.09,2.02,4.09,4.5,0,.83.67,1.5,1.5,1.5.71,0,1.29.67,1.29,1.5s-.58,1.5-1.29,1.5Z"/></svg>