<svg xmlns="http://www.w3.org/2000/svg" viewBox="0 0 24 24" width="24" height="24"><path class="b" d="m4,11h4c1.65,0,3-1.35,3-3v-4c0-1.65-1.35-3-3-3h-4c-1.65,0-3,1.35-3,3v4c0,1.65,1.35,3,3,3Zm0-7h4v4s-4,0-4,0v-4Z"/><path class="b" d="m20,13h-4c-1.65,0-3,1.35-3,3v4c0,1.65,1.35,3,3,3h4c1.65,0,3-1.35,3-3v-4c0-1.65-1.35-3-3-3Zm-4,7v-4h4v4s-4,0-4,0Z"/><path class="b" d="m4,20h2v1.32c0,.65.77.99,1.25.56l3.13-2.82c.33-.3.33-.82,0-1.11l-3.13-2.82c-.48-.43-1.25-.09-1.25.56v1.32h-2v-2.5c0-.83-.67-1.5-1.5-1.5s-1.5.67-1.5,1.5v2.5c0,1.65,1.35,3,3,3Z"/><path class="b" d="m20,4h-2v-1.32c0-.65-.77-.99-1.25-.56l-3.13,2.82c-.33.3-.33.82,0,1.11l3.13,2.82c.48.43,1.25.09,1.25-.56v-1.32h2v2.5c0,.83.67,1.5,1.5,1.5s1.5-.67,1.5-1.5v-2.5c0-1.65-1.35-3-3-3Z"/></svg>