<svg xmlns="http://www.w3.org/2000/svg" viewBox="0 0 24 24" width="24" height="24"><path d="m21.5,1H2.5c-.83,0-1.5.67-1.5,1.5s.67,1.5,1.5,1.5h.5v15.5c0,1.93,1.57,3.5,3.5,3.5h11c1.93,0,3.5-1.57,3.5-3.5V4h.5c.83,0,1.5-.67,1.5-1.5s-.67-1.5-1.5-1.5Zm-3.5,18.5c0,.28-.22.5-.5.5H6.5c-.28,0-.5-.22-.5-.5V4h12v15.5Z"/><path d="m15,18c.41,0,.75-.34.75-.75v-3.5c0-.41-.34-.75-.75-.75s-.75.34-.75.75v3.5c0,.41.34.75.75.75Z"/><rect x="8" y="13" width="3" height="5" rx=".75" ry=".75"/><path d="m15,11c.41,0,.75-.34.75-.75v-3.5c0-.41-.34-.75-.75-.75s-.75.34-.75.75v3.5c0,.41.34.75.75.75Z"/></svg>