<svg xmlns="http://www.w3.org/2000/svg" width="24" height="24" viewBox="0 0 24 24"><path d="M6 23h12a3.999 3.999 0 0 0 .46-7.97c-.54-1.02-1.15-2.37-1.63-3.46.99-1.34 1.4-3.05 1.05-4.78a5.95 5.95 0 0 0-4.49-4.63A6.005 6.005 0 0 0 6 8c0 1.31.42 2.55 1.17 3.56-.48 1.1-1.1 2.45-1.63 3.46A3.999 3.999 0 0 0 6 22.99Zm0-5h1c.17 0 .34-.09.43-.24l.22-.35c1.19-1.95 2.9-6.08 2.97-6.26.09-.23 0-.48-.2-.61a2.996 2.996 0 0 1-.29-4.89c.72-.58 1.66-.78 2.58-.57 1.1.25 2 1.17 2.22 2.29a3 3 0 0 1-1.35 3.16c-.21.13-.29.39-.2.61.07.17 1.78 4.31 2.97 6.26l.22.35c.09.15.25.24.43.24h1c.55 0 1 .45 1 1s-.45 1-1 1H6c-.55 0-1-.45-1-1s.45-1 1-1Z"/></svg>