<svg xmlns="http://www.w3.org/2000/svg" width="24" height="24" viewBox="0 0 24 24"><path d="M10.75 11a.754.754 0 0 0-1.06 0l-1.97 1.97c-.29.29-.29.77 0 1.06L9.69 16c.29.29.77.29 1.06 0s.29-.77 0-1.06L9.31 13.5l1.44-1.44c.29-.29.29-.77 0-1.06M14.31 11a.754.754 0 0 0-1.06 0c-.29.29-.29.77 0 1.06l1.44 1.44-1.44 1.44c-.29.29-.29.77 0 1.06s.77.29 1.06 0l1.97-1.97c.29-.29.29-.77 0-1.06z"/><path d="M17.5 2h-.59c-.21-.58-.76-1-1.41-1h-7c-.65 0-1.2.42-1.41 1H6.5C4.02 2 2 4.02 2 6.5v12C2 20.98 4.02 23 6.5 23h11c2.48 0 4.5-2.02 4.5-4.5v-12C22 4.02 19.98 2 17.5 2M19 18.5c0 .83-.67 1.5-1.5 1.5h-11c-.83 0-1.5-.67-1.5-1.5v-12C5 5.67 5.67 5 6.5 5H7v1.25c0 .41.34.75.75.75h8.5c.41 0 .75-.34.75-.75V5h.5c.83 0 1.5.67 1.5 1.5z"/></svg>