<svg xmlns="http://www.w3.org/2000/svg" viewBox="0 0 24 24" width="24" height="24"><path d="m20.13,13.01c-.59-.59-1.54-.59-2.12,0-.21.21-.43.4-.65.59l-2.08-4.32c.45-.65.72-1.43.72-2.28,0-1.67-1.04-3.11-2.5-3.7v-.8c0-.83-.67-1.5-1.5-1.5s-1.5.67-1.5,1.5v.8c-1.46.6-2.5,2.03-2.5,3.7,0,.85.27,1.63.72,2.28l-2.08,4.32c-.23-.18-.44-.38-.65-.59-.59-.59-1.54-.59-2.12,0s-.59,1.54,0,2.12c.45.45.94.85,1.45,1.21l-2.17,4.5c-.36.75-.05,1.64.7,2,.21.1.43.15.65.15.56,0,1.09-.31,1.35-.85l2.11-4.39c1.29.48,2.65.74,4.03.74,1.49,0,2.95-.28,4.33-.84,1.43-.58,2.71-1.43,3.8-2.53.59-.59.59-1.54,0-2.12Zm-9.13-6.01c0-.55.45-1,1-1s1,.45,1,1-.45,1-1,1-1-.45-1-1Zm-1.73,8.04l1.98-4.12c.24.05.49.08.74.08s.5-.03.74-.08l1.98,4.12c-1.76.59-3.69.59-5.45,0Z"/><path d="m20.19,19.47c-.36-.75-1.26-1.06-2-.7-.75.36-1.06,1.26-.7,2l.66,1.38c.26.54.79.85,1.35.85.22,0,.44-.05.65-.15.75-.36,1.06-1.26.7-2l-.66-1.38Z"/></svg>