<svg xmlns="http://www.w3.org/2000/svg" viewBox="0 0 24 24" width="24" height="24"><path d="M6.5 12A1.5 1.5 0 1 0 6.5 15 1.5 1.5 0 1 0 6.5 12z"/><path d="M17.5 12A1.5 1.5 0 1 0 17.5 15 1.5 1.5 0 1 0 17.5 12z"/><path d="m21.33,8.52l-1.21-3.5c-.63-1.81-2.34-3.03-4.25-3.03h-7.73c-1.92,0-3.62,1.22-4.25,3.03l-1.21,3.5c-1.03.62-1.67,1.74-1.67,2.98v4c0,1.19.6,2.23,1.5,2.86v2.14c0,.83.67,1.5,1.5,1.5h1c.83,0,1.5-.67,1.5-1.5v-1.5h11v1.5c0,.83.67,1.5,1.5,1.5h1c.83,0,1.5-.67,1.5-1.5v-2.14c.9-.63,1.5-1.68,1.5-2.86v-4c0-1.24-.65-2.35-1.67-2.98Zm-17.33,2.98c0-.24.18-.41.35-.47.45-.15.8-.49.95-.94l1.42-4.09c.21-.6.78-1.01,1.42-1.01h7.73c.64,0,1.21.41,1.42,1.01l1.42,4.09c.15.44.51.79.95.94.17.06.35.22.35.47v4c0,.28-.22.5-.5.5H4.5c-.28,0-.5-.22-.5-.5v-4Z"/><path d="m9.5,11.5h2c.28,0,.44.22.36.48l-.73,2.54c-.08.26,0,.3.16.08l3.41-4.69c.16-.22.07-.4-.21-.4h-2c-.28,0-.44-.22-.36-.48l.73-2.54c.08-.26,0-.3-.16-.08l-3.41,4.69c-.16.22-.07.4.21.4Z"/></svg>