<svg xmlns="http://www.w3.org/2000/svg" viewBox="0 0 24 24" width="24" height="24"><path d="m17.5,1H6c-1.65,0-3,1.35-3,3v3h-1.25c-.41,0-.75.34-.75.75s.34.75.75.75h1.25v2.75h-1.25c-.41,0-.75.34-.75.75s.34.75.75.75h1.25v2.75h-1.25c-.41,0-.75.34-.75.75s.34.75.75.75h1.25v3c0,1.65,1.35,3,3,3h11.5c2.48,0,4.5-2.02,4.5-4.5V5.5c0-2.48-2.02-4.5-4.5-4.5Zm1.5,17.5c0,.83-.67,1.5-1.5,1.5H6V4h11.5c.83,0,1.5.67,1.5,1.5v13Z"/><path d="M12.5 7A2.5 2.5 0 1 0 12.5 12 2.5 2.5 0 1 0 12.5 7z"/><path d="m14,13h-3c-1.66,0-3,1.34-3,3,0,.55.45,1,1,1h7c.55,0,1-.45,1-1,0-1.66-1.34-3-3-3Z"/></svg>