<svg xmlns="http://www.w3.org/2000/svg" viewBox="0 0 24 24" width="24" height="24"><path d="m3,8.5c0,2.48,2.02,4.5,4.5,4.5h9c2.48,0,4.5-2.02,4.5-4.5v-3c0-2.48-2.02-4.5-4.5-4.5H7.5c-2.48,0-4.5,2.02-4.5,4.5v3Zm3-3c0-.83.67-1.5,1.5-1.5h9c.83,0,1.5.67,1.5,1.5v3c0,.83-.67,1.5-1.5,1.5H7.5c-.83,0-1.5-.67-1.5-1.5v-3Z"/><path d="m4.5,23h15c.83,0,1.5-.67,1.5-1.5s-.67-1.5-1.5-1.5H4.5c-.83,0-1.5.67-1.5,1.5s.67,1.5,1.5,1.5Z"/><path d="m4.5,18h15c.83,0,1.5-.67,1.5-1.5s-.67-1.5-1.5-1.5H4.5c-.83,0-1.5.67-1.5,1.5s.67,1.5,1.5,1.5Z"/></svg>