<svg xmlns="http://www.w3.org/2000/svg" viewBox="0 0 24 24" width="24" height="24"><path d="M15.5 1A2.5 2.5 0 1 0 15.5 6 2.5 2.5 0 1 0 15.5 1z"/><path d="m18.5,12c.83,0,1.5-.67,1.5-1.5s-.67-1.5-1.5-1.5h-1.1c-.57,0-1.12-.19-1.56-.55l-3.1-2.48c-.52-.42-1.21-.61-1.88-.53-.68.09-1.28.43-1.69.98l-2.38,3.17c-.47.63-.38,1.51.21,2.03l2.63,2.3c.54.47.85,1.16.85,1.88v2.68c0,.83.67,1.5,1.5,1.5s1.5-.67,1.5-1.5v-2.68c0-1.59-.68-3.1-1.88-4.14l-.91-.79,1.26-1.68,1.99,1.59c.98.78,2.19,1.21,3.44,1.21h1.1Z"/><path d="m18.62,13.25c-2.41,0-4.38,1.96-4.38,4.38s1.96,4.38,4.38,4.38,4.38-1.96,4.38-4.38-1.96-4.38-4.38-4.38Zm0,7.25c-1.59,0-2.88-1.29-2.88-2.88s1.29-2.88,2.88-2.88,2.88,1.29,2.88,2.88-1.29,2.88-2.88,2.88Z"/><path d="m9.75,17.63c0-2.41-1.96-4.38-4.38-4.38s-4.38,1.96-4.38,4.38,1.96,4.38,4.38,4.38,4.38-1.96,4.38-4.38Zm-7.25,0c0-1.59,1.29-2.88,2.88-2.88s2.88,1.29,2.88,2.88-1.29,2.88-2.88,2.88-2.88-1.29-2.88-2.88Z"/></svg>