<svg xmlns="http://www.w3.org/2000/svg" width="24" height="24" viewBox="0 0 24 24"><path d="M11.5 5h-4C6.67 5 6 5.67 6 6.5S6.67 8 7.5 8h4c.83 0 1.5-.67 1.5-1.5S12.33 5 11.5 5M14.5 10h-4c-.83 0-1.5.67-1.5 1.5s.67 1.5 1.5 1.5h4c.83 0 1.5-.67 1.5-1.5s-.67-1.5-1.5-1.5M13 16.5c0 .83.67 1.5 1.5 1.5h4c.83 0 1.5-.67 1.5-1.5s-.67-1.5-1.5-1.5h-4c-.83 0-1.5.67-1.5 1.5"/><path d="M21.5 20h-17c-.28 0-.5-.22-.5-.5v-17C4 1.67 3.33 1 2.5 1S1 1.67 1 2.5v17C1 21.43 2.57 23 4.5 23h17c.83 0 1.5-.67 1.5-1.5s-.67-1.5-1.5-1.5"/></svg>