<svg xmlns="http://www.w3.org/2000/svg" viewBox="0 0 24 24" width="24" height="24"><path d="m22,7.35h0v-1.85c0-1.93-1.57-3.5-3.5-3.5H5.5c-1.93,0-3.5,1.57-3.5,3.5v1.85h0c-1.18.56-2,1.76-2,3.15v6c0,1.76,1.31,3.2,3,3.45v1.55c0,.83.67,1.5,1.5,1.5s1.5-.67,1.5-1.5v-1.5h12v1.5c0,.83.67,1.5,1.5,1.5s1.5-.67,1.5-1.5v-1.55c1.69-.25,3-1.69,3-3.45v-6c0-1.39-.82-2.58-2-3.15Zm-.69-.25s-.03,0-.04-.01c.01,0,.03,0,.04.01Zm-16.31-1.6c0-.28.22-.5.5-.5h13c.28,0,.5.22.5.5v1.85h0c-1.18.56-2,1.76-2,3.15v.5H7v-.5c0-1.39-.82-2.58-2-3.15h0v-1.85Zm14.73,1.59s-.03,0-.04.01c.01,0,.03,0,.04-.01Zm-15.41.01s-.03,0-.04-.01c.01,0,.03,0,.04.01Zm-1.59-.01s-.03,0-.04.01c.01,0,.03,0,.04-.01Zm18.27,9.41c0,.28-.22.5-.5.5H3.5c-.28,0-.5-.22-.5-.5v-6c0-.28.22-.5.5-.5s.5.22.5.5v2c0,.83.67,1.5,1.5,1.5h13c.83,0,1.5-.67,1.5-1.5v-2c0-.28.22-.5.5-.5s.5.22.5.5v6Z"/></svg>