<svg xmlns="http://www.w3.org/2000/svg" viewBox="0 0 24 24" width="24" height="24"><path d="m22.03,1.21L1.53,7.36c-.4.12-.62.54-.5.93.1.32.4.53.72.53.07,0,.14,0,.22-.03l9.28-2.79v2.99h-2.75c-2.48,0-4.5,2.02-4.5,4.5v5c0,2.48,2.02,4.5,4.5,4.5h7c2.48,0,4.5-2.02,4.5-4.5v-5c0-2.48-2.02-4.5-4.5-4.5h-2.75v-3.44l9.72-2.91c.4-.12.62-.54.5-.93-.12-.4-.54-.62-.93-.5Zm-13.53,10.79h2.75v3h-4.25v-1.5c0-.83.67-1.5,1.5-1.5Zm7,8h-7c-.83,0-1.5-.67-1.5-1.5v-2h10v2c0,.83-.67,1.5-1.5,1.5Zm0-8c.83,0,1.5.67,1.5,1.5v1.5h-4.25v-3h2.75Z"/></svg>