<svg xmlns="http://www.w3.org/2000/svg" viewBox="0 0 24 24" width="24" height="24"><path d="m21.5,6h-1.38l1.88-1.88c.59-.59.59-1.54,0-2.12-.59-.59-1.54-.59-2.12,0l-1.88,1.88v-1.38c0-.83-.67-1.5-1.5-1.5s-1.5.67-1.5,1.5v.52c-.08,0-.16-.02-.25-.02-2.24,0-4.29,1.13-5.49,3.02L1.99,17.5c-.82,1.3-.64,2.97.45,4.06.63.63,1.47.96,2.31.96.6,0,1.21-.17,1.75-.51l11.48-7.27c1.89-1.2,3.02-3.25,3.02-5.49,0-.08-.02-.16-.02-.25h.52c.83,0,1.5-.67,1.5-1.5s-.67-1.5-1.5-1.5Zm-5.13,6.21l-1.29.82-2.02-2.02c-.29-.29-.77-.29-1.06,0-.29.29-.29.77,0,1.06l1.78,1.78-1.76,1.12-.96-.96c-.29-.29-.77-.29-1.06,0-.29.29-.29.77,0,1.06l.72.72-5.83,3.69c-.11.07-.24.05-.33-.04s-.1-.22-.04-.33l7.27-11.48c.65-1.02,1.75-1.63,2.96-1.63.73,0,1.41.28,1.92.8l.53.53c.51.51.8,1.2.8,1.92,0,1.21-.61,2.31-1.63,2.96Z"/></svg>