<svg xmlns="http://www.w3.org/2000/svg" viewBox="0 0 24 24" width="24" height="24"><path d="m17.99,3.05s0-.03,0-.05v-.5c0-.83-.67-1.5-1.5-1.5s-1.5.67-1.5,1.5v.5h-6v-.5c0-.83-.67-1.5-1.5-1.5s-1.5.67-1.5,1.5v.5s0,.03,0,.05c-2.25.25-4.01,2.14-4.01,4.45v11c0,2.48,2.02,4.5,4.5,4.5h5.26c1.2,0,2.33-.47,3.18-1.32l5.74-5.74c.84-.84,1.32-2,1.32-3.18v-5.26c0-2.31-1.76-4.2-4.01-4.45Zm1.01,9.71c0,.08-.01.16-.02.24h-4.73c-1.24,0-2.25,1.01-2.25,2.25v4.73c-.08.01-.16.02-.24.02h-5.26c-.83,0-1.5-.67-1.5-1.5v-10.5h14v4.76Z"/></svg>