<svg xmlns="http://www.w3.org/2000/svg" width="24" height="24" viewBox="0 0 24 24"><path d="M18.5 18c.83 0 1.5-.67 1.5-1.5v-4c0-.83-.67-1.5-1.5-1.5s-1.5.67-1.5 1.5v4c0 .83.67 1.5 1.5 1.5M13.5 18c.83 0 1.5-.67 1.5-1.5v-12c0-.83-.67-1.5-1.5-1.5S12 3.67 12 4.5v12c0 .83.67 1.5 1.5 1.5M8.5 18c.83 0 1.5-.67 1.5-1.5v-7C10 8.67 9.33 8 8.5 8S7 8.67 7 9.5v7c0 .83.67 1.5 1.5 1.5"/><path d="M21.5 20H4V2.5C4 1.67 3.33 1 2.5 1S1 1.67 1 2.5V20c0 1.65 1.35 3 3 3h17.5c.83 0 1.5-.67 1.5-1.5s-.67-1.5-1.5-1.5"/></svg>