<svg xmlns="http://www.w3.org/2000/svg" viewBox="0 0 24 24" width="24" height="24"><path d="m3.45,17.98l6.91,4.32c.5.31,1.07.47,1.64.47s1.14-.16,1.64-.47l6.91-4.32c.91-.57,1.45-1.55,1.45-2.62v-6.73c0-1.07-.54-2.05-1.45-2.62L13.64,1.69c-1-.62-2.28-.62-3.28,0L3.45,6c-.91.57-1.45,1.55-1.45,2.62v6.73c0,1.07.54,2.05,1.45,2.62Zm1.55-2.62l.03-5.27,5.37,3.22s.06.02.09.04v5.48l-5.5-3.48Zm8.5,3.49v-5.49s.06-.02.09-.04l5.4-3.24-.03,5.36-5.46,3.41Zm-1.55-14.62h.01s.09,0,.09,0l5.27,3.34-5.37,3.18-5.32-3.19,5.32-3.32Z"/></svg>