<svg xmlns="http://www.w3.org/2000/svg" width="24" height="24" viewBox="0 0 24 24"><path d="M12 22c.83 0 1.5-.67 1.5-1.5v-17c0-.83-.67-1.5-1.5-1.5s-1.5.67-1.5 1.5v17c0 .83.67 1.5 1.5 1.5M7 17.5c.38 0 .77-.15 1.06-.44.59-.59.59-1.54 0-2.12L5.12 12l2.94-2.94c.59-.59.59-1.54 0-2.12s-1.54-.59-2.12 0l-4 4a1.49 1.49 0 0 0 0 2.12l4 4c.29.29.68.44 1.06.44M22.06 10.94l-4-4c-.59-.59-1.54-.59-2.12 0s-.59 1.54 0 2.12L18.88 12l-2.94 2.94a1.49 1.49 0 0 0 0 2.12c.29.29.68.44 1.06.44s.77-.15 1.06-.44l4-4c.59-.59.59-1.54 0-2.12"/></svg>