<svg xmlns="http://www.w3.org/2000/svg" viewBox="0 0 24 24" width="24" height="24"><path d="m20.17,3H6.08c-.24-1.15-1.26-2-2.44-2h-1.14c-.83,0-1.5.67-1.5,1.5s.67,1.5,1.5,1.5h.71l1.56,10.51c.25,1.7,1.74,2.99,3.46,2.99h10.27c.83,0,1.5-.67,1.5-1.5s-.67-1.5-1.5-1.5h-10.27c-.25,0-.46-.18-.49-.43l-.16-1.07h10.42c1.55,0,2.94-1.04,3.37-2.54l1.22-4.27c.22-.76.07-1.56-.41-2.19-.48-.63-1.2-.99-2-.99Zm-1.7,6.64c-.06.21-.26.36-.48.36H7.13l-.59-4h12.98l-1.04,3.64Z"/><path d="M7.25 18.5A2.25 2.25 0 1 0 7.25 23 2.25 2.25 0 1 0 7.25 18.5z"/><path d="M17.75 18.5A2.25 2.25 0 1 0 17.75 23 2.25 2.25 0 1 0 17.75 18.5z"/></svg>