<svg xmlns="http://www.w3.org/2000/svg" viewBox="0 0 24 24" width="24" height="24"><path d="m17.5,1H6.5c-2.48,0-4.5,2.02-4.5,4.5v13c0,2.48,2.02,4.5,4.5,4.5h11c2.48,0,4.5-2.02,4.5-4.5V5.5c0-2.48-2.02-4.5-4.5-4.5Zm1.5,17.5c0,.83-.67,1.5-1.5,1.5H6.5c-.83,0-1.5-.67-1.5-1.5V5.5c0-.83.67-1.5,1.5-1.5h11c.83,0,1.5.67,1.5,1.5v13Z"/><path d="M8 12A1 1 0 1 0 8 14 1 1 0 1 0 8 12z"/><path d="M8 16A1 1 0 1 0 8 18 1 1 0 1 0 8 16z"/><path d="M12 12A1 1 0 1 0 12 14 1 1 0 1 0 12 12z"/><rect x="7" y="6" width="10" height="4" rx="1.5" ry="1.5"/><path d="M12 16A1 1 0 1 0 12 18 1 1 0 1 0 12 16z"/><path d="m16,12c-.55,0-1,.45-1,1v4c0,.55.45,1,1,1s1-.45,1-1v-4c0-.55-.45-1-1-1Z"/></svg>