<svg xmlns="http://www.w3.org/2000/svg" viewBox="0 0 24 24" width="24" height="24"><path d="m19.5,1h-8c-1.93,0-3.5,1.57-3.5,3.5v8c0,1.93,1.57,3.5,3.5,3.5h8c1.93,0,3.5-1.57,3.5-3.5V4.5c0-1.93-1.57-3.5-3.5-3.5Zm.5,11.5c0,.28-.22.5-.5.5h-8c-.28,0-.5-.22-.5-.5V4.5c0-.28.22-.5.5-.5h8c.28,0,.5.22.5.5v8Z"/><path d="m14.5,18c-.83,0-1.5.67-1.5,1.5,0,.28-.22.5-.5.5H4.5c-.28,0-.5-.22-.5-.5v-8c0-.28.22-.5.5-.5.83,0,1.5-.67,1.5-1.5s-.67-1.5-1.5-1.5c-1.93,0-3.5,1.57-3.5,3.5v8c0,1.93,1.57,3.5,3.5,3.5h8c1.93,0,3.5-1.57,3.5-3.5,0-.83-.67-1.5-1.5-1.5Z"/><path d="m17.75,6h-4.5c-.41,0-.75.34-.75.75s.34.75.75.75h4.5c.41,0,.75-.34.75-.75s-.34-.75-.75-.75Z"/><path d="m17.75,9.5h-4.5c-.41,0-.75.34-.75.75s.34.75.75.75h4.5c.41,0,.75-.34.75-.75s-.34-.75-.75-.75Z"/></svg>