<svg xmlns="http://www.w3.org/2000/svg" viewBox="0 0 24 24" width="24" height="24"><path d="m12,1C5.93,1,1,5.93,1,12s4.93,11,11,11,11-4.93,11-11S18.07,1,12,1Zm0,19c-4.41,0-8-3.59-8-8S7.59,4,12,4s8,3.59,8,8-3.59,8-8,8Z"/><path d="m15,6.8c-.36-.21-.82-.08-1.02.27l-1.23,2.12v-2.45c0-.41-.34-.75-.75-.75s-.75.34-.75.75v5.25s.01.06.02.09c0,.05.01.1.03.15.02.05.04.09.06.13.02.04.05.08.08.12.03.04.07.07.12.1.03.02.04.05.07.06.01,0,.02,0,.04,0,.1.05.21.09.34.09,0,0,0,0,0,0,0,0,0,0,0,0,0,0,0,0,0,0,.12,0,.23-.04.34-.09.03-.01.05-.03.08-.05.08-.05.14-.11.19-.19.01-.02.03-.02.04-.04l2.62-4.55c.21-.36.08-.82-.27-1.02Z"/></svg>