<svg xmlns="http://www.w3.org/2000/svg" width="24" height="24" viewBox="0 0 24 24"><path d="M12 1C6.04 1 1 6.04 1 12s5.04 11 11 11 11-5.04 11-11S17.96 1 12 1m0 19c-4.34 0-8-3.66-8-8s3.66-8 8-8 8 3.66 8 8-3.66 8-8 8"/><path d="M14.01 9.14c.29.2.69.16.94-.09.33-.33.29-.88-.09-1.15-.83-.58-1.82-.9-2.86-.9-1.34 0-2.59.52-3.54 1.46S7 10.66 7 12s.52 2.59 1.46 3.54S10.66 17 12 17c1.04 0 2.03-.31 2.86-.9.38-.27.42-.82.09-1.15a.74.74 0 0 0-.94-.09c-1.35.92-3.31.8-4.49-.38-.66-.66-1.02-1.54-1.02-2.48s.36-1.81 1.02-2.48c1.18-1.18 3.14-1.31 4.49-.38"/></svg>