<svg xmlns="http://www.w3.org/2000/svg" viewBox="0 0 24 24" width="24" height="24"><path d="m2.75,23c.27,0,.53-.15.67-.4l2.36-4.5c.19-.37.05-.82-.32-1.01-.37-.19-.82-.05-1.01.32l-2.36,4.5c-.19.37-.05.82.32,1.01.11.06.23.09.35.09Z"/><path d="m7.46,23c.27,0,.53-.15.67-.4l2.36-4.5c.19-.37.05-.82-.32-1.01-.37-.19-.82-.05-1.01.32l-2.36,4.5c-.19.37-.05.82.32,1.01.11.06.23.09.35.09Z"/><path d="m12.18,23c.27,0,.53-.15.67-.4l2.36-4.5c.19-.37.05-.82-.32-1.01-.37-.19-.82-.05-1.01.32l-2.36,4.5c-.19.37-.05.82.32,1.01.11.06.23.09.35.09Z"/><path d="m16.89,23c.27,0,.53-.15.67-.4l2.36-4.5c.19-.37.05-.82-.32-1.01-.37-.19-.82-.05-1.01.32l-2.36,4.5c-.19.37-.05.82.32,1.01.11.06.23.09.35.09Z"/><path d="m20.11,7.25c-.57-3.54-3.48-6.25-6.99-6.25-2.28,0-4.36,1.14-5.68,3.05-.25-.04-.5-.05-.74-.05-3.14,0-5.69,2.69-5.69,6s2.55,6,5.69,6h12.01c2.37,0,4.29-2.02,4.29-4.5,0-1.97-1.21-3.64-2.89-4.25Zm-1.4,5.75H6.69c-1.48,0-2.69-1.35-2.69-3s1.21-3,2.69-3c.29,0,.59.06.9.19.74.29,1.58-.03,1.91-.75.71-1.5,2.1-2.44,3.61-2.44,2.25,0,4.09,2.02,4.09,4.5,0,.83.67,1.5,1.5,1.5.71,0,1.29.67,1.29,1.5s-.58,1.5-1.29,1.5Z"/></svg>