<svg xmlns="http://www.w3.org/2000/svg" viewBox="0 0 24 24" width="24" height="24"><path class="b" d="m19.5,14h-4.5v-1h3.5c1.93,0,3.5-1.57,3.5-3.5v-5c0-1.93-1.57-3.5-3.5-3.5H5.5c-1.93,0-3.5,1.57-3.5,3.5v5c0,1.93,1.57,3.5,3.5,3.5h3.5v1h-4.5c-1.93,0-3.5,1.57-3.5,3.5v2c0,1.93,1.57,3.5,3.5,3.5h15c1.93,0,3.5-1.57,3.5-3.5v-2c0-1.93-1.57-3.5-3.5-3.5Zm-14-4c-.28,0-.5-.22-.5-.5v-5c0-.28.22-.5.5-.5h13c.28,0,.5.22.5.5v5c0,.28-.22.5-.5.5H5.5Zm14.5,9.5c0,.28-.22.5-.5.5H4.5c-.28,0-.5-.22-.5-.5v-2c0-.28.22-.5.5-.5h15c.28,0,.5.22.5.5v2Z"/><path class="b" d="m13.25,17.75h-6.5c-.41,0-.75.34-.75.75s.34.75.75.75h6.5c.41,0,.75-.34.75-.75s-.34-.75-.75-.75Z"/><path class="b" d="M17 17.5A1 1 0 1 0 17 19.5 1 1 0 1 0 17 17.5z"/></svg>