<svg xmlns="http://www.w3.org/2000/svg" viewBox="0 0 24 24" width="24" height="24"><path d="m17.99,3.05s0-.03,0-.05v-.5c0-.83-.67-1.5-1.5-1.5s-1.5.67-1.5,1.5v.5h-6v-.5c0-.83-.67-1.5-1.5-1.5s-1.5.67-1.5,1.5v.5s0,.03,0,.05c-2.25.25-4.01,2.14-4.01,4.45v11c0,2.48,2.02,4.5,4.5,4.5h11c2.48,0,4.5-2.02,4.5-4.5V7.5c0-2.31-1.76-4.2-4.01-4.45Zm1.01,15.45c0,.83-.67,1.5-1.5,1.5H6.5c-.83,0-1.5-.67-1.5-1.5v-10.5h14v10.5Z"/><rect x="7" y="11" width="2" height="2" rx=".75" ry=".75"/><rect x="11" y="11" width="2" height="2" rx=".75" ry=".75"/><rect x="15" y="11" width="2" height="2" rx=".75" ry=".75"/><rect x="7" y="15" width="2" height="2" rx=".75" ry=".75"/><rect x="11" y="15" width="2" height="2" rx=".75" ry=".75"/><rect x="15" y="15" width="2" height="2" rx=".75" ry=".75"/></svg>