<svg xmlns="http://www.w3.org/2000/svg" width="24" height="24" viewBox="0 0 24 24"><path d="M18.5 4h-1.2l-1.11-1.66A3 3 0 0 0 13.69 1H10.3c-1.01 0-1.94.5-2.5 1.34L6.69 4h-1.2C3.01 4 .99 6.02.99 8.5v8c0 2.48 2.02 4.5 4.5 4.5h13c2.48 0 4.5-2.02 4.5-4.5v-8c0-2.48-2.02-4.5-4.5-4.5ZM20 16.5c0 .83-.67 1.5-1.5 1.5h-13c-.83 0-1.5-.67-1.5-1.5v-8C4 7.67 4.67 7 5.5 7h2c.5 0 .97-.25 1.25-.67L10.3 4h3.39l1.55 2.33c.28.42.75.67 1.25.67h2c.83 0 1.5.67 1.5 1.5v8Z"/><path d="M13.76 13.75c-.12.12-.24.22-.38.31-.13.09-.28.17-.42.23-.15.06-.3.11-.46.15-.32.07-.66.07-.98 0-.16-.03-.31-.08-.46-.15-.15-.06-.29-.14-.43-.23-.13-.09-.26-.2-.37-.31a2.2 2.2 0 0 1-.31-.38c-.04-.06-.07-.13-.11-.2l.75-.75a.25.25 0 0 0-.18-.43H8.26c-.14 0-.25.11-.25.25v2.15c0 .22.27.33.43.18l.3-.3c.14.19.28.38.45.55.18.18.38.35.59.49.21.15.44.27.68.37q.36.15.75.24c.26.06.53.08.8.08s.54-.03.8-.08c.25-.05.51-.13.75-.24.24-.1.46-.23.68-.37.21-.14.41-.31.59-.49.29-.29.29-.77 0-1.06s-.77-.29-1.06 0ZM15.57 9.43l-.3.3c-.14-.19-.28-.38-.45-.55-.18-.18-.38-.35-.59-.49a3.4 3.4 0 0 0-.68-.37q-.36-.15-.75-.24a3.9 3.9 0 0 0-1.6 0c-.25.05-.51.13-.75.24-.24.1-.46.23-.68.37-.21.14-.41.31-.59.49-.29.29-.29.77 0 1.06s.77.29 1.06 0c.12-.12.24-.22.38-.31.13-.09.28-.17.42-.23.15-.06.3-.11.46-.15.32-.07.66-.07.98 0 .16.03.31.08.46.15.15.06.29.14.43.23.13.09.26.2.37.31.12.12.22.24.31.38.04.06.07.13.11.2l-.75.75a.25.25 0 0 0 .18.43h2.15c.14 0 .25-.11.25-.25V9.6c0-.22-.27-.33-.43-.18Z"/></svg>