<svg xmlns="http://www.w3.org/2000/svg" width="24" height="24" viewBox="0 0 24 24"><path d="M17.5 2h-.59c-.21-.58-.76-1-1.41-1h-7c-.65 0-1.2.42-1.41 1H6.5C4.02 2 2 4.02 2 6.5v12C2 20.98 4.02 23 6.5 23h11c2.48 0 4.5-2.02 4.5-4.5v-12C22 4.02 19.98 2 17.5 2M19 18.5c0 .83-.67 1.5-1.5 1.5h-11c-.83 0-1.5-.67-1.5-1.5v-12C5 5.67 5.67 5 6.5 5H7v1.25c0 .41.34.75.75.75h8.5c.41 0 .75-.34.75-.75V5h.5c.83 0 1.5.67 1.5 1.5z"/><path d="M16.25 10.25h-8.5c-.41 0-.75.34-.75.75s.34.75.75.75h8.5c.41 0 .75-.34.75-.75s-.34-.75-.75-.75M13.25 14.25h-5.5c-.41 0-.75.34-.75.75s.34.75.75.75h5.5c.41 0 .75-.34.75-.75s-.34-.75-.75-.75"/></svg>