<svg xmlns="http://www.w3.org/2000/svg" width="24" height="24" viewBox="0 0 24 24"><path d="M11.25 15.5h-4.5c-.41 0-.75.34-.75.75s.34.75.75.75h4.5c.41 0 .75-.34.75-.75s-.34-.75-.75-.75"/><path d="M22.23 10.5 19 12.58v-1.07c0-2.35-1.82-4.27-4.13-4.46l-2.59-4.31c-.27-.45-.76-.73-1.29-.73h-4.5c-.83 0-1.5.67-1.5 1.5s.67 1.5 1.5 1.5h3.65l1.2 2H5.49c-2.48 0-4.5 2.02-4.5 4.5v6c0 2.48 2.02 4.5 4.5 4.5h9c2.48 0 4.5-2.02 4.5-4.5v-1.07l3.23 2.08c.33.21.77-.03.77-.42v-7.17a.5.5 0 0 0-.77-.42Zm-6.23 7c0 .83-.67 1.5-1.5 1.5h-9c-.83 0-1.5-.67-1.5-1.5v-6c0-.83.67-1.5 1.5-1.5h9c.83 0 1.5.67 1.5 1.5z"/></svg>