<svg xmlns="http://www.w3.org/2000/svg" viewBox="0 0 24 24" width="24" height="24"><path d="m12,5c-4.96,0-9,4.04-9,9s4.04,9,9,9,9-4.04,9-9c0-4.18-2.87-7.7-6.75-8.7,1.24-1.53,3.13-2.52,5.25-2.52.41,0,.75-.34.75-.75s-.34-.75-.75-.75c-1.38,0-2.69.35-3.83.95-.58-.43-1.91-1.23-3.67-1.23-1.57,0-2.8.65-3.46,1.09-.29.2-.29.63,0,.82.66.44,1.89,1.09,3.46,1.09.59,0,1.12-.09,1.6-.23-.38.38-.71.81-1.01,1.26-.2-.01-.39-.03-.6-.03Zm6,9c0,3.31-2.69,6-6,6s-6-2.69-6-6c0-3.1,2.37-5.66,5.39-5.97-.09.49-.14.99-.14,1.5v1.35c-.58-.19-.88-.55-.9-.58-.25-.33-.72-.39-1.05-.14-.33.25-.4.72-.15,1.05.04.05,1,1.3,2.85,1.3s2.81-1.25,2.85-1.3c.25-.33.18-.79-.15-1.04-.33-.25-.79-.19-1.05.13-.02.02-.32.39-.91.59v-1.35c0-.5.06-.99.16-1.45,2.88.44,5.09,2.93,5.09,5.92Z"/></svg>