<svg xmlns="http://www.w3.org/2000/svg" viewBox="0 0 24 24" width="24" height="24"><path d="m21,9.72c-.15-4.84-4.35-8.72-9.5-8.72S1,4.33,1,10.5c0,2.64.76,4.78,2.34,6.52.43.47.66,1.03.66,1.57v2.91c0,.83.67,1.5,1.5,1.5s1.5-.67,1.5-1.5v-2.91c0-1.28-.51-2.55-1.43-3.58-1.07-1.19-1.57-2.62-1.57-4.51,0-4.27,3.77-6.5,7.5-6.5s6.5,2.69,6.5,6c0,.17.03.35.09.51l1.27,3.49h-.86c-.83,0-1.5.67-1.5,1.5v2.5h-2.5c-1.38,0-2.5,1.12-2.5,2.5v1c0,.83.67,1.5,1.5,1.5s1.5-.67,1.5-1.5v-.5h2.5c1.38,0,2.5-1.12,2.5-2.5v-1.5h1.5c.49,0,.95-.24,1.23-.64.28-.4.35-.91.18-1.37l-1.91-5.26Z"/><path d="m11.04,10.25c-.41,0-.75.34-.75.75s.34.75.75.75c1.59,0,2.88-1.29,2.88-2.88s-1.29-2.88-2.88-2.88c-1.34,0-2.59.52-3.54,1.46s-1.46,2.2-1.46,3.54.52,2.59,1.46,3.54,2.2,1.46,3.54,1.46,2.59-.52,3.54-1.46c.29-.29.29-.77,0-1.06s-.77-.29-1.06,0c-1.32,1.32-3.63,1.32-4.95,0-.66-.66-1.02-1.54-1.02-2.48s.36-1.81,1.02-2.48,1.54-1.02,2.48-1.02c.76,0,1.38.62,1.38,1.38s-.62,1.38-1.38,1.38Z"/></svg>