<svg xmlns="http://www.w3.org/2000/svg" width="24" height="24" viewBox="0 0 24 24"><path d="M16.25 16.25c.59.59 1.54.59 2.12 0l3.19-3.19c.59-.59.59-1.54 0-2.12l-3.19-3.19a1.49 1.49 0 0 0-2.12 0 1.49 1.49 0 0 0 0 2.12L18.38 12l-2.13 2.13a1.49 1.49 0 0 0 0 2.12M7.75 7.75a1.49 1.49 0 0 0-2.12 0l-3.19 3.19a1.49 1.49 0 0 0 0 2.12l3.19 3.19c.59.59 1.54.59 2.12 0 .59-.59.59-1.54 0-2.12L5.62 12l2.13-2.13c.59-.59.59-1.54 0-2.12M13.99 2.03c-.82-.16-1.6.36-1.77 1.18l-3.4 17a1.508 1.508 0 0 0 1.48 1.8c.7 0 1.33-.49 1.47-1.21l3.4-17.01c.16-.81-.36-1.6-1.18-1.77Z"/></svg>