<svg xmlns="http://www.w3.org/2000/svg" width="24" height="24" viewBox="0 0 24 24"><path d="M20.77 15.42c.62-2.66.98-6.52-1.01-9.52-1.63-2.46-4.37-3.76-8.15-3.89l-1.49-.75a2.516 2.516 0 0 0-3.18.82L2.21 8.96a4.14 4.14 0 0 0 .48 5.27c.39.39.83.69 1.32.89A4.01 4.01 0 0 0 .99 19c0 2.21 1.79 4 4 4h14c2.21 0 4-1.79 4-4 0-1.57-.91-2.93-2.23-3.58ZM19 20H5c-.55 0-1-.45-1-1s.45-1 1-1h1.5c.16 0 .31-.07.4-.2l4.5-6c.11-.15.13-.35.05-.52A.5.5 0 0 0 11 11H8a.5.5 0 0 0-.31.11l-1.36 1.08c-.45.36-1.1.33-1.52-.08-.39-.39-.44-1-.13-1.45l4.48-6.52 1.61.81c.07.03.15.05.22.05 3.03 0 5.14.86 6.26 2.55 2.35 3.55-.19 9.69-.22 9.75a.493.493 0 0 0 .46.69h1.5c.55 0 1 .45 1 1s-.45 1-1 1Z"/><path d="M9.5 7c-.55 0-1 .45-1 1s.45 1 1 1 1-.45 1-1-.45-1-1-1m0 1h.5z"/></svg>