<svg xmlns="http://www.w3.org/2000/svg" width="24" height="24" viewBox="0 0 24 24"><path d="M22.25 7c-.41 0-.75.34-.75.75V9H18V6c.55 0 1-.45 1-1V1.75c0-.41-.34-.75-.75-.75s-.75.34-.75.75V3h-1.62V1.75c0-.41-.34-.75-.75-.75s-.75.34-.75.75V3h-1.62V1.75c0-.41-.34-.75-.75-.75s-.75.34-.75.75V3H9.64V1.75c0-.41-.34-.75-.75-.75s-.75.34-.75.75V3H6.52V1.75c0-.41-.34-.75-.75-.75s-.75.34-.75.75V5c0 .55.45 1 1 1v3h-3.5V7.75c0-.41-.34-.75-.75-.75s-.75.34-.75.75v2.5s.01.05.02.08c0 .06-.02.11-.02.17v11c0 .83.67 1.5 1.5 1.5h6c.83 0 1.5-.67 1.5-1.5V19c0-1.1.9-2 2-2s2 .9 2 2v2.5c0 .83.67 1.5 1.5 1.5h6c.83 0 1.5-.67 1.5-1.5v-11c0-.06-.01-.11-.02-.17 0-.03.02-.05.02-.08v-2.5c0-.41-.34-.75-.75-.75ZM9 6h6v3H9zm11 14h-3v-1c0-2.76-2.24-5-5-5s-5 2.24-5 5v1H4v-8h16z"/></svg>