<svg xmlns="http://www.w3.org/2000/svg" viewBox="0 0 24 24" width="24" height="24"><path d="m12,9c-3.86,0-7,3.14-7,7s3.14,7,7,7,7-3.14,7-7-3.14-7-7-7Zm0,12c-2.76,0-5-2.24-5-5s2.24-5,5-5,5,2.24,5,5-2.24,5-5,5Z"/><path d="m12,15.53c-1.42,0-1.42-.51-1.42-.79,0-.39.49-.79,1.42-.79.87,0,1.11.56,1.13.63.09.24.35.37.6.29.25-.08.38-.35.3-.6-.02-.05-.36-1.01-1.55-1.23v-.36c0-.26-.21-.47-.47-.47s-.47.21-.47.47v.35c-1.29.16-1.89.95-1.89,1.7,0,.79.41,1.74,2.37,1.74,1.42,0,1.42.53,1.42.79,0,.38-.5.79-1.42.79-.98,0-1.48-.71-1.5-.74-.15-.22-.44-.28-.66-.13-.22.14-.28.44-.13.66.03.04.63.92,1.82,1.12v.36c0,.26.21.47.47.47s.47-.21.47-.47v-.35c1.24-.16,1.89-.93,1.89-1.7,0-.65-.31-1.74-2.37-1.74Z"/><path d="m10.37,5.31l-.5,1.62c-.11.35.28.64.58.43l1.55-1.03,1.55,1.03c.3.2.69-.09.58-.43l-.5-1.62,1.25-1.25c.23-.23.09-.63-.24-.66l-1.54-.13-.76-1.54c-.14-.29-.55-.29-.69,0l-.76,1.54-1.54.13c-.33.03-.47.43-.24.66l1.25,1.25Z"/><path d="m22.17,6.55l-1.22-.11-.61-1.24c-.14-.28-.53-.28-.66,0l-.61,1.24-1.22.11c-.31.03-.45.41-.23.63l1,1-.39,1.27c-.1.33.27.61.56.42l1.22-.82,1.22.82c.29.19.66-.08.56-.42l-.39-1.27,1-1c.22-.22.08-.6-.23-.63Z"/><path d="m5.78,9.46l-.39-1.27,1-1c.22-.22.08-.6-.23-.63l-1.22-.11-.61-1.24c-.14-.28-.53-.28-.66,0l-.61,1.24-1.22.11c-.31.03-.45.41-.23.63l1,1-.39,1.27c-.1.33.27.61.56.42l1.22-.82,1.22.82c.29.19.66-.08.56-.42Z"/></svg>