<svg xmlns="http://www.w3.org/2000/svg" viewBox="0 0 24 24" width="24" height="24"><path d="m17,4c-1.1,0-2,.9-2,2v4.5h-6v-4.5c0-1.1-.9-2-2-2s-2,.9-2,2v13c0,1.1.9,2,2,2s2-.9,2-2v-5.5h6v5.5c0,1.1.9,2,2,2s2-.9,2-2V6c0-1.1-.9-2-2-2Zm0,15V6s0,0,0,0v13Z"/><path d="m2.5,6.5c-.83,0-1.5.67-1.5,1.5v2.5c-.55,0-1,.45-1,1v1c0,.55.45,1,1,1v2.5c0,.83.67,1.5,1.5,1.5s1.5-.67,1.5-1.5v-8c0-.83-.67-1.5-1.5-1.5Z"/><path d="m23,10.5v-2.5c0-.83-.67-1.5-1.5-1.5s-1.5.67-1.5,1.5v8c0,.83.67,1.5,1.5,1.5s1.5-.67,1.5-1.5v-2.5c.55,0,1-.45,1-1v-1c0-.55-.45-1-1-1Z"/></svg>