<svg xmlns="http://www.w3.org/2000/svg" viewBox="0 0 24 24" width="24" height="24"><path d="m20.73,13.04l-.69-.29c-1.37-.59-2.93-.46-4.19.34l-2.04,1.3c-.47-1.38-1.78-2.38-3.32-2.38h-6c-1.93,0-3.5,1.57-3.5,3.5v3c0,2.48,2.02,4.5,4.5,4.5h8.26c1.2,0,2.33-.47,3.18-1.32l4.58-4.58c.59-.59.84-1.42.69-2.24-.16-.82-.71-1.5-1.47-1.83Zm-5.91,6.52c-.28.28-.66.44-1.06.44H5.5c-.83,0-1.5-.67-1.5-1.5v-3c0-.28.22-.5.5-.5h5.5c.27,0,.52.1.71.29s.29.44.29.71-.1.52-.29.71-.44.29-.71.29h-2.25c-.41,0-.75.34-.75.75s.34.75.75.75h4.75s.01,0,.02,0c.27,0,.55-.08.79-.23l4.16-2.65c.42-.27.94-.31,1.4-.11h0s-4.05,4.06-4.05,4.06Z"/><path d="m12.91,11.47c.28.3.68.47,1.09.47s.8-.17,1.09-.47l3.81-4.01c.71-.71,1.1-1.65,1.1-2.65s-.39-1.94-1.1-2.65c-.71-.71-1.65-1.1-2.65-1.1h0c-.15,0-1.12.03-2.25.72-1.13-.69-2.1-.72-2.25-.72h0c-1,0-1.94.39-2.65,1.1-.71.71-1.1,1.65-1.1,2.65s.39,1.94,1.07,2.62l3.84,4.03Zm-1.69-7.19c.08-.08.26-.22.48-.22.02,0,.6.05,1.24.69.59.59,1.54.59,2.12,0,.64-.64,1.21-.69,1.19-.69.27,0,.45.14.53.22h0c.14.14.22.33.22.53s-.08.39-.25.56l-2.75,2.89-2.78-2.92c-.14-.14-.22-.33-.22-.53s.08-.39.22-.53Z"/></svg>