<svg xmlns="http://www.w3.org/2000/svg" width="24" height="24" viewBox="0 0 24 24"><path d="M18.68 4.47 9.99 2.14a4.47 4.47 0 0 0-3.41.45 4.47 4.47 0 0 0-2.1 2.73l-2.33 8.69c-.64 2.4.79 4.87 3.18 5.51l8.69 2.33c.39.1.78.16 1.17.16.78 0 1.55-.21 2.24-.6a4.47 4.47 0 0 0 2.1-2.73l2.33-8.69c.64-2.4-.79-4.87-3.18-5.51Zm.28 4.74-2.33 8.69c-.1.39-.35.71-.7.91s-.75.25-1.14.15L6.1 16.63c-.8-.21-1.27-1.04-1.06-1.84L7.37 6.1c.1-.39.35-.71.7-.91.23-.13.49-.2.75-.2.13 0 .26.02.39.05l8.69 2.33c.8.21 1.27 1.04 1.06 1.84"/><path d="M9.97 9.9c-.8-.21-1.62.26-1.84 1.06-.21.8.26 1.62 1.06 1.84.8.21 1.62-.26 1.84-1.06.21-.8-.26-1.62-1.06-1.84M14.8 11.2c-.8-.21-1.62.26-1.84 1.06-.21.8.26 1.62 1.06 1.84.8.21 1.62-.26 1.84-1.06.21-.8-.26-1.62-1.06-1.84"/></svg>