<svg xmlns="http://www.w3.org/2000/svg" viewBox="0 0 24 24" width="24" height="24"><path d="m19.5,8h-2.5v-3.5c0-1.93-1.57-3.5-3.5-3.5H4.5c-1.93,0-3.5,1.57-3.5,3.5v7c0,1.76,1.31,3.22,3,3.46v.61c0,.74.4,1.41,1.05,1.76.3.16.62.24.95.24.39,0,.78-.11,1.11-.34l1.89-1.26v.53c0,1.93,1.57,3.5,3.5,3.5h2.05l3.34,2.23c.34.22.72.34,1.11.34.32,0,.65-.08.95-.24.65-.35,1.05-1.02,1.05-1.76v-.9c.36-.17.68-.4.96-.68.67-.66,1.04-1.54,1.04-2.49v-5c0-1.93-1.57-3.5-3.5-3.5Zm-12.5,5.7v-.2c0-.83-.67-1.5-1.5-1.5h-1c-.27,0-.5-.23-.5-.5v-7c0-.27.23-.5.5-.5h9c.27,0,.5.23.5.5v7c0,.27-.23.5-.5.5h-3.5c-.3,0-.59.09-.83.25l-2.17,1.45Zm13,2.8c0,.17-.07.27-.16.36-.06.06-.17.14-.34.14-.83,0-1.5.67-1.5,1.5v.2l-2.17-1.45c-.25-.16-.54-.25-.83-.25h-2.5c-.27,0-.5-.23-.5-.5v-1.5h1.5c1.93,0,3.5-1.57,3.5-3.5v-.5h2.5c.27,0,.5.23.5.5v5Z"/></svg>