<svg xmlns="http://www.w3.org/2000/svg" width="24" height="24" viewBox="0 0 24 24"><path d="M12 1C5.93 1 1 5.93 1 12s4.93 11 11 11 11-4.93 11-11S18.07 1 12 1m0 19c-4.41 0-8-3.59-8-8s3.59-8 8-8 8 3.59 8 8-3.59 8-8 8"/><path d="m16.97 8.97-.97.97-.97-.97c-.29-.29-.77-.29-1.06 0s-.29.77 0 1.06l.97.97-.97.97c-.29.29-.29.77 0 1.06.15.15.34.22.53.22s.38-.07.53-.22l.97-.97.97.97c.15.15.34.22.53.22s.38-.07.53-.22c.29-.29.29-.77 0-1.06l-.97-.97.97-.97c.29-.29.29-.77 0-1.06s-.77-.29-1.06 0M10.03 11.97 9.06 11l.97-.97c.29-.29.29-.77 0-1.06s-.77-.29-1.06 0L8 9.94l-.97-.97c-.29-.29-.77-.29-1.06 0s-.29.77 0 1.06l.97.97-.97.97c-.29.29-.29.77 0 1.06.15.15.34.22.53.22s.38-.07.53-.22l.97-.97.97.97c.15.15.34.22.53.22s.38-.07.53-.22c.29-.29.29-.77 0-1.06M13.25 16h-2.5c-.41 0-.75.34-.75.75s.34.75.75.75h2.5c.41 0 .75-.34.75-.75s-.34-.75-.75-.75"/></svg>