<svg xmlns="http://www.w3.org/2000/svg" viewBox="0 0 24 24" width="24" height="24"><path d="m13.77 9.35 1.84-1.84c.97-.97.97-2.56 0-3.54l-1.84-1.84c-.97-.97-2.56-.97-3.54 0L8.39 3.97c-.97.97-.97 2.56 0 3.54l1.84 1.84c.49.49 1.13.73 1.77.73s1.28-.24 1.77-.73M12 4.62l1.13 1.13L12 6.88l-1.13-1.13zM8.4 20.02l1.84 1.84c.49.49 1.13.73 1.77.73s1.28-.24 1.77-.73l1.84-1.84c.97-.97.97-2.56 0-3.54l-1.84-1.84c-.97-.97-2.56-.97-3.54 0L8.4 16.48c-.97.97-.97 2.56 0 3.54m3.6-2.9 1.13 1.13L12 19.38l-1.13-1.13zM21.85 10.23l-1.84-1.84c-.97-.97-2.56-.97-3.54 0l-1.84 1.84c-.97.97-.97 2.56 0 3.54l1.84 1.84c.49.49 1.13.73 1.77.73s1.28-.24 1.77-.73l1.84-1.84c.97-.97.97-2.56 0-3.54m-3.6 2.9L17.12 12l1.13-1.13L19.38 12zM2.15 13.77l1.84 1.84c.49.49 1.13.73 1.77.73s1.28-.24 1.77-.73l1.84-1.84c.97-.97.97-2.56 0-3.54L7.53 8.39c-.97-.97-2.56-.97-3.54 0l-1.84 1.84c-.97.97-.97 2.56 0 3.54m3.6-2.9L6.88 12l-1.13 1.13L4.62 12z"/></svg>