<svg xmlns="http://www.w3.org/2000/svg" viewBox="0 0 24 24" width="24" height="24"><path d="m19.04,10.45l.99-4.95c.29-1.44-.27-2.89-1.45-3.76-1.18-.88-2.72-.99-4.02-.3l-2.56,1.37-2.56-1.37c-1.3-.69-2.84-.58-4.02.3-1.18.88-1.74,2.32-1.45,3.76l.99,4.95-2.39,8.76c-.25.91-.06,1.86.51,2.61.57.75,1.44,1.18,2.38,1.18h13.07c.94,0,1.81-.43,2.38-1.18.57-.75.76-1.7.51-2.61l-2.39-8.76ZM7.21,4.14c.12-.09.43-.27.82-.06l3.27,1.74c.44.24.97.24,1.41,0l3.27-1.74c.39-.2.7-.03.82.06.12.09.38.34.3.77l-.82,4.09H7.73l-.82-4.09c-.09-.43.18-.68.3-.77Zm7.79,15.86v-5.25c0-.41-.34-.75-.75-.75s-.75.34-.75.75v5.25h-3v-5.25c0-.41-.34-.75-.75-.75s-.75.34-.75.75v5.25h-3.54l2.18-8h8.71l2.18,8h-3.54Z"/></svg>