<svg xmlns="http://www.w3.org/2000/svg" viewBox="0 0 24 24" width="24" height="24"><path d="m17.5,23H6.5c-2.48,0-4.5-2.02-4.5-4.5V5.5C2,3.02,4.02,1,6.5,1h11c2.48,0,4.5,2.02,4.5,4.5v13c0,2.48-2.02,4.5-4.5,4.5ZM6.5,4c-.83,0-1.5.67-1.5,1.5v13c0,.83.67,1.5,1.5,1.5h11c.83,0,1.5-.67,1.5-1.5V5.5c0-.83-.67-1.5-1.5-1.5H6.5Z"/><path d="M14 5A1 1 0 1 0 14 7 1 1 0 1 0 14 5z"/><path d="M17 5A1 1 0 1 0 17 7 1 1 0 1 0 17 5z"/><path d="m12,8c-2.76,0-5,2.24-5,5s2.24,5,5,5,5-2.24,5-5-2.24-5-5-5Zm-1.18,4.62c.27.23.68.57.68,1.22s-.41.99-.68,1.22c-.24.2-.32.28-.32.45,0,.28-.22.5-.5.5s-.5-.22-.5-.5c0-.65.41-.99.68-1.22.24-.2.32-.28.32-.45s-.08-.25-.32-.45c-.27-.23-.68-.57-.68-1.22s.41-.99.68-1.22c.26-.21.32-.29.32-.45,0-.28.22-.5.5-.5s.5.22.5.5c0,.65-.41.99-.68,1.22-.24.2-.32.28-.32.45s.08.25.32.45Zm3,0c.27.23.68.57.68,1.22s-.41.99-.68,1.22c-.24.2-.32.28-.32.45,0,.28-.22.5-.5.5s-.5-.22-.5-.5c0-.65.41-.99.68-1.22.24-.2.32-.28.32-.45s-.08-.25-.32-.45c-.27-.23-.68-.57-.68-1.22s.41-.99.68-1.22c.26-.21.32-.29.32-.45,0-.28.22-.5.5-.5s.5.22.5.5c0,.65-.41.99-.68,1.22-.24.2-.32.28-.32.45s.08.25.32.45Z"/></svg>