<svg xmlns="http://www.w3.org/2000/svg" viewBox="0 0 24 24" width="24" height="24"><path d="m21.76,8.64l.09-.09h0c.98-.98.98-2.56,0-3.54l-2.87-2.87c-.97-.97-2.56-.97-3.54,0l-.09.09-.11-.11c-.97-.97-2.56-.97-3.54,0l-1.59,1.58c-.98.97-.98,2.56,0,3.54l2.25,2.25-2.88,2.88-2.25-2.25c-.97-.97-2.56-.97-3.54,0l-1.59,1.58c-.98.97-.98,2.56,0,3.54l.11.11-.09.09c-.98.97-.98,2.56,0,3.54l2.87,2.87c.47.47,1.1.73,1.77.73s1.3-.26,1.77-.73l.09-.09.1.1c.47.47,1.1.73,1.77.73s1.3-.26,1.77-.73l1.59-1.58s0,0,0,0c.97-.97.97-2.56,0-3.54l-2.25-2.25,2.88-2.88,2.25,2.25c.47.47,1.1.73,1.77.73s1.3-.26,1.77-.73l1.59-1.58s0,0,0,0c.97-.97.97-2.56,0-3.54l-.11-.11Zm-11.25,10.75l-5.91-5.91.88-.88,5.91,5.91-.88.88Zm8-8l-5.91-5.91.88-.88,5.91,5.91-.88.88Z"/></svg>