<svg xmlns="http://www.w3.org/2000/svg" viewBox="0 0 24 24" width="24" height="24"><path d="m5.5,2h-1C2.02,2,0,4.02,0,6.5v3c0,1.96,1.25,3.62,3,4.24v4.26c0,2.21,1.79,4,4,4s4-1.79,4-4V7.5c0-3.03-2.47-5.5-5.5-5.5Zm2.5,16c0,.55-.45,1-1,1s-1-.45-1-1v-5.5c0-.83-.67-1.5-1.5-1.5s-1.5-.67-1.5-1.5v-3c0-.83.67-1.5,1.5-1.5h1c1.38,0,2.5,1.12,2.5,2.5v10.5Z"/><path d="m19.5,2h-1c-3.03,0-5.5,2.47-5.5,5.5v10.5c0,2.21,1.79,4,4,4s4-1.79,4-4v-4.26c1.75-.62,3-2.29,3-4.24v-3c0-2.48-2.02-4.5-4.5-4.5Zm1.5,7.5c0,.83-.67,1.5-1.5,1.5s-1.5.67-1.5,1.5v5.5c0,.55-.45,1-1,1s-1-.45-1-1V7.5c0-1.38,1.12-2.5,2.5-2.5h1c.83,0,1.5.67,1.5,1.5v3Z"/><path d="m19.5,6c-.28,0-.5.22-.5.5v3c0,.28.22.5.5.5s.5-.22.5-.5v-3c0-.28-.22-.5-.5-.5Z"/><path d="m4.5,6c-.28,0-.5.22-.5.5v3c0,.28.22.5.5.5s.5-.22.5-.5v-3c0-.28-.22-.5-.5-.5Z"/></svg>