<svg xmlns="http://www.w3.org/2000/svg" viewBox="0 0 24 24" width="24" height="24"><path d="m13.93,1.2C8.75.12,4.1,3.53,3.17,8.25c-.18.9.52,1.75,1.45,1.75h.06c.72,0,1.3-.53,1.45-1.24.66-3.13,3.77-5.37,7.22-4.61,3.09.68,5.02,3.6,4.59,6.74-.25,1.89-1.36,2.7-3.06,3.94-.43.32-.88.64-1.33,1-1.05.84-1.73,1.76-2.27,2.5-.86,1.18-1.22,1.67-2.51,1.67-1.14,0-2.2-.88-2.61-2.01-.21-.59-.76-.99-1.38-.99h-.08c-1.02,0-1.72,1.01-1.39,1.97.81,2.32,2.98,4.03,5.45,4.03,2.81,0,3.94-1.54,4.93-2.9.48-.66.98-1.34,1.72-1.93.41-.33.82-.63,1.22-.92,2.04-1.49,4.14-3.03,4.33-6.71.23-4.46-2.68-8.42-7.05-9.34Z"/><path d="m13.77,8.23c.31.31.54.73.65,1.2.1.4.5.65.9.56.4-.1.65-.5.56-.9-.18-.75-.54-1.41-1.06-1.92-1.51-1.49-4.14-1.49-5.65,0-.75.74-1.17,1.77-1.17,2.84v3.25c0,.41.34.75.75.75s.75-.34.75-.75v-2.24c.99.42,1.74,1.3,1.94,2.38.07.36.38.61.74.61.05,0,.09,0,.14-.01.41-.08.67-.47.6-.88-.33-1.75-1.66-3.16-3.35-3.66.1-.47.33-.9.67-1.23.94-.94,2.6-.94,3.54,0Z"/></svg>