<svg xmlns="http://www.w3.org/2000/svg" width="24" height="24" viewBox="0 0 24 24"><path d="M6.5 22h11c2.48 0 4.5-2.02 4.5-4.5v-4c0-.83-.67-1.5-1.5-1.5s-1.5.67-1.5 1.5v4c0 .83-.67 1.5-1.5 1.5h-11c-.83 0-1.5-.67-1.5-1.5v-11C5 5.67 5.67 5 6.5 5h4c.83 0 1.5-.67 1.5-1.5S11.33 2 10.5 2h-4C4.02 2 2 4.02 2 6.5v11C2 19.98 4.02 22 6.5 22"/><path d="M7 12.21V15c0 1.1.9 2 2 2h2.79c.53 0 1.04-.21 1.41-.59l7.29-7.29a3 3 0 0 0 0-4.24L19.11 3.5c-1.13-1.13-3.11-1.13-4.24 0l-7.29 7.29c-.38.38-.59.88-.59 1.41Zm10-6.59L18.38 7l-1.16 1.16-1.38-1.38zm-7 7 4.78-4.78 1.38 1.38L11.38 14H10z"/></svg>