<svg xmlns="http://www.w3.org/2000/svg" viewBox="0 0 24 24" width="24" height="24"><path class="b" d="m21.53,7.23l-8.06-3.71c-.93-.43-1.99-.43-2.92,0h0L2.48,7.23c-.9.41-1.46,1.28-1.46,2.27,0,.03.01.06.01.09-.01.05-.03.1-.03.16v5.5c0,.41.34.75.75.75s.75-.34.75-.75v-3.47l1.5.69v3.03c0,2.48,3.69,5.5,8,5.5s8-3.02,8-5.5v-3.03l1.52-.7c.9-.41,1.46-1.28,1.46-2.27s-.56-1.86-1.46-2.27Zm-9.74-.98c.13-.06.29-.06.42,0l7.07,3.25-7.07,3.25c-.13.06-.29.06-.42,0l-7.07-3.25,7.07-3.25Zm5.21,9.22c-.11.61-2.12,2.53-5,2.53s-4.89-1.92-5-2.5v-1.65l3.54,1.63c.46.21.96.32,1.46.32s1-.11,1.46-.32l3.54-1.63v1.61Z"/></svg>