<svg xmlns="http://www.w3.org/2000/svg" viewBox="0 0 24 24" width="24" height="24"><path d="m21,5h-3v-1c0-1.65-1.35-3-3-3h-6c-1.65,0-3,1.35-3,3v2.64l-4.51,2.63c-.92.54-1.49,1.53-1.49,2.59v8.14c0,1.65,1.35,3,3,3h18c1.65,0,3-1.35,3-3v-12c0-1.65-1.35-3-3-3Zm0,15H7v-6c0-.55-.45-1-1-1s-1,.45-1,1v6h-2v-8.14l5.26-3.07c.46-.27.74-.76.74-1.3v-3.5h6v2.5c0,.83.67,1.5,1.5,1.5h4.5v12Z"/><rect x="11" y="10" width="2" height="2" rx=".5" ry=".5"/><rect x="11" y="14" width="2" height="2" rx=".5" ry=".5"/><rect x="11" y="6" width="2" height="2" rx=".5" ry=".5"/><rect x="17" y="14" width="2" height="2" rx=".5" ry=".5"/><rect x="17" y="10" width="2" height="2" rx=".5" ry=".5"/></svg>