<svg xmlns="http://www.w3.org/2000/svg" viewBox="0 0 24 24" width="24" height="24"><path d="m21.5,2c-2.65,0-5.15,1.29-6.68,3.45l-8.09,11.37c-.97,1.37-2.56,2.18-4.23,2.18-.83,0-1.5.67-1.5,1.5s.67,1.5,1.5,1.5c2.65,0,5.15-1.29,6.68-3.45l8.09-11.37c.97-1.37,2.56-2.18,4.23-2.18.83,0,1.5-.67,1.5-1.5s-.67-1.5-1.5-1.5Z"/><path d="m11.5,19.75h-1.5c-.41,0-.75.34-.75.75s.34.75.75.75h1.5c.41,0,.75-.34.75-.75s-.34-.75-.75-.75Z"/><path d="m16,19.75h-1.5c-.41,0-.75.34-.75.75s.34.75.75.75h1.5c.41,0,.75-.34.75-.75s-.34-.75-.75-.75Z"/><path d="M20.5 18A2.5 2.5 0 1 0 20.5 23 2.5 2.5 0 1 0 20.5 18z"/><path d="m9.5,4.25c.41,0,.75-.34.75-.75s-.34-.75-.75-.75h-1.5c-.41,0-.75.34-.75.75s.34.75.75.75h1.5Z"/><path d="m14,4.25c.41,0,.75-.34.75-.75s-.34-.75-.75-.75h-1.5c-.41,0-.75.34-.75.75s.34.75.75.75h1.5Z"/><path d="M3.5 1A2.5 2.5 0 1 0 3.5 6 2.5 2.5 0 1 0 3.5 1z"/></svg>