<svg xmlns="http://www.w3.org/2000/svg" viewBox="0 0 24 24" width="24" height="24"><path d="m21.5,4H2.5c-.83,0-1.5.67-1.5,1.5v9c0,.83.67,1.5,1.5,1.5h1.5v.5c0,.83.67,1.5,1.5,1.5h1.5v.5c0,.83.67,1.5,1.5,1.5h7c.83,0,1.5-.67,1.5-1.5v-.5h1.5c.83,0,1.5-.67,1.5-1.5v-.5h1.5c.83,0,1.5-.67,1.5-1.5V5.5c0-.83-.67-1.5-1.5-1.5Zm-1.5,9h-1.5c-.83,0-1.5.67-1.5,1.5v.5h-1.5c-.83,0-1.5.67-1.5,1.5v.5h-4v-.5c0-.83-.67-1.5-1.5-1.5h-1.5v-.5c0-.83-.67-1.5-1.5-1.5h-1.5v-6h16v6Z"/><path d="m6.25,11c.41,0,.75-.34.75-.75v-1.5c0-.41-.34-.75-.75-.75s-.75.34-.75.75v1.5c0,.41.34.75.75.75Z"/><path d="m9.12,11c.41,0,.75-.34.75-.75v-1.5c0-.41-.34-.75-.75-.75s-.75.34-.75.75v1.5c0,.41.34.75.75.75Z"/><path d="m12,11c.41,0,.75-.34.75-.75v-1.5c0-.41-.34-.75-.75-.75s-.75.34-.75.75v1.5c0,.41.34.75.75.75Z"/><path d="m14.88,11c.41,0,.75-.34.75-.75v-1.5c0-.41-.34-.75-.75-.75s-.75.34-.75.75v1.5c0,.41.34.75.75.75Z"/><path d="m17.75,11c.41,0,.75-.34.75-.75v-1.5c0-.41-.34-.75-.75-.75s-.75.34-.75.75v1.5c0,.41.34.75.75.75Z"/></svg>