<svg xmlns="http://www.w3.org/2000/svg" width="24" height="24" viewBox="0 0 24 24"><path d="M1.3 17.65c.25.33.72.4 1.05.15l1.45-1.1c.75.74 1.66 1.44 2.72 1.99l-1.07 1.76a.75.75 0 0 0 1.28.78l1.18-1.94c.99.36 2.1.59 3.33.66v2.28c0 .41.34.75.75.75s.75-.34.75-.75v-2.28c1.23-.07 2.34-.3 3.33-.66l1.18 1.94a.75.75 0 0 0 1.28-.78l-1.07-1.76c1.07-.56 1.97-1.25 2.72-1.99l1.45 1.1a.75.75 0 0 0 .9-1.2l-1.35-1.02c.39-.49.71-.99.98-1.46.47-.83.07-1.88-.84-2.18a1.49 1.49 0 0 0-1.77.69c-.89 1.6-3.09 4.37-7.57 4.37s-6.67-2.77-7.56-4.36a1.49 1.49 0 0 0-1.77-.69c-.91.3-1.31 1.35-.84 2.18.27.47.59.96.98 1.46l-1.35 1.02a.75.75 0 0 0-.15 1.05Z"/></svg>