<svg xmlns="http://www.w3.org/2000/svg" width="24" height="24" viewBox="0 0 24 24"><path d="M12 4C5.03 4 2.12 9.17 1.39 10.76c-.36.79-.36 1.7 0 2.49.73 1.58 3.64 6.76 10.61 6.76s9.88-5.17 10.61-6.76c.36-.79.36-1.7 0-2.49C21.88 9.18 18.97 4 12 4m0 13c-5.04 0-7.19-3.49-7.88-5 .69-1.51 2.84-5 7.88-5s7.19 3.5 7.88 4.99C19.19 13.49 17.04 17 12 17"/><path d="M14.53 11.51s-.43.49-1.03.49c-.83 0-1.5-.67-1.5-1.5 0-.6.49-1.03.49-1.03.21-.18.16-.38-.11-.45 0 0-.08-.02-.38-.02-1.64 0-3 1.36-3 3s1.36 3 3 3 3-1.36 3-3c0-.3-.02-.38-.02-.38-.07-.27-.27-.31-.45-.11"/></svg>