<svg xmlns="http://www.w3.org/2000/svg" viewBox="0 0 24 24" width="24" height="24"><path d="m13.91,1.2C8.74.13,4.11,3.53,3.17,8.25c-.18.91.52,1.75,1.45,1.75h.06c.72,0,1.3-.53,1.45-1.24.7-3.29,4.1-5.6,7.77-4.47,2.52.78,4.13,3.15,4.1,5.79-.02,1.62-.54,2.19-1.27,2.98-.77.84-1.73,1.89-1.73,3.94,0,2.78-2.3,3-3,3-1.19,0-2.44-.53-2.86-1.93-.19-.63-.75-1.07-1.41-1.07h-.07c-.95,0-1.68.89-1.43,1.8.69,2.54,2.87,4.2,5.77,4.2s6-1.88,6-6c0-.89.32-1.23.94-1.91.84-.91,1.97-2.14,2.05-4.78.14-4.4-2.78-8.22-7.09-9.11Z"/><path d="m13.77,12.83c.15.15.34.22.53.22s.38-.07.53-.22c.76-.76,1.17-1.76,1.17-2.83s-.42-2.07-1.17-2.83c-.76-.76-1.76-1.17-2.83-1.17s-2.07.42-2.83,1.17c-.52.52-.88,1.18-1.06,1.91-.1.4.15.81.56.9.41.1.81-.15.9-.56.11-.46.34-.87.66-1.19.94-.94,2.59-.94,3.53,0,.47.47.73,1.1.73,1.77s-.26,1.3-.73,1.77c-.29.29-.29.77,0,1.06Z"/></svg>