<svg xmlns="http://www.w3.org/2000/svg" viewBox="0 0 24 24" width="24" height="24"><path d="m18.5,5h-2.5c0-2.21-1.79-4-4-4s-4,1.79-4,4h-2.5c-1.93,0-3.5,1.57-3.5,3.5v2.5c0,1.1.9,2,2,2h2c.55,0,1,.45,1,1s-.45,1-1,1h-2c-1.1,0-2,.9-2,2v2.5c0,1.93,1.57,3.5,3.5,3.5h13c1.93,0,3.5-1.57,3.5-3.5v-11c0-1.93-1.57-3.5-3.5-3.5Zm.5,14.5c0,.28-.22.5-.5.5H5.5c-.28,0-.5-.22-.5-.5v-1.5h1c2.21,0,4-1.79,4-4s-1.79-4-4-4h-1v-1.5c0-.28.22-.5.5-.5h3.5c1.1,0,2-.9,2-2v-1c0-.55.45-1,1-1s1,.45,1,1v1c0,1.1.9,2,2,2h3.5c.28,0,.5.22.5.5v11Z"/></svg>