<svg xmlns="http://www.w3.org/2000/svg" viewBox="0 0 24 24" width="24" height="24"><path d="m12,6c-2.21,0-4,1.79-4,4v3.75c-1.04-.38-2.2-.29-3.18.3-1.14.68-1.82,1.87-1.82,3.2s.69,2.52,1.81,3.19l3.45,2.07c.54.33,1.17.5,1.8.5h8.45c1.93,0,3.5-1.57,3.5-3.5v-3.81c0-1.72-1.23-3.17-2.92-3.45l-3.08-.51v-1.73c0-2.21-1.79-4-4-4Zm6.58,9.2c.24.04.42.25.42.49v3.81c0,.28-.22.5-.5.5h-8.45c-.09,0-.18-.02-.26-.07l-3.45-2.07c-.22-.13-.35-.37-.35-.62,0-.36.22-.54.35-.62.08-.05.21-.11.37-.11.1,0,.22.02.34.09l.98.53c.63.34,1.37.33,1.98-.04.61-.36.98-1.01.98-1.72v-5.38c0-.55.45-1,1-1s1,.45,1,1v2.15c0,1.23.88,2.26,2.09,2.47l3.49.58Z"/><path d="m22.15,4.85l-.91.91c-1.81-2.83-5.38-4.77-9.48-4.77C6.48,1,2.08,4.19,1.17,8.39c-.18.83.43,1.61,1.27,1.61h.4c.63,0,1.14-.46,1.28-1.08.66-2.8,3.83-4.92,7.62-4.92,3.35,0,6.2,1.66,7.28,3.97l-1.18,1.18c-.31.32-.09.85.35.85h4.29c.28,0,.5-.22.5-.5v-4.29c0-.45-.54-.67-.85-.35Z"/></svg>