<svg xmlns="http://www.w3.org/2000/svg" viewBox="0 0 24 24" width="24" height="24"><path d="m15.06,1.44c-.28-.28-.66-.44-1.06-.44h-6.5c-2.48,0-4.5,2.02-4.5,4.5v13c0,2.48,2.02,4.5,4.5,4.5h9c2.48,0,4.5-2.02,4.5-4.5v-10.5c0-.4-.16-.78-.44-1.06L15.06,1.44Zm1.44,18.56H7.5c-.83,0-1.5-.67-1.5-1.5V5.5c0-.83.67-1.5,1.5-1.5h5.5v2.75c0,1.24,1.01,2.25,2.25,2.25h2.75v9.5c0,.83-.67,1.5-1.5,1.5Z"/><path d="m8.75,12c-.41,0-.75.34-.75.75v4.5c0,.41.34.75.75.75s.75-.34.75-.75v-4.5c0-.41-.34-.75-.75-.75Z"/><path d="m12,10c-.41,0-.75.34-.75.75v6.5c0,.41.34.75.75.75s.75-.34.75-.75v-6.5c0-.41-.34-.75-.75-.75Z"/><path d="m15.25,14c-.41,0-.75.34-.75.75v2.5c0,.41.34.75.75.75s.75-.34.75-.75v-2.5c0-.41-.34-.75-.75-.75Z"/></svg>