<svg xmlns="http://www.w3.org/2000/svg" width="24" height="24" viewBox="0 0 24 24"><path d="M6.27 17.82c-.62.38-.88 1.15-.61 1.82.28.7.4 1.35.45 2 .06.77.72 1.36 1.49 1.36.87 0 1.56-.74 1.5-1.61-.06-.88-.23-1.82-.65-2.87-.34-.85-1.39-1.18-2.17-.7ZM1.12 11.43c.04.28.09.56.16.84.06.28.13.55.22.81.08.26.17.52.27.77s.21.5.33.73c.12.24.24.47.38.68.14.22.28.43.43.63.15.21.32.4.49.58l.1.1c.01.01.07.06.08.08 0 0 .06.05.06.06.28.25.61.37.95.37.41 0 .83-.18 1.13-.52.55-.62.46-1.6-.16-2.15-.09-.1-.18-.2-.26-.31-.09-.12-.18-.25-.26-.39-.09-.14-.17-.29-.25-.45s-.16-.33-.23-.51-.14-.36-.19-.55c-.06-.19-.11-.39-.16-.59s-.08-.41-.11-.61c-.03-.21-.05-.42-.07-.63-.01-.21-.02-.42-.02-.64 0-.21.02-.42.04-.63s.05-.42.1-.63c.04-.2.09-.41.15-.61s.13-.4.21-.59.18-.38.28-.56.22-.36.35-.53.27-.34.42-.5a4.303 4.303 0 0 1 .98-.77 5.325 5.325 0 0 1 1.2-.52c.22-.07.45-.13.68-.17a8.8 8.8 0 0 1 2.2-.18c.25 0 .5.02.74.04.25.02.49.05.73.08s.47.07.7.12q.345.075.66.15c.21.05.41.11.6.17s.36.12.53.18c.16.06.3.12.43.19.12.06.23.11.33.17.17.1.33.21.5.32.16.11.32.22.47.34s.3.24.44.36.28.25.41.37l.38.38.35.38c.11.13.22.25.32.38.1.12.19.24.28.36s.17.23.25.34.15.21.22.31l.52.86 1.32-.71-1.26.83c.38.73 1.27 1 2 .63s1.02-1.29.65-2.03l-.52-.9c-.07-.11-.14-.22-.22-.35q-.12-.18-.27-.39c-.1-.13-.2-.27-.31-.42-.11-.14-.23-.29-.35-.44s-.25-.3-.39-.46-.28-.31-.43-.47-.31-.31-.47-.48c-.17-.16-.34-.32-.52-.47-.18-.16-.37-.31-.57-.46s-.4-.3-.61-.45a9 9 0 0 0-1.23-.73c-.2-.09-.41-.19-.64-.27a11 11 0 0 0-1.47-.47c-.26-.07-.53-.13-.82-.18-.28-.06-.57-.1-.86-.15-.29-.04-.59-.08-.9-.1-.31-.03-.62-.04-.93-.05-.31 0-.63 0-.95.01s-.64.04-.96.08-.64.09-.96.16-.64.15-.95.24c-.32.1-.63.21-.94.35-.31.13-.61.29-.9.46-.3.17-.58.37-.86.58a7.6 7.6 0 0 0-1.43 1.49 8.4 8.4 0 0 0-.97 1.7 9.901 9.901 0 0 0-.55 1.79c-.06.3-.11.6-.14.91-.03.3-.05.6-.05.9s0 .59.02.89q.03.435.09.87Z"/><path d="M11.82 23c.88 0 1.56-.75 1.5-1.63-.14-1.92-.75-4.28-3.42-7.9-.14-.2-.31-.41-.5-.64-1.01-1.26-1.76-2.32-1.4-3.41.24-.73.72-1.21 1.48-1.47.85-.29 1.94-.23 2.88.11.62.22 1.31-.03 1.69-.57.55-.8.22-1.93-.69-2.26-1.57-.56-3.35-.63-4.83-.13-1.65.55-2.85 1.75-3.38 3.38-.89 2.72.86 4.91 1.91 6.21.15.19.3.37.42.54 2.22 3.01 2.73 4.76 2.85 6.34.06.79.7 1.41 1.49 1.41ZM17.93 15.25c.07.22.14.45.2.68.07.23.13.47.19.71s.12.49.18.74.12.51.17.77c.06.26.11.53.17.8.14.71.77 1.21 1.47 1.21.1 0 .19 0 .29-.03a1.5 1.5 0 0 0 1.18-1.76c-.06-.29-.12-.58-.18-.86s-.12-.56-.19-.83c-.06-.27-.13-.54-.2-.81s-.14-.52-.21-.78-.15-.51-.23-.75c-.08-.25-.16-.49-.24-.73s-.17-.48-.26-.7c-.09-.23-.18-.46-.28-.69l-.3-.66c-.1-.22-.21-.43-.32-.64s-.23-.41-.34-.61c-.12-.2-.24-.4-.37-.59s-.26-.38-.39-.56c-.14-.19-.27-.36-.42-.54-.14-.18-.29-.35-.44-.51a1.502 1.502 0 0 0-2.22 2.02c.11.13.23.25.34.39.11.13.22.27.32.41s.21.29.3.44.19.3.29.47c.09.16.19.32.28.49s.18.34.26.52c.09.18.17.36.25.55s.16.38.24.58.15.41.23.61c.07.21.15.42.21.64Z"/><path d="M14.99 17.49c.16 0 .33-.03.49-.08.78-.27 1.2-1.13.92-1.91-.1-.3-.21-.59-.33-.86q-.18-.42-.36-.81c-.13-.26-.25-.5-.39-.74-.13-.24-.27-.46-.4-.68-.14-.22-.27-.42-.41-.62s-.28-.38-.41-.56c-.14-.18-.27-.34-.4-.5s-.26-.3-.39-.44-.25-.26-.36-.38c-.12-.12-.23-.22-.33-.32l-.3-.27c-.62-.54-1.57-.48-2.12.15-.54.62-.48 1.57.15 2.12.07.06.14.12.22.2s.17.16.26.25.19.19.28.3c.1.11.2.22.31.35.1.12.21.25.32.39s.22.29.33.44c.11.16.22.32.33.49s.22.36.32.54c.11.19.21.39.31.59.1.21.2.42.29.65.09.22.18.46.27.7.22.62.8 1.01 1.42 1.01ZM14.55 21.59a1.499 1.499 0 1 0 2.99-.19c-.02-.37-.05-.73-.09-1.09-.09-.86-.9-1.46-1.76-1.31-.78.14-1.31.85-1.23 1.64.03.32.06.64.08.96Z"/></svg>