<svg xmlns="http://www.w3.org/2000/svg" viewBox="0 0 24 24" width="24" height="24"><path d="m19.08,12.24l-3.08-.51v-1.73c0-2.21-1.79-4-4-4s-4,1.79-4,4v3.75c-1.04-.39-2.2-.29-3.18.3-1.14.68-1.82,1.87-1.82,3.2s.69,2.52,1.81,3.19l3.45,2.07c.54.33,1.17.5,1.8.5h8.45c1.93,0,3.5-1.57,3.5-3.5v-3.81c0-1.72-1.23-3.17-2.92-3.45Zm-.08,7.26c0,.28-.22.5-.5.5h-8.45c-.09,0-.18-.02-.26-.07l-3.45-2.07c-.22-.13-.35-.37-.35-.62,0-.36.22-.54.35-.62.08-.05.21-.11.37-.11.1,0,.22.02.34.09l.98.53c.63.34,1.37.33,1.98-.04.61-.36.98-1.01.98-1.72v-5.38c0-.55.45-1,1-1s1,.45,1,1v2.15c0,1.23.88,2.26,2.09,2.47l3.49.58c.24.04.42.25.42.49v3.81Z"/><path d="m4.51,8.46c.76.32,1.64-.03,1.97-.8.3-.71.73-1.36,1.29-1.91.55-.55,1.19-.99,1.91-1.29,1.48-.63,3.19-.63,4.67,0,.71.3,1.35.73,1.91,1.29.55.55.98,1.19,1.29,1.91.24.57.8.92,1.38.92.19,0,.39-.04.58-.12.76-.32,1.12-1.2.8-1.97-.45-1.07-1.1-2.04-1.93-2.86-.83-.83-1.79-1.47-2.86-1.93-2.22-.94-4.79-.94-7.01,0-1.07.45-2.03,1.1-2.86,1.93-.83.83-1.48,1.79-1.93,2.86-.32.76.03,1.64.8,1.97Z"/></svg>