<svg xmlns="http://www.w3.org/2000/svg" viewBox="0 0 24 24" width="24" height="24"><path d="m20.5,1H3.5c-.83,0-1.5.67-1.5,1.5v1.37c0,.73.22,1.43.64,2.02l5.08,7.2c.18.26.28.55.28.87v6.81c0,.67.33,1.28.88,1.66.34.23.73.34,1.12.34.25,0,.5-.05.74-.14l4-1.6c.76-.31,1.26-1.04,1.26-1.86v-5.21c0-.31.1-.61.27-.87l5.08-7.2c.42-.59.64-1.29.64-2.02v-1.37c0-.83-.67-1.5-1.5-1.5Zm-1.59,3.15l-5.08,7.2c-.54.76-.82,1.66-.82,2.59v4.53l-2,.8v-5.33c0-.93-.28-1.83-.82-2.6l-5.09-7.2s-.06-.1-.07-.15h13.96c-.02.05-.04.11-.07.15Z"/></svg>