<svg xmlns="http://www.w3.org/2000/svg" viewBox="0 0 24 24" width="24" height="24"><path d="M16 10A1 1 0 1 0 16 12 1 1 0 1 0 16 10z"/><path d="m2.05,14.84c-.63.19-1.06.77-1.06,1.43h0c0,1.02.99,1.73,1.95,1.42,1.14-.37,2.27-1.09,3.05-2.22,1.48,1.71,3.9,3.53,7.51,3.53,6.64,0,9.28-6.16,9.39-6.42.15-.37.15-.78,0-1.15-.11-.26-2.75-6.42-9.39-6.42-3.61,0-6.03,1.82-7.51,3.53-.78-1.13-1.9-1.85-3.04-2.22-.96-.31-1.95.41-1.95,1.42,0,.67.46,1.23,1.1,1.43.87.28,1.9.99,1.9,2.83s-1.05,2.56-1.95,2.84Zm11.45-6.84c3.66,0,5.62,2.76,6.32,4-.7,1.24-2.67,4-6.32,4s-5.63-2.77-6.32-4c.7-1.24,2.67-4,6.32-4Z"/></svg>