<svg xmlns="http://www.w3.org/2000/svg" viewBox="0 0 24 24" width="24" height="24"><path d="m18.5,1h-4.85c-2.26,0-4.18,1.69-4.47,3.94l-.51,4.06h-3.68c-2.21,0-4,1.79-4,4s1.79,4,4,4h7.63c-.27.85-.25,1.76.06,2.61.38,1.07,1.16,1.91,2.2,2.36.54.24,1.11.36,1.67.36,1.34,0,2.63-.66,3.41-1.83l2.28-3.42c.49-.74.76-1.6.76-2.5V5.5c0-2.48-2.02-4.5-4.5-4.5Zm1.5,13.59c0,.3-.09.58-.25.83l-2.28,3.42c-.3.45-.87.62-1.37.4-.28-.12-.49-.35-.59-.64-.1-.29-.08-.6.05-.87l.42-.84c.31-.62.28-1.35-.09-1.95-.37-.59-1-.95-1.7-.95H5c-.55,0-1-.45-1-1s.45-1,1-1h4.12c1.26,0,2.32-.94,2.48-2.19l.56-4.5c.09-.75.73-1.31,1.49-1.31h4.85c.83,0,1.5.67,1.5,1.5v9.09Z"/></svg>