<svg xmlns="http://www.w3.org/2000/svg" width="24" height="24" viewBox="0 0 24 24"><rect width="2" height="2" x="11" y="14" rx=".25" ry=".25"/><rect width="2" height="2" x="15" y="14" rx=".25" ry=".25"/><rect width="2" height="2" x="7" y="14" rx=".25" ry=".25"/><path d="M20.68 6.1c-.81-.37-1.74-.23-2.41.36l-.6.52a2.23 2.23 0 0 0-.99-.88c-.81-.37-1.74-.23-2.41.36l-.6.52a2.23 2.23 0 0 0-.99-.88c-.81-.37-1.74-.23-2.41.36L10 6.7V4.25C10 3.01 8.99 2 7.75 2h-3.5C3.01 2 2 3.01 2 4.25V18c0 1.65 1.35 3 3 3h14c1.65 0 3-1.35 3-3V8.15c0-.88-.52-1.68-1.32-2.05M19 18H5V5h2v5c0 .59.34 1.12.88 1.37.54.24 1.17.15 1.61-.24L11 9.81V10c0 .59.34 1.12.88 1.37.54.24 1.17.15 1.61-.24L15 9.81V10c0 .59.34 1.12.88 1.37.54.24 1.17.15 1.61-.24L19 9.81z"/></svg>