<svg xmlns="http://www.w3.org/2000/svg" viewBox="0 0 24 24" width="24" height="24"><path d="m23,11.95c-.03-6.04-4.95-10.95-11-10.95S1.03,5.91,1,11.95h0s-.63,8.64-.63,8.64c-.05.62.17,1.24.6,1.7.42.46,1.02.72,1.65.72h18.77c.62,0,1.22-.26,1.65-.72.42-.46.64-1.08.6-1.7l-.63-8.64h0Zm-3,.05c0,4.41-3.59,8-8,8s-8-3.59-8-8c0-.13.01-.26.02-.38,4.88-.49,7.03-3.31,7.98-5.69.95,2.38,3.1,5.2,7.98,5.69,0,.13.02.25.02.38Zm-.24-1.93c-4.84-.65-6.34-3.98-6.79-6.01,3.31.4,6,2.83,6.79,6.01Zm-8.72-6.01c-.46,2.03-1.95,5.35-6.79,6.01.79-3.18,3.48-5.61,6.79-6.01ZM2.61,21.5c-.21,0-.41-.08-.55-.24s-.21-.36-.2-.57l.28-3.84c.96,1.94,2.47,3.55,4.33,4.64h-3.87Zm19.32-.24c-.14.15-.34.24-.55.24h-3.87c1.86-1.09,3.37-2.7,4.33-4.64l.28,3.84c.02.21-.06.41-.2.57Z"/><path d="M8.5 12A1.5 1.5 0 1 0 8.5 15 1.5 1.5 0 1 0 8.5 12z"/><path d="M15.5 12A1.5 1.5 0 1 0 15.5 15 1.5 1.5 0 1 0 15.5 12z"/></svg>