<svg xmlns="http://www.w3.org/2000/svg" width="24" height="24" viewBox="0 0 24 24"><path d="M10.75 12a.754.754 0 0 0-1.06 0l-1.97 1.97c-.29.29-.29.77 0 1.06L9.69 17c.29.29.77.29 1.06 0s.29-.77 0-1.06L9.31 14.5l1.44-1.44c.29-.29.29-.77 0-1.06M14.31 12a.754.754 0 0 0-1.06 0c-.29.29-.29.77 0 1.06l1.44 1.44-1.44 1.44c-.29.29-.29.77 0 1.06s.77.29 1.06 0l1.97-1.97c.29-.29.29-.77 0-1.06z"/><path d="M15.06 1.44C14.78 1.16 14.4 1 14 1H7.5C5.02 1 3 3.02 3 5.5v13C3 20.98 5.02 23 7.5 23h9c2.48 0 4.5-2.02 4.5-4.5V8c0-.4-.16-.78-.44-1.06zM16.5 20h-9c-.83 0-1.5-.67-1.5-1.5v-13C6 4.67 6.67 4 7.5 4H13v2.75C13 7.99 14.01 9 15.25 9H18v9.5c0 .83-.67 1.5-1.5 1.5"/></svg>