<svg xmlns="http://www.w3.org/2000/svg" viewBox="0 0 24 24" width="24" height="24"><path d="m19.06,9.18l-4.06-.51v-3.68c0-2.21-1.79-4-4-4s-4,1.79-4,4v7.63c-.85-.27-1.76-.25-2.61.06-1.07.38-1.91,1.16-2.36,2.2-.81,1.83-.2,3.97,1.47,5.08l3.42,2.28c.74.49,1.6.76,2.5.76h9.09c2.48,0,4.5-2.02,4.5-4.5v-4.85c0-2.26-1.69-4.18-3.94-4.47Zm.94,9.32c0,.83-.67,1.5-1.5,1.5h-9.09c-.3,0-.58-.09-.83-.25l-3.42-2.28c-.45-.3-.62-.88-.4-1.37.12-.28.35-.49.64-.59.12-.04.25-.07.38-.07.17,0,.34.04.49.12l.84.42c.62.31,1.35.28,1.95-.09.59-.37.95-1,.95-1.7V5c0-.55.45-1,1-1s1,.45,1,1v4.12c0,1.26.94,2.32,2.19,2.48l4.5.56c.75.09,1.31.73,1.31,1.49v4.85Z"/></svg>