<svg xmlns="http://www.w3.org/2000/svg" viewBox="0 0 24 24" width="24" height="24"><path d="m18.5,3h-6.88l-1.12-1.12c-.56-.56-1.33-.88-2.12-.88h-4.38c-1.65,0-3,1.35-3,3v12.5c0,2.48,2.02,4.5,4.5,4.5h13c2.48,0,4.5-2.02,4.5-4.5V7.5c0-2.48-2.02-4.5-4.5-4.5Zm1.5,13.5c0,.83-.67,1.5-1.5,1.5H5.5c-.83,0-1.5-.67-1.5-1.5V6h14.5c.83,0,1.5.67,1.5,1.5v9Z"/><path d="m12.12,9.24l-.12.12-.12-.12c-.87-.86-2.38-.95-3.24-.07-.83.86-.82,2.19.04,3.03l2.79,2.77c.29.29.76.29,1.06,0l2.79-2.77c.85-.84.86-2.17.04-3.03-.85-.89-2.36-.8-3.24.07Z"/></svg>