<svg xmlns="http://www.w3.org/2000/svg" viewBox="0 0 24 24" width="24" height="24"><path d="m18.5,3h-6.88l-1.12-1.12c-.56-.56-1.33-.88-2.12-.88h-4.38c-1.65,0-3,1.35-3,3v12.5c0,2.48,2.02,4.5,4.5,4.5h13c2.48,0,4.5-2.02,4.5-4.5V7.5c0-2.48-2.02-4.5-4.5-4.5Zm1.5,13.5c0,.83-.67,1.5-1.5,1.5H5.5c-.83,0-1.5-.67-1.5-1.5V6h14.5c.83,0,1.5.67,1.5,1.5v9Z"/><path d="m14.44,13.38c.35-.54.56-1.19.56-1.88,0-1.93-1.57-3.5-3.5-3.5s-3.5,1.57-3.5,3.5,1.57,3.5,3.5,3.5c.69,0,1.34-.21,1.88-.56l1.06,1.06c.29.29.77.29,1.06,0,.29-.29.29-.77,0-1.06l-1.06-1.06Zm-2.94.12c-1.1,0-2-.9-2-2s.9-2,2-2,2,.9,2,2-.9,2-2,2Z"/></svg>