<svg xmlns="http://www.w3.org/2000/svg" viewBox="0 0 24 24" width="24" height="24"><path d="m1.5,10h4.29c.45,0,.67-.54.35-.85l-1.18-1.18c1.08-2.31,3.93-3.97,7.28-3.97,3.8,0,6.97,2.13,7.62,4.92.14.62.65,1.08,1.28,1.08h.4c.84,0,1.45-.79,1.27-1.61-.91-4.2-5.31-7.39-10.58-7.39-4.1,0-7.67,1.93-9.48,4.77l-.91-.91c-.32-.31-.85-.09-.85.35v4.29c0,.28.22.5.5.5Z"/><path d="m12,6c-2.21,0-4,1.79-4,4v3.75c-1.04-.38-2.2-.29-3.18.3-1.14.68-1.82,1.87-1.82,3.2s.69,2.52,1.81,3.19l3.45,2.07c.54.33,1.17.5,1.8.5h8.45c1.93,0,3.5-1.57,3.5-3.5v-3.81c0-1.72-1.23-3.17-2.92-3.45l-3.08-.51v-1.73c0-2.21-1.79-4-4-4Zm6.58,9.2c.24.04.42.25.42.49v3.81c0,.28-.22.5-.5.5h-8.45c-.09,0-.18-.02-.26-.07l-3.45-2.07c-.22-.13-.35-.37-.35-.62,0-.36.22-.54.35-.62.08-.05.21-.11.37-.11.1,0,.22.02.34.09l.98.53c.63.34,1.37.33,1.98-.04.61-.36.98-1.01.98-1.72v-5.38c0-.55.45-1,1-1s1,.45,1,1v2.15c0,1.23.88,2.26,2.09,2.47l3.49.58Z"/></svg>