<svg xmlns="http://www.w3.org/2000/svg" width="24" height="24" viewBox="0 0 24 24"><path d="M14.44 15.38c.35-.54.56-1.19.56-1.88 0-1.93-1.57-3.5-3.5-3.5S8 11.57 8 13.5 9.57 17 11.5 17c.69 0 1.34-.21 1.88-.56l1.34 1.34c.15.15.34.22.53.22s.38-.07.53-.22c.29-.29.29-.77 0-1.06zm-2.94.12c-1.1 0-2-.9-2-2s.9-2 2-2 2 .9 2 2-.9 2-2 2"/><path d="M15.06 1.44C14.78 1.16 14.4 1 14 1H7.5C5.02 1 3 3.02 3 5.5v13C3 20.98 5.02 23 7.5 23h9c2.48 0 4.5-2.02 4.5-4.5V8c0-.4-.16-.78-.44-1.06zM16.5 20h-9c-.83 0-1.5-.67-1.5-1.5v-13C6 4.67 6.67 4 7.5 4H13v2.75C13 7.99 14.01 9 15.25 9H18v9.5c0 .83-.67 1.5-1.5 1.5"/></svg>