<svg xmlns="http://www.w3.org/2000/svg" viewBox="0 0 24 24" width="24" height="24"><path d="m18.5,3h-6.88l-1.12-1.12c-.56-.56-1.33-.88-2.12-.88h-4.38c-1.65,0-3,1.35-3,3v12.5c0,2.48,2.02,4.5,4.5,4.5h13c2.48,0,4.5-2.02,4.5-4.5V7.5c0-2.48-2.02-4.5-4.5-4.5Zm1.5,13.5c0,.83-.67,1.5-1.5,1.5H5.5c-.83,0-1.5-.67-1.5-1.5V6h14.5c.83,0,1.5.67,1.5,1.5v9Z"/><path d="m10.78,8.97c-.29-.29-.77-.29-1.06,0l-2.5,2.5c-.29.29-.29.77,0,1.06l2.5,2.5c.15.15.34.22.53.22s.38-.07.53-.22c.29-.29.29-.77,0-1.06l-1.97-1.97,1.97-1.97c.29-.29.29-.77,0-1.06Z"/><path d="m14.28,8.97c-.29-.29-.77-.29-1.06,0s-.29.77,0,1.06l1.97,1.97-1.97,1.97c-.29.29-.29.77,0,1.06.15.15.34.22.53.22s.38-.07.53-.22l2.5-2.5c.29-.29.29-.77,0-1.06l-2.5-2.5Z"/></svg>