<svg xmlns="http://www.w3.org/2000/svg" width="24" height="24" viewBox="0 0 24 24"><path d="M17.5 8.38h-11c-2.48 0-4.5 2.02-4.5 4.5v5c0 2.48 2.02 4.5 4.5 4.5h11c2.48 0 4.5-2.02 4.5-4.5v-5c0-2.48-2.02-4.5-4.5-4.5m1.5 9.5c0 .83-.67 1.5-1.5 1.5h-11c-.83 0-1.5-.67-1.5-1.5v-5c0-.83.67-1.5 1.5-1.5h11c.83 0 1.5.67 1.5 1.5zM4.75 6.88h14.5c.41 0 .75-.34.75-.75s-.34-.75-.75-.75H4.75c-.41 0-.75.34-.75.75s.34.75.75.75M6.75 3.88h10.5c.41 0 .75-.34.75-.75s-.34-.75-.75-.75H6.75c-.41 0-.75.34-.75.75s.34.75.75.75"/></svg>