<svg xmlns="http://www.w3.org/2000/svg" width="24" height="24" viewBox="0 0 24 24"><path d="M6.5 16.25h-3c-.69 0-1.25.56-1.25 1.25v3c0 .69.56 1.25 1.25 1.25h3c.69 0 1.25-.56 1.25-1.25v-3c0-.69-.56-1.25-1.25-1.25m-.25 4h-2.5v-2.5h2.5zM13.5 16.25h-3c-.69 0-1.25.56-1.25 1.25v3c0 .69.56 1.25 1.25 1.25h3c.69 0 1.25-.56 1.25-1.25v-3c0-.69-.56-1.25-1.25-1.25m-.25 4h-2.5v-2.5h2.5zM20.5 16.25h-3c-.69 0-1.25.56-1.25 1.25v3c0 .69.56 1.25 1.25 1.25h3c.69 0 1.25-.56 1.25-1.25v-3c0-.69-.56-1.25-1.25-1.25m-.25 4h-2.5v-2.5h2.5zM6.5 9.25h-3c-.69 0-1.25.56-1.25 1.25v3c0 .69.56 1.25 1.25 1.25h3c.69 0 1.25-.56 1.25-1.25v-3c0-.69-.56-1.25-1.25-1.25m-.25 4h-2.5v-2.5h2.5zM13.5 9.25h-3c-.69 0-1.25.56-1.25 1.25v3c0 .69.56 1.25 1.25 1.25h3c.69 0 1.25-.56 1.25-1.25v-3c0-.69-.56-1.25-1.25-1.25m-.25 4h-2.5v-2.5h2.5zM20.5 9.25h-3c-.69 0-1.25.56-1.25 1.25v3c0 .69.56 1.25 1.25 1.25h3c.69 0 1.25-.56 1.25-1.25v-3c0-.69-.56-1.25-1.25-1.25m-.25 4h-2.5v-2.5h2.5zM6.5 2.25h-3c-.69 0-1.25.56-1.25 1.25v3c0 .69.56 1.25 1.25 1.25h3c.69 0 1.25-.56 1.25-1.25v-3c0-.69-.56-1.25-1.25-1.25m-.25 4h-2.5v-2.5h2.5zM13.5 2.25h-3c-.69 0-1.25.56-1.25 1.25v3c0 .69.56 1.25 1.25 1.25h3c.69 0 1.25-.56 1.25-1.25v-3c0-.69-.56-1.25-1.25-1.25m-.25 4h-2.5v-2.5h2.5zM20.5 2.25h-3c-.69 0-1.25.56-1.25 1.25v3c0 .69.56 1.25 1.25 1.25h3c.69 0 1.25-.56 1.25-1.25v-3c0-.69-.56-1.25-1.25-1.25m-.25 4h-2.5v-2.5h2.5z"/></svg>