<svg xmlns="http://www.w3.org/2000/svg" width="24" height="24" viewBox="0 0 24 24"><path d="M5.5 19h-2c-.83 0-1.5.67-1.5 1.5S2.67 22 3.5 22h2c.83 0 1.5-.67 1.5-1.5S6.33 19 5.5 19M13.5 19h-3c-.83 0-1.5.67-1.5 1.5s.67 1.5 1.5 1.5h3c.83 0 1.5-.67 1.5-1.5s-.67-1.5-1.5-1.5M20.5 19h-2c-.83 0-1.5.67-1.5 1.5s.67 1.5 1.5 1.5h2c.83 0 1.5-.67 1.5-1.5s-.67-1.5-1.5-1.5M17.5 2h-11C4.02 2 2 4.02 2 6.5v6C2 14.98 4.02 17 6.5 17h11c2.48 0 4.5-2.02 4.5-4.5v-6C22 4.02 19.98 2 17.5 2M19 12.5c0 .83-.67 1.5-1.5 1.5h-11c-.83 0-1.5-.67-1.5-1.5v-6C5 5.67 5.67 5 6.5 5h11c.83 0 1.5.67 1.5 1.5z"/></svg>