<svg xmlns="http://www.w3.org/2000/svg" width="24" height="24" viewBox="0 0 24 24"><path d="M2 19c0 2.21 1.79 4 4 4s4-1.79 4-4c0-1.67-1.04-3.11-2.5-3.7V8.71c1.46-.6 2.5-2.03 2.5-3.7 0-2.21-1.79-4-4-4S2 2.79 2 5c0 1.67 1.04 3.11 2.5 3.7v6.59c-1.46.6-2.5 2.03-2.5 3.7Zm4 1c-.55 0-1-.45-1-1s.45-1 1-1 1 .45 1 1-.45 1-1 1M6 4c.55 0 1 .45 1 1s-.45 1-1 1-1-.45-1-1 .45-1 1-1M18 10c-.83 0-1.5.67-1.5 1.5v3.8c-1.46.6-2.5 2.03-2.5 3.7 0 2.21 1.79 4 4 4s4-1.79 4-4c0-1.67-1.04-3.11-2.5-3.7v-3.8c0-.83-.67-1.5-1.5-1.5m0 10c-.55 0-1-.45-1-1s.45-1 1-1 1 .45 1 1-.45 1-1 1M21.56 1.44a1.49 1.49 0 0 0-2.12 0L18 2.88l-1.44-1.44c-.59-.59-1.54-.59-2.12 0s-.59 1.54 0 2.12L15.88 5l-1.44 1.44a1.49 1.49 0 0 0 0 2.12c.29.29.68.44 1.06.44s.77-.15 1.06-.44L18 7.12l1.44 1.44c.29.29.68.44 1.06.44s.77-.15 1.06-.44c.59-.59.59-1.54 0-2.12L20.12 5l1.44-1.44c.59-.59.59-1.54 0-2.12"/></svg>