<svg xmlns="http://www.w3.org/2000/svg" width="24" height="24" viewBox="0 0 24 24"><path d="M12 23c6.07 0 11-4.93 11-11S18.07 1 12 1 1 5.93 1 12s4.93 11 11 11M4.78 8.57h.17c.56-.02 1.47-.02 2.01 0s1.1-.07 1.23-.21-.08-.39-.48-.55-.75-.46-.78-.66.07-.58.22-.84c.1-.17.2-.51.27-.86C8.72 4.54 10.3 4 12 4c4.41 0 8 3.59 8 8s-3.59 8-8 8-8-3.59-8-8c0-1.23.29-2.39.78-3.43"/><path d="M8.1 14.38c.27-.08.76-.32 1.08-.55s.92-.32 1.33-.21.82.33.91.48.44.42.77.6.9.33 1.27.34c.37 0 .9-.54 1.19-1.22.28-.68.15-1.8-.29-2.48s-.95-1.58-1.12-2-.46-.43-.65-.03-.54.65-.77.55c-.24-.09-.41-.39-.38-.65.03-.27-.27-.54-.65-.6-.39-.07-.89.05-1.12.26s-.68.69-1 1.07-.91.86-1.32 1.08-.69.79-.62 1.27.29 1.18.5 1.55.6.61.88.54ZM17.21 17.11c.4-.22.91-.67 1.14-1.02s.28-.78.12-.98-.33-.16-.38.09-.34.58-.65.73-.77.52-1.02.81-.33.58-.19.64c.14.07.58-.06.98-.28ZM12.98 15.72l.03.1.03.1c.14.29.36.52.49.5s.22-.18.22-.35-.36-.33-.77-.35M10.91 6.71c.39.26.92.7 1.19.97.26.27.68.48.93.48s.71.05 1.03.13.32-.19 0-.6-1.07-.96-1.68-1.23c-.61-.26-1.35-.42-1.65-.35s-.22.34.17.61Z"/></svg>