<svg xmlns="http://www.w3.org/2000/svg" width="24" height="24" viewBox="0 0 24 24"><path d="M6.5 11C8.98 11 11 8.98 11 6.5S8.98 2 6.5 2 2 4.02 2 6.5 4.02 11 6.5 11m0-6C7.33 5 8 5.67 8 6.5S7.33 8 6.5 8 5 7.33 5 6.5 5.67 5 6.5 5M17.5 2C15.02 2 13 4.02 13 6.5s2.02 4.5 4.5 4.5S22 8.98 22 6.5 19.98 2 17.5 2m0 6c-.83 0-1.5-.67-1.5-1.5S16.67 5 17.5 5s1.5.67 1.5 1.5S18.33 8 17.5 8M6.5 22c2.48 0 4.5-2.02 4.5-4.5S8.98 13 6.5 13 2 15.02 2 17.5 4.02 22 6.5 22m0-6c.83 0 1.5.67 1.5 1.5S7.33 19 6.5 19 5 18.33 5 17.5 5.67 16 6.5 16M21.25 16.75h-3v-3c0-.41-.34-.75-.75-.75s-.75.34-.75.75v3h-3c-.41 0-.75.34-.75.75s.34.75.75.75h3v3c0 .41.34.75.75.75s.75-.34.75-.75v-3h3c.41 0 .75-.34.75-.75s-.34-.75-.75-.75"/></svg>