<svg xmlns="http://www.w3.org/2000/svg" viewBox="0 0 24 24" width="24" height="24"><path d="m14.5,20H2.5c-.83,0-1.5.67-1.5,1.5s.67,1.5,1.5,1.5h12c.83,0,1.5-.67,1.5-1.5s-.67-1.5-1.5-1.5Z"/><path d="m15.87,12.75l2.13-2.13c1.17-1.17,1.17-3.07,0-4.24l-3.38-3.38c-1.13-1.13-3.11-1.13-4.24,0l-6.38,6.38h0c-1.17,1.17-1.17,3.07,0,4.24l3.38,3.38c.57.57,1.32.88,2.12.88s1.56-.31,2.12-.88l2.13-2.13,7.19,7.19c.29.29.68.44,1.06.44s.77-.15,1.06-.44c.59-.59.59-1.54,0-2.12l-7.19-7.19Zm-5.59-5.41l3.38,3.38-1.94,1.94-3.38-3.38,1.94-1.94Zm2.22-2.22l3.38,3.38-1.16,1.16-3.38-3.38,1.16-1.16Zm-6.38,6.38h0s1.16-1.16,1.16-1.16l3.38,3.38-1.16,1.16-3.38-3.38Z"/></svg>