<svg xmlns="http://www.w3.org/2000/svg" viewBox="0 0 24 24" width="24" height="24"><path d="M6.75 13.25A1 1 0 1 0 6.75 15.25 1 1 0 1 0 6.75 13.25z"/><path d="M10.25 12.75A1 1 0 1 0 10.25 14.75 1 1 0 1 0 10.25 12.75z"/><path d="M7.25 9.75A1 1 0 1 0 7.25 11.75 1 1 0 1 0 7.25 9.75z"/><path d="M9.75 16.25A1 1 0 1 0 9.75 18.25 1 1 0 1 0 9.75 16.25z"/><path d="M13.25 15.75A1 1 0 1 0 13.25 17.75 1 1 0 1 0 13.25 15.75z"/><path d="M12 1C5.93 1 1 5.93 1 12s4.93 11 11 11 11-4.93 11-11S18.07 1 12 1m0 19c-4.41 0-8-3.59-8-8s3.59-8 8-8 8 3.59 8 8-3.59 8-8 8"/></svg>