<svg xmlns="http://www.w3.org/2000/svg" viewBox="0 0 24 24" width="24" height="24"><path d="m4,7c0,2.85,2.15,5,5,5s5-2.15,5-5-2.15-5-5-5-5,2.15-5,5Zm7,0c0,1.18-.82,2-2,2s-2-.82-2-2,.82-2,2-2,2,.82,2,2Z"/><path d="m10.5,13h-3c-3.03,0-5.5,2.47-5.5,5.5v1c0,1.38,1.12,2.5,2.5,2.5h9c1.38,0,2.5-1.12,2.5-2.5v-1c0-3.03-2.47-5.5-5.5-5.5Zm2.5,6H5v-.5c0-1.38,1.12-2.5,2.5-2.5h3c1.38,0,2.5,1.12,2.5,2.5v.5Z"/><path d="m20,7c0-1.74-.8-3.26-2.18-4.18-.69-.46-1.62-.26-2.08.43s-.26,1.62.43,2.08c.54.35.83.95.83,1.67s-.3,1.32-.84,1.67c-.69.46-.88,1.39-.43,2.08.29.44.77.67,1.25.67.28,0,.57-.08.82-.25,1.39-.92,2.18-2.44,2.18-4.18Z"/><path d="m19.82,14.13c-.66-.5-1.6-.37-2.1.29-.5.66-.37,1.6.28,2.1.63.48,1,1.2,1,1.98v.56c-.62.18-1.04.76-1.04,1.44,0,.83.72,1.5,1.54,1.5,1.38,0,2.5-1.12,2.5-2.5v-1c0-1.72-.79-3.31-2.18-4.37Z"/></svg>