<svg xmlns="http://www.w3.org/2000/svg" width="24" height="24" viewBox="0 0 24 24"><path d="M4.5 8.7V9c0 2.48 2.02 4.5 4.5 4.5h1.5v1.8C9.04 15.9 8 17.33 8 19c0 2.21 1.79 4 4 4s4-1.79 4-4c0-1.67-1.04-3.11-2.5-3.7v-1.8H15c2.48 0 4.5-2.02 4.5-4.5v-.3C20.96 8.1 22 6.67 22 5c0-2.21-1.79-4-4-4s-4 1.79-4 4c0 1.67 1.04 3.11 2.5 3.7V9c0 .83-.67 1.5-1.5 1.5H9c-.83 0-1.5-.67-1.5-1.5v-.3C8.96 8.1 10 6.67 10 5c0-2.21-1.79-4-4-4S2 2.79 2 5c0 1.67 1.04 3.11 2.5 3.7M12 20c-.55 0-1-.45-1-1s.45-1 1-1 1 .45 1 1-.45 1-1 1m6-16c.55 0 1 .45 1 1s-.45 1-1 1-1-.45-1-1 .45-1 1-1M6 4c.55 0 1 .45 1 1s-.45 1-1 1-1-.45-1-1 .45-1 1-1"/></svg>