<svg xmlns="http://www.w3.org/2000/svg" viewBox="0 0 24 24" width="24" height="24"><path d="m8,1h-4c-1.65,0-3,1.35-3,3v4c0,1.65,1.35,3,3,3h4c1.65,0,3-1.35,3-3v-4c0-1.65-1.35-3-3-3Zm-4,7v-4h4v4s-4,0-4,0Z"/><path d="m10.31,13.69c-.59-.59-1.54-.59-2.12,0l-2.19,2.19-2.19-2.19c-.59-.59-1.54-.59-2.12,0-.59.59-.59,1.54,0,2.12l2.19,2.19-2.19,2.19c-.59.59-.59,1.54,0,2.12.29.29.68.44,1.06.44s.77-.15,1.06-.44l2.19-2.19,2.19,2.19c.29.29.68.44,1.06.44s.77-.15,1.06-.44c.59-.59.59-1.54,0-2.12l-2.19-2.19,2.19-2.19c.59-.59.59-1.54,0-2.12Z"/><path d="m19.3,1.76c-.27-.47-.76-.76-1.3-.76s-1.04.29-1.3.76l-4,7c-.27.46-.26,1.03,0,1.5s.76.75,1.3.75h8c.53,0,1.03-.28,1.3-.75s.27-1.03,0-1.5l-4-7Zm-2.72,6.24l1.42-2.48,1.42,2.48h-2.83Z"/><path d="m18,13c-2.76,0-5,2.24-5,5s2.24,5,5,5,5-2.24,5-5-2.24-5-5-5Zm0,7c-1.1,0-2-.9-2-2s.9-2,2-2,2,.9,2,2-.9,2-2,2Z"/></svg>