<svg version="1.1" xmlns="http://www.w3.org/2000/svg" xmlns:xlink="http://www.w3.org/1999/xlink" x="0px" y="0px" viewBox="0 0 24 24" xml:space="preserve" width="24" height="24"><g><path d="M8,2H5C3.3,2,2,3.3,2,5v3c0,1.7,1.3,3,3,3h3c1.7,0,3-1.3,3-3V5C11,3.3,9.7,2,8,2z M8,8H5V5h3V8z"/><path d="M19,2h-3c-1.7,0-3,1.3-3,3v3c0,1.7,1.3,3,3,3h3c1.7,0,3-1.3,3-3V5C22,3.3,20.7,2,19,2z M19,8h-3V5h3V8z"/><path d="M8,13H5c-1.7,0-3,1.3-3,3v3c0,1.7,1.3,3,3,3h3c1.7,0,3-1.3,3-3v-3C11,14.3,9.7,13,8,13z M8,19H5v-3h3V19z"/><path d="M19.9,18.9c1-1.5,0.8-3.4-0.5-4.7c-1.4-1.4-3.9-1.4-5.3,0c-1.5,1.5-1.5,3.8,0,5.3c0.7,0.7,1.7,1.1,2.6,1.1
		c0.7,0,1.4-0.2,2.1-0.6l1.8,1.8c0.2,0.2,0.3,0.2,0.5,0.2s0.4-0.1,0.5-0.2c0.3-0.3,0.3-0.8,0-1.1L19.9,18.9z M18.4,18.4
		c-0.9,0.9-2.3,0.9-3.2,0s-0.9-2.3,0-3.2c0.4-0.4,1-0.7,1.6-0.7c0.6,0,1.2,0.2,1.6,0.7C19.3,16.1,19.3,17.5,18.4,18.4z"/></g></svg>