<svg xmlns="http://www.w3.org/2000/svg" viewBox="0 0 24 24" width="24" height="24"><path d="m21.5,9c.83,0,1.5-.67,1.5-1.5s-.67-1.5-1.5-1.5h-3.5v-3.5c0-.83-.67-1.5-1.5-1.5s-1.5.67-1.5,1.5v3.5h-6v-3.5c0-.83-.67-1.5-1.5-1.5s-1.5.67-1.5,1.5v3.5h-3.5c-.83,0-1.5.67-1.5,1.5s.67,1.5,1.5,1.5h3.5v6h-3.5c-.83,0-1.5.67-1.5,1.5s.67,1.5,1.5,1.5h3.5v3.5c0,.83.67,1.5,1.5,1.5s1.5-.67,1.5-1.5v-3.5h6v3.5c0,.83.67,1.5,1.5,1.5s1.5-.67,1.5-1.5v-3.5h3.5c.83,0,1.5-.67,1.5-1.5s-.67-1.5-1.5-1.5h-3.5v-6h3.5Zm-6.5,0v6h-6v-6h6Z"/></svg>