<svg xmlns="http://www.w3.org/2000/svg" width="24" height="24" viewBox="0 0 24 24"><path d="M21.27 4.81A4.47 4.47 0 0 0 16.82 1H7.18c-2.23 0-4.1 1.6-4.45 3.81L1.02 15.77c-.01.08-.02.15-.02.23v1.5C1 19.98 3.02 22 5.5 22h13c2.48 0 4.5-2.02 4.5-4.5V16c0-.08 0-.16-.02-.23zM7.18 4h9.64c.74 0 1.37.53 1.48 1.27l1.07 6.82q-.42-.09-.87-.09h-13q-.45 0-.87.09L5.7 5.27C5.82 4.53 6.44 4 7.18 4M20 17.5c0 .83-.67 1.5-1.5 1.5h-13c-.83 0-1.5-.67-1.5-1.5v-1c0-.83.67-1.5 1.5-1.5h13c.83 0 1.5.67 1.5 1.5z"/><path d="M18 16a1 1 0 1 0 0 2 1 1 0 1 0 0-2M15 16a1 1 0 1 0 0 2 1 1 0 1 0 0-2"/></svg>