<svg xmlns="http://www.w3.org/2000/svg" viewBox="0 0 24 24" width="24" height="24"><path d="m11,8.5c0-1.38-1.12-2.5-2.5-2.5h-.75V1.75c0-.41-.34-.75-.75-.75s-.75.34-.75.75v4.25h-.75c-1.38,0-2.5,1.12-2.5,2.5v7c0,1.38,1.12,2.5,2.5,2.5h.75v4.25c0,.41.34.75.75.75s.75-.34.75-.75v-4.25h.75c1.38,0,2.5-1.12,2.5-2.5v-7Zm-3,6.5h-2v-6h2v6Z"/><path d="m21,5.5c0-1.38-1.12-2.5-2.5-2.5h-.75v-1.25c0-.41-.34-.75-.75-.75s-.75.34-.75.75v1.25h-.75c-1.38,0-2.5,1.12-2.5,2.5v13c0,1.38,1.12,2.5,2.5,2.5h.75v1.25c0,.41.34.75.75.75s.75-.34.75-.75v-1.25h.75c1.38,0,2.5-1.12,2.5-2.5V5.5Zm-3,12.5h-2V6h2v12Z"/></svg>