<svg xmlns="http://www.w3.org/2000/svg" width="24" height="24" viewBox="0 0 24 24"><path d="M17.94 2.32A4.47 4.47 0 0 0 14.76 1H9.25c-1.2 0-2.33.47-3.18 1.32L2.33 6.06c-.85.85-1.32 1.98-1.32 3.18v5.51c0 1.2.47 2.33 1.32 3.18l3.74 3.74c.85.85 1.98 1.32 3.18 1.32h5.51c1.2 0 2.33-.47 3.18-1.32l3.74-3.74c.85-.85 1.32-1.98 1.32-3.18V9.24c0-1.2-.47-2.33-1.32-3.18zM20 14.76c0 .4-.16.78-.44 1.06l-3.74 3.74c-.28.28-.66.44-1.06.44H9.25c-.4 0-.78-.16-1.06-.44l-3.74-3.74c-.28-.28-.44-.66-.44-1.06V9.25c0-.4.16-.78.44-1.06l3.74-3.74c.28-.28.66-.44 1.06-.44h5.51c.4 0 .78.16 1.06.44l3.74 3.74c.28.28.44.66.44 1.06z"/><path d="M12 16a.75.75 0 1 0 0 1.5.75.75 0 1 0 0-1.5M13.27 6.25c-2.08-.75-4.47.35-5.22 2.39a.75.75 0 1 0 1.41.51c.47-1.28 1.99-1.96 3.31-1.49.98.35 1.64 1.27 1.65 2.29 0 1.32-1.92 2.32-2.67 2.59-.39.14-.59.57-.44.96.11.3.4.49.7.49.09 0 .17-.01.26-.05.15-.05 3.65-1.37 3.65-4.01a3.98 3.98 0 0 0-2.64-3.7Z"/></svg>