<svg xmlns="http://www.w3.org/2000/svg" width="24" height="24" viewBox="0 0 24 24"><path d="M15.9 14H8.11c-.56 0-.93.58-.67 1.08.6 1.18 1.94 2.92 4.57 2.92s3.97-1.74 4.57-2.92c.25-.49-.12-1.08-.67-1.08ZM9.04 11.99l1.47-1.46c.53-.52.64-1.39.17-1.96-.3-.37-.73-.57-1.19-.56-.37 0-.72.14-1 .39-.28-.24-.63-.38-1.01-.37-.36 0-.71.13-.98.37-.65.56-.6 1.6.02 2.2l1.47 1.41c.29.28.76.28 1.05 0ZM15.49 8.39c-.28-.24-.63-.38-1.01-.37-.36 0-.71.13-.98.37-.65.56-.6 1.6.02 2.2L14.99 12c.29.28.76.28 1.05 0l1.47-1.46c.53-.52.64-1.39.17-1.96-.3-.37-.73-.57-1.19-.56-.37 0-.72.14-1 .39Z"/><path d="M12 1C5.93 1 1 5.93 1 12s4.93 11 11 11 11-4.93 11-11S18.07 1 12 1m0 19c-4.41 0-8-3.59-8-8s3.59-8 8-8 8 3.59 8 8-3.59 8-8 8"/></svg>