<svg xmlns="http://www.w3.org/2000/svg" viewBox="0 0 24 24" width="24" height="24"><path d="m22,18.09v-2.97c0-.68-.07-1.36-.2-2.01-.13-.64-.33-1.27-.58-1.88-.25-.59-.56-1.17-.92-1.7-.36-.53-.77-1.03-1.22-1.48-.45-.45-.95-.86-1.48-1.22-.5-.34-1.04-.63-1.59-.87v-.46c0-1.38-1.12-2.5-2.5-2.5h-3c-1.38,0-2.5,1.12-2.5,2.5v.46c-.55.24-1.09.53-1.59.87-.53.36-1.03.77-1.48,1.22-.45.45-.86.95-1.22,1.48-.36.54-.67,1.11-.92,1.7-.26.6-.45,1.24-.58,1.88-.13.66-.2,1.34-.2,2.01v2.97c-.58.21-1,.76-1,1.41,0,.83.67,1.5,1.5,1.5h19c.83,0,1.5-.67,1.5-1.5,0-.65-.42-1.2-1-1.41ZM5.14,13.71c.09-.45.23-.89.41-1.31.17-.41.39-.81.65-1.19.25-.37.54-.72.86-1.04.29-.29.61-.55.95-.78v5.61h3V6h2v9h3v-5.61c.34.23.66.49.95.78.32.32.6.67.86,1.04.25.37.47.77.64,1.19.18.42.32.86.41,1.31.09.46.14.94.14,1.41v2.88H5v-2.88c0-.48.05-.95.14-1.41Z"/></svg>