<svg xmlns="http://www.w3.org/2000/svg" viewBox="0 0 24 24" width="24" height="24"><path d="m21.01,4c-1.29-1.29-2.98-2-4.77-2h0c-1.55,0-3.03.54-4.23,1.52-1.2-.98-2.68-1.51-4.23-1.52h0c-1.79,0-3.49.71-4.78,2-2.66,2.69-2.66,6.89,0,9.57l6.89,6.92c.57.57,1.32.88,2.13.88s1.56-.31,2.13-.88l6.89-6.92c2.66-2.68,2.66-6.88,0-9.57,0,0,0,0,0,0Zm-7.47,12.83l-1.68-1.68c-.2-.2-.51-.2-.71,0s-.2.51,0,.71l1.68,1.68-.83.83-6.89-6.92c-1.49-1.49-1.48-3.84,0-5.34.72-.72,1.66-1.12,2.65-1.12h0c.99,0,1.92.4,2.64,1.12l.53.53c.12.12.27.2.42.27l-2.22,2.24c-.74.75-.74,1.96,0,2.71.37.37.86.56,1.36.56s.98-.19,1.36-.56l2.15-2.15,3.31,3.31-.79.79-1.68-1.68c-.2-.2-.51-.2-.71,0s-.2.51,0,.71l1.68,1.68-.79.79-1.68-1.68c-.2-.2-.51-.2-.71,0s-.2.51,0,.71l1.68,1.68-.79.79Zm5.35-5.38l-.86.86-3.31-3.31,1.14-1.14c.2-.2.2-.51,0-.71s-.51-.2-.71,0l-4,4c-.36.36-.94.36-1.3,0s-.36-.94,0-1.29l3.01-3.03s.04-.06.06-.09c.05-.04.11-.05.15-.1l.53-.53c.72-.72,1.65-1.12,2.64-1.12h0c.99,0,1.93.4,2.65,1.12,1.48,1.5,1.48,3.85,0,5.34Z"/></svg>