<svg xmlns="http://www.w3.org/2000/svg" viewBox="0 0 24 24" width="24" height="24"><path d="m19.38,4c-1.31,0-2.47.7-3.1,1.75h-2.02v-.12c0-2-1.63-3.62-3.62-3.62s-3.62,1.63-3.62,3.62v5.69l-.07-.04c-.55-.36-1.19-.55-1.85-.55-.77,0-1.52.26-2.12.74-.75.6-1.21,1.5-1.27,2.46s.31,1.9.99,2.59l3.44,3.44c1.32,1.32,3.08,2.05,4.95,2.05h4.93c3.86,0,7-3.14,7-7v-7.38c0-2-1.63-3.62-3.63-3.62Zm-3.62,5.5c0-.41.34-.75.75-.75s.75.34.75.75v2.25c0,.41-.34.75-.75.75s-.75-.34-.75-.75v-2.25Zm-3,0c0-.41.34-.75.75-.75s.75.34.75.75v3.25c0,.41-.34.75-.75.75s-.75-.34-.75-.75v-3.25Zm7.25,5.5c0,2.21-1.79,4-4,4h-4.93c-1.07,0-2.07-.42-2.83-1.17l-3.44-3.44c-.11-.11-.12-.23-.11-.3,0-.07.03-.19.15-.29.07-.06.16-.09.25-.09.07,0,.15.02.21.06l2.38,1.55c.46.3,1.05.32,1.53.06.48-.26.78-.77.78-1.32V5.62c0-.34.28-.62.62-.62s.62.28.62.62v7.12c0,1.24,1.01,2.25,2.25,2.25.88,0,1.63-.51,2-1.24.3.15.64.24,1,.24,1.24,0,2.25-1.01,2.25-2.25v-4.12c0-.34.28-.62.62-.62s.62.28.62.62v7.38Z"/></svg>