<svg xmlns="http://www.w3.org/2000/svg" width="24" height="24" viewBox="0 0 24 24"><path d="M16.06 11.36C18.49 9.96 20 7.38 20 4.61v-.7c.58-.21 1-.76 1-1.41 0-.83-.67-1.5-1.5-1.5h-15C3.67 1 3 1.67 3 2.5c0 .65.42 1.2 1 1.41v.7c0 2.76 1.51 5.35 3.94 6.75.25.14.39.35.39.56v.17c0 .21-.15.42-.4.56-2.43 1.4-3.94 3.98-3.94 6.75v.7c-.58.21-1 .76-1 1.41 0 .83.67 1.5 1.5 1.5h15c.83 0 1.5-.67 1.5-1.5 0-.65-.42-1.2-1-1.41v-.7c0-2.76-1.51-5.35-3.94-6.75-.25-.14-.4-.35-.4-.56v-.17c0-.21.15-.42.4-.56Zm-1.5 3.89c1.5.86 2.43 2.45 2.43 4.15v.61H7v-.61c0-1.69.93-3.28 2.44-4.15 1.19-.68 1.9-1.87 1.9-3.16v-.17c0-1.3-.71-2.48-1.9-3.16-1.5-.86-2.43-2.45-2.43-4.15V4h10v.61c0 1.69-.93 3.28-2.43 4.15-1.19.68-1.9 1.86-1.9 3.16v.17c0 1.29.71 2.47 1.9 3.16Z"/></svg>