<svg xmlns="http://www.w3.org/2000/svg" viewBox="0 0 24 24" width="24" height="24"><path d="m18.2,6.97c-.52-.34-1.18-.39-1.74-.12-.33.16-.6.42-.77.74-.24-.63-.54-1.25-.9-1.86-.96-1.6-2.59-3.23-3.47-4.06-.44-.41-1.04-.57-1.62-.42-.58.15-1.04.57-1.23,1.14-.18.54-.85,2.37-2.02,3.55-3.03,3.03-4.44,5.75-4.44,8.56,0,3.78,1.9,8.03,5.42,8.46.6.08,1.19-.17,1.57-.65.38-.48.48-1.14.27-1.71-.41-1.1-.34-2.14-.05-3.02.95,3.45,3.2,5.42,6.37,5.42,2.22,0,6.42-1.78,6.42-8.5,0-4.5-2.66-6.76-3.8-7.53Zm-2.62,13.03c-3.2,0-3.79-3.75-3.86-5.98-.02-.71-.46-1.33-1.12-1.58-.21-.08-.42-.12-.63-.12-.46,0-.91.18-1.24.52-.89.91-2.55,2.94-2.75,5.62-.61-1.09-.97-2.59-.97-3.96,0-1.96,1.13-4.01,3.56-6.44.88-.88,1.54-1.94,2-2.89.59.64,1.23,1.4,1.65,2.1,1.03,1.72,1.36,3.48.99,5.24-.16.75.19,1.5.85,1.88.67.38,1.49.28,2.05-.23.98-.91,1.56-2.09,1.9-3.17.54.82.99,1.97.99,3.53,0,5.44-3.39,5.5-3.42,5.5Z"/></svg>