<svg xmlns="http://www.w3.org/2000/svg" width="24" height="24" viewBox="0 0 24 24"><path d="M2.5 13H3v6.5C3 21.43 4.57 23 6.5 23h11c1.93 0 3.5-1.57 3.5-3.5V13h.5c.61 0 1.17-.37 1.39-.94.23-.57.08-1.22-.36-1.64l-9.5-9.01c-.58-.55-1.48-.55-2.06 0l-9.5 9a1.48 1.48 0 0 0-.36 1.64c.23.57.78.94 1.39.94ZM12 4.57l6 5.68v9.25c0 .28-.22.5-.5.5h-11c-.28 0-.5-.22-.5-.5v-9.25z"/><path d="m8.65 14.71 2.82 2.77c.29.29.76.29 1.05 0l2.82-2.77c.85-.82.87-2.16.06-3.01l-.06-.06c-.87-.86-2.26-.86-3.12 0l-.22.22-.22-.22c-.87-.86-2.26-.86-3.12 0-.85.82-.87 2.16-.06 3.01l.06.06Z"/></svg>