<svg xmlns="http://www.w3.org/2000/svg" viewBox="0 0 24 24" width="24" height="24"><path d="m19.94,5.85l-5.5-3.56c-1.49-.96-3.4-.96-4.89,0l-5.5,3.56c-1.29.83-2.06,2.25-2.06,3.78v4.74c0,1.53.77,2.95,2.06,3.78l5.5,3.56c.74.48,1.59.72,2.45.72s1.7-.24,2.44-.72l5.5-3.56c1.29-.83,2.06-2.25,2.06-3.78v-4.74c0-1.53-.77-2.95-2.06-3.78Zm-.94,8.51c0,.51-.26.98-.69,1.26l-5.5,3.56c-.49.32-1.13.32-1.63,0l-5.5-3.56c-.43-.28-.69-.75-.69-1.26v-4.74c0-.51.26-.98.69-1.26l5.5-3.56h0c.25-.16.53-.24.81-.24s.57.08.81.24l5.5,3.56c.43.28.69.75.69,1.26v4.74Z"/></svg>