<svg xmlns="http://www.w3.org/2000/svg" viewBox="0 0 24 24" width="24" height="24"><path d="m21.75,8h-2.75v-3.09c.58-.21,1-.76,1-1.41,0-.83-.67-1.5-1.5-1.5H5.5c-.83,0-1.5.67-1.5,1.5,0,.65.42,1.2,1,1.41v3.09h-2.75c-1.24,0-2.25,1.01-2.25,2.25v9.5c0,1.24,1.01,2.25,2.25,2.25h19.5c1.24,0,2.25-1.01,2.25-2.25v-9.5c0-1.24-1.01-2.25-2.25-2.25ZM3,11h2v8h-2v-8Zm5-1.5v-4.5h8v14h-2v-2c0-1.1-.9-2-2-2s-2,.9-2,2v2h-2v-9.5Zm13,9.5h-2v-8h2v8Z"/><path d="m11.25,9.75v1.5c0,.41.34.75.75.75s.75-.34.75-.75v-1.5h1.5c.41,0,.75-.34.75-.75s-.34-.75-.75-.75h-1.5v-1.5c0-.41-.34-.75-.75-.75s-.75.34-.75.75v1.5h-1.5c-.41,0-.75.34-.75.75s.34.75.75.75h1.5Z"/></svg>