<svg xmlns="http://www.w3.org/2000/svg" viewBox="0 0 24 24" width="24" height="24"><path d="m21.5,12.5c-.58,0-.8-.12-1.2-.33-.35-.18-.81-.4-1.43-.54-.64-3.21-3.47-5.63-6.86-5.63-3.57,0-6.52,2.69-6.94,6.15-.54-.28-1.27-.65-2.56-.65-.83,0-1.5.67-1.5,1.5s.67,1.5,1.5,1.5c.58,0,.8.12,1.2.33.54.28,1.28.67,2.6.67s2.06-.39,2.6-.67c.4-.21.62-.33,1.2-.33s.8.12,1.2.33c.54.28,1.28.67,2.6.67s2.06-.39,2.6-.67c.4-.21.62-.33,1.2-.33s.8.12,1.2.33c.54.28,1.28.67,2.6.67.83,0,1.5-.67,1.5-1.5s-.67-1.5-1.5-1.5Zm-7.61,0c-.58,0-.8-.12-1.2-.33-.54-.28-1.28-.67-2.6-.67-.85,0-1.44.16-1.91.35.5-1.64,2.01-2.85,3.81-2.85s3.31,1.2,3.81,2.84c-.27.11-.51.22-.71.33-.4.21-.62.33-1.2.33Z"/><rect x="11.25" y="2" width="1.5" height="3" rx=".75" ry=".75"/><path d="m19.06,7l.94-.94c.29-.29.29-.77,0-1.06-.29-.29-.77-.29-1.06,0l-.94.94c-.29.29-.29.77,0,1.06.29.29.77.29,1.06,0Z"/><path d="m4.94,7c.29.29.77.29,1.06,0,.29-.29.29-.77,0-1.06l-.94-.94c-.29-.29-.77-.29-1.06,0-.29.29-.29.77,0,1.06l.94.94Z"/><path d="m21.5,18c-.58,0-.8-.12-1.2-.33-.54-.28-1.28-.67-2.6-.67s-2.06.39-2.6.67c-.4.21-.62.33-1.2.33s-.8-.12-1.2-.33c-.54-.28-1.28-.67-2.6-.67s-2.06.39-2.6.67c-.4.21-.62.33-1.2.33s-.8-.12-1.2-.33c-.54-.28-1.28-.67-2.6-.67-.83,0-1.5.67-1.5,1.5s.67,1.5,1.5,1.5c.58,0,.8.12,1.2.33.54.28,1.28.67,2.6.67s2.06-.39,2.6-.67c.4-.21.62-.33,1.2-.33s.8.12,1.2.33c.54.28,1.28.67,2.6.67s2.06-.39,2.6-.67c.4-.21.62-.33,1.2-.33s.8.12,1.2.33c.54.28,1.28.67,2.6.67.83,0,1.5-.67,1.5-1.5s-.67-1.5-1.5-1.5Z"/></svg>