<svg xmlns="http://www.w3.org/2000/svg" width="24" height="24" viewBox="0 0 24 24"><path d="M3.5 18c.83 0 1.5-.67 1.5-1.5v-3h3v3c0 .83.67 1.5 1.5 1.5s1.5-.67 1.5-1.5v-9c0-.83-.67-1.5-1.5-1.5S8 6.67 8 7.5v3H5v-3C5 6.67 4.33 6 3.5 6S2 6.67 2 7.5v9c0 .83.67 1.5 1.5 1.5M22 9c0-1.65-1.35-3-3-3h-4.5c-.83 0-1.5.67-1.5 1.5S13.67 9 14.5 9H19v1.5h-3c-.83 0-1.5.67-1.5 1.5s.67 1.5 1.5 1.5h3V15h-4.5c-.83 0-1.5.67-1.5 1.5s.67 1.5 1.5 1.5H19c1.65 0 3-1.35 3-3v-1.5c0-.55-.16-1.06-.42-1.5.26-.44.42-.95.42-1.5z"/></svg>