<svg xmlns="http://www.w3.org/2000/svg" width="24" height="24" viewBox="0 0 24 24"><path d="M12 1C5.93 1 1 5.93 1 12s4.93 11 11 11 11-4.93 11-11S18.07 1 12 1m0 19c-4.41 0-8-3.59-8-8s3.59-8 8-8 8 3.59 8 8-3.59 8-8 8"/><path d="M12 16a.75.75 0 1 0 0 1.5.75.75 0 1 0 0-1.5M13.27 6.25c-2.08-.75-4.47.35-5.22 2.39a.75.75 0 1 0 1.41.51c.47-1.28 1.99-1.97 3.31-1.49.98.35 1.64 1.27 1.65 2.29 0 1.32-1.92 2.32-2.67 2.59-.39.14-.59.57-.44.96.11.3.4.49.7.49.09 0 .17-.01.26-.05.15-.05 3.65-1.37 3.65-4.01a3.98 3.98 0 0 0-2.64-3.7Z"/></svg>