<svg xmlns="http://www.w3.org/2000/svg" viewBox="0 0 24 24" width="24" height="24"><path d="m12.73,5.04c-.24-.02-.48-.04-.73-.04-.03,0-.06,0-.09,0,1.83-.93,3.7-1,4.1-1,.83,0,1.5-.67,1.5-1.5s-.67-1.5-1.5-1.5c-3.69,0-10.56,2.18-10.96,10.27-.02.24-.04.48-.04.73,0,.03,0,.06,0,.09-.93-1.83-1-3.7-1-4.1,0-.83-.67-1.5-1.5-1.5s-1.5.67-1.5,1.5c0,3.69,2.18,10.56,10.27,10.96.24.02.48.04.73.04.03,0,.06,0,.09,0-1.83.93-3.7,1-4.1,1-.83,0-1.5.67-1.5,1.5s.67,1.5,1.5,1.5c3.69,0,10.56-2.18,10.96-10.27.02-.24.04-.48.04-.73,0-.03,0-.06,0-.09.93,1.83,1,3.7,1,4.1,0,.83.67,1.5,1.5,1.5s1.5-.67,1.5-1.5c0-3.69-2.18-10.56-10.27-10.96Zm3.27,6.96c0,2.21-1.79,4-4,4s-4-1.79-4-4,1.79-4,4-4,4,1.79,4,4Z"/><path d="M12 10A2 2 0 1 0 12 14 2 2 0 1 0 12 10z"/></svg>