<svg xmlns="http://www.w3.org/2000/svg" viewBox="0 0 24 24" width="24" height="24"><path d="m6.5,22h11c2.48,0,4.5-2.02,4.5-4.5V6.5c0-2.48-2.02-4.5-4.5-4.5H6.5c-2.48,0-4.5,2.02-4.5,4.5v11c0,2.48,2.02,4.5,4.5,4.5Zm-1.5-15.5c0-.83.67-1.5,1.5-1.5h11c.83,0,1.5.67,1.5,1.5v11c0,.83-.67,1.5-1.5,1.5H6.5c-.83,0-1.5-.67-1.5-1.5V6.5Z"/><path d="m11.29,16.28c.39.4,1.03.4,1.42,0l3.47-3.51c1.09-1.1,1.09-2.84,0-3.95-1.09-1.1-2.82-1.1-3.91,0l-.28.28-.28-.28c-1.09-1.1-2.81-1.1-3.91,0-1.09,1.11-1.09,2.85,0,3.95l3.47,3.51Z"/></svg>