<svg xmlns="http://www.w3.org/2000/svg" width="24" height="24" viewBox="0 0 24 24"><path d="M5.5 22h13c2.48 0 4.5-2.02 4.5-4.5v-11C23 4.02 20.98 2 18.5 2h-13C3.02 2 1 4.02 1 6.5v11C1 19.98 3.02 22 5.5 22M4 6.5C4 5.67 4.67 5 5.5 5h13c.83 0 1.5.67 1.5 1.5v11c0 .83-.67 1.5-1.5 1.5h-13c-.83 0-1.5-.67-1.5-1.5z"/><path d="M7.5 8a1.5 1.5 0 1 0 0 3 1.5 1.5 0 1 0 0-3M8.4 12.8l-1.8 2.4a.5.5 0 0 0 .4.8h10a.5.5 0 0 0 .4-.8l-3.3-4.4c-.3-.4-.9-.4-1.2 0l-2 2.67c-.2.27-.6.27-.8 0l-.5-.67c-.3-.4-.9-.4-1.2 0"/></svg>