<svg xmlns="http://www.w3.org/2000/svg" width="24" height="24" viewBox="0 0 24 24"><path d="M18.5 2h-13C3.02 2 1 4.02 1 6.5v11C1 19.98 3.02 22 5.5 22h13c2.48 0 4.5-2.02 4.5-4.5v-11C23 4.02 20.98 2 18.5 2m-13 3h13c.83 0 1.5.67 1.5 1.5V12h-2.75c-.89 0-1.67.54-2.05 1.4a3.487 3.487 0 0 1-6.4 0c-.38-.86-1.16-1.4-2.05-1.4H4V6.5C4 5.67 4.67 5 5.5 5m13 14h-13c-.83 0-1.5-.67-1.5-1.5v-4h2.75c.34 0 .57.26.67.5.79 1.82 2.59 3 4.57 3s3.78-1.18 4.57-3c.11-.24.34-.5.67-.5h2.75v4c0 .83-.67 1.5-1.5 1.5Z"/></svg>