<svg xmlns="http://www.w3.org/2000/svg" width="24" height="24" viewBox="0 0 24 24"><path d="M6.5 22h11c2.48 0 4.5-2.02 4.5-4.5v-11C22 4.02 19.98 2 17.5 2h-11C4.02 2 2 4.02 2 6.5v11C2 19.98 4.02 22 6.5 22m11-3h-11c-.83 0-1.5-.67-1.5-1.5v-.44l2.47-2.47c.28-.28.78-.28 1.06 0l.41.41c.58.58 1.54.58 2.12 0l4.41-4.41c.29-.29.77-.29 1.06 0L19 13.06v4.44c0 .83-.67 1.5-1.5 1.5M6.5 5h11c.83 0 1.5.67 1.5 1.5v4.44l-1.41-1.41c-.85-.85-2.33-.85-3.18 0L10 13.94l-.41-.41c-.88-.88-2.3-.88-3.18 0L5 14.94V6.5C5 5.67 5.67 5 6.5 5"/><path d="M8.5 7a1.5 1.5 0 1 0 0 3 1.5 1.5 0 1 0 0-3"/></svg>