<svg xmlns="http://www.w3.org/2000/svg" viewBox="0 0 24 24" width="24" height="24"><path d="m17.5,13c-1.95,0-3.6,1.26-4.22,3h-2.55c-.62-1.74-2.27-3-4.22-3-2.48,0-4.5,2.02-4.5,4.5s2.02,4.5,4.5,4.5c1.95,0,3.6-1.26,4.22-3h2.55c.62,1.74,2.27,3,4.22,3,2.48,0,4.5-2.02,4.5-4.5s-2.02-4.5-4.5-4.5Zm-11,6c-.83,0-1.5-.67-1.5-1.5s.67-1.5,1.5-1.5,1.5.67,1.5,1.5-.67,1.5-1.5,1.5Zm11,0c-.83,0-1.5-.67-1.5-1.5s.67-1.5,1.5-1.5,1.5.67,1.5,1.5-.67,1.5-1.5,1.5Z"/><path d="m21.5,8h-.5v-1.5c0-3.03-2.47-5.5-5.5-5.5h-7c-3.03,0-5.5,2.47-5.5,5.5v1.5h-.5c-.83,0-1.5.67-1.5,1.5s.67,1.5,1.5,1.5h19c.83,0,1.5-.67,1.5-1.5s-.67-1.5-1.5-1.5Zm-15.5,0v-1.5c0-1.38,1.12-2.5,2.5-2.5h7c1.38,0,2.5,1.12,2.5,2.5v1.5H6Z"/></svg>