<svg xmlns="http://www.w3.org/2000/svg" width="24" height="24" viewBox="0 0 24 24"><path d="M22 5.5C22 3.02 19.98 1 17.5 1h-11C4.02 1 2 3.02 2 5.5v13C2 20.98 4.02 23 6.5 23h11c2.48 0 4.5-2.02 4.5-4.5zm-3 13c0 .83-.67 1.5-1.5 1.5h-11c-.83 0-1.5-.67-1.5-1.5v-13C5 4.67 5.67 4 6.5 4h11c.83 0 1.5.67 1.5 1.5z"/><path d="M8.5 8a1.5 1.5 0 1 0 0 3 1.5 1.5 0 1 0 0-3M14.54 11.89a.746.746 0 0 0-1.21-.1l-1.97 2.3c-.19.22-.53.23-.73.03l-.54-.54a.755.755 0 0 0-1.11.05l-1.29 1.55a.5.5 0 0 0 .38.82h8.05a.5.5 0 0 0 .43-.76z"/></svg>