<svg xmlns="http://www.w3.org/2000/svg" width="24" height="24" viewBox="0 0 24 24"><path d="m20.34 4.98-7-3.49c-.84-.42-1.84-.42-2.68 0l-7 3.49A2.97 2.97 0 0 0 2 7.65c0 2.47.62 10.85 8.68 14.88.41.21.87.31 1.32.31s.91-.1 1.33-.31C21.39 18.5 22.01 10.12 22 7.65c0-1.14-.64-2.16-1.66-2.67m-8.32 14.87C5.68 16.68 5 10.27 5.01 7.67l7-3.49 7 3.49v-.01c0 2.61-.68 9.03-6.98 12.19Z"/><path d="M12 10.75c-.41 0-.75.34-.75.75v4.75c0 .41.34.75.75.75s.75-.34.75-.75V11.5c0-.41-.34-.75-.75-.75M12 7.25a.75.75 0 1 0 0 1.5.75.75 0 1 0 0-1.5"/></svg>