<svg xmlns="http://www.w3.org/2000/svg" viewBox="0 0 24 24" width="24" height="24"><path d="m10.59,9.21c.39.39.9.58,1.41.58s1.02-.2,1.41-.58l2-2c.38-.38.59-.88.59-1.41v-2.79c0-1.1-.9-2-2-2h-4c-1.1,0-2,.9-2,2v2.79c0,.53.21,1.04.59,1.41l2,2Zm.41-5.21h2v1.38l-1,1-1-1v-1.38Z"/><path d="m13.41,14.79c-.78-.78-2.05-.78-2.83,0l-2,2c-.38.38-.59.88-.59,1.41v2.79c0,1.1.9,2,2,2h4c1.1,0,2-.9,2-2v-2.79c0-.53-.21-1.04-.59-1.41l-2-2Zm-.41,5.21h-2v-1.38l1-1,1,1v1.38Z"/><path d="m21,8h-2.79c-.53,0-1.04.21-1.41.59l-2,2c-.78.78-.78,2.05,0,2.83l2,2c.37.37.89.59,1.41.59h2.79c1.1,0,2-.9,2-2v-4c0-1.1-.9-2-2-2Zm-1,5h-1.38l-1-1,1-1h1.38v2Z"/><path d="m9.21,10.59l-2-2c-.37-.37-.89-.59-1.41-.59h-2.79c-1.1,0-2,.9-2,2v4c0,1.1.9,2,2,2h2.79c.53,0,1.04-.21,1.41-.59l2-2c.78-.78.78-2.05,0-2.83Zm-3.83,2.41h-1.38v-2h1.38l1,1-1,1Z"/></svg>