<svg xmlns="http://www.w3.org/2000/svg" width="24" height="24" viewBox="0 0 24 24"><path d="m7.61 10.26-2.3 1.53c-.15.1-.15.32 0 .42l2.3 1.53c.17.11.39 0 .39-.21v-3.07c0-.2-.22-.32-.39-.21ZM16.39 10.26c-.17-.11-.39 0-.39.21v3.07c0 .2.22.32.39.21l2.3-1.53c.15-.1.15-.32 0-.42l-2.3-1.53ZM12.21 5.31a.252.252 0 0 0-.42 0l-1.53 2.3c-.11.17 0 .39.21.39h3.07c.2 0 .32-.22.21-.39l-1.53-2.3ZM13.53 16h-3.07c-.2 0-.32.22-.21.39l1.53 2.3c.1.15.32.15.42 0l1.53-2.3c.11-.17 0-.39-.21-.39ZM12 10.5a1.5 1.5 0 1 0 0 3 1.5 1.5 0 1 0 0-3"/><path d="M19.5 6H18V4.5C18 2.57 16.43 1 14.5 1h-5C7.57 1 6 2.57 6 4.5V6H4.5C2.57 6 1 7.57 1 9.5v5C1 16.43 2.57 18 4.5 18H6v1.5C6 21.43 7.57 23 9.5 23h5c1.93 0 3.5-1.57 3.5-3.5V18h1.5c1.93 0 3.5-1.57 3.5-3.5v-5C23 7.57 21.43 6 19.5 6m.5 8.5c0 .28-.22.5-.5.5h-2a2.5 2.5 0 0 0-2.5 2.5v2c0 .28-.22.5-.5.5h-5c-.28 0-.5-.22-.5-.5v-2A2.5 2.5 0 0 0 6.5 15h-2c-.28 0-.5-.22-.5-.5v-5c0-.28.22-.5.5-.5h2A2.5 2.5 0 0 0 9 6.5v-2c0-.28.22-.5.5-.5h5c.28 0 .5.22.5.5v2A2.5 2.5 0 0 0 17.5 9h2c.28 0 .5.22.5.5z"/></svg>