<svg xmlns="http://www.w3.org/2000/svg" width="24" height="24" viewBox="0 0 24 24"><path d="M10.76 22.6a2.98 2.98 0 0 0 2.48 0c2.05-.94 8.76-4.56 8.76-11.66C22 5.46 17.51 1 12 1S2 5.46 2 10.94c0 7.09 6.7 10.71 8.76 11.66M12 4c3.86 0 7 3.12 7 6.94 0 5.31-5.36 8.18-6.99 8.93C10.37 19.12 5 16.25 5 10.94 5 7.11 8.14 4 12 4"/><path d="M12 14.75c2.07 0 3.75-1.68 3.75-3.75S14.07 7.25 12 7.25 8.25 8.93 8.25 11s1.68 3.75 3.75 3.75m0-6c1.24 0 2.25 1.01 2.25 2.25s-1.01 2.25-2.25 2.25S9.75 12.24 9.75 11 10.76 8.75 12 8.75"/></svg>