<svg xmlns="http://www.w3.org/2000/svg" width="24" height="24" viewBox="0 0 24 24"><path d="M11.25 1.5V4c0 .41.34.75.75.75s.75-.34.75-.75V1.5c0-.41-.34-.75-.75-.75s-.75.34-.75.75M3.17 6.38c-.34-.23-.81-.14-1.04.21s-.14.81.21 1.04l1.5 1a.751.751 0 0 0 1.04-.2c.23-.34.14-.81-.21-1.04l-1.5-1ZM6.08 2.63c-.34.23-.44.7-.21 1.04l1 1.5c.14.22.38.33.62.33a.755.755 0 0 0 .63-1.17l-1-1.5a.755.755 0 0 0-1.04-.21ZM20.83 6.38l-1.5 1c-.34.23-.44.7-.21 1.04.14.22.38.33.62.33.14 0 .29-.04.42-.13l1.5-1c.34-.23.44-.7.21-1.04s-.7-.44-1.04-.21ZM16.88 2.83l-1 1.5c-.23.34-.14.81.21 1.04a.751.751 0 0 0 1.04-.2l1-1.5c.23-.34.14-.81-.21-1.04a.746.746 0 0 0-1.04.21ZM16.19 18.93c1.57-1.6 2.81-2.86 2.81-5.83C19 9.18 15.86 6 12 6s-7 3.19-7 7.1c0 2.96 1.22 4.21 2.77 5.78l.16.17c.18.18.31.54.41.95H7v3h10v-3h-1.34c.09-.41.23-.77.41-.95zm-2.14-2.1-.12.13c-.82.84-1.18 2.06-1.33 3.05h-1.21c-.15-.98-.5-2.21-1.32-3.05l-.16-.17C8.48 15.34 8 14.85 8 13.11c0-2.26 1.79-4.1 4-4.1s4 1.84 4 4.1c0 1.74-.53 2.28-1.95 3.72"/></svg>