<svg xmlns="http://www.w3.org/2000/svg" viewBox="0 0 24 24" width="24" height="24"><path d="m22.01,1.59c-.55-.22-1.17-.08-1.6.32-.18.17-1.81,1.61-4.61.21-2.25-1.13-6.16-1.81-9.77,0C1.27,4.5-.41,10.48,2.21,15.73c.38.76.83,1.43,1.33,2.03-.25,1.13-.43,2.34-.5,3.64-.05.87.63,1.6,1.5,1.6h0c.79,0,1.45-.62,1.49-1.41.03-.59.09-1.14.16-1.68.59.3,1.21.53,1.87.69.73.17,1.46.25,2.17.25,2.68,0,5.12-1.06,6.32-1.95,1.97-1.48,3.6-2.88,5.2-6.37,1.53-3.33,1.22-9.37,1.21-9.62-.03-.58-.41-1.09-.96-1.3Zm-2.98,9.68c-1.32,2.87-2.49,3.89-4.28,5.22-.86.65-3.46,1.78-6,1.18-.68-.16-1.3-.45-1.85-.84.52-1.48,1.25-2.7,2.2-3.65,1.31-1.31,2.75-1.83,3.72-2.04.68-.15,1.16-.74,1.17-1.43.02-.96-.87-1.7-1.81-1.49-1.4.31-3.37,1.05-5.15,2.79-.91.89-1.66,1.94-2.26,3.14-1.5-3.26-.96-7.56,2.6-9.34,1.16-.58,2.37-.81,3.49-.81,1.4,0,2.68.35,3.59.81,2.27,1.14,4.15,1.07,5.52.67-.06,1.93-.29,4.35-.95,5.8Z"/></svg>