<svg xmlns="http://www.w3.org/2000/svg" viewBox="0 0 24 24" width="24" height="24"><path d="m18.38,9.62c-.06-.46-.44-.82-.9-.86-.03,0-.26-.02-.62,0,.64-2.04-.2-3.95-.24-4.04-.2-.44-.68-.67-1.15-.55-.06.01-.87.23-1.76.81-.03-.17-.05-.34-.1-.52-.73-2.44-3.06-3.35-3.16-3.39-.45-.17-.96,0-1.21.42-.06.09-1.38,2.33-.67,4.73.55,1.85,2.02,2.82,2.74,3.19.02,1.3.46,2.3.49,2.36.06.13.16.24.26.33-.49,1.38-.34,2.66-.33,2.74,0,0,0,.01,0,.02-.97.91-1.4,2.08-1.57,2.68-.14,0-.27-.03-.41-.03-2.47.06-3.94,2.17-4,2.26-.25.37-.23.86.06,1.21.07.08,1.72,2.03,4.1,2.03.04,0,.07,0,.11,0,2.47-.06,3.94-2.17,4-2.26.25-.37.23-.86-.06-1.21,0,0-.04-.05-.1-.11.47-.08.94-.22,1.42-.47,2.18-1.16,2.64-3.71,2.66-3.81.08-.45-.16-.89-.57-1.08-.02,0-.12-.05-.26-.1,1.58-1.8,1.27-4.24,1.26-4.35Z"/></svg>