<svg xmlns="http://www.w3.org/2000/svg" viewBox="0 0 24 24" width="24" height="24"><path d="m21.66,9c0-.97-.55-1.84-1.43-2.26l-6.3-2.99c-1.23-.59-2.64-.59-3.85,0l-6.31,2.99c-.88.42-1.43,1.28-1.43,2.26s.55,1.84,1.43,2.26l1.57.74-1.57.74c-.88.42-1.43,1.28-1.43,2.26s.55,1.84,1.43,2.26l6.3,2.99c.62.3,1.28.44,1.93.44s1.31-.15,1.92-.44l6.31-2.99h0c.88-.42,1.43-1.28,1.43-2.26s-.55-1.84-1.43-2.26l-1.57-.74,1.57-.74c.88-.42,1.43-1.28,1.43-2.26Zm-10.29-2.54c.4-.19.86-.19,1.27,0l5.35,2.53-5.36,2.54c-.4.19-.86.19-1.27,0l-5.35-2.53,5.36-2.54Zm3.79,7.2l2.83,1.34-5.36,2.54c-.4.19-.86.19-1.27,0l-5.35-2.53,2.83-1.34,1.23.58c.62.3,1.28.44,1.93.44s1.31-.15,1.92-.44l1.24-.58Z"/></svg>