<svg xmlns="http://www.w3.org/2000/svg" viewBox="0 0 24 24" width="24" height="24"><path class="b" d="m19,2h-3c-1.65,0-3,1.35-3,3v3c0,1.65,1.35,3,3,3h3c1.65,0,3-1.35,3-3v-3c0-1.65-1.35-3-3-3Zm-3,6v-3h3v3s-3,0-3,0Z"/><path class="b" d="m19.44,14.14c-1.42-1.42-3.89-1.42-5.3,0-.71.71-1.1,1.65-1.1,2.65s.39,1.94,1.1,2.65c.71.71,1.65,1.1,2.65,1.1.75,0,1.46-.22,2.07-.62l1.82,1.82c.15.15.34.22.53.22s.38-.07.53-.22c.29-.29.29-.77,0-1.06l-1.82-1.82c.4-.61.62-1.32.62-2.07,0-1-.39-1.94-1.1-2.65Zm-4.24,4.24c-.42-.42-.66-.99-.66-1.59s.23-1.17.66-1.59c.43-.42.99-.66,1.59-.66s1.17.23,1.59.66.66.99.66,1.59-.23,1.17-.66,1.59c-.85.85-2.33.85-3.18,0Z"/><path class="b" d="m8,2h-3c-1.65,0-3,1.35-3,3v14c0,1.65,1.35,3,3,3h3c1.65,0,3-1.35,3-3V5c0-1.65-1.35-3-3-3Zm-3,17V5h3v14s-3,0-3,0Z"/></svg>