<svg xmlns="http://www.w3.org/2000/svg" viewBox="0 0 24 24" width="24" height="24"><path d="m20.17,1.15c-3.17-.32-11.03-.57-15.66,4.06-1.11,1.11-2.02,2.5-2.7,4.12-1.58,3.76-.77,7.89,2.1,10.76,1.9,1.9,4.35,2.9,6.88,2.9,1.29,0,2.61-.26,3.88-.8,1.62-.68,3-1.59,4.12-2.7,4.62-4.62,4.38-12.49,4.06-15.66-.14-1.41-1.27-2.53-2.68-2.67Zm-3.5,16.21c-.84.84-1.9,1.53-3.16,2.06-2.06.86-3.97.63-5.48-.07.02-.17.04-.35.07-.51.6-3.88,2.79-7.42,5.9-9.84-3.75,1.51-6.91,4.38-8.8,7.96-1.1-1.62-1.69-3.93-.63-6.47.53-1.26,1.22-2.32,2.06-3.16,2.77-2.77,7.23-3.34,10.45-3.34,1.11,0,2.08.07,2.78.14.28,2.74.52,9.52-3.19,13.24Z"/></svg>