<svg xmlns="http://www.w3.org/2000/svg" width="24" height="24" viewBox="0 0 24 24"><path d="M8.51 22c6.22 0 10.48-2.81 11.33-7.29.17-.89-.51-1.71-1.41-1.71h-.13c-.71 0-1.27.52-1.42 1.22-.63 3.03-3.67 4.4-6.88 4.71v-5.88l4.97-1.24c.77-.19 1.23-.97 1.04-1.74l-.03-.13c-.19-.77-.97-1.23-1.74-1.04L9.99 9.96V8.05l4.97-1.24c.77-.19 1.23-.97 1.04-1.74l-.03-.13c-.19-.77-.97-1.23-1.74-1.04L9.98 4.96V3.44c0-.79-.64-1.43-1.43-1.43h-.13c-.79 0-1.43.64-1.43 1.43v2.27l-1.97.49c-.77.19-1.23.97-1.04 1.74l.03.13c.19.77.97 1.23 1.74 1.04L7 8.8v1.91l-1.97.49c-.77.19-1.23.97-1.04 1.74l.03.13c.19.77.97 1.23 1.74 1.04l1.25-.31v6.7c0 .83.68 1.5 1.51 1.5Z"/></svg>