<svg xmlns="http://www.w3.org/2000/svg" width="24" height="24" viewBox="0 0 24 24"><path d="M6.5 22h11c2.48 0 4.5-2.02 4.5-4.5v-11C22 4.02 19.98 2 17.5 2h-11C4.02 2 2 4.02 2 6.5v11C2 19.98 4.02 22 6.5 22M5 6.5C5 5.67 5.67 5 6.5 5h11c.83 0 1.5.67 1.5 1.5v11c0 .83-.67 1.5-1.5 1.5h-11c-.83 0-1.5-.67-1.5-1.5z"/><path d="M8 15c.35.22.81.11 1.03-.24l1.69-2.71 2.36 1.57c.17.11.38.15.57.11.2-.04.37-.16.48-.34l2.1-3.36a.747.747 0 1 0-1.27-.79l-1.69 2.71-2.36-1.57a.76.76 0 0 0-.57-.11c-.2.04-.37.16-.48.34l-2.1 3.36c-.22.35-.11.81.24 1.03"/></svg>