<svg xmlns="http://www.w3.org/2000/svg" width="24" height="24" viewBox="0 0 24 24"><path d="m7.46 15.6.23.23c.27.26.43.72.53 1.19a1.493 1.493 0 0 0 .01 2.94v.03h7.529999999999999v-.02a1.494 1.494 0 0 0 .02-2.94c.1-.47.26-.93.53-1.19l.19-.19c1.8-1.78 3.51-3.45 3.51-6.75 0-4.36-3.59-7.9-8-7.9s-8 3.54-8 7.9c0 3.3 1.6 4.88 3.46 6.71ZM12 4c2.76 0 5 2.2 5 4.9 0 2.04-.93 2.95-2.61 4.61l-.19.19c-.95.94-1.32 2.26-1.46 3.3h-1.47c-.14-1.04-.51-2.37-1.46-3.3l-.24-.23C7.86 11.79 7 10.94 7 8.9 7 6.2 9.24 4 12 4M14.25 23c.41 0 .75-.34.75-.75s-.34-.75-.75-.75h-4.5c-.41 0-.75.34-.75.75s.34.75.75.75z"/></svg>