<svg xmlns="http://www.w3.org/2000/svg" width="24" height="24" viewBox="0 0 24 24"><path d="M12 1C5.93 1 1 5.93 1 12s4.93 11 11 11 11-4.93 11-11S18.07 1 12 1m0 19c-4.41 0-8-3.59-8-8s3.59-8 8-8 8 3.59 8 8-3.59 8-8 8"/><path d="M15.9 14H8.11c-.56 0-.93.58-.67 1.08.6 1.18 1.94 2.92 4.57 2.92s3.97-1.74 4.57-2.92c.25-.49-.12-1.08-.67-1.08ZM17.65 7.57a.777.777 0 0 0-1.08-.22l-3 2c-.22.14-.35.39-.35.65s.13.5.35.65l3 2c.13.09.28.13.43.13.25 0 .5-.12.65-.35.24-.36.14-.84-.22-1.08L15.4 10l2.03-1.35c.36-.24.46-.72.22-1.08M10.43 10.65c.22-.14.35-.39.35-.65s-.13-.5-.35-.65l-3-2a.777.777 0 0 0-1.08.22c-.24.36-.14.84.22 1.08L8.6 10l-2.03 1.35c-.36.24-.46.72-.22 1.08.15.23.4.35.65.35.15 0 .3-.04.43-.13z"/></svg>