<svg xmlns="http://www.w3.org/2000/svg" width="24" height="24" viewBox="0 0 24 24"><path d="M22 10.5c.83 0 1.5-.67 1.5-1.5s-.67-1.5-1.5-1.5h-3v-1c0-.83-.67-1.5-1.5-1.5S16 5.67 16 6.5v1h-1.5c-.83 0-1.5.67-1.5 1.5s.67 1.5 1.5 1.5H16V14c0 2.48 2.02 4.5 4.5 4.5H22c.83 0 1.5-.67 1.5-1.5s-.67-1.5-1.5-1.5h-1.5c-.83 0-1.5-.67-1.5-1.5v-3.5zM3.5 10.5V14c0 2.48 2.02 4.5 4.5 4.5h1.5c.83 0 1.5-.67 1.5-1.5s-.67-1.5-1.5-1.5H8c-.83 0-1.5-.67-1.5-1.5v-3.5h3c.83 0 1.5-.67 1.5-1.5s-.67-1.5-1.5-1.5h-3v-1C6.5 5.67 5.83 5 5 5s-1.5.67-1.5 1.5v1H2C1.17 7.5.5 8.17.5 9s.67 1.5 1.5 1.5z"/></svg>