<svg xmlns="http://www.w3.org/2000/svg" viewBox="0 0 24 24" width="24" height="24"><path d="m10.09,21.92c.55.45,1.23.68,1.91.68s1.35-.23,1.91-.68c2.14-1.76,7.12-6.46,7.09-12.03,0-4.9-4.04-8.89-9-8.89S3,4.99,3,9.88c-.03,5.58,4.95,10.28,7.09,12.04Zm1.91-17.92c3.31,0,6,2.64,6,5.89h0c.02,4.3-4.19,8.23-6,9.71-1.81-1.49-6.02-5.41-6-9.71,0-3.25,2.69-5.89,6-5.89Z"/><path d="m11.25,13.25c0,.41.34.75.75.75s.75-.34.75-.75v-2.5h2.5c.41,0,.75-.34.75-.75s-.34-.75-.75-.75h-2.5v-2.5c0-.41-.34-.75-.75-.75s-.75.34-.75.75v2.5h-2.5c-.41,0-.75.34-.75.75s.34.75.75.75h2.5v2.5Z"/></svg>