<svg xmlns="http://www.w3.org/2000/svg" viewBox="0 0 24 24" width="24" height="24"><path d="m12,1C7.04,1,3,4.99,3,9.88c-.03,5.58,4.95,10.28,7.09,12.04.55.45,1.23.68,1.91.68s1.35-.23,1.91-.68c2.14-1.76,7.12-6.46,7.09-12.03,0-4.9-4.04-8.89-9-8.89Zm6,8.9c.02,4.29-4.19,8.22-6,9.71-1.81-1.49-6.02-5.41-6-9.71,0-3.25,2.69-5.89,6-5.89s6,2.64,6,5.89h0Z"/><path d="m14.94,8l-3.94,3.94-1.94-1.94c-.29-.29-.77-.29-1.06,0-.29.29-.29.77,0,1.06l2.47,2.47c.15.15.34.22.53.22s.38-.07.53-.22l4.47-4.47c.29-.29.29-.77,0-1.06-.29-.29-.77-.29-1.06,0Z"/></svg>