<svg xmlns="http://www.w3.org/2000/svg" viewBox="0 0 24 24" width="24" height="24"><path d="M8 11A1 1 0 1 0 8 13 1 1 0 1 0 8 11z"/><path d="M12 11A1 1 0 1 0 12 13 1 1 0 1 0 12 11z"/><path d="M16 11A1 1 0 1 0 16 13 1 1 0 1 0 16 11z"/><path d="m19.34,3.8c-2.33-2.08-5.45-3.08-8.58-2.74C5.76,1.62,1.7,5.64,1.08,10.62c-.33,2.69.32,5.37,1.84,7.58l-1.13,1.67c-.42.61-.46,1.4-.11,2.06s1.02,1.06,1.77,1.06h8.56c6.07,0,11-4.93,11-11,0-3.12-1.33-6.11-3.66-8.2Zm-7.34,16.2h-6.67l.28-.42c.58-.86.55-2.01-.07-2.87-1.21-1.65-1.73-3.68-1.48-5.73.44-3.62,3.4-6.54,7.02-6.94,2.31-.26,4.53.45,6.25,1.99,1.69,1.52,2.66,3.69,2.66,5.96,0,4.41-3.59,8-8,8Z"/></svg>