<svg xmlns="http://www.w3.org/2000/svg" viewBox="0 0 24 24" width="24" height="24"><path d="m18.5,2H5.5C3.02,2,1,4.02,1,6.5v9c0,1.95,1.26,3.6,3,4.22v.78c0,.83.67,1.5,1.5,1.5s1.5-.67,1.5-1.5v-.5h10v.5c0,.83.67,1.5,1.5,1.5s1.5-.67,1.5-1.5v-.78c1.74-.62,3-2.27,3-4.22V6.5c0-2.48-2.02-4.5-4.5-4.5Zm1.5,13.5c0,.83-.67,1.5-1.5,1.5H5.5c-.83,0-1.5-.67-1.5-1.5V6.5c0-.83.67-1.5,1.5-1.5h13c.83,0,1.5.67,1.5,1.5v9Z"/><path d="m12.25,6.75h-4.5c-1.1,0-2,.9-2,2v4.5c0,1.1.9,2,2,2h4.5c1.1,0,2-.9,2-2v-4.5c0-1.1-.9-2-2-2Zm-4.5,6.5v-4.5h4.5v4.5s-4.5,0-4.5,0Z"/><path d="M17 8A1 1 0 1 0 17 10 1 1 0 1 0 17 8z"/><path d="M17 12A1 1 0 1 0 17 14 1 1 0 1 0 17 12z"/></svg>