<svg xmlns="http://www.w3.org/2000/svg" viewBox="0 0 24 24" width="24" height="24"><path d="m21.5,2c-.83,0-1.5.67-1.5,1.5,0,3.9-2.8,7.15-6.5,7.85v-1.55c2.72-.7,4.75-3.26,4.75-6.3,0-.83-.67-1.5-1.5-1.5s-1.5.67-1.5,1.5c0,1.34-.72,2.5-1.75,3.09v-3.09c0-.83-.67-1.5-1.5-1.5s-1.5.67-1.5,1.5v3.09c-1.03-.59-1.75-1.74-1.75-3.09,0-.83-.67-1.5-1.5-1.5s-1.5.67-1.5,1.5c0,3.05,2.03,5.6,4.75,6.3v1.55c-3.7-.7-6.5-3.96-6.5-7.85,0-.83-.67-1.5-1.5-1.5s-1.5.67-1.5,1.5c0,5.56,4.14,10.15,9.5,10.89v4.61h-3c-.83,0-1.5.67-1.5,1.5s.67,1.5,1.5,1.5h9c.83,0,1.5-.67,1.5-1.5s-.67-1.5-1.5-1.5h-3v-4.61c5.36-.74,9.5-5.33,9.5-10.89,0-.83-.67-1.5-1.5-1.5Z"/></svg>