<svg xmlns="http://www.w3.org/2000/svg" width="24" height="24" viewBox="0 0 24 24"><path d="M12 20c3.86 0 7-3.14 7-7V8c0-3.86-3.14-7-7-7S5 4.14 5 8v5c0 3.86 3.14 7 7 7m0-16c2.03 0 3.7 1.53 3.95 3.5h-1.2c-.41 0-.75.34-.75.75s.34.75.75.75H16v2.5h-1.25c-.41 0-.75.34-.75.75s.34.75.75.75H16c0 2.21-1.79 4-4 4s-4-1.79-4-4h3.25c.41 0 .75-.34.75-.75s-.34-.75-.75-.75H8V9h3.25c.41 0 .75-.34.75-.75s-.34-.75-.75-.75h-3.2C8.3 5.53 9.97 4 12 4"/><path d="M21.25 12.25c-.41 0-.75.34-.75.75 0 4.69-3.81 8.5-8.5 8.5S3.5 17.69 3.5 13c0-.41-.34-.75-.75-.75S2 12.59 2 13c0 5.51 4.49 10 10 10s10-4.49 10-10c0-.41-.34-.75-.75-.75"/></svg>