<svg xmlns="http://www.w3.org/2000/svg" viewBox="0 0 24 24" width="24" height="24"><path d="m22.14,2.58c-.54-.37-1.22-.46-1.84-.24L7.73,7h-2.73c-2.21,0-4,1.79-4,4v2c0,2.21,1.79,4,4,4h2.73l1.22.45-.3,1.04c-.32,1.11.25,2.28,1.33,2.71l2.2.88c.27.11.55.16.83.16.34,0,.68-.08.99-.23.57-.28,1-.79,1.17-1.4l.22-.77,4.91,1.82c.22.08.46.12.69.12.4,0,.81-.12,1.15-.36.54-.37.86-.99.86-1.64V4.22c0-.65-.32-1.27-.86-1.64ZM4,13v-2c0-.55.45-1,1-1h2.5v4h-2.5c-.55,0-1-.45-1-1Zm9.74,7.2c-.06.21-.2.37-.39.47-.19.09-.41.1-.61.02l-2.2-.88c-.36-.14-.55-.53-.44-.9l.27-.93,3.63,1.34-.25.88Zm6.26-1.85l-11-4.07v-4.54l11-4.07v12.69Z"/></svg>