<svg xmlns="http://www.w3.org/2000/svg" width="24" height="24" viewBox="0 0 24 24"><path d="M18.5 2h-13C3.02 2 1 4.02 1 6.5v9C1 17.98 3.02 20 5.5 20H6v1.95a2 2 0 0 0 1.14 1.81c.28.13.57.2.86.2.45 0 .89-.15 1.26-.45l4.27-3.49h4.96c2.48 0 4.5-2.02 4.5-4.5V6.5c0-2.48-2.02-4.5-4.5-4.5ZM20 15.5c0 .83-.67 1.5-1.5 1.5H13c-.35 0-.68.12-.95.34L9 19.84v-1.33c0-.83-.67-1.5-1.5-1.5h-2c-.83 0-1.5-.67-1.5-1.5V6.5C4 5.67 4.67 5 5.5 5h13c.83 0 1.5.67 1.5 1.5z"/><path d="M12 14.25a.75.75 0 1 0 0 1.5.75.75 0 1 0 0-1.5M14.99 8.24c-.08-.2-.18-.38-.3-.55s-.25-.33-.4-.48-.31-.28-.48-.4-.36-.22-.55-.3a3.212 3.212 0 0 0-2.53 0c-.19.08-.38.18-.55.3s-.33.25-.48.4-.28.31-.4.48-.22.36-.3.55-.15.4-.19.61a.75.75 0 1 0 1.47.29c.02-.11.06-.22.1-.33s.1-.2.16-.3c.06-.09.13-.18.21-.26s.17-.15.26-.21.19-.12.3-.16c.1-.04.21-.08.33-.1.23-.05.48-.05.71 0 .11.02.22.06.33.1s.21.1.3.16.18.13.26.21.15.17.21.26.12.19.16.3c.04.1.08.21.1.33s.04.23.04.35-.01.24-.04.35c-.02.11-.06.22-.1.33s-.1.2-.16.3c-.06.09-.13.18-.21.26s-.17.15-.26.21-.19.12-.3.16c-.1.04-.21.08-.33.1s-.23.04-.35.04c-.41 0-.75.34-.75.75v.5c0 .41.34.75.75.75.36 0 .66-.25.73-.58.18-.04.36-.1.54-.17.19-.08.38-.18.55-.3s.33-.25.48-.4.28-.31.4-.48.22-.36.3-.55.15-.4.19-.61.07-.43.07-.65-.02-.44-.07-.65a3 3 0 0 0-.19-.61Z"/></svg>