<svg xmlns="http://www.w3.org/2000/svg" width="24" height="24" viewBox="0 0 24 24"><path d="M5.5 20H6v1.95a2 2 0 0 0 1.14 1.81c.28.13.57.2.86.2.45 0 .89-.15 1.26-.45l4.27-3.49h4.96c2.48 0 4.5-2.02 4.5-4.5V6.5c0-2.48-2.02-4.5-4.5-4.5H5.5C3.02 2 1 4.02 1 6.5v9C1 17.98 3.02 20 5.5 20M4 6.5C4 5.67 4.67 5 5.5 5h13c.83 0 1.5.67 1.5 1.5v9c0 .83-.67 1.5-1.5 1.5H13c-.35 0-.68.12-.95.34L9 19.84v-1.33c0-.83-.67-1.5-1.5-1.5h-2c-.83 0-1.5-.67-1.5-1.5z"/><path d="M9.22 14.03c.15.15.34.22.53.22s.38-.07.53-.22c.29-.29.29-.77 0-1.06L8.31 11l1.97-1.97c.29-.29.29-.77 0-1.06s-.77-.29-1.06 0l-2.5 2.5c-.29.29-.29.77 0 1.06zM13.72 14.03c.15.15.34.22.53.22s.38-.07.53-.22l2.5-2.5c.29-.29.29-.77 0-1.06l-2.5-2.5c-.29-.29-.77-.29-1.06 0s-.29.77 0 1.06L15.69 11l-1.97 1.97c-.29.29-.29.77 0 1.06"/></svg>