<svg xmlns="http://www.w3.org/2000/svg" viewBox="0 0 24 24" width="24" height="24"><path d="m12,2C5.93,2,1,6.04,1,11c0,2.7,1.48,5.24,4,6.94v2.92c0,.79.47,1.51,1.2,1.83.26.11.53.17.8.17.49,0,.98-.18,1.36-.53l2.58-2.38c.37.03.72.05,1.07.05,6.07,0,11-4.04,11-9S18.07,2,12,2Zm0,15c-.43,0-.88-.03-1.38-.1-.44-.06-.89.08-1.21.38l-1.4,1.29v-1.47c0-.54-.29-1.04-.77-1.31-2.03-1.14-3.23-2.93-3.23-4.8,0-3.31,3.59-6,8-6s8,2.69,8,6-3.59,6-8,6Z"/><path d="M8.5 7A1.5 1.5 0 1 0 8.5 10 1.5 1.5 0 1 0 8.5 7z"/><path d="m14.54,9.89c-.26-.44-.88-.49-1.21-.1l-1.97,2.3c-.19.22-.53.23-.73.03l-.54-.54c-.31-.31-.82-.29-1.11.05l-1.29,1.55c-.27.33-.04.82.38.82h8.05c.39,0,.63-.42.43-.76l-2.01-3.35Z"/></svg>