<svg xmlns="http://www.w3.org/2000/svg" viewBox="0 0 24 24" width="24" height="24"><path d="m17.5,1H6.5c-2.48,0-4.5,2.02-4.5,4.5v13c0,2.48,2.02,4.5,4.5,4.5h11c2.48,0,4.5-2.02,4.5-4.5V5.5c0-2.48-2.02-4.5-4.5-4.5Zm1.5,17.5c0,.83-.67,1.5-1.5,1.5H6.5c-.83,0-1.5-.67-1.5-1.5v-1.44l2.47-2.47c.28-.28.78-.28,1.06,0l.41.41c.58.58,1.54.58,2.12,0l4.41-4.41c.28-.28.78-.28,1.06,0l2.47,2.47v5.44Zm0-7.56l-1.41-1.41c-.85-.85-2.33-.85-3.18,0l-4.41,4.41-.41-.41c-.85-.85-2.33-.85-3.18,0l-1.41,1.41V5.5c0-.83.67-1.5,1.5-1.5h11c.83,0,1.5.67,1.5,1.5v5.44Z"/><path d="M8.5 7A1.5 1.5 0 1 0 8.5 10 1.5 1.5 0 1 0 8.5 7z"/></svg>