<svg xmlns="http://www.w3.org/2000/svg" width="24" height="24" viewBox="0 0 24 24"><path d="m20.88 4.74-10-3.08c-.92-.28-1.89-.12-2.66.45A2.98 2.98 0 0 0 7 4.52v5.75a4.4 4.4 0 0 0-1.5-.28c-2.48 0-4.5 2.02-4.5 4.5s2.02 4.5 4.5 4.5 4.5-2.02 4.5-4.5c0-.17-.03-.33-.05-.5H10V4.53l10 3.08v6.67a4.4 4.4 0 0 0-1.5-.28c-2.48 0-4.5 2.02-4.5 4.5s2.02 4.5 4.5 4.5 4.5-2.02 4.5-4.5c0-.17-.03-.33-.05-.5H23V7.61c0-1.33-.85-2.48-2.12-2.87M5.5 16c-.83 0-1.5-.67-1.5-1.5S4.67 13 5.5 13s1.5.67 1.5 1.5S6.33 16 5.5 16m13 4c-.83 0-1.5-.67-1.5-1.5s.67-1.5 1.5-1.5 1.5.67 1.5 1.5-.67 1.5-1.5 1.5"/></svg>