<svg xmlns="http://www.w3.org/2000/svg" viewBox="0 0 24 24" width="24" height="24"><path d="m22.92,10.62c-.61-4.99-4.68-9-9.67-9.55h0c-3.13-.35-6.26.65-8.58,2.74-2.33,2.09-3.66,5.07-3.66,8.2,0,6.07,4.93,11,11,11h8.56c.74,0,1.42-.41,1.77-1.06.35-.66.3-1.45-.11-2.06l-1.13-1.67c1.52-2.21,2.17-4.89,1.84-7.58Zm-4.53,8.96l.28.42h-6.67c-4.41,0-8-3.59-8-8,0-2.27.97-4.44,2.66-5.96,1.49-1.33,3.35-2.04,5.33-2.04.31,0,.61.02.92.05,3.63.4,6.58,3.32,7.02,6.94.25,2.05-.27,4.08-1.48,5.73-.63.86-.65,2.01-.07,2.87Z"/></svg>