<svg xmlns="http://www.w3.org/2000/svg" viewBox="0 0 24 24" width="24" height="24"><path class="b" d="m17.5,2H6.5c-2.48,0-4.5,2.02-4.5,4.5v11c0,2.48,2.02,4.5,4.5,4.5h11c2.48,0,4.5-2.02,4.5-4.5V6.5c0-2.48-2.02-4.5-4.5-4.5Zm-4.3,12.05c-.34-.09-.67-.18-1-.28-.71-.2-1.43-.4-2.26-.58.09-.34.18-.67.28-1,.2-.71.4-1.43.58-2.26.34.09.67.18,1,.28.71.2,1.43.4,2.26.58-.09.34-.18.67-.28,1-.2.71-.4,1.43-.58,2.26Zm1.55-9.05c0,1.88-.15,3.21-.36,4.34-.79-.16-1.48-.36-2.18-.56-.38-.11-.76-.22-1.16-.32.12-.96.2-2.08.2-3.46h3.5Zm-9.75,1.5c0-.83.67-1.5,1.5-1.5h3.25c0,1.25-.06,2.26-.17,3.13-1.19-.22-2.62-.38-4.58-.38v-1.25Zm0,2.75c1.88,0,3.21.15,4.34.36-.16.79-.36,1.48-.56,2.18-.11.38-.22.76-.32,1.16-.96-.12-2.08-.2-3.46-.2v-3.5Zm1.5,9.75c-.83,0-1.5-.67-1.5-1.5v-3.25c1.25,0,2.26.06,3.13.17-.22,1.19-.38,2.62-.38,4.58h-1.25Zm2.75,0c0-1.88.15-3.21.36-4.34.79.16,1.48.36,2.18.56.38.11.76.21,1.16.32-.12.96-.2,2.08-.2,3.46h-3.5Zm9.75-1.5c0,.83-.67,1.5-1.5,1.5h-3.25c0-1.25.06-2.26.17-3.13,1.19.22,2.62.38,4.58.38v1.25Zm0-2.75c-1.88,0-3.21-.15-4.34-.36.16-.79.36-1.48.56-2.18.11-.38.22-.76.32-1.16.96.12,2.08.2,3.46.2v3.5Zm0-5c-1.25,0-2.26-.06-3.13-.17.22-1.19.38-2.62.38-4.58h1.25c.83,0,1.5.67,1.5,1.5v3.25Z"/></svg>