<svg xmlns="http://www.w3.org/2000/svg" viewBox="0 0 24 24" width="24" height="24"><path d="m22.35,7.76l-2.35-1.6v-.66c0-1.38-1.12-2.5-2.5-2.5h-2.11l-1.69-1.16c-1-.69-2.39-.69-3.39,0l-1.7,1.16h-2.11c-1.38,0-2.5,1.12-2.5,2.5v.66l-2.35,1.6c-.41.28-.65.74-.65,1.24v9.5c0,2.48,2.02,4.5,4.5,4.5h13c2.48,0,4.5-2.02,4.5-4.5v-9.5c0-.5-.24-.96-.65-1.24Zm-15.35-1.76h10v4.75h.02l-4.61,3.07c-.25.17-.58.17-.83,0l-4.61-3.07h.02v-4.75Zm11.5,14H5.5c-.83,0-1.5-.67-1.5-1.5v-7.93l6.75,4.5c.38.25.81.38,1.25.38s.87-.13,1.25-.38l6.75-4.5v7.93c0,.83-.67,1.5-1.5,1.5Z"/></svg>