<svg xmlns="http://www.w3.org/2000/svg" viewBox="0 0 24 24" width="24" height="24"><path d="m15.35,9.14c-.87-.86-2.26-.86-3.12,0l-.22.22-.22-.22c-.87-.86-2.26-.86-3.12,0-.85.82-.87,2.16-.06,3.01.02.02.04.04.06.06l2.82,2.77c.29.29.76.29,1.05,0l2.82-2.77c.85-.82.87-2.16.06-3.01-.02-.02-.04-.04-.06-.06Z"/><path d="m19.34,3.8c-2.33-2.08-5.45-3.08-8.58-2.74h0C5.76,1.62,1.7,5.64,1.08,10.62c-.33,2.69.32,5.37,1.84,7.58l-1.13,1.67c-.42.61-.46,1.4-.11,2.06.35.66,1.02,1.06,1.77,1.06h8.56c6.07,0,11-4.93,11-11,0-3.12-1.33-6.11-3.66-8.2Zm-7.34,16.2h-6.67l.28-.42c.58-.86.55-2.01-.07-2.87-1.21-1.65-1.73-3.68-1.48-5.73.44-3.62,3.4-6.54,7.02-6.94,2.32-.25,4.54.45,6.25,1.99,1.69,1.52,2.66,3.69,2.66,5.96,0,4.41-3.59,8-8,8Z"/></svg>