<svg xmlns="http://www.w3.org/2000/svg" viewBox="0 0 24 24" width="24" height="24"><path d="m17.5,5H6.5c-2.48,0-4.5,2.02-4.5,4.5v9c0,2.48,2.02,4.5,4.5,4.5h11c2.48,0,4.5-2.02,4.5-4.5v-9c0-2.48-2.02-4.5-4.5-4.5Zm1.5,13.5c0,.83-.67,1.5-1.5,1.5H6.5c-.83,0-1.5-.67-1.5-1.5v-9c0-.83.67-1.5,1.5-1.5h11c.83,0,1.5.67,1.5,1.5v9Z"/><path d="m5.75,3h12.5c.41,0,.75-.34.75-.75s-.34-.75-.75-.75H5.75c-.41,0-.75.34-.75.75s.34.75.75.75Z"/><path d="m15,10.89l-3.5-.7c-.37-.08-.75.02-1.04.26-.29.24-.46.59-.46.97v2.68c-.16-.06-.32-.09-.5-.09-.83,0-1.5.67-1.5,1.5s.67,1.5,1.5,1.5,1.5-.67,1.5-1.5v-4.08c0-.1.06-.17.09-.19.03-.03.11-.07.21-.05l3.5.7c.12.02.2.13.2.25v2.98c-.16-.06-.32-.09-.5-.09-.83,0-1.5.67-1.5,1.5s.67,1.5,1.5,1.5,1.5-.67,1.5-1.5v-4.39c0-.59-.42-1.11-1-1.23Z"/></svg>