<svg xmlns="http://www.w3.org/2000/svg" width="24" height="24" viewBox="0 0 24 24"><path d="M17 12V6c0-2.76-2.24-5-5-5S7 3.24 7 6v6c0 2.76 2.24 5 5 5s5-2.24 5-5m-7 0v-.25h1.5c.41 0 .75-.34.75-.75s-.34-.75-.75-.75H10v-2.5h1.5c.41 0 .75-.34.75-.75s-.34-.75-.75-.75H10V6c0-1.1.9-2 2-2s2 .9 2 2v6c0 1.1-.9 2-2 2s-2-.9-2-2"/><path d="M20.25 10.5c-.41 0-.75.34-.75.75 0 4.14-3.36 7.5-7.5 7.5s-7.5-3.36-7.5-7.5c0-.41-.34-.75-.75-.75s-.75.34-.75.75c0 4.45 3.25 8.15 7.5 8.86v1.39c0 .83.67 1.5 1.5 1.5s1.5-.67 1.5-1.5v-1.39c4.25-.72 7.5-4.41 7.5-8.86 0-.41-.34-.75-.75-.75"/></svg>