<svg xmlns="http://www.w3.org/2000/svg" viewBox="0 0 24 24" width="24" height="24"><path d="m22.02,7.72c-.59-.22-1.26-.04-1.66.44,0,0-.69.73-2,.73-.29,0-.4-.07-.85-.49-.6-.56-1.51-1.4-3.24-1.4h0c-.81,0-1.59.23-2.27.65-.68-.42-1.46-.65-2.27-.65-1.73,0-2.64.84-3.24,1.4-.45.42-.55.49-.85.49-1.31,0-1.99-.72-2-.73-.41-.48-1.07-.66-1.66-.44-.59.22-.98.78-.98,1.41,0,2.25,1.08,4.44,2.98,6,1.79,1.48,4.04,2.14,6.03,1.76.62-.12,1.33-.3,1.99-.68.66.38,1.37.56,1.99.68.37.07.75.1,1.13.1,1.68,0,3.45-.66,4.9-1.87,1.89-1.57,2.98-3.75,2.98-6,0-.63-.39-1.19-.98-1.41Zm-3.9,5.1c-1.11.92-2.44,1.33-3.56,1.12-.74-.14-1.15-.32-1.34-.57-.28-.38-.73-.61-1.21-.61s-.92.23-1.21.61c-.19.26-.6.43-1.34.57-1.12.21-2.45-.21-3.56-1.12-.35-.29-.66-.62-.92-.97.22.02.44.04.68.04,1.49,0,2.33-.78,2.89-1.29.46-.42.65-.6,1.2-.6.42,0,.81.2,1.06.55.57.77,1.85.77,2.41,0,.26-.35.64-.55,1.06-.55h0c.55,0,.74.17,1.2.6.55.51,1.39,1.29,2.89,1.29.24,0,.46-.01.68-.04-.26.35-.57.68-.92.97Z"/></svg>