<svg xmlns="http://www.w3.org/2000/svg" viewBox="0 0 24 24" width="24" height="24"><path d="m12,7c-.41,0-.75.34-.75.75v3.5c0,.41.34.75.75.75s.75-.34.75-.75v-3.5c0-.41-.34-.75-.75-.75Z"/><path d="M12 13.25A.75.75 0 1 0 12 14.75.75.75 0 1 0 12 13.25z"/><path d="m12,2C5.93,2,1,6.04,1,11c0,2.7,1.48,5.24,4,6.94v2.92c0,.79.47,1.51,1.2,1.83.26.11.53.17.8.17.49,0,.98-.18,1.36-.53l2.58-2.38c.37.03.72.05,1.07.05,6.07,0,11-4.04,11-9S18.07,2,12,2Zm0,15c-.43,0-.88-.03-1.38-.1-.44-.06-.89.08-1.21.38l-1.4,1.29v-1.47c0-.54-.29-1.04-.77-1.31-2.03-1.14-3.23-2.93-3.23-4.8,0-3.31,3.59-6,8-6s8,2.69,8,6-3.59,6-8,6Z"/></svg>