<svg xmlns="http://www.w3.org/2000/svg" viewBox="0 0 24 24" width="24" height="24"><path d="m12,1c-.87,0-1.68.1-2.47.29h0s0,0-.01,0c0,0,0,0-.01,0,0,0,0,0,0,0C4.8,2.38,1.32,6.5,1.03,11.25c-.03.24-.03.49-.03.75s0,.51.02.68c.3,4.82,3.78,8.94,8.47,10.02,0,0,0,0,0,0,0,0,0,0,.01,0,0,0,0,0,.01,0h0c.79.19,1.6.29,2.47.29,6.07,0,11-4.93,11-11S18.07,1,12,1Zm6.24,6h-3.05c-.35-1.03-.81-1.98-1.36-2.79,1.77.41,3.32,1.42,4.42,2.79Zm-2.27,5.75h3.99c-.09.98-.36,1.9-.78,2.75h-3.58c.2-.88.32-1.8.36-2.75Zm0-1.5c-.04-.95-.17-1.87-.36-2.75h3.58c.41.85.69,1.77.78,2.75h-3.99Zm-6.25,8.39c-3.18-.94-5.51-3.8-5.72-7.21-.01-.14-.01-.29-.01-.43s0-.29.02-.5c.21-3.35,2.53-6.2,5.71-7.14,1.65.9,3.27,3.72,3.27,7.64s-1.62,6.74-3.27,7.64Zm4.09.15c.55-.81,1.01-1.76,1.36-2.79h3.05c-1.1,1.37-2.65,2.38-4.42,2.79Z"/></svg>