<svg xmlns="http://www.w3.org/2000/svg" viewBox="0 0 24 24" width="24" height="24"><path d="m18.39,3.27c-.8-1.4-2.3-2.27-3.91-2.27h-4.96c-1.61,0-3.11.87-3.91,2.27l-2.57,4.5c-.78,1.38-.78,3.08,0,4.46l2.57,4.5c.24.42.54.78.89,1.09v3.68c0,.52.27,1,.71,1.28.44.27.99.3,1.46.07l3.33-1.67,3.33,1.67c.21.11.44.16.67.16.27,0,.55-.08.79-.22.44-.27.71-.76.71-1.28v-3.68c.35-.31.65-.68.89-1.09l2.57-4.5c.78-1.38.78-3.08,0-4.46l-2.57-4.5Zm-.04,7.47l-2.57,4.5c-.27.47-.77.76-1.3.76h-4.96c-.54,0-1.04-.29-1.3-.76l-2.57-4.5c-.26-.46-.26-1.03,0-1.49l2.57-4.5c.27-.47.77-.76,1.3-.76h4.96c.54,0,1.04.29,1.3.76l2.57,4.5c.26.46.26,1.03,0,1.49Z"/></svg>