<svg xmlns="http://www.w3.org/2000/svg" width="24" height="24" viewBox="0 0 24 24"><path d="M18.5 2h-13C3.02 2 1 4.02 1 6.5v9C1 17.98 3.02 20 5.5 20H6v1.95a2 2 0 0 0 1.14 1.81c.28.13.57.2.86.2.45 0 .89-.15 1.26-.45l4.27-3.49h4.96c2.48 0 4.5-2.02 4.5-4.5V6.5c0-2.48-2.02-4.5-4.5-4.5ZM20 15.5c0 .83-.67 1.5-1.5 1.5H13c-.35 0-.68.12-.95.34L9 19.84v-1.33c0-.83-.67-1.5-1.5-1.5h-2c-.83 0-1.5-.67-1.5-1.5V6.5C4 5.67 4.67 5 5.5 5h13c.83 0 1.5.67 1.5 1.5z"/><path d="M6.75 11h1.5c.41 0 .75-.34.75-.75s-.34-.75-.75-.75h-1.5c-.41 0-.75.34-.75.75s.34.75.75.75M17.25 9.5h-5.5c-.41 0-.75.34-.75.75s.34.75.75.75h5.5c.41 0 .75-.34.75-.75s-.34-.75-.75-.75M17.25 13h-1.5c-.41 0-.75.34-.75.75s.34.75.75.75h1.5c.41 0 .75-.34.75-.75s-.34-.75-.75-.75M12.25 13h-5.5c-.41 0-.75.34-.75.75s.34.75.75.75h5.5c.41 0 .75-.34.75-.75s-.34-.75-.75-.75"/></svg>