<svg xmlns="http://www.w3.org/2000/svg" viewBox="0 0 24 24" width="24" height="24"><path d="m15,9.14l-1.79-.26c-.08-.01-.15-.06-.19-.14l-.8-1.62c-.09-.19-.36-.19-.45,0l-.8,1.62c-.04.07-.11.12-.19.14l-1.79.26c-.21.03-.29.28-.14.43l1.29,1.26c.06.06.09.14.07.22l-.31,1.78c-.04.2.18.36.36.26l1.6-.84c.07-.04.16-.04.23,0l1.6.84c.18.1.4-.06.36-.26l-.31-1.78c-.01-.08.01-.16.07-.22l1.29-1.26c.15-.14.07-.4-.14-.43Z"/><path d="m12,1C7.04,1,3,5.04,3,10c0,2.89,1.38,5.46,3.5,7.11v4.39c0,.52.27,1,.71,1.28.44.27.99.3,1.46.07l3.33-1.66,3.33,1.66c.21.11.44.16.67.16.27,0,.55-.08.79-.22.44-.27.71-.76.71-1.28v-4.39c2.12-1.65,3.5-4.22,3.5-7.11,0-4.96-4.04-9-9-9Zm0,15c-3.31,0-6-2.69-6-6s2.69-6,6-6,6,2.69,6,6-2.69,6-6,6Z"/></svg>