<svg xmlns="http://www.w3.org/2000/svg" viewBox="0 0 24 24" width="24" height="24"><path d="m22.59,5.67c0-.67-.26-1.3-.73-1.77l-1.75-1.75h0c-.94-.95-2.59-.94-3.54,0L2.15,16.57c-.47.47-.73,1.1-.73,1.77,0,.67.26,1.3.73,1.77l1.75,1.75c.47.47,1.1.73,1.77.73s1.3-.26,1.77-.73l14.42-14.42c.47-.47.73-1.1.73-1.77ZM5.67,19.38l-1.05-1.05,9.33-9.33,1.05,1.05-9.33,9.33Zm10.39-10.39l-1.05-1.05,3.33-3.33,1.05,1.05-3.33,3.33Z"/><path d="m22.66,14.65l-1.15-.14-.67-1.33c-.14-.29-.55-.29-.69,0l-.67,1.33-1.15.14c-.33.04-.46.46-.2.68l1.02.86-.38,1.35c-.1.35.29.63.59.43l1.15-.76,1.15.76c.3.2.69-.08.59-.43l-.38-1.35,1.02-.86c.26-.22.13-.64-.2-.68Z"/><path d="m4.15,6.19l-.38,1.35c-.1.35.29.63.59.43l1.15-.76,1.15.76c.3.2.69-.08.59-.43l-.38-1.35,1.02-.86c.26-.22.13-.64-.2-.68l-1.15-.14-.67-1.33c-.14-.29-.55-.29-.69,0l-.67,1.33-1.15.14c-.33.04-.46.46-.2.68l1.02.86Z"/><path d="m10.7,2.91l-.23.8c-.06.2.17.37.35.25l.68-.45.68.45c.18.12.41-.05.35-.25l-.23-.8.6-.51c.15-.13.08-.38-.12-.4l-.68-.09-.39-.79c-.08-.17-.33-.17-.41,0l-.39.79-.68.09c-.2.02-.27.27-.12.4l.6.51Z"/></svg>