<svg xmlns="http://www.w3.org/2000/svg" width="24" height="24" viewBox="0 0 24 24"><path d="M19.81 7.44c-.59-.59-1.54-.59-2.12 0s-.59 1.54 0 2.12l.94.94H13.5V5.37l.94.94c.29.29.68.44 1.06.44s.77-.15 1.06-.44c.59-.59.59-1.54 0-2.12l-3.5-3.5a1.49 1.49 0 0 0-2.12 0l-3.5 3.5c-.59.59-.59 1.54 0 2.12s1.54.59 2.12 0l.94-.94v5.13H5.37l.94-.94c.59-.59.59-1.54 0-2.12s-1.54-.59-2.12 0l-3.5 3.5a1.49 1.49 0 0 0 0 2.12l3.5 3.5c.29.29.68.44 1.06.44s.77-.15 1.06-.44c.59-.59.59-1.54 0-2.12l-.94-.94h5.13v5.13l-.94-.94c-.59-.59-1.54-.59-2.12 0s-.59 1.54 0 2.12l3.5 3.5c.29.29.68.44 1.06.44s.77-.15 1.06-.44l3.5-3.5c.59-.59.59-1.54 0-2.12s-1.54-.59-2.12 0l-.94.94V13.5h5.13l-.94.94a1.49 1.49 0 0 0 0 2.12c.29.29.68.44 1.06.44s.77-.15 1.06-.44l3.5-3.5c.59-.59.59-1.54 0-2.12z"/></svg>