<svg xmlns="http://www.w3.org/2000/svg" viewBox="0 0 24 24" width="24" height="24"><path d="M12 14.25A.75.75 0 1 0 12 15.75.75.75 0 1 0 12 14.25z"/><path d="m14.99,8.24c-.08-.2-.18-.38-.3-.55-.12-.17-.25-.33-.4-.48-.15-.15-.31-.28-.48-.4-.17-.12-.36-.22-.55-.3-.2-.08-.4-.15-.61-.19-.43-.09-.88-.09-1.31,0-.21.04-.42.11-.61.19-.19.08-.38.18-.55.3-.17.12-.33.25-.48.4-.15.15-.28.31-.4.48-.12.17-.22.36-.3.55-.08.19-.15.4-.19.61-.08.41.18.8.59.88.4.08.8-.18.88-.59.02-.11.06-.22.1-.33.04-.11.1-.2.16-.3.06-.09.13-.18.21-.26s.17-.15.26-.21c.09-.06.19-.12.3-.16.1-.04.21-.08.33-.1.23-.05.48-.05.71,0,.11.02.22.06.33.1.11.04.21.1.3.16s.18.13.26.21.15.17.21.26c.06.09.12.19.16.3.04.1.08.21.1.33.02.12.04.23.04.35s-.01.24-.04.35c-.02.11-.06.22-.1.33-.04.11-.1.2-.16.3-.06.09-.13.18-.21.26s-.17.15-.26.21c-.09.06-.19.12-.3.16-.1.04-.21.08-.33.1-.12.02-.23.04-.35.04-.41,0-.75.34-.75.75v.5c0,.41.34.75.75.75.36,0,.66-.25.73-.58.18-.04.36-.1.54-.17.19-.08.38-.18.55-.3.17-.12.33-.25.48-.4.15-.15.28-.31.4-.48.12-.17.22-.36.3-.55.08-.19.15-.4.19-.61.04-.21.07-.43.07-.65s-.02-.44-.07-.65c-.04-.21-.11-.42-.19-.61Z"/><path d="m12,2C5.93,2,1,6.04,1,11c0,2.7,1.48,5.24,4,6.94v2.92c0,.79.47,1.51,1.2,1.83.26.11.53.17.8.17.49,0,.98-.18,1.36-.53l2.58-2.38c.37.03.72.05,1.07.05,6.07,0,11-4.04,11-9S18.07,2,12,2Zm0,15c-.43,0-.88-.03-1.38-.1-.44-.06-.89.08-1.21.38l-1.4,1.29v-1.47c0-.54-.29-1.04-.77-1.31-2.03-1.14-3.23-2.93-3.23-4.8,0-3.31,3.59-6,8-6s8,2.69,8,6-3.59,6-8,6Z"/></svg>