<svg xmlns="http://www.w3.org/2000/svg" width="24" height="24" viewBox="0 0 24 24"><path d="M12 1C5.93 1 1 5.93 1 12s4.93 11 11 11 11-4.93 11-11S18.07 1 12 1m0 19c-4.41 0-8-3.59-8-8s3.59-8 8-8 8 3.59 8 8-3.59 8-8 8"/><path d="M15.25 15h-6.5c-.41 0-.75.34-.75.75s.34.75.75.75h6.5c.41 0 .75-.34.75-.75s-.34-.75-.75-.75M14.75 9.5c-.41 0-.75.34-.75.75s.34.75.75.75h2.5c.41 0 .75-.34.75-.75s-.34-.75-.75-.75zM10 10.25c0-.41-.34-.75-.75-.75h-2.5c-.41 0-.75.34-.75.75s.34.75.75.75h2.5c.41 0 .75-.34.75-.75"/></svg>