<svg xmlns="http://www.w3.org/2000/svg" viewBox="0 0 24 24" width="24" height="24"><rect x="5" y="7" width="5" height="6" rx="1.5" ry="1.5"/><path d="m13.25,15.25h-7.5c-.41,0-.75.34-.75.75s.34.75.75.75h7.5c.41,0,.75-.34.75-.75s-.34-.75-.75-.75Z"/><path d="m13.5,11.25h-1c-.41,0-.75.34-.75.75s.34.75.75.75h1c.41,0,.75-.34.75-.75s-.34-.75-.75-.75Z"/><path d="m13.5,7.25h-1c-.41,0-.75.34-.75.75s.34.75.75.75h1c.41,0,.75-.34.75-.75s-.34-.75-.75-.75Z"/><path d="m22.5,6c-.83,0-1.5.67-1.5,1.5v10.5c0,.55-.45,1-1,1s-1-.45-1-1V4.5c0-1.38-1.12-2.5-2.5-2.5H2.5c-1.38,0-2.5,1.12-2.5,2.5v14c0,1.93,1.57,3.5,3.5,3.5h16v-.05c.17.02.33.05.5.05,2.21,0,4-1.79,4-4V7.5c0-.83-.67-1.5-1.5-1.5ZM3,18.5V5h13v13c0,.35.06.68.14,1H3.5c-.28,0-.5-.22-.5-.5Z"/></svg>