<svg xmlns="http://www.w3.org/2000/svg" width="24" height="24" viewBox="0 0 24 24"><path d="M19 2a3 3 0 1 0 0 6 3 3 0 1 0 0-6M15.25 19H6.5c-.1 0-.21 0-.3-.03a1.653 1.653 0 0 1-.54-.23c-.08-.05-.15-.11-.22-.18s-.13-.14-.18-.22-.1-.17-.14-.26-.07-.18-.09-.28Q5 17.65 5 17.5V8.75c0-.83-.67-1.5-1.5-1.5S2 7.92 2 8.75v8.75c0 .3.03.61.09.91.06.29.15.58.26.84.11.27.25.52.42.77.16.24.34.46.55.66.2.21.43.39.66.55.24.16.5.3.77.42.27.11.56.2.84.26.29.06.6.09.91.09h8.75c.83 0 1.5-.67 1.5-1.5s-.67-1.5-1.5-1.5"/><path d="M20.53 19.47c.04-.07.09-.14.12-.22a4.604 4.604 0 0 0 .35-1.76v-6c0-.83-.67-1.5-1.5-1.5s-1.5.67-1.5 1.5v5.44L7.06 6h5.44c.83 0 1.5-.67 1.5-1.5S13.33 3 12.5 3h-6c-.31 0-.61.03-.91.09-.28.06-.57.15-.84.26-.08.03-.13.09-.2.14L2.28 1.22c-.29-.29-.77-.29-1.06 0s-.29.77 0 1.06l20.5 20.5c.15.15.34.22.53.22s.38-.07.53-.22c.29-.29.29-.77 0-1.06z"/></svg>