<svg xmlns="http://www.w3.org/2000/svg" viewBox="0 0 24 24" width="24" height="24"><path d="m19.5,8c.83,0,1.5-.67,1.5-1.5s-.67-1.5-1.5-1.5h-.06l1.24-1.57c.51-.65.4-1.59-.25-2.11-.65-.51-1.59-.4-2.11.25l-2.71,3.43h-5.62c-3.86,0-7,3.14-7,7,0,2.25,1.07,4.25,2.72,5.53l-2.4,3.04c-.51.65-.4,1.59.25,2.11.28.22.6.32.93.32.44,0,.88-.2,1.18-.57l2.84-3.59c.48.1.98.16,1.49.16h9.5c.83,0,1.5-.67,1.5-1.5s-.67-1.5-1.5-1.5h-8.75l6.32-8h2.43Zm-11.91,7.17c-.96-.73-1.59-1.87-1.59-3.17,0-2.21,1.79-4,4-4h3.25l-5.66,7.17Z"/></svg>