<svg xmlns="http://www.w3.org/2000/svg" viewBox="0 0 24 24" width="24" height="24"><path d="m12,6c-3.31,0-6,2.69-6,6s2.69,6,6,6,6-2.69,6-6-2.69-6-6-6Zm3,6c0,.2-.02.39-.06.58-1.54-.46-2.68-1.87-2.69-3.55,1.53.13,2.75,1.41,2.75,2.97Zm-3,3c-1.65,0-3-1.35-3-3,0-1.22.73-2.26,1.78-2.73.11,2.17,1.53,3.98,3.5,4.67-.55.65-1.36,1.07-2.27,1.07Z"/><path d="m12,20c-.41,0-.75.34-.75.75v1.5c0,.41.34.75.75.75s.75-.34.75-.75v-1.5c0-.41-.34-.75-.75-.75Z"/><path d="m12,4c.41,0,.75-.34.75-.75v-1.5c0-.41-.34-.75-.75-.75s-.75.34-.75.75v1.5c0,.41.34.75.75.75Z"/><path d="m3.25,11.25h-1.5c-.41,0-.75.34-.75.75s.34.75.75.75h1.5c.41,0,.75-.34.75-.75s-.34-.75-.75-.75Z"/><path d="m22.25,11.25h-1.5c-.41,0-.75.34-.75.75s.34.75.75.75h1.5c.41,0,.75-.34.75-.75s-.34-.75-.75-.75Z"/><path d="m5.28,17.66l-1.06,1.06c-.29.29-.29.77,0,1.06.15.15.34.22.53.22s.38-.07.53-.22l1.06-1.06c.29-.29.29-.77,0-1.06s-.77-.29-1.06,0Z"/><path d="m18.72,4.22l-1.06,1.06c-.29.29-.29.77,0,1.06.15.15.34.22.53.22s.38-.07.53-.22l1.06-1.06c.29-.29.29-.77,0-1.06s-.77-.29-1.06,0Z"/><path d="m5.28,6.34c.15.15.34.22.53.22s.38-.07.53-.22c.29-.29.29-.77,0-1.06l-1.06-1.06c-.29-.29-.77-.29-1.06,0s-.29.77,0,1.06l1.06,1.06Z"/><path d="m18.72,17.66c-.29-.29-.77-.29-1.06,0s-.29.77,0,1.06l1.06,1.06c.15.15.34.22.53.22s.38-.07.53-.22c.29-.29.29-.77,0-1.06l-1.06-1.06Z"/></svg>