<svg xmlns="http://www.w3.org/2000/svg" width="24" height="24" viewBox="0 0 24 24"><path d="m20.62 14.48-2.3-1.53c-.66-.44-1.43-.67-2.22-.67-1.11 0-2.18.47-2.94 1.28l-.02.02c-.49-.34-1.04-.76-1.5-1.22s-.88-1.01-1.22-1.5l.03-.02a3.985 3.985 0 0 0 .61-5.16l-1.53-2.3A3.98 3.98 0 0 0 6.2 1.6c-.82 0-1.6.25-2.28.71l-1.18.81c-1.15.79-1.79 2.1-1.72 3.49.1 2.04.79 7.22 4.96 11.4 4.17 4.17 9.36 4.86 11.39 4.97h.2c1.31 0 2.54-.64 3.29-1.72l.82-1.18c.62-.89.84-1.96.64-3.03a3.97 3.97 0 0 0-1.71-2.58ZM8.41 8.64 7.32 9.65c-.43.4-.53 1.03-.24 1.54.43.75 1.32 2.17 2.44 3.29 1.13 1.13 2.55 2.02 3.29 2.44.51.29 1.14.2 1.54-.24l1.01-1.09c.34-.36.88-.43 1.29-.15l2.3 1.53c.23.15.38.38.43.65s0 .53-.16.76l-.81 1.18c-.2.29-.54.45-.88.43-1.69-.08-5.99-.65-9.42-4.09-3.44-3.44-4-7.74-4.09-9.43-.02-.35.14-.68.43-.87l1.18-.81c.22-.15.49-.21.76-.16s.49.2.64.43l1.53 2.3c.27.41.21.95-.15 1.29ZM19.25 2.13a.75.75 0 0 0-1.25.56v1.32h-2.5c-.83 0-1.5.67-1.5 1.5s.67 1.5 1.5 1.5H18v1.32c0 .65.77.99 1.25.56l3.13-2.82c.33-.3.33-.82 0-1.11l-3.13-2.82Z"/></svg>