<svg xmlns="http://www.w3.org/2000/svg" viewBox="0 0 24 24" width="24" height="24"><path d="m20.12,6.5c-1.13-1.13-3.11-1.13-4.24,0l-.94.94h0s-1.22,1.22-1.22,1.22l-4.24,1.16c-1.08.29-1.9,1.15-2.14,2.24l-1.71,7.71c-.17.76.06,1.53.61,2.08l.42.42c.43.43,1,.66,1.59.66.16,0,.33-.02.49-.05l7.71-1.71c1.09-.24,1.95-1.06,2.24-2.14l1.16-4.24,1.22-1.22h0s.94-.94.94-.94c1.17-1.17,1.17-3.07,0-4.24l-1.88-1.88Zm-3.17,7.49l-1.16,4.24-5.74,1.28,2.56-2.56c.12.03.25.06.38.06.83,0,1.5-.67,1.5-1.5s-.67-1.5-1.5-1.5-1.5.67-1.5,1.5c0,.13.02.26.06.38l-2.56,2.56,1.27-5.74,4.24-1.16c.24-.07.47-.17.69-.29l2.04,2.04c-.12.22-.22.45-.29.69Zm1.99-2.55h0s-.72.72-.72.72l-1.88-1.88.72-.72h0s.94-.94.94-.94l1.88,1.88-.94.94Z"/><path d="m10,5.5c0-.83-.67-1.5-1.5-1.5H2.5c-.83,0-1.5.67-1.5,1.5s.67,1.5,1.5,1.5h6c.83,0,1.5-.67,1.5-1.5Z"/></svg>