<svg xmlns="http://www.w3.org/2000/svg" viewBox="0 0 24 24" width="24" height="24"><path d="m22.19,7.11c-1.32.13-2.44.56-3.38,1.1-.46-.54-.95-1.08-1.45-1.58-.2-.2-.41-.4-.62-.6.11-.34.18-.7.18-1.12,0-2.52-1.7-3.53-3.06-3.82-.44-.09-.85.25-.85.7v.07c0,.34.25.63.59.7.72.16,1.81.67,1.82,2.31C12.21,2.26,8.56.67,6.69,2.55c-.22.22-.42.51-.57.86h0s-.03.1-.03.1c-.04.11-.08.22-.11.35L1.52,17.53c-.46,1.41-.09,2.94.96,4,.75.75,1.75,1.15,2.77,1.15.41,0,.82-.06,1.22-.2l13.9-4.52c.46-.15.82-.39,1.09-.65,1.71-1.71.53-4.91-1.69-7.9.73-.4,1.58-.71,2.56-.8.38-.04.67-.33.67-.71v-.08c0-.43-.38-.75-.81-.71Zm-6.18,4.93l.06.03c.32.18.72.08.93-.21.11-.16.27-.35.44-.55,1.36,1.86,1.86,3.28,1.84,3.83-.76.05-3.31-.96-6.39-4.04-3.08-3.08-4.07-5.61-4.04-6.39.63-.04,2.34.61,4.56,2.4-.3.08-.6.14-.84.17-.35.04-.61.35-.61.71v.08c0,.42.36.76.78.71.61-.08,1.3-.25,1.94-.55.19.18.37.34.56.53.47.47.88.92,1.26,1.36-.29.33-.54.64-.73.89-.25.35-.14.83.24,1.04Zm-4.48,5.64c-.43-.22-.88-.49-1.35-.84-.55-.41-1.1-.88-1.62-1.41-.53-.52-1-1.07-1.41-1.62-.35-.47-.62-.92-.84-1.34l1.11-3.4c.85,1.37,2,2.81,3.35,4.16,1.35,1.35,2.78,2.5,4.16,3.35l-3.4,1.11Zm-5.99,1.95c-.33.11-.7.02-.94-.23-.25-.25-.34-.61-.23-.95l1.34-4.11c.08.12.15.24.24.36.45.61.97,1.21,1.55,1.79.58.58,1.18,1.1,1.79,1.55.12.09.24.16.36.24l-4.11,1.34Z"/></svg>