<svg xmlns="http://www.w3.org/2000/svg" viewBox="0 0 24 24" width="24" height="24"><path d="m20.5,8h-7.75v-2.37c.81-.07,1.94-.31,2.78-1.05,1.46-1.28,1.47-3.57,1.47-3.57,0,0-2.35-.21-3.81,1.07-.79.69-1.15,1.67-1.32,2.43-.12-.57-.36-1.24-.87-1.74-1.1-1.06-3-.94-3-.94,0,0-.12,1.85.97,2.91.66.65,1.62.85,2.27.92v2.35H3.5c-1.38,0-2.5,1.12-2.5,2.5v3c0,1.15.78,2.11,1.84,2.4l1.41,4.92c.37,1.28,1.55,2.18,2.88,2.18h9.74c1.33,0,2.52-.89,2.88-2.18l1.41-4.92c1.06-.29,1.84-1.25,1.84-2.4v-3c0-1.38-1.12-2.5-2.5-2.5Zm-16.5,3h16v2H4v-2Zm12.87,9H7.13l-1.14-4h12.02l-1.14,4Z"/></svg>