<svg xmlns="http://www.w3.org/2000/svg" width="24" height="24" viewBox="0 0 24 24"><path d="M16.5 1h-9C5.57 1 4 2.57 4 4.5v1c0 1.39.82 2.6 2 3.16v2.41l-.34.17A2.99 2.99 0 0 0 4 13.92v1.07c0 1.65 1.35 3 3 3h3.5v3.5c0 .83.67 1.5 1.5 1.5s1.5-.67 1.5-1.5v-3.5H17c1.65 0 3-1.35 3-3V14c0-1.23-.74-2.32-1.88-2.78l-.12-.05V8.65c1.18-.56 2-1.77 2-3.16v-1c0-1.93-1.57-3.5-3.5-3.5ZM7 4.5c0-.28.22-.5.5-.5h9c.28 0 .5.22.5.5v1c0 .28-.22.5-.5.5h-9c-.28 0-.5-.22-.5-.5zm11.5 9.51H17V15H7v-1.07l.34-.17A2.99 2.99 0 0 0 9 11.08V7.51h6v3.68c0 1.23.74 2.32 1.88 2.78l1.62.05Z"/></svg>