<svg xmlns="http://www.w3.org/2000/svg" viewBox="0 0 24 24" width="24" height="24"><path d="m12,16.38l-4.38-4.38c.59-.59.59-1.54,0-2.12-.59-.59-1.54-.59-2.12,0-1.17,1.17-1.17,3.07,0,4.24l1.1,1.1-4.1,4.1c-.59.59-.59,1.54,0,2.12.59.59,1.54.59,2.12,0l4.1-4.1,1.15,1.15c.57.57,1.32.88,2.12.88s1.55-.31,2.12-.88c.59-.59.59-1.54,0-2.12-.58-.59-1.54-.59-2.12,0Z"/><path d="m15.34,14.28l1.75-1.75c1.13.6,2.57.43,3.53-.53l.88-.88c1.17-1.17,1.17-3.07,0-4.24l-4.38-4.38c-1.13-1.13-3.11-1.13-4.24,0l-.88.88c-.95.95-1.13,2.39-.53,3.53l-1.75,1.75L2.28,1.22c-.29-.29-.77-.29-1.06,0s-.29.77,0,1.06l20.5,20.5c.15.15.34.22.53.22s.38-.07.53-.22c.29-.29.29-.77,0-1.06l-7.44-7.44Zm-.78-6.22c.59-.59.59-1.54,0-2.12l-.44-.44.88-.88,4.38,4.38-.88.88-.44-.44c-.59-.59-1.54-.59-2.12,0l-2.72,2.72-1.38-1.38,2.72-2.72Z"/></svg>