<svg xmlns="http://www.w3.org/2000/svg" width="24" height="24" viewBox="0 0 24 24"><path d="M15.11.89c-2.14 0-4.15.83-5.66 2.34L3.44 9.24a4.51 4.51 0 0 0 0 6.36l1.41 1.41-2.67 2.67a1.49 1.49 0 0 0 0 2.12c.29.29.68.44 1.06.44s.77-.15 1.06-.44l2.67-2.67 1.41 1.41c.88.88 2.03 1.32 3.18 1.32s2.3-.44 3.18-1.32l6.01-6.01c1.51-1.51 2.34-3.52 2.34-5.66s-.83-4.15-2.34-5.66A7.95 7.95 0 0 0 15.09.87Zm3.54 11.54-6.01 6.01a1.5 1.5 0 0 1-2.12 0l-4.95-4.95c-.58-.58-.58-1.54 0-2.12l6.01-6.01c.94-.94 2.2-1.46 3.54-1.46s2.59.52 3.54 1.46 1.46 2.2 1.46 3.54-.52 2.59-1.46 3.54Z"/></svg>