<svg xmlns="http://www.w3.org/2000/svg" viewBox="0 0 24 24" width="24" height="24"><path d="m8.87,1.03c-1.13-.07-2.2.69-2.52,1.81L1.31,20.21c-.2.7,0,1.46.51,1.97.38.38.89.59,1.42.59.19,0,.37-.03.56-.08l17.38-5.03c1.11-.32,1.87-1.38,1.8-2.52-.43-7.61-6.5-13.68-14.11-14.11Zm-2.77,13.44c1.05.16,2.05-.53,2.25-1.58.19-.94-.32-1.85-1.15-2.22l.92-3.17c4.6.06,8.32,3.79,8.38,8.38l-5.73,1.66c-.43-.8-1.36-1.23-2.27-.99-.95.25-1.55,1.14-1.48,2.08l-2.31.67,1.4-4.83Zm11.88.99c-.27-5.08-4.35-9.16-9.43-9.43l.57-1.98c5.75.53,10.31,5.09,10.84,10.84l-1.98.57Z"/><path d="M12 11A2 2 0 1 0 12 15 2 2 0 1 0 12 11z"/></svg>