<svg xmlns="http://www.w3.org/2000/svg" viewBox="0 0 24 24" width="24" height="24"><path d="m21.5,1H2.5c-.83,0-1.5.67-1.5,1.5s.67,1.5,1.5,1.5h.5v15.5c0,1.93,1.57,3.5,3.5,3.5h11c1.93,0,3.5-1.57,3.5-3.5V4h.5c.83,0,1.5-.67,1.5-1.5s-.67-1.5-1.5-1.5Zm-3.5,18.5c0,.28-.22.5-.5.5H6.5c-.28,0-.5-.22-.5-.5V4h12v15.5Z"/><path d="m12,12.75c2.25,0,2.25.84,2.25,1.25,0,.61-.79,1.25-2.25,1.25-1.55,0-2.35-1.12-2.38-1.17-.23-.35-.7-.44-1.04-.21-.34.23-.44.7-.21,1.04.04.07,1,1.45,2.87,1.77v.57c0,.41.34.75.75.75s.75-.34.75-.75v-.55c1.97-.25,3-1.48,3-2.7,0-1.03-.49-2.75-3.75-2.75-2.25,0-2.25-.81-2.25-1.25,0-.62.77-1.25,2.25-1.25,1.37,0,1.75.89,1.79,1,.13.39.56.6.95.46.39-.13.61-.56.47-.95-.02-.07-.57-1.6-2.46-1.94v-.57c0-.41-.34-.75-.75-.75s-.75.34-.75.75v.55c-2.05.25-3,1.51-3,2.7,0,1.25.65,2.75,3.75,2.75Z"/></svg>