<svg xmlns="http://www.w3.org/2000/svg" width="24" height="24" viewBox="0 0 24 24"><path d="M3.63 20.75a2.24 2.24 0 0 0 2.18.58l9.47-2.58c1.3-.35 2.21-1.54 2.21-2.89v-3.23l2.06-2.06-.06-.06.06.06 1.44-1.44c.57-.57.88-1.32.88-2.12s-.31-1.55-.88-2.12l-1.88-1.88a3.02 3.02 0 0 0-4.24 0l-1.43 1.44-2.06 2.06H8.15c-1.35 0-2.54.91-2.89 2.21l-2.58 9.47c-.21.78.01 1.61.58 2.18l.38.38ZM16.99 5.12 18.87 7l-1.41 1.41-1.88-1.88 1.4-1.41ZM11.37 9.5c.79 0 1.56-.32 2.12-.88l1.03-1.03 1.88 1.88-1.03 1.03c-.56.56-.88 1.33-.88 2.12v3.23l-7.28 1.99 2.89-2.89c.12.03.25.06.38.06.83 0 1.5-.67 1.5-1.5s-.67-1.5-1.5-1.5-1.5.67-1.5 1.5c0 .13.02.26.06.38l-2.9 2.9 1.98-7.28h3.23Z"/></svg>