<svg xmlns="http://www.w3.org/2000/svg" viewBox="0 0 24 24" width="24" height="24"><path class="b" d="m18,6.28v-2.28c0-1.65-1.35-3-3-3h-6c-1.65,0-3,1.35-3,3v2.28c-1.74.62-3,2.27-3,4.22v8c0,2.48,2.02,4.5,4.5,4.5h9c2.48,0,4.5-2.02,4.5-4.5v-8c0-1.95-1.26-3.6-3-4.22Zm-9-2.28h6v2h-6v-2Zm9,14.5c0,.83-.67,1.5-1.5,1.5H7.5c-.83,0-1.5-.67-1.5-1.5v-8c0-.83.67-1.5,1.5-1.5h9c.83,0,1.5.67,1.5,1.5v8Z"/><path class="b" d="m14.75,13.75h-2v-2c0-.41-.34-.75-.75-.75s-.75.34-.75.75v2h-2c-.41,0-.75.34-.75.75s.34.75.75.75h2v2c0,.41.34.75.75.75s.75-.34.75-.75v-2h2c.41,0,.75-.34.75-.75s-.34-.75-.75-.75Z"/></svg>