<svg xmlns="http://www.w3.org/2000/svg" width="24" height="24" viewBox="0 0 24 24"><path d="M4.84 19.15A1.503 1.503 0 0 0 5.5 22c.15 0 .3-.02.44-.07 1.66-.51 3.8-1.07 4.37-1.07.91 0 1.6.23 2.4.49.91.3 1.95.64 3.34.64.76 0 1.77-.29 2.6-.6a1.46 1.46 0 0 0 .83-1.99l-.03-.06a1.467 1.467 0 0 0-1.83-.76c-.66.24-1.28.41-1.57.41-.91 0-1.6-.23-2.4-.49-.91-.3-1.95-.64-3.34-.64-.14 0-.3.01-.47.03.54-1.24.83-2.66.83-4.2 0-.07-.01-.13-.01-.2h2.85c.83 0 1.5-.67 1.5-1.5s-.67-1.5-1.5-1.5H9.9c-.21-.56-.38-1.22-.38-2.47 0-1.47.93-3.03 3.53-3.03 1.25 0 1.98.61 2.4 1.18.37.51.99.76 1.6.6l.06-.02c.97-.26 1.41-1.42.83-2.24C17.04 3.24 15.47 2 13.05 2 8.57 2 6.52 5.13 6.52 8.03c0 1.06.1 1.84.25 2.47H5.51c-.83 0-1.5.67-1.5 1.5s.67 1.5 1.5 1.5h2.15c0 .07.01.12.01.2 0 2.54-1.06 4.58-2.83 5.45"/></svg>