<svg xmlns="http://www.w3.org/2000/svg" viewBox="0 0 24 24" width="24" height="24"><path d="m7.19,5.1l-3.94-.69c-.47-.08-.95.06-1.3.39-.34.33-.51.8-.45,1.28l1.07,8.31c.08.65.58,1.17,1.23,1.29l13.79,2.43c.23.04.47.06.7.06.81,0,1.6-.25,2.29-.72.88-.61,1.46-1.53,1.65-2.58.38-2.17-1.07-4.25-3.24-4.63h0l-1.16-.2-2.47-5.9c-.47-1.11-1.46-1.91-2.65-2.12-1.13-.2-2.29.16-3.11.97-.81.81-1.19,1.97-.99,3.1l.34,1.97-.57-1.91c-.16-.54-.62-.95-1.18-1.05Zm3.39,6.69c.48.08.97-.07,1.32-.41.35-.34.5-.83.42-1.32l-.76-4.48c-.04-.24.08-.4.15-.47.07-.07.23-.2.47-.15.18.03.33.15.4.32l2.79,6.65c.2.47.62.81,1.12.9l1.97.35c.54.1.91.62.81,1.16-.05.26-.19.49-.41.65-.22.15-.49.21-.75.17l-12.7-2.24-.67-5.2,1.02.18.69,2.33c.16.54.62.95,1.18,1.05l2.95.52Z"/><path d="m21.5,20H2.5c-.83,0-1.5.67-1.5,1.5s.67,1.5,1.5,1.5h19c.83,0,1.5-.67,1.5-1.5s-.67-1.5-1.5-1.5Z"/></svg>