<svg xmlns="http://www.w3.org/2000/svg" viewBox="0 0 24 24" width="24" height="24"><path d="m17.5,1H6c-1.65,0-3,1.35-3,3v3h-1.25c-.41,0-.75.34-.75.75s.34.75.75.75h1.25v2.75h-1.25c-.41,0-.75.34-.75.75s.34.75.75.75h1.25v2.75h-1.25c-.41,0-.75.34-.75.75s.34.75.75.75h1.25v3c0,1.65,1.35,3,3,3h11.5c2.48,0,4.5-2.02,4.5-4.5V5.5c0-2.48-2.02-4.5-4.5-4.5Zm1.5,17.5c0,.83-.67,1.5-1.5,1.5H6V4h11.5c.83,0,1.5.67,1.5,1.5v13Z"/><path d="m15.26,13.7c-.41-.27-.96-.21-1.29.15l-.36.39c-.16.17-.41.21-.62.09-.4-.24-1.08-.67-1.62-1.21-.54-.54-.97-1.22-1.21-1.62-.12-.2-.08-.46.09-.62l.39-.36c.36-.33.43-.88.15-1.29l-.6-.9c-.31-.47-.94-.59-1.4-.27l-.36.25c-.28.2-.45.53-.43.87.07,1.02.43,3.25,2.24,5.05,1.8,1.81,4.03,2.17,5.05,2.24.35.02.67-.14.87-.43l.25-.36c.32-.46.2-1.09-.27-1.4l-.9-.6Z"/></svg>