<svg xmlns="http://www.w3.org/2000/svg" viewBox="0 0 24 24" width="24" height="24"><path class="b" d="m14.71,8.71c-.39-.39-1.02-.39-1.41,0l-.41.41c-.2.2-.2.51,0,.71l1.29,1.29c.2.2.51.2.71,0l.41-.41c.39-.39.39-1.02,0-1.41l-.59-.59Z"/><path class="b" d="m12.18,10.53c-.2-.2-.51-.2-.71,0l-3.32,3.32c-.09.09-.15.22-.15.35v1.29c0,.28.22.5.5.5h1.29c.13,0,.26-.05.35-.15l3.32-3.32c.2-.2.2-.51,0-.71l-1.29-1.29Z"/><path class="b" d="m17.5,2H6.5c-2.48,0-4.5,2.02-4.5,4.5v11c0,2.48,2.02,4.5,4.5,4.5h11c2.48,0,4.5-2.02,4.5-4.5V6.5c0-2.48-2.02-4.5-4.5-4.5Zm1.5,15.5c0,.83-.67,1.5-1.5,1.5H6.5c-.83,0-1.5-.67-1.5-1.5V6.5c0-.83.67-1.5,1.5-1.5h11c.83,0,1.5.67,1.5,1.5v11Z"/></svg>