<svg xmlns="http://www.w3.org/2000/svg" viewBox="0 0 24 24" width="24" height="24"><path d="m21.5,10.5h-.5v-3.21c0-1.64-1.17-3.08-2.78-3.42L7.22,1.54c-1.04-.22-2.1.04-2.93.71-.82.67-1.3,1.66-1.3,2.72v5.53h-.5c-.83,0-1.5.67-1.5,1.5s.67,1.5,1.5,1.5h.5v5.53c0,1.06.47,2.05,1.3,2.72.63.51,1.4.78,2.2.78.24,0,.49-.03.73-.08l11-2.32c1.61-.34,2.78-1.78,2.78-3.42v-3.21h.5c.83,0,1.5-.67,1.5-1.5s-.67-1.5-1.5-1.5ZM6,4.97c0-.21.12-.33.19-.39.06-.05.16-.11.31-.11.03,0,.07,0,.11.01l11,2.32c.23.05.4.25.4.49v3.21H6v-5.53Zm12,11.75c0,.23-.17.44-.4.49l-11,2.32c-.2.04-.35-.04-.42-.1-.07-.06-.19-.18-.19-.39v-5.53h12v3.21Z"/></svg>