<svg xmlns="http://www.w3.org/2000/svg" viewBox="0 0 24 24" width="24" height="24"><path d="m17.17,2.01l-2.09,2.09-.25-.25c-1.36-1.36-3.58-1.37-4.95,0l-1.52,1.52-6.09,6.09c-.66.66-1.03,1.54-1.03,2.47s.36,1.81,1.03,2.47l5.31,5.31c.68.68,1.58,1.02,2.47,1.02s1.79-.34,2.48-1.02l6.09-6.09,1.52-1.52c1.36-1.37,1.36-3.58,0-4.95l-.25-.25,2.16-2.16c.64-.64,1-1.5,1-2.41,0-.98-.41-1.89-1.15-2.55-1.34-1.2-3.43-1.11-4.74.21Zm-6.75,17.59c-.19.19-.51.2-.71,0l-5.31-5.31c-.13-.13-.15-.28-.15-.35s.02-.23.15-.35l5.03-5.03,6.02,6.02-5.02,5.02Zm9.52-14.96l-2.51,2.51c-.97.97-.97,2.56,0,3.54l.6.6c.2.2.2.51,0,.71l-.46.46-6.02-6.02.46-.46c.19-.19.51-.2.71,0l.6.6c.97.97,2.56.97,3.54,0l2.45-2.45c.18-.18.48-.22.62-.09.1.09.14.19.14.31,0,.12-.04.21-.12.29Z"/></svg>