<svg xmlns="http://www.w3.org/2000/svg" viewBox="0 0 24 24" width="24" height="24"><path d="m19.12,3.5c-1.13-1.13-3.11-1.13-4.24,0l-1.66,1.66-.98-.98c-.68-.68-1.79-.68-2.47,0l-4.76,4.76c-.29.29-.29.77,0,1.06.29.29.77.29,1.06,0l4.76-4.76c.1-.1.26-.1.35,0l.98.98L3.94,14.44c-.16.15-.27.34-.35.55l-1.45,3.99c-.3.83-.1,1.73.52,2.36.43.43,1,.66,1.58.66.26,0,.52-.04.78-.14l3.99-1.45c.21-.07.39-.19.55-.35l10.94-10.94s0,0,0,0c1.17-1.17,1.17-3.07,0-4.24l-1.38-1.38Zm-11.45,14.2l-2.17.79.79-2.17,7.98-7.98,1.38,1.38-7.98,7.98Zm9.04-9.04l-1.38-1.38,1.66-1.66,1.38,1.38-1.66,1.66Z"/></svg>