<svg xmlns="http://www.w3.org/2000/svg" viewBox="0 0 24 24" width="24" height="24"><path d="m20.71,7.01l-1.71-2.05v-1.96c0-1.1-.9-2-2-2h-.5c-1.66,0-3.23.75-4.27,2h-3.23C4.36,3,1,6.36,1,11c0,3.25.59,6.25,1.96,10.02.43,1.19,1.57,1.98,2.82,1.98h1.21c1.65,0,3-1.35,3-3v-1h2v1c0,1.65,1.35,3,3,3h1.48c1,0,1.92-.48,2.46-1.29,1.08-1.61,1.82-3.52,2.21-4.8,1.06-.29,1.84-1.26,1.84-2.41v-5c0-1.31-1.01-2.38-2.29-2.49Zm-.71,6.99h-1.5v1.31c-.16.61-.82,2.91-2.02,4.69h-1.48v-1.5c0-1.38-1.12-2.5-2.5-2.5h-3c-1.38,0-2.5,1.12-2.5,2.5v1.5h-1.22c-1.27-3.48-1.78-6.08-1.78-9,0-3.45,2.51-5,5-5h4.86l.43-.75c.36-.62,1-1.06,1.7-1.2v1.99l3.3,3.96h.7v4Z"/><path d="M16 9A1 1 0 1 0 16 11 1 1 0 1 0 16 9z"/><path d="m12.25,8h-4.5c-.41,0-.75.34-.75.75s.34.75.75.75h4.5c.41,0,.75-.34.75-.75s-.34-.75-.75-.75Z"/></svg>