<svg xmlns="http://www.w3.org/2000/svg" width="24" height="24" viewBox="0 0 24 24"><path d="M15.14 1.02c-.54-.03-1.09.15-1.49.52-.41.38-.64.92-.64 1.48V9c0 1.1.9 2 2 2h5.98a2 2 0 0 0 2-2.13c-.31-4.16-3.68-7.54-7.84-7.84ZM16 8V4.21c1.82.52 3.27 1.97 3.79 3.79z"/><path d="M10.01 23c2.41 0 4.67-.94 6.37-2.64a8.9 8.9 0 0 0 2.54-5.11c.08-.57-.09-1.14-.47-1.57-.38-.44-.94-.69-1.52-.69H12.5c-.83 0-1.5-.67-1.5-1.5V7.06c0-.58-.25-1.13-.69-1.52-.43-.38-1-.55-1.57-.47a8.9 8.9 0 0 0-5.11 2.54C1.93 9.31.99 11.58.99 13.98s.94 4.67 2.64 6.37S7.6 22.99 10 22.99ZM5.76 9.74c.64-.64 1.41-1.12 2.25-1.42v3.17c0 2.48 2.02 4.5 4.5 4.5h3.17c-.29.84-.77 1.61-1.42 2.25-1.14 1.14-2.65 1.76-4.25 1.76s-3.12-.62-4.25-1.76C4.62 17.1 4 15.59 4 13.99s.63-3.12 1.76-4.25"/></svg>