<svg xmlns="http://www.w3.org/2000/svg" viewBox="0 0 24 24" width="24" height="24"><path d="m21.18,2.82c-1.56-1.56-4.1-1.56-5.66,0h0l-.84.84-6.24-1.36c-1.18-.26-2.4.1-3.25.96-.81.81-1.18,1.97-.98,3.1.2,1.13.93,2.1,1.97,2.59l1.81.86-1.6-.53c-.72-.24-1.51-.05-2.04.48l-2.11,2.11c-.46.46-.67,1.12-.56,1.76.11.64.53,1.19,1.12,1.47l4.16,1.94,1.94,4.16c.28.59.82,1.01,1.47,1.12.12.02.23.03.35.03.53,0,1.04-.21,1.42-.59l2.1-2.1c.54-.54.73-1.32.49-2.05l-.53-1.6.86,1.81c.49,1.04,1.46,1.77,2.59,1.97,1.13.2,2.29-.17,3.1-.98.85-.86,1.21-2.07.95-3.25l-1.36-6.25.83-.83c1.56-1.56,1.56-4.1,0-5.66Zm-2.12,3.54l-1.41,1.41c-.36.36-.51.88-.41,1.38l1.53,7.05c.04.18-.02.36-.14.49-.17.17-.37.17-.47.15s-.29-.08-.39-.3l-1.95-4.11c-.21-.44-.62-.75-1.1-.84-.48-.09-.97.07-1.32.42l-2.12,2.12c-.4.4-.54,1-.36,1.54l.77,2.3-.66.66-1.57-3.36c-.15-.32-.41-.58-.73-.72l-3.36-1.57.66-.66,2.3.77c.54.18,1.13.04,1.53-.36l2.12-2.12c.35-.34.5-.84.42-1.32-.08-.48-.4-.89-.84-1.1l-4.11-1.95c-.22-.1-.28-.29-.3-.39-.02-.1-.02-.3.15-.47.13-.13.31-.19.49-.15l7.05,1.53c.5.11,1.02-.04,1.38-.41l1.41-1.42c.39-.39,1.02-.39,1.41,0,.39.39.39,1.02,0,1.42Z"/></svg>