<svg xmlns="http://www.w3.org/2000/svg" viewBox="0 0 24 24" width="24" height="24"><path d="m13.5,2H4s-.08.02-.12.03c-.04,0-.08-.03-.12-.03-.69,0-1.25-.56-1.25-1.25,0-.41-.34-.75-.75-.75s-.75.34-.75.75c0,1.52,1.23,2.75,2.75,2.75.04,0,.08-.02.12-.03.04,0,.08.03.12.03v1c0,4.14,3.36,7.5,7.5,7.5h2.5c.55,0,1,.45,1,1s-.45,1-1,1h-3.34c-.56-1.18-1.77-2-3.16-2H2.75c-.42,0-.83.18-1.11.49-.28.31-.42.73-.38,1.16.17,1.7.81,3.01,1.35,3.85-.54.84-1.18,2.15-1.35,3.85-.04.42.1.84.38,1.16.28.31.69.49,1.11.49h4.75c1.39,0,2.6-.82,3.16-2h3.34v-.03c5.01-.26,9-4.41,9-9.47S18.74,2,13.5,2Zm-6.47,3h6.47c1.24,0,2.39.35,3.37.95-.43,1.74-2,3.05-3.87,3.05h-1.5c-2.31,0-4.22-1.75-4.47-4Zm6.47,13h-5.5v1.5c0,.28-.22.5-.5.5h-2.82s.02-.05.03-.07c.18-.4.38-.73.54-.96.02-.03.04-.06.06-.09.06-.08.11-.15.15-.2.01-.01.02-.03.03-.04.04-.04.07-.08.07-.08l1.03-1.05-1.02-1.06s-.03-.04-.07-.08c-.01-.01-.03-.03-.04-.05-.04-.05-.09-.12-.15-.19-.02-.03-.05-.06-.07-.1-.08-.11-.17-.25-.26-.41,0,0,0,0,0-.01-.09-.16-.18-.34-.27-.54-.01-.02-.02-.05-.03-.07h2.82c.28,0,.5.22.5.5v1.5h6c2.21,0,4-1.79,4-4,0-1.46-.79-2.72-1.96-3.42.95-.63,1.68-1.55,2.09-2.63,1.15,1.17,1.86,2.78,1.86,4.55,0,3.58-2.92,6.5-6.5,6.5Z"/><path d="M11 6A1 1 0 1 0 11 8 1 1 0 1 0 11 6z"/></svg>