<svg xmlns="http://www.w3.org/2000/svg" width="24" height="24" viewBox="0 0 24 24"><path d="M22.14 7.72c-.28-.65-.62-1.28-1.01-1.87-.39-.58-.85-1.13-1.34-1.63-.5-.5-1.04-.95-1.63-1.34-.59-.4-1.22-.74-1.87-1.01a11.015 11.015 0 0 0-8.57 0c-.65.28-1.28.62-1.87 1.01-.58.39-1.13.85-1.63 1.34-.17.17-.32.35-.48.52L2.27 3.27C1.8 2.8.99 3.13.99 3.8v4.44c0 .41.34.75.75.75h4.44c.67 0 1-.81.53-1.28l-.85-.85c.15-.18.31-.36.48-.52.36-.36.76-.69 1.18-.98.43-.29.89-.54 1.36-.74.48-.2.99-.36 1.5-.47 1.05-.22 2.17-.22 3.23 0 .51.1 1.02.26 1.5.47.47.2.93.45 1.36.74.42.29.82.62 1.19.98a7.9 7.9 0 0 1 1.72 2.54c.2.48.36.99.47 1.5.11.53.16 1.07.16 1.61a7.85 7.85 0 0 1-.63 3.11c-.2.47-.45.93-.74 1.36-.29.42-.62.82-.98 1.19a7.9 7.9 0 0 1-2.54 1.72c-.48.2-.99.36-1.5.47-1.05.22-2.17.22-3.23 0a7.3 7.3 0 0 1-1.5-.47c-.47-.2-.93-.45-1.36-.74-.42-.29-.82-.62-1.19-.98a7.9 7.9 0 0 1-1.72-2.54c-.2-.48-.36-.99-.47-1.5-.02-.12-.05-.24-.07-.36-.11-.72-.74-1.25-1.47-1.25a1.5 1.5 0 0 0-1.48 1.75c.02.16.05.31.08.46.14.71.36 1.4.64 2.07.28.65.62 1.28 1.01 1.87.39.58.85 1.13 1.34 1.63.5.5 1.04.95 1.63 1.34.59.4 1.22.74 1.87 1.01a10.926 10.926 0 0 0 4.29.86c.75 0 1.49-.08 2.21-.22.71-.14 1.4-.36 2.07-.64.65-.28 1.28-.62 1.87-1.01.58-.39 1.13-.85 1.63-1.34.5-.5.95-1.04 1.34-1.63.4-.59.74-1.22 1.01-1.87a10.926 10.926 0 0 0 .86-4.29c0-.75-.08-1.49-.22-2.21-.14-.71-.36-1.4-.64-2.07Z"/><path d="M9.86 13.5q-.195.09-.45.09-.285 0-.54-.12c-.05-.02-.09-.05-.14-.08a.44.44 0 0 0-.55.06l-.06.06c-.21.21-.18.54.05.69.1.06.21.12.32.17.28.12.6.18.94.18.39 0 .72-.07 1.01-.21s.51-.34.67-.59.24-.54.24-.87c0-.3-.06-.56-.18-.77s-.28-.38-.48-.5a1.4 1.4 0 0 0-.57-.17l1.03-1.18c.07-.08.11-.18.11-.29 0-.24-.2-.44-.44-.44h-2.3c-.24 0-.44.2-.44.44v.05c0 .24.2.44.44.44h1.24l-.88 1.04s-.05.09-.05.14v.27c0 .13.11.23.24.21.1-.01.19-.02.28-.02.19 0 .36.03.49.09.14.06.24.15.31.26s.11.24.11.4-.04.29-.11.4-.17.2-.3.26ZM12.84 14.23c.32.21.68.32 1.08.32s.76-.11 1.07-.32.56-.51.75-.89c.18-.38.28-.83.28-1.34s-.09-.96-.28-1.34c-.18-.38-.44-.68-.75-.89-.32-.21-.68-.32-1.08-.32s-.76.11-1.08.32-.57.51-.75.89-.27.83-.27 1.33.09.95.28 1.33c.18.38.44.68.76.9Zm.19-3.1c.08-.23.19-.41.35-.53.15-.12.33-.17.53-.17s.39.06.54.18.27.29.35.53.12.52.12.87-.04.63-.12.86-.2.41-.35.53-.33.18-.53.18-.38-.06-.54-.18-.27-.3-.35-.53q-.12-.345-.12-.87c0-.525.04-.63.12-.87"/></svg>