<svg xmlns="http://www.w3.org/2000/svg" viewBox="0 0 24 24" width="24" height="24"><path d="m3.5,20h.38c3,0,5.76-1.59,7.29-4.15l1.84,1.11c1.13.68,1.97,1.73,2.39,2.98l.71,2.12c.26.79,1.11,1.21,1.9.95.79-.26,1.21-1.11.95-1.9l-.71-2.12c-.64-1.92-1.95-3.56-3.69-4.6l-.48-.29,1.44-3.12s0,0,0,0c.54.84,1.41,1.41,2.39,1.58.2.03.4.05.59.05.76,0,1.52-.25,2.14-.71l1.06-.8c.66-.5.8-1.44.3-2.1-.5-.66-1.44-.8-2.1-.3l-1.06.8c-.17.13-.34.12-.43.1-.09-.02-.25-.07-.37-.24-.64-.96-1.45-1.77-2.4-2.4-1.39-.93-3-1.43-4.67-1.46-1.7-.03-3.31.78-4.33,2.14l-.94,1.26c-.5.66-.36,1.6.3,2.1.66.5,1.6.36,2.1-.3l1-1.34c.39-.52,1-.85,1.66-.86.35,0,.69.03,1.02.09l-3.1,5.58c-.97,1.75-2.81,2.83-4.81,2.83h-.38c-.83,0-1.5.67-1.5,1.5s.67,1.5,1.5,1.5Z"/><path d="M17.5 1A2.5 2.5 0 1 0 17.5 6 2.5 2.5 0 1 0 17.5 1z"/></svg>