<svg xmlns="http://www.w3.org/2000/svg" viewBox="0 0 24 24" width="24" height="24"><path d="m4.66,1.01c-.82-.09-1.56.51-1.65,1.33L1.01,21.34c-.09.82.51,1.56,1.33,1.65.05,0,.11,0,.16,0,.76,0,1.41-.57,1.49-1.34L5.99,2.66c.09-.82-.51-1.56-1.33-1.65Z"/><path d="m20.99,2.34c-.09-.82-.82-1.43-1.65-1.33-.82.09-1.42.82-1.33,1.65l2,19c.08.77.73,1.34,1.49,1.34.05,0,.11,0,.16,0,.82-.09,1.42-.82,1.33-1.65l-2-19Z"/><path d="m12,1c-.55,0-1,.45-1,1v2c0,.55.45,1,1,1s1-.45,1-1v-2c0-.55-.45-1-1-1Z"/><path d="m12,7c-.55,0-1,.45-1,1v2c0,.55.45,1,1,1s1-.45,1-1v-2c0-.55-.45-1-1-1Z"/><path d="m12,13c-.55,0-1,.45-1,1v2c0,.55.45,1,1,1s1-.45,1-1v-2c0-.55-.45-1-1-1Z"/><path d="m12,19c-.55,0-1,.45-1,1v2c0,.55.45,1,1,1s1-.45,1-1v-2c0-.55-.45-1-1-1Z"/></svg>