<svg xmlns="http://www.w3.org/2000/svg" width="24" height="24" viewBox="0 0 24 24"><path d="M10.37 1.12c-.91.13-1.8.38-2.66.75a10.9 10.9 0 0 0-3.5 2.36c-1.01 1.01-1.8 2.19-2.36 3.5a11.05 11.05 0 0 0 0 8.56 10.9 10.9 0 0 0 2.36 3.5c.17.17.35.32.52.48l-1.47 1.47c-.47.47-.14 1.28.53 1.28h4.44c.41 0 .75-.34.75-.75v-4.44c0-.67-.81-1-1.28-.53l-.85.85c-.18-.15-.36-.31-.52-.48a8 8 0 0 1-1.72-2.54 8.1 8.1 0 0 1 0-6.23c.4-.95.98-1.81 1.72-2.54a8 8 0 0 1 4.37-2.25c.73-.12 1.28-.71 1.28-1.44v-.1c0-.87-.76-1.57-1.62-1.45ZM17.65 17.66a8 8 0 0 1-4.37 2.25c-.73.12-1.28.71-1.28 1.44v.1c0 .87.76 1.57 1.62 1.45.91-.13 1.8-.38 2.66-.75a10.9 10.9 0 0 0 3.5-2.36c1.01-1.01 1.8-2.19 2.36-3.5a11.03 11.03 0 0 0 .01-8.56 10.9 10.9 0 0 0-2.36-3.5c-.17-.17-.35-.32-.52-.48l1.47-1.47c.47-.47.14-1.28-.53-1.28h-4.44c-.41 0-.75.34-.75.75v4.44c0 .67.81 1 1.28.53l.85-.85c.18.15.36.31.52.48.74.73 1.31 1.59 1.72 2.54.83 1.97.83 4.26 0 6.23-.4.95-.98 1.81-1.72 2.54Z"/></svg>