<svg xmlns="http://www.w3.org/2000/svg" width="24" height="24" viewBox="0 0 24 24"><path d="M12 11c.83 0 1.5-.67 1.5-1.5S12.83 8 12 8s-1.5.67-1.5 1.5.67 1.5 1.5 1.5"/><path d="M18 11.71V8.75c0-1.85-.79-3.62-2.18-4.86l-1.83-1.62a3.006 3.006 0 0 0-3.99 0L8.17 3.89c-1.39 1.23-2.18 3-2.18 4.86v2.96c-1.43 1.06-4.48 3.75-4.94 7.78A2.252 2.252 0 0 0 3.29 22h17.4a2.252 2.252 0 0 0 2.24-2.51c-.46-4.02-3.51-6.72-4.94-7.78ZM9 8.75c0-1 .43-1.95 1.17-2.62L12 4.51l1.83 1.62c.75.66 1.17 1.62 1.17 2.62V19H9zm-3 7.02v3.24H4.19c.33-1.29 1.06-2.39 1.81-3.24m12 3.24v-3.24c.75.85 1.47 1.94 1.81 3.24z"/></svg>