<svg xmlns="http://www.w3.org/2000/svg" viewBox="0 0 24 24" width="24" height="24"><path d="m18.5,6c-.83,0-1.5.67-1.5,1.5s.67,1.5,1.5,1.5,1.5.67,1.5,1.5v3c0,.83-.67,1.5-1.5,1.5s-1.5.67-1.5,1.5.67,1.5,1.5,1.5c2.48,0,4.5-2.02,4.5-4.5v-3c0-2.48-2.02-4.5-4.5-4.5Z"/><path d="m17.5,20h-2.5V4h2.5c.83,0,1.5-.67,1.5-1.5s-.67-1.5-1.5-1.5h-8c-.83,0-1.5.67-1.5,1.5s.67,1.5,1.5,1.5h2.5v2h-6.5c-2.48,0-4.5,2.02-4.5,4.5v3c0,2.48,2.02,4.5,4.5,4.5h6.5v2h-2.5c-.83,0-1.5.67-1.5,1.5s.67,1.5,1.5,1.5h8c.83,0,1.5-.67,1.5-1.5s-.67-1.5-1.5-1.5Zm-12-5c-.83,0-1.5-.67-1.5-1.5v-3c0-.83.67-1.5,1.5-1.5h6.5v6h-6.5Z"/></svg>