<svg xmlns="http://www.w3.org/2000/svg" viewBox="0 0 24 24" width="24" height="24"><path d="m14.5,7h-1.5v-1.76c0-.9-.53-1.71-1.36-2.07-.83-.36-1.78-.19-2.44.43,0,0,0,0,0,0l-7.16,6.76c-.45.42-.7,1.02-.7,1.63s.26,1.21.71,1.64l7.16,6.76c.43.4.98.61,1.54.61.3,0,.6-.06.89-.18.83-.36,1.36-1.17,1.36-2.07v-1.76h1.14c1.68,0,3.25.75,4.29,2.06l.56.7c.6.76,1.59,1.04,2.5.72.91-.32,1.5-1.15,1.5-2.12v-2.86c0-4.69-3.81-8.5-8.5-8.5Zm5.5,9.35c-1.57-1.5-3.65-2.35-5.86-2.35h-2.64c-.83,0-1.5.67-1.5,1.5v1.52l-5.32-5.02,5.32-5.02v1.52c0,.83.67,1.5,1.5,1.5h3c3.03,0,5.5,2.47,5.5,5.5v.85Z"/></svg>