<svg xmlns="http://www.w3.org/2000/svg" viewBox="0 0 24 24" width="24" height="24"><path d="m19.05,6.36c-.99-.36-2.05.35-2.05,1.4,0,.65.42,1.2,1.03,1.42,1.32.49,2.21,1.88,1.91,3.42-.28,1.42-1.61,2.4-3.06,2.4h-1.88v-1.5c0-.62-.71-.97-1.2-.6l-4,3c-.4.3-.4.9,0,1.2l4,3c.49.37,1.2.02,1.2-.6v-1.5h1.79c3.05,0,5.77-2.19,6.16-5.21.37-2.92-1.37-5.51-3.9-6.43Z"/><path d="m10.2,11.1l4-3c.4-.3.4-.9,0-1.2l-4-3c-.49-.37-1.2-.02-1.2.6v1.5h-1.79c-3.05,0-5.77,2.19-6.16,5.21-.37,2.92,1.37,5.51,3.9,6.43.99.36,2.05-.35,2.05-1.4,0-.65-.42-1.2-1.03-1.42-1.32-.49-2.21-1.88-1.91-3.42.28-1.42,1.61-2.4,3.06-2.4h1.88v1.5c0,.62.71.97,1.2.6Z"/></svg>