<svg xmlns="http://www.w3.org/2000/svg" width="24" height="24" viewBox="0 0 24 24"><path d="M19.5 7H17v.34c0-.41-.34-.75-.75-.75s-.75.34-.75.75v3c0 .41.34.75.75.75s.75-.34.75-.75V10h2.5c.28 0 .5.22.5.5v9c0 .28-.22.5-.5.5h-9c-.28 0-.5-.22-.5-.5V17h.66c.41 0 .75-.34.75-.75s-.34-.75-.75-.75h-3c-.41 0-.75.34-.75.75q0 .18.09.33v2.92c0 1.93 1.57 3.5 3.5 3.5h9c1.93 0 3.5-1.57 3.5-3.5v-9C23 8.57 21.43 7 19.5 7M7.34 2.5h3c.41 0 .75-.34.75-.75S10.75 1 10.34 1h-3c-.41 0-.75.34-.75.75s.34.75.75.75M16.25 5.14c.41 0 .75-.34.75-.75v-.64C17 2.23 15.77 1 14.25 1h-.64c-.41 0-.75.34-.75.75s.34.75.75.75h.64c.69 0 1.25.56 1.25 1.25v.64c0 .41.34.75.75.75M1.75 5.14c.41 0 .75-.34.75-.75v-.64c0-.69.56-1.25 1.25-1.25h.64c.41 0 .75-.34.75-.75S4.8 1 4.39 1h-.64C2.23 1 1 2.23 1 3.75v.64c0 .41.34.75.75.75M1.75 11.41c.41 0 .75-.34.75-.75v-3c0-.41-.34-.75-.75-.75S1 7.25 1 7.66v3c0 .41.34.75.75.75M3.75 17h.64c.41 0 .75-.34.75-.75s-.34-.75-.75-.75h-.64c-.69 0-1.25-.56-1.25-1.25v-.64c0-.41-.34-.75-.75-.75s-.75.34-.75.75v.64C1 15.77 2.23 17 3.75 17"/><path d="M13.61 17h.64c1.52 0 2.75-1.23 2.75-2.75v-.64c0-.41-.34-.75-.75-.75s-.75.34-.75.75v.64c0 .69-.56 1.25-1.25 1.25h-.64c-.41 0-.75.34-.75.75s.34.75.75.75"/></svg>