<svg xmlns="http://www.w3.org/2000/svg" viewBox="0 0 24 24" width="24" height="24"><path d="m20.5,1H3.5c-1.38,0-2.5,1.12-2.5,2.5v2c0,1.38,1.12,2.5,2.5,2.5h1.27l.28,1.38c.42,2.1,2.28,3.62,4.41,3.62h5.08c2.14,0,3.99-1.52,4.41-3.62l.28-1.38h1.27c1.38,0,2.5-1.12,2.5-2.5v-2c0-1.38-1.12-2.5-2.5-2.5Zm-4.49,7.79c-.14.7-.76,1.21-1.47,1.21h-5.08c-.71,0-1.33-.51-1.47-1.21l-.16-.79h8.34l-.16.79Zm3.99-3.79H4v-1h16v1Z"/><path d="m12.97,15c-.39,0-.72.3-.74.69-.1,1.38-.49,2.16-.9,2.98-.44.88-.93,1.85-1.05,3.52-.03.44.31.82.75.82.39,0,.72-.3.74-.69.1-1.38.49-2.16.9-2.98.44-.88.93-1.86,1.05-3.52.03-.44-.31-.82-.75-.82Z"/><path d="m9.47,15c-.39,0-.72.3-.74.69-.1,1.38-.49,2.16-.9,2.98-.44.88-.93,1.85-1.05,3.52-.03.44.31.82.75.82.39,0,.72-.3.74-.69.1-1.38.49-2.16.9-2.98.44-.88.93-1.86,1.05-3.52.03-.44-.31-.82-.75-.82Z"/><path d="m16.47,15c-.39,0-.72.3-.74.69-.1,1.38-.49,2.16-.9,2.98-.44.88-.93,1.85-1.05,3.52-.03.44.31.82.75.82.39,0,.72-.3.74-.69.1-1.38.49-2.16.9-2.98.44-.88.93-1.86,1.05-3.52.03-.44-.31-.82-.75-.82Z"/></svg>