<svg xmlns="http://www.w3.org/2000/svg" width="24" height="24" viewBox="0 0 24 24"><path d="M12 1C5.93 1 1 5.93 1 12s4.93 11 11 11 11-4.93 11-11S18.07 1 12 1m0 19c-4.41 0-8-3.59-8-8s3.59-8 8-8 8 3.59 8 8-3.59 8-8 8"/><path d="M12 13a3 2.5 0 1 0 0 5 3 2.5 0 1 0 0-5M10.75 8c0-.41-.34-.75-.75-.75-2.07 0-3.75 1.68-3.75 3.75 0 .41.34.75.75.75s.75-.34.75-.75c0-1.24 1.01-2.25 2.25-2.25.41 0 .75-.34.75-.75M14 7.25c-.41 0-.75.34-.75.75s.34.75.75.75c1.24 0 2.25 1.01 2.25 2.25 0 .41.34.75.75.75s.75-.34.75-.75c0-2.07-1.68-3.75-3.75-3.75"/></svg>