<svg xmlns="http://www.w3.org/2000/svg" viewBox="0 0 24 24" width="24" height="24"><path d="m20.77,8.4c-.76.09-2.04.33-3.54,1.01-.52-1.7-1.57-4.07-3.73-6.5-.76-.85-2.24-.85-3,0-2.17,2.44-3.22,4.82-3.73,6.52-1.5-.69-2.78-.94-3.53-1.03-.57-.07-1.15.12-1.58.51-.43.39-.67.95-.65,1.53.22,7.62,4.53,12.55,10.99,12.55s10.76-5.04,10.99-12.55c.02-.58-.22-1.14-.65-1.53-.43-.39-1-.58-1.58-.52Zm-8.77-2.6c1.63,2.12,2.29,4.07,2.55,5.21-.86.65-1.73,1.47-2.57,2.48-.84-.99-1.7-1.79-2.55-2.44.26-1.13.91-3.1,2.56-5.24Zm0,14.19c-6.13,0-7.57-5.4-7.9-8.37,1.6.45,4.06,1.62,6.28,4.67.38.52.98.79,1.63.82.64,0,1.25-.32,1.62-.84,2.18-3.05,4.65-4.22,6.28-4.66-.47,4.26-2.74,8.38-7.9,8.38Z"/></svg>