<svg xmlns="http://www.w3.org/2000/svg" viewBox="0 0 24 24" width="24" height="24"><path d="m18.5,6H5.5c-1.93,0-3.5,1.57-3.5,3.5v5c0,1.93,1.57,3.5,3.5,3.5h13c1.93,0,3.5-1.57,3.5-3.5v-5c0-1.93-1.57-3.5-3.5-3.5Zm.5,8.5c0,.28-.22.5-.5.5H5.5c-.28,0-.5-.22-.5-.5v-5c0-.28.22-.5.5-.5h13c.28,0,.5.22.5.5v5Z"/><path d="m12,5c.41,0,.75-.34.75-.75V1.75c0-.41-.34-.75-.75-.75s-.75.34-.75.75v2.5c0,.41.34.75.75.75Z"/><path d="m6.42,4.98c.15.18.36.27.58.27.17,0,.34-.06.48-.17.32-.26.37-.74.1-1.05l-1.44-1.75c-.26-.32-.74-.37-1.06-.1-.32.26-.37.74-.1,1.05l1.44,1.75Z"/><path d="m17,5.25c.22,0,.43-.09.58-.27l1.44-1.75c.26-.32.22-.79-.1-1.05-.32-.26-.79-.22-1.06.1l-1.44,1.75c-.26.32-.22.79.1,1.05.14.12.31.17.48.17Z"/><path d="m12,19c-.41,0-.75.34-.75.75v2.5c0,.41.34.75.75.75s.75-.34.75-.75v-2.5c0-.41-.34-.75-.75-.75Z"/><path d="m17.58,19.02c-.26-.32-.74-.37-1.06-.1-.32.26-.37.74-.1,1.05l1.44,1.75c.15.18.36.27.58.27.17,0,.34-.06.48-.17.32-.26.37-.74.1-1.05l-1.44-1.75Z"/><path d="m6.42,19.02l-1.44,1.75c-.26.32-.22.79.1,1.05.14.12.31.17.48.17.22,0,.43-.09.58-.27l1.44-1.75c.26-.32.22-.79-.1-1.05-.32-.26-.79-.22-1.06.1Z"/></svg>