<svg xmlns="http://www.w3.org/2000/svg" width="24" height="24" viewBox="0 0 24 24"><path d="M3.5 20c.83 0 1.5-.67 1.5-1.5v-2c0-.83-.67-1.5-1.5-1.5S2 15.67 2 16.5v2c0 .83.67 1.5 1.5 1.5M7.75 20c.83 0 1.5-.67 1.5-1.5v-5c0-.83-.67-1.5-1.5-1.5s-1.5.67-1.5 1.5v5c0 .83.67 1.5 1.5 1.5M13.5 10.5c0-.83-.67-1.5-1.5-1.5s-1.5.67-1.5 1.5v8c0 .83.67 1.5 1.5 1.5s1.5-.67 1.5-1.5zM16.25 20c.83 0 1.5-.67 1.5-1.5v-11c0-.83-.67-1.5-1.5-1.5s-1.5.67-1.5 1.5v11c0 .83.67 1.5 1.5 1.5M20.5 20c.83 0 1.5-.67 1.5-1.5v-14c0-.83-.67-1.5-1.5-1.5S19 3.67 19 4.5v14c0 .83.67 1.5 1.5 1.5"/></svg>