<svg xmlns="http://www.w3.org/2000/svg" viewBox="0 0 24 24" width="24" height="24"><path d="m18.18,16.06c1.14-1.57,1.82-3.48,1.82-5.56,0-5.24-4.26-9.5-9.5-9.5S1,5.26,1,10.5s4.26,9.5,9.5,9.5c2.08,0,4-.68,5.56-1.82l3.88,3.88c.29.29.68.44,1.06.44s.77-.15,1.06-.44c.59-.59.59-1.54,0-2.12l-3.88-3.88Zm-7.68.94c-3.58,0-6.5-2.92-6.5-6.5s2.92-6.5,6.5-6.5,6.5,2.92,6.5,6.5-2.92,6.5-6.5,6.5Z"/><path d="m14.25,9.75h-3v-3c0-.41-.34-.75-.75-.75s-.75.34-.75.75v3h-3c-.41,0-.75.34-.75.75s.34.75.75.75h3v3c0,.41.34.75.75.75s.75-.34.75-.75v-3h3c.41,0,.75-.34.75-.75s-.34-.75-.75-.75Z"/></svg>