<svg xmlns="http://www.w3.org/2000/svg" width="24" height="24" viewBox="0 0 24 24"><path d="M20.91 5.06a1.966 1.966 0 0 0-1.8.55l-2.48 2.48-.71-.71 2.47-2.47a2 2 0 0 0-.65-3.27A8.55 8.55 0 0 0 14.5 1c-2.27 0-4.4.88-6.01 2.49a8.48 8.48 0 0 0-2.27 7.93l-2.96 2.96c-.82.82-1.28 1.92-1.28 3.08 0 1.17.45 2.26 1.28 3.08l.2.2c.82.82 1.92 1.28 3.08 1.28s2.26-.45 3.08-1.28l2.96-2.96c.63.14 1.27.22 1.92.22 2.27 0 4.4-.88 6.01-2.49a8.49 8.49 0 0 0 1.85-9.25c-.25-.62-.8-1.07-1.46-1.2Zm-8.5 9.52c-.37-.15-.8-.07-1.09.22L7.5 18.62c-.51.51-1.41.51-1.93 0l-.2-.2a1.37 1.37 0 0 1 0-1.93l3.82-3.82c.29-.29.37-.71.22-1.09a5.47 5.47 0 0 1 1.2-5.98 5.48 5.48 0 0 1 3.88-1.61c.18 0 .35 0 .53.03l-1.94 1.94a1.983 1.983 0 0 0 0 2.82l2.12 2.12c.76.76 2.07.76 2.83 0l1.94-1.94c.16 1.61-.4 3.23-1.59 4.42a5.5 5.5 0 0 1-5.98 1.2Z"/></svg>