<svg xmlns="http://www.w3.org/2000/svg" width="24" height="24" viewBox="0 0 24 24"><path d="m21.06 7.94-1.97-1.97.91-.91.72.72c.15.15.34.22.53.22s.38-.07.53-.22c.29-.29.29-.77 0-1.06l-2.5-2.5c-.29-.29-.77-.29-1.06 0s-.29.77 0 1.06l.72.72-.91.91-1.97-1.97-1.5-1.5c-.59-.59-1.54-.59-2.12 0s-.59 1.54 0 2.12l.44.44-8.56 8.56c-.84.84-1.32 2-1.32 3.18v3.76c0 .13.02.26.06.38l-1.84 1.84c-.29.29-.29.77 0 1.06.15.15.34.22.53.22s.38-.07.53-.22l1.84-1.84c.12.03.25.06.38.06h3.76c1.2 0 2.33-.47 3.18-1.32L20 11.12l.44.44c.29.29.68.44 1.06.44s.77-.15 1.06-.44c.59-.59.59-1.54 0-2.12zM9.32 17.56c-.28.28-.66.44-1.06.44H6v-2.26c0-.39.16-.78.44-1.06l2.59-2.59.94.94c.15.15.34.22.53.22s.38-.07.53-.22c.29-.29.29-.77 0-1.06l-.94-.94 1.94-1.94.94.94c.15.15.34.22.53.22s.38-.07.53-.22c.29-.29.29-.77 0-1.06l-.94-.94L15 6.12 17.88 9z"/></svg>