<svg xmlns="http://www.w3.org/2000/svg" viewBox="0 0 24 24" width="24" height="24"><path d="M7.75 2A1.5 1.5 0 1 0 7.75 5 1.5 1.5 0 1 0 7.75 2z"/><path d="M12 2A1.5 1.5 0 1 0 12 5 1.5 1.5 0 1 0 12 2z"/><path d="M16.25 2A1.5 1.5 0 1 0 16.25 5 1.5 1.5 0 1 0 16.25 2z"/><path d="M20.5 2A1.5 1.5 0 1 0 20.5 5 1.5 1.5 0 1 0 20.5 2z"/><path d="M3.5 19A1.5 1.5 0 1 0 3.5 22 1.5 1.5 0 1 0 3.5 19z"/><path d="M7.75 19A1.5 1.5 0 1 0 7.75 22 1.5 1.5 0 1 0 7.75 19z"/><path d="M12 19A1.5 1.5 0 1 0 12 22 1.5 1.5 0 1 0 12 19z"/><path d="M20.5 6.25A1.5 1.5 0 1 0 20.5 9.25 1.5 1.5 0 1 0 20.5 6.25z"/><path d="M20.5 10.5A1.5 1.5 0 1 0 20.5 13.5 1.5 1.5 0 1 0 20.5 10.5z"/><path d="M20.5 14.75A1.5 1.5 0 1 0 20.5 17.75 1.5 1.5 0 1 0 20.5 14.75z"/><path d="M3.5 10.5A1.5 1.5 0 1 0 3.5 13.5 1.5 1.5 0 1 0 3.5 10.5z"/><path d="M3.5 14.75A1.5 1.5 0 1 0 3.5 17.75 1.5 1.5 0 1 0 3.5 14.75z"/><path d="m21.94,20.88c.03-.12.06-.24.06-.38,0-.83-.67-1.5-1.5-1.5-.13,0-.25.03-.38.06l-3.23-3.23c.07-.19.11-.38.11-.58v-6.5c0-.47-.18-.91-.51-1.24-.33-.33-.77-.51-1.24-.51h-6.5c-.2,0-.4.04-.58.11l-3.23-3.23c.03-.12.06-.24.06-.38,0-.83-.67-1.5-1.5-1.5-.13,0-.25.03-.38.06l-.84-.84c-.29-.29-.77-.29-1.06,0s-.29.77,0,1.06l.84.84,1.83,1.83,17.84,17.84c.15.15.34.22.53.22s.38-.07.53-.22c.29-.29.29-.77,0-1.06l-.84-.84Zm-6.69-12.38c.09,0,.15.05.18.07.03.03.07.09.07.18v5.69l-5.94-5.94h5.69Z"/><path d="m3.22,9.22c.33.06.64.01.92-.11.36-.17.44-.65.16-.93l-1.22-1.22c-.28-.28-.76-.2-.93.16-.13.27-.17.58-.11.92.11.6.59,1.08,1.19,1.19Z"/><path d="m15.97,21.97c.33.06.64.01.92-.11.36-.17.44-.65.16-.93l-1.22-1.22c-.28-.28-.76-.2-.93.16-.13.27-.17.58-.11.92.11.6.59,1.08,1.19,1.19Z"/><path d="m7.75,11.64c-.41,0-.75.34-.75.75v2.86c0,.47.18.91.51,1.24.33.33.77.51,1.24.51h2.86c.41,0,.75-.34.75-.75s-.34-.75-.75-.75h-2.86c-.09,0-.15-.05-.18-.07-.03-.03-.07-.09-.07-.18v-2.86c0-.41-.34-.75-.75-.75Z"/></svg>