<svg xmlns="http://www.w3.org/2000/svg" viewBox="0 0 24 24" width="24" height="24"><path d="m5.92,16.41c-.15.38.03.82.42.98.07.03.15.05.22.08.47,1.25,1.22,2.39,2.2,3.3.14.13.33.2.51.2.2,0,.4-.08.55-.24.28-.3.26-.78-.04-1.06-.55-.5-1-1.09-1.36-1.74.36.05.72.08,1.11.08.37,0,.75-.03,1.12-.08.41-.06.7-.43.64-.84-.06-.41-.43-.71-.84-.64-.3.04-.61.06-.92.06-.91.03-1.78-.17-2.62-.51-.39-.15-.82.03-.98.42Z"/><path d="m2.24,7.53c.3,0,.59-.18.7-.48.04-.1.08-.2.12-.3.44-1.03,1.1-1.91,1.95-2.62.32-.26.36-.74.1-1.06-.26-.32-.74-.36-1.06-.1-1.02.85-1.84,1.95-2.37,3.18-.05.12-.1.24-.14.36-.15.39.05.82.44.97.09.03.18.05.27.05Z"/><path d="m1.1,10.83c.23,1.45.83,2.82,1.75,3.97.15.19.37.28.59.28.16,0,.33-.05.47-.16.32-.26.38-.73.12-1.05-.75-.95-1.25-2.08-1.44-3.27-.06-.41-.45-.69-.86-.62-.41.06-.69.45-.62.86Z"/><path d="m12.31,1.48c-1.39-.49-2.88-.6-4.33-.34-.41.07-.68.46-.6.87.07.41.47.67.87.6,1.19-.22,2.42-.12,3.56.28.08.03.17.04.25.04.31,0,.6-.19.71-.5.14-.39-.07-.82-.46-.96Z"/><path d="m17.1,11.18c-.39-.13-.82.09-.95.48-.07.2-.14.4-.23.6-.48,1.12-1.24,2.09-2.2,2.82-.33.25-.39.72-.14,1.05.15.19.37.3.6.3.16,0,.32-.05.45-.15,1.17-.88,2.09-2.07,2.67-3.42.1-.24.19-.48.27-.72.13-.39-.09-.82-.48-.95Z"/><path d="m19.95,7.98c-.32-.27-.79-.22-1.06.09-.27.32-.22.79.09,1.06.93.77,1.64,1.78,2.07,2.92.11.3.4.49.7.49.09,0,.18-.02.26-.05.39-.15.58-.58.44-.97-.52-1.38-1.38-2.6-2.51-3.54Z"/><path d="m21.41,15.6c-.03.21-.08.42-.13.63-.3,1.17-.9,2.25-1.73,3.12-.29.3-.28.77.02,1.06.15.14.33.21.52.21.2,0,.39-.08.54-.23,1.01-1.06,1.74-2.37,2.1-3.79.06-.25.12-.51.16-.76.07-.41-.21-.79-.62-.86-.41-.07-.79.21-.86.62Z"/><path d="m16.5,21.21c-1.16.35-2.39.38-3.57.11-.4-.1-.81.16-.9.56-.09.4.16.81.56.9.63.15,1.27.22,1.91.22.82,0,1.64-.12,2.42-.36.4-.12.62-.54.5-.93-.12-.4-.54-.62-.93-.5Z"/><path d="m11.7,6.47c-.39.14-.6.56-.46.96.11.31.4.5.71.5.08,0,.17-.01.25-.04,1.14-.4,2.36-.5,3.56-.28.16.03.31,0,.45-.07.05.18.11.36.15.55.07.35.39.6.73.6.05,0,.1,0,.15-.02.41-.08.67-.48.58-.89-.3-1.44-.96-2.78-1.93-3.89-.27-.31-.75-.35-1.06-.07-.31.27-.34.75-.07,1.06.32.37.59.77.83,1.2-1.32-.17-2.65-.05-3.9.39Z"/><path d="m6.18,12.78c-.08.41.18.8.58.89.05.01.1.02.15.02.35,0,.66-.24.73-.6.02-.1.05-.21.07-.31.27-1.08.79-2.05,1.52-2.89.27-.31.24-.79-.07-1.06-.31-.27-.79-.24-1.06.07-.89,1.01-1.51,2.19-1.84,3.51-.03.13-.06.25-.09.38Z"/></svg>