<svg xmlns="http://www.w3.org/2000/svg" viewBox="0 0 24 24" width="24" height="24"><path d="m20.76,14.6s-.09-.05-.14-.07c-.22-.12-.45-.21-.68-.29l-1.02-6.24h.08c1.1,0,2-.9,2-2s-.9-2-2-2h-.74v-.06c-.29-1.69-1.75-2.94-3.47-2.94h-1.3c-.83,0-1.5.67-1.5,1.5s.67,1.5,1.5,1.5h1.3c.24,0,.45.18.49.42l1.61,9.87c-.78.3-1.48.81-2,1.5-.28.36-.49.77-.64,1.2h-.26v-5.5c0-.36-.08-.69-.21-1,.13-.31.21-.64.21-1v-2c0-1.38-1.12-2.5-2.5-2.5H3.5c-1.38,0-2.5,1.12-2.5,2.5v2c0,.78.37,1.48.94,1.93-.59.88-.94,1.93-.94,3.07v2.94c0,1.29.99,2.35,2.25,2.47.6,1.79,2.27,3.08,4.25,3.08s3.6-1.26,4.22-3h2.55c.62,1.74,2.27,3,4.22,3,2.48,0,4.5-2.02,4.5-4.5,0-1.59-.86-3.09-2.24-3.9Zm-13.78-.57c-.06,0-.11.02-.17.03-.11.02-.23.03-.34.06-.07.02-.13.04-.19.06-.1.03-.2.05-.29.09-.07.02-.13.05-.2.08-.09.04-.18.07-.27.11-.07.03-.13.07-.2.11-.08.05-.17.09-.24.14-.06.04-.12.09-.19.13-.08.05-.15.11-.22.17-.06.05-.12.1-.17.15-.07.06-.14.13-.21.19-.05.06-.11.12-.16.17-.04.05-.09.1-.14.15v-1.17c0-1.38,1.12-2.5,2.5-2.5h4.5v3.68s-.04-.04-.06-.07c-.13-.16-.28-.31-.43-.44-.05-.05-.1-.09-.15-.13-.19-.16-.39-.3-.6-.43-.03-.02-.07-.04-.1-.05-.64-.36-1.38-.55-2.15-.55-.18,0-.35.01-.52.03Zm-2.98-6.03h7v1h-7v-1Zm3.5,12c-.83,0-1.5-.67-1.5-1.54,0-.3.11-.61.3-.86.33-.44.92-.63,1.42-.58.02,0,.03,0,.05,0,.16.02.31.07.44.15.03.02.07.04.1.06.42.27.68.73.69,1.23,0,.01,0,.02,0,.03h0c0,.83-.67,1.5-1.5,1.5Zm11,0c-.83,0-1.5-.67-1.5-1.5,0-.32.11-.65.3-.9.29-.38.73-.6,1.2-.6.26,0,.52.07.73.19.03.02.06.03.08.04.42.28.68.76.68,1.26,0,.83-.67,1.5-1.5,1.5Z"/></svg>