<svg xmlns="http://www.w3.org/2000/svg" viewBox="0 0 24 24" width="24" height="24"><path d="m10.6,8.26c-.95.58-1.76,1.39-2.34,2.34-.21.35-.1.82.25,1.03.12.07.26.11.39.11.25,0,.5-.13.64-.36.45-.75,1.09-1.38,1.84-1.84.35-.22.47-.68.25-1.03-.22-.35-.68-.46-1.03-.25Z"/><path d="m15.49,12.37c-.35-.22-.81-.1-1.03.25-.45.75-1.09,1.38-1.84,1.84-.35.22-.47.68-.25,1.03.14.23.39.36.64.36.13,0,.27-.04.39-.11.95-.58,1.76-1.39,2.34-2.34.21-.35.1-.82-.25-1.03Z"/><path d="m17.46,6.54c-1.22-3.3-4.39-5.54-7.96-5.54C4.81,1,1,4.81,1,9.5c0,3.58,2.24,6.74,5.54,7.96,1.22,3.3,4.39,5.54,7.96,5.54,4.69,0,8.5-3.81,8.5-8.5,0-3.58-2.24-6.74-5.54-7.96Zm-2.96,13.46c-2.2,0-4.15-1.31-5.02-3.27.1,0,.2.02.3.02.15,0,.31,0,.46-.02.41-.03.73-.38.7-.8-.03-.41-.4-.72-.8-.7-.43.03-.88,0-1.31-.07-.05-.31-.08-.63-.08-.95,0-.12,0-.24.01-.36.03-.41-.29-.77-.7-.8-.4-.03-.77.29-.8.7,0,.15-.01.3-.01.46,0,.1.01.2.02.3-1.96-.87-3.27-2.82-3.27-5.02,0-3.03,2.47-5.5,5.5-5.5,2.2,0,4.15,1.31,5.02,3.28-.25-.01-.51-.03-.76-.01-.41.03-.73.38-.7.8s.4.73.8.7c.44-.03.88,0,1.31.07.05.31.08.63.08.95,0,.12,0,.24-.01.36-.03.41.29.77.7.8.02,0,.03,0,.05,0,.39,0,.72-.3.75-.7,0-.15.01-.3.01-.46,0-.1-.01-.2-.02-.3,1.96.87,3.27,2.82,3.27,5.02,0,3.03-2.47,5.5-5.5,5.5Z"/></svg>