<svg xmlns="http://www.w3.org/2000/svg" viewBox="0 0 24 24" width="24" height="24"><path d="m22.91,16.97c-.17-.53-.74-.82-1.27-.64-1.07.32-2.13.66-3.14.68.8-2.72,6.38-9.08,2.42-10.66-.7-.24-1.59,0-2.01.16-2.25.92-4.31,2.32-6.39,3.58,1.07-1.97,1.48-4.05-.67-5.56C7.12,2.08,2.78,9.02,1.16,12.51c-.47,1,.89,1.93,1.65,1.12,2.05-2.03,4.06-4.57,6.53-5.82.1-.04.18-.07.26-.09-.6,1.46-1.82,2.82-2.77,4.22-.25.37-.63.91-.75,1.56-.27,1.11.58,2.3,1.69,2.42.63.11,1.45-.16,1.87-.33,3.3-1.3,6.01-3.52,8.96-5.26-.78,1.88-1.81,3.64-2.46,5.69-.26.85-.38,2.03.38,2.77.93.81,1.68.64,2.59.53,1.23-.25,2.24-.68,3.25-1.12.47-.2.72-.73.56-1.23Zm-4.74.05c-.07-.01-.07-.04,0,0h0Z"/></svg>