<svg xmlns="http://www.w3.org/2000/svg" viewBox="0 0 24 24" width="24" height="24"><path d="m19.5,1h-8c-.83,0-1.5.67-1.5,1.5v7.52l-4.28,2.47c-1.27.73-2.18,1.92-2.56,3.34-.38,1.42-.18,2.9.55,4.17,1.02,1.76,2.87,2.74,4.77,2.74.93,0,1.87-.24,2.74-.73l7.54-4.35c1.39-.8,2.25-2.29,2.25-3.9V2.5c0-.83-.67-1.5-1.5-1.5Zm-1.5,3v2h-5v-2h5Zm-.75,11.07l-7.54,4.35c-1.19.69-2.72.28-3.41-.91-.33-.58-.42-1.25-.25-1.89.17-.64.59-1.18,1.16-1.52l4.28-2.47c.93-.53,1.5-1.53,1.5-2.6v-2.52h5v6.27c0,.53-.29,1.03-.75,1.3Z"/></svg>