<svg xmlns="http://www.w3.org/2000/svg" viewBox="0 0 24 24" width="24" height="24"><path d="m18.18,16.06c1.14-1.57,1.82-3.48,1.82-5.56,0-5.24-4.26-9.5-9.5-9.5S1,5.26,1,10.5s4.26,9.5,9.5,9.5c2.08,0,4-.68,5.56-1.82l3.88,3.88c.29.29.68.44,1.06.44s.77-.15,1.06-.44c.59-.59.59-1.54,0-2.12l-3.88-3.88Zm-7.68.94c-3.58,0-6.5-2.92-6.5-6.5s2.92-6.5,6.5-6.5,6.5,2.92,6.5,6.5-2.92,6.5-6.5,6.5Z"/><path d="m13.78,7.22c-.29-.29-.77-.29-1.06,0l-2.22,2.22-2.22-2.22c-.29-.29-.77-.29-1.06,0s-.29.77,0,1.06l2.22,2.22-2.22,2.22c-.29.29-.29.77,0,1.06.15.15.34.22.53.22s.38-.07.53-.22l2.22-2.22,2.22,2.22c.15.15.34.22.53.22s.38-.07.53-.22c.29-.29.29-.77,0-1.06l-2.22-2.22,2.22-2.22c.29-.29.29-.77,0-1.06Z"/></svg>