<svg xmlns="http://www.w3.org/2000/svg" viewBox="0 0 24 24" width="24" height="24"><path d="m19.5,14h-3.12l4.77-4.77c.66-.66,1.02-1.54,1.02-2.47s-.36-1.81-1.02-2.47l-1.43-1.43c-1.36-1.37-3.59-1.37-4.95,0l-4.77,4.77v-3.12c0-1.93-1.57-3.5-3.5-3.5h-2c-1.93,0-3.5,1.57-3.5,3.5v14c0,2.48,2.02,4.5,4.5,4.5h14c1.93,0,3.5-1.57,3.5-3.5v-2c0-1.93-1.57-3.5-3.5-3.5Zm-2.61-9.03c.2-.2.51-.19.71,0l1.43,1.43c.13.13.15.28.15.35s-.02.23-.15.35l-6.89,6.89h-4.28l9.02-9.03Zm-12.39-.97h2c.28,0,.5.22.5.5v6.12l-3,3V4.5c0-.28.22-.5.5-.5Zm15.5,15.5c0,.28-.22.5-.5.5H5.5c-.83,0-1.5-.67-1.5-1.5s.67-1.5,1.5-1.5h14c.28,0,.5.22.5.5v2Z"/><path d="M5.5 18A.5.5 0 1 0 5.5 19 .5.5 0 1 0 5.5 18z"/></svg>