<svg xmlns="http://www.w3.org/2000/svg" viewBox="0 0 24 24" width="24" height="24"><path d="m20.58,1.32l-2.86,2.23C14.07.25,8.64.14,5.39,3.39c-3.37,3.37-3.14,9.07.5,12.72.35.35.72.66,1.11.95v2.95h-1.5c-.83,0-1.5.67-1.5,1.5s.67,1.5,1.5,1.5h6c.83,0,1.5-.67,1.5-1.5s-.67-1.5-1.5-1.5h-1.5v-1.42c.74.23,1.51.37,2.29.41.15,0,.29.01.44.01,2.26,0,4.34-.84,5.89-2.39,1.65-1.65,2.5-3.9,2.38-6.32-.07-1.56-.55-3.08-1.36-4.43l2.79-2.17c.65-.51.77-1.45.26-2.1-.51-.65-1.45-.77-2.1-.26Zm-2.59,9.11c.07,1.57-.46,3.02-1.5,4.06-1.05,1.04-2.49,1.57-4.06,1.5-1.63-.08-3.19-.79-4.41-2.01-2.48-2.48-2.7-6.28-.5-8.47.98-.98,2.31-1.51,3.77-1.51.1,0,.19,0,.29,0,1.34.06,2.63.56,3.73,1.41l-3.72,2.89c-.65.51-.77,1.45-.26,2.1.3.38.74.58,1.19.58.32,0,.65-.1.92-.32l3.82-2.97c.45.85.71,1.77.76,2.71Z"/></svg>