<svg xmlns="http://www.w3.org/2000/svg" viewBox="0 0 24 24" width="24" height="24"><path class="b" d="m17.5,2H6.5c-2.48,0-4.5,2.02-4.5,4.5v11c0,2.48,2.02,4.5,4.5,4.5h11c2.48,0,4.5-2.02,4.5-4.5V6.5c0-2.48-2.02-4.5-4.5-4.5Zm1.5,15.5c0,.83-.67,1.5-1.5,1.5H6.5c-.83,0-1.5-.67-1.5-1.5V6.5c0-.83.67-1.5,1.5-1.5h11c.83,0,1.5.67,1.5,1.5v11Z"/><path class="b" d="m15.81,10.95l-1.39-.62c-.33-.15-.59-.41-.73-.73l-.62-1.41c-.18-.41-.59-.68-1.05-.69h0c-.45,0-.86.26-1.05.67h0s-.63,1.37-.63,1.37c-.14.3-.38.55-.68.7l-1.49.72c-.4.19-.66.61-.65,1.06,0,.45.28.86.69,1.04l1.42.63c.33.15.59.41.73.73l.62,1.4c.19.42.6.69,1.06.69s.87-.27,1.06-.69l.62-1.4c.15-.33.41-.59.73-.73l1.39-.62c.42-.19.69-.6.69-1.06s-.27-.87-.69-1.06Z"/></svg>