<svg xmlns="http://www.w3.org/2000/svg" viewBox="0 0 24 24" width="24" height="24"><path d="m20.13,11c.82,0,1.58-.45,1.97-1.17.4-.72.36-1.6-.08-2.29l-3.13-4.86c-.42-.65-1.12-1.03-1.89-1.03s-1.48.39-1.89,1.03l-3.13,4.86c-.45.69-.48,1.57-.08,2.29.39.72,1.15,1.17,1.97,1.17h6.25Zm-3.13-5.73l1.75,2.73h-3.5l1.75-2.73Z"/><path d="m18,13c-2.76,0-5,2.24-5,5s2.24,5,5,5,5-2.24,5-5-2.24-5-5-5Zm0,7c-1.1,0-2-.9-2-2s.9-2,2-2,2,.9,2,2-.9,2-2,2Z"/><path d="m8.75,13H3.25c-1.24,0-2.25,1.01-2.25,2.25v5.5c0,1.24,1.01,2.25,2.25,2.25h5.5c1.24,0,2.25-1.01,2.25-2.25v-5.5c0-1.24-1.01-2.25-2.25-2.25Zm-.75,7h-4v-4h4v4Z"/></svg>