<svg xmlns="http://www.w3.org/2000/svg" viewBox="0 0 24 24" width="24" height="24"><path d="m6,19h-1.5c-.83,0-1.5.67-1.5,1.5s.67,1.5,1.5,1.5h15c.83,0,1.5-.67,1.5-1.5s-.67-1.5-1.5-1.5h-1.5v-6c0-3.31-2.69-6-6-6s-6,2.69-6,6v6Zm3-6c0-1.65,1.35-3,3-3s3,1.35,3,3v6h-6v-6Z"/><path d="m12,5c.41,0,.75-.34.75-.75v-1.5c0-.41-.34-.75-.75-.75s-.75.34-.75.75v1.5c0,.41.34.75.75.75Z"/><path d="m22.25,11.5h-1.5c-.41,0-.75.34-.75.75s.34.75.75.75h1.5c.41,0,.75-.34.75-.75s-.34-.75-.75-.75Z"/><path d="m1.75,13h1.5c.41,0,.75-.34.75-.75s-.34-.75-.75-.75h-1.5c-.41,0-.75.34-.75.75s.34.75.75.75Z"/><path d="m18.16,6.84c.19,0,.38-.07.53-.22l1.12-1.12c.29-.29.29-.77,0-1.06s-.77-.29-1.06,0l-1.12,1.12c-.29.29-.29.77,0,1.06.15.15.34.22.53.22Z"/><path d="m5.31,6.62c.15.15.34.22.53.22s.38-.07.53-.22c.29-.29.29-.77,0-1.06l-1.12-1.12c-.29-.29-.77-.29-1.06,0s-.29.77,0,1.06l1.12,1.12Z"/></svg>