<svg xmlns="http://www.w3.org/2000/svg" viewBox="0 0 24 24" width="24" height="24"><path d="m20.41,2.71c-.86-1.08-2.15-1.71-3.53-1.71H7.12c-1.38,0-2.67.62-3.53,1.71l-1.94,2.45c-.42.53-.65,1.19-.65,1.86v.31c0,1.09.39,2.09,1.03,2.89-.02.09-.03.18-.03.28v8c0,2.48,2.02,4.5,4.5,4.5h11c2.48,0,4.5-2.02,4.5-4.5v-8c0-.1-.01-.19-.03-.28.63-.8,1.03-1.79,1.03-2.89v-.31c0-.67-.23-1.33-.65-1.86l-1.94-2.45Zm-4.35,1.29h.82c.46,0,.89.21,1.18.57l1.94,2.45v.31c0,.92-.75,1.67-1.67,1.67s-1.67-.75-1.67-1.67v-.83l-.61-2.5Zm-5.72,2.69l.71-2.69h1.91l.71,2.69v.64c0,.92-.75,1.67-1.67,1.67s-1.67-.75-1.67-1.67v-.64Zm-6.33.33l1.94-2.45c.29-.36.72-.57,1.18-.57h.82l-.56,2.12-.05,1.22c0,.92-.75,1.67-1.67,1.67s-1.67-.75-1.67-1.67v-.31Zm10.5,12.98h-5v-2c0-1.38,1.12-2.5,2.5-2.5s2.5,1.12,2.5,2.5v2Zm3,0h-1.5v-2c0-2.21-1.79-4-4-4s-4,1.79-4,4v2h-1.5c-.83,0-1.5-.67-1.5-1.5v-6.57c.22.03.44.07.67.07,1.23,0,2.33-.48,3.17-1.26.83.78,1.94,1.26,3.17,1.26s2.33-.48,3.17-1.26c.83.78,1.94,1.26,3.17,1.26.23,0,.45-.04.67-.07v6.57c0,.83-.67,1.5-1.5,1.5Z"/></svg>