<svg xmlns="http://www.w3.org/2000/svg" viewBox="0 0 24 24" width="24" height="24"><path d="m21.5,1h-5.03c-.75,0-1.45.33-1.93.91L6.39,11.77l-.95-.95c-.28-.28-.44-.66-.44-1.06v-1.26c0-.83-.67-1.5-1.5-1.5s-1.5.67-1.5,1.5v1.26c0,1.2.47,2.33,1.32,3.18l2.1,2.1-3.28,3.28c-.78.78-.78,2.05,0,2.83l.71.71c.78.78,2.05.78,2.83,0l3.28-3.28,2.1,2.1c.85.85,1.98,1.32,3.18,1.32h1.26c.83,0,1.5-.67,1.5-1.5s-.67-1.5-1.5-1.5h-1.26c-.4,0-.78-.16-1.06-.44l-.95-.95,9.86-8.15c.58-.48.91-1.18.91-1.93V2.5c0-.83-.67-1.5-1.5-1.5Zm-1.5,6.29l-9.9,8.18-1.57-1.57,8.18-9.9h3.29v3.29Z"/></svg>