<svg xmlns="http://www.w3.org/2000/svg" viewBox="0 0 24 24" width="24" height="24"><path d="m21.5,11h-2.58c-.49-3.39-3.4-6-6.92-6s-6.43,2.61-6.92,6h-2.58c-.83,0-1.5.67-1.5,1.5s.67,1.5,1.5,1.5h19c.83,0,1.5-.67,1.5-1.5s-.67-1.5-1.5-1.5Zm-9.5-3c1.86,0,3.41,1.28,3.86,3h-7.72c.45-1.72,2-3,3.86-3Z"/><rect x="11.25" y="1" width="1.5" height="3" rx=".75" ry=".75"/><path d="m18,6c.29.29.77.29,1.06,0l.94-.94c.29-.29.29-.77,0-1.06-.29-.29-.77-.29-1.06,0l-.94.94c-.29.29-.29.77,0,1.06Z"/><path d="m4,4c-.29.29-.29.77,0,1.06l.94.94c.29.29.77.29,1.06,0,.29-.29.29-.77,0-1.06l-.94-.94c-.29-.29-.77-.29-1.06,0Z"/><path d="m8.5,16c-.41,0-.75.34-.75.75v.5c0,.41.34.75.75.75s.75-.34.75-.75v-.5c0-.41-.34-.75-.75-.75Z"/><path d="m8.5,19c-.41,0-.75.34-.75.75v.5c0,.41.34.75.75.75s.75-.34.75-.75v-.5c0-.41-.34-.75-.75-.75Z"/><path d="m12,17c-.41,0-.75.34-.75.75v.5c0,.41.34.75.75.75s.75-.34.75-.75v-.5c0-.41-.34-.75-.75-.75Z"/><path d="m12,20c-.41,0-.75.34-.75.75v.5c0,.41.34.75.75.75s.75-.34.75-.75v-.5c0-.41-.34-.75-.75-.75Z"/><path d="m15.5,16c-.41,0-.75.34-.75.75v.5c0,.41.34.75.75.75s.75-.34.75-.75v-.5c0-.41-.34-.75-.75-.75Z"/><path d="m19,16c-.41,0-.75.34-.75.75v.5c0,.41.34.75.75.75s.75-.34.75-.75v-.5c0-.41-.34-.75-.75-.75Z"/><path d="m5,16c-.41,0-.75.34-.75.75v.5c0,.41.34.75.75.75s.75-.34.75-.75v-.5c0-.41-.34-.75-.75-.75Z"/><path d="m15.5,19c-.41,0-.75.34-.75.75v.5c0,.41.34.75.75.75s.75-.34.75-.75v-.5c0-.41-.34-.75-.75-.75Z"/></svg>