<svg xmlns="http://www.w3.org/2000/svg" width="24" height="24" viewBox="0 0 24 24"><path d="M19 1H5C2.79 1 1 2.79 1 5v2c0 2.21 1.79 4 4 4h14c2.21 0 4-1.79 4-4V5c0-2.21-1.79-4-4-4m1 6c0 .55-.45 1-1 1H5c-.55 0-1-.45-1-1V5c0-.55.45-1 1-1h14c.55 0 1 .45 1 1zM19 13H5c-2.21 0-4 1.79-4 4v2c0 2.21 1.79 4 4 4h14c2.21 0 4-1.79 4-4v-2c0-2.21-1.79-4-4-4m1 6c0 .55-.45 1-1 1H5c-.55 0-1-.45-1-1v-2c0-.55.45-1 1-1h14c.55 0 1 .45 1 1z"/><path d="M18 5a1 1 0 1 0 0 2 1 1 0 1 0 0-2M15 5a1 1 0 1 0 0 2 1 1 0 1 0 0-2M18 17a1 1 0 1 0 0 2 1 1 0 1 0 0-2M15 17a1 1 0 1 0 0 2 1 1 0 1 0 0-2"/></svg>