<svg xmlns="http://www.w3.org/2000/svg" viewBox="0 0 24 24" width="24" height="24"><path d="m22,10.51V3.5c0-1.38-1.12-2.5-2.5-2.5h-1c-3.03,0-5.5,2.47-5.5,5.5v4.01c-.6.46-1,1.17-1,1.99v7c0,1.93,1.57,3.5,3.5,3.5h4c1.93,0,3.5-1.57,3.5-3.5v-7c0-.81-.4-1.53-1-1.99Zm-3.5-6.51h.5v6h-3v-3.5c0-1.38,1.12-2.5,2.5-2.5Zm1.5,15.5c0,.28-.22.5-.5.5h-4c-.28,0-.5-.22-.5-.5v-6.5h5v6.5Z"/><path d="m18.25,19c.41,0,.75-.34.75-.75v-3.5c0-.41-.34-.75-.75-.75s-.75.34-.75.75v3.5c0,.41.34.75.75.75Z"/><path d="m6.5,20H2.5c-.83,0-1.5.67-1.5,1.5s.67,1.5,1.5,1.5h4c1.93,0,3.5-1.57,3.5-3.5V4.5c0-1.93-1.57-3.5-3.5-3.5H2.5c-.83,0-1.5.67-1.5,1.5s.67,1.5,1.5,1.5h4c.28,0,.5.22.5.5v1.25H2.5c-.83,0-1.5.67-1.5,1.5s.67,1.5,1.5,1.5h4.5v1.75H2.5c-.83,0-1.5.67-1.5,1.5s.67,1.5,1.5,1.5h4.5v1.75H2.5c-.83,0-1.5.67-1.5,1.5s.67,1.5,1.5,1.5h4.5v1.25c0,.28-.22.5-.5.5Z"/></svg>