<svg xmlns="http://www.w3.org/2000/svg" viewBox="0 0 24 24" width="24" height="24"><path d="m21.62 10.72.1-.89c.13-1.17-.27-2.32-1.1-3.15-.61-.61-1.39-.97-2.23-1.08-.11-.84-.47-1.62-1.08-2.23a3.84 3.84 0 0 0-3.15-1.1l-.93.11c-.13-.19-.27-.37-.44-.54a3.79 3.79 0 0 0-3.66-1A3.78 3.78 0 0 0 6.4 3.47l-2.51 8.54-1.22 1.22C1.59 14.31 1 15.75 1 17.27s.59 2.96 1.68 4.04c1.08 1.08 2.52 1.67 4.04 1.67s2.96-.59 4.04-1.67l1.22-1.22 8.54-2.51a3.83 3.83 0 0 0 2.64-2.73 3.81 3.81 0 0 0-1-3.66c-.18-.18-.36-.34-.53-.48ZM4 17.28c0-.73.28-1.41.8-1.92l.22-.22 3.85 3.85-.22.22c-1.03 1.03-2.82 1.03-3.84 0-.51-.51-.8-1.2-.8-1.92Zm6.68-13.31c.12.12.2.26.23.43l.27 1.36-4.36 6.98 2.47-8.41a.81.81 0 0 1 .6-.57c.14-.03.49-.08.8.22Zm3.83 1.29c.15-.02.44 0 .69.24.16.16.24.37.24.59V7.5l-7.23 7.23-.54-.54 5.03-7.98c.07-.12.13-.24.19-.37l.21-.34.92-.18.48-.06Zm4.23 4.23-.15 1.35-.43.27c-.12.06-.25.11-.37.19l-7.98 5.03-.14-.14-.4-.4 7.23-7.23h1.41c.22 0 .43.09.59.25.25.25.26.54.24.69Zm-7.47 7.69 7.42-4.64.77.32c.08.03.25.13.57.45s.25.66.22.8c-.04.14-.16.47-.57.6z"/></svg>