<svg xmlns="http://www.w3.org/2000/svg" width="24" height="24" viewBox="0 0 24 24"><path d="M2 18.5C2 20.98 4.02 23 6.5 23h11c2.48 0 4.5-2.02 4.5-4.5V8.11c0-.61-.12-1.2-.36-1.76l-1.5-3.52A3 3 0 0 0 17.38 1H6.62c-1.21 0-2.29.72-2.76 1.83l-1.5 3.52C2.12 6.91 2 7.5 2 8.11zM17.38 4l.85 2H5.77l.85-2h10.77ZM5 9h14v9.5c0 .83-.67 1.5-1.5 1.5h-11c-.83 0-1.5-.67-1.5-1.5z"/><path d="M12 15.75c2.32 0 4.25-1.67 4.67-3.87.09-.46-.28-.88-.75-.88a.74.74 0 0 0-.73.6c-.28 1.51-1.61 2.65-3.19 2.65s-2.91-1.14-3.19-2.65a.74.74 0 0 0-.73-.6c-.47 0-.83.42-.75.88.41 2.2 2.35 3.87 4.67 3.87"/></svg>