<svg xmlns="http://www.w3.org/2000/svg" width="24" height="24" viewBox="0 0 24 24"><path d="M3.5 15c-.83 0-1.5.67-1.5 1.5v2c0 .83.67 1.5 1.5 1.5S5 19.33 5 18.5v-2c0-.83-.67-1.5-1.5-1.5M7.75 12c-.83 0-1.5.67-1.5 1.5v5c0 .83.67 1.5 1.5 1.5s1.5-.67 1.5-1.5v-5c0-.83-.67-1.5-1.5-1.5M12 16c-.83 0-1.5.67-1.5 1.5v1c0 .83.67 1.5 1.5 1.5s1.5-.67 1.5-1.5v-1c0-.83-.67-1.5-1.5-1.5M20.98 19.92c.59-.2 1.02-.75 1.02-1.42v-14c0-.83-.67-1.5-1.5-1.5S19 3.67 19 4.5v13.44l-1.25-1.25V7.5c0-.83-.67-1.5-1.5-1.5s-1.5.67-1.5 1.5v6.19l-1.25-1.25V10.5c0-.83-.67-1.5-1.5-1.5-.53 0-.99.27-1.26.68L2.28 1.22c-.29-.29-.77-.29-1.06 0s-.29.77 0 1.06l20.5 20.5c.15.15.34.22.53.22s.38-.07.53-.22c.29-.29.29-.77 0-1.06z"/></svg>