<svg xmlns="http://www.w3.org/2000/svg" viewBox="0 0 24 24" width="24" height="24"><path d="m14.93,1.77c-2.55,1-5.31,2.92-7.78,5.38-2.2,2.2-4,4.7-5.06,7.03-.75,1.66-.38,3.66.94,4.98l1.8,1.8c.87.87,2.03,1.33,3.19,1.33.61,0,1.22-.12,1.79-.38,2.33-1.06,4.82-2.85,7.03-5.06,5.57-5.57,7.69-11.85,4.92-14.62-1.46-1.46-3.89-1.62-6.84-.46ZM4.83,15.42c.91-2.01,2.49-4.19,4.45-6.15,2.18-2.18,4.58-3.86,6.76-4.71.95-.37,1.8-.56,2.46-.56.15,0,.29.01.42.03l-13.38,13.38-.37-.37c-.44-.44-.57-1.09-.33-1.62Zm9.9-.69c-1.96,1.96-4.14,3.53-6.15,4.45-.53.24-1.18.1-1.62-.33l-.37-.37,13.38-13.38c.29,1.77-1.28,5.67-5.25,9.64Z"/></svg>