<svg xmlns="http://www.w3.org/2000/svg" viewBox="0 0 24 24" width="24" height="24"><path d="m16,11c1.65,0,3-1.35,3-3s-1.35-3-3-3-3,1.35-3,3c0,.55.16,1.07.43,1.51l-1.61,1.61-4.92-4.92c-.51-.51-1.21-.77-1.93-.73-.72.05-1.39.4-1.82.97-2.83,3.67-2.8,8.76-.1,12.4l-1.6,1.6c-.59.59-.59,1.54,0,2.12.29.29.68.44,1.06.44s.77-.15,1.06-.44l1.6-1.6c1.81,1.34,3.97,2.03,6.14,2.03s4.41-.7,6.26-2.13c.57-.44.92-1.1.97-1.82s-.22-1.43-.73-1.93l-4.92-4.92,1.61-1.61c.45.26.96.43,1.51.43Zm-9.87,6.87c-2.45-2.45-2.82-6.28-.95-9.14l10.09,10.09c-2.85,1.87-6.69,1.5-9.14-.95Zm9.87-11.37c.83,0,1.5.67,1.5,1.5s-.67,1.5-1.5,1.5-1.5-.67-1.5-1.5.67-1.5,1.5-1.5Z"/><path d="m20.95,3.05c-.67-.67-1.45-1.19-2.32-1.54-1.68-.68-3.59-.68-5.27,0-.38.16-.57.59-.41.98.16.38.59.57.98.41,1.32-.53,2.82-.53,4.14,0,.68.28,1.29.68,1.82,1.21s.93,1.14,1.21,1.82c.27.66.4,1.35.4,2.07s-.14,1.41-.4,2.07c-.16.38.03.82.41.98.09.04.19.06.28.06.3,0,.58-.18.7-.47.34-.84.51-1.72.51-2.63s-.17-1.8-.51-2.63c-.35-.87-.87-1.65-1.54-2.32Z"/></svg>