<svg xmlns="http://www.w3.org/2000/svg" viewBox="0 0 24 24" width="24" height="24"><path d="m21.5,11h-2.58c-.49-3.39-3.4-6-6.92-6s-6.43,2.61-6.92,6h-2.58c-.83,0-1.5.67-1.5,1.5s.67,1.5,1.5,1.5h19c.83,0,1.5-.67,1.5-1.5s-.67-1.5-1.5-1.5Zm-9.5-3c1.86,0,3.41,1.28,3.86,3h-7.72c.45-1.72,2-3,3.86-3Z"/><rect x="11.25" y="1" width="1.5" height="3" rx=".75" ry=".75"/><path d="m18,6c.29.29.77.29,1.06,0l.94-.94c.29-.29.29-.77,0-1.06-.29-.29-.77-.29-1.06,0l-.94.94c-.29.29-.29.77,0,1.06Z"/><path d="m4,5.06l.94.94c.29.29.77.29,1.06,0,.29-.29.29-.77,0-1.06l-.94-.94c-.29-.29-.77-.29-1.06,0-.29.29-.29.77,0,1.06Z"/><path d="m6.34,16.08c-.37-.18-.82-.04-1.01.34l-2.25,4.5c-.19.37-.04.82.34,1.01.11.05.22.08.33.08.27,0,.54-.15.67-.42l2.25-4.5c.19-.37.04-.82-.34-1.01Z"/><path d="m7.41,21.92c.11.05.22.08.33.08.27,0,.54-.15.67-.42l2.25-4.5c.19-.37.04-.82-.34-1.01-.37-.18-.82-.04-1.01.34l-2.25,4.5c-.19.37-.04.82.34,1.01Z"/><path d="m14.34,16.08c-.37-.18-.82-.04-1.01.34l-2.25,4.5c-.19.37-.04.82.34,1.01.11.05.22.08.33.08.27,0,.54-.15.67-.42l2.25-4.5c.19-.37.04-.82-.34-1.01Z"/><path d="m18.34,16.08c-.37-.18-.82-.04-1.01.34l-2.25,4.5c-.19.37-.04.82.34,1.01.11.05.22.08.33.08.27,0,.54-.15.67-.42l2.25-4.5c.19-.37.04-.82-.34-1.01Z"/></svg>