<svg xmlns="http://www.w3.org/2000/svg" viewBox="0 0 24 24" width="24" height="24"><path d="m12.5,1h-1C5.71,1,1,5.71,1,11.5v10c0,.83.67,1.5,1.5,1.5s1.5-.67,1.5-1.5v-10c0-4.14,3.36-7.5,7.5-7.5h1c4.14,0,7.5,3.36,7.5,7.5v10c0,.83.67,1.5,1.5,1.5s1.5-.67,1.5-1.5v-10c0-5.79-4.71-10.5-10.5-10.5Z"/><path d="m12.5,6h-1c-3.03,0-5.5,2.47-5.5,5.5v6c0,1.21.86,2.22,2,2.45v.05l-1.48,2.22c-.22.33.02.78.42.78h1.07c.16,0,.31-.07.4-.2l.45-.6c.09-.13.24-.2.4-.2h5.5c.16,0,.31.07.4.2l.45.6c.09.13.24.2.4.2h1.07c.4,0,.64-.45.42-.78l-1.48-2.22v-.05c1.14-.23,2-1.24,2-2.45v-6c0-3.03-2.47-5.5-5.5-5.5Zm-3.5,5.5c0-1.38,1.12-2.5,2.5-2.5h1c1.38,0,2.5,1.12,2.5,2.5v1c0,.28-.22.5-.5.5h-5c-.28,0-.5-.22-.5-.5v-1Zm0,6.5c-.55,0-1-.45-1-1s.45-1,1-1,1,.45,1,1-.45,1-1,1Zm6,0c-.55,0-1-.45-1-1s.45-1,1-1,1,.45,1,1-.45,1-1,1Z"/></svg>