<svg xmlns="http://www.w3.org/2000/svg" viewBox="0 0 24 24" width="24" height="24"><path d="m11.85,10.23l-3.09-3.09c-.97-.97-2.56-.97-3.54,0l-3.09,3.09c-.97.97-.97,2.56,0,3.54l3.09,3.09c.49.49,1.13.73,1.77.73s1.28-.24,1.77-.73l3.09-3.09c.97-.97.97-2.56,0-3.54Zm-4.85,4.15l-2.38-2.38,2.38-2.38,2.38,2.38-2.38,2.38Z"/><path d="m17.75,12.5c-2.9,0-5.25,2.36-5.25,5.25s2.35,5.25,5.25,5.25,5.25-2.36,5.25-5.25-2.35-5.25-5.25-5.25Zm0,7.5c-1.24,0-2.25-1.01-2.25-2.25s1.01-2.25,2.25-2.25,2.25,1.01,2.25,2.25-1.01,2.25-2.25,2.25Z"/><path d="m13.02,7.31l2.75,2.62c.48.46,1.11.69,1.73.69s1.24-.23,1.72-.69l2.75-2.62s.07-.07.1-.1c.85-.98,1.13-2.25.78-3.5-.35-1.24-1.33-2.22-2.55-2.56-.97-.27-1.96-.16-2.8.29-.84-.45-1.82-.56-2.8-.29-1.23.34-2.21,1.32-2.56,2.56-.35,1.25-.07,2.52.78,3.5.03.04.06.07.1.1Zm2.01-2.79c.06-.22.26-.42.48-.49.43-.12.7.11.82.25.57.71,1.77.71,2.34,0,.12-.15.38-.38.82-.25.22.06.41.26.48.49h0c.07.25.03.48-.12.67l-2.34,2.23-2.34-2.23c-.15-.2-.19-.42-.12-.67Z"/></svg>