<svg xmlns="http://www.w3.org/2000/svg" viewBox="0 0 24 24" width="24" height="24"><path class="b" d="m12,1C5.93,1,1,5.93,1,12s4.93,11,11,11,11-4.93,11-11S18.07,1,12,1Zm0,19c-4.41,0-8-3.59-8-8S7.59,4,12,4s8,3.59,8,8-3.59,8-8,8Z"/><path class="b" d="m15.81,10.95l-1.39-.62c-.33-.15-.59-.41-.73-.73l-.62-1.41c-.18-.41-.59-.68-1.05-.69h0c-.45,0-.86.26-1.05.67h0s-.63,1.37-.63,1.37c-.14.3-.38.55-.68.7l-1.49.72c-.4.19-.66.61-.65,1.06,0,.45.28.86.69,1.04l1.42.63c.33.15.59.41.73.73l.62,1.4c.19.42.6.69,1.06.69s.87-.27,1.06-.69l.62-1.4c.15-.33.41-.59.73-.73l1.39-.62c.42-.19.69-.6.69-1.06s-.27-.87-.69-1.06Z"/></svg>