<svg xmlns="http://www.w3.org/2000/svg" viewBox="0 0 24 24" width="24" height="24"><path d="m6.03,2.53c-.22-.35-.68-.46-1.03-.24-1.25.78-2.28,1.88-2.99,3.2l1.33.7c.58-1.08,1.43-1.99,2.46-2.63.35-.22.46-.68.24-1.03Z"/><path d="m13.59,16.84c.13,0,.27-.04.39-.11,1.26-.78,2.3-1.89,2.99-3.18,0-.01.04-.07.04-.08.19-.37.03-.79-.33-.98-.36-.19-.83-.03-1.02.33-.58,1.08-1.44,2-2.48,2.64-.35.22-.46.68-.24,1.03.14.23.39.35.64.35Z"/><path d="m1.72,9.01c-.41.01-.74.36-.72.78.05,1.49.5,2.94,1.28,4.2.14.23.39.35.64.35.14,0,.27-.04.4-.11.35-.22.46-.68.24-1.03-.65-1.04-1.01-2.24-1.06-3.46-.01-.41-.35-.74-.78-.72Z"/><path d="m13.79,3c.19-.37.05-.82-.31-1.01-1.22-.65-2.6-.99-3.97-.99-.1,0-.21,0-.31,0-.41.02-.74.36-.72.78s.36.73.78.72c.07,0,.15,0,.23,0,1.11-.03,2.28.28,3.3.82.11.06.23.09.35.09.27,0,.53-.15.66-.4Z"/><path d="m17.45,6.53c-.2-.54-.44-1.06-.75-1.55-.22-.35-.68-.46-1.03-.24-.35.22-.46.68-.24,1.03.65,1.04,1.02,2.23,1.06,3.46.02.4.35.72.75.72,0,0,.02,0,.03,0,.07,0,.14-.03.2-.05,1.53.99,2.52,2.69,2.52,4.59,0,3.03-2.47,5.5-5.5,5.5-1.74,0-3.32-.83-4.33-2.14.2-.14.34-.37.33-.63-.01-.41-.35-.74-.78-.72h-.23c-1.14,0-2.28-.28-3.29-.82-.37-.19-.82-.06-1.02.31-.2.37-.06.82.31,1.02.34.18.69.33,1.04.46,1.22,3.3,4.38,5.54,7.96,5.54,4.69,0,8.5-3.81,8.5-8.5,0-3.59-2.25-6.75-5.55-7.97Z"/></svg>