<svg xmlns="http://www.w3.org/2000/svg" width="24" height="24" viewBox="0 0 24 24"><path d="M10.34 2.5c.41 0 .75-.34.75-.75S10.75 1 10.34 1h-3c-.41 0-.75.34-.75.75s.34.75.75.75zM16.25 5.14c.41 0 .75-.34.75-.75v-.64C17 2.23 15.77 1 14.25 1h-.64c-.41 0-.75.34-.75.75s.34.75.75.75h.64c.69 0 1.25.56 1.25 1.25v.64c0 .41.34.75.75.75M4.39 1h-.64C2.23 1 1 2.23 1 3.75v.64c0 .41.34.75.75.75s.75-.34.75-.75v-.64c0-.69.56-1.25 1.25-1.25h.64c.41 0 .75-.34.75-.75S4.8 1 4.39 1M10.66 15.5H8.5v-1.83c0-.41-.34-.75-.75-.75s-.75.34-.75.75v2.25c-.05.1-.09.21-.09.33s.03.23.09.33v.08c0 .41.34.75.75.75.29 0 .54-.17.66-.42h2.25c.41 0 .75-.34.75-.75s-.34-.75-.75-.75ZM1.75 11.42c.41 0 .75-.34.75-.75v-3c0-.41-.34-.75-.75-.75S1 7.26 1 7.67v3c0 .41.34.75.75.75M4.39 15.5h-.64c-.69 0-1.25-.56-1.25-1.25v-.64c0-.41-.34-.75-.75-.75s-.75.34-.75.75v.64C1 15.77 2.23 17 3.75 17h.64c.41 0 .75-.34.75-.75s-.34-.75-.75-.75M13.61 17h.64c1.52 0 2.75-1.23 2.75-2.75v-.64c0-.41-.34-.75-.75-.75s-.75.34-.75.75v.64c0 .69-.56 1.25-1.25 1.25h-.64c-.41 0-.75.34-.75.75s.34.75.75.75M15.5 8.5v1.83c0 .41.34.75.75.75s.75-.34.75-.75V8.08c.05-.1.09-.21.09-.33s-.03-.23-.09-.33v-.08c0-.41-.34-.75-.75-.75-.29 0-.54.17-.66.42h-2.25c-.41 0-.75.34-.75.75s.34.75.75.75h2.16ZM20.25 7h-.64c-.41 0-.75.34-.75.75s.34.75.75.75h.64c.69 0 1.25.56 1.25 1.25v.64c0 .41.34.75.75.75s.75-.34.75-.75v-.64C23 8.23 21.77 7 20.25 7M9.75 7C8.23 7 7 8.23 7 9.75v.64c0 .41.34.75.75.75s.75-.34.75-.75v-.64c0-.69.56-1.25 1.25-1.25h.64c.41 0 .75-.34.75-.75S10.8 7 10.39 7zM16.66 21.5h-3c-.41 0-.75.34-.75.75s.34.75.75.75h3c.41 0 .75-.34.75-.75s-.34-.75-.75-.75M22.25 12.58c-.41 0-.75.34-.75.75v3c0 .41.34.75.75.75s.75-.34.75-.75v-3c0-.41-.34-.75-.75-.75M10.39 21.5h-.64c-.69 0-1.25-.56-1.25-1.25v-.64c0-.41-.34-.75-.75-.75s-.75.34-.75.75v.64C7 21.77 8.23 23 9.75 23h.64c.41 0 .75-.34.75-.75s-.34-.75-.75-.75M22.25 18.86c-.41 0-.75.34-.75.75v.64c0 .69-.56 1.25-1.25 1.25h-.64c-.41 0-.75.34-.75.75s.34.75.75.75h.64c1.52 0 2.75-1.23 2.75-2.75v-.64c0-.41-.34-.75-.75-.75"/></svg>