<svg xmlns="http://www.w3.org/2000/svg" viewBox="0 0 24 24" width="24" height="24"><path d="m8.12,8l.4-.4c1.1-1.1,2.77-1.3,4.09-.61l-2.09,2.24c.42-.13.89-.22,1.47-.22,1.74,0,2.65.76,3.39,1.37.64.53,1.1.91,2.11.91s1.48-.38,2.11-.91c.15-.13.32-.26.49-.39l-4.51-4.51c-2.54-2.54-6.65-2.54-9.19,0l-.4.4c-.59.59-.59,1.54,0,2.12.59.59,1.54.59,2.12,0Z"/><path d="m20.93,11.41c-.7.31-1.22.73-1.64,1.08-.62.51-.96.8-1.79.8s-1.17-.28-1.79-.8c-.76-.63-1.79-1.49-3.71-1.49s-2.95.86-3.71,1.49c-.62.51-.96.8-1.79.8s-1.17-.28-1.79-.8c-.42-.35-.93-.78-1.64-1.08-.98-.42-2.07.28-2.07,1.35h0c0,.59.31,1.17.86,1.4.31.13.58.35.93.64.76.63,1.79,1.49,3.71,1.49s2.95-.86,3.71-1.49c.62-.51.96-.8,1.79-.8s1.17.28,1.79.8c.76.63,1.79,1.49,3.71,1.49s2.95-.86,3.71-1.49c.35-.29.62-.51.93-.64.54-.23.86-.81.86-1.4,0-1.06-1.09-1.77-2.07-1.35Z"/><path d="m20.93,17.12c-.7.31-1.22.73-1.64,1.08-.62.51-.96.8-1.79.8s-1.17-.28-1.79-.8c-.76-.63-1.79-1.49-3.71-1.49s-2.95.86-3.71,1.49c-.62.51-.96.8-1.79.8s-1.17-.28-1.79-.8c-.42-.35-.93-.78-1.64-1.08-.98-.42-2.07.28-2.07,1.35h0c0,.59.31,1.17.86,1.4.31.13.58.35.93.64.76.63,1.79,1.49,3.71,1.49s2.95-.86,3.71-1.49c.62-.51.96-.8,1.79-.8s1.17.28,1.79.8c.76.63,1.79,1.49,3.71,1.49s2.95-.86,3.71-1.49c.35-.29.62-.51.93-.64.54-.23.86-.81.86-1.4,0-1.06-1.09-1.77-2.07-1.35Z"/><path d="m19.5,7c1.38,0,2.5-1.12,2.5-2.5s-1.12-2.5-2.5-2.5-2.5,1.12-2.5,2.5,1.12,2.5,2.5,2.5Z"/></svg>