<svg xmlns="http://www.w3.org/2000/svg" viewBox="0 0 24 24" width="24" height="24"><path d="m7.5,23h9c2.48,0,4.5-2.02,4.5-4.5V6.62c0-.79-.32-1.56-.88-2.12l-2.62-2.62c-.56-.56-1.33-.88-2.12-.88h-7.88c-2.48,0-4.5,2.02-4.5,4.5v13c0,2.48,2.02,4.5,4.5,4.5Zm-1.5-17.5c0-.83.67-1.5,1.5-1.5h7.88l2.62,2.62v11.88c0,.83-.67,1.5-1.5,1.5H7.5c-.83,0-1.5-.67-1.5-1.5V5.5Z"/><path d="m8,9c.55,0,1-.45,1-1v-2c0-.55-.45-1-1-1s-1,.45-1,1v2c0,.55.45,1,1,1Z"/><path d="m11,9c.55,0,1-.45,1-1v-2c0-.55-.45-1-1-1s-1,.45-1,1v2c0,.55.45,1,1,1Z"/><path d="m14,9c.55,0,1-.45,1-1v-2c0-.55-.45-1-1-1s-1,.45-1,1v2c0,.55.45,1,1,1Z"/></svg>