<svg xmlns="http://www.w3.org/2000/svg" viewBox="0 0 24 24" width="24" height="24"><path d="m21.4 8.45.77-.38c.4-.2.69-.56.79-1 .1-.43 0-.89-.26-1.24l-2.72-3.62c-.56-.75-1.46-1.2-2.4-1.2H6.42c-.94 0-1.83.45-2.4 1.2L1.3 5.83c-.27.36-.36.81-.26 1.24s.39.8.79 1l.77.38-.63 1.26A9.3 9.3 0 0 0 1 13.82c0 2.69 1.7 5.14 4.22 6.09l3.8 1.42c.73.27 1.37.69 1.92 1.24a1.5 1.5 0 0 0 2.12 0c.55-.55 1.19-.96 1.92-1.24l3.8-1.43c2.52-.95 4.22-3.39 4.22-6.08a9.3 9.3 0 0 0-.97-4.11zm-3.67 8.64-3.8 1.43c-.69.26-1.34.6-1.93 1.02-.59-.42-1.23-.76-1.93-1.02l-3.8-1.42A3.52 3.52 0 0 1 4 13.82c0-.96.23-1.91.65-2.77l.85-1.7c.3-.6.35-1.28.14-1.91-.17-.5-.47-.92-.88-1.22l1.66-2.21h11.17l1.66 2.21c-.41.3-.72.73-.88 1.22-.21.63-.16 1.31.14 1.91l.85 1.7c.43.85.65 1.81.65 2.77 0 1.45-.91 2.77-2.27 3.28Z"/></svg>