<svg xmlns="http://www.w3.org/2000/svg" viewBox="0 0 24 24" width="24" height="24"><path d="M8 8A2 2.5 0 1 0 8 13 2 2.5 0 1 0 8 8z"/><path d="M16 8A2 2.5 0 1 0 16 13 2 2.5 0 1 0 16 8z"/><path d="m12,1C5.93,1,1,5.26,1,10.5c0,2.44,1.06,4.75,3,6.52v2.48c0,1.38,1.12,2.5,2.5,2.5h11c1.38,0,2.5-1.12,2.5-2.5v-2.48c1.94-1.77,3-4.08,3-6.52,0-5.24-4.93-9.5-11-9.5Zm5.86,13.9c-.55.48-.86,1.17-.86,1.88v2.22h-2.25v-2.25c0-.41-.34-.75-.75-.75s-.75.34-.75.75v2.25h-2.5v-2.25c0-.41-.34-.75-.75-.75s-.75.34-.75.75v2.25h-2.25v-2.22c0-.71-.32-1.4-.86-1.88-1.38-1.21-2.14-2.77-2.14-4.4,0-3.58,3.59-6.5,8-6.5s8,2.92,8,6.5c0,1.63-.76,3.19-2.14,4.4Z"/></svg>