<svg xmlns="http://www.w3.org/2000/svg" width="24" height="24" viewBox="0 0 24 24"><path d="M15 12.75c-.41 0-.75.34-.75.75v.75h-.75c-.41 0-.75.34-.75.75s.34.75.75.75H15c.41 0 .75-.34.75-.75v-1.5c0-.41-.34-.75-.75-.75M10.5 8.25H9c-.41 0-.75.34-.75.75v1.5c0 .41.34.75.75.75s.75-.34.75-.75v-.75h.75c.41 0 .75-.34.75-.75s-.34-.75-.75-.75"/><path d="M19.5 7H17V4.5C17 2.57 15.43 1 13.5 1h-9C2.57 1 1 2.57 1 4.5v9C1 15.43 2.57 17 4.5 17H7v2.5c0 1.93 1.57 3.5 3.5 3.5h9c1.93 0 3.5-1.57 3.5-3.5v-9C23 8.57 21.43 7 19.5 7m.5 12.5c0 .28-.22.5-.5.5h-9c-.28 0-.5-.22-.5-.5V16c0-.09-.01-.17-.03-.25h.53c.41 0 .75-.34.75-.75s-.34-.75-.75-.75h-.75v-.75c0-.41-.34-.75-.75-.75s-.75.34-.75.75v.53C8.17 14.02 8.09 14 8 14H4.5c-.28 0-.5-.22-.5-.5v-9c0-.28.22-.5.5-.5h9c.28 0 .5.22.5.5V8c0 .09.01.17.03.25h-.53c-.41 0-.75.34-.75.75s.34.75.75.75h.75v.75c0 .41.34.75.75.75s.75-.34.75-.75v-.53c.08.01.16.03.25.03h3.5c.28 0 .5.22.5.5z"/></svg>