<svg xmlns="http://www.w3.org/2000/svg" width="24" height="24" viewBox="0 0 24 24"><path d="M21 12c0-.83-.67-1.5-1.5-1.5h-8.6c-.42 0-.81-.04-1.14-.11q-.42-.09-.72-.24c-.17-.08-.31-.18-.43-.3-.1-.1-.19-.21-.27-.34-.07-.12-.13-.26-.18-.41-.05-.16-.08-.32-.11-.46a3 3 0 0 1-.04-.47v-.52a1.2 1.2 0 0 1 .24-.47q.12-.165.3-.3c.14-.11.3-.22.47-.31.21-.11.44-.2.7-.28.3-.09.63-.16.98-.21.76-.1 1.72-.13 2.42.03.27.06.51.15.72.26.17.09.32.2.45.32.11.1.21.22.29.35.07.12.13.24.19.38.29.77 1.16 1.16 1.93.87s1.17-1.16.87-1.93c-.12-.32-.27-.62-.45-.91-.21-.34-.47-.65-.76-.93-.33-.31-.7-.58-1.11-.8-.44-.23-.93-.41-1.46-.53-1.06-.24-2.38-.23-3.49-.08-.51.07-1 .17-1.46.31-.43.13-.84.3-1.21.5-.36.19-.69.4-.98.65-.28.23-.53.48-.75.76-.2.25-.37.53-.51.81-.13.27-.23.54-.29.81s-.1.54-.1.8c0 .15 0 .34.01.56.01.24.03.5.08.78.05.33.12.64.22.94.05.17.14.31.21.47H4.5c-.83 0-1.5.67-1.5 1.5s.67 1.5 1.5 1.5h15c.83 0 1.5-.67 1.5-1.5M15.9 20.11a5.5 5.5 0 0 0 1.31-.97c.34-.33.63-.71.88-1.11.21-.34.38-.71.53-1.09a1.5 1.5 0 0 0-.89-1.93 1.5 1.5 0 0 0-1.93.89c-.07.2-.17.39-.27.56-.12.2-.26.38-.43.54-.19.18-.4.34-.65.47-.29.16-.62.28-.99.37-.91.21-2.15.19-3.06.03-.4-.07-.76-.17-1.06-.3-.25-.1-.47-.23-.65-.37-.14-.11-.27-.24-.37-.37-.08-.11-.15-.22-.21-.34a1.506 1.506 0 0 0-1.98-.76c-.76.34-1.09 1.23-.76 1.98.15.33.34.65.56.94.26.34.57.65.92.92.39.3.83.55 1.31.75.51.22 1.08.38 1.7.49.64.12 1.36.17 2.11.17s1.5-.08 2.16-.23c.63-.15 1.22-.37 1.74-.65Z"/></svg>