<svg xmlns="http://www.w3.org/2000/svg" viewBox="0 0 24 24" width="24" height="24"><path d="m17.33,15.21c1.05-1.47,1.67-3.27,1.67-5.21,0-4.96-4.04-9-9-9S1,5.04,1,10s4.04,9,9,9c1.94,0,3.73-.62,5.21-1.67l4.23,4.23c.29.29.68.44,1.06.44s.77-.15,1.06-.44c.59-.59.59-1.54,0-2.12l-4.23-4.23Zm-7.33.79c-3.31,0-6-2.69-6-6s2.69-6,6-6,6,2.69,6,6-2.69,6-6,6Z"/><path d="m13.28,6.72c-.29-.29-.77-.29-1.06,0l-2.22,2.22-2.22-2.22c-.29-.29-.77-.29-1.06,0s-.29.77,0,1.06l2.22,2.22-2.22,2.22c-.29.29-.29.77,0,1.06.15.15.34.22.53.22s.38-.07.53-.22l2.22-2.22,2.22,2.22c.15.15.34.22.53.22s.38-.07.53-.22c.29-.29.29-.77,0-1.06l-2.22-2.22,2.22-2.22c.29-.29.29-.77,0-1.06Z"/></svg>