<svg xmlns="http://www.w3.org/2000/svg" viewBox="0 0 24 24" width="24" height="24"><path d="m15.3,3.08c-3.56-.46-6.98,1.23-8.79,4.28-.16.02-.31.07-.46.1l-1.04-1.55c.58-.21.99-.76.99-1.41,0-.83-.67-1.5-1.5-1.5-.69,0-1.27.47-1.44,1.11-.17-.07-.36-.11-.56-.11-.83,0-1.5.67-1.5,1.5s.67,1.5,1.5,1.5c.44,0,.83-.19,1.1-.49l.97,1.45c-2.09,1.03-3.54,3.19-3.54,5.7,0,3.46,2.78,6.3,6.21,6.35h8.44c2.71,0,5.22-1.53,6.4-3.91.72-1.45,1.04-3.09.92-4.72-.3-4.19-3.61-7.76-7.7-8.29Zm4.09,11.68c-.68,1.36-2.14,2.24-3.71,2.24H7.25c-1.78-.02-3.23-1.52-3.23-3.35s1.43-3.31,3.2-3.35c.05,0,.1,0,.14.01.01,0,.03,0,.04,0,1.48.3,2.6,1.62,2.6,3.18,0,.41.34.75.75.75s.75-.34.75-.75c0-1.85-1.07-3.44-2.62-4.22,1.14-2.26,3.52-3.56,6.02-3.23,2.71.36,4.9,2.73,5.1,5.53.08,1.1-.14,2.2-.62,3.17Z"/></svg>