<svg xmlns="http://www.w3.org/2000/svg" viewBox="0 0 24 24" width="24" height="24"><path d="M12 1C5.93 1 1 5.93 1 12s4.93 11 11 11 11-4.93 11-11S18.07 1 12 1m-1.32 3.12c.04.29.07.58.07.88 0 .39-.04.78-.12 1.16q-.12.555-.33 1.08c-.14.34-.32.67-.53.98-.21.3-.44.59-.7.85s-.55.5-.85.7c-.31.21-.64.39-.98.53q-.525.225-1.08.33c-.67.14-1.37.15-2.04.04.56-3.35 3.21-5.99 6.56-6.56Zm2.65 15.76c-.04-.29-.07-.59-.07-.88 0-.39.04-.78.12-1.16q.12-.555.33-1.08a5.756 5.756 0 0 1 2.08-2.53c.31-.21.64-.39.98-.53q.525-.225 1.08-.33c.67-.14 1.37-.15 2.04-.04-.56 3.35-3.21 5.99-6.56 6.56Zm4.21-7.98c-.47.1-.92.24-1.36.42-.43.18-.84.41-1.23.67-.38.26-.74.56-1.07.88s-.62.69-.89 1.07c-.26.39-.49.8-.67 1.23-.18.44-.33.89-.42 1.36-.1.48-.15.97-.15 1.46 0 .33.03.66.08.99-4.27-.09-7.72-3.55-7.82-7.82.33.04.66.08.99.08.49 0 .98-.05 1.46-.15.47-.1.92-.24 1.36-.42.43-.18.84-.41 1.23-.67.38-.26.74-.56 1.07-.88s.63-.69.88-1.07c.26-.39.49-.8.67-1.23.19-.44.33-.9.42-1.36.1-.48.15-.97.15-1.46 0-.33-.03-.66-.08-.99 4.27.09 7.72 3.55 7.82 7.82-.81-.11-1.65-.09-2.45.07Z"/></svg>