<svg xmlns="http://www.w3.org/2000/svg" viewBox="0 0 24 24" width="24" height="24"><path d="m21.5,5h-3.5v-1c0-1.65-1.35-3-3-3h-6c-1.65,0-3,1.35-3,3v1h-3.5c-.83,0-1.5.67-1.5,1.5s.67,1.5,1.5,1.5h.5v10.5c0,2.48,2.02,4.5,4.5,4.5h9c2.48,0,4.5-2.02,4.5-4.5v-10.5h.5c.83,0,1.5-.67,1.5-1.5s-.67-1.5-1.5-1.5Zm-12.5-1h6v1h-6v-1Zm9,14.5c0,.83-.67,1.5-1.5,1.5H7.5c-.83,0-1.5-.67-1.5-1.5v-10.5h12v10.5Z"/><path d="m8.5,17.5c.29.29.77.29,1.06,0l2.44-2.44,2.44,2.44c.29.29.77.29,1.06,0,.29-.29.29-.77,0-1.06l-2.44-2.44,2.44-2.44c.29-.29.29-.77,0-1.06-.29-.29-.77-.29-1.06,0l-2.44,2.44-2.44-2.44c-.29-.29-.77-.29-1.06,0-.29.29-.29.77,0,1.06l2.44,2.44-2.44,2.44c-.29.29-.29.77,0,1.06Z"/></svg>