<svg xmlns="http://www.w3.org/2000/svg" viewBox="0 0 24 24" width="24" height="24"><path d="M9 14A1 1 0 1 0 9 16 1 1 0 1 0 9 14z"/><path d="M15 14A1 1 0 1 0 15 16 1 1 0 1 0 15 14z"/><path d="m15.5,4h-2.5v-1.5h3.25c.41,0,.75-.34.75-.75s-.34-.75-.75-.75H7.75c-.41,0-.75.34-.75.75s.34.75.75.75h3.25v1.5h-2.5c-2.48,0-4.5,2.02-4.5,4.5v8c0,1.93,1.57,3.5,3.5,3.5h.5l-2,3h2.25l.75-1h6l.75,1h2.25l-2-3h.5c1.93,0,3.5-1.57,3.5-3.5v-8c0-2.48-2.02-4.5-4.5-4.5Zm-7,3h7c.83,0,1.5.67,1.5,1.5v2.5H7v-2.5c0-.83.67-1.5,1.5-1.5Zm8,10H7.5c-.28,0-.5-.22-.5-.5v-4h10v4c0,.28-.22.5-.5.5Z"/></svg>