<svg xmlns="http://www.w3.org/2000/svg" viewBox="0 0 24 24" width="24" height="24"><path d="m19,1H5C2.79,1,1,2.79,1,5v14.5c0,1.93,1.57,3.5,3.5,3.5h10c1.93,0,3.5-1.57,3.5-3.5v-2.22h-.03c.02-.09.03-.18.03-.28V5c0-.55.45-1,1-1s1,.45,1,1v12.5c0,.83.67,1.5,1.5,1.5s1.5-.67,1.5-1.5V5c0-2.21-1.79-4-4-4Zm-4,15.04c-.35-.26-.82-.54-1.6-.54-.91,0-1.4.38-1.76.66-.29.22-.45.34-.84.34s-.55-.12-.84-.34c-.36-.28-.85-.66-1.76-.66s-1.4.38-1.76.66c-.29.22-.45.34-.84.34s-.55-.12-.84-.34c-.2-.15-.44-.33-.76-.46v-1.74c.35.26.81.54,1.6.54.9,0,1.4-.38,1.76-.66.29-.22.45-.34.84-.34s.55.12.84.34c.36.28.85.66,1.76.66s1.4-.38,1.76-.66c.29-.22.45-.34.84-.34s.56.12.84.34c.2.15.44.33.76.46v1.74Zm-.5,3.96H4.5c-.28,0-.5-.22-.5-.5v-2.04c.35.26.81.54,1.6.54.9,0,1.4-.38,1.76-.66.29-.22.45-.34.84-.34s.55.12.84.34c.36.28.85.66,1.76.66s1.4-.38,1.76-.66c.29-.22.45-.34.84-.34s.56.12.84.34c.2.15.44.33.76.46v1.7c0,.28-.22.5-.5.5Zm.5-15v7.54c-.35-.26-.82-.54-1.6-.54-.91,0-1.4.38-1.76.66-.29.22-.45.34-.84.34s-.55-.12-.84-.34c-.36-.28-.85-.66-1.76-.66s-1.4.38-1.76.66c-.29.22-.45.34-.84.34s-.55-.12-.84-.34c-.2-.15-.44-.33-.76-.46v-7.2c0-.55.45-1,1-1h10.14c-.08.32-.14.65-.14,1Z"/></svg>