<svg xmlns="http://www.w3.org/2000/svg" viewBox="0 0 24 24" width="24" height="24"><path d="m15.5,12c-.28,0-.5.22-.5.5v1c0,.28.22.5.5.5s.5-.22.5-.5v-1c0-.28-.22-.5-.5-.5Z"/><path d="m15.5,15c-.28,0-.5.22-.5.5v1c0,.28.22.5.5.5s.5-.22.5-.5v-1c0-.28-.22-.5-.5-.5Z"/><path d="m20.75,7h-.75v-3.41c0-.74-.37-1.44-.98-1.86-.61-.42-1.39-.51-2.08-.24L2.46,7.1c-.16.06-.31.16-.43.26-.62.4-1.03,1.09-1.03,1.88v2.59c0,1.04.71,1.94,1.73,2.18.45.11.77.51.77.97s-.32.87-.77.97c-1.02.24-1.73,1.14-1.73,2.18v2.59c0,1.24,1.01,2.25,2.25,2.25h17.5c1.24,0,2.25-1.01,2.25-2.25v-2.59c0-1.04-.71-1.94-1.73-2.18-.45-.11-.77-.51-.77-.97s.32-.87.77-.97c1.02-.24,1.73-1.14,1.73-2.18v-2.59c0-1.24-1.01-2.25-2.25-2.25Zm-3.75-2.31v2.31h-5.97l5.97-2.31Zm3,6.6c-1.5.6-2.5,2.05-2.5,3.71s1,3.11,2.5,3.71v1.29h-4v-1.5c0-.28-.22-.5-.5-.5s-.5.22-.5.5v1.5H4v-1.29c1.5-.6,2.5-2.05,2.5-3.71s-1-3.11-2.5-3.71v-1.29h11v.5c0,.28.22.5.5.5s.5-.22.5-.5v-.5h4v1.29Z"/></svg>