<svg xmlns="http://www.w3.org/2000/svg" width="24" height="24" viewBox="0 0 24 24"><path d="M21.5 10.5h-.64a8.99 8.99 0 0 0-7.36-7.36V2.5c0-.83-.67-1.5-1.5-1.5s-1.5.67-1.5 1.5v.64c-3.76.63-6.73 3.6-7.36 7.36H2.5c-.83 0-1.5.67-1.5 1.5s.67 1.5 1.5 1.5h.64c.63 3.76 3.6 6.73 7.36 7.36v.64c0 .83.67 1.5 1.5 1.5s1.5-.67 1.5-1.5v-.64c3.76-.63 6.73-3.6 7.36-7.36h.64c.83 0 1.5-.67 1.5-1.5s-.67-1.5-1.5-1.5M12 18c-3.31 0-6-2.69-6-6s2.69-6 6-6 6 2.69 6 6-2.69 6-6 6"/><path d="M12 9a3 3 0 1 0 0 6 3 3 0 1 0 0-6"/></svg>