<svg xmlns="http://www.w3.org/2000/svg" width="24" height="24" viewBox="0 0 24 24"><path d="m21.43 2.86-2.51-1.01C17.51 1.29 16.03 1 14.51 1c-.83 0-1.5.67-1.5 1.5 0 .55-.45 1-1 1s-1-.45-1-1c0-.83-.67-1.5-1.5-1.5-1.52 0-3 .29-4.41.85l-2.51 1c-.96.38-1.57 1.29-1.57 2.32v4.32a2.5 2.5 0 0 0 2.5 2.5h.5v8.5a2.5 2.5 0 0 0 2.5 2.5h11a2.5 2.5 0 0 0 2.5-2.5v-8.5h.5a2.5 2.5 0 0 0 2.5-2.5V5.17c0-1.03-.62-1.94-1.57-2.32ZM20 9h-1.5c-.83 0-1.5.67-1.5 1.5V20H7v-9.5C7 9.67 6.33 9 5.5 9H4V5.52l2.2-.88c.69-.28 1.4-.46 2.12-.56C8.93 5.5 10.35 6.5 12 6.5s3.06-1 3.68-2.42c.73.1 1.44.28 2.12.56l2.2.88z"/></svg>