<svg xmlns="http://www.w3.org/2000/svg" viewBox="0 0 24 24" width="24" height="24"><path d="m20,5h-1.5v-1.5c0-.83-.67-1.5-1.5-1.5s-1.5.67-1.5,1.5v1.5h-7v-1.5c0-.83-.67-1.5-1.5-1.5s-1.5.67-1.5,1.5v1.5h-1.5c-1.65,0-3,1.35-3,3v6c0,1.65,1.35,3,3,3h1.5v3.5c0,.83.67,1.5,1.5,1.5s1.5-.67,1.5-1.5v-3.5h7v3.5c0,.83.67,1.5,1.5,1.5s1.5-.67,1.5-1.5v-3.5h1.5c1.65,0,3-1.35,3-3v-6c0-1.65-1.35-3-3-3Zm-1.98,3l-3,6h-3.68l3-6h3.68Zm-8.36,6h-3.68l3-6h3.68l-3,6Zm-5.66-6h3.3l-3,6h-.3v-6Zm12.7,6l3-6h.3v6s-3.3,0-3.3,0Z"/></svg>