<svg xmlns="http://www.w3.org/2000/svg" width="24" height="24" viewBox="0 0 24 24"><path d="M20.79 9.5c.45 0 .67-.54.35-.85L18.7 6.21a.996.996 0 0 0-1.41 0l-2.44 2.44c-.32.32-.09.85.35.85h1.29v5H15.2c-.45 0-.67.54-.35.85l2.44 2.44c.39.39 1.02.39 1.41 0l2.44-2.44c.32-.31.09-.85-.35-.85H19.5v-5zM3.5 10.5C4.33 10.5 5 9.83 5 9v-.5h1v7h-.75c-.83 0-1.5.67-1.5 1.5s.67 1.5 1.5 1.5h4.5c.83 0 1.5-.67 1.5-1.5s-.67-1.5-1.5-1.5H9v-7h1V9c0 .83.67 1.5 1.5 1.5S13 9.83 13 9V7c0-.83-.67-1.5-1.5-1.5h-8C2.67 5.5 2 6.17 2 7v2c0 .83.67 1.5 1.5 1.5"/></svg>