<svg xmlns="http://www.w3.org/2000/svg" viewBox="0 0 24 24" width="24" height="24"><path d="M8.5 13A1.5 1.5 0 1 0 8.5 16 1.5 1.5 0 1 0 8.5 13z"/><path d="M15.5 13A1.5 1.5 0 1 0 15.5 16 1.5 1.5 0 1 0 15.5 13z"/><path d="m21,15.5V7.5c0-3.58-2.92-6.5-6.5-6.5h-5c-3.58,0-6.5,2.92-6.5,6.5v8c0,1.97,1.28,3.63,3.04,4.24l-1.56,2.5c-.21.33.03.77.42.77h1.1c.16,0,.31-.07.4-.2l.45-.6c.09-.13.24-.2.4-.2h9.5c.16,0,.31.07.4.2l.45.6c.09.13.24.2.4.2h1.1c.39,0,.63-.43.42-.77l-1.56-2.5c1.76-.61,3.04-2.27,3.04-4.24ZM6,7.5h12v3H6v-3Zm3.5-3.5h5c1.39,0,2.58.82,3.15,2H6.35c.56-1.18,1.76-2,3.15-2Zm7,13H7.5c-.83,0-1.5-.67-1.5-1.5v-3.5h12v3.5c0,.83-.67,1.5-1.5,1.5Z"/></svg>