<svg xmlns="http://www.w3.org/2000/svg" viewBox="0 0 24 24" width="24" height="24"><path d="m19,8c-1.67,0-3.11,1.04-3.7,2.5h-1.8V2.5c0-.83-.67-1.5-1.5-1.5s-1.5.67-1.5,1.5v2h-1.8c-.6-1.46-2.03-2.5-3.7-2.5C2.79,2,1,3.79,1,6s1.79,4,4,4c1.67,0,3.11-1.04,3.7-2.5h1.8v9h-1.8c-.6-1.46-2.03-2.5-3.7-2.5-2.21,0-4,1.79-4,4s1.79,4,4,4c1.67,0,3.11-1.04,3.7-2.5h1.8v2c0,.83.67,1.5,1.5,1.5s1.5-.67,1.5-1.5v-8h1.8c.6,1.46,2.03,2.5,3.7,2.5,2.21,0,4-1.79,4-4s-1.79-4-4-4Zm-14-1c-.55,0-1-.45-1-1s.45-1,1-1,1,.45,1,1-.45,1-1,1Zm0,12c-.55,0-1-.45-1-1s.45-1,1-1,1,.45,1,1-.45,1-1,1Zm14-6c-.55,0-1-.45-1-1s.45-1,1-1,1,.45,1,1-.45,1-1,1Z"/></svg>