<svg xmlns="http://www.w3.org/2000/svg" viewBox="0 0 24 24" width="24" height="24"><path d="m4.22,19.78c1.01,1.01,2.19,1.8,3.5,2.36,1.36.57,2.8.87,4.28.87s2.93-.29,4.28-.86c1.31-.55,2.49-1.35,3.5-2.36,1.01-1.01,1.8-2.19,2.36-3.5.57-1.36.87-2.8.87-4.28s-.29-2.93-.86-4.28c-.55-1.31-1.35-2.49-2.36-3.5-1.01-1.01-2.19-1.8-3.5-2.36-1.37-.58-2.82-.87-4.32-.87-.81,0-1.47.69-1.47,1.5v4c0,.83.67,1.5,1.5,1.5s1.5-.67,1.5-1.5v-2.36c.55.1,1.09.27,1.61.49.95.4,1.81.98,2.54,1.72.74.73,1.31,1.59,1.72,2.54.42.98.63,2.03.63,3.11s-.21,2.13-.63,3.11c-.4.95-.98,1.81-1.72,2.54-.73.74-1.59,1.31-2.54,1.72-1.97.83-4.26.83-6.23,0-.95-.4-1.81-.98-2.54-1.72-.74-.73-1.31-1.59-1.72-2.54-.42-.98-.63-2.03-.63-3.11s.21-2.13.63-3.11c.23-.55.53-1.07.88-1.56.44-.61.39-1.43-.13-1.96-.64-.64-1.71-.6-2.24.13-.5.69-.93,1.43-1.26,2.22-.57,1.36-.87,2.8-.87,4.28s.29,2.93.86,4.28c.55,1.31,1.35,2.49,2.36,3.5Z"/><path d="m10.94,13.06c1.46,1.89,4.01-.66,2.12-2.12l-4.74-3.26c-.4-.3-.95.24-.65.65l3.26,4.74Z"/></svg>