<svg xmlns="http://www.w3.org/2000/svg" viewBox="0 0 24 24" width="24" height="24"><path d="m16.17,9.54l-5.23,3.4c-.71.46-.91,1.41-.44,2.12.12.18.27.33.44.44.71.46,1.65.27,2.12-.44,0,0,0,0,0,0l3.4-5.22c.13-.2-.1-.43-.3-.3Z"/><path d="m12,3C5.93,3,1,8,1,14.14c0,1.41.26,2.78.76,4.08.65,1.66,2.32,2.77,4.16,2.77h12.16c1.84,0,3.51-1.12,4.16-2.77.51-1.3.76-2.68.76-4.08,0-6.14-4.93-11.14-11-11.14Zm7.44,14.14c-.2.52-.75.86-1.36.86H5.92c-.61,0-1.16-.35-1.36-.86-.37-.95-.56-1.96-.56-2.99,0-4.49,3.59-8.14,8-8.14s8,3.65,8,8.14c0,1.03-.19,2.04-.56,2.99Z"/></svg>