<svg xmlns="http://www.w3.org/2000/svg" width="24" height="24" viewBox="0 0 24 24"><path d="M21.5 5H18V4c0-1.65-1.35-3-3-3H9C7.35 1 6 2.35 6 4v1H2.5C1.67 5 1 5.67 1 6.5S1.67 8 2.5 8H3v10.5C3 20.98 5.02 23 7.5 23h9c2.48 0 4.5-2.02 4.5-4.5V8h.5c.83 0 1.5-.67 1.5-1.5S22.33 5 21.5 5M9 4h6v1H9zm9 14.5c0 .83-.67 1.5-1.5 1.5h-9c-.83 0-1.5-.67-1.5-1.5V8h12z"/><path d="M10 18c.41 0 .75-.34.75-.75v-6.5c0-.41-.34-.75-.75-.75s-.75.34-.75.75v6.5c0 .41.34.75.75.75M14 18c.41 0 .75-.34.75-.75v-6.5c0-.41-.34-.75-.75-.75s-.75.34-.75.75v6.5c0 .41.34.75.75.75"/></svg>