<svg xmlns="http://www.w3.org/2000/svg" viewBox="0 0 24 24" width="24" height="24"><path d="M3.5 19A1.5 1.5 0 1 0 3.5 22 1.5 1.5 0 1 0 3.5 19z"/><path d="m19.25,5.51c-1.13-2.7-3.77-4.51-6.72-4.51-1.95,0-3.78.77-5.14,2.15-2.35-.09-4.28,1.83-4.28,4.18,0,.02,0,.04,0,.06-1.31.98-2.11,2.53-2.11,4.23s.9,3.41,2.34,4.37c.5,1.26,1.84,2.1,3.22,1.93,1.71,1.26,4.09,1.44,5.97.43.81.44,1.71.67,2.64.67,2.53,0,4.72-1.67,5.45-4.06,1.47-.96,2.38-2.61,2.38-4.41,0-2.39-1.56-4.4-3.75-5.03Zm-.56,7.08c-.45.21-.77.62-.86,1.11-.23,1.33-1.35,2.3-2.67,2.3-.77,0-1.34-.34-1.69-.62-.28-.23-.61-.34-.95-.34s-.67.11-.95.34c-.35.28-.92.62-1.69.62-.71,0-1.38-.29-1.89-.81-.47-.48-1.21-.57-1.8-.26-.04,0-.07-.05-.07-.09-.05-.52-.37-.97-.84-1.2-.79-.38-1.27-1.15-1.27-2.03s.53-1.72,1.35-2.08c.71-.31,1.07-1.1.83-1.84-.05-.15-.07-.27-.07-.37,0-.65.51-1.18,1.14-1.18.08,0,.18.02.3.05.59.17,1.22-.04,1.6-.52.82-1.06,2.06-1.67,3.38-1.67,1.92,0,3.63,1.32,4.14,3.21.17.61.69,1.05,1.32,1.1,1.15.1,2.01,1.06,2.01,2.22,0,.88-.51,1.69-1.31,2.05Z"/></svg>