<svg xmlns="http://www.w3.org/2000/svg" viewBox="0 0 24 24" width="24" height="24"><path class="b" d="m17.5,2H6.5c-2.48,0-4.5,2.02-4.5,4.5v11c0,2.48,2.02,4.5,4.5,4.5h11c2.48,0,4.5-2.02,4.5-4.5V6.5c0-2.48-2.02-4.5-4.5-4.5Zm1.5,10.94l-6.06,6.06h-3.88l9.94-9.94v3.88Zm-14-1.88l6.06-6.06h3.88L5,14.94v-3.88Zm1.5-6.06h2.44l-3.94,3.94v-2.44c0-.83.67-1.5,1.5-1.5Zm-1.5,12.5v-.44l12.06-12.06h.44c.83,0,1.5.67,1.5,1.5v.44l-12.06,12.06h-.44c-.83,0-1.5-.67-1.5-1.5Zm12.5,1.5h-2.44l3.94-3.94v2.44c0,.83-.67,1.5-1.5,1.5Z"/></svg>