<svg xmlns="http://www.w3.org/2000/svg" viewBox="0 0 24 24" width="24" height="24"><path d="m18.5,8h-2.25l2.52-3.92c.4-.62.42-1.4.07-2.04-.35-.64-1.02-1.04-1.76-1.04h-7.39c-1.04,0-1.98.65-2.34,1.62L3.35,13.3c-.23.61-.14,1.3.23,1.84.37.54.99.86,1.64.86h3.78v4c0,.86.55,1.62,1.37,1.9.21.07.42.1.63.1.62,0,1.21-.29,1.6-.8l7.5-10c.46-.61.53-1.41.19-2.09-.34-.68-1.03-1.1-1.79-1.1Zm-6.5,9v-2.5c0-.83-.67-1.5-1.5-1.5h-3.84l3.38-9h5.21l-3.01,4.69c-.3.46-.32,1.05-.05,1.53.26.48.77.78,1.32.78h3l-4.5,6Z"/></svg>