<svg xmlns="http://www.w3.org/2000/svg" viewBox="0 0 24 24" width="24" height="24"><path d="m12,7c-2,0-3.5,1.5-3.5,3.5s1.5,3.5,3.5,3.5,3.5-1.5,3.5-3.5-1.5-3.5-3.5-3.5Zm0,5.5c-1.18,0-2-.82-2-2s.82-2,2-2,2,.82,2,2-.82,2-2,2Z"/><path d="m19.94,5.85l-5.5-3.56c-1.49-.96-3.4-.96-4.89,0l-5.5,3.56c-1.29.83-2.06,2.25-2.06,3.78v4.74c0,1.53.77,2.95,2.06,3.78l5.5,3.56c.74.48,1.59.72,2.44.72s1.7-.24,2.44-.72l5.5-3.56c1.29-.83,2.06-2.25,2.06-3.78v-4.74c0-1.53-.77-2.95-2.06-3.78Zm-7.13,13.33c-.5.32-1.13.32-1.63,0l-2.55-1.65c.6-.65,1.45-1.04,2.36-1.04h2c.91,0,1.76.38,2.36,1.04l-2.55,1.65Zm6.19-4.82c0,.51-.26.98-.69,1.26l-1.69,1.09c-.89-1.08-2.2-1.72-3.63-1.72h-2c-1.43,0-2.74.64-3.63,1.72l-1.69-1.09c-.43-.28-.69-.75-.69-1.26v-4.74c0-.51.26-.98.69-1.26l5.5-3.56c.5-.32,1.13-.32,1.63,0l5.5,3.56c.43.28.69.75.69,1.26v4.74Z"/></svg>