<svg xmlns="http://www.w3.org/2000/svg" viewBox="0 0 24 24" width="24" height="24"><path d="m12,1C6.73,1,2.19,4.75,1.2,9.91c-.17.89.06,1.8.64,2.5.57.69,1.41,1.09,2.31,1.09h6.48v5.13c0,2.19,1.59,4.14,3.77,4.35,2.5.24,4.61-1.72,4.61-4.17v-.31c0-.83-.67-1.5-1.5-1.5s-1.5.67-1.5,1.5v.31c0,.66-.53,1.19-1.19,1.19s-1.19-.53-1.19-1.19v-5.31h6.23c.9,0,1.74-.4,2.31-1.09.58-.7.81-1.61.64-2.5-.99-5.17-5.54-8.91-10.8-8.91Zm3.45,9.49h-6.9c.3-3.89,1.95-6.49,3.45-6.49s3.15,2.61,3.45,6.49Zm-11.3-.01c.5-2.62,2.27-4.74,4.59-5.78-.9,1.43-1.52,3.46-1.68,5.78h-2.91Zm12.81.02c-.16-2.33-.78-4.36-1.68-5.79,2.32,1.04,4.09,3.16,4.59,5.8h-2.91Z"/></svg>