<svg xmlns="http://www.w3.org/2000/svg" viewBox="0 0 24 24" width="24" height="24"><path d="M12 6A1.5 1.5 0 1 0 12 9 1.5 1.5 0 1 0 12 6z"/><path d="m12,1C5.93,1,1,5.93,1,12s4.93,11,11,11,11-4.93,11-11S18.07,1,12,1Zm0,19c-4.41,0-8-3.59-8-8S7.59,4,12,4s8,3.59,8,8-3.59,8-8,8Z"/><path d="m16.25,9.75c-.14-.41-.59-.64-1-.5l-1.3.43c-.63.21-1.29.32-1.95.32s-1.32-.11-1.95-.32l-1.3-.43c-.41-.14-.86.09-1,.5-.14.41.09.86.5,1l2.25.75v1.5l-1.27,3.59c-.13.38.04.79.39.97l.08.04c.42.21.94,0,1.1-.44l.95-2.66h.5l.95,2.66c.16.45.67.65,1.1.44l.08-.04c.36-.18.52-.59.39-.97l-1.27-3.59v-1.5l2.25-.75c.41-.14.64-.59.5-1h0Z"/></svg>