<svg xmlns="http://www.w3.org/2000/svg" width="24" height="24" viewBox="0 0 24 24"><path d="M17.66 6.11c-.13-.3-.29-.59-.47-.87-.46-.68-1.4-.86-2.08-.4-.69.47-.86 1.4-.4 2.08.08.11.14.23.19.35s.09.24.11.36.04.24.04.36-.01.24-.04.36c-.02.12-.06.24-.11.36s-.12.24-.19.35c-.47.69-.29 1.62.4 2.08a1.49 1.49 0 0 0 2.08-.4 4.9 4.9 0 0 0 .77-1.79c.06-.31.1-.64.1-.96s-.03-.64-.1-.96a4.4 4.4 0 0 0-.29-.93Z"/><path d="M22.91 6.1q-.09-.465-.24-.93c-.1-.31-.21-.61-.34-.92-.13-.3-.27-.59-.43-.88s-.33-.58-.52-.85c-.19-.28-.39-.55-.61-.81-.53-.64-1.47-.73-2.11-.2s-.73 1.47-.2 2.11c.16.19.31.39.44.59s.26.4.37.6.21.41.3.62.17.42.23.63c.07.21.12.43.17.64.04.22.08.43.1.65a7 7 0 0 1 0 1.3c-.02.22-.05.43-.1.65-.04.21-.1.43-.17.64s-.14.42-.23.63-.19.42-.3.62c-.11.21-.24.41-.37.61-.14.2-.28.4-.44.59-.53.64-.44 1.58.2 2.11.28.23.62.35.96.35.43 0 .86-.19 1.16-.54.22-.27.42-.54.61-.82s.36-.56.52-.86c.16-.29.3-.58.43-.89.13-.3.24-.61.33-.91q.15-.465.24-.93A10.075 10.075 0 0 0 23.1 8a10.362 10.362 0 0 0-.19-1.9M8 2C5.15 2 3 4.15 3 7s2.15 5 5 5 5-2.15 5-5-2.15-5-5-5m0 7c-1.18 0-2-.82-2-2s.82-2 2-2 2 .82 2 2-.82 2-2 2M3.5 22h9a2.5 2.5 0 0 0 2.5-2.5v-1c0-3.03-2.47-5.5-5.5-5.5h-3A5.51 5.51 0 0 0 1 18.5v1A2.5 2.5 0 0 0 3.5 22m.5-3.5A2.5 2.5 0 0 1 6.5 16h3a2.5 2.5 0 0 1 2.5 2.5v.5H4z"/></svg>