<svg xmlns="http://www.w3.org/2000/svg" width="24" height="24" viewBox="0 0 24 24"><path d="M19.74 9c-.13-3.51-3.55-6.34-7.74-6.34S4.39 5.48 4.26 9C2.2 10.29 1 12.07 1 14c0 3.93 4.83 7 11 7s11-3.07 11-7c0-1.93-1.2-3.72-3.26-5m-12.45.38-.03-.28C7.34 7.19 9.43 5.66 12 5.66s4.66 1.53 4.74 3.44c0 .09-.01.19-.03.28-.36 2.2-3.7 2.37-4.71 2.37s-4.35-.17-4.71-2.37M12 18c-4.71 0-8-2.11-8-4 0-1.01.93-2.05 2.47-2.82.98 1.32 2.92 2.07 5.53 2.07s4.55-.75 5.53-2.07C19.07 11.95 20 12.99 20 14c0 1.89-3.29 4-8 4"/><path d="M12 15a1 1 0 1 0 0 2 1 1 0 1 0 0-2M16 14a1 1 0 1 0 0 2 1 1 0 1 0 0-2M8 14a1 1 0 1 0 0 2 1 1 0 1 0 0-2"/></svg>