<svg xmlns="http://www.w3.org/2000/svg" width="24" height="24" viewBox="0 0 24 24"><path d="M8 2C5.15 2 3 4.15 3 7s2.15 5 5 5 5-2.15 5-5-2.15-5-5-5m0 7c-1.18 0-2-.82-2-2s.82-2 2-2 2 .82 2 2-.82 2-2 2M3.5 22h9a2.5 2.5 0 0 0 2.5-2.5v-1c0-3.03-2.47-5.5-5.5-5.5h-3A5.51 5.51 0 0 0 1 18.5v1A2.5 2.5 0 0 0 3.5 22m.5-3.5A2.5 2.5 0 0 1 6.5 16h3a2.5 2.5 0 0 1 2.5 2.5v.5H4zM19.88 9 17 11.88l-.88-.88A1.49 1.49 0 0 0 14 11a1.49 1.49 0 0 0 0 2.12l1.94 1.94c.29.29.68.44 1.06.44s.77-.15 1.06-.44L22 11.12c.59-.59.59-1.54 0-2.12a1.49 1.49 0 0 0-2.12 0"/></svg>