<svg xmlns="http://www.w3.org/2000/svg" width="24" height="24" viewBox="0 0 24 24"><path d="M3 9v-.5h1v7h-.5c-.83 0-1.5.67-1.5 1.5s.67 1.5 1.5 1.5h4c.83 0 1.5-.67 1.5-1.5s-.67-1.5-1.5-1.5H7v-7h1V9c0 .83.67 1.5 1.5 1.5S11 9.83 11 9V7c0-.83-.67-1.5-1.5-1.5h-8C.67 5.5 0 6.17 0 7v2c0 .83.67 1.5 1.5 1.5S3 9.83 3 9M22.5 5.5h-8c-.83 0-1.5.67-1.5 1.5v2c0 .83.67 1.5 1.5 1.5S16 9.83 16 9v-.5h1v7h-.5c-.83 0-1.5.67-1.5 1.5s.67 1.5 1.5 1.5h4c.83 0 1.5-.67 1.5-1.5s-.67-1.5-1.5-1.5H20v-7h1V9c0 .83.67 1.5 1.5 1.5S24 9.83 24 9V7c0-.83-.67-1.5-1.5-1.5"/></svg>