<svg xmlns="http://www.w3.org/2000/svg" viewBox="0 0 24 24" width="24" height="24"><path d="m22,6c0-2.21-1.79-4-4-4-1.67,0-3.11,1.04-3.7,2.5h-4.6c-.6-1.46-2.03-2.5-3.7-2.5-2.21,0-4,1.79-4,4,0,1.67,1.04,3.11,2.5,3.7v4.6c-1.46.6-2.5,2.03-2.5,3.7,0,2.21,1.79,4,4,4,1.67,0,3.11-1.04,3.7-2.5h4.6c.6,1.46,2.03,2.5,3.7,2.5,2.21,0,4-1.79,4-4,0-1.67-1.04-3.11-2.5-3.7v-4.6c1.46-.6,2.5-2.03,2.5-3.7Zm-4-1c.55,0,1,.45,1,1s-.45,1-1,1-1-.45-1-1,.45-1,1-1Zm-12,0c.55,0,1,.45,1,1s-.45,1-1,1-1-.45-1-1,.45-1,1-1Zm0,14c-.55,0-1-.45-1-1s.45-1,1-1,1,.45,1,1-.45,1-1,1Zm8.3-2.5h-4.6c-.41-1-1.2-1.8-2.2-2.2v-4.6c1-.41,1.8-1.2,2.2-2.2h4.6c.41,1,1.2,1.8,2.2,2.2v4.6c-1,.41-1.8,1.2-2.2,2.2Zm3.7,2.5c-.55,0-1-.45-1-1s.45-1,1-1,1,.45,1,1-.45,1-1,1Z"/></svg>