<svg xmlns="http://www.w3.org/2000/svg" viewBox="0 0 24 24" width="24" height="24"><path d="m23.63,8.95l-2.39-4.38c-.53-.96-1.54-1.56-2.63-1.56H3c-1.65,0-3,1.35-3,3v8c0,1.31.85,2.41,2.01,2.82,0,.06-.01.12-.01.18,0,2.21,1.79,4,4,4s4-1.79,4-4h4c0,2.21,1.79,4,4,4s4-1.79,4-4c0-.06-.01-.12-.01-.18,1.17-.41,2.01-1.51,2.01-2.82v-3.62c0-.5-.13-1-.37-1.44,0,0,0,0,0,0Zm-5.02-2.95l1.91,3.5h-4.27v-3.5h2.36Zm-3.86,0v3.5h-5.5v-3.5h5.5Zm-7,0v3.5H3v-3.5h4.75Zm-1.75,12c-.55,0-1-.45-1-1,0-.21.07-.43.2-.6.11-.15.37-.4.8-.4.11,0,.21.02.29.04.26.08.43.25.51.36.12.17.2.38.2.6,0,.55-.45,1-1,1Zm2.65-4s-.04-.02-.05-.04c-.07-.06-.16-.11-.23-.17-.13-.09-.26-.19-.4-.26-.16-.09-.32-.16-.49-.23-.04-.01-.07-.03-.11-.04-.43-.16-.88-.26-1.36-.26s-.93.11-1.36.26c-.04.01-.07.03-.11.04-.17.07-.33.14-.49.23-.14.08-.27.17-.4.26-.08.06-.16.11-.24.17-.02.01-.04.02-.05.04h-.35v-3h18v3h-.35s-.04-.02-.05-.04c-.07-.06-.16-.11-.23-.17-.13-.09-.26-.19-.4-.26-.16-.09-.32-.16-.49-.23-.04-.01-.07-.03-.11-.04-.43-.16-.88-.26-1.36-.26s-.93.11-1.36.26c-.04.01-.07.03-.11.04-.17.07-.33.14-.49.23-.14.08-.27.17-.4.26-.08.06-.16.11-.24.17-.02.01-.04.02-.05.04h-6.71Zm9.35,4c-.55,0-1-.45-1-1,0-.21.07-.43.2-.6.11-.15.37-.4.8-.4.11,0,.21.02.29.04.26.08.43.25.51.36.12.17.2.38.2.6,0,.55-.45,1-1,1Z"/></svg>