<svg xmlns="http://www.w3.org/2000/svg" viewBox="0 0 24 24" width="24" height="24"><path d="m15.5,8c1.38,0,2.5-1.12,2.5-2.5v-3c0-1.38-1.12-2.5-2.5-2.5h-7c-1.38,0-2.5,1.12-2.5,2.5v3c0,1.38,1.12,2.5,2.5,2.5h7Zm-6.5-5h6v2h-6v-2Z"/><path d="m18.5,21c1.38,0,2.5-1.12,2.5-2.5v-3c0-1.38-1.12-2.5-2.5-2.5H5.5c-1.38,0-2.5,1.12-2.5,2.5v3c0,1.38,1.12,2.5,2.5,2.5h13Zm-12.5-5h12v2H6v-2Z"/><path d="m22.25,9.5H1.75c-.41,0-.75.34-.75.75s.34.75.75.75h20.5c.41,0,.75-.34.75-.75s-.34-.75-.75-.75Z"/><path d="m22.25,22.5H1.75c-.41,0-.75.34-.75.75s.34.75.75.75h20.5c.41,0,.75-.34.75-.75s-.34-.75-.75-.75Z"/></svg>