<svg xmlns="http://www.w3.org/2000/svg" viewBox="0 0 24 24" width="24" height="24"><path d="m18,14c-.55,0-1.08.11-1.56.32l-6.76-6.76c.2-.48.32-1.01.32-1.56,0-2.21-1.79-4-4-4S2,3.79,2,6c0,1.67,1.04,3.11,2.5,3.7v4.6c-1.46.6-2.5,2.03-2.5,3.7,0,2.21,1.79,4,4,4,1.67,0,3.11-1.04,3.7-2.5h4.6c.6,1.46,2.03,2.5,3.7,2.5,2.21,0,4-1.79,4-4s-1.79-4-4-4ZM6,5c.55,0,1,.45,1,1s-.45,1-1,1-1-.45-1-1,.45-1,1-1Zm0,14c-.55,0-1-.45-1-1s.45-1,1-1,1,.45,1,1-.45,1-1,1Zm1.5-4.7v-4.6s.04-.01.06-.02l6.76,6.76s-.01.04-.02.06h-4.6c-.41-1-1.2-1.8-2.2-2.2Zm10.5,4.7c-.55,0-1-.45-1-1s.45-1,1-1,1,.45,1,1-.45,1-1,1Z"/></svg>