<svg xmlns="http://www.w3.org/2000/svg" viewBox="0 0 24 24" width="24" height="24"><path d="m4,18h2.58l5.38,3.31c.32.2.68.3,1.05.3.34,0,.67-.08.98-.25.63-.35,1.02-1.02,1.02-1.75V4.39c0-.72-.39-1.39-1.02-1.75-.63-.35-1.41-.34-2.02.04l-5.38,3.31s0,0,0,0h-2.58c-1.65,0-3,1.35-3,3v6c0,1.65,1.35,3,3,3Zm0-9h2.58c.55,0,1.1-.15,1.57-.45l3.85-2.37v11.63l-3.85-2.37c-.47-.29-1.02-.44-1.57-.44h-2.58v-6Z"/><path d="m16.92,12.81c-.03.13-.06.26-.1.38-.04.12-.08.25-.14.37-.05.12-.11.24-.17.35-.26.49-.08,1.09.4,1.36.15.08.31.12.48.12.36,0,.7-.19.88-.52.09-.17.18-.35.25-.52.08-.18.14-.36.2-.56.06-.19.11-.38.15-.57.04-.2.07-.39.09-.59.02-.2.03-.41.03-.61s-.01-.41-.03-.61c-.02-.2-.05-.4-.09-.6-.04-.19-.09-.39-.15-.58-.06-.19-.13-.37-.2-.55-.08-.18-.16-.36-.25-.53-.26-.49-.87-.66-1.36-.4-.48.26-.66.87-.4,1.36.06.11.12.23.17.35.05.12.1.24.13.36.04.13.07.26.1.38.03.13.05.26.06.4.01.13.02.27.02.41s0,.28-.02.41c-.01.13-.03.27-.06.4Z"/></svg>