<svg xmlns="http://www.w3.org/2000/svg" width="24" height="24" viewBox="0 0 24 24"><path d="M14 18H5.5A1.5 1.5 0 0 1 4 16.5V8c0-.83-.67-1.5-1.5-1.5S1 7.17 1 8v8.5c0 1.2.47 2.33 1.32 3.18S4.3 21 5.5 21H14c.83 0 1.5-.67 1.5-1.5S14.83 18 14 18M22.18 7.68 19 10.33V7.5c0-1.2-.47-2.33-1.32-3.18A4.47 4.47 0 0 0 14.5 3H4.06L2.28 1.22c-.29-.29-.77-.29-1.06 0s-.29.77 0 1.06l20.5 20.5c.15.15.34.22.53.22s.38-.07.53-.22c.29-.29.29-.77 0-1.06L19 17.94v-4.27l3.18 2.65a.5.5 0 0 0 .82-.38V8.08c0-.42-.49-.66-.82-.38ZM16 14.94 7.06 6h7.44A1.5 1.5 0 0 1 16 7.5z"/></svg>