<svg xmlns="http://www.w3.org/2000/svg" viewBox="0 0 24 24" width="24" height="24"><path d="m21.29,17.59c.18-.27.35-.54.5-.82.15-.28.29-.58.42-.88.13-.3.24-.61.34-.92.1-.31.18-.63.25-.96.07-.33.12-.66.15-.99.03-.34.05-.68.05-1.02s-.02-.68-.05-1.02c-.03-.34-.09-.67-.15-.99-.07-.33-.15-.65-.25-.96-.1-.31-.21-.62-.34-.92-.13-.3-.27-.59-.42-.87-.15-.28-.32-.56-.5-.83-.18-.27-.37-.52-.58-.77-.2-.25-.42-.48-.65-.71-.23-.23-.46-.44-.71-.65-.25-.2-.5-.39-.77-.57-.27-.18-.54-.35-.82-.5-.49-.26-1.09-.09-1.36.4-.26.48-.08,1.09.4,1.36.23.12.45.26.66.4.21.14.42.3.62.46.2.16.39.34.57.52.18.18.35.37.52.57.16.2.32.4.46.61.14.21.28.43.4.66.12.23.24.46.34.7.1.24.19.48.27.73.08.25.14.51.2.77.05.26.09.53.12.8.03.27.04.54.04.82s-.01.55-.04.82c-.03.27-.07.54-.12.79-.05.26-.12.52-.2.77-.08.25-.17.5-.27.73-.1.24-.21.47-.34.7-.12.23-.26.45-.4.66-.14.21-.3.42-.46.62-.15.19-.32.36-.49.54l-3.69-3.69V4.39c0-.72-.39-1.39-1.02-1.75-.63-.35-1.41-.34-2.02.04l-5.08,3.12L2.28,1.22c-.29-.29-.77-.29-1.06,0s-.29.77,0,1.06l20.5,20.5c.15.15.34.22.53.22s.38-.07.53-.22c.29-.29.29-.77,0-1.06l-2.68-2.68c.22-.22.42-.44.61-.68.2-.25.4-.5.58-.77Zm-9.29-6.65l-2.94-2.94,2.94-1.81v4.76Z"/><path d="m16.92,12.81c-.03.13-.06.26-.1.38-.04.12-.08.25-.14.37-.05.12-.11.23-.17.35-.26.49-.09,1.09.4,1.36.15.08.32.12.48.12.35,0,.7-.19.88-.52.09-.17.18-.35.25-.52.08-.18.14-.36.2-.56.06-.19.11-.38.15-.57.04-.2.07-.39.09-.59.02-.2.03-.41.03-.61s-.01-.41-.03-.61c-.02-.2-.05-.4-.09-.6-.04-.2-.09-.39-.15-.58-.06-.19-.13-.37-.2-.55-.08-.18-.16-.36-.25-.53-.26-.48-.87-.66-1.36-.4-.48.26-.66.87-.4,1.36.06.11.12.23.17.35.05.12.1.24.13.36.04.13.07.25.1.38.03.13.05.26.06.4.01.13.02.27.02.41s0,.27-.02.41c-.01.14-.03.27-.06.4Z"/><path d="m13.5,18.06c-.28,0-.53.08-.76.22l-4.6-2.83c-.47-.29-1.02-.45-1.57-.45h-2.58v-5.96s0-.03,0-.03c.23-.79-.22-1.63-1.02-1.86-.8-.23-1.63.22-1.86,1.02-.09.29-.13.57-.13.84v6c0,1.65,1.35,3,3,3h2.58l5.38,3.31c.32.2.68.3,1.05.3.34,0,.67-.08.98-.25.63-.35,1.02-1.02,1.02-1.84s-.67-1.45-1.5-1.45Z"/></svg>