<svg xmlns="http://www.w3.org/2000/svg" viewBox="0 0 24 24" width="24" height="24"><path d="m12.53,7.53c-.29-.29-.77-.29-1.06,0l-3.19,3.19c-.47.47-.14,1.28.53,1.28h1.69v3.5c0,.83.67,1.5,1.5,1.5s1.5-.67,1.5-1.5v-3.5h1.69c.67,0,1-.81.53-1.28l-3.19-3.19Z"/><path d="m3.5,2h-1c-.83,0-1.5.67-1.5,1.5s.67,1.5,1.5,1.5h1c.83,0,1.5-.67,1.5-1.5s-.67-1.5-1.5-1.5Z"/><path d="m9.5,5c.83,0,1.5-.67,1.5-1.5s-.67-1.5-1.5-1.5h-1c-.83,0-1.5.67-1.5,1.5s.67,1.5,1.5,1.5h1Z"/><path d="m15.5,2h-1c-.83,0-1.5.67-1.5,1.5s.67,1.5,1.5,1.5h1c.83,0,1.5-.67,1.5-1.5s-.67-1.5-1.5-1.5Z"/><path d="m21.5,2h-1c-.83,0-1.5.67-1.5,1.5s.67,1.5,1.5,1.5h1c.83,0,1.5-.67,1.5-1.5s-.67-1.5-1.5-1.5Z"/></svg>