<svg xmlns="http://www.w3.org/2000/svg" viewBox="0 0 24 24" width="24" height="24"><path d="m20,17.5c0-.69-.47-1.27-1.11-1.44-.13-.03-.25-.06-.39-.06h-9c-.83,0-1.5.67-1.5,1.5,0,.67-.26,1.29-.73,1.77-.94.95-2.59.95-3.54,0-.47-.47-.73-1.1-.73-1.77s.26-1.29.73-1.77c.12-.12.28-.24.49-.37.71-.42.95-1.34.52-2.06-.42-.71-1.34-.94-2.06-.52-.43.25-.78.52-1.08.83-1.04,1.04-1.61,2.42-1.61,3.89s.57,2.85,1.61,3.89c1.04,1.04,2.42,1.61,3.89,1.61s2.85-.57,3.89-1.61c.67-.68,1.15-1.5,1.4-2.39h7.71c.83,0,1.5-.67,1.5-1.5Z"/><path d="m4.21,16.74s-.02.05-.04.08c-.03.05-.05.1-.07.15-.02.05-.03.09-.04.14-.01.05-.03.09-.03.14,0,.05-.01.11-.02.16,0,.03,0,.06,0,.09,0,.01,0,.03,0,.04,0,.05,0,.11.02.16,0,.05.01.09.02.14.01.05.03.09.04.14.02.05.03.09.05.14.02.04.04.08.07.12.02.04.05.09.07.12.03.04.06.07.09.11.03.04.06.08.1.11.03.03.07.06.1.08.04.04.09.07.14.1.01,0,.02.02.03.02.02,0,.03.01.05.02.08.05.17.08.27.11.03,0,.06.02.09.03.11.03.23.05.35.05,0,0,0,0,0,0,0,0,0,0,0,0,0,0,0,0,0,0,.12,0,.24-.02.35-.04.03,0,.06-.02.09-.03.08-.03.17-.06.24-.1.03-.02.06-.03.09-.05.09-.05.16-.11.24-.18.01-.01.03-.02.04-.04.08-.08.16-.18.22-.28,0,0,.01-.02.02-.03l4.47-7.57c.2-.34.26-.75.16-1.14-.1-.39-.35-.72-.69-.92-.21-.13-.37-.24-.5-.37-.47-.47-.73-1.1-.73-1.77s.26-1.29.73-1.77c.95-.95,2.59-.94,3.54,0,.44.44.7,1.04.72,1.69.03.83.71,1.47,1.55,1.45.83-.03,1.48-.72,1.45-1.55-.05-1.41-.61-2.72-1.6-3.71-1.04-1.04-2.42-1.61-3.89-1.61s-2.85.57-3.89,1.61c-1.04,1.04-1.61,2.42-1.61,3.89s.54,2.77,1.52,3.79l-3.81,6.45Z"/><path d="m18.5,12c-.47,0-.94.06-1.4.19l-3.81-6.45s-.02-.02-.02-.03c-.03-.05-.06-.09-.1-.13-.03-.04-.05-.07-.09-.1-.03-.04-.07-.07-.11-.1-.04-.03-.07-.06-.11-.09-.04-.03-.08-.05-.12-.07-.04-.02-.08-.05-.12-.07-.05-.02-.09-.03-.14-.05-.04-.01-.09-.03-.13-.04-.05-.01-.09-.02-.14-.02-.05,0-.1-.01-.15-.02-.02,0-.03,0-.05,0-.03,0-.06,0-.1,0-.05,0-.1,0-.15.02-.05,0-.1.02-.15.04-.04.01-.08.02-.13.04-.05.02-.11.05-.16.07-.03.01-.05.02-.08.04-.01,0-.02.02-.03.02-.05.03-.09.06-.13.1-.04.03-.07.05-.1.08-.04.03-.07.07-.1.11-.03.04-.07.07-.09.11-.03.04-.05.08-.07.12-.02.04-.05.08-.07.13-.02.04-.03.09-.05.13-.02.05-.03.09-.04.14,0,.04-.01.09-.02.13,0,.05-.02.11-.02.17,0,.01,0,.03,0,.04,0,.03,0,.06,0,.09,0,.06,0,.11.02.17,0,.05.02.09.03.14.01.05.03.09.04.14.02.05.04.1.07.15.01.03.02.05.04.08l4.47,7.57c.2.34.53.59.92.69.39.1.8.04,1.14-.16.4-.24.82-.36,1.26-.36,1.38,0,2.5,1.12,2.5,2.5s-1.12,2.5-2.5,2.5c-.4,0-.79-.11-1.18-.32-.73-.4-1.64-.13-2.03.6-.4.73-.13,1.64.6,2.03.83.45,1.71.68,2.62.68,3.03,0,5.5-2.47,5.5-5.5s-2.47-5.5-5.5-5.5Z"/></svg>