<svg xmlns="http://www.w3.org/2000/svg" viewBox="0 0 24 24" width="24" height="24"><path d="m6.5,22h11c2.48,0,4.5-2.02,4.5-4.5V6.5c0-2.48-2.02-4.5-4.5-4.5H6.5c-2.48,0-4.5,2.02-4.5,4.5v11c0,2.48,2.02,4.5,4.5,4.5Zm11-3H6.5c-.83,0-1.5-.67-1.5-1.5v-2.5h2.38c.12,0,.22.07.28.17.56,1.13,1.7,1.83,2.96,1.83h2.76c1.26,0,2.4-.7,2.96-1.83.05-.11.16-.17.28-.17h2.38v2.5c0,.83-.67,1.5-1.5,1.5Zm-12.5-7v-2.25h14v2.25h-2.38c-1.26,0-2.4.7-2.96,1.83-.05.11-.16.17-.28.17h-2.76c-.12,0-.22-.07-.28-.17-.56-1.13-1.7-1.83-2.96-1.83h-2.38Zm1.5-7h11c.83,0,1.5.67,1.5,1.5v1.75H5v-1.75c0-.83.67-1.5,1.5-1.5Z"/></svg>