<svg xmlns="http://www.w3.org/2000/svg" width="24" height="24" viewBox="0 0 24 24"><path d="M12 17a2 2 0 1 0-.001 4.001A2 2 0 0 0 12 17"/><path d="M14.39 16.24c.08.04.16.08.23.12.08.04.15.09.24.14.07.04.15.09.22.14l.21.15c.27.2.59.3.9.3a1.5 1.5 0 0 0 .9-2.7c-.11-.08-.22-.16-.34-.24-.11-.08-.23-.15-.34-.22s-.24-.14-.36-.2q-.18-.105-.36-.18-.18-.09-.39-.18l-.39-.15c-.13-.05-.26-.09-.39-.13-.14-.04-.27-.08-.4-.11-.14-.04-.28-.07-.43-.1-.13-.03-.26-.05-.41-.07-.14-.02-.28-.04-.43-.05-.14-.01-.29-.03-.43-.03q-.435-.015-.87 0c-.14 0-.29.02-.43.03s-.29.03-.44.05c-.13.02-.27.05-.41.07-.14.03-.28.06-.4.09-.14.04-.27.07-.41.12-.13.04-.26.08-.39.13s-.26.1-.4.16c-.13.05-.25.11-.37.17s-.25.12-.37.19c-.12.06-.24.13-.35.2-.12.07-.23.15-.35.22-.12.08-.23.16-.34.24a1.5 1.5 0 0 0 1.8 2.4l.21-.15c.07-.05.15-.1.23-.14.08-.05.15-.09.23-.13s.15-.08.24-.12c.08-.04.16-.08.23-.11.08-.03.17-.07.25-.1.09-.03.17-.06.26-.09.08-.03.17-.05.27-.08.09-.02.17-.04.25-.06.1-.02.19-.04.28-.05s.18-.03.27-.04c.09 0 .19-.02.28-.02h.57c.09 0 .19.01.28.02.09 0 .18.02.26.03.1.02.2.03.28.05l.27.06c.09.02.17.05.25.07.09.03.17.06.26.09.08.03.17.06.24.09.08.04.16.07.25.12Z"/><path d="M19.78 13.18c.49-.67.36-1.6-.31-2.1-.16-.12-.32-.24-.49-.35s-.34-.22-.51-.32-.35-.2-.52-.3c-.18-.1-.36-.19-.54-.28s-.37-.17-.55-.25c-.19-.08-.38-.16-.57-.23s-.38-.13-.58-.2c-.2-.06-.4-.12-.6-.17s-.4-.1-.61-.14c-.2-.04-.4-.08-.62-.11-.21-.03-.41-.06-.62-.08s-.42-.04-.64-.05q-.645-.03-1.29 0c-.21.01-.43.03-.63.05-.21.02-.42.05-.63.08a13 13 0 0 0-1.21.25c-.2.05-.4.11-.6.17s-.39.13-.58.2-.39.15-.57.22c-.19.08-.37.16-.55.25s-.37.18-.54.28c-.18.1-.35.2-.52.3s-.34.21-.51.32-.33.23-.49.35c-.66.5-.8 1.43-.31 2.1.49.66 1.43.8 2.1.31.12-.09.25-.18.38-.27.13-.08.25-.17.39-.25.13-.08.26-.16.4-.23.13-.07.27-.14.41-.21s.28-.13.43-.19c.14-.06.28-.12.42-.17.15-.05.29-.1.44-.15s.3-.09.45-.13.31-.08.46-.11c.16-.03.32-.06.47-.08l.49-.06c.16-.02.32-.03.48-.04.32-.02.65-.02.98 0 .16 0 .32.02.49.04l.47.06c.16.02.32.05.47.08.16.03.31.07.46.11s.3.08.45.13.3.1.44.15.28.11.43.17c.14.06.28.12.42.19s.27.13.41.21c.13.07.27.15.4.23s.26.16.39.25c.13.08.25.17.37.27a1.5 1.5 0 0 0 2.1-.3Z"/></svg>