<svg xmlns="http://www.w3.org/2000/svg" width="24" height="24" viewBox="0 0 24 24"><path d="M18.5 2h-13C3.02 2 1 4.02 1 6.5v8C1 16.98 3.02 19 5.5 19h1.32l-.49.99a1.498 1.498 0 0 0 2.68 1.34L10.17 19h3.65l1.16 2.33a1.498 1.498 0 0 0 2.68-1.34l-.49-.99h1.32c2.48 0 4.5-2.02 4.5-4.5v-8c0-2.48-2.02-4.5-4.5-4.5ZM20 14.5c0 .83-.67 1.5-1.5 1.5h-13c-.83 0-1.5-.67-1.5-1.5v-8C4 5.67 4.67 5 5.5 5h13c.83 0 1.5.67 1.5 1.5z"/><path d="M9.25 12.5h-2.5c-.41 0-.75.34-.75.75s.34.75.75.75h2.5c.41 0 .75-.34.75-.75s-.34-.75-.75-.75"/></svg>