<svg xmlns="http://www.w3.org/2000/svg" width="24" height="24" viewBox="0 0 24 24"><path d="M15.5 9c-1.17 0-1.83.68-2.17 1.25-.2.33.05.75.44.75h3.47c.38 0 .63-.42.44-.75-.34-.57-1-1.25-2.17-1.25ZM8.5 8a1.5 1.5 0 1 0 0 3 1.5 1.5 0 1 0 0-3"/><path d="M12 1C5.93 1 1 5.93 1 12s4.93 11 11 11 11-4.93 11-11S18.07 1 12 1M9.75 17.75v-3h4.5v3c0 1.24-1.01 2.25-2.25 2.25s-2.25-1.01-2.25-2.25m5.71 1.45c.19-.45.29-.94.29-1.45v-1.04c1.01-.83 1.6-1.89 1.91-2.67.2-.5-.16-1.04-.69-1.04H7.03c-.54 0-.9.54-.69 1.04.32.78.91 1.84 1.91 2.67v1.04c0 .52.1 1.01.29 1.45C5.86 17.91 4 15.17 4 12c0-4.41 3.59-8 8-8s8 3.59 8 8c0 3.17-1.86 5.91-4.54 7.2"/></svg>