<svg xmlns="http://www.w3.org/2000/svg" viewBox="0 0 24 24" width="24" height="24"><path d="m7.5,10c1.38,0,2.5-1.12,2.5-2.5v-.5h4.28c.62,1.74,2.27,3,4.22,3,2.48,0,4.5-2.02,4.5-4.5s-2.02-4.5-4.5-4.5c-1.95,0-3.6,1.26-4.22,3h-4.28v-.5c0-1.38-1.12-2.5-2.5-2.5H3.5c-1.38,0-2.5,1.12-2.5,2.5v4c0,1.38,1.12,2.5,2.5,2.5h.5v4.43c-.09.07-.18.14-.27.22l-2.09,2.09c-.97.97-.97,2.56,0,3.54l2.09,2.09c.49.49,1.13.73,1.77.73s1.28-.24,1.77-.73l2.09-2.09c.08-.08.15-.18.22-.27h4.43v.5c0,1.38,1.12,2.5,2.5,2.5h4c1.38,0,2.5-1.12,2.5-2.5v-4c0-1.38-1.12-2.5-2.5-2.5h-4c-1.38,0-2.5,1.12-2.5,2.5v.5h-4.43c-.07-.09-.14-.18-.22-.27l-2.09-2.09c-.08-.08-.18-.15-.27-.22v-4.43h.5Zm11-6c.83,0,1.5.67,1.5,1.5s-.67,1.5-1.5,1.5-1.5-.67-1.5-1.5.67-1.5,1.5-1.5Zm-1.5,13h3v3h-3v-3Zm-11.5,2.88l-1.38-1.38,1.38-1.38,1.38,1.38-1.38,1.38Zm-1.5-15.88h3v3h-3v-3Z"/></svg>