<svg xmlns="http://www.w3.org/2000/svg" viewBox="0 0 24 24" width="24" height="24"><path d="m6.6,18.8l-1.37,1.09c-.65.52-.75,1.46-.23,2.11h0c.52.65,1.46.75,2.11.23l1.37-1.09c1.57-1.26,2.63-3.03,3.02-4.98l.79.98c.56.7.97,1.5,1.21,2.37l.66,2.44c.22.8,1.04,1.27,1.84,1.05h0c.8-.22,1.27-1.04,1.05-1.84l-.66-2.44c-.34-1.26-.95-2.44-1.77-3.46l-1.38-1.71.4-2.58c.2.17.39.36.56.58.83,1.05,1.86,1.91,2.99,2.63.81.51,1.88.19,2.23-.7.26-.66.02-1.41-.57-1.81-.95-.63-1.78-1.41-2.54-2.27-1.01-1.14-2.32-1.93-3.79-2.3-2.5-.62-5.2.07-7.11,1.97-.74.74-1.27,1.66-1.64,2.64l-.12.33c-.31.83.08,1.69.86,1.98.78.29,1.64-.1,1.93-.88l.18-.48c.4-1.07,1.21-1.93,2.26-2.39,0,0,0,0,.01,0l-.23,4.52c-.08,1.57-.83,3.04-2.06,4.02Z"/><path d="M12.5 1A2.5 2.5 0 1 0 12.5 6 2.5 2.5 0 1 0 12.5 1z"/></svg>