<svg xmlns="http://www.w3.org/2000/svg" width="24" height="24" viewBox="0 0 24 24"><path d="M18.5 2h-13C3.02 2 1 4.02 1 6.5v11C1 19.98 3.02 22 5.5 22h1c.83 0 1.5-.67 1.5-1.5S7.33 19 6.5 19h-1c-.83 0-1.5-.67-1.5-1.5v-7h16v7c0 .83-.67 1.5-1.5 1.5h-1c-.83 0-1.5.67-1.5 1.5s.67 1.5 1.5 1.5h1c2.48 0 4.5-2.02 4.5-4.5v-11C23 4.02 20.98 2 18.5 2M4 9V6.5C4 5.67 4.67 5 5.5 5h13c.83 0 1.5.67 1.5 1.5V9z"/><rect width="2" height="2" x="14" y="6" rx=".5" ry=".5"/><rect width="2" height="2" x="17" y="6" rx=".5" ry=".5"/><path d="M12.53 12.53a.754.754 0 0 0-1.06 0l-3.19 3.19c-.47.47-.14 1.28.53 1.28h1.69v3.5c0 .83.67 1.5 1.5 1.5s1.5-.67 1.5-1.5V17h1.69c.67 0 1-.81.53-1.28z"/></svg>