<svg xmlns="http://www.w3.org/2000/svg" viewBox="0 0 24 24" width="24" height="24"><path d="m17,4.52v-2.02c0-.83-.67-1.5-1.5-1.5h-7c-.83,0-1.5.67-1.5,1.5v2.02c-2.41,1.62-4,4.36-4,7.48s1.59,5.86,4,7.48v2.02c0,.83.67,1.5,1.5,1.5h7c.83,0,1.5-.67,1.5-1.5v-2.02c2.41-1.62,4-4.36,4-7.48s-1.59-5.86-4-7.48Zm-5,13.48c-3.31,0-6-2.69-6-6s2.69-6,6-6,6,2.69,6,6-2.69,6-6,6Z"/><path d="m15.25,11.25h-2.5v-2.5c0-.41-.34-.75-.75-.75s-.75.34-.75.75v3.25c0,.41.34.75.75.75h3.25c.41,0,.75-.34.75-.75s-.34-.75-.75-.75Z"/></svg>