<svg xmlns="http://www.w3.org/2000/svg" width="24" height="24" viewBox="0 0 24 24"><path d="M12 23c4.96 0 9-3.99 9-8.89 0-7.07-5.96-11.45-7.79-12.63-.73-.47-1.68-.47-2.42 0C8.96 2.66 3 7.04 3 14.11 3 19.01 7.04 23 12 23m0-3c-3.31 0-6-2.64-6-5.89 0-.19.02-.37.03-.55l.21-.12c1.68-.96 3.73-.89 5.34.18a6.57 6.57 0 0 0 3.65 1.11c.94 0 1.88-.22 2.77-.63 0 3.25-2.69 5.89-6 5.89Zm0-15.72c1.63 1.13 5.11 3.99 5.85 8.22l-.09.05c-1.68.96-3.73.89-5.34-.18a6.54 6.54 0 0 0-6.1-.63c1-3.81 4.16-6.4 5.69-7.46Z"/></svg>