<svg xmlns="http://www.w3.org/2000/svg" width="24" height="24" viewBox="0 0 24 24"><path d="M12 17a2 2 0 1 0-.001 4.001A2 2 0 0 0 12 17"/><path d="M14.39 16.24c.08.04.16.08.23.12.08.04.15.09.24.14.07.04.15.09.22.14l.21.15c.27.2.59.3.9.3a1.5 1.5 0 0 0 .9-2.7c-.11-.08-.22-.16-.34-.24-.11-.08-.23-.15-.34-.22s-.24-.14-.36-.2q-.18-.105-.36-.18-.18-.09-.39-.18l-.39-.15c-.13-.05-.26-.09-.39-.13-.14-.04-.27-.08-.4-.11-.14-.04-.28-.07-.43-.1-.13-.03-.26-.05-.41-.07-.14-.02-.28-.04-.43-.05-.14-.01-.29-.03-.43-.03q-.435-.015-.87 0c-.14 0-.29.02-.43.03s-.29.03-.44.06c-.13.02-.27.04-.41.07s-.28.06-.4.09c-.14.04-.27.07-.41.12-.13.04-.26.08-.39.13s-.26.1-.4.16c-.13.05-.25.11-.37.17s-.25.12-.37.19c-.12.06-.24.13-.35.2-.12.07-.23.15-.35.22-.12.08-.23.16-.34.24a1.5 1.5 0 0 0 1.8 2.4l.21-.15c.07-.05.15-.1.23-.14.08-.05.15-.09.23-.13s.15-.08.24-.12c.08-.04.16-.08.23-.11.08-.03.17-.07.25-.1.09-.03.17-.06.26-.09.08-.03.17-.05.27-.08.09-.02.17-.04.25-.06.1-.02.19-.04.28-.05s.18-.03.27-.04c.09 0 .19-.02.28-.02h.57c.09 0 .19.01.28.02.09 0 .18.02.26.03.1.02.2.03.28.05l.27.06c.09.02.17.05.25.07.09.03.17.06.26.09.08.03.17.06.24.09.08.04.16.07.25.12Z"/><path d="M19.78 13.18c.5-.66.36-1.6-.3-2.1-.16-.12-.32-.24-.49-.35s-.33-.22-.51-.32-.35-.21-.53-.3c-.18-.1-.35-.19-.54-.28-.18-.09-.36-.17-.56-.25-.19-.08-.38-.15-.57-.22s-.39-.14-.58-.2c-.2-.06-.39-.12-.6-.17-.2-.05-.4-.1-.6-.14s-.41-.08-.62-.11-.41-.06-.63-.08c-.21-.02-.42-.04-.63-.05-.42-.02-.85-.02-1.28 0-.21.01-.42.03-.63.05s-.42.05-.62.08c-.21.03-.41.07-.61.11s-.4.09-.61.14c-.2.05-.4.11-.59.17-.2.06-.39.13-.58.2a14 14 0 0 0-1.12.48c-.18.09-.36.18-.54.28s-.35.2-.53.3c-.17.1-.34.21-.51.32s-.33.23-.49.35a1.5 1.5 0 0 0 1.8 2.4c.12-.09.25-.18.37-.26.13-.09.26-.17.39-.25s.26-.15.4-.23c.14-.07.27-.14.41-.21s.28-.13.42-.19.29-.12.43-.17.29-.1.44-.15.3-.09.45-.13.31-.07.46-.11.31-.06.47-.08l.47-.06c.16-.02.32-.03.48-.04.33-.02.66-.02.98 0 .16 0 .33.02.48.04l.48.06c.16.02.31.05.47.08s.31.07.46.1c.15.04.3.08.45.13s.29.1.44.15.29.11.43.17.28.12.42.19.28.14.41.21.27.15.4.23.26.16.39.25.25.17.37.27a1.5 1.5 0 0 0 2.1-.3Z"/><path d="M22.18 9.88c.5-.66.36-1.6-.3-2.1-.21-.16-.43-.31-.65-.46s-.44-.29-.67-.43-.46-.27-.69-.4-.47-.25-.71-.36c-.24-.12-.48-.23-.73-.33l-.75-.3c-.25-.1-.51-.18-.77-.26s-.52-.15-.78-.22-.53-.13-.8-.18-.54-.1-.81-.14-.55-.08-.83-.1q-.42-.045-.84-.06c-.56-.03-1.14-.03-1.7 0-.28.01-.56.04-.83.06-.28.03-.55.06-.83.1q-.405.06-.81.15c-.27.05-.53.12-.8.18-.26.07-.52.14-.79.22-.26.08-.51.17-.76.26q-.375.135-.75.3c-.25.1-.49.21-.73.33s-.48.24-.71.37-.47.26-.69.4c-.23.14-.45.28-.67.43s-.44.3-.65.46a1.5 1.5 0 0 0 1.8 2.4c.17-.13.35-.25.53-.38.18-.12.36-.24.55-.35.18-.11.37-.22.56-.32s.38-.2.58-.3c.2-.09.4-.19.6-.27.2-.09.41-.17.61-.24.21-.08.42-.15.62-.21.21-.07.43-.13.64-.18.22-.06.43-.11.65-.15s.44-.08.67-.12l.68-.09c.23-.02.46-.04.69-.05.46-.02.93-.02 1.39 0 .23.01.46.03.69.05s.45.05.67.09c.22.03.45.07.67.12.22.04.44.1.65.15.22.06.43.12.64.18l.63.21c.21.08.41.16.61.24l.6.27c.2.09.39.19.58.3.19.1.38.21.56.32s.37.23.55.35.36.25.53.38a1.5 1.5 0 0 0 2.1-.3Z"/></svg>