<svg xmlns="http://www.w3.org/2000/svg" viewBox="0 0 24 24" width="24" height="24"><path d="m10.5,17.88v2.12h-2c-.83,0-1.5.67-1.5,1.5s.67,1.5,1.5,1.5h7c.83,0,1.5-.67,1.5-1.5s-.67-1.5-1.5-1.5h-2v-2.12c3.41-.54,6.27-2.9,7.22-6.1.31-1.03.36-2.2.17-3.46h0s-.87-5.63-.87-5.63c-.15-.98-.98-1.7-1.98-1.7H5.96c-.99,0-1.83.71-1.98,1.7l-.87,5.63c-.19,1.26-.14,2.43.17,3.46.95,3.2,3.81,5.56,7.22,6.1Zm7.34-6.95c-.71,2.4-3.11,4.07-5.84,4.07s-4.91-1.55-5.73-3.79c.74.36,1.51.55,2.28.55,1.39,0,2.77-.58,3.96-1.72,1.6-1.53,3.56-1.71,5.27-.49l.2.15c0,.45-.04.86-.15,1.23ZM6.82,4h10.37l.59,3.8c-2.09-1.03-4.43-.62-6.29,1.16-1.6,1.53-3.57,1.71-5.27.49l-.19-.14c.01-.17.03-.35.06-.53l.74-4.78Z"/></svg>