<svg xmlns="http://www.w3.org/2000/svg" width="24" height="24" viewBox="0 0 24 24"><g opacity="0.4"><path d="M19 3A1.5 1.5 0 1 0 19 6 1.5 1.5 0 1 0 19 3z"/><path d="m18.02,13.13c-.62-.48-1.42-.63-2.18-.42l-2.29.63c.13.31.23.63.3.95l2.25-.61c.45-.13.93-.03,1.3.25.38.29.59.72.59,1.19v3.38c0,.28.22.5.5.5s.5-.22.5-.5v-3.38c0-.79-.36-1.51-.98-1.99Z"/><path d="m17.17,7.53c-.05-.59-.36-1.12-.84-1.46l-1.47-1.04c-.96-.68-2.29-.59-3.14.21l-2.06,1.89c-.2.19-.22.5-.03.71.19.2.5.22.71.03l2.06-1.89c.52-.48,1.31-.54,1.89-.13l.68.48-4.19,4.19c.59.27,1.14.63,1.61,1.1.29.29.54.62.75.96l3.45-3.45c.42-.42.63-1,.58-1.58Z"/></g><path d="m6.43,11.52c.28-.15.52-.25.75-.32,1.57-.48,3.33-.05,4.5,1.12.85.85,1.32,1.98,1.32,3.18,0,.45-.07.89-.2,1.32-.07.23-.17.48-.32.76-.13.24-.03.55.21.67.07.04.15.06.23.06.18,0,.35-.1.44-.27.18-.34.3-.63.39-.92.16-.52.24-1.06.24-1.61,0-1.47-.57-2.85-1.61-3.89-1.42-1.42-3.58-1.96-5.5-1.37-.29.09-.59.21-.93.39-.24.13-.34.43-.21.67.13.24.43.34.68.21Z"/><path d="m11.04,20.37c.24-.13.34-.43.21-.67-.13-.24-.43-.34-.68-.21-.28.15-.52.25-.75.32-1.57.49-3.33.05-4.5-1.12-.85-.85-1.32-1.98-1.32-3.18,0-.45.07-.89.2-1.32.07-.23.17-.48.32-.76.13-.24.03-.55-.21-.67-.24-.13-.55-.03-.68.21-.18.34-.3.63-.39.92-.16.52-.24,1.06-.24,1.61,0,1.47.57,2.85,1.61,3.89,1.04,1.04,2.42,1.61,3.89,1.61.55,0,1.09-.08,1.61-.24.29-.09.59-.21.93-.39Z"/></svg>