<svg xmlns="http://www.w3.org/2000/svg" width="24" height="24" viewBox="0 0 24 24"><g opacity="0.4"><path d="m11,19c2.03,0,3.87-.76,5.28-2.01l-4.32-4.32-1.96-1.96v4.79c0,.28-.22.5-.5.5s-.5-.22-.5-.5v-6c0-.28.22-.5.5-.5h6c.28,0,.5.22.5.5s-.22.5-.5.5h-4.79l1.96,1.96,4.32,4.32c1.25-1.41,2.01-3.26,2.01-5.28,0-4.41-3.59-8-8-8S3,6.59,3,11s3.59,8,8,8Z"/></g><path d="m16,9.5c0-.28-.22-.5-.5-.5h-6c-.28,0-.5.22-.5.5v6c0,.28.22.5.5.5s.5-.22.5-.5v-4.79l1.96,1.96,5.19,5.19c.1.1.23.15.35.15s.26-.05.35-.15c.2-.2.2-.51,0-.71l-5.19-5.19-1.96-1.96h4.79c.28,0,.5-.22.5-.5Z"/></svg>