<svg xmlns="http://www.w3.org/2000/svg" width="24" height="24" viewBox="0 0 24 24"><g opacity="0.4"><path d="m6.88,3.43c-.2-.23-.55-.23-.75,0l-2.4,2.74c-.28.32-.05.83.38.83h1.9v13.5c0,.28.22.5.5.5s.5-.22.5-.5V7h1.9c.43,0,.66-.51.38-.83l-2.4-2.74Z"/></g><path d="m20.5,20h-4.91l5.29-6.17c.13-.15.16-.36.07-.53-.08-.18-.26-.29-.45-.29h-6c-.28,0-.5.22-.5.5s.22.5.5.5h4.91l-5.29,6.17c-.13.15-.16.36-.07.53.08.18.26.29.45.29h6c.28,0,.5-.22.5-.5s-.22-.5-.5-.5Z"/><path d="m19.26,4.32c-.23-.78-.95-1.32-1.76-1.32s-1.53.54-1.76,1.32l-1.78,6.04c-.08.27.07.54.34.62.26.08.54-.07.62-.34l.78-2.64h3.6l.78,2.64c.06.22.26.36.48.36.05,0,.09,0,.14-.02.27-.08.42-.36.34-.62l-1.78-6.04Zm-3.27,2.68l.71-2.4c.1-.35.43-.6.8-.6s.7.25.8.6l.71,2.4h-3.02Z"/></svg>