<svg xmlns="http://www.w3.org/2000/svg" width="24" height="24" viewBox="0 0 24 24"><g opacity="0.4"><path d="m16.5,4H7.5c-1.93,0-3.5,1.57-3.5,3.5v9c0,1.93,1.57,3.5,3.5,3.5h9c1.93,0,3.5-1.57,3.5-3.5V7.5c0-1.93-1.57-3.5-3.5-3.5Zm-1.15,8.35l-2.5,2.5c-.1.1-.23.15-.35.15s-.26-.05-.35-.15c-.2-.2-.2-.51,0-.71l1.65-1.65h-5.29c-.28,0-.5-.22-.5-.5s.22-.5.5-.5h5.29l-1.65-1.65c-.2-.2-.2-.51,0-.71s.51-.2.71,0l2.5,2.5c.2.2.2.51,0,.71Z"/></g><path d="m8,12c0,.28.22.5.5.5h5.29l-1.65,1.65c-.2.2-.2.51,0,.71.1.1.23.15.35.15s.26-.05.35-.15l2.5-2.5c.2-.2.2-.51,0-.71l-2.5-2.5c-.2-.2-.51-.2-.71,0s-.2.51,0,.71l1.65,1.65h-5.29c-.28,0-.5.22-.5.5Z"/></svg>