<svg xmlns="http://www.w3.org/2000/svg" width="24" height="24" viewBox="0 0 24 24"><g opacity="0.4"><path d="m16.5,4h-6c-1.93,0-3.5,1.57-3.5,3.5v6c0,.79.27,1.5.71,2.09l3.94-3.94c.2-.2.51-.2.71,0s.2.51,0,.71l-3.94,3.94c.58.44,1.3.71,2.09.71h6c1.93,0,3.5-1.57,3.5-3.5v-6c0-1.93-1.57-3.5-3.5-3.5Z"/></g><path d="m4.31,19.96c.06.03.13.04.19.04h4.29c.45,0,.67-.54.35-.85l-1.79-1.79,5-5c.2-.2.2-.51,0-.71s-.51-.2-.71,0l-5,5-1.79-1.79c-.32-.31-.85-.09-.85.35v4.29c0,.07.01.13.04.19.05.12.15.22.27.27Z"/></svg>