<svg xmlns="http://www.w3.org/2000/svg" width="24" height="24" viewBox="0 0 24 24"><g opacity="0.4"><path d="m13,5c-2.03,0-3.87.76-5.28,2.01l4.32,4.32,1.96,1.96v-4.79c0-.28.22-.5.5-.5s.5.22.5.5v6c0,.28-.22.5-.5.5h-6c-.28,0-.5-.22-.5-.5s.22-.5.5-.5h4.79l-1.96-1.96-4.32-4.32c-1.25,1.41-2.01,3.26-2.01,5.28,0,4.41,3.59,8,8,8s8-3.59,8-8-3.59-8-8-8Z"/></g><path d="m8,14.5c0,.28.22.5.5.5h6c.28,0,.5-.22.5-.5v-6c0-.28-.22-.5-.5-.5s-.5.22-.5.5v4.79l-1.96-1.96-5.19-5.19c-.2-.2-.51-.2-.71,0s-.2.51,0,.71l5.19,5.19,1.96,1.96h-4.79c-.28,0-.5.22-.5.5Z"/></svg>