<svg xmlns="http://www.w3.org/2000/svg" width="24" height="24" viewBox="0 0 24 24"><g opacity="0.4"><path d="m17.5,3H6.5c-1.93,0-3.5,1.57-3.5,3.5v2c0,1.93,1.57,3.5,3.5,3.5h11c1.93,0,3.5-1.57,3.5-3.5v-2c0-1.93-1.57-3.5-3.5-3.5Zm0,7H6.5c-.28,0-.5-.22-.5-.5s.22-.5.5-.5h11c.28,0,.5.22.5.5s-.22.5-.5.5Zm0-3c-.28,0-.5-.22-.5-.5s.22-.5.5-.5.5.22.5.5-.22.5-.5.5Z"/></g><path d="m13,14.5c0-.28-.22-.5-.5-.5s-.5.22-.5.5-.11.4-.35.65c-.27.27-.65.65-.65,1.35s.37,1.08.65,1.35c.25.25.35.37.35.65s-.11.4-.35.65c-.27.27-.65.65-.65,1.35,0,.28.22.5.5.5s.5-.22.5-.5.11-.4.35-.65c.27-.27.65-.65.65-1.35s-.37-1.08-.65-1.35c-.25-.25-.35-.37-.35-.65s.11-.4.35-.65c.27-.27.65-.65.65-1.35Z"/><path d="m16.5,14.5c0-.28-.22-.5-.5-.5s-.5.22-.5.5-.11.4-.35.65c-.27.27-.65.65-.65,1.35s.37,1.08.65,1.35c.25.25.35.37.35.65s-.11.4-.35.65c-.27.27-.65.65-.65,1.35,0,.28.22.5.5.5s.5-.22.5-.5.11-.4.35-.65c.27-.27.65-.65.65-1.35s-.37-1.08-.65-1.35c-.25-.25-.35-.37-.35-.65s.11-.4.35-.65c.27-.27.65-.65.65-1.35Z"/><path d="m9.5,14.5c0-.28-.22-.5-.5-.5s-.5.22-.5.5-.11.4-.35.65c-.27.27-.65.65-.65,1.35s.37,1.08.65,1.35c.25.25.35.37.35.65s-.11.4-.35.65c-.27.27-.65.65-.65,1.35,0,.28.22.5.5.5s.5-.22.5-.5.11-.4.35-.65c.27-.27.65-.65.65-1.35s-.37-1.08-.65-1.35c-.25-.25-.35-.37-.35-.65s.11-.4.35-.65c.27-.27.65-.65.65-1.35Z"/><path d="M17.5 6A.5.5 0 1 0 17.5 7 .5.5 0 1 0 17.5 6z"/><path d="m6.5,10h11c.28,0,.5-.22.5-.5s-.22-.5-.5-.5H6.5c-.28,0-.5.22-.5.5s.22.5.5.5Z"/></svg>