<svg xmlns="http://www.w3.org/2000/svg" width="24" height="24" viewBox="0 0 24 24"><g opacity="0.4"><path d="m17.5,4H6.5c-1.93,0-3.5,1.57-3.5,3.5v9c0,1.93,1.57,3.5,3.5,3.5h11c1.93,0,3.5-1.57,3.5-3.5V7.5c0-1.93-1.57-3.5-3.5-3.5Zm-4,12.5h-7c-.28,0-.5-.22-.5-.5s.22-.5.5-.5h7c.28,0,.5.22.5.5s-.22.5-.5.5Zm4-4H6.5c-.28,0-.5-.22-.5-.5s.22-.5.5-.5h11c.28,0,.5.22.5.5s-.22.5-.5.5Zm0-4H6.5c-.28,0-.5-.22-.5-.5s.22-.5.5-.5h11c.28,0,.5.22.5.5s-.22.5-.5.5Z"/></g><path d="m6.5,16.5h7c.28,0,.5-.22.5-.5s-.22-.5-.5-.5h-7c-.28,0-.5.22-.5.5s.22.5.5.5Z"/><path d="m6.5,12.5h11c.28,0,.5-.22.5-.5s-.22-.5-.5-.5H6.5c-.28,0-.5.22-.5.5s.22.5.5.5Z"/><path d="m6.5,8.5h11c.28,0,.5-.22.5-.5s-.22-.5-.5-.5H6.5c-.28,0-.5.22-.5.5s.22.5.5.5Z"/></svg>