<svg xmlns="http://www.w3.org/2000/svg" width="24" height="24" viewBox="0 0 24 24"><g opacity="0.4"><path d="m12,3C7.04,3,3,7.04,3,12c0,4.96,4.04,9,9,9s9-4.04,9-9c0-4.96-4.04-9-9-9Zm2.85,6.85l-3.5,3.5.79.79c.31.32.09.85-.35.85h-2.29c-.28,0-.5-.22-.5-.5v-2.29c0-.45.54-.67.85-.35l.79.79,3.5-3.5c.2-.2.51-.2.71,0s.2.51,0,.71Z"/></g><path d="m14.85,9.15c-.2-.2-.51-.2-.71,0l-3.5,3.5-.79-.79c-.31-.31-.85-.09-.85.35v2.29c0,.28.22.5.5.5h2.29c.45,0,.67-.54.35-.85l-.79-.79,3.5-3.5c.2-.2.2-.51,0-.71Z"/></svg>