<svg xmlns="http://www.w3.org/2000/svg" width="24" height="24" viewBox="0 0 24 24"><g opacity="0.4"><path d="m13,5c-2.03,0-3.88.76-5.29,2.01l4.64,4.64c.2.2.2.51,0,.71-.1.1-.23.15-.35.15s-.26-.05-.35-.15l-4.64-4.64c-1.24,1.41-2.01,3.26-2.01,5.29,0,4.42,3.58,8,8,8s8-3.58,8-8-3.58-8-8-8Z"/></g><path d="m3.85,8.15l1.79-1.79,6,6c.1.1.23.15.35.15s.26-.05.35-.15c.2-.2.2-.51,0-.71l-6-6,1.79-1.79c.32-.31.09-.85-.35-.85H3.5c-.07,0-.13.01-.19.04-.12.05-.22.15-.27.27-.03.06-.04.13-.04.19v4.29c0,.45.54.67.85.35Z"/></svg>