<svg xmlns="http://www.w3.org/2000/svg" width="24" height="24" viewBox="0 0 24 24"><g opacity="0.4"><path d="m13.5,4h-6c-1.93,0-3.5,1.57-3.5,3.5v6c0,1.93,1.57,3.5,3.5,3.5h6c.78,0,1.5-.27,2.09-.71l-3.94-3.94c-.2-.2-.2-.51,0-.71.1-.1.23-.15.35-.15s.26.05.35.15l3.94,3.94c.44-.58.71-1.3.71-2.09v-6c0-1.93-1.57-3.5-3.5-3.5Z"/></g><path d="m19.5,13c-.28,0-.5.22-.5.5v4.79l-6.65-6.65c-.1-.1-.23-.15-.35-.15s-.26.05-.35.15c-.2.2-.2.51,0,.71l6.65,6.65h-4.79c-.28,0-.5.22-.5.5s.22.5.5.5h6c.07,0,.13-.01.19-.04.12-.05.22-.15.27-.27.03-.06.04-.13.04-.19v-6c0-.28-.22-.5-.5-.5Z"/></svg>