<svg xmlns="http://www.w3.org/2000/svg" width="24" height="24" viewBox="0 0 24 24"><g opacity="0.4"><path d="m13.73,4.47c-.36-.62-1.01-.99-1.73-.99s-1.37.37-1.73.99l-7.89,13.52c-.37.63-.37,1.38,0,2s1.01,1,1.73,1h15.78c.72,0,1.37-.38,1.73-1s.36-1.38,0-2l-7.89-13.52Zm-1.73,13.53c-.28,0-.5-.22-.5-.5s.22-.5.5-.5.5.22.5.5-.22.5-.5.5Zm.5-3c0,.28-.22.5-.5.5s-.5-.22-.5-.5v-4.5c0-.28.22-.5.5-.5s.5.22.5.5v4.5Z"/></g><path d="M12 17A.5.5 0 1 0 12 18 .5.5 0 1 0 12 17z"/><path d="m12.5,10.5c0-.28-.22-.5-.5-.5s-.5.22-.5.5v4.5c0,.28.22.5.5.5s.5-.22.5-.5v-4.5Z"/></svg>