<svg xmlns="http://www.w3.org/2000/svg" width="24" height="24" viewBox="0 0 24 24"><g opacity="0.4"><path d="m16.5,7h-6c-.79,0-1.5.27-2.09.71l3.94,3.94c.2.2.2.51,0,.71-.1.1-.23.15-.35.15s-.26-.05-.35-.15l-3.94-3.94c-.44.58-.71,1.3-.71,2.09v6c0,1.93,1.57,3.5,3.5,3.5h6c1.93,0,3.5-1.57,3.5-3.5v-6c0-1.93-1.57-3.5-3.5-3.5Z"/></g><path d="m4.85,9.15l1.79-1.79,5,5c.1.1.23.15.35.15s.26-.05.35-.15c.2-.2.2-.51,0-.71l-5-5,1.79-1.79c.32-.31.09-.85-.35-.85h-4.29c-.07,0-.13.01-.19.04-.12.05-.22.15-.27.27-.03.06-.04.13-.04.19v4.29c0,.45.54.67.85.35Z"/></svg>