<svg xmlns="http://www.w3.org/2000/svg" width="24" height="24" viewBox="0 0 24 24"><g opacity="0.4"><path d="m7.5,20h8c1.93,0,3.5-1.57,3.5-3.5v-8c0-.78-.27-1.5-.71-2.09l-6.59,6.59h4.79c.28,0,.5.22.5.5s-.22.5-.5.5h-6c-.28,0-.5-.22-.5-.5v-6c0-.28.22-.5.5-.5s.5.22.5.5v4.79l6.59-6.59c-.58-.44-1.3-.71-2.09-.71H7.5c-1.93,0-3.5,1.57-3.5,3.5v8c0,1.93,1.57,3.5,3.5,3.5Z"/></g><path d="m19.15,4.15l-8.15,8.15v-4.79c0-.28-.22-.5-.5-.5s-.5.22-.5.5v6c0,.28.22.5.5.5h6c.28,0,.5-.22.5-.5s-.22-.5-.5-.5h-4.79l8.15-8.15c.2-.2.2-.51,0-.71s-.51-.2-.71,0Z"/></svg>