<svg xmlns="http://www.w3.org/2000/svg" width="24" height="24" viewBox="0 0 24 24"><g opacity="0.4"><path d="m13,5c-2.03,0-3.88.76-5.29,2.01l3.64,3.64,1.79-1.79c.32-.31.85-.09.85.35v4.29c0,.07-.01.13-.04.19-.05.12-.15.22-.27.27-.06.03-.13.04-.19.04h-4.29c-.45,0-.67-.54-.35-.85l1.79-1.79-3.64-3.64c-1.24,1.41-2.01,3.26-2.01,5.29,0,4.42,3.58,8,8,8s8-3.58,8-8-3.58-8-8-8Z"/></g><path d="m9.21,14h4.29c.07,0,.13-.01.19-.04.12-.05.22-.15.27-.27.03-.06.04-.13.04-.19v-4.29c0-.45-.54-.67-.85-.35l-1.79,1.79-5.5-5.5c-.2-.2-.51-.2-.71,0s-.2.51,0,.71l5.5,5.5-1.79,1.79c-.32.32-.09.85.35.85Z"/></svg>