<svg xmlns="http://www.w3.org/2000/svg" width="24" height="24" viewBox="0 0 24 24"><g opacity="0.4"><path d="m12,4c-4.88,0-9,4.12-9,9s4.12,9,9,9,9-4.12,9-9-4.12-9-9-9Zm2.5,12h-5c-.2,0-.38-.12-.46-.31s-.03-.4.11-.54l4.15-4.15h-3.79c-.28,0-.5-.22-.5-.5s.22-.5.5-.5h5c.2,0,.38.12.46.31s.03.4-.11.54l-4.15,4.15h3.79c.28,0,.5.22.5.5s-.22.5-.5.5Z"/></g><path d="m18.34,2.65c-.19-.19-.51-.2-.71,0-.19.2-.19.51,0,.71l3.01,3c.1.1.22.15.35.15s.26-.05.35-.15c.19-.2.19-.51,0-.71l-3.01-3Z"/><path d="m3.35,6.35l2.99-3c.19-.2.19-.51,0-.71-.2-.19-.51-.19-.71,0l-2.99,3c-.19.2-.19.51,0,.71.1.1.23.15.35.15s.26-.05.35-.15Z"/><path d="m9.5,11h3.79l-4.15,4.15c-.14.14-.19.36-.11.54s.26.31.46.31h5c.28,0,.5-.22.5-.5s-.22-.5-.5-.5h-3.79l4.15-4.15c.14-.14.19-.36.11-.54s-.26-.31-.46-.31h-5c-.28,0-.5.22-.5.5s.22.5.5.5Z"/></svg>