<svg xmlns="http://www.w3.org/2000/svg" width="24" height="24" viewBox="0 0 24 24"><g opacity="0.4"><path d="m11,21c4.42,0,8-3.58,8-8,0-2.03-.76-3.88-2.01-5.29l-4.64,4.64c-.1.1-.23.15-.35.15s-.26-.05-.35-.15c-.2-.2-.2-.51,0-.71l4.64-4.64c-1.41-1.24-3.26-2.01-5.29-2.01-4.42,0-8,3.58-8,8s3.58,8,8,8Z"/></g><path d="m20.69,3.04c-.06-.03-.13-.04-.19-.04h-4.29c-.45,0-.67.54-.35.85l1.79,1.79-6,6c-.2.2-.2.51,0,.71.1.1.23.15.35.15s.26-.05.35-.15l6-6,1.79,1.79c.32.32.85.09.85-.35V3.5c0-.07-.01-.13-.04-.19-.05-.12-.15-.22-.27-.27Z"/></svg>