<svg xmlns="http://www.w3.org/2000/svg" width="24" height="24" viewBox="0 0 24 24"><g opacity="0.4"><path d="m12,4c-2.01,0-3.89.71-5.41,1.88l4.91,4.91v-2.29c0-.28.22-.5.5-.5s.5.22.5.5v3.29l.71.71h3.29c.28,0,.5.22.5.5s-.22.5-.5.5h-2.29l4.91,4.91c1.17-1.52,1.88-3.4,1.88-5.41,0-4.88-4.12-9-9-9Z"/><path d="m12,13.5c-.28,0-.5-.22-.5-.5v-.79l-5.68-5.68c-1.73,1.65-2.82,3.96-2.82,6.47,0,4.88,4.12,9,9,9,2.51,0,4.82-1.1,6.47-2.82l-5.68-5.68h-.79Z"/></g><path d="m18.34,2.65c-.19-.19-.51-.2-.71,0-.19.2-.19.51,0,.71l3.01,3c.1.1.22.15.35.15s.26-.05.35-.15c.19-.2.19-.51,0-.71l-3.01-3Z"/><path d="m14.21,13.5h2.29c.28,0,.5-.22.5-.5s-.22-.5-.5-.5h-3.29l-.71-.71v-3.29c0-.28-.22-.5-.5-.5s-.5.22-.5.5v2.29l-6.3-6.3,1.14-1.14c.19-.2.19-.51,0-.71-.2-.19-.51-.2-.71,0l-1.14,1.14-.64-.64c-.2-.2-.51-.2-.71,0s-.2.51,0,.71l.64.64-1.15,1.15c-.19.2-.19.51,0,.71.1.1.23.15.35.15s.26-.05.35-.15l1.14-1.15,7,7v.79c0,.28.22.5.5.5h.79l7.35,7.35c.1.1.23.15.35.15s.26-.05.35-.15c.2-.2.2-.51,0-.71l-6.65-6.65Z"/></svg>