<svg xmlns="http://www.w3.org/2000/svg" width="24" height="24" viewBox="0 0 24 24"><g opacity="0.4"><path d="m12,3C7.04,3,3,7.04,3,12c0,4.96,4.04,9,9,9s9-4.04,9-9c0-4.96-4.04-9-9-9Zm3.5,9.5h-5.29l1.65,1.65c.2.2.2.51,0,.71-.1.1-.23.15-.35.15s-.26-.05-.35-.15l-2.5-2.5c-.2-.2-.2-.51,0-.71l2.5-2.5c.2-.2.51-.2.71,0s.2.51,0,.71l-1.65,1.65h5.29c.28,0,.5.22.5.5s-.22.5-.5.5Z"/></g><path d="m11.85,9.15c-.2-.2-.51-.2-.71,0l-2.5,2.5c-.2.2-.2.51,0,.71l2.5,2.5c.1.1.23.15.35.15s.26-.05.35-.15c.2-.2.2-.51,0-.71l-1.65-1.65h5.29c.28,0,.5-.22.5-.5s-.22-.5-.5-.5h-5.29l1.65-1.65c.2-.2.2-.51,0-.71Z"/></svg>