<svg xmlns="http://www.w3.org/2000/svg" width="24" height="24" viewBox="0 0 24 24"><g opacity="0.4"><path d="m12,3c-4.96,0-9,4.04-9,9s4.04,9,9,9c4.96,0,9-4.04,9-9S16.96,3,12,3Zm2.85,8.85c-.1.1-.23.15-.35.15s-.26-.05-.35-.15l-1.65-1.65v5.29c0,.28-.22.5-.5.5s-.5-.22-.5-.5v-5.29l-1.65,1.65c-.2.2-.51.2-.71,0s-.2-.51,0-.71l2.5-2.5c.2-.2.51-.2.71,0l2.5,2.5c.2.2.2.51,0,.71Z"/></g><path d="m12,16c.28,0,.5-.22.5-.5v-5.29l1.65,1.65c.1.1.23.15.35.15s.26-.05.35-.15c.2-.2.2-.51,0-.71l-2.5-2.5c-.2-.2-.51-.2-.71,0l-2.5,2.5c-.2.2-.2.51,0,.71s.51.2.71,0l1.65-1.65v5.29c0,.28.22.5.5.5Z"/></svg>