<svg xmlns="http://www.w3.org/2000/svg" width="24" height="24" viewBox="0 0 24 24"><g opacity="0.4"><path d="m16.5,4h-6c-1.93,0-3.5,1.57-3.5,3.5v6c0,.78.27,1.5.71,2.09l3.94-3.94c.2-.2.51-.2.71,0s.2.51,0,.71l-3.94,3.94c.58.44,1.3.71,2.09.71h6c1.93,0,3.5-1.57,3.5-3.5v-6c0-1.93-1.57-3.5-3.5-3.5Z"/></g><path d="m4.31,19.96c.06.03.13.04.19.04h6c.28,0,.5-.22.5-.5s-.22-.5-.5-.5h-4.79l6.65-6.65c.2-.2.2-.51,0-.71s-.51-.2-.71,0l-6.65,6.65v-4.79c0-.28-.22-.5-.5-.5s-.5.22-.5.5v6c0,.07.01.13.04.19.05.12.15.22.27.27Z"/></svg>