<svg xmlns="http://www.w3.org/2000/svg" width="24" height="24" viewBox="0 0 24 24"><g opacity="0.4"><path d="m18.83,6.14l-5.98-2.79c-.54-.25-1.15-.25-1.69,0l-5.98,2.79c-.74.34-1.19,1.09-1.15,1.9.12,2.76,1.06,9.51,7.11,12.6.27.14.58.21.88.21s.6-.07.88-.21c6.04-3.09,6.98-9.84,7.11-12.6.04-.81-.42-1.55-1.15-1.9Zm-6.83,9.86c-.28,0-.5-.22-.5-.5s.22-.5.5-.5.5.22.5.5-.22.5-.5.5Zm.5-3c0,.28-.22.5-.5.5s-.5-.22-.5-.5v-4.5c0-.28.22-.5.5-.5s.5.22.5.5v4.5Z"/></g><path d="M12 15A.5.5 0 1 0 12 16 .5.5 0 1 0 12 15z"/><path d="m12.5,13v-4.5c0-.28-.22-.5-.5-.5s-.5.22-.5.5v4.5c0,.28.22.5.5.5s.5-.22.5-.5Z"/></svg>