<svg xmlns="http://www.w3.org/2000/svg" width="24" height="24" viewBox="0 0 24 24"><g opacity="0.4"><path d="m12.5,19.97v-8.97h2c.28,0,.5-.22.5-.5s-.22-.5-.5-.5h-2v-1.05c-.16.03-.33.05-.5.05s-.34-.02-.5-.05v1.05h-2c-.28,0-.5.22-.5.5s.22.5.5.5h2v8.97c-2.74-.23-4.96-2.3-5.41-4.97h-1.01c.46,3.22,3.13,5.74,6.42,5.97v.03h1v-.03c3.29-.23,5.96-2.75,6.42-5.97h-1.01c-.45,2.67-2.67,4.75-5.41,4.97Z"/></g><path d="m12,9c1.63,0,3-1.39,3-3.03s-1.35-2.97-3-2.97-3,1.33-3,2.97,1.37,3.03,3,3.03Z"/><path d="m18.88,12.46c-.2-.24-.57-.24-.77,0l-1.43,1.72c-.27.33-.04.82.38.82h2.86c.42,0,.66-.49.38-.82l-1.43-1.72Z"/><path d="m7.32,14.18l-1.43-1.72c-.2-.24-.57-.24-.77,0l-1.43,1.72c-.27.33-.04.82.38.82h2.86c.42,0,.66-.49.38-.82Z"/></svg>