<svg xmlns="http://www.w3.org/2000/svg" width="24" height="24" viewBox="0 0 24 24"><g opacity="0.4"><path d="m16.5,5h-8c-.78,0-1.5.27-2.09.71l6.59,6.59v-4.79c0-.28.22-.5.5-.5s.5.22.5.5v6c0,.28-.22.5-.5.5h-6c-.28,0-.5-.22-.5-.5s.22-.5.5-.5h4.79l-6.59-6.59c-.44.58-.71,1.3-.71,2.09v8c0,1.93,1.57,3.5,3.5,3.5h8c1.93,0,3.5-1.57,3.5-3.5v-8c0-1.93-1.57-3.5-3.5-3.5Z"/></g><path d="m7.5,13c-.28,0-.5.22-.5.5s.22.5.5.5h6c.28,0,.5-.22.5-.5v-6c0-.28-.22-.5-.5-.5s-.5.22-.5.5v4.79L4.85,4.15c-.2-.2-.51-.2-.71,0s-.2.51,0,.71l8.15,8.15h-4.79Z"/></svg>