<svg xmlns="http://www.w3.org/2000/svg" width="24" height="24" viewBox="0 0 24 24"><g opacity="0.4"><path d="m10.09,6.33c-.07-.2-.26-.33-.47-.33h-1c-.21,0-.4.13-.47.33l-4,11c-.09.26.04.55.3.64.26.1.55-.04.64-.3l1.34-3.67h5.39l1.34,3.67c.07.2.27.33.47.33.06,0,.11,0,.17-.03.26-.09.39-.38.3-.64l-4-11Zm-3.3,6.67l2.18-6h.3l2.18,6h-4.66Z"/></g><path d="m18.03,6.22c-.29-.29-.77-.29-1.06,0l-2.62,2.62c-.32.31-.09.85.35.85h2.29v7.81c0,.28.22.5.5.5s.5-.22.5-.5v-7.81h2.29c.45,0,.67-.54.35-.85l-2.62-2.62Z"/></svg>