<svg xmlns="http://www.w3.org/2000/svg" width="24" height="24" viewBox="0 0 24 24"><g opacity="0.4"><path d="m12,4c-4.88,0-9,4.12-9,9s4.12,9,9,9,9-4.12,9-9-4.12-9-9-9Zm4.1,6.51l-4.69,4.69c-.1.1-.23.15-.35.15s-.26-.05-.35-.15l-2.81-2.81c-.2-.2-.2-.51,0-.71s.51-.2.71,0l2.46,2.46,4.33-4.33c.2-.2.51-.2.71,0s.2.51,0,.71Z"/></g><path d="m18.34,2.65c-.19-.19-.51-.2-.71,0-.19.2-.19.51,0,.71l3.01,3c.1.1.22.15.35.15s.26-.05.35-.15c.19-.2.19-.51,0-.71l-3.01-3Z"/><path d="m3.35,6.35l2.99-3c.19-.2.19-.51,0-.71-.2-.19-.51-.2-.71,0l-2.99,3c-.19.2-.19.51,0,.71.1.1.23.15.35.15s.26-.05.35-.15Z"/><path d="m10.71,15.2c.1.1.23.15.35.15s.26-.05.35-.15l4.69-4.69c.2-.2.2-.51,0-.71s-.51-.2-.71,0l-4.33,4.33-2.46-2.46c-.2-.2-.51-.2-.71,0s-.2.51,0,.71l2.81,2.81Z"/></svg>