<svg xmlns="http://www.w3.org/2000/svg" width="24" height="24" viewBox="0 0 24 24"><g opacity="0.4"><path d="m14.25,4.07l-6.31,3.6c-.38.22-.81.33-1.24.33h-.7c-1.65,0-3,1.35-3,3s1.35,3,3,3h.7c.43,0,.86.11,1.24.33l6.31,3.6c.08.04.16.07.25.07s.17-.02.25-.07c.15-.09.25-.25.25-.43V4.5c0-.18-.09-.34-.25-.43-.15-.09-.34-.09-.5,0Z"/></g><path d="m20.5,10.5h-1.5c-.28,0-.5.22-.5.5s.22.5.5.5h1.5c.28,0,.5-.22.5-.5s-.22-.5-.5-.5Z"/><path d="m18.5,8.17c.1,0,.19-.03.28-.08l1-.67c.23-.15.29-.46.14-.69-.15-.23-.47-.29-.69-.14l-1,.67c-.23.15-.29.46-.14.69.1.14.25.22.42.22Z"/><path d="m18.78,13.92c-.23-.15-.54-.09-.69.14-.15.23-.09.54.14.69l1,.67c.08.06.18.08.28.08.16,0,.32-.08.42-.22.15-.23.09-.54-.14-.69l-1-.67Z"/><path d="m15,8.71v4.58c.88-.39,1.5-1.26,1.5-2.29s-.62-1.9-1.5-2.29Z"/><path d="m6.88,20s.09,0,.13-.02c.27-.07.42-.35.35-.61l-1.47-5.38c-.39-.01-.76-.1-1.1-.25l1.6,5.89c.06.22.26.37.48.37Z"/></svg>