<svg xmlns="http://www.w3.org/2000/svg" width="24" height="24" viewBox="0 0 24 24"><g opacity="0.4"><path d="m19.5,4H4.5c-.28,0-.5.22-.5.5s.22.5.5.5h15c.28,0,.5-.22.5-.5s-.22-.5-.5-.5Z"/><path d="m19.5,11.5H4.5c-.28,0-.5.22-.5.5s.22.5.5.5h15c.28,0,.5-.22.5-.5s-.22-.5-.5-.5Z"/><path d="m19.5,19H4.5c-.28,0-.5.22-.5.5s.22.5.5.5h15c.28,0,.5-.22.5-.5s-.22-.5-.5-.5Z"/></g><path d="m7.5,8.75h9c.28,0,.5-.22.5-.5s-.22-.5-.5-.5H7.5c-.28,0-.5.22-.5.5s.22.5.5.5Z"/><path d="m7.5,16.25h9c.28,0,.5-.22.5-.5s-.22-.5-.5-.5H7.5c-.28,0-.5.22-.5.5s.22.5.5.5Z"/></svg>