<svg xmlns="http://www.w3.org/2000/svg" width="24" height="24" viewBox="0 0 24 24"><g opacity="0.4"><path d="m20.5,11.5c-.28,0-.5.22-.5.5,0,1.08-.21,2.13-.63,3.11-.4.95-.98,1.81-1.71,2.54-.74.73-1.59,1.31-2.54,1.71-1.97.83-4.26.83-6.23,0-.02,0-.03-.01-.04-.02.1-.27.16-.55.16-.85,0-1.39-1.11-2.5-2.5-2.5s-2.5,1.11-2.5,2.5,1.11,2.5,2.5,2.5c.72,0,1.37-.31,1.82-.79.06.03.12.06.18.08,1.11.47,2.29.71,3.5.71s2.39-.24,3.5-.71c1.07-.45,2.03-1.1,2.86-1.93.83-.83,1.48-1.79,1.93-2.86.47-1.11.71-2.29.71-3.5,0-.28-.22-.5-.5-.5Z"/><path d="m4.63,8.89c.4-.95.98-1.81,1.71-2.54.74-.73,1.59-1.31,2.54-1.71,1.97-.83,4.26-.83,6.23,0,.02,0,.03.01.04.02-.1.27-.16.55-.16.85,0,1.39,1.11,2.5,2.5,2.5s2.5-1.11,2.5-2.5-1.11-2.5-2.5-2.5c-.72,0-1.37.31-1.82.79-.06-.03-.12-.06-.18-.08-2.22-.94-4.79-.94-7.01,0-1.07.45-2.03,1.1-2.86,1.93-.83.83-1.48,1.79-1.93,2.86-.47,1.11-.71,2.29-.71,3.5,0,.28.22.5.5.5s.5-.22.5-.5c0-1.08.21-2.13.63-3.11Z"/></g><path d="M12 8A4 4 0 1 0 12 16 4 4 0 1 0 12 8z"/></svg>