<svg xmlns="http://www.w3.org/2000/svg" width="24" height="24" viewBox="0 0 24 24"><g opacity="0.4"><path d="m18.97,4.48c-.66-.93-1.72-1.48-2.86-1.48H7.88c-1.13,0-2.2.55-2.86,1.48l-1.38,1.95c-.42.59-.64,1.29-.64,2.02v9.05c0,1.93,1.57,3.5,3.5,3.5h11c1.93,0,3.5-1.57,3.5-3.5v-9.05c0-.73-.22-1.43-.64-2.02l-1.38-1.95Zm-3.47,8.52h-7c-.28,0-.5-.22-.5-.5s.22-.5.5-.5h7c.28,0,.5.22.5.5s-.22.5-.5.5ZM4.47,7l1.38-1.94c.47-.66,1.23-1.06,2.04-1.06h8.23c.81,0,1.57.39,2.04,1.06l1.38,1.94H4.47Z"/></g><path d="m8.5,12c-.28,0-.5.22-.5.5s.22.5.5.5h7c.28,0,.5-.22.5-.5s-.22-.5-.5-.5h-7Z"/><path d="m19.53,7l-1.38-1.94c-.47-.66-1.23-1.06-2.04-1.06H7.88c-.81,0-1.57.39-2.04,1.06l-1.38,1.94h15.07Z"/></svg>