<svg xmlns="http://www.w3.org/2000/svg" width="24" height="24" viewBox="0 0 24 24"><g opacity="0.4"><path d="m7.5,17h6c.79,0,1.5-.27,2.09-.71l-3.94-3.94c-.2-.2-.2-.51,0-.71s.51-.2.71,0l3.94,3.94c.44-.58.71-1.3.71-2.09v-6c0-1.93-1.57-3.5-3.5-3.5h-6c-1.93,0-3.5,1.57-3.5,3.5v6c0,1.93,1.57,3.5,3.5,3.5Z"/></g><path d="m19.15,14.85l-1.79,1.79-5-5c-.2-.2-.51-.2-.71,0s-.2.51,0,.71l5,5-1.79,1.79c-.32.32-.09.85.35.85h4.29c.07,0,.13-.01.19-.04.12-.05.22-.15.27-.27.03-.06.04-.13.04-.19v-4.29c0-.45-.54-.67-.85-.35Z"/></svg>