<svg xmlns="http://www.w3.org/2000/svg" width="24" height="24" viewBox="0 0 24 24"><g opacity="0.4"><path d="m11,21c4.41,0,8-3.59,8-8,0-2.03-.76-3.87-2.01-5.28l-4.64,4.64c-.1.1-.23.15-.35.15s-.26-.05-.35-.15c-.2-.2-.2-.51,0-.71l4.64-4.64c-1.41-1.25-3.26-2.01-5.28-2.01-4.41,0-8,3.59-8,8s3.59,8,8,8Z"/></g><path d="m20.69,3.04c-.06-.03-.13-.04-.19-.04h-6c-.28,0-.5.22-.5.5s.22.5.5.5h4.79l-7.65,7.65c-.2.2-.2.51,0,.71.1.1.23.15.35.15s.26-.05.35-.15l7.65-7.65v4.79c0,.28.22.5.5.5s.5-.22.5-.5V3.5c0-.07-.01-.13-.04-.19-.05-.12-.15-.22-.27-.27Z"/></svg>