<svg xmlns="http://www.w3.org/2000/svg" width="24" height="24" viewBox="0 0 24 24"><g opacity="0.4"><path d="m16.5,4H7.5c-1.93,0-3.5,1.57-3.5,3.5v9c0,1.93,1.57,3.5,3.5,3.5h9c1.93,0,3.5-1.57,3.5-3.5V7.5c0-1.93-1.57-3.5-3.5-3.5Zm-1.5,10.5c0,.28-.22.5-.5.5h-2.29c-.45,0-.67-.54-.35-.85l.79-.79-3.5-3.5c-.2-.2-.2-.51,0-.71s.51-.2.71,0l3.5,3.5.79-.79c.31-.32.85-.09.85.35v2.29Z"/></g><path d="m12.21,15h2.29c.28,0,.5-.22.5-.5v-2.29c0-.45-.54-.67-.85-.35l-.79.79-3.5-3.5c-.2-.2-.51-.2-.71,0s-.2.51,0,.71l3.5,3.5-.79.79c-.32.32-.09.85.35.85Z"/></svg>