<svg xmlns="http://www.w3.org/2000/svg" width="24" height="24" viewBox="0 0 24 24"><g opacity="0.4"><path d="m12,4c-4.34,0-8,3.66-8,8s3.66,8,8,8,8-3.66,8-8-3.66-8-8-8Zm4.5,8.5h-4.5c-.28,0-.5-.22-.5-.5v-4.5c0-.28.22-.5.5-.5s.5.22.5.5v4h4c.28,0,.5.22.5.5s-.22.5-.5.5Z"/></g><path d="m12,12.5h4.5c.28,0,.5-.22.5-.5s-.22-.5-.5-.5h-4v-4c0-.28-.22-.5-.5-.5s-.5.22-.5.5v4.5c0,.28.22.5.5.5Z"/><path d="m7.5,4.26c.34-.2.3-.69-.05-.87-1.14-.61-2.58-.44-3.54.52-.96.96-1.13,2.4-.52,3.54.19.35.67.38.87.05.79-1.33,1.91-2.45,3.24-3.24Z"/><path d="m16.55,3.39c-.35.19-.38.67-.05.87,1.33.79,2.45,1.91,3.24,3.24.2.34.69.3.87-.05.61-1.14.44-2.58-.52-3.54-.96-.96-2.4-1.13-3.54-.52Z"/><path d="m4.15,20.85c.1.1.23.15.35.15s.26-.05.35-.15l2.44-2.44c-.27-.2-.53-.41-.77-.65l-2.38,2.38c-.2.2-.2.51,0,.71Z"/><path d="m17.47,17.77c-.24.23-.5.45-.77.65l2.44,2.44c.1.1.23.15.35.15s.26-.05.35-.15c.2-.2.2-.51,0-.71l-2.38-2.38Z"/></svg>