<svg xmlns="http://www.w3.org/2000/svg" width="24" height="24" viewBox="0 0 24 24"><g opacity="0.4"><path d="m11.29,12l.71-.71-7.15-7.15c-.2-.2-.51-.2-.71,0s-.2.51,0,.71l7.15,7.15Z"/><path d="m19.15,15.85l-1.29,1.29-5.15-5.15-.71.71,5.15,5.15-1.29,1.29c-.32.32-.09.85.35.85h3.29c.28,0,.5-.22.5-.5v-3.29c0-.45-.54-.67-.85-.35Z"/></g><path d="m19.5,4h-3.29c-.45,0-.67.54-.35.85l1.29,1.29-13,13c-.2.2-.2.51,0,.71.1.1.23.15.35.15s.26-.05.35-.15l13-13,1.29,1.29c.32.32.85.09.85-.35v-3.29c0-.28-.22-.5-.5-.5Z"/></svg>