<svg xmlns="http://www.w3.org/2000/svg" width="24" height="24" viewBox="0 0 24 24"><g opacity="0.4"><path d="m11.53,9.6c-2.16-5.6-6.03-5.6-6.03-5.6-1.38,0-2.5,1.12-2.5,2.5v4c0,2.51,1.69,4.63,3.99,5.29-.6.55-.99,1.33-.99,2.21,0,1.66,1.34,3,3,3,1.04,0,1.95-1.05,2.49-2.5.09-.24.3-.36.51-.36v-8.22c-.19,0-.38-.11-.47-.32Z"/></g><path d="m18.5,4s-3.88,0-6.03,5.6c-.08.22-.27.32-.47.32v8.22c.21,0,.42.12.51.36.54,1.44,1.45,2.5,2.49,2.5,1.66,0,3-1.34,3-3,0-.88-.39-1.67-.99-2.21,2.3-.66,3.99-2.77,3.99-5.29v-4c0-1.38-1.12-2.5-2.5-2.5Z"/></svg>