<svg xmlns="http://www.w3.org/2000/svg" width="24" height="24" viewBox="0 0 24 24"><g opacity="0.4"><path d="m17.5,7H6.5c-1.93,0-3.5,1.57-3.5,3.5v7c0,1.93,1.57,3.5,3.5,3.5h11c1.93,0,3.5-1.57,3.5-3.5v-7c0-1.93-1.57-3.5-3.5-3.5Zm-9.5,12.5c0,.28-.22.5-.5.5s-.5-.22-.5-.5v-11c0-.28.22-.5.5-.5s.5.22.5.5v11Zm9,0c0,.28-.22.5-.5.5s-.5-.22-.5-.5v-11c0-.28.22-.5.5-.5s.5.22.5.5v11Z"/></g><path d="m17,5.5c0-1.38-1.12-2.5-2.5-2.5h-5c-1.38,0-2.5,1.12-2.5,2.5v1.5h1v-1.5c0-.83.67-1.5,1.5-1.5h5c.83,0,1.5.67,1.5,1.5v1.5h1v-1.5Z"/><path d="m16,8.5v11c0,.28.22.5.5.5s.5-.22.5-.5v-11c0-.28-.22-.5-.5-.5s-.5.22-.5.5Z"/><path d="m7,19.5c0,.28.22.5.5.5s.5-.22.5-.5v-11c0-.28-.22-.5-.5-.5s-.5.22-.5.5v11Z"/></svg>