<svg xmlns="http://www.w3.org/2000/svg" width="24" height="24" viewBox="0 0 24 24"><g opacity="0.4"><path d="m12.5,3h-7c-1.38,0-2.5,1.12-2.5,2.5v13.5c0,1.1.9,2,2,2h1c.55,0,1-.45,1-1v-3c0-.55.45-1,1-1h2c.55,0,1,.45,1,1v3c0,.55.45,1,1,1h3V5.5c0-1.38-1.12-2.5-2.5-2.5Zm-1.5,7h-1v1c0,.55-.45,1-1,1s-1-.45-1-1v-1h-1c-.55,0-1-.45-1-1s.45-1,1-1h1v-1c0-.55.45-1,1-1s1,.45,1,1v1h1c.55,0,1,.45,1,1s-.45,1-1,1Z"/></g><path d="m18.5,7h-3.5v14h4c1.1,0,2-.9,2-2v-9.5c0-1.38-1.12-2.5-2.5-2.5Zm.5,8.5c0,.28-.22.5-.5.5h-1c-.28,0-.5-.22-.5-.5v-1c0-.28.22-.5.5-.5h1c.28,0,.5.22.5.5v1Zm0-4c0,.28-.22.5-.5.5h-1c-.28,0-.5-.22-.5-.5v-1c0-.28.22-.5.5-.5h1c.28,0,.5.22.5.5v1Z"/><path d="m7,10h1v1c0,.55.45,1,1,1s1-.45,1-1v-1h1c.55,0,1-.45,1-1s-.45-1-1-1h-1v-1c0-.55-.45-1-1-1s-1,.45-1,1v1h-1c-.55,0-1,.45-1,1s.45,1,1,1Z"/></svg>