<svg xmlns="http://www.w3.org/2000/svg" width="24" height="24" viewBox="0 0 24 24"><g opacity="0.4"><path d="m15.5,7h-7c-1.38,0-2.5,1.12-2.5,2.5v9.5c0,1.1.9,2,2,2h8c1.1,0,2-.9,2-2v-9.5c0-1.38-1.12-2.5-2.5-2.5Zm-4.5,8.5c0,.28-.22.5-.5.5h-1c-.28,0-.5-.22-.5-.5v-1c0-.28.22-.5.5-.5h1c.28,0,.5.22.5.5v1Zm0-4c0,.28-.22.5-.5.5h-1c-.28,0-.5-.22-.5-.5v-1c0-.28.22-.5.5-.5h1c.28,0,.5.22.5.5v1Zm4,4c0,.28-.22.5-.5.5h-1c-.28,0-.5-.22-.5-.5v-1c0-.28.22-.5.5-.5h1c.28,0,.5.22.5.5v1Zm0-4c0,.28-.22.5-.5.5h-1c-.28,0-.5-.22-.5-.5v-1c0-.28.22-.5.5-.5h1c.28,0,.5.22.5.5v1Z"/></g><rect x="9" y="10" width="2" height="2" rx=".5" ry=".5"/><rect x="13" y="14" width="2" height="2" rx=".5" ry=".5"/><rect x="9" y="14" width="2" height="2" rx=".5" ry=".5"/><rect x="13" y="10" width="2" height="2" rx=".5" ry=".5"/></svg>