<svg xmlns="http://www.w3.org/2000/svg" width="24" height="24" viewBox="0 0 24 24"><g opacity="0.4"><path d="m19.27,14.7l-.87-.65c-.25-.19-.4-.49-.4-.8v-3.01c0-2.72-1.73-5.1-4.13-5.92-.28-.77-1.01-1.31-1.87-1.31s-1.58.54-1.87,1.29c-.79.26-1.53.68-2.17,1.27-1.25,1.14-1.96,2.75-1.96,4.44v3.25c0,.31-.15.61-.4.8l-.87.65c-.46.34-.73.89-.73,1.47,0,1.01.82,1.83,1.83,1.83h12.33c1.01,0,1.83-.82,1.83-1.83,0-.57-.27-1.12-.73-1.47Zm-4.52-3.2h-2.25v2.25c0,.28-.22.5-.5.5s-.5-.22-.5-.5v-2.25h-2.25c-.28,0-.5-.22-.5-.5s.22-.5.5-.5h2.25v-2.25c0-.28.22-.5.5-.5s.5.22.5.5v2.25h2.25c.28,0,.5.22.5.5s-.22.5-.5.5Z"/></g><path d="m12,21c1.66,0,3-1.34,3-3h-6c0,1.66,1.34,3,3,3Z"/><path d="m9.25,11.5h2.25v2.25c0,.28.22.5.5.5s.5-.22.5-.5v-2.25h2.25c.28,0,.5-.22.5-.5s-.22-.5-.5-.5h-2.25v-2.25c0-.28-.22-.5-.5-.5s-.5.22-.5.5v2.25h-2.25c-.28,0-.5.22-.5.5s.22.5.5.5Z"/></svg>