<svg xmlns="http://www.w3.org/2000/svg" width="24" height="24" viewBox="0 0 24 24"><g opacity="0.4"><path d="M18.27 5.73c-.16-.91-.68-1.7-1.47-2.21a3.34 3.34 0 0 0-3.85.19c-1.37 1.09-1.68 3-.72 4.45.05.08.04.21-.04.29l-3.73 3.73c-.08.08-.21.09-.31.03a3.313 3.313 0 0 0-4.43.75 3.34 3.34 0 0 0-.18 3.85c.51.78 1.3 1.3 2.2 1.46.16.9.68 1.69 1.47 2.2.54.35 1.17.53 1.8.53.73 0 1.46-.24 2.06-.7a3.326 3.326 0 0 0 .75-4.44c-.06-.1-.05-.23.03-.31l3.73-3.73c.08-.08.2-.1.29-.04 1.45.96 3.36.65 4.45-.72.87-1.1.95-2.68.19-3.85-.51-.79-1.3-1.31-2.21-1.47Z"/></g></svg>