<svg xmlns="http://www.w3.org/2000/svg" width="24" height="24" viewBox="0 0 24 24"><g opacity="0.4"><path d="m16.5,14.5c-1.32,0-1.99-.6-2.58-1.13-.55-.49-.98-.87-1.92-.87s-1.37.39-1.92.87c-.59.53-1.27,1.13-2.58,1.13s-1.99-.6-2.58-1.13c-.55-.49-.98-.87-1.92-.87v5.5c0,1.1.9,2,2,2h14c1.1,0,2-.9,2-2v-5.5c-.94,0-1.37.39-1.92.87-.59.53-1.27,1.13-2.58,1.13Z"/><path d="m16.5,6H7.5c-2.48,0-4.5,2.02-4.5,4.5v1c1.31,0,1.99.6,2.58,1.13.55.49.98.87,1.92.87s1.37-.39,1.92-.87c.59-.53,1.27-1.13,2.58-1.13s1.99.6,2.58,1.13c.55.49.98.87,1.92.87s1.37-.39,1.92-.87c.59-.53,1.27-1.13,2.58-1.13v-1c0-2.48-2.02-4.5-4.5-4.5Z"/></g><path d="m16.5,13.5c-.94,0-1.37-.39-1.92-.87-.59-.53-1.27-1.13-2.58-1.13s-1.99.6-2.58,1.13c-.55.49-.98.87-1.92.87s-1.37-.39-1.92-.87c-.59-.53-1.27-1.13-2.58-1.13v1c.93,0,1.37.39,1.92.87.59.53,1.27,1.13,2.58,1.13s1.99-.6,2.58-1.13c.55-.49.98-.87,1.92-.87s1.37.39,1.92.87c.59.53,1.27,1.13,2.58,1.13s1.99-.6,2.58-1.13c.55-.49.98-.87,1.92-.87v-1c-1.32,0-1.99.6-2.58,1.13-.55.49-.98.87-1.92.87Z"/><path d="m12.5,3.5c0-.28-.22-.5-.5-.5s-.5.22-.5.5v2.5h1v-2.5Z"/></svg>