<svg xmlns="http://www.w3.org/2000/svg" width="24" height="24" viewBox="0 0 24 24"><g opacity="0.4"><path d="m15.5,2.97h-7c-1.93,0-3.5,1.57-3.5,3.5v13.07c0,.37.21.71.54.89.15.08.31.11.46.11.2,0,.4-.06.57-.18l4.86-3.37c.34-.24.8-.24,1.14,0l4.86,3.37c.31.21.7.24,1.03.06.33-.17.54-.51.54-.89V6.47c0-1.93-1.57-3.5-3.5-3.5Zm-.9,8.92c.2.2.2.51,0,.71-.1.1-.23.15-.35.15s-.26-.05-.35-.15l-1.9-1.9-1.9,1.9c-.1.1-.23.15-.35.15s-.26-.05-.35-.15c-.2-.2-.2-.51,0-.71l1.9-1.9-1.9-1.9c-.2-.2-.2-.51,0-.71s.51-.2.71,0l1.9,1.9,1.9-1.9c.2-.2.51-.2.71,0s.2.51,0,.71l-1.9,1.9,1.9,1.9Z"/></g><path d="m9.4,12.6c.1.1.23.15.35.15s.26-.05.35-.15l1.9-1.9,1.9,1.9c.1.1.23.15.35.15s.26-.05.35-.15c.2-.2.2-.51,0-.71l-1.9-1.9,1.9-1.9c.2-.2.2-.51,0-.71s-.51-.2-.71,0l-1.9,1.9-1.9-1.9c-.2-.2-.51-.2-.71,0s-.2.51,0,.71l1.9,1.9-1.9,1.9c-.2.2-.2.51,0,.71Z"/></svg>