<svg xmlns="http://www.w3.org/2000/svg" width="24" height="24" viewBox="0 0 24 24"><g opacity="0.4"><path d="m12,3c-3.31,0-6,2.69-6,6v6c0,3.31,2.69,6,6,6s6-2.69,6-6v-6c0-3.31-2.69-6-6-6Zm2.5,11h-5c-.28,0-.5-.22-.5-.5s.22-.5.5-.5h5c.28,0,.5.22.5.5s-.22.5-.5.5Zm0-3h-5c-.28,0-.5-.22-.5-.5s.22-.5.5-.5h5c.28,0,.5.22.5.5s-.22.5-.5.5Z"/></g><path d="m9.5,14h5c.28,0,.5-.22.5-.5s-.22-.5-.5-.5h-5c-.28,0-.5.22-.5.5s.22.5.5.5Z"/><path d="m9.5,11h5c.28,0,.5-.22.5-.5s-.22-.5-.5-.5h-5c-.28,0-.5.22-.5.5s.22.5.5.5Z"/><path d="m6,13h-1.5c-.28,0-.5.22-.5.5s.22.5.5.5h1.5v-1Z"/><path d="m7.42,5.13c.22-.25.45-.49.71-.71l-1.28-1.28c-.2-.2-.51-.2-.71,0s-.2.51,0,.71l1.28,1.28Z"/><path d="m4.5,11h1.5v-1h-1.5c-.28,0-.5.22-.5.5s.22.5.5.5Z"/><path d="m19.5,13h-1.5v1h1.5c.28,0,.5-.22.5-.5s-.22-.5-.5-.5Z"/><path d="m19.5,10h-1.5v1h1.5c.28,0,.5-.22.5-.5s-.22-.5-.5-.5Z"/><path d="m17.85,3.85c.2-.2.2-.51,0-.71s-.51-.2-.71,0l-1.28,1.28c.25.22.49.45.71.71l1.28-1.28Z"/></svg>