<svg xmlns="http://www.w3.org/2000/svg" width="24" height="24" viewBox="0 0 24 24"><g opacity="0.4"><path d="M20 7.050000000000001A1 1 0 1 0 20 9.05 1 1 0 1 0 20 7.050000000000001z"/><path d="M8 3.05A1 1 0 1 0 8 5.05 1 1 0 1 0 8 3.05z"/><path d="m7.15,11.05h1.15L3.94,3.3c-.14-.24-.44-.33-.68-.19-.24.14-.33.44-.19.68l4.08,7.25Z"/></g><path d="m19.7,11.05H4.3c-.36,0-.7.15-.93.42-.24.27-.35.63-.31.99.32,2.78,2.12,5.33,4.81,6.82.09.05.14.13.14.22v.3c0,.69.56,1.25,1.25,1.25h5.5c.69,0,1.25-.56,1.25-1.25v-.3c0-.09.05-.17.14-.22,2.69-1.49,4.49-4.04,4.81-6.82.04-.36-.07-.72-.31-.99-.24-.27-.58-.42-.93-.42Z"/><path d="M17.5 3.05A1.5 1.5 0 1 0 17.5 6.05 1.5 1.5 0 1 0 17.5 3.05z"/><path d="M12 5.05A2 2 0 1 0 12 9.05 2 2 0 1 0 12 5.05z"/></svg>