<svg xmlns="http://www.w3.org/2000/svg" width="24" height="24" viewBox="0 0 24 24"><g opacity="0.4"><path d="m5.63,9h12.74c-1.1-2.94-3.54-5-6.37-5s-5.27,2.06-6.37,5Z"/><path d="m5.31,10c-.2.79-.31,1.63-.31,2.5,0,4.48,2.87,8.16,6.5,8.47v-7.47c0-.28.22-.5.5-.5s.5.22.5.5v7.47c3.63-.31,6.5-3.99,6.5-8.47,0-.87-.11-1.71-.31-2.5H5.31Z"/></g><path d="m5.84,16.53c-.07.02-.14.06-.19.12l-1.5,1.5c-.2.2-.2.51,0,.71.1.1.23.15.35.15s.26-.05.35-.15l1.44-1.44c-.17-.28-.32-.57-.46-.88Z"/><path d="m5.12,14h-2.62c-.28,0-.5.22-.5.5s.22.5.5.5h2.81c-.08-.32-.14-.66-.19-1Z"/><path d="m2.3,10.67l2.72,1.17c.02-.35.06-.7.11-1.04l-2.44-1.05c-.25-.11-.55,0-.66.26-.11.25,0,.55.26.66Z"/><path d="m6.9,6.6s.03.02.05.03c.21-.26.42-.51.66-.74l-1.75-1.75c-.2-.2-.51-.2-.71,0s-.2.51,0,.71l1.75,1.75Z"/><path d="m17.1,6.6l1.75-1.75c.2-.2.2-.51,0-.71s-.51-.2-.71,0l-1.75,1.75c.23.23.45.48.66.74.02-.01.03-.02.05-.03Z"/><path d="m18.35,16.65c-.06-.06-.12-.09-.19-.12-.14.31-.29.6-.46.88l1.44,1.44c.1.1.23.15.35.15s.26-.05.35-.15c.2-.2.2-.51,0-.71l-1.5-1.5Z"/><path d="m21.5,14h-2.62c-.05.34-.11.68-.19,1h2.81c.28,0,.5-.22.5-.5s-.22-.5-.5-.5Z"/><path d="m21.3,9.75l-2.44,1.05c.06.34.09.69.11,1.04h0l2.72-1.17c.25-.11.37-.4.26-.66-.11-.25-.4-.37-.66-.26Z"/><path d="m18.37,9H5.63c-.12.32-.23.66-.32,1h13.38c-.09-.34-.2-.68-.32-1Z"/><path d="m12.5,20.97v-7.47c0-.28-.22-.5-.5-.5s-.5.22-.5.5v7.47c.17.01.33.03.5.03s.33-.02.5-.03Z"/></svg>