<svg xmlns="http://www.w3.org/2000/svg" width="24" height="24" viewBox="0 0 24 24"><g opacity="0.4"><path d="m18.5,3H6.5c-1.38,0-2.5,1.12-2.5,2.5v13c0,.18.02.35.06.52.21,1.21,1.1,1.74,1.86,1.91.05.01.09.02.14.03.16.03.31.04.44.04h13c.28,0,.5-.22.5-.5s-.22-.5-.5-.5H6.5s0,0,0,0c-.09,0-.18-.01-.27-.03-.01,0-.03,0-.04,0-.57-.12-1.03-.57-1.15-1.14-.02-.1-.04-.2-.04-.32,0-.83.67-1.5,1.5-1.5h12c.83,0,1.5-.67,1.5-1.5V4.5c0-.83-.67-1.5-1.5-1.5Zm-3.07,7.18l-2.24,2.15c-.39.37-1,.37-1.39,0l-2.24-2.15c-.83-.8-.76-2.11.23-2.82.78-.56,1.87-.42,2.56.25l.14.13.14-.13c.69-.67,1.78-.81,2.56-.25.99.71,1.06,2.02.23,2.82Z"/></g><path d="m6.5,20h12c-.83,0-1.5-.67-1.5-1.5s.67-1.5,1.5-1.5H6.5c-.83,0-1.5.67-1.5,1.5s.67,1.5,1.5,1.5Z"/><path d="m11.81,12.33c.39.37,1,.37,1.39,0l2.24-2.15c.83-.8.76-2.11-.23-2.82-.78-.56-1.87-.42-2.56.25l-.14.13-.14-.13c-.69-.67-1.78-.81-2.56-.25-.99.71-1.06,2.02-.23,2.82l2.24,2.15Z"/></svg>