<svg xmlns="http://www.w3.org/2000/svg" width="24" height="24" viewBox="0 0 24 24"><g opacity="0.4"><path d="m11.5,6.02v2.98s.01.05.01.07c.32-.05.65-.05.97,0,0-.02.01-.05.01-.07v-2.98c-.17-.01-.33-.02-.5-.02s-.33.01-.5.02Z"/><path d="m12,3c-.28,0-.5.22-.5.5v1.52c.17-.01.33-.02.5-.02s.33.01.5.02v-1.52c0-.28-.22-.5-.5-.5Z"/><path d="m8.13,7.42c-.13.11-.25.22-.37.34-.12.12-.23.24-.33.37l2.11,2.11s.03.02.04.03c.1-.13.2-.26.31-.38.12-.12.25-.22.38-.31-.01-.01-.02-.03-.03-.04l-2.11-2.11Z"/><path d="m6.34,5.64c-.2-.2-.51-.2-.71,0s-.2.51,0,.71l1.08,1.08c.11-.13.22-.25.33-.37.12-.12.25-.23.37-.34l-1.08-1.08Z"/><path d="m9,11.5h-2.98c-.01.17-.02.33-.02.5s.01.33.02.5h2.98s.03,0,.05,0c-.03-.16-.05-.32-.05-.49s.02-.33.05-.49c-.02,0-.03,0-.05,0Z"/><path d="m3.5,11.5c-.28,0-.5.22-.5.5s.22.5.5.5h1.52c-.01-.17-.02-.33-.02-.5s.01-.33.02-.5h-1.52Z"/><path d="m9.56,13.74s-.03.01-.04.03l-2.11,2.11c.11.13.22.25.34.37.12.12.24.23.37.33l2.11-2.11s.02-.03.03-.04c-.13-.1-.26-.2-.38-.31-.12-.12-.22-.25-.31-.38Z"/><path d="m6.71,16.58l-1.08,1.08c-.2.2-.2.51,0,.71.1.1.23.15.35.15s.26-.05.35-.15l1.08-1.08c-.13-.11-.25-.22-.37-.33-.12-.12-.23-.25-.34-.37Z"/><path d="m12,15c-.17,0-.33-.02-.49-.05,0,.02,0,.03,0,.05v2.98c.17.01.33.02.5.02s.33-.01.5-.02v-2.98s0-.03,0-.05c-.16.03-.32.05-.49.05Z"/><path d="m11.5,18.98v1.52c0,.28.22.5.5.5s.5-.22.5-.5v-1.52c-.17.01-.33.02-.5.02s-.33-.01-.5-.02Z"/><path d="m14.47,13.77s-.03-.02-.04-.03c-.1.13-.2.26-.31.38-.12.12-.25.22-.38.31,0,.01.01.03.03.04l2.11,2.11c.13-.11.25-.22.37-.34.12-.12.23-.24.33-.37l-2.11-2.11Z"/><path d="m17.29,16.58c-.11.13-.22.25-.33.37-.12.12-.25.23-.37.34l1.08,1.08c.1.1.23.15.35.15s.26-.05.35-.15c.2-.2.2-.51,0-.71l-1.08-1.08Z"/><path d="m15,12.5h2.98c.01-.17.02-.33.02-.5s-.01-.33-.02-.5h-2.98s-.03,0-.05,0c.03.16.05.32.05.49s-.02.33-.05.49c.02,0,.03,0,.05,0Z"/><path d="m20.5,11.5h-1.52c.01.17.02.33.02.5s-.01.33-.02.5h1.52c.28,0,.5-.22.5-.5s-.22-.5-.5-.5Z"/><path d="m14.44,10.26s.03-.01.04-.03l2.11-2.11c-.11-.13-.22-.25-.33-.37-.12-.12-.25-.23-.37-.33l-2.11,2.11s-.02.03-.03.04c.13.09.27.19.38.31.12.12.22.25.31.38Z"/><path d="m17.66,5.64l-1.08,1.08c.13.11.25.22.37.33h0c.12.12.23.25.33.37l1.08-1.08c.2-.2.2-.51,0-.71s-.51-.2-.71,0Z"/></g><path d="m12,19c1.86,0,3.62-.73,4.96-2.05,1.32-1.33,2.04-3.09,2.04-4.95s-.73-3.62-2.04-4.95h0c-1.33-1.32-3.09-2.05-4.95-2.05s-3.62.73-4.96,2.05c-1.32,1.33-2.04,3.09-2.04,4.95s.73,3.62,2.05,4.96c1.33,1.32,3.09,2.04,4.95,2.04ZM7.75,7.75c1.14-1.13,2.65-1.75,4.25-1.75s3.1.62,4.25,1.75c1.13,1.14,1.75,2.65,1.75,4.25s-.62,3.11-1.75,4.25c-1.14,1.13-2.65,1.75-4.25,1.75s-3.11-.62-4.25-1.75c-1.13-1.14-1.75-2.65-1.75-4.25s.62-3.11,1.75-4.25Z"/><path d="m12,15c.8,0,1.56-.31,2.12-.88.57-.57.88-1.32.88-2.12s-.31-1.56-.88-2.12c-1.13-1.13-3.12-1.13-4.25,0-.57.57-.88,1.32-.88,2.12s.31,1.56.88,2.12c.57.57,1.32.88,2.12.88Zm-1.42-4.42c.38-.38.88-.58,1.42-.58s1.04.21,1.42.58c.37.37.58.89.58,1.42s-.21,1.05-.58,1.42c-.74.74-2.09.74-2.83,0-.37-.37-.58-.89-.58-1.42s.21-1.05.58-1.42Z"/></svg>