<svg xmlns="http://www.w3.org/2000/svg" width="24" height="24" viewBox="0 0 24 24"><g opacity="0.4"><path d="M17 15A3 3 0 1 0 17 21 3 3 0 1 0 17 15z"/><path d="m14.04,5.84c-.13-1.09-.48-1.89-.99-2.32-.21-.08-.43-.15-.65-.21-.22-.06-.43-.1-.65-.14-1.64.28-3.19,2.98-3.93,5.74l-.11.4,5.77,1.55.11-.4c.45-1.66.6-3.3.45-4.62Z"/></g><path d="m8.22,20.83l2.85-10.62-.97-.26s0,0,0,0l-2.85,10.62c-.07.27.09.54.35.61.04.01.09.02.13.02.22,0,.42-.15.48-.37Z"/><path d="m7.82,8.91c.74-2.76,2.29-5.46,3.93-5.74-1.59-.28-3.21-.04-4.61.69-1.6.84-2.74,2.23-3.19,3.92-.07.27.09.54.35.61l3.41.91.11-.4Z"/><path d="m13.59,10.46l-.11.4,3.38.9s.09.02.13.02c.09,0,.17-.02.25-.07.12-.07.2-.18.23-.3.45-1.68.17-3.46-.8-4.99-.84-1.33-2.11-2.34-3.63-2.9.52.43.86,1.23.99,2.32.16,1.32,0,2.96-.45,4.62Z"/></svg>