<svg xmlns="http://www.w3.org/2000/svg" width="24" height="24" viewBox="0 0 24 24"><g opacity="0.4"><path d="M8 17H16V21H8z"/><path d="m14.5,12h-5c-.83,0-1.5.67-1.5,1.5v2.5h8v-2.5c0-.83-.67-1.5-1.5-1.5Z"/><path d="m14.5,6h-5c-3.03,0-5.5,2.47-5.5,5.5v7c0,1.38,1.12,2.5,2.5,2.5h.5v-7.5c0-1.38,1.12-2.5,2.5-2.5h5c1.38,0,2.5,1.12,2.5,2.5v7.5h.5c1.38,0,2.5-1.12,2.5-2.5v-7c0-3.03-2.47-5.5-5.5-5.5Z"/></g><path d="m8,17h8v4h1v-7.5c0-1.38-1.12-2.5-2.5-2.5h-5c-1.38,0-2.5,1.12-2.5,2.5v7.5h1v-4Zm0-3.5c0-.83.67-1.5,1.5-1.5h5c.83,0,1.5.67,1.5,1.5v2.5h-8v-2.5Z"/><path d="m9.05,6c.23-1.14,1.24-2,2.45-2h1c1.21,0,2.22.86,2.45,2h-.45c.51,0,1,.08,1.47.21-.15-1.79-1.64-3.21-3.47-3.21h-1c-1.83,0-3.32,1.42-3.47,3.21.47-.13.96-.21,1.47-.21h-.45Z"/></svg>