<svg xmlns="http://www.w3.org/2000/svg" width="24" height="24" viewBox="0 0 24 24"><g opacity="0.4"><path d="m20.46,7.29l-7.77-4c-.43-.22-.94-.22-1.37,0l-7.77,4c-.33.17-.54.51-.54.89v1.82c0,.55.45,1,1,1h16c.55,0,1-.45,1-1v-1.82c0-.38-.21-.72-.54-.89Zm-8.46,1.71c-.83,0-1.5-.67-1.5-1.5s.67-1.5,1.5-1.5,1.5.67,1.5,1.5-.67,1.5-1.5,1.5Z"/><path d="m20,17H4c-.55,0-1,.45-1,1v2c0,.55.45,1,1,1h16c.55,0,1-.45,1-1v-2c0-.55-.45-1-1-1Z"/></g><path d="M5 11H6V17H5z"/><path d="M14.75 11H15.75V17H14.75z"/><path d="M18 11H19V17H18z"/><path d="M11.5 11H12.5V17H11.5z"/><path d="M8.25 11H9.25V17H8.25z"/><path d="M12 6A1.5 1.5 0 1 0 12 9 1.5 1.5 0 1 0 12 6z"/></svg>