<svg xmlns="http://www.w3.org/2000/svg" width="24" height="24" viewBox="0 0 24 24"><g opacity="0.4"><path d="m12.71,12l1.72,1.72c1.23-1.07,2.83-1.72,4.58-1.72.69,0,1.36.1,1.99.29,0-.1.01-.19.01-.29,0-2.3-.88-4.4-2.3-5.99l-5.99,5.99Z"/><path d="m17.99,5.3c-1.59-1.43-3.69-2.3-5.99-2.3-.1,0-.19.01-.29.01.19.63.29,1.3.29,1.99,0,1.75-.65,3.35-1.72,4.58l1.72,1.72,5.99-5.99Z"/><path d="m13,19c0,.66.11,1.3.31,1.89,1.78-.26,3.4-1.05,4.68-2.2l-3.57-3.57c-.89,1.05-1.42,2.4-1.42,3.87Z"/><path d="m15.13,14.42l3.57,3.57c1.15-1.28,1.93-2.9,2.2-4.68-.6-.2-1.23-.31-1.89-.31-1.47,0-2.82.54-3.87,1.42Z"/><path d="m3.11,10.69c.6.2,1.23.31,1.89.31,1.47,0,2.82-.54,3.87-1.42l-3.57-3.57c-1.15,1.28-1.93,2.9-2.2,4.68Z"/><path d="m9.58,10.28c-1.23,1.07-2.83,1.72-4.58,1.72-.69,0-1.36-.1-1.99-.29,0,.1-.01.19-.01.29,0,2.3.88,4.4,2.3,5.99l5.99-5.99-1.72-1.72Z"/><path d="m13.72,14.42l-1.72-1.72-5.99,5.99c1.59,1.43,3.69,2.3,5.99,2.3.1,0,.19-.01.29-.01-.19-.63-.29-1.3-.29-1.99,0-1.75.65-3.35,1.72-4.58Z"/><path d="m11,5c0-.66-.11-1.3-.31-1.89-1.78.26-3.4,1.05-4.68,2.2l3.57,3.57c.89-1.05,1.42-2.4,1.42-3.87Z"/></g><path d="m9.58,10.28l1.72,1.72-5.99,5.99c.22.25.46.48.71.71l5.99-5.99,1.72,1.72c-1.07,1.23-1.72,2.83-1.72,4.58,0,.69.1,1.36.29,1.99.35-.01.69-.04,1.02-.09-.2-.6-.31-1.23-.31-1.89,0-1.47.54-2.82,1.42-3.87l3.57,3.57c.25-.22.48-.46.71-.71l-3.57-3.57c1.05-.89,2.4-1.42,3.87-1.42.66,0,1.3.11,1.89.31.05-.33.08-.67.09-1.02-.63-.19-1.3-.29-1.99-.29-1.75,0-3.35.65-4.58,1.72l-1.72-1.72,5.99-5.99c-.22-.25-.46-.48-.71-.71l-5.99,5.99-1.72-1.72c1.07-1.23,1.72-2.83,1.72-4.58,0-.69-.1-1.36-.29-1.99-.35.01-.69.04-1.02.09.2.6.31,1.23.31,1.89,0,1.47-.54,2.82-1.42,3.87l-3.57-3.57c-.25.22-.48.46-.71.71l3.57,3.57c-1.05.89-2.4,1.42-3.87,1.42-.66,0-1.3-.11-1.89-.31-.05.33-.08.67-.09,1.02.63.19,1.3.29,1.99.29,1.75,0,3.35-.65,4.58-1.72Z"/></svg>