<svg xmlns="http://www.w3.org/2000/svg" width="24" height="24" viewBox="0 0 24 24"><g opacity="0.4"><path d="m19.49,10H4.51c-.4,0-.76.18-1,.5-.24.32-.31.72-.19,1.1l2.07,6.9c.45,1.49,1.79,2.49,3.35,2.49h6.54c1.56,0,2.91-1,3.35-2.49l2.07-6.9c.12-.38.04-.79-.19-1.11-.24-.32-.6-.5-1-.5Zm-9.49,7.5c0,.28-.22.5-.5.5s-.5-.22-.5-.5v-4c0-.28.22-.5.5-.5s.5.22.5.5v4Zm5,0c0,.28-.22.5-.5.5s-.5-.22-.5-.5v-4c0-.28.22-.5.5-.5s.5.22.5.5v4Z"/></g><path d="m18.14,10h1.15l-3.57-6.25c-.14-.24-.45-.32-.68-.19-.24.14-.32.44-.19.68l3.29,5.75Z"/><path d="m9.15,4.25c.14-.24.05-.55-.19-.68-.24-.14-.54-.06-.68.19l-3.57,6.25h1.15l3.29-5.75Z"/><path d="m14.5,18c.28,0,.5-.22.5-.5v-4c0-.28-.22-.5-.5-.5s-.5.22-.5.5v4c0,.28.22.5.5.5Z"/><path d="m9,13.5v4c0,.28.22.5.5.5s.5-.22.5-.5v-4c0-.28-.22-.5-.5-.5s-.5.22-.5.5Z"/></svg>