<svg xmlns="http://www.w3.org/2000/svg" width="24" height="24" viewBox="0 0 24 24"><g opacity="0.4"><path d="m13.5,9c-.28,0-.5.22-.5.5v9c0,.28.22.5.5.5s.5-.22.5-.5v-9c0-.28-.22-.5-.5-.5Z"/><path d="m19.5,16c-.28,0-.5.22-.5.5v2c0,.28.22.5.5.5s.5-.22.5-.5v-2c0-.28-.22-.5-.5-.5Z"/><path d="m7.5,11c-.28,0-.5.22-.5.5v7c0,.28.22.5.5.5s.5-.22.5-.5v-7c0-.28-.22-.5-.5-.5Z"/></g><path d="m10.5,5c-.28,0-.5.22-.5.5v13c0,.28.22.5.5.5s.5-.22.5-.5V5.5c0-.28-.22-.5-.5-.5Z"/><path d="m4.5,15c-.28,0-.5.22-.5.5v3c0,.28.22.5.5.5s.5-.22.5-.5v-3c0-.28-.22-.5-.5-.5Z"/><path d="m16.5,14c-.28,0-.5.22-.5.5v4c0,.28.22.5.5.5s.5-.22.5-.5v-4c0-.28-.22-.5-.5-.5Z"/></svg>