<svg xmlns="http://www.w3.org/2000/svg" width="24" height="24" viewBox="0 0 24 24"><g opacity="0.4"><path d="m11.5,20.51s.01.08.02.11c0,.03,0,.05.02.08.08.18.25.31.46.31.26,0,.46-.19.49-.44,0-.02.01-.03.01-.05,0-.02.1-2.33,3.92-5.11,0,0,0,0,0-.01-.61.39-1.33.62-2.07.62-.07,0-.14-.01-.22-.02-.73.7-1.26,1.35-1.65,1.94v-2.4c-.17-.1-.34-.2-.5-.33-.16.12-.33.23-.5.32v2.41c-.39-.59-.93-1.26-1.68-1.97-.79.03-1.59-.15-2.26-.58,0,0,.01.01.02.02,3.81,2.77,3.92,5.07,3.92,5.11Z"/></g><path d="m19.1,8.87c0-.1.01-.2.01-.29,0-2.07-1.73-3.76-3.84-3.73-.68-1.13-1.93-1.85-3.28-1.85s-2.6.71-3.28,1.85c-2.12-.05-3.84,1.66-3.84,3.73,0,.1,0,.19.01.29-1.15.54-1.9,1.67-1.9,2.94,0,1.8,1.5,3.27,3.33,3.27.23,0,.47-.03.72-.09,1.34,1.23,3.54,1.3,4.95.2.67.52,1.49.81,2.36.81.96,0,1.88-.37,2.59-1.01.25.06.49.09.72.09,1.84,0,3.33-1.47,3.33-3.27,0-1.27-.75-2.4-1.9-2.94Z"/></svg>