<svg xmlns="http://www.w3.org/2000/svg" width="24" height="24" viewBox="0 0 24 24"><g opacity="0.4"><path d="m14.83,9.17c.72.72,1.17,1.72,1.17,2.83s-.45,2.1-1.17,2.83l3.53,3.53c1.63-1.63,2.64-3.88,2.64-6.36s-1.01-4.73-2.64-6.36l-3.53,3.53Z"/><path d="m5.64,5.64c-1.63,1.63-2.64,3.88-2.64,6.36s1.01,4.73,2.64,6.36l3.53-3.53c-.72-.72-1.17-1.72-1.17-2.83s.45-2.1,1.17-2.83l-3.53-3.53Z"/></g><path d="m12,8c1.1,0,2.1.45,2.83,1.17l3.53-3.53c-1.63-1.63-3.88-2.64-6.36-2.64s-4.73,1.01-6.36,2.64l3.53,3.53c.72-.72,1.72-1.17,2.83-1.17Z"/><path d="m14.83,14.83c-.72.72-1.72,1.17-2.83,1.17s-2.1-.45-2.83-1.17l-3.53,3.53c1.63,1.63,3.88,2.64,6.36,2.64s4.73-1.01,6.36-2.64l-3.53-3.53Z"/></svg>