<svg xmlns="http://www.w3.org/2000/svg" width="24" height="24" viewBox="0 0 24 24"><g opacity="0.4"><path d="m18.5,3H6.5c-1.38,0-2.5,1.12-2.5,2.5v13c0,.18.02.35.06.52.21,1.21,1.1,1.74,1.86,1.91.05.01.09.02.14.03.16.03.31.04.44.04h13c.28,0,.5-.22.5-.5s-.22-.5-.5-.5H6.5s0,0,0,0c-.09,0-.18-.01-.27-.03-.01,0-.03,0-.04,0-.57-.12-1.03-.57-1.15-1.14-.02-.1-.04-.2-.04-.32,0-.83.67-1.5,1.5-1.5h12c.83,0,1.5-.67,1.5-1.5V4.5c0-.83-.67-1.5-1.5-1.5Zm-3,6.5h-2.5v4c0,.28-.22.5-.5.5s-.5-.22-.5-.5v-4h-2.5c-.28,0-.5-.22-.5-.5s.22-.5.5-.5h2.5v-2c0-.28.22-.5.5-.5s.5.22.5.5v2h2.5c.28,0,.5.22.5.5s-.22.5-.5.5Z"/></g><path d="m6.5,20h12c-.83,0-1.5-.67-1.5-1.5s.67-1.5,1.5-1.5H6.5c-.83,0-1.5.67-1.5,1.5s.67,1.5,1.5,1.5Z"/><path d="m9.5,9.5h2.5v4c0,.28.22.5.5.5s.5-.22.5-.5v-4h2.5c.28,0,.5-.22.5-.5s-.22-.5-.5-.5h-2.5v-2c0-.28-.22-.5-.5-.5s-.5.22-.5.5v2h-2.5c-.28,0-.5.22-.5.5s.22.5.5.5Z"/></svg>