<svg xmlns="http://www.w3.org/2000/svg" width="24" height="24" viewBox="0 0 24 24"><g opacity="0.4"><path d="m19.7,11c.12,0,.24.02.35.06v-.79c0-1.14-.66-2.17-1.68-2.66-.1-1.55-1.41-2.78-3.01-2.78-.37,0-.74.07-1.08.19-.57-.64-1.4-1.02-2.28-1.02s-1.7.37-2.28,1.02c-.34-.13-.71-.19-1.08-.19-.01,0-.02,0-.03,0-.01,0-.02,0-.03,0-.02,0-.04,0-.06.01-1.54.06-2.79,1.26-2.89,2.77-1.02.49-1.68,1.52-1.68,2.66v.79c.11-.03.23-.06.35-.06h15.4Z"/></g><path d="m19.7,11H4.3c-.36,0-.7.15-.93.42-.24.27-.35.63-.31.99.32,2.78,2.12,5.33,4.81,6.82.09.05.14.13.14.22v.3c0,.69.56,1.25,1.25,1.25h5.5c.69,0,1.25-.56,1.25-1.25v-.3c0-.09.05-.17.14-.22,2.69-1.49,4.49-4.04,4.81-6.82.04-.36-.07-.72-.31-.99-.24-.27-.58-.42-.93-.42Z"/></svg>