<svg xmlns="http://www.w3.org/2000/svg" width="24" height="24" viewBox="0 0 24 24"><g opacity="0.4"><path d="m12,8c-1.1,0-2,.9-2,2,0,.95.67,1.75,1.56,1.95l-.29,8.54c0,.28.22.52.5.52h.47c.28,0,.51-.23.5-.52l-.29-8.54c.89-.2,1.56-1,1.56-1.95,0-1.1-.9-2-2-2Z"/></g><path d="m8.82,6.11c-.2-.2-.51-.2-.71,0-1.04,1.04-1.61,2.42-1.61,3.89,0,1.47.57,2.85,1.61,3.89.1.1.23.15.35.15s.26-.05.35-.15c.2-.2.2-.51,0-.71-.85-.85-1.32-1.98-1.32-3.19,0-1.2.47-2.33,1.32-3.18.2-.2.2-.51,0-.71Z"/><path d="m15.18,6.11c-.2.2-.2.51,0,.71.85.85,1.32,1.98,1.32,3.18s-.47,2.33-1.32,3.18c-.2.2-.2.51,0,.71.1.1.23.15.35.15s.26-.05.35-.15c1.04-1.04,1.61-2.42,1.61-3.89s-.57-2.85-1.61-3.89c-.2-.2-.51-.2-.71,0Z"/><path d="m5.99,3.28c-.2-.2-.51-.2-.71,0-1.8,1.79-2.78,4.18-2.78,6.72s.99,4.92,2.78,6.72c.1.1.23.15.35.15s.26-.05.35-.15c.2-.2.2-.51,0-.71-1.61-1.61-2.49-3.74-2.49-6.01s.88-4.4,2.49-6.01c.2-.2.2-.51,0-.71Z"/><path d="m18.01,3.28c-.2.2-.2.51,0,.71,1.61,1.61,2.49,3.74,2.49,6.01s-.88,4.41-2.49,6.01c-.2.2-.2.51,0,.71.1.1.23.15.35.15s.26-.05.35-.15c1.79-1.79,2.78-4.18,2.78-6.72s-.99-4.92-2.78-6.72c-.2-.2-.51-.2-.71,0Z"/></svg>