<svg xmlns="http://www.w3.org/2000/svg" width="24" height="24" viewBox="0 0 24 24"><g opacity="0.4"><path d="m10.11,3c-1.13,0-2.09.8-2.33,1.89h-.03c-1.58,0-2.86,1.28-2.86,2.86,0,.4.08.79.24,1.14-1.25.49-2.13,1.72-2.13,3.11,0,.99.43,1.91,1.18,2.55-.15.39-.23.81-.23,1.23,0,1.71,1.3,3.12,3,3.31.4,1.13,1.48,1.91,2.7,1.91.98,0,1.85-.49,2.36-1.25V3.93c-.44-.56-1.12-.93-1.89-.93Z"/></g><path d="m18.87,8.89c.16-.36.24-.75.24-1.14,0-1.59-1.34-2.9-2.89-2.86-.23-1.08-1.19-1.89-2.34-1.89-.77,0-1.45.36-1.89.93v15.83c.52.75,1.38,1.25,2.36,1.25,1.22,0,2.3-.78,2.7-1.91,1.68-.17,3-1.59,3-3.32,0-.42-.08-.84-.23-1.23.74-.63,1.18-1.56,1.18-2.55,0-1.39-.88-2.62-2.13-3.11Z"/></svg>