<svg xmlns="http://www.w3.org/2000/svg" width="24" height="24" viewBox="0 0 24 24"><g opacity="0.4"><path d="m15.5,4H4.5c-.83,0-1.5.67-1.5,1.5v10c0,2.48,2.02,4.5,4.5,4.5h5c2.48,0,4.5-2.02,4.5-4.5V5.5c0-.83-.67-1.5-1.5-1.5Zm-7.5,11.5c0,.28-.22.5-.5.5s-.5-.22-.5-.5V7.5c0-.28.22-.5.5-.5s.5.22.5.5v8Zm5,0c0,.28-.22.5-.5.5s-.5-.22-.5-.5V7.5c0-.28.22-.5.5-.5s.5.22.5.5v8Z"/></g><path d="m18.5,7h-1.5v1h1.5c.83,0,1.5.67,1.5,1.5v4c0,.83-.67,1.5-1.5,1.5h-1.5v.5c0,.17-.03.33-.05.5h1.55c1.38,0,2.5-1.12,2.5-2.5v-4c0-1.38-1.12-2.5-2.5-2.5Z"/><path d="m12.5,16c.28,0,.5-.22.5-.5V7.5c0-.28-.22-.5-.5-.5s-.5.22-.5.5v8c0,.28.22.5.5.5Z"/><path d="m7.5,16c.28,0,.5-.22.5-.5V7.5c0-.28-.22-.5-.5-.5s-.5.22-.5.5v8c0,.28.22.5.5.5Z"/></svg>