<svg xmlns="http://www.w3.org/2000/svg" width="24" height="24" viewBox="0 0 24 24"><g opacity="0.4"><path d="m5,18.49v1.51c0,.55.45,1,1,1h1c.55,0,1-.45,1-1v-1h-1.5c-.56,0-1.08-.2-1.5-.51Z"/><path d="m16,19v1c0,.55.45,1,1,1h1c.55,0,1-.45,1-1v-1.51c-.42.32-.94.51-1.5.51h-1.5Z"/><path d="m3,8.5v3c0,.28.22.5.5.5h.5v-4h-.5c-.28,0-.5.22-.5.5Z"/><path d="m20.5,8h-.5v4h.5c.28,0,.5-.22.5-.5v-3c0-.28-.22-.5-.5-.5Z"/><rect x="12.5" y="7" width="6.5" height="5" rx="1" ry="1"/><rect x="5" y="7" width="6.5" height="5" rx="1" ry="1"/></g><path d="m20,7.5c0-2.48-2.02-4.5-4.5-4.5h-7c-2.48,0-4.5,2.02-4.5,4.5v9c0,1.38,1.12,2.5,2.5,2.5h11c1.38,0,2.5-1.12,2.5-2.5V7.5Zm-12.5,9.5c-.83,0-1.5-.67-1.5-1.5s.67-1.5,1.5-1.5,1.5.67,1.5,1.5-.67,1.5-1.5,1.5Zm4-6c0,.55-.45,1-1,1h-4.5c-.55,0-1-.45-1-1v-3c0-.55.45-1,1-1h4.5c.55,0,1,.45,1,1v3Zm5,6c-.83,0-1.5-.67-1.5-1.5s.67-1.5,1.5-1.5,1.5.67,1.5,1.5-.67,1.5-1.5,1.5Zm2.5-6c0,.55-.45,1-1,1h-4.5c-.55,0-1-.45-1-1v-3c0-.55.45-1,1-1h4.5c.55,0,1,.45,1,1v3Z"/></svg>