<svg xmlns="http://www.w3.org/2000/svg" width="24" height="24" viewBox="0 0 24 24"><g opacity="0.4"><path d="m16.67,13.72c-.21.1-.44.16-.67.16s-.46-.05-.67-.16l-3.11-1.55c-.14-.07-.31-.07-.45,0l-3.1,1.55c-.42.21-.92.21-1.34,0l-3.27-1.64c-.03.3-.06.6-.06.91v3.28c.3-.17.63-.28,1-.28h14c.37,0,.7.11,1,.28v-3.28c0-.31-.02-.61-.06-.91l-3.28,1.64Z"/><path d="m8.22,12.83l3.1-1.55c.42-.21.92-.21,1.34,0l3.11,1.55c.14.07.31.07.45,0l3.53-1.77c-.71-2.84-2.94-5.09-5.78-5.81-.12.98-.96,1.75-1.97,1.75s-1.85-.77-1.97-1.75c-2.84.72-5.07,2.97-5.78,5.81l3.53,1.76c.14.07.31.07.45,0Z"/></g><path d="M12 3A2 2 0 1 0 12 7 2 2 0 1 0 12 3z"/><rect x="3" y="16" width="18" height="5" rx="2" ry="2"/><path d="m7.32,13.72c.42.21.92.21,1.34,0l3.1-1.55c.14-.07.31-.07.45,0l3.11,1.55c.21.1.44.16.67.16s.46-.05.67-.16l3.28-1.64-.19-1.02-3.53,1.77c-.14.07-.31.07-.45,0l-3.11-1.55c-.42-.21-.92-.21-1.34,0l-3.1,1.55c-.14.07-.3.07-.45,0l-3.53-1.76c-.08.33-.14.68-.19,1.03l3.26,1.63Z"/><path d="M4.25 11.06 4.25 11.06 4.25 11.06 4.25 11.06z"/></svg>