<svg xmlns="http://www.w3.org/2000/svg" width="24" height="24" viewBox="0 0 24 24"><g opacity="0.4"><path d="m12,11c-2.76,0-5-2.24-5-5v3.3c.99,1.49,2.62,2.52,4.5,2.68v3.03h1v-3.03c1.88-.16,3.51-1.19,4.5-2.68v-3.3c0,2.76-2.24,5-5,5Z"/><path d="m20.5,10c-1.38,0-2.5-1.12-2.5-2.5v2.43c.64.65,1.52,1.07,2.5,1.07.28,0,.5-.22.5-.5s-.22-.5-.5-.5Z"/><path d="m3.5,10c-.28,0-.5.22-.5.5s.22.5.5.5c.98,0,1.86-.41,2.5-1.07v-2.43c0,1.38-1.12,2.5-2.5,2.5Z"/></g><path d="m20.5,15h-2.5V4.5c0-.28-.22-.5-.5-.5s-.5.22-.5.5v10.5H7V4.5c0-.28-.22-.5-.5-.5s-.5.22-.5.5v10.5h-2.5c-.28,0-.5.22-.5.5s.22.5.5.5h2.5v3.5c0,.28.22.5.5.5s.5-.22.5-.5v-3.5h10v3.5c0,.28.22.5.5.5s.5-.22.5-.5v-3.5h2.5c.28,0,.5-.22.5-.5s-.22-.5-.5-.5Z"/></svg>