<svg xmlns="http://www.w3.org/2000/svg" width="24" height="24" viewBox="0 0 24 24"><g opacity="0.4"><path d="m16.5,3h-7c-1.38,0-2.5,1.12-2.5,2.5v3.79l.15-.15c.2-.2.51-.2.71,0l5,5c.14.14.19.36.11.54s-.26.31-.46.31h-.5v5.5c0,.28-.22.5-.5.5h5.5c1.1,0,2-.9,2-2V5.5c0-1.38-1.12-2.5-2.5-2.5Zm-4.5,4.5c0,.28-.22.5-.5.5h-1c-.28,0-.5-.22-.5-.5v-1c0-.28.22-.5.5-.5h1c.28,0,.5.22.5.5v1Zm4,4c0,.28-.22.5-.5.5h-1c-.28,0-.5-.22-.5-.5v-.97c0-.28.22-.5.5-.5h1c.28,0,.5.22.5.5v.97Zm0-4c0,.28-.22.5-.5.5h-1c-.28,0-.5-.22-.5-.5v-1c0-.28.22-.5.5-.5h1c.28,0,.5.22.5.5v1Z"/></g><path d="m12,20.5v-5.5h.5c.2,0,.38-.12.46-.31s.03-.4-.11-.54l-5-5c-.2-.2-.51-.2-.71,0l-5,5c-.14.14-.19.36-.11.54s.26.31.46.31h.5v4c0,1.1.9,2,2,2h6.5c.28,0,.5-.22.5-.5Zm-3.5-4c0,.28-.22.5-.5.5h-1c-.28,0-.5-.22-.5-.5v-1c0-.28.22-.5.5-.5h1c.28,0,.5.22.5.5v1Z"/><rect x="14" y="10.03" width="2" height="1.97" rx=".5" ry=".5"/><rect x="10" y="6" width="2" height="2" rx=".5" ry=".5"/><rect x="14" y="6" width="2" height="2" rx=".5" ry=".5"/></svg>