<svg xmlns="http://www.w3.org/2000/svg" width="24" height="24" viewBox="0 0 24 24"><g opacity="0.4"><path d="m19.92,16.47h0s-5.97-9.4-5.97-9.4c-1.17.92-1.94,2.33-1.94,3.93,0,2.76,2.24,5,5,5h.5c.28,0,.5.22.5.5s-.22.5-.5.5h-.5c-3.31,0-6-2.69-6-6,0-1.96.94-3.69,2.4-4.79l-.71-1.11h0c-.89-1.32-2.36-2.1-3.93-2.1-2.62,0-4.75,2.14-4.75,4.76,0,2.23,1.58,4.16,3.73,4.63.15,1.61,1.01,6.76,6.07,6.76,3,0,4.8-1.06,5.59-1.66l1.19,1.78c.1.14.25.22.42.22.1,0,.19-.03.28-.08.23-.15.29-.46.14-.69l-1.5-2.25ZM8,8c-.55,0-1-.45-1-1s.45-1,1-1,1,.45,1,1-.45,1-1,1Z"/></g><path d="m4,7.76c0-.09.02-.18.03-.27-.62.45-1.03,1.18-1.03,2.01,0,.28.22.5.5.5h1.07c-.36-.67-.57-1.43-.57-2.24Z"/><path d="m12,20.5c0,.28.22.5.5.5s.5-.22.5-.5v-1.39c-.36-.04-.69-.11-1-.21v1.6Z"/><path d="m15,20.5c0,.28.22.5.5.5s.5-.22.5-.5v-1.5s0-.03-.01-.05c-.31.06-.64.11-.99.15v1.41Z"/><path d="M8 6A1 1 0 1 0 8 8 1 1 0 1 0 8 6z"/><path d="m17,17h.5c.28,0,.5-.22.5-.5s-.22-.5-.5-.5h-.5c-2.76,0-5-2.24-5-5,0-1.6.77-3.01,1.94-3.93l-.55-.86c-1.45,1.1-2.4,2.83-2.4,4.79,0,3.31,2.69,6,6,6Z"/></svg>