<svg xmlns="http://www.w3.org/2000/svg" width="24" height="24" viewBox="0 0 24 24"><g opacity="0.4"><path d="m19.27,14.7l-.87-.65c-.25-.19-.4-.49-.4-.8v-3.01c0-2.72-1.73-5.1-4.13-5.92-.28-.77-1.01-1.31-1.87-1.31s-1.58.54-1.87,1.29c-.79.26-1.53.68-2.17,1.27-.3.27-.57.57-.8.9l11.48,11.48c.78-.21,1.36-.92,1.36-1.76,0-.57-.27-1.12-.73-1.47Z"/><path d="m6,10v3.25c0,.31-.15.61-.4.8l-.87.65c-.46.34-.73.89-.73,1.47,0,1.01.82,1.83,1.83,1.83h11.46L6.63,7.34c-.41.82-.63,1.73-.63,2.66Z"/></g><path d="m15,18h-6c0,1.66,1.34,3,3,3s3-1.34,3-3Z"/><path d="m3.85,3.15c-.2-.2-.51-.2-.71,0s-.2.51,0,.71l17,17c.1.1.23.15.35.15s.26-.05.35-.15c.2-.2.2-.51,0-.71L3.85,3.15Z"/></svg>