<svg xmlns="http://www.w3.org/2000/svg" width="24" height="24" viewBox="0 0 24 24"><g opacity="0.4"><path d="m18.43,6.74c-.04-.07-.1-.13-.18-.17l-6-3.5c-.16-.09-.35-.09-.5,0l-6,3.5c-.07.04-.13.1-.18.17l-3,5c-.14.24-.07.54.17.69.23.14.54.07.69-.17l.57-.95v9.2c0,.28.22.5.5.5h15c.28,0,.5-.22.5-.5v-9.2l.57.95c.09.16.26.24.43.24.09,0,.18-.02.26-.07.24-.14.31-.45.17-.69l-3-5Zm-2.43,12.74l-3.19-2.48,3.19-2.48v4.96Zm-4-12.48c1.1,0,2,.9,2,2s-.9,2-2,2-2-.9-2-2,.9-2,2-2Zm-4,7.52l3.19,2.48-3.19,2.48v-4.96Zm.96-.52h6.09l-3.04,2.37-3.04-2.37Zm0,6l3.04-2.37,3.04,2.37h-6.09Z"/></g><path d="M15.04 14 8.96 14 12 16.37 15.04 14z"/><path d="M8 14.52 8 19.48 11.19 17 8 14.52z"/><path d="M12 7A2 2 0 1 0 12 11 2 2 0 1 0 12 7z"/><path d="M8.96 20 15.04 20 12 17.63 8.96 20z"/><path d="M16 14.52 12.81 17 16 19.48 16 14.52z"/></svg>