<svg xmlns="http://www.w3.org/2000/svg" width="24" height="24" viewBox="0 0 24 24"><g opacity="0.4"><path d="m5.2,15.78c0,5.15,4.06,5.22,4.1,5.22h.2c.28,0,.5-.22.5-.5s-.22-.5-.5-.5h-.2c-.13,0-3.1-.09-3.1-4.22,0-2.19-.85-3.26-1.68-3.78.82-.52,1.68-1.59,1.68-3.78,0-4.13,2.98-4.22,3.1-4.22h.2c.28,0,.5-.22.5-.5s-.22-.5-.5-.5h-.2s-4.1.07-4.1,5.22c0,3.15-1.98,3.27-2.2,3.28-.04,0-.07.01-.11.02-.03,0-.06,0-.08.02-.18.08-.31.25-.31.46,0,.26.2.46.45.49.02,0,.03.01.05.01.23,0,2.2.13,2.2,3.28Z"/></g><path d="m21.05,11.51s-.03-.01-.05-.01c-.23,0-2.2-.13-2.2-3.28,0-5.15-4.06-5.22-4.1-5.22h-.2c-.28,0-.5.22-.5.5s.22.5.5.5h.2c.13,0,3.1.09,3.1,4.22,0,2.19.85,3.26,1.68,3.78-.82.52-1.68,1.59-1.68,3.78,0,4.13-2.98,4.22-3.1,4.22h-.2c-.28,0-.5.22-.5.5s.22.5.5.5h.2s4.1-.07,4.1-5.22c0-3.15,1.98-3.27,2.2-3.28.04,0,.07-.01.11-.02.03,0,.06,0,.08-.02.18-.08.31-.25.31-.46,0-.26-.2-.46-.45-.49Z"/></svg>