<svg xmlns="http://www.w3.org/2000/svg" width="24" height="24" viewBox="0 0 24 24"><g opacity="0.4"><path d="m7.64,6.82c.27.28.49.61.64.97.15.36.22.75.22,1.14v.53c0,.28.22.5.5.5s.5-.22.5-.5v-.53c0-.52-.1-1.03-.3-1.52-.2-.48-.48-.92-.84-1.29-.27-.28-.49-.61-.64-.97-.15-.36-.22-.75-.22-1.14v-.51c0-.28-.22-.5-.5-.5s-.5.22-.5.5v.51c0,.52.1,1.03.3,1.51.2.48.48.92.84,1.29Z"/><path d="m11.64,6.82c.27.28.49.61.64.97.15.36.22.75.22,1.14v.53c0,.28.22.5.5.5s.5-.22.5-.5v-.53c0-.52-.1-1.03-.3-1.52-.2-.48-.48-.92-.84-1.29-.27-.28-.49-.61-.64-.97-.15-.36-.22-.75-.22-1.14v-.51c0-.28-.22-.5-.5-.5s-.5.22-.5.5v.51c0,.52.1,1.03.3,1.51.2.48.48.92.84,1.29Z"/><path d="m15.64,6.82c.27.28.49.61.64.97.15.36.22.75.22,1.14v.53c0,.28.22.5.5.5s.5-.22.5-.5v-.53c0-.52-.1-1.03-.3-1.52-.2-.48-.48-.92-.84-1.29-.27-.28-.49-.61-.64-.97-.15-.36-.22-.75-.22-1.14v-.51c0-.28-.22-.5-.5-.5s-.5.22-.5.5v.51c0,.52.1,1.03.3,1.51.2.48.48.92.84,1.29Z"/></g><path d="m19.7,11H4.3c-.36,0-.7.15-.93.42-.24.27-.35.63-.31.99.32,2.78,2.12,5.33,4.81,6.82.09.05.14.13.14.22v.3c0,.69.56,1.25,1.25,1.25h5.5c.69,0,1.25-.56,1.25-1.25v-.3c0-.09.05-.17.14-.22,2.69-1.49,4.49-4.04,4.81-6.82.04-.36-.07-.72-.31-.99-.24-.27-.58-.42-.93-.42Z"/></svg>