<svg xmlns="http://www.w3.org/2000/svg" width="24" height="24" viewBox="0 0 24 24"><g opacity="0.4"><path d="m18,8.79v-1.79c0-.55-.45-1-1-1h-1.79l-2.5-2.5c-.39-.39-1.02-.39-1.41,0l-2.5,2.5h-1.79c-.55,0-1,.45-1,1v1.79l-2.5,2.5c-.39.39-.39,1.02,0,1.41l2.5,2.5v1.79c0,.55.45,1,1,1h1.79l2.5,2.5c.2.19.45.29.71.29s.51-.1.71-.29l2.5-2.5h1.79c.55,0,1-.45,1-1v-1.79l2.5-2.5c.39-.39.39-1.02,0-1.41l-2.5-2.5Zm-6,7.21c-2.21,0-4-1.79-4-4s1.79-4,4-4,4,1.79,4,4-1.79,4-4,4Z"/></g><path d="M12 8A4 4 0 1 0 12 16 4 4 0 1 0 12 8z"/></svg>