<svg xmlns="http://www.w3.org/2000/svg" width="24" height="24" viewBox="0 0 24 24"><g opacity="0.4"><path d="m17.5,4h-5.5v16h5.5c1.93,0,3.5-1.57,3.5-3.5V7.5c0-1.93-1.57-3.5-3.5-3.5Zm1,8h-4c-.28,0-.5-.22-.5-.5s.22-.5.5-.5h4c.28,0,.5.22.5.5s-.22.5-.5.5Zm0-4h-4c-.28,0-.5-.22-.5-.5s.22-.5.5-.5h4c.28,0,.5.22.5.5s-.22.5-.5.5Z"/></g><path d="m14.5,12h4c.28,0,.5-.22.5-.5s-.22-.5-.5-.5h-4c-.28,0-.5.22-.5.5s.22.5.5.5Z"/><path d="m14.5,8h4c.28,0,.5-.22.5-.5s-.22-.5-.5-.5h-4c-.28,0-.5.22-.5.5s.22.5.5.5Z"/><path d="m12,4h-5.5c-1.93,0-3.5,1.57-3.5,3.5v9c0,1.93,1.57,3.5,3.5,3.5h5.5V4Z"/></svg>