<svg xmlns="http://www.w3.org/2000/svg" width="24" height="24" viewBox="0 0 24 24"><g opacity="0.4"><path d="m20.77,13.58l-2.84-7.69c-.28-1.11-1.28-1.89-2.42-1.89-1.21,0-2.22.86-2.45,2h-2.1c-.23-1.14-1.24-2-2.45-2s-2.14.78-2.41,1.84l-2.86,7.74h.02c-.03.11-.08.2-.1.3-.1.34-.15.72-.15,1.12,0,2.48,2.02,4.5,4.5,4.5s4.5-2.02,4.5-4.5c0,2.48,2.02,4.5,4.5,4.5s4.5-2.02,4.5-4.5c0-.5-.1-.97-.25-1.42h.02Zm-13.27,4.92c-1.93,0-3.5-1.57-3.5-3.5,0-.31.04-.59.12-.86.38-1.55,1.78-2.64,3.38-2.64s3.05,1.13,3.4,2.69l.1.84c-.01,1.92-1.58,3.47-3.5,3.47Zm9,0c-1.93,0-3.5-1.57-3.5-3.5s1.57-3.5,3.5-3.5,3.5,1.57,3.5,3.5-1.57,3.5-3.5,3.5Z"/></g><path d="m7.5,18.5c1.92,0,3.49-1.56,3.5-3.47l-.1-.84c-.35-1.56-1.75-2.69-3.4-2.69s-3,1.09-3.38,2.64c-.08.27-.12.55-.12.86,0,1.93,1.57,3.5,3.5,3.5Z"/><path d="M16.5 11.5A3.5 3.5 0 1 0 16.5 18.5 3.5 3.5 0 1 0 16.5 11.5z"/></svg>