<svg xmlns="http://www.w3.org/2000/svg" width="24" height="24" viewBox="0 0 24 24"><g opacity="0.4"><path d="m15.5,3h-7c-3.03,0-5.5,2.47-5.5,5.5,0,.28.22.5.5.5h17c.28,0,.5-.22.5-.5,0-3.03-2.47-5.5-5.5-5.5Z"/><path d="m20.5,15H3.5c-.28,0-.5.22-.5.5,0,3.03,2.47,5.5,5.5,5.5h7c3.03,0,5.5-2.47,5.5-5.5,0-.28-.22-.5-.5-.5Z"/></g><path d="m20.5,12.35c-.89,0-1.29-.33-1.81-.74-.56-.45-1.2-.96-2.44-.96s-1.87.51-2.44.96c-.52.41-.93.74-1.81.74s-1.3-.33-1.81-.74c-.56-.45-1.2-.96-2.44-.96s-1.88.51-2.44.96c-.52.41-.93.74-1.81.74-.28,0-.5.22-.5.5s.22.5.5.5c1.24,0,1.88-.51,2.44-.96.52-.41.93-.74,1.81-.74s1.3.33,1.81.74c.56.45,1.2.96,2.44.96s1.88-.51,2.44-.96c.52-.41.92-.74,1.81-.74s1.29.33,1.81.74c.56.45,1.2.96,2.44.96.28,0,.5-.22.5-.5s-.22-.5-.5-.5Z"/></svg>