<svg xmlns="http://www.w3.org/2000/svg" width="24" height="24" viewBox="0 0 24 24"><g opacity="0.4"><path d="m19.5,15h-7.5c-.12,0-.23.04-.32.12l-2.36,1.97c-.19.16-.46.16-.64,0l-2.36-1.97c-.09-.07-.2-.12-.32-.12h-1.5c-.83,0-1.5.67-1.5,1.5v1c0,1.93,1.57,3.5,3.5,3.5h11c1.93,0,3.5-1.57,3.5-3.5v-1c0-.83-.67-1.5-1.5-1.5Z"/><path d="m12,3c-4.96,0-9,2.58-9,5.75v1.75c0,.83.67,1.5,1.5,1.5h15c.83,0,1.5-.67,1.5-1.5v-1.75c0-3.17-4.04-5.75-9-5.75Zm.5,5c-.28,0-.5-.22-.5-.5s.22-.5.5-.5.5.22.5.5-.22.5-.5.5Zm2.5,0c-.55,0-1-.45-1-1s.45-1,1-1,1,.45,1,1-.45,1-1,1Zm2.5,1c-.28,0-.5-.22-.5-.5s.22-.5.5-.5.5.22.5.5-.22.5-.5.5Z"/></g><path d="m19.5,12H4.5c-.83,0-1.5.67-1.5,1.5h0c0,.83.67,1.5,1.5,1.5h1.5c.12,0,.23.04.32.12l2.36,1.97c.19.16.46.16.64,0l2.36-1.97c.09-.07.2-.12.32-.12h7.5c.83,0,1.5-.67,1.5-1.5h0c0-.83-.67-1.5-1.5-1.5Z"/><path d="M12.5 7A.5.5 0 1 0 12.5 8 .5.5 0 1 0 12.5 7z"/><path d="M15 6A1 1 0 1 0 15 8 1 1 0 1 0 15 6z"/><path d="M17.5 8A.5.5 0 1 0 17.5 9 .5.5 0 1 0 17.5 8z"/></svg>