<svg xmlns="http://www.w3.org/2000/svg" width="24" height="24" viewBox="0 0 24 24"><g opacity="0.4"><path d="m16.5,3H7.5c-1.93,0-3.5,1.57-3.5,3.5v4.5h16v-4.5c0-1.93-1.57-3.5-3.5-3.5Zm-1.5,4.5c0,.28-.22.5-.5.5h-5c-.28,0-.5-.22-.5-.5v-1c0-.28.22-.5.5-.5s.5.22.5.5v.5h4v-.5c0-.28.22-.5.5-.5s.5.22.5.5v1Z"/><path d="m4,17.5c0,1.93,1.57,3.5,3.5,3.5h9c1.93,0,3.5-1.57,3.5-3.5v-4.5H4v4.5Zm5-1c0-.28.22-.5.5-.5s.5.22.5.5v.5h4v-.5c0-.28.22-.5.5-.5s.5.22.5.5v1c0,.28-.22.5-.5.5h-5c-.28,0-.5-.22-.5-.5v-1Z"/></g><path d="m9.5,8h5c.28,0,.5-.22.5-.5v-1c0-.28-.22-.5-.5-.5s-.5.22-.5.5v.5h-4v-.5c0-.28-.22-.5-.5-.5s-.5.22-.5.5v1c0,.28.22.5.5.5Z"/><path d="m9.5,16c-.28,0-.5.22-.5.5v1c0,.28.22.5.5.5h5c.28,0,.5-.22.5-.5v-1c0-.28-.22-.5-.5-.5s-.5.22-.5.5v.5h-4v-.5c0-.28-.22-.5-.5-.5Z"/><path d="M4 11H20V13H4z"/></svg>