<svg xmlns="http://www.w3.org/2000/svg" width="24" height="24" viewBox="0 0 24 24"><g opacity="0.4"><path d="m12,3C7.04,3,3,7.04,3,12s4.04,9,9,9,9-4.04,9-9S16.96,3,12,3Zm.5,9s0,.02,0,.03c0,.03-.01.06-.02.1,0,.03-.02.07-.03.1,0,0,0,.02,0,.03,0,.01-.02.02-.03.03-.04.05-.08.09-.13.13-.02.01-.03.02-.05.03-.07.03-.14.06-.22.06s-.16-.03-.23-.06c0,0-.02,0-.02,0l-4.76-2.75c-.24-.14-.32-.44-.18-.68.14-.24.44-.32.68-.18l4.01,2.32v-4.63c0-.28.22-.5.5-.5s.5.22.5.5v5.5Z"/></g><path d="m6.99,9.68l4.76,2.75s.02,0,.02,0c.07.04.14.06.23.06s.16-.02.22-.06c.02,0,.03-.02.05-.03.05-.04.09-.08.13-.13,0-.01.02-.02.03-.03,0,0,0-.02,0-.03.02-.03.02-.06.03-.1,0-.03.02-.06.02-.1,0-.01,0-.02,0-.03v-5.5c0-.28-.22-.5-.5-.5s-.5.22-.5.5v4.63l-4.01-2.32c-.24-.14-.54-.06-.68.18-.14.24-.06.54.18.68Z"/></svg>