<svg xmlns="http://www.w3.org/2000/svg" width="24" height="24" viewBox="0 0 24 24"><g opacity="0.4"><path d="m15.5,5h-7c-1.93,0-3.5,1.57-3.5,3.5v7c0,1.93,1.57,3.5,3.5,3.5h7c1.93,0,3.5-1.57,3.5-3.5v-7c0-1.93-1.57-3.5-3.5-3.5Zm-.5,8.5c0,.83-.67,1.5-1.5,1.5h-3c-.83,0-1.5-.67-1.5-1.5v-3c0-.83.67-1.5,1.5-1.5h3c.83,0,1.5.67,1.5,1.5v3Z"/></g><rect x="9" y="9" width="6" height="6" rx="1.5" ry="1.5"/><path d="m10,4.96v-1.46c0-.28-.22-.5-.5-.5s-.5.22-.5.5v1.46s0,.03,0,.04h.98s0-.03,0-.04Z"/><path d="m3.5,10h1.46s.03,0,.04,0v-.98s-.03,0-.04,0h-1.46c-.28,0-.5.22-.5.5s.22.5.5.5Z"/><path d="m5,14.01s-.03,0-.04,0h-1.46c-.28,0-.5.22-.5.5s.22.5.5.5h1.46s.03,0,.04,0v-.98Z"/><path d="m9,20.5c0,.28.22.5.5.5s.5-.22.5-.5v-1.46s0-.03,0-.04h-.98s0,.03,0,.04v1.46Z"/><path d="m14,19.04v1.46c0,.28.22.5.5.5s.5-.22.5-.5v-1.46s0-.03,0-.04h-.98s0,.03,0,.04Z"/><path d="m20.5,14h-1.46s-.03,0-.04,0v.98s.03,0,.04,0h1.46c.28,0,.5-.22.5-.5s-.22-.5-.5-.5Z"/><path d="m20.5,9h-1.46s-.03,0-.04,0v.98s.03,0,.04,0h1.46c.28,0,.5-.22.5-.5s-.22-.5-.5-.5Z"/><path d="m15,4.96v-1.46c0-.28-.22-.5-.5-.5s-.5.22-.5.5v1.46s0,.03,0,.04h.98s0-.03,0-.04Z"/></svg>