<svg xmlns="http://www.w3.org/2000/svg" width="24" height="24" viewBox="0 0 24 24"><g opacity="0.4"><path d="m12,3C7.04,3,3,7.04,3,12s4.04,9,9,9,9-4.04,9-9S16.96,3,12,3Zm-5,7.5c0-.83.67-1.5,1.5-1.5s1.5.67,1.5,1.5-.67,1.5-1.5,1.5-1.5-.67-1.5-1.5Zm8.57,5l-7,1s-.05,0-.07,0c-.24,0-.46-.18-.49-.43-.04-.27.15-.53.42-.57l7-1c.26-.03.53.15.57.42.04.27-.15.53-.42.57Zm-.07-3.5c-.83,0-1.5-.67-1.5-1.5s.67-1.5,1.5-1.5,1.5.67,1.5,1.5-.67,1.5-1.5,1.5Z"/></g><path d="m8.43,15.5c-.27.04-.46.29-.42.57.04.25.25.43.49.43.02,0,.05,0,.07,0l7-1c.27-.04.46-.29.42-.57-.04-.27-.3-.46-.57-.42l-7,1Z"/><path d="m15.5,12c.83,0,1.5-.67,1.5-1.5s-.67-1.5-1.5-1.5-1.5.67-1.5,1.5.67,1.5,1.5,1.5Z"/><path d="M8.5 9A1.5 1.5 0 1 0 8.5 12 1.5 1.5 0 1 0 8.5 9z"/></svg>