<svg xmlns="http://www.w3.org/2000/svg" width="24" height="24" viewBox="0 0 24 24"><g opacity="0.4"><path d="m12,3C7.04,3,3,7.04,3,12s4.04,9,9,9,9-4.04,9-9S16.96,3,12,3Zm.5,9c0,.23-.15.42-.37.48-.04.01-.09.02-.13.02-.18,0-.34-.09-.43-.25l-2.75-4.76c-.14-.24-.06-.54.18-.68.24-.14.54-.06.68.18l1.82,3.15v-3.63c0-.28.22-.5.5-.5s.5.22.5.5v5.5Z"/></g><path d="m11.57,12.25c.09.16.26.25.43.25.04,0,.09,0,.13-.02.22-.06.37-.26.37-.48v-5.5c0-.28-.22-.5-.5-.5s-.5.22-.5.5v3.63l-1.82-3.15c-.14-.24-.44-.32-.68-.18-.24.14-.32.44-.18.68l2.75,4.76Z"/></svg>