<svg xmlns="http://www.w3.org/2000/svg" width="24" height="24" viewBox="0 0 24 24"><g opacity="0.4"><path d="m20.5,8H7.5c-.28,0-.5.22-.5.5v1.5c0,1.06.24,2.06.67,2.96,2.06.53,4.26.21,6.03-.88,0,0,0,0,0,0,2.12-1.32,4.78-1.63,7.2-.89.07-.39.11-.78.11-1.19v-1.5c0-.28-.22-.5-.5-.5Z"/></g><path d="m7.29,12c-.1-.32-.17-.66-.21-1h-.08s.05,0,.08,0c-.05-.33-.08-.65-.08-.99v-1.5c0-.28.22-.5.5-.5h3.5c0-1.07-.42-2.07-1.17-2.83-.75-.76-1.76-1.17-2.83-1.17s-2.07.42-2.83,1.17c-.76.75-1.17,1.76-1.17,2.83s.42,2.07,1.17,2.83c.75.76,1.76,1.17,2.83,1.17h.29Zm-2.42-1.88h0s.01,0,.01.01c0,0-.01,0-.01-.01Z"/><path d="m21.01,4.32l-.38-.22c-.45-.34-1.03-.47-1.58-.36-.55.11-1.04.45-1.33.93l-2,3.33h1.17l1.69-2.82c.15-.25.38-.41.67-.47.28-.06.56,0,.83.21l.42.25c.23.14.54.07.69-.17.14-.24.07-.54-.17-.69Z"/><path d="m7.67,12.96c1.05,2.24,3.25,3.82,5.83,4v3.04h-2c-.28,0-.5.22-.5.5s.22.5.5.5h5c.28,0,.5-.22.5-.5s-.22-.5-.5-.5h-2v-3.02c3.23-.23,5.85-2.66,6.39-5.79-2.41-.75-5.08-.43-7.2.89,0,0,0,0,0,0-1.76,1.1-3.96,1.42-6.03.88Z"/></svg>