<svg xmlns="http://www.w3.org/2000/svg" width="24" height="24" viewBox="0 0 24 24"><g opacity="0.4"><path d="m6,10v1.5c0,.28.22.5.5.5h11c.28,0,.5-.22.5-.5v-1.5c0-1.1.9-2,2-2v-2.5c0-1.38-1.12-2.5-2.5-2.5H6.5c-1.38,0-2.5,1.12-2.5,2.5v2.5c1.1,0,2,.9,2,2Z"/></g><path d="m20,8c-1.1,0-2,.9-2,2v1.5c0,.28-.22.5-.5.5H6.5c-.28,0-.5-.22-.5-.5v-1.5c0-1.1-.9-2-2-2s-2,.9-2,2v4.5c0,1.38,1.12,2.5,2.5,2.5h.5v2.5c0,.28.22.5.5.5s.5-.22.5-.5v-2.5h12v2.5c0,.28.22.5.5.5s.5-.22.5-.5v-2.5h.5c1.38,0,2.5-1.12,2.5-2.5v-4.5c0-1.1-.9-2-2-2Z"/></svg>