<svg xmlns="http://www.w3.org/2000/svg" width="24" height="24" viewBox="0 0 24 24"><g opacity="0.4"><path d="m16.78,9.53c.17-.02.32-.03.47-.03,1.14,0,2.17.42,2.99,1.09.02-.02.05-.04.07-.06.23-.23.43-.48.61-.74.18-.27.34-.55.46-.85.13-.3.23-.62.29-.94.02-.12.03-.24.04-.36v-.14c.03-.15-.03-.3-.13-.41s-.26-.16-.4-.14l-.17.02c-.08.01-.16.02-.24.02-2.21,0-4-1.79-4-4,0-.08.01-.15.02-.23l.02-.18c.01-.15-.04-.3-.15-.4-.11-.11-.26-.16-.4-.14h-.14c-.12.02-.25.03-.36.05-.32.07-.64.16-.94.29-.3.13-.58.28-.85.46-.27.18-.51.38-.74.61-.23.23-.43.48-.61.74-.18.27-.34.55-.46.85-.13.3-.23.62-.29.94,0,.02,0,.05,0,.07,2.09.28,3.93,1.57,4.91,3.47Z"/></g><path d="m17.25,9.5c-.15,0-.31,0-.47.03-1.11-2.16-3.34-3.53-5.78-3.53-3.44,0-6.27,2.69-6.48,6.15-1.48.43-2.52,1.78-2.52,3.35,0,1.93,1.57,3.5,3.5,3.5h11.75c2.62,0,4.75-2.13,4.75-4.75s-2.13-4.75-4.75-4.75Z"/></svg>