<svg xmlns="http://www.w3.org/2000/svg" width="24" height="24" viewBox="0 0 24 24"><g opacity="0.4"><path d="m17.5,6h-.77l-1.9-2.28c-.38-.46-.94-.72-1.54-.72h-2.6c-.59,0-1.16.26-1.54.72l-1.9,2.28h-.77c-1.93,0-3.5,1.57-3.5,3.5v6c0,1.93,1.57,3.5,3.5,3.5h11c1.93,0,3.5-1.57,3.5-3.5v-6c0-1.93-1.57-3.5-3.5-3.5Zm-2,6.5h-3v3c0,.28-.22.5-.5.5s-.5-.22-.5-.5v-3h-3c-.28,0-.5-.22-.5-.5s.22-.5.5-.5h3v-3c0-.28.22-.5.5-.5s.5.22.5.5v3h3c.28,0,.5.22.5.5s-.22.5-.5.5Z"/></g><path d="m8.5,12.5h3v3c0,.28.22.5.5.5s.5-.22.5-.5v-3h3c.28,0,.5-.22.5-.5s-.22-.5-.5-.5h-3v-3c0-.28-.22-.5-.5-.5s-.5.22-.5.5v3h-3c-.28,0-.5.22-.5.5s.22.5.5.5Z"/></svg>