<svg xmlns="http://www.w3.org/2000/svg" width="24" height="24" viewBox="0 0 24 24"><g opacity="0.4"><path d="m15.22,5.4c-.6-.88-1.79-1.13-2.7-.57l-.62.39c.05.18.08.37.09.56,0,.04.01.14.01.22,0,1.65-1.35,3-3,3-.68,0-1.35-.24-1.89-.67-.04-.03-.06-.07-.1-.09l-3.07,1.9c-.25.15-.44.36-.59.59l17.57,3.24c-.06-.22-.14-.43-.27-.62l-5.43-7.94Z"/></g><path d="m3.35,10.72c-.22.32-.35.7-.35,1.11v4.41c0,.97.7,1.8,1.65,1.97l14,2.47c.12.02.23.03.35.03.47,0,.92-.16,1.28-.47.45-.38.71-.94.71-1.53v-4.25c0-.17-.03-.34-.08-.5L3.35,10.72Z"/><path d="m7.11,8.33c.53.43,1.2.67,1.89.67,1.65,0,3-1.35,3-3,0-.09,0-.18-.01-.22-.11-1.56-1.42-2.78-2.99-2.78-1.65,0-3,1.35-3,3,0,.92.41,1.77,1.11,2.33Z"/></svg>