<svg xmlns="http://www.w3.org/2000/svg" width="24" height="24" viewBox="0 0 24 24"><g opacity="0.4"><path d="m4,16.72v2.28c0,.55.45,1,1,1h1c.55,0,1-.45,1-1v-2h-2c-.37,0-.7-.11-1-.28Z"/><path d="m17,17v2c0,.55.45,1,1,1h1c.55,0,1-.45,1-1v-2.28c-.3.17-.63.28-1,.28h-2Z"/><path d="m18.08,6.89c-.28-1.12-1.28-1.89-2.43-1.89h-7.31c-1.15,0-2.15.78-2.43,1.89l-.78,3.11h13.72l-.78-3.11Z"/></g><path d="m19.95,10.25l-.9-3.6c-.39-1.56-1.79-2.65-3.4-2.65h-7.31c-1.61,0-3.01,1.09-3.4,2.65l-.9,3.6c-.62.34-1.05.99-1.05,1.75v3c0,1.1.9,2,2,2h14c1.1,0,2-.9,2-2v-3c0-.76-.43-1.41-1.05-1.75Zm-14.04-3.36c.28-1.12,1.28-1.89,2.43-1.89h7.31c1.15,0,2.15.78,2.43,1.89l.78,3.11H5.14l.78-3.11Zm.58,8.11c-.83,0-1.5-.67-1.5-1.5s.67-1.5,1.5-1.5,1.5.67,1.5,1.5-.67,1.5-1.5,1.5Zm11,0c-.83,0-1.5-.67-1.5-1.5s.67-1.5,1.5-1.5,1.5.67,1.5,1.5-.67,1.5-1.5,1.5Z"/></svg>