<svg xmlns="http://www.w3.org/2000/svg" width="24" height="24" viewBox="0 0 24 24"><g opacity="0.4"><path d="m20.5,20H5c-.55,0-1-.45-1-1V3.5c0-.28-.22-.5-.5-.5s-.5.22-.5.5v15.5c0,1.1.9,2,2,2h15.5c.28,0,.5-.22.5-.5s-.22-.5-.5-.5Z"/></g><path d="m7.5,13c.28,0,.5-.22.5-.5v-5c0-.28-.22-.5-.5-.5s-.5.22-.5.5v5c0,.28.22.5.5.5Z"/><path d="m16.5,10c.28,0,.5-.22.5-.5v-4c0-.28-.22-.5-.5-.5s-.5.22-.5.5v4c0,.28.22.5.5.5Z"/><path d="m19.5,17c.28,0,.5-.22.5-.5V7.5c0-.28-.22-.5-.5-.5s-.5.22-.5.5v9c0,.28.22.5.5.5Z"/><path d="m13.5,10c.28,0,.5-.22.5-.5v-1c0-.28-.22-.5-.5-.5s-.5.22-.5.5v1c0,.28.22.5.5.5Z"/><path d="m10.5,10c.28,0,.5-.22.5-.5v-4c0-.28-.22-.5-.5-.5s-.5.22-.5.5v4c0,.28.22.5.5.5Z"/></svg>