<svg xmlns="http://www.w3.org/2000/svg" width="24" height="24" viewBox="0 0 24 24"><g opacity="0.4"><path d="m12,3C7.04,3,3,7.04,3,12c0,4.96,4.04,9,9,9s9-4.04,9-9c0-4.96-4.04-9-9-9Zm2.35,9.35l-3.5,3.5c-.1.1-.23.15-.35.15s-.26-.05-.35-.15c-.2-.2-.2-.51,0-.71l3.15-3.15-3.15-3.15c-.2-.2-.2-.51,0-.71s.51-.2.71,0l3.5,3.5c.2.2.2.51,0,.71Z"/></g><path d="m10.15,15.85c.1.1.23.15.35.15s.26-.05.35-.15l3.5-3.5c.2-.2.2-.51,0-.71l-3.5-3.5c-.2-.2-.51-.2-.71,0s-.2.51,0,.71l3.15,3.15-3.15,3.15c-.2.2-.2.51,0,.71Z"/></svg>