<svg xmlns="http://www.w3.org/2000/svg" width="24" height="24" viewBox="0 0 24 24"><g opacity="0.4"><path d="m12,3C7.04,3,3,7.04,3,12s4.04,9,9,9,9-4.04,9-9S16.96,3,12,3Zm.5,9s0,.04-.01.06c0,.03,0,.07-.02.1-.01.03-.03.06-.04.09-.02.03-.03.05-.05.08-.02.03-.05.05-.08.07-.02.01-.03.03-.04.04l-4.76,2.75c-.08.05-.17.07-.25.07-.17,0-.34-.09-.43-.25-.14-.24-.06-.54.18-.68l4.51-2.61v-5.21c0-.28.22-.5.5-.5s.5.22.5.5v5.5Z"/></g><path d="m7.24,15.25c.08,0,.17-.02.25-.07l4.76-2.75s.03-.03.04-.04c.03-.02.06-.04.08-.07.02-.02.04-.05.05-.08.02-.03.03-.05.04-.09.01-.03.02-.07.02-.1,0-.02.01-.04.01-.06v-5.5c0-.28-.22-.5-.5-.5s-.5.22-.5.5v5.21l-4.51,2.61c-.24.14-.32.44-.18.68.09.16.26.25.43.25Z"/></svg>