<svg xmlns="http://www.w3.org/2000/svg" width="24" height="24" viewBox="0 0 24 24"><g opacity="0.4"><path d="m18.5,7H5.5c-1.93,0-3.5,1.57-3.5,3.5v5c0,1.93,1.57,3.5,3.5,3.5h13c1.93,0,3.5-1.57,3.5-3.5v-5c0-1.93-1.57-3.5-3.5-3.5Zm-9,6.5h-5c-.28,0-.5-.22-.5-.5s.22-.5.5-.5h5c.28,0,.5.22.5.5s-.22.5-.5.5Zm10,0h-2v2c0,.28-.22.5-.5.5s-.5-.22-.5-.5v-2h-2c-.28,0-.5-.22-.5-.5s.22-.5.5-.5h2v-2c0-.28.22-.5.5-.5s.5.22.5.5v2h2c.28,0,.5.22.5.5s-.22.5-.5.5Z"/></g><path d="m9,7v-1.5c0-.28-.22-.5-.5-.5h-3c-.28,0-.5.22-.5.5v1.55c.16-.02.33-.05.5-.05h3.5Z"/><path d="m19,7.05v-1.55c0-.28-.22-.5-.5-.5h-3c-.28,0-.5.22-.5.5v1.5h3.5c.17,0,.34.03.5.05Z"/><path d="m14.5,13.5h2v2c0,.28.22.5.5.5s.5-.22.5-.5v-2h2c.28,0,.5-.22.5-.5s-.22-.5-.5-.5h-2v-2c0-.28-.22-.5-.5-.5s-.5.22-.5.5v2h-2c-.28,0-.5.22-.5.5s.22.5.5.5Z"/><path d="m4.5,13.5h5c.28,0,.5-.22.5-.5s-.22-.5-.5-.5h-5c-.28,0-.5.22-.5.5s.22.5.5.5Z"/></svg>