<svg xmlns="http://www.w3.org/2000/svg" width="24" height="24" viewBox="0 0 24 24"><g opacity="0.4"><path d="m11,3h-5c-1.1,0-2,.9-2,2v14c0,1.1.9,2,2,2h5c.28,0,.5-.22.5-.5V3.5c0-.28-.22-.5-.5-.5Zm-2,10c-.55,0-1-.45-1-1s.45-1,1-1,1,.45,1,1-.45,1-1,1Z"/><path d="m18,3h-5c-.28,0-.5.22-.5.5v17c0,.28.22.5.5.5h5c1.1,0,2-.9,2-2V5c0-1.1-.9-2-2-2Z"/></g><path d="M9 11A1 1 0 1 0 9 13 1 1 0 1 0 9 11z"/><path d="m11,21h2c-.28,0-.5-.22-.5-.5V3.5c0-.28.22-.5.5-.5h-2c.28,0,.5.22.5.5v17c0,.28-.22.5-.5.5Z"/></svg>