<svg xmlns="http://www.w3.org/2000/svg" width="24" height="24" viewBox="0 0 24 24"><g opacity="0.4"><path d="m8.63,12.9c-.06-.23-.25-.4-.49-.4H3.58c-.3,0-.54.26-.5.55.2,1.69.87,3.24,1.87,4.52.18.23.54.24.74.03l3.23-3.23c.17-.17.18-.42.06-.63-.15-.26-.27-.55-.35-.85Z"/><path d="m10.95,3.07c-1.69.2-3.24.87-4.52,1.88-.23.18-.24.54-.03.74l3.23,3.23c.17.17.42.18.63.06.26-.15.55-.27.85-.35.23-.06.4-.25.4-.49V3.58c0-.3-.26-.54-.55-.5Z"/><path d="m18.31,6.4l-3.23,3.23c-.17.17-.18.42-.06.63.15.26.27.55.35.85.06.23.25.4.49.4h4.57c.3,0,.54-.26.5-.55-.2-1.69-.87-3.24-1.88-4.52-.18-.23-.54-.24-.74-.03Z"/><path d="m14.38,15.08c-.17-.17-.42-.18-.63-.06-.26.15-.55.27-.85.35-.23.06-.4.25-.4.49v4.57c0,.3.26.54.55.5,1.69-.2,3.24-.87,4.52-1.87.23-.18.24-.54.03-.74l-3.23-3.23Z"/></g><path d="m3.58,11.5h4.57c.24,0,.43-.17.49-.4.08-.3.2-.59.35-.85.12-.21.1-.46-.06-.63l-3.23-3.23c-.21-.21-.56-.2-.74.03-1.01,1.27-1.68,2.82-1.87,4.52-.03.29.21.55.5.55Z"/><path d="m12.9,8.63c.3.08.59.2.85.35.21.12.46.1.63-.06l3.23-3.23c.21-.21.2-.56-.03-.74-1.27-1.01-2.82-1.68-4.52-1.88-.29-.03-.55.21-.55.5v4.57c0,.24.17.43.4.49Z"/><path d="m11.1,15.37c-.3-.08-.59-.2-.85-.35-.21-.12-.46-.1-.63.06l-3.23,3.23c-.21.21-.2.56.03.74,1.27,1.01,2.82,1.68,4.52,1.87.29.03.55-.21.55-.5v-4.57c0-.24-.17-.43-.4-.49Z"/><path d="m20.42,12.5h-4.57c-.24,0-.43.17-.49.4-.08.3-.2.59-.35.85-.12.21-.1.46.06.63l3.23,3.23c.21.21.56.2.74-.03,1.01-1.27,1.68-2.82,1.88-4.52.03-.29-.21-.55-.5-.55Z"/></svg>