<svg xmlns="http://www.w3.org/2000/svg" width="24" height="24" viewBox="0 0 24 24"><g opacity="0.4"><path d="M16.5 8.95 13.5 10.18 13.5 18.23 16.5 16.87 16.5 8.95z"/><path d="m17.5,8.54v7.87l2.33-1.06c.71-.32,1.17-1.04,1.17-1.82v-5.11c0-.43-.15-.83-.38-1.16l-3.12,1.27Z"/><path d="m4.11,17.36l4.53,2.27c.28.14.59.21.89.21.28,0,.56-.06.83-.18l2.14-.97v-8.1l-2.38.97c-.52.21-1.11.2-1.62-.05l-4.97-2.37c-.32.36-.53.82-.53,1.32v5.11c0,.76.42,1.45,1.11,1.79Z"/></g><path d="m19.89,6.64l-4.53-2.27c-.54-.27-1.17-.28-1.72-.03l-9.47,4.3c-.25.12-.46.29-.64.5l4.97,2.37c.51.24,1.1.26,1.62.05l10.5-4.29c-.19-.26-.42-.48-.72-.63Z"/></svg>