<svg xmlns="http://www.w3.org/2000/svg" width="24" height="24" viewBox="0 0 24 24"><g opacity="0.4"><path d="m20.5,20H5c-.55,0-1-.45-1-1V3.5c0-.28-.22-.5-.5-.5s-.5.22-.5.5v15.5c0,1.1.9,2,2,2h15.5c.28,0,.5-.22.5-.5s-.22-.5-.5-.5Z"/><path d="m9.5,13c-.28,0-.5.22-.5.5s.22.5.5.5h5c.28,0,.5-.22.5-.5s-.22-.5-.5-.5h-5Z"/><path d="m19,5.5c0-.28-.22-.5-.5-.5h-7c-.28,0-.5.22-.5.5s.22.5.5.5h7c.28,0,.5-.22.5-.5Z"/></g><path d="m6.5,10h5c.28,0,.5-.22.5-.5s-.22-.5-.5-.5h-5c-.28,0-.5.22-.5.5s.22.5.5.5Z"/><path d="m13.5,18h5c.28,0,.5-.22.5-.5s-.22-.5-.5-.5h-5c-.28,0-.5.22-.5.5s.22.5.5.5Z"/></svg>