<svg xmlns="http://www.w3.org/2000/svg" width="24" height="24" viewBox="0 0 24 24"><g opacity="0.4"><path d="m17.5,6h-.77l-1.9-2.28c-.38-.46-.94-.72-1.54-.72h-2.6c-.59,0-1.16.26-1.54.72l-1.9,2.28h-.77c-1.93,0-3.5,1.57-3.5,3.5v6c0,1.93,1.57,3.5,3.5,3.5h11c1.93,0,3.5-1.57,3.5-3.5v-6c0-1.93-1.57-3.5-3.5-3.5Zm-5.5,1c1.1,0,2,.9,2,2s-.9,2-2,2-2-.9-2-2,.9-2,2-2Zm3,9h-6c-.55,0-1-.45-1-1,0-1.66,1.34-3,3-3h2c1.66,0,3,1.34,3,3,0,.55-.45,1-1,1Z"/></g><path d="m9,16h6c.55,0,1-.45,1-1,0-1.66-1.34-3-3-3h-2c-1.66,0-3,1.34-3,3,0,.55.45,1,1,1Z"/><path d="M12 7A2 2 0 1 0 12 11 2 2 0 1 0 12 7z"/></svg>