<svg xmlns="http://www.w3.org/2000/svg" width="24" height="24" viewBox="0 0 24 24"><g opacity="0.4"><path d="m16.93,15.69c-.29.16-.59.31-.89.45l2.01,4.56c.08.19.27.3.46.3.07,0,.14-.01.2-.04.25-.11.37-.41.26-.66l-2.03-4.61Z"/><path d="m13.62,8.16c-.2.28-.48.51-.8.66l2.82,6.4c.31-.14.6-.29.89-.46l-2.91-6.61Z"/></g><path d="m18.36,13.36c-.86.86-1.86,1.52-2.98,1.98-2.15.87-4.62.87-6.77,0-.08-.03-.16-.08-.25-.12l2.82-6.4c.25.11.52.18.82.18,1.1,0,2-.9,2-2,0-.93-.65-1.71-1.51-1.93,0-.02.01-.04.01-.07v-1.5c0-.28-.22-.5-.5-.5s-.5.22-.5.5v1.5s.01.04.01.07c-.87.22-1.51,1-1.51,1.93,0,.44.14.84.38,1.17,0,0,0,0,0,0l-2.9,6.6c-.66-.39-1.28-.85-1.84-1.41-.2-.2-.51-.2-.71,0s-.2.51,0,.71c.64.64,1.36,1.18,2.14,1.62l-2.03,4.61c-.11.25,0,.55.26.66.07.03.13.04.2.04.19,0,.38-.11.46-.3l2.01-4.56c.09.04.18.09.27.13,1.2.49,2.46.73,3.76.73s2.57-.25,3.76-.73c1.24-.5,2.35-1.24,3.31-2.2.2-.2.2-.51,0-.71s-.51-.2-.71,0Z"/></svg>