<svg xmlns="http://www.w3.org/2000/svg" width="24" height="24" viewBox="0 0 24 24"><g opacity="0.4"><path d="m12.86,6.48c.08-.26,0-.3-.16-.08l-3.41,4.69c-.16.22-.07.4.21.4h2c.28,0,.44.22.36.48l-.73,2.54c-.08.26,0,.3.16.08l3.41-4.69c.16-.22.07-.4-.21-.4h-2c-.28,0-.44-.22-.36-.48l.73-2.54Z"/><path d="m6,20c.55,0,1-.45,1-1v-2h-2c-.37,0-.7-.11-1-.28v2.28c0,.55.45,1,1,1h1Z"/><path d="m19,20c.55,0,1-.45,1-1v-2.28c-.3.17-.63.28-1,.28h-2v2c0,.55.45,1,1,1h1Z"/></g><path d="m19.95,10.25l-.9-3.59c-.39-1.56-1.79-2.65-3.4-2.65h-7.31c-1.61,0-3.01,1.09-3.4,2.65l-.9,3.59c-.64.35-1.05,1.02-1.05,1.75v3c0,1.1.9,2,2,2h14c1.1,0,2-.9,2-2v-3c0-.73-.41-1.41-1.05-1.75Zm-13.45,4.75c-.83,0-1.5-.67-1.5-1.5s.67-1.5,1.5-1.5,1.5.67,1.5,1.5-.67,1.5-1.5,1.5Zm4.5,0l1-3.5h-3l4-5.5-1,3.5h3l-4,5.5Zm6.5,0c-.83,0-1.5-.67-1.5-1.5s.67-1.5,1.5-1.5,1.5.67,1.5,1.5-.67,1.5-1.5,1.5Z"/></svg>