<svg xmlns="http://www.w3.org/2000/svg" width="24" height="24" viewBox="0 0 24 24"><g opacity="0.4"><path d="m20.5,20H5c-.55,0-1-.45-1-1V3.5c0-.28-.22-.5-.5-.5s-.5.22-.5.5v15.5c0,1.1.9,2,2,2h15.5c.28,0,.5-.22.5-.5s-.22-.5-.5-.5Z"/></g><path d="m21.25,6.57c-.24-.14-.54-.06-.68.19l-1.67,2.91c-.46.81-1.25,1.32-2.18,1.41-.93.09-1.8-.27-2.4-.97-.8-.93-1.96-1.42-3.18-1.32-1.22.09-2.3.74-2.95,1.78l-2.61,4.17c-.15.23-.08.54.16.69.08.05.17.08.26.08.17,0,.33-.08.42-.23l2.61-4.17c.48-.77,1.27-1.25,2.18-1.32.91-.06,1.76.29,2.35.98.82.96,2,1.43,3.26,1.32,1.25-.12,2.33-.81,2.95-1.91l1.67-2.91c.14-.24.05-.55-.19-.68Z"/></svg>