<svg xmlns="http://www.w3.org/2000/svg" width="24" height="24" viewBox="0 0 24 24"><g opacity="0.4"><path d="m13.5,9h-7c-1.93,0-3.5,1.57-3.5,3.5v4c0,1.93,1.57,3.5,3.5,3.5h7c1.93,0,3.5-1.57,3.5-3.5v-4c0-1.93-1.57-3.5-3.5-3.5Zm-2,8h-5c-.28,0-.5-.22-.5-.5s.22-.5.5-.5h5c.28,0,.5.22.5.5s-.22.5-.5.5Z"/></g><path d="m6.5,16c-.28,0-.5.22-.5.5s.22.5.5.5h5c.28,0,.5-.22.5-.5s-.22-.5-.5-.5h-5Z"/><path d="m5.5,5h5.22l2.4,4h1.17l-2.85-4.76c-.09-.15-.25-.24-.43-.24h-5.5c-.28,0-.5.22-.5.5s.22.5.5.5Z"/><path d="m20.28,11.36l-3.28,1.64v3l3.28,1.64c.33.17.72-.08.72-.45v-5.38c0-.37-.39-.61-.72-.45Z"/></svg>