<svg xmlns="http://www.w3.org/2000/svg" width="24" height="24" viewBox="0 0 24 24"><g opacity="0.4"><path d="M6 7A2 2 0 1 0 6 11 2 2 0 1 0 6 7z"/><path d="M18 7A2 2 0 1 0 18 11 2 2 0 1 0 18 7z"/><path d="m7,16c0-1.16.5-2.19,1.29-2.92-.55-.65-1.36-1.08-2.29-1.08-1.66,0-3,1.34-3,3,0,.55.45,1,1,1h3Z"/><path d="m18,12c-.92,0-1.74.42-2.29,1.08.79.73,1.29,1.77,1.29,2.92h3c.55,0,1-.45,1-1,0-1.66-1.34-3-3-3Z"/></g><path d="M12 5A3 3 0 1 0 12 11 3 3 0 1 0 12 5z"/><path d="m7,16c0,.55.45,1,1,1h8c.55,0,1-.45,1-1,0-2.21-1.79-4-4-4h-2c-2.21,0-4,1.79-4,4Z"/></svg>