<svg xmlns="http://www.w3.org/2000/svg" width="24" height="24" viewBox="0 0 24 24"><g opacity="0.4"><path d="m15.06,3h-6.11c-.5,0-.93.38-.99.88l-.72,6.03.17.12c1.38.99,2.97.84,4.25-.39,1.48-1.41,3.34-1.67,4.99-.78l-.6-4.97c-.06-.5-.49-.88-.99-.88Z"/></g><path d="m11.65,9.64c-1.29,1.23-2.88,1.38-4.25.39l-.17-.12-.23,1.95c0,2.67,1.99,4.84,4.52,5.09l-.03,3.05h-1.97c-.28,0-.5.22-.5.5s.22.5.5.5h2.96s0,0,0,0h2c.28,0,.5-.22.5-.5s-.22-.5-.5-.5h-1.99l.03-3.05c2.51-.27,4.48-2.44,4.48-5.15l-.35-2.94c-1.65-.89-3.51-.63-4.99.78Z"/></svg>