<svg xmlns="http://www.w3.org/2000/svg" width="24" height="24" viewBox="0 0 24 24"><g opacity="0.4"><path d="m17.5,6h-.77l-1.9-2.28c-.38-.46-.94-.72-1.54-.72h-2.6c-.59,0-1.16.26-1.54.72l-1.9,2.28h-.77c-1.93,0-3.5,1.57-3.5,3.5v6c0,1.93,1.57,3.5,3.5,3.5h11c1.93,0,3.5-1.57,3.5-3.5v-6c0-1.93-1.57-3.5-3.5-3.5Zm-1.82,7.55c-.2.47-.49.9-.86,1.27-.37.37-.8.66-1.27.86-.49.21-1.01.32-1.55.32s-1.05-.11-1.55-.32c-.47-.2-.9-.5-1.27-.86,0,0,0,0,0,0l-.76.76c-.16.16-.43.05-.43-.18v-2.15c0-.14.11-.25.25-.25h2.15c.22,0,.33.27.18.43l-.68.68c.28.28.6.5.96.65.73.32,1.56.32,2.3,0,.36-.15.68-.37.96-.65.28-.28.5-.6.65-.96.11-.25.41-.37.66-.26.25.11.37.4.26.66Zm.32-2.8c0,.14-.11.25-.25.25h-2.15c-.22,0-.33-.27-.18-.43l.68-.68c-.28-.28-.6-.5-.96-.65-.73-.32-1.56-.32-2.3,0-.36.15-.68.37-.96.65-.28.28-.5.6-.65.96-.08.19-.27.3-.46.3-.07,0-.13-.01-.2-.04-.25-.11-.37-.4-.26-.66.2-.47.49-.9.86-1.27.37-.37.8-.66,1.27-.86.99-.43,2.1-.43,3.09,0,.47.2.9.5,1.27.86,0,0,0,0,0,0l.76-.76c.16-.16.43-.05.43.18v2.15Z"/></g><path d="m8.43,15.57l.76-.76s0,0,0,0c.37.37.8.66,1.27.86.49.21,1.01.32,1.55.32s1.05-.11,1.55-.32c.47-.2.9-.5,1.27-.86.37-.37.66-.8.86-1.27.11-.25,0-.55-.26-.66-.25-.11-.55,0-.66.26-.15.36-.37.68-.65.96-.28.28-.6.5-.96.65-.73.32-1.56.32-2.3,0-.36-.15-.68-.37-.96-.65l.68-.68c.16-.16.05-.43-.18-.43h-2.15c-.14,0-.25.11-.25.25v2.15c0,.22.27.33.43.18Z"/><path d="m8.58,11.11c.06.03.13.04.2.04.19,0,.38-.11.46-.3.15-.36.37-.68.65-.96.28-.28.6-.5.96-.65.73-.32,1.56-.32,2.3,0,.36.15.68.37.96.65l-.68.68c-.16.16-.05.43.18.43h2.15c.14,0,.25-.11.25-.25v-2.15c0-.22-.27-.33-.43-.18l-.76.76s0,0,0,0c-.37-.37-.8-.66-1.27-.86-.99-.43-2.1-.43-3.09,0-.47.2-.9.5-1.27.86-.37.37-.66.8-.86,1.27-.11.25,0,.55.26.66Z"/></svg>