<svg xmlns="http://www.w3.org/2000/svg" width="24" height="24" viewBox="0 0 24 24"><g opacity="0.4"><path d="m16.5,3H7c-1.1,0-2,.9-2,2v14c0,1.1.9,2,2,2h9.5c1.93,0,3.5-1.57,3.5-3.5V6.5c0-1.93-1.57-3.5-3.5-3.5Zm-4,4c1.43,0,2.5,1.07,2.5,2.5s-1.07,2.5-2.5,2.5-2.5-1.07-2.5-2.5,1.07-2.5,2.5-2.5Zm3.5,10h-7c-.55,0-1-.45-1-1,0-1.66,1.34-3,3-3h3c1.66,0,3,1.34,3,3,0,.55-.45,1-1,1Z"/></g><path d="M12.5 7A2.5 2.5 0 1 0 12.5 12 2.5 2.5 0 1 0 12.5 7z"/><path d="m9,17h7c.55,0,1-.45,1-1,0-1.66-1.34-3-3-3h-3c-1.66,0-3,1.34-3,3,0,.55.45,1,1,1Z"/><path d="m5,16h-1.5c-.28,0-.5.22-.5.5s.22.5.5.5h1.5v-1Z"/><path d="m3.5,14h1.5v-1h-1.5c-.28,0-.5.22-.5.5s.22.5.5.5Z"/><path d="m3.5,11h1.5v-1h-1.5c-.28,0-.5.22-.5.5s.22.5.5.5Z"/><path d="m3.5,8h1.5v-1h-1.5c-.28,0-.5.22-.5.5s.22.5.5.5Z"/></svg>