<svg xmlns="http://www.w3.org/2000/svg" width="24" height="24" viewBox="0 0 24 24"><g opacity="0.4"><path d="m12,3C7.12,3,3,7.12,3,12s4.12,9,9,9,9-4.12,9-9S16.88,3,12,3Zm-2.12,11.12c1.12,1.12,3.12,1.12,4.24,0,.2-.2.51-.2.71,0s.2.51,0,.71c-.75.75-1.75,1.16-2.83,1.16s-2.08-.41-2.83-1.16-1.16-1.75-1.16-2.83.41-2.08,1.16-2.83,1.75-1.16,2.83-1.16,2.08.41,2.83,1.16c.2.2.2.51,0,.71s-.51.2-.71,0c-1.12-1.12-3.12-1.12-4.24,0-.56.56-.87,1.31-.87,2.12s.31,1.56.87,2.12Z"/></g><path d="m12,15.99c1.08,0,2.08-.41,2.83-1.16.2-.2.2-.51,0-.71s-.51-.2-.71,0c-1.12,1.12-3.12,1.12-4.24,0-.56-.56-.87-1.31-.87-2.12s.31-1.56.87-2.12c1.12-1.12,3.12-1.12,4.24,0,.2.2.51.2.71,0s.2-.51,0-.71c-.75-.75-1.75-1.16-2.83-1.16s-2.08.41-2.83,1.16-1.16,1.75-1.16,2.83.41,2.08,1.16,2.83,1.75,1.16,2.83,1.16Z"/></svg>