<svg xmlns="http://www.w3.org/2000/svg" width="24" height="24" viewBox="0 0 24 24"><g opacity="0.4"><path d="m19,10h-.27c.17-.29.27-.64.27-1,0-1.1-.9-2-2-2h-.27c.17-.29.27-.64.27-1,0-1.1-.9-2-2-2h-2.02c-.85,0-1.75-.3-2.61-.86l-.32-.21-1.33.59c-1.04.46-1.71,1.42-1.72,2.48,0,.36.1.71.27,1h-.27c-1.1,0-2,.9-2,2,0,.36.1.71.27,1h-.27c-1.1,0-2,.9-2,2s.9,2,2,2h14c1.1,0,2-.9,2-2s-.9-2-2-2Z"/></g><path d="m8.51,21h6.98c1.11,0,2.1-.75,2.4-1.81l1.49-5.23c-.13.02-.26.04-.39.04H5c-.13,0-.26-.01-.39-.04l1.49,5.23c.3,1.07,1.29,1.81,2.4,1.81Z"/></svg>