<svg xmlns="http://www.w3.org/2000/svg" width="24" height="24" viewBox="0 0 24 24"><g opacity="0.4"><path d="m12,11.29l-2.71-2.71c.44-.58.71-1.3.71-2.09,0-1.93-1.57-3.5-3.5-3.5s-3.5,1.57-3.5,3.5,1.57,3.5,3.5,3.5c.78,0,1.5-.27,2.09-.71l2.71,2.71.71-.71Zm-5.5-2.79c-1.1,0-2-.9-2-2s.9-2,2-2,2,.9,2,2-.9,2-2,2Z"/><path d="m12.71,12l-.71.71,7.15,7.15c.1.1.23.15.35.15s.26-.05.35-.15c.2-.2.2-.51,0-.71l-7.15-7.15Z"/></g><path d="m19.15,4.15l-10.56,10.56c-.58-.44-1.3-.71-2.09-.71-1.93,0-3.5,1.57-3.5,3.5s1.57,3.5,3.5,3.5,3.5-1.57,3.5-3.5c0-.78-.27-1.5-.71-2.09l10.56-10.56c.2-.2.2-.51,0-.71s-.51-.2-.71,0Zm-12.65,15.35c-1.1,0-2-.9-2-2s.9-2,2-2,2,.9,2,2-.9,2-2,2Z"/></svg>