<svg xmlns="http://www.w3.org/2000/svg" width="24" height="24" viewBox="0 0 24 24"><g opacity="0.4"><path d="m16.5,3H7.5c-1.93,0-3.5,1.57-3.5,3.5v11c0,1.93,1.57,3.5,3.5,3.5h9c1.93,0,3.5-1.57,3.5-3.5V6.5c0-1.93-1.57-3.5-3.5-3.5Zm-8.5,15c-.55,0-1-.45-1-1s.45-1,1-1,1,.45,1,1-.45,1-1,1Zm0-4c-.55,0-1-.45-1-1s.45-1,1-1,1,.45,1,1-.45,1-1,1Zm4,4c-.55,0-1-.45-1-1s.45-1,1-1,1,.45,1,1-.45,1-1,1Zm0-4c-.55,0-1-.45-1-1s.45-1,1-1,1,.45,1,1-.45,1-1,1Zm5,3c0,.55-.45,1-1,1s-1-.45-1-1v-4c0-.55.45-1,1-1s1,.45,1,1v4Zm0-8.5c0,.83-.67,1.5-1.5,1.5h-7c-.83,0-1.5-.67-1.5-1.5v-1c0-.83.67-1.5,1.5-1.5h7c.83,0,1.5.67,1.5,1.5v1Z"/></g><path d="M8 12A1 1 0 1 0 8 14 1 1 0 1 0 8 12z"/><path d="M8 16A1 1 0 1 0 8 18 1 1 0 1 0 8 16z"/><path d="M12 16A1 1 0 1 0 12 18 1 1 0 1 0 12 16z"/><path d="m15,13v4c0,.55.45,1,1,1s1-.45,1-1v-4c0-.55-.45-1-1-1s-1,.45-1,1Z"/><path d="M12 12A1 1 0 1 0 12 14 1 1 0 1 0 12 12z"/><rect x="7" y="6" width="10" height="4" rx="1.5" ry="1.5"/></svg>