<svg xmlns="http://www.w3.org/2000/svg" width="24" height="24" viewBox="0 0 24 24"><g opacity="0.4"><path d="m6.5,15h2.5v1h6v-1h2.5c1.38,0,2.5-1.12,2.5-2.5v-7c0-1.38-1.12-2.5-2.5-2.5H6.5c-1.38,0-2.5,1.12-2.5,2.5v7c0,1.38,1.12,2.5,2.5,2.5Zm-1.5-9.5c0-.83.67-1.5,1.5-1.5h11c.83,0,1.5.67,1.5,1.5v7c0,.83-.67,1.5-1.5,1.5H6.5c-.83,0-1.5-.67-1.5-1.5v-7Z"/><path d="M18 17.5A1 1 0 1 0 18 19.5 1 1 0 1 0 18 17.5z"/><path d="m14.5,19c.28,0,.5-.22.5-.5s-.22-.5-.5-.5H5.5c-.28,0-.5.22-.5.5s.22.5.5.5h9Z"/></g><path class="st0" d="M19.5,16h-15C3.7,16,3,16.7,3,17.5v2C3,20.3,3.7,21,4.5,21h15c0.8,0,1.5-0.7,1.5-1.5v-2
	C21,16.7,20.3,16,19.5,16z M14.5,19h-9C5.2,19,5,18.8,5,18.5S5.2,18,5.5,18h9c0.3,0,0.5,0.2,0.5,0.5S14.8,19,14.5,19z M18,19.5
	c-0.5,0-1-0.5-1-1s0.5-1,1-1s1,0.5,1,1S18.5,19.5,18,19.5z"/></svg>