<svg xmlns="http://www.w3.org/2000/svg" width="24" height="24" viewBox="0 0 24 24"><g opacity="0.4"><path d="m11.5,12h-2c-1.38,0-2.5,1.12-2.5,2.5v.5h4.5v-3Z"/><path d="m17,14.5c0-1.38-1.12-2.5-2.5-2.5h-2v3h4.5v-.5Z"/><path d="m20.36,3.47L3.36,8.57c-.26.08-.42.36-.33.62.06.22.26.36.48.36.05,0,.1,0,.14-.02l7.86-2.36v3.83h1v-4.13l8.14-2.44c.26-.08.42-.36.33-.62-.08-.27-.36-.41-.62-.34Z"/></g><path d="m14.5,11h-5c-1.93,0-3.5,1.57-3.5,3.5v3c0,1.93,1.57,3.5,3.5,3.5h5c1.93,0,3.5-1.57,3.5-3.5v-3c0-1.93-1.57-3.5-3.5-3.5Zm-7.5,3.5c0-1.38,1.12-2.5,2.5-2.5h2v3h-4.5v-.5Zm10,.5h-4.5v-3h2c1.38,0,2.5,1.12,2.5,2.5v.5Z"/></svg>