<svg xmlns="http://www.w3.org/2000/svg" width="24" height="24" viewBox="0 0 24 24"><g opacity="0.4"><path d="m4.5,4c-.83,0-1.5.67-1.5,1.5v13c0,.83.67,1.5,1.5,1.5s1.5-.67,1.5-1.5V5.5c0-.83-.67-1.5-1.5-1.5Z"/><path d="m14.5,4c-.83,0-1.5.67-1.5,1.5v13c0,.83.67,1.5,1.5,1.5s1.5-.67,1.5-1.5V5.5c0-.83-.67-1.5-1.5-1.5Z"/></g><path d="m19.5,4c-.83,0-1.5.67-1.5,1.5v13c0,.83.67,1.5,1.5,1.5s1.5-.67,1.5-1.5V5.5c0-.83-.67-1.5-1.5-1.5Z"/><path d="m9.5,4c-.83,0-1.5.67-1.5,1.5v13c0,.83.67,1.5,1.5,1.5s1.5-.67,1.5-1.5V5.5c0-.83-.67-1.5-1.5-1.5Z"/></svg>