<svg xmlns="http://www.w3.org/2000/svg" width="24" height="24" viewBox="0 0 24 24"><g opacity="0.4"><path d="m20.5,20H5c-.55,0-1-.45-1-1V3.5c0-.28-.22-.5-.5-.5s-.5.22-.5.5v15.5c0,1.1.9,2,2,2h15.5c.28,0,.5-.22.5-.5s-.22-.5-.5-.5Z"/></g><path d="m7.37,11.48c.27.07.54-.08.61-.35l1.11-4.05c.17-.63.75-1.08,1.41-1.08s1.24.44,1.41,1.08l2.21,8.1c.29,1.07,1.27,1.82,2.38,1.82s2.09-.75,2.38-1.82l1.11-4.05c.07-.27-.08-.54-.35-.61-.27-.07-.54.09-.61.35l-1.11,4.05c-.17.63-.75,1.08-1.41,1.08s-1.24-.44-1.41-1.08l-2.21-8.1c-.29-1.07-1.27-1.82-2.38-1.82s-2.09.75-2.38,1.82l-1.11,4.05c-.07.27.08.54.35.61Z"/></svg>