<svg xmlns="http://www.w3.org/2000/svg" width="24" height="24" viewBox="0 0 24 24"><g opacity="0.4"><path d="m3,11.15v6.85c0,1.1.9,2,2,2h14c1.1,0,2-.9,2-2v-8H3.38c-.24.33-.38.73-.38,1.15Zm14,2.85c1.1,0,2,.9,2,2s-.9,2-2,2-2-.9-2-2,.9-2,2-2Zm-5.5-2c.83,0,1.5.67,1.5,1.5s-.67,1.5-1.5,1.5-1.5-.67-1.5-1.5.67-1.5,1.5-1.5Zm-5,3c.83,0,1.5.67,1.5,1.5s-.67,1.5-1.5,1.5-1.5-.67-1.5-1.5.67-1.5,1.5-1.5Z"/></g><path d="m15.95,3.36c-.59-.25-1.25-.21-1.8.11L3.99,9.42c-.25.15-.45.35-.61.58h17.62c-.24-4.09-3.39-5.94-5.05-6.64Z"/><path d="M11.5 12A1.5 1.5 0 1 0 11.5 15 1.5 1.5 0 1 0 11.5 12z"/><path d="M6.5 15A1.5 1.5 0 1 0 6.5 18 1.5 1.5 0 1 0 6.5 15z"/><path d="M17 14A2 2 0 1 0 17 18 2 2 0 1 0 17 14z"/></svg>