<svg xmlns="http://www.w3.org/2000/svg" width="24" height="24" viewBox="0 0 24 24"><g opacity="0.4"><path d="m16.5,5h-3.5v3.67l.9,1.2c.06.09.1.19.1.3v2.33c0,.28-.22.5-.5.5h-2c-.28,0-.5-.22-.5-.5v-2.33c0-.11.04-.21.1-.3l.9-1.2v-3.67H3.5c-.28,0-.5.22-.5.5v10c0,1.93,1.57,3.5,3.5,3.5h7c1.93,0,3.5-1.57,3.5-3.5V5.5c0-.28-.22-.5-.5-.5Z"/></g><path d="m11.5,13h2c.28,0,.5-.22.5-.5v-2.33c0-.11-.04-.21-.1-.3l-.9-1.2v-3.67h-1v3.67l-.9,1.2c-.06.09-.1.19-.1.3v2.33c0,.28.22.5.5.5Z"/><path d="m17,7v1c1.65,0,3,1.35,3,3s-1.35,3-3,3v1c2.21,0,4-1.79,4-4s-1.79-4-4-4Z"/></svg>