<svg xmlns="http://www.w3.org/2000/svg" width="24" height="24" viewBox="0 0 24 24"><g opacity="0.4"><path d="m18.5,3h-7c-1.38,0-2.5,1.12-2.5,2.5v7c0,1.38,1.12,2.5,2.5,2.5h7c1.38,0,2.5-1.12,2.5-2.5v-7c0-1.38-1.12-2.5-2.5-2.5Zm-1,6.5h-5c-.28,0-.5-.22-.5-.5s.22-.5.5-.5h5c.28,0,.5.22.5.5s-.22.5-.5.5Z"/></g><path d="m5.5,21h7c1.38,0,2.5-1.12,2.5-2.5v-3.5h-3.5c-1.38,0-2.5-1.12-2.5-2.5v-3.5h-3.5c-1.38,0-2.5,1.12-2.5,2.5v7c0,1.38,1.12,2.5,2.5,2.5Z"/><path d="m17.5,9.5c.28,0,.5-.22.5-.5s-.22-.5-.5-.5h-5c-.28,0-.5.22-.5.5s.22.5.5.5h5Z"/></svg>