<svg xmlns="http://www.w3.org/2000/svg" width="24" height="24" viewBox="0 0 24 24"><g opacity="0.4"><path d="m17,5H7c0,2.21-1.79,4-4,4v6c2.21,0,4,1.79,4,4h10c0-2.21,1.79-4,4-4v-6c-2.21,0-4-1.79-4-4Zm-5,11c-2.21,0-4-1.79-4-4s1.79-4,4-4,4,1.79,4,4-1.79,4-4,4Z"/></g><path d="M12 8A4 4 0 1 0 12 16 4 4 0 1 0 12 8z"/><path d="m19,5h-2c0,2.21,1.79,4,4,4v-2c0-1.1-.9-2-2-2Z"/><path d="m17,19h2c1.1,0,2-.9,2-2v-2c-2.21,0-4,1.79-4,4Z"/><path d="m7,5h-2c-1.1,0-2,.9-2,2v2c2.21,0,4-1.79,4-4Z"/><path d="m5,19h2c0-2.21-1.79-4-4-4v2c0,1.1.9,2,2,2Z"/></svg>