<svg xmlns="http://www.w3.org/2000/svg" width="24" height="24" viewBox="0 0 24 24"><g opacity="0.4"><path d="m12,16c-2.17,0-4-1.83-4-4,0-.91.33-1.75.87-2.43l-3.4-3.4c-1.42.44-2.47,1.76-2.47,3.33v6c0,1.93,1.57,3.5,3.5,3.5h11c.25,0,.49-.03.72-.08l-3.79-3.79c-.68.53-1.52.87-2.43.87Z"/><path d="m17.5,6h-.77l-1.9-2.28c-.38-.46-.94-.72-1.54-.72h-2.6c-.59,0-1.16.26-1.54.72l-1.9,2.28h-.56l2.87,2.87c.68-.53,1.52-.87,2.43-.87,2.17,0,4,1.83,4,4,0,.91-.33,1.75-.87,2.43l4.1,4.1c1.05-.6,1.77-1.73,1.77-3.02v-6c0-1.93-1.57-3.5-3.5-3.5Z"/><path d="m15,12c0-1.63-1.37-3-3-3-.64,0-1.23.22-1.72.57l4.15,4.15c.35-.49.57-1.09.57-1.72Z"/><path d="m9,12c0,1.63,1.37,3,3,3,.64,0,1.23-.22,1.72-.57l-4.15-4.15c-.35.49-.57,1.09-.57,1.72Z"/></g><path d="m3.85,3.15c-.2-.2-.51-.2-.71,0s-.2.51,0,.71l17,17c.1.1.23.15.35.15s.26-.05.35-.15c.2-.2.2-.51,0-.71L3.85,3.15Z"/></svg>