<svg xmlns="http://www.w3.org/2000/svg" width="24" height="24" viewBox="0 0 24 24"><g opacity="0.4"><path d="m8.84,12.52c-.33-.62-1.35-.62-1.68,0l-3.71,7.01c-.17.31-.16.68.03.98.18.3.5.48.86.48h8.17c.18,0,.34-.09.43-.24.09-.15.1-.34.01-.49l-4.1-7.75Z"/><path d="m20.5,7c.28,0,.5-.22.5-.5s-.22-.5-.5-.5c-2.25,0-3.53-2.68-3.55-2.71-.08-.18-.26-.29-.45-.29h0c-.2,0-.37.12-.45.3-.01.03-1.24,2.7-3.54,2.7-.28,0-.5.22-.5.5s.22.5.5.5c1.61,0,2.77-.94,3.5-1.82v1.2c-.23.45-1.43,2.62-3.5,2.62-.28,0-.5.22-.5.5s.22.5.5.5c1.61,0,2.77-.94,3.5-1.82v3.95c.3.13.56.34.72.63l.28.49v-5.1c.74.88,1.91,1.84,3.5,1.84.28,0,.5-.22.5-.5s-.22-.5-.5-.5c-2.02,0-3.26-2.16-3.5-2.62v-1.22c.74.88,1.91,1.84,3.5,1.84Z"/></g><path d="M6 3A3 3 0 1 0 6 9 3 3 0 1 0 6 3z"/><path d="m8,12.05c.34,0,.67.16.84.47l4.1,7.75c.08.15.08.34-.01.49-.09.15-.25.24-.43.24h7.15c.36,0,.68-.19.86-.5.18-.31.18-.68,0-.99l-3.79-6.75c-.27-.47-.77-.76-1.31-.76h-7.42v.05Z"/></svg>