<svg xmlns="http://www.w3.org/2000/svg" width="24" height="24" viewBox="0 0 24 24"><g opacity="0.4"><path d="m4,17.5c0,1.93,1.57,3.5,3.5,3.5h9c1.93,0,3.5-1.57,3.5-3.5v-8.5H4v8.5Zm5.15-4.65c-.2-.2-.2-.51,0-.71s.51-.2.71,0l2.15,2.15,2.15-2.15c.2-.2.51-.2.71,0s.2.51,0,.71l-2.15,2.15,2.15,2.15c.2.2.2.51,0,.71-.1.1-.23.15-.35.15s-.26-.05-.35-.15l-2.15-2.15-2.15,2.15c-.1.1-.23.15-.35.15s-.26-.05-.35-.15c-.2-.2-.2-.51,0-.71l2.15-2.15-2.15-2.15Z"/></g><path d="m16.5,5h-.5v-1.5c0-.28-.22-.5-.5-.5s-.5.22-.5.5v1.5h-6v-1.5c0-.28-.22-.5-.5-.5s-.5.22-.5.5v1.5h-.5c-1.93,0-3.5,1.57-3.5,3.5v.5h16v-.5c0-1.93-1.57-3.5-3.5-3.5Z"/><path d="m9.15,17.85c.1.1.23.15.35.15s.26-.05.35-.15l2.15-2.15,2.15,2.15c.1.1.23.15.35.15s.26-.05.35-.15c.2-.2.2-.51,0-.71l-2.15-2.15,2.15-2.15c.2-.2.2-.51,0-.71s-.51-.2-.71,0l-2.15,2.15-2.15-2.15c-.2-.2-.51-.2-.71,0s-.2.51,0,.71l2.15,2.15-2.15,2.15c-.2.2-.2.51,0,.71Z"/></svg>