<svg xmlns="http://www.w3.org/2000/svg" width="24" height="24" viewBox="0 0 24 24"><g opacity="0.4"><path d="m19.2,11.6c-.17-.04-.38-.17-.41-.4-.39-3.54-3.31-6.21-6.79-6.21-2.5,0-4.62,1.33-5.78,3.53.1,0,.19-.03.28-.03,2.82,0,5.16,2.13,5.45,4.95.03.27-.17.52-.45.55-.02,0-.03,0-.05,0-.25,0-.47-.19-.5-.45-.23-2.31-2.15-4.05-4.45-4.05-.83,0-1.61.23-2.28.63-1.06.73-1.84,1.85-2.11,3.09-.01.08-.04.15-.05.23-.04.23-.07.47-.07.71,0,2.67,2.12,4.83,4.72,4.83h11.61c2.02,0,3.67-1.68,3.67-3.75,0-1.74-1.15-3.24-2.8-3.65Z"/></g><path d="m10.95,13.55c.03.26.24.45.5.45.02,0,.03,0,.05,0,.28-.03.48-.27.45-.55-.28-2.82-2.62-4.95-5.45-4.95-.1,0-.19.02-.28.03-.15.28-.28.57-.4.88-.58.14-1.11.4-1.6.73.67-.4,1.45-.63,2.28-.63,2.31,0,4.22,1.74,4.45,4.05Z"/></svg>