<svg xmlns="http://www.w3.org/2000/svg" width="24" height="24" viewBox="0 0 24 24"><g opacity="0.4"><path d="m4,7.5v9c0,1.93,1.57,3.5,3.5,3.5h6.5V4h-6.5c-1.93,0-3.5,1.57-3.5,3.5Zm4.15,1.85c-.2-.2-.2-.51,0-.71s.51-.2.71,0l3,3c.2.2.2.51,0,.71l-3,3c-.1.1-.23.15-.35.15s-.26-.05-.35-.15c-.2-.2-.2-.51,0-.71l2.65-2.65-2.65-2.65Z"/></g><path d="m16.5,4h-2.5v16h2.5c1.93,0,3.5-1.57,3.5-3.5V7.5c0-1.93-1.57-3.5-3.5-3.5Z"/><path d="m8.15,15.35c.1.1.23.15.35.15s.26-.05.35-.15l3-3c.2-.2.2-.51,0-.71l-3-3c-.2-.2-.51-.2-.71,0s-.2.51,0,.71l2.65,2.65-2.65,2.65c-.2.2-.2.51,0,.71Z"/></svg>