<svg xmlns="http://www.w3.org/2000/svg" width="24" height="24" viewBox="0 0 24 24"><g opacity="0.4"><path d="m19.34,11.75c-.38-.48-.95-.75-1.56-.75H7c-1.1,0-2,.9-2,2v2c0,1.1.9,2,2,2h10.78c.61,0,1.18-.27,1.56-.75l1.55-1.94c.15-.18.15-.44,0-.62l-1.55-1.94Z"/><path d="m17,9c1.1,0,2-.9,2-2v-2c0-1.1-.9-2-2-2H6.22c-.61,0-1.18.27-1.56.75l-1.55,1.94c-.15.18-.15.44,0,.62l1.55,1.94c.38.48.95.75,1.56.75h10.78Z"/></g><path d="m12,21c.28,0,.5-.22.5-.5v-3.5h-1v3.5c0,.28.22.5.5.5Z"/><path d="M11.5 9H12.5V11H11.5z"/></svg>