<svg xmlns="http://www.w3.org/2000/svg" width="24" height="24" viewBox="0 0 24 24"><g opacity="0.4"><path d="m17,10H7l-2.42,8.45c-.37,1.28.59,2.55,1.92,2.55h2.5v-7.5c0-.28.22-.5.5-.5s.5.22.5.5v7.5h4v-7.5c0-.28.22-.5.5-.5s.5.22.5.5v7.5h2.5c1.33,0,2.29-1.27,1.92-2.55l-2.42-8.45Z"/></g><path d="m7,10h10l.81-3.69c.26-1.03-.1-2.07-.94-2.72s-1.93-.74-2.87-.24l-2.01,1.08-2.01-1.08c-.93-.5-2.03-.41-2.87.24-.84.65-1.2,1.69-.94,2.72l.81,3.69Z"/><path d="m9,13.5v7.5h1v-7.5c0-.28-.22-.5-.5-.5s-.5.22-.5.5Z"/><path d="m14,13.5v7.5h1v-7.5c0-.28-.22-.5-.5-.5s-.5.22-.5.5Z"/></svg>