<svg xmlns="http://www.w3.org/2000/svg" width="24" height="24" viewBox="0 0 24 24"><g opacity="0.4"><path d="m13.5,3h-6c-1.38,0-2.5,1.12-2.5,2.5v14.5h11V5.5c0-1.38-1.12-2.5-2.5-2.5Zm-.5,10c-.55,0-1-.45-1-1s.45-1,1-1,1,.45,1,1-.45,1-1,1Z"/></g><path d="m20.5,20h-1.5V5.5c0-1.38-1.12-2.5-2.5-2.5h-3c.15,0,.3.02.44.04.09.02.18.04.27.07.03.01.07.02.1.03.98.34,1.69,1.26,1.69,2.35v14.5H3.5c-.28,0-.5.22-.5.5s.22.5.5.5h17c.28,0,.5-.22.5-.5s-.22-.5-.5-.5Z"/><path d="M13 11A1 1 0 1 0 13 13 1 1 0 1 0 13 11z"/></svg>