<svg xmlns="http://www.w3.org/2000/svg" width="24" height="24" viewBox="0 0 24 24"><g opacity="0.4"><path d="m17.5,3H6.5c-1.93,0-3.5,1.57-3.5,3.5v11c0,1.93,1.57,3.5,3.5,3.5h11c1.93,0,3.5-1.57,3.5-3.5V6.5c0-1.93-1.57-3.5-3.5-3.5Zm-9.5,14.5c-.83,0-1.5-.67-1.5-1.5s.67-1.5,1.5-1.5,1.5.67,1.5,1.5-.67,1.5-1.5,1.5Zm0-8c-.83,0-1.5-.67-1.5-1.5s.67-1.5,1.5-1.5,1.5.67,1.5,1.5-.67,1.5-1.5,1.5Zm8,8c-.83,0-1.5-.67-1.5-1.5s.67-1.5,1.5-1.5,1.5.67,1.5,1.5-.67,1.5-1.5,1.5Zm0-8c-.83,0-1.5-.67-1.5-1.5s.67-1.5,1.5-1.5,1.5.67,1.5,1.5-.67,1.5-1.5,1.5Z"/></g><path d="M16 6.5A1.5 1.5 0 1 0 16 9.5 1.5 1.5 0 1 0 16 6.5z"/><path d="M16 14.5A1.5 1.5 0 1 0 16 17.5 1.5 1.5 0 1 0 16 14.5z"/><path d="M8 14.5A1.5 1.5 0 1 0 8 17.5 1.5 1.5 0 1 0 8 14.5z"/><path d="M8 6.5A1.5 1.5 0 1 0 8 9.5 1.5 1.5 0 1 0 8 6.5z"/></svg>