<svg xmlns="http://www.w3.org/2000/svg" width="24" height="24" viewBox="0 0 24 24"><g opacity="0.4"><path d="m20.29,6.15c-.23-.92-.5-1.64-.81-2.16-.39-.66-.84-.99-1.35-.99-.66,0-2.38,1.64-3.37,3.38-1.44-.44-4.09-.44-5.53,0-.99-1.74-2.71-3.38-3.37-3.38-.51,0-.96.33-1.35.99-.31.51-.58,1.24-.81,2.16-.23.9-.4,1.94-.52,3.07-.18,1.72-.19,3.8-.19,4.2,0,4.89,3.2,7.58,9,7.58s9-2.69,9-7.58c0-.4,0-2.48-.19-4.2-.12-1.13-.29-2.17-.52-3.07Zm-14.74,3.21c-.16.19-.46.05-.43-.2.18-1.63.51-2.71.71-3.25.07-.19.31-.21.43-.06l1.19,1.58c.09.12.05.28-.07.36-.7.43-1.32.97-1.82,1.57Zm1.44,1.64c0-.55.45-1,1-1s1,.45,1,1-.45,1-1,1-1-.45-1-1Zm8.41,5.41c-.38.38-.88.59-1.41.59-.36,0-.7-.1-1-.28v.28c0,.55-.45,1-1,1s-1-.45-1-1v-.28c-.3.18-.64.28-1,.28-.53,0-1.04-.21-1.41-.59-.2-.2-.2-.51,0-.71s.51-.2.71,0c.38.38,1.04.38,1.41,0,.19-.19.29-.44.29-.71,0-.1-.03-.19-.06-.28-.85-.46-1.44-1.42-1.44-2.39,0-.74,1.12-1.33,2.5-1.33s2.5.6,2.5,1.33c0,.97-.59,1.93-1.44,2.39-.03.09-.06.18-.06.28,0,.27.1.52.29.71.38.38,1.04.38,1.41,0,.2-.2.51-.2.71,0s.2.51,0,.71Zm.59-4.41c-.55,0-1-.45-1-1s.45-1,1-1,1,.45,1,1-.45,1-1,1Zm2.44-2.64c-.51-.6-1.12-1.14-1.82-1.57-.12-.08-.16-.24-.07-.36l1.19-1.58c.12-.16.36-.13.43.06.2.54.53,1.63.71,3.25.03.24-.27.38-.43.2Z"/></g><path d="M8 10A1 1 0 1 0 8 12 1 1 0 1 0 8 10z"/><path d="m5.56,9.36c.51-.6,1.12-1.14,1.82-1.57.12-.08.16-.24.07-.36l-1.19-1.58c-.12-.16-.36-.13-.43.06-.2.54-.53,1.63-.71,3.25-.03.24.27.38.43.2Z"/><path d="m9.29,15.71c-.2-.2-.51-.2-.71,0s-.2.51,0,.71c.38.38.88.59,1.41.59.36,0,.7-.1,1-.28v.28c0,.55.45,1,1,1s1-.45,1-1v-.28c.3.18.64.28,1,.28.53,0,1.04-.21,1.41-.59.2-.2.2-.51,0-.71s-.51-.2-.71,0c-.38.38-1.04.38-1.41,0-.19-.19-.29-.44-.29-.71,0-.1.03-.19.06-.28.85-.46,1.44-1.42,1.44-2.39,0-.74-1.12-1.33-2.5-1.33s-2.5.6-2.5,1.33c0,.97.59,1.93,1.44,2.39.03.09.06.18.06.28,0,.27-.1.52-.29.71-.38.38-1.04.38-1.41,0Z"/><path d="M16 10A1 1 0 1 0 16 12 1 1 0 1 0 16 10z"/><path d="m18.44,9.36c.16.19.46.05.43-.2-.18-1.63-.51-2.71-.71-3.25-.07-.19-.31-.21-.43-.06l-1.19,1.58c-.09.12-.05.28.07.36.7.43,1.32.97,1.82,1.57Z"/></svg>