<svg xmlns="http://www.w3.org/2000/svg" width="24" height="24" viewBox="0 0 24 24"><g opacity="0.4"><path d="m19.5,7h-8c-1.74,0-3.38.76-4.52,2.09l-.87,1.1c-.17.22-.14.53.08.7.09.07.2.11.31.11.15,0,.29-.06.39-.19l.86-1.09c.94-1.1,2.3-1.72,3.75-1.72h.82l-1.77,5.76-4.44,5.42c-.17.21-.14.53.07.7.09.08.21.11.32.11.14,0,.29-.06.39-.18l4.5-5.5.05-.17,2.31,2.31c.35.35.39.89.11,1.29l-1.76,2.47c-.16.22-.11.54.12.7.09.06.19.09.29.09.16,0,.31-.07.41-.21l1.76-2.47c.57-.8.48-1.88-.21-2.58l-1.39-1.39,1.82-6.35h4.62c.28,0,.5-.22.5-.5s-.22-.5-.5-.5Z"/><path d="M13.49 3A1.5 1.5 0 1 0 13.49 6 1.5 1.5 0 1 0 13.49 3z"/></g><path d="M18.99 18A2 2 0 1 0 18.99 22 2 2 0 1 0 18.99 18z"/></svg>