<svg xmlns="http://www.w3.org/2000/svg" width="24" height="24" viewBox="0 0 24 24"><g opacity="0.4"><path d="m12,3C7.04,3,3,7.04,3,12s4.04,9,9,9,9-4.04,9-9S16.96,3,12,3Zm-4.5,9c0,.28-.22.5-.5.5s-.5-.22-.5-.5c0-3.03,2.47-5.5,5.5-5.5.28,0,.5.22.5.5s-.22.5-.5.5c-2.48,0-4.5,2.02-4.5,4.5Zm4.5,2c-1.1,0-2-.9-2-2s.9-2,2-2,2,.9,2,2-.9,2-2,2Z"/></g><path d="m7,12.5c.28,0,.5-.22.5-.5,0-2.48,2.02-4.5,4.5-4.5.28,0,.5-.22.5-.5s-.22-.5-.5-.5c-3.03,0-5.5,2.47-5.5,5.5,0,.28.22.5.5.5Z"/><path d="m10,12c0,1.1.9,2,2,2s2-.9,2-2-.9-2-2-2-2,.9-2,2Z"/></svg>