<svg xmlns="http://www.w3.org/2000/svg" width="24" height="24" viewBox="0 0 24 24"><g opacity="0.4"><path d="m4,11.5h-1c-.28,0-.5.22-.5.5s.22.5.5.5h1v-1Z"/><path d="M9 11.5H15V12.5H9z"/><path d="m21,11.5h-1v1h1c.28,0,.5-.22.5-.5s-.22-.5-.5-.5Z"/></g><path d="m5,8c-.55,0-1,.45-1,1v6c0,.55.45,1,1,1s1-.45,1-1v-6c0-.55-.45-1-1-1Z"/><path d="m8,6c-.55,0-1,.45-1,1v10c0,.55.45,1,1,1s1-.45,1-1V7c0-.55-.45-1-1-1Z"/><path d="m16,6c-.55,0-1,.45-1,1v10c0,.55.45,1,1,1s1-.45,1-1V7c0-.55-.45-1-1-1Z"/><path d="m19,8c-.55,0-1,.45-1,1v6c0,.55.45,1,1,1s1-.45,1-1v-6c0-.55-.45-1-1-1Z"/></svg>