<svg xmlns="http://www.w3.org/2000/svg" width="24" height="24" viewBox="0 0 24 24"><g opacity="0.4"><path d="m17.81,4.56c-.65-.98-1.74-1.56-2.91-1.56h-.23l2,6h3.63c-.06-.55-.24-1.09-.57-1.57l-1.91-2.87Z"/><path d="M10.69 3 8.69 9 15.61 9 13.61 3 10.69 3z"/><path d="m9.11,3c-1.17,0-2.26.58-2.91,1.56l-1.91,2.87c-.32.48-.51,1.02-.57,1.57h3.93l2-6h-.53Z"/></g><path d="M15.56 10 8.72 10 12.01 19 15.56 10z"/><path d="m14.77,17.73l4.81-6.22c.35-.45.57-.97.67-1.51h-3.61l-3.51,8.89c.64-.22,1.21-.6,1.64-1.15Z"/><path d="m9.23,17.73c.43.56,1.02.95,1.68,1.16l-3.25-8.9h-3.9c.1.54.32,1.06.67,1.51l4.81,6.22Z"/></svg>