<svg xmlns="http://www.w3.org/2000/svg" width="24" height="24" viewBox="0 0 24 24"><g opacity="0.4"><path d="m16.5,4h-6.5v16h6.5c1.93,0,3.5-1.57,3.5-3.5V7.5c0-1.93-1.57-3.5-3.5-3.5Zm-.65,10.65c.2.2.2.51,0,.71-.1.1-.23.15-.35.15s-.26-.05-.35-.15l-3-3c-.2-.2-.2-.51,0-.71l3-3c.2-.2.51-.2.71,0s.2.51,0,.71l-2.65,2.65,2.65,2.65Z"/></g><path d="m10,4h-2.5c-1.93,0-3.5,1.57-3.5,3.5v9c0,1.93,1.57,3.5,3.5,3.5h2.5V4Z"/><path d="m15.15,15.35c.1.1.23.15.35.15s.26-.05.35-.15c.2-.2.2-.51,0-.71l-2.65-2.65,2.65-2.65c.2-.2.2-.51,0-.71s-.51-.2-.71,0l-3,3c-.2.2-.2.51,0,.71l3,3Z"/></svg>