<svg xmlns="http://www.w3.org/2000/svg" width="24" height="24" viewBox="0 0 24 24"><g opacity="0.4"><path d="m19.5,5H4.5c-.83,0-1.5.67-1.5,1.5v1.5h18v-1.5c0-.83-.67-1.5-1.5-1.5Z"/><path d="m3,17.5c0,.83.67,1.5,1.5,1.5h2.5v-6.5c0-.28.22-.5.5-.5h3.5c.28,0,.5.22.5.5v6.5h1v-6.5c0-.28.22-.5.5-.5h3.5c.28,0,.5.22.5.5v6.5h2.5c.83,0,1.5-.67,1.5-1.5v-8.5H3v8.5Z"/></g><path d="M3 8H21V9H3z"/><path d="m11,12h-3.5c-.28,0-.5.22-.5.5v6.5h4.5v-6.5c0-.28-.22-.5-.5-.5Z"/><path d="m16.5,12h-3.5c-.28,0-.5.22-.5.5v6.5h4.5v-6.5c0-.28-.22-.5-.5-.5Z"/></svg>