<svg xmlns="http://www.w3.org/2000/svg" width="24" height="24" viewBox="0 0 24 24"><g opacity="0.4"><path d="m16.5,3H7.5c-1.93,0-3.5,1.57-3.5,3.5v11c0,1.93,1.57,3.5,3.5,3.5h9c1.93,0,3.5-1.57,3.5-3.5V6.5c0-1.93-1.57-3.5-3.5-3.5Zm-2.5,2c.55,0,1,.45,1,1s-.45,1-1,1-1-.45-1-1,.45-1,1-1Zm-2,13c-2.76,0-5-2.24-5-5s2.24-5,5-5,5,2.24,5,5-2.24,5-5,5Zm5-11c-.55,0-1-.45-1-1s.45-1,1-1,1,.45,1,1-.45,1-1,1Z"/></g><path d="m10.18,14.28c-.27.23-.68.57-.68,1.22,0,.28.22.5.5.5s.5-.22.5-.5c0-.17.08-.25.32-.45.27-.23.68-.57.68-1.22s-.41-.99-.68-1.22c-.24-.2-.32-.28-.32-.45s.06-.24.32-.45c.27-.23.68-.57.68-1.22,0-.28-.22-.5-.5-.5s-.5.22-.5.5c0,.16-.06.24-.32.45-.27.23-.68.57-.68,1.22s.41.99.68,1.22c.24.2.32.28.32.45s-.08.25-.32.45Z"/><path d="m13.18,14.28c-.27.23-.68.57-.68,1.22,0,.28.22.5.5.5s.5-.22.5-.5c0-.17.08-.25.32-.45.27-.23.68-.57.68-1.22s-.41-.99-.68-1.22c-.24-.2-.32-.28-.32-.45s.06-.24.32-.45c.27-.23.68-.57.68-1.22,0-.28-.22-.5-.5-.5s-.5.22-.5.5c0,.16-.06.24-.32.45-.27.23-.68.57-.68,1.22s.41.99.68,1.22c.24.2.32.28.32.45s-.08.25-.32.45Z"/><path d="M17 5A1 1 0 1 0 17 7 1 1 0 1 0 17 5z"/><path d="M14 5A1 1 0 1 0 14 7 1 1 0 1 0 14 5z"/></svg>