<svg xmlns="http://www.w3.org/2000/svg" width="24" height="24" viewBox="0 0 24 24"><g opacity="0.4"><path d="m20,7h-4v-2c0-1.1-.9-2-2-2h-4c-1.1,0-2,.9-2,2v2.71l-5.01,2.92c-.61.36-.99,1.02-.99,1.73v6.64c0,1.1.9,2,2,2,.55,0,1-.45,1-1v-6c0-.55.45-1,1-1s1,.45,1,1v6c0,.55.45,1,1,1h12c1.1,0,2-.9,2-2v-10c0-1.1-.9-2-2-2Zm-7,8.5c0,.28-.22.5-.5.5h-1c-.28,0-.5-.22-.5-.5v-1c0-.28.22-.5.5-.5h1c.28,0,.5.22.5.5v1Zm0-4c0,.28-.22.5-.5.5h-1c-.28,0-.5-.22-.5-.5v-1c0-.28.22-.5.5-.5h1c.28,0,.5.22.5.5v1Zm0-4c0,.28-.22.5-.5.5h-1c-.28,0-.5-.22-.5-.5v-1c0-.28.22-.5.5-.5h1c.28,0,.5.22.5.5v1Zm6,8c0,.28-.22.5-.5.5h-1c-.28,0-.5-.22-.5-.5v-1c0-.28.22-.5.5-.5h1c.28,0,.5.22.5.5v1Zm0-4c0,.28-.22.5-.5.5h-1c-.28,0-.5-.22-.5-.5v-1c0-.28.22-.5.5-.5h1c.28,0,.5.22.5.5v1Z"/></g><rect x="11" y="14" width="2" height="2" rx=".5" ry=".5"/><rect x="11" y="10" width="2" height="2" rx=".5" ry=".5"/><rect x="11" y="6" width="2" height="2" rx=".5" ry=".5"/><rect x="17" y="10" width="2" height="2" rx=".5" ry=".5"/><rect x="17" y="14" width="2" height="2" rx=".5" ry=".5"/></svg>