<svg xmlns="http://www.w3.org/2000/svg" width="24" height="24" viewBox="0 0 24 24"><g opacity="0.4"><path d="m20.59,7.81l-5.71,4.37,5.41,5.41c.44-.58.71-1.3.71-2.09v-7c0-.44-.08-.87-.24-1.27.08.21.01.44-.16.57Z"/><path d="m13.21,13.45c-.36.27-.79.41-1.21.41s-.86-.14-1.21-.41l-.87-.66-5.51,5.51c.58.44,1.3.71,2.09.71h11c.78,0,1.5-.27,2.09-.71l-5.51-5.51-.87.66Z"/><path d="m3.41,7.81c-.17-.13-.24-.37-.16-.57-.16.4-.24.82-.24,1.27v7c0,.78.27,1.5.71,2.09l5.41-5.41L3.41,7.81Z"/></g><path d="m20.59,7.81l-5.7,4.37,5.4,5.41c-.2.26-.44.5-.7.7l-5.51-5.5-.87.66c-.35.27-.78.4-1.21.4s-.86-.13-1.21-.4l-.87-.66-5.51,5.5c-.26-.2-.5-.44-.7-.7l5.41-5.42L3.41,7.81l-.21-.16.05-.07c-.04-.11-.05-.23-.01-.35.51-1.33,1.82-2.23,3.26-2.23h11c1.44,0,2.75.9,3.26,2.23.04.12.03.24-.01.35l.05.07-.21.16Z"/></svg>