<svg xmlns="http://www.w3.org/2000/svg" width="24" height="24" viewBox="0 0 24 24"><g opacity="0.4"><path d="m12,15c-1.64,0-3-1.36-3-3,0-.64.21-1.24.56-1.73l-2.84-2.84c-1.87,1.16-2.89,2.75-3.36,3.65-.3.58-.3,1.26,0,1.84.79,1.53,3.2,5.08,8.63,5.08,1.76,0,3.19-.37,4.37-.93l-2.64-2.64c-.49.35-1.09.56-1.73.56Z"/><path d="m12,6c-1.76,0-3.19.37-4.37.93l2.64,2.64c.49-.35,1.09-.56,1.73-.56,1.64,0,3,1.36,3,3,0,.64-.21,1.24-.56,1.73l2.84,2.84c1.87-1.16,2.89-2.75,3.36-3.65.3-.58.3-1.26,0-1.84-.79-1.53-3.2-5.08-8.63-5.08Z"/></g><path d="m19.15,19.85c.1.1.23.15.35.15s.26-.05.35-.15c.2-.2.2-.51,0-.71L4.85,4.15c-.2-.2-.51-.2-.71,0s-.2.51,0,.71l15,15Z"/></svg>