<svg xmlns="http://www.w3.org/2000/svg" width="24" height="24" viewBox="0 0 24 24"><g opacity="0.4"><path d="m6.5,3c-1.93,0-3.5,1.57-3.5,3.5v11c0,.97.39,1.84,1.03,2.47l15.95-15.95c-.63-.63-1.51-1.03-2.47-1.03H6.5Zm4,6h-4c-.28,0-.5-.22-.5-.5s.22-.5.5-.5h4c.28,0,.5.22.5.5s-.22.5-.5.5Z"/></g><path d="m4.03,19.97c.63.63,1.51,1.03,2.47,1.03h11c1.93,0,3.5-1.57,3.5-3.5V6.5c0-.97-.39-1.84-1.03-2.47l-15.95,15.95Zm13.47-3.97h-1.5v1.5c0,.28-.22.5-.5.5s-.5-.22-.5-.5v-1.5h-1.5c-.28,0-.5-.22-.5-.5s.22-.5.5-.5h1.5v-1.5c0-.28.22-.5.5-.5s.5.22.5.5v1.5h1.5c.28,0,.5.22.5.5s-.22.5-.5.5Z"/><path d="m6.5,9h4c.28,0,.5-.22.5-.5s-.22-.5-.5-.5h-4c-.28,0-.5.22-.5.5s.22.5.5.5Z"/></svg>