<svg xmlns="http://www.w3.org/2000/svg" width="24" height="24" viewBox="0 0 24 24"><g opacity="0.4"><path d="m16,19h-1.5c-.28,0-.5.22-.5.5s.22.5.5.5h1.5c.28,0,.5-.22.5-.5s-.22-.5-.5-.5Z"/><path d="m11.5,19h-1.5c-.28,0-.5.22-.5.5s.22.5.5.5h1.5c.28,0,.5-.22.5-.5s-.22-.5-.5-.5Z"/><path d="m14.5,4.5c0-.28-.22-.5-.5-.5h-1.5c-.28,0-.5.22-.5.5s.22.5.5.5h1.5c.28,0,.5-.22.5-.5Z"/><path d="m10,4.5c0-.28-.22-.5-.5-.5h-1.5c-.28,0-.5.22-.5.5s.22.5.5.5h1.5c.28,0,.5-.22.5-.5Z"/></g><path d="m20.5,4c-2.54,0-4.86,1.28-6.21,3.43l-5.42,8.61c-1.17,1.86-3.17,2.96-5.37,2.96-.28,0-.5.22-.5.5s.22.5.5.5c2.54,0,4.86-1.28,6.21-3.43l5.42-8.61c1.17-1.86,3.17-2.96,5.37-2.96.28,0,.5-.22.5-.5s-.22-.5-.5-.5Z"/><path d="M19.5 18A1.5 1.5 0 1 0 19.5 21 1.5 1.5 0 1 0 19.5 18z"/><path d="M4.5 3A1.5 1.5 0 1 0 4.5 6 1.5 1.5 0 1 0 4.5 3z"/></svg>