<svg xmlns="http://www.w3.org/2000/svg" width="24" height="24" viewBox="0 0 24 24"><g opacity="0.4"><path d="m14.12,12.83c.1.1.23.15.35.15s.26-.05.35-.15c.76-.75,1.17-1.76,1.17-2.83s-.42-2.07-1.17-2.83c-1.51-1.51-4.15-1.51-5.66,0-.22.22-.4.47-.56.73l.73.73c.14-.28.32-.53.54-.75,1.13-1.13,3.11-1.13,4.24,0,.57.57.88,1.32.88,2.12s-.31,1.55-.88,2.12c-.2.19-.2.51,0,.71Z"/><path d="m8.06,9.43c-.04.27.15.53.42.57.23.03.43-.09.52-.29l-.82-.82c-.05.18-.09.36-.12.54Z"/><path d="m15,17c0,2.87-2.97,3-3,3-1.61,0-2.77-1-2.96-2.56-.03-.27-.27-.48-.56-.44-.27.03-.47.28-.44.56.25,2.06,1.83,3.44,3.95,3.44,1.04,0,4-.73,4-4,0-.1.01-.18.02-.28l-.88-.88c-.09.35-.14.73-.14,1.15Z"/><path d="m12,3c-2.28,0-4.29,1.06-5.57,2.73l.72.72c1.09-1.49,2.84-2.45,4.85-2.45,3.36,0,6,2.64,6,6,0,1.33-.68,2.24-1.4,3.2-.38.51-.77,1.03-1.07,1.62l.76.76c.26-.64.68-1.2,1.11-1.78.79-1.05,1.6-2.13,1.6-3.8,0-3.93-3.07-7-7-7Z"/><path d="m5.03,9.46c-.02.28.19.52.46.54.28.02.52-.19.54-.46.06-.8.27-1.54.6-2.21l-.74-.74c-.47.86-.78,1.83-.85,2.88Z"/></g><path d="m3.85,3.15c-.2-.2-.51-.2-.71,0s-.2.51,0,.71l17,17c.1.1.23.15.35.15s.26-.05.35-.15c.2-.2.2-.51,0-.71L3.85,3.15Z"/></svg>