<svg xmlns="http://www.w3.org/2000/svg" width="24" height="24" viewBox="0 0 24 24"><g opacity="0.4"><path d="m15.41,6.21c-.78-.78-2.05-.78-2.83,0l-.84.84,3.21,3.21.84-.84c.38-.38.59-.88.59-1.41s-.21-1.04-.59-1.41l-.38-.38Z"/><path d="m3.29,15.5c-.19.19-.29.44-.29.71v1.79c0,.55.45,1,1,1h1.79c.27,0,.52-.1.71-.29l7.75-7.75-3.21-3.21-7.75,7.75Z"/></g><path class="st0" d="M11 7.7 11.4 7.4 11.7 7 13.3 8.6 15 10.3 14.6 10.6 14.2 11 12.6 9.4z"/><path class="st0" d="M20.5,18h-10c-0.3,0-0.5,0.2-0.5,0.5s0.2,0.5,0.5,0.5h10c0.3,0,0.5-0.2,0.5-0.5S20.8,18,20.5,18z"/></svg>