<svg xmlns="http://www.w3.org/2000/svg" width="24" height="24" viewBox="0 0 24 24"><g opacity="0.4"><path d="m18.14,16.96c-1.23,1.31-2.87,2.04-4.61,2.04s-3.37-.72-4.61-2.04c-.79-.84-1.35-1.85-1.65-2.96h-1.03c.33,1.37.99,2.62,1.95,3.65,1.42,1.52,3.32,2.35,5.34,2.35s3.91-.84,5.33-2.35c.19-.2.18-.52-.02-.71-.2-.19-.52-.18-.71.02Z"/><path d="m13.53,4c-2.02,0-3.91.84-5.33,2.35-.96,1.02-1.62,2.28-1.95,3.65h1.03c.31-1.11.87-2.12,1.65-2.96,1.23-1.31,2.87-2.04,4.61-2.04s3.37.72,4.61,2.04c.19.2.51.21.71.02.2-.19.21-.51.02-.71-1.42-1.52-3.32-2.35-5.34-2.35Z"/><path d="m7,12c0-.34.03-.67.07-1h-1.01c-.04.33-.06.66-.06,1s.03.67.06,1h1.01c-.04-.33-.07-.66-.07-1Z"/></g><path d="m4.5,11h6c.28,0,.5-.22.5-.5s-.22-.5-.5-.5h-6c-.28,0-.5.22-.5.5s.22.5.5.5Z"/><path d="m11,13.5c0-.28-.22-.5-.5-.5h-6c-.28,0-.5.22-.5.5s.22.5.5.5h6c.28,0,.5-.22.5-.5Z"/></svg>