<svg xmlns="http://www.w3.org/2000/svg" width="24" height="24" viewBox="0 0 24 24"><g opacity="0.4"><path d="m12,3c-3.92,0-7,3.08-7,7v7c0,2.28,1.81,4,4.21,4,2.25,0,3.1-1.37,3.78-2.47.27-.44.53-.86.86-1.18.56-.56,1.17-1.03,1.75-1.49,1.75-1.37,3.4-2.66,3.4-5.86,0-3.92-3.08-7-7-7Zm3.52,7c-.27.03-.53-.15-.57-.42-.1-.66-.4-1.29-.83-1.71-1.13-1.11-3.12-1.11-4.25,0-.44.44-.73,1.05-.83,1.69,2.01.25,3.64,1.83,3.9,3.89.03.27-.16.52-.43.56-.02,0-.04,0-.06,0-.25,0-.46-.18-.5-.44-.2-1.58-1.43-2.79-2.95-3.02v2.95c0,.28-.22.5-.5.5s-.5-.22-.5-.5v-3.5c0-1.07.44-2.13,1.18-2.85,1.51-1.48,4.14-1.48,5.65,0,.59.58.99,1.39,1.12,2.28.04.27-.15.53-.42.57Z"/></g><path d="m8.5,14c.28,0,.5-.22.5-.5v-2.95c1.52.22,2.75,1.44,2.95,3.02.03.25.25.44.5.44.02,0,.04,0,.06,0,.27-.03.47-.28.43-.56-.26-2.06-1.89-3.64-3.9-3.89.1-.64.39-1.25.83-1.69,1.13-1.11,3.12-1.11,4.25,0,.43.42.73,1.05.83,1.71.04.27.29.46.57.42.27-.04.46-.29.42-.57-.13-.89-.53-1.7-1.12-2.28-1.51-1.48-4.14-1.48-5.65,0-.74.72-1.18,1.79-1.18,2.85v3.5c0,.28.22.5.5.5Z"/></svg>