<svg xmlns="http://www.w3.org/2000/svg" width="24" height="24" viewBox="0 0 24 24"><g opacity="0.4"><path d="m12.71,12h6.71c.96-1.04,1.52-2.34,1.58-3.71.05-1.29-.37-2.48-1.15-3.43l-7.14,7.14Z"/><path d="m11.82,4.73l-5.09,5.09c-1.06,1.06-1.67,2.44-1.73,3.89-.05,1.29.37,2.48,1.15,3.43l12.98-12.98c-2.08-1.69-5.25-1.49-7.32.58Z"/><path d="m6.86,17.85c.93.75,2.06,1.15,3.23,1.15,1.46,0,2.95-.58,4.1-1.73l4.27-4.27h-6.74l-4.85,4.85Z"/></g><path d="m18.45,13l.82-.82c.06-.06.1-.12.15-.18h-6.71l7.14-7.14c-.11-.13-.2-.27-.32-.39-.12-.12-.26-.21-.39-.32L3.15,20.15c-.2.2-.2.51,0,.71.1.1.23.15.35.15s.26-.05.35-.15l7.85-7.85h6.74Z"/></svg>