<svg xmlns="http://www.w3.org/2000/svg" width="24" height="24" viewBox="0 0 24 24"><g opacity="0.4"><rect x="8" y="12" width="2" height="2" rx=".75" ry=".75"/><path d="m16,8c-1.1,0-2-.9-2-2v-2.9c-.13-.06-.27-.1-.41-.1h-2.59v2h-2v2h2v6.5c0,.83-.67,1.5-1.5,1.5h-1c-.83,0-1.5-.67-1.5-1.5v-4.5h2v-2h-2v-2h2v-2h-.5c-1.93,0-3.5,1.57-3.5,3.5v11c0,1.93,1.57,3.5,3.5,3.5h7c1.93,0,3.5-1.57,3.5-3.5v-9.09c0-.15-.04-.28-.1-.41h-2.9Z"/></g><path d="m14.85,3.15c-.09-.09-.22-.15-.35-.15h-.5v3c0,1.1.9,2,2,2h3v-.5c0-.13-.05-.26-.15-.35l-4-4Z"/><path d="M7 5H9V7H7z"/><path d="m8.5,15h1c.83,0,1.5-.67,1.5-1.5v-6.5h-2v2h-2v4.5c0,.83.67,1.5,1.5,1.5Zm-.5-2.25c0-.41.34-.75.75-.75h.5c.41,0,.75.34.75.75v.5c0,.41-.34.75-.75.75h-.5c-.41,0-.75-.34-.75-.75v-.5Z"/><path d="M9 3H11V5H9z"/></svg>