<svg xmlns="http://www.w3.org/2000/svg" width="24" height="24" viewBox="0 0 24 24"><g opacity="0.4"><path d="m19.15,10.39l1.18-1.78c-1.01-2.48-3.1-4.42-5.68-5.21l-2.18,1.45c-.29.19-.66.19-.95,0l-2.18-1.45c-2.58.8-4.67,2.73-5.68,5.21l1.18,1.78c.19.29.19.66,0,.95l-1.66,2.49c.3,1.45.95,2.77,1.85,3.87h1.91c.31,0,.59.16.74.43l1.35,2.36c.93.32,1.92.51,2.96.51s2.03-.19,2.96-.51l1.35-2.36c.15-.27.44-.43.74-.43h1.91c.9-1.1,1.55-2.42,1.85-3.87l-1.66-2.49c-.19-.29-.19-.66,0-.95Zm-3.39,1.08l-1.27,3.39c-.12.33-.44.55-.8.55h-3.37c-.36,0-.67-.22-.8-.55l-1.27-3.39c-.14-.36-.01-.77.3-.99l2.96-2.11c.3-.21.7-.21.99,0l2.96,2.11c.31.22.44.63.3.99Z"/></g><path d="m9.51,14.86c.12.33.44.55.8.55h3.37c.36,0,.67-.22.8-.55l1.27-3.39c.14-.36.01-.77-.3-.99l-2.96-2.11c-.3-.21-.7-.21-.99,0l-2.96,2.11c-.31.22-.44.63-.3.99l1.27,3.39Z"/><path d="m19.15,10.39c-.19.29-.19.66,0,.95l1.66,2.49c.12-.59.19-1.2.19-1.83,0-1.2-.24-2.34-.67-3.39l-1.18,1.78Z"/><path d="m12.47,4.85l2.18-1.45c-.84-.26-1.73-.4-2.65-.4s-1.81.14-2.65.4l2.18,1.45c.29.19.66.19.95,0Z"/><path d="m18.96,17.69h-1.91c-.31,0-.59.16-.74.43l-1.35,2.36c1.58-.55,2.96-1.53,4-2.8Z"/><path d="m4.85,11.33c.19-.29.19-.66,0-.95l-1.18-1.78c-.43,1.05-.67,2.19-.67,3.39,0,.63.07,1.24.19,1.83l1.66-2.49Z"/><path d="m9.04,20.49l-1.35-2.36c-.15-.27-.44-.43-.74-.43h-1.91c1.04,1.27,2.42,2.24,4,2.79Z"/></svg>