<svg xmlns="http://www.w3.org/2000/svg" width="24" height="24" viewBox="0 0 24 24"><g opacity="0.4"><path d="m16,8c-1.1,0-2-.9-2-2v-2.9c-.13-.06-.27-.1-.41-.1h-5.09c-1.93,0-3.5,1.57-3.5,3.5v11c0,1.93,1.57,3.5,3.5,3.5h7c1.93,0,3.5-1.57,3.5-3.5v-9.09c0-.15-.04-.28-.1-.41h-2.9Zm-6,9.5c0,.28-.22.5-.5.5s-.5-.22-.5-.5v-5c0-.28.22-.5.5-.5s.5.22.5.5v5Zm2.5,0c0,.28-.22.5-.5.5s-.5-.22-.5-.5v-7c0-.28.22-.5.5-.5s.5.22.5.5v7Zm2.5,0c0,.28-.22.5-.5.5s-.5-.22-.5-.5v-3c0-.28.22-.5.5-.5s.5.22.5.5v3Z"/></g><path d="m14.85,3.15c-.09-.09-.22-.15-.35-.15h-.5v3c0,1.1.9,2,2,2h3v-.5c0-.13-.05-.26-.15-.35l-4-4Z"/><path d="m9.5,18c.28,0,.5-.22.5-.5v-5c0-.28-.22-.5-.5-.5s-.5.22-.5.5v5c0,.28.22.5.5.5Z"/><path d="m12,18c.28,0,.5-.22.5-.5v-7c0-.28-.22-.5-.5-.5s-.5.22-.5.5v7c0,.28.22.5.5.5Z"/><path d="m14.5,18c.28,0,.5-.22.5-.5v-3c0-.28-.22-.5-.5-.5s-.5.22-.5.5v3c0,.28.22.5.5.5Z"/></svg>