<svg xmlns="http://www.w3.org/2000/svg" width="24" height="24" viewBox="0 0 24 24"><g opacity="0.4"><path d="m17.5,5h-4.88c-.26,0-.52-.11-.71-.29l-1.12-1.12c-.37-.37-.89-.59-1.41-.59h-4.38c-1.1,0-2,.9-2,2v10.5c0,1.93,1.57,3.5,3.5,3.5h11c1.93,0,3.5-1.57,3.5-3.5v-7c0-1.93-1.57-3.5-3.5-3.5Zm-3.27,6h-1.73v4.5c0,.28-.22.5-.5.5s-.5-.22-.5-.5v-4.5h-1.73c-.45,0-.67-.56-.34-.87l2.23-2.07c.19-.18.49-.18.68,0l2.23,2.07c.33.31.11.87-.34.87Z"/></g><path d="m9.77,11h1.73v4.5c0,.28.22.5.5.5s.5-.22.5-.5v-4.5h1.73c.45,0,.67-.56.34-.87l-2.23-2.07c-.19-.18-.49-.18-.68,0l-2.23,2.07c-.33.31-.11.87.34.87Z"/></svg>