<svg xmlns="http://www.w3.org/2000/svg" width="24" height="24" viewBox="0 0 24 24"><g opacity="0.4"><path d="m17.5,5h-4.88c-.26,0-.52-.11-.71-.29l-1.12-1.12c-.37-.37-.89-.59-1.41-.59h-4.38c-1.1,0-2,.9-2,2v10.5c0,1.93,1.57,3.5,3.5,3.5h11c1.93,0,3.5-1.57,3.5-3.5v-7c0-1.93-1.57-3.5-3.5-3.5Zm-1.15,10.85c-.1.1-.23.15-.35.15s-.26-.05-.35-.15l-1.75-1.75s-.02-.03-.03-.04c-.62.58-1.45.94-2.37.94-1.93,0-3.5-1.57-3.5-3.5s1.57-3.5,3.5-3.5,3.5,1.57,3.5,3.5c0,.67-.2,1.28-.52,1.81.04.02.09.05.12.08l1.75,1.75c.2.2.2.51,0,.71Z"/><path d="M11.5 9A2.5 2.5 0 1 0 11.5 14 2.5 2.5 0 1 0 11.5 9z"/></g><path d="m11.5,15c.92,0,1.74-.36,2.37-.94.01.01.02.03.03.04l1.75,1.75c.1.1.23.15.35.15s.26-.05.35-.15c.2-.2.2-.51,0-.71l-1.75-1.75s-.08-.06-.12-.08c.32-.53.52-1.15.52-1.81,0-1.93-1.57-3.5-3.5-3.5s-3.5,1.57-3.5,3.5,1.57,3.5,3.5,3.5Zm0-6c1.38,0,2.5,1.12,2.5,2.5s-1.12,2.5-2.5,2.5-2.5-1.12-2.5-2.5,1.12-2.5,2.5-2.5Z"/></svg>