<svg xmlns="http://www.w3.org/2000/svg" width="24" height="24" viewBox="0 0 24 24"><g opacity="0.4"><path d="m16.5,4H7.5c-1.93,0-3.5,1.57-3.5,3.5v9c0,1.93,1.57,3.5,3.5,3.5h9c1.93,0,3.5-1.57,3.5-3.5V7.5c0-1.93-1.57-3.5-3.5-3.5Zm-8.5,13.5c-.55,0-1-.45-1-1s.45-1,1-1,1,.45,1,1-.45,1-1,1Zm8.5-.5h-6c-.28,0-.5-.22-.5-.5s.22-.5.5-.5h6c.28,0,.5.22.5.5s-.22.5-.5.5Zm0-3H7.5c-.28,0-.5-.22-.5-.5s.22-.5.5-.5h9c.28,0,.5.22.5.5s-.22.5-.5.5Zm-9.5-3.5c0-.55.45-1,1-1s1,.45,1,1-.45,1-1,1-1-.45-1-1Zm9.5.5h-6c-.28,0-.5-.22-.5-.5s.22-.5.5-.5h6c.28,0,.5.22.5.5s-.22.5-.5.5Zm0-3H7.5c-.28,0-.5-.22-.5-.5s.22-.5.5-.5h9c.28,0,.5.22.5.5s-.22.5-.5.5Z"/></g><path d="M8 9.5A1 1 0 1 0 8 11.5 1 1 0 1 0 8 9.5z"/><path d="m7.5,14h9c.28,0,.5-.22.5-.5s-.22-.5-.5-.5H7.5c-.28,0-.5.22-.5.5s.22.5.5.5Z"/><path d="m16.5,16h-6c-.28,0-.5.22-.5.5s.22.5.5.5h6c.28,0,.5-.22.5-.5s-.22-.5-.5-.5Z"/><path d="M8 15.5A1 1 0 1 0 8 17.5 1 1 0 1 0 8 15.5z"/><path d="m16.5,10h-6c-.28,0-.5.22-.5.5s.22.5.5.5h6c.28,0,.5-.22.5-.5s-.22-.5-.5-.5Z"/><path d="m7.5,8h9c.28,0,.5-.22.5-.5s-.22-.5-.5-.5H7.5c-.28,0-.5.22-.5.5s.22.5.5.5Z"/></svg>