<svg xmlns="http://www.w3.org/2000/svg" width="24" height="24" viewBox="0 0 24 24"><g opacity="0.4"><path d="M12 10A2 2 0 1 0 12 14 2 2 0 1 0 12 10z"/><path d="m9,4.5c0,.28.22.5.5.5h5c.28,0,.5-.22.5-.5v-2.5h-6v2.5Z"/><path d="m16.5,2h-.5v2.5c0,.83-.67,1.5-1.5,1.5h-5c-.83,0-1.5-.67-1.5-1.5v-2.5h-.5c-1.93,0-3.5,1.57-3.5,3.5v6h5.05c.24-1.42,1.47-2.5,2.95-2.5s2.71,1.08,2.95,2.5h5.05v-6c0-1.93-1.57-3.5-3.5-3.5Z"/><path d="m14.5,19h-5c-.28,0-.5.22-.5.5v2.5h6v-2.5c0-.28-.22-.5-.5-.5Z"/><path d="m12,15c-1.48,0-2.71-1.08-2.95-2.5h-5.05v6c0,1.93,1.57,3.5,3.5,3.5h.5v-2.5c0-.83.67-1.5,1.5-1.5h5c.83,0,1.5.67,1.5,1.5v2.5h.5c1.93,0,3.5-1.57,3.5-3.5v-6h-5.05c-.24,1.42-1.47,2.5-2.95,2.5Z"/></g><path d="m16,22v-2.5c0-.83-.67-1.5-1.5-1.5h-5c-.83,0-1.5.67-1.5,1.5v2.5h1v-2.5c0-.28.22-.5.5-.5h5c.28,0,.5.22.5.5v2.5h1Z"/><path d="m9.5,6h5c.83,0,1.5-.67,1.5-1.5v-2.5h-1v2.5c0,.28-.22.5-.5.5h-5c-.28,0-.5-.22-.5-.5v-2.5h-1v2.5c0,.83.67,1.5,1.5,1.5Z"/><path d="m12,9c-1.48,0-2.71,1.08-2.95,2.5h-5.05v1h5.05c.24,1.42,1.47,2.5,2.95,2.5s2.71-1.08,2.95-2.5h5.05v-1h-5.05c-.24-1.42-1.47-2.5-2.95-2.5Zm0,5c-1.1,0-2-.9-2-2s.9-2,2-2,2,.9,2,2-.9,2-2,2Z"/></svg>