<svg xmlns="http://www.w3.org/2000/svg" width="24" height="24" viewBox="0 0 24 24"><g opacity="0.4"><path d="m15.36,9.09h-6.73c-.74,0-1.46.27-2.01.76l-3.56,3.17c.51,4.48,4.32,7.98,8.94,7.98s8.43-3.5,8.94-7.98l-3.56-3.17c-.56-.49-1.27-.76-2.01-.76Zm-6.86,5.91c-.83,0-1.5-.67-1.5-1.5s.67-1.5,1.5-1.5,1.5.67,1.5,1.5-.67,1.5-1.5,1.5Zm7,0c-.83,0-1.5-.67-1.5-1.5s.67-1.5,1.5-1.5,1.5.67,1.5,1.5-.67,1.5-1.5,1.5Z"/></g><path d="M8.5 12A1.5 1.5 0 1 0 8.5 15 1.5 1.5 0 1 0 8.5 12z"/><path d="M15.5 12A1.5 1.5 0 1 0 15.5 15 1.5 1.5 0 1 0 15.5 12z"/><path d="m12,3C7.04,3,3,7.04,3,12c0,.34.02.68.06,1.02l3.56-3.17c.56-.49,1.27-.76,2.01-.76h6.73c.74,0,1.46.27,2.01.76l3.56,3.17c.04-.33.06-.67.06-1.02,0-4.96-4.04-9-9-9Z"/></svg>