<svg xmlns="http://www.w3.org/2000/svg" width="24" height="24" viewBox="0 0 24 24"><g opacity="0.4"><path d="m12,3C7.04,3,3,7.04,3,12s4.04,9,9,9,9-4.04,9-9S16.96,3,12,3Zm-3.22,12.48c-.33.22-.78-.02-.78-.42v-6.13c0-.4.45-.64.78-.42l4.6,3.07c.3.2.3.63,0,.83l-4.6,3.07Zm8.6-3.07l-4.6,3.07c-.33.22-.78-.02-.78-.42v-.53l1.93-1.29c.42-.28.67-.75.67-1.25s-.25-.97-.67-1.25l-1.93-1.29v-.53c0-.4.45-.64.78-.42l4.6,3.07c.3.2.3.63,0,.83Z"/></g><path d="m8.78,15.48l4.6-3.07c.3-.2.3-.63,0-.83l-4.6-3.07c-.33-.22-.78.02-.78.42v6.13c0,.4.45.64.78.42Z"/><path d="m14.6,12c0,.5-.25.97-.67,1.25l-1.93,1.29v.53c0,.4.45.64.78.42l4.6-3.07c.3-.2.3-.63,0-.83l-4.6-3.07c-.33-.22-.78.02-.78.42v.53l1.93,1.29c.42.28.67.75.67,1.25Z"/></svg>