<svg xmlns="http://www.w3.org/2000/svg" width="24" height="24" viewBox="0 0 24 24"><g opacity="0.4"><path d="m21,12c0-4.96-4.04-9-9-9S3,7.04,3,12s4.04,9,9,9c.13,0,.27-.01.4-.02.03,0,.06.02.1.02h8c.28,0,.5-.22.5-.5s-.22-.5-.5-.5h-4.4c2.9-1.5,4.9-4.52,4.9-8Zm-3,0c0,.83-.67,1.5-1.5,1.5s-1.5-.67-1.5-1.5.67-1.5,1.5-1.5,1.5.67,1.5,1.5Zm-9,0c0,.83-.67,1.5-1.5,1.5s-1.5-.67-1.5-1.5.67-1.5,1.5-1.5,1.5.67,1.5,1.5Zm3,3c.83,0,1.5.67,1.5,1.5s-.67,1.5-1.5,1.5-1.5-.67-1.5-1.5.67-1.5,1.5-1.5Zm-1-3c0-.55.45-1,1-1s1,.45,1,1-.45,1-1,1-1-.45-1-1Zm1-3c-.83,0-1.5-.67-1.5-1.5s.67-1.5,1.5-1.5,1.5.67,1.5,1.5-.67,1.5-1.5,1.5Z"/></g><path d="M12 6A1.5 1.5 0 1 0 12 9 1.5 1.5 0 1 0 12 6z"/><path d="M16.5 10.5A1.5 1.5 0 1 0 16.5 13.5 1.5 1.5 0 1 0 16.5 10.5z"/><path d="M12 11A1 1 0 1 0 12 13 1 1 0 1 0 12 11z"/><path d="M7.5 10.5A1.5 1.5 0 1 0 7.5 13.5 1.5 1.5 0 1 0 7.5 10.5z"/><path d="M12 15A1.5 1.5 0 1 0 12 18 1.5 1.5 0 1 0 12 15z"/></svg>