<svg xmlns="http://www.w3.org/2000/svg" width="24" height="24" viewBox="0 0 24 24"><g opacity="0.4"><path d="m11.95,6.81c-.25-.01-.45-.24-.45-.5v-2.81c0-.28-.22-.5-.5-.5-2.69,0-4.92,3.46-5.19,8.05-.01.25-.24.45-.5.45h-2.81c-.28,0-.5.22-.5.5,0,2.69,3.46,4.92,8.05,5.19.25.01.45.24.45.5v2.81c0,.28.22.5.5.5,2.69,0,4.92-3.46,5.19-8.05.01-.25.24-.45.5-.45h2.81c.28,0,.5-.22.5-.5,0-2.69-3.46-4.92-8.05-5.19Zm-.95,6.69c-.83,0-1.5-.67-1.5-1.5s.67-1.5,1.5-1.5,1.5.67,1.5,1.5-.67,1.5-1.5,1.5Z"/></g><path d="M11 10.5A1.5 1.5 0 1 0 11 13.5 1.5 1.5 0 1 0 11 10.5z"/></svg>