<svg xmlns="http://www.w3.org/2000/svg" width="24" height="24" viewBox="0 0 24 24"><g opacity="0.4"><path d="M6 7H7V17H6z"/><path d="m6.5,3c-.28,0-.5.22-.5.5v2.5h1v-2.5c0-.28-.22-.5-.5-.5Z"/><path d="m6,20.5c0,.28.22.5.5.5s.5-.22.5-.5v-2.5h-1v2.5Z"/><path d="M17 7H18V17H17z"/><path d="m17,20.5c0,.28.22.5.5.5s.5-.22.5-.5v-2.5h-1v2.5Z"/><path d="m17.5,3c-.28,0-.5.22-.5.5v2.5h1v-2.5c0-.28-.22-.5-.5-.5Z"/></g><path d="m20.5,6H3.5c-.28,0-.5.22-.5.5s.22.5.5.5h17c.28,0,.5-.22.5-.5s-.22-.5-.5-.5Z"/><path d="m20.5,17H3.5c-.28,0-.5.22-.5.5s.22.5.5.5h17c.28,0,.5-.22.5-.5s-.22-.5-.5-.5Z"/></svg>