<svg xmlns="http://www.w3.org/2000/svg" width="24" height="24" viewBox="0 0 24 24"><g opacity="0.4"><path d="m16,8c-1.1,0-2-.9-2-2v-2.9c-.13-.06-.27-.1-.41-.1h-5.09c-1.93,0-3.5,1.57-3.5,3.5v11c0,1.93,1.57,3.5,3.5,3.5h7c1.93,0,3.5-1.57,3.5-3.5v-9.09c0-.15-.04-.28-.1-.41h-2.9Zm-.96,4.96l-1.26,1.26c-.08.08-.11.2-.08.31l.52,1.68c.09.28-.23.51-.47.35l-1.58-1.06c-.1-.07-.24-.07-.34,0l-1.58,1.06c-.24.16-.55-.07-.47-.35l.52-1.68c.03-.11,0-.23-.08-.31l-1.26-1.26c-.19-.19-.07-.51.19-.53l1.56-.13c.11,0,.2-.07.25-.17l.76-1.55c.11-.23.44-.23.56,0l.76,1.55c.05.1.14.16.25.17l1.56.13c.26.02.38.34.19.53Z"/></g><path d="m14.85,3.15c-.09-.09-.22-.15-.35-.15h-.5v3c0,1.1.9,2,2,2h3v-.5c0-.13-.05-.26-.15-.35l-4-4Z"/><path d="m10.22,14.21c.08.08.11.2.08.31l-.52,1.68c-.09.28.23.51.47.35l1.58-1.06c.1-.07.24-.07.34,0l1.58,1.06c.24.16.55-.07.47-.35l-.52-1.68c-.03-.11,0-.23.08-.31l1.26-1.26c.19-.19.07-.51-.19-.53l-1.56-.13c-.11,0-.2-.07-.25-.17l-.76-1.55c-.11-.23-.44-.23-.56,0l-.76,1.55c-.05.1-.14.16-.25.17l-1.56.13c-.26.02-.38.34-.19.53l1.26,1.26Z"/></svg>