<svg xmlns="http://www.w3.org/2000/svg" width="24" height="24" viewBox="0 0 24 24"><g opacity="0.4"><path d="m19.56,6.37c-.27-.12-.58-.08-.8.12l-2.76,2.41v-1.85c0-.3-.17-.56-.44-.68s-.58-.08-.8.12l-2.76,2.41v-1.85c0-.3-.17-.56-.44-.68s-.58-.08-.8.12l-2.76,2.41v-4.4c0-.28-.22-.5-.5-.5h-3c-.28,0-.5.22-.5.5v13c0,.83.67,1.5,1.5,1.5h13c.83,0,1.5-.67,1.5-1.5V7.05c0-.3-.17-.56-.44-.68Zm-10.56,9.38c0,.14-.11.25-.25.25h-1.5c-.14,0-.25-.11-.25-.25v-1.5c0-.14.11-.25.25-.25h1.5c.14,0,.25.11.25.25v1.5Zm4,0c0,.14-.11.25-.25.25h-1.5c-.14,0-.25-.11-.25-.25v-1.5c0-.14.11-.25.25-.25h1.5c.14,0,.25.11.25.25v1.5Zm4,0c0,.14-.11.25-.25.25h-1.5c-.14,0-.25-.11-.25-.25v-1.5c0-.14.11-.25.25-.25h1.5c.14,0,.25.11.25.25v1.5Z"/></g><rect x="11" y="14" width="2" height="2" rx=".25" ry=".25"/><rect x="15" y="14" width="2" height="2" rx=".25" ry=".25"/><rect x="7" y="14" width="2" height="2" rx=".25" ry=".25"/></svg>