<svg xmlns="http://www.w3.org/2000/svg" width="24" height="24" viewBox="0 0 24 24"><g opacity="0.4"><path d="m13.5,7.7c-1.65,2.1-4.15,3.32-6.85,3.32-1.13,0-2.22-.23-3.25-.65-.25.83-.39,1.71-.39,2.62,0,4.96,4.04,9,9,9s9-4.04,9-9c0-.32-.02-.64-.05-.95-3.08-.04-5.91-1.71-7.45-4.35Zm-5,8.3c-.83,0-1.5-.67-1.5-1.5s.67-1.5,1.5-1.5,1.5.67,1.5,1.5-.67,1.5-1.5,1.5Zm7,0c-.83,0-1.5-.67-1.5-1.5s.67-1.5,1.5-1.5,1.5.67,1.5,1.5-.67,1.5-1.5,1.5Z"/></g><path d="m18,2c-1.57,0-2.96.92-3.61,2.33-.76-.21-1.56-.33-2.39-.33-4.05,0-7.48,2.69-8.61,6.38,1.04.42,2.13.65,3.25.65,2.7,0,5.21-1.23,6.85-3.32,1.54,2.64,4.37,4.31,7.45,4.35-.1-.97-.36-1.88-.75-2.73,1.12-.74,1.8-1.97,1.8-3.32,0-2.21-1.79-4-4-4Z"/><path d="M8.5 13A1.5 1.5 0 1 0 8.5 16 1.5 1.5 0 1 0 8.5 13z"/><path d="M15.5 13A1.5 1.5 0 1 0 15.5 16 1.5 1.5 0 1 0 15.5 13z"/></svg>