<svg xmlns="http://www.w3.org/2000/svg" width="24" height="24" viewBox="0 0 24 24"><g opacity="0.4"><path d="m16.5,3H7c-1.1,0-2,.9-2,2v14c0,1.1.9,2,2,2h9.5c1.93,0,3.5-1.57,3.5-3.5V6.5c0-1.93-1.57-3.5-3.5-3.5Zm-4.5,5.55v-.05c0-.28.22-.5.5-.5s.5.22.5.5v.05c2.05.23,3.7,1.82,3.96,3.87.04.31-.18.59-.5.59h-7.93c-.31,0-.54-.28-.5-.59.27-2.04,1.91-3.64,3.96-3.87Zm4.5,6.45h-8c-.28,0-.5-.22-.5-.5s.22-.5.5-.5h8c.28,0,.5.22.5.5s-.22.5-.5.5Z"/></g><path d="m5,16h-1.5c-.28,0-.5.22-.5.5s.22.5.5.5h1.5v-1Z"/><path d="m3.5,14h1.5v-1h-1.5c-.28,0-.5.22-.5.5s.22.5.5.5Z"/><path d="m3.5,11h1.5v-1h-1.5c-.28,0-.5.22-.5.5s.22.5.5.5Z"/><path d="m3.5,8h1.5v-1h-1.5c-.28,0-.5.22-.5.5s.22.5.5.5Z"/><path d="m8.5,15h8c.28,0,.5-.22.5-.5s-.22-.5-.5-.5h-8c-.28,0-.5.22-.5.5s.22.5.5.5Z"/><path d="m8.53,13h7.93c.31,0,.54-.28.5-.59-.27-2.04-1.91-3.64-3.96-3.87v-.05c0-.28-.22-.5-.5-.5s-.5.22-.5.5v.05c-2.05.23-3.7,1.82-3.96,3.87-.04.31.18.59.5.59Z"/></svg>