<svg xmlns="http://www.w3.org/2000/svg" width="24" height="24" viewBox="0 0 24 24"><g opacity="0.4"><path d="m17.44,3.33c-.09-.18-.27-.27-.44-.27s-.35.09-.44.27l-3.67,6.93c-.18.33.07.73.44.73h7.34c.38,0,.62-.4.44-.73l-3.67-6.93Z"/><path d="m10.85,13.15c-.2-.2-.51-.2-.71,0l-3.15,3.15-3.15-3.15c-.2-.2-.51-.2-.71,0s-.2.51,0,.71l3.15,3.15-3.15,3.15c-.2.2-.2.51,0,.71.1.1.23.15.35.15s.26-.05.35-.15l3.15-3.15,3.15,3.15c.1.1.23.15.35.15s.26-.05.35-.15c.2-.2.2-.51,0-.71l-3.15-3.15,3.15-3.15c.2-.2.2-.51,0-.71Z"/></g><rect x="3" y="3" width="8" height="8" rx="1.5" ry="1.5"/><path d="M17 13A4 4 0 1 0 17 21 4 4 0 1 0 17 13z"/></svg>