<svg xmlns="http://www.w3.org/2000/svg" width="24" height="24" viewBox="0 0 24 24"><g opacity="0.4"><path d="M7 17H11.5V18H7z"/><path d="M12.5 17H17V18H12.5z"/><path d="m3,17.5c0,.28.22.5.5.5h2.5v-1h-2.5c-.28,0-.5.22-.5.5Z"/><path d="m20.5,17h-2.5v1h2.5c.28,0,.5-.22.5-.5s-.22-.5-.5-.5Z"/><path d="M7 11.5H11.5V12.5H7z"/><path d="M12.5 11.5H17V12.5H12.5z"/><path d="m20.5,11.5h-2.5v1h2.5c.28,0,.5-.22.5-.5s-.22-.5-.5-.5Z"/><path d="m3,12c0,.28.22.5.5.5h2.5v-1h-2.5c-.28,0-.5.22-.5.5Z"/><path d="M12.5 6H17V7H12.5z"/><path d="m20.5,6h-2.5v1h2.5c.28,0,.5-.22.5-.5s-.22-.5-.5-.5Z"/><path d="M7 6H11.5V7H7z"/><path d="m3,6.5c0,.28.22.5.5.5h2.5v-1h-2.5c-.28,0-.5.22-.5.5Z"/></g><path d="m7,3.5c0-.28-.22-.5-.5-.5s-.5.22-.5.5v17c0,.28.22.5.5.5s.5-.22.5-.5V3.5Z"/><path d="m12.5,3.5c0-.28-.22-.5-.5-.5s-.5.22-.5.5v17c0,.28.22.5.5.5s.5-.22.5-.5V3.5Z"/><path d="m18,3.5c0-.28-.22-.5-.5-.5s-.5.22-.5.5v17c0,.28.22.5.5.5s.5-.22.5-.5V3.5Z"/></svg>