<svg xmlns="http://www.w3.org/2000/svg" width="24" height="24" viewBox="0 0 24 24"><g opacity="0.4"><path d="m15.5,12c2,0,3.5-1.5,3.5-3.5s-1.5-3.5-3.5-3.5c-1.31,0-2.4.66-3,1.67.31.53.5,1.15.5,1.83s-.19,1.3-.5,1.83c.6,1.01,1.69,1.67,3,1.67Z"/><path d="m16.5,13h-2c-.72,0-1.39.19-2,.49,1.48.74,2.5,2.25,2.5,4.01,0,.83-.67,1.5-1.5,1.5h6c.83,0,1.5-.67,1.5-1.5,0-2.48-2.02-4.5-4.5-4.5Z"/></g><path d="M9.5 5A3.5 3.5 0 1 0 9.5 12 3.5 3.5 0 1 0 9.5 5z"/><path d="m15,17.5c0-2.48-2.02-4.5-4.5-4.5h-2c-2.48,0-4.5,2.02-4.5,4.5,0,.83.67,1.5,1.5,1.5h8c.83,0,1.5-.67,1.5-1.5Z"/></svg>