<svg xmlns="http://www.w3.org/2000/svg" width="24" height="24" viewBox="0 0 24 24"><g opacity="0.4"><path d="m18.64,8H5.36c-.78,0-1.43.6-1.49,1.37l-.63,7.37c-.15,1.75,1.23,3.26,2.99,3.26h11.55c1.76,0,3.14-1.5,2.99-3.26l-.63-7.37c-.07-.78-.72-1.37-1.49-1.37Zm-6.64,7.51c-2.21,0-4-1.79-4-4,0-.28.22-.5.5-.5s.5.22.5.5c0,1.65,1.35,3,3,3s3-1.35,3-3c0-.28.22-.5.5-.5s.5.22.5.5c0,2.21-1.79,4-4,4Z"/></g><path d="m5.36,8h12l.95-.95c.23-.23.41-.51.53-.8,0-.01,0-.03.01-.04.05-.12.09-.25.11-.38.03-.15.04-.3.04-.46,0-.32-.06-.62-.18-.91-.12-.28-.29-.54-.52-.77-.69-.69-1.71-.86-2.57-.52-.29.11-.56.29-.79.52l-2.14,2.14c-.5-1.65-2-2.83-3.81-2.83-2.21,0-4,1.79-4,4,0,.36.06.71.15,1.04.07-.01.13-.04.21-.04Z"/><path d="m15,11.51c0,1.65-1.35,3-3,3s-3-1.35-3-3c0-.28-.22-.5-.5-.5s-.5.22-.5.5c0,2.21,1.79,4,4,4s4-1.79,4-4c0-.28-.22-.5-.5-.5s-.5.22-.5.5Z"/></svg>