<svg xmlns="http://www.w3.org/2000/svg" width="24" height="24" viewBox="0 0 24 24"><g opacity="0.4"><path d="M12 11A1 1 0 1 0 12 13 1 1 0 1 0 12 11z"/><path d="m20.5,11.5h-.5s-.02,0-.03,0c-.05-.74-.19-1.45-.42-2.12,0,0,.02,0,.02,0l.46-.19c.25-.11.38-.4.27-.65-.11-.26-.4-.38-.65-.27l-.46.19s-.01.01-.02.01c-.32-.64-.71-1.23-1.18-1.76,0,0,.02,0,.02-.02l.35-.35c.2-.2.2-.51,0-.71s-.51-.2-.71,0l-.35.35s0,.02-.02.02c-.54-.48-1.14-.88-1.8-1.2,0,0,.01-.01.02-.02l.19-.46c.11-.26-.02-.55-.27-.65-.26-.1-.55.02-.65.27l-.19.46s0,.02,0,.02c-.66-.23-1.36-.36-2.08-.41,0,0,0-.02,0-.03v-.5c0-.28-.22-.5-.5-.5s-.5.22-.5.5v.5s0,.02,0,.03c-.74.05-1.45.19-2.12.42,0,0,0-.02,0-.02l-.19-.46c-.11-.26-.4-.38-.65-.27-.25.11-.38.4-.27.65l.19.46s.01.01.02.02c-.64.32-1.23.72-1.77,1.19,0,0,0-.02-.02-.02l-.35-.35c-.2-.2-.51-.2-.71,0s-.2.51,0,.71l.35.35s.02,0,.02.02c-.48.54-.88,1.14-1.2,1.79,0,0-.01-.01-.02-.01l-.46-.19c-.26-.1-.55.02-.65.27-.11.26.02.55.27.65l.46.19s.02,0,.02,0c-.23.66-.36,1.36-.41,2.08,0,0-.02,0-.03,0h-.5c-.28,0-.5.22-.5.5s.22.5.5.5h.5s.02,0,.03,0c.05.74.19,1.45.42,2.12,0,0-.02,0-.02,0l-.46.19c-.25.11-.38.4-.27.65.08.19.27.31.46.31.06,0,.13-.01.19-.04l.46-.19s.01-.01.02-.01c.32.64.71,1.23,1.18,1.76,0,0-.02,0-.02.02l-.35.35c-.2.2-.2.51,0,.71.1.1.23.15.35.15s.26-.05.35-.15l.35-.35s0-.02.02-.02c.54.48,1.14.88,1.79,1.2,0,0-.01.01-.01.02l-.19.46c-.11.26.02.55.27.65.06.03.13.04.19.04.2,0,.38-.12.46-.31l.19-.46s0-.02,0-.02c.66.23,1.36.36,2.08.41,0,0,0,.02,0,.03v.5c0,.28.22.5.5.5s.5-.22.5-.5v-.5s0-.02,0-.03c.74-.05,1.45-.19,2.12-.42,0,0,0,.02,0,.02l.19.46c.08.19.27.31.46.31.06,0,.13-.01.19-.04.25-.11.38-.4.27-.65l-.19-.46s-.01-.01-.01-.02c.64-.32,1.23-.71,1.76-1.18,0,0,0,.02.02.02l.35.35c.1.1.23.15.35.15s.26-.05.35-.15c.2-.2.2-.51,0-.71l-.35-.35s-.02,0-.02-.02c.48-.54.88-1.14,1.2-1.79,0,0,.01.01.02.01l.46.19c.06.03.13.04.19.04.2,0,.38-.12.46-.31.11-.26-.02-.55-.27-.65l-.46-.19s-.02,0-.02,0c.23-.66.36-1.36.41-2.08,0,0,.02,0,.03,0h.5c.28,0,.5-.22.5-.5s-.22-.5-.5-.5Zm-1.77-.18l-3.74.66s0,.01,0,.02c0,1.66-1.34,3-3,3-.19,0-.36-.02-.54-.05l-1.3,3.57c-.07.2-.27.33-.47.33-.06,0-.11,0-.17-.03-.26-.09-.39-.38-.3-.64l1.3-3.58c-.91-.52-1.52-1.48-1.52-2.6,0-.74.28-1.41.72-1.93l-2.45-2.92c-.18-.21-.15-.53.06-.7.21-.18.53-.15.7.06l2.45,2.91c.45-.26.96-.42,1.51-.42,1.3,0,2.4.84,2.82,2l3.75-.66c.27-.05.53.13.58.41.05.27-.13.53-.41.58Z"/></g><path d="m9.72,10.07c-.45.52-.72,1.19-.72,1.93,0,1.12.62,2.08,1.52,2.6l-1.3,3.58c-.09.26.04.55.3.64.06.02.11.03.17.03.2,0,.4-.13.47-.33l1.3-3.57c.18.03.36.05.54.05,1.66,0,3-1.34,3-3,0,0,0-.01,0-.02l3.74-.66c.27-.05.45-.31.41-.58-.05-.27-.31-.46-.58-.41l-3.75.66c-.41-1.16-1.51-2-2.82-2-.55,0-1.07.16-1.51.42l-2.45-2.91c-.18-.21-.49-.24-.7-.06-.21.18-.24.49-.06.7l2.45,2.92Zm2.28.93c.55,0,1,.45,1,1s-.45,1-1,1-1-.45-1-1,.45-1,1-1Z"/></svg>