<svg xmlns="http://www.w3.org/2000/svg" width="24" height="24" viewBox="0 0 24 24"><g opacity="0.4"><path d="m12.73,4.03c-.48-.04-.98-.04-1.46,0-2.64.21-4.96,1.67-6.36,3.99-1.19,1.98-1.54,4.33-1.02,6.54l.91-.45c-.38-1.89-.04-3.88.97-5.57,1.23-2.04,3.27-3.33,5.59-3.51.43-.04.87-.04,1.3,0,2.32.19,4.36,1.47,5.59,3.51,1.02,1.69,1.35,3.68.97,5.57l.91.45c.51-2.21.17-4.56-1.02-6.54-1.4-2.32-3.72-3.78-6.36-3.99Z"/></g><path d="m16.35,19.42l.1.05c.37.18.8.21,1.19.07.39-.14.7-.44.86-.82l1.15-2.7c.2-.48.35-.97.46-1.46l-.91-.45s0,0,0,0l-.39-.2c-.37-.19-.81-.21-1.2-.06-.39.15-.7.46-.86.84l-1.13,2.82c-.29.72.03,1.55.72,1.9Z"/><path d="m5.5,18.72c.16.38.48.68.86.82.17.06.34.09.51.09.23,0,.46-.05.67-.16l.1-.05c.69-.35,1.01-1.18.72-1.9l-1.13-2.82c-.16-.39-.47-.7-.86-.84-.39-.15-.83-.13-1.2.06l-.39.2s0,0,0,0l-.91.45c.12.5.26.99.46,1.46l1.15,2.7Z"/></svg>