<svg xmlns="http://www.w3.org/2000/svg" width="24" height="24" viewBox="0 0 24 24"><g opacity="0.4"><path d="m12,3C7.04,3,3,7.04,3,12v4c0,1.1.9,2,2,2s2-.9,2-2v-3c0-1.1-.9-2-2-2h-.93c.49-3.94,3.86-7,7.93-7s7.44,3.06,7.93,7h-.93c-1.1,0-2,.9-2,2v3c0,1.1.9,2,2,2s2-.9,2-2v-4c0-4.96-4.04-9-9-9Z"/><path d="m12,3C7.04,3,3,7.04,3,12v4c0,1.1.9,2,2,2s2-.9,2-2v-3c0-1.1-.9-2-2-2h-.93c.49-3.94,3.86-7,7.93-7s7.44,3.06,7.93,7h-.93c-1.1,0-2,.9-2,2v3c0,1.1.9,2,2,2s2-.9,2-2v-4c0-4.96-4.04-9-9-9Z"/></g><path d="m19.98,17.73c-.12,1.27-1.18,2.27-2.48,2.27h-2.5c0-.55-.45-1-1-1h-4c-.55,0-1,.45-1,1v1c0,.55.45,1,1,1h4c.55,0,1-.45,1-1h2.5c1.93,0,3.5-1.57,3.5-3.5v-1.5c0,.75-.42,1.39-1.02,1.73Z"/></svg>