<svg xmlns="http://www.w3.org/2000/svg" width="24" height="24" viewBox="0 0 24 24"><g opacity="0.4"><path d="m14.28,12h-4.49c-.37,0-.61-.38-.45-.71l2.66-5.65-.12-.11c-2.05-2.04-5.28-2.04-7.34,0-.99.99-1.54,2.28-1.53,3.65,0,1.36.55,2.65,1.54,3.63l6.06,6c.39.38.9.58,1.41.58.08,0,.16-.01.24-.02l2.51-6.69c.12-.33-.12-.68-.47-.68Z"/></g><path d="m19.46,5.52c-2.06-2.03-5.29-2.03-7.34,0l-.12.12h0s-2.66,5.65-2.66,5.65c-.16.33.09.71.45.71h4.49c.35,0,.59.35.47.68l-2.51,6.69c.43-.05.84-.23,1.17-.55l6.06-6c.99-.98,1.53-2.27,1.54-3.63,0-1.37-.54-2.67-1.53-3.65h0Z"/></svg>