<svg xmlns="http://www.w3.org/2000/svg" width="24" height="24" viewBox="0 0 24 24"><g opacity="0.4"><path d="m12.35,3.15c-.2-.2-.51-.2-.71,0L3.15,11.65c-.14.14-.19.36-.11.54s.26.31.46.31h1.5v6c0,1.38,1.12,2.5,2.5,2.5h9c1.38,0,2.5-1.12,2.5-2.5v-6h1.5c.2,0,.38-.12.46-.31s.03-.4-.11-.54L12.35,3.15Zm2.58,11.03l-2.41,2.32c-.29.28-.75.28-1.04,0l-2.41-2.32s-.03-.03-.05-.05c-.71-.73-.69-1.88.05-2.58.76-.73,1.98-.73,2.73,0l.2.19.2-.19c.76-.73,1.98-.73,2.73,0,.02.02.03.03.05.05.71.73.69,1.88-.05,2.58Z"/></g><path d="m11.48,16.5c.29.28.75.28,1.04,0l2.41-2.32c.74-.7.76-1.85.05-2.58-.02-.02-.03-.03-.05-.05-.76-.73-1.98-.73-2.73,0l-.2.19-.2-.19c-.76-.73-1.98-.73-2.73,0-.74.7-.76,1.85-.05,2.58.02.02.03.03.05.05l2.41,2.32Z"/></svg>