<svg xmlns="http://www.w3.org/2000/svg" width="24" height="24" viewBox="0 0 24 24"><g opacity="0.4"><path d="M7 3A2 2 0 1 0 7 7 2 2 0 1 0 7 3z"/><path d="m20.5,13H3.5c-.28,0-.5.22-.5.5v4c0,1.93,1.57,3.5,3.5,3.5h11c1.93,0,3.5-1.57,3.5-3.5v-4c0-.28-.22-.5-.5-.5Z"/></g><path d="m15.5,10c.28,0,.5-.22.5-.5,0-1.35.42-1.99.92-2.72.51-.76,1.08-1.63,1.08-3.28,0-.28-.22-.5-.5-.5s-.5.22-.5.5c0,1.35-.42,1.99-.92,2.72-.51.76-1.08,1.63-1.08,3.28,0,.28.22.5.5.5Z"/><path d="m12.5,10c.28,0,.5-.22.5-.5,0-1.35.42-1.99.92-2.72.51-.76,1.08-1.63,1.08-3.28,0-.28-.22-.5-.5-.5s-.5.22-.5.5c0,1.35-.42,1.99-.92,2.72-.51.76-1.08,1.63-1.08,3.28,0,.28.22.5.5.5Z"/><path d="m20.5,3c-.28,0-.5.22-.5.5,0,1.35-.42,1.99-.92,2.72-.51.76-1.08,1.63-1.08,3.28,0,.28.22.5.5.5s.5-.22.5-.5c0-1.35.42-1.99.92-2.72.51-.76,1.08-1.63,1.08-3.28,0-.28-.22-.5-.5-.5Z"/><path d="m3.5,13h8.5c-1.8-3-2.7-5-5.4-5-1.99,0-3.6,2-3.6,5v.5c0-.28.22-.5.5-.5Z"/></svg>