<svg xmlns="http://www.w3.org/2000/svg" width="24" height="24" viewBox="0 0 24 24"><g opacity="0.4"><path d="m6,20h4v-3c0-1.1.9-2,2-2s2,.9,2,2v3h4V5H6v15Zm3.5-10.5h2v-2c0-.28.22-.5.5-.5s.5.22.5.5v2h2c.28,0,.5.22.5.5s-.22.5-.5.5h-2v2c0,.28-.22.5-.5.5s-.5-.22-.5-.5v-2h-2c-.28,0-.5-.22-.5-.5s.22-.5.5-.5Z"/></g><path d="m10,17v3h4v-3c0-1.1-.9-2-2-2s-2,.9-2,2Z"/><path d="m5.5,5h13c.28,0,.5-.22.5-.5s-.22-.5-.5-.5H5.5c-.28,0-.5.22-.5.5s.22.5.5.5Z"/><path d="m6,10h-2.75c-.69,0-1.25.56-1.25,1.25v7.5c0,.69.56,1.25,1.25,1.25h2.75v-10Z"/><path d="m20.75,10h-2.75v10h2.75c.69,0,1.25-.56,1.25-1.25v-7.5c0-.69-.56-1.25-1.25-1.25Z"/><path d="m15,10c0-.28-.22-.5-.5-.5h-2v-2c0-.28-.22-.5-.5-.5s-.5.22-.5.5v2h-2c-.28,0-.5.22-.5.5s.22.5.5.5h2v2c0,.28.22.5.5.5s.5-.22.5-.5v-2h2c.28,0,.5-.22.5-.5Z"/></svg>