<svg xmlns="http://www.w3.org/2000/svg" width="24" height="24" viewBox="0 0 24 24"><g opacity="0.4"><path d="m14.35,9.85c-.32-.31-.85-.09-.85.35v1.29h-5c-.28,0-.5.22-.5.5s.22.5.5.5h5v1.29c0,.45.54.67.85.35l1.79-1.79c.2-.2.2-.51,0-.71l-1.79-1.79Z"/></g><path d="m19.5,6c.28,0,.5-.22.5-.5v-2c0-.28-.22-.5-.5-.5s-.5.22-.5.5v2c0,.28.22.5.5.5Z"/><path d="m19,10.5c0,.28.22.5.5.5s.5-.22.5-.5v-2c0-.28-.22-.5-.5-.5s-.5.22-.5.5v2Z"/><path d="m19,15.5c0,.28.22.5.5.5s.5-.22.5-.5v-2c0-.28-.22-.5-.5-.5s-.5.22-.5.5v2Z"/><path d="m19,20.5c0,.28.22.5.5.5s.5-.22.5-.5v-2c0-.28-.22-.5-.5-.5s-.5.22-.5.5v2Z"/></svg>