<svg xmlns="http://www.w3.org/2000/svg" width="24" height="24" viewBox="0 0 24 24"><g opacity="0.4"><path d="m12,9c-2.76,0-5,2.24-5,5v.49c.64-.02.96-.2,1.34-.42.45-.27.97-.57,1.95-.57s1.5.3,1.95.57c.41.24.73.43,1.45.43s1.04-.19,1.45-.43c.43-.25.92-.53,1.81-.56-.25-2.52-2.36-4.51-4.95-4.51Z"/></g><path d="m20.5,14.5c-.71,0-1.04-.19-1.45-.43-.45-.27-.97-.57-1.95-.57s-1.5.3-1.96.57c-.41.24-.73.43-1.45.43s-1.04-.19-1.45-.43c-.45-.27-.97-.57-1.95-.57s-1.5.3-1.95.57c-.41.24-.73.43-1.45.43s-1.04-.19-1.44-.43c-.45-.27-.97-.57-1.95-.57-.28,0-.5.22-.5.5s.22.5.5.5c.71,0,1.04.19,1.44.43.45.27.97.57,1.95.57s1.5-.3,1.95-.57c.41-.24.73-.43,1.44-.43s1.04.19,1.45.43c.45.27.97.57,1.95.57s1.5-.3,1.96-.57c.41-.24.73-.43,1.45-.43s1.04.19,1.45.43c.45.27.97.57,1.96.57.28,0,.5-.22.5-.5s-.22-.5-.5-.5Z"/><path d="m20.5,18c-.71,0-1.04-.19-1.45-.43-.45-.27-.97-.57-1.95-.57s-1.5.3-1.96.57c-.41.24-.73.43-1.45.43s-1.04-.19-1.45-.43c-.45-.27-.97-.57-1.95-.57s-1.5.3-1.95.57c-.41.24-.73.43-1.45.43s-1.04-.19-1.44-.43c-.45-.27-.97-.57-1.95-.57-.28,0-.5.22-.5.5s.22.5.5.5c.71,0,1.04.19,1.44.43.45.27.97.57,1.95.57s1.5-.3,1.95-.57c.41-.24.73-.43,1.44-.43s1.04.19,1.45.43c.45.27.97.57,1.95.57s1.5-.3,1.96-.57c.41-.24.73-.43,1.45-.43s1.04.19,1.45.43c.45.27.97.57,1.96.57.28,0,.5-.22.5-.5s-.22-.5-.5-.5Z"/><path d="m12,7c.28,0,.5-.22.5-.5v-2c0-.28-.22-.5-.5-.5s-.5.22-.5.5v2c0,.28.22.5.5.5Z"/><path d="m17.5,9c.13,0,.26-.05.35-.15l1-1c.2-.2.2-.51,0-.71s-.51-.2-.71,0l-1,1c-.2.2-.2.51,0,.71.1.1.23.15.35.15Z"/><path d="m6.15,8.85c.1.1.23.15.35.15s.26-.05.35-.15c.2-.2.2-.51,0-.71l-1-1c-.2-.2-.51-.2-.71,0s-.2.51,0,.71l1,1Z"/></svg>