<svg xmlns="http://www.w3.org/2000/svg" width="24" height="24" viewBox="0 0 24 24"><g opacity="0.4"><path d="m12.35,3.15c-.2-.2-.51-.2-.71,0L3.15,11.65c-.14.14-.19.36-.11.54s.26.31.46.31h1.5v6c0,1.38,1.12,2.5,2.5,2.5h9c1.38,0,2.5-1.12,2.5-2.5v-6h1.5c.2,0,.38-.12.46-.31s.03-.4-.11-.54L12.35,3.15Zm2.65,10.85h-2.5v2.5c0,.28-.22.5-.5.5s-.5-.22-.5-.5v-2.5h-2.5c-.28,0-.5-.22-.5-.5s.22-.5.5-.5h2.5v-2.5c0-.28.22-.5.5-.5s.5.22.5.5v2.5h2.5c.28,0,.5.22.5.5s-.22.5-.5.5Z"/></g><path d="m12,17c.28,0,.5-.22.5-.5v-2.5h2.5c.28,0,.5-.22.5-.5s-.22-.5-.5-.5h-2.5v-2.5c0-.28-.22-.5-.5-.5s-.5.22-.5.5v2.5h-2.5c-.28,0-.5.22-.5.5s.22.5.5.5h2.5v2.5c0,.28.22.5.5.5Z"/></svg>