<svg xmlns="http://www.w3.org/2000/svg" width="24" height="24" viewBox="0 0 24 24"><g opacity="0.4"><path d="m12,3C7.04,3,3,7.04,3,12s4.04,9,9,9,9-4.04,9-9S16.96,3,12,3Zm-3.5,6c.83,0,1.5.67,1.5,1.5s-.67,1.5-1.5,1.5-1.5-.67-1.5-1.5.67-1.5,1.5-1.5Zm8.07,6.08c-.6,1.18-1.94,2.92-4.57,2.92s-3.97-1.74-4.57-2.92c-.25-.49.12-1.08.67-1.08h7.79c.56,0,.93.58.67,1.08Zm-1.07-3.08c-.83,0-1.5-.67-1.5-1.5s.67-1.5,1.5-1.5,1.5.67,1.5,1.5-.67,1.5-1.5,1.5Z"/></g><path d="M8.5 9A1.5 1.5 0 1 0 8.5 12 1.5 1.5 0 1 0 8.5 9z"/><path d="m15.5,12c.83,0,1.5-.67,1.5-1.5s-.67-1.5-1.5-1.5-1.5.67-1.5,1.5.67,1.5,1.5,1.5Z"/><path d="m15.9,14h-7.79c-.56,0-.93.58-.67,1.08.6,1.18,1.94,2.92,4.57,2.92s3.97-1.74,4.57-2.92c.25-.49-.12-1.08-.67-1.08Z"/></svg>