<svg xmlns="http://www.w3.org/2000/svg" width="24" height="24" viewBox="0 0 24 24"><g opacity="0.4"><path d="M14 16A1 1 0 1 0 14 18 1 1 0 1 0 14 16z"/><path d="M18 16A1 1 0 1 0 18 18 1 1 0 1 0 18 16z"/><path d="m19.4,5.95c-.27-1.71-1.73-2.95-3.46-2.95h-7.88c-1.73,0-3.18,1.24-3.46,2.95l-1.56,9.74c-.03.18-.04.37-.04.55v.26c0-1.38,1.12-2.5,2.5-2.5h13c1.38,0,2.5,1.12,2.5,2.5v-.26c0-.19-.01-.37-.04-.55l-1.56-9.74Z"/></g><path d="m18.5,14H5.5c-1.38,0-2.5,1.12-2.5,2.5v1c0,1.38,1.12,2.5,2.5,2.5h13c1.38,0,2.5-1.12,2.5-2.5v-1c0-1.38-1.12-2.5-2.5-2.5Zm-4.5,4c-.55,0-1-.45-1-1s.45-1,1-1,1,.45,1,1-.45,1-1,1Zm4,0c-.55,0-1-.45-1-1s.45-1,1-1,1,.45,1,1-.45,1-1,1Z"/></svg>