<svg xmlns="http://www.w3.org/2000/svg" width="24" height="24" viewBox="0 0 24 24"><g opacity="0.4"><path d="m17.87,3.7c-.77-.77-2.04-.78-2.82-.01l-7.25,7.14,4.24,4.24,7.23-7.12s0,0,0,0c.38-.38.59-.88.6-1.42,0-.54-.21-1.04-.59-1.42l-1.41-1.41Z"/></g><path d="m19.5,20H4.5c-.28,0-.5.22-.5.5s.22.5.5.5h15c.28,0,.5-.22.5-.5s-.22-.5-.5-.5Z"/><path d="m8.65,16.2l2.8-.65c.09-.02.17-.07.24-.13l.36-.35-2.12-2.12-1.42-1.42h0s-.71-.71-.71-.71l-.35.35c-.07.07-.12.15-.14.24l-.79,3.42-2.52,3.16h2.83l1.82-1.8Z"/></svg>