<svg xmlns="http://www.w3.org/2000/svg" width="24" height="24" viewBox="0 0 24 24"><g opacity="0.4"><path d="m17.21,11c-1.03,0-1.99.48-2.7,1.34-2.02,2.33-4.37,1.17-5.29.56.85-.58,1.39-1.52,1.39-2.62,0-1.81-1.5-3.29-3.33-3.29s-3.33,1.47-3.33,3.29c0,.28.22.5.5.5s.5-.22.5-.5c0-1.26,1.05-2.29,2.33-2.29s2.33,1.03,2.33,2.29-1.03,2.21-2.33,2.21c-.28,0-.5.22-.5.5s.22.5.5.5c1.78,0,3.28,1.5,3.28,3.29s-1.47,3.21-3.28,3.21-3.28-1.44-3.28-3.21c0-.28-.22-.5-.5-.5s-.5.22-.5.5c0,2.32,1.92,4.21,4.28,4.21s4.28-1.89,4.28-4.21c0-.77-.22-1.49-.58-2.11,1.36.22,2.92-.1,4.29-1.69,1.05-1.27,2.83-1.28,3.88,0,.55.67.85,1.56.85,2.51s-.3,1.84-.85,2.51c-1.05,1.28-2.83,1.27-3.88,0-.18-.21-.49-.24-.7-.07-.21.18-.24.49-.07.7.72.87,1.68,1.35,2.71,1.35s1.99-.48,2.71-1.35c.69-.85,1.08-1.96,1.08-3.15s-.38-2.3-1.08-3.15c-.72-.87-1.68-1.35-2.71-1.35Z"/></g><path class="st0" d="M20.5,4C20.2,4,20,4.2,20,4.5C20,6.4,18.2,8,16,8s-4-1.6-4-3.5C12,4.2,11.8,4,11.5,4S11,4.2,11,4.5
	C11,7,13.2,9,16,9s5-2,5-4.5C21,4.2,20.8,4,20.5,4z"/><path class="st0" d="M14.9,4.2l0.4-0.4l0.4-0.4c0.1-0.1,0.2-0.1,0.4-0.1c0.1,0,0.3,0,0.4,0.1l0.4,0.4l0.4,0.4
	c0.1,0.1,0.1,0.2,0.1,0.4s0,0.3-0.1,0.4l-0.4,0.4l-0.4,0.4c-0.1,0.1-0.2,0.1-0.4,0.1s-0.3,0-0.4-0.1l-0.4-0.4l-0.4-0.4
	c-0.1-0.1-0.1-0.2-0.1-0.4S14.8,4.3,14.9,4.2z"/></svg>