<svg xmlns="http://www.w3.org/2000/svg" width="24" height="24" viewBox="0 0 24 24"><g opacity="0.4"><path d="m20.5,12c-.28,0-.5.22-.5.5v2.5c-.66,0-.96-.19-1.34-.42-.43-.27-.92-.58-1.87-.58s-1.43.31-1.87.58c-.38.24-.68.42-1.34.42s-.96-.19-1.33-.42c-.43-.27-.92-.58-1.87-.58s-1.43.31-1.86.58c-.38.24-.68.42-1.33.42s-.96-.19-1.33-.42c-.43-.27-.92-.58-1.86-.58v-1.5c0-.28-.22-.5-.5-.5s-.5.22-.5.5v5c0,.95.38,1.81,1,2.44v.06h.06c.63.62,1.49,1,2.44,1h11c.95,0,1.81-.38,2.44-1h.06v-.06c.62-.63,1-1.49,1-2.44v-5c0-.28-.22-.5-.5-.5Z"/></g><path d="m15.5,10c.28,0,.5-.22.5-.5,0-1.35.42-1.99.92-2.72.51-.76,1.08-1.63,1.08-3.28,0-.28-.22-.5-.5-.5s-.5.22-.5.5c0,1.35-.42,1.99-.92,2.72-.51.76-1.08,1.63-1.08,3.28,0,.28.22.5.5.5Z"/><path d="m12.5,10c.28,0,.5-.22.5-.5,0-1.35.42-1.99.92-2.72.51-.76,1.08-1.63,1.08-3.28,0-.28-.22-.5-.5-.5s-.5.22-.5.5c0,1.35-.42,1.99-.92,2.72-.51.76-1.08,1.63-1.08,3.28,0,.28.22.5.5.5Z"/><path d="m20.5,3c-.28,0-.5.22-.5.5,0,1.35-.42,1.99-.92,2.72-.51.76-1.08,1.63-1.08,3.28,0,.28.22.5.5.5s.5-.22.5-.5c0-1.35.42-1.99.92-2.72.51-.76,1.08-1.63,1.08-3.28,0-.28-.22-.5-.5-.5Z"/></svg>