<svg xmlns="http://www.w3.org/2000/svg" width="24" height="24" viewBox="0 0 24 24"><g opacity="0.4"><path d="m3,15.5c0,.28.22.5.5.5h3.34l.2-1h-3.54c-.28,0-.5.22-.5.5Z"/><path d="M7.86 16 14.54 16 14.74 15 8.06 15 7.86 16z"/><path d="m19.5,15h-3.74l-.2,1h3.94c.28,0,.5-.22.5-.5s-.22-.5-.5-.5Z"/><path d="M16.14 8 9.46 8 9.26 9 15.94 9 16.14 8z"/><path d="m4,8.5c0,.28.22.5.5.5h3.74l.2-1h-3.94c-.28,0-.5.22-.5.5Z"/><path d="m20.5,8h-3.34l-.2,1h3.54c.28,0,.5-.22.5-.5s-.22-.5-.5-.5Z"/></g><path d="m9.75,4.01c-.26-.06-.53.12-.59.39l-3,15c-.05.27.12.53.39.59.03,0,.07,0,.1,0,.23,0,.44-.16.49-.4l3-15c.05-.27-.12-.53-.39-.59Z"/><path d="m17.45,4.01c-.26-.06-.53.12-.59.39l-3,15c-.05.27.12.53.39.59.03,0,.07,0,.1,0,.23,0,.44-.16.49-.4l3-15c.05-.27-.12-.53-.39-.59Z"/></svg>