<svg xmlns="http://www.w3.org/2000/svg" width="24" height="24" viewBox="0 0 24 24"><g opacity="0.4"><path d="m12,3C7.04,3,3,7.04,3,12s4.04,9,9,9,9-4.04,9-9S16.96,3,12,3Zm4.18,9.77l-3.47,3.51c-.39.4-1.03.4-1.42,0l-3.47-3.51c-1.09-1.1-1.09-2.84,0-3.95,1.09-1.1,2.82-1.1,3.91,0l.28.28.28-.28c1.09-1.1,2.81-1.1,3.91,0,1.09,1.11,1.09,2.85,0,3.95Z"/></g><path d="m11.29,16.28c.39.4,1.03.4,1.42,0l3.47-3.51c1.09-1.1,1.09-2.84,0-3.95-1.09-1.1-2.82-1.1-3.91,0l-.28.28-.28-.28c-1.09-1.1-2.81-1.1-3.91,0-1.09,1.11-1.09,2.85,0,3.95l3.47,3.51Z"/></svg>