<svg xmlns="http://www.w3.org/2000/svg" width="24" height="24" viewBox="0 0 24 24"><g opacity="0.4"><path d="m19,5h-.06c-.63-.62-1.49-1-2.44-1H7.5c-.95,0-1.81.38-2.44,1h-.06v.06c-.62.63-1,1.49-1,2.44v9c0,1.93,1.57,3.5,3.5,3.5h6c.28,0,.5-.22.5-.5s-.22-.5-.5-.5h-6c-1.31,0-2.38-1.02-2.48-2.31l2.27-2.27c.39-.39,1.02-.39,1.41,0l.41.41c.49.49,1.28.49,1.77,0l4.41-4.41c.39-.39,1.02-.39,1.41,0l2.29,2.29v.79c0,.28.22.5.5.5s.5-.22.5-.5v-6c0-.95-.38-1.81-1-2.44v-.06Zm-10.5,5c-.83,0-1.5-.67-1.5-1.5s.67-1.5,1.5-1.5,1.5.67,1.5,1.5-.67,1.5-1.5,1.5Z"/></g><path d="m22.5,19h-2.5v-2.5c0-.28-.22-.5-.5-.5s-.5.22-.5.5v2.5h-2.5c-.28,0-.5.22-.5.5s.22.5.5.5h2.5v2.5c0,.28.22.5.5.5s.5-.22.5-.5v-2.5h2.5c.28,0,.5-.22.5-.5s-.22-.5-.5-.5Z"/></svg>