<svg xmlns="http://www.w3.org/2000/svg" width="24" height="24" viewBox="0 0 24 24"><g opacity="0.4"><path d="m17.23,4.03c-.65-.65-1.55-1.03-2.47-1.03h-5.52c-.92,0-1.82.37-2.47,1.03l-2.74,2.74c-.66.66-1.03,1.54-1.03,2.48v5.51c0,.93.36,1.81,1.03,2.48l2.74,2.74c.65.65,1.55,1.03,2.47,1.03h5.52c.92,0,1.82-.37,2.47-1.03l2.74-2.74c.66-.66,1.03-1.54,1.03-2.48v-5.51c0-.93-.36-1.81-1.03-2.48l-2.74-2.74Zm-4.73,11.47c0,.28-.22.5-.5.5s-.5-.22-.5-.5v-4.5c0-.28.22-.5.5-.5s.5.22.5.5v4.5Zm-.5-6.5c-.28,0-.5-.22-.5-.5s.22-.5.5-.5.5.22.5.5-.22.5-.5.5Z"/></g><path d="M12 8A.5.5 0 1 0 12 9 .5.5 0 1 0 12 8z"/><path d="m11.5,11v4.5c0,.28.22.5.5.5s.5-.22.5-.5v-4.5c0-.28-.22-.5-.5-.5s-.5.22-.5.5Z"/></svg>