<svg xmlns="http://www.w3.org/2000/svg" width="24" height="24" viewBox="0 0 24 24"><g opacity="0.4"><path d="m19,5h-.06c-.63-.62-1.49-1-2.44-1H7.5c-.95,0-1.81.38-2.44,1h-.06v.06c-.62.63-1,1.49-1,2.44v9c0,1.93,1.57,3.5,3.5,3.5h6c.28,0,.5-.22.5-.5s-.22-.5-.5-.5h-6c-1.31,0-2.38-1.02-2.48-2.31l2.27-2.27c.39-.39,1.02-.39,1.41,0l.41.41c.49.49,1.28.49,1.77,0l4.41-4.41c.39-.39,1.02-.39,1.41,0l2.29,2.29v.79c0,.28.22.5.5.5s.5-.22.5-.5v-6c0-.95-.38-1.81-1-2.44v-.06Zm-10.5,5c-.83,0-1.5-.67-1.5-1.5s.67-1.5,1.5-1.5,1.5.67,1.5,1.5-.67,1.5-1.5,1.5Z"/></g><path d="m20.72,17.54l-1.12-.56c-.25-.12-.45-.33-.57-.58l-.57-1.14c-.17-.35-.74-.35-.92,0l-.57,1.14c-.12.25-.33.45-.57.58l-1.11.56c-.18.09-.29.27-.28.47,0,.2.12.38.3.46l1.06.49c.27.12.49.34.62.61l.55,1.15c.09.18.26.29.46.29h0c.2,0,.38-.12.46-.3l.49-1.06c.12-.27.34-.49.61-.62l1.16-.56c.18-.09.29-.26.29-.46,0-.2-.11-.38-.28-.46Z"/></svg>