<svg xmlns="http://www.w3.org/2000/svg" width="24" height="24" viewBox="0 0 24 24"><g opacity="0.4"><path d="m16,6c.53,0,1.07.08,1.6.22.22.06.46-.04.57-.24.11-.2.07-.46-.1-.61-1.67-1.53-3.83-2.37-6.08-2.37C7.04,3,3,7.04,3,12s4.04,9,9,9c2.25,0,4.41-.84,6.08-2.37.17-.16.21-.41.1-.61-.11-.2-.35-.3-.57-.24-.54.15-1.08.22-1.6.22-3.31,0-6-2.69-6-6s2.69-6,6-6Z"/></g><path d="m19.59,10.87l-1.47-.13-.73-1.49c-.16-.33-.63-.33-.79,0l-.73,1.49-1.47.13c-.37.03-.54.49-.27.75l1.2,1.2-.47,1.52c-.12.4.32.73.67.5l1.47-.98,1.47.98c.35.23.79-.1.67-.5l-.47-1.52,1.2-1.2c.27-.27.1-.72-.27-.75Z"/></svg>