<svg xmlns="http://www.w3.org/2000/svg" width="24" height="24" viewBox="0 0 24 24"><g opacity="0.4"><path d="m17.5,5H6.5c-1.38,0-2.5,1.12-2.5,2.5v5.5h3.42s.05.09.07.13c.44.16.83.47,1.09.9.73,1.23,2.01,1.96,3.42,1.96s2.7-.73,3.42-1.96c.26-.44.65-.74,1.09-.9.02-.04.05-.09.07-.13h3.42v-5.5c0-1.38-1.12-2.5-2.5-2.5Z"/></g><path d="m17.5,4H6.5c-1.93,0-3.5,1.57-3.5,3.5v9c0,.95.38,1.81,1,2.44v.06h.06c.63.62,1.49,1,2.44,1h11c.95,0,1.81-.38,2.44-1h.06v-.06c.62-.63,1-1.49,1-2.44V7.5c0-1.93-1.57-3.5-3.5-3.5Zm2.5,9h-3.42s-.05.09-.07.13c-.44.16-.83.47-1.09.9-.73,1.23-2.01,1.96-3.42,1.96s-2.7-.73-3.42-1.96c-.26-.44-.65-.74-1.09-.9-.02-.04-.05-.09-.07-.13h-3.42v-5.5c0-1.38,1.12-2.5,2.5-2.5h11c1.38,0,2.5,1.12,2.5,2.5v5.5Z"/></svg>