<svg xmlns="http://www.w3.org/2000/svg" width="24" height="24" viewBox="0 0 24 24"><g opacity="0.4"><path d="m16,6h-8c-3.31,0-6,2.69-6,6s2.69,6,6,6h8c3.31,0,6-2.69,6-6s-2.69-6-6-6Zm-6,7h-1v1c0,.55-.45,1-1,1s-1-.45-1-1v-1h-1c-.55,0-1-.45-1-1s.45-1,1-1h1v-1c0-.55.45-1,1-1s1,.45,1,1v1h1c.55,0,1,.45,1,1s-.45,1-1,1Zm6,1c-.55,0-1-.45-1-1s.45-1,1-1,1,.45,1,1-.45,1-1,1Zm2-2c-.55,0-1-.45-1-1s.45-1,1-1,1,.45,1,1-.45,1-1,1Z"/></g><path d="M16 12A1 1 0 1 0 16 14 1 1 0 1 0 16 12z"/><path d="m6,13h1v1c0,.55.45,1,1,1s1-.45,1-1v-1h1c.55,0,1-.45,1-1s-.45-1-1-1h-1v-1c0-.55-.45-1-1-1s-1,.45-1,1v1h-1c-.55,0-1,.45-1,1s.45,1,1,1Z"/><path d="M18 10A1 1 0 1 0 18 12 1 1 0 1 0 18 10z"/></svg>