<svg xmlns="http://www.w3.org/2000/svg" width="24" height="24" viewBox="0 0 24 24"><g opacity="0.4"><path d="m18.5,8h-2c-.28,0-.5-.22-.5-.5v-2c0-1.38-1.12-2.5-2.5-2.5h-3c-1.38,0-2.5,1.12-2.5,2.5v2c0,.28-.22.5-.5.5h-2c-1.38,0-2.5,1.12-2.5,2.5v3c0,1.38,1.12,2.5,2.5,2.5h2c.28,0,.5.22.5.5v2c0,1.38,1.12,2.5,2.5,2.5h3c1.38,0,2.5-1.12,2.5-2.5v-2c0-.28.22-.5.5-.5h2c1.38,0,2.5-1.12,2.5-2.5v-3c0-1.38-1.12-2.5-2.5-2.5Zm-10.5,5.53c0,.2-.22.32-.39.21l-2.3-1.53c-.15-.1-.15-.32,0-.42l2.3-1.53c.17-.11.39,0,.39.21v3.07Zm5.74,2.86l-1.53,2.3c-.1.15-.32.15-.42,0l-1.53-2.3c-.11-.17,0-.39.21-.39h3.07c.2,0,.32.22.21.39Zm-3.24-4.39c0-.83.67-1.5,1.5-1.5s1.5.67,1.5,1.5-.67,1.5-1.5,1.5-1.5-.67-1.5-1.5Zm3.03-4h-3.07c-.2,0-.32-.22-.21-.39l1.53-2.3c.1-.15.32-.15.42,0l1.53,2.3c.11.17,0,.39-.21.39Zm5.16,4.21l-2.3,1.53c-.17.11-.39,0-.39-.21v-3.07c0-.2.22-.32.39-.21l2.3,1.53c.15.1.15.32,0,.42Z"/></g><path d="m11.79,18.69c.1.15.32.15.42,0l1.53-2.3c.11-.17,0-.39-.21-.39h-3.07c-.2,0-.32.22-.21.39l1.53,2.3Z"/><path d="m7.61,13.74c.17.11.39,0,.39-.21v-3.07c0-.2-.22-.32-.39-.21l-2.3,1.53c-.15.1-.15.32,0,.42l2.3,1.53Z"/><path d="M12 10.5A1.5 1.5 0 1 0 12 13.5 1.5 1.5 0 1 0 12 10.5z"/><path d="m16.39,13.74l2.3-1.53c.15-.1.15-.32,0-.42l-2.3-1.53c-.17-.11-.39,0-.39.21v3.07c0,.2.22.32.39.21Z"/><path d="m10.47,8h3.07c.2,0,.32-.22.21-.39l-1.53-2.3c-.1-.15-.32-.15-.42,0l-1.53,2.3c-.11.17,0,.39.21.39Z"/></svg>