<svg xmlns="http://www.w3.org/2000/svg" width="24" height="24" viewBox="0 0 24 24"><g opacity="0.4"><path d="m12,12.71l3.5-3.5,1.65,1.65c.1.1.23.15.35.15s.26-.05.35-.15c.2-.2.2-.51,0-.71l-1.65-1.65,1.29-1.29,2.15,2.15c.1.1.23.15.35.15s.26-.05.35-.15c.2-.2.2-.51,0-.71l-2.15-2.15,1.15-1.15c.2-.2.2-.51,0-.71s-.51-.2-.71,0l-7.35,7.35c.26.21.5.45.71.71Z"/></g><path d="m8.5,20c2.48,0,4.5-2.02,4.5-4.5s-2.02-4.5-4.5-4.5-4.5,2.02-4.5,4.5,2.02,4.5,4.5,4.5Zm0-8c1.93,0,3.5,1.57,3.5,3.5s-1.57,3.5-3.5,3.5-3.5-1.57-3.5-3.5,1.57-3.5,3.5-3.5Z"/></svg>