<svg xmlns="http://www.w3.org/2000/svg" width="24" height="24" viewBox="0 0 24 24"><g opacity="0.4"><path d="m12.35,16.6l-2.12,2.12c-.33.33-.72.59-1.16.77-.84.34-1.79.34-2.64,0-.43-.18-.82-.43-1.16-.77-.33-.33-.59-.72-.77-1.16-.17-.42-.26-.86-.26-1.32s.09-.9.26-1.32c.17-.43.43-.82.77-1.16l2.12-2.12c.2-.2.2-.51,0-.71-.2-.2-.51-.19-.71,0l-2.12,2.12c-.43.43-.76.93-.99,1.49-.22.54-.33,1.11-.33,1.69s.11,1.15.33,1.69c.23.56.56,1.06.99,1.49.43.43.93.76,1.49.99.54.22,1.11.33,1.69.33s1.15-.11,1.69-.33c.56-.23,1.06-.56,1.49-.99l2.12-2.12c.2-.2.2-.51,0-.71-.2-.2-.51-.2-.71,0Z"/><path d="m19.42,4.58c-.43-.43-.93-.76-1.49-.99-1.08-.44-2.31-.44-3.39,0-.56.23-1.06.56-1.49.99l-2.12,2.12c-.2.2-.2.51,0,.71s.51.2.71,0l2.12-2.12c.33-.33.72-.59,1.16-.77.84-.34,1.8-.34,2.64,0,.43.18.82.43,1.16.77s.59.72.77,1.16c.17.42.26.86.26,1.32s-.09.9-.26,1.32c-.17.43-.43.82-.77,1.16l-2.12,2.12c-.2.2-.2.51,0,.71.1.1.23.15.35.15s.26-.05.35-.15l2.12-2.12c.43-.43.76-.93.99-1.49.22-.54.33-1.11.33-1.69s-.11-1.15-.33-1.69c-.23-.56-.56-1.06-.99-1.49Z"/></g><path d="m7.76,16.74c.13,0,.26-.05.35-.15l8.49-8.49c.2-.2.2-.51,0-.71s-.51-.2-.71,0L7.4,15.89c-.2.2-.2.51,0,.71.1.1.23.15.35.15Z"/></svg>