<svg xmlns="http://www.w3.org/2000/svg" width="24" height="24" viewBox="0 0 24 24"><g opacity="0.4"><path d="m14.5,11.5H4.5c-.28,0-.5.22-.5.5s.22.5.5.5h10c.28,0,.5-.22.5-.5s-.22-.5-.5-.5Z"/><path d="m14.5,7H4.5c-.28,0-.5.22-.5.5s.22.5.5.5h10c.28,0,.5-.22.5-.5s-.22-.5-.5-.5Z"/><path d="m11.5,16h-7c-.28,0-.5.22-.5.5s.22.5.5.5h7c.28,0,.5-.22.5-.5s-.22-.5-.5-.5Z"/></g><path d="m19.5,7h-1.25c-.69,0-1.25.56-1.25,1.25v7.03c-.3-.17-.63-.28-1-.28-1.1,0-2,.9-2,2s.9,2,2,2,2-.9,2-2v-8.75c0-.14.11-.25.25-.25h1.25c.28,0,.5-.22.5-.5s-.22-.5-.5-.5Z"/></svg>