<svg xmlns="http://www.w3.org/2000/svg" width="24" height="24" viewBox="0 0 24 24"><g opacity="0.4"><path d="m20.71,7.12c.31-.62.38-1.32.2-2.01-.25-.97-1.04-1.76-2.01-2.01-.69-.18-1.39-.11-2.01.2-.48.24-1.19.47-1.87.23-1.43-.51-2.93-.65-4.47-.4-3.77.6-6.83,3.65-7.43,7.43-.24,1.53-.11,3.04.41,4.47.24.67,0,1.39-.23,1.87-.31.62-.38,1.32-.2,2.01.25.97,1.04,1.76,2.01,2.01.69.18,1.39.11,2.01-.2.48-.24,1.19-.47,1.87-.23.97.35,1.98.52,3,.52.49,0,.97-.04,1.47-.12,3.77-.6,6.83-3.65,7.43-7.43.24-1.53.11-3.04-.41-4.47-.24-.68,0-1.39.23-1.87Zm-8.71.88c-2.21,0-4,1.79-4,4,0,.28-.22.5-.5.5s-.5-.22-.5-.5c0-2.76,2.24-5,5-5,.28,0,.5.22.5.5s-.22.5-.5.5Z"/></g><path d="m7.5,12.5c.28,0,.5-.22.5-.5,0-2.21,1.79-4,4-4,.28,0,.5-.22.5-.5s-.22-.5-.5-.5c-2.76,0-5,2.24-5,5,0,.28.22.5.5.5Z"/></svg>