<svg xmlns="http://www.w3.org/2000/svg" width="24" height="24" viewBox="0 0 24 24"><g opacity="0.4"><path d="m19.07,8.67l-5.43-2.87c-1.03-.54-2.25-.54-3.28,0l-5.43,2.87c-.49.26-.8.77-.8,1.33s.3,1.06.8,1.33l5.43,2.87c.51.27,1.08.41,1.64.41s1.12-.14,1.64-.41l5.43-2.87h0c.49-.26.8-.77.8-1.33s-.3-1.06-.8-1.33Z"/></g><path d="m19.07,12.67l-1.27-.67-4.15,2.2c-.51.27-1.08.41-1.64.41s-1.12-.14-1.64-.41l-4.15-2.2-1.27.67c-.49.26-.8.77-.8,1.33s.3,1.06.8,1.33l5.43,2.87c.51.27,1.08.41,1.64.41s1.12-.14,1.64-.41l5.43-2.87h0c.49-.26.8-.77.8-1.33s-.3-1.06-.8-1.33Z"/></svg>