<svg xmlns="http://www.w3.org/2000/svg" width="24" height="24" viewBox="0 0 24 24"><g opacity="0.4"><path d="m18.87,3.12c-2.66-.26-9.26-.46-13.11,3.38-.64.64-1.2,1.38-1.66,2.22-1.52,2.73-1.44,5.81.1,8.3.37.6,1.25.56,1.57-.07,1.37-2.68,3.45-4.94,5.98-6.55.23-.15.47.17.27.35-2.4,2.29-4.12,5.37-4.63,8.6-.06.38.14.77.5.93,1.03.47,2.13.71,3.25.71,1.39,0,2.8-.36,4.12-1.1.84-.47,1.59-1.03,2.22-1.66,3.84-3.84,3.65-10.45,3.38-13.11-.1-1.06-.95-1.9-2.01-2.01Z"/></g><path d="m3.3,14.96c-.07-.29-.15-.58-.19-.87.05.29.11.58.19.87Z"/><path d="m10.38,20.96c-.85-.08-1.69-.31-2.48-.66-.35-.16-.55-.55-.5-.93.51-3.23,2.23-6.31,4.63-8.6.2-.19-.05-.5-.27-.35-2.53,1.61-4.61,3.87-5.98,6.55-.32.63-1.2.67-1.57.07-.4-.65-.7-1.35-.9-2.07.35,1.34,1.03,2.6,2.08,3.65,1.4,1.4,3.16,2.2,4.99,2.34Z"/></svg>