<svg xmlns="http://www.w3.org/2000/svg" width="24" height="24" viewBox="0 0 24 24"><g opacity="0.4"><path d="m8.97,4.33c-.07-.2-.26-.33-.47-.33h-1c-.21,0-.4.13-.47.33l-3.5,10c-.09.26.05.55.31.64.26.09.55-.05.64-.31l1.11-3.17h4.84l1.11,3.17c.07.21.26.33.47.33.05,0,.11,0,.17-.03.26-.09.4-.38.31-.64l-3.5-10Zm-3.04,6.17l1.93-5.5h.29l1.93,5.5h-4.14Z"/><path d="m20.17,4.03c-.26-.09-.55.05-.64.31l-3.38,9.67h-.29l-3.38-9.67c-.09-.26-.37-.4-.64-.31-.26.09-.4.38-.31.64l3.5,10c.07.2.26.33.47.33h1c.21,0,.4-.13.47-.33l3.5-10c.09-.26-.05-.55-.31-.64Z"/></g><path d="m18.41,16.34c-.16-.14-.41-.02-.41.19v1.47H6v-1.47c0-.21-.25-.33-.41-.19l-2.36,1.97c-.12.1-.12.28,0,.38l2.36,1.97c.16.14.41.02.41-.19v-1.47h12v1.47c0,.21.25.33.41.19l2.36-1.97c.12-.1.12-.28,0-.38l-2.36-1.97Z"/></svg>