<svg xmlns="http://www.w3.org/2000/svg" width="24" height="24" viewBox="0 0 24 24"><g opacity="0.4"><path d="m20.65,3.46c-.19-.07-.4-.02-.53.12-.02.02-1.93,1.93-5.09.34-1.84-.93-5.04-1.48-7.98,0-3.84,1.93-5.18,6.81-3.05,11.1.15.3.31.58.48.85.52-2.25,1.46-4.03,2.83-5.31,2.37-2.22,5.12-2.07,5.23-2.06.27.02.47.24.46.51-.95.06-3.01.39-4.82,2.09-.06.05-.11.12-.16.18-.01.01-.03.02-.04.04-1.37,1.29-2.26,3.19-2.68,5.64,0,0,0,0,.01.01-.19,1.08-.3,2.26-.3,3.54,0,.28.22.5.5.5s.5-.22.5-.5c0-.98.06-1.89.18-2.74.74.57,1.57.98,2.51,1.21.58.14,1.16.19,1.73.19,2.2,0,4.23-.88,5.16-1.58,1.72-1.3,3.04-2.45,4.39-5.41,1.28-2.81,1.01-8.04,1-8.26-.01-.2-.14-.37-.32-.44Z"/></g><path d="M5.29 16.95 5.29 16.94 5.29 16.95 5.29 16.95z"/><path d="M5.3 16.96 5.29 16.95 5.3 16.96 5.3 16.96z"/><path d="m7.97,11.31s.03-.02.04-.04c.06-.06.11-.12.16-.18,1.81-1.7,3.86-2.03,4.82-2.09,0-.26-.2-.49-.46-.51-.11,0-2.86-.16-5.23,2.06-1.36,1.28-2.31,3.05-2.83,5.31.25.39.52.75.82,1.07.42-2.45,1.31-4.35,2.68-5.64Z"/></svg>