<svg xmlns="http://www.w3.org/2000/svg" width="24" height="24" viewBox="0 0 24 24"><g opacity="0.4"><path d="m12,6c-1.75,0-3.19.38-4.36.93l1.92,1.92c1.52-1.18,3.69-1.12,5.13.21-.4.13-.69.49-.69.94,0,.55.45,1,1,1,.3,0,.57-.14.75-.36.46,1.26.26,2.71-.59,3.81l1.37,1.37.16-.05s-.09.05-.13.07l.72.72c2.74-1.72,3.69-4.36,3.7-4.4.04-.11.04-.22,0-.33-.02-.06-2.08-5.84-8.97-5.84Z"/><path d="m13.14,16.93l-7.43-7.43c.46-.48,1.04-.94,1.74-1.35l-.72-.72c-2.74,1.72-3.69,4.36-3.7,4.4-.04.11-.04.22,0,.33.02.06,2.08,5.84,8.97,5.84,1.75,0,3.19-.38,4.36-.93l-.76-.76c-.71.3-1.52.53-2.46.63Zm-9.11-4.93c.12-.3.44-.98,1.02-1.74l6.73,6.73c-5.44-.11-7.39-4.11-7.75-4.99Z"/></g><path d="m19.15,19.85c.1.1.23.15.35.15s.26-.05.35-.15c.2-.2.2-.51,0-.71L4.85,4.15c-.2-.2-.51-.2-.71,0s-.2.51,0,.71l15,15Z"/></svg>