<svg xmlns="http://www.w3.org/2000/svg" width="24" height="24" viewBox="0 0 24 24"><g opacity="0.4"><path d="m4.15,4.15c-.2.2-.2.51,0,.71l3,3,.71-.71-3-3c-.2-.2-.51-.2-.71,0Z"/><path d="m16.85,16.15l-.71.71,3,3c.1.1.23.15.35.15s.26-.05.35-.15c.2-.2.2-.51,0-.71l-3-3Z"/><path d="m4.15,19.15c-.2.2-.2.51,0,.71.1.1.23.15.35.15s.26-.05.35-.15l3-3-.71-.71-3,3Z"/><path d="m19.15,4.15l-3,3,.71.71,3-3c.2-.2.2-.51,0-.71s-.51-.2-.71,0Z"/></g><path d="m9.15,5.85l-3.29,3.29c-.32.32-.09.85.35.85h3.29c.28,0,.5-.22.5-.5v-3.29c0-.45-.54-.67-.85-.35Z"/><path d="m17.79,14h-3.29c-.28,0-.5.22-.5.5v3.29c0,.45.54.67.85.35l3.29-3.29c.32-.31.09-.85-.35-.85Z"/><path d="m9.5,14h-3.29c-.45,0-.67.54-.35.85l3.29,3.29c.32.32.85.09.85-.35v-3.29c0-.28-.22-.5-.5-.5Z"/><path d="m14.5,10h3.29c.45,0,.67-.54.35-.85l-3.29-3.29c-.32-.32-.85-.09-.85.35v3.29c0,.28.22.5.5.5Z"/></svg>