<svg xmlns="http://www.w3.org/2000/svg" width="24" height="24" viewBox="0 0 24 24"><g opacity="0.4"><path d="m16,3c-1.07,0-2.06.34-2.87.92l6.96,6.96c.57-.81.92-1.8.92-2.87,0-2.76-2.24-5-5-5Z"/><path d="m11,8c0,.15.01.28.02.43l4.55,4.55c.15.01.27.02.43.02,1.33,0,2.53-.53,3.42-1.37l-7.05-7.05c-.84.9-1.37,2.09-1.37,3.42Z"/></g><path d="m11.02,8.43l-6.83,8.11c-.78.93-.72,2.28.13,3.13.45.45,1.04.68,1.64.68.53,0,1.06-.18,1.49-.55l8.11-6.83-4.55-4.55Z"/><path d="m20.08,10.87l-6.96-6.96c-.27.19-.53.42-.75.66l7.05,7.05c.24-.23.47-.48.66-.75Z"/></svg>