<svg xmlns="http://www.w3.org/2000/svg" width="24" height="24" viewBox="0 0 24 24"><g opacity="0.4"><path d="m17.5,4H6.5c-1.93,0-3.5,1.57-3.5,3.5v7c0,1.93,1.57,3.5,3.5,3.5h.5v1.75c0,.6.34,1.13.89,1.37.2.09.41.13.62.13.36,0,.71-.13,1-.39l3.19-2.87h4.81c1.93,0,3.5-1.57,3.5-3.5v-7c0-1.93-1.57-3.5-3.5-3.5Zm-2.36,6.67l-1.36,1.22.52,1.8c.13.45-.37.81-.76.55l-1.53-1.02-1.53,1.02c-.39.26-.89-.11-.76-.55l.52-1.8-1.36-1.22c-.33-.29-.14-.84.29-.87l1.64-.13.75-1.66c.18-.39.73-.39.91,0l.75,1.66,1.64.13c.44.03.62.58.29.87Z"/></g><path d="m10.22,11.89l-.52,1.8c-.13.45.37.81.76.55l1.53-1.02,1.53,1.02c.39.26.89-.11.76-.55l-.52-1.8,1.36-1.22c.33-.29.14-.84-.29-.87l-1.64-.13-.75-1.66c-.18-.39-.73-.39-.91,0l-.75,1.66-1.64.13c-.44.03-.62.58-.29.87l1.36,1.22Z"/></svg>