<svg xmlns="http://www.w3.org/2000/svg" width="24" height="24" viewBox="0 0 24 24"><g opacity="0.4"><path d="m16.5,7H7.5c-2.48,0-4.5,2.02-4.5,4.5v1c0,2.48,2.02,4.5,4.5,4.5h.38c.96,0,1.87-.44,2.45-1.17.79-1.01,2.54-1.01,3.34,0,.58.73,1.5,1.17,2.45,1.17h.38c2.48,0,4.5-2.02,4.5-4.5v-1c0-2.48-2.02-4.5-4.5-4.5Zm-9,6c-1.38,0-2.5-.67-2.5-1.5s1.12-1.5,2.5-1.5,2.5.67,2.5,1.5-1.12,1.5-2.5,1.5Zm9,0c-1.38,0-2.5-.67-2.5-1.5s1.12-1.5,2.5-1.5,2.5.67,2.5,1.5-1.12,1.5-2.5,1.5Z"/></g><path d="M7.5 10A2.5 1.5 0 1 0 7.5 13 2.5 1.5 0 1 0 7.5 10z"/><path d="M16.5 10A2.5 1.5 0 1 0 16.5 13 2.5 1.5 0 1 0 16.5 10z"/></svg>