<svg xmlns="http://www.w3.org/2000/svg" width="24" height="24" viewBox="0 0 24 24"><g opacity="0.4"><path d="m12,4c-4.96,0-9,3.14-9,7,0,2.36,1.49,4.51,4,5.82v2.59c0,.62.38,1.17.96,1.4.18.07.36.1.54.1.41,0,.81-.17,1.11-.49l2.2-2.43c.06,0,.12,0,.19,0,4.96,0,9-3.14,9-7s-4.04-7-9-7Zm3.5,7.5h-3v3c0,.28-.22.5-.5.5s-.5-.22-.5-.5v-3h-3c-.28,0-.5-.22-.5-.5s.22-.5.5-.5h3v-3c0-.28.22-.5.5-.5s.5.22.5.5v3h3c.28,0,.5.22.5.5s-.22.5-.5.5Z"/></g><path d="m8.5,11.5h3v3c0,.28.22.5.5.5s.5-.22.5-.5v-3h3c.28,0,.5-.22.5-.5s-.22-.5-.5-.5h-3v-3c0-.28-.22-.5-.5-.5s-.5.22-.5.5v3h-3c-.28,0-.5.22-.5.5s.22.5.5.5Z"/></svg>