<svg xmlns="http://www.w3.org/2000/svg" width="24" height="24" viewBox="0 0 24 24"><g opacity="0.4"><path d="m18,5.29c-1.93-1.73-4.43-2.52-7.03-2.23-4.03.45-7.34,3.69-7.88,7.7-.32,2.33.27,4.66,1.65,6.54.13.18.14.4.03.56l-1.11,1.57c-.22.31-.24.7-.07,1.04.17.33.51.54.89.54h7.53c4.96,0,9-4.04,9-9,0-2.56-1.09-5-3-6.71Zm-3.07,6.89l-2.41,2.32c-.29.28-.75.28-1.04,0l-2.41-2.32s-.03-.03-.05-.05c-.71-.73-.69-1.88.05-2.58.76-.73,1.98-.73,2.73,0l.2.19.2-.19c.76-.73,1.98-.73,2.73,0,.02.02.03.03.05.05.71.73.69,1.88-.05,2.58Z"/></g><path d="m11.48,14.5c.29.28.75.28,1.04,0l2.41-2.32c.74-.7.76-1.85.05-2.58-.02-.02-.03-.03-.05-.05-.76-.73-1.98-.73-2.73,0l-.2.19-.2-.19c-.76-.73-1.98-.73-2.73,0-.74.7-.76,1.85-.05,2.58.02.02.03.03.05.05l2.41,2.32Z"/></svg>