<svg xmlns="http://www.w3.org/2000/svg" width="24" height="24" viewBox="0 0 24 24"><g opacity="0.4"><path d="m9.64,4h-2.14c-1.93,0-3.5,1.57-3.5,3.5v.14c2.36,0,4.03.18,5.42.42.14-1.1.23-2.4.23-4.06Z"/><path d="m4,16.5c0,1.93,1.57,3.5,3.5,3.5h.14c0-2.36.18-4.03.42-5.42-1.1-.14-2.4-.23-4.06-.23v2.14Z"/><path d="m14.95,9.27c.24-1.35.41-2.96.41-5.27h-4.71c0,1.74-.1,3.09-.24,4.25.61.13,1.17.27,1.72.41.9.23,1.79.44,2.83.62Z"/><path d="m14.76,10.25c-1.08-.18-1.99-.4-2.88-.63-.54-.13-1.07-.27-1.63-.39-.18,1.08-.4,1.99-.63,2.88-.13.54-.27,1.07-.39,1.63,1.08.18,1.99.4,2.88.63.54.13,1.07.27,1.63.39.18-1.08.4-1.99.63-2.88.13-.54.27-1.07.39-1.63Z"/><path d="m9.27,9.05c-1.35-.24-2.96-.41-5.27-.41v4.71c1.74,0,3.09.1,4.25.24.13-.61.27-1.17.41-1.72.23-.9.44-1.79.62-2.83Z"/><path d="m16.5,4h-.14c0,2.36-.18,4.03-.42,5.42,1.1.14,2.4.23,4.06.23v-2.14c0-1.93-1.57-3.5-3.5-3.5Z"/><path d="m15.34,12.12c-.23.9-.44,1.79-.62,2.83,1.35.24,2.96.41,5.27.41v-4.71c-1.74,0-3.09-.1-4.25-.24-.13.61-.27,1.17-.41,1.72Z"/><path d="m14.36,20h2.14c1.93,0,3.5-1.57,3.5-3.5v-.14c-2.36,0-4.03-.18-5.42-.42-.14,1.1-.23,2.4-.23,4.06Z"/><path d="m9.05,14.73c-.24,1.35-.41,2.96-.41,5.27h4.71c0-1.74.1-3.09.24-4.25-.61-.13-1.17-.27-1.72-.41-.9-.23-1.79-.44-2.83-.62Z"/></g><path d="m16.36,4h-1c0,2.32-.17,3.92-.41,5.27-1.04-.17-1.93-.39-2.83-.62-.55-.14-1.12-.28-1.72-.41.15-1.16.24-2.51.24-4.25h-1c0,1.67-.09,2.96-.23,4.06-1.39-.24-3.06-.42-5.42-.42v1c2.32,0,3.92.17,5.27.41-.17,1.04-.39,1.93-.62,2.83-.14.55-.28,1.12-.41,1.72-1.16-.15-2.51-.24-4.25-.24v1c1.67,0,2.96.09,4.06.23-.24,1.39-.42,3.06-.42,5.42h1c0-2.32.17-3.92.41-5.27,1.04.17,1.93.39,2.83.62.55.14,1.12.28,1.72.41-.15,1.16-.24,2.51-.24,4.25h1c0-1.67.09-2.96.23-4.06,1.39.24,3.06.42,5.42.42v-1c-2.32,0-3.92-.17-5.27-.41.17-1.04.39-1.93.62-2.83.14-.55.28-1.12.41-1.72,1.16.15,2.51.24,4.25.24v-1c-1.67,0-2.96-.09-4.06-.23.24-1.39.42-3.06.42-5.42Zm-1.99,7.88c-.22.89-.44,1.8-.63,2.88-.56-.12-1.09-.25-1.63-.39-.89-.22-1.8-.44-2.88-.63.12-.56.25-1.09.39-1.63.22-.89.44-1.8.63-2.88.56.12,1.09.25,1.63.39.89.22,1.8.44,2.88.63-.12.56-.25,1.09-.39,1.63Z"/></svg>