<svg xmlns="http://www.w3.org/2000/svg" width="24" height="24" viewBox="0 0 24 24"><g opacity="0.4"><path d="m16.78,4h-1.17l3,5h-2.83l-3-5h-1.17l3,5h-2.83l-3-5h-1.17l3,5h-2.83l-2.79-4.65c-.3.15-.58.33-.83.56l2.45,4.09h-3.62v7.5c0,1.93,1.57,3.5,3.5,3.5h11c1.93,0,3.5-1.57,3.5-3.5v-7.5h-1.22l-3-5Z"/></g><path d="m10.62,9l-3-5h-1.12c-.54,0-1.05.13-1.5.35l2.79,4.65h2.83Z"/><path d="M14.62 9 11.62 4 8.78 4 11.78 9 14.62 9z"/><path d="m17.5,4h-.72l3,5h1.22v-1.5c0-1.93-1.57-3.5-3.5-3.5Z"/><path d="m4.16,4.91c-.71.64-1.16,1.56-1.16,2.59v1.5h3.62l-2.45-4.09Z"/><path d="M18.62 9 15.62 4 12.78 4 15.78 9 18.62 9z"/></svg>