<svg xmlns="http://www.w3.org/2000/svg" width="24" height="24" viewBox="0 0 24 24"><g opacity="0.4"><path d="m12,4c-4.96,0-9,3.14-9,7,0,2.36,1.49,4.51,4,5.82v2.59c0,.62.38,1.17.96,1.4.18.07.36.1.54.1.41,0,.81-.17,1.11-.49l2.2-2.43c.06,0,.12,0,.19,0,4.96,0,9-3.14,9-7s-4.04-7-9-7Zm-4,8c-.55,0-1-.45-1-1s.45-1,1-1,1,.45,1,1-.45,1-1,1Zm4,0c-.55,0-1-.45-1-1s.45-1,1-1,1,.45,1,1-.45,1-1,1Zm4,0c-.55,0-1-.45-1-1s.45-1,1-1,1,.45,1,1-.45,1-1,1Z"/></g><path d="M16 10A1 1 0 1 0 16 12 1 1 0 1 0 16 10z"/><path d="M12 10A1 1 0 1 0 12 12 1 1 0 1 0 12 10z"/><path d="M8 10A1 1 0 1 0 8 12 1 1 0 1 0 8 10z"/></svg>