<svg xmlns="http://www.w3.org/2000/svg" width="24" height="24" viewBox="0 0 24 24"><g opacity="0.4"><path d="m3.85,16.61c-.58.58-.58,1.54,0,2.12l1.42,1.42c.28.28.66.44,1.06.44h0c.4,0,.78-.16,1.06-.44l9.38-9.38-3.54-3.54L3.85,16.61Z"/></g><path d="m20.15,7.39c.28-.28.44-.66.44-1.06s-.16-.78-.44-1.06l-1.42-1.42c-.28-.28-.66-.44-1.06-.44h0c-.4,0-.78.16-1.06.44l-3.38,3.38,3.54,3.54,3.38-3.38Z"/><path d="m20.66,13.62l-1.15-.14-.67-1.33c-.14-.29-.55-.29-.69,0l-.67,1.33-1.15.14c-.33.04-.46.46-.2.68l1.02.86-.38,1.35c-.1.35.29.63.59.43l1.15-.76,1.15.76c.3.2.69-.08.59-.43l-.38-1.35,1.02-.86c.26-.22.13-.64-.2-.68Z"/><path d="m5.15,8.23l-.38,1.35c-.1.35.29.63.59.43l1.15-.76,1.15.76c.3.2.69-.08.59-.43l-.38-1.35,1.02-.86c.26-.22.13-.64-.2-.68l-1.15-.14-.67-1.33c-.14-.29-.55-.29-.69,0l-.67,1.33-1.15.14c-.33.04-.46.46-.2.68l1.02.86Z"/><path d="m10.68,4.91l-.23.8c-.06.2.17.37.35.25l.68-.45.68.45c.18.12.41-.05.35-.25l-.23-.8.6-.51c.15-.13.08-.38-.12-.4l-.68-.09-.39-.79c-.08-.17-.33-.17-.41,0l-.39.79-.68.09c-.2.02-.27.27-.12.4l.6.51Z"/></svg>