<svg xmlns="http://www.w3.org/2000/svg" width="24" height="24" viewBox="0 0 24 24"><g opacity="0.4"><path d="m3.83,17.72l4.07,2.03c.19.09.4.14.61.15V6.4c-.05,0-.11-.02-.16-.04l-3.17-1.59c-.47-.23-1.01-.21-1.46.07-.45.28-.71.75-.71,1.28v10.26c0,.57.32,1.09.83,1.34Z"/><path d="m20.17,6.28l-4.07-2.03c-.19-.09-.4-.14-.61-.15v13.51c.05,0,.11.02.16.04l3.17,1.59c.47.24,1.01.21,1.46-.07.45-.28.71-.75.71-1.28V7.62c0-.57-.32-1.09-.83-1.34Z"/></g><path d="m15.5,4.09c-.19,0-.39.02-.57.08l-6.2,2.21c-.08.03-.16.03-.23.02v13.5s.04,0,.07,0c.17,0,.34-.03.5-.09l6.2-2.21c.08-.03.16-.03.23-.02V4.09Z"/></svg>