<svg xmlns="http://www.w3.org/2000/svg" width="24" height="24" viewBox="0 0 24 24"><g opacity="0.4"><path d="m17.5,4H6.5c-1.93,0-3.5,1.57-3.5,3.5v7c0,1.93,1.57,3.5,3.5,3.5h.5v1.75c0,.6.34,1.13.89,1.37.2.09.41.13.62.13.36,0,.71-.13,1-.39l3.19-2.87h4.81c1.93,0,3.5-1.57,3.5-3.5v-7c0-1.93-1.57-3.5-3.5-3.5Zm-7.4,9.15c.2.2.2.51,0,.71-.1.1-.23.15-.35.15s-.26-.05-.35-.15l-2.5-2.5c-.2-.2-.2-.51,0-.71l2.5-2.5c.2-.2.51-.2.71,0s.2.51,0,.71l-2.15,2.15,2.15,2.15Zm7-1.79l-2.5,2.5c-.1.1-.23.15-.35.15s-.26-.05-.35-.15c-.2-.2-.2-.51,0-.71l2.15-2.15-2.15-2.15c-.2-.2-.2-.51,0-.71s.51-.2.71,0l2.5,2.5c.2.2.2.51,0,.71Z"/></g><path d="m13.9,13.85c.1.1.23.15.35.15s.26-.05.35-.15l2.5-2.5c.2-.2.2-.51,0-.71l-2.5-2.5c-.2-.2-.51-.2-.71,0s-.2.51,0,.71l2.15,2.15-2.15,2.15c-.2.2-.2.51,0,.71Z"/><path d="m9.4,13.85c.1.1.23.15.35.15s.26-.05.35-.15c.2-.2.2-.51,0-.71l-2.15-2.15,2.15-2.15c.2-.2.2-.51,0-.71s-.51-.2-.71,0l-2.5,2.5c-.2.2-.2.51,0,.71l2.5,2.5Z"/></svg>