<svg xmlns="http://www.w3.org/2000/svg" width="24" height="24" viewBox="0 0 24 24"><g opacity="0.4"><path d="m13.82,14.11c-.85-.85-1.32-1.98-1.32-3.18,0,.8-.18,1.56-.5,2.26.27.6.63,1.15,1.11,1.63l5.54,5.54c.1.1.23.15.35.15s.26-.05.35-.15c.2-.2.2-.51,0-.71l-5.54-5.54Z"/></g><path d="m12.5,7h1.9c.43,0,.66-.51.38-.83l-2.4-2.74c-.2-.23-.55-.23-.75,0l-2.4,2.74c-.28.32-.05.83.38.83h1.9v3.93c0,1.2-.47,2.33-1.32,3.18l-5.54,5.54c-.2.2-.2.51,0,.71.1.1.23.15.35.15s.26-.05.35-.15l5.54-5.54c1.04-1.04,1.61-2.42,1.61-3.89v-3.93Z"/></svg>