<svg xmlns="http://www.w3.org/2000/svg" width="24" height="24" viewBox="0 0 24 24"><g opacity="0.4"><path d="m18,5.29c-1.93-1.73-4.43-2.53-7.03-2.23-4.03.45-7.34,3.69-7.88,7.7-.32,2.33.27,4.66,1.65,6.54.13.18.14.4.03.56l-1.11,1.57c-.22.31-.24.7-.07,1.04.17.33.51.54.89.54h7.53c4.96,0,9-4.04,9-9,0-2.56-1.09-5-3-6.71Zm-2.86,6.38l-1.36,1.22.52,1.8c.13.45-.37.81-.76.55l-1.53-1.02-1.53,1.02c-.39.26-.89-.11-.76-.55l.52-1.8-1.36-1.22c-.33-.29-.14-.84.29-.87l1.64-.13.75-1.66c.18-.39.73-.39.91,0l.75,1.66,1.64.13c.44.03.62.58.29.87Z"/></g><path d="m14.84,10.8l-1.64-.13-.75-1.66c-.18-.39-.73-.39-.91,0l-.75,1.66-1.64.13c-.44.03-.62.58-.29.87l1.36,1.22-.52,1.8c-.13.45.37.81.76.55l1.53-1.02,1.53,1.02c.39.26.89-.11.76-.55l-.52-1.8,1.36-1.22c.33-.29.14-.84-.29-.87Z"/></svg>