<svg xmlns="http://www.w3.org/2000/svg" width="24" height="24" viewBox="0 0 24 24"><g opacity="0.4"><path d="m8.75,20.93l3.25-1.86,3.25,1.86c.08.04.16.07.25.07s.17-.02.25-.07c.15-.09.25-.25.25-.43v-5.32c-.62.52-1.41.82-2.24.82h-3.53c-.83,0-1.61-.3-2.24-.82v5.32c0,.18.09.34.25.43s.34.09.5,0Z"/><path d="m10.16,10.33c.06.06.09.14.07.22l-.31,1.78c-.04.2.18.36.36.26l1.6-.84c.07-.04.16-.04.23,0l1.6.84c.18.1.4-.06.36-.26l-.31-1.78c-.01-.08.01-.16.07-.22l1.29-1.26c.15-.14.07-.4-.14-.43l-1.79-.26c-.08-.01-.15-.06-.19-.14l-.8-1.62c-.09-.19-.36-.19-.45,0l-.8,1.62c-.04.07-.11.12-.19.14l-1.79.26c-.21.03-.29.28-.14.43l1.29,1.26Z"/></g><path d="m16.64,4.5c-.65-.94-1.73-1.5-2.88-1.5h-3.53c-1.15,0-2.22.56-2.88,1.5l-2.08,3c-.83,1.19-.83,2.8,0,3.99l2.08,3c.65.94,1.73,1.5,2.88,1.5h3.53c1.15,0,2.22-.56,2.88-1.5l2.08-3c.83-1.19.83-2.8,0-3.99l-2.08-3Zm-1.5,4.56l-1.29,1.26c-.06.06-.09.14-.07.22l.31,1.78c.04.2-.18.36-.36.26l-1.6-.84c-.07-.04-.16-.04-.23,0l-1.6.84c-.18.1-.4-.06-.36-.26l.31-1.78c.01-.08-.01-.16-.07-.22l-1.29-1.26c-.15-.14-.07-.4.14-.43l1.79-.26c.08-.01.15-.06.19-.14l.8-1.62c.09-.19.36-.19.45,0l.8,1.62c.04.07.11.12.19.14l1.79.26c.21.03.29.28.14.43Z"/></svg>