<svg xmlns="http://www.w3.org/2000/svg" width="24" height="24" viewBox="0 0 24 24"><g opacity="0.4"><path d="m19.5,6H4.5c-.28,0-.5.22-.5.5s.22.5.5.5h15c.28,0,.5-.22.5-.5s-.22-.5-.5-.5Z"/><path d="m8.5,11.5h-4c-.28,0-.5.22-.5.5s.22.5.5.5h4c.28,0,.5-.22.5-.5s-.22-.5-.5-.5Z"/><path d="m8.5,17h-4c-.28,0-.5.22-.5.5s.22.5.5.5h4c.28,0,.5-.22.5-.5s-.22-.5-.5-.5Z"/></g><path d="m18.15,15.44c.53-.68.85-1.52.85-2.44,0-2.21-1.79-4-4-4s-4,1.79-4,4,1.79,4,4,4c.92,0,1.76-.33,2.44-.85l2.21,2.21c.1.1.23.15.35.15s.26-.05.35-.15c.2-.2.2-.51,0-.71l-2.21-2.21Z"/></svg>