<svg xmlns="http://www.w3.org/2000/svg" width="24" height="24" viewBox="0 0 24 24"><g opacity="0.4"><path d="m18.63,4.31l-11.63,4.69v6l11.63,4.69c.66.27,1.37-.22,1.37-.93V5.23c0-.71-.72-1.19-1.37-.93Z"/></g><path d="m7,9h-2c-1.1,0-2,.9-2,2v2c0,1.1.9,2,2,2h2v-6Z"/><path d="m9.69,19.31l3.14,1.26c.18.07.37.11.56.11.22,0,.43-.05.63-.14.37-.17.66-.5.79-.89l.44-1.32-.93-.38-.46,1.38c-.04.13-.14.24-.26.29s-.27.06-.4.01l-3.14-1.26c-.25-.1-.37-.37-.29-.62l.48-1.45-.93-.38-.5,1.51c-.25.75.13,1.57.87,1.87Z"/></svg>