<svg xmlns="http://www.w3.org/2000/svg" width="24" height="24" viewBox="0 0 24 24"><g opacity="0.4"><path d="m6.5,18h.5v1.75c0,.6.34,1.13.89,1.37.2.09.41.13.62.13.36,0,.71-.13,1-.39l3.19-2.87h4.81c1.93,0,3.5-1.57,3.5-3.5v-7c0-1.93-1.57-3.5-3.5-3.5H6.5c-1.93,0-3.5,1.57-3.5,3.5v7c0,1.93,1.57,3.5,3.5,3.5Zm2-7.5h3v-3c0-.28.22-.5.5-.5s.5.22.5.5v3h3c.28,0,.5.22.5.5s-.22.5-.5.5h-3v3c0,.28-.22.5-.5.5s-.5-.22-.5-.5v-3h-3c-.28,0-.5-.22-.5-.5s.22-.5.5-.5Z"/></g><path d="m12,15c.28,0,.5-.22.5-.5v-3h3c.28,0,.5-.22.5-.5s-.22-.5-.5-.5h-3v-3c0-.28-.22-.5-.5-.5s-.5.22-.5.5v3h-3c-.28,0-.5.22-.5.5s.22.5.5.5h3v3c0,.28.22.5.5.5Z"/></svg>