<svg xmlns="http://www.w3.org/2000/svg" width="24" height="24" viewBox="0 0 24 24"><g opacity="0.4"><path d="m6.5,20c.28,0,.5-.22.5-.5v-1.5h-.5c-.17,0-.33-.03-.49-.05,0,.02-.01.03-.01.05v1.5c0,.28.22.5.5.5Z"/><path d="m17,18v1.5c0,.28.22.5.5.5s.5-.22.5-.5v-1.5s0-.03-.01-.05c-.16.02-.32.05-.49.05h-.5Z"/><path d="M17 8A1 1 0 1 0 17 10 1 1 0 1 0 17 8z"/><rect x="6" y="7" width="8" height="8" rx="1.5" ry="1.5"/><path d="M17 12A1 1 0 1 0 17 14 1 1 0 1 0 17 12z"/></g><path d="m17.5,4H6.5c-1.93,0-3.5,1.57-3.5,3.5v7c0,1.93,1.57,3.5,3.5,3.5h11c1.93,0,3.5-1.57,3.5-3.5v-7c0-1.93-1.57-3.5-3.5-3.5Zm-3.5,9.5c0,.83-.67,1.5-1.5,1.5h-5c-.83,0-1.5-.67-1.5-1.5v-5c0-.83.67-1.5,1.5-1.5h5c.83,0,1.5.67,1.5,1.5v5Zm3,.5c-.55,0-1-.45-1-1s.45-1,1-1,1,.45,1,1-.45,1-1,1Zm0-4c-.55,0-1-.45-1-1s.45-1,1-1,1,.45,1,1-.45,1-1,1Z"/></svg>