<svg xmlns="http://www.w3.org/2000/svg" width="24" height="24" viewBox="0 0 24 24"><g opacity="0.4"><path d="m18,5.29c-1.93-1.73-4.43-2.52-7.03-2.23-4.03.45-7.34,3.69-7.88,7.7-.32,2.33.27,4.66,1.65,6.54.13.18.14.4.03.56l-1.11,1.57c-.22.31-.24.7-.07,1.04.17.33.51.54.89.54h7.53c4.96,0,9-4.04,9-9,0-2.56-1.09-5-3-6.71Zm-6,10.71c-.28,0-.5-.22-.5-.5s.22-.5.5-.5.5.22.5.5-.22.5-.5.5Zm1.77-3.73c-.35.35-.79.59-1.27.68v.55c0,.28-.22.5-.5.5s-.5-.22-.5-.5v-1c0-.28.22-.5.5-.5.4,0,.78-.16,1.06-.44.28-.28.44-.66.44-1.06s-.16-.78-.44-1.06c-.57-.57-1.56-.57-2.12,0-.18.18-.32.42-.39.69-.07.27-.34.43-.61.36-.27-.07-.43-.34-.36-.61.11-.44.34-.83.65-1.14.94-.94,2.59-.94,3.54,0,.47.47.73,1.1.73,1.77s-.26,1.3-.73,1.77Z"/></g><path d="m12.5,12.95c.48-.1.92-.33,1.27-.68.47-.47.73-1.1.73-1.77s-.26-1.3-.73-1.77c-.94-.94-2.59-.94-3.54,0-.31.31-.53.7-.65,1.14-.07.27.09.54.36.61.27.07.54-.09.61-.36.07-.27.2-.5.39-.69.56-.57,1.55-.57,2.12,0,.28.28.44.66.44,1.06s-.16.78-.44,1.06c-.28.28-.66.44-1.06.44-.28,0-.5.22-.5.5v1c0,.28.22.5.5.5s.5-.22.5-.5v-.55Z"/><path d="M12 15A.5.5 0 1 0 12 16 .5.5 0 1 0 12 15z"/></svg>