<svg xmlns="http://www.w3.org/2000/svg" width="24" height="24" viewBox="0 0 24 24"><g opacity="0.4"><path d="M12.5 6 11.5 6 11.5 11.5 6 11.5 6 12.5 11.5 12.5 11.5 18 12.5 18 12.5 12.5 18 12.5 18 11.5 12.5 11.5 12.5 6z"/></g><path d="m9.21,6h5.59c.45,0,.67-.54.35-.85l-2.79-2.79c-.2-.2-.51-.2-.71,0l-2.79,2.79c-.32.32-.09.85.35.85Z"/><path d="m11.65,21.65c.2.2.51.2.71,0l2.79-2.79c.32-.31.09-.85-.35-.85h-5.59c-.45,0-.67.54-.35.85l2.79,2.79Z"/><path d="m18.85,8.85c-.32-.31-.85-.09-.85.35v5.59c0,.45.54.67.85.35l2.79-2.79c.2-.2.2-.51,0-.71l-2.79-2.79Z"/><path d="m6,9.21c0-.45-.54-.67-.85-.35l-2.79,2.79c-.2.2-.2.51,0,.71l2.79,2.79c.32.32.85.09.85-.35v-5.59Z"/></svg>