<svg xmlns="http://www.w3.org/2000/svg" width="24" height="24" viewBox="0 0 24 24"><g opacity="0.4"><path d="m8,20.5c0,.18.09.34.25.43s.34.09.5,0l3.25-1.86,3.25,1.86c.08.04.16.07.25.07s.17-.02.25-.07c.15-.09.25-.25.25-.43v-5.26c-1.13.79-2.51,1.26-4,1.26s-2.87-.47-4-1.26v5.26Z"/><path d="m15.14,9.07c.15-.14.07-.4-.14-.43l-1.79-.26c-.08-.01-.15-.06-.19-.14l-.8-1.62c-.09-.19-.36-.19-.45,0l-.8,1.62c-.04.07-.11.12-.19.14l-1.79.26c-.21.03-.29.28-.14.43l1.29,1.26c.06.06.09.14.07.22l-.31,1.78c-.04.2.18.36.36.26l1.6-.84c.07-.04.16-.04.23,0l1.6.84c.18.1.4-.06.36-.26l-.31-1.78c-.01-.08.01-.16.07-.22l1.29-1.26Z"/></g><path d="m12,2.5c-3.86,0-7,3.14-7,7s3.14,7,7,7,7-3.14,7-7-3.14-7-7-7Zm3.14,6.57l-1.29,1.26c-.06.06-.09.14-.07.22l.31,1.78c.04.2-.18.36-.36.26l-1.6-.84c-.07-.04-.16-.04-.23,0l-1.6.84c-.18.1-.4-.06-.36-.26l.31-1.78c.01-.08-.01-.16-.07-.22l-1.29-1.26c-.15-.14-.07-.4.14-.43l1.79-.26c.08-.01.15-.06.19-.14l.8-1.62c.09-.19.36-.19.45,0l.8,1.62c.04.07.11.12.19.14l1.79.26c.21.03.29.28.14.43Z"/></svg>