<svg xmlns="http://www.w3.org/2000/svg" width="24" height="24" viewBox="0 0 24 24"><g opacity="0.4"><path d="m12,4c-4.96,0-9,3.14-9,7,0,2.36,1.49,4.51,4,5.82v2.59c0,.62.38,1.17.96,1.4.18.07.36.1.54.1.41,0,.81-.17,1.11-.49l2.2-2.43c.06,0,.12,0,.19,0,4.96,0,9-3.14,9-7s-4.04-7-9-7Zm2.85,9.15c.2.2.2.51,0,.71-.1.1-.23.15-.35.15s-.26-.05-.35-.15l-2.15-2.15-2.15,2.15c-.1.1-.23.15-.35.15s-.26-.05-.35-.15c-.2-.2-.2-.51,0-.71l2.15-2.15-2.15-2.15c-.2-.2-.2-.51,0-.71s.51-.2.71,0l2.15,2.15,2.15-2.15c.2-.2.51-.2.71,0s.2.51,0,.71l-2.15,2.15,2.15,2.15Z"/></g><path d="m9.15,13.85c.1.1.23.15.35.15s.26-.05.35-.15l2.15-2.15,2.15,2.15c.1.1.23.15.35.15s.26-.05.35-.15c.2-.2.2-.51,0-.71l-2.15-2.15,2.15-2.15c.2-.2.2-.51,0-.71s-.51-.2-.71,0l-2.15,2.15-2.15-2.15c-.2-.2-.51-.2-.71,0s-.2.51,0,.71l2.15,2.15-2.15,2.15c-.2.2-.2.51,0,.71Z"/></svg>