<svg xmlns="http://www.w3.org/2000/svg" width="24" height="24" viewBox="0 0 24 24"><g opacity="0.4"><path d="m19,4H5c-1.1,0-2,.9-2,2v9c0,1.1.9,2,2,2h14c1.1,0,2-.9,2-2V6c0-1.1-.9-2-2-2Zm-13,4c0-.55.45-1,1-1s1,.45,1,1-.45,1-1,1-1-.45-1-1Zm11,6H7c-.41,0-.65-.47-.4-.8l1.8-2.4c.3-.4.9-.4,1.2,0l.5.67c.2.27.6.27.8,0l2-2.67c.3-.4.9-.4,1.2,0l3.3,4.4c.25.33.01.8-.4.8Z"/></g><path d="m8.5,20c-.28,0-.5.22-.5.5s.22.5.5.5h7c.28,0,.5-.22.5-.5s-.22-.5-.5-.5h-3v-3h-1v3h-3Z"/><path d="m14.1,8.8c-.3-.4-.9-.4-1.2,0l-2,2.67c-.2.27-.6.27-.8,0l-.5-.67c-.3-.4-.9-.4-1.2,0l-1.8,2.4c-.25.33-.01.8.4.8h10c.41,0,.65-.47.4-.8l-3.3-4.4Z"/><path d="M7 7A1 1 0 1 0 7 9 1 1 0 1 0 7 7z"/></svg>