<svg xmlns="http://www.w3.org/2000/svg" width="24" height="24" viewBox="0 0 24 24"><g opacity="0.4"><path d="m15,12v-6c0-1.65-1.35-3-3-3s-3,1.35-3,3v2.29l5.44,5.44c.35-.49.56-1.09.56-1.73Z"/><path d="m9,12c0,1.65,1.35,3,3,3,.65,0,1.24-.21,1.73-.56l-4.73-4.73v2.29Z"/><path d="m17.5,11.5c-.28,0-.5.22-.5.5,0,1.2-.44,2.28-1.15,3.15l.72.72c.89-1.04,1.43-2.39,1.43-3.87,0-.28-.22-.5-.5-.5Z"/><path d="m12,17c-2.76,0-5-2.24-5-5,0-.28-.22-.5-.5-.5s-.5.22-.5.5c0,3.14,2.43,5.72,5.5,5.97v2.53c0,.28.22.5.5.5s.5-.22.5-.5v-2.53c1.28-.11,2.44-.62,3.37-1.4l-.72-.72c-.86.71-1.95,1.15-3.15,1.15Z"/></g><path d="m3.85,3.15c-.2-.2-.51-.2-.71,0s-.2.51,0,.71l17,17c.1.1.23.15.35.15s.26-.05.35-.15c.2-.2.2-.51,0-.71L3.85,3.15Z"/></svg>