<svg xmlns="http://www.w3.org/2000/svg" width="24" height="24" viewBox="0 0 24 24"><g opacity="0.4"><path d="m18,10c-1.66,0-3-1.34-3-3,0-.9.41-1.7,1.04-2.25-.67-.26-1.39-.46-2.15-.58,0,0,0,0,0,0-.16-.03-.33-.04-.49-.06-.13-.02-.26-.04-.39-.05-.33-.03-.67-.05-1.01-.05-4.97,0-9,3.13-9,7,0,.27.02.54.06.8.01.09.04.18.05.27.03.17.07.34.12.5.03.11.07.22.11.32.05.14.11.28.17.42.05.11.1.22.16.33.07.13.15.26.23.39.1.16.21.32.32.48.11.15.22.29.34.43.08.1.18.19.27.28.12.12.23.24.36.35.09.08.18.15.27.23.17.14.34.27.52.39.06.04.12.09.18.13.27.18.54.35.84.5v2.59c0,.62.38,1.17.96,1.4.18.07.36.1.54.1.41,0,.81-.17,1.11-.49l2.2-2.42c.06,0,.12,0,.19,0,4.97,0,9-3.13,9-7,0-.81-.19-1.59-.52-2.32-.54.8-1.45,1.32-2.48,1.32Z"/></g><path d="M18 4A3 3 0 1 0 18 10 3 3 0 1 0 18 4z"/></svg>