<svg xmlns="http://www.w3.org/2000/svg" width="24" height="24" viewBox="0 0 24 24"><g opacity="0.4"><path d="m17.5,4H6.5c-1.93,0-3.5,1.57-3.5,3.5v7c0,1.93,1.57,3.5,3.5,3.5h.5v1.75c0,.6.34,1.13.89,1.37.2.09.41.13.62.13.36,0,.71-.13,1-.39l3.19-2.87h4.81c1.93,0,3.5-1.57,3.5-3.5v-7c0-1.93-1.57-3.5-3.5-3.5Zm-2.57,7.18l-2.41,2.32c-.29.28-.75.28-1.04,0l-2.41-2.32s-.03-.03-.05-.05c-.71-.73-.69-1.88.05-2.58.76-.73,1.98-.73,2.73,0l.2.19.2-.19c.76-.73,1.98-.73,2.73,0,.02.02.03.03.05.05.71.73.69,1.88-.05,2.58Z"/></g><path d="m11.48,13.5c.29.28.75.28,1.04,0l2.41-2.32c.74-.7.76-1.85.05-2.58-.02-.02-.03-.03-.05-.05-.76-.73-1.98-.73-2.73,0l-.2.19-.2-.19c-.76-.73-1.98-.73-2.73,0-.74.7-.76,1.85-.05,2.58.02.02.03.03.05.05l2.41,2.32Z"/></svg>