<svg xmlns="http://www.w3.org/2000/svg" width="24" height="24" viewBox="0 0 24 24"><g opacity="0.4"><path d="m16.5,6H7.5c-1.93,0-3.5,1.57-3.5,3.5v8c0,1.93,1.57,3.5,3.5,3.5h9c1.93,0,3.5-1.57,3.5-3.5v-8c0-1.93-1.57-3.5-3.5-3.5Zm-.5,10.5c0,.83-.67,1.5-1.5,1.5s-1.5-.67-1.5-1.5.67-1.5,1.5-1.5c.18,0,.34.04.5.09v-3.98c0-.12-.08-.22-.2-.25l-3.5-.7c-.1-.02-.17.02-.21.05-.03.03-.09.09-.09.19v5.08c0,.83-.67,1.5-1.5,1.5s-1.5-.67-1.5-1.5.67-1.5,1.5-1.5c.18,0,.34.04.5.09v-3.68c0-.38.17-.73.46-.97.29-.24.67-.33,1.04-.26l3.5.7c.58.12,1,.63,1,1.23v5.39Z"/></g><path d="m7.5,4h9c.28,0,.5-.22.5-.5s-.22-.5-.5-.5H7.5c-.28,0-.5.22-.5.5s.22.5.5.5Z"/><path d="m14.5,15c-.83,0-1.5.67-1.5,1.5s.67,1.5,1.5,1.5,1.5-.67,1.5-1.5v-5.39c0-.59-.42-1.11-1-1.23l-3.5-.7c-.37-.08-.75.02-1.04.26-.29.24-.46.59-.46.97v3.68c-.16-.06-.32-.09-.5-.09-.83,0-1.5.67-1.5,1.5s.67,1.5,1.5,1.5,1.5-.67,1.5-1.5v-5.08c0-.1.06-.17.09-.19.03-.03.11-.07.21-.05l3.5.7c.12.02.2.13.2.25v3.98c-.16-.06-.32-.09-.5-.09Z"/></svg>