<svg xmlns="http://www.w3.org/2000/svg" width="24" height="24" viewBox="0 0 24 24"><g opacity="0.4"><path d="m12.55,13.86l5.45-3.63v-3.73c0-.28-.22-.5-.5-.5H6.5c-.28,0-.5.22-.5.5v3.73l5.45,3.63c.34.22.77.22,1.11,0Z"/></g><path d="m10.89,3.64l-3.54,2.36h9.3l-3.54-2.36c-.67-.45-1.54-.45-2.22,0Z"/><path d="m18,6.9v3.33l-5.45,3.63c-.34.22-.77.22-1.11,0l-5.45-3.63h0s0-2.13,0-2.13v-1.2l-2.78,1.85c-.14.09-.22.25-.22.42v8.33c0,1.93,1.57,3.5,3.5,3.5h11c1.93,0,3.5-1.57,3.5-3.5v-8.33c0-.17-.08-.32-.22-.42l-2.78-1.85Z"/></svg>