<svg xmlns="http://www.w3.org/2000/svg" width="24" height="24" viewBox="0 0 24 24"><g opacity="0.4"><path d="m18,5.29c-1.93-1.73-4.43-2.52-7.03-2.23-4.03.45-7.34,3.69-7.88,7.7-.32,2.33.27,4.66,1.65,6.54.13.18.14.4.03.56l-1.11,1.57c-.22.31-.24.7-.07,1.04.17.33.51.54.89.54h7.53c4.96,0,9-4.04,9-9,0-2.56-1.09-5-3-6.71Zm-4.21,6.92l-.79.79-2.85,2.85c-.09.09-.22.15-.35.15h-1.29c-.28,0-.5-.22-.5-.5v-1.29c0-.13.05-.26.15-.35l2.85-2.85.79-.79c.2-.2.51-.2.71,0l1.29,1.29c.2.2.2.51,0,.71Zm1.41-1.41c-.2.2-.51.2-.71,0l-1.29-1.29c-.2-.2-.2-.51,0-.71h0c.44-.44,1.15-.44,1.59,0l.41.41c.44.44.44,1.15,0,1.59Z"/></g><path d="m15.21,10.79c.44-.44.44-1.15,0-1.59l-.41-.41c-.44-.44-1.15-.44-1.59,0h0c-.2.2-.2.51,0,.71l1.29,1.29c.2.2.51.2.71,0Z"/><path d="m11.79,10.21l-.79.79-2.85,2.85c-.09.09-.15.22-.15.35v1.29c0,.28.22.5.5.5h1.29c.13,0,.26-.05.35-.15l2.85-2.85.79-.79c.2-.2.2-.51,0-.71l-1.29-1.29c-.2-.2-.51-.2-.71,0Z"/></svg>