<svg xmlns="http://www.w3.org/2000/svg" width="24" height="24" viewBox="0 0 24 24"><g opacity="0.4"><path d="m17.5,4H6.5c-1.93,0-3.5,1.57-3.5,3.5v7c0,1.93,1.57,3.5,3.5,3.5h.5v1.75c0,.6.34,1.13.89,1.37.2.09.41.13.62.13.36,0,.71-.13,1-.39l3.19-2.87h4.81c1.93,0,3.5-1.57,3.5-3.5v-7c0-1.93-1.57-3.5-3.5-3.5Zm-11,7h2c.28,0,.5.22.5.5s-.22.5-.5.5h-2c-.28,0-.5-.22-.5-.5s.22-.5.5-.5Zm6,4h-6c-.28,0-.5-.22-.5-.5s.22-.5.5-.5h6c.28,0,.5.22.5.5s-.22.5-.5.5Zm5,0h-2c-.28,0-.5-.22-.5-.5s.22-.5.5-.5h2c.28,0,.5.22.5.5s-.22.5-.5.5Zm0-3h-6c-.28,0-.5-.22-.5-.5s.22-.5.5-.5h6c.28,0,.5.22.5.5s-.22.5-.5.5Z"/></g><path d="m17.5,14h-2c-.28,0-.5.22-.5.5s.22.5.5.5h2c.28,0,.5-.22.5-.5s-.22-.5-.5-.5Z"/><path d="m11.5,12h6c.28,0,.5-.22.5-.5s-.22-.5-.5-.5h-6c-.28,0-.5.22-.5.5s.22.5.5.5Z"/><path d="m6.5,15h6c.28,0,.5-.22.5-.5s-.22-.5-.5-.5h-6c-.28,0-.5.22-.5.5s.22.5.5.5Z"/><path d="m6.5,12h2c.28,0,.5-.22.5-.5s-.22-.5-.5-.5h-2c-.28,0-.5.22-.5.5s.22.5.5.5Z"/></svg>