<svg xmlns="http://www.w3.org/2000/svg" width="24" height="24" viewBox="0 0 24 24"><g opacity="0.4"><path d="m7,5v6.69c.99-1.49,2.62-2.51,4.5-2.67V3h-2.5c-1.1,0-2,.9-2,2Z"/><path d="m17,11.69v-6.69c0-1.1-.9-2-2-2h-2.5v6.03c1.88.16,3.51,1.18,4.5,2.67Z"/><path d="m11.78,11.89l-.8,1.62c-.04.07-.11.12-.19.14l-1.79.26c-.21.03-.29.28-.14.43l1.29,1.26c.06.06.09.14.07.22l-.31,1.78c-.04.2.18.36.36.26l1.6-.84c.07-.04.16-.04.23,0l1.6.84c.18.1.4-.06.36-.26l-.31-1.78c-.01-.08.01-.16.07-.22l1.29-1.26c.15-.14.07-.4-.14-.43l-1.79-.26c-.08-.01-.15-.06-.19-.14l-.8-1.62c-.09-.19-.36-.19-.45,0Z"/></g><path d="m12.5,9.03V3h-1v6.03c-3.07.26-5.5,2.83-5.5,5.97,0,3.31,2.69,6,6,6s6-2.69,6-6-2.43-5.72-5.5-5.97Zm2.64,5.31l-1.29,1.26c-.06.06-.09.14-.07.22l.31,1.78c.04.2-.18.36-.36.26l-1.6-.84c-.07-.04-.16-.04-.23,0l-1.6.84c-.18.1-.4-.06-.36-.26l.31-1.78c.01-.08-.01-.16-.07-.22l-1.29-1.26c-.15-.14-.07-.4.14-.43l1.79-.26c.08-.01.15-.06.19-.14l.8-1.62c.09-.19.36-.19.45,0l.8,1.62c.04.07.11.12.19.14l1.79.26c.21.03.29.28.14.43Z"/></svg>