<svg xmlns="http://www.w3.org/2000/svg" width="24" height="24" viewBox="0 0 24 24"><g opacity="0.4"><path d="m16.5,3H7.5c-1.93,0-3.5,1.57-3.5,3.5v11c0,.15.03.3.05.45l3.25-3.49c.39-.41,1.04-.43,1.44-.03l.56.56c.39.39,1.02.39,1.41,0l4.56-4.56c.4-.4,1.05-.39,1.44.03l3.29,3.54v-7.5c0-1.93-1.57-3.5-3.5-3.5Zm-8,7c-.83,0-1.5-.67-1.5-1.5s.67-1.5,1.5-1.5,1.5.67,1.5,1.5-.67,1.5-1.5,1.5Z"/></g><path d="m15.27,10.44l-4.56,4.56c-.39.39-1.02.39-1.41,0l-.56-.56c-.4-.4-1.05-.39-1.44.03l-3.25,3.49c.22,1.72,1.68,3.05,3.45,3.05h9c1.93,0,3.5-1.57,3.5-3.5v-3.5l-3.29-3.54c-.39-.41-1.04-.43-1.44-.03Z"/><path d="M8.5 7A1.5 1.5 0 1 0 8.5 10 1.5 1.5 0 1 0 8.5 7z"/></svg>