<svg xmlns="http://www.w3.org/2000/svg" width="24" height="24" viewBox="0 0 24 24"><g opacity="0.4"><path d="m5.5,8h8.5c.14,0,.27.03.4.04l.7-.91c-.35-.08-.72-.13-1.09-.13H5.5c-.28,0-.5.22-.5.5s.22.5.5.5Z"/><path d="m16.09,7.47l-.62.81c1.48.59,2.53,2.03,2.53,3.71,0,2.21-1.79,4-4,4h-4.43l-.76,1h5.19c2.76,0,5-2.24,5-5,0-2.01-1.2-3.73-2.91-4.53Z"/><path d="m5.5,17h2.05l.76-1h-2.81c-.28,0-.5.22-.5.5s.22.5.5.5Z"/></g><path d="m5.5,21c.15,0,.3-.07.4-.2L18.9,3.8c.17-.22.13-.53-.09-.7-.22-.17-.53-.13-.7.09L5.1,20.2c-.17.22-.13.53.09.7.09.07.2.1.3.1Z"/></svg>