<svg xmlns="http://www.w3.org/2000/svg" width="24" height="24" viewBox="0 0 24 24"><g opacity="0.4"><path d="m6,14.5c0,.28.22.5.5.5h2.96l.65-1h-3.61c-.28,0-.5.22-.5.5Z"/><path d="m17.5,14h-6.2l-.65,1h6.85c.28,0,.5-.22.5-.5s-.22-.5-.5-.5Z"/><path d="m6.5,10h6.2l.65-1h-6.85c-.28,0-.5.22-.5.5s.22.5.5.5Z"/><path d="m17.5,9h-2.96l-.65,1h3.61c.28,0,.5-.22.5-.5s-.22-.5-.5-.5Z"/></g><path d="m6.23,20.92c.08.05.18.08.27.08.16,0,.32-.08.42-.23L17.92,3.77c.15-.23.08-.54-.15-.69-.23-.15-.54-.08-.69.15L6.08,20.23c-.15.23-.08.54.15.69Z"/></svg>