<svg xmlns="http://www.w3.org/2000/svg" width="24" height="24" viewBox="0 0 24 24"><g opacity="0.4"><path d="m12,6c.28,0,.5-.22.5-.5v-2c0-.28-.22-.5-.5-.5s-.5.22-.5.5v2c0,.28.22.5.5.5Z"/><path d="m11.5,18.5v2c0,.28.22.5.5.5s.5-.22.5-.5v-2c0-.28-.22-.5-.5-.5s-.5.22-.5.5Z"/><path d="m20.5,11.5h-2c-.28,0-.5.22-.5.5s.22.5.5.5h2c.28,0,.5-.22.5-.5s-.22-.5-.5-.5Z"/><path d="m6,12c0-.28-.22-.5-.5-.5h-2c-.28,0-.5.22-.5.5s.22.5.5.5h2c.28,0,.5-.22.5-.5Z"/><path d="m16.95,16.24c-.2-.2-.51-.2-.71,0s-.2.51,0,.71l1.41,1.41c.1.1.23.15.35.15s.26-.05.35-.15c.2-.2.2-.51,0-.71l-1.41-1.41Z"/><path d="m6.34,5.64c-.2-.2-.51-.2-.71,0s-.2.51,0,.71l1.41,1.41c.1.1.23.15.35.15s.26-.05.35-.15c.2-.2.2-.51,0-.71l-1.41-1.41Z"/><path d="m7.05,16.24l-1.41,1.41c-.2.2-.2.51,0,.71.1.1.23.15.35.15s.26-.05.35-.15l1.41-1.41c.2-.2.2-.51,0-.71s-.51-.2-.71,0Z"/><path d="m16.6,7.9c.13,0,.26-.05.35-.15l1.41-1.41c.2-.2.2-.51,0-.71s-.51-.2-.71,0l-1.41,1.41c-.2.2-.2.51,0,.71.1.1.23.15.35.15Z"/><path d="m15.34,14.18c-.12-.02-.24-.01-.35-.04-.33-.07-.64-.16-.94-.29-.3-.13-.58-.28-.85-.46s-.51-.38-.74-.61c-.23-.23-.43-.47-.61-.74-.18-.27-.33-.55-.46-.85-.13-.3-.22-.61-.29-.94-.07-.33-.1-.66-.1-1.01s.03-.68.1-1.01c.01-.05.03-.1.05-.15-1.8.39-3.15,1.99-3.15,3.9,0,2.21,1.79,4,4,4,1.4,0,2.63-.72,3.34-1.82Z"/></g><path d="m12,8c-.29,0-.58.04-.85.1-.01.05-.04.1-.05.15-.07.33-.1.66-.1,1.01s.03.68.1,1.01c.07.33.16.64.29.94.13.3.28.58.46.85.18.27.38.51.61.74.23.23.47.43.74.61s.55.33.85.46c.3.13.61.22.94.29.11.02.23.02.35.04.41-.63.66-1.38.66-2.18,0-2.21-1.79-4-4-4Z"/></svg>