<svg xmlns="http://www.w3.org/2000/svg" width="24" height="24" viewBox="0 0 24 24"><g opacity="0.4"><path d="m14,7c0-.77.3-1.47.78-2h-7.28c-.52,0-1.02.12-1.46.33l12.63,12.63c.21-.45.33-.94.33-1.46v-7.28c-.53.48-1.23.78-2,.78-1.66,0-3-1.34-3-3Z"/><path d="m4,8.5v8c0,1.93,1.57,3.5,3.5,3.5h8c1.04,0,1.97-.46,2.61-1.19L5.19,5.89c-.72.64-1.19,1.57-1.19,2.61Z"/></g><path d="M17 4A3 3 0 1 0 17 10 3 3 0 1 0 17 4z"/><path d="m3.85,3.15c-.2-.2-.51-.2-.71,0s-.2.51,0,.71l17,17c.1.1.23.15.35.15s.26-.05.35-.15c.2-.2.2-.51,0-.71L3.85,3.15Z"/></svg>