<svg xmlns="http://www.w3.org/2000/svg" width="24" height="24" viewBox="0 0 24 24"><g opacity="0.4"><path d="m20.5,13c-.28,0-.5.22-.5.5v1.5c0,.94-.88,1.69-1.86,1.46-.7-.16-1.15-.85-1.14-1.57.02-1.5.37-2.94.65-4.1.07-.3.14-.59.2-.85.2-.9.16-1.85-.12-2.73-.78-2.52-3.09-4.22-5.73-4.22s-4.95,1.69-5.73,4.22c-.27.88-.32,1.83-.12,2.73.06.26.13.54.2.85.28,1.16.63,2.6.65,4.1,0,.72-.44,1.4-1.14,1.57-.98.23-1.86-.51-1.86-1.46v-1.5c0-.28-.22-.5-.5-.5s-.5.22-.5.5v1.35c0,1.31.94,2.5,2.24,2.63,1,.1,1.9-.39,2.38-1.17.49-.78,1.28-1.32,2.2-1.32.1,0,.18.08.17.18-.14,4.75-5.76,4.82-6,4.82h-.5c-.28,0-.5.22-.5.5s.22.5.5.5h.5c.06,0,5.36-.05,6.69-4.03.19-.57.71-.97,1.31-.97s1.12.4,1.31.97c.5,1.48,1.59,2.6,3.24,3.3,1.7.72,3.38.73,3.45.73h.5c.28,0,.5-.22.5-.5s-.22-.5-.5-.5h-.5s-1.54,0-3.06-.65c-1.9-.8-2.89-2.2-2.94-4.17,0-.1.08-.18.17-.18.86,0,1.71.42,2.12,1.18.42.78,1.25,1.32,2.2,1.32,1.38,0,2.5-1.12,2.5-2.5v-1.5c0-.28-.22-.5-.5-.5Zm-10.5-1c-.55,0-1-.45-1-1s.45-1,1-1,1,.45,1,1-.45,1-1,1Zm4,0c-.55,0-1-.45-1-1s.45-1,1-1,1,.45,1,1-.45,1-1,1Z"/></g><path d="M14 10A1 1 0 1 0 14 12 1 1 0 1 0 14 10z"/><path d="M10 10A1 1 0 1 0 10 12 1 1 0 1 0 10 10z"/></svg>