<svg xmlns="http://www.w3.org/2000/svg" width="24" height="24" viewBox="0 0 24 24"><g opacity="0.4"><path d="m16.5,4H7.5c-1.93,0-3.5,1.57-3.5,3.5v2.5h16v-2.5c0-1.93-1.57-3.5-3.5-3.5Zm-8,4c-.55,0-1-.45-1-1s.45-1,1-1,1,.45,1,1-.45,1-1,1Zm3.5,0c-.55,0-1-.45-1-1s.45-1,1-1,1,.45,1,1-.45,1-1,1Zm3.5,0c-.55,0-1-.45-1-1s.45-1,1-1,1,.45,1,1-.45,1-1,1Z"/></g><path d="M8.5 6A1 1 0 1 0 8.5 8 1 1 0 1 0 8.5 6z"/><path d="M15.5 6A1 1 0 1 0 15.5 8 1 1 0 1 0 15.5 6z"/><path d="M12 6A1 1 0 1 0 12 8 1 1 0 1 0 12 6z"/><path d="m4,16.5c0,1.93,1.57,3.5,3.5,3.5h9c1.93,0,3.5-1.57,3.5-3.5v-6.5H4v6.5Zm5-4.5h6c.28,0,.5.22.5.5s-.22.5-.5.5h-6c-.28,0-.5-.22-.5-.5s.22-.5.5-.5Z"/></svg>