<svg xmlns="http://www.w3.org/2000/svg" width="24" height="24" viewBox="0 0 24 24"><g opacity="0.4"><path d="m19.37,4.69c-.37-.25-.83-.29-1.24-.1l-13.34,6.25c-.45.21-.73.65-.72,1.15,0,.5.3.93.75,1.13l1.62.7c.15.07.33.05.47-.04l7.17-4.56c.25-.16.52.18.31.39l-4.79,4.79c-.45.45-.75,1.03-.84,1.67l-.56,3.63c-.07.46.46.76.81.46l4.12-3.43,4.19,1.82c.16.07.33.1.5.1.22,0,.45-.06.65-.18.35-.21.57-.58.6-.98l.83-11.67c.03-.45-.17-.87-.54-1.12Z"/></g><path d="m9.6,14.4l4.79-4.79c.21-.21-.06-.55-.31-.39l-7.17,4.56c-.14.09-.32.1-.47.04l2.71,1.17c.13-.21.27-.42.45-.6Z"/></svg>