<svg xmlns="http://www.w3.org/2000/svg" width="24" height="24" viewBox="0 0 24 24"><g opacity="0.4"><path d="m10.5,4h-5c-1.38,0-2.5,1.12-2.5,2.5v11c0,1.38,1.12,2.5,2.5,2.5h5c1.38,0,2.5-1.12,2.5-2.5V6.5c0-1.38-1.12-2.5-2.5-2.5Zm1.5,5H4v-2.5c0-.83.67-1.5,1.5-1.5h5c.83,0,1.5.67,1.5,1.5v2.5Z"/></g><path d="m16.45,4.12c-.21-.18-.52-.15-.71.05-.18.21-.16.53.05.71l3.33,2.85c.55.48.87,1.17.87,1.9v7.87c0,.83-.67,1.5-1.5,1.5s-1.5-.67-1.5-1.5v-3c0-1.38-1.12-2.5-2.5-2.5h-1.5v1h1.5c.83,0,1.5.67,1.5,1.5v3c0,1.38,1.12,2.5,2.5,2.5s2.5-1.12,2.5-2.5v-7.87c0-1.02-.45-1.99-1.22-2.66l-3.33-2.85Z"/><path d="m12,6.5c0-.83-.67-1.5-1.5-1.5h-5c-.83,0-1.5.67-1.5,1.5v2.5h8v-2.5Z"/></svg>