<svg xmlns="http://www.w3.org/2000/svg" width="24" height="24" viewBox="0 0 24 24"><g opacity="0.4"><path d="m18.71,8.82c.12-.22.23-.42.33-.62-.35-.65-.79-1.25-1.31-1.79-.25-.26-.52-.49-.8-.71,0,0,0,0,0,0-.28-.22-.56-.41-.86-.59,0,0,0,0,0,0-1.19-.7-2.55-1.09-3.97-1.11-2.14.01-4.17.78-5.69,2.27-1.53,1.49-2.38,3.49-2.41,5.63-.02,1.17.22,2.29.68,3.33,0,0,0,0,0,0,.15.33.31.65.5.96,0,0,0,0,0,0,.31.5.67.97,1.08,1.4.36.37.75.7,1.17.99.17-.06.34-.13.52-.2,1.85-.79,3.99-2.23,6.03-4.04,2.04-1.81,3.72-3.77,4.72-5.51Z"/><path d="m14.65,15.08c-2.05,1.82-4.22,3.28-6.12,4.13,1.04.5,2.18.77,3.37.79.04,0,.07,0,.11,0,2.1,0,4.08-.8,5.58-2.27,1.53-1.49,2.38-3.49,2.41-5.63.01-.95-.15-1.87-.45-2.73-1.06,1.82-2.8,3.85-4.9,5.72Z"/></g><path d="m18.16,4.13c-.67.07-1.38.41-2.1.98.3.18.59.38.86.59.48-.34.93-.54,1.34-.58.46-.05.84.1,1.14.43.45.5.19,1.73-.7,3.27-1,1.74-2.68,3.7-4.72,5.51-2.04,1.81-4.18,3.25-6.03,4.04-1.63.7-2.88.82-3.33.31-.23-.25-.23-.76-.02-1.4.15-.43.36-.81.57-1.1-.19-.31-.36-.63-.5-.96-.41.44-.79,1.08-1.02,1.74-.34,1-.26,1.84.22,2.38.38.43.95.65,1.68.65s1.7-.23,2.79-.7c1.94-.83,4.18-2.33,6.3-4.21,2.12-1.88,3.87-3.93,4.93-5.76,1.16-2.02,1.36-3.55.58-4.43-.51-.58-1.23-.85-2-.76Z"/></svg>