<svg xmlns="http://www.w3.org/2000/svg" width="24" height="24" viewBox="0 0 24 24"><g opacity="0.4"><path d="m14.5,4h-.59c.06.16.09.32.09.5v.75c0,.41-.34.75-.75.75h-6.5c-.41,0-.75-.34-.75-.75v-.75c0-.18.04-.34.09-.5h-.59c-1.38,0-2.5,1.12-2.5,2.5v8c0,1.38,1.12,2.5,2.5,2.5h5.5v-3.5c0-1.38,1.12-2.5,2.5-2.5h3.5v-4.5c0-1.38-1.12-2.5-2.5-2.5Z"/></g><path d="m6.75,6h6.5c.41,0,.75-.34.75-.75v-.75c0-.83-.67-1.5-1.5-1.5h-5c-.83,0-1.5.67-1.5,1.5v.75c0,.41.34.75.75.75Z"/><rect x="11" y="11" width="10" height="10" rx="2.5" ry="2.5"/></svg>