<svg xmlns="http://www.w3.org/2000/svg" width="24" height="24" viewBox="0 0 24 24"><g opacity="0.4"><path d="m20.5,3H3.5c-.28,0-.5.22-.5.5s.22.5.5.5h17c.28,0,.5-.22.5-.5s-.22-.5-.5-.5Z"/><path d="m12,16c-1.91,0-2-1.13-2-1.25,0-.28-.22-.5-.5-.5s-.5.22-.5.5c0,.02.03,1.99,2.5,2.23v1.02c0,.28.22.5.5.5s.5-.22.5-.5v-1.04c1.64-.18,2.5-1.2,2.5-2.21s-.52-2.25-3-2.25c-1.76,0-2-.6-2-1.25,0-.6.63-1.25,2-1.25s1.5,1.04,1.5,1.25c0,.27.23.5.5.5s.5-.22.5-.5c0-.71-.44-1.97-2-2.2v-1.05c0-.28-.22-.5-.5-.5s-.5.22-.5.5v1.04c-1.71.18-2.5,1.22-2.5,2.21s.52,2.25,3,2.25c2,0,2,.88,2,1.25,0,.62-.69,1.25-2,1.25Z"/></g><path d="m5,18.5c0,1.38,1.12,2.5,2.5,2.5h9c1.38,0,2.5-1.12,2.5-2.5V4H5v14.5Zm7-5c-2.48,0-3-1.22-3-2.25s.79-2.04,2.5-2.21v-1.04c0-.28.22-.5.5-.5s.5.22.5.5v1.05c1.56.23,2,1.5,2,2.2,0,.28-.22.5-.5.5s-.5-.22-.5-.5c0-.21-.09-1.25-1.5-1.25s-2,.65-2,1.25c0,.65.24,1.25,2,1.25,2.48,0,3,1.22,3,2.25s-.86,2.04-2.5,2.21v1.04c0,.28-.22.5-.5.5s-.5-.22-.5-.5v-1.02c-2.47-.24-2.5-2.2-2.5-2.23,0-.28.22-.5.5-.5s.5.22.5.5c0,.12.09,1.25,2,1.25,1.31,0,2-.63,2-1.25,0-.37,0-1.25-2-1.25Z"/></svg>