<svg xmlns="http://www.w3.org/2000/svg" width="24" height="24" viewBox="0 0 24 24"><g opacity="0.4"><path d="m16.5,4H7.5c-1.93,0-3.5,1.57-3.5,3.5v9c0,1.93,1.57,3.5,3.5,3.5h9c1.93,0,3.5-1.57,3.5-3.5V7.5c0-1.93-1.57-3.5-3.5-3.5Zm-3.03,8.53l-3.32,3.32c-.09.09-.22.15-.35.15h-1.29c-.28,0-.5-.22-.5-.5v-1.29c0-.13.05-.26.15-.35l3.32-3.32c.2-.2.51-.2.71,0l1.29,1.29c.2.2.2.51,0,.71Zm1.82-1.82l-.41.41c-.2.2-.51.2-.71,0l-1.29-1.29c-.2-.2-.2-.51,0-.71l.41-.41c.39-.39,1.02-.39,1.41,0l.59.59c.39.39.39,1.02,0,1.41Z"/></g><path d="m14.18,11.12c.2.2.51.2.71,0l.41-.41c.39-.39.39-1.02,0-1.41l-.59-.59c-.39-.39-1.02-.39-1.41,0l-.41.41c-.2.2-.2.51,0,.71l1.29,1.29Z"/><path d="m8.5,16h1.29c.13,0,.26-.05.35-.15l3.32-3.32c.2-.2.2-.51,0-.71l-1.29-1.29c-.2-.2-.51-.2-.71,0l-3.32,3.32c-.09.09-.15.22-.15.35v1.29c0,.28.22.5.5.5Z"/></svg>