<svg xmlns="http://www.w3.org/2000/svg" width="24" height="24" viewBox="0 0 24 24"><g opacity="0.4"><path d="m17.11,8c-1.19,0-2.3-.53-3.04-1.46l-.96-1.2c-1.19-1.49-2.97-2.34-4.87-2.34-3.44,0-6.24,2.8-6.24,6.24v8.26c0,1.93,1.57,3.5,3.5,3.5h13c1.93,0,3.5-1.57,3.5-3.5v-4.61c0-2.7-2.19-4.89-4.89-4.89Zm3.89,9.5c0,1.38-1.12,2.5-2.5,2.5H5.5c-1.38,0-2.5-1.12-2.5-2.5v-3.5h18v3.5Z"/></g><path d="m5.5,18c.28,0,.5-.22.5-.5v-3.5h-1v3.5c0,.28.22.5.5.5Z"/><path d="m18.5,18c.28,0,.5-.22.5-.5v-3.5h-1v3.5c0,.28.22.5.5.5Z"/><path d="m15.25,18c.28,0,.5-.22.5-.5v-3.5h-1v3.5c0,.28.22.5.5.5Z"/><path d="m12,18c.28,0,.5-.22.5-.5v-3.5h-1v3.5c0,.28.22.5.5.5Z"/><path d="m8.75,18c.28,0,.5-.22.5-.5v-3.5h-1v3.5c0,.28.22.5.5.5Z"/></svg>