<svg xmlns="http://www.w3.org/2000/svg" width="24" height="24" viewBox="0 0 24 24"><g opacity="0.4"><path d="m14.24,8.55l-4.96,1.15c-.78.18-1.38.81-1.52,1.6l-1.24,6.94c-.05.28-.04.57.03.84l.23.92,4.85-4.85h.01c-.1-.19-.16-.41-.16-.65,0-.83.67-1.5,1.5-1.5s1.5.67,1.5,1.5-.67,1.5-1.5,1.5c-.24,0-.46-.06-.66-.16h.01s-4.85,4.87-4.85,4.87l.88.22c.3.08.62.08.93.01l7.38-1.65c.8-.18,1.4-.82,1.54-1.63l.73-4.41,1.51-1.51-4.71-4.71-1.51,1.51Z"/></g><path d="m6.5,6h2c.28,0,.5-.22.5-.5s-.22-.5-.5-.5h-2v-2c0-.28-.22-.5-.5-.5s-.5.22-.5.5v2h-2c-.28,0-.5.22-.5.5s.22.5.5.5h2v2c0,.28.22.5.5.5s.5-.22.5-.5v-2Z"/><path d="m20.35,7.15l-.94-.94c-.78-.78-2.05-.78-2.83,0l-.84.84,2.35,2.35,2.35,2.35.84-.84c.78-.78.78-2.05,0-2.83l-.94-.94Z"/><path d="m11.65,15.15l-4.85,4.85.71.71,4.85-4.85h-.01c.2.09.42.15.66.15.83,0,1.5-.67,1.5-1.5s-.67-1.5-1.5-1.5-1.5.67-1.5,1.5c0,.24.06.46.16.66h-.01Z"/></svg>