<svg xmlns="http://www.w3.org/2000/svg" width="24" height="24" viewBox="0 0 24 24"><g opacity="0.4"><path d="m16.5,3H7c-1.1,0-2,.9-2,2v14c0,1.1.9,2,2,2h9.5c1.93,0,3.5-1.57,3.5-3.5V6.5c0-1.93-1.57-3.5-3.5-3.5Zm-.08,12.7l-.25.36c-.2.28-.53.45-.87.43-1.03-.07-3.25-.43-5.05-2.24-1.8-1.81-2.17-4.03-2.24-5.05-.02-.35.15-.67.43-.87l.36-.25c.46-.32,1.09-.2,1.4.27l.6.9c.27.41.21.96-.15,1.29l-.39.36c-.17.16-.21.41-.09.62.24.4.67,1.08,1.21,1.62.54.54,1.22.97,1.62,1.21.2.12.46.08.62-.09l.36-.39c.33-.36.88-.43,1.29-.15l.9.6c.47.31.59.94.27,1.4Z"/></g><path d="m5,16h-1.5c-.28,0-.5.22-.5.5s.22.5.5.5h1.5v-1Z"/><path d="m3.5,14h1.5v-1h-1.5c-.28,0-.5.22-.5.5s.22.5.5.5Z"/><path d="m3.5,11h1.5v-1h-1.5c-.28,0-.5.22-.5.5s.22.5.5.5Z"/><path d="m3.5,8h1.5v-1h-1.5c-.28,0-.5.22-.5.5s.22.5.5.5Z"/><path d="m15.3,16.49c.35.02.67-.14.87-.43l.25-.36c.32-.46.2-1.09-.27-1.4l-.9-.6c-.41-.27-.96-.21-1.29.15l-.36.39c-.16.17-.41.21-.62.09-.4-.24-1.08-.67-1.62-1.21-.54-.54-.97-1.22-1.21-1.62-.12-.2-.08-.46.09-.62l.39-.36c.36-.33.43-.88.15-1.29l-.6-.9c-.31-.47-.94-.59-1.4-.27l-.36.25c-.28.2-.45.53-.43.87.07,1.02.43,3.25,2.24,5.05,1.8,1.81,4.03,2.17,5.05,2.24Z"/></svg>