<svg xmlns="http://www.w3.org/2000/svg" width="24" height="24" viewBox="0 0 24 24"><g opacity="0.4"><path d="m19,10c-.17,0-.34.03-.5.07v-2.07c0-1.38-1.12-2.5-2.5-2.5h-2.07c.04.16.07.33.07.5,0,1.1-.9,2-2,2s-2-.9-2-2c0-.17.03-.34.07-.5h-2.07c-1.38,0-2.5,1.12-2.5,2.5v2.07c-.16-.04-.33-.07-.5-.07-1.1,0-2,.9-2,2s.9,2,2,2c.17,0,.34-.03.5-.07v2.07c0,1.38,1.12,2.5,2.5,2.5h2.07c-.04-.16-.07-.33-.07-.5,0-1.1.9-2,2-2s2,.9,2,2c0,.17-.03.34-.07.5h2.07c1.38,0,2.5-1.12,2.5-2.5v-2.07c.16.04.33.07.5.07,1.1,0,2-.9,2-2s-.9-2-2-2Z"/></g></svg>