<svg xmlns="http://www.w3.org/2000/svg" width="24" height="24" viewBox="0 0 24 24"><g opacity="0.4"><path d="m17.5,8H6.5c-1.93,0-3.5,1.57-3.5,3.5v4c0,1.38,1.12,2.5,2.5,2.5h1.5v-3h-.5c-.28,0-.5-.22-.5-.5s.22-.5.5-.5h11c.28,0,.5.22.5.5s-.22.5-.5.5h-.5v3h1.5c1.38,0,2.5-1.12,2.5-2.5v-4c0-1.93-1.57-3.5-3.5-3.5Zm0,4h-3c-.28,0-.5-.22-.5-.5s.22-.5.5-.5h3c.28,0,.5.22.5.5s-.22.5-.5.5Z"/></g><path d="m8,8h9V3.5c0-.28-.22-.5-.5-.5H7.5c-.28,0-.5.22-.5.5v4.5h1Z"/><path d="m14,11.5c0,.28.22.5.5.5h3c.28,0,.5-.22.5-.5s-.22-.5-.5-.5h-3c-.28,0-.5.22-.5.5Z"/><path d="m6.5,15h.5v5.5c0,.28.22.5.5.5h9c.28,0,.5-.22.5-.5v-5.5h.5c.28,0,.5-.22.5-.5s-.22-.5-.5-.5H6.5c-.28,0-.5.22-.5.5s.22.5.5.5Z"/></svg>