<svg xmlns="http://www.w3.org/2000/svg" width="24" height="24" viewBox="0 0 24 24"><g opacity="0.4"><path d="m16.06,3.85c-.58-.58-1.54-.58-2.12,0l-.59.59c-.56.56-.58,1.47-.06,2.06l-3.8,3.8c-.59-.53-1.5-.5-2.06.06l-.59.59c-.58.58-.58,1.54,0,2.12l4.09,4.09c.29.29.68.44,1.06.44s.77-.15,1.06-.44l.59-.59c.56-.56.58-1.47.06-2.06l3.8-3.8c.59.53,1.49.5,2.06-.06l.59-.59c.58-.58.58-1.54,0-2.12l-4.09-4.09Z"/></g><path d="m8.54,14.75l-4.4,4.4c-.2.2-.2.51,0,.71.1.1.23.15.35.15s.26-.05.35-.15l4.4-4.4-.71-.71Z"/></svg>