<svg xmlns="http://www.w3.org/2000/svg" width="24" height="24" viewBox="0 0 24 24"><g opacity="0.4"><path d="m14.15,6.85l-.35-.35L4.65,15.65s-.09.1-.11.17l-1.35,3.37c-.19.47-.08.99.28,1.35.24.24.55.37.88.37.16,0,.32-.03.47-.09l3.38-1.35c.06-.03.12-.06.17-.11l9.15-9.15-3.35-3.35Z"/><path d="m20.29,4.59l-.88-.88c-.78-.78-2.05-.78-2.83,0l-2.09,2.09.35.35,3.35,3.35,2.09-2.09c.38-.38.59-.88.59-1.41s-.21-1.04-.59-1.41Z"/></g><path d="m16.85,8.15l-2-2-.35-.35-.15-.15-.79-.79c-.57-.57-1.55-.57-2.12,0l-4.79,4.79c-.2.2-.2.51,0,.71.1.1.23.15.35.15s.26-.05.35-.15l4.79-4.79c.2-.2.51-.2.71,0l.79.79.15.15.35.35,2,2,1.35,1.35.71-.71-1.35-1.35Z"/></svg>