<svg xmlns="http://www.w3.org/2000/svg" width="24" height="24" viewBox="0 0 24 24"><g opacity="0.4"><path d="m17.29,18.11c-.52.25-2.03.89-2.74.89-.9,0-1.58-.23-2.3-.47-.76-.26-1.55-.53-2.62-.53-.44,0-1.22.17-2,.37.97-1.25,1.51-2.94,1.51-4.87,0-.4-.04-.71-.1-1h-1.02c.07.28.12.59.12,1,0,2.57-1.07,4.64-2.87,5.55-.23.12-.33.39-.24.64.08.19.26.31.46.31.05,0,.1,0,.15-.02.85-.27,3.23-.98,3.97-.98.9,0,1.58.23,2.3.47.76.26,1.55.53,2.62.53s2.96-.89,3.17-.99c.25-.12.36-.42.24-.67-.12-.25-.42-.35-.67-.24Z"/><path d="m7.15,8.5c0,1.55.25,2.35.5,3h1.07s-.03-.08-.05-.12c-.26-.65-.53-1.32-.53-2.88,0-1.74,1.18-3.5,3.81-3.5s3.18,2.34,3.21,2.44c.07.27.34.42.61.35.27-.07.42-.34.35-.61-.29-1.1-1.54-3.19-4.18-3.19-3.3,0-4.81,2.33-4.81,4.5Z"/></g><path d="m5.5,12.5h7c.28,0,.5-.22.5-.5s-.22-.5-.5-.5h-7c-.28,0-.5.22-.5.5s.22.5.5.5Z"/></svg>