<svg xmlns="http://www.w3.org/2000/svg" width="24" height="24" viewBox="0 0 24 24"><g opacity="0.4"><path d="m17.94,12.99h-6.43c-.28,0-.5-.22-.5-.5v-6.43c0-.29-.13-.57-.35-.76-.22-.19-.49-.27-.78-.23-1.73.24-3.3,1.02-4.54,2.26-1.51,1.51-2.35,3.53-2.35,5.67s.83,4.15,2.35,5.67c1.51,1.51,3.52,2.35,5.67,2.35s4.15-.83,5.67-2.35c1.24-1.24,2.02-2.81,2.26-4.54.04-.28-.05-.56-.23-.78-.19-.22-.47-.35-.76-.35Z"/></g><path d="m14.06,3.52c-.27-.03-.54.08-.74.26-.21.19-.32.46-.32.74v5.98c0,.55.45,1,1,1h5.98c.28,0,.55-.12.74-.32.19-.2.28-.47.26-.74-.27-3.67-3.25-6.65-6.92-6.92Z"/></svg>