<svg xmlns="http://www.w3.org/2000/svg" width="24" height="24" viewBox="0 0 24 24"><g opacity="0.4"><path d="m7.5,20h9c1.93,0,3.5-1.57,3.5-3.5V7.5c0-1.93-1.57-3.5-3.5-3.5H7.5c-1.93,0-3.5,1.57-3.5,3.5v9c0,1.93,1.57,3.5,3.5,3.5Zm0-8.5h4v-4c0-.28.22-.5.5-.5s.5.22.5.5v4h4c.28,0,.5.22.5.5s-.22.5-.5.5h-4v4c0,.28-.22.5-.5.5s-.5-.22-.5-.5v-4h-4c-.28,0-.5-.22-.5-.5s.22-.5.5-.5Z"/></g><path d="m7.5,12.5h4v4c0,.28.22.5.5.5s.5-.22.5-.5v-4h4c.28,0,.5-.22.5-.5s-.22-.5-.5-.5h-4v-4c0-.28-.22-.5-.5-.5s-.5.22-.5.5v4h-4c-.28,0-.5.22-.5.5s.22.5.5.5Z"/></svg>