<svg xmlns="http://www.w3.org/2000/svg" width="24" height="24" viewBox="0 0 24 24"><g opacity="0.4"><path d="m20.01,7.63l-7-4.12c-.62-.37-1.4-.37-2.03,0l-2.79,1.64,8.56,5.02c.31.18.49.51.49.86v3.46c0,.28-.22.5-.5.5s-.5-.22-.5-.5v-3.18c0-.18-.09-.34-.25-.43L7.22,5.73l-3.23,1.9c-.3.17-.54.42-.71.71l7.74,4.57c.61.36.98,1.01.98,1.72v6.12c.35,0,.7-.09,1.01-.28l7-4.12c.61-.36.99-1.02.99-1.72v-5.28c0-.71-.38-1.37-.99-1.72Z"/></g><path d="m3.99,16.37l7,4.12c.31.18.66.28,1.01.28v-6.12c0-.71-.37-1.36-.98-1.72l-7.74-4.57c-.18.3-.28.65-.28,1.01v5.28c0,.71.38,1.37.99,1.72Z"/><path d="m16.25,11.32v3.18c0,.28.22.5.5.5s.5-.22.5-.5v-3.46c0-.35-.19-.68-.49-.86l-8.56-5.02-.98.57,8.78,5.16c.15.09.25.25.25.43Z"/></svg>