<svg xmlns="http://www.w3.org/2000/svg" width="24" height="24" viewBox="0 0 24 24"><g opacity="0.4"><path d="M6.5 6A1.5 1.5 0 1 0 6.5 9 1.5 1.5 0 1 0 6.5 6z"/><path d="m8,17v-4.79l1.94,1.94c.54.54,1.3.81,2.06.81h0c.28.01.5-.21.5-.49s-.22-.5-.5-.5h0c-.5,0-1-.18-1.35-.54l-2.78-2.78c-.43-.43-1-.66-1.6-.66-1.25,0-2.27,1.02-2.27,2.27v4.73h4Z"/></g><path d="M17.5 6A1.5 1.5 0 1 0 17.5 9 1.5 1.5 0 1 0 17.5 6z"/><path d="m17.73,10c-.61,0-1.18.24-1.6.66l-2.78,2.78c-.36.36-.85.53-1.35.53h0c.28,0,.5.22.5.5,0,.23-.16.41-.37.47.71-.03,1.42-.29,1.93-.8l1.94-1.94v4.79h4v-4.73c0-1.25-1.02-2.27-2.27-2.27Z"/></svg>