<svg xmlns="http://www.w3.org/2000/svg" width="24" height="24" viewBox="0 0 24 24"><g opacity="0.4"><path d="m18.5,4H5.5c-1.93,0-3.5,1.57-3.5,3.5v9c0,1.93,1.57,3.5,3.5,3.5h13c1.93,0,3.5-1.57,3.5-3.5V7.5c0-1.93-1.57-3.5-3.5-3.5Zm2.5,12.5c0,1.38-1.12,2.5-2.5,2.5H5.5c-1.38,0-2.5-1.12-2.5-2.5v-3.5h18v3.5Z"/></g><path d="m5.5,17c.28,0,.5-.22.5-.5v-3.5h-1v3.5c0,.28.22.5.5.5Z"/><path d="m8.75,17c.28,0,.5-.22.5-.5v-3.5h-1v3.5c0,.28.22.5.5.5Z"/><path d="m12,17c.28,0,.5-.22.5-.5v-3.5h-1v3.5c0,.28.22.5.5.5Z"/><path d="m15.25,17c.28,0,.5-.22.5-.5v-3.5h-1v3.5c0,.28.22.5.5.5Z"/><path d="m18.5,17c.28,0,.5-.22.5-.5v-3.5h-1v3.5c0,.28.22.5.5.5Z"/></svg>