<svg xmlns="http://www.w3.org/2000/svg" width="24" height="24" viewBox="0 0 24 24"><g opacity="0.4"><path d="m10.25,9.54l4.21,4.21,3.04-3.04c.59.52,1.49.51,2.06-.06l.59-.59c.58-.58.58-1.54,0-2.12l-4.09-4.09c-.58-.58-1.54-.58-2.12,0l-.59.59c-.56.56-.58,1.47-.06,2.06l-3.05,3.04Z"/><path d="m13.75,14.46l-4.21-4.21-.04.04c-.59-.52-1.5-.51-2.06.06l-.59.59c-.58.58-.58,1.54,0,2.12l1.69,1.69-4.4,4.4c-.2.2-.2.51,0,.71.1.1.23.15.35.15s.26-.05.35-.15l4.4-4.4,1.69,1.69c.29.29.68.44,1.06.44s.77-.15,1.06-.44l.59-.59c.56-.56.58-1.47.06-2.06l.04-.04Z"/></g><path d="m20.5,21c-.13,0-.26-.05-.35-.15L3.15,3.85c-.2-.2-.2-.51,0-.71s.51-.2.71,0l17,17c.2.2.2.51,0,.71-.1.1-.23.15-.35.15Z"/></svg>