<svg xmlns="http://www.w3.org/2000/svg" width="24" height="24" viewBox="0 0 24 24"><g opacity="0.4"><path d="m15.5,6h-7c-1.93,0-3.5,1.57-3.5,3.5v8c0,1.93,1.57,3.5,3.5,3.5h7c1.93,0,3.5-1.57,3.5-3.5v-8c0-1.93-1.57-3.5-3.5-3.5Zm-.5,8h-2.5v2.5c0,.28-.22.5-.5.5s-.5-.22-.5-.5v-2.5h-2.5c-.28,0-.5-.22-.5-.5s.22-.5.5-.5h2.5v-2.5c0-.28.22-.5.5-.5s.5.22.5.5v2.5h2.5c.28,0,.5.22.5.5s-.22.5-.5.5Z"/></g><path d="m15.5,6c.17,0,.34.03.5.05v-1.05c0-1.1-.9-2-2-2h-4c-1.1,0-2,.9-2,2v1.05c.16-.02.33-.05.5-.05h7Z"/><path d="m12,17c.28,0,.5-.22.5-.5v-2.5h2.5c.28,0,.5-.22.5-.5s-.22-.5-.5-.5h-2.5v-2.5c0-.28-.22-.5-.5-.5s-.5.22-.5.5v2.5h-2.5c-.28,0-.5.22-.5.5s.22.5.5.5h2.5v2.5c0,.28.22.5.5.5Z"/></svg>