<svg xmlns="http://www.w3.org/2000/svg" width="24" height="24" viewBox="0 0 24 24"><g opacity="0.4"><path d="m12,3C7.04,3,3,7.04,3,12c0,3.52,2.04,6.57,5,8.05v-1.08c0-2.68.67-5.35,1.94-7.71.09-.16.26-.26.44-.26h.3l.97-2.59c.12-.31.56-.31.68,0l.97,2.59h.3c.18,0,.35.1.44.26,1.27,2.36,1.94,5.03,1.94,7.71v1.07c2.96-1.48,5-4.53,5-8.05,0-4.96-4.04-9-9-9Z"/></g><path d="m13.62,11h-3.23c-.18,0-.35.1-.44.26-1.27,2.36-1.94,5.03-1.94,7.71v1.08c1.21.6,2.56.95,4,.95s2.79-.35,4-.95v-1.07c0-2.68-.67-5.35-1.94-7.71-.09-.16-.26-.26-.44-.26Z"/></svg>