<svg xmlns="http://www.w3.org/2000/svg" width="24" height="24" viewBox="0 0 24 24"><g opacity="0.4"><path d="m11.59,12.29c-.03-.1-.06-.19-.09-.29V3.58c0-.29-.26-.54-.55-.5-4.84.57-8.53,4.98-7.88,10.1.48,3.76,3.36,6.89,7.08,7.64,2.26.46,4.4.05,6.19-.94.26-.14.32-.49.15-.73l-4.9-6.86Z"/></g><path d="m20.42,12.5h-6.48c-.41,0-.64.46-.41.79l3.77,5.27c.17.24.52.29.74.09,1.57-1.42,2.62-3.39,2.88-5.6.03-.29-.21-.55-.5-.55Z"/><path d="m13.05,3.07c-.29-.03-.55.21-.55.5v7.42c0,.28.22.5.5.5h7.42c.3,0,.54-.26.5-.55-.48-4.12-3.75-7.4-7.88-7.88Z"/></svg>