<svg xmlns="http://www.w3.org/2000/svg" width="24" height="24" viewBox="0 0 24 24"><g opacity="0.4"><path d="m12.53,3.03c-.27-.01-.51.19-.53.47-.02.28.19.51.47.53,4.22.25,7.53,3.75,7.53,7.98s-3.31,7.73-7.53,7.98c-.28.02-.49.25-.47.53.02.27.24.47.5.47,0,0,.02,0,.03,0,4.75-.28,8.47-4.22,8.47-8.97S17.28,3.3,12.53,3.03Z"/><path d="m5.01,7.15c-.24-.14-.54-.07-.69.16-.59.95-.98,2-1.18,3.1-.05.27.13.53.4.58.03,0,.06,0,.09,0,.24,0,.45-.17.49-.41.17-.98.53-1.91,1.05-2.75.14-.24.07-.54-.16-.69Z"/><path d="m9.64,19.63c-.95-.29-1.83-.76-2.61-1.37-.22-.17-.53-.14-.7.08s-.13.53.08.7c.88.7,1.87,1.22,2.93,1.54.05.02.1.02.15.02.21,0,.41-.14.48-.35.08-.26-.07-.54-.33-.62Z"/><path d="m9.35,3.41c-1.07.33-2.06.85-2.93,1.54-.22.17-.25.49-.08.7.1.12.25.19.39.19.11,0,.22-.04.31-.11.78-.62,1.66-1.08,2.61-1.37.26-.08.41-.36.33-.62-.08-.26-.36-.41-.62-.33Z"/><path d="m4.12,13.4c-.05-.27-.31-.45-.58-.4-.27.05-.45.31-.41.58.2,1.1.59,2.15,1.18,3.1.09.15.26.24.43.24.09,0,.18-.02.26-.07.24-.14.31-.45.17-.69-.52-.85-.87-1.77-1.04-2.75Z"/></g><path d="m14.86,11.35l-4.74-2.71c-.5-.29-1.12.08-1.12.65v5.42c0,.58.62.94,1.12.65l4.74-2.71c.5-.29.5-1.01,0-1.3Z"/></svg>