<svg xmlns="http://www.w3.org/2000/svg" width="24" height="24" viewBox="0 0 24 24"><g opacity="0.4"><path d="m15.98,4c-1.39,0-2.62.94-2.98,2.29l-2.98,11.17c-.24.91-1.07,1.55-2.01,1.55s-1.79-.65-2.02-1.58l-.38-1.53c-.19.06-.4.11-.61.11-.14,0-.27-.01-.4-.04l.43,1.71c.34,1.37,1.58,2.33,2.99,2.33s2.62-.94,2.98-2.29l2.98-11.17c.24-.91,1.07-1.55,2.01-1.55s1.79.65,2.02,1.58l.38,1.53c.19-.06.4-.11.61-.11.14,0,.27.01.4.04l-.43-1.71c-.34-1.37-1.58-2.33-2.99-2.33Z"/></g><path d="M5 12A2 2 0 1 0 5 16 2 2 0 1 0 5 12z"/><path d="M19 8A2 2 0 1 0 19 12 2 2 0 1 0 19 8z"/></svg>