<svg xmlns="http://www.w3.org/2000/svg" width="24" height="24" viewBox="0 0 24 24"><g opacity="0.4"><path d="m3.5,9h3.29c.45,0,.67-.54.35-.85l-1.28-1.28c.07-.08.14-.16.21-.24.09-.1.18-.19.26-.28.09-.09.19-.18.28-.27.09-.09.19-.17.29-.25.1-.08.2-.16.3-.24.1-.08.21-.15.32-.23.1-.07.21-.14.32-.21.11-.07.22-.13.33-.19.11-.06.23-.12.34-.18.12-.06.24-.11.35-.16.12-.05.24-.1.36-.14.12-.04.25-.09.37-.13.13-.04.25-.07.38-.11s.26-.06.39-.09c.13-.03.26-.05.39-.07.13-.02.27-.04.4-.05.13-.01.27-.02.4-.03.27-.01.56-.01.82,0,.14,0,.27.02.41.03.13.01.27.03.4.05.13.02.26.04.39.07.13.03.26.06.39.09s.25.07.38.11c.13.04.25.08.37.12.12.05.24.09.36.14.12.05.24.1.35.16.12.06.23.12.34.18.11.06.22.12.33.19.11.07.22.13.33.21.11.07.21.15.31.22.1.08.21.16.31.24.1.08.19.16.29.25.1.09.19.18.28.26.09.09.18.19.27.28.09.09.17.19.25.29.08.1.16.2.24.3.08.1.15.21.23.32.07.1.14.21.21.32.07.11.13.22.19.33.06.11.12.23.18.34.06.12.11.24.16.35.05.12.1.24.14.36.04.12.09.25.13.37.04.13.07.25.11.38s.06.26.09.39c.03.13.05.26.07.39.02.13.04.27.05.4.01.13.02.27.03.41.01.27.23.47.5.47,0,0,.02,0,.03,0,.28-.01.49-.25.47-.53,0-.15-.02-.3-.04-.46-.02-.15-.03-.3-.06-.45s-.05-.3-.08-.44c-.03-.15-.06-.29-.1-.44s-.08-.29-.12-.43c-.04-.14-.09-.28-.14-.42-.05-.14-.1-.27-.16-.41-.06-.13-.12-.27-.18-.4-.06-.13-.13-.26-.2-.39-.07-.13-.14-.25-.22-.38-.08-.12-.15-.25-.23-.36-.08-.12-.16-.24-.25-.36-.09-.11-.17-.23-.27-.34-.09-.11-.19-.22-.28-.33-.1-.11-.19-.21-.3-.31-.1-.1-.21-.2-.31-.29-.11-.1-.22-.19-.33-.28-.11-.09-.22-.18-.34-.27-.12-.09-.23-.17-.35-.25-.12-.08-.24-.16-.37-.24-.12-.08-.25-.15-.38-.22-.13-.07-.26-.14-.39-.2-.13-.06-.26-.12-.4-.18-.13-.06-.27-.11-.41-.16s-.28-.1-.42-.14c-.14-.04-.28-.08-.43-.12s-.29-.07-.44-.1c-.15-.03-.29-.06-.44-.08s-.3-.04-.45-.06c-.15-.02-.3-.03-.46-.04-.3-.02-.61-.02-.93,0-.15,0-.3.02-.46.04-.15.02-.3.03-.45.06s-.3.05-.44.08c-.15.03-.29.06-.44.1s-.29.08-.43.12c-.14.04-.28.09-.42.14-.14.05-.27.1-.41.16-.13.06-.27.12-.4.18-.13.06-.26.13-.39.2-.13.07-.25.14-.38.22-.12.08-.25.15-.36.23-.12.08-.24.16-.36.25-.11.09-.23.17-.34.27-.11.09-.22.19-.33.28-.11.1-.21.19-.31.3-.1.1-.2.21-.29.31-.06.07-.12.14-.18.21l-1.3-1.3c-.32-.31-.85-.09-.85.35v3.29c0,.28.22.5.5.5Z"/></g><path d="m20.5,15h-3.29c-.45,0-.67.54-.35.85l1.28,1.28c-.07.08-.14.16-.21.24-.09.1-.18.19-.26.28-.09.09-.19.18-.28.27-.09.09-.19.17-.29.25-.1.08-.2.16-.3.24-.1.08-.21.15-.32.23-.1.07-.21.14-.32.21-.11.07-.22.13-.33.19-.11.06-.23.12-.34.18-.12.06-.24.11-.35.16-.12.05-.24.1-.36.14-.12.04-.25.09-.37.13-.13.04-.25.07-.38.11s-.26.06-.39.09c-.13.03-.26.05-.39.07-.13.02-.27.04-.4.05-.13.01-.27.02-.4.03-.27.01-.56.01-.82,0-.14,0-.27-.02-.41-.03-.13-.01-.27-.03-.4-.05-.13-.02-.26-.04-.39-.07-.13-.03-.26-.06-.39-.09s-.25-.07-.38-.11c-.13-.04-.25-.08-.37-.12-.12-.05-.24-.09-.36-.14-.12-.05-.24-.1-.35-.16-.12-.06-.23-.12-.34-.18-.11-.06-.22-.12-.33-.19-.11-.07-.22-.13-.33-.21-.11-.07-.21-.15-.31-.22-.1-.08-.21-.16-.31-.24-.1-.08-.19-.16-.29-.25-.1-.09-.19-.18-.28-.26-.09-.09-.18-.19-.27-.28-.09-.09-.17-.19-.25-.29-.08-.1-.16-.2-.24-.3-.08-.1-.15-.21-.23-.32-.07-.1-.14-.21-.21-.32-.07-.11-.13-.22-.19-.33-.06-.11-.12-.23-.18-.34-.06-.12-.11-.24-.16-.35-.05-.12-.1-.24-.14-.36-.04-.12-.09-.25-.13-.37-.04-.13-.07-.25-.11-.38s-.06-.26-.09-.39c-.03-.13-.05-.26-.07-.39-.02-.13-.04-.27-.05-.4-.01-.13-.02-.27-.03-.41-.01-.28-.21-.5-.53-.47-.28.01-.49.25-.47.53,0,.15.02.3.04.46.02.15.03.3.06.45s.05.3.08.44c.03.15.06.29.1.44s.08.29.12.43c.04.14.09.28.14.42.05.14.1.27.16.41.06.13.12.27.18.4.06.13.13.26.2.39.07.13.14.25.22.38.08.12.15.25.23.36.08.12.16.24.25.36.09.11.17.23.27.34.09.11.19.22.28.33.1.11.19.21.3.31.1.1.21.2.31.29.11.1.22.19.33.28.11.09.22.18.34.27.12.09.23.17.35.25.12.08.24.16.37.24.12.08.25.15.38.22.13.07.26.14.39.2.13.06.26.12.4.18.13.06.27.11.41.16s.28.1.42.14c.14.04.28.08.43.12s.29.07.44.1c.15.03.29.06.44.08s.3.04.45.06c.15.02.3.03.46.04.15,0,.31.01.46.01s.31,0,.46-.01c.15,0,.3-.02.46-.04.15-.02.3-.03.45-.06s.3-.05.44-.08c.15-.03.29-.06.44-.1s.29-.08.43-.12c.14-.04.28-.09.42-.14.14-.05.27-.1.41-.16.13-.06.27-.12.4-.18.13-.06.26-.13.39-.2.13-.07.25-.14.38-.22.12-.08.25-.15.36-.23.12-.08.24-.16.36-.25.11-.09.23-.17.34-.27.11-.09.22-.19.33-.28.11-.1.21-.19.31-.3.1-.1.2-.21.29-.31.06-.07.12-.14.18-.21l1.3,1.3c.32.32.85.09.85-.35v-3.29c0-.28-.22-.5-.5-.5Z"/></svg>