<svg xmlns="http://www.w3.org/2000/svg" width="24" height="24" viewBox="0 0 24 24"><g opacity="0.4"><path d="m16.43,8.28l-.3.3-2.41,2.41c.44.76.34,1.78-.3,2.42-.76.76-2.06.76-2.83,0-.76-.76-.76-2.06,0-2.83.64-.64,1.66-.74,2.42-.3l2.17-2.17c-.88-.71-1.96-1.11-3.11-1.11-1.34,0-2.59.52-3.54,1.46-.94.94-1.46,2.2-1.46,3.54s.52,2.59,1.46,3.54c.94.94,2.2,1.46,3.54,1.46s2.59-.52,3.54-1.46c.2-.2.51-.2.71,0s.2.51,0,.71c-1.13,1.13-2.64,1.76-4.24,1.76s-3.11-.62-4.24-1.76c-1.13-1.13-1.76-2.64-1.76-4.24s.62-3.11,1.76-4.24c1.13-1.13,2.64-1.76,4.24-1.76,1.42,0,2.76.49,3.83,1.39l2.05-2.05c-1.6-1.44-3.7-2.33-5.96-2.33C7.12,3,3,7.12,3,12s4.12,9,9,9,9-4.12,9-9c0-2.26-.89-4.36-2.33-5.96l-2.24,2.24Z"/></g><path d="m12.07,18c1.6,0,3.11-.62,4.24-1.76.2-.2.2-.51,0-.71s-.51-.2-.71,0c-.94.94-2.2,1.46-3.54,1.46s-2.59-.52-3.54-1.46c-.94-.94-1.46-2.2-1.46-3.54s.52-2.59,1.46-3.54c.94-.94,2.2-1.46,3.54-1.46,1.15,0,2.22.4,3.11,1.11l-2.17,2.17c-.76-.44-1.78-.34-2.42.3-.76.76-.76,2.06,0,2.83.76.76,2.06.76,2.83,0,.64-.64.74-1.66.3-2.42l2.41-2.41.3-.3,2.24-2.24c-.22-.25-.46-.48-.71-.71l-2.05,2.05c-1.07-.9-2.42-1.39-3.83-1.39-1.6,0-3.11.62-4.24,1.76-1.13,1.13-1.76,2.64-1.76,4.24s.62,3.11,1.76,4.24c1.13,1.13,2.64,1.76,4.24,1.76Z"/></svg>