<svg xmlns="http://www.w3.org/2000/svg" width="24" height="24" viewBox="0 0 24 24"><g opacity="0.4"><path d="m17.5,12c-.28,0-.5.22-.5.5v2c0,1.38-1.12,2.5-2.5,2.5h-6.5v-1.9c0-.43-.51-.66-.83-.38l-2.74,2.4c-.23.2-.23.55,0,.75l2.74,2.4c.32.28.83.05.83-.38v-1.9h6.5c1.93,0,3.5-1.57,3.5-3.5v-2c0-.28-.22-.5-.5-.5Z"/></g><path d="m16.83,3.73c-.32-.28-.83-.05-.83.38v1.9h-6.5c-1.93,0-3.5,1.57-3.5,3.5v2c0,.28.22.5.5.5s.5-.22.5-.5v-2c0-1.38,1.12-2.5,2.5-2.5h6.5v1.9c0,.43.51.66.83.38l2.74-2.4c.23-.2.23-.55,0-.75l-2.74-2.4Z"/></svg>