<svg xmlns="http://www.w3.org/2000/svg" width="24" height="24" viewBox="0 0 24 24"><g opacity="0.4"><path d="m12,3C7.04,3,3,7.04,3,12s4.04,9,9,9,9-4.04,9-9S16.96,3,12,3Zm0,12.07c0,.4-.45.64-.78.42l-4.6-3.07c-.3-.2-.3-.63,0-.83l4.6-3.07c.33-.22.78.02.78.42v.53l-1.93,1.29c-.42.28-.67.75-.67,1.25s.25.97.67,1.25l1.93,1.29v.53Zm4,0c0,.4-.45.64-.78.42l-4.6-3.07c-.3-.2-.3-.63,0-.83l4.6-3.07c.33-.22.78.02.78.42v6.13Z"/></g><path d="m10.62,12.42l4.6,3.07c.33.22.78-.02.78-.42v-6.13c0-.4-.45-.64-.78-.42l-4.6,3.07c-.3.2-.3.63,0,.83Z"/><path d="m11.22,15.48c.33.22.78-.02.78-.42v-.53l-1.93-1.29c-.42-.28-.67-.75-.67-1.25s.25-.97.67-1.25l1.93-1.29v-.53c0-.4-.45-.64-.78-.42l-4.6,3.07c-.3.2-.3.63,0,.83l4.6,3.07Z"/></svg>