<svg xmlns="http://www.w3.org/2000/svg" width="24" height="24" viewBox="0 0 24 24"><g opacity="0.4"><path d="m13.17,13.73l-2.74,2.4c-.23.2-.23.55,0,.75l2.74,2.4c.32.28.83.05.83-.38v-1.9h1.9c2.8,0,5.15-2.29,5.1-5.09-.04-2.53-1.97-4.61-4.44-4.88-.3-.03-.56.2-.56.5,0,.25.19.47.44.5,2.04.23,3.62,1.99,3.56,4.1-.06,2.18-1.91,3.88-4.08,3.88h-1.92v-1.9c0-.43-.51-.66-.83-.38Z"/></g><path d="m7.44,16.97c.3.03.56-.2.56-.5,0-.25-.19-.47-.44-.5-2.04-.23-3.62-1.99-3.56-4.1.06-2.18,1.91-3.88,4.08-3.88h1.92v1.9c0,.43.51.66.83.38l2.74-2.4c.23-.2.23-.55,0-.75l-2.74-2.4c-.32-.28-.83-.05-.83.38v1.9h-1.9c-2.8,0-5.15,2.29-5.1,5.09.04,2.53,1.97,4.61,4.44,4.88Z"/></svg>