<svg xmlns="http://www.w3.org/2000/svg" width="24" height="24" viewBox="0 0 24 24"><g opacity="0.4"><path d="m18.3,6.92c-.18-.09-.36-.13-.55-.13-.27,0-.54.09-.77.27l-5.04,3.96c-.3.24-.48.6-.48.98s.17.74.48.98l5.04,3.96c.38.3.88.35,1.32.14.43-.21.7-.64.7-1.12v-7.91c0-.48-.27-.91-.7-1.12Z"/></g><path class="st0" d="M11.3,6.9c-0.2-0.1-0.4-0.1-0.6-0.1c-0.3,0-0.5,0.1-0.8,0.3l-5,4c-0.3,0.2-0.5,0.6-0.5,1s0.2,0.7,0.5,1l5,4
	c0.4,0.3,0.9,0.4,1.3,0.1c0.4-0.2,0.7-0.6,0.7-1.1V13L11.9,13c-0.3-0.2-0.5-0.6-0.5-1s0.2-0.7,0.5-1L12,11V8
	C12,7.6,11.7,7.1,11.3,6.9z"/></svg>