<svg xmlns="http://www.w3.org/2000/svg" width="24" height="24" viewBox="0 0 24 24"><g opacity="0.4"><path d="m20.15,4.85l-1.3,1.3c-.06-.07-.12-.14-.18-.21-.1-.11-.2-.21-.3-.31-.1-.1-.21-.2-.31-.3-.11-.1-.21-.19-.33-.28-.11-.09-.22-.18-.34-.27-.12-.09-.23-.17-.35-.25-.12-.08-.24-.16-.37-.23-.12-.08-.25-.15-.38-.22s-.26-.14-.39-.2c-.13-.06-.27-.12-.4-.18-.13-.06-.27-.11-.41-.16-.14-.05-.28-.1-.42-.14-.14-.04-.28-.08-.43-.12-.14-.04-.29-.07-.43-.1-.15-.03-.29-.06-.44-.08-.15-.02-.3-.04-.45-.06-.15-.02-.3-.03-.46-.03-.31-.02-.62-.02-.93,0-.15,0-.31.02-.46.03-.15.02-.3.03-.45.06-.15.02-.3.05-.44.08-.15.03-.29.06-.44.1s-.29.08-.42.12c-.14.04-.28.09-.42.14-.14.05-.27.1-.41.16-.13.06-.27.12-.4.18-.13.06-.26.13-.39.2s-.25.14-.38.22c-.12.08-.25.15-.36.23-.12.08-.24.16-.36.25-.11.09-.23.17-.34.27-.11.09-.22.19-.33.28-.11.1-.21.2-.31.3-.1.1-.2.2-.3.31-.1.11-.19.22-.28.33-.09.11-.18.22-.27.34-.08.11-.17.23-.25.35-.08.12-.16.24-.24.37-.08.12-.15.25-.22.38-.07.13-.14.26-.2.39-.06.13-.12.26-.18.4-.06.13-.11.27-.16.41-.05.14-.1.28-.14.42-.04.14-.08.28-.12.43-.04.14-.07.29-.1.44-.03.15-.06.29-.08.44s-.04.3-.06.45-.03.3-.04.46c0,.15-.01.31-.01.46s0,.31.01.46c0,.15.02.3.04.46.02.15.03.3.06.45s.05.3.08.44c.03.15.06.29.1.44.04.14.08.28.12.43.04.14.09.28.14.42.05.14.1.27.16.41.06.13.12.27.18.4.06.13.13.26.2.39.07.13.14.25.22.38.08.12.15.25.23.36.08.12.16.24.25.36.09.12.18.23.27.34.09.11.19.22.28.33.1.11.2.21.3.31.1.1.21.2.31.3.11.1.21.19.33.28.11.09.22.18.34.27.12.09.23.17.35.25.12.08.24.16.37.23.12.08.25.15.38.22s.26.14.39.2c.13.06.27.12.4.18.13.06.27.11.41.16.14.05.28.1.42.14.14.04.28.08.43.12.14.04.29.07.44.1.15.03.29.06.44.08.15.02.3.04.45.06.15.02.3.03.46.03s.31.01.46.01.31,0,.46-.01.31-.02.46-.03c.15-.02.3-.03.45-.06.15-.02.3-.05.44-.08.15-.03.29-.06.44-.1.14-.04.29-.08.42-.12.14-.04.28-.09.42-.14.14-.05.27-.1.41-.16.13-.06.27-.12.4-.18.13-.06.26-.13.39-.2s.25-.14.38-.22c.12-.08.25-.15.36-.23.12-.08.24-.16.36-.25.11-.09.23-.17.34-.27.11-.09.22-.19.33-.28.11-.1.21-.2.31-.3.1-.1.2-.2.3-.31.1-.11.19-.22.28-.33.09-.11.18-.22.27-.34.09-.12.17-.23.25-.35.08-.12.16-.24.24-.37.08-.12.15-.25.22-.38.07-.13.14-.26.2-.39.06-.13.12-.26.18-.4.06-.13.11-.27.16-.41.05-.14.1-.28.14-.42.04-.14.08-.28.12-.43.04-.14.07-.29.1-.44.03-.15.06-.29.08-.44s.04-.3.06-.45.03-.3.04-.46c.01-.28-.2-.51-.47-.53-.3-.02-.51.2-.53.47,0,.14-.02.27-.03.41s-.03.27-.05.4-.04.26-.07.39c-.03.13-.06.26-.09.39-.03.13-.07.26-.11.38-.04.13-.08.25-.13.37-.04.12-.09.24-.14.36-.05.12-.1.24-.16.35-.06.12-.12.23-.18.34-.06.11-.12.23-.19.33-.07.11-.14.22-.21.33-.07.11-.15.21-.22.31-.08.1-.16.2-.24.3-.08.1-.16.19-.25.29-.09.1-.18.19-.26.28-.09.09-.19.18-.28.27-.1.09-.19.17-.29.25-.1.08-.2.16-.3.24-.1.08-.21.15-.32.22-.11.07-.21.14-.32.21-.11.07-.22.13-.33.19s-.23.12-.34.18c-.12.06-.23.11-.35.16-.12.05-.24.1-.36.14-.12.04-.25.09-.38.13-.12.04-.25.07-.38.11-.13.03-.26.06-.39.09-.13.03-.26.05-.39.07-.13.02-.27.04-.4.05-.13.01-.27.02-.41.03-.27.01-.55.01-.82,0-.14,0-.27-.02-.41-.03-.13-.01-.27-.03-.4-.05-.13-.02-.26-.04-.39-.07-.13-.03-.26-.06-.39-.09-.13-.03-.25-.07-.38-.11-.13-.04-.25-.08-.37-.12-.12-.04-.24-.09-.36-.14-.12-.05-.24-.1-.35-.16-.12-.06-.23-.11-.34-.18s-.23-.13-.33-.19c-.11-.07-.22-.14-.33-.21-.11-.07-.21-.15-.31-.22-.1-.08-.21-.16-.3-.24-.1-.08-.2-.17-.29-.25-.09-.09-.19-.18-.28-.27-.09-.09-.18-.18-.27-.28-.09-.09-.17-.19-.25-.29-.08-.1-.16-.2-.24-.3-.08-.1-.15-.21-.22-.32-.07-.11-.14-.21-.21-.32-.07-.11-.13-.22-.19-.33-.06-.11-.12-.23-.18-.34-.06-.12-.11-.24-.16-.35-.05-.12-.1-.24-.14-.36-.04-.12-.09-.25-.12-.37-.04-.13-.07-.25-.11-.38s-.06-.26-.09-.39c-.03-.13-.05-.26-.07-.39s-.04-.27-.05-.4c-.01-.14-.02-.27-.03-.4,0-.14,0-.28,0-.41s0-.28,0-.41c0-.14.02-.27.03-.41s.03-.27.05-.4.04-.26.07-.39c.03-.13.06-.26.09-.39.03-.13.07-.26.11-.38.04-.13.08-.25.13-.37.04-.12.09-.24.14-.36.05-.12.1-.24.16-.35.06-.12.12-.23.18-.34.06-.11.12-.23.19-.33.07-.11.14-.22.21-.33.07-.11.15-.21.22-.31.08-.1.16-.2.24-.3.08-.1.16-.19.25-.29.09-.1.18-.19.26-.28.09-.09.19-.18.28-.27.1-.09.19-.17.29-.25.1-.08.2-.16.3-.24.1-.08.21-.15.32-.22.11-.07.21-.14.32-.21.11-.07.22-.13.33-.19s.23-.12.34-.18c.12-.06.23-.11.35-.16.12-.05.24-.1.36-.14.12-.04.25-.09.38-.13.12-.04.25-.07.38-.11.13-.03.26-.06.39-.09.13-.03.26-.05.39-.07.13-.02.27-.04.4-.05.13-.01.27-.02.41-.03.27-.01.55-.01.82,0,.14,0,.27.02.41.03.13.01.27.03.4.05.13.02.26.04.39.07.13.03.26.06.39.09.13.03.25.07.38.11.13.04.25.08.37.12.12.04.24.09.36.14.12.05.24.1.35.16.12.06.23.11.34.18s.23.13.33.19c.11.07.22.14.33.21.11.07.21.15.31.22.1.08.21.16.3.24.1.08.2.17.29.25.09.09.19.18.28.27.09.09.18.18.27.28.07.08.14.16.21.24l-1.28,1.28c-.32.32-.09.85.35.85h3.29c.28,0,.5-.22.5-.5v-3.29c0-.45-.54-.67-.85-.35Z"/></g><path d="m8.99,10.46h.49v3.54c0,.26.21.47.47.47h.16c.26,0,.47-.21.47-.47v-4.01c0-.26-.21-.47-.47-.47h-1.11c-.26,0-.47.21-.47.47s.21.47.47.47Z"/><path d="m12.29,14.23c.32.21.68.32,1.08.32s.76-.11,1.07-.32c.31-.21.56-.51.75-.89.18-.38.28-.83.28-1.34s-.09-.96-.28-1.34c-.18-.38-.44-.68-.75-.89-.32-.21-.68-.32-1.08-.32s-.76.11-1.08.32c-.32.21-.57.51-.75.89-.18.38-.27.83-.27,1.33s.09.95.28,1.33c.18.38.44.68.76.9Zm.19-3.1c.08-.23.19-.41.35-.53.15-.12.33-.17.53-.17s.39.06.54.18.27.29.35.53.12.52.12.87-.04.63-.12.86-.2.41-.35.53-.33.18-.53.18-.38-.06-.54-.18-.27-.3-.35-.53c-.08-.23-.12-.52-.12-.87s.04-.63.12-.87Z"/></svg>