<svg xmlns="http://www.w3.org/2000/svg" width="24" height="24" viewBox="0 0 24 24"><g opacity="0.4"><path d="m19,8h-2v3.25c0,.28-.22.5-.5.5s-.5-.22-.5-.5v-3.25h-2v2.25c0,.28-.22.5-.5.5s-.5-.22-.5-.5v-2.25h-2v3.25c0,.28-.22.5-.5.5s-.5-.22-.5-.5v-3.25h-2v2.25c0,.28-.22.5-.5.5s-.5-.22-.5-.5v-2.25h-2c-1.1,0-2,.9-2,2v4c0,1.1.9,2,2,2h14c1.1,0,2-.9,2-2v-4c0-1.1-.9-2-2-2Z"/></g><path d="m13.5,10.75c.28,0,.5-.22.5-.5v-2.25h-1v2.25c0,.28.22.5.5.5Z"/><path d="m16.5,11.75c.28,0,.5-.22.5-.5v-3.25h-1v3.25c0,.28.22.5.5.5Z"/><path d="m10.5,11.75c.28,0,.5-.22.5-.5v-3.25h-1v3.25c0,.28.22.5.5.5Z"/><path d="m7.5,10.75c.28,0,.5-.22.5-.5v-2.25h-1v2.25c0,.28.22.5.5.5Z"/></svg>