<svg xmlns="http://www.w3.org/2000/svg" width="24" height="24" viewBox="0 0 24 24"><g opacity="0.4"><path d="m7,12.68c-.93.46-3.59,2.08-3.96,5.93-.03.36.08.72.33.99.24.26.57.41.92.41h2.71v-7.32Z"/><path d="m17,12.68v7.32h2.71c.35,0,.68-.15.92-.41.24-.27.36-.62.33-.99-.37-3.85-3.02-5.47-3.96-5.93Z"/><path d="m12,11c.83,0,1.5-.67,1.5-1.5s-.67-1.5-1.5-1.5c-.83,0-1.5.67-1.5,1.5s.67,1.5,1.5,1.5Z"/></g><path d="m15.15,5.63l-1.83-1.62c-.76-.67-1.9-.67-2.66,0l-1.83,1.62c-1.17,1.04-1.85,2.54-1.85,4.11v10.25h10v-10.25c0-1.57-.67-3.07-1.85-4.11Zm-3.15,5.37c-.83,0-1.5-.67-1.5-1.5s.67-1.5,1.5-1.5c.83,0,1.5.67,1.5,1.5s-.67,1.5-1.5,1.5Z"/></svg>