<svg xmlns="http://www.w3.org/2000/svg" width="24" height="24" viewBox="0 0 24 24"><g opacity="0.4"><path d="m20.12,3.52c-.18-.04-2.43-.58-5.27-.37l6,6c.21-2.84-.32-5.09-.36-5.26-.04-.18-.18-.32-.36-.36Z"/><path d="m3.51,20.12c.04.18.18.32.36.36.15.04,1.74.42,3.92.42.43,0,.88-.02,1.34-.06l-5.99-5.99c-.21,2.84.32,5.09.36,5.26Z"/><path d="m6.65,6.65c-2.08,2.08-2.99,4.63-3.35,6.94l7.11,7.11c2.32-.36,4.86-1.27,6.94-3.35,2.08-2.08,2.99-4.62,3.35-6.94l-7.12-7.12c-2.32.36-4.86,1.27-6.94,3.35Zm8.5,1.5c.2-.2.51-.2.71,0s.2.51,0,.71l-1.15,1.15,1.15,1.15c.2.2.2.51,0,.71-.1.1-.23.15-.35.15s-.26-.05-.35-.15l-1.15-1.15-1.29,1.29,1.15,1.15c.2.2.2.51,0,.71-.1.1-.23.15-.35.15s-.26-.05-.35-.15l-1.15-1.15-1.29,1.29,1.15,1.15c.2.2.2.51,0,.71-.1.1-.23.15-.35.15s-.26-.05-.35-.15l-1.15-1.15-1.15,1.15c-.1.1-.23.15-.35.15s-.26-.05-.35-.15c-.2-.2-.2-.51,0-.71l1.15-1.15-1.15-1.15c-.2-.2-.2-.51,0-.71s.51-.2.71,0l1.15,1.15,1.29-1.29-1.15-1.15c-.2-.2-.2-.51,0-.71s.51-.2.71,0l1.15,1.15,1.29-1.29-1.15-1.15c-.2-.2-.2-.51,0-.71s.51-.2.71,0l1.15,1.15,1.15-1.15Z"/></g><path d="m8.15,15.85c.1.1.23.15.35.15s.26-.05.35-.15l1.15-1.15,1.15,1.15c.1.1.23.15.35.15s.26-.05.35-.15c.2-.2.2-.51,0-.71l-1.15-1.15,1.29-1.29,1.15,1.15c.1.1.23.15.35.15s.26-.05.35-.15c.2-.2.2-.51,0-.71l-1.15-1.15,1.29-1.29,1.15,1.15c.1.1.23.15.35.15s.26-.05.35-.15c.2-.2.2-.51,0-.71l-1.15-1.15,1.15-1.15c.2-.2.2-.51,0-.71s-.51-.2-.71,0l-1.15,1.15-1.15-1.15c-.2-.2-.51-.2-.71,0s-.2.51,0,.71l1.15,1.15-1.29,1.29-1.15-1.15c-.2-.2-.51-.2-.71,0s-.2.51,0,.71l1.15,1.15-1.29,1.29-1.15-1.15c-.2-.2-.51-.2-.71,0s-.2.51,0,.71l1.15,1.15-1.15,1.15c-.2.2-.2.51,0,.71Z"/><path d="m20.85,9.14l-6-6c-.41.03-.84.08-1.27.15l7.12,7.12c.07-.43.12-.86.15-1.27Z"/><path d="m10.41,20.7l-7.11-7.11c-.07.43-.12.86-.15,1.27l5.99,5.99c.41-.03.83-.08,1.27-.15Z"/></svg>