<svg xmlns="http://www.w3.org/2000/svg" width="24" height="24" viewBox="0 0 24 24"><g opacity="0.4"><path d="m19.5,19H4.5c-.28,0-.5.22-.5.5s.22.5.5.5h15c.28,0,.5-.22.5-.5s-.22-.5-.5-.5Z"/><path d="m19.5,15.25h-8c-.28,0-.5.22-.5.5s.22.5.5.5h8c.28,0,.5-.22.5-.5s-.22-.5-.5-.5Z"/><path d="m19.5,11.5h-8c-.28,0-.5.22-.5.5s.22.5.5.5h8c.28,0,.5-.22.5-.5s-.22-.5-.5-.5Z"/><path d="m19.5,4H4.5c-.28,0-.5.22-.5.5s.22.5.5.5h15c.28,0,.5-.22.5-.5s-.22-.5-.5-.5Z"/><path d="m19.5,7.75h-8c-.28,0-.5.22-.5.5s.22.5.5.5h8c.28,0,.5-.22.5-.5s-.22-.5-.5-.5Z"/></g><path d="m4.78,15.48l3.97-2.65c.59-.4.59-1.27,0-1.66l-3.97-2.65c-.33-.22-.78.02-.78.42v6.13c0,.4.45.64.78.42Z"/></svg>