<svg xmlns="http://www.w3.org/2000/svg" width="24" height="24" viewBox="0 0 24 24"><g opacity="0.4"><path d="m17,16.5V6c0-1.1-.9-2-2-2H5c-1.1,0-2,.9-2,2v10.5c0,1.93,1.57,3.5,3.5,3.5h12c.33,0,.64-.07.93-.18-1.41-.45-2.43-1.76-2.43-3.32Zm-3.5-.5h-2c-.28,0-.5-.22-.5-.5s.22-.5.5-.5h2c.28,0,.5.22.5.5s-.22.5-.5.5Zm0-3.5h-7c-.28,0-.5-.22-.5-.5s.22-.5.5-.5h7c.28,0,.5.22.5.5s-.22.5-.5.5Zm0-3.5h-7c-.28,0-.5-.22-.5-.5s.22-.5.5-.5h7c.28,0,.5.22.5.5s-.22.5-.5.5Z"/></g><path d="m19,11h-2v5.5c0,1.56,1.02,2.86,2.43,3.32.92-.37,1.57-1.27,1.57-2.32v-4.5c0-1.1-.9-2-2-2Z"/><path d="m6.5,12.5h7c.28,0,.5-.22.5-.5s-.22-.5-.5-.5h-7c-.28,0-.5.22-.5.5s.22.5.5.5Z"/><path d="m6.5,9h7c.28,0,.5-.22.5-.5s-.22-.5-.5-.5h-7c-.28,0-.5.22-.5.5s.22.5.5.5Z"/><path d="m13.5,15h-2c-.28,0-.5.22-.5.5s.22.5.5.5h2c.28,0,.5-.22.5-.5s-.22-.5-.5-.5Z"/></svg>