<svg xmlns="http://www.w3.org/2000/svg" width="24" height="24" viewBox="0 0 24 24"><g opacity="0.4"><path d="m6.73,12.44c-2.7,1.91-2.71,7.58-2.71,7.58,0,0,4.36-.01,7.49-2.81l-4.78-4.78Z"/><path d="m17.41,9.41c.78-.78.78-2.05,0-2.83-.78-.78-2.05-.78-2.83,0-.78.78-.78,2.05,0,2.83.78.78,2.05.78,2.83,0Z"/></g><path d="m19.75,3h-1.95c-2.57,0-5.05.94-6.98,2.65l-1.46,1.29c-.76-.18-2.89-.53-5.19.59-.36.17-.62.52-.68.92-.07.4.06.81.35,1.1l10.7,10.7c.24.24.57.37.9.37.05,0,.11,0,.16,0,.37-.05.69-.26.88-.57,1.13-1.92.73-4.56.56-5.4l1.3-1.47c1.71-1.92,2.65-4.4,2.65-6.98v-1.95c0-.69-.56-1.25-1.25-1.25Zm-2.34,6.41c-.78.78-2.05.78-2.83,0-.78-.78-.78-2.05,0-2.83.78-.78,2.05-.78,2.83,0,.78.78.78,2.05,0,2.83Z"/></svg>