<svg xmlns="http://www.w3.org/2000/svg" width="24" height="24" viewBox="0 0 24 24"><g opacity="0.4"><path d="M4.5 7A.5.5 0 1 0 4.5 8 .5.5 0 1 0 4.5 7z"/><path d="M4.5 10A.5.5 0 1 0 4.5 11 .5.5 0 1 0 4.5 10z"/><path d="M4.5 13A.5.5 0 1 0 4.5 14 .5.5 0 1 0 4.5 13z"/><path d="M4.5 16A.5.5 0 1 0 4.5 17 .5.5 0 1 0 4.5 16z"/><path d="M4.5 19A.5.5 0 1 0 4.5 20 .5.5 0 1 0 4.5 19z"/><path d="M19.5 4A.5.5 0 1 0 19.5 5 .5.5 0 1 0 19.5 4z"/><path d="M19.5 7A.5.5 0 1 0 19.5 8 .5.5 0 1 0 19.5 7z"/><path d="M19.5 10A.5.5 0 1 0 19.5 11 .5.5 0 1 0 19.5 10z"/><path d="M19.5 13A.5.5 0 1 0 19.5 14 .5.5 0 1 0 19.5 13z"/><path d="M19.5 16A.5.5 0 1 0 19.5 17 .5.5 0 1 0 19.5 16z"/><path d="M16.5 4A.5.5 0 1 0 16.5 5 .5.5 0 1 0 16.5 4z"/><path d="M13.5 4A.5.5 0 1 0 13.5 5 .5.5 0 1 0 13.5 4z"/><path d="M10.5 4A.5.5 0 1 0 10.5 5 .5.5 0 1 0 10.5 4z"/><path d="M7.5 4A.5.5 0 1 0 7.5 5 .5.5 0 1 0 7.5 4z"/><path d="M16.5 19A.5.5 0 1 0 16.5 20 .5.5 0 1 0 16.5 19z"/><path d="M13.5 19A.5.5 0 1 0 13.5 20 .5.5 0 1 0 13.5 19z"/><path d="M10.5 19A.5.5 0 1 0 10.5 20 .5.5 0 1 0 10.5 19z"/><path d="M7.5 19A.5.5 0 1 0 7.5 20 .5.5 0 1 0 7.5 19z"/><path d="m15.5,7h-7c-.23,0-.45.06-.64.15l8.99,8.99c.09-.2.15-.41.15-.64v-7c0-.83-.67-1.5-1.5-1.5Z"/><path d="m7.15,7.86c-.09.2-.15.41-.15.64v7c0,.83.67,1.5,1.5,1.5h7c.23,0,.45-.06.64-.15L7.15,7.86Z"/></g><path d="m3.85,3.15c-.2-.2-.51-.2-.71,0s-.2.51,0,.71l17,17c.1.1.23.15.35.15s.26-.05.35-.15c.2-.2.2-.51,0-.71L3.85,3.15Z"/></svg>