<svg xmlns="http://www.w3.org/2000/svg" width="24" height="24" viewBox="0 0 24 24"><g opacity="0.4"><path d="M12 8A4 4 0 1 0 12 16 4 4 0 1 0 12 8z"/></g><path d="m12,7c.28,0,.5-.22.5-.5v-3c0-.28-.22-.5-.5-.5s-.5.22-.5.5v3c0,.28.22.5.5.5Z"/><path d="m12,21c.28,0,.5-.22.5-.5v-3c0-.28-.22-.5-.5-.5s-.5.22-.5.5v3c0,.28.22.5.5.5Z"/><path d="m20.5,11.5h-3c-.28,0-.5.22-.5.5s.22.5.5.5h3c.28,0,.5-.22.5-.5s-.22-.5-.5-.5Z"/><path d="m7,12c0-.28-.22-.5-.5-.5h-3c-.28,0-.5.22-.5.5s.22.5.5.5h3c.28,0,.5-.22.5-.5Z"/><path d="m16.24,15.54c-.2-.2-.51-.2-.71,0s-.2.51,0,.71l2.12,2.12c.1.1.23.15.35.15s.26-.05.35-.15c.2-.2.2-.51,0-.71l-2.12-2.12Z"/><path d="m7.76,8.46c.1.1.23.15.35.15s.26-.05.35-.15c.2-.2.2-.51,0-.71l-2.12-2.12c-.2-.2-.51-.2-.71,0s-.2.51,0,.71l2.12,2.12Z"/><path d="m8.46,15.54c-.2-.2-.51-.2-.71,0l-2.12,2.12c-.2.2-.2.51,0,.71.1.1.23.15.35.15s.26-.05.35-.15l2.12-2.12c.2-.2.2-.51,0-.71Z"/><path d="m15.89,8.61c.13,0,.26-.05.35-.15l2.12-2.12c.2-.2.2-.51,0-.71s-.51-.2-.71,0l-2.12,2.12c-.2.2-.2.51,0,.71.1.1.23.15.35.15Z"/></svg>