<svg xmlns="http://www.w3.org/2000/svg" width="24" height="24" viewBox="0 0 24 24"><g opacity="0.4"><path d="m16.59,13.15c-.33-.7-1.04-1.15-1.81-1.15H5.08c-.52,0-.99.26-1.27.7-.28.44-.31.98-.09,1.44l2.69,5.71c.33.7,1.04,1.15,1.81,1.15h9.71c.52,0,.99-.26,1.27-.7.28-.44.31-.98.09-1.44l-2.69-5.71Zm-.9.43l1.14,2.43h-4.77l-1.5-3h4.22c.39,0,.74.23.91.57Zm-11.04-.34c.09-.15.25-.23.42-.23h4.36l1.5,3h-5.24l-1.08-2.29c-.07-.16-.06-.33.03-.48Zm2.66,6.19l-1.14-2.43h5.27l1.5,3h-4.72c-.39,0-.74-.23-.91-.57Zm11.04.34c-.09.15-.25.23-.42.23h-3.86l-1.5-3h4.74l1.08,2.29c.07.16.06.33-.03.48Z"/></g><path d="m12,6c.28,0,.5-.22.5-.5v-2c0-.28-.22-.5-.5-.5s-.5.22-.5.5v2c0,.28.22.5.5.5Z"/><path d="m6.9,7.6c.1.1.23.15.35.15s.26-.05.35-.15c.2-.2.2-.51,0-.71l-1.36-1.36c-.2-.2-.51-.2-.71,0s-.2.51,0,.71l1.36,1.36Z"/><path d="m16.75,7.75c.13,0,.26-.05.35-.15l1.36-1.36c.2-.2.2-.51,0-.71s-.51-.2-.71,0l-1.36,1.36c-.2.2-.2.51,0,.71.1.1.23.15.35.15Z"/><path d="m20.5,11.5h-2c-.28,0-.5.22-.5.5s.22.5.5.5h2c.28,0,.5-.22.5-.5s-.22-.5-.5-.5Z"/><path d="m9,12h6v.03c.37.04.71.18,1,.4v-.44c0-2.21-1.79-4-4-4s-4,1.79-4,4h1Z"/></svg>