<svg xmlns="http://www.w3.org/2000/svg" width="24" height="24" viewBox="0 0 24 24"><g opacity="0.4"><path d="m12,8c-2.76,0-5,2.24-5,5h10c0-2.76-2.24-5-5-5Z"/></g><path d="m20.5,13H3.5c-.28,0-.5.22-.5.5s.22.5.5.5h17c.28,0,.5-.22.5-.5s-.22-.5-.5-.5Z"/><path d="m12,6c.28,0,.5-.22.5-.5v-2c0-.28-.22-.5-.5-.5s-.5.22-.5.5v2c0,.28.22.5.5.5Z"/><path d="m17.5,8c.13,0,.26-.05.35-.15l1-1c.2-.2.2-.51,0-.71s-.51-.2-.71,0l-1,1c-.2.2-.2.51,0,.71.1.1.23.15.35.15Z"/><path d="m6.15,7.85c.1.1.23.15.35.15s.26-.05.35-.15c.2-.2.2-.51,0-.71l-1-1c-.2-.2-.51-.2-.71,0s-.2.51,0,.71l1,1Z"/><path d="m6.22,16.05c-.25-.12-.55-.02-.67.22l-2.5,5c-.12.25-.02.55.22.67.07.04.15.05.22.05.18,0,.36-.1.45-.28l2.5-5c.12-.25.02-.55-.22-.67Z"/><path d="m7.5,22c.18,0,.36-.1.45-.28l2.5-5c.12-.25.02-.55-.22-.67-.25-.12-.55-.02-.67.22l-2.5,5c-.12.25-.02.55.22.67.07.04.15.05.22.05Z"/><path d="m11.5,22c.18,0,.36-.1.45-.28l2.5-5c.12-.25.02-.55-.22-.67-.25-.12-.55-.02-.67.22l-2.5,5c-.12.25-.02.55.22.67.07.04.15.05.22.05Z"/><path d="m18.22,16.05c-.25-.12-.55-.02-.67.22l-2.5,5c-.12.25-.02.55.22.67.07.04.15.05.22.05.18,0,.36-.1.45-.28l2.5-5c.12-.25.02-.55-.22-.67Z"/></svg>