<svg xmlns="http://www.w3.org/2000/svg" width="24" height="24" viewBox="0 0 24 24"><g opacity="0.4"><path d="m12.15,10.44l-3.09-3.09c-.58-.58-1.54-.58-2.12,0l-3.09,3.09c-.58.58-.58,1.54,0,2.12l3.09,3.09c.29.29.68.44,1.06.44s.77-.15,1.06-.44l3.09-3.09c.58-.58.58-1.54,0-2.12Z"/><path d="M16.75 12.5A4.25 4.25 0 1 0 16.75 21 4.25 4.25 0 1 0 16.75 12.5z"/></g><path d="m15.46,10.2c.29.28.66.41,1.04.41s.75-.14,1.04-.41l2.78-2.66c.62-.72.83-1.65.57-2.57h0c-.25-.9-.97-1.62-1.86-1.87-.91-.26-1.84-.05-2.53.53-.69-.58-1.62-.79-2.53-.53-.89.25-1.61.97-1.86,1.87-.26.92-.05,1.86.61,2.6l2.75,2.62Z"/></svg>