<svg xmlns="http://www.w3.org/2000/svg" width="24" height="24" viewBox="0 0 24 24"><g opacity="0.4"><path d="m19.54,14.86c.15-1.12.73-2.39,1.09-3.65.3-.89,1.94-7.32-.26-6.27-2.94,3.35-4.61,8-8.74,10.14-1.99,1.17-4.49.74-6.02-.87,2.26-1.72,4.76-3.15,6.7-5.28,1.23-1.53-.05-2.41-1.67-2.42-2.6-.05-6.19.34-7.05,3.34-.3,1.44.13,2.84.98,3.96-1.01.9-2.29,1.72-2.5,3.19h.86c.02-.35.48-.9.91-1.3.44-.41.9-.79,1.36-1.16.75.73,1.69,1.28,2.68,1.55,1.35.32,2.76.03,3.96-.57,3.91-2,6.06-6.01,8.66-9.32,0,.33-.02.67-.04.99-.12,2.67-1.39,4.98-1.89,7.59-.26,1.95,2.03,2.22,3.42,2.15v-.86c-.63-.01-1.28-.05-1.8-.23-.56-.2-.7-.42-.66-.99ZM6.87,7.87c1.44-.35,3.57-.65,4.91-.07-.02.3-.61.89-.9,1.16-1.82,1.61-3.94,2.97-5.87,4.5-1.57-2.22-.9-4.9,1.86-5.59Z"/></g><path d="M2 19H22V20H2z"/></svg>