<svg xmlns="http://www.w3.org/2000/svg" width="24" height="24" viewBox="0 0 24 24"><g opacity="0.4"><path d="m8.5,4h-1c-1.93,0-3.5,1.57-3.5,3.5v1c0,.28.22.5.5.5s.5-.22.5-.5v-1c0-1.38,1.12-2.5,2.5-2.5h1c.28,0,.5-.22.5-.5s-.22-.5-.5-.5Z"/><path d="m16.5,4h-1c-.28,0-.5.22-.5.5s.22.5.5.5h1c1.38,0,2.5,1.12,2.5,2.5v1c0,.28.22.5.5.5s.5-.22.5-.5v-1c0-1.93-1.57-3.5-3.5-3.5Z"/><path d="m19.5,15c-.28,0-.5.22-.5.5v1c0,1.38-1.12,2.5-2.5,2.5h-1c-.28,0-.5.22-.5.5s.22.5.5.5h1c1.93,0,3.5-1.57,3.5-3.5v-1c0-.28-.22-.5-.5-.5Z"/><path d="m8.5,19h-1c-1.38,0-2.5-1.12-2.5-2.5v-1c0-.28-.22-.5-.5-.5s-.5.22-.5.5v1c0,1.93,1.57,3.5,3.5,3.5h1c.28,0,.5-.22.5-.5s-.22-.5-.5-.5Z"/></g><path d="m7,9.87v4.26c0,.57.32,1.09.83,1.34l3.5,1.75c.05.03.11.04.17.06v-5.48l-4.46-2.23c-.02.1-.04.19-.04.29Z"/><path d="m16.17,8.53l-3.5-1.75c-.42-.21-.92-.21-1.34,0l-3.5,1.75c-.1.05-.19.12-.28.19l4.45,2.22,4.45-2.22c-.09-.07-.17-.14-.28-.19Z"/><path d="m17,14.13v-4.26c0-.1-.02-.19-.04-.29l-4.46,2.23v5.48c.06-.02.12-.03.17-.06l3.5-1.75c.51-.25.83-.77.83-1.34Z"/></svg>