<svg xmlns="http://www.w3.org/2000/svg" width="24" height="24" viewBox="0 0 24 24"><g opacity="0.4"><path d="m20.59,10.02c-.26-.2-.6-.25-.91-.14-1.36.47-4.82,1.99-7.68,5.98,0,0,0,0,0,0-2.91-3.98-6.33-5.5-7.66-5.97-.31-.11-.65-.06-.92.14-.26.2-.41.51-.4.83.25,6.26,3.69,10.15,8.99,10.15s8.72-3.98,8.99-10.15c.01-.33-.13-.64-.4-.83Z"/></g><path d="m11.25,4.34c-3.05,3.43-3.46,6.64-3.52,7.32,1.34.93,2.86,2.27,4.26,4.19,0,0,0,0,0,0,1.38-1.94,2.91-3.29,4.27-4.23-.06-.7-.49-3.89-3.51-7.29-.38-.42-1.13-.42-1.5,0Z"/></svg>