<svg xmlns="http://www.w3.org/2000/svg" width="24" height="24" viewBox="0 0 24 24"><g opacity="0.4"><path d="m19.94,11.63l-7.68,4.8c-.08.05-.17.08-.26.08-.17,0-.33-.08-.42-.24-.15-.23-.08-.54.16-.69l7.75-4.85c.14-.27.24-.56.27-.87.08-.76-.19-1.5-.72-2.04-.4-.4-.92-.62-1.47-.68l-7.21,7.21c-.1.1-.23.15-.35.15s-.26-.05-.35-.15c-.2-.2-.2-.51,0-.71l7.23-7.23c-.07-.53-.29-1.04-.7-1.45-.54-.54-1.28-.8-2.04-.72-.31.03-.6.13-.87.27l-4.85,7.75c-.09.15-.26.24-.42.24-.09,0-.18-.02-.26-.08-.23-.15-.31-.46-.16-.69l4.8-7.67c-.08-.11-.15-.23-.25-.33-.62-.62-1.5-.87-2.35-.67-.85.2-1.53.81-1.81,1.64l-2.95,8.64,5.66,5.66h0s8.64-2.95,8.64-2.95c.83-.28,1.44-.96,1.64-1.81.2-.85-.05-1.73-.72-2.39-.08-.08-.18-.14-.28-.21Z"/></g><path d="m9.83,19.83l.83-.83-5.66-5.66-.83.83c-.76.75-1.17,1.76-1.17,2.83s.42,2.07,1.17,2.83c.76.76,1.76,1.17,2.83,1.17s2.07-.42,2.83-1.17Z"/></svg>