<svg xmlns="http://www.w3.org/2000/svg" width="24" height="24" viewBox="0 0 24 24"><g opacity="0.4"><path d="m14.19,13.18c-.05.1-.11.19-.17.28h0c-1.42,1.95-3.63,2.99-5.88,2.99-1.48,0-2.97-.45-4.25-1.38-.17-.12-.33-.26-.49-.39.95,3.03,3.45,5.36,6.57,6.08.65-.2,1.27-.5,1.85-.91,2.15-1.56,3-4.24,2.36-6.67Z"/><path d="m16.75,4.75c.2,0,.4.01.6.03-1.5-1.11-3.35-1.78-5.35-1.78-1.23,0-2.41.25-3.48.7-.42.55-.77,1.17-.99,1.85-.82,2.53.06,5.2,2.01,6.78-.01-.11-.03-.22-.03-.33h0c0-4,3.25-7.25,7.25-7.25Z"/><path d="m16.75,5.75c-2.65,0-4.92,1.66-5.82,4,.1-.05.2-.08.31-.12h0c1.84-.61,3.81-.46,5.53.42,1.73.88,3,2.38,3.6,4.22.06.2.11.39.16.59.3-.9.48-1.86.48-2.87,0-2.26-.84-4.32-2.23-5.91-.64-.22-1.32-.34-2.02-.34Z"/><path d="m4.48,14.26c2.15,1.56,4.95,1.54,7.06.19-.11-.02-.21-.05-.31-.09h0c-.06,0-.12-.03-.17-.06-.01,0-.02,0-.04-.01-3.66-1.32-5.65-5.33-4.44-9.06.06-.19.14-.38.21-.56-2.29,1.63-3.79,4.3-3.79,7.32,0,.27.02.53.04.79.39.56.87,1.06,1.44,1.48Z"/><path d="m13.81,10.28c.08.08.14.16.21.25h0s.02.03.03.05c.01.02.02.03.03.05,2.26,3.23,1.53,7.7-1.67,10.02-.18.13-.37.23-.55.34.04,0,.09,0,.13,0,3.28,0,6.14-1.76,7.71-4.39,0-.68-.09-1.36-.3-2.03-.82-2.52-3.1-4.16-5.6-4.3Z"/></g><path d="m3.9,15.07c1.28.93,2.77,1.38,4.25,1.38,2.24,0,4.46-1.04,5.88-2.99h0c.07-.09.12-.19.17-.29.64,2.42-.21,5.11-2.36,6.67-.57.42-1.19.71-1.84.91.6.14,1.23.22,1.88.23.18-.11.37-.21.55-.33,3.2-2.33,3.93-6.8,1.67-10.02-.01-.02-.02-.03-.03-.05-.01-.02-.02-.04-.03-.05h0c-.06-.08-.13-.17-.21-.25,2.5.14,4.78,1.78,5.6,4.3.21.66.31,1.34.3,2.01.33-.55.6-1.13.81-1.75-.05-.19-.09-.39-.16-.58-.6-1.84-1.88-3.34-3.6-4.22-1.73-.88-3.69-1.03-5.53-.44h0c-.11.05-.21.08-.31.13.91-2.34,3.17-4,5.82-4,.69,0,1.36.12,1.98.33-.42-.48-.87-.92-1.38-1.3-.2-.02-.4-.03-.6-.03-4,0-7.25,3.25-7.25,7.25h0c0,.11.02.22.03.33-1.95-1.58-2.83-4.25-2.01-6.78.22-.68.57-1.28.98-1.84-.61.26-1.19.59-1.73.97-.08.18-.15.36-.21.55-1.21,3.73.78,7.74,4.44,9.06.01,0,.02,0,.04.01.06.02.11.05.17.07h0c.1.02.21.06.31.08-2.11,1.36-4.92,1.37-7.06-.19-.58-.42-1.05-.92-1.44-1.47.06.66.19,1.29.38,1.9.15.13.31.26.47.38Z"/><path d="m12,21s-.09,0-.13,0c0,0,0,0,0,0,.04,0,.09,0,.13,0Z"/></svg>