<svg xmlns="http://www.w3.org/2000/svg" width="24" height="24" viewBox="0 0 24 24"><g opacity="0.4"><path d="m11.5,6h1c.28,0,.5-.22.5-.5v-1.5h-2v1.5c0,.28.22.5.5.5Z"/><path d="m16.25,4.29c-.19-.19-.44-.29-.71-.29h-.54v2.5c0,.83-.67,1.5-1.5,1.5h-5c-.83,0-1.5-.67-1.5-1.5v-2.5c-1.66,0-3,1.34-3,3v10c0,1.66,1.34,3,3,3v-6.5c0-.83.67-1.5,1.5-1.5h7c.83,0,1.5.67,1.5,1.5v6.5c1.66,0,3-1.34,3-3v-8.13c0-.53-.21-1.04-.59-1.41l-3.16-3.16Z"/></g><path d="m8.5,8h5c.83,0,1.5-.67,1.5-1.5v-2.5h-2v1.5c0,.28-.22.5-.5.5h-1c-.28,0-.5-.22-.5-.5v-1.5h-4v2.5c0,.83.67,1.5,1.5,1.5Z"/><path d="m17,13.5c0-.83-.67-1.5-1.5-1.5h-7c-.83,0-1.5.67-1.5,1.5v6.5h10v-6.5Z"/></svg>