<svg xmlns="http://www.w3.org/2000/svg" width="24" height="24" viewBox="0 0 24 24"><g opacity="0.4"><path d="m20.74,16.06c-.98.34-2.42.71-3.16.67.37-2.17,4.86-7.32,2.95-9.19-1.02-.85-2.09-.26-2.99.13-2.09,1.03-4,2.38-5.99,3.51,1.3-1.9,2.26-4.07.15-5.61C7.67,3.5,3.88,9.62,2.39,12.55c-.38.76.69,1.45,1.23.79,1.8-1.92,3.59-4.23,5.86-5.4.31-.14.57-.17.67-.14.04,0,.07.02.1.04,0,.07-.02.19-.08.35-.54,1.39-1.67,2.64-2.55,3.94-.21.32-.52.75-.62,1.28-.18.58.24,1.41.75,1.63.3.16.74.2,1.03.16,1.44-.3,2.56-1,3.76-1.64,2.11-1.14,3.95-2.67,5.99-3.72-1.07,2.78-4.89,8.29-1.06,8.63,1.37.01,2.64-.57,3.81-1.04.35-.15.53-.54.41-.9-.13-.39-.54-.59-.93-.46Z"/></g></svg>