<svg xmlns="http://www.w3.org/2000/svg" width="24" height="24" viewBox="0 0 24 24"><g opacity="0.4"><path d="m19,5H5c-1.1,0-2,.9-2,2v2c0,1.1.9,2,2,2h14c1.1,0,2-.9,2-2v-2c0-1.1-.9-2-2-2Zm-5,4c-.55,0-1-.45-1-1s.45-1,1-1,1,.45,1,1-.45,1-1,1Zm4,0c-.55,0-1-.45-1-1s.45-1,1-1,1,.45,1,1-.45,1-1,1Z"/></g><path d="m19,13H5c-1.1,0-2,.9-2,2v2c0,1.1.9,2,2,2h14c1.1,0,2-.9,2-2v-2c0-1.1-.9-2-2-2Zm-5,4c-.55,0-1-.45-1-1s.45-1,1-1,1,.45,1,1-.45,1-1,1Zm4,0c-.55,0-1-.45-1-1s.45-1,1-1,1,.45,1,1-.45,1-1,1Z"/><path d="M14 7A1 1 0 1 0 14 9 1 1 0 1 0 14 7z"/><path d="M18 7A1 1 0 1 0 18 9 1 1 0 1 0 18 7z"/></svg>