<svg xmlns="http://www.w3.org/2000/svg" width="24" height="24" viewBox="0 0 24 24"><g opacity="0.4"><path d="m12.5,7.59V3.5c0-.28-.22-.5-.5-.5s-.5.22-.5.5v4.09l.5.5.5-.5Z"/><path d="m3.5,11.5c-.28,0-.5.22-.5.5s.22.5.5.5h3.69l.5-.5-.5-.5h-3.69Z"/><path d="m14.99,11.5h-2.49v-2.49l-.15.15c-.1.1-.23.15-.35.15s-.26-.05-.35-.15l-.15-.15v2.49h-2.89l.15.15c.2.2.2.51,0,.71l-.15.15h2.89v2.49l.15-.15c.2-.2.51-.2.71,0l.15.15v-2.49h2.49l-.15-.15c-.2-.2-.2-.51,0-.71l.15-.15Z"/><path d="m20.5,11.5h-4.09l-.5.5.5.5h4.09c.28,0,.5-.22.5-.5s-.22-.5-.5-.5Z"/><path d="m11.5,16.41v4.09c0,.28.22.5.5.5s.5-.22.5-.5v-4.09l-.5-.5-.5.5Z"/></g><path d="m11.65,9.15c.1.1.23.15.35.15s.26-.05.35-.15l3.6-3.6c.2-.2.2-.51,0-.71s-.51-.2-.71,0l-3.25,3.25-3.25-3.25c-.2-.2-.51-.2-.71,0s-.2.51,0,.71l3.6,3.6Z"/><path d="m15.95,18.45l-3.6-3.6c-.2-.2-.51-.2-.71,0l-3.6,3.6c-.2.2-.2.51,0,.71s.51.2.71,0l3.25-3.25,3.25,3.25c.1.1.23.15.35.15s.26-.05.35-.15c.2-.2.2-.51,0-.71Z"/><path d="m14.85,12.35l3.6,3.6c.1.1.23.15.35.15s.26-.05.35-.15c.2-.2.2-.51,0-.71l-3.25-3.25,3.25-3.25c.2-.2.2-.51,0-.71s-.51-.2-.71,0l-3.6,3.6c-.2.2-.2.51,0,.71Z"/><path d="m4.45,15.95c.1.1.23.15.35.15s.26-.05.35-.15l3.6-3.6c.2-.2.2-.51,0-.71l-3.6-3.6c-.2-.2-.51-.2-.71,0s-.2.51,0,.71l3.25,3.25-3.25,3.25c-.2.2-.2.51,0,.71Z"/></svg>