<svg xmlns="http://www.w3.org/2000/svg" width="24" height="24" viewBox="0 0 24 24"><g opacity="0.4"><path d="m8.25,21l.15-.2h0s.22-.3.22-.3l.23-.3c.09-.13.24-.2.4-.2h5.5c.16,0,.31.07.4.2l.23.3.22.3h0s.15.2.15.2h2.25l-2-3c1.1,0,2-.9,2-2v-5.5c0-2.48-2.02-4.5-4.5-4.5h-3c-2.48,0-4.5,2.02-4.5,4.5v5.5c0,1.1.9,2,2,2l-2,3h2.25Zm.75-5c-.55,0-1-.45-1-1s.45-1,1-1,1,.45,1,1-.45,1-1,1Zm6,0c-.55,0-1-.45-1-1s.45-1,1-1,1,.45,1,1-.45,1-1,1Zm-7.5-5c-.28,0-.5-.22-.5-.5,0-1.93,1.57-3.5,3.5-3.5h3c1.93,0,3.5,1.57,3.5,3.5,0,.28-.22.5-.5.5H7.5Z"/></g><path d="m17,10.5c0-1.93-1.57-3.5-3.5-3.5h-3c-1.93,0-3.5,1.57-3.5,3.5,0,.28.22.5.5.5h9c.28,0,.5-.22.5-.5Z"/><path d="m15.6,20.8l-.22-.3-.23-.3c-.09-.13-.24-.2-.4-.2h-5.5c-.16,0-.31.07-.4.2l-.23.3-.22.3h0s-.15.2-.15.2h7.5l-.15-.2h0Z"/><path d="m13.5,3h-3c-4.14,0-7.5,3.36-7.5,7.5v10c0,.28.22.5.5.5h2.5l2-3c-1.1,0-2-.9-2-2v-5.5c0-2.48,2.02-4.5,4.5-4.5h3c2.48,0,4.5,2.02,4.5,4.5v5.5c0,1.1-.9,2-2,2l2,3h2.5c.28,0,.5-.22.5-.5v-10c0-4.14-3.36-7.5-7.5-7.5Z"/></svg>