<svg xmlns="http://www.w3.org/2000/svg" width="24" height="24" viewBox="0 0 24 24"><g opacity="0.4"><path d="m11.75,6.54l2.35,2.35c.2.2.2.51,0,.71-.1.1-.23.15-.35.15s-.26-.05-.35-.15l-2.35-2.35-1.79,1.79,2.35,2.35c.2.2.2.51,0,.71-.1.1-.23.15-.35.15s-.26-.05-.35-.15l-2.35-2.35-1.79,1.79,2.35,2.35c.2.2.2.51,0,.71-.1.1-.23.15-.35.15s-.26-.05-.35-.15l-2.35-2.35-.02.02c-.66.66-1.03,1.54-1.03,2.48v3.76c0,.28.22.5.5.5h3.76c.92,0,1.82-.37,2.47-1.03l7.77-7.77-5.71-5.71-2.04,2.04Z"/></g><path d="m13.75,9.75c.13,0,.26-.05.35-.15.2-.2.2-.51,0-.71l-2.35-2.35-.71.71,2.35,2.35c.1.1.23.15.35.15Z"/><path d="m11.25,12.25c.13,0,.26-.05.35-.15.2-.2.2-.51,0-.71l-2.35-2.35-.71.71,2.35,2.35c.1.1.23.15.35.15Z"/><path d="m8.75,14.75c.13,0,.26-.05.35-.15.2-.2.2-.51,0-.71l-2.35-2.35-.71.71,2.35,2.35c.1.1.23.15.35.15Z"/><path d="m5.5,19c-.28,0-.5-.22-.5-.5v-.21l-1.85,1.85c-.2.2-.2.51,0,.71.1.1.23.15.35.15s.26-.05.35-.15l1.85-1.85h-.21Z"/><path d="m20.15,6.85c.1.1.23.15.35.15s.26-.05.35-.15c.2-.2.2-.51,0-.71l-3-3c-.2-.2-.51-.2-.71,0s-.2.51,0,.71l1.15,1.15-1.29,1.29-3.15-3.15c-.2-.2-.51-.2-.71,0s-.2.51,0,.71l7,7c.1.1.23.15.35.15s.26-.05.35-.15c.2-.2.2-.51,0-.71l-3.15-3.15,1.29-1.29,1.15,1.15Z"/></svg>