<svg xmlns="http://www.w3.org/2000/svg" width="24" height="24" viewBox="0 0 24 24"><g opacity="0.4"><path d="m6.4,8.28c.36,1.59,1.78,2.72,3.41,2.72h4.39c1.63,0,3.05-1.13,3.41-2.72l.52-2.28H5.87l.52,2.28Z"/></g><path d="m13,13c-.28,0-.5.22-.5.5,0,1.62-.45,2.41-.93,3.25-.52.92-1.07,1.87-1.07,3.75,0,.28.22.5.5.5s.5-.22.5-.5c0-1.62.45-2.41.93-3.25.52-.92,1.07-1.87,1.07-3.75,0-.28-.22-.5-.5-.5Z"/><path d="m10,13c-.28,0-.5.22-.5.5,0,1.62-.45,2.41-.93,3.25-.52.92-1.07,1.87-1.07,3.75,0,.28.22.5.5.5s.5-.22.5-.5c0-1.62.45-2.41.93-3.25.52-.92,1.07-1.87,1.07-3.75,0-.28-.22-.5-.5-.5Z"/><path d="m14,21c.28,0,.5-.22.5-.5,0-1.62.45-2.41.93-3.25.52-.92,1.07-1.87,1.07-3.75,0-.28-.22-.5-.5-.5s-.5.22-.5.5c0,1.62-.45,2.41-.93,3.25-.52.92-1.07,1.87-1.07,3.75,0,.28.22.5.5.5Z"/><path d="m19.5,3H4.5c-.83,0-1.5.67-1.5,1.5s.67,1.5,1.5,1.5h15c.83,0,1.5-.67,1.5-1.5s-.67-1.5-1.5-1.5Z"/></svg>