<svg xmlns="http://www.w3.org/2000/svg" width="24" height="24" viewBox="0 0 24 24"><g opacity="0.4"><path d="m11.77,18.97c.65.65,1.55,1.03,2.47,1.03h1.26c.28,0,.5-.22.5-.5s-.22-.5-.5-.5h-1.26c-.66,0-1.3-.27-1.77-.73l-6.74-6.74c-.47-.47-.73-1.1-.73-1.77v-1.26c0-.28-.22-.5-.5-.5s-.5.22-.5.5v1.26c0,.93.36,1.81,1.03,2.48l2.31,2.31-3.69,3.69c-.39.39-.39,1.02,0,1.41l.71.71c.39.39,1.02.39,1.41,0l3.69-3.69,2.31,2.31Z"/></g><path d="m20.5,3h-4.02c-.46,0-.88.2-1.17.56l-7.85,9.7,3.29,3.29,9.7-7.85c.35-.29.56-.71.56-1.17V3.5c0-.28-.22-.5-.5-.5Z"/></svg>