<svg xmlns="http://www.w3.org/2000/svg" width="24" height="24" viewBox="0 0 24 24"><g opacity="0.4"><path d="m10.77,20.45c.38.21.81.32,1.23.32v-8.76h-7.38c.76,2.92,2.44,6.39,6.15,8.45Z"/><path d="m18.83,6.14l-5.77-2.7c-.34-.16-.7-.24-1.06-.24v8.79h7.38c.41-1.59.56-3.02.6-3.96.04-.81-.42-1.55-1.15-1.9Z"/></g><path d="m13.23,20.45c3.71-2.06,5.39-5.53,6.15-8.45h-7.38v8.76c.43,0,.85-.11,1.23-.32Z"/><path d="m12,12V3.21c-.36,0-.72.08-1.06.24l-5.77,2.7c-.74.34-1.19,1.09-1.15,1.9.04.94.19,2.37.6,3.96h7.38Z"/></svg>