<svg xmlns="http://www.w3.org/2000/svg" width="24" height="24" viewBox="0 0 24 24"><g opacity="0.4"><path d="m21.5,8h-5.5v-2.5c0-1.38-1.12-2.5-2.5-2.5s-2.5,1.12-2.5,2.5c0,.28.22.5.5.5s.5-.22.5-.5c0-.83.67-1.5,1.5-1.5s1.5.67,1.5,1.5v2.5h-5v-2.5c0-1.38-1.12-2.5-2.5-2.5s-2.5,1.12-2.5,2.5c0,.28.22.5.5.5s.5-.22.5-.5c0-.83.67-1.5,1.5-1.5s1.5.67,1.5,1.5v2.5H2.5c-.28,0-.5.22-.5.5s.22.5.5.5h6.5v4.5c0,.28.22.5.5.5s.5-.22.5-.5v-4.5h5v4.5c0,.28.22.5.5.5s.5-.22.5-.5v-4.5h5.5c.28,0,.5-.22.5-.5s-.22-.5-.5-.5Z"/></g><path d="m21.5,17c-.83,0-1.22-.21-1.67-.44-.5-.26-1.06-.56-2.13-.56s-1.64.3-2.13.56c-.45.24-.84.44-1.67.44s-1.22-.21-1.67-.44c-.5-.26-1.06-.56-2.13-.56s-1.64.3-2.13.56c-.45.24-.84.44-1.67.44s-1.21-.21-1.67-.44c-.5-.26-1.06-.56-2.13-.56-.28,0-.5.22-.5.5s.22.5.5.5c.83,0,1.21.21,1.67.44.5.26,1.06.56,2.13.56s1.64-.3,2.13-.56c.45-.24.84-.44,1.67-.44s1.21.21,1.67.44c.5.26,1.06.56,2.13.56s1.64-.3,2.13-.56c.45-.24.84-.44,1.67-.44s1.22.21,1.67.44c.5.26,1.06.56,2.13.56.28,0,.5-.22.5-.5s-.22-.5-.5-.5Z"/><path d="m21.5,20c-.83,0-1.22-.21-1.67-.44-.5-.26-1.06-.56-2.13-.56s-1.64.3-2.13.56c-.45.24-.84.44-1.67.44s-1.22-.21-1.67-.44c-.5-.26-1.06-.56-2.13-.56s-1.64.3-2.13.56c-.45.24-.84.44-1.67.44s-1.21-.21-1.67-.44c-.5-.26-1.06-.56-2.13-.56-.28,0-.5.22-.5.5s.22.5.5.5c.83,0,1.21.21,1.67.44.5.26,1.06.56,2.13.56s1.64-.3,2.13-.56c.45-.24.84-.44,1.67-.44s1.21.21,1.67.44c.5.26,1.06.56,2.13.56s1.64-.3,2.13-.56c.45-.24.84-.44,1.67-.44s1.22.21,1.67.44c.5.26,1.06.56,2.13.56.28,0,.5-.22.5-.5s-.22-.5-.5-.5Z"/></svg>