<svg xmlns="http://www.w3.org/2000/svg" width="24" height="24" viewBox="0 0 24 24"><g opacity="0.4"><path d="m18.78,10.73l-1.18-.46-1,2.56c-.08.2-.27.32-.47.32-.06,0-.12-.01-.18-.03-.26-.1-.38-.39-.28-.65l1-2.55-1.87-.72-.99,2.54c-.08.2-.27.32-.47.32-.06,0-.12-.01-.18-.03-.26-.1-.38-.39-.28-.65l.99-2.54-1.87-.72-.99,2.52c-.08.2-.27.32-.47.32-.06,0-.12-.01-.18-.03-.26-.1-.38-.39-.28-.65l.99-2.52-1.49-.57c-.34-.13-.71-.17-1.08-.1l-3.85.7c-.95.17-1.64,1-1.64,1.97v6.25h18v-2.01c0-1.45-.87-2.73-2.22-3.26Z"/></g><path d="m13.15,12.02c.06.02.12.03.18.03.2,0,.39-.12.47-.32l.99-2.54-.93-.36-.99,2.54c-.1.26.03.55.28.65Z"/><path d="m15.94,13.11c.06.02.12.03.18.03.2,0,.39-.12.47-.32l1-2.56-.93-.36-1,2.55c-.1.26.03.55.28.65Z"/><path d="m10.36,10.93c.06.02.12.03.18.03.2,0,.39-.12.47-.32l.99-2.52-.93-.36-.99,2.52c-.1.26.03.55.28.65Z"/><path d="m3,17c0,1.1.9,2,2,2h14c1.1,0,2-.9,2-2v-1H3v1Z"/></svg>