<svg xmlns="http://www.w3.org/2000/svg" width="24" height="24" viewBox="0 0 24 24"><g opacity="0.4"><path d="m14.5,8c-3.58,0-6.5,2.92-6.5,6.5s2.92,6.5,6.5,6.5,6.5-2.92,6.5-6.5-2.92-6.5-6.5-6.5Zm0,12c-3.03,0-5.5-2.47-5.5-5.5s2.47-5.5,5.5-5.5,5.5,2.47,5.5,5.5-2.47,5.5-5.5,5.5Z"/></g><path d="m15,9.5c0,3.03-2.47,5.5-5.5,5.5-.16,0-.32-.01-.48-.02.03.35.09.68.19,1.01.1,0,.19.01.29.01,3.58,0,6.5-2.92,6.5-6.5,0-.1-.01-.19-.01-.29-.33-.09-.66-.16-1.01-.19.01.16.02.32.02.48Z"/><path d="m8.01,14.79c-2.31-.65-4.01-2.77-4.01-5.29,0-3.03,2.47-5.5,5.5-5.5,2.52,0,4.64,1.7,5.29,4.01.36.02.72.06,1.06.13-.63-2.94-3.24-5.14-6.36-5.14-3.58,0-6.5,2.92-6.5,6.5,0,3.12,2.21,5.73,5.14,6.36-.07-.35-.11-.7-.13-1.06Z"/></svg>