<svg xmlns="http://www.w3.org/2000/svg" width="24" height="24" viewBox="0 0 24 24"><g opacity="0.4"><path d="m18,9.29v-1.29c0-1.1-.9-2-2-2h-1.29l-1.29-1.29c-.76-.76-2.07-.76-2.83,0l-1.29,1.29h-1.29c-1.1,0-2,.9-2,2v1.29l-1.29,1.29c-.38.38-.59.88-.59,1.41s.21,1.04.59,1.41l1.29,1.29v1.29c0,1.1.9,2,2,2h1.29l1.29,1.29c.38.38.88.59,1.41.59s1.04-.21,1.41-.59l1.29-1.29h1.29c1.1,0,2-.9,2-2v-1.29l1.29-1.29c.38-.38.59-.88.59-1.41s-.21-1.04-.59-1.41l-1.29-1.29Zm-2.65,1.06l-4,4c-.1.1-.23.15-.35.15s-.26-.05-.35-.15l-2-2c-.2-.2-.2-.51,0-.71s.51-.2.71,0l1.65,1.65,3.65-3.65c.2-.2.51-.2.71,0s.2.51,0,.71Z"/></g><path d="m14.65,9.65l-3.65,3.65-1.65-1.65c-.2-.2-.51-.2-.71,0s-.2.51,0,.71l2,2c.1.1.23.15.35.15s.26-.05.35-.15l4-4c.2-.2.2-.51,0-.71s-.51-.2-.71,0Z"/></svg>