<svg xmlns="http://www.w3.org/2000/svg" width="24" height="24" viewBox="0 0 24 24"><g opacity="0.4"><path d="m20.35,10h-5.17c-.38,0-.63.42-.43.75l4.09,7.08c.35-.41.68-.85.96-1.33,1.08-1.86,1.43-4,1.05-6.09-.04-.24-.26-.41-.5-.41Z"/><path d="m12.91,3.05c-1.07-.11-2.17-.03-3.24.26-1.3.35-2.48.97-3.48,1.82-.18.16-.22.43-.1.64l2.59,4.49c.19.33.67.33.87,0l3.72-6.45c.18-.31-.01-.71-.36-.75Z"/><path d="m11.71,15h-7.44c-.37,0-.6.38-.45.72.75,1.65,2,3.1,3.69,4.07.47.27.96.49,1.46.66.23.08.48-.02.6-.23l2.59-4.48c.19-.33-.05-.75-.43-.75Z"/></g><path d="m12.29,9h7.45c.37,0,.6-.38.45-.72-.77-1.7-2.04-3.12-3.69-4.07-.47-.27-.96-.49-1.46-.67-.23-.08-.48.02-.6.23l-2.59,4.49c-.19.33.05.75.43.75Z"/><path d="m17.8,18.86c.18-.16.23-.43.1-.64l-2.59-4.48c-.19-.33-.67-.33-.87,0l-4.09,7.08c.54.1,1.08.17,1.62.17,2.11,0,4.18-.75,5.82-2.13Z"/><path d="m9.26,13.25l-4.1-7.1c-.35.42-.68.86-.96,1.35-1.11,1.92-1.42,4.07-1.05,6.09.04.24.26.41.5.41h5.17c.38,0,.63-.42.43-.75Z"/></svg>