<svg xmlns="http://www.w3.org/2000/svg" width="24" height="24" viewBox="0 0 24 24"><g opacity="0.4"><path d="m11.99,20.04c.67,0,1.3-.26,1.77-.73l3.54-3.54c.47-.47.73-1.1.73-1.77s-.26-1.3-.73-1.77l-3.54-3.54c-.94-.94-2.59-.94-3.54,0l-3.54,3.54c-.47.47-.73,1.1-.73,1.77s.26,1.3.73,1.77l3.54,3.54c.47.47,1.1.73,1.77.73Z"/></g><path d="m20.15,3.85l-1.32,1.32c-1.69-1.98-4.16-3.17-6.83-3.17C7.04,2,3,6.04,3,11c0,.28.22.5.5.5s.5-.22.5-.5c0-4.41,3.59-8,8-8,2.4,0,4.62,1.08,6.12,2.88l-1.27,1.27c-.32.32-.09.85.35.85h3.29c.28,0,.5-.22.5-.5v-3.29c0-.45-.54-.67-.85-.35Z"/></svg>