<svg xmlns="http://www.w3.org/2000/svg" width="24" height="24" viewBox="0 0 24 24"><g opacity="0.4"><path d="m12,3C7.04,3,3,7.04,3,12s4.04,9,9,9,9-4.04,9-9S16.96,3,12,3Zm-3.5,6c.83,0,1.5.67,1.5,1.5s-.67,1.5-1.5,1.5-1.5-.67-1.5-1.5.67-1.5,1.5-1.5Zm8.06,6.08c-.2.29-.42.57-.67.81-.25.25-.52.47-.81.67-.29.2-.61.37-.93.51-.33.14-.68.25-1.03.32-.36.07-.74.11-1.11.11s-.75-.04-1.11-.11c-.35-.07-.7-.18-1.03-.32-.33-.14-.64-.31-.93-.51-.29-.2-.57-.42-.81-.67-.25-.25-.47-.52-.67-.81-.16-.23-.09-.54.13-.69.23-.16.54-.09.69.13.16.24.35.46.55.67.2.21.43.39.67.55.24.16.5.3.76.42.27.11.56.2.84.26.6.12,1.22.12,1.82,0,.29-.06.57-.15.84-.26.27-.11.52-.25.76-.42.24-.16.46-.35.66-.55.21-.2.39-.43.55-.67.16-.23.47-.29.69-.13.23.15.29.47.13.69Zm-1.06-3.08c-.83,0-1.5-.67-1.5-1.5s.67-1.5,1.5-1.5,1.5.67,1.5,1.5-.67,1.5-1.5,1.5Z"/></g><path d="m12.91,16.41c-.6.12-1.22.12-1.82,0-.29-.06-.57-.15-.84-.26-.27-.11-.53-.25-.76-.42-.24-.16-.46-.35-.67-.55-.2-.2-.39-.43-.55-.67-.16-.23-.47-.29-.69-.13-.23.15-.29.47-.13.69.2.29.42.57.67.81.25.25.52.48.81.67.29.2.61.37.93.51.33.14.68.25,1.03.32.36.07.74.11,1.11.11s.75-.04,1.11-.11c.35-.07.7-.18,1.03-.32.33-.14.64-.31.93-.51.29-.2.57-.42.81-.67.25-.25.48-.52.67-.81.16-.23.09-.54-.13-.69-.23-.15-.54-.09-.69.13-.16.24-.35.46-.55.67-.2.2-.43.39-.66.55-.24.16-.5.3-.76.42-.27.12-.56.2-.84.26Z"/><path d="M8.5 9A1.5 1.5 0 1 0 8.5 12 1.5 1.5 0 1 0 8.5 9z"/><path d="m17,10.5c0-.83-.67-1.5-1.5-1.5s-1.5.67-1.5,1.5.67,1.5,1.5,1.5,1.5-.67,1.5-1.5Z"/></svg>