<svg xmlns="http://www.w3.org/2000/svg" width="24" height="24" viewBox="0 0 24 24"><g opacity="0.4"><path d="m16.5,13c-1.38,0-2.5-1.12-2.5-2.5v-.05c0-.62.21-1.19.58-1.6.74-.81,1.06-1.9.86-2.99-.25-1.4-1.41-2.55-2.81-2.8-1.03-.18-2.09.09-2.88.76s-1.25,1.65-1.25,2.68c0,.84.3,1.65.86,2.28.42.48.64,1.07.64,1.72,0,1.38-1.12,2.5-2.5,2.5-1.93,0-3.5,1.57-3.5,3.5,0,.83.67,1.5,1.5,1.5h13c.83,0,1.5-.67,1.5-1.5,0-1.93-1.57-3.5-3.5-3.5Z"/></g><path d="m19.5,20H4.5c-.28,0-.5.22-.5.5s.22.5.5.5h15c.28,0,.5-.22.5-.5s-.22-.5-.5-.5Z"/></svg>