<svg xmlns="http://www.w3.org/2000/svg" width="24" height="24" viewBox="0 0 24 24"><g opacity="0.4"><path d="m12,8c-4.47,0-9,1.03-9,3v7c0,1.59,2.96,2.57,6.46,2.88.29.03.54-.21.54-.5v-1.38c0-.55.45-1,1-1h2c.55,0,1,.45,1,1v1.38c0,.29.25.53.54.5,3.5-.32,6.46-1.29,6.46-2.88v-7c0-1.97-4.53-3-9-3Zm0,1c5.25,0,8,1.3,8,2s-2.75,2-8,2-8-1.3-8-2,2.75-2,8-2Z"/></g><path d="m7,6.62l2.38-.89c.22-.08.22-.39,0-.47l-3.04-1.14c-.16-.06-.34.06-.34.23v4.35c.32-.09.65-.17,1-.24v-1.85Z"/><path d="m12.5,8.01v-2.38l2.38-.89c.22-.08.22-.39,0-.47l-3.04-1.14c-.16-.06-.34.06-.34.23v4.65c.17,0,.33,0,.5,0s.33,0,.5,0Z"/><path d="m18,6.62l2.38-.89c.22-.08.22-.39,0-.47l-3.04-1.14c-.16-.06-.34.06-.34.23v4.11c.35.07.68.15,1,.24v-2.09Z"/><path d="m12,13c5.16,0,7.9-1.26,7.99-1.96,0-.04,0-.09-.01-.13-.23-.71-2.95-1.91-7.98-1.91s-7.75,1.19-7.98,1.91c0,.04-.01.09-.01.13.09.71,2.83,1.96,7.99,1.96Z"/></svg>