<svg xmlns="http://www.w3.org/2000/svg" width="24" height="24" viewBox="0 0 24 24"><g opacity="0.4"><path d="m16.99,16.28c1.25-1.41,2.01-3.26,2.01-5.28,0-4.41-3.59-8-8-8S3,6.59,3,11s3.59,8,8,8c2.03,0,3.87-.76,5.28-2.01l3.36,3.36c.1.1.23.15.35.15s.26-.05.35-.15c.2-.2.2-.51,0-.71l-3.36-3.36Zm-7.64-3.14c.2.2.2.51,0,.71-.1.1-.23.15-.35.15s-.26-.05-.35-.15l-2.5-2.5c-.2-.2-.2-.51,0-.71l2.5-2.5c.2-.2.51-.2.71,0s.2.51,0,.71l-2.15,2.15,2.15,2.15Zm6.5-1.79l-2.5,2.5c-.1.1-.23.15-.35.15s-.26-.05-.35-.15c-.2-.2-.2-.51,0-.71l2.15-2.15-2.15-2.15c-.2-.2-.2-.51,0-.71s.51-.2.71,0l2.5,2.5c.2.2.2.51,0,.71Z"/></g><path d="m9.35,8.15c-.2-.2-.51-.2-.71,0l-2.5,2.5c-.2.2-.2.51,0,.71l2.5,2.5c.1.1.23.15.35.15s.26-.05.35-.15c.2-.2.2-.51,0-.71l-2.15-2.15,2.15-2.15c.2-.2.2-.51,0-.71Z"/><path d="m13.35,8.15c-.2-.2-.51-.2-.71,0s-.2.51,0,.71l2.15,2.15-2.15,2.15c-.2.2-.2.51,0,.71.1.1.23.15.35.15s.26-.05.35-.15l2.5-2.5c.2-.2.2-.51,0-.71l-2.5-2.5Z"/></svg>