<svg xmlns="http://www.w3.org/2000/svg" width="24" height="24" viewBox="0 0 24 24"><g opacity="0.4"><path d="m8.5,3H3.5c-.28,0-.5.22-.5.5s.22.5.5.5h5c.83,0,1.5.67,1.5,1.5v.88H3.5c-.28,0-.5.22-.5.5s.22.5.5.5h6.5v2.38H3.5c-.28,0-.5.22-.5.5s.22.5.5.5h6.5v2.5H3.5c-.28,0-.5.22-.5.5s.22.5.5.5h6.5v2.38H3.5c-.28,0-.5.22-.5.5s.22.5.5.5h6.5v.88c0,.83-.67,1.5-1.5,1.5H3.5c-.28,0-.5.22-.5.5s.22.5.5.5h5c1.38,0,2.5-1.12,2.5-2.5V5.5c0-1.38-1.12-2.5-2.5-2.5Z"/><path d="m19.5,10h-5c-.83,0-1.5.67-1.5,1.5v7c0,1.38,1.12,2.5,2.5,2.5h3c1.38,0,2.5-1.12,2.5-2.5v-7c0-.83-.67-1.5-1.5-1.5Zm-.5,7.5c0,.28-.22.5-.5.5s-.5-.22-.5-.5v-4c0-.28.22-.5.5-.5s.5.22.5.5v4Z"/></g><path d="m19.5,10c.18,0,.34.04.5.09v-5.59c0-.83-.67-1.5-1.5-1.5h-1c-1.93,0-3.5,1.57-3.5,3.5v3.59c.16-.06.32-.09.5-.09h5Z"/><path d="m18,13.5v4c0,.28.22.5.5.5s.5-.22.5-.5v-4c0-.28-.22-.5-.5-.5s-.5.22-.5.5Z"/></svg>