<svg xmlns="http://www.w3.org/2000/svg" width="24" height="24" viewBox="0 0 24 24"><g opacity="0.4"><path d="m12,3C7.04,3,3,7.04,3,12s4.04,9,9,9,9-4.04,9-9S16.96,3,12,3Zm-4.5,8c0,.28-.22.5-.5.5s-.5-.22-.5-.5c0-1.93,1.57-3.5,3.5-3.5.28,0,.5.22.5.5s-.22.5-.5.5c-1.38,0-2.5,1.12-2.5,2.5Zm4.5,7c-1.66,0-3-1.12-3-2.5s1.34-2.5,3-2.5,3,1.12,3,2.5-1.34,2.5-3,2.5Zm5-6.5c-.28,0-.5-.22-.5-.5,0-1.38-1.12-2.5-2.5-2.5-.28,0-.5-.22-.5-.5s.22-.5.5-.5c1.93,0,3.5,1.57,3.5,3.5,0,.28-.22.5-.5.5Z"/></g><path d="m16.5,11c0,.28.22.5.5.5s.5-.22.5-.5c0-1.93-1.57-3.5-3.5-3.5-.28,0-.5.22-.5.5s.22.5.5.5c1.38,0,2.5,1.12,2.5,2.5Z"/><path d="M12 13A3 2.5 0 1 0 12 18 3 2.5 0 1 0 12 13z"/><path d="m10,7.5c-1.93,0-3.5,1.57-3.5,3.5,0,.28.22.5.5.5s.5-.22.5-.5c0-1.38,1.12-2.5,2.5-2.5.28,0,.5-.22.5-.5s-.22-.5-.5-.5Z"/></svg>