<svg xmlns="http://www.w3.org/2000/svg" width="24" height="24" viewBox="0 0 24 24"><g opacity="0.4"><path d="m3.5,21c.13,0,.26-.05.35-.15l2-2s.03-.05.05-.08c-.12-.11-.24-.21-.36-.32-.11-.11-.22-.24-.33-.36-.03.02-.05.03-.08.05l-2,2c-.2.2-.2.51,0,.71.1.1.23.15.35.15Z"/><path d="m12.41,12.3l1.58-1.58c.3.18.64.28,1.01.28,1.1,0,2-.9,2-2s-.9-2-2-2-2,.9-2,2c0,.37.11.71.28,1.01l-1.58,1.58.71.71Z"/></g><path d="m7.02,6.91c-.31-.31-.74-.47-1.17-.44-.43.03-.83.24-1.09.59-2.6,3.44-2.26,8.34.79,11.39,1.68,1.68,3.92,2.54,6.17,2.54,1.84,0,3.68-.58,5.23-1.75.34-.26.56-.66.59-1.09.03-.44-.13-.86-.44-1.17L7.02,6.91Z"/><path d="m19.24,4.76c-.57-.57-1.24-1.02-1.99-1.32-1.44-.58-3.08-.58-4.51,0-.26.1-.38.4-.28.65.1.26.39.38.65.28,1.2-.49,2.56-.49,3.76,0,.62.25,1.18.62,1.65,1.1.48.48.85,1.03,1.1,1.65.24.6.37,1.23.37,1.88s-.12,1.28-.37,1.88c-.1.26.02.55.28.65.06.02.12.04.19.04.2,0,.38-.12.46-.31.29-.72.44-1.48.44-2.26s-.15-1.54-.44-2.26c-.3-.74-.75-1.41-1.32-1.98Z"/></svg>