<svg xmlns="http://www.w3.org/2000/svg" width="24" height="24" viewBox="0 0 24 24"><g opacity="0.4"><path d="m8.5,4h-1c-1.93,0-3.5,1.57-3.5,3.5v1c0,.28.22.5.5.5s.5-.22.5-.5v-1c0-1.38,1.12-2.5,2.5-2.5h1c.28,0,.5-.22.5-.5s-.22-.5-.5-.5Z"/><path d="m16.5,4h-1c-.28,0-.5.22-.5.5s.22.5.5.5h1c1.38,0,2.5,1.12,2.5,2.5v1c0,.28.22.5.5.5s.5-.22.5-.5v-1c0-1.93-1.57-3.5-3.5-3.5Z"/><path d="m19.5,15c-.28,0-.5.22-.5.5v1c0,1.38-1.12,2.5-2.5,2.5h-1c-.28,0-.5.22-.5.5s.22.5.5.5h1c1.93,0,3.5-1.57,3.5-3.5v-1c0-.28-.22-.5-.5-.5Z"/><path d="m8.5,19h-1c-1.38,0-2.5-1.12-2.5-2.5v-1c0-.28-.22-.5-.5-.5s-.5.22-.5.5v1c0,1.93,1.57,3.5,3.5,3.5h1c.28,0,.5-.22.5-.5s-.22-.5-.5-.5Z"/></g><path d="m15.65,16.35c.1.1.23.15.35.15s.26-.05.35-.15c.2-.2.2-.51,0-.71l-2.21-2.21c.53-.68.85-1.52.85-2.44,0-2.21-1.79-4-4-4s-4,1.79-4,4,1.79,4,4,4c.92,0,1.76-.33,2.44-.85l2.21,2.21Z"/></svg>