<svg xmlns="http://www.w3.org/2000/svg" width="24" height="24" viewBox="0 0 24 24"><g opacity="0.4"><path d="m19.76,3.54c-1.09-.74-2.78-.72-4.82.09-2.17.86-4.54,2.5-6.67,4.63-2.27,2.27-4.02,4.87-4.79,7.14-.44,1.27-.12,2.65.83,3.6L19.76,3.54Z"/><path d="m5.01,19.7c.72.67,1.58,1.03,2.47,1.03.37,0,.75-.06,1.12-.19,2.27-.78,4.87-2.53,7.14-4.8,4.31-4.31,6.27-9.19,4.72-11.5l-15.45,15.45Z"/></g><path d="m20.15,3.85c-.12-.12-.25-.22-.39-.32l-15.46,15.46s0,0,0,0l.59.59s.08.06.12.1l15.45-15.45c-.09-.14-.2-.27-.32-.39Z"/></svg>