<svg xmlns="http://www.w3.org/2000/svg" width="24" height="24" viewBox="0 0 24 24"><g opacity="0.4"><path d="m18.5,14H6.6c-1.03,0-2,.43-2.67,1.14l.07-.09,6-6v-3.55c0-1.38-1.12-2.5-2.5-2.5h-2c-1.38,0-2.5,1.12-2.5,2.5v12h0c0,1.93,1.56,3.5,3.49,3.5h12c1.38,0,2.5-1.12,2.5-2.5v-2c0-1.38-1.12-2.5-2.5-2.5Zm-12,5c-.83,0-1.5-.67-1.5-1.5s.67-1.5,1.5-1.5,1.5.67,1.5,1.5-.67,1.5-1.5,1.5Z"/></g><path d="m14.95,14l4.49-4.49c.97-.97.97-2.56,0-3.54l-1.41-1.41c-.94-.94-2.59-.94-3.54,0L4,15.05l-.11.14c.67-.74,1.66-1.2,2.72-1.2h8.35Z"/><path d="M6.5 16A1.5 1.5 0 1 0 6.5 19 1.5 1.5 0 1 0 6.5 16z"/></svg>