<svg xmlns="http://www.w3.org/2000/svg" width="24" height="24" viewBox="0 0 24 24"><g opacity="0.4"><path d="m18.5,9h-7c-1.38,0-2.5,1.12-2.5,2.5v7c0,1.38,1.12,2.5,2.5,2.5h7c1.38,0,2.5-1.12,2.5-2.5v-7c0-1.38-1.12-2.5-2.5-2.5Zm1.5,9.5c0,.83-.67,1.5-1.5,1.5h-7c-.83,0-1.5-.67-1.5-1.5v-7c0-.83.67-1.5,1.5-1.5h7c.83,0,1.5.67,1.5,1.5v7Z"/></g><path d="m14,12.5c0,.83-.67,1.5-1.5,1.5h-2.5v1h2.5c1.38,0,2.5-1.12,2.5-2.5v-2.5h-1v2.5Z"/><path d="m9,14h-3.5c-.83,0-1.5-.67-1.5-1.5v-7c0-.83.67-1.5,1.5-1.5h7c.83,0,1.5.67,1.5,1.5v3.5h1v-3.5c0-1.38-1.12-2.5-2.5-2.5h-7c-1.38,0-2.5,1.12-2.5,2.5v7c0,1.38,1.12,2.5,2.5,2.5h3.5v-1Z"/></svg>