<svg xmlns="http://www.w3.org/2000/svg" width="24" height="24" viewBox="0 0 24 24"><g opacity="0.4"><path d="m7.5,5h6c.28,0,.5-.22.5-.5s-.22-.5-.5-.5h-6c-1.93,0-3.5,1.57-3.5,3.5v9c0,1.93,1.57,3.5,3.5,3.5h6c.28,0,.5-.22.5-.5s-.22-.5-.5-.5h-6c-1.38,0-2.5-1.12-2.5-2.5V7.5c0-1.38,1.12-2.5,2.5-2.5Z"/></g><path d="m16.5,4c-.28,0-.5.22-.5.5s.22.5.5.5c1.38,0,2.5,1.12,2.5,2.5,0,.28.22.5.5.5s.5-.22.5-.5c0-1.93-1.57-3.5-3.5-3.5Z"/><path d="m19.5,16c-.28,0-.5.22-.5.5,0,1.38-1.12,2.5-2.5,2.5-.28,0-.5.22-.5.5s.22.5.5.5c1.93,0,3.5-1.57,3.5-3.5,0-.28-.22-.5-.5-.5Z"/><path d="m19.5,10c-.28,0-.5.22-.5.5v3c0,.28.22.5.5.5s.5-.22.5-.5v-3c0-.28-.22-.5-.5-.5Z"/></svg>