<svg xmlns="http://www.w3.org/2000/svg" width="24" height="24" viewBox="0 0 24 24"><g opacity="0.4"><path d="m11.99,6h.01c3.4,0,3.5,1.92,3.5,2,0,.27.23.5.5.5s.5-.22.5-.5c0-.03-.05-3-4.5-3s-4.98,2.69-5,3.23c-.03.75.06,2.17,1.03,3.18.03.03.08.06.11.09h2.85c-.99,0-1.74-.26-2.24-.78-.71-.75-.78-1.85-.76-2.45.02-.53.38-2.27,4-2.27Z"/><path d="m15.78,12.5h-2.99c1.09,0,1.92.28,2.45.84.71.74.78,1.81.75,2.39-.02.53-.4,2.27-4.26,2.27-3.62,0-3.73-1.91-3.73-2.01,0-.27-.23-.49-.5-.49s-.5.22-.5.5c0,.03.05,3,4.73,3s5.23-2.47,5.26-3.23c.03-.73-.06-2.11-1.03-3.12-.05-.06-.12-.1-.18-.15Z"/></g><path d="m18.5,11.5H5.5c-.28,0-.5.22-.5.5s.22.5.5.5h13c.28,0,.5-.22.5-.5s-.22-.5-.5-.5Z"/></svg>