<svg xmlns="http://www.w3.org/2000/svg" width="24" height="24" viewBox="0 0 24 24"><g opacity="0.4"><path d="m5,20.5c0,.28.22.5.5.5s.5-.22.5-.5v-2.55c-.16.03-.33.05-.5.05s-.34-.02-.5-.05v2.55Z"/><path d="m18,20.5c0,.28.22.5.5.5s.5-.22.5-.5v-2.55c-.16.03-.33.05-.5.05s-.34-.02-.5-.05v2.55Z"/><path d="m11.5,9.95v10.55c0,.28.22.5.5.5s.5-.22.5-.5v-10.55c-.16.03-.33.05-.5.05s-.34-.02-.5-.05Z"/><path d="m6,13.05V3.5c0-.28-.22-.5-.5-.5s-.5.22-.5.5v9.55c.16-.03.33-.05.5-.05s.34.02.5.05Z"/><path d="m19,13.05V3.5c0-.28-.22-.5-.5-.5s-.5.22-.5.5v9.55c.16-.03.33-.05.5-.05s.34.02.5.05Z"/><path d="m12.5,3.5c0-.28-.22-.5-.5-.5s-.5.22-.5.5v1.55c.16-.03.33-.05.5-.05s.34.02.5.05v-1.55Z"/></g><path d="M5.5 13A2.5 2.5 0 1 0 5.5 18 2.5 2.5 0 1 0 5.5 13z"/><path d="M18.5 13A2.5 2.5 0 1 0 18.5 18 2.5 2.5 0 1 0 18.5 13z"/><path d="M12 5A2.5 2.5 0 1 0 12 10 2.5 2.5 0 1 0 12 5z"/></svg>