<svg xmlns="http://www.w3.org/2000/svg" width="24" height="24" viewBox="0 0 24 24"><g opacity="0.4"><path d="m16.5,3H5.5c-.21,0-.41.03-.61.08,1.21.29,2.11,1.37,2.11,2.67v12.75c0,1.17.81,2.14,1.89,2.42,1.21-.29,2.11-1.37,2.11-2.67v-.75c0-.83.67-1.5,1.5-1.5h6.5V5.5c0-1.38-1.12-2.5-2.5-2.5Z"/></g><path d="m7,5.75c0-1.3-.9-2.38-2.11-2.67-1.08.27-1.89,1.25-1.89,2.42v1c0,.83.67,1.5,1.5,1.5h2.5v-2.25Z"/><path d="m19.5,16h-7c-.83,0-1.5.67-1.5,1.5v.75c0,1.3-.9,2.38-2.11,2.67.2.05.4.08.61.08h9c1.38,0,2.5-1.12,2.5-2.5v-1c0-.83-.67-1.5-1.5-1.5Z"/></svg>