<svg xmlns="http://www.w3.org/2000/svg" width="24" height="24" viewBox="0 0 24 24"><g opacity="0.4"><path d="m9.17,8.46c-.2-.2-.51-.2-.71,0-.94.94-1.46,2.2-1.46,3.54s.52,2.59,1.46,3.54c.1.1.23.15.35.15s.26-.05.35-.15c.2-.2.2-.51,0-.71-.76-.76-1.17-1.76-1.17-2.83s.42-2.07,1.17-2.83c.2-.2.2-.51,0-.71Z"/><path d="m14.83,8.46c-.2.2-.2.51,0,.71.76.76,1.17,1.76,1.17,2.83s-.42,2.07-1.17,2.83c-.2.2-.2.51,0,.71.1.1.23.15.35.15s.26-.05.35-.15c.94-.94,1.46-2.2,1.46-3.54s-.52-2.59-1.46-3.54c-.2-.2-.51-.2-.71,0Z"/><path d="m5.64,4.93c-.2-.2-.51-.2-.71,0-3.9,3.9-3.9,10.24,0,14.14.1.1.23.15.35.15s.26-.05.35-.15c.2-.2.2-.51,0-.71-3.51-3.51-3.51-9.22,0-12.73.2-.2.2-.51,0-.71Z"/><path d="m18.36,4.93c-.2.2-.2.51,0,.71,3.51,3.51,3.51,9.22,0,12.73-.2.2-.2.51,0,.71.1.1.23.15.35.15s.26-.05.35-.15c3.9-3.9,3.9-10.24,0-14.14-.2-.2-.51-.2-.71,0Z"/></g><path d="m12,10c-1.1,0-2,.9-2,2,0,1.1.89,2,2,2s2-.9,2-2-.9-2-2-2Z"/><path d="m7.4,17.3c.2-.2.2-.51,0-.71-2.53-2.53-2.53-6.66,0-9.19.2-.2.2-.51,0-.71s-.51-.2-.71,0c-1.42,1.42-2.2,3.3-2.2,5.3s.78,3.89,2.2,5.3c.1.1.23.15.35.15s.26-.05.35-.15Z"/><path d="m17.3,6.7c-.2-.2-.51-.2-.71,0s-.2.51,0,.71c2.53,2.53,2.53,6.66,0,9.19-.2.2-.2.51,0,.71.1.1.23.15.35.15s.26-.05.35-.15c1.42-1.42,2.2-3.3,2.2-5.3s-.78-3.89-2.2-5.3Z"/></svg>