<svg xmlns="http://www.w3.org/2000/svg" width="24" height="24" viewBox="0 0 24 24"><g opacity="0.4"><path d="m12,5c-4.41,0-8,3.59-8,8s3.59,8,8,8,8-3.59,8-8-3.59-8-8-8Zm.5,8.5c0,.28-.22.5-.5.5s-.5-.22-.5-.5v-5c0-.28.22-.5.5-.5s.5.22.5.5v5Z"/></g><path d="m12.5,5.03v-1.53c0-.28-.22-.5-.5-.5s-.5.22-.5.5v1.53c.17-.01.33-.03.5-.03s.33.01.5.03Z"/><path d="m18.92,6.78c.2-.2.2-.51,0-.71s-.51-.2-.71,0l-.93.93c.25.22.49.46.71.71l.93-.93Z"/><path d="m12,14c.28,0,.5-.22.5-.5v-5c0-.28-.22-.5-.5-.5s-.5.22-.5.5v5c0,.28.22.5.5.5Z"/></svg>