<svg xmlns="http://www.w3.org/2000/svg" width="24" height="24" viewBox="0 0 24 24"><g opacity="0.4"><path d="m8.16,15.84l.33.07c.3.06.63.09,1.02.09,3.58,0,6.5-2.92,6.5-6.5,0-.39-.03-.72-.09-1.02l-.07-.33-.33-.07c-.3-.06-.63-.09-1.02-.09-3.58,0-6.5,2.92-6.5,6.5,0,.39.03.72.09,1.02l.07.33Z"/></g><path d="m15.86,8.14c-.63-2.94-3.24-5.14-6.36-5.14-3.58,0-6.5,2.92-6.5,6.5,0,3.12,2.21,5.73,5.14,6.36.63,2.94,3.24,5.14,6.36,5.14,3.58,0,6.5-2.92,6.5-6.5,0-3.12-2.21-5.73-5.14-6.36Zm-6.36,7.86c-.38,0-.72-.03-1.02-.09l-.33-.07-.07-.33c-.06-.3-.09-.63-.09-1.02,0-3.58,2.92-6.5,6.5-6.5.38,0,.72.03,1.02.09l.33.07.07.33c.06.3.09.63.09,1.02,0,3.58-2.92,6.5-6.5,6.5Z"/></svg>