<svg xmlns="http://www.w3.org/2000/svg" width="24" height="24" viewBox="0 0 24 24"><g opacity="0.4"><path d="M12 8A4 4 0 1 0 12 16 4 4 0 1 0 12 8z"/></g><path d="m12,6c.28,0,.5-.22.5-.5v-2c0-.28-.22-.5-.5-.5s-.5.22-.5.5v2c0,.28.22.5.5.5Z"/><path d="m12,21c.28,0,.5-.22.5-.5v-2c0-.28-.22-.5-.5-.5s-.5.22-.5.5v2c0,.28.22.5.5.5Z"/><path d="m20.5,11.5h-2c-.28,0-.5.22-.5.5s.22.5.5.5h2c.28,0,.5-.22.5-.5s-.22-.5-.5-.5Z"/><path d="m6,12c0-.28-.22-.5-.5-.5h-2c-.28,0-.5.22-.5.5s.22.5.5.5h2c.28,0,.5-.22.5-.5Z"/><path d="m16.95,16.24c-.2-.2-.51-.2-.71,0s-.2.51,0,.71l1.41,1.41c.1.1.23.15.35.15s.26-.05.35-.15c.2-.2.2-.51,0-.71l-1.41-1.41Z"/><path d="m6.34,5.64c-.2-.2-.51-.2-.71,0s-.2.51,0,.71l1.41,1.41c.1.1.23.15.35.15s.26-.05.35-.15c.2-.2.2-.51,0-.71l-1.41-1.41Z"/><path d="m7.05,16.24l-1.41,1.41c-.2.2-.2.51,0,.71.1.1.23.15.35.15s.26-.05.35-.15l1.41-1.41c.2-.2.2-.51,0-.71s-.51-.2-.71,0Z"/><path d="m16.6,7.9c.13,0,.26-.05.35-.15l1.41-1.41c.2-.2.2-.51,0-.71s-.51-.2-.71,0l-1.41,1.41c-.2.2-.2.51,0,.71.1.1.23.15.35.15Z"/></svg>