<svg xmlns="http://www.w3.org/2000/svg" width="24" height="24" viewBox="0 0 24 24"><g opacity="0.4"><path class="st0" d="M12,9c-1.1,0-2.1,0.4-2.8,1.2S8,11.9,8,13v6h8v-6c0-1.1-0.4-2.1-1.2-2.8S13.1,9,12,9z"/></g><path d="m18.85,19.85c.09-.09.15-.22.15-.35s-.06-.26-.15-.35-.22-.15-.35-.15H5.5c-.14,0-.26.06-.35.15s-.15.22-.15.35.06.26.15.35.22.15.35.15h13c.14,0,.26-.06.35-.15Z"/><path d="m12,7c.14,0,.26-.06.35-.15s.15-.22.15-.35v-2c0-.14-.06-.26-.15-.35s-.22-.15-.35-.15-.26.06-.35.15-.15.22-.15.35v2c0,.14.06.26.15.35s.22.15.35.15Z"/><path d="m20.5,12h-2c-.14,0-.26.06-.35.15s-.15.22-.15.35.06.26.15.35.22.15.35.15h2c.14,0,.26-.06.35-.15s.15-.22.15-.35-.06-.26-.15-.35-.22-.15-.35-.15Z"/><path d="m3.5,13h2c.14,0,.26-.06.35-.15s.15-.22.15-.35-.06-.26-.15-.35-.22-.15-.35-.15h-2c-.14,0-.26.06-.35.15s-.15.22-.15.35.06.26.15.35.22.15.35.15Z"/><path d="m16.55,8.22c.06.02.12.04.19.04s.13-.01.19-.04.12-.06.17-.11l.56-.56.56-.56c.1-.1.15-.23.15-.35s-.05-.26-.15-.35-.23-.15-.35-.15-.26.05-.35.15l-.56.56-.56.56c-.1.1-.15.23-.15.35s.05.26.15.35c.05.05.11.09.17.11Z"/><path d="m6.34,7.55l.56.56s.11.09.17.11.12.04.19.04.13-.01.19-.04.12-.06.17-.11c.1-.1.15-.23.15-.35s-.05-.26-.15-.35l-.56-.56-.56-.56c-.1-.1-.23-.15-.35-.15s-.26.05-.35.15-.15.23-.15.35.05.26.15.35l.56.56Z"/></svg>