<svg xmlns="http://www.w3.org/2000/svg" width="24" height="24" viewBox="0 0 24 24"><g opacity="0.4"><path d="m18.68,10.03l-1.68-.65v-2.89c0-.83-.67-1.5-1.5-1.5h-3v-1.5c0-.28-.22-.5-.5-.5s-.5.22-.5.5v1.5h-3c-.83,0-1.5.67-1.5,1.5v2.89l-1.68.65c-.26.1-.39.39-.29.65l1.64,4.25c.33-.07.59-.18.88-.33.54-.27,1.21-.61,2.45-.61s1.91.34,2.45.61c.46.23.79.39,1.55.39s1.1-.17,1.55-.39c.49-.24,1.11-.53,2.14-.58l1.29-3.34c.1-.26-.03-.55-.29-.65Zm-6.5-2.5c-.12-.04-.24-.04-.36,0l-3.82,1.47v-2.5c0-.28.22-.5.5-.5h7c.28,0,.5.22.5.5v2.5l-3.82-1.47Z"/></g><path d="m21.5,17c-.83,0-1.22-.21-1.67-.44-.5-.26-1.06-.56-2.13-.56s-1.64.3-2.13.56c-.45.24-.84.44-1.67.44s-1.22-.21-1.67-.44c-.5-.26-1.06-.56-2.13-.56s-1.64.3-2.13.56c-.45.24-.84.44-1.67.44s-1.21-.21-1.67-.44c-.5-.26-1.06-.56-2.13-.56-.28,0-.5.22-.5.5s.22.5.5.5c.83,0,1.21.21,1.67.44.5.26,1.06.56,2.13.56s1.64-.3,2.13-.56c.45-.24.84-.44,1.67-.44s1.21.21,1.67.44c.5.26,1.06.56,2.13.56s1.64-.3,2.13-.56c.45-.24.84-.44,1.67-.44s1.22.21,1.67.44c.5.26,1.06.56,2.13.56.28,0,.5-.22.5-.5s-.22-.5-.5-.5Z"/><path d="m21.5,20c-.83,0-1.22-.21-1.67-.44-.5-.26-1.06-.56-2.13-.56s-1.64.3-2.13.56c-.45.24-.84.44-1.67.44s-1.22-.21-1.67-.44c-.5-.26-1.06-.56-2.13-.56s-1.64.3-2.13.56c-.45.24-.84.44-1.67.44s-1.21-.21-1.67-.44c-.5-.26-1.06-.56-2.13-.56-.28,0-.5.22-.5.5s.22.5.5.5c.83,0,1.21.21,1.67.44.5.26,1.06.56,2.13.56s1.64-.3,2.13-.56c.45-.24.84-.44,1.67-.44s1.21.21,1.67.44c.5.26,1.06.56,2.13.56s1.64-.3,2.13-.56c.45-.24.84-.44,1.67-.44s1.22.21,1.67.44c.5.26,1.06.56,2.13.56.28,0,.5-.22.5-.5s-.22-.5-.5-.5Z"/><path d="m12.18,7.53l3.82,1.47v-2.5c0-.28-.22-.5-.5-.5h-7c-.28,0-.5.22-.5.5v2.5l3.82-1.47c.12-.04.24-.04.36,0Z"/></svg>