<svg xmlns="http://www.w3.org/2000/svg" width="24" height="24" viewBox="0 0 24 24"><g opacity="0.4"><rect x="4" y="8" width="16" height="8" rx="2.5" ry="2.5"/></g><path d="m12,7c.28,0,.5-.22.5-.5v-3c0-.28-.22-.5-.5-.5s-.5.22-.5.5v3c0,.28.22.5.5.5Z"/><path d="m6.61,6.82c.1.12.24.18.39.18.11,0,.22-.04.32-.11.21-.17.25-.49.07-.7l-1.62-2c-.17-.21-.49-.25-.7-.07s-.25.49-.07.7l1.62,2Z"/><path d="m17,7c.15,0,.29-.06.39-.18l1.62-2c.17-.21.14-.53-.07-.7-.21-.17-.53-.14-.7.07l-1.62,2c-.17.21-.14.53.07.7.09.08.2.11.32.11Z"/><path d="m12,21c.28,0,.5-.22.5-.5v-3c0-.28-.22-.5-.5-.5s-.5.22-.5.5v3c0,.28.22.5.5.5Z"/><path d="m18.24,19.82c.1.12.24.18.39.18.11,0,.22-.04.32-.11.21-.17.25-.49.07-.7l-1.62-2c-.17-.22-.49-.25-.7-.07-.21.17-.25.49-.07.7l1.62,2Z"/><path d="m5.38,20c.15,0,.29-.06.39-.18l1.62-2c.17-.21.14-.53-.07-.7-.21-.17-.53-.14-.7.07l-1.62,2c-.17.21-.14.53.07.7.09.08.2.11.32.11Z"/></svg>