<svg xmlns="http://www.w3.org/2000/svg" width="24" height="24" viewBox="0 0 24 24"><g opacity="0.4"><path d="m17,8H7l-3.42,6.68c-.37.72-.28,1.59.24,2.2.78.9,2.09,2.19,3.88,3.08l1.71-8.56c.05-.27.33-.45.59-.39.27.05.45.32.39.59l-1.76,8.77c1,.38,2.13.63,3.37.63s2.36-.25,3.37-.63l-1.76-8.77c-.05-.27.12-.53.39-.59.26-.05.53.12.59.39l1.71,8.56c1.79-.89,3.1-2.18,3.88-3.08.52-.61.61-1.48.24-2.2l-3.42-6.68Z"/></g><path d="m17,3.5c0-.28-.22-.5-.5-.5H7.5c-.28,0-.5.22-.5.5v4.5h10V3.5Z"/><path d="m9.41,11.4l-1.71,8.56c.3.15.61.29.94.42l1.76-8.77c.05-.27-.12-.53-.39-.59-.26-.05-.53.12-.59.39Z"/><path d="m14,11.01c-.27.05-.45.32-.39.59l1.76,8.77c.33-.12.64-.27.94-.42l-1.71-8.56c-.05-.27-.33-.45-.59-.39Z"/></svg>