<svg xmlns="http://www.w3.org/2000/svg" width="24" height="24" viewBox="0 0 24 24"><g opacity="0.4"><path d="m20.57,11.5c-.27-.03-.53.15-.57.42l-.51,3.5c-.21,1.47-1.49,2.57-2.98,2.57-1.33,0-2.52-.89-2.89-2.17l-1.15-3.97c.08.27-.08.54-.34.62-.05.01-.09.02-.14.02-.22,0-.42-.14-.48-.36l1.15,3.97c.5,1.7,2.08,2.89,3.85,2.89,1.98,0,3.68-1.47,3.97-3.43l.51-3.5c.04-.27-.15-.53-.42-.57Z"/></g><path d="m12,12.5s.09,0,.14-.02c.26-.08.42-.35.34-.62l-1.15-3.97c-.5-1.7-2.08-2.89-3.85-2.89-1.98,0-3.68,1.47-3.97,3.43l-.51,3.5c-.04.27.15.53.42.57.27.03.53-.15.57-.42l.51-3.5c.21-1.47,1.49-2.57,2.98-2.57,1.33,0,2.52.89,2.89,2.17l1.15,3.97c.06.22.26.36.48.36Z"/></svg>