<svg xmlns="http://www.w3.org/2000/svg" width="24" height="24" viewBox="0 0 24 24"><g opacity="0.4"><path d="m4.5,15c-.28,0-.5.22-.5.5v4c0,.28.22.5.5.5s.5-.22.5-.5v-4c0-.28-.22-.5-.5-.5Z"/><path d="m8.25,12c-.28,0-.5.22-.5.5v7c0,.28.22.5.5.5s.5-.22.5-.5v-7c0-.28-.22-.5-.5-.5Z"/><path d="m12,9c-.28,0-.5.22-.5.5v1.29l1,1v-2.29c0-.28-.22-.5-.5-.5Z"/><path d="m11.5,19.5c0,.28.22.5.5.5s.5-.22.5-.5v-6.29l-1-1v7.29Z"/><path d="m15.75,6c-.28,0-.5.22-.5.5v8.04l1,1V6.5c0-.28-.22-.5-.5-.5Z"/><path d="m15.25,19.5c0,.28.22.5.5.5s.5-.22.5-.5v-2.54l-1-1v3.54Z"/><path d="m19.5,3c-.28,0-.5.22-.5.5v14.79l1,1V3.5c0-.28-.22-.5-.5-.5Z"/></g><path d="m3.85,3.15c-.2-.2-.51-.2-.71,0s-.2.51,0,.71l17,17c.1.1.23.15.35.15s.26-.05.35-.15c.2-.2.2-.51,0-.71L3.85,3.15Z"/></svg>