<svg xmlns="http://www.w3.org/2000/svg" width="24" height="24" viewBox="0 0 24 24"><g opacity="0.4"><path d="m17.5,5H6.5c-1.93,0-3.5,1.57-3.5,3.5v7c0,1.93,1.57,3.5,3.5,3.5h11c1.93,0,3.5-1.57,3.5-3.5v-7c0-1.93-1.57-3.5-3.5-3.5Zm-7.15,7.35l-2.5,2.5c-.1.1-.23.15-.35.15s-.26-.05-.35-.15c-.2-.2-.2-.51,0-.71l2.15-2.15-2.15-2.15c-.2-.2-.2-.51,0-.71s.51-.2.71,0l2.5,2.5c.2.2.2.51,0,.71Zm7.15,3.65h-5c-.28,0-.5-.22-.5-.5s.22-.5.5-.5h5c.28,0,.5.22.5.5s-.22.5-.5.5Z"/></g><path d="m7.15,14.85c.1.1.23.15.35.15s.26-.05.35-.15l2.5-2.5c.2-.2.2-.51,0-.71l-2.5-2.5c-.2-.2-.51-.2-.71,0s-.2.51,0,.71l2.15,2.15-2.15,2.15c-.2.2-.2.51,0,.71Z"/><path d="m12.5,16h5c.28,0,.5-.22.5-.5s-.22-.5-.5-.5h-5c-.28,0-.5.22-.5.5s.22.5.5.5Z"/></svg>