<svg xmlns="http://www.w3.org/2000/svg" width="24" height="24" viewBox="0 0 24 24"><g opacity="0.4"><path d="m17.85,6.79c-.78-2.25-2.95-3.79-5.38-3.79-1.65,0-3.18.69-4.27,1.9-.16-.03-.31-.04-.46-.04-1.58,0-2.86,1.27-2.86,2.82,0,.15.01.3.04.45-1.19.66-1.93,1.9-1.93,3.26s.76,2.61,1.96,3.27c.26.99,1.36,1.64,2.39,1.33,1.41,1.19,3.56,1.33,5.12.29.71.47,1.52.72,2.36.72,1.99,0,3.7-1.34,4.15-3.23,1.23-.65,2.02-1.92,2.02-3.3,0-1.84-1.33-3.37-3.15-3.68Z"/></g><path d="M5.5 17A1.5 1.5 0 1 0 5.5 20 1.5 1.5 0 1 0 5.5 17z"/></svg>