<svg xmlns="http://www.w3.org/2000/svg" width="24" height="24" viewBox="0 0 24 24"><g opacity="0.4"><path d="M10.51 4 4 10.51 4 15.89 15.89 4 10.51 4z"/><path d="M13.49 20 20 13.49 20 8.11 8.11 20 13.49 20z"/><path d="m7.5,4c-1.93,0-3.5,1.57-3.5,3.5v1.59l5.09-5.09h-1.59Z"/><path d="m16.5,20c1.93,0,3.5-1.57,3.5-3.5v-1.59l-5.09,5.09h1.59Z"/><path d="m17.23,4.08l-13.15,13.15c.29,1.35,1.35,2.41,2.69,2.69l13.15-13.15c-.29-1.35-1.35-2.41-2.69-2.69Z"/></g><path d="M9.09 4 4 9.09 4 10.51 10.51 4 9.09 4z"/><path d="m17.23,4.08c-.24-.05-.48-.08-.73-.08h-.61L4,15.89v.61c0,.25.03.49.08.73l13.15-13.15Z"/><path d="M4.08 17.23 4.08 17.23 4.08 17.23 4.08 17.23z"/><path d="M17.23 4.08 17.23 4.08 17.23 4.08 17.23 4.08z"/><path d="M6.77 19.92 6.77 19.92 6.77 19.92 6.77 19.92z"/><path d="m6.77,19.92c.24.05.48.08.73.08h.61l11.89-11.89v-.61c0-.25-.03-.49-.08-.73l-13.15,13.15Z"/><path d="M19.92 6.77 19.92 6.77 19.92 6.77 19.92 6.77z"/><path d="M14.91 20 20 14.91 20 13.49 13.49 20 14.91 20z"/></svg>