<svg xmlns="http://www.w3.org/2000/svg" width="24" height="24" viewBox="0 0 24 24"><g opacity="0.4"><path d="M20.5,11.5H19C18.7,8,16,5.3,12.5,5V3.5C12.5,3.2,12.3,3,12,3s-0.5,0.2-0.5,0.5V5C8,5.3,5.3,8,5,11.5H3.5
	C3.2,11.5,3,11.7,3,12s0.2,0.5,0.5,0.5H5c0.2,3.5,3,6.2,6.5,6.5v1.5c0,0.3,0.2,0.5,0.5,0.5s0.5-0.2,0.5-0.5V19
	c3.5-0.2,6.2-3,6.5-6.5h1.5c0.3,0,0.5-0.2,0.5-0.5S20.8,11.5,20.5,11.5z M12,15c-1.7,0-3-1.3-3-3s1.3-3,3-3s3,1.3,3,3S13.7,15,12,15
	z"/></g><path d="M12 9A3 3 0 1 0 12 15 3 3 0 1 0 12 9z"/></svg>