<svg xmlns="http://www.w3.org/2000/svg" width="24" height="24" viewBox="0 0 24 24"><g opacity="0.4"><path d="m15.5,15c-.8,0-1.22-.34-1.56-.61-.29-.24-.49-.39-.94-.39s-.64.16-.94.39c-.34.27-.76.61-1.56.61s-1.22-.34-1.56-.61c-.29-.24-.49-.39-.94-.39s-.64.16-.94.39c-.34.27-.76.61-1.56.61s-1.22-.34-1.56-.61c-.29-.24-.49-.39-.94-.39v2c.8,0,1.22.34,1.56.61.29.24.49.39.94.39s.64-.16.94-.39c.34-.27.76-.61,1.56-.61s1.22.34,1.56.61c.29.24.49.39.94.39s.64-.16.94-.39c.34-.27.76-.61,1.56-.61s1.22.34,1.56.61c.28.23.49.39.94.39s.66-.16.94-.39c.34-.27.76-.61,1.56-.61v-2c-.45,0-.66.16-.94.39-.34.27-.76.61-1.56.61Z"/><path d="m15.5,18c-.8,0-1.22-.34-1.56-.61-.29-.24-.49-.39-.94-.39s-.64.16-.94.39c-.34.27-.76.61-1.56.61s-1.22-.34-1.56-.61c-.29-.24-.49-.39-.94-.39s-.64.16-.94.39c-.34.27-.76.61-1.56.61s-1.22-.34-1.56-.61c-.29-.24-.49-.39-.94-.39v1.5c0,1.38,1.12,2.5,2.5,2.5h10c1.38,0,2.5-1.12,2.5-2.5v-1.5c-.45,0-.66.16-.94.39-.34.27-.76.61-1.56.61Z"/><path d="m19,3H5c-1.1,0-2,.9-2,2v8c.8,0,1.22.34,1.56.61.29.24.49.39.94.39s.64-.16.94-.39c.34-.27.76-.61,1.56-.61s1.22.34,1.56.61c.29.24.49.39.94.39s.64-.16.94-.39c.34-.27.76-.61,1.56-.61s1.22.34,1.56.61c.28.23.49.39.94.39s.66-.16.94-.39c.34-.27.76-.61,1.56-.61V5c0-.55.45-1,1-1s1,.45,1,1v11.5c0,.28.22.5.5.5s.5-.22.5-.5V5c0-1.1-.9-2-2-2Z"/></g><path d="m5.5,18c.8,0,1.22-.34,1.56-.61.29-.24.49-.39.94-.39s.64.16.94.39c.34.27.76.61,1.56.61s1.22-.34,1.56-.61c.29-.24.49-.39.94-.39s.64.16.94.39c.34.27.76.61,1.56.61s1.22-.34,1.56-.61c.28-.23.49-.39.94-.39v-1c-.8,0-1.22.34-1.56.61-.28.23-.49.39-.94.39s-.66-.16-.94-.39c-.34-.27-.76-.61-1.56-.61s-1.22.34-1.56.61c-.29.24-.49.39-.94.39s-.64-.16-.94-.39c-.34-.27-.76-.61-1.56-.61s-1.22.34-1.56.61c-.29.24-.49.39-.94.39s-.64-.16-.94-.39c-.34-.27-.76-.61-1.56-.61v1c.45,0,.64.16.94.39.34.27.76.61,1.56.61Z"/><path d="m19,15c.55,0,1,.45,1,1V5c0-.55-.45-1-1-1s-1,.45-1,1v8c-.8,0-1.22.34-1.56.61-.28.23-.49.39-.94.39s-.66-.16-.94-.39c-.34-.27-.76-.61-1.56-.61s-1.22.34-1.56.61c-.29.24-.49.39-.94.39s-.64-.16-.94-.39c-.34-.27-.76-.61-1.56-.61s-1.22.34-1.56.61c-.29.24-.49.39-.94.39s-.64-.16-.94-.39c-.34-.27-.76-.61-1.56-.61v1c.45,0,.64.16.94.39.34.27.76.61,1.56.61s1.22-.34,1.56-.61c.29-.24.49-.39.94-.39s.64.16.94.39c.34.27.76.61,1.56.61s1.22-.34,1.56-.61c.29-.24.49-.39.94-.39s.64.16.94.39c.34.27.76.61,1.56.61s1.22-.34,1.56-.61c.28-.23.49-.39.94-.39v2c0-.55.45-1,1-1Z"/></svg>