<svg xmlns="http://www.w3.org/2000/svg" width="24" height="24" viewBox="0 0 24 24"><g opacity="0.4"><path d="M7.21 13 16.79 13 15.76 10 8.24 10 7.21 13z"/><path d="M6.86 14 5.14 19 18.86 19 17.14 14 6.86 14z"/><path d="m12,3c-.81,0-1.53.52-1.8,1.28l-1.62,4.72h6.84l-1.62-4.72c-.26-.77-.99-1.28-1.8-1.28Z"/></g><path d="m20.5,19H3.5c-.28,0-.5.22-.5.5s.22.5.5.5h17c.28,0,.5-.22.5-.5s-.22-.5-.5-.5Z"/><path d="M15.42 9 8.58 9 8.24 10 15.76 10 15.42 9z"/><path d="M16.79 13 7.21 13 6.86 14 17.14 14 16.79 13z"/></svg>