<svg xmlns="http://www.w3.org/2000/svg" width="24" height="24" viewBox="0 0 24 24"><g opacity="0.4"><path d="m4.35,6c-.22.46-.35.96-.35,1.5v.5h2v-2h-1.65Z"/><path d="M6 8H8V10H6z"/><path d="M8 6H10V8H8z"/><path d="M10 8H12V10H10z"/><path d="M12 6H14V8H12z"/><path d="M16 6H18V8H16z"/><path d="M14 8H16V10H14z"/><path d="m8,4h-.5c-.54,0-1.04.13-1.5.35v1.65h2v-2Z"/><path d="M10 4H12V6H10z"/><path d="M14 4H16V6H14z"/><path d="M4 10H6V12H4z"/><path d="M6 12H8V14H6z"/><path d="M8 10H10V12H8z"/><path d="M10 12H12V14H10z"/><path d="M12 10H14V12H12z"/><path d="M16 10H18V12H16z"/><path d="M14 12H16V14H14z"/><path d="M4 14H6V16H4z"/><path d="M6 16H8V18H6z"/><path d="M8 14H10V16H8z"/><path d="M10 16H12V18H10z"/><path d="M12 14H14V16H12z"/><path d="M16 14H18V16H16z"/><path d="m6,19.65v-1.65h-1.65c.35.72.93,1.3,1.65,1.65Z"/><path d="M8 18H10V20H8z"/><path d="M12 18H14V20H12z"/><path d="m16,20h.5c.54,0,1.04-.13,1.5-.35v-1.65h-2v2Z"/><path d="M14 16H16V18H14z"/><path d="M18 8H20V10H18z"/><path d="m18,4.35v1.65h1.65c-.35-.72-.93-1.3-1.65-1.65Z"/><path d="M18 12H20V14H18z"/><path d="m19.65,18c.22-.46.35-.96.35-1.5v-.5h-2v2h1.65Z"/></g></svg>