<svg xmlns="http://www.w3.org/2000/svg" width="24" height="24" viewBox="0 0 24 24"><g opacity="0.4"><path d="m3,19v1h2.5c1.93,0,3.5-1.57,3.5-3.5v-2.5H3v5Z"/><path d="m3,7v6h6v-5.5c0-.17-.03-.34-.05-.5H3Z"/><path d="m15,16.5c0,1.93,1.57,3.5,3.5,3.5h2.5v-6h-6v2.5Z"/><path d="m15,7.5v5.5h6v-6h-5.95c-.02.16-.05.33-.05.5Z"/></g><path d="m12,3c-.28,0-.5.22-.5.5v2c0,.28.22.5.5.5s.5-.22.5-.5v-2c0-.28-.22-.5-.5-.5Z"/><path d="m12,8c-.28,0-.5.22-.5.5v2c0,.28.22.5.5.5s.5-.22.5-.5v-2c0-.28-.22-.5-.5-.5Z"/><path d="m12,13c-.28,0-.5.22-.5.5v2c0,.28.22.5.5.5s.5-.22.5-.5v-2c0-.28-.22-.5-.5-.5Z"/><path d="m12,18c-.28,0-.5.22-.5.5v2c0,.28.22.5.5.5s.5-.22.5-.5v-2c0-.28-.22-.5-.5-.5Z"/><path d="M15 13H21V14H15z"/><path d="M3 13H9V14H3z"/><path d="m5.5,4h-2.5v3h5.95c-.25-1.69-1.69-3-3.45-3Z"/><path d="m15.05,7h5.95v-3h-2.5c-1.76,0-3.2,1.31-3.45,3Z"/></svg>