<svg xmlns="http://www.w3.org/2000/svg" width="24" height="24" viewBox="0 0 24 24"><g opacity="0.4"><path d="m3,16.5c0,1.93,1.57,3.5,3.5,3.5h1.5v-4.75H3v1.25Z"/><path d="M3 9.75H8V14.25H3z"/><path d="m3,7.5v1.25h5v-4.75h-1.5c-1.93,0-3.5,1.57-3.5,3.5Z"/><path d="m17.5,4h-8.5v4.75h12v-1.25c0-1.93-1.57-3.5-3.5-3.5Z"/><path d="m9,20h8.5c1.93,0,3.5-1.57,3.5-3.5v-1.25h-12v4.75Z"/><path d="M9 9.75H21V14.25H9z"/></g><path d="M9 4 8 4 8 8.75 3 8.75 3 9.75 8 9.75 8 14.25 3 14.25 3 15.25 8 15.25 8 20 9 20 9 15.25 21 15.25 21 14.25 9 14.25 9 9.75 21 9.75 21 8.75 9 8.75 9 4z"/></svg>