<svg xmlns="http://www.w3.org/2000/svg" width="24" height="24" viewBox="0 0 24 24"><g opacity="0.4"><path d="m3.5,4h-.5v1.5c0,1.93,1.57,3.5,3.5,3.5h1.5v-5H3.5Z"/><path d="M9 4H15V9H9z"/><path d="m20,4h-4v5h1.5c1.93,0,3.5-1.57,3.5-3.5v-1.5h-1Z"/><path d="m3,18.5v1.5h5v-5h-1.5c-1.93,0-3.5,1.57-3.5,3.5Z"/><path d="M9 15H15V20H9z"/><path d="m17.5,15h-1.5v5h5v-1.5c0-1.93-1.57-3.5-3.5-3.5Z"/></g><path d="m20.5,11.5h-2c-.28,0-.5.22-.5.5s.22.5.5.5h2c.28,0,.5-.22.5-.5s-.22-.5-.5-.5Z"/><path d="m13.5,12.5h2c.28,0,.5-.22.5-.5s-.22-.5-.5-.5h-2c-.28,0-.5.22-.5.5s.22.5.5.5Z"/><path d="m8.5,12.5h2c.28,0,.5-.22.5-.5s-.22-.5-.5-.5h-2c-.28,0-.5.22-.5.5s.22.5.5.5Z"/><path d="m3.5,12.5h2c.28,0,.5-.22.5-.5s-.22-.5-.5-.5h-2c-.28,0-.5.22-.5.5s.22.5.5.5Z"/><path d="M8 4H9V9H8z"/><path d="M15 4H16V9H15z"/><path d="M8 15H9V20H8z"/><path d="M15 15H16V20H15z"/></svg>