<svg xmlns="http://www.w3.org/2000/svg" width="24" height="24" viewBox="0 0 24 24"><g opacity="0.4"><path d="m18,3H6c-.55,0-1,.45-1,1s.45,1,1,1h5.79l-4.79,4.79v1.41l6.21-6.21h4.79c.55,0,1-.45,1-1s-.45-1-1-1Z"/><path d="m18,19h-5.79l4.79-4.79v-1.41l-6.21,6.21h-4.79c-.55,0-1,.45-1,1s.45,1,1,1h12c.55,0,1-.45,1-1s-.45-1-1-1Z"/><path d="M17 6.29 7 16.29 7 17.71 17 7.71 17 6.29z"/></g><path d="M7 9.79 11.79 5 7 5 7 9.79z"/><path d="M7 11.21 7 16.29 17 6.29 17 5 13.21 5 7 11.21z"/><path d="M7 19 10.79 19 17 12.79 17 7.71 7 17.71 7 19z"/><path d="M17 19 17 14.21 12.21 19 17 19z"/></svg>