<svg xmlns="http://www.w3.org/2000/svg" width="24" height="24" viewBox="0 0 24 24"><g opacity="0.4"><path d="m14.5,18h-2v-2.05c-.17.02-.33.05-.5.05s-.33-.03-.5-.05v2.05h-2c-.28,0-.5.22-.5.5s.22.5.5.5h2v1.5c0,.28.22.5.5.5s.5-.22.5-.5v-1.5h2c.28,0,.5-.22.5-.5s-.22-.5-.5-.5Z"/><path d="m8.21,7.5l1.15-1.15c.2-.2.2-.51,0-.71s-.51-.2-.71,0l-1.15,1.15-1.65-1.65-.71.71,1.65,1.65-1.15,1.15c-.2.2-.2.51,0,.71.1.1.23.15.35.15s.26-.05.35-.15l1.15-1.15,1.35,1.35c.21-.26.44-.5.71-.71l-1.35-1.35Z"/><path d="m14.44,8.85c.26.21.5.44.71.71l3.71-3.71-.71-.71-3.71,3.71Z"/></g><path d="M12 8A4 4 0 1 0 12 16 4 4 0 1 0 12 8z"/><path d="m6.79,3h-3.29c-.28,0-.5.22-.5.5v3.29c0,.45.54.67.85.35l3.29-3.29c.32-.32.09-.85-.35-.85Z"/><path d="m20.5,3h-3.29c-.45,0-.67.54-.35.85l3.29,3.29c.32.32.85.09.85-.35v-3.29c0-.28-.22-.5-.5-.5Z"/></svg>