<svg xmlns="http://www.w3.org/2000/svg" width="24" height="24" viewBox="0 0 24 24"><g opacity="0.4"><path d="m12,3C7.04,3,3,7.04,3,12s4.04,9,9,9,9-4.04,9-9S16.96,3,12,3Zm-5,9.5c-.16,0-.32-.08-.42-.22-.15-.23-.09-.54.14-.69l2.38-1.58-2.38-1.58c-.23-.15-.29-.46-.14-.69.15-.23.46-.29.69-.14l3,2c.14.09.22.25.22.42s-.08.32-.22.42l-3,2c-.08.06-.18.08-.28.08Zm7.75,4.5h-5.51c-.6,0-.97-.68-.62-1.17.59-.84,1.66-1.83,3.38-1.83s2.79.99,3.38,1.83c.35.49-.02,1.17-.62,1.17Zm2.52-5.42c.23.15.29.46.14.69-.1.14-.25.22-.42.22-.1,0-.19-.03-.28-.08l-3-2c-.14-.09-.22-.25-.22-.42s.08-.32.22-.42l3-2c.23-.15.54-.09.69.14s.09.54-.14.69l-2.38,1.58,2.38,1.58Z"/></g><path d="m6.58,12.28c.1.14.25.22.42.22.1,0,.19-.03.28-.08l3-2c.14-.09.22-.25.22-.42s-.08-.32-.22-.42l-3-2c-.23-.15-.54-.09-.69.14-.15.23-.09.54.14.69l2.38,1.58-2.38,1.58c-.23.15-.29.46-.14.69Z"/><path d="m17.42,7.72c-.15-.23-.47-.29-.69-.14l-3,2c-.14.09-.22.25-.22.42s.08.32.22.42l3,2c.08.06.18.08.28.08.16,0,.32-.08.42-.22.15-.23.09-.54-.14-.69l-2.38-1.58,2.38-1.58c.23-.15.29-.46.14-.69Z"/><path d="m8.62,15.83c-.35.49.02,1.17.62,1.17h5.51c.6,0,.97-.68.62-1.17-.59-.84-1.66-1.83-3.38-1.83s-2.79.99-3.38,1.83Z"/></svg>