<svg xmlns="http://www.w3.org/2000/svg" width="24" height="24" viewBox="0 0 24 24"><g opacity="0.4"><path d="M8.5 5A3.5 3.5 0 1 0 8.5 12 3.5 3.5 0 1 0 8.5 5z"/><path d="m4.5,19h8c.83,0,1.5-.67,1.5-1.5,0-2.48-2.02-4.5-4.5-4.5h-2c-2.48,0-4.5,2.02-4.5,4.5,0,.83.67,1.5,1.5,1.5Z"/></g><path d="m19.46,13.75c.34-.49.54-1.09.54-1.75,0-1.71-1.29-3-3-3s-3,1.29-3,3,1.29,3,3,3c.67,0,1.27-.2,1.75-.54l1.39,1.39c.1.1.23.15.35.15s.26-.05.35-.15c.2-.2.2-.51,0-.71l-1.39-1.39Zm-2.46.25c-1.16,0-2-.84-2-2s.84-2,2-2,2,.84,2,2-.84,2-2,2Z"/></svg>