<svg xmlns="http://www.w3.org/2000/svg" width="24" height="24" viewBox="0 0 24 24"><g opacity="0.4"><path d="M8.5 5A3.5 3.5 0 1 0 8.5 12 3.5 3.5 0 1 0 8.5 5z"/><path d="m4.5,19h8c.83,0,1.5-.67,1.5-1.5,0-2.48-2.02-4.5-4.5-4.5h-2c-2.48,0-4.5,2.02-4.5,4.5,0,.83.67,1.5,1.5,1.5Z"/></g><path d="m14.12,5.17c-.2.2-.2.51,0,.71.59.59.92,1.35.92,2.12s-.33,1.53-.92,2.12c-.2.2-.2.51,0,.71.1.1.23.15.35.15s.26-.05.35-.15c.78-.78,1.22-1.79,1.22-2.83,0-1.04-.43-2.04-1.22-2.83-.2-.2-.51-.2-.71,0Z"/><path d="m16.24,12.95c.1.1.23.15.35.15s.26-.05.35-.15c1.38-1.38,2.13-3.13,2.13-4.95,0-1.82-.76-3.57-2.13-4.95-.2-.2-.51-.2-.71,0s-.2.51,0,.71c1.19,1.18,1.84,2.69,1.84,4.24,0,1.55-.65,3.06-1.84,4.24-.2.2-.2.51,0,.71Z"/></svg>