<svg xmlns="http://www.w3.org/2000/svg" width="24" height="24" viewBox="0 0 24 24"><g opacity="0.4"><path d="m16.5,4H7.5c-1.93,0-3.5,1.57-3.5,3.5v9c0,1.46.9,2.72,2.18,3.24.56-2.15,2.5-3.74,4.82-3.74h2c2.32,0,4.26,1.59,4.82,3.74,1.28-.52,2.18-1.77,2.18-3.24V7.5c0-1.93-1.57-3.5-3.5-3.5Zm-4.5,10c-1.66,0-3-1.34-3-3s1.34-3,3-3,3,1.34,3,3-1.34,3-3,3Z"/></g><path d="m16.5,20c.47,0,.91-.1,1.32-.26-.56-2.15-2.5-3.74-4.82-3.74h-2c-2.32,0-4.26,1.59-4.82,3.74.41.17.85.26,1.32.26h9Z"/><path d="M12 8A3 3 0 1 0 12 14 3 3 0 1 0 12 8z"/></svg>