<svg xmlns="http://www.w3.org/2000/svg" width="24" height="24" viewBox="0 0 24 24"><g opacity="0.4"><path d="m18.3,6.7l-4.5-2.7c-1.11-.67-2.49-.67-3.6,0l-4.5,2.7c-1.05.63-1.7,1.78-1.7,3v4.6c0,1.22.65,2.37,1.7,3l1.27.76c.91-1.25,2.37-2.06,4.03-2.06h2c1.66,0,3.12.82,4.03,2.06l1.27-.76c1.05-.63,1.7-1.78,1.7-3v-4.6c0-1.22-.65-2.37-1.7-3Zm-6.3,7.3c-1.66,0-3-1.34-3-3s1.34-3,3-3,3,1.34,3,3-1.34,3-3,3Z"/></g><path d="m12,20.5c.62,0,1.25-.17,1.8-.5l3.23-1.94c-.91-1.25-2.37-2.06-4.03-2.06h-2c-1.66,0-3.12.82-4.03,2.06l3.23,1.94c.56.33,1.18.5,1.8.5Z"/><path d="M12 8A3 3 0 1 0 12 14 3 3 0 1 0 12 8z"/></svg>