<svg xmlns="http://www.w3.org/2000/svg" width="24" height="24" viewBox="0 0 24 24"><g opacity="0.4"><path d="m12,3C7.04,3,3,7.04,3,12c0,2.73,1.23,5.18,3.15,6.83.53-2.19,2.49-3.83,4.85-3.83h2c2.36,0,4.32,1.63,4.85,3.83,1.93-1.65,3.15-4.1,3.15-6.83,0-4.96-4.04-9-9-9Zm0,10c-1.66,0-3-1.34-3-3s1.34-3,3-3,3,1.34,3,3-1.34,3-3,3Z"/></g><path d="m17.85,18.83c-.53-2.19-2.49-3.83-4.85-3.83h-2c-2.36,0-4.32,1.63-4.85,3.83,1.57,1.35,3.62,2.17,5.85,2.17s4.27-.82,5.85-2.17Z"/><path d="M12 7A3 3 0 1 0 12 13 3 3 0 1 0 12 7z"/></svg>