<svg xmlns="http://www.w3.org/2000/svg" width="24" height="24" viewBox="0 0 24 24"><g opacity="0.4"><path d="m9.31,9.06c-.08,0-.15,0-.23.03-.89.38-1.7.92-2.38,1.61-.69.69-1.23,1.49-1.61,2.38-.39.93-.59,1.91-.59,2.92,0,.02.01.04.01.07.16-.04.32-.07.49-.07s.33.03.49.07c0-.02.01-.04.01-.07,0-.88.17-1.73.51-2.53.33-.77.8-1.47,1.39-2.07.6-.6,1.29-1.07,2.07-1.39.01,0,.02-.01.03-.02h0s1.5,0,1.5,0c-.71,0-1.34-.38-1.69-.94Z"/><path d="m17.3,10.7c-.69-.69-1.49-1.23-2.38-1.61-.08-.03-.15-.04-.23-.03-.35.56-.98.94-1.69.94h1.5s.02,0,.03.01c.77.33,1.47.8,2.07,1.39.6.6,1.07,1.29,1.39,2.07.34.8.51,1.65.51,2.53,0,.02.01.04.01.07.16-.04.32-.07.49-.07s.33.03.49.07c0-.02.01-.04.01-.07,0-1.01-.2-1.99-.59-2.92-.38-.89-.92-1.69-1.61-2.38Z"/><path d="m15,6.5v1h2.07c-.04-.16-.07-.33-.07-.5s.03-.34.07-.5h-2.07Z"/><path d="m9,7.5v-1h-2.07c.04.16.07.33.07.5s-.03.34-.07.5h2.07Z"/></g><path d="M19 16A2 2 0 1 0 19 20 2 2 0 1 0 19 16z"/><path d="M5 16A2 2 0 1 0 5 20 2 2 0 1 0 5 16z"/><path d="m15,8v-2c0-1.1-.9-2-2-2h-2c-1.1,0-2,.9-2,2v2c0,1.1.9,2,2,2h2c1.1,0,2-.9,2-2Zm-5,0v-2c0-.55.45-1,1-1h2c.55,0,1,.45,1,1v2c0,.55-.45,1-1,1h-2c-.55,0-1-.45-1-1Z"/><path d="M19 5A2 2 0 1 0 19 9 2 2 0 1 0 19 5z"/><path d="M5 5A2 2 0 1 0 5 9 2 2 0 1 0 5 5z"/></svg>