<svg xmlns="http://www.w3.org/2000/svg" width="24" height="24" viewBox="0 0 24 24"><g opacity="0.4"><path d="m13.5,5h-7c-1.93,0-3.5,1.57-3.5,3.5v7c0,1.93,1.57,3.5,3.5,3.5h7c1.93,0,3.5-1.57,3.5-3.5v-7c0-1.93-1.57-3.5-3.5-3.5Zm0,7.5h-3v3c0,.28-.22.5-.5.5s-.5-.22-.5-.5v-3h-3c-.28,0-.5-.22-.5-.5s.22-.5.5-.5h3v-3c0-.28.22-.5.5-.5s.5.22.5.5v3h3c.28,0,.5.22.5.5s-.22.5-.5.5Z"/></g><path d="m20.22,8.52l-3.22,2.15v2.67l3.22,2.15c.33.22.78-.02.78-.42v-6.13c0-.4-.45-.64-.78-.42Z"/><path d="m6.5,12.5h3v3c0,.28.22.5.5.5s.5-.22.5-.5v-3h3c.28,0,.5-.22.5-.5s-.22-.5-.5-.5h-3v-3c0-.28-.22-.5-.5-.5s-.5.22-.5.5v3h-3c-.28,0-.5.22-.5.5s.22.5.5.5Z"/></svg>