<svg xmlns="http://www.w3.org/2000/svg" width="24" height="24" viewBox="0 0 24 24"><g opacity="0.4"><path d="m4.84,15.25c-.22.38-.34.81-.34,1.25,0,1.38,1.12,2.5,2.5,2.5s2.5-1.12,2.5-2.5c0-.44-.12-.88-.34-1.25-.46-.78-1.26-1.25-2.16-1.25s-1.71.47-2.16,1.25Z"/><path d="m17,19c1.38,0,2.5-1.12,2.5-2.5,0-.44-.12-.88-.34-1.25-.46-.78-1.26-1.25-2.16-1.25s-1.71.47-2.16,1.25c-.22.38-.34.81-.34,1.25,0,1.38,1.12,2.5,2.5,2.5Z"/><path d="m8,6h-3c-.55,0-1,.45-1,1v3h4v-4Z"/><path d="M9 6H14V10H9z"/><path d="m17.04,6.43c-.19-.27-.49-.43-.82-.43h-1.22v4h4.54l-2.5-3.57Z"/></g><path d="m17.86,5.85c-.37-.53-.99-.85-1.64-.85H5c-1.1,0-2,.9-2,2v7c0,.96.68,1.75,1.57,1.95.06-.25.14-.49.27-.7.46-.78,1.26-1.25,2.16-1.25s1.71.47,2.16,1.25c.14.23.22.49.27.75h5.13c.05-.26.14-.52.27-.75.46-.78,1.26-1.25,2.16-1.25s1.71.47,2.16,1.25c.13.22.21.46.27.7.9-.2,1.57-1,1.57-1.95v-3.03c0-.41-.12-.81-.36-1.15l-2.78-3.97Zm-9.86,4.15h-4v-3c0-.55.45-1,1-1h3v4Zm6,0h-5v-4h5v4Zm1,0v-4h1.22c.33,0,.63.16.82.43l2.5,3.57h-4.54Z"/></svg>