<svg xmlns="http://www.w3.org/2000/svg" width="24" height="24" viewBox="0 0 24 24"><g opacity="0.4"><path d="m7.5,20h9c1.93,0,3.5-1.57,3.5-3.5V7.5c0-1.93-1.57-3.5-3.5-3.5H7.5c-1.93,0-3.5,1.57-3.5,3.5v9c0,1.93,1.57,3.5,3.5,3.5Zm-.5-12c0-.55.45-1,1-1h2c.55,0,1,.45,1,1v2c0,.55-.45,1-1,1h-2c-.55,0-1-.45-1-1v-2Zm.5,5h9c.28,0,.5.22.5.5s-.22.5-.5.5H7.5c-.28,0-.5-.22-.5-.5s.22-.5.5-.5Zm0,3h9c.28,0,.5.22.5.5s-.22.5-.5.5H7.5c-.28,0-.5-.22-.5-.5s.22-.5.5-.5Z"/></g><rect x="7" y="7" width="4" height="4" rx="1" ry="1"/><path d="m7.5,14h9c.28,0,.5-.22.5-.5s-.22-.5-.5-.5H7.5c-.28,0-.5.22-.5.5s.22.5.5.5Z"/><path d="m7.5,17h9c.28,0,.5-.22.5-.5s-.22-.5-.5-.5H7.5c-.28,0-.5.22-.5.5s.22.5.5.5Z"/></svg>