<svg xmlns="http://www.w3.org/2000/svg" width="24" height="24" viewBox="0 0 24 24"><g opacity="0.4"><path d="m12,4c-4.96,0-9,4.04-9,9v5.5c0,.83.67,1.5,1.5,1.5h2.5v-1.5c0-.28.22-.5.5-.5h9c.28,0,.5.22.5.5v1.5h2.5c.83,0,1.5-.67,1.5-1.5v-5.5c0-4.96-4.04-9-9-9Zm5,12.5c0,.28-.22.5-.5.5H7.5c-.28,0-.5-.22-.5-.5v-1c0-.28.22-.5.5-.5h9c.28,0,.5.22.5.5v1Zm-.5-2.5H7.5c-.28,0-.5-.22-.5-.5,0-.83.67-1.5,1.5-1.5h7c.83,0,1.5.67,1.5,1.5,0,.28-.22.5-.5.5Z"/></g><path d="m7.5,14h9c.28,0,.5-.22.5-.5,0-.83-.67-1.5-1.5-1.5h-7c-.83,0-1.5.67-1.5,1.5,0,.28.22.5.5.5Z"/><rect x="7" y="15" width="10" height="2" rx=".5" ry=".5"/><path d="m17,18.5c0-.28-.22-.5-.5-.5H7.5c-.28,0-.5.22-.5.5v1.5h10v-1.5Z"/></svg>