<svg xmlns="http://www.w3.org/2000/svg" width="24" height="24" viewBox="0 0 24 24"><g opacity="0.4"><path d="m20.5,8c-.59,0-.87-.3-1.32-.82-.45-.52-1-1.18-2.08-1.18s-1.64.65-2.08,1.18c-.45.53-.73.82-1.32.82s-.87-.3-1.32-.82c-.45-.52-1-1.18-2.08-1.18s-1.63.65-2.08,1.18c-.45.53-.73.82-1.32.82s-.87-.3-1.32-.82c-.44-.52-1-1.18-2.08-1.18-.28,0-.5.22-.5.5s.22.5.5.5c.59,0,.87.3,1.32.82.44.52,1,1.18,2.08,1.18s1.63-.65,2.08-1.18c.45-.53.73-.82,1.32-.82s.87.3,1.32.82c.45.52,1,1.18,2.08,1.18s1.64-.65,2.08-1.18c.45-.53.73-.82,1.32-.82s.87.3,1.32.82c.45.52,1,1.18,2.08,1.18.28,0,.5-.22.5-.5s-.22-.5-.5-.5Z"/><path d="m20.5,17c-.59,0-.87-.3-1.32-.82-.45-.52-1-1.18-2.08-1.18s-1.64.65-2.08,1.18c-.45.53-.73.82-1.32.82s-.87-.3-1.32-.82c-.45-.52-1-1.18-2.08-1.18s-1.63.65-2.08,1.18c-.45.53-.73.82-1.32.82s-.87-.3-1.32-.82c-.44-.52-1-1.18-2.08-1.18-.28,0-.5.22-.5.5s.22.5.5.5c.59,0,.87.3,1.32.82.44.52,1,1.18,2.08,1.18s1.63-.65,2.08-1.18c.45-.53.73-.82,1.32-.82s.87.3,1.32.82c.45.52,1,1.18,2.08,1.18s1.64-.65,2.08-1.18c.45-.53.73-.82,1.32-.82s.87.3,1.32.82c.45.52,1,1.18,2.08,1.18.28,0,.5-.22.5-.5s-.22-.5-.5-.5Z"/></g><path d="m20.5,12.5c-.59,0-.87-.3-1.32-.82-.45-.52-1-1.18-2.08-1.18s-1.64.65-2.08,1.18c-.45.53-.73.82-1.32.82s-.87-.3-1.32-.82c-.45-.52-1-1.18-2.08-1.18s-1.63.65-2.08,1.18c-.45.53-.73.82-1.32.82s-.87-.3-1.32-.82c-.44-.52-1-1.18-2.08-1.18-.28,0-.5.22-.5.5s.22.5.5.5c.59,0,.87.3,1.32.82.44.52,1,1.18,2.08,1.18s1.63-.65,2.08-1.18c.45-.53.73-.82,1.32-.82s.87.3,1.32.82c.45.52,1,1.18,2.08,1.18s1.64-.65,2.08-1.18c.45-.53.73-.82,1.32-.82s.87.3,1.32.82c.45.52,1,1.18,2.08,1.18.28,0,.5-.22.5-.5s-.22-.5-.5-.5Z"/></svg>