<svg xmlns="http://www.w3.org/2000/svg" width="24" height="24" viewBox="0 0 24 24"><g opacity="0.4"><path d="m17.5,5H6.5c-1.93,0-3.5,1.57-3.5,3.5v7c0,1.93,1.57,3.5,3.5,3.5h11c1.93,0,3.5-1.57,3.5-3.5v-7c0-1.93-1.57-3.5-3.5-3.5Zm-11.5,4c0-.55.45-1,1-1h2c.55,0,1,.45,1,1v2c0,.55-.45,1-1,1h-2c-.55,0-1-.45-1-1v-2Zm11.5,6H6.5c-.28,0-.5-.22-.5-.5s.22-.5.5-.5h11c.28,0,.5.22.5.5s-.22.5-.5.5Z"/></g><path d="m6.5,15h11c.28,0,.5-.22.5-.5s-.22-.5-.5-.5H6.5c-.28,0-.5.22-.5.5s.22.5.5.5Z"/><rect x="6" y="8" width="4" height="4" rx="1" ry="1"/></svg>