<svg xmlns="http://www.w3.org/2000/svg" width="24" height="24" viewBox="0 0 24 24"><g opacity="0.4"><path d="m19,5h-9.5c-.28,0-.5.22-.5.5v3c0,.28.22.5.5.5h11c.28,0,.5-.22.5-.5v-1.5c0-1.1-.9-2-2-2Z"/><rect x="3" y="10" width="12" height="4" rx=".5" ry=".5"/><path d="m20.5,15h-11c-.28,0-.5.22-.5.5v3c0,.28.22.5.5.5h9.5c1.1,0,2-.9,2-2v-1.5c0-.28-.22-.5-.5-.5Z"/></g><rect x="16" y="10" width="5" height="4" rx=".5" ry=".5"/><path d="m5,19h2.5c.28,0,.5-.22.5-.5v-3c0-.28-.22-.5-.5-.5H3.5c-.28,0-.5.22-.5.5v1.5c0,1.1.9,2,2,2Z"/><path d="m3.5,9h4c.28,0,.5-.22.5-.5v-3c0-.28-.22-.5-.5-.5h-2.5c-1.1,0-2,.9-2,2v1.5c0,.28.22.5.5.5Z"/></svg>