<svg xmlns="http://www.w3.org/2000/svg" width="24" height="24" viewBox="0 0 24 24"><g opacity="0.4"><path d="m7.29,16.32c.12,0,.24-.04.34-.13.08-.07.15-.14.24-.2.08-.07.16-.13.24-.19.08-.06.17-.12.25-.18.09-.06.18-.12.27-.17.09-.05.18-.11.27-.16.09-.05.19-.1.28-.14.1-.05.19-.09.29-.13.1-.04.2-.08.3-.12.1-.04.2-.07.3-.1.1-.03.2-.06.31-.09.1-.03.21-.05.31-.07.11-.02.21-.04.32-.06.11-.02.21-.03.32-.04.11-.01.22-.02.33-.03.22,0,.45,0,.67,0,.11,0,.22.01.33.03.11.01.21.02.33.04.11.02.21.04.32.06.1.02.21.04.32.07.1.03.2.06.31.09.1.03.2.07.3.1s.2.08.29.11c.1.04.2.09.29.13.09.05.19.09.28.14.09.05.18.1.27.16.09.05.18.11.26.17.09.06.17.12.26.18.08.06.17.13.25.19.08.07.16.13.24.2.2.19.52.17.71-.03.19-.21.17-.52-.03-.71-.09-.08-.18-.16-.27-.23-.09-.08-.19-.15-.28-.22-.1-.07-.19-.14-.3-.21-.1-.07-.2-.13-.3-.19-.1-.06-.21-.12-.31-.18-.11-.06-.21-.11-.32-.17-.11-.05-.22-.1-.33-.15-.11-.05-.22-.09-.34-.13s-.23-.08-.35-.12c-.12-.04-.24-.07-.35-.1-.12-.03-.24-.06-.36-.08-.12-.02-.25-.05-.37-.07-.13-.02-.25-.04-.38-.05-.13-.01-.25-.02-.38-.03-.25-.01-.51-.01-.77,0-.13,0-.25.02-.38.03-.13.01-.25.03-.38.05-.12.02-.25.04-.37.07-.12.02-.24.05-.36.08-.12.03-.24.06-.36.1-.12.04-.24.08-.35.12-.12.04-.23.09-.34.14-.11.05-.22.1-.33.15-.11.05-.22.11-.32.17-.11.06-.21.12-.31.18-.1.06-.2.13-.31.2-.1.07-.2.14-.29.21-.1.07-.19.15-.28.22-.09.08-.19.16-.27.24-.2.19-.22.5-.03.71.1.11.23.16.37.16Z"/></g><path d="m12,17c-1.1,0-2,.9-2,2,0,1.1.89,2,2,2s2-.9,2-2-.9-2-2-2Z"/><path d="m19.32,12.13c-.14-.12-.29-.23-.43-.34-.15-.11-.3-.22-.45-.32-.15-.1-.31-.2-.47-.3-.16-.1-.32-.19-.48-.28-.16-.09-.33-.17-.5-.25-.17-.08-.34-.16-.51-.23-.17-.07-.35-.14-.52-.2-.18-.07-.36-.13-.54-.18-.18-.06-.36-.11-.54-.15-.18-.05-.37-.09-.56-.13-.19-.04-.38-.07-.57-.1-.19-.03-.38-.05-.58-.07-.19-.02-.39-.04-.58-.04-.39-.02-.8-.02-1.18,0-.2,0-.39.02-.58.04-.19.02-.39.04-.57.07-.19.03-.38.06-.57.1-.19.04-.38.08-.56.13-.18.05-.36.1-.55.15-.18.06-.36.12-.54.18s-.35.13-.52.21c-.17.07-.34.15-.51.23-.17.08-.33.17-.49.25-.16.09-.33.18-.49.28-.16.1-.31.2-.47.3-.15.1-.3.21-.45.32-.15.11-.29.22-.44.34-.14.12-.28.24-.42.36-.21.19-.22.5-.04.71.18.2.5.22.71.04.13-.11.25-.22.38-.33.13-.11.26-.21.4-.31.13-.1.27-.2.41-.29.14-.09.28-.19.43-.27.14-.09.29-.17.44-.25.15-.08.3-.16.45-.23.15-.07.31-.14.46-.21.16-.07.32-.13.48-.19.16-.06.32-.11.48-.17.16-.05.33-.1.5-.14.17-.04.34-.08.51-.12.17-.04.34-.07.52-.09.17-.03.35-.05.52-.07.18-.02.35-.03.54-.04.36-.02.72-.02,1.08,0,.18,0,.36.02.53.04.18.02.35.04.53.07.17.03.34.06.52.09.17.03.34.07.51.12.17.04.33.09.5.14.16.05.33.11.49.17.16.06.32.12.48.19.16.07.31.14.46.21.15.07.3.15.46.23.15.08.29.16.44.25.14.09.29.18.43.27.14.09.28.19.41.29.13.1.27.2.4.31.13.11.26.22.38.33.1.09.22.13.33.13.14,0,.27-.06.37-.17.19-.21.17-.52-.04-.71-.14-.12-.27-.24-.42-.36Z"/></svg>