<svg xmlns="http://www.w3.org/2000/svg" width="24" height="24" viewBox="0 0 24 24"><g opacity="0.4"><rect x="17" y="6" width="2" height="2" rx=".5" ry=".5"/><rect x="14" y="6" width="2" height="2" rx=".5" ry=".5"/><path d="m3,16.5c0,1.93,1.57,3.5,3.5,3.5h11c1.93,0,3.5-1.57,3.5-3.5v-6.5H3v6.5Zm6.85-2.35l1.79-1.79c.2-.2.51-.2.71,0l1.79,1.79c.32.31.09.85-.35.85h-1.29v2.56c0,.28-.22.5-.5.5s-.5-.22-.5-.5v-2.56h-1.29c-.45,0-.67-.54-.35-.85Z"/></g><path d="m17.5,4H6.5c-1.93,0-3.5,1.57-3.5,3.5v2.5h18v-2.5c0-1.93-1.57-3.5-3.5-3.5Zm-1.5,3.5c0,.28-.22.5-.5.5h-1c-.28,0-.5-.22-.5-.5v-1c0-.28.22-.5.5-.5h1c.28,0,.5.22.5.5v1Zm3,0c0,.28-.22.5-.5.5h-1c-.28,0-.5-.22-.5-.5v-1c0-.28.22-.5.5-.5h1c.28,0,.5.22.5.5v1Z"/><path d="m12.35,12.35c-.2-.2-.51-.2-.71,0l-1.79,1.79c-.32.31-.09.85.35.85h1.29v2.56c0,.28.22.5.5.5s.5-.22.5-.5v-2.56h1.29c.45,0,.67-.54.35-.85l-1.79-1.79Z"/></svg>