<svg xmlns="http://www.w3.org/2000/svg" width="24" height="24" viewBox="0 0 24 24"><g opacity="0.4"><path d="m18.91,9.05l-.75-5.19c-.07-.49-.5-.86-.99-.86H6.83c-.49,0-.92.37-.99.86l-.75,5.19c-.09.61-.1,1.19-.06,1.73,2.25,1.64,4.89,1.36,6.97-.78,2.06-2.13,4.69-2.42,6.93-.81,0-.05,0-.09-.01-.14h0Z"/></g><path d="m12,10c-2.08,2.14-4.72,2.42-6.97.78.03.38.08.74.18,1.08.79,2.86,3.33,4.88,6.26,5.1v3.04h-1.96c-.28,0-.5.22-.5.5s.22.5.5.5h4.96c.28,0,.5-.22.5-.5s-.22-.5-.5-.5h-2.01v-3.04c2.96-.2,5.52-2.23,6.32-5.1.22-.79.26-1.68.14-2.66-2.24-1.61-4.86-1.32-6.93.81Z"/></svg>