<svg xmlns="http://www.w3.org/2000/svg" width="24" height="24" viewBox="0 0 24 24"><g opacity="0.4"><path d="M5.44 11 4.39 11 5.34 14 6.39 14 5.44 11z"/><path d="M13.94 11 12.89 11 13.84 14 14.89 14 13.94 11z"/><path d="M9.11 14 10.16 14 11.11 11 10.06 11 9.11 14z"/><path d="m20.65,6.02c-.26-.08-.54.06-.63.33l-1.15,3.65h1.05l1.05-3.35c.08-.26-.06-.54-.33-.63Z"/><path d="m7.86,18h-.21l-.94-3h-1.05l1.15,3.65c.07.21.26.35.48.35h.95c.22,0,.41-.14.48-.35l1.15-3.65h-1.05l-.94,3Z"/><path d="m16.36,18h-.21l-.94-3h-1.05l1.15,3.65c.07.21.26.35.48.35h.95c.22,0,.41-.14.48-.35l1.15-3.65h-1.05l-.94,3Z"/><path d="m3.98,6.35c-.08-.26-.36-.41-.63-.33-.26.08-.41.36-.33.63l1.05,3.35h1.05l-1.15-3.65Z"/><path d="m12.48,6.35c-.13-.42-.82-.42-.95,0l-1.15,3.65h1.05l.58-1.83.58,1.83h1.05l-1.15-3.65Z"/><path d="M17.61 14 18.66 14 19.61 11 18.56 11 17.61 14z"/></g><path d="M2 10H22V11H2z"/><path d="M2 14H22V15H2z"/></svg>