<svg xmlns="http://www.w3.org/2000/svg" width="24" height="24" viewBox="0 0 24 24"><g opacity="0.4"><path d="m16.77,15.21c-.09-.08-.19-.15-.28-.22-.1-.07-.19-.14-.3-.21-.1-.07-.2-.13-.3-.19-.1-.06-.21-.12-.31-.18-.11-.06-.21-.11-.32-.17-.11-.05-.22-.1-.33-.15-.11-.05-.22-.09-.34-.13s-.23-.08-.35-.12c-.12-.04-.24-.07-.35-.1-.12-.03-.24-.06-.36-.08-.12-.02-.25-.05-.37-.07-.13-.02-.25-.04-.38-.05-.13-.01-.25-.02-.38-.03-.25-.01-.51-.01-.77,0-.13,0-.25.02-.38.03-.13.01-.25.03-.38.05-.12.02-.25.04-.37.07-.12.02-.24.05-.36.08-.12.03-.24.06-.36.1-.12.04-.24.08-.35.12-.12.04-.23.09-.34.14-.11.05-.22.1-.33.15-.11.05-.22.11-.32.17-.11.06-.21.12-.31.18-.1.06-.2.13-.31.2-.1.07-.2.14-.29.21-.1.07-.19.15-.28.22-.09.08-.19.16-.27.24-.2.19-.22.5-.03.71.1.11.23.16.37.16.12,0,.24-.04.34-.13.08-.07.15-.14.24-.2.08-.07.16-.13.24-.19.08-.06.17-.12.25-.18.09-.06.18-.12.27-.17.09-.05.18-.11.27-.16.09-.05.19-.1.28-.14.1-.05.19-.09.29-.13.1-.04.2-.08.3-.12.1-.04.2-.07.3-.1.1-.03.2-.06.31-.09.1-.03.21-.05.31-.07.11-.02.21-.04.32-.06.11-.02.21-.03.32-.04.11-.01.22-.02.33-.03.22,0,.45,0,.67,0,.11,0,.22.01.33.03.11.01.21.02.33.04.11.02.21.04.32.06.1.02.21.04.32.07.1.03.2.06.31.09.1.03.2.07.3.1s.2.08.29.11c.1.04.2.09.29.13.09.05.19.09.28.14.09.05.18.1.27.16.09.05.18.11.26.17.09.06.17.12.26.18.08.06.17.13.25.19.08.07.16.13.24.2.2.19.52.17.71-.03.19-.21.17-.52-.03-.71-.09-.08-.18-.16-.27-.23Z"/></g><path d="m12,17c-1.1,0-2,.9-2,2,0,1.1.89,2,2,2s2-.9,2-2-.9-2-2-2Z"/></svg>