<svg xmlns="http://www.w3.org/2000/svg" width="24" height="24" viewBox="0 0 24 24"><g opacity="0.4"><path class="st0" d="M12,3c-5,0-9,4-9,9s4,9,9,9c-1.6,0-3-1.4-3-3v-0.8C7.5,16.4,6.7,15,6.3,14c-0.2-0.5,0.2-1,0.7-1H17
	c0.5,0,0.9,0.5,0.7,1c-0.4,0.9-1.2,2.3-2.7,3.2V18c0,1.6-1.4,3-3,3c5,0,9-4,9-9S17,3,12,3z M8.5,11C7.7,11,7,10.3,7,9.5S7.7,8,8.5,8
	S10,8.7,10,9.5S9.3,11,8.5,11z M17.2,11h-3.5c-0.4,0-0.6-0.4-0.4-0.8c0.3-0.6,1-1.2,2.2-1.2s1.8,0.7,2.2,1.2
	C17.9,10.6,17.6,11,17.2,11L17.2,11z"/></g><path class="st0" d="M9,17.2V18c0,1.6,1.4,3,3,3s3-1.4,3-3v-0.8c1.5-0.9,2.3-2.2,2.7-3.2c0.2-0.5-0.2-1-0.7-1H7
	c-0.5,0-0.9,0.5-0.7,1C6.7,15,7.5,16.4,9,17.2z"/><path class="st0" d="M8.5 8A1.5 1.5 0 1 0 8.5 11 1.5 1.5 0 1 0 8.5 8z"/><path class="st0" d="M13.8,11h3.5c0.4,0,0.6-0.4,0.4-0.8c-0.3-0.6-1-1.2-2.2-1.2s-1.8,0.7-2.2,1.2C13.1,10.6,13.4,11,13.8,11
	L13.8,11z"/></svg>