<svg xmlns="http://www.w3.org/2000/svg" width="24" height="24" viewBox="0 0 24 24"><g opacity="0.4"><path d="M12 8A3 3 0 1 0 12 14 3 3 0 1 0 12 8z"/><path d="m12,3c-4.41,0-8,3.59-8,8,0,3.24,1.94,6.03,4.71,7.29l-1.86,1.86c-.32.32-.09.85.35.85h9.59c.45,0,.67-.54.35-.85l-1.86-1.86c2.78-1.26,4.71-4.05,4.71-7.29,0-4.41-3.59-8-8-8Zm0,12c-2.21,0-4-1.79-4-4s1.79-4,4-4,4,1.79,4,4-1.79,4-4,4Z"/></g><path d="m12,15c2.21,0,4-1.79,4-4s-1.79-4-4-4-4,1.79-4,4,1.79,4,4,4Zm0-7c1.65,0,3,1.35,3,3s-1.35,3-3,3-3-1.35-3-3,1.35-3,3-3Z"/></svg>