<svg xmlns="http://www.w3.org/2000/svg" width="24" height="24" viewBox="0 0 24 24"><g opacity="0.4"><path d="m14.5,13h-6c-.28,0-.5.22-.5.5s.22.5.5.5h6c1.38,0,2.5,1.12,2.5,2.5s-1.12,2.5-2.5,2.5-2.5-1.12-2.5-2.5c0-.28-.22-.5-.5-.5s-.5.22-.5.5c0,1.93,1.57,3.5,3.5,3.5s3.5-1.57,3.5-3.5-1.57-3.5-3.5-3.5Z"/></g><path d="m17.5,4c-1.93,0-3.5,1.57-3.5,3.5,0,.28.22.5.5.5s.5-.22.5-.5c0-1.38,1.12-2.5,2.5-2.5s2.5,1.12,2.5,2.5-1.12,2.5-2.5,2.5H3.5c-.28,0-.5.22-.5.5s.22.5.5.5h14c1.93,0,3.5-1.57,3.5-3.5s-1.57-3.5-3.5-3.5Z"/><path d="m5.5,13h-2c-.28,0-.5.22-.5.5s.22.5.5.5h2c.28,0,.5-.22.5-.5s-.22-.5-.5-.5Z"/></svg>