<svg xmlns="http://www.w3.org/2000/svg" width="24" height="24" viewBox="0 0 24 24"><g opacity="0.4"><path d="M13.49 3A1.5 1.5 0 1 0 13.49 6 1.5 1.5 0 1 0 13.49 3z"/></g><path d="m18.74,12.57l-1.18-.68c-1.4-.8-2.52-2.06-3.16-3.54-.34-.8-1.05-1.4-1.89-1.61-.7-.17-1.44-.08-2.06.29-1.84,1.05-3.37,2.58-4.43,4.43l-.46.8c-.14.24-.05.54.19.68.24.14.54.05.68-.19l.46-.8c.96-1.68,2.36-3.08,4.03-4.04l-.76,4.59c-.41,2.75-1.72,5.35-3.69,7.32l-.33.33c-.2.2-.2.51,0,.71.1.1.23.15.35.15s.26-.05.35-.15l.33-.33c1.79-1.79,3.06-4.06,3.69-6.5l1.83,1.26c.9.67,1.56,1.59,1.92,2.66l.91,2.72c.07.21.27.34.47.34.05,0,.11,0,.16-.03.26-.09.4-.37.32-.63l-.91-2.72c-.42-1.26-1.2-2.35-2.28-3.16l-.77-.53.84-5.43c.05.08.1.15.14.24.72,1.68,1.99,3.11,3.58,4.01l1.18.68c.08.04.16.07.25.07.17,0,.34-.09.43-.25.14-.24.05-.54-.19-.68Z"/></svg>