<svg xmlns="http://www.w3.org/2000/svg" width="24" height="24" viewBox="0 0 24 24"><g opacity="0.4"><path d="m11.32,10.37c-.8-.67-1.26-1.64-1.3-2.67l-.16.16c-.09.09-.22.15-.35.15h-3c-.13,0-.26-.05-.35-.15l-.16-.16c-.04,1.04-.5,2.01-1.3,2.67-1.07.89-1.68,2.2-1.68,3.59v.55c2.6,0,3.91.53,5.19,1.04,1.24.5,2.41.96,4.81.96v-2.55c0-1.39-.61-2.7-1.68-3.59Z"/></g><path d="m14.5,3h-6.74c-.61,0-1.2.21-1.67.59-.59.48-.96,1.18-1,1.94s.24,1.51.78,2.04l.28.28c.09.09.22.15.35.15h3c.13,0,.26-.05.35-.15l1.71-1.71c.19,1.24.94,2.85,2.94,2.85.28,0,.5-.22.5-.5s-.22-.5-.5-.5c-1.43,0-1.83-1.27-1.95-2h1.95c.28,0,.5-.22.5-.5v-2c0-.28-.22-.5-.5-.5Z"/><path d="m3,14.5v4.8c0,.94.76,1.7,1.7,1.7h6.6c.94,0,1.7-.76,1.7-1.7v-2.8c-2.4,0-3.57-.47-4.81-.96-1.27-.51-2.59-1.04-5.19-1.04Z"/><path d="M17 4A1 1 0 1 0 17 6 1 1 0 1 0 17 4z"/><path d="M20 4A1 1 0 1 0 20 6 1 1 0 1 0 20 4z"/><path d="M20 7A1 1 0 1 0 20 9 1 1 0 1 0 20 7z"/></svg>