<svg xmlns="http://www.w3.org/2000/svg" width="24" height="24" viewBox="0 0 24 24"><g opacity="0.4"><path d="m19,3H5c-.55,0-1,.45-1,1v3.17c0,.17.02.34.03.51l.61.25c2.28.94,5.01.8,7.13-.36,2.38-1.3,5.44-1.46,7.99-.41l.25.1s0-.06,0-.08v-3.17c0-.55-.45-1-1-1Z"/></g><path d="m11.48,14.98v5.02h-1.96c-.28,0-.5.22-.5.5s.22.5.5.5h4.96c.28,0,.5-.22.5-.5s-.22-.5-.5-.5h-2v-5.02c4.16-.24,7.47-3.6,7.51-7.72l-.25-.1c-2.55-1.05-5.61-.89-7.99.41-2.12,1.16-4.85,1.3-7.13.36l-.61-.25c.26,3.91,3.46,7.05,7.46,7.3Z"/></svg>