<svg xmlns="http://www.w3.org/2000/svg" width="24" height="24" viewBox="0 0 24 24"><g opacity="0.4"><path d="m6,12c0,3.31,2.69,6,6,6s6-2.69,6-6-2.69-6-6-6-6,2.69-6,6Zm5.5-3.5c0-.28.22-.5.5-.5s.5.22.5.5v3h3c.28,0,.5.22.5.5s-.22.5-.5.5h-3.5c-.28,0-.5-.22-.5-.5v-3.5Z"/></g><path d="m12,8c-.28,0-.5.22-.5.5v3.5c0,.28.22.5.5.5h3.5c.28,0,.5-.22.5-.5s-.22-.5-.5-.5h-3v-3c0-.28-.22-.5-.5-.5Z"/><path d="m9,20c0,.55.45,1,1,1h4c.55,0,1-.45,1-1v-2.81c-.88.51-1.91.81-3,.81s-2.12-.3-3-.81v2.81Z"/><path d="m14,3h-4c-.55,0-1,.45-1,1v2.81c.88-.51,1.91-.81,3-.81s2.12.3,3,.81v-2.81c0-.55-.45-1-1-1Z"/></svg>