<svg xmlns="http://www.w3.org/2000/svg" width="24" height="24" viewBox="0 0 24 24"><g opacity="0.4"><path d="m18.83,6.14l-5.77-2.7c-.67-.31-1.44-.31-2.12,0l-5.77,2.7c-.74.34-1.19,1.09-1.15,1.9.12,2.67,1.02,9.23,6.75,12.41.38.21.81.32,1.23.32s.85-.11,1.23-.32c5.73-3.18,6.63-9.74,6.75-12.41.04-.81-.42-1.55-1.15-1.9Zm-3.98,8.01c.2.2.2.51,0,.71-.1.1-.23.15-.35.15s-.26-.05-.35-.15l-2.15-2.15-2.15,2.15c-.1.1-.23.15-.35.15s-.26-.05-.35-.15c-.2-.2-.2-.51,0-.71l2.15-2.15-2.15-2.15c-.2-.2-.2-.51,0-.71s.51-.2.71,0l2.15,2.15,2.15-2.15c.2-.2.51-.2.71,0s.2.51,0,.71l-2.15,2.15,2.15,2.15Z"/></g><path d="m9.15,14.85c.1.1.23.15.35.15s.26-.05.35-.15l2.15-2.15,2.15,2.15c.1.1.23.15.35.15s.26-.05.35-.15c.2-.2.2-.51,0-.71l-2.15-2.15,2.15-2.15c.2-.2.2-.51,0-.71s-.51-.2-.71,0l-2.15,2.15-2.15-2.15c-.2-.2-.51-.2-.71,0s-.2.51,0,.71l2.15,2.15-2.15,2.15c-.2.2-.2.51,0,.71Z"/></svg>