<svg xmlns="http://www.w3.org/2000/svg" width="24" height="24" viewBox="0 0 24 24"><g opacity="0.4"><path d="m5.67,6.17c-.18,0-.35.01-.53.02-.6.71-1.1,1.51-1.46,2.39,3.03.62,5.65,2.47,7.25,5.16,1.34-.93,2.45-2.14,3.28-3.55-2.12-2.55-5.23-4.02-8.54-4.02Z"/><path d="m18.36,8.31c0-1.07-.17-2.11-.5-3.12-.36-.31-.74-.59-1.15-.84,0,.09.01.18.01.27,0,6.68-5.43,12.11-12.11,12.11-.09,0-.18-.01-.27-.02.25.41.53.79.84,1.15,1.01.33,2.06.5,3.12.5,5.54,0,10.06-4.51,10.06-10.06Z"/><path d="m10.08,14.27c-1.48-2.5-3.91-4.2-6.73-4.74-.23.79-.35,1.61-.35,2.47,0,1.31.29,2.55.79,3.67.27.02.54.05.82.05,1.99,0,3.86-.53,5.47-1.45Z"/><path d="m19.36,8.31c0,6.1-4.96,11.06-11.06,11.06-.55,0-1.1-.05-1.64-.13,1.49,1.1,3.34,1.77,5.33,1.77,4.96,0,9-4.04,9-9,0-2-.66-3.84-1.77-5.33.08.54.13,1.09.13,1.64Z"/><path d="m15.72,4.61c0-.28-.02-.55-.04-.82-1.13-.51-2.37-.8-3.68-.8-2.24,0-4.29.83-5.87,2.19,3.3.13,6.37,1.58,8.57,4.05.65-1.41,1.03-2.98,1.03-4.63Z"/></g><path d="m8.31,18.36c-1.06,0-2.1-.17-3.11-.5.44.51.94.97,1.48,1.37.54.08,1.08.13,1.63.13,6.1,0,11.06-4.96,11.06-11.06,0-.55-.05-1.09-.13-1.63-.4-.54-.86-1.04-1.37-1.48.33,1,.5,2.05.5,3.11,0,5.54-4.51,10.06-10.06,10.06Z"/><path d="m10.08,14.27c-1.62.92-3.48,1.45-5.47,1.45-.28,0-.54-.03-.81-.05l.54,1.03c.09,0,.18.02.27.02,6.68,0,12.11-5.43,12.11-12.11,0-.09,0-.17-.01-.26-.33-.2-.67-.39-1.03-.55.02.27.04.54.04.81,0,1.65-.37,3.22-1.03,4.63-2.19-2.47-5.26-3.92-8.55-4.05-.36.31-.69.64-.99,1,.17-.01.34-.02.51-.02,3.31,0,6.42,1.47,8.54,4.02-.82,1.41-1.94,2.62-3.28,3.55-1.6-2.69-4.21-4.53-7.24-5.16-.13.31-.24.63-.33.95,2.81.54,5.24,2.24,6.72,4.74Z"/><path d="m16.71,4.34s0,0,0,.01c.02.01.03.02.05.03-.02-.01-.03-.03-.05-.04Z"/><path d="m20.5,20h-4.39c-1.23.64-2.63,1-4.11,1h8.5c.28,0,.5-.22.5-.5s-.22-.5-.5-.5Z"/></svg>