<svg xmlns="http://www.w3.org/2000/svg" width="24" height="24" viewBox="0 0 24 24"><g opacity="0.4"><path d="m12,2C6.48,2,2,6.48,2,12s4.48,10,10,10,10-4.48,10-10S17.52,2,12,2Zm1,14c-2.76,0-5-2.24-5-5s2.24-5,5-5,5,2.24,5,5-2.24,5-5,5Z"/></g><path d="M13.25 10.75A1 1 0 1 0 13.25 12.75 1 1 0 1 0 13.25 10.75z"/><path d="M13.25 8.75A.5.5 0 1 0 13.25 9.75.5.5 0 1 0 13.25 8.75z"/><path d="m13,16c2.76,0,5-2.24,5-5s-2.24-5-5-5-5,2.24-5,5,2.24,5,5,5Zm-.94-5.85c-.19-.25-.31-.56-.31-.9,0-.83.67-1.5,1.5-1.5s1.5.67,1.5,1.5c0,.34-.12.65-.31.9.49.37.81.94.81,1.6,0,1.1-.9,2-2,2s-2-.9-2-2c0-.66.32-1.23.81-1.6Z"/></svg>