<svg xmlns="http://www.w3.org/2000/svg" width="24" height="24" viewBox="0 0 24 24"><g opacity="0.4"><path d="m12,4c-4.88,0-9,4.12-9,9s4.12,9,9,9,9-4.12,9-9-4.12-9-9-9Zm-1,12.41l-3.71-3.71,1.41-1.41,2.29,2.29,4.29-4.29,1.41,1.41-5.71,5.71Z"/></g><path d="M18.7 2.29 17.99 3 17.28 3.71 18.79 5.21 20.29 6.71 21 6 21.71 5.29 20.2 3.79 18.7 2.29z"/><path d="M3.71 6.71 5.2 5.21 6.7 3.71 5.99 3 5.28 2.29 3.79 3.79 2.29 5.29 3 6 3.71 6.71z"/><path d="M16.71 10.71 15.29 9.29 11 13.59 8.71 11.29 7.29 12.71 11 16.41 16.71 10.71z"/></svg>