<svg xmlns="http://www.w3.org/2000/svg" width="24" height="24" viewBox="0 0 24 24"><g opacity="0.4"><path d="m12,2C6.49,2,2,6.49,2,12s4.49,10,10,10,10-4.49,10-10S17.51,2,12,2Zm-5,9c0-.17.06-.33.13-.47l-1.5-.6.74-1.86,5,2-.74,1.86-1.68-.67c-.12.42-.49.74-.95.74-.55,0-1-.45-1-1Zm1,6s1-3,4-3,4,3,4,3h-8Zm9-6c0,.55-.45,1-1,1-.46,0-.83-.32-.95-.74l-1.68.67-.74-1.86,5-2,.74,1.86-1.5.6c.08.14.13.3.13.47Z"/></g><path d="m17.63,8.07l-5,2,.74,1.86,1.68-.67c.12.42.49.74.95.74.55,0,1-.45,1-1,0-.17-.06-.33-.13-.47l1.5-.6-.74-1.86Z"/><path d="m8,17h8s-1-3-4-3-4,3-4,3Z"/><path d="m5.63,9.93l1.5.6c-.08.14-.13.3-.13.47,0,.55.45,1,1,1,.46,0,.83-.32.95-.74l1.68.67.74-1.86-5-2-.74,1.86Z"/></svg>