<svg xmlns="http://www.w3.org/2000/svg" width="24" height="24" viewBox="0 0 24 24"><g opacity="0.4"><path d="M7.5 9A1.5 1.5 0 1 0 7.5 12 1.5 1.5 0 1 0 7.5 9z"/><path d="M11.5 10A1.5 1.5 0 1 0 11.5 13 1.5 1.5 0 1 0 11.5 10z"/><path d="M10.5 6A1.5 1.5 0 1 0 10.5 9 1.5 1.5 0 1 0 10.5 6z"/></g><path d="m12,2C6.49,2,2,6.49,2,12s4.49,10,10,10,10-4.49,10-10S17.51,2,12,2Zm-4.5,10c-.83,0-1.5-.67-1.5-1.5s.67-1.5,1.5-1.5,1.5.67,1.5,1.5-.67,1.5-1.5,1.5Zm1.5-4.5c0-.83.67-1.5,1.5-1.5s1.5.67,1.5,1.5-.67,1.5-1.5,1.5-1.5-.67-1.5-1.5Zm2.5,5.5c-.83,0-1.5-.67-1.5-1.5s.67-1.5,1.5-1.5,1.5.67,1.5,1.5-.67,1.5-1.5,1.5Z"/></svg>