<svg xmlns="http://www.w3.org/2000/svg" width="24" height="24" viewBox="0 0 24 24"><g opacity="0.4"><path d="m17,15c-1.6,0-2.45-.68-3.12-1.22-.57-.45-.98-.78-1.88-.78s-1.29.31-1.88.78c-.68.54-1.52,1.22-3.12,1.22s-2.44-.68-3.12-1.22c-.59-.47-.97-.78-1.87-.78v8h20v-8c-.9,0-1.29.31-1.88.78-.68.54-1.53,1.22-3.13,1.22Z"/><path d="m19,5H5c-1.65,0-3,1.35-3,3v3c1.6,0,2.44.68,3.12,1.22.59.47.97.78,1.87.78s1.29-.31,1.88-.78c.68-.54,1.52-1.22,3.12-1.22s2.45.68,3.13,1.22c.59.47.98.78,1.88.78s1.31-.33,1.88-.78c.68-.54,1.52-1.22,3.12-1.22v-3c0-1.65-1.35-3-3-3Z"/></g><path d="m17,13c-.9,0-1.29-.31-1.88-.78-.68-.54-1.53-1.22-3.13-1.22s-2.45.68-3.12,1.22c-.59.47-.98.78-1.88.78s-1.28-.31-1.87-.78c-.68-.54-1.52-1.22-3.12-1.22v2c.9,0,1.29.31,1.87.78.68.54,1.52,1.22,3.12,1.22s2.45-.68,3.12-1.22c.59-.47.98-.78,1.88-.78s1.31.33,1.88.78c.68.54,1.52,1.22,3.12,1.22s2.45-.68,3.13-1.22c.59-.47.98-.78,1.88-.78v-2c-1.6,0-2.45.68-3.12,1.22-.57.45-.98.78-1.88.78Z"/><path d="M11 2H13V5H11z"/></svg>