<svg xmlns="http://www.w3.org/2000/svg" width="24" height="24" viewBox="0 0 24 24"><g opacity="0.4"><path d="M20 6.05A1 1 0 1 0 20 8.05 1 1 0 1 0 20 6.05z"/><path d="M9 2.05A1 1 0 1 0 9 4.05 1 1 0 1 0 9 2.05z"/><path d="M7.65 10.05 3.91 1.64 2.09 2.45 5.46 10.05 7.65 10.05z"/></g><path d="m2,11.05c0,3.61,1.9,6.87,5,8.66v2.34h10v-2.34c3.1-1.78,5-5.05,5-8.66v-1H2v1Z"/><path d="M17.5 2.05A1.5 1.5 0 1 0 17.5 5.05 1.5 1.5 0 1 0 17.5 2.05z"/><path d="M13 4.05A2 2 0 1 0 13 8.05 2 2 0 1 0 13 4.05z"/></svg>