<svg xmlns="http://www.w3.org/2000/svg" width="24" height="24" viewBox="0 0 24 24"><g opacity="0.4"><path d="m18.32,19.73l-1.42-1.42c-1.4,1.09-3.1,1.69-4.9,1.69-4.41,0-8-3.59-8-8,0-1.8.6-3.51,1.69-4.9l-1.43-1.43c-1.46,1.78-2.26,3.99-2.26,6.33,0,5.51,4.49,10,10,10,2.33,0,4.54-.8,6.33-2.26h0s0,0,0,0Z"/></g><path d="m12,2c-2.24,0-4.37.74-6.1,2.09-.2.15-.39.32-.57.49-.09.08-.19.17-.28.25-.28.27-.53.55-.78.85l14.05,14.06c.3-.24.58-.5.84-.77.1-.1.19-.21.29-.32.15-.17.29-.33.43-.51,1.37-1.75,2.12-3.88,2.12-6.13,0-5.51-4.49-10-10-10Zm6.32,14.9L7.1,5.68c1.39-1.09,3.1-1.68,4.9-1.68,4.41,0,8,3.59,8,8,0,1.8-.59,3.5-1.68,4.9Z"/></svg>