<svg xmlns="http://www.w3.org/2000/svg" width="24" height="24" viewBox="0 0 24 24"><g opacity="0.4"><path d="m5.72,2h-3.72v2h2.28l4,12h10.41l3.75-10H7.05l-1.33-4Zm4.95,7.59l1.41-1.41,1.41,1.41,1.41-1.41,1.41,1.41-1.41,1.41,1.41,1.41-1.41,1.41-1.41-1.41-1.41,1.41-1.41-1.41,1.41-1.41-1.41-1.41Z"/></g><path d="M10 18A2 2 0 1 0 10 22 2 2 0 1 0 10 18z"/><path d="M17 18A2 2 0 1 0 17 22 2 2 0 1 0 17 18z"/><path d="M12.09 13.83 13.5 12.41 14.91 13.83 16.33 12.41 14.91 11 16.33 9.59 14.91 8.17 13.5 9.59 12.09 8.17 10.67 9.59 12.09 11 10.67 12.41 12.09 13.83z"/></svg>