<svg xmlns="http://www.w3.org/2000/svg" width="24" height="24" viewBox="0 0 24 24"><g opacity="0.4"><path d="m12,2C6.49,2,2,6.49,2,12s4.49,10,10,10,10-4.49,10-10S17.51,2,12,2Zm0,18c-4.41,0-8-3.59-8-8S7.59,4,12,4s8,3.59,8,8-3.59,8-8,8Z"/></g><path d="m7,13v-2h-2.93c-.04.33-.07.66-.07,1s.03.67.07,1h2.93Z"/><path d="m20,12c0-.34-.03-.67-.07-1h-2.93v2h2.93c.04-.33.07-.66.07-1Z"/><path d="m13,19.93v-2.93h-2v2.93c.33.04.66.07,1,.07s.67-.03,1-.07Z"/><path d="m13,4.07c-.33-.04-.66-.07-1-.07s-.67.03-1,.07v2.93h2v-2.93Z"/></svg>