<svg xmlns="http://www.w3.org/2000/svg" width="24" height="24" viewBox="0 0 24 24"><g opacity="0.4"><path d="m17.11,3.42l-.73.73-.53-.53.57-.57c-1.34-.66-2.83-1.05-4.42-1.05C6.49,2,2,6.49,2,12c0,1.59.38,3.09,1.05,4.42l.57-.57.53.53-.73.73c.3.5.63.97,1.01,1.4l14.08-14.08c-.44-.38-.91-.71-1.4-1.01ZM5.2,15.33l-.53-.53,1.75-1.75.53.53-1.75,1.75Zm2.8-2.8l-.53-.53,1.75-1.75.53.53-1.75,1.75Zm2.8-2.8l-.53-.53,1.75-1.75.53.53-1.75,1.75Zm2.8-2.8l-.53-.53,1.75-1.75.53.53-1.75,1.75Z"/><path d="m20.38,8.15l-.53-.53.73-.73c-.3-.5-.63-.97-1.01-1.4l-14.08,14.08c.44.38.91.71,1.4,1.01l.73-.73.53.53-.57.57c1.34.66,2.83,1.05,4.42,1.05,5.51,0,10-4.49,10-10,0-1.59-.38-3.09-1.05-4.42l-.57.57Zm-11.18,11.18l-.53-.53,1.75-1.75.53.53-1.75,1.75Zm2.8-2.8l-.53-.53,1.75-1.75.53.53-1.75,1.75Zm2.8-2.8l-.53-.53,1.75-1.75.53.53-1.75,1.75Zm2.8-2.8l-.53-.53,1.75-1.75.53.53-1.75,1.75Z"/></g><path class="st0" d="M17.1,3.4c-0.2-0.1-0.5-0.3-0.7-0.4l-0.6,0.6l0.5,0.5L17.1,3.4L17.1,3.4z"/><path class="st0" d="M13.1 6.4 13.9 5.5 14.8 4.7 15.1 4.9 15.3 5.2 14.5 6.1 13.6 6.9 13.3 6.7z"/><path class="st0" d="M17.1 10.4 17.9 9.5 18.8 8.7 19.1 8.9 19.3 9.2 18.5 10.1 17.6 10.9 17.3 10.7z"/><path class="st0" d="M21,7.6c-0.1-0.2-0.3-0.4-0.4-0.7l-0.7,0.7l0.5,0.5L21,7.6L21,7.6z"/><path class="st0" d="M14.3 13.2 15.1 12.3 16 11.5 16.3 11.7 16.5 12 15.7 12.9 14.8 13.7 14.5 13.5z"/><path class="st0" d="M10.3 9.2 11.1 8.3 12 7.5 12.3 7.7 12.5 8 11.7 8.9 10.8 9.7 10.5 9.5z"/><path class="st0" d="M8.7 18.8 9.5 17.9 10.4 17.1 10.7 17.3 10.9 17.6 10.1 18.5 9.2 19.3 8.9 19.1z"/><path class="st0" d="M7.6,21l0.6-0.6l-0.5-0.5l-0.7,0.7C7.1,20.7,7.3,20.8,7.6,21z"/><path class="st0" d="M19.6,5.5c-0.2-0.2-0.3-0.4-0.5-0.6s-0.4-0.4-0.5-0.5l-7,7l-7,7c0.2,0.2,0.3,0.4,0.5,0.6
	c0.2,0.2,0.4,0.4,0.5,0.5c0,0,3.5-3.5,7-7S19.6,5.5,19.6,5.5z"/><path class="st0" d="M4.7 14.8 5.5 13.9 6.4 13.1 6.7 13.3 6.9 13.6 6.1 14.5 5.2 15.3 4.9 15.1z"/><path class="st0" d="M4.2,16.4l-0.5-0.5l-0.6,0.6c0.1,0.2,0.2,0.5,0.4,0.7C3.4,17.1,4.2,16.4,4.2,16.4z"/><path class="st0" d="M11.5 16 12.3 15.1 13.2 14.3 13.5 14.5 13.7 14.8 12.9 15.7 12 16.5 11.7 16.3z"/><path class="st0" d="M7.5 12 8.3 11.1 9.2 10.3 9.5 10.5 9.7 10.8 8.9 11.7 8 12.5 7.7 12.3z"/></svg>