<svg xmlns="http://www.w3.org/2000/svg" width="24" height="24" viewBox="0 0 24 24"><g opacity="0.4"><path d="m8.52,10.96c-1.52-1.25-3.32-2.18-5.28-2.67l-1.62-.41.41,1.63c.59,2.36,1.81,4.51,3.51,6.21.19.19.4.38.6.56.99-.28,2.02-.34,3.03-.17h.17l.24.13c.09.05.19.09.29.14-.32-.67-.59-1.36-.79-2.06-.34-1.11-.51-2.23-.56-3.35Z"/><path d="m15.48,10.95c-.04,1.14-.23,2.27-.57,3.38-.2.69-.47,1.38-.79,2.05.1-.05.2-.09.29-.14l.23-.13h.18c1.01-.18,2.04-.12,3.03.17.2-.18.41-.36.6-.56,1.71-1.71,2.92-3.85,3.51-6.21l.41-1.63-1.62.41c-1.95.5-3.75,1.42-5.27,2.67Z"/></g><path d="m20.63,19.28l.97-.78-.97-.78c-1.74-1.4-3.8-1.97-5.8-1.62h-.18l-.23.13c-.09.05-.2.09-.29.14.32-.67.59-1.35.79-2.05.39-1.25.58-2.54.58-3.83,0-2.82-.93-5.61-2.69-8.08l-.81-1.14-.81,1.14c-2.59,3.63-3.34,7.86-2.11,11.89.21.71.47,1.4.79,2.06-.1-.05-.2-.09-.29-.14l-.24-.13h-.17c-2-.35-4.05.22-5.8,1.62l-.97.78.97.78c1.4,1.13,3,1.72,4.63,1.72,1.03,0,2.04-.26,3-.72v1.72h2v-1.72c.96.46,1.97.72,3,.72,1.63,0,3.23-.6,4.63-1.72Z"/></svg>