<svg xmlns="http://www.w3.org/2000/svg" width="24" height="24" viewBox="0 0 24 24"><g opacity="0.4"><path d="m20.74,10.87c-.29.07-.52.11-.74.11-1.65,0-3-1.35-3-2.95l.07-1.52-1.31.35c-.29.08-.53.11-.76.11-1.65,0-3-1.35-3-3.01,0-.22.03-.45.1-.72l.34-1.37-1.41.14C5.88,2.5,2,6.79,2,11.98c0,5.53,4.49,10.02,10,10.02s10-4.5,10-10.02l-.03-1.42-1.22.32Zm-11.74-2.87c.55,0,1,.45,1,1s-.45,1-1,1-1-.45-1-1,.45-1,1-1Zm-1.5,6c-.83,0-1.5-.67-1.5-1.5s.67-1.5,1.5-1.5,1.5.67,1.5,1.5-.67,1.5-1.5,1.5Zm3,4c-.83,0-1.5-.67-1.5-1.5s.67-1.5,1.5-1.5,1.5.67,1.5,1.5-.67,1.5-1.5,1.5Zm2-5c-.83,0-1.5-.67-1.5-1.5s.67-1.5,1.5-1.5,1.5.67,1.5,1.5-.67,1.5-1.5,1.5Zm2.5,3c-.55,0-1-.45-1-1s.45-1,1-1,1,.45,1,1-.45,1-1,1Z"/></g><path d="M15.5 2A1.5 1.5 0 1 0 15.5 5 1.5 1.5 0 1 0 15.5 2z"/><path d="M21 5A1 1 0 1 0 21 7 1 1 0 1 0 21 5z"/><path d="M10.5 15A1.5 1.5 0 1 0 10.5 18 1.5 1.5 0 1 0 10.5 15z"/><path d="M12.5 10A1.5 1.5 0 1 0 12.5 13 1.5 1.5 0 1 0 12.5 10z"/><path d="M15 14A1 1 0 1 0 15 16 1 1 0 1 0 15 14z"/><path d="M9 8A1 1 0 1 0 9 10 1 1 0 1 0 9 8z"/><path d="M7.5 11A1.5 1.5 0 1 0 7.5 14 1.5 1.5 0 1 0 7.5 11z"/></svg>