<svg xmlns="http://www.w3.org/2000/svg" width="24" height="24" viewBox="0 0 24 24"><g opacity="0.4"><path d="m8.27,9.49l-4.27-2.67-1,.63v1.11l4.56,2.85c.09-.7.33-1.36.71-1.92Z"/><path d="m13,21.55v-5.18c-.32.07-.66.12-1,.12s-.68-.05-1-.12v5.18l1,.62,1-.62Z"/><path d="m15.73,9.49c.38.56.61,1.22.71,1.92l4.56-2.85v-1.11l-1-.63-4.27,2.67Z"/></g><path d="m16.5,12c0,2.14-1.5,3.92-3.5,4.38v5.18l8-5v-8l-4.56,2.85c.03.2.06.39.06.6Z"/><path d="m15.73,9.49l4.27-2.67L12,1.82l-8,5,4.27,2.67c.81-1.2,2.18-1.99,3.73-1.99s2.92.79,3.73,1.99Z"/><path d="m7.5,12c0-.2.03-.4.06-.6l-4.56-2.85v8l8,5v-5.18c-2-.46-3.5-2.24-3.5-4.38Z"/></svg>