<svg xmlns="http://www.w3.org/2000/svg" width="24" height="24" viewBox="0 0 24 24"><g opacity="0.4"><path d="M11.5 13A1.5 1.5 0 1 0 11.5 16 1.5 1.5 0 1 0 11.5 13z"/><path d="m3,22h18v-14H3v14Zm8.5-11c1.93,0,3.5,1.57,3.5,3.5,0,.6-.17,1.16-.43,1.65l1.64,1.64-1.41,1.41-1.64-1.64c-.49.27-1.05.43-1.65.43-1.93,0-3.5-1.57-3.5-3.5s1.57-3.5,3.5-3.5Z"/></g><path d="M17 2 15 2 15 4 9 4 9 2 7 2 7 4 3 4 3 8 21 8 21 4 17 4 17 2z"/><path d="m11.5,11c-1.93,0-3.5,1.57-3.5,3.5s1.57,3.5,3.5,3.5c.6,0,1.16-.17,1.65-.43l1.64,1.64,1.41-1.41-1.64-1.64c.27-.49.43-1.05.43-1.65,0-1.93-1.57-3.5-3.5-3.5Zm0,5c-.83,0-1.5-.67-1.5-1.5s.67-1.5,1.5-1.5,1.5.67,1.5,1.5-.67,1.5-1.5,1.5Z"/></svg>