<svg xmlns="http://www.w3.org/2000/svg" width="24" height="24" viewBox="0 0 24 24"><g opacity="0.4"><path d="M5.5 6A2.5 2.5 0 1 0 5.5 11 2.5 2.5 0 1 0 5.5 6z"/><path d="M18.5 6A2.5 2.5 0 1 0 18.5 11 2.5 2.5 0 1 0 18.5 6z"/><path d="m8.14,12.91c-.54-.56-1.3-.91-2.14-.91h-1c-1.66,0-3,1.34-3,3v2h4c0-1.69.85-3.19,2.14-4.09Z"/><path d="m19,12h-1c-.84,0-1.6.35-2.14.91,1.29.9,2.14,2.4,2.14,4.09h4v-2c0-1.66-1.34-3-3-3Z"/></g><path d="M12 5A3 3 0 1 0 12 11 3 3 0 1 0 12 5z"/><path d="m6,17v2h12v-2c0-2.76-2.24-5-5-5h-2c-2.76,0-5,2.24-5,5Z"/></svg>