<svg xmlns="http://www.w3.org/2000/svg" width="24" height="24" viewBox="0 0 24 24"><g opacity="0.4"><path d="m17.61,5.19c-.77-.77-1.79-1.19-2.88-1.19-2.05,0-3.94,1.03-5.05,2.76l-6.76,10.51c-.7,1.08-.54,2.53.37,3.44.53.53,1.24.8,1.95.8.51,0,1.03-.14,1.48-.43l5.13-3.3-2.57-2.57,1.41-1.41,2.88,2.88,1.93-1.24-3.72-3.72,1.41-1.41,4.03,4.03h0c1.72-1.11,2.75-3,2.75-5.05,0-1.07-.43-2.12-1.19-2.88l-1.2-1.2Z"/></g><path d="M13.58 16.67 10.71 13.79 9.29 15.21 11.86 17.78 13.58 16.67z"/><path d="M17.24 14.32 13.21 10.29 11.79 11.71 15.52 15.43 17.24 14.32z"/><path d="m21.71,3.71l-1.41-1.41-2.29,2.29v-2.59h-2v2.22c.6.2,1.15.51,1.61.97l1.2,1.2c.45.45.77,1.01.97,1.6h2.22v-2h-2.59l2.29-2.29Z"/></svg>