<svg xmlns="http://www.w3.org/2000/svg" width="24" height="24" viewBox="0 0 24 24"><g opacity="0.4"><path d="M6.91 12 1.29 22 13.71 22 8.09 12 6.91 12z"/><path d="m17.86,2.5l-1.74.02s-1.41,2.49-4.13,2.49v2c1.72,0,3.04-.66,4-1.41v1.12c-.4.58-1.74,2.29-4,2.29v2c1.72,0,3.04-.66,4-1.41v2.41h1.08l.92,1.63v-4.06c.97.76,2.3,1.44,4,1.44v-2c-2.18,0-3.58-1.71-4-2.3v-1.14c.97.76,2.3,1.44,4,1.44v-2c-2.62,0-4.12-2.48-4.14-2.5Z"/></g><path d="M5.5 2A3.5 3.5 0 1 0 5.5 9 3.5 3.5 0 1 0 5.5 2z"/><path d="M8.09 12 13.71 22 22.71 22 17.08 12 8.09 12z"/></svg>