<svg xmlns="http://www.w3.org/2000/svg" width="24" height="24" viewBox="0 0 24 24"><g opacity="0.4"><path d="M12 11A2 2 0 1 0 12 15 2 2 0 1 0 12 11z"/><path d="m14.41,3h-4.83l-2.59,2H2v16h20V5h-5l-2.59-2Zm-2.41,14c-2.17,0-4-1.83-4-4s1.83-4,4-4,4,1.83,4,4-1.83,4-4,4Zm7-10c.55,0,1,.45,1,1s-.45,1-1,1-1-.45-1-1,.45-1,1-1Z"/></g><path d="m12,17c2.17,0,4-1.83,4-4s-1.83-4-4-4-4,1.83-4,4,1.83,4,4,4Zm0-6c1.07,0,2,.93,2,2s-.93,2-2,2-2-.93-2-2,.93-2,2-2Z"/><path d="M19 7A1 1 0 1 0 19 9 1 1 0 1 0 19 7z"/></svg>