<svg xmlns="http://www.w3.org/2000/svg" width="24" height="24" viewBox="0 0 24 24"><g opacity="0.4"><path d="m19.75,14.33l.15-1.27c-.82.58-1.81.94-2.89.94-2.41,0-4.43-1.72-4.9-4h-2.02c.49,3.39,3.4,6,6.92,6,.93,0,1.81-.18,2.62-.51l.13-1.16Z"/><path d="M15 7A1 1 0 1 0 15 9 1 1 0 1 0 15 7z"/><path d="M19 7A1 1 0 1 0 19 9 1 1 0 1 0 19 7z"/></g><path d="m21.99,4v-2s0,0-1.99,2h-6l-2-2v2s0,0,0,0v5c0,2.76,2.24,5,5,5s5-2.24,5-5v-5h-.01Zm-6.99,5c-.55,0-1-.45-1-1s.45-1,1-1,1,.45,1,1-.45,1-1,1Zm4,0c-.55,0-1-.45-1-1s.45-1,1-1,1,.45,1,1-.45,1-1,1Z"/><g><path d="m10.08,10h-4.58c-.83,0-1.5-.67-1.5-1.5s.67-1.5,1.5-1.5c1.56,0,4.5-.84,4.5-4v-1h-2v1c0,1.88-2.09,2-2.5,2-1.93,0-3.5,1.57-3.5,3.5,0,1.42.85,2.63,2.06,3.18l1.03,10.32h4.91v-4h4v4h4.9l.72-6.51c-.81.33-1.69.51-2.62.51-3.52,0-6.43-2.61-6.92-6Z"/></g></svg>