<svg xmlns="http://www.w3.org/2000/svg" width="24" height="24" viewBox="0 0 24 24"><g opacity="0.4"><path d="m7,17c-.29.49-.46,1.06-.46,1.67,0,1.84,1.47,3.33,3.27,3.33.84,0,1.6-.33,2.18-.87.58.53,1.34.87,2.18.87,1.81,0,3.27-1.49,3.27-3.33,0-.61-.17-1.18-.46-1.67-.15-.09-.29-.18-.42-.28l-4.58-4.71-4.58,4.71c-.13.1-.27.2-.42.28Z"/><path d="m17,7c.29-.49.46-1.06.46-1.67,0-1.84-1.47-3.33-3.27-3.33-.84,0-1.6.33-2.18.86-.58-.53-1.34-.86-2.18-.86-1.81,0-3.27,1.49-3.27,3.33,0,.61.17,1.18.46,1.67.15.09.29.18.42.28l4.58,4.71,4.58-4.71c.13-.1.27-.2.42-.28Z"/></g><path d="m18.67,6.55c-.8,0-1.52.28-2.09.74l-4.58,4.71,4.58,4.71c.57.46,1.29.74,2.09.74,1.84,0,3.33-1.47,3.33-3.27,0-.84-.33-1.6-.87-2.18.53-.58.87-1.34.87-2.18,0-1.81-1.49-3.27-3.33-3.27Z"/><path d="m5.33,6.55c-1.84,0-3.33,1.47-3.33,3.27,0,.84.33,1.6.87,2.18-.53.58-.87,1.34-.87,2.18,0,1.81,1.49,3.27,3.33,3.27.8,0,1.52-.28,2.09-.74l4.58-4.71-4.58-4.71c-.57-.46-1.29-.74-2.09-.74Z"/></svg>