<svg xmlns="http://www.w3.org/2000/svg" width="24" height="24" viewBox="0 0 24 24"><g opacity="0.4"><path d="m13,6h2v-2h-2v-2h-2v2h-2v2h2v2.43l-5,3v10.57h4v-4c0-1.1.9-2,2-2s2,.9,2,2v4h4v-10.57l-5-3v-2.43Zm.5,6.5c0,.83-.67,1.5-1.5,1.5s-1.5-.67-1.5-1.5.67-1.5,1.5-1.5,1.5.67,1.5,1.5Z"/></g><path d="M6 12.88 2 14.38 2 22 6 22 6 12.88z"/><path d="M18 22 22 22 22 14.38 18 12.88 18 22z"/><path d="M12 11A1.5 1.5 0 1 0 12 14 1.5 1.5 0 1 0 12 11z"/><path d="m14,18c0-1.1-.9-2-2-2s-2,.9-2,2v4h4v-4Z"/></svg>