<svg xmlns="http://www.w3.org/2000/svg" width="24" height="24" viewBox="0 0 24 24"><g opacity="0.4"><path d="m6,10c0,.85.14,1.67.39,2.45,2.3.84,5.04.72,7.17-.34,1.33-.66,2.86-1.02,4.41-1.09l.04-.02.08.02c1.28-.04,2.56.14,3.77.52.1-.5.15-1.01.15-1.53v-3H6v3Z"/></g><path d="m21.85,11.53c-1.2-.38-2.49-.55-3.77-.52l-.08-.02-.04.02c-1.55.06-3.07.43-4.41,1.09-2.13,1.06-4.87,1.19-7.17.34.94,2.91,3.5,5.08,6.61,5.47v2.08h-3v2h8v-2h-3v-2.07c3.43-.43,6.19-3.04,6.85-6.4Z"/><path d="M15.43 7 17.77 7 19.32 4.41 21.45 5.83 22.55 4.17 18.68 1.59 15.43 7z"/><path d="m6,10v-3h4.95c-.11-1.01-.54-1.95-1.27-2.68-.85-.85-1.98-1.32-3.18-1.32s-2.33.47-3.18,1.32c-.85.85-1.32,1.98-1.32,3.18s.47,2.33,1.32,3.18c.79.79,1.83,1.23,2.94,1.29-.16-.63-.26-1.29-.26-1.98Z"/></svg>