<svg xmlns="http://www.w3.org/2000/svg" width="24" height="24" viewBox="0 0 24 24"><g opacity="0.4"><path d="m11.5,2C6.83,2,2.01,5.24,2.01,10.67c0,2.72,1.03,5.05,2.99,6.79v4.54h10v-2h4v-5h2.84l-1.84-5.15c-.08-4.56-3.63-7.85-8.5-7.85Zm-.5,14c-1.34,0-2.59-.52-3.54-1.46-.94-.94-1.46-2.2-1.46-3.54s.52-2.59,1.46-3.54c.94-.94,2.2-1.46,3.54-1.46,1.65,0,3,1.35,3,3s-1.35,3-3,3h-1v-2h1c.55,0,1-.45,1-1s-.45-1-1-1c-.8,0-1.55.31-2.12.88s-.88,1.32-.88,2.12.31,1.56.88,2.12c1.13,1.13,3.11,1.13,4.24,0l1.41,1.41c-.94.94-2.2,1.46-3.54,1.46Z"/></g><path d="m11,16c1.34,0,2.59-.52,3.54-1.46l-1.41-1.41c-1.13,1.13-3.11,1.13-4.24,0-.57-.57-.88-1.32-.88-2.12s.31-1.56.88-2.12,1.32-.88,2.12-.88c.55,0,1,.45,1,1s-.45,1-1,1h-1v2h1c1.65,0,3-1.35,3-3s-1.35-3-3-3c-1.34,0-2.59.52-3.54,1.46-.94.94-1.46,2.2-1.46,3.54s.52,2.59,1.46,3.54c.94.94,2.2,1.46,3.54,1.46Z"/></svg>