<svg xmlns="http://www.w3.org/2000/svg" width="24" height="24" viewBox="0 0 24 24"><g opacity="0.4"><path d="m3,22h18V2H3v20ZM18,4c.55,0,1,.45,1,1s-.45,1-1,1-1-.45-1-1,.45-1,1-1Zm-3,0c.55,0,1,.45,1,1s-.45,1-1,1-1-.45-1-1,.45-1,1-1Zm-3,4c2.76,0,5,2.24,5,5s-2.24,5-5,5-5-2.24-5-5,2.24-5,5-5Z"/></g><path d="m10.18,14.62c-.33.27-.78.65-.78,1.38h1c0-.24.11-.36.42-.62.33-.27.78-.65.78-1.38s-.45-1.11-.78-1.38c-.31-.26-.42-.37-.42-.62s.11-.36.42-.61c.33-.27.78-.65.78-1.38h-1c0,.24-.11.36-.42.61-.33.27-.78.65-.78,1.38s.45,1.11.78,1.38c.31.26.42.37.42.62s-.11.36-.42.62Z"/><path d="m13.18,14.62c-.33.27-.78.65-.78,1.38h1c0-.24.11-.36.42-.62.33-.27.78-.65.78-1.38s-.45-1.11-.78-1.38c-.31-.26-.42-.37-.42-.62s.11-.36.42-.61c.33-.27.78-.65.78-1.38h-1c0,.24-.11.36-.42.61-.33.27-.78.65-.78,1.38s.45,1.11.78,1.38c.31.26.42.37.42.62s-.11.36-.42.62Z"/><path d="M18 4A1 1 0 1 0 18 6 1 1 0 1 0 18 4z"/><path d="M15 4A1 1 0 1 0 15 6 1 1 0 1 0 15 4z"/></svg>