<svg xmlns="http://www.w3.org/2000/svg" width="24" height="24" viewBox="0 0 24 24"><g opacity="0.4"><path d="m6,8.5c0,2.71,2.67,4.11,5,4.43v-2.03c-1.37-.25-3-1-3-2.4s1.67-2.16,3-2.4v-2.03c-2.25.3-5,1.59-5,4.43Z"/><path d="m13,11.07v2.03c1.33.24,3,.94,3,2.4s-1.67,2.16-3,2.4v2.03c2.25-.3,5-1.59,5-4.43s-2.75-4.13-5-4.43Z"/><path d="m13,4.07v2.03c1.33.24,3,.94,3,2.4h2c0-2.84-2.75-4.13-5-4.43Z"/><path d="m8,15.5h-2c0,2.59,2.43,4.12,5,4.44v-2.03c-1.45-.25-3-1.02-3-2.4Z"/></g><path d="M11 2H13V22H11z"/></svg>