<svg xmlns="http://www.w3.org/2000/svg" width="24" height="24" viewBox="0 0 24 24"><g opacity="0.4"><path d="M2.09 12.1 6.99 17.01 11.9 21.91 13.51 20.31 15.11 18.7 10.21 13.79 5.3 8.89 3.69 10.49 2.09 12.1z"/><path d="M8.89 5.3 13.79 10.21 18.7 15.11 20.31 13.51 21.91 11.9 17.01 6.99 12.1 2.09 10.49 3.69 8.89 5.3z"/></g><path d="M20.11 10.1 21.26 8.95 22.41 7.8 19.31 4.69 16.2 1.59 15.05 2.74 13.9 3.89 17.01 6.99 20.11 10.1z"/><path d="M13.09 9.5 11.29 11.29 9.5 13.09 10.21 13.79 10.91 14.5 12.71 12.71 14.5 10.91 13.79 10.21 13.09 9.5z"/><path d="M3.89 13.9 2.74 15.05 1.59 16.2 4.69 19.31 7.8 22.41 8.95 21.26 10.1 20.11 6.99 17.01 3.89 13.9z"/></svg>