<svg xmlns="http://www.w3.org/2000/svg" width="24" height="24" viewBox="0 0 24 24"><g opacity="0.4"><path d="m18.15,12.68l-4.15,3.32h-5v-1h4.07c.4,0,.64-.45.42-.78l-1.18-1.78c-.19-.28-.5-.45-.83-.45H2v8h11.76c.8,0,1.56-.32,2.12-.88l6.12-6.12-1.97-.66c-.64-.21-1.35-.09-1.88.34Z"/></g><path d="m14.5,11l3.84-4.1c.41-.41.66-.98.66-1.62s-.25-1.2-.66-1.62c-.41-.41-.97-.67-1.59-.67,0,0-1.12,0-2.25,1.14-1.13-1.15-2.25-1.14-2.25-1.14-.62,0-1.18.26-1.59.67-.41.41-.66.99-.66,1.62s.25,1.2.66,1.62l3.84,4.1Z"/></svg>