<svg xmlns="http://www.w3.org/2000/svg" width="24" height="24" viewBox="0 0 24 24"><g opacity="0.4"><path d="M18 7.59 15.79 9.79 13.59 12 15.79 14.21 18 16.41 20.21 14.21 22.41 12 20.21 9.79 18 7.59z"/><path d="M10.41 12 8.21 9.79 6 7.59 3.79 9.79 1.59 12 3.79 14.21 6 16.41 8.21 14.21 10.41 12z"/></g><path d="M12 1.59 9.79 3.79 7.59 6 9.79 8.21 12 10.41 14.21 8.21 16.41 6 14.21 3.79 12 1.59z"/><path d="M12 13.59 9.79 15.79 7.59 18 9.79 20.21 12 22.41 14.21 20.21 16.41 18 14.21 15.79 12 13.59z"/></svg>