<svg xmlns="http://www.w3.org/2000/svg" width="24" height="24" viewBox="0 0 24 24"><g opacity="0.4"><path d="m2.05,11h8.95V2.05C6.28,2.52,2.52,6.28,2.05,11Z"/><path d="m13,2.05v8.95h8.95c-.47-4.72-4.23-8.48-8.95-8.95Z"/><path d="m11,21.95v-8.95H2.05c.47,4.72,4.23,8.48,8.95,8.95Z"/><path d="m13,21.95c4.72-.47,8.48-4.23,8.95-8.95h-8.95v8.95Z"/></g><path d="m13,11V2.05c-.33-.03-.66-.05-1-.05s-.67.02-1,.05v8.95H2.05c-.03.33-.05.66-.05,1s.02.67.05,1h8.95v8.95c.33.03.66.05,1,.05s.67-.02,1-.05v-8.95h8.95c.03-.33.05-.66.05-1s-.02-.67-.05-1h-8.95Z"/></svg>