<svg xmlns="http://www.w3.org/2000/svg" width="24" height="24" viewBox="0 0 24 24"><g opacity="0.4"><path d="m7.5,12c0-.34.03-.67.07-1h-2.02c-.03.33-.06.66-.06,1s.02.67.06,1h2.02c-.04-.33-.07-.66-.07-1Z"/><path d="m8.01,5.65c-.91.96-1.59,2.1-2.01,3.35h2.14c.32-.72.76-1.39,1.31-1.97,1.25-1.31,2.9-2.03,4.66-2.03s3.41.72,4.66,2.03l1.45-1.38c-1.63-1.71-3.8-2.65-6.11-2.65s-4.48.94-6.11,2.65Z"/><path d="m14.12,19c-1.76,0-3.41-.72-4.66-2.03-.55-.58-.99-1.25-1.31-1.97h-2.14c.42,1.24,1.09,2.39,2.01,3.35,1.63,1.71,3.8,2.65,6.11,2.65s4.48-.94,6.11-2.65l-1.45-1.38c-1.25,1.31-2.9,2.03-4.66,2.03Z"/></g><path d="M3.5 9H12.5V11H3.5z"/><path d="M3.5 13H12.5V15H3.5z"/></svg>