<svg xmlns="http://www.w3.org/2000/svg" width="24" height="24" viewBox="0 0 24 24"><g opacity="0.4"><path d="m12,5c-7.63,0-9.93,6.62-9.95,6.68l-.11.32.11.32c.02.07,2.32,6.68,9.95,6.68s9.93-6.62,9.95-6.68l.11-.32-.11-.32c-.02-.07-2.32-6.68-9.95-6.68Zm0,10c-1.64,0-3-1.36-3-3s1.36-3,3-3c.09,0,.17.02.26.03-.16.29-.26.62-.26.97,0,1.1.9,2,2,2,.36,0,.68-.1.97-.26,0,.09.03.17.03.26,0,1.64-1.36,3-3,3Z"/></g><path d="m12,15c1.64,0,3-1.36,3-3,0-.09-.02-.17-.03-.26-.29.16-.62.26-.97.26-1.1,0-2-.9-2-2,0-.36.1-.68.26-.97-.09,0-.17-.03-.26-.03-1.64,0-3,1.36-3,3s1.36,3,3,3Z"/></svg>