<svg xmlns="http://www.w3.org/2000/svg" width="24" height="24" viewBox="0 0 24 24"><g opacity="0.4"><path d="M11.5 10A1.5 1.5 0 1 0 11.5 13 1.5 1.5 0 1 0 11.5 10z"/><path d="m9.41,2H2v18h20V4h-10.59l-2-2Zm5.59,9.5c0,.47-.1.91-.26,1.32l1.97,1.97-1.41,1.41-1.82-1.82c-.56.39-1.24.61-1.97.61-1.93,0-3.5-1.57-3.5-3.5s1.57-3.5,3.5-3.5,3.5,1.57,3.5,3.5Z"/></g><path d="m11.5,15c.73,0,1.41-.23,1.97-.61l1.82,1.82,1.41-1.41-1.97-1.97c.17-.41.26-.85.26-1.32,0-1.93-1.57-3.5-3.5-3.5s-3.5,1.57-3.5,3.5,1.57,3.5,3.5,3.5Zm0-5c.83,0,1.5.67,1.5,1.5s-.67,1.5-1.5,1.5-1.5-.67-1.5-1.5.67-1.5,1.5-1.5Z"/></svg>