<svg xmlns="http://www.w3.org/2000/svg" width="24" height="24" viewBox="0 0 24 24"><g opacity="0.4"><path d="m10.45,15c0,.84.71,1.55,1.55,1.55s1.55-.71,1.55-1.55-.71-1.55-1.55-1.55-1.55.71-1.55,1.55Z"/><path d="m13,2H4v20h16v-13h-7V2Zm.06,9v1.03c.35.13.68.32.97.57l.9-.52,1.06,1.84-.89.51c.04.19.05.38.05.57s-.02.38-.05.57l.89.51-1.06,1.84-.9-.52c-.29.25-.62.44-.97.57v1.03h-2.12v-1.03c-.35-.13-.68-.32-.97-.57l-.9.52-1.06-1.84.89-.51c-.04-.19-.05-.38-.05-.57s.02-.38.05-.57l-.89-.51,1.06-1.84.9.52c.29-.25.62-.44.97-.57v-1.03h2.12Z"/></g><path d="M13 2 13 9 20 9 20 7.59 14.41 2 13 2z"/><path d="m8.84,15c0,.19.02.38.05.57l-.89.51,1.06,1.84.9-.52c.29.25.62.44.97.57v1.03h2.12v-1.03c.35-.13.68-.32.97-.57l.9.52,1.06-1.84-.89-.51c.04-.19.05-.38.05-.57s-.02-.38-.05-.57l.89-.51-1.06-1.84-.9.52c-.29-.25-.62-.44-.97-.57v-1.03h-2.12v1.03c-.35.13-.68.32-.97.57l-.9-.52-1.06,1.84.89.51c-.04.19-.05.38-.05.57Zm3.16-1.55c.84,0,1.55.71,1.55,1.55s-.71,1.55-1.55,1.55-1.55-.71-1.55-1.55.71-1.55,1.55-1.55Z"/></svg>