<svg xmlns="http://www.w3.org/2000/svg" width="24" height="24" viewBox="0 0 24 24"><g opacity="0.4"><path d="M11.5 13A1.5 1.5 0 1 0 11.5 16 1.5 1.5 0 1 0 11.5 13z"/><path d="m13,2H4v20h16v-13h-7V2Zm2,12.5c0,.6-.17,1.16-.43,1.65l2.14,2.14-1.41,1.41-2.14-2.14c-.49.27-1.05.43-1.65.43-1.93,0-3.5-1.57-3.5-3.5s1.57-3.5,3.5-3.5,3.5,1.57,3.5,3.5Z"/></g><path d="M13 2 13 9 20 9 20 7.59 14.41 2 13 2z"/><path d="m11.5,18c.6,0,1.16-.17,1.65-.43l2.14,2.14,1.41-1.41-2.14-2.14c.27-.49.43-1.05.43-1.65,0-1.93-1.57-3.5-3.5-3.5s-3.5,1.57-3.5,3.5,1.57,3.5,3.5,3.5Zm0-5c.83,0,1.5.67,1.5,1.5s-.67,1.5-1.5,1.5-1.5-.67-1.5-1.5.67-1.5,1.5-1.5Z"/></svg>