<svg xmlns="http://www.w3.org/2000/svg" width="24" height="24" viewBox="0 0 24 24"><g opacity="0.4"><path d="m19.07,4.93c-.45-.45-.95-.86-1.48-1.22-.54-.36-1.11-.67-1.7-.92-.6-.26-1.24-.45-1.88-.58-1.32-.27-2.71-.27-4.03,0-.64.13-1.27.33-1.88.58-.59.25-1.16.56-1.7.92-.53.36-1.03.77-1.48,1.22-.45.45-.86.95-1.22,1.48-.36.54-.67,1.11-.92,1.7-.26.6-.45,1.24-.58,1.88-.13.66-.2,1.33-.2,2.01s.07,1.36.2,2.01c.13.64.33,1.27.58,1.88.25.59.56,1.16.92,1.7.36.53.77,1.03,1.22,1.48.45.45.95.86,1.48,1.22.54.36,1.11.67,1.7.92.6.26,1.24.45,1.88.58.66.13,1.34.2,2.01.2s1.35-.07,2.01-.2c.64-.13,1.27-.33,1.88-.58.59-.25,1.16-.56,1.7-.92.53-.36,1.03-.77,1.48-1.22.45-.45.86-.95,1.22-1.48.36-.54.67-1.11.92-1.7.26-.6.45-1.24.58-1.88.13-.66.2-1.33.2-2.01h-2c0,.55-.05,1.09-.16,1.61-.11.51-.26,1.02-.47,1.5-.2.47-.45.93-.74,1.36-.29.42-.61.82-.98,1.18s-.76.69-1.18.98c-.43.29-.89.54-1.36.74-.48.2-.99.36-1.5.47-1.05.22-2.17.22-3.23,0-.51-.11-1.02-.26-1.5-.47-.47-.2-.93-.45-1.36-.74-.42-.29-.82-.62-1.18-.98s-.69-.76-.98-1.18c-.29-.43-.54-.89-.74-1.36-.2-.48-.36-.99-.47-1.5-.11-.53-.16-1.07-.16-1.61s.05-1.09.16-1.61c.11-.51.26-1.02.47-1.5.2-.47.45-.93.74-1.36.29-.42.62-.82.98-1.18s.76-.69,1.18-.98c.43-.29.89-.54,1.36-.74.48-.2.99-.36,1.5-.47,1.05-.22,2.17-.22,3.23,0,.51.11,1.02.26,1.5.47.47.2.93.45,1.36.74.42.29.82.62,1.18.98.17.17.32.34.48.52l-2.13,2.13h6V3l-2.45,2.45c-.15-.18-.31-.36-.48-.52Z"/></g><path d="M17 11 13 11 13 7 11 7 11 13 17 13 17 11z"/></svg>