<svg xmlns="http://www.w3.org/2000/svg" width="24" height="24" viewBox="0 0 24 24"><g opacity="0.4"><path d="m17,6H7V1H3v10h5.66c.43-1.44,1.76-2.5,3.34-2.5s2.9,1.06,3.34,2.5h5.66V1h-4v5Z"/><path d="M9 1H15V4H9z"/><path d="m12,15.5c-1.58,0-2.9-1.06-3.34-2.5H3v10h4v-5h10v5h4v-10h-5.66c-.43,1.44-1.76,2.5-3.34,2.5Z"/><path d="M9 20H15V23H9z"/><path d="M12 10.5A1.5 1.5 0 1 0 12 13.5 1.5 1.5 0 1 0 12 10.5z"/></g><path d="M17 23 17 18 7 18 7 23 9 23 9 20 15 20 15 23 17 23z"/><path d="M17 1 15 1 15 4 9 4 9 1 7 1 7 6 17 6 17 1z"/><path d="m12,8.5c-1.58,0-2.9,1.06-3.34,2.5H3v2h5.66c.43,1.44,1.76,2.5,3.34,2.5s2.9-1.06,3.34-2.5h5.66v-2h-5.66c-.43-1.44-1.76-2.5-3.34-2.5Zm0,5c-.83,0-1.5-.67-1.5-1.5s.67-1.5,1.5-1.5,1.5.67,1.5,1.5-.67,1.5-1.5,1.5Z"/></svg>