<svg xmlns="http://www.w3.org/2000/svg" width="24" height="24" viewBox="0 0 24 24"><g opacity="0.4"><path d="m21.09,7.85c-1.19-2.59-3.44-4.59-6.2-5.42l-2.88,1.92-2.88-1.92c-2.76.83-5.02,2.83-6.2,5.42l1.44,2.87-2.2,2.93c.3,1.77,1.06,3.39,2.16,4.72h2.59l1.47,2.93c1.13.44,2.35.69,3.63.69s2.51-.25,3.64-.69l1.47-2.93h2.6c1.1-1.33,1.85-2.94,2.15-4.71l-2.2-2.93,1.44-2.88Zm-6.54,7.97h-5.1l-1.91-5.1,4.46-3.19,4.46,3.19-1.91,5.1Z"/></g><path d="M14.55 15.83 16.46 10.72 12 7.54 7.54 10.72 9.45 15.83 14.55 15.83z"/><path d="m19.65,10.73l2.2,2.93c.09-.54.15-1.1.15-1.66,0-1.48-.33-2.88-.91-4.15l-1.44,2.88Z"/><path d="m14.88,2.43c-.91-.28-1.88-.43-2.88-.43s-1.97.15-2.88.43l2.88,1.92,2.88-1.92Z"/><path d="m19.7,18.38h-2.6l-1.47,2.93c1.59-.62,2.99-1.64,4.06-2.93Z"/><path d="m4.35,10.72l-1.44-2.87c-.58,1.27-.91,2.67-.91,4.15,0,.57.06,1.12.15,1.66l2.2-2.93Z"/><path d="m8.37,21.31l-1.47-2.93h-2.59c1.07,1.29,2.47,2.3,4.06,2.93Z"/></svg>