<svg xmlns="http://www.w3.org/2000/svg" width="24" height="24" viewBox="0 0 24 24"><g opacity="0.4"><path d="m18.84,6.73l-.9.98c-.77.84-1.82,1.31-2.94,1.31-2.21,0-4.01-1.8-4.01-4.01,0-.27.03-.56.1-.87l.49-2.21-1.96,1.13c-2.47,1.42-6.63,4.61-6.63,9.95,0,3.59,2.12,6.7,5.18,8.14-.42-.75-.68-1.63-.68-2.57,0-3.96,3.9-5.88,4.07-5.96l.43-.21.43.21c.17.08,4.07,2.01,4.07,5.96,0,.95-.26,1.82-.68,2.57,3.05-1.44,5.18-4.54,5.18-8.14,0-1.82-.49-3.55-1.47-5.14l-.69-1.13Z"/></g><path d="m12,22c1.37,0,2.66-.32,3.82-.86.42-.75.68-1.63.68-2.57,0-3.96-3.9-5.88-4.07-5.96l-.43-.21-.43.21c-.17.08-4.07,2.01-4.07,5.96,0,.95.26,1.82.68,2.57,1.16.55,2.45.86,3.82.86Z"/></svg>