<svg xmlns="http://www.w3.org/2000/svg" width="24" height="24" viewBox="0 0 24 24"><g opacity="0.4"><path d="m3.32,2.82l-.32.15v3.28c1.27-.58,2.53-.75,3.8-.68v-3.57c-1.15.03-2.32.25-3.48.82Z"/><path d="m3,10.73v4.67l.8-.39c1-.48,1.99-.68,3-.7v-4.26c-1.27-.07-2.53.11-3.8.68Z"/><path d="m10.6,14.85c.58.15,1.16.32,1.74.49.68.2,1.37.39,2.06.56v-3.82c-1.27-.39-2.53-.87-3.8-1.26v4.04Z"/><path d="m21.68,15.6l.32-.15v-3.28c-1.27.58-2.53.75-3.8.68v3.57c1.15-.03,2.32-.25,3.48-.81Z"/><path d="m18.2,4.12v4.26c1.27.07,2.53-.11,3.8-.68V3.03l-.8.39c-1,.48-1.99.68-3,.7Z"/><path d="m14.4,12.08c1.27.39,2.53.7,3.8.77v-4.47c-1.27-.07-2.53-.38-3.8-.77v4.47Z"/><path d="m6.8,5.58v4.47c1.27.07,2.53.38,3.8.77v-4.47c-1.27-.39-2.53-.71-3.8-.77Z"/><path d="m14.4,3.57c-.58-.15-1.16-.32-1.74-.49-.68-.2-1.37-.39-2.06-.57v3.83c1.27.39,2.53.87,3.8,1.26V3.57Z"/></g><path d="m6.8,2.01v3.57c1.27.07,2.53.38,3.8.77v-3.83c-1.25-.31-2.52-.54-3.8-.51Z"/><path d="m10.6,10.82c1.27.39,2.53.87,3.8,1.26v-4.47c-1.27-.39-2.53-.87-3.8-1.26v4.47c-1.27-.39-2.53-.7-3.8-.77v4.26c1.25-.03,2.51.21,3.8.55v-4.04Z"/><path d="m18.2,4.12c-1.25.03-2.51-.21-3.8-.55v4.04c1.27.39,2.53.71,3.8.77v-4.26Z"/><path d="m17.99,16.42c.07,0,.14,0,.21-.01v-3.57c-1.27-.07-2.53-.38-3.8-.77v3.82c1.18.3,2.38.53,3.59.53Z"/><path d="m6.8,10.04v-4.47c-1.27-.07-2.53.11-3.8.68v4.47c1.27-.58,2.53-.75,3.8-.68Z"/><path d="m18.2,8.38v4.47c1.27.07,2.53-.11,3.8-.68v-4.47c-1.27.58-2.53.75-3.8.68Z"/><path d="m5,14.57c-.4.11-.8.25-1.2.44l-.8.39v6.61h2v-7.43Z"/></svg>