<svg xmlns="http://www.w3.org/2000/svg" width="24" height="24" viewBox="0 0 24 24"><g opacity="0.4"><path d="M4.99 18.15 11 21.58 11 18.14 8 16.48 4.99 18.15z"/><path d="M7 9.25 4 7.59 4 16.41 7 14.75 7 9.25z"/><path d="M11 5.86 11 2.42 4.99 5.85 8 7.52 11 5.86z"/><path d="M19.01 5.85 13 2.42 13 5.86 16 7.52 19.01 5.85z"/><path d="M15 9.25 12 7.59 9 9.25 9 14.75 12 16.41 15 14.75 15 9.25z"/><path d="M20 17.58 20 17.56 19.98 17.59 20 17.58z"/><path d="M4 6.42 4 6.44 4.02 6.41 4 6.42z"/><path d="M4 17.58 4.02 17.59 4 17.56 4 17.58z"/><path d="M17 14.75 20 16.41 20 7.59 17 9.25 17 14.75z"/><path d="M20 6.44 20 6.42 19.98 6.41 20 6.44z"/><path d="M13 18.14 13 21.58 19.01 18.15 16 16.48 13 18.14z"/></g><path d="m19.01,5.85l-3.01,1.67-3-1.67v-3.44l-1-.57-1,.57v3.44l-3,1.67-3.01-1.67-.97.56-.02.04v1.14l3,1.67v5.49l-3,1.67v1.14l.02.04.97.56,3.01-1.67,3,1.67v3.44l1,.57,1-.57v-3.44l3-1.67,3.01,1.67.97-.56.02-.04v-1.14l-3-1.67v-5.49l3-1.67v-1.14l-.02-.04-.97-.56Zm-4.01,8.89l-3,1.67-3-1.67v-5.49l3-1.67,3,1.67v5.49Z"/></svg>