<svg xmlns="http://www.w3.org/2000/svg" width="24" height="24" viewBox="0 0 24 24"><g opacity="0.4"><path d="m20.22,14.15c-.21.06-.27.54-.15,1.06.13.52.3,1.1.39,1.28.04.09.13.25.23.43.26-.45.48-.93.66-1.43-.18-.3-.36-.6-.46-.81-.17-.36-.48-.6-.68-.54Z"/><path d="m17.57,16.33c-.2-.03-.65.02-1,.11-.36.09-.8,0-.99-.18-.19-.19-.52.13-.75.7-.22.57-.63,1.5-.89,2.06-.27.56-.7.82-.96.57-.26-.25-.55-.78-.65-1.19-.1-.4-.46-.83-.8-.96-.34-.13-.45-.02-.24.23.21.25.26.72.11,1.04s-.57.14-.96-.41-.85-1.1-1.04-1.23c-.19-.13-.67-.13-1.07,0-.4.13-.95.42-1.21.63-.26.21-.72.37-1.03.34-.3-.03-.7-.14-.88-.24-.18-.11-.41-.36-.52-.57-.11-.21-.14-.64-.08-.96.07-.32.45-.58.85-.57.4,0,.84-.03.97-.08.14-.05.25-.35.25-.66s.34-.53.76-.48c.42.05.79-.35.83-.89.04-.54.3-1.1.59-1.25.28-.15.75-.41,1.03-.57.29-.17.31-.37.04-.45-.27-.08-.39-.48-.28-.89.12-.41.59-1.18,1.06-1.71.46-.53,1.18-1.17,1.59-1.43.41-.26,1.11-.37,1.54-.24.44.13.64.49.45.81-.19.32-.14.74.11.93.25.19.62.07.83-.28.21-.34.51-.7.67-.79.16-.09.54-.59.85-1.11.3-.52.55-1.32.55-1.77s.06-.97.14-1.23c-1.57-1.02-3.44-1.62-5.45-1.62-.44,0-.86.04-1.28.09-.29.4-.63.83-.88,1.09-.35.36-.91.88-1.25,1.15-.33.27-.81.66-1.05.87s-.84.33-1.31.27c-.42-.05-1.12-.1-1.68-.11-1.58,1.77-2.54,4.09-2.54,6.65,0,2.82,1.17,5.35,3.04,7.17.89.22,2.04.31,2.78.19.88-.14,1.72.25,1.88.88.16.63.71,1.2,1.22,1.27.51.07,1.2,0,1.54-.18.34-.17.96-.27,1.38-.23.42.04,1.25.07,1.85.07.13,0,.26-.03.39-.05.34-.15.66-.32.97-.51.13-.27.19-.64.12-.83-.07-.2-.59-.26-1.14-.15-.55.12-1.04-.18-1.07-.65s.53-1.1,1.25-1.39l.58-.11.2-.04c.65-.08,1.13-.35,1.06-.6-.07-.25-.29-.49-.49-.52Zm-1.97-12.74c.16-.22.38-.37.48-.34s.16.24.13.46c-.03.21-.02.62.01.9.04.28.17.63.3.78.13.15.17.32.1.38-.08.06-.41.06-.73.01-.32-.05-.59-.48-.59-.94s.13-1.03.3-1.25Zm-9.33,7.7c-.07-.25-.13-.66-.13-.92s.14-.53.3-.59.4-.12.53-.12.28.06.35.14c.07.08.05.24-.03.37-.08.13-.22.51-.31.85-.08.34-.03.72.13.84.16.13.25.37.21.54-.04.17-.18.37-.32.45-.13.08-.44.11-.69.07-.25-.04-.54-.07-.66-.07s-.22-.04-.24-.11c-.01-.07.2-.32.48-.57.28-.25.45-.65.37-.89Zm-1.51.35c.07-.21.28-.41.47-.45s.4-.07.48-.07.16.09.19.19c.02.11-.22.39-.54.63-.32.24-.62.35-.66.25-.04-.1,0-.35.06-.55Z"/></g><path d="m7.54,5.19c.24-.21.72-.6,1.05-.87.33-.27.89-.78,1.25-1.15.25-.26.59-.68.88-1.09-2.45.31-4.61,1.51-6.17,3.26.56.02,1.27.06,1.68.11.48.06,1.07-.06,1.31-.27Z"/><path d="m15.89,5.78c.32.05.65.05.73-.01.08-.06.03-.23-.1-.38-.13-.15-.27-.5-.3-.78-.04-.28-.04-.68-.01-.9.03-.21-.03-.42-.13-.46s-.32.12-.48.34c-.16.22-.3.78-.3,1.25s.27.89.59.94Z"/><path d="m7.28,10.17c.08-.13.1-.3.03-.37-.07-.08-.22-.14-.35-.14s-.36.05-.53.12-.3.33-.3.59.06.67.13.92c.07.25-.1.65-.37.89-.28.25-.49.5-.48.57.01.07.12.11.24.11s.41.02.66.07c.25.04.56.02.69-.07.13-.08.28-.29.32-.45.04-.17-.05-.41-.21-.54-.16-.13-.21-.51-.13-.84.08-.34.22-.72.31-.85Z"/><path d="m17.45,3.62c-.08.26-.14.79-.14,1.23s-.25,1.25-.55,1.77c-.3.52-.69,1.02-.85,1.11-.16.09-.46.44-.67.79-.21.34-.58.47-.83.28-.25-.19-.29-.61-.11-.93.19-.32-.02-.69-.45-.81-.44-.13-1.13-.02-1.54.24-.41.26-1.13.9-1.59,1.43-.46.53-.94,1.3-1.06,1.71-.12.41,0,.81.28.89.27.08.25.28-.04.45-.29.17-.75.43-1.03.57-.28.15-.54.71-.59,1.25-.04.54-.42.94-.83.89-.42-.05-.76.17-.76.48s-.11.61-.25.66c-.14.05-.58.09-.97.08-.4,0-.78.25-.85.57-.07.32-.03.75.08.96.11.21.34.46.52.57.18.11.57.22.88.24.3.03.77-.13,1.03-.34.26-.21.81-.5,1.21-.63.4-.13.89-.13,1.07,0,.19.13.66.69,1.04,1.23s.82.73.96.41.09-.79-.11-1.04c-.21-.25-.1-.35.24-.23.34.13.7.56.8.96.1.4.39.94.65,1.19.26.25.69,0,.96-.57.27-.56.67-1.49.89-2.06.22-.57.56-.89.75-.7.19.19.63.27.99.18.36-.09.81-.14,1-.11s.41.27.49.52c.07.25-.4.53-1.06.6l-.2.04-.58.11c-.72.29-1.29.91-1.25,1.39s.52.77,1.07.65c.55-.12,1.07-.05,1.14.15.07.19.02.55-.12.83,1.51-.89,2.77-2.16,3.63-3.69-.1-.18-.19-.35-.23-.43-.09-.19-.26-.77-.39-1.28-.13-.52-.06-.99.15-1.06.21-.06.51.18.68.54.1.21.27.51.46.81.41-1.09.64-2.26.64-3.5,0-3.51-1.81-6.59-4.55-8.38Z"/><path d="m5.7,11.13c-.08,0-.3.03-.48.07s-.39.24-.47.45c-.07.2-.1.45-.06.55.04.1.33-.01.66-.25.32-.24.57-.52.54-.63-.02-.11-.11-.19-.19-.19Z"/><path d="m16.09,21.12c-.13.02-.26.05-.39.05-.6,0-1.43-.02-1.85-.07-.42-.04-1.04.06-1.38.23-.34.17-1.03.25-1.54.18-.51-.07-1.06-.64-1.22-1.27-.16-.63-1.01-1.02-1.88-.88-.74.12-1.89.03-2.78-.19,1.8,1.75,4.25,2.83,6.96,2.83,1.46,0,2.84-.32,4.09-.88Z"/></svg>