<svg xmlns="http://www.w3.org/2000/svg" width="24" height="24" viewBox="0 0 24 24"><g opacity="0.4"><path d="m20.77,7.2c-.25.2-.54.38-.79.48-.39.15-1.4-.33-2.24-1.08-.84-.75-1.59-1.32-1.66-1.28-.07.04.36.84.97,1.77.61.93,1.56,1.67,2.12,1.65.56-.02.9.37.76.88-.14.51-.68,1.31-1.19,1.77-.51.46-.93,1.4-.93,2.09s-.57,2.17-1.27,3.3c-.7,1.13-1.82,2.17-2.48,2.31-.66.14-1.59-.6-2.05-1.64-.46-1.04-.75-2.17-.65-2.5.11-.33-.03-1.13-.3-1.78-.27-.64-.66-1.52-.86-1.94-.2-.42-1.07-.74-1.92-.71-.85.04-1.93-.36-2.4-.88-.46-.52-.79-1.4-.73-1.94.06-.55.67-1.45,1.37-2.01.69-.56,1.6-1.25,2.02-1.53.42-.28,1.14-.61,1.61-.73.47-.12.96,0,1.09.26.13.26.51.45.84.41.33-.04,1.14.04,1.8.16.66.13,1.37.06,1.58-.15.21-.21.27-.42.14-.47-.13-.05-.75-.22-1.38-.39-.63-.17-1.46-.48-1.86-.69-.39-.21-1.34-.21-2.11,0-.57.16-1.26.19-1.76.1,0,0,0,0,0,0-3.78,1.43-6.47,5.07-6.47,9.35,0,5.52,4.48,10,10,10s10-4.48,10-10c0-1.75-.45-3.39-1.24-4.81,0,0,0,0,0,.01Zm-1.27,9.09c-.3.69-.75,1.23-1.01,1.21-.26-.02-.41-.45-.32-.95s.45-1.16.82-1.47c.37-.31.76-.44.86-.3.11.14-.05.82-.35,1.51Z"/></g><path d="m13.86,4.26c-.66-.13-1.47-.2-1.8-.16-.33.04-.71-.15-.84-.41-.13-.26-.62-.38-1.09-.26-.47.12-1.19.45-1.61.73-.42.28-1.33.97-2.02,1.53-.69.56-1.31,1.46-1.37,2.01-.06.55.27,1.42.73,1.94.46.52,1.54.92,2.4.88.85-.04,1.72.28,1.92.71.2.42.59,1.3.86,1.94.27.64.41,1.44.3,1.78-.11.33.18,1.46.65,2.5.46,1.04,1.39,1.78,2.05,1.64.66-.14,1.78-1.18,2.48-2.31.7-1.13,1.27-2.61,1.27-3.3s.42-1.63.93-2.09c.51-.46,1.04-1.26,1.19-1.77.14-.51-.2-.91-.76-.88-.56.02-1.51-.72-2.12-1.65-.61-.93-1.04-1.72-.97-1.77.07-.04.82.53,1.66,1.28.84.75,1.85,1.23,2.24,1.08.25-.1.54-.28.79-.48,0,0,0,0,0-.01-1.7-3.09-4.99-5.19-8.76-5.19-1.25,0-2.43.24-3.53.65,0,0,0,0,0,0,.5.09,1.19.06,1.76-.1.77-.21,1.72-.21,2.11,0,.39.21,1.23.52,1.86.69.63.17,1.25.34,1.38.39.13.05.07.26-.14.47-.21.21-.92.28-1.58.15Z"/><path d="m18.98,15.08c-.37.31-.74.97-.82,1.47s.06.93.32.95c.26.02.72-.52,1.01-1.21.3-.69.45-1.37.35-1.51-.11-.14-.5,0-.86.3Z"/></svg>