<svg xmlns="http://www.w3.org/2000/svg" width="24" height="24" viewBox="0 0 24 24"><g opacity="0.4"><path d="m12,2C6.49,2,2,6.49,2,12s4.49,10,10,10,10-4.49,10-10S17.51,2,12,2Zm-5.25,13.25c-.55,0-1-.45-1-1s.45-1,1-1,1,.45,1,1-.45,1-1,1Zm.5-3.5c-.55,0-1-.45-1-1s.45-1,1-1,1,.45,1,1-.45,1-1,1Zm2.5,6.5c-.55,0-1-.45-1-1s.45-1,1-1,1,.45,1,1-.45,1-1,1Zm.5-3.5c-.55,0-1-.45-1-1s.45-1,1-1,1,.45,1,1-.45,1-1,1Zm3,3c-.55,0-1-.45-1-1s.45-1,1-1,1,.45,1,1-.45,1-1,1Z"/></g><path d="M7.25 9.75A1 1 0 1 0 7.25 11.75 1 1 0 1 0 7.25 9.75z"/><path d="M6.75 13.25A1 1 0 1 0 6.75 15.25 1 1 0 1 0 6.75 13.25z"/><path d="M9.75 16.25A1 1 0 1 0 9.75 18.25 1 1 0 1 0 9.75 16.25z"/><path d="M13.25 15.75A1 1 0 1 0 13.25 17.75 1 1 0 1 0 13.25 15.75z"/><path d="M10.25 12.75A1 1 0 1 0 10.25 14.75 1 1 0 1 0 10.25 12.75z"/></svg>