<svg xmlns="http://www.w3.org/2000/svg" width="24" height="24" viewBox="0 0 24 24"><g opacity="0.4"><path d="m14,10.96c0-1.1-.9-2-2-2H2.57c-.37,1.08-.57,2.21-.57,3.36v2.64h12v-4Z"/><path d="m21.54,8.96h-3.54v2h3.94c-.07-.69-.21-1.36-.41-2Z"/><path d="m21.94,13h-3.94v2h3.51c.21-.65.36-1.32.43-2Z"/></g><path d="m18,10.96v-2h3.54c-1.26-4.02-4.96-6.9-9.41-6.96-2.58-.04-5.11.99-7.02,2.87-1.16,1.15-2.02,2.56-2.54,4.09h9.43c1.1,0,2,.9,2,2v4H2v2.54c0,2.61,2.17,4.5,5.17,4.5h4.52c2.78,0,5.5-1.13,7.45-3.11,1.11-1.12,1.91-2.45,2.38-3.89h-3.51v-2h3.94c.04-.37.06-.75.06-1.13,0-.31-.03-.61-.06-.92h-3.94Z"/></svg>