<svg xmlns="http://www.w3.org/2000/svg" width="24" height="24" viewBox="0 0 24 24"><g opacity="0.4"><path d="m9,2h-2c0,1.39-.38,2.02-.86,2.82-.54.89-1.14,1.9-1.14,3.85s.61,2.96,1.14,3.85c.48.8.86,1.43.86,2.82s-.38,2.02-.86,2.82c-.54.89-1.14,1.9-1.14,3.85h2c0-1.39.38-2.02.86-2.82.54-.89,1.14-1.9,1.14-3.85s-.61-2.96-1.14-3.85c-.48-.8-.86-1.43-.86-2.82s.38-2.02.86-2.82c.54-.89,1.14-1.9,1.14-3.85Z"/><path d="m19,2h-2c0,1.39-.38,2.02-.86,2.82-.54.89-1.14,1.9-1.14,3.85s.61,2.96,1.14,3.85c.48.8.86,1.43.86,2.82s-.38,2.02-.86,2.82c-.54.89-1.14,1.9-1.14,3.85h2c0-1.39.38-2.02.86-2.82.54-.89,1.14-1.9,1.14-3.85s-.61-2.96-1.14-3.85c-.48-.8-.86-1.43-.86-2.82s.38-2.02.86-2.82c.54-.89,1.14-1.9,1.14-3.85Z"/></g><path d="m14,2h-2c0,1.39-.38,2.02-.86,2.82-.54.89-1.14,1.9-1.14,3.85s.61,2.96,1.14,3.85c.48.8.86,1.43.86,2.82s-.38,2.02-.86,2.82c-.54.89-1.14,1.9-1.14,3.85h2c0-1.39.38-2.02.86-2.82.54-.89,1.14-1.9,1.14-3.85s-.61-2.96-1.14-3.85c-.48-.8-.86-1.43-.86-2.82s.38-2.02.86-2.82c.54-.89,1.14-1.9,1.14-3.85Z"/></svg>