<svg xmlns="http://www.w3.org/2000/svg" width="24" height="24" viewBox="0 0 24 24"><g opacity="0.4"><path d="M5.5 2A2.5 2.5 0 1 0 5.5 7 2.5 2.5 0 1 0 5.5 2z"/><path d="m2,18c0,2.21,1.79,4,4,4h12c2.21,0,4-1.79,4-4v-5H2v5Z"/></g><path d="m16.89,6.45c.52-1.04,1.11-2.21,1.11-4.45h-2c0,1.76-.41,2.59-.89,3.55-.52,1.04-1.11,2.21-1.11,4.45h2c0-1.76.41-2.59.89-3.55Z"/><path d="m19.11,5.55c-.52,1.04-1.11,2.21-1.11,4.45h2c0-1.76.41-2.59.89-3.55.52-1.04,1.11-2.21,1.11-4.45h-2c0,1.76-.41,2.59-.89,3.55Z"/><path d="m6,8c-2.03,0-3.68,1.98-3.95,5h9.48c-1.7-3.02-2.78-5-5.53-5Z"/></svg>