<svg xmlns="http://www.w3.org/2000/svg" width="24" height="24" viewBox="0 0 24 24"><g opacity="0.4"><path d="m12,2C6.49,2,2,6.49,2,12s4.49,10,10,10,10-4.49,10-10S17.51,2,12,2Zm-4,6c1.65,0,3,1.35,3,3h-2c0-.55-.45-1-1-1s-1,.45-1,1h-2c0-1.65,1.35-3,3-3Zm4,10c-4,0-5-4-5-4h10s-1,4-5,4Zm5-7c0-.55-.45-1-1-1s-1,.45-1,1h-2c0-1.65,1.35-3,3-3s3,1.35,3,3h-2Z"/></g><path d="m16,10c.55,0,1,.45,1,1h2c0-1.65-1.35-3-3-3s-3,1.35-3,3h2c0-.55.45-1,1-1Z"/><path d="m8,10c.55,0,1,.45,1,1h2c0-1.65-1.35-3-3-3s-3,1.35-3,3h2c0-.55.45-1,1-1Z"/><path d="m12,18c4,0,5-4,5-4H7s1,4,5,4Z"/></svg>