<svg xmlns="http://www.w3.org/2000/svg" width="24" height="24" viewBox="0 0 24 24"><g opacity="0.4"><path d="m12,2C6.49,2,2,6.49,2,12s4.49,10,10,10,10-4.49,10-10S17.51,2,12,2Zm1,16h-2v-2h2v2Zm0-4.34v.34h-2v-1.71l.67-.23c.58-.2,2.24-1.03,2.24-2.07,0-.82-.54-1.57-1.32-1.86-1.04-.38-2.28.19-2.65,1.21l-1.88-.68c.75-2.06,3.14-3.16,5.21-2.41,1.56.57,2.62,2.07,2.64,3.73,0,1.98-1.87,3.17-2.91,3.68Z"/></g><path d="M11 16H13V18H11z"/><path d="m13,13.66c1.04-.51,2.91-1.69,2.91-3.68-.01-1.66-1.07-3.16-2.64-3.73-2.08-.76-4.47.35-5.21,2.41l1.88.68c.37-1.02,1.61-1.59,2.65-1.21.78.28,1.31,1.03,1.32,1.86,0,1.04-1.66,1.86-2.24,2.07l-.67.23v1.71h2v-.34Z"/></svg>