<svg xmlns="http://www.w3.org/2000/svg" width="24" height="24" viewBox="0 0 24 24"><g opacity="0.4"><path d="m12,11.5c-4.13,0-6.29,2.44-7.13,4.3.29.12.61.2,1.13.2.76,0,1.09-.17,1.55-.39.54-.27,1.21-.61,2.45-.61s1.91.34,2.45.61c.46.23.79.39,1.55.39s1.1-.17,1.55-.39c.54-.27,1.21-.61,2.45-.61.45,0,.8.05,1.12.12-.68-1.27-2.57-3.62-7.12-3.62Z"/></g><path d="m18,19c-1.24,0-1.91.34-2.45.61-.46.23-.79.39-1.55.39s-1.09-.17-1.55-.39c-.54-.27-1.21-.61-2.45-.61s-1.91.34-2.45.61c-.46.23-.79.39-1.55.39s-1.09-.17-1.55-.39c-.54-.27-1.21-.61-2.45-.61v2c.76,0,1.09.17,1.55.39.54.27,1.21.61,2.45.61s1.91-.34,2.45-.61c.46-.23.79-.39,1.55-.39s1.09.17,1.55.39c.54.27,1.21.61,2.45.61s1.91-.34,2.45-.61c.46-.23.79-.39,1.56-.39s1.1.17,1.55.39c.54.27,1.21.61,2.45.61v-2c-.76,0-1.1-.17-1.55-.39-.54-.27-1.21-.61-2.45-.61Z"/><path d="m18,15c-1.24,0-1.91.34-2.45.61-.46.23-.79.39-1.55.39s-1.09-.17-1.55-.39c-.54-.27-1.21-.61-2.45-.61s-1.91.34-2.45.61c-.46.23-.79.39-1.55.39s-1.09-.17-1.55-.39c-.54-.27-1.21-.61-2.45-.61v2c.76,0,1.09.17,1.55.39.54.27,1.21.61,2.45.61s1.91-.34,2.45-.61c.46-.23.79-.39,1.55-.39s1.09.17,1.55.39c.54.27,1.21.61,2.45.61s1.91-.34,2.45-.61c.46-.23.79-.39,1.56-.39s1.1.17,1.55.39c.54.27,1.21.61,2.45.61v-2c-.76,0-1.1-.17-1.55-.39-.54-.27-1.21-.61-2.45-.61Z"/><path d="m7.49,7.38s.75-.59,1.93-.91c-.84,1.31-1.75,3.38-1.89,6.27.59-.38,1.29-.7,2.09-.92.27-2.12,1.02-3.61,1.63-4.5.08.6.08,1.26-.05,2.01l1.97.35c.2-1.1.17-2.09,0-2.98.42.16.85.38,1.29.66l1.08-1.68c-1.11-.71-2.2-1.11-3.22-1.29-.89-1.54-2.18-2.54-3.1-2.98l-.86,1.8c.06.03.76.38,1.47,1.13-1.6.23-2.89.91-3.6,1.49l1.27,1.54Z"/></svg>