<svg xmlns="http://www.w3.org/2000/svg" width="24" height="24" viewBox="0 0 24 24"><g opacity="0.4"><path d="m17.59,11l-5.59-5.59-5.59,5.59H2v10h8v-5h4v5h8v-10h-4.41Zm-10.59,5h-2v-3h2v3Zm5-3.11c-1.1,0-2-.9-2-2s.9-2,2-2,2,.9,2,2-.9,2-2,2Zm7,3.11h-2v-3h2v3Z"/></g><path d="M12 8.89A2 2 0 1 0 12 12.89 2 2 0 1 0 12 8.89z"/><path d="M5 13H7V16H5z"/><path d="M17 13H19V16H17z"/><path d="M13.41 4 12 2.59 10.59 4 4.38 4 2 8.76 2 9 2 11 4 11 6.41 11 12 5.41 17.59 11 20 11 22 11 22 9 22 8.76 19.62 4 13.41 4z"/><path d="M10 16H14V21H10z"/></svg>