<svg xmlns="http://www.w3.org/2000/svg" width="24" height="24" viewBox="0 0 24 24"><g opacity="0.4"><path d="m15,5h-6c-3.85,0-6.99,3.13-7,6.99h0v.02h0v.02c.01,3.85,3.15,6.97,7,6.97h6c3.85,0,6.99-3.13,7-6.97h0v-.03h0c-.01-3.87-3.15-7-7-7Zm-3,8h-2v2h-2v-2h-2v-2h2v-2h2v2h2v2Zm3,1c-.55,0-1-.45-1-1s.45-1,1-1,1,.45,1,1-.45,1-1,1Zm2-2c-.55,0-1-.45-1-1s.45-1,1-1,1,.45,1,1-.45,1-1,1Z"/></g><path d="M15 12A1 1 0 1 0 15 14 1 1 0 1 0 15 12z"/><path d="M8 15 10 15 10 13 12 13 12 11 10 11 10 9 8 9 8 11 6 11 6 13 8 13 8 15z"/><path d="M17 10A1 1 0 1 0 17 12 1 1 0 1 0 17 10z"/></svg>