<svg xmlns="http://www.w3.org/2000/svg" width="24" height="24" viewBox="0 0 24 24"><g opacity="0.4"><path d="m12,2c-1.3,0-2.4.84-2.82,2H2v2h7.18c.3.85.97,1.51,1.82,1.82v12.18H2v2h20v-2h-9V7.82c.85-.3,1.51-.97,1.82-1.82h7.18v-2h-7.18c-.41-1.16-1.51-2-2.82-2Zm0,4c-.55,0-1-.45-1-1s.45-1,1-1,1,.45,1,1-.45,1-1,1Z"/></g><path d="m6,17c2.21,0,4-1.79,4-4,0-.12-.02-.24-.06-.35l-2.49-6.65h-2.89l-2.49,6.65c-.04.11-.06.23-.06.35,0,2.21,1.79,4,4,4Zm0-9.15l1.93,5.15h-3.86l1.93-5.15Z"/><path d="m19.44,6h-2.89l-2.49,6.65c-.04.11-.06.23-.06.35,0,2.21,1.79,4,4,4s4-1.79,4-4c0-.12-.02-.24-.06-.35l-2.49-6.65Zm-3.38,7l1.93-5.15,1.93,5.15h-3.86Z"/></svg>