<svg xmlns="http://www.w3.org/2000/svg" width="24" height="24" viewBox="0 0 24 24"><g opacity="0.4"><path d="m12,2c-5.51,0-10,3.36-10,7.5s4.49,7.5,10,7.5c.15,0,.3-.01.45-.02.02-.16.05-.32.05-.48,0-.53-.13-1.04-.35-1.51-.05,0-.1,0-.15,0-4.41,0-8-2.47-8-5.5s3.59-5.5,8-5.5,8,2.47,8,5.5c0,2.51-2.46,4.62-5.8,5.28.18.55.3,1.12.3,1.72,0,.09-.02.17-.03.26,4.32-.83,7.53-3.76,7.53-7.26,0-4.14-4.49-7.5-10-7.5Z"/></g><path d="m11.47,14.02c.66.66,1.03,1.54,1.03,2.48s-.36,1.81-1.02,2.47-1.54,1.03-2.48,1.03v2c1.47,0,2.85-.57,3.89-1.61,1.04-1.04,1.61-2.42,1.61-3.89s-.57-2.85-1.61-3.89c-1.04-1.04-2.42-1.61-3.89-1.61s-2.7.53-3.72,1.47c.44.47,1,.89,1.63,1.25,1.35-.99,3.36-.9,4.57.31Z"/></svg>