<svg xmlns="http://www.w3.org/2000/svg" width="24" height="24" viewBox="0 0 24 24"><g opacity="0.4"><path d="m12,5c-1.84,0-3.36.39-4.62.97l2.6,2.6c1.48-.87,3.4-.71,4.71.5-.4.13-.69.49-.69.94,0,.55.45,1,1,1,.3,0,.57-.14.75-.36.4,1.11.29,2.35-.31,3.38l2.95,2.95c2.61-1.95,3.54-4.62,3.56-4.66l.11-.32-.11-.32c-.02-.07-2.32-6.68-9.95-6.68Z"/><path d="m13.32,16.91l-7.48-7.48c.34-.34.74-.67,1.19-.98l-1.42-1.42c-2.61,1.95-3.54,4.62-3.56,4.66l-.11.32.11.32c.02.07,2.32,6.68,9.95,6.68,1.84,0,3.36-.39,4.62-.97l-1.53-1.53c-.53.18-1.12.33-1.76.41Zm-9.25-4.91c.1-.24.27-.59.52-.99l5.87,5.87c-4.21-.65-5.94-3.84-6.39-4.88Z"/></g><path d="M20.29 21.71 21 21 21.71 20.29 12.71 11.29 3.71 2.29 3 3 2.29 3.71 11.29 12.71 20.29 21.71z"/></svg>