<svg xmlns="http://www.w3.org/2000/svg" width="24" height="24" viewBox="0 0 24 24"><g opacity="0.4"><path d="m8.19,15.08c.24.34.57,1.25.77,1.92h6.08c.21-.67.53-1.58.77-1.92.35-.5.72-.94,1.08-1.36.97-1.14,1.98-2.32,2.09-4.34.18-3.36-2.13-6.45-5.37-7.19-2.11-.49-4.29,0-5.97,1.34-1.68,1.34-2.65,3.34-2.65,5.48,0,2.28,1.07,3.53,2.1,4.73.36.42.73.85,1.09,1.35Zm3.81-10.08v2c-1.1,0-2,.9-2,2h-2c0-2.21,1.79-4,4-4Z"/></g><path d="m12,7v-2c-2.21,0-4,1.79-4,4h2c0-1.1.9-2,2-2Z"/><path d="m15,22v-4.86s.03-.09.04-.14h-6.08s.03.09.04.14v4.86h6Z"/></svg>