<svg xmlns="http://www.w3.org/2000/svg" width="24" height="24" viewBox="0 0 24 24"><g opacity="0.4"><path d="m2,19h5v3.77l6.28-3.77h8.72V3H2v16Zm11-3h-2v-2h2v2Zm-3.47-8.97c1.32-1.32,3.63-1.32,4.95,0,.66.66,1.03,1.54,1.03,2.47s-.36,1.81-1.03,2.47c-.42.42-.92.72-1.47.88v.14h-2v-2h1c.4,0,.78-.16,1.06-.44s.44-.66.44-1.06-.16-.78-.44-1.06c-.57-.57-1.55-.57-2.12,0-.28.28-.44.66-.44,1.06h-2c0-.93.36-1.81,1.03-2.47Z"/></g><path d="m13,12.86c.55-.16,1.06-.46,1.47-.88.66-.66,1.03-1.54,1.03-2.47s-.36-1.81-1.03-2.47c-1.32-1.32-3.63-1.32-4.95,0-.66.66-1.03,1.54-1.03,2.47h2c0-.4.16-.78.44-1.06.57-.57,1.55-.57,2.12,0,.28.28.44.66.44,1.06s-.16.78-.44,1.06-.66.44-1.06.44h-1v2h2v-.14Z"/><path d="M11 14H13V16H11z"/></svg>