<svg xmlns="http://www.w3.org/2000/svg" width="24" height="24" viewBox="0 0 24 24"><g opacity="0.4"><path d="m20.26,14.47l-.24-.14h-.03c-.46-.22-.97-.33-1.49-.33-1.11,0-2.13.51-2.8,1.4-.45.6-.7,1.35-.7,2.1,0,1.93,1.57,3.5,3.5,3.5s3.5-1.57,3.5-3.5c0-1.24-.67-2.4-1.74-3.03Z"/><path d="m7.26,14.47l-.25-.14h-.03c-.46-.22-.97-.33-1.49-.33-1.11,0-2.13.51-2.79,1.38-.3.39-.53.87-.65,1.43-.04.22-.07.45-.07.69,0,1.93,1.57,3.5,3.5,3.5s3.5-1.57,3.5-3.5c0-.23-.03-.46-.07-.69-.19-.97-.8-1.82-1.67-2.34Z"/><path d="M16.24 9 18 9 18 7 15.37 7 16.24 9z"/></g><path d="m15,17.5c0-.76.25-1.5.7-2.1.66-.87,1.65-1.37,2.73-1.39l-3.15-7.21c-.48-1.09-1.56-1.8-2.75-1.8h-1.53v2h1.53c.4,0,.76.24.92.6l1.05,2.4h-4.38l-2.69,3.02-3.02-3.02H1.84v2h1.75l2.01,2.01c.48.01.96.12,1.39.32h.03l.25.14c.87.51,1.48,1.37,1.67,2.34.04.2.05.4.06.6l1.6,1.6h2.81l1.61-1.49s0,0,0,0Z"/></svg>