<svg xmlns="http://www.w3.org/2000/svg" width="24" height="24" viewBox="0 0 24 24"><g opacity="0.4"><path d="M17.29 18.71 18 18 18.71 17.29 17.21 15.79 15.71 14.29 15 15 14.29 15.71 15.79 17.21 17.29 18.71z"/><path d="M8.21 6.79 6.71 5.29 6 6 5.29 6.71 6.79 8.21 8.29 9.71 9 9 9.71 8.29 8.21 6.79z"/><path d="M15.71 9.71 17.21 8.21 18.71 6.71 18 6 17.29 5.29 15.79 6.79 14.29 8.29 15 9 15.71 9.71z"/><path d="M8.29 14.29 6.79 15.79 5.29 17.29 6 18 6.71 18.71 8.21 17.21 9.71 15.71 9 15 8.29 14.29z"/></g><path d="M21 21 21 15 15 21 21 21z"/><path d="M3 3 3 9 9 3 3 3z"/><path d="M21 9 21 3 15 3 21 9z"/><path d="M3 15 3 21 9 21 3 15z"/></svg>