<svg xmlns="http://www.w3.org/2000/svg" width="24" height="24" viewBox="0 0 24 24"><g opacity="0.4"><path d="m16.13,3l4,6h-2.6l-4-6h-2.4l4,6h-2.6l-4-6h-2.4l4,6h-2.6L3.54,3h-1.54v1.3l3.13,4.7h-3.13v12h20v-12.8l-3.46-5.2h-2.4Zm-6.13,15v-6l5,3-5,3Z"/></g><path d="M22 8.2 22 3 18.54 3 22 8.2z"/><path d="M10.13 9 6.13 3 3.54 3 7.54 9 10.13 9z"/><path d="M15.13 9 11.13 3 8.54 3 12.54 9 15.13 9z"/><path d="M2 4.3 2 9 5.13 9 2 4.3z"/><path d="M20.13 9 16.13 3 13.54 3 17.54 9 20.13 9z"/><path d="M10 18 15 15 10 12 10 18z"/></svg>