<svg xmlns="http://www.w3.org/2000/svg" width="24" height="24" viewBox="0 0 24 24"><g opacity="0.4"><path d="m12,2C6.49,2,2,6.49,2,12s4.49,10,10,10,10-4.49,10-10S17.51,2,12,2Zm-5,11c-.55,0-1-.45-1-1s.45-1,1-1,1,.45,1,1-.45,1-1,1Zm2-5c-.55,0-1-.45-1-1s.45-1,1-1,1,.45,1,1-.45,1-1,1Zm2.5,10c-.83,0-1.5-.67-1.5-1.5s.67-1.5,1.5-1.5,1.5.67,1.5,1.5-.67,1.5-1.5,1.5Zm3-6c-1.38,0-2.5-1.12-2.5-2.5s1.12-2.5,2.5-2.5,2.5,1.12,2.5,2.5-1.12,2.5-2.5,2.5Z"/></g><path d="M7 11A1 1 0 1 0 7 13 1 1 0 1 0 7 11z"/><path d="M9 6A1 1 0 1 0 9 8 1 1 0 1 0 9 6z"/><path d="M11.5 15A1.5 1.5 0 1 0 11.5 18 1.5 1.5 0 1 0 11.5 15z"/><path d="M14.5 7A2.5 2.5 0 1 0 14.5 12 2.5 2.5 0 1 0 14.5 7z"/></svg>