<svg xmlns="http://www.w3.org/2000/svg" width="24" height="24" viewBox="0 0 24 24"><g opacity="0.4"><path d="M16.13 3 20.13 9 17.54 9 13.54 3 11.13 3 15.13 9 12.54 9 8.54 3 6.13 3 10.13 9 7.54 9 3.54 3 2 3 2 4.3 5.13 9 2 9 2 21 22 21 22 8.2 18.54 3 16.13 3z"/></g><path d="M22 8.2 22 3 18.54 3 22 8.2z"/><path d="M10.13 9 6.13 3 3.54 3 7.54 9 10.13 9z"/><path d="M15.13 9 11.13 3 8.54 3 12.54 9 15.13 9z"/><path d="M2 4.3 2 9 5.13 9 2 4.3z"/><path d="M20.13 9 16.13 3 13.54 3 17.54 9 20.13 9z"/></svg>