<svg xmlns="http://www.w3.org/2000/svg" width="24" height="24" viewBox="0 0 24 24"><g opacity="0.4"><path d="m1.59,14l8.41,8.41,12.41-12.41L14,1.59,1.59,14Zm8.12,1.71c-.39.39-1.02.39-1.41,0-.39-.39-.39-1.02,0-1.41.39-.39,1.02-.39,1.41,0,.39.39.39,1.02,0,1.41Z"/></g><path d="M15.71 21.71 18.71 18.71 21.71 15.71 21 15 20.29 14.29 17.29 17.29 14.29 20.29 15 21 15.71 21.71z"/><path d="M3.71 9.71 6.71 6.71 9.71 3.71 9 3 8.29 2.29 5.29 5.29 2.29 8.29 3 9 3.71 9.71z"/><path d="m8.29,14.29c-.39.39-.39,1.02,0,1.41.39.39,1.02.39,1.41,0,.39-.39.39-1.02,0-1.41-.39-.39-1.02-.39-1.41,0Z"/></svg>