<svg xmlns="http://www.w3.org/2000/svg" width="24" height="24" viewBox="0 0 24 24"><g opacity="0.4"><path class="st0" d="M1.6 18 7.2 12.4 12.8 6.8 15 9 17.2 11.2 11.6 16.8 6 22.4 3.8 20.2z"/></g><path class="st0" d="M12.8 6.8 15.4 4.2 18 1.6 20.2 3.8 22.4 6 19.8 8.6 17.2 11.2 15 9z"/><path class="st0" d="M10.5 5 11.5 4.3 12.5 5 12.2 3.8 13 3.1 12 3 11.5 2 11 3 10 3.1 10.8 3.8z"/><path class="st0" d="M20.3 13.7 19.5 12 18.7 13.7 17 13.9 18.4 15.1 17.8 17 19.5 15.9 21.2 17 20.6 15.1 22 13.9z"/><path class="st0" d="M4.8 9 6.5 7.9 8.2 9 7.6 7.1 9 5.9 7.3 5.7 6.5 4 5.7 5.7 4 5.9 5.4 7.1z"/></svg>