<svg xmlns="http://www.w3.org/2000/svg" width="24" height="24" viewBox="0 0 24 24"><g opacity="0.4"><path d="m3,22h18V6H3v16Zm5.75-7.5c.27,0,.52.07.75.18v-5.77l7,1.17v7.17c0,.96-.78,1.75-1.75,1.75s-1.75-.79-1.75-1.75.78-1.75,1.75-1.75c.27,0,.52.07.75.18v-4.75l-5-.83v6.08h0s0,.05,0,.08c0,.96-.78,1.75-1.75,1.75s-1.75-.79-1.75-1.75.78-1.75,1.75-1.75Z"/></g><path d="M6 2H18V4H6z"/><path d="m14.75,15.5c-.97,0-1.75.78-1.75,1.75s.78,1.75,1.75,1.75,1.75-.79,1.75-1.75v-7.17l-7-1.17v5.77c-.23-.11-.48-.18-.75-.18-.97,0-1.75.78-1.75,1.75s.78,1.75,1.75,1.75,1.75-.79,1.75-1.75c0-.03,0-.06,0-.08h0v-6.08l5,.83v4.75c-.23-.11-.48-.18-.75-.18Z"/></svg>