<svg xmlns="http://www.w3.org/2000/svg" width="24" height="24" viewBox="0 0 24 24"><g opacity="0.4"><path d="m20.41,15.32c.15-.19.29-.37.42-.57.02-.04.04-.07.06-.11.12-.19.24-.38.34-.58.03-.05.05-.11.07-.16.09-.19.18-.37.25-.56.03-.08.05-.16.08-.24.06-.17.12-.34.16-.51.03-.13.05-.26.07-.39.02-.13.06-.26.07-.4.03-.27.05-.53.05-.81,0-.32-.03-.63-.07-.93-.02-.17-.07-.33-.1-.5-.02-.1-.04-.21-.06-.31,0,0,0,0,0,0-.21-.75-.53-1.46-.98-2.12-.45,1.08-1.52,1.85-2.77,1.85-1.66,0-3-1.34-3-3,0-.93.43-1.75,1.09-2.3-.69-.25-1.43-.43-2.19-.55,0,0,0,0,0,0-.14-.02-.28-.03-.42-.05-.16-.02-.31-.04-.47-.06-.33-.03-.67-.04-1.01-.04C6.48,3,2,6.58,2,11c0,.32.03.64.08.96.02.12.04.23.07.34.04.19.08.38.14.56.04.14.09.29.14.43.05.13.11.25.16.38.27.62.64,1.21,1.09,1.76.02.03.05.06.07.09.49.58,1.08,1.1,1.76,1.56.06.04.12.08.18.12.17.11.35.22.53.32.16.09.33.18.5.27.1.05.19.11.29.15v5.07l5.34-4c.11,0,.23-.02.34-.02.17,0,.34-.02.51-.03.16-.02.31-.04.47-.06.17-.02.34-.05.51-.08.14-.03.28-.06.42-.09.18-.04.36-.08.53-.12.12-.03.24-.07.36-.11.19-.06.37-.11.55-.18.1-.04.2-.08.29-.11.19-.07.39-.15.57-.23.08-.04.15-.07.23-.11.2-.1.4-.19.59-.3.06-.03.11-.07.17-.1.2-.12.4-.24.59-.36.04-.03.08-.06.12-.09.2-.14.39-.28.57-.43.03-.03.06-.05.09-.08.19-.16.37-.32.54-.49.02-.02.04-.05.07-.07.17-.17.34-.35.49-.54.02-.03.04-.05.06-.08Z"/></g><path d="M18 3A3 3 0 1 0 18 9 3 3 0 1 0 18 3z"/></svg>