<svg xmlns="http://www.w3.org/2000/svg" width="24" height="24" viewBox="0 0 24 24"><g opacity="0.4"><path d="m3,21h18V3H3v18Zm14-13h1v1h-1v-1Zm0,4h1v1h-1v-1Zm0,4h1v1h-1v-1Zm-2-10h1v1h-1v-1Zm0,4h1v1h-1v-1Zm0,4h1v1h-1v-1Zm0,4h1v1h-1v-1Zm-2-10h1v1h-1v-1Zm0,4h1v1h-1v-1Zm0,4h1v1h-1v-1Zm-2-10h1v1h-1v-1Zm0,4h1v1h-1v-1Zm0,4h1v1h-1v-1Zm0,4h1v1h-1v-1Zm-2-10h1v1h-1v-1Zm0,4h1v1h-1v-1Zm0,4h1v1h-1v-1Zm-2-10h1v1h-1v-1Zm0,4h1v1h-1v-1Zm0,4h1v1h-1v-1Zm0,4h1v1h-1v-1Zm-2-10h1v1h-1v-1Zm0,4h1v1h-1v-1Zm0,4h1v1h-1v-1Z"/></g><path d="M5 12H6V13H5z"/><path d="M9 16H10V17H9z"/><path d="M7 10H8V11H7z"/><path d="M9 12H10V13H9z"/><path d="M7 6H8V7H7z"/><path d="M9 8H10V9H9z"/><path d="M11 18H12V19H11z"/><path d="M11 14H12V15H11z"/><path d="M7 14H8V15H7z"/><path d="M7 18H8V19H7z"/><path d="M5 16H6V17H5z"/><path d="M11 10H12V11H11z"/><path d="M15 6H16V7H15z"/><path d="M17 8H18V9H17z"/><path d="M17 16H18V17H17z"/><path d="M17 12H18V13H17z"/><path d="M13 8H14V9H13z"/><path d="M13 12H14V13H13z"/><path d="M13 16H14V17H13z"/><path d="M11 6H12V7H11z"/><path d="M15 10H16V11H15z"/><path d="M15 14H16V15H15z"/><path d="M15 18H16V19H15z"/><path d="M5 8H6V9H5z"/></svg>