<svg xmlns="http://www.w3.org/2000/svg" width="24" height="24" viewBox="0 0 24 24"><g opacity="0.4"><path d="m11.66,15.75c-.66-.24-1.23-.63-1.68-1.15l-1.69,1.69.03.03c-.4-.2-.84-.32-1.32-.32-1.65,0-3,1.35-3,3s1.35,3,3,3,3-1.35,3-3c0-.48-.12-.92-.32-1.32l.03.03,1.95-1.95Z"/><path d="m7.31,8.48l2.18,1.64c.32-.6.79-1.11,1.36-1.48l-2.2-1.65c.22-.45.35-.96.35-1.49,0-1.93-1.57-3.5-3.5-3.5s-3.5,1.57-3.5,3.5,1.57,3.5,3.5,3.5c.66,0,1.28-.2,1.81-.52Z"/><path d="m19,3c-1.65,0-3,1.35-3,3,0,.5.14.97.35,1.38l-1.12,1.3c.57.38,1.01.92,1.32,1.53l1.25-1.46c.36.16.76.25,1.19.25,1.65,0,3-1.35,3-3s-1.35-3-3-3Z"/></g><path d="M13 8A4 4 0 1 0 13 16 4 4 0 1 0 13 8z"/></svg>