<svg xmlns="http://www.w3.org/2000/svg" width="24" height="24" viewBox="0 0 24 24"><g opacity="0.4"><path d="m3,5v14c0,1.65,1.35,3,3,3h15v-2H6c-.55,0-1-.45-1-1s.45-1,1-1h15V2H6c-1.65,0-3,1.35-3,3Zm5.5,1c.83,0,1.5.67,1.5,1.5s-.67,1.5-1.5,1.5-1.5-.67-1.5-1.5.67-1.5,1.5-1.5Zm1,5l1.5,1.5,3-3.5,4,5H7l2.5-3Z"/></g><path class="st0" d="M14 9 11 12.5 9.5 11 7 14 18 14z"/><path class="st0" d="M8.5 6A1.5 1.5 0 1 0 8.5 9 1.5 1.5 0 1 0 8.5 6z"/><path class="st1" d="M5,19c0,0.5,0.4,1,1,1h15v-2H6C5.4,18,5,18.5,5,19z"/></svg>