<svg xmlns="http://www.w3.org/2000/svg" width="24" height="24" viewBox="0 0 24 24"><g opacity="0.4"><path d="M5 5A2 2 0 1 0 5 9 2 2 0 1 0 5 5z"/><path d="m20,10h-1.46c-.67,0-1.29.33-1.66.89l-3.41,5.11h-2.93l-3.41-5.11c-.37-.56-.99-.89-1.66-.89h-1.46c-1.1,0-2,.9-2,2v6h5v-3.7l2.46,3.7h5.07l2.46-3.7v3.7h5v-6c0-1.1-.9-2-2-2Z"/><path d="M19 5A2 2 0 1 0 19 9 2 2 0 1 0 19 5z"/></g><path d="m9.49,7.75c-.65.68-.65,1.74,0,2.41l2.51,2.58,2.51-2.58c.65-.67.65-1.74,0-2.41-.66-.67-1.69-.67-2.34,0l-.17.17-.17-.17c-.65-.67-1.69-.67-2.34,0Z"/></svg>