<svg xmlns="http://www.w3.org/2000/svg" width="24" height="24" viewBox="0 0 24 24"><g opacity="0.4"><path d="m11.5,2C6.83,2,2.01,5.24,2.01,10.67c0,2.72,1.03,5.05,2.99,6.79v4.54h10v-2h4v-5h2.84l-1.84-5.15c-.08-4.56-3.63-7.85-8.5-7.85Zm2.61,8.43c.04.19.05.38.05.57s-.02.38-.05.57l.89.51-1.06,1.84-.9-.52c-.29.25-.62.44-.98.57v1.03h-2.13v-1.03c-.35-.13-.69-.32-.98-.57l-.9.52-1.06-1.84.89-.51c-.04-.19-.05-.38-.05-.57s.02-.38.05-.57l-.89-.51,1.06-1.84.9.52c.29-.25.62-.44.98-.57v-1.03h2.13v1.03c.35.13.69.32.98.57l.9-.52,1.06,1.84-.89.51Z"/><path d="m11,9.45c-.84,0-1.55.71-1.55,1.55s.71,1.55,1.55,1.55,1.55-.71,1.55-1.55-.71-1.55-1.55-1.55Z"/></g><path d="m7.83,11c0,.19.02.38.05.57l-.89.51,1.06,1.84.9-.52c.29.25.62.44.98.57v1.03h2.13v-1.03c.35-.13.69-.32.98-.57l.9.52,1.06-1.84-.89-.51c.04-.19.05-.38.05-.57s-.02-.38-.05-.57l.89-.51-1.06-1.84-.9.52c-.29-.25-.62-.44-.98-.57v-1.03h-2.13v1.03c-.35.13-.69.32-.98.57l-.9-.52-1.06,1.84.89.51c-.04.19-.05.38-.05.57Zm3.17-1.55c.84,0,1.55.71,1.55,1.55s-.71,1.55-1.55,1.55-1.55-.71-1.55-1.55.71-1.55,1.55-1.55Z"/></svg>