<svg xmlns="http://www.w3.org/2000/svg" width="24" height="24" viewBox="0 0 24 24"><g opacity="0.4"><path d="M3 2H21V4H3z"/><path d="m21,8.45v-2.45h-2.84c.39,1.28,1.48,2.25,2.84,2.45Z"/><path d="m16.1,6H7.9c-.44,2.4-2.44,4.25-4.9,4.47v11.53h6l3-12,3,12h6v-11.53c-2.46-.22-4.46-2.08-4.9-4.47Z"/><path d="m5.84,6h-2.84v2.45c1.36-.2,2.45-1.16,2.84-2.45Z"/></g><path d="m3,6h2.84c-.39,1.29-1.48,2.26-2.84,2.46v2c2.46-.23,4.46-2.06,4.9-4.46h8.19c.44,2.39,2.44,4.23,4.9,4.46v-2c-1.35-.2-2.45-1.17-2.84-2.46h2.84v-2H3v2Z"/></svg>