<svg xmlns="http://www.w3.org/2000/svg" width="24" height="24" viewBox="0 0 24 24"><g opacity="0.4"><path d="m13.48,15.81c-.76-.45-2.03-1.26-3.03-2.26-1-1-1.81-2.27-2.26-3.03l2.66-2.46L6.54,1.6l-4.51,3.13-.02.5c-.03.71-.16,7.04,4.79,11.98,4.46,4.46,10.04,4.79,11.62,4.79.17,0,.3,0,.37,0l.5-.02,3.13-4.51-6.47-4.31-2.46,2.66Z"/></g><path d="m15.5,4c1.2,0,2.33.47,3.18,1.32.85.85,1.32,1.98,1.32,3.18s-.47,2.33-1.32,3.18l1.41,1.41c1.23-1.23,1.9-2.86,1.9-4.6s-.68-3.37-1.9-4.6-2.86-1.9-4.6-1.9-3.37.68-4.6,1.9l1.41,1.41c.85-.85,1.98-1.32,3.18-1.32Z"/><path d="m17.71,10.71c.59-.59.91-1.37.91-2.21s-.32-1.62-.91-2.21c-1.18-1.18-3.24-1.18-4.41,0l1.41,1.41c.44-.44,1.15-.44,1.59,0s.44,1.15,0,1.59l1.41,1.41Z"/></svg>