<svg xmlns="http://www.w3.org/2000/svg" width="24" height="24" viewBox="0 0 24 24"><g opacity="0.4"><path d="m18.76,5.24c-.51-1.33-1.8-2.24-3.26-2.24-.32,0-.63.04-.93.13-.65-.71-1.57-1.13-2.57-1.13s-1.91.42-2.57,1.13c-.3-.09-.62-.13-.93-.13-1.47,0-2.75.91-3.26,2.24-1.33.51-2.24,1.8-2.24,3.26,0,.93.37,1.76.96,2.39l-.18-.89h3.81l1.2,12h2.01l-1.2-12h4.79l-1.2,12h2.01l1.2-12h3.81l-.18.89c.59-.63.96-1.46.96-2.39,0-1.47-.91-2.75-2.24-3.26Z"/></g><path d="M10.81 22 13.19 22 14.39 10 9.61 10 10.81 22z"/><path d="M3.78 10 6.18 22 8.8 22 7.59 10 3.78 10z"/><path d="M15.2 22 17.82 22 20.22 10 16.41 10 15.2 22z"/></svg>