<svg xmlns="http://www.w3.org/2000/svg" width="24" height="24" viewBox="0 0 24 24"><g opacity="0.4"><path d="m8.15,9.69l-2.25,10.12.18.18,5.42-5.42s0-.05,0-.08c0-.83.67-1.5,1.5-1.5s1.5.67,1.5,1.5-.67,1.5-1.5,1.5c-.03,0-.05,0-.08,0l-5.42,5.42.18.18,10.12-2.25,2.61-6.85-5.41-5.41-6.85,2.61Z"/></g><path d="M2 5H10V7H2z"/><path d="M18 4.09 15 7.09 17.71 9.79 20.41 12.5 22.06 10.85 23.41 9.5 20.71 6.79 18 4.09z"/><path d="m6.09,20l1.41,1.41,5.42-5.42s.05,0,.08,0c.83,0,1.5-.67,1.5-1.5s-.67-1.5-1.5-1.5-1.5.67-1.5,1.5c0,.03,0,.05,0,.08l-5.42,5.42Z"/></svg>