<svg xmlns="http://www.w3.org/2000/svg" width="24" height="24" viewBox="0 0 24 24"><g opacity="0.4"><path d="m4.93,19.07c.92.92,1.99,1.64,3.18,2.14,1.23.52,2.54.79,3.89.79v-2c-1.08,0-2.13-.21-3.11-.63-.95-.4-1.81-.98-2.54-1.72-.73-.73-1.31-1.59-1.71-2.54-.42-.99-.63-2.03-.63-3.11s.21-2.13.63-3.11c.4-.95.98-1.81,1.71-2.54.17-.17.34-.33.52-.48l2.13,2.13V2H3l2.45,2.45c-.18.15-.36.31-.52.48-.92.92-1.64,1.99-2.14,3.18-.52,1.23-.79,2.54-.79,3.89s.26,2.66.79,3.89c.5,1.19,1.23,2.26,2.14,3.18Z"/></g><path d="m19.07,4.93c-.92-.92-1.99-1.64-3.18-2.14-1.23-.52-2.54-.79-3.89-.79v2c1.08,0,2.13.21,3.11.63.95.4,1.81.98,2.54,1.72.73.73,1.31,1.59,1.71,2.54.42.99.63,2.03.63,3.11s-.21,2.13-.63,3.11c-.4.95-.98,1.81-1.71,2.54-.17.17-.34.33-.52.48l-2.13-2.13v6h6l-2.45-2.45c.18-.15.36-.31.52-.48.92-.92,1.64-1.99,2.14-3.18.52-1.23.79-2.54.79-3.89s-.26-2.66-.79-3.89c-.5-1.19-1.23-2.26-2.14-3.18Z"/></svg>