<svg xmlns="http://www.w3.org/2000/svg" width="24" height="24" viewBox="0 0 24 24"><g opacity="0.4"><path d="m10.5,19.31c-.75.44-1.61.69-2.5.69-2.76,0-5-2.24-5-5,0-1.71.88-3.26,2.27-4.17-.13-.47-.22-.94-.24-1.44l-.04-.71c-2.41,1.15-3.98,3.59-3.98,6.31,0,3.86,3.14,7,7,7,1.43,0,2.8-.44,3.96-1.24l-.62-.55c-.31-.27-.58-.57-.83-.89Z"/><path d="m16.91,8.07c.48.06.95.16,1.41.32l.68.24c-.19-3.69-3.25-6.64-6.99-6.64s-6.8,2.95-6.99,6.64l.68-.24c.46-.16.93-.26,1.41-.32.44-2.32,2.47-4.08,4.91-4.08s4.47,1.76,4.91,4.07Z"/><path d="m19.02,8.69l-.04.71c-.03.5-.12.97-.24,1.44,1.38.91,2.27,2.46,2.27,4.17,0,2.76-2.24,5-5,5-.89,0-1.75-.24-2.5-.69-.25.32-.53.62-.83.89l-.62.55c1.16.8,2.53,1.24,3.96,1.24,3.86,0,7-3.14,7-7,0-2.72-1.57-5.17-3.98-6.31Z"/></g><path d="m9.02,15.31c.08,1.88.91,3.65,2.32,4.9l.66.59.66-.59c1.41-1.25,2.24-3.02,2.32-4.9,2.31-1.09,3.86-3.33,4-5.92l.04-.75-.7-.25c-2.1-.75-4.5-.39-6.31.87-1.82-1.27-4.21-1.62-6.31-.87l-.7.25.04.75c.14,2.59,1.68,4.83,4,5.92Z"/></svg>