<svg xmlns="http://www.w3.org/2000/svg" width="24" height="24" viewBox="0 0 24 24"><g opacity="0.4"><path d="m5.91,13.33c-2.87,1.78-2.89,7.7-2.89,7.7,0,0,4.51-.01,7.64-2.95l-4.75-4.75Z"/><path d="m17.41,9.41c.78-.78.78-2.05,0-2.83-.78-.78-2.05-.78-2.83,0-.78.78-.78,2.05,0,2.83.78.78,2.05.78,2.83,0Z"/></g><path d="m10.95,4.64l-2.26,2.26c-1.15-.22-3.69-.43-6.24,1.27l-1.01.68,13.57,13.57.71-.71c1.9-1.9,1.6-5.08,1.38-6.38l2.28-2.28c1.7-1.7,2.64-3.96,2.64-6.36V2h-4.69c-2.4,0-4.66.94-6.36,2.64Zm6.46,4.78c-.78.78-2.05.78-2.83,0-.78-.78-.78-2.05,0-2.83.78-.78,2.05-.78,2.83,0,.78.78.78,2.05,0,2.83Z"/></svg>