<svg xmlns="http://www.w3.org/2000/svg" width="24" height="24" viewBox="0 0 24 24"><g opacity="0.4"><path d="m7,12.37c-1.47.77-5,3.09-5,7.63v1h5v-8.63Z"/><path d="m17,12.37v8.63h5v-1c0-4.54-3.53-6.86-5-7.63Z"/><path d="m12,11c.83,0,1.5-.67,1.5-1.5s-.67-1.5-1.5-1.5c-.83,0-1.5.67-1.5,1.5s.67,1.5,1.5,1.5Z"/></g><path d="m12,1.59l-4.12,4.12c-.57.57-.88,1.32-.88,2.12v13.17h10V7.83c0-.8-.31-1.55-.88-2.12L12,1.59Zm0,9.41c-.83,0-1.5-.67-1.5-1.5s.67-1.5,1.5-1.5c.83,0,1.5.67,1.5,1.5s-.67,1.5-1.5,1.5Z"/></svg>