<svg xmlns="http://www.w3.org/2000/svg" width="24" height="24" viewBox="0 0 24 24"><g opacity="0.4"><path d="m4.93,19.07c.17.17.35.32.52.48l-2.45,2.45h6v-6l-2.13,2.13c-.18-.15-.36-.31-.52-.48-.73-.73-1.31-1.59-1.71-2.54-.42-.99-.63-2.03-.63-3.11s.21-2.13.63-3.11c.4-.95.98-1.81,1.71-2.54s1.59-1.31,2.54-1.72c.99-.42,2.03-.63,3.11-.63v-2c-1.35,0-2.66.26-3.89.79-1.19.5-2.26,1.22-3.18,2.14-.92.92-1.64,1.99-2.14,3.18-.52,1.23-.79,2.54-.79,3.89s.26,2.66.79,3.89c.5,1.19,1.23,2.26,2.14,3.18Z"/><path d="m19.07,4.93c-.17-.17-.35-.32-.52-.48l2.45-2.45h-6v6l2.13-2.13c.18.15.36.31.52.48.73.73,1.31,1.59,1.71,2.54.42.99.63,2.03.63,3.11s-.21,2.13-.63,3.11c-.4.95-.98,1.81-1.71,2.54s-1.59,1.31-2.54,1.71c-.99.42-2.03.63-3.11.63v2c1.35,0,2.66-.26,3.89-.79,1.19-.5,2.26-1.22,3.18-2.14.92-.92,1.64-1.99,2.14-3.18.52-1.23.79-2.54.79-3.89s-.26-2.66-.79-3.89c-.5-1.19-1.23-2.26-2.14-3.18Z"/></g><path d="M12 9A3 3 0 1 0 12 15 3 3 0 1 0 12 9z"/></svg>