<svg xmlns="http://www.w3.org/2000/svg" width="24" height="24" viewBox="0 0 24 24"><g opacity="0.4"><path d="m12,7c-3.71,0-10,.74-10,3.5v8c0,2.1,3.63,3.03,7,3.35v-3.85h6v3.85c3.37-.33,7-1.25,7-3.35v-8c0-2.76-6.29-3.5-10-3.5Zm0,2c4.75,0,7.4.99,7.94,1.5h-.1s.02.03.02.05c-.65.52-3.26,1.45-7.86,1.45s-7.21-.92-7.86-1.45c0-.02.01-.03.02-.05h-.1c.54-.51,3.19-1.5,7.94-1.5Z"/></g><path d="m17,5v2.42c.7.12,1.38.28,2,.47v-1.69l3-1.2-5-2v2Z"/><path d="m7,6.2l3-1.2-5-2v4.89c.62-.19,1.3-.35,2-.47v-1.22Z"/><path d="m13,7.02v-1.82l3-1.2-5-2v5.02c.35-.01.68-.02,1-.02s.65,0,1,.02Z"/><path d="m12,12c4.6,0,7.21-.92,7.86-1.45l.07-.05c-.54-.51-3.19-1.5-7.94-1.5s-7.4.99-7.94,1.5l.07.05c.65.52,3.26,1.45,7.86,1.45Z"/></svg>