<svg xmlns="http://www.w3.org/2000/svg" width="24" height="24" viewBox="0 0 24 24"><g opacity="0.4"><path d="M12 6.99A5.01 5.01 0 1 0 12 17.009999999999998 5.01 5.01 0 1 0 12 6.99z"/></g><path d="M11 19H13V21H11z"/><path d="M11 3H13V5H11z"/><path d="M3 11H5V13H3z"/><path d="M19 11H21V13H19z"/><path d="M7.76 17.66 7.05 16.95 6.34 16.24 5.64 16.95 4.93 17.66 5.64 18.36 6.34 19.07 7.05 18.36 7.76 17.66z"/><path d="M17.66 7.76 18.36 7.05 19.07 6.34 18.36 5.64 17.66 4.93 16.95 5.64 16.24 6.34 16.95 7.05 17.66 7.76z"/><path d="M6.34 7.76 7.05 7.05 7.76 6.34 7.05 5.64 6.34 4.93 5.64 5.64 4.93 6.34 5.64 7.05 6.34 7.76z"/><path d="M17.66 16.24 16.95 16.95 16.24 17.66 16.95 18.36 17.66 19.07 18.36 18.36 19.07 17.66 18.36 16.95 17.66 16.24z"/></svg>