<svg xmlns="http://www.w3.org/2000/svg" width="24" height="24" viewBox="0 0 24 24"><g opacity="0.4"><path d="M13 5.59 13 2 11 2 11 5.59 12 6.59 13 5.59z"/><path d="M13 11 13 8.41 12 9.41 11 8.41 11 11 8.41 11 9.41 12 8.41 13 11 13 11 15.59 12 14.59 13 15.59 13 13 15.59 13 14.59 12 15.59 11 13 11z"/><path d="M11 18.41 11 22 13 22 13 18.41 12 17.41 11 18.41z"/><path d="M17.41 12 18.41 13 22 13 22 11 18.41 11 17.41 12z"/><path d="M2 11 2 13 5.59 13 6.59 12 5.59 11 2 11z"/></g><path d="M16.71 4.71 15.29 3.29 12 6.59 8.71 3.29 7.29 4.71 12 9.41 16.71 4.71z"/><path d="M7.29 19.29 8.71 20.71 12 17.41 15.29 20.71 16.71 19.29 12 14.59 7.29 19.29z"/><path d="M19.29 16.71 20.71 15.29 17.41 12 20.71 8.71 19.29 7.29 14.59 12 19.29 16.71z"/><path d="M4.71 16.71 9.41 12 4.71 7.29 3.29 8.71 6.59 12 3.29 15.29 4.71 16.71z"/></svg>