<svg xmlns="http://www.w3.org/2000/svg" width="24" height="24" viewBox="0 0 24 24"><g opacity="0.4"><path d="m2,4v2h3.16c-.1-.32-.16-.65-.16-1s.07-.68.16-1h-3.16Z"/><path d="m2,18v2h3.16c-.1-.32-.16-.65-.16-1s.07-.68.16-1h-3.16Z"/><path d="m2,11v2h11.16c-.1-.32-.16-.65-.16-1s.07-.68.16-1H2Z"/><path d="m12,5c0,.35-.07.68-.16,1h10.16v-2h-10.16c.1.32.16.65.16,1Z"/><path d="m12,19c0,.35-.07.68-.16,1h10.16v-2h-10.16c.1.32.16.65.16,1Z"/><path d="m20,12c0,.35-.07.68-.16,1h2.16v-2h-2.16c.1.32.16.65.16,1Z"/></g><path d="M8.5 1.5A3.5 3.5 0 1 0 8.5 8.5 3.5 3.5 0 1 0 8.5 1.5z"/><path d="M8.5 15.5A3.5 3.5 0 1 0 8.5 22.5 3.5 3.5 0 1 0 8.5 15.5z"/><path d="M16.5 8.5A3.5 3.5 0 1 0 16.5 15.5 3.5 3.5 0 1 0 16.5 8.5z"/></svg>