<svg xmlns="http://www.w3.org/2000/svg" width="24" height="24" viewBox="0 0 24 24"><g opacity="0.4"><path d="m12,7c-2.97,0-5.43,2.17-5.91,5h11.82c-.48-2.83-2.94-5-5.91-5Z"/></g><path d="M2 12H22V14H2z"/><path d="M11 2H13V5H11z"/><path d="M17.71 7.71 18.71 6.71 19.71 5.71 19 5 18.29 4.29 17.29 5.29 16.29 6.29 17 7 17.71 7.71z"/><path d="M6.29 7.71 7 7 7.71 6.29 6.71 5.29 5.71 4.29 5 5 4.29 5.71 5.29 6.71 6.29 7.71z"/><path d="M8 16H20V18H8z"/><path d="M4 16H7V18H4z"/><path d="M6 20H16V22H6z"/></svg>