<svg xmlns="http://www.w3.org/2000/svg" width="24" height="24" viewBox="0 0 24 24"><g opacity="0.4"><path d="M3 15H5V20H3z"/><path d="M7 12H9V20H7z"/><path d="M11 9.59 13 11.59 13 9 11 9 11 9.59z"/><path d="M11 20 13 20 13 14.41 11 12.41 11 20z"/><path d="M15 20 17 20 17 18.41 15 16.41 15 20z"/><path d="M15 13.59 17 15.59 17 6 15 6 15 13.59z"/><path d="M19 17.59 21 19.59 21 3 19 3 19 17.59z"/></g><path d="M2.71 1.29 2 2 1.29 2.71 11.29 12.71 21.29 22.71 22 22 22.71 21.29 12.71 11.29 2.71 1.29z"/></svg>