<svg xmlns="http://www.w3.org/2000/svg" width="24" height="24" viewBox="0 0 24 24"><g opacity="0.4"><path d="m7.76,7.76c-1.13,1.13-1.76,2.64-1.76,4.24s.62,3.11,1.76,4.24l1.41-1.41c-.76-.76-1.17-1.76-1.17-2.83s.42-2.07,1.17-2.83l-1.41-1.41Z"/><path d="m14.83,9.17c.76.76,1.17,1.76,1.17,2.83s-.42,2.07-1.17,2.83l1.41,1.41c1.13-1.13,1.76-2.64,1.76-4.24s-.62-3.11-1.76-4.24l-1.41,1.41Z"/></g><path d="m12,10c-1.1,0-2,.9-2,2,0,1.1.89,2,2,2s2-.9,2-2-.9-2-2-2Z"/><path d="m6.34,6.34l-1.41-1.41c-3.9,3.9-3.9,10.24,0,14.14l1.41-1.41c-3.12-3.12-3.12-8.19,0-11.31Z"/><path d="m17.66,6.34c3.12,3.12,3.12,8.19,0,11.31l1.41,1.41c3.9-3.9,3.9-10.24,0-14.14l-1.41,1.41Z"/></svg>