<svg xmlns="http://www.w3.org/2000/svg" width="24" height="24" viewBox="0 0 24 24"><g opacity="0.4"><path d="m14.5,7c-4.14,0-7.5,3.36-7.5,7.5s3.36,7.5,7.5,7.5,7.5-3.36,7.5-7.5-3.36-7.5-7.5-7.5Zm0,13c-3.03,0-5.5-2.47-5.5-5.5s2.47-5.5,5.5-5.5,5.5,2.47,5.5,5.5-2.47,5.5-5.5,5.5Z"/></g><path d="m7,14.5s0-.07,0-.1c-1.78-.91-3.01-2.76-3.01-4.9,0-3.03,2.47-5.5,5.5-5.5,2.13,0,3.98,1.22,4.9,3.01.04,0,.07,0,.1,0,.76,0,1.49.11,2.18.32-.93-3.08-3.8-5.32-7.18-5.32-4.14,0-7.5,3.36-7.5,7.5,0,3.38,2.25,6.24,5.32,7.18-.21-.69-.32-1.42-.32-2.18Z"/><path d="m9.5,15c-.16,0-.32-.01-.48-.02.06.72.27,1.4.58,2.02,4.05-.06,7.33-3.34,7.39-7.39-.62-.32-1.3-.52-2.02-.58.01.16.02.32.02.48,0,3.03-2.47,5.5-5.5,5.5Z"/></svg>