<svg xmlns="http://www.w3.org/2000/svg" width="24" height="24" viewBox="0 0 24 24"><g opacity="0.4"><path d="M3 9 5 9 5 5 9 5 9 3 3 3 3 9z"/><path d="M5 15 3 15 3 21 9 21 9 19 5 19 5 15z"/><path d="M19 19 15 19 15 21 21 21 21 15 19 15 19 19z"/><path d="M15 5 19 5 19 9 21 9 21 3 15 3 15 5z"/></g><path d="M8.5 8A1.5 1.5 0 1 0 8.5 11 1.5 1.5 0 1 0 8.5 8z"/><path d="m15.5,11c.83,0,1.5-.67,1.5-1.5s-.67-1.5-1.5-1.5-1.5.67-1.5,1.5.67,1.5,1.5,1.5Z"/><path d="m16.24,15.24c.27-.27.52-.57.73-.89l-1.66-1.12c-.14.21-.31.41-.49.59-.18.18-.38.34-.59.49-.22.15-.44.27-.68.37-.24.1-.49.18-.75.23-.53.11-1.09.11-1.62,0-.26-.05-.51-.13-.75-.23-.24-.1-.46-.22-.68-.37-.21-.14-.41-.31-.59-.49s-.35-.38-.49-.59l-1.66,1.12c.21.32.46.62.73.89.27.27.57.52.89.73.32.22.66.4,1.02.55.36.15.74.27,1.13.35.4.08.8.12,1.21.12s.81-.04,1.21-.12c.38-.08.76-.2,1.13-.35.35-.15.7-.34,1.02-.55.32-.22.62-.46.88-.73Z"/></svg>