<svg xmlns="http://www.w3.org/2000/svg" width="24" height="24" viewBox="0 0 24 24"><g opacity="0.4"><path d="m17.4,15c-.64,0-.91.15-1.32.38-.5.28-1.13.62-2.29.62s-1.78-.35-2.29-.63c-.4-.23-.67-.37-1.31-.37s-.91.15-1.31.37c-.5.28-1.13.63-2.29.63s-1.78-.35-2.28-.63c-.4-.23-.67-.37-1.31-.37v2c1.16,0,1.78.35,2.29.63.4.23.67.37,1.31.37s.91-.15,1.31-.37c.5-.28,1.13-.63,2.29-.63s1.78.35,2.29.63c.4.23.67.37,1.31.37s.91-.15,1.32-.37c.5-.28,1.13-.63,2.29-.63s1.79.35,2.29.63c.41.22.67.37,1.32.37v-2c-1.16,0-1.79-.35-2.29-.63-.41-.22-.67-.37-1.32-.37Z"/><path d="m3,13c1.16,0,1.78.35,2.29.63.4.23.67.37,1.31.37s.91-.15,1.31-.37c.5-.28,1.13-.63,2.29-.63s1.78.35,2.29.63c.4.23.67.37,1.31.37s.91-.15,1.32-.37c.5-.28,1.13-.63,2.29-.63s1.79.35,2.29.63c.41.22.67.37,1.32.37V2H3v11Zm5.5-7c.83,0,1.5.67,1.5,1.5s-.67,1.5-1.5,1.5-1.5-.67-1.5-1.5.67-1.5,1.5-1.5Z"/><path d="m20.93,22h.07v-2s-.04,0-.07,0v2Z"/></g><path d="m17.4,13c-1.16,0-1.79.35-2.29.63-.41.23-.67.37-1.32.37s-.91-.15-1.31-.37c-.5-.28-1.13-.63-2.29-.63s-1.78.35-2.29.63c-.4.23-.67.37-1.31.37s-.91-.15-1.31-.37c-.5-.28-1.13-.63-2.29-.63v2c.64,0,.91.15,1.31.37.5.28,1.13.63,2.28.63s1.78-.35,2.29-.63c.4-.23.67-.37,1.31-.37s.91.15,1.31.37c.5.28,1.13.63,2.29.63s1.78-.35,2.29-.62c.41-.23.67-.38,1.32-.38s.91.15,1.32.37c.5.28,1.13.63,2.29.63v-2c-.64,0-.91-.15-1.32-.37-.5-.28-1.13-.63-2.29-.63Z"/><path d="M8.5 6A1.5 1.5 0 1 0 8.5 9 1.5 1.5 0 1 0 8.5 6z"/><path d="m17.4,17c-1.16,0-1.79.35-2.29.63-.41.23-.67.37-1.32.37s-.91-.15-1.31-.37c-.5-.28-1.13-.63-2.29-.63s-1.78.35-2.29.63c-.4.23-.67.37-1.31.37s-.91-.15-1.31-.37c-.5-.28-1.13-.63-2.29-.63v5h17.93v-2s.04,0,.07,0v-2c-.64,0-.91-.15-1.32-.37-.5-.28-1.13-.63-2.29-.63Z"/></svg>