<svg xmlns="http://www.w3.org/2000/svg" width="24" height="24" viewBox="0 0 24 24"><g opacity="0.4"><path d="m12,2C6.49,2,2,6.49,2,12s4.49,10,10,10,10-4.49,10-10S17.51,2,12,2Zm-7,10c0-1.87.73-3.63,2.05-4.95s3.08-2.05,4.95-2.05c.38,0,.76.04,1.13.1L5.1,13.13c-.06-.37-.1-.75-.1-1.13Zm2.05,4.95c-.42-.42-.78-.9-1.08-1.4L15.55,5.97c.5.3.97.65,1.4,1.08s.78.9,1.08,1.4l-9.58,9.58c-.5-.3-.98-.65-1.4-1.08Zm9.9,0c-1.32,1.32-3.08,2.05-4.95,2.05-.38,0-.76-.04-1.13-.1l8.03-8.03c.06.37.1.75.1,1.13,0,1.87-.73,3.63-2.05,4.95Z"/></g><path d="m7.05,16.95c.42.42.9.78,1.4,1.08l9.58-9.58c-.3-.5-.65-.97-1.08-1.4s-.9-.78-1.4-1.08L5.97,15.55c.3.5.65.97,1.08,1.4Z"/><path d="m13.13,5.1c-.37-.06-.75-.1-1.13-.1-1.87,0-3.63.73-4.95,2.05s-2.05,3.08-2.05,4.95c0,.38.04.76.1,1.13L13.13,5.1Z"/><path d="m12,19c1.87,0,3.63-.73,4.95-2.05,1.32-1.32,2.05-3.08,2.05-4.95,0-.38-.04-.76-.1-1.13l-8.03,8.03c.37.06.75.1,1.13.1Z"/></svg>