<svg xmlns="http://www.w3.org/2000/svg" width="24" height="24" viewBox="0 0 24 24"><g opacity="0.4"><path d="m19,10.5c0-4.69-3.81-8.5-8.5-8.5S2,5.81,2,10.5s3.81,8.5,8.5,8.5c1.98,0,3.81-.69,5.25-1.83l4.25,4.25,1.41-1.41-4.25-4.25c1.14-1.45,1.83-3.27,1.83-5.25Zm-9.29,1.79l-1.41,1.41-3.21-3.21,3.21-3.21,1.41,1.41-1.79,1.79,1.79,1.79Zm3,1.41l-1.41-1.41,1.79-1.79-1.79-1.79,1.41-1.41,3.21,3.21-3.21,3.21Z"/></g><path d="M11.29 8.71 13.09 10.5 11.29 12.29 12.71 13.71 15.91 10.5 12.71 7.29 11.29 8.71z"/><path d="M8.29 7.29 5.09 10.5 8.29 13.71 9.71 12.29 7.91 10.5 9.71 8.71 8.29 7.29z"/></svg>