<svg xmlns="http://www.w3.org/2000/svg" width="24" height="24" viewBox="0 0 24 24"><g opacity="0.4"><path d="m1.38,12l5,10h15.24l-5-10H1.38Zm15,4h-4.01l-1-2h4.01l1,2Zm-7.25-2l1,2h-4.51l-1-2h4.51Zm-2.51,4h4.51l1,2h-4.51l-1-2Zm7.75,2l-1-2h4.01l1,2h-4.01Z"/></g><path d="M11 2H13V5H11z"/><path d="M19 11H22V13H19z"/><path d="M17.66 7.76 18.72 6.7 19.78 5.64 19.07 4.93 18.36 4.22 17.3 5.28 16.24 6.34 16.95 7.05 17.66 7.76z"/><path d="M6.34 7.76 7.05 7.05 7.76 6.34 6.7 5.28 5.64 4.22 4.93 4.93 4.22 5.64 5.28 6.7 6.34 7.76z"/><path d="m8,12h8.62l.38.76v-.76c0-2.76-2.24-5-5-5s-5,2.24-5,5h1Z"/></svg>