<svg xmlns="http://www.w3.org/2000/svg" width="24" height="24" viewBox="0 0 24 24"><g opacity="0.4"><path d="m19.14,14.57c-.06-.02.07-.69.33-1.23,1.28-2.68,2.67-5.61,2.46-8.72-.05-.31-.08-.61-.38-.93-.18-.21-.62-.38-.91-.32-.69.18-.67.33-.99.64-2.44,3.45-4.03,7.57-7.58,10.02-1.06.72-2.34,1.15-3.56,1-.72-.09-1.38-.41-1.96-.85,1.94-1.65,4.13-3.09,5.8-5.1.99-1.04,1.61-2.9-.06-3.7-3.27-1.06-8.74,0-9.16,4.11-.07,1.48.44,2.87,1.3,3.99-.66.64-1.29,1.32-1.82,2.08-.2.36-.46.74-.49,1.44,0,0,1.72,0,1.72,0,.57-.81,1.24-1.52,1.97-2.19.76.55,1.64.93,2.58,1.09,5.24.23,8.56-4.94,11.42-8.95-.26,1.28-.74,2.51-1.32,3.73-2.26,4.25-1.75,6.4,3.49,6.18,0,0,0-1.72,0-1.72-.9-.06-1.86-.07-2.64-.4-.2-.1-.22-.17-.22-.17ZM6.69,7.44c1.23-.47,3.42-.52,4.54-.32-.75,1.3-2.13,2.22-3.29,3.31-.87.77-1.79,1.51-2.67,2.3-1.17-1.92-1.13-4.47,1.42-5.28Z"/></g><path d="M2 19H22V21H2z"/></svg>