<svg xmlns="http://www.w3.org/2000/svg" width="24" height="24" viewBox="0 0 24 24"><g opacity="0.4"><path d="M11.5 6.09 14.71 9.29 13.29 10.71 10.09 7.5 8.5 9.09 11.71 12.29 10.29 13.71 7.09 10.5 4 13.59 4 18.59 5.41 20 10.41 20 20 10.41 13.59 4 11.5 6.09z"/></g><path d="M13.29 10.71 14 10 14.71 9.29 13.1 7.69 11.5 6.09 10.79 6.79 10.09 7.5 11.69 9.1 13.29 10.71z"/><path d="M10.29 13.71 11 13 11.71 12.29 10.1 10.69 8.5 9.09 7.79 9.79 7.09 10.5 8.69 12.1 10.29 13.71z"/><path d="M5.41 20 4.71 19.29 4 18.59 2.65 19.94 1.29 21.29 2 22 2.71 22.71 4.06 21.35 5.41 20z"/><path d="M21.29 6.71 22.71 5.29 18.71 1.29 17.29 2.71 18.59 4 17.5 5.09 13.71 1.29 12.29 2.71 21.29 11.71 22.71 10.29 18.91 6.5 20 5.41 21.29 6.71z"/></svg>