<svg xmlns="http://www.w3.org/2000/svg" width="24" height="24" viewBox="0 0 24 24"><g opacity="0.4"><path d="M11.16 3 3 11.16 3 15.84 15.84 3 11.16 3z"/><path d="M12.84 21 21 12.84 21 8.16 8.16 21 12.84 21z"/><path d="M21 21 21 15.66 15.66 21 21 21z"/><path d="M3 18.66 3 21 5.34 21 21 5.34 21 3 18.66 3 3 18.66z"/><path d="M3 3 3 8.34 8.34 3 3 3z"/></g><path d="M15.84 3 3 15.84 3 18.66 18.66 3 15.84 3z"/><path d="M8.34 3 3 8.34 3 11.16 11.16 3 8.34 3z"/><path d="M8.16 21 21 8.16 21 5.34 5.34 21 8.16 21z"/><path d="M15.66 21 21 15.66 21 12.84 12.84 21 15.66 21z"/></svg>