<svg xmlns="http://www.w3.org/2000/svg" width="24" height="24" viewBox="0 0 24 24"><g opacity="0.4"><path d="m12,4c-5.51,0-10,4.49-10,10,0,1.99.58,3.91,1.69,5.56l.3.44h16.03l.3-.44c1.1-1.65,1.69-3.57,1.69-5.56,0-5.51-4.49-10-10-10Zm5.02,5.02l-3.96,6.04s0,0,0,0c-.46.71-1.41.9-2.12.44-.18-.12-.33-.27-.44-.44-.46-.71-.26-1.66.44-2.12l6.04-3.96s.04,0,.04.01c0,.01,0,.02,0,.03Z"/></g><path d="m10.94,15.5c.71.46,1.65.27,2.12-.44,0,0,0,0,0,0l3.96-6.04s0-.02,0-.03c0-.02-.03-.02-.04-.01l-6.04,3.96c-.71.46-.91,1.41-.44,2.12.12.18.27.33.44.44Z"/></svg>