<svg xmlns="http://www.w3.org/2000/svg" width="24" height="24" viewBox="0 0 24 24"><g opacity="0.4"><path d="m9,2h-2v2H2v2h8.3c-.25,1.91-1.19,3.34-2.31,4.4-.69-.65-1.31-1.44-1.74-2.4h-2.13c.5,1.44,1.33,2.63,2.3,3.61-1.57.99-3.04,1.39-3.17,1.42l.49,1.94c1.18-.3,2.76-.96,4.26-2.02,1.49,1.06,3.08,1.72,4.25,2.02l.49-1.94c-.13-.03-1.6-.43-3.17-1.42,1.4-1.41,2.49-3.26,2.74-5.61h1.68v-2h-5v-2Z"/></g><path d="m16.09,11.59l-4,9,1.83.81,1.07-2.41h4.03l1.07,2.41,1.83-.81-4-9h-1.83Zm-.21,5.41l1.13-2.54,1.13,2.54h-2.26Z"/></svg>