<svg xmlns="http://www.w3.org/2000/svg" width="24" height="24" viewBox="0 0 24 24"><g opacity="0.4"><path d="m10,6c-4.11,0-7.53,4.23-7.96,9.83-.04.56.15,1.12.53,1.53.38.41.91.64,1.46.64h13.96v-1c0-6.07-3.59-11-8-11Zm1,7.5c-.28,0-.5-.22-.5-.5s.22-.5.5-.5.5.22.5.5-.22.5-.5.5Zm1-2c-.28,0-.5-.22-.5-.5s.22-.5.5-.5.5.22.5.5-.22.5-.5.5Zm2,2c-.28,0-.5-.22-.5-.5s.22-.5.5-.5.5.22.5.5-.22.5-.5.5Z"/></g><path d="m14,6h-4c4.41,0,8,4.93,8,11v1h1v-.02c.82-.04,1.6-.41,2.13-1.04.57-.67.81-1.54.67-2.4-.83-5.03-4.03-8.55-7.8-8.55Z"/><path d="M11 12.5A.5.5 0 1 0 11 13.5.5.5 0 1 0 11 12.5z"/><path d="M14 12.5A.5.5 0 1 0 14 13.5.5.5 0 1 0 14 12.5z"/><path d="M12 10.5A.5.5 0 1 0 12 11.5.5.5 0 1 0 12 10.5z"/></svg>