<svg xmlns="http://www.w3.org/2000/svg" width="24" height="24" viewBox="0 0 24 24"><g opacity="0.4"><path d="M4 5 9.7 5 6 8.21 6 10.86 12.76 5 20 5 20 2 4 2 4 5z"/><path d="M18 5.54 6 15.94 6 18.59 18 8.19 18 5.54z"/><path d="M18 15.66 18 13.01 11.09 19 4 19 4 22 20 22 20 19 14.14 19 18 15.66z"/></g><path d="M6 10.86 6 15.94 18 5.54 18 5 12.76 5 6 10.86z"/><path d="M6 8.21 9.7 5 6 5 6 8.21z"/><path d="M18 19 18 15.66 14.14 19 18 19z"/><path d="M6 19 11.09 19 18 13.01 18 8.19 6 18.59 6 19z"/></svg>