<svg xmlns="http://www.w3.org/2000/svg" width="24" height="24" viewBox="0 0 24 24"><g opacity="0.4"><path d="m14.5,5c-2.04,0-3.92.82-5.3,2.2,3.32.77,5.8,3.75,5.8,7.3h-2c0-2.97-2.37-5.39-5.31-5.49-3.12-.12-5.69,2.4-5.69,5.49s2.47,5.5,5.5,5.5h7c4.14,0,7.5-3.36,7.5-7.5s-3.36-7.5-7.5-7.5Z"/></g><path d="m3.5,9c.35,0,.66-.12.92-.32l.61.91c.62-.31,1.3-.51,2.03-.56l-.82-1.22c.45-.26.76-.74.76-1.3,0-.83-.67-1.5-1.5-1.5-.69,0-1.27.47-1.44,1.11-.17-.07-.36-.11-.56-.11-.83,0-1.5.67-1.5,1.5s.67,1.5,1.5,1.5Z"/><path d="m13,14.5h2c0-3.55-2.48-6.52-5.8-7.3-.53.53-.98,1.13-1.34,1.81-.06,0-.11,0-.17,0,2.94.1,5.3,2.52,5.3,5.49Z"/></svg>