<svg xmlns="http://www.w3.org/2000/svg" width="24" height="24" viewBox="0 0 24 24"><g opacity="0.4"><path d="M14 12.59 14 2.13 7.73 6.31 14 12.59z"/><path d="M2 7 2 17 6.7 17 14 21.87 14 15.41 5.59 7 2 7z"/><path d="m16,7.54v7.05l.88.88c.7-.98,1.12-2.17,1.12-3.47,0-1.77-.78-3.36-2-4.46Z"/><path d="m16,2.84v2.24c2.39,1.39,4,3.96,4,6.92,0,1.85-.63,3.55-1.69,4.9l1.42,1.42c1.41-1.72,2.27-3.92,2.27-6.32,0-4.09-2.47-7.61-6-9.16Z"/><path d="m16,18.92v2.24c.84-.37,1.62-.85,2.32-1.43l-1.42-1.42c-.28.22-.58.43-.9.61Z"/></g><path d="M2.71 1.29 2 2 1.29 2.71 11.29 12.71 21.29 22.71 22 22 22.71 21.29 12.71 11.29 2.71 1.29z"/></svg>