<svg xmlns="http://www.w3.org/2000/svg" width="24" height="24" viewBox="0 0 24 24"><g opacity="0.4"><path d="m7,3.34C2.23,6.1.58,12.22,3.34,17c1.85,3.2,5.22,5,8.68,5,1.69,0,3.41-.43,4.98-1.34,4.77-2.76,6.42-8.89,3.66-13.66C17.9,2.22,11.78.58,7,3.34Zm8.5,4.16c.55,0,1,.45,1,1s-.45,1-1,1-1-.45-1-1,.45-1,1-1Zm-9.5,4.5c0-.55.45-1,1-1s1,.45,1,1-.45,1-1,1-1-.45-1-1Zm2.5,4.5c-.55,0-1-.45-1-1s.45-1,1-1,1,.45,1,1-.45,1-1,1Zm0-7c-.55,0-1-.45-1-1s.45-1,1-1,1,.45,1,1-.45,1-1,1Zm3.5,8.5c-.55,0-1-.45-1-1s.45-1,1-1,1,.45,1,1-.45,1-1,1Zm0-10c-.55,0-1-.45-1-1s.45-1,1-1,1,.45,1,1-.45,1-1,1Zm3.5,8.5c-.55,0-1-.45-1-1s.45-1,1-1,1,.45,1,1-.45,1-1,1Zm1.5-3.5c-.55,0-1-.45-1-1s.45-1,1-1,1,.45,1,1-.45,1-1,1Z"/></g><path d="M12 16A1 1 0 1 0 12 18 1 1 0 1 0 12 16z"/><path d="M8.5 7.5A1 1 0 1 0 8.5 9.5 1 1 0 1 0 8.5 7.5z"/><path d="M17 11A1 1 0 1 0 17 13 1 1 0 1 0 17 11z"/><path d="M15.5 14.5A1 1 0 1 0 15.5 16.5 1 1 0 1 0 15.5 14.5z"/><path d="M15.5 7.5A1 1 0 1 0 15.5 9.5 1 1 0 1 0 15.5 7.5z"/><path d="M7 11A1 1 0 1 0 7 13 1 1 0 1 0 7 11z"/><path d="M8.5 14.5A1 1 0 1 0 8.5 16.5 1 1 0 1 0 8.5 14.5z"/><path d="M12 6A1 1 0 1 0 12 8 1 1 0 1 0 12 6z"/></svg>