<svg xmlns="http://www.w3.org/2000/svg" width="24" height="24" viewBox="0 0 24 24"><g opacity="0.4"><path d="m20.91,6.35L12,1.88,3.09,6.35l-.05.55c-.01.11-.96,10.77,8.55,15.01l.41.18.41-.18c9.51-4.25,8.57-14.91,8.55-15.01l-.05-.55Zm-5.2,7.94l-1.41,1.41-2.29-2.29-2.29,2.29-1.41-1.41,2.29-2.29-2.29-2.29,1.41-1.41,2.29,2.29,2.29-2.29,1.41,1.41-2.29,2.29,2.29,2.29Z"/></g><path d="M9.71 15.71 12 13.41 14.29 15.71 15.71 14.29 13.41 12 15.71 9.71 14.29 8.29 12 10.59 9.71 8.29 8.29 9.71 10.59 12 8.29 14.29 9.71 15.71z"/></svg>