<svg xmlns="http://www.w3.org/2000/svg" width="24" height="24" viewBox="0 0 24 24"><g opacity="0.4"><path d="m19.37,15.11c-.4.95-.98,1.81-1.71,2.54s-1.59,1.31-2.54,1.71c-1.94.82-4.18.83-6.12.04-.05-1.34-1.14-2.41-2.49-2.41s-2.5,1.11-2.5,2.5,1.11,2.5,2.5,2.5c.69,0,1.32-.28,1.77-.73,1.19.48,2.44.73,3.73.73s2.66-.26,3.89-.79c1.19-.5,2.26-1.22,3.18-2.14.92-.92,1.64-1.99,2.14-3.18.52-1.23.79-2.54.79-3.89h-2c0,1.08-.21,2.13-.63,3.11Z"/><path d="m4.63,8.89c.4-.95.98-1.81,1.71-2.54s1.59-1.31,2.54-1.72c1.94-.82,4.18-.83,6.12-.04.05,1.34,1.14,2.41,2.49,2.41s2.5-1.11,2.5-2.5-1.11-2.5-2.5-2.5c-.69,0-1.32.28-1.77.73-2.43-.98-5.21-.96-7.63.06-1.19.5-2.26,1.22-3.18,2.14-.92.92-1.64,1.99-2.14,3.18-.52,1.23-.79,2.54-.79,3.89h2c0-1.08.21-2.13.63-3.11Z"/></g><path d="M12 7A5 5 0 1 0 12 17 5 5 0 1 0 12 7z"/></svg>