<svg xmlns="http://www.w3.org/2000/svg" width="24" height="24" viewBox="0 0 24 24"><g opacity="0.4"><path d="m15.34,5c-1.94,0-2.96.61-3.85,1.14-.8.48-1.43.86-2.82.86s-2.02-.38-2.82-.86c-.89-.54-1.9-1.14-3.85-1.14v2c1.39,0,2.02.38,2.82.86.89.54,1.9,1.14,3.85,1.14s2.96-.61,3.85-1.14c.8-.48,1.43-.86,2.82-.86s2.02.38,2.82.86c.89.54,1.9,1.14,3.85,1.14v-2c-1.39,0-2.02-.38-2.82-.86-.89-.54-1.9-1.14-3.85-1.14Z"/><path d="m15.34,15c-1.94,0-2.96.61-3.85,1.14-.8.48-1.43.86-2.82.86s-2.02-.38-2.82-.86c-.89-.54-1.9-1.14-3.85-1.14v2c1.39,0,2.02.38,2.82.86.89.54,1.9,1.14,3.85,1.14s2.96-.61,3.85-1.14c.8-.48,1.43-.86,2.82-.86s2.02.38,2.82.86c.89.54,1.9,1.14,3.85,1.14v-2c-1.39,0-2.02-.38-2.82-.86-.89-.54-1.9-1.14-3.85-1.14Z"/></g><path d="m15.34,10c-1.94,0-2.96.61-3.85,1.14-.8.48-1.43.86-2.82.86s-2.02-.38-2.82-.86c-.89-.54-1.9-1.14-3.85-1.14v2c1.39,0,2.02.38,2.82.86.89.54,1.9,1.14,3.85,1.14s2.96-.61,3.85-1.14c.8-.48,1.43-.86,2.82-.86s2.02.38,2.82.86c.89.54,1.9,1.14,3.85,1.14v-2c-1.39,0-2.02-.38-2.82-.86-.89-.54-1.9-1.14-3.85-1.14Z"/></svg>