<svg xmlns="http://www.w3.org/2000/svg" width="24" height="24" viewBox="0 0 24 24"><g opacity="0.4"><path d="m12,4c-4.88,0-9,4.12-9,9s4.12,9,9,9,9-4.12,9-9-4.12-9-9-9Zm3,13h-5c-.37,0-.71-.2-.88-.53s-.15-.72.05-1.03l2.96-4.45h-3.13v-2h5c.37,0,.71.2.88.53s.15.72-.05,1.03l-2.96,4.45h3.13v2Z"/></g><path d="M18.7 2.29 17.99 3 17.28 3.71 18.79 5.21 20.29 6.71 21 6 21.71 5.29 20.2 3.79 18.7 2.29z"/><path d="M3.71 6.71 5.2 5.21 6.7 3.71 5.99 3 5.28 2.29 3.79 3.79 2.29 5.29 3 6 3.71 6.71z"/><path d="m9.17,15.45c-.2.31-.22.7-.05,1.03s.51.53.88.53h5v-2h-3.13l2.96-4.45c.2-.31.22-.7.05-1.03s-.51-.53-.88-.53h-5v2h3.13l-2.96,4.45Z"/></svg>