<svg xmlns="http://www.w3.org/2000/svg" width="24" height="24" viewBox="0 0 24 24"><g opacity="0.4"><path d="m20,2H6c-1.65,0-3,1.35-3,3v14c0,1.65,1.35,3,3,3h15v-2H6c-.55,0-1-.45-1-1s.45-1,1-1h14c.55,0,1-.45,1-1V3c0-.55-.45-1-1-1Zm-4.57,8.18l-2.93,2.82-2.93-2.82c-.76-.73-.76-1.89,0-2.63.77-.73,1.97-.73,2.73,0l.2.19.2-.19c.76-.73,1.97-.73,2.73,0,.76.74.76,1.9,0,2.63Z"/></g><path d="m6,20h14c-.55,0-1-.45-1-1s.45-1,1-1H6c-.55,0-1,.45-1,1s.45,1,1,1Z"/><path d="m12.5,13l2.93-2.82c.76-.73.76-1.89,0-2.63-.77-.73-1.97-.73-2.73,0l-.2.19-.2-.19c-.76-.73-1.97-.73-2.73,0-.76.74-.76,1.9,0,2.63l2.93,2.82Z"/></svg>