<svg xmlns="http://www.w3.org/2000/svg" width="24" height="24" viewBox="0 0 24 24"><g opacity="0.4"><path d="m5,10v3.59l-1.71,1.71c-.19.19-.29.44-.29.71v2c0,.55.45,1,1,1h13.59L5.66,7.08c-.41.89-.66,1.87-.66,2.92Z"/><path d="m19,13.59v-3.59c0-3.22-2.18-5.93-5.14-6.74-.29-.74-1.01-1.26-1.86-1.26s-1.56.52-1.86,1.26c-1.32.36-2.47,1.12-3.36,2.11l13.56,13.56c.38-.14.66-.5.66-.93v-2c0-.27-.11-.52-.29-.71l-1.71-1.71Z"/></g><path d="m15,19h-6c0,1.66,1.34,3,3,3s3-1.34,3-3Z"/><path d="M2.71 1.29 2 2 1.29 2.71 11.29 12.71 21.29 22.71 22 22 22.71 21.29 12.71 11.29 2.71 1.29z"/></svg>