<svg xmlns="http://www.w3.org/2000/svg" width="24" height="24" viewBox="0 0 24 24"><g opacity="0.4"><path d="M16.5 15A1.5 1.5 0 1 0 16.5 18 1.5 1.5 0 1 0 16.5 15z"/><path d="M7.5 15A1.5 1.5 0 1 0 7.5 18 1.5 1.5 0 1 0 7.5 15z"/><path d="m20,6H4c-1.1,0-2,.9-2,2v1h20v-1c0-1.1-.9-2-2-2Z"/><path d="m2,20c0,1.1.9,2,2,2h16c1.1,0,2-.9,2-2v-9H2v9Zm14.5-7c1.93,0,3.5,1.57,3.5,3.5s-1.57,3.5-3.5,3.5-3.5-1.57-3.5-3.5,1.57-3.5,3.5-3.5Zm-9,0c1.93,0,3.5,1.57,3.5,3.5s-1.57,3.5-3.5,3.5-3.5-1.57-3.5-3.5,1.57-3.5,3.5-3.5Z"/></g><path d="m7,4h10v2h2v-2c0-1.1-.9-2-2-2H7c-1.1,0-2,.9-2,2v2h2v-2Z"/><path d="M2 9H22V11H2z"/><path d="m11,16.5c0-1.93-1.57-3.5-3.5-3.5s-3.5,1.57-3.5,3.5,1.57,3.5,3.5,3.5,3.5-1.57,3.5-3.5Zm-5,0c0-.83.67-1.5,1.5-1.5s1.5.67,1.5,1.5-.67,1.5-1.5,1.5-1.5-.67-1.5-1.5Z"/><path d="m20,16.5c0-1.93-1.57-3.5-3.5-3.5s-3.5,1.57-3.5,3.5,1.57,3.5,3.5,3.5,3.5-1.57,3.5-3.5Zm-5,0c0-.83.67-1.5,1.5-1.5s1.5.67,1.5,1.5-.67,1.5-1.5,1.5-1.5-.67-1.5-1.5Z"/></svg>