<svg xmlns="http://www.w3.org/2000/svg" width="24" height="24" viewBox="0 0 24 24"><g opacity="0.4"><path d="m19.17,7.52c-.55.56-1.27,1.81-1.27,4.46h-2c0-2.93.79-4.62,1.61-5.59-.9-.49-1.89-.85-2.94-1.09-.86.89-1.87,2.76-1.87,6.68h-2c0-3.4.72-5.56,1.59-6.96-.1,0-.2-.01-.3-.01-1.13,0-2.23.17-3.27.48-.63,1.23-1.23,3.16-1.23,6.5h-2c0-2.32.28-4.06.67-5.39-2.49,1.46-4.17,3.78-4.17,6.29,0,3.43,4.39,6.12,10,6.12s10-2.69,10-6.12c0-2.03-1.1-3.93-2.83-5.36Z"/></g><path d="m17.9,11.98c0-2.63.72-3.88,1.26-4.44-.51-.42-1.06-.8-1.67-1.13-.81.97-1.6,2.66-1.6,5.58h2Z"/><path d="m17.39,6.33s.07.05.11.07c0,0,0,0,0-.01-.04-.02-.08-.03-.12-.06Z"/><path d="m8.73,5.49c-.91.27-1.78.63-2.56,1.09-.39,1.33-.67,3.07-.67,5.39h2c0-3.33.6-5.25,1.23-6.48Z"/><path d="m14.57,5.3c-.73-.17-1.5-.26-2.27-.28-.87,1.4-1.59,3.57-1.59,6.96h2c0-3.92,1-5.79,1.87-6.68Z"/></svg>