<svg xmlns="http://www.w3.org/2000/svg" width="24" height="24" viewBox="0 0 24 24"><g opacity="0.4"><path d="m2,19c0,1.1.9,2,2,2h16c1.1,0,2-.9,2-2v-10H2v10Zm4-5h2.38l1.22-2.45c.34-.68,1.45-.68,1.79,0l2.11,4.21.61-1.21c.17-.34.52-.55.89-.55h3v2h-2.38l-1.22,2.45c-.17.34-.52.55-.89.55s-.72-.21-.89-.55l-2.11-4.21-.61,1.21c-.17.34-.52.55-.89.55h-3v-2Z"/></g><path d="m9.89,15.45l.61-1.21,2.11,4.21c.17.34.52.55.89.55s.72-.21.89-.55l1.22-2.45h2.38v-2h-3c-.38,0-.72.21-.89.55l-.61,1.21-2.11-4.21c-.34-.68-1.45-.68-1.79,0l-1.22,2.45h-2.38v2h3c.38,0,.72-.21.89-.55Z"/><path d="m20,3H4c-1.1,0-2,.9-2,2v4h20v-4c0-1.1-.9-2-2-2Z"/></svg>