<svg xmlns="http://www.w3.org/2000/svg" width="24" height="24" viewBox="0 0 24 24"><g opacity="0.4"><path d="m4.96,8h14.09c-1.35-2.97-4-5-7.04-5s-5.69,2.03-7.04,5Z"/><path d="m4.29,10c-.18.8-.29,1.63-.29,2.5,0,4.84,3.06,8.83,7,9.42v-8.92h2v8.92c3.94-.59,7-4.58,7-9.42,0-.87-.11-1.7-.29-2.5H4.29Z"/></g><path d="m6.28,19.13c-.43-.52-.8-1.09-1.11-1.71l-1.88,1.88,1.41,1.41,1.58-1.58Z"/><path d="m4.11,14h-2.11v2h2.57c-.21-.64-.37-1.31-.46-2Z"/><path d="m4.29,10.02l-1.84-.92-.89,1.79,2.46,1.23c.02-.72.12-1.43.27-2.1Z"/><path d="m7.83,4.41l-2.12-2.12-1.41,1.41,2.07,2.07c.44-.52.94-.97,1.47-1.36Z"/><path d="m17.64,5.77l2.07-2.07-1.41-1.41-2.12,2.12c.53.39,1.03.84,1.47,1.36Z"/><path d="m17.72,19.13l1.58,1.58,1.41-1.41-1.88-1.88c-.32.62-.69,1.2-1.11,1.71Z"/><path d="m19.43,16h2.57v-2h-2.11c-.09.69-.25,1.36-.46,2Z"/><path d="m19.71,10.02c.15.67.25,1.38.27,2.1l2.46-1.23-.89-1.79-1.84.92Z"/><path d="m19.04,8H4.96c-.29.63-.51,1.3-.67,2h15.42c-.16-.7-.38-1.37-.67-2Z"/><path d="m13,21.92v-8.92h-2v8.92c.33.05.66.08,1,.08s.67-.03,1-.08Z"/></svg>