<svg xmlns="http://www.w3.org/2000/svg" width="24" height="24" viewBox="0 0 24 24"><g opacity="0.4"><path d="m9,6.5c-1.93,0-3.5,1.57-3.5,3.5h2c0-.83.67-1.5,1.5-1.5s1.5.67,1.5,1.5h2c0-1.93-1.57-3.5-3.5-3.5Z"/><path d="m9,5c2.76,0,5,2.24,5,5h2.39l2.56-7.68-1.9-.63-1.76,5.27c-1.14-2.34-3.53-3.96-6.29-3.96-3.86,0-7,3.14-7,7h2c0-2.76,2.24-5,5-5Z"/><path d="M19.89 10 22.45 2.32 20.55 1.68 17.78 10 19.89 10z"/></g><path d="m7,19.66v1.34c0,.55.45,1,1,1h8c.55,0,1-.45,1-1v-1.34c3.1-1.78,5-5.05,5-8.66,0-.55-.45-1-1-1H2v1c0,3.61,1.9,6.87,5,8.66Z"/></svg>