<svg xmlns="http://www.w3.org/2000/svg" width="24" height="24" viewBox="0 0 24 24"><g opacity="0.4"><path d="m8,7.93v1.07h2v-1.07c0-1.19-.46-2.31-1.28-3.16-.46-.47-.72-1.1-.72-1.76v-1.02h-2v1.02c0,1.19.46,2.31,1.28,3.16.46.47.72,1.1.72,1.76Z"/><path d="m12,7.93v1.07h2v-1.07c0-1.19-.46-2.31-1.28-3.16-.46-.47-.72-1.1-.72-1.76v-1.02h-2v1.02c0,1.19.46,2.31,1.28,3.16.46.47.72,1.1.72,1.76Z"/><path d="m16,7.93v1.07h2v-1.07c0-1.19-.46-2.31-1.28-3.16-.46-.47-.72-1.1-.72-1.76v-1.02h-2v1.02c0,1.19.46,2.31,1.28,3.16.46.47.72,1.1.72,1.76Z"/></g><path d="m21,10H3c-.55,0-1,.45-1,1,0,3.61,1.9,6.87,5,8.66v1.34c0,.55.45,1,1,1h8c.55,0,1-.45,1-1v-1.34c3.1-1.78,5-5.05,5-8.66,0-.55-.45-1-1-1Z"/></svg>