<svg xmlns="http://www.w3.org/2000/svg" width="24" height="24" viewBox="0 0 24 24"><g opacity="0.4"><path d="m18,2H6c-1.1,0-2,.9-2,2v17c0,.36.19.69.5.87.31.18.69.18,1,0l6.5-3.72,6.5,3.72c.15.09.33.13.5.13s.35-.04.5-.13c.31-.18.5-.51.5-.87V4c0-1.1-.9-2-2-2Zm-3,8.39l-3,3-3-3c-.78-.78-.78-2.02,0-2.8.78-.78,2.02-.78,2.8,0l.2.2.2-.2c.78-.78,2.02-.78,2.8,0,.78.78.78,2.02,0,2.8Z"/></g><path d="m12,13.39l3-3c.78-.78.78-2.02,0-2.8-.78-.78-2.02-.78-2.8,0l-.2.2-.2-.2c-.78-.78-2.02-.78-2.8,0-.78.78-.78,2.02,0,2.8l3,3Z"/></svg>