<svg xmlns="http://www.w3.org/2000/svg" width="24" height="24" viewBox="0 0 24 24"><g opacity="0.4"><path d="m8.12,14.01l.54-.16c1.1-.32,2-1.14,2.41-2.21.63-1.65,2.03-2.92,3.72-3.41l.54-.16c1.1-.32,2-1.14,2.41-2.21l.64-1.66-2.26-1.96c-.25-.21-.58-.29-.9-.21-.32.08-.57.31-.69.61l-.69,1.8c-.32.84-1.03,1.49-1.89,1.73l-.45.13c-1.46.42-2.66,1.52-3.2,2.94-.32.84-1.03,1.48-1.89,1.73l-.45.13c-1.46.42-2.66,1.52-3.2,2.94l-.69,1.8c-.15.39-.04.84.28,1.11l1.67,1.45.38-.99c.63-1.65,2.02-2.92,3.72-3.41Z"/><path d="m19.98,5.59l-.38.99c-.63,1.65-2.02,2.92-3.72,3.41l-.54.16c-1.1.32-2,1.14-2.41,2.21-.63,1.65-2.03,2.92-3.72,3.41l-.54.16c-1.1.32-2,1.14-2.41,2.21l-.64,1.66,2.26,1.96c.18.16.42.24.66.24.08,0,.16,0,.24-.03.32-.08.57-.31.69-.61l.69-1.8c.32-.84,1.03-1.49,1.89-1.73l.45-.13c1.46-.42,2.66-1.52,3.2-2.94.32-.84,1.03-1.48,1.89-1.73l.45-.13c1.46-.42,2.66-1.52,3.2-2.94l.69-1.8c.15-.39.04-.84-.28-1.11l-1.67-1.45Z"/></g><path d="m6.27,18.14c.41-1.07,1.31-1.89,2.41-2.21l.54-.16c1.69-.49,3.08-1.77,3.72-3.41.41-1.07,1.31-1.89,2.41-2.21l.54-.16c1.7-.49,3.08-1.77,3.72-3.41l.38-.99-1.61-1.39-.64,1.66c-.41,1.07-1.31,1.89-2.41,2.21l-.54.16c-1.69.49-3.08,1.77-3.72,3.41-.41,1.07-1.31,1.89-2.41,2.21l-.54.16c-1.7.49-3.08,1.77-3.72,3.41l-.38.99,1.61,1.39.64-1.66Z"/></svg>