<svg xmlns="http://www.w3.org/2000/svg" width="24" height="24" viewBox="0 0 24 24"><g opacity="0.4"><path d="m14.83,9.17c.72.72,1.17,1.72,1.17,2.83s-.45,2.1-1.17,2.83l4.24,4.24c1.81-1.81,2.93-4.31,2.93-7.07s-1.12-5.26-2.93-7.07l-4.24,4.24Z"/><path d="m4.93,4.93c-1.81,1.81-2.93,4.31-2.93,7.07s1.12,5.26,2.93,7.07l4.24-4.24c-.72-.72-1.17-1.72-1.17-2.83s.45-2.1,1.17-2.83l-4.24-4.24Z"/></g><path d="m12,8c1.1,0,2.1.45,2.83,1.17l4.24-4.24c-1.81-1.81-4.31-2.93-7.07-2.93s-5.26,1.12-7.07,2.93l4.24,4.24c.72-.72,1.72-1.17,2.83-1.17Z"/><path d="m14.83,14.83c-.72.72-1.72,1.17-2.83,1.17s-2.1-.45-2.83-1.17l-4.24,4.24c1.81,1.81,4.31,2.93,7.07,2.93s5.26-1.12,7.07-2.93l-4.24-4.24Z"/></svg>