<svg xmlns="http://www.w3.org/2000/svg" width="24" height="24" viewBox="0 0 24 24"><g opacity="0.4"><path d="m14,2H4c-1.1,0-2,.9-2,2v17c0,.55.45,1,1,1h13V4c0-1.1-.9-2-2-2Zm-6,14h-2v-2h2v2Zm0-4h-2v-2h2v2Zm0-4h-2v-2h2v2Zm4,8h-2v-2h2v2Zm0-4h-2v-2h2v2Zm0-4h-2v-2h2v2Z"/></g><path d="M6 10H8V12H6z"/><path d="M6 14H8V16H6z"/><path d="M6 6H8V8H6z"/><path d="M10 6H12V8H10z"/><path d="M10 14H12V16H10z"/><path d="M10 10H12V12H10z"/><path d="m20,6h-4v16h5c.55,0,1-.45,1-1v-13c0-1.1-.9-2-2-2Zm0,10h-2v-2h2v2Zm0-4h-2v-2h2v2Z"/></svg>