<svg xmlns="http://www.w3.org/2000/svg" width="24" height="24" viewBox="0 0 24 24"><g opacity="0.4"><path d="m19,7.47c-.01-.33-.18-.63-.46-.81l-7-4.5c-.31-.2-.7-.21-1.02-.04-.32.18-.52.51-.52.88v6.42l-4.41-3.22-1.18,1.62,5.59,4.08v.21l-5.59,4.08,1.18,1.62,4.41-3.22v6.42c0,.37.2.7.52.88.15.08.31.12.48.12.19,0,.38-.05.54-.16l7-4.5c.28-.18.45-.48.46-.81,0-.33-.14-.64-.41-.84l-5.05-3.69,5.05-3.69c.27-.19.42-.51.41-.84Zm-2.77,8.98l-4.23,2.72v-5.81l4.23,3.09Zm-4.23-5.8v-5.81l4.23,2.72-4.23,3.09Z"/></g></svg>