<svg xmlns="http://www.w3.org/2000/svg" width="24" height="24" viewBox="0 0 24 24"><g opacity="0.4"><path d="m2,10v2c1.13,0,2.17-.39,3-1.03v-3.97c0,1.65-1.35,3-3,3Z"/><path d="m12,10c-2.76,0-5-2.24-5-5v4.87c1.05,1.08,2.44,1.82,4,2.05v3.08h2v-3.08c1.56-.22,2.95-.97,4-2.05v-4.87c0,2.76-2.24,5-5,5Z"/><path d="m19,7v3.97c.83.64,1.87,1.03,3,1.03v-2c-1.65,0-3-1.35-3-3Z"/></g><path d="M19 3 17 3 17 15 7 15 7 3 5 3 5 15 2 15 2 17 5 17 5 21 7 21 7 17 17 17 17 21 19 21 19 17 22 17 22 15 19 15 19 3z"/></svg>