<svg xmlns="http://www.w3.org/2000/svg" width="24" height="24" viewBox="0 0 24 24"><g opacity="0.4"><path d="m21.86,13.78c-.06-.23-.15-.47-.24-.7,0,0,0-.02,0-.03,0,0,0-.01,0-.02h0s-2.88-8.3-2.88-8.3l-.06-.15c-.53-.98-1.54-1.58-2.64-1.58-1.63,0-2.97,1.31-3,2.94v.06h-2.01v-.06c-.04-1.63-1.37-2.94-3.01-2.94-1.1,0-2.11.61-2.64,1.59l-2.91,8.34c-.12.26-.21.53-.28.82,0,0,0,.02,0,.02,0,0,0,0,0,.01h0c-.11.38-.16.79-.16,1.22,0,2.76,2.24,5,5,5s4.91-2.17,4.99-4.86h.03c.08,2.69,2.28,4.86,4.99,4.86s5-2.24,5-5c0-.42-.07-.82-.17-1.21h.02Zm-14.86,4.22c-1.65,0-3-1.35-3-3,0-.25.03-.47.09-.71l.19-.54c.1-.23.24-.44.39-.63.03-.03.05-.07.08-.1.07-.07.14-.14.21-.21.04-.04.08-.07.12-.11.07-.06.15-.11.22-.17.05-.03.1-.07.15-.1.07-.05.15-.09.23-.13.06-.03.13-.06.19-.08.07-.03.15-.06.22-.08.08-.03.17-.05.26-.07.06-.01.12-.03.18-.04.15-.02.31-.04.47-.04,1.39,0,2.61.98,2.92,2.33l.08.73c-.03,1.63-1.36,2.95-3,2.95Zm10,0c-1.65,0-3-1.35-3-3,0-.14.02-.28.04-.41l.05-.24c.18-.84.72-1.54,1.43-1.95.02-.01.04-.02.07-.04.12-.07.25-.12.38-.17.05-.02.11-.03.16-.05.11-.03.22-.07.34-.09.14-.03.29-.04.44-.04.03,0,.07,0,.1,0,.19,0,.38.02.56.06.03,0,.06.01.1.02.17.04.33.09.49.15,0,0,.02,0,.03,0,.71.3,1.28.87,1.58,1.58l.03.08c.14.34.22.71.22,1.1,0,1.65-1.35,3-3,3Z"/></g><path d="m7,18c1.64,0,2.97-1.32,3-2.95l-.08-.73c-.3-1.35-1.53-2.33-2.92-2.33-.16,0-.32.02-.47.04-.06,0-.12.03-.18.04-.09.02-.17.04-.26.07-.08.02-.15.05-.22.08-.06.03-.13.05-.19.08-.08.04-.15.08-.23.13-.05.03-.1.06-.15.1-.08.05-.15.11-.22.17-.04.03-.08.07-.12.11-.07.07-.14.14-.21.21-.03.03-.05.07-.08.1-.15.19-.29.4-.39.63l-.19.54c-.06.23-.09.46-.09.71,0,1.65,1.35,3,3,3Z"/><path d="m17,18c1.65,0,3-1.35,3-3,0-.39-.08-.76-.22-1.1l-.03-.08c-.3-.71-.87-1.28-1.58-1.58,0,0-.02,0-.03,0-.16-.07-.32-.11-.49-.15-.03,0-.06-.02-.1-.02-.18-.03-.37-.06-.56-.06-.03,0-.07,0-.1,0-.15,0-.29.02-.44.04-.11.02-.23.06-.34.09-.05.02-.11.03-.16.05-.13.05-.26.11-.38.17-.02.01-.04.02-.07.04-.71.41-1.25,1.11-1.43,1.95l-.05.24c-.02.14-.04.27-.04.41,0,1.65,1.35,3,3,3Z"/></svg>