<svg xmlns="http://www.w3.org/2000/svg" width="24" height="24" viewBox="0 0 24 24"><g opacity="0.4"><path d="m19.5,6.13l-7-4c-.31-.18-.69-.18-.99,0l-7,4c-.15.08-.27.21-.36.35l-3,5,1.71,1.03.14-.24v8.72c0,.55.45,1,1,1h16c.55,0,1-.45,1-1v-8.72l.14.24,1.71-1.03-3-5c-.09-.15-.21-.27-.36-.35Zm-7.5.87c1.1,0,2,.9,2,2s-.9,2-2,2-2-.9-2-2,.9-2,2-2Zm-4,7.62l3.17,2.38-3.17,2.38v-4.75Zm.83-.62h6.33l-3.17,2.38-3.17-2.38Zm7.17.62v4.75l-3.17-2.38,3.17-2.38Zm-7.17,5.38l3.17-2.38,3.17,2.38h-6.33Z"/></g><path d="M12 7A2 2 0 1 0 12 11 2 2 0 1 0 12 7z"/><path d="M16 14.62 12.83 17 16 19.38 16 14.62z"/><path d="M8 14.62 8 19.38 11.17 17 8 14.62z"/><path d="M8.83 20 15.17 20 12 17.62 8.83 20z"/><path d="M15.17 14 8.83 14 12 16.38 15.17 14z"/></svg>