<svg xmlns="http://www.w3.org/2000/svg" width="24" height="24" viewBox="0 0 24 24"><g opacity="0.4"><path d="M17.5 15A3.5 3.5 0 1 0 17.5 22 3.5 3.5 0 1 0 17.5 15z"/><path d="m14.61,5.63c-.11-1.74-.62-2.62-1.19-3.05-.23-.09-.47-.16-.71-.23-.23-.06-.46-.11-.7-.15-.7.09-1.58.59-2.55,2.05-.85,1.28-1.61,3.07-2.14,5.03l-.24.88,6.62,1.77.24-.88c.53-1.96.76-3.89.67-5.43Z"/></g><path d="M6.6 21.4 8 16.1 9.4 10.8 10.4 11.1 11.4 11.3 9.9 16.6 8.5 21.9 7.5 21.7z"/><path d="M7.3,9.3c0.5-2,1.3-3.8,2.1-5c1-1.5,1.9-2,2.6-2c-1.9-0.3-3.7,0-5.4,1C4.8,4.2,3.5,5.9,2.9,8C2.8,8.6,3.1,9.1,3.6,9.2
	l3.5,0.9L7.3,9.3L7.3,9.3z"/><path d="M14.6,5.6c0.1,1.5-0.1,3.5-0.7,5.4l-0.2,0.9l3.4,0.9c0.1,0,0.2,0,0.3,0c0.4,0,0.8-0.3,1-0.7c0.5-2.1,0.3-4.2-0.8-6.1
	c-0.9-1.6-2.4-2.9-4.1-3.5C14,3,14.5,3.9,14.6,5.6L14.6,5.6z"/></svg>