<svg xmlns="http://www.w3.org/2000/svg" width="24" height="24" viewBox="0 0 24 24"><g opacity="0.4"><path d="m19,13.59v-3.59c0-3.22-2.18-5.93-5.14-6.74-.29-.74-1.01-1.26-1.86-1.26s-1.56.52-1.86,1.26c-2.96.82-5.14,3.53-5.14,6.74v3.59l-1.71,1.71c-.19.19-.29.44-.29.71v2c0,.55.45,1,1,1h16c.55,0,1-.45,1-1v-2c0-.27-.11-.52-.29-.71l-1.71-1.71Zm-4-1.59h-2v2h-2v-2h-2v-2h2v-2h2v2h2v2Z"/></g><path d="m12,22c1.66,0,3-1.34,3-3h-6c0,1.66,1.34,3,3,3Z"/><path d="M11 14 13 14 13 12 15 12 15 10 13 10 13 8 11 8 11 10 9 10 9 12 11 12 11 14z"/></svg>