<svg xmlns="http://www.w3.org/2000/svg" width="24" height="24" viewBox="0 0 24 24"><g opacity="0.4"><path d="m17,12v3h-2v-3.14c-.36-.09-.7-.24-1.02-.42l-2.77,2.77-1.41-1.41,2.77-2.77c-.19-.32-.33-.66-.42-1.02h-3.14v-2h3v-3c0-.55-.45-1-1-1H3c-.55,0-1,.45-1,1v15c0,.55.45,1,1,1h18c.55,0,1-.45,1-1v-2c0-2.76-2.24-5-5-5Z"/></g><path d="M5 20H7V21H5z"/><path d="m3,20c-.55,0-1-.45-1-1v2h2v-1h-1Z"/><path d="M8 20H10V21H8z"/><path d="M17 20H19V21H17z"/><path d="m21,20h-1v1h2v-2c0,.55-.45,1-1,1Z"/><path d="M14 20H16V21H14z"/><path d="M11 20H13V21H11z"/><path d="m12,8v-1h-3v2h3.14c-.08-.32-.14-.65-.14-1Z"/><path d="m17,12h-1c-.35,0-.68-.06-1-.14v3.14h2v-3Z"/><path d="m11.21,14.21l2.77-2.77c-.58-.35-1.07-.83-1.41-1.41l-2.77,2.77,1.41,1.41Z"/></svg>