<svg xmlns="http://www.w3.org/2000/svg" width="24" height="24" viewBox="0 0 24 24"><g opacity="0.4"><path d="M12 5.5A1.5 1.5 0 1 0 12 8.5 1.5 1.5 0 1 0 12 5.5z"/><path d="M12 15.5A1.5 1.5 0 1 0 12 18.5 1.5 1.5 0 1 0 12 15.5z"/><path d="M17 10.5A1.5 1.5 0 1 0 17 13.5 1.5 1.5 0 1 0 17 10.5z"/><path d="M7 10.5A1.5 1.5 0 1 0 7 13.5 1.5 1.5 0 1 0 7 10.5z"/><path d="m7.02,3.37c-.07.27.09.54.35.61s.54-.09.61-.35-.09-.54-.35-.61-.54.09-.61.35Z"/><path d="m3.37,7.02c-.27.07-.43.35-.35.61s.35.43.61.35.43-.35.35-.61c-.07-.27-.35-.43-.61-.35Z"/><path d="m20.63,7.02c-.27-.07-.54.09-.61.35-.07.27.09.54.35.61s.54-.09.61-.35-.09-.54-.35-.61Z"/><path d="m16.37,3.02c-.27.07-.43.35-.35.61s.35.43.61.35.43-.35.35-.61c-.07-.27-.35-.43-.61-.35Z"/><path d="m16.63,20.02c-.27-.07-.54.09-.61.35-.07.27.09.54.35.61s.54-.09.61-.35-.09-.54-.35-.61Z"/><path d="m20.37,16.02c-.27.07-.43.35-.35.61s.35.43.61.35.43-.35.35-.61c-.07-.27-.35-.43-.61-.35Z"/><path d="m3.63,16.02c-.27-.07-.54.09-.61.35-.07.27.09.54.35.61s.54-.09.61-.35-.09-.54-.35-.61Z"/><path d="m7.37,20.02c-.27.07-.43.35-.35.61s.35.43.61.35.43-.35.35-.61c-.07-.27-.35-.43-.61-.35Z"/></g><path d="M12 10A2 2 0 1 0 12 14 2 2 0 1 0 12 10z"/><path d="m12.71,3.71c.39-.39.39-1.02,0-1.41-.39-.39-1.02-.39-1.41,0-.39.39-.39,1.02,0,1.41.39.39,1.02.39,1.41,0Z"/><path d="m12.71,21.71c.39-.39.39-1.02,0-1.41-.39-.39-1.02-.39-1.41,0-.39.39-.39,1.02,0,1.41.39.39,1.02.39,1.41,0Z"/><path d="m20.29,11.29c-.39.39-.39,1.02,0,1.41.39.39,1.02.39,1.41,0,.39-.39.39-1.02,0-1.41-.39-.39-1.02-.39-1.41,0Z"/><path d="m2.29,11.29c-.39.39-.39,1.02,0,1.41.39.39,1.02.39,1.41,0,.39-.39.39-1.02,0-1.41-.39-.39-1.02-.39-1.41,0Z"/><path d="M17 6A1 1 0 1 0 17 8 1 1 0 1 0 17 6z"/><path d="M7 16A1 1 0 1 0 7 18 1 1 0 1 0 7 16z"/><path d="M17 16A1 1 0 1 0 17 18 1 1 0 1 0 17 16z"/><path d="M7 6A1 1 0 1 0 7 8 1 1 0 1 0 7 6z"/></svg>