<svg xmlns="http://www.w3.org/2000/svg" width="24" height="24" viewBox="0 0 24 24"><g opacity="0.4"><path d="M12 2A2 2 0 1 0 12 6 2 2 0 1 0 12 2z"/><path d="m14.31,13.76l-1.61-.46,1.13-4.5,6.45-1.84-.55-1.92-13.2,3.77-.54-1.08c-.29.17-.62.27-.98.27-.55,0-1.05-.22-1.41-.58l1.14,2.29c.35.69,1.05,1.11,1.79,1.11.18,0,.37-.02.55-.08l2.57-.74-3.6,11.71,1.91.59,2.35-7.63v.03s3.46.99,3.46.99l-1.73,6.04,1.92.55,1.73-6.04c.15-.51.08-1.05-.17-1.52-.26-.47-.69-.81-1.2-.95Z"/></g><path d="M5 4A2 2 0 1 0 5 8 2 2 0 1 0 5 4z"/></svg>