<svg xmlns="http://www.w3.org/2000/svg" width="24" height="24" viewBox="0 0 24 24"><g opacity="0.4"><path d="m15.71,3.29c-.19-.19-.44-.29-.71-.29h0c-.27,0-.52.11-.71.29l-1.13,1.13c-.86-.29-1.75-.43-2.66-.43-4.69,0-8.5,3.81-8.5,8.5s3.81,8.5,8.5,8.5,8.5-3.81,8.5-8.5c0-.91-.14-1.8-.43-2.66l1.13-1.13c.39-.39.39-1.02,0-1.41l-4-4Zm-5.21,6.71c-1.38,0-2.5,1.12-2.5,2.5h-2c0-2.48,2.02-4.5,4.5-4.5v2Z"/></g><path d="m18.29,3.29l-1.29,1.29,1.41,1.41,1.3-1.3c.23-.23.84-.7,1.29-.7h1v-2h-1c-1.4,0-2.58,1.17-2.71,1.29Z"/><path d="m10.5,10v-2c-2.48,0-4.5,2.02-4.5,4.5h2c0-1.38,1.12-2.5,2.5-2.5Z"/></svg>