<svg xmlns="http://www.w3.org/2000/svg" width="24" height="24" viewBox="0 0 24 24"><g opacity="0.4"><path d="m15,6h-6c-3.31,0-6,2.69-6,6v8c0,1.1.9,2,2,2h14c1.1,0,2-.9,2-2v-8c0-3.31-2.69-6-6-6Zm-.18,12l-2.82-1.88-2.82,1.88.94-3.06-2.12-2.12,2.72-.24,1.28-2.59,1.28,2.59,2.72.24-2.12,2.12.94,3.06Z"/></g><path d="M9.18 18 12 16.12 14.82 18 13.88 14.94 16 12.82 13.28 12.59 12 10 10.72 12.59 8 12.82 10.12 14.94 9.18 18z"/><path d="m10,6v-1.5c0-.28.22-.5.5-.5h3c.28,0,.5.22.5.5v1.5h1c.34,0,.67.04,1,.09v-1.59c0-1.38-1.12-2.5-2.5-2.5h-3c-1.38,0-2.5,1.12-2.5,2.5v1.59c.33-.06.66-.09,1-.09h1Z"/></svg>