<svg xmlns="http://www.w3.org/2000/svg" width="24" height="24" viewBox="0 0 24 24"><g opacity="0.4"><path d="m8.37,12.51c-.35-.63-1.39-.63-1.74,0l-4.5,8c-.17.31-.17.69,0,1s.51.5.86.5h9c.36,0,.68-.19.86-.5s.18-.69,0-1l-4.5-8Z"/><path d="m17.86,2.5c-.18-.31-.5-.54-.87-.5-.36,0-.69.2-.86.51-.01.02-1.41,2.49-4.13,2.49v2c1.72,0,3.04-.66,4-1.41v1.12c-.4.58-1.74,2.29-4,2.29v2c1.72,0,3.04-.66,4-1.41v2.41h.5c.36,0,.69.19.87.51l.63,1.12v-4.07c.97.76,2.3,1.44,4,1.44v-2c-2.18,0-3.58-1.71-4-2.3v-1.14c.97.76,2.3,1.44,4,1.44v-2c-2.62,0-4.12-2.48-4.14-2.5Z"/></g><path d="M5.5 2A3.5 3.5 0 1 0 5.5 9 3.5 3.5 0 1 0 5.5 2z"/><path d="m17.37,12.51c-.18-.31-.51-.51-.87-.51H7.5v.04c.35,0,.69.16.87.47l4.5,8c.17.31.17.69,0,1s-.51.5-.86.5h9c.36,0,.68-.19.86-.5s.18-.69,0-1l-4.5-8Z"/></svg>