<svg xmlns="http://www.w3.org/2000/svg" width="24" height="24" viewBox="0 0 24 24"><g opacity="0.4"><path d="M12 11A2 2 0 1 0 12 15 2 2 0 1 0 12 11z"/><path d="m20,5h-3l-2.32-1.79c-.18-.14-.39-.21-.61-.21h-4.14c-.22,0-.44.07-.61.21l-2.32,1.79h-3c-1.1,0-2,.9-2,2v12c0,1.1.9,2,2,2h16c1.1,0,2-.9,2-2V7c0-1.1-.9-2-2-2Zm-8,12c-2.17,0-4-1.83-4-4s1.83-4,4-4,4,1.83,4,4-1.83,4-4,4Zm7-8c-.55,0-1-.45-1-1s.45-1,1-1,1,.45,1,1-.45,1-1,1Z"/></g><path d="M19 7A1 1 0 1 0 19 9 1 1 0 1 0 19 7z"/><path d="m12,17c2.17,0,4-1.83,4-4s-1.83-4-4-4-4,1.83-4,4,1.83,4,4,4Zm0-6c1.07,0,2,.93,2,2s-.93,2-2,2-2-.93-2-2,.93-2,2-2Z"/></svg>