<svg xmlns="http://www.w3.org/2000/svg" width="24" height="24" viewBox="0 0 24 24"><g opacity="0.4"><path d="m4,17h16c1.1,0,2,.9,2,2v1c0,1.1-.9,2-2,2H4c-1.1,0-2-.9-2-2v-1c0-1.1.9-2,2-2Z"/></g><path d="m4,17h16s0,0,0,0h-2.22c.59-1.1,1.22-2.61,1.22-4,0-2.02-.75-3.98-1.98-5.46-1.26.75-3.02,2.35-3.02,5.46h-2c0-3.44,1.76-5.64,3.5-6.87-.02-.01-.03-.03-.05-.04.03-.19.05-.39.05-.59,0-1.1-.5-2.11-1.38-2.78-.87-.67-2-.88-3.08-.59-1.17.32-2.12,1.29-2.43,2.49-.13.5-.15.99-.06,1.47-2.15,1.45-3.55,4.12-3.55,6.91,0,1.4.37,2.8,1.02,4h-2.02s0,0,0,0Z"/></svg>