<svg xmlns="http://www.w3.org/2000/svg" width="24" height="24" viewBox="0 0 24 24"><g opacity="0.4"><path d="m21.38,4.08c-.37-.15-.8-.07-1.09.22l-3.14,3.14-1.32-1.98c-.17-.25-.44-.41-.73-.44-.3-.03-.59.08-.81.29l-3.14,3.14-1.32-1.98c-.17-.25-.44-.41-.73-.44-.3-.03-.59.08-.81.29l-4.29,4.29V2h-2v19c0,.55.45,1,1,1h19v-2H4v-2.41l4.29-4.29c.21-.21.5-.32.81-.29.3.03.57.19.73.44l1.32,1.98,3.14-3.14c.21-.21.5-.32.81-.29.3.03.57.19.73.44l1.32,1.98,3.14-3.14c.29-.29.72-.37,1.09-.22.37.15.62.52.62.92v-7c0-.4-.24-.77-.62-.92Z"/></g><path d="m21.38,11.08c-.37-.15-.8-.07-1.09.22l-3.14,3.14-1.32-1.98c-.17-.25-.44-.41-.73-.44-.3-.03-.59.08-.81.29l-3.14,3.14-1.32-1.98c-.17-.25-.44-.41-.73-.44-.3-.03-.59.08-.81.29l-4.29,4.29v2.41h18v-8c0-.4-.24-.77-.62-.92Z"/></svg>