<svg xmlns="http://www.w3.org/2000/svg" width="24" height="24" viewBox="0 0 24 24"><g opacity="0.4"><path d="m3,20c0,1.1.9,2,2,2h14c1.1,0,2-.9,2-2v-12H3v12Zm12-8h2v2h-2v-2Zm0,4h2v2h-2v-2Zm-4-4h2v2h-2v-2Zm0,4h2v2h-2v-2Zm-4-4h2v2h-2v-2Zm0,4h2v2h-2v-2Z"/></g><path d="m19,4h-2v-2h-2v2h-6v-2h-2v2h-2c-1.1,0-2,.9-2,2v2h18v-2c0-1.1-.9-2-2-2Z"/><path d="M15 12H17V14H15z"/><path d="M7 16H9V18H7z"/><path d="M15 16H17V18H15z"/><path d="M11 12H13V14H11z"/><path d="M11 16H13V18H11z"/><path d="M7 12H9V14H7z"/></svg>