<svg xmlns="http://www.w3.org/2000/svg" width="24" height="24" viewBox="0 0 24 24"><g opacity="0.4"><path d="m19,2H5c-.55,0-1,.45-1,1v18c0,.55.45,1,1,1h14c1.1,0,2-.9,2-2V4c0-1.1-.9-2-2-2Zm-6.5,5c1.43,0,2.5,1.07,2.5,2.5s-1.07,2.5-2.5,2.5-2.5-1.07-2.5-2.5,1.07-2.5,2.5-2.5Zm4.5,10h-9v-1c0-1.66,1.34-3,3-3h3c1.66,0,3,1.34,3,3v1Z"/></g><path d="M12.5 7A2.5 2.5 0 1 0 12.5 12 2.5 2.5 0 1 0 12.5 7z"/><path d="m17,16c0-1.66-1.34-3-3-3h-3c-1.66,0-3,1.34-3,3v1h9v-1Z"/><path d="M2 11H4V13H2z"/><path d="M2 7H4V9H2z"/><path d="M2 15H4V17H2z"/></svg>