<svg xmlns="http://www.w3.org/2000/svg" width="24" height="24" viewBox="0 0 24 24"><g opacity="0.4"><path d="m20,2h-10c-1.1,0-2,.9-2,2v10c0,1.1.9,2,2,2h10c1.1,0,2-.9,2-2V4c0-1.1-.9-2-2-2Zm-1.29,9.29l-1.41,1.41-.53-.53h0s-1.77-1.77-1.77-1.77l-1.77,1.77h0s-.53.52-.53.52l-1.41-1.41,2.29-2.29-2.29-2.29,1.41-1.41.53.53h0s1.77,1.77,1.77,1.77l1.77-1.77h0s.53-.52.53-.52l1.41,1.41-2.29,2.29,2.29,2.29Z"/></g><path d="m4,22h10c1.1,0,2-.9,2-2v-4h-6c-1.1,0-2-.9-2-2v-6h-4c-1.1,0-2,.9-2,2v10c0,1.1.9,2,2,2Z"/><path d="M12.71 12.71 13.23 12.18 13.23 12.18 15 10.41 16.77 12.18 16.77 12.18 17.29 12.71 18.71 11.29 16.41 9 18.71 6.71 17.29 5.29 16.77 5.82 16.77 5.82 15 7.59 13.23 5.82 13.23 5.82 12.71 5.29 11.29 6.71 13.59 9 11.29 11.29 12.71 12.71z"/></svg>