<svg xmlns="http://www.w3.org/2000/svg" width="24" height="24" viewBox="0 0 24 24"><g opacity="0.4"><path d="m12,10.59l6.33-6.33c-3.67-3-8.99-3-12.66,0l6.33,6.33Z"/><path d="m13.41,12l6.33,6.33c3-3.67,3-8.99,0-12.66l-6.33,6.33Z"/><path d="m4.26,5.67c-3,3.67-3,8.99,0,12.66l6.33-6.33-6.33-6.33Z"/><path d="m5.67,19.74c3.67,3,8.99,3,12.66,0l-6.33-6.33-6.33,6.33Z"/></g><path d="m4.93,19.07c.24.24.49.46.74.67l6.33-6.33,6.33,6.33c.26-.21.5-.43.74-.67.24-.24.46-.49.67-.74l-6.33-6.33,6.33-6.33c-.21-.26-.43-.5-.67-.74s-.49-.46-.74-.67l-6.33,6.33-6.33-6.33c-.26.21-.5.43-.74.67s-.46.49-.67.74l6.33,6.33-6.33,6.33c.21.26.43.5.67.74Z"/></svg>