<svg xmlns="http://www.w3.org/2000/svg" width="24" height="24" viewBox="0 0 24 24"><g opacity="0.4"><path d="m20,4H4c-1.1,0-2,.9-2,2v12c0,1.1.9,2,2,2h16c1.1,0,2-.9,2-2V6c0-1.1-.9-2-2-2Zm-8.5,12c-1.38,0-2.5-1.12-2.5-2.5s1.12-2.5,2.5-2.5c.57,0,1.08.19,1.5.51-.6.46-1,1.17-1,1.99s.4,1.53,1,1.99c-.42.32-.93.51-1.5.51Zm4,0c-1.38,0-2.5-1.12-2.5-2.5s1.12-2.5,2.5-2.5,2.5,1.12,2.5,2.5-1.12,2.5-2.5,2.5Z"/></g><path d="m11.5,16c.57,0,1.08-.19,1.5-.51-.6-.46-1-1.17-1-1.99s.4-1.53,1-1.99c-.42-.32-.93-.51-1.5-.51-1.38,0-2.5,1.12-2.5,2.5s1.12,2.5,2.5,2.5Z"/><path d="M15.5 11A2.5 2.5 0 1 0 15.5 16 2.5 2.5 0 1 0 15.5 11z"/></svg>