<svg xmlns="http://www.w3.org/2000/svg" width="24" height="24" viewBox="0 0 24 24"><g opacity="0.4"><path d="m4,17h16c1.1,0,2,.9,2,2v1c0,1.1-.9,2-2,2H4c-1.1,0-2-.9-2-2v-1c0-1.1.9-2,2-2Z"/><path d="M9.5 7.25A1.25 1.25 0 1 0 9.5 9.75 1.25 1.25 0 1 0 9.5 7.25z"/></g><path d="m18.64,7.26c-1.43-2.08-3.86-3.17-7.22-3.25l-1.71-1.71c-.21-.21-.5-.31-.81-.29-.3.03-.57.19-.73.44L2.17,11.45c-.26.4-.21.92.12,1.26l2,2c.34.34.87.39,1.26.12l2.75-1.83h.56l-3.33,4h-1.53s0,0,0,0h16s0,0,0,0h-.63c.61-2.21,1.41-6.63-.73-9.74Zm-9.14,2.49c-.69,0-1.25-.56-1.25-1.25s.56-1.25,1.25-1.25,1.25.56,1.25,1.25-.56,1.25-1.25,1.25Z"/></svg>