<svg xmlns="http://www.w3.org/2000/svg" width="24" height="24" viewBox="0 0 24 24"><g opacity="0.4"><path d="M2 12H7V17H2z"/><path d="m4,2c-1.1,0-2,.9-2,2v3h5V2h-3Z"/><path d="M12 2H17V7H12z"/><path d="M7 17H12V22H7z"/><path d="m20,22c1.1,0,2-.9,2-2v-3h-5v5h3Z"/><path d="M7 7H12V12H7z"/><path d="M12 12H17V17H12z"/><path d="M17 7H22V12H17z"/></g><path d="M7 2H12V7H7z"/><path d="m20,2h-3v5h5v-3c0-1.1-.9-2-2-2Z"/><path d="M2 7H7V12H2z"/><path d="M12 7H17V12H12z"/><path d="M7 12H12V17H7z"/><path d="M17 12H22V17H17z"/><path d="m2,20c0,1.1.9,2,2,2h3v-5H2v3Z"/><path d="M12 17H17V22H12z"/></svg>