<svg xmlns="http://www.w3.org/2000/svg" width="24" height="24" viewBox="0 0 24 24"><g opacity="0.4"><path d="M9 11.5 12 11.5 11 15 15 9.5 12 9.5 13 6 9 11.5z"/><path d="m5,21c.55,0,1-.45,1-1v-2h-2c-.37,0-.7-.11-1-.28v2.28c0,.55.45,1,1,1h1Z"/><path d="m19,21h1c.55,0,1-.45,1-1v-2.28c-.3.17-.63.28-1,.28h-2v2c0,.55.45,1,1,1Z"/></g><path d="m20.77,9.16l-1.37-4.11c-.42-1.22-1.56-2.05-2.85-2.05H7.44c-1.28,0-2.43.82-2.85,2.05l-1.36,4.1c-.72.3-1.23,1.02-1.23,1.84v5c0,1.1.9,2,2,2h16c1.1,0,2-.9,2-2v-5c0-.83-.51-1.54-1.23-1.84Zm-14.27,5.84c-.83,0-1.5-.67-1.5-1.5s.67-1.5,1.5-1.5,1.5.67,1.5,1.5-.67,1.5-1.5,1.5Zm4.5,0l1-3.5h-3l4-5.5-1,3.5h3l-4,5.5Zm6.5,0c-.83,0-1.5-.67-1.5-1.5s.67-1.5,1.5-1.5,1.5.67,1.5,1.5-.67,1.5-1.5,1.5Z"/></svg>