<svg xmlns="http://www.w3.org/2000/svg" width="24" height="24" viewBox="0 0 24 24"><g opacity="0.4"><path d="m4,17h16c1.1,0,2,.9,2,2v1c0,1.1-.9,2-2,2H4c-1.1,0-2-.9-2-2v-1c0-1.1.9-2,2-2Z"/></g><path d="m19,6c-1.65,0-3,1.35-3,3,0,.37.07.73.2,1.06l-.76,1.27-1.01-4.57c.51-.69.7-1.57.51-2.44-.25-1.13-1.19-2.05-2.33-2.27-.9-.17-1.81.05-2.5.62-.7.57-1.09,1.42-1.09,2.32,0,.64.21,1.26.58,1.77l-1.02,4.57-.76-1.27c.13-.34.2-.7.2-1.06,0-1.65-1.35-3-3-3s-3,1.35-3,3c0,1.06.56,2.02,1.45,2.56l.99,5.44h-.44s0,0,0,0h16s0,0,0,0h-.44l.99-5.44c.89-.54,1.45-1.5,1.45-2.56,0-1.65-1.35-3-3-3Z"/></svg>