<svg xmlns="http://www.w3.org/2000/svg" width="24" height="24" viewBox="0 0 24 24"><g opacity="0.4"><path d="m20,2h-10c-1.1,0-2,.9-2,2v10c0,1.1.9,2,2,2h10c1.1,0,2-.9,2-2V4c0-1.1-.9-2-2-2Zm-1.29,5.71l-4.71,4.71-2.71-2.71-1-1,1.41-1.41,1,1,1.29,1.29,3.29-3.29,1-1,1.41,1.41-1,1Z"/></g><path d="m4,22h10c1.1,0,2-.9,2-2v-4h-6c-1.1,0-2-.9-2-2v-6h-4c-1.1,0-2,.9-2,2v10c0,1.1.9,2,2,2Z"/><path d="M18.71 7.71 19.71 6.71 18.29 5.29 17.29 6.29 14 9.59 12.71 8.29 11.71 7.29 10.29 8.71 11.29 9.71 14 12.41 18.71 7.71z"/></svg>