<svg xmlns="http://www.w3.org/2000/svg" width="24" height="24" viewBox="0 0 24 24"><g opacity="0.4"><path d="M12 10A2 2 0 1 0 12 14 2 2 0 1 0 12 10z"/><path d="m20,5h-2.59l-2.71-2.71c-.19-.19-.44-.29-.71-.29h-4c-.27,0-.52.11-.71.29l-2.71,2.71h-2.59c-1.1,0-2,.9-2,2v11c0,1.1.9,2,2,2h16c1.1,0,2-.9,2-2V7c0-1.1-.9-2-2-2Zm-8,11c-2.17,0-4-1.83-4-4s1.83-4,4-4,4,1.83,4,4-1.83,4-4,4Z"/></g><path d="m12,16c2.17,0,4-1.83,4-4s-1.83-4-4-4-4,1.83-4,4,1.83,4,4,4Zm0-6c1.07,0,2,.93,2,2s-.93,2-2,2-2-.93-2-2,.93-2,2-2Z"/></svg>