<svg xmlns="http://www.w3.org/2000/svg" width="24" height="24" viewBox="0 0 24 24"><g opacity="0.4"><path d="m18,2H6c-1.1,0-2,.9-2,2v16c0,1.1.9,2,2,2h12c1.1,0,2-.9,2-2V4c0-1.1-.9-2-2-2Zm-9,17h-2v-2h2v2Zm0-4h-2v-2h2v2Zm0-4h-2v-2h2v2Zm4,8h-2v-2h2v2Zm0-4h-2v-2h2v2Zm0-4h-2v-2h2v2Zm4,8h-2v-6h2v6Zm0-8h-2v-2h2v2Zm1-4H6v-3h12v3Z"/></g><path d="M7 17H9V19H7z"/><path d="M7 9H9V11H7z"/><path d="M7 13H9V15H7z"/><path d="M11 17H13V19H11z"/><path d="M15 13H17V19H15z"/><path d="M11 13H13V15H11z"/><path d="M11 9H13V11H11z"/><path d="M6 4H18V7H6z"/><path d="M15 9H17V11H15z"/></svg>