<svg xmlns="http://www.w3.org/2000/svg" width="24" height="24" viewBox="0 0 24 24"><g opacity="0.4"><path d="M17 8.57 14 9.81 14 19 17 17.75 17 8.57z"/><path d="m2.55,17.89l6,3c.14.07.29.11.45.11.13,0,.26-.03.38-.08l2.62-1.09v-9.19l-2.59,1.07c-.26.11-.56.1-.82-.02l-6.48-3.13c-.07.14-.12.28-.12.44v8c0,.38.21.73.55.89Z"/><path d="m19,7.74v9.17l2.38-.99c.37-.16.62-.52.62-.92V7c0-.16-.05-.31-.12-.45l-2.88,1.19Z"/></g><path d="m21.45,6.11l-6-3c-.26-.13-.57-.14-.83-.03L2.62,8.08c-.23.09-.39.27-.5.48l6.48,3.13c.26.12.55.13.82.02l12.47-5.16c-.1-.19-.24-.35-.44-.44Z"/></svg>