<svg xmlns="http://www.w3.org/2000/svg" width="24" height="24" viewBox="0 0 24 24"><g opacity="0.4"><path d="m17.51,11.14l-4.51-2.71v-2.43h2v-2h-2v-2h-2v2h-2v2h2v2.43l-4.51,2.71c-.3.18-.49.51-.49.86v10h4v-4c0-1.1.9-2,2-2s2,.9,2,2v4h4v-10c0-.35-.18-.68-.49-.86Zm-5.51,2.86c-.83,0-1.5-.67-1.5-1.5s.67-1.5,1.5-1.5,1.5.67,1.5,1.5-.67,1.5-1.5,1.5Z"/></g><path d="m6,12.88l-3.35,1.26c-.39.15-.65.52-.65.94v5.93c0,.55.45,1,1,1h3v-9.12Z"/><path d="m21.35,14.14l-3.35-1.26v9.12h3c.55,0,1-.45,1-1v-5.93c0-.42-.26-.79-.65-.94Z"/><path d="M12 11A1.5 1.5 0 1 0 12 14 1.5 1.5 0 1 0 12 11z"/><path d="m14,18c0-1.1-.9-2-2-2s-2,.9-2,2v4h4v-4Z"/></svg>