<svg xmlns="http://www.w3.org/2000/svg" width="24" height="24" viewBox="0 0 24 24"><g opacity="0.4"><path d="m20,5h-2.59l-2.71-2.71c-.19-.19-.44-.29-.71-.29h-4c-.27,0-.52.11-.71.29l-2.71,2.71h-.17l3.58,3.58c.6-.36,1.28-.58,2.01-.58,2.17,0,4,1.83,4,4,0,.73-.22,1.41-.58,2.01l5.67,5.67c.55-.36.91-.97.91-1.67V7c0-1.1-.9-2-2-2Z"/><path d="m12,16c-2.17,0-4-1.83-4-4,0-.73.22-1.41.58-2.01L3.62,5.04c-.92.18-1.62.99-1.62,1.96v11c0,1.1.9,2,2,2h14.59l-4.58-4.58c-.6.36-1.28.58-2.01.58Z"/><path d="m14,12c0-1.07-.93-2-2-2-.17,0-.34.03-.51.08l2.43,2.43c.05-.16.08-.33.08-.51Z"/><path d="m10,12c0,1.07.93,2,2,2,.17,0,.34-.03.51-.08l-2.43-2.43c-.05.16-.08.33-.08.51Z"/></g><path d="M2.71 1.29 2 2 1.29 2.71 11.29 12.71 21.29 22.71 22 22 22.71 21.29 12.71 11.29 2.71 1.29z"/></svg>