<svg xmlns="http://www.w3.org/2000/svg" width="24" height="24" viewBox="0 0 24 24"><g opacity="0.4"><path d="m19,11h-2v-1c0-.55-.45-1-1-1H4c-.55,0-1,.45-1,1v9c0,1.65,1.35,3,3,3h8c1.65,0,3-1.35,3-3h2c1.1,0,2-.9,2-2v-4c0-1.1-.9-2-2-2Zm-2,6v-4h2v4s-2,0-2,0Z"/></g><path d="m5,7.08v.92h2v-.92c0-1.07-.49-2.11-1.34-2.86-.43-.37-.66-.86-.66-1.35v-.87h-2v.87c0,1.07.49,2.11,1.34,2.86.43.37.66.86.66,1.35Z"/><path d="m9,7.08v.92h2v-.92c0-1.07-.49-2.11-1.34-2.86-.43-.37-.66-.86-.66-1.35v-.87h-2v.87c0,1.07.49,2.11,1.34,2.86.43.37.66.86.66,1.35Z"/><path d="m13,7.08v.92h2v-.92c0-1.07-.49-2.11-1.34-2.86-.43-.37-.66-.86-.66-1.35v-.87h-2v.87c0,1.07.49,2.11,1.34,2.86.43.37.66.86.66,1.35Z"/></svg>