<svg xmlns="http://www.w3.org/2000/svg" width="24" height="24" viewBox="0 0 24 24"><g opacity="0.4"><path d="m8.27,9.49l-4.27-2.67-.53.33c-.29.18-.47.5-.47.85v.55l4.56,2.85c.09-.7.33-1.36.71-1.92Z"/><path d="m12,22c.18,0,.37-.05.53-.15l.47-.29v-5.18c-.32.07-.66.12-1,.12s-.68-.05-1-.12v5.18l.47.29c.16.1.35.15.53.15Z"/><path d="m20.53,7.15l-.53-.33-4.27,2.67c.38.56.61,1.22.71,1.92l4.56-2.85v-.55c0-.34-.18-.67-.47-.85Z"/></g><path d="m15.73,9.49l4.27-2.67-7.47-4.67c-.32-.2-.74-.2-1.06,0L4,6.82l4.27,2.67c.81-1.2,2.18-1.99,3.73-1.99s2.92.79,3.73,1.99Z"/><path d="m16.5,12c0,2.14-1.5,3.92-3.5,4.38v5.18l7.53-4.71c.29-.18.47-.5.47-.85v-7.45l-4.56,2.85c.03.2.06.39.06.6Z"/><path d="m7.5,12c0-.2.03-.4.06-.6l-4.56-2.85v7.45c0,.34.18.67.47.85l7.53,4.71v-5.18c-2-.46-3.5-2.24-3.5-4.38Z"/></svg>