<svg xmlns="http://www.w3.org/2000/svg" width="24" height="24" viewBox="0 0 24 24"><g opacity="0.4"><path d="m21,6h-2v-2c0-1.1-.9-2-2-2H7c-1.1,0-2,.9-2,2v6h-2c-1.1,0-2,.9-2,2v9c0,.55.45,1,1,1h20c.55,0,1-.45,1-1v-13c0-1.1-.9-2-2-2Zm-15,10h-2v-2h2v2Zm5,0h-2v-2h2v2Zm0-4h-2v-2h2v2Zm0-4h-2v-2h2v2Zm4,8h-2v-2h2v2Zm0-4h-2v-2h2v2Zm0-4h-2v-2h2v2Zm5,8h-2v-2h2v2Zm0-4h-2v-2h2v2Z"/></g><path d="M4 14H6V16H4z"/><path d="M9 14H11V16H9z"/><path d="M9 10H11V12H9z"/><path d="M9 6H11V8H9z"/><path d="M13 6H15V8H13z"/><path d="M13 10H15V12H13z"/><path d="M13 14H15V16H13z"/><path d="M18 10H20V12H18z"/><path d="M18 14H20V16H18z"/></svg>