<svg xmlns="http://www.w3.org/2000/svg" width="24" height="24" viewBox="0 0 24 24"><g opacity="0.4"><path d="m2.84,8h18.32c-1.55-3.53-5.07-6-9.16-6s-7.61,2.47-9.16,6Z"/><path d="m19,10c0,1.66-1.34,3-3,3s-3-1.34-3-3h-2c0,1.66-1.34,3-3,3s-3-1.34-3-3h-2.8c-.13.65-.2,1.32-.2,2,0,5.51,4.49,10,10,10s10-4.49,10-10c0-.68-.07-1.35-.2-2h-2.8Zm-7,8c-1.6,0-3.11-.62-4.24-1.76l1.41-1.41c1.51,1.51,4.14,1.51,5.66,0l1.41,1.41c-1.13,1.13-2.64,1.76-4.24,1.76Z"/></g><path d="m16.24,16.24l-1.41-1.41c-1.51,1.51-4.14,1.51-5.66,0l-1.41,1.41c1.13,1.13,2.64,1.76,4.24,1.76s3.11-.62,4.24-1.76Z"/><path d="m21.16,8H2.84c-.28.64-.5,1.3-.64,2h2.8c0,1.66,1.34,3,3,3s3-1.34,3-3h2c0,1.66,1.34,3,3,3s3-1.34,3-3h2.8c-.14-.7-.36-1.36-.64-2Z"/></svg>