<svg xmlns="http://www.w3.org/2000/svg" width="24" height="24" viewBox="0 0 24 24"><g opacity="0.4"><path d="m15,12c0-1.63-1.37-3-3-3v6c1.63,0,3-1.37,3-3Z"/><path d="m9,12c0-1.6,1.4-3,3-3v-2c-2.71,0-5,2.29-5,5s2.29,5,5,5v-2c-1.6,0-3-1.4-3-3Z"/><path d="m20,5h-2.59l-2.71-2.71c-.19-.19-.44-.29-.71-.29h-2v5c2.71,0,5,2.29,5,5s-2.29,5-5,5v3h8c1.1,0,2-.9,2-2V7c0-1.1-.9-2-2-2Z"/></g><path d="m12,17c-2.71,0-5-2.29-5-5s2.29-5,5-5V2h-2c-.27,0-.52.11-.71.29l-2.71,2.71h-2.59c-1.1,0-2,.9-2,2v11c0,1.1.9,2,2,2h8v-3Z"/><path d="m15,12c0,1.63-1.37,3-3,3v2c2.71,0,5-2.29,5-5s-2.29-5-5-5v2c1.63,0,3,1.37,3,3Z"/><path d="m9,12c0,1.6,1.4,3,3,3v-6c-1.6,0-3,1.4-3,3Z"/></svg>