<svg xmlns="http://www.w3.org/2000/svg" width="24" height="24" viewBox="0 0 24 24"><g opacity="0.4"><path d="m19,3H5c-1.1,0-2,.9-2,2v1h10c.38,0,.72.21.89.55l1.23,2.46c1.04.07,1.88.93,1.88,1.99s-.9,2-2,2-2-.9-2-2c0-.41.12-.78.33-1.1l-.95-1.9H3v11c0,1.1.9,2,2,2h14c1.1,0,2-.9,2-2v-1h-10c-.38,0-.72-.21-.89-.55l-1.23-2.46c-1.04-.07-1.88-.93-1.88-1.99s.9-2,2-2,2,.9,2,2c0,.41-.12.78-.33,1.1l.95,1.9h9.38V5c0-1.1-.9-2-2-2Z"/></g><path d="m13.33,9.9c-.21.32-.33.69-.33,1.1,0,1.1.9,2,2,2s2-.9,2-2-.83-1.92-1.88-1.99l-1.23-2.46c-.17-.34-.52-.55-.89-.55H3v2h9.38l.95,1.9Z"/><path d="m10.67,14.1c.21-.32.33-.69.33-1.1,0-1.1-.9-2-2-2s-2,.9-2,2,.83,1.92,1.88,1.99l1.23,2.46c.17.34.52.55.89.55h10v-2h-9.38l-.95-1.9Z"/></svg>