<svg xmlns="http://www.w3.org/2000/svg" width="24" height="24" viewBox="0 0 24 24"><g opacity="0.4"><path d="m12,2C6.49,2,2,6.49,2,12s4.49,10,10,10,10-4.49,10-10S17.51,2,12,2Zm1,14.91v1.09h-2v-1.08c-2.34-.37-3-2-3-2.92h2c.01.14.16,1,2,1,1.38,0,2-.58,2-1,0-.32,0-1-2-1-3.48,0-4-1.88-4-3,0-1.29,1.03-2.58,3-2.91v-1.09h2v1.12c1.73.41,2.4,1.85,2.4,2.88h-1l-1,.02c-.01-.38-.22-1.02-1.4-1.02-1.3,0-2,.52-2,1,0,.37,0,1,2,1,3.48,0,4,1.88,4,3,0,1.29-1.03,2.58-3,2.91Z"/></g><path d="m12,15c-1.84,0-1.99-.86-2-1h-2c0,.92.66,2.55,3,2.92v1.08h2v-1.09c1.97-.33,3-1.63,3-2.91,0-1.12-.52-3-4-3-2,0-2-.63-2-1,0-.48.7-1,2-1,1.18,0,1.39.64,1.4,1.02l1-.02h1c0-1.03-.67-2.47-2.4-2.88v-1.12h-2v1.09c-1.97.33-3,1.63-3,2.91,0,1.12.52,3,4,3,2,0,2,.68,2,1,0,.42-.62,1-2,1Z"/></svg>