<svg xmlns="http://www.w3.org/2000/svg" width="24" height="24" viewBox="0 0 24 24"><g opacity="0.4"><path d="m19,2H5c-1.1,0-2,.9-2,2v16c0,1.1.9,2,2,2h14c1.1,0,2-.9,2-2V4c0-1.1-.9-2-2-2Zm-4,2c.55,0,1,.45,1,1s-.45,1-1,1-1-.45-1-1,.45-1,1-1Zm-3,14c-2.76,0-5-2.24-5-5s2.24-5,5-5,5,2.24,5,5-2.24,5-5,5Zm6-12c-.55,0-1-.45-1-1s.45-1,1-1,1,.45,1,1-.45,1-1,1Z"/></g><path d="m10.18,14.62c-.33.27-.78.65-.78,1.38h1c0-.24.11-.36.42-.62.33-.27.78-.65.78-1.38s-.45-1.11-.78-1.38c-.31-.26-.42-.37-.42-.62s.11-.36.42-.61c.33-.27.78-.65.78-1.38h-1c0,.24-.11.36-.42.61-.33.27-.78.65-.78,1.38s.45,1.11.78,1.38c.31.26.42.37.42.62s-.11.36-.42.62Z"/><path d="m13.18,14.62c-.33.27-.78.65-.78,1.38h1c0-.24.11-.36.42-.62.33-.27.78-.65.78-1.38s-.45-1.11-.78-1.38c-.31-.26-.42-.37-.42-.62s.11-.36.42-.61c.33-.27.78-.65.78-1.38h-1c0,.24-.11.36-.42.61-.33.27-.78.65-.78,1.38s.45,1.11.78,1.38c.31.26.42.37.42.62s-.11.36-.42.62Z"/><path d="M18 4A1 1 0 1 0 18 6 1 1 0 1 0 18 4z"/><path d="M15 4A1 1 0 1 0 15 6 1 1 0 1 0 15 4z"/></svg>