<svg xmlns="http://www.w3.org/2000/svg" width="24" height="24" viewBox="0 0 24 24"><g opacity="0.4"><g><path class="st0" d="M6,9.6c-0.4-0.4-1-0.4-1.4,0l-1.8,1.8c-0.2,0.2-0.3,0.4-0.3,0.7s0.1,0.5,0.3,0.7l8.4,8.4
		c0.2,0.2,0.5,0.3,0.7,0.3s0.5-0.1,0.7-0.3l1.8-1.8c0.2-0.2,0.3-0.4,0.3-0.7s-0.1-0.5-0.3-0.7L6,9.6z"/><path class="st0" d="M21.2,11.2l-8.4-8.4c-0.4-0.4-1-0.4-1.4,0L9.6,4.6C9.4,4.8,9.3,5,9.3,5.3S9.4,5.8,9.6,6l8.4,8.4
		c0.2,0.2,0.4,0.3,0.7,0.3s0.5-0.1,0.7-0.3l1.8-1.8C21.6,12.2,21.6,11.6,21.2,11.2z"/></g></g><path d="M13.09 9.5 11.29 11.29 9.5 13.09 10.21 13.79 10.91 14.5 12.71 12.71 14.5 10.91 13.79 10.21 13.09 9.5z"/><path d="m21.71,7.09l-4.8-4.8c-.39-.39-1.02-.39-1.41,0l-1.59,1.59,6.21,6.21,1.59-1.59c.39-.39.39-1.02,0-1.41Z"/><path d="m3.89,13.9l-1.59,1.59c-.39.39-.39,1.02,0,1.41l4.8,4.8c.2.2.45.29.71.29s.51-.1.71-.29l1.59-1.59-6.21-6.21Z"/></svg>