<svg xmlns="http://www.w3.org/2000/svg" width="24" height="24" viewBox="0 0 24 24"><g opacity="0.4"><path d="m4.6,9.97c-.39-.76-.6-1.6-.6-2.47,0-.16.01-.31.03-.46l-.03-.04s-1,0-2,0c0,0,0,2.72,2.6,2.97Z"/><path d="M9 6A1 1 0 1 0 9 8 1 1 0 1 0 9 6z"/></g><path d="m21.38,10.08c-.37-.16-.8-.07-1.09.22l-.22.22c-.41.41-.83.72-1.24.93-1.7.85-3.69.7-5.2-.33,1.09-1.24,1.57-2.92,1.27-4.6-.39-2.18-2.09-3.94-4.24-4.39-1.66-.34-3.35.06-4.64,1.11-1.29,1.05-2.03,2.61-2.03,4.27,0,1.19.38,2.32,1.08,3.25-2.07,1.15-3.28,3.42-3.06,5.82.28,3.04,3,5.43,6.18,5.43h6.1c4.38,0,7.69-3.01,7.69-7v-4c0-.4-.24-.77-.62-.92Zm-12.38-2.08c-.55,0-1-.45-1-1s.45-1,1-1,1,.45,1,1-.45,1-1,1Z"/></svg>