<svg xmlns="http://www.w3.org/2000/svg" width="24" height="24" viewBox="0 0 24 24"><g opacity="0.4"><path d="m14.83,12.83c.76-.76,1.17-1.76,1.17-2.83s-.42-2.07-1.17-2.83-1.76-1.17-2.83-1.17-2.07.42-2.83,1.17c-.1.1-.18.21-.26.32l1.42,1.42c.08-.12.16-.22.26-.32.75-.76,2.07-.76,2.83,0,.38.38.59.88.59,1.41s-.21,1.04-.59,1.41l1.41,1.42Z"/><path d="m8,10h.59l-.53-.53c-.02.18-.05.35-.05.53Z"/><path d="m4,10h2c0-.77.15-1.5.41-2.17l-1.51-1.51c-.57,1.1-.91,2.35-.91,3.68Z"/><path d="m12,2c-2.35,0-4.47,1.03-5.93,2.65l1.41,1.41c1.1-1.26,2.72-2.07,4.52-2.07,3.31,0,6,2.69,6,6,0,1.77-.66,2.53-1.42,3.41-.26.3-.53.62-.78.98l1.46,1.46c.19-.38.47-.72.82-1.13.85-.98,1.91-2.2,1.91-4.72,0-4.41-3.59-8-8-8Z"/><path d="m15,17c0,2.44-2.61,3-3,3-1.65,0-3-1.35-3-3h-2c0,2.76,2.24,5,5,5,1.47,0,4.17-1.15,4.84-3.74l-1.81-1.81c-.02.18-.03.36-.03.55Z"/></g><path class="st0" d="M1.3 2.7 2 2 2.7 1.3 12.7 11.3 22.7 21.3 22 22 21.3 22.7 11.3 12.7z"/></svg>