<svg xmlns="http://www.w3.org/2000/svg" width="24" height="24" viewBox="0 0 24 24"><g opacity="0.4"><path d="m15.76,12.34l6.17,6.17c.04-.16.07-.33.07-.51V7c0,.31-.14.6-.39.79l-5.86,4.55Z"/><path d="m2.39,7.79c-.24-.19-.39-.48-.39-.79v11c0,.18.03.35.07.51l6.17-6.17L2.39,7.79Z"/><path d="m12.61,14.79c-.18.14-.4.21-.61.21s-.43-.07-.61-.21l-1.55-1.21-6.34,6.34c.16.04.33.07.51.07h16c.18,0,.35-.03.51-.07l-6.34-6.34-1.55,1.21Z"/></g><path d="m20,4H4c-1.1,0-2,.9-2,2v1c0,.31.14.6.39.79l5.86,4.55-6.17,6.17c.18.69.72,1.23,1.41,1.41l6.34-6.34,1.55,1.21c.18.14.4.21.61.21s.43-.07.61-.21l1.55-1.21,6.34,6.34c.69-.18,1.23-.72,1.41-1.41l-6.17-6.17,5.86-4.55c.24-.19.39-.48.39-.79v-1c0-1.1-.9-2-2-2Z"/></svg>