<svg xmlns="http://www.w3.org/2000/svg" width="24" height="24" viewBox="0 0 24 24"><g opacity="0.4"><path d="m13,8V2h-7c-1.1,0-2,.9-2,2v16c0,1.1.9,2,2,2h12c1.1,0,2-.9,2-2v-11h-6c-.55,0-1-.45-1-1Zm-2.04,9.29l-1.41,1.41-3.21-3.21,3.21-3.21,1.41,1.41-1.79,1.79,1.79,1.79Zm6.71-1.79l-3.21,3.21-1.41-1.41,1.79-1.79-1.79-1.79,1.41-1.41,3.21,3.21Z"/></g><path d="m14.71,2.29c-.19-.19-.44-.29-.71-.29h-1v6c0,.55.45,1,1,1h6v-1c0-.27-.11-.52-.29-.71l-5-5Z"/><path d="M14.46 18.71 17.66 15.5 14.46 12.29 13.04 13.71 14.84 15.5 13.04 17.29 14.46 18.71z"/><path d="M10.96 17.29 9.16 15.5 10.96 13.71 9.54 12.29 6.34 15.5 9.54 18.71 10.96 17.29z"/></svg>