<svg xmlns="http://www.w3.org/2000/svg" width="24" height="24" viewBox="0 0 24 24"><g opacity="0.4"><path d="m12.05,2c-.87,0-1.69.36-2.32,1.01-.63.66-.98,1.54-.98,2.48s.35,1.82.98,2.48c1.24,1.29,3.37,1.31,4.63.04.25-.28.39-.64.39-1.02s-.15-.78-.42-1.07c-.53-.56-1.45-.56-1.98,0-.27.28-.42.66-.42,1.07h-1c0-.66.25-1.29.7-1.76.91-.96,2.51-.95,3.42,0,.45.47.7,1.1.7,1.76,0,.62-.23,1.21-.63,1.67h0s-.02.02-.03.03c-.02.02-.03.04-.05.06h-.01c-.81.79-1.85,1.24-2.97,1.24s-2.25-.47-3.06-1.33c-.81-.85-1.26-1.98-1.26-3.17,0-1.12.4-2.16,1.11-2.99-3.98,1.32-6.86,5.07-6.86,9.49,0,5.51,4.49,10,10,10s10-4.49,10-10S17.54,2.03,12.05,2Zm-3.55,14c-.83,0-1.5-.67-1.5-1.5s.67-1.5,1.5-1.5,1.5.67,1.5,1.5-.67,1.5-1.5,1.5Zm7,0c-.83,0-1.5-.67-1.5-1.5s.67-1.5,1.5-1.5,1.5.67,1.5,1.5-.67,1.5-1.5,1.5Z"/></g><path d="M8.5 13A1.5 1.5 0 1 0 8.5 16 1.5 1.5 0 1 0 8.5 13z"/><path d="M15.5 13A1.5 1.5 0 1 0 15.5 16 1.5 1.5 0 1 0 15.5 13z"/><path d="m12.07,10c1.12,0,2.17-.45,2.97-1.25h.01s.03-.03.05-.05c0,0,.02-.02.03-.03h0c.4-.46.63-1.05.63-1.67,0-.66-.25-1.29-.7-1.76-.91-.96-2.51-.96-3.42,0-.45.47-.7,1.1-.7,1.76h1c0-.4.15-.78.42-1.07.53-.56,1.45-.56,1.98,0,.27.28.42.66.42,1.07s-.14.75-.39,1.02c-1.26,1.26-3.39,1.25-4.63-.04-.63-.66-.98-1.54-.98-2.48s.35-1.82.98-2.48c.62-.65,1.44-1.01,2.32-1.01-.02,0-.03,0-.05,0-1.1,0-2.15.18-3.14.51-.71.83-1.11,1.87-1.11,2.99,0,1.2.45,2.32,1.26,3.17.82.86,1.9,1.33,3.06,1.33Z"/></svg>