<svg xmlns="http://www.w3.org/2000/svg" width="24" height="24" viewBox="0 0 24 24"><g opacity="0.4"><path d="m21.99,12c-3.38-.02-6.53-1.76-8.38-4.53-1.91,2.14-4.64,3.38-7.56,3.38-1.34,0-2.63-.27-3.86-.78-.12.62-.19,1.27-.19,1.93,0,5.51,4.49,10,10,10s10-4.49,10-10c0-.04,0-.07,0-.11v.11Zm-13.49,4c-.83,0-1.5-.67-1.5-1.5s.67-1.5,1.5-1.5,1.5.67,1.5,1.5-.67,1.5-1.5,1.5Zm7,0c-.83,0-1.5-.67-1.5-1.5s.67-1.5,1.5-1.5,1.5.67,1.5,1.5-.67,1.5-1.5,1.5Z"/></g><path d="M8.5 13A1.5 1.5 0 1 0 8.5 16 1.5 1.5 0 1 0 8.5 13z"/><path d="M15.5 13A1.5 1.5 0 1 0 15.5 16 1.5 1.5 0 1 0 15.5 13z"/><path d="m13.61,7.47c1.85,2.77,5,4.51,8.38,4.53v-.11c-.06-5.46-4.52-9.89-9.99-9.89C7.15,2,3.09,5.48,2.19,10.07c1.23.51,2.52.78,3.86.78,2.93,0,5.66-1.24,7.56-3.38Z"/></svg>