<svg xmlns="http://www.w3.org/2000/svg" width="24" height="24" viewBox="0 0 24 24"><g opacity="0.4"><path d="m13,8V2h-7c-1.1,0-2,.9-2,2v16c0,1.1.9,2,2,2h12c1.1,0,2-.9,2-2v-11h-6c-.55,0-1-.45-1-1Zm1.85,7.18l-2.85,2.82-2.85-2.82c-.74-.73-.74-1.89,0-2.63.74-.73,1.92-.73,2.66,0l.19.19.19-.19c.74-.73,1.91-.73,2.66,0,.74.74.74,1.9,0,2.63Z"/></g><path d="m14.71,2.29c-.19-.19-.44-.29-.71-.29h-1v6c0,.55.45,1,1,1h6v-1c0-.27-.11-.52-.29-.71l-5-5Z"/><path d="m12,18l2.85-2.82c.74-.73.74-1.89,0-2.63-.74-.73-1.92-.73-2.66,0l-.19.19-.19-.19c-.74-.73-1.91-.73-2.66,0-.74.74-.74,1.9,0,2.63l2.85,2.82Z"/></svg>