<svg xmlns="http://www.w3.org/2000/svg" width="24" height="24" viewBox="0 0 24 24"><g opacity="0.4"><path d="m21.68,15.6c.19-.09.32-.29.32-.5v-3.03c-1.27.56-2.53.73-3.8.66v3.69c1.15-.03,2.32-.25,3.48-.81Z"/><path d="m3.32,2.82c-.19.09-.32.29-.32.5v3.03c1.27-.56,2.53-.73,3.8-.66v-3.69c-1.15.03-2.32.25-3.48.82Z"/><path d="m10.6,14.85c.58.15,1.16.32,1.74.49.68.2,1.37.39,2.06.56v-3.92c-1.27-.38-2.53-.84-3.8-1.22v4.09Z"/><path d="m6.8,5.7v4.31c1.27.07,2.53.37,3.8.75v-4.31c-1.27-.38-2.53-.68-3.8-.75Z"/><path d="m21.2,3.41c-1,.48-1.99.68-3,.7v4.29c1.27.07,2.53-.1,3.8-.66v-3.83c0-.19-.1-.37-.26-.47-.16-.1-.37-.11-.54-.03Z"/><path d="m14.4,11.97c1.27.38,2.53.68,3.8.75v-4.31c-1.27-.07-2.53-.37-3.8-.75v4.31Z"/><path d="m14.4,3.57c-.58-.15-1.16-.32-1.74-.49-.68-.2-1.37-.39-2.06-.57v3.93c1.27.38,2.53.84,3.8,1.22V3.57Z"/><path d="m3,10.67v3.83c0,.19.1.37.26.47.16.1.37.11.54.03,1-.48,1.99-.68,3-.7v-4.29c-1.27-.07-2.53.1-3.8.66Z"/></g><path d="m10.6,2.52c-1.25-.31-2.52-.54-3.8-.51v3.69c1.27.07,2.53.37,3.8.75v-3.93Z"/><path d="m10.6,10.76c-1.27-.38-2.53-.68-3.8-.75v4.29c1.25-.03,2.51.21,3.8.55v-4.09Z"/><path d="m18.2,4.12c-1.25.03-2.51-.21-3.8-.55v4.09c1.27.38,2.53.68,3.8.75v-4.29Z"/><path d="m14.4,15.89c1.18.3,2.38.53,3.59.53.07,0,.14,0,.21-.01v-3.69c-1.27-.07-2.53-.37-3.8-.75v-4.31c-1.27-.38-2.53-.84-3.8-1.22v4.31c1.27.38,2.53.84,3.8,1.22v3.92Z"/><path d="m6.8,10.01v-4.31c-1.27-.07-2.53.1-3.8.66v4.31c1.27-.56,2.53-.73,3.8-.66Z"/><path d="m18.2,8.41v4.31c1.27.07,2.53-.1,3.8-.66v-4.31c-1.27.56-2.53.73-3.8.66Z"/><path d="m5,14.57c-.4.11-.8.25-1.2.44-.17.08-.38.07-.54-.03-.16-.1-.26-.28-.26-.47v7.5h2v-7.43Z"/></svg>