<svg xmlns="http://www.w3.org/2000/svg" width="24" height="24" viewBox="0 0 24 24"><g opacity="0.4"><path d="m20.56,3.17c-.28-.19-.62-.22-.93-.1l-1.45.58c-1.97.79-4.16.64-6-.42-2.6-1.48-5.74-1.57-8.41-.23l-.21.1c-.34.17-.55.52-.55.89v11c0,.35.18.67.47.85.29.18.66.2.97.04l.21-.1c2.07-1.04,4.51-.97,6.53.18,1.37.78,2.89,1.18,4.42,1.18,1.12,0,2.24-.21,3.32-.64l1.45-.58c.38-.15.63-.52.63-.93V4c0-.33-.17-.64-.44-.83Z"/></g><path d="m5,15.64c-.11.05-.23.09-.34.15l-.21.1c-.31.15-.68.14-.97-.04-.29-.18-.47-.5-.47-.85v7h2v-6.36Z"/></svg>