<svg xmlns="http://www.w3.org/2000/svg" width="24" height="24" viewBox="0 0 24 24"><g opacity="0.4"><path d="M11.5 10A1.5 1.5 0 1 0 11.5 13 1.5 1.5 0 1 0 11.5 10z"/><path d="m20,4h-8.59l-1.41-1.41c-.37-.37-.89-.59-1.41-.59h-4.59c-1.1,0-2,.9-2,2v14c0,1.1.9,2,2,2h16c1.1,0,2-.9,2-2V6c0-1.1-.9-2-2-2Zm-4.71,12.21l-1.82-1.82c-.56.39-1.24.61-1.97.61-1.93,0-3.5-1.57-3.5-3.5s1.57-3.5,3.5-3.5,3.5,1.57,3.5,3.5c0,.47-.1.91-.26,1.32l1.97,1.97-1.41,1.41Z"/></g><path d="m11.5,15c.73,0,1.41-.23,1.97-.61l1.82,1.82,1.41-1.41-1.97-1.97c.17-.41.26-.85.26-1.32,0-1.93-1.57-3.5-3.5-3.5s-3.5,1.57-3.5,3.5,1.57,3.5,3.5,3.5Zm0-5c.83,0,1.5.67,1.5,1.5s-.67,1.5-1.5,1.5-1.5-.67-1.5-1.5.67-1.5,1.5-1.5Z"/></svg>