<svg xmlns="http://www.w3.org/2000/svg" width="24" height="24" viewBox="0 0 24 24"><g opacity="0.4"><path d="m4.54,17.89c.14.07.3.11.46.11.21,0,.41-.06.58-.19l7-5c.26-.19.42-.49.42-.81s-.16-.63-.42-.81l-7-5c-.3-.22-.71-.25-1.04-.08-.33.17-.54.51-.54.89v10c0,.37.21.72.54.89Z"/></g><path class="st0" d="M19.6,11.2l-7-5c-0.3-0.2-0.7-0.2-1-0.1S11,6.6,11,7v3.1l1.6,1.1c0.3,0.2,0.4,0.5,0.4,0.8s-0.2,0.6-0.4,0.8
	L11,13.9V17c0,0.4,0.2,0.7,0.5,0.9C11.7,18,11.8,18,12,18c0.2,0,0.4-0.1,0.6-0.2l7-5c0.3-0.2,0.4-0.5,0.4-0.8S19.8,11.4,19.6,11.2z"/></svg>