<svg xmlns="http://www.w3.org/2000/svg" width="24" height="24" viewBox="0 0 24 24"><g opacity="0.4"><path d="m15,6.58V2.46c-.95-.3-1.96-.46-3-.46s-2.05.16-3,.46v4.12c0,1.53-.68,2.95-1.88,3.9l-4.75,4.18c1.17,4.23,5.04,7.34,9.63,7.34s8.46-3.12,9.63-7.34l-4.79-4.21c-1.16-.92-1.84-2.35-1.84-3.88Zm-6.5,9.42c-.83,0-1.5-.67-1.5-1.5s.67-1.5,1.5-1.5,1.5.67,1.5,1.5-.67,1.5-1.5,1.5Zm7,0c-.83,0-1.5-.67-1.5-1.5s.67-1.5,1.5-1.5,1.5.67,1.5,1.5-.67,1.5-1.5,1.5Z"/></g><path d="M8.5 13A1.5 1.5 0 1 0 8.5 16 1.5 1.5 0 1 0 8.5 13z"/><path d="M15.5 13A1.5 1.5 0 1 0 15.5 16 1.5 1.5 0 1 0 15.5 13z"/><path d="m7.12,10.48c1.19-.95,1.88-2.38,1.88-3.9V2.46C4.95,3.74,2,7.53,2,12c0,.92.14,1.81.37,2.66l4.75-4.18Z"/><path d="m15,2.46v4.12c0,1.53.68,2.95,1.84,3.88l4.79,4.21c.23-.85.37-1.74.37-2.66,0-4.47-2.95-8.26-7-9.54Z"/></svg>