<svg xmlns="http://www.w3.org/2000/svg" width="24" height="24" viewBox="0 0 24 24"><g opacity="0.4"><path d="M4.99 18.15 11 21.58 11 18.14 8 16.48 4.99 18.15z"/><path d="M11 5.86 11 2.42 4.99 5.85 8 7.52 11 5.86z"/><path d="M7 9.25 4 7.59 4 16.41 7 14.75 7 9.25z"/><path d="M15 9.25 12 7.59 9 9.25 9 14.75 12 16.41 15 14.75 15 9.25z"/><path d="M17 14.75 20 16.41 20 7.59 17 9.25 17 14.75z"/><path d="M19.01 5.85 13 2.42 13 5.86 16 7.52 19.01 5.85z"/><path d="M13 18.14 13 21.58 19.01 18.15 16 16.48 13 18.14z"/></g><path d="m19.5,6.13l-.49-.28-3.01,1.67-3-1.67v-3.44l-.5-.29c-.31-.18-.69-.18-.99,0l-.5.29v3.44l-3,1.67-3.01-1.67-.49.28c-.31.18-.5.51-.5.87v.59l3,1.67v5.49l-3,1.67v.59c0,.36.19.69.5.87l.49.28,3.01-1.67,3,1.67v3.44l.5.29c.15.09.33.13.5.13s.34-.04.5-.13l.5-.29v-3.44l3-1.67,3.01,1.67.49-.28c.31-.18.5-.51.5-.87v-.59l-3-1.67v-5.49l3-1.67v-.59c0-.36-.19-.69-.5-.87Zm-4.5,8.61l-3,1.67-3-1.67v-5.49l3-1.67,3,1.67v5.49Z"/></svg>