<svg xmlns="http://www.w3.org/2000/svg" width="24" height="24" viewBox="0 0 24 24"><g opacity="0.4"><path d="M13 17H17V19H13z"/><path d="M7 17H11V19H7z"/><path d="M19 17H22V19H19z"/><path d="M2 17H5V19H2z"/><path d="M13 11H17V13H13z"/><path d="M7 11H11V13H7z"/><path d="M19 11H22V13H19z"/><path d="M2 11H5V13H2z"/><path d="M13 5H17V7H13z"/><path d="M7 5H11V7H7z"/><path d="M2 5H5V7H2z"/><path d="M19 5H22V7H19z"/></g><path d="M5 2H7V22H5z"/><path d="M11 2H13V22H11z"/><path d="M17 2H19V22H17z"/></svg>