<svg xmlns="http://www.w3.org/2000/svg" width="24" height="24" viewBox="0 0 24 24"><g opacity="0.4"><path d="m21,5H3c-1.1,0-2,.9-2,2v8c0,2.21,1.79,4,4,4h14c2.21,0,4-1.79,4-4V7c0-1.1-.9-2-2-2ZM5,13h-2v-2h2v2Zm-1-3c-.55,0-1-.45-1-1s.45-1,1-1,1,.45,1,1-.45,1-1,1Zm13,7H7V7h10v10Zm4-4h-2v-2h2v2Zm-1-3c-.55,0-1-.45-1-1s.45-1,1-1,1,.45,1,1-.45,1-1,1Z"/></g><path d="M3 11H5V13H3z"/><path d="M19 11H21V13H19z"/><path d="M20 8A1 1 0 1 0 20 10 1 1 0 1 0 20 8z"/><path d="M7 7H17V17H7z"/><path d="M4 8A1 1 0 1 0 4 10 1 1 0 1 0 4 8z"/></svg>