<svg xmlns="http://www.w3.org/2000/svg" width="24" height="24" viewBox="0 0 24 24"><g opacity="0.4"><path d="M14.01 17H16.009999999999998V19H14.01z"/><path d="M18.01 17H20.01V19H18.01z"/><path d="m19.98,1.84c-.08-.48-.5-.84-.99-.84H5.02c-.49,0-.91.35-.99.84l-2.02,13.08c0,.05-.01.11-.01.16v.92c0-.55.45-1,1-1h18c.55,0,1,.45,1,1v-.92c0-.05,0-.11-.01-.16l-2.01-13.08Z"/></g><path d="m21,15H3c-.55,0-1,.45-1,1v4c0,.55.45,1,1,1h18c.55,0,1-.45,1-1v-4c0-.55-.45-1-1-1Zm-5,4h-2v-2h2v2Zm4,0h-2v-2h2v2Z"/></svg>