<svg xmlns="http://www.w3.org/2000/svg" width="24" height="24" viewBox="0 0 24 24"><g opacity="0.4"><path d="m19,2H5c-1.1,0-2,.9-2,2v16c0,1.1.9,2,2,2h11c2.76,0,5-2.24,5-5V4c0-1.1-.9-2-2-2Zm-7,16h-2v2h-2v-2h-2v-2h2v-2h2v2h2v2Zm3,1c-.55,0-1-.45-1-1s.45-1,1-1,1,.45,1,1-.45,1-1,1Zm2-2c-.55,0-1-.45-1-1s.45-1,1-1,1,.45,1,1-.45,1-1,1Zm1-5H6v-7h12v7Z"/></g><path d="M6 5H18V12H6z"/><path d="M8 20 10 20 10 18 12 18 12 16 10 16 10 14 8 14 8 16 6 16 6 18 8 18 8 20z"/><path d="M17 15A1 1 0 1 0 17 17 1 1 0 1 0 17 15z"/><path d="M15 17A1 1 0 1 0 15 19 1 1 0 1 0 15 17z"/></svg>