<svg xmlns="http://www.w3.org/2000/svg" width="24" height="24" viewBox="0 0 24 24"><g opacity="0.4"><path d="m14,14v-4c0-.55-.45-1-1-1H2.55c-.36,1.06-.55,2.18-.55,3.32v2.68h11c.55,0,1-.45,1-1Z"/><path d="m21.55,9h-3.55v2h3.95c-.07-.69-.2-1.36-.4-2Z"/><path d="m21.94,13h-3.94v2h3.51c.21-.65.36-1.32.43-2Z"/></g><path d="m18,11v-2h3.55c-1.25-4.04-4.96-6.94-9.42-7-2.6-.04-5.11.99-7.02,2.87-1.17,1.16-2.04,2.59-2.56,4.13h10.45c.55,0,1,.45,1,1v4c0,.55-.45,1-1,1H2v2.5c0,2.61,2.17,4.5,5.17,4.5h4.52c2.78,0,5.5-1.13,7.45-3.11,1.11-1.12,1.91-2.45,2.38-3.89h-3.51v-2h3.94c.04-.37.06-.75.06-1.13,0-.29-.03-.58-.05-.87h-3.95Z"/></svg>