<svg xmlns="http://www.w3.org/2000/svg" width="24" height="24" viewBox="0 0 24 24"><g opacity="0.4"><path d="m20.29,11.5c-.22-.53-.5-1.05-.83-1.53-.32-.47-.69-.92-1.1-1.33-.41-.41-.86-.78-1.33-1.1-.33-.22-.68-.41-1.03-.59v7.05h-1V5c0-.55-.45-1-1-1h-4c-.55,0-1,.45-1,1v9h-1v-7.05c-.35.18-.7.37-1.03.59-.48.32-.92.69-1.33,1.1-.41.41-.77.85-1.1,1.33-.33.48-.6,1-.83,1.53-.23.54-.41,1.11-.53,1.69-.12.59-.18,1.2-.18,1.81v3h18v-3c0-.61-.06-1.22-.18-1.81-.12-.58-.3-1.15-.53-1.69Z"/></g><path d="M3 18 2 18 2 20 22 20 22 18 21 18 3 18z"/></svg>