<svg xmlns="http://www.w3.org/2000/svg" width="24" height="24" viewBox="0 0 24 24"><g opacity="0.4"><path d="m19,3H5c-1.1,0-2,.9-2,2v14c0,.55.22,1.05.59,1.41l4.88-4.88c-.9-.9-1.46-2.15-1.46-3.54,0-2.76,2.24-5,5-5,1.38,0,2.63.56,3.54,1.46l-7.07,7.07c.9.9,2.15,1.46,3.54,1.46,2.76,0,5-2.24,5-5,0-1.38-.56-2.63-1.46-3.54l4.88-4.88c-.36-.36-.86-.59-1.41-.59Z"/></g><path d="m12,7c-2.76,0-5,2.24-5,5,0,1.38.56,2.63,1.46,3.54l7.07-7.07c-.9-.9-2.15-1.46-3.54-1.46Z"/><path d="m15.64,8.36l-.1.1c.9.9,1.46,2.15,1.46,3.54,0,2.76-2.24,5-5,5-1.38,0-2.63-.56-3.54-1.46l-.1.1-4.78,4.78c.36.36.86.59,1.41.59h14c1.1,0,2-.9,2-2V5c0-.55-.22-1.05-.59-1.41l-4.78,4.78Z"/></svg>