<svg xmlns="http://www.w3.org/2000/svg" width="24" height="24" viewBox="0 0 24 24"><g opacity="0.4"><path d="m19,3H5c-1.1,0-2,.9-2,2v14c0,1.1.9,2,2,2h9v-2H5v-1.59l3-3,1.29,1.29c.39.39,1.02.39,1.41,0l5.29-5.29,3,3v.59h2V5c0-1.1-.9-2-2-2Zm-10.5,7c-.83,0-1.5-.67-1.5-1.5s.67-1.5,1.5-1.5,1.5.67,1.5,1.5-.67,1.5-1.5,1.5Z"/></g><path d="m21.72,18.07l-1.94-.86-.86-1.94c-.07-.17-.24-.28-.42-.28-.19-.02-.35.1-.43.27l-.86,1.87-1.95.94c-.16.08-.27.25-.26.43,0,.18.11.35.28.42l1.94.86.86,1.94c.07.17.24.28.43.28s.35-.11.43-.28l.86-1.94,1.94-.86c.17-.08.28-.24.28-.43s-.11-.35-.28-.43Z"/></svg>