<svg xmlns="http://www.w3.org/2000/svg" width="24" height="24" viewBox="0 0 24 24"><g opacity="0.4"><path d="m12,8c-3.31,0-6,2.69-6,6,0,1.91.88,2.93,1.72,3.93.32.37.65.76.95,1.21.18.27.31.57.4.86h5.86c.1-.29.22-.59.4-.86.3-.44.62-.83.94-1.2.85-1,1.73-2.04,1.73-3.94,0-3.31-2.69-6-6-6Z"/></g><path d="M8 20H16V22H8z"/><path d="M13 6 13 4.25 13 2.5 12 2.5 11 2.5 11 4.25 11 6 12 6 13 6z"/><path d="M2.55 7.17 2 8 1.45 8.83 2.95 9.83 4.45 10.83 5 10 5.55 9.17 4.05 8.17 2.55 7.17z"/><path d="M7.17 7.55 8 7 8.83 6.45 7.83 4.95 6.83 3.45 6 4 5.17 4.55 6.17 6.05 7.17 7.55z"/><path d="M21.45 7.17 19.95 8.17 18.45 9.17 19 10 19.55 10.83 21.05 9.83 22.55 8.83 22 8 21.45 7.17z"/><path d="M16.83 7.55 17.83 6.05 18.83 4.55 18 4 17.17 3.45 16.17 4.95 15.17 6.45 16 7 16.83 7.55z"/></svg>