<svg xmlns="http://www.w3.org/2000/svg" width="24" height="24" viewBox="0 0 24 24"><g opacity="0.4"><path d="m14.04,16.86c-2.28-.07-3.83,1.78-3.89,1.85-.29.35-.31.84-.06,1.21.06.08,1.42,2.02,3.71,2.07.03,0,.07,0,.1,0,2.21,0,3.73-1.78,3.79-1.86.29-.35.31-.84.06-1.21-.06-.08-1.42-2.02-3.71-2.07Z"/><path d="m11.37,13.83c.37.2.69.44.96.7.03-.25.25-2.47-1.28-4.08h0c-1.58-1.67-3.94-1.49-4.04-1.48-.47.04-.84.4-.9.86-.01.09-.27,2.23,1.09,3.88.48-.19,2.39-.83,4.18.12Z"/><path d="m14.58,2.48c-.25-.41-.75-.58-1.2-.42-.09.03-2.25.86-2.93,3.11-.03.12-.04.23-.07.34.67.41,1.41,1.04,1.88,2h0c.37.76.47,1.53.46,2.2.69-.37,1.99-1.25,2.49-2.9.66-2.2-.57-4.25-.62-4.34Z"/></g><path d="m10.14,18.71c.06-.07,1.48-1.73,3.58-1.83-.23-.75-.85-2.25-2.36-3.05-2.02-1.06-4.2-.11-4.29-.07-.42.19-.66.63-.58,1.09.02.1.45,2.44,2.47,3.5.38.2.77.33,1.15.4.01-.01.01-.03.03-.04Z"/><path d="m11.05,10.45h0c.5.52.8,1.11.99,1.67.09-.08.16-.18.22-.29.04-.09,1.01-2.23,0-4.32h0c-1.01-2.08-3.3-2.65-3.4-2.68-.46-.11-.94.12-1.14.55-.04.08-.79,1.75-.27,3.58.77.02,2.41.22,3.61,1.48Z"/></svg>