<svg xmlns="http://www.w3.org/2000/svg" width="24" height="24" viewBox="0 0 24 24"><g opacity="0.4"><path d="m9.88,18.36c-1.17,1.17-3.07,1.17-4.24,0-1.17-1.17-1.17-3.07,0-4.24l2.83-2.83-1.41-1.41-2.83,2.83c-1.95,1.95-1.95,5.12,0,7.07.97.97,2.25,1.46,3.54,1.46s2.56-.49,3.54-1.46l2.83-2.83-1.41-1.41-2.83,2.83Z"/><path d="m12.71,4.22l-2.83,2.83,1.41,1.41,2.83-2.83c1.17-1.17,3.07-1.17,4.24,0,1.17,1.17,1.17,3.07,0,4.24l-2.83,2.83,1.41,1.41,2.83-2.83c1.95-1.95,1.95-5.12,0-7.07-1.95-1.95-5.12-1.95-7.07,0Z"/></g><path d="M7 2H9V6H7z"/><path d="M2 7H6V9H2z"/><path d="M15 18H17V22H15z"/><path d="M18 15H22V17H18z"/></svg>