<svg xmlns="http://www.w3.org/2000/svg" width="24" height="24" viewBox="0 0 24 24"><g opacity="0.4"><path d="m12,2c-4.41,0-8,3.59-8,8-.03,6.45,7.12,11.6,7.42,11.82.17.12.38.19.58.19s.41-.06.58-.19c.3-.22,7.45-5.37,7.42-11.82,0-4.41-3.59-8-8-8Zm3.54,10.12l-1.41,1.41-2.12-2.12-2.12,2.12-1.41-1.41,2.12-2.12-2.12-2.12,1.41-1.41,2.12,2.12,2.12-2.12,1.41,1.41-2.12,2.12,2.12,2.12Z"/></g><path d="M9.88 13.54 12 11.41 14.12 13.54 15.54 12.12 13.41 10 15.54 7.88 14.12 6.46 12 8.59 9.88 6.46 8.46 7.88 10.59 10 8.46 12.12 9.88 13.54z"/></svg>