<svg xmlns="http://www.w3.org/2000/svg" width="24" height="24" viewBox="0 0 24 24"><g opacity="0.4"><path d="m15.04,16.86c-1.38.03-2.41.75-3.04,1.33-.62-.58-1.66-1.3-3.04-1.33-2.26-.05-3.83,1.78-3.89,1.85-.29.35-.31.84-.06,1.21.06.08,1.42,2.02,3.71,2.07.03,0,.07,0,.1,0,1.4,0,2.53-.72,3.18-1.26.65.54,1.77,1.26,3.18,1.26.03,0,.07,0,.1,0,2.29-.05,3.65-1.99,3.71-2.07.26-.37.23-.87-.06-1.21-.07-.08-1.64-1.93-3.89-1.85Z"/><path d="m7.26,14.53c.03-.25.25-2.47-1.28-4.08h0c-1.58-1.67-3.94-1.48-4.04-1.48-.47.04-.84.4-.9.86-.01.09-.27,2.23,1.09,3.88.48-.19,2.39-.83,4.18.12.37.2.69.44.96.7Z"/><path d="m22.06,8.98c-.1,0-2.46-.19-4.04,1.48h0c-1.53,1.61-1.31,3.83-1.28,4.08.27-.26.59-.5.96-.7,1.79-.94,3.7-.3,4.18-.12,1.35-1.64,1.1-3.78,1.08-3.88-.06-.46-.44-.82-.9-.86Z"/><path d="m8.3,2.06c-.09.03-2.25.86-2.93,3.11-.03.12-.04.23-.07.34.67.41,1.41,1.04,1.88,2,.37.76.47,1.53.46,2.2.69-.37,1.99-1.25,2.49-2.9.66-2.2-.57-4.25-.62-4.34-.25-.41-.75-.58-1.2-.42Z"/><path d="m16.36,9.72c-.02-.67.09-1.44.46-2.2.47-.96,1.21-1.59,1.88-2-.02-.11-.03-.23-.07-.34-.68-2.25-2.84-3.08-2.93-3.11-.45-.17-.95,0-1.2.42-.05.09-1.28,2.14-.62,4.34.5,1.66,1.8,2.54,2.49,2.9Z"/></g><path d="m3.9,18.35c.38.2.77.33,1.15.4.01-.01.01-.03.03-.04.06-.07,1.5-1.72,3.58-1.83-.23-.75-.85-2.25-2.36-3.05-2.02-1.06-4.2-.11-4.29-.07-.42.19-.66.63-.58,1.09.02.1.45,2.44,2.47,3.5Z"/><path d="m18.93,18.71s.02.03.03.04c.38-.08.77-.2,1.15-.4,2.02-1.07,2.45-3.4,2.47-3.5.08-.45-.16-.9-.58-1.09-.09-.04-2.28-.99-4.29.07-1.51.79-2.13,2.29-2.36,3.05,2.08.09,3.52,1.76,3.58,1.83Z"/><path d="m5.98,10.45h0c.5.52.8,1.11.99,1.67.09-.08.16-.18.22-.29.04-.09,1.01-2.23,0-4.32-1.01-2.08-3.3-2.65-3.4-2.68-.46-.11-.94.12-1.14.55-.04.08-.79,1.75-.27,3.58.77.02,2.41.22,3.61,1.48Z"/><path d="m17.03,12.13c.19-.56.49-1.15.99-1.67h0c1.2-1.26,2.84-1.46,3.61-1.48.52-1.82-.24-3.5-.27-3.58-.2-.43-.68-.66-1.14-.55-.1.02-2.39.6-3.4,2.68-1.02,2.08-.05,4.23,0,4.32.05.11.13.21.22.29Z"/></svg>