<svg xmlns="http://www.w3.org/2000/svg" width="24" height="24" viewBox="0 0 24 24"><g opacity="0.4"><path d="m12,2C6.49,2,2,6.49,2,12s4.49,10,10,10,10-4.49,10-10S17.51,2,12,2Zm-6.05,6.83l1.11-1.66,3,2c.28.19.45.5.45.83s-.17.65-.45.83l-3,2-1.11-1.66,1.75-1.17-1.75-1.17Zm6.05,9.17c-4,0-5-4-5-4h10s-1,4-5,4Zm6.05-6.83l-1.11,1.66-3-2c-.28-.19-.45-.5-.45-.83s.17-.65.45-.83l3-2,1.11,1.66-1.75,1.17,1.75,1.17Z"/></g><path d="m7.05,12.83l3-2c.28-.19.45-.5.45-.83s-.17-.65-.45-.83l-3-2-1.11,1.66,1.75,1.17-1.75,1.17,1.11,1.66Z"/><path d="m16.95,7.17l-3,2c-.28.19-.45.5-.45.83s.17.65.45.83l3,2,1.11-1.66-1.75-1.17,1.75-1.17-1.11-1.66Z"/><path d="m12,18c4,0,5-4,5-4H7s1,4,5,4Z"/></svg>