<svg xmlns="http://www.w3.org/2000/svg" width="24" height="24" viewBox="0 0 24 24"><g opacity="0.4"><path d="m21.49,11.13l-8.51-4.73c-.61-.34-1.33-.34-1.94,0L2.51,11.13c-.32.18-.51.51-.51.87s.2.7.51.87l8.51,4.73c.3.17.64.25.97.25s.67-.08.97-.25l8.51-4.73c.32-.18.51-.51.51-.87s-.2-.7-.51-.87Z"/></g><path d="M20 2 18 2 18 4 16 4 16 6 18 6 18 8 20 8 20 6 22 6 22 4 20 4 20 2z"/><path d="m21.49,16.13l-2.93-1.63-5.59,3.1c-.3.17-.64.25-.97.25s-.67-.08-.97-.25l-5.59-3.1-2.93,1.63c-.32.18-.51.51-.51.87s.2.7.51.87l8.51,4.73c.3.17.64.25.97.25s.67-.08.97-.25l8.51-4.73c.32-.18.51-.51.51-.87s-.2-.7-.51-.87Z"/></svg>