<svg xmlns="http://www.w3.org/2000/svg" width="24" height="24" viewBox="0 0 24 24"><g opacity="0.4"><path d="m15,7h2.91c-.48-2.83-2.94-5-5.91-5s-5.43,2.17-5.91,5h5.91v2h-6v2h6v2h-5.91c.48,2.83,2.94,5,5.91,5s5.43-2.17,5.91-5h-2.91v-2h3v-2h-3v-2Z"/></g><path d="m12,7h-5.91c-.06.33-.09.66-.09,1v1h6v-2Z"/><path d="m12,13v-2h-6v1c0,.34.04.67.09,1h5.91Z"/><path d="m18,8c0-.34-.04-.67-.09-1h-2.91v2h3v-1Z"/><path d="m18,12v-1h-3v2h2.91c.06-.33.09-.66.09-1Z"/><path d="m12,20c-4.41,0-8-3.59-8-8h-2c0,5.51,4.49,10,10,10s10-4.49,10-10h-2c0,4.41-3.59,8-8,8Z"/></svg>