<svg xmlns="http://www.w3.org/2000/svg" width="24" height="24" viewBox="0 0 24 24"><g opacity="0.4"><path d="m6,3v8.41c1.06-1.77,2.88-3.03,5-3.33V2h-4c-.55,0-1,.45-1,1Z"/><path d="m18,11.41V3c0-.55-.45-1-1-1h-4v6.08c2.12.31,3.94,1.57,5,3.33Z"/><path d="M10.92 13.63 8.5 13.98 10.25 15.69 9.84 18.1 12 16.96 14.16 18.1 13.75 15.69 15.5 13.98 13.08 13.63 12 11.44 10.92 13.63z"/></g><path d="m13,8.08V2h-2v6.08c-3.39.49-6,3.4-6,6.92,0,3.86,3.14,7,7,7s7-3.14,7-7c0-3.52-2.61-6.43-6-6.92Zm1.16,10.02l-2.16-1.14-2.16,1.14.41-2.41-1.75-1.71,2.42-.35,1.08-2.19,1.08,2.19,2.42.35-1.75,1.71.41,2.41Z"/></svg>