<svg xmlns="http://www.w3.org/2000/svg" width="24" height="24" viewBox="0 0 24 24"><g opacity="0.4"><path d="m16,12v-6c0-2.21-1.79-4-4-4s-4,1.79-4,4v.59l7.43,7.43c.35-.59.57-1.28.57-2.02Z"/><path d="m8,12c0,2.21,1.79,4,4,4,.74,0,1.42-.22,2.02-.57l-6.02-6.02v2.59Z"/><path d="m16.89,15.47l1.43,1.43c1.06-1.35,1.69-3.05,1.69-4.9h-2c0,1.29-.42,2.49-1.11,3.47Z"/><path d="m12,18c-3.31,0-6-2.69-6-6h-2c0,4.07,3.06,7.44,7,7.93v2.07h2v-2.07c1.46-.18,2.79-.76,3.9-1.62l-1.43-1.43c-.98.7-2.18,1.11-3.47,1.11Z"/></g><path d="M2.71 1.29 2 2 1.29 2.71 11.29 12.71 21.29 22.71 22 22 22.71 21.29 12.71 11.29 2.71 1.29z"/></svg>