<svg xmlns="http://www.w3.org/2000/svg" width="24" height="24" viewBox="0 0 24 24"><g opacity="0.4"><path d="m20,3H4c-1.1,0-2,.9-2,2v12c0,1.1.9,2,2,2h3v2c0,.36.19.69.51.87.15.09.32.13.49.13s.36-.05.51-.14l4.76-2.86h6.72c1.1,0,2-.9,2-2V5c0-1.1-.9-2-2-2Zm-7,13h-2v-2h2v2Zm1.47-4.03c-.42.42-.92.72-1.47.88v.14h-2v-1c0-.55.45-1,1-1,.4,0,.78-.16,1.06-.44s.44-.66.44-1.06-.16-.78-.44-1.06c-.57-.57-1.55-.57-2.12,0-.28.28-.44.66-.44,1.06h-2c0-.93.36-1.81,1.03-2.47,1.32-1.32,3.63-1.32,4.95,0,.66.66,1.03,1.54,1.03,2.47s-.36,1.81-1.03,2.47Z"/></g><path d="m13,12.86c.55-.16,1.06-.46,1.47-.88.66-.66,1.03-1.54,1.03-2.47s-.36-1.81-1.03-2.47c-1.32-1.32-3.63-1.32-4.95,0-.66.66-1.03,1.54-1.03,2.47h2c0-.4.16-.78.44-1.06.57-.57,1.55-.57,2.12,0,.28.28.44.66.44,1.06s-.16.78-.44,1.06-.66.44-1.06.44c-.55,0-1,.45-1,1v1h2v-.14Z"/><path d="M11 14H13V16H11z"/></svg>