<svg xmlns="http://www.w3.org/2000/svg" width="24" height="24" viewBox="0 0 24 24"><g opacity="0.4"><path d="m2,21c0,.55.45,1,1,1h2v-4c0-2,1.5-3,1.5-3,0,0,1.5,1,1.5,3v4h4v-4c0-2,1.5-3,1.5-3,0,0,1.5,1,1.5,3v4h2v-9H2v8Z"/><path d="m15.97,9H3c-.55,0-1,.45-1,1v2h15v-3h-1.03Z"/></g><path d="m19.5,2c-1.38,0-2.5,1.12-2.5,2.5v1.5h5v-1.5c0-1.38-1.12-2.5-2.5-2.5Z"/><path d="m15.97,9c.14-1.81-.69-3.58-2.29-4.68l-3.12-2.14c-.34-.23-.79-.23-1.13,0l-3.12,2.14c-1.6,1.1-2.43,2.88-2.29,4.68h11.95Z"/><path d="m17,9v3H2v1h15v9h4c.55,0,1-.45,1-1V7h-5v2Z"/><path d="m6.5,15s-1.5,1-1.5,3v4h3v-4c0-2-1.5-3-1.5-3Z"/><path d="m13.5,15s-1.5,1-1.5,3v4h3v-4c0-2-1.5-3-1.5-3Z"/></svg>