<svg xmlns="http://www.w3.org/2000/svg" width="24" height="24" viewBox="0 0 24 24"><g opacity="0.4"><path d="m20,3H4c-1.1,0-2,.9-2,2v12c0,1.1.9,2,2,2h3v2c0,.36.19.69.51.87.15.09.32.13.49.13s.36-.05.51-.14l4.76-2.86h6.72c1.1,0,2-.9,2-2V5c0-1.1-.9-2-2-2Zm-4.65,8.21l-3.35,3.29-3.35-3.29s-.04-.04-.06-.06c-.82-.85-.79-2.2.06-3.01.87-.86,2.26-.86,3.12,0l.22.22.22-.22c.87-.86,2.26-.86,3.12,0,.02.02.04.04.06.06.82.85.79,2.2-.06,3.01Z"/></g><path d="m12,14.5l3.35-3.29c.85-.82.87-2.16.06-3.01-.02-.02-.04-.04-.06-.06-.87-.86-2.26-.86-3.12,0l-.22.22-.22-.22c-.87-.86-2.26-.86-3.12,0-.85.82-.87,2.16-.06,3.01.02.02.04.04.06.06l3.35,3.29Z"/></svg>