<svg xmlns="http://www.w3.org/2000/svg" width="24" height="24" viewBox="0 0 24 24"><g opacity="0.4"><path d="m12,2C6.49,2,2,6.49,2,12c0,2.12.68,4.19,1.93,5.9l-1.75,2.53c-.21.31-.24.7-.06,1.03.17.33.51.54.89.54h9c5.51,0,10-4.49,10-10S17.51,2,12,2Zm1,15h-2v-2h2v2Zm1.47-4.03c-.42.42-.92.72-1.47.88v.14h-2v-1c0-.55.45-1,1-1,.4,0,.78-.16,1.06-.44s.44-.66.44-1.06-.16-.78-.44-1.06c-.57-.57-1.55-.57-2.12,0-.28.28-.44.66-.44,1.06h-2c0-.93.36-1.81,1.03-2.47,1.32-1.32,3.63-1.32,4.95,0,.66.66,1.03,1.54,1.03,2.47s-.36,1.81-1.03,2.47Z"/></g><path d="m13,13.86c.55-.16,1.06-.46,1.47-.88.66-.66,1.03-1.54,1.03-2.47s-.36-1.81-1.03-2.47c-1.32-1.32-3.63-1.32-4.95,0-.66.66-1.03,1.54-1.03,2.47h2c0-.4.16-.78.44-1.06.57-.57,1.55-.57,2.12,0,.28.28.44.66.44,1.06s-.16.78-.44,1.06-.66.44-1.06.44c-.55,0-1,.45-1,1v1h2v-.14Z"/><path d="M11 15H13V17H11z"/></svg>