<svg xmlns="http://www.w3.org/2000/svg" width="24" height="24" viewBox="0 0 24 24"><g opacity="0.4"><path d="m19,6H5c-1.65,0-3,1.35-3,3v5c0,2.21,1.79,4,4,4h1.64c1.17,0,2.28-.56,2.98-1.49.66-.88,2.1-.88,2.76,0,.7.93,1.82,1.49,2.98,1.49h1.64c2.21,0,4-1.79,4-4v-5c0-1.65-1.35-3-3-3Zm-11.5,7c-1.38,0-2.5-.67-2.5-1.5s1.12-1.5,2.5-1.5,2.5.67,2.5,1.5-1.12,1.5-2.5,1.5Zm9,0c-1.38,0-2.5-.67-2.5-1.5s1.12-1.5,2.5-1.5,2.5.67,2.5,1.5-1.12,1.5-2.5,1.5Z"/></g><path d="M16.5 10A2.5 1.5 0 1 0 16.5 13 2.5 1.5 0 1 0 16.5 10z"/><path d="M7.5 10A2.5 1.5 0 1 0 7.5 13 2.5 1.5 0 1 0 7.5 10z"/></svg>