<svg xmlns="http://www.w3.org/2000/svg" width="24" height="24" viewBox="0 0 24 24"><g opacity="0.4"><path d="m20,3H4c-1.1,0-2,.9-2,2v12c0,1.1.9,2,2,2h3v2c0,.36.19.69.51.87.15.09.32.13.49.13s.36-.05.51-.14l4.76-2.86h6.72c1.1,0,2-.9,2-2V5c0-1.1-.9-2-2-2Zm-9.29,10.29l-1.41,1.41-3.71-3.71,3.71-3.71,1.41,1.41-2.29,2.29,2.29,2.29Zm4,1.41l-1.41-1.41,2.29-2.29-2.29-2.29,1.41-1.41,3.71,3.71-3.71,3.71Z"/></g><path d="M14.71 14.71 18.41 11 14.71 7.29 13.29 8.71 15.59 11 13.29 13.29 14.71 14.71z"/><path d="M10.71 13.29 8.41 11 10.71 8.71 9.29 7.29 5.59 11 9.29 14.71 10.71 13.29z"/></svg>