<svg xmlns="http://www.w3.org/2000/svg" width="24" height="24" viewBox="0 0 24 24"><g opacity="0.4"><path d="m19,6H5c-1.1,0-2,.9-2,2v12c0,1.1.9,2,2,2h14c1.1,0,2-.9,2-2v-12c0-1.1-.9-2-2-2Zm-2.5,11.25c0,.96-.78,1.75-1.75,1.75s-1.75-.79-1.75-1.75.78-1.75,1.75-1.75c.27,0,.52.07.75.18v-4.75l-5-.83v6.08h0s0,.05,0,.08c0,.96-.78,1.75-1.75,1.75s-1.75-.79-1.75-1.75.78-1.75,1.75-1.75c.27,0,.52.07.75.18v-5.18c0-.15.06-.29.18-.38s.26-.13.41-.11l6,1c.24.04.42.25.42.49v6.75Z"/></g><path d="M6 2H18V4H6z"/><path d="m14.75,15.5c-.97,0-1.75.78-1.75,1.75s.78,1.75,1.75,1.75,1.75-.79,1.75-1.75v-6.75c0-.24-.18-.45-.42-.49l-6-1c-.14-.02-.29.02-.41.11s-.18.23-.18.38v5.18c-.23-.11-.48-.18-.75-.18-.97,0-1.75.78-1.75,1.75s.78,1.75,1.75,1.75,1.75-.79,1.75-1.75c0-.03,0-.06,0-.08h0v-6.08l5,.83v4.75c-.23-.11-.48-.18-.75-.18Z"/></svg>