<svg xmlns="http://www.w3.org/2000/svg" width="24" height="24" viewBox="0 0 24 24"><g opacity="0.4"><path d="m20.26,14.47s-.07-.04-.1-.05c-.5-.27-1.07-.42-1.66-.42-1.11,0-2.13.51-2.8,1.4-.45.6-.7,1.35-.7,2.1,0,1.93,1.57,3.5,3.5,3.5s3.5-1.57,3.5-3.5c0-1.24-.67-2.4-1.74-3.03Z"/><path d="m7.26,14.47s-.07-.04-.1-.05c-.5-.27-1.07-.42-1.66-.42-1.11,0-2.13.51-2.79,1.38-.3.39-.53.87-.65,1.43-.04.22-.07.45-.07.69,0,1.93,1.57,3.5,3.5,3.5s3.5-1.57,3.5-3.5c0-.23-.03-.47-.07-.69-.19-.97-.8-1.82-1.67-2.34Z"/><path d="m15.37,7l.87,2h1.26c.28,0,.5-.22.5-.5v-1c0-.28-.22-.5-.5-.5h-2.13Z"/></g><path d="m15,17.5c0-.76.25-1.5.7-2.1.66-.87,1.65-1.37,2.73-1.39l-3.15-7.21c-.48-1.09-1.56-1.8-2.75-1.8h-1.53v2h1.53c.4,0,.76.24.92.6l1.05,2.4h-3.93c-.29,0-.56.12-.75.33l-2.39,2.68-2.72-2.72c-.19-.19-.44-.29-.71-.29H1.84v2h1.75l2.01,2.01c.55.02,1.08.15,1.56.4.04.02.07.03.1.05.87.51,1.48,1.37,1.67,2.34.04.2.05.4.06.6l1.3,1.3c.19.19.44.29.71.29h2c.25,0,.5-.1.68-.27l1.32-1.23s0,0,0,0Z"/></svg>