<svg xmlns="http://www.w3.org/2000/svg" width="24" height="24" viewBox="0 0 24 24"><g opacity="0.4"><path d="m7.47,21.85c.29.18.66.2.97.04l3.55-1.78,3.55,1.78c.14.07.29.11.45.11.18,0,.37-.05.53-.15.29-.18.47-.5.47-.85v-3.8c-.38.49-.95.8-1.58.8h-6.84c-.63,0-1.21-.31-1.58-.8v3.8c0,.35.18.67.47.85Z"/></g><path d="m17.16,3.01c-.36-.62-1.02-1.01-1.74-1.01h-6.84c-.72,0-1.38.39-1.74,1.01l-3.43,6c-.35.61-.35,1.37,0,1.98l3.43,6c.35.62,1.02,1.01,1.74,1.01h6.84c.71,0,1.38-.39,1.74-1.01l3.43-6c.35-.61.35-1.37,0-1.98l-3.43-6Z"/></svg>