<svg xmlns="http://www.w3.org/2000/svg" width="24" height="24" viewBox="0 0 24 24"><g opacity="0.4"><path d="M11 19H13V22H11z"/><path d="M11 2H13V5H11z"/><path d="M2 11H5V13H2z"/><path d="M19 11H22V13H19z"/><path d="M6.34 16.24 5.28 17.3 4.22 18.36 4.93 19.07 5.64 19.78 6.7 18.72 7.76 17.66 7.05 16.95 6.34 16.24z"/><path d="M17.66 7.76 18.72 6.7 19.78 5.64 19.07 4.93 18.36 4.22 17.3 5.28 16.24 6.34 16.95 7.05 17.66 7.76z"/><path d="M6.34 7.76 7.05 7.05 7.76 6.34 6.7 5.28 5.64 4.22 4.93 4.93 4.22 5.64 5.28 6.7 6.34 7.76z"/><path d="M17.66 16.24 16.95 16.95 16.24 17.66 17.3 18.72 18.36 19.78 19.07 19.07 19.78 18.36 18.72 17.3 17.66 16.24z"/><path d="m16.36,14.4c-.18-.02-.37-.05-.54-.08-.4-.08-.78-.2-1.14-.35-.36-.15-.71-.34-1.03-.56-.32-.22-.62-.47-.9-.74-.27-.28-.52-.58-.74-.9-.22-.32-.41-.67-.56-1.03-.15-.36-.27-.75-.35-1.14-.08-.4-.12-.81-.12-1.22s.04-.83.12-1.22c0-.02,0-.03.01-.05-2.33.43-4.1,2.46-4.1,4.91,0,2.76,2.24,5,5,5,1.88,0,3.5-1.06,4.36-2.6Z"/></g><path d="m12,7c-.31,0-.61.04-.9.09,0,.02,0,.03-.01.05-.08.4-.12.81-.12,1.22s.04.83.12,1.22c.08.4.2.78.35,1.14.15.36.34.71.56,1.03.22.32.47.62.74.9.28.28.58.52.9.74.32.22.67.41,1.03.56.36.15.75.27,1.14.35.18.04.36.06.54.08.4-.72.64-1.53.64-2.4,0-2.76-2.24-5-5-5Z"/></svg>