<svg xmlns="http://www.w3.org/2000/svg" width="24" height="24" viewBox="0 0 24 24"><g opacity="0.4"><path d="m19.36,8.99c-.04-.05-.07-.11-.12-.16-.05-.07-.11-.13-.17-.19-.04-.05-.08-.1-.13-.14-.06-.06-.13-.12-.2-.17-.05-.04-.09-.08-.14-.12-.07-.05-.15-.1-.23-.15-.05-.03-.1-.07-.15-.1-.08-.05-.16-.08-.25-.12-.05-.02-.1-.05-.15-.07-.09-.04-.18-.06-.27-.09-.03,0-.06-.02-.09-.03-.2-.03-.37-.07-.51-.11-.15-.02-.3-.03-.45-.03-1.93,0-3.5,1.57-3.5,3.5,0,.55-.45,1-1,1s-1-.45-1-1c0-.94-.36-1.82-1.02-2.47-.66-.67-1.54-1.03-2.48-1.03-.15,0-.3.01-.45.03-.13.04-.3.07-.51.11-.03,0-.06.02-.09.03-.09.03-.18.06-.27.09-.05.02-.1.05-.15.07-.08.04-.17.08-.25.12-.05.03-.1.06-.15.1-.08.05-.15.09-.23.15-.05.04-.09.08-.14.12-.07.06-.14.11-.2.17-.05.04-.09.09-.13.14-.06.06-.12.13-.17.19-.04.05-.08.11-.12.16-.04.06-.09.12-.13.19-.34.89-.52,1.84-.52,2.82,0,4.41,3.59,8,8,8s8-3.59,8-8c0-.98-.17-1.93-.52-2.82-.04-.07-.09-.13-.13-.19Zm-11.86,4.01c-.83,0-1.5-.67-1.5-1.5s.67-1.5,1.5-1.5,1.5.67,1.5,1.5-.67,1.5-1.5,1.5Zm4.5,5s-1.5-1.62-1.5-3,.67-2,1.5-2,1.5.62,1.5,2-1.5,3-1.5,3Zm4.5-5c-.83,0-1.5-.67-1.5-1.5s.67-1.5,1.5-1.5,1.5.67,1.5,1.5-.67,1.5-1.5,1.5Z"/></g><path d="M16.5 10A1.5 1.5 0 1 0 16.5 13 1.5 1.5 0 1 0 16.5 10z"/><path d="M7.5 10A1.5 1.5 0 1 0 7.5 13 1.5 1.5 0 1 0 7.5 10z"/><path d="m13.5,15c0-1.38-.67-2-1.5-2s-1.5.62-1.5,2,1.5,3,1.5,3c0,0,1.5-1.62,1.5-3Z"/><path d="m22,3h-2c0,.77-.11,1.74-.59,2.27-1.85-2.05-4.51-3.27-7.41-3.27s-5.55,1.22-7.41,3.27c-.48-.53-.59-1.51-.59-2.27h-2c0,1.79.48,3.1,1.4,3.89-.27.46-.51.95-.71,1.46,0,0,0,0,0,0-.46,1.15-.69,2.38-.69,3.64,0,.17.02.33.03.5h-.03v9.5h20v-9.5h-.03c0-.17.03-.33.03-.5,0-1.26-.23-2.49-.69-3.64,0,0,0,0,0,0-.2-.51-.44-1-.71-1.46.93-.8,1.4-2.1,1.4-3.89ZM4,12c0-.98.17-1.93.52-2.82.04-.07.09-.13.13-.19.04-.05.07-.11.12-.16.05-.07.11-.13.17-.19.04-.05.08-.1.13-.14.06-.06.13-.12.2-.17.05-.04.09-.08.14-.12.07-.05.15-.1.23-.15.05-.03.1-.07.15-.1.08-.05.16-.08.25-.12.05-.02.1-.05.15-.07.09-.04.18-.06.27-.09.03,0,.06-.02.09-.03.2-.03.37-.07.51-.11.15-.02.3-.03.45-.03.94,0,1.82.36,2.48,1.03.66.65,1.02,1.53,1.02,2.47,0,.55.45,1,1,1s1-.45,1-1c0-1.93,1.57-3.5,3.5-3.5.15,0,.3.01.45.03.13.04.31.07.51.11.03,0,.06.02.09.03.09.03.18.06.27.09.05.02.1.05.15.07.08.04.17.08.25.12.05.03.1.06.15.1.08.05.15.09.23.15.05.04.09.08.14.12.07.06.14.11.2.17.05.04.09.09.13.14.06.06.12.12.17.19.04.05.08.11.12.16.04.06.09.12.13.19.34.89.52,1.84.52,2.82,0,4.41-3.59,8-8,8s-8-3.59-8-8Z"/></svg>