<svg xmlns="http://www.w3.org/2000/svg" width="24" height="24" viewBox="0 0 24 24"><g opacity="0.4"><path d="m19,3H5c-1.1,0-2,.9-2,2v4h18v-4c0-1.1-.9-2-2-2Zm-11,4c-.55,0-1-.45-1-1s.45-1,1-1,1,.45,1,1-.45,1-1,1Zm4,0c-.55,0-1-.45-1-1s.45-1,1-1,1,.45,1,1-.45,1-1,1Zm4,0c-.55,0-1-.45-1-1s.45-1,1-1,1,.45,1,1-.45,1-1,1Z"/></g><path d="M8 5A1 1 0 1 0 8 7 1 1 0 1 0 8 5z"/><path d="M16 5A1 1 0 1 0 16 7 1 1 0 1 0 16 5z"/><path d="M12 5A1 1 0 1 0 12 7 1 1 0 1 0 12 5z"/><path d="m3,19c0,1.1.9,2,2,2h14c1.1,0,2-.9,2-2v-10H3v10Zm5-7h8v2h-8v-2Z"/></svg>