<svg xmlns="http://www.w3.org/2000/svg" width="24" height="24" viewBox="0 0 24 24"><g opacity="0.4"><path d="m6.11,6.06l-4.08,14.68c-.1.35,0,.72.26.97.19.19.45.29.71.29.09,0,.18-.01.27-.04l14.68-4.08c-.53-6.29-5.54-11.3-11.83-11.83Zm.89,12.44c-.83,0-1.5-.67-1.5-1.5s.67-1.5,1.5-1.5,1.5.67,1.5,1.5-.67,1.5-1.5,1.5Zm1-6c-.83,0-1.5-.67-1.5-1.5s.67-1.5,1.5-1.5,1.5.67,1.5,1.5-.67,1.5-1.5,1.5Zm4.5,4c-1.1,0-2-.9-2-2s.9-2,2-2,2,.9,2,2-.9,2-2,2Z"/></g><path d="m8,2c-.45,0-.84.3-.96.73l-.92,3.32c.3.03.59.07.89.12,5.87.91,10.43,5.72,10.94,11.71l3.32-.92c.43-.12.73-.51.73-.96,0-7.72-6.28-14-14-14Z"/><path d="M7 15.5A1.5 1.5 0 1 0 7 18.5 1.5 1.5 0 1 0 7 15.5z"/><path d="M12.5 12.5A2 2 0 1 0 12.5 16.5 2 2 0 1 0 12.5 12.5z"/><path d="M8 9.5A1.5 1.5 0 1 0 8 12.5 1.5 1.5 0 1 0 8 9.5z"/></svg>