<svg xmlns="http://www.w3.org/2000/svg" width="24" height="24" viewBox="0 0 24 24"><g opacity="0.4"><path d="M18.06 15.06 18.06 15.06 17.97 15.14 18.06 15.06z"/><path d="m2.29,12.6c-.19.19-.29.44-.29.71s.11.52.29.71l7.69,7.69c.2.2.45.29.71.29s.51-.1.71-.29l5.95-5.94L8.25,6.66l-5.95,5.94Z"/></g><path d="m17.32,2.87l-2.36,2.37-1.23-1.23c-.38-.38-.88-.59-1.41-.59-.52,0-1.04.21-1.42.59l-2.65,2.66,9.1,9.1,2.65-2.66c.78-.78.77-2.05,0-2.83l-1.23-1.23,2.43-2.44c.51-.51.79-1.19.79-1.91,0-.8-.36-1.56-.98-2.08-1.06-.89-2.69-.78-3.7.24Z"/></svg>