<svg xmlns="http://www.w3.org/2000/svg" width="24" height="24" viewBox="0 0 24 24"><g opacity="0.4"><path d="m13.09,6.5l-2.59,2.59,4.41,4.41,2.59-2.59.79.79c.39.39,1.02.39,1.41,0l2-2c.39-.39.39-1.02,0-1.41l-6-6c-.39-.39-1.02-.39-1.41,0l-2,2c-.39.39-.39,1.02,0,1.41l.79.79Z"/><path d="m7.65,9.07c-.13.05-.26.12-.36.23l-2,2c-.39.39-.39,1.02,0,1.41l2.29,2.29-5.29,5.29,1.41,1.41,5.29-5.29,2.29,2.29c.2.2.45.29.71.29s.51-.1.71-.29l2-2c.11-.11.18-.23.23-.36l-7.28-7.28Z"/></g><path d="M21.29 22.71 11.29 12.71 1.29 2.71 2 2 2.71 1.29 12.71 11.29 22.71 21.29 22 22 21.29 22.71z"/></svg>