<svg xmlns="http://www.w3.org/2000/svg" width="24" height="24" viewBox="0 0 24 24"><g opacity="0.4"><path d="m8.66,9.5c-.31.12-.55.39-.62.72l-2.13,9.6.18.18,5.42-5.42s0-.05,0-.08c0-.83.67-1.5,1.5-1.5s1.5.67,1.5,1.5-.67,1.5-1.5,1.5c-.03,0-.05,0-.08,0l-5.42,5.42.18.18,9.6-2.13c.33-.07.6-.31.72-.62l2.42-6.34-5.41-5.41-6.34,2.42Z"/></g><path d="m20.71,6.79l-1.65-1.65c-.59-.59-1.54-.59-2.12,0l-1.94,1.94,2.71,2.71,2.71,2.71,1.65-1.65.29-.29c.59-.59.59-1.54,0-2.12l-1.65-1.65Z"/><path d="m7.5,21.41l5.42-5.42s.05,0,.08,0c.83,0,1.5-.67,1.5-1.5s-.67-1.5-1.5-1.5-1.5.67-1.5,1.5c0,.03,0,.05,0,.08l-5.42,5.42-.18-.18.03-.12c-.51.2-1.04.3-1.35.14-.37-.2-.58-.93-.58-2.01,0-1.98.79-4.25,1.56-6.44,1.05-3.01,2.05-5.86.72-7.73-.79-1.12-2.25-1.66-4.46-1.66v2c1.02,0,2.35.14,2.83.82.73,1.02-.14,3.51-.98,5.91-.78,2.24-1.67,4.78-1.67,7.1,0,1.93.56,3.21,1.66,3.78.42.22.87.3,1.31.3.9,0,1.78-.35,2.37-.66l.16.16Z"/></svg>