<svg xmlns="http://www.w3.org/2000/svg" width="24" height="24" viewBox="0 0 24 24"><g opacity="0.4"><path d="m13.06,12.35l-2.12,2.12-1.41-1.41,2.12-2.12-1.41-1.41-2.12,2.12-1.41-1.41c-.39-.39-1.02-.39-1.41,0l-2.47,2.47c-.97.97-.97,2.56,0,3.54l1.77,1.77-2.12,2.12,1.41,1.41,2.12-2.12,1.77,1.77c.47.47,1.1.73,1.77.73s1.29-.26,1.77-.73l2.47-2.48c.39-.39.39-1.02,0-1.41l-1.41-1.41,2.12-2.12-1.41-1.41Z"/></g><path d="m19.42,5.99l2.12-2.12-1.41-1.41-2.12,2.12-1.77-1.77c-.94-.94-2.59-.94-3.54,0l-2.47,2.48c-.39.39-.39,1.02,0,1.41l7.07,7.07c.2.2.45.29.71.29s.51-.1.71-.29l2.47-2.47c.97-.97.97-2.56,0-3.54l-1.77-1.77Z"/></svg>