<svg xmlns="http://www.w3.org/2000/svg" width="24" height="24" viewBox="0 0 24 24"><g opacity="0.4"><path d="m13.4,2.1c-3.15-.42-6.24.6-8.47,2.83-2.23,2.23-3.26,5.32-2.83,8.47.53,3.89,3.46,7.21,7.29,8.25.86.23,1.75.35,2.62.35.05,0,.09,0,.14,0,1.03-.02,1.97-.55,2.52-1.43.54-.88.6-1.95.15-2.88l-.2-.42c-.45-.94-.1-1.8.39-2.28.49-.48,1.34-.84,2.28-.39t0,0l.41.2c.93.45,2.01.39,2.88-.15.88-.54,1.41-1.48,1.43-2.52.01-.92-.11-1.85-.35-2.76-1.04-3.83-4.35-6.75-8.25-7.29Zm-6.07,12.66c-.55,0-1-.45-1-1s.45-1,1-1,1,.45,1,1-.45,1-1,1Zm.07-3.58c-.62,0-1.12-.5-1.12-1.12s.5-1.12,1.12-1.12,1.12.5,1.12,1.12-.5,1.12-1.12,1.12Zm2.81-2.61c-.69,0-1.25-.56-1.25-1.25s.56-1.25,1.25-1.25,1.25.56,1.25,1.25-.56,1.25-1.25,1.25Zm4.06.36c-.76,0-1.38-.62-1.38-1.38s.62-1.38,1.38-1.38,1.38.62,1.38,1.38-.62,1.38-1.38,1.38Z"/></g><path d="M7.33 12.76A1 1 0 1 0 7.33 14.76 1 1 0 1 0 7.33 12.76z"/><path d="M14.27 6.17A1.38 1.38 0 1 0 14.27 8.93 1.38 1.38 0 1 0 14.27 6.17z"/><path d="M10.21 6.06A1.25 1.25 0 1 0 10.21 8.559999999999999 1.25 1.25 0 1 0 10.21 6.06z"/><path d="M7.4 8.93A1.12 1.12 0 1 0 7.4 11.170000000000002 1.12 1.12 0 1 0 7.4 8.93z"/></svg>