<svg xmlns="http://www.w3.org/2000/svg" width="24" height="24" viewBox="0 0 24 24"><g opacity="0.4"><path d="m11.59,7h-4.59c-.45,0-.85.3-.96.74l-3.15,11.56.2.2,5.92-5.92s0-.05,0-.08c0-.83.67-1.5,1.5-1.5s1.5.67,1.5,1.5-.67,1.5-1.5,1.5c-.03,0-.05,0-.08,0l-5.92,5.92.2.2,11.56-3.15c.44-.12.74-.51.74-.96v-4.59l1.5-1.5-5.41-5.41-1.5,1.5Z"/></g><path d="m4.5,20.91l5.92-5.92s.05,0,.08,0c.83,0,1.5-.67,1.5-1.5s-.67-1.5-1.5-1.5-1.5.67-1.5,1.5c0,.03,0,.05,0,.08l-5.92,5.92,1.41,1.41Z"/><path d="m19.7,4.29l-1.65-1.64c-.59-.58-1.54-.58-2.12,0l-2.84,2.85,5.41,5.41,2.85-2.86c.59-.59.58-1.54,0-2.12l-1.65-1.64Z"/></svg>