<svg xmlns="http://www.w3.org/2000/svg" width="24" height="24" viewBox="0 0 24 24"><g opacity="0.4"><path d="m19,2H5c-.55,0-1,.45-1,1v18c0,.55.45,1,1,1h14c1.1,0,2-.9,2-2V4c0-1.1-.9-2-2-2Zm-3.13,14.5c-.08,0-3.22.15-5.62-2.25-2.4-2.41-2.25-5.55-2.25-5.62l1.63-1.13,1.64,2.45-1.3,1.21s.58,1.14,1.4,1.97c.83.83,1.97,1.41,1.97,1.41l1.21-1.31,2.45,1.64-1.13,1.63Z"/></g><path d="M2 11H4V13H2z"/><path d="M2 7H4V9H2z"/><path d="M2 15H4V17H2z"/><path d="m15.87,16.5l1.13-1.63-2.45-1.64-1.21,1.31s-1.14-.58-1.97-1.41c-.83-.83-1.4-1.97-1.4-1.97l1.3-1.21-1.64-2.45-1.63,1.13c0,.07-.16,3.21,2.25,5.62,2.4,2.4,5.54,2.25,5.62,2.25Z"/></svg>