<svg xmlns="http://www.w3.org/2000/svg" width="24" height="24" viewBox="0 0 24 24"><g opacity="0.4"><path d="m7,21h3c.27,0,.52-.11.71-.29l7.79-7.79-4.41-4.41-7.79,7.79c-.19.19-.29.44-.29.71v3c0,.55.45,1,1,1Z"/><path d="m18.71,5.29c-.39-.39-1.02-.39-1.41,0l-1.79,1.79,4.41,4.41,1.79-1.79c.39-.39.39-1.02,0-1.41l-3-3Z"/></g><path class="st0" d="M11.6,6.4L8.8,5.2L7.6,2.4C7.5,2.1,7.3,2,7,2C6.7,2,6.5,2.1,6.4,2.4L5.2,5.1L2.4,6.4C2.1,6.5,2,6.7,2,7
	c0,0.3,0.2,0.5,0.4,0.6l2.8,1.2l1.2,2.8C6.5,11.8,6.8,12,7,12s0.5-0.1,0.6-0.4l1.2-2.8l2.8-1.2C11.9,7.5,12,7.2,12,7
	S11.9,6.5,11.6,6.4L11.6,6.4z"/><path class="st0" d="M21.8,18.6l-1.7-0.7l-0.7-1.7C19.3,16.1,19.2,16,19,16c-0.2,0-0.3,0.1-0.4,0.2l-0.7,1.6l-1.7,0.8
	C16.1,18.7,16,18.8,16,19c0,0.2,0.1,0.3,0.2,0.4l1.7,0.7l0.7,1.7c0.1,0.1,0.2,0.2,0.4,0.2s0.3-0.1,0.4-0.2l0.7-1.7l1.7-0.7
	c0.1-0.1,0.2-0.2,0.2-0.4S21.9,18.7,21.8,18.6L21.8,18.6z"/><path class="st0" d="M14.1 8.5 14.8 7.8 15.5 7.1 17.7 9.3 19.9 11.5 19.2 12.2 18.5 12.9 16.3 10.7z"/></svg>