<svg xmlns="http://www.w3.org/2000/svg" width="24" height="24" viewBox="0 0 24 24"><g opacity="0.4"><path d="m12,2C6.49,2,2,6.49,2,12c0,3.26,1.58,6.15,4,7.98v-4.24c0-.15.05-.31.14-.43l5.25-7.44c.3-.42.93-.42,1.23,0l5.25,7.44c.09.13.14.28.14.43v4.24c2.42-1.83,4-4.72,4-7.98,0-5.51-4.49-10-10-10Z"/></g><path d="m18,19.98v-4.24c0-.07-.01-.15-.03-.22l-2.97,1.98-3-2.5-3,2.5-2.97-1.98c-.02.07-.03.14-.03.22v4.24c1.67,1.26,3.75,2.02,6,2.02s4.33-.76,6-2.02Z"/><path d="m12.61,7.87c-.3-.42-.93-.42-1.23,0l-.8,1.13h2.82l-.8-1.13Z"/></svg>