<svg xmlns="http://www.w3.org/2000/svg" width="24" height="24" viewBox="0 0 24 24"><g opacity="0.4"><path d="m8.66,9.5c-.31.12-.55.39-.62.72l-2.13,9.6.18.18,5.42-5.42s0-.05,0-.08c0-.83.67-1.5,1.5-1.5s1.5.67,1.5,1.5-.67,1.5-1.5,1.5c-.03,0-.05,0-.08,0l-5.42,5.42.18.18,9.6-2.13c.33-.07.6-.31.72-.62l2.42-6.34-5.41-5.41-6.34,2.42Z"/></g><path d="M2 5H10V7H2z"/><path d="m20.71,6.79l-1.65-1.65c-.59-.59-1.54-.59-2.12,0l-1.94,1.94,2.71,2.71,2.71,2.71,1.65-1.65.29-.29c.59-.59.59-1.54,0-2.12l-1.65-1.65Z"/><path d="m6.09,20l1.41,1.41,5.42-5.42s.05,0,.08,0c.83,0,1.5-.67,1.5-1.5s-.67-1.5-1.5-1.5-1.5.67-1.5,1.5c0,.03,0,.05,0,.08l-5.42,5.42Z"/></svg>