<svg xmlns="http://www.w3.org/2000/svg" width="24" height="24" viewBox="0 0 24 24"><g opacity="0.4"><path d="m6.29,16.29c-.19.19-.29.44-.29.71v3c0,.55.45,1,1,1h3c.27,0,.52-.11.71-.29l7.79-7.79-4.41-4.41-7.79,7.79Z"/><path d="m18.71,5.29c-.39-.39-1.02-.39-1.41,0l-1.79,1.79,4.41,4.41,1.79-1.79c.39-.39.39-1.02,0-1.41l-3-3Z"/></g><path class="st0" d="M14.1 8.5 14.8 7.8 15.5 7.1 17.7 9.3 19.9 11.5 19.2 12.2 18.5 12.9 16.3 10.7z"/><path class="st0" d="M7.8,10.1C9.5,8.7,11,7.5,11,6c0-3.8-7.5-4-9-4v2c3.3,0,7,0.8,7,2c0,0.5-1.5,1.8-2.5,2.6
	c-2.1,1.7-4.4,3.6-4.2,6.1c0.1,1.4,1,2.7,2.7,3.9V17c0-0.3,0.1-0.6,0.2-0.9c-0.6-0.6-0.9-1.1-0.9-1.6C4.2,13.1,6.1,11.5,7.8,10.1
	L7.8,10.1z"/></svg>