<svg xmlns="http://www.w3.org/2000/svg" width="24" height="24" viewBox="0 0 24 24"><g opacity="0.4"><path d="m7,20c1.65,0,3-1.35,3-3,0-.53-.14-1.05-.41-1.5-.55-.94-1.52-1.5-2.59-1.5s-2.05.56-2.59,1.49c-.27.45-.41.97-.41,1.51,0,1.65,1.35,3,3,3Z"/><path d="m17,20c1.65,0,3-1.35,3-3,0-.53-.14-1.05-.41-1.5-.55-.94-1.52-1.5-2.59-1.5s-2.05.56-2.59,1.49c-.27.45-.41.97-.41,1.51,0,1.65,1.35,3,3,3Z"/><path d="M17.38 6 14 6 14 10 19.38 10 17.38 6z"/></g><path d="m19.17,5.11c-.34-.68-1.03-1.11-1.79-1.11h-4.38c-.55,0-1,.45-1,1v5H3c-.55,0-1,.45-1,1v4c0,1.1.9,2,2,2,0-.53.14-1.05.41-1.51.55-.94,1.52-1.49,2.59-1.49s2.05.56,2.59,1.5c.27.45.41.97.41,1.5h4c0-.53.14-1.05.41-1.51.55-.94,1.52-1.49,2.59-1.49s2.05.56,2.59,1.5c.27.45.41.97.41,1.5,1.1,0,2-.9,2-2v-3.76c0-.31-.07-.62-.21-.89l-2.62-5.24Zm-5.17,4.89v-4h3.38l2,4h-5.38Z"/></svg>