<svg xmlns="http://www.w3.org/2000/svg" width="24" height="24" viewBox="0 0 24 24"><g opacity="0.4"><path d="m13.29,6.71l-.21-.21L4.29,15.29c-.13.13-.22.29-.26.46l-1,4c-.09.34.01.7.26.95.19.19.45.29.71.29.08,0,.16,0,.24-.03l4-1c.18-.04.34-.13.46-.26l8.79-8.79-4.21-4.21Z"/><path d="m21,4.59l-1.59-1.59c-.78-.78-2.05-.78-2.83,0l-2.09,2.09.21.21,4.21,4.21,2.09-2.09c.78-.78.78-2.05,0-2.83Z"/></g><path d="m17.71,8.29l-3-3-.21-.21-.79-.79-1-1c-.39-.39-1.02-.39-1.41,0l-6,6,1.41,1.41,5.29-5.29.29.29.79.79.21.21,3,3,1.21,1.21,1.41-1.41-1.21-1.21Z"/></svg>