<svg xmlns="http://www.w3.org/2000/svg" width="24" height="24" viewBox="0 0 24 24"><g opacity="0.4"><path d="M4 4 8 4 8 2 2 2 2 8 4 8 4 4z"/><path d="M8 20 4 20 4 16 2 16 2 22 8 22 8 20z"/><path d="M20 20 16 20 16 22 22 22 22 16 20 16 20 20z"/><path d="M16 4 20 4 20 8 22 8 22 2 16 2 16 4z"/></g><rect x="5" y="5" width="6" height="6" rx="1.5" ry="1.5"/><rect x="5" y="13" width="6" height="6" rx="1.5" ry="1.5"/><rect x="13" y="5" width="6" height="6" rx="1.5" ry="1.5"/><path d="M13 13H15V15H13z"/><path d="M15 15H17V17H15z"/><path d="M17 17H19V19H17z"/><path d="M17 13H19V15H17z"/></svg>