<svg xmlns="http://www.w3.org/2000/svg" width="24" height="24" viewBox="0 0 24 24"><g opacity="0.4"><path d="m5.63,13.04c-2.59,2.31-2.6,7.99-2.6,7.99,0,0,4.45,0,7.83-2.76l-5.23-5.23Z"/><path d="m17.41,9.41c.78-.78.78-2.05,0-2.83-.78-.78-2.05-.78-2.83,0-.78.78-.78,2.05,0,2.83.78.78,2.05.78,2.83,0Z"/></g><path d="m21,2h-3.69c-2.4,0-4.66.94-6.36,2.64l-2.26,2.26c-1.15-.22-3.69-.43-6.24,1.27-.25.17-.41.44-.44.73s.08.59.29.81l12,12c.2.2.45.29.71.29s.51-.1.71-.29c1.9-1.9,1.6-5.08,1.38-6.38l2.28-2.28c1.7-1.7,2.64-3.96,2.64-6.36v-3.69c0-.55-.45-1-1-1Zm-3.59,7.41c-.78.78-2.05.78-2.83,0-.78-.78-.78-2.05,0-2.83.78-.78,2.05-.78,2.83,0,.78.78.78,2.05,0,2.83Z"/></svg>