<svg xmlns="http://www.w3.org/2000/svg" width="24" height="24" viewBox="0 0 24 24"><g opacity="0.4"><path d="m21.21,8.11c-.25-.59-.56-1.16-.92-1.7-.36-.53-.77-1.03-1.22-1.48-.45-.45-.95-.86-1.48-1.22-.54-.36-1.11-.67-1.7-.92-.6-.25-1.24-.45-1.88-.58-1.31-.27-2.71-.27-4.03,0-.64.13-1.27.33-1.88.58-.59.25-1.16.56-1.7.92-.53.36-1.03.77-1.48,1.22-.17.17-.32.35-.48.52l-2.45-2.45v6h6l-2.13-2.13c.15-.18.31-.36.48-.52.36-.36.76-.69,1.18-.98.43-.29.89-.54,1.36-.74.48-.2.99-.36,1.5-.47,1.05-.21,2.18-.21,3.22,0,.51.11,1.02.26,1.5.47.47.2.93.45,1.36.74.42.29.82.62,1.18.98s.69.76.98,1.18c.29.43.54.89.74,1.36.2.48.36.99.47,1.5.11.52.16,1.07.16,1.61s-.05,1.09-.16,1.61c-.11.51-.26,1.02-.47,1.5-.2.47-.45.93-.74,1.36-.29.42-.62.82-.98,1.18s-.76.69-1.18.98c-.43.29-.89.54-1.36.74-.48.2-.99.36-1.5.47-1.05.21-2.18.21-3.22,0-.51-.11-1.02-.26-1.5-.47-.47-.2-.93-.45-1.36-.74-.42-.29-.82-.62-1.18-.98s-.69-.76-.98-1.18c-.29-.43-.54-.89-.74-1.36-.2-.48-.36-.99-.47-1.5-.11-.52-.16-1.07-.16-1.61h-2c0,.68.07,1.36.2,2.01.13.64.33,1.27.58,1.88.25.59.56,1.16.92,1.7.36.53.77,1.03,1.22,1.48.45.45.95.86,1.48,1.22.54.36,1.11.67,1.7.92.6.25,1.24.45,1.88.58.66.13,1.33.2,2.01.2s1.36-.07,2.01-.2c.64-.13,1.27-.33,1.88-.58.59-.25,1.16-.56,1.7-.92.53-.36,1.03-.77,1.48-1.22.45-.45.86-.95,1.22-1.48.36-.54.67-1.11.92-1.7.25-.6.45-1.24.58-1.88.13-.66.2-1.33.2-2.01s-.07-1.36-.2-2.01c-.13-.64-.33-1.27-.58-1.88Z"/></g><path d="m12.43,14.08c-.19.09-.41.13-.66.13-.29,0-.55-.06-.8-.17-.24-.12-.43-.27-.55-.46l-1.02,1.01c.28.32.63.56,1.05.74.42.17.88.25,1.37.25.56,0,1.05-.1,1.46-.31.41-.21.73-.49.96-.86.23-.37.35-.78.35-1.25,0-.43-.09-.82-.27-1.17-.18-.35-.45-.64-.81-.85-.36-.21-.79-.32-1.31-.32-.23,0-.42.02-.59.06-.09.02-.16.06-.24.09l.14-1.23h2.7v-1.33h-3.97l-.34,3.31.68.63c.17-.13.35-.22.55-.29.2-.06.42-.09.66-.09s.46.04.65.13.34.22.44.38c.11.17.16.37.16.6s-.05.42-.16.59c-.11.17-.25.3-.44.39Z"/></svg>