<svg xmlns="http://www.w3.org/2000/svg" width="24" height="24" viewBox="0 0 24 24"><g opacity="0.4"><path d="m21,11v-3c0-1.1-.9-2-2-2H5c-1.1,0-2,.9-2,2v3c-.55,0-1,.45-1,1v4c0,.55.45,1,1,1v3c0,1.1.9,2,2,2h14c1.1,0,2-.9,2-2v-3c.55,0,1-.45,1-1v-4c0-.55-.45-1-1-1Zm-14,1c0-1.1.67-2,1.5-2s1.5.9,1.5,2-.67,2-1.5,2-1.5-.9-1.5-2Zm9,6h-8v-2h8v2Zm-.5-4c-.83,0-1.5-.9-1.5-2s.67-2,1.5-2,1.5.9,1.5,2-.67,2-1.5,2Z"/></g><path d="M8.5 10A1.5 2 0 1 0 8.5 14 1.5 2 0 1 0 8.5 10z"/><path d="M8 16H16V18H8z"/><path d="M15.5 10A1.5 2 0 1 0 15.5 14 1.5 2 0 1 0 15.5 10z"/><path d="m11,4.61v1.39h2v-1.39c.3-.27.5-.67.5-1.11,0-.83-.67-1.5-1.5-1.5s-1.5.67-1.5,1.5c0,.44.2.84.5,1.11Z"/></svg>