<svg xmlns="http://www.w3.org/2000/svg" width="24" height="24" viewBox="0 0 24 24"><g opacity="0.4"><path d="m7,12.37c-1.47.77-5,3.09-5,7.63,0,.55.45,1,1,1h4v-8.63Z"/><path d="m17,12.37v8.63h4c.55,0,1-.45,1-1,0-4.54-3.53-6.86-5-7.63Z"/><path d="m12,11c.83,0,1.5-.67,1.5-1.5s-.67-1.5-1.5-1.5c-.83,0-1.5.67-1.5,1.5s.67,1.5,1.5,1.5Z"/></g><path d="m13.06,2.65c-.58-.59-1.54-.59-2.12,0l-2.77,2.77c-.75.74-1.17,1.78-1.17,2.83v12.76h10v-12.76c0-1.05-.43-2.08-1.17-2.83l-2.77-2.77Zm-1.06,8.35c-.83,0-1.5-.67-1.5-1.5s.67-1.5,1.5-1.5c.83,0,1.5.67,1.5,1.5s-.67,1.5-1.5,1.5Z"/></svg>