<svg xmlns="http://www.w3.org/2000/svg" width="24" height="24" viewBox="0 0 24 24"><g opacity="0.4"><path d="M12 2A3 3 0 1 0 12 8 3 3 0 1 0 12 2z"/><path d="m21,8c-.2,0-4.85.03-9,2.01v11.99c.13,0,.25-.03.37-.08.02,0,.03,0,.05-.01,4.54-2.13,8.51-2.03,8.54-2.02.27.03.53-.09.73-.28.19-.19.3-.45.3-.72v-9.88c0-.55-.45-1-1-1Z"/></g><path d="m11.63,21.92c.12.05.25.08.37.08v-11.99c-4.15-1.98-8.8-2.01-9-2.01-.55,0-1,.45-1,1v9.88c0,.27.11.53.31.72s.46.3.73.28c.04,0,3.97-.11,8.54,2.02.02,0,.03,0,.05.01Z"/></svg>