<svg xmlns="http://www.w3.org/2000/svg" width="24" height="24" viewBox="0 0 24 24"><g opacity="0.4"><path d="m19.46,6.11c-.14-.07-.3-.11-.46-.11-.21,0-.41.06-.58.19l-7,5c-.26.19-.42.49-.42.81s.16.63.42.81l7,5c.3.22.71.25,1.04.08.33-.17.54-.51.54-.89V7c0-.37-.21-.72-.54-.89Z"/></g><path class="st0" d="M12.5,6.1C12.3,6,12.2,6,12,6c-0.2,0-0.4,0.1-0.6,0.2l-7,5C4.2,11.4,4,11.7,4,12s0.2,0.6,0.4,0.8l7,5
	c0.3,0.2,0.7,0.2,1,0.1S13,17.4,13,17v-3.1l-1.6-1.1C11.2,12.6,11,12.3,11,12s0.2-0.6,0.4-0.8l1.6-1.1V7C13,6.6,12.8,6.3,12.5,6.1z"/></svg>