<svg xmlns="http://www.w3.org/2000/svg" width="24" height="24" viewBox="0 0 24 24"><g opacity="0.4"><path d="m13,4.07v-2.07h-2v2.07c-3.94.49-7,3.86-7,7.93h-2v2h20v-2h-2c0-4.07-3.06-7.44-7-7.93Z"/></g><path d="m19.5,20c.83,0,1.5-.75,1.5-1.67,0-1.5-1.5-3.33-1.5-3.33,0,0-1.5,1.82-1.5,3.33,0,.92.67,1.67,1.5,1.67Z"/><path d="m9.5,22c.83,0,1.5-.75,1.5-1.67,0-1.5-1.5-3.33-1.5-3.33,0,0-1.5,1.82-1.5,3.33,0,.92.67,1.67,1.5,1.67Z"/><path d="m14.5,22c.83,0,1.5-.75,1.5-1.67,0-1.5-1.5-3.33-1.5-3.33,0,0-1.5,1.82-1.5,3.33,0,.92.67,1.67,1.5,1.67Z"/><path d="m4.5,20c.83,0,1.5-.75,1.5-1.67,0-1.5-1.5-3.33-1.5-3.33,0,0-1.5,1.82-1.5,3.33,0,.92.67,1.67,1.5,1.67Z"/></svg>