<svg xmlns="http://www.w3.org/2000/svg" width="24" height="24" viewBox="0 0 24 24"><g opacity="0.4"><path d="m9,6c-3.31,0-6,2.69-6,6v1s0,.05,0,.08v.92h12v-2c0-3.31-2.69-6-6-6Z"/></g><path d="M14 3H16V5H14z"/><path d="M17 3H19V5H17z"/><path d="M17 6H19V8H17z"/><path d="M20 3H22V5H20z"/><path d="M20 6H22V8H20z"/><path d="M20 9H22V11H20z"/><path d="m12,6.81v-3.81c0-.55-.45-1-1-1h-4c-.55,0-1,.45-1,1v3.81c.88-.51,1.91-.81,3-.81s2.12.3,3,.81Z"/><path d="m3,21c0,.55.45,1,1,1h10c.55,0,1-.45,1-1v-7H3v7Z"/></svg>