<svg xmlns="http://www.w3.org/2000/svg" width="24" height="24" viewBox="0 0 24 24"><g opacity="0.4"><path d="m16.89,12.55c-.17-.34-.52-.55-.89-.55H3c-.35,0-.67.18-.85.47-.18.29-.2.66-.04.97l4,8c.17.34.52.55.89.55h13c.35,0,.67-.18.85-.47.18-.29.2-.66.04-.97l-4-8Zm-.51,3.45h-4.01l-1-2h4.01l1,2Zm-7.25-2l1,2h-4.51l-1-2h4.51Zm-2.51,4h4.51l1,2h-4.51l-1-2Zm7.75,2l-1-2h4.01l1,2h-4.01Z"/></g><path d="M11 2H13V5H11z"/><path d="M19 11H22V13H19z"/><path d="M17.66 7.76 18.72 6.7 19.78 5.64 19.07 4.93 18.36 4.22 17.3 5.28 16.24 6.34 16.95 7.05 17.66 7.76z"/><path d="M6.34 7.76 7.05 7.05 7.76 6.34 6.7 5.28 5.64 4.22 4.93 4.93 4.22 5.64 5.28 6.7 6.34 7.76z"/><path d="m8,12h8c.38,0,.72.21.89.55l.11.21v-.76c0-2.76-2.24-5-5-5s-5,2.24-5,5h1Z"/></svg>