<svg xmlns="http://www.w3.org/2000/svg" width="24" height="24" viewBox="0 0 24 24"><g opacity="0.4"><path d="m5.89,10.41c.19.93,1.01,1.59,1.96,1.59h8.31c.95,0,1.76-.66,1.96-1.59l.92-4.41H4.97l.92,4.41Z"/></g><path d="m11.11,17.55c-.52,1.04-1.11,2.21-1.11,4.45h2c0-1.76.41-2.59.89-3.55.52-1.04,1.11-2.21,1.11-4.45h-2c0,1.76-.41,2.59-.89,3.55Z"/><path d="m7.11,17.55c-.52,1.04-1.11,2.21-1.11,4.45h2c0-1.76.41-2.59.89-3.55.52-1.04,1.11-2.21,1.11-4.45h-2c0,1.76-.41,2.59-.89,3.55Z"/><path d="m16.89,18.45c.52-1.04,1.11-2.21,1.11-4.45h-2c0,1.76-.41,2.59-.89,3.55-.52,1.04-1.11,2.21-1.11,4.45h2c0-1.76.41-2.59.89-3.55Z"/><rect x="2" y="2" width="20" height="4" rx="1" ry="1"/></svg>