<svg xmlns="http://www.w3.org/2000/svg" width="24" height="24" viewBox="0 0 24 24"><g opacity="0.4"><path d="m19.34,9.06l-1.34-.48v-4.58c0-.55-.45-1-1-1h-4v-1h-2v1h-4c-.55,0-1,.45-1,1v4.58l-1.34.48c-.26.09-.46.28-.58.53-.11.25-.12.53-.02.78l1.44,3.6c.14.02.3.03.48.03.76,0,1.09-.17,1.55-.39.54-.27,1.21-.61,2.45-.61s1.91.34,2.45.61c.46.23.79.39,1.55.39s1.1-.17,1.55-.39c.54-.27,1.21-.61,2.45-.61.32,0,.6.02.86.06l1.08-2.69c.1-.25.09-.54-.02-.78-.11-.25-.32-.44-.58-.53Zm-7-2.5c-.22-.08-.46-.08-.67,0l-3.66,1.31v-2.87h8v2.87l-3.66-1.31Z"/></g><path d="m18,15c-1.24,0-1.91.34-2.45.61-.46.23-.79.39-1.55.39s-1.09-.17-1.55-.39c-.54-.27-1.21-.61-2.45-.61s-1.91.34-2.45.61c-.46.23-.79.39-1.55.39s-1.09-.17-1.55-.39c-.54-.27-1.21-.61-2.45-.61v2c.76,0,1.09.17,1.55.39.54.27,1.21.61,2.45.61s1.91-.34,2.45-.61c.46-.23.79-.39,1.55-.39s1.09.17,1.55.39c.54.27,1.21.61,2.45.61s1.91-.34,2.45-.61c.46-.23.79-.39,1.56-.39s1.1.17,1.55.39c.54.27,1.21.61,2.45.61v-2c-.76,0-1.1-.17-1.55-.39-.54-.27-1.21-.61-2.45-.61Z"/><path d="m18,19c-1.24,0-1.91.34-2.45.61-.46.23-.79.39-1.55.39s-1.09-.17-1.55-.39c-.54-.27-1.21-.61-2.45-.61s-1.91.34-2.45.61c-.46.23-.79.39-1.55.39s-1.09-.17-1.55-.39c-.54-.27-1.21-.61-2.45-.61v2c.76,0,1.09.17,1.55.39.54.27,1.21.61,2.45.61s1.91-.34,2.45-.61c.46-.23.79-.39,1.55-.39s1.09.17,1.55.39c.54.27,1.21.61,2.45.61s1.91-.34,2.45-.61c.46-.23.79-.39,1.56-.39s1.1.17,1.55.39c.54.27,1.21.61,2.45.61v-2c-.76,0-1.1-.17-1.55-.39-.54-.27-1.21-.61-2.45-.61Z"/><path d="m12.34,6.56l3.66,1.31v-2.87h-8v2.87l3.66-1.31c.22-.08.46-.08.67,0Z"/></svg>