<svg xmlns="http://www.w3.org/2000/svg" width="24" height="24" viewBox="0 0 24 24"><g opacity="0.4"><path d="m19.14,14.57c-.06-.02.07-.69.33-1.23,1.28-2.68,2.67-5.61,2.46-8.72-.05-.31-.08-.61-.38-.93-.18-.21-.62-.38-.91-.32-.69.18-.67.33-.98.64-2.44,3.45-4.03,7.57-7.58,10.02-1.06.72-2.34,1.15-3.56,1-.71-.09-1.37-.4-1.95-.84,1.95-1.65,4.06-3.11,5.79-5.11.41-.51.85-1.07.97-1.82.24-3.25-5.43-2.3-7.33-1.48-3.31,1.32-3.59,5.23-1.55,7.7-.67.64-1.29,1.33-1.83,2.1-.2.36-.46.74-.49,1.44h1.72s.1-.23.26-.44c.54-.64,1.14-1.21,1.75-1.76,5.26,3.91,10.55-2.98,13.94-7.75-.88,4.48-6.45,10.07,2.19,9.81,0,0,0-1.72,0-1.72-.9-.06-1.86-.07-2.64-.4-.2-.1-.22-.17-.22-.17ZM6.69,7.44c1.23-.47,3.42-.52,4.54-.32-.75,1.3-2.13,2.22-3.29,3.31-.87.77-1.79,1.51-2.67,2.3-1.17-1.92-1.13-4.47,1.42-5.28Z"/></g><path d="M2 19H22V21H2z"/></svg>