<svg xmlns="http://www.w3.org/2000/svg" width="24" height="24" viewBox="0 0 24 24"><g opacity="0.4"><path d="m3,19.72v1.28c0,.55.45,1,1,1h1c.55,0,1-.45,1-1v-1h-2c-.37,0-.7-.11-1-.28Z"/><path d="m18,20v1c0,.55.45,1,1,1h1c.55,0,1-.45,1-1v-1.28c-.3.17-.63.28-1,.28h-2Z"/><path d="m3,7h-.5c-.28,0-.5.22-.5.5v3c0,.28.22.5.5.5h.5v-4Z"/><path d="m21.5,7h-.5v4h.5c.28,0,.5-.22.5-.5v-3c0-.28-.22-.5-.5-.5Z"/><path d="M13 7H19V12H13z"/><path d="M5 7H11V12H5z"/></g><path d="m21,11.59v-5.59c0-2.21-1.79-4-4-4H7c-2.21,0-4,1.79-4,4v5.59l-.12.12c-.57.57-.88,1.32-.88,2.12v4.17c0,1.1.9,2,2,2h16c1.1,0,2-.9,2-2v-4.17c0-.8-.31-1.56-.88-2.12l-.12-.12Zm-14.5,5.41c-.83,0-1.5-.67-1.5-1.5s.67-1.5,1.5-1.5,1.5.67,1.5,1.5-.67,1.5-1.5,1.5Zm4.5-5h-6v-5h6v5Zm6.5,5c-.83,0-1.5-.67-1.5-1.5s.67-1.5,1.5-1.5,1.5.67,1.5,1.5-.67,1.5-1.5,1.5Zm1.5-5h-6v-5h6v5Z"/></svg>