<svg xmlns="http://www.w3.org/2000/svg" width="24" height="24" viewBox="0 0 24 24"><g opacity="0.4"><path d="m15.59,11h-2.59v-2.59l-.29.29c-.2.2-.45.29-.71.29s-.51-.1-.71-.29l-.29-.29v2.59h-2.59l.29.29c.39.39.39,1.02,0,1.41l-.29.29h2.59v2.59l.29-.29c.39-.39,1.02-.39,1.41,0l.29.29v-2.59h2.59l-.29-.29c-.39-.39-.39-1.02,0-1.41l.29-.29Z"/><path d="M2 11 2 13 5.59 13 6.59 12 5.59 11 2 11z"/><path d="M13 5.59 13 2 11 2 11 5.59 12 6.59 13 5.59z"/><path d="M17.41 12 18.41 13 22 13 22 11 18.41 11 17.41 12z"/><path d="M11 18.41 11 22 13 22 13 18.41 12 17.41 11 18.41z"/></g><path d="m12,9c.26,0,.51-.1.71-.29l4-4-1.41-1.41-3.29,3.29-3.29-3.29-1.41,1.41,4,4c.2.2.45.29.71.29Z"/><path d="m11.29,15.29l-4,4,1.41,1.41,3.29-3.29,3.29,3.29,1.41-1.41-4-4c-.39-.39-1.02-.39-1.41,0Z"/><path d="m15.29,12.71l4,4,1.41-1.41-3.29-3.29,3.29-3.29-1.41-1.41-4,4c-.39.39-.39,1.02,0,1.41Z"/><path d="m4.71,16.71l4-4c.39-.39.39-1.02,0-1.41l-4-4-1.41,1.41,3.29,3.29-3.29,3.29,1.41,1.41Z"/></svg>