<svg xmlns="http://www.w3.org/2000/svg" width="24" height="24" viewBox="0 0 24 24"><g opacity="0.4"><path d="M12 6.99A5.01 5.01 0 1 0 12 17.009999999999998 5.01 5.01 0 1 0 12 6.99z"/></g><path d="M11 18H13V22H11z"/><path d="M11 2H13V6H11z"/><path d="M2 11H6V13H2z"/><path d="M18 11H22V13H18z"/><path d="M8.46 16.95 7.76 16.24 7.05 15.54 5.64 16.95 4.22 18.36 4.93 19.07 5.64 19.78 7.05 18.36 8.46 16.95z"/><path d="M16.95 8.46 18.36 7.05 19.78 5.64 19.07 4.93 18.36 4.22 16.95 5.64 15.54 7.05 16.24 7.76 16.95 8.46z"/><path d="M7.05 8.46 7.76 7.76 8.46 7.05 7.05 5.64 5.64 4.22 4.93 4.93 4.22 5.64 5.64 7.05 7.05 8.46z"/><path d="M16.95 15.54 16.24 16.24 15.54 16.95 16.95 18.36 18.36 19.78 19.07 19.07 19.78 18.36 18.36 16.95 16.95 15.54z"/></svg>