<svg xmlns="http://www.w3.org/2000/svg" width="24" height="24" viewBox="0 0 24 24"><g opacity="0.4"><path d="m8.25,22l.75-1h6l.75,1h2.25l-2-3c1.1,0,2-.9,2-2v-8c0-1.65-1.35-3-3-3h-6c-1.65,0-3,1.35-3,3v8c0,1.1.9,2,2,2l-2,3h2.25Zm6.75-6c-.55,0-1-.45-1-1s.45-1,1-1,1,.45,1,1-.45,1-1,1Zm-7-7c0-.55.45-1,1-1h6c.55,0,1,.45,1,1v3s-8,0-8,0v-3Zm1,5c.55,0,1,.45,1,1s-.45,1-1,1-1-.45-1-1,.45-1,1-1Z"/></g><path d="m16,9c0-.55-.45-1-1-1h-6c-.55,0-1,.45-1,1v3h8v-3Z"/><path d="M9 21 8.25 22 15.75 22 15 21 9 21z"/><path d="m15,2h-6c-3.86,0-7,3.14-7,7v13h4l2-3c-1.1,0-2-.9-2-2v-8c0-1.65,1.35-3,3-3h6c1.65,0,3,1.35,3,3v8c0,1.1-.9,2-2,2l2,3h4v-13c0-3.86-3.14-7-7-7Z"/></svg>