<svg xmlns="http://www.w3.org/2000/svg" width="24" height="24" viewBox="0 0 24 24"><g opacity="0.4"><path d="m21.01,11.26l-7.73,5.15-.55-.83,8-5.33c.03-.12.06-.24.08-.36.11-.98-.22-1.94-.92-2.64-.44-.44-1-.72-1.59-.84l-6.94,6.94-.71-.71,6.96-6.96c-.13-.59-.42-1.13-.86-1.57-.7-.7-1.66-1.03-2.64-.92-.12.01-.24.05-.36.08l-5.33,8-.83-.55,5.16-7.73c-.08-.11-.17-.22-.27-.32-.81-.81-1.96-1.12-3.07-.84-1.11.28-1.97,1.11-2.29,2.21l-2.41,8.2,7.07,7.07,8.2-2.41c1.1-.32,1.93-1.18,2.21-2.29.28-1.11-.03-2.26-.84-3.07-.1-.1-.21-.19-.32-.27Z"/></g><path d="m10.54,20.54l1.23-1.23-7.07-7.07-1.23,1.23c-.94.94-1.46,2.2-1.46,3.54s.52,2.59,1.46,3.54,2.26,1.46,3.54,1.46,2.56-.49,3.54-1.46Z"/></svg>