<svg xmlns="http://www.w3.org/2000/svg" width="24" height="24" viewBox="0 0 24 24"><g opacity="0.4"><path d="m12,2C6.49,2,2,6.49,2,12s4.49,10,10,10,10-4.49,10-10S17.51,2,12,2Zm0,18c-4.41,0-8-3.59-8-8S7.59,4,12,4s8,3.59,8,8-3.59,8-8,8Z"/><path d="M12 10.5A1.5 1.5 0 1 0 12 13.5 1.5 1.5 0 1 0 12 10.5z"/></g><path d="m15.72,9.47c-2.47-.31-4.97-.31-7.44,0l-4.01.5c-.17.65-.27,1.33-.27,2.03l1.67.28c2.58.43,4.58,2.48,4.95,5.07l.37,2.58c.33.04.67.07,1.01.07s.68-.03,1.01-.07l.37-2.58c.37-2.59,2.37-4.64,4.95-5.07l1.67-.28c0-.7-.1-1.38-.27-2.03l-4.01-.5Zm-3.72,4.03c-.83,0-1.5-.67-1.5-1.5s.67-1.5,1.5-1.5,1.5.67,1.5,1.5-.67,1.5-1.5,1.5Z"/></svg>