<svg xmlns="http://www.w3.org/2000/svg" width="24" height="24" viewBox="0 0 24 24"><g opacity="0.4"><path d="m15.71,3.29c-.39-.39-1.02-.39-1.41,0l-2.79,2.79,3.21,3.21-1.41,1.41-3.21-3.21-1.59,1.59,3.21,3.21-1.41,1.41-3.21-3.21-2.79,2.79c-.19.19-.29.44-.29.71v5c0,.55.45,1,1,1h5c.27,0,.52-.11.71-.29l10-10c.39-.39.39-1.02,0-1.41l-5-5Z"/></g><path d="M13.29 10.71 14 10 14.71 9.29 13.1 7.69 11.5 6.09 10.79 6.79 10.09 7.5 11.69 9.1 13.29 10.71z"/><path d="M10.29 13.71 11 13 11.71 12.29 10.1 10.69 8.5 9.09 7.79 9.79 7.09 10.5 8.69 12.1 10.29 13.71z"/><path d="m5,20c-.55,0-1-.45-1-1v-.41l-2.71,2.71,1.41,1.41,2.71-2.71h-.41Z"/><path d="M21.29 6.71 22.71 5.29 18.71 1.29 17.29 2.71 18.59 4 17.5 5.09 13.71 1.29 12.29 2.71 21.29 11.71 22.71 10.29 18.91 6.5 20 5.41 21.29 6.71z"/></svg>