<svg xmlns="http://www.w3.org/2000/svg" width="24" height="24" viewBox="0 0 24 24"><g opacity="0.4"><path d="m17.25,4.54l.53,3.46h1.22c.55,0,1-.45,1-1v-2c0-.55-.45-1-1-1h-1.89c.06.17.11.36.14.54Z"/><path d="m20.26,15.47s-.07-.04-.1-.05c-.5-.27-1.07-.42-1.66-.42-1.11,0-2.13.51-2.8,1.4-.45.6-.7,1.35-.7,2.1,0,1.93,1.57,3.5,3.5,3.5s3.5-1.57,3.5-3.5c0-1.24-.67-2.4-1.74-3.03Z"/><path d="m9.26,15.47s-.07-.04-.1-.05c-.5-.27-1.07-.42-1.66-.42-1.11,0-2.13.51-2.79,1.38-.3.39-.53.87-.65,1.43-.04.22-.07.45-.07.69,0,1.93,1.57,3.5,3.5,3.5s3.5-1.57,3.5-3.5c0-.23-.03-.47-.07-.69-.19-.97-.8-1.82-1.67-2.34Z"/></g><path d="m15.27,4.85l1.62,10.54c.49-.25,1.03-.39,1.61-.39.12,0,.24.03.36.05l-1.62-10.5c-.23-1.47-1.47-2.54-2.96-2.54h-2.28v2h2.28c.5,0,.91.36.99.85Z"/><path d="m15,18.5c0-.52.13-1.03.35-1.5h-2.35v-6c0-.55-.45-1-1-1h-5c-2.76,0-5,2.24-5,5v3c0,.55.45,1,1,1h1.05c-.02-.16-.05-.33-.05-.5,0-.23.03-.47.07-.69.12-.56.34-1.04.65-1.43.66-.87,1.68-1.38,2.79-1.38.58,0,1.15.14,1.66.42.04.02.07.03.1.05.87.51,1.48,1.37,1.67,2.34.04.23.07.46.07.69,0,.17-.03.34-.05.5h4.1c-.02-.16-.05-.33-.05-.5Z"/></svg>