<svg xmlns="http://www.w3.org/2000/svg" width="24" height="24" viewBox="0 0 24 24"><g opacity="0.4"><path d="m10,2C5.59,2,2,5.59,2,10s3.59,8,8,8,8-3.59,8-8S14.41,2,10,2Zm-.54,9.79l-1.41,1.41-3.21-3.21,3.21-3.21,1.41,1.41-1.79,1.79,1.79,1.79Zm2.5,1.41l-1.41-1.41,1.79-1.79-1.79-1.79,1.41-1.41,3.21,3.21-3.21,3.21Z"/></g><path d="M8.04 6.79 4.84 10 8.04 13.21 9.46 11.79 7.66 10 9.46 8.21 8.04 6.79z"/><path d="M10.54 8.21 12.34 10 10.54 11.79 11.96 13.21 15.16 10 11.96 6.79 10.54 8.21z"/><path d="m16.31,14.9c-.41.53-.89,1-1.41,1.41l5.1,5.1,1.41-1.41-5.1-5.1Z"/></svg>