<svg xmlns="http://www.w3.org/2000/svg" width="24" height="24" viewBox="0 0 24 24"><g opacity="0.4"><path d="M12 6.99A5.01 5.01 0 1 0 12 17.009999999999998 5.01 5.01 0 1 0 12 6.99z"/></g><path d="M11 19H13V22H11z"/><path d="M11 2H13V5H11z"/><path d="M2 11H5V13H2z"/><path d="M19 11H22V13H19z"/><path d="M7.05 16.95 6.34 16.24 5.28 17.3 4.22 18.36 4.93 19.07 5.64 19.78 6.7 18.72 7.76 17.66 7.05 16.95z"/><path d="M17.66 7.76 18.72 6.7 19.78 5.64 19.07 4.93 18.36 4.22 17.3 5.28 16.24 6.34 16.95 7.05 17.66 7.76z"/><path d="M6.34 7.76 7.05 7.05 7.76 6.34 6.7 5.28 5.64 4.22 4.93 4.93 4.22 5.64 5.28 6.7 6.34 7.76z"/><path d="M17.66 16.24 16.95 16.95 16.24 17.66 17.3 18.72 18.36 19.78 19.07 19.07 19.78 18.36 18.72 17.3 17.66 16.24z"/></svg>