<svg xmlns="http://www.w3.org/2000/svg" width="24" height="24" viewBox="0 0 24 24"><g opacity="0.4"><path d="m12,2C6.49,2,2,6.49,2,12s4.49,10,10,10,10-4.49,10-10S17.51,2,12,2Zm-3.5,7c.83,0,1.5.67,1.5,1.5s-.67,1.5-1.5,1.5-1.5-.67-1.5-1.5.67-1.5,1.5-1.5Zm7.74,7.24c-.27.27-.57.52-.88.73-.32.22-.66.4-1.02.55-.37.16-.75.27-1.13.35-.4.08-.8.12-1.21.12s-.81-.04-1.21-.12c-.38-.08-.76-.2-1.13-.35-.36-.15-.7-.34-1.02-.55-.32-.22-.62-.46-.89-.73-.27-.27-.52-.57-.73-.88l1.66-1.12c.14.21.31.41.49.59.18.18.38.35.59.49.21.14.44.27.68.37.24.1.49.18.75.23.53.11,1.09.11,1.62,0,.25-.05.51-.13.75-.23.24-.1.47-.22.68-.37.21-.14.41-.31.59-.49.18-.18.35-.38.49-.59l1.66,1.12c-.21.32-.46.62-.73.89Zm-.74-4.24c-.83,0-1.5-.67-1.5-1.5s.67-1.5,1.5-1.5,1.5.67,1.5,1.5-.67,1.5-1.5,1.5Z"/></g><path d="m15.5,12c.83,0,1.5-.67,1.5-1.5s-.67-1.5-1.5-1.5-1.5.67-1.5,1.5.67,1.5,1.5,1.5Z"/><path d="M8.5 9A1.5 1.5 0 1 0 8.5 12 1.5 1.5 0 1 0 8.5 9z"/><path d="m12.81,15.92c-.53.11-1.09.11-1.62,0-.25-.05-.51-.13-.75-.23-.24-.1-.47-.23-.68-.37-.21-.14-.41-.31-.59-.49-.18-.18-.35-.38-.49-.59l-1.66,1.12c.21.32.46.62.73.88.27.27.57.52.89.73.32.21.66.4,1.02.55.36.15.74.27,1.13.35.4.08.8.12,1.21.12s.81-.04,1.21-.12c.38-.08.76-.2,1.13-.35.36-.15.7-.34,1.02-.55.32-.21.62-.46.88-.73.27-.27.52-.57.73-.89l-1.66-1.12c-.14.21-.31.41-.49.59-.18.18-.38.35-.59.49-.21.14-.44.27-.68.37-.24.1-.5.18-.75.23Z"/></svg>