<svg xmlns="http://www.w3.org/2000/svg" width="24" height="24" viewBox="0 0 24 24"><g opacity="0.4"><path d="m20,14H6c-.8,0-1.55.24-2.18.65.05-.13.12-.26.22-.36l5.96-5.96v-4.34c0-1.1-.9-2-2-2h-4c-1.1,0-2,.9-2,2v14c0,2.21,1.79,4,4,4h14c1.1,0,2-.9,2-2v-4c0-1.1-.9-2-2-2Zm-14,5.5c-.83,0-1.5-.67-1.5-1.5s.67-1.5,1.5-1.5,1.5.67,1.5,1.5-.67,1.5-1.5,1.5Z"/></g><path d="m15.66,14l5.34-5.34c.78-.78.78-2.05,0-2.83l-2.84-2.84c-.78-.78-2.05-.78-2.83,0L4.04,14.29c-.1.1-.17.23-.22.36.63-.41,1.37-.65,2.18-.65h9.66Z"/><path d="M6 16.5A1.5 1.5 0 1 0 6 19.5 1.5 1.5 0 1 0 6 16.5z"/></svg>