<svg xmlns="http://www.w3.org/2000/svg" width="24" height="24" viewBox="0 0 24 24"><g opacity="0.4"><path d="m21,8H3c-.55,0-1,.45-1,1v3.55c0,.48.33.89.8.98.7.14,1.2.76,1.2,1.47s-.5,1.33-1.2,1.47c-.47.09-.8.5-.8.98v3.55c0,.55.45,1,1,1h13v-1h1v1h4c.55,0,1-.45,1-1v-3.55c0-.48-.33-.89-.8-.98-.7-.14-1.2-.76-1.2-1.47s.5-1.33,1.2-1.47c.47-.09.8-.5.8-.98v-3.55c0-.55-.45-1-1-1Zm-4,12h-1v-2h1v2Zm0-3h-1v-2h1v2Zm0-3h-1v-2h1v2Zm0-3h-1v-2h1v2Z"/></g><path d="m19,3c0-.33-.17-.64-.44-.83-.28-.19-.63-.22-.93-.1L3,8h16V3Z"/><path d="M16 15H17V17H16z"/><path d="M16 12H17V14H16z"/><path d="M16 9H17V11H16z"/><path d="M16 18H17V20H16z"/><path d="M16 21H17V22H16z"/></svg>