<svg xmlns="http://www.w3.org/2000/svg" width="24" height="24" viewBox="0 0 24 24"><g opacity="0.4"><path d="m20.26,14h.24c.38,0,.72-.21.89-.55.17-.34.13-.74-.09-1.05l-1.8-2.4c.38,0,.72-.21.89-.55.17-.34.13-.74-.09-1.05l-4.5-6c-.38-.5-1.22-.5-1.6,0l-2.2,2.93,2.3,3.07c.23.3.26.71.09,1.05-.17.34-.52.55-.89.55l1.8,2.4c.23.3.26.71.09,1.05-.17.34-.52.55-.89.55h-.24l1.58,2.46c.2.31.21.7.04,1.02-.18.32-.51.52-.88.52h-1v4h2v-4h5c.37,0,.7-.2.88-.52.17-.32.16-.71-.04-1.02l-1.58-2.46Z"/></g><path d="m15.88,17.48c.17-.32.16-.71-.04-1.02l-1.58-2.46h.24c.38,0,.72-.21.89-.55.17-.34.13-.74-.09-1.05l-1.8-2.4c.38,0,.72-.21.89-.55.17-.34.13-.74-.09-1.05l-4.5-6c-.38-.5-1.22-.5-1.6,0l-4.5,6c-.23.3-.26.71-.09,1.05.17.34.52.55.89.55l-1.8,2.4c-.23.3-.26.71-.09,1.05.17.34.52.55.89.55h.2l-1.54,2.47c-.19.31-.2.7-.03,1.01.18.32.51.52.88.52h5v4h2v-4h5c.37,0,.7-.2.88-.52Z"/></svg>