<svg xmlns="http://www.w3.org/2000/svg" width="24" height="24" viewBox="0 0 24 24"><g opacity="0.4"><path d="m4,20c0,1.1.9,2,2,2h12c1.1,0,2-.9,2-2v-12H4v12Zm4.29-7.29l1.41-1.41,2.29,2.29,2.29-2.29,1.41,1.41-2.29,2.29,2.29,2.29-1.41,1.41-2.29-2.29-2.29,2.29-1.41-1.41,2.29-2.29-2.29-2.29Z"/></g><path d="m17,6v-2c0-1.1-.9-2-2-2h-6c-1.1,0-2,.9-2,2v2H2v2h20v-2h-5Zm-2,0h-6v-2h6v2Z"/><path d="M9.71 18.71 12 16.41 14.29 18.71 15.71 17.29 13.41 15 15.71 12.71 14.29 11.29 12 13.59 9.71 11.29 8.29 12.71 10.59 15 8.29 17.29 9.71 18.71z"/></svg>