<svg xmlns="http://www.w3.org/2000/svg" width="24" height="24" viewBox="0 0 24 24"><g opacity="0.4"><path d="m21,5H3c-.55,0-1,.45-1,1v3.55c0,.48.33.89.8.98.7.14,1.2.76,1.2,1.47s-.5,1.33-1.2,1.47c-.47.09-.8.5-.8.98v3.55c0,.55.45,1,1,1h18c.55,0,1-.45,1-1v-3.55c0-.48-.33-.89-.8-.98-.7-.14-1.2-.76-1.2-1.47s.5-1.33,1.2-1.47c.47-.09.8-.5.8-.98v-3.55c0-.55-.45-1-1-1Zm-6.53,10.25l-2.47-1.65-2.47,1.65.82-2.68-1.85-1.85,2.38-.21,1.12-2.26,1.12,2.26,2.38.21-1.85,1.85.82,2.68Z"/></g><path d="M9.53 15.25 12 13.6 14.47 15.25 13.65 12.57 15.5 10.72 13.12 10.51 12 8.25 10.88 10.51 8.5 10.72 10.35 12.57 9.53 15.25z"/></svg>