<svg xmlns="http://www.w3.org/2000/svg" width="24" height="24" viewBox="0 0 24 24"><g opacity="0.4"><path d="m13.12,4.06c-2.84-.31-5.68.6-7.8,2.49-2.11,1.9-3.33,4.61-3.33,7.45,0,1.77.47,3.51,1.36,5.03.35.6,1.01.97,1.72.97h13.85c.71,0,1.37-.37,1.72-.97,1.09-1.87,1.54-4.02,1.29-6.2-.52-4.58-4.23-8.26-8.81-8.77Zm3.9,4.96l-3.96,6.04s0,0,0,0c-.46.71-1.41.9-2.12.44-.18-.12-.33-.27-.44-.44-.46-.71-.26-1.66.44-2.12l6.04-3.96s.04,0,.04.01c0,.01,0,.02,0,.03Z"/></g><path d="m10.94,15.5c.71.46,1.65.27,2.12-.44,0,0,0,0,0,0l3.96-6.04s0-.02,0-.03c0-.02-.03-.02-.04-.01l-6.04,3.96c-.71.46-.91,1.41-.44,2.12.12.18.27.33.44.44Z"/></svg>