<svg xmlns="http://www.w3.org/2000/svg" width="24" height="24" viewBox="0 0 24 24"><g opacity="0.4"><path d="m21,6H3c-.55,0-1,.45-1,1v8c0,.55.45,1,1,1h18c.55,0,1-.45,1-1V7c0-.55-.45-1-1-1ZM4.38,14l3-6h2.24l-3,6h-2.24Zm5,0l3-6h2.24l-3,6h-2.24Zm7.24,0h-2.24l3-6h2.24l-3,6Z"/></g><path d="M6 3H8V6H6z"/><path d="M16 3H18V6H16z"/><path d="M6 16H8V21H6z"/><path d="M16 16H18V21H16z"/><path d="M9.62 8 7.38 8 4.38 14 6.62 14 9.62 8z"/><path d="M17.38 8 14.38 14 16.62 14 19.62 8 17.38 8z"/><path d="M11.62 14 14.62 8 12.38 8 9.38 14 11.62 14z"/></svg>