<svg xmlns="http://www.w3.org/2000/svg" width="24" height="24" viewBox="0 0 24 24"><g opacity="0.4"><path d="m8.92,4.92c-2.72,2.72-3.57,6.48-2.38,9.31,0,.5-.1.99-.32,1.49-.31.56-.65,1.11-1,1.64l-2.9,2.9c-.29.29-.29.77,0,1.06l.35.35c.29.29.77.29,1.06,0l2.9-2.9c.53-.35,1.08-.69,1.64-1,.5-.22.98-.31,1.49-.32.83.35,1.75.53,2.69.53,2.27,0,4.71-.99,6.62-2.91,3.4-3.4,3.89-8.45,1.09-11.25-2.8-2.8-7.85-2.31-11.25,1.09Zm8.75,8.75c-2.62,2.62-6.4,3.11-8.42,1.09s-1.53-5.8,1.09-8.42c1.53-1.53,3.46-2.34,5.2-2.34,1.24,0,2.38.41,3.22,1.25,2.02,2.02,1.53,5.8-1.09,8.42Z"/></g><path d="M20 18A2 2 0 1 0 20 22 2 2 0 1 0 20 18z"/><path d="m8.05,12.3l.95-.95,1.65,1.65-1.57,1.57c.06.06.11.13.17.19s.13.11.19.17l1.57-1.57,1.65,1.65-.95.95c.21.03.43.05.66.05l.64-.64.54.54c.19-.03.38-.08.58-.13l-.77-.77,1.65-1.65,1.37,1.37c.14-.09.28-.19.41-.29l-1.43-1.43,1.65-1.65,1.43,1.43c.1-.14.2-.27.29-.41l-1.37-1.37,1.65-1.65.77.77c.05-.19.1-.38.13-.58l-.54-.54.64-.64c0-.22-.02-.44-.05-.66l-.95.95-1.65-1.65,1.57-1.57c-.06-.06-.11-.13-.17-.19-.06-.06-.13-.1-.2-.16l-1.56,1.56-1.65-1.65.94-.94c-.21-.03-.43-.05-.65-.06l-.64.64-.54-.54c-.19.03-.38.08-.58.13l.77.77-1.65,1.65-1.37-1.37c-.14.09-.27.2-.41.3l1.43,1.43-1.65,1.65-1.43-1.43c-.1.14-.2.27-.29.41l1.37,1.37-1.65,1.65-.77-.77c-.05.19-.1.38-.13.58l.54.54-.64.64c0,.22.02.44.05.66Zm4.95,2.35l-1.65-1.65,1.65-1.65,1.65,1.65-1.65,1.65Zm2-2l-1.65-1.65,1.65-1.65,1.65,1.65-1.65,1.65Zm3.65-3.65l-1.65,1.65-1.65-1.65,1.65-1.65,1.65,1.65Zm-3.65-3.65l1.65,1.65-1.65,1.65-1.65-1.65,1.65-1.65Zm-2,2l1.65,1.65-1.65,1.65-1.65-1.65,1.65-1.65Zm-2,2l1.65,1.65-1.65,1.65-1.65-1.65,1.65-1.65Z"/></svg>