<svg xmlns="http://www.w3.org/2000/svg" width="24" height="24" viewBox="0 0 24 24"><g opacity="0.4"><path d="m10.15,10.31c.13,1.23.8,2.29,1.87,2.97,1.33.85,3.09.81,4.38-.11.58-.42,1.03-.94,1.33-1.55.76-1.55,1.93-2.83,3.38-3.75-.48-1.07-1.15-2.07-2.03-2.95-.88-.88-1.88-1.55-2.96-2.03-.93,1.45-2.2,2.62-3.72,3.37-1.6.79-2.43,2.39-2.25,4.05Z"/><path d="m19.54,12.47c-.46.94-1.14,1.74-1.99,2.34-1.95,1.38-4.6,1.44-6.61.16-1.57-1-2.58-2.62-2.78-4.44-.2-1.82.43-3.6,1.72-4.89.47-.47,1-.85,1.59-1.14,1.06-.53,1.97-1.3,2.67-2.25-3.22-.7-6.72.19-9.22,2.68-3.9,3.9-3.9,10.24,0,14.14s10.24,3.9,14.14,0c2.5-2.5,3.39-6,2.68-9.22-.95.69-1.71,1.59-2.22,2.62Z"/></g><path d="m21.09,7.88c-1.45.92-2.61,2.2-3.37,3.74-.3.61-.75,1.13-1.33,1.55-1.29.91-3.05.96-4.38.11-1.07-.68-1.74-1.74-1.87-2.97-.18-1.66.65-3.25,2.25-4.05,1.52-.75,2.79-1.92,3.72-3.36-.63-.28-1.29-.5-1.97-.65-.7.95-1.61,1.71-2.66,2.24-.59.29-1.12.67-1.59,1.14-1.29,1.29-1.92,3.08-1.72,4.89.2,1.82,1.21,3.44,2.78,4.44,2.01,1.28,4.66,1.22,6.61-.16.85-.6,1.53-1.4,1.99-2.34.51-1.03,1.27-1.92,2.21-2.61-.15-.69-.37-1.35-.65-1.97Z"/></svg>