<svg xmlns="http://www.w3.org/2000/svg" width="24" height="24" viewBox="0 0 24 24"><g opacity="0.4"><path d="m19.25,2H4.75c-.41,0-.75.34-.75.75v1.5c0,.41.34.75.75.75h4.95l-3.7,3.21v2.65l6.76-5.86h6.49c.41,0,.75-.34.75-.75v-1.5c0-.41-.34-.75-.75-.75Z"/><path d="m19.25,19h-5.11l3.86-3.34v-2.65l-6.91,5.99h-6.34c-.41,0-.75.34-.75.75v1.5c0,.41.34.75.75.75h14.5c.41,0,.75-.34.75-.75v-1.5c0-.41-.34-.75-.75-.75Z"/><path d="M18 5.54 6 15.94 6 18.59 18 8.19 18 5.54z"/></g><path d="M6 10.86 6 15.94 18 5.54 18 5 12.76 5 6 10.86z"/><path d="M6 8.21 9.7 5 6 5 6 8.21z"/><path d="M18 19 18 15.66 14.14 19 18 19z"/><path d="M6 19 11.09 19 18 13.01 18 8.19 6 18.59 6 19z"/></svg>