<svg xmlns="http://www.w3.org/2000/svg" width="24" height="24" viewBox="0 0 24 24"><g opacity="0.4"><path d="M7 14A1 1 0 1 0 7 16 1 1 0 1 0 7 14z"/><path d="M12 15A1 1 0 1 0 12 17 1 1 0 1 0 12 15z"/><path d="M17 14A1 1 0 1 0 17 16 1 1 0 1 0 17 14z"/><path d="m12,4c-3.31,0-6,2.44-6,5.44,0,.18.01.36.03.49.24,2.51,2.53,4.07,5.97,4.07s5.72-1.56,5.96-4.01c.03-.18.04-.36.04-.55,0-3-2.69-5.44-6-5.44Z"/></g><path d="m17.99,9.18c0,.09.01.17.01.26,0,.18-.01.36-.04.55-.23,2.45-2.52,4.01-5.96,4.01s-5.72-1.56-5.97-4.07c-.02-.12-.03-.3-.03-.49,0-.09.01-.18.01-.26-2.52,1.12-4.01,2.88-4.01,4.82,0,3.36,4.39,6,10,6s10-2.64,10-6c0-1.94-1.49-3.71-4.01-4.82Zm-10.99,6.82c-.55,0-1-.45-1-1s.45-1,1-1,1,.45,1,1-.45,1-1,1Zm5,1c-.55,0-1-.45-1-1s.45-1,1-1,1,.45,1,1-.45,1-1,1Zm5-1c-.55,0-1-.45-1-1s.45-1,1-1,1,.45,1,1-.45,1-1,1Z"/></svg>