<svg xmlns="http://www.w3.org/2000/svg" width="24" height="24" viewBox="0 0 24 24"><g opacity="0.4"><path d="m21,14h-6c-.55,0-1,.45-1,1v2h-4.09l.29.29c.39.39.39,1.02,0,1.41l-.29.29h4.09v2c0,.55.45,1,1,1h6c.55,0,1-.45,1-1v-6c0-.55-.45-1-1-1Z"/><path d="m10,7h4.14c-.08-.32-.14-.65-.14-1s.06-.68.14-1h-4.14v-2c0-.55-.45-1-1-1H3c-.55,0-1,.45-1,1v6c0,.55.45,1,1,1h2v4.09l.29-.29c.39-.39,1.02-.39,1.41,0l.29.29v-4.09h2c.55,0,1-.45,1-1v-2Z"/></g><path d="m6,22.5c.26,0,.51-.1.71-.29l3.5-3.5c.39-.39.39-1.02,0-1.41l-3.5-3.5c-.39-.39-1.02-.39-1.41,0l-3.5,3.5c-.39.39-.39,1.02,0,1.41l3.5,3.5c.2.2.45.29.71.29Z"/><path d="M18 2A4 4 0 1 0 18 10 4 4 0 1 0 18 2z"/></svg>