<svg xmlns="http://www.w3.org/2000/svg" width="24" height="24" viewBox="0 0 24 24"><g opacity="0.4"><path class="st0" d="M9.8 12 10.9 10.9 12 9.8 13.1 10.9 14.2 12 13.1 13.1 12 14.2 10.9 13.1z"/><path class="st0" d="M12,2C6.5,2,2,6.5,2,12s4.5,10,10,10s10-4.5,10-10S17.5,2,12,2z M18.5,14.2l-1.1,1.1l-2.2-2.2l-2.2,2.2l2.2,2.2
	l-1.1,1.1L12,16.3l-2.2,2.2l-1.1-1.1l2.2-2.2l-2.2-2.2l-2.2,2.2l-1.1-1.1L7.7,12L5.5,9.8l1.1-1.1l2.2,2.2l2.2-2.2L8.7,6.5l1.1-1.1
	L12,7.7l2.2-2.2l1.1,1.1l-2.2,2.2l2.2,2.2l2.2-2.2l1.1,1.1L16.3,12C16.3,12,18.5,14.2,18.5,14.2z"/></g><path d="m6.53,15.26l2.2-2.2,2.21,2.21-2.2,2.2,1.06,1.06,2.2-2.2,2.2,2.2,1.06-1.06-2.2-2.2,2.21-2.21,2.2,2.2,1.06-1.06-2.2-2.2,2.2-2.2-1.06-1.06-2.2,2.2-2.21-2.21,2.2-2.2-1.06-1.06-2.2,2.2-2.2-2.2-1.06,1.06,2.2,2.2-2.21,2.21-2.2-2.2-1.06,1.06,2.2,2.2-2.2,2.2,1.06,1.06Zm5.47-5.47l2.21,2.21-2.21,2.21-2.21-2.21,2.21-2.21Z"/></svg>