<svg xmlns="http://www.w3.org/2000/svg" width="24" height="24" viewBox="0 0 24 24"><g opacity="0.4"><path d="M13.99 2A2 2 0 1 0 13.99 6 2 2 0 1 0 13.99 2z"/></g><path d="m15.12,8.46c-.28-.49-.72-.87-1.24-1.08l-1.44-.58c-.62-.25-1.3-.24-1.91.02l-2.59,1.11c-.43.19-.79.52-1,.94l-1.84,3.67,1.79.89,1.84-3.67,2.07-.89-1.71,8.54-3.69,2.77,1.2,1.6,3.69-2.77c.39-.29.66-.72.76-1.21l.44-2.2,2.6,1.95.92,4.62,1.96-.39-.92-4.63c-.1-.48-.37-.91-.76-1.21l-2.14-1.6.83-3.87.95,1.67c.24.43.64.75,1.1.91l2.64.88.63-1.9-2.64-.88-1.55-2.71Z"/></svg>