<svg xmlns="http://www.w3.org/2000/svg" width="24" height="24" viewBox="0 0 24 24"><g opacity="0.4"><path d="m12,17c-1.1,0-2,.9-2,2,0,1.1.89,2,2,2s2-.9,2-2-.9-2-2-2Z"/><path d="m17.23,15.82l.42-.42c-.75-.75-1.63-1.34-2.58-1.73l2.16,2.16Z"/><path d="m13.97,15.39l-2.32-2.32c-2.01.09-3.88.9-5.31,2.33l1.41,1.41c1.13-1.13,2.64-1.76,4.24-1.76.68,0,1.35.12,1.97.34Z"/><path d="m10.56,9.14l1.93,1.93c2.49.12,4.81,1.13,6.58,2.91l1.42-1.41c-2.27-2.27-5.28-3.52-8.49-3.52-.49,0-.97.04-1.44.09Z"/><path d="m8.24,9.66c-1.76.58-3.38,1.56-4.73,2.91l1.42,1.41c1.38-1.38,3.08-2.29,4.94-2.7l-1.63-1.63Z"/><path d="m7.16,5.75l1.63,1.63c1.04-.24,2.11-.38,3.2-.38,3.74,0,7.25,1.46,9.9,4.1l1.41-1.41c-3.02-3.02-7.04-4.69-11.31-4.69-1.67,0-3.29.26-4.84.75Z"/><path d="m5.14,6.56c-1.63.78-3.14,1.82-4.46,3.13l1.41,1.41c1.32-1.32,2.86-2.35,4.54-3.04l-1.5-1.5Z"/></g><path d="M21.29 22.71 22 22 22.71 21.29 12.71 11.29 2.71 1.29 2 2 1.29 2.71 11.29 12.71 21.29 22.71z"/></svg>