<svg xmlns="http://www.w3.org/2000/svg" width="24" height="24" viewBox="0 0 24 24"><g opacity="0.4"><path d="m6.11,6.06l-4.08,14.68c-.1.35,0,.72.26.97.19.19.45.29.71.29.09,0,.18-.01.27-.04l14.68-4.08c-.53-6.29-5.54-11.3-11.83-11.83Zm-.11,12.94c-.55,0-1-.45-1-1s.45-1,1-1,1,.45,1,1-.45,1-1,1Zm1-4c-.55,0-1-.45-1-1s.45-1,1-1,1,.45,1,1-.45,1-1,1Zm1-5c0-.55.45-1,1-1s1,.45,1,1-.45,1-1,1-1-.45-1-1Zm2,8c-.55,0-1-.45-1-1s.45-1,1-1,1,.45,1,1-.45,1-1,1Zm1.5-4c-.55,0-1-.45-1-1s.45-1,1-1,1,.45,1,1-.45,1-1,1Zm3.5,2c0,.55-.45,1-1,1s-1-.45-1-1,.45-1,1-1,1,.45,1,1Z"/></g><path d="m8,2c-.45,0-.84.3-.96.73l-.92,3.32c.3.03.59.07.89.12,5.87.91,10.43,5.72,10.94,11.71l3.32-.92c.43-.12.73-.51.73-.96,0-7.72-6.28-14-14-14Z"/><path d="M6 17A1 1 0 1 0 6 19 1 1 0 1 0 6 17z"/><path d="M10 16A1 1 0 1 0 10 18 1 1 0 1 0 10 16z"/><path d="M7 13A1 1 0 1 0 7 15 1 1 0 1 0 7 13z"/><path d="M14 15A1 1 0 1 0 14 17 1 1 0 1 0 14 15z"/><path d="M11.5 12A1 1 0 1 0 11.5 14 1 1 0 1 0 11.5 12z"/><path d="M9 9A1 1 0 1 0 9 11 1 1 0 1 0 9 9z"/></svg>