<svg xmlns="http://www.w3.org/2000/svg" width="24" height="24" viewBox="0 0 24 24"><g opacity="0.4"><path d="m16.24,16.81l1.41-1.41c-1.51-1.51-3.52-2.34-5.66-2.34s-4.15.83-5.66,2.34l1.41,1.41c1.13-1.13,2.64-1.76,4.24-1.76s3.11.62,4.24,1.76Z"/><path d="m.69,9.69l1.41,1.41c2.64-2.64,6.16-4.1,9.9-4.1s7.25,1.46,9.9,4.1l1.41-1.41c-3.02-3.02-7.04-4.69-11.31-4.69S3.71,6.66.69,9.69Z"/></g><path d="m12,17c-1.1,0-2,.9-2,2,0,1.1.89,2,2,2s2-.9,2-2-.9-2-2-2Z"/><path d="m3.51,12.57l1.41,1.41c1.89-1.89,4.4-2.93,7.07-2.93s5.18,1.04,7.07,2.93l1.41-1.41c-2.27-2.27-5.28-3.52-8.49-3.52s-6.22,1.25-8.49,3.52Z"/></svg>