<svg xmlns="http://www.w3.org/2000/svg" width="24" height="24" viewBox="0 0 24 24"><g opacity="0.4"><path d="m19.03,2.86c-.07-.49-.49-.86-.99-.86H5.96c-.5,0-.92.37-.99.86l-.87,6.06c-.09.64-.11,1.24-.08,1.82,2.56,1.82,5.6,1.55,7.98-.73,2.36-2.27,5.38-2.55,7.93-.76-.01-.11-.02-.21-.03-.33l-.87-6.06Z"/></g><path d="m12,10c-2.38,2.28-5.42,2.55-7.98.73.03.49.1.96.22,1.39.87,3.13,3.57,5.39,6.76,5.79v2.08h-3v2h8v-2h-3v-2.08c3.18-.4,5.89-2.66,6.76-5.79.24-.86.29-1.83.18-2.88-2.55-1.79-5.57-1.51-7.93.76Z"/></svg>