<svg xmlns="http://www.w3.org/2000/svg" width="24" height="24" viewBox="0 0 24 24"><g opacity="0.4"><path d="m12.64,2.03c-.21-.01-.42-.03-.64-.03C6.48,2,2,6.48,2,12s4.14,9.64,9.36,9.97c-1.23-.19-3.79-1-3.79-4.4,0-5.57,8.86-5.57,8.86-11.14,0-3.39-2.57-4.2-3.79-4.4Zm-1.39,6.22c-.97,0-1.75-.78-1.75-1.75s.78-1.75,1.75-1.75,1.75.78,1.75,1.75-.78,1.75-1.75,1.75Z"/></g><path d="M11.25 4.75A1.75 1.75 0 1 0 11.25 8.25 1.75 1.75 0 1 0 11.25 4.75z"/><path d="m12.64,2.03c1.23.19,3.79,1,3.79,4.4,0,5.57-8.86,5.57-8.86,11.14,0,3.39,2.57,4.2,3.79,4.4.21.01.42.03.64.03,5.52,0,10-4.48,10-10S17.86,2.36,12.64,2.03Zm.11,17.22c-.97,0-1.75-.78-1.75-1.75s.78-1.75,1.75-1.75,1.75.78,1.75,1.75-.78,1.75-1.75,1.75Z"/></svg>