<svg xmlns="http://www.w3.org/2000/svg" viewBox="0 0 24 24" width="24" height="24"><path d="m12,21c2.4,0,4.66-.94,6.36-2.64,1.55-1.55,2.48-3.63,2.61-5.83.02-.28-.19-.51-.47-.53-.28-.03-.51.19-.53.47-.11,1.96-.94,3.81-2.32,5.19-1.51,1.51-3.52,2.34-5.66,2.34s-4.15-.83-5.66-2.34c-1.51-1.51-2.34-3.52-2.34-5.66s.83-4.15,2.34-5.66c1.38-1.38,3.22-2.2,5.19-2.32.28-.02.49-.25.47-.53-.02-.28-.24-.5-.53-.47-2.21.13-4.28,1.06-5.83,2.61-1.7,1.7-2.64,3.96-2.64,6.36s.94,4.67,2.64,6.36c1.7,1.7,3.96,2.64,6.36,2.64Z"/><path d="m17.85,6.85c.2-.2.2-.51,0-.71s-.51-.2-.71,0l-4.15,4.15-.35.35-1.79-1.79c-.32-.31-.85-.09-.85.35v4.29c0,.28.22.5.5.5h4.29c.45,0,.67-.54.35-.85l-1.79-1.79.35-.35,4.15-4.15Z"/></svg>