<svg xmlns="http://www.w3.org/2000/svg" viewBox="0 0 24 24" width="24" height="24"><path d="m20,4.5c0-.07-.01-.13-.04-.19-.05-.12-.15-.22-.27-.27-.06-.03-.13-.04-.19-.04h-6c-.28,0-.5.22-.5.5s.22.5.5.5h4.79l-6.65,6.65c-.2.2-.2.51,0,.71.1.1.23.15.35.15s.26-.05.35-.15l6.65-6.65v4.79c0,.28.22.5.5.5s.5-.22.5-.5v-6Z"/><path d="m7.5,5h3c.28,0,.5-.22.5-.5s-.22-.5-.5-.5h-3c-1.93,0-3.5,1.57-3.5,3.5v9c0,1.93,1.57,3.5,3.5,3.5h9c1.93,0,3.5-1.57,3.5-3.5v-3c0-.28-.22-.5-.5-.5s-.5.22-.5.5v3c0,1.38-1.12,2.5-2.5,2.5H7.5c-1.38,0-2.5-1.12-2.5-2.5V7.5c0-1.38,1.12-2.5,2.5-2.5Z"/></svg>