<svg xmlns="http://www.w3.org/2000/svg" viewBox="0 0 24 24" width="24" height="24"><path d="m16,9.5c0-.28-.22-.5-.5-.5h-6c-.28,0-.5.22-.5.5v6c0,.28.22.5.5.5s.5-.22.5-.5v-4.79l1.96,1.96,5.19,5.19c.1.1.23.15.35.15s.26-.05.35-.15c.2-.2.2-.51,0-.71l-5.19-5.19-1.96-1.96h4.79c.28,0,.5-.22.5-.5Z"/><path d="m11.47,20.97s.02,0,.03,0c.26,0,.48-.21.5-.47.02-.28-.19-.51-.47-.53-1.96-.11-3.8-.94-5.19-2.32-1.51-1.51-2.34-3.52-2.34-5.66s.83-4.15,2.34-5.66c1.51-1.51,3.52-2.34,5.66-2.34s4.15.83,5.66,2.34c1.38,1.38,2.2,3.22,2.32,5.19.02.28.25.49.53.47.28-.02.49-.25.47-.53-.13-2.21-1.06-4.28-2.61-5.83-1.7-1.7-3.96-2.64-6.36-2.64s-4.66.94-6.36,2.64c-1.7,1.7-2.64,3.96-2.64,6.36s.94,4.66,2.64,6.36c1.55,1.55,3.63,2.48,5.83,2.61Z"/></svg>