<svg xmlns="http://www.w3.org/2000/svg" viewBox="0 0 24 24" width="24" height="24"><path d="m17.5,6h-5.44c.3-1.9,2.21-2,2.44-2,.28,0,.5-.23.5-.5s-.22-.5-.5-.5c-1.13,0-3.18.66-3.45,3h-4.55c-1.93,0-3.5,1.57-3.5,3.5,0,.65.42,1.2,1,1.41v1.39c0,2.78,1.52,5.31,3.97,6.62l2.38,1.27c.52.27,1.08.41,1.65.41s1.13-.14,1.65-.41l2.38-1.27c2.45-1.31,3.97-3.84,3.97-6.62v-1.39c.58-.21,1-.76,1-1.41,0-1.93-1.57-3.5-3.5-3.5Zm1.5,6.3c0,2.41-1.32,4.6-3.44,5.74l-2.38,1.27c-.74.39-1.62.39-2.35,0l-2.38-1.27c-2.12-1.13-3.44-3.33-3.44-5.74v-1.3h14v1.3Zm.5-2.3H4.5c-.28,0-.5-.22-.5-.5,0-1.38,1.12-2.5,2.5-2.5h11c1.38,0,2.5,1.12,2.5,2.5,0,.28-.22.5-.5.5Z"/></svg>