<svg xmlns="http://www.w3.org/2000/svg" viewBox="0 0 24 24" width="24" height="24"><path d="M19 3A1.5 1.5 0 1 0 19 6 1.5 1.5 0 1 0 19 3z"/><path d="m18.02,13.13c-.62-.48-1.42-.63-2.18-.42l-2.29.63c-.11-.27-.25-.52-.41-.77l3.45-3.45c.42-.42.63-1,.58-1.58-.05-.59-.36-1.12-.84-1.46l-1.47-1.04c-.96-.68-2.29-.59-3.14.21l-2.06,1.89c-.2.19-.22.5-.03.71.19.2.5.22.71.03l2.06-1.89c.52-.48,1.31-.54,1.89-.13l.68.48-4.19,4.19c-1.21-.55-2.6-.67-3.89-.27-.29.09-.59.21-.92.39-.24.13-.34.43-.21.67.13.24.43.34.67.21.28-.15.52-.25.76-.32,1.57-.48,3.33-.05,4.5,1.12.85.85,1.32,1.98,1.32,3.18,0,.45-.07.89-.2,1.32-.07.23-.17.47-.32.75-.13.24-.03.55.21.67.07.04.15.06.23.06.18,0,.35-.1.44-.27.18-.34.3-.63.39-.92.16-.52.24-1.06.24-1.61,0-.42-.06-.82-.15-1.21l2.25-.61c.45-.13.93-.03,1.3.25.38.29.59.72.59,1.19v3.38c0,.28.22.5.5.5s.5-.22.5-.5v-3.38c0-.79-.36-1.51-.98-1.99Z"/><path d="m10.57,19.48c-.28.15-.52.25-.76.32-1.56.48-3.33.05-4.5-1.12-.85-.85-1.32-1.98-1.32-3.18,0-.45.07-.89.2-1.32.07-.23.17-.47.32-.75.13-.24.03-.55-.21-.67-.25-.13-.55-.03-.67.21-.18.34-.3.63-.39.92-.16.52-.24,1.06-.24,1.61,0,1.47.57,2.85,1.61,3.89s2.42,1.61,3.89,1.61c.55,0,1.09-.08,1.61-.24.29-.09.59-.21.92-.39.24-.13.34-.43.21-.67-.13-.24-.43-.34-.67-.21Z"/></svg>