<svg xmlns="http://www.w3.org/2000/svg" width="24" height="24" viewBox="0 0 24 24"><path d="M12 8c-.28 0-.5.22-.5.5V13c0 .28.22.5.5.5s.5-.22.5-.5V8.5c0-.28-.22-.5-.5-.5M12 15a.5.5 0 1 0 0 1 .5.5 0 1 0 0-1"/><path d="M17.23 4.03A3.49 3.49 0 0 0 14.75 3H9.24c-.94 0-1.81.36-2.48 1.03L4.02 6.77c-.66.66-1.03 1.54-1.03 2.48v5.51c0 .94.36 1.81 1.03 2.48l2.74 2.74c.66.66 1.54 1.03 2.48 1.03h5.51c.94 0 1.81-.36 2.48-1.03l2.74-2.74c.66-.66 1.03-1.54 1.03-2.48V9.25c0-.94-.36-1.81-1.03-2.48zM20 14.76c0 .67-.26 1.3-.73 1.77l-2.74 2.74c-.47.47-1.1.73-1.77.73H9.25c-.67 0-1.3-.26-1.77-.73l-2.74-2.74c-.47-.47-.73-1.1-.73-1.77V9.25c0-.67.26-1.3.73-1.77l2.74-2.74c.47-.47 1.1-.73 1.77-.73h5.51c.67 0 1.3.26 1.77.73l2.74 2.74c.47.47.73 1.1.73 1.77z"/></svg>