<svg xmlns="http://www.w3.org/2000/svg" viewBox="0 0 24 24" width="24" height="24"><path d="m4,7.5v3c0,.28.22.5.5.5s.5-.22.5-.5v-3c0-1.38,1.12-2.5,2.5-2.5h9c1.38,0,2.5,1.12,2.5,2.5v9c0,1.38-1.12,2.5-2.5,2.5h-3c-.28,0-.5.22-.5.5s.22.5.5.5h3c1.93,0,3.5-1.57,3.5-3.5V7.5c0-1.93-1.57-3.5-3.5-3.5H7.5c-1.93,0-3.5,1.57-3.5,3.5Z"/><path d="m6.15,17.15c-.2.2-.2.51,0,.71.1.1.23.15.35.15s.26-.05.35-.15l5.19-5.19,1.96-1.96v4.79c0,.28.22.5.5.5s.5-.22.5-.5v-6c0-.28-.22-.5-.5-.5h-6c-.28,0-.5.22-.5.5s.22.5.5.5h4.79l-1.96,1.96-5.19,5.19Z"/></svg>