<svg xmlns="http://www.w3.org/2000/svg" viewBox="0 0 24 24" width="24" height="24"><path d="m16.44,19.61c-.43.29-.89.54-1.36.75-.48.21-.98.37-1.49.47-1.04.22-2.13.22-3.17,0-.51-.11-1.01-.27-1.49-.47-.47-.2-.93-.46-1.36-.75-.43-.29-.83-.62-1.19-.99s-.7-.77-.99-1.19c-.29-.43-.54-.88-.75-1.36-.21-.48-.37-.98-.47-1.49-.11-.52-.17-1.05-.17-1.59s.06-1.07.17-1.59c.11-.51.27-1.01.47-1.49.2-.47.46-.93.75-1.36.16-.23.1-.54-.13-.69-.23-.15-.54-.1-.69.13-.33.48-.61.99-.84,1.53-.23.54-.41,1.11-.53,1.68-.12.59-.19,1.19-.19,1.79s.06,1.2.19,1.79c.12.57.3,1.14.53,1.68.23.53.51,1.05.84,1.53.32.48.7.92,1.11,1.34.41.41.86.78,1.34,1.11.48.33,1,.61,1.53.84.54.23,1.11.41,1.68.53.59.12,1.19.19,1.79.19s1.2-.06,1.79-.19c.57-.12,1.14-.3,1.68-.53.53-.23,1.04-.51,1.53-.84.23-.16.29-.47.13-.69-.16-.23-.47-.29-.69-.13Z"/><path d="m18.34,2.65c-.19-.19-.51-.19-.71,0-.19.2-.19.51,0,.71l3.01,3c.1.1.23.15.35.15s.26-.05.35-.15c.19-.2.19-.51,0-.71l-3.01-3Z"/><path d="m18.33,6.67c-1.72-1.72-3.97-2.67-6.33-2.67-1.97,0-3.85.66-5.42,1.88l-1.38-1.38,1.14-1.15c.19-.2.19-.51,0-.71-.2-.19-.51-.19-.71,0l-1.14,1.14-.64-.64c-.2-.2-.51-.2-.71,0s-.2.51,0,.71l8.5,8.5h0s1,1,1,1h0s7.5,7.5,7.5,7.5c.1.1.23.15.35.15s.26-.05.35-.15c.2-.2.2-.51,0-.71l-1.73-1.73c1.21-1.57,1.88-3.45,1.88-5.42,0-2.37-.95-4.61-2.67-6.33Zm-4.13,6.83h2.29c.28,0,.5-.22.5-.5s-.22-.5-.5-.5h-3.29l-.71-.71v-3.29c0-.28-.22-.5-.5-.5s-.5.22-.5.5v2.29l-4.2-4.2c1.37-1.03,3-1.59,4.7-1.59,2.1,0,4.1.84,5.63,2.37s2.37,3.53,2.37,5.63c0,1.7-.56,3.33-1.59,4.7l-4.2-4.2Z"/></svg>