<svg xmlns="http://www.w3.org/2000/svg" viewBox="0 0 24 24" width="24" height="24"><path d="m8,14.5c0,.28.22.5.5.5h6c.28,0,.5-.22.5-.5v-6c0-.28-.22-.5-.5-.5s-.5.22-.5.5v4.79l-1.96-1.96-5.19-5.19c-.2-.2-.51-.2-.71,0s-.2.51,0,.71l5.19,5.19,1.96,1.96h-4.79c-.28,0-.5.22-.5.5Z"/><path d="m12.53,3.03c-.29-.02-.51.19-.53.47-.02.28.19.51.47.53,1.96.11,3.81.94,5.19,2.32,1.51,1.51,2.34,3.52,2.34,5.66s-.83,4.15-2.34,5.66c-1.51,1.51-3.52,2.34-5.66,2.34s-4.15-.83-5.66-2.34c-1.38-1.38-2.2-3.22-2.32-5.19-.02-.28-.24-.49-.53-.47-.28.02-.49.25-.47.53.13,2.21,1.06,4.28,2.61,5.83,1.7,1.7,3.96,2.64,6.36,2.64s4.66-.94,6.36-2.64c1.7-1.7,2.64-3.96,2.64-6.36s-.94-4.66-2.64-6.36c-1.55-1.55-3.63-2.48-5.83-2.61Z"/></svg>