<svg xmlns="http://www.w3.org/2000/svg" width="24" height="24" viewBox="0 0 24 24"><path d="M16.5 4h-9C5.57 4 4 5.57 4 7.5v9C4 18.43 5.57 20 7.5 20h9c1.93 0 3.5-1.57 3.5-3.5v-9C20 5.57 18.43 4 16.5 4M19 16.5a2.5 2.5 0 0 1-2.5 2.5h-9A2.5 2.5 0 0 1 5 16.5v-9A2.5 2.5 0 0 1 7.5 5h9A2.5 2.5 0 0 1 19 7.5z"/><path d="M16.5 7h-4c-.28 0-.5.22-.5.5s.22.5.5.5H16v3.5c0 .28.22.5.5.5s.5-.22.5-.5v-4c0-.28-.22-.5-.5-.5M11.5 16H8v-3.5c0-.28-.22-.5-.5-.5s-.5.22-.5.5v4c0 .28.22.5.5.5h4c.28 0 .5-.22.5-.5s-.22-.5-.5-.5"/></svg>