<svg xmlns="http://www.w3.org/2000/svg" width="24" height="24" viewBox="0 0 24 24"><path d="M12 3c-4.96 0-9 4.04-9 9s4.04 9 9 9 9-4.04 9-9-4.04-9-9-9m0 17c-4.41 0-8-3.59-8-8s3.59-8 8-8 8 3.59 8 8-3.59 8-8 8"/><path d="M12 14c-1.72 0-2.79.99-3.38 1.83-.35.49.02 1.17.62 1.17h5.51c.6 0 .97-.68.62-1.17-.59-.84-1.66-1.83-3.38-1.83ZM17.28 8.55l-4 2c-.25.12-.35.42-.22.67.09.17.26.28.45.28.08 0 .15-.02.22-.05l1.32-.66c-.02.07-.04.14-.04.21 0 .55.45 1 1 1s1-.45 1-1c0-.4-.24-.74-.58-.9l1.3-.65c.25-.12.35-.42.22-.67a.49.49 0 0 0-.67-.22ZM9 11c0-.08-.03-.14-.04-.21l1.32.66a.505.505 0 0 0 .45-.9l-4-2a.505.505 0 0 0-.67.22c-.12.25-.02.55.22.67l1.3.65c-.34.16-.58.5-.58.9 0 .55.45 1 1 1s1-.45 1-1Z"/></svg>