<svg xmlns="http://www.w3.org/2000/svg" viewBox="0 0 24 24" width="24" height="24"><path d="m11.72,4.97c-.44.21-.72.64-.72,1.13v2.9h-3.5c-.83,0-1.5.67-1.5,1.5v3c0,.83.67,1.5,1.5,1.5h3.5v2.9c0,.49.28.92.72,1.13.17.08.35.12.53.12.29,0,.57-.1.8-.29l7.08-5.9c.29-.24.45-.59.45-.96s-.16-.72-.45-.96l-7.08-5.9c-.38-.31-.89-.38-1.33-.17Zm7.77,6.84c.08.07.09.15.09.19s-.01.13-.09.19l-7.08,5.9c-.11.09-.22.05-.27.03-.04-.02-.14-.08-.14-.23v-3.4c0-.28-.22-.5-.5-.5h-4c-.28,0-.5-.22-.5-.5v-3c0-.28.22-.5.5-.5h4c.28,0,.5-.22.5-.5v-3.4c0-.14.1-.21.14-.23.04-.02.16-.06.27.03l7.08,5.9h0Z"/><path d="m4,14.5v-5c0-.28-.22-.5-.5-.5s-.5.22-.5.5v5c0,.28.22.5.5.5s.5-.22.5-.5Z"/></svg>