<svg xmlns="http://www.w3.org/2000/svg" viewBox="0 0 24 24" width="24" height="24"><path d="m17.9,11h-2.9v-3.5c0-.83-.67-1.5-1.5-1.5h-3c-.83,0-1.5.67-1.5,1.5v3.5h-2.9c-.49,0-.92.28-1.13.72-.21.44-.14.95.17,1.33l5.9,7.08h0c.24.29.59.45.96.45s.72-.16.96-.45l5.9-7.08c.31-.38.38-.89.17-1.33-.21-.44-.64-.72-1.13-.72Zm.19,1.41l-5.9,7.08c-.13.16-.25.16-.38,0l-5.9-7.08c-.09-.11-.05-.22-.03-.27.02-.04.08-.14.23-.14h3.4c.28,0,.5-.22.5-.5v-4c0-.28.22-.5.5-.5h3c.28,0,.5.22.5.5v4c0,.28.22.5.5.5h3.4c.14,0,.21.1.23.14.02.04.06.16-.03.27Z"/><path d="m9.5,3c-.28,0-.5.22-.5.5s.22.5.5.5h5c.28,0,.5-.22.5-.5s-.22-.5-.5-.5h-5Z"/></svg>