<svg xmlns="http://www.w3.org/2000/svg" width="24" height="24" viewBox="0 0 24 24"><path d="m5.57 19.25 6 1.33a1.986 1.986 0 0 0 1.69-.39c.48-.38.75-.95.75-1.56V5.37c0-.61-.27-1.18-.75-1.56s-1.09-.53-1.69-.39l-6 1.33A2 2 0 0 0 4 6.7v10.59c0 .94.64 1.75 1.57 1.95ZM5 6.7c0-.47.32-.87.78-.98l6-1.33c.07-.02.15-.02.22-.02a.99.99 0 0 1 .99 1v13.26c0 .3-.14.59-.37.78-.24.19-.54.27-.84.2l-6-1.33c-.46-.1-.78-.5-.78-.98zM16.5 21c.28 0 .5-.22.5-.5v-17c0-.28-.22-.5-.5-.5s-.5.22-.5.5v17c0 .28.22.5.5.5M19.5 3c-.28 0-.5.22-.5.5v17c0 .28.22.5.5.5s.5-.22.5-.5v-17c0-.28-.22-.5-.5-.5"/></svg>