<svg xmlns="http://www.w3.org/2000/svg" width="24" height="24" viewBox="0 0 24 24"><path d="M3 13c0 4.88 4.12 9 9 9s9-4.12 9-9-4.12-9-9-9-9 4.12-9 9m9-8c4.34 0 8 3.66 8 8s-3.66 8-8 8-8-3.66-8-8 3.66-8 8-8M18.34 2.65a.513.513 0 0 0-.71 0c-.19.2-.19.51 0 .71l3.01 3a.485.485 0 0 0 .7 0c.19-.2.19-.51 0-.71l-3.01-3ZM3 6.5c.13 0 .26-.05.35-.15l2.99-3c.19-.2.19-.51 0-.71a.513.513 0 0 0-.71 0l-2.99 3c-.19.2-.19.51 0 .71.1.1.23.15.35.15Z"/><path d="M12 15.5c.28 0 .5-.22.5-.5V8.5c0-.28-.22-.5-.5-.5s-.5.22-.5.5V15c0 .28.22.5.5.5M12 18c.28 0 .5-.22.5-.5V17c0-.28-.22-.5-.5-.5s-.5.22-.5.5v.5c0 .28.22.5.5.5"/></svg>