<svg xmlns="http://www.w3.org/2000/svg" width="24" height="24" viewBox="0 0 24 24"><path d="M15.5 3h-7C6.57 3 5 4.57 5 6.5v13.05c0 .37.21.71.54.89.33.17.73.15 1.03-.06l4.86-3.37c.34-.24.8-.24 1.14 0l4.86 3.37c.17.12.37.18.57.18a.997.997 0 0 0 1-1V6.5C19 4.57 17.43 3 15.5 3m2.5 7v9.55l-4.86-3.37a2.02 2.02 0 0 0-2.28 0L6 19.55V6.5A2.5 2.5 0 0 1 8.5 4h7A2.5 2.5 0 0 1 18 6.5z"/><path d="m12.19 7.74-.19.19-.19-.19a1.89 1.89 0 0 0-2.66 0c-.74.74-.74 1.9 0 2.63l2.42 2.4c.23.23.61.23.84 0l2.42-2.4c.74-.73.74-1.89 0-2.63a1.89 1.89 0 0 0-2.66 0Z"/></svg>