<svg xmlns="http://www.w3.org/2000/svg" width="24" height="24" viewBox="0 0 24 24"><path d="M12 21c1.31 0 2.41-.83 2.82-2H9.18c.41 1.17 1.51 2 2.82 2M13 16.5c0-.28-.22-.5-.5-.5H5.83c-.06 0-.12 0-.17-.02a.7.7 0 0 1-.15-.05.6.6 0 0 1-.14-.08c-.04-.03-.08-.06-.12-.1s-.07-.08-.1-.12a.6.6 0 0 1-.08-.14c-.02-.05-.04-.1-.05-.15-.01-.06-.02-.11-.01-.27l.04-.19c.01-.03.03-.06.09-.17l.12-.15s.05-.04.07-.06l.87-.65c.06-.05.12-.1.18-.16.06-.05.11-.11.16-.17s.09-.12.14-.19c.04-.06.08-.13.12-.2l.09-.21c.03-.07.05-.14.07-.22.02-.07.03-.15.04-.23 0-.08.01-.16.01-.23V9.99c0-.28-.22-.5-.5-.5s-.5.22-.5.5v2.37c0 .04-.01.08-.02.11 0 .04-.02.08-.03.11-.01.04-.03.07-.05.11-.02.03-.04.07-.06.1s-.04.06-.07.1c-.03.03-.05.06-.08.08-.03.03-.06.05-.09.08l-.87.65c-.06.04-.11.09-.16.13-.05.05-.1.1-.15.16-.04.05-.09.11-.13.17s-.07.12-.11.18c-.03.06-.06.12-.08.19l-.06.2c-.02.07-.03.14-.04.21 0 .07-.01.14-.01.22 0 .13.01.25.04.37.02.12.06.23.11.34a1.9 1.9 0 0 0 .39.58c.08.08.17.16.27.22.1.07.2.12.31.17.11.04.22.08.34.11.12.02.24.04.37.04h6.67c.28 0 .5-.22.5-.5ZM17.71 17h.46c1.01 0 1.83-.82 1.83-1.83 0-.57-.27-1.12-.73-1.47l-.87-.65c-.25-.19-.4-.49-.4-.8v-2.01c0-2.72-1.73-5.1-4.13-5.93C13.59 3.54 12.86 3 12 3s-1.58.54-1.87 1.3c-.79.26-1.53.68-2.17 1.26-.3.27-.56.58-.79.91L3.85 3.15c-.2-.2-.51-.2-.71 0s-.2.51 0 .71l17 17a.485.485 0 0 0 .7 0c.2-.2.2-.51 0-.71L17.69 17ZM8.64 6.3c.93-.85 2.1-1.3 3.35-1.3h.03c.16 0 .32 0 .48.02 2.53.24 4.51 2.53 4.51 5.21v2.01c0 .63.3 1.22.8 1.6l.87.65c.21.16.33.41.33.67 0 .46-.37.83-.83.83h-1.46L7.9 7.19c.21-.32.45-.63.74-.89"/></svg>