<svg xmlns="http://www.w3.org/2000/svg" viewBox="0 0 24 24" width="24" height="24"><rect x="9" y="6" width="2" height="2" rx=".5" ry=".5"/><rect x="13" y="6" width="2" height="2" rx=".5" ry=".5"/><rect x="9" y="14" width="2" height="2" rx=".5" ry=".5"/><rect x="13" y="14" width="2" height="2" rx=".5" ry=".5"/><rect x="9" y="10" width="2" height="2" rx=".5" ry=".5"/><rect x="13" y="10" width="2" height="2" rx=".5" ry=".5"/><path d="m8,21h8c1.1,0,2-.9,2-2V5.5c0-1.38-1.12-2.5-2.5-2.5h-7c-1.38,0-2.5,1.12-2.5,2.5v13.5c0,1.1.9,2,2,2Zm-1-15.5c0-.83.67-1.5,1.5-1.5h7c.83,0,1.5.67,1.5,1.5v13.5c0,.55-.45,1-1,1h-8c-.55,0-1-.45-1-1V5.5Z"/></svg>