<svg xmlns="http://www.w3.org/2000/svg" viewBox="0 0 24 24" width="24" height="24"><path d="m17.66,3.36c-.2.2-.2.51,0,.71,1.51,1.51,2.34,3.52,2.34,5.66,0,.28.22.5.5.5s.5-.22.5-.5c0-2.4-.94-4.67-2.64-6.36-.2-.2-.51-.2-.71,0Z"/><path d="m6.34,4.07c.2-.2.2-.51,0-.71s-.51-.2-.71,0c-1.7,1.7-2.64,3.96-2.64,6.36,0,.28.22.5.5.5s.5-.22.5-.5c0-2.14.83-4.15,2.34-5.66Z"/><path d="m12,21c1.31,0,2.41-.83,2.82-2h-5.64c.41,1.17,1.51,2,2.82,2Z"/><path d="m19.27,13.7l-.87-.65c-.25-.19-.4-.49-.4-.8v-2.01c0-2.72-1.73-5.1-4.13-5.93-.28-.77-1.01-1.31-1.87-1.31s-1.58.54-1.87,1.3c-.79.26-1.53.68-2.17,1.26-1.25,1.13-1.96,2.75-1.96,4.44v2.25c0,.31-.15.61-.4.8l-.87.65c-.46.34-.73.89-.73,1.47,0,1.01.82,1.83,1.83,1.83h12.33c1.01,0,1.83-.82,1.83-1.83,0-.57-.27-1.12-.73-1.47Zm-1.1,2.3H5.83c-.46,0-.83-.37-.83-.83,0-.26.12-.51.33-.67l.87-.65c.5-.38.8-.97.8-1.6v-2.25c0-1.41.6-2.75,1.64-3.7.93-.85,2.1-1.3,3.35-1.3h.03c.16,0,.32,0,.48.02,2.53.24,4.51,2.53,4.51,5.21v2.01c0,.63.3,1.22.8,1.6l.87.65c.21.16.33.41.33.67,0,.46-.37.83-.83.83Z"/></svg>