<svg xmlns="http://www.w3.org/2000/svg" width="24" height="24" viewBox="0 0 24 24"><path d="M17.5 12.5c.28 0 .5-.22.5-.5s-.22-.5-.5-.5h-5v-5c0-.28-.22-.5-.5-.5s-.5.22-.5.5v5h-5c-.28 0-.5.22-.5.5s.22.5.5.5h5v5c0 .28.22.5.5.5s.5-.22.5-.5v-5zM13.5 5h2c.28 0 .5-.22.5-.5s-.22-.5-.5-.5h-2c-.28 0-.5.22-.5.5s.22.5.5.5M10.5 4h-2c-.28 0-.5.22-.5.5s.22.5.5.5h2c.28 0 .5-.22.5-.5s-.22-.5-.5-.5M15.5 19h-2c-.28 0-.5.22-.5.5s.22.5.5.5h2c.28 0 .5-.22.5-.5s-.22-.5-.5-.5M10.5 19h-2c-.28 0-.5.22-.5.5s.22.5.5.5h2c.28 0 .5-.22.5-.5s-.22-.5-.5-.5M19.5 13c-.28 0-.5.22-.5.5v2c0 .28.22.5.5.5s.5-.22.5-.5v-2c0-.28-.22-.5-.5-.5M19.5 8c-.28 0-.5.22-.5.5v2c0 .28.22.5.5.5s.5-.22.5-.5v-2c0-.28-.22-.5-.5-.5M4.5 16c.28 0 .5-.22.5-.5v-2c0-.28-.22-.5-.5-.5s-.5.22-.5.5v2c0 .28.22.5.5.5M4.5 11c.28 0 .5-.22.5-.5v-2c0-.28-.22-.5-.5-.5s-.5.22-.5.5v2c0 .28.22.5.5.5M6 19c-.55 0-1-.45-1-1 0-.28-.22-.5-.5-.5s-.5.22-.5.5c0 1.1.9 2 2 2 .28 0 .5-.22.5-.5S6.28 19 6 19M4.5 6.5c.28 0 .5-.22.5-.5 0-.55.45-1 1-1 .28 0 .5-.22.5-.5S6.28 4 6 4c-1.1 0-2 .9-2 2 0 .28.22.5.5.5M18 4c-.28 0-.5.22-.5.5s.22.5.5.5c.55 0 1 .45 1 1 0 .28.22.5.5.5s.5-.22.5-.5c0-1.1-.9-2-2-2M19.5 17.5c-.28 0-.5.22-.5.5 0 .55-.45 1-1 1-.28 0-.5.22-.5.5s.22.5.5.5c1.1 0 2-.9 2-2 0-.28-.22-.5-.5-.5"/></svg>