<svg xmlns="http://www.w3.org/2000/svg" width="24" height="24" viewBox="0 0 24 24"><path d="M12 3c-4.96 0-9 4.04-9 9s4.04 9 9 9 9-4.04 9-9-4.04-9-9-9m8 9.09c-.22-.03-.44-.07-.66-.08-.27-.01-.51.2-.52.48s.2.51.48.52c.21.01.42.05.63.08a8 8 0 0 1-6.83 6.83c-.03-.21-.07-.42-.08-.63a.5.5 0 0 0-.52-.48c-.28.01-.49.25-.48.52.01.22.05.44.08.66h-.09c-4.41 0-8-3.59-8-8v-.09c.22.03.44.07.66.08h.02c.27 0 .49-.21.5-.48.01-.28-.2-.51-.48-.52-.21-.01-.42-.05-.63-.08a8 8 0 0 1 6.83-6.83c.03.21.07.42.08.63.01.27.23.48.5.48h.02c.28-.01.49-.25.48-.52-.01-.22-.05-.44-.08-.66H12c4.41 0 8 3.59 8 8z"/><path d="M17.03 12.28q-.39.12-.75.27c-.42.18-.81.39-1.19.65l-.15.1a.506.506 0 0 0 .59.82l.12-.09c.32-.22.66-.4 1.02-.55.21-.09.42-.17.64-.23.26-.08.42-.36.34-.62a.493.493 0 0 0-.62-.34ZM13.29 14.94l-.1.14c-.25.37-.47.77-.65 1.19-.1.24-.19.5-.27.75-.08.26.07.54.34.62.05.01.09.02.14.02.22 0 .42-.14.48-.36s.14-.44.23-.65c.15-.36.34-.7.55-1.02l.09-.13c.16-.23.1-.54-.12-.7a.51.51 0 0 0-.7.12ZM11.38 6.35a.493.493 0 0 0-.62.34c-.06.22-.14.44-.23.65-.15.36-.34.7-.55 1.02l-.09.13c-.16.23-.1.54.12.7.09.06.19.09.29.09.16 0 .31-.07.41-.21l.1-.14c.25-.37.47-.77.65-1.19.1-.24.19-.5.27-.75a.497.497 0 0 0-.34-.62ZM8.48 9.89l-.12.09c-.32.22-.66.4-1.02.55-.21.09-.42.17-.64.23-.26.08-.42.36-.34.62.06.22.26.36.48.36.05 0 .09 0 .14-.02q.39-.12.75-.27c.42-.18.81-.39 1.19-.65l.15-.1c.22-.16.27-.47.11-.7a.506.506 0 0 0-.7-.11"/></svg>