<svg xmlns="http://www.w3.org/2000/svg" viewBox="0 0 24 24" width="24" height="24"><path d="m3.85,9.85c-.31-.31-.85-.09-.85.35v3.59c0,.45.54.67.85.35l1.79-1.79c.2-.2.2-.51,0-.71l-1.79-1.79Z"/><path d="m18.5,13h-9c-1.38,0-2.5,1.12-2.5,2.5v3c0,1.38,1.12,2.5,2.5,2.5h9c1.38,0,2.5-1.12,2.5-2.5v-3c0-1.38-1.12-2.5-2.5-2.5Zm1.5,5.5c0,.83-.67,1.5-1.5,1.5h-9c-.83,0-1.5-.67-1.5-1.5v-3c0-.83.67-1.5,1.5-1.5h9c.83,0,1.5.67,1.5,1.5v3Z"/><path d="m18.5,3h-9c-1.38,0-2.5,1.12-2.5,2.5v3c0,1.38,1.12,2.5,2.5,2.5h9c1.38,0,2.5-1.12,2.5-2.5v-3c0-1.38-1.12-2.5-2.5-2.5Zm1.5,5.5c0,.83-.67,1.5-1.5,1.5h-9c-.83,0-1.5-.67-1.5-1.5v-3c0-.83.67-1.5,1.5-1.5h9c.83,0,1.5.67,1.5,1.5v3Z"/></svg>