<svg xmlns="http://www.w3.org/2000/svg" viewBox="0 0 24 24" width="24" height="24"><path d="m19.7,11h-1.52l2.3-7.35c.08-.26-.06-.54-.33-.63-.26-.08-.54.06-.63.33l-2.39,7.65h-1.45l2.3-7.35c.08-.26-.06-.54-.33-.63-.26-.08-.54.06-.63.33l-2.1,6.73c-.45-2.87-2.93-5.08-5.92-5.08-3.31,0-6,2.69-6,6v1h.08c-.03.13-.04.27-.03.41.32,2.78,2.12,5.33,4.81,6.82.09.05.14.13.14.22v.3c0,.69.56,1.25,1.25,1.25h5.5c.69,0,1.25-.56,1.25-1.25v-.3c0-.09.05-.17.14-.22,2.69-1.49,4.49-4.04,4.81-6.82.04-.36-.07-.72-.31-.99-.24-.27-.58-.42-.93-.42Zm-10.7-5c2.76,0,5,2.24,5,5h-2c0-1.65-1.35-3-3-3s-3,1.35-3,3h-1.7c-.1,0-.2.02-.3.04v-.04c0-2.76,2.24-5,5-5Zm2,5h-4c0-1.1.9-2,2-2s2,.9,2,2Zm4.65,7.35c-.4.22-.65.64-.65,1.09v.3c0,.14-.11.25-.25.25h-5.5c-.14,0-.25-.11-.25-.25v-.3c0-.45-.25-.87-.65-1.09-2.41-1.34-4.02-3.6-4.3-6.06-.01-.11.04-.18.07-.21.03-.03.09-.08.19-.08h15.4c.1,0,.16.05.19.08.03.03.08.11.07.21-.28,2.46-1.89,4.72-4.3,6.06Z"/></svg>