<svg xmlns="http://www.w3.org/2000/svg" viewBox="0 0 24 24" width="24" height="24"><path d="m16.67,4.06c-.37-.32-.87-.44-1.35-.32-.47.12-.86.46-1.04.92l-.14.37c-.35.92-1.13,1.63-2.08,1.9l-.42.12c-1.25.36-2.27,1.3-2.73,2.51-.35.92-1.13,1.63-2.08,1.9l-.42.12c-1.25.36-2.27,1.3-2.73,2.51l-.4,1.04c-.23.59-.06,1.26.42,1.67l3.62,3.14c.28.24.63.37.98.37.12,0,.24-.01.36-.04.47-.12.86-.46,1.04-.92l.14-.37c.35-.92,1.13-1.63,2.08-1.9l.42-.12c1.25-.36,2.27-1.3,2.73-2.51.35-.92,1.13-1.63,2.08-1.9l.42-.12c1.25-.36,2.27-1.3,2.73-2.51l.4-1.04c.23-.59.06-1.26-.42-1.67l-3.62-3.14ZM4.22,15.49l.4-1.04c.35-.92,1.13-1.63,2.08-1.9l.42-.12c1.25-.36,2.27-1.3,2.73-2.51.35-.92,1.13-1.63,2.08-1.9l.42-.12c1.25-.36,2.27-1.3,2.73-2.51l.14-.37c.06-.15.19-.27.35-.31.16-.04.32,0,.45.11l1.27,1.1-.53,1.37c-.35.92-1.13,1.63-2.08,1.9l-.42.12c-1.25.36-2.27,1.3-2.73,2.51-.35.92-1.13,1.63-2.08,1.9l-.42.12c-1.24.36-2.27,1.3-2.73,2.51l-.4,1.04-1.55-1.34c-.16-.14-.21-.36-.14-.56Zm15.56-6.98l-.4,1.04c-.35.92-1.13,1.63-2.08,1.9l-.42.12c-1.25.36-2.27,1.3-2.73,2.51-.35.92-1.13,1.63-2.08,1.9l-.42.12c-1.25.36-2.27,1.3-2.73,2.51l-.14.37c-.06.15-.19.27-.35.31-.16.04-.32,0-.45-.11l-1.27-1.1.53-1.37c.35-.92,1.13-1.63,2.08-1.9l.42-.12c1.25-.36,2.27-1.3,2.73-2.51.35-.92,1.13-1.63,2.08-1.9l.42-.12c1.24-.36,2.27-1.3,2.73-2.51l.4-1.04,1.55,1.34c.16.14.21.36.14.56Z"/></svg>