<svg xmlns="http://www.w3.org/2000/svg" viewBox="0 0 24 24" width="24" height="24"><path d="m12,5c-4.79,0-9,3.71-9,7.93,0,3.35,4.04,6.07,9,6.07s9-2.72,9-6.07c0-4.22-4.21-7.93-9-7.93Zm0,13c-4.41,0-8-2.28-8-5.07,0-2.43,1.9-5.08,4.75-6.28-.62,1.01-1.25,2.58-1.25,5.35,0,.28.22.5.5.5s.5-.22.5-.5c0-3.42,1.01-4.76,1.68-5.65.05-.06.09-.12.13-.18.54-.11,1.11-.17,1.69-.17s1.1.06,1.63.16c-.91.79-2.13,2.47-2.13,5.84,0,.28.22.5.5.5s.5-.22.5-.5c0-4.11,1.92-5.27,2.37-5.49.91.33,1.73.8,2.43,1.37-.67.53-1.8,1.76-1.8,4.12,0,.28.22.5.5.5s.5-.22.5-.5c0-2.15,1.1-3.13,1.54-3.43,1.23,1.27,1.96,2.86,1.96,4.36,0,2.8-3.59,5.07-8,5.07Z"/></svg>