<svg xmlns="http://www.w3.org/2000/svg" width="24" height="24" viewBox="0 0 24 24"><path d="M18.43 6.74a.42.42 0 0 0-.18-.17l-6-3.5a.5.5 0 0 0-.5 0l-6 3.5c-.07.04-.13.1-.18.17l-3 5c-.14.24-.07.54.17.69.24.14.54.07.69-.17l.57-.95v9.19c0 .28.22.5.5.5h15c.28 0 .5-.22.5-.5v-9.19l.57.95c.09.16.26.24.43.24a.502.502 0 0 0 .43-.76zm-2.49 7.93c.04.1.07.21.07.33v4.38L12.84 17zm-3.93 1.7-3.13-2.35s.08-.03.13-.03h6l.13.03zm-4-1.38c0-.12.03-.22.07-.33l3.1 2.33-3.17 2.38zm4 2.62 3.17 2.38H8.85l3.17-2.38Zm7 2.38h-2v-5c0-1.1-.9-2-2-2h-6c-1.1 0-2 .9-2 2v5h-2V9.63l1.36-2.27 5.64-3.29 5.64 3.29 1.36 2.27z"/><path d="M12 7a2 2 0 1 0 0 4 2 2 0 1 0 0-4"/></svg>