<svg xmlns="http://www.w3.org/2000/svg" viewBox="0 0 24 24" width="24" height="24"><path d="m10.5,9c-2.48,0-4.5,2.02-4.5,4.5,0,.28.22.5.5.5s.5-.22.5-.5c0-1.93,1.57-3.5,3.5-3.5.28,0,.5-.22.5-.5s-.22-.5-.5-.5Z"/><path d="m20.5,4h-.17c-.67,0-1.3.26-1.77.73l-1.73,1.73-.25-.25c-.78-.78-2.05-.78-2.83,0l-.37.37c-.9-.39-1.84-.56-2.91-.58-3.71.01-6.89,2.77-7.4,6.42-.33,2.38.44,4.7,2.12,6.38,1.42,1.42,3.31,2.2,5.3,2.2.36,0,.72-.02,1.08-.08,3.65-.51,6.41-3.69,6.42-7.4,0-1.03-.19-2.01-.58-2.91l.37-.37c.78-.78.78-2.05,0-2.83l-.25-.25,1.73-1.73c.28-.28.66-.44,1.06-.44h.17c.28,0,.5-.22.5-.5s-.22-.5-.5-.5Zm-3.41,5.54l-.49.49s-.05.03-.08.04c-.2.14-.27.41-.16.63.43.86.64,1.81.64,2.82-.01,3.16-2.45,5.98-5.56,6.41-2.06.29-4.08-.38-5.54-1.84-1.45-1.45-2.12-3.47-1.84-5.54.43-3.11,3.25-5.55,6.41-5.56h.02c1,0,1.94.21,2.8.64.22.11.48.03.62-.17,0-.01.01-.02.02-.03l.53-.53c.39-.39,1.02-.39,1.41,0l1.21,1.21c.39.39.39,1.02,0,1.41Z"/></svg>