<svg xmlns="http://www.w3.org/2000/svg" width="24" height="24" viewBox="0 0 24 24"><path d="M18.87 8.89c.16-.36.24-.75.24-1.14 0-1.59-1.3-2.84-2.89-2.86A2.39 2.39 0 0 0 13.88 3c-.77 0-1.45.37-1.89.94-.44-.57-1.12-.94-1.89-.94-1.14 0-2.09.8-2.33 1.89a2.853 2.853 0 0 0-2.89 2.86c0 .4.08.79.24 1.14A3.36 3.36 0 0 0 2.99 12c0 .99.43 1.91 1.18 2.55-.15.39-.23.81-.23 1.23 0 1.71 1.3 3.12 3 3.31.4 1.13 1.48 1.91 2.7 1.91.98 0 1.85-.5 2.36-1.25.52.75 1.38 1.25 2.36 1.25 1.22 0 2.3-.78 2.7-1.91 1.68-.17 3-1.59 3-3.32 0-.42-.08-.84-.23-1.23.74-.63 1.18-1.56 1.18-2.55 0-1.39-.88-2.62-2.13-3.11ZM9.64 20c-.88 0-1.65-.63-1.82-1.49-.05-.23-.3-.4-.54-.4-1.29 0-2.33-1.05-2.33-2.33q0-.615.3-1.14c.13-.23.06-.52-.16-.66a2.36 2.36 0 0 1-1.08-1.97c0-1.14.85-2.13 1.97-2.3.18-.03.32-.15.39-.31.07-.17.04-.35-.07-.49-.25-.32-.39-.73-.39-1.15a1.856 1.856 0 0 1 2.24-1.82c.15.03.3-.04.41-.13s.18-.26.18-.41c0-.77.62-1.39 1.39-1.39s1.39.62 1.39 1.39v12.75c0 1.03-.83 1.86-1.86 1.86Zm9.29-6.03c-.22.14-.29.43-.16.66.2.35.3.74.3 1.14 0 1.29-1.05 2.33-2.38 2.33-.24 0-.44.17-.49.4-.17.86-.94 1.49-1.82 1.49-1.03 0-1.86-.83-1.86-1.86V5.39c0-.77.62-1.39 1.39-1.39s1.39.62 1.39 1.44c0 .15.07.29.18.38s.27.13.41.11a1.856 1.856 0 0 1 2.24 1.82c0 .42-.14.82-.39 1.15-.11.14-.14.33-.07.49.06.17.21.28.39.31 1.12.17 1.97 1.16 1.97 2.3 0 .8-.4 1.53-1.08 1.97Z"/></svg>