<svg xmlns="http://www.w3.org/2000/svg" viewBox="0 0 24 24" width="24" height="24"><path class="b" d="m18.5,3H6.75c-.6,0-1.13.34-1.37.89s-.15,1.17.26,1.61l1.37,1.52v10.47c0,1.93,1.57,3.5,3.5,3.5h6c1.93,0,3.5-1.57,3.5-3.5V4.5c0-.83-.67-1.5-1.5-1.5Zm-12.13,1.83c-.2-.22-.12-.47-.08-.54.03-.07.16-.3.46-.3h11.75c.28,0,.5.22.5.5v10.73c-2.51-.11-3.84-.97-5.22-1.9s-2.96-1.95-5.78-2.06v-4.44c0-.12-.05-.24-.13-.33l-1.5-1.66Zm10.13,15.17h-6c-1.38,0-2.5-1.12-2.5-2.5v-5.23c2.51.11,3.84.97,5.22,1.9s2.96,1.95,5.78,2.06v1.27c0,1.38-1.12,2.5-2.5,2.5Z"/></svg>