<svg xmlns="http://www.w3.org/2000/svg" viewBox="0 0 24 24" width="24" height="24"><path d="m17.76,9.64h-3.4v-5.03c0-.69-.42-1.29-1.07-1.52-.65-.23-1.35-.03-1.79.51h0l-6.52,8.15c-.39.49-.46,1.14-.19,1.7.27.56.82.91,1.45.91h3.4v5.03c0,.69.42,1.29,1.07,1.52.18.06.36.09.54.09.48,0,.93-.21,1.24-.6l6.52-8.15c.39-.49.46-1.14.19-1.7-.27-.56-.82-.91-1.45-.91Zm.47,1.98l-6.52,8.15c-.25.31-.58.23-.67.19-.09-.03-.4-.17-.4-.57v-5.53c0-.28-.22-.5-.5-.5h-3.9c-.24,0-.44-.13-.55-.34-.1-.21-.08-.45.07-.64l6.52-8.15c.25-.31.58-.23.67-.19.09.03.4.17.4.57v5.53c0,.28.22.5.5.5h3.9c.24,0,.44.13.55.34.1.21.08.45-.07.64Z"/></svg>