<svg xmlns="http://www.w3.org/2000/svg" width="24" height="24" viewBox="0 0 24 24"><path d="M20 10h-1.05c-.25-1.69-1.69-3-3.45-3h-9C4.57 7 3 8.57 3 10.5v3C3 15.43 4.57 17 6.5 17h9c1.76 0 3.2-1.31 3.45-3H20c.55 0 1-.45 1-1v-2c0-.55-.45-1-1-1m-4.5 6h-9A2.5 2.5 0 0 1 4 13.5v-3A2.5 2.5 0 0 1 6.5 8h9a2.5 2.5 0 0 1 2.5 2.5v3a2.5 2.5 0 0 1-2.5 2.5"/><path d="M7 10c-.55 0-1 .45-1 1v2c0 .55.45 1 1 1s1-.45 1-1v-2c0-.55-.45-1-1-1M11 10c-.55 0-1 .45-1 1v2c0 .55.45 1 1 1s1-.45 1-1v-2c0-.55-.45-1-1-1M15 10c-.55 0-1 .45-1 1v2c0 .55.45 1 1 1s1-.45 1-1v-2c0-.55-.45-1-1-1"/></svg>