<svg xmlns="http://www.w3.org/2000/svg" viewBox="0 0 24 24" width="24" height="24"><path d="m20.5,15c.28,0,.5-.22.5-.5s-.22-.5-.5-.5h-2.5v-5c0-3.31-2.69-6-6-6s-6,2.69-6,6v5h-2.5c-.28,0-.5.22-.5.5s.22.5.5.5h.5v5h-.5c-.28,0-.5.22-.5.5s.22.5.5.5h17c.28,0,.5-.22.5-.5s-.22-.5-.5-.5h-.5v-5h.5Zm-9.5,0h2v5h-2v-5Zm-1,5h-2v-5h2v5Zm4-5h2v5h-2v-5Zm0-1h-1.5v-4h4.5v4h-3Zm3-5h-4.5v-4.95c2.52.26,4.5,2.36,4.5,4.95Zm-5.5-4.95v4.95h-4.5c0-2.59,1.98-4.69,4.5-4.95Zm-4.5,5.95h4.5v4h-4.5v-4Zm-2,5h2v5h-2v-5Zm14,5h-2v-5h2v5Z"/></svg>