<svg xmlns="http://www.w3.org/2000/svg" viewBox="0 0 24 24" width="24" height="24"><path d="m16.5,21H7.5c-1.93,0-3.5-1.57-3.5-3.5v-8.57c-.79-.81-1.14-1.94-.94-3.07.29-1.64,1.83-2.87,3.58-2.87h10.74c1.75,0,3.29,1.23,3.58,2.87h0c.2,1.12-.15,2.25-.94,3.07v8.57c0,1.93-1.57,3.5-3.5,3.5ZM6.63,4c-1.27,0-2.38.88-2.59,2.04-.15.87.13,1.71.79,2.31.11.09.17.23.17.37v8.78c0,1.38,1.12,2.5,2.5,2.5h9c1.38,0,2.5-1.12,2.5-2.5v-8.78c0-.14.06-.28.17-.37.66-.59.95-1.43.79-2.31h0c-.21-1.17-1.32-2.04-2.59-2.04H6.63Z"/><path d="M12 7A1 1 0 1 0 12 9 1 1 0 1 0 12 7z"/><path d="M15.5 10A.5.5 0 1 0 15.5 11 .5.5 0 1 0 15.5 10z"/><path d="M16 6A1 1 0 1 0 16 8 1 1 0 1 0 16 6z"/></svg>