<svg xmlns="http://www.w3.org/2000/svg" viewBox="0 0 24 24" width="24" height="24"><path d="m19.1,8.87c0-.1.01-.2.01-.29,0-2.07-1.71-3.79-3.84-3.73-.68-1.13-1.93-1.85-3.27-1.85s-2.6.71-3.27,1.85c-.01,0-.02,0-.03,0-2.1,0-3.81,1.67-3.81,3.73,0,.1,0,.19.01.29-1.15.54-1.9,1.67-1.9,2.94,0,1.8,1.5,3.27,3.33,3.27.23,0,.47-.03.72-.09.16.15.33.27.51.39,0,0,.01.01.02.02,3.81,2.77,3.92,5.07,3.92,5.11,0,.04.01.07.02.11,0,.03,0,.06.02.08.02.06.06.11.1.15,0,0,0,0,0,0,.09.09.22.15.36.15.25,0,.46-.19.49-.44,0-.02.01-.04.01-.05,0-.02.1-2.33,3.92-5.11,0,0,0,0,0-.01.18-.12.36-.25.52-.39.25.06.49.09.72.09,1.84,0,3.33-1.47,3.33-3.27,0-1.27-.75-2.4-1.9-2.94Zm-9.28,7.08c.59-.02,1.17-.16,1.68-.44v2.41c-.39-.59-.93-1.26-1.68-1.97Zm2.68,1.97v-2.4c.5.28,1.06.43,1.65.46-.73.7-1.27,1.35-1.65,1.94Zm5.17-3.84c-.22,0-.45-.04-.72-.12-.19-.06-.38,0-.52.14-1.07,1.15-2.99,1.17-4.08.08-.1-.1-.23-.15-.35-.15s-.26.05-.35.15c-1.09,1.09-3.02,1.07-4.08-.08-.13-.14-.33-.19-.52-.14-.27.08-.49.12-.72.12-1.29,0-2.33-1.02-2.33-2.27,0-.97.65-1.83,1.61-2.14.24-.08.39-.32.34-.57-.03-.17-.05-.34-.05-.52,0-1.51,1.26-2.73,2.81-2.73.05,0,.09,0,.14.01l.13.02c.22.02.41-.09.5-.28.46-.97,1.46-1.59,2.54-1.59s2.08.62,2.54,1.59c.09.19.29.3.5.28l.13-.02s.09-.01.14-.01c1.55,0,2.81,1.23,2.81,2.73,0,.18-.02.35-.05.52-.05.25.1.49.34.57.96.31,1.61,1.17,1.61,2.14,0,1.25-1.05,2.27-2.33,2.27Z"/></svg>