<svg xmlns="http://www.w3.org/2000/svg" width="24" height="24" viewBox="0 0 24 24"><path d="M14.82 19H9.18c.41 1.17 1.51 2 2.82 2s2.41-.83 2.82-2M19.27 13.7l-.87-.65c-.25-.19-.4-.49-.4-.8v-2.01c0-2.72-1.73-5.1-4.13-5.92-.28-.77-1.01-1.31-1.87-1.31s-1.58.54-1.87 1.3c-.79.26-1.53.68-2.17 1.26A6 6 0 0 0 6 10.01v2.25c0 .31-.15.61-.4.8l-.87.65c-.46.34-.73.89-.73 1.47 0 1.01.82 1.83 1.83 1.83h12.33c1.01 0 1.83-.82 1.83-1.83 0-.57-.27-1.12-.73-1.47Zm-1.1 2.3H5.83c-.46 0-.83-.37-.83-.83 0-.26.12-.51.33-.67l.87-.65c.5-.38.8-.97.8-1.6V10c0-1.41.6-2.75 1.64-3.7C9.57 5.45 10.75 5 12 5c.17 0 .33 0 .5.02 2.53.24 4.51 2.53 4.51 5.21v2.01c0 .63.3 1.22.8 1.6l.87.65c.21.16.33.41.33.67 0 .46-.37.83-.83.83Z"/></svg>