<svg xmlns="http://www.w3.org/2000/svg" width="24" height="24" viewBox="0 0 24 24"><path d="m19.15 9.15-1.19 1.19a6.93 6.93 0 0 0-3.95-3.05V4h.5c.28 0 .5-.22.5-.5s-.22-.5-.5-.5h-5c-.28 0-.5.22-.5.5s.22.5.5.5h.5v3.29c-2.96.87-5 3.57-5 6.71 0 3.86 3.14 7 7 7s7-3.14 7-7c0-.97-.21-1.88-.57-2.72l1.42-1.42c.2-.2.2-.51 0-.71s-.51-.2-.71 0M12 20c-3.31 0-6-2.69-6-6 0-.6.1-1.18.27-1.74 2.66.06 4.02.95 5.45 1.9 1.46.97 2.99 1.97 5.84 2.07A6.01 6.01 0 0 1 11.99 20Zm5.87-4.76c-2.76-.03-4.14-.94-5.59-1.91-1.42-.95-2.91-1.92-5.62-2.06.78-1.53 2.19-2.7 3.95-3.11.23-.05.39-.25.39-.49V3.99h2v3.68c0 .23.16.43.39.49 2.72.63 4.61 3.03 4.61 5.83 0 .43-.05.84-.13 1.24Z"/></svg>