<svg xmlns="http://www.w3.org/2000/svg" viewBox="0 0 24 24" width="24" height="24"><path class="b" d="m19.5,12h-.5v-4.5c0-1.38-1.12-2.5-2.5-2.5H7.5c-1.38,0-2.5,1.12-2.5,2.5v4.5h-.5c-.83,0-1.5.67-1.5,1.5v1c0,.83.67,1.5,1.5,1.5h.5v3.5c0,.28.22.5.5.5s.5-.22.5-.5v-3.5h12v3.5c0,.28.22.5.5.5s.5-.22.5-.5v-3.5h.5c.83,0,1.5-.67,1.5-1.5v-1c0-.83-.67-1.5-1.5-1.5ZM6,7.5c0-.83.67-1.5,1.5-1.5h9c.83,0,1.5.67,1.5,1.5v4.5H6v-4.5Zm14,7c0,.28-.22.5-.5.5H4.5c-.28,0-.5-.22-.5-.5v-1c0-.28.22-.5.5-.5h15c.28,0,.5.22.5.5v1Z"/></svg>