<svg xmlns="http://www.w3.org/2000/svg" width="24" height="24" viewBox="0 0 24 24"><path d="M16 3.5c0-.28-.22-.5-.5-.5h-8A2.5 2.5 0 0 0 5 5.5v11c0 .28.22.5.5.5s.5-.22.5-.5v-11C6 4.67 6.67 4 7.5 4h8c.28 0 .5-.22.5-.5"/><path d="M16.5 6h-6A2.5 2.5 0 0 0 8 8.5v11.05c0 .37.2.71.53.88.15.08.31.12.47.12.2 0 .4-.06.56-.18l3.37-2.31c.34-.23.79-.23 1.13 0l3.37 2.31c.31.21.7.23 1.03.06s.53-.51.53-.88V8.5a2.5 2.5 0 0 0-2.5-2.5Zm1.5 9v4.55l-3.37-2.31c-.68-.46-1.58-.46-2.26 0L9 19.55V8.5c0-.83.67-1.5 1.5-1.5h6c.83 0 1.5.67 1.5 1.5z"/></svg>