<svg xmlns="http://www.w3.org/2000/svg" width="24" height="24" viewBox="0 0 24 24"><path d="M17.5 5H9.57c-1.15 0-2.22.56-2.88 1.51l-3.01 4.35c-.47.68-.47 1.6 0 2.28l3.01 4.36a3.51 3.51 0 0 0 2.88 1.51h7.93c1.93 0 3.5-1.57 3.5-3.5v-7c0-1.93-1.57-3.5-3.5-3.5ZM20 15.5a2.5 2.5 0 0 1-2.5 2.5H9.57c-.82 0-1.59-.4-2.06-1.08L4.5 12.56a.99.99 0 0 1 0-1.14l3.01-4.35c.47-.67 1.24-1.08 2.06-1.08h7.93a2.5 2.5 0 0 1 2.5 2.5v7Z"/><path d="M16.85 9.15c-.2-.2-.51-.2-.71 0l-2.15 2.15-2.15-2.15c-.2-.2-.51-.2-.71 0s-.2.51 0 .71l2.15 2.15-2.15 2.15c-.2.2-.2.51 0 .71a.485.485 0 0 0 .7 0l2.15-2.15 2.15 2.15a.485.485 0 0 0 .7 0c.2-.2.2-.51 0-.71l-2.15-2.15 2.15-2.15c.2-.2.2-.51 0-.71Z"/></svg>