<svg xmlns="http://www.w3.org/2000/svg" width="24" height="24" viewBox="0 0 24 24"><path d="M18.27 5.73c-.16-.91-.68-1.7-1.47-2.21a3.34 3.34 0 0 0-3.85.19c-1.37 1.09-1.68 3-.72 4.45.05.08.04.21-.04.29l-3.73 3.73c-.08.08-.21.09-.31.03a3.33 3.33 0 0 0-4.44.75c-.86 1.1-.94 2.68-.18 3.85.51.78 1.3 1.3 2.2 1.46A3.31 3.31 0 0 0 8.99 21a3.326 3.326 0 0 0 2.8-5.14c-.06-.1-.05-.23.03-.31l3.73-3.73c.08-.08.2-.1.29-.04 1.45.96 3.37.65 4.45-.72.87-1.1.95-2.68.19-3.85-.51-.79-1.3-1.31-2.21-1.47Zm1.24 4.7c-.76.96-2.1 1.18-3.12.51-.48-.31-1.13-.24-1.54.17l-3.73 3.73a1.24 1.24 0 0 0-.16 1.56c.66 1.02.43 2.35-.53 3.11-.77.6-1.87.66-2.69.12a2.3 2.3 0 0 1-1.06-1.84.5.5 0 0 0-.47-.47c-.77-.04-1.42-.42-1.84-1.06-.53-.82-.48-1.92.12-2.69.46-.59 1.15-.9 1.84-.9.43 0 .87.12 1.26.38.5.32 1.14.26 1.56-.16l3.73-3.73c.42-.42.49-1.06.17-1.54-.67-1.01-.45-2.35.51-3.12.77-.61 1.87-.66 2.69-.13.64.41 1.02 1.08 1.06 1.84.01.25.22.46.47.47.76.04 1.43.43 1.85 1.07.53.82.48 1.92-.13 2.69Z"/></svg>