<svg xmlns="http://www.w3.org/2000/svg" viewBox="0 0 24 24" width="24" height="24"><path d="m20,16.28v-3.28c0-3.73-2.57-6.86-6.03-7.74.01-.08.03-.17.03-.26,0-1.1-.9-2-2-2s-2,.9-2,2c0,.09.01.17.03.26-3.46.88-6.03,4.01-6.03,7.74v3.28c-.59.35-1,.98-1,1.72v1c0,1.1.9,2,2,2h14c1.1,0,2-.9,2-2v-1c0-.74-.41-1.38-1-1.72ZM10.4,6.19c.36.49.94.81,1.6.81s1.23-.32,1.6-.81c2.47.58,4.44,2.47,5.13,4.89l-2.98,1.7c-.15.09-.34.09-.5,0l-2.51-1.43c-.46-.26-1.03-.26-1.49,0l-2.5,1.43c-.15.09-.34.09-.5,0l-2.97-1.7c.69-2.42,2.66-4.31,5.13-4.89Zm-5.4,6.81c0-.3.03-.6.06-.89l2.69,1.54c.46.26,1.03.26,1.49,0l2.51-1.43c.15-.09.34-.09.5,0l2.51,1.43c.23.13.49.2.74.2s.51-.07.74-.2l2.7-1.54c.04.29.06.59.06.89v3H5v-3Zm15,6c0,.55-.45,1-1,1H5c-.55,0-1-.45-1-1v-1c0-.55.45-1,1-1h14c.55,0,1,.45,1,1v1Z"/></svg>