<svg xmlns="http://www.w3.org/2000/svg" viewBox="0 0 24 24" width="24" height="24"><path d="m20.5,11c.28,0,.5-.22.5-.5s-.22-.5-.5-.5c-1.38,0-2.5-1.12-2.5-2.5v-3c0-.28-.22-.5-.5-.5s-.5.22-.5.5v1.5c0,2.76-2.24,5-5,5s-5-2.24-5-5v-1.5c0-.28-.22-.5-.5-.5s-.5.22-.5.5v3c0,1.38-1.12,2.5-2.5,2.5-.28,0-.5.22-.5.5s.22.5.5.5c.98,0,1.86-.41,2.5-1.06v5.06h-2.5c-.28,0-.5.22-.5.5s.22.5.5.5h2.5v3.5c0,.28.22.5.5.5s.5-.22.5-.5v-3.5h10v3.5c0,.28.22.5.5.5s.5-.22.5-.5v-3.5h2.5c.28,0,.5-.22.5-.5s-.22-.5-.5-.5h-2.5v-5.06c.64.65,1.52,1.06,2.5,1.06Zm-13.5,4v-5.69c.99,1.49,2.62,2.51,4.5,2.67v3.03h-4.5Zm5.5,0v-3.03c1.88-.16,3.51-1.18,4.5-2.67v5.69h-4.5Z"/></svg>