<svg xmlns="http://www.w3.org/2000/svg" width="24" height="24" viewBox="0 0 24 24"><path d="M14.82 19H9.18c.41 1.17 1.51 2 2.82 2s2.41-.83 2.82-2M19.27 13.7l-.87-.65c-.25-.19-.4-.49-.4-.8v-2.01c0-2.72-1.73-5.1-4.13-5.93C13.59 3.54 12.86 3 12 3s-1.58.54-1.87 1.3A5.99 5.99 0 0 0 6 10v2.25c0 .31-.15.61-.4.8l-.87.65c-.46.34-.73.89-.73 1.47C4 16.18 4.82 17 5.83 17h12.33c1.01 0 1.83-.82 1.83-1.83 0-.57-.27-1.12-.73-1.47Zm-1.1 2.3H5.83c-.46 0-.83-.37-.83-.83 0-.26.12-.51.33-.67l.87-.65c.5-.38.8-.97.8-1.6V10c0-1.41.6-2.75 1.64-3.7.93-.85 2.1-1.3 3.35-1.3h.03c.16 0 .32 0 .48.02 2.53.24 4.51 2.53 4.51 5.21v2.01c0 .63.3 1.22.8 1.6l.87.65c.21.16.33.41.33.67 0 .46-.37.83-.83.83Z"/><path d="M14.75 10.5h-5.5c-.28 0-.5.22-.5.5s.22.5.5.5h5.5c.28 0 .5-.22.5-.5s-.22-.5-.5-.5"/></svg>