<svg xmlns="http://www.w3.org/2000/svg" viewBox="0 0 24 24" width="24" height="24"><path d="m19.5,9h-1.5v-1.5c0-.83-.67-1.5-1.5-1.5h-1c-.83,0-1.5.67-1.5,1.5v1.5h-4v-1.5c0-.83-.67-1.5-1.5-1.5h-1c-.83,0-1.5.67-1.5,1.5v1.5h-1.5c-.83,0-1.5.67-1.5,1.5v6c0,.83.67,1.5,1.5,1.5h15c.83,0,1.5-.67,1.5-1.5v-6c0-.83-.67-1.5-1.5-1.5Zm-4.5-1.5c0-.28.22-.5.5-.5h1c.28,0,.5.22.5.5v1.5h-2v-1.5Zm-8,0c0-.28.22-.5.5-.5h1c.28,0,.5.22.5.5v1.5h-2v-1.5Zm13,9c0,.28-.22.5-.5.5H4.5c-.28,0-.5-.22-.5-.5v-6c0-.28.22-.5.5-.5h15c.28,0,.5.22.5.5v6Z"/></svg>