<svg xmlns="http://www.w3.org/2000/svg" viewBox="0 0 24 24" width="24" height="24"><path d="M8 6A1 1 0 1 0 8 8 1 1 0 1 0 8 6z"/><path d="m20,10h-9v-4c0-1.65-1.35-3-3-3s-3,1.35-3,3v.05c-1.14.23-2,1.24-2,2.45,0,.28.22.5.5.5h1.5v2c0,3.36,2.08,6.23,5.02,7.42,0,.03-.02.05-.02.08v2c0,.28.22.5.5.5s.5-.22.5-.5v-1.76c.64.17,1.31.26,2,.26v1.5c0,.28.22.5.5.5s.5-.22.5-.5v-1.5s-.01-.04-.01-.07c3.76-.47,6.72-3.55,6.99-7.37.02-.18.03-.37.03-.56,0-.55-.45-1-1-1Zm0,1c0,2.48-2.02,4.5-4.5,4.5s-4.5-2.02-4.5-4.5h9Zm-7,7c-3.86,0-7-3.14-7-7v-5c0-1.1.9-2,2-2s2,.9,2,2v5c0,3.03,2.47,5.5,5.5,5.5.9,0,1.74-.22,2.49-.6-1.27,1.3-3.04,2.1-4.99,2.1Z"/></svg>