<svg xmlns="http://www.w3.org/2000/svg" viewBox="0 0 24 24" width="24" height="24"><path d="m18.5,7h-.5v-1.5c0-1.38-1.12-2.5-2.5-2.5h-7c-1.38,0-2.5,1.12-2.5,2.5v1.5h-.5c-1.38,0-2.5,1.12-2.5,2.5v9c0,1.38,1.12,2.5,2.5,2.5h13c1.38,0,2.5-1.12,2.5-2.5v-9c0-1.38-1.12-2.5-2.5-2.5Zm-11.5-1.5c0-.83.67-1.5,1.5-1.5h7c.83,0,1.5.67,1.5,1.5v1.5H7v-1.5Zm13,13c0,.83-.67,1.5-1.5,1.5H5.5c-.83,0-1.5-.67-1.5-1.5v-7.5h16v7.5ZM4,10v-.5c0-.83.67-1.5,1.5-1.5h13c.83,0,1.5.67,1.5,1.5v.5H4Z"/><path d="m8.5,18c1.38,0,2.5-1.12,2.5-2.5s-1.12-2.5-2.5-2.5-2.5,1.12-2.5,2.5,1.12,2.5,2.5,2.5Zm0-4c.83,0,1.5.67,1.5,1.5s-.67,1.5-1.5,1.5-1.5-.67-1.5-1.5.67-1.5,1.5-1.5Z"/><path d="m15.5,18c1.38,0,2.5-1.12,2.5-2.5s-1.12-2.5-2.5-2.5-2.5,1.12-2.5,2.5,1.12,2.5,2.5,2.5Zm0-4c.83,0,1.5.67,1.5,1.5s-.67,1.5-1.5,1.5-1.5-.67-1.5-1.5.67-1.5,1.5-1.5Z"/></svg>