<svg xmlns="http://www.w3.org/2000/svg" width="24" height="24" viewBox="0 0 24 24"><path d="M17.5 7H17V5.5A2.5 2.5 0 0 0 14.5 3h-5A2.5 2.5 0 0 0 7 5.5V7h-.5C4.57 7 3 8.57 3 10.5v7C3 19.43 4.57 21 6.5 21h11c1.93 0 3.5-1.57 3.5-3.5v-7C21 8.57 19.43 7 17.5 7M8 5.5C8 4.67 8.67 4 9.5 4h5c.83 0 1.5.67 1.5 1.5V7H8zM17.5 20h-11A2.5 2.5 0 0 1 4 17.5v-4.77l.19.09a18.3 18.3 0 0 0 15.62 0l.19-.09v4.77a2.5 2.5 0 0 1-2.5 2.5m2.5-8.38-.62.29a17.28 17.28 0 0 1-14.77 0l-.62-.29V10.5A2.5 2.5 0 0 1 6.49 8h11a2.5 2.5 0 0 1 2.5 2.5v1.12Z"/></svg>