<svg xmlns="http://www.w3.org/2000/svg" viewBox="0 0 24 24" width="24" height="24"><path d="M11.5 3A1.5 1.5 0 1 0 11.5 6 1.5 1.5 0 1 0 11.5 3z"/><path d="m18.34,5.69l-10.79,2.87c-.63.17-1.27-.11-1.62-.64.62-.18,1.07-.75,1.07-1.43,0-.83-.67-1.5-1.5-1.5s-1.5.67-1.5,1.5c0,.54.28,1,.71,1.27l.15.33c.4.93,1.33,1.51,2.3,1.51.21,0,.43-.03.64-.08l2.4-.64-1.38,4.48s0,0,0,0c0,0,0,0,0,0l-2.14,6.96c-.08.26.07.54.33.62.05.02.1.02.15.02.21,0,.41-.14.48-.35l2-6.52,1.21.34,1.1.37c.78.26,1.21,1.11.95,1.9l-1.24,3.71c-.09.26.05.55.32.63.05.02.11.03.16.03.21,0,.4-.13.47-.34l1.24-3.71c.44-1.31-.27-2.73-1.58-3.16l-.65-.21,1.62-5.59,5.36-1.43c.27-.07.43-.34.35-.61s-.35-.43-.61-.35Z"/></svg>