<svg xmlns="http://www.w3.org/2000/svg" viewBox="0 0 24 24" width="24" height="24"><path d="m16.5,12c-2.48,0-4.5-2.02-4.5-4.5v-2c0-.83-.67-1.5-1.5-1.5h-6c-.83,0-1.5.67-1.5,1.5v13.5c0,.55.45,1,1,1s1-.45,1-1h1c0,.55.45,1,1,1s1-.45,1-1h1c0,.55.45,1,1,1s1-.45,1-1h1c0,.55.45,1,1,1s1-.45,1-1h1c0,.55.45,1,1,1s1-.45,1-1h1c0,.55.45,1,1,1s1-.45,1-1v-.28c.59-.35,1-.98,1-1.72v-.5c0-2.48-2.02-4.5-4.5-4.5Zm3.5,5c0,.55-.45,1-1,1H4V5.5c0-.28.22-.5.5-.5h6c.28,0,.5.22.5.5v2c0,.52.08,1.02.21,1.5h-1.71c-.28,0-.5.22-.5.5s.22.5.5.5h2s.07-.01.1-.02c.19.37.41.72.68,1.04l-1.88,1.88c-.2.2-.2.51,0,.71.1.1.23.15.35.15s.26-.05.35-.15l1.88-1.88c.32.26.67.49,1.04.68,0,.03-.02.06-.02.1v2c0,.28.22.5.5.5s.5-.22.5-.5v-1.71c.48.14.98.21,1.5.21,1.93,0,3.5,1.57,3.5,3.5v.5Z"/></svg>