<svg xmlns="http://www.w3.org/2000/svg" viewBox="0 0 24 24" width="24" height="24"><path d="m15.97,6.21c-.15-1.79-1.64-3.21-3.47-3.21h-1c-1.83,0-3.32,1.42-3.47,3.21-2.32.65-4.03,2.77-4.03,5.29v7c0,1.38,1.12,2.5,2.5,2.5h11c1.38,0,2.5-1.12,2.5-2.5v-7c0-2.52-1.71-4.65-4.03-5.29Zm-6.92-.21c.23-1.14,1.24-2,2.45-2h1c1.21,0,2.22.86,2.45,2h-5.9Zm-1.05,14v-3h8v3h-8Zm8-4h-8v-1.5c0-.83.67-1.5,1.5-1.5h5c.83,0,1.5.67,1.5,1.5v1.5Zm3,2.5c0,.83-.67,1.5-1.5,1.5h-.5v-5.5c0-1.38-1.12-2.5-2.5-2.5h-5c-1.38,0-2.5,1.12-2.5,2.5v5.5h-.5c-.83,0-1.5-.67-1.5-1.5v-7c0-2.48,2.02-4.5,4.5-4.5h5c2.48,0,4.5,2.02,4.5,4.5v7Z"/></svg>