<svg xmlns="http://www.w3.org/2000/svg" viewBox="0 0 24 24" width="24" height="24"><path d="m20.77,13.58l-2.84-7.69c-.28-1.11-1.28-1.89-2.42-1.89-.94,0-1.79.52-2.22,1.35-.21.39-.68.65-1.21.65h-.15c-.53,0-1-.25-1.21-.65-.43-.83-1.28-1.35-2.22-1.35-1.15,0-2.14.78-2.41,1.84l-2.86,7.74h.02c-.03.11-.08.2-.1.3-.1.34-.15.72-.15,1.12,0,2.48,2.02,4.5,4.5,4.5s4.5-2.02,4.5-4.5c0,2.48,2.02,4.5,4.5,4.5s4.5-2.02,4.5-4.5c0-.5-.1-.97-.25-1.42h.02ZM7.04,6.13c.17-.67.77-1.13,1.46-1.13.56,0,1.07.31,1.33.81.32.61.94,1.01,1.67,1.13v6.03c-.75-1.49-2.26-2.47-4-2.47-.84,0-1.63.24-2.3.64l1.85-5.01Zm.46,12.37c-1.93,0-3.5-1.57-3.5-3.5,0-.31.04-.59.12-.86.38-1.55,1.78-2.64,3.38-2.64s3.05,1.13,3.4,2.69l.1.84c-.02,1.92-1.58,3.47-3.5,3.47Zm5-11.55c.73-.12,1.35-.52,1.67-1.13.26-.5.77-.81,1.33-.81.69,0,1.29.47,1.47,1.18l1.84,4.98c-.68-.41-1.46-.66-2.31-.66-1.75,0-3.26,1.02-4,2.48v-6.04Zm4,11.55c-1.93,0-3.5-1.57-3.5-3.5s1.57-3.5,3.5-3.5,3.5,1.57,3.5,3.5-1.57,3.5-3.5,3.5Z"/></svg>