<svg xmlns="http://www.w3.org/2000/svg" viewBox="0 0 24 24" width="24" height="24"><path d="m20.15,3.15l-4.65,4.65-1.53-1.53c-.94-.95-2.59-.95-3.54,0l-.63.63-6.54,3.92c-.13.08-.22.21-.24.37-.02.15.03.31.14.42l9.23,9.23c.09.09.22.15.35.15.02,0,.04,0,.06,0,.15-.02.29-.11.37-.24l3.92-6.54.63-.63c.97-.97.97-2.56,0-3.54l-1.53-1.53,4.65-4.65c.2-.2.2-.51,0-.71s-.51-.2-.71,0Zm-7.49,16.52L4.33,11.34l5.71-3.42,3.02,3.02,3.02,3.02-3.42,5.71Zm4.37-6.81l-.32.32-5.88-5.88.32-.32c.57-.57,1.55-.57,2.12,0l3.76,3.76c.58.58.58,1.54,0,2.12Z"/></svg>