<svg xmlns="http://www.w3.org/2000/svg" width="24" height="24" viewBox="0 0 24 24"><path d="M12 8c-1.1 0-2 .9-2 2 0 .95.67 1.75 1.56 1.95l-.29 8.54c0 .28.22.52.5.52h.47a.5.5 0 0 0 .5-.52l-.29-8.54c.89-.2 1.56-1 1.56-1.95 0-1.1-.9-2-2-2ZM8.82 6.11c-.2-.2-.51-.2-.71 0A5.46 5.46 0 0 0 6.5 9.99c0 1.47.57 2.85 1.61 3.89a.485.485 0 0 0 .7 0c.2-.2.2-.51 0-.71a4.48 4.48 0 0 1-1.32-3.19c0-1.2.47-2.33 1.32-3.18.2-.19.2-.51 0-.71ZM15.18 6.11c-.2.2-.2.51 0 .71.85.85 1.32 1.98 1.32 3.18s-.47 2.33-1.32 3.18c-.2.2-.2.51 0 .71a.485.485 0 0 0 .7 0c1.04-1.04 1.61-2.42 1.61-3.89s-.57-2.85-1.61-3.89c-.2-.2-.51-.2-.71 0ZM5.99 3.28c-.2-.2-.51-.2-.71 0C3.48 5.07 2.49 7.46 2.49 10s.99 4.92 2.78 6.72a.485.485 0 0 0 .7 0c.2-.2.2-.51 0-.71C4.36 14.4 3.48 12.27 3.48 10s.88-4.4 2.49-6.01c.2-.19.2-.51 0-.71ZM18.01 3.28c-.2.2-.2.51 0 .71 3.31 3.31 3.31 8.71 0 12.02-.2.2-.2.51 0 .71a.485.485 0 0 0 .7 0c3.7-3.7 3.7-9.73 0-13.44-.2-.2-.51-.2-.71 0Z"/></svg>