<svg xmlns="http://www.w3.org/2000/svg" viewBox="0 0 24 24" width="24" height="24"><path d="m20.5,8h-.5v-.5c0-2.48-2.02-4.5-4.5-4.5h-7c-2.48,0-4.5,2.02-4.5,4.5v.5h-.5c-.28,0-.5.22-.5.5v3c0,.28.22.5.5.5h.5v4.5c0,.81.4,1.53,1,1.99v1.51c0,.55.45,1,1,1h1c.55,0,1-.45,1-1v-1h8v1c0,.55.45,1,1,1h1c.55,0,1-.45,1-1v-1.51c.6-.46,1-1.17,1-1.99v-4.5h.5c.28,0,.5-.22.5-.5v-3c0-.28-.22-.5-.5-.5Zm-1.5,4h-6.5v-5h6.45c.02.16.05.33.05.5v4.5ZM8.5,4h7c1.39,0,2.58.82,3.15,2H5.35c.56-1.18,1.76-2,3.15-2Zm-3.5,3.5c0-.17.03-.34.05-.5h6.45v5h-6.5v-4.5Zm12.5,10.5H6.5c-.83,0-1.5-.67-1.5-1.5v-3.5h14v3.5c0,.83-.67,1.5-1.5,1.5Z"/><path d="M7.5 14A1.5 1.5 0 1 0 7.5 17 1.5 1.5 0 1 0 7.5 14z"/><path d="M16.5 14A1.5 1.5 0 1 0 16.5 17 1.5 1.5 0 1 0 16.5 14z"/></svg>