<svg xmlns="http://www.w3.org/2000/svg" viewBox="0 0 24 24" width="24" height="24"><path d="m18.5,7h-3.5v-1.5c0-1.38-1.12-2.5-2.5-2.5h-7c-1.38,0-2.5,1.12-2.5,2.5v13.5c0,1.1.9,2,2,2h14c1.1,0,2-.9,2-2v-9.5c0-1.38-1.12-2.5-2.5-2.5Zm1.5,12c0,.55-.45,1-1,1H5c-.55,0-1-.45-1-1V5.5c0-.83.67-1.5,1.5-1.5h7c.83,0,1.5.67,1.5,1.5v2c0,.28.22.5.5.5h4c.83,0,1.5.67,1.5,1.5v9.5Z"/><rect x="10" y="6" width="2" height="2" rx=".5" ry=".5"/><rect x="6" y="6" width="2" height="2" rx=".5" ry=".5"/><rect x="6" y="10" width="2" height="2" rx=".5" ry=".5"/><rect x="10" y="10" width="2" height="2" rx=".5" ry=".5"/><rect x="16" y="10" width="2" height="2" rx=".5" ry=".5"/><rect x="10" y="14" width="2" height="2" rx=".5" ry=".5"/><rect x="6" y="14" width="2" height="2" rx=".5" ry=".5"/><rect x="16" y="14" width="2" height="2" rx=".5" ry=".5"/></svg>