<svg xmlns="http://www.w3.org/2000/svg" width="24" height="24" viewBox="0 0 24 24"><path d="M9.15 4.25c.14-.24.05-.54-.19-.68a.494.494 0 0 0-.68.19l-3.57 6.25h-.2c-.4 0-.76.18-1 .5s-.31.72-.19 1.11l2.07 6.9a3.474 3.474 0 0 0 3.35 2.49h6.54c1.56 0 2.9-1 3.35-2.49l2.07-6.9c.11-.38.04-.79-.19-1.11-.24-.32-.6-.5-1-.5h-.2l-3.57-6.25a.505.505 0 0 0-.68-.19c-.24.14-.32.44-.19.68L18.16 10H5.86zm10.58 7.07-2.07 6.9A2.475 2.475 0 0 1 15.27 20H8.73c-1.11 0-2.07-.72-2.39-1.78l-2.07-6.9c-.03-.1.01-.18.04-.22s.09-.1.2-.1h14.98c.11 0 .17.06.2.1s.07.12.04.22"/><path d="M9.5 13c-.28 0-.5.22-.5.5v4c0 .28.22.5.5.5s.5-.22.5-.5v-4c0-.28-.22-.5-.5-.5M14.5 13c-.28 0-.5.22-.5.5v4c0 .28.22.5.5.5s.5-.22.5-.5v-4c0-.28-.22-.5-.5-.5"/></svg>