<svg xmlns="http://www.w3.org/2000/svg" viewBox="0 0 24 24" width="24" height="24"><path d="m16.25,9.61c-1.92,0-3.63,1.16-4.36,2.92-1.11-.14-2.21-.1-3.25.1.06-.51.09-1.04.09-1.58,0-.84-.08-1.67-.22-2.44,1.22-.33,2.11-1.45,2.11-2.75,0-1.58-1.28-2.86-2.86-2.86-2.08,0-3.5,1.69-4.21,5.02-.54,2.54-.54,5.42-.54,6.81v1.89c0,2.45,4,4.28,7.58,4.28,2.23,0,4.31-.72,5.53-1.9.05,0,.09,0,.14,0,2.62,0,4.75-2.13,4.75-4.75s-2.13-4.75-4.75-4.75Zm0,8.5s-.08,0-.13-.01l-.16-.02c-.15-.01-.3.05-.41.16-1,1.09-2.9,1.76-4.97,1.76-3.32,0-6.58-1.62-6.58-3.28v-1.89c0-1.35,0-4.17.52-6.6.6-2.81,1.69-4.23,3.23-4.23,1.03,0,1.86.83,1.86,1.86,0,.97-.77,1.78-1.74,1.85-.15,0-.28.08-.37.2-.09.12-.12.27-.08.41.2.83.31,1.77.31,2.73,0,.75-.06,1.47-.18,2.15-.03.17.03.34.16.46.13.12.31.16.47.11,1.24-.35,2.6-.43,3.97-.19.24.04.48-.1.56-.34.5-1.57,1.93-2.62,3.56-2.62,2.07,0,3.75,1.68,3.75,3.75s-1.68,3.75-3.75,3.75Z"/></svg>