<svg xmlns="http://www.w3.org/2000/svg" viewBox="0 0 24 24" width="24" height="24"><path class="b" d="m16.5,4H7.5c-1.93,0-3.5,1.57-3.5,3.5v9c0,1.93,1.57,3.5,3.5,3.5h9c1.93,0,3.5-1.57,3.5-3.5V7.5c0-1.93-1.57-3.5-3.5-3.5Zm2.5,12.5c0,1.38-1.12,2.5-2.5,2.5H7.5c-1.38,0-2.5-1.12-2.5-2.5V7.5c0-1.38,1.12-2.5,2.5-2.5h9c1.38,0,2.5,1.12,2.5,2.5v9Z"/><path class="b" d="m15,7h-6c-1.1,0-2,.9-2,2v6c0,1.1.9,2,2,2h6c1.1,0,2-.9,2-2v-6c0-1.1-.9-2-2-2Zm1,8c0,.55-.45,1-1,1h-6c-.55,0-1-.45-1-1v-6c0-.55.45-1,1-1h6c.55,0,1,.45,1,1v6Z"/></svg>