<svg xmlns="http://www.w3.org/2000/svg" width="24" height="24" viewBox="0 0 24 24"><path d="M12 21c4.96 0 9-4.04 9-9s-4.04-9-9-9-9 4.04-9 9 4.04 9 9 9m-5.28-3.01 2.84-2.84c.68.53 1.52.85 2.44.85s1.76-.33 2.44-.85l2.84 2.84a7.94 7.94 0 0 1-10.56 0M12 9c1.65 0 3 1.35 3 3s-1.35 3-3 3-3-1.35-3-3 1.35-3 3-3m5.99 8.28-2.84-2.84c.53-.68.85-1.52.85-2.44s-.33-1.76-.85-2.44l2.84-2.84a7.94 7.94 0 0 1 0 10.56m-.71-11.27-2.84 2.84C13.76 8.32 12.92 8 12 8s-1.76.33-2.44.85L6.72 6.01a7.94 7.94 0 0 1 10.56 0m-11.27.71 2.84 2.84C8.32 10.24 8 11.08 8 12s.33 1.76.85 2.44l-2.84 2.84a7.94 7.94 0 0 1 0-10.56"/></svg>