<svg xmlns="http://www.w3.org/2000/svg" width="24" height="24" viewBox="0 0 24 24"><path d="M19.08 17c.8-1.05 1.97-2.97 1.92-5.15C20.93 9.17 18.69 7 16 7h-.02c-1.33 0-2.56.54-3.47 1.43V6h2c.28 0 .5-.22.5-.5s-.22-.5-.5-.5h-2V3.5c0-.28-.22-.5-.5-.5s-.5.22-.5.5V5h-2c-.28 0-.5.22-.5.5s.22.5.5.5h2v2.43C10.6 7.53 9.37 7 8.04 7h-.02c-2.69 0-4.93 2.17-5 4.85-.06 2.18 1.11 4.1 1.92 5.15-1.07.04-1.92.92-1.92 2s.9 2 2 2h14c1.1 0 2-.9 2-2s-.85-1.96-1.92-2ZM19 20H5c-.55 0-1-.45-1-1s.45-1 1-1h1a.499.499 0 0 0 .35-.85c-.02-.02-2.42-2.46-2.35-5.27C4.05 9.78 5.88 8 8 8h.02c1.5 0 2.86.84 3.53 2.17.17.33.72.33.89 0A3.97 3.97 0 0 1 15.97 8h.02c2.12 0 3.95 1.77 4 3.88.07 2.8-2.33 5.25-2.35 5.27-.14.14-.19.36-.11.54s.26.31.46.31h1c.55 0 1 .45 1 1s-.45 1-1 1Z"/></svg>