<svg xmlns="http://www.w3.org/2000/svg" width="24" height="24" viewBox="0 0 24 24"><path d="M15.67 3h-.15c-1.84 0-3.6 1.04-4.69 2.78-.77 1.23-1 2.49-.7 3.84l-6.54 6.46c-.38.37-.59.89-.59 1.42V19c0 1.1.9 2 2 2h1.59c.53 0 1.04-.21 1.41-.59l.56-.56c.28-.28.44-.66.44-1.06.4 0 .78-.16 1.06-.44l.5-.5c.28-.28.44-.66.44-1.06.4 0 .78-.16 1.06-.44l.5-.5c.28-.28.44-.66.44-1.06v-.15h.13c.4 0 .77-.16 1.03-.44l.29-.32q.54.12 1.05.12c.95 0 1.86-.28 2.76-.87 1.82-1.18 2.84-3.03 2.73-4.95A5.476 5.476 0 0 0 15.67 3m2.05 9.29c-.8.52-1.54.71-2.22.71-.49 0-.95-.1-1.39-.24l-.68.76c-.08.09-.19.13-.31.13-.15 0-.31-.06-.48-.19L12 13v1.79c0 .13-.05.26-.15.35l-.5.5a.485.485 0 0 1-.7 0l-.65-.65v1.79c0 .13-.05.26-.15.35l-.5.5a.485.485 0 0 1-.7 0L8 16.98v1.79c0 .13-.05.26-.15.35l-.56.56a1 1 0 0 1-.71.29H4.99c-.55 0-1-.45-1-1v-1.5a1 1 0 0 1 .3-.71l6.95-6.88c-.35-1.06-.43-2.24.43-3.61.85-1.35 2.25-2.31 3.84-2.31h.12c2.33.07 4.22 1.92 4.35 4.23.1 1.66-.88 3.15-2.28 4.05Z"/><path d="M14.27 5.86c-.27.15-.45.42-.5.73-.04.32.06.63.29.85l2.5 2.5c.19.19.44.29.71.29h.14c.31-.04.58-.22.73-.5.62-1.11.43-2.5-.47-3.4s-2.3-1.09-3.4-.47m3.01 3.38h-.01l-2.5-2.5c.28-.16.59-.23.9-.23.48 0 .95.18 1.31.54.58.58.71 1.49.31 2.2Z"/></svg>