<svg xmlns="http://www.w3.org/2000/svg" viewBox="0 0 24 24" width="24" height="24"><path d="m18.5,3H5.5c-.83,0-1.5.67-1.5,1.5v15c0,.83.67,1.5,1.5,1.5h13c.83,0,1.5-.67,1.5-1.5V4.5c0-.83-.67-1.5-1.5-1.5Zm.5,16.5c0,.28-.22.5-.5.5H5.5c-.28,0-.5-.22-.5-.5v-5.5h14v5.5Zm-14-6.5V4.5c0-.28.22-.5.5-.5h13c.28,0,.5.22.5.5v8.5H5Z"/><path d="m12.5,17.5h2.5c0,.28.22.5.5.5h2c.28,0,.5-.22.5-.5v-1c0-.28-.22-.5-.5-.5h-2c-.28,0-.5.22-.5.5h-2.5c-.28,0-.5.22-.5.5s.22.5.5.5Z"/><path d="M7 16A1 1 0 1 0 7 18 1 1 0 1 0 7 16z"/></svg>