<svg xmlns="http://www.w3.org/2000/svg" width="24" height="24" viewBox="0 0 24 24"><path d="M17.5 6h-.77l-1.9-2.28c-.38-.46-.94-.72-1.54-.72H10.7a2 2 0 0 0-1.54.72L7.26 6h-.77c-1.93 0-3.5 1.57-3.5 3.5v6c0 1.93 1.57 3.5 3.5 3.5h11c1.93 0 3.5-1.57 3.5-3.5v-6c0-1.93-1.57-3.5-3.5-3.5Zm2.5 9.5a2.5 2.5 0 0 1-2.5 2.5h-11A2.5 2.5 0 0 1 4 15.5v-6A2.5 2.5 0 0 1 6.5 7h1c.15 0 .29-.07.38-.18l2.05-2.46c.19-.23.47-.36.77-.36h2.59c.3 0 .58.13.77.36l2.05 2.46c.1.11.24.18.38.18h1a2.5 2.5 0 0 1 2.5 2.5v6Z"/><path d="M15.42 12.89c-.25-.11-.55 0-.66.26-.15.36-.37.68-.65.96s-.6.5-.96.65c-.74.32-1.56.32-2.3 0-.36-.15-.68-.37-.96-.65l.68-.68a.25.25 0 0 0-.18-.43H8.24c-.14 0-.25.11-.25.25v2.15c0 .22.27.33.43.18l.76-.76c.37.37.8.66 1.27.86a3.9 3.9 0 0 0 3.1 0c.47-.21.9-.5 1.27-.86s.66-.8.86-1.27c.11-.25 0-.55-.26-.66M15.57 8.43l-.76.76c-.37-.37-.8-.66-1.27-.86-.99-.43-2.1-.43-3.09 0-.47.21-.9.5-1.27.86s-.66.8-.86 1.27a.498.498 0 0 0 .46.7.5.5 0 0 0 .46-.3c.15-.36.37-.68.65-.96s.6-.5.96-.65c.74-.32 1.56-.32 2.3 0 .36.15.68.37.96.65l-.68.68a.25.25 0 0 0 .18.43h2.15c.14 0 .25-.11.25-.25V8.61c0-.22-.27-.33-.43-.18Z"/></svg>