<svg xmlns="http://www.w3.org/2000/svg" viewBox="0 0 24 24" width="24" height="24"><path d="m19,9.89c-.06-3.34-2.92-6.89-7.5-6.89-4.22,0-8.5,2.58-8.5,7.5,0,2.05.72,3.86,2.13,5.4.56.61.87,1.36.87,2.09v2.5c0,.28.22.5.5.5s.5-.22.5-.5v-2.5c0-.99-.4-1.98-1.14-2.77-1.24-1.35-1.86-2.94-1.86-4.73,0-4.47,3.89-6.5,7.5-6.5,4.48,0,6.5,3.51,6.5,6,0,.07.01.14.04.2l1.38,3.09c.07.16.06.33-.04.48-.09.14-.25.23-.42.23h-.46c-.83,0-1.5.67-1.5,1.5v2c0,.28-.22.5-.5.5h-2c-.83,0-1.5.67-1.5,1.5v1c0,.28.22.5.5.5s.5-.22.5-.5v-1c0-.28.22-.5.5-.5h2c.83,0,1.5-.67,1.5-1.5v-2c0-.28.22-.5.5-.5h.46c.51,0,.98-.25,1.26-.68.28-.43.32-.96.11-1.43l-1.33-3Z"/><path d="m11.93,10.5c-.28,0-.5.22-.5.5s.22.5.5.5c1.24,0,2.25-1.01,2.25-2.25s-1.01-2.25-2.25-2.25c-1.07,0-2.07.42-2.83,1.17s-1.17,1.76-1.17,2.83.42,2.07,1.17,2.83,1.76,1.17,2.83,1.17,2.07-.42,2.83-1.17c.2-.19.2-.51,0-.71s-.51-.2-.71,0c-1.13,1.13-3.11,1.13-4.24,0-.57-.57-.88-1.32-.88-2.12s.31-1.55.88-2.12,1.32-.88,2.12-.88c.69,0,1.25.56,1.25,1.25s-.56,1.25-1.25,1.25Z"/></svg>