<svg xmlns="http://www.w3.org/2000/svg" viewBox="0 0 24 24" width="24" height="24"><path d="m6,9c1.65,0,3-1.35,3-3s-1.35-3-3-3-3,1.35-3,3,1.35,3,3,3Zm0-5c1.1,0,2,.9,2,2s-.9,2-2,2-2-.9-2-2,.9-2,2-2Z"/><path d="m20.5,7c.28,0,.5-.22.5-.5s-.22-.5-.5-.5c-2.25,0-3.53-2.68-3.55-2.71-.08-.18-.26-.29-.45-.29h0c-.2,0-.37.12-.45.3-.01.03-1.23,2.7-3.54,2.7-.28,0-.5.22-.5.5s.22.5.5.5c1.61,0,2.77-.94,3.5-1.82v1.2c-.23.45-1.42,2.61-3.5,2.61-.28,0-.5.22-.5.5s.22.5.5.5c1.61,0,2.77-.94,3.5-1.82v3.95c-.18-.08-.38-.13-.58-.13h-7.42v.05c-.34,0-.67.16-.84.47l-3.71,7.01c-.17.31-.16.68.03.98.18.3.5.48.86.48h15.31c.36,0,.68-.19.86-.5.18-.31.18-.68,0-1l-3.52-6.25v-5.1c.74.88,1.91,1.84,3.5,1.84.28,0,.5-.22.5-.5s-.22-.5-.5-.5c-2.02,0-3.26-2.16-3.5-2.62v-1.22c.74.88,1.91,1.84,3.5,1.84ZM4.33,20l-.44-.24.44.23,3.62-7.01,3.71,7.01h-7.34Zm8.47,0l-3.71-7h6.32c.18,0,.35.1.44.25l3.79,6.75h-6.84Z"/></svg>