<svg xmlns="http://www.w3.org/2000/svg" viewBox="0 0 24 24" width="24" height="24"><path d="m20.8,11.45c-.12-.09-.28-.12-.43-.09-.31.08-.56.12-.81.12-1.81,0-3.28-1.47-3.28-3.29,0-.02.01-.1.01-.11,0-.16-.06-.31-.19-.41-.12-.1-.29-.13-.44-.09-.32.08-.58.12-.83.12-1.81,0-3.28-1.47-3.28-3.29,0-.24.03-.49.11-.79.04-.16,0-.32-.11-.45-.11-.12-.27-.19-.43-.17C6.49,3.45,3,7.31,3,11.98c0,4.97,4.04,9.02,9,9.02s9-4.05,9-9.02v-.14c0-.15-.08-.29-.2-.39Zm-8.8,8.55c-4.41,0-8-3.6-8-8.02,0-3.93,2.78-7.21,6.57-7.89,0,.11-.01.21-.01.32,0,2.36,1.92,4.29,4.28,4.29.15,0,.31-.01.47-.03.23,2.14,2.05,3.82,4.25,3.82.14,0,.28,0,.43-.03-.25,4.2-3.73,7.55-7.99,7.55Z"/><path d="M12.5 10A1.5 1.5 0 1 0 12.5 13 1.5 1.5 0 1 0 12.5 10z"/><path d="M15.5 3A1.5 1.5 0 1 0 15.5 6 1.5 1.5 0 1 0 15.5 3z"/><path d="M7.5 11A1.5 1.5 0 1 0 7.5 14 1.5 1.5 0 1 0 7.5 11z"/><path d="M9 8A1 1 0 1 0 9 10 1 1 0 1 0 9 8z"/><path d="M15 14A1 1 0 1 0 15 16 1 1 0 1 0 15 14z"/><path d="M20 6A1 1 0 1 0 20 8 1 1 0 1 0 20 6z"/><path d="M10.5 15A1.5 1.5 0 1 0 10.5 18 1.5 1.5 0 1 0 10.5 15z"/></svg>