<svg xmlns="http://www.w3.org/2000/svg" viewBox="0 0 24 24" width="24" height="24"><path class="b" d="m19.49,16.05c-.23-.15-.54-.07-.69.16-.62,1-1.48,1.88-2.48,2.52-.23.15-.3.46-.15.69.1.15.26.23.42.23.09,0,.19-.03.27-.08,1.12-.72,2.08-1.7,2.78-2.83.15-.23.07-.54-.16-.69Z"/><path class="b" d="m20.18,9.63c-.27.06-.44.33-.38.6.13.58.2,1.17.2,1.77s-.06,1.18-.19,1.76c-.06.27.11.54.38.6.04,0,.07.01.11.01.23,0,.44-.16.49-.39.14-.64.22-1.31.22-1.97s-.07-1.34-.22-2c-.06-.27-.33-.44-.6-.38Z"/><path class="b" d="m16.31,5.26c1,.64,1.85,1.51,2.48,2.51.1.15.26.24.42.24.09,0,.18-.02.26-.08.23-.15.31-.45.16-.69-.7-1.13-1.67-2.11-2.79-2.82-.23-.15-.54-.08-.69.15-.15.23-.08.54.15.69Z"/><path class="b" d="m12,4c.63,0,1.26.07,1.87.22.04,0,.08.01.12.01.23,0,.43-.15.49-.38.06-.27-.1-.54-.37-.6-.69-.16-1.39-.25-2.1-.25C7.04,3,3,7.04,3,12s4.04,9,9,9c.71,0,1.41-.08,2.1-.25.27-.06.43-.33.37-.6-.06-.27-.33-.44-.6-.37-.61.15-1.24.22-1.87.22-4.41,0-8-3.59-8-8S7.59,4,12,4Z"/></svg>