<svg xmlns="http://www.w3.org/2000/svg" width="24" height="24" viewBox="0 0 24 24"><path d="M19.2 11.6c-.17-.04-.38-.17-.41-.4-.39-3.54-3.31-6.21-6.79-6.21-2.69 0-5.02 1.6-6.09 4.17-.06.15-.19.25-.35.31C3.5 10.11 2 12.08 2 14.16c0 2.67 2.12 4.83 4.72 4.83h11.61c2.02 0 3.67-1.68 3.67-3.75 0-1.74-1.15-3.24-2.8-3.65Zm-.86 6.4H6.72C4.67 18 3 16.28 3 14.17c0-1.65 1.2-3.22 2.85-3.74.45-.14.81-.46.98-.88C7.75 7.33 9.68 6 12 6c2.97 0 5.46 2.29 5.8 5.32.07.61.52 1.1 1.16 1.26 1.2.3 2.04 1.4 2.04 2.68 0 1.52-1.2 2.75-2.67 2.75Z"/></svg>