<svg xmlns="http://www.w3.org/2000/svg" viewBox="0 0 24 24" width="24" height="24"><path d="m20.99,4.21c0-.45-.54-.67-.85-.36l-1.14,1.14h-4l-1.14-1.14c-.32-.32-.86-.09-.85.36v.79s0,0,0,0v4c0,.35.06.68.14,1h-7.56c-.87,0-1.58-.76-1.58-1.69s.71-1.69,1.58-1.69c1.18,0,3.42-.65,3.42-3.12,0-.28-.22-.5-.5-.5s-.5.22-.5.5c0,2.05-2.17,2.12-2.42,2.12-1.42,0-2.58,1.21-2.58,2.69,0,1.3.89,2.38,2.06,2.63l1.28,8.5c.14.9.89,1.55,1.84,1.55,1.01,0,1.82-.82,1.82-1.82v-2.18h5v2.18c0,1.01.82,1.82,1.82,1.82.92,0,1.7-.69,1.81-1.61l.86-7.29c.91-.73,1.51-1.85,1.51-3.1v-4h0v-.79Zm-3.35,15.06c-.05.41-.4.73-.82.73-.45,0-.82-.37-.82-.82v-2.68c0-.28-.22-.5-.5-.5h-6c-.28,0-.5.22-.5.5v2.68c0,.45-.37.82-.86.82-.41,0-.75-.29-.81-.7l-1.25-8.3h7.48c.69,1.19,1.97,2,3.44,2,.5,0,.97-.1,1.41-.27l-.77,6.54Zm2.36-10.27c0,1.65-1.35,3-3,3s-3-1.35-3-3v-3h6v3Z"/><path d="M15.62 7.499999999999999A.62.62 0 1 0 15.62 8.739999999999998.62.62 0 1 0 15.62 7.499999999999999z"/><path d="M18.38 7.499999999999999A.62.62 0 1 0 18.38 8.739999999999998.62.62 0 1 0 18.38 7.499999999999999z"/></svg>