<svg xmlns="http://www.w3.org/2000/svg" viewBox="0 0 24 24" width="24" height="24"><path d="m16.5,3H7c-1.1,0-2,.9-2,2v2h-1.5c-.28,0-.5.22-.5.5s.22.5.5.5h1.5v2h-1.5c-.28,0-.5.22-.5.5s.22.5.5.5h1.5v2h-1.5c-.28,0-.5.22-.5.5s.22.5.5.5h1.5v2h-1.5c-.28,0-.5.22-.5.5s.22.5.5.5h1.5v2c0,1.1.9,2,2,2h9.5c1.93,0,3.5-1.57,3.5-3.5V6.5c0-1.93-1.57-3.5-3.5-3.5Zm2.5,14.5c0,1.38-1.12,2.5-2.5,2.5H7c-.55,0-1-.45-1-1V5c0-.55.45-1,1-1h9.5c1.38,0,2.5,1.12,2.5,2.5v11Z"/><path d="M12.5 7A2.5 2.5 0 1 0 12.5 12 2.5 2.5 0 1 0 12.5 7z"/><path d="m14,13h-3c-1.66,0-3,1.34-3,3,0,.55.45,1,1,1h7c.55,0,1-.45,1-1,0-1.66-1.34-3-3-3Z"/></svg>