<svg xmlns="http://www.w3.org/2000/svg" width="24" height="24" viewBox="0 0 24 24"><path d="M15.75 3.27a1.98 1.98 0 0 0-1.77.17L3.24 10.07s-.01.02-.02.02c-.08.06-.14.13-.18.22v.02c-.02.05-.03.11-.03.16v7.5c0 1.1.9 2 2 2h14c1.1 0 2-.9 2-2v-7.5c0-4.7-3.67-6.62-5.25-7.23ZM20 18c0 .55-.45 1-1 1H5c-.55 0-1-.45-1-1v-7h16zM5.26 10l9.24-5.71c.27-.17.59-.2.88-.08 1.33.51 4.34 2.07 4.59 5.79z"/><path d="M6.5 15a1.5 1.5 0 1 0 0 3 1.5 1.5 0 1 0 0-3M11.5 12a1.5 1.5 0 1 0 0 3 1.5 1.5 0 1 0 0-3M17 14a2 2 0 1 0 0 4 2 2 0 1 0 0-4"/></svg>