<svg xmlns="http://www.w3.org/2000/svg" width="24" height="24" viewBox="0 0 24 24"><path d="M18 18c1.1 0 2-.9 2-2V5c0-1.1-.9-2-2-2h-2c-1.1 0-2 .9-2 2v11c0 1.1.9 2 2 2zM16 4h2c.55 0 1 .45 1 1v4h-4V5c0-.55.45-1 1-1m-1 12v-6h4v6c0 .55-.45 1-1 1h-2c-.55 0-1-.45-1-1M10 18c1.1 0 2-.9 2-2V8c0-1.1-.9-2-2-2H8c-1.1 0-2 .9-2 2v8c0 1.1.9 2 2 2zM8 7h2c.55 0 1 .45 1 1v4H7V8c0-.55.45-1 1-1m-1 9v-3h4v3c0 .55-.45 1-1 1H8c-.55 0-1-.45-1-1"/><path d="M20.5 20H5c-.55 0-1-.45-1-1V3.5c0-.28-.22-.5-.5-.5s-.5.22-.5.5V19c0 1.1.9 2 2 2h15.5c.28 0 .5-.22.5-.5s-.22-.5-.5-.5"/></svg>