<svg xmlns="http://www.w3.org/2000/svg" width="24" height="24" viewBox="0 0 24 24"><path d="M9.5 6H9V3.5c0-.28-.22-.5-.5-.5s-.5.22-.5.5V6h-.5C6.67 6 6 6.67 6 7.5v9c0 .83.67 1.5 1.5 1.5H8v2.5c0 .28.22.5.5.5s.5-.22.5-.5V18h.5c.83 0 1.5-.67 1.5-1.5v-9c0-.83-.67-1.5-1.5-1.5m.5 10.5c0 .28-.22.5-.5.5h-2c-.28 0-.5-.22-.5-.5v-9c0-.28.22-.5.5-.5h2c.28 0 .5.22.5.5zM16.5 8H16V5.5c0-.28-.22-.5-.5-.5s-.5.22-.5.5V8h-.5c-.83 0-1.5.67-1.5 1.5v5c0 .83.67 1.5 1.5 1.5h.5v2.5c0 .28.22.5.5.5s.5-.22.5-.5V16h.5c.83 0 1.5-.67 1.5-1.5v-5c0-.83-.67-1.5-1.5-1.5m.5 6.5c0 .28-.22.5-.5.5h-2c-.28 0-.5-.22-.5-.5v-5c0-.28.22-.5.5-.5h2c.28 0 .5.22.5.5z"/></svg>