<svg xmlns="http://www.w3.org/2000/svg" viewBox="0 0 24 24" width="24" height="24"><path d="m4,12.02c0-.28-.22-.5-.5-.5h0c-.28,0-.5.23-.5.5,0,1.37.31,2.68.9,3.9.09.18.26.28.45.28.07,0,.15-.02.22-.05.25-.12.35-.42.23-.67-.53-1.08-.8-2.25-.8-3.47Z"/><path d="m10.23,19.8c-1.16-.26-2.27-.79-3.21-1.54-.22-.17-.53-.14-.7.08-.17.22-.14.53.08.7,1.05.84,2.3,1.44,3.61,1.73.04,0,.07.01.11.01.23,0,.43-.16.49-.39.06-.27-.11-.54-.38-.6Z"/><path d="m16.99,18.25c-.93.75-2.04,1.28-3.2,1.55-.27.06-.44.33-.38.6.05.23.26.39.49.39.04,0,.07,0,.11-.01,1.31-.3,2.55-.9,3.6-1.74.22-.17.25-.49.08-.7-.17-.21-.49-.25-.7-.08Z"/><path d="m20.5,11.47c-.28,0-.5.25-.5.53,0,1.21-.27,2.38-.79,3.47-.12.25-.02.55.23.67.07.03.14.05.22.05.19,0,.36-.1.45-.28.59-1.22.89-2.54.89-3.9v-.05c0-.28-.22-.48-.5-.48Z"/><path d="m4.11,8.79c.07.03.14.05.22.05.19,0,.37-.1.45-.28.51-1.08,1.28-2.04,2.21-2.79.21-.17.25-.49.08-.7s-.49-.25-.7-.08c-1.05.84-1.91,1.93-2.49,3.14-.12.25-.01.55.24.67Z"/><path d="m10.07,4.22s.08,0,.11-.01c1.16-.27,2.39-.27,3.56-.02.27.06.54-.11.6-.38.06-.27-.11-.54-.38-.6-1.31-.29-2.7-.29-4,.02-.27.06-.44.33-.37.6.05.23.26.39.49.39Z"/><path d="m19.19,8.49c.09.18.26.28.45.28.07,0,.15-.02.22-.05.25-.12.35-.42.23-.67-.59-1.2-1.46-2.28-2.51-3.12-.22-.17-.53-.13-.7.08-.17.22-.13.53.08.7.94.74,1.71,1.7,2.23,2.77Z"/><path d="m12,6c-3.31,0-6,2.69-6,6s2.69,6,6,6,6-2.69,6-6-2.69-6-6-6Zm0,11c-2.76,0-5-2.24-5-5s2.24-5,5-5,5,2.24,5,5-2.24,5-5,5Z"/></svg>