<svg xmlns="http://www.w3.org/2000/svg" viewBox="0 0 24 24" width="24" height="24"><path d="m18.5,7h-4.5v-2.5c0-.83-.67-1.5-1.5-1.5h-1c-.83,0-1.5.67-1.5,1.5v2.5h-4.5c-.83,0-1.5.67-1.5,1.5v1c0,.83.67,1.5,1.5,1.5h4.5v8.5c0,.83.67,1.5,1.5,1.5h1c.83,0,1.5-.67,1.5-1.5v-8.5h4.5c.83,0,1.5-.67,1.5-1.5v-1c0-.83-.67-1.5-1.5-1.5Zm.5,2.5c0,.28-.22.5-.5.5h-5c-.28,0-.5.22-.5.5v9c0,.28-.22.5-.5.5h-1c-.28,0-.5-.22-.5-.5v-9c0-.28-.22-.5-.5-.5h-5c-.28,0-.5-.22-.5-.5v-1c0-.28.22-.5.5-.5h5c.28,0,.5-.22.5-.5v-3c0-.28.22-.5.5-.5h1c.28,0,.5.22.5.5v3c0,.28.22.5.5.5h5c.28,0,.5.22.5.5v1Z"/></svg>