<svg xmlns="http://www.w3.org/2000/svg" viewBox="0 0 24 24" width="24" height="24"><path d="m19,14c-.09.07-2,2.08-2,3.5,0,1.49.95,2.45,2,2.5.91.04,2-.89,2-2.5,0-1.5-1.91-3.43-2-3.5Z"/><path d="m5.24,13c0,.94.36,1.81,1.02,2.47l2.26,2.26c.68.68,1.58,1.02,2.47,1.02s1.79-.34,2.47-1.02l4.38-4.38c.2-.2.2-.51,0-.71l-6.5-6.5-2-2c-.2-.2-.51-.2-.71,0s-.2.51,0,.71l1.65,1.65-4.03,4.03c-.66.66-1.02,1.54-1.02,2.47Zm5.76-5.79l5.79,5.79-4.03,4.03c-.97.97-2.56.97-3.54,0l-2.26-2.26c-.47-.47-.73-1.1-.73-1.77s.26-1.3.73-1.77l4.03-4.03Z"/></svg>