<svg xmlns="http://www.w3.org/2000/svg" viewBox="0 0 24 24" width="24" height="24"><path d="m21.45,14.41l-3.45-1.72v-.66c0-.35-.19-.68-.49-.86l-5.01-2.96v-2.21h2c.28,0,.5-.22.5-.5s-.22-.5-.5-.5h-2v-1.5c0-.28-.22-.5-.5-.5s-.5.22-.5.5v1.5h-2c-.28,0-.5.22-.5.5s.22.5.5.5h2v2.21l-5.01,2.96c-.3.18-.49.51-.49.86v.66l-3.45,1.72c-.34.17-.55.51-.55.89v4.69c0,.55.45,1,1,1h18c.55,0,1-.45,1-1v-4.69c0-.38-.21-.72-.55-.89Zm-18.45.89l3-1.5v6.19h-3v-4.69Zm9,.69c-1.1,0-2,.9-2,2v2h-3v-7.96l5-2.95,5,2.95v7.96h-3v-2c0-1.1-.9-2-2-2Zm9,4h-3v-6.19l3,1.5v4.69Z"/><path d="M12 12A1.5 1.5 0 1 0 12 15 1.5 1.5 0 1 0 12 12z"/></svg>