<svg xmlns="http://www.w3.org/2000/svg" viewBox="0 0 24 24" width="24" height="24"><path d="m20,8v-1.5c0-1.38-1.12-2.5-2.5-2.5H6.5c-1.38,0-2.5,1.12-2.5,2.5v1.5c-1.1,0-2,.9-2,2v4.5c0,1.38,1.12,2.5,2.5,2.5h.5v2.5c0,.28.22.5.5.5s.5-.22.5-.5v-2.5h12v2.5c0,.28.22.5.5.5s.5-.22.5-.5v-2.5h.5c1.38,0,2.5-1.12,2.5-2.5v-4.5c0-1.1-.9-2-2-2Zm-.5.07s-.04.01-.07.02c.02,0,.04-.01.07-.02Zm-14.5-1.57c0-.83.67-1.5,1.5-1.5h11c.83,0,1.5.67,1.5,1.5v1.78s0,0,0,0c-.6.35-1,.99-1,1.72v2H6v-2c0-.74-.41-1.37-1-1.72,0,0,0,0,0,0v-1.78Zm-.43,1.59s-.04-.02-.07-.02c.02,0,.04.01.07.02Zm16.43,6.41c0,.83-.67,1.5-1.5,1.5H4.5c-.83,0-1.5-.67-1.5-1.5v-4.5c0-.55.45-1,1-1s1,.45,1,1v2.5c0,.28.22.5.5.5h13c.28,0,.5-.22.5-.5v-2.5c0-.55.45-1,1-1s1,.45,1,1v4.5Z"/></svg>