<svg xmlns="http://www.w3.org/2000/svg" viewBox="0 0 24 24" width="24" height="24"><path class="b" d="m18.94,6.63l-6-3.2c-.59-.31-1.29-.31-1.88,0l-6,3.2c-.65.35-1.06,1.03-1.06,1.77v7.2c0,.74.41,1.42,1.06,1.77l6,3.2c.29.16.62.24.94.24s.65-.08.94-.24l6-3.2c.65-.35,1.06-1.03,1.06-1.77v-7.2c0-.74-.41-1.42-1.06-1.77Zm.06,1.77v7.2s0,.01,0,.02l-6.03-3.62,6.03-3.62s0,.01,0,.02Zm-14,7.22s0-.01,0-.02v-7.2s0-.01,0-.02l6.03,3.62-6.03,3.62Zm13.47-8.1s0,0,.01,0l-5.98,3.59v-6.78l5.97,3.18Zm-6.97-3.18v6.78l-5.98-3.59s0,0,.01,0l5.97-3.18Zm-5.97,12.15s0,0-.01,0l5.98-3.59v6.78l-5.97-3.18Zm6.97,3.18v-6.78l5.98,3.59s0,0-.01,0l-5.97,3.18Z"/></svg>