<svg xmlns="http://www.w3.org/2000/svg" width="24" height="24" viewBox="0 0 24 24"><path d="M16.92 4.04C16.73 3.44 16.17 3 15.5 3h-7c-.67 0-1.23.44-1.42 1.04C5.35 4.25 4 5.71 4 7.5v10C4 19.43 5.57 21 7.5 21h9c1.93 0 3.5-1.57 3.5-3.5v-10c0-1.79-1.35-3.25-3.08-3.46M19 17.5a2.5 2.5 0 0 1-2.5 2.5h-9A2.5 2.5 0 0 1 5 17.5v-10a2.5 2.5 0 0 1 2-2.45v1.2c0 .41.34.75.75.75h8.5c.41 0 .75-.34.75-.75v-1.2a2.5 2.5 0 0 1 2 2.45z"/><path d="M15.15 10.65 11 14.8l-2.15-2.15c-.2-.2-.51-.2-.71 0s-.2.51 0 .71l2.5 2.5a.485.485 0 0 0 .7 0l4.5-4.5c.2-.2.2-.51 0-.71s-.51-.2-.71 0Z"/></svg>