<svg xmlns="http://www.w3.org/2000/svg" viewBox="0 0 24 24" width="24" height="24"><path d="m12,7c-3.86,0-7,3.14-7,7s3.14,7,7,7,7-3.14,7-7c0-3.37-2.39-6.18-5.56-6.85,1.14-1.88,3.2-3.15,5.56-3.15.28,0,.5-.22.5-.5s-.22-.5-.5-.5c-1.4,0-2.71.39-3.83,1.06-.67-.44-1.87-1.06-3.42-1.06s-2.81.65-3.47,1.09c-.29.19-.29.62,0,.82.66.44,1.89,1.09,3.47,1.09.51,0,.97-.08,1.4-.18-.3.37-.56.77-.79,1.2-.12,0-.24-.02-.36-.02Zm6,7c0,3.31-2.69,6-6,6s-6-2.69-6-6,2.66-5.96,5.94-6c-.28.78-.44,1.62-.44,2.5v.43c-.7-.18-1.07-.69-1.09-.71-.15-.23-.46-.29-.69-.14-.23.15-.29.46-.14.69.03.05.83,1.22,2.42,1.22s2.38-1.17,2.42-1.22c.15-.23.09-.54-.14-.69-.23-.15-.54-.09-.69.14,0,0-.37.53-1.08.71v-.43c0-.85.17-1.67.47-2.41,2.85.47,5.03,2.94,5.03,5.91Z"/></svg>