<svg xmlns="http://www.w3.org/2000/svg" width="24" height="24" viewBox="0 0 24 24"><path d="m11.03 15.66-.65.65-.65.65c-.07.07-.11.17-.11.27s.04.19.11.27c.04.04.08.06.12.08s.09.03.14.03.1 0 .14-.03.09-.05.12-.08l.65-.65.65-.65c.07-.07.11-.17.11-.27s-.04-.19-.11-.27-.17-.11-.27-.11-.19.04-.27.11ZM16.95 9.73l-.65.65-.65.65c-.07.07-.11.17-.11.27s.04.19.11.27c.04.04.08.06.12.08s.09.03.14.03.1 0 .14-.03.09-.05.12-.08l.65-.65.65-.65c.07-.07.11-.17.11-.27s-.04-.19-.11-.27-.17-.11-.27-.11-.19.04-.27.11ZM13.99 12.69l-.65.65-.65.65c-.07.07-.11.17-.11.27s.04.19.11.27c.04.04.08.06.12.08s.09.03.14.03.1 0 .14-.03.09-.05.12-.08l.65-.65.65-.65c.07-.07.11-.17.11-.27s-.04-.19-.11-.27-.17-.11-.27-.11-.19.04-.27.11Z"/><path d="M19.77 7.45h-.02a9.1 9.1 0 0 0-3.19-3.19v-.02c-.02-.02-.05-.02-.07-.03A8.96 8.96 0 0 0 12.01 3C7.04 3 3 7.04 3 12c0 1.63.44 3.16 1.21 4.48.01.02 0 .05.03.07h.02a9.1 9.1 0 0 0 3.19 3.19v.02c.02.02.05.02.07.03C8.84 20.55 10.37 21 12 21c4.96 0 9-4.04 9-9 0-1.63-.44-3.16-1.21-4.48-.01-.02 0-.05-.03-.07Zm-14.59 8.7.21-.21c.15-.15.15-.38 0-.53s-.38-.15-.53 0l-.06.06c-.51-1.05-.8-2.22-.8-3.46 0-4.41 3.59-8 8-8 1.24 0 2.41.29 3.46.8l-.06.06c-.15.15-.15.38 0 .53.07.07.17.11.27.11s.19-.04.27-.11l.21-.21c.4.25.79.53 1.14.84L6.02 17.3q-.465-.525-.84-1.14ZM12.01 20c-1.24 0-2.41-.29-3.46-.8l.06-.06c.15-.15.15-.38 0-.53s-.38-.15-.53 0l-.21.21c-.4-.25-.79-.53-1.14-.84L18 6.71q.465.525.84 1.14l-.21.21c-.15.15-.15.38 0 .53.07.07.17.11.27.11s.19-.04.27-.11l.06-.06c.51 1.05.8 2.22.8 3.46 0 4.41-3.59 8-8 8Z"/><path d="M9.75 11.42s.1 0 .14-.03.09-.05.12-.08l.65-.65.65-.65c.07-.07.11-.17.11-.27s-.04-.19-.11-.27-.17-.11-.27-.11-.19.04-.27.11l-.65.65-.65.65c-.07.07-.11.17-.11.27s.04.19.11.27c.04.04.08.06.12.08s.09.03.14.03ZM12.71 8.45s.1 0 .14-.03.09-.05.12-.08l.65-.65.65-.65c.07-.07.11-.17.11-.27s-.04-.19-.11-.27c-.07-.07-.17-.11-.26-.11s-.19.04-.27.11l-.65.65-.65.65c-.07.07-.11.17-.11.27s.04.19.11.27c.04.04.08.06.12.08s.09.03.14.03ZM6.78 14.38s.1 0 .14-.03.09-.05.12-.08l.65-.65.65-.65c.07-.07.11-.17.11-.27s-.04-.19-.11-.27-.17-.11-.27-.11-.19.04-.27.11l-.65.65-.65.65c-.07.07-.11.17-.11.27s.04.19.11.27c.04.04.08.06.12.08s.09.03.14.03Z"/></svg>