<svg xmlns="http://www.w3.org/2000/svg" viewBox="0 0 24 24" width="24" height="24"><path d="m16.5,4H7.5c-1.93,0-3.5,1.57-3.5,3.5v9c0,1.93,1.57,3.5,3.5,3.5h9c1.93,0,3.5-1.57,3.5-3.5V7.5c0-1.93-1.57-3.5-3.5-3.5Zm2.5,12h-7.2c-.33,0-.65-.17-.83-.45l-1.37-2.05c.24-.27.4-.62.4-1.01,0-.83-.67-1.5-1.5-1.5s-1.5.67-1.5,1.5.67,1.5,1.5,1.5c.07,0,.15-.01.22-.02l1.42,2.13c.37.56.99.89,1.66.89h7.15c-.23,1.14-1.24,2-2.45,2H7.5c-1.38,0-2.5-1.12-2.5-2.5v-8.5h7.2c.33,0,.65.17.83.45l1.37,2.05c-.24.27-.4.62-.4,1.01,0,.83.67,1.5,1.5,1.5s1.5-.67,1.5-1.5-.67-1.5-1.5-1.5c-.07,0-.15.01-.22.02l-1.42-2.13c-.37-.56-.99-.89-1.66-.89h-7.15c.23-1.14,1.24-2,2.45-2h9c1.38,0,2.5,1.12,2.5,2.5v8.5Z"/></svg>