<svg xmlns="http://www.w3.org/2000/svg" width="24" height="24" viewBox="0 0 24 24"><path d="M17.5 6h-.77l-1.9-2.28c-.38-.46-.94-.72-1.54-.72H10.7a2 2 0 0 0-1.54.72L7.26 6h-.77c-1.93 0-3.5 1.57-3.5 3.5v6c0 1.93 1.57 3.5 3.5 3.5h11c1.93 0 3.5-1.57 3.5-3.5v-6c0-1.93-1.57-3.5-3.5-3.5Zm2.5 9.5a2.5 2.5 0 0 1-2.5 2.5h-11A2.5 2.5 0 0 1 4 15.5v-6A2.5 2.5 0 0 1 6.5 7h1c.15 0 .29-.07.38-.18l2.05-2.46c.19-.23.47-.36.77-.36h2.59c.3 0 .58.13.77.36l2.05 2.46c.1.11.24.18.38.18h1a2.5 2.5 0 0 1 2.5 2.5v6Z"/><path d="M15.43 9.43a.25.25 0 0 0-.43.18v1.9H9v-1.9c0-.22-.27-.33-.43-.18l-2.4 2.4c-.1.1-.1.26 0 .35l2.4 2.4c.16.16.43.05.43-.18v-1.9h6v1.9c0 .22.27.33.43.18l2.4-2.4c.1-.1.1-.26 0-.35z"/></svg>