<svg xmlns="http://www.w3.org/2000/svg" viewBox="0 0 24 24" width="24" height="24"><path class="b" d="m12,9c-2.17,0-4,1.83-4,4s1.83,4,4,4,4-1.83,4-4-1.83-4-4-4Zm0,7c-1.63,0-3-1.37-3-3s1.37-3,3-3,3,1.37,3,3-1.37,3-3,3Z"/><path class="b" d="m17.5,6h-1.29l-1.41-1.41c-.37-.37-.89-.59-1.41-.59h-2.76c-.53,0-1.04.21-1.41.59l-1.41,1.41h-1.29c-1.93,0-3.5,1.57-3.5,3.5v7c0,1.93,1.57,3.5,3.5,3.5h11c1.93,0,3.5-1.57,3.5-3.5v-7c0-1.93-1.57-3.5-3.5-3.5Zm2.5,10.5c0,1.38-1.12,2.5-2.5,2.5H6.5c-1.38,0-2.5-1.12-2.5-2.5v-7c0-1.38,1.12-2.5,2.5-2.5h1.71l1.71-1.71c.19-.19.44-.29.71-.29h2.76c.26,0,.52.11.71.29l1.71,1.71h1.71c1.38,0,2.5,1.12,2.5,2.5v7Z"/><path class="b" d="M18 8A1 1 0 1 0 18 10 1 1 0 1 0 18 8z"/></svg>