<svg xmlns="http://www.w3.org/2000/svg" width="24" height="24" viewBox="0 0 24 24"><path d="M21.25 6.57a.49.49 0 0 0-.68.19L18.9 9.67c-.46.81-1.25 1.32-2.18 1.41s-1.8-.27-2.4-.97a3.79 3.79 0 0 0-3.18-1.32c-1.22.09-2.3.74-2.95 1.78l-2.61 4.17c-.15.23-.08.54.16.69a.482.482 0 0 0 .68-.15l2.61-4.17a2.79 2.79 0 0 1 2.18-1.32c.91-.07 1.76.29 2.35.98.82.96 2 1.43 3.26 1.32 1.25-.12 2.33-.81 2.95-1.91l1.67-2.91c.14-.24.05-.55-.19-.68Z"/><path d="M20.5 20H5c-.55 0-1-.45-1-1V3.5c0-.28-.22-.5-.5-.5s-.5.22-.5.5V19c0 1.1.9 2 2 2h15.5c.28 0 .5-.22.5-.5s-.22-.5-.5-.5"/></svg>