<svg xmlns="http://www.w3.org/2000/svg" width="24" height="24" viewBox="0 0 24 24"><path d="M18.5 3h-7A2.5 2.5 0 0 0 9 5.5v7a2.5 2.5 0 0 0 2.5 2.5h7a2.5 2.5 0 0 0 2.5-2.5v-7A2.5 2.5 0 0 0 18.5 3m1.5 9.5c0 .83-.67 1.5-1.5 1.5h-7c-.83 0-1.5-.67-1.5-1.5v-7c0-.83.67-1.5 1.5-1.5h7c.83 0 1.5.67 1.5 1.5z"/><path d="M14.5 17c-.28 0-.5.22-.5.5v1c0 .83-.67 1.5-1.5 1.5h-7c-.83 0-1.5-.67-1.5-1.5v-7c0-.83.67-1.5 1.5-1.5h1c.28 0 .5-.22.5-.5S6.78 9 6.5 9h-1A2.5 2.5 0 0 0 3 11.5v7A2.5 2.5 0 0 0 5.5 21h7a2.5 2.5 0 0 0 2.5-2.5v-1c0-.28-.22-.5-.5-.5M17.15 7.15 14 10.3l-1.15-1.15c-.2-.2-.51-.2-.71 0s-.2.51 0 .71l1.5 1.5a.485.485 0 0 0 .7 0l3.5-3.5c.2-.2.2-.51 0-.71s-.51-.2-.71 0Z"/></svg>