<svg xmlns="http://www.w3.org/2000/svg" width="24" height="24" viewBox="0 0 24 24"><path d="M21.61 9.95c.13-.3.23-.62.29-.94.07-.33.1-.67.1-1.01s-.03-.68-.1-1.01c-.07-.32-.16-.64-.29-.94a5 5 0 0 0-1.81-2.2 5 5 0 0 0-1.79-.75c-.66-.13-1.36-.13-2.01 0-.32.07-.64.16-.94.29a5 5 0 0 0-2.2 1.81c-.18.27-.34.56-.46.85-.01.03-.02.07-.03.11-.44-.1-.9-.16-1.36-.16-3.45 0-6.28 2.7-6.48 6.15a3.486 3.486 0 0 0-2.52 3.35c0 1.93 1.57 3.5 3.5 3.5h11.75c2.62 0 4.75-2.13 4.75-4.75 0-1.18-.45-2.25-1.16-3.08.1-.13.22-.24.31-.38.18-.27.34-.56.46-.85ZM17.25 18H5.5A2.5 2.5 0 0 1 3 15.5a2.5 2.5 0 0 1 2.08-2.46c.24-.04.42-.3.42-.54C5.5 9.47 7.97 7 11 7c2.17 0 4.15 1.29 5.03 3.28.09.21.32.33.55.29.26-.05.47-.07.67-.07 2.07 0 3.75 1.68 3.75 3.75S19.32 18 17.25 18m3.67-9.19a3.8 3.8 0 0 1-.6 1.43c-.06.09-.14.16-.2.25-.8-.61-1.78-.98-2.86-.98-.15 0-.31 0-.47.03a6.53 6.53 0 0 0-3.46-3.09 3.935 3.935 0 0 1 .86-1.27 3.94 3.94 0 0 1 2.02-1.09c.52-.11 1.09-.11 1.61 0a3.8 3.8 0 0 1 1.43.6c.21.14.41.31.59.49a3.94 3.94 0 0 1 1.09 2.02c.05.26.08.53.08.81s-.03.54-.08.81Z"/></svg>