<svg xmlns="http://www.w3.org/2000/svg" viewBox="0 0 24 24" width="24" height="24"><path d="m16.5,3H7.5c-1.93,0-3.5,1.57-3.5,3.5v11c0,1.93,1.57,3.5,3.5,3.5h9c1.93,0,3.5-1.57,3.5-3.5V6.5c0-1.93-1.57-3.5-3.5-3.5Zm0,17H7.5c-1.38,0-2.5-1.12-2.5-2.5v-5h14v5c0,1.38-1.12,2.5-2.5,2.5Zm2.5-8.5H5v-5c0-1.38,1.12-2.5,2.5-2.5h9c1.38,0,2.5,1.12,2.5,2.5v5Z"/><path d="m14.5,6c-.28,0-.5.22-.5.5v.5h-4v-.5c0-.28-.22-.5-.5-.5s-.5.22-.5.5v1c0,.28.22.5.5.5h5c.28,0,.5-.22.5-.5v-1c0-.28-.22-.5-.5-.5Z"/><path d="m14.5,15c-.28,0-.5.22-.5.5v.5h-4v-.5c0-.28-.22-.5-.5-.5s-.5.22-.5.5v1c0,.28.22.5.5.5h5c.28,0,.5-.22.5-.5v-1c0-.28-.22-.5-.5-.5Z"/></svg>