<svg xmlns="http://www.w3.org/2000/svg" viewBox="0 0 24 24" width="24" height="24"><path d="m19.76,8.43h0c-.28-.71-.78-1.33-1.45-1.73l-4.5-2.7c-1.11-.67-2.49-.67-3.6,0l-4.5,2.7c-.67.4-1.17,1.02-1.45,1.73h0s0,0,0,0c-.16.4-.24.83-.24,1.27v4.6c0,1.22.65,2.37,1.7,3l4.5,2.7c.41.24.85.4,1.3.46v.04h.46s.02,0,.04,0,.02,0,.04,0h.46v-.04c.45-.07.89-.22,1.3-.46l4.5-2.7c1.05-.63,1.7-1.78,1.7-3v-4.6c0-.44-.09-.87-.24-1.27h0Zm-13.54-.87l4.5-2.7c.4-.24.84-.36,1.29-.36s.89.12,1.29.36l4.5,2.7c.23.14.43.33.6.53l-3,1.8c-.71-1.13-1.95-1.89-3.38-1.89s-2.67.76-3.38,1.89l-3-1.8c.17-.2.37-.39.6-.53Zm5.79,7.45c-1.65,0-3-1.35-3-3s1.35-3,3-3,3,1.35,3,3-1.35,3-3,3Zm-1.29,4.15l-4.5-2.7c-.75-.45-1.21-1.27-1.21-2.14v-4.6c0-.26.05-.5.13-.74l3.08,1.85c-.12.38-.2.78-.2,1.2,0,2.03,1.53,3.7,3.5,3.95v3.49c-.27-.06-.54-.14-.79-.29Zm8.29-9.45v4.6c0,.87-.47,1.69-1.21,2.14l-4.5,2.7c-.25.15-.51.23-.79.29v-3.49c1.97-.25,3.5-1.92,3.5-3.95,0-.42-.08-.82-.2-1.2l3.08-1.85c.08.24.13.49.13.74Z"/></svg>