<svg xmlns="http://www.w3.org/2000/svg" viewBox="0 0 24 24" width="24" height="24"><path d="m13.5,13c.28,0,.5-.22.5-.5v-2.5h2.5c.28,0,.5-.22.5-.5s-.22-.5-.5-.5h-2.5v-2.5c0-.28-.22-.5-.5-.5s-.5.22-.5.5v2.5h-2.5c-.28,0-.5.22-.5.5s.22.5.5.5h2.5v2.5c0,.28.22.5.5.5Z"/><path d="M10.5 18A1.5 1.5 0 1 0 10.5 21 1.5 1.5 0 1 0 10.5 18z"/><path d="M16.5 18A1.5 1.5 0 1 0 16.5 21 1.5 1.5 0 1 0 16.5 18z"/><path d="m20.68,7.03c-.26-.1-.55.03-.64.29l-2.27,6.05c-.36.97-1.3,1.62-2.34,1.62h-3.84c-1.04,0-1.98-.65-2.34-1.62l-3.4-9.08c-.29-.78-1.04-1.3-1.87-1.3h-.46c-.28,0-.5.22-.5.5s.22.5.5.5h.46c.41,0,.79.26.94.65l3.4,9.08c.51,1.36,1.83,2.27,3.28,2.27h3.84c1.45,0,2.77-.91,3.28-2.27l2.27-6.05c.1-.26-.03-.55-.29-.64Z"/></svg>