<svg xmlns="http://www.w3.org/2000/svg" viewBox="0 0 24 24" width="24" height="24"><path d="m20.5,6h-1.79l1.65-1.65c.2-.2.2-.51,0-.71s-.51-.2-.71,0l-1.65,1.65v-1.79c0-.28-.22-.5-.5-.5s-.5.22-.5.5v1.99c-.54-.31-1.15-.49-1.78-.49-2.19,0-4.2,1.09-5.39,2.93l-6.03,9.31c-.54.84-.43,1.97.28,2.68.41.41.96.62,1.52.62.4,0,.81-.11,1.16-.34l9.31-6.03c1.83-1.19,2.93-3.2,2.93-5.39,0-.64-.18-1.24-.49-1.78h1.99c.28,0,.5-.22.5-.5s-.22-.5-.5-.5Zm-4.68,7.11l-2.47-2.47c-.2-.2-.51-.2-.71,0s-.2.51,0,.71l2.33,2.33-2.18,1.41-1.45-1.45c-.2-.2-.51-.2-.71,0s-.2.51,0,.71l1.3,1.3-5.73,3.71c-.45.29-1.05.23-1.43-.15s-.44-.98-.15-1.43l6.03-9.31c1-1.55,2.7-2.47,4.55-2.47.68,0,1.35.28,1.83.76l.19.19c.49.49.76,1.14.76,1.83,0,1.72-.81,3.31-2.18,4.33Z"/></svg>