<svg xmlns="http://www.w3.org/2000/svg" width="24" height="24" viewBox="0 0 24 24"><path d="M6 21h12c1.1 0 2-.9 2-2s-.9-2-2-2h-.72l-.07-.11c-.95-1.55-2.29-4.68-2.74-5.75a3.98 3.98 0 0 0 1.45-3.96c-.3-1.5-1.5-2.73-2.98-3.07a4.04 4.04 0 0 0-3.43.76C8.55 5.63 8 6.77 8 8s.57 2.38 1.53 3.14c-.45 1.07-1.79 4.2-2.74 5.75l-.07.11H6c-1.1 0-2 .9-2 2s.9 2 2 2m0-3h1c.17 0 .34-.09.43-.24l.22-.35c1.19-1.95 2.9-6.08 2.97-6.26.09-.23 0-.48-.2-.61a2.996 2.996 0 0 1-.29-4.89c.72-.58 1.66-.78 2.58-.57 1.1.25 2 1.17 2.22 2.29a3 3 0 0 1-1.35 3.16c-.21.13-.29.39-.2.61.07.17 1.78 4.31 2.97 6.26l.22.35c.09.15.25.24.43.24h1c.55 0 1 .45 1 1s-.45 1-1 1H6c-.55 0-1-.45-1-1s.45-1 1-1Z"/></svg>