<svg xmlns="http://www.w3.org/2000/svg" width="24" height="24" viewBox="0 0 24 24"><path d="M20.24 10.59s.05-.04.07-.06c.23-.23.43-.48.61-.74.18-.27.34-.55.46-.85.13-.3.23-.62.29-.94.02-.12.03-.24.04-.37v-.14a.45.45 0 0 0-.13-.4.48.48 0 0 0-.4-.14l-.16.02c-.08.01-.16.02-.24.02-2.21 0-4-1.79-4-4 0-.08.01-.16.02-.24l.02-.16c.02-.15-.04-.3-.14-.41a.48.48 0 0 0-.4-.14h-.14c-.12.02-.25.03-.36.05-.32.07-.63.16-.94.29-.3.13-.58.28-.85.46s-.52.39-.74.61c-.23.23-.43.48-.61.74-.18.27-.34.55-.46.85-.13.3-.23.62-.29.94v.07c-.29-.04-.57-.06-.87-.06-3.45 0-6.27 2.7-6.48 6.15a3.486 3.486 0 0 0-2.52 3.35c0 1.93 1.57 3.5 3.5 3.5h11.75c2.62 0 4.75-2.13 4.75-4.75 0-1.48-.69-2.79-1.76-3.66Zm-7.39-4.4a3.8 3.8 0 0 1 .6-1.43c.14-.21.31-.41.49-.59s.38-.34.59-.49a4 4 0 0 1 1.24-.56c.07 2.66 2.22 4.81 4.87 4.87-.05.19-.11.38-.19.56a3.935 3.935 0 0 1-.86 1.27c-.07.07-.16.13-.23.19a4.7 4.7 0 0 0-2.12-.52c-.15 0-.31 0-.47.03a6.47 6.47 0 0 0-3.93-3.25v-.08ZM17.25 18H5.5A2.5 2.5 0 0 1 3 15.5a2.5 2.5 0 0 1 2.09-2.46c.24-.04.41-.3.41-.54C5.5 9.47 7.97 7 11 7c2.17 0 4.15 1.29 5.03 3.28.09.21.32.33.55.29.26-.05.48-.07.67-.07 2.07 0 3.75 1.68 3.75 3.75S19.32 18 17.25 18"/></svg>