<svg xmlns="http://www.w3.org/2000/svg" width="24" height="24" viewBox="0 0 24 24"><path d="M19 17h-1.56l-.88-7.08A2 2 0 0 0 18 8V5c0-1.1-.9-2-2-2H8c-1.1 0-2 .9-2 2v3a2 2 0 0 0 1.44 1.92L6.56 17H5c-1.1 0-2 .9-2 2s.9 2 2 2h14c1.1 0 2-.9 2-2s-.9-2-2-2m0 3H5c-.55 0-1-.45-1-1s.45-1 1-1h2c.25 0 .46-.19.5-.44l1-8A.497.497 0 0 0 8 9c-.55 0-1-.45-1-1V5c0-.55.45-1 1-1h1v1c0 .55.45 1 1 1s1-.45 1-1V4h2v1c0 .55.45 1 1 1s1-.45 1-1V4h1c.55 0 1 .45 1 1v3c0 .55-.45 1-1 1-.14 0-.28.06-.38.17-.09.11-.14.25-.12.39l1 8c.03.25.24.44.5.44h2c.55 0 1 .45 1 1s-.45 1-1 1"/></svg>