<svg xmlns="http://www.w3.org/2000/svg" viewBox="0 0 24 24" width="24" height="24"><path d="m16.5,5h-.5v-1.5c0-.28-.22-.5-.5-.5s-.5.22-.5.5v1.5h-6v-1.5c0-.28-.22-.5-.5-.5s-.5.22-.5.5v1.5h-.5c-1.93,0-3.5,1.57-3.5,3.5v9c0,1.93,1.57,3.5,3.5,3.5h3.76c.93,0,1.81-.36,2.48-1.03l5.24-5.24c.65-.65,1.03-1.55,1.03-2.47v-3.76c0-1.93-1.57-3.5-3.5-3.5Zm2.5,7.26c0,.25-.05.5-.13.74h-4.87c-1.1,0-2,.9-2,2v4.88c-.24.07-.49.12-.74.12h-3.76c-1.38,0-2.5-1.12-2.5-2.5v-9c0-.17.02-.34.05-.5h13.9c.03.16.05.33.05.5v3.76Z"/></svg>