<svg xmlns="http://www.w3.org/2000/svg" width="24" height="24" viewBox="0 0 24 24"><path d="M12 3c-4.88 0-9 4.12-9 9s4.12 9 9 9 9-4.12 9-9-4.12-9-9-9m0 17c-4.34 0-8-3.66-8-8s3.66-8 8-8 8 3.66 8 8-3.66 8-8 8"/><path d="M14.12 9.88c.2.2.51.2.71 0s.2-.51 0-.71c-.75-.75-1.75-1.16-2.83-1.16A3.96 3.96 0 0 0 8.01 12 3.96 3.96 0 0 0 12 15.99c1.08 0 2.08-.41 2.83-1.16.2-.19.2-.51 0-.71s-.51-.2-.71 0c-1.12 1.12-3.13 1.12-4.24 0-.56-.56-.87-1.31-.87-2.12s.31-1.56.87-2.12c1.12-1.12 3.13-1.12 4.24 0"/></svg>