<svg xmlns="http://www.w3.org/2000/svg" viewBox="0 0 24 24" width="24" height="24"><path d="M6.5 12A1.5 1.5 0 1 0 6.5 15 1.5 1.5 0 1 0 6.5 12z"/><path d="M17.5 12A1.5 1.5 0 1 0 17.5 15 1.5 1.5 0 1 0 17.5 12z"/><path d="m19.95,10.25l-.9-3.6c-.39-1.56-1.79-2.65-3.4-2.65h-7.32c-1.61,0-3.01,1.09-3.4,2.65l-.9,3.6c-.62.34-1.05.99-1.05,1.75v3c0,.74.41,1.38,1,1.72v2.28c0,.55.45,1,1,1h1c.55,0,1-.45,1-1v-2h10v2c0,.55.45,1,1,1h1c.55,0,1-.45,1-1v-2.28c.59-.35,1-.98,1-1.72v-3c0-.76-.43-1.41-1.05-1.75Zm-14.04-3.36c.28-1.11,1.28-1.89,2.43-1.89h7.32c1.15,0,2.15.78,2.43,1.89l.78,3.11H5.14l.78-3.11Zm14.08,8.11c0,.55-.45,1-1,1H5c-.55,0-1-.45-1-1v-3c0-.55.45-1,1-1h14c.55,0,1,.45,1,1v3Z"/></svg>