<svg xmlns="http://www.w3.org/2000/svg" viewBox="0 0 24 24" width="24" height="24"><path d="m12,12c2.21,0,4-1.8,4-4.01,0-.81-.22-1.58-.65-2.29-.08-.13-.22-.22-.38-.24-.16-.02-.31.04-.42.16-.33.36-.77.55-1.24.55-.93,0-1.69-.76-1.69-1.7,0-.12.01-.24.04-.37.04-.19-.03-.39-.19-.51-.16-.12-.37-.13-.54-.03-1.09.63-2.93,2.05-2.93,4.42,0,2.21,1.79,4.01,4,4.01Zm-1.33-7.06c.22,1.26,1.33,2.23,2.65,2.23.51,0,1.02-.15,1.45-.43.16.4.24.81.24,1.24,0,1.66-1.35,3.01-3,3.01s-3-1.35-3-3.01c0-1.4.86-2.41,1.67-3.04Z"/><path d="m19.95,11.78c-.12-.25-.42-.35-.67-.22l-7.28,3.64-7.28-3.64c-.25-.12-.55-.02-.67.22-.12.25-.02.55.22.67l6.61,3.3-6.61,3.3c-.25.12-.35.42-.22.67.09.18.26.28.45.28.08,0,.15-.02.22-.05l7.28-3.64,7.28,3.64c.07.04.15.05.22.05.18,0,.36-.1.45-.28.12-.25.02-.55-.22-.67l-6.61-3.3,6.61-3.3c.25-.12.35-.42.22-.67Z"/></svg>