<svg xmlns="http://www.w3.org/2000/svg" viewBox="0 0 24 24" width="24" height="24"><path d="m19.95,11.94l-3.2-1.73v-4.26c0-.74-.4-1.41-1.05-1.76l-2.75-1.49c-.6-.32-1.31-.32-1.9,0l-2.75,1.49c-.65.35-1.05,1.02-1.05,1.76v4.26l-3.2,1.73c-.65.35-1.05,1.02-1.05,1.76v3.61c0,.74.4,1.41,1.05,1.76l2.75,1.49c.3.16.62.24.95.24s.65-.08.95-.24l3.3-1.78,3.3,1.78c.3.16.62.24.95.24s.65-.08.95-.24l2.75-1.49c.65-.35,1.05-1.02,1.05-1.76v-3.61c0-.74-.4-1.41-1.05-1.76Zm-.34.98l-3.36,1.82-3.38-1.83,3.38-1.83,3.23,1.75s.09.06.13.1Zm-8.11-4.96v3.96l-3.25-1.76v-3.96l3.25,1.76Zm4.25-1.76v3.96l-3.25,1.76v-3.96l3.25-1.76Zm-4.23-2.61c.3-.16.65-.16.95,0l2.75,1.49c.08.04.15.1.21.16l-3.44,1.86-3.44-1.86c.06-.06.13-.11.21-.16l2.75-1.49Zm-3.77,7.49l3.38,1.83-3.38,1.83-3.36-1.82s.08-.07.13-.1l3.23-1.75Zm-3.23,7.12c-.32-.17-.52-.51-.52-.88v-3.47l3.25,1.76v4.06l-2.73-1.48Zm3.73,1.48v-4.06l3.25-1.76v4.06l-3.25,1.76Zm4.25-1.76v-4.06l3.25,1.76v4.06l-3.25-1.76Zm6.98.28l-2.73,1.48v-4.06l3.25-1.76v3.47c0,.37-.2.7-.52.88Z"/></svg>