<svg xmlns="http://www.w3.org/2000/svg" viewBox="0 0 24 24" width="24" height="24"><path d="M10.5 18A1.5 1.5 0 1 0 10.5 21 1.5 1.5 0 1 0 10.5 18z"/><path d="M16.5 18A1.5 1.5 0 1 0 16.5 21 1.5 1.5 0 1 0 16.5 18z"/><path d="m3.5,4h.46c.41,0,.79.26.94.65l1.13,3.01s0,.02.01.03l2.26,6.04c.51,1.36,1.83,2.27,3.28,2.27h3.84c1.45,0,2.77-.91,3.28-2.27l1.89-5.04c.14-.38.09-.81-.14-1.15-.23-.34-.62-.54-1.03-.54H6.85l-1.01-2.7c-.29-.78-1.04-1.3-1.87-1.3h-.46c-.28,0-.5.22-.5.5s.22.5.5.5Zm15.92,4c.11,0,.18.07.21.11s.07.12.03.23l-1.89,5.04c-.36.97-1.3,1.62-2.34,1.62h-3.84c-1.04,0-1.98-.65-2.34-1.62l-2.02-5.38h12.2Z"/></svg>