<svg xmlns="http://www.w3.org/2000/svg" viewBox="0 0 24 24" width="24" height="24"><path d="m12.35,10.35c-.2-.2-.51-.2-.71,0l-1.79,1.79c-.32.31-.09.85.35.85h1.29v4.5c0,.28.22.5.5.5s.5-.22.5-.5v-4.5h1.29c.45,0,.67-.54.35-.85l-1.79-1.79Z"/><path d="m16.5,5h-.5v-1.5c0-.28-.22-.5-.5-.5s-.5.22-.5.5v1.5h-6v-1.5c0-.28-.22-.5-.5-.5s-.5.22-.5.5v1.5h-.5c-1.93,0-3.5,1.57-3.5,3.5v9c0,1.93,1.57,3.5,3.5,3.5h9c1.93,0,3.5-1.57,3.5-3.5v-9c0-1.93-1.57-3.5-3.5-3.5Zm2.5,12.5c0,1.38-1.12,2.5-2.5,2.5H7.5c-1.38,0-2.5-1.12-2.5-2.5v-9c0-.17.02-.34.05-.5h13.9c.03.16.05.33.05.5v9Z"/></svg>