<svg xmlns="http://www.w3.org/2000/svg" viewBox="0 0 24 24" width="24" height="24"><path d="m16.5,5h-.5v-1.5c0-.28-.22-.5-.5-.5s-.5.22-.5.5v1.5h-6v-1.5c0-.28-.22-.5-.5-.5s-.5.22-.5.5v1.5h-.5c-1.93,0-3.5,1.57-3.5,3.5v9c0,1.93,1.57,3.5,3.5,3.5h9c1.93,0,3.5-1.57,3.5-3.5v-9c0-1.93-1.57-3.5-3.5-3.5Zm2.5,12.5c0,1.38-1.12,2.5-2.5,2.5H7.5c-1.38,0-2.5-1.12-2.5-2.5v-9c0-.17.02-.34.05-.5h13.9c.03.16.05.33.05.5v9Z"/><rect x="7" y="11" width="2" height="2" rx=".75" ry=".75"/><rect x="11" y="11" width="2" height="2" rx=".75" ry=".75"/><rect x="15" y="11" width="2" height="2" rx=".75" ry=".75"/><rect x="7" y="15" width="2" height="2" rx=".75" ry=".75"/><rect x="11" y="15" width="2" height="2" rx=".75" ry=".75"/><rect x="15" y="15" width="2" height="2" rx=".75" ry=".75"/></svg>