<svg xmlns="http://www.w3.org/2000/svg" viewBox="0 0 24 24" width="24" height="24"><path d="m18.83,6.14l-5.77-2.7c-.67-.31-1.44-.31-2.12,0l-5.77,2.7c-.74.34-1.19,1.09-1.15,1.9.12,2.67,1.02,9.23,6.75,12.41.38.21.81.32,1.23.32s.85-.11,1.23-.32c5.73-3.18,6.63-9.74,6.75-12.41.04-.81-.42-1.55-1.15-1.9Zm-6.08,13.43c-.46.26-1.03.26-1.5,0-5.29-2.93-6.12-9.08-6.24-11.58-.02-.4.21-.77.58-.95l5.77-2.7c.2-.09.42-.14.63-.14s.43.05.63.14l5.77,2.7c.37.17.59.54.58.95-.11,2.5-.94,8.65-6.24,11.58Z"/><path d="m14.65,9.65l-3.65,3.65-1.65-1.65c-.2-.2-.51-.2-.71,0s-.2.51,0,.71l2,2c.1.1.23.15.35.15s.26-.05.35-.15l4-4c.2-.2.2-.51,0-.71s-.51-.2-.71,0Z"/></svg>