<svg xmlns="http://www.w3.org/2000/svg" width="24" height="24" viewBox="0 0 24 24"><path d="M19 17h-.78c.64-1.81 2.04-6.72-.13-10-1.31-1.97-3.65-2.98-6.98-3l-1.9-.95a.516.516 0 0 0-.64.16l-4.73 6.88c-.58.85-.48 2 .25 2.72.77.77 2 .84 2.85.16L8.16 12h1.32c.14 0 .2.1.22.14s.06.15-.02.26L6.23 17H4.98c-1.1 0-2 .9-2 2s.9 2 2 2h14c1.1 0 2-.9 2-2s-.9-2-2-2Zm0 3H5c-.55 0-1-.45-1-1s.45-1 1-1h1.5c.16 0 .31-.07.4-.2l3.6-4.8c.29-.38.33-.88.12-1.31S9.98 11 9.5 11H8a.5.5 0 0 0-.31.11l-1.36 1.08c-.45.36-1.1.33-1.52-.08-.39-.39-.44-1-.13-1.45l4.48-6.52 1.61.81c.07.03.15.05.22.05 3.03 0 5.14.86 6.26 2.55 2.35 3.55-.19 9.69-.22 9.75a.493.493 0 0 0 .46.69h1.5c.55 0 1 .45 1 1s-.45 1-1 1Z"/><path d="M9.5 7c-.55 0-1 .45-1 1s.45 1 1 1 1-.45 1-1-.45-1-1-1m0 1h.5z"/></svg>