<svg xmlns="http://www.w3.org/2000/svg" viewBox="0 0 24 24" width="24" height="24"><path class="b" d="m18.3,6.7l-4.5-2.7c-1.11-.67-2.49-.67-3.6,0h0l-4.5,2.7c-1.05.63-1.7,1.78-1.7,3v4.6c0,1.22.65,2.37,1.7,3l4.5,2.7c.56.33,1.18.5,1.8.5s1.25-.17,1.8-.5l4.5-2.7c1.05-.63,1.7-1.78,1.7-3v-4.6c0-1.22-.65-2.37-1.7-3Zm.7,7.6c0,.87-.46,1.69-1.21,2.14l-4.5,2.7c-.79.47-1.78.47-2.57,0l-4.5-2.7c-.75-.45-1.21-1.27-1.21-2.14v-4.6c0-.87.46-1.69,1.21-2.14l4.5-2.7c.79-.47,1.78-.47,2.57,0l4.5,2.7c.75.45,1.21,1.27,1.21,2.14v4.6Z"/><path class="b" d="M12 8A4 4 0 1 0 12 16 4 4 0 1 0 12 8z"/></svg>