<svg xmlns="http://www.w3.org/2000/svg" width="24" height="24" viewBox="0 0 24 24"><path d="M19 17h-2.4c.9-1.26 1.4-2.84 1.4-4.5 0-1.76-.57-3.4-1.53-4.66a.51.51 0 0 0-.25-.29c-.51-.6-1.11-1.1-1.79-1.45.05-.19.07-.39.07-.6 0-.79-.38-1.55-1.03-2.02-.65-.48-1.48-.61-2.26-.36-.87.27-1.53 1.04-1.68 1.95-.06.35-.04.7.04 1.02C7.41 7.2 6 9.71 6 12.49c0 1.66.5 3.24 1.4 4.5H5c-1.1 0-2 .9-2 2s.9 2 2 2h14c1.1 0 2-.9 2-2s-.9-2-2-2Zm0 3H5c-.55 0-1-.45-1-1s.45-1 1-1h3.48c.2 0 .39-.12.46-.31s.03-.4-.11-.55C7.67 15.99 7 14.29 7 12.5c0-2.57 1.36-4.85 3.39-5.68a.505.505 0 0 0 .26-.69c-.14-.27-.18-.58-.13-.9.09-.53.48-1 .99-1.16.48-.15.98-.07 1.37.21s.62.74.62 1.21c0 .23-.05.44-.15.64a.505.505 0 0 0 .26.69c.57.23 1.09.6 1.54 1.04-.98.58-2.65 2.02-2.65 5.14 0 .28.22.5.5.5s.5-.22.5-.5c0-2.81 1.58-3.98 2.3-4.36.75 1.06 1.2 2.41 1.2 3.86 0 1.8-.67 3.49-1.83 4.64-.14.14-.19.36-.11.55s.26.31.46.31H19c.55 0 1 .45 1 1s-.45 1-1 1"/></svg>