<svg xmlns="http://www.w3.org/2000/svg" width="24" height="24" viewBox="0 0 24 24"><path d="M11.5 16h-5c-.28 0-.5.22-.5.5s.22.5.5.5h5c.28 0 .5-.22.5-.5s-.22-.5-.5-.5"/><path d="M20.28 11.36 17 13v-.5c0-1.63-1.13-3-2.65-3.38l-2.92-4.88A.5.5 0 0 0 11 4H5.5c-.28 0-.5.22-.5.5s.22.5.5.5h5.22l2.4 4H6.5C4.57 9 3 10.57 3 12.5v4C3 18.43 4.57 20 6.5 20h7c1.93 0 3.5-1.57 3.5-3.5V16l3.28 1.64c.33.17.72-.08.72-.45v-5.38c0-.37-.39-.61-.72-.45M16 16.5a2.5 2.5 0 0 1-2.5 2.5h-7A2.5 2.5 0 0 1 4 16.5v-4A2.5 2.5 0 0 1 6.5 10h7a2.5 2.5 0 0 1 2.5 2.5z"/></svg>