<svg xmlns="http://www.w3.org/2000/svg" viewBox="0 0 24 24" width="24" height="24"><path d="m16.5,4H7.5c-1.93,0-3.5,1.57-3.5,3.5v9c0,1.93,1.57,3.5,3.5,3.5h9c1.93,0,3.5-1.57,3.5-3.5V7.5c0-1.93-1.57-3.5-3.5-3.5Zm-9,15c-1.38,0-2.5-1.12-2.5-2.5V7.5c0-1.38,1.12-2.5,2.5-2.5h6.5v14h-6.5Zm11.5-2.5c0,1.38-1.12,2.5-2.5,2.5h-1.5V5h1.5c1.38,0,2.5,1.12,2.5,2.5v9Z"/><path d="m8.85,8.65c-.2-.2-.51-.2-.71,0s-.2.51,0,.71l2.65,2.65-2.65,2.65c-.2.2-.2.51,0,.71.1.1.23.15.35.15s.26-.05.35-.15l3-3c.2-.2.2-.51,0-.71l-3-3Z"/></svg>