<svg xmlns="http://www.w3.org/2000/svg" viewBox="0 0 24 24" width="24" height="24"><path d="m20.06,10.75c.17-.29.21-.63.12-.95s-.29-.59-.58-.76l-1.12-.65c-.08-.04-.12-.13-.12-.22v-1.29c0-.69-.56-1.25-1.25-1.25h-1.29c-.09,0-.17-.05-.22-.12l-.65-1.12c-.17-.29-.44-.5-.76-.58-.32-.09-.66-.04-.95.12l-1.12.65c-.08.04-.17.05-.25,0l-1.12-.65c-.29-.17-.63-.21-.95-.13-.32.09-.59.29-.76.58l-.65,1.12c-.04.08-.13.13-.22.13h-1.29c-.69,0-1.25.56-1.25,1.25v1.29c0,.09-.05.17-.12.22l-1.12.65c-.29.17-.5.44-.58.76-.09.32-.04.66.13.95l.65,1.12c.04.08.04.17,0,.25l-.65,1.12c-.17.29-.21.63-.13.95.09.32.29.59.58.76l1.12.65c.08.04.12.13.12.21v1.29c0,.69.56,1.25,1.25,1.25h1.29c.09,0,.17.05.22.12l.65,1.12c.17.29.44.5.76.58.11.03.22.04.32.04.22,0,.43-.06.62-.17l1.12-.65c.08-.04.17-.04.25,0l1.12.65c.6.34,1.36.14,1.71-.46l.65-1.12c.04-.08.13-.12.22-.12h1.29c.69,0,1.25-.56,1.25-1.25v-1.29c0-.09.05-.17.12-.22l1.12-.65c.29-.17.5-.44.58-.76s.04-.66-.12-.95l-.65-1.12h0c-.04-.08-.04-.17,0-.25l.65-1.12Zm-1.51,1.87l.65,1.12c.05.08.04.15.02.19,0,.04-.04.11-.12.15l-1.12.65c-.39.22-.62.64-.62,1.08v1.29c0,.14-.11.25-.25.25h-1.29c-.44,0-.86.24-1.08.62l-.65,1.12c-.07.12-.22.16-.34.09l-1.12-.65c-.19-.11-.41-.17-.62-.17s-.43.06-.63.17l-1.12.65c-.08.04-.15.03-.19.03-.04,0-.11-.04-.15-.12l-.65-1.12c-.22-.39-.64-.62-1.08-.62h-1.29c-.14,0-.25-.11-.25-.25v-1.29c0-.45-.24-.86-.62-1.08l-1.12-.65c-.08-.04-.11-.11-.12-.15-.01-.04-.02-.11.02-.19l.65-1.12c.22-.39.22-.87,0-1.25l-.65-1.12c-.04-.08-.04-.15-.02-.19,0-.04.04-.11.12-.15l1.12-.65c.38-.22.62-.64.62-1.08v-1.29c0-.14.11-.25.25-.25h1.29c.44,0,.86-.24,1.08-.62l.65-1.12c.07-.12.22-.16.34-.09l1.12.65c.39.22.87.22,1.25,0l1.12-.65c.08-.05.15-.04.19-.02.04,0,.11.04.15.12l.65,1.12c.22.39.64.62,1.08.62h1.29c.14,0,.25.11.25.25v1.29c0,.44.24.86.62,1.08l1.12.65c.08.04.11.11.12.15.01.04.02.11-.02.19l-.65,1.12c-.22.39-.22.87,0,1.25Z"/><path d="m14.23,8.2l-5.25,7c-.17.22-.12.53.1.7.09.07.19.1.3.1.15,0,.3-.07.4-.2l5.25-7c.17-.22.12-.53-.1-.7-.22-.17-.53-.12-.7.1Z"/><path d="M14 14A1 1 0 1 0 14 16 1 1 0 1 0 14 14z"/><path d="M10 8A1 1 0 1 0 10 10 1 1 0 1 0 10 8z"/></svg>