<svg xmlns="http://www.w3.org/2000/svg" width="24" height="24" viewBox="0 0 24 24"><path d="M18.42 5.44 9.73 3.11c-.9-.24-1.85-.12-2.66.35S5.68 4.68 5.44 5.58l-2.33 8.69c-.5 1.86.61 3.79 2.48 4.29l8.69 2.33a3.47 3.47 0 0 0 2.65-.35c.81-.47 1.39-1.22 1.63-2.12l2.33-8.69c.5-1.86-.61-3.79-2.48-4.29Zm1.51 4.03-2.33 8.69c-.17.64-.59 1.18-1.16 1.52-.58.33-1.25.42-1.9.25L5.85 17.6a2.51 2.51 0 0 1-1.77-3.06l2.33-8.69c.17-.64.59-1.18 1.16-1.52.39-.22.81-.34 1.25-.34.22 0 .44.03.65.09l8.69 2.33c1.33.36 2.12 1.73 1.77 3.06"/><path d="M9.97 9.9c-.8-.21-1.62.26-1.84 1.06-.21.8.26 1.62 1.06 1.84.8.21 1.62-.26 1.84-1.06.21-.8-.26-1.62-1.06-1.84M14.8 11.2c-.8-.21-1.62.26-1.84 1.06-.21.8.26 1.62 1.06 1.84.8.21 1.62-.26 1.84-1.06.21-.8-.26-1.62-1.06-1.84"/></svg>