<svg xmlns="http://www.w3.org/2000/svg" viewBox="0 0 24 24" width="24" height="24"><path d="m17.5,9h-.58c-.48-3.4-3.43-6-6.92-6-3.86,0-7,3.14-7,7,0,3.48,2.6,6.43,6,6.92v.58c0,1.93,1.57,3.5,3.5,3.5h5c1.93,0,3.5-1.57,3.5-3.5v-5c0-1.93-1.57-3.5-3.5-3.5Zm-13.5,1c0-3.31,2.69-6,6-6,3.12,0,5.75,2.43,5.98,5.54,0,.16.02.31.02.46,0,3.31-2.69,6-6,6-.16,0-.3,0-.47-.02-3.1-.23-5.53-2.86-5.53-5.98Zm16,7.5c0,1.38-1.12,2.5-2.5,2.5h-5c-1.38,0-2.5-1.12-2.5-2.5v-.5c3.86,0,7-3.14,7-7h.5c1.38,0,2.5,1.12,2.5,2.5v5Z"/></svg>