<svg xmlns="http://www.w3.org/2000/svg" viewBox="0 0 24 24" width="24" height="24"><path d="m18.43,4.75l-6-1.33c-.59-.13-1.21.01-1.69.39-.38.3-.62.72-.71,1.19h-4.04c-1.1,0-2,.9-2,2v10c0,1.1.9,2,2,2h4.04c.09.47.33.89.71,1.19.36.29.8.44,1.25.44.15,0,.29-.02.44-.05l6-1.33c.92-.21,1.57-1.01,1.57-1.95V6.7c0-.94-.64-1.75-1.57-1.95Zm-13.43,12.25V7c0-.55.45-1,1-1h4v12h-4c-.55,0-1-.45-1-1Zm14,.3c0,.47-.32.87-.78.98l-6,1.33c-.3.07-.6,0-.84-.2-.24-.19-.37-.48-.37-.78V5.37c0-.3.14-.59.37-.78.18-.14.4-.22.62-.22.07,0,.15,0,.22.02l6,1.33c.46.1.78.5.78.98v10.59Z"/><path d="M13 11A1 1 0 1 0 13 13 1 1 0 1 0 13 11z"/></svg>