<svg xmlns="http://www.w3.org/2000/svg" viewBox="0 0 24 24" width="24" height="24"><path d="M19 17A2 2 0 1 0 19 21 2 2 0 1 0 19 17z"/><path d="m13.06,14.35l1.82-6.35h4.62c.28,0,.5-.22.5-.5s-.22-.5-.5-.5h-8c-1.73,0-3.38.76-4.52,2.09l-.87,1.1c-.17.22-.13.53.08.7.09.07.2.11.31.11.15,0,.29-.06.39-.19l.86-1.09c.94-1.1,2.31-1.72,3.75-1.72h.82l-1.77,5.76-4.44,5.42c-.17.21-.14.53.07.7.09.08.2.11.32.11.15,0,.29-.06.39-.18l4.5-5.5.05-.17,2.31,2.31c.35.35.39.89.11,1.29l-1.76,2.47c-.16.22-.11.54.12.7.09.06.19.09.29.09.16,0,.31-.07.41-.21l1.76-2.47c.57-.8.48-1.88-.21-2.58l-1.39-1.39Z"/><path d="M13.5 3A1.5 1.5 0 1 0 13.5 6 1.5 1.5 0 1 0 13.5 3z"/></svg>