<svg xmlns="http://www.w3.org/2000/svg" viewBox="0 0 24 24" width="24" height="24"><path d="m19,3c-1.1,0-2,.9-2,2v3c0,.55-.45,1-1,1s-1-.45-1-1v-2c0-1.65-1.35-3-3-3s-3,1.35-3,3v5c0,.55-.45,1-1,1s-1-.45-1-1v-2c0-1.1-.9-2-2-2s-2,.9-2,2v3.5c0,1.93,1.57,3.5,3.5,3.5h2.5v4h-2.5c-.28,0-.5.22-.5.5s.22.5.5.5h11c.28,0,.5-.22.5-.5s-.22-.5-.5-.5h-2.5v-7h2.5c1.93,0,3.5-1.57,3.5-3.5v-4.5c0-1.1-.9-2-2-2Zm1,6.5c0,1.38-1.12,2.5-2.5,2.5h-3c-.28,0-.5.22-.5.5v7.5h-4v-4.5c0-.28-.22-.5-.5-.5h-3c-1.38,0-2.5-1.12-2.5-2.5v-3.5c0-.55.45-1,1-1s1,.45,1,1v2c0,1.1.9,2,2,2s2-.9,2-2v-5c0-1.1.9-2,2-2s2,.9,2,2v2c0,1.1.9,2,2,2s2-.9,2-2v-3c0-.55.45-1,1-1s1,.45,1,1v4.5Z"/></svg>