<svg xmlns="http://www.w3.org/2000/svg" viewBox="0 0 24 24" width="24" height="24"><path d="m13.5,12c1.65,0,3-1.35,3-3,0-1.45-1.4-3.36-2.23-4.37-.38-.46-1.16-.46-1.54,0-.83,1.01-2.23,2.92-2.23,4.37,0,1.65,1.35,3,3,3Zm0-6.74c1.25,1.52,2,2.92,2,3.74,0,1.1-.9,2-2,2s-2-.9-2-2c0-.82.75-2.21,2-3.74Z"/><path d="m16.84,13.27l-3.51,2.73h-.61c.17-.3.28-.63.28-1,0-1.1-.9-2-2-2h-4.5c-1.38,0-2.5,1.12-2.5,2.5v2c0,1.38,1.12,2.5,2.5,2.5h7.08c1.05,0,2.04-.47,2.71-1.28l3.14-3.84c.21-.25.3-.58.25-.9-.05-.32-.23-.61-.5-.79-.72-.48-1.66-.44-2.34.09Zm1.82.97l-3.14,3.84c-.48.58-1.18.92-1.94.92h-7.08c-.83,0-1.5-.67-1.5-1.5v-2c0-.83.67-1.5,1.5-1.5h4.5c.55,0,1,.45,1,1s-.45,1-1,1h-2.5c-.28,0-.5.22-.5.5s.22.5.5.5h5c.11,0,.22-.04.31-.11l3.65-2.84c.34-.27.81-.28,1.17-.04.05.03.06.08.07.11,0,.03,0,.08-.03.12Z"/></svg>