<svg xmlns="http://www.w3.org/2000/svg" viewBox="0 0 24 24" width="24" height="24"><path d="m14.71,15.71c-.38.38-1.04.38-1.41,0-.19-.19-.29-.44-.29-.71,0-.1.03-.19.06-.28.85-.46,1.44-1.42,1.44-2.39,0-.74-1.12-1.33-2.5-1.33s-2.5.6-2.5,1.33c0,.97.59,1.93,1.44,2.39.03.09.06.18.06.28,0,.27-.1.52-.29.71-.38.38-1.04.38-1.41,0-.2-.2-.51-.2-.71,0s-.2.51,0,.71c.38.38.88.59,1.41.59.36,0,.7-.1,1-.28v.28c0,.55.45,1,1,1s1-.45,1-1v-.28c.3.18.64.28,1,.28.53,0,1.04-.21,1.41-.59.2-.2.2-.51,0-.71s-.51-.2-.71,0Z"/><path d="m20.29,6.15c-.23-.92-.5-1.64-.81-2.16-.39-.66-.84-.99-1.35-.99-.66,0-2.38,1.64-3.37,3.38-1.44-.44-4.09-.44-5.53,0-.99-1.74-2.71-3.38-3.37-3.38-.51,0-.96.33-1.35.99-.3.52-.58,1.24-.8,2.16-.23.91-.4,1.94-.52,3.07-.18,1.72-.19,3.8-.19,4.2,0,4.89,3.2,7.58,9,7.58s9-2.69,9-7.58c0-.4,0-2.48-.19-4.2-.12-1.13-.29-2.16-.52-3.07Zm-8.29,13.85c-3.65,0-8-1.14-8-6.58,0-.39,0-2.42.18-4.1.11-1.08.28-2.07.49-2.93.2-.81.44-1.46.7-1.89.23-.39.42-.5.4-.51.28.11,1.87,1.4,2.79,3.24l.22.44.44-.21c1.12-.54,4.45-.54,5.57,0l.44.21.22-.44c.92-1.83,2.5-3.13,2.69-3.22.07,0,.26.1.49.5.25.43.49,1.08.7,1.89.21.86.38,1.85.49,2.93.17,1.68.18,3.71.18,4.1,0,5.44-4.35,6.58-8,6.58Z"/><path d="M16 10A1 1 0 1 0 16 12 1 1 0 1 0 16 10z"/><path d="M8 10A1 1 0 1 0 8 12 1 1 0 1 0 8 10z"/><path d="m7.45,7.93l-1.19-1.58c-.12-.16-.36-.13-.43.06-.2.54-.53,1.63-.71,3.25-.03.24.27.38.43.2.51-.6,1.12-1.14,1.82-1.57.12-.08.16-.24.07-.36Z"/><path d="m17.74,6.35l-1.19,1.58c-.09.12-.05.28.07.36.7.43,1.32.97,1.82,1.57.16.19.46.05.43-.2-.18-1.63-.51-2.71-.71-3.25-.07-.19-.31-.21-.43-.06Z"/></svg>