<svg xmlns="http://www.w3.org/2000/svg" width="24" height="24" viewBox="0 0 24 24"><path d="m14.65 5.94-1.59-1.59c-.58-.58-1.54-.58-2.12 0L9.35 5.94c-.58.58-.58 1.54 0 2.12l1.59 1.59c.29.29.68.44 1.06.44s.77-.15 1.06-.44l1.59-1.59c.58-.58.58-1.54 0-2.12m-.71 1.41-1.59 1.59c-.2.2-.51.2-.71 0l-1.59-1.59a.513.513 0 0 1 0-.71l1.59-1.59a.485.485 0 0 1 .7 0l1.59 1.59c.19.2.19.51 0 .71ZM10.94 14.35l-1.59 1.59c-.58.58-.58 1.54 0 2.12l1.59 1.59c.29.29.68.44 1.06.44s.77-.15 1.06-.44l1.59-1.59c.58-.58.58-1.54 0-2.12l-1.59-1.59c-.58-.58-1.54-.58-2.12 0m3 2.29c.19.2.19.51 0 .71l-1.59 1.59c-.2.2-.51.2-.71 0l-1.59-1.59a.513.513 0 0 1 0-.71l1.59-1.59a.485.485 0 0 1 .7 0l1.59 1.59ZM5.94 9.35l-1.59 1.59c-.58.58-.58 1.54 0 2.12l1.59 1.59c.29.29.68.44 1.06.44s.77-.15 1.06-.44l1.59-1.59c.58-.58.58-1.54 0-2.12L8.06 9.35c-.58-.58-1.54-.58-2.12 0m3 3-1.59 1.59c-.2.2-.51.2-.71 0l-1.59-1.59a.513.513 0 0 1 0-.71l1.59-1.59a.485.485 0 0 1 .7 0l1.59 1.59c.19.2.19.51 0 .71ZM18.06 9.35c-.58-.58-1.54-.58-2.12 0l-1.59 1.59c-.58.58-.58 1.54 0 2.12l1.59 1.59c.29.29.68.44 1.06.44s.77-.15 1.06-.44l1.59-1.59c.58-.58.58-1.54 0-2.12zm.88 3-1.59 1.59c-.2.2-.51.2-.71 0l-1.59-1.59a.513.513 0 0 1 0-.71l1.59-1.59a.485.485 0 0 1 .7 0l1.59 1.59c.19.2.19.51 0 .71Z"/></svg>