<svg xmlns="http://www.w3.org/2000/svg" viewBox="0 0 24 24" width="24" height="24"><path d="m17.81,4.56c-.65-.98-1.74-1.56-2.91-1.56h-5.79c-1.17,0-2.26.58-2.91,1.56l-1.91,2.87c-.83,1.25-.78,2.89.14,4.08l4.81,6.22c.67.86,1.68,1.36,2.77,1.36s2.1-.5,2.77-1.36l4.81-6.22c.92-1.19.98-2.83.14-4.08l-1.91-2.87Zm-.83.55l1.91,2.87c.21.31.33.66.39,1.02h-3.44l-2.08-5h1.14c.84,0,1.62.42,2.08,1.11Zm-7.72,3.89l2.08-5h1.33l2.08,5h-5.5Zm5.52,1l-2.77,7.12-2.77-7.12h5.54Zm-7.74-4.89c.46-.7,1.24-1.11,2.08-1.11h1.14l-2.08,5h-3.44c.05-.36.18-.7.39-1.02l1.91-2.87Zm3,12.01l-4.81-6.22c-.21-.27-.35-.58-.43-.9h3.38l3.1,7.97c-.48-.15-.92-.43-1.23-.85Zm3.96,0c-.32.41-.75.69-1.23.85l3.1-7.97h3.38c-.08.32-.22.63-.43.9l-4.81,6.22Z"/></svg>