<svg xmlns="http://www.w3.org/2000/svg" width="24" height="24" viewBox="0 0 24 24"><path d="M6.5 21h11c1.93 0 3.5-1.57 3.5-3.5v-11C21 4.57 19.43 3 17.5 3h-11C4.57 3 3 4.57 3 6.5v11C3 19.43 4.57 21 6.5 21M4 6.5A2.5 2.5 0 0 1 6.5 4h11A2.5 2.5 0 0 1 20 6.5v11a2.5 2.5 0 0 1-2.5 2.5h-11A2.5 2.5 0 0 1 4 17.5z"/><path d="M8 6.5a1.5 1.5 0 1 0 0 3 1.5 1.5 0 1 0 0-3M12 10.5a1.5 1.5 0 1 0 0 3 1.5 1.5 0 1 0 0-3M16 14.5a1.5 1.5 0 1 0 0 3 1.5 1.5 0 1 0 0-3M8 14.5a1.5 1.5 0 1 0 0 3 1.5 1.5 0 1 0 0-3M16 6.5a1.5 1.5 0 1 0 0 3 1.5 1.5 0 1 0 0-3"/></svg>