<svg xmlns="http://www.w3.org/2000/svg" viewBox="0 0 24 24" width="24" height="24"><path d="m17.02,9.49l.8-3.18c.26-1.03-.1-2.07-.94-2.72-.83-.65-1.93-.74-2.87-.24l-2.01,1.08-2.01-1.08c-.93-.5-2.03-.41-2.87.24-.84.65-1.2,1.69-.94,2.72l.8,3.18-2.45,8.98c-.17.61-.04,1.24.34,1.74.38.5.96.79,1.59.79h11.07c.63,0,1.21-.29,1.59-.79.38-.5.51-1.13.34-1.74l-2.45-8.98ZM7.74,4.38c.41-.32,1.09-.52,1.78-.15l2.24,1.21c.15.08.33.08.47,0l2.24-1.21c.69-.37,1.37-.17,1.78.15.41.32.77.93.58,1.69l-.73,2.93H7.89l-.73-2.93c-.19-.76.18-1.37.58-1.69Zm10.59,15.23c-.19.25-.48.39-.79.39h-2.54v-6.5c0-.28-.22-.5-.5-.5s-.5.22-.5.5v6.5h-4v-6.5c0-.28-.22-.5-.5-.5s-.5.22-.5.5v6.5h-2.54c-.31,0-.6-.14-.79-.39-.19-.25-.25-.57-.17-.87l2.38-8.74h8.24l2.38,8.74c.08.3.02.62-.17.87Z"/></svg>