<svg xmlns="http://www.w3.org/2000/svg" viewBox="0 0 24 24" width="24" height="24"><path d="m20.5,7h-1.17c-.4,0-.78-.16-1.06-.44l-.83-.83c-.47-.47-1.1-.73-1.77-.73h-1.1c-.6-1.13-1.34-1.63-1.88-1.84-.33-.13-.69.11-.69.47v1.82s0,.04,0,.06v4.5h-6c-1.92,0-2-1.79-2-2,0-.28-.22-.5-.5-.5s-.5.22-.5.5c0,.87.46,2.38,2,2.85v8.15c0,1.1.9,2,2,2s2-.9,2-2v-2h3v2c0,1.1.9,2,2,2s2-.9,2-2v-5.64l.76-.25c1.31-.44,2.53-1.19,3.51-2.17.47-.47.73-1.1.73-1.77v-1.67c0-.28-.22-.5-.5-.5Zm-6.5,13c-.55,0-1-.45-1-1v-2.5c0-.28-.22-.5-.5-.5h-4c-.28,0-.5.22-.5.5v2.5c0,.55-.45,1-1,1s-1-.45-1-1v-8h6.16c.39,1.28,1.48,2.25,2.84,2.45v5.55c0,.55-.45,1-1,1Zm6-10.83c0,.4-.16.78-.44,1.06-.87.87-1.95,1.54-3.12,1.93l-1.01.34c-1.35-.03-2.44-1.14-2.44-2.49v-4h2.67c.4,0,.78.16,1.06.44l.83.83c.47.47,1.1.73,1.77.73h.67v1.17Z"/><path d="M16 7.25A.75.75 0 1 0 16 8.75.75.75 0 1 0 16 7.25z"/></svg>