<svg xmlns="http://www.w3.org/2000/svg" width="24" height="24" viewBox="0 0 24 24"><path d="M12.75 10h-1.5c-.69 0-1.25.56-1.25 1.25v1.5c0 .69.56 1.25 1.25 1.25h1.5c.69 0 1.25-.56 1.25-1.25v-1.5c0-.69-.56-1.25-1.25-1.25m.25 2.75c0 .14-.11.25-.25.25h-1.5c-.14 0-.25-.11-.25-.25v-1.5c0-.14.11-.25.25-.25h1.5c.14 0 .25.11.25.25zM12.75 16h-1.5c-.69 0-1.25.56-1.25 1.25v1.5c0 .69.56 1.25 1.25 1.25h1.5c.69 0 1.25-.56 1.25-1.25v-1.5c0-.69-.56-1.25-1.25-1.25m.25 2.75c0 .14-.11.25-.25.25h-1.5c-.14 0-.25-.11-.25-.25v-1.5c0-.14.11-.25.25-.25h1.5c.14 0 .25.11.25.25zM12.75 4h-1.5C10.56 4 10 4.56 10 5.25v1.5c0 .69.56 1.25 1.25 1.25h1.5C13.44 8 14 7.44 14 6.75v-1.5C14 4.56 13.44 4 12.75 4M13 6.75c0 .14-.11.25-.25.25h-1.5c-.14 0-.25-.11-.25-.25v-1.5c0-.14.11-.25.25-.25h1.5c.14 0 .25.11.25.25z"/></svg>