<svg xmlns="http://www.w3.org/2000/svg" viewBox="0 0 24 24" width="24" height="24"><path d="m6.5,4h-1c-1.38,0-2.5,1.12-2.5,2.5v3c0,1.38,1.12,2.5,2.5,2.5h1c.28,0,.5.22.5.5v5.5c0,1.1.9,2,2,2s2-.9,2-2v-9.5c0-2.48-2.02-4.5-4.5-4.5Zm3.5,14c0,.55-.45,1-1,1s-1-.45-1-1v-5.5c0-.83-.67-1.5-1.5-1.5h-1c-.83,0-1.5-.67-1.5-1.5v-3c0-.83.67-1.5,1.5-1.5h1c1.93,0,3.5,1.57,3.5,3.5v9.5Z"/><path d="m18.5,4h-1c-2.48,0-4.5,2.02-4.5,4.5v9.5c0,1.1.9,2,2,2s2-.9,2-2v-5.5c0-.28.22-.5.5-.5h1c1.38,0,2.5-1.12,2.5-2.5v-3c0-1.38-1.12-2.5-2.5-2.5Zm1.5,5.5c0,.83-.67,1.5-1.5,1.5h-1c-.83,0-1.5.67-1.5,1.5v5.5c0,.55-.45,1-1,1s-1-.45-1-1v-9.5c0-1.93,1.57-3.5,3.5-3.5h1c.83,0,1.5.67,1.5,1.5v3Z"/><path d="m18.5,6c-.28,0-.5.22-.5.5v3c0,.28.22.5.5.5s.5-.22.5-.5v-3c0-.28-.22-.5-.5-.5Z"/><path d="m5.5,6c-.28,0-.5.22-.5.5v3c0,.28.22.5.5.5s.5-.22.5-.5v-3c0-.28-.22-.5-.5-.5Z"/></svg>