<svg xmlns="http://www.w3.org/2000/svg" viewBox="0 0 24 24" width="24" height="24"><path d="m12,3c-3.7,0-6.7,2.78-6.97,6.46-.02.28.19.52.46.54.28.02.52-.19.54-.46.23-3.16,2.8-5.54,5.98-5.54,3.36,0,6,2.64,6,6,0,1.33-.68,2.24-1.4,3.2-.79,1.05-1.6,2.13-1.6,3.8,0,2.87-2.97,3-3,3-1.61,0-2.77-1-2.96-2.56-.03-.27-.27-.48-.56-.44-.27.03-.47.28-.44.56.25,2.06,1.83,3.44,3.95,3.44,1.04,0,4-.73,4-4,0-1.33.68-2.24,1.4-3.2.79-1.05,1.6-2.13,1.6-3.8,0-3.93-3.07-7-7-7Z"/><path d="m14.12,12.83c.1.1.23.15.35.15s.26-.05.35-.15c.76-.75,1.17-1.76,1.17-2.83s-.42-2.07-1.17-2.83c-1.51-1.51-4.15-1.51-5.66,0-.6.6-.99,1.38-1.12,2.26-.04.27.15.53.42.57.28.04.53-.15.57-.42.09-.66.38-1.24.83-1.69,1.13-1.13,3.11-1.13,4.24,0,.57.57.88,1.32.88,2.12s-.31,1.55-.88,2.12c-.2.19-.2.51,0,.71Z"/></svg>