<svg xmlns="http://www.w3.org/2000/svg" width="24" height="24" viewBox="0 0 24 24"><path d="M20.18 13.76s-.03-.01-.04-.02c.58-.88.83-1.55.83-1.57a.495.495 0 0 0-.31-.63.506.506 0 0 0-.64.31c-.07.21-1.87 5.16-8.03 5.16s-7.95-4.95-8.03-5.16a.506.506 0 0 0-.64-.31c-.26.09-.4.37-.31.63 0 .02.25.69.83 1.57-.01 0-.03.01-.04.02l-1.81 1.37c-.22.17-.26.48-.1.7.1.13.25.2.4.2.1 0 .21-.03.3-.1l1.81-1.37s.01-.02.02-.02c.63.78 1.51 1.6 2.67 2.25l-1.23 2.02c-.14.24-.07.54.17.69.08.05.17.07.26.07.17 0 .33-.08.43-.24L8 17.23c.98.42 2.14.69 3.5.75v2.53c0 .28.22.5.5.5s.5-.22.5-.5v-2.53c1.35-.06 2.51-.34 3.5-.75l1.28 2.1c.09.16.26.24.43.24a.502.502 0 0 0 .43-.76l-1.23-2.02a9.4 9.4 0 0 0 2.67-2.25s.01.02.02.02l1.81 1.37c.09.07.2.1.3.1.15 0 .3-.07.4-.2.17-.22.12-.53-.1-.7l-1.81-1.37Z"/></svg>