<svg xmlns="http://www.w3.org/2000/svg" viewBox="0 0 24 24" width="24" height="24"><path d="m19.65,3.65l-3.07,3.07c-1.23-1.07-2.83-1.72-4.58-1.72-3.86,0-7,3.14-7,7,0,1.75.65,3.35,1.72,4.58l-3.07,3.07c-.2.2-.2.51,0,.71.1.1.23.15.35.15s.26-.05.35-.15l3.07-3.07c1.23,1.07,2.83,1.72,4.58,1.72,3.86,0,7-3.14,7-7,0-1.75-.65-3.35-1.72-4.58l3.07-3.07c.2-.2.2-.51,0-.71s-.51-.2-.71,0ZM6,12c0-3.31,2.69-6,6-6,1.47,0,2.82.54,3.87,1.42L7.42,15.87c-.89-1.05-1.42-2.4-1.42-3.87Zm12,0c0,3.31-2.69,6-6,6-1.47,0-2.82-.54-3.87-1.42l8.45-8.45c.89,1.05,1.42,2.4,1.42,3.87Z"/></svg>