<svg xmlns="http://www.w3.org/2000/svg" viewBox="0 0 24 24" width="24" height="24"><path d="m12,3c-3.7,0-6.7,2.78-6.97,6.46-.02.28.19.52.46.54.28.01.52-.19.54-.46.23-3.16,2.8-5.54,5.98-5.54,3.36,0,6,2.64,6,6,0,2.72-1.33,3.76-3.01,5.08-.61.47-1.24.97-1.84,1.57-.41.41-.71.89-1,1.36-.67,1.07-1.24,2-2.93,2s-2.96-1.06-3.17-2.57c-.04-.27-.29-.47-.56-.43-.27.04-.47.29-.43.56.28,2.02,1.99,3.43,4.16,3.43s3.1-1.37,3.78-2.47c.27-.44.53-.85.85-1.18.56-.56,1.17-1.03,1.75-1.49,1.75-1.37,3.4-2.66,3.4-5.86,0-3.92-3.07-7-7-7Z"/><path d="m14.12,7.86c.43.42.73,1.04.83,1.71.04.27.29.46.57.42.27-.04.46-.29.42-.57-.13-.89-.53-1.7-1.12-2.28-1.51-1.48-4.14-1.48-5.65,0-.74.72-1.18,1.79-1.18,2.85v3.5c0,.28.22.5.5.5s.5-.22.5-.5v-2.95c1.52.22,2.75,1.44,2.95,3.02.03.25.25.44.5.44.02,0,.04,0,.06,0,.27-.03.47-.29.43-.56-.26-2.06-1.89-3.64-3.9-3.89.1-.64.39-1.25.83-1.69,1.13-1.11,3.12-1.11,4.25,0Z"/></svg>