<svg xmlns="http://www.w3.org/2000/svg" viewBox="0 0 24 24" width="24" height="24"><path d="m20.5,19h-7.29l5.53-5.53c.66-.66,1.02-1.54,1.02-2.47s-.36-1.81-1.02-2.47l-2.26-2.26c-1.36-1.36-3.58-1.36-4.95,0l-6.26,6.26c-.66.66-1.02,1.54-1.02,2.47s.36,1.81,1.02,2.47l1.5,1.5c.66.66,1.54,1.03,2.48,1.03h11.26c.28,0,.5-.22.5-.5s-.22-.5-.5-.5ZM12.23,6.97c.97-.97,2.56-.97,3.54,0l2.26,2.26c.47.47.73,1.1.73,1.77s-.26,1.3-.73,1.77l-1.28,1.28-5.79-5.79,1.28-1.28Zm-2.23,12.03h-.76c-.67,0-1.3-.26-1.77-.73l-1.5-1.5c-.47-.47-.73-1.1-.73-1.77s.26-1.3.73-1.77l4.28-4.28,5.79,5.79-4.25,4.25h-1.79Z"/></svg>