<svg xmlns="http://www.w3.org/2000/svg" viewBox="0 0 24 24" width="24" height="24"><path d="m17.5,5h-4.88c-.26,0-.52-.11-.71-.29l-1.12-1.12c-.37-.37-.89-.59-1.41-.59h-4.38c-1.1,0-2,.9-2,2v10.5c0,1.93,1.57,3.5,3.5,3.5h11c1.93,0,3.5-1.57,3.5-3.5v-7c0-1.93-1.57-3.5-3.5-3.5Zm2.5,10.5c0,1.38-1.12,2.5-2.5,2.5H6.5c-1.38,0-2.5-1.12-2.5-2.5V6h13.5c1.38,0,2.5,1.12,2.5,2.5v7Z"/><path d="m14.93,10.73l-1.37-.12c-.17-.02-.33-.12-.41-.28l-.7-1.43c-.18-.37-.71-.37-.9,0l-.7,1.43c-.08.16-.23.26-.41.28l-1.37.12c-.42.04-.61.55-.31.85l1.15,1.15c.13.13.18.32.12.5l-.44,1.43c-.14.45.36.82.76.56l1.38-.92c.17-.11.39-.11.55,0l1.38.92c.39.26.89-.11.76-.56l-.44-1.43c-.05-.18,0-.37.12-.5l1.15-1.15c.3-.3.11-.82-.31-.85Z"/></svg>