<svg xmlns="http://www.w3.org/2000/svg" viewBox="0 0 24 24" width="24" height="24"><path d="m18.81,10.29l-5.37-.67c-.25-.03-.44-.24-.44-.5v-4.12c0-1.1-.9-2-2-2s-2,.9-2,2v9.38c0,.25-.17.38-.24.43-.07.04-.26.13-.49.02l-1.33-.67c-.92-.46-2.04-.21-2.68.59-.38.48-.55,1.1-.45,1.7s.44,1.14.95,1.48l3.71,2.48c.58.38,1.25.59,1.94.59h7.09c1.93,0,3.5-1.57,3.5-3.5v-4.73c0-1.26-.94-2.32-2.19-2.48Zm1.19,7.21c0,1.38-1.12,2.5-2.5,2.5h-7.09c-.5,0-.97-.15-1.39-.42l-3.71-2.48c-.28-.19-.46-.47-.51-.8-.05-.33.04-.66.25-.92.23-.29.58-.44.93-.44.18,0,.36.04.53.12l1.33.67c.47.23,1.01.21,1.46-.07.45-.28.71-.75.71-1.28V5c0-.55.45-1,1-1s1,.45,1,1v4.12c0,.75.56,1.4,1.31,1.49l5.37.67c.75.09,1.31.73,1.31,1.49v4.73Z"/></svg>