<svg xmlns="http://www.w3.org/2000/svg" width="24" height="24" viewBox="0 0 24 24"><path d="M15.5 13h-3v-3c0-.28-.22-.5-.5-.5s-.5.22-.5.5v3h-3c-.28 0-.5.22-.5.5s.22.5.5.5h3v3c0 .28.22.5.5.5s.5-.22.5-.5v-3h3c.28 0 .5-.22.5-.5s-.22-.5-.5-.5"/><path d="M18.97 7.37a.6.6 0 0 0-.12-.23l-4-4a.46.46 0 0 0-.23-.12c-.02 0-.04 0-.06-.01-.02 0-.04-.01-.06-.01h-6C6.57 3 5 4.57 5 6.5v11C5 19.43 6.57 21 8.5 21h7c1.93 0 3.5-1.57 3.5-3.5v-10s0-.04-.01-.06c0-.02 0-.04-.01-.06ZM15.5 20h-7A2.5 2.5 0 0 1 6 17.5v-11A2.5 2.5 0 0 1 8.5 4H14v2c0 1.1.9 2 2 2h2v9.5a2.5 2.5 0 0 1-2.5 2.5"/></svg>