<svg xmlns="http://www.w3.org/2000/svg" viewBox="0 0 24 24" width="24" height="24"><path d="m18.97,7.37c-.02-.08-.06-.16-.12-.23l-4-4c-.06-.06-.14-.1-.23-.12-.02,0-.04,0-.06-.01-.02,0-.04-.01-.07-.01h-6c-1.93,0-3.5,1.57-3.5,3.5v11c0,1.93,1.57,3.5,3.5,3.5h7c1.93,0,3.5-1.57,3.5-3.5V7.5s0-.04-.01-.06c0-.02,0-.04-.01-.06Zm-3.47,12.63h-7c-1.38,0-2.5-1.12-2.5-2.5V6.5c0-1.38,1.12-2.5,2.5-2.5h5.5v2c0,1.1.9,2,2,2h2v9.5c0,1.38-1.12,2.5-2.5,2.5Z"/><path d="m9.5,12c-.28,0-.5.22-.5.5v5c0,.28.22.5.5.5s.5-.22.5-.5v-5c0-.28-.22-.5-.5-.5Z"/><path d="m12,10c-.28,0-.5.22-.5.5v7c0,.28.22.5.5.5s.5-.22.5-.5v-7c0-.28-.22-.5-.5-.5Z"/><path d="m14.5,14c-.28,0-.5.22-.5.5v3c0,.28.22.5.5.5s.5-.22.5-.5v-3c0-.28-.22-.5-.5-.5Z"/></svg>