<svg xmlns="http://www.w3.org/2000/svg" viewBox="0 0 24 24" width="24" height="24"><path d="m18.31,8.12c-.16-.01-.31.04-.42.16-.81.88-1.9,1.37-3.08,1.37-2.31,0-4.19-1.89-4.19-4.21,0-.29.03-.59.11-.91.04-.19-.03-.39-.19-.51-.16-.12-.37-.13-.54-.03-2.24,1.29-5.99,4.18-5.99,8.98,0,4.43,3.59,8.03,8,8.03s8-3.6,8-8.03c0-1.63-.44-3.18-1.31-4.61-.08-.13-.22-.22-.38-.24Zm-9.31,8.88c0-2.24,2.3-3.59,3-3.95.7.36,3,1.7,3,3.95,0,1.65-1.35,3-3,3s-3-1.35-3-3Zm6.38,2.12c.39-.62.62-1.34.62-2.12,0-3.29-3.65-4.89-3.8-4.96-.12-.05-.27-.05-.39,0-.16.07-3.8,1.67-3.8,4.96,0,.78.23,1.51.62,2.12-2.16-1.2-3.62-3.51-3.62-6.16,0-3.74,2.6-6.21,4.62-7.57v.05c0,2.87,2.33,5.21,5.19,5.21,1.23,0,2.39-.43,3.33-1.23.57,1.11.86,2.3.86,3.54,0,2.65-1.47,4.96-3.62,6.16Z"/></svg>