<svg xmlns="http://www.w3.org/2000/svg" viewBox="0 0 24 24" width="24" height="24"><path d="m17.81,12.29l-4.37-.55c-.25-.03-.44-.24-.44-.5v-3.24c0-1.1-.9-2-2-2s-2,.9-2,2v8.39l-2.29-1.25c-.57-.31-1.25-.3-1.81.03-.56.33-.9.92-.9,1.58s.34,1.24.89,1.57l3.88,2.33c.39.23.83.36,1.29.36h7.45c1.38,0,2.5-1.12,2.5-2.5v-3.73c0-1.26-.94-2.32-2.19-2.48Zm1.19,6.21c0,.83-.67,1.5-1.5,1.5h-7.45c-.27,0-.54-.07-.77-.21l-3.88-2.33c-.25-.15-.4-.42-.4-.71s.15-.56.41-.72c.13-.08.28-.12.42-.12.14,0,.27.03.4.1l2.29,1.25c.31.17.68.16.99-.02s.49-.5.49-.86v-8.38c0-.55.45-1,1-1s1,.45,1,1v3.24c0,.75.56,1.39,1.31,1.49l4.37.55c.75.09,1.31.73,1.31,1.49v3.73Z"/><path d="m6.5,8.5c.28,0,.5-.22.5-.5,0-2.21,1.79-4,4-4s4,1.79,4,4c0,.28.22.5.5.5s.5-.22.5-.5c0-2.76-2.24-5-5-5s-5,2.24-5,5c0,.28.22.5.5.5Z"/></svg>