<svg xmlns="http://www.w3.org/2000/svg" width="24" height="24" viewBox="0 0 24 24"><path d="M19.5 6h-6c-.28 0-.5.22-.5.5s.22.5.5.5h6c.28 0 .5-.22.5-.5s-.22-.5-.5-.5M19.5 9h-4c-.28 0-.5.22-.5.5s.22.5.5.5h4c.28 0 .5-.22.5-.5s-.22-.5-.5-.5M19.5 12h-2c-.28 0-.5.22-.5.5s.22.5.5.5h2c.28 0 .5-.22.5-.5s-.22-.5-.5-.5M14.09 17.33l-4-11A.5.5 0 0 0 9.62 6h-1c-.21 0-.4.13-.47.33l-4 11a.501.501 0 0 0 .94.34L6.42 14h5.39l1.33 3.67c.07.2.27.33.47.33.06 0 .11 0 .17-.03.26-.09.39-.38.3-.64ZM6.79 13l2.18-6h.3l2.18 6z"/></svg>