<svg xmlns="http://www.w3.org/2000/svg" viewBox="0 0 24 24" width="24" height="24"><path d="m17.5,5h-4.88c-.26,0-.52-.11-.71-.29l-1.12-1.12c-.37-.37-.89-.59-1.41-.59h-4.38c-1.1,0-2,.9-2,2v10.5c0,1.93,1.57,3.5,3.5,3.5h11c1.93,0,3.5-1.57,3.5-3.5v-7c0-1.93-1.57-3.5-3.5-3.5Zm2.5,10.5c0,1.38-1.12,2.5-2.5,2.5H6.5c-1.38,0-2.5-1.12-2.5-2.5V6h13.5c1.38,0,2.5,1.12,2.5,2.5v7Z"/><path d="m15.4,9.3l-4.33,4.33-2.46-2.46c-.2-.2-.51-.2-.71,0s-.2.51,0,.71l2.81,2.81c.1.1.23.15.35.15s.26-.05.35-.15l4.69-4.69c.2-.2.2-.51,0-.71s-.51-.2-.71,0Z"/></svg>