<svg xmlns="http://www.w3.org/2000/svg" viewBox="0 0 24 24" width="24" height="24"><path d="m3,16.5c0,.28.22.5.5.5,1.56,0,2.91-.44,3.96-1.29.75.8,1.65,1.44,2.64,1.87.55.24.9.72.9,1.27v1.65c0,.28.22.5.5.5,2.39,0,4.17-1.26,4.46-3.12,2.94-.94,5.04-3.37,5.04-5.88s-2.1-4.94-5.04-5.88c-.29-1.85-2.07-3.12-4.46-3.12-.28,0-.5.22-.5.5v1.65c0,.55-.34,1.04-.9,1.27-.99.42-1.9,1.06-2.64,1.87-1.04-.85-2.4-1.29-3.96-1.29-.28,0-.5.22-.5.5,0,1.63.62,3.07,1.79,4.18.08.08.13.19.13.32s-.05.24-.13.32c-1.17,1.11-1.79,2.56-1.79,4.18Zm2.48-5.54c-.85-.81-1.34-1.79-1.46-2.94,1.26.1,2.34.55,3.12,1.33.1.1.24.15.38.14.14,0,.27-.07.36-.18.71-.86,1.61-1.55,2.61-1.97.92-.39,1.51-1.25,1.51-2.19v-1.13c1.74.15,2.93,1.12,3,2.51.01.21.16.4.37.46,2.64.73,4.63,2.89,4.63,5.02s-1.99,4.29-4.63,5.02c-.21.06-.35.24-.37.46-.07,1.38-1.26,2.35-3,2.51v-1.13c0-.94-.59-1.8-1.51-2.19-1-.43-1.9-1.11-2.61-1.97-.09-.11-.22-.18-.36-.18,0,0-.02,0-.03,0-.13,0-.26.05-.35.15-.79.78-1.86,1.24-3.12,1.33.11-1.14.6-2.13,1.45-2.93.28-.27.45-.65.45-1.05s-.16-.78-.45-1.04Z"/><path d="M17 10A1 1 0 1 0 17 12 1 1 0 1 0 17 10z"/><path d="m13.61,15.89c.1.1.23.15.35.15s.26-.05.35-.15c.2-.2.2-.51,0-.71-.43-.43-.76-.93-.99-1.49-.22-.54-.33-1.11-.33-1.69s.11-1.15.33-1.69c.23-.56.56-1.06.99-1.49.2-.2.2-.51,0-.71s-.51-.2-.71,0c-.52.52-.93,1.14-1.21,1.82-.27.66-.4,1.35-.4,2.07s.14,1.41.4,2.07c.28.68.68,1.3,1.21,1.82Z"/></svg>