<svg xmlns="http://www.w3.org/2000/svg" viewBox="0 0 24 24" width="24" height="24"><path d="m3.25,10h3.15c.22,0,.33-.27.18-.43l-1.26-1.26c.37-1.01,1.07-1.93,2.04-2.67,1.4-1.06,3.22-1.64,5.14-1.64s3.75.58,5.14,1.64c1.36,1.03,2.19,2.42,2.33,3.91.02.26.24.45.5.45.02,0,.03,0,.05,0,.27-.03.48-.27.45-.54-.17-1.77-1.13-3.41-2.72-4.61-1.57-1.19-3.61-1.84-5.75-1.84s-4.18.65-5.75,1.84c-1,.75-1.75,1.68-2.21,2.7l-1.12-1.12c-.16-.16-.43-.05-.43.18v3.15c0,.14.11.25.25.25Z"/><path d="m11,6c-1.1,0-2,.9-2,2v8.39l-2.29-1.25c-.57-.31-1.25-.3-1.81.03-.56.33-.9.92-.9,1.58s.34,1.24.89,1.57l3.88,2.33c.39.23.83.36,1.29.36h7.45c1.38,0,2.5-1.12,2.5-2.5v-3.73c0-1.26-.94-2.32-2.19-2.48l-4.37-.55c-.25-.03-.44-.24-.44-.5v-3.24c0-1.1-.9-2-2-2Zm2.31,6.73l4.37.55c.75.09,1.31.73,1.31,1.49v3.73c0,.83-.67,1.5-1.5,1.5h-7.45c-.27,0-.54-.07-.77-.21l-3.88-2.33c-.25-.15-.4-.42-.4-.71s.15-.56.41-.72c.13-.08.28-.12.42-.12.14,0,.27.03.4.1l2.29,1.25c.31.17.68.16.99-.02s.49-.5.49-.86v-8.38c0-.55.45-1,1-1s1,.45,1,1v3.24c0,.75.56,1.39,1.31,1.49Z"/></svg>