<svg xmlns="http://www.w3.org/2000/svg" viewBox="0 0 24 24" width="24" height="24"><path d="m18.5,4h-3.73c-1.26,0-2.32.94-2.48,2.19l-.55,4.37c-.03.25-.24.44-.5.44h-3.24c-1.1,0-2,.9-2,2s.9,2,2,2h8.38l-1.25,2.29c-.31.57-.3,1.25.03,1.81.33.56.92.9,1.58.9s1.24-.34,1.57-.89l2.33-3.88c.23-.39.36-.83.36-1.29v-7.45c0-1.38-1.12-2.5-2.5-2.5Zm1.5,9.95c0,.27-.07.54-.21.77l-2.33,3.88c-.3.5-1.13.5-1.43,0-.15-.26-.16-.56-.02-.82l1.25-2.29c.17-.31.17-.68-.02-.99-.18-.31-.5-.49-.86-.49h-8.39c-.55,0-1-.45-1-1s.45-1,1-1h3.24c.75,0,1.39-.56,1.49-1.31l.55-4.37c.09-.75.73-1.31,1.49-1.31h3.73c.83,0,1.5.67,1.5,1.5v7.45Z"/><path d="m7.54,19.46l-1.12,1.12c-.16.16-.05.43.18.43h3.15c.14,0,.25-.11.25-.25v-3.15c0-.22-.27-.33-.43-.18l-1.26,1.26c-1.01-.37-1.94-1.07-2.67-2.04-1.06-1.4-1.64-3.22-1.64-5.14s.58-3.75,1.64-5.14c1.03-1.36,2.42-2.19,3.91-2.33.27-.03.48-.27.45-.54-.03-.27-.26-.47-.54-.45-1.77.17-3.41,1.13-4.61,2.72-1.19,1.57-1.84,3.61-1.84,5.75s.65,4.18,1.84,5.75c.75,1,1.68,1.75,2.7,2.21Z"/></svg>