<svg xmlns="http://www.w3.org/2000/svg" viewBox="0 0 24 24" width="24" height="24"><path d="m20.28,4.32c-2.49,1.2-4.99.48-7.64-.3-2.71-.79-5.52-1.61-8.36-.24-.17.08-.28.26-.28.45v16.27c0,.28.22.5.5.5s.5-.22.5-.5v-5.93c2.4-1.02,4.81-.34,7.36.41,1.65.48,3.34.97,5.05.97,1.09,0,2.2-.2,3.31-.74.17-.08.28-.26.28-.45V4.77c0-.17-.09-.33-.23-.42-.15-.09-.33-.1-.48-.03Zm-11.61-.2c-.07,0-.14-.01-.22-.02.07,0,.14,0,.22.02Zm7.66,10.77c.07,0,.14.01.22.02-.07,0-.14,0-.22-.02Zm3.67-6.4c-1,.39-2,.51-3,.46v3c1,.05,2-.07,3-.46v2.96c-.99.42-1.99.54-3,.49v-2.99c-1-.05-2-.26-3-.52v2.98c-.45-.12-.9-.25-1.36-.38-.54-.16-1.09-.31-1.64-.45v-2.99c-1-.26-2-.47-3-.52v3c.26.01.52.04.78.07-.4-.05-.79-.08-1.19-.08-.86,0-1.72.12-2.59.44v-2.97c1-.39,2-.51,3-.46v-3c-1-.05-2,.07-3,.46v-2.96c.99-.42,1.99-.54,3-.49v2.99c1,.05,2,.26,3,.52v-2.98c.45.12.9.25,1.36.38.54.16,1.09.31,1.64.46v2.99c1,.26,2,.47,3,.52v-3c-.25-.01-.51-.03-.76-.06,1.24.15,2.5.09,3.76-.36v2.97Zm-10.3,4.79c-.16-.03-.33-.06-.49-.09.16.03.33.05.49.09Z"/><path d="m11,7.58v3c1,.26,2,.58,3,.85v-3c-1-.26-2-.58-3-.85Z"/></svg>