<svg xmlns="http://www.w3.org/2000/svg" viewBox="0 0 24 24" width="24" height="24"><path d="M16.5 2h-9C5.57 2 4 3.57 4 5.5v13C4 20.43 5.57 22 7.5 22h9c1.93 0 3.5-1.57 3.5-3.5v-13C20 3.57 18.43 2 16.5 2M15 3v1.5c0 .28-.22.5-.5.5h-5c-.28 0-.5-.22-.5-.5V3zM9 21v-1.5c0-.28.22-.5.5-.5h5c.28 0 .5.22.5.5V21zm10-2.5a2.5 2.5 0 0 1-2.5 2.5H16v-1.5c0-.83-.67-1.5-1.5-1.5h-5c-.83 0-1.5.67-1.5 1.5V21h-.5A2.5 2.5 0 0 1 5 18.5v-6h4.05C9.29 13.92 10.52 15 12 15s2.71-1.08 2.95-2.5H19zM12 14c-1.1 0-2-.9-2-2s.9-2 2-2 2 .9 2 2-.9 2-2 2m7-2.5h-4.05C14.71 10.08 13.48 9 12 9s-2.71 1.08-2.95 2.5H5v-6A2.5 2.5 0 0 1 7.5 3H8v1.5C8 5.33 8.67 6 9.5 6h5c.83 0 1.5-.67 1.5-1.5V3h.5A2.5 2.5 0 0 1 19 5.5z"/></svg>