<svg xmlns="http://www.w3.org/2000/svg" viewBox="0 0 24 24" width="24" height="24"><path d="m21,7.75c0-2.62-2.13-4.75-4.75-4.75-1.87,0-3.48,1.1-4.25,2.67-.77-1.57-2.38-2.67-4.25-2.67-2.62,0-4.75,2.13-4.75,4.75,0,1.87,1.1,3.48,2.67,4.25-1.57.77-2.67,2.38-2.67,4.25,0,2.62,2.13,4.75,4.75,4.75,1.87,0,3.48-1.1,4.25-2.67.77,1.57,2.38,2.67,4.25,2.67,2.62,0,4.75-2.13,4.75-4.75,0-1.87-1.1-3.48-2.67-4.25,1.57-.77,2.67-2.38,2.67-4.25Zm-5.5,4.24h0s0,.02,0,.02c0,1.92-1.58,3.48-3.51,3.49-.24,0-.47-.03-.7-.07-1.58-.33-2.79-1.74-2.79-3.43,0-1.92,1.58-3.48,3.51-3.49,1.92,0,3.48,1.58,3.49,3.49ZM4,7.75c0-2.07,1.68-3.75,3.75-3.75s3.63,1.56,3.74,3.53c-.08,0-.15.03-.23.05-.11.02-.22.04-.32.07-.17.04-.33.1-.49.16-.1.04-.19.07-.29.11-.17.08-.34.17-.5.28-.07.04-.14.08-.2.12-.45.31-.84.71-1.15,1.16-.03.04-.05.09-.08.14-.12.19-.23.38-.32.58-.03.07-.06.14-.08.21-.07.19-.13.38-.18.58-.02.09-.04.17-.05.26-.01.08-.04.17-.05.25-1.97-.11-3.53-1.75-3.53-3.74Zm3.75,12.25c-2.07,0-3.75-1.68-3.75-3.75s1.56-3.63,3.53-3.74c0,.08.03.15.05.23.02.11.04.22.07.32.04.17.1.33.16.5.04.1.07.19.11.28.08.18.18.34.28.51.04.07.07.14.12.2.31.45.71.84,1.16,1.15.04.03.09.05.14.08.19.12.38.23.58.32.07.03.14.05.21.08.19.07.38.13.58.18.09.02.17.04.26.05.08.01.17.04.25.05-.11,1.97-1.75,3.53-3.74,3.53Zm12.25-3.75c0,2.07-1.68,3.75-3.75,3.75s-3.63-1.56-3.74-3.53c.08,0,.15-.03.23-.05.11-.02.22-.04.33-.07.17-.04.33-.09.49-.15.1-.04.2-.07.29-.11.17-.08.32-.17.48-.26.08-.05.15-.09.23-.14.44-.31.83-.69,1.14-1.14.05-.07.09-.15.13-.22.1-.16.19-.32.27-.49.04-.09.07-.19.11-.28.06-.16.12-.33.16-.5.03-.1.05-.21.06-.32.01-.08.04-.15.05-.23,1.97.11,3.53,1.75,3.53,3.74Zm-3.53-4.76c0-.08-.03-.15-.05-.23-.02-.11-.04-.22-.07-.32-.04-.17-.1-.33-.16-.5-.04-.1-.07-.19-.11-.28-.08-.18-.18-.34-.28-.51-.04-.07-.07-.14-.12-.2-.31-.45-.71-.84-1.16-1.15-.04-.03-.09-.05-.14-.08-.19-.12-.38-.23-.58-.32-.07-.03-.14-.05-.21-.08-.19-.07-.38-.13-.58-.18-.09-.02-.17-.04-.26-.05-.08-.01-.17-.04-.25-.05.11-1.97,1.75-3.53,3.74-3.53s3.75,1.68,3.75,3.75-1.56,3.63-3.53,3.74Z"/></svg>