<svg xmlns="http://www.w3.org/2000/svg" viewBox="0 0 24 24" width="24" height="24"><path d="M8.5 12A1.5 1.5 0 1 0 8.5 15 1.5 1.5 0 1 0 8.5 12z"/><path d="M15.5 12A1.5 1.5 0 1 0 15.5 15 1.5 1.5 0 1 0 15.5 12z"/><path d="m12,3C7.04,3,3,7.04,3,12s4.04,9,9,9,9-4.04,9-9S16.96,3,12,3Zm7.97,8.44l-2.66-2.13c-.83-.67-1.31-1.67-1.31-2.73v-1.49c2.23,1.3,3.78,3.64,3.97,6.35Zm-11.97-6.35v1.49c0,1.07-.48,2.07-1.31,2.73l-2.66,2.13c.19-2.72,1.74-5.06,3.97-6.35Zm4,14.92c-4.17,0-7.6-3.21-7.96-7.29l3.28-2.62c1.07-.86,1.69-2.14,1.69-3.51v-1.99c.93-.38,1.94-.59,3-.59s2.07.21,3,.59v1.99c0,1.37.62,2.66,1.69,3.51l3.28,2.62c-.36,4.08-3.79,7.29-7.96,7.29Z"/></svg>