<svg xmlns="http://www.w3.org/2000/svg" viewBox="0 0 24 24" width="24" height="24"><path d="m11,6c-1.1,0-2,.9-2,2v8.39l-2.29-1.25c-.57-.31-1.25-.3-1.81.03-.56.33-.9.92-.9,1.58s.34,1.24.89,1.57l3.88,2.33c.39.23.83.36,1.29.36h7.45c1.38,0,2.5-1.12,2.5-2.5v-3.73c0-1.26-.94-2.32-2.19-2.48l-4.37-.55c-.25-.03-.44-.24-.44-.5v-3.24c0-1.1-.9-2-2-2Zm2.31,6.73l4.37.55c.75.09,1.31.73,1.31,1.49v3.73c0,.83-.67,1.5-1.5,1.5h-7.45c-.27,0-.54-.07-.77-.21l-3.88-2.33c-.25-.15-.4-.42-.4-.71s.15-.56.41-.72c.13-.08.28-.12.42-.12.14,0,.27.03.4.1l2.29,1.25c.31.17.68.16.99-.02s.49-.5.49-.86v-8.38c0-.55.45-1,1-1s1,.45,1,1v3.24c0,.75.56,1.39,1.31,1.49Z"/><path d="m20.58,6.43l-1.12,1.12c-.46-1.02-1.21-1.95-2.21-2.7-1.57-1.19-3.61-1.84-5.75-1.84s-4.18.65-5.75,1.84c-1.59,1.2-2.55,2.84-2.72,4.61-.03.28.18.52.45.54.28.02.52-.18.54-.45.14-1.49.97-2.88,2.33-3.91,1.4-1.06,3.22-1.64,5.14-1.64s3.75.58,5.14,1.64c.98.74,1.67,1.66,2.04,2.67l-1.26,1.26c-.16.16-.05.43.18.43h3.15c.14,0,.25-.11.25-.25v-3.15c0-.22-.27-.33-.43-.18Z"/></svg>