<svg xmlns="http://www.w3.org/2000/svg" viewBox="0 0 24 24" width="24" height="24"><path d="M12 7A2 2 0 1 0 12 11 2 2 0 1 0 12 7z"/><path d="m19.22,11.59c-.76.11-1.48.32-2.16.6.04-.06.09-.12.13-.19.55-.95.48-2.12-.14-3,.62-.88.69-2.05.14-3-.55-.95-1.6-1.47-2.67-1.38-.45-.98-1.43-1.62-2.53-1.62s-2.08.65-2.53,1.62c-1.06-.1-2.12.43-2.67,1.38-.55.95-.48,2.12.14,3-.62.88-.69,2.05-.14,3,.04.07.09.13.13.19-.68-.28-1.4-.49-2.16-.6-.46-.06-.92.09-1.26.43-.34.34-.49.8-.43,1.26.62,4.4,4.46,7.72,8.91,7.72s8.29-3.32,8.91-7.72c.07-.46-.09-.92-.43-1.26-.34-.34-.8-.49-1.26-.43Zm-11.27-2.94c-.57-.57-.68-1.46-.28-2.15s1.22-1.03,2-.83c.26.07.54-.09.61-.35.21-.78.92-1.32,1.72-1.32s1.51.54,1.72,1.32c.07.26.34.42.61.35.78-.2,1.6.14,2,.83.4.69.28,1.58-.28,2.15-.19.19-.19.51,0,.7.57.57.68,1.46.28,2.15-.4.69-1.22,1.03-2,.83-.27-.07-.54.09-.61.35-.21.78-.92,1.32-1.72,1.32s-1.51-.54-1.72-1.32c-.06-.22-.26-.37-.48-.37-.04,0-.08,0-.13.02-.78.2-1.6-.14-2-.83s-.28-1.58.28-2.15c.19-.19.19-.51,0-.7Zm-3.87,4.49c-.02-.15.03-.3.14-.41.1-.1.22-.15.35-.15.02,0,.04,0,.07,0,3.74.53,6.6,3.67,6.85,7.4-3.74-.24-6.87-3.11-7.4-6.85Zm8.44,6.85c.24-3.73,3.11-6.87,6.85-7.4.02,0,.04,0,.07,0,.13,0,.25.05.35.15.11.11.16.26.14.41-.53,3.74-3.67,6.6-7.4,6.85Z"/></svg>