<svg xmlns="http://www.w3.org/2000/svg" viewBox="0 0 24 24" width="24" height="24"><path d="m21,12c0-4.96-4.04-9-9-9S3,7.04,3,12s4.04,9,9,9c.13,0,.27-.01.4-.02.03,0,.06.02.1.02h8c.28,0,.5-.22.5-.5s-.22-.5-.5-.5h-4.4c2.9-1.5,4.9-4.52,4.9-8Zm-9,8c-4.41,0-8-3.59-8-8S7.59,4,12,4s8,3.59,8,8-3.59,8-8,8Z"/><path d="M12 6A1.5 1.5 0 1 0 12 9 1.5 1.5 0 1 0 12 6z"/><path d="M12 15A1.5 1.5 0 1 0 12 18 1.5 1.5 0 1 0 12 15z"/><path d="M16.5 10.5A1.5 1.5 0 1 0 16.5 13.5 1.5 1.5 0 1 0 16.5 10.5z"/><path d="M12 11A1 1 0 1 0 12 13 1 1 0 1 0 12 11z"/><path d="M7.5 10.5A1.5 1.5 0 1 0 7.5 13.5 1.5 1.5 0 1 0 7.5 10.5z"/></svg>