<svg xmlns="http://www.w3.org/2000/svg" viewBox="0 0 24 24" width="24" height="24"><path class="b" d="m12,21c3.86,0,7-3.14,7-7,0-3.13-2.04-5.84-5-6.71v-3.29h.5c.28,0,.5-.22.5-.5s-.22-.5-.5-.5h-5c-.28,0-.5.22-.5.5s.22.5.5.5h.5v3.29c-2.96.87-5,3.57-5,6.71,0,3.86,3.14,7,7,7Zm-1.39-12.83c.23-.05.39-.25.39-.49v-3.68h2v3.68c0,.23.16.43.39.49,2.72.63,4.61,3.03,4.61,5.83,0,.43-.05.84-.13,1.24-2.76-.03-4.14-.94-5.59-1.91-1.42-.95-2.91-1.92-5.62-2.06.78-1.53,2.19-2.7,3.95-3.11Zm-4.34,4.09c2.66.06,4.02.95,5.45,1.9,1.46.97,2.99,1.97,5.84,2.07-.89,2.21-3.05,3.77-5.57,3.77-3.31,0-6-2.69-6-6,0-.6.1-1.18.27-1.74Z"/></svg>