<svg xmlns="http://www.w3.org/2000/svg" viewBox="0 0 24 24" width="24" height="24"><path d="m19.5,7h-6.5v-.5c0-.83-.67-1.5-1.5-1.5h-.5v-.5c0-.83-.67-1.5-1.5-1.5h-3c-.83,0-1.5.67-1.5,1.5v.5h-.5c-.83,0-1.5.67-1.5,1.5v13c0,.83.67,1.5,1.5,1.5h7c.83,0,1.5-.67,1.5-1.5v-.5h3.5c.83,0,1.5-.67,1.5-1.5v-2c0-.83.67-1.5,1.5-1.5s1.5-.67,1.5-1.5v-4c0-.83-.67-1.5-1.5-1.5Zm-13.5-2.5c0-.28.22-.5.5-.5h3c.28,0,.5.22.5.5v.5h-4v-.5Zm6,15c0,.28-.22.5-.5.5h-7c-.28,0-.5-.22-.5-.5V6.5c0-.28.22-.5.5-.5h7c.28,0,.5.22.5.5v13Zm8-7c0,.28-.22.5-.5.5-1.38,0-2.5,1.12-2.5,2.5v2c0,.28-.22.5-.5.5h-3.5v-10h6.5c.28,0,.5.22.5.5v4Z"/></svg>