<svg xmlns="http://www.w3.org/2000/svg" width="24" height="24" viewBox="0 0 24 24"><path d="M8 6h2v2H8zM8 10v4.5c0 .83.67 1.5 1.5 1.5h1c.83 0 1.5-.67 1.5-1.5V8h-2v2zm2.25 3c.41 0 .75.34.75.75v.5c0 .41-.34.75-.75.75h-.5c-.41 0-.75-.34-.75-.75v-.5c0-.41.34-.75.75-.75z"/><path d="M18.97 7.37a.6.6 0 0 0-.12-.23l-4-4a.46.46 0 0 0-.23-.12c-.02 0-.04 0-.06-.01-.02 0-.04-.01-.07-.01h-6c-1.93 0-3.5 1.57-3.5 3.5v11c0 1.93 1.57 3.5 3.5 3.5h7c1.93 0 3.5-1.57 3.5-3.5v-10s0-.04-.01-.06c0-.02 0-.04-.01-.06ZM15.5 20h-7A2.5 2.5 0 0 1 6 17.5v-11A2.5 2.5 0 0 1 8.5 4H10v2h2V4h2v2c0 1.1.9 2 2 2h2v9.5a2.5 2.5 0 0 1-2.5 2.5"/></svg>