<svg xmlns="http://www.w3.org/2000/svg" viewBox="0 0 24 24" width="24" height="24"><path d="m17.5,5h-4.88c-.26,0-.52-.11-.71-.29l-1.12-1.12c-.37-.37-.89-.59-1.41-.59h-4.38c-1.1,0-2,.9-2,2v10.5c0,1.93,1.57,3.5,3.5,3.5h11c1.93,0,3.5-1.57,3.5-3.5v-7c0-1.93-1.57-3.5-3.5-3.5Zm2.5,10.5c0,1.38-1.12,2.5-2.5,2.5H6.5c-1.38,0-2.5-1.12-2.5-2.5V6h13.5c1.38,0,2.5,1.12,2.5,2.5v7Z"/><path d="m12.12,9.24l-.12.12-.12-.12c-.87-.86-2.38-.95-3.24-.07-.83.86-.82,2.19.04,3.03l2.79,2.77c.29.29.76.29,1.06,0l2.79-2.77c.85-.84.86-2.17.04-3.03-.85-.89-2.36-.8-3.24.07Z"/></svg>