<svg xmlns="http://www.w3.org/2000/svg" width="24" height="24" viewBox="0 0 24 24"><path d="M12 3c-4.96 0-9 4.04-9 9s4.04 9 9 9 9-4.04 9-9-4.04-9-9-9m6.82 13.17c-.18-.3-.38-.65-.45-.79s-.2-.58-.29-.97-.05-.75.11-.8c.15-.05.39.13.51.4.13.27.41.75.64 1.06.01.02.02.02.03.03-.16.37-.35.72-.55 1.05ZM4 12c0-1.94.69-3.72 1.84-5.1.09.05.2.09.36.1.44 0 1.09.05 1.45.09s.8-.05.99-.2.54-.45.79-.65.67-.59.94-.86c.26-.27.67-.8.91-1.18q.045-.075.06-.15.33-.03.66-.03c1.59 0 3.06.47 4.31 1.27-.08.13-.16.27-.2.4-.06.18-.11.61-.11.95s-.19.94-.42 1.33-.52.76-.64.83-.35.33-.51.59-.44.35-.62.21-.22-.46-.08-.7-.01-.52-.34-.61-.85-.01-1.16.18c-.31.2-.85.68-1.2 1.08s-.71.97-.79 1.28c-.09.31 0 .61.21.67.2.06.19.21-.03.34s-.57.32-.78.43-.41.53-.44.94c-.03.4-.31.7-.63.67-.31-.04-.57.13-.57.36s-.08.46-.19.5-.43.07-.73.06c-.3 0-.59.19-.64.43s-.02.57.06.72.26.35.39.43.43.16.66.18.58-.1.77-.26c.2-.16.61-.38.91-.48s.67-.1.81 0 .49.52.78.93.61.55.72.31.07-.59-.09-.78-.07-.27.18-.17c.26.09.53.42.6.72s.29.7.49.89.52 0 .72-.43c.2-.42.5-1.12.67-1.55s.42-.67.56-.53.48.2.75.13.61-.1.76-.08.31.2.37.39-.3.4-.8.45l-.15.03-.43.08c-.54.22-.97.69-.94 1.04.03.36.39.58.81.49s.8-.04.86.11.01.44-.1.65-.57.39-1.02.39-1.08-.02-1.39-.05c-.32-.03-.78.04-1.04.17s-.78.19-1.16.13c-.38-.05-.8-.48-.92-.95s-.76-.77-1.42-.66-1.76 0-2.45-.23c-.2-.07-.34-.08-.44-.06A7.94 7.94 0 0 1 3.99 12Z"/><path d="M7.04 12.57c.01.05.09.09.18.08.09 0 .31.02.5.05s.42.01.52-.05.21-.21.24-.34-.04-.31-.16-.4-.16-.38-.1-.64.17-.54.23-.64.07-.22.02-.28-.17-.1-.26-.1-.27.04-.4.09c-.12.05-.23.25-.23.45s.04.51.1.69c.05.18-.07.49-.28.67s-.37.38-.36.43Z"/><path d="M6.99 11.96c.24-.18.43-.39.41-.47s-.08-.15-.14-.15-.22.02-.36.05-.3.18-.35.34c-.06.15-.08.34-.05.42.03.07.25-.01.49-.19M14.93 7.32c.24.04.49.04.55 0s.03-.17-.07-.29c-.1-.11-.2-.38-.23-.59s-.03-.52 0-.68c.02-.16-.02-.32-.1-.34s-.24.09-.36.25c-.12.17-.22.59-.22.94s.2.67.44.71Z"/></svg>