<svg xmlns="http://www.w3.org/2000/svg" viewBox="0 0 24 24" width="24" height="24"><path d="m20.5,7c.28,0,.5-.22.5-.5s-.22-.5-.5-.5h-2.5v-2.5c0-.28-.22-.5-.5-.5s-.5.22-.5.5v2.5h-4.5v-2.5c0-.28-.22-.5-.5-.5s-.5.22-.5.5v2.5h-4.5v-2.5c0-.28-.22-.5-.5-.5s-.5.22-.5.5v2.5h-2.5c-.28,0-.5.22-.5.5s.22.5.5.5h2.5v4.5h-2.5c-.28,0-.5.22-.5.5s.22.5.5.5h2.5v4.5h-2.5c-.28,0-.5.22-.5.5s.22.5.5.5h2.5v2.5c0,.28.22.5.5.5s.5-.22.5-.5v-2.5h4.5v2.5c0,.28.22.5.5.5s.5-.22.5-.5v-2.5h4.5v2.5c0,.28.22.5.5.5s.5-.22.5-.5v-2.5h2.5c.28,0,.5-.22.5-.5s-.22-.5-.5-.5h-2.5v-4.5h2.5c.28,0,.5-.22.5-.5s-.22-.5-.5-.5h-2.5v-4.5h2.5Zm-9,4.5h-4.5v-4.5h4.5v4.5Zm0,1v4.5h-4.5v-4.5h4.5Zm1,0h4.5v4.5h-4.5v-4.5Zm0-1v-4.5h4.5v4.5h-4.5Z"/></svg>