<svg xmlns="http://www.w3.org/2000/svg" width="24" height="24" viewBox="0 0 24 24"><path d="M12 3c-4.96 0-9 4.04-9 9s4.04 9 9 9 9-4.04 9-9-4.04-9-9-9m0 17c-4.41 0-8-3.59-8-8 0-1.17.26-2.28.71-3.28.15.03.36.04.61.03.53-.02 1.39-.02 1.9 0 .52.02 1.04-.07 1.17-.2s-.08-.36-.46-.52-.71-.43-.74-.63c-.03-.19.06-.55.2-.79s.29-.83.33-1.3v-.06C8.96 4.46 10.42 4 11.99 4c4.41 0 8 3.59 8 8s-3.59 8-8 8Z"/><path d="M13.18 9.49c-.16-.39-.44-.41-.62-.03s-.51.61-.73.52a.63.63 0 0 1-.36-.62c.03-.25-.25-.51-.62-.57s-.85.05-1.06.25c-.22.2-.64.65-.95 1.01-.3.36-.87.82-1.25 1.03-.39.21-.65.75-.59 1.2.06.46.28 1.12.47 1.47s.57.58.83.51.72-.31 1.03-.52c.3-.22.87-.3 1.26-.2.39.11.77.31.86.46.09.14.42.4.73.57s.86.32 1.21.33.86-.51 1.12-1.16c.27-.65.14-1.7-.28-2.35s-.9-1.5-1.06-1.89ZM17.15 15.73c-.3.15-.73.49-.96.77-.23.27-.31.55-.18.61s.55-.05.93-.26.86-.64 1.08-.96.27-.74.11-.93c-.15-.19-.31-.15-.36.08-.04.23-.32.55-.62.7ZM12.92 15.52l.03.1.03.1c.13.28.34.49.46.47s.21-.17.2-.33-.34-.32-.73-.33ZM10.97 6.99c.37.25.88.66 1.12.92.25.26.65.46.88.45.24 0 .68.05.98.12s.31-.18 0-.57c-.3-.39-1.01-.91-1.59-1.16s-1.28-.4-1.56-.33-.21.33.16.57Z"/></svg>