<svg xmlns="http://www.w3.org/2000/svg" viewBox="0 0 24 24" width="24" height="24"><path d="m9.5,3h-5c-.83,0-1.5.67-1.5,1.5v5c0,.83.67,1.5,1.5,1.5h5c.83,0,1.5-.67,1.5-1.5v-5c0-.83-.67-1.5-1.5-1.5Zm.5,6.5c0,.28-.22.5-.5.5h-5c-.28,0-.5-.22-.5-.5v-5c0-.28.22-.5.5-.5h5c.28,0,.5.22.5.5v5Z"/><path d="m17.44,3.33c-.09-.18-.27-.27-.44-.27s-.35.09-.44.27l-3.67,6.93c-.18.33.07.73.44.73h7.34c.38,0,.62-.4.44-.73l-3.67-6.93Zm-3.28,6.67l2.84-5.36,2.84,5.36h-5.68Z"/><path d="m17,13c-2.21,0-4,1.79-4,4s1.79,4,4,4,4-1.79,4-4-1.79-4-4-4Zm0,7c-1.65,0-3-1.35-3-3s1.35-3,3-3,3,1.35,3,3-1.35,3-3,3Z"/><path d="m10.85,13.15c-.2-.2-.51-.2-.71,0l-3.15,3.15-3.15-3.15c-.2-.2-.51-.2-.71,0s-.2.51,0,.71l3.15,3.15-3.15,3.15c-.2.2-.2.51,0,.71.1.1.23.15.35.15s.26-.05.35-.15l3.15-3.15,3.15,3.15c.1.1.23.15.35.15s.26-.05.35-.15c.2-.2.2-.51,0-.71l-3.15-3.15,3.15-3.15c.2-.2.2-.51,0-.71Z"/></svg>