<svg xmlns="http://www.w3.org/2000/svg" width="24" height="24" viewBox="0 0 24 24"><path d="M6 11h3c1.1 0 2-.9 2-2V6c0-1.1-.9-2-2-2H6c-1.1 0-2 .9-2 2v3c0 1.1.9 2 2 2M5 6c0-.55.45-1 1-1h3c.55 0 1 .45 1 1v3c0 .55-.45 1-1 1H6c-.55 0-1-.45-1-1zM6 20h3c1.1 0 2-.9 2-2v-3c0-1.1-.9-2-2-2H6c-1.1 0-2 .9-2 2v3c0 1.1.9 2 2 2m-1-5c0-.55.45-1 1-1h3c.55 0 1 .45 1 1v3c0 .55-.45 1-1 1H6c-.55 0-1-.45-1-1zM18 4h-3c-1.1 0-2 .9-2 2v3c0 1.1.9 2 2 2h3c1.1 0 2-.9 2-2V6c0-1.1-.9-2-2-2m1 5c0 .55-.45 1-1 1h-3c-.55 0-1-.45-1-1V6c0-.55.45-1 1-1h3c.55 0 1 .45 1 1zM19.5 16H17v-2.5c0-.28-.22-.5-.5-.5s-.5.22-.5.5V16h-2.5c-.28 0-.5.22-.5.5s.22.5.5.5H16v2.5c0 .28.22.5.5.5s.5-.22.5-.5V17h2.5c.28 0 .5-.22.5-.5s-.22-.5-.5-.5"/></svg>