<svg xmlns="http://www.w3.org/2000/svg" width="24" height="24" viewBox="0 0 24 24"><path d="M6 20h3c1.1 0 2-.9 2-2V6c0-1.1-.9-2-2-2H6c-1.1 0-2 .9-2 2v12c0 1.1.9 2 2 2M5 6c0-.55.45-1 1-1h3c.55 0 1 .45 1 1v12c0 .55-.45 1-1 1H6c-.55 0-1-.45-1-1zM18 4h-3c-1.1 0-2 .9-2 2v3c0 1.1.9 2 2 2h3c1.1 0 2-.9 2-2V6c0-1.1-.9-2-2-2m1 5c0 .55-.45 1-1 1h-3c-.55 0-1-.45-1-1V6c0-.55.45-1 1-1h3c.55 0 1 .45 1 1zM18 13h-3c-1.1 0-2 .9-2 2v3c0 1.1.9 2 2 2h3c1.1 0 2-.9 2-2v-3c0-1.1-.9-2-2-2m1 5c0 .55-.45 1-1 1h-3c-.55 0-1-.45-1-1v-3c0-.55.45-1 1-1h3c.55 0 1 .45 1 1z"/></svg>