<svg xmlns="http://www.w3.org/2000/svg" viewBox="0 0 24 24" width="24" height="24"><path class="b" d="m18.64,8h-1.28l.95-.95c.45-.45.7-1.05.7-1.68s-.25-1.22-.7-1.67c-.92-.92-2.42-.92-3.36,0l-2.14,2.14c-.5-1.65-2-2.84-3.81-2.84-2.21,0-4,1.79-4,4,0,.36.06.71.15,1.04-.69.1-1.23.62-1.29,1.33l-.58,6.83c-.08.97.25,1.95.91,2.67.66.72,1.6,1.13,2.58,1.13h10.47c.98,0,1.92-.41,2.58-1.13.66-.72.99-1.69.91-2.67l-.58-6.83c-.07-.78-.71-1.37-1.49-1.37Zm-2.99-3.59c.54-.53,1.41-.54,1.95,0,.26.26.4.6.4.97s-.14.72-.4.98l-1.65,1.65h-3.08c.08-.3.13-.61.13-.94l2.66-2.66Zm-6.65-.41c1.62,0,2.93,1.26,3,2.96l.5.04h-.5c0,.35-.06.69-.18,1h-5.65c-.12-.31-.18-.65-.18-1,0-1.65,1.35-3,3-3Zm10.07,14.19c-.48.52-1.13.81-1.84.81H6.77c-.71,0-1.36-.29-1.84-.81-.48-.52-.71-1.2-.65-1.9l.58-6.83c.02-.26.24-.46.5-.46h13.28c.26,0,.48.2.5.46l.58,6.83c.06.71-.17,1.38-.65,1.9Z"/><path class="b" d="m15.5,10.5c-.28,0-.5.22-.5.5,0,1.65-1.35,3-3,3s-3-1.35-3-3c0-.28-.22-.5-.5-.5s-.5.22-.5.5c0,2.21,1.79,4,4,4s4-1.79,4-4c0-.28-.22-.5-.5-.5Z"/></svg>