<svg xmlns="http://www.w3.org/2000/svg" width="24" height="24" viewBox="0 0 24 24"><path d="M3 5.5a2.5 2.5 0 0 0 2 2.45v7.55C5 17.43 6.57 19 8.5 19H11v.93c0 .42.49.66.82.38l1.72-1.43c.24-.2.24-.57 0-.77l-1.72-1.43a.5.5 0 0 0-.82.38v.93H8.5a2.5 2.5 0 0 1-2.5-2.5V7.94a2.5 2.5 0 1 0-3-2.45ZM5.5 4C6.33 4 7 4.67 7 5.5S6.33 7 5.5 7 4 6.33 4 5.5 4.67 4 5.5 4M19 16.05V8.5C19 6.57 17.43 5 15.5 5H13v-.93c0-.42-.49-.66-.82-.38l-1.72 1.43c-.24.2-.24.57 0 .77l1.72 1.43a.5.5 0 0 0 .82-.38v-.93h2.5a2.5 2.5 0 0 1 2.5 2.5v7.55a2.5 2.5 0 1 0 1 0ZM18.5 20c-.83 0-1.5-.67-1.5-1.5s.67-1.5 1.5-1.5 1.5.67 1.5 1.5-.67 1.5-1.5 1.5"/></svg>