<svg xmlns="http://www.w3.org/2000/svg" viewBox="0 0 24 24" width="24" height="24"><path d="m20.5,11.5h-.5s-.02,0-.03,0c-.05-.74-.19-1.45-.42-2.12,0,0,.02,0,.02,0l.46-.19c.25-.11.38-.4.27-.65-.11-.26-.4-.38-.65-.27l-.46.19s-.01.01-.02.01c-.32-.64-.71-1.23-1.18-1.76,0,0,.02,0,.02-.02l.35-.35c.2-.2.2-.51,0-.71s-.51-.2-.71,0l-.35.35s0,.02-.02.02c-.54-.48-1.14-.88-1.8-1.2,0,0,.01-.01.02-.02l.19-.46c.1-.26-.02-.55-.27-.65-.26-.1-.55.02-.65.27l-.19.46s0,.02,0,.02c-.66-.23-1.36-.36-2.08-.41,0,0,0-.02,0-.03v-.5c0-.28-.22-.5-.5-.5s-.5.22-.5.5v.5s0,.02,0,.03c-.74.05-1.45.19-2.12.42,0,0,0-.02,0-.02l-.19-.46c-.11-.25-.4-.38-.65-.27-.25.11-.38.4-.27.65l.19.46s.01.01.02.02c-.64.32-1.24.72-1.77,1.19,0,0,0-.02-.02-.02l-.35-.35c-.2-.2-.51-.2-.71,0s-.2.51,0,.71l.35.35s.02,0,.02.02c-.48.54-.88,1.14-1.2,1.79,0,0-.01-.01-.02-.01l-.46-.19c-.26-.1-.55.02-.65.27-.1.26.02.55.27.65l.46.19s.02,0,.02,0c-.23.66-.36,1.36-.41,2.08,0,0-.02,0-.03,0h-.5c-.28,0-.5.22-.5.5s.22.5.5.5h.5s.02,0,.03,0c.05.74.19,1.45.42,2.12,0,0-.02,0-.02,0l-.46.19c-.25.11-.38.4-.27.65.08.19.27.31.46.31.06,0,.13-.01.19-.04l.46-.19s.01-.01.02-.01c.32.64.71,1.23,1.18,1.76,0,0-.02,0-.02.02l-.35.35c-.2.2-.2.51,0,.71.1.1.23.15.35.15s.26-.05.35-.15l.35-.35s0-.02.02-.02c.54.48,1.14.88,1.79,1.2,0,0-.01.01-.01.02l-.19.46c-.1.26.02.55.27.65.06.03.13.04.19.04.2,0,.38-.12.46-.31l.19-.46s0-.02,0-.02c.66.23,1.36.36,2.08.41,0,0,0,.02,0,.03v.5c0,.28.22.5.5.5s.5-.22.5-.5v-.5s0-.02,0-.03c.74-.05,1.45-.19,2.12-.42,0,0,0,.02,0,.02l.19.46c.08.19.27.31.46.31.06,0,.13-.01.19-.04.25-.11.38-.4.27-.65l-.19-.46s-.01-.01-.01-.02c.64-.32,1.23-.71,1.76-1.18,0,0,0,.02.02.02l.35.35c.1.1.23.15.35.15s.26-.05.35-.15c.2-.2.2-.51,0-.71l-.35-.35s-.02,0-.02-.02c.48-.54.88-1.14,1.2-1.79,0,0,.01.01.02.01l.46.19c.06.03.13.04.19.04.2,0,.38-.12.46-.31.1-.26-.02-.55-.27-.65l-.46-.19s-.02,0-.02,0c.23-.66.36-1.36.41-2.08,0,0,.02,0,.03,0h.5c.28,0,.5-.22.5-.5s-.22-.5-.5-.5Zm-8.5-6.5c3.27,0,6.02,2.26,6.78,5.3l-3.97.7c-.41-1.16-1.51-2-2.82-2-.55,0-1.07.16-1.51.42l-2.59-3.08c1.15-.84,2.57-1.34,4.1-1.34Zm1,7c0,.55-.45,1-1,1s-1-.45-1-1,.45-1,1-1,1,.45,1,1Zm-3.86,6.38c-2.44-1.1-4.14-3.54-4.14-6.38,0-1.97.82-3.75,2.13-5.02l2.59,3.09c-.45.52-.72,1.19-.72,1.93,0,1.12.62,2.08,1.52,2.6l-1.38,3.79Zm2.86.62c-.67,0-1.31-.1-1.92-.27l1.38-3.78c.18.03.36.05.54.05,1.66,0,3-1.34,3-3,0,0,0-.01,0-.02l3.97-.7c.02.24.04.48.04.72,0,3.86-3.14,7-7,7Z"/></svg>