<svg xmlns="http://www.w3.org/2000/svg" viewBox="0 0 24 24" width="24" height="24"><path d="m20.75,10h-2.75v-5h.5c.28,0,.5-.22.5-.5s-.22-.5-.5-.5H5.5c-.28,0-.5.22-.5.5s.22.5.5.5h.5v5h-2.75c-.69,0-1.25.56-1.25,1.25v7.5c0,.69.56,1.25,1.25,1.25h17.5c.69,0,1.25-.56,1.25-1.25v-7.5c0-.69-.56-1.25-1.25-1.25ZM3,18.75v-7.5c0-.14.11-.25.25-.25h2.75v8h-2.75c-.14,0-.25-.11-.25-.25Zm9-3.75c-1.1,0-2,.9-2,2v2h-3V5h10v14h-3v-2c0-1.1-.9-2-2-2Zm9,3.75c0,.14-.11.25-.25.25h-2.75v-8h2.75c.14,0,.25.11.25.25v7.5Z"/><path d="m15,10c0-.28-.22-.5-.5-.5h-2v-2c0-.28-.22-.5-.5-.5s-.5.22-.5.5v2h-2c-.28,0-.5.22-.5.5s.22.5.5.5h2v2c0,.28.22.5.5.5s.5-.22.5-.5v-2h2c.28,0,.5-.22.5-.5Z"/></svg>