<svg xmlns="http://www.w3.org/2000/svg" width="24" height="24" viewBox="0 0 24 24"><path d="M3.5 9h3.29c.45 0 .67-.54.35-.85L5.87 6.88c1.52-1.81 3.82-2.95 6.38-2.87 4.12.13 7.5 3.44 7.72 7.56.25 4.61-3.43 8.44-7.99 8.44-4.25 0-7.74-3.34-7.99-7.53a.51.51 0 0 0-.5-.47c-.28 0-.51.23-.49.52.27 4.72 4.2 8.48 8.99 8.48 5.13 0 9.26-4.31 8.99-9.49-.25-4.72-4.19-8.47-8.92-8.51-2.76-.02-5.23 1.22-6.89 3.17L3.85 4.86c-.32-.31-.85-.09-.85.35V8.5c0 .28.22.5.5.5"/><path d="M12 7c-.28 0-.5.22-.5.5V12c0 .28.22.5.5.5h4.5c.28 0 .5-.22.5-.5s-.22-.5-.5-.5h-4v-4c0-.28-.22-.5-.5-.5"/></svg>