<svg xmlns="http://www.w3.org/2000/svg" viewBox="0 0 24 24" width="24" height="24"><path d="m18.82,13.91c-.37-.19-.81-.21-1.2-.06-.39.15-.7.46-.86.84l-1.13,2.82c-.29.72.03,1.55.72,1.9l.1.05c.37.18.8.21,1.19.07.39-.14.7-.44.86-.82l1.15-2.7c1.11-2.59.9-5.58-.56-8-1.4-2.32-3.72-3.78-6.36-3.99-.48-.04-.98-.04-1.46,0-2.64.21-4.96,1.67-6.36,3.99-1.46,2.42-1.67,5.42-.56,8l1.15,2.7c.16.38.48.68.86.82.17.06.34.09.51.09.23,0,.46-.05.67-.16l.1-.05c.69-.35,1.01-1.18.72-1.9l-1.13-2.82c-.16-.39-.47-.7-.86-.84-.39-.15-.83-.13-1.2.06l-.39.2c-.38-1.89-.04-3.88.97-5.57,1.23-2.04,3.27-3.33,5.59-3.51.43-.04.87-.04,1.3,0,2.32.19,4.36,1.47,5.59,3.51,1.02,1.69,1.35,3.68.97,5.57l-.39-.2Z"/></svg>