<svg xmlns="http://www.w3.org/2000/svg" viewBox="0 0 24 24" width="24" height="24"><path d="m12.73,10.54c-.06-.07-.15-.11-.23-.15v-.05c0-.74.36-1.39.94-1.71.25-.14.48-.31.68-.51.57-.57.88-1.32.88-2.12s-.31-1.56-.88-2.12c-1.13-1.13-3.11-1.13-4.24,0-.57.57-.88,1.32-.88,2.12,0,.28.22.5.5.5s.5-.22.5-.5c0-.53.21-1.04.59-1.41.76-.76,2.07-.76,2.83,0,.38.38.59.88.59,1.41s-.21,1.04-.59,1.41c-.13.14-.29.25-.46.34-.9.49-1.46,1.48-1.46,2.58v.05c-.07.04-.15.07-.2.13l-7.68,6.87c-.47.42-.62,1.07-.4,1.65s.77.97,1.4.97h14.76c.63,0,1.18-.38,1.4-.97s.07-1.23-.4-1.65l-7.65-6.84Zm7.12,8.14c-.03.08-.15.32-.47.32H4.62c-.32,0-.44-.25-.47-.32-.03-.08-.1-.34.13-.55l7.75-6.87,7.68,6.87c.24.21.16.48.13.55Z"/></svg>