<svg xmlns="http://www.w3.org/2000/svg" viewBox="0 0 24 24" width="24" height="24"><path d="m19,6c-1.1,0-2,.9-2,2v1.28c-.3-.17-.63-.28-1-.28-.6,0-1.13.27-1.5.69-.37-.42-.9-.69-1.5-.69-.37,0-.7.11-1,.28v-3.28c0-1.1-.9-2-2-2s-2,.9-2,2v7.57l-1.64-1.09c-.51-.34-1.17-.38-1.72-.11-.47.24-.8.67-.91,1.18s.02,1.04.36,1.45l2.52,3.02c1.05,1.26,2.59,1.98,4.23,1.98h4.66c3.03,0,5.5-2.47,5.5-5.5v-6.5c0-1.1-.9-2-2-2Zm-4,5c0-.55.45-1,1-1s1,.45,1,1v2c0,.55-.45,1-1,1s-1-.45-1-1v-2Zm-3,1v-1c0-.55.45-1,1-1s1,.45,1,1v3c0,.55-.45,1-1,1s-1-.45-1-1v-2Zm8,2.5c0,2.48-2.02,4.5-4.5,4.5h-4.66c-1.34,0-2.6-.59-3.46-1.62l-2.52-3.02c-.14-.17-.19-.39-.15-.6.04-.21.18-.39.38-.49.23-.11.5-.1.71.04l1.64,1.09c.31.21.7.22,1.03.05.33-.17.53-.51.53-.88v-7.57c0-.55.45-1,1-1s1,.45,1,1v8c0,1.1.9,2,2,2,.87,0,1.61-.56,1.88-1.34.32.22.71.34,1.12.34,1.1,0,2-.9,2-2v-5c0-.55.45-1,1-1s1,.45,1,1v6.5Z"/></svg>