<svg xmlns="http://www.w3.org/2000/svg" viewBox="0 0 24 24" width="24" height="24"><path d="m19.46,5.52c-2.06-2.03-5.29-2.03-7.34,0l-.12.12-.12-.12c-2.05-2.03-5.28-2.03-7.34,0-.99.99-1.54,2.29-1.53,3.65,0,1.36.55,2.65,1.54,3.63l6.06,6c.39.38.9.58,1.41.58s1.02-.19,1.41-.58l6.06-6c.99-.98,1.53-2.27,1.54-3.63,0-1.37-.54-2.67-1.53-3.65,0,0,0,0,0,0Zm-.7,6.58l-6.06,6c-.39.38-1.02.38-1.41,0l-6.06-6c-.8-.79-1.24-1.83-1.24-2.92,0-1.1.44-2.15,1.24-2.94.83-.82,1.9-1.23,2.97-1.23s2.13.41,2.96,1.23l.47.47c.19.19.51.19.7,0l.47-.47c1.66-1.64,4.27-1.64,5.94,0,.8.8,1.24,1.84,1.24,2.94,0,1.1-.44,2.13-1.24,2.92Z"/><path d="m15,11.5h-2.5v-2.5c0-.28-.22-.5-.5-.5s-.5.22-.5.5v2.5h-2.5c-.28,0-.5.22-.5.5s.22.5.5.5h2.5v2.5c0,.28.22.5.5.5s.5-.22.5-.5v-2.5h2.5c.28,0,.5-.22.5-.5s-.22-.5-.5-.5Z"/></svg>