<svg xmlns="http://www.w3.org/2000/svg" viewBox="0 0 24 24" width="24" height="24"><path d="m8.5,3c-.28,0-.5.22-.5.5v4.5h-.5c-.83,0-1.5.67-1.5,1.5v5c0,.83.67,1.5,1.5,1.5h.5v4.5c0,.28.22.5.5.5s.5-.22.5-.5v-4.5h.5c.83,0,1.5-.67,1.5-1.5v-5c0-.83-.67-1.5-1.5-1.5h-.5V3.5c0-.28-.22-.5-.5-.5Zm1,6c.28,0,.5.22.5.5v5c0,.28-.22.5-.5.5h-2c-.28,0-.5-.22-.5-.5v-5c0-.28.22-.5.5-.5h2Z"/><path d="m15.5,3c-.28,0-.5.22-.5.5v1.5h-.5c-.83,0-1.5.67-1.5,1.5v11c0,.83.67,1.5,1.5,1.5h.5v1.5c0,.28.22.5.5.5s.5-.22.5-.5v-1.5h.5c.83,0,1.5-.67,1.5-1.5V6.5c0-.83-.67-1.5-1.5-1.5h-.5v-1.5c0-.28-.22-.5-.5-.5Zm1,3c.28,0,.5.22.5.5v11c0,.28-.22.5-.5.5h-2c-.28,0-.5-.22-.5-.5V6.5c0-.28.22-.5.5-.5h2Z"/></svg>