<svg xmlns="http://www.w3.org/2000/svg" viewBox="0 0 24 24" width="24" height="24"><path d="m13,20.5c0,.28.22.5.5.5s.5-.22.5-.5V3.5c0-.28-.22-.5-.5-.5s-.5.22-.5.5v17Z"/><path d="m4,20.5c0,.28.22.5.5.5s.5-.22.5-.5V3.5c0-.28-.22-.5-.5-.5s-.5.22-.5.5v17Z"/><path d="m16.5,8c-.83,0-1.5.67-1.5,1.5v5c0,.83.67,1.5,1.5,1.5h2c.83,0,1.5-.67,1.5-1.5v-5c0-.83-.67-1.5-1.5-1.5h-2Zm2.5,1.5v5c0,.28-.22.5-.5.5h-2c-.28,0-.5-.22-.5-.5v-5c0-.28.22-.5.5-.5h2c.28,0,.5.22.5.5Z"/><path d="m9.5,5h-2c-.83,0-1.5.67-1.5,1.5v11c0,.83.67,1.5,1.5,1.5h2c.83,0,1.5-.67,1.5-1.5V6.5c0-.83-.67-1.5-1.5-1.5Zm.5,12.5c0,.28-.22.5-.5.5h-2c-.28,0-.5-.22-.5-.5V6.5c0-.28.22-.5.5-.5h2c.28,0,.5.22.5.5v11Z"/></svg>