<svg xmlns="http://www.w3.org/2000/svg" width="24" height="24" viewBox="0 0 24 24"><path d="M20.5 8h-3.34l.68-3.4a.507.507 0 0 0-.39-.59.505.505 0 0 0-.59.39L16.14 8H9.46l.68-3.4a.507.507 0 0 0-.39-.59.505.505 0 0 0-.59.39L8.44 8H4.5c-.28 0-.5.22-.5.5s.22.5.5.5h3.74l-1.2 6H3.5c-.28 0-.5.22-.5.5s.22.5.5.5h3.34l-.68 3.4c-.05.27.12.53.39.59h.1c.23 0 .44-.16.49-.4l.72-3.6h6.68l-.68 3.4c-.05.27.12.53.39.59h.1c.23 0 .44-.16.49-.4l.72-3.6h3.94c.28 0 .5-.22.5-.5s-.22-.5-.5-.5h-3.74l1.2-6h3.54c.28 0 .5-.22.5-.5s-.22-.5-.5-.5Zm-5.76 7H8.06l1.2-6h6.68z"/></svg>