<svg xmlns="http://www.w3.org/2000/svg" width="24" height="24" viewBox="0 0 24 24"><path d="M19.4 5.95A3.486 3.486 0 0 0 15.94 3H8.06C6.33 3 4.88 4.24 4.6 5.95l-1.56 9.74c-.03.18-.04.37-.04.55v1.26A2.5 2.5 0 0 0 5.5 20h13a2.5 2.5 0 0 0 2.5-2.5v-1.26c0-.18-.01-.37-.04-.55zm-13.81.16C5.79 4.89 6.82 4 8.06 4h7.88c1.24 0 2.27.89 2.47 2.11l1.32 8.23A2.44 2.44 0 0 0 18.5 14h-13c-.45 0-.86.13-1.23.34zM20 17.5c0 .83-.67 1.5-1.5 1.5h-13c-.83 0-1.5-.67-1.5-1.5v-1c0-.83.67-1.5 1.5-1.5h13c.83 0 1.5.67 1.5 1.5z"/><path d="M18 16a1 1 0 1 0 0 2 1 1 0 1 0 0-2M15 16a1 1 0 1 0 0 2 1 1 0 1 0 0-2"/></svg>