<svg xmlns="http://www.w3.org/2000/svg" viewBox="0 0 24 24" width="24" height="24"><path d="m19,3.5v17c0,.28.22.5.5.5s.5-.22.5-.5V3.5c0-.28-.22-.5-.5-.5s-.5.22-.5.5Z"/><path d="m11.5,6c-.83,0-1.5.67-1.5,1.5v2c0,.83.67,1.5,1.5,1.5h5c.83,0,1.5-.67,1.5-1.5v-2c0-.83-.67-1.5-1.5-1.5h-5Zm5.5,1.5v2c0,.28-.22.5-.5.5h-5c-.28,0-.5-.22-.5-.5v-2c0-.28.22-.5.5-.5h5c.28,0,.5.22.5.5Z"/><path d="m5.5,18h11c.83,0,1.5-.67,1.5-1.5v-2c0-.83-.67-1.5-1.5-1.5H5.5c-.83,0-1.5.67-1.5,1.5v2c0,.83.67,1.5,1.5,1.5Zm-.5-3.5c0-.28.22-.5.5-.5h11c.28,0,.5.22.5.5v2c0,.28-.22.5-.5.5H5.5c-.28,0-.5-.22-.5-.5v-2Z"/></svg>