<svg xmlns="http://www.w3.org/2000/svg" viewBox="0 0 24 24" width="24" height="24"><path d="m19.5,6H4.5c-1.38,0-2.5,1.12-2.5,2.5v6c0,1.93,1.57,3.5,3.5,3.5h13c1.93,0,3.5-1.57,3.5-3.5v-6c0-1.38-1.12-2.5-2.5-2.5Zm-14,11c-1.38,0-2.5-1.12-2.5-2.5v-6c0-.83.67-1.5,1.5-1.5h2.5v10h-1.5Zm2.5,0V7h8v10h-8Zm13-2.5c0,1.38-1.12,2.5-2.5,2.5h-1.5V7h2.5c.83,0,1.5.67,1.5,1.5v6Z"/><path d="M19 8A1 1 0 1 0 19 10 1 1 0 1 0 19 8z"/><path d="M5 8A1 1 0 1 0 5 10 1 1 0 1 0 5 8z"/><rect x="4" y="11" width="2" height="2" rx=".5" ry=".5"/><rect x="18" y="11" width="2" height="2" rx=".5" ry=".5"/></svg>