<svg xmlns="http://www.w3.org/2000/svg" width="24" height="24" viewBox="0 0 24 24"><path d="M12 3c-4.96 0-9 4.04-9 9s4.04 9 9 9 9-4.04 9-9-4.04-9-9-9m0 17c-4.41 0-8-3.59-8-8s3.59-8 8-8 8 3.59 8 8-3.59 8-8 8"/><path d="M12.94 7.2c-.75-.28-1.58-.24-2.32.1-.75.35-1.32.97-1.59 1.75-.09.26.05.55.31.64s.55-.04.64-.31c.18-.52.56-.94 1.07-1.17.5-.23 1.05-.26 1.55-.07.78.29 1.31 1.07 1.32 1.93 0 .74-.64 1.31-1.18 1.65A2.69 2.69 0 0 0 11.51 14c0 .28.22.5.5.5s.5-.22.5-.5c0-.6.29-1.13.77-1.44 1.08-.69 1.64-1.55 1.64-2.5 0-1.27-.8-2.42-1.97-2.86ZM12 16a.5.5 0 1 0 0 1 .5.5 0 1 0 0-1"/></svg>