<svg xmlns="http://www.w3.org/2000/svg" width="24" height="24" viewBox="0 0 24 24"><path d="M12 3c-4.96 0-9 4.04-9 9s4.04 9 9 9 9-4.04 9-9-4.04-9-9-9m0 17c-4.41 0-8-3.59-8-8s3.59-8 8-8 8 3.59 8 8-3.59 8-8 8"/><path d="M15.9 14H8.11c-.56 0-.93.58-.67 1.08.6 1.18 1.94 2.92 4.57 2.92s3.97-1.74 4.57-2.92c.25-.49-.12-1.08-.67-1.08ZM9 11c0 .28.22.5.5.5s.5-.22.5-.5c0-1.1-.9-2-2-2s-2 .9-2 2c0 .28.22.5.5.5s.5-.22.5-.5c0-.55.45-1 1-1s1 .45 1 1M16 9c-1.1 0-2 .9-2 2 0 .28.22.5.5.5s.5-.22.5-.5c0-.55.45-1 1-1s1 .45 1 1c0 .28.22.5.5.5s.5-.22.5-.5c0-1.1-.9-2-2-2"/></svg>