<svg xmlns="http://www.w3.org/2000/svg" viewBox="0 0 24 24" width="24" height="24"><path d="M8.5 7A1.5 1.5 0 1 0 8.5 10 1.5 1.5 0 1 0 8.5 7z"/><path d="m4.5,7.5c.28,0,.5-.22.5-.5,0-1.1.9-2,2-2,.28,0,.5-.22.5-.5s-.22-.5-.5-.5c-1.65,0-3,1.35-3,3,0,.28.22.5.5.5Z"/><path d="m17,4c-.28,0-.5.22-.5.5s.22.5.5.5c1.1,0,2,.9,2,2,0,.28.22.5.5.5s.5-.22.5-.5c0-1.65-1.35-3-3-3Z"/><path d="m4.5,11c.28,0,.5-.22.5-.5v-1c0-.28-.22-.5-.5-.5s-.5.22-.5.5v1c0,.28.22.5.5.5Z"/><path d="m9.5,5h1c.28,0,.5-.22.5-.5s-.22-.5-.5-.5h-1c-.28,0-.5.22-.5.5s.22.5.5.5Z"/><path d="m13.5,5h1c.28,0,.5-.22.5-.5s-.22-.5-.5-.5h-1c-.28,0-.5.22-.5.5s.22.5.5.5Z"/><path d="m19.5,9c-.28,0-.5.22-.5.5v1.79l-1.59-1.59c-.75-.76-2.07-.76-2.83,0l-4.41,4.41c-.1.1-.26.1-.35,0l-.41-.41c-.75-.76-2.07-.76-2.83,0l-1.59,1.59v-1.79c0-.28-.22-.5-.5-.5s-.5.22-.5.5v3c0,1.93,1.57,3.5,3.5,3.5h9c1.93,0,3.5-1.57,3.5-3.5v-7c0-.28-.22-.5-.5-.5Zm-.5,7.5c0,1.38-1.12,2.5-2.5,2.5H7.5c-1.31,0-2.39-1.01-2.49-2.3l2.29-2.29c.38-.38,1.04-.38,1.41,0l.41.41c.49.49,1.28.49,1.77,0l4.41-4.41c.38-.38,1.04-.38,1.41,0l2.29,2.29v3.79Z"/></svg>