<svg xmlns="http://www.w3.org/2000/svg" width="24" height="24" viewBox="0 0 24 24"><path d="M16.72 8c-1.94 0-3.37 1.56-4.72 3.21C10.65 9.56 9.22 8 7.28 8 4.92 8 3 9.79 3 12c0 1.02.41 1.99 1.16 2.74.8.8 1.94 1.26 3.11 1.26h.01c1.94 0 3.37-1.56 4.72-3.21 1.35 1.65 2.78 3.21 4.72 3.21 2.36 0 4.28-1.79 4.28-4s-1.92-4-4.28-4m-9.45 7c-.91 0-1.79-.35-2.41-.97C4.3 13.47 4 12.75 4 12c0-1.65 1.47-3 3.28-3 1.55 0 2.79 1.42 4.08 3-1.29 1.58-2.53 3-4.08 3Zm9.45 0c-1.55 0-2.79-1.42-4.08-3 1.29-1.58 2.53-3 4.08-3C18.53 9 20 10.35 20 12s-1.47 3-3.28 3"/></svg>