<svg xmlns="http://www.w3.org/2000/svg" width="24" height="24" viewBox="0 0 24 24"><path d="M17.5 4h-11C4.57 4 3 5.57 3 7.5v9C3 18.43 4.57 20 6.5 20h11c1.93 0 3.5-1.57 3.5-3.5v-9C21 5.57 19.43 4 17.5 4M20 16.5a2.5 2.5 0 0 1-2.5 2.5h-11A2.5 2.5 0 0 1 4 16.5V14h2.83c.35 0 .69.2.89.55C8.63 16.09 10.23 17 12 17s3.38-.92 4.29-2.46c.2-.34.53-.54.89-.54h2.83v2.5Zm0-3.5h-2.83c-.71 0-1.37.39-1.75 1.04C14.69 15.27 13.41 16 12 16s-2.7-.73-3.42-1.96C8.2 13.39 7.54 13 6.83 13H4V7.5A2.5 2.5 0 0 1 6.5 5h11A2.5 2.5 0 0 1 20 7.5z"/></svg>