<svg xmlns="http://www.w3.org/2000/svg" width="24" height="24" viewBox="0 0 24 24"><path d="M21.5 17c-.83 0-1.22-.21-1.67-.44-.36-.19-.75-.39-1.34-.49a6 6 0 0 0-.86-1.09c-.6-.58-1.32-1.04-2.14-1.37C14.48 13.2 13.3 13 12 13c-1.08 0-2.07.18-2.96.52.24-3.36 1.66-5.39 2.37-6.21.03.09.05.18.07.27s.04.19.06.29.03.2.04.3l.03.32v.33c0 .11 0 .23-.01.35 0 .12-.02.24-.03.36-.03.27.16.52.44.56h.06c.25 0 .47-.19.5-.44.02-.14.03-.28.04-.42 0-.14.01-.27.01-.41v-.39c0-.13-.02-.25-.03-.38-.01-.12-.03-.24-.05-.36s-.04-.23-.07-.35c-.03-.11-.05-.21-.09-.32.05.01.11.03.16.04.1.03.21.07.31.11.11.04.21.08.32.13l.33.15.33.18c.24.14.54.05.68-.19s.05-.54-.19-.68c-.13-.07-.25-.14-.38-.2s-.25-.12-.38-.18c-.12-.05-.25-.1-.37-.15s-.25-.09-.37-.12c-.12-.04-.24-.07-.36-.1s-.23-.05-.35-.08l-.21-.03-.03-.06c-.05-.09-.1-.17-.15-.25s-.1-.16-.16-.24c-.05-.08-.11-.15-.16-.22s-.11-.14-.17-.21l-.51-.54-1.2-.9-.28.42.25-.43c-.24-.14-.5-.04-.64.2s-.02.57.21.71l1.53 1.37s.05.07.08.1c-.07 0-.14 0-.21.01-.1 0-.2.02-.3.03s-.19.03-.29.04c-.09.02-.19.03-.27.05l-.27.06-.71.23-1.27.65-.08.06a.499.499 0 0 0 .29.91c.1 0 .2-.03.29-.09l-.21-.46.36.36 2.05-.79c.08-.01.16-.03.24-.04.06 0 .11-.01.17-.02-.9 1.09-2.33 3.42-2.45 7.14-.63.37-1.2.85-1.68 1.42a6.5 6.5 0 0 0-.94 1.46c-.29-.08-.52-.2-.77-.33-.5-.26-1.06-.56-2.13-.56-.28 0-.5.22-.5.5s.22.5.5.5c.83 0 1.21.21 1.67.44.5.26 1.06.56 2.13.56s1.64-.3 2.13-.56c.45-.24.84-.44 1.67-.44s1.22.21 1.67.44c.5.26 1.06.56 2.13.56s1.64-.3 2.14-.56c.45-.24.84-.44 1.67-.44s1.22.21 1.67.44c.5.26 1.06.56 2.13.56.28 0 .5-.22.5-.5s-.22-.5-.5-.5Zm-5.94-.44c-.45.24-.84.44-1.67.44s-1.22-.21-1.67-.44c-.5-.26-1.06-.56-2.13-.56s-1.64.3-2.13.56c-.41.22-.79.4-1.49.43a5.579 5.579 0 0 1 2.45-2.34c.89-.43 1.92-.65 3.08-.65s2.22.18 3.12.54c.7.28 1.31.67 1.82 1.16.12.11.22.22.31.33-.78.07-1.26.31-1.68.53ZM21.5 20c-.83 0-1.22-.21-1.67-.44-.5-.26-1.06-.56-2.14-.56s-1.64.3-2.13.56c-.45.24-.84.44-1.67.44s-1.22-.21-1.67-.44c-.5-.26-1.06-.56-2.13-.56s-1.64.3-2.13.56c-.45.24-.84.44-1.67.44s-1.21-.21-1.67-.44c-.5-.26-1.06-.56-2.13-.56-.28 0-.5.22-.5.5s.22.5.5.5c.83 0 1.21.21 1.67.44.5.26 1.06.56 2.13.56s1.64-.3 2.13-.56c.45-.24.84-.44 1.67-.44s1.22.21 1.67.44c.5.26 1.06.56 2.13.56s1.64-.3 2.14-.56c.45-.24.84-.44 1.67-.44s1.22.21 1.67.44c.5.26 1.06.56 2.13.56.28 0 .5-.22.5-.5s-.22-.5-.5-.5"/></svg>