<svg xmlns="http://www.w3.org/2000/svg" viewBox="0 0 24 24" width="24" height="24"><path d="m19,9.89c-.06-3.34-2.92-6.89-7.5-6.89-4.22,0-8.5,2.58-8.5,7.5,0,2.05.72,3.86,2.13,5.4.56.61.87,1.36.87,2.09v2.5c0,.28.22.5.5.5s.5-.22.5-.5v-2.5c0-.99-.4-1.98-1.14-2.77-1.24-1.35-1.86-2.94-1.86-4.73,0-4.47,3.89-6.5,7.5-6.5,4.48,0,6.5,3.51,6.5,6,0,.07.01.14.04.2l1.38,3.09c.07.16.06.33-.04.48-.09.14-.25.23-.42.23h-.46c-.83,0-1.5.67-1.5,1.5v2c0,.28-.22.5-.5.5h-2c-.83,0-1.5.67-1.5,1.5v1c0,.28.22.5.5.5s.5-.22.5-.5v-1c0-.28.22-.5.5-.5h2c.83,0,1.5-.67,1.5-1.5v-2c0-.28.22-.5.5-.5h.46c.51,0,.98-.25,1.26-.68.28-.43.32-.96.11-1.43l-1.33-3Z"/><path d="m8,13c.16,0,.31-.02.46-.06.45.64,1.19,1.06,2.04,1.06s1.58-.42,2.04-1.06c.15.04.3.06.46.06.81,0,1.51-.49,1.82-1.18.69-.31,1.18-1.01,1.18-1.82,0-.75-.42-1.39-1.02-1.74-.12-1.27-1.18-2.26-2.48-2.26-.49,0-.94.15-1.33.39-.33-.24-.73-.39-1.17-.39-.75,0-1.39.42-1.74,1.03-.09-.01-.17-.03-.26-.03-1.1,0-2,.9-2,2,0,.37.11.7.28,1-.17.3-.28.63-.28,1,0,1.1.9,2,2,2Z"/></svg>