<svg xmlns="http://www.w3.org/2000/svg" width="24" height="24" viewBox="0 0 24 24"><path d="M20 6.5C20 4.57 18.43 3 16.5 3h-9C5.57 3 4 4.57 4 6.5v11C4 19.43 5.57 21 7.5 21h9c1.93 0 3.5-1.57 3.5-3.5zm-1 11a2.5 2.5 0 0 1-2.5 2.5h-9A2.5 2.5 0 0 1 5 17.5v-11A2.5 2.5 0 0 1 7.5 4h9A2.5 2.5 0 0 1 19 6.5z"/><path d="M8.5 8a1.5 1.5 0 1 0 0 3 1.5 1.5 0 1 0 0-3M14.54 11.89a.746.746 0 0 0-1.21-.1l-1.97 2.3c-.19.22-.53.23-.73.03l-.54-.54a.755.755 0 0 0-1.11.05l-1.29 1.55a.5.5 0 0 0 .38.82h8.05a.5.5 0 0 0 .43-.76z"/></svg>