<svg xmlns="http://www.w3.org/2000/svg" width="24" height="24" viewBox="0 0 24 24"><path d="M16 11a1 1 0 1 0 0 2 1 1 0 1 0 0-2M18 9a1 1 0 1 0 0 2 1 1 0 1 0 0-2M16 7a1 1 0 1 0 0 2 1 1 0 1 0 0-2M14 9a1 1 0 1 0 0 2 1 1 0 1 0 0-2M7 8a2 2 0 1 0 0 4 2 2 0 1 0 0-4"/><path d="M17.5 5h-11C4.02 5 2 7.02 2 9.5v7.64A2.86 2.86 0 0 0 4.86 20c.87 0 1.69-.39 2.24-1.07l2.04-2.55c.7-.87 1.74-1.37 2.86-1.37s2.16.5 2.86 1.37l2.04 2.55A2.86 2.86 0 0 0 19.14 20 2.86 2.86 0 0 0 22 17.14V9.5C22 7.02 19.98 5 17.5 5M21 17.14a1.863 1.863 0 0 1-3.32 1.16l-2.04-2.55C14.75 14.64 13.42 14 12 14s-2.75.64-3.64 1.75L6.32 18.3A1.863 1.863 0 0 1 3 17.14V9.5C3 7.57 4.57 6 6.5 6h11C19.43 6 21 7.57 21 9.5z"/></svg>