<svg xmlns="http://www.w3.org/2000/svg" viewBox="0 0 24 24" width="24" height="24"><path d="m18.15,7.18c.45-.61.51-1.41.17-2.09-.34-.68-1.03-1.1-1.78-1.1H7.46c-.76,0-1.44.42-1.78,1.1-.34.68-.28,1.47.17,2.09l3.1,4.23c.26.35.26.83,0,1.18l-3.1,4.23c-.45.61-.51,1.41-.17,2.09.34.68,1.03,1.1,1.78,1.1h9.08c.76,0,1.44-.42,1.78-1.1.34-.68.28-1.47-.17-2.09l-3.1-4.23c-.26-.35-.26-.83,0-1.18l3.1-4.23Zm-3.91,6l3.1,4.23c.23.31.26.7.09,1.04-.17.34-.51.55-.89.55H7.46c-.38,0-.72-.21-.89-.55-.17-.34-.14-.73.09-1.04l3.1-4.23c.52-.71.52-1.66,0-2.37l-3.1-4.23c-.23-.31-.26-.7-.09-1.04.17-.34.51-.55.89-.55h9.08c.38,0,.72.21.89.55.17.34.14.73-.09,1.04l-3.1,4.23c-.52.71-.52,1.66,0,2.37Z"/></svg>