<svg xmlns="http://www.w3.org/2000/svg" viewBox="0 0 24 24" width="24" height="24"><path d="m18.15,7.18c.45-.61.51-1.41.17-2.09-.34-.68-1.03-1.1-1.78-1.1h-5.02c-1.11,0-2.17.53-2.82,1.43l-3.95,5.39c-.52.71-.52,1.66,0,2.37l3.95,5.39c.66.9,1.71,1.43,2.82,1.43h5.02c.76,0,1.44-.42,1.78-1.1.34-.68.28-1.47-.17-2.09l-3.1-4.23c-.26-.35-.26-.83,0-1.18l3.1-4.23Zm-3.91,6l3.1,4.23c.23.31.26.7.09,1.04-.17.34-.51.55-.89.55h-5.02c-.79,0-1.55-.38-2.02-1.02l-3.95-5.39c-.26-.35-.26-.83,0-1.18l3.95-5.39c.47-.64,1.22-1.02,2.02-1.02h5.02c.38,0,.72.21.89.55.17.34.14.73-.09,1.04l-3.1,4.23c-.52.71-.52,1.66,0,2.37Z"/></svg>