<svg xmlns="http://www.w3.org/2000/svg" width="24" height="24" viewBox="0 0 24 24"><path d="M19 9h-5.38c-.12 0-.18-.07-.21-.11s-.07-.13-.02-.23l1.2-2.88a1.997 1.997 0 0 0-1.84-2.77h-.38c-.39 0-.76.19-1 .5l-4.12 5.5H5c-1.1 0-2 .9-2 2v7c0 1.1.9 2 2 2h10.15c1.33 0 2.53-.74 3.13-1.93l2.51-5.03c.14-.28.21-.58.21-.89v-1.15c0-1.1-.9-2-2-2ZM7 19H5c-.55 0-1-.45-1-1v-7c0-.55.45-1 1-1h2zm13-6.85c0 .15-.04.31-.11.45l-2.51 5.03c-.43.85-1.28 1.38-2.24 1.38H7.99V9.68l4.17-5.57c.05-.06.12-.1.2-.1h.38c.34 0 .64.16.83.45.19.28.22.63.09.94l-1.2 2.88c-.16.39-.12.83.11 1.17s.62.56 1.04.56h5.38c.55 0 1 .45 1 1v1.15Z"/></svg>