<svg xmlns="http://www.w3.org/2000/svg" viewBox="0 0 24 24" width="24" height="24"><path d="m4.14,16c0,.56.31,1.07.8,1.32l5.43,2.88c.51.27,1.07.41,1.63.41s1.12-.13,1.63-.41l5.43-2.88c.49-.26.8-.76.8-1.32s-.31-1.07-.8-1.32l-1.28-.68,1.28-.68c.49-.26.8-.76.8-1.32s-.31-1.07-.8-1.32l-5.43-2.88c-1.02-.54-2.24-.54-3.27,0l-5.43,2.88c-.49.26-.8.76-.8,1.32s.31,1.07.8,1.32l1.28.68-1.28.68c-.49.26-.8.76-.8,1.32Zm1-4c0-.19.1-.35.27-.44l5.43-2.88c.36-.19.76-.29,1.17-.29s.81.1,1.17.29l5.43,2.88c.17.09.26.25.26.44s-.1.35-.26.44c0,0,0,0,0,0l-5.43,2.88c-.72.38-1.61.38-2.33,0l-5.43-2.88c-.17-.09-.26-.25-.26-.44Zm.27,3.56l1.88-1,3.09,1.64c1.02.54,2.24.54,3.27,0l3.09-1.63,1.88,1c.17.09.26.25.26.44s-.1.35-.26.44c0,0,0,0,0,0l-5.43,2.88c-.72.38-1.61.38-2.33,0l-5.43-2.88c-.17-.09-.26-.25-.26-.44s.1-.35.27-.44Z"/><path d="m20.5,5h-1.5v-1.5c0-.28-.22-.5-.5-.5s-.5.22-.5.5v1.5h-1.5c-.28,0-.5.22-.5.5s.22.5.5.5h1.5v1.5c0,.28.22.5.5.5s.5-.22.5-.5v-1.5h1.5c.28,0,.5-.22.5-.5s-.22-.5-.5-.5Z"/></svg>