<svg xmlns="http://www.w3.org/2000/svg" viewBox="0 0 24 24" width="24" height="24"><path d="m20.65,3.46c-.19-.07-.39-.02-.53.12-.08.08-1.96,1.92-5.09.34-1.84-.93-5.04-1.48-7.99,0h0c-3.84,1.93-5.18,6.81-3.05,11.1.37.75.81,1.39,1.31,1.94-.19,1.08-.3,2.25-.3,3.54,0,.28.22.5.5.5s.5-.22.5-.5c0-.98.06-1.89.18-2.74.74.57,1.57.98,2.51,1.2.58.14,1.16.19,1.73.19,2.2,0,4.23-.88,5.16-1.58,1.72-1.3,3.04-2.45,4.39-5.41,1.28-2.81,1.01-8.04,1-8.26-.01-.2-.14-.37-.32-.44Zm-1.59,8.28c-1.26,2.76-2.43,3.78-4.09,5.03-1.03.78-3.59,1.8-6.06,1.21-.97-.23-1.82-.69-2.54-1.37.44-2.04,1.26-3.64,2.47-4.79,2.07-1.96,4.59-1.84,4.62-1.84.27.01.51-.19.53-.47.02-.27-.19-.51-.47-.53-.12,0-2.96-.16-5.35,2.09-1.22,1.15-2.08,2.7-2.6,4.62-.25-.35-.48-.72-.69-1.14-1.65-3.33-1.13-7.89,2.6-9.77,2.62-1.32,5.45-.82,7.09,0,2.5,1.26,4.4.64,5.42.07.02,1.61-.06,4.95-.94,6.87Z"/></svg>