<svg xmlns="http://www.w3.org/2000/svg" viewBox="0 0 24 24" width="24" height="24"><path d="m4.94,9.33l5.43,2.87c.51.27,1.08.41,1.64.41s1.12-.14,1.64-.41l5.43-2.87c.49-.26.8-.77.8-1.33s-.31-1.06-.8-1.33l-5.43-2.87c-1.03-.54-2.25-.54-3.28,0l-5.43,2.87c-.49.26-.8.77-.8,1.33s.31,1.06.8,1.33Zm.47-1.77l5.43-2.87c.37-.19.77-.29,1.17-.29s.8.1,1.17.29l5.43,2.87c.24.13.27.35.27.44s-.03.31-.27.44l-5.43,2.87c-.73.39-1.61.39-2.34,0l-5.43-2.87c-.24-.13-.27-.35-.27-.44s.03-.31.27-.44Z"/><path d="m3.78,12.95l6.66,3.33c.49.25,1.03.37,1.57.37s1.08-.12,1.57-.37l6.66-3.33c.25-.12.35-.42.22-.67-.12-.25-.42-.35-.67-.22l-6.66,3.33c-.7.35-1.54.35-2.24,0l-6.66-3.33c-.25-.12-.55-.02-.67.22s-.02.55.22.67Z"/><path d="m3.78,16.95l6.66,3.33c.49.25,1.03.37,1.57.37s1.08-.12,1.57-.37l6.66-3.33c.25-.12.35-.42.22-.67-.12-.25-.42-.35-.67-.22l-6.66,3.33c-.7.35-1.54.35-2.24,0l-6.66-3.33c-.25-.12-.55-.02-.67.22s-.02.55.22.67Z"/></svg>