<svg xmlns="http://www.w3.org/2000/svg" width="24" height="24" viewBox="0 0 24 24"><path d="M18.41 16.34c-.16-.14-.41-.02-.41.19V18H6v-1.47c0-.21-.25-.33-.41-.19l-2.36 1.97c-.12.1-.12.28 0 .38l2.36 1.97c.16.14.41.02.41-.19V19h12v1.47c0 .21.25.33.41.19l2.36-1.97c.12-.1.12-.28 0-.38zM3.83 14.97c.26.09.55-.05.64-.31l1.11-3.17h4.84l1.11 3.17c.07.21.27.33.47.33.05 0 .11 0 .17-.03.26-.09.4-.38.31-.64l-3.5-10a.5.5 0 0 0-.47-.33h-1c-.21 0-.4.13-.47.33l-3.5 10c-.09.26.05.55.31.64ZM7.85 5h.29l1.93 5.5H5.93L7.86 5ZM15.03 14.67c.07.2.26.33.47.33h1c.21 0 .4-.13.47-.33l3.5-10a.506.506 0 0 0-.31-.64.506.506 0 0 0-.64.31l-3.38 9.67h-.29l-3.38-9.67a.502.502 0 1 0-.95.33l3.5 10Z"/></svg>