<svg xmlns="http://www.w3.org/2000/svg" viewBox="0 0 24 24" width="24" height="24"><path class="b" d="m8,15.73v1.77c0,1.93,1.57,3.5,3.5,3.5h1c1.93,0,3.5-1.57,3.5-3.5v-1.77c1.88-1.31,3-3.42,3-5.73,0-3.86-3.14-7-7-7s-7,3.14-7,7c0,2.31,1.12,4.42,3,5.73Zm4-11.73c3.31,0,6,2.69,6,6,0,2.03-1,3.89-2.69,5h-2.81v-2s0-.03-.01-.05c1.42-.24,2.51-1.46,2.51-2.95,0-.28-.22-.5-.5-.5s-.5.22-.5.5c0,1.1-.9,2-2,2s-2-.9-2-2c0-.28-.22-.5-.5-.5s-.5.22-.5.5c0,1.49,1.09,2.71,2.51,2.95,0,.02-.01.03-.01.05v2h-2.81c-1.69-1.11-2.69-2.97-2.69-5,0-3.31,2.69-6,6-6Z"/></svg>