<svg xmlns="http://www.w3.org/2000/svg" viewBox="0 0 24 24" width="24" height="24"><path d="m11.5,8.95v8.55c0,.28.22.5.5.5s.5-.22.5-.5v-8.55c1.42-.24,2.5-1.47,2.5-2.95,0-1.65-1.35-3-3-3s-3,1.35-3,3c0,1.48,1.08,2.71,2.5,2.95Zm.5-4.95c1.1,0,2,.9,2,2s-.9,2-2,2-2-.9-2-2,.9-2,2-2Z"/><path d="m20.12,16.62c-.47-.33-1.13-.62-1.97-.86-.8-.24-1.74-.42-2.78-.55-.27-.04-.52.16-.56.43-.03.27.16.52.43.56.99.12,1.87.3,2.62.52.72.21,1.3.46,1.68.73.29.2.45.41.45.56s-.17.36-.45.56c-.38.26-.96.51-1.68.73-.75.22-1.63.4-2.62.52-2.06.26-4.43.26-6.49,0-.99-.12-1.87-.3-2.62-.52-.72-.21-1.3-.46-1.68-.73-.29-.2-.45-.41-.45-.56s.17-.36.45-.56c.38-.26.96-.51,1.68-.73.75-.22,1.63-.4,2.62-.52.27-.03.47-.28.43-.56s-.28-.47-.56-.43c-1.04.13-1.98.32-2.78.55-.83.24-1.49.54-1.97.86-.59.41-.88.87-.88,1.38s.3.98.88,1.38c.47.33,1.13.62,1.97.86.8.24,1.74.42,2.78.55,1.07.13,2.21.2,3.37.2s2.3-.07,3.37-.2c1.04-.13,1.98-.32,2.78-.55.83-.24,1.49-.54,1.97-.86.59-.41.88-.87.88-1.38s-.3-.98-.88-1.38Z"/></svg>