<svg xmlns="http://www.w3.org/2000/svg" viewBox="0 0 24 24" width="24" height="24"><path class="b" d="m18,4h-3c-1.1,0-2,.9-2,2v3c0,1.1.9,2,2,2h3c1.1,0,2-.9,2-2v-3c0-1.1-.9-2-2-2Zm1,5c0,.55-.45,1-1,1h-3c-.55,0-1-.45-1-1v-3c0-.55.45-1,1-1h3c.55,0,1,.45,1,1v3Z"/><path class="b" d="m9,4h-3c-1.1,0-2,.9-2,2v12c0,1.1.9,2,2,2h3c1.1,0,2-.9,2-2V6c0-1.1-.9-2-2-2Zm1,14c0,.55-.45,1-1,1h-3c-.55,0-1-.45-1-1V6c0-.55.45-1,1-1h3c.55,0,1,.45,1,1v12Z"/><path class="b" d="m19.5,16h-6c-.28,0-.5.22-.5.5s.22.5.5.5h6c.28,0,.5-.22.5-.5s-.22-.5-.5-.5Z"/></svg>