<svg xmlns="http://www.w3.org/2000/svg" viewBox="0 0 24 24" width="24" height="24"><path d="m9.5,15.5c-.28,0-.5.22-.5.5v.81c0,.74-.53,1.36-1.25,1.48l-2,.33c-.44.07-.88-.05-1.22-.33-.34-.29-.53-.7-.53-1.15v-6.64c0-1.93,1.57-3.5,3.5-3.5.83,0,1.5.67,1.5,1.5v1c0,.28.22.5.5.5s.5-.22.5-.5v-1c0-1.38-1.12-2.5-2.5-2.5-2.48,0-4.5,2.02-4.5,4.5v6.64c0,.74.32,1.43.88,1.91.46.39,1.03.59,1.61.59.14,0,.27-.01.41-.03l2-.33c1.21-.2,2.09-1.24,2.09-2.47v-.81c0-.28-.22-.5-.5-.5Z"/><path d="m16.5,6c-1.38,0-2.5,1.12-2.5,2.5v1c0,.28.22.5.5.5s.5-.22.5-.5v-1c0-.83.67-1.5,1.5-1.5,1.93,0,3.5,1.57,3.5,3.5v6.64c0,.44-.19.86-.53,1.15-.34.29-.78.41-1.22.33l-2-.33c-.73-.12-1.25-.74-1.25-1.48v-.81c0-.28-.22-.5-.5-.5s-.5.22-.5.5v.81c0,1.23.88,2.26,2.09,2.47l2,.33c.14.02.27.03.41.03.59,0,1.16-.21,1.61-.59.56-.48.88-1.17.88-1.91v-6.64c0-2.48-2.02-4.5-4.5-4.5Z"/><path d="m16.5,15.5c.13,0,.26-.05.35-.15.2-.2.2-.51,0-.71l-2.65-2.65h3.29c.28,0,.5-.22.5-.5s-.22-.5-.5-.5h-5V2.5c0-.28-.22-.5-.5-.5s-.5.22-.5.5v8.5h-5c-.28,0-.5.22-.5.5s.22.5.5.5h3.29l-2.65,2.65c-.2.2-.2.51,0,.71s.51.2.71,0l3.35-3.35h1.59l3.35,3.35c.1.1.23.15.35.15Z"/></svg>