<svg xmlns="http://www.w3.org/2000/svg" viewBox="0 0 24 24" width="24" height="24"><path d="m12,3c-3.86,0-7,3.19-7,7.11-.02,4.55,3.98,8.5,5.7,9.98.37.32.84.48,1.3.48s.93-.16,1.3-.48c1.72-1.49,5.72-5.43,5.7-9.98,0-3.92-3.14-7.11-7-7.11Zm.65,16.33c-.37.32-.92.32-1.29,0-1.62-1.39-5.37-5.09-5.35-9.22,0-3.37,2.69-6.11,6-6.11s6,2.74,6,6.11h0c.02,4.13-3.74,7.83-5.35,9.22Z"/><path d="m14.83,7.17c-.2-.2-.51-.2-.71,0l-2.12,2.12-2.12-2.12c-.2-.2-.51-.2-.71,0s-.2.51,0,.71l2.12,2.12-2.12,2.12c-.2.2-.2.51,0,.71.1.1.23.15.35.15s.26-.05.35-.15l2.12-2.12,2.12,2.12c.1.1.23.15.35.15s.26-.05.35-.15c.2-.2.2-.51,0-.71l-2.12-2.12,2.12-2.12c.2-.2.2-.51,0-.71Z"/></svg>