<svg xmlns="http://www.w3.org/2000/svg" viewBox="0 0 24 24" width="24" height="24"><path d="m19.08,3.12c-2.69-.25-9.36-.43-13.2,3.41-.89.89-1.63,2-2.19,3.29-1.32,3.06-.67,6.43,1.7,8.8,1.56,1.56,3.55,2.37,5.6,2.37,1.07,0,2.15-.22,3.2-.67,1.29-.56,2.4-1.3,3.29-2.19,3.84-3.84,3.66-10.51,3.41-13.2-.09-.96-.85-1.71-1.81-1.81Zm-2.31,14.3c-.8.8-1.81,1.47-2.98,1.98-2.22.96-4.62.71-6.56-.58.14-.62.31-1.25.53-1.84,1.15-3.25,3.4-6.04,6.25-7.97-3.66,1.78-6.58,4.86-8.18,8.6-1.84-2.05-2.32-4.84-1.22-7.39.51-1.18,1.17-2.18,1.98-2.98,2.69-2.69,6.97-3.23,10-3.23.96,0,1.79.05,2.4.11.49.05.86.42.91.91.24,2.55.42,8.86-3.12,12.4Z"/></svg>