<svg xmlns="http://www.w3.org/2000/svg" width="24" height="24" viewBox="0 0 24 24"><path d="M12 3c-.28 0-.5.22-.5.5v3c0 .28.22.5.5.5s.5-.22.5-.5v-3c0-.28-.22-.5-.5-.5M12 17c-.28 0-.5.22-.5.5v3c0 .28.22.5.5.5s.5-.22.5-.5v-3c0-.28-.22-.5-.5-.5M20.5 11.5h-3c-.28 0-.5.22-.5.5s.22.5.5.5h3c.28 0 .5-.22.5-.5s-.22-.5-.5-.5M7 12c0-.28-.22-.5-.5-.5h-3c-.28 0-.5.22-.5.5s.22.5.5.5h3c.28 0 .5-.22.5-.5M15.89 8.61c.13 0 .26-.05.35-.15l2.12-2.12c.2-.2.2-.51 0-.71s-.51-.2-.71 0l-2.12 2.12c-.2.2-.2.51 0 .71.1.1.23.15.35.15ZM7.76 15.54l-2.12 2.12c-.2.2-.2.51 0 .71a.485.485 0 0 0 .7 0l2.12-2.12c.2-.2.2-.51 0-.71s-.51-.2-.71 0ZM16.24 15.54c-.2-.2-.51-.2-.71 0s-.2.51 0 .71l2.12 2.12a.485.485 0 0 0 .7 0c.2-.2.2-.51 0-.71l-2.12-2.12ZM6.34 5.64c-.2-.2-.51-.2-.71 0s-.2.51 0 .71l2.12 2.12a.485.485 0 0 0 .7 0c.2-.2.2-.51 0-.71L6.33 5.64Z"/></svg>