<svg xmlns="http://www.w3.org/2000/svg" viewBox="0 0 24 24" width="24" height="24"><path d="m5.5,12.5h7c.28,0,.5-.22.5-.5s-.22-.5-.5-.5h-7c-.28,0-.5.22-.5.5s.22.5.5.5Z"/><path d="m5.5,8h13c.28,0,.5-.22.5-.5s-.22-.5-.5-.5H5.5c-.28,0-.5.22-.5.5s.22.5.5.5Z"/><path d="m5.5,17h7c.28,0,.5-.22.5-.5s-.22-.5-.5-.5h-7c-.28,0-.5.22-.5.5s.22.5.5.5Z"/><path d="m20.85,13.65c-.2-.2-.51-.2-.71,0l-2.15,2.15-2.15-2.15c-.2-.2-.51-.2-.71,0s-.2.51,0,.71l2.15,2.15-2.15,2.15c-.2.2-.2.51,0,.71.1.1.23.15.35.15s.26-.05.35-.15l2.15-2.15,2.15,2.15c.1.1.23.15.35.15s.26-.05.35-.15c.2-.2.2-.51,0-.71l-2.15-2.15,2.15-2.15c.2-.2.2-.51,0-.71Z"/></svg>