<svg xmlns="http://www.w3.org/2000/svg" width="24" height="24" viewBox="0 0 24 24"><path d="M20.5 11c-.28 0-.5.22-.5.5v4c0 .83-.67 1.5-1.5 1.5h-6c-.12 0-.24.05-.33.13l-3.33 3c-.22.2-.47.12-.54.08a.5.5 0 0 1-.3-.46V17.5c0-.28-.22-.5-.5-.5h-2c-.83 0-1.5-.67-1.5-1.5v-9C4 5.67 4.67 5 5.5 5h8c.28 0 .5-.22.5-.5s-.22-.5-.5-.5h-8A2.5 2.5 0 0 0 3 6.5v9A2.5 2.5 0 0 0 5.5 18H7v1.75c0 .6.34 1.13.89 1.37a1.5 1.5 0 0 0 1.62-.26l3.19-2.87h5.81a2.5 2.5 0 0 0 2.5-2.5v-4c0-.28-.22-.5-.5-.5Z"/><path d="M19 3a3 3 0 1 0 0 6 3 3 0 1 0 0-6"/></svg>