<svg xmlns="http://www.w3.org/2000/svg" viewBox="0 0 24 24" width="24" height="24"><path d="m13.56,3.14s0,0,0,0c0,0,0,0,0,0s0,0,0,0h0c-.48-.09-1-.14-1.55-.14C7.04,3,3,7.04,3,12s4.04,9,9,9c.55,0,1.07-.05,1.55-.14h0s0,0,0,0,0,0,0,0c0,0,0,0,0,0,4.09-.71,7.14-4.1,7.42-8.22.02-.21.02-.42.02-.64s0-.44-.02-.62c-.29-4.14-3.34-7.52-7.42-8.24Zm-3.89,2.86h-2.95c1.29-1.14,2.95-1.87,4.77-1.98-.7.5-1.31,1.19-1.82,1.98Zm-3.9,1h3.34c-.26.55-.48,1.13-.65,1.75h-3.75c.28-.63.64-1.22,1.07-1.75Zm2.45,7.25h-3.89c-.16-.56-.26-1.15-.3-1.75h3.98v-1h-3.98c.04-.6.14-1.19.3-1.75h3.89c-.13.72-.21,1.47-.21,2.25s.08,1.53.21,2.25Zm-3.51,1h3.75c.17.62.39,1.2.65,1.75h-3.34c-.43-.53-.78-1.12-1.07-1.75Zm2.02,2.75h2.95c.52.8,1.12,1.48,1.82,1.98-1.82-.12-3.48-.85-4.77-1.98Zm13.27-5.44c-.25,3.64-2.92,6.63-6.5,7.3-2.56-.7-4.48-4.05-4.48-7.85s1.92-7.15,4.48-7.85c3.58.67,6.25,3.65,6.5,7.32.02.17.02.35.02.54s0,.36-.02.56Z"/></svg>