<svg xmlns="http://www.w3.org/2000/svg" width="24" height="24" viewBox="0 0 24 24"><path d="M17.5 4h-11C4.57 4 3 5.57 3 7.5v7C3 16.43 4.57 18 6.5 18H7v1.75c0 .6.34 1.13.89 1.37a1.5 1.5 0 0 0 1.62-.26l3.19-2.87h4.81c1.93 0 3.5-1.57 3.5-3.5v-7c0-1.93-1.57-3.5-3.5-3.5ZM20 14.5a2.5 2.5 0 0 1-2.5 2.5h-5c-.12 0-.24.05-.33.13l-3.33 3c-.22.2-.47.12-.54.08a.5.5 0 0 1-.3-.46V17.5c0-.28-.22-.5-.5-.5h-1A2.5 2.5 0 0 1 4 14.5v-7A2.5 2.5 0 0 1 6.5 5h11A2.5 2.5 0 0 1 20 7.5z"/><path d="M14.79 7.79c-.44-.44-1.15-.44-1.59 0-.2.2-.2.51 0 .71l1.29 1.29c.2.2.51.2.71 0 .44-.44.44-1.15 0-1.59zM12.5 9.21c-.2-.2-.51-.2-.71 0L11 10l-2.85 2.85a.5.5 0 0 0-.15.35v1.29c0 .28.22.5.5.5h1.29c.13 0 .26-.05.35-.15l2.85-2.85.79-.79c.2-.2.2-.51 0-.71L12.49 9.2Z"/></svg>