<svg xmlns="http://www.w3.org/2000/svg" viewBox="0 0 24 24" width="24" height="24"><path d="m8.65,8.15c-1.06,1.06-1.65,2.47-1.65,3.98v5.38c0,1.93,1.57,3.5,3.5,3.5h3c1.76,0,3.2-1.31,3.45-3h.05v-6h-.01c-.03-1.46-.6-2.82-1.63-3.85-.87-.87-1.35-2.03-1.35-3.27v-.88h.5c.28,0,.5-.22.5-.5s-.22-.5-.5-.5h-5c-.28,0-.5.22-.5.5s.22.5.5.5h.5v.88c0,1.23-.48,2.39-1.35,3.27Zm4.35-4.15v.88c0,1.5.58,2.91,1.65,3.97.84.84,1.31,1.96,1.34,3.15h-3.49c-.83,0-1.5.67-1.5,1.5v3c0,.83.67,1.5,1.5,1.5h3.45c-.23,1.14-1.24,2-2.45,2h-3c-1.38,0-2.5-1.12-2.5-2.5v-5.38c0-1.23.48-2.4,1.35-3.27,1.06-1.06,1.65-2.47,1.65-3.97v-.88h2Z"/></svg>