<svg xmlns="http://www.w3.org/2000/svg" viewBox="0 0 24 24" width="24" height="24"><path d="m15.77,4.56c-.97-.97-2.56-.97-3.54,0l-7.67,7.67c-.97.97-.97,2.56,0,3.54l3.67,3.67c.49.49,1.13.73,1.77.73s1.28-.24,1.77-.73l7.67-7.67c.97-.97.97-2.56,0-3.54l-3.67-3.67Zm2.96,6.5l-7.67,7.67c-.58.58-1.54.58-2.12,0l-3.67-3.67c-.58-.58-.58-1.54,0-2.12l7.67-7.67c.29-.29.68-.44,1.06-.44s.77.15,1.06.44l3.67,3.67c.58.58.58,1.54,0,2.12Z"/><path d="m8.29,14.29c-.39.39-.39,1.02,0,1.41.39.39,1.02.39,1.41,0,.39-.39.39-1.02,0-1.41-.39-.39-1.02-.39-1.41,0Z"/><path d="m19.15,14.15l-5,5c-.2.2-.2.51,0,.71.1.1.23.15.35.15s.26-.05.35-.15l5-5c.2-.2.2-.51,0-.71s-.51-.2-.71,0Z"/><path d="m4.5,10c.13,0,.26-.05.35-.15l5-5c.2-.2.2-.51,0-.71s-.51-.2-.71,0l-5,5c-.2.2-.2.51,0,.71.1.1.23.15.35.15Z"/></svg>