<svg xmlns="http://www.w3.org/2000/svg" viewBox="0 0 24 24" width="24" height="24"><path d="m19,3c-1.1,0-2,.9-2,2v5h-1.29c.31-1.8-.42-3.64-1.94-4.74l-2.97-2.16c-.17-.13-.41-.13-.59,0l-2.97,2.16c-1.52,1.1-2.24,2.94-1.94,4.74h-1.29c-.55,0-1,.45-1,1v9c0,.55.45,1,1,1h16c.55,0,1-.45,1-1V5c0-1.1-.9-2-2-2Zm-11.18,3.07l2.68-1.95,2.68,1.95c1.25.91,1.82,2.45,1.5,3.93H6.32c-.32-1.48.25-3.02,1.5-3.93Zm-3.82,4.93h13v1H4v-1Zm9.5,3s-1.5,1-1.5,3v3h-3v-3c0-2-1.5-3-1.5-3,0,0-1.5,1-1.5,3v3h-2v-7h13v7h-2v-3c0-2-1.5-3-1.5-3Zm6.5,6v.5s0-.5,0-.5h-2V7h2v13h0Zm-2-14v-1c0-.55.45-1,1-1s1,.45,1,1v1h-2Z"/></svg>