<svg xmlns="http://www.w3.org/2000/svg" viewBox="0 0 24 24" width="24" height="24"><path d="M7 7A1 1 0 1 0 7 9 1 1 0 1 0 7 7z"/><path d="m14.1,8.8c-.3-.4-.9-.4-1.2,0l-2,2.67c-.2.27-.6.27-.8,0l-.5-.67c-.3-.4-.9-.4-1.2,0l-1.8,2.4c-.25.33-.01.8.4.8h10c.41,0,.65-.47.4-.8l-3.3-4.4Z"/><path d="m19,4H5c-1.1,0-2,.9-2,2v9c0,1.1.9,2,2,2h6.5v3h-3c-.28,0-.5.22-.5.5s.22.5.5.5h7c.28,0,.5-.22.5-.5s-.22-.5-.5-.5h-3v-3h6.5c1.1,0,2-.9,2-2V6c0-1.1-.9-2-2-2Zm1,11c0,.55-.45,1-1,1H5c-.55,0-1-.45-1-1V6c0-.55.45-1,1-1h14c.55,0,1,.45,1,1v9Z"/></svg>