<svg xmlns="http://www.w3.org/2000/svg" viewBox="0 0 24 24" width="24" height="24"><path d="m19.06,14.27c-.68.1-1.37.12-2.06.05-3.78-.39-6.93-3.53-7.31-7.31-.07-.69-.06-1.38.05-2.06.07-.46-.13-.91-.51-1.18-.4-.28-.92-.31-1.35-.08-3.32,1.78-5.2,5.36-4.81,9.11.45,4.28,3.88,7.71,8.16,8.16.33.04.66.05.99.05,3.38,0,6.5-1.84,8.12-4.86.23-.43.2-.95-.08-1.35-.27-.38-.73-.58-1.18-.51Zm.39,1.39c-1.59,2.96-4.77,4.63-8.13,4.29-3.75-.4-6.88-3.52-7.27-7.27-.35-3.35,1.33-6.54,4.29-8.12.05-.02.09-.03.13-.03.07,0,.13.02.17.05.05.04.12.11.1.22-.11.76-.13,1.54-.05,2.31.44,4.24,3.96,7.77,8.21,8.21.77.08,1.55.06,2.31-.05.11-.01.18.04.22.1.05.07.08.19.02.31Z"/><path d="m12.14,6.22l.84.38c.63.29,1.13.79,1.42,1.42l.38.84c.08.19.35.19.43,0l.38-.84c.29-.63.79-1.13,1.42-1.42l.84-.38c.19-.08.19-.35,0-.43l-.84-.38c-.63-.29-1.13-.79-1.42-1.42l-.38-.84c-.08-.19-.35-.19-.43,0l-.38.84c-.29.63-.79,1.13-1.42,1.42l-.84.38c-.19.08-.19.35,0,.43Z"/><path d="m20.35,9.6c-.42-.19-.76-.53-.95-.95l-.25-.56c-.06-.12-.23-.12-.29,0l-.25.56c-.19.42-.53.76-.95.95l-.56.25c-.12.06-.12.23,0,.29l.56.25c.42.19.76.53.95.95l.25.56c.06.12.23.12.29,0l.25-.56c.19-.42.53-.76.95-.95l.56-.25c.12-.06.12-.23,0-.29l-.56-.25Z"/></svg>