<svg xmlns="http://www.w3.org/2000/svg" width="24" height="24" viewBox="0 0 24 24"><path d="M14 8.33V4h.5c.28 0 .5-.22.5-.5s-.22-.5-.5-.5h-5c-.28 0-.5.22-.5.5s.22.5.5.5h.5v4.33l-5.09 6.66a3.75 3.75 0 0 0-.28 4.13A3.75 3.75 0 0 0 7.88 21h8.24c1.34 0 2.58-.72 3.25-1.88.75-1.31.64-2.93-.28-4.13zm-3.1.47c.07-.09.1-.19.1-.3V4h2v4.5c0 .11.04.22.1.3l4.89 6.39c-1.93-.21-3.04-1.01-4.2-1.85-1.25-.91-2.53-1.84-4.8-2.05zm7.6 9.82c-.49.85-1.4 1.38-2.38 1.38H7.88c-.98 0-1.89-.53-2.38-1.38-.55-.96-.47-2.15.2-3.02l2.55-3.33c2.41.06 3.65.95 4.95 1.89 1.36.99 2.77 2 5.45 2.08.31.77.27 1.64-.16 2.39Z"/></svg>