<svg xmlns="http://www.w3.org/2000/svg" width="24" height="24" viewBox="0 0 24 24"><path d="M6.5 18H7v1.75c0 .6.34 1.13.89 1.37a1.5 1.5 0 0 0 1.62-.26l3.19-2.87h4.81c1.93 0 3.5-1.57 3.5-3.5v-7c0-1.93-1.57-3.5-3.5-3.5H6.5C4.57 3.99 3 5.56 3 7.49v7c0 1.93 1.57 3.5 3.5 3.5ZM4 7.5A2.5 2.5 0 0 1 6.5 5h11A2.5 2.5 0 0 1 20 7.5v7a2.5 2.5 0 0 1-2.5 2.5h-5c-.12 0-.24.05-.33.13l-3.33 3c-.22.2-.47.12-.54.08a.5.5 0 0 1-.3-.46V17.5c0-.28-.22-.5-.5-.5h-1A2.5 2.5 0 0 1 4 14.5z"/><path d="M10.65 13.35a.485.485 0 0 0 .7 0l4-4c.2-.2.2-.51 0-.71s-.51-.2-.71 0l-3.65 3.65-1.65-1.65c-.2-.2-.51-.2-.71 0s-.2.51 0 .71l2 2Z"/></svg>