<svg xmlns="http://www.w3.org/2000/svg" width="24" height="24" viewBox="0 0 24 24"><path d="M15.5 13.5h-3v-3c0-.28-.22-.5-.5-.5s-.5.22-.5.5v3h-3c-.28 0-.5.22-.5.5s.22.5.5.5h3v3c0 .28.22.5.5.5s.5-.22.5-.5v-3h3c.28 0 .5-.22.5-.5s-.22-.5-.5-.5"/><path d="M17.5 7H17V5.5A2.5 2.5 0 0 0 14.5 3h-5A2.5 2.5 0 0 0 7 5.5V7h-.5C4.57 7 3 8.57 3 10.5v7C3 19.43 4.57 21 6.5 21h11c1.93 0 3.5-1.57 3.5-3.5v-7C21 8.57 19.43 7 17.5 7M8 5.5C8 4.67 8.67 4 9.5 4h5c.83 0 1.5.67 1.5 1.5V7H8zm12 12a2.5 2.5 0 0 1-2.5 2.5h-11A2.5 2.5 0 0 1 4 17.5v-7A2.5 2.5 0 0 1 6.5 8h11a2.5 2.5 0 0 1 2.5 2.5z"/></svg>