<svg xmlns="http://www.w3.org/2000/svg" viewBox="0 0 24 24" width="24" height="24"><path d="m20.7,9.49c-.18-.08-.4-.04-.54.09-.03.03-.85.76-2.47.76-.65,0-.97-.24-1.37-.54-.49-.36-1.1-.81-2.28-.81h0c-.76,0-1.48.23-2.03.65-.55-.42-1.27-.65-2.03-.65-1.19,0-1.79.45-2.28.81-.41.3-.73.54-1.37.54-1.62,0-2.44-.73-2.47-.76-.15-.14-.36-.17-.54-.1-.18.08-.3.26-.3.46,0,1.22.62,2.42,1.73,3.38,1.47,1.27,3.51,1.88,5.31,1.61.66-.1,1.39-.26,1.96-.66.57.4,1.29.56,1.96.66.28.04.57.06.86.06,1.56,0,3.21-.61,4.45-1.67,1.12-.96,1.73-2.16,1.73-3.38,0-.2-.12-.38-.3-.46Zm-2.09,3.07c-1.24,1.07-3.01,1.61-4.51,1.38-.64-.1-1.35-.25-1.74-.67-.09-.1-.23-.16-.37-.16s-.27.06-.37.16c-.39.42-1.1.57-1.74.67-1.5.23-3.27-.32-4.51-1.38-.57-.49-.98-1.05-1.2-1.63.52.22,1.23.41,2.13.41.98,0,1.5-.39,1.97-.73.45-.33.83-.62,1.69-.62.66,0,1.28.25,1.66.67.19.21.54.21.73,0,.38-.42,1.01-.67,1.66-.67h0c.86,0,1.24.29,1.69.61.46.34.99.73,1.97.73.9,0,1.61-.19,2.13-.41-.22.58-.63,1.14-1.2,1.63Z"/></svg>