<svg xmlns="http://www.w3.org/2000/svg" viewBox="0 0 24 24" width="24" height="24"><path d="m15.78,3c-1.39,0-2.7.54-3.7,1.53-.98.99-1.52,2.31-1.52,3.69,0,.24.02.48.05.7l-6.41,7.62c-.78.93-.72,2.28.13,3.13.45.45,1.04.68,1.64.68.53,0,1.06-.18,1.5-.55l7.61-6.41c.23.03.46.05.7.05,1.39,0,2.7-.54,3.7-1.53.98-.99,1.52-2.31,1.52-3.69s-.54-2.7-1.53-3.7c-.99-.98-2.31-1.52-3.69-1.52ZM6.82,19.04c-.53.44-1.29.41-1.78-.08-.49-.49-.52-1.25-.08-1.78l6.13-7.28,3.01,3.01-7.28,6.13Zm8.15-6.68l-3.33-3.33c-.05-.25-.08-.53-.08-.82,0-1.06.4-2.06,1.11-2.85l5.95,5.95c-.79.71-1.78,1.11-2.84,1.11-.29,0-.56-.03-.82-.08Zm4.32-1.79l-5.86-5.86c.69-.46,1.51-.72,2.36-.72,1.12,0,2.19.44,2.99,1.23.8.8,1.23,1.87,1.23,2.99,0,.85-.25,1.66-.72,2.36Z"/></svg>