<svg xmlns="http://www.w3.org/2000/svg" viewBox="0 0 24 24" width="24" height="24"><path d="m17,8v-3.23c0-.45-.23-.85-.62-1.08s-.85-.23-1.24-.02l-5.7,3.17c-1.36.75-2.89,1.15-4.44,1.15-1.1,0-2,.9-2,2v3c0,1.1.9,2,2,2h.45c.52,0,1.04.06,1.55.14v5.36c0,.28.22.5.5.5s.5-.22.5-.5v-5.13c.4.12.79.25,1.17.42l6.07,2.7c.16.07.34.11.51.11.24,0,.47-.07.68-.2.36-.23.57-.62.57-1.05v-3.35c1.65,0,3-1.35,3-3s-1.35-3-3-3Zm-11.55,6h-.45c-.55,0-1-.45-1-1v-3c0-.55.45-1,1-1,.67,0,1.34-.09,2-.22v5.35c-.51-.08-1.02-.13-1.55-.13Zm10.55,3.35c0,.12-.07.18-.11.21-.04.03-.13.07-.24.02l-6.07-2.7c-.51-.23-1.04-.4-1.57-.54v-5.81c.67-.21,1.32-.46,1.93-.8l5.7-3.17s.08-.03.12-.03c.06,0,.1.02.13.04.04.02.12.09.12.22v12.57Zm1-4.35v-4c1.1,0,2,.9,2,2s-.9,2-2,2Z"/></svg>