<svg xmlns="http://www.w3.org/2000/svg" viewBox="0 0 24 24" width="24" height="24"><path d="m11.5,15.65v4.35h-1.98c-.28,0-.5.22-.5.5s.22.5.5.5h4.96c.28,0,.5-.22.5-.5s-.22-.5-.5-.5h-1.98v-4.35l6.88-10.09c.21-.31.23-.7.06-1.03-.17-.33-.51-.53-.88-.53H5.45c-.37,0-.71.2-.88.53-.17.33-.15.72.06,1.03l6.88,10.09Zm-2.33-5.19c.21.04.42.07.63.07.9,0,1.8-.4,2.56-1.19,1-1.05,2.23-1.17,3.29-.34l.11.09-3.76,5.52-2.83-4.15Zm9.38-5.46l-2.23,3.27-.06-.05c-1.46-1.15-3.28-.98-4.63.44-1,1.04-2.23,1.17-3.29.34l-.39-.31-2.51-3.68h13.11Z"/></svg>