<svg xmlns="http://www.w3.org/2000/svg" viewBox="0 0 24 24" width="24" height="24"><path d="M9 10A2 2 0 1 0 9 14 2 2 0 1 0 9 10z"/><path d="M15 10A2 2 0 1 0 15 14 2 2 0 1 0 15 10z"/><path d="m18,5.29c-1.93-1.73-4.43-2.52-7.03-2.23-4.03.45-7.34,3.69-7.89,7.7-.31,2.33.27,4.66,1.65,6.54.13.18.14.4.03.56l-1.11,1.57c-.22.31-.25.7-.07,1.04s.51.54.89.54h7.53c4.96,0,9-4.04,9-9,0-2.56-1.09-5-3-6.71Zm-6,14.71h-7.53l1.11-1.57c.36-.51.35-1.2-.04-1.73-1.22-1.67-1.74-3.74-1.46-5.82.48-3.57,3.43-6.44,7.01-6.84.31-.04.62-.05.93-.05,1.97,0,3.83.71,5.32,2.04,1.7,1.52,2.67,3.69,2.67,5.96,0,4.41-3.59,8-8,8Z"/></svg>