<svg xmlns="http://www.w3.org/2000/svg" width="24" height="24" viewBox="0 0 24 24"><path d="M9 6v6c0 1.65 1.35 3 3 3s3-1.35 3-3V6c0-1.65-1.35-3-3-3S9 4.35 9 6m5 0v6c0 1.1-.9 2-2 2s-2-.9-2-2v-1h1.5c.28 0 .5-.22.5-.5s-.22-.5-.5-.5H10V8h1.5c.28 0 .5-.22.5-.5s-.22-.5-.5-.5H10V6c0-1.1.9-2 2-2s2 .9 2 2"/><path d="M11.5 17.97v2.53c0 .28.22.5.5.5s.5-.22.5-.5v-2.53c3.07-.26 5.5-2.83 5.5-5.97 0-.28-.22-.5-.5-.5s-.5.22-.5.5c0 2.76-2.24 5-5 5s-5-2.24-5-5c0-.28-.22-.5-.5-.5s-.5.22-.5.5c0 3.14 2.43 5.72 5.5 5.97"/></svg>