<svg xmlns="http://www.w3.org/2000/svg" viewBox="0 0 24 24" width="24" height="24"><path d="m20.66,13.62l-1.15-.14-.67-1.33c-.14-.29-.55-.29-.69,0l-.67,1.33-1.15.14c-.33.04-.46.46-.2.68l1.02.86-.38,1.35c-.1.35.29.63.59.43l1.15-.76,1.15.76c.3.2.69-.08.59-.43l-.38-1.35,1.02-.86c.26-.22.13-.64-.2-.68Z"/><path d="m5.15,8.23l-.38,1.35c-.1.35.29.63.59.43l1.15-.76,1.15.76c.3.2.69-.08.59-.43l-.38-1.35,1.02-.86c.26-.22.13-.64-.2-.68l-1.15-.14-.67-1.33c-.14-.29-.55-.29-.69,0l-.67,1.33-1.15.14c-.33.04-.46.46-.2.68l1.02.86Z"/><path d="m10.68,4.91l-.23.8c-.06.2.17.37.35.25l.68-.45.68.45c.18.12.41-.05.35-.25l-.23-.8.6-.51c.15-.13.08-.38-.12-.4l-.68-.09-.39-.79c-.08-.17-.33-.17-.41,0l-.39.79-.68.09c-.2.02-.27.27-.12.4l.6.51Z"/><path d="m20.59,6.33c0-.4-.16-.78-.44-1.06l-1.42-1.42c-.57-.57-1.55-.57-2.12,0L3.85,16.61c-.28.28-.44.66-.44,1.06,0,.4.16.78.44,1.06l1.42,1.42c.28.28.66.44,1.06.44s.78-.16,1.06-.44l12.75-12.75c.28-.28.44-.66.44-1.06Zm-13.9,13.11c-.19.19-.52.19-.71,0l-1.42-1.42c-.09-.09-.15-.22-.15-.35s.05-.26.15-.35l9.02-9.02,2.13,2.13-9.02,9.02Zm12.75-12.75l-3.02,3.02-2.13-2.13,3.02-3.02c.09-.09.22-.15.35-.15s.26.05.35.15h0l1.42,1.42c.09.09.15.22.15.35s-.05.26-.15.35Z"/></svg>