<svg xmlns="http://www.w3.org/2000/svg" viewBox="0 0 24 24" width="24" height="24"><path d="m12,4c-4.96,0-9,3.14-9,7,0,2.36,1.49,4.51,4,5.82v2.6c0,.62.38,1.17.96,1.4.18.07.36.1.55.1.41,0,.81-.17,1.11-.49l2.2-2.42c.06,0,.12,0,.19,0,4.96,0,9-3.14,9-7s-4.04-7-9-7Zm0,13c-.08,0-.16,0-.23,0h-.15c-.15,0-.29.05-.39.16l-2.36,2.6c-.21.24-.47.16-.55.13-.07-.03-.32-.15-.32-.47v-2.91c0-.19-.11-.37-.28-.45-2.33-1.11-3.72-3-3.72-5.06,0-3.31,3.59-6,8-6s8,2.69,8,6-3.59,6-8,6Z"/><path d="M8.5 7A1.5 1.5 0 1 0 8.5 10 1.5 1.5 0 1 0 8.5 7z"/><path d="m14.54,9.89c-.26-.44-.88-.49-1.21-.1l-1.97,2.3c-.19.22-.53.23-.73.03l-.54-.54c-.31-.31-.82-.29-1.11.05l-1.29,1.55c-.27.33-.04.82.38.82h8.05c.39,0,.63-.42.43-.76l-2.01-3.35Z"/></svg>