<svg xmlns="http://www.w3.org/2000/svg" viewBox="0 0 24 24" width="24" height="24"><path d="m19.5,14.4s-.04-.02-.07-.03c-.43-.24-.93-.37-1.44-.37-.06,0-.11.02-.16.02l-1.76-4.03c.52-.04.93-.46.93-.99s-.45-1-1-1h-.8l-.22-.5c-.4-.91-1.3-1.5-2.29-1.5h-.19c-.28,0-.5.22-.5.5s.22.5.5.5h.19c.6,0,1.14.35,1.37.9l1.36,3.1h-3.99c-.37,0-.74.1-1.06.3l-3.3,2.06-1.78-1.78c-.37-.37-.89-.59-1.41-.59h-.38c-.28,0-.5.22-.5.5s.22.5.5.5h.38c.26,0,.52.11.71.29l1.75,1.75c-.11-.01-.22-.04-.33-.04-.95,0-1.83.44-2.39,1.19-.26.33-.45.74-.55,1.22-.04.19-.06.39-.06.59,0,1.65,1.35,3,3,3s3-1.35,3-3c0-.11-.02-.22-.03-.33l.74.74c.37.37.89.59,1.41.59h1.76c.53,0,1.04-.21,1.41-.59l.73-.73c-.01.11-.03.21-.03.32,0,1.65,1.35,3,3,3s3-1.35,3-3c0-1.06-.57-2.06-1.5-2.6Zm-13.5,4.6c-1.1,0-2-.9-2-2,0-.14.02-.28.04-.39.07-.31.19-.59.36-.8.38-.51.97-.8,1.6-.8.35,0,.69.09.99.26.02,0,.04.02.05.03.48.3.81.77.92,1.3.02.13.04.27.04.41,0,1.1-.9,2-2,2Zm7.59-2.29c-.19.19-.44.29-.71.29h-1.76c-.26,0-.52-.11-.71-.29l-2.62-2.62,3.1-1.94c.16-.1.34-.15.53-.15h4.43l.74,1.69-3.02,3.02Zm4.41,2.29c-1.1,0-2-.9-2-2,0-.43.14-.86.4-1.2.38-.51.97-.8,1.6-.8.35,0,.69.09.99.26.02.01.04.02.06.03.59.37.96,1.02.96,1.71,0,1.1-.9,2-2,2Z"/></svg>