<svg xmlns="http://www.w3.org/2000/svg" width="24" height="24" viewBox="0 0 24 24"><path d="M9.5 7H7V4.5c0-.28-.22-.5-.5-.5s-.5.22-.5.5V7H3.5c-.28 0-.5.22-.5.5s.22.5.5.5H6v2.5c0 .28.22.5.5.5s.5-.22.5-.5V8h2.5c.28 0 .5-.22.5-.5S9.78 7 9.5 7M9.35 14.15c-.2-.2-.51-.2-.71 0L6.49 16.3l-2.15-2.15c-.2-.2-.51-.2-.71 0s-.2.51 0 .71l2.15 2.15-2.15 2.15c-.2.2-.2.51 0 .71a.485.485 0 0 0 .7 0l2.15-2.15 2.15 2.15a.485.485 0 0 0 .7 0c.2-.2.2-.51 0-.71l-2.15-2.15 2.15-2.15c.2-.2.2-.51 0-.71ZM20.5 7h-6c-.28 0-.5.22-.5.5s.22.5.5.5h6c.28 0 .5-.22.5-.5s-.22-.5-.5-.5M20.5 15h-6c-.28 0-.5.22-.5.5s.22.5.5.5h6c.28 0 .5-.22.5-.5s-.22-.5-.5-.5M20.5 18h-6c-.28 0-.5.22-.5.5s.22.5.5.5h6c.28 0 .5-.22.5-.5s-.22-.5-.5-.5"/></svg>