<svg xmlns="http://www.w3.org/2000/svg" width="24" height="24" viewBox="0 0 24 24"><path d="M20.17 6.28 16.1 4.25a1.5 1.5 0 0 0-1.18-.07l-6.2 2.21c-.13.05-.27.04-.39-.02L5.16 4.78c-.47-.23-1.01-.21-1.46.07s-.71.75-.71 1.28v10.26c0 .57.32 1.09.83 1.34l4.07 2.03c.21.1.44.16.67.16.17 0 .34-.03.5-.09l6.2-2.21c.13-.05.27-.04.39.02l3.17 1.59c.47.23 1.01.21 1.46-.07s.71-.75.71-1.28V7.62c0-.57-.32-1.09-.83-1.34ZM8 18.69l-3.72-1.86a.5.5 0 0 1-.28-.45V6.12a.52.52 0 0 1 .5-.51c.07 0 .14.01.22.05l3.17 1.59s.07.03.11.04v11.39Zm7-2.04s-.05 0-.07.02L9 18.79V7.34s.05 0 .07-.02L15 5.2zm5 1.23c0 .25-.17.38-.24.43s-.26.13-.49.02l-3.17-1.59s-.07-.03-.11-.04V5.31l3.72 1.86a.5.5 0 0 1 .28.45v10.26Z"/></svg>