<svg xmlns="http://www.w3.org/2000/svg" viewBox="0 0 24 24" width="24" height="24"><path d="M18 4A3 3 0 1 0 18 10 3 3 0 1 0 18 4z"/><path d="m20.5,11.45c-.24-.02-.5.28-.5.55,0,4.41-3.59,8-8,8h-7.53l1.11-1.57c.36-.51.35-1.2-.04-1.73-1.22-1.67-1.74-3.74-1.46-5.82.48-3.57,3.43-6.44,7.01-6.84.81-.09,1.64-.06,2.46.1.27.06.53-.12.59-.39.05-.27-.12-.53-.39-.59-.92-.18-1.85-.22-2.76-.12-4.03.45-7.34,3.69-7.89,7.7-.31,2.33.27,4.66,1.65,6.54.13.18.14.4.03.56l-1.11,1.57c-.22.31-.25.7-.07,1.04s.51.54.89.54h7.53c4.96,0,9-4.04,9-9v-.11c0-.27-.23-.44-.5-.44Z"/></svg>