<svg xmlns="http://www.w3.org/2000/svg" width="24" height="24" viewBox="0 0 24 24"><path d="M19.5 12.5c-.28 0-.5.22-.5.5 0 3.86-3.14 7-7 7s-7-3.14-7-7c0-.28-.22-.5-.5-.5s-.5.22-.5.5c0 4.41 3.59 8 8 8s8-3.59 8-8c0-.28-.22-.5-.5-.5"/><path d="M12 18c2.76 0 5-2.24 5-5V8c0-2.76-2.24-5-5-5S7 5.24 7 8v5c0 2.76 2.24 5 5 5m-.5-6H8V9h3.5c.28 0 .5-.22.5-.5s-.22-.5-.5-.5H8c0-2.21 1.79-4 4-4s4 1.79 4 4h-1.5c-.28 0-.5.22-.5.5s.22.5.5.5H16v3h-1.5c-.28 0-.5.22-.5.5s.22.5.5.5H16c0 2.21-1.79 4-4 4s-4-1.79-4-4h3.5c.28 0 .5-.22.5-.5s-.22-.5-.5-.5"/></svg>