<svg xmlns="http://www.w3.org/2000/svg" width="24" height="24" viewBox="0 0 24 24"><path d="M6.25 13h3.5c.69 0 1.25-.56 1.25-1.25v-3.5C11 7.56 10.44 7 9.75 7h-3.5C5.56 7 5 7.56 5 8.25v3.5c0 .69.56 1.25 1.25 1.25M6 8.25c0-.14.11-.25.25-.25h3.5c.14 0 .25.11.25.25v3.5c0 .14-.11.25-.25.25h-3.5c-.14 0-.25-.11-.25-.25zM15.5 15.5h-10c-.28 0-.5.22-.5.5s.22.5.5.5h10c.28 0 .5-.22.5-.5s-.22-.5-.5-.5M15.5 11.5h-2c-.28 0-.5.22-.5.5s.22.5.5.5h2c.28 0 .5-.22.5-.5s-.22-.5-.5-.5M15.5 7.5h-2c-.28 0-.5.22-.5.5s.22.5.5.5h2c.28 0 .5-.22.5-.5s-.22-.5-.5-.5"/><path d="M21.5 6c-.28 0-.5.22-.5.5V18c0 .55-.45 1-1 1s-1-.45-1-1V5.5c0-.83-.67-1.5-1.5-1.5h-14C2.67 4 2 4.67 2 5.5v12A2.5 2.5 0 0 0 4.5 20H20c1.1 0 2-.9 2-2V6.5c0-.28-.22-.5-.5-.5m-17 13c-.83 0-1.5-.67-1.5-1.5v-12c0-.28.22-.5.5-.5h14c.28 0 .5.22.5.5V18c0 .37.11.7.28 1z"/></svg>