<svg xmlns="http://www.w3.org/2000/svg" viewBox="0 0 24 24" width="24" height="24"><path d="m17.3,5.7c-.63-1.05-1.78-1.7-3-1.7h-4.6c-1.22,0-2.37.65-3,1.7l-2.7,4.5c-.67,1.11-.67,2.49,0,3.6l2.7,4.5c.63,1.05,1.78,1.7,3,1.7h4.6c1.22,0,2.37-.65,3-1.7l2.7-4.5c.67-1.11.67-2.49,0-3.6l-2.7-4.5Zm1.84,7.59l-2.7,4.5c-.45.75-1.27,1.21-2.14,1.21h-4.6c-.87,0-1.69-.46-2.14-1.21l-2.7-4.5c-.48-.79-.48-1.78,0-2.57l2.7-4.5c.45-.75,1.27-1.21,2.14-1.21h4.6c.87,0,1.69.46,2.14,1.21l2.7,4.5c.48.79.48,1.78,0,2.57Z"/><path d="m12,8c-2.21,0-4,1.79-4,4s1.79,4,4,4,4-1.79,4-4-1.79-4-4-4Zm0,7c-1.65,0-3-1.35-3-3s1.35-3,3-3,3,1.35,3,3-1.35,3-3,3Z"/></svg>