<svg xmlns="http://www.w3.org/2000/svg" width="24" height="24" viewBox="0 0 24 24"><path d="M7.25 13h3.5c.69 0 1.25-.56 1.25-1.25v-3.5C12 7.56 11.44 7 10.75 7h-3.5C6.56 7 6 7.56 6 8.25v3.5c0 .69.56 1.25 1.25 1.25M7 8.25c0-.14.11-.25.25-.25h3.5c.14 0 .25.11.25.25v3.5c0 .14-.11.25-.25.25h-3.5c-.14 0-.25-.11-.25-.25zM6.5 16.5h11c.28 0 .5-.22.5-.5s-.22-.5-.5-.5h-11c-.28 0-.5.22-.5.5s.22.5.5.5M14.5 12.5h3c.28 0 .5-.22.5-.5s-.22-.5-.5-.5h-3c-.28 0-.5.22-.5.5s.22.5.5.5M14.5 8.5h3c.28 0 .5-.22.5-.5s-.22-.5-.5-.5h-3c-.28 0-.5.22-.5.5s.22.5.5.5"/><path d="M6.5 20h11c1.93 0 3.5-1.57 3.5-3.5v-9C21 5.57 19.43 4 17.5 4h-11C4.57 4 3 5.57 3 7.5v9C3 18.43 4.57 20 6.5 20M4 7.5A2.5 2.5 0 0 1 6.5 5h11A2.5 2.5 0 0 1 20 7.5v9a2.5 2.5 0 0 1-2.5 2.5h-11A2.5 2.5 0 0 1 4 16.5z"/></svg>