<svg xmlns="http://www.w3.org/2000/svg" viewBox="0 0 24 24" width="24" height="24"><path d="m18.5,8c.28,0,.5-.22.5-.5s-.22-.5-.5-.5h-2.05l2.44-3.2c.17-.22.13-.53-.09-.7-.22-.17-.53-.13-.7.09l-2.91,3.8h-5.19c-2.76,0-5,2.24-5,5,0,2.01,1.2,3.73,2.91,4.53l-2.81,3.67c-.17.22-.13.53.09.7.09.07.2.1.3.1.15,0,.3-.07.4-.2l3.01-3.93c.35.08.72.13,1.1.13h8.5c.28,0,.5-.22.5-.5s-.22-.5-.5-.5h-8.5c-.14,0-.27-.03-.4-.04l6.09-7.96h2.81Zm-9.97,7.71c-1.48-.59-2.53-2.03-2.53-3.71,0-2.21,1.79-4,4-4h4.43l-5.9,7.71Z"/></svg>