<svg xmlns="http://www.w3.org/2000/svg" viewBox="0 0 24 24" width="24" height="24"><path d="m3.66,14.26c.41.27.93.32,1.39.12l4.95-2.12v3.97l-2.55,1.7c-.28.19-.45.5-.45.83v.96c0,.34.17.65.46.84.17.11.35.16.54.16.14,0,.28-.03.41-.09l3.59-1.6,3.59,1.6c.31.14.67.11.95-.08.29-.18.46-.5.46-.84v-.96c0-.33-.17-.65-.45-.83l-2.55-1.7v-3.97l4.95,2.12c.46.19.98.15,1.39-.12.41-.27.66-.73.66-1.23s-.25-.96-.67-1.24l-6.33-4.07v-2.73c0-1.1-.9-2-2-2s-2,.9-2,2v2.73l-6.33,4.07c-.42.27-.67.73-.67,1.24s.25.96.66,1.23Zm.55-1.62l6.55-4.21c.14-.09.23-.25.23-.42v-3c0-.55.45-1,1-1s1,.45,1,1v3c0,.17.09.33.23.42l6.55,4.21c.14.09.22.24.22.4s-.08.3-.21.39c-.13.09-.29.1-.44.04l-5.65-2.42c-.15-.06-.33-.05-.47.04-.14.09-.22.25-.22.42v5c0,.17.08.32.22.42l2.78,1.85v.96l-3.8-1.69c-.06-.03-.13-.04-.2-.04s-.14.01-.2.04l-3.8,1.69v-.96l2.78-1.85c.14-.09.22-.25.22-.42v-5c0-.17-.08-.33-.22-.42s-.32-.11-.47-.04l-5.65,2.42c-.15.06-.31.05-.44-.04-.13-.09-.21-.23-.21-.39s.08-.31.22-.39Z"/></svg>