<svg xmlns="http://www.w3.org/2000/svg" viewBox="0 0 24 24" width="24" height="24"><path d="m18.5,11h-1.5v-4.5c0-1.38-1.12-2.5-2.5-2.5h-.59c-.21-.58-.76-1-1.41-1h-5c-.65,0-1.2.42-1.41,1h-.59c-1.38,0-2.5,1.12-2.5,2.5v8c0,1.38,1.12,2.5,2.5,2.5h5.5v1.5c0,1.38,1.12,2.5,2.5,2.5h5c1.38,0,2.5-1.12,2.5-2.5v-5c0-1.38-1.12-2.5-2.5-2.5Zm-7.5,2.5v2.5h-5.5c-.83,0-1.5-.67-1.5-1.5V6.5c0-.83.67-1.5,1.5-1.5h.5v1.25c0,.41.34.75.75.75h6.5c.41,0,.75-.34.75-.75v-1.25h.5c.83,0,1.5.67,1.5,1.5v4.5h-2.5c-1.38,0-2.5,1.12-2.5,2.5Zm9,5c0,.83-.67,1.5-1.5,1.5h-5c-.83,0-1.5-.67-1.5-1.5v-5c0-.83.67-1.5,1.5-1.5h5c.83,0,1.5.67,1.5,1.5v5Z"/></svg>