<svg xmlns="http://www.w3.org/2000/svg" viewBox="0 0 24 24" width="24" height="24"><path d="m20.5,3H3.5c-.28,0-.5.22-.5.5s.22.5.5.5h1.5v14.5c0,1.38,1.12,2.5,2.5,2.5h9c1.38,0,2.5-1.12,2.5-2.5V4h1.5c.28,0,.5-.22.5-.5s-.22-.5-.5-.5Zm-2.5,15.5c0,.83-.67,1.5-1.5,1.5H7.5c-.83,0-1.5-.67-1.5-1.5V4h12v14.5Z"/><path d="m12,15c-1.91,0-2-1.13-2-1.25,0-.28-.22-.5-.5-.5s-.5.22-.5.5c0,.02.03,1.99,2.5,2.23v1.02c0,.28.22.5.5.5s.5-.22.5-.5v-1.04c1.64-.18,2.5-1.2,2.5-2.21s-.52-2.25-3-2.25c-1.76,0-2-.6-2-1.25,0-.6.63-1.25,2-1.25s1.5,1.04,1.5,1.25c0,.27.23.5.5.5s.5-.22.5-.5c0-.71-.44-1.97-2-2.2v-1.05c0-.28-.22-.5-.5-.5s-.5.22-.5.5v1.04c-1.71.18-2.5,1.22-2.5,2.21s.52,2.25,3,2.25c2,0,2,.88,2,1.25,0,.62-.69,1.25-2,1.25Z"/></svg>