<svg xmlns="http://www.w3.org/2000/svg" viewBox="0 0 24 24" width="24" height="24"><path d="m18,3H6c-1.1,0-2,.9-2,2v14c0,1.1.9,2,2,2h2.33c.92,0,1.72-.62,1.94-1.51l1.73-6.92,1.73,6.92c.22.89,1.02,1.51,1.94,1.51h2.33c1.1,0,2-.9,2-2V5c0-1.1-.9-2-2-2ZM5,7h2.95c-.22,1.53-1.42,2.73-2.95,2.95v-2.95Zm13,13h-2.33c-.46,0-.86-.31-.97-.76l-2.22-8.86c-.06-.22-.26-.38-.48-.38s-.43.16-.48.38l-2.22,8.86c-.11.45-.51.76-.97.76h-2.33c-.55,0-1-.45-1-1v-8.05c2.08-.23,3.72-1.87,3.95-3.95h6.1c.23,2.08,1.87,3.72,3.95,3.95v8.05c0,.55-.45,1-1,1Zm1-10.05c-1.53-.22-2.73-1.42-2.95-2.95h2.95v2.95Zm-14-3.95v-1c0-.55.45-1,1-1h12c.55,0,1,.45,1,1v1H5Z"/></svg>