<svg xmlns="http://www.w3.org/2000/svg" viewBox="0 0 24 24" width="24" height="24"><path d="m19.41,6.21c-.75-.75-2.07-.75-2.83,0l-.94.94h0s-1.22,1.22-1.22,1.22c-.12.12-.28.21-.44.26l-4.24,1.16c-.72.2-1.26.77-1.43,1.5l-1.71,7.71c-.05.22-.04.44.03.64-.83.34-1.88.58-2.59.19-.69-.38-1.04-1.33-1.04-2.82,0-2.1,1.06-4.47,2-6.56,1.13-2.53,2.11-4.71,1.19-6.13-.57-.88-1.77-1.3-3.69-1.3-.28,0-.5.22-.5.5s.22.5.5.5c1.53,0,2.49.29,2.85.85.63.97-.29,3.01-1.26,5.18-.98,2.19-2.09,4.66-2.09,6.97,0,1.89.52,3.13,1.56,3.7.42.23.89.32,1.36.32.84,0,1.69-.29,2.33-.57l.11.11c.24.24.55.37.88.37.09,0,.18,0,.27-.03l7.71-1.71c.73-.16,1.3-.71,1.5-1.43l1.16-4.24c.05-.17.13-.32.26-.44l1.22-1.22h0s.94-.94.94-.94c.38-.38.59-.88.59-1.41s-.21-1.04-.59-1.41l-1.88-1.88Zm-.99,6.16c-.25.25-.42.55-.52.89l-1.16,4.24c-.1.36-.38.63-.75.71l-7.71,1.71s0,0,0,0l3.71-3.71c.3.18.64.28,1.01.28,1.1,0,2-.9,2-2s-.9-2-2-2-2,.9-2,2c0,.37.11.71.28,1.01l-3.59,3.59s-.07.04-.1.06l1.7-7.67c.08-.36.35-.65.71-.75l4.24-1.16c.33-.09.64-.27.89-.52l.61-.61,3.29,3.29-.61.61Zm-6.43,2.14c0-.55.45-1,1-1s1,.45,1,1-.45,1-1,1-1-.45-1-1Zm8.59-4.29l-.84.84-3.29-3.29.84-.84c.39-.39,1.02-.39,1.41,0l1.88,1.88c.39.39.39,1.02,0,1.41Z"/></svg>