<svg xmlns="http://www.w3.org/2000/svg" viewBox="0 0 24 24" width="24" height="24"><path d="m12,3C7.04,3,3,7.04,3,12s4.04,9,9,9,9-4.04,9-9S16.96,3,12,3Zm-1.12,8h2.24l2.7,3.9s.04.09.07.13l-1.86,1.11-1.73-1.3c-.18-.13-.42-.13-.6,0l-1.73,1.3-1.86-1.11s.04-.09.07-.13l2.7-3.9Zm-2.88,7.92v-2.78l1.74,1.05c.17.1.39.09.56-.03l1.7-1.28,1.7,1.28c.09.07.19.1.3.1.09,0,.18-.02.26-.07l1.74-1.05v2.78c-1.18.68-2.54,1.08-4,1.08s-2.82-.4-4-1.08Zm9-.68v-2.77c0-.41-.12-.8-.36-1.14l-3.82-5.52c-.37-.54-1.27-.54-1.64,0l-3.82,5.52c-.23.34-.36.73-.36,1.14v2.77c-1.83-1.47-3-3.72-3-6.24,0-4.41,3.59-8,8-8s8,3.59,8,8c0,2.52-1.17,4.77-3,6.24Z"/></svg>