<svg xmlns="http://www.w3.org/2000/svg" viewBox="0 0 24 24" width="24" height="24"><path d="m19.41,7.21c-.76-.76-2.07-.76-2.83,0l-9.29,9.29c-.19.19-.29.44-.29.71v1.79c0,.55.45,1,1,1h1.79c.26,0,.52-.11.71-.29l9.29-9.29c.78-.78.78-2.05,0-2.83l-.38-.38Zm-9.62,11.79h-1.79v-1.79l7.75-7.75,1.79,1.79-7.75,7.75Zm9.29-9.29l-.84.84-1.79-1.79.84-.84c.38-.38,1.04-.38,1.41,0l.38.38c.39.39.39,1.02,0,1.41Z"/><path d="m4.07,15.18c.05-1.79,2.22-3.44,4.14-4.89,1.76-1.34,3.29-2.49,3.29-3.79,0-3.4-7.18-3.5-8-3.5-.28,0-.5.22-.5.5s.22.5.5.5c1.82,0,7,.46,7,2.5,0,.8-1.47,1.91-2.89,2.99-2.1,1.59-4.48,3.39-4.54,5.66-.03,1.28.65,2.5,2.11,3.73.09.08.21.12.32.12.14,0,.28-.06.38-.18.18-.21.15-.53-.06-.71-1.2-1.02-1.78-1.98-1.75-2.94Z"/></svg>