<svg xmlns="http://www.w3.org/2000/svg" viewBox="0 0 24 24" width="24" height="24"><path d="m12.5,14v-1c0-1.1-.9-2-2-2h-4.5c-.55,0-1-.45-1-1v-3.5c0-.28.22-.5.5-.5h.5v-1h-.5c-.83,0-1.5.67-1.5,1.5v3.5c0,1.1.9,2,2,2h4.5c.55,0,1,.45,1,1v1c-.83,0-1.5.67-1.5,1.5v4c0,.83.67,1.5,1.5,1.5h1c.83,0,1.5-.67,1.5-1.5v-4c0-.83-.67-1.5-1.5-1.5Z"/><path d="m17.5,3h-8c-1.38,0-2.5,1.12-2.5,2.5s1.12,2.5,2.5,2.5h8c1.38,0,2.5-1.12,2.5-2.5s-1.12-2.5-2.5-2.5Zm0,4h-8c-.83,0-1.5-.67-1.5-1.5s.67-1.5,1.5-1.5h8c.83,0,1.5.67,1.5,1.5s-.67,1.5-1.5,1.5Z"/></svg>