<svg xmlns="http://www.w3.org/2000/svg" viewBox="0 0 24 24" width="24" height="24"><path d="m18.83,6.14l-5.77-2.7c-.67-.32-1.44-.31-2.12,0l-5.77,2.7c-.74.34-1.19,1.09-1.15,1.9.12,2.67,1.02,9.23,6.75,12.41.38.21.81.32,1.23.32s.85-.11,1.23-.32c5.73-3.18,6.63-9.74,6.75-12.41.04-.81-.42-1.55-1.15-1.9Zm-6.08,13.43c-.46.26-1.03.26-1.5,0-5.29-2.93-6.12-9.08-6.24-11.58-.02-.4.21-.77.58-.95l5.77-2.7c.2-.09.42-.14.63-.14s.43.05.63.14l5.77,2.7c.37.17.59.54.58.95-.11,2.51-.94,8.65-6.24,11.58Z"/><path d="m15.5,11.5h-3v-3c0-.28-.22-.5-.5-.5s-.5.22-.5.5v3h-3c-.28,0-.5.22-.5.5s.22.5.5.5h3v3c0,.28.22.5.5.5s.5-.22.5-.5v-3h3c.28,0,.5-.22.5-.5s-.22-.5-.5-.5Z"/></svg>