<svg xmlns="http://www.w3.org/2000/svg" viewBox="0 0 24 24" width="24" height="24"><path d="m18.5,9.5c-.17,0-.34.02-.5.05v-1.05c0-1.38-1.12-2.5-2.5-2.5h-1.78c-.18,0-.34.1-.43.25s-.09.35,0,.5c.14.24.21.49.21.75,0,.83-.67,1.5-1.5,1.5s-1.5-.67-1.5-1.5c0-.26.07-.51.21-.75.09-.16.09-.35,0-.5s-.25-.25-.43-.25h-1.78c-1.38,0-2.5,1.12-2.5,2.5v1.05c-.16-.03-.33-.05-.5-.05-1.38,0-2.5,1.12-2.5,2.5s1.12,2.5,2.5,2.5c.17,0,.34-.02.5-.05v1.05c0,1.38,1.12,2.5,2.5,2.5h1.78c.18,0,.34-.1.43-.25s.09-.35,0-.5c-.14-.24-.21-.49-.21-.75,0-.83.67-1.5,1.5-1.5s1.5.67,1.5,1.5c0,.26-.07.51-.21.75-.09.16-.09.35,0,.5s.25.25.43.25h1.78c1.38,0,2.5-1.12,2.5-2.5v-1.05c.16.03.33.05.5.05,1.38,0,2.5-1.12,2.5-2.5s-1.12-2.5-2.5-2.5Zm0,4c-.26,0-.51-.07-.75-.21-.15-.09-.35-.09-.5,0-.16.09-.25.25-.25.43v1.78c0,.83-.67,1.5-1.5,1.5h-1.05c.03-.16.05-.33.05-.5,0-1.38-1.12-2.5-2.5-2.5s-2.5,1.12-2.5,2.5c0,.17.02.34.05.5h-1.05c-.83,0-1.5-.67-1.5-1.5v-1.78c0-.18-.1-.34-.25-.43-.16-.09-.35-.09-.5,0-.24.14-.49.21-.75.21-.83,0-1.5-.67-1.5-1.5s.67-1.5,1.5-1.5c.26,0,.51.07.75.21.15.09.35.09.5,0,.15-.09.25-.25.25-.43v-1.78c0-.83.67-1.5,1.5-1.5h1.05c-.03.16-.05.33-.05.5,0,1.38,1.12,2.5,2.5,2.5s2.5-1.12,2.5-2.5c0-.17-.02-.34-.05-.5h1.05c.83,0,1.5.67,1.5,1.5v1.78c0,.18.1.34.25.43.16.09.35.09.5,0,.24-.14.49-.21.75-.21.83,0,1.5.67,1.5,1.5s-.67,1.5-1.5,1.5Z"/></svg>