<svg xmlns="http://www.w3.org/2000/svg" viewBox="0 0 24 24" width="24" height="24"><path d="m13.74,5.18c-.41-.56-1.05-.88-1.74-.88s-1.33.32-1.74.88L3.42,14.43c-.4.54-.52,1.22-.34,1.87s.64,1.17,1.26,1.42l6.2,2.55c.47.19.96.29,1.46.29s.99-.1,1.46-.29l6.2-2.55c.62-.26,1.08-.77,1.26-1.42s.06-1.33-.34-1.87l-6.83-9.25Zm-2.24,14.33c-.2-.04-.39-.09-.58-.17l-6.2-2.55c-.33-.14-.58-.42-.68-.77s-.03-.72.19-1.01l6.83-9.25c.12-.16.27-.27.44-.34v14.08Zm8.46-3.48c-.1.35-.34.63-.68.77l-6.2,2.55c-.19.08-.38.13-.58.17V5.43c.17.07.32.19.44.34l6.83,9.25c.22.29.28.66.19,1.01Z"/></svg>