<svg xmlns="http://www.w3.org/2000/svg" viewBox="0 0 24 24" width="24" height="24"><path d="m19.5,8h-.6l-1.9-1.9v-2.1c0-.55-.45-1-1-1h-.5c-1.35,0-2.57.79-3.15,2h-2.85c-3.58,0-6.5,2.92-6.5,6.49,0,.19-.1,4.7,1.12,8.18.28.8,1.04,1.33,1.89,1.33h.99c1.1,0,2-.9,2-2v-.5c0-.28.22-.5.5-.5h3c.28,0,.5.22.5.5v.5c0,1.1.9,2,2,2h.99c.82,0,1.57-.52,1.87-1.29.98-2.52,1.51-4.87,1.67-5.71.81-.02,1.47-.68,1.47-1.5v-3c0-.83-.67-1.5-1.5-1.5Zm.5,4.5c0,.28-.22.5-.5.5h-.35c-.21,0-.42.18-.49.38l-.06.17c-.13.69-.65,3.15-1.68,5.8-.15.39-.53.65-.94.65h-.99c-.55,0-1-.45-1-1v-.5c0-.83-.67-1.5-1.5-1.5h-3c-.83,0-1.5.67-1.5,1.5v.5c0,.55-.45,1-1,1h-.99c-.43,0-.81-.27-.95-.67-1.16-3.3-1.06-7.78-1.06-7.83,0-3.03,2.47-5.5,5.5-5.5h3.18c.21,0,.4-.13.47-.33.35-1,1.3-1.67,2.35-1.67h.5v2.31c0,.13.05.26.15.35l2.19,2.19c.09.09.22.15.35.15h.81c.28,0,.5.22.5.5v3Z"/><path d="M16 9A1 1 0 1 0 16 11 1 1 0 1 0 16 9z"/><path d="m12.5,8h-5c-.28,0-.5.22-.5.5s.22.5.5.5h5c.28,0,.5-.22.5-.5s-.22-.5-.5-.5Z"/></svg>