<svg xmlns="http://www.w3.org/2000/svg" viewBox="0 0 24 24" width="24" height="24"><path class="b" d="m19.79,7.59l-.38-.38c-.76-.76-2.07-.76-2.83,0l-9.29,9.29c-.19.19-.29.44-.29.71v1.79c0,.55.45,1,1,1h1.79c.26,0,.52-.11.71-.29l9.29-9.29c.78-.78.78-2.05,0-2.83Zm-10,11.41h-1.79v-1.79l7.75-7.75,1.79,1.79-7.75,7.75Zm9.29-9.29l-.84.84-1.79-1.79.84-.84c.38-.38,1.04-.38,1.41,0l.38.38c.39.39.39,1.02,0,1.41Z"/><path class="b" d="m7.61,10.6l.65-1.41c.17-.36.45-.65.81-.83l1.55-.75c.24-.11.38-.35.39-.61,0-.26-.14-.5-.38-.62l-1.5-.75c-.33-.16-.6-.44-.76-.77l-.76-1.52c-.23-.47-.99-.47-1.22,0l-.76,1.52c-.16.33-.44.6-.76.77l-1.49.75c-.24.12-.38.36-.38.62,0,.27.16.5.4.61l1.42.66c.36.17.65.45.82.81l.73,1.53c.12.24.35.39.62.39h0c.27,0,.5-.15.62-.4Z"/><path class="b" d="m20.76,18.12l-.94-.47c-.21-.1-.37-.27-.48-.48l-.47-.95c-.15-.29-.62-.29-.76,0l-.47.95c-.1.21-.27.38-.48.48l-.93.47c-.15.07-.24.22-.24.39,0,.17.1.31.25.38l.89.41c.22.1.41.28.51.51l.46.95c.07.15.22.24.38.24h0c.17,0,.31-.1.38-.25l.41-.88c.1-.23.28-.41.51-.52l.97-.47c.15-.07.24-.22.24-.38,0-.16-.09-.31-.24-.39Z"/></svg>