<svg xmlns="http://www.w3.org/2000/svg" viewBox="0 0 24 24" width="24" height="24"><path d="M12 5A1.5 1.5 0 1 0 12 8 1.5 1.5 0 1 0 12 5z"/><path d="M6.5 8A1.5 1.5 0 1 0 6.5 11 1.5 1.5 0 1 0 6.5 8z"/><path d="M17.5 8A1.5 1.5 0 1 0 17.5 11 1.5 1.5 0 1 0 17.5 8z"/><path d="m17.73,12c-.61,0-1.17.24-1.6.66l-2.78,2.78c-.72.72-1.98.72-2.71,0l-2.78-2.78c-.43-.43-1-.66-1.6-.66-1.25,0-2.27,1.02-2.27,2.27v4.73h4v-4.79l1.94,1.94c1.1,1.1,3.02,1.1,4.12,0l1.94-1.94v4.79h4v-4.73c0-1.25-1.02-2.27-2.27-2.27Z"/><path d="m14,11.96v-.96c0-1.1-.9-2-2-2s-2,.9-2,2v.96l2,2,2-2Z"/></svg>