<svg xmlns="http://www.w3.org/2000/svg" width="24" height="24" viewBox="0 0 24 24"><path d="M17.48 20.98h.1c.66 0 1.27-.32 1.64-.86l.81-1.18c.31-.44.42-.98.32-1.51s-.4-.99-.86-1.29l-2.3-1.53c-.82-.55-1.91-.42-2.58.31l-1.01 1.09c-.08.09-.21.11-.31.05-.7-.4-2.04-1.24-3.09-2.29s-1.88-2.38-2.28-3.08c-.06-.1-.04-.23.05-.31l1.09-1.01a2 2 0 0 0 .31-2.58l-1.53-2.3c-.3-.45-.76-.75-1.29-.86-.53-.1-1.07.01-1.51.32l-1.18.81c-.57.4-.89 1.05-.86 1.75.09 1.8.7 6.4 4.38 10.08s8.28 4.29 10.08 4.38ZM4.44 5.59l1.18-.81c.22-.15.49-.21.76-.16s.49.2.64.43l1.53 2.3c.27.41.21.95-.15 1.29L7.31 9.65c-.43.4-.53 1.03-.24 1.54.43.75 1.32 2.17 2.44 3.29 1.13 1.13 2.55 2.02 3.29 2.44.51.29 1.14.2 1.54-.24l1.01-1.09c.34-.36.88-.43 1.29-.15l2.3 1.53c.23.15.38.38.43.65s0 .53-.16.76l-.81 1.18c-.2.29-.54.45-.88.43-1.69-.08-5.99-.65-9.42-4.09-3.44-3.44-4-7.74-4.09-9.43-.02-.35.14-.68.43-.87ZM20.5 6H18V3.5c0-.28-.22-.5-.5-.5s-.5.22-.5.5V6h-2.5c-.28 0-.5.22-.5.5s.22.5.5.5H17v2.5c0 .28.22.5.5.5s.5-.22.5-.5V7h2.5c.28 0 .5-.22.5-.5s-.22-.5-.5-.5"/></svg>