<svg xmlns="http://www.w3.org/2000/svg" width="24" height="24" viewBox="0 0 24 24"><path d="M14.06 3.02c-.27-.01-.54.08-.74.26-.21.19-.32.46-.32.74V10c0 .55.45 1 1 1h5.98c.28 0 .55-.12.74-.32s.28-.47.26-.74c-.27-3.67-3.25-6.65-6.92-6.92M14 10V4.02c3.16.23 5.74 2.8 5.98 5.98z"/><path d="M11.01 21c2.14 0 4.15-.83 5.67-2.35a7.9 7.9 0 0 0 2.26-4.54c.04-.28-.05-.56-.23-.78-.19-.22-.47-.35-.76-.35h-6.43c-.28 0-.5-.22-.5-.5V6.05c0-.29-.13-.57-.35-.76a.96.96 0 0 0-.78-.23c-1.73.24-3.3 1.02-4.54 2.26C3.84 8.83 3 10.85 3 12.99s.83 4.15 2.35 5.67a7.98 7.98 0 0 0 5.67 2.35ZM6.05 8.03a6.87 6.87 0 0 1 3.96-1.97v6.43c0 .83.67 1.5 1.5 1.5h6.44c-.21 1.5-.9 2.88-1.98 3.96-1.32 1.32-3.09 2.05-4.96 2.05s-3.63-.73-4.96-2.05C4.73 16.63 4 14.87 4 12.99s.73-3.63 2.05-4.96"/></svg>