<svg xmlns="http://www.w3.org/2000/svg" viewBox="0 0 24 24" width="24" height="24"><path class="b" d="m16,6.05v-1.05c0-1.1-.9-2-2-2h-4c-1.1,0-2,.9-2,2v1.05c-1.69.25-3,1.69-3,3.45v8c0,1.93,1.57,3.5,3.5,3.5h7c1.93,0,3.5-1.57,3.5-3.5v-8c0-1.76-1.31-3.2-3-3.45Zm-7-1.05c0-.55.45-1,1-1h4c.55,0,1,.45,1,1v1h-6v-1Zm9,12.5c0,1.38-1.12,2.5-2.5,2.5h-7c-1.38,0-2.5-1.12-2.5-2.5v-8c0-1.38,1.12-2.5,2.5-2.5h7c1.38,0,2.5,1.12,2.5,2.5v8Z"/><path class="b" d="m15,13h-2.5v-2.5c0-.28-.22-.5-.5-.5s-.5.22-.5.5v2.5h-2.5c-.28,0-.5.22-.5.5s.22.5.5.5h2.5v2.5c0,.28.22.5.5.5s.5-.22.5-.5v-2.5h2.5c.28,0,.5-.22.5-.5s-.22-.5-.5-.5Z"/></svg>