<svg xmlns="http://www.w3.org/2000/svg" viewBox="0 0 24 24" width="24" height="24"><path d="M12 10A2 2 0 1 0 12 14 2 2 0 1 0 12 10z"/><path d="m12.41,15h-.83c-.59,0-1.05.5-1,1.08l.33,4c.04.52.48.92,1,.92h.16c.52,0,.95-.4,1-.92l.33-4c.05-.58-.41-1.08-1-1.08Z"/><path d="m15.89,15.89c.25-.25.47-.52.67-.81.2-.29.37-.61.51-.93.14-.33.25-.68.32-1.03.07-.36.11-.74.11-1.11s-.04-.75-.11-1.11c-.07-.35-.18-.7-.32-1.03-.14-.32-.31-.64-.51-.93-.2-.29-.42-.57-.67-.81s-.52-.48-.81-.67c-.29-.2-.6-.37-.94-.51-.33-.14-.68-.25-1.03-.32-.73-.15-1.49-.15-2.22,0-.35.07-.7.18-1.03.32-.33.14-.64.31-.93.51-.29.2-.57.42-.81.67-.25.25-.47.52-.67.81-.2.29-.37.61-.51.93-.14.33-.25.68-.32,1.03-.07.36-.11.74-.11,1.11s.04.75.11,1.11c.07.35.18.7.32,1.03.14.32.31.64.51.93.2.29.42.57.67.81s.52.48.81.67c.23.16.54.09.69-.13.15-.23.09-.54-.13-.69-.24-.16-.46-.35-.67-.55-.2-.2-.39-.43-.55-.67-.16-.24-.3-.5-.42-.77-.12-.27-.2-.56-.26-.84-.06-.3-.09-.6-.09-.91s.03-.61.09-.91c.06-.29.15-.57.26-.84.11-.27.25-.52.41-.76.16-.24.35-.46.55-.67.2-.2.43-.39.67-.55.24-.16.49-.3.76-.41.27-.12.56-.2.84-.26.59-.12,1.22-.12,1.82,0,.29.06.57.15.84.26.27.12.53.25.76.42.24.16.46.35.67.55.2.2.39.43.55.67.16.24.3.5.42.77.12.27.2.56.26.84.06.3.09.6.09.91s-.03.61-.09.91c-.06.29-.15.57-.26.84-.11.27-.25.52-.41.76-.16.24-.35.46-.55.67-.2.2-.43.39-.67.55-.23.15-.29.46-.13.69.1.14.25.22.42.22.1,0,.19-.03.28-.09.29-.2.57-.42.81-.67Z"/><path d="m18.36,5.64c-.83-.83-1.79-1.48-2.86-1.93-2.22-.94-4.78-.94-7.01,0-1.07.45-2.03,1.1-2.86,1.93-.83.83-1.48,1.79-1.93,2.86-.47,1.11-.71,2.29-.71,3.5s.24,2.39.71,3.5c.45,1.07,1.1,2.03,1.93,2.86.83.83,1.79,1.48,2.86,1.93.26.11.55-.01.66-.27.11-.25-.01-.55-.27-.66-.95-.4-1.81-.98-2.54-1.71-.73-.74-1.31-1.59-1.71-2.54-.42-.99-.63-2.03-.63-3.11s.21-2.13.63-3.11c.4-.95.98-1.81,1.71-2.54.74-.74,1.59-1.31,2.54-1.71,1.97-.83,4.25-.83,6.23,0,.95.4,1.81.98,2.54,1.71.73.74,1.31,1.59,1.71,2.54.42.99.63,2.03.63,3.11s-.21,2.13-.63,3.11c-.4.95-.98,1.81-1.71,2.54-.74.74-1.59,1.31-2.54,1.71-.25.11-.37.4-.27.66.08.19.27.31.46.31.06,0,.13-.01.19-.04,1.07-.45,2.03-1.1,2.86-1.93.83-.83,1.48-1.79,1.93-2.86.47-1.11.71-2.29.71-3.5s-.24-2.39-.71-3.5c-.45-1.07-1.1-2.03-1.93-2.86Z"/></svg>