<svg xmlns="http://www.w3.org/2000/svg" viewBox="0 0 24 24" width="24" height="24"><path d="m19,9.89c-.06-3.34-2.92-6.89-7.5-6.89-4.22,0-8.5,2.58-8.5,7.5,0,2.05.72,3.86,2.13,5.4.56.61.87,1.36.87,2.09v2.5c0,.28.22.5.5.5s.5-.22.5-.5v-2.5c0-.99-.4-1.98-1.14-2.77-1.24-1.35-1.86-2.94-1.86-4.73,0-4.47,3.89-6.5,7.5-6.5,4.48,0,6.5,3.51,6.5,6,0,.07.01.14.04.2l1.38,3.09c.07.16.06.33-.04.48-.09.14-.25.23-.42.23h-.46c-.83,0-1.5.67-1.5,1.5v2c0,.28-.22.5-.5.5h-2c-.83,0-1.5.67-1.5,1.5v1c0,.28.22.5.5.5s.5-.22.5-.5v-1c0-.28.22-.5.5-.5h2c.83,0,1.5-.67,1.5-1.5v-2c0-.28.22-.5.5-.5h.46c.51,0,.98-.25,1.26-.68.28-.43.32-.96.11-1.43l-1.33-3Z"/><path d="m7.33,12.64l.42.73c.18.3.57.41.88.23l.34-.2c.29.25.62.44.97.57v.39c0,.35.29.64.64.64h.84c.35,0,.64-.29.64-.64v-.39c.35-.13.68-.32.97-.57l.34.2c.31.18.7.07.88-.23l.42-.73c.18-.31.07-.7-.23-.88l-.33-.19c.04-.19.05-.38.05-.57s-.02-.38-.05-.57l.33-.19c.31-.18.41-.57.23-.88l-.42-.73c-.18-.31-.57-.41-.88-.23l-.34.2c-.29-.25-.62-.44-.97-.57v-.39c0-.35-.29-.64-.64-.64h-.84c-.35,0-.64.29-.64.64v.39c-.35.13-.68.32-.97.57l-.34-.2c-.31-.18-.7-.07-.88.23l-.42.73c-.18.31-.07.7.23.88l.33.19c-.04.19-.05.38-.05.57s.02.38.05.57l-.33.19c-.31.18-.41.57-.23.88Zm3.67-3.18c.84,0,1.55.71,1.55,1.55s-.71,1.55-1.55,1.55-1.55-.71-1.55-1.55.71-1.55,1.55-1.55Z"/></svg>