<svg xmlns="http://www.w3.org/2000/svg" viewBox="0 0 24 24" width="24" height="24"><path d="m14.46,13.75l3.04-3.04c.59.52,1.49.51,2.06-.06l.59-.59c.58-.58.58-1.54,0-2.12l-4.09-4.09c-.58-.58-1.54-.58-2.12,0l-.59.59c-.56.56-.58,1.47-.06,2.06l-3.04,3.04L3.85,3.15c-.2-.2-.51-.2-.71,0s-.2.51,0,.71l6.4,6.4.71.71,2.79,2.79.71.71,6.4,6.4c.1.1.23.15.35.15s.26-.05.35-.15c.2-.2.2-.51,0-.71l-6.4-6.4Zm-3.5-3.5l3.4-3.4c.2-.2.2-.51,0-.71l-.29-.29c-.19-.19-.19-.51,0-.71l.59-.59c.2-.2.51-.2.71,0l4.09,4.09c.19.19.19.51,0,.71l-.59.59c-.2.2-.51.2-.71,0l-.29-.29c-.2-.2-.51-.2-.71,0l-3.4,3.4-2.79-2.79Z"/><path d="m12.35,16.44c-.2.2-.51.2-.71,0l-4.09-4.09c-.19-.19-.19-.51,0-.71s.2-.51,0-.71-.51-.2-.71,0c-.58.58-.58,1.54,0,2.12l1.69,1.69-4.4,4.4c-.2.2-.2.51,0,.71.1.1.23.15.35.15s.26-.05.35-.15l4.4-4.4,1.69,1.69c.29.29.68.44,1.06.44s.77-.15,1.06-.44c.2-.2.2-.51,0-.71s-.51-.2-.71,0Z"/></svg>