<svg xmlns="http://www.w3.org/2000/svg" viewBox="0 0 24 24" width="24" height="24"><path d="m4.5,20c.13,0,.26-.05.35-.15l4.4-4.4,1.69,1.69c.29.29.68.44,1.06.44s.77-.15,1.06-.44l.59-.59c.56-.56.58-1.47.06-2.06l3.8-3.8c.59.52,1.49.51,2.06-.06l.59-.59c.58-.58.58-1.54,0-2.12l-4.09-4.09c-.58-.58-1.54-.58-2.12,0l-.59.59c-.56.56-.58,1.47-.06,2.06l-3.8,3.8c-.59-.52-1.49-.51-2.06.06l-.59.59c-.58.58-.58,1.54,0,2.12l1.69,1.69-4.4,4.4c-.2.2-.2.51,0,.71.1.1.23.15.35.15Zm3.06-8.35l.59-.59c.1-.1.23-.15.35-.15s.26.05.35.15l.29.29c.2.2.51.2.71,0l4.5-4.5c.2-.2.2-.51,0-.71l-.29-.29c-.19-.19-.19-.51,0-.71l.59-.59c.2-.2.51-.2.71,0l4.09,4.09c.19.19.19.51,0,.71l-.59.59c-.2.2-.51.2-.71,0l-.29-.29c-.2-.2-.51-.2-.71,0l-4.5,4.5c-.2.2-.2.51,0,.71l.29.29c.19.19.19.51,0,.71l-.59.59c-.2.2-.51.2-.71,0l-4.09-4.09c-.19-.19-.19-.51,0-.71Z"/></svg>