<svg xmlns="http://www.w3.org/2000/svg" viewBox="0 0 24 24" width="24" height="24"><path d="m19.5,15H4.5c-.28,0-.5.22-.5.5s.22.5.5.5h15c.28,0,.5-.22.5-.5s-.22-.5-.5-.5Z"/><path d="m19.5,18H4.5c-.28,0-.5.22-.5.5s.22.5.5.5h15c.28,0,.5-.22.5-.5s-.22-.5-.5-.5Z"/><path d="m18.75,5H5.25c-.69,0-1.25.56-1.25,1.25v2.5c0,.69.56,1.25,1.25,1.25h13.5c.69,0,1.25-.56,1.25-1.25v-2.5c0-.69-.56-1.25-1.25-1.25Zm.25,3.75c0,.14-.11.25-.25.25H5.25c-.14,0-.25-.11-.25-.25v-2.5c0-.14.11-.25.25-.25h13.5c.14,0,.25.11.25.25v2.5Z"/><path d="m19.5,12H4.5c-.28,0-.5.22-.5.5s.22.5.5.5h15c.28,0,.5-.22.5-.5s-.22-.5-.5-.5Z"/></svg>