<svg xmlns="http://www.w3.org/2000/svg" width="24" height="24" viewBox="0 0 24 24"><path d="M10.88 8.51c-.46-2-2.24-3.5-4.38-3.5-2.49 0-4.5 2.01-4.5 4.5s2.01 4.5 4.5 4.5c1.21 0 2.31-.48 3.11-1.26-.09.29-.19.57-.29.81l-.06.12c-.15.32-.29.62-.51.92-.19.32-.44.61-.72.91-.14.17-.32.32-.51.47-.1.08-.21.16-.29.24-.17.14-.36.25-.54.35-.11.06-.21.12-.32.19-.15.1-.32.16-.49.23-.1.04-.2.08-.26.11l-.19.08c-.17.07-.33.13-.48.16l-1.06.26a.49.49 0 0 0-.37.6c.05.23.26.38.49.38.04 0 .08 0 .12-.01l1.04-.26c.22-.04.44-.13.64-.21l.2-.08c.08-.03.16-.06.24-.1.21-.08.45-.17.68-.33.09-.06.18-.11.27-.16.21-.12.46-.26.7-.46.08-.07.17-.14.26-.22.22-.17.47-.37.65-.6.29-.31.58-.65.8-1.01.24-.34.41-.7.57-1.04l.06-.13c.15-.36.29-.74.41-1.18.18-.67.29-1.39.34-2.13q.03-.63 0-1.05v-.1c0-.34-.05-.67-.12-.99ZM6.5 13C4.57 13 3 11.43 3 9.5S4.57 6 6.5 6c1.66 0 3.04 1.16 3.4 2.71v.09c.03.1.05.26.06.42.01.12.02.27.02.42a3.496 3.496 0 0 1-3.49 3.37ZM21.88 8.51c-.46-2-2.24-3.5-4.38-3.5-2.49 0-4.5 2.01-4.5 4.5s2.01 4.5 4.5 4.5c1.21 0 2.31-.48 3.11-1.26-.09.29-.19.57-.29.81l-.06.12c-.15.32-.29.62-.51.92-.19.32-.44.61-.72.91-.14.17-.32.32-.51.47-.1.08-.21.16-.29.24-.17.14-.36.25-.54.35-.11.06-.21.12-.32.19-.15.1-.32.16-.49.23-.1.04-.2.08-.26.11l-.19.08c-.17.07-.33.13-.48.16l-1.06.26a.49.49 0 0 0-.37.6c.05.23.26.38.49.38.04 0 .08 0 .12-.01l1.04-.26c.22-.04.44-.13.64-.21l.2-.08c.08-.03.16-.06.24-.1.21-.08.45-.17.68-.33.09-.06.18-.11.27-.16.21-.12.46-.26.7-.46.08-.07.17-.14.26-.22.22-.17.47-.37.65-.6.29-.31.58-.65.8-1.01.24-.34.41-.7.57-1.04l.06-.13c.15-.36.29-.74.41-1.18.18-.67.29-1.39.34-2.13q.03-.63 0-1.05v-.1c0-.34-.05-.67-.12-.99ZM17.5 13c-1.93 0-3.5-1.57-3.5-3.5S15.57 6 17.5 6c1.66 0 3.04 1.16 3.4 2.71v.09c.03.1.05.26.06.42.01.12.02.27.02.42a3.496 3.496 0 0 1-3.49 3.37Z"/></svg>