<svg xmlns="http://www.w3.org/2000/svg" width="24" height="24" viewBox="0 0 24 24"><path d="M5 11h4c1.1 0 2-.9 2-2V5c0-1.1-.9-2-2-2H5c-1.1 0-2 .9-2 2v4c0 1.1.9 2 2 2M4 5c0-.55.45-1 1-1h4c.55 0 1 .45 1 1v4c0 .55-.45 1-1 1H5c-.55 0-1-.45-1-1zM5 21h4c1.1 0 2-.9 2-2v-4c0-1.1-.9-2-2-2H5c-1.1 0-2 .9-2 2v4c0 1.1.9 2 2 2m-1-6c0-.55.45-1 1-1h4c.55 0 1 .45 1 1v4c0 .55-.45 1-1 1H5c-.55 0-1-.45-1-1zM19 3h-4c-1.1 0-2 .9-2 2v4c0 1.1.9 2 2 2h4c1.1 0 2-.9 2-2V5c0-1.1-.9-2-2-2m1 6c0 .55-.45 1-1 1h-4c-.55 0-1-.45-1-1V5c0-.55.45-1 1-1h4c.55 0 1 .45 1 1zM13 13h2v2h-2zM15 15h2v2h-2zM13 17h2v2h-2zM17 17h2v2h-2zM19 19h2v2h-2zM15 19h2v2h-2zM17 13h2v2h-2zM19 15h2v2h-2z"/></svg>