<svg xmlns="http://www.w3.org/2000/svg" width="24" height="24" viewBox="0 0 24 24"><path d="M17.5 10c-1.21 0-2.31.48-3.11 1.26.09-.3.19-.57.29-.81l.06-.12c.15-.32.29-.62.51-.92.19-.32.44-.61.72-.91.14-.17.32-.32.51-.47.1-.08.21-.16.29-.24.17-.14.36-.25.54-.35.11-.06.21-.12.32-.19.15-.1.32-.16.49-.23.1-.04.2-.08.26-.11l.19-.08c.17-.07.33-.13.48-.16l1.06-.26a.49.49 0 0 0 .37-.6.494.494 0 0 0-.6-.37l-1.04.26c-.22.04-.44.13-.64.21l-.2.08c-.08.03-.16.06-.24.1-.21.08-.45.17-.68.33-.09.06-.18.11-.27.16-.21.12-.46.26-.7.46-.08.07-.17.14-.26.22-.22.17-.47.37-.65.6-.29.31-.58.65-.8 1.01-.24.34-.41.7-.57 1.04l-.06.13c-.15.36-.29.74-.41 1.18-.18.67-.29 1.39-.34 2.13q-.03.63 0 1.05v.1c0 .34.05.67.12.99s0 .01 0 .01c.46 2 2.24 3.5 4.38 3.5 2.49 0 4.5-2.01 4.5-4.5s-2.01-4.5-4.5-4.5Zm0 8c-1.66 0-3.04-1.16-3.4-2.71v-.09c-.03-.1-.05-.26-.06-.42a5 5 0 0 1-.02-.42c.07-1.87 1.6-3.37 3.49-3.37s3.5 1.57 3.5 3.5-1.57 3.5-3.5 3.5ZM6.5 10c-1.21 0-2.31.48-3.11 1.26.09-.3.19-.57.29-.81l.06-.12c.15-.32.29-.62.51-.92.19-.32.44-.61.72-.91.14-.17.32-.32.51-.47.1-.08.21-.16.29-.24.17-.14.36-.25.54-.35.11-.06.21-.12.32-.19.15-.1.32-.16.49-.23.1-.04.2-.08.26-.11l.19-.08c.17-.07.33-.13.48-.16l1.06-.26a.49.49 0 0 0 .37-.6.494.494 0 0 0-.6-.37l-1.04.26c-.22.04-.44.13-.64.21l-.2.08c-.08.03-.16.06-.24.1-.21.08-.45.17-.68.33-.09.06-.18.11-.27.16-.21.12-.46.26-.7.46-.08.07-.17.14-.26.22-.22.17-.47.37-.65.6-.29.31-.58.65-.8 1.01-.24.34-.41.7-.57 1.04l-.06.13c-.15.36-.29.74-.41 1.18-.18.67-.29 1.39-.34 2.13q-.03.63 0 1.05v.1c0 .34.05.67.12.99s0 .01 0 .01c.46 2 2.24 3.5 4.38 3.5 2.49 0 4.5-2.01 4.5-4.5S9.01 10 6.52 10Zm0 8c-1.66 0-3.04-1.16-3.4-2.71v-.09c-.03-.1-.05-.26-.06-.42a5 5 0 0 1-.02-.42c.07-1.87 1.6-3.37 3.49-3.37s3.5 1.57 3.5 3.5-1.57 3.5-3.5 3.5Z"/></svg>