<svg xmlns="http://www.w3.org/2000/svg" viewBox="0 0 24 24" width="24" height="24"><path d="m3.5,8c.28,0,.5-.22.5-.5v-1c0-1.38,1.12-2.5,2.5-2.5h1c.28,0,.5-.22.5-.5s-.22-.5-.5-.5h-1c-1.93,0-3.5,1.57-3.5,3.5v1c0,.28.22.5.5.5Z"/><path d="m7.5,20h-1c-1.38,0-2.5-1.12-2.5-2.5v-1c0-.28-.22-.5-.5-.5s-.5.22-.5.5v1c0,1.93,1.57,3.5,3.5,3.5h1c.28,0,.5-.22.5-.5s-.22-.5-.5-.5Z"/><path d="m20.5,16c-.28,0-.5.22-.5.5v1c0,1.38-1.12,2.5-2.5,2.5h-1c-.28,0-.5.22-.5.5s.22.5.5.5h1c1.93,0,3.5-1.57,3.5-3.5v-1c0-.28-.22-.5-.5-.5Z"/><path d="m17.5,3h-1c-.28,0-.5.22-.5.5s.22.5.5.5h1c1.38,0,2.5,1.12,2.5,2.5v1c0,.28.22.5.5.5s.5-.22.5-.5v-1c0-1.93-1.57-3.5-3.5-3.5Z"/><path d="m9.5,5h-3c-.83,0-1.5.67-1.5,1.5v3c0,.83.67,1.5,1.5,1.5h3c.83,0,1.5-.67,1.5-1.5v-3c0-.83-.67-1.5-1.5-1.5Zm.5,4.5c0,.28-.22.5-.5.5h-3c-.28,0-.5-.22-.5-.5v-3c0-.28.22-.5.5-.5h3c.28,0,.5.22.5.5v3Z"/><path d="m9.5,13h-3c-.83,0-1.5.67-1.5,1.5v3c0,.83.67,1.5,1.5,1.5h3c.83,0,1.5-.67,1.5-1.5v-3c0-.83-.67-1.5-1.5-1.5Zm.5,4.5c0,.28-.22.5-.5.5h-3c-.28,0-.5-.22-.5-.5v-3c0-.28.22-.5.5-.5h3c.28,0,.5.22.5.5v3Z"/><path d="m14.5,11h3c.83,0,1.5-.67,1.5-1.5v-3c0-.83-.67-1.5-1.5-1.5h-3c-.83,0-1.5.67-1.5,1.5v3c0,.83.67,1.5,1.5,1.5Zm-.5-4.5c0-.28.22-.5.5-.5h3c.28,0,.5.22.5.5v3c0,.28-.22.5-.5.5h-3c-.28,0-.5-.22-.5-.5v-3Z"/><path d="M13 13H15V15H13z"/><path d="M15 15H17V17H15z"/><path d="M17 17H19V19H17z"/><path d="M17 13H19V15H17z"/></svg>