<svg xmlns="http://www.w3.org/2000/svg" width="24" height="24" viewBox="0 0 24 24"><path d="M15 19h5c1.1 0 2-.9 2-2v-4c0-1.1-.9-2-2-2h-2.75a.26.26 0 0 1-.19-.08.22.22 0 0 1-.06-.18c.1-1.12.71-3.11 3.61-3.75.23-.05.39-.25.39-.49v-1c0-.28-.22-.5-.5-.5-2.62 0-4.62.67-5.94 2C13.01 8.55 13 10.43 13 10.5V17c0 1.1.9 2 2 2m-1-8.5s0-1.53 1.26-2.79C16.3 6.66 17.9 6.09 20 6.02v.1c-3.3.91-3.89 3.45-3.99 4.53-.03.35.08.69.32.95s.58.41.93.41h2.75c.55 0 1 .45 1 1v4c0 .55-.45 1-1 1h-5c-.55 0-1-.45-1-1v-6.5ZM4 19h5c1.1 0 2-.9 2-2v-4c0-1.1-.9-2-2-2H6.25a.26.26 0 0 1-.19-.08.22.22 0 0 1-.06-.18c.1-1.12.71-3.11 3.61-3.75.23-.05.39-.25.39-.49v-1c0-.28-.22-.5-.5-.5-2.62 0-4.62.67-5.94 2C2.01 8.55 2 10.43 2 10.5V17c0 1.1.9 2 2 2m-1-8.5s0-1.53 1.26-2.79C5.3 6.66 6.9 6.09 9 6.02v.1c-3.3.91-3.89 3.45-3.99 4.53-.03.35.08.69.32.95s.58.41.93.41h2.75c.55 0 1 .45 1 1v4c0 .55-.45 1-1 1H4c-.55 0-1-.45-1-1v-6.5Z"/></svg>