<svg xmlns="http://www.w3.org/2000/svg" viewBox="0 0 24 24" width="24" height="24"><path d="m17.25,11.5H6.75c-1.52,0-2.75-1.23-2.75-2.75s1.23-2.75,2.75-2.75h4.25v1.41c0,.43.5.66.83.38l2.23-1.91c.23-.2.23-.56,0-.76l-2.23-1.91c-.32-.28-.83-.05-.83.38v1.41h-4.25c-2.07,0-3.75,1.68-3.75,3.75s1.68,3.75,3.75,3.75h10.5c1.52,0,2.75,1.23,2.75,2.75s-1.23,2.75-2.75,2.75H7.95c-.23-1.14-1.24-2-2.45-2-1.38,0-2.5,1.12-2.5,2.5s1.12,2.5,2.5,2.5c1.21,0,2.22-.86,2.45-2h9.3c2.07,0,3.75-1.68,3.75-3.75s-1.68-3.75-3.75-3.75Zm-11.75,8.5c-.83,0-1.5-.67-1.5-1.5s.67-1.5,1.5-1.5,1.5.67,1.5,1.5-.67,1.5-1.5,1.5Z"/><path d="m18.5,3c-1.38,0-2.5,1.12-2.5,2.5s1.12,2.5,2.5,2.5,2.5-1.12,2.5-2.5-1.12-2.5-2.5-2.5Zm0,4c-.83,0-1.5-.67-1.5-1.5s.67-1.5,1.5-1.5,1.5.67,1.5,1.5-.67,1.5-1.5,1.5Z"/></svg>