<svg xmlns="http://www.w3.org/2000/svg" width="24" height="24" viewBox="0 0 24 24"><path d="M18.3 6.92a1.24 1.24 0 0 0-1.32.14L12 10.97V8.04c0-.48-.27-.91-.7-1.12s-.94-.16-1.32.14l-5.04 3.96c-.3.24-.48.6-.48.98s.17.74.48.98l5.04 3.96c.23.18.5.27.77.27.19 0 .37-.04.55-.13.43-.21.7-.64.7-1.12v-2.93l4.98 3.91c.23.18.5.27.77.27.19 0 .37-.04.55-.13.43-.21.7-.64.7-1.12V8.05c0-.48-.27-.91-.7-1.12ZM11 15.96c0 .14-.1.2-.14.22s-.15.06-.26-.03l-5.04-3.96c-.08-.07-.1-.15-.1-.2s.01-.13.1-.2l5.04-3.96c.05-.04.11-.05.15-.05.05 0 .09.02.11.03.04.02.14.08.14.22v7.91Zm7 0c0 .14-.1.2-.14.22s-.15.06-.26-.03l-5.04-3.96c-.08-.07-.1-.15-.1-.2s.01-.13.1-.2l5.04-3.96c.05-.04.11-.05.15-.05.05 0 .09.02.11.03.04.02.14.08.14.22v7.91Z"/></svg>