<svg xmlns="http://www.w3.org/2000/svg" viewBox="0 0 24 24" width="24" height="24"><path d="m12,3c-.28,0-.5.22-.5.5v2c0,.28.22.5.5.5s.5-.22.5-.5v-2c0-.28-.22-.5-.5-.5Z"/><path d="m12,8c-.28,0-.5.22-.5.5v2c0,.28.22.5.5.5s.5-.22.5-.5v-2c0-.28-.22-.5-.5-.5Z"/><path d="m12,18c-.28,0-.5.22-.5.5v2c0,.28.22.5.5.5s.5-.22.5-.5v-2c0-.28-.22-.5-.5-.5Z"/><path d="m12,13c-.28,0-.5.22-.5.5v2c0,.28.22.5.5.5s.5-.22.5-.5v-2c0-.28-.22-.5-.5-.5Z"/><path d="m5.56,3c-.28-.03-.52.16-.56.44l-2,17c-.03.27.16.52.44.56.02,0,.04,0,.06,0,.25,0,.47-.19.5-.44L6,3.56c.03-.27-.16-.52-.44-.56Z"/><path d="m18.44,3c-.27.03-.47.28-.44.56l2,17c.03.25.25.44.5.44.02,0,.04,0,.06,0,.27-.03.47-.28.44-.56l-2-17c-.03-.27-.28-.47-.56-.44Z"/></svg>