<svg xmlns="http://www.w3.org/2000/svg" width="24" height="24" viewBox="0 0 24 24"><path d="M12 9a3 3 0 1 0 0 6 3 3 0 1 0 0-6"/><path d="M20.31 8.49a10 10 0 0 0-.83-1.53c-.32-.48-.69-.93-1.1-1.33-.41-.41-.85-.78-1.33-1.1-.48-.33-1-.61-1.53-.83-.54-.23-1.11-.41-1.69-.53-.42-.09-.86-.14-1.29-.17a.496.496 0 0 0-.53.5c0 .27.21.48.48.5a7.91 7.91 0 0 1 2.64.62 8.2 8.2 0 0 1 2.55 1.72 8.1 8.1 0 0 1 1.72 2.55c.2.48.36.99.47 1.5a8 8 0 0 1-.47 4.73c-.2.47-.45.93-.74 1.36s-.62.82-.98 1.19c-.17.17-.35.32-.53.47l-1.28-1.28c-.32-.31-.85-.09-.85.35v3.29c0 .28.22.5.5.5h3.29c.45 0 .67-.54.35-.85l-1.31-1.31c.18-.15.37-.3.53-.47.41-.41.78-.85 1.1-1.33.33-.48.61-1 .83-1.53.23-.54.41-1.11.53-1.69a9.2 9.2 0 0 0 0-3.63c-.12-.58-.29-1.15-.53-1.69ZM3.69 15.51c.23.53.51 1.05.83 1.53s.69.93 1.1 1.33.85.78 1.33 1.1c.48.33 1 .61 1.53.83.54.23 1.11.41 1.69.53.42.09.86.14 1.29.17.29.02.53-.21.53-.5 0-.27-.21-.48-.48-.5a7.91 7.91 0 0 1-2.64-.62 8.2 8.2 0 0 1-2.55-1.72 8.1 8.1 0 0 1-1.72-2.55c-.2-.48-.36-.99-.47-1.5a8 8 0 0 1 .47-4.73c.2-.47.45-.93.74-1.36s.62-.82.98-1.19c.17-.17.35-.32.53-.47l1.28 1.28c.32.32.85.09.85-.35V3.5c0-.28-.22-.5-.5-.5H5.19c-.45 0-.67.54-.35.85l1.31 1.31c-.18.15-.37.3-.53.47-.41.41-.78.85-1.1 1.33-.33.48-.61 1-.83 1.53-.23.54-.41 1.11-.53 1.69a9.283 9.283 0 0 0 0 3.64c.12.58.29 1.15.53 1.69"/></svg>