<svg xmlns="http://www.w3.org/2000/svg" width="24" height="24" viewBox="0 0 24 24"><path d="M12 8c-.83 0-1.5.67-1.5 1.5S11.17 11 12 11s1.5-.67 1.5-1.5S12.83 8 12 8"/><path d="M17 12.68V9.75c0-1.57-.67-3.07-1.85-4.11l-1.83-1.62c-.76-.67-1.9-.67-2.66 0L8.83 5.64a5.51 5.51 0 0 0-1.85 4.11v2.93c-.94.46-3.59 2.09-3.96 5.93-.03.36.08.72.33.99.24.26.57.41.92.41h15.42c.35 0 .68-.15.92-.41.24-.27.36-.62.33-.99-.37-3.84-3.02-5.47-3.96-5.93ZM4.29 19a.22.22 0 0 1-.18-.08.3.3 0 0 1-.07-.22c.28-2.86 1.99-4.29 2.96-4.88V19zM8 19V9.75c0-1.28.55-2.51 1.51-3.36l1.83-1.62c.38-.34.95-.34 1.33 0l1.83 1.62c.96.85 1.51 2.08 1.51 3.36V19h-8Zm11.89-.08s-.09.08-.18.08H17v-5.18c.98.59 2.69 2.03 2.96 4.88 0 .08-.02.16-.07.22"/></svg>