<svg xmlns="http://www.w3.org/2000/svg" viewBox="0 0 24 24" width="24" height="24"><path d="m12,3C7.04,3,3,7.04,3,12s4.04,9,9,9,9-4.04,9-9S16.96,3,12,3Zm0,17c-4.41,0-8-3.59-8-8S7.59,4,12,4s8,3.59,8,8-3.59,8-8,8Z"/><path d="m15.21,9.05l-3.63,2.54c-.28.2-.28.62,0,.82l3.63,2.54c.33.23.79,0,.79-.41v-5.08c0-.4-.46-.64-.79-.41Z"/><path d="m10.37,12c0-.49.24-.95.64-1.23l.99-.69v-.62c0-.4-.46-.64-.79-.41l-3.63,2.54c-.28.2-.28.62,0,.82l3.63,2.54c.33.23.79,0,.79-.41v-.62l-.99-.69c-.4-.28-.64-.74-.64-1.23Z"/></svg>