<svg xmlns="http://www.w3.org/2000/svg" width="24" height="24" viewBox="0 0 24 24"><path d="m20.15 4.85-1.32 1.32C17.17 4.22 14.7 2.98 11.94 3c-4.73.04-8.67 3.79-8.92 8.51C2.74 16.69 6.88 21 12.01 21c4.79 0 8.72-3.76 8.99-8.48a.49.49 0 0 0-.49-.52c-.27 0-.49.2-.5.47-.24 4.19-3.73 7.53-7.99 7.53-4.56 0-8.24-3.83-7.99-8.44.22-4.12 3.6-7.42 7.72-7.56 2.57-.08 4.86 1.06 6.38 2.87l-1.27 1.27c-.32.32-.09.85.35.85h3.29c.28 0 .5-.22.5-.5V5.2c0-.45-.54-.67-.85-.35"/><path d="M9.86 13.5q-.195.09-.45.09-.285 0-.54-.12c-.05-.02-.09-.05-.14-.08a.44.44 0 0 0-.55.06l-.06.06c-.21.21-.18.54.05.69.1.06.21.12.32.17.28.12.6.18.94.18.39 0 .72-.07 1.01-.21s.51-.34.67-.59.24-.54.24-.87c0-.3-.06-.56-.18-.77s-.28-.38-.48-.5a1.4 1.4 0 0 0-.57-.17l1.03-1.18c.07-.08.11-.18.11-.29 0-.24-.2-.44-.44-.44h-2.3c-.24 0-.44.2-.44.44v.05c0 .24.2.44.44.44h1.24l-.88 1.04s-.05.09-.05.14v.27c0 .13.11.23.24.21.1-.01.19-.02.28-.02.19 0 .36.03.49.09.14.06.24.15.31.26s.11.24.11.4-.04.29-.11.4-.17.2-.3.26ZM14.99 9.77c-.32-.21-.68-.32-1.08-.32s-.76.11-1.08.32-.57.51-.75.89-.27.83-.27 1.33.09.95.28 1.33c.18.38.44.68.76.9.32.21.68.32 1.08.32s.76-.11 1.07-.32.56-.51.75-.89c.18-.38.28-.83.28-1.34s-.09-.96-.28-1.34c-.18-.38-.44-.68-.75-.89Zm-.2 3.09c-.08.24-.2.41-.35.53s-.33.18-.53.18-.38-.06-.54-.18-.27-.3-.35-.53q-.12-.345-.12-.87c0-.525.04-.63.12-.87.08-.23.19-.41.35-.53.15-.12.33-.17.53-.17s.39.06.54.18.27.29.35.53.12.52.12.87-.04.63-.12.86"/></svg>