<svg xmlns="http://www.w3.org/2000/svg" width="24" height="24" viewBox="0 0 24 24"><path d="M14.59 6.59c-.78.78-.78 2.05 0 2.83s2.05.78 2.83 0 .78-2.05 0-2.83-2.05-.78-2.83 0M6 15c-2 1-2 5-2 5s3 0 5-2z"/><path d="M19.75 3H17.8c-2.57 0-5.05.94-6.98 2.65L9.36 6.94c-.76-.18-2.88-.53-5.19.59-.36.17-.61.52-.68.92s.06.81.35 1.1l10.7 10.7c.24.24.57.37.9.37h.16c.37-.05.69-.26.88-.57 1.13-1.92.73-4.56.56-5.4l1.3-1.47c1.71-1.92 2.65-4.4 2.65-6.98V4.25c0-.69-.56-1.25-1.25-1.25ZM20 6.2c0 2.33-.85 4.57-2.4 6.31l-1.47 1.66c-.11.12-.15.29-.11.45 0 .03.73 3-.39 4.91a.22.22 0 0 1-.15.09c-.08 0-.17-.02-.23-.08L4.55 8.84a.25.25 0 0 1-.07-.22c0-.05.04-.13.13-.18 1.1-.54 2.17-.68 3.01-.68 1.02 0 1.71.22 1.72.22.17.05.36.02.49-.1l1.66-1.47a9.47 9.47 0 0 1 6.31-2.4h1.95c.14 0 .25.11.25.25v1.95Z"/></svg>