<svg xmlns="http://www.w3.org/2000/svg" width="24" height="24" viewBox="0 0 24 24"><path d="M12 9a3 3 0 1 0 0 6 3 3 0 1 0 0-6"/><path d="M3.5 9h3.29c.45 0 .67-.54.35-.85L5.86 6.87c.15-.18.3-.37.47-.53a8.1 8.1 0 0 1 2.55-1.72c.48-.2.99-.36 1.5-.47a8 8 0 0 1 4.73.47c.47.2.93.45 1.36.74s.82.62 1.19.98a8.1 8.1 0 0 1 1.72 2.55c.2.48.36.99.47 1.5.08.37.13.76.15 1.14.02.27.23.48.5.48.29 0 .52-.24.5-.53-.03-.43-.08-.87-.17-1.29-.12-.58-.29-1.15-.53-1.69a10 10 0 0 0-.83-1.53c-.32-.48-.69-.93-1.1-1.33-.41-.41-.86-.78-1.33-1.1-.48-.33-1-.61-1.53-.83-.54-.23-1.11-.41-1.69-.53a9.2 9.2 0 0 0-3.63 0c-.58.12-1.15.29-1.69.53-.53.23-1.05.51-1.53.83s-.93.69-1.33 1.1c-.17.17-.31.35-.47.53L3.86 4.86a.496.496 0 0 0-.85.35V8.5c0 .28.22.5.5.5ZM7.52 18.64c-.43-.29-.82-.62-1.19-.98a8.1 8.1 0 0 1-1.72-2.55c-.2-.48-.36-.99-.47-1.5a7 7 0 0 1-.15-1.14.504.504 0 0 0-.5-.48c-.29 0-.52.24-.5.53.03.43.08.87.17 1.29.12.58.29 1.15.53 1.69.23.53.51 1.05.83 1.53s.69.93 1.1 1.33.86.78 1.33 1.1c.48.33 1 .61 1.53.83.54.23 1.11.41 1.69.53a9.283 9.283 0 0 0 3.64 0c.58-.12 1.15-.29 1.69-.53a10 10 0 0 0 1.53-.83c.48-.32.93-.69 1.33-1.1.17-.17.31-.35.47-.53l1.31 1.31c.32.32.85.09.85-.35V15.5c0-.28-.22-.5-.5-.5H17.2c-.45 0-.67.54-.35.85l1.28 1.28c-.15.18-.3.37-.47.53a8.1 8.1 0 0 1-2.55 1.72c-.48.2-.99.36-1.5.47a8 8 0 0 1-4.73-.47c-.47-.2-.93-.45-1.36-.74"/></svg>