<svg xmlns="http://www.w3.org/2000/svg" viewBox="0 0 24 24" width="24" height="24"><path d="m4.5,18h.74c1.9,0,3.64-.96,4.65-2.56l.92-1.46,2.61,1.58c.76.51,1.34,1.23,1.67,2.03l.92,3.06c.06.22.26.36.48.36.05,0,.1,0,.14-.02.26-.08.41-.36.33-.62l-.94-3.1c-.41-1.04-1.13-1.91-2.07-2.55l-1.32-.8,2.91-4.57c.2.19.39.39.56.6.48.6,1.17.98,1.94,1.05.1.01.2.02.29.02.66,0,1.29-.23,1.78-.64l.66-.47c.23-.16.28-.47.12-.7-.16-.23-.47-.28-.7-.12l-.69.49c-.38.32-.87.47-1.37.42-.5-.05-.94-.29-1.25-.68-.36-.45-.78-.86-1.25-1.21-.95-.71-2.08-1.17-3.27-1.32-1.61-.2-3.22.48-4.21,1.8l-1.09,1.63c-.15.23-.09.54.14.69.23.16.54.09.69-.14l1.08-1.61c.76-1.01,2.01-1.54,3.27-1.39.38.05.75.14,1.11.26l-4.33,6.85c-.83,1.31-2.25,2.1-3.8,2.1h-.74c-.28,0-.5.22-.5.5s.22.5.5.5Z"/><path d="M16.5 4A1.5 1.5 0 1 0 16.5 7 1.5 1.5 0 1 0 16.5 4z"/></svg>