<svg xmlns="http://www.w3.org/2000/svg" width="24" height="24" viewBox="0 0 24 24"><path d="M12.28 14.08c-.19.09-.41.13-.66.13-.29 0-.55-.06-.8-.17-.07-.03-.13-.07-.18-.1a.65.65 0 0 0-.82.09l-.06.06c-.31.3-.25.82.12 1.04q.195.12.42.21c.42.17.88.25 1.37.25.56 0 1.05-.1 1.46-.31s.73-.49.96-.86.35-.78.35-1.25q0-.645-.27-1.17c-.18-.35-.45-.64-.81-.85s-.79-.32-1.31-.32c-.23 0-.42.02-.59.06-.09.02-.16.06-.24.09l.14-1.23h2.04a.66.66 0 1 0 0-1.32h-2.71c-.34 0-.63.26-.66.6l-.24 2.34c-.02.24.06.47.24.63.21.2.53.26.79.15.05-.02.1-.04.16-.06q.3-.09.66-.09c.36 0 .46.04.65.13s.34.22.44.38c.11.17.16.37.16.6a1.04 1.04 0 0 1-.6.98Z"/><path d="M4.01 12.47a.51.51 0 0 0-.5-.47c-.28 0-.51.23-.49.52.27 4.72 4.2 8.48 8.99 8.48 5.13 0 9.26-4.31 8.99-9.49-.25-4.72-4.19-8.47-8.92-8.51-2.76-.02-5.23 1.22-6.89 3.17L3.87 4.85c-.32-.31-.85-.09-.85.35v3.29c0 .28.22.5.5.5h3.29c.45 0 .67-.54.35-.85L5.89 6.87C7.41 5.06 9.71 3.92 12.27 4c4.12.13 7.5 3.44 7.72 7.56C20.24 16.17 16.56 20 12 20c-4.25 0-7.74-3.34-7.99-7.53"/></svg>