<svg xmlns="http://www.w3.org/2000/svg" width="24" height="24" viewBox="0 0 24 24"><path d="M19 11h-2V6c0-1.1-.9-2-2-2H5c-1.1 0-2 .9-2 2v10.5C3 18.43 4.57 20 6.5 20h12a2.5 2.5 0 0 0 2.5-2.5V13c0-1.1-.9-2-2-2M6.5 19A2.5 2.5 0 0 1 4 16.5V6c0-.55.45-1 1-1h10c.55 0 1 .45 1 1v11.5c0 .56.19 1.08.5 1.5zM20 17.5c0 .83-.67 1.5-1.5 1.5s-1.5-.67-1.5-1.5V12h2c.55 0 1 .45 1 1z"/><path d="M13.5 8h-7c-.28 0-.5.22-.5.5s.22.5.5.5h7c.28 0 .5-.22.5-.5s-.22-.5-.5-.5M13.5 11.5h-7c-.28 0-.5.22-.5.5s.22.5.5.5h7c.28 0 .5-.22.5-.5s-.22-.5-.5-.5M13.5 15h-2c-.28 0-.5.22-.5.5s.22.5.5.5h2c.28 0 .5-.22.5-.5s-.22-.5-.5-.5"/></svg>