<svg xmlns="http://www.w3.org/2000/svg" viewBox="0 0 24 24" width="24" height="24"><path d="m13.5,9h-1.5v-2.77c0-.51-.29-.95-.75-1.15-.47-.2-.98-.11-1.35.23h0s-6.15,5.77-6.15,5.77c-.25.24-.4.57-.4.91s.14.68.4.91l6.15,5.77c.24.22.54.34.85.34.17,0,.34-.04.5-.11.46-.2.75-.64.75-1.15v-2.77h1.14c1.99,0,3.84.89,5.08,2.44l.56.7c.34.42.88.58,1.39.4.51-.18.84-.64.84-1.18v-.86c0-4.14-3.36-7.5-7.5-7.5Zm6.5,8.36c0,.16-.12.22-.17.24-.05.02-.18.04-.28-.08l-.56-.7c-1.43-1.79-3.57-2.81-5.86-2.81h-1.64c-.28,0-.5.22-.5.5v3.27c0,.15-.11.21-.15.23-.04.02-.16.06-.27-.05l-6.15-5.77c-.07-.06-.08-.14-.08-.18s.01-.12.08-.18l6.15-5.77c.11-.1.23-.07.27-.05.04.02.15.08.15.23v3.27c0,.28.22.5.5.5h2c3.58,0,6.5,2.92,6.5,6.5v.86Z"/></svg>