<svg xmlns="http://www.w3.org/2000/svg" width="24" height="24" viewBox="0 0 24 24"><path d="M12.53 21c.43-.03.87-.08 1.29-.17.58-.12 1.15-.29 1.69-.53a10 10 0 0 0 1.53-.83c.48-.32.93-.69 1.33-1.1s.78-.86 1.1-1.33c.33-.48.61-1 .83-1.53.23-.54.41-1.11.53-1.69a9.2 9.2 0 0 0 0-3.63c-.12-.58-.29-1.15-.53-1.69a10 10 0 0 0-.83-1.53c-.32-.48-.69-.93-1.1-1.33-.17-.17-.35-.31-.53-.47l1.31-1.31c.32-.32.09-.85-.35-.85h-3.29c-.28 0-.5.22-.5.5V6.8c0 .45.54.67.85.35l1.28-1.28c.18.15.37.3.53.47a8.1 8.1 0 0 1 1.72 2.55c.2.48.36.99.47 1.5a8 8 0 0 1-.47 4.73c-.2.47-.45.93-.74 1.36s-.62.82-.98 1.19a8.1 8.1 0 0 1-2.55 1.72c-.48.2-.99.36-1.5.47-.37.08-.76.13-1.14.15-.27.02-.48.23-.48.5 0 .29.24.52.53.5ZM3.69 15.51c.23.53.51 1.05.83 1.53s.69.93 1.1 1.33c.17.17.35.31.53.47l-1.31 1.31c-.32.32-.09.85.35.85h3.29c.28 0 .5-.22.5-.5v-3.29c0-.45-.54-.67-.85-.35l-1.28 1.28c-.18-.15-.37-.3-.53-.47a8.1 8.1 0 0 1-1.72-2.55c-.2-.48-.36-.99-.47-1.5a8 8 0 0 1 .47-4.73c.2-.47.45-.93.74-1.36s.62-.82.98-1.19a8.1 8.1 0 0 1 2.55-1.72c.48-.2.99-.36 1.5-.47.37-.08.76-.13 1.14-.15.27-.02.48-.23.48-.5 0-.29-.24-.52-.53-.5-.43.03-.87.08-1.29.17-.58.12-1.15.29-1.69.53-.53.23-1.05.51-1.53.83s-.93.69-1.33 1.1c-.41.41-.78.86-1.1 1.33-.33.48-.61 1-.83 1.53-.23.54-.41 1.11-.53 1.69a9.283 9.283 0 0 0 0 3.64c.12.58.29 1.15.53 1.69"/></svg>