<svg version="1.1" xmlns="http://www.w3.org/2000/svg" xmlns:xlink="http://www.w3.org/1999/xlink" x="0px" y="0px" viewBox="0 0 24 24" xml:space="preserve" width="24" height="24"><path class="st0" d="M21,12c0-0.3-0.2-0.5-0.5-0.5h-17C3.2,11.5,3,11.7,3,12s0.2,0.5,0.5,0.5h17C20.8,12.5,21,12.3,21,12z"/><path class="st0" d="M15.6,19.4l-2.9-3.4c-0.4-0.5-1.1-0.5-1.5,0l-2.9,3.4C7.8,20,8.3,21,9.1,21h5.7C15.7,21,16.2,20,15.6,19.4
	L15.6,19.4z"/><path class="st0" d="M15.6,4.6C16.2,4,15.7,3,14.9,3H9.1C8.3,3,7.8,4,8.4,4.6l2.9,3.4c0.4,0.5,1.1,0.5,1.5,0L15.6,4.6L15.6,4.6z"/></svg>