<svg xmlns="http://www.w3.org/2000/svg" viewBox="0 0 24 24" width="24" height="24"><path d="M8.5 10A1.5 2 0 1 0 8.5 14 1.5 2 0 1 0 8.5 10z"/><path d="M15.5 10A1.5 2 0 1 0 15.5 14 1.5 2 0 1 0 15.5 10z"/><path d="m15.5,16h-7c-.28,0-.5.22-.5.5s.22.5.5.5h7c.28,0,.5-.22.5-.5s-.22-.5-.5-.5Z"/><path d="m20,11v-.5c0-1.93-1.57-3.5-3.5-3.5h-4v-1.09c.58-.21,1-.76,1-1.41,0-.83-.67-1.5-1.5-1.5s-1.5.67-1.5,1.5c0,.65.42,1.2,1,1.41v1.09h-4c-1.93,0-3.5,1.57-3.5,3.5v.5c-.55,0-1,.45-1,1v4c0,.55.45,1,1,1v.5c0,1.93,1.57,3.5,3.5,3.5h9c1.93,0,3.5-1.57,3.5-3.5v-.5c.55,0,1-.45,1-1v-4c0-.55-.45-1-1-1Zm-1,6.5c0,1.38-1.12,2.5-2.5,2.5H7.5c-1.38,0-2.5-1.12-2.5-2.5v-7c0-1.38,1.12-2.5,2.5-2.5h9c1.38,0,2.5,1.12,2.5,2.5v7Z"/></svg>