<svg xmlns="http://www.w3.org/2000/svg" width="24" height="24" viewBox="0 0 24 24"><path d="M8.4 11h7.2a1.25 1.25 0 0 0 1.04-1.94l-3.6-5.4c-.46-.7-1.62-.7-2.08 0l-3.6 5.4c-.26.38-.28.88-.06 1.28.22.41.64.66 1.1.66m-.21-1.39 3.6-5.4c.06-.1.16-.11.21-.11s.14.01.21.11l3.6 5.4c.07.11.03.22.01.26s-.08.13-.22.13H8.4c-.14 0-.2-.09-.22-.13a.26.26 0 0 1 .01-.26M17 13c-2.21 0-4 1.79-4 4s1.79 4 4 4 4-1.79 4-4-1.79-4-4-4m0 7c-1.65 0-3-1.35-3-3s1.35-3 3-3 3 1.35 3 3-1.35 3-3 3M4.25 21h5.5c.69 0 1.25-.56 1.25-1.25v-5.5c0-.69-.56-1.25-1.25-1.25h-5.5C3.56 13 3 13.56 3 14.25v5.5c0 .69.56 1.25 1.25 1.25M4 14.25c0-.14.11-.25.25-.25h5.5c.14 0 .25.11.25.25v5.5c0 .14-.11.25-.25.25h-5.5c-.14 0-.25-.11-.25-.25z"/></svg>