<svg xmlns="http://www.w3.org/2000/svg" viewBox="0 0 24 24" width="24" height="24"><path d="m9.78,13.11l-.74,2.58c-.13.45.37.81.76.55l2.2-1.47,2.2,1.47c.39.26.89-.11.76-.55l-.74-2.58,1.91-1.72c.33-.29.14-.84-.29-.87l-2.34-.19-1.05-2.32c-.18-.39-.73-.39-.91,0l-1.05,2.32-2.34.19c-.44.03-.62.58-.29.87l1.91,1.72Z"/><path d="m16.5,20c1.93,0,3.5-1.57,3.5-3.5V7.5c0-1.93-1.57-3.5-3.5-3.5H7.5c-1.93,0-3.5,1.57-3.5,3.5v9c0,1.93,1.57,3.5,3.5,3.5h9Zm-11.5-3.5V7.5c0-1.38,1.12-2.5,2.5-2.5h9c1.38,0,2.5,1.12,2.5,2.5v9c0,1.38-1.12,2.5-2.5,2.5H7.5c-1.38,0-2.5-1.12-2.5-2.5Z"/></svg>