<svg xmlns="http://www.w3.org/2000/svg" width="24" height="24" viewBox="0 0 24 24"><path d="M20.26 5.56c-3.15 1.25-5.71-.38-6.96-1.46-.74-.64-1.85-.64-2.58 0C9.46 5.19 6.88 6.83 3.7 5.54a.53.53 0 0 0-.46.04c-.14.09-.22.23-.23.4 0 .11-.45 11.45 8.29 14.8.22.09.47.13.71.13s.48-.04.71-.13c8.1-3.11 8.33-12.83 8.29-14.78 0-.36-.45-.6-.74-.44Zm-7.91 14.29c-.22.08-.48.08-.7 0C4.78 17.21 4.06 9.12 4 6.71c3.35 1.01 6.02-.69 7.36-1.86.36-.31.91-.31 1.27 0 1.34 1.16 4.01 2.86 7.36 1.86-.06 2.74-.85 10.53-7.65 13.14Z"/></svg>