<svg xmlns="http://www.w3.org/2000/svg" viewBox="0 0 24 24" width="24" height="24"><path d="m10.2,3.18c-3.52.68-6.34,3.51-7.02,7.02-.96,4.94,2.11,9.6,6.99,10.61.24.05.48.07.71.07.92,0,1.81-.36,2.48-1.03l6.5-6.5c.84-.84,1.2-2.03.96-3.19-1.01-4.88-5.67-7.95-10.61-6.99Zm.17,16.66c-4.34-.9-7.06-5.05-6.21-9.44.61-3.12,3.11-5.63,6.23-6.23.54-.11,1.08-.16,1.61-.16,3.76,0,7.04,2.57,7.83,6.37.05.23.06.46.04.69-.83-.09-1.68-.06-2.49.11-.51.11-1.02.26-1.5.47-.47.2-.93.45-1.36.74-.43.29-.82.62-1.18.97s-.69.75-.98,1.18c-.29.43-.53.88-.74,1.36-.2.48-.36.99-.47,1.5-.11.53-.16,1.07-.16,1.61,0,.29.02.59.05.88-.23.02-.46,0-.69-.04Z"/></svg>