<svg xmlns="http://www.w3.org/2000/svg" viewBox="0 0 24 24" width="24" height="24"><path d="m7.83,15.78c.2.05.34.2.4.4.77,2.88,3.38,4.83,6.29,4.83.32,0,.65-.02.98-.07,2.78-.41,5.02-2.65,5.43-5.43.49-3.29-1.55-6.42-4.75-7.27-.2-.05-.34-.2-.4-.4h0c-.85-3.2-3.98-5.24-7.27-4.75-2.78.41-5.02,2.65-5.43,5.43-.49,3.29,1.55,6.42,4.75,7.27Zm-3.77-7.12c.35-2.35,2.24-4.24,4.59-4.59.28-.04.55-.06.83-.06,2.47,0,4.68,1.64,5.33,4.08.15.55.56.96,1.11,1.11,2.71.72,4.44,3.37,4.02,6.16-.35,2.35-2.24,4.24-4.59,4.59-2.79.41-5.44-1.31-6.16-4.02-.15-.55-.56-.96-1.11-1.11-2.71-.72-4.44-3.37-4.02-6.16Z"/></svg>