<svg xmlns="http://www.w3.org/2000/svg" viewBox="0 0 24 24" width="24" height="24"><path d="m3.48,9.31c-.28.01-.49.25-.47.53.06,1.21.46,2.38,1.16,3.38.1.14.25.21.41.21.1,0,.2-.03.29-.09.23-.16.28-.47.12-.7-.59-.84-.93-1.83-.98-2.86-.01-.28-.26-.49-.53-.47Z"/><path d="m12.62,4.97c.09.06.19.09.28.09.16,0,.31-.08.41-.22.16-.23.1-.54-.13-.7-1-.69-2.17-1.09-3.39-1.14-.27-.02-.51.2-.52.48s.2.51.48.52c1.03.05,2.02.38,2.86.97Z"/><path d="m6.82,4.7c.24-.14.33-.44.19-.68-.14-.24-.44-.33-.68-.19-1.06.59-1.93,1.47-2.52,2.53-.13.24-.05.55.2.68.08.04.16.06.24.06.18,0,.35-.09.44-.26.5-.9,1.24-1.64,2.13-2.14Z"/><path d="m17.32,9.18c.11-.25,0-.55-.26-.66-.39-.17-.8-.28-1.21-.37h0s0,0,0,0c-.09-.41-.2-.82-.37-1.21-.11-.25-.41-.37-.66-.26-.25.11-.37.4-.26.66.09.22.17.44.24.67-.03,0-.06,0-.09,0-.07,0-.13,0-.2,0-.19,0-.37.01-.55.03-.02,0-.05,0-.07,0,0,0,0,0,0,0-1,.1-1.94.43-2.76.93-.01,0-.03,0-.04.01-.03.02-.06.05-.1.07-.12.08-.24.16-.35.25-.07.05-.14.1-.21.16-.15.12-.3.25-.44.39-.03.03-.07.06-.1.1-.15.15-.29.31-.42.47-.06.07-.11.14-.16.21-.08.11-.17.23-.25.35-.02.03-.05.06-.07.1,0,.01,0,.03-.02.04-.51.82-.84,1.76-.94,2.76,0,0,0,0,0,0-.02.21-.03.41-.03.62,0,.1,0,.19,0,.29-.23-.06-.45-.14-.67-.24-.25-.11-.55,0-.66.26-.11.25,0,.55.26.66.39.17.8.28,1.21.37h0s0,0,0,0c.09.41.2.82.37,1.21.08.19.27.3.46.3.07,0,.13-.01.2-.04.25-.11.37-.4.26-.66-.09-.22-.17-.44-.23-.67.03,0,.06,0,.09,0,.07,0,.13,0,.2,0,.18,0,.36-.01.53-.03.03,0,.06,0,.09,0,0,0,0,0,0,0,1.01-.1,1.94-.43,2.76-.94.01,0,.02,0,.03,0,.04-.02.07-.05.1-.07.11-.07.22-.15.33-.24.07-.05.15-.11.22-.17.16-.13.31-.26.45-.4.02-.02.05-.04.07-.07.16-.16.3-.32.44-.5.05-.07.1-.13.15-.2.09-.12.17-.23.25-.36.02-.03.05-.06.07-.09,0-.01,0-.03.02-.04.51-.82.84-1.76.94-2.76,0,0,0,0,0,0,.02-.21.03-.41.03-.62,0-.1,0-.19,0-.29.23.06.45.14.67.24.25.11.55,0,.66-.26Zm-3.21,3.3c-.07.11-.15.21-.22.32-.04.05-.08.11-.12.16-.12.15-.25.3-.39.43,0,0-.02.01-.02.02-.13.13-.27.25-.41.37-.06.04-.11.09-.17.13-.1.07-.2.15-.3.21-.74.48-1.6.78-2.52.86-.2.02-.39.02-.58.02-.05,0-.1,0-.15,0-.08,0-.14-.02-.21-.02,0,0,0,0,0,0-.01-.14-.02-.29-.02-.46,0-1.1.33-2.12.89-2.98.07-.11.14-.21.22-.31.04-.05.08-.11.12-.16.12-.15.25-.3.39-.43,0,0,.01-.01.02-.02.13-.13.27-.25.42-.37.05-.04.1-.08.16-.12.1-.08.21-.16.32-.23.74-.48,1.61-.78,2.54-.86.19-.01.37-.02.55-.02.05,0,.11,0,.16,0,.07,0,.14.01.2.02,0,0,0,0,0,0,.01.14.02.29.02.46,0,1.1-.33,2.12-.88,2.98Z"/><path d="m11.38,19.03c-.23-.16-.54-.1-.7.13-.16.23-.1.54.13.7,1,.69,2.17,1.09,3.38,1.14,0,0,.02,0,.02,0,.27,0,.49-.21.5-.48.01-.28-.2-.51-.48-.52-1.03-.05-2.02-.38-2.86-.96Z"/><path d="m17.43,20.24c.08,0,.17-.02.24-.06,1.06-.6,1.93-1.47,2.52-2.53.13-.24.05-.55-.2-.68-.24-.13-.55-.05-.68.2-.5.9-1.23,1.64-2.13,2.15-.24.14-.33.44-.19.68.09.16.26.25.44.25Z"/><path d="m20.52,14.69c.28-.01.49-.25.47-.52-.06-1.21-.46-2.38-1.16-3.38-.16-.23-.47-.28-.7-.12-.23.16-.28.47-.12.7.59.84.93,1.83.98,2.86.01.27.23.47.5.47,0,0,.02,0,.03,0Z"/></svg>