<svg xmlns="http://www.w3.org/2000/svg" viewBox="0 0 24 24" width="24" height="24"><path d="m18,9.29v-1.29c0-1.1-.9-2-2-2h-1.29l-1.29-1.29c-.75-.76-2.07-.76-2.83,0l-1.29,1.29h-1.29c-1.1,0-2,.9-2,2v1.29l-1.29,1.29c-.78.78-.78,2.05,0,2.83l1.29,1.29v1.29c0,1.1.9,2,2,2h1.29l1.29,1.29c.38.38.88.59,1.41.59s1.04-.21,1.41-.59l1.29-1.29h1.29c1.1,0,2-.9,2-2v-1.29l1.29-1.29c.78-.78.78-2.05,0-2.83l-1.29-1.29Zm.59,3.41l-1.44,1.44c-.09.09-.15.22-.15.35v1.5c0,.55-.45,1-1,1h-1.5c-.13,0-.26.05-.35.15l-1.44,1.44c-.38.38-1.04.38-1.41,0l-1.44-1.44c-.09-.09-.22-.15-.35-.15h-1.5c-.55,0-1-.45-1-1v-1.5c0-.13-.05-.26-.15-.35l-1.44-1.44c-.39-.39-.39-1.02,0-1.41l1.44-1.44c.09-.09.15-.22.15-.35v-1.5c0-.55.45-1,1-1h1.5c.13,0,.26-.05.35-.15l1.44-1.44c.38-.38,1.04-.38,1.41,0l1.44,1.44c.09.09.22.15.35.15h1.5c.55,0,1,.45,1,1v1.5c0,.13.05.26.15.35l1.44,1.44c.39.39.39,1.02,0,1.41Z"/></svg>