<svg xmlns="http://www.w3.org/2000/svg" viewBox="0 0 24 24" width="24" height="24"><path d="m3,15.5c0,1.21.86,2.22,2,2.45v2.55c0,.28.22.5.5.5s.5-.22.5-.5v-2.55c1.14-.23,2-1.24,2-2.45s-.86-2.22-2-2.45V3.5c0-.28-.22-.5-.5-.5s-.5.22-.5.5v9.55c-1.14.23-2,1.24-2,2.45Zm2.5-1.5c.83,0,1.5.67,1.5,1.5s-.67,1.5-1.5,1.5-1.5-.67-1.5-1.5.67-1.5,1.5-1.5Z"/><path d="m19,13.05V3.5c0-.28-.22-.5-.5-.5s-.5.22-.5.5v9.55c-1.14.23-2,1.24-2,2.45s.86,2.22,2,2.45v2.55c0,.28.22.5.5.5s.5-.22.5-.5v-2.55c1.14-.23,2-1.24,2-2.45s-.86-2.22-2-2.45Zm-.5,3.95c-.83,0-1.5-.67-1.5-1.5s.67-1.5,1.5-1.5,1.5.67,1.5,1.5-.67,1.5-1.5,1.5Z"/><path d="m12,3c-.28,0-.5.22-.5.5v1.55c-1.14.23-2,1.24-2,2.45s.86,2.22,2,2.45v10.55c0,.28.22.5.5.5s.5-.22.5-.5v-10.55c1.14-.23,2-1.24,2-2.45s-.86-2.22-2-2.45v-1.55c0-.28-.22-.5-.5-.5Zm1.5,4.5c0,.83-.67,1.5-1.5,1.5s-1.5-.67-1.5-1.5.67-1.5,1.5-1.5,1.5.67,1.5,1.5Z"/></svg>