<svg xmlns="http://www.w3.org/2000/svg" viewBox="0 0 24 24" width="24" height="24"><path d="m17.5,13c-1.76,0-3.21,1.31-3.45,3.01-.02,0-.03-.01-.05-.01H3.5c-.28,0-.5.22-.5.5s.22.5.5.5h10.5s.03,0,.05-.01c.24,1.7,1.69,3.01,3.45,3.01,1.93,0,3.5-1.57,3.5-3.5s-1.57-3.5-3.5-3.5Zm0,6c-1.38,0-2.5-1.12-2.5-2.5s1.12-2.5,2.5-2.5,2.5,1.12,2.5,2.5-1.12,2.5-2.5,2.5Z"/><path d="m20.5,7h-10.55c-.25-1.69-1.69-3-3.45-3-1.93,0-3.5,1.57-3.5,3.5s1.57,3.5,3.5,3.5c1.76,0,3.2-1.31,3.45-3h10.55c.28,0,.5-.22.5-.5s-.22-.5-.5-.5Zm-14,3c-1.38,0-2.5-1.12-2.5-2.5s1.12-2.5,2.5-2.5,2.5,1.12,2.5,2.5-1.12,2.5-2.5,2.5Z"/></svg>