<svg xmlns="http://www.w3.org/2000/svg" viewBox="0 0 24 24" width="24" height="24"><path d="m20.59,10.02c-.26-.2-.6-.25-.91-.14-.7.24-1.96.76-3.41,1.76-.06-.7-.49-3.89-3.52-7.29-.38-.42-1.13-.42-1.5,0-3.05,3.43-3.46,6.64-3.52,7.32-1.45-1.01-2.71-1.54-3.4-1.78-.31-.11-.65-.06-.92.14-.26.2-.41.51-.4.83.25,6.26,3.69,10.15,8.99,10.15s8.72-3.98,8.98-10.15c.01-.33-.13-.64-.4-.83Zm-11.87,1.8s.16-3.31,3.28-6.81c3.09,3.48,3.27,6.77,3.27,6.79v.57c-1.09.87-2.23,2.01-3.28,3.49,0,0,0,0,0,0-1.06-1.46-2.2-2.58-3.27-3.45v-.59Zm3.28,8.19c-4.77,0-7.76-3.44-8-9.18,1.25.44,4.44,1.86,7.18,5.62.19.26.49.41.81.41h0c.32,0,.62-.16.81-.42,2.68-3.76,5.92-5.18,7.17-5.63-.18,4.24-2.38,9.19-7.99,9.19Z"/></svg>