<svg xmlns="http://www.w3.org/2000/svg" viewBox="0 0 24 24" width="24" height="24"><path d="m4.5,9c.28,0,.5-.22.5-.5v-1c0-1.38,1.12-2.5,2.5-2.5h1c.28,0,.5-.22.5-.5s-.22-.5-.5-.5h-1c-1.93,0-3.5,1.57-3.5,3.5v1c0,.28.22.5.5.5Z"/><path d="m19.5,9c.28,0,.5-.22.5-.5v-1c0-1.93-1.57-3.5-3.5-3.5h-1c-.28,0-.5.22-.5.5s.22.5.5.5h1c1.38,0,2.5,1.12,2.5,2.5v1c0,.28.22.5.5.5Z"/><path d="m19.5,15c-.28,0-.5.22-.5.5v1c0,1.38-1.12,2.5-2.5,2.5h-1c-.28,0-.5.22-.5.5s.22.5.5.5h1c1.93,0,3.5-1.57,3.5-3.5v-1c0-.28-.22-.5-.5-.5Z"/><path d="m8.5,19h-1c-1.38,0-2.5-1.12-2.5-2.5v-1c0-.28-.22-.5-.5-.5s-.5.22-.5.5v1c0,1.93,1.57,3.5,3.5,3.5h1c.28,0,.5-.22.5-.5s-.22-.5-.5-.5Z"/><path d="m20.5,11.5H3.5c-.28,0-.5.22-.5.5s.22.5.5.5h17c.28,0,.5-.22.5-.5s-.22-.5-.5-.5Z"/></svg>