<svg xmlns="http://www.w3.org/2000/svg" width="24" height="24" viewBox="0 0 24 24"><path d="M12 3c-4.96 0-9 4.04-9 9s4.04 9 9 9 9-4.04 9-9-4.04-9-9-9m3.56 1.85c-.09.02-.18.03-.28.05-.12.02-.23.05-.35.08s-.23.06-.34.1-.23.07-.34.11-.22.08-.33.13-.21.09-.32.15c-.11.05-.21.1-.31.16s-.2.11-.3.17-.2.12-.29.19c-.1.06-.19.13-.28.2s-.19.14-.27.22c-.09.07-.18.15-.26.23-.09.08-.17.16-.25.24s-.16.17-.24.25l-.23.26c-.07.09-.15.18-.22.27s-.14.19-.2.28c-.07.1-.13.19-.19.29s-.12.2-.17.3c-.06.1-.11.21-.16.31-.05.11-.1.21-.14.32-.05.11-.09.22-.13.33s-.08.22-.11.33c-.04.11-.07.23-.1.34-.03.12-.06.23-.08.35s-.05.24-.06.36c-.02.12-.03.24-.05.36l-.03.37v.37c0 .12.02.23.03.34l-.16-.13c-.08-.07-.15-.14-.23-.21l-.21-.21c-.07-.07-.14-.15-.2-.22-.06-.08-.13-.15-.19-.23l-.18-.24c-.06-.08-.11-.17-.17-.25-.05-.08-.11-.17-.16-.26s-.1-.17-.14-.26c-.05-.09-.09-.18-.13-.27s-.08-.18-.12-.28c-.04-.09-.07-.19-.1-.28s-.06-.19-.09-.29-.05-.19-.08-.29c-.02-.1-.04-.2-.06-.29-.02-.1-.03-.2-.05-.3L7.26 8c0-.1-.01-.2-.02-.31v-.3c0-.1 0-.21.01-.31 0-.1.02-.21.03-.31s.03-.21.04-.31c.02-.1.04-.2.06-.31.02-.1.05-.21.08-.31l.09-.31c.02-.08.05-.15.08-.23a7.97 7.97 0 0 1 4.4-1.32c1.28 0 2.49.31 3.56.85ZM6.3 6.4c-.01.09-.03.19-.04.28l-.03.36c0 .12-.01.24-.01.36v.35c0 .12.01.24.02.35 0 .12.02.23.04.35s.03.23.06.35c.02.11.05.23.07.34l.09.34c.03.11.07.22.1.33l.12.33c.04.11.09.21.14.32s.1.21.15.31.11.21.17.31l.18.3c.06.1.13.19.19.29.07.1.14.19.21.28s.15.18.22.27l.23.26c.08.09.16.17.25.25.08.08.17.16.26.24s.18.15.27.22.19.14.29.21.2.14.3.2.2.13.31.19.21.12.32.17.22.11.33.16.22.1.34.14.23.08.35.12c.11.02.21.06.32.08l-.17.11c-.09.05-.17.1-.26.15s-.18.09-.27.14c-.09.04-.18.08-.28.12-.09.04-.19.08-.28.11s-.19.07-.28.1c-.1.03-.19.06-.29.08s-.19.05-.29.07-.2.04-.29.05c-.1.02-.2.03-.3.04l-.3.03c-.1 0-.2 0-.3.01h-.3c-.1 0-.2 0-.3-.02-.1 0-.2-.02-.3-.03s-.2-.03-.3-.05l-.3-.06c-.1-.02-.2-.05-.29-.08-.1-.03-.2-.06-.29-.09-.1-.03-.19-.07-.29-.11s-.19-.08-.28-.12-.19-.09-.28-.14-.19-.1-.27-.15c-.09-.05-.18-.11-.27-.17l-.27-.18c-.06-.05-.13-.1-.19-.14a7.958 7.958 0 0 1 2.01-7.72Zm-1.39 9.29c.08.04.17.08.26.12.11.05.22.1.33.14s.22.09.34.12c.11.04.23.07.34.11l.34.09c.11.03.23.05.35.07s.23.04.35.05.23.03.35.04c.12 0 .23.02.35.02h.35c.12 0 .23 0 .35-.01.12 0 .23-.02.35-.03s.23-.03.35-.05l.34-.06c.11-.02.23-.05.34-.08s.22-.06.34-.1c.11-.03.22-.07.33-.11s.22-.08.32-.13c.11-.04.22-.09.32-.14.11-.05.21-.1.31-.16s.21-.11.31-.18c.1-.06.2-.12.3-.19s.2-.13.29-.21c.09-.07.19-.14.28-.22l.27-.24c.09-.08.18-.17.26-.25.09-.09.17-.18.25-.27s.16-.19.24-.28l.23-.29c.07-.1.12-.2.18-.3.02.07.04.13.05.2l.06.3c.02.1.03.2.05.3s.02.2.03.3c0 .1.01.2.02.3v.3c0 .1 0 .2-.01.3q0 .15-.03.3c-.01.1-.02.2-.04.3s-.03.2-.05.3-.04.2-.07.29-.05.19-.08.29-.06.19-.1.29c-.03.09-.07.19-.11.28s-.08.19-.12.28-.09.18-.14.27-.1.18-.15.26c-.05.09-.11.17-.16.26-.06.08-.12.17-.18.25s-.13.16-.19.24c-.07.08-.13.16-.21.24-.07.08-.14.15-.21.22-.08.07-.15.15-.23.22l-.24.21c-.08.07-.17.13-.25.2-.06.05-.13.09-.19.13a8 8 0 0 1-6.73-4.29Zm8.41 4.19c.07-.07.13-.13.19-.2l.24-.27c.08-.09.15-.19.22-.28.07-.1.14-.19.21-.29s.13-.2.19-.3.12-.2.18-.31c.06-.1.11-.21.16-.31s.1-.21.14-.32.09-.22.13-.33.08-.22.11-.33.07-.22.09-.33.05-.22.08-.34l.06-.34c.02-.11.03-.23.05-.34l.03-.35c0-.12.01-.23.01-.35v-.35c0-.12-.01-.23-.02-.35 0-.12-.02-.23-.04-.35s-.03-.23-.05-.35c-.02-.11-.04-.23-.07-.35l-.09-.34c-.03-.11-.07-.23-.11-.34l-.12-.33c-.04-.11-.09-.22-.14-.33s-.1-.22-.16-.33-.11-.21-.18-.32c-.06-.11-.13-.21-.19-.31-.05-.08-.1-.15-.16-.23v-.01c-.02-.02-.03-.04-.04-.06-.07-.09-.14-.17-.21-.25.07 0 .13 0 .2.01.1 0 .2.02.3.03s.2.03.3.05l.3.06c.1.02.2.05.29.08l.29.09c.1.03.19.07.28.1.09.04.19.08.28.12s.18.08.27.13c.09.04.18.09.26.14.09.05.17.1.26.16.08.05.17.11.25.17l.24.18c.08.06.16.12.23.19.08.06.15.13.22.2s.15.14.21.21c.07.07.14.15.2.22.07.08.13.15.19.24.06.08.12.16.18.25.06.08.12.17.17.26s.11.17.16.27l.15.27c.05.09.09.19.13.28.04.1.08.2.12.29.04.1.07.2.11.3.02.08.05.15.07.23a8.01 8.01 0 0 1-6.16 5.07Zm6.58-6.7c-.04-.08-.09-.17-.13-.25-.06-.1-.12-.21-.19-.31-.06-.1-.13-.2-.2-.3s-.14-.19-.21-.28-.15-.18-.23-.28c-.08-.09-.16-.17-.24-.26-.08-.08-.16-.17-.25-.25s-.17-.16-.26-.24-.18-.15-.27-.22-.19-.14-.28-.21-.19-.13-.29-.19l-.3-.18c-.1-.06-.2-.11-.31-.16-.1-.05-.21-.1-.31-.15-.11-.05-.21-.09-.32-.14l-.33-.12c-.11-.04-.22-.07-.33-.1s-.22-.06-.34-.09c-.11-.03-.23-.05-.34-.07l-.35-.06c-.12-.02-.23-.03-.35-.04s-.23-.02-.35-.02h-.36c-.12 0-.24 0-.36.01l-.36.03c-.12.01-.24.03-.36.05s-.24.04-.36.07-.24.05-.36.09c-.12.03-.24.07-.36.11-.11.05-.21.09-.32.13.02-.06.05-.13.08-.19.04-.09.08-.19.12-.28s.09-.18.14-.27.1-.17.15-.26.11-.17.16-.25c.06-.08.11-.17.17-.24.06-.08.12-.16.19-.24.06-.08.13-.15.2-.23.07-.07.14-.15.21-.22s.14-.14.22-.21c.07-.07.15-.13.23-.2.08-.06.15-.12.23-.18s.16-.12.25-.17c.08-.06.17-.11.25-.16.09-.05.17-.1.26-.15s.18-.09.27-.14c.09-.04.18-.09.28-.13.09-.04.19-.08.28-.11a4.319 4.319 0 0 1 .58-.18c.1-.03.2-.05.3-.07s.2-.04.31-.05c.1-.02.21-.03.32-.04.1-.01.21-.02.32-.02h.56c1.83 1.47 3.01 3.72 3.01 6.24 0 .4-.04.79-.1 1.18Z"/></svg>