<svg xmlns="http://www.w3.org/2000/svg" viewBox="0 0 24 24" width="24" height="24"><path d="m18.04,10.21L5.89,4.14c-.62-.31-1.35-.28-1.95.09-.59.37-.95,1-.95,1.7v12.15c0,.7.35,1.33.95,1.7.32.2.69.3,1.05.3.3,0,.61-.07.9-.21l12.15-6.07c.68-.34,1.11-1.03,1.11-1.79s-.42-1.45-1.11-1.79ZM4.47,5.08c.16-.1.34-.15.53-.15.15,0,.31.04.45.11l12.15,6.07c.18.09.32.23.42.39H4v-5.57c0-.35.17-.66.47-.85Zm13.12,7.82l-12.15,6.07c-.31.16-.68.14-.97-.04-.3-.19-.47-.5-.47-.85v-5.57h14.01c-.1.17-.24.3-.42.39Z"/></svg>