<svg xmlns="http://www.w3.org/2000/svg" width="24" height="24" viewBox="0 0 24 24"><path d="M7.5 20h9c1.93 0 3.5-1.57 3.5-3.5V8.87c0-.53-.21-1.04-.59-1.41l-2.87-2.87c-.37-.37-.89-.59-1.41-.59H7.5C5.57 4 4 5.57 4 7.5v9C4 18.43 5.57 20 7.5 20m8.5-1H8v-5c0-.55.45-1 1-1h6c.55 0 1 .45 1 1zM8 5h6v2c0 .55-.45 1-1 1H9c-.55 0-1-.45-1-1zM5 7.5a2.5 2.5 0 0 1 2-2.45V7c0 1.1.9 2 2 2h4c1.1 0 2-.9 2-2V5h.13c.26 0 .52.11.71.29l2.87 2.87c.19.19.29.44.29.71v7.63a2.5 2.5 0 0 1-2 2.45V14c0-1.1-.9-2-2-2H9c-1.1 0-2 .9-2 2v4.95a2.5 2.5 0 0 1-2-2.45z"/></svg>