<svg xmlns="http://www.w3.org/2000/svg" viewBox="0 0 24 24" width="24" height="24"><path d="m16.99,16.28c1.25-1.41,2.01-3.26,2.01-5.28,0-4.41-3.59-8-8-8S3,6.59,3,11s3.59,8,8,8c2.03,0,3.87-.76,5.28-2.01l3.36,3.36c.1.1.23.15.35.15s.26-.05.35-.15c.2-.2.2-.51,0-.71l-3.36-3.36Zm-5.99,1.72c-3.86,0-7-3.14-7-7s3.14-7,7-7,7,3.14,7,7-3.14,7-7,7Z"/><path d="m14.5,10.5h-3v-3c0-.28-.22-.5-.5-.5s-.5.22-.5.5v3h-3c-.28,0-.5.22-.5.5s.22.5.5.5h3v3c0,.28.22.5.5.5s.5-.22.5-.5v-3h3c.28,0,.5-.22.5-.5s-.22-.5-.5-.5Z"/></svg>