<svg xmlns="http://www.w3.org/2000/svg" viewBox="0 0 24 24" width="24" height="24"><path d="m7.43 14.14-1.29 4.2c-.16.51.02 1.05.45 1.37s.99.33 1.44.04L12 17.1l3.97 2.65a1.24 1.24 0 0 0 1.44-.04c.43-.32.6-.86.45-1.37l-1.29-4.2 3.15-3.15c.35-.35.46-.85.29-1.31s-.58-.77-1.07-.82l-3.9-.34-1.91-3.88c-.21-.43-.64-.7-1.12-.7s-.91.27-1.12.7L8.98 8.52l-3.9.34c-.49.04-.9.36-1.07.82s-.06.96.29 1.31l3.15 3.15Zm-2.5-4.12s.07-.15.21-.16l4.19-.36c.17-.02.33-.12.41-.28l2.04-4.14c.06-.13.18-.14.22-.14s.16.01.22.14 2.04 4.14 2.04 4.14c.08.16.23.26.41.28l4.19.36c.14.01.2.12.21.16.02.04.04.16-.06.26l-3.36 3.36c-.13.13-.18.32-.12.5l1.38 4.49c.05.15-.05.24-.09.27s-.15.1-.29 0l-4.25-2.83c-.08-.06-.18-.08-.28-.08s-.19.03-.28.08L7.47 18.9c-.13.09-.25.02-.29 0s-.14-.12-.09-.27l1.38-4.49c.05-.18 0-.37-.12-.5l-3.36-3.36c-.1-.1-.07-.22-.06-.26"/></svg>