<svg xmlns="http://www.w3.org/2000/svg" viewBox="0 0 24 24" width="24" height="24"><path d="m10.56,3.44c-.28-.28-.66-.44-1.06-.44h-1c-.4,0-.78.16-1.06.44-.28.28-.44.66-.44,1.06v1.96c-1.76.85-3,2.79-3,5.04v1s0,.03,0,.05v6.45c0,1.1.9,2,2,2h6c1.1,0,2-.9,2-2v-7.5c0-2.25-1.24-4.19-3-5.04v-1.96c0-.4-.16-.78-.44-1.06Zm-2.56,1.06c0-.13.05-.26.15-.35.09-.09.22-.15.35-.15h1c.13,0,.26.05.35.15.09.09.15.22.15.35v1.61c-.32-.07-.66-.11-1-.11s-.68.04-1,.11v-1.61Zm5,14.5c0,.55-.45,1-1,1h-6c-.55,0-1-.45-1-1v-6h8v6Zm0-7.5v.5H5v-.5c0-2.48,1.79-4.5,4-4.5s4,2.02,4,4.5Z"/><path d="M14 3A1 1 0 1 0 14 5 1 1 0 1 0 14 3z"/><path d="M17 3A1 1 0 1 0 17 5 1 1 0 1 0 17 3z"/><path d="M17 6A1 1 0 1 0 17 8 1 1 0 1 0 17 6z"/><path d="M20 3A1 1 0 1 0 20 5 1 1 0 1 0 20 3z"/><path d="M20 6A1 1 0 1 0 20 8 1 1 0 1 0 20 6z"/><path d="M20 9A1 1 0 1 0 20 11 1 1 0 1 0 20 9z"/></svg>