<svg xmlns="http://www.w3.org/2000/svg" width="24" height="24" viewBox="0 0 24 24"><path d="M11.15 12.6a.485.485 0 0 0 .7 0l2.25-2.25c.2-.2.2-.51 0-.71l-2.25-2.25c-.2-.2-.51-.2-.71 0s-.2.51 0 .71l1.9 1.9-1.9 1.9c-.2.2-.2.51 0 .71ZM8.15 12.6a.485.485 0 0 0 .7 0c.2-.2.2-.51 0-.71l-1.9-1.9 1.9-1.9c.2-.2.2-.51 0-.71s-.51-.2-.71 0L5.89 9.63c-.2.2-.2.51 0 .71l2.25 2.25Z"/><path d="M10 17c1.76 0 3.36-.66 4.59-1.73.02.03.03.06.05.08l5 5a.485.485 0 0 0 .7 0c.2-.2.2-.51 0-.71l-5-5s-.05-.04-.08-.05A6.97 6.97 0 0 0 16.99 10c0-3.86-3.14-7-7-7s-7 3.14-7 7 3.14 7 7 7Zm0-13c3.31 0 6 2.69 6 6s-2.69 6-6 6-6-2.69-6-6 2.69-6 6-6"/></svg>