<svg xmlns="http://www.w3.org/2000/svg" viewBox="0 0 24 24" width="24" height="24"><path d="m4.5,9c.28,0,.5-.22.5-.5v-1c0-1.38,1.12-2.5,2.5-2.5h1c.28,0,.5-.22.5-.5s-.22-.5-.5-.5h-1c-1.93,0-3.5,1.57-3.5,3.5v1c0,.28.22.5.5.5Z"/><path d="m20,7.5c0-1.93-1.57-3.5-3.5-3.5h-1c-.28,0-.5.22-.5.5s.22.5.5.5h1c1.38,0,2.5,1.12,2.5,2.5v1c0,.28.22.5.5.5s.5-.22.5-.5v-1Z"/><path d="m20,15.5c0-.28-.22-.5-.5-.5s-.5.22-.5.5v1c0,1.38-1.12,2.5-2.5,2.5h-1c-.28,0-.5.22-.5.5s.22.5.5.5h1c1.93,0,3.5-1.57,3.5-3.5v-1Z"/><path d="m7.5,20h1c.28,0,.5-.22.5-.5s-.22-.5-.5-.5h-1c-1.38,0-2.5-1.12-2.5-2.5v-1c0-.28-.22-.5-.5-.5s-.5.22-.5.5v1c0,1.93,1.57,3.5,3.5,3.5Z"/><path d="m7,9.87v4.26c0,.57.32,1.09.83,1.34l3.5,1.75c.21.1.44.16.67.16s.46-.05.67-.16l3.5-1.75c.51-.25.83-.77.83-1.34v-4.26c0-.57-.32-1.09-.83-1.34l-3.5-1.75c-.42-.21-.92-.21-1.34,0h0l-3.5,1.75c-.51.25-.83.77-.83,1.34Zm1.28,4.71c-.17-.08-.28-.26-.28-.45v-4.07l3.5,1.75v4.38l-3.22-1.61Zm7.45,0l-3.22,1.61v-4.38l3.5-1.75v4.07c0,.19-.11.36-.28.45Zm-3.95-6.91c.14-.07.31-.07.45,0l3.16,1.58-3.38,1.69-3.38-1.69,3.16-1.58Z"/></svg>