<svg xmlns="http://www.w3.org/2000/svg" viewBox="0 0 24 24" width="24" height="24"><path d="m17.5,4c.28,0,.5-.22.5-.5s-.22-.5-.5-.5H6.5c-.28,0-.5.22-.5.5s.22.5.5.5h11Z"/><path d="m18.35,5.8c-.38-.5-.97-.8-1.6-.8H7.25c-.62,0-1.22.3-1.6.8l-2.25,3c-.26.34-.4.77-.4,1.2v2.5c0,.28.22.5.5.5h.5v6.5c0,.83.67,1.5,1.5,1.5h6c.83,0,1.5-.67,1.5-1.5v-6.5h6v7.5c0,.28.22.5.5.5s.5-.22.5-.5v-7.5h.5c.28,0,.5-.22.5-.5v-2.5c0-.43-.14-.86-.4-1.2l-2.25-3Zm-6.35,13.7c0,.28-.22.5-.5.5h-6c-.28,0-.5-.22-.5-.5v-6.5h7v6.5Zm8-7.5H4v-2c0-.21.07-.43.2-.6l2.25-3c.19-.25.49-.4.8-.4h9.5c.31,0,.61.15.8.4l2.25,3c.13.17.2.39.2.6v2Z"/></svg>