<svg xmlns="http://www.w3.org/2000/svg" width="24" height="24" viewBox="0 0 24 24"><path d="M7.62 4h2.5c.28 0 .5-.22.5-.5s-.22-.5-.5-.5h-2.5c-.28 0-.5.22-.5.5s.22.5.5.5M14 5.5c0 .28.22.5.5.5s.5-.22.5-.5A2.5 2.5 0 0 0 12.5 3c-.28 0-.5.22-.5.5s.22.5.5.5c.83 0 1.5.67 1.5 1.5M3.5 6c.28 0 .5-.22.5-.5C4 4.67 4.67 4 5.5 4c.28 0 .5-.22.5-.5S5.78 3 5.5 3A2.5 2.5 0 0 0 3 5.5c0 .28.22.5.5.5M3.5 10.88c.28 0 .5-.22.5-.5v-2.5c0-.28-.22-.5-.5-.5s-.5.22-.5.5v2.5c0 .28.22.5.5.5M5.5 15c.28 0 .5-.22.5-.5s-.22-.5-.5-.5c-.83 0-1.5-.67-1.5-1.5 0-.28-.22-.5-.5-.5s-.5.22-.5.5A2.5 2.5 0 0 0 5.5 15M18.5 9c-.28 0-.5.22-.5.5s.22.5.5.5c.83 0 1.5.67 1.5 1.5 0 .28.22.5.5.5s.5-.22.5-.5A2.5 2.5 0 0 0 18.5 9M9 11.5V14H7.88c-.28 0-.5.22-.5.5s.22.5.5.5H9v1.38c0 .28.22.5.5.5s.5-.22.5-.5V15h2.5a2.5 2.5 0 0 0 2.5-2.5V10h1.12c.28 0 .5-.22.5-.5s-.22-.5-.5-.5H15V7.62c0-.28-.22-.5-.5-.5s-.5.22-.5.5V9h-2.5A2.5 2.5 0 0 0 9 11.5m5-1.5v2.5c0 .83-.67 1.5-1.5 1.5H10v-2.5c0-.83.67-1.5 1.5-1.5zM13.88 20c-.28 0-.5.22-.5.5s.22.5.5.5h2.5c.28 0 .5-.22.5-.5s-.22-.5-.5-.5zM20.5 13.12c-.28 0-.5.22-.5.5v2.5c0 .28.22.5.5.5s.5-.22.5-.5v-2.5c0-.28-.22-.5-.5-.5M10 18.5c0-.28-.22-.5-.5-.5s-.5.22-.5.5a2.5 2.5 0 0 0 2.5 2.5c.28 0 .5-.22.5-.5s-.22-.5-.5-.5c-.83 0-1.5-.67-1.5-1.5M20.5 18c-.28 0-.5.22-.5.5 0 .83-.67 1.5-1.5 1.5-.28 0-.5.22-.5.5s.22.5.5.5a2.5 2.5 0 0 0 2.5-2.5c0-.28-.22-.5-.5-.5"/></svg>