<svg xmlns="http://www.w3.org/2000/svg" width="24" height="24" viewBox="0 0 24 24"><path d="M13.29 3.94c-.75-.63-1.84-.63-2.58 0L4.6 9.11c-1.02.97-1.6 2.33-1.6 3.72C3 15.68 5.34 18 8.22 18c1.2 0 2.35-.44 3.28-1.18V20h-3c-.28 0-.5.22-.5.5s.22.5.5.5h7c.28 0 .5-.22.5-.5s-.22-.5-.5-.5h-3v-3.18c.92.74 2.07 1.18 3.28 1.18 2.88 0 5.22-2.32 5.22-5.17 0-1.39-.58-2.75-1.62-3.74zM15.78 17c-1.32 0-2.58-.62-3.38-1.67-.09-.12-.24-.2-.4-.2s-.3.07-.4.2A4.26 4.26 0 0 1 8.22 17C5.89 17 4 15.13 4 12.83c0-1.14.46-2.2 1.27-2.98l6.09-5.15c.37-.32.92-.32 1.29 0l6.06 5.13c.83.8 1.29 1.86 1.29 3 0 2.3-1.89 4.17-4.22 4.17"/></svg>