<svg xmlns="http://www.w3.org/2000/svg" width="24" height="24" viewBox="0 0 24 24"><path d="M20.5 11.5h-4.09l2.75-2.75c.2-.2.2-.51 0-.71s-.51-.2-.71 0L15 11.49h-2.49V9l3.45-3.45c.2-.2.2-.51 0-.71s-.51-.2-.71 0L12.5 7.59V3.5c0-.28-.22-.5-.5-.5s-.5.22-.5.5v4.09L8.75 4.84c-.2-.2-.51-.2-.71 0s-.2.51 0 .71L11.49 9v2.49H8.6L5.15 8.04c-.2-.2-.51-.2-.71 0s-.2.51 0 .71l2.75 2.75H3.5c-.28 0-.5.22-.5.5s.22.5.5.5h3.69l-2.75 2.75c-.2.2-.2.51 0 .71a.485.485 0 0 0 .7 0l3.45-3.45h2.89V15l-3.45 3.45c-.2.2-.2.51 0 .71s.51.2.71 0l2.75-2.75v4.09c0 .28.22.5.5.5s.5-.22.5-.5v-4.09l2.75 2.75a.485.485 0 0 0 .7 0c.2-.2.2-.51 0-.71L12.49 15v-2.49h2.49l3.45 3.45a.485.485 0 0 0 .7 0c.2-.2.2-.51 0-.71l-2.75-2.75h4.09c.28 0 .5-.22.5-.5s-.22-.5-.5-.5Z"/></svg>