<svg xmlns="http://www.w3.org/2000/svg" viewBox="0 0 24 24" width="24" height="24"><path d="m9.14,11.76c.08.05.17.08.26.08.17,0,.33-.08.42-.24.44-.71,1.06-1.33,1.77-1.77.23-.15.31-.46.16-.69-.15-.24-.45-.31-.69-.16-.84.53-1.56,1.25-2.09,2.09-.15.23-.07.54.16.69Z"/><path d="m12.67,15.09c.09,0,.18-.02.26-.08.84-.53,1.56-1.25,2.09-2.09.15-.23.07-.54-.16-.69-.23-.14-.54-.07-.69.16-.44.71-1.06,1.33-1.77,1.77-.23.15-.31.46-.16.69.09.15.26.24.42.24Z"/><path d="m8.15,15.85c.63,3,3.25,5.15,6.35,5.15,3.58,0,6.5-2.92,6.5-6.5,0-3.1-2.14-5.72-5.15-6.35-.63-3-3.25-5.15-6.35-5.15-3.58,0-6.5,2.92-6.5,6.5,0,3.1,2.14,5.72,5.15,6.35Zm1.35-11.85c2.5,0,4.61,1.65,5.27,4.01-.29-.01-.59,0-.89.02-.27.03-.48.27-.45.54.03.28.26.47.54.45.34-.03.71-.03,1.01,0,.01.15.02.31.02.48s0,.35-.02.53c-.03.28.18.52.45.55.02,0,.03,0,.05,0,.25,0,.47-.19.5-.45.02-.21.03-.41.03-.62,0-.1,0-.18-.01-.27,2.35.66,4.01,2.77,4.01,5.27,0,3.03-2.47,5.5-5.5,5.5-2.5,0-4.61-1.66-5.27-4.01.09,0,.17.01.27.01.21,0,.42-.01.62-.03.27-.03.48-.27.45-.54-.03-.28-.26-.47-.54-.45-.34.03-.71.03-1.01,0-.01-.15-.02-.31-.02-.48s0-.35.02-.53c.03-.28-.18-.52-.45-.55-.28-.02-.52.18-.54.45-.02.21-.03.41-.03.62,0,.1,0,.18.01.27-2.35-.66-4.01-2.77-4.01-5.27,0-3.03,2.47-5.5,5.5-5.5Z"/></svg>