<svg xmlns="http://www.w3.org/2000/svg" viewBox="0 0 24 24" width="24" height="24"><path d="m20.5,5h-9.55c-.23-1.14-1.24-2-2.45-2s-2.22.86-2.45,2h-2.55c-.28,0-.5.22-.5.5s.22.5.5.5h2.55c.23,1.14,1.24,2,2.45,2s2.22-.86,2.45-2h9.55c.28,0,.5-.22.5-.5s-.22-.5-.5-.5Zm-12,2c-.83,0-1.5-.67-1.5-1.5s.67-1.5,1.5-1.5,1.5.67,1.5,1.5-.67,1.5-1.5,1.5Z"/><path d="m20.5,11.5h-1.55c-.23-1.14-1.24-2-2.45-2s-2.22.86-2.45,2H3.5c-.28,0-.5.22-.5.5s.22.5.5.5h10.55c.23,1.14,1.24,2,2.45,2s2.22-.86,2.45-2h1.55c.28,0,.5-.22.5-.5s-.22-.5-.5-.5Zm-4,2c-.83,0-1.5-.67-1.5-1.5s.67-1.5,1.5-1.5,1.5.67,1.5,1.5-.67,1.5-1.5,1.5Z"/><path d="m20.5,18h-9.55c-.23-1.14-1.24-2-2.45-2s-2.22.86-2.45,2h-2.55c-.28,0-.5.22-.5.5s.22.5.5.5h2.55c.23,1.14,1.24,2,2.45,2s2.22-.86,2.45-2h9.55c.28,0,.5-.22.5-.5s-.22-.5-.5-.5Zm-12,2c-.83,0-1.5-.67-1.5-1.5s.67-1.5,1.5-1.5,1.5.67,1.5,1.5-.67,1.5-1.5,1.5Z"/></svg>