<svg xmlns="http://www.w3.org/2000/svg" viewBox="0 0 24 24" width="24" height="24"><path d="M4.5 4A.5.5 0 1 0 4.5 5 .5.5 0 1 0 4.5 4z"/><path d="M4.5 7A.5.5 0 1 0 4.5 8 .5.5 0 1 0 4.5 7z"/><path d="M4.5 10A.5.5 0 1 0 4.5 11 .5.5 0 1 0 4.5 10z"/><path d="M4.5 13A.5.5 0 1 0 4.5 14 .5.5 0 1 0 4.5 13z"/><path d="M4.5 16A.5.5 0 1 0 4.5 17 .5.5 0 1 0 4.5 16z"/><path d="M4.5 19A.5.5 0 1 0 4.5 20 .5.5 0 1 0 4.5 19z"/><path d="M19.5 4A.5.5 0 1 0 19.5 5 .5.5 0 1 0 19.5 4z"/><path d="M19.5 7A.5.5 0 1 0 19.5 8 .5.5 0 1 0 19.5 7z"/><path d="M19.5 10A.5.5 0 1 0 19.5 11 .5.5 0 1 0 19.5 10z"/><path d="M19.5 13A.5.5 0 1 0 19.5 14 .5.5 0 1 0 19.5 13z"/><path d="M19.5 16A.5.5 0 1 0 19.5 17 .5.5 0 1 0 19.5 16z"/><path d="M19.5 19A.5.5 0 1 0 19.5 20 .5.5 0 1 0 19.5 19z"/><path d="M16.5 4A.5.5 0 1 0 16.5 5 .5.5 0 1 0 16.5 4z"/><path d="M13.5 4A.5.5 0 1 0 13.5 5 .5.5 0 1 0 13.5 4z"/><path d="M10.5 4A.5.5 0 1 0 10.5 5 .5.5 0 1 0 10.5 4z"/><path d="M7.5 4A.5.5 0 1 0 7.5 5 .5.5 0 1 0 7.5 4z"/><path d="M16.5 19A.5.5 0 1 0 16.5 20 .5.5 0 1 0 16.5 19z"/><path d="M13.5 19A.5.5 0 1 0 13.5 20 .5.5 0 1 0 13.5 19z"/><path d="M10.5 19A.5.5 0 1 0 10.5 20 .5.5 0 1 0 10.5 19z"/><path d="M7.5 19A.5.5 0 1 0 7.5 20 .5.5 0 1 0 7.5 19z"/><path d="m15.5,7h-7c-.83,0-1.5.67-1.5,1.5v7c0,.83.67,1.5,1.5,1.5h7c.83,0,1.5-.67,1.5-1.5v-7c0-.83-.67-1.5-1.5-1.5Zm.5,8.5c0,.28-.22.5-.5.5h-7c-.28,0-.5-.22-.5-.5v-7c0-.28.22-.5.5-.5h7c.28,0,.5.22.5.5v7Z"/></svg>