<svg xmlns="http://www.w3.org/2000/svg" viewBox="0 0 24 24" width="24" height="24"><path d="m19.75,5.08c-.56-1.26-1.82-2.08-3.2-2.08H7.45c-1.38,0-2.64.82-3.2,2.08l-1.08,2.43c-.11.26-.17.53-.17.81v1.06c0,.84.4,1.58,1.01,2.06,0,.02-.01.04-.01.07v6c0,1.93,1.57,3.5,3.5,3.5h9c1.93,0,3.5-1.57,3.5-3.5v-6s-.01-.05-.01-.07c.61-.48,1.01-1.22,1.01-2.06v-1.06c0-.28-.06-.56-.17-.81l-1.08-2.43Zm-7.25-1.08h2.12l1.13,4.07v1.31c0,.9-.73,1.62-1.62,1.62s-1.62-.73-1.62-1.62v-5.38Zm-1,0v5.38c0,.9-.73,1.62-1.62,1.62s-1.62-.73-1.62-1.62v-1.31l1.13-4.07h2.12Zm-7.5,4.32c0-.14.03-.28.09-.41l1.08-2.43c.4-.9,1.3-1.48,2.28-1.48h.89l-1.07,3.87-.02,1.51c0,.9-.73,1.62-1.62,1.62s-1.62-.73-1.62-1.62v-1.06Zm6,11.68v-3c0-1.1.9-2,2-2s2,.9,2,2v3h-4Zm9-2.5c0,1.38-1.12,2.5-2.5,2.5h-1.5v-3c0-1.65-1.35-3-3-3s-3,1.35-3,3v3h-1.5c-1.38,0-2.5-1.12-2.5-2.5v-5.58c.2.05.41.08.62.08.88,0,1.65-.44,2.12-1.1.48.66,1.25,1.1,2.12,1.1s1.65-.44,2.12-1.1c.48.66,1.25,1.1,2.12,1.1s1.65-.44,2.12-1.1c.48.66,1.25,1.1,2.12,1.1.22,0,.42-.03.62-.08v5.58Zm1-8.12c0,.9-.73,1.62-1.62,1.62s-1.62-.73-1.62-1.62v-1.38l-1.09-4h.89c.99,0,1.88.58,2.28,1.48l1.08,2.43c.06.13.09.26.09.41v1.06Z"/></svg>