<svg xmlns="http://www.w3.org/2000/svg" viewBox="0 0 24 24" width="24" height="24"><path d="m16.5,4H7.5c-1.93,0-3.5,1.57-3.5,3.5v9c0,1.93,1.57,3.5,3.5,3.5h9c1.93,0,3.5-1.57,3.5-3.5V7.5c0-1.93-1.57-3.5-3.5-3.5Zm2.5,12.5c0,1.38-1.12,2.5-2.5,2.5H7.5c-1.38,0-2.5-1.12-2.5-2.5V7.5c0-1.38,1.12-2.5,2.5-2.5h9c1.38,0,2.5,1.12,2.5,2.5v9Z"/><path d="m16.85,7.15c-.2-.2-.51-.2-.71,0l-1.71,1.71c-.68-.53-1.52-.85-2.44-.85s-1.76.33-2.44.85l-1.71-1.71c-.2-.2-.51-.2-.71,0s-.2.51,0,.71l1.71,1.71c-.53.68-.85,1.52-.85,2.44s.33,1.76.85,2.44l-1.71,1.71c-.2.2-.2.51,0,.71.1.1.23.15.35.15s.26-.05.35-.15l1.71-1.71c.68.53,1.52.85,2.44.85s1.76-.33,2.44-.85l1.71,1.71c.1.1.23.15.35.15s.26-.05.35-.15c.2-.2.2-.51,0-.71l-1.71-1.71c.53-.68.85-1.52.85-2.44s-.33-1.76-.85-2.44l1.71-1.71c.2-.2.2-.51,0-.71Zm-7.85,4.85c0-1.65,1.35-3,3-3s3,1.35,3,3-1.35,3-3,3-3-1.35-3-3Z"/></svg>