<svg xmlns="http://www.w3.org/2000/svg" viewBox="0 0 24 24" width="24" height="24"><path d="m5.5,19c-.28,0-.5.22-.5.5s.22.5.5.5h13c.28,0,.5-.22.5-.5s-.22-.5-.5-.5h-2.5v-6c0-2.21-1.79-4-4-4s-4,1.79-4,4v6h-2.5Zm3.5-6c0-1.65,1.35-3,3-3s3,1.35,3,3v6h-6v-6Z"/><path d="m12,7c.28,0,.5-.22.5-.5v-2c0-.28-.22-.5-.5-.5s-.5.22-.5.5v2c0,.28.22.5.5.5Z"/><path d="m20.5,12h-2c-.28,0-.5.22-.5.5s.22.5.5.5h2c.28,0,.5-.22.5-.5s-.22-.5-.5-.5Z"/><path d="m3.5,13h2c.28,0,.5-.22.5-.5s-.22-.5-.5-.5h-2c-.28,0-.5.22-.5.5s.22.5.5.5Z"/><path d="m16.74,8.26c.13,0,.26-.05.35-.15l1.12-1.12c.2-.2.2-.51,0-.71s-.51-.2-.71,0l-1.12,1.12c-.2.2-.2.51,0,.71.1.1.23.15.35.15Z"/><path d="m6.9,8.11c.1.1.23.15.35.15s.26-.05.35-.15c.2-.2.2-.51,0-.71l-1.12-1.12c-.2-.2-.51-.2-.71,0s-.2.51,0,.71l1.12,1.12Z"/></svg>