<svg xmlns="http://www.w3.org/2000/svg" width="24" height="24" viewBox="0 0 24 24"><path d="M18.5 9H15V7.62c0-.28-.22-.5-.5-.5s-.5.22-.5.5v2.5c0 .28.22.5.5.5s.5-.22.5-.5V10h3.5c.83 0 1.5.67 1.5 1.5v7c0 .83-.67 1.5-1.5 1.5h-7c-.83 0-1.5-.67-1.5-1.5V15h.38c.28 0 .5-.22.5-.5s-.22-.5-.5-.5h-2.5c-.28 0-.5.22-.5.5s.22.5.5.5H9v3.5a2.5 2.5 0 0 0 2.5 2.5h7a2.5 2.5 0 0 0 2.5-2.5v-7A2.5 2.5 0 0 0 18.5 9M7.62 4h2.5c.28 0 .5-.22.5-.5s-.22-.5-.5-.5h-2.5c-.28 0-.5.22-.5.5s.22.5.5.5M12.5 4c.83 0 1.5.67 1.5 1.5 0 .28.22.5.5.5s.5-.22.5-.5A2.5 2.5 0 0 0 12.5 3c-.28 0-.5.22-.5.5s.22.5.5.5M3.5 6c.28 0 .5-.22.5-.5C4 4.67 4.67 4 5.5 4c.28 0 .5-.22.5-.5S5.78 3 5.5 3A2.5 2.5 0 0 0 3 5.5c0 .28.22.5.5.5M3.5 10.88c.28 0 .5-.22.5-.5v-2.5c0-.28-.22-.5-.5-.5s-.5.22-.5.5v2.5c0 .28.22.5.5.5M5.5 15c.28 0 .5-.22.5-.5s-.22-.5-.5-.5c-.83 0-1.5-.67-1.5-1.5 0-.28-.22-.5-.5-.5s-.5.22-.5.5A2.5 2.5 0 0 0 5.5 15"/><path d="M12.5 15a2.5 2.5 0 0 0 2.5-2.5c0-.28-.22-.5-.5-.5s-.5.22-.5.5c0 .83-.67 1.5-1.5 1.5-.28 0-.5.22-.5.5s.22.5.5.5"/></svg>