<svg xmlns="http://www.w3.org/2000/svg" viewBox="0 0 24 24" width="24" height="24"><path d="m17,7.39v-3.89c0-.28-.22-.5-.5-.5H7.5c-.28,0-.5.22-.5.5v3.89l-3.59,7.43c-.32.66-.25,1.44.17,2.04,1.83,2.59,4.98,4.14,8.42,4.14s6.59-1.55,8.42-4.14c.42-.6.49-1.38.17-2.04l-3.59-7.43Zm-9-3.39h8v3h-8v-3Zm11.6,12.28c-.81,1.16-1.93,2.08-3.22,2.72l-1.89-8.11c-.06-.27-.33-.44-.6-.37-.27.06-.44.33-.37.6l1.93,8.28c-1.07.39-2.24.61-3.45.61s-2.37-.21-3.45-.61l1.93-8.28c.06-.27-.1-.54-.37-.6-.27-.06-.54.1-.6.37l-1.89,8.11c-1.29-.64-2.41-1.56-3.22-2.72-.21-.3-.25-.7-.09-1.03l3.5-7.25h8.37l3.5,7.25c.16.33.13.72-.09,1.03Z"/></svg>