<svg xmlns="http://www.w3.org/2000/svg" viewBox="0 0 24 24" width="24" height="24"><path d="m15.35,14.65s-.05-.04-.08-.05c1.07-1.23,1.73-2.83,1.73-4.59,0-3.86-3.14-7-7-7s-7,3.14-7,7,3.14,7,7,7c1.76,0,3.36-.66,4.59-1.73.02.03.03.06.05.08l5,5c.1.1.23.15.35.15s.26-.05.35-.15c.2-.2.2-.51,0-.71l-5-5Zm-5.35,1.35c-3.31,0-6-2.69-6-6s2.69-6,6-6,6,2.69,6,6-2.69,6-6,6Z"/><path d="m12.85,7.15c-.2-.2-.51-.2-.71,0l-2.15,2.15-2.15-2.15c-.2-.2-.51-.2-.71,0s-.2.51,0,.71l2.15,2.15-2.15,2.15c-.2.2-.2.51,0,.71.1.1.23.15.35.15s.26-.05.35-.15l2.15-2.15,2.15,2.15c.1.1.23.15.35.15s.26-.05.35-.15c.2-.2.2-.51,0-.71l-2.15-2.15,2.15-2.15c.2-.2.2-.51,0-.71Z"/></svg>