<svg xmlns="http://www.w3.org/2000/svg" viewBox="0 0 24 24" width="24" height="24"><path d="m20.26,10.37c.23-.4.22-.87-.02-1.26l-3.17-5.29c-.46-.76-1.69-.76-2.14,0l-3.18,5.29c-.23.39-.24.86-.02,1.26.22.4.63.63,1.09.63h6.35c.46,0,.86-.24,1.09-.63Zm-7.66-.49s-.06-.14,0-.25l3.18-5.29c.07-.11.17-.12.21-.12s.15.01.21.12l3.18,5.29c.07.11.02.21,0,.25s-.09.13-.22.13h-6.35c-.13,0-.2-.09-.22-.13Z"/><path d="m17,13c-2.21,0-4,1.79-4,4s1.79,4,4,4,4-1.79,4-4-1.79-4-4-4Zm0,7c-1.65,0-3-1.35-3-3s1.35-3,3-3,3,1.35,3,3-1.35,3-3,3Z"/><path d="m9.75,13h-5.5c-.69,0-1.25.56-1.25,1.25v5.5c0,.69.56,1.25,1.25,1.25h5.5c.69,0,1.25-.56,1.25-1.25v-5.5c0-.69-.56-1.25-1.25-1.25Zm.25,6.75c0,.14-.11.25-.25.25h-5.5c-.14,0-.25-.11-.25-.25v-5.5c0-.14.11-.25.25-.25h5.5c.14,0,.25.11.25.25v5.5Z"/></svg>