<svg xmlns="http://www.w3.org/2000/svg" viewBox="0 0 24 24" width="24" height="24"><path d="m8.5,21h7c1.93,0,3.5-1.57,3.5-3.5V6.5c0-1.93-1.57-3.5-3.5-3.5h-7c-1.93,0-3.5,1.57-3.5,3.5v11c0,1.93,1.57,3.5,3.5,3.5Zm-2.5-14.5c0-1.38,1.12-2.5,2.5-2.5h7c1.38,0,2.5,1.12,2.5,2.5v11c0,1.38-1.12,2.5-2.5,2.5h-7c-1.38,0-2.5-1.12-2.5-2.5V6.5Z"/><path d="m12,18c1.93,0,3.5-1.57,3.5-3.5s-1.57-3.5-3.5-3.5-3.5,1.57-3.5,3.5,1.57,3.5,3.5,3.5Zm0-6c1.38,0,2.5,1.12,2.5,2.5s-1.12,2.5-2.5,2.5-2.5-1.12-2.5-2.5,1.12-2.5,2.5-2.5Z"/><path d="M12 6A1.5 1.5 0 1 0 12 9 1.5 1.5 0 1 0 12 6z"/></svg>