<svg xmlns="http://www.w3.org/2000/svg" width="24" height="24" viewBox="0 0 24 24"><path d="M16.3 6.92c-.43-.21-.94-.16-1.32.14l-5.04 3.96c-.3.24-.48.6-.48.98s.17.74.48.98l5.04 3.96c.23.18.5.27.77.27.19 0 .37-.04.55-.13.43-.21.7-.64.7-1.12V8.05c0-.48-.27-.91-.7-1.12Zm-.3 9.04c0 .14-.1.2-.14.22s-.15.06-.26-.03l-5.04-3.96c-.08-.07-.1-.15-.1-.2s.01-.13.1-.2l5.04-3.96c.05-.04.11-.05.15-.05.05 0 .09.02.11.03.04.02.14.08.14.22v7.91ZM7.5 6.5c-.28 0-.5.22-.5.5v10c0 .28.22.5.5.5s.5-.22.5-.5V7c0-.28-.22-.5-.5-.5"/></svg>