<svg xmlns="http://www.w3.org/2000/svg" width="24" height="24" viewBox="0 0 24 24"><path d="M20.14 6.81a.5.5 0 0 0-.45.14l-2.97 2.97c-.19.2-.51.2-.71 0l-1.92-1.93c-.09-.09-.15-.22-.15-.35s.05-.26.15-.35l2.96-2.97c.12-.12.17-.29.14-.45s-.15-.3-.3-.36a6.62 6.62 0 0 0-7.22 1.44 6.61 6.61 0 0 0-1.56 6.91l-3.29 3.29a2.86 2.86 0 0 0 0 4.05c.56.56 1.29.84 2.02.84s1.47-.28 2.02-.84l3.29-3.29c2.41.85 5.09.26 6.91-1.56 1.9-1.9 2.47-4.74 1.44-7.22a.5.5 0 0 0-.36-.3Zm-1.79 6.82a5.66 5.66 0 0 1-6.14 1.23.49.49 0 0 0-.54.11l-3.52 3.52c-.73.73-1.91.73-2.63 0s-.73-1.91 0-2.63l3.52-3.52c.14-.14.19-.36.11-.54a5.61 5.61 0 0 1 1.23-6.13 5.63 5.63 0 0 1 5.4-1.47l-2.39 2.39a1.5 1.5 0 0 0 0 2.12l1.92 1.93c.58.58 1.54.58 2.12 0l2.4-2.4c.5 1.92-.04 3.97-1.47 5.4Z"/></svg>