<svg xmlns="http://www.w3.org/2000/svg" viewBox="0 0 24 24" width="24" height="24"><path d="m20.5,13h-3.5c0-2.76-2.24-5-5-5s-5,2.24-5,5h-3.5c-.28,0-.5.22-.5.5s.22.5.5.5h17c.28,0,.5-.22.5-.5s-.22-.5-.5-.5Zm-12.5,0c0-2.21,1.79-4,4-4s4,1.79,4,4h-8Z"/><path d="m12,3c-.28,0-.5.22-.5.5v2c0,.28.22.5.5.5s.5-.22.5-.5v-2c0-.28-.22-.5-.5-.5Z"/><path d="m17.85,7.85l1-1c.2-.2.2-.51,0-.71s-.51-.2-.71,0l-1,1c-.2.2-.2.51,0,.71.1.1.23.15.35.15s.26-.05.35-.15Z"/><path d="m6.5,8c.13,0,.26-.05.35-.15.2-.2.2-.51,0-.71l-1-1c-.2-.2-.51-.2-.71,0s-.2.51,0,.71l1,1c.1.1.23.15.35.15Z"/><path d="m13.79,18h-1.29v-2.5c0-.28-.22-.5-.5-.5s-.5.22-.5.5v2.5h-1.29c-.45,0-.67.54-.35.85l1.79,1.79c.2.2.51.2.71,0l1.79-1.79c.32-.31.09-.85-.35-.85Z"/></svg>