<svg xmlns="http://www.w3.org/2000/svg" width="24" height="24" viewBox="0 0 24 24"><path d="M4 13.5c0 .28.22.5.5.5s.5-.22.5-.5v-3c0-.28-.22-.5-.5-.5s-.5.22-.5.5zM4 16.5c0 .24.02.47.07.71.05.23.12.45.2.66.09.21.2.41.32.6a3.6 3.6 0 0 0 .95.95c.19.13.39.23.6.32s.43.16.66.2c.23.05.47.07.71.07h.5c.28 0 .5-.22.5-.5s-.22-.5-.5-.5h-.5c-.17 0-.34-.02-.5-.05s-.32-.08-.47-.14a2.55 2.55 0 0 1-1.11-.9c-.09-.13-.17-.28-.23-.43s-.11-.31-.15-.47c-.03-.16-.05-.33-.05-.5v-.5c0-.28-.22-.5-.5-.5s-.5.22-.5.5v.5ZM10.5 20h3c.28 0 .5-.22.5-.5s-.22-.5-.5-.5h-3c-.28 0-.5.22-.5.5s.22.5.5.5M16 20h.5a3.35 3.35 0 0 0 1.37-.28c.21-.09.41-.2.59-.32a3.6 3.6 0 0 0 .95-.95 3.4 3.4 0 0 0 .52-1.25c.05-.23.07-.47.07-.71v-.5c0-.28-.22-.5-.5-.5s-.5.22-.5.5v.5c0 .17-.02.34-.05.5s-.08.32-.15.47c-.06.15-.14.29-.23.42s-.19.26-.31.37a2.7 2.7 0 0 1-.79.53c-.15.06-.31.11-.47.15-.16.03-.33.05-.5.05H16c-.28 0-.5.22-.5.5s.22.5.5.5ZM19.5 10c-.28 0-.5.22-.5.5v3c0 .28.22.5.5.5s.5-.22.5-.5v-3c0-.28-.22-.5-.5-.5M19.73 6.14c-.09-.21-.2-.41-.32-.6a3.6 3.6 0 0 0-.95-.95c-.19-.13-.39-.23-.6-.32s-.43-.16-.66-.2c-.23-.05-.47-.07-.71-.07h-.5c-.28 0-.5.22-.5.5s.22.5.5.5h.5c.17 0 .34.02.5.05s.32.08.47.14a2.55 2.55 0 0 1 1.11.9c.09.13.17.28.23.43s.11.31.15.47c.03.16.05.33.05.5v.5c0 .28.22.5.5.5s.5-.22.5-.5v-.5c0-.24-.02-.47-.07-.71a4.6 4.6 0 0 0-.2-.66ZM10.5 5h3c.28 0 .5-.22.5-.5s-.22-.5-.5-.5h-3c-.28 0-.5.22-.5.5s.22.5.5.5M4.5 8.5c.28 0 .5-.22.5-.5v-.5c0-.17.02-.34.05-.5s.08-.32.15-.47c.06-.15.14-.29.23-.42s.19-.26.31-.37a2.7 2.7 0 0 1 .79-.53c.15-.06.31-.11.47-.15.16-.03.33-.05.5-.05H8c.28 0 .5-.22.5-.5s-.22-.5-.5-.5h-.5a3.35 3.35 0 0 0-1.37.28c-.21.09-.41.2-.59.32a3.6 3.6 0 0 0-.95.95 3.4 3.4 0 0 0-.52 1.25c-.05.23-.07.47-.07.71v.5c0 .28.22.5.5.5Z"/></svg>