<svg xmlns="http://www.w3.org/2000/svg" viewBox="0 0 24 24" width="24" height="24"><path d="m12.15,10.44l-3.09-3.09c-.58-.58-1.54-.58-2.12,0l-3.09,3.09c-.58.58-.58,1.54,0,2.12l3.09,3.09c.29.29.68.44,1.06.44s.77-.15,1.06-.44l3.09-3.09c.58-.58.58-1.54,0-2.12Zm-.71,1.41l-3.09,3.09c-.2.2-.51.2-.71,0l-3.09-3.09c-.19-.2-.19-.51,0-.71l3.09-3.09c.1-.1.23-.15.35-.15s.26.05.35.15l3.09,3.09c.19.2.19.51,0,.71Z"/><path d="m16.75,12.5c-2.34,0-4.25,1.91-4.25,4.25s1.91,4.25,4.25,4.25,4.25-1.91,4.25-4.25-1.91-4.25-4.25-4.25Zm0,7.5c-1.79,0-3.25-1.46-3.25-3.25s1.46-3.25,3.25-3.25,3.25,1.46,3.25,3.25-1.46,3.25-3.25,3.25Z"/><path d="m15.46,10.2c.29.28.66.42,1.04.42s.75-.14,1.03-.42l2.78-2.66c.62-.72.83-1.66.57-2.57-.25-.9-.97-1.62-1.86-1.87-.91-.25-1.84-.05-2.53.53-.69-.58-1.62-.79-2.53-.53-.9.25-1.61.97-1.86,1.87-.26.92-.05,1.85.61,2.61l2.75,2.62Zm-2.39-4.95c.16-.56.62-1.02,1.17-1.18.17-.05.34-.07.51-.07.52,0,1.01.23,1.35.66.19.24.59.24.78,0,.46-.57,1.15-.8,1.87-.59.55.16,1.01.62,1.17,1.18.23.8-.13,1.37-.33,1.61l-2.75,2.62c-.19.18-.5.18-.69,0l-2.72-2.59c-.23-.27-.59-.84-.37-1.64Z"/></svg>