<svg xmlns="http://www.w3.org/2000/svg" viewBox="0 0 24 24" width="24" height="24"><path d="m18.83,6.14l-5.77-2.7c-.67-.32-1.44-.31-2.12,0l-5.77,2.7c-.74.34-1.19,1.09-1.15,1.9.12,2.67,1.02,9.23,6.75,12.41.38.21.81.32,1.23.32s.85-.11,1.23-.32c5.73-3.18,6.63-9.74,6.75-12.41.04-.81-.42-1.55-1.15-1.9Zm-.42.91c.37.17.59.54.58.95-.04.84-.16,2.1-.51,3.51h-5.98v-7.2s.09.03.13.05l5.77,2.7Zm-12.82,0l5.77-2.7s.09-.03.13-.05v7.2h-5.98c-.34-1.41-.47-2.67-.51-3.51-.02-.4.21-.77.58-.95Zm.21,5.46h5.7v7.17c-.08-.03-.17-.05-.25-.1-3.1-1.72-4.66-4.53-5.45-7.07Zm6.95,7.07c-.08.04-.16.07-.25.1v-7.17h5.7c-.79,2.54-2.36,5.36-5.45,7.07Z"/></svg>