<svg xmlns="http://www.w3.org/2000/svg" viewBox="0 0 24 24" width="24" height="24"><path d="m18.83,4.75l-1.22-.73c-1.12-.67-2.55-.38-3.31.68l-10.16,14.07c-.27.37-.25.85.03,1.21.2.25.48.38.78.38.13,0,.26-.03.39-.08l6.84-2.88c.4-.17.74-.43,1.01-.78l6.33-8.19c.44-.56.61-1.29.48-1.99s-.56-1.31-1.17-1.68Zm-6.43,11.25c-.16.2-.37.37-.6.47l-6.84,2.88,6.68-9.25,3.64,2.18-2.87,3.72Zm6.33-8.19l-2.84,3.68-3.67-2.2,2.89-4c.29-.41.75-.62,1.21-.62.26,0,.53.07.77.22l1.22.73c.37.22.62.59.7,1.01.08.42-.02.86-.29,1.2Z"/></svg>