<svg xmlns="http://www.w3.org/2000/svg" viewBox="0 0 24 24" width="24" height="24"><path d="M8 8A2 2.5 0 1 0 8 13 2 2.5 0 1 0 8 8z"/><path d="M16 8A2 2.5 0 1 0 16 13 2 2.5 0 1 0 16 8z"/><path d="m12,3c-4.96,0-9,3.36-9,7.5,0,2.07.99,4,2.79,5.43.13.1.21.25.21.4v2.17c0,.83.67,1.5,1.5,1.5h9c.83,0,1.5-.67,1.5-1.5v-2.17c0-.15.08-.29.21-.4,1.8-1.43,2.79-3.36,2.79-5.43,0-4.14-4.04-7.5-9-7.5Zm5.59,12.14c-.37.3-.59.73-.59,1.18v2.17c0,.28-.22.5-.5.5h-1.25v-2.5c0-.28-.22-.5-.5-.5s-.5.22-.5.5v2.5h-1.75v-2.5c0-.28-.22-.5-.5-.5s-.5.22-.5.5v2.5h-1.75v-2.5c0-.28-.22-.5-.5-.5s-.5.22-.5.5v2.5h-1.25c-.28,0-.5-.22-.5-.5v-2.17c0-.46-.21-.89-.59-1.18-1.56-1.24-2.41-2.89-2.41-4.64,0-3.58,3.59-6.5,8-6.5s8,2.92,8,6.5c0,1.76-.86,3.41-2.41,4.64Z"/></svg>