<svg xmlns="http://www.w3.org/2000/svg" viewBox="0 0 24 24" width="24" height="24"><path d="m12,6c.28,0,.5-.22.5-.5v-2c0-.28-.22-.5-.5-.5s-.5.22-.5.5v2c0,.28.22.5.5.5Z"/><path d="m6.9,7.6c.1.1.23.15.35.15s.26-.05.35-.15c.2-.2.2-.51,0-.71l-1.36-1.36c-.2-.2-.51-.2-.71,0s-.2.51,0,.71l1.36,1.36Z"/><path d="m16.75,7.75c.13,0,.26-.05.35-.15l1.36-1.36c.2-.2.2-.51,0-.71s-.51-.2-.71,0l-1.36,1.36c-.2.2-.2.51,0,.71.1.1.23.15.35.15Z"/><path d="m20.5,11.5h-2c-.28,0-.5.22-.5.5s.22.5.5.5h2c.28,0,.5-.22.5-.5s-.22-.5-.5-.5Z"/><path d="m16.59,13.15c-.14-.29-.35-.52-.59-.71v-.44c0-2.21-1.79-4-4-4s-4,1.79-4,4h-2.92c-.52,0-.99.26-1.27.7-.28.44-.31.98-.09,1.44l2.69,5.71c.33.7,1.04,1.15,1.81,1.15h9.71c.52,0,.99-.26,1.27-.7.28-.44.31-.98.09-1.44l-2.69-5.71Zm-.9.43l1.14,2.43h-4.77l-1.5-3h4.22c.39,0,.74.23.9.57Zm-3.69-4.57c1.65,0,3,1.35,3,3v.03c-.07,0-.14-.03-.22-.03h-5.78c0-1.65,1.35-3,3-3Zm-7.38,4.71c-.07-.16-.06-.33.03-.48.09-.15.25-.23.42-.23h4.37l1.5,3h-5.24l-1.08-2.29Zm3.59,6.29c-.39,0-.74-.23-.9-.57l-1.14-2.43h5.27l1.5,3h-4.72Zm10.13-.23c-.09.15-.25.23-.42.23h-3.87l-1.5-3h4.74l1.08,2.29c.07.16.06.33-.03.48Z"/></svg>