<svg xmlns="http://www.w3.org/2000/svg" viewBox="0 0 24 24" width="24" height="24"><path d="m17.5,3H6.5c-1.93,0-3.5,1.57-3.5,3.5v2.88c0,.84.4,1.58,1.01,2.06,0,.02-.01.04-.01.07v6c0,1.93,1.57,3.5,3.5,3.5h9c1.93,0,3.5-1.57,3.5-3.5v-6s-.01-.05-.01-.07c.61-.48,1.01-1.22,1.01-2.06v-2.88c0-1.93-1.57-3.5-3.5-3.5Zm-5,1h3.25v5.38c0,.9-.73,1.62-1.62,1.62s-1.62-.73-1.62-1.62v-5.38Zm-4.25,0h3.25v5.38c0,.9-.73,1.62-1.62,1.62s-1.62-.73-1.62-1.62v-5.38Zm-4.25,2.5c0-1.38,1.12-2.5,2.5-2.5h.75v5.38c0,.9-.73,1.62-1.62,1.62s-1.62-.73-1.62-1.62v-2.88Zm6,13.5v-3c0-1.1.9-2,2-2s2,.9,2,2v3h-4Zm9-2.5c0,1.38-1.12,2.5-2.5,2.5h-1.5v-3c0-1.65-1.35-3-3-3s-3,1.35-3,3v3h-1.5c-1.38,0-2.5-1.12-2.5-2.5v-5.58c.2.05.41.08.62.08.88,0,1.65-.44,2.12-1.1.48.66,1.25,1.1,2.12,1.1s1.65-.44,2.12-1.1c.48.66,1.25,1.1,2.12,1.1s1.65-.44,2.12-1.1c.48.66,1.25,1.1,2.12,1.1.22,0,.42-.03.62-.08v5.58Zm1-8.12c0,.9-.73,1.62-1.62,1.62s-1.62-.73-1.62-1.62v-5.38h.75c1.38,0,2.5,1.12,2.5,2.5v2.88Z"/></svg>