<svg xmlns="http://www.w3.org/2000/svg" viewBox="0 0 24 24" width="24" height="24"><path d="m8.5,21h7c1.93,0,3.5-1.57,3.5-3.5V7.12c0-.53-.21-1.04-.59-1.41l-2.12-2.12c-.37-.37-.89-.59-1.41-.59h-6.38c-1.93,0-3.5,1.57-3.5,3.5v11c0,1.93,1.57,3.5,3.5,3.5Zm-2.5-14.5c0-1.38,1.12-2.5,2.5-2.5h6.38c.26,0,.52.11.71.29l2.12,2.12c.19.19.29.44.29.71v10.38c0,1.38-1.12,2.5-2.5,2.5h-7c-1.38,0-2.5-1.12-2.5-2.5V6.5Z"/><path d="m8,9c.55,0,1-.45,1-1v-2c0-.55-.45-1-1-1s-1,.45-1,1v2c0,.55.45,1,1,1Z"/><path d="m11,9c.55,0,1-.45,1-1v-2c0-.55-.45-1-1-1s-1,.45-1,1v2c0,.55.45,1,1,1Z"/><path d="m14,9c.55,0,1-.45,1-1v-2c0-.55-.45-1-1-1s-1,.45-1,1v2c0,.55.45,1,1,1Z"/></svg>