<svg xmlns="http://www.w3.org/2000/svg" viewBox="0 0 24 24" width="24" height="24"><path d="m8.26,8.26c-2.27,2.27-4.02,4.87-4.8,7.14-.44,1.27-.11,2.66.84,3.61l.59.59c.74.74,1.66,1.12,2.59,1.12.37,0,.75-.06,1.12-.19,2.27-.78,4.87-2.52,7.14-4.79,2.13-2.13,3.77-4.5,4.63-6.67.91-2.31.83-4.16-.23-5.21-2.1-2.1-7.32-.16-11.89,4.4Zm-3.85,7.46c.73-2.13,2.39-4.59,4.56-6.76,3.33-3.33,6.71-4.96,8.83-4.96.49,0,.9.09,1.23.27l-14.02,14.02c-.68-.68-.9-1.66-.59-2.57Zm15.03-7.02c-.81,2.05-2.37,4.3-4.41,6.33-2.17,2.17-4.63,3.83-6.76,4.56-.88.3-1.82.07-2.56-.6l14.01-14.01c.43.82.34,2.14-.29,3.73Z"/></svg>