<svg xmlns="http://www.w3.org/2000/svg" viewBox="0 0 24 24" width="24" height="24"><path d="m18.5,14h-3.55l4.49-4.49c.47-.47.73-1.1.73-1.77s-.26-1.3-.73-1.77l-1.41-1.41c-.97-.97-2.56-.97-3.54,0l-4.49,4.49v-3.55c0-1.38-1.12-2.5-2.5-2.5h-2c-1.38,0-2.5,1.12-2.5,2.5v12c0,1.93,1.57,3.5,3.5,3.5h12c1.38,0,2.5-1.12,2.5-2.5v-2c0-1.38-1.12-2.5-2.5-2.5Zm-3.3-8.73c.58-.58,1.54-.58,2.12,0l1.41,1.41c.28.28.44.66.44,1.06s-.16.78-.44,1.06l-5.2,5.2h-7.03s-.02,0-.04,0L15.2,5.27Zm-9.7-1.27h2c.83,0,1.5.67,1.5,1.5v4.55l-5,5V5.5c0-.83.67-1.5,1.5-1.5Zm14.5,14.5c0,.83-.67,1.5-1.5,1.5H6.5c-1.38,0-2.5-1.12-2.5-2.5,0-.69.28-1.31.73-1.76h0c.45-.46,1.08-.74,1.76-.74h12c.83,0,1.5.67,1.5,1.5v2Z"/><path d="M6.5 16.5A1 1 0 1 0 6.5 18.5 1 1 0 1 0 6.5 16.5z"/></svg>