<svg xmlns="http://www.w3.org/2000/svg" width="24" height="24" viewBox="0 0 24 24"><path d="M19 5H5c-1.1 0-2 .9-2 2v2c0 1.1.9 2 2 2h14c1.1 0 2-.9 2-2V7c0-1.1-.9-2-2-2m1 4c0 .55-.45 1-1 1H5c-.55 0-1-.45-1-1V7c0-.55.45-1 1-1h14c.55 0 1 .45 1 1z"/><path d="M18 7a1 1 0 1 0 0 2 1 1 0 1 0 0-2M15 7a1 1 0 1 0 0 2 1 1 0 1 0 0-2M19 13H5c-1.1 0-2 .9-2 2v2c0 1.1.9 2 2 2h14c1.1 0 2-.9 2-2v-2c0-1.1-.9-2-2-2m1 4c0 .55-.45 1-1 1H5c-.55 0-1-.45-1-1v-2c0-.55.45-1 1-1h14c.55 0 1 .45 1 1z"/><path d="M18 15a1 1 0 1 0 0 2 1 1 0 1 0 0-2M15 15a1 1 0 1 0 0 2 1 1 0 1 0 0-2"/></svg>