<svg xmlns="http://www.w3.org/2000/svg" viewBox="0 0 24 24" width="24" height="24"><path class="b" d="m12,2c-2.67,0-5.14,1.19-6.83,3.17l-1.32-1.32c-.31-.31-.85-.09-.85.35v3.29c0,.28.22.5.5.5h3.29c.45,0,.67-.54.35-.85l-1.27-1.27c1.5-1.8,3.72-2.88,6.12-2.88,4.41,0,8,3.59,8,8,0,.28.22.5.5.5s.5-.22.5-.5c0-4.96-4.04-9-9-9Z"/><path class="b" d="m13.76,8.7c-.97-.97-2.56-.97-3.54,0l-3.54,3.54c-.97.97-.97,2.56,0,3.54l3.54,3.54c.49.49,1.13.73,1.77.73s1.28-.24,1.77-.73l3.54-3.54c.97-.97.97-2.56,0-3.54l-3.54-3.54Zm2.83,6.36l-3.54,3.54c-.58.58-1.54.58-2.12,0l-3.54-3.54c-.58-.58-.58-1.54,0-2.12l3.54-3.54c.58-.58,1.54-.58,2.12,0l3.54,3.54c.58.58.58,1.54,0,2.12Z"/></svg>