<svg xmlns="http://www.w3.org/2000/svg" viewBox="0 0 24 24" width="24" height="24"><path d="m12.41,12.3l1.58-1.58c.3.18.64.28,1.01.28,1.1,0,2-.9,2-2s-.9-2-2-2-2,.9-2,2c0,.37.11.71.28,1.01l-1.58,1.58-4.68-4.68c-.31-.31-.74-.47-1.17-.44-.43.03-.83.24-1.09.59-2.5,3.31-2.27,7.97.47,11.04-.03.02-.05.03-.08.05l-2,2c-.2.2-.2.51,0,.71.1.1.23.15.35.15s.26-.05.35-.15l2-2s.03-.05.05-.08c1.63,1.46,3.71,2.22,5.81,2.22,1.84,0,3.68-.58,5.23-1.75.34-.26.56-.66.59-1.09.03-.44-.13-.86-.44-1.17l-4.68-4.68Zm2.59-4.3c.55,0,1,.45,1,1s-.45,1-1,1-1-.45-1-1,.45-1,1-1Zm1.34,10.45c-3.04,2.3-7.38,2-10.08-.7-2.7-2.7-3.01-7.04-.7-10.08.09-.11.21-.18.36-.19.01,0,.02,0,.04,0,.14,0,.27.05.36.15l10.07,10.07c.1.1.16.25.15.4-.01.15-.08.27-.19.36Z"/><path d="m19.24,4.76c-.57-.57-1.24-1.02-1.98-1.32-1.44-.58-3.08-.58-4.52,0-.26.1-.38.4-.28.65.1.26.39.38.65.28,1.2-.49,2.57-.49,3.76,0,.62.25,1.18.62,1.65,1.1s.85,1.03,1.1,1.65c.24.6.37,1.23.37,1.88s-.12,1.28-.37,1.88c-.1.26.02.55.28.65.06.02.12.04.19.04.2,0,.38-.12.46-.31.29-.72.44-1.48.44-2.26s-.15-1.54-.44-2.26c-.3-.74-.75-1.41-1.32-1.98Z"/></svg>