<svg xmlns="http://www.w3.org/2000/svg" viewBox="0 0 24 24" width="24" height="24"><path d="m16.5,3H7.5c-1.93,0-3.5,1.57-3.5,3.5v11c0,1.93,1.57,3.5,3.5,3.5h9c1.93,0,3.5-1.57,3.5-3.5V6.5c0-1.93-1.57-3.5-3.5-3.5Zm0,17H7.5c-1.38,0-2.5-1.12-2.5-2.5v-.5c.54,0,.78.17,1.11.41.37.26.83.59,1.69.59s1.32-.33,1.69-.59c.33-.24.57-.41,1.11-.41s.78.17,1.11.41c.37.26.83.59,1.69.59s1.32-.33,1.69-.59c.33-.24.57-.41,1.11-.41s.78.17,1.11.41c.36.26.82.57,1.64.59-.23,1.14-1.24,2-2.45,2Zm2.5-3c-.54,0-.78-.17-1.11-.41-.37-.26-.83-.59-1.69-.59s-1.32.33-1.69.59c-.33.24-.57.41-1.11.41s-.78-.17-1.11-.41c-.37-.26-.83-.59-1.69-.59s-1.32.33-1.69.59c-.33.24-.57.41-1.11.41s-.78-.17-1.11-.41c-.37-.26-.83-.59-1.69-.59v-2c.54,0,.78.17,1.11.41.37.26.83.59,1.69.59s1.32-.33,1.69-.59c.33-.24.57-.41,1.11-.41s.78.17,1.11.41c.37.26.83.59,1.69.59s1.32-.33,1.69-.59c.33-.24.57-.41,1.11-.41s.78.17,1.11.41c.37.26.83.59,1.69.59v2Zm0-3c-.54,0-.78-.17-1.11-.41-.37-.26-.83-.59-1.69-.59s-1.32.33-1.69.59c-.33.24-.57.41-1.11.41s-.78-.17-1.11-.41c-.37-.26-.83-.59-1.69-.59s-1.32.33-1.69.59c-.33.24-.57.41-1.11.41s-.78-.17-1.11-.41c-.37-.26-.83-.59-1.69-.59v-6.5c0-1.38,1.12-2.5,2.5-2.5h9c1.38,0,2.5,1.12,2.5,2.5v7.5Z"/><path d="M8.5 6A1.5 1.5 0 1 0 8.5 9 1.5 1.5 0 1 0 8.5 6z"/></svg>