<svg xmlns="http://www.w3.org/2000/svg" width="24" height="24" viewBox="0 0 24 24"><path d="M19.17 11.22c.32-.38.53-.85.59-1.35.08-.76-.19-1.5-.72-2.04-.57-.57-1.39-.79-2.16-.68.12-.77-.11-1.58-.7-2.18a2.495 2.495 0 0 0-3.4-.13c-.12-.4-.34-.78-.66-1.1-.62-.62-1.5-.87-2.35-.67a2.5 2.5 0 0 0-1.81 1.64l-2.95 8.64-.83.83c-.76.75-1.17 1.76-1.17 2.83s.42 2.07 1.17 2.83c.78.78 1.8 1.17 2.83 1.17s2.05-.39 2.83-1.17l.35-.35.48-.48 8.64-2.95a2.5 2.5 0 0 0 1.64-1.81c.2-.85-.05-1.73-.72-2.39-.3-.3-.66-.51-1.05-.62Zm-.84-2.69c.32.32.48.77.44 1.23-.05.46-.29.86-.68 1.11l-.74.48c-.1.05-.2.1-.3.16L9.4 16.56l-.44-.44-.19-.19 7.41-7.41c.57-.57 1.57-.57 2.15 0Zm-4.08-3.29c.46-.05.9.11 1.23.44.59.59.59 1.56 0 2.15l-7.41 7.41-.63-.63 5.05-7.65c.06-.09.11-.19.16-.29l.49-.74c.25-.38.66-.63 1.12-.68Zm-5.34-.21c.17-.5.58-.87 1.09-.99s1.04.03 1.46.45c.47.47.55 1.18.26 1.76l-5.01 7.64-.56-.56-.06-.06L8.9 5.03Zm.22 14.1c-1.13 1.13-3.11 1.13-4.24 0-.57-.57-.88-1.32-.88-2.12s.31-1.55.88-2.12l.35-.35 4.24 4.24zm10.84-5.12c-.12.51-.49.92-.99 1.09l-8.24 2.81-.06-.06-.56-.56 7.64-5.01c.58-.29 1.29-.2 1.8.31.37.37.52.9.41 1.42"/></svg>