<svg xmlns="http://www.w3.org/2000/svg" viewBox="0 0 24 24" width="24" height="24"><path d="m17.5,8H6.5c-1.38,0-2.5,1.12-2.5,2.5v3c0,1.38,1.12,2.5,2.5,2.5h11c1.38,0,2.5-1.12,2.5-2.5v-3c0-1.38-1.12-2.5-2.5-2.5Zm1.5,5.5c0,.83-.67,1.5-1.5,1.5H6.5c-.83,0-1.5-.67-1.5-1.5v-3c0-.83.67-1.5,1.5-1.5h11c.83,0,1.5.67,1.5,1.5v3Z"/><path d="m12,7c.28,0,.5-.22.5-.5v-3c0-.28-.22-.5-.5-.5s-.5.22-.5.5v3c0,.28.22.5.5.5Z"/><path d="m6.61,6.82c.1.12.24.18.39.18.11,0,.22-.04.31-.11.21-.17.25-.49.07-.7l-1.62-2c-.17-.21-.49-.25-.7-.07-.21.17-.25.49-.07.7l1.62,2Z"/><path d="m17,7c.15,0,.29-.06.39-.18l1.62-2c.17-.21.14-.53-.07-.7-.21-.18-.53-.14-.7.07l-1.62,2c-.17.21-.14.53.07.7.09.08.2.11.31.11Z"/><path d="m12,17c-.28,0-.5.22-.5.5v3c0,.28.22.5.5.5s.5-.22.5-.5v-3c0-.28-.22-.5-.5-.5Z"/><path d="m17.39,17.18c-.17-.21-.49-.25-.7-.07-.21.17-.25.49-.07.7l1.62,2c.1.12.24.18.39.18.11,0,.22-.04.31-.11.21-.17.25-.49.07-.7l-1.62-2Z"/><path d="m6.61,17.18l-1.62,2c-.17.21-.14.53.07.7.09.08.2.11.31.11.15,0,.29-.06.39-.18l1.62-2c.17-.21.14-.53-.07-.7-.21-.18-.53-.14-.7.07Z"/></svg>