<svg xmlns="http://www.w3.org/2000/svg" viewBox="0 0 24 24" width="24" height="24"><path d="m3.56,10.85s.05,0,.07,0c.27-.04.46-.29.42-.57-.04-.26-.06-.52-.06-.78,0-.66.12-1.31.35-1.92.1-.26-.03-.55-.29-.64-.26-.1-.55.04-.64.29-.27.73-.41,1.49-.41,2.27,0,.31.02.62.06.92.04.25.25.43.49.43Z"/><path d="m13.16,14.28c-.15-.23-.46-.3-.69-.15-.77.5-1.66.79-2.58.86-.28.02-.48.26-.46.53.02.26.24.46.5.46.01,0,.02,0,.04,0,1.08-.08,2.14-.43,3.05-1.02.23-.15.3-.46.15-.69Z"/><path d="m5.1,12.8c-.17-.22-.48-.27-.7-.1-.22.17-.27.48-.1.7.65.87,1.52,1.57,2.5,2.02.07.03.14.04.21.04.19,0,.37-.11.46-.29.11-.25,0-.55-.25-.66-.83-.38-1.57-.97-2.12-1.71Z"/><path d="m14.53,12.81c.08.04.16.06.24.06.18,0,.35-.09.44-.26.52-.95.79-2.03.79-3.12,0-.62-.09-1.24-.26-1.83-.08-.26-.35-.42-.62-.34-.27.08-.42.35-.34.62.15.5.22,1.02.22,1.55,0,.92-.23,1.83-.67,2.64-.13.24-.04.55.2.68Z"/><path d="m8.71,3.53c-.06-.27-.32-.44-.59-.38-1.06.23-2.05.73-2.88,1.44-.21.18-.23.5-.05.71.1.11.24.17.38.17.12,0,.23-.04.33-.12.7-.6,1.54-1.02,2.43-1.22.27-.06.44-.32.38-.59Z"/><path d="m11.05,4.22c.88.26,1.69.74,2.34,1.39.1.1.23.15.35.15s.26-.05.35-.15c.2-.2.2-.51,0-.71-.77-.77-1.73-1.34-2.76-1.64-.27-.08-.54.08-.62.34-.08.26.07.54.34.62Z"/><path d="m11.21,20.11c.08.05.17.07.25.07.17,0,.34-.09.43-.25.14-.24.06-.54-.18-.68-.79-.46-1.46-1.12-1.94-1.91-.14-.24-.45-.31-.69-.17-.24.14-.31.45-.17.69.56.93,1.35,1.71,2.29,2.26Z"/><path d="m18.76,11.02c.1.12.24.18.39.18.11,0,.22-.04.32-.11.21-.17.25-.49.07-.7-.69-.84-1.58-1.51-2.58-1.91-.25-.11-.55.02-.65.27-.1.26.02.55.27.65.85.34,1.6.91,2.19,1.62Z"/><path d="m14.32,8.48c-.03-.27-.28-.47-.55-.44-1.08.12-2.12.51-3.01,1.14-.23.16-.28.47-.12.7.1.14.25.21.41.21.1,0,.2-.03.29-.09.75-.53,1.63-.86,2.54-.97.27-.03.47-.28.44-.55Z"/><path d="m20.31,12.91c-.27.05-.45.31-.4.58.06.33.09.66.09,1,0,.19,0,.37-.03.56-.09.92-.42,1.8-.93,2.55-.16.23-.1.54.13.7.09.06.19.09.28.09.16,0,.32-.08.41-.22.61-.89.99-1.94,1.1-3.02.02-.22.03-.44.03-.66,0-.4-.04-.79-.11-1.18-.05-.27-.31-.45-.58-.4Z"/><path d="m8.5,15.25h.02c.28-.01.49-.25.48-.52,0-.07,0-.14,0-.22,0-.19,0-.37.03-.56.07-.66.25-1.29.54-1.88.12-.25.02-.55-.23-.67-.25-.12-.55-.02-.67.23-.34.7-.56,1.44-.64,2.22-.02.22-.03.44-.03.66,0,.09,0,.18,0,.27.01.27.23.48.5.48Z"/><path d="m14.31,21h.2s0,0,0,0c1.01,0,2.03-.24,2.93-.7.25-.12.34-.43.22-.67-.13-.25-.43-.35-.67-.22-.77.39-1.62.59-2.48.59h-.17c-.29,0-.51.21-.52.48,0,.28.21.51.48.52Z"/></svg>