<svg xmlns="http://www.w3.org/2000/svg" width="24" height="24" viewBox="0 0 24 24"><path d="M19 12c0-.28-.22-.5-.5-.5H11c-.38 0-.73-.04-1.04-.12a2.9 2.9 0 0 1-.74-.3q-.285-.165-.51-.42a3 3 0 0 1-.35-.5c-.09-.17-.16-.35-.22-.55-.05-.19-.09-.37-.11-.54S8 8.74 7.99 8.6v-.33q0-.09.03-.24c.02-.1.05-.2.09-.32q.075-.195.18-.36c.08-.13.19-.26.31-.37.14-.13.3-.25.47-.36.2-.12.43-.23.69-.31.29-.1.61-.17.96-.22.76-.11 1.75-.12 2.5.01.33.06.63.14.89.25.23.09.43.21.6.34a1.99 1.99 0 0 1 .62.73c.05.11.09.22.12.31.07.27.35.42.61.35.27-.07.43-.35.35-.61a2.7 2.7 0 0 0-.18-.49c-.09-.2-.21-.38-.35-.55-.16-.2-.35-.38-.57-.55a4 4 0 0 0-.82-.46c-.33-.14-.7-.24-1.1-.31-.86-.15-1.96-.15-2.82-.02-.41.06-.79.15-1.13.27-.32.11-.62.24-.88.4-.24.15-.46.31-.66.5-.17.17-.32.35-.45.55-.11.17-.2.35-.28.54-.07.17-.11.34-.14.49s-.04.28-.05.38v.4c0 .17.02.36.05.57.03.22.07.45.14.68a3.58 3.58 0 0 0 .78 1.45c.05.06.11.11.17.16H5.48c-.28 0-.5.22-.5.5s.22.5.5.5h13c.28 0 .5-.22.5-.5ZM14.82 18.4c.34-.17.64-.39.91-.64.23-.22.44-.47.62-.74.15-.23.27-.47.37-.73.09-.23.15-.45.19-.63.04-.19.06-.35.08-.46a.503.503 0 0 0-.45-.55.51.51 0 0 0-.55.45c0 .08-.02.2-.06.34a3.3 3.3 0 0 1-.43 1.04c-.13.2-.29.39-.46.55q-.3.285-.69.48c-.29.15-.63.27-.99.35-.84.19-1.95.17-2.78.04-.38-.06-.72-.15-1.03-.26-.26-.1-.5-.21-.7-.35-.17-.11-.32-.24-.44-.38-.1-.11-.19-.23-.25-.36q-.075-.15-.12-.3c-.02-.08-.04-.15-.04-.2a.5.5 0 0 0-.55-.44c-.27.03-.47.28-.44.55 0 .09.03.21.07.36.05.17.12.33.2.5.1.2.24.39.39.56q.27.3.63.54.405.27.9.45c.36.13.77.24 1.22.31.48.08 1.01.11 1.57.11s1.1-.05 1.58-.16c.45-.1.86-.25 1.23-.44Z"/></svg>