<svg xmlns="http://www.w3.org/2000/svg" viewBox="0 0 24 24" width="24" height="24"><path d="m11.61,15.14c.09.18.27.29.45.29.07,0,.14-.02.21-.05.98-.46,1.84-1.17,2.48-2.05.23-.31.4-.6.52-.85.13-.25.24-.5.34-.76.09-.26-.04-.55-.3-.64-.26-.09-.55.04-.64.3-.08.22-.17.44-.29.67-.1.22-.24.45-.43.71-.54.74-1.27,1.35-2.09,1.74-.25.12-.36.42-.24.67Z"/><path d="m4.27,12.94c.08,0,.17-.02.25-.06.24-.14.33-.44.19-.68-.45-.8-.69-1.71-.71-2.63,0-.27-.23-.49-.5-.49h0c-.28,0-.5.23-.49.51.02,1.09.3,2.16.84,3.1.09.16.26.25.44.25Z"/><path d="m6.47,4.91c.23-.15.29-.46.14-.69s-.46-.29-.69-.14c-.65.43-1.21.97-1.68,1.6-.18.25-.34.51-.49.78-.13.24-.04.55.21.68.07.04.16.06.23.06.18,0,.35-.1.44-.27.12-.23.26-.45.41-.66.39-.54.87-.99,1.42-1.36Z"/><path d="m12.13,3.56c-.83-.37-1.71-.55-2.62-.55-.19,0-.37,0-.55.02-.28.02-.48.26-.46.54.02.27.27.49.54.46.15-.01.3-.02.46-.02.77,0,1.52.16,2.22.47.07.03.13.04.2.04.19,0,.38-.11.46-.3.11-.25,0-.55-.25-.66Z"/><path d="m15.85,8.17c-.2-.95-.6-1.86-1.19-2.63-.17-.22-.48-.26-.7-.09-.22.17-.26.48-.09.7.56.73.93,1.59,1.07,2.5.03.22.21.37.41.41h0c2.65.41,4.65,2.74,4.65,5.43,0,3.03-2.47,5.5-5.5,5.5-2.48,0-4.63-1.7-5.27-4.03.23-.04.41-.22.42-.46.02-.28-.2-.51-.47-.53-.92-.05-1.81-.34-2.59-.82-.24-.15-.54-.08-.69.16-.15.23-.08.54.16.69.65.41,1.37.69,2.12.84.62,2.95,3.27,5.14,6.33,5.14,3.58,0,6.5-2.92,6.5-6.5,0-3.06-2.2-5.71-5.15-6.33Z"/></svg>