<svg xmlns="http://www.w3.org/2000/svg" width="24" height="24" viewBox="0 0 24 24"><path d="M14.06 11.02 9.02 7.06c-.38-.3-.89-.35-1.32-.14S7 7.56 7 8.04v7.91c0 .48.27.91.7 1.12.18.09.36.13.55.13.27 0 .54-.09.77-.27l5.04-3.96c.3-.24.48-.6.48-.98s-.17-.74-.48-.98Zm-.62 1.18L8.4 16.16c-.11.09-.22.05-.26.03a.24.24 0 0 1-.14-.22V8.06c0-.14.1-.2.14-.22.02-.01.06-.03.11-.03s.1.01.15.05l5.04 3.96c.08.07.1.15.1.2s-.01.13-.1.2ZM16.5 6.5c-.28 0-.5.22-.5.5v10c0 .28.22.5.5.5s.5-.22.5-.5V7c0-.28-.22-.5-.5-.5"/></svg>