<svg xmlns="http://www.w3.org/2000/svg" viewBox="0 0 24 24" width="24" height="24"><path d="m18.5,3h-6c-.28,0-.5.22-.5.5v7.09c0,.36-.19.69-.5.87l-4.78,2.76c-.81.47-1.39,1.22-1.63,2.13-.24.9-.12,1.85.35,2.66s1.22,1.39,2.13,1.63c.3.08.61.12.91.12.61,0,1.21-.16,1.74-.47l7.03-4.05c1.08-.62,1.75-1.79,1.75-3.03V3.5c0-.28-.22-.5-.5-.5Zm-.5,10.19c0,.89-.48,1.72-1.25,2.17l-7.03,4.05c-.58.33-1.25.42-1.9.25-.65-.17-1.19-.59-1.52-1.17-.33-.58-.42-1.25-.25-1.9.17-.65.59-1.18,1.17-1.52l4.78-2.76c.62-.36,1-1.02,1-1.73v-3.59h5v6.19Zm-5-7.19v-2h5v2h-5Z"/></svg>