<svg xmlns="http://www.w3.org/2000/svg" width="24" height="24" viewBox="0 0 24 24"><path d="M7.88 19.76c1.35.42 2.73.62 4.12.62s2.77-.21 4.12-.62c1.74-.54 3.1-1.9 3.64-3.64.83-2.69.83-5.54 0-8.23-.54-1.74-1.9-3.1-3.64-3.64-2.69-.83-5.54-.83-8.23 0-1.74.54-3.1 1.9-3.64 3.64-.83 2.69-.83 5.54 0 8.23.54 1.74 1.9 3.1 3.64 3.64ZM5.2 8.18A4.51 4.51 0 0 1 8.18 5.2c1.25-.38 2.54-.58 3.82-.58s2.57.19 3.82.58c1.43.44 2.54 1.55 2.98 2.98.77 2.5.77 5.14 0 7.65a4.51 4.51 0 0 1-2.98 2.98c-2.5.77-5.15.77-7.65 0a4.49 4.49 0 0 1-2.98-2.98c-.77-2.5-.77-5.14 0-7.65Z"/></svg>