<svg xmlns="http://www.w3.org/2000/svg" width="24" height="24" viewBox="0 0 24 24"><path d="M20.5 6h-4V5c0-1.1-.9-2-2-2h-5c-1.1 0-2 .9-2 2v1h-4c-.28 0-.5.22-.5.5s.22.5.5.5H5v10.5C5 19.43 6.57 21 8.5 21h7c1.93 0 3.5-1.57 3.5-3.5V7h1.5c.28 0 .5-.22.5-.5s-.22-.5-.5-.5m-12-1c0-.55.45-1 1-1h5c.55 0 1 .45 1 1v1h-7zM18 17.5a2.5 2.5 0 0 1-2.5 2.5h-7A2.5 2.5 0 0 1 6 17.5V7h12z"/><path d="M10 9c-.28 0-.5.22-.5.5v8c0 .28.22.5.5.5s.5-.22.5-.5v-8c0-.28-.22-.5-.5-.5M14 9c-.28 0-.5.22-.5.5v8c0 .28.22.5.5.5s.5-.22.5-.5v-8c0-.28-.22-.5-.5-.5"/></svg>