<svg xmlns="http://www.w3.org/2000/svg" viewBox="0 0 24 24" width="24" height="24"><path d="m17.5,4H6.5c-1.93,0-3.5,1.57-3.5,3.5v9c0,1.93,1.57,3.5,3.5,3.5h11c1.93,0,3.5-1.57,3.5-3.5V7.5c0-1.93-1.57-3.5-3.5-3.5Zm2.5,12.5c0,1.38-1.12,2.5-2.5,2.5H6.5c-1.38,0-2.5-1.12-2.5-2.5V7.5c0-1.38,1.12-2.5,2.5-2.5h11c1.38,0,2.5,1.12,2.5,2.5v9Z"/><path d="m17.5,9h-4c-.28,0-.5.22-.5.5s.22.5.5.5h4c.28,0,.5-.22.5-.5s-.22-.5-.5-.5Z"/><path d="m10.15,7.65l-2.15,2.15-1.15-1.15c-.2-.2-.51-.2-.71,0s-.2.51,0,.71l1.5,1.5c.1.1.23.15.35.15s.26-.05.35-.15l2.5-2.5c.2-.2.2-.51,0-.71s-.51-.2-.71,0Z"/><path d="m17.5,14h-4c-.28,0-.5.22-.5.5s.22.5.5.5h4c.28,0,.5-.22.5-.5s-.22-.5-.5-.5Z"/><path d="m10.15,12.65l-2.15,2.15-1.15-1.15c-.2-.2-.51-.2-.71,0s-.2.51,0,.71l1.5,1.5c.1.1.23.15.35.15s.26-.05.35-.15l2.5-2.5c.2-.2.2-.51,0-.71s-.51-.2-.71,0Z"/></svg>