<svg xmlns="http://www.w3.org/2000/svg" viewBox="0 0 24 24" width="24" height="24"><path d="m17.37 18.05 3.08-5c.4-.65.4-1.45 0-2.1l-3.08-5c-.36-.59-1.01-.95-1.7-.95H6.18c-.73 0-1.39.38-1.75 1.02s-.34 1.4.04 2.02l2.11 3.43c.2.32.2.73 0 1.05l-2.11 3.43c-.39.62-.4 1.38-.04 2.02s1.01 1.02 1.75 1.02h9.48c.69 0 1.34-.36 1.7-.95Zm-12.05-.56c-.18-.32-.17-.7.02-1.01l2.11-3.43c.4-.65.4-1.45 0-2.1L5.34 7.52a.99.99 0 0 1-.02-1.01c.18-.32.51-.51.87-.51h9.48c.34 0 .67.18.85.48l3.08 5c.2.32.2.73 0 1.05l-3.08 5c-.18.29-.51.48-.85.48H6.18a.98.98 0 0 1-.87-.51Z"/></svg>