<svg xmlns="http://www.w3.org/2000/svg" viewBox="0 0 24 24" width="24" height="24"><path d="m20.5,6h-4v-1c0-1.1-.9-2-2-2h-5c-1.1,0-2,.9-2,2v1H3.5c-.28,0-.5.22-.5.5s.22.5.5.5h1.5v10.5c0,1.93,1.57,3.5,3.5,3.5h7c1.93,0,3.5-1.57,3.5-3.5V7h1.5c.28,0,.5-.22.5-.5s-.22-.5-.5-.5Zm-12-1c0-.55.45-1,1-1h5c.55,0,1,.45,1,1v1h-7v-1Zm9.5,12.5c0,1.38-1.12,2.5-2.5,2.5h-7c-1.38,0-2.5-1.12-2.5-2.5V7h12v10.5Z"/><path d="m15.35,10.15c-.2-.2-.51-.2-.71,0l-2.65,2.65-2.65-2.65c-.2-.2-.51-.2-.71,0s-.2.51,0,.71l2.65,2.65-2.65,2.65c-.2.2-.2.51,0,.71.1.1.23.15.35.15s.26-.05.35-.15l2.65-2.65,2.65,2.65c.1.1.23.15.35.15s.26-.05.35-.15c.2-.2.2-.51,0-.71l-2.65-2.65,2.65-2.65c.2-.2.2-.51,0-.71Z"/></svg>