<svg xmlns="http://www.w3.org/2000/svg" viewBox="0 0 24 24" width="24" height="24"><path d="m16.5,4H7.5c-1.93,0-3.5,1.57-3.5,3.5v9c0,1.93,1.57,3.5,3.5,3.5h9c1.93,0,3.5-1.57,3.5-3.5V7.5c0-1.93-1.57-3.5-3.5-3.5Zm2.5,7h-2v2h2v2h-2v2h1.95c-.2.98-.97,1.75-1.95,1.95v-1.95h-2v2h-2v-2h-2v2h-2v-2h-2v1.95c-.98-.2-1.75-.97-1.95-1.95h1.95v-2h-2v-2h2v-2h-2v-2h2v-2h-1.95c.2-.98.97-1.75,1.95-1.95v1.95h2v-2h2v2h2v-2h2v2h2v-1.95c.98.2,1.75.97,1.95,1.95h-1.95v2h2v2Z"/><path d="M7 9H9V11H7z"/><path d="M9 7H11V9H9z"/><path d="M11 9H13V11H11z"/><path d="M13 7H15V9H13z"/><path d="M15 9H17V11H15z"/><path d="M7 13H9V15H7z"/><path d="M9 11H11V13H9z"/><path d="M11 13H13V15H11z"/><path d="M13 11H15V13H13z"/><path d="M15 13H17V15H15z"/><path d="M9 15H11V17H9z"/><path d="M13 15H15V17H13z"/></svg>