<svg xmlns="http://www.w3.org/2000/svg" viewBox="0 0 24 24" width="24" height="24"><path d="m18.79,8.92c-.36-.57-1-.92-1.68-.92h-2.11v-1c0-1.1-.9-2-2-2H5c-1.1,0-2,.9-2,2v8c0,.96.67,1.76,1.57,1.95-.04.18-.07.36-.07.55,0,1.38,1.12,2.5,2.5,2.5s2.5-1.12,2.5-2.5c0-.17-.03-.34-.07-.5h5.13c-.03.16-.07.33-.07.5,0,1.38,1.12,2.5,2.5,2.5s2.5-1.12,2.5-2.5c0-.19-.03-.37-.07-.55.9-.2,1.57-1,1.57-1.95v-2.06c0-.39-.11-.77-.32-1.08l-1.89-2.94Zm-1.68.08c.34,0,.66.17.84.46l1.63,2.54h-4.58v-3s2.11,0,2.11,0Zm-13.11,6V7c0-.55.45-1,1-1h8c.55,0,1,.45,1,1v9h-5c-.04-.06-.1-.1-.15-.15-.06-.06-.11-.13-.17-.18-.09-.09-.19-.16-.3-.23-.06-.04-.13-.09-.19-.13-.12-.07-.25-.11-.38-.16-.06-.02-.12-.05-.19-.07-.2-.05-.41-.08-.62-.08s-.42.03-.62.08c-.07.02-.12.05-.19.07-.13.04-.26.09-.38.16-.07.04-.13.09-.2.13-.1.07-.2.14-.3.23-.06.06-.12.12-.18.19-.05.05-.1.09-.14.15h0c-.55,0-1-.45-1-1Zm3,4c-.83,0-1.5-.67-1.5-1.5,0-.26.07-.53.2-.75.27-.47.76-.75,1.3-.75s1.02.28,1.3.75c.13.22.2.49.2.75,0,.83-.67,1.5-1.5,1.5Zm10,0c-.83,0-1.5-.67-1.5-1.5,0-.26.07-.53.2-.75.27-.47.76-.75,1.3-.75s1.02.28,1.3.75c.13.22.2.49.2.75,0,.83-.67,1.5-1.5,1.5Zm3-4c0,.55-.45,1-1,1h0c-.04-.06-.1-.1-.15-.15-.06-.06-.11-.13-.17-.18-.09-.09-.19-.16-.3-.23-.06-.04-.13-.09-.19-.13-.12-.07-.25-.11-.38-.16-.06-.02-.12-.05-.19-.07-.2-.05-.41-.08-.62-.08s-.42.03-.62.08c-.07.02-.12.05-.19.07-.13.04-.26.09-.38.16-.07.04-.13.09-.2.13-.1.07-.2.14-.3.23-.06.06-.12.12-.18.19-.05.05-.1.09-.14.15v-3s5,0,5,0v2Z"/></svg>