<svg xmlns="http://www.w3.org/2000/svg" viewBox="0 0 24 24" width="24" height="24"><path d="m15.5,12c-.28,0-.5.22-.5.5v1c0,.28.22.5.5.5s.5-.22.5-.5v-1c0-.28-.22-.5-.5-.5Z"/><path d="m15.5,15c-.28,0-.5.22-.5.5v1c0,.28.22.5.5.5s.5-.22.5-.5v-1c0-.28-.22-.5-.5-.5Z"/><path d="m19.75,9h-.75v-4.38c0-.42-.21-.81-.56-1.04-.35-.23-.79-.28-1.17-.12L3.81,9.04c-.09.04-.15.1-.2.17-.36.22-.61.6-.61,1.05v1.59c0,.58.39,1.08.96,1.21.91.21,1.54,1.01,1.54,1.95s-.63,1.73-1.54,1.95c-.56.13-.96.63-.96,1.21v1.59c0,.69.56,1.25,1.25,1.25h15.5c.69,0,1.25-.56,1.25-1.25v-1.59c0-.58-.39-1.08-.96-1.21-.91-.21-1.54-1.01-1.54-1.95s.63-1.73,1.54-1.95c.56-.13.96-.63.96-1.21v-1.59c0-.69-.56-1.25-1.25-1.25Zm-2.1-4.61c.11-.05.19,0,.23.02.04.03.11.09.11.21v4.38H6.52l11.14-4.61Zm2.35,7.45c0,.11-.08.21-.19.24-1.36.32-2.31,1.52-2.31,2.92s.95,2.6,2.31,2.92c.11.03.19.12.19.24v1.59c0,.14-.11.25-.25.25h-3.75v-1.5c0-.28-.22-.5-.5-.5s-.5.22-.5.5v1.5H4.25c-.14,0-.25-.11-.25-.25v-1.59c0-.11.08-.21.19-.24,1.36-.32,2.31-1.52,2.31-2.92s-.95-2.6-2.31-2.92c-.11-.03-.19-.12-.19-.24v-1.59c0-.14.11-.25.25-.25h10.75v.5c0,.28.22.5.5.5s.5-.22.5-.5v-.5h3.75c.14,0,.25.11.25.25v1.59Z"/></svg>