<svg xmlns="http://www.w3.org/2000/svg" viewBox="0 0 24 24" width="24" height="24"><path d="m16.5,3H7.5c-.83,0-1.5.67-1.5,1.5v3c0,1.76,1.31,3.22,3,3.46v8.04c0,1.1.9,2,2,2h2c1.1,0,2-.9,2-2v-8.04c1.69-.24,3-1.71,3-3.46v-3c0-.83-.67-1.5-1.5-1.5Zm.5,4.5c0,1.38-1.12,2.5-2.5,2.5-.28,0-.5.22-.5.5v8.5c0,.55-.45,1-1,1h-2c-.55,0-1-.45-1-1v-8.5c0-.28-.22-.5-.5-.5-1.38,0-2.5-1.12-2.5-2.5v-1.5h10v1.5Zm-10-2.5v-.5c0-.28.22-.5.5-.5h9c.28,0,.5.22.5.5v.5H7Z"/><path d="m12,13c.28,0,.5-.22.5-.5v-2c0-.28-.22-.5-.5-.5s-.5.22-.5.5v2c0,.28.22.5.5.5Z"/></svg>