<svg xmlns="http://www.w3.org/2000/svg" viewBox="0 0 24 24" width="24" height="24"><path class="b" d="m16.5,4H7.5c-1.93,0-3.5,1.57-3.5,3.5v9c0,1.93,1.57,3.5,3.5,3.5h9c1.93,0,3.5-1.57,3.5-3.5V7.5c0-1.93-1.57-3.5-3.5-3.5Zm-11.5,6.71l5.71-5.71h4.59L5,15.29v-4.59Zm2.5-5.71h1.79l-4.29,4.29v-1.79c0-1.38,1.12-2.5,2.5-2.5Zm-2.48,11.69l11.67-11.67c1.23.09,2.2,1.07,2.29,2.29l-11.67,11.67c-1.23-.09-2.2-1.07-2.29-2.29Zm13.98-3.4l-5.71,5.71h-4.59l10.29-10.29v4.59Zm-2.5,5.71h-1.79l4.29-4.29v1.79c0,1.38-1.12,2.5-2.5,2.5Z"/></svg>