<svg xmlns="http://www.w3.org/2000/svg" viewBox="0 0 24 24" width="24" height="24"><path d="m12,6c.28,0,.5-.22.5-.5v-2c0-.28-.22-.5-.5-.5s-.5.22-.5.5v2c0,.28.22.5.5.5Z"/><path d="m11.5,10.5c0,.28.22.5.5.5s.5-.22.5-.5v-2c0-.28-.22-.5-.5-.5s-.5.22-.5.5v2Z"/><path d="m11.5,15.5c0,.28.22.5.5.5s.5-.22.5-.5v-2c0-.28-.22-.5-.5-.5s-.5.22-.5.5v2Z"/><path d="m11.5,20.5c0,.28.22.5.5.5s.5-.22.5-.5v-2c0-.28-.22-.5-.5-.5s-.5.22-.5.5v2Z"/><path d="m5.5,19h-2c-.28,0-.5.22-.5.5s.22.5.5.5h2c1.93,0,3.5-1.57,3.5-3.5V7.5c0-1.93-1.57-3.5-3.5-3.5h-2c-.28,0-.5.22-.5.5s.22.5.5.5h2c1.21,0,2.22.86,2.45,2H3.5c-.28,0-.5.22-.5.5s.22.5.5.5h4.5v5H3.5c-.28,0-.5.22-.5.5s.22.5.5.5h4.5v2.5c0,1.38-1.12,2.5-2.5,2.5Z"/><path d="m18.5,5h2c.28,0,.5-.22.5-.5s-.22-.5-.5-.5h-2c-1.93,0-3.5,1.57-3.5,3.5v9c0,1.93,1.57,3.5,3.5,3.5h2c.28,0,.5-.22.5-.5s-.22-.5-.5-.5h-2c-1.38,0-2.5-1.12-2.5-2.5v-2.5h4.5c.28,0,.5-.22.5-.5s-.22-.5-.5-.5h-4.5v-5h4.5c.28,0,.5-.22.5-.5s-.22-.5-.5-.5h-4.45c.23-1.14,1.24-2,2.45-2Z"/></svg>