<svg xmlns="http://www.w3.org/2000/svg" viewBox="0 0 24 24" width="24" height="24"><path d="m15.5,9c-.28,0-.5.22-.5.5v1c0,.28.22.5.5.5s.5-.22.5-.5v-1c0-.28-.22-.5-.5-.5Z"/><path d="m15.5,12c-.28,0-.5.22-.5.5v1c0,.28.22.5.5.5s.5-.22.5-.5v-1c0-.28-.22-.5-.5-.5Z"/><path d="m19.75,6H4.25c-.69,0-1.25.56-1.25,1.25v1.6c0,.58.39,1.08.96,1.21.91.21,1.54,1.01,1.54,1.95s-.63,1.73-1.54,1.95c-.57.13-.96.63-.96,1.21v1.6c0,.69.56,1.25,1.25,1.25h15.5c.69,0,1.25-.56,1.25-1.25v-1.6c0-.58-.39-1.08-.96-1.21-.91-.21-1.54-1.01-1.54-1.95s.63-1.73,1.54-1.95c.57-.13.96-.63.96-1.21v-1.6c0-.69-.56-1.25-1.25-1.25Zm.25,2.85c0,.11-.08.21-.19.23-1.36.32-2.31,1.52-2.31,2.92s.95,2.6,2.31,2.92c.11.03.19.12.19.23v1.6c0,.14-.11.25-.25.25h-3.75v-1.5c0-.28-.22-.5-.5-.5s-.5.22-.5.5v1.5H4.25c-.14,0-.25-.11-.25-.25v-1.6c0-.11.08-.21.19-.23,1.36-.32,2.31-1.52,2.31-2.92s-.95-2.6-2.31-2.92c-.11-.03-.19-.12-.19-.23v-1.6c0-.14.11-.25.25-.25h10.75v.5c0,.28.22.5.5.5s.5-.22.5-.5v-.5h3.75c.14,0,.25.11.25.25v1.6Z"/></svg>