<svg xmlns="http://www.w3.org/2000/svg" width="24" height="24" viewBox="0 0 24 24"><path d="m20.11 4.78-2.54-1.13A7.6 7.6 0 0 0 14.5 3c-.28 0-.5.22-.5.5 0 1.1-.9 2-2 2s-2-.9-2-2c0-.28-.22-.5-.5-.5-1.06 0-2.1.22-3.07.65L3.89 4.78c-.54.24-.89.78-.89 1.37V9.5c0 .83.67 1.5 1.5 1.5H6v8.5c0 .83.67 1.5 1.5 1.5h9c.83 0 1.5-.67 1.5-1.5V11h1.5c.83 0 1.5-.67 1.5-1.5V6.15c0-.59-.35-1.13-.89-1.37M20 9.5c0 .28-.22.5-.5.5h-2c-.28 0-.5.22-.5.5v9c0 .28-.22.5-.5.5h-9c-.28 0-.5-.22-.5-.5v-9c0-.28-.22-.5-.5-.5h-2c-.28 0-.5-.22-.5-.5V6.15c0-.2.12-.38.3-.46l2.54-1.13c.71-.31 1.45-.5 2.21-.55.25 1.41 1.48 2.48 2.96 2.48s2.71-1.08 2.96-2.48c.76.05 1.51.24 2.21.55l2.54 1.13c.18.08.3.26.3.46V9.5Z"/></svg>