<svg xmlns="http://www.w3.org/2000/svg" viewBox="0 0 24 24" width="24" height="24"><path d="M8.5 13A1.5 1.5 0 1 0 8.5 16 1.5 1.5 0 1 0 8.5 13z"/><path d="M15.5 13A1.5 1.5 0 1 0 15.5 16 1.5 1.5 0 1 0 15.5 13z"/><path d="m19,14.5v-7c0-2.48-2.02-4.5-4.5-4.5h-5c-2.48,0-4.5,2.02-4.5,4.5v7c0,1.73,1.26,3.16,2.91,3.44l-1.43,2.29c-.21.33.03.77.42.77h1.1c.16,0,.31-.07.4-.2l.45-.6c.09-.13.24-.2.4-.2h5.5c.16,0,.31.07.4.2l.45.6c.09.13.24.2.4.2h1.1c.39,0,.63-.43.42-.77l-1.43-2.29c1.65-.28,2.91-1.71,2.91-3.44ZM6.05,7h11.9c.02.16.05.33.05.5v3.5H6v-3.5c0-.17.03-.34.05-.5Zm3.45-3h5c1.39,0,2.58.82,3.15,2H6.35c.56-1.18,1.76-2,3.15-2Zm6,13h-7c-1.38,0-2.5-1.12-2.5-2.5v-2.5h12v2.5c0,1.38-1.12,2.5-2.5,2.5Z"/></svg>