<svg xmlns="http://www.w3.org/2000/svg" viewBox="0 0 24 24" width="24" height="24"><path d="m17.5,5h-7.93c-1.15,0-2.22.56-2.88,1.51l-3.01,4.35c-.47.68-.47,1.6,0,2.28l3.01,4.36c.65.94,1.73,1.51,2.88,1.51h7.93c1.93,0,3.5-1.57,3.5-3.5v-7c0-1.93-1.57-3.5-3.5-3.5Zm2.5,10.5c0,1.38-1.12,2.5-2.5,2.5h-7.93c-.82,0-1.59-.4-2.06-1.08l-3.01-4.36c-.24-.34-.24-.8,0-1.14l3.01-4.35c.47-.67,1.24-1.08,2.06-1.08h7.93c1.38,0,2.5,1.12,2.5,2.5v7Z"/><path d="m16.85,9.15c-.2-.2-.51-.2-.71,0l-2.15,2.15-2.15-2.15c-.2-.2-.51-.2-.71,0s-.2.51,0,.71l2.15,2.15-2.15,2.15c-.2.2-.2.51,0,.71.1.1.23.15.35.15s.26-.05.35-.15l2.15-2.15,2.15,2.15c.1.1.23.15.35.15s.26-.05.35-.15c.2-.2.2-.51,0-.71l-2.15-2.15,2.15-2.15c.2-.2.2-.51,0-.71Z"/></svg>