<svg xmlns="http://www.w3.org/2000/svg" viewBox="0 0 24 24" width="24" height="24"><path d="m20.06,9.57c0-2.08-1.71-3.77-3.81-3.77-.08,0-.15,0-.23,0-.6-1.67-2.19-2.81-4.02-2.81s-3.42,1.13-4.02,2.81c-.08,0-.15,0-.23,0-2.1,0-3.81,1.69-3.81,3.77,0,.26.03.53.1.81-.68.84-1.05,1.86-1.05,2.92,0,2.59,2.13,4.7,4.75,4.7h3.75v2.5c0,.28.22.5.5.5s.5-.22.5-.5v-2.5h3.75c2.62,0,4.75-2.11,4.75-4.7,0-1.06-.37-2.08-1.05-2.92.07-.29.1-.55.1-.81Zm-.06,3.73c0,2.04-1.68,3.7-3.75,3.7H7.75c-2.07,0-3.75-1.66-3.75-3.7,0-.9.34-1.77.97-2.46.12-.13.16-.31.11-.48-.09-.3-.13-.55-.13-.79,0-1.53,1.26-2.77,2.81-2.77.17,0,.34.02.5.05.26.04.51-.12.57-.37.36-1.46,1.66-2.48,3.18-2.48s2.82,1.02,3.18,2.48c.06.26.31.42.57.37.16-.03.33-.05.5-.05,1.55,0,2.81,1.24,2.81,2.77,0,.24-.04.49-.13.79-.05.17,0,.35.11.48.62.69.97,1.56.97,2.46Z"/></svg>