<svg xmlns="http://www.w3.org/2000/svg" viewBox="0 0 24 24" width="24" height="24"><path d="m13.9,5c-2.62,0-5.06,1.44-6.29,3.7-.43.02-.83.1-1.23.22l-.64-.97c.44-.11.76-.48.76-.95,0-.55-.45-1-1-1s-1,.45-1,1c0,.06.02.12.04.18-.16-.1-.33-.18-.54-.18-.55,0-1,.45-1,1s.45,1,1,1c.38,0,.71-.22.87-.54l.57.86c-1.44.8-2.42,2.3-2.42,4.03,0,2.54,2.11,4.62,4.71,4.65h7.08c3.18,0,5.89-2.37,6.18-5.4.02-.21.03-.42.03-.64,0-3.84-3.2-6.96-7.13-6.96Zm6.1,7.51c-.24,2.52-2.51,4.49-5.18,4.49h-7.08c-2.05-.02-3.72-1.66-3.72-3.65s1.68-3.64,3.72-3.65c2.07,0,3.75,1.64,3.75,3.65,0,.28.22.5.5.5s.5-.22.5-.5c0-2.24-1.62-4.11-3.78-4.55,1.11-1.71,3.07-2.79,5.17-2.79,3.38,0,6.13,2.67,6.13,5.96,0,.18,0,.37-.03.54Z"/></svg>