<svg xmlns="http://www.w3.org/2000/svg" viewBox="0 0 24 24" width="24" height="24"><path d="m18,7c1.1,0,2-.9,2-2s-.9-2-2-2H6c-1.1,0-2,.9-2,2s.9,2,2,2v10c-1.1,0-2,.9-2,2s.9,2,2,2h12c1.1,0,2-.9,2-2s-.9-2-2-2V7Zm-10.29,10l9.29-9.29v4.09l-5.21,5.21h-4.09Zm8.59-10l-9.29,9.29v-4.09l5.21-5.21h4.09Zm-11.29-2c0-.55.45-1,1-1h12c.55,0,1,.45,1,1s-.45,1-1,1H6c-.55,0-1-.45-1-1Zm5.79,2l-3.79,3.79v-3.79h3.79Zm8.21,12c0,.55-.45,1-1,1H6c-.55,0-1-.45-1-1s.45-1,1-1h12c.55,0,1,.45,1,1Zm-5.79-2l3.79-3.79v3.79h-3.79Z"/></svg>