<svg xmlns="http://www.w3.org/2000/svg" width="24" height="24" viewBox="0 0 24 24"><path d="M17.85 16.15c-.2-.2-.51-.2-.71 0s-.2.51 0 .71l1.15 1.15H5.71l1.15-1.15c.2-.2.2-.51 0-.71s-.51-.2-.71 0l-2 2c-.2.2-.2.51 0 .71l2 2a.485.485 0 0 0 .7 0c.2-.2.2-.51 0-.71L5.7 19h12.59l-1.15 1.15c-.2.2-.2.51 0 .71a.485.485 0 0 0 .7 0l2-2c.2-.2.2-.51 0-.71l-2-2Z"/><path d="M16 6.5c.28 0 .5-.22.5-.5V4.5c0-.28-.22-.5-.5-.5H8c-.28 0-.5.22-.5.5V6c0 .28.22.5.5.5s.5-.22.5-.5V5h3v10H10c-.28 0-.5.22-.5.5s.22.5.5.5h4c.28 0 .5-.22.5-.5s-.22-.5-.5-.5h-1.5V5h3v1c0 .28.22.5.5.5"/></svg>