<svg xmlns="http://www.w3.org/2000/svg" viewBox="0 0 24 24" width="24" height="24"><path d="M9 14A1 1 0 1 0 9 16 1 1 0 1 0 9 14z"/><path d="M15 14A1 1 0 1 0 15 16 1 1 0 1 0 15 14z"/><path d="m14.5,6h-2v-2h4c.28,0,.5-.22.5-.5s-.22-.5-.5-.5H7.5c-.28,0-.5.22-.5.5s.22.5.5.5h4v2h-2c-1.93,0-3.5,1.57-3.5,3.5v6c0,1.21.86,2.22,2,2.45v.05l-2,3h2.25l.75-1h6l.75,1h2.25l-2-3v-.05c1.14-.23,2-1.24,2-2.45v-6c0-1.93-1.57-3.5-3.5-3.5Zm2.5,9.5c0,.83-.67,1.5-1.5,1.5h-7c-.83,0-1.5-.67-1.5-1.5v-2.5h10v2.5Zm0-3.5H7v-2.5c0-1.38,1.12-2.5,2.5-2.5h5c1.38,0,2.5,1.12,2.5,2.5v2.5Z"/></svg>