<svg xmlns="http://www.w3.org/2000/svg" width="24" height="24" viewBox="0 0 24 24"><path d="M5 8.5c0 2 1.5 3.5 3.5 3.5S12 10.5 12 8.5 10.5 5 8.5 5 5 6.5 5 8.5m6 0C11 9.95 9.95 11 8.5 11S6 9.95 6 8.5 7.05 6 8.5 6 11 7.05 11 8.5M4.5 19h8c.83 0 1.5-.67 1.5-1.5 0-2.48-2.02-4.5-4.5-4.5h-2C5.02 13 3 15.02 3 17.5c0 .83.67 1.5 1.5 1.5m3-5h2c1.93 0 3.5 1.57 3.5 3.5 0 .28-.22.5-.5.5h-8c-.28 0-.5-.22-.5-.5C4 15.57 5.57 14 7.5 14M20.15 9.15 16 13.3l-2.15-2.15c-.2-.2-.51-.2-.71 0s-.2.51 0 .71l2.5 2.5a.485.485 0 0 0 .7 0l4.5-4.5c.2-.2.2-.51 0-.71s-.51-.2-.71 0Z"/></svg>