<svg xmlns="http://www.w3.org/2000/svg" width="24" height="24" viewBox="0 0 24 24"><path d="M12 3c-4.96 0-9 4.04-9 9s4.04 9 9 9 9-4.04 9-9-4.04-9-9-9m0 17c-4.41 0-8-3.59-8-8s3.59-8 8-8 8 3.59 8 8-3.59 8-8 8"/><path d="M15.49 12a1.5 1.5 0 1 0 0 3 1.5 1.5 0 1 0 0-3M8.5 12.01c-.82 0-1.49.67-1.49 1.49s.67 1.49 1.49 1.49 1.49-.67 1.49-1.49-.67-1.49-1.49-1.49M15.53 8.96c.13 0 .26-.05.35-.15.2-.2.2-.51 0-.71-2.14-2.14-5.63-2.14-7.78 0-.2.2-.2.51 0 .71s.51.2.71 0a4.51 4.51 0 0 1 6.36 0c.1.1.23.15.35.15Z"/></svg>