<svg xmlns="http://www.w3.org/2000/svg" width="24" height="24" viewBox="0 0 24 24"><path d="M9 8a2 2 0 1 0 0 4 2 2 0 1 0 0-4M9.5 13h-1A2.5 2.5 0 0 0 6 15.5c0 .28.22.5.5.5h5c.28 0 .5-.22.5-.5A2.5 2.5 0 0 0 9.5 13M17.5 9h-4c-.28 0-.5.22-.5.5s.22.5.5.5h4c.28 0 .5-.22.5-.5s-.22-.5-.5-.5M17.5 11.5h-4c-.28 0-.5.22-.5.5s.22.5.5.5h4c.28 0 .5-.22.5-.5s-.22-.5-.5-.5M17.5 14h-3c-.28 0-.5.22-.5.5s.22.5.5.5h3c.28 0 .5-.22.5-.5s-.22-.5-.5-.5"/><path d="M17.5 5h-11C4.57 5 3 6.57 3 8.5v7C3 17.43 4.57 19 6.5 19h11c1.93 0 3.5-1.57 3.5-3.5v-7C21 6.57 19.43 5 17.5 5M20 15.5a2.5 2.5 0 0 1-2.5 2.5h-11A2.5 2.5 0 0 1 4 15.5v-7A2.5 2.5 0 0 1 6.5 6h11A2.5 2.5 0 0 1 20 8.5z"/></svg>