<svg xmlns="http://www.w3.org/2000/svg" width="24" height="24" viewBox="0 0 24 24"><path d="M19 18.89c0-.28-.22-.5-.5-.5-.51 0-.75-.14-1.04-.32-.34-.21-.77-.46-1.56-.46s-1.22.26-1.56.46c-.3.18-.53.32-1.04.32s-.75-.14-1.04-.32c-.34-.21-.77-.46-1.56-.46s-1.21.26-1.56.46c-.3.18-.53.32-1.04.32s-.75-.14-1.04-.32c-.34-.21-.77-.46-1.56-.46-.28 0-.5.22-.5.5s.22.5.5.5c.51 0 .75.14 1.04.32.34.21.77.46 1.56.46s1.21-.26 1.56-.46c.3-.18.53-.32 1.04-.32s.75.14 1.04.32c.34.21.77.46 1.56.46s1.22-.26 1.56-.46c.3-.18.53-.32 1.04-.32s.75.14 1.04.32c.34.21.77.46 1.56.46.28 0 .5-.22.5-.5M7 11c0 2.76 2.24 5 5 5s5-2.24 5-5V6c0-.28-.22-.5-.5-.5s-.5.22-.5.5v5c0 2.21-1.79 4-4 4s-4-1.79-4-4V6c0-.28-.22-.5-.5-.5S7 5.72 7 6z"/></svg>