<svg xmlns="http://www.w3.org/2000/svg" viewBox="0 0 24 24" width="24" height="24"><path d="m12,8c-1.71,0-3,1.29-3,3s1.29,3,3,3,3-1.29,3-3-1.29-3-3-3Zm0,5c-1.16,0-2-.84-2-2s.84-2,2-2,2,.84,2,2-.84,2-2,2Z"/><path d="m18.3,6.7l-4.5-2.7c-1.11-.67-2.49-.67-3.6,0h0l-4.5,2.7c-1.05.63-1.7,1.78-1.7,3v4.6c0,1.22.65,2.37,1.7,3l4.5,2.7c.56.33,1.18.5,1.8.5s1.25-.17,1.8-.5l4.5-2.7c1.05-.63,1.7-1.78,1.7-3v-4.6c0-1.22-.65-2.37-1.7-3Zm-5.01,12.45c-.79.47-1.78.47-2.57,0l-2.63-1.58s0-.02.01-.02c.13-.19.27-.36.43-.52.16-.16.33-.3.52-.43.18-.12.38-.23.59-.32.21-.09.43-.16.65-.2.23-.05.47-.07.71-.07h2c.24,0,.47.02.71.07.23.05.45.12.66.2.21.09.41.2.6.32.19.12.36.27.52.43.16.16.3.33.43.52,0,0,0,.02.01.02l-2.63,1.58Zm5.71-4.84c0,.87-.46,1.69-1.21,2.14l-1.02.61s-.02-.05-.04-.07c-.16-.24-.35-.46-.55-.67-.2-.2-.43-.39-.67-.55-.24-.16-.49-.3-.76-.42-.27-.11-.55-.2-.85-.26-.3-.06-.6-.09-.91-.09h-2c-.3,0-.61.03-.91.09-.29.06-.58.15-.85.26-.27.11-.53.25-.76.41-.24.16-.46.35-.67.55-.2.2-.39.43-.55.67-.02.02-.02.05-.04.07l-1.02-.61c-.75-.45-1.21-1.27-1.21-2.14v-4.6c0-.87.46-1.69,1.21-2.14l4.5-2.7c.79-.47,1.78-.47,2.57,0l4.5,2.7c.75.45,1.21,1.27,1.21,2.14v4.6Z"/></svg>