<svg xmlns="http://www.w3.org/2000/svg" viewBox="0 0 24 24" width="24" height="24"><path d="m12,3c-4.21,0-7.91,2.98-8.8,7.09-.13.58.02,1.19.4,1.66.39.48.96.75,1.57.75h6.33v6.25c0,1.24,1.01,2.25,2.25,2.25s2.25-1.01,2.25-2.25v-1.25c0-.28-.22-.5-.5-.5s-.5.22-.5.5v1.25c0,.69-.56,1.25-1.25,1.25s-1.25-.56-1.25-1.25v-6.25h6.33c.61,0,1.18-.27,1.57-.75.38-.47.52-1.07.4-1.66-.89-4.11-4.59-7.09-8.8-7.09Zm7.62,8.12c-.19.24-.48.38-.79.38H5.17c-.31,0-.59-.14-.79-.38-.19-.23-.26-.53-.2-.82.79-3.65,4.08-6.3,7.82-6.3s7.03,2.65,7.82,6.3c.06.29-.01.59-.2.82Z"/></svg>