<svg xmlns="http://www.w3.org/2000/svg" viewBox="0 0 24 24" width="24" height="24"><path d="m5,16h1.58c.19,0,.37.05.52.15l5.38,3.31c.16.1.34.15.52.15.17,0,.34-.04.49-.13.32-.18.51-.51.51-.87V5.39c0-.36-.2-.7-.51-.87-.32-.18-.7-.17-1.01.02l-5.38,3.31c-.16.1-.34.15-.52.15h-1.58c-1.1,0-2,.9-2,2v4c0,1.1.9,2,2,2Zm-1-6c0-.55.45-1,1-1h1.58c.37,0,.73-.1,1.05-.3l5.38-3.31v13.21l-5.38-3.31c-.32-.19-.68-.3-1.05-.3h-1.58c-.55,0-1-.45-1-1v-4Z"/><path d="m20.82,10.19c-.06-.29-.13-.58-.22-.86-.09-.28-.19-.56-.3-.83-.11-.27-.24-.53-.38-.79-.14-.26-.29-.5-.45-.74-.16-.24-.33-.47-.52-.7-.18-.22-.38-.43-.58-.64-.2-.2-.42-.4-.64-.58-.22-.18-.45-.36-.69-.52-.24-.16-.49-.31-.74-.45-.24-.13-.55-.04-.68.2-.13.24-.04.55.2.68.23.12.45.26.66.4.21.14.42.3.62.46.2.16.39.33.57.52.18.18.35.37.52.57.16.2.32.4.46.62.14.21.28.43.4.66.12.23.24.46.34.7.1.24.19.48.27.74.08.25.14.51.2.77s.09.52.12.79c.03.27.04.54.04.82s-.01.55-.04.82c-.03.27-.07.53-.12.79s-.12.52-.2.77c-.08.25-.17.5-.27.73-.1.24-.21.47-.34.7-.12.23-.26.45-.4.66-.14.21-.3.42-.46.62-.16.2-.34.39-.52.57-.18.18-.37.35-.57.52-.2.16-.4.32-.62.46-.21.14-.43.28-.66.4-.24.13-.33.44-.2.68.09.17.26.26.44.26.08,0,.16-.02.24-.06.26-.14.5-.29.74-.45.24-.16.47-.33.69-.52.22-.18.44-.38.64-.58.2-.2.4-.42.58-.64.18-.22.36-.45.52-.69.16-.24.31-.49.45-.74.14-.25.27-.52.38-.79.11-.27.22-.54.3-.83.09-.28.16-.57.22-.86s.11-.59.14-.89.05-.61.05-.92-.02-.62-.05-.92c-.03-.3-.08-.6-.14-.89Z"/><path d="m16.9,13.01c-.03.16-.07.32-.12.48-.05.16-.11.31-.17.46-.06.15-.13.29-.21.44-.08.14-.16.28-.25.41-.09.13-.19.26-.29.38-.18.21-.15.53.07.7.09.08.21.11.32.11.14,0,.29-.06.39-.18.12-.15.24-.3.34-.46.11-.16.21-.33.3-.49.09-.17.18-.35.25-.53.08-.18.14-.36.2-.55.06-.19.11-.38.15-.57.04-.2.07-.39.09-.6.02-.2.03-.41.03-.61s-.01-.41-.03-.61c-.02-.2-.05-.4-.09-.59-.04-.19-.09-.39-.15-.58-.06-.19-.13-.37-.2-.55-.08-.18-.16-.36-.25-.53-.09-.17-.19-.33-.3-.49-.11-.16-.22-.31-.35-.46-.18-.21-.49-.24-.7-.07-.21.18-.24.49-.07.7.1.12.2.25.29.38.09.13.17.27.25.41.08.14.15.29.21.44.06.15.12.3.17.46.05.16.09.32.12.48.03.16.06.33.08.5.02.17.03.34.03.51s0,.34-.03.51c-.02.17-.04.33-.08.5Z"/></svg>