<svg xmlns="http://www.w3.org/2000/svg" width="24" height="24" viewBox="0 0 24 24"><path d="M16.5 4.21c-4.3-2.48-9.81-1-12.29 3.29-2.48 4.3-1 9.81 3.29 12.29a8.9 8.9 0 0 0 4.48 1.2c3.11 0 6.14-1.61 7.81-4.5 2.48-4.3 1-9.81-3.29-12.29ZM18.93 16c-2.2 3.82-7.11 5.13-10.93 2.93C4.18 16.72 2.87 11.82 5.07 8c1.48-2.56 4.17-4 6.94-4 1.36 0 2.73.34 3.99 1.07 3.82 2.21 5.13 7.11 2.93 10.93"/><path d="M12 6a1 1 0 1 0 0 2 1 1 0 1 0 0-2M15.5 7.5a1 1 0 1 0 0 2 1 1 0 1 0 0-2M17 11a1 1 0 1 0 0 2 1 1 0 1 0 0-2M12 16a1 1 0 1 0 0 2 1 1 0 1 0 0-2M8.5 14.5a1 1 0 1 0 0 2 1 1 0 1 0 0-2M15.5 14.5a1 1 0 1 0 0 2 1 1 0 1 0 0-2M8.5 7.5a1 1 0 1 0 0 2 1 1 0 1 0 0-2M7 11a1 1 0 1 0 0 2 1 1 0 1 0 0-2"/></svg>