<svg xmlns="http://www.w3.org/2000/svg" viewBox="0 0 24 24" width="24" height="24"><path d="m20.5,10H3.5c-.28,0-.5.22-.5.5s.22.5.5.5h17c.28,0,.5-.22.5-.5s-.22-.5-.5-.5Z"/><path d="m20.5,19H3.5c-.28,0-.5.22-.5.5s.22.5.5.5h17c.28,0,.5-.22.5-.5s-.22-.5-.5-.5Z"/><path d="m14.5,9c.83,0,1.5-.67,1.5-1.5v-2c0-.83-.67-1.5-1.5-1.5h-5c-.83,0-1.5.67-1.5,1.5v2c0,.83.67,1.5,1.5,1.5h5Zm-5.5-1.5v-2c0-.28.22-.5.5-.5h5c.28,0,.5.22.5.5v2c0,.28-.22.5-.5.5h-5c-.28,0-.5-.22-.5-.5Z"/><path d="m17.5,18c.83,0,1.5-.67,1.5-1.5v-2c0-.83-.67-1.5-1.5-1.5H6.5c-.83,0-1.5.67-1.5,1.5v2c0,.83.67,1.5,1.5,1.5h11Zm-11.5-1.5v-2c0-.28.22-.5.5-.5h11c.28,0,.5.22.5.5v2c0,.28-.22.5-.5.5H6.5c-.28,0-.5-.22-.5-.5Z"/></svg>