<svg xmlns="http://www.w3.org/2000/svg" viewBox="0 0 24 24" width="24" height="24"><path d="m20.5,4H3.5c-.28,0-.5.22-.5.5s.22.5.5.5h17c.28,0,.5-.22.5-.5s-.22-.5-.5-.5Z"/><path d="m14.5,14h2c.83,0,1.5-.67,1.5-1.5v-5c0-.83-.67-1.5-1.5-1.5h-2c-.83,0-1.5.67-1.5,1.5v5c0,.83.67,1.5,1.5,1.5Zm-.5-6.5c0-.28.22-.5.5-.5h2c.28,0,.5.22.5.5v5c0,.28-.22.5-.5.5h-2c-.28,0-.5-.22-.5-.5v-5Z"/><path d="m7.5,20h2c.83,0,1.5-.67,1.5-1.5V7.5c0-.83-.67-1.5-1.5-1.5h-2c-.83,0-1.5.67-1.5,1.5v11c0,.83.67,1.5,1.5,1.5Zm-.5-12.5c0-.28.22-.5.5-.5h2c.28,0,.5.22.5.5v11c0,.28-.22.5-.5.5h-2c-.28,0-.5-.22-.5-.5V7.5Z"/></svg>