<svg xmlns="http://www.w3.org/2000/svg" viewBox="0 0 24 24" width="24" height="24"><path d="m18,16c-.37,0-.71.11-1.01.28L7.72,7.01c.18-.3.28-.64.28-1.01,0-1.1-.9-2-2-2s-2,.9-2,2c0,.93.64,1.71,1.5,1.93v8.14c-.86.22-1.5,1-1.5,1.93,0,1.1.9,2,2,2,.93,0,1.71-.64,1.93-1.5h8.14c.22.86,1,1.5,1.93,1.5,1.1,0,2-.9,2-2s-.9-2-2-2ZM5,6c0-.55.45-1,1-1s1,.45,1,1-.45,1-1,1-1-.45-1-1Zm1,13c-.55,0-1-.45-1-1s.45-1,1-1,1,.45,1,1-.45,1-1,1Zm.5-2.93V7.93c.18-.05.35-.12.51-.21l9.27,9.27c-.09.16-.17.33-.21.51H7.93c-.18-.7-.73-1.25-1.43-1.43Zm11.5,2.93c-.55,0-1-.45-1-1s.45-1,1-1,1,.45,1,1-.45,1-1,1Z"/></svg>