<svg xmlns="http://www.w3.org/2000/svg" viewBox="0 0 24 24" width="24" height="24"><path d="m13.5,16.45c-.28,0-.5.22-.5.5v1.65l-5.37-3.31-.77-.28s-.1-.01-.13-.01c-.05,0-.1,0-.15,0h-1.58c-.07,0-.14,0-.2-.02-.07-.01-.13-.03-.19-.06-.06-.03-.12-.06-.17-.09-.05-.04-.1-.08-.15-.12-.04-.04-.08-.09-.12-.15-.04-.05-.07-.11-.09-.17-.03-.06-.05-.12-.06-.19-.01-.06-.02-.13-.02-.2v-4c0-.07,0-.14.02-.2.01-.07.03-.13.06-.19.03-.06.06-.12.09-.17s.08-.1.12-.15c.05-.05.1-.09.15-.12.05-.04.11-.07.17-.09.06-.03.12-.04.18-.06.07-.01.13-.02.2-.02.28,0,.5-.22.5-.5s-.22-.5-.5-.5c-.14,0-.27.01-.4.04-.13.03-.25.07-.37.12-.12.05-.23.11-.34.19-.11.07-.2.15-.29.24-.09.09-.17.19-.25.3s-.13.22-.19.34c-.05.12-.09.24-.12.37-.03.13-.04.27-.04.4v4c0,.14.01.27.04.4.03.13.07.25.12.38.05.12.11.23.18.34.07.11.15.21.24.3.09.09.19.17.3.25.11.07.22.13.34.18.12.05.24.09.38.12.13.03.26.04.4.04l1.86.04.12.04.12.06,5.38,3.31c.08.05.16.08.26.11.08.02.16.03.26.04.08,0,.17-.01.25-.03.08-.02.16-.05.24-.1.07-.04.14-.09.19-.14.06-.06.12-.13.16-.2.05-.08.09-.16.11-.25.02-.09.04-.18.04-.27v-1.65c0-.28-.22-.5-.5-.5Z"/><path d="m19.46,17.03c.16-.24.31-.49.45-.74.14-.25.27-.52.38-.79.11-.27.22-.54.3-.83.09-.28.16-.57.22-.86s.11-.59.14-.89.05-.61.05-.92-.02-.62-.05-.92c-.03-.3-.08-.6-.14-.89s-.13-.58-.22-.86c-.09-.28-.19-.56-.3-.83-.11-.27-.24-.53-.38-.79-.14-.25-.29-.5-.45-.74-.16-.24-.33-.47-.52-.7-.18-.22-.38-.43-.58-.64-.2-.2-.42-.4-.64-.58-.22-.18-.45-.36-.69-.52-.24-.16-.49-.31-.74-.45-.24-.13-.55-.04-.68.2-.13.24-.04.55.2.68.23.12.45.26.66.4.21.14.42.3.62.46.2.16.39.33.57.52.18.18.35.37.52.57.16.2.32.4.46.62.14.21.28.43.4.66.12.23.24.46.34.7.1.24.19.48.27.74.08.25.14.51.2.77s.09.52.12.79c.03.27.04.54.04.82s-.01.55-.04.82c-.03.27-.07.53-.12.79s-.12.52-.2.77c-.08.25-.17.5-.27.73-.1.24-.21.47-.34.7-.12.23-.26.45-.4.66-.14.21-.3.42-.46.62-.06.07-.12.13-.18.2l-1.42-1.42s.04-.03.06-.05c.12-.15.24-.3.34-.46.11-.16.21-.33.3-.49.09-.17.18-.35.25-.53.08-.18.14-.36.2-.55.06-.19.11-.38.15-.57.04-.2.07-.39.09-.6.02-.2.03-.41.03-.61s-.01-.41-.03-.61c-.02-.2-.05-.4-.09-.59-.04-.19-.09-.39-.15-.58-.06-.19-.13-.37-.2-.55-.08-.18-.16-.36-.25-.53-.09-.17-.19-.33-.3-.49-.11-.16-.22-.31-.35-.46-.18-.21-.49-.24-.7-.07-.21.18-.24.49-.07.7.1.12.2.25.29.38.09.13.17.27.25.41.08.14.15.29.21.44.06.15.12.3.17.46.05.16.09.32.12.48.03.16.06.33.08.5.02.17.03.34.03.51s0,.34-.03.51c-.02.17-.04.33-.08.5-.03.16-.07.32-.12.48-.05.16-.11.31-.17.46-.06.15-.13.29-.21.44-.08.14-.16.28-.25.41-.09.13-.18.25-.28.37l-1.87-1.87v-7.9c0-.09-.01-.18-.04-.27-.02-.09-.06-.17-.11-.25-.05-.08-.1-.15-.16-.2-.06-.06-.12-.1-.21-.15-.07-.04-.14-.07-.23-.09-.08-.02-.17-.03-.26-.03h0c-.08,0-.17.01-.26.04-.09.02-.17.06-.25.11l-4.47,2.75L3.85,3.15c-.2-.2-.51-.2-.71,0s-.2.51,0,.71l14.51,14.51s0,0,0,0,0,0,0,0l2.49,2.49c.1.1.23.15.35.15s.26-.05.35-.15c.2-.2.2-.51,0-.71l-2.15-2.15c.08-.09.17-.17.24-.27.18-.22.36-.45.52-.69Zm-6.46-4.74l-4.27-4.27,4.27-2.63v6.9Z"/></svg>