<svg xmlns="http://www.w3.org/2000/svg" width="24" height="24" viewBox="0 0 24 24"><path d="M12 3c-4.96 0-9 4.04-9 9s4.04 9 9 9 9-4.04 9-9-4.04-9-9-9m-1.23 16.9c-.6-.09-1.17-.25-1.72-.46 2.34-1.02 3.19-2.81 3.48-4.23.27-1.3.11-2.48 0-3.02.5-.44 1.92-1.5 3.71-1.55.29 1.39 1.11 7.42-5.48 9.27Zm1.11-8.46c-.63-.22-2.26-.91-3.2-2.44 1.08-.96 5.88-4.66 10.77.1.21.55.37 1.13.46 1.73-3.64-2.7-7.11-.17-8.03.6Zm6.17-4.66c-4.4-2.52-8.45.19-9.81 1.3-.28-.84-.34-1.86-.04-3.11C9.33 4.35 10.63 4 12.01 4a8 8 0 0 1 6.05 2.78ZM7.04 5.74c-.28 2.53.84 4.17 1.92 5.13 1 .88 2.1 1.34 2.61 1.52.13.65.34 2.41-.51 3.99-1.35-.45-6.98-2.75-5.29-9.39.37-.46.8-.88 1.26-1.25ZM4 12c0-.92.16-1.81.45-2.63.02 5.07 4.39 7.22 6.03 7.85-.58.66-1.44 1.23-2.66 1.59C5.53 17.4 4 14.88 4 12m9.47 7.86c2.45-1.42 3.41-3.54 3.76-5.26.33-1.63.18-3.1.05-3.9.86.17 1.78.63 2.7 1.51-.1 3.81-2.88 6.96-6.52 7.64Z"/></svg>