<svg xmlns="http://www.w3.org/2000/svg" viewBox="0 0 24 24" width="24" height="24"><path d="m18.5,8h-1.5v-3.04c0-.49-.24-.96-.65-1.24-.41-.28-.93-.34-1.39-.16l-10.36,3.98c-.96.37-1.6,1.31-1.6,2.33v8.63c0,1.38,1.12,2.5,2.5,2.5h13c1.38,0,2.5-1.12,2.5-2.5v-8c0-1.38-1.12-2.5-2.5-2.5Zm-3.18-3.51c.16-.06.33-.04.46.05.14.09.22.25.22.41v3.04H6.19l9.13-3.51Zm4.68,11.51h-3.5c-.83,0-1.5-.67-1.5-1.5s.67-1.5,1.5-1.5h3.5v3Zm-3.5-4c-1.38,0-2.5,1.12-2.5,2.5s1.12,2.5,2.5,2.5h3.5v1.5c0,.83-.67,1.5-1.5,1.5H5.5c-.83,0-1.5-.67-1.5-1.5v-8.63c0-.32.1-.62.28-.87h14.22c.83,0,1.5.67,1.5,1.5v1.5h-3.5Z"/></svg>