<svg xmlns="http://www.w3.org/2000/svg" width="24" height="24" viewBox="0 0 24 24"><path d="M12 3c-4.96 0-9 4.04-9 9s4.04 9 9 9 9-4.04 9-9-4.04-9-9-9m-2 15v-2.75h4V18c0 1.1-.9 2-2 2s-2-.9-2-2m4.54 1.58c.29-.46.46-1 .46-1.58v-.77c1.48-.86 2.28-2.25 2.67-3.2a.753.753 0 0 0-.7-1.03H7.03c-.53 0-.9.54-.7 1.03.39.95 1.19 2.34 2.67 3.2V18c0 .58.17 1.12.46 1.58C6.29 18.52 4 15.52 4 12c0-4.41 3.59-8 8-8s8 3.59 8 8c0 3.52-2.29 6.52-5.46 7.58"/><path d="M15.5 9c-1.17 0-1.83.68-2.17 1.25-.2.33.05.75.44.75h3.47c.38 0 .63-.42.44-.75-.34-.57-1-1.25-2.17-1.25ZM8.5 8a1.5 1.5 0 1 0 0 3 1.5 1.5 0 1 0 0-3"/></svg>