<svg xmlns="http://www.w3.org/2000/svg" viewBox="0 0 24 24" width="24" height="24"><path d="m15,5.05v-1.05c0-.55-.45-1-1-1h-4c-.55,0-1,.45-1,1v1.05c-1.69.25-3,1.69-3,3.45v7c0,1.76,1.31,3.2,3,3.45v1.05c0,.55.45,1,1,1h4c.55,0,1-.45,1-1v-1.05c1.69-.25,3-1.69,3-3.45v-7c0-1.76-1.31-3.2-3-3.45Zm2,10.45c0,1.38-1.12,2.5-2.5,2.5h-5c-1.38,0-2.5-1.12-2.5-2.5v-7c0-1.38,1.12-2.5,2.5-2.5h5c1.38,0,2.5,1.12,2.5,2.5v7Z"/><path d="m12.5,11.79v-3.29c0-.28-.22-.5-.5-.5s-.5.22-.5.5v3.5c0,.13.05.26.15.35l2.5,2.5c.1.1.23.15.35.15s.26-.05.35-.15c.2-.2.2-.51,0-.71l-2.35-2.35Z"/></svg>