<svg xmlns="http://www.w3.org/2000/svg" viewBox="0 0 24 24" width="24" height="24"><path d="m11.52,16.96l-.03,3.04h-1.97c-.28,0-.5.22-.5.5s.22.5.5.5h2.96s0,0,0,0h2c.28,0,.5-.22.5-.5s-.22-.5-.5-.5h-1.99l.03-3.04c2.94-.22,5.48-2.24,6.27-5.1.23-.83.27-1.77.12-2.8l-.75-5.19c-.07-.49-.5-.86-.99-.86H6.83c-.49,0-.92.37-.99.86l-.75,5.19c-.15,1.04-.11,1.98.12,2.8.8,2.87,3.35,4.9,6.31,5.1Zm6.31-5.37c-.72,2.6-3.12,4.41-5.83,4.41s-5.11-1.81-5.83-4.41c-.05-.17-.09-.35-.11-.54.87.63,1.81.96,2.74.96,1.25,0,2.49-.56,3.56-1.66,1.55-1.6,3.46-1.79,5.12-.51l.52.4c0,.49-.05.94-.17,1.35ZM6.83,4h10.35l.71,4.91c-2.02-1.43-4.39-1.17-6.24.74-1.55,1.6-3.46,1.79-5.12.51l-.51-.39c.01-.19.03-.38.06-.58l.75-5.19Z"/></svg>