<svg xmlns="http://www.w3.org/2000/svg" width="24" height="24" viewBox="0 0 24 24"><path d="M8.5 9a1.5 1.5 0 1 0 0 3 1.5 1.5 0 1 0 0-3M15.5 10c-1.17 0-1.83.68-2.17 1.25-.2.33.05.75.44.75h3.47c.38 0 .63-.42.44-.75-.34-.57-1-1.25-2.17-1.25Z"/><path d="M12 3c-4.96 0-9 4.04-9 9s4.04 9 9 9 9-4.04 9-9-4.04-9-9-9m0 17c-4.41 0-8-3.59-8-8s3.59-8 8-8 8 3.59 8 8-3.59 8-8 8"/><path d="M15.73 14.52c-.16.24-.35.46-.55.67a4.5 4.5 0 0 1-1.43.96c-.27.12-.56.2-.84.26-.59.12-1.22.12-1.82 0-.29-.06-.57-.15-.84-.26-.27-.12-.53-.25-.76-.42-.24-.16-.46-.35-.67-.55-.2-.2-.39-.43-.55-.67a.487.487 0 0 0-.69-.13c-.23.15-.29.47-.13.69.2.29.42.57.67.81s.52.48.81.67c.29.2.6.37.94.51.33.14.68.25 1.03.32.36.07.74.11 1.11.11s.74-.04 1.11-.11a5.3 5.3 0 0 0 1.96-.83c.29-.2.57-.42.81-.67.25-.25.47-.52.67-.81.15-.23.09-.54-.13-.69a.496.496 0 0 0-.69.13Z"/></svg>