<svg xmlns="http://www.w3.org/2000/svg" width="24" height="24" viewBox="0 0 24 24"><path d="M17.5 4h-11C4.57 4 3 5.57 3 7.5v9C3 18.43 4.57 20 6.5 20h2c.28 0 .5-.22.5-.5s-.22-.5-.5-.5h-2A2.5 2.5 0 0 1 4 16.5V10h16v6.5a2.5 2.5 0 0 1-2.5 2.5h-2c-.28 0-.5.22-.5.5s.22.5.5.5h2c1.93 0 3.5-1.57 3.5-3.5v-9C21 5.57 19.43 4 17.5 4M20 9H4V7.5A2.5 2.5 0 0 1 6.5 5h11A2.5 2.5 0 0 1 20 7.5z"/><rect width="2" height="2" x="13" y="6" rx=".5" ry=".5"/><rect width="2" height="2" x="16" y="6" rx=".5" ry=".5"/><path d="M12 13c-.28 0-.5.22-.5.5V17h-1.29c-.45 0-.67.54-.35.85l1.79 1.79c.2.2.51.2.71 0l1.79-1.79c.32-.31.09-.85-.35-.85h-1.29v-3.5c0-.28-.22-.5-.5-.5Z"/></svg>