<svg xmlns="http://www.w3.org/2000/svg" viewBox="0 0 24 24" width="24" height="24"><path d="m15.54,8.46c-.2-.2-.51-.2-.71,0l-2.83,2.83-2.83-2.83c-.2-.2-.51-.2-.71,0s-.2.51,0,.71l2.83,2.83-.44.44-2.39,2.39c-.2.2-.2.51,0,.71.1.1.23.15.35.15s.26-.05.35-.15l2.39-2.39s0,0,0,0l.44-.44.44.44s0,0,0,0l1.19,1.19.8.8s0,0,0,0l.4.4c.1.1.23.15.35.15s.26-.05.35-.15c.2-.2.2-.51,0-.71l-2.39-2.39-.44-.44,2.83-2.83c.2-.2.2-.51,0-.71Z"/><path d="m12,3c-2.4,0-4.66.94-6.36,2.64-1.7,1.7-2.64,3.96-2.64,6.36s.94,4.66,2.64,6.36c1.75,1.75,4.06,2.63,6.36,2.63s4.61-.88,6.36-2.63c1.7-1.7,2.64-3.96,2.64-6.36s-.94-4.66-2.64-6.36c-1.7-1.7-3.96-2.64-6.36-2.64Zm5.66,14.66c-1.51,1.51-3.52,2.34-5.66,2.34s-4.15-.83-5.66-2.34c-1.51-1.51-2.34-3.52-2.34-5.66s.83-4.15,2.34-5.66,3.52-2.34,5.66-2.34,4.15.83,5.66,2.34,2.34,3.52,2.34,5.66-.83,4.15-2.34,5.66Z"/></svg>