<svg xmlns="http://www.w3.org/2000/svg" width="24" height="24" viewBox="0 0 24 24"><g opacity="0.4"><path d="m22.77,6.7l-2.87-4.54c-.46-.73-1.25-1.16-2.11-1.16H6.22c-.86,0-1.65.43-2.11,1.16L1.23,6.7h0c-.15.23-.24.51-.24.8v13c0,1.38,1.12,2.5,2.5,2.5h17c1.38,0,2.5-1.12,2.5-2.5V7.5c0-.3-.09-.57-.24-.8h0Zm-10.77,12.3l-5-5h3.5v-4h3v4h3.5l-5,5ZM5.23,6l1.27-2h11.02l1.27,2H5.23Z"/></g><path d="M17.51 4 6.49 4 5.23 6 18.77 6 17.51 4z"/><path d="M10.5 10 10.5 14 7 14 12 19 17 14 13.5 14 13.5 10 10.5 10z"/></svg>