<svg xmlns="http://www.w3.org/2000/svg" width="24" height="24" viewBox="0 0 24 24"><g opacity="0.4"><path d="m15.25,2.2c-.46-.27-1.03-.27-1.5,0l-6.65,3.8h-1.1c-2.76,0-5,2.24-5,5s2.24,5,5,5h1.1l6.65,3.8c.23.13.49.2.74.2s.52-.07.75-.2c.46-.27.75-.76.75-1.3V3.5c0-.54-.28-1.03-.75-1.3Z"/></g><path d="M19.5 10.25H23V11.75H19.5z"/><path d="M19.42 8.62 20.92 7.62 22.42 6.62 22 6 21.58 5.38 20.08 6.38 18.58 7.38 19 8 19.42 8.62z"/><path d="M19.42 13.38 19 14 18.58 14.62 20.08 15.62 21.58 16.62 22 16 22.42 15.38 20.92 14.38 19.42 13.38z"/><path d="m16,8.18v5.63c1.16-.41,2-1.51,2-2.82s-.84-2.4-2-2.82Z"/><path d="m8.46,21.64l-1.41-5.64h-1.05c-.78,0-1.52-.2-2.18-.52l1.72,6.88,2.91-.73Z"/></svg>