<svg xmlns="http://www.w3.org/2000/svg" width="24" height="24" viewBox="0 0 24 24"><g opacity="0.4"><path d="m21.5,5h-2.5v-1.5c0-1.38-1.12-2.5-2.5-2.5H7.5c-1.38,0-2.5,1.12-2.5,2.5v5.5h-2.5c-1.38,0-2.5,1.12-2.5,2.5v10c0,.83.67,1.5,1.5,1.5h8v-6h5v6h8c.83,0,1.5-.67,1.5-1.5V7.5c0-1.38-1.12-2.5-2.5-2.5ZM5.25,17.25h-2.5v-2.5h2.5v2.5Zm5.5-5h-2.5v-2.5h2.5v2.5Zm0-4.5h-2.5v-2.5h2.5v2.5Zm5,4.5h-2.5v-2.5h2.5v2.5Zm0-4.5h-2.5v-2.5h2.5v2.5Zm5.5,9.5h-2.5v-2.5h2.5v2.5Zm0-5h-2.5v-2.5h2.5v2.5Z"/></g><path d="M13.25 5.25H15.75V7.75H13.25z"/><path d="M18.75 14.75H21.25V17.25H18.75z"/><path d="M13.25 9.75H15.75V12.25H13.25z"/><path d="M8.25 9.75H10.75V12.25H8.25z"/><path d="M2.75 14.75H5.25V17.25H2.75z"/><path d="M8.25 5.25H10.75V7.75H8.25z"/><path d="M18.75 9.75H21.25V12.25H18.75z"/></svg>