<svg xmlns="http://www.w3.org/2000/svg" width="24" height="24" viewBox="0 0 24 24"><g opacity="0.4"><path d="m21.1,5.3c-.44-.8-1.28-1.3-2.2-1.3h-3.96c-.23-1.14-1.24-2-2.45-2H2.5c-1.38,0-2.5,1.12-2.5,2.5v11c0,1.21.86,2.22,2,2.45,0,.02,0,.03,0,.05,0-.86.29-1.72.8-2.4.76-1.01,1.93-1.6,3.2-1.6s2.43.58,3.2,1.6c.52.69.8,1.54.8,2.4h4c0-.86.29-1.72.8-2.4.76-1.01,1.93-1.6,3.2-1.6s2.43.58,3.2,1.6c.52.69.8,1.54.8,2.4,0-.02,0-.03,0-.05,1.14-.23,2-1.24,2-2.45v-4.25c0-.42-.11-.83-.31-1.2l-2.59-4.75Zm-10.1,4.2h-2.5v2.5h-3v-2.5h-2.5v-3h2.5v-2.5h3v2.5h2.5v3Zm4,.5v-3h3.61l1.64,3h-5.25Z"/></g><path d="m6,22c2.21,0,4-1.79,4-4,0-.86-.29-1.72-.8-2.4-.76-1.01-1.93-1.6-3.2-1.6s-2.43.58-3.2,1.6c-.52.69-.8,1.54-.8,2.4,0,2.21,1.79,4,4,4Z"/><path d="m18,22c2.21,0,4-1.79,4-4,0-.86-.29-1.72-.8-2.4-.76-1.01-1.93-1.6-3.2-1.6s-2.43.58-3.2,1.6c-.52.69-.8,1.54-.8,2.4,0,2.21,1.79,4,4,4Z"/><path d="M18.61 7 15 7 15 10 20.25 10 18.61 7z"/><path d="M5.5 12 8.5 12 8.5 9.5 11 9.5 11 6.5 8.5 6.5 8.5 4 5.5 4 5.5 6.5 3 6.5 3 9.5 5.5 9.5 5.5 12z"/></svg>