<svg xmlns="http://www.w3.org/2000/svg" width="24" height="24" viewBox="0 0 24 24"><g opacity="0.4"><path d="M7 15A1.5 1.5 0 1 0 7 18 1.5 1.5 0 1 0 7 15z"/><path d="m20.5,6H3.5c-1.38,0-2.5,1.12-2.5,2.5v1h22v-1c0-1.38-1.12-2.5-2.5-2.5Z"/><path d="M17 15A1.5 1.5 0 1 0 17 18 1.5 1.5 0 1 0 17 15z"/><path d="m1,20.5c0,1.38,1.12,2.5,2.5,2.5h17c1.38,0,2.5-1.12,2.5-2.5v-9.5H1v9.5Zm16-8c2.21,0,4,1.79,4,4s-1.79,4-4,4-4-1.79-4-4,1.79-4,4-4Zm-10,0c2.21,0,4,1.79,4,4s-1.79,4-4,4-4-1.79-4-4,1.79-4,4-4Z"/></g><path d="m7,4h10v2h3v-2.5c0-1.38-1.12-2.5-2.5-2.5H6.5c-1.38,0-2.5,1.12-2.5,2.5v2.5h3v-2Z"/><path d="M1 9.5H23V11H1z"/><path d="m7,20.5c2.21,0,4-1.79,4-4s-1.79-4-4-4-4,1.79-4,4,1.79,4,4,4Zm0-5.5c.83,0,1.5.67,1.5,1.5s-.67,1.5-1.5,1.5-1.5-.67-1.5-1.5.67-1.5,1.5-1.5Z"/><path d="m21,16.5c0-2.21-1.79-4-4-4s-4,1.79-4,4,1.79,4,4,4,4-1.79,4-4Zm-5.5,0c0-.83.67-1.5,1.5-1.5s1.5.67,1.5,1.5-.67,1.5-1.5,1.5-1.5-.67-1.5-1.5Z"/></svg>