<svg xmlns="http://www.w3.org/2000/svg" width="24" height="24" viewBox="0 0 24 24"><g opacity="0.4"><path d="m16.62,2.1L7.36,11.35c.97-.11,1.95.03,2.78.44,1.53.77,2.53,2.14,2.81,3.88.03.16.04.33.05.5l.06.06,8.85-8.84c.71-.71,1.09-1.64,1.09-2.64s-.39-1.94-1.1-2.65c-1.41-1.41-3.87-1.41-5.29,0Z"/></g><path d="m12.95,15.67c-.28-1.73-1.28-3.11-2.81-3.88-1.48-.74-3.46-.63-4.93.28-1.35.83-2.12,2.23-2.12,3.85,0,.33.02.64.05.94.08,1.02.09,1.2-1.31,1.9-.47.24-.79.71-.83,1.24-.04.53.21,1.04.64,1.34,1.11.77,3.07,1.65,5.14,1.65,1.52,0,3.1-.48,4.45-1.82,1.37-1.37,2.04-3.52,1.72-5.5Z"/></svg>