<svg xmlns="http://www.w3.org/2000/svg" width="24" height="24" viewBox="0 0 24 24"><g opacity="0.4"><path d="m1,19.5c0,1.38,1.12,2.5,2.5,2.5h17c1.38,0,2.5-1.12,2.5-2.5v-11.5H1v11.5Zm5-5.25h1.61l2.03-2.93c.15-.21.38-.33.66-.32.26.01.5.16.62.39l2.92,5.42,1.55-2.24c.14-.2.37-.32.62-.32h2v1.5h-1.61l-2.03,2.93c-.14.2-.37.32-.62.32-.01,0-.03,0-.04,0-.26-.01-.5-.16-.62-.39l-2.92-5.42-1.55,2.24c-.14.2-.37.32-.62.32h-2v-1.5Z"/></g><path d="m10.17,13.18l2.92,5.42c.12.23.36.38.62.39.01,0,.03,0,.04,0,.25,0,.48-.12.62-.32l2.03-2.93h1.61v-1.5h-2c-.25,0-.48.12-.62.32l-1.55,2.24-2.92-5.42c-.12-.23-.36-.38-.62-.39-.28-.01-.51.11-.66.32l-2.03,2.93h-1.61v1.5h2c.25,0,.48-.12.62-.32l1.55-2.24Z"/><path d="m20.5,2H3.5c-1.38,0-2.5,1.12-2.5,2.5v3.5h22v-3.5c0-1.38-1.12-2.5-2.5-2.5Z"/></svg>