<svg xmlns="http://www.w3.org/2000/svg" width="24" height="24" viewBox="0 0 24 24"><g opacity="0.4"><path d="M12.5 1A2.5 2.5 0 1 0 12.5 6 2.5 2.5 0 1 0 12.5 1z"/><path d="m16.14,13.3l-2.18-.44,1.26-3.77,6.17-1.65-.77-2.9-13.53,3.61-.15-.61c-.41.29-.9.46-1.43.46-.67,0-1.27-.27-1.72-.69l.52,2.07c.16.65.57,1.2,1.16,1.55.39.23.82.35,1.27.35.22,0,.43-.03.65-.09l2.5-.67-4.28,11.97,2.83,1.01,2.9-8.11,3.67.73-2.38,6.35,2.81,1.05,2.59-6.9c.26-.69.2-1.45-.16-2.09-.36-.64-.97-1.09-1.69-1.24Z"/></g><path d="M5.5 3A2.5 2.5 0 1 0 5.5 8 2.5 2.5 0 1 0 5.5 3z"/></svg>