<svg xmlns="http://www.w3.org/2000/svg" width="24" height="24" viewBox="0 0 24 24"><g opacity="0.4"><path d="m2.8,16.22c0,5.55,4.26,6.77,5.9,6.78h1.3v-3h-1.28c-.69-.02-2.92-.34-2.92-3.78,0-2.01-.64-3.35-1.47-4.22.83-.87,1.47-2.21,1.47-4.22,0-3.44,2.24-3.76,2.9-3.78h1.3V1h-1.3c-1.64,0-5.9,1.23-5.9,6.78,0,2.39-1.28,2.7-1.83,2.72l.03,3c.18,0,1.8.08,1.8,2.72Z"/></g><path d="m21.2,7.78c0-5.55-4.26-6.77-5.9-6.78h-1.3v3h1.28c.69.02,2.92.34,2.92,3.78,0,2.01.64,3.35,1.47,4.22-.83.87-1.47,2.21-1.47,4.22,0,3.44-2.24,3.76-2.9,3.78h-1.3v3h1.3c1.64,0,5.9-1.23,5.9-6.78,0-2.39,1.28-2.7,1.83-2.72l-.03-3c-.18,0-1.8-.08-1.8-2.72Z"/></svg>