<svg xmlns="http://www.w3.org/2000/svg" width="24" height="24" viewBox="0 0 24 24"><g opacity="0.4"><path d="m20,8.38v-2.88c0-.83-.67-1.5-1.5-1.5h-2.88l-2.56-2.56c-.59-.59-1.54-.59-2.12,0l-2.56,2.56h-2.88c-.83,0-1.5.67-1.5,1.5v2.88l-2.56,2.56c-.59.59-.59,1.54,0,2.12l2.56,2.56v2.88c0,.83.67,1.5,1.5,1.5h2.88l2.56,2.56c.29.29.68.44,1.06.44s.77-.15,1.06-.44l2.56-2.56h2.88c.83,0,1.5-.67,1.5-1.5v-2.88l2.56-2.56c.59-.59.59-1.54,0-2.12l-2.56-2.56Zm-8,8.12c-2.48,0-4.5-2.02-4.5-4.5s2.02-4.5,4.5-4.5,4.5,2.02,4.5,4.5-2.02,4.5-4.5,4.5Z"/></g><path d="M12 7.5A4.5 4.5 0 1 0 12 16.5 4.5 4.5 0 1 0 12 7.5z"/></svg>