<svg xmlns="http://www.w3.org/2000/svg" width="24" height="24" viewBox="0 0 24 24"><g opacity="0.4"><path d="m14,10c0-1.1-.9-2-2-2s-2,.9-2,2c0,.74.41,1.38,1.01,1.73l-.76,11.27h3.5l-.76-11.27c.6-.35,1.01-.99,1.01-1.73Z"/></g><path d="m9.58,7.53l-2.12-2.12c-1.23,1.23-1.91,2.86-1.91,4.59,0,1.74.68,3.37,1.91,4.6l2.12-2.12c-.66-.66-1.03-1.54-1.03-2.48,0-.93.37-1.81,1.03-2.47Z"/><path d="m16.55,5.4l-2.12,2.12c.66.66,1.03,1.54,1.03,2.48s-.36,1.81-1.03,2.47l2.12,2.12c1.23-1.23,1.9-2.86,1.9-4.6s-.68-3.37-1.9-4.6Z"/><path d="m6.34,4.34l-2.12-2.12c-2.08,2.08-3.22,4.84-3.22,7.78s1.14,5.7,3.22,7.78l2.12-2.12c-1.51-1.51-2.34-3.52-2.34-5.66s.83-4.15,2.34-5.66Z"/><path d="m17.66,4.34c1.51,1.51,2.34,3.52,2.34,5.66s-.83,4.15-2.34,5.66l2.12,2.12c2.08-2.08,3.22-4.84,3.22-7.78s-1.14-5.7-3.22-7.78l-2.12,2.12Z"/></svg>