<svg xmlns="http://www.w3.org/2000/svg" width="24" height="24" viewBox="0 0 24 24"><g opacity="0.4"><path d="m16.62,2.09L7.36,11.35c.97-.11,1.95.03,2.78.44,1.53.77,2.53,2.15,2.81,3.88.03.16.04.33.05.5l.06.06,8.85-8.85c.71-.71,1.09-1.64,1.09-2.64s-.39-1.94-1.1-2.65c-1.41-1.41-3.87-1.41-5.29,0Z"/></g><path d="m1.47,6.23l2.29,1.02,1.02,2.29c.13.29.41.47.73.47s.6-.18.73-.47l1.02-2.29,2.29-1.02c.29-.13.47-.41.47-.73s-.18-.6-.47-.73l-2.29-1.02-1.02-2.29c-.13-.28-.41-.47-.72-.47h0c-.31,0-.59.18-.72.46l-1.02,2.21-2.31,1.11c-.28.13-.45.42-.45.73,0,.31.19.59.47.71Z"/><path d="m22.63,18.94l-1.78-.79-.79-1.78c-.1-.22-.32-.37-.56-.37h0c-.24,0-.46.14-.56.36l-.79,1.72-1.8.86c-.22.1-.35.33-.35.57,0,.24.15.46.37.56l1.78.79.79,1.78c.1.22.32.37.56.37s.47-.14.56-.37l.79-1.78,1.78-.79c.22-.1.37-.32.37-.56s-.14-.47-.37-.56Z"/><path d="m12.95,15.67c-.28-1.73-1.28-3.11-2.81-3.88-1.48-.74-3.46-.63-4.93.28-1.35.83-2.12,2.23-2.12,3.85,0,.33.02.64.05.94.08,1.02.09,1.2-1.31,1.9-.47.24-.79.71-.83,1.24-.04.53.21,1.04.64,1.34,1.11.77,3.07,1.65,5.14,1.65,1.52,0,3.1-.48,4.45-1.82,1.37-1.37,2.04-3.52,1.73-5.49Z"/></svg>