<svg xmlns="http://www.w3.org/2000/svg" width="24" height="24" viewBox="0 0 24 24"><g opacity="0.4"><path d="m19.5,1h-11c-.67,0-1.3.26-1.77.73-.47.47-.73,1.1-.73,1.77v6.38l.44-.44c.59-.59,1.54-.59,2.12,0l5,5c.43.43.56,1.07.33,1.63-.17.4-.49.7-.89.84v4.59c0,.65-.42,1.2-1,1.41v.09h8.5c.83,0,1.5-.67,1.5-1.5V3.5c0-.67-.26-1.3-.73-1.77-.47-.47-1.1-.73-1.77-.73Zm-6.75,6.75h-2.5v-2.5h2.5v2.5Zm5,4.5h-2.5v-2.5h2.5v2.5Zm0-4.5h-2.5v-2.5h2.5v2.5Z"/></g><path d="m13,21.5v-4.59c.39-.14.72-.44.89-.84.23-.56.1-1.21-.33-1.63l-5-5c-.59-.59-1.54-.59-2.12,0L1.44,14.44c-.43.43-.56,1.07-.33,1.63.17.4.49.7.89.84v4.59c0,.83.67,1.5,1.5,1.5h8c.83,0,1.5-.67,1.5-1.5Zm-4.25-4.25h-2.5v-2.5h2.5v2.5Z"/><path d="M15.25 9.75H17.75V12.25H15.25z"/><path d="M15.25 5.25H17.75V7.75H15.25z"/><path d="M10.25 5.25H12.75V7.75H10.25z"/></svg>