<svg xmlns="http://www.w3.org/2000/svg" width="24" height="24" viewBox="0 0 24 24"><g opacity="0.4"><path d="m20.5,1H5.5c-1.93,0-3.5,1.57-3.5,3.5v14.5c0,2.21,1.79,4,4,4h16v-3H6c-.55,0-1-.45-1-1s.45-1,1-1h14.5c.83,0,1.5-.67,1.5-1.5V2.5c0-.83-.67-1.5-1.5-1.5Zm-4.65,8.71l-3.35,3.29-3.35-3.29c-.87-.86-.87-2.21,0-3.07.87-.86,2.25-.86,3.12,0l.22.22.22-.22c.87-.86,2.25-.86,3.12,0,.87.86.87,2.21,0,3.07Z"/></g><path d="m6,20h14c-.55,0-1-.45-1-1s.45-1,1-1H6c-.55,0-1,.45-1,1s.45,1,1,1Z"/><path d="m12.5,13l3.35-3.29c.87-.86.87-2.21,0-3.07-.87-.86-2.25-.86-3.12,0l-.22.22-.22-.22c-.87-.86-2.25-.86-3.12,0-.87.86-.87,2.21,0,3.07l3.35,3.29Z"/></svg>