<svg xmlns="http://www.w3.org/2000/svg" width="24" height="24" viewBox="0 0 24 24"><g opacity="0.4"><path d="m2.5,10h19c.52,0,.98.27,1.25.67,0-1.62-.82-3.09-2.11-3.93-.35-2.23-2.25-3.93-4.52-3.93-.36,0-.71.04-1.06.13-.83-.76-1.91-1.19-3.05-1.19s-2.22.43-3.05,1.19c-.35-.08-.7-.13-1.06-.13-2.28,0-4.17,1.71-4.52,3.93-1.29.84-2.11,2.31-2.11,3.93.27-.4.73-.67,1.25-.67Z"/></g><path d="m21.5,10H2.5c-.83,0-1.5.67-1.5,1.5,0,3.77,1.89,7.12,5,8.96v1.04c0,.83.67,1.5,1.5,1.5h9c.83,0,1.5-.67,1.5-1.5v-1.04c3.11-1.84,5-5.19,5-8.96,0-.83-.67-1.5-1.5-1.5Z"/></svg>