<svg xmlns="http://www.w3.org/2000/svg" width="24" height="24" viewBox="0 0 24 24"><g opacity="0.4"><path d="m8.25,7.93v1.07h1.5v-1.07c0-1.12-.43-2.18-1.21-2.98-.51-.52-.79-1.21-.79-1.93v-1.02h-1.5v1.02c0,1.12.43,2.18,1.21,2.98.51.52.79,1.21.79,1.93Z"/><path d="m12.25,7.93v1.07h1.5v-1.07c0-1.12-.43-2.18-1.21-2.98-.51-.52-.79-1.21-.79-1.93v-1.02h-1.5v1.02c0,1.12.43,2.18,1.21,2.98.51.52.79,1.21.79,1.93Z"/><path d="m16.25,7.93v1.07h1.5v-1.07c0-1.12-.43-2.18-1.21-2.98-.51-.52-.79-1.21-.79-1.93v-1.02h-1.5v1.02c0,1.12.43,2.18,1.21,2.98.51.52.79,1.21.79,1.93Z"/></g><path d="m21.5,10H2.5c-.83,0-1.5.67-1.5,1.5,0,3.77,1.89,7.12,5,8.96v1.04c0,.83.67,1.5,1.5,1.5h9c.83,0,1.5-.67,1.5-1.5v-1.04c3.11-1.84,5-5.19,5-8.96,0-.83-.67-1.5-1.5-1.5Z"/></svg>