<svg xmlns="http://www.w3.org/2000/svg" width="24" height="24" viewBox="0 0 24 24"><g opacity="0.4"><path d="m12.75,1.04v7.21h7.21c-.36-3.81-3.4-6.86-7.21-7.21Z"/><path d="m4.04,8.25h7.21V1.04c-3.81.36-6.86,3.4-7.21,7.21Z"/><path d="M8.75 16H11.25V20H8.75z"/><path d="M4.75 16H7.25V20H4.75z"/><path d="M12.75 16H15.25V20H12.75z"/><path d="M16.75 16H19.25V20H16.75z"/><path d="M12.75 9.75H20V13H12.75z"/><path d="M4 9.75H11.25V13H4z"/></g><path d="m1,16h2.25v4H1v3h22v-3h-2.25v-4h2.25v-3H1v3Zm15.75,0h2.5v4h-2.5v-4Zm-4,0h2.5v4h-2.5v-4Zm-4,0h2.5v4h-2.5v-4Zm-4,0h2.5v4h-2.5v-4Z"/></svg>