<svg xmlns="http://www.w3.org/2000/svg" width="24" height="24" viewBox="0 0 24 24"><g opacity="0.4"><path d="m10.5,3.14c.49-.08.99-.14,1.5-.14s1.01.05,1.5.14V1h-3v2.14Z"/><path d="m3.16,5.28l1.51,1.51c.58-.82,1.3-1.54,2.12-2.12l-1.51-1.51-2.12,2.12Z"/><path d="m1,10.5v3h2.14c-.08-.49-.14-.99-.14-1.5s.05-1.01.14-1.5H1Z"/><path d="m4.67,17.21l-1.51,1.51,2.12,2.12,1.51-1.51c-.82-.58-1.54-1.3-2.12-2.12Z"/><path d="m10.5,20.86v2.14h3v-2.14c-.49.08-.99.14-1.5.14s-1.01-.05-1.5-.14Z"/><path d="m17.21,19.33l1.51,1.51,2.12-2.12-1.51-1.51c-.58.82-1.3,1.54-2.12,2.12Z"/><path d="m21,12c0,.51-.05,1.01-.14,1.5h2.14v-3h-2.14c.08.49.14.99.14,1.5Z"/><path d="m17.8,13.5c.12-.48.2-.98.2-1.5s-.07-1.02-.2-1.5h-2.18l1.54-1.54c-.52-.87-1.25-1.6-2.12-2.12l-1.54,1.54v-2.18c-.48-.12-.98-.2-1.5-.2s-1.02.07-1.5.2v2.18l-1.54-1.54c-.87.52-1.6,1.25-2.12,2.12l1.54,1.54h-2.18c-.12.48-.2.98-.2,1.5s.07,1.02.2,1.5h2.18l-1.54,1.54c.52.87,1.25,1.6,2.12,2.12l1.54-1.54v2.18c.48.12.98.2,1.5.2s1.02-.07,1.5-.2v-2.18l1.54,1.54c.87-.52,1.6-1.25,2.12-2.12l-1.54-1.54h2.18Zm-3.33.97c-.33.33-.72.56-1.14.74-.42.18-.86.29-1.33.29s-.91-.11-1.33-.29c-.42-.17-.81-.4-1.14-.74-.33-.33-.56-.72-.74-1.14-.18-.42-.29-.86-.29-1.33s.11-.91.29-1.33c.17-.42.4-.81.74-1.14.33-.33.72-.55,1.13-.71.86-.34,1.82-.34,2.68,0,.42.16.81.38,1.13.71.33.33.56.72.74,1.14.18.42.29.86.29,1.33s-.11.91-.29,1.33c-.17.42-.4.81-.74,1.14Z"/><path d="m17.21,4.67c.82.58,1.54,1.3,2.12,2.12l1.51-1.51-2.12-2.12-1.51,1.51Z"/></g><path d="m12,21c4.96,0,9-4.04,9-9S16.96,3,12,3,3,7.04,3,12s4.04,9,9,9Zm0-15c3.31,0,6,2.69,6,6s-2.69,6-6,6-6-2.69-6-6,2.69-6,6-6Z"/><path d="m12,15.5c.93,0,1.81-.36,2.47-1.03.66-.66,1.03-1.54,1.03-2.47s-.36-1.81-1.03-2.47c-1.32-1.32-3.62-1.32-4.95,0-.66.66-1.03,1.54-1.03,2.47s.36,1.81,1.03,2.47c.66.66,1.54,1.03,2.47,1.03Zm-1.41-4.91c.38-.38.88-.59,1.41-.59s1.03.21,1.41.59.59.88.59,1.41-.21,1.03-.59,1.41c-.76.76-2.07.76-2.83,0-.38-.38-.59-.88-.59-1.41s.21-1.03.59-1.41Z"/></svg>