<svg xmlns="http://www.w3.org/2000/svg" width="24" height="24" viewBox="0 0 24 24"><g opacity="0.4"><path d="m21.5,15h-8c-.46,0-.89.21-1.17.56l-2.83,3.54-2.83-3.54c-.28-.36-.71-.56-1.17-.56h-3c-.83,0-1.5.67-1.5,1.5v2c0,2.48,2.02,4.5,4.5,4.5h13c2.48,0,4.5-2.02,4.5-4.5v-2c0-.83-.67-1.5-1.5-1.5Z"/><path d="m12,1C5.93,1,1,4.7,1,9.25v.25c0,.83.67,1.5,1.5,1.5h19c.83,0,1.5-.67,1.5-1.5v-.25c0-4.55-4.93-8.25-11-8.25Zm-.5,7c-.28,0-.5-.22-.5-.5s.22-.5.5-.5.5.22.5.5-.22.5-.5.5Zm3-1c-.83,0-1.5-.67-1.5-1.5s.67-1.5,1.5-1.5,1.5.67,1.5,1.5-.67,1.5-1.5,1.5Zm3.5,2c-.55,0-1-.45-1-1s.45-1,1-1,1,.45,1,1-.45,1-1,1Z"/></g><path d="m21.5,11H2.5c-.83,0-1.5.67-1.5,1.5v1c0,.83.67,1.5,1.5,1.5h3c.46,0,.89.21,1.17.56l2.83,3.54,2.83-3.54c.28-.36.71-.56,1.17-.56h8c.83,0,1.5-.67,1.5-1.5v-1c0-.83-.67-1.5-1.5-1.5Z"/><path d="M18 7A1 1 0 1 0 18 9 1 1 0 1 0 18 7z"/><path d="M14.5 4A1.5 1.5 0 1 0 14.5 7 1.5 1.5 0 1 0 14.5 4z"/><path d="M11.5 7A.5.5 0 1 0 11.5 8 .5.5 0 1 0 11.5 7z"/></svg>