<svg xmlns="http://www.w3.org/2000/svg" width="24" height="24" viewBox="0 0 24 24"><g opacity="0.4"><path d="m21.75,16.67l-6.45-10.02c-1.95.99-3.3,3.01-3.3,5.35,0,3.31,2.69,6,6,6,.33,0,.66-.03.97-.08l.59.88c-.51.12-1.02.2-1.56.2-3.86,0-7-3.14-7-7,0-2.69,1.52-5.02,3.75-6.2h0s-1.29-2-1.29-2l-.02-.03c-1.17-1.72-3.11-2.75-5.18-2.75-3.45,0-6.26,2.81-6.26,6.26,0,2.71,1.76,5.07,4.25,5.91.46,3.31,2.45,7.76,7.67,7.76,2.84,0,4.89-.76,6.14-1.41l1.18,1.78,2.5-1.66-2-3h0ZM6.5,8c-.83,0-1.5-.67-1.5-1.5s.67-1.5,1.5-1.5,1.5.67,1.5,1.5-.67,1.5-1.5,1.5Z"/></g><path d="m2.04,7.75c-.63.55-1.04,1.35-1.04,2.25h1.63c-.34-.69-.54-1.45-.6-2.25Z"/><path d="m12.06,20.75c-1.22-.29-2.2-.87-3-1.62v3.86h3v-2.25Z"/><path d="m17.06,23v-2.36c-.87.19-1.87.32-3,.33v2.03h3Z"/><path d="M6.5 5A1.5 1.5 0 1 0 6.5 8 1.5 1.5 0 1 0 6.5 5z"/><path d="m18,19c.54,0,1.06-.08,1.56-.2l-.59-.88c-.32.05-.64.08-.97.08-3.31,0-6-2.69-6-6,0-2.34,1.34-4.36,3.3-5.35l-.54-.85c-2.23,1.17-3.75,3.51-3.75,6.2,0,3.86,3.14,7,7,7Z"/></svg>