<svg xmlns="http://www.w3.org/2000/svg" width="24" height="24" viewBox="0 0 24 24"><g opacity="0.4"><path d="m17,13.12l-5-3-5,3-4.63-2.78c-.23.85-.37,1.73-.37,2.65v2.78c.53-.48,1.23-.78,2-.78h16c.77,0,1.47.3,2,.78v-2.78c0-.92-.14-1.81-.37-2.65l-4.64,2.78Z"/><path d="m2.89,8.91l4.11,2.47,5-3,5,3,4.12-2.47c-1.17-2.6-3.42-4.61-6.17-5.46.03.18.06.37.06.56,0,1.65-1.35,3-3,3s-3-1.35-3-3c0-.19.02-.38.06-.56-2.75.85-5,2.86-6.17,5.46Z"/></g><path d="M12 1A3 3 0 1 0 12 7 3 3 0 1 0 12 1z"/><rect x="1" y="15" width="22" height="8" rx="3" ry="3"/><path d="m11.99,10.12l5,3,4.64-2.78c-.14-.5-.32-.97-.52-1.43l-4.11,2.46-5-3-5,3-4.11-2.47c-.21.46-.37.95-.51,1.44l4.62,2.77,5-3Z"/></svg>