<svg xmlns="http://www.w3.org/2000/svg" width="24" height="24" viewBox="0 0 24 24"><g opacity="0.4"><path d="m7.95,14.44l.58-.17c1.27-.37,2.3-1.32,2.78-2.55.64-1.66,2.04-2.95,3.76-3.45l.58-.17c1.26-.37,2.3-1.32,2.78-2.55l.77-2-2.54-2.2c-.37-.32-.87-.44-1.35-.32-.47.12-.86.46-1.04.92l-.73,1.9c-.29.75-.93,1.34-1.7,1.56l-.47.14c-1.67.48-3.05,1.74-3.67,3.37-.29.75-.93,1.34-1.7,1.56l-.47.14c-1.67.48-3.04,1.74-3.67,3.37l-.73,1.9c-.23.59-.06,1.26.42,1.67l2.1,1.82.57-1.49c.64-1.67,2.05-2.95,3.76-3.45Z"/><path d="m20.38,4.62l-.57,1.49c-.64,1.67-2.05,2.95-3.76,3.45l-.58.17c-1.27.37-2.3,1.32-2.78,2.55-.64,1.66-2.04,2.95-3.76,3.45l-.58.17c-1.26.37-2.3,1.32-2.78,2.55l-.77,2,2.54,2.2c.28.24.63.37.98.37.12,0,.24-.01.36-.04.47-.12.86-.46,1.04-.92l.73-1.9c.29-.75.93-1.34,1.7-1.56l.47-.14c1.67-.48,3.05-1.74,3.67-3.37.29-.75.93-1.34,1.7-1.56l.47-.14c1.67-.48,3.04-1.74,3.67-3.37l.73-1.9c.23-.59.06-1.26-.42-1.67l-2.1-1.82Z"/></g><path d="m5.59,18.43c.47-1.23,1.51-2.18,2.78-2.55l.58-.17c1.71-.5,3.12-1.79,3.76-3.45.47-1.23,1.51-2.18,2.78-2.55l.58-.17c1.71-.5,3.12-1.79,3.76-3.45l.57-1.49-1.21-1.04-.77,2c-.47,1.23-1.51,2.18-2.78,2.55l-.58.17c-1.71.5-3.12,1.79-3.76,3.45-.47,1.23-1.51,2.18-2.78,2.55l-.58.17c-1.71.5-3.12,1.79-3.76,3.45l-.57,1.49,1.21,1.04.77-2Z"/></svg>