<svg xmlns="http://www.w3.org/2000/svg" width="24" height="24" viewBox="0 0 24 24"><g opacity="0.4"><path d="m16.5,1H7.5C3.92,1,1,3.92,1,7.5c0,.83.67,1.5,1.5,1.5h19c.83,0,1.5-.67,1.5-1.5,0-3.58-2.92-6.5-6.5-6.5Z"/><path d="m21.5,15H2.5c-.83,0-1.5.67-1.5,1.5,0,3.58,2.92,6.5,6.5,6.5h9c3.58,0,6.5-2.92,6.5-6.5,0-.83-.67-1.5-1.5-1.5Z"/></g><path d="m17.51,10.15c-1.64,0-2.48.67-3.22,1.26-.65.52-1.17.94-2.28.94s-1.63-.41-2.28-.94c-.74-.59-1.58-1.26-3.22-1.26s-2.48.67-3.22,1.26c-.65.52-1.17.94-2.28.94v1.5c1.64,0,2.48-.67,3.22-1.26.65-.52,1.17-.94,2.28-.94s1.63.41,2.28.94c.74.59,1.58,1.26,3.22,1.26s2.48-.67,3.22-1.26c.65-.52,1.17-.94,2.28-.94s1.63.41,2.28.94c.74.59,1.58,1.26,3.22,1.26v-1.5c-1.11,0-1.63-.41-2.28-.94-.74-.59-1.58-1.26-3.22-1.26Z"/></svg>