<svg xmlns="http://www.w3.org/2000/svg" width="24" height="24" viewBox="0 0 24 24"><g opacity="0.4"><path d="m17.5,5H6.5c-1.38,0-2.5,1.12-2.5,2.5v14c0,.83.67,1.5,1.5,1.5h13c.83,0,1.5-.67,1.5-1.5V7.5c0-1.38-1.12-2.5-2.5-2.5Zm-6.75,12h-2.5v-2.5h2.5v2.5Zm0-4.75h-2.5v-2.5h2.5v2.5Zm5,4.75h-2.5v-2.5h2.5v2.5Zm0-4.75h-2.5v-2.5h2.5v2.5Z"/></g><path d="M13.25 14.5H15.75V17H13.25z"/><path d="M13.25 9.75H15.75V12.25H13.25z"/><path d="M8.25 14.5H10.75V17H8.25z"/><path d="M8.25 9.75H10.75V12.25H8.25z"/></svg>