<svg xmlns="http://www.w3.org/2000/svg" width="24" height="24" viewBox="0 0 24 24"><g opacity="0.4"><path d="m14.5,1H3.5c-1.38,0-2.5,1.12-2.5,2.5v18c0,.83.67,1.5,1.5,1.5h14.5V3.5c0-1.38-1.12-2.5-2.5-2.5Zm-6.75,16h-2.5v-2.5h2.5v2.5Zm0-4.75h-2.5v-2.5h2.5v2.5Zm0-4.5h-2.5v-2.5h2.5v2.5Zm5,9.25h-2.5v-2.5h2.5v2.5Zm0-4.75h-2.5v-2.5h2.5v2.5Zm0-4.5h-2.5v-2.5h2.5v2.5Z"/></g><path d="M10.25 14.5H12.75V17H10.25z"/><path d="M10.25 5.25H12.75V7.75H10.25z"/><path d="M10.25 9.75H12.75V12.25H10.25z"/><path d="M5.25 5.25H7.75V7.75H5.25z"/><path d="M5.25 14.5H7.75V17H5.25z"/><path d="M5.25 9.75H7.75V12.25H5.25z"/><path d="m20.5,5h-3.5v18h4.5c.83,0,1.5-.67,1.5-1.5V7.5c0-1.38-1.12-2.5-2.5-2.5Zm.5,12h-2.5v-2.5h2.5v2.5Zm0-4.75h-2.5v-2.5h2.5v2.5Z"/></svg>