<svg xmlns="http://www.w3.org/2000/svg" width="24" height="24" viewBox="0 0 24 24"><g opacity="0.4"><path d="m1,8.5v3c0,.28.22.5.5.5h.5v-4h-.5c-.28,0-.5.22-.5.5Z"/><path d="m22.5,8h-.5v4h.5c.28,0,.5-.22.5-.5v-3c0-.28-.22-.5-.5-.5Z"/><path d="m3,20.49v2.01c0,.28.22.5.5.5h3c.28,0,.5-.22.5-.5v-1.5h-2.5c-.56,0-1.08-.2-1.5-.51Z"/><path d="m17,21v1.5c0,.28.22.5.5.5h3c.28,0,.5-.22.5-.5v-2.01c-.42.32-.94.51-1.5.51h-2.5Z"/><path d="M12.75 6H19V12H12.75z"/><path d="M5 6H11.25V12H5z"/></g><path d="m22,5.5c0-2.48-2.02-4.5-4.5-4.5H6.5c-2.48,0-4.5,2.02-4.5,4.5v13c0,1.38,1.12,2.5,2.5,2.5h15c1.38,0,2.5-1.12,2.5-2.5V5.5Zm-15,12.5c-1.1,0-2-.9-2-2s.9-2,2-2,2,.9,2,2-.9,2-2,2Zm4.25-6h-6.25v-6h6.25v6Zm5.75,6c-1.1,0-2-.9-2-2s.9-2,2-2,2,.9,2,2-.9,2-2,2Zm2-6h-6.25v-6h6.25v6Z"/></svg>