<svg xmlns="http://www.w3.org/2000/svg" width="24" height="24" viewBox="0 0 24 24"><g opacity="0.4"><path d="m20.76,4.69l-.07-.23c-.62-1.49-2.06-2.46-3.69-2.46-1.44,0-2.74.79-3.44,2h-3.12c-.7-1.21-2-2-3.44-2-1.62,0-3.07.97-3.69,2.46L1.16,13.67h0c-.11.4-.16.84-.16,1.33,0,3.31,2.69,6,6,6,2.09,0,3.92-1.07,5-2.69,1.08,1.62,2.91,2.69,5,2.69,3.31,0,6-2.69,6-6,0-.54-.08-1.06-.21-1.55l-2.03-8.75Zm-13.76,13.31c-1.65,0-3-1.35-3-3,0-.24.02-.43.08-.64l.03-.1c.33-1.33,1.51-2.26,2.89-2.26.93,0,1.78.42,2.37,1.18h0c.25.32.43.69.54,1.11l.09.79c-.04,1.62-1.37,2.92-3,2.92Zm10,0c-1.65,0-3-1.35-3-3,0-.61.19-1.18.5-1.65l.1-.13s.05-.06.07-.08c.12-.15.26-.29.4-.41.04-.03.07-.06.11-.09.12-.1.26-.18.39-.25.06-.03.11-.07.17-.09.14-.06.28-.11.43-.15.06-.02.12-.04.18-.06.21-.05.42-.07.64-.07.19,0,.38.02.56.06.05.01.1.03.16.04.13.03.26.07.38.12.05.02.1.04.15.07.12.06.23.12.34.19.04.03.09.06.13.09.11.08.21.17.31.26.03.03.07.06.11.1.09.1.17.2.25.31.22.31.4.65.49,1.04l.03.11h0c.04.2.07.42.07.63,0,1.65-1.35,3-3,3Z"/></g><path d="m17,18c1.65,0,3-1.35,3-3,0-.22-.03-.43-.07-.64h0s-.03-.11-.03-.11c-.09-.39-.27-.73-.49-1.04-.08-.11-.16-.21-.25-.31-.03-.03-.07-.06-.11-.1-.1-.09-.2-.18-.31-.26-.04-.03-.09-.06-.13-.09-.11-.07-.22-.13-.34-.19-.05-.02-.1-.05-.15-.07-.12-.05-.25-.09-.38-.12-.05-.01-.1-.03-.16-.04-.18-.03-.37-.06-.56-.06-.22,0-.44.03-.64.07-.06.01-.12.04-.18.06-.15.04-.29.09-.43.15-.06.03-.11.06-.17.09-.14.08-.27.16-.39.25-.04.03-.08.06-.11.09-.14.12-.28.26-.4.41-.02.03-.05.05-.07.08l-.1.13c-.31.47-.5,1.04-.5,1.65,0,1.65,1.35,3,3,3Z"/><path d="m7,18c1.63,0,2.96-1.3,3-2.92l-.09-.79c-.1-.42-.28-.79-.54-1.1h0c-.59-.76-1.44-1.18-2.37-1.18-1.38,0-2.57.93-2.89,2.26l-.03.1c-.06.21-.08.4-.08.64,0,1.65,1.35,3,3,3Z"/></svg>