<svg xmlns="http://www.w3.org/2000/svg" width="24" height="24" viewBox="0 0 24 24"><g opacity="0.4"><path d="m14.5,1H3.5c-1.38,0-2.5,1.12-2.5,2.5v18c0,.83.67,1.5,1.5,1.5h4v-6h5v6h5.5V3.5c0-1.38-1.12-2.5-2.5-2.5Zm-2,8.25h-2.25v2.25h-2.5v-2.25h-2.25v-2.5h2.25v-2.25h2.5v2.25h2.25v2.5Z"/></g><path d="m20.5,5h-3.5v18h4.5c.83,0,1.5-.67,1.5-1.5V7.5c0-1.38-1.12-2.5-2.5-2.5Zm.5,12h-2.5v-2.5h2.5v2.5Zm0-4.75h-2.5v-2.5h2.5v2.5Z"/><path d="M7.75 11.5 10.25 11.5 10.25 9.25 12.5 9.25 12.5 6.75 10.25 6.75 10.25 4.5 7.75 4.5 7.75 6.75 5.5 6.75 5.5 9.25 7.75 9.25 7.75 11.5z"/></svg>