<svg xmlns="http://www.w3.org/2000/svg" width="24" height="24" viewBox="0 0 24 24"><g opacity="0.4"><path d="m12,1c-4.41,0-8,3.59-8,8v6c0,4.41,3.59,8,8,8s8-3.59,8-8v-6c0-4.41-3.59-8-8-8Zm4,15h-8v-3h8v3Zm0-5h-8v-3h8v3Z"/></g><path d="M8 13H16V16H8z"/><path d="M8 8H16V11H8z"/><path d="M2 13.25H4V14.75H2z"/><path d="M2 9.25H4V10.75H2z"/><path d="m6.38,3.32l-1.85-1.85-1.06,1.06,1.94,1.94c.29-.41.61-.8.97-1.16Z"/><path d="M20 13.25H22V14.75H20z"/><path d="M20 9.25H22V10.75H20z"/><path d="m20.53,2.53l-1.06-1.06-1.85,1.85c.36.35.68.74.97,1.16l1.94-1.94Z"/></svg>