<svg xmlns="http://www.w3.org/2000/svg" width="24" height="24" viewBox="0 0 24 24"><g opacity="0.4"><path d="M7.5 18.75H16.5V23H7.5z"/><path d="m16.25,13H7.75c-.14,0-.25.11-.25.25v4h9v-4c0-.14-.11-.25-.25-.25Z"/><path d="m14.5,6h-5c-4.14,0-7.5,3.36-7.5,7.5v7c0,1.38,1.12,2.5,2.5,2.5h1.5v-9.75c0-.96.79-1.75,1.75-1.75h8.5c.96,0,1.75.79,1.75,1.75v9.75h1.5c1.38,0,2.5-1.12,2.5-2.5v-7c0-4.14-3.36-7.5-7.5-7.5Z"/></g><path d="m7.5,18.75h9v4.25h1.5v-9.75c0-.96-.79-1.75-1.75-1.75H7.75c-.96,0-1.75.79-1.75,1.75v9.75h1.5v-4.25Zm0-5.5c0-.14.11-.25.25-.25h8.5c.14,0,.25.11.25.25v4H7.5v-4Z"/><path d="m10,6v-2h4v2h.5c.88,0,1.72.16,2.5.44v-2.44c0-1.65-1.35-3-3-3h-4c-1.65,0-3,1.35-3,3v2.44c.78-.28,1.62-.44,2.5-.44h.5Z"/></svg>