<svg xmlns="http://www.w3.org/2000/svg" width="24" height="24" viewBox="0 0 24 24"><g opacity="0.4"><path d="m20.5,1h-10c-1.38,0-2.5,1.12-2.5,2.5v10c0,1.38,1.12,2.5,2.5,2.5h10c1.38,0,2.5-1.12,2.5-2.5V3.5c0-1.38-1.12-2.5-2.5-2.5Zm-6,11.62l-4.06-4.06,2.12-2.12,1.94,1.94,3.94-3.94,2.12,2.12-6.06,6.06Z"/></g><path d="m3.5,23h10c1.38,0,2.5-1.12,2.5-2.5v-4.5h-5.5c-1.38,0-2.5-1.12-2.5-2.5v-5.5H3.5c-1.38,0-2.5,1.12-2.5,2.5v10c0,1.38,1.12,2.5,2.5,2.5Z"/><path d="M20.56 6.56 18.44 4.44 14.5 8.38 12.56 6.44 10.44 8.56 14.5 12.62 20.56 6.56z"/></svg>