<svg xmlns="http://www.w3.org/2000/svg" width="24" height="24" viewBox="0 0 24 24"><g opacity="0.4"><path d="m20.5,1h-10c-1.38,0-2.5,1.12-2.5,2.5v10c0,1.38,1.12,2.5,2.5,2.5h10c1.38,0,2.5-1.12,2.5-2.5V3.5c0-1.38-1.12-2.5-2.5-2.5Zm-.94,9.44l-2.12,2.12-1.94-1.94-1.94,1.94-2.12-2.12,1.94-1.94-1.94-1.94,2.12-2.12,1.94,1.94,1.94-1.94,2.12,2.12-1.94,1.94,1.94,1.94Z"/></g><path d="m3.5,23h10c1.38,0,2.5-1.12,2.5-2.5v-4.5h-5.5c-1.38,0-2.5-1.12-2.5-2.5v-5.5H3.5c-1.38,0-2.5,1.12-2.5,2.5v10c0,1.38,1.12,2.5,2.5,2.5Z"/><path d="M13.56 12.56 15.5 10.62 17.44 12.56 19.56 10.44 17.62 8.5 19.56 6.56 17.44 4.44 15.5 6.38 13.56 4.44 11.44 6.56 13.38 8.5 11.44 10.44 13.56 12.56z"/></svg>