<svg xmlns="http://www.w3.org/2000/svg" width="24" height="24" viewBox="0 0 24 24"><g opacity="0.4"><path d="m20.5,3H3.5c-1.38,0-2.5,1.12-2.5,2.5v13c0,1.38,1.12,2.5,2.5,2.5h17c1.38,0,2.5-1.12,2.5-2.5V5.5c0-1.38-1.12-2.5-2.5-2.5Zm-9.5,5v2h-3v4h3v3h-3.5c-1.38,0-2.5-1.12-2.5-2.5v-5c0-1.38,1.12-2.5,2.5-2.5h3.5v1Zm8,2h-3v4h3v3h-3.5c-1.38,0-2.5-1.12-2.5-2.5v-5c0-1.38,1.12-2.5,2.5-2.5h3.5v3Z"/></g><path d="m15.5,17h3.5v-3h-3v-4h3v-3h-3.5c-1.38,0-2.5,1.12-2.5,2.5v5c0,1.38,1.12,2.5,2.5,2.5Z"/><path d="m7.5,17h3.5v-3h-3v-4h3v-3h-3.5c-1.38,0-2.5,1.12-2.5,2.5v5c0,1.38,1.12,2.5,2.5,2.5Z"/></svg>