<svg xmlns="http://www.w3.org/2000/svg" width="24" height="24" viewBox="0 0 24 24"><g opacity="0.4"><path d="M12 7A3 3 0 1 0 12 13 3 3 0 1 0 12 7z"/><path d="m18.5,1H5.5c-1.38,0-2.5,1.12-2.5,2.5v13c0,1.38,1.12,2.5,2.5,2.5h13c1.38,0,2.5-1.12,2.5-2.5V3.5c0-1.38-1.12-2.5-2.5-2.5Zm-6.5,15c-3.31,0-6-2.69-6-6s2.69-6,6-6,6,2.69,6,6-2.69,6-6,6Z"/></g><path d="M10.5 19 10.5 20 7 20 7 23 17 23 17 20 13.5 20 13.5 19 10.5 19z"/><path d="m12,16c3.31,0,6-2.69,6-6s-2.69-6-6-6-6,2.69-6,6,2.69,6,6,6Zm0-9c1.65,0,3,1.35,3,3s-1.35,3-3,3-3-1.35-3-3,1.35-3,3-3Z"/></svg>