<svg xmlns="http://www.w3.org/2000/svg" width="24" height="24" viewBox="0 0 24 24"><g opacity="0.4"><path d="m6.87,3.79l-1.78-.89-.89-1.78c-.08-.16-.33-.16-.41,0l-.89,1.78-1.78.89c-.08.04-.13.12-.13.21,0,.09.05.17.13.21l1.77.82.89,1.85c.04.08.12.13.21.13h0c.09,0,.17-.05.21-.13l.82-1.77,1.84-.89c.08-.04.13-.12.13-.21,0-.09-.05-.17-.13-.21Z"/><path d="m18.91,2.86l-1.18-.59-.59-1.19c-.05-.1-.22-.1-.28,0l-.59,1.19-1.18.59c-.05.03-.09.08-.09.14,0,.06.04.11.09.14l1.18.55.59,1.23c.03.05.08.09.14.09h0c.06,0,.11-.04.14-.09l.54-1.18,1.23-.59c.05-.03.09-.08.09-.14,0-.06-.03-.11-.09-.14Z"/><path d="m21.73,4.27l-.59-1.19c-.05-.1-.22-.1-.28,0l-.59,1.19-1.18.59c-.05.03-.09.08-.09.14,0,.06.04.11.09.14l1.18.55.59,1.23c.03.05.08.09.14.09h0c.06,0,.11-.04.14-.09l.54-1.18,1.23-.59c.05-.03.09-.08.09-.14,0-.06-.03-.11-.09-.14l-1.18-.59Z"/></g><path d="m17,20v1.5c0,.83.67,1.5,1.5,1.5h1c.83,0,1.5-.67,1.5-1.5v-2.01c.6-.46,1-1.17,1-1.99v-3c0-1-.59-1.85-1.44-2.25l-1.92-4.69c-.38-.94-1.29-1.55-2.31-1.55H7.67c-1.02,0-1.93.61-2.31,1.55l-1.92,4.69c-.85.4-1.44,1.26-1.44,2.25v3c0,.81.4,1.53,1,1.99v2.01c0,.83.67,1.5,1.5,1.5h1c.83,0,1.5-.67,1.5-1.5v-1.5h10Zm-11-2c-1.1,0-2-.9-2-2s.9-2,2-2,2,.9,2,2-.9,2-2,2Zm10-2c0-1.1.9-2,2-2s2,.9,2,2-.9,2-2,2-2-.9-2-2Zm-7.99-7h7.99l1.23,3H6.78l1.23-3Z"/></svg>