<svg xmlns="http://www.w3.org/2000/svg" width="24" height="24" viewBox="0 0 24 24"><g opacity="0.4"><path d="m20.5,1H3.5c-.83,0-1.5.67-1.5,1.5v12c0,.18.04.34.09.5-.06.16-.09.32-.09.5v6c0,.83.67,1.5,1.5,1.5h17c.83,0,1.5-.67,1.5-1.5v-6c0-.18-.04-.34-.09-.5.06-.16.09-.32.09-.5V2.5c0-.83-.67-1.5-1.5-1.5ZM6.5,20c-.83,0-1.5-.67-1.5-1.5s.67-1.5,1.5-1.5,1.5.67,1.5,1.5-.67,1.5-1.5,1.5Zm12.5-.5h-3v-.5h-4v-1h4v-.5h3v2Zm0-6.5H5V4h14v9Z"/></g><path d="M16 18 12 18 12 19 16 19 16 19.5 19 19.5 19 17.5 16 17.5 16 18z"/><path d="M6.5 17A1.5 1.5 0 1 0 6.5 20 1.5 1.5 0 1 0 6.5 17z"/></svg>