<svg xmlns="http://www.w3.org/2000/svg" width="24" height="24" viewBox="0 0 24 24"><g opacity="0.4"><path d="m9,12c0-1.65,1.35-3,3-3v-3c-3.31,0-6,2.69-6,6s2.69,6,6,6v-3c-1.65,0-3-1.35-3-3Z"/><path d="m15,12c0-1.65-1.35-3-3-3v6c1.65,0,3-1.35,3-3Z"/><path d="m20.5,4h-3.2l-1.55-2.33c-.28-.42-.75-.67-1.25-.67h-2.5v5c3.31,0,6,2.69,6,6s-2.69,6-6,6v3h8.5c1.38,0,2.5-1.12,2.5-2.5V6.5c0-1.38-1.12-2.5-2.5-2.5Z"/></g><path d="m15,12c0,1.65-1.35,3-3,3v3c3.31,0,6-2.69,6-6s-2.69-6-6-6v3c1.65,0,3,1.35,3,3Z"/><path d="m9,12c0,1.65,1.35,3,3,3v-6c-1.65,0-3,1.35-3,3Z"/><path d="m12,18c-3.31,0-6-2.69-6-6s2.69-6,6-6V1h-2.5c-.5,0-.97.25-1.25.67l-1.55,2.33h-3.2c-1.38,0-2.5,1.12-2.5,2.5v12c0,1.38,1.12,2.5,2.5,2.5h8.5v-3Z"/></svg>