<svg xmlns="http://www.w3.org/2000/svg" width="24" height="24" viewBox="0 0 24 24"><g opacity="0.4"><path d="m2,20.5c0,1.38,1.12,2.5,2.5,2.5h15c1.38,0,2.5-1.12,2.5-2.5v-12.5H2v12.5Zm14-9.5h3v3h-3v-3Zm0,5h3v3h-3v-3Zm-5.5-5h3v3h-3v-3Zm0,5h3v3h-3v-3Zm-5.5-5h3v3h-3v-3Zm0,5h3v3h-3v-3Z"/></g><path d="m19.5,3h-1.5V1h-3v2h-6V1h-3v2h-1.5c-1.38,0-2.5,1.12-2.5,2.5v2.5h20v-2.5c0-1.38-1.12-2.5-2.5-2.5Z"/><path d="M5 16H8V19H5z"/><path d="M5 11H8V14H5z"/><path d="M10.5 16H13.5V19H10.5z"/><path d="M16 11H19V14H16z"/><path d="M10.5 11H13.5V14H10.5z"/><path d="M16 16H19V19H16z"/></svg>