<svg xmlns="http://www.w3.org/2000/svg" width="24" height="24" viewBox="0 0 24 24"><g opacity="0.4"><path d="m5.36,3.24l6.64,6.64,6.64-6.64C14.72.27,9.28.27,5.36,3.24Z"/><path d="m14.12,12l6.64,6.64c2.97-3.91,2.97-9.36,0-13.27l-6.64,6.64Z"/><path d="m3.24,5.36C.27,9.28.27,14.72,3.24,18.64l6.64-6.64L3.24,5.36Z"/><path d="m5.36,20.76c3.91,2.97,9.36,2.97,13.27,0l-6.64-6.64-6.64,6.64Z"/></g><path d="m4.22,19.78c.36.36.75.68,1.14.98l6.64-6.64,6.64,6.64c.4-.3.78-.62,1.14-.98s.68-.75.98-1.14l-6.64-6.64,6.64-6.64c-.3-.4-.62-.78-.98-1.14-.36-.36-.75-.68-1.14-.98l-6.64,6.64L5.36,3.24c-.4.3-.78.62-1.14.98-.36.36-.68.75-.98,1.14l6.64,6.64-6.64,6.64c.3.4.62.78.98,1.14Z"/></svg>