<svg xmlns="http://www.w3.org/2000/svg" width="24" height="24" viewBox="0 0 24 24"><g opacity="0.4"><path d="m2.74,9.01c-.48-.08-.96.08-1.29.42-.34.34-.5.82-.42,1.29.53,3.4,2.27,6.19,4.83,8,1.57-.37,3.23-.29,4.75.26-1.68-2.46-2.58-5.18-2.7-7.91-1.48-1.03-3.21-1.76-5.16-2.06Z"/><path d="m21.26,9.01c-1.95.31-3.68,1.03-5.16,2.06-.12,2.74-1.02,5.45-2.7,7.91,1.52-.55,3.18-.63,4.75-.26,2.56-1.81,4.3-4.6,4.83-8,.07-.47-.08-.95-.42-1.29-.34-.34-.81-.49-1.29-.42Z"/></g><path d="m19.92,21.15c.34-.17.56-.52.56-.9s-.22-.73-.56-.9c-2.03-1-4.4-1.13-6.52-.37,3.69-5.39,3.63-12.01-.18-17.36-.56-.79-1.88-.79-2.44,0-3.81,5.35-3.86,11.97-.18,17.36-2.11-.76-4.49-.64-6.52.37-.34.17-.56.52-.56.9s.22.73.56.9c1.16.57,2.42.86,3.69.86,1.19,0,2.38-.26,3.47-.76v1.76h1.5v-1.76c1.1.5,2.28.76,3.47.76,1.27,0,2.54-.29,3.69-.86Z"/></svg>