<svg xmlns="http://www.w3.org/2000/svg" width="24" height="24" viewBox="0 0 24 24"><g opacity="0.4"><path d="M12 10.75A2.25 2.25 0 1 0 12 15.25 2.25 2.25 0 1 0 12 10.75z"/><path d="m20.5,4h-3.2l-1.56-1.56c-.28-.28-.66-.44-1.06-.44h-5.36c-.4,0-.78.16-1.06.44l-1.56,1.56h-3.2c-1.38,0-2.5,1.12-2.5,2.5v13c0,1.38,1.12,2.5,2.5,2.5h17c1.38,0,2.5-1.12,2.5-2.5V6.5c0-1.38-1.12-2.5-2.5-2.5Zm-8.5,14.25c-2.85,0-5.25-2.4-5.25-5.25s2.4-5.25,5.25-5.25,5.25,2.4,5.25,5.25-2.4,5.25-5.25,5.25Zm8-10.25c-.55,0-1-.45-1-1s.45-1,1-1,1,.45,1,1-.45,1-1,1Z"/></g><path d="M20 6A1 1 0 1 0 20 8 1 1 0 1 0 20 6z"/><path d="m12,18.25c2.85,0,5.25-2.4,5.25-5.25s-2.4-5.25-5.25-5.25-5.25,2.4-5.25,5.25,2.4,5.25,5.25,5.25Zm0-7.5c1.2,0,2.25,1.05,2.25,2.25s-1.05,2.25-2.25,2.25-2.25-1.05-2.25-2.25,1.05-2.25,2.25-2.25Z"/></svg>