<svg xmlns="http://www.w3.org/2000/svg" width="24" height="24" viewBox="0 0 24 24"><g opacity="0.4"><path d="M4.25 15.5A3.25 3.25 0 1 0 4.25 22 3.25 3.25 0 1 0 4.25 15.5z"/><path d="M19.75 15.5A3.25 3.25 0 1 0 19.75 22 3.25 3.25 0 1 0 19.75 15.5z"/><path d="M12 1A3.25 3.25 0 1 0 12 7.5 3.25 3.25 0 1 0 12 1z"/></g><path d="M12 15.5A3.25 3.25 0 1 0 12 22 3.25 3.25 0 1 0 12 15.5z"/><path d="M8.12 8.25A3.25 3.25 0 1 0 8.12 14.75 3.25 3.25 0 1 0 8.12 8.25z"/><path d="M15.88 8.25A3.25 3.25 0 1 0 15.88 14.75 3.25 3.25 0 1 0 15.88 8.25z"/></svg>