<svg xmlns="http://www.w3.org/2000/svg" width="24" height="24" viewBox="0 0 24 24"><g opacity="0.4"><path class="st0" d="M4,22h1c0.8,0,1.5-0.7,1.5-1.5V19h-3c-0.4,0-0.7-0.1-1-0.2v1.7C2.5,21.3,3.2,22,4,22z"/><path class="st0" d="M20,22c0.8,0,1.5-0.7,1.5-1.5v-1.7c-0.3,0.1-0.6,0.2-1,0.2h-3v1.5c0,0.8,0.7,1.5,1.5,1.5H20z"/><path class="st0" d="M13.2 5 8.5 11.1 12 11.1 10.8 15 15.5 8.9 12 8.9z"/></g><path d="m21.63,9.27l-1.74-4.93c-.49-1.4-1.82-2.33-3.3-2.33H7.42c-1.48,0-2.81.94-3.3,2.33l-1.74,4.93c-.81.41-1.37,1.26-1.37,2.23v5c0,1.38,1.12,2.5,2.5,2.5h17c1.38,0,2.5-1.12,2.5-2.5v-5c0-.97-.56-1.82-1.37-2.23Zm-17.63,2.66s.02,0,.02-.01l-.02.09v-.08Zm2,4.08c-1.1,0-2-.9-2-2s.9-2,2-2,2,.9,2,2-.9,2-2,2Zm4.83-1l1.17-3.89h-3.5l4.67-6.11-1.17,3.89h3.5l-4.67,6.11Zm7.17,1c-1.1,0-2-.9-2-2s.9-2,2-2,2,.9,2,2-.9,2-2,2Zm2-4l-.02-.09s.02,0,.02.01v.08Z"/></svg>