<svg xmlns="http://www.w3.org/2000/svg" width="24" height="24" viewBox="0 0 24 24"><g opacity="0.4"><path d="m3,18h18c1.1,0,2,.9,2,2v1c0,1.1-.9,2-2,2H3c-1.1,0-2-.9-2-2v-1c0-1.1.9-2,2-2Z"/><path d="M9 6.5A1.5 1.5 0 1 0 9 9.5 1.5 1.5 0 1 0 9 6.5z"/></g><path d="m19.47,6.96c-1.58-2.36-4.28-3.6-8.01-3.69l-1.9-1.94c-.24-.24-.55-.35-.89-.33-.33.03-.63.22-.81.5L1.2,11.7c-.29.45-.24,1.05.14,1.43l2.22,2.27c.37.38.96.44,1.4.14l3.05-2.08h.62l-3.7,4.53h-1.93s0,0,0,0h18s0,0,0,0h-.72c.67-2.51,1.56-7.52-.81-11.04Zm-10.47,2.54c-.83,0-1.5-.67-1.5-1.5s.67-1.5,1.5-1.5,1.5.67,1.5,1.5-.67,1.5-1.5,1.5Z"/></svg>