<svg xmlns="http://www.w3.org/2000/svg" width="24" height="24" viewBox="0 0 24 24"><g opacity="0.4"><path d="m20.57,16.15l.13-1.22.12-1.31c-1.04.86-2.37,1.38-3.82,1.38-3.31,0-6-2.69-6-6h-2c0,4.41,3.59,8,8,8,1.28,0,2.5-.31,3.57-.85Z"/><path d="M14.25 6.5A1.25 1.25 0 1 0 14.25 9 1.25 1.25 0 1 0 14.25 6.5z"/><path d="M19.75 6.5A1.25 1.25 0 1 0 19.75 9 1.25 1.25 0 1 0 19.75 6.5z"/></g><path d="m23,1l-2,2h-8l-2-2v2s0,0,0,0v6c0,3.31,2.69,6,6,6s6-2.69,6-6V3h0V1Zm-8.75,8c-.69,0-1.25-.56-1.25-1.25s.56-1.25,1.25-1.25,1.25.56,1.25,1.25-.56,1.25-1.25,1.25Zm5.5,0c-.69,0-1.25-.56-1.25-1.25s.56-1.25,1.25-1.25,1.25.56,1.25,1.25-.56,1.25-1.25,1.25Z"/><g><path d="m9,9h-4c-.55,0-1-.45-1-1s.45-1,1-1c2.01,0,5-1.2,5-4.5v-1.5h-3v1.5c0,1.36-1.54,1.49-2,1.5-2.21,0-4,1.79-4,4,0,1.51.85,2.81,2.08,3.49l.92,10.15c.07.77.72,1.36,1.49,1.36h3c.83,0,1.5-.67,1.5-1.5v-2.5h4v2.5c0,.83.67,1.5,1.5,1.5h3c.77,0,1.41-.58,1.49-1.34l.58-5.51c-1.08.54-2.29.85-3.57.85-4.41,0-8-3.59-8-8Z"/></g></svg>