<svg xmlns="http://www.w3.org/2000/svg" width="24" height="24" viewBox="0 0 24 24"><g opacity="0.4"><path d="m3,18h18c1.1,0,2,.9,2,2v1c0,1.1-.9,2-2,2H3c-1.1,0-2-.9-2-2v-1c0-1.1.9-2,2-2Z"/></g><path d="m19.7,5.53c-1.82,0-3.3,1.53-3.3,3.4,0,.42.07.82.21,1.21l-.84,1.44-1.12-5.18c.56-.79.77-1.78.56-2.76-.28-1.29-1.31-2.32-2.56-2.57-.99-.2-1.99.06-2.75.71-.76.65-1.2,1.61-1.2,2.63,0,.72.23,1.42.64,2l-1.12,5.18-.84-1.44c.14-.38.21-.79.21-1.21,0-1.88-1.48-3.4-3.3-3.4s-3.3,1.53-3.3,3.4c0,1.2.62,2.29,1.59,2.9l1.09,6.17h-.68s0,0,0,0h18s0,0,0,0h-.68l1.09-6.17c.97-.61,1.59-1.7,1.59-2.9,0-1.88-1.48-3.4-3.3-3.4Z"/></svg>