<svg xmlns="http://www.w3.org/2000/svg" width="24" height="24" viewBox="0 0 24 24"><g opacity="0.4"><path d="m18.8,4.68c-1.08-1.08-2.52-1.68-4.04-1.68-2.24,0-4.29,1.13-5.49,3.02L1.99,17.5c-.82,1.3-.64,2.97.45,4.06.63.63,1.47.96,2.31.96.6,0,1.21-.17,1.75-.51l5.79-3.67-3.31-3.31,1.06-1.06,3.55,3.55,2.37-1.5-4.49-4.49,1.06-1.06,4.73,4.73.72-.46c1.89-1.2,3.02-3.25,3.02-5.49,0-1.53-.59-2.97-1.68-4.04l-.53-.53Z"/></g><path d="M13.58 17.52 10.03 13.97 8.97 15.03 12.28 18.34 13.58 17.52z"/><path d="M17.26 15.2 12.53 10.47 11.47 11.53 15.96 16.02 17.26 15.2z"/><path d="m20.94.94l-2.94,2.94V1h-3v2.02c1.43.06,2.78.63,3.8,1.65l.53.53c1.02,1.02,1.59,2.36,1.65,3.8h2.02v-3h-2.88l2.94-2.94-2.12-2.12Z"/></svg>