<svg xmlns="http://www.w3.org/2000/svg" width="24" height="24" viewBox="0 0 24 24"><g opacity="0.4"><path d="M7.38 17H8.879999999999999V19H7.38z"/><path d="M3.5 17H5V19H3.5z"/><path d="M19 17H20.5V19H19z"/><path d="M7.38 20H8.879999999999999V22H7.38z"/><path d="M11.25 18H12.75V20H11.25z"/><path d="M11.25 21H12.75V23H11.25z"/><path d="M15.12 17H16.619999999999997V19H15.12z"/><path d="M15.12 20H16.619999999999997V22H15.12z"/></g><path d="m20.11,7.25c-.57-3.54-3.49-6.25-6.99-6.25-2.28,0-4.36,1.14-5.68,3.05-3.41-.49-6.43,2.38-6.43,5.95,0,3.31,2.55,6,5.69,6h12.01c2.37,0,4.29-2.02,4.29-4.5,0-1.97-1.21-3.64-2.89-4.25Z"/></svg>