<svg xmlns="http://www.w3.org/2000/svg" width="24" height="24" viewBox="0 0 24 24"><g opacity="0.4"><path d="m20.5,23c1.38,0,2.5-1.12,2.5-2.5v-3h-5.5v5.5h3Z"/><path d="M1 12H6.5V17.5H1z"/><path d="m3.5,1c-1.38,0-2.5,1.12-2.5,2.5v3h5.5V1h-3Z"/><path d="M12 1H17.5V6.5H12z"/><path d="M6.5 17.5H12V23H6.5z"/><path d="M6.5 6.5H12V12H6.5z"/><path d="M12 12H17.5V17.5H12z"/><path d="M17.5 6.5H23V12H17.5z"/></g><path d="M6.5 1H12V6.5H6.5z"/><path d="m20.5,1h-3v5.5h5.5v-3c0-1.38-1.12-2.5-2.5-2.5Z"/><path d="M1 6.5H6.5V12H1z"/><path d="M12 6.5H17.5V12H12z"/><path d="M6.5 12H12V17.5H6.5z"/><path d="M17.5 12H23V17.5H17.5z"/><path d="m1,20.5c0,1.38,1.12,2.5,2.5,2.5h3v-5.5H1v3Z"/><path d="M12 17.5H17.5V23H12z"/></svg>