<svg xmlns="http://www.w3.org/2000/svg" width="24" height="24" viewBox="0 0 24 24"><g opacity="0.4"><path d="m19.5,1H4.5c-1.38,0-2.5,1.12-2.5,2.5v17c0,1.38,1.12,2.5,2.5,2.5h15c1.38,0,2.5-1.12,2.5-2.5V3.5c0-1.38-1.12-2.5-2.5-2.5ZM7,20h-2v-2h2v2Zm0-4h-2v-2h2v2Zm0-4h-2v-2h2v2Zm4,8h-2v-2h2v2Zm0-4h-2v-2h2v2Zm0-4h-2v-2h2v2Zm4,8h-2v-2h2v2Zm0-4h-2v-2h2v2Zm0-4h-2v-2h2v2Zm4,8h-2v-6h2v6Zm0-8h-2v-2h2v2Zm0-4H5v-4h14v4Z"/></g><path d="M5 4H19V8H5z"/><path d="M13 18H15V20H13z"/><path d="M13 10H15V12H13z"/><path d="M17 10H19V12H17z"/><path d="M13 14H15V16H13z"/><path d="M17 14H19V20H17z"/><path d="M5 10H7V12H5z"/><path d="M5 18H7V20H5z"/><path d="M9 18H11V20H9z"/><path d="M9 14H11V16H9z"/><path d="M5 14H7V16H5z"/><path d="M9 10H11V12H9z"/></svg>