<svg xmlns="http://www.w3.org/2000/svg" width="24" height="24" viewBox="0 0 24 24"><g opacity="0.4"><path d="m22.4,10.64c-.37-.28-.83-.37-1.28-.26-.26.07-.48.1-.67.1-1.48,0-2.69-1.19-2.72-2.67,0-.06.01-.12.01-.16.02-.48-.19-.93-.56-1.23-.37-.3-.86-.4-1.32-.28-.27.07-.49.1-.69.1-1.5,0-2.72-1.23-2.72-2.73,0-.19.03-.4.09-.65.12-.47,0-.97-.32-1.34-.32-.37-.8-.56-1.28-.51C5.27,1.55,1,6.27,1,11.98c0,6.08,4.93,11.02,11,11.02s11-4.95,11-11.02c0-.06,0-.12,0-.18,0-.46-.23-.89-.59-1.16Zm-16.4,3.36c-1.1,0-2-.9-2-2s.9-2,2-2,2,.9,2,2-.9,2-2,2Zm1-6.5c0-.83.67-1.5,1.5-1.5s1.5.67,1.5,1.5-.67,1.5-1.5,1.5-1.5-.67-1.5-1.5Zm4,11.5c-1.1,0-2-.9-2-2s.9-2,2-2,2,.9,2,2-.9,2-2,2Zm2-6c-1.1,0-2-.9-2-2s.9-2,2-2,2,.9,2,2-.9,2-2,2Zm3.5,4c-.83,0-1.5-.67-1.5-1.5s.67-1.5,1.5-1.5,1.5.67,1.5,1.5-.67,1.5-1.5,1.5Z"/></g><path d="M15.5 1A1.5 1.5 0 1 0 15.5 4 1.5 1.5 0 1 0 15.5 1z"/><path d="M22 5A1 1 0 1 0 22 7 1 1 0 1 0 22 5z"/><path d="M13 9A2 2 0 1 0 13 13 2 2 0 1 0 13 9z"/><path d="M16.5 14A1.5 1.5 0 1 0 16.5 17 1.5 1.5 0 1 0 16.5 14z"/><path d="M11 15A2 2 0 1 0 11 19 2 2 0 1 0 11 15z"/><path d="M8.5 6A1.5 1.5 0 1 0 8.5 9 1.5 1.5 0 1 0 8.5 6z"/><path d="M6 10A2 2 0 1 0 6 14 2 2 0 1 0 6 10z"/></svg>