<svg xmlns="http://www.w3.org/2000/svg" width="24" height="24" viewBox="0 0 24 24"><g opacity="0.4"><path d="M18 7.98 14.5 9.44 14.5 19.8 18 18.45 18 7.98z"/><path d="m19.5,7.35v10.52l2.54-.98c.58-.22.96-.78.96-1.4V7c0-.36-.14-.69-.36-.96l-3.14,1.31Z"/><path d="m1.74,18.3l6,3.5c.23.14.49.2.76.2.18,0,.36-.03.54-.1l3.96-1.52v-10.31l-3.67,1.54c-.4.17-.85.15-1.24-.04l-7.03-3.43c-.03.12-.06.24-.06.36v8.5c0,.53.28,1.03.74,1.3Z"/></g><path d="m16.26,2.2c-.39-.23-.87-.27-1.29-.1L1.96,7.1c-.46.18-.79.57-.91,1.04l7.03,3.43c.39.19.84.2,1.24.04l13.31-5.57c-.11-.13-.23-.25-.38-.34l-6-3.5Z"/></svg>