<svg xmlns="http://www.w3.org/2000/svg" width="24" height="24" viewBox="0 0 24 24"><g opacity="0.4"><path d="m21.5,5H6.84l-.91-2.94c-.19-.63-.78-1.06-1.43-1.06H1v3h2.39l3.46,11.23c.32,1.06,1.28,1.77,2.39,1.77h8.54c1.08,0,2.03-.69,2.37-1.71l2.77-8.32c.15-.46.08-.96-.21-1.35s-.73-.62-1.22-.62Zm-4.82,7.77l-1.41,1.41-1.77-1.77-1.77,1.77-1.41-1.41,1.77-1.77-1.77-1.77,1.41-1.41,1.77,1.77,1.77-1.77,1.41,1.41-1.77,1.77,1.77,1.77Z"/></g><path d="M8.75 18.5A2.25 2.25 0 1 0 8.75 23 2.25 2.25 0 1 0 8.75 18.5z"/><path d="M17.75 18.5A2.25 2.25 0 1 0 17.75 23 2.25 2.25 0 1 0 17.75 18.5z"/><path d="M11.73 14.18 13.5 12.41 15.27 14.18 16.68 12.77 14.91 11 16.68 9.23 15.27 7.82 13.5 9.59 11.73 7.82 10.32 9.23 12.09 11 10.32 12.77 11.73 14.18z"/></svg>