<svg xmlns="http://www.w3.org/2000/svg" width="24" height="24" viewBox="0 0 24 24"><g opacity="0.4"><path d="m6.5,2.47c-2.54,1.47-4.37,3.84-5.12,6.68-.76,2.84-.37,5.8,1.1,8.35,2.04,3.52,5.74,5.5,9.54,5.5,1.87,0,3.75-.47,5.48-1.47,2.54-1.47,4.37-3.84,5.12-6.68.76-2.84.37-5.8-1.1-8.35C18.49,1.25,11.75-.56,6.5,2.47Zm6,10.39c-.15.09-.33.13-.5.13s-.35-.04-.5-.13c-.31-.18-.5-.51-.5-.87v-6h2v4.27l3.7-2.13,1,1.73-5.2,3Z"/></g><path d="m11.5,12.87c.15.09.33.13.5.13s.35-.04.5-.13l5.2-3-1-1.73-3.7,2.13v-4.27h-2v6c0,.36.19.69.5.87Z"/></svg>