<svg xmlns="http://www.w3.org/2000/svg" width="24" height="24" viewBox="0 0 24 24"><g opacity="0.4"><path d="m18.22,10.18l-5.47-2.98v-2.45h2.25v-1.5h-2.25V1h-1.5v2.25h-2.25v1.5h2.25v2.45l-5.47,2.98c-.48.26-.78.77-.78,1.32v11.5h4v-3c0-1.66,1.34-3,3-3s3,1.34,3,3v3h4v-11.5c0-.55-.3-1.05-.78-1.32Zm-6.22,4.32c-1.1,0-2-.9-2-2s.9-2,2-2,2,.9,2,2-.9,2-2,2Z"/></g><path d="m22.04,13.71l-3.04-1.17v10.46h2.5c.83,0,1.5-.67,1.5-1.5v-6.39c0-.62-.38-1.18-.96-1.4Z"/><path d="m5,20v-7.46l-3.04,1.17c-.58.22-.96.78-.96,1.4v6.39c0,.83.67,1.5,1.5,1.5h2.5v-3Z"/><path d="M12 10.5A2 2 0 1 0 12 14.5 2 2 0 1 0 12 10.5z"/><path d="m15,20c0-1.66-1.34-3-3-3s-3,1.34-3,3v3h6v-3Z"/></svg>