<svg xmlns="http://www.w3.org/2000/svg" width="24" height="24" viewBox="0 0 24 24"><g opacity="0.4"><path d="m3,12.99v1.62c0,1.91,3.7,4.04,9,4.04s9-2.13,9-4.04v-1.62c-1.82,1.6-5.13,2.66-9,2.66s-7.18-1.06-9-2.66Z"/><path d="m3,8.49v1.62c0,1.91,3.7,4.04,9,4.04s9-2.13,9-4.04v-1.62c-1.82,1.6-5.13,2.66-9,2.66s-7.18-1.06-9-2.66Z"/><path d="m3,17.49v.85c0,3.06,4.53,4.67,9,4.67s9-1.6,9-4.67v-.85c-1.82,1.6-5.13,2.66-9,2.66s-7.18-1.06-9-2.66Z"/><path d="m12,9.64c5.28,0,8.96-2.11,9-4.01-.03-3.04-4.54-4.63-9-4.63S3.04,2.59,3,5.63c.03,1.9,3.72,4.01,9,4.01Z"/></g><path d="m3,18.33v.17h.02c0-.05-.02-.11-.02-.17Z"/><path d="m12,18.64c-5.3,0-9-2.13-9-4.04v2.88c1.82,1.6,5.13,2.66,9,2.66s7.18-1.06,9-2.66v-2.88c0,1.91-3.7,4.04-9,4.04Z"/><path d="m21,18.5v-.17c0,.06-.01.11-.02.17h.02Z"/><path d="m12,14.14c-5.3,0-9-2.13-9-4.04v2.88c1.82,1.6,5.13,2.66,9,2.66s7.18-1.06,9-2.66v-2.88c0,1.91-3.7,4.04-9,4.04Z"/><path d="m21,5.63c-.03,1.9-3.72,4.01-9,4.01S3.04,7.54,3,5.63c0-.05.01-.09.01-.13h-.02v2.99c1.82,1.6,5.13,2.66,9,2.66s7.18-1.06,9-2.66v-2.99h-.02s.01.09.01.13Z"/></svg>