<svg xmlns="http://www.w3.org/2000/svg" width="24" height="24" viewBox="0 0 24 24"><g opacity="0.4"><path d="m19.9,9.76c-.6-3.82-3.92-6.76-7.9-6.76-2.84,0-5.42,1.55-6.84,3.9.15,0,.31-.02.46-.02,3.93,0,7.12,3.2,7.12,7.12h-1.5c0-3.1-2.52-5.62-5.62-5.62-.88,0-1.71.21-2.45.57-1.92,1.14-3.17,3.21-3.17,5.56,0,3.58,2.92,6.5,6.5,6.5h11.75c3.17,0,5.75-2.58,5.75-5.75,0-2.58-1.72-4.78-4.1-5.49Z"/></g><path d="m11.25,14h1.5c0-3.93-3.2-7.12-7.12-7.12-.16,0-.31.01-.46.02-.28.46-.52.93-.71,1.44-.46.15-.88.36-1.28.6.74-.36,1.57-.57,2.45-.57,3.1,0,5.62,2.52,5.62,5.62Z"/></svg>