<svg xmlns="http://www.w3.org/2000/svg" width="24" height="24" viewBox="0 0 24 24"><g opacity="0.4"><path d="m19.5,2h-1.5v5H6V2h-1.5c-1.38,0-2.5,1.12-2.5,2.5v16c0,1.38,1.12,2.5,2.5,2.5h15c1.38,0,2.5-1.12,2.5-2.5V4.5c0-1.38-1.12-2.5-2.5-2.5Zm-7.44,16.06c-.29.29-.68.44-1.06.44s-.77-.15-1.06-.44l-4-4,2.12-2.12,2.94,2.94,4.94-4.94,2.12,2.12-6,6Z"/></g><path d="m18,2c0-.55-.45-1-1-1H7c-.55,0-1,.45-1,1v5h12V2Z"/><path d="m11,18.5c.38,0,.77-.15,1.06-.44l6-6-2.12-2.12-4.94,4.94-2.94-2.94-2.12,2.12,4,4c.29.29.68.44,1.06.44Z"/></svg>