<svg xmlns="http://www.w3.org/2000/svg" width="24" height="24" viewBox="0 0 24 24"><g opacity="0.4"><path d="m20.5,4h-3.2l-1.55-2.33c-.28-.42-.75-.67-1.25-.67h-5c-.5,0-.97.25-1.25.67l-1.55,2.33h-3.2c-1.38,0-2.5,1.12-2.5,2.5v12c0,1.38,1.12,2.5,2.5,2.5h17c1.38,0,2.5-1.12,2.5-2.5V6.5c0-1.38-1.12-2.5-2.5-2.5Zm-3.5,9.5h-3.5v3.5h-3v-3.5h-3.5v-3h3.5v-3.5h3v3.5h3.5v3Z"/></g><path d="M10.5 13.5 10.5 16.5 10.5 17 13.5 17 13.5 16.5 13.5 13.5 16.5 13.5 17 13.5 17 10.5 16.5 10.5 13.5 10.5 13.5 7.5 13.5 7 10.5 7 10.5 7.5 10.5 10.5 7.5 10.5 7 10.5 7 13.5 7.5 13.5 10.5 13.5z"/></svg>