<svg xmlns="http://www.w3.org/2000/svg" width="24" height="24" viewBox="0 0 24 24"><g opacity="0.4"><path d="m18,3H6c0,2.76-2.24,5-5,5v8c2.76,0,5,2.24,5,5h12c0-2.76,2.24-5,5-5v-8c-2.76,0-5-2.24-5-5Zm-6,14c-2.76,0-5-2.24-5-5s2.24-5,5-5,5,2.24,5,5-2.24,5-5,5Z"/></g><path d="M12 7A5 5 0 1 0 12 17 5 5 0 1 0 12 7z"/><path d="m21.5,3h-3.5c0,2.76,2.24,5,5,5v-3.5c0-.83-.67-1.5-1.5-1.5Z"/><path d="m18,21h3.5c.83,0,1.5-.67,1.5-1.5v-3.5c-2.76,0-5,2.24-5,5Z"/><path d="m6,3h-3.5c-.83,0-1.5.67-1.5,1.5v3.5c2.76,0,5-2.24,5-5Z"/><path d="m2.5,21h3.5c0-2.76-2.24-5-5-5v3.5c0,.83.67,1.5,1.5,1.5Z"/></svg>