<svg xmlns="http://www.w3.org/2000/svg" width="24" height="24" viewBox="0 0 24 24"><g opacity="0.4"><path d="m3.35,8.94c-.15-.54-.24-1.11-.24-1.69,0-.43.05-.84.13-1.25-.67,0-1.64,0-2.24,0,0,0,0,2.54,2.35,2.94Z"/><path d="M8.5 5A1.5 1.5 0 1 0 8.5 8 1.5 1.5 0 1 0 8.5 5z"/></g><path d="m22.07,9.56c-.56-.23-1.21-.1-1.63.33l-.25.25c-1.52,1.52-3.85,1.85-5.79.84,0,0-.01,0-.02-.01,1.01-1.36,1.44-3.09,1.13-4.83-.44-2.47-2.38-4.48-4.83-4.99-1.88-.39-3.8.07-5.27,1.26-1.47,1.19-2.31,2.96-2.31,4.85,0,1.18.34,2.32.95,3.3-2.08,1.36-3.27,3.78-3.04,6.32.32,3.44,3.38,6.13,6.97,6.13h5.85c5.21,0,9.15-3.65,9.15-8.5v-3.56c0-.61-.37-1.15-.93-1.39Zm-13.57-1.56c-.83,0-1.5-.67-1.5-1.5s.67-1.5,1.5-1.5,1.5.67,1.5,1.5-.67,1.5-1.5,1.5Z"/></svg>