<svg xmlns="http://www.w3.org/2000/svg" width="24" height="24" viewBox="0 0 24 24"><g opacity="0.4"><path d="m19.31,7.69c-.59-.59-1.54-.59-2.12,0l-3.25,3.25c-.59.59-.59,1.54,0,2.12l3.25,3.25c.29.29.68.44,1.06.44s.77-.15,1.06-.44l3.25-3.25c.59-.59.59-1.54,0-2.12l-3.25-3.25Z"/><path d="m10.06,10.94l-3.25-3.25c-.59-.59-1.54-.59-2.12,0l-3.25,3.25c-.59.59-.59,1.54,0,2.12l3.25,3.25c.29.29.68.44,1.06.44s.77-.15,1.06-.44l3.25-3.25c.59-.59.59-1.54,0-2.12Z"/></g><path d="m13.06,1.44c-.59-.59-1.54-.59-2.12,0l-3.25,3.25c-.59.59-.59,1.54,0,2.12l3.25,3.25c.29.29.68.44,1.06.44s.77-.15,1.06-.44l3.25-3.25c.59-.59.59-1.54,0-2.12l-3.25-3.25Z"/><path d="m13.06,13.94c-.59-.59-1.54-.59-2.12,0l-3.25,3.25c-.59.59-.59,1.54,0,2.12l3.25,3.25c.29.29.68.44,1.06.44s.77-.15,1.06-.44l3.25-3.25c.59-.59.59-1.54,0-2.12l-3.25-3.25Z"/></svg>