<svg xmlns="http://www.w3.org/2000/svg" width="24" height="24" viewBox="0 0 24 24"><g opacity="0.4"><path d="m20.67,11.56c-.28-.36-.71-.56-1.17-.56H5.5c-1.38,0-2.5,1.12-2.5,2.5v3c0,1.38,1.12,2.5,2.5,2.5h14c.46,0,.89-.21,1.17-.56l2-2.5c.44-.55.44-1.33,0-1.87l-2-2.5Z"/><path d="m4.5,9h14c1.38,0,2.5-1.12,2.5-2.5v-3c0-1.38-1.12-2.5-2.5-2.5H4.5c-.46,0-.89.21-1.17.56l-2,2.5c-.44.55-.44,1.33,0,1.87l2,2.5c.28.36.71.56,1.17.56Z"/></g><path d="M10.5 19H13.5V23H10.5z"/><path d="M10.5 9H13.5V11H10.5z"/></svg>