<svg xmlns="http://www.w3.org/2000/svg" width="24" height="24" viewBox="0 0 24 24"><g opacity="0.4"><path d="m19.5,1H4.5c-1.38,0-2.5,1.12-2.5,2.5v17c0,1.38,1.12,2.5,2.5,2.5h15c1.38,0,2.5-1.12,2.5-2.5V3.5c0-1.38-1.12-2.5-2.5-2.5Zm-4.5,3c.55,0,1,.45,1,1s-.45,1-1,1-1-.45-1-1,.45-1,1-1Zm-3,16c-3.31,0-6-2.69-6-6s2.69-6,6-6,6,2.69,6,6-2.69,6-6,6Zm6-14c-.55,0-1-.45-1-1s.45-1,1-1,1,.45,1,1-.45,1-1,1Z"/></g><path d="m9.52,16.09c-.45.38-1.07.89-1.07,1.91h1.5c0-.29.13-.42.53-.76.45-.38,1.07-.89,1.07-1.91s-.62-1.53-1.07-1.91c-.4-.33-.53-.47-.53-.76s.13-.42.53-.76c.45-.38,1.07-.89,1.07-1.91h-1.5c0,.29-.13.42-.53.76-.45.38-1.07.89-1.07,1.91s.62,1.53,1.07,1.91c.4.33.53.47.53.76s-.13.42-.53.76Z"/><path d="m13.52,16.09c-.45.38-1.07.89-1.07,1.91h1.5c0-.29.13-.42.53-.76.45-.38,1.07-.89,1.07-1.91s-.62-1.53-1.07-1.91c-.4-.33-.53-.47-.53-.76s.13-.42.53-.76c.45-.38,1.07-.89,1.07-1.91h-1.5c0,.29-.13.42-.53.76-.45.38-1.07.89-1.07,1.91s.62,1.53,1.07,1.91c.4.33.53.47.53.76s-.13.42-.53.76Z"/><path d="M18 4A1 1 0 1 0 18 6 1 1 0 1 0 18 4z"/><path d="M15 4A1 1 0 1 0 15 6 1 1 0 1 0 15 4z"/></svg>