<svg xmlns="http://www.w3.org/2000/svg" width="24" height="24" viewBox="0 0 24 24"><g opacity="0.4"><path d="m19.5,2H4.5c-1.38,0-2.5,1.12-2.5,2.5v15c0,1.38,1.12,2.5,2.5,2.5h15c1.38,0,2.5-1.12,2.5-2.5V4.5c0-1.38-1.12-2.5-2.5-2.5Zm-11.5,15.5c-.83,0-1.5-.67-1.5-1.5s.67-1.5,1.5-1.5,1.5.67,1.5,1.5-.67,1.5-1.5,1.5Zm0-4c-.83,0-1.5-.67-1.5-1.5s.67-1.5,1.5-1.5,1.5.67,1.5,1.5-.67,1.5-1.5,1.5Zm0-4c-.83,0-1.5-.67-1.5-1.5s.67-1.5,1.5-1.5,1.5.67,1.5,1.5-.67,1.5-1.5,1.5Zm8,8c-.83,0-1.5-.67-1.5-1.5s.67-1.5,1.5-1.5,1.5.67,1.5,1.5-.67,1.5-1.5,1.5Zm0-4c-.83,0-1.5-.67-1.5-1.5s.67-1.5,1.5-1.5,1.5.67,1.5,1.5-.67,1.5-1.5,1.5Zm0-4c-.83,0-1.5-.67-1.5-1.5s.67-1.5,1.5-1.5,1.5.67,1.5,1.5-.67,1.5-1.5,1.5Z"/></g><path d="M8 10.5A1.5 1.5 0 1 0 8 13.5 1.5 1.5 0 1 0 8 10.5z"/><path d="M8 14.5A1.5 1.5 0 1 0 8 17.5 1.5 1.5 0 1 0 8 14.5z"/><path d="M16 14.5A1.5 1.5 0 1 0 16 17.5 1.5 1.5 0 1 0 16 14.5z"/><path d="M8 6.5A1.5 1.5 0 1 0 8 9.5 1.5 1.5 0 1 0 8 6.5z"/><path d="M16 10.5A1.5 1.5 0 1 0 16 13.5 1.5 1.5 0 1 0 16 10.5z"/><path d="M16 6.5A1.5 1.5 0 1 0 16 9.5 1.5 1.5 0 1 0 16 6.5z"/></svg>