<svg xmlns="http://www.w3.org/2000/svg" width="24" height="24" viewBox="0 0 24 24"><g opacity="0.4"><path d="m19.17,7.18c-1.33-.59-2.24-1.37-2.71-2.32-1.21-2.42-3.31-3.79-5.91-3.86-3.19-.1-5.95,1.85-6.94,4.81-.37,1.11-.47,2.23-.29,3.34.16,1.01-.43,1.93-.79,2.39-1.27,1.6-1.78,3.61-1.41,5.66.51,2.87,2.88,5.21,5.75,5.69.41.07.82.1,1.22.1,1.78,0,3.49-.66,4.81-1.89.75-.69,1.93-1.53,3.42-1.48,2.14.04,4.12-.91,5.42-2.65,1.65-2.23,1.68-5.37.07-7.63-.68-.95-1.59-1.71-2.64-2.17Zm-8.17,8.82c-2.21,0-4-1.79-4-4s1.79-4,4-4,4,1.79,4,4-1.79,4-4,4Z"/></g><path d="M11 8A4 4 0 1 0 11 16 4 4 0 1 0 11 8z"/></svg>