<svg xmlns="http://www.w3.org/2000/svg" width="24" height="24" viewBox="0 0 24 24"><g opacity="0.4"><path d="m22.39,7.71l-6.69,4.93,7.01,7.01c.18-.35.29-.73.29-1.15V6.5c0,.48-.23.92-.61,1.21Z"/><path d="m12.89,14.71c-.26.19-.58.29-.89.29s-.62-.1-.89-.29l-1.59-1.17-7.17,7.17c.35.18.73.29,1.15.29h17c.42,0,.8-.11,1.15-.29l-7.17-7.17-1.59,1.17Z"/><path d="m1.61,7.71c-.38-.28-.61-.73-.61-1.21v12c0,.42.11.8.29,1.15l7.01-7.01L1.61,7.71Z"/></g><path d="m20.5,3H3.5c-1.38,0-2.5,1.12-2.5,2.5v1c0,.48.23.92.61,1.21l6.69,4.93-7.01,7.01c.24.45.61.82,1.06,1.06l7.17-7.17,1.59,1.17c.26.19.58.29.89.29s.62-.1.89-.29l1.59-1.17,7.17,7.17c.45-.24.82-.61,1.06-1.06l-7.01-7.01,6.69-4.93c.38-.28.61-.73.61-1.21v-1c0-1.38-1.12-2.5-2.5-2.5Z"/></svg>