<svg xmlns="http://www.w3.org/2000/svg" width="24" height="24" viewBox="0 0 24 24"><g opacity="0.4"><path d="m7.82,4.95c-.86.89-1.53,1.93-2.01,3.05h3.39c.23-.34.49-.67.78-.97,1.26-1.31,2.94-2.03,4.72-2.03s3.46.72,4.72,2.03l2.16-2.08c-1.83-1.9-4.28-2.95-6.88-2.95s-5.04,1.05-6.88,2.95Z"/><path d="m8,12c0-.34.03-.67.08-1h-3.03c-.03.33-.05.66-.05,1s.02.67.05,1h3.03c-.04-.33-.08-.66-.08-1Z"/><path d="m14.7,19c-1.78,0-3.46-.72-4.72-2.03-.29-.3-.55-.63-.78-.97h-3.39c.48,1.12,1.15,2.16,2.01,3.05,1.83,1.9,4.28,2.95,6.88,2.95s5.04-1.05,6.88-2.95l-2.16-2.08c-1.26,1.31-2.94,2.03-4.72,2.03Z"/></g><path d="M2 8H13V11H2z"/><path d="M2 13H13V16H2z"/></svg>