<svg xmlns="http://www.w3.org/2000/svg" width="24" height="24" viewBox="0 0 24 24"><g opacity="0.4"><path d="m21.16,5.15c-.51-.25-1.13-.19-1.58.16l-2.08,1.62v-.43c0-.57-.33-1.1-.84-1.35-.51-.25-1.13-.19-1.58.16l-2.08,1.62v-.43c0-.57-.33-1.1-.84-1.35-.51-.25-1.13-.19-1.58.16l-2.08,1.62v-3.43c0-.83-.67-1.5-1.5-1.5h-3.5c-.83,0-1.5.67-1.5,1.5v16c0,.83.67,1.5,1.5,1.5h17c.83,0,1.5-.67,1.5-1.5V6.5c0-.57-.33-1.1-.84-1.35Zm-12.16,11.85h-2v-4h2v4Zm4,0h-2v-4h2v4Zm4,0h-2v-4h2v4Z"/></g><path d="M15 13H17V17H15z"/><path d="M7 13H9V17H7z"/><path d="M11 13H13V17H11z"/></svg>