<svg xmlns="http://www.w3.org/2000/svg" width="24" height="24" viewBox="0 0 24 24"><g opacity="0.4"><path d="m12,10.07c-1.05,0-1.93.89-1.93,1.93s.89,1.93,1.93,1.93,1.93-.89,1.93-1.93-.89-1.93-1.93-1.93Z"/><path d="m20.5,3h-8.88l-1.27-1.27c-.46-.47-1.11-.73-1.77-.73H3.5c-1.38,0-2.5,1.12-2.5,2.5v15c0,1.38,1.12,2.5,2.5,2.5h17c1.38,0,2.5-1.12,2.5-2.5V5.5c0-1.38-1.12-2.5-2.5-2.5Zm-4.55,9c0,.24-.02.48-.07.71l.41.24c.38.22.51.71.29,1.09l-.52.91c-.22.38-.71.51-1.09.29l-.43-.25c-.36.31-.78.55-1.22.71v.48c0,.44-.36.8-.8.8h-1.05c-.44,0-.8-.36-.8-.8v-.48c-.44-.16-.86-.4-1.22-.71l-.43.25c-.38.22-.87.09-1.09-.29l-.52-.91c-.22-.38-.09-.87.29-1.09l.41-.24c-.05-.24-.07-.48-.07-.71s.02-.48.07-.71l-.41-.24c-.38-.22-.51-.71-.29-1.09l.52-.91c.22-.38.71-.51,1.09-.29l.43.25c.36-.31.78-.55,1.22-.71v-.48c0-.44.36-.8.8-.8h1.05c.44,0,.8.36.8.8v.48c.44.16.86.4,1.22.71l.43-.25c.38-.22.87-.09,1.09.29l.52.91c.22.38.09.87-.29,1.09l-.41.24c.05.24.07.47.07.71Z"/></g><path d="m7.41,14.05l.52.91c.22.38.71.51,1.09.29l.43-.25c.36.31.78.55,1.22.71v.48c0,.44.36.8.8.8h1.05c.44,0,.8-.36.8-.8v-.48c.44-.16.86-.4,1.22-.71l.43.25c.38.22.87.09,1.09-.29l.52-.91c.22-.38.09-.87-.29-1.09l-.41-.24c.05-.24.07-.48.07-.71s-.02-.48-.07-.71l.41-.24c.38-.22.51-.71.29-1.09l-.52-.91c-.22-.38-.71-.52-1.09-.29l-.43.25c-.36-.31-.78-.55-1.22-.71v-.48c0-.44-.36-.8-.8-.8h-1.05c-.44,0-.8.36-.8.8v.48c-.44.16-.86.4-1.22.71l-.43-.25c-.38-.22-.87-.09-1.09.29l-.52.91c-.22.38-.09.87.29,1.09l.41.24c-.05.24-.07.47-.07.71s.02.48.07.71l-.41.24c-.38.22-.51.71-.29,1.09Zm4.59-3.98c1.05,0,1.93.89,1.93,1.93s-.89,1.93-1.93,1.93-1.93-.89-1.93-1.93.89-1.93,1.93-1.93Z"/></svg>