<svg xmlns="http://www.w3.org/2000/svg" width="24" height="24" viewBox="0 0 24 24"><g opacity="0.4"><path d="m20.5,3h-8.88l-1.27-1.27c-.46-.47-1.11-.73-1.77-.73H3.5c-1.38,0-2.5,1.12-2.5,2.5v15c0,1.38,1.12,2.5,2.5,2.5h17c1.38,0,2.5-1.12,2.5-2.5V5.5c0-1.38-1.12-2.5-2.5-2.5Zm-4.23,9.27l-4.27,4.23-4.27-4.23c-1.11-1.1-1.11-2.84,0-3.95,1.12-1.1,2.87-1.1,3.98,0l.28.28.28-.28c1.11-1.1,2.87-1.1,3.98,0,1.11,1.1,1.11,2.85,0,3.95Z"/></g><path d="m12,16.5l4.27-4.23c1.11-1.1,1.11-2.84,0-3.95-1.12-1.1-2.87-1.1-3.98,0l-.28.28-.28-.28c-1.11-1.1-2.87-1.1-3.98,0-1.11,1.1-1.11,2.85,0,3.95l4.27,4.23Z"/></svg>