<svg xmlns="http://www.w3.org/2000/svg" width="24" height="24" viewBox="0 0 24 24"><g opacity="0.4"><path d="m13,7.5V1h-7.5c-1.38,0-2.5,1.12-2.5,2.5v17c0,1.38,1.12,2.5,2.5,2.5h13c1.38,0,2.5-1.12,2.5-2.5v-11.5h-6.5c-.83,0-1.5-.67-1.5-1.5Zm2.32,8.21l-3.32,3.29-3.32-3.29c-.86-.86-.86-2.21,0-3.07.87-.86,2.24-.86,3.1,0l.22.22.22-.22c.86-.86,2.23-.86,3.1,0,.86.86.86,2.21,0,3.07Z"/></g><path d="m15.06,1.44c-.28-.28-.66-.44-1.06-.44h-1v6.5c0,.83.67,1.5,1.5,1.5h6.5v-1c0-.4-.16-.78-.44-1.06L15.06,1.44Z"/><path d="m12,19l3.32-3.29c.86-.86.86-2.21,0-3.07-.87-.86-2.23-.86-3.1,0l-.22.22-.22-.22c-.86-.86-2.23-.86-3.1,0-.86.86-.86,2.21,0,3.07l3.32,3.29Z"/></svg>