<svg xmlns="http://www.w3.org/2000/svg" width="24" height="24" viewBox="0 0 24 24"><g opacity="0.4"><path d="M7 10H9V12H7z"/><path d="m13,7.5V1h-3v2h-2v2h2v8h-4v-6h2v-2h-2v-2h2V1h-2.5c-1.38,0-2.5,1.12-2.5,2.5v17c0,1.38,1.12,2.5,2.5,2.5h13c1.38,0,2.5-1.12,2.5-2.5v-11.5h-6.5c-.83,0-1.5-.67-1.5-1.5Z"/></g><path d="m15.06,1.44c-.28-.28-.66-.44-1.06-.44h-1v6.5c0,.83.67,1.5,1.5,1.5h6.5v-1c0-.4-.16-.78-.44-1.06L15.06,1.44Z"/><path d="M6 3H8V5H6z"/><path d="m10,13V5h-2v2h-2v6h4Zm-3-3h2v2h-2v-2Z"/><path d="M8 1H10V3H8z"/></svg>