<svg xmlns="http://www.w3.org/2000/svg" width="24" height="24" viewBox="0 0 24 24"><g opacity="0.4"><path d="m13.81,6.13c-2.04,2.5-5.08,3.96-8.36,3.96-1.42,0-2.79-.29-4.1-.83-.23.88-.36,1.79-.36,2.74,0,1.41.28,2.75.76,3.99,1.32.48,5.3,1.76,10.24,1.76s8.93-1.28,10.24-1.76c.48-1.24.76-2.58.76-3.99,0-.22-.02-.44-.03-.65-3.75-.03-7.22-2.04-9.15-5.22Zm-6.31,8.87c-.83,0-1.5-.67-1.5-1.5s.67-1.5,1.5-1.5,1.5.67,1.5,1.5-.67,1.5-1.5,1.5Zm9,0c-.83,0-1.5-.67-1.5-1.5s.67-1.5,1.5-1.5,1.5.67,1.5,1.5-.67,1.5-1.5,1.5Z"/></g><path d="m12,23c4.66,0,8.64-2.91,10.24-7.01-1.31.48-5.29,1.76-10.24,1.76s-8.92-1.28-10.24-1.76c1.6,4.1,5.58,7.01,10.24,7.01Z"/><path d="M7.5 12A1.5 1.5 0 1 0 7.5 15 1.5 1.5 0 1 0 7.5 12z"/><path d="M16.5 12A1.5 1.5 0 1 0 16.5 15 1.5 1.5 0 1 0 16.5 12z"/><path d="m13.81,6.13c1.93,3.17,5.4,5.18,9.15,5.22-.34-5.76-5.12-10.35-10.97-10.35C6.88,1,2.58,4.52,1.36,9.26c1.3.54,2.68.83,4.1.83,3.28,0,6.32-1.46,8.36-3.96Z"/></svg>