<svg xmlns="http://www.w3.org/2000/svg" width="24" height="24" viewBox="0 0 24 24"><g opacity="0.4"><path d="M11 13.5A1.5 1.5 0 1 0 11 16.5 1.5 1.5 0 1 0 11 13.5z"/><path d="m13,7.5V1h-7.5c-1.38,0-2.5,1.12-2.5,2.5v17c0,1.38,1.12,2.5,2.5,2.5h13c1.38,0,2.5-1.12,2.5-2.5v-11.5h-6.5c-.83,0-1.5-.67-1.5-1.5Zm4.06,11.44l-2.12,2.12-2.01-2.01c-.59.28-1.24.45-1.93.45-2.48,0-4.5-2.02-4.5-4.5s2.02-4.5,4.5-4.5,4.5,2.02,4.5,4.5c0,.69-.17,1.34-.45,1.93l2.01,2.01Z"/></g><path d="m15.06,1.44c-.28-.28-.66-.44-1.06-.44h-1v6.5c0,.83.67,1.5,1.5,1.5h6.5v-1c0-.4-.16-.78-.44-1.06L15.06,1.44Z"/><path d="m11,19.5c.69,0,1.34-.17,1.93-.45l2.01,2.01,2.12-2.12-2.01-2.01c.28-.59.45-1.24.45-1.93,0-2.48-2.02-4.5-4.5-4.5s-4.5,2.02-4.5,4.5,2.02,4.5,4.5,4.5Zm0-6c.83,0,1.5.67,1.5,1.5s-.67,1.5-1.5,1.5-1.5-.67-1.5-1.5.67-1.5,1.5-1.5Z"/></svg>