<svg xmlns="http://www.w3.org/2000/svg" width="24" height="24" viewBox="0 0 24 24"><g opacity="0.4"><path d="m3.84,18.85c.21.1.43.15.66.15.33,0,.66-.11.93-.32l7-5.5c.36-.28.57-.72.57-1.18s-.21-.9-.57-1.18l-7-5.5c-.45-.35-1.07-.42-1.58-.17-.52.25-.84.77-.84,1.35v11c0,.57.33,1.1.84,1.35Z"/></g><path class="st0" d="M10.9,5.1c-0.5,0.2-0.8,0.8-0.8,1.3V9l2.4,1.9c0.4,0.3,0.6,0.7,0.6,1.2s-0.2,0.9-0.6,1.2L10.1,15v2.5
	c0,0.6,0.3,1.1,0.8,1.4c0.2,0.1,0.4,0.1,0.7,0.1c0.3,0,0.7-0.1,0.9-0.3l7-5.5c0.4-0.3,0.6-0.7,0.6-1.2s-0.2-0.9-0.6-1.2l-7-5.5
	C12.1,5,11.4,4.9,10.9,5.1L10.9,5.1z"/></svg>