<svg xmlns="http://www.w3.org/2000/svg" width="24" height="24" viewBox="0 0 24 24"><g opacity="0.4"><path d="m20.5,3h-8.88l-1.27-1.27c-.46-.47-1.11-.73-1.77-.73H3.5c-1.38,0-2.5,1.12-2.5,2.5v15c0,1.38,1.12,2.5,2.5,2.5h17c1.38,0,2.5-1.12,2.5-2.5V5.5c0-1.38-1.12-2.5-2.5-2.5Zm-4.97,14l-3.53-2.35-3.53,2.35,1.18-3.82-2.65-2.65,3.41-.29,1.59-3.24,1.59,3.24,3.41.29-2.65,2.65,1.18,3.82Z"/></g><path d="M8.47 17 12 14.65 15.53 17 14.35 13.18 17 10.53 13.59 10.24 12 7 10.41 10.24 7 10.53 9.65 13.18 8.47 17z"/></svg>