<svg xmlns="http://www.w3.org/2000/svg" width="24" height="24" viewBox="0 0 24 24"><g opacity="0.4"><path d="m19.5,1H4.5c-.83,0-1.5.67-1.5,1.5v19c0,.83.67,1.5,1.5,1.5h15c1.38,0,2.5-1.12,2.5-2.5V3.5c0-1.38-1.12-2.5-2.5-2.5Zm-2,14.39H7.5v-1.11h10v1.11Zm-10-2.22c0-2.57,1.95-4.66,4.44-4.94v-.61h1.11v.61c2.5.28,4.44,2.37,4.44,4.94H7.5Z"/></g><path d="M1 15.5H3V17H1z"/><path d="M1 11.25H3V12.75H1z"/><path d="M1 7H3V8.5H1z"/><path d="M7.5 14.28H17.5V15.389999999999999H7.5z"/><path d="m13.06,8.22v-.61h-1.11v.61c-2.5.28-4.44,2.37-4.44,4.94h10c0-2.57-1.95-4.66-4.44-4.94Z"/></svg>