<svg xmlns="http://www.w3.org/2000/svg" width="24" height="24" viewBox="0 0 24 24"><g opacity="0.4"><path d="m20.5,3h-8.88l-1.27-1.27c-.46-.47-1.11-.73-1.77-.73H3.5c-1.38,0-2.5,1.12-2.5,2.5v15c0,1.38,1.12,2.5,2.5,2.5h17c1.38,0,2.5-1.12,2.5-2.5V5.5c0-1.38-1.12-2.5-2.5-2.5Zm-3.9,11.48l-2.12,2.12-2.47-2.47-2.47,2.47-2.12-2.12,2.47-2.48-2.47-2.48,2.12-2.12,2.47,2.47,2.47-2.47,2.12,2.12-2.47,2.48,2.47,2.48Z"/></g><path d="M9.53 16.6 12 14.12 14.47 16.6 16.6 14.48 14.12 12 16.6 9.52 14.47 7.4 12 9.88 9.53 7.4 7.4 9.52 9.88 12 7.4 14.48 9.53 16.6z"/></svg>