<svg xmlns="http://www.w3.org/2000/svg" width="24" height="24" viewBox="0 0 24 24"><g opacity="0.4"><path d="m13,7.5V1h-7.5c-1.38,0-2.5,1.12-2.5,2.5v17c0,1.38,1.12,2.5,2.5,2.5h13c1.38,0,2.5-1.12,2.5-2.5v-11.5h-6.5c-.83,0-1.5-.67-1.5-1.5Zm3.5,9.5h-3v3h-3v-3h-3v-3h3v-3h3v3h3v3Z"/></g><path d="m15.06,1.44c-.28-.28-.66-.44-1.06-.44h-1v6.5c0,.83.67,1.5,1.5,1.5h6.5v-1c0-.4-.16-.78-.44-1.06L15.06,1.44Z"/><path d="M10.5 20 13.5 20 13.5 17 16.5 17 16.5 14 13.5 14 13.5 11 10.5 11 10.5 14 7.5 14 7.5 17 10.5 17 10.5 20z"/></svg>