<svg xmlns="http://www.w3.org/2000/svg" width="24" height="24" viewBox="0 0 24 24"><g opacity="0.4"><path d="m21.34,2.33c-.41-.28-.94-.33-1.4-.15l-1.54.62c-1.96.8-4.15.64-5.99-.42-2.89-1.67-6.39-1.77-9.37-.26l-.22.11c-.5.26-.82.77-.82,1.34v11.84c0,.52.27,1,.71,1.28.44.27,1,.29,1.46.06l.22-.11c2.07-1.05,4.5-.98,6.51.18,1.53.88,3.22,1.33,4.92,1.33,1.25,0,2.5-.24,3.7-.73l1.54-.62c.57-.23.94-.78.94-1.39V3.57c0-.5-.25-.96-.66-1.24Z"/></g><path d="m5,16.38c-.2.08-.4.16-.6.26l-.22.11c-.47.24-1.02.21-1.46-.06-.44-.27-.71-.76-.71-1.28v7.59h3v-6.62Z"/></svg>