<svg xmlns="http://www.w3.org/2000/svg" width="24" height="24" viewBox="0 0 24 24"><g opacity="0.4"><path d="m12,13.76c-.94,0-1.74.8-1.74,1.74s.8,1.74,1.74,1.74,1.74-.8,1.74-1.74-.8-1.74-1.74-1.74Z"/><path d="m13,7.5V1h-7.5c-1.38,0-2.5,1.12-2.5,2.5v17c0,1.38,1.12,2.5,2.5,2.5h13c1.38,0,2.5-1.12,2.5-2.5v-11.5h-6.5c-.83,0-1.5-.67-1.5-1.5Zm2.66,5.34l.47.82c.2.34.08.79-.26.98l-.37.22c.04.21.06.43.06.64s-.02.43-.06.64l.37.22c.34.2.46.64.26.98l-.47.82c-.2.34-.64.46-.98.26l-.38-.22c-.33.28-.7.5-1.1.64v.44c0,.4-.32.72-.72.72h-.95c-.4,0-.72-.32-.72-.72v-.44c-.4-.14-.77-.36-1.1-.64l-.38.22c-.34.2-.79.08-.98-.26l-.47-.82c-.2-.34-.08-.79.26-.98l.37-.22c-.04-.21-.06-.43-.06-.64s.02-.43.06-.64l-.37-.22c-.34-.2-.46-.64-.26-.98l.47-.82c.2-.34.64-.46.98-.26l.38.22c.33-.28.7-.5,1.1-.64v-.44c0-.4.32-.72.72-.72h.95c.4,0,.72.32.72.72v.44c.4.14.77.36,1.1.64l.38-.22c.34-.2.79-.08.98.26Z"/></g><path d="m15.06,1.44c-.28-.28-.66-.44-1.06-.44h-1v6.5c0,.83.67,1.5,1.5,1.5h6.5v-1c0-.4-.16-.78-.44-1.06L15.06,1.44Z"/><path d="m7.87,17.34l.47.82c.2.34.64.46.98.26l.38-.22c.33.28.7.5,1.1.64v.44c0,.4.32.72.72.72h.95c.4,0,.72-.32.72-.72v-.44c.4-.14.77-.36,1.1-.64l.38.22c.34.2.79.08.98-.26l.47-.82c.2-.34.08-.79-.26-.98l-.37-.22c.04-.21.06-.43.06-.64s-.02-.43-.06-.64l.37-.22c.34-.2.46-.64.26-.98l-.47-.82c-.2-.34-.64-.46-.98-.26l-.38.22c-.33-.28-.7-.5-1.1-.64v-.44c0-.4-.32-.72-.72-.72h-.95c-.4,0-.72.32-.72.72v.44c-.4.14-.77.36-1.1.64l-.38-.22c-.34-.2-.79-.08-.98.26l-.47.82c-.2.34-.08.79.26.98l.37.22c-.04.21-.06.43-.06.64s.02.43.06.64l-.37.22c-.34.2-.46.64-.26.98Zm4.13-3.58c.94,0,1.74.8,1.74,1.74s-.8,1.74-1.74,1.74-1.74-.8-1.74-1.74.8-1.74,1.74-1.74Z"/></svg>