<svg xmlns="http://www.w3.org/2000/svg" width="24" height="24" viewBox="0 0 24 24"><g opacity="0.4"><path d="m13,7.5V1h-7.5c-1.38,0-2.5,1.12-2.5,2.5v17c0,1.38,1.12,2.5,2.5,2.5h13c1.38,0,2.5-1.12,2.5-2.5v-11.5h-6.5c-.83,0-1.5-.67-1.5-1.5Zm-1.94,9.94l-2.12,2.12-4.06-4.06,4.06-4.06,2.12,2.12-1.94,1.94,1.94,1.94Zm8.06-1.94l-4.06,4.06-2.12-2.12,1.94-1.94-1.94-1.94,2.12-2.12,4.06,4.06Z"/></g><path d="m15.06,1.44c-.28-.28-.66-.44-1.06-.44h-1v6.5c0,.83.67,1.5,1.5,1.5h6.5v-1c0-.4-.16-.78-.44-1.06L15.06,1.44Z"/><path d="M15.06 19.56 19.12 15.5 15.06 11.44 12.94 13.56 14.88 15.5 12.94 17.44 15.06 19.56z"/><path d="M11.06 17.44 9.12 15.5 11.06 13.56 8.94 11.44 4.88 15.5 8.94 19.56 11.06 17.44z"/></svg>