<svg xmlns="http://www.w3.org/2000/svg" width="24" height="24" viewBox="0 0 24 24"><g opacity="0.4"><path d="m12,1c-1.93,0-4.07,4.17-4.23,10.25h8.47c-.17-6.08-2.3-10.25-4.23-10.25Z"/><path d="m7.77,12.75c.17,6.08,2.3,10.25,4.23,10.25s4.07-4.17,4.23-10.25H7.77Z"/><path d="m15.18,1.47c1.48,2.06,2.45,5.58,2.55,9.78h5.23c-.31-4.63-3.49-8.48-7.78-9.78Z"/><path d="m1.04,11.25h5.23c.1-4.2,1.07-7.72,2.55-9.78C4.53,2.77,1.35,6.62,1.04,11.25Z"/><path d="m15.18,22.53c4.29-1.3,7.47-5.15,7.78-9.78h-5.23c-.1,4.2-1.07,7.72-2.55,9.78Z"/><path d="m1.04,12.75c.31,4.63,3.49,8.48,7.78,9.78-1.48-2.06-2.45-5.58-2.55-9.78H1.04Z"/></g><path d="m17.73,11.25c-.1-4.19-1.07-7.71-2.55-9.78-1.01-.31-2.08-.47-3.18-.47,1.93,0,4.07,4.17,4.23,10.25H7.77c.17-6.08,2.3-10.25,4.23-10.25-1.11,0-2.17.17-3.18.47-1.48,2.06-2.45,5.58-2.55,9.78H1.04c-.02.25-.04.5-.04.75s.02.5.04.75h5.23c.1,4.19,1.07,7.71,2.55,9.78,1.01.31,2.08.47,3.18.47-1.93,0-4.07-4.17-4.23-10.25h8.47c-.17,6.08-2.3,10.25-4.23,10.25,1.11,0,2.17-.17,3.18-.47,1.48-2.06,2.45-5.58,2.55-9.78h5.23c.02-.25.04-.5.04-.75s-.02-.5-.04-.75h-5.23Z"/></svg>