<svg xmlns="http://www.w3.org/2000/svg" width="24" height="24" viewBox="0 0 24 24"><g opacity="0.4"><path d="m12,1C6.49,1,2,5.46,2,10.94v8.44h.05c.26,2.03,1.99,3.61,4.1,3.61,1.21,0,2.17-.39,2.88-1.08.81.67,1.83,1.08,2.96,1.08s2.17-.42,2.98-1.1c.71.7,1.68,1.1,2.86,1.1,2.29,0,4.16-1.86,4.16-4.14v-7.92c0-5.48-4.49-9.94-10-9.94Zm-4,11c-1.1,0-2-.9-2-2s.9-2,2-2,2,.9,2,2-.9,2-2,2Zm8,0c-1.1,0-2-.9-2-2s.9-2,2-2,2,.9,2,2-.9,2-2,2Z"/></g><path d="M16 8A2 2 0 1 0 16 12 2 2 0 1 0 16 8z"/><path d="M8 8A2 2 0 1 0 8 12 2 2 0 1 0 8 8z"/></svg>