<svg xmlns="http://www.w3.org/2000/svg" width="24" height="24" viewBox="0 0 24 24"><g opacity="0.4"><path d="M11 5.29 11 1.34 3.99 5.29 7.5 7.2 11 5.29z"/><path d="M6.5 8.93 3 7.03 3 16.97 6.5 15.07 6.5 8.93z"/><path d="M20.01 5.29 13 1.34 13 5.29 16.5 7.2 20.01 5.29z"/><path d="M3.99 18.71 11 22.66 11 18.71 7.5 16.8 3.99 18.71z"/><path d="M17.5 15.07 21 16.97 21 7.03 17.5 8.93 17.5 15.07z"/><path d="M13 18.71 13 22.66 20.01 18.71 16.5 16.8 13 18.71z"/><path d="M15.5 8.93 12 7.03 8.5 8.93 8.5 15.07 12 16.97 15.5 15.07 15.5 8.93z"/></g><path d="m20.24,5.42l-.23-.13-3.51,1.91-3.5-1.9V1.34l-.26-.15c-.46-.26-1.02-.26-1.47,0l-.26.15v3.95l-3.5,1.9-3.51-1.91-.23.13c-.47.27-.76.77-.76,1.31v.3l3.5,1.9v6.14l-3.5,1.9v.3c0,.54.29,1.04.76,1.31l.23.13,3.51-1.91,3.5,1.9v3.95l.26.15c.23.13.48.19.74.19s.51-.06.74-.19l.26-.15v-3.95l3.5-1.9,3.51,1.91.23-.13c.47-.27.76-.77.76-1.31v-.3l-3.5-1.9v-6.14l3.5-1.9v-.3c0-.54-.29-1.04-.76-1.31Zm-4.74,9.66l-3.5,1.9-3.5-1.9v-6.14l3.5-1.9,3.5,1.9v6.14Z"/></svg>