<svg xmlns="http://www.w3.org/2000/svg" width="24" height="24" viewBox="0 0 24 24"><g opacity="0.4"><path d="m21.45,6.68c-.26.31-.8.69-1.2.85-.41.16-1.45-.34-2.32-1.12-.87-.77-1.65-1.37-1.72-1.32-.07.05.38.87,1,1.83.63.96,1.61,1.73,2.19,1.7.58-.02.93.39.78.91-.15.53-.7,1.35-1.23,1.83s-.96,1.45-.96,2.16-.59,2.25-1.32,3.41c-.72,1.17-1.88,2.24-2.57,2.39-.69.15-1.64-.62-2.12-1.7s-.78-2.24-.67-2.59-.03-1.17-.31-1.84c-.28-.67-.68-1.57-.89-2.01s-1.1-.77-1.99-.73c-.88.04-2-.37-2.48-.91-.48-.54-.82-1.44-.76-2.01.06-.56.7-1.5,1.41-2.07.72-.58,1.66-1.29,2.09-1.58.43-.29,1.18-.64,1.67-.76.48-.12.99,0,1.12.27.14.27.53.46.87.42.34-.04,1.18.04,1.86.17.68.13,1.41.06,1.63-.16.22-.22.28-.43.15-.48s-.78-.23-1.43-.4c-.65-.17-1.51-.49-1.92-.71s-1.39-.22-2.19,0c-.8.22-1.82.2-2.28-.04-.14-.07-.21-.18-.26-.29C3.73,3.61,1,7.49,1,12c0,6.07,4.93,11,11,11s11-4.93,11-11c0-2.01-.55-3.88-1.49-5.5,0,.08-.02.14-.06.18Zm-1.7,9.75c-.31.71-.78,1.27-1.05,1.25-.27-.02-.42-.47-.33-.98.09-.52.47-1.2.85-1.52.38-.32.78-.46.89-.31.11.15-.05.85-.36,1.56Z"/></g><path d="m13.92,4c-.68-.13-1.52-.21-1.86-.17-.34.04-.74-.15-.87-.42-.14-.27-.64-.39-1.12-.27-.48.12-1.23.46-1.67.76-.43.29-1.37,1.01-2.09,1.58-.72.58-1.35,1.51-1.41,2.07-.06.56.28,1.47.76,2.01.48.54,1.59.95,2.48.91.88-.04,1.78.29,1.99.73s.61,1.34.89,2.01c.28.67.42,1.49.31,1.84s.19,1.51.67,2.59,1.43,1.84,2.12,1.7c.69-.15,1.84-1.22,2.57-2.39.72-1.17,1.32-2.7,1.32-3.41s.43-1.69.96-2.16,1.08-1.3,1.23-1.83c.15-.53-.2-.94-.78-.91-.58.02-1.56-.74-2.19-1.7-.63-.96-1.08-1.78-1-1.83.07-.05.85.55,1.72,1.32.87.77,1.92,1.28,2.32,1.12.4-.16.95-.54,1.2-.85.04-.04.05-.11.06-.18-1.91-3.28-5.45-5.5-9.51-5.5-1.55,0-3.03.33-4.37.91.05.11.12.21.26.29.45.25,1.48.27,2.28.04.8-.22,1.78-.22,2.19,0s1.27.54,1.92.71c.65.17,1.29.35,1.43.4s.07.27-.15.48c-.22.22-.95.29-1.63.16Z"/><path d="m19.22,15.18c-.38.32-.76,1-.85,1.52-.09.52.06.96.33.98.27.02.74-.54,1.05-1.25.31-.71.47-1.41.36-1.56-.11-.15-.51,0-.89.31Z"/></svg>