<svg xmlns="http://www.w3.org/2000/svg" width="24" height="24" viewBox="0 0 24 24"><g opacity="0.4"><path d="m15.2,19.2c-2,1.02-4.41,1.02-6.41,0-.32,1.02-1.04,1.85-1.97,2.34,1.56.95,3.33,1.46,5.18,1.46s3.62-.51,5.18-1.46c-.94-.48-1.65-1.32-1.97-2.34Z"/><path d="m8.53,6.94c-.32-.58-.53-1.23-.53-1.94,0-.44.09-.86.22-1.26-3.76,1.52-6.22,5.14-6.22,9.26,0,.71.09,1.42.24,2.12.72-.69,1.69-1.12,2.76-1.12.03,0,.06,0,.08,0-.05-.34-.08-.67-.08-1.01,0-2.56,1.38-4.83,3.53-6.06Z"/><path d="m15.78,3.74c.13.4.22.82.22,1.26,0,.71-.2,1.37-.53,1.94,2.15,1.22,3.53,3.49,3.53,6.06,0,.34-.03.67-.08,1.01.03,0,.06,0,.08,0,1.07,0,2.04.43,2.76,1.12.15-.7.24-1.41.24-2.12,0-4.12-2.47-7.74-6.22-9.26Z"/></g><path d="M19 14A4 4 0 1 0 19 22 4 4 0 1 0 19 14z"/><path d="M5 14A4 4 0 1 0 5 22 4 4 0 1 0 5 14z"/><path d="M12 1A4 4 0 1 0 12 9 4 4 0 1 0 12 1z"/></svg>