<svg xmlns="http://www.w3.org/2000/svg" width="24" height="24" viewBox="0 0 24 24"><g opacity="0.4"><rect x="2" y="2" width="9" height="9" rx="2" ry="2"/><rect x="13" y="2" width="9" height="9" rx="2" ry="2"/><rect x="2" y="13" width="9" height="9" rx="2" ry="2"/></g><path d="m19.44,14.14c-1.42-1.42-3.89-1.42-5.3,0s-1.46,3.84,0,5.3c.73.73,1.69,1.1,2.65,1.1.72,0,1.44-.21,2.07-.62l2.26,2.26,1.06-1.06-2.26-2.26c.96-1.46.8-3.44-.48-4.72Zm-4.24,4.24c-.88-.88-.88-2.3,0-3.18.42-.42.99-.66,1.59-.66s1.17.23,1.59.66c.88.88.88,2.3,0,3.18-.88.88-2.3.88-3.18,0Z"/></svg>