<svg xmlns="http://www.w3.org/2000/svg" width="24" height="24" viewBox="0 0 24 24"><g opacity="0.4"><path d="m12,11.03c.83.6,1.85.97,3,.97,2.85,0,5-2.15,5-5s-2.15-5-5-5c-1.15,0-2.17.36-3,.97,1.22.89,2,2.33,2,4.03s-.78,3.14-2,4.03Z"/><path d="m16.5,13h-3c-.52,0-1.02.08-1.5.21,2.3.66,4,2.77,4,5.29v2c0,.83-.67,1.5-1.5,1.5h6c.83,0,1.5-.67,1.5-1.5v-2c0-3.03-2.47-5.5-5.5-5.5Z"/></g><path d="M9 2A5 5 0 1 0 9 12 5 5 0 1 0 9 2z"/><path d="m10.5,13h-3c-3.03,0-5.5,2.47-5.5,5.5v2c0,.83.67,1.5,1.5,1.5h11c.83,0,1.5-.67,1.5-1.5v-2c0-3.03-2.47-5.5-5.5-5.5Z"/></svg>