<svg xmlns="http://www.w3.org/2000/svg" width="24" height="24" viewBox="0 0 24 24"><g opacity="0.4"><path d="m21.57,9.12l.96-.37-.54-1.4-.97.37c-.39-.81-.87-1.56-1.45-2.24l.74-.74-1.06-1.06-.74.74c-.55-.47-1.14-.89-1.78-1.23l.42-.94-1.37-.61-.42.95c-.83-.3-1.7-.49-2.61-.56v-1.04h-1.5v1.04c-.73.05-1.45.18-2.13.39l-.37-.96-1.4.54.37.97c-.81.39-1.56.87-2.24,1.45l-.74-.74-1.06,1.06.74.74c-.47.55-.89,1.14-1.23,1.78l-.94-.42-.61,1.37.95.42c-.3.83-.49,1.7-.56,2.61h-1.04v1.5h1.04c.05.73.18,1.45.39,2.13l-.96.37.54,1.4.97-.37c.39.81.87,1.56,1.45,2.24l-.74.74,1.06,1.06.74-.74c.55.47,1.14.89,1.78,1.23l-.42.94,1.37.61.42-.95c.83.3,1.7.49,2.61.56v1.04h1.5v-1.04c.73-.05,1.45-.18,2.13-.39l.37.96,1.4-.54-.37-.97c.81-.39,1.56-.87,2.24-1.45l.74.74,1.06-1.06-.74-.74c.47-.55.89-1.14,1.23-1.78l.94.42.61-1.37-.95-.42c.3-.83.49-1.7.56-2.61h1.04v-1.5h-1.04c-.05-.73-.18-1.45-.39-2.13Zm-12.66,9.15l1.38-3.8c-.79-.54-1.3-1.44-1.3-2.47,0-.65.21-1.25.56-1.74l-2.61-3.1c.35-.36.73-.69,1.14-.97l2.61,3.11c.39-.19.82-.3,1.29-.3,1.21,0,2.25.72,2.72,1.76l4-.7c.14.47.22.97.26,1.48l-4,.71c-.12,1.54-1.4,2.76-2.98,2.76-.1,0-.19-.02-.28-.03l-1.39,3.82c-.49-.12-.96-.29-1.41-.51Z"/><path d="M12 11A1 1 0 1 0 12 13 1 1 0 1 0 12 11z"/></g><path d="m9,12c0,1.03.52,1.93,1.3,2.47l-1.38,3.8c.45.22.92.39,1.41.51l1.39-3.82c.09,0,.19.03.28.03,1.58,0,2.85-1.22,2.98-2.76l4-.71c-.03-.51-.12-1-.26-1.48l-4,.7c-.47-1.04-1.51-1.76-2.72-1.76-.46,0-.9.11-1.29.3l-2.61-3.11c-.42.28-.8.61-1.14.97l2.61,3.1c-.35.49-.56,1.09-.56,1.74Zm3-1c.55,0,1,.45,1,1s-.45,1-1,1-1-.45-1-1,.45-1,1-1Z"/></svg>