<svg xmlns="http://www.w3.org/2000/svg" width="24" height="24" viewBox="0 0 24 24"><g opacity="0.4"><path d="m9.61,17.96c.62,2.83,1.61,4.48,2.39,4.48s1.76-1.65,2.39-4.48c-1.59-.11-3.19-.11-4.77,0Z"/><path d="m9.34,16.48c1.77-.13,3.55-.13,5.31,0,.17-1.11.28-2.36.31-3.73h-5.93c.03,1.36.14,2.62.31,3.73Z"/><path d="m16.15,7.37c.18,1.24.29,2.56.32,3.88h6.5c-.12-1.8-.68-3.48-1.57-4.94-1.7.49-3.45.84-5.25,1.06Z"/><path d="m14.66,7.53c-.88.07-1.76.11-2.66.11s-1.78-.04-2.66-.11c-.17,1.11-.28,2.36-.31,3.72h5.93c-.03-1.36-.14-2.61-.31-3.72Z"/><path d="m16.15,16.64c1.79.21,3.55.56,5.25,1.05.89-1.46,1.44-3.14,1.57-4.94h-6.5c-.03,1.33-.13,2.65-.32,3.89Z"/><path d="m20.48,5.01c-1.61-1.95-3.89-3.33-6.47-3.81.84,1.04,1.46,2.71,1.88,4.69,1.57-.18,3.11-.47,4.6-.88Z"/><path d="m12,1.57c-.77,0-1.76,1.65-2.39,4.48,1.59.11,3.19.11,4.77,0-.62-2.83-1.61-4.48-2.39-4.48Z"/><path d="m14.01,22.81c2.59-.48,4.86-1.86,6.47-3.81-1.49-.4-3.03-.69-4.6-.88-.41,1.98-1.04,3.65-1.88,4.69Z"/><path d="m1.04,11.25h6.5c.03-1.33.13-2.64.32-3.88-1.79-.22-3.55-.56-5.25-1.06-.89,1.46-1.44,3.14-1.57,4.94Z"/><path d="m3.52,18.99c1.61,1.95,3.89,3.33,6.47,3.81-.84-1.04-1.46-2.71-1.88-4.69-1.57.18-3.11.47-4.6.88Z"/><path d="m3.52,5.01c1.49.4,3.03.69,4.6.88.41-1.98,1.04-3.65,1.88-4.69-2.59.48-4.86,1.86-6.47,3.81Z"/><path d="m7.53,12.75H1.04c.12,1.8.68,3.48,1.57,4.94,1.69-.49,3.46-.84,5.25-1.05-.18-1.24-.29-2.56-.32-3.89Z"/></g><path d="m16.47,11.25c-.03-1.33-.13-2.64-.32-3.88,1.79-.22,3.55-.56,5.25-1.06-.28-.45-.57-.9-.91-1.3-1.49.4-3.03.69-4.6.88-.41-1.98-1.04-3.65-1.88-4.69-.65-.12-1.32-.19-2.01-.19s-1.36.07-2.01.19c-.84,1.04-1.46,2.71-1.88,4.69-1.57-.18-3.11-.47-4.6-.88-.34.41-.64.85-.91,1.3,1.7.49,3.45.84,5.25,1.06-.18,1.24-.29,2.56-.32,3.88H1.04c-.02.25-.04.5-.04.75s.02.5.04.75h6.5c.03,1.33.13,2.65.32,3.89-1.79.21-3.55.56-5.25,1.05.28.45.57.9.91,1.3,1.49-.4,3.03-.69,4.6-.88.41,1.98,1.04,3.65,1.88,4.69.65.12,1.32.19,2.01.19s1.36-.07,2.01-.19c.84-1.04,1.46-2.71,1.88-4.69,1.57.18,3.11.47,4.6.88.34-.41.64-.85.91-1.3-1.69-.49-3.46-.84-5.25-1.05.18-1.24.29-2.56.32-3.89h6.5c.02-.25.04-.5.04-.75s-.02-.5-.04-.75h-6.5ZM12,1.57c.77,0,1.76,1.65,2.39,4.48-1.59.11-3.19.11-4.77,0,.62-2.83,1.61-4.48,2.39-4.48Zm0,20.87c-.77,0-1.76-1.65-2.39-4.48,1.59-.11,3.19-.11,4.77,0-.62,2.83-1.61,4.48-2.39,4.48Zm2.66-5.95c-1.77-.13-3.55-.13-5.31,0-.17-1.11-.28-2.36-.31-3.73h5.93c-.03,1.36-.14,2.62-.31,3.73Zm-5.62-5.23c.03-1.36.14-2.61.31-3.72.88.07,1.76.11,2.66.11s1.78-.04,2.66-.11c.17,1.11.28,2.36.31,3.72h-5.93Z"/></svg>