<svg xmlns="http://www.w3.org/2000/svg" width="24" height="24" viewBox="0 0 24 24"><g opacity="0.4"><path d="m21.5,4H2.5c-1.38,0-2.5,1.12-2.5,2.5v9c0,2.48,2.02,4.5,4.5,4.5h15c2.48,0,4.5-2.02,4.5-4.5V6.5c0-1.38-1.12-2.5-2.5-2.5ZM5,14h-3v-3h3v3Zm-1.5-4c-.83,0-1.5-.67-1.5-1.5s.67-1.5,1.5-1.5,1.5.67,1.5,1.5-.67,1.5-1.5,1.5Zm14.5,8H6V6h12v12Zm4-4h-3v-3h3v3Zm-1.5-4c-.83,0-1.5-.67-1.5-1.5s.67-1.5,1.5-1.5,1.5.67,1.5,1.5-.67,1.5-1.5,1.5Z"/></g><path d="M2 11H5V14H2z"/><path d="M19 11H22V14H19z"/><path d="M20.5 7A1.5 1.5 0 1 0 20.5 10 1.5 1.5 0 1 0 20.5 7z"/><path d="M3.5 7A1.5 1.5 0 1 0 3.5 10 1.5 1.5 0 1 0 3.5 7z"/><path d="M6 6H18V18H6z"/></svg>