<svg xmlns="http://www.w3.org/2000/svg" width="24" height="24" viewBox="0 0 24 24"><g opacity="0.4"><path d="m21.01,4c-1.29-1.29-2.98-2-4.77-2h0c-1.55,0-3.03.54-4.23,1.52-1.2-.98-2.68-1.51-4.23-1.52h0c-1.79,0-3.49.71-4.78,2-2.66,2.69-2.66,6.89,0,9.57l7.95,7.99c.28.28.66.44,1.06.44s.78-.16,1.06-.44l7.95-7.99c2.66-2.68,2.67-6.88,0-9.57,0,0,0,0,0,0Zm-4.01,9.5h-3.5v3.5h-3v-3.5h-3.5v-3h3.5v-3.5h3v3.5h3.5v3Z"/></g><path d="M10.5 17 13.5 17 13.5 13.5 17 13.5 17 10.5 13.5 10.5 13.5 7 10.5 7 10.5 10.5 7 10.5 7 13.5 10.5 13.5 10.5 17z"/></svg>