<svg xmlns="http://www.w3.org/2000/svg" width="24" height="24" viewBox="0 0 24 24"><g opacity="0.4"><path d="m13.03,1.41c-.58-.55-1.48-.55-2.06,0L1.47,10.41c-.45.42-.59,1.07-.36,1.64s.78.94,1.39.94h.5v7.5c0,1.38,1.12,2.5,2.5,2.5h13c1.38,0,2.5-1.12,2.5-2.5v-7.5h.5c.61,0,1.17-.37,1.39-.94s.08-1.22-.36-1.64L13.03,1.41Zm2.53,13.31l-3.56,3.49-3.56-3.49s-.04-.04-.06-.06c-.87-.9-.84-2.33.06-3.2.92-.91,2.4-.91,3.32,0l.24.23.24-.23c.92-.91,2.4-.91,3.32,0,.02.02.04.04.06.06.87.9.84,2.33-.06,3.2Z"/></g><path d="m12,18.22l3.56-3.49c.9-.87.93-2.3.06-3.2-.02-.02-.04-.04-.06-.06-.92-.91-2.4-.91-3.32,0l-.24.23-.24-.23c-.92-.91-2.4-.91-3.32,0-.9.87-.93,2.3-.06,3.2.02.02.04.04.06.06l3.56,3.49Z"/></svg>