<svg xmlns="http://www.w3.org/2000/svg" width="24" height="24" viewBox="0 0 24 24"><g opacity="0.4"><path d="m5,22h4v-6h6v6h4V5H5v17Zm3-13.5h2.5v-2.5h3v2.5h2.5v3h-2.5v2.5h-3v-2.5h-2.5v-3Z"/></g><path d="M9 16H15V22H9z"/><path d="M4 2H20V5H4z"/><path d="m5,8h-2.5c-.83,0-1.5.67-1.5,1.5v11c0,.83.67,1.5,1.5,1.5h2.5v-14Z"/><path d="m21.5,8h-2.5v14h2.5c.83,0,1.5-.67,1.5-1.5v-11c0-.83-.67-1.5-1.5-1.5Z"/><path d="M16 8.5 13.5 8.5 13.5 6 10.5 6 10.5 8.5 8 8.5 8 11.5 10.5 11.5 10.5 14 13.5 14 13.5 11.5 16 11.5 16 8.5z"/></svg>