<svg xmlns="http://www.w3.org/2000/svg" width="24" height="24" viewBox="0 0 24 24"><g opacity="0.4"><path d="m13.03,1.41c-.58-.55-1.48-.55-2.06,0L1.47,10.41c-.45.42-.59,1.07-.36,1.64s.78.94,1.39.94h.5v7.5c0,1.38,1.12,2.5,2.5,2.5h13c1.38,0,2.5-1.12,2.5-2.5v-7.5h.5c.61,0,1.17-.37,1.39-.94s.08-1.22-.36-1.64L13.03,1.41Zm3.97,14.09h-3.5v3.5h-3v-3.5h-3.5v-3h3.5v-3.5h3v3.5h3.5v3Z"/></g><path d="M13.5 19 13.5 15.5 17 15.5 17 12.5 13.5 12.5 13.5 9 10.5 9 10.5 12.5 7 12.5 7 15.5 10.5 15.5 10.5 19 13.5 19z"/></svg>