<svg xmlns="http://www.w3.org/2000/svg" width="24" height="24" viewBox="0 0 24 24"><g opacity="0.4"><path d="m17.81,10c-1.42,0-2.8.68-3.77,1.87-.52.63-1.61,1.41-3.58.7.58-.8.94-1.78.94-2.85,0-2.6-2.09-4.71-4.67-4.71s-4.67,2.11-4.67,4.71h3c0-.95.75-1.71,1.67-1.71s1.67.77,1.67,1.71-.75,1.79-1.64,1.79h-.25c-.83,0-1.5.67-1.5,1.5s.67,1.5,1.5,1.5h.25c1.51,0,2.69,1.19,2.69,2.71s-1.22,2.79-2.72,2.79-2.72-1.25-2.72-2.79H1c0,3.19,2.57,5.79,5.72,5.79s5.72-2.6,5.72-5.79c0-.48-.06-.94-.17-1.39,1.77-.1,3.17-.95,4.08-2.06.24-.29.74-.77,1.45-.77s1.22.48,1.45.77c.47.57.74,1.39.74,2.23s-.27,1.66-.74,2.23c-.24.29-.74.77-1.45.77s-1.22-.48-1.45-.77l-2.32,1.9c.97,1.19,2.35,1.87,3.77,1.87s2.78-.66,3.77-1.87c.92-1.12,1.42-2.59,1.42-4.13s-.5-3.02-1.42-4.13c-.99-1.2-2.33-1.87-3.77-1.87Z"/></g><path d="M17 4 17.75 3.25 18.5 2.5 17.75 1.75 17 1 16.25 1.75 15.5 2.5 16.25 3.25 17 4z"/><path d="m20,2.5c0,1.38-1.35,2.5-3,2.5s-3-1.12-3-2.5v-.5h-3v.5c0,3.03,2.69,5.5,6,5.5s6-2.47,6-5.5v-.5h-3v.5Z"/></svg>