<svg xmlns="http://www.w3.org/2000/svg" width="24" height="24" viewBox="0 0 24 24"><g opacity="0.4"><path d="M5 1A3 3 0 1 0 5 7 3 3 0 1 0 5 1z"/><path d="m21.5,13H2.5c-.83,0-1.5.67-1.5,1.5v5c0,1.93,1.57,3.5,3.5,3.5h15c1.93,0,3.5-1.57,3.5-3.5v-5c0-.83-.67-1.5-1.5-1.5Z"/></g><path d="m17.5,10c0-2.09.45-3.11.94-4.2.52-1.18,1.06-2.4,1.06-4.8h-1.5c0,2.09-.45,3.11-.94,4.2-.52,1.18-1.06,2.4-1.06,4.8h1.5Z"/><path d="m14.94,5.8c.52-1.18,1.06-2.4,1.06-4.8h-1.5c0,2.09-.45,3.11-.94,4.2-.52,1.18-1.06,2.4-1.06,4.8h1.5c0-2.09.45-3.11.94-4.2Z"/><path d="m20.56,5.2c-.52,1.18-1.06,2.4-1.06,4.8h1.5c0-2.09.45-3.11.94-4.2.52-1.18,1.06-2.4,1.06-4.8h-1.5c0,2.09-.45,3.11-.94,4.2Z"/><path d="m2.5,13h8.98c-1.87-3.02-3.06-5-6.08-5-2.43,0-4.4,2.33-4.4,5.83v.67c0-.83.67-1.5,1.5-1.5Z"/></svg>