<svg xmlns="http://www.w3.org/2000/svg" width="24" height="24" viewBox="0 0 24 24"><g opacity="0.4"><path d="m12,1C5.93,1,1,5.93,1,12s4.93,11,11,11,11-4.93,11-11S18.07,1,12,1Zm5.02,11.83l-5.02,5.07-5.02-5.07c-1.31-1.32-1.31-3.41,0-4.74,1.31-1.32,3.38-1.32,4.69,0l.33.34.33-.34c1.31-1.32,3.37-1.32,4.69,0,1.31,1.33,1.31,3.42,0,4.74Z"/></g><path d="m12,17.9l5.02-5.07c1.31-1.32,1.31-3.41,0-4.74-1.31-1.32-3.38-1.32-4.69,0l-.33.34-.33-.34c-1.3-1.32-3.37-1.32-4.69,0-1.31,1.33-1.31,3.42,0,4.74l5.02,5.07Z"/></svg>