<svg xmlns="http://www.w3.org/2000/svg" width="24" height="24" viewBox="0 0 24 24"><g opacity="0.4"><path d="m12,1C5.93,1,1,5.93,1,12s4.93,11,11,11,11-4.93,11-11S18.07,1,12,1Zm-6.48,6.64c.34-.34.79-.52,1.26-.53.45,0,.87.15,1.21.45.33-.3.75-.46,1.2-.47.47,0,.93.18,1.27.5.71.69.72,1.77.02,2.47l-2.45,2.43-2.49-2.39c-.71-.68-.72-1.77-.02-2.47Zm6.48,10.36c-4,0-5-4-5-4h10s-1,4-5,4Zm6.48-7.93l-2.45,2.43-2.49-2.39c-.71-.68-.72-1.77-.02-2.47.34-.34.79-.52,1.26-.53.45,0,.87.15,1.21.45.33-.3.75-.46,1.2-.47.47,0,.93.18,1.27.5.71.69.72,1.77.02,2.47Z"/></g><path d="m12,18c4,0,5-4,5-4H7s1,4,5,4Z"/><path d="m18.48,10.07c.7-.7.69-1.78-.02-2.47-.34-.33-.8-.51-1.27-.5-.45,0-.87.17-1.2.47-.33-.29-.76-.45-1.21-.45-.47,0-.92.19-1.26.53-.7.7-.69,1.78.02,2.47l2.49,2.39,2.45-2.43Z"/><path d="m9.19,7.1c-.45,0-.87.17-1.2.47-.33-.29-.76-.45-1.21-.45-.47,0-.92.19-1.26.53-.7.7-.69,1.78.02,2.47l2.49,2.39,2.45-2.43c.7-.7.69-1.78-.02-2.47-.34-.33-.8-.51-1.27-.5Z"/></svg>