<svg xmlns="http://www.w3.org/2000/svg" width="24" height="24" viewBox="0 0 24 24"><g opacity="0.4"><path d="M2 17 5.54 17 6.1 14 2 14 2 17z"/><path d="M8.59 17 13.54 17 14.1 14 9.15 14 8.59 17z"/><path d="M16.59 17 21 17 21 14 17.15 14 16.59 17z"/><path d="M9.9 10 14.85 10 15.41 7 10.46 7 9.9 10z"/><path d="M3 10 6.85 10 7.41 7 3 7 3 10z"/><path d="M17.9 10 22 10 22 7 18.46 7 17.9 10z"/></g><path d="M11.16 3.28 9.69 3 8.21 2.72 6.53 11.72 4.84 20.72 6.31 21 7.79 21.28 9.47 12.28 11.16 3.28z"/><path d="M19.16 3.28 17.69 3 16.21 2.72 14.53 11.72 12.84 20.72 14.31 21 15.79 21.28 17.47 12.28 19.16 3.28z"/></svg>