<svg xmlns="http://www.w3.org/2000/svg" width="24" height="24" viewBox="0 0 24 24"><g opacity="0.4"><path d="m21,9.72c-.15-4.84-4.35-8.72-9.5-8.72S1,4.33,1,10.5c0,2.97.98,5.33,3,7.19v5.31h11v-2h2.5c1.38,0,2.5-1.12,2.5-2.5v-2.5h.79c.65,0,1.27-.32,1.64-.85.37-.53.46-1.22.24-1.83l-1.67-3.59Zm-5.41,2.55c-.38.87-1.21,1.47-2.18,1.47-.19,0-.38-.03-.56-.07-.54.8-1.43,1.32-2.44,1.32s-1.9-.53-2.45-1.32c-.18.04-.36.07-.55.07-1.33,0-2.4-1.12-2.4-2.5,0-.46.13-.88.33-1.25-.21-.37-.33-.79-.33-1.25,0-1.38,1.07-2.5,2.4-2.5.11,0,.21.02.32.03.41-.76,1.19-1.28,2.08-1.28.53,0,1.01.18,1.41.48.46-.3,1-.48,1.59-.48,1.56,0,2.83,1.24,2.97,2.83.73.43,1.23,1.23,1.23,2.17,0,1.01-.58,1.88-1.42,2.28Z"/></g><path d="m7.4,13.75c.19,0,.38-.03.55-.07.54.8,1.43,1.32,2.45,1.32s1.9-.53,2.44-1.32c.18.04.36.07.56.07.97,0,1.81-.61,2.18-1.47.83-.39,1.42-1.26,1.42-2.28,0-.94-.5-1.74-1.23-2.17-.14-1.59-1.41-2.83-2.97-2.83-.59,0-1.13.18-1.59.48-.4-.3-.88-.48-1.41-.48-.9,0-1.67.52-2.08,1.28-.1-.01-.21-.03-.32-.03-1.33,0-2.4,1.12-2.4,2.5,0,.46.13.88.33,1.25-.21.37-.33.79-.33,1.25,0,1.38,1.07,2.5,2.4,2.5Z"/></svg>