<svg xmlns="http://www.w3.org/2000/svg" width="24" height="24" viewBox="0 0 24 24"><g opacity="0.4"><path d="m19.5,2H4.5c-1.38,0-2.5,1.12-2.5,2.5v15c0,.69.28,1.31.73,1.77l5.02-5.02c-1.09-1.09-1.76-2.59-1.76-4.24,0-3.31,2.69-6,6-6,1.66,0,3.16.67,4.24,1.76l-.2.2-8.08,8.08-.2.2c1.09,1.09,2.59,1.76,4.24,1.76,3.31,0,6-2.69,6-6,0-1.66-.67-3.16-1.76-4.24l5.02-5.02c-.45-.45-1.08-.73-1.77-.73Z"/></g><path d="m16.04,7.96l.2-.2c-1.09-1.09-2.59-1.76-4.24-1.76-3.31,0-6,2.69-6,6,0,1.66.67,3.16,1.76,4.24l.2-.2,8.08-8.08Z"/><path d="m16.24,7.76c1.09,1.09,1.76,2.59,1.76,4.24,0,3.31-2.69,6-6,6-1.66,0-3.16-.67-4.24-1.76l-5.02,5.02c.45.45,1.08.73,1.77.73h15c1.38,0,2.5-1.12,2.5-2.5V4.5c0-.69-.28-1.31-.73-1.77l-5.02,5.02Z"/></svg>