<svg xmlns="http://www.w3.org/2000/svg" width="24" height="24" viewBox="0 0 24 24"><g opacity="0.4"><path d="m18,11c-.38,0-.74-.14-1.01-.39l-4.94-4.53-4.48,4.48c-.28.28-.66.44-1.06.44H1v9.5c0,.83.67,1.5,1.5,1.5h7.5v-5h4v5h7.5c.83,0,1.5-.67,1.5-1.5v-9.5h-5Zm-11,6h-3v-3h3v3Zm5-3c-1.1,0-2-.9-2-2s.9-2,2-2,2,.9,2,2-.9,2-2,2Zm8,3h-3v-3h3v3Z"/></g><path d="M12 10A2 2 0 1 0 12 14 2 2 0 1 0 12 10z"/><path d="M4 14H7V17H4z"/><path d="M17 14H20V17H17z"/><path d="M10 17H14V22H10z"/><path d="m21.38,3.91c-.24-.55-.78-.91-1.38-.91h-6.87l-.12-.11c-.59-.54-1.51-.52-2.07.05l-.06.06h-6.88c-.6,0-1.14.36-1.38.91l-1.5,3.5c-.08.19-.12.39-.12.59v3h5.5c.4,0,.78-.16,1.06-.44l4.48-4.48,4.94,4.53c.28.25.64.39,1.01.39h5v-3c0-.2-.04-.4-.12-.59l-1.5-3.5Z"/></svg>