<svg xmlns="http://www.w3.org/2000/svg" width="24" height="24" viewBox="0 0 24 24"><g opacity="0.4"><path d="m16,6c.61,0,1.21.09,1.78.27.67.21,1.41-.08,1.75-.7.34-.62.21-1.4-.33-1.86-2-1.74-4.57-2.7-7.21-2.7C5.93,1,1,5.93,1,12s4.93,11,11,11c2.65,0,5.21-.96,7.21-2.7.54-.47.67-1.24.33-1.86-.35-.62-1.08-.91-1.75-.7-.57.18-1.17.27-1.78.27-3.31,0-6-2.69-6-6s2.69-6,6-6Z"/></g><path d="M19.28 10.59 18 8 16.72 10.59 14 10.82 16.12 12.94 15.18 16 18 14.12 20.82 16 19.88 12.94 22 10.82 19.28 10.59z"/></svg>