<svg xmlns="http://www.w3.org/2000/svg" width="24" height="24" viewBox="0 0 24 24"><g opacity="0.4"><path d="m20.5,6h-2.5v-2.5c0-1.38-1.12-2.5-2.5-2.5h-7c-1.38,0-2.5,1.12-2.5,2.5v2.5h-2.5c-1.38,0-2.5,1.12-2.5,2.5v7c0,1.38,1.12,2.5,2.5,2.5h2.5v2.5c0,1.38,1.12,2.5,2.5,2.5h7c1.38,0,2.5-1.12,2.5-2.5v-2.5h2.5c1.38,0,2.5-1.12,2.5-2.5v-7c0-1.38-1.12-2.5-2.5-2.5ZM7,14.5l-3.75-2.5,3.75-2.5v5Zm5.12,6.38l-2.5-3.75h5l-2.5,3.75Zm0-6.38c-1.38,0-2.5-1.12-2.5-2.5s1.12-2.5,2.5-2.5,2.5,1.12,2.5,2.5-1.12,2.5-2.5,2.5Zm-2.5-7.62l2.5-3.75,2.5,3.75h-5Zm7.62,7.62v-5l3.75,2.5-3.75,2.5Z"/></g><path d="M12.12 3.12 9.62 6.88 14.62 6.88 12.12 3.12z"/><path d="M12.12 9.5A2.5 2.5 0 1 0 12.12 14.5 2.5 2.5 0 1 0 12.12 9.5z"/><path d="M17.25 9.5 17.25 14.5 21 12 17.25 9.5z"/><path d="M14.62 17.12 9.62 17.12 12.12 20.88 14.62 17.12z"/><path d="M7 9.5 3.25 12 7 14.5 7 9.5z"/></svg>