<svg xmlns="http://www.w3.org/2000/svg" width="24" height="24" viewBox="0 0 24 24"><g opacity="0.4"><path d="m12,1C5.93,1,1,5.93,1,12s4.93,11,11,11,11-4.93,11-11S18.07,1,12,1Zm-5.43,7.65l.87-1.3,3,2c.22.14.35.39.35.65s-.13.5-.35.65l-3,2-.87-1.3,2.03-1.35-2.03-1.35Zm5.43,9.35c-4,0-5-4-5-4h10s-1,4-5,4Zm5.43-6.65l-.87,1.3-3-2c-.22-.14-.35-.39-.35-.65s.13-.5.35-.65l3-2,.87,1.3-2.03,1.35,2.03,1.35Z"/></g><path d="m7.43,12.65l3-2c.22-.14.35-.39.35-.65s-.13-.5-.35-.65l-3-2-.87,1.3,2.03,1.35-2.03,1.35.87,1.3Z"/><path d="m12,18c4,0,5-4,5-4H7s1,4,5,4Z"/><path d="m16.57,7.35l-3,2c-.22.14-.35.39-.35.65s.13.5.35.65l3,2,.87-1.3-2.03-1.35,2.03-1.35-.87-1.3Z"/></svg>