<svg xmlns="http://www.w3.org/2000/svg" width="24" height="24" viewBox="0 0 24 24"><g opacity="0.4"><rect x="13" y="2" width="9" height="9" rx="2" ry="2"/><rect x="2" y="2" width="9" height="20" rx="2" ry="2"/></g><path d="m20.54,16.79c0-1-.39-1.94-1.1-2.65-1.42-1.42-3.89-1.42-5.3,0-.71.71-1.1,1.65-1.1,2.65s.39,1.94,1.1,2.65c.71.71,1.65,1.1,2.65,1.1.75,0,1.46-.22,2.07-.62l2.26,2.26,1.06-1.06-2.26-2.26c.4-.61.62-1.32.62-2.07Zm-5.34,1.59c-.42-.42-.66-.99-.66-1.59s.23-1.17.66-1.59.99-.66,1.59-.66,1.17.23,1.59.66.66.99.66,1.59-.23,1.17-.66,1.59c-.85.85-2.33.85-3.18,0Z"/></svg>