<svg xmlns="http://www.w3.org/2000/svg" width="24" height="24" viewBox="0 0 24 24"><g opacity="0.4"><path d="m14.24,17.51c-2.41-.07-4.14,1.94-4.21,2.02-.29.34-.31.84-.06,1.21.06.09,1.54,2.2,4,2.26.04,0,.07,0,.11,0,2.38,0,4.03-1.94,4.1-2.03.29-.34.31-.84.06-1.21-.06-.09-1.54-2.2-4-2.26Z"/><path d="m11.27,14.14c.38.2.71.45.99.72,0,0,0-.01,0-.02.01-.11.33-2.66-1.37-4.48-1.71-1.82-4.26-1.62-4.37-1.61-.47.04-.84.4-.9.86-.01.11-.31,2.55,1.26,4.35.66-.24,2.58-.79,4.39.17Z"/><path d="m14.76,1.48c-.25-.41-.76-.59-1.21-.42-.1.04-2.43.94-3.16,3.39-.05.17-.07.34-.1.52.69.45,1.43,1.11,1.91,2.1.39.8.5,1.61.49,2.33.72-.38,2.19-1.34,2.74-3.19.71-2.4-.61-4.63-.67-4.73Z"/></g><path d="m13.83,17.54c-.22-.79-.88-2.5-2.56-3.4-2.18-1.16-4.55-.12-4.64-.07-.42.19-.65.63-.57,1.08.02.11.48,2.65,2.66,3.81.47.25.95.39,1.42.47.37-.39,1.78-1.76,3.7-1.89Z"/><path d="m10.89,10.36c.51.54.83,1.15,1.04,1.74.11-.09.2-.2.26-.33.04-.1,1.09-2.43,0-4.69-1.09-2.26-3.57-2.89-3.67-2.92-.46-.11-.95.12-1.15.55-.04.09-.88,2-.24,4.04.88.04,2.53.31,3.75,1.61Z"/></svg>