<svg xmlns="http://www.w3.org/2000/svg" width="24" height="24" viewBox="0 0 24 24"><g opacity="0.4"><path d="m21.46,1.32c-.45-.08-11.19-1.87-16.95,3.89-1.11,1.11-2.02,2.5-2.7,4.12-1.49,3.55-.87,7.38,1.56,10.21,2.05-4.71,5.94-8.53,10.64-10.53-4.11,3.07-7.07,7.9-7.45,13.03,1.31.64,2.73.97,4.18.97,1.31,0,2.65-.27,3.94-.81,1.62-.68,3-1.59,4.12-2.7,5.76-5.76,3.97-16.49,3.89-16.95-.11-.62-.6-1.11-1.22-1.22Z"/></g><path d="m7.52,22.44c-.33-.12-.66-.26-.98-.41.38-5.13,3.34-9.96,7.45-13.03-4.7,2.01-8.59,5.83-10.64,10.53.17.2.32.4.51.59,1.07,1.07,2.31,1.83,3.65,2.31Z"/></svg>