<svg xmlns="http://www.w3.org/2000/svg" width="24" height="24" viewBox="0 0 24 24"><g opacity="0.4"><path d="m20.5,8H7.5c-1.38,0-2.5,1.12-2.5,2.5v10c0,1.38,1.12,2.5,2.5,2.5h13c1.38,0,2.5-1.12,2.5-2.5v-10c0-1.38-1.12-2.5-2.5-2.5Zm-5.75,9.85v2.15h-1.5v-2.15c-.73-.3-1.25-1.01-1.25-1.85,0-1.1.9-2,2-2s2,.9,2,2c0,.84-.52,1.55-1.25,1.85Z"/></g><path d="m7.31,4.23c.36.15.68.37.95.64.28.28.49.6.64.95.16.37.24.76.24,1.17v1h3v-1c0-.81-.16-1.6-.47-2.34-.3-.71-.73-1.36-1.29-1.91-.55-.55-1.19-.98-1.91-1.29-1.48-.63-3.19-.63-4.67,0-.72.3-1.36.74-1.91,1.29-.55.55-.98,1.19-1.29,1.91l2.76,1.17c.15-.36.37-.68.64-.96.27-.27.59-.49.95-.64.74-.31,1.6-.31,2.34,0Z"/><path d="m14.75,20v-2.15c.73-.3,1.25-1.01,1.25-1.85,0-1.1-.9-2-2-2s-2,.9-2,2c0,.84.52,1.55,1.25,1.85v2.15h1.5Z"/></svg>