<svg xmlns="http://www.w3.org/2000/svg" width="24" height="24" viewBox="0 0 24 24"><g opacity="0.4"><path d="m22.14,8.64l-8.64-4.09c-.95-.45-2.04-.45-3,0L1.86,8.64c-.52.25-.86.78-.86,1.36s.33,1.11.86,1.36l8.64,4.09c.48.23.99.34,1.5.34s1.02-.11,1.5-.34l8.64-4.09c.52-.25.86-.78.86-1.36s-.33-1.11-.86-1.36Z"/></g><path d="m22.14,13.64l-2.42-1.14-6.23,2.95c-.48.23-.99.34-1.5.34s-1.02-.11-1.5-.34l-6.23-2.95-2.42,1.14c-.52.25-.86.78-.86,1.36s.33,1.11.86,1.36l8.64,4.09c.48.23.99.34,1.5.34s1.02-.11,1.5-.34l8.64-4.09c.52-.25.86-.78.86-1.36s-.33-1.11-.86-1.36Z"/></svg>