<svg xmlns="http://www.w3.org/2000/svg" width="24" height="24" viewBox="0 0 24 24"><g opacity="0.4"><path d="m19.5,2H4.5c-1.38,0-2.5,1.12-2.5,2.5v15c0,1.38,1.12,2.5,2.5,2.5h15c1.38,0,2.5-1.12,2.5-2.5V4.5c0-1.38-1.12-2.5-2.5-2.5Zm-10.5,16.5h-3v-3h3v3Zm0-5h-3v-3h3v3Zm0-5h-3v-3h3v3Zm9,10h-7v-3h7v3Zm0-5h-7v-3h7v3Zm0-5h-7v-3h7v3Z"/></g><path d="M11 15.5H18V18.5H11z"/><path d="M11 5.5H18V8.5H11z"/><path d="M11 10.5H18V13.5H11z"/><path d="M6 5.5H9V8.5H6z"/><path d="M6 15.5H9V18.5H6z"/><path d="M6 10.5H9V13.5H6z"/></svg>