<svg xmlns="http://www.w3.org/2000/svg" width="24" height="24" viewBox="0 0 24 24"><g opacity="0.4"><path d="m21.5,10.5h-2.73l4.04-7.27c.33-.59.22-1.32-.25-1.79-.47-.47-1.21-.58-1.79-.25l-6.66,3.7.42-2.1c.13-.63-.16-1.26-.71-1.59-.55-.32-1.25-.26-1.73.15L3.54,8.65s-.06.05-.09.08C.19,11.99.19,17.29,3.45,20.55c1.58,1.58,3.68,2.45,5.91,2.45s4.33-.87,5.93-2.46l7.29-7.49c.42-.43.54-1.07.31-1.63s-.78-.92-1.38-.92Zm-12,7.98c-2.21,0-4-1.79-4-4,0-1.6.95-2.97,2.3-3.61,0,.06-.02.12-.02.18,0,.95.77,1.71,1.71,1.71s1.71-.77,1.71-1.71c0-.06-.01-.12-.02-.18,1.36.64,2.3,2.01,2.3,3.61,0,2.21-1.79,4-4,4Z"/></g><path d="m9.5,18.48c2.21,0,4-1.79,4-4,0-1.6-.95-2.97-2.3-3.61,0,.06.02.12.02.18,0,.95-.77,1.71-1.71,1.71s-1.71-.77-1.71-1.71c0-.06.01-.12.02-.18-1.36.64-2.3,2.01-2.3,3.61,0,2.21,1.79,4,4,4Z"/></svg>