<svg xmlns="http://www.w3.org/2000/svg" width="24" height="24" viewBox="0 0 24 24"><g opacity="0.4"><path d="m20.5,2H3.5c-1.38,0-2.5,1.12-2.5,2.5v13c0,1.38,1.12,2.5,2.5,2.5h2.5v1.5c0,.53.28,1.02.73,1.29.24.14.5.21.77.21.25,0,.49-.06.72-.18l5.16-2.82h7.12c1.38,0,2.5-1.12,2.5-2.5V4.5c0-1.38-1.12-2.5-2.5-2.5Zm-7.38,10.12l-3.38,3.37h-2.25s0-2.25,0-2.25l3.38-3.37,1.29-1.29,2.25,2.25-1.29,1.29Zm2.09-2.08l-2.25-2.25,1.29-1.29,1.12,1.12,1.12,1.12-1.29,1.29Z"/></g><path d="M16.5 8.75 15.38 7.62 14.25 6.5 12.96 7.79 15.21 10.04 16.5 8.75z"/><path d="M10.88 9.87 7.5 13.25 7.5 15.5 9.75 15.5 13.12 12.12 14.41 10.83 12.16 8.58 10.88 9.87z"/></svg>