<svg xmlns="http://www.w3.org/2000/svg" width="24" height="24" viewBox="0 0 24 24"><g opacity="0.4"><path d="m17,12v-6c0-2.76-2.24-5-5-5s-4.96,2.21-4.99,4.95l9.01,9.01c.61-.83.99-1.84.99-2.95Z"/><path d="m7,12c0,2.76,2.24,5,5,5,1.11,0,2.12-.37,2.95-.99l-7.95-7.95v3.94Z"/><path d="m17.45,16.39l1.06,1.06c1.54-1.61,2.49-3.79,2.49-6.19h-1.5c0,1.99-.78,3.79-2.05,5.14Z"/><path d="m12,18.75c-4.14,0-7.5-3.36-7.5-7.5h-1.5c0,4.45,3.25,8.15,7.5,8.86v2.89h3v-2.89c1.44-.24,2.76-.83,3.88-1.67l-1.07-1.07c-1.22.86-2.71,1.38-4.31,1.38Z"/></g><path d="M1.53.47 1 1 .47 1.53 11.47 12.53 22.47 23.53 23 23 23.53 22.47 12.53 11.47 1.53.47z"/></svg>