<svg xmlns="http://www.w3.org/2000/svg" width="24" height="24" viewBox="0 0 24 24"><g opacity="0.4"><path d="m3.5,20h2.5v1.5c0,.53.28,1.02.73,1.29.24.14.5.21.77.21.25,0,.49-.06.72-.18l5.16-2.82h7.12c1.38,0,2.5-1.12,2.5-2.5V4.5c0-1.38-1.12-2.5-2.5-2.5H3.5c-1.38,0-2.5,1.12-2.5,2.5v13c0,1.38,1.12,2.5,2.5,2.5Zm13.5-10.5c.83,0,1.5.67,1.5,1.5s-.67,1.5-1.5,1.5-1.5-.67-1.5-1.5.67-1.5,1.5-1.5Zm-5,0c.83,0,1.5.67,1.5,1.5s-.67,1.5-1.5,1.5-1.5-.67-1.5-1.5.67-1.5,1.5-1.5Zm-5,0c.83,0,1.5.67,1.5,1.5s-.67,1.5-1.5,1.5-1.5-.67-1.5-1.5.67-1.5,1.5-1.5Z"/></g><path d="M17 9.5A1.5 1.5 0 1 0 17 12.5 1.5 1.5 0 1 0 17 9.5z"/><path d="M12 9.5A1.5 1.5 0 1 0 12 12.5 1.5 1.5 0 1 0 12 9.5z"/><path d="M7 9.5A1.5 1.5 0 1 0 7 12.5 1.5 1.5 0 1 0 7 9.5z"/></svg>