<svg xmlns="http://www.w3.org/2000/svg" width="24" height="24" viewBox="0 0 24 24"><g opacity="0.4"><path d="m15.5,16c-.78,0-1.53-.12-2.23-.34-.62.53-1.41.84-2.27.84-.12,0-.24,0-.38-.02-1.63-.17-2.93-1.47-3.1-3.13-.01-.11-.02-.23-.02-.35,0-.86.31-1.65.84-2.27-.22-.71-.34-1.46-.34-2.23,0-.16,0-.3.02-.44.01-.3.05-.6.1-.89-2.01,1-3.35,2.96-3.57,5.21-2.09.79-3.55,2.79-3.55,5.12,0,3.03,2.47,5.5,5.5,5.5,2.33,0,4.33-1.46,5.12-3.55,2.26-.21,4.22-1.56,5.21-3.58-.32.06-.65.1-.99.12-.05,0-.19.01-.35.01Zm-9,4c-1.38,0-2.5-1.12-2.5-2.5,0-.81.39-1.54,1-2,.03.08.07.15.11.23.03.06.05.11.08.17.14.28.3.55.48.81.04.05.07.1.11.15.18.24.37.48.59.7.03.03.05.06.08.08.21.21.44.39.67.57.06.05.13.1.19.14.24.17.49.31.75.45.08.04.16.08.24.11.07.03.13.07.2.1-.46.61-1.19,1-2,1Z"/></g><path d="m15.5,1c-4.02,0-7.31,3.14-7.48,7.06-.02.14-.02.28-.02.44,0,4.14,3.36,7.5,7.5,7.5.16,0,.3,0,.35-.01,4.01-.18,7.15-3.47,7.15-7.49s-3.36-7.5-7.5-7.5Z"/></svg>