<svg xmlns="http://www.w3.org/2000/svg" width="24" height="24" viewBox="0 0 24 24"><g opacity="0.4"><path d="m12,2C5.93,2,1,6.04,1,11c0,2.7,1.48,5.24,4,6.94v3.99c0,.8.89,1.28,1.55.83l4.24-2.83c.42.04.82.06,1.21.06,6.07,0,11-4.04,11-9S18.07,2,12,2Zm1.5,15h-3v-3h3v3Zm1.33-5.42c-.39.39-.84.68-1.33.88v.29h-3v-1.5c0-.83.67-1.5,1.5-1.5.27,0,.52-.1.71-.29.19-.19.29-.44.29-.71s-.1-.52-.29-.71c-.38-.38-1.04-.38-1.41,0-.19.19-.29.44-.29.71h-3c0-1.07.42-2.07,1.17-2.83,1.51-1.51,4.14-1.51,5.66,0,.76.76,1.17,1.76,1.17,2.83s-.42,2.07-1.17,2.83Z"/></g><path d="m13.5,12.46c.49-.2.94-.5,1.33-.88.76-.76,1.17-1.76,1.17-2.83s-.42-2.07-1.17-2.83c-1.51-1.51-4.14-1.51-5.66,0-.76.76-1.17,1.76-1.17,2.83h3c0-.27.1-.52.29-.71.38-.38,1.04-.38,1.41,0,.19.19.29.44.29.71s-.1.52-.29.71c-.19.19-.44.29-.71.29-.83,0-1.5.67-1.5,1.5v1.5h3v-.29Z"/><path d="M10.5 14H13.5V17H10.5z"/></svg>