<svg xmlns="http://www.w3.org/2000/svg" width="24" height="24" viewBox="0 0 24 24"><g opacity="0.4"><path d="m7.21,22.78c.44.27.99.3,1.46.07l3.33-1.67,3.33,1.67c.21.11.44.16.67.16.27,0,.55-.08.79-.22.44-.27.71-.76.71-1.28v-3.35c-.47.53-1.14.85-1.86.85h-7.28c-.72,0-1.39-.32-1.86-.85v3.35c0,.52.27,1,.71,1.28Z"/><path d="M9.22 14.28 12 12.82 14.78 14.28 14.25 11.18 16.5 8.99 13.39 8.54 12 5.72 10.61 8.54 7.5 8.99 9.75 11.18 9.22 14.28z"/></g><path d="m17.81,2.26c-.44-.78-1.28-1.26-2.17-1.26h-7.28c-.9,0-1.73.48-2.17,1.26l-3.71,6.5c-.43.76-.43,1.71,0,2.48l3.71,6.5c.44.78,1.28,1.26,2.17,1.26h7.28c.9,0,1.73-.48,2.17-1.26l3.71-6.5c.43-.76.43-1.71,0-2.48l-3.71-6.5Zm-3.56,8.92l.53,3.1-2.78-1.46-2.78,1.46.53-3.1-2.25-2.19,3.11-.45,1.39-2.82,1.39,2.82,3.11.45-2.25,2.19Z"/></svg>