<svg xmlns="http://www.w3.org/2000/svg" width="24" height="24" viewBox="0 0 24 24"><g opacity="0.4"><path d="m20.5,2H3.5c-1.38,0-2.5,1.12-2.5,2.5v13c0,1.38,1.12,2.5,2.5,2.5h2.5v1.5c0,.53.28,1.02.73,1.29.24.14.5.21.77.21.25,0,.49-.06.72-.18l5.16-2.82h7.12c1.38,0,2.5-1.12,2.5-2.5V4.5c0-1.38-1.12-2.5-2.5-2.5Zm-9.82,11.71l-2.16,2.08-4.6-4.79,4.6-4.79,2.16,2.08-2.6,2.71,2.6,2.71Zm4.8,2.08l-2.16-2.08,2.6-2.71-2.6-2.71,2.16-2.08,4.6,4.79-4.6,4.79Z"/></g><path d="M15.48 15.79 20.08 11 15.48 6.21 13.32 8.29 15.92 11 13.32 13.71 15.48 15.79z"/><path d="M10.68 13.71 8.08 11 10.68 8.29 8.52 6.21 3.92 11 8.52 15.79 10.68 13.71z"/></svg>