<svg xmlns="http://www.w3.org/2000/svg" width="24" height="24" viewBox="0 0 24 24"><g opacity="0.4"><path d="m12,1C5.93,1,1,5.93,1,12c0,2.22.68,4.38,1.92,6.21l-1.67,2.45c-.31.46-.34,1.05-.08,1.54.26.49.77.8,1.33.8h9.5c6.07,0,11-4.93,11-11S18.07,1,12,1Zm-1.32,13.71l-2.16,2.08-4.6-4.79,4.6-4.79,2.16,2.08-2.6,2.71,2.6,2.71Zm4.8,2.08l-2.16-2.08,2.6-2.71-2.6-2.71,2.16-2.08,4.6,4.79-4.6,4.79Z"/></g><path d="M8.52 7.21 3.92 12 8.52 16.79 10.68 14.71 8.08 12 10.68 9.29 8.52 7.21z"/><path d="M13.32 9.29 15.92 12 13.32 14.71 15.48 16.79 20.08 12 15.48 7.21 13.32 9.29z"/></svg>