<svg xmlns="http://www.w3.org/2000/svg" width="24" height="24" viewBox="0 0 24 24"><g opacity="0.4"><path d="m21,1H3c-1.1,0-2,.9-2,2v13c0,1.1.9,2,2,2h18c1.1,0,2-.9,2-2V3c0-1.1-.9-2-2-2ZM6.5,5c.83,0,1.5.67,1.5,1.5s-.67,1.5-1.5,1.5-1.5-.67-1.5-1.5.67-1.5,1.5-1.5Zm-1.5,9l3.5-4.67,1.75,2.33,3.5-4.67,5.25,7H5Z"/></g><path d="M7 20 7 23 17 23 17 20 13.5 20 13.5 18 10.5 18 10.5 20 7 20z"/><path d="M10.25 11.67 8.5 9.33 5 14 19 14 13.75 7 10.25 11.67z"/><path d="M6.5 5A1.5 1.5 0 1 0 6.5 8 1.5 1.5 0 1 0 6.5 5z"/></svg>