<svg xmlns="http://www.w3.org/2000/svg" width="24" height="24" viewBox="0 0 24 24"><g opacity="0.4"><path d="m2,8.18v5.64c2.15,0,3.84.09,5.28.24.13-.78.28-1.5.42-2.21.21-1.06.42-2.1.59-3.31-1.62-.22-3.57-.36-6.28-.36Z"/><path d="m15.46,8.28c.22-1.62.36-3.57.36-6.28h-5.64c0,2.15-.09,3.84-.24,5.28.78.13,1.5.28,2.21.42,1.06.21,2.1.42,3.31.59Z"/><path d="m8.68,2h-4.18c-1.38,0-2.5,1.12-2.5,2.5v2.18c2.76,0,4.79.15,6.46.37.13-1.37.22-2.99.22-5.05Z"/><path d="m19.5,2h-2.18c0,2.76-.15,4.79-.37,6.46,1.37.13,2.99.22,5.05.22v-4.18c0-1.38-1.12-2.5-2.5-2.5Z"/><path d="m9.76,8.77c-.18,1.26-.39,2.33-.6,3.38-.14.69-.27,1.37-.4,2.09,1.26.18,2.33.39,3.38.6.69.14,1.37.27,2.09.4.18-1.26.39-2.33.6-3.38.14-.69.27-1.37.4-2.09-1.26-.18-2.33-.39-3.38-.6-.69-.14-1.37-.27-2.09-.4Z"/><path d="m2,19.5c0,1.38,1.12,2.5,2.5,2.5h2.18c0-2.76.15-4.79.37-6.46-1.37-.13-2.99-.22-5.05-.22v4.18Z"/><path d="m15.32,22h4.18c1.38,0,2.5-1.12,2.5-2.5v-2.18c-2.76,0-4.79-.15-6.46-.37-.13,1.37-.22,2.99-.22,5.05Z"/><path d="m16.31,12.15c-.21,1.06-.42,2.1-.59,3.31,1.62.22,3.57.36,6.28.36v-5.64c-2.15,0-3.84-.09-5.28-.24-.13.78-.28,1.5-.42,2.21Z"/><path d="m8.54,15.72c-.22,1.62-.36,3.57-.36,6.28h5.64c0-2.15.09-3.84.24-5.28-.78-.13-1.5-.28-2.21-.42-1.06-.21-2.1-.42-3.31-.59Z"/></g><path d="m17.32,2h-1.5c0,2.71-.15,4.66-.36,6.28-1.21-.17-2.25-.38-3.31-.59-.71-.14-1.43-.28-2.21-.42.14-1.44.24-3.13.24-5.28h-1.5c0,2.06-.08,3.68-.22,5.05-1.67-.22-3.69-.37-6.46-.37v1.5c2.71,0,4.66.15,6.28.36-.17,1.21-.38,2.25-.59,3.31-.14.71-.28,1.43-.42,2.21-1.44-.14-3.13-.24-5.28-.24v1.5c2.06,0,3.68.08,5.05.22-.22,1.67-.37,3.69-.37,6.46h1.5c0-2.71.15-4.66.36-6.28,1.21.17,2.25.38,3.31.59.71.14,1.43.28,2.21.42-.14,1.44-.24,3.13-.24,5.28h1.5c0-2.06.08-3.68.22-5.05,1.67.22,3.69.37,6.46.37v-1.5c-2.71,0-4.66-.15-6.28-.36.17-1.21.38-2.25.59-3.31.14-.71.28-1.43.42-2.21,1.44.14,3.13.24,5.28.24v-1.5c-2.06,0-3.68-.08-5.05-.22.22-1.67.37-3.69.37-6.46Zm-2.49,9.85c-.21,1.05-.42,2.12-.6,3.38-.72-.12-1.4-.26-2.09-.4-1.05-.21-2.12-.42-3.38-.6.12-.72.26-1.4.4-2.09.21-1.05.42-2.12.6-3.38.72.12,1.4.26,2.09.4,1.05.21,2.12.42,3.38.6-.12.72-.26,1.4-.4,2.09Z"/></svg>