<svg xmlns="http://www.w3.org/2000/svg" width="24" height="24" viewBox="0 0 24 24"><g opacity="0.4"><path d="m20.5,2H3.5c-1.38,0-2.5,1.12-2.5,2.5v13c0,1.38,1.12,2.5,2.5,2.5h2.5v1.5c0,.53.28,1.02.73,1.29.24.14.5.21.77.21.25,0,.49-.06.72-.18l5.16-2.82h7.12c1.38,0,2.5-1.12,2.5-2.5V4.5c0-1.38-1.12-2.5-2.5-2.5Zm-12,11.5c-1.38,0-2.5-1.12-2.5-2.5s1.12-2.5,2.5-2.5,2.5,1.12,2.5,2.5-1.12,2.5-2.5,2.5Zm7,0c-1.38,0-2.5-1.12-2.5-2.5s1.12-2.5,2.5-2.5,2.5,1.12,2.5,2.5-1.12,2.5-2.5,2.5Z"/></g><path d="M15.5 8.5A2.5 2.5 0 1 0 15.5 13.5 2.5 2.5 0 1 0 15.5 8.5z"/><path d="M8.5 8.5A2.5 2.5 0 1 0 8.5 13.5 2.5 2.5 0 1 0 8.5 8.5z"/></svg>