<svg xmlns="http://www.w3.org/2000/svg" width="24" height="24" viewBox="0 0 24 24"><g opacity="0.4"><path d="m15,7.5h3.97c-.26-3.63-3.28-6.5-6.97-6.5s-6.72,2.87-6.97,6.5h6.97v1.5h-7v2.5h7v1.5h-7c0,3.86,3.14,7,7,7s7-3.14,7-7h-4v-1.5h4v-2.5h-4v-1.5Z"/></g><path d="m12,7.5h-6.97c-.01.17-.03.33-.03.5v1h7v-1.5Z"/><path d="M5 11.5H12V13H5z"/><path d="m19,8c0-.17-.01-.33-.03-.5h-3.97v1.5h4v-1Z"/><path d="M15 11.5H19V13H15z"/><path d="m12,21.5c-4.69,0-8.5-3.81-8.5-8.5h-1.5c0,5.51,4.49,10,10,10s10-4.49,10-10h-1.5c0,4.69-3.81,8.5-8.5,8.5Z"/></svg>