<svg xmlns="http://www.w3.org/2000/svg" width="24" height="24" viewBox="0 0 24 24"><g opacity="0.4"><path d="m21,2.05L7,7v10l14,4.95c.98.35,2-.38,2-1.41V3.47c0-1.04-1.02-1.76-2-1.41Z"/></g><path d="m7,7h-3.5c-1.38,0-2.5,1.12-2.5,2.5v5c0,1.38,1.12,2.5,2.5,2.5h3.5V7Z"/><path d="m9.56,21.03l3.13,1.25c.21.08.43.12.65.12.26,0,.53-.06.77-.18.44-.22.78-.62.91-1.09l.34-1.18-1.42-.5-.36,1.27c-.03.09-.09.14-.13.16s-.11.04-.2,0l-3.13-1.25c-.12-.05-.18-.18-.15-.3l.33-1.17-1.42-.5-.36,1.26c-.25.87.2,1.77,1.03,2.11Z"/></svg>