<svg xmlns="http://www.w3.org/2000/svg" width="24" height="24" viewBox="0 0 24 24"><g opacity="0.4"><path d="m12,2C5.93,2,1,6.04,1,11c0,2.7,1.48,5.24,4,6.94v3.99c0,.8.89,1.28,1.55.83l4.24-2.83c.42.04.82.06,1.21.06,6.07,0,11-4.04,11-9S18.07,2,12,2Zm-3.5,11.5c-1.38,0-2.5-1.12-2.5-2.5s1.12-2.5,2.5-2.5,2.5,1.12,2.5,2.5-1.12,2.5-2.5,2.5Zm7,0c-1.38,0-2.5-1.12-2.5-2.5s1.12-2.5,2.5-2.5,2.5,1.12,2.5,2.5-1.12,2.5-2.5,2.5Z"/></g><path d="M8.5 8.5A2.5 2.5 0 1 0 8.5 13.5 2.5 2.5 0 1 0 8.5 8.5z"/><path d="M15.5 8.5A2.5 2.5 0 1 0 15.5 13.5 2.5 2.5 0 1 0 15.5 8.5z"/></svg>