<svg xmlns="http://www.w3.org/2000/svg" width="24" height="24" viewBox="0 0 24 24"><g opacity="0.4"><path d="m12,2C5.93,2,1,6.04,1,11c0,2.7,1.48,5.24,4,6.94v3.99c0,.8.89,1.28,1.55.83l4.24-2.83c.42.04.82.06,1.21.06,6.07,0,11-4.04,11-9S18.07,2,12,2Zm-1.32,11.71l-2.16,2.08-4.6-4.79,4.6-4.79,2.16,2.08-2.6,2.71,2.6,2.71Zm4.8,2.08l-2.16-2.08,2.6-2.71-2.6-2.71,2.16-2.08,4.6,4.79-4.6,4.79Z"/></g><path d="M10.68 13.71 8.08 11 10.68 8.29 8.52 6.21 3.92 11 8.52 15.79 10.68 13.71z"/><path d="M15.48 15.79 20.08 11 15.48 6.21 13.32 8.29 15.92 11 13.32 13.71 15.48 15.79z"/></svg>