<svg xmlns="http://www.w3.org/2000/svg" width="24" height="24" viewBox="0 0 24 24"><g opacity="0.4"><path d="m17.07,2h-1.8l4.67,7h-3.2l-4.67-7h-1.8l4.67,7h-3.2L7.07,2h-1.8l4.67,7h-3.2L2.29,2.33c-.46.26-.83.65-1.05,1.13l3.7,5.54H1v10.5c0,1.38,1.12,2.5,2.5,2.5h17c1.38,0,2.5-1.12,2.5-2.5v-10.5h-1.27l-4.67-7Zm-7.07,17v-7l6,3.5-6,3.5Z"/></g><path d="M14.93 9 10.27 2 7.07 2 11.73 9 14.93 9z"/><path d="m20.5,2h-3.43l4.67,7h1.27v-4.5c0-1.38-1.12-2.5-2.5-2.5Z"/><path d="m1.24,3.46c-.15.32-.24.67-.24,1.04v4.5h3.93L1.24,3.46Z"/><path d="M19.93 9 15.27 2 12.07 2 16.73 9 19.93 9z"/><path d="m9.93,9L5.27,2h-1.77c-.44,0-.85.13-1.21.33l4.45,6.67h3.2Z"/><path d="M10 19 16 15.5 10 12 10 19z"/></svg>