<svg xmlns="http://www.w3.org/2000/svg" width="24" height="24" viewBox="0 0 24 24"><g opacity="0.4"><path d="m6.5,21.5c0,.52.27,1,.71,1.28.44.27.99.3,1.46.07l3.33-1.66,3.33,1.66c.21.11.44.16.67.16.27,0,.55-.08.79-.22.44-.27.71-.76.71-1.28v-4.39c-1.52,1.18-3.43,1.89-5.5,1.89s-3.98-.71-5.5-1.89v4.39Z"/><path d="M13.39 8.54 12 5.72 10.61 8.54 7.5 8.99 9.75 11.18 9.22 14.28 12 12.82 14.78 14.28 14.25 11.18 16.5 8.99 13.39 8.54z"/></g><path d="m12,1C7.04,1,3,5.04,3,10s4.04,9,9,9,9-4.04,9-9S16.96,1,12,1Zm2.78,13.28l-2.78-1.46-2.78,1.46.53-3.1-2.25-2.19,3.11-.45,1.39-2.82,1.39,2.82,3.11.45-2.25,2.19.53,3.1Z"/></svg>