<svg xmlns="http://www.w3.org/2000/svg" width="24" height="24" viewBox="0 0 24 24"><g opacity="0.4"><path d="m20.5,2H3.5c-1.38,0-2.5,1.12-2.5,2.5v13c0,1.38,1.12,2.5,2.5,2.5h2.5v1.5c0,.53.28,1.02.73,1.29.24.14.5.21.77.21.25,0,.49-.06.72-.18l5.16-2.82h7.12c1.38,0,2.5-1.12,2.5-2.5V4.5c0-1.38-1.12-2.5-2.5-2.5Zm-4.73,9.24l-3.77,3.7-3.77-3.7s-.04-.04-.07-.07c-.92-.95-.89-2.47.07-3.39.97-.96,2.54-.96,3.51,0l.25.25.25-.25c.97-.96,2.54-.96,3.51,0,.02.02.04.04.07.07.92.95.89,2.47-.07,3.39Z"/></g><path d="m12,14.94l3.77-3.7c.95-.92.98-2.43.07-3.39-.02-.02-.04-.04-.07-.07-.97-.96-2.54-.96-3.51,0l-.25.25-.25-.25c-.97-.96-2.54-.96-3.51,0-.95.92-.98,2.43-.07,3.39.02.02.04.04.07.07l3.77,3.7Z"/></svg>