<svg xmlns="http://www.w3.org/2000/svg" width="24" height="24" viewBox="0 0 24 24"><g opacity="0.4"><path d="m4,3.5v-1.5H1v1.5c0,5.56,4.14,10.15,9.5,10.89v-3.03c-3.7-.7-6.5-3.96-6.5-7.85Z"/><path d="m20,3.5c0,3.9-2.8,7.15-6.5,7.85v3.03c5.36-.74,9.5-5.33,9.5-10.89v-1.5h-3v1.5Z"/><path d="m8.75,3.5v-1.5h-3v1.5c0,3.05,2.03,5.6,4.75,6.3v-3.22c-1.03-.59-1.75-1.74-1.75-3.09Z"/><path d="m15.25,3.5c0,1.34-.72,2.5-1.75,3.09v3.22c2.72-.7,4.75-3.26,4.75-6.3v-1.5h-3v1.5Z"/></g><path d="M18 19 13.5 19 13.5 2 10.5 2 10.5 19 6 19 6 22 18 22 18 19z"/></svg>