<svg xmlns="http://www.w3.org/2000/svg" width="24" height="24" viewBox="0 0 24 24"><g opacity="0.4"><path d="m7.5,23h9c1.38,0,2.5-1.12,2.5-2.5V3.5c0-1.38-1.12-2.5-2.5-2.5H7.5c-1.38,0-2.5,1.12-2.5,2.5v17c0,1.38,1.12,2.5,2.5,2.5ZM15.5,4.5c.28,0,.5.22.5.5s-.22.5-.5.5-.5-.22-.5-.5.22-.5.5-.5Zm-6.5-.5h4c.55,0,1,.45,1,1s-.45,1-1,1h-4c-.55,0-1-.45-1-1s.45-1,1-1Z"/></g><path d="m9,4c-.55,0-1,.45-1,1s.45,1,1,1h4c.55,0,1-.45,1-1s-.45-1-1-1h-4Z"/><path d="M15.5 4.5A.5.5 0 1 0 15.5 5.5.5.5 0 1 0 15.5 4.5z"/></svg>