<svg xmlns="http://www.w3.org/2000/svg" width="24" height="24" viewBox="0 0 24 24"><g opacity="0.4"><path d="m12,1C5.93,1,1,5.93,1,12c0,2.22.68,4.38,1.92,6.2l-1.67,2.45c-.31.46-.34,1.05-.08,1.54.26.49.77.8,1.33.8h9.5c6.07,0,11-4.93,11-11S18.07,1,12,1Zm4.56,13.44l-2.12,2.12-2.44-2.44-2.44,2.44-2.12-2.12,2.44-2.44-2.44-2.44,2.12-2.12,2.44,2.44,2.44-2.44,2.12,2.12-2.44,2.44,2.44,2.44Z"/></g><path d="M14.44 7.44 12 9.88 9.56 7.44 7.44 9.56 9.88 12 7.44 14.44 9.56 16.56 12 14.12 14.44 16.56 16.56 14.44 14.12 12 16.56 9.56 14.44 7.44z"/></svg>