<svg xmlns="http://www.w3.org/2000/svg" width="24" height="24" viewBox="0 0 24 24"><g opacity="0.4"><path d="m19.5,2H4.5c-1.38,0-2.5,1.12-2.5,2.5v4.5h20v-4.5c0-1.38-1.12-2.5-2.5-2.5ZM7,7c-.83,0-1.5-.67-1.5-1.5s.67-1.5,1.5-1.5,1.5.67,1.5,1.5-.67,1.5-1.5,1.5Zm5,0c-.83,0-1.5-.67-1.5-1.5s.67-1.5,1.5-1.5,1.5.67,1.5,1.5-.67,1.5-1.5,1.5Zm5,0c-.83,0-1.5-.67-1.5-1.5s.67-1.5,1.5-1.5,1.5.67,1.5,1.5-.67,1.5-1.5,1.5Z"/></g><path d="M7 4A1.5 1.5 0 1 0 7 7 1.5 1.5 0 1 0 7 4z"/><path d="M17 4A1.5 1.5 0 1 0 17 7 1.5 1.5 0 1 0 17 4z"/><path d="M12 4A1.5 1.5 0 1 0 12 7 1.5 1.5 0 1 0 12 4z"/><path d="m2,19.5c0,1.38,1.12,2.5,2.5,2.5h15c1.38,0,2.5-1.12,2.5-2.5v-10.5H2v10.5Zm5-7.5h10v3H7v-3Z"/></svg>