<svg xmlns="http://www.w3.org/2000/svg" width="24" height="24" viewBox="0 0 24 24"><g opacity="0.4"><path d="m8.27,10.11c-.34.11-.59.39-.66.73l-2.25,10.13.55.55,5.65-5.65c-.03-.12-.06-.25-.06-.38,0-.83.67-1.5,1.5-1.5s1.5.67,1.5,1.5-.67,1.5-1.5,1.5c-.13,0-.26-.02-.38-.06l-5.65,5.65.55.55,10.13-2.25c.34-.08.62-.33.73-.66l1.95-5.95-6.12-6.12-5.95,1.95Z"/></g><path d="M7 10 7 7 10 7 10 4 7 4 7 1 4 1 4 4 1 4 1 7 4 7 4 10 7 10z"/><path d="m18.65,6.56c-.78-.78-2.05-.78-2.83,0l-1.6,1.6,1.53,1.53,4.59,4.59,1.6-1.6c.78-.78.78-2.05,0-2.83l-3.29-3.29Z"/><path d="m5.91,21.53l1.06,1.06,5.65-5.65c.12.03.25.06.38.06.83,0,1.5-.67,1.5-1.5s-.67-1.5-1.5-1.5-1.5.67-1.5,1.5c0,.13.02.26.06.38l-5.65,5.65Z"/></svg>