<svg xmlns="http://www.w3.org/2000/svg" width="24" height="24" viewBox="0 0 24 24"><g opacity="0.4"><path d="m22.33,16.8l-5.18-3.46c-.61-.41-1.43-.31-1.93.23l-1.74,1.88c-.79-.48-1.9-1.24-2.8-2.13-.89-.9-1.65-2.01-2.13-2.8l1.88-1.74c.54-.5.64-1.32.23-1.93L7.2,1.67c-.22-.33-.57-.57-.97-.64-.39-.07-.8.01-1.13.24L1.65,3.65c-.39.27-.62.71-.65,1.17-.03.77-.16,7.63,5.18,12.98,4.83,4.83,10.92,5.19,12.6,5.19.18,0,.31,0,.38,0,.47-.02.9-.26,1.17-.64l2.39-3.45c.23-.33.32-.74.24-1.13-.08-.4-.31-.74-.64-.97Z"/></g><path d="M18 4 14 4 14 7 18 7 18 10 23 5.5 18 1 18 4z"/></svg>