<svg xmlns="http://www.w3.org/2000/svg" width="24" height="24" viewBox="0 0 24 24"><g opacity="0.4"><path d="m21.5,8H2.5c-.83,0-1.5.67-1.5,1.5v2c0,.83.67,1.5,1.5,1.5h19c.83,0,1.5-.67,1.5-1.5v-2c0-.83-.67-1.5-1.5-1.5Z"/></g><path class="st0" d="M11.2,5.7V8h1.5V5.6c0.8-0.1,1.9-0.3,2.8-1.1C17,3.3,17,1,17,1s-2.4-0.2-3.8,1.1c-0.8,0.7-1.1,1.7-1.3,2.4
	c-0.1-0.6-0.4-1.2-0.9-1.7C9.9,1.7,8,1.8,8,1.8S7.9,3.7,9,4.7C9.6,5.4,10.6,5.6,11.2,5.7L11.2,5.7z"/><path class="st0" d="M21.5,13h-19c-0.1,0-0.2,0-0.2,0l2.3,8.9C4.7,22.5,5.3,23,6,23h0H18c0.7,0,1.3-0.5,1.5-1.1l2.3-8.9
	C21.7,13,21.6,13,21.5,13z"/></svg>