<svg xmlns="http://www.w3.org/2000/svg" width="24" height="24" viewBox="0 0 24 24"><g opacity="0.4"><path d="m12.5,2H3.5c-1.38,0-2.5,1.12-2.5,2.5v15c0,1.38,1.12,2.5,2.5,2.5h9c1.38,0,2.5-1.12,2.5-2.5V4.5c0-1.38-1.12-2.5-2.5-2.5Zm-.5,7H4v-4h8v4Z"/></g><path d="m17.47,2.41l-.94,1.17,3.87,3.1c.54.43.84,1.07.84,1.76v10.56c0,.69-.56,1.25-1.25,1.25s-1.25-.56-1.25-1.25v-4c0-1.52-1.23-2.75-2.75-2.75h-1v1.5h1c.69,0,1.25.56,1.25,1.25v4c0,1.52,1.23,2.75,2.75,2.75s2.75-1.23,2.75-2.75v-10.56c0-1.15-.51-2.21-1.41-2.93l-3.87-3.1Z"/><path d="M4 5H12V9H4z"/></svg>