<svg xmlns="http://www.w3.org/2000/svg" width="24" height="24" viewBox="0 0 24 24"><g opacity="0.4"><path d="m13.16,8.22l-7.72,7.72c-.28.28-.44.66-.44,1.06v3.5c0,.83.67,1.5,1.5,1.5h3.5c.4,0,.78-.16,1.06-.44l7.72-7.72-5.62-5.62Z"/><path d="m19.06,4.44c-.59-.59-1.54-.59-2.12,0l-2.72,2.72,5.62,5.62,2.72-2.72c.59-.59.59-1.54,0-2.12l-3.5-3.5Z"/></g><path class="st0" d="M10.5,5.2L7.9,4.1L6.8,1.5C6.7,1.2,6.4,1,6,1l0,0C5.7,1,5.3,1.2,5.2,1.5L4.1,4L1.5,5.2C1.2,5.4,1,5.7,1,6
	c0,0.3,0.2,0.7,0.5,0.8l2.5,1.1l1.1,2.5C5.3,10.8,5.7,11,6,11s0.7-0.2,0.8-0.5l1.1-2.5l2.5-1.1C10.8,6.7,11,6.3,11,6
	S10.8,5.3,10.5,5.2L10.5,5.2z"/><path class="st0" d="M22.7,19.5l-1.5-0.7l-0.7-1.5C20.4,17.1,20.2,17,20,17l0,0c-0.2,0-0.4,0.1-0.5,0.3l-0.7,1.5l-1.5,0.7
	C17.1,19.6,17,19.8,17,20c0,0.2,0.1,0.4,0.3,0.5l1.5,0.7l0.7,1.5c0.1,0.2,0.3,0.3,0.5,0.3s0.4-0.1,0.5-0.3l0.7-1.5l1.5-0.7
	c0.2-0.1,0.3-0.3,0.3-0.5S22.9,19.6,22.7,19.5L22.7,19.5z"/><path class="st0" d="M13.2 8.2 13.7 7.7 14.2 7.2 17 10 19.8 12.8 19.3 13.3 18.8 13.8 16 11z"/></svg>