<svg xmlns="http://www.w3.org/2000/svg" width="24" height="24" viewBox="0 0 24 24"><g opacity="0.4"><path d="m19.5,2H4.5c-1.38,0-2.5,1.12-2.5,2.5v15c0,1.38,1.12,2.5,2.5,2.5h15c1.38,0,2.5-1.12,2.5-2.5V4.5c0-1.38-1.12-2.5-2.5-2.5Zm-10,15h-2.5v-2.5l4.78-4.78,2.5,2.5-4.78,4.78Zm5.66-5.66l-2.5-2.5,1.84-1.84,2.5,2.5-1.84,1.84Z"/></g><path d="M14.28 12.22 11.78 9.72 7 14.5 7 17 9.5 17 14.28 12.22z"/><path d="M15.16 11.34 16.08 10.42 17 9.5 15.75 8.25 14.5 7 13.58 7.92 12.66 8.84 13.91 10.09 15.16 11.34z"/></svg>