<svg xmlns="http://www.w3.org/2000/svg" width="24" height="24" viewBox="0 0 24 24"><g opacity="0.4"><path d="m11.38,6.5h-4.76c-.45,0-.85.3-.96.74l-3.33,12.21.58.58,6.15-6.15c-.03-.12-.06-.25-.06-.38,0-.83.67-1.5,1.5-1.5s1.5.67,1.5,1.5-.67,1.5-1.5,1.5c-.13,0-.26-.02-.38-.06l-6.15,6.15.59.59,12.21-3.33c.44-.12.74-.51.74-.96v-4.76l1.03-1.03-6.12-6.12-1.03,1.03Z"/></g><path d="m3.97,21.09l6.15-6.15c.12.03.25.06.38.06.83,0,1.5-.67,1.5-1.5s-.67-1.5-1.5-1.5-1.5.67-1.5,1.5c0,.13.02.26.06.38l-6.15,6.15,1.06,1.06Z"/><path d="m20.05,3.93l-1.3-1.29c-.98-.97-2.56-.97-3.53,0l-2.81,2.82,6.12,6.12,2.82-2.83c.98-.98.97-2.56,0-3.54l-1.29-1.29Z"/></svg>