<svg xmlns="http://www.w3.org/2000/svg" width="24" height="24" viewBox="0 0 24 24"><g opacity="0.4"><path d="m8.27,10.11c-.34.11-.59.39-.66.73l-2.25,10.13.55.55,5.65-5.65c-.03-.12-.06-.25-.06-.38,0-.83.67-1.5,1.5-1.5s1.5.67,1.5,1.5-.67,1.5-1.5,1.5c-.13,0-.26-.02-.38-.06l-5.65,5.65.55.55,10.13-2.25c.34-.08.62-.33.73-.66l1.95-5.95-6.12-6.12-5.95,1.95Z"/></g><path d="m18.65,6.56c-.78-.78-2.05-.78-2.83,0l-1.6,1.6,1.53,1.53,4.59,4.59,1.6-1.6c.78-.78.78-2.05,0-2.83l-3.29-3.29Z"/><path d="m7.45,23.07l-.48-.48,5.65-5.65c.12.03.25.06.38.06.83,0,1.5-.67,1.5-1.5s-.67-1.5-1.5-1.5-1.5.67-1.5,1.5c0,.13.02.26.06.38l-5.65,5.65-.55-.55.19-.86c-.29-.05-.56-.15-.79-.32-.53-.4-.8-1.21-.8-2.41,0-1.77.78-3.93,1.54-6.01,1.16-3.19,2.25-6.21.73-8.37C5.27,1.66,3.54,1,.91,1v3c1.49,0,2.53.27,2.85.73.62.89-.33,3.52-1.09,5.63-.84,2.33-1.72,4.74-1.72,7.03s.67,3.82,2,4.81c1.03.77,2.23.98,3.19.98.52,0,.96-.06,1.29-.12Z"/></svg>