<svg xmlns="http://www.w3.org/2000/svg" width="24" height="24" viewBox="0 0 24 24"><g opacity="0.4"><path d="M4.5 6A2.5 2.5 0 1 0 4.5 11 2.5 2.5 0 1 0 4.5 6z"/><path d="M19.5 6A2.5 2.5 0 1 0 19.5 11 2.5 2.5 0 1 0 19.5 6z"/><path d="m20,12h-1.2c-1,0-1.94.5-2.5,1.34l-3.11,4.66h-2.39l-3.11-4.67c-.56-.84-1.49-1.33-2.5-1.33h-1.2c-1.65,0-3,1.35-3,3v6h6v-3.3l1.46,2.18c.46.7,1.24,1.11,2.08,1.11h2.93c.84,0,1.62-.42,2.08-1.11l1.46-2.18v3.3h6v-6c0-1.65-1.35-3-3-3Z"/></g><path d="M12 3A2.5 2.5 0 1 0 12 8 2.5 2.5 0 1 0 12 3z"/><path d="m9,11.76c.13.15.25.3.36.47l2.52,3.77h.25l2.52-3.77c.11-.16.23-.32.36-.47v-.76c0-1.1-.9-2-2-2h-2c-1.1,0-2,.9-2,2v.76Z"/></svg>