<svg xmlns="http://www.w3.org/2000/svg" width="24" height="24" viewBox="0 0 24 24"><g opacity="0.4"><path d="m20.6,14.09c.19-.47.29-.99.29-1.53,0-1.81-1.16-3.35-2.78-3.92.02-.46-.05-.91-.21-1.34-.58-1.57-2.25-2.43-3.63-3.01-1.5-.63-1.61-1.71-1.61-1.79,0-.52-.27-1-.7-1.27-.44-.27-.99-.3-1.45-.08-.42.21-4.18,2.11-4.95,5.29-.15.61-.22,1.42.02,2.33-1.45.65-2.46,2.1-2.46,3.79,0,.54.1,1.06.29,1.53-1.42.66-2.4,2.1-2.4,3.76,0,2.29,1.86,4.15,4.14,4.15h13.72c2.28,0,4.14-1.86,4.14-4.15,0-1.67-.99-3.11-2.4-3.76Z"/></g></svg>