<svg xmlns="http://www.w3.org/2000/svg" width="24" height="24" viewBox="0 0 24 24"><g opacity="0.4"><path d="m5.75,5.5h-3.75v3.75c2.07,0,3.75-1.68,3.75-3.75Z"/><path d="m20.5,1H3.5c-.83,0-1.5.67-1.5,1.5v1.5h20v-1.5c0-.83-.67-1.5-1.5-1.5Z"/><path d="m22,9.25v1.5c-2.89,0-5.25-2.35-5.25-5.25H7.25c0,2.9-2.36,5.25-5.25,5.25v10.75c0,.83.67,1.5,1.5,1.5h4.31c.7,0,1.3-.48,1.46-1.16l2.73-11.84,2.73,11.84c.16.68.76,1.16,1.46,1.16h4.31c.83,0,1.5-.67,1.5-1.5V5.5h-3.75c0,2.07,1.68,3.75,3.75,3.75Z"/></g><path d="m2,5.5h3.75c0,2.07-1.68,3.75-3.75,3.75v1.5c2.89,0,5.25-2.35,5.25-5.25h9.5c0,2.9,2.36,5.25,5.25,5.25v-1.5c-2.07,0-3.75-1.68-3.75-3.75h3.75v-1.5H2v1.5Z"/></svg>