<svg xmlns="http://www.w3.org/2000/svg" width="24" height="24" viewBox="0 0 24 24"><g opacity="0.4"><path d="m17.06,2.71l-2.55,2.55-9.94-1.1c-.15-.02-.3.04-.41.14l-1.43,1.43c-.25.25-.17.67.16.81l7.24,3.1-3.82,3.82-3.12-.78c-.17-.04-.35,0-.47.13l-.72.72c-.24.24-.18.65.13.8l5.04,2.52,2.52,5.04c.15.31.56.37.8.13l.72-.72c.12-.12.17-.3.13-.47l-.78-3.12,3.82-3.82,3.1,7.24c.14.33.56.41.81.16l1.43-1.43c.11-.11.16-.26.14-.41l-1.1-9.94,2.43-2.43c1.15-1.15,1.32-3.04.23-4.25-1.16-1.29-3.14-1.33-4.35-.12Z"/></g></svg>