<svg xmlns="http://www.w3.org/2000/svg" width="24" height="24" viewBox="0 0 24 24"><g opacity="0.4"><path d="m12,1C5.93,1,1,5.93,1,12c0,3.41,1.56,6.46,4,8.48v-4.65c0-.21.07-.42.19-.59l6-8.14c.4-.54,1.21-.54,1.61,0l6,8.14c.13.17.19.38.19.59v4.65c2.44-2.02,4-5.07,4-8.48,0-6.07-4.93-11-11-11Z"/></g><path d="m19,20.48v-4.65c0-.1-.02-.2-.05-.29l-3.45,2.47-3.5-3-3.5,3-3.45-2.47c-.03.1-.05.19-.05.29v4.65c1.9,1.57,4.34,2.52,7,2.52s5.1-.95,7-2.52Z"/><path d="m12.81,7.09c-.4-.54-1.21-.54-1.61,0l-1.41,1.91h4.42l-1.41-1.91Z"/></svg>