<svg xmlns="http://www.w3.org/2000/svg" width="24" height="24" viewBox="0 0 24 24"><g opacity="0.4"><path d="m15.58,2c-2.23,0-4.11,1.67-4.37,3.89l-1.4,11.88c-.08.71-.68,1.24-1.39,1.24s-1.26-.48-1.38-1.15l-.24-1.3c-.55.28-1.15.45-1.81.45-.42,0-.82-.08-1.2-.2l.29,1.59c.38,2.09,2.2,3.61,4.33,3.61s4.11-1.67,4.37-3.89l1.4-11.88c.08-.71.68-1.24,1.39-1.24s1.26.48,1.38,1.15l.24,1.3c.55-.28,1.15-.45,1.81-.45.42,0,.82.08,1.2.2l-.29-1.59c-.38-2.09-2.2-3.61-4.33-3.61Z"/></g><path d="M5 9A4 4 0 1 0 5 17 4 4 0 1 0 5 9z"/><path d="M19 7A4 4 0 1 0 19 15 4 4 0 1 0 19 7z"/></svg>