<svg xmlns="http://www.w3.org/2000/svg" width="24" height="24" viewBox="0 0 24 24"><g opacity="0.4"><path d="m20.5,1H5.5c-1.93,0-3.5,1.57-3.5,3.5v14.5c0,2.21,1.79,4,4,4h16v-3H6c-.55,0-1-.45-1-1s.45-1,1-1h14.5c.83,0,1.5-.67,1.5-1.5V2.5c0-.83-.67-1.5-1.5-1.5Zm-12.5,4c1.1,0,2,.9,2,2s-.9,2-2,2-2-.9-2-2,.9-2,2-2Zm-2,9l2.95-3.6,1.77,1.8,3.55-4.2,4.73,6H6Z"/></g><path class="st0" d="M14.3 8 10.7 12.2 8.9 10.4 6 14 19 14z"/><path class="st0" d="M8 5A2 2 0 1 0 8 9 2 2 0 1 0 8 5z"/><path class="st1" d="M6,20h14c-0.5,0-1-0.5-1-1s0.5-1,1-1H6c-0.6,0-1,0.5-1,1S5.4,20,6,20z"/></svg>