<svg xmlns="http://www.w3.org/2000/svg" width="24" height="24" viewBox="0 0 24 24"><g opacity="0.4"><path d="m16.06,1.44c-.59-.59-1.54-.59-2.12,0l-2,2c-.59.59-.59,1.54,0,2.12l.44.44-3.38,3.38-.44-.44c-.59-.59-1.54-.59-2.12,0l-2,2c-.59.59-.59,1.54,0,2.12l6.5,6.5c.29.29.68.44,1.06.44s.77-.15,1.06-.44l2-2c.59-.59.59-1.54,0-2.12l-.44-.44,3.38-3.38.44.44c.59.59,1.54.59,2.12,0l2-2c.59-.59.59-1.54,0-2.12l-6.5-6.5Z"/></g><path class="st0" d="M1.4 20.4 4 17.8 6.6 15.2 7.7 16.3 8.8 17.4 6.2 20 3.6 22.6 2.5 21.5z"/></svg>