<svg xmlns="http://www.w3.org/2000/svg" width="24" height="24" viewBox="0 0 24 24"><g opacity="0.4"><path d="m12.47,6.53l-.31-.31L3.94,14.44c-.2.2-.34.46-.4.74l-1,4.5c-.11.5.04,1.02.4,1.39.28.28.67.44,1.06.44.11,0,.22-.01.33-.04l4.5-1c.28-.06.53-.2.74-.4l8.22-8.22-5.31-5.31Z"/><path d="m20.85,5.23l-2.09-2.09c-.97-.97-2.56-.97-3.54,0l-2.01,2.01.31.31,5.31,5.31,2.01-2.01c.97-.97.97-2.56,0-3.54Z"/></g><path d="m16.53,8.47l-3-3-.31-.31-.69-.69-1-1c-.29-.29-.77-.29-1.06,0l-6,6,1.06,1.06,5.47-5.47.47.47.69.69.31.31,3,3,2.31,2.31,1.06-1.06-2.31-2.31Z"/></svg>