<svg xmlns="http://www.w3.org/2000/svg" width="24" height="24" viewBox="0 0 24 24"><g opacity="0.4"><path d="m17.5,12.99h-6.49v-6.49c0-.42-.17-.81-.47-1.09-.3-.28-.71-.43-1.12-.4-2.18.14-4.23,1.07-5.77,2.61-1.7,1.7-2.64,3.97-2.64,6.37s.94,4.67,2.64,6.37c1.7,1.7,3.96,2.64,6.37,2.64s4.67-.94,6.37-2.64c1.54-1.54,2.47-3.59,2.61-5.77.03-.41-.12-.82-.4-1.12s-.68-.47-1.09-.47Z"/></g><path d="m14.5,1.5c-.83,0-1.5.67-1.5,1.5v7c0,.83.67,1.5,1.5,1.5h7c.83,0,1.5-.67,1.5-1.5,0-4.69-3.81-8.5-8.5-8.5Z"/></svg>