<svg xmlns="http://www.w3.org/2000/svg" width="24" height="24" viewBox="0 0 24 24"><g opacity="0.4"><path d="m22.2,6.17L12.7,1.17c-.44-.23-.96-.23-1.4,0l-3.44,1.81,10.34,5.44c.49.26.8.77.8,1.33v4.57l-3,1.58v-4.64c0-.37-.21-.71-.53-.88L4.64,4.68l-2.84,1.5c-.27.14-.48.37-.62.63l10.02,5.27c.49.26.8.77.8,1.33v9.59c.24,0,.48-.06.7-.17l9.5-5c.49-.26.8-.77.8-1.33V7.5c0-.56-.31-1.07-.8-1.33Z"/></g><path d="m1.8,17.83l9.5,5c.22.12.46.17.7.17v-9.59c0-.56-.31-1.07-.8-1.33L1.18,6.81c-.11.21-.18.45-.18.69v9c0,.56.31,1.07.8,1.33Z"/><path d="m16,11.26v4.64l3-1.58v-4.57c0-.56-.31-1.07-.8-1.33L7.86,2.98l-3.22,1.69,10.82,5.7c.33.17.53.51.53.88Z"/></svg>