<svg xmlns="http://www.w3.org/2000/svg" width="24" height="24" viewBox="0 0 24 24"><g opacity="0.4"><path d="m8.5,9.5h-4.31c.15-.5.41-1.05.86-1.54.91-.97,2.41-1.46,4.45-1.46v-1.5h0,0v-1.5c-2.94,0-5.19.83-6.69,2.46-1.94,2.11-1.83,4.8-1.81,5.14v6.91c0,1.38,1.12,2.5,2.5,2.5h5c1.38,0,2.5-1.12,2.5-2.5v-6c0-1.38-1.12-2.5-2.5-2.5Z"/></g><path d="m20.51,9.5h-4.31c.15-.5.41-1.05.86-1.54.91-.97,2.41-1.46,4.45-1.46v-1.5h0,0v-1.5c-2.94,0-5.19.83-6.69,2.46-1.94,2.11-1.83,4.8-1.81,5.14v6.91c0,1.38,1.12,2.5,2.5,2.5h5c1.38,0,2.5-1.12,2.5-2.5v-6c0-1.38-1.12-2.5-2.5-2.5Z"/></svg>