<svg xmlns="http://www.w3.org/2000/svg" width="24" height="24" viewBox="0 0 24 24"><g opacity="0.4"><path d="m21.27,14.17l-2.63,1.45.9,1.63c.05.08.07.17.06.26,0,.08-.03.16-.07.24-.04.07-.1.14-.18.18-.07.04-.16.07-.25.07h-6.11v3h6.11c.63,0,1.25-.17,1.79-.49.5-.3.93-.73,1.23-1.23.3-.51.47-1.09.49-1.67.02-.62-.13-1.25-.44-1.8l-.9-1.63Z"/><path d="m17.83,7.94l-2.76-5c-.32-.57-.78-1.04-1.34-1.35-1.05-.59-2.41-.59-3.45,0-.56.32-1.02.78-1.34,1.36l-.88,1.58,2.63,1.45.87-1.58c.05-.09.11-.15.19-.19.15-.08.35-.08.5,0,.08.04.14.11.19.19l2.79,5.05,2.6-1.5Z"/><path d="m7.33,12.06l-2.6-1.5-2.9,5.25c-.31.55-.46,1.18-.44,1.8.02.59.19,1.17.49,1.67.3.51.73.94,1.23,1.24.54.32,1.15.49,1.79.49h1.78v-3h-1.78c-.1,0-.18-.02-.25-.07-.07-.04-.13-.1-.18-.18-.04-.07-.07-.16-.07-.24,0-.09.02-.17.06-.25l2.87-5.2Z"/></g><path d="M13 16 8 19.5 13 23 13 16z"/><path d="M19.53 6.96 13.47 10.46 19 13.04 19.53 6.96z"/><path d="M8.5 6.96 2.97 9.54 9.03 13.04 8.5 6.96z"/></svg>