<svg xmlns="http://www.w3.org/2000/svg" width="24" height="24" viewBox="0 0 24 24"><g opacity="0.4"><path d="M12 6.970000000000001A5 5 0 1 0 12 16.97 5 5 0 1 0 12 6.970000000000001z"/></g><path d="m15.67,15.33c-.91,1-2.22,1.64-3.67,1.64s-2.76-.64-3.67-1.64l-2.37,4.11c-.41.72-.17,1.63.54,2.05,1.66.97,3.57,1.48,5.51,1.48s3.84-.51,5.51-1.48c.71-.42.96-1.33.54-2.05l-2.37-4.11Z"/><path d="m7,11.97c0-2.38,1.68-4.38,3.92-4.87l-2.36-4.1c-.42-.72-1.33-.96-2.04-.55-1.67.96-3.07,2.35-4.04,4.03-.97,1.68-1.48,3.59-1.47,5.51,0,.83.67,1.49,1.5,1.49h4.75c-.15-.48-.26-.98-.26-1.5Z"/><path d="m17.49,2.44c-.71-.41-1.63-.16-2.04.55l-2.36,4.1c2.24.5,3.92,2.49,3.92,4.87,0,.53-.1,1.02-.26,1.5h4.75c.83,0,1.5-.66,1.5-1.49,0-1.92-.5-3.83-1.47-5.51-.97-1.68-2.37-3.07-4.04-4.03Z"/></svg>