<svg xmlns="http://www.w3.org/2000/svg" width="24" height="24" viewBox="0 0 24 24"><g opacity="0.4"><path d="m18,17.5V4.5c0-1.38-1.12-2.5-2.5-2.5H3.5c-1.38,0-2.5,1.12-2.5,2.5v13c0,2.48,2.02,4.5,4.5,4.5h13.5c.61,0,1.17-.15,1.69-.39-1.58-.7-2.69-2.27-2.69-4.11Zm-4,.5h-5v-3h5v3Zm0-4.5H5v-3h9v3Zm0-4.5H5v-3h9v3Z"/></g><path d="m21.5,10.5h-3.5v7c0,1.84,1.11,3.42,2.69,4.11,1.36-.64,2.31-2.01,2.31-3.61v-6c0-.83-.67-1.5-1.5-1.5Z"/><path d="M9 15H14V18H9z"/><path d="M5 6H14V9H5z"/><path d="M5 10.5H14V13.5H5z"/></svg>