<svg xmlns="http://www.w3.org/2000/svg" width="24" height="24" viewBox="0 0 24 24"><g opacity="0.4"><path d="m22.5,6h-3.75v5.75h-1.5v-5.75h-2.5v4.75h-1.5v-4.75h-2.5v5.75h-1.5v-5.75h-2.5v4.75h-1.5v-4.75H1.5c-.83,0-1.5.67-1.5,1.5v9c0,.83.67,1.5,1.5,1.5h21c.83,0,1.5-.67,1.5-1.5V7.5c0-.83-.67-1.5-1.5-1.5Z"/></g><path d="M13.25 6H14.75V10.75H13.25z"/><path d="M10.75 7.75 10.75 6 9.25 6 9.25 7.75 9.25 11.75 10.75 11.75 10.75 7.75z"/><path d="M18.75 7.75 18.75 6 17.25 6 17.25 7.75 17.25 11.75 18.75 11.75 18.75 7.75z"/><path d="M5.25 6H6.75V10.75H5.25z"/></svg>