<svg xmlns="http://www.w3.org/2000/svg" width="24" height="24" viewBox="0 0 24 24"><g opacity="0.4"><path d="M12 1A3 3 0 1 0 12 7 3 3 0 1 0 12 1z"/><path d="m21.5,7c-.22,0-5.08.03-9.5,2.12v13.88c.13,0,.25-.02.38-.05.04,0,.07-.03.11-.04.05-.02.11-.03.16-.06,4.68-2.25,8.76-2.15,8.8-2.15.41.02.8-.14,1.1-.42.29-.28.46-.67.46-1.08v-10.71c0-.83-.67-1.5-1.5-1.5Z"/></g><path d="m11.51,22.91s.07.03.11.04c.12.03.25.05.38.05v-13.88C7.58,7.03,2.72,7,2.5,7c-.83,0-1.5.67-1.5,1.5v10.71c0,.41.17.79.46,1.08.29.28.69.45,1.09.42.04,0,4.12-.1,8.8,2.15.05.03.11.04.16.06Z"/></svg>