<svg xmlns="http://www.w3.org/2000/svg" width="24" height="24" viewBox="0 0 24 24"><g opacity="0.4"><path d="m4.22,19.78c1.01,1.01,2.18,1.8,3.5,2.36,1.36.57,2.8.87,4.28.87v-3c-1.08,0-2.13-.21-3.11-.63-.95-.4-1.81-.98-2.54-1.72s-1.31-1.59-1.71-2.54c-.42-.99-.63-2.03-.63-3.11s.21-2.13.63-3.11c.4-.95.98-1.81,1.72-2.54.17-.17.34-.33.52-.48l2.13,2.13V1H2l2.75,2.75c-.18.16-.36.31-.52.48-1.01,1.01-1.8,2.18-2.36,3.5-.57,1.36-.86,2.8-.86,4.28s.29,2.92.87,4.28c.55,1.31,1.35,2.49,2.36,3.5Z"/></g><path d="m19.78,4.22c-1.01-1.01-2.18-1.8-3.5-2.36-1.36-.57-2.8-.87-4.28-.87v3c1.08,0,2.13.21,3.11.63.95.4,1.81.98,2.54,1.72s1.31,1.59,1.71,2.54c.42.99.63,2.03.63,3.11s-.21,2.13-.63,3.11c-.4.95-.98,1.81-1.72,2.54-.17.17-.34.33-.52.48l-2.13-2.13v7h7l-2.75-2.75c.18-.16.36-.31.52-.48,1.01-1.01,1.8-2.18,2.36-3.5.57-1.36.86-2.8.86-4.28s-.29-2.92-.87-4.28c-.55-1.31-1.35-2.49-2.36-3.5Z"/></svg>