<svg xmlns="http://www.w3.org/2000/svg" width="24" height="24" viewBox="0 0 24 24"><g opacity="0.4"><path d="m12,1C5.92,1,1,5.25,1,10.5c0,2.52,1.14,4.81,3,6.51v3.99c0,.55.45,1,1,1h2v-4h1.5v4h2.75v-4h1.5v4h2.75v-4h1.5v4h2c.55,0,1-.45,1-1v-3.99c1.86-1.7,3-3.99,3-6.51,0-5.25-4.92-9.5-11-9.5Zm-4.5,12c-1.38,0-2.5-1.34-2.5-3s1.12-3,2.5-3,2.5,1.34,2.5,3-1.12,3-2.5,3Zm9,0c-1.38,0-2.5-1.34-2.5-3s1.12-3,2.5-3,2.5,1.34,2.5,3-1.12,3-2.5,3Z"/></g><path d="M7 18H8.5V22H7z"/><path d="M15.5 18H17V22H15.5z"/><path d="M11.25 18H12.75V22H11.25z"/><path d="M7.5 7A2.5 3 0 1 0 7.5 13 2.5 3 0 1 0 7.5 7z"/><path d="M16.5 7A2.5 3 0 1 0 16.5 13 2.5 3 0 1 0 16.5 7z"/></svg>