<svg xmlns="http://www.w3.org/2000/svg" width="24" height="24" viewBox="0 0 24 24"><g opacity="0.4"><path d="m20.08,14.68c-.07.22-1.91,5.32-8.08,5.32-2.44,0-2.77-1.21-2.89-1.67-.05-.2-.09-.42-.11-.65,3.97-.53,8.37-2.83,10-5.65,1.08-1.88.84-3.81-.66-5.32-1.61-1.61-3.8-1.81-5.99-.54-2.6,1.5-5.12,5.05-6.01,8.54-.15-.03-.3-.06-.45-.1-1.3-.35-1.88-1.16-1.88-2.63,0-5.24,6.38-8.08,6.48-8.12l1.38-.59-1.18-2.76-1.38.59c-.34.15-8.3,3.64-8.3,10.88,0,2.81,1.5,4.83,4.11,5.52.29.08.58.14.89.18.03.48.1.95.22,1.4.39,1.45,1.66,3.89,5.79,3.89,6.7,0,10.07-4.81,10.92-7.36l.47-1.42-2.83-.95-.49,1.41Zm-6.24-5.91c.54-.31.97-.42,1.31-.42.57,0,.89.31,1.06.49.45.45.64.9.18,1.69-.96,1.66-3.99,3.39-6.87,4.03.83-2.32,2.51-4.74,4.32-5.78Z"/></g></svg>