<svg xmlns="http://www.w3.org/2000/svg" width="24" height="24" viewBox="0 0 24 24"><g opacity="0.4"><path d="m5.37,10.99c.23,1.17,1.26,2.01,2.45,2.01h8.36c1.19,0,2.22-.84,2.45-2.01l1-4.99H4.37l1,4.99Z"/></g><path d="m11.33,18.66c-.51,1.01-1.08,2.16-1.08,4.34h1.5c0-1.82.45-2.72.92-3.66.51-1.01,1.08-2.16,1.08-4.34h-1.5c0,1.82-.45,2.72-.92,3.66Z"/><path d="m7.83,18.66c-.51,1.01-1.08,2.16-1.08,4.34h1.5c0-1.82.45-2.72.92-3.66.51-1.01,1.08-2.16,1.08-4.34h-1.5c0,1.82-.45,2.72-.92,3.66Z"/><path d="m16.17,19.34c.51-1.01,1.08-2.16,1.08-4.34h-1.5c0,1.82-.45,2.72-.92,3.66-.51,1.01-1.08,2.16-1.08,4.34h1.5c0-1.82.45-2.72.92-3.66Z"/><rect x="1" y="1" width="22" height="5" rx="1.5" ry="1.5"/></svg>