<svg xmlns="http://www.w3.org/2000/svg" width="24" height="24" viewBox="0 0 24 24"><g opacity="0.4"><path d="m3,20.95v.55c0,.83.67,1.5,1.5,1.5h1c.83,0,1.5-.67,1.5-1.5v-.5h-3.5c-.17,0-.34-.02-.5-.05Z"/><path d="m17,21v.5c0,.83.67,1.5,1.5,1.5h1c.83,0,1.5-.67,1.5-1.5v-.55c-.16.03-.33.05-.5.05h-3.5Z"/><path d="m1,7.5v3c0,.28.22.5.5.5h.32l.18-.35v-3.65h-.5c-.28,0-.5.22-.5.5Z"/><path d="m22.5,7h-.5v3.65l.18.35h.32c.28,0,.5-.22.5-.5v-3c0-.28-.22-.5-.5-.5Z"/><path d="M12.75 6H19V11H12.75z"/><path d="M5 6H11.25V11H5z"/></g><path d="m22,10.65v-5.15c0-2.48-2.02-4.5-4.5-4.5H6.5c-2.48,0-4.5,2.02-4.5,4.5v5.15l-.63,1.26c-.24.48-.37,1.02-.37,1.56v5.03c0,1.38,1.12,2.5,2.5,2.5h17c1.38,0,2.5-1.12,2.5-2.5v-5.03c0-.54-.13-1.08-.37-1.57l-.63-1.26Zm-16,7.35c-1.1,0-2-.9-2-2s.9-2,2-2,2,.9,2,2-.9,2-2,2Zm5.25-7h-6.25v-5h6.25v5Zm1.5-5h6.25v5h-6.25v-5Zm5.25,12c-1.1,0-2-.9-2-2s.9-2,2-2,2,.9,2,2-.9,2-2,2Z"/></svg>