<svg xmlns="http://www.w3.org/2000/svg" width="24" height="24" viewBox="0 0 24 24"><g opacity="0.4"><path d="m5,22h4v-6h6v6h4V5H5v17ZM13,7h2v2h-2v-2Zm0,4h2v2h-2v-2Zm-4-4h2v2h-2v-2Zm0,4h2v2h-2v-2Z"/></g><path d="M13 11H15V13H13z"/><path d="M9 11H11V13H9z"/><path d="M13 7H15V9H13z"/><path d="M9 7H11V9H9z"/><path d="M9 16H15V22H9z"/><path d="M4 2H20V5H4z"/><path d="m5,8h-2.5c-.83,0-1.5.67-1.5,1.5v11c0,.83.67,1.5,1.5,1.5h2.5v-14Z"/><path d="m21.5,8h-2.5v14h2.5c.83,0,1.5-.67,1.5-1.5v-11c0-.83-.67-1.5-1.5-1.5Z"/></svg>