<svg xmlns="http://www.w3.org/2000/svg" width="24" height="24" viewBox="0 0 24 24"><g opacity="0.4"><path d="m11.69,1C5.96,1.16,1.16,5.96,1,11.69c-.08,3,1.02,5.83,3.11,7.98,2.09,2.15,4.89,3.33,7.88,3.33.19,0,.37-.04.55-.11-.35-.9-.55-1.87-.55-2.89,0-4.42,3.58-8,8-8,1.02,0,2,.2,2.89.55.07-.17.11-.36.11-.55,0-3-1.18-5.8-3.33-7.89-2.15-2.09-4.97-3.18-7.98-3.11Z"/></g><path d="m13.06,22.56s9.48-9.48,9.51-9.51c.14-.15.25-.32.33-.5-.9-.35-1.87-.55-2.89-.55-4.42,0-8,3.58-8,8,0,1.02.2,2,.55,2.89.19-.07.37-.19.51-.33Z"/></svg>