<svg xmlns="http://www.w3.org/2000/svg" width="24" height="24" viewBox="0 0 24 24"><g opacity="0.4"><path d="m2,4.5v4.5h3v-4h4v-3h-4.5c-1.38,0-2.5,1.12-2.5,2.5Z"/><path d="m5,15h-3v4.5c0,1.38,1.12,2.5,2.5,2.5h4.5v-3h-4v-4Z"/><path d="m19,19h-4v3h4.5c1.38,0,2.5-1.12,2.5-2.5v-4.5h-3v4Z"/><path d="m19.5,2h-4.5v3h4v4h3v-4.5c0-1.38-1.12-2.5-2.5-2.5Z"/></g><path d="m15.97,17.03l1.06-1.06-1.87-1.87c.52-.74.84-1.63.84-2.6,0-2.48-2.02-4.5-4.5-4.5s-4.5,2.02-4.5,4.5,2.02,4.5,4.5,4.5c.97,0,1.86-.32,2.6-.84l1.87,1.87Z"/></svg>