<svg xmlns="http://www.w3.org/2000/svg" width="24" height="24" viewBox="0 0 24 24"><g opacity="0.4"><path d="m7,19.95l1,.05-2,3h2.25l.75-1h6l.75,1h2.25l-2-3,1-.05c1.14-.23,2-1.24,2-2.45v-8c0-1.93-1.57-3.5-3.5-3.5h-7c-1.93,0-3.5,1.57-3.5,3.5v8c0,1.21.86,2.22,2,2.45Zm8.5-1.95c-.83,0-1.5-.67-1.5-1.5s.67-1.5,1.5-1.5,1.5.67,1.5,1.5-.67,1.5-1.5,1.5ZM7,9.5c0-.83.67-1.5,1.5-1.5h7c.83,0,1.5.67,1.5,1.5v3.5H7v-3.5Zm1.5,5.5c.83,0,1.5.67,1.5,1.5s-.67,1.5-1.5,1.5-1.5-.67-1.5-1.5.67-1.5,1.5-1.5Z"/></g><path d="m17,9.5c0-.83-.67-1.5-1.5-1.5h-7c-.83,0-1.5.67-1.5,1.5v3.5h10v-3.5Z"/><path d="M9 22 8.25 23 15.75 23 15 22 9 22z"/><path d="m14.5,1h-5C4.81,1,1,4.81,1,9.5v13.5h5l2-3-1-.05c-1.14-.23-2-1.24-2-2.45v-8c0-1.93,1.57-3.5,3.5-3.5h7c1.93,0,3.5,1.57,3.5,3.5v8c0,1.21-.86,2.22-2,2.45l-1,.05,2,3h5v-13.5c0-4.69-3.81-8.5-8.5-8.5Z"/></svg>