<svg xmlns="http://www.w3.org/2000/svg" width="24" height="24" viewBox="0 0 24 24"><g opacity="0.4"><path d="m10.97,5.91l3.56,3.56-1.06,1.06-3.56-3.56-1.94,1.94,3.56,3.56-1.06,1.06-3.56-3.56-3.47,3.47c-.28.28-.44.66-.44,1.06v5c0,.83.67,1.5,1.5,1.5h5c.4,0,.78-.16,1.06-.44l9.44-9.44-7.12-7.12-1.91,1.91Z"/></g><path d="M13.47 10.53 14 10 14.53 9.47 12.75 7.69 10.97 5.91 10.44 6.44 9.91 6.97 11.69 8.75 13.47 10.53z"/><path d="M10.47 13.53 11 13 11.53 12.47 9.75 10.69 7.97 8.91 7.44 9.44 6.91 9.97 8.69 11.75 10.47 13.53z"/><path d="m3.06,19.88l-2.59,2.59,1.06,1.06,2.59-2.59c-.52-.14-.92-.54-1.06-1.06Z"/><path d="M20 5.06 21.47 6.53 22.53 5.47 18.53 1.47 17.47 2.53 18.94 4 18.03 4.91 13.56.44 11.44 2.56 21.44 12.56 23.56 10.44 19.09 5.97 20 5.06z"/></svg>