<svg xmlns="http://www.w3.org/2000/svg" width="24" height="24" viewBox="0 0 24 24"><g opacity="0.4"><path d="M12 6A6 6 0 1 0 12 18 6 6 0 1 0 12 6z"/></g><path d="M11.25 20H12.75V23H11.25z"/><path d="M11.25 1H12.75V4H11.25z"/><path d="M1 11.25H4V12.75H1z"/><path d="M20 11.25H23V12.75H20z"/><path d="M6.87 18.19 6.61 17.92 6.34 17.66 6.08 17.39 5.81 17.13 5.28 17.66 4.75 18.19 4.22 18.72 3.69 19.25 3.96 19.51 4.22 19.78 4.49 20.04 4.75 20.31 5.28 19.78 5.81 19.25 6.34 18.72 6.87 18.19z"/><path d="M17.66 6.34 17.92 6.61 18.19 6.87 18.72 6.34 19.25 5.81 19.78 5.28 20.31 4.75 20.04 4.49 19.78 4.22 19.51 3.96 19.25 3.69 18.72 4.22 18.19 4.75 17.66 5.28 17.13 5.81 17.39 6.08 17.66 6.34z"/><path d="M4.75 5.81 5.28 6.34 5.81 6.87 6.08 6.61 6.34 6.34 6.61 6.08 6.87 5.81 6.34 5.28 5.81 4.75 5.28 4.22 4.75 3.69 4.49 3.96 4.22 4.22 3.96 4.49 3.69 4.75 4.22 5.28 4.75 5.81z"/><path d="M19.25 18.19 18.72 17.66 18.19 17.13 17.92 17.39 17.66 17.66 17.39 17.92 17.13 18.19 17.66 18.72 18.19 19.25 18.72 19.78 19.25 20.31 19.51 20.04 19.78 19.78 20.04 19.51 20.31 19.25 19.78 18.72 19.25 18.19z"/></svg>