<svg xmlns="http://www.w3.org/2000/svg" width="24" height="24" viewBox="0 0 24 24"><g opacity="0.4"><path d="m10,1C5.04,1,1,5.04,1,10s4.04,9,9,9,9-4.04,9-9S14.96,1,10,1Zm-.56,11.19l-2.12,2.12-4.31-4.31,4.31-4.31,2.12,2.12-2.19,2.19,2.19,2.19Zm3.25,2.12l-2.12-2.12,2.19-2.19-2.19-2.19,2.12-2.12,4.31,4.31-4.31,4.31Z"/></g><path d="M10.56 7.81 12.75 10 10.56 12.19 12.69 14.31 17 10 12.69 5.69 10.56 7.81z"/><path d="M7.31 5.69 3 10 7.31 14.31 9.44 12.19 7.25 10 9.44 7.81 7.31 5.69z"/><path d="m17.33,15.21c-.58.82-1.3,1.54-2.12,2.12l5.73,5.73,2.12-2.12-5.73-5.73Z"/></svg>