<svg xmlns="http://www.w3.org/2000/svg" width="24" height="24" viewBox="0 0 24 24"><g opacity="0.4"><path d="m13.51,6.13l-4.76,2.78c.7.73,1.14,1.7,1.21,2.77l4.66-2.72c-.67-.76-1.09-1.74-1.12-2.82Z"/><path d="m8.75,15.09l4.76,2.78c.03-1.08.45-2.06,1.12-2.82l-4.66-2.72c-.08,1.07-.52,2.03-1.21,2.77Z"/></g><path d="M18 1.5A4.5 4.5 0 1 0 18 10.5 4.5 4.5 0 1 0 18 1.5z"/><path d="M18 13.5A4.5 4.5 0 1 0 18 22.5 4.5 4.5 0 1 0 18 13.5z"/><path d="M5.5 7.5A4.5 4.5 0 1 0 5.5 16.5 4.5 4.5 0 1 0 5.5 7.5z"/></svg>