<svg xmlns="http://www.w3.org/2000/svg" width="24" height="24" viewBox="0 0 24 24"><g opacity="0.4"><path d="m20.5,1H3.5c-1.38,0-2.5,1.12-2.5,2.5v5c0,1.38,1.12,2.5,2.5,2.5h17c1.38,0,2.5-1.12,2.5-2.5V3.5c0-1.38-1.12-2.5-2.5-2.5Zm-5.5,6.5h-3v-3h3v3Zm5,0h-3v-3h3v3Z"/></g><path d="m20.5,13H3.5c-1.38,0-2.5,1.12-2.5,2.5v5c0,1.38,1.12,2.5,2.5,2.5h17c1.38,0,2.5-1.12,2.5-2.5v-5c0-1.38-1.12-2.5-2.5-2.5Zm-5.5,6.5h-3v-3h3v3Zm5,0h-3v-3h3v3Z"/><path d="M17 4.5H20V7.5H17z"/><path d="M12 4.5H15V7.5H12z"/></svg>