<svg xmlns="http://www.w3.org/2000/svg" width="24" height="24" viewBox="0 0 24 24"><g opacity="0.4"><path d="m18.92,8h1.08c.55,0,1-.45,1-1v-2c0-.55-.45-1-1-1h-1.74l.65,4Z"/><path d="m20.76,14.6s-.09-.05-.14-.07c-.64-.35-1.37-.53-2.12-.53-1.42,0-2.74.66-3.6,1.8-.58.77-.9,1.73-.9,2.7,0,2.48,2.02,4.5,4.5,4.5s4.5-2.02,4.5-4.5c0-1.59-.86-3.09-2.24-3.9Z"/><path d="m9.75,14.6s-.07-.04-.1-.05c-.64-.36-1.38-.55-2.15-.55-1.43,0-2.74.66-3.6,1.8-.57.75-.88,1.68-.9,2.7,0,2.48,2.02,4.5,4.5,4.5s4.5-2.02,4.5-4.5v-.09c-.03-1.56-.89-3.02-2.25-3.81Z"/></g><path d="m15.29,4.42l1.61,9.87c.5-.19,1.04-.29,1.59-.29.49,0,.98.09,1.44.24l-1.68-10.3c-.28-1.7-1.73-2.94-3.45-2.94h-2.8v3h2.8c.25,0,.45.18.49.42Z"/><path d="m3,18.5c.01-1.01.33-1.94.9-2.7.86-1.15,2.17-1.8,3.6-1.8.77,0,1.51.19,2.15.55.04.02.07.04.1.05,1.36.79,2.22,2.25,2.25,3.81v.09c0,.53-.11,1.03-.28,1.5h2.55c-.17-.47-.28-.97-.28-1.5s.09-1.02.26-1.5h-.26v-6.5c0-.83-.67-1.5-1.5-1.5h-6c-3.03,0-5.5,2.47-5.5,5.5v3.94c0,.83.67,1.5,1.5,1.5h.76c-.16-.45-.26-.93-.26-1.44Z"/></svg>