<svg xmlns="http://www.w3.org/2000/svg" width="24" height="24" viewBox="0 0 24 24"><g opacity="0.4"><path d="m18.33,12c-1.23,0-2.33-.48-3.17-1.26-.83.78-1.94,1.26-3.17,1.26s-2.33-.48-3.17-1.26c-.83.78-1.94,1.26-3.17,1.26-1.48,0-2.78-.7-3.64-1.78-.02.09-.03.18-.03.28v10c0,1.38,1.12,2.5,2.5,2.5h3.5v-7c0-.55.45-1,1-1h6c.55,0,1,.45,1,1v7h3.5c1.38,0,2.5-1.12,2.5-2.5v-10c0-.1-.01-.19-.03-.28-.86,1.08-2.16,1.78-3.64,1.78Z"/></g><path d="m20.5,1H3.5c-1.38,0-2.5,1.12-2.5,2.5v3.83c0,2.57,2.09,4.67,4.67,4.67,1.23,0,2.33-.48,3.17-1.26.83.78,1.94,1.26,3.17,1.26s2.33-.48,3.17-1.26c.83.78,1.94,1.26,3.17,1.26,2.57,0,4.67-2.09,4.67-4.67v-3.83c0-1.38-1.12-2.5-2.5-2.5Z"/><path d="m16,16c0-.55-.45-1-1-1h-6c-.55,0-1,.45-1,1v7h8v-7Z"/></svg>