<svg xmlns="http://www.w3.org/2000/svg" width="24" height="24" viewBox="0 0 24 24"><g opacity="0.4"><path d="m18,15c-.65,0-.91.13-1.33.34-.56.28-1.32.66-2.67.66s-2.11-.38-2.67-.66c-.43-.21-.68-.34-1.33-.34s-.9.13-1.33.34c-.55.28-1.32.66-2.67.66s-2.11-.38-2.67-.66c-.43-.21-.68-.34-1.33-.34v2c1.35,0,2.11.38,2.67.66.43.21.68.34,1.33.34s.9-.13,1.33-.34c.55-.28,1.32-.66,2.67-.66s2.11.38,2.67.66c.43.21.68.34,1.33.34s.91-.13,1.33-.34c.56-.28,1.32-.66,2.67-.66s2.12.38,2.67.66c.43.21.68.34,1.33.34v-2c-1.35,0-2.12-.38-2.67-.66-.43-.21-.68-.34-1.33-.34Z"/><path d="m19.5,1H4.5c-1.38,0-2.5,1.12-2.5,2.5v8.5c1.35,0,2.11.38,2.67.66.43.21.68.34,1.33.34s.9-.13,1.33-.34c.55-.28,1.32-.66,2.67-.66s2.11.38,2.67.66c.43.21.68.34,1.33.34s.91-.13,1.33-.34c.56-.28,1.32-.66,2.67-.66s2.12.38,2.67.66c.43.21.68.34,1.33.34V3.5c0-1.38-1.12-2.5-2.5-2.5Zm-11.5,8c-1.1,0-2-.9-2-2s.9-2,2-2,2,.9,2,2-.9,2-2,2Z"/></g><path d="m18,12c-1.36,0-2.12.38-2.67.66-.43.21-.68.34-1.33.34s-.9-.13-1.33-.34c-.56-.28-1.32-.66-2.67-.66s-2.11.38-2.67.66c-.43.21-.68.34-1.33.34s-.9-.13-1.33-.34c-.55-.28-1.32-.66-2.67-.66v3c.64,0,.9.13,1.33.34.55.28,1.32.66,2.67.66s2.12-.38,2.67-.66c.43-.21.68-.34,1.33-.34s.9.13,1.33.34c.56.28,1.32.66,2.67.66s2.12-.38,2.67-.66c.43-.21.69-.34,1.33-.34s.91.13,1.33.34c.56.28,1.32.66,2.67.66v-3c-.65,0-.91-.13-1.33-.34-.56-.28-1.32-.66-2.67-.66Z"/><path d="M8 5A2 2 0 1 0 8 9 2 2 0 1 0 8 5z"/><path d="m18,17c-1.36,0-2.12.38-2.67.66-.43.21-.68.34-1.33.34s-.9-.13-1.33-.34c-.56-.28-1.32-.66-2.67-.66s-2.11.38-2.67.66c-.43.21-.68.34-1.33.34s-.9-.13-1.33-.34c-.55-.28-1.32-.66-2.67-.66v3.5c0,1.38,1.12,2.5,2.5,2.5h15c1.38,0,2.5-1.12,2.5-2.5v-2.5c-.65,0-.91-.13-1.33-.34-.56-.28-1.32-.66-2.67-.66Z"/></svg>