<svg xmlns="http://www.w3.org/2000/svg" width="24" height="24" viewBox="0 0 24 24"><g opacity="0.4"><path d="m1,19v3h5.5c1.38,0,2.5-1.12,2.5-2.5v-3.75H1v3.25Z"/><path d="M1 8H9V14.25H1z"/><path d="m15,19.5c0,1.38,1.12,2.5,2.5,2.5h5.5v-6.25h-8v3.75Z"/><path d="M15 8H23V14.25H15z"/></g><path d="M11.25 1H12.75V5H11.25z"/><path d="M11.25 19H12.75V23H11.25z"/><path d="M11.25 13H12.75V17H11.25z"/><path d="M11.25 7H12.75V11H11.25z"/><path d="M15 14.25H23V15.75H15z"/><path d="M1 14.25H9V15.75H1z"/><path d="m6.5,2H1v6h8v-3.5c0-1.38-1.12-2.5-2.5-2.5Z"/><path d="m15,4.5v3.5h8V2h-5.5c-1.38,0-2.5,1.12-2.5,2.5Z"/></svg>