<svg xmlns="http://www.w3.org/2000/svg" width="24" height="24" viewBox="0 0 24 24"><g opacity="0.4"><path d="m13.5,16.74c-.48.15-.97.26-1.5.26s-1.02-.1-1.5-.26v1.26h-2.5v3h2.5v2h3v-2h2.5v-3h-2.5v-1.26Z"/><path d="m9.71,7.58l-1.08-1.08,1.44-1.44-2.12-2.12-1.44,1.44-.94-.94-2.12,2.12.94.94-1.44,1.44,2.12,2.12,1.44-1.44,1.08,1.08c.47-.91,1.21-1.65,2.12-2.12Z"/><path d="m14.29,7.58c.91.47,1.65,1.21,2.12,2.12l4.14-4.14-2.12-2.12-4.14,4.14Z"/></g><path d="M12 7A5 5 0 1 0 12 17 5 5 0 1 0 12 7z"/><path d="M1 1 1 8 8 1 1 1z"/><path d="M23 8 23 1 16 1 23 8z"/></svg>