<svg xmlns="http://www.w3.org/2000/svg" width="24" height="24" viewBox="0 0 24 24"><g opacity="0.4"><path d="m1,4.5v3.25h5.88V2h-3.38c-1.38,0-2.5,1.12-2.5,2.5Z"/><path d="M1 9.25H6.88V14.75H1z"/><path d="M8.38 9.25H15.63V14.75H8.38z"/><path d="M8.38 2H15.63V7.75H8.38z"/><path d="m17.12,22h3.38c1.38,0,2.5-1.12,2.5-2.5v-3.25h-5.88v5.75Z"/><path d="m1,19.5c0,1.38,1.12,2.5,2.5,2.5h3.38v-5.75H1v3.25Z"/><path d="m20.5,2h-3.38v5.75h5.88v-3.25c0-1.38-1.12-2.5-2.5-2.5Z"/><path d="M17.12 9.25H23V14.75H17.12z"/><path d="M8.38 16.25H15.63V22H8.38z"/></g><path d="m17.12,2h-1.5v5.75h-7.25V2h-1.5v5.75H1v1.5h5.88v5.5H1v1.5h5.88v5.75h1.5v-5.75h7.25v5.75h1.5v-5.75h5.88v-1.5h-5.88v-5.5h5.88v-1.5h-5.88V2Zm-1.5,12.75h-7.25v-5.5h7.25v5.5Z"/></svg>