<svg xmlns="http://www.w3.org/2000/svg" width="24" height="24" viewBox="0 0 24 24"><g opacity="0.4"><path d="m1,19.5c0,1.38,1.12,2.5,2.5,2.5h3.38v-6.25H1v3.75Z"/><path d="M1 8H6.88V14.25H1z"/><path d="M8.38 8H15.63V14.25H8.38z"/><path d="M17.12 8H23V14.25H17.12z"/><path d="m17.12,22h3.38c1.38,0,2.5-1.12,2.5-2.5v-3.75h-5.88v6.25Z"/><path d="M8.38 15.75H15.63V22H8.38z"/></g><path d="m20.5,2H3.5c-1.38,0-2.5,1.12-2.5,2.5v3.5h5.88v6.25H1v1.5h5.88v6.25h1.5v-6.25h7.25v6.25h1.5v-6.25h5.88v-1.5h-5.88v-6.25h5.88v-3.5c0-1.38-1.12-2.5-2.5-2.5Zm-4.88,12.25h-7.25v-6.25h7.25v6.25Z"/></svg>