<svg xmlns="http://www.w3.org/2000/svg" width="24" height="24" viewBox="0 0 24 24"><g opacity="0.4"><path d="m12,3C5.93,3,1,8,1,14.14c0,1.98.52,3.93,1.51,5.63.44.75,1.26,1.22,2.15,1.22h14.67c.89,0,1.72-.47,2.15-1.22.99-1.7,1.51-3.65,1.51-5.63,0-6.14-4.93-11.14-11-11.14Zm5.52,5.53l-4.55,6.93s0,0,0,0c-.53.81-1.62,1.03-2.43.5-.2-.13-.38-.31-.51-.51-.53-.81-.3-1.9.51-2.43l6.93-4.55s.04,0,.05.01c0,.01,0,.03,0,.04Z"/></g><path d="m10.54,15.96c.81.53,1.9.31,2.43-.5,0,0,0,0,0,0l4.55-6.93s0-.03,0-.04c-.01-.02-.03-.02-.05-.01l-6.93,4.55c-.81.53-1.04,1.62-.51,2.43.13.2.31.38.51.51Z"/></svg>