<svg xmlns="http://www.w3.org/2000/svg" width="24" height="24" viewBox="0 0 24 24"><g opacity="0.4"><path d="m21.5,4h-4.5v1h-1v-1H2.5c-.83,0-1.5.67-1.5,1.5v3.15c0,.46.32.83.76.97,1.01.32,1.74,1.27,1.74,2.38s-.73,2.06-1.74,2.38c-.44.14-.76.51-.76.97v2.84c0,1.14.67,1.81,1.5,1.81h13.5v-2h1v2h4.5c.83,0,1.5-.67,1.5-1.5v-3.15c0-.46-.32-.83-.76-.97-1.01-.32-1.74-1.27-1.74-2.38s.73-2.06,1.74-2.38c.44-.14.76-.51.76-.97v-2.84c0-1.14-.67-1.81-1.5-1.81Zm-4.5,13h-1v-2h1v2Zm0-3h-1v-2h1v2Zm0-3h-1v-2h1v2Zm0-3h-1v-2h1v2Z"/></g><path d="M16 9H17V11H16z"/><path d="M16 12H17V14H16z"/><path d="M16 4H17V5H16z"/><path d="M16 18H17V20H16z"/><path d="M16 15H17V17H16z"/><path d="M16 6H17V8H16z"/></svg>