<svg xmlns="http://www.w3.org/2000/svg" width="24" height="24" viewBox="0 0 24 24"><g opacity="0.4"><path d="m20.5,2h-7.75v9.25h10.25v-6.75c0-1.38-1.12-2.5-2.5-2.5Z"/><path d="m1,4.5v6.75h10.25V2H3.5c-1.38,0-2.5,1.12-2.5,2.5Z"/><path d="m1,19.5c0,1.38,1.12,2.5,2.5,2.5h7.75v-9.25H1v6.75Z"/><path d="m12.75,22h7.75c1.38,0,2.5-1.12,2.5-2.5v-6.75h-10.25v9.25Z"/></g><path d="M12.75 2 11.25 2 11.25 11.25 1 11.25 1 12.75 11.25 12.75 11.25 22 12.75 22 12.75 12.75 23 12.75 23 11.25 12.75 11.25 12.75 2z"/></svg>