<svg xmlns="http://www.w3.org/2000/svg" width="24" height="24" viewBox="0 0 24 24"><g opacity="0.4"><path d="m20.93,13h.07c.54,0,1.04-.29,1.31-.77.26-.47.25-1.05-.03-1.52L16.78,1.72c-.27-.45-.76-.72-1.28-.72s-1.01.27-1.28.72l-2.22,3.63,3.28,5.37c.28.46.29,1.04.03,1.52-.27.47-.77.77-1.31.77h-.07l1.92,3.83c.23.46.21,1.02-.07,1.46-.27.44-.76.71-1.28.71h-.5v4h3v-4h4.5c.52,0,1-.27,1.28-.71.27-.44.3-1,.07-1.46l-1.92-3.83Z"/></g><path d="m15.78,18.29c.27-.44.3-1,.07-1.46l-1.92-3.83h.07c.54,0,1.04-.29,1.31-.77.26-.47.25-1.05-.03-1.52L9.78,1.72c-.27-.45-.76-.72-1.28-.72s-1.01.27-1.28.72L1.72,10.72c-.28.46-.29,1.04-.03,1.52.27.47.77.77,1.31.77h.07l-1.92,3.83c-.23.46-.21,1.02.07,1.46.27.44.76.71,1.28.71h4.5v4h3v-4h4.5c.52,0,1-.27,1.28-.71Z"/></svg>