<svg xmlns="http://www.w3.org/2000/svg" width="24" height="24" viewBox="0 0 24 24"><g opacity="0.4"><path d="m20.5,3H3.5c-1.38,0-2.5,1.12-2.5,2.5v13c0,1.38,1.12,2.5,2.5,2.5h17c1.38,0,2.5-1.12,2.5-2.5V5.5c0-1.38-1.12-2.5-2.5-2.5Zm-12.5,5c1.15,0,2,.85,2,2s-.85,2-2,2-2-.85-2-2,.85-2,2-2Zm-3,8c0-1.66,1.34-3,3-3s3,1.34,3,3h-6Zm14,0h-5v-3h5v3Zm0-5h-7v-3h7v3Z"/></g><path d="M8 8A2 2 0 1 0 8 12 2 2 0 1 0 8 8z"/><path d="m5,16h6c0-1.66-1.34-3-3-3s-3,1.34-3,3Z"/><path d="M14 13H19V16H14z"/><path d="M12 8H19V11H12z"/></svg>