<svg xmlns="http://www.w3.org/2000/svg" width="24" height="24" viewBox="0 0 24 24"><g opacity="0.4"><path d="m12,1C5.93,1,1,5.93,1,12c0,3.42,1.57,6.48,4.03,8.5.26-3.08,2.83-5.5,5.97-5.5h2c3.14,0,5.72,2.42,5.97,5.5,2.46-2.02,4.03-5.08,4.03-8.5,0-6.07-4.93-11-11-11Zm0,12c-2.21,0-4-1.79-4-4s1.79-4,4-4,4,1.79,4,4-1.79,4-4,4Z"/></g><path d="m18.97,20.5c-.26-3.08-2.83-5.5-5.97-5.5h-2c-3.14,0-5.72,2.42-5.97,5.5,1.9,1.56,4.33,2.5,6.97,2.5s5.08-.94,6.97-2.5Z"/><path d="M12 5A4 4 0 1 0 12 13 4 4 0 1 0 12 5z"/></svg>