<svg xmlns="http://www.w3.org/2000/svg" width="24" height="24" viewBox="0 0 24 24"><g opacity="0.4"><path d="M8 2A5 5 0 1 0 8 12 5 5 0 1 0 8 2z"/><path d="m2.5,22h11c.83,0,1.5-.67,1.5-1.5v-2c0-3.03-2.47-5.5-5.5-5.5h-3c-3.03,0-5.5,2.47-5.5,5.5v2c0,.83.67,1.5,1.5,1.5Z"/></g><path d="m16.54,4.46l-2.12,2.12c.41.41.63.9.63,1.41s-.22,1-.63,1.41l2.12,2.12c.97-.97,1.51-2.23,1.51-3.54,0-1.31-.54-2.56-1.51-3.53Z"/><path d="m17.95,3.05c2.87,2.87,2.87,7.03,0,9.9l2.12,2.12c4.03-4.03,4.03-10.11,0-14.14l-2.12,2.12Z"/></svg>