<svg xmlns="http://www.w3.org/2000/svg" width="24" height="24" viewBox="0 0 24 24"><g opacity="0.4"><path d="m14.23,2.19c-.47-.26-1.06-.25-1.52.03l-5.84,3.59,8.12,8.12V3.5c0-.54-.29-1.04-.77-1.31Z"/><path d="m3.5,6c-1.38,0-2.5,1.12-2.5,2.5v7c0,1.38,1.12,2.5,2.5,2.5h3.08l6.14,3.78c.24.15.51.22.79.22.25,0,.5-.06.73-.19.47-.27.77-.77.77-1.31v-4.44L4.94,6h-1.44Z"/><path d="m17,7.54v8.4l.26.26c1.07-1.08,1.74-2.56,1.74-4.2,0-1.77-.78-3.36-2-4.46Z"/><path d="m17,2.84v2.24c2.39,1.39,4,3.96,4,6.92,0,2.19-.89,4.17-2.32,5.62l1.41,1.41c1.79-1.81,2.91-4.29,2.91-7.03,0-4.09-2.47-7.61-6-9.16Z"/><path d="m17,18.92v2.24c.7-.31,1.35-.69,1.96-1.14l-1.44-1.44c-.17.12-.33.24-.51.34Z"/></g><path d="M1.53.47 1 1 .47 1.53 11.47 12.53 22.47 23.53 23 23 23.53 22.47 12.53 11.47 1.53.47z"/></svg>