<svg xmlns="http://www.w3.org/2000/svg" width="24" height="24" viewBox="0 0 24 24"><g opacity="0.4"><path class="st0" d="M19,16.7v-3.4v-2.8C19,9.1,17.9,8,16.5,8h-13C2.1,8,1,9.1,1,10.5v9C1,20.9,2.1,22,3.5,22h13
	c1.4,0,2.5-1.1,2.5-2.5V16.7z"/></g><path d="M19 16.71 23 19 23 11 19 13.29 19 16.71z"/><path d="m3.5,8h2.5c-.83,0-1.5-.67-1.5-1.5s.67-1.5,1.5-1.5,1.5.67,1.5,1.5-.67,1.5-1.5,1.5h7c-.83,0-1.5-.67-1.5-1.5s.67-1.5,1.5-1.5,1.5.67,1.5,1.5-.67,1.5-1.5,1.5h3.5c.24,0,.47.05.69.11.19-.5.31-1.04.31-1.61,0-2.48-2.02-4.5-4.5-4.5-1.42,0-2.67.67-3.5,1.71-.83-1.03-2.08-1.71-3.5-1.71C3.52,2,1.5,4.02,1.5,6.5c0,.73.19,1.41.5,2.01.42-.32.94-.51,1.5-.51Z"/></svg>