<svg xmlns="http://www.w3.org/2000/svg" width="24" height="24" viewBox="0 0 24 24"><g opacity="0.4"><path d="m8,8.5v-1c-.74.39-1.41.89-2.01,1.49-.78.78-1.39,1.69-1.82,2.7-.31.74-.51,1.51-.6,2.31h3.03c.07-.39.18-.77.33-1.14.28-.66.67-1.24,1.18-1.75.47-.47,1.02-.84,1.62-1.11h-.23c-.83,0-1.5-.67-1.5-1.5Z"/><path d="m18.01,8.99c-.6-.6-1.27-1.1-2.01-1.49v1c0,.83-.67,1.5-1.5,1.5h-.23c.6.27,1.15.64,1.62,1.11.51.51.9,1.09,1.18,1.75.16.37.26.75.33,1.14h3.03c-.09-.79-.29-1.57-.6-2.31-.43-1.01-1.04-1.92-1.82-2.7Z"/><path d="m16,4v3h2.51c-.32-.42-.51-.93-.51-1.5s.19-1.08.51-1.5h-2.51Z"/><path d="m8,7v-3h-2.51c.32.42.51.93.51,1.5s-.19,1.08-.51,1.5h2.51Z"/></g><rect x="15" y="14" width="8" height="8" rx="1.5" ry="1.5"/><rect x="1" y="14" width="8" height="8" rx="1.5" ry="1.5"/><path d="m9.5,10h5c.83,0,1.5-.67,1.5-1.5V3.5c0-.83-.67-1.5-1.5-1.5h-5c-.83,0-1.5.67-1.5,1.5v5c0,.83.67,1.5,1.5,1.5Zm1.5-5h2v2h-2v-2Z"/><path d="M20.5 3A2.5 2.5 0 1 0 20.5 8 2.5 2.5 0 1 0 20.5 3z"/><path d="M3.5 3A2.5 2.5 0 1 0 3.5 8 2.5 2.5 0 1 0 3.5 3z"/></svg>