<svg xmlns="http://www.w3.org/2000/svg" width="24" height="24" viewBox="0 0 24 24"><g opacity="0.4"><path d="m6,21c2.21,0,4-1.79,4-4,0-.86-.29-1.72-.8-2.4-.76-1.01-1.93-1.6-3.2-1.6s-2.43.58-3.2,1.6c-.52.69-.8,1.54-.8,2.4,0,2.21,1.79,4,4,4Z"/><path d="m18,21c2.21,0,4-1.79,4-4,0-.86-.29-1.72-.8-2.4-.76-1.01-1.93-1.6-3.2-1.6s-2.43.58-3.2,1.6c-.52.69-.8,1.54-.8,2.4,0,2.21,1.79,4,4,4Z"/><path d="M9.25 6H14.75V9.5H9.25z"/><path d="M18.61 6 16.25 6 16.25 9.5 20.52 9.5 18.61 6z"/><path d="M3 6H7.75V9.5H3z"/></g><path d="m21.1,4.3c-.44-.8-1.28-1.3-2.2-1.3H2.5c-1.38,0-2.5,1.12-2.5,2.5v9c0,1.21.86,2.22,2,2.45.01-.85.29-1.68.8-2.35.76-1.01,1.93-1.6,3.2-1.6s2.43.58,3.2,1.6c.52.69.8,1.54.8,2.4h4c0-.86.29-1.72.8-2.4.76-1.01,1.93-1.6,3.2-1.6s2.43.58,3.2,1.6c.51.67.79,1.51.8,2.35,1.14-.23,2-1.24,2-2.45v-4.25c0-.42-.11-.83-.31-1.2l-2.59-4.75Zm-13.35,5.2H3v-3.5h4.75v3.5Zm7,0h-5.5v-3.5h5.5v3.5Zm1.5,0v-3.5h2.36l1.91,3.5h-4.27Z"/></svg>