<svg xmlns="http://www.w3.org/2000/svg" width="24" height="24" viewBox="0 0 24 24"><g opacity="0.4"><path d="M18.5 8 21.58 8 22.46 4.35 19.54 3.65 18.5 8z"/><path d="M8.17 13 11.3 13 11.91 11 8.77 11 8.17 13z"/><path d="M6.22 11 3.14 11 3.62 13 6.7 13 6.22 11z"/><path d="M15.23 11 12.09 11 12.7 13 15.83 13 15.23 11z"/><path d="m5.26,19.85c.16.67.77,1.15,1.46,1.15h1.05c.66,0,1.25-.43,1.44-1.07l1.19-3.93h-6.06l.92,3.85Z"/><path d="M17.3 13 20.38 13 20.86 11 17.78 11 17.3 13z"/><path d="M4.46 3.65 1.54 4.35 2.42 8 5.5 8 4.46 3.65z"/><path d="m14.79,19.93c.19.63.78,1.07,1.44,1.07h1.05c.69,0,1.3-.48,1.46-1.15l.92-3.85h-6.06l1.19,3.93Z"/><path d="m13.44,5.07c-.19-.63-.78-1.07-1.44-1.07s-1.25.43-1.44,1.07l-.88,2.93h4.64l-.88-2.93Z"/></g><path d="M1 8H23V11H1z"/><path d="M1 13H23V16H1z"/></svg>