<svg xmlns="http://www.w3.org/2000/svg" width="24" height="24" viewBox="0 0 24 24"><g opacity="0.4"><path d="m21.5,14h-6c-.83,0-1.5.67-1.5,1.5v1.5h-4.38l.44.44c.59.59.59,1.54,0,2.12l-.44.44h4.38v1.5c0,.83.67,1.5,1.5,1.5h6c.83,0,1.5-.67,1.5-1.5v-6c0-.83-.67-1.5-1.5-1.5Z"/><path d="m10,7h4.28c-.17-.47-.28-.97-.28-1.5s.11-1.03.28-1.5h-4.28v-1.5c0-.83-.67-1.5-1.5-1.5H2.5c-.83,0-1.5.67-1.5,1.5v6c0,.83.67,1.5,1.5,1.5h1.5v4.38l.44-.44c.59-.59,1.54-.59,2.12,0l.44.44v-4.38h1.5c.83,0,1.5-.67,1.5-1.5v-1.5Z"/></g><path d="m5.5,23.5c.38,0,.77-.15,1.06-.44l3.5-3.5c.59-.59.59-1.54,0-2.12l-3.5-3.5c-.59-.59-1.54-.59-2.12,0l-3.5,3.5c-.59.59-.59,1.54,0,2.12l3.5,3.5c.29.29.68.44,1.06.44Z"/><path d="M18.5 1A4.5 4.5 0 1 0 18.5 10 4.5 4.5 0 1 0 18.5 1z"/></svg>