<svg xmlns="http://www.w3.org/2000/svg" width="24" height="24" viewBox="0 0 24 24"><g opacity="0.4"><path d="m5.7,5.04L1.06,21.08c-.15.52,0,1.09.38,1.48.29.29.67.44,1.06.44.14,0,.28-.02.42-.06l16.05-4.65c-.36-7.17-6.09-12.9-13.26-13.26Zm.3,13.96c-.55,0-1-.45-1-1s.45-1,1-1,1,.45,1,1-.45,1-1,1Zm1-4c-.55,0-1-.45-1-1s.45-1,1-1,1,.45,1,1-.45,1-1,1Zm1-5c0-.55.45-1,1-1s1,.45,1,1-.45,1-1,1-1-.45-1-1Zm2,8c-.55,0-1-.45-1-1s.45-1,1-1,1,.45,1,1-.45,1-1,1Zm1.5-4c-.55,0-1-.45-1-1s.45-1,1-1,1,.45,1,1-.45,1-1,1Zm2.5,3c-.55,0-1-.45-1-1s.45-1,1-1,1,.45,1,1-.45,1-1,1Z"/></g><path d="m8,1c-.67,0-1.25.44-1.44,1.08l-.85,2.95c7.17.36,12.9,6.09,13.26,13.26l2.95-.85c.64-.19,1.08-.77,1.08-1.44,0-8.27-6.73-15-15-15Z"/><path d="M11.5 12A1 1 0 1 0 11.5 14 1 1 0 1 0 11.5 12z"/><path d="M14 15A1 1 0 1 0 14 17 1 1 0 1 0 14 15z"/><path d="M10 16A1 1 0 1 0 10 18 1 1 0 1 0 10 16z"/><path d="M7 13A1 1 0 1 0 7 15 1 1 0 1 0 7 13z"/><path d="M9 9A1 1 0 1 0 9 11 1 1 0 1 0 9 9z"/><path d="M6 17A1 1 0 1 0 6 19 1 1 0 1 0 6 17z"/></svg>