<svg xmlns="http://www.w3.org/2000/svg" width="24" height="24" viewBox="0 0 24 24"><g opacity="0.4"><path d="m16.5,4H7.5c-1.38,0-2.5,1.12-2.5,2.5v11c0,1.38,1.12,2.5,2.5,2.5h9c1.38,0,2.5-1.12,2.5-2.5V6.5c0-1.38-1.12-2.5-2.5-2.5Zm-1.53,12.03l-3.5-3.5c-.14-.14-.22-.33-.22-.53v-5h1.5v4.69l3.28,3.28-1.06,1.06Z"/></g><path d="m11.25,7v5c0,.2.08.39.22.53l3.5,3.5,1.06-1.06-3.28-3.28v-4.69h-1.5Z"/><path d="m7,23h10v-3.05c-.16.03-.33.05-.5.05H7.5c-.17,0-.34-.02-.5-.05v3.05Z"/><path d="m17,4.05V1H7v3.05c.16-.03.33-.05.5-.05h9c.17,0,.34.02.5.05Z"/></svg>