<svg xmlns="http://www.w3.org/2000/svg" width="24" height="24" viewBox="0 0 24 24"><g opacity="0.4"><path d="m15.89,17.31l2.12-2.12c-1.6-1.61-3.74-2.49-6.01-2.49s-4.41.88-6.01,2.49l2.12,2.12c1.04-1.04,2.42-1.61,3.89-1.61s2.85.57,3.89,1.61Z"/><path d="m.33,9.33l2.12,2.12c2.55-2.55,5.94-3.95,9.55-3.95s7,1.4,9.55,3.95l2.12-2.12c-3.12-3.12-7.26-4.83-11.67-4.83S3.45,6.22.33,9.33Z"/></g><path d="m12,17c-1.1,0-2,.9-2,2,0,1.1.89,2,2,2s2-.9,2-2-.9-2-2-2Z"/><path d="m3.16,12.26l2.12,2.12c1.79-1.79,4.18-2.78,6.72-2.78s4.92.99,6.72,2.78l2.12-2.12c-2.36-2.36-5.5-3.66-8.84-3.66s-6.48,1.3-8.84,3.66Z"/></svg>