<svg xmlns="http://www.w3.org/2000/svg" width="24" height="24" viewBox="0 0 24 24"><g opacity="0.4"><path d="m19.5,1H4.5c-1.38,0-2.5,1.12-2.5,2.5v17c0,1.38,1.12,2.5,2.5,2.5h15c1.38,0,2.5-1.12,2.5-2.5V3.5c0-1.38-1.12-2.5-2.5-2.5Zm-4.5,3c.55,0,1,.45,1,1s-.45,1-1,1-1-.45-1-1,.45-1,1-1Zm-3,16c-3.31,0-6-2.69-6-6s2.69-6,6-6,6,2.69,6,6-2.69,6-6,6Zm6-14c-.55,0-1-.45-1-1s.45-1,1-1,1,.45,1,1-.45,1-1,1Z"/></g><path d="M18 4A1 1 0 1 0 18 6 1 1 0 1 0 18 4z"/><path d="M15 4A1 1 0 1 0 15 6 1 1 0 1 0 15 4z"/><path d="m11.87,17.95c.3.01.6-.01.9-.07,1.4-.26,2.57-1.32,3.02-2.67.33-.95.27-1.99-.15-2.89-.1-.21-.32-.32-.54-.27-.6.15-1.02.45-1.5.8-.79.58-1.77,1.29-3.59,1.29-.81,0-1.45-.15-1.98-.35h-.01c-.08,2.22,1.65,4.08,3.86,4.15Z"/></svg>