<svg xmlns="http://www.w3.org/2000/svg" width="24" height="24" viewBox="0 0 24 24"><g opacity="0.4"><path d="m4.5,22h15c1.38,0,2.5-1.12,2.5-2.5V4.5c0-1.38-1.12-2.5-2.5-2.5H4.5c-1.38,0-2.5,1.12-2.5,2.5v15c0,1.38,1.12,2.5,2.5,2.5Zm2.9-12.47l2.12-2.12,2.47,2.47,2.47-2.47,2.12,2.12-2.47,2.47,2.47,2.47-2.12,2.12-2.47-2.47-2.47,2.47-2.12-2.12,2.47-2.47-2.47-2.47Z"/></g><path d="M14.47 7.4 12 9.88 9.53 7.4 7.4 9.53 9.88 12 7.4 14.47 9.53 16.6 12 14.12 14.47 16.6 16.6 14.47 14.12 12 16.6 9.53 14.47 7.4z"/></svg>