<svg xmlns="http://www.w3.org/2000/svg" width="24" height="24" viewBox="0 0 24 24"><g opacity="0.4"><path d="m21.13,5.38L12.67,1.16c-.42-.21-.92-.21-1.34,0L2.87,5.38c-.46.23-.77.68-.82,1.19-.01.12-1.05,11.69,9.35,16.3.19.09.4.13.61.13s.41-.04.61-.13c10.4-4.61,9.36-16.18,9.35-16.3-.05-.51-.36-.96-.82-1.19Zm-4.57,9.06l-2.12,2.12-2.44-2.44-2.44,2.44-2.12-2.12,2.44-2.44-2.44-2.44,2.12-2.12,2.44,2.44,2.44-2.44,2.12,2.12-2.44,2.44,2.44,2.44Z"/></g><path d="M9.56 16.56 12 14.12 14.44 16.56 16.56 14.44 14.12 12 16.56 9.56 14.44 7.44 12 9.88 9.56 7.44 7.44 9.56 9.88 12 7.44 14.44 9.56 16.56z"/></svg>