<svg xmlns="http://www.w3.org/2000/svg" viewBox="0 0 24 24" width="24" height="24"><path d="M19.78 19.78c4.29-4.29 4.29-11.27 0-15.56S8.51-.07 4.22 4.22s-4.29 11.27 0 15.56C6.36 21.92 9.18 23 12 23s5.63-1.07 7.78-3.22M6.34 6.34C7.9 4.78 9.95 4 12 4s4.1.78 5.66 2.34c3.12 3.12 3.12 8.2 0 11.31s-8.2 3.12-11.31 0-3.12-8.2 0-11.31Z"/><path d="M13.25 8.75A.5.5 0 1 0 13.25 9.75.5.5 0 1 0 13.25 8.75z"/><path d="M13.25 10.75A1 1 0 1 0 13.25 12.75 1 1 0 1 0 13.25 10.75z"/><path d="M16.54 14.54C17.48 13.6 18 12.34 18 11s-.52-2.59-1.46-3.54S14.34 6 13 6s-2.59.52-3.54 1.46S8 9.66 8 11s.52 2.59 1.46 3.54S11.66 16 13 16s2.59-.52 3.54-1.46m-5.29-2.79c0-.66.32-1.23.81-1.6-.19-.25-.31-.56-.31-.9 0-.83.67-1.5 1.5-1.5s1.5.67 1.5 1.5c0 .34-.12.65-.31.9.49.37.81.94.81 1.6 0 1.1-.9 2-2 2s-2-.9-2-2"/></svg>