<svg xmlns="http://www.w3.org/2000/svg" viewBox="0 0 24 24" width="24" height="24"><path d="M20.97 6.03 21.5 5.5 22.03 4.97 20.52 3.47 19.02 1.97 18.49 2.5 17.96 3.03 19.47 4.53 20.97 6.03z"/><path d="m22,13c0-5.42-4.58-10-10-10-2.2,0-4.25.76-5.92,2.02l-1.02-1.02.96-.97-.53-.53-.53-.53-.96.97L1.53.47.47,1.53l22,22,1.06-1.06-3.55-3.55c1.26-1.67,2.02-3.72,2.02-5.92Zm-10-7c3.79,0,7,3.21,7,7,0,1.38-.43,2.68-1.16,3.78l-3.03-3.03h2.19v-1.5h-3.69l-.56-.56v-3.69h-1.5v2.19l-3.03-3.03c1.1-.73,2.4-1.16,3.78-1.16Z"/><path d="m12,20c-3.79,0-7-3.21-7-7,0-1.17.31-2.29.84-3.27l-2.17-2.17c-1.05,1.58-1.67,3.45-1.67,5.44,0,5.42,4.58,10,10,10,1.99,0,3.86-.62,5.44-1.67l-2.17-2.17c-.98.53-2.1.84-3.27.84Z"/></svg>