<svg xmlns="http://www.w3.org/2000/svg" viewBox="0 0 24 24" width="24" height="24"><path d="M7 16 16 16 16 7 13 7 13 10.88 6.06 3.94 3.94 6.06 10.88 13 7 13 7 16z"/><path d="m12,1v3c2.14,0,4.15.83,5.66,2.34,1.51,1.51,2.34,3.52,2.34,5.66s-.83,4.15-2.34,5.66c-1.51,1.51-3.52,2.34-5.66,2.34s-4.15-.83-5.66-2.34c-1.51-1.51-2.34-3.52-2.34-5.66H1c0,2.94,1.14,5.7,3.22,7.78,2.08,2.08,4.84,3.22,7.78,3.22s5.7-1.14,7.78-3.22c2.08-2.08,3.22-4.84,3.22-7.78s-1.14-5.7-3.22-7.78c-2.08-2.08-4.84-3.22-7.78-3.22Z"/></svg>