<svg xmlns="http://www.w3.org/2000/svg" width="24" height="24" viewBox="0 0 24 24"><path d="M12 1C5.93 1 1 5.93 1 12s4.93 11 11 11c1.62 0 3.26-.41 4.89-1.21l-1.33-2.69c-1.21.6-2.41.9-3.56.9-4.41 0-8-3.59-8-8s3.59-8 8-8 8 3.59 8 8v1.5c0 .68-.17 1.5-1 1.5-.41 0-.54-.13-.6-.19-.31-.31-.41-1-.4-1.31V7.78h-1.74A5.97 5.97 0 0 0 12 6c-3.31 0-6 2.69-6 6s2.69 6 6 6c1.51 0 2.88-.56 3.94-1.48.1.13.2.26.31.38.7.72 1.65 1.1 2.75 1.1 2.36 0 4-1.85 4-4.5V12c0-6.07-4.93-11-11-11m0 14c-1.65 0-3-1.35-3-3s1.35-3 3-3 3 1.35 3 3-1.35 3-3 3"/></svg>