<svg xmlns="http://www.w3.org/2000/svg" viewBox="0 0 24 24" width="24" height="24"><path d="M19.5 1A2.5 2.5 0 1 0 19.5 6 2.5 2.5 0 1 0 19.5 1z"/><path d="m17.88,9.82c.47-.52.7-1.22.63-1.92-.07-.7-.43-1.34-.99-1.76L11.36,1.52l-5.42,5.42,2.12,2.12,3.58-3.58,1.62,1.21-3.39,3.76c-.74-.29-1.53-.45-2.37-.45-1.26,0-2.43.37-3.43.99l1.9,2.38c.46-.23.98-.37,1.53-.37,1.93,0,3.5,1.57,3.5,3.5,0,.83-.3,1.58-.78,2.17l1.91,2.38c1.16-1.17,1.87-2.78,1.87-4.56,0-.36-.04-.72-.1-1.07l4.1-.32v5.88h3v-9.12l-5.34.41,2.23-2.48Z"/><path d="m7.5,20c-1.93,0-3.5-1.57-3.5-3.5,0-.65.19-1.25.5-1.77l-1.95-2.43c-.97,1.13-1.55,2.6-1.55,4.21,0,3.58,2.92,6.5,6.5,6.5,1.09,0,2.12-.27,3.02-.75l-1.95-2.44c-.34.11-.7.19-1.07.19Z"/></svg>