<svg xmlns="http://www.w3.org/2000/svg" viewBox="0 0 24 24" width="24" height="24"><path d="M10.5 10A3.5 3.5 0 1 0 10.5 17 3.5 3.5 0 1 0 10.5 10z"/><path d="m18.11,1.06c-1.3-.18-2.57.06-3.68.7-2.13,1.23-4.31,2.15-6.47,2.74l-.11.03c-3.51.99-6.15,3.93-6.73,7.5-.49,3.06.46,6.05,2.63,8.22,1.79,1.79,4.15,2.76,6.65,2.76.52,0,1.05-.04,1.57-.13,3.57-.58,6.51-3.22,7.49-6.72l.03-.12c.58-2.17,1.5-4.34,2.73-6.47.64-1.11.89-2.39.7-3.68-.36-2.48-2.34-4.47-4.83-4.83Zm1.53,7c-1.36,2.35-2.38,4.77-3.05,7.27-.66,2.36-2.71,4.2-5.09,4.58-2.1.34-4.14-.31-5.62-1.79-1.48-1.48-2.13-3.53-1.79-5.62.38-2.38,2.23-4.42,4.66-5.11,2.41-.65,4.83-1.67,7.19-3.03.41-.24.87-.36,1.34-.36.13,0,.27,0,.41.03,1.16.17,2.12,1.13,2.28,2.28.09.62-.02,1.23-.33,1.75Z"/></svg>