<svg xmlns="http://www.w3.org/2000/svg" viewBox="0 0 24 24" width="24" height="24"><path d="m15,4v-2H0v16h2c0,2.21,1.79,4,4,4s4-1.79,4-4h4c0,2.21,1.79,4,4,4s4-1.79,4-4h2v-7.38l-3.61-6.62h-5.39Zm5.65,11s-.04-.03-.06-.04c-.07-.06-.15-.11-.23-.16-.13-.1-.26-.19-.41-.27-.16-.09-.32-.16-.49-.23-.04-.01-.07-.03-.11-.04-.43-.16-.88-.26-1.36-.26s-.93.11-1.36.26c-.04.01-.07.03-.11.04-.17.07-.33.14-.49.23-.14.08-.27.17-.4.26-.08.06-.16.1-.23.17-.02.01-.04.02-.05.04h-.35v-3.5h6v3.5h-.35Zm-2.04-8l1.64,3h-5.25v-3h3.61Zm-12.61,12c-.55,0-1-.45-1-1,0-.21.07-.43.2-.6.11-.15.37-.4.8-.4.11,0,.21.02.29.04.26.08.42.25.51.36.12.17.2.38.2.6,0,.55-.45,1-1,1Zm6-4h-3.35s-.04-.03-.06-.04c-.07-.06-.15-.11-.23-.16-.13-.1-.26-.19-.41-.27-.16-.09-.32-.16-.49-.23-.04-.01-.07-.03-.11-.04-.43-.16-.88-.26-1.36-.26s-.93.11-1.36.26c-.04.01-.07.03-.11.04-.17.07-.33.14-.49.23-.14.08-.27.17-.4.26-.08.06-.16.1-.23.17-.02.01-.04.02-.05.04h-.35V5h9v10Zm6,4c-.55,0-1-.45-1-1,0-.21.07-.43.2-.6.11-.15.37-.4.8-.4.11,0,.21.02.29.04.26.08.42.25.51.36.12.17.2.38.2.6,0,.55-.45,1-1,1Z"/><path d="M6.75 13 8.25 13 8.25 10.25 11 10.25 11 8.75 8.25 8.75 8.25 6 6.75 6 6.75 8.75 4 8.75 4 10.25 6.75 10.25 6.75 13z"/></svg>