<svg xmlns="http://www.w3.org/2000/svg" viewBox="0 0 24 24" width="24" height="24"><path d="M12.75 8 11.25 8 11.25 12.25 11.25 13 11.25 13.75 17 13.75 17 12.25 12.75 12.25 12.75 8z"/><path d="m22,13c0-5.42-4.58-10-10-10S2,7.58,2,13s4.58,10,10,10,10-4.58,10-10Zm-10,7c-3.79,0-7-3.21-7-7s3.21-7,7-7,7,3.21,7,7-3.21,7-7,7Z"/><path d="M20.52 3.47 19.02 1.97 18.49 2.5 17.96 3.03 19.47 4.53 20.97 6.03 21.5 5.5 22.03 4.97 20.52 3.47z"/><path d="M3.03 6.03 4.53 4.53 6.02 3.03 5.49 2.5 4.96 1.97 3.46 3.47 1.97 4.97 2.5 5.5 3.03 6.03z"/></svg>