<svg xmlns="http://www.w3.org/2000/svg" viewBox="0 0 24 24" width="24" height="24"><path d="M14.95 12.99c-.38.26-.74.56-1.07.88-.33.33-.63.69-.89 1.07-.11.16-.21.33-.31.5l1.31.74c.08-.14.16-.27.25-.4a5.76 5.76 0 0 1 1.95-1.8l-.73-1.31c-.17.1-.34.2-.51.31ZM9.77 8.21a5.76 5.76 0 0 1-1.95 1.8l.73 1.31c.17-.1.34-.2.51-.31.38-.26.74-.56 1.07-.88.33-.33.63-.69.89-1.07.11-.16.21-.33.31-.5l-1.31-.74c-.08.14-.16.27-.25.4Z"/><path d="M12 1C5.93 1 1 5.93 1 12s4.93 11 11 11 11-4.93 11-11S18.07 1 12 1m5.96 12.34c.63-.12 1.29-.11 1.92 0a8.01 8.01 0 0 1-6.55 6.54c-.04-.29-.07-.59-.07-.88q0-.525.09-1.05l-1.47-.27c-.08.43-.12.88-.12 1.32 0 .33.03.66.08.99-4.27-.09-7.72-3.55-7.82-7.82.33.04.66.08.99.08.44 0 .89-.04 1.32-.12l-.27-1.48c-.63.12-1.29.11-1.92 0a8.01 8.01 0 0 1 6.55-6.54c.04.29.07.59.07.88q0 .525-.09 1.05l1.47.27c.08-.43.12-.88.12-1.32 0-.33-.03-.66-.08-.99 4.27.09 7.72 3.54 7.82 7.82-.77-.1-1.55-.09-2.31.04z"/></svg>