<svg xmlns="http://www.w3.org/2000/svg" viewBox="0 0 24 24" width="24" height="24"><path d="m16.62,2.1L7.36,11.35c-.76.09-1.5.32-2.15.72-1.35.83-2.12,2.23-2.12,3.85,0,1.22-.41,2.29-1.21,3.18l-1.08,1.2,1.27.99c1.02.79,2.85,1.71,4.84,1.71,1.44,0,2.96-.48,4.31-1.83,1.25-1.25,1.92-3.17,1.77-5l.06.06,8.85-8.84c.71-.71,1.09-1.64,1.09-2.64s-.39-1.94-1.1-2.65c-1.41-1.41-3.87-1.41-5.29,0Zm-7.51,16.95c-1.31,1.31-2.87,1.04-3.94.59.61-1.12.93-2.37.93-3.71,0-.58.23-1.01.7-1.3.59-.36,1.45-.43,2.01-.15h0c.67.33,1.07.9,1.19,1.67.16,1.02-.2,2.21-.89,2.9Zm10.68-13.78l-7.92,7.92c-.31-.38-.67-.72-1.08-1.01l7.96-7.96c.28-.28.76-.28,1.04,0,.19.19.22.41.22.52s-.03.33-.22.52Z"/></svg>