<svg xmlns="http://www.w3.org/2000/svg" viewBox="0 0 24 24" width="24" height="24"><path d="M16 9A1 1 0 1 0 16 11 1 1 0 1 0 16 9z"/><path d="M8 9A1 1 0 1 0 8 11 1 1 0 1 0 8 9z"/><path d="m12,10c-2.21,0-4,1.51-4,4s1.79,5,4,5,4-2.51,4-5-1.79-4-4-4Zm0,4c-.83,0-1.5-.67-1.5-1.33,0-.37.67-.67,1.5-.67s1.5.3,1.5.67c0,.67-.67,1.33-1.5,1.33Z"/><path d="m18.33,1c-1.29,0-2.5.53-3.36,1.45-1.93-.52-4.01-.52-5.94,0-.87-.91-2.07-1.45-3.36-1.45C3.09,1,1,3.09,1,5.67c0,1,.32,1.95.89,2.73-.59,1.3-.89,2.71-.89,4.13,0,5.77,4.93,10.47,11,10.47s11-4.7,11-10.47c0-1.42-.31-2.83-.89-4.13.58-.79.89-1.74.89-2.73,0-2.57-2.09-4.67-4.67-4.67Zm.66,7.91c.66,1.11,1,2.36,1,3.62,0,4.12-3.59,7.47-8,7.47s-8-3.35-8-7.47c0-1.26.35-2.51,1-3.62l.67-1.13-1.03-.81c-.41-.32-.64-.8-.64-1.3,0-.92.75-1.67,1.67-1.67.61,0,1.17.35,1.47.9l.62,1.18,1.24-.47c1.93-.73,4.08-.73,6.01,0l1.24.47.62-1.18c.29-.56.85-.9,1.47-.9.92,0,1.67.75,1.67,1.67,0,.5-.23.98-.64,1.3l-1.03.81.67,1.13Z"/></svg>