<svg xmlns="http://www.w3.org/2000/svg" viewBox="0 0 24 24" width="24" height="24"><path d="m16.75,8.39c-2.29,0-4.35,1.25-5.43,3.2-.69-.05-1.38-.04-2.05.02,0-.22.01-.44.01-.66,0-.72-.05-1.44-.14-2.13,1.34-.69,2.25-2.08,2.25-3.67,0-2.28-1.86-4.14-4.14-4.14-1.95,0-4.5,1.1-5.62,6.35-.63,2.93-.63,6.23-.63,7.81v2.11c0,3.42,4.87,5.72,9.42,5.72,2.59,0,4.98-.78,6.54-2.11,3.35-.11,6.04-2.87,6.04-6.25s-2.8-6.25-6.25-6.25Zm0,9.49h-.01c-.08-.01-.15-.02-.23-.03l-.73-.06-.49.54c-.93,1.01-2.84,1.66-4.87,1.66-3.42,0-6.42-1.7-6.42-2.72v-2.12c0-1.48,0-4.56.56-7.18.56-2.64,1.47-3.98,2.69-3.98.63,0,1.14.51,1.14,1.14,0,.59-.47,1.09-1.07,1.12l-1.78.11.42,1.74c.21.85.32,1.83.32,2.83,0,.78-.06,1.53-.19,2.23l-.42,2.36,2.31-.65c1.24-.35,2.62-.43,4.02-.19l1.29.22.39-1.24c.43-1.36,1.67-2.28,3.08-2.28,1.79,0,3.25,1.46,3.25,3.25s-1.45,3.24-3.26,3.24Z"/></svg>