<svg xmlns="http://www.w3.org/2000/svg" viewBox="0 0 24 24" width="24" height="24"><path d="m14.78,9.37c-.17-.21-.18-.23-.18-.38s.02-.17.18-.38c.23-.29.62-.77.62-1.63s-.39-1.34-.62-1.62c-.17-.21-.18-.23-.18-.37s.02-.17.18-.37c.09-.11.21-.27.31-.46l7.05-.99-.28-1.98L1.86,4.01l.28,1.98,2.52-.36s-.01.07-.01.11c0,.79.36,1.23.57,1.5q.13.16.13.25t-.13.25c-.21.27-.57.71-.57,1.5,0,.3.06.54.14.75H1v1.5c0,3.77,1.89,7.12,5,8.96v2.54h12v-2.54c3.11-1.84,5-5.19,5-8.96v-1.5h-7.81c-.13-.27-.29-.48-.4-.63Zm-1.56-2.75c.17.21.18.23.18.37s-.02.17-.18.38c-.23.29-.62.77-.62,1.63,0,.42.09.74.22,1h-1.63c-.13-.27-.29-.48-.4-.63-.17-.21-.18-.23-.18-.38s.02-.17.18-.38c.23-.29.62-.77.62-1.63s-.39-1.34-.62-1.62c-.17-.21-.18-.23-.18-.37,0-.09.01-.14.06-.21l2-.28c-.03.15-.05.31-.05.49,0,.85.39,1.33.62,1.62Zm-6.44,2.88q-.13-.16-.13-.25,0-.09.13-.25c.21-.27.57-.71.57-1.5s-.36-1.23-.57-1.5q-.13-.16-.13-.25,0-.09.13-.25c.04-.05.09-.12.14-.18l1.69-.24c.03.8.39,1.26.61,1.54.17.21.18.23.18.37s-.02.17-.18.38c-.23.29-.62.77-.62,1.63,0,.42.09.74.22,1h-1.7c-.11-.21-.23-.38-.33-.5Zm9.08,8.7l-.86.41v1.39h-6v-1.39l-.86-.41c-2.14-1.01-3.57-2.9-4-5.2h15.73c-.43,2.31-1.86,4.19-4,5.2Z"/></svg>