<svg xmlns="http://www.w3.org/2000/svg" viewBox="0 0 24 24" width="24" height="24"><path d="m20.63,6.75c-.35-2.23-2.25-3.93-4.52-3.93-.36,0-.71.04-1.06.13-.83-.76-1.91-1.19-3.05-1.19s-2.22.43-3.05,1.19c-.35-.08-.7-.13-1.06-.13-2.28,0-4.17,1.71-4.52,3.93-1.11.72-1.87,1.91-2.06,3.25h-.3v1.5c0,3.77,1.89,7.12,5,8.96v2.54h12v-2.54c3.11-1.84,5-5.19,5-8.96v-1.5h-.3c-.2-1.35-.95-2.53-2.06-3.25Zm-15.32,2.36l1.18-.38-.19-1.23c0-.93.71-1.69,1.58-1.69.12,0,.24.02.35.05.05.01.09.03.14.05.05.02.1.04.15.06.6.29,1.01.94,1.01,1.69h1.5c0-.69-.2-1.33-.55-1.86l.17-.27c.6-.96,2.06-.96,2.66,0l.77,1.22,1.25-.72c.23-.13.49-.2.76-.2.87,0,1.58.76,1.59,1.65l-.19,1.23,1.17.41c.42.15.73.48.91.89H4.41c.18-.41.49-.75.91-.89Zm10.55,9.1l-.86.41v1.39h-6v-1.39l-.86-.41c-2.14-1.01-3.57-2.9-4-5.2h15.73c-.43,2.31-1.86,4.19-4,5.2Z"/></svg>