<svg xmlns="http://www.w3.org/2000/svg" viewBox="0 0 24 24" width="24" height="24"><path d="m19.03,9.13c-1.36-.63-1.65-.76-1.36-2.29h0c.43-2.26-.96-4.34-3.55-5.3C10.56.21,5.34,1.25,2.7,5.81c-2.22,3.82-2.28,8.68-.15,12.36,1.77,3.07,4.81,4.83,8.35,4.83,8.94,0,12.11-4.26,12.11-7.9,0-4.14-2.39-5.24-3.97-5.96Zm-8.13,10.87c-2.47,0-4.51-1.18-5.75-3.33-1.57-2.73-1.51-6.49.15-9.36,1.45-2.5,3.79-3.3,5.72-3.3.78,0,1.5.13,2.06.34.44.16,1.86.79,1.64,1.93-.73,3.84,1.55,4.88,3.05,5.58,1.39.64,2.23,1.02,2.23,3.24,0,2.44-2.82,4.9-9.11,4.9Z"/></svg>