<svg xmlns="http://www.w3.org/2000/svg" viewBox="0 0 24 24" width="24" height="24"><path d="m13.69,3.84c-.31.76-.96,1.34-1.75,1.56l-.66.18c-1.68.46-3.08,1.71-3.74,3.33-.31.76-.96,1.34-1.75,1.56l-.66.18c-1.69.46-3.08,1.71-3.74,3.33l-1.18,2.92,8.58,7.07,1.54-3.79c.31-.76.96-1.34,1.75-1.56l.66-.18c1.69-.46,3.08-1.71,3.74-3.33.31-.76.96-1.34,1.75-1.56l.66-.18c1.69-.46,3.08-1.71,3.74-3.33l1.18-2.92L15.22.04l-1.54,3.79Zm6.15,5.07c-.31.76-.96,1.34-1.75,1.56l-.66.18c-1.69.46-3.08,1.71-3.74,3.33-.31.76-.96,1.34-1.75,1.56l-.66.18c-1.69.46-3.08,1.71-3.74,3.33h0s-1.26-1.03-1.26-1.03l.27-.66c.39-.97,1.24-1.72,2.25-2l.66-.18c1.46-.4,2.67-1.48,3.24-2.88.39-.97,1.24-1.72,2.25-2l.66-.18c1.46-.4,2.67-1.48,3.24-2.88l.09-.22,1.26,1.03-.36.88Zm-3.37-3.94h0s1.26,1.03,1.26,1.03l-.27.66c-.39.97-1.24,1.72-2.25,2l-.66.18c-1.46.4-2.67,1.48-3.24,2.88-.39.97-1.24,1.72-2.25,2l-.66.18c-1.46.4-2.67,1.48-3.24,2.88l-.09.22-1.26-1.03.36-.88c.31-.76.96-1.34,1.75-1.56l.66-.18c1.69-.46,3.08-1.71,3.74-3.33.31-.76.96-1.34,1.75-1.56l.66-.18c1.69-.46,3.08-1.71,3.74-3.33Z"/></svg>