<svg xmlns="http://www.w3.org/2000/svg" viewBox="0 0 24 24" width="24" height="24"><path d="m20.76,4.69l-.07-.23c-.61-1.49-2.06-2.46-3.69-2.46-1.44,0-2.74.79-3.44,2h-3.12c-.7-1.21-2-2-3.44-2-1.63,0-3.07.97-3.69,2.46L1.16,13.67h0c-.11.4-.16.84-.16,1.33,0,3.31,2.69,6,6,6,2.09,0,3.92-1.07,5-2.69,1.08,1.62,2.91,2.69,5,2.69,3.31,0,6-2.69,6-6,0-.54-.08-1.06-.21-1.55l-2.03-8.76Zm-4.95,2.31l.24-1.21c.09-.46.49-.79.95-.79.37,0,.71.2.87.52l.87,3.74s-.08-.02-.12-.03c-.2-.06-.41-.1-.62-.14-.07-.01-.14-.02-.21-.03-.26-.03-.52-.06-.79-.06-.2,0-.41.01-.61.03-.04,0-.09.01-.13.02-.16.02-.31.04-.47.07-.03,0-.07.02-.1.03-.16.04-.32.07-.47.12-.02,0-.05.02-.07.03-.16.05-.32.11-.48.18-.03.01-.05.03-.08.04-.15.07-.3.13-.44.21-.06.03-.12.07-.18.11-.1.06-.21.12-.3.18-.32.21-.62.46-.89.73h-.03v-3.74h3.06Zm-9.68-1.48c.17-.32.5-.52.87-.52.46,0,.86.33.95.79l.24,1.21h3.06v3.74h-.04c-.14-.14-.29-.27-.44-.4-.02-.02-.05-.03-.07-.05-.14-.11-.29-.22-.45-.32-.06-.04-.12-.07-.19-.11-.12-.07-.24-.14-.36-.2-.07-.04-.15-.07-.22-.1-.12-.05-.24-.11-.36-.15-.08-.03-.16-.06-.23-.08-.13-.04-.25-.08-.38-.11-.08-.02-.16-.04-.24-.06-.14-.03-.28-.05-.43-.07-.07,0-.14-.02-.21-.03-.21-.02-.43-.04-.65-.04-.33,0-.64.03-.96.08-.1.02-.2.04-.29.07-.16.03-.33.06-.49.11l.87-3.74Zm.87,12.48c-1.65,0-3-1.35-3-3,0-.24.02-.43.08-.64l.03-.11c.33-1.33,1.51-2.26,2.89-2.26.93,0,1.78.42,2.37,1.18h0c.25.32.43.69.54,1.11l.09.79c-.04,1.62-1.37,2.92-3,2.92Zm10,0c-1.65,0-3-1.35-3-3,0-.61.19-1.18.5-1.65l.1-.13s.05-.06.07-.08c.12-.15.26-.29.4-.41.04-.03.08-.07.12-.1.12-.1.25-.18.39-.25.06-.03.11-.07.18-.1.13-.06.28-.11.42-.15.06-.02.12-.04.19-.06.21-.05.42-.07.64-.07.19,0,.38.02.56.06.05.01.1.03.16.04.13.03.26.07.38.12.05.02.1.04.16.07.12.06.23.12.34.19.04.03.09.06.13.09.11.08.21.17.31.26.04.03.07.06.11.1.09.09.17.2.25.3.23.31.4.65.5,1.04l.03.11h0c.04.2.07.42.07.63,0,1.65-1.35,3-3,3Z"/></svg>