<svg xmlns="http://www.w3.org/2000/svg" viewBox="0 0 24 24" width="24" height="24"><path d="m18.86,2c-.2,0-4.16.07-6.86,4.93C9.3,2.07,5.34,2,5.14,2,2.86,2,1,3.86,1,6.15v4.24c0,2.58,1.37,4.93,3.49,6.24-.21.54-.33,1.11-.33,1.7,0,2.58,2.09,4.68,4.67,4.68,1.3,0,2.38-.76,3.17-1.91.79,1.15,1.87,1.91,3.17,1.91,2.57,0,4.67-2.1,4.67-4.68,0-.59-.11-1.16-.33-1.7,2.12-1.31,3.49-3.66,3.49-6.24v-4.24c0-2.29-1.86-4.15-4.14-4.15Zm-10.03,18c-.92,0-1.67-.75-1.67-1.68,0-.47.2-.91.56-1.24l1.99-1.81-2.59-.74c-1.84-.53-3.13-2.23-3.13-4.15v-4.24c0-.63.51-1.15,1.11-1.15.15,0,3.63.21,5.39,6.14v4.67c0,2.42-1.17,4.18-1.67,4.18Zm11.17-9.62c0,1.92-1.29,3.63-3.13,4.15l-2.59.74,1.99,1.81c.36.33.56.77.56,1.24,0,.92-.75,1.68-1.67,1.68-.5,0-1.67-1.77-1.67-4.18v-4.67c1.73-5.84,5.13-6.13,5.38-6.14.62,0,1.12.52,1.12,1.15v4.24Z"/></svg>