<svg xmlns="http://www.w3.org/2000/svg" viewBox="0 0 24 24" width="24" height="24"><path d="m12.02,23c1.87,0,3.75-.47,5.48-1.47,2.54-1.47,4.37-3.84,5.12-6.68.76-2.84.37-5.8-1.1-8.35C18.49,1.25,11.75-.56,6.5,2.47c-2.54,1.47-4.37,3.84-5.12,6.68-.76,2.84-.37,5.8,1.1,8.35,2.04,3.52,5.74,5.5,9.54,5.5ZM8,5.07c1.26-.73,2.63-1.07,3.99-1.07,2.77,0,5.46,1.43,6.94,4,2.21,3.82.89,8.72-2.93,10.93h0c-3.82,2.21-8.72.89-10.93-2.93-2.21-3.82-.89-8.72,2.93-10.93Z"/><path d="M16.82 8.35 12.75 10.7 12.75 6 11.25 6 11.25 13.3 17.57 9.65 16.82 8.35z"/></svg>