<svg xmlns="http://www.w3.org/2000/svg" viewBox="0 0 24 24" width="24" height="24"><path d="m20.31,9.42h0s2.59-3.89,2.59-3.89h-4.67s-.67,0-.67,0l-.48-1.21-1.09-2.73-2.52,1.51-1.75,1.05c-.08.05-.12.06-.12.06-.04,0-.07,0-.11,0-.17,0-.34-.06-.48-.17l-.95-.76L6.01.05v5.2s0,1.67,0,1.67H.39l4.27,4.27.32.32-.32.32L.39,16.08h7.01v7.7l4.27-4.27,2.03-2.03c.05-.05.16-.1.29-.12.07-.01.14-.02.21-.04.08-.01.15-.02.21-.02.08,0,.14.01.18.03l1.13.57,4.57,2.29-1-5.01-.16-.81,1.18-.79,3.12-2.08-3.12-2.08h0Zm-9.91,7.12v-1.63c0-.55-.26-1.08-.71-1.44-.31-.25-.7-.38-1.11-.38h-.94l.08-.08c.48-.48.71-1.15.63-1.84-.05-.41-.25-.8-.57-1.12l-.14-.14c.48-.05.91-.32,1.15-.73.15-.26.23-.53.23-.8v-2.08l.13.11c.79.64,1.83.93,2.86.79.42-.05.85-.21,1.26-.46l1.25-.75.55,1.37c.12.3.33.57.61.8.3.24.7.38,1.12.38h.5l-.07.1c-.29.44-.39.97-.27,1.51.11.49.39.92.81,1.19l.25.17-1.18.79c-.17.12-.33.26-.45.43l-.05.07c-.29.41-.4.93-.3,1.43l.11.55-.22-.11c-.67-.34-1.47-.43-2.3-.27l-.13.02c-.75.12-1.42.46-1.92.96l-1.18,1.18Z"/></svg>