<svg xmlns="http://www.w3.org/2000/svg" width="24" height="24" viewBox="0 0 24 24"><path d="M15.5 1a7.503 7.503 0 0 0-7.49 7.9l-6.12 6.05-.89.88V23h7.24l.88-.88 1-1 .88-.88.12-.12 1-1 .88-.88.12-.12 1-1 .88-.88.11-.11.13-.13h.26c4.14 0 7.5-3.37 7.5-7.5S19.64 1 15.5 1m0 12h-.54c-.29 0-.57-.02-.85-.11L13 13.99l-1-1v2l-1 1-1-1v2l-1 1-1-1v2l-1 1H4v-2.91l7.25-7.17A4.5 4.5 0 0 1 11 8.49c0-2.49 2.01-4.5 4.5-4.5S20 6 20 8.49s-2.01 4.5-4.5 4.5Z"/><path d="M14 6.69 17.31 10c.92-.92.92-2.4 0-3.31s-2.4-.91-3.31 0"/></svg>