<svg xmlns="http://www.w3.org/2000/svg" viewBox="0 0 24 24" width="24" height="24"><path d="m5.29,21h12.01c3.14,0,5.69-2.69,5.69-6,0-1.32-.42-2.54-1.11-3.54.15-.21.28-.42.4-.64.46-.86.71-1.84.71-2.82,0-1.6-.62-3.11-1.76-4.24-1.13-1.13-2.64-1.76-4.24-1.76s-3.11.62-4.24,1.76c-.65.65-1.13,1.43-1.42,2.27-.15-.01-.3-.03-.45-.03-3.5,0-6.42,2.71-6.99,6.25-1.68.61-2.89,2.29-2.89,4.25,0,2.48,1.93,4.5,4.29,4.5ZM14.88,5.88c1.13-1.13,3.11-1.13,4.24,0,.57.57.88,1.32.88,2.12,0,.5-.12.97-.35,1.4-.02.03-.05.06-.07.1-.91-.43-1.94-.6-3.01-.45-.63-.91-1.44-1.64-2.35-2.16.15-.38.37-.72.66-1.01ZM5.29,15h1.5v-1.5c0-2.48,1.83-4.5,4.09-4.5,1.51,0,2.89.93,3.61,2.44l.6,1.28,1.31-.53c.32-.13.61-.19.9-.19,1.48,0,2.69,1.35,2.69,3s-1.21,3-2.69,3H5.29c-.71,0-1.29-.67-1.29-1.5s.58-1.5,1.29-1.5Z"/></svg>