<svg xmlns="http://www.w3.org/2000/svg" viewBox="0 0 24 24" width="24" height="24"><path d="m20.94.94l-2.94,2.94V1h-3v2.02c-.08,0-.16-.02-.25-.02-2.24,0-4.29,1.13-5.49,3.02L1.99,17.5c-.82,1.3-.64,2.97.45,4.06.63.63,1.46.96,2.31.96.6,0,1.21-.17,1.75-.51l11.48-7.27c1.89-1.2,3.02-3.25,3.02-5.49,0-.08-.02-.16-.02-.25h2.02v-3h-2.88l2.94-2.94-2.12-2.12Zm-4.57,11.27l-1.29.82-2.55-2.55-1.06,1.06,2.31,2.31-1.76,1.12-1.49-1.49-1.06,1.06,1.25,1.25-5.83,3.69c-.11.07-.24.05-.33-.04s-.1-.22-.04-.33l7.27-11.48c.65-1.02,1.75-1.63,2.96-1.63.73,0,1.41.28,1.92.8l.53.53c.51.51.8,1.2.8,1.92,0,1.21-.61,2.31-1.63,2.96Z"/></svg>