<svg xmlns="http://www.w3.org/2000/svg" viewBox="0 0 24 24" width="24" height="24"><path d="m22.83,4.57l.84-1.24-3.91-2.65-3.14,5.32h-4.67c-.12-1.28-.64-2.47-1.56-3.39-1.04-1.04-2.42-1.61-3.89-1.61s-2.85.57-3.89,1.61c-1.04,1.04-1.61,2.42-1.61,3.89s.57,2.85,1.61,3.89c1.01,1.01,2.34,1.57,3.76,1.6.92,3.01,3.48,5.31,6.63,5.87v2.14h-3v3h9v-3h-3v-2.14c3.97-.71,7-4.18,7-8.36v-3.5h-4.64l1.88-3.18,2.59,1.75Zm-18.83,1.93c0-.67.26-1.3.73-1.77.95-.94,2.59-.94,3.54,0,.35.35.59.79.68,1.27h-2.95v2.95c-.48-.1-.92-.33-1.27-.68-.47-.47-.73-1.1-.73-1.77Zm10.5,8.5c-1.15,0-2.22-.36-3.11-.97,1.4-.02,2.8-.4,4-1.15,1.19-.74,2.61-1.03,3.99-.88-.91,1.77-2.76,2.99-4.89,2.99Zm5.5-5.5c0,.36-.04.72-.11,1.06-1.82-.28-3.72.07-5.29,1.05-1.42.88-3.17,1.13-4.8.74-.51-.83-.81-1.81-.81-2.85v-.5h11v.5Z"/></svg>