<svg xmlns="http://www.w3.org/2000/svg" viewBox="0 0 24 24" width="24" height="24"><path d="m8.97,20.99c1.29,1.3,3.07,2.01,5.01,2.01h0c2.28,0,4.57-.99,6.29-2.72,1.72-1.72,2.71-4.01,2.72-6.29,0-1.94-.71-3.72-2.01-5.02-1.38-1.38-3.3-2.07-5.33-1.99-.95-3.5-3.82-5.98-7.16-5.98C4.36,1,1,4.81,1,9.5c0,4.18,2.68,7.66,6.19,8.36.31,1.2.91,2.26,1.78,3.13Zm2.38-8.7c.07-.09.15-.17.23-.25.08-.08.15-.17.23-.25.23-.24.49-.45.75-.64.45-.33.93-.61,1.43-.8,0,0,.01,0,.02,0,.26-.1.52-.18.79-.24h0c.4-.09.79-.14,1.17-.14,1.02,0,1.96.34,2.68.95-.13,0-.25.02-.39.02-.84.03-1.89.06-2.93,1.1s-1.07,2.08-1.1,2.93c-.03.75-.04,1.3-.66,1.92-.62.62-1.16.63-1.92.66-.41.01-.87.03-1.35.16-.17-.4-.29-.85-.33-1.32-.02-.2-.02-.4-.01-.6.05-1.21.55-2.45,1.39-3.48Zm6.81,5.86h0c-1.16,1.17-2.68,1.84-4.17,1.84h0c-1.03,0-1.96-.34-2.67-.95.13,0,.25-.02.39-.02.84-.03,1.89-.06,2.93-1.1s1.07-2.08,1.1-2.93c.03-.75.04-1.3.66-1.92.62-.62,1.16-.63,1.92-.66.41-.01.86-.03,1.34-.16.22.52.35,1.1.35,1.72,0,1.49-.67,3.01-1.84,4.17Zm-5.44-10.54c-.31.13-.62.28-.91.45-.08.04-.15.09-.22.13-.26.15-.52.32-.76.51-.09.07-.18.13-.27.2-.3.24-.6.49-.87.77,0,0,0,0,0,0,0,0,0,0,0,0,0,0,0,0,0,0,0,0-.01.01-.02.02-.2-.27-.41-.5-.61-.72-.52-.55-.89-.95-.89-1.82s.37-1.27.89-1.82c.28-.3.59-.64.84-1.07,1.31.52,2.36,1.76,2.83,3.35Zm-8.73,1.88c0-2.92,1.87-5.31,4.23-5.48-.09.1-.17.2-.27.3-.58.62-1.29,1.38-1.29,2.84s.72,2.23,1.29,2.85c.29.31.53.58.68.9-.04.06-.08.12-.12.17-.05.07-.1.14-.14.21-.16.25-.31.5-.44.75,0,.02-.01.03-.02.05-.12.24-.23.49-.33.74-.03.08-.06.16-.09.23-.07.2-.14.41-.2.61-.02.07-.04.15-.06.22-.07.27-.13.53-.17.8-1.78-.74-3.06-2.8-3.06-5.21Z"/></svg>