<svg xmlns="http://www.w3.org/2000/svg" viewBox="0 0 24 24" width="24" height="24"><path d="m11.5,1C6.41,1,1,4.33,1,10.5c0,2.97.98,5.33,3,7.19v5.31h3v-6.72l-.56-.45c-1.69-1.35-2.44-3-2.44-5.33,0-4.27,3.77-6.5,7.5-6.5s6.5,2.69,6.5,6v.26l1.36,3.74h-2.36v4h-5v5h3v-2h5v-4h3.64l-2.65-7.28c-.15-4.84-4.35-8.72-9.5-8.72Z"/><path d="m11,10.25h-1v1.5h1c1.61,0,2.91-1.29,2.91-2.88s-1.29-2.88-2.88-2.88c-1.33,0-2.59.52-3.54,1.46-.94.95-1.46,2.2-1.46,3.54s.52,2.59,1.46,3.54c.95.94,2.2,1.46,3.54,1.46s2.59-.52,3.54-1.46l-1.06-1.06c-1.32,1.32-3.63,1.32-4.95,0-.66-.66-1.03-1.54-1.03-2.48s.36-1.81,1.03-2.48c.66-.66,1.54-1.02,2.47-1.02.76,0,1.38.62,1.38,1.38s-.65,1.38-1.41,1.38Z"/></svg>