<svg xmlns="http://www.w3.org/2000/svg" viewBox="0 0 24 24" width="24" height="24"><path d="m20.44,7.12v-3.57h-3.57l-1.79-3.09-3.09,1.79-3.09-1.79-1.79,3.09h-3.57v3.57l-3.09,1.79,1.79,3.09-1.79,3.09,3.09,1.79v3.57h3.57l1.79,3.09,3.09-1.79,3.09,1.79,1.79-3.09h3.57v-3.57l3.09-1.79-1.79-3.09,1.79-3.09-3.09-1.79Zm-1.01,6.87l-1.99,1.15v2.3h-2.3l-1.15,1.99-2-1.15-2,1.15-1.15-1.99h-2.3v-2.3l-1.99-1.15,1.15-2-1.15-2,1.99-1.15v-2.3h2.3l1.15-1.99,2,1.15,2-1.15,1.15,1.99h2.3v2.3l1.99,1.15-1.15,2,1.15,2Z"/></svg>