<svg xmlns="http://www.w3.org/2000/svg" viewBox="0 0 24 24" width="24" height="24"><path d="m22.04,9.88c.21-.31.38-.63.53-.98.15-.35.26-.71.33-1.08.05-.26.08-.54.09-.85l.09-1.66-1.67.08c-.08,0-.15.01-.15.02-1.52,0-2.76-1.24-2.76-2.68l.11-1.9-1.69.09c-.28.02-.56.04-.83.09-.38.08-.74.19-1.08.34-.34.14-.67.32-.98.53-.3.2-.59.44-.85.7-.26.26-.5.55-.7.85-.21.31-.39.64-.53.98-.15.35-.26.71-.34,1.08-.04.18-.06.36-.08.54-.22-.02-.43-.04-.65-.04-3.5,0-6.42,2.71-6.99,6.25-1.68.61-2.89,2.29-2.89,4.25,0,2.48,1.93,4.5,4.29,4.5h12.01c3.14,0,5.69-2.69,5.69-6,0-1.66-.64-3.17-1.68-4.25,0,0,.01,0,.02-.01.26-.26.5-.54.71-.86Zm-4.73,8.12H5.29c-.71,0-1.29-.67-1.29-1.5s.58-1.5,1.29-1.5h1.5v-1.5c0-2.48,1.83-4.5,4.09-4.5,1.51,0,2.89.93,3.61,2.44l.6,1.28,1.31-.53c.32-.13.61-.19.9-.19,1.48,0,2.69,1.35,2.69,3s-1.21,3-2.69,3Zm0-9c-.25,0-.49.02-.74.05-.55-.8-1.24-1.45-2.02-1.96-.02-.15-.04-.29-.04-.44,0-.19.02-.38.06-.56.04-.17.09-.35.16-.52.07-.16.15-.32.25-.47.1-.15.21-.29.34-.41.13-.13.27-.24.41-.34l.04-.03c.56,1.82,2,3.26,3.82,3.82,0,.02-.02.03-.03.04-.1.15-.21.29-.34.41-.12.12-.26.24-.4.33-.11.07-.22.13-.33.18-.38-.08-.77-.13-1.16-.13Z"/></svg>