<svg xmlns="http://www.w3.org/2000/svg" width="24" height="24" viewBox="0 0 24 24"><path d="M15.3 1H8.69l-2 3H1v17h22V4h-5.7zM20 18H4V7h4.3l2-3h3.39l2 3h4.3v11Z"/><path d="M14.82 9.18c-.18-.18-.38-.35-.59-.49a3.4 3.4 0 0 0-.68-.37q-.36-.15-.75-.24a3.9 3.9 0 0 0-1.6 0q-.39.075-.75.24c-.24.1-.46.23-.68.37-.21.14-.41.31-.59.49s-.35.38-.49.59l1.24.84c.09-.14.2-.26.31-.37.12-.12.24-.22.38-.31.13-.09.28-.17.43-.23s.3-.11.46-.15c.32-.07.66-.07.98 0 .16.03.31.08.46.15.15.06.29.14.43.23s.26.2.37.31c.12.12.22.24.31.38.04.06.07.13.11.2L12.99 12h3V9l-.73.73c-.13-.19-.28-.38-.45-.55ZM13.76 13.75c-.12.12-.24.22-.38.31-.13.09-.28.17-.43.23s-.3.11-.46.15c-.32.07-.66.07-.98 0-.16-.03-.31-.08-.46-.15-.15-.06-.29-.14-.43-.23s-.26-.2-.37-.31a2.2 2.2 0 0 1-.31-.38c-.04-.06-.07-.13-.11-.2l1.18-1.18h-3v3l.73-.73a3.9 3.9 0 0 0 1.04 1.04c.21.15.44.27.68.37q.36.15.75.24c.26.06.53.08.8.08s.54-.03.8-.08q.39-.075.75-.24c.24-.1.46-.23.68-.37.21-.14.41-.31.59-.49s.35-.38.49-.59l-1.24-.84c-.09.14-.2.26-.31.37Z"/></svg>