<svg xmlns="http://www.w3.org/2000/svg" width="24" height="24" viewBox="0 0 24 24"><path d="m21.32 7.19-.2-.26-.27-.2C19.36 5.6 17.68 5 16 5c-1.16 0-2.27.29-3.25.81V4H15V2.5h-2.25V1h-1.5v1.5H9V4h2.25v1.81C10.27 5.3 9.16 5 8 5c-1.69 0-3.36.6-4.85 1.73l-.27.2-.2.26C.64 9.84.71 12.66 1.55 15H1v8h22v-8h-.55c.84-2.34.91-5.16-1.13-7.81M12 11.04l.45-.87c.54-1.05 1.5-1.8 2.65-2.07 1.27-.29 2.65.06 3.89.97 2.85 3.78-1.17 7.9-1.34 8.07l-.85.85H20v2H4v-2h3.2l-.85-.85c-.17-.17-4.19-4.29-1.34-8.07C6.25 8.15 7.63 7.8 8.9 8.1c1.15.26 2.12 1.02 2.65 2.07z"/></svg>