<svg xmlns="http://www.w3.org/2000/svg" width="24" height="24" viewBox="0 0 24 24"><path d="M12 1C5.93 1 1 5.93 1 12s4.93 11 11 11 11-4.93 11-11S18.07 1 12 1m0 3c2.95 0 5.53 1.61 6.92 4H5.08C6.47 5.61 9.04 4 12 4m0 16c-4.41 0-8-3.59-8-8 0-.87.15-1.71.41-2.5H5v.5c0 1.66 1.34 3 3 3s3-1.34 3-3v-.5h2v.5c0 1.66 1.34 3 3 3s3-1.34 3-3v-.5h.59c.26.79.41 1.63.41 2.5 0 4.41-3.59 8-8 8"/><path d="M12.01 16.25c-1.13 0-2.2-.44-3-1.24l-1.06 1.06c1.09 1.09 2.53 1.68 4.07 1.68s2.98-.6 4.07-1.68l-1.06-1.06c-.8.8-1.87 1.24-3 1.24Z"/></svg>