<svg xmlns="http://www.w3.org/2000/svg" viewBox="0 0 24 24" width="24" height="24"><path d="m22.96,9.9l-1.84.47c-.26.07-.48.1-.67.1-1.48,0-2.69-1.19-2.72-2.67l.09-2.18-1.96.52c-.27.07-.49.1-.69.1-1.5,0-2.72-1.23-2.72-2.73,0-.19.03-.4.09-.65l.5-2.05-2.11.2C5.27,1.55,1,6.27,1,11.98c0,6.08,4.93,11.02,11,11.02s11-4.95,11-11.02c0-.06,0-.12,0-.18l-.04-1.9Zm-10.96,10.1c-4.41,0-8-3.6-8-8.02,0-3.55,2.27-6.58,5.5-7.63.39,2.69,2.65,4.77,5.42,4.89.61,2.26,2.56,3.97,4.95,4.21-.69,3.72-3.96,6.55-7.87,6.55Z"/><path d="M12.5 10A1.5 1.5 0 1 0 12.5 13 1.5 1.5 0 1 0 12.5 10z"/><path d="M15.5 1A1.5 1.5 0 1 0 15.5 4 1.5 1.5 0 1 0 15.5 1z"/><path d="M7.5 11A1.5 1.5 0 1 0 7.5 14 1.5 1.5 0 1 0 7.5 11z"/><path d="M9 8A1 1 0 1 0 9 10 1 1 0 1 0 9 8z"/><path d="M15 14A1 1 0 1 0 15 16 1 1 0 1 0 15 14z"/><path d="M22 5A1 1 0 1 0 22 7 1 1 0 1 0 22 5z"/><path d="M10.5 15A1.5 1.5 0 1 0 10.5 18 1.5 1.5 0 1 0 10.5 15z"/></svg>