<svg xmlns="http://www.w3.org/2000/svg" viewBox="0 0 24 24" width="24" height="24"><path d="m22.79,8.79c-.14-1.31-.34-2.51-.6-3.56-.28-1.11-.62-2-1-2.66-.77-1.29-1.68-1.56-2.32-1.56s-1.55.27-2.32,1.57c-.33.55-.62,1.27-.86,2.14-2.36-.72-5-.72-7.36,0-.25-.87-.54-1.59-.86-2.14-.76-1.29-1.68-1.57-2.32-1.57s-1.55.27-2.32,1.57c-.39.66-.72,1.55-1,2.66-.26,1.05-.47,2.25-.6,3.56-.2,1.97-.21,4.34-.21,4.79,0,1.68.53,3.26,1.43,4.63l-1.11,1.11.35.35,1.05-1.05c.32.43.68.84,1.08,1.22l-.98.98.35.35.99-.99c2,1.74,4.77,2.81,7.83,2.81s5.84-1.08,7.83-2.81l.99.99.35-.35-.98-.98c.4-.38.76-.78,1.08-1.22l1.05,1.05.35-.35-1.11-1.11c.91-1.37,1.43-2.95,1.43-4.63,0-.45-.01-2.82-.21-4.79h0Zm-3.66,7.69c-.29.45-.63.87-1.04,1.25l-.91-.91-.35.35.89.89c-1.45,1.19-3.48,1.93-5.71,1.93s-4.26-.74-5.71-1.93l.89-.89-.35-.35-.91.91c-.41-.38-.75-.8-1.04-1.25l.8-.8-.35-.35-.71.71c-.39-.76-.61-1.58-.61-2.45,0-.26,0-2.62.2-4.48.12-1.16.3-2.24.53-3.15.14-.58.29-1,.41-1.31.12.31.27.73.41,1.31.08.33.16.68.22,1.05l.36,1.93,1.77-.85c2.49-1.2,5.71-1.2,8.2,0l1.77.85.36-1.93c.07-.37.14-.73.22-1.05.14-.58.29-1,.41-1.31.12.31.27.73.41,1.31.23.9.41,1.99.53,3.15.19,1.87.2,4.22.2,4.48,0,.87-.22,1.7-.61,2.45l-.71-.71-.35.35.8.8Z"/><path d="M16.5 11A1.5 1.5 0 1 0 16.5 14 1.5 1.5 0 1 0 16.5 11z"/><path d="M7.5 11A1.5 1.5 0 1 0 7.5 14 1.5 1.5 0 1 0 7.5 11z"/><path d="m12.79,16.71c-.19-.19-.29-.44-.29-.71,0-.03.01-.05.02-.08.85-.25,1.48-1.08,1.48-1.92,0-.55-.9-1-2-1s-2,.45-2,1c0,.84.63,1.67,1.48,1.92,0,.03.02.05.02.08,0,.27-.1.52-.29.71-.38.38-1.04.38-1.41,0l-.71.71c.38.38.88.59,1.41.59s1.04-.21,1.41-.59c.03-.03.06-.07.09-.1.03.03.05.07.09.1.38.38.88.59,1.41.59s1.04-.21,1.41-.59l-.71-.71c-.38.38-1.04.38-1.41,0Z"/></svg>