<svg xmlns="http://www.w3.org/2000/svg" viewBox="0 0 24 24" width="24" height="24"><path d="M8 18H21V19.5H8z"/><path d="M3 18H6V19.5H3z"/><path d="M6 21.5H18V23H6z"/><path d="m20.11,7.25c-.57-3.54-3.49-6.25-6.99-6.25-2.28,0-4.36,1.14-5.68,3.05-.25-.04-.5-.05-.74-.05-3.14,0-5.69,2.69-5.69,6s2.55,6,5.69,6h12.01c2.37,0,4.29-2.02,4.29-4.5,0-1.97-1.21-3.64-2.89-4.25Zm-1.4,5.75H6.69c-1.48,0-2.69-1.35-2.69-3s1.21-3,2.69-3c.29,0,.59.06.9.19l1.31.53.6-1.28c.71-1.5,2.09-2.44,3.61-2.44,2.25,0,4.09,2.02,4.09,4.5v1.5h1.5c.71,0,1.29.67,1.29,1.5s-.58,1.5-1.29,1.5Z"/></svg>