<svg xmlns="http://www.w3.org/2000/svg" viewBox="0 0 24 24" width="24" height="24"><path d="m19,8.25c1,.67,2.33,1.25,4,1.25v-1.5c-1.85,0-3.2-.9-4-1.66v-2.09c1,.67,2.33,1.25,4,1.25v-1.5c-3.11,0-4.8-2.55-4.87-2.65h-1.27c-.07.12-1.68,2.65-4.86,2.65v1.5c1.69,0,3.01-.56,4-1.23v2.09c-.79.75-2.12,1.63-4,1.63v1.5c1.69,0,3.01-.56,4-1.23v2.73H6.6L.14,23h23.85l-4.99-9.07v-5.68Zm-1.46-5.25h-.07s.02-.03.04-.04c.01.01.03.03.04.04ZM5.16,20l2.36-4.38,2.43,4.38h-4.79Zm8.22,0l-3.33-6h5.56l3.3,6h-5.53Z"/><path d="m5.5,10c2.48,0,4.5-2.02,4.5-4.5S7.98,1,5.5,1,1,3.02,1,5.5s2.02,4.5,4.5,4.5Zm0-6c.83,0,1.5.67,1.5,1.5s-.67,1.5-1.5,1.5-1.5-.67-1.5-1.5.67-1.5,1.5-1.5Z"/></svg>