<svg xmlns="http://www.w3.org/2000/svg" viewBox="0 0 24 24" width="24" height="24"><path d="m12,4c-5.47,0-11,1.82-11,5.29v5.42c0,3.47,5.53,5.29,11,5.29s11-1.82,11-5.29v-5.42c0-3.47-5.53-5.29-11-5.29ZM4,14.71v-1.68c.6.29,1.26.54,1.97.75v2.27c-1.3-.49-1.97-1.05-1.97-1.34Zm8.75-.14c1.3-.04,2.58-.18,3.78-.42v2.36c-1.04.25-2.29.43-3.78.48v-2.42Zm-1.5,2.42c-1.48-.05-2.74-.23-3.78-.48v-2.36c1.2.24,2.48.38,3.78.42v2.42Zm6.78-.93v-2.27c.71-.21,1.38-.46,1.97-.75v1.68c0,.29-.67.85-1.97,1.34Zm-6.03-4.47c-5.25,0-8-1.7-8-2.29s2.75-2.29,8-2.29,8,1.7,8,2.29-2.75,2.29-8,2.29Z"/></svg>