<svg xmlns="http://www.w3.org/2000/svg" width="24" height="24" viewBox="0 0 24 24"><path d="M23 9c0-2.48-2.02-4.5-4.5-4.5-.7 0-1.39.16-2.03.47C16.21 2.74 14.3 1 12 1S7.8 2.74 7.53 4.97C6.89 4.66 6.2 4.5 5.5 4.5 3.02 4.5 1 6.52 1 9c0 1.47.71 2.8 1.83 3.62L3.15 15H1v8h22v-8h-2.15l.32-2.38A4.48 4.48 0 0 0 23 9m-4.22 1.47-.36.07-.99 7.47H20v2H4v-2h2.57l-.99-7.47-.36-.07A1.49 1.49 0 0 1 4 9c0-.6.36-1.14.91-1.38.59-.26 1.26-.11 1.86.41.27.62.31 1.14.1 1.56l-.09.2 2.34 5.83 2.19-8.75-.24-.2a1.51 1.51 0 0 1-.56-1.16c0-.83.67-1.5 1.5-1.5s1.5.67 1.5 1.5c0 .45-.2.87-.56 1.16l-.24.2 2.19 8.75 2.34-5.83-.09-.2c-.2-.42-.17-.94.1-1.56.59-.52 1.27-.67 1.86-.41.55.24.91.78.91 1.38 0 .72-.51 1.34-1.22 1.47Z"/></svg>