<svg xmlns="http://www.w3.org/2000/svg" width="24" height="24" viewBox="0 0 24 24"><path d="M12 8c-2.21 0-4 1.79-4 4s1.79 4 4 4 4-1.79 4-4-1.79-4-4-4m0 6.5c-1.36 0-2.5-1.14-2.5-2.5s1.14-2.5 2.5-2.5 2.5 1.14 2.5 2.5-1.14 2.5-2.5 2.5"/><path d="M19.71 3.38 17.2 4.83q-.75-.555-1.59-.93V1H8.39v2.9c-.56.25-1.09.57-1.59.93L4.29 3.38.67 9.62l2.49 1.44c-.03.31-.05.62-.05.94s.02.62.05.94L.67 14.38l3.61 6.25 2.51-1.45q.75.555 1.59.93v2.9h7.22v-2.9c.56-.25 1.09-.57 1.59-.93l2.51 1.45 3.61-6.25-2.49-1.44c.03-.31.05-.62.05-.94s-.02-.62-.05-.94l2.49-1.44-3.61-6.25Zm-1.99 7.28c.11.44.17.9.17 1.35s-.06.9-.17 1.35l-.27 1.1 1.78 1.03-.61 1.06-1.79-1.04-.81.77a5.86 5.86 0 0 1-2.34 1.37l-1.06.32v2.04H11.4v-2.04l-1.06-.32c-.86-.26-1.67-.74-2.34-1.37l-.81-.77-1.79 1.04-.61-1.06 1.78-1.03-.27-1.1c-.11-.44-.17-.9-.17-1.35s.06-.9.17-1.35l.27-1.1-1.78-1.03.61-1.06 1.79 1.04.81-.77a5.86 5.86 0 0 1 2.34-1.37l1.06-.32V4.01h1.22v2.04l1.06.32c.86.26 1.67.74 2.34 1.37l.81.77 1.79-1.04.61 1.06-1.78 1.03z"/></svg>