<svg xmlns="http://www.w3.org/2000/svg" viewBox="0 0 24 24" width="24" height="24"><path d="m18.01,6H5.99l-2.46,6h-1.54v9h1v2h4v-2h10v2h4v-2h1v-9h-1.54l-2.46-6Zm.99,12H5v-3h14v3Zm-10.99-9h7.99l1.23,3H6.78l1.23-3Z"/><path d="M4 7 4.92 4.92 7 4 4.92 3.08 4 1 3.08 3 1 4 3.08 4.92 4 7z"/><path d="M17.62 3.62 19 3 17.62 2.38 17 1 16.38 2.33 15 3 16.38 3.62 17 5 17.62 3.62z"/><path d="M21 3 20.38 4.33 19 5 20.38 5.62 21 7 21.62 5.62 23 5 21.62 4.38 21 3z"/><path d="M7 15.5A1 1 0 1 0 7 17.5 1 1 0 1 0 7 15.5z"/><path d="M17 15.5A1 1 0 1 0 17 17.5 1 1 0 1 0 17 15.5z"/></svg>