<svg xmlns="http://www.w3.org/2000/svg" width="24" height="24" viewBox="0 0 24 24"><path d="M18.5 14H17v-4h1.5c2.48 0 4.5-2.02 4.5-4.5S20.98 1 18.5 1 14 3.02 14 5.5V7h-4V5.5C10 3.02 7.98 1 5.5 1S1 3.02 1 5.5 3.02 10 5.5 10H7v4H5.5C3.02 14 1 16.02 1 18.5S3.02 23 5.5 23s4.5-2.02 4.5-4.5V17h4v1.5c0 2.48 2.02 4.5 4.5 4.5s4.5-2.02 4.5-4.5-2.02-4.5-4.5-4.5M17 5.5c0-.83.67-1.5 1.5-1.5s1.5.67 1.5 1.5S19.33 7 18.5 7H17zm-10 13c0 .83-.67 1.5-1.5 1.5S4 19.33 4 18.5 4.67 17 5.5 17H7zM7 7H5.5C4.67 7 4 6.33 4 5.5S4.67 4 5.5 4 7 4.67 7 5.5zm7 7h-4v-4h4zm4.5 6c-.83 0-1.5-.67-1.5-1.5V17h1.5c.83 0 1.5.67 1.5 1.5s-.67 1.5-1.5 1.5"/></svg>