<svg xmlns="http://www.w3.org/2000/svg" viewBox="0 0 24 24" width="24" height="24"><path d="m18,1h-3v2h-6V1h-3v2H2v20h20V3h-4V1Zm1,19H5v-12h14v12Z"/><path d="m8.84,14c0,.19.02.38.05.57l-.89.51,1.06,1.84.9-.52c.29.25.62.44.97.57v1.03h2.12v-1.03c.35-.13.68-.32.97-.57l.9.52,1.06-1.84-.89-.51c.04-.19.05-.38.05-.57s-.02-.38-.05-.57l.89-.51-1.06-1.84-.9.52c-.29-.25-.62-.44-.97-.57v-1.03h-2.12v1.03c-.35.13-.68.32-.97.57l-.9-.52-1.06,1.84.89.51c-.04.19-.05.38-.05.57Zm3.16-1.55c.84,0,1.55.71,1.55,1.55s-.71,1.55-1.55,1.55-1.55-.71-1.55-1.55.71-1.55,1.55-1.55Z"/></svg>