<svg xmlns="http://www.w3.org/2000/svg" viewBox="0 0 24 24" width="24" height="24"><path d="m22.03,12.74c.57-.14.97-.65.97-1.24s-.4-1.1-.97-1.24l-1.03-.26v.5c0-1.3-.33-2.53-.92-3.59l.53-.79c.33-.49.28-1.14-.12-1.57s-1.04-.54-1.55-.27l-.73.39c-1.29-1.04-2.92-1.67-4.71-1.67h.5l-.26-1.03c-.14-.57-.65-.97-1.24-.97s-1.1.4-1.24.97l-.26,1.03h-2.5c-4.14,0-7.5,3.36-7.5,7.5s3.1,7.23,7,7.48v5.02h13v-4l1.03-.26c.57-.14.97-.65.97-1.24s-.4-1.1-.97-1.24l-1.03-.26v-3l1.03-.26Zm-4.03,7.26h-7v-3.5h3v-1.5h-5.5c-2.48,0-4.5-2.02-4.5-4.5s2.02-4.5,4.5-4.5h5c2.48,0,4.5,2.02,4.5,4.5v9.5Z"/><path d="M12.5 8A1.5 1.5 0 1 0 12.5 11 1.5 1.5 0 1 0 12.5 8z"/><path d="M6.5 9A.5.5 0 1 0 6.5 10 .5.5 0 1 0 6.5 9z"/></svg>