<svg xmlns="http://www.w3.org/2000/svg" viewBox="0 0 24 24" width="24" height="24"><path d="m12,8c-2.21,0-4,1.79-4,4s1.79,4,4,4,4-1.79,4-4-1.79-4-4-4Zm0,5c-.55,0-1-.45-1-1s.45-1,1-1,1,.45,1,1-.45,1-1,1Z"/><path d="m22.5,8.54l-1.15-.06c-1.48-.07-2.67-1.2-2.82-2.68l-.15-1.52-1.68.2c-.07,0-.13.02-.2.02-1.4,0-2.6-.96-2.92-2.33l-.22-1.16h-1.36c-6.07,0-11,4.93-11,10.99s4.93,11,11,11,11-4.93,11-11c0-.77-.09-1.56-.25-2.34l-.24-1.12Zm-10.5,11.46c-4.41,0-8-3.59-8-8,0-4.11,3.12-7.51,7.07-7.95.88,1.89,2.67,3.19,4.78,3.42.65,1.88,2.18,3.32,4.12,3.82.02.24.03.48.03.71,0,4.41-3.59,8-8,8Z"/></svg>