<svg xmlns="http://www.w3.org/2000/svg" viewBox="0 0 24 24" width="24" height="24"><path d="m20.5,1c-1.93,0-3.5,1.57-3.5,3.5v2c0,.28-.22.5-.5.5s-.5-.22-.5-.5v-1.5c0-2.21-1.79-4-4-4s-4,1.79-4,4v5.5c0,.28-.22.5-.5.5s-.5-.22-.5-.5v-1c0-1.93-1.57-3.5-3.5-3.5s-3.5,1.57-3.5,3.5v1c0,4.14,3.36,7.5,7.5,7.5h.5v2h-4v3h16v-3h-4v-6h.86c3.93,0,7.14-3.2,7.14-7.14v-2.36c0-1.93-1.57-3.5-3.5-3.5Zm.5,5.86c0,2.28-1.86,4.14-4.14,4.14h-3.86v9h-2v-5h-3.5c-2.48,0-4.5-2.02-4.5-4.5v-1c0-.28.22-.5.5-.5s.5.22.5.5v1c0,1.93,1.57,3.5,3.5,3.5s3.5-1.57,3.5-3.5v-5.5c0-.55.45-1,1-1s1,.45,1,1v1.5c0,1.93,1.57,3.5,3.5,3.5s3.5-1.57,3.5-3.5v-2c0-.28.22-.5.5-.5s.5.22.5.5v2.36Z"/></svg>