<svg xmlns="http://www.w3.org/2000/svg" viewBox="0 0 24 24" width="24" height="24"><path d="m17.53,3h-4.95c-1.05-2-2.58-2-2.58-2v2s0,0,0,0v6h-4.5c-1.21,0-1.48-.82-1.5-1.51v-1.49H1v1.5c0,1.25.57,2.91,2,3.83l.05,11.67h6.94v-4h1v4h7v-8.94c1.7-.68,3.27-1.7,4.56-3l.44-.44v-5.62h-2.97l-2.5-2Zm-3.53,17v-4h-7v4h-.96l-.04-8h5.38c.89,1.14,2.16,1.97,3.61,2.32v5.68h-1Zm6-10.65c-1.06.94-2.31,1.67-3.66,2.12h-.03c-1.84-.09-3.31-1.61-3.31-3.47v-2h3.47l2.5,2h1.03v1.35Z"/><path d="M16 7A1 1 0 1 0 16 9 1 1 0 1 0 16 7z"/></svg>