<svg xmlns="http://www.w3.org/2000/svg" viewBox="0 0 24 24" width="24" height="24"><path d="m17.75,7c0-2.21-2.44-4.82-3.19-5.56l-1.06-1.06-1.06,1.06c-.75.75-3.19,3.35-3.19,5.56s1.91,4,4.25,4,4.25-1.79,4.25-4Zm-5.5,0c0-.44.55-1.35,1.25-2.24.7.88,1.25,1.8,1.25,2.24,0,.54-.57,1-1.25,1s-1.25-.46-1.25-1Z"/><path d="m16.75,12.51l-3.14,1.98-1.12-1.49c-.47-.63-1.22-1-2-1H1v11h12.76c1.18,0,2.34-.48,3.18-1.32l7.19-7.19-5.05-2.17c-.76-.32-1.62-.26-2.32.18Zm-1.94,7.05c-.28.28-.67.44-1.06.44H4v-5h6.25l1.5,2h-4.75v1.5h5.85v-.03l.03.04,5.25-3.32.74.32-4.05,4.05Z"/></svg>