<svg xmlns="http://www.w3.org/2000/svg" viewBox="0 0 24 24" width="24" height="24"><path d="m13.29,15.71c-.19-.19-.29-.44-.29-.71,0-.1.03-.19.06-.28.85-.46,1.44-1.42,1.44-2.39,0-.74-1.12-1.33-2.5-1.33s-2.5.6-2.5,1.33c0,.97.59,1.93,1.44,2.39.03.09.06.18.06.28,0,.27-.1.52-.29.71-.38.38-1.04.38-1.41,0l-.71.71c.38.38.88.59,1.41.59.36,0,.7-.1,1-.28v.28c0,.55.45,1,1,1s1-.45,1-1v-.28c.3.18.64.28,1,.28.53,0,1.04-.21,1.41-.59l-.71-.71c-.38.38-1.04.38-1.41,0Z"/><path d="M16 10A1 1 0 1 0 16 12 1 1 0 1 0 16 10z"/><path d="M8 10A1 1 0 1 0 8 12 1 1 0 1 0 8 10z"/><path d="m22.79,8.79h0c-.14-1.31-.34-2.51-.6-3.57-.28-1.11-.62-2.01-1-2.66-.77-1.29-1.68-1.56-2.32-1.56-1.21,0-3.12,2.1-4.2,3.66-1.8-.42-3.53-.42-5.33,0-1.08-1.56-2.98-3.66-4.2-3.66-.63,0-1.55.27-2.32,1.57-.39.66-.72,1.55-1,2.66-.26,1.05-.47,2.25-.6,3.56-.2,1.97-.21,4.34-.21,4.79,0,5.98,4.01,9.42,11,9.42s11-3.43,11-9.42c0-.45-.01-2.82-.21-4.79Zm-10.79,11.21c-5.31,0-8-2.16-8-6.42,0-.26,0-2.62.2-4.48.12-1.16.3-2.24.53-3.15.18-.73.36-1.22.5-1.53.67.64,1.62,1.71,2.07,2.64l.57,1.18,1.24-.4c2-.65,3.78-.65,5.78,0l1.24.4.57-1.18c.45-.93,1.39-1.99,2.07-2.64.14.31.32.8.5,1.53.22.9.41,1.99.53,3.15.19,1.87.2,4.22.2,4.48,0,4.26-2.69,6.42-8,6.42Z"/></svg>