<svg xmlns="http://www.w3.org/2000/svg" viewBox="0 0 24 24" width="24" height="24"><path d="m5.5,2h-2c-1.93,0-3.5,1.57-3.5,3.5v5c0,1.76,1.31,3.22,3,3.46v8.04h8V7.5c0-3.03-2.47-5.5-5.5-5.5Zm2.5,17h-2v-8h-2.5c-.28,0-.5-.22-.5-.5v-5c0-.28.22-.5.5-.5h2c1.38,0,2.5,1.12,2.5,2.5v11.5Z"/><path d="m20.5,2h-2c-3.03,0-5.5,2.47-5.5,5.5v14.5h8v-8.04c1.69-.24,3-1.71,3-3.46v-5c0-1.93-1.57-3.5-3.5-3.5Zm.5,8.5c0,.28-.22.5-.5.5h-2.5v8h-2V7.5c0-1.38,1.12-2.5,2.5-2.5h2c.28,0,.5.22.5.5v5Z"/><path d="M19 6H20V10H19z"/><path d="M4 6H5V10H4z"/></svg>