<svg xmlns="http://www.w3.org/2000/svg" viewBox="0 0 24 24" width="24" height="24"><path d="m5.77,21.23l-1.77,1.77h6v-6l-2.03,2.03c-2.31-1.08-3.97-3.93-3.97-7.28,0-4.27,2.69-7.75,6-7.75V1C5.04,1,1,5.82,1,11.75c0,4.1,1.93,7.67,4.77,9.48Z"/><path d="m12.31,4.51l-.58,3.49h-1.73c-2.21,0-4,1.79-4,4s1.79,4,4,4h3.84c-.27,1.02-.12,2.1.44,3.04.73,1.23,2.01,1.96,3.44,1.96h.22c.87,0,1.69-.46,2.14-1.21l2.92-4.87V2h-7.73c-1.47,0-2.72,1.05-2.96,2.51Zm7.69,9.58l-2.35,3.91c-.47-.02-.72-.35-.8-.49-.09-.15-.26-.54-.02-.99l1.92-3.52h-8.75c-.55,0-1-.45-1-1s.45-1,1-1h4.27l1-6h4.73v9.08Z"/></svg>