<svg xmlns="http://www.w3.org/2000/svg" width="24" height="24" viewBox="0 0 24 24"><path d="m14.93 11.58-.9.52c-.29-.25-.62-.44-.97-.57V10.5h-2.12v1.03c-.35.13-.68.32-.97.57l-.9-.52-1.06 1.84.89.51c-.04.19-.05.38-.05.57s.02.38.05.57l-.89.51 1.06 1.84.9-.52c.29.25.62.44.97.57v1.03h2.12v-1.03c.35-.13.68-.32.97-.57l.9.52 1.06-1.84-.89-.51c.04-.19.05-.38.05-.57s-.02-.38-.05-.57l.89-.51zM12 16.04c-.84 0-1.55-.71-1.55-1.55s.71-1.55 1.55-1.55 1.55.71 1.55 1.55-.71 1.55-1.55 1.55"/><path d="M3 1v22h18V7.38L14.62 1zm3 19V4h7v5h5v11z"/></svg>