<svg xmlns="http://www.w3.org/2000/svg" viewBox="0 0 24 24" width="24" height="24"><path d="m12.74,1.19l-.74-.41-.74.41c-.34.19-8.26,4.75-8.26,12.92,0,4.9,4.04,8.89,9,8.89s9-3.99,9-8.89C21,5.94,13.07,1.38,12.74,1.19Zm-2.99,16.31c0-2.27,1.43-4.49,2.25-5.56.82,1.08,2.25,3.29,2.25,5.56,0,1.04-.48,1.93-1.17,2.4-.35.06-.71.1-1.08.1s-.73-.04-1.08-.1c-.7-.47-1.17-1.36-1.17-2.4Zm5.79,1.36c.13-.43.21-.88.21-1.36,0-3.75-3.07-7.12-3.2-7.26l-.55-.6-.55.6c-.13.14-3.2,3.51-3.2,7.26,0,.48.09.93.21,1.36-1.49-1.07-2.46-2.8-2.46-4.75,0-5.11,4.25-8.61,6-9.83,1.75,1.22,6,4.72,6,9.83,0,1.95-.97,3.67-2.46,4.75Z"/></svg>