<svg xmlns="http://www.w3.org/2000/svg" viewBox="0 0 24 24" width="24" height="24"><path d="m12.96,2.07C9.76,1.04,6.45-.02,2.96,1.33l-.96.37v21.3h3v-7.15c2.23-.47,4.57.29,7.04,1.08,2.12.68,4.28,1.38,6.52,1.38,1.14,0,2.3-.18,3.48-.64l.96-.37V2.08l-2.04.79c-2.51.97-5.17.11-8-.8Zm7.04,7.11c-1,.17-2,.14-3,0v3c1,.14,2,.17,3,0v2.97c-.98.21-1.98.17-3,0v-2.97c-1-.14-2-.41-3-.71v2.93c-.34-.11-.69-.22-1.04-.33-.65-.21-1.3-.42-1.96-.61v-2.94c-1-.3-2-.56-3-.71v2.98c-.52-.07-1.04-.11-1.56-.11-.48,0-.96.03-1.44.1v-2.98c1-.17,2-.14,3,0v-3c-1-.14-2-.17-3,0v-2.97c.98-.21,1.98-.17,3,0v2.97c1,.14,2,.41,3,.71v-2.93c.34.11.69.22,1.04.33.65.21,1.3.42,1.96.61v2.94c1,.3,2,.56,3,.71v-2.98c.99.13,1.99.15,3,0v2.98Z"/><path d="m11,7.53v3c1,.3,2,.64,3,.94v-3c-1-.3-2-.64-3-.94Z"/></svg>