<svg xmlns="http://www.w3.org/2000/svg" viewBox="0 0 24 24" width="24" height="24"><path d="m16.21,3.09l-.21,3.32c-.17,2.75-1.21,6.59-2.5,6.59-.55,0-1.02-.31-1.23-.82-.29-.71,0-1.57.79-2.37,1.03-1.03,1.54-2.27,1.5-3.59-.09-2.62-2.32-4.63-2.57-4.85L10.53.1l-.87,1.73c-.58,1.15-1.87,2.21-3.12,3.24-.67.55-1.3,1.07-1.85,1.62-2.73,2.73-2.72,5.78-2.69,6.35.02,5.49,4.5,9.96,10,9.96s9.95-4.43,10-9.9c.09-.79.19-4.04-3.44-7.66l-2.35-2.35Zm2.81,9.69l-.02.23c0,3.86-3.14,7-7,7s-7-3.14-7-7v-.12c-.01-.09-.12-2.14,1.81-4.07.45-.45,1.03-.93,1.64-1.43.88-.73,1.84-1.52,2.65-2.42.25.43.45.91.46,1.37,0,.31-.04.78-.62,1.36-1.67,1.67-2.21,3.78-1.44,5.64.67,1.62,2.24,2.67,4,2.67,2.91,0,4.29-3.04,4.94-5.71.67,1.41.59,2.37.58,2.48Z"/></svg>