<svg xmlns="http://www.w3.org/2000/svg" viewBox="0 0 24 24" width="24" height="24"><path d="M16 10A1 1 0 1 0 16 12 1 1 0 1 0 16 10z"/><path d="m.99,15v3c1.63,0,3.76-.72,5-2.52,1.48,1.7,3.9,3.52,7.51,3.52,6.64,0,9.28-6.16,9.38-6.42l.24-.58-.24-.58c-.11-.26-2.75-6.42-9.38-6.42-3.6,0-6.02,1.81-7.51,3.52-1.24-1.8-3.38-2.52-4.99-2.52v3c.49,0,2.85.14,2.99,2.77l-.1.28.1.23c-.15,2.47-2.32,2.71-3,2.72Zm12.51-7c3.66,0,5.62,2.76,6.32,4-.7,1.24-2.67,4-6.32,4s-5.64-2.8-6.32-4c.71-1.24,2.69-4,6.32-4Z"/></svg>