<svg xmlns="http://www.w3.org/2000/svg" viewBox="0 0 24 24" width="24" height="24"><path d="m19.47,10.7c-.03-.59-.17-1.17-.44-1.7.63-1.24.62-2.75-.1-4-.72-1.25-2.02-2.01-3.41-2.09-.76-1.17-2.07-1.91-3.51-1.91s-2.75.75-3.51,1.91c-1.39.08-2.69.84-3.41,2.09-.72,1.25-.73,2.76-.1,4-.27.53-.41,1.11-.44,1.7-.66-.12-1.33-.2-2.03-.2h-1.5v1.5c0,5.56,4.14,10.15,9.5,10.89v.11h3v-.11c5.36-.74,9.5-5.33,9.5-10.89v-1.5h-1.5c-.69,0-1.37.07-2.03.2Zm-11.61-2.75c-.38-.39-.46-.98-.2-1.45.27-.46.82-.69,1.35-.55l1.43.37.39-1.43c.14-.53.62-.89,1.16-.89s1.01.37,1.16.89l.39,1.43,1.43-.37c.52-.14,1.08.09,1.35.55h0c.27.46.19,1.06-.2,1.45l-1.04,1.05,1.04,1.05c.38.39.46.98.2,1.45-.27.46-.82.69-1.35.55l-1.43-.37-.39,1.43c-.14.53-.62.89-1.16.89s-1.01-.37-1.16-.89l-.39-1.43-1.43.37c-.53.14-1.08-.09-1.35-.55-.27-.46-.19-1.06.2-1.45l1.04-1.05-1.04-1.05Zm-3.69,5.73c3.07.66,5.49,3.08,6.15,6.15-3.07-.66-5.49-3.08-6.15-6.15Zm9.5,6.15c.66-3.07,3.08-5.49,6.15-6.15-.66,3.07-3.08,5.49-6.15,6.15Z"/><path d="M12 7A2 2 0 1 0 12 11 2 2 0 1 0 12 7z"/></svg>