<svg xmlns="http://www.w3.org/2000/svg" viewBox="0 0 24 24" width="24" height="24"><path d="m12.62,8.05c-.39-.06-.85-.06-1.25,0-1.72.27-3.05,1.61-3.32,3.33-.03.2-.05.41-.05.62s.02.43.05.63c.27,1.72,1.61,3.05,3.33,3.32.2.03.41.05.62.05s.43-.02.63-.05c1.72-.27,3.05-1.61,3.32-3.33.03-.2.05-.41.05-.62s-.02-.43-.05-.63c-.27-1.72-1.61-3.05-3.33-3.32Zm1.84,4.35c-.17,1.07-1,1.9-2.07,2.07-.25.04-.55.04-.8,0-1.07-.17-1.9-1-2.07-2.07-.02-.13-.03-.26-.03-.4s.01-.27.03-.4c.17-1.07,1-1.9,2.07-2.07.13-.02.26-.03.4-.03s.27.01.4.03c1.07.17,1.9,1,2.07,2.07.02.13.03.26.03.4s-.01.27-.03.4Z"/><path d="m21.1,8.24c.23-1.45-.24-2.94-1.32-4.01-1.08-1.09-2.57-1.57-4.02-1.33-.86-1.17-2.23-1.9-3.76-1.9s-2.9.72-3.76,1.9c-1.44-.22-2.94.24-4.01,1.32-1.09,1.08-1.56,2.58-1.33,4.02-1.17.86-1.9,2.23-1.9,3.76s.72,2.9,1.9,3.76c-.23,1.45.24,2.94,1.32,4.01,1.08,1.09,2.57,1.56,4.02,1.33.86,1.17,2.23,1.9,3.76,1.9s2.9-.72,3.76-1.9c1.44.22,2.94-.24,4.01-1.32,1.09-1.08,1.56-2.58,1.33-4.02,1.17-.86,1.9-2.23,1.9-3.76s-.72-2.9-1.9-3.76Zm-2.25,5.33l-1.71.53.83,1.59c.34.65.21,1.43-.32,1.96-.51.52-1.29.64-1.94.31l-1.59-.83-.53,1.71c-.21.69-.85,1.15-1.58,1.15s-1.36-.46-1.58-1.15l-.53-1.71-1.59.83c-.65.34-1.43.21-1.96-.32-.52-.52-.64-1.3-.31-1.94l.83-1.59-1.71-.53c-.69-.21-1.15-.85-1.15-1.58s.46-1.36,1.15-1.58l1.71-.53-.83-1.59c-.34-.65-.21-1.43.32-1.96.51-.52,1.29-.64,1.94-.31l1.59.83.53-1.71c.21-.69.85-1.15,1.58-1.15s1.36.46,1.58,1.15l.53,1.71,1.59-.83c.65-.34,1.43-.21,1.96.32.52.52.64,1.3.31,1.94l-.83,1.59,1.71.53c.69.21,1.15.85,1.15,1.58s-.46,1.36-1.15,1.58Z"/></svg>