<svg xmlns="http://www.w3.org/2000/svg" viewBox="0 0 24 24" width="24" height="24"><path d="m7.45,17.78c.79.54,1.49,1,2.55,1.36v3.86h1.5c2.84,0,5.22-1.5,6.18-3.81,3.26-1.2,5.32-3.95,5.32-7.19s-2.06-5.99-5.32-7.19c-.96-2.31-3.34-3.81-6.18-3.81h-1.5v3.86c-1.06.36-1.76.82-2.55,1.36-1.51-.8-3.2-1.22-4.95-1.22h-1.5v1.5c0,2,.83,4,2.21,5.5-1.38,1.5-2.21,3.5-2.21,5.5v1.5h1.5c1.75,0,3.44-.42,4.95-1.22Zm-1.12-7.03c-.88-.58-1.59-1.51-1.99-2.53.83.21,1.61.55,2.33,1.02l.83.55.83-.55c.24-.16.46-.31.66-.45,1.02-.7,1.53-1.05,2.83-1.33l1.18-.26v-2.96c1.04.37,1.8,1.13,2.04,2.11l.21.85.84.23c2.37.66,3.9,2.45,3.9,4.55s-1.53,3.9-3.9,4.55l-.84.23-.21.85c-.25.98-1.01,1.74-2.04,2.11v-2.96l-1.18-.26c-1.3-.28-1.81-.64-2.83-1.33-.21-.14-.42-.29-.66-.45l-.83-.55-.83.55c-.71.48-1.5.82-2.33,1.02.39-1.01,1.1-1.94,1.99-2.53l1.89-1.25-1.89-1.25Z"/><path d="M17 10A1 1 0 1 0 17 12 1 1 0 1 0 17 10z"/><path d="m14.32,15.18c-.85-.85-1.32-1.98-1.32-3.18s.47-2.33,1.32-3.18l-.71-.71c-1.04,1.04-1.61,2.42-1.61,3.89s.57,2.85,1.61,3.89l.71-.71Z"/></svg>