<svg xmlns="http://www.w3.org/2000/svg" viewBox="0 0 24 24" width="24" height="24"><path d="m23,12.75v-1.5h-1.04c-.05-.73-.18-1.45-.39-2.13l.96-.37-.54-1.4-.97.37c-.39-.81-.87-1.56-1.45-2.24l.74-.74-1.06-1.06-.74.74c-.55-.47-1.14-.89-1.78-1.23l.42-.94-1.37-.61-.42.95c-.83-.3-1.7-.49-2.61-.56v-1.04h-1.5v1.04c-.73.05-1.45.18-2.13.39l-.37-.96-1.4.54.37.97c-.81.39-1.56.87-2.24,1.45l-.74-.74-1.06,1.06.74.74c-.47.55-.89,1.14-1.23,1.78l-.94-.42-.61,1.37.95.42c-.3.83-.49,1.7-.56,2.61h-1.04v1.5h1.04c.05.73.18,1.45.39,2.13l-.96.37.54,1.4.97-.37c.39.81.87,1.56,1.45,2.24l-.74.74,1.06,1.06.74-.74c.55.47,1.14.89,1.78,1.23l-.42.94,1.37.61.42-.95c.83.3,1.7.49,2.61.56v1.04h1.5v-1.04c.73-.05,1.45-.18,2.13-.39l.37.96,1.4-.54-.37-.97c.81-.39,1.56-.87,2.24-1.45l.74.74,1.06-1.06-.74-.74c.47-.55.89-1.14,1.23-1.78l.94.42.61-1.37-.95-.42c.3-.83.49-1.7.56-2.61h1.04Zm-11-7.75c3.18,0,5.87,2.14,6.72,5.05l-4,.7c-.47-1.04-1.51-1.76-2.72-1.76-.46,0-.9.11-1.29.3l-2.61-3.11c1.11-.75,2.46-1.19,3.9-1.19Zm1,7c0,.55-.45,1-1,1s-1-.45-1-1,.45-1,1-1,1,.45,1,1Zm-4.08,6.28c-2.32-1.14-3.92-3.52-3.92-6.28,0-1.88.75-3.58,1.96-4.84l2.61,3.1c-.35.49-.56,1.09-.56,1.74,0,1.03.52,1.93,1.3,2.47l-1.38,3.8Zm3.08.72c-.58,0-1.14-.08-1.67-.21l1.39-3.82c.09,0,.19.03.28.03,1.58,0,2.85-1.22,2.98-2.76l4-.71c.01.16.02.31.02.47,0,3.86-3.14,7-7,7Z"/></svg>