<svg xmlns="http://www.w3.org/2000/svg" viewBox="0 0 24 24" width="24" height="24"><path class="b" d="m20.79,6c.13-.39.21-.79.21-1.21,0-1.01-.39-1.97-1.11-2.68-1.47-1.47-3.87-1.47-5.36,0l-1.93,1.93c-.76-1.79-2.54-3.04-4.6-3.04-2.76,0-5,2.24-5,5h-.82L.87,22h22.25l-1.3-16h-1.04Zm-4.14-1.76c.31-.31.82-.31,1.12,0,.19.19.23.41.23.56,0,.12-.03.36-.23.56l-.65.65h-2.24l1.76-1.76Zm-8.64-.24c1.1,0,2,.9,2,2h-4c0-1.1.9-2,2-2Zm-3.87,15l.82-10h14.12l.82,10H4.13Z"/><path class="b" d="m12,14.25c-1.79,0-3.25-1.46-3.25-3.25h-1.5c0,2.62,2.13,4.75,4.75,4.75s4.75-2.13,4.75-4.75h-1.5c0,1.79-1.46,3.25-3.25,3.25Z"/></svg>