<svg xmlns="http://www.w3.org/2000/svg" viewBox="0 0 24 24" width="24" height="24"><path d="m17.5,10c0-2.09.45-3.11.94-4.2.52-1.18,1.06-2.4,1.06-4.8h-1.5c0,2.09-.45,3.11-.94,4.2-.52,1.18-1.06,2.4-1.06,4.8h1.5Z"/><path d="m14.94,5.8c.52-1.18,1.06-2.4,1.06-4.8h-1.5c0,2.09-.45,3.11-.94,4.2-.52,1.18-1.06,2.4-1.06,4.8h1.5c0-2.09.45-3.11.94-4.2Z"/><path d="m20.56,5.2c-.52,1.18-1.06,2.4-1.06,4.8h1.5c0-2.09.45-3.11.94-4.2.52-1.18,1.06-2.4,1.06-4.8h-1.5c0,2.09-.45,3.11-.94,4.2Z"/><path d="M5 1A3 3 0 1 0 5 7 3 3 0 1 0 5 1z"/><path d="m6,8c-2.76,0-5,2.24-5,5v5.5c0,2.48,2.02,4.5,4.5,4.5h13c2.48,0,4.5-2.02,4.5-4.5v-6.5h-11.67c-1.64-2.43-2.89-4-5.33-4Zm14,10.5c0,.83-.67,1.5-1.5,1.5H5.5c-.83,0-1.5-.67-1.5-1.5v-3.5h16v3.5Z"/></svg>