<svg xmlns="http://www.w3.org/2000/svg" width="24" height="24" viewBox="0 0 24 24"><path d="M13.5 10.85v-.08c.76-.24 1.46-.66 2.04-1.24.94-.94 1.46-2.2 1.46-3.54s-.52-2.59-1.46-3.54C14.6 1.51 13.34.99 12 .99s-2.59.52-3.54 1.46C7.52 3.39 7 4.65 7 5.99h3c0-.53.21-1.04.59-1.42.75-.75 2.07-.75 2.83 0 .38.38.59.88.59 1.41s-.21 1.04-.59 1.42-.88.58-1.41.58h-1.5v2.86l-8.59 8.14c-.52.5-.69 1.25-.42 1.92S2.4 22 3.12 22h17.75c.72 0 1.36-.43 1.62-1.1.27-.67.1-1.42-.42-1.92l-8.58-8.12ZM6.26 19 12 13.57 17.74 19z"/></svg>