<svg xmlns="http://www.w3.org/2000/svg" viewBox="0 0 24 24" width="24" height="24"><path d="m21.01,4c-1.29-1.29-2.98-2-4.77-2h0c-1.55,0-3.03.54-4.23,1.52-1.2-.98-2.68-1.51-4.23-1.52h0c-1.79,0-3.49.71-4.78,2-2.66,2.69-2.66,6.89,0,9.57l9.01,9.05,9.01-9.05c2.66-2.68,2.67-6.88,0-9.57h0Zm-15.9,2.12c.72-.72,1.66-1.12,2.65-1.12h0c.99,0,1.92.4,2.64,1.12l.77.77-2.66,5.11h4.66l-2.04,5.5-6.01-6.04c-1.49-1.49-1.49-3.84,0-5.34Zm13.77,5.34l-6.24,6.27,2.68-7.23h-4.34l1.92-3.69.69-.69c.71-.72,1.65-1.11,2.64-1.12h0c.99,0,1.93.4,2.65,1.12,1.49,1.5,1.49,3.85,0,5.34Z"/></svg>