<svg xmlns="http://www.w3.org/2000/svg" viewBox="0 0 24 24" width="24" height="24"><path d="m22,15.12c0-.68-.07-1.36-.2-2.01-.13-.64-.33-1.27-.58-1.88-.25-.59-.56-1.16-.92-1.7-.35-.53-.76-1.02-1.22-1.48-.45-.45-.95-.86-1.48-1.22-.5-.34-1.04-.63-1.59-.87v-2.96h-8v2.96c-.55.24-1.09.53-1.59.87-.53.36-1.03.77-1.48,1.22-.46.46-.87.95-1.22,1.48-.36.54-.67,1.11-.92,1.7-.25.6-.45,1.24-.58,1.88-.13.66-.2,1.34-.2,2.01v2.88h-1v3h22v-3h-1v-2.88Zm-17,0c0-.48.05-.95.14-1.41.09-.45.23-.89.41-1.31.17-.41.39-.81.65-1.19.25-.37.53-.72.85-1.03.29-.29.61-.56.95-.79v5.62h3V6h2v9h3v-5.62c.34.23.66.5.95.79.32.32.61.67.86,1.04.25.38.47.77.65,1.19.18.42.32.86.41,1.31.09.46.14.94.14,1.41v2.88H5v-2.88Z"/></svg>