<svg xmlns="http://www.w3.org/2000/svg" viewBox="0 0 24 24" width="24" height="24"><path d="m11.5,1C6.41,1,1,4.33,1,10.5c0,2.97.98,5.33,3,7.19v5.31h3v-6.72l-.56-.45c-1.69-1.35-2.44-3-2.44-5.33,0-4.27,3.77-6.5,7.5-6.5s6.5,2.69,6.5,6v.26l1.36,3.74h-2.36v4h-5v5h3v-2h5v-4h3.64l-2.65-7.28c-.15-4.84-4.35-8.72-9.5-8.72Z"/><path d="m8,13c.16,0,.31-.02.46-.06.45.64,1.19,1.06,2.04,1.06s1.58-.42,2.04-1.06c.15.04.3.06.46.06.81,0,1.51-.49,1.82-1.18.69-.31,1.18-1.01,1.18-1.82,0-.75-.42-1.39-1.02-1.74-.12-1.27-1.18-2.26-2.48-2.26-.49,0-.94.15-1.33.39-.33-.24-.73-.39-1.17-.39-.75,0-1.39.42-1.74,1.03-.09-.01-.17-.03-.26-.03-1.1,0-2,.9-2,2,0,.37.11.7.28,1-.17.3-.28.63-.28,1,0,1.1.9,2,2,2Z"/></svg>