<svg xmlns="http://www.w3.org/2000/svg" viewBox="0 0 24 24" width="24" height="24"><path d="m23.97,9.62l-.11-.79-.8-.07s-.26-.02-.62,0c.64-2.04-.2-3.95-.24-4.04l-.34-.75-.8.2c-.06.01-.87.23-1.76.81-.03-.17-.05-.34-.1-.52-.73-2.44-3.06-3.35-3.16-3.39l-.78-.29-.43.71c-.06.09-1.38,2.33-.67,4.73h0c.55,1.85,2.02,2.82,2.74,3.19.02,1.3.46,2.3.49,2.36l.22.47c-.44,1.33-.29,2.53-.28,2.6v.02c-.96.91-1.4,2.07-1.57,2.68-.14,0-.27-.03-.41-.03-1.53.04-2.68.86-3.34,1.51-.67-.64-1.81-1.47-3.34-1.51-.14,0-.27.02-.41.03-.17-.61-.6-1.77-1.57-2.68v-.02c.01-.07.16-1.27-.27-2.6l.22-.47c.03-.06.47-1.06.49-2.36.72-.38,2.19-1.34,2.74-3.19h0c.71-2.4-.61-4.63-.67-4.73l-.43-.71-.78.29c-.1.04-2.43.94-3.16,3.39-.05.17-.07.34-.1.52-.89-.58-1.7-.8-1.76-.81l-.8-.2-.34.75c-.04.09-.88,2-.24,4.04-.35-.02-.59,0-.62,0l-.8.07-.11.79c-.01.11-.32,2.55,1.26,4.35-.14.05-.24.09-.26.1l-.71.32.13.76c.02.11.48,2.65,2.66,3.81.47.25.95.39,1.41.47-.05.06-.08.1-.09.11l-.49.58.43.62c.06.09,1.53,2.2,4,2.26.04,0,.07,0,.11,0,1.57,0,2.81-.84,3.5-1.43.69.6,1.93,1.43,3.5,1.43.03,0,.07,0,.11,0,2.47-.06,3.94-2.17,4-2.26l.43-.62-.49-.58s-.04-.05-.09-.11c.46-.08.94-.22,1.42-.47,2.18-1.16,2.64-3.71,2.66-3.81l.13-.76-.71-.32s-.12-.05-.26-.1c1.58-1.8,1.28-4.24,1.26-4.35Z"/></svg>