<svg xmlns="http://www.w3.org/2000/svg" viewBox="0 0 24 24" width="24" height="24"><path d="m12,2c-.88,0-1.67.39-2.22,1H1v3h2.7l-2.65,6.73c-.03.09-.05.18-.05.27,0,2.21,1.79,4,4,4s4-1.79,4-4c0-.09-.02-.19-.05-.27l-2.65-6.73h2.89c.24.67.71,1.23,1.32,1.58v11.42H1v3h22v-3h-9.5V7.58c.61-.35,1.08-.91,1.32-1.58h2.89l-2.65,6.73c-.03.09-.05.18-.05.27,0,2.21,1.79,4,4,4s4-1.79,4-4c0-.09-.02-.19-.05-.27l-2.65-6.73h2.7v-3h-8.78c-.55-.61-1.34-1-2.22-1ZM2.56,13l2.44-6.2,2.44,6.2H2.56Zm14,0l2.44-6.2,2.44,6.2h-4.89Zm-4.56-6.5c-.83,0-1.5-.67-1.5-1.5s.67-1.5,1.5-1.5,1.5.67,1.5,1.5-.67,1.5-1.5,1.5Z"/></svg>