<svg xmlns="http://www.w3.org/2000/svg" width="24" height="24" viewBox="0 0 24 24"><path d="M9.53 18.01c-.97.97-2.56.97-3.54 0-.97-.97-.97-2.56 0-3.54l2.83-2.83L6.7 9.52l-2.83 2.83c-2.14 2.14-2.14 5.63 0 7.78a5.5 5.5 0 0 0 3.89 1.61c1.41 0 2.82-.54 3.89-1.61l2.83-2.83-2.12-2.12zM12.35 3.87 9.52 6.7l2.12 2.12 2.83-2.83c.97-.97 2.56-.98 3.54 0 .97.97.97 2.56 0 3.54l-2.83 2.83 2.12 2.12 2.83-2.83c2.14-2.14 2.14-5.63 0-7.78-2.14-2.14-5.63-2.14-7.78 0"/><path d="m16.77 8.29-.53-.53-.53-.53-4.24 4.24-4.24 4.24.53.53.53.53 4.24-4.24z"/></svg>