<svg xmlns="http://www.w3.org/2000/svg" width="24" height="24" viewBox="0 0 24 24"><path d="M12 18.6a2.2 2.2 0 1 0 0 4.4 2.2 2.2 0 1 0 0-4.4M12 1a2.2 2.2 0 1 0 0 4.4A2.2 2.2 0 1 0 12 1M7.33 19.78c-.86.86-2.25.86-3.11 0s-.86-2.25 0-3.11 2.25-.86 3.11 0 .86 2.25 0 3.11M19.78 7.33c-.86.86-2.25.86-3.11 0s-.86-2.25 0-3.11 2.25-.86 3.11 0 .86 2.25 0 3.11M3.2 14.2C1.99 14.2 1 13.21 1 12s.99-2.2 2.2-2.2 2.2.99 2.2 2.2-.99 2.2-2.2 2.2M20.8 14.2c-1.21 0-2.2-.99-2.2-2.2s.99-2.2 2.2-2.2 2.2.99 2.2 2.2-.99 2.2-2.2 2.2M4.22 7.33c-.86-.86-.86-2.25 0-3.11s2.25-.86 3.11 0 .86 2.25 0 3.11-2.25.86-3.11 0M16.67 19.78c-.86-.86-.86-2.25 0-3.11s2.25-.86 3.11 0 .86 2.25 0 3.11-2.25.86-3.11 0"/></svg>