<svg xmlns="http://www.w3.org/2000/svg" viewBox="0 0 24 24" width="24" height="24"><path d="m22.83,1.29l-1.96.83s-2.86,1.18-5.04.02c-2.19-1.17-6.07-1.89-9.8-.02h0C1.27,4.5-.41,10.48,2.21,15.73c.38.76.83,1.43,1.33,2.03-.35,1.58-.54,3.33-.54,5.25h3c0-1.1.07-2.13.19-3.09.59.3,1.21.53,1.88.69.73.17,1.46.25,2.18.25,2.68,0,5.12-1.06,6.32-1.95,1.97-1.48,3.6-2.89,5.2-6.37,1.53-3.33,1.22-8.88,1.21-9.11l-.13-2.12Zm-3.8,9.97c-1.32,2.87-2.49,3.89-4.27,5.22-.86.65-3.46,1.78-6,1.18-.68-.16-1.29-.44-1.85-.84.52-1.47,1.24-2.7,2.2-3.65,2.19-2.18,4.78-2.19,4.87-2.19l.05-3c-.15,0-3.87-.04-6.98,3-.91.89-1.65,1.95-2.26,3.16-1.51-3.26-.97-7.58,2.59-9.36,2.53-1.26,5.36-.92,7.04-.02,1.94,1.04,4.06.97,5.57.69-.04,1.82-.26,4.27-.96,5.8Z"/></svg>