<svg xmlns="http://www.w3.org/2000/svg" viewBox="0 0 24 24" width="24" height="24"><path d="M19 3A3 3 0 1 0 19 9 3 3 0 1 0 19 3z"/><path d="m19.99,10.9s0,.07,0,.1c0,3.31-3.59,6-8,6-.43,0-.88-.03-1.38-.1l-.56-.07-2.06,1.37v-1.97l-.76-.43c-2.03-1.14-3.24-2.93-3.24-4.8,0-3.31,3.59-6,8-6,.72,0,1.42.08,2.08.21.17-1.06.66-2.02,1.39-2.75-1.09-.3-2.26-.47-3.47-.47C5.93,2,1,6.04,1,11c0,2.7,1.48,5.24,4,6.94v5.86l5.79-3.86c.42.04.82.06,1.21.06,6.07,0,11-4.04,11-9,0-.61-.08-1.2-.22-1.77-.71.83-1.68,1.44-2.79,1.67Z"/></svg>