<svg xmlns="http://www.w3.org/2000/svg" viewBox="0 0 24 24" width="24" height="24"><path d="M11.25 15.25H12.75V16.75H11.25z"/><path d="m9.7,8.2c-.61.61-.95,1.43-.95,2.3h1.5c0-.47.18-.91.51-1.24.66-.66,1.81-.66,2.47,0,.33.33.51.77.51,1.24s-.18.91-.51,1.24-.77.51-1.24.51h-.75v1.75h1.5v-.34c.58-.14,1.12-.43,1.55-.87.61-.61.95-1.43.95-2.3s-.34-1.68-.95-2.3c-1.23-1.23-3.37-1.23-4.6,0Z"/><path d="m12,1C5.93,1,1,5.93,1,12c0,2.29.72,4.51,2.04,6.37l-2.04,4.63h11c6.07,0,11-4.93,11-11S18.07,1,12,1Zm0,19h-6.4l.92-2.1-.61-.72c-1.23-1.45-1.91-3.29-1.91-5.18,0-4.41,3.59-8,8-8s8,3.59,8,8-3.59,8-8,8Z"/></svg>