<svg xmlns="http://www.w3.org/2000/svg" viewBox="0 0 24 24" width="24" height="24"><path d="m18.95,13.05l-2.52-5.05h1.57v-3h-3.07l-.03-.07c-.6-1.19-1.8-1.93-3.13-1.93h-1.76v3h1.76c.19,0,.36.11.45.28l1.36,2.72h-3.29l-2.72,3.35-2.87-3.35H1v3h2.31l1.01,1.18c-1.91.52-3.32,2.25-3.32,4.32,0,2.48,2.02,4.5,4.5,4.5,1.95,0,3.6-1.26,4.22-3h4.55c.62,1.74,2.27,3,4.22,3,2.48,0,4.5-2.02,4.5-4.5,0-2.33-1.78-4.23-4.05-4.45Zm-13.45,5.95c-.83,0-1.5-.67-1.5-1.5s.67-1.5,1.5-1.5,1.5.67,1.5,1.5-.67,1.5-1.5,1.5Zm5.19-3l-1.14-1.33,2.17-2.67h3.36l.83,1.67-.57.64s-.04.05-.07.07l-1.44,1.62h-3.14Zm7.81,3c-.83,0-1.5-.67-1.5-1.5,0-.33.11-.63.29-.88l.2-.22c.27-.25.62-.4,1.02-.4.83,0,1.5.67,1.5,1.5s-.67,1.5-1.5,1.5Z"/></svg>