<svg xmlns="http://www.w3.org/2000/svg" viewBox="0 0 24 24" width="24" height="24"><path d="m9.36,23c-2.23,0-4.33-.87-5.91-2.45C.19,17.29.19,11.99,3.45,8.73l.1-.09L13.15.58l.59,4.69L23.1.9l-4.45,9.54,5.3,1.18-8.66,8.92c-1.59,1.6-3.69,2.46-5.93,2.46Zm-3.83-12.11c-2.05,2.09-2.03,5.46.04,7.54,1.01,1.01,2.36,1.57,3.79,1.57s2.78-.56,3.79-1.57l4.9-5.05-3.7-.82,2.55-5.46-5.63,2.63-.41-3.31-5.33,4.47Z"/><path d="m10.98,11.34c0,.05.02.1.02.16,0,.83-.67,1.5-1.5,1.5s-1.5-.67-1.5-1.5c0-.05.01-.11.02-.16-1.19.56-2.02,1.76-2.02,3.16,0,1.93,1.57,3.5,3.5,3.5s3.5-1.57,3.5-3.5c0-1.4-.83-2.6-2.02-3.16Z"/></svg>