<svg xmlns="http://www.w3.org/2000/svg" viewBox="0 0 24 24" width="24" height="24"><path d="m17,6c-1.19,0-2.33.34-3.29.98-.69-.31-1.43-.48-2.21-.48-1.18,0-2.3.38-3.24,1.06-.69-.36-1.45-.56-2.26-.56-2.76,0-5,2.24-5,5s2.24,5,5,5c.8,0,1.57-.21,2.26-.56.93.68,2.06,1.06,3.24,1.06.77,0,1.52-.17,2.21-.48.97.64,2.1.98,3.29.98,3.31,0,6-2.69,6-6s-2.69-6-6-6ZM6,14c-1.1,0-2-.9-2-2s.9-2,2-2c.12,0,.25.01.37.03,0,.02,0,.04-.02.06-.08.2-.13.42-.18.63-.02.1-.06.2-.08.31-.06.32-.09.64-.09.97s.03.65.09.97c.02.11.06.21.08.32.05.21.1.41.17.61,0,.02.01.04.02.06-.12.02-.24.03-.37.03Zm3.56-.42c-.37-.46-.56-1-.56-1.58s.19-1.13.56-1.58c.48-.58,1.19-.92,1.94-.92.02,0,.03,0,.05,0-.01.02-.02.05-.03.08-.05.11-.09.23-.13.34-.03.08-.06.16-.09.24-.04.12-.07.24-.1.36-.02.08-.04.16-.06.24-.03.14-.05.27-.07.41,0,.07-.02.14-.03.2-.02.21-.03.42-.03.63s.01.42.03.63c0,.07.02.13.03.2.02.14.04.28.07.42.02.08.04.15.06.22.03.13.06.25.1.38.02.07.05.15.08.22.05.12.09.25.14.37,0,.02.02.05.03.07-.78,0-1.5-.32-1.98-.92Zm7.44,1.42c-.79,0-1.53-.3-2.1-.86-.57-.55-.9-1.33-.9-2.14s.33-1.59.91-2.15c.55-.55,1.29-.85,2.09-.85,1.65,0,3,1.35,3,3s-1.35,3-3,3Z"/></svg>