<svg xmlns="http://www.w3.org/2000/svg" viewBox="0 0 24 24" width="24" height="24"><path d="M10 10A1 1 0 1 0 10 12 1 1 0 1 0 10 10z"/><path d="M14 10A1 1 0 1 0 14 12 1 1 0 1 0 14 10z"/><path d="m14,15v-1h-1.5v1c0,4.14,2.34,6.1,4.31,7.02,2.07.97,4.11.98,4.19.98v-1.5c-.28,0-7-.1-7-6.5Z"/><path d="m10,15c0,6.4-6.72,6.5-7,6.5v1.5c.09,0,2.13-.01,4.19-.98,1.96-.92,4.31-2.88,4.31-7.02v-1h-1.5v1Z"/><path d="m20,15c0,.55-.45,1-1,1s-1-.45-1-1c0-1.24.56-2.34,1.05-3.31.15-.29.28-.56.4-.81.69-1.54.64-3.43-.15-5.18-1.29-2.86-4.16-4.71-7.29-4.71-3.34,0-6.36,2.11-7.51,5.24-.58,1.57-.55,3.25.06,4.61.11.25.25.52.4.81.5.98,1.06,2.09,1.06,3.33,0,.55-.45,1-1,1s-1-.45-1-1v-1H1v1c0,2.21,1.79,4,4,4s4-1.79,4-4c0-1.96-.8-3.53-1.38-4.69-.12-.25-.24-.48-.34-.69-.29-.66-.29-1.51.02-2.35.72-1.96,2.61-3.28,4.7-3.28,1.96,0,3.75,1.16,4.56,2.94.43.95.49,1.96.15,2.71-.09.21-.21.44-.33.68-.58,1.14-1.38,2.71-1.38,4.67,0,2.21,1.79,4,4,4s4-1.79,4-4v-1h-3v1Z"/></svg>