<svg xmlns="http://www.w3.org/2000/svg" viewBox="0 0 24 24" width="24" height="24"><path d="m23.06,4.35c0-.91-.35-1.77-1-2.41-1.33-1.33-3.49-1.33-4.82,0l-2.16,2.16-2.72-2.72-2.93,2.93h0s-1.36,1.36-1.36,1.36l-.76.76h0S.38,13.36.38,13.36l10.26,10.26,6.93-6.93h0s.76-.76.76-.76l1.36-1.36h0s2.93-2.93,2.93-2.93l-2.72-2.72,2.16-2.16c.64-.64,1-1.5,1-2.41Zm-12.42,15.03l-6.02-6.02,4.81-4.81,6.02,6.02-4.81,4.81Zm9.3-14.74l-4.28,4.28,2.72,2.72-.81.81-6.02-6.02.81-.81,2.72,2.72,4.28-4.28c.17-.16.41-.16.58,0,.08.08.12.17.12.29s-.04.21-.12.29Z"/></svg>