<svg xmlns="http://www.w3.org/2000/svg" viewBox="0 0 24 24" width="24" height="24"><path d="M12 16.38 7.62 12 7.87 11.76 5.74 9.63 3.38 12 6.6 15.23 1.44 20.39 3.56 22.51 8.73 17.35 12 20.62 14.37 18.26 12.24 16.13 12 16.38z"/><path d="m18.5,14.12l5.12-5.12L15,.38l-5.12,5.12,1.5,1.5-1.38,1.38-1.5-1.5-.28.28L1.53.47.47,1.53l6.69,6.69,3.62,3.62,1.38,1.38,3.62,3.62,6.69,6.69,1.06-1.06-6.69-6.69.28-.28-1.5-1.5,1.38-1.38,1.5,1.5Zm-5.28-1.96l-1.38-1.38,3.78-3.78-1.5-1.5.88-.88,4.38,4.38-.88.88-1.5-1.5-3.78,3.78Z"/></svg>