<svg xmlns="http://www.w3.org/2000/svg" viewBox="0 0 24 24" width="24" height="24"><path d="m20.6,14.09c.19-.47.29-.99.29-1.53,0-1.81-1.16-3.35-2.78-3.92.02-.46-.05-.91-.21-1.34-.58-1.57-2.25-2.43-3.63-3.01-1.5-.63-1.61-1.71-1.61-1.79V.1l-2.16,1.05c-.42.21-4.18,2.11-4.95,5.29-.15.61-.22,1.42.02,2.33-1.45.65-2.46,2.1-2.46,3.79,0,.54.1,1.06.29,1.53-1.42.66-2.4,2.1-2.4,3.76,0,2.29,1.86,4.15,4.14,4.15h13.72c2.28,0,4.14-1.86,4.14-4.15,0-1.67-.99-3.11-2.4-3.76Zm-1.74,4.91H5.14c-.63,0-1.14-.51-1.14-1.15s.51-1.15,1.14-1.15h3.11v-3h-1c-.63,0-1.14-.51-1.14-1.15s.51-1.15,1.14-1.15h3.52l-1.79-2.4c-.65-.87-.61-1.48-.51-1.86.22-.9,1.07-1.75,1.89-2.37.52.86,1.39,1.71,2.76,2.28,1.54.64,1.9,1.09,1.98,1.29.09.24-.09.66-.21.89l-1.08,2.17h2.95c.63,0,1.14.51,1.14,1.15s-.51,1.15-1.14,1.15h-1v3h3.11c.63,0,1.14.51,1.14,1.15s-.51,1.15-1.14,1.15Z"/></svg>