<svg xmlns="http://www.w3.org/2000/svg" viewBox="0 0 24 24" width="24" height="24"><path d="m11.5,1C6.41,1,1,4.33,1,10.5c0,2.97.98,5.33,3,7.19v5.31h3v-6.72l-.56-.45c-1.69-1.35-2.44-3-2.44-5.33,0-4.27,3.77-6.5,7.5-6.5s6.5,2.69,6.5,6v.26l1.36,3.74h-2.36v4h-5v5h3v-2h5v-4h3.64l-2.65-7.28c-.15-4.84-4.35-8.72-9.5-8.72Z"/><path d="m9.94,7v1.03c-.35.13-.69.32-.98.57l-.9-.52-1.06,1.84.89.51c-.04.19-.05.38-.05.57s.02.38.05.57l-.89.51,1.06,1.84.9-.52c.29.25.62.44.98.57v1.03h2.13v-1.03c.35-.13.69-.32.98-.57l.9.52,1.06-1.84-.89-.51c.04-.19.05-.38.05-.57s-.02-.38-.05-.57l.89-.51-1.06-1.84-.9.52c-.29-.25-.62-.44-.98-.57v-1.03h-2.13Zm2.61,4c0,.84-.71,1.55-1.55,1.55s-1.55-.71-1.55-1.55.71-1.55,1.55-1.55,1.55.71,1.55,1.55Z"/></svg>