<svg xmlns="http://www.w3.org/2000/svg" viewBox="0 0 24 24" width="24" height="24"><path d="m14.94,7.44h0s-1.22,1.22-1.22,1.22l-5.99,1.63-2.38,10.69,2.16,2.16,10.69-2.38,1.63-5.99,1.22-1.22h0s3.06-3.06,3.06-3.06l-6.12-6.12-3.06,3.06Zm2.22,5.78l-1.37,5.01-5.74,1.27,2.56-2.56c.12.03.25.06.38.06.83,0,1.5-.67,1.5-1.5s-.67-1.5-1.5-1.5-1.5.67-1.5,1.5c0,.13.02.26.06.38l-2.56,2.56,1.28-5.74,5.01-1.37h0s1.88,1.88,1.88,1.88h0Zm1.78-1.78h0s-.72.72-.72.72l-1.88-1.88.72-.72h0s.94-.94.94-.94l1.88,1.88-.94.94Z"/><path d="M1 4H10V7H1z"/></svg>