<svg xmlns="http://www.w3.org/2000/svg" width="24" height="24" viewBox="0 0 24 24"><path d="m1.39 17.66 1.94 1.94-2.12 2.12 1.06 1.06 2.12-2.12 1.94 1.94c.68.68 1.58 1.02 2.48 1.02s1.79-.34 2.47-1.02l3.89-3.89-2.83-2.83 2.12-2.12-1.06-1.06-2.12 2.12-2.12-2.12 2.12-2.12-1.06-1.06-2.12 2.12-2.83-2.83-3.89 3.89a3.534 3.534 0 0 0 .01 4.96m2.12-2.83 1.77-1.77.71.71 1.06 1.06 2.12 2.12 1.06 1.06.71.71-1.77 1.77c-.2.2-.51.19-.71 0l-1.94-1.94-1.06-1.06-1.94-1.94c-.2-.2-.2-.51 0-.71ZM21.72 1.22 19.6 3.34 17.66 1.4a3.504 3.504 0 0 0-4.95-.01L8.82 5.28l9.9 9.9 3.89-3.89a3.495 3.495 0 0 0 0-4.95L20.67 4.4l2.12-2.12-1.06-1.06Zm-1.24 7.96-1.77 1.77-5.66-5.66 1.77-1.77c.2-.2.51-.19.71 0l1.94 1.94 1.06 1.06 1.94 1.94c.2.2.2.51 0 .71Z"/></svg>