<svg xmlns="http://www.w3.org/2000/svg" viewBox="0 0 24 24" width="24" height="24"><path d="m19.54,4.75c-.64-1.57-2.13-2.63-3.82-2.63-.28,0-.56.03-.83.09-.76-.77-1.79-1.22-2.88-1.22s-2.12.45-2.88,1.22c-.27-.06-.55-.09-.83-.09-1.7,0-3.19,1.06-3.82,2.63-1.47.68-2.46,2.21-2.46,3.93,0,1.03.36,1.96.94,2.7l2.49,11.61h13.14l2.49-11.61c.58-.74.94-1.67.94-2.7,0-1.73-.99-3.25-2.46-3.93Zm-14.54,3.93c0-.64.4-1.18.96-1.29l1.01-.2.18-1.02c.14-.82.98-1.34,1.68-.88l1.42.91.74-1.52c.16-.33.51-.69,1-.69s.84.36,1,.69l.74,1.52,1.42-.91c.7-.45,1.54.06,1.68.88l.18,1.02,1.01.2c.56.11.96.65.96,1.29,0,.72-.52,1.31-1.16,1.31H6.16c-.64,0-1.16-.59-1.16-1.31Zm8.6,4.31l-.7,7h-1.79l-.7-7h3.19Zm-7.24,0h2.54l.7,7h-1.74l-1.5-7Zm9.79,7h-1.74l.7-7h2.54l-1.5,7Z"/></svg>