<svg xmlns="http://www.w3.org/2000/svg" viewBox="0 0 24 24" width="24" height="24"><path d="m9.43,22.99c.17,0,.33.01.5.01,2.36,0,4.65-.94,6.33-2.62,1.23-1.23,2.06-2.76,2.42-4.44.23-1.08.62-2.17,1.15-3.25.79-1.6,1.17-2.89,1.17-3.94,0-.84-.19-1.64-.52-2.37.23-.4.94-1.38,2.52-1.38v-3c-2.14,0-3.6.99-4.49,2.02-.93-.64-2.05-1.02-3.26-1.02-1.05,0-2.34.38-3.93,1.17-1.16.57-2.45.93-3.67,1.25-1.83.48-3.44,1.52-4.66,3.01-2.64,3.23-2.67,7.93-.07,11.19,1.6,2,3.97,3.23,6.51,3.37Zm-4.12-12.66c.82-1,1.89-1.69,3.1-2.01,1.31-.34,2.82-.76,4.24-1.46,1.57-.77,2.34-.86,2.6-.86,1.52,0,2.75,1.23,2.75,2.75,0,.26-.08,1.04-.86,2.61-.64,1.3-1.11,2.63-1.39,3.95-.24,1.11-.79,2.13-1.61,2.94-1.19,1.19-2.83,1.84-4.53,1.73-1.71-.1-3.25-.89-4.33-2.25-1.7-2.12-1.68-5.31.04-7.42Z"/></svg>