<svg xmlns="http://www.w3.org/2000/svg" width="24" height="24" viewBox="0 0 24 24"><path d="M22.38 2.84a2.98 2.98 0 0 0-2.64-1c-.93.1-1.9.59-2.89 1.41-1.43-.79-3.05-1.23-4.73-1.25-2.67.01-5.21.97-7.11 2.83A9.91 9.91 0 0 0 2 11.87c-.02 1.36.24 2.68.73 3.9-1.18 1.15-2.5 4.05-1.16 5.55.53.6 1.3.87 2.23.87 1.14 0 2.53-.41 4.03-1.11 1.25.57 2.62.89 4.04.91H12c2.63 0 5.1-1 6.98-2.83a9.91 9.91 0 0 0 3.01-7.04c.01-1.12-.16-2.21-.5-3.25 1.5-2.49 2.05-4.73.88-6.03ZM7.11 6.98A6.94 6.94 0 0 1 12 5h.09c1.88.02 3.63.77 4.93 2.1.85.87 1.44 1.93 1.75 3.09-1.11 1.43-2.56 3-4.37 4.61-1.76 1.56-3.44 2.79-4.95 3.71-.91-.36-1.75-.9-2.45-1.62a6.92 6.92 0 0 1-1.98-4.98 6.95 6.95 0 0 1 2.1-4.93ZM2.69 20.33c-.52-.58.07-2.19.77-3.12.39.63.84 1.23 1.37 1.78.42.43.87.81 1.35 1.15-1.77.67-3.04.71-3.49.19m14.2-3.31A7.03 7.03 0 0 1 11.91 19c-.14 0-.28-.02-.42-.03 1.32-.9 2.64-1.94 3.89-3.05 1.3-1.15 2.52-2.39 3.6-3.64-.07 1.8-.81 3.47-2.09 4.73Zm2.27-12.01c-.32-.32-.66-.61-1.01-.89.62-.46 1.22-.73 1.75-.79q.825-.09 1.35.51c.44.5.28 1.69-.52 3.29-.43-.76-.95-1.48-1.57-2.12"/></svg>