<svg xmlns="http://www.w3.org/2000/svg" width="24" height="24" viewBox="0 0 24 24"><path d="M14.59 6.59c-.78.78-.78 2.05 0 2.83s2.05.78 2.83 0 .78-2.05 0-2.83-2.05-.78-2.83 0M4 17c-2 1-2 5-2 5s3 0 5-2z"/><path d="M10.6 3.78 8.35 6.03c-1.26.1-4.12.51-6.68 2.22L.15 9.26 14.5 23.61l1.06-1.06c1.95-1.95 2.34-5.44 2.42-6.92l2.24-2.24A9.45 9.45 0 0 0 23 6.67V1h-5.69c-2.54 0-4.92.99-6.72 2.78Zm9.4 2.9c0 1.71-.69 3.39-1.9 4.6l-3.09 3.1V15c0 .75-.16 2.66-.76 4.13L4.99 9.87C7.06 9.02 8.98 9 9 9h.62l3.1-3.1a6.53 6.53 0 0 1 4.6-1.9h2.69v2.69Z"/></svg>