<svg xmlns="http://www.w3.org/2000/svg" viewBox="0 0 24 24" width="24" height="24"><path d="m17.49,2.44l-1.3-.74-3.11,5.39c-.35-.08-.71-.13-1.08-.13s-.73.05-1.08.13L7.81,1.7l-1.3.74c-1.67.96-3.07,2.35-4.04,4.03-.97,1.68-1.48,3.59-1.47,5.51v1.49s6.25,0,6.25,0c.22.7.59,1.33,1.07,1.86l-3.12,5.4,1.29.75c1.66.97,3.57,1.48,5.51,1.48s3.84-.51,5.51-1.48l1.29-.75-3.12-5.4c.49-.53.85-1.16,1.07-1.86h6.24s0-1.49,0-1.49c0-1.92-.5-3.83-1.47-5.51-.97-1.68-2.37-3.07-4.04-4.03Zm-3.49,9.53c0,1.1-.9,2-2,2s-2-.9-2-2,.9-2,2-2,2,.9,2,2ZM5.07,7.97c.45-.78,1.03-1.48,1.7-2.06l1.55,2.69c-.49.53-.85,1.16-1.07,1.86h-3.11c.17-.87.48-1.72.93-2.5Zm4.3,11.56l1.55-2.68c.35.08.71.13,1.08.13s.73-.05,1.08-.13l1.55,2.68c-1.68.59-3.58.59-5.26,0Zm7.38-9.05c-.22-.7-.59-1.33-1.07-1.86l1.55-2.69c.67.58,1.25,1.28,1.7,2.06s.76,1.63.93,2.5h-3.11Z"/></svg>