<svg xmlns="http://www.w3.org/2000/svg" viewBox="0 0 24 24" width="24" height="24"><path d="m17.46,6.54c-1.22-3.3-4.38-5.54-7.96-5.54C4.81,1,1,4.81,1,9.5c0,3.58,2.24,6.74,5.54,7.96,1.22,3.3,4.38,5.54,7.96,5.54,4.69,0,8.5-3.81,8.5-8.5,0-3.59-2.25-6.75-5.54-7.96Zm-13.46,2.96c0-3.03,2.47-5.5,5.5-5.5,1.7,0,3.25.78,4.27,2.03-.02,0-.05,0-.07,0-.1,0-.2.03-.31.04-.17.02-.34.04-.5.08-.11.02-.21.05-.32.07-.16.04-.31.07-.46.12-.11.03-.21.07-.31.1-.15.05-.3.1-.44.16-.1.04-.2.08-.3.13-.14.06-.29.13-.43.21-.09.05-.19.09-.28.15-.14.08-.28.17-.42.26-.08.05-.16.1-.24.16-.15.1-.3.22-.44.33-.06.05-.12.09-.18.14-.4.33-.77.7-1.1,1.1-.05.06-.09.12-.14.18-.11.14-.22.29-.33.44-.05.08-.1.16-.16.24-.09.14-.17.28-.26.42-.05.09-.1.18-.15.28-.07.14-.14.28-.21.43-.04.1-.09.2-.13.3-.06.15-.11.29-.16.44-.03.1-.07.21-.1.31-.04.15-.08.31-.12.46-.02.11-.05.21-.07.32-.03.17-.05.33-.08.5-.01.1-.03.2-.04.31,0,.02,0,.05,0,.07-1.25-1.02-2.03-2.57-2.03-4.27Zm10.5,10.5c-2.5,0-4.69-1.69-5.32-4.12-.12-.44-.18-.91-.18-1.38,0-3.03,2.47-5.5,5.5-5.5.47,0,.94.06,1.39.18,2.42.63,4.11,2.81,4.11,5.32,0,3.03-2.47,5.5-5.5,5.5Z"/></svg>