<svg xmlns="http://www.w3.org/2000/svg" viewBox="0 0 24 24" width="24" height="24"><path d="m7,5.38L.38,12l6.62,6.62,6.62-6.62-6.62-6.62Zm-2.38,6.62l2.38-2.38,2.38,2.38-2.38,2.38-2.38-2.38Z"/><path d="m17.75,12.5c-2.89,0-5.25,2.36-5.25,5.25s2.36,5.25,5.25,5.25,5.25-2.36,5.25-5.25-2.36-5.25-5.25-5.25Zm0,7.5c-1.24,0-2.25-1.01-2.25-2.25s1.01-2.25,2.25-2.25,2.25,1.01,2.25,2.25-1.01,2.25-2.25,2.25Z"/><path d="m19.25,1c-.62,0-1.22.15-1.75.44-.53-.28-1.13-.44-1.75-.44-2.07,0-3.75,1.68-3.75,3.75,0,.89.33,1.77.93,2.46l4.57,4.37,4.48-4.27.1-.1c.6-.69.93-1.56.93-2.46,0-2.07-1.68-3.75-3.75-3.75Zm.59,4.2l-2.34,2.23-2.34-2.23c-.08-.1-.16-.25-.16-.45,0-.41.34-.75.75-.75.3,0,.49.18.58.29l1.17,1.46,1.17-1.46c.09-.11.28-.29.58-.29.41,0,.75.34.75.75,0,.19-.08.34-.16.45Z"/></svg>