<svg xmlns="http://www.w3.org/2000/svg" width="24" height="24" viewBox="0 0 24 24"><path d="M12 1C5.93 1 1 5.93 1 12s4.93 11 11 11 11-4.93 11-11S18.07 1 12 1m3.58 3.85c-.1.02-.19.02-.29.04-.46.09-.92.24-1.36.42-.43.18-.84.41-1.23.67s-.75.56-1.07.89c-.33.33-.63.69-.88 1.07-.26.39-.49.8-.67 1.23-.18.44-.33.89-.42 1.36-.1.48-.15.97-.15 1.46 0 .11.02.21.03.32-.05-.04-.11-.07-.16-.11-.31-.27-.59-.56-.83-.88a6.4 6.4 0 0 1-1.08-2.13A6 6 0 0 1 7.25 8c-.04-.41-.03-.82.02-1.23.05-.42.14-.83.27-1.24.03-.08.06-.16.09-.23a7.96 7.96 0 0 1 7.97-.47ZM6.31 6.38c-.02.1-.04.19-.05.29a7.274 7.274 0 0 0 .23 2.8c.13.44.3.88.51 1.29s.46.81.75 1.17c.29.37.61.71.97 1.02s.75.59 1.16.82c.36.2.74.37 1.13.51.01 0 .03.01.04.02.06.02.11.05.17.06.1.02.2.06.3.07-.05.03-.09.08-.14.11-.34.21-.71.38-1.09.52-.37.14-.76.24-1.16.3-.39.06-.8.08-1.2.07a6.1 6.1 0 0 1-2.36-.56c-.38-.17-.75-.39-1.09-.64-.07-.05-.13-.12-.2-.18a8 8 0 0 1-.29-2.09c0-2.19.88-4.17 2.31-5.61ZM4.9 15.67c.09.04.17.09.26.14.43.2.89.35 1.35.46s.92.17 1.39.18h.25a7.3 7.3 0 0 0 3.75-1.04c.41-.25.79-.53 1.14-.85.36-.33.69-.7.98-1.09.07-.09.12-.19.17-.29.02.06.04.13.06.19.09.39.14.8.16 1.2.01.4 0 .8-.07 1.2-.06.39-.16.79-.3 1.16A6.1 6.1 0 0 1 12.78 19c-.28.31-.6.59-.94.84-.07.05-.14.09-.2.13a7.99 7.99 0 0 1-6.72-4.3Zm8.4 4.21c.07-.07.14-.13.21-.2.32-.35.61-.73.85-1.14.24-.4.44-.83.6-1.26a7.1 7.1 0 0 0 .43-2.74c-.02-.47-.08-.93-.18-1.39-.11-.46-.26-.92-.46-1.35-.18-.41-.41-.8-.67-1.17-.01-.02-.02-.03-.03-.05s-.02-.04-.03-.05c-.06-.08-.13-.17-.21-.25H14a6.355 6.355 0 0 1 3.32 1.3c.32.25.61.53.88.83.27.31.51.65.71 1 .21.37.38.76.51 1.16.03.08.04.16.06.24-1 2.63-3.33 4.59-6.17 5.06Zm6.59-6.69a3 3 0 0 0-.13-.26c-.23-.41-.51-.8-.82-1.16-.31-.35-.65-.68-1.02-.96q-.555-.435-1.17-.75c-.41-.21-.85-.38-1.29-.51-.45-.13-.91-.21-1.38-.25s-.95-.03-1.43.02-.97.16-1.43.31c-.11.05-.21.08-.31.13.02-.06.04-.12.07-.18.16-.37.35-.73.58-1.06.22-.33.48-.64.76-.92s.59-.54.93-.76a6.1 6.1 0 0 1 2.23-.94c.49-.1 1-.13 1.51-.11 1.83 1.47 3 3.72 3 6.24 0 .41-.04.8-.1 1.19Z"/></svg>