<svg xmlns="http://www.w3.org/2000/svg" viewBox="0 0 24 24" width="24" height="24"><path d="m21.52,4.09l-4.64,4.64-1.61-1.61,4.64-4.64-2.08-.86c-3.13-1.29-6.7-.57-9.09,1.82-2.15,2.15-2.94,5.25-2.15,8.12L.38,17.77l5.85,5.85,6.2-6.2c2.88.79,5.97,0,8.12-2.15h0c2.39-2.39,3.1-5.96,1.82-9.09l-.86-2.08Zm-3.08,9.06c-1.54,1.53-3.83,1.99-5.83,1.17l-.92-.38-5.44,5.44-1.61-1.61,5.44-5.44-.38-.92c-.83-2.01-.37-4.3,1.17-5.83.9-.9,2.06-1.43,3.28-1.55l-3.1,3.1,5.85,5.85,3.1-3.1c-.12,1.21-.65,2.37-1.55,3.28Z"/></svg>