<svg xmlns="http://www.w3.org/2000/svg" width="24" height="24" viewBox="0 0 24 24"><path d="M12 1C5.93 1 1 5.93 1 12s4.93 11 11 11 11-4.93 11-11S18.07 1 12 1m0 19c-4.41 0-8-3.59-8-8s3.59-8 8-8 8 3.59 8 8-3.59 8-8 8"/><path d="M8.5 9a1.5 1.5 0 1 0 0 3 1.5 1.5 0 1 0 0-3M15.5 9c-.83 0-1.5.67-1.5 1.5s.67 1.5 1.5 1.5 1.5-.67 1.5-1.5S16.33 9 15.5 9M15 15.01a4.188 4.188 0 0 1-1.35.91c-.26.11-.53.19-.8.25-.56.11-1.15.11-1.71 0-.27-.06-.54-.14-.8-.25-.25-.11-.5-.24-.72-.39s-.44-.33-.63-.52-.37-.4-.52-.63l-1.24.84a5.8 5.8 0 0 0 1.55 1.55c.31.21.63.38.98.53q.525.225 1.08.33a5.6 5.6 0 0 0 2.32 0c.37-.07.73-.19 1.08-.33.34-.15.67-.32.98-.53a5.8 5.8 0 0 0 1.55-1.55l-1.24-.84c-.15.23-.33.44-.52.63Z"/></svg>