<svg xmlns="http://www.w3.org/2000/svg" viewBox="0 0 24 24" width="24" height="24"><path d="m15.27,1H4.94L1,5.98v1.36c0,1.09.39,2.09,1.03,2.89-.02.09-.03.18-.03.28v12.5h20v-12.5c0-.1-.01-.19-.03-.28.63-.8,1.03-1.79,1.03-2.89v-1.36l-3.94-4.98h-3.79Zm-4.93,5.69l.71-2.69h1.91l.71,2.69v.64c0,.92-.75,1.67-1.67,1.67s-1.67-.75-1.67-1.67v-.64Zm-6.33.33l2.39-3.02h1.55l-.56,2.12-.05,1.22c0,.92-.75,1.67-1.67,1.67s-1.67-.75-1.67-1.67v-.31Zm10.5,12.98h-5v-4.5h5v4.5Zm1.5,0v-6h-8v6h-3v-8.07c.22.03.44.07.67.07,1.23,0,2.33-.48,3.17-1.26.83.78,1.94,1.26,3.17,1.26s2.33-.48,3.17-1.26c.83.78,1.94,1.26,3.17,1.26.23,0,.45-.04.67-.07v8.07h-3Zm4-12.67c0,.92-.75,1.67-1.67,1.67s-1.67-.75-1.67-1.67v-.83l-.61-2.5h1.55l2.39,3.02v.31Z"/></svg>