<svg xmlns="http://www.w3.org/2000/svg" viewBox="0 0 24 24" width="24" height="24"><path d="M8.5 8A1.5 1.5 0 1 0 8.5 11 1.5 1.5 0 1 0 8.5 8z"/><path d="m15.5,11c.83,0,1.5-.67,1.5-1.5s-.67-1.5-1.5-1.5-1.5.67-1.5,1.5.67,1.5,1.5,1.5Z"/><path d="m8.79,15.77c.31.21.63.38.98.53.35.15.71.26,1.08.33.38.08.77.12,1.16.12s.78-.04,1.16-.12c.37-.07.73-.19,1.08-.33.34-.15.67-.32.98-.53.31-.21.59-.44.85-.7.26-.26.5-.54.7-.85l-1.24-.84c-.15.23-.33.44-.52.63-.19.19-.4.37-.63.52-.23.15-.47.29-.72.39-.26.11-.53.19-.8.25-.56.11-1.15.11-1.71,0-.27-.06-.54-.14-.8-.25-.25-.11-.5-.24-.72-.39s-.44-.33-.63-.52c-.19-.19-.37-.4-.52-.63l-1.24.84c.21.31.44.59.7.85.26.26.54.5.85.7Z"/><path d="M5 5 9 5 9 2 2 2 2 9 5 9 5 5z"/><path d="M9 19 5 19 5 15 2 15 2 22 9 22 9 19z"/><path d="M22 15 19 15 19 19 15 19 15 22 22 22 22 15z"/><path d="M22 2 15 2 15 5 19 5 19 9 22 9 22 2z"/></svg>