<svg xmlns="http://www.w3.org/2000/svg" viewBox="0 0 24 24" width="24" height="24"><path d="m20.76,14.6s-.09-.05-.14-.07c-.22-.12-.45-.21-.68-.29l-1.02-6.24h2.08v-4h-2.74v-.06c-.29-1.7-1.74-2.94-3.46-2.94h-2.8v3h2.8c.25,0,.45.18.49.42l1.61,9.87c-.78.3-1.48.81-2,1.5-.28.36-.49.77-.64,1.2h-.26V5H1v7h.61c-.39.75-.61,1.6-.61,2.5v5.44h2.26c.6,1.77,2.27,3.06,4.24,3.06s3.6-1.26,4.22-3h2.55c.62,1.74,2.27,3,4.22,3,2.48,0,4.5-2.02,4.5-4.5,0-1.59-.86-3.09-2.24-3.9ZM4,8h7v1h-7v-1Zm7,4v3.67s-.05-.05-.07-.07c-.13-.15-.27-.3-.42-.43-.05-.05-.1-.09-.15-.13-.19-.16-.39-.3-.6-.43l-.36-.2h-.04c-.57-.26-1.2-.4-1.86-.4-.17,0-.35.01-.52.03-.06,0-.12.02-.17.03-.11.02-.22.03-.33.06-.07.02-.13.04-.2.06-.1.03-.19.05-.29.08-.07.03-.14.06-.21.09-.09.04-.17.07-.26.11-.07.03-.14.08-.21.11-.08.04-.16.09-.23.13-.07.04-.13.09-.2.14-.07.05-.15.1-.22.16-.06.05-.12.11-.18.16-.07.06-.14.12-.2.19-.06.06-.11.12-.16.18-.04.05-.09.1-.13.15v-1.17c0-1.38,1.12-2.5,2.5-2.5h4.5Zm-3.5,8c-.83,0-1.5-.67-1.5-1.54,0-.3.11-.61.3-.86.33-.44.92-.63,1.42-.58.02,0,.03,0,.05,0,.16.02.32.07.45.15l.15.09c.39.27.63.72.64,1.2v.03s0,0,0,0c0,.83-.67,1.5-1.5,1.5Zm11,0c-.83,0-1.5-.67-1.5-1.5,0-.32.11-.65.3-.9.29-.38.73-.6,1.2-.6.26,0,.52.07.73.19.03.02.05.03.08.04.43.29.68.75.68,1.26,0,.83-.67,1.5-1.5,1.5Z"/></svg>