<svg xmlns="http://www.w3.org/2000/svg" viewBox="0 0 24 24" width="24" height="24"><path d="m17.23,9.41c-.55-1.8-1.7-4.36-4.14-6.94l-1.09-1.15-1.09,1.15c-2.45,2.59-3.6,5.16-4.15,6.97-2.35-1.08-4.16-1.08-4.28-1.09l-1.48.02v1.48c0,7.99,4.32,13.15,11,13.15s11-5.28,11-13.15v-1.48l-1.48-.02c-.14,0-1.96,0-4.29,1.06Zm-5.23-3.61c1.66,2.14,2.31,4.08,2.56,5.21-.86.65-1.73,1.46-2.57,2.48-.84-1-1.71-1.8-2.55-2.44.25-1.13.89-3.08,2.57-5.24Zm0,14.2c-6.06,0-7.56-5.18-7.9-8.38,1.65.46,4.32,1.74,6.66,5.22l1.26,1.88,1.24-1.9c2.28-3.49,4.97-4.75,6.64-5.21-.48,4.19-2.72,8.39-7.9,8.39Z"/></svg>