<svg xmlns="http://www.w3.org/2000/svg" viewBox="0 0 24 24" width="24" height="24"><path d="m20.95,3.05c-.67-.67-1.45-1.19-2.32-1.54-1.68-.68-3.59-.68-5.27,0l.56,1.39c1.32-.53,2.82-.53,4.14,0,.68.28,1.29.68,1.82,1.21.53.53.93,1.14,1.21,1.82.27.66.4,1.35.4,2.07s-.14,1.41-.4,2.07l1.39.56c.34-.84.51-1.72.51-2.63s-.17-1.8-.51-2.63c-.35-.87-.87-1.65-1.54-2.32Z"/><path d="m14.49,10.57c.45.26.96.43,1.51.43,1.65,0,3-1.35,3-3s-1.35-3-3-3-3,1.35-3,3c0,.55.16,1.07.43,1.51l-1.61,1.61-6.74-6.74-1.06,1.06C.36,9.09.05,14.82,3.04,18.84l-2.1,2.1,2.12,2.12,2.1-2.1c1.81,1.35,3.97,2.03,6.13,2.03,2.63,0,5.27-1,7.27-3.01l1.06-1.06-6.74-6.74,1.61-1.61Zm1.51-4.07c.83,0,1.5.67,1.5,1.5s-.67,1.5-1.5,1.5-1.5-.67-1.5-1.5.67-1.5,1.5-1.5Zm-9.87,11.37c-2.48-2.48-2.79-6.31-.95-9.13l10.08,10.08c-2.82,1.84-6.65,1.53-9.13-.95Z"/></svg>