<svg xmlns="http://www.w3.org/2000/svg" width="24" height="24" viewBox="0 0 24 24"><path d="M12 10a2 2 0 1 0-.001 4.001A2 2 0 0 0 12 10M8.55 12c0-.93.37-1.81 1.03-2.47L7.46 7.41A6.45 6.45 0 0 0 5.55 12c0 1.74.68 3.37 1.91 4.6l2.12-2.12A3.49 3.49 0 0 1 8.55 12M16.55 16.6c1.23-1.23 1.9-2.86 1.9-4.6s-.68-3.37-1.9-4.6l-2.12 2.12c.66.66 1.03 1.54 1.03 2.48s-.36 1.81-1.03 2.47l2.12 2.12Z"/><path d="M6.7 17.3c-1.42-1.42-2.2-3.3-2.2-5.31s.78-3.88 2.2-5.3L4.58 4.57C2.59 6.55 1.5 9.19 1.5 11.99s1.09 5.44 3.08 7.43zM19.43 4.58 17.31 6.7c1.42 1.42 2.2 3.3 2.2 5.3s-.78 3.89-2.2 5.3l2.12 2.12c1.98-1.98 3.08-4.62 3.08-7.42s-1.09-5.44-3.08-7.42"/></svg>