<svg xmlns="http://www.w3.org/2000/svg" viewBox="0 0 24 24" width="24" height="24"><path d="m18.59,18c-1.68,0-2.6.84-3.21,1.39-.51.46-.7.61-1.19.61s-.68-.15-1.19-.61c-.61-.55-1.53-1.39-3.21-1.39s-2.6.84-3.21,1.39c-.51.46-.69.61-1.19.61s-.68-.15-1.19-.61c-.61-.55-1.53-1.39-3.21-1.39v3c.5,0,.68.15,1.19.61.61.55,1.53,1.39,3.21,1.39s2.6-.84,3.21-1.39c.51-.46.69-.61,1.19-.61s.68.15,1.19.61c.61.55,1.53,1.39,3.21,1.39s2.6-.84,3.21-1.39c.51-.46.7-.61,1.19-.61s.68.15,1.2.61c.61.55,1.53,1.39,3.21,1.39v-3c-.5,0-.68-.15-1.19-.61-.61-.55-1.53-1.39-3.21-1.39Z"/><path d="m3.33,16.68c.36.23.64.49.88.71.51.46.69.61,1.19.61s.68-.15,1.19-.61c0,0,.02-.02.03-.03l-1.29-4.84,6.67-1.96,6.67,1.96-.95,3.56c.27-.05.55-.09.87-.09.9,0,1.58.24,2.11.55l1.62-6.08-3.33-.98V3h-5.5V1h-3v2h-5.5v6.5l-3.33.98,1.66,6.21Zm4.67-10.68h8v2.61l-4-1.18-4,1.18v-2.61Z"/></svg>