<svg xmlns="http://www.w3.org/2000/svg" viewBox="0 0 24 24" width="24" height="24"><path d="M20.83 7.74 12 .57 3.1 7.79C1.76 9.02 1 10.73 1 12.5 1 16.08 4.04 19 7.78 19c.08 0 .15-.02.22-.02V19c.87 0 1.71-.2 2.5-.53V20H7v3h10v-3h-3.5v-1.53c.79.33 1.63.53 2.5.53v-.02c.07 0 .15.02.22.02 3.74 0 6.78-2.92 6.78-6.5 0-1.77-.77-3.48-2.17-4.76M16.22 16c-1.2 0-2.34-.54-3.05-1.43S12 13.01 12 13.01l-1.17 1.56c-.71.9-1.85 1.43-3.05 1.43C5.7 16 4 14.43 4 12.5c0-.94.4-1.83 1.06-2.44L12 4.43 18.87 10c.73.67 1.13 1.55 1.13 2.49 0 1.93-1.69 3.5-3.78 3.5Z"/></svg>