<svg xmlns="http://www.w3.org/2000/svg" width="24" height="24" viewBox="0 0 24 24"><path d="M12 1C5.93 1 1 5.93 1 12s4.93 11 11 11 11-4.93 11-11S18.07 1 12 1m6.92 7h-7.49l2.21-3.83c2.26.47 4.16 1.9 5.28 3.83m-4.03 4-1.44 2.5h-2.89L9.12 12l1.44-2.5h2.89zM12 4l-3.75 6.5-2.21-3.82C7.51 5.04 9.63 4 12 4M5.08 8.01l3.75 6.49H4.41C4.15 13.71 4 12.87 4 12c0-1.45.4-2.81 1.08-3.99m0 7.99h7.49l-2.21 3.83A8 8 0 0 1 5.08 16M12 20l3.75-6.5 2.21 3.82C16.49 18.96 14.37 20 12 20m6.92-4.01L15.17 9.5h4.42c.26.79.41 1.63.41 2.5 0 1.45-.4 2.81-1.08 3.99"/></svg>