<svg xmlns="http://www.w3.org/2000/svg" viewBox="0 0 24 24" width="24" height="24"><path class="b" d="m12,1C5.93,1,1,5.93,1,12s4.93,11,11,11,11-4.93,11-11S18.07,1,12,1Zm0,19c-4.41,0-8-3.59-8-8S7.59,4,12,4s8,3.59,8,8-3.59,8-8,8Z"/><path class="b" d="m7.76,7.76c-1.13,1.13-1.76,2.64-1.76,4.24s.62,3.11,1.76,4.24c1.13,1.13,2.64,1.76,4.24,1.76s3.11-.62,4.24-1.76c1.13-1.13,1.76-2.64,1.76-4.24s-.62-3.11-1.76-4.24c-2.34-2.34-6.15-2.34-8.49,0Zm1.06,1.06c.88-.88,2.03-1.32,3.18-1.32.29,0,.59.03.88.09l-5.29,5.29c-.06-.29-.09-.58-.09-.88,0-1.2.47-2.33,1.32-3.18Zm-.62,5.57l6.19-6.19c.28.18.55.38.79.62s.44.51.62.79l-6.19,6.19c-.28-.18-.55-.38-.79-.62-.24-.24-.44-.51-.62-.79Zm6.99.79c-.85.85-1.98,1.32-3.18,1.32-.3,0-.59-.03-.88-.09l5.29-5.29c.06.29.09.58.09.88,0,1.2-.47,2.33-1.32,3.18Z"/></svg>