<svg xmlns="http://www.w3.org/2000/svg" viewBox="0 0 24 24" width="24" height="24"><path d="m21.5,9.75c0,.69-.56,1.25-1.25,1.25h-1.04l-1.52-7.1c.64-.5,1.06-1.28,1.06-2.15v-.75h-1.5v.75c0,.69-.56,1.25-1.25,1.25h-1.25V1h-1.5v2h-2.5V1h-1.5v2h-1.25c-.69,0-1.25-.56-1.25-1.25v-.75h-1.5v.75c0,.88.42,1.65,1.06,2.15l-1.52,7.1h-1.04c-.69,0-1.25-.56-1.25-1.25v-1.75h-1.5v1.75c0,.85.39,1.6,1,2.1v11.15h20v-11.15c.61-.5,1-1.26,1-2.1v-1.75h-1.5v1.75Zm-12.57-3.75h6.15l1.07,5H7.86l1.07-5Zm10.07,14h-4v-4h-6v4h-4v-6h14v6Z"/></svg>