<svg xmlns="http://www.w3.org/2000/svg" viewBox="0 0 24 24" width="24" height="24"><path d="m19.5,8h-4.19c-.2,0-.32-.11-.38-.17s-.15-.2-.12-.4l.35-2.43c.14-1.01-.16-2.02-.82-2.79-.67-.77-1.63-1.21-2.64-1.21h-2.75l-2,5.61c-.37,1.04-1.23,1.86-2.29,2.18l-3.65,1.09v12.12h3.74c1.03,0,2.06.14,3.06.43l.09.03c1.26.36,2.56.54,3.88.54h5.74c1.93,0,3.5-1.57,3.5-3.5,0-.46-.09-.91-.26-1.32.77-.64,1.26-1.61,1.26-2.68,0-.46-.09-.91-.26-1.32.77-.64,1.26-1.61,1.26-2.68,0-1.93-1.57-3.5-3.5-3.5Zm0,4h-2.5v3h1.5c.28,0,.5.22.5.5s-.22.5-.5.5h-2.5v3h1.5c.28,0,.5.22.5.5s-.22.5-.5.5h-5.74c-1.03,0-2.06-.14-3.06-.43l-.09-.03c-1.26-.36-2.56-.54-3.88-.54h-.74v-6.88l1.51-.45c1.97-.59,3.56-2.1,4.25-4.04l1.29-3.62h.64c.2,0,.32.11.38.17s.15.2.12.4l-.35,2.43c-.14,1.01.16,2.02.82,2.79.67.77,1.63,1.21,2.64,1.21h4.19c.28,0,.5.22.5.5s-.22.5-.5.5Z"/></svg>