<svg xmlns="http://www.w3.org/2000/svg" viewBox="0 0 24 24" width="24" height="24"><path d="m16,11.26v-7.26c0-2.21-1.79-4-4-4s-4,1.79-4,4v7.26c-2.25,1.56-3.39,4.29-2.88,7.07.51,2.73,2.67,4.95,5.38,5.51.49.1.99.15,1.48.15,1.61,0,3.16-.54,4.42-1.56,1.64-1.34,2.59-3.32,2.59-5.43,0-2.32-1.13-4.44-3-5.74Zm-1.48,8.85c-.95.77-2.16,1.06-3.4.8-1.54-.32-2.76-1.58-3.05-3.12-.33-1.78.52-3.53,2.11-4.34l.82-.42V4c0-.55.45-1,1-1s1,.45,1,1v9.02l.82.42c1.35.69,2.18,2.05,2.18,3.56,0,1.21-.54,2.34-1.48,3.11Z"/></svg>