<svg xmlns="http://www.w3.org/2000/svg" viewBox="0 0 24 24" width="24" height="24"><path d="M20.5 18A2.5 2.5 0 1 0 20.5 23 2.5 2.5 0 1 0 20.5 18z"/><path d="m19.75,15.75c3.81-3.81,4.34-9.49,1.17-12.66C17.75-.09,12.07.44,8.25,4.25c-2.96,2.96-3.93,7.04-2.74,10.21.13.72.11,1.37-.15,2.05L.44,21.44l.37.37,1.39,1.39.37.37,4.93-4.93c.66-.25,1.29-.28,1.99-.16.89.35,1.86.52,2.86.52,2.54,0,5.26-1.11,7.4-3.24Zm-7.39.26l.65-.65.53.53c-.4.08-.79.12-1.18.12Zm-4.24-5.53l.53.53-.65.65c0-.39.04-.78.12-1.18Zm6.88-5.12l1.65,1.65-1.65,1.65-1.65-1.65,1.65-1.65Zm-2,1.29l-1.34-1.34c.72-.49,1.48-.84,2.24-1.06l.74.74-1.65,1.65Zm6.88,2.88l-.53-.53.65-.65c0,.39-.04.78-.12,1.18Zm-.88-.88l-1.65-1.65,1.61-1.61c.56.64.89,1.43,1,2.29l-.96.96Zm-6,6l-1.65-1.65,1.65-1.65,1.65,1.65-1.65,1.65Zm2-1.29l1.33,1.33c-.72.49-1.47.84-2.23,1.06l-.75-.75,1.65-1.65Zm-1.65-2.35l1.65-1.65,1.65,1.65-1.65,1.65-1.65-1.65Zm2-2l1.65-1.65,1.65,1.65-1.65,1.65-1.65-1.65Zm1.65-2.35l-1.65-1.65.95-.95c.87.11,1.65.44,2.29,1l-1.6,1.6Zm-2.35,2.35l-1.65,1.65-1.65-1.65,1.65-1.65,1.65,1.65Zm-2,2l-1.65,1.65-1.65-1.65,1.65-1.65,1.65,1.65Zm-2,2l-1.61,1.61c-.56-.64-.89-1.43-1-2.29l.96-.96,1.65,1.65Zm.35.35l1.65,1.65-.96.96c-.87-.11-1.66-.44-2.29-1l1.61-1.61Zm5.74,1.04l-1.39-1.39,1.65-1.65,1.39,1.39c-.23.3-.48.6-.77.88-.28.28-.58.53-.88.77Zm1.94-2.06l-1.33-1.33,1.65-1.65.75.75c-.22.76-.57,1.51-1.06,2.23Zm-3.03-8.34l-.65.65-.53-.53c.4-.08.79-.12,1.18-.12,0,0,0,0,0,0Zm-4.4,1.62l1.39,1.39-1.65,1.65-1.39-1.39c.23-.3.48-.6.77-.88.28-.28.58-.53.88-.76Zm-1.94,2.06l1.33,1.33-1.65,1.65-.75-.75c.22-.76.57-1.51,1.06-2.23Z"/></svg>