<svg xmlns="http://www.w3.org/2000/svg" viewBox="0 0 24 24" width="24" height="24"><path d="m18.44,3.44l-4.14,4.14c-.69-.36-1.46-.58-2.29-.58s-1.6.22-2.29.58l-1.08-1.08,1.44-1.44-2.12-2.12-1.44,1.44-.94-.94,2.44-2.44H1v7l2.44-2.44.94.94-1.44,1.44,2.12,2.12,1.44-1.44,1.08,1.08c-.36.69-.58,1.46-.58,2.29,0,2.23,1.48,4.1,3.5,4.74v1.26h-2.5v3h2.5v2h3v-2h2.5v-3h-2.5v-1.26c2.02-.64,3.5-2.51,3.5-4.74,0-.83-.22-1.6-.58-2.29l4.14-4.14,2.44,2.44V1h-7l2.44,2.44Zm-6.44,10.56c-1.1,0-2-.9-2-2s.9-2,2-2,2,.9,2,2-.9,2-2,2Z"/></svg>