<svg xmlns="http://www.w3.org/2000/svg" viewBox="0 0 24 24" width="24" height="24"><path d="m19,1H5C2.79,1,1,2.79,1,5v18h17V5c0-.55.45-1,1-1s1,.45,1,1v14h3V5c0-2.21-1.79-4-4-4Zm-4,15.04c-.35-.26-.81-.54-1.6-.54-.91,0-1.4.38-1.76.66-.29.22-.45.34-.84.34s-.55-.12-.84-.34c-.36-.28-.85-.66-1.76-.66s-1.4.38-1.76.66c-.29.22-.45.34-.84.34s-.55-.12-.84-.34c-.2-.15-.44-.33-.76-.46v-1.74c.35.26.81.54,1.6.54.9,0,1.4-.38,1.76-.66.29-.22.45-.34.84-.34s.55.12.84.34c.36.28.85.66,1.76.66s1.4-.38,1.76-.66c.29-.22.45-.34.84-.34s.55.12.84.34c.2.15.44.33.76.46v1.74Zm-11,1.42c.35.26.81.54,1.6.54.9,0,1.4-.38,1.76-.66.29-.22.45-.34.84-.34s.55.12.84.34c.36.28.85.66,1.76.66s1.4-.38,1.76-.66c.29-.22.45-.34.84-.34s.55.12.84.34c.2.15.44.33.76.46v2.2H4v-2.54ZM15,5v7.54c-.35-.26-.81-.54-1.6-.54-.91,0-1.4.38-1.76.66-.29.22-.45.34-.84.34s-.55-.12-.84-.34c-.36-.28-.85-.66-1.76-.66s-1.4.38-1.76.66c-.29.22-.45.34-.84.34s-.55-.12-.84-.34c-.2-.15-.44-.33-.76-.46v-7.2c0-.55.45-1,1-1h10.14c-.08.32-.14.65-.14,1Z"/></svg>