<svg xmlns="http://www.w3.org/2000/svg" width="24" height="24" viewBox="0 0 24 24"><path d="M17.5 8c-2 0-3.5 1.5-3.5 3.5s1.5 3.5 3.5 3.5c.71 0 1.36-.2 1.9-.54l2.07 2.07 1.06-1.06-2.07-2.07c.34-.54.54-1.19.54-1.9 0-2-1.5-3.5-3.5-3.5m0 5.5c-1.18 0-2-.82-2-2s.82-2 2-2 2 .82 2 2-.82 2-2 2M3 7c0 2.85 2.15 5 5 5s5-2.15 5-5-2.15-5-5-5-5 2.15-5 5m7 0c0 1.18-.82 2-2 2s-2-.82-2-2 .82-2 2-2 2 .82 2 2M15 18.5c0-3.03-2.47-5.5-5.5-5.5h-3A5.51 5.51 0 0 0 1 18.5V22h14zm-3 .5H4v-.5A2.5 2.5 0 0 1 6.5 16h3a2.5 2.5 0 0 1 2.5 2.5z"/></svg>