<svg xmlns="http://www.w3.org/2000/svg" width="24" height="24" viewBox="0 0 24 24"><path d="m16.54 4.46-2.12 2.12c.41.41.63.9.63 1.41s-.22 1-.63 1.41l2.12 2.12c.97-.97 1.51-2.23 1.51-3.54s-.54-2.56-1.51-3.54Z"/><path d="M17.95 3.05c2.87 2.87 2.87 7.03 0 9.9l2.12 2.12c4.03-4.03 4.03-10.11 0-14.14zM3 7c0 2.85 2.15 5 5 5s5-2.15 5-5-2.15-5-5-5-5 2.15-5 5m7 0c0 1.18-.82 2-2 2s-2-.82-2-2 .82-2 2-2 2 .82 2 2M15 18.5c0-3.03-2.47-5.5-5.5-5.5h-3A5.51 5.51 0 0 0 1 18.5V22h14zm-3 .5H4v-.5A2.5 2.5 0 0 1 6.5 16h3a2.5 2.5 0 0 1 2.5 2.5z"/></svg>