<svg xmlns="http://www.w3.org/2000/svg" viewBox="0 0 24 24" width="24" height="24"><path class="b" d="m9.53,18.01c-.97.97-2.56.97-3.54,0-.97-.97-.97-2.56,0-3.54l2.83-2.83-2.12-2.12-2.83,2.83c-2.14,2.14-2.14,5.63,0,7.78,1.07,1.07,2.48,1.61,3.89,1.61,1.41,0,2.82-.54,3.89-1.61l2.83-2.83-2.12-2.12-2.83,2.83Z"/><path class="b" d="m20.13,3.87c-2.14-2.14-5.63-2.14-7.78,0l-2.83,2.83,2.12,2.12,2.83-2.83c.97-.97,2.56-.98,3.54,0,.97.97.97,2.56,0,3.54l-2.83,2.83,2.12,2.12,2.83-2.83c2.14-2.14,2.14-5.63,0-7.78Z"/></svg>