<svg xmlns="http://www.w3.org/2000/svg" viewBox="0 0 24 24" width="24" height="24"><path d="m8,1h-1.13L.3,23.7l22.7-6.57v-1.13c0-8.27-6.73-15-15-15Zm.11,6.51c4.6.06,8.32,3.79,8.38,8.38l-11.8,3.41,3.41-11.8Zm9.86,7.95c-.27-5.08-4.35-9.16-9.43-9.43l.57-1.98c5.73.53,10.31,5.11,10.84,10.84l-1.98.57Z"/><path d="M10 9A1 1 0 1 0 10 11 1 1 0 1 0 10 9z"/><path d="M13 11A1 1 0 1 0 13 13 1 1 0 1 0 13 11z"/><path d="M12 14A1 1 0 1 0 12 16 1 1 0 1 0 12 14z"/><path d="M9 12A1 1 0 1 0 9 14 1 1 0 1 0 9 12z"/><path d="M8 15A1 1 0 1 0 8 17 1 1 0 1 0 8 15z"/></svg>