<svg xmlns="http://www.w3.org/2000/svg" width="24" height="24" viewBox="0 0 24 24"><path d="M10 19c0 1.1.89 2 2 2s2-.9 2-2-.9-2-2-2-2 .9-2 2"/><path d="M18.01 15.19C16.4 13.58 14.27 12.7 12 12.7s-4.4.88-6.01 2.49l2.12 2.12c1.04-1.04 2.42-1.61 3.89-1.61s2.85.57 3.89 1.61z"/><path d="M20.84 12.26C18.48 9.9 15.34 8.6 12 8.6s-6.48 1.3-8.84 3.66l2.12 2.12C7.07 12.59 9.46 11.6 12 11.6s4.92.99 6.72 2.78z"/><path d="m.33 9.33 2.12 2.12C5 8.9 8.39 7.5 12 7.5s7 1.4 9.55 3.95l2.12-2.12C20.55 6.21 16.41 4.5 12 4.5S3.45 6.22.33 9.33"/></svg>