<svg xmlns="http://www.w3.org/2000/svg" viewBox="0 0 24 24" width="24" height="24"><path d="m19.78,19.78c4.29-4.29,4.29-11.27,0-15.56-2.08-2.08-4.84-3.22-7.78-3.22s-5.7,1.14-7.78,3.22C-.07,8.51-.07,15.49,4.22,19.78c2.14,2.14,4.96,3.22,7.78,3.22s5.63-1.07,7.78-3.22ZM6.34,6.34c1.51-1.51,3.52-2.34,5.66-2.34s4.15.83,5.66,2.34c3.12,3.12,3.12,8.19,0,11.31s-8.2,3.12-11.31,0-3.12-8.19,0-11.31Z"/><path d="M15 16.07 16.07 15 13.06 12 16.07 8.99 15 7.93 12 10.94 9 7.93 7.93 8.99 10.94 12 7.93 15 9 16.07 12 13.06 15 16.07z"/></svg>