<svg xmlns="http://www.w3.org/2000/svg" viewBox="0 0 24 24" width="24" height="24"><path d="m23,12c0-6.07-4.93-11-11-11S1,5.93,1,12s4.93,11,11,11h11v-1.5h-5.48c3.27-1.91,5.48-5.45,5.48-9.5Zm-4.89-3.69c0,5.41-4.4,9.81-9.81,9.81-.54,0-1.07-.04-1.6-.13-.36-.32-.7-.68-1-1.06,5.95-.52,10.69-5.27,11.21-11.21.38.3.74.64,1.06,1,.09.53.13,1.06.13,1.6Zm-14.11,3.69c0-.69.1-1.36.26-1.99,2.26.67,4.19,2.14,5.46,4.17-1.47.79-3.14,1.25-4.93,1.28-.5-1.05-.8-2.22-.8-3.46Zm2.25-5.55c2.96.16,5.71,1.51,7.65,3.78-.75,1.24-1.74,2.31-2.9,3.16-1.46-2.32-3.66-4-6.23-4.79.38-.8.88-1.52,1.48-2.15Zm9.21-1.65c-.02,1.42-.32,2.76-.84,4-1.81-1.92-4.16-3.19-6.72-3.66,1.2-.72,2.6-1.14,4.09-1.14,1.24,0,2.41.29,3.46.8Zm-3.46,15.2c-.91,0-1.79-.16-2.6-.44,5.36-.52,9.64-4.8,10.16-10.16.28.82.44,1.69.44,2.6,0,4.41-3.59,8-8,8Z"/></svg>