<svg xmlns="http://www.w3.org/2000/svg" width="24" height="24" viewBox="0 0 24 24"><path d="M12 7c-.55 0-1 .45-1 1v4c0 .55.45 1 1 1s1-.45 1-1V8c0-.55-.45-1-1-1M12 15a1 1 0 1 0 0 2 1 1 0 1 0 0-2"/><path d="M17.59 3.17A3.96 3.96 0 0 0 14.76 2H9.25c-1.07 0-2.07.42-2.83 1.17L3.18 6.41c-.76.76-1.17 1.76-1.17 2.83v5.51c0 1.07.42 2.07 1.17 2.83l3.24 3.24c.76.76 1.76 1.17 2.83 1.17h5.51c1.07 0 2.07-.42 2.83-1.17l3.24-3.24c.76-.76 1.17-1.76 1.17-2.83V9.24c0-1.07-.42-2.07-1.17-2.83zM20 14.76c0 .53-.21 1.04-.59 1.41l-3.24 3.24c-.38.38-.88.59-1.41.59H9.25c-.53 0-1.04-.21-1.41-.59L4.6 16.17c-.38-.38-.59-.88-.59-1.41V9.25c0-.53.21-1.04.59-1.41L7.84 4.6c.38-.38.88-.59 1.41-.59h5.51c.53 0 1.04.21 1.41.59l3.24 3.24c.38.38.59.88.59 1.41z"/></svg>