<svg xmlns="http://www.w3.org/2000/svg" viewBox="0 0 24 24" width="24" height="24"><path d="m6.33,9.1c1.6-.94,3.53-.78,5.02.49,1.22,1.04,2.68,1.56,4.15,1.56,1.1,0,2.21-.3,3.21-.89.53-.31.63-1.04.23-1.5h0c-.32-.37-.85-.45-1.27-.2-1.6.94-3.53.78-5.02-.49-2.14-1.82-5.03-2.05-7.36-.67-.53.31-.63,1.04-.23,1.5.32.37.85.45,1.27.2Z"/><path d="m17.67,14.9c-1.6.94-3.53.78-5.02-.49-2.14-1.82-5.03-2.05-7.36-.67-.53.31-.63,1.04-.23,1.5.32.37.85.45,1.27.2,1.6-.94,3.53-.78,5.02.49,1.22,1.04,2.68,1.56,4.15,1.56,1.1,0,2.21-.3,3.21-.89.53-.31.63-1.04.23-1.5-.32-.37-.85-.45-1.27-.2Z"/></svg>