<svg xmlns="http://www.w3.org/2000/svg" width="24" height="24" viewBox="0 0 24 24"><path d="m4.01 20.22 7 1.4c.16.03.33.05.49.05.57 0 1.13-.2 1.58-.57.58-.48.92-1.18.92-1.93V4.83c0-.75-.33-1.46-.92-1.93-.58-.48-1.34-.67-2.07-.52l-7 1.4A2.506 2.506 0 0 0 2 6.23v11.54c0 1.19.85 2.22 2.01 2.45m0-13.99c0-.24.17-.44.4-.49l7-1.4c.2-.04.35.05.41.1.07.06.18.18.18.39v14.34c0 .21-.11.33-.18.39s-.21.14-.41.1l-7-1.4a.5.5 0 0 1-.4-.49zM17 22c.55 0 1-.45 1-1V3c0-.55-.45-1-1-1s-1 .45-1 1v18c0 .55.45 1 1 1M21 2c-.55 0-1 .45-1 1v18c0 .55.45 1 1 1s1-.45 1-1V3c0-.55-.45-1-1-1"/></svg>