<svg xmlns="http://www.w3.org/2000/svg" viewBox="0 0 24 24" width="24" height="24"><path d="m13.11,2.06c-.54-.05-1.04.34-1.1.88-.06.55.34,1.04.88,1.1,1.79.2,3.49,1.01,4.77,2.29,1.51,1.51,2.34,3.52,2.34,5.66s-.83,4.15-2.34,5.66-3.52,2.34-5.66,2.34-4.15-.83-5.66-2.34c-1.28-1.28-2.09-2.97-2.29-4.77-.06-.55-.56-.94-1.1-.88-.55.06-.94.56-.88,1.1.25,2.25,1.27,4.36,2.86,5.96,1.89,1.89,4.4,2.93,7.07,2.93s5.18-1.04,7.07-2.93,2.93-4.4,2.93-7.07-1.04-5.18-2.93-7.07c-1.6-1.6-3.72-2.62-5.96-2.86Z"/><path d="m9.81,15h4.44c.41,0,.75-.34.75-.75v-4.44c0-.67-.81-1-1.28-.53l-1.51,1.51-4.5-4.5c-.39-.39-1.02-.39-1.41,0s-.39,1.02,0,1.41l4.5,4.5-1.51,1.51c-.47.47-.14,1.28.53,1.28Z"/></svg>