<svg xmlns="http://www.w3.org/2000/svg" width="24" height="24" viewBox="0 0 24 24"><path d="M12 4c-4.88 0-9 4.12-9 9s4.12 9 9 9 9-4.12 9-9-4.12-9-9-9m0 16c-3.79 0-7-3.21-7-7s3.21-7 7-7 7 3.21 7 7-3.21 7-7 7"/><path d="M16 12H8c-.55 0-1 .45-1 1s.45 1 1 1h8c.55 0 1-.45 1-1s-.45-1-1-1M18.7 2.29a.996.996 0 1 0-1.41 1.41l3.01 3c.2.19.45.29.71.29s.51-.1.71-.29a.996.996 0 0 0 0-1.41l-3.01-3ZM3.71 6.71l2.99-3A.996.996 0 1 0 5.29 2.3l-2.99 3a.996.996 0 0 0 0 1.41c.2.19.45.29.71.29s.51-.1.71-.29Z"/></svg>