<svg xmlns="http://www.w3.org/2000/svg" viewBox="0 0 24 24" width="24" height="24"><path d="m10.99,3.98c-.61.29-.99.9-.99,1.58v2.44h-2c-1.1,0-2,.9-2,2v4c0,1.1.9,2,2,2h2v2.44c0,.68.38,1.28.99,1.58.24.12.5.17.76.17.39,0,.77-.13,1.09-.38l8.05-6.44c.42-.33.66-.83.66-1.37s-.24-1.03-.66-1.37c0,0,0,0,0,0l-8.05-6.44c-.53-.42-1.24-.5-1.85-.21Zm1.01,13.94v-2.92c0-.55-.45-1-1-1h-3v-4h3c.55,0,1-.45,1-1v-2.92l7.4,5.92-7.4,5.92Z"/><path d="m4,15v-6c0-.55-.45-1-1-1s-1,.45-1,1v6c0,.55.45,1,1,1s1-.45,1-1Z"/></svg>