<svg xmlns="http://www.w3.org/2000/svg" width="24" height="24" viewBox="0 0 24 24"><path d="M12 9c-.55 0-1 .45-1 1v4c0 .55.45 1 1 1s1-.45 1-1v-4c0-.55-.45-1-1-1M12 17a1 1 0 1 0 0 2 1 1 0 1 0 0-2"/><path d="M14.16 3.74c-.45-.78-1.26-1.25-2.16-1.25s-1.71.47-2.16 1.25-8.4 14.51-8.4 14.51c-.45.78-.45 1.72 0 2.5S2.7 22 3.61 22h16.8a2.502 2.502 0 0 0 2.17-3.75zm6.67 16.01c-.04.08-.17.25-.43.25H3.6c-.26 0-.39-.17-.43-.25a.5.5 0 0 1 0-.5l8.4-14.51c.13-.23.35-.25.43-.25s.3.02.43.25l8.4 14.51a.5.5 0 0 1 0 .5"/></svg>