<svg xmlns="http://www.w3.org/2000/svg" width="24" height="24" viewBox="0 0 24 24"><path d="M12 2C6.49 2 2 6.49 2 12s4.49 10 10 10c1.47 0 2.96-.37 4.44-1.1.5-.24.7-.84.45-1.34a.99.99 0 0 0-1.34-.45c-1.2.59-2.4.9-3.56.9-4.41 0-8-3.59-8-8S7.59 4 12 4s8 3.59 8 8v1c0 .69-.31 2-1.5 2-1.4 0-1.49-1.82-1.5-2V8.5c0-.55-.45-1-1-1-.41 0-.76.25-.91.6C14.24 7.42 13.17 7 12 7c-2.76 0-5 2.24-5 5s2.24 5 5 5c1.45 0 2.75-.63 3.66-1.62.52.89 1.41 1.62 2.84 1.62 2.27 0 3.5-2.06 3.5-4v-1c0-5.51-4.49-10-10-10m0 13c-1.65 0-3-1.35-3-3s1.35-3 3-3 3 1.35 3 3-1.35 3-3 3"/></svg>