<svg xmlns="http://www.w3.org/2000/svg" viewBox="0 0 24 24" width="24" height="24"><path d="m10.4,16h-2.4V3c0-.55-.45-1-1-1s-1,.45-1,1v13h-2.4c-.64,0-.98.74-.58,1.23l3.4,4.08c.3.36.85.36,1.15,0l3.4-4.08c.41-.49.06-1.23-.58-1.23Z"/><path d="m21,20h-3.83l4.58-5.35c.25-.3.31-.71.15-1.07-.16-.35-.52-.58-.91-.58h-6c-.55,0-1,.45-1,1s.45,1,1,1h3.83l-4.58,5.35c-.25.3-.31.71-.15,1.07.16.35.52.58.91.58h6c.55,0,1-.45,1-1s-.45-1-1-1Z"/><path d="m20.27,3.63c-.33-.98-1.24-1.63-2.27-1.63s-1.94.66-2.27,1.63l-2.02,6.05c-.17.52.11,1.09.63,1.27.53.18,1.09-.11,1.27-.63l.44-1.32h3.89l.44,1.32c.14.42.53.68.95.68.1,0,.21-.02.32-.05.52-.17.81-.74.63-1.27l-2.02-6.05Zm-3.54,3.37l.91-2.73c.11-.32.63-.32.74,0l.91,2.73h-2.56Z"/></svg>