<svg xmlns="http://www.w3.org/2000/svg" viewBox="0 0 24 24" width="24" height="24"><path class="b" d="m17.18,16.76c.53-1.15.82-2.42.82-3.76v-.5c0-.55-.45-1-1-1s-1,.45-1,1v.5c0,.78-.13,1.52-.36,2.22l-5.03-5.03,1.33-.8c1.55-.93,2.27-2.74,1.8-4.51-.46-1.73-1.9-2.86-3.63-2.89h-.19c-1.71.03-3.18,1.05-3.83,2.66-.67,1.66-.3,3.54.95,4.79l.35.35-1.13.68c-1.51.9-2.67,2.34-3.08,4.04-.95,3.94,2.03,7.48,5.82,7.48,2.88,0,5.46-1.36,7.1-3.48l2.48,2.48c.39.39,1.02.39,1.41,0,.39-.39.39-1.02,0-1.41l-2.82-2.82ZM7.94,5.41c.35-.87,1.1-1.4,2.11-1.41,1.02.02,1.58.74,1.76,1.41.19.69.06,1.71-.89,2.28l-1.76,1.06-.7-.7c-.83-.83-.81-1.9-.52-2.63Zm1.06,14.59c-2.21,0-4-1.79-4-4,0-1.5.8-2.91,2.09-3.69l1.76-1.05,5.83,5.83c-1.27,1.76-3.34,2.91-5.68,2.91Z"/></svg>