<svg xmlns="http://www.w3.org/2000/svg" width="24" height="24" viewBox="0 0 24 24"><path d="M12 14c-1.72 0-2.79.99-3.38 1.83-.35.49.02 1.17.62 1.17h5.51c.6 0 .97-.68.62-1.17-.59-.84-1.66-1.83-3.38-1.83Z"/><path d="M12 2C6.49 2 2 6.49 2 12s4.49 10 10 10 10-4.49 10-10S17.51 2 12 2m0 18c-4.41 0-8-3.59-8-8s3.59-8 8-8 8 3.59 8 8-3.59 8-8 8"/><path d="m16.45 8.17-3 2c-.46.31-.58.93-.28 1.39.19.29.51.45.83.45.19 0 .38-.05.55-.17l.57-.38c.17.32.49.55.88.55.55 0 1-.45 1-1 0-.24-.1-.46-.24-.64l.8-.53c.46-.31.58-.93.28-1.39a1.01 1.01 0 0 0-1.39-.28M8.88 11.45l.57.38c.17.11.36.17.55.17.32 0 .64-.16.83-.45.31-.46.18-1.08-.28-1.39l-3-2a1.001 1.001 0 1 0-1.11 1.67l.8.53c-.15.17-.24.39-.24.64 0 .55.45 1 1 1 .39 0 .71-.23.88-.55"/></svg>