<svg xmlns="http://www.w3.org/2000/svg" viewBox="0 0 24 24" width="24" height="24"><path d="m20.25,3h-3.44c-.67,0-1,.81-.53,1.28l1.01,1.01-5.29,5.29L4.71,3.29c-.39-.39-1.02-.39-1.41,0s-.39,1.02,0,1.41l7.29,7.29-7.29,7.29c-.39.39-.39,1.02,0,1.41.2.2.45.29.71.29s.51-.1.71-.29l14-14,1.01,1.01c.47.47,1.28.14,1.28-.53v-3.44c0-.41-.34-.75-.75-.75Z"/><path d="m19.72,16.28l-1.01,1.01-3.17-3.17c-.39-.39-1.02-.39-1.41,0-.39.39-.39,1.02,0,1.41l3.17,3.17-1.01,1.01c-.47.47-.14,1.28.53,1.28h3.44c.41,0,.75-.34.75-.75v-3.44c0-.67-.81-1-1.28-.53Z"/></svg>