<svg xmlns="http://www.w3.org/2000/svg" viewBox="0 0 24 24" width="24" height="24"><path d="m21,4c0-.13-.03-.26-.08-.38-.1-.24-.3-.44-.54-.54-.12-.05-.25-.08-.38-.08h-6c-.55,0-1,.45-1,1s.45,1,1,1h3.59l-6.29,6.29c-.39.39-.39,1.02,0,1.41.2.2.45.29.71.29s.51-.1.71-.29l6.29-6.29v3.59c0,.55.45,1,1,1s1-.45,1-1v-6Z"/><path d="m7,5h3c.55,0,1-.45,1-1s-.45-1-1-1h-3c-2.21,0-4,1.79-4,4v10c0,2.21,1.79,4,4,4h10c2.21,0,4-1.79,4-4v-3c0-.55-.45-1-1-1s-1,.45-1,1v3c0,1.1-.9,2-2,2H7c-1.1,0-2-.9-2-2V7c0-1.1.9-2,2-2Z"/></svg>