<svg xmlns="http://www.w3.org/2000/svg" viewBox="0 0 24 24" width="24" height="24"><path class="b" d="m19.24,5.04c-.23-.13-.5-.17-.76-.1-.26.07-.48.24-.61.47-.27.46-.7.79-1.21.93-.52.14-1.05.07-1.52-.2l-4.33-2.5c-.48-.28-1.09-.11-1.37.37l-2.5,4.33-4,6.93c-.4.69-.51,1.5-.3,2.28s.7,1.42,1.4,1.82c.46.27.98.4,1.5.4.26,0,.52-.03.78-.1.77-.21,1.42-.7,1.82-1.4l3.5-6.06h0c.46.27.79.7.93,1.21s.07,1.05-.2,1.52c-.13.23-.17.5-.1.76.07.26.24.47.47.61.93.54,1.93.79,2.92.79,2.15,0,4.26-1.22,5.53-3.42,1.85-3.21,1.02-6.92-1.95-8.63Zm-12.83,12.22c-.13.23-.35.4-.61.47-.26.07-.53.03-.76-.1-.23-.13-.4-.35-.47-.61-.07-.26-.03-.53.1-.76l3.5-6.06.58.33,1.15.67-3.5,6.06Zm13.04-4.59c-1.14,1.97-3.11,2.83-4.93,2.25.17-.66.16-1.35-.02-2.02-.28-1.03-.94-1.89-1.86-2.43l-3.46-2,1.5-2.6,3.46,2c.92.53,2,.67,3.04.4.67-.18,1.27-.52,1.75-1,1.42,1.28,1.66,3.42.52,5.39Z"/></svg>