<svg xmlns="http://www.w3.org/2000/svg" width="24" height="24" viewBox="0 0 24 24"><path d="M14.33 8.29 11 11.59l-1.3-1.3a.996.996 0 1 0-1.41 1.41l2 2c.2.2.45.29.71.29s.51-.1.7-.29l4.04-4c.39-.39.4-1.02 0-1.42a.996.996 0 0 0-1.41 0Z"/><path d="M19.12 12.71a.4.4 0 0 1-.12-.29v-2.41c0-1.91-.75-3.69-2.13-5.02-.86-.83-1.9-1.42-3.02-1.73-.3-.73-1.01-1.25-1.85-1.25s-1.57.53-1.86 1.27C7.19 4.14 5 6.97 5 10.26v2.16c0 .11-.04.22-.12.29l-1.17 1.17A2.411 2.411 0 0 0 5.41 18h13.17a2.411 2.411 0 0 0 1.7-4.12l-1.17-1.17ZM18.59 16H5.41a.412.412 0 0 1-.29-.7l1.17-1.17c.45-.45.71-1.07.71-1.71v-2.16c0-2.81 2.17-5.17 4.85-5.25h.16c1.31 0 2.54.5 3.48 1.41.98.95 1.52 2.22 1.52 3.59v2.41c0 .64.26 1.26.71 1.71l1.17 1.17a.412.412 0 0 1-.29.7ZM12 22c1.31 0 2.41-.83 2.82-2H9.18c.41 1.17 1.51 2 2.82 2"/></svg>