<svg xmlns="http://www.w3.org/2000/svg" width="24" height="24" viewBox="0 0 24 24"><path d="M4 7a1 1 0 1 0 0 2 1 1 0 1 0 0-2M4 3a1 1 0 1 0 0 2 1 1 0 1 0 0-2M8 3a1 1 0 1 0 0 2 1 1 0 1 0 0-2M4 19a1 1 0 1 0 0 2 1 1 0 1 0 0-2M4 15a1 1 0 1 0 0 2 1 1 0 1 0 0-2M4 11a1 1 0 1 0 0 2 1 1 0 1 0 0-2M20 7a1 1 0 1 0 0 2 1 1 0 1 0 0-2M20 3a1 1 0 1 0 0 2 1 1 0 1 0 0-2M20 19a1 1 0 1 0 0 2 1 1 0 1 0 0-2M20 15a1 1 0 1 0 0 2 1 1 0 1 0 0-2M20 11a1 1 0 1 0 0 2 1 1 0 1 0 0-2M8 11a1 1 0 1 0 0 2 1 1 0 1 0 0-2M12 11a1 1 0 1 0 0 2 1 1 0 1 0 0-2M16 11a1 1 0 1 0 0 2 1 1 0 1 0 0-2M12 7a1 1 0 1 0 0 2 1 1 0 1 0 0-2M12 15a1 1 0 1 0 0 2 1 1 0 1 0 0-2M16 19a1 1 0 1 0 0 2 1 1 0 1 0 0-2M8 19a1 1 0 1 0 0 2 1 1 0 1 0 0-2M12 19a1 1 0 1 0 0 2 1 1 0 1 0 0-2M16 3a1 1 0 1 0 0 2 1 1 0 1 0 0-2M12 3a1 1 0 1 0 0 2 1 1 0 1 0 0-2"/></svg>