<svg xmlns="http://www.w3.org/2000/svg" width="24" height="24" viewBox="0 0 24 24"><path d="M20 11h-7V4c0-.55-.45-1-1-1s-1 .45-1 1v7H4c-.55 0-1 .45-1 1s.45 1 1 1h7v7c0 .55.45 1 1 1s1-.45 1-1v-7h7c.55 0 1-.45 1-1s-.45-1-1-1M4 7a1 1 0 1 0 0 2 1 1 0 1 0 0-2M4 3a1 1 0 1 0 0 2 1 1 0 1 0 0-2M8 3a1 1 0 1 0 0 2 1 1 0 1 0 0-2M4 19a1 1 0 1 0 0 2 1 1 0 1 0 0-2M4 15a1 1 0 1 0 0 2 1 1 0 1 0 0-2M20 7a1 1 0 1 0 0 2 1 1 0 1 0 0-2M20 3a1 1 0 1 0 0 2 1 1 0 1 0 0-2M20 19a1 1 0 1 0 0 2 1 1 0 1 0 0-2M20 15a1 1 0 1 0 0 2 1 1 0 1 0 0-2M16 19a1 1 0 1 0 0 2 1 1 0 1 0 0-2M8 19a1 1 0 1 0 0 2 1 1 0 1 0 0-2M16 3a1 1 0 1 0 0 2 1 1 0 1 0 0-2"/></svg>