<svg xmlns="http://www.w3.org/2000/svg" viewBox="0 0 24 24" width="24" height="24"><path d="m20,10c-.74,0-1.38.4-1.72,1h-5.28v-2h2.5c1.38,0,2.5-1.12,2.5-2.5v-.78c.6-.35,1-.98,1-1.72,0-1.1-.9-2-2-2s-2,.9-2,2c0,.74.4,1.38,1,1.72v.78c0,.28-.22.5-.5.5h-2.5v-2c0-1.65-1.35-3-3-3-1.3,0-2.41.83-2.83,2.01-1.78.17-3.17,1.67-3.17,3.49,0,.33.05.65.14.96-1.27.68-2.14,2.03-2.14,3.54,0,1.08.43,2.09,1.17,2.83-.11.38-.17.77-.17,1.17,0,1.96,1.41,3.59,3.31,3.93.55,1.23,1.8,2.07,3.19,2.07,1.93,0,3.5-1.57,3.5-3.5v-1.5h2.5c.28,0,.5.22.5.5v.78c-.6.35-1,.98-1,1.72,0,1.1.9,2,2,2s2-.9,2-2c0-.74-.4-1.38-1-1.72v-.78c0-1.38-1.12-2.5-2.5-2.5h-2.5v-2h5.28c.35.6.98,1,1.72,1,1.1,0,2-.9,2-2s-.9-2-2-2Zm-9,8.5c0,.83-.67,1.5-1.5,1.5-.71,0-1.33-.5-1.47-1.2-.09-.47-.55-.8-1.03-.8-1.1,0-2-.9-2-2,0-.35.08-.68.25-.98.26-.46.11-1.04-.33-1.33-.58-.38-.93-1.01-.93-1.69,0-.98.72-1.82,1.68-1.97.35-.05.65-.29.78-.62.13-.33.08-.71-.14-.99-.2-.26-.32-.59-.32-.92,0-.83.67-1.5,1.5-1.5.11,0,.21.01.31.03.29.06.59-.05.82-.24.23-.19.36-.5.36-.79,0-.55.45-1,1-1s1,.45,1,1v13.5Z"/></svg>