<svg xmlns="http://www.w3.org/2000/svg" width="24" height="24" viewBox="0 0 24 24"><path d="M16 2H8C5.79 2 4 3.79 4 6v14.14c0 .53.29 1.03.75 1.3s1.04.27 1.5 0l5.51-3.15c.15-.09.34-.09.5 0l5.51 3.15c.23.13.49.2.74.2s.52-.07.75-.2c.46-.27.75-.76.75-1.3V6c0-2.21-1.79-4-4-4Zm2 8v9.28l-4.76-2.72a2.52 2.52 0 0 0-2.48 0L6 19.28V6c0-1.1.9-2 2-2h8c1.1 0 2 .9 2 2z"/><path d="m12.2 7.59-.2.2-.2-.2c-.78-.78-2.02-.78-2.8 0s-.78 2.02 0 2.8l2.58 2.58c.23.23.61.23.85 0l2.58-2.58c.78-.78.78-2.02 0-2.8s-2.02-.78-2.8 0Z"/></svg>