<svg xmlns="http://www.w3.org/2000/svg" viewBox="0 0 24 24" width="24" height="24"><path d="M8 6A1 1 0 1 0 8 8 1 1 0 1 0 8 6z"/><path d="m20.84,16.46l-7.79-12.05c-1.03-1.51-2.73-2.41-4.55-2.41-3.03,0-5.5,2.47-5.5,5.5,0,0,0,0,0,.01-.6.46-1,1.17-1,1.99,0,.28.22.5.5.5h1.12c.69,1.32,1.89,2.34,3.37,2.77.2,1.65.99,5.22,4.01,6.63v1.6c0,.55.45,1,1,1s1-.45,1-1v-1.05c.27.03.55.05.85.05.41,0,.78-.04,1.15-.07v1.07c0,.55.45,1,1,1s1-.45,1-1v-1.4c1.22-.32,2.14-.78,2.75-1.17l.86,1.29c.31.46.93.58,1.39.28s.58-.93.28-1.39l-1.44-2.15Zm-7.13-7.35l4.62,7.14c-2.15.19-3.73-1-4.51-2.27-.75-1.23-1.11-3.09-.1-4.86Zm-4.79,2.79l-.03-.84-.84-.11c-1.74-.23-3.05-1.71-3.05-3.45,0-1.93,1.57-3.5,3.5-3.5,1.16,0,2.24.57,2.89,1.53l1.13,1.75h0c-1.77,2.31-1.93,5.27-.41,7.75.84,1.36,2.04,2.33,3.43,2.85-.51.08-1.07.13-1.69.13-4.47,0-4.89-5.08-4.93-6.1Z"/></svg>