<svg xmlns="http://www.w3.org/2000/svg" width="24" height="24" viewBox="0 0 24 24"><path d="M9 2C7.27 2 4 3.26 4 8c0 2.79-1.67 2.99-2.01 3-.08 0-.15.03-.23.05-.05.01-.11.01-.15.03-.07.03-.13.08-.2.13-.04.03-.09.05-.12.08-.06.06-.1.14-.15.22-.02.04-.05.06-.07.1A1.003 1.003 0 0 0 1.99 13c.08 0 2 .03 2 3 0 4.74 3.27 6 5 6a1 1 0 0 0 1-.99c0-.55-.44-1-.98-1.01C8.7 20 6 19.83 6 16c0-1.99-.67-3.25-1.5-4C5.34 11.25 6 9.99 6 8c0-3.83 2.7-3.99 3-4 .55 0 1-.45 1-1s-.45-1-1-1M23 12c0-.55-.45-1-1-1-.08 0-2-.03-2-3 0-4.74-3.27-6-5-6a1 1 0 0 0-1 .99c0 .55.44 1 .98 1.01.31 0 3.01.17 3.01 4 0 1.99.67 3.25 1.5 4-.84.75-1.5 2.01-1.5 4 0 3.83-2.7 3.99-3 4-.55 0-1 .45-1 1s.45 1 1 1c1.73 0 5-1.26 5-6 0-2.79 1.67-2.99 2.01-3 .08 0 .15-.03.22-.05.05-.01.11-.01.16-.03.07-.03.13-.08.19-.13.04-.03.09-.05.12-.08.06-.06.1-.14.14-.21.02-.04.05-.07.07-.1.05-.12.08-.25.08-.39Z"/></svg>