<svg xmlns="http://www.w3.org/2000/svg" width="24" height="24" viewBox="0 0 24 24"><path d="M19.03 4.97c-.25-.96-.84-1.79-1.7-2.34a3.985 3.985 0 0 0-4.46.1c-1.72 1.23-2.2 3.52-1.14 5.3l-3.71 3.71a3.977 3.977 0 0 0-5.3 1.15c-.93 1.31-.97 3.1-.08 4.46.55.85 1.38 1.44 2.33 1.69.25.95.84 1.78 1.69 2.33.65.43 1.41.64 2.17.64.81 0 1.61-.24 2.29-.72a3.98 3.98 0 0 0 1.15-5.3l3.71-3.71c1.78 1.05 4.07.58 5.3-1.14a3.985 3.985 0 0 0-2.24-6.16Zm.61 5c-.64.89-1.84 1.12-2.74.52a1.74 1.74 0 0 0-2.19.22l-4 4c-.58.58-.68 1.51-.22 2.19.6.9.37 2.11-.53 2.75-.64.46-1.55.47-2.21.04a1.98 1.98 0 0 1-.91-1.58c-.03-.51-.44-.92-.95-.95-.38-.02-1.1-.16-1.58-.91-.43-.66-.41-1.57.04-2.21.4-.56 1.02-.86 1.65-.86.38 0 .76.11 1.1.33.69.46 1.61.36 2.19-.22l4-4c.58-.58.68-1.51.22-2.19a1.996 1.996 0 0 1 2.73-2.79c.75.48.89 1.2.91 1.58.03.51.43.92.94.95.38.02 1.1.17 1.58.91.43.66.41 1.57-.05 2.21Z"/></svg>