<svg xmlns="http://www.w3.org/2000/svg" width="24" height="24" viewBox="0 0 24 24"><path d="M18.5 2h-12C4.57 2 3 3.57 3 5.5v14.69c0 .52.27 1 .71 1.28.45.28.99.3 1.46.07l4.6-2.3c.14-.07.31-.07.45 0l4.61 2.3c.21.11.44.16.67.16.27 0 .55-.08.79-.23.45-.28.71-.75.71-1.28V13h2.5a2.5 2.5 0 0 0 2.5-2.5v-5C22 3.57 20.43 2 18.5 2M15 19.38l-3.88-1.94a2.52 2.52 0 0 0-2.24 0L5 19.38V5.5C5 4.67 5.67 4 6.5 4h8.85c-.22.46-.35.96-.35 1.5zm5-8.88c0 .28-.22.5-.5.5H17V5.5c0-.83.67-1.5 1.5-1.5s1.5.67 1.5 1.5z"/></svg>