<svg xmlns="http://www.w3.org/2000/svg" width="24" height="24" viewBox="0 0 24 24"><path d="M18 4H9v.04c-1.08.15-2.07.73-2.71 1.63l-3.48 4.87c-.62.87-.62 2.04 0 2.91l3.48 4.87c.64.9 1.63 1.48 2.71 1.63v.04h9c2.21 0 4-1.79 4-4v-8c0-2.21-1.79-4-4-4Zm2 12c0 1.1-.9 2-2 2H9.54c-.64 0-1.25-.31-1.63-.84l-3.48-4.87a.51.51 0 0 1 0-.58l3.48-4.87c.37-.52.98-.84 1.63-.84H18c1.1 0 2 .9 2 2z"/><path d="M17.21 8.79a.996.996 0 0 0-1.41 0l-1.79 1.79-1.79-1.79a.996.996 0 1 0-1.41 1.41l1.79 1.79-1.79 1.79a.996.996 0 0 0 .71 1.7c.26 0 .51-.1.71-.29l1.79-1.79 1.79 1.79c.2.2.45.29.71.29s.51-.1.71-.29a.996.996 0 0 0 0-1.41l-1.79-1.79 1.79-1.79a.996.996 0 0 0 0-1.41Z"/></svg>