<svg xmlns="http://www.w3.org/2000/svg" viewBox="0 0 24 24" width="24" height="24"><path d="m15.21,6.79c-.39-.39-1.02-.39-1.41,0l-1.79,1.79-1.79-1.79c-.39-.39-1.02-.39-1.41,0s-.39,1.02,0,1.41l1.79,1.79-1.79,1.79c-.39.39-.39,1.02,0,1.41.2.2.45.29.71.29s.51-.1.71-.29l1.79-1.79,1.79,1.79c.2.2.45.29.71.29s.51-.1.71-.29c.39-.39.39-1.02,0-1.41l-1.79-1.79,1.79-1.79c.39-.39.39-1.02,0-1.41Z"/><path d="m16,2h-8c-2.21,0-4,1.79-4,4v14.14c0,.53.29,1.03.75,1.3.46.27,1.04.27,1.5,0l5.51-3.15c.15-.09.34-.09.5,0l5.51,3.15c.23.13.49.2.74.2s.52-.07.75-.2c.46-.27.75-.76.75-1.3V6c0-2.21-1.79-4-4-4Zm2,8v9.28l-4.76-2.72c-.77-.44-1.71-.43-2.48,0l-4.76,2.72V6c0-1.1.9-2,2-2h8c1.1,0,2,.9,2,2v4Z"/></svg>