<svg xmlns="http://www.w3.org/2000/svg" width="24" height="24" viewBox="0 0 24 24"><path d="M18.42 7.49a1.76 1.76 0 0 0-.8-1.42L12.7 2.9c-.54-.35-1.22-.37-1.79-.06-.56.31-.91.9-.91 1.54v5.04L6.4 6.79a.996.996 0 0 0-1.4.22.996.996 0 0 0 .22 1.4l4.78 3.5v.21l-4.78 3.5c-.45.33-.54.95-.22 1.4.33.45.95.54 1.4.22l3.6-2.63v5.04c0 .64.35 1.23.91 1.54a1.77 1.77 0 0 0 1.79-.07l4.92-3.17c.49-.31.79-.84.8-1.42s-.25-1.12-.72-1.47l-4.17-3.05 4.17-3.05c.47-.34.73-.89.72-1.47m-2.19 8.96L12 19.17v-5.81zM12 10.65V4.84l4.23 2.72z"/></svg>