<svg xmlns="http://www.w3.org/2000/svg" width="24" height="24" viewBox="0 0 24 24"><path d="m8.81 4.21.32-.16c.49-.25.69-.85.45-1.34a1.01 1.01 0 0 0-1.34-.45l-.32.16A10.75 10.75 0 0 0 3.6 6.37C2.55 8.06 2 10.01 2 12s.55 3.94 1.6 5.63a10.75 10.75 0 0 0 4.32 3.95l.32.16a1.007 1.007 0 0 0 1.35-.44.993.993 0 0 0-.45-1.34l-.32-.16a8.6 8.6 0 0 1-3.51-3.21 8.72 8.72 0 0 1 0-9.16 8.7 8.7 0 0 1 3.51-3.21ZM16.08 2.42l-.32-.16c-.5-.25-1.09-.05-1.34.45s-.05 1.09.45 1.34l.32.16c1.45.72 2.66 1.83 3.51 3.21a8.72 8.72 0 0 1 0 9.16 8.7 8.7 0 0 1-3.51 3.21l-.32.16c-.49.25-.69.85-.45 1.34a1.007 1.007 0 0 0 1.35.44l.32-.16a10.75 10.75 0 0 0 4.32-3.95c1.05-1.69 1.6-3.64 1.6-5.63s-.55-3.94-1.6-5.63a10.75 10.75 0 0 0-4.32-3.95Z"/></svg>