<svg xmlns="http://www.w3.org/2000/svg" viewBox="0 0 24 24" width="24" height="24"><path d="m15,9h-2v-2c0-.55-.45-1-1-1s-1,.45-1,1v2h-2c-.55,0-1,.45-1,1s.45,1,1,1h2v2c0,.55.45,1,1,1s1-.45,1-1v-2h2c.55,0,1-.45,1-1s-.45-1-1-1Z"/><path d="m16,2h-8c-2.21,0-4,1.79-4,4v14.14c0,.53.29,1.03.75,1.3.46.27,1.03.27,1.5,0l5.51-3.15c.15-.09.34-.09.5,0l5.51,3.15c.23.13.49.2.74.2s.52-.07.75-.2c.46-.27.75-.77.75-1.3V6c0-2.21-1.79-4-4-4Zm2,8v9.28l-4.76-2.72c-.77-.44-1.72-.44-2.48,0l-4.76,2.72V6c0-1.1.9-2,2-2h8c1.1,0,2,.9,2,2v4Z"/></svg>