<svg xmlns="http://www.w3.org/2000/svg" viewBox="0 0 24 24" width="24" height="24"><path d="m21.1,6.91L12.85,2.33c-.53-.29-1.17-.29-1.7,0L2.9,6.91c-.56.31-.9.89-.9,1.53v1.81c0,.96.79,1.75,1.75,1.75h1.25v4h-1.25c-.96,0-1.75.79-1.75,1.75v2.5c0,.96.79,1.75,1.75,1.75h16.5c.96,0,1.75-.79,1.75-1.75v-2.5c0-.96-.79-1.75-1.75-1.75h-1.25v-4h1.25c.96,0,1.75-.79,1.75-1.75v-1.81c0-.64-.34-1.22-.9-1.53Zm-14.1,5.09h2v4h-2v-4Zm6,0v4h-2v-4h2Zm7,6v2H4v-2h16Zm-3-2h-2v-4h2v4Zm3-6H4v-1.41l8-4.44,8,4.44v1.41Z"/><path d="M12 6A1.5 1.5 0 1 0 12 9 1.5 1.5 0 1 0 12 6z"/></svg>