<svg xmlns="http://www.w3.org/2000/svg" viewBox="0 0 24 24" width="24" height="24"><path d="m19,6h-1v-1c0-1.1-.9-2-2-2H4c-1.1,0-2,.9-2,2v11c0,2.76,2.24,5,5,5h6c2.41,0,4.43-1.72,4.9-4h1.1c1.65,0,3-1.35,3-3v-5c0-1.65-1.35-3-3-3Zm-3,10c0,1.65-1.35,3-3,3h-6c-1.65,0-3-1.35-3-3V5h12v11Zm4-2c0,.55-.45,1-1,1h-1v-7h1c.55,0,1,.45,1,1v5Z"/><path d="m7,16c.55,0,1-.45,1-1v-7c0-.55-.45-1-1-1s-1,.45-1,1v7c0,.55.45,1,1,1Z"/><path d="m13,16c.55,0,1-.45,1-1v-7c0-.55-.45-1-1-1s-1,.45-1,1v7c0,.55.45,1,1,1Z"/></svg>