<svg xmlns="http://www.w3.org/2000/svg" width="24" height="24" viewBox="0 0 24 24"><path d="M7 17c-.55 0-1 .45-1 1s.45 1 1 1h3v1.5c0 .28.22.5.5.5s.5-.22.5-.5V19h2v1.5c0 .28.22.5.5.5s.5-.22.5-.5V19h.31c2.09 0 3.97-1.53 4.17-3.61.14-1.48-.54-2.8-1.62-3.6.66-.68 1.09-1.6 1.14-2.61.1-2.22-1.79-4.04-4-4.15V3.51c0-.28-.22-.5-.5-.5s-.5.22-.5.5v1.5h-2v-1.5c0-.28-.22-.5-.5-.5s-.5.22-.5.5v1.5H7c-.55 0-1 .45-1 1s.45 1 1 1h1v10H7Zm3-10h4c1.1 0 2 .9 2 2s-.9 2-2 2h-4zm0 6h4.5c1.1 0 2 .9 2 2s-.9 2-2 2H10z"/></svg>