<svg xmlns="http://www.w3.org/2000/svg" width="24" height="24" viewBox="0 0 24 24"><path d="M7 19.66v.59c0 .96.79 1.75 1.75 1.75h6.5c.96 0 1.75-.79 1.75-1.75v-.59a9.99 9.99 0 0 0 4.96-7.72c.05-.5-.12-1-.45-1.37-.33-.36-.8-.57-1.29-.57H3.79c-.49 0-.96.21-1.29.57-.34.37-.5.87-.45 1.37.3 3.22 2.15 6.1 4.96 7.72ZM19.94 12a8 8 0 0 1-4.03 5.98c-.56.31-.9.9-.9 1.52v.5h-6v-.5c0-.63-.35-1.21-.9-1.53a7.98 7.98 0 0 1-4.03-5.98h15.88ZM8.19 3.95C8.07 3.64 8 3.31 8 2.97c0-.55-.45-1-1-1s-1 .45-1 1a4.586 4.586 0 0 0 1.28 3.19c.23.24.41.52.53.83s.19.64.19.98c0 .55.45 1 1 1s1-.45 1-1a4.586 4.586 0 0 0-1.28-3.19c-.23-.24-.41-.52-.53-.83M12.19 3.95c-.12-.31-.19-.64-.19-.98 0-.55-.45-1-1-1s-1 .45-1 1a4.586 4.586 0 0 0 1.28 3.19c.23.24.41.52.53.83s.19.64.19.98c0 .55.45 1 1 1s1-.45 1-1a4.586 4.586 0 0 0-1.28-3.19c-.23-.24-.41-.52-.53-.83M16.19 3.95c-.12-.31-.19-.64-.19-.98 0-.55-.45-1-1-1s-1 .45-1 1a4.586 4.586 0 0 0 1.28 3.19c.23.24.41.52.53.83s.19.64.19.98c0 .55.45 1 1 1s1-.45 1-1a4.586 4.586 0 0 0-1.28-3.19c-.23-.24-.41-.52-.53-.83"/></svg>