<svg xmlns="http://www.w3.org/2000/svg" viewBox="0 0 24 24" width="24" height="24"><path d="m21,3c-1.4,0-2.58,1.17-2.71,1.29l-1.29,1.29-.23-.23c-.47-.47-1.1-.73-1.77-.73,0,0,0,0,0,0-.67,0-1.3.26-1.77.74l-.07.07c-.99-.33-2.03-.47-3.09-.42-4.41.22-7.96,3.85-8.07,8.26-.06,2.36.82,4.57,2.49,6.24,1.61,1.61,3.74,2.49,6.01,2.49.08,0,.15,0,.23,0,4.42-.12,8.05-3.66,8.26-8.07.05-1.06-.09-2.09-.42-3.08l.07-.07c.97-.97.97-2.56,0-3.54l-.23-.23,1.3-1.3c.23-.23.84-.7,1.29-.7.55,0,1-.45,1-1s-.45-1-1-1Zm-3.77,6.35l-.53.53c-.29.29-.37.72-.21,1.1.38.91.55,1.86.5,2.85-.16,3.32-3,6.08-6.32,6.17-1.81.05-3.5-.63-4.77-1.9-1.27-1.27-1.95-2.97-1.9-4.77.09-3.32,2.86-6.15,6.17-6.32.11,0,.22,0,.33,0,.87,0,1.72.17,2.52.51.37.15.83.07,1.11-.22l.52-.52c.13-.13.28-.15.35-.15.07.02.23.02.35.15l1.88,1.88c.19.19.19.51,0,.71Z"/><path d="m10.5,9c-2.48,0-4.5,2.02-4.5,4.5,0,.55.45,1,1,1s1-.45,1-1c0-1.38,1.12-2.5,2.5-2.5.55,0,1-.45,1-1s-.45-1-1-1Z"/></svg>