<svg xmlns="http://www.w3.org/2000/svg" viewBox="0 0 24 24" width="24" height="24"><path d="M16 3h-4c-.55 0-1 .45-1 1s.45 1 1 1h4c1.65 0 3 1.35 3 3v4c0 .55.45 1 1 1s1-.45 1-1V8c0-2.76-2.24-5-5-5"/><path d="M4 7A1 1 0 1 0 4 9 1 1 0 1 0 4 7z"/><path d="M4 3A1 1 0 1 0 4 5 1 1 0 1 0 4 3z"/><path d="M8 3A1 1 0 1 0 8 5 1 1 0 1 0 8 3z"/><path d="M4 19A1 1 0 1 0 4 21 1 1 0 1 0 4 19z"/><path d="M4 15A1 1 0 1 0 4 17 1 1 0 1 0 4 15z"/><path d="M4 11A1 1 0 1 0 4 13 1 1 0 1 0 4 11z"/><path d="M16 19A1 1 0 1 0 16 21 1 1 0 1 0 16 19z"/><path d="M20 19A1 1 0 1 0 20 21 1 1 0 1 0 20 19z"/><path d="M20 15A1 1 0 1 0 20 17 1 1 0 1 0 20 15z"/><path d="M8 19A1 1 0 1 0 8 21 1 1 0 1 0 8 19z"/><path d="M12 19A1 1 0 1 0 12 21 1 1 0 1 0 12 19z"/></svg>