<svg xmlns="http://www.w3.org/2000/svg" width="24" height="24" viewBox="0 0 24 24"><path d="M19.86 6.49a.93.93 0 0 0-.36-.35l-7-4a.98.98 0 0 0-.99 0l-7 4c-.15.08-.27.21-.36.35l-3 5c-.28.47-.13 1.09.34 1.37s1.09.13 1.37-.34l.14-.24V21c0 .55.45 1 1 1h16c.55 0 1-.45 1-1v-8.72l.14.24c.19.31.52.49.86.49a.995.995 0 0 0 .85-1.51l-3-5ZM11.24 17.5 9 19.46v-3.92zm.76.66L14.1 20H9.9zm3-2.62v3.92l-2.24-1.96zm-3 1.3L9.9 15h4.2zM19 9v11h-2v-4.5a2.5 2.5 0 0 0-2.5-2.5h-5A2.5 2.5 0 0 0 7 15.5V20H5V9h-.03l.76-1.26 6.28-3.59 6.28 3.59.76 1.26h-.03Z"/><path d="M12 7a2 2 0 1 0 0 4 2 2 0 1 0 0-4"/></svg>