<svg xmlns="http://www.w3.org/2000/svg" viewBox="0 0 24 24" width="24" height="24"><path d="m21.09,7.33c1.22-1.22,1.22-3.2,0-4.41-1.22-1.22-3.2-1.22-4.41,0L7.8,11.78c-.71.06-1.41.27-2.01.64-1.17.72-1.81,1.89-1.81,3.29,0,.3.02.59.04.86.08,1.03.11,1.42-1.47,2.21-.32.16-.53.47-.55.82-.02.35.14.69.43.89,1,.69,2.76,1.49,4.62,1.49,1.35,0,2.74-.42,3.92-1.6,1.12-1.12,1.71-2.85,1.55-4.49l8.56-8.56Zm-3-3c.44-.44,1.15-.44,1.59,0s.44,1.15,0,1.58l-7.86,7.86c-.4-.63-.96-1.15-1.65-1.52l7.92-7.92Zm-8.53,14.64c-1.44,1.44-3.31,1.1-4.58.61,1.09-.98,1.13-1.99,1.04-3.16-.02-.22-.04-.46-.04-.71,0-.7.29-1.23.86-1.59.68-.42,1.66-.49,2.31-.16.65.32.99.81,1.18,1.28l-.05.05.1.1c.05.16.09.32.12.47.18,1.09-.22,2.37-.96,3.11Z"/><path d="m2.52,6.8l1.24.55c.4.18.72.5.9.9l.54,1.22c.14.32.46.53.81.53s.67-.21.81-.53l.54-1.22c.18-.4.5-.72.9-.9l1.22-.54c.32-.14.52-.46.52-.81s-.21-.67-.52-.81l-1.22-.54c-.4-.18-.72-.5-.9-.9l-.55-1.23c-.14-.32-.45-.52-.8-.53h0c-.34,0-.66.2-.8.51,0,0,0,0,0,0l-.55,1.2c-.17.37-.47.68-.84.85l-1.32.63c-.31.15-.51.46-.5.81,0,.35.21.65.52.8Z"/><path d="m21.61,18.4l-.91-.41c-.3-.13-.54-.37-.67-.67l-.41-.92c-.11-.24-.34-.39-.6-.39h0c-.26,0-.49.15-.6.39,0,0,0,0,0,0l-.41.9c-.13.28-.35.51-.63.64l-.99.48c-.24.11-.38.35-.38.61,0,.26.15.49.39.6l.93.41c.3.13.54.37.67.67l.41.91c.11.24.34.39.61.39s.5-.16.61-.39l.41-.91c.13-.3.37-.54.67-.67l.91-.41c.24-.11.39-.34.39-.61s-.15-.5-.39-.61Z"/></svg>