<svg xmlns="http://www.w3.org/2000/svg" viewBox="0 0 24 24" width="24" height="24"><path d="m15.09,4.16l6.05-.85c.55-.08.93-.58.85-1.13-.08-.55-.59-.93-1.13-.85L2.86,3.87c-.55.08-.93.58-.85,1.13.07.5.5.86.99.86.05,0,.09,0,.14,0l1.52-.21s-.01.07-.01.11c0,.79.36,1.23.57,1.5q.13.16.13.25t-.13.25c-.21.27-.57.71-.57,1.5,0,.3.06.54.14.75h-1c-.49,0-.96.21-1.29.57-.34.37-.5.87-.45,1.37.3,3.22,2.15,6.1,4.96,7.72v.59c0,.96.79,1.75,1.75,1.75h6.5c.96,0,1.75-.79,1.75-1.75v-.59c2.81-1.62,4.66-4.5,4.96-7.72.05-.5-.12-1-.45-1.37-.33-.36-.8-.57-1.29-.57h-5.03c-.13-.27-.29-.48-.4-.62-.17-.21-.18-.23-.18-.38s.02-.17.18-.38c.23-.29.62-.77.62-1.63s-.39-1.33-.62-1.62c-.17-.21-.18-.23-.18-.37s.02-.17.18-.37c.09-.11.21-.27.31-.46Zm-8.31,5.34q-.13-.16-.13-.25,0-.09.13-.25c.21-.27.57-.71.57-1.5s-.36-1.23-.57-1.5q-.13-.16-.13-.25,0-.08.13-.25c.04-.05.09-.12.14-.18l1.69-.24c.03.8.39,1.26.61,1.54.17.21.18.23.18.37s-.02.17-.18.38c-.23.29-.62.77-.62,1.62,0,.42.09.74.22,1h-1.7c-.11-.21-.24-.38-.33-.5Zm9.12,8.48c-.56.31-.9.9-.9,1.52v.5h-6v-.5c0-.63-.35-1.21-.9-1.53-2.23-1.25-3.72-3.47-4.03-5.98h15.88c-.31,2.51-1.81,4.73-4.03,5.98Zm-4.72-7.98c-.13-.27-.29-.48-.4-.62-.17-.21-.18-.23-.18-.38s.02-.17.18-.38c.23-.29.62-.77.62-1.63s-.39-1.33-.62-1.62c-.17-.21-.18-.23-.18-.37,0-.09.01-.14.06-.21l2-.28c-.03.15-.05.31-.05.49,0,.85.39,1.33.62,1.62.17.21.18.23.18.37s-.02.17-.18.38c-.23.29-.62.77-.62,1.62,0,.42.09.74.22,1h-1.63Z"/></svg>