<svg xmlns="http://www.w3.org/2000/svg" width="24" height="24" viewBox="0 0 24 24"><path d="M17 5h-4V3c0-.55-.45-1-1-1s-1 .45-1 1v2H7c-2.76 0-5 2.24-5 5v8.5A2.5 2.5 0 0 0 4.5 21h15a2.5 2.5 0 0 0 2.5-2.5V10c0-2.76-2.24-5-5-5M7 7h10c1.65 0 3 1.35 3 3v1.12c-.9.23-1.47.73-1.92 1.13-.51.45-.84.75-1.59.75s-1.08-.3-1.59-.75c-.59-.53-1.41-1.25-2.92-1.25s-2.32.72-2.91 1.25c-.51.45-.84.75-1.59.75s-1.08-.3-1.58-.75c-.45-.4-1.02-.9-1.91-1.13V10c0-1.65 1.35-3 3-3Zm12.5 12h-15c-.28 0-.5-.22-.5-.5v-5.21c.19.12.37.27.58.46.59.53 1.41 1.25 2.91 1.25s2.32-.72 2.91-1.25c.51-.45.84-.75 1.59-.75s1.08.3 1.59.75c.59.53 1.41 1.25 2.92 1.25s2.32-.72 2.92-1.25c.21-.19.39-.34.59-.46v5.22c0 .28-.22.5-.5.5Z"/></svg>