<svg xmlns="http://www.w3.org/2000/svg" viewBox="0 0 24 24" width="24" height="24"><path d="m18,2h-8c-1.65,0-3,1.35-3,3v4.59l-4.71,4.71c-.29.29-.37.72-.22,1.09s.52.62.92.62v3.5c0,1.38,1.12,2.5,2.5,2.5h14.5c.55,0,1-.45,1-1V5c0-1.65-1.35-3-3-3Zm-7,18h-5.5c-.28,0-.5-.22-.5-.5v-5.09l3-3,3,3v5.59Zm8,0h-6v-4c.4,0,.77-.24.92-.62s.07-.8-.22-1.09l-4.71-4.71v-4.59c0-.55.45-1,1-1h8c.55,0,1,.45,1,1v15Z"/><rect x="11" y="6" width="2" height="2" rx=".5" ry=".5"/><rect x="15" y="6" width="2" height="2" rx=".5" ry=".5"/><rect x="15" y="10.03" width="2" height="1.97" rx=".5" ry=".5"/><rect x="7" y="15" width="2" height="2" rx=".5" ry=".5"/></svg>