<svg xmlns="http://www.w3.org/2000/svg" viewBox="0 0 24 24" width="24" height="24"><path d="m16,6.09v-.09c0-2.21-1.79-4-4-4s-4,1.79-4,4v.09c-2.83.48-5,2.94-5,5.91v7c0,1.65,1.35,3,3,3h12c1.65,0,3-1.35,3-3v-7c0-2.97-2.17-5.43-5-5.91Zm-4-2.09c1.1,0,2,.9,2,2h-4c0-1.1.9-2,2-2Zm7,15c0,.55-.45,1-1,1H6c-.55,0-1-.45-1-1v-7c0-2.21,1.79-4,4-4h6c2.21,0,4,1.79,4,4v7Z"/><path d="m14.93,12.73l-1.65-.14-.83-1.68c-.18-.37-.71-.37-.9,0l-.83,1.68-1.65.14c-.42.04-.61.55-.31.85l1.36,1.36-.53,1.72c-.14.45.36.82.76.56l1.66-1.1,1.66,1.1c.39.26.89-.11.76-.56l-.53-1.72,1.36-1.36c.3-.3.11-.82-.31-.85Z"/></svg>