<svg xmlns="http://www.w3.org/2000/svg" viewBox="0 0 24 24" width="24" height="24"><path d="m11.65,5.65c.2.2.51.2.71,0l2.79-2.79c.32-.32.09-.85-.35-.85h-5.59c-.45,0-.67.54-.35.85l2.79,2.79Z"/><path d="m19,7h-3c-1.65,0-3,1.35-3,3v9c0,1.65,1.35,3,3,3h3c1.65,0,3-1.35,3-3v-9c0-1.65-1.35-3-3-3Zm1,12c0,.55-.45,1-1,1h-3c-.55,0-1-.45-1-1v-9c0-.55.45-1,1-1h3c.55,0,1,.45,1,1v9Z"/><path d="m5,22h3c1.65,0,3-1.35,3-3v-9c0-1.65-1.35-3-3-3h-3c-1.65,0-3,1.35-3,3v9c0,1.65,1.35,3,3,3Zm-1-12c0-.55.45-1,1-1h3c.55,0,1,.45,1,1v9c0,.55-.45,1-1,1h-3c-.55,0-1-.45-1-1v-9Z"/></svg>