<svg xmlns="http://www.w3.org/2000/svg" width="24" height="24" viewBox="0 0 24 24"><path d="M21 8c-.55 0-1 .45-1 1v1h-2V6c.55 0 1-.45 1-1V3c0-.55-.45-1-1-1s-1 .45-1 1v1h-1V3c0-.55-.45-1-1-1s-1 .45-1 1v1h-1V3c0-.55-.45-1-1-1s-1 .45-1 1v1h-1V3c0-.55-.45-1-1-1s-1 .45-1 1v1H7V3c0-.55-.45-1-1-1s-1 .45-1 1v2c0 .55.45 1 1 1v4H4V9c0-.55-.45-1-1-1s-1 .45-1 1v12c0 .55.45 1 1 1h6c.55 0 1-.45 1-1v-3c0-1.1.9-2 2-2s2 .9 2 2v3c0 .55.45 1 1 1h6c.55 0 1-.45 1-1V9c0-.55-.45-1-1-1m-5-2v4H8V6zm4 14h-4v-2c0-2.21-1.79-4-4-4s-4 1.79-4 4v2H4v-8h16z"/></svg>