<svg xmlns="http://www.w3.org/2000/svg" viewBox="0 0 24 24" width="24" height="24"><path d="m19.45,12.19l-1.05-3.14c-.41-1.23-1.55-2.05-2.85-2.05h-7.12c-1.29,0-2.44.82-2.85,2.05l-1.05,3.14c-.91.38-1.55,1.27-1.55,2.31v2c0,.81.4,1.53,1,1.99v2.51c0,.55.45,1,1,1h1c.55,0,1-.45,1-1v-2h10v2c0,.55.45,1,1,1h1c.55,0,1-.45,1-1v-2.51c.6-.46,1-1.17,1-1.99v-2c0-1.04-.64-1.93-1.55-2.31Zm-14.45,4.31v-2c0-.28.22-.5.5-.5h13c.28,0,.5.22.5.5v2c0,.28-.22.5-.5.5H5.5c-.28,0-.5-.22-.5-.5Zm3.44-7.5h7.12c.43,0,.81.27.95.68l.77,2.32H6.72l.77-2.32c.14-.41.52-.68.95-.68Z"/><path d="m3.89,6.61l.41.93c.12.28.4.46.7.46s.58-.18.7-.46l.41-.93c.1-.22.27-.39.49-.49l.93-.41c.28-.12.46-.4.46-.71s-.18-.58-.46-.71l-.93-.41c-.22-.1-.39-.27-.49-.49l-.42-.94c-.12-.28-.4-.46-.7-.46h0c-.3,0-.57.18-.7.45h0s-.42.91-.42.91c-.09.2-.26.37-.46.46l-.99.48c-.27.13-.44.41-.44.71,0,.3.18.57.46.69l.94.42c.22.1.39.27.49.49Z"/><path d="m14.88,4.68c.2.09.36.25.45.45l.27.61c.07.16.23.26.4.26s.33-.1.4-.26l.27-.61c.09-.2.25-.36.45-.45l.61-.27c.16-.07.26-.23.26-.4s-.1-.33-.26-.4l-.61-.27c-.2-.09-.36-.25-.45-.45l-.27-.62c-.07-.16-.22-.26-.4-.26h0c-.17,0-.33.1-.4.26,0,0,0,0,0,0l-.28.6c-.09.19-.23.34-.42.43l-.66.32c-.16.08-.25.23-.25.41,0,.17.1.33.26.4l.62.28Z"/><path d="m21.74,5.6l-.61-.27c-.2-.09-.36-.25-.45-.45l-.27-.62c-.07-.16-.22-.26-.4-.26h0c-.17,0-.33.1-.4.26,0,0,0,0,0,0l-.28.6c-.09.19-.23.34-.42.43l-.66.32c-.16.08-.25.23-.25.41,0,.17.1.33.26.4l.62.28c.2.09.36.25.45.45l.27.61c.07.16.23.26.4.26s.33-.1.4-.26l.27-.61c.09-.2.25-.36.45-.45l.61-.27c.16-.07.26-.23.26-.4s-.1-.33-.26-.4Z"/><path d="M7 14.5A1 1 0 1 0 7 16.5 1 1 0 1 0 7 14.5z"/><path d="M17 14.5A1 1 0 1 0 17 16.5 1 1 0 1 0 17 14.5z"/></svg>