<svg xmlns="http://www.w3.org/2000/svg" width="24" height="24" viewBox="0 0 24 24"><path d="M18 5h-.59l-2.27-2.27c-.47-.47-1.11-.73-1.77-.73h-2.76c-.66 0-1.3.27-1.77.73L6.57 5h-.59c-2.21 0-4 1.79-4 4v7c0 2.21 1.79 4 4 4h12c2.21 0 4-1.79 4-4V9c0-2.21-1.79-4-4-4Zm2 11c0 1.1-.9 2-2 2H6c-1.1 0-2-.9-2-2V9c0-1.1.9-2 2-2h1c.27 0 .52-.11.71-.29l2.56-2.56a.5.5 0 0 1 .35-.15h2.76c.13 0 .26.05.35.15l2.56 2.56c.19.19.44.29.71.29h1c1.1 0 2 .9 2 2z"/><path d="M13.4 13.4c-.09.09-.19.18-.3.25s-.22.14-.34.19-.24.09-.37.12c-.26.05-.53.05-.78 0-.13-.03-.25-.07-.37-.12s-.23-.12-.34-.19-.21-.16-.3-.25-.18-.19-.25-.3c-.06-.09-.11-.19-.16-.29l.39-.39a.25.25 0 0 0-.18-.43H8.25c-.14 0-.25.11-.25.25v2.15c0 .22.27.33.43.18l.3-.3c.14.19.28.38.45.55.18.18.38.34.59.49s.44.27.68.37q.36.15.75.24c.26.06.53.08.8.08s.54-.03.8-.08q.375-.075.75-.24c.23-.1.46-.23.68-.37.21-.14.41-.31.59-.49a.996.996 0 1 0-1.41-1.41ZM15.57 9.43l-.3.3c-.14-.19-.28-.38-.45-.55-.18-.18-.38-.34-.59-.49a3.4 3.4 0 0 0-.68-.37q-.36-.15-.75-.24c-.53-.11-1.07-.11-1.61 0q-.375.075-.75.24c-.23.1-.46.23-.68.37-.21.14-.41.31-.59.49a.996.996 0 1 0 1.41 1.41c.09-.09.19-.18.3-.25s.22-.14.34-.19.24-.09.37-.12c.26-.05.53-.05.78 0 .13.03.25.07.37.12s.23.12.34.19.21.16.3.25.18.19.25.3c.06.09.11.19.16.29l-.39.39a.25.25 0 0 0 .18.43h2.15c.14 0 .25-.11.25-.25V9.6c0-.22-.27-.33-.43-.18Z"/></svg>