<svg xmlns="http://www.w3.org/2000/svg" viewBox="0 0 24 24" width="24" height="24"><path d="m20,14c-.09.07-2,2.08-2,3.5,0,1.49.95,2.45,2,2.5.91.04,2-.89,2-2.5,0-1.5-1.91-3.43-2-3.5Z"/><path d="m4.24,13c0,1.07.42,2.07,1.17,2.83l2.76,2.76c.78.78,1.8,1.17,2.83,1.17s2.05-.39,2.83-1.17l4.88-4.88c.39-.39.39-1.02,0-1.41l-7-7-2.29-2.29c-.39-.39-1.02-.39-1.41,0-.39.39-.39,1.02,0,1.41l1.59,1.59-4.17,4.17c-.76.75-1.17,1.76-1.17,2.83Zm2.59-1.41l4.17-4.17,5.59,5.59-4.17,4.17c-.78.78-2.05.78-2.83,0l-2.76-2.76c-.38-.38-.59-.88-.59-1.41s.21-1.04.59-1.41Z"/></svg>