<svg xmlns="http://www.w3.org/2000/svg" viewBox="0 0 24 24" width="24" height="24"><path d="m21.8,9c-.13-1.22-.32-2.34-.56-3.32-.25-1.01-.56-1.82-.9-2.41-.62-1.05-1.34-1.28-1.83-1.28s-1.21.22-1.83,1.28c-.34.58-.64,1.37-.89,2.36-2.4-.83-5.16-.83-7.55,0-.25-.99-.55-1.78-.89-2.36-.62-1.05-1.34-1.28-1.83-1.28s-1.21.22-1.83,1.28c-.35.59-.65,1.4-.9,2.41-.24.98-.43,2.09-.56,3.32-.19,1.85-.2,4.07-.2,4.5,0,1.44.43,2.79,1.17,3.98l-.85.85c-.1.1-.1.26,0,.35.05.05.11.07.18.07s.13-.02.18-.07l.78-.78c.31.44.67.85,1.06,1.23l-.7.7c-.1.1-.1.26,0,.35.05.05.11.07.18.07s.13-.02.18-.07l.71-.71c1.81,1.56,4.33,2.53,7.11,2.53s5.3-.97,7.11-2.53l.71.71s.11.07.18.07.13-.02.18-.07c.1-.1.1-.26,0-.35l-.7-.7c.4-.38.75-.79,1.06-1.23l.78.78s.11.07.18.07.13-.02.18-.07c.1-.1.1-.26,0-.35l-.85-.85c.74-1.19,1.17-2.54,1.17-3.98,0-.43,0-2.65-.2-4.5h0Zm-3.48,6.67l.79.79c-.29.45-.63.87-1.04,1.26l-.9-.9c-.1-.1-.26-.1-.35,0s-.1.26,0,.35l.88.88c-1.45,1.2-3.47,1.95-5.7,1.95s-4.25-.75-5.7-1.95l.88-.88c.1-.1.1-.26,0-.35s-.26-.1-.35,0l-.9.9c-.4-.38-.75-.8-1.04-1.26l.79-.79c.1-.1.1-.26,0-.35s-.26-.1-.35,0l-.7.7c-.4-.78-.63-1.63-.63-2.52,0-.41,0-2.54.19-4.29.12-1.11.29-2.17.51-3.04.26-1.03.51-1.59.69-1.88.04-.07.08-.13.11-.17.03.04.07.1.11.17.17.29.43.85.69,1.88.08.32.15.67.22,1.03l.24,1.28,1.18-.57c2.47-1.19,5.66-1.19,8.13,0l1.18.57.24-1.29c.07-.36.14-.71.22-1.03.26-1.03.51-1.59.69-1.88.04-.07.08-.13.11-.17.03.04.07.1.11.17.17.29.43.85.69,1.88.22.87.4,1.92.51,3.04.18,1.75.19,3.88.19,4.29,0,.89-.22,1.74-.63,2.52l-.7-.7c-.1-.1-.26-.1-.35,0s-.1.26,0,.35Z"/><path d="M16.5 11A1.5 1.5 0 1 0 16.5 14 1.5 1.5 0 1 0 16.5 11z"/><path d="M7.5 11A1.5 1.5 0 1 0 7.5 14 1.5 1.5 0 1 0 7.5 11z"/><path d="m14.21,16.71c-.38.38-1.04.38-1.41,0-.19-.19-.29-.44-.29-.71,0-.03.01-.05.02-.08.85-.25,1.48-1.08,1.48-1.92,0-.55-.9-1-2-1s-2,.45-2,1c0,.84.63,1.67,1.48,1.92,0,.03.02.05.02.08,0,.27-.1.52-.29.71-.38.38-1.04.38-1.41,0-.2-.2-.51-.2-.71,0s-.2.51,0,.71c.38.38.88.59,1.41.59s1.04-.21,1.41-.59c.03-.03.06-.07.09-.1.03.03.05.07.09.1.38.38.88.59,1.41.59s1.04-.21,1.41-.59c.2-.2.2-.51,0-.71s-.51-.2-.71,0Z"/></svg>