<svg xmlns="http://www.w3.org/2000/svg" viewBox="0 0 24 24" width="24" height="24"><path d="m16.5,5.33c-.69-.92-1.91-1.25-2.97-.81l-.61.25c-.33-1.59-1.74-2.78-3.42-2.78-1.93,0-3.5,1.57-3.5,3.5,0,.7.21,1.36.59,1.93l-3.05,1.27c-.94.38-1.54,1.29-1.54,2.3v5.73c0,1.23.88,2.26,2.09,2.47l15,2.5c.14.02.27.03.41.03.59,0,1.17-.21,1.62-.6.56-.47.88-1.17.88-1.9v-5.73c0-.53-.17-1.06-.5-1.5l-5-6.67Zm-2.19,1.04c.21-.09.45-.03.59.16l4.23,5.65-13.39-2.23,2.67-1.11c.07.02.13.03.2.05.06.02.12.03.18.04.23.05.46.08.7.08.18,0,.35-.02.53-.04.06,0,.11-.02.17-.04.11-.02.22-.05.33-.08.07-.02.13-.05.2-.07.09-.03.19-.07.28-.11.07-.03.14-.07.2-.11.08-.04.16-.09.23-.14.07-.05.14-.09.2-.15.06-.05.13-.1.19-.16.07-.06.13-.12.19-.18.05-.05.1-.11.15-.17.06-.07.12-.14.18-.22.04-.06.08-.13.12-.19.05-.08.1-.16.14-.24,0,0,.01-.02.02-.03l1.69-.7Zm-4.81-2.37c.83,0,1.5.67,1.5,1.5,0,.16-.03.33-.09.49-.22.67-.94,1.06-1.61.98-.15-.02-.31-.05-.45-.12-.51-.25-.84-.78-.84-1.35,0-.83.67-1.5,1.5-1.5Zm10.33,15.61c-.07.06-.21.15-.41.11l-15-2.5c-.24-.04-.41-.25-.41-.49v-5.05l16,2.67v1.97l-12.85-2.14c-.54-.09-1.06.28-1.15.82-.09.54.28,1.06.82,1.15l13.18,2.2v.88c0,.2-.11.32-.17.38Z"/></svg>