<svg xmlns="http://www.w3.org/2000/svg" viewBox="0 0 24 24" width="24" height="24"><path d="m17,2H7c-2.21,0-4,1.79-4,4v12c0,2.21,1.79,4,4,4h10c2.21,0,4-1.79,4-4V6c0-2.21-1.79-4-4-4ZM5,6c0-1.1.9-2,2-2h10c1.1,0,2,.9,2,2v5H5v-5Zm12,14H7c-1.1,0-2-.9-2-2v-5h14v5c0,1.1-.9,2-2,2Z"/><path d="m15,6c-.55,0-1,.45-1,1h-4c0-.55-.45-1-1-1s-1,.45-1,1v1c0,.55.45,1,1,1h6c.55,0,1-.45,1-1v-1c0-.55-.45-1-1-1Z"/><path d="m15,15c-.55,0-1,.45-1,1h-4c0-.55-.45-1-1-1s-1,.45-1,1v1c0,.55.45,1,1,1h6c.55,0,1-.45,1-1v-1c0-.55-.45-1-1-1Z"/></svg>