<svg xmlns="http://www.w3.org/2000/svg" viewBox="0 0 24 24" width="24" height="24"><path d="m4.18,13.65c-.12-.54-.65-.88-1.19-.76-.54.12-.88.65-.76,1.19.15.67.37,1.34.66,1.97.17.37.53.59.91.59.14,0,.28-.03.41-.09.5-.23.73-.82.5-1.32-.23-.51-.41-1.03-.52-1.57Z"/><path d="m5.98,6.37c.24,0,.48-.09.67-.26.41-.38.86-.71,1.34-.99.47-.28.63-.9.35-1.37-.28-.48-.9-.63-1.37-.35-.59.35-1.15.77-1.66,1.23-.41.37-.44,1-.06,1.41.2.22.47.33.74.33Z"/><path d="m7.99,18.89c-.48-.28-.93-.62-1.34-.99-.41-.37-1.04-.34-1.41.07-.37.41-.34,1.04.07,1.41.51.47,1.07.88,1.66,1.23.16.1.34.14.51.14.34,0,.67-.17.86-.49.28-.48.13-1.09-.35-1.37Z"/><path d="m2.99,11.12c.07.02.14.02.21.02.46,0,.87-.32.98-.79.12-.54.29-1.07.52-1.57.23-.5,0-1.1-.5-1.32-.5-.23-1.1,0-1.32.5-.29.63-.51,1.3-.65,1.97-.12.54.22,1.07.76,1.19Z"/><path d="m12,2c-.38,0-.75.02-1.11.06-.55.06-.94.56-.88,1.11.06.51.49.88.99.88.04,0,.08,0,.12,0,.29-.03.59-.05.88-.05,4.34,0,8,3.66,8,8s-3.66,8-8,8c-.3,0-.59-.02-.88-.05-.55-.07-1.04.33-1.11.88-.06.55.33,1.04.88,1.11.37.04.74.06,1.11.06,5.42,0,10-4.58,10-10S17.42,2,12,2Z"/><path d="m12,7c-.55,0-1,.45-1,1v4c0,.55.45,1,1,1h4c.55,0,1-.45,1-1s-.45-1-1-1h-3v-3c0-.55-.45-1-1-1Z"/></svg>