<svg xmlns="http://www.w3.org/2000/svg" viewBox="0 0 24 24" width="24" height="24"><path d="m20,9.8c-.1-4.53-3.64-7.8-8.5-7.8S2.01,5.24,2.01,10.67c0,2.34.74,4.36,2.2,6.01.36.41.79,1.07.79,1.91v2.41c0,.55.45,1,1,1s1-.45,1-1v-2.41c0-1.15-.46-2.3-1.3-3.24-1.13-1.27-1.7-2.84-1.7-4.68,0-4.33,3.86-6.67,7.49-6.67,3.83,0,6.5,2.47,6.5,6,0,.13.02.25.07.37l1.45,3.63h-1.02c-.83,0-1.5.67-1.5,1.5v2.5h-2c-1.1,0-2,.9-2,2v1c0,.55.45,1,1,1s1-.45,1-1v-1h2c1.1,0,2-.9,2-2v-2h1.26c.5,0,.96-.25,1.24-.66s.34-.94.15-1.4l-1.66-4.14Z"/><path d="m11,10c-.55,0-1,.45-1,1s.45,1,1,1c1.65,0,3-1.35,3-3s-1.35-3-3-3c-1.33,0-2.59.52-3.54,1.46-.94.94-1.46,2.2-1.46,3.54s.52,2.59,1.46,3.54c.94.94,2.2,1.46,3.54,1.46s2.59-.52,3.54-1.46c.39-.39.39-1.02,0-1.41-.39-.39-1.02-.39-1.41,0-1.13,1.13-3.11,1.13-4.24,0-.57-.57-.88-1.32-.88-2.12s.31-1.55.88-2.12,1.32-.88,2.12-.88c.55,0,1,.45,1,1s-.45,1-1,1Z"/></svg>