<svg xmlns="http://www.w3.org/2000/svg" viewBox="0 0 24 24" width="24" height="24"><path class="b" d="m8.5,2h-4c-1.38,0-2.5,1.12-2.5,2.5v4c0,1.38,1.12,2.5,2.5,2.5h4c1.38,0,2.5-1.12,2.5-2.5v-4c0-1.38-1.12-2.5-2.5-2.5Zm.5,6.5c0,.28-.22.5-.5.5h-4c-.28,0-.5-.22-.5-.5v-4c0-.28.22-.5.5-.5h4c.28,0,.5.22.5.5v4Z"/><path class="b" d="m17.5,13c-2.48,0-4.5,2.02-4.5,4.5s2.02,4.5,4.5,4.5,4.5-2.02,4.5-4.5-2.02-4.5-4.5-4.5Zm0,7c-1.38,0-2.5-1.12-2.5-2.5s1.12-2.5,2.5-2.5,2.5,1.12,2.5,2.5-1.12,2.5-2.5,2.5Z"/><path class="b" d="m7.8,16.6c-.33-.25-.8-.01-.8.4v1h-2.5c-.28,0-.5-.22-.5-.5v-3.5c0-.55-.45-1-1-1s-1,.45-1,1v3.5c0,1.38,1.12,2.5,2.5,2.5h2.5v1c0,.41.47.65.8.4l2.67-2c.27-.2.27-.6,0-.8l-2.67-2Z"/><path class="b" d="m19.5,4h-2.5v-1c0-.41-.47-.65-.8-.4l-2.67,2c-.27.2-.27.6,0,.8l2.67,2c.33.25.8.01.8-.4v-1h2.5c.28,0,.5.22.5.5v3.5c0,.55.45,1,1,1s1-.45,1-1v-3.5c0-1.38-1.12-2.5-2.5-2.5Z"/></svg>