<svg xmlns="http://www.w3.org/2000/svg" viewBox="0 0 24 24" width="24" height="24"><path d="m21.99,3.21c0-.45-.54-.67-.85-.36l-1.14,1.14h-6l-1.14-1.14c-.32-.32-.86-.09-.85.36v.79s0,0,0,0v5c0,.34.04.68.1,1h-6.6c-.83,0-1.5-.67-1.5-1.5s.67-1.5,1.5-1.5c1.56,0,4.5-.84,4.5-4,0-.55-.45-1-1-1s-1,.45-1,1c0,1.88-2.09,2-2.5,2-1.93,0-3.5,1.57-3.5,3.5,0,1.42.85,2.63,2.06,3.18l.8,8c.13,1.32,1.23,2.32,2.56,2.32,1.42,0,2.57-1.15,2.57-2.57v-1.43h4v1.43c0,1.42,1.15,2.57,2.59,2.57,1.31,0,2.41-.98,2.56-2.29l.74-6.64c1.27-.91,2.11-2.39,2.11-4.07v-5h0v-.79Zm-4.83,16.27c-.03.29-.28.51-.59.51s-.57-.26-.57-.57v-2.43c0-.55-.45-1-1-1h-6c-.55,0-1,.45-1,1v2.43c0,.32-.26.57-.57.57-.3,0-.54-.22-.57-.52l-.75-7.48h6.9v-.03c.91,1.23,2.36,2.03,4,2.03.27,0,.52-.04.78-.08l-.62,5.57Zm2.84-10.49c0,1.65-1.35,3-3,3s-3-1.35-3-3v-3h6v3Z"/><path d="M15.62 7.499999999999999A.62.62 0 1 0 15.62 8.739999999999998.62.62 0 1 0 15.62 7.499999999999999z"/><path d="M18.38 7.499999999999999A.62.62 0 1 0 18.38 8.739999999999998.62.62 0 1 0 18.38 7.499999999999999z"/></svg>