<svg xmlns="http://www.w3.org/2000/svg" viewBox="0 0 24 24" width="24" height="24"><path d="m20.77,6.88c.63.13,1.23-.34,1.23-.98,0-.49-.36-.88-.83-.98-2.1-.44-3.29-2.4-3.3-2.42-.18-.31-.53-.5-.87-.5-.36,0-.69.2-.87.51-.05.09-1.15,1.99-3.29,2.41-.48.09-.84.49-.84.98h0c0,.61.54,1.1,1.14,1,1.18-.21,2.13-.73,2.86-1.31v1.12c-.34.51-1.39,1.86-3.16,2.21-.48.09-.84.49-.84.98h0c0,.61.54,1.1,1.14,1,1.18-.21,2.13-.73,2.86-1.31v2.42s-.06-.01-.08-.01H7.62s-.08-.02-.12-.02c-.53,0-1.01.29-1.26.76l-3.74,7.06c-.25.47-.23,1.02.04,1.48s.75.73,1.29.73h16.31c.54,0,1.02-.28,1.29-.74s.28-1.02.01-1.49l-3.45-6.14v-4.06c.72.56,1.64,1.08,2.77,1.31.63.13,1.23-.34,1.23-.98,0-.49-.36-.88-.83-.98-1.72-.36-2.81-1.72-3.17-2.22v-1.13c.72.56,1.64,1.08,2.77,1.31ZM4.66,20l2.84-5.36,2.84,5.36h-5.68Zm7.94,0l-3.18-6h6.49l3.38,6h-6.69Z"/><path d="m5.5,9c1.93,0,3.5-1.57,3.5-3.5s-1.57-3.5-3.5-3.5-3.5,1.57-3.5,3.5,1.57,3.5,3.5,3.5Zm0-5c.83,0,1.5.67,1.5,1.5s-.67,1.5-1.5,1.5-1.5-.67-1.5-1.5.67-1.5,1.5-1.5Z"/></svg>