<svg xmlns="http://www.w3.org/2000/svg" viewBox="0 0 24 24" width="24" height="24"><path d="m19.12,6.27l-5-3.12c-1.29-.8-2.95-.8-4.24,0l-5,3.12c-1.18.74-1.88,2-1.88,3.39v4.67c0,1.39.7,2.66,1.88,3.39l5,3.12c.64.4,1.38.6,2.12.6s1.48-.2,2.12-.6l5-3.12c1.18-.74,1.88-2,1.88-3.39v-4.67c0-1.39-.7-2.66-1.88-3.39Zm-8.18-1.43c.32-.2.69-.3,1.06-.3s.74.1,1.06.3l5,3.12s.03.03.05.04l-2.37,1.48c-.81-1.2-2.18-1.99-3.73-1.99s-2.92.79-3.73,1.99l-2.37-1.48s.03-.03.05-.04l5-3.12Zm1.06,9.66c-1.38,0-2.5-1.12-2.5-2.5s1.12-2.5,2.5-2.5,2.5,1.12,2.5,2.5-1.12,2.5-2.5,2.5Zm-6.06,1.53c-.59-.37-.94-1-.94-1.7v-4.53l2.56,1.6c-.03.2-.06.39-.06.6,0,2.14,1.5,3.92,3.5,4.38v2.81s-.04-.01-.06-.03l-5-3.12Zm12.12,0l-5,3.12s-.04.02-.06.03v-2.81c2-.46,3.5-2.24,3.5-4.38,0-.2-.03-.4-.06-.6l2.56-1.6v4.53c0,.69-.35,1.33-.94,1.7Z"/></svg>