<svg xmlns="http://www.w3.org/2000/svg" viewBox="0 0 24 24" width="24" height="24"><path d="m12,13.04c2.76,0,5-2.24,5-5,0-1-.27-1.95-.81-2.83-.16-.27-.44-.44-.76-.47-.31-.03-.62.09-.83.32-.29.32-.68.49-1.1.49-.83,0-1.5-.67-1.5-1.5,0-.1.01-.21.04-.33.08-.39-.07-.79-.39-1.02-.32-.23-.75-.26-1.09-.06-1.33.77-3.56,2.49-3.56,5.41,0,2.76,2.24,5,5,5Zm-1.75-7.7c.52,1.29,1.78,2.21,3.26,2.21.49,0,.96-.1,1.4-.3.06.26.09.52.09.79,0,1.65-1.35,3-3,3s-3-1.35-3-3c0-1.14.55-2.03,1.25-2.7Z"/><path d="m20.89,12.55c-.25-.49-.85-.69-1.34-.45l-7.55,3.78-7.55-3.78c-.5-.25-1.1-.05-1.34.45-.25.49-.05,1.09.45,1.34l6.21,3.11-6.21,3.11c-.49.25-.69.85-.45,1.34.18.35.53.55.9.55.15,0,.3-.03.45-.11l7.55-3.78,7.55,3.78c.14.07.3.11.45.11.37,0,.72-.2.9-.55.25-.49.05-1.09-.45-1.34l-6.21-3.11,6.21-3.11c.49-.25.69-.85.45-1.34Z"/></svg>