<svg xmlns="http://www.w3.org/2000/svg" viewBox="0 0 24 24" width="24" height="24"><path d="m10.35,16.13c-.48-.27-1.09-.11-1.36.37l-2.29,4c-.27.48-.11,1.09.37,1.36.16.09.33.13.5.13.35,0,.68-.18.87-.5l2.29-4c.27-.48.11-1.09-.37-1.36Z"/><path d="m19.5,16.13c-.48-.27-1.09-.11-1.36.37l-2.29,4c-.27.48-.11,1.09.37,1.36.16.09.33.13.5.13.35,0,.68-.18.87-.5l2.29-4c.27-.48.11-1.09-.37-1.36Z"/><path d="m2.29,20.29c-.18.19-.29.45-.29.71s.1.52.29.71c.19.19.44.29.71.29s.52-.1.71-.29c.19-.19.29-.44.29-.71s-.11-.52-.29-.71c-.38-.37-1.05-.37-1.42,0Z"/><path d="m12.53,20.08c-.25-.1-.53-.1-.77,0-.12.05-.23.12-.32.21-.19.19-.3.45-.3.71s.11.52.3.71c.19.19.44.29.7.29s.52-.1.71-.29c.19-.19.29-.45.29-.71s-.1-.52-.29-.71c-.09-.09-.2-.16-.32-.21Z"/><path d="m5.78,16.13c-.48-.27-1.09-.11-1.36.37l-.74,1.3c-.27.48-.11,1.09.37,1.36.16.09.33.13.5.13.35,0,.68-.18.87-.5l.74-1.3c.27-.48.11-1.09-.37-1.36Z"/><path d="m14.92,16.13c-.48-.27-1.09-.11-1.36.37l-.74,1.3c-.27.48-.11,1.09.37,1.36.16.09.33.13.5.13.35,0,.68-.18.87-.5l.74-1.3c.27-.48.11-1.09-.37-1.36Z"/><path d="m19.38,7.25c-.59-3-3.26-5.25-6.38-5.25-2.04,0-3.92.94-5.15,2.54-.21-.03-.4-.04-.6-.04-2.9,0-5.25,2.36-5.25,5.25s2.35,5.25,5.25,5.25h10.75c2.21,0,4-1.79,4-4,0-1.71-1.07-3.18-2.62-3.75Zm-1.38,5.75H7.25c-1.79,0-3.25-1.46-3.25-3.25s1.46-3.25,3.25-3.25c.24,0,.5.04.81.12.43.11.87-.07,1.1-.45.83-1.36,2.26-2.17,3.84-2.17,2.32,0,4.29,1.81,4.48,4.13.04.46.38.83.84.91.97.16,1.68.98,1.68,1.96,0,1.1-.9,2-2,2Z"/></svg>