<svg xmlns="http://www.w3.org/2000/svg" width="24" height="24" viewBox="0 0 24 24"><path d="M8 19c1.06 0 2.1-.3 3-.82V20H9c-.55 0-1 .45-1 1s.45 1 1 1h6c.55 0 1-.45 1-1s-.45-1-1-1h-2v-1.82c.9.52 1.94.82 3 .82 3.31 0 6-2.69 6-6 0-2.58-1.66-4.85-4.04-5.67C17.63 4.34 15.08 2 12 2S6.37 4.34 6.04 7.33A6.01 6.01 0 0 0 2 13c0 3.31 2.69 6 6 6m-.79-9.92c.28-.06.52-.23.67-.47.11-.2.16-.42.13-.64.02-2.19 1.81-3.96 4-3.96s3.98 1.77 4 3.96c-.03.22.01.45.13.64.14.25.39.42.67.47a3.999 3.999 0 1 1-3.99 6.32 1 1 0 0 0-1.6 0 3.999 3.999 0 1 1-3.99-6.32Z"/></svg>