<svg xmlns="http://www.w3.org/2000/svg" viewBox="0 0 24 24" width="24" height="24"><path d="m15.55,2h-7.1c-.77,0-1.41.57-1.49,1.33l-.95,8.56v.11c0,2.97,2.16,5.43,4.99,5.91v2.09h-2c-.55,0-1,.45-1,1s.45,1,1,1h6c.55,0,1-.45,1-1s-.45-1-1-1h-2v-2.09c2.83-.48,5-2.94,5-5.91l-.96-8.67c-.08-.76-.73-1.33-1.49-1.33Zm-6.66,2h6.21l.46,4.15c-1.45-.38-3,0-4.23,1.11-.93.83-2.06.96-3.06.38l.63-5.63Zm3.1,12c-2.19,0-3.97-1.77-4-3.95l.04-.33c.49.18.99.27,1.5.27,1.11,0,2.21-.42,3.13-1.25.96-.86,2.13-.97,3.15-.33l.18,1.63c-.03,2.18-1.81,3.95-4,3.95Z"/></svg>