<svg xmlns="http://www.w3.org/2000/svg" width="24" height="24" viewBox="0 0 24 24"><path d="M6.5 4C4.57 4 3 5.57 3 7.5S4.57 11 6.5 11 10 9.43 10 7.5 8.43 4 6.5 4m0 5C5.67 9 5 8.33 5 7.5S5.67 6 6.5 6 8 6.67 8 7.5 7.33 9 6.5 9M6.5 13C4.57 13 3 14.57 3 16.5S4.57 20 6.5 20s3.5-1.57 3.5-3.5S8.43 13 6.5 13m0 5c-.83 0-1.5-.67-1.5-1.5S5.67 15 6.5 15s1.5.67 1.5 1.5S7.33 18 6.5 18M20 7h-7c-.55 0-1 .45-1 1s.45 1 1 1h7c.55 0 1-.45 1-1s-.45-1-1-1M20 15h-7c-.55 0-1 .45-1 1s.45 1 1 1h7c.55 0 1-.45 1-1s-.45-1-1-1"/></svg>