<svg xmlns="http://www.w3.org/2000/svg" viewBox="0 0 24 24" width="24" height="24"><path d="m17,4v-1c0-.55-.45-1-1-1s-1,.45-1,1v1h-6v-1c0-.55-.45-1-1-1s-1,.45-1,1v1c-2.21,0-4,1.79-4,4v10c0,2.21,1.79,4,4,4h10c2.21,0,4-1.79,4-4v-10c0-2.21-1.79-4-4-4Zm2,14c0,1.1-.9,2-2,2H7c-1.1,0-2-.9-2-2v-10h14v10Z"/><path d="m8.33,15.64l.42.73c.18.3.57.41.88.23l.34-.2c.29.25.62.44.97.57v.39c0,.35.29.64.64.64h.84c.35,0,.64-.29.64-.64v-.39c.35-.13.68-.32.97-.57l.34.2c.31.18.7.07.88-.23l.42-.73c.18-.31.07-.7-.23-.88l-.33-.19c.04-.19.05-.38.05-.57s-.02-.38-.05-.57l.33-.19c.31-.18.41-.57.23-.88l-.42-.73c-.18-.31-.57-.41-.88-.23l-.34.2c-.29-.25-.62-.44-.97-.57v-.39c0-.35-.29-.64-.64-.64h-.84c-.35,0-.64.29-.64.64v.39c-.35.13-.68.32-.97.57l-.34-.2c-.31-.18-.7-.07-.88.23l-.42.73c-.18.31-.07.7.23.88l.33.19c-.04.19-.05.38-.05.57s.02.38.05.57l-.33.19c-.31.18-.41.57-.23.88Zm3.67-3.18c.84,0,1.55.71,1.55,1.55s-.71,1.55-1.55,1.55-1.55-.71-1.55-1.55.71-1.55,1.55-1.55Z"/></svg>