<svg xmlns="http://www.w3.org/2000/svg" viewBox="0 0 24 24" width="24" height="24"><path d="m17,2H7c-2.21,0-4,1.79-4,4v12c0,2.21,1.79,4,4,4h10c2.21,0,4-1.79,4-4V6c0-2.21-1.79-4-4-4Zm2,16c0,1.1-.9,2-2,2H7c-1.1,0-2-.9-2-2V6c0-1.1.9-2,2-2h10c1.1,0,2,.9,2,2v12Z"/><path d="M8 12A1 1 0 1 0 8 14 1 1 0 1 0 8 12z"/><path d="M8 16A1 1 0 1 0 8 18 1 1 0 1 0 8 16z"/><path d="M12 12A1 1 0 1 0 12 14 1 1 0 1 0 12 12z"/><rect x="7" y="6" width="10" height="4" rx="1.5" ry="1.5"/><path d="M12 16A1 1 0 1 0 12 18 1 1 0 1 0 12 16z"/><path d="m16,12c-.55,0-1,.45-1,1v4c0,.55.45,1,1,1s1-.45,1-1v-4c0-.55-.45-1-1-1Z"/></svg>