<svg xmlns="http://www.w3.org/2000/svg" width="24" height="24" viewBox="0 0 24 24"><path d="M12 2C6.58 2 2 6.58 2 12s4.58 10 10 10 10-4.58 10-10S17.42 2 12 2m0 18c-4.34 0-8-3.66-8-8s3.66-8 8-8 8 3.66 8 8-3.66 8-8 8"/><path d="M12.35 9.01c.54.04 1.03.15 1.42.34.37.18.81.08 1.1-.21.48-.48.37-1.31-.24-1.6-.95-.45-1.98-.54-2.62-.54-2.76 0-5 2.24-5 5s2.24 5 5 5c.64 0 1.68-.08 2.62-.54.61-.29.72-1.12.24-1.6-.29-.29-.73-.39-1.1-.21-.46.22-1.08.35-1.76.35-1.97 0-3.58-2.03-2.8-4.07.49-1.28 1.78-2.01 3.15-1.92Z"/></svg>