<svg xmlns="http://www.w3.org/2000/svg" width="24" height="24" viewBox="0 0 24 24"><path d="M19.5 17h-.13c.61-2.21 1.41-6.63-.73-9.74-1.43-2.08-3.85-3.17-7.22-3.25L9.71 2.3a1 1 0 0 0-1.54.15l-5.22 7.82a2.726 2.726 0 0 0 3.78 3.78L8.3 13h.56l-3.33 4H4.5a2.5 2.5 0 0 0 0 5h15a2.5 2.5 0 0 0 0-5m0 3h-15c-.28 0-.5-.22-.5-.5s.22-.5.5-.5H6c.3 0 .58-.13.77-.36l5-6A1 1 0 0 0 11 11H8c-.2 0-.39.06-.55.17l-1.82 1.22a.74.74 0 0 1-.92-.09.74.74 0 0 1-.09-.92l4.54-6.81 1.14 1.14c.19.19.44.29.71.29 2.88 0 4.9.8 5.99 2.39 2.3 3.34.1 9.2.08 9.25a.997.997 0 0 0 .93 1.35h1.5c.28 0 .5.22.5.5s-.22.5-.5.5Z"/><path d="M9.5 7.5c-.55 0-1 .45-1 1s.45 1 1 1 1-.45 1-1-.45-1-1-1m0 1h.5z"/></svg>