<svg xmlns="http://www.w3.org/2000/svg" width="24" height="24" viewBox="0 0 24 24"><path d="M12 2C6.49 2 2 6.49 2 12s4.49 10 10 10 10-4.49 10-10S17.51 2 12 2m0 18c-4.41 0-8-3.59-8-8s3.59-8 8-8 8 3.59 8 8-3.59 8-8 8"/><path d="M15.83 8.63 13 10.26V6.99c0-.55-.45-1-1-1s-1 .45-1 1v5s.01.04.01.06c0 .07.02.13.04.2s.03.13.06.19c0 .02 0 .04.02.06.04.07.09.14.15.2l.01.01c.08.08.18.14.28.19.03.01.05.02.08.03.11.04.22.07.34.07s.23-.03.34-.07c.03-.01.05-.02.08-.03.02-.01.05-.02.07-.03l4.33-2.5c.48-.28.64-.89.37-1.37a1.01 1.01 0 0 0-1.37-.37Z"/></svg>