<svg xmlns="http://www.w3.org/2000/svg" width="24" height="24" viewBox="0 0 24 24"><rect width="6" height="6" x="9" y="9" rx="1.5" ry="1.5"/><path d="M21 10c.55 0 1-.45 1-1s-.45-1-1-1h-1c0-2.21-1.79-4-4-4V3c0-.55-.45-1-1-1s-1 .45-1 1v1h-4V3c0-.55-.45-1-1-1s-1 .45-1 1v1C5.79 4 4 5.79 4 8H3c-.55 0-1 .45-1 1s.45 1 1 1h1v4H3c-.55 0-1 .45-1 1s.45 1 1 1h1c0 2.21 1.79 4 4 4v1c0 .55.45 1 1 1s1-.45 1-1v-1h4v1c0 .55.45 1 1 1s1-.45 1-1v-1c2.21 0 4-1.79 4-4h1c.55 0 1-.45 1-1s-.45-1-1-1h-1v-4zm-3 6c0 1.1-.9 2-2 2H8c-1.1 0-2-.9-2-2V8c0-1.1.9-2 2-2h8c1.1 0 2 .9 2 2z"/></svg>