<svg xmlns="http://www.w3.org/2000/svg" viewBox="0 0 24 24" width="24" height="24"><path class="b" d="m19,14h-4v-1h3c1.65,0,3-1.35,3-3v-5c0-1.65-1.35-3-3-3H6c-1.65,0-3,1.35-3,3v5c0,1.65,1.35,3,3,3h3v1h-4c-1.65,0-3,1.35-3,3v2c0,1.65,1.35,3,3,3h14c1.65,0,3-1.35,3-3v-2c0-1.65-1.35-3-3-3Zm-13-3c-.55,0-1-.45-1-1v-5c0-.55.45-1,1-1h12c.55,0,1,.45,1,1v5c0,.55-.45,1-1,1H6Zm14,8c0,.55-.45,1-1,1H5c-.55,0-1-.45-1-1v-2c0-.55.45-1,1-1h14c.55,0,1,.45,1,1v2Z"/><path class="b" d="m13,17h-6c-.55,0-1,.45-1,1s.45,1,1,1h6c.55,0,1-.45,1-1s-.45-1-1-1Z"/><path class="b" d="M17 17A1 1 0 1 0 17 19 1 1 0 1 0 17 17z"/></svg>