<svg xmlns="http://www.w3.org/2000/svg" width="24" height="24" viewBox="0 0 24 24"><path d="m2.44 13.12 3.25 6.5c.43.85 1.28 1.38 2.24 1.38h8.15c.95 0 1.81-.53 2.24-1.38l3.25-6.5c.35-.7.35-1.54 0-2.24l-3.25-6.5A2.49 2.49 0 0 0 16.08 3H7.93c-.95 0-1.81.53-2.24 1.38l-3.25 6.5c-.35.7-.35 1.54 0 2.24m14.08 5.61a.5.5 0 0 1-.45.28H8.62l3.02-6.04c.1.01.19.04.29.04h7.45zm0-13.45L19.38 11h-7.45c-.19 0-.36-.11-.45-.28L8.62 5h7.45c.19 0 .36.11.45.28m-12.29 6.5L7 6.24l2.69 5.38c.06.12.15.22.22.32L7 17.76l-2.77-5.54a.5.5 0 0 1 0-.45Z"/></svg>