<svg xmlns="http://www.w3.org/2000/svg" width="24" height="24" viewBox="0 0 24 24"><path d="m20.57 17.24.93-2.08c.76-1.7.65-3.68-.3-5.3s-2.55-2.65-4.41-2.83c-1.3-.13-2.65.18-3.79.82V6h1c.55 0 1-.45 1-1s-.45-1-1-1h-1V3c0-.55-.45-1-1-1s-1 .45-1 1v1h-1c-.55 0-1 .45-1 1s.45 1 1 1h1v1.85c-1.13-.64-2.48-.95-3.79-.82-1.86.18-3.47 1.21-4.41 2.83s-1.05 3.6-.3 5.3l.93 2.08A2.5 2.5 0 0 0 4.5 22h15a2.5 2.5 0 0 0 1.07-4.76M19.5 20h-15c-.28 0-.5-.22-.5-.5s.22-.5.5-.5h.36c.34 0 .65-.17.84-.46s.21-.64.07-.95l-1.45-3.25c-.5-1.11-.42-2.41.2-3.48a3.7 3.7 0 0 1 2.87-1.85c1.43-.14 2.93.47 3.81 1.6.38.48 1.2.48 1.58 0 .79-1.01 2.05-1.62 3.38-1.62.15 0 .29 0 .43.02 1.21.12 2.26.79 2.88 1.85s.69 2.36.2 3.48l-1.45 3.25c-.14.31-.11.67.07.95s.5.46.84.46h.36c.28 0 .5.22.5.5s-.22.5-.5.5Z"/></svg>