<svg xmlns="http://www.w3.org/2000/svg" viewBox="0 0 24 24" width="24" height="24"><path d="m13.5,7.09l-1.29-1.29c-.39-.39-1.02-.39-1.41,0s-.39,1.02,0,1.41l1.29,1.29-1.29,1.29c-.39.39-.39,1.02,0,1.41.2.2.45.29.71.29s.51-.1.71-.29l1.29-1.29,1.29,1.29c.2.2.45.29.71.29s.51-.1.71-.29c.39-.39.39-1.02,0-1.41l-1.29-1.29,1.29-1.29c.39-.39.39-1.02,0-1.41s-1.02-.39-1.41,0l-1.29,1.29Z"/><path d="m21.35,6.06c-.52-.19-1.09.07-1.29.59l-2.27,6.05c-.29.78-1.04,1.3-1.87,1.3h-4.76c-.86,0-1.62-.55-1.9-1.37L6.29,3.71c-.34-1.02-1.29-1.71-2.37-1.71h-.92c-.55,0-1,.45-1,1s.45,1,1,1h.92c.22,0,.41.14.47.34l2.97,8.92c.54,1.64,2.07,2.74,3.79,2.74h4.76c1.66,0,3.16-1.04,3.75-2.6l2.27-6.05c.19-.52-.07-1.09-.59-1.29Z"/><path d="M10 18A2 2 0 1 0 10 22 2 2 0 1 0 10 18z"/><path d="M17 18A2 2 0 1 0 17 22 2 2 0 1 0 17 18z"/></svg>