<svg xmlns="http://www.w3.org/2000/svg" viewBox="0 0 24 24" width="24" height="24"><path d="m9.71,14.96c.08.08.1.19.07.29l-.56,1.81c-.16.52.42.95.87.65l1.74-1.16c.1-.06.22-.06.32,0l1.74,1.16c.45.3,1.03-.13.87-.65l-.56-1.81c-.03-.1,0-.21.07-.29l1.44-1.44c.35-.35.13-.94-.36-.98l-1.74-.15c-.1,0-.19-.07-.23-.16l-.88-1.78c-.21-.43-.82-.43-1.03,0l-.88,1.78c-.04.09-.13.15-.23.16l-1.74.15c-.49.04-.7.63-.36.98l1.44,1.44Z"/><path d="m17,4v-1c0-.55-.45-1-1-1s-1,.45-1,1v1h-6v-1c0-.55-.45-1-1-1s-1,.45-1,1v1c-2.21,0-4,1.79-4,4v10c0,2.21,1.79,4,4,4h10c2.21,0,4-1.79,4-4v-10c0-2.21-1.79-4-4-4Zm2,14c0,1.1-.9,2-2,2H7c-1.1,0-2-.9-2-2v-10h14v10Z"/></svg>