<svg xmlns="http://www.w3.org/2000/svg" width="24" height="24" viewBox="0 0 24 24"><path d="M18 5h-.59l-2.27-2.27c-.47-.47-1.11-.73-1.77-.73h-2.76c-.66 0-1.3.27-1.77.73L6.57 5h-.59c-2.21 0-4 1.79-4 4v7c0 2.21 1.79 4 4 4h12c2.21 0 4-1.79 4-4V9c0-2.21-1.79-4-4-4Zm2 11c0 1.1-.9 2-2 2H6c-1.1 0-2-.9-2-2V9c0-1.1.9-2 2-2h1c.27 0 .52-.11.71-.29l2.56-2.56a.5.5 0 0 1 .35-.15h2.76c.13 0 .26.05.35.15l2.56 2.56c.19.19.44.29.71.29h1c1.1 0 2 .9 2 2z"/><path d="M15 11h-2V9c0-.55-.45-1-1-1s-1 .45-1 1v2H9c-.55 0-1 .45-1 1s.45 1 1 1h2v2c0 .55.45 1 1 1s1-.45 1-1v-2h2c.55 0 1-.45 1-1s-.45-1-1-1"/></svg>