<svg xmlns="http://www.w3.org/2000/svg" viewBox="0 0 24 24" width="24" height="24"><path d="m17,3H7c-2.21,0-4,1.79-4,4v10c0,2.21,1.79,4,4,4h10c2.21,0,4-1.79,4-4V7c0-2.21-1.79-4-4-4Zm2,12h-7.07c-.19,0-.36-.11-.45-.28l-.81-1.62c.21-.32.33-.69.33-1.1,0-1.1-.9-2-2-2s-2,.9-2,2,.83,1.92,1.88,1.99l.82,1.63c.43.85,1.28,1.38,2.24,1.38h7.07c0,1.1-.9,2-2,2H7c-1.1,0-2-.9-2-2v-8h7.07c.19,0,.36.11.45.28l.81,1.62c-.21.32-.33.69-.33,1.1,0,1.1.9,2,2,2s2-.9,2-2-.83-1.92-1.88-1.99l-.82-1.63c-.43-.85-1.28-1.38-2.24-1.38h-7.07c0-1.1.9-2,2-2h10c1.1,0,2,.9,2,2v8Z"/></svg>