<svg xmlns="http://www.w3.org/2000/svg" viewBox="0 0 24 24" width="24" height="24"><path d="m12,6c-4.41,0-8,3.59-8,8s3.59,8,8,8,8-3.59,8-8c0-3.62-2.43-6.69-5.74-7.67,1.1-1.42,2.81-2.33,4.74-2.33.55,0,1-.45,1-1s-.45-1-1-1c-1.36,0-2.64.34-3.77.95-.7-.43-1.82-.95-3.23-.95-1.57,0-2.8.65-3.46,1.09-.29.2-.29.63,0,.82.66.44,1.89,1.09,3.46,1.09.28,0,.55-.02.81-.06-.27.33-.51.69-.73,1.06-.03,0-.05,0-.08,0Zm6,8c0,3.31-2.69,6-6,6s-6-2.69-6-6c0-3.05,2.29-5.58,5.25-5.95-.16.62-.25,1.28-.25,1.95v.82c-.47-.18-.72-.44-.74-.47-.36-.41-.98-.47-1.4-.12-.42.35-.48.98-.13,1.41.12.14,1.19,1.36,3.27,1.36s3.15-1.22,3.27-1.36c.35-.42.29-1.03-.12-1.39-.41-.36-1.04-.31-1.4.1-.02.02-.26.28-.74.47v-.82c0-.65.11-1.27.3-1.85,2.69.59,4.7,2.99,4.7,5.85Z"/></svg>