<svg xmlns="http://www.w3.org/2000/svg" viewBox="0 0 24 24" width="24" height="24"><path d="m18.73,4.02c-.71-1.24-2.04-2.02-3.47-2.02h-6.52c-1.43,0-2.76.77-3.47,2.02l-2.11,3.7c-.82,1.43-.66,3.24.38,4.52l5.37,6.57c.76.93,1.89,1.47,3.1,1.47s2.33-.53,3.1-1.47l5.37-6.57c1.04-1.27,1.19-3.09.38-4.52l-2.11-3.7Zm-1.74.99l2.11,3.7c.05.09.08.2.11.29h-3.02l-1.79-5h.84c.72,0,1.38.39,1.74,1.01Zm-5,11.23l-2.04-5.24h4.08l-2.04,5.24Zm-2.08-7.24l1.79-5h.59l1.79,5h-4.16Zm-2.91-3.99c.36-.62,1.02-1.01,1.74-1.01h.84l-1.79,5h-3.02c.04-.1.06-.2.11-.29l2.11-3.7Zm-1.89,5.99h2.71l2.45,6.3-5.16-6.3Zm8.62,6.3l2.45-6.3h2.71l-5.16,6.3Z"/></svg>