<svg xmlns="http://www.w3.org/2000/svg" width="24" height="24" viewBox="0 0 24 24"><path d="M17.93 5.31 10.2 3.24c-2.13-.57-4.33.7-4.9 2.83L3.23 13.8c-.57 2.13.7 4.33 2.83 4.9l7.73 2.07c.35.09.69.14 1.03.14 1.77 0 3.39-1.18 3.86-2.96l2.07-7.73c.57-2.13-.7-4.33-2.83-4.9Zm.9 4.38-2.07 7.73a2.005 2.005 0 0 1-2.45 1.41l-7.73-2.07a1.993 1.993 0 0 1-1.41-2.45l2.07-7.73c.29-1.07 1.38-1.7 2.45-1.41l7.73 2.07c1.07.29 1.7 1.38 1.41 2.45"/><path d="M9.97 9.9c-.8-.21-1.62.26-1.84 1.06-.21.8.26 1.62 1.06 1.84.8.21 1.62-.26 1.84-1.06.21-.8-.26-1.62-1.06-1.84M14.8 11.2c-.8-.21-1.62.26-1.84 1.06-.21.8.26 1.62 1.06 1.84.8.21 1.62-.26 1.84-1.06.21-.8-.26-1.62-1.06-1.84"/></svg>