<svg xmlns="http://www.w3.org/2000/svg" viewBox="0 0 24 24" width="24" height="24"><path d="m18.99,3.78h0l-7-1.4c-.74-.15-1.49.04-2.07.52-.36.29-.61.68-.76,1.1h-3.66c-1.38,0-2.5,1.12-2.5,2.5v11c0,1.38,1.12,2.5,2.5,2.5h3.66c.15.42.4.81.76,1.1.45.37,1.01.57,1.58.57.16,0,.33-.02.49-.05l7-1.4c1.16-.23,2.01-1.26,2.01-2.45V6.23c0-1.19-.85-2.22-2.01-2.45Zm-13.99,13.72V6.5c0-.28.22-.5.5-.5h3.5v12h-3.5c-.28,0-.5-.22-.5-.5Zm14,.27c0,.24-.17.44-.4.49l-7,1.4c-.2.04-.35-.05-.41-.1-.07-.06-.18-.18-.18-.39V4.83c0-.21.11-.33.18-.39.06-.05.16-.11.31-.11.03,0,.07,0,.1,0l7,1.4c.23.05.4.25.4.49v11.54Z"/><path d="M13 11A1 1 0 1 0 13 13 1 1 0 1 0 13 11z"/></svg>