<svg xmlns="http://www.w3.org/2000/svg" viewBox="0 0 24 24" width="24" height="24"><path d="m17,22H7c-2.21,0-4-1.79-4-4V6c0-2.21,1.79-4,4-4h10c2.21,0,4,1.79,4,4v12c0,2.21-1.79,4-4,4ZM7,4c-1.1,0-2,.9-2,2v12c0,1.1.9,2,2,2h10c1.1,0,2-.9,2-2V6c0-1.1-.9-2-2-2H7Z"/><path d="M14 5A1 1 0 1 0 14 7 1 1 0 1 0 14 5z"/><path d="M17 5A1 1 0 1 0 17 7 1 1 0 1 0 17 5z"/><path d="m12,8c-2.76,0-5,2.24-5,5s2.24,5,5,5,5-2.24,5-5-2.24-5-5-5Zm-1.18,4.62c.27.23.68.57.68,1.22s-.41.99-.68,1.22c-.24.2-.32.28-.32.45,0,.28-.22.5-.5.5s-.5-.22-.5-.5c0-.65.41-.99.68-1.22.24-.2.32-.28.32-.45s-.08-.25-.32-.45c-.27-.23-.68-.57-.68-1.22s.41-.99.68-1.22c.26-.21.32-.29.32-.45,0-.28.22-.5.5-.5s.5.22.5.5c0,.65-.41.99-.68,1.22-.24.2-.32.28-.32.45s.08.25.32.45Zm3,0c.27.23.68.57.68,1.22s-.41.99-.68,1.22c-.24.2-.32.28-.32.45,0,.28-.22.5-.5.5s-.5-.22-.5-.5c0-.65.41-.99.68-1.22.24-.2.32-.28.32-.45s-.08-.25-.32-.45c-.27-.23-.68-.57-.68-1.22s.41-.99.68-1.22c.26-.21.32-.29.32-.45,0-.28.22-.5.5-.5s.5.22.5.5c0,.65-.41.99-.68,1.22-.24.2-.32.28-.32.45s.08.25.32.45Z"/></svg>