<svg xmlns="http://www.w3.org/2000/svg" viewBox="0 0 24 24" width="24" height="24"><path d="m19,2H5c-1.65,0-3,1.35-3,3v14c0,1.65,1.35,3,3,3h12c1.65,0,3-1.35,3-3v-9.18c1.16-.41,2-1.51,2-2.82v-2c0-1.65-1.35-3-3-3Zm-2,18H5c-.55,0-1-.45-1-1v-9.18c.31.11.65.18,1,.18h13v9c0,.55-.45,1-1,1Zm3-13c0,.55-.45,1-1,1H5c-.55,0-1-.45-1-1v-2c0-.55.45-1,1-1h14c.55,0,1,.45,1,1v2Z"/><path d="m17.5,5h-2c-.21,0-.32.24-.2.4l1,1.33c.1.13.3.13.4,0l1-1.33c.12-.16,0-.4-.2-.4Z"/><path d="m15,12H7c-.55,0-1,.45-1,1s.45,1,1,1h8c.55,0,1-.45,1-1s-.45-1-1-1Z"/><path d="m12,16h-5c-.55,0-1,.45-1,1s.45,1,1,1h5c.55,0,1-.45,1-1s-.45-1-1-1Z"/></svg>