<svg xmlns="http://www.w3.org/2000/svg" width="24" height="24" viewBox="0 0 24 24"><path d="M20.23 11.94c-.48-.6-1.19-.94-1.95-.94H13V9h4.5A2.5 2.5 0 0 0 20 6.5v-2A2.5 2.5 0 0 0 17.5 2H5.72c-.76 0-1.47.34-1.95.94L2.22 4.88c-.29.37-.29.88 0 1.25l1.55 1.94c.48.6 1.19.94 1.95.94H11v2H6.5a2.5 2.5 0 0 0-2.5 2.5v2a2.5 2.5 0 0 0 2.5 2.5H11v3c0 .55.45 1 1 1s1-.45 1-1v-3h5.28c.76 0 1.47-.34 1.95-.94l1.55-1.94c.29-.37.29-.88 0-1.25zM5.33 6.81 4.28 5.5l1.05-1.31c.1-.12.24-.19.39-.19H17.5c.28 0 .5.22.5.5v2c0 .28-.22.5-.5.5H5.72c-.15 0-.29-.07-.39-.19m13.34 9c-.1.12-.24.19-.39.19H6.5c-.28 0-.5-.22-.5-.5v-2c0-.28.22-.5.5-.5h11.78c.15 0 .29.07.39.19l1.05 1.31z"/></svg>