<svg xmlns="http://www.w3.org/2000/svg" viewBox="0 0 24 24" width="24" height="24"><path d="m17,3H7c-2.21,0-4,1.79-4,4v10c0,2.21,1.79,4,4,4h10c2.21,0,4-1.79,4-4V7c0-2.21-1.79-4-4-4Zm2,14c0,1.1-.9,2-2,2H7c-1.1,0-2-.9-2-2v-6h14v6Zm0-8H5v-2c0-1.1.9-2,2-2h10c1.1,0,2,.9,2,2v2Z"/><path d="M9 6A1 1 0 1 0 9 8 1 1 0 1 0 9 6z"/><path d="M15 6A1 1 0 1 0 15 8 1 1 0 1 0 15 6z"/><path d="M12 6A1 1 0 1 0 12 8 1 1 0 1 0 12 6z"/><path d="m12,17c1.1,0,2-.9,2-2,0-1.51-2-3-2-3,0,0-2,1.49-2,3,0,1.1.9,2,2,2Z"/></svg>