<svg xmlns="http://www.w3.org/2000/svg" viewBox="0 0 24 24" width="24" height="24"><path d="m21,6.39l-3.39-3.39c-.78-.78-2.05-.78-2.83,0l-.89.89-.39-.39c-.76-.76-2.07-.76-2.83,0l-.89.89h0c-.78.78-.78,2.05,0,2.83l2.79,2.79-2.59,2.59-2.79-2.79c-.75-.75-2.07-.76-2.83,0l-.89.89c-.38.38-.59.88-.59,1.42,0,.53.21,1.04.59,1.41l.39.39-.89.89c-.78.78-.78,2.05,0,2.83l3.39,3.39c.38.38.88.59,1.41.59s1.04-.21,1.41-.59l.89-.89.39.39c.39.39.9.58,1.41.58s1.02-.2,1.41-.58l.89-.89c.78-.78.78-2.05,0-2.83l-2.79-2.79,2.59-2.59,2.79,2.79c.39.39.9.58,1.41.58s1.02-.2,1.41-.58l.89-.89c.38-.38.59-.88.59-1.42,0-.53-.21-1.04-.59-1.41l-.39-.39.89-.89c.78-.78.78-2.05,0-2.83Zm-13.2,13.2l-3.39-3.39.89-.89,3.39,3.39-.89.89Zm4.1-.5l-6.99-6.99.89-.89,6.99,6.99-.89.89Zm6.3-6.3l-6.99-6.99h0s.89-.89.89-.89l6.99,6.99-.89.89Zm-2-8.37l3.39,3.39-.89.89-3.39-3.39.89-.89Z"/></svg>