<svg xmlns="http://www.w3.org/2000/svg" viewBox="0 0 24 24" width="24" height="24"><path d="m18.5,11h-3c-1.38,0-2.5,1.12-2.5,2.5v5c0,1.38,1.12,2.5,2.5,2.5h3c1.38,0,2.5-1.12,2.5-2.5v-5c0-1.38-1.12-2.5-2.5-2.5Zm.5,7.5c0,.28-.22.5-.5.5h-3c-.28,0-.5-.22-.5-.5v-5c0-.28.22-.5.5-.5h3c.28,0,.5.22.5.5v5Z"/><path d="m8.5,15h-3c-1.38,0-2.5,1.12-2.5,2.5v1c0,1.38,1.12,2.5,2.5,2.5h3c1.38,0,2.5-1.12,2.5-2.5v-1c0-1.38-1.12-2.5-2.5-2.5Zm.5,3.5c0,.28-.22.5-.5.5h-3c-.28,0-.5-.22-.5-.5v-1c0-.28.22-.5.5-.5h3c.28,0,.5.22.5.5v1Z"/><path d="m18.5,3h-3c-1.38,0-2.5,1.12-2.5,2.5v1c0,1.38,1.12,2.5,2.5,2.5h3c1.38,0,2.5-1.12,2.5-2.5v-1c0-1.38-1.12-2.5-2.5-2.5Zm.5,3.5c0,.28-.22.5-.5.5h-3c-.28,0-.5-.22-.5-.5v-1c0-.28.22-.5.5-.5h3c.28,0,.5.22.5.5v1Z"/><path d="m8.5,3h-3c-1.38,0-2.5,1.12-2.5,2.5v5c0,1.38,1.12,2.5,2.5,2.5h3c1.38,0,2.5-1.12,2.5-2.5v-5c0-1.38-1.12-2.5-2.5-2.5Zm.5,7.5c0,.28-.22.5-.5.5h-3c-.28,0-.5-.22-.5-.5v-5c0-.28.22-.5.5-.5h3c.28,0,.5.22.5.5v5Z"/></svg>