<svg xmlns="http://www.w3.org/2000/svg" viewBox="0 0 24 24" width="24" height="24"><path d="m19,8h-2v-3c0-1.65-1.35-3-3-3H5c-1.65,0-3,1.35-3,3v6c0,1.65,1.35,3,3,3v1c0,.57.32,1.09.83,1.34.21.11.44.16.67.16.32,0,.63-.1.9-.3l1.6-1.2v1c0,1.65,1.35,3,3,3h2.67l2.93,2.2c.27.2.58.31.9.31.23,0,.46-.05.67-.16.51-.26.83-.77.83-1.34v-1.17c.42-.15.8-.39,1.11-.7.58-.56.89-1.32.89-2.13v-5c0-1.65-1.35-3-3-3Zm-12,6v-1c0-.55-.45-1-1-1h-1c-.55,0-1-.45-1-1v-6c0-.55.45-1,1-1h9c.55,0,1,.45,1,1v6c0,.55-.45,1-1,1h-4c-.12,0-.24.03-.35.07-.04.02-.07.04-.11.06-.05.02-.09.04-.14.07l-2.4,1.8Zm13,2c0,.27-.1.51-.31.71-.18.18-.43.29-.69.29-.55,0-1,.45-1,1v1l-2.4-1.8c-.17-.13-.38-.2-.6-.2h-3c-.55,0-1-.45-1-1v-2h3c1.65,0,3-1.35,3-3v-1h2c.55,0,1,.45,1,1v5Z"/></svg>