<svg xmlns="http://www.w3.org/2000/svg" width="24" height="24" viewBox="0 0 24 24"><path d="M15 4.59 13.41 3c-.78-.78-2.05-.78-2.83 0L8.99 4.59c-.78.78-.78 2.05 0 2.83l1.59 1.59c.39.39.9.58 1.41.58s1.02-.2 1.41-.58l1.59-1.59c.78-.78.78-2.05 0-2.83Zm-3 3L10.41 6 12 4.41 13.59 6zM10.59 15 9 16.59c-.78.78-.78 2.05 0 2.83l1.59 1.59c.39.39.9.58 1.41.58s1.02-.2 1.41-.58L15 19.42c.78-.78.78-2.05 0-2.83L13.41 15c-.78-.78-2.05-.78-2.83 0Zm3 3L12 19.59 10.41 18 12 16.41zM19.41 9c-.78-.78-2.05-.78-2.83 0l-1.59 1.59c-.78.78-.78 2.05 0 2.83l1.59 1.59c.39.39.9.58 1.41.58s1.02-.2 1.41-.58l1.59-1.59c.78-.78.78-2.05 0-2.83L19.4 9ZM18 13.59 16.41 12 18 10.41 19.59 12zM4.59 9 3 10.59c-.78.78-.78 2.05 0 2.83l1.59 1.59c.39.39.9.58 1.41.58s1.02-.2 1.41-.58L9 13.42c.78-.78.78-2.05 0-2.83L7.41 9c-.78-.78-2.05-.78-2.83 0ZM6 13.59 4.41 12 6 10.41 7.59 12z"/></svg>