<svg xmlns="http://www.w3.org/2000/svg" viewBox="0 0 24 24" width="24" height="24"><path d="M13 2A2 2 0 1 0 13 6 2 2 0 1 0 13 2z"/><path d="M19 18A2 2 0 1 0 19 22 2 2 0 1 0 19 18z"/><path d="m20,7h-7.59c-3.09,0-6.06,1.23-8.24,3.41l-.17.17c-.39.39-.39,1.02,0,1.41h0c.39.39,1.02.39,1.41,0l.46-.46c1.33-1.33,3.03-2.17,4.86-2.43l-1.16,5.42-4.64,5.06c-.37.41-.35,1.04.06,1.41h0c.41.37,1.04.35,1.41-.06l5.01-5.46v-.05s1.78,1.42,1.78,1.42c.14.11.18.26.18.34,0,.08,0,.23-.11.37l-2.44,3.05c-.34.43-.28,1.06.16,1.41.43.34,1.06.27,1.41-.16l2.44-3.05c.42-.52.61-1.17.53-1.84-.07-.66-.4-1.26-.92-1.68l-.85-.68,1.2-5.61h5.19c.55,0,1-.45,1-1h0c0-.55-.45-1-1-1Z"/></svg>