<svg xmlns="http://www.w3.org/2000/svg" width="24" height="24" viewBox="0 0 24 24"><path d="M19.5 3H8.08a4.03 4.03 0 0 0-3.75 2.59l-2.17 5.8c-.11.28-.16.58-.16.88v1.23A2.5 2.5 0 0 0 4.5 16h5.11l-.9 2.71c-.25.76-.13 1.6.34 2.25S10.28 22 11.08 22h.57c.52 0 1.01-.23 1.34-.63L17.47 16h2.03a2.5 2.5 0 0 0 2.5-2.5v-8A2.5 2.5 0 0 0 19.5 3M16 14.64 11.53 20h-.45c-.22 0-.35-.13-.41-.21a.48.48 0 0 1-.07-.45l1.01-3.04c.18-.53.09-1.12-.24-1.58s-.86-.73-1.42-.73H4.49c-.28 0-.5-.22-.5-.5v-1.23q0-.09.03-.18l2.17-5.8a2 2 0 0 1 1.87-1.3h7.92v9.64Zm4-1.14c0 .28-.22.5-.5.5H18V5h1.5c.28 0 .5.22.5.5z"/></svg>