<svg xmlns="http://www.w3.org/2000/svg" viewBox="0 0 24 24" width="24" height="24"><path d="m21,6h-1.5c-.31,0-.61-.15-.8-.4l-.3-.4c-.56-.75-1.46-1.2-2.4-1.2h-2.43c-.6-1.13-1.34-1.63-1.88-1.84-.33-.13-.69.11-.69.47v2.31s0,.04,0,.07v4h-5c-1.82,0-1.99-1.53-2-2.01,0-.55-.45-.99-1-.99s-1,.45-1,1c0,1.17.57,2.73,2,3.51v8.99c0,1.38,1.12,2.5,2.5,2.5s2.5-1.12,2.5-2.5v-1.5h3v1.5c0,1.38,1.12,2.5,2.5,2.5s2.5-1.12,2.5-2.5v-5.78l.42-.14c1.39-.46,2.67-1.25,3.7-2.29.57-.57.88-1.32.88-2.12v-2.17c0-.55-.45-1-1-1Zm-6.5,14c-.28,0-.5-.22-.5-.5v-2.5c0-.55-.45-1-1-1h-5c-.55,0-1,.45-1,1v2.5c0,.28-.22.5-.5.5s-.5-.22-.5-.5v-8.5h5.61c.69,1.34,1.91,2.37,3.39,2.79v5.71c0,.28-.22.5-.5.5Zm5.5-10.83c0,.27-.1.52-.29.71-.82.82-1.83,1.44-2.92,1.8l-.79.27c-1.69-.25-2.99-1.69-2.99-3.45v-2.5h3c.31,0,.61.15.8.4l.3.4c.56.75,1.46,1.2,2.4,1.2h.5v1.17Z"/><path d="M15.88 7.260000000000001A.87.87 0 1 0 15.88 9 .87.87 0 1 0 15.88 7.260000000000001z"/></svg>