<svg xmlns="http://www.w3.org/2000/svg" viewBox="0 0 24 24" width="24" height="24"><path d="m17,4H7c-2.76,0-5,2.24-5,5v6c0,2.76,2.24,5,5,5h10c2.76,0,5-2.24,5-5v-6c0-2.76-2.24-5-5-5Zm2.7,12.29l-3.94-3.94,4.24-3.3v5.96c0,.46-.11.89-.3,1.29ZM7,6h10c.92,0,1.73.42,2.28,1.07l-6.97,5.42c-.18.14-.43.14-.61,0l-6.97-5.42c.55-.65,1.36-1.07,2.28-1.07Zm-3,9v-5.96l4.24,3.3-3.94,3.94c-.19-.39-.3-.82-.3-1.29Zm3,3c-.46,0-.89-.11-1.29-.3l4.12-4.12.63.49c.45.35.99.53,1.53.53s1.08-.18,1.53-.53l.63-.49,4.12,4.12c-.39.19-.82.3-1.29.3H7Z"/></svg>