<svg xmlns="http://www.w3.org/2000/svg" width="24" height="24" viewBox="0 0 24 24"><path d="M12 5c-6.12 0-8.78 4.15-9.63 5.93-.33.68-.33 1.46 0 2.13.86 1.78 3.51 5.93 9.63 5.93s8.78-4.15 9.63-5.93c.33-.68.33-1.46 0-2.13C20.77 9.15 18.12 5 12 5m7.83 7.2C19.14 13.64 16.98 17 12 17s-7.14-3.36-7.83-4.8a.47.47 0 0 1 0-.4C4.86 10.36 7.02 7 12 7s7.14 3.36 7.83 4.8c.06.13.06.27 0 .4"/><path d="M14.53 11.51s-.43.49-1.03.49c-.83 0-1.5-.67-1.5-1.5 0-.6.49-1.03.49-1.03.21-.18.16-.38-.11-.45 0 0-.08-.02-.38-.02-1.64 0-3 1.36-3 3s1.36 3 3 3 3-1.36 3-3c0-.3-.02-.38-.02-.38-.07-.27-.27-.31-.45-.11"/></svg>