<svg xmlns="http://www.w3.org/2000/svg" viewBox="0 0 24 24" width="24" height="24"><path d="m21,5H3c-.55,0-1,.45-1,1v8c0,.55.45,1,1,1h2v1c0,.55.45,1,1,1h2v1c0,.55.45,1,1,1h6c.55,0,1-.45,1-1v-1h2c.55,0,1-.45,1-1v-1h2c.55,0,1-.45,1-1V6c0-.55-.45-1-1-1Zm-1,8h-2c-.55,0-1,.45-1,1v1h-2c-.55,0-1,.45-1,1v1h-4v-1c0-.55-.45-1-1-1h-2v-1c0-.55-.45-1-1-1h-2v-6h16v6Z"/><path d="m7,11c.55,0,1-.45,1-1v-1c0-.55-.45-1-1-1s-1,.45-1,1v1c0,.55.45,1,1,1Z"/><path d="m10.33,11c.55,0,1-.45,1-1v-1c0-.55-.45-1-1-1s-1,.45-1,1v1c0,.55.45,1,1,1Z"/><path d="m13.67,11c.55,0,1-.45,1-1v-1c0-.55-.45-1-1-1s-1,.45-1,1v1c0,.55.45,1,1,1Z"/><path d="m17,11c.55,0,1-.45,1-1v-1c0-.55-.45-1-1-1s-1,.45-1,1v1c0,.55.45,1,1,1Z"/></svg>