<svg xmlns="http://www.w3.org/2000/svg" viewBox="0 0 24 24" width="24" height="24"><path d="m18,6h-3v-1c0-1.65-1.35-3-3-3s-3,1.35-3,3v1h-3c-1.65,0-3,1.35-3,3v2.5c0,.83.67,1.5,1.5,1.5h1.5c.55,0,1,.45,1,1s-.45,1-1,1h-1.5c-.83,0-1.5.67-1.5,1.5v2.5c0,1.65,1.35,3,3,3h12c1.65,0,3-1.35,3-3v-10c0-1.65-1.35-3-3-3Zm1,13c0,.55-.45,1-1,1H6c-.55,0-1-.45-1-1v-2h1c1.65,0,3-1.35,3-3s-1.35-3-3-3h-1v-2c0-.55.45-1,1-1h3.5c.83,0,1.5-.67,1.5-1.5v-1.5c0-.55.45-1,1-1s1,.45,1,1v1.5c0,.83.67,1.5,1.5,1.5h3.5c.55,0,1,.45,1,1v10Z"/></svg>