<svg xmlns="http://www.w3.org/2000/svg" viewBox="0 0 24 24" width="24" height="24"><path d="m13,2.06c-4.46-.55-8.33,2.61-8.92,6.8-.09.6.39,1.14,1,1.14.49,0,.91-.36.98-.85.44-3.12,3.29-5.47,6.59-5.12,3.38.36,5.66,3.62,5.29,7.01-.24,2.21-1.29,2.88-2.68,3.77-.66.42-1.34.85-1.97,1.48-.61.6-1.11,1.19-1.56,1.7-1.17,1.35-1.78,2-2.73,2-1.38,0-2.54-.93-2.89-2.2-.13-.46-.5-.8-.98-.8h0c-.66,0-1.13.63-.97,1.27.55,2.1,2.43,3.66,4.68,3.73,1.23.04,2.4-.54,3.26-1.42.88-.9,1.58-1.84,2.61-2.87.47-.47,1.04-.83,1.63-1.21,1.44-.92,3.04-1.93,3.52-4.7.8-4.6-2.22-9.17-6.85-9.74Z"/><path d="m13.41,8.59c.23.23.39.5.49.79.13.39.52.62.93.62.67,0,1.17-.66.95-1.3-.25-.74-.73-1.4-1.38-1.9-1.35-1.03-3.28-1.07-4.67-.1-1.11.78-1.73,1.99-1.73,3.3v3c0,.55.45,1,1,1s1-.45,1-1v-1.82c.42.15.81.38,1.12.7.36.36.63.82.77,1.32.13.46.5.8.98.8h0c.65,0,1.13-.62.97-1.25-.23-.88-.69-1.66-1.31-2.29s-1.44-1.09-2.34-1.31c.1-.21.23-.41.39-.57.75-.76,2.07-.76,2.83,0Z"/></svg>