<svg xmlns="http://www.w3.org/2000/svg" width="24" height="24" viewBox="0 0 24 24"><path d="M7 21h10c2.21 0 4-1.79 4-4v-4c0-.55-.45-1-1-1s-1 .45-1 1v4c0 1.1-.9 2-2 2H7c-1.1 0-2-.9-2-2V7c0-1.1.9-2 2-2h4c.55 0 1-.45 1-1s-.45-1-1-1H7C4.79 3 3 4.79 3 7v10c0 2.21 1.79 4 4 4"/><path d="M7 13.21v2.29c0 .83.67 1.5 1.5 1.5h2.29c.4 0 .78-.16 1.06-.44l7.79-7.79c.97-.97.97-2.56 0-3.54l-.88-.88c-.94-.95-2.59-.95-3.54 0l-7.79 7.79c-.28.28-.44.66-.44 1.06Zm10-7.59c.08 0 .23.02.35.15l.88.88c.19.2.19.51 0 .71l-.73.73-1.59-1.59.73-.73c.13-.13.28-.15.35-.15Zm-8 7.79 5.5-5.5 1.59 1.59-5.5 5.5H9z"/></svg>