<svg xmlns="http://www.w3.org/2000/svg" width="24" height="24" viewBox="0 0 24 24"><path d="m12.93 16.96-.45.03c-.31.01-.64.01-.94 0-.16 0-.31-.02-.45-.03-.15-.01-.29-.03-.44-.05l-.41-.06c-.13-.03-.27-.05-.4-.08l-.38-.09c-.12-.03-.24-.07-.37-.11-.12-.04-.23-.08-.35-.12-.11-.04-.23-.09-.34-.13-.11-.05-.21-.09-.31-.14s-.21-.1-.31-.16c-.1-.05-.2-.11-.29-.16-.09-.06-.19-.11-.27-.17l-.27-.18c-.08-.06-.17-.12-.25-.18s-.16-.13-.24-.19l-.23-.2-1.11-1.2-.94-1.52-.04-.1v-.22s.03-.09.03-.1l.95-1.53a.99.99 0 0 0-.19-1.4c-.44-.33-1.07-.25-1.4.19l-.18.24-.98 1.64s-.05.11-.05.12c0 0-.05.13-.05.14s-.03.1-.04.11l-.04.16-.02.11s-.02.13-.02.15v.12s-.01.14-.02.15v.27s.02.11.03.13c0 .02.02.12.03.14l.04.14c0 .01.03.1.03.11 0 .02.05.14.06.16 0 .01.05.11.05.12l1.56 2.37.22.25c.07.08.15.17.24.25.08.08.16.16.25.24s.17.16.27.25c.09.08.18.16.28.24s.19.16.29.23c.1.08.21.16.31.23.11.08.22.15.33.23.11.07.23.14.35.21s.24.14.36.2c.12.07.25.13.38.19s.26.12.4.18.27.11.41.17c.14.05.29.1.43.15.15.05.3.09.46.14.15.04.31.08.47.12s.32.07.49.1c.16.03.33.05.5.08l.52.06c.17.01.35.03.54.04.18 0 .37.01.56.01s.37 0 .56-.01c.18 0 .36-.02.53-.04.55-.05.96-.53.91-1.08s-.53-.97-1.08-.91ZM18.4 16.99c1.77-1.32 2.77-2.96 3.23-3.92.33-.68.33-1.46 0-2.13-.86-1.78-3.51-5.93-9.63-5.93-1.85 0-3.36.39-4.62.97L3.7 2.3a.996.996 0 1 0-1.41 1.41l7.01 7.01 3.98 3.98 7.01 7.01c.2.2.45.29.71.29s.51-.1.71-.29a.996.996 0 0 0 0-1.41zM12 7c4.98 0 7.14 3.36 7.83 4.8.06.13.06.27 0 .4-.39.82-1.27 2.26-2.87 3.35l-2.26-2.26c.19-.39.3-.83.3-1.29 0-1.64-1.36-3-3-3-.46 0-.89.11-1.29.3l-1.8-1.8c.88-.31 1.9-.5 3.09-.5"/></svg>