<svg xmlns="http://www.w3.org/2000/svg" viewBox="0 0 24 24" width="24" height="24"><path d="m13.91,4.36c-.52-.47-1.24-.57-1.88-.29-.64.29-1.03.9-1.03,1.6v2.33h-1c-4.41,0-8,3.59-8,8v1.86c0,.75.46,1.4,1.17,1.65.71.25,1.48.03,1.95-.56l.56-.7c1.15-1.43,2.85-2.25,4.69-2.25h.64v2.33c0,.7.4,1.31,1.03,1.6.23.11.48.16.72.16.42,0,.83-.15,1.16-.45l7.12-6.33c.37-.33.59-.81.59-1.31s-.21-.98-.59-1.31l-7.12-6.33Zm-.91,13.41v-2.77c0-.55-.45-1-1-1h-1.64c-2.44,0-4.72,1.09-6.25,3l-.12.15v-1.15c0-3.31,2.69-6,6-6h2c.55,0,1-.45,1-1v-2.77l6.49,5.77-6.49,5.77Z"/></svg>