<svg xmlns="http://www.w3.org/2000/svg" viewBox="0 0 24 24" width="24" height="24"><path d="m18,4h-6.38c-.13,0-.26-.05-.35-.15l-1.12-1.12c-.47-.47-1.11-.73-1.77-.73h-3.88c-1.38,0-2.5,1.12-2.5,2.5v11.5c0,2.21,1.79,4,4,4h12c2.21,0,4-1.79,4-4v-8c0-2.21-1.79-4-4-4Zm2,12c0,1.1-.9,2-2,2H6c-1.1,0-2-.9-2-2V6h14c1.1,0,2,.9,2,2v8Z"/><path d="m14.93,10.73l-1.37-.12c-.17-.02-.33-.12-.41-.28l-.7-1.43c-.18-.37-.71-.37-.9,0l-.7,1.43c-.08.16-.23.26-.41.28l-1.37.12c-.42.04-.61.55-.31.85l1.15,1.15c.13.13.18.32.12.5l-.44,1.43c-.14.45.36.82.76.56l1.38-.92c.17-.11.39-.11.55,0l1.38.92c.39.26.89-.11.76-.56l-.44-1.43c-.05-.18,0-.37.12-.5l1.15-1.15c.3-.3.11-.82-.31-.85Z"/></svg>