<svg xmlns="http://www.w3.org/2000/svg" viewBox="0 0 24 24" width="24" height="24"><path d="M16 10A1 1 0 1 0 16 12 1 1 0 1 0 16 10z"/><path d="m2.8,14.9c-.46.11-.8.5-.8.98,0,.63.58,1.12,1.2.98,1.16-.27,2.48-.97,3.22-2.35,1.28,1.59,3.55,3.5,7.09,3.5,5.95,0,8.32-5.38,8.42-5.61.11-.25.11-.54,0-.79-.1-.23-2.47-5.61-8.42-5.61-3.54,0-5.81,1.91-7.09,3.5-.74-1.39-2.05-2.09-3.22-2.35-.61-.14-1.19.35-1.2.98,0,.48.34.87.8.98.91.21,2.2.87,2.2,2.9s-1.29,2.69-2.2,2.9Zm10.7-6.9c3.83,0,5.79,2.91,6.38,4-.6,1.09-2.55,4-6.38,4s-5.79-2.92-6.38-4c.6-1.09,2.55-4,6.38-4Z"/></svg>