<svg xmlns="http://www.w3.org/2000/svg" viewBox="0 0 24 24" width="24" height="24"><path d="m18.93,9.73l-4.93-.62v-4.12c0-1.65-1.35-3-3-3s-3,1.35-3,3v9.38l-1.04-.52c-1.31-.66-2.92-.23-3.73.99-.43.65-.59,1.42-.43,2.19.15.76.59,1.42,1.24,1.85l3.65,2.43c.66.44,1.43.67,2.22.67h8.09c2.21,0,4-1.79,4-4v-4.79c0-1.76-1.32-3.25-3.07-3.47Zm-4.93-.62,6,8.88c0,1.1-.9,2-2,2h-8.09c-.4,0-.78-.12-1.11-.34l-3.65-2.43c-.2-.14-.34-.34-.39-.58s0-.48.14-.69c.17-.26.47-.41.76-.41.14,0,.28.03.41.1l1.4.7c.55.27,1.18.24,1.7-.08s.83-.88.83-1.49V5c0-.55.45-1,1-1s1,.45,1,1v4.12c0,1.01.75,1.86,1.75,1.98l4.93.62c.75.09,1.31.73,1.31,1.49v4.79Z"/></svg>