<svg xmlns="http://www.w3.org/2000/svg" viewBox="0 0 24 24" width="24" height="24"><path d="m18,4h-6.38c-.13,0-.26-.05-.35-.15l-1.12-1.12c-.47-.47-1.11-.73-1.77-.73h-3.88c-1.38,0-2.5,1.12-2.5,2.5v11.5c0,2.21,1.79,4,4,4h12c2.21,0,4-1.79,4-4v-8c0-2.21-1.79-4-4-4Zm2,12c0,1.1-.9,2-2,2H6c-1.1,0-2-.9-2-2V6h14c1.1,0,2,.9,2,2v8Z"/><path d="m15.67,10.36l-.42-.73c-.18-.31-.57-.41-.88-.23l-.34.2c-.29-.25-.62-.44-.97-.57v-.39c0-.35-.29-.64-.64-.64h-.84c-.35,0-.64.29-.64.64v.39c-.35.13-.68.32-.97.57l-.34-.2c-.31-.18-.7-.07-.88.23l-.42.73c-.18.31-.07.7.23.88l.33.19c-.04.19-.05.38-.05.57s.02.38.05.57l-.33.19c-.31.18-.41.57-.23.88l.42.73c.18.3.57.41.88.23l.34-.2c.29.25.62.44.97.57v.39c0,.35.29.64.64.64h.84c.35,0,.64-.29.64-.64v-.39c.35-.13.68-.32.97-.57l.34.2c.31.18.7.07.88-.23l.42-.73c.18-.31.07-.7-.23-.88l-.33-.19c.04-.19.05-.38.05-.57s-.02-.38-.05-.57l.33-.19c.31-.18.41-.57.23-.88Zm-3.67,3.18c-.84,0-1.55-.71-1.55-1.55s.71-1.55,1.55-1.55,1.55.71,1.55,1.55-.71,1.55-1.55,1.55Z"/></svg>