<svg xmlns="http://www.w3.org/2000/svg" width="24" height="24" viewBox="0 0 24 24"><path d="M10.75 12a.996.996 0 0 0-1.41 0l-1.79 1.79a.996.996 0 0 0 0 1.41l1.79 1.79a.996.996 0 1 0 1.41-1.41l-1.09-1.09 1.09-1.09a.996.996 0 0 0 0-1.41ZM14.66 12a.996.996 0 1 0-1.41 1.41l1.09 1.09-1.09 1.09A.996.996 0 1 0 14.66 17l1.79-1.79a.996.996 0 0 0 0-1.41l-1.79-1.79Z"/><path d="m19.94 7.68-.03-.09a.8.8 0 0 0-.2-.29l-5-5c-.09-.09-.19-.15-.29-.2l-.09-.03a.8.8 0 0 0-.26-.05c-.02 0-.04-.01-.06-.01h-6c-2.21 0-4 1.79-4 4v12c0 2.21 1.79 4 4 4h8c2.21 0 4-1.79 4-4v-10S20 7.97 20 7.95c0-.09-.02-.17-.05-.26ZM16 20H8c-1.1 0-2-.9-2-2V6c0-1.1.9-2 2-2h5v2.5A2.5 2.5 0 0 0 15.5 9H18v9c0 1.1-.9 2-2 2"/></svg>