<svg xmlns="http://www.w3.org/2000/svg" viewBox="0 0 24 24" width="24" height="24"><path d="m5.07,14.27l4.93.62v4.12c0,1.65,1.35,3,3,3s3-1.35,3-3v-9.38l1.04.52c1.31.66,2.91.23,3.73-.99.89-1.34.53-3.15-.81-4.04l-3.65-2.43c-.66-.44-1.43-.67-2.22-.67H6c-2.21,0-4,1.79-4,4v4.79c0,1.76,1.32,3.25,3.07,3.47Zm4.93.62h0s0,0,0,0ZM4,6c0-1.1.9-2,2-2h8.09c.4,0,.78.12,1.11.34l3.65,2.43c.42.28.53.85.25,1.27-.26.38-.76.52-1.17.31l-1.4-.7c-.55-.27-1.18-.24-1.7.08-.52.32-.83.88-.83,1.49v9.79c0,.55-.45,1-1,1s-1-.45-1-1v-4.12c0-1.01-.75-1.86-1.75-1.98l-4.93-.62c-.75-.09-1.31-.73-1.31-1.49v-4.79Z"/></svg>