<svg xmlns="http://www.w3.org/2000/svg" viewBox="0 0 24 24" width="24" height="24"><path d="m3,18c1.51,0,2.95-.48,4.14-1.35.76.7,1.68,1.27,2.72,1.68.39.15.65.49.65.87v1.81c0,.55.45,1,1,1,2.65,0,4.87-1.52,5.38-3.58,3.09-1.09,5.12-3.6,5.12-6.42s-2.03-5.33-5.12-6.42c-.52-2.06-2.73-3.58-5.38-3.58-.55,0-1,.45-1,1v1.81c0,.37-.25.71-.65.87-1.04.4-1.96.98-2.72,1.68-1.19-.88-2.63-1.35-4.14-1.35-.55,0-1,.45-1,1,0,1.89.74,3.66,2.09,5.02-1.35,1.32-2.09,3.09-2.09,4.98,0,.55.45,1,1,1Zm2.49-7.44c-.69-.68-1.15-1.51-1.36-2.43.89.21,1.71.65,2.38,1.31.2.2.46.3.76.29.28-.01.54-.15.72-.37.64-.78,1.54-1.41,2.6-1.83,1.17-.45,1.92-1.53,1.92-2.73v-.7c1.39.3,2.43,1.22,2.49,2.3.02.43.32.79.73.91,2.56.71,4.28,2.59,4.28,4.69s-1.72,3.98-4.28,4.69c-.41.11-.71.48-.73.91-.06,1.08-1.1,1.99-2.49,2.3v-.7c0-1.2-.75-2.28-1.92-2.73-1.06-.41-1.96-1.04-2.6-1.83-.18-.22-.44-.35-.72-.37-.02,0-.04,0-.05,0-.26,0-.52.1-.7.29-.67.66-1.49,1.11-2.38,1.31.21-.92.68-1.75,1.36-2.43.39-.39.61-.9.61-1.44s-.22-1.06-.61-1.44Z"/><path d="M17 10A1 1 0 1 0 17 12 1 1 0 1 0 17 10z"/><path d="m13.96,16.04c.13,0,.26-.05.35-.15.2-.2.2-.51,0-.71-.85-.85-1.32-1.98-1.32-3.18s.47-2.33,1.32-3.18c.2-.2.2-.51,0-.71s-.51-.2-.71,0c-1.04,1.04-1.61,2.42-1.61,3.89s.57,2.85,1.61,3.89c.1.1.23.15.35.15Z"/></svg>