<svg xmlns="http://www.w3.org/2000/svg" viewBox="0 0 24 24" width="24" height="24"><path d="m18.41,12.77l-3.41-.47v-3.2c0-1.52-1.08-2.83-2.5-3.07-.88-.14-1.77.1-2.44.67-.67.57-1.06,1.4-1.06,2.29v5.85l-1.19-.58c-.82-.41-1.79-.36-2.57.13-.78.49-1.25,1.33-1.25,2.25,0,.86.42,1.67,1.13,2.17l3.78,2.65c.51.35,1.1.54,1.72.54h7.37c1.65,0,3-1.35,3-3v-3.26c0-1.49-1.11-2.77-2.59-2.97Zm-3.41-.47h0s-1,0-1,0h1Zm4,6.7c0,.55-.45,1-1,1h-7.37c-.21,0-.4-.06-.57-.18l-3.78-2.65c-.17-.12-.28-.32-.28-.53,0-.32.21-.49.3-.55.06-.04.18-.1.34-.1.09,0,.18.02.28.07l1.91.94c.47.23,1.01.2,1.45-.07.44-.28.71-.75.71-1.27v-6.65c0-.29.13-.57.35-.76.23-.19.52-.27.82-.22.46.08.82.55.82,1.09v3.2c0,1,.74,1.85,1.73,1.98l3.41.47c.49.07.86.49.86.99v3.26Z"/><path d="m6,10c.55,0,1-.45,1-1,0-2.76,2.24-5,5-5s5,2.24,5,5c0,.55.45,1,1,1s1-.45,1-1c0-3.86-3.14-7-7-7s-7,3.14-7,7c0,.55.45,1,1,1Z"/></svg>