<svg xmlns="http://www.w3.org/2000/svg" viewBox="0 0 24 24" width="24" height="24"><path d="m12,2C6.49,2,2,6.49,2,12s4.49,10,10,10,10-4.49,10-10S17.51,2,12,2Zm0,18c-4.41,0-8-3.59-8-8S7.59,4,12,4s8,3.59,8,8-3.59,8-8,8Z"/><path d="m12.79,11.42l-3.57-2.92c-.49-.4-1.22-.05-1.22.58v5.83c0,.63.74.98,1.22.58l3.57-2.92c.37-.3.37-.86,0-1.16Z"/><path d="m13.22,8.5c-.49-.4-1.22-.05-1.22.58v.4l1.42,1.16c.41.33.64.83.64,1.35s-.23,1.02-.64,1.35l-1.42,1.16v.4c0,.63.74.98,1.22.58l3.57-2.92c.37-.3.37-.86,0-1.16l-3.57-2.92Z"/></svg>