<svg xmlns="http://www.w3.org/2000/svg" width="24" height="24" viewBox="0 0 24 24"><path d="m12.19 11.67-.19.19-.19-.19a1.89 1.89 0 0 0-2.66 0c-.74.74-.74 1.9 0 2.63l2.42 2.4c.23.23.61.23.84 0l2.42-2.4c.74-.73.74-1.89 0-2.63a1.89 1.89 0 0 0-2.66 0Z"/><path d="m19.94 7.68-.03-.09a.8.8 0 0 0-.2-.29l-5-5a1 1 0 0 0-.38-.23.9.9 0 0 0-.27-.05c-.02 0-.04-.01-.05-.01h-6c-2.21 0-4 1.79-4 4v12c0 2.21 1.79 4 4 4h8c2.21 0 4-1.79 4-4v-10S20 7.97 20 7.95c0-.09-.02-.17-.05-.26ZM16 20H8c-1.1 0-2-.9-2-2V6c0-1.1.9-2 2-2h5v2.5A2.5 2.5 0 0 0 15.5 9H18v9c0 1.1-.9 2-2 2"/></svg>