<svg xmlns="http://www.w3.org/2000/svg" width="24" height="24" viewBox="0 0 24 24"><path d="m15.67 12.36-.42-.73a.64.64 0 0 0-.88-.23l-.34.2c-.29-.25-.62-.44-.97-.57v-.39c0-.35-.29-.64-.64-.64h-.84c-.35 0-.64.29-.64.64v.39c-.35.13-.68.32-.97.57l-.34-.2a.65.65 0 0 0-.88.23l-.42.73c-.18.31-.07.7.23.88l.33.19c-.04.19-.05.38-.05.57s.02.38.05.57l-.33.19c-.31.18-.41.57-.23.88l.42.73c.18.3.57.41.88.23l.34-.2c.29.25.62.44.97.57v.39c0 .35.29.64.64.64h.84c.35 0 .64-.29.64-.64v-.39c.35-.13.68-.32.97-.57l.34.2c.31.18.7.07.88-.23l.42-.73c.18-.31.07-.7-.23-.88l-.33-.19c.04-.19.05-.38.05-.57s-.02-.38-.05-.57l.33-.19c.31-.18.41-.57.23-.88M12 15.54c-.84 0-1.55-.71-1.55-1.55s.71-1.55 1.55-1.55 1.55.71 1.55 1.55-.71 1.55-1.55 1.55"/><path d="m19.94 7.68-.03-.09a.8.8 0 0 0-.2-.29l-5-5c-.09-.09-.19-.15-.29-.2l-.09-.03a.9.9 0 0 0-.27-.05c-.02 0-.04-.01-.06-.01H8c-2.21 0-4 1.79-4 4v12c0 2.21 1.79 4 4 4h8c2.21 0 4-1.79 4-4v-10s-.01-.04-.01-.06c0-.09-.02-.17-.05-.26ZM16 20H8c-1.1 0-2-.9-2-2V6c0-1.1.9-2 2-2h5v2.5A2.5 2.5 0 0 0 15.5 9H18v9c0 1.1-.9 2-2 2"/></svg>