<svg xmlns="http://www.w3.org/2000/svg" viewBox="0 0 24 24" width="24" height="24"><path d="m18,4h-6.38c-.13,0-.26-.05-.35-.15l-1.12-1.12c-.47-.47-1.11-.73-1.77-.73h-3.88c-1.38,0-2.5,1.12-2.5,2.5v11.5c0,2.21,1.79,4,4,4h12c2.21,0,4-1.79,4-4v-8c0-2.21-1.79-4-4-4Zm2,12c0,1.1-.9,2-2,2H6c-1.1,0-2-.9-2-2V6h14c1.1,0,2,.9,2,2v8Z"/><path d="m14.79,9.11l-3.67,3.67-1.92-1.92c-.39-.39-1.02-.39-1.41,0s-.39,1.02,0,1.41l2.62,2.62c.2.2.45.29.71.29s.51-.1.71-.29l4.38-4.38c.39-.39.39-1.02,0-1.41s-1.02-.39-1.41,0Z"/></svg>