<svg xmlns="http://www.w3.org/2000/svg" viewBox="0 0 24 24" width="24" height="24"><path d="m2.5,10h3.29c.45,0,.67-.54.35-.85l-.84-.84c.92-2.49,3.79-4.31,7.19-4.31,3.78,0,6.92,2.25,7.43,5.17.08.48.49.83.98.83.61,0,1.1-.54,1-1.15-.66-3.87-4.63-6.85-9.4-6.85-3.89,0-7.23,1.98-8.7,4.8l-.95-.95c-.32-.31-.85-.09-.85.35v3.29c0,.28.22.5.5.5Z"/><path d="m12.5,6.04c-.88-.14-1.77.1-2.44.67-.67.57-1.06,1.4-1.06,2.29v5.85l-1.19-.58c-.82-.41-1.79-.36-2.57.13-.78.49-1.25,1.33-1.25,2.25,0,.86.42,1.67,1.13,2.17l3.78,2.65c.51.35,1.1.54,1.72.54h7.37c1.65,0,3-1.35,3-3v-3.26c0-1.49-1.11-2.77-2.59-2.97l-3.41-.47v-3.2c0-1.52-1.08-2.83-2.5-3.07Zm2.5,6.26h0s-1,0-1,0h1Zm3.14,2.45c.49.07.86.49.86.99v3.26c0,.55-.45,1-1,1h-7.37c-.21,0-.4-.06-.57-.18l-3.78-2.65c-.17-.12-.28-.32-.28-.53,0-.32.21-.49.3-.55.06-.04.18-.1.34-.1.09,0,.18.02.28.07l1.91.94c.47.23,1.01.2,1.45-.07.44-.28.71-.75.71-1.27v-6.65c0-.29.13-.57.35-.76.23-.19.52-.27.82-.22.46.08.82.55.82,1.09v3.2c0,1,.74,1.85,1.73,1.98l3.41.47Z"/></svg>