<svg xmlns="http://www.w3.org/2000/svg" viewBox="0 0 24 24" width="24" height="24"><path d="M14 2A2 2 0 1 0 14 6 2 2 0 1 0 14 2z"/><path d="M6 18A2 2 0 1 0 6 22 2 2 0 1 0 6 18z"/><path d="m20,7h-7c-2.44,0-4.71,1.19-6.09,3.15-.35.5-.16,1.19.38,1.47.44.22.97.08,1.26-.32.7-.99,1.71-1.7,2.85-2.05l-1.72,4.13c-1.4,1.05-3.12,1.63-4.88,1.63h-.8c-.55,0-1,.45-1,1h0c0,.55.45,1,1,1h.8c2.26,0,4.47-.77,6.24-2.16l.95,1.67c.45.78.32,1.77-.32,2.41l-1.67,1.67c-.39.39-.39,1.02,0,1.41h0c.39.39,1.02.39,1.41,0l1.67-1.67c1.28-1.28,1.54-3.25.64-4.81l-.61-1.06,2.52-5.45h4.36c.55,0,1-.45,1-1s-.45-1-1-1Z"/></svg>