<svg xmlns="http://www.w3.org/2000/svg" width="24" height="24" viewBox="0 0 24 24"><path d="M5 16v.18c-1.16.41-2 1.51-2 2.82 0 1.65 1.35 3 3 3s3-1.35 3-3c0-1.3-.84-2.4-2-2.82V13h8c2.21 0 4-1.79 4-4V7.82c1.16-.41 2-1.51 2-2.82 0-1.65-1.35-3-3-3s-3 1.35-3 3c0 1.3.84 2.4 2 2.82V9c0 1.1-.9 2-2 2H7V7.82C8.16 7.41 9 6.31 9 5c0-1.65-1.35-3-3-3S3 3.35 3 5c0 1.3.84 2.4 2 2.82zM18 4c.55 0 1 .45 1 1s-.45 1-1 1-1-.45-1-1 .45-1 1-1M6 4c.55 0 1 .45 1 1s-.45 1-1 1-1-.45-1-1 .45-1 1-1m0 16c-.55 0-1-.45-1-1s.45-1 1-1 1 .45 1 1-.45 1-1 1"/></svg>