<svg xmlns="http://www.w3.org/2000/svg" width="24" height="24" viewBox="0 0 24 24"><path d="M6.5 16h-3c-.83 0-1.5.67-1.5 1.5v3c0 .83.67 1.5 1.5 1.5h3c.83 0 1.5-.67 1.5-1.5v-3c0-.83-.67-1.5-1.5-1.5M6 20H4v-2h2zM13.5 16h-3c-.83 0-1.5.67-1.5 1.5v3c0 .83.67 1.5 1.5 1.5h3c.83 0 1.5-.67 1.5-1.5v-3c0-.83-.67-1.5-1.5-1.5m-.5 4h-2v-2h2zM20.5 16h-3c-.83 0-1.5.67-1.5 1.5v3c0 .83.67 1.5 1.5 1.5h3c.83 0 1.5-.67 1.5-1.5v-3c0-.83-.67-1.5-1.5-1.5m-.5 4h-2v-2h2zM6.5 9h-3C2.67 9 2 9.67 2 10.5v3c0 .83.67 1.5 1.5 1.5h3c.83 0 1.5-.67 1.5-1.5v-3C8 9.67 7.33 9 6.5 9M6 13H4v-2h2zM13.5 9h-3C9.67 9 9 9.67 9 10.5v3c0 .83.67 1.5 1.5 1.5h3c.83 0 1.5-.67 1.5-1.5v-3c0-.83-.67-1.5-1.5-1.5m-.5 4h-2v-2h2zM20.5 9h-3c-.83 0-1.5.67-1.5 1.5v3c0 .83.67 1.5 1.5 1.5h3c.83 0 1.5-.67 1.5-1.5v-3c0-.83-.67-1.5-1.5-1.5m-.5 4h-2v-2h2zM6.5 2h-3C2.67 2 2 2.67 2 3.5v3C2 7.33 2.67 8 3.5 8h3C7.33 8 8 7.33 8 6.5v-3C8 2.67 7.33 2 6.5 2M6 6H4V4h2zM13.5 2h-3C9.67 2 9 2.67 9 3.5v3c0 .83.67 1.5 1.5 1.5h3c.83 0 1.5-.67 1.5-1.5v-3c0-.83-.67-1.5-1.5-1.5M13 6h-2V4h2zM20.5 2h-3c-.83 0-1.5.67-1.5 1.5v3c0 .83.67 1.5 1.5 1.5h3c.83 0 1.5-.67 1.5-1.5v-3c0-.83-.67-1.5-1.5-1.5M20 6h-2V4h2z"/></svg>