<svg xmlns="http://www.w3.org/2000/svg" viewBox="0 0 24 24" width="24" height="24"><path d="m19,7h-.21c.13-.41.21-.9.21-1.5,0-1.93-1.57-3.5-3.5-3.5-1.62,0-2.7,1.48-3.4,3.09-.69-1.51-1.83-3.09-3.6-3.09-1.93,0-3.5,1.57-3.5,3.5,0,.6.08,1.09.21,1.5h-.21c-1.65,0-3,1.35-3,3,0,1.3.84,2.4,2,2.82v6.18c0,1.65,1.35,3,3,3h10c1.65,0,3-1.35,3-3v-6.18c1.16-.41,2-1.51,2-2.82,0-1.65-1.35-3-3-3Zm-3.5-3c.83,0,1.5.67,1.5,1.5,0,1.5-.63,1.5-1,1.5h-2.48c.51-1.58,1.25-3,1.98-3Zm-8.5,1.5c0-.83.67-1.5,1.5-1.5.89,0,1.71,1.53,2.2,3h-2.7c-.37,0-1,0-1-1.5Zm-2,3.5h6v2h-6c-.55,0-1-.45-1-1s.45-1,1-1Zm2,11c-.55,0-1-.45-1-1v-6h5v7h-4Zm10,0h-4v-7h5v6c0,.55-.45,1-1,1Zm2-9h-6v-1.92s.01-.06.02-.08h5.98c.55,0,1,.45,1,1s-.45,1-1,1Z"/></svg>