<svg xmlns="http://www.w3.org/2000/svg" viewBox="0 0 24 24" width="24" height="24"><path d="m21.5,11.5h-.53c-.05-.86-.22-1.69-.49-2.47l.48-.2c.25-.11.38-.4.27-.65-.11-.25-.4-.38-.65-.27l-.49.2c-.37-.76-.84-1.47-1.4-2.09l.37-.37c.2-.2.2-.51,0-.71s-.51-.2-.71,0l-.37.37c-.63-.56-1.33-1.03-2.09-1.4l.2-.49c.11-.25-.02-.55-.27-.65-.25-.11-.55.02-.65.27l-.2.48c-.78-.27-1.61-.44-2.47-.49v-.53c0-.28-.22-.5-.5-.5s-.5.22-.5.5v.53c-.86.05-1.69.22-2.47.49l-.2-.48c-.11-.25-.4-.38-.65-.27-.25.11-.38.4-.27.65l.2.49c-.76.37-1.47.84-2.09,1.4l-.37-.37c-.2-.2-.51-.2-.71,0s-.2.51,0,.71l.37.37c-.56.63-1.03,1.33-1.4,2.09l-.49-.2c-.25-.1-.55.02-.65.27-.11.26.02.55.27.65l.48.2c-.27.78-.44,1.61-.49,2.47h-.53c-.28,0-.5.22-.5.5s.22.5.5.5h.53c.05.86.22,1.69.49,2.47l-.48.2c-.25.11-.38.4-.27.65.08.19.27.31.46.31.06,0,.13-.01.19-.04l.49-.2c.37.76.84,1.47,1.4,2.09l-.37.37c-.2.2-.2.51,0,.71.1.1.23.15.35.15s.26-.05.35-.15l.37-.37c.63.56,1.33,1.03,2.09,1.4l-.2.49c-.11.26.02.55.27.65.06.03.13.04.19.04.2,0,.38-.12.46-.31l.2-.48c.78.27,1.61.44,2.47.49v.53c0,.28.22.5.5.5s.5-.22.5-.5v-.53c.86-.05,1.69-.22,2.47-.49l.2.48c.08.19.27.31.46.31.06,0,.13-.01.19-.04.25-.11.38-.4.27-.65l-.2-.49c.76-.37,1.47-.84,2.09-1.4l.37.37c.1.1.23.15.35.15s.26-.05.35-.15c.2-.2.2-.51,0-.71l-.37-.37c.56-.63,1.03-1.33,1.4-2.09l.49.2c.06.03.13.04.19.04.2,0,.38-.12.46-.31.11-.25-.02-.55-.27-.65l-.48-.2c.27-.78.44-1.61.49-2.47h.53c.28,0,.5-.22.5-.5s-.22-.5-.5-.5Zm-9.5-6.5c3.1,0,5.72,2.02,6.65,4.81l-4.05.71c-.52-.91-1.48-1.53-2.6-1.53-.37,0-.72.08-1.05.2l-2.64-3.14c1.07-.67,2.33-1.06,3.68-1.06Zm1,7c0,.55-.45,1-1,1s-1-.45-1-1,.45-1,1-1,1,.45,1,1Zm-4.31,6.17c-2.2-1.18-3.69-3.5-3.69-6.17,0-1.79.68-3.42,1.79-4.66l2.64,3.14c-.26.45-.42.96-.42,1.51,0,.93.43,1.75,1.1,2.3l-1.41,3.86Zm3.31.83c-.49,0-.97-.05-1.43-.15l1.4-3.85s.02,0,.03,0c1.49,0,2.71-1.08,2.95-2.5l4.04-.71c0,.07.01.14.01.22,0,3.86-3.14,7-7,7Z"/></svg>