<svg xmlns="http://www.w3.org/2000/svg" viewBox="0 0 24 24" width="24" height="24"><path class="b" d="m17,3H7c-2.21,0-4,1.79-4,4v10c0,2.21,1.79,4,4,4h10c2.21,0,4-1.79,4-4V7c0-2.21-1.79-4-4-4Zm2,14c0,1.1-.9,2-2,2h-8.89c.24-.27.39-.61.39-1,0-.83-.67-1.5-1.5-1.5v-1c.83,0,1.5-.67,1.5-1.5s-.67-1.5-1.5-1.5v-1c.83,0,1.5-.67,1.5-1.5s-.67-1.5-1.5-1.5v-1c.83,0,1.5-.67,1.5-1.5,0-.39-.15-.73-.39-1h8.89c1.1,0,2,.9,2,2v10Z"/><path class="b" d="M11 5A1 1 0 1 0 11 7 1 1 0 1 0 11 5z"/><path class="b" d="M11 9A1 1 0 1 0 11 11 1 1 0 1 0 11 9z"/><path class="b" d="M9 11A1 1 0 1 0 9 13 1 1 0 1 0 9 11z"/><path class="b" d="M9 7A1 1 0 1 0 9 9 1 1 0 1 0 9 7z"/><path class="b" d="M9 15A1 1 0 1 0 9 17 1 1 0 1 0 9 15z"/><path class="b" d="M13 11.5A.5.5 0 1 0 13 12.5.5.5 0 1 0 13 11.5z"/><path class="b" d="M13 7.5A.5.5 0 1 0 13 8.5.5.5 0 1 0 13 7.5z"/><path class="b" d="M13 15.5A.5.5 0 1 0 13 16.5.5.5 0 1 0 13 15.5z"/><path class="b" d="M11 13A1 1 0 1 0 11 15 1 1 0 1 0 11 13z"/><path class="b" d="M11 17A1 1 0 1 0 11 19 1 1 0 1 0 11 17z"/><path class="b" d="M15 5.5A.5.5 0 1 0 15 6.5.5.5 0 1 0 15 5.5z"/><path class="b" d="M15 9.5A.5.5 0 1 0 15 10.5.5.5 0 1 0 15 9.5z"/><path class="b" d="M15 13.5A.5.5 0 1 0 15 14.5.5.5 0 1 0 15 13.5z"/><path class="b" d="M15 17.5A.5.5 0 1 0 15 18.5.5.5 0 1 0 15 17.5z"/></svg>