<svg xmlns="http://www.w3.org/2000/svg" viewBox="0 0 24 24" width="24" height="24"><path d="m14,20H3c-.55,0-1,.45-1,1s.45,1,1,1h11c.55,0,1-.45,1-1s-.45-1-1-1Z"/><path d="m14.91,12.5l2.73-2.73c.97-.97.97-2.56,0-3.54l-2.88-2.88c-.94-.95-2.59-.95-3.54,0l-6.88,6.88h0c-.97.97-.97,2.56,0,3.54l2.88,2.88c.47.47,1.1.73,1.77.73s1.3-.26,1.77-.73l2.73-2.73,6.79,6.79c.2.2.45.29.71.29s.51-.1.71-.29c.39-.39.39-1.02,0-1.41l-6.79-6.79Zm-3.41.59l-3.59-3.59,2.59-2.59,3.59,3.59-2.59,2.59Zm1.5-8.46c.08,0,.23.02.35.15l2.88,2.88c.19.2.19.51,0,.71l-.73.73-3.59-3.59.73-.73c.13-.13.28-.15.35-.15Zm-4,10.76c-.08,0-.23-.02-.35-.15l-2.88-2.88c-.19-.2-.19-.51,0-.71l.73-.73,3.59,3.59-.73.73c-.13.13-.28.15-.35.15Z"/></svg>