<svg xmlns="http://www.w3.org/2000/svg" viewBox="0 0 24 24" width="24" height="24"><path d="m20.89,7.72l-7.5-5c-.84-.56-1.93-.56-2.77,0L3.11,7.72c-.7.46-1.11,1.24-1.11,2.08v9.7c0,1.38,1.12,2.5,2.5,2.5h15c1.38,0,2.5-1.12,2.5-2.5v-9.7c0-.84-.42-1.62-1.11-2.08Zm-4.89,8.28h-8v-1.5c0-.28.22-.5.5-.5h7c.28,0,.5.22.5.5v1.5Zm-8,4v-2h8v2h-8Zm12-.5c0,.28-.22.5-.5.5h-1.5v-5.5c0-1.38-1.12-2.5-2.5-2.5h-7c-1.38,0-2.5,1.12-2.5,2.5v5.5h-1.5c-.28,0-.5-.22-.5-.5v-9.7c0-.17.08-.32.22-.42l7.5-5c.08-.06.18-.08.28-.08s.19.03.28.08l7.5,5c.14.09.22.25.22.42v9.7Z"/></svg>