<svg xmlns="http://www.w3.org/2000/svg" width="24" height="24" viewBox="0 0 24 24"><path d="M3 19c0 1.65 1.35 3 3 3s3-1.35 3-3c0-1.3-.84-2.4-2-2.82V7.82C8.16 7.41 9 6.31 9 5c0-1.65-1.35-3-3-3S3 3.35 3 5c0 1.3.84 2.4 2 2.82v8.37c-1.16.41-2 1.51-2 2.82Zm3 1c-.55 0-1-.45-1-1s.45-1 1-1 1 .45 1 1-.45 1-1 1M6 4c.55 0 1 .45 1 1s-.45 1-1 1-1-.45-1-1 .45-1 1-1M18 9c-.55 0-1 .45-1 1v6.18c-1.16.41-2 1.51-2 2.82 0 1.65 1.35 3 3 3s3-1.35 3-3c0-1.3-.84-2.4-2-2.82V10c0-.55-.45-1-1-1m0 11c-.55 0-1-.45-1-1s.45-1 1-1 1 .45 1 1-.45 1-1 1M20.71 2.29a.996.996 0 0 0-1.41 0l-1.29 1.29-1.29-1.29a.996.996 0 1 0-1.41 1.41l1.29 1.29-1.29 1.29a.996.996 0 0 0 .71 1.7c.26 0 .51-.1.71-.29l1.29-1.29 1.29 1.29c.2.2.45.29.71.29s.51-.1.71-.29a.996.996 0 0 0 0-1.41l-1.29-1.29 1.29-1.29a.996.996 0 0 0 0-1.41Z"/></svg>