<svg xmlns="http://www.w3.org/2000/svg" width="24" height="24" viewBox="0 0 24 24"><path d="M7 11c2.21 0 4-1.79 4-4S9.21 3 7 3 3 4.79 3 7s1.79 4 4 4m0-6c1.1 0 2 .9 2 2s-.9 2-2 2-2-.9-2-2 .9-2 2-2M17 13c-2.21 0-4 1.79-4 4s1.79 4 4 4 4-1.79 4-4-1.79-4-4-4m0 6c-1.1 0-2-.9-2-2s.9-2 2-2 2 .9 2 2-.9 2-2 2M18.5 3h-3A2.5 2.5 0 0 0 13 5.5v3a2.5 2.5 0 0 0 2.5 2.5h3A2.5 2.5 0 0 0 21 8.5v-3A2.5 2.5 0 0 0 18.5 3m.5 5.5c0 .28-.22.5-.5.5h-3c-.28 0-.5-.22-.5-.5v-3c0-.28.22-.5.5-.5h3c.28 0 .5.22.5.5zM5.5 21h3a2.5 2.5 0 0 0 2.5-2.5v-3A2.5 2.5 0 0 0 8.5 13h-3A2.5 2.5 0 0 0 3 15.5v3A2.5 2.5 0 0 0 5.5 21M5 15.5c0-.28.22-.5.5-.5h3c.28 0 .5.22.5.5v3c0 .28-.22.5-.5.5h-3c-.28 0-.5-.22-.5-.5z"/></svg>