<svg xmlns="http://www.w3.org/2000/svg" viewBox="0 0 24 24" width="24" height="24"><path class="b" d="m19.29,7.02c.45-.55.71-1.22.71-1.94,0-.82-.32-1.6-.9-2.18-1.16-1.16-3.19-1.16-4.35,0l-2.04,2.04c-.64-1.71-2.27-2.94-4.21-2.94-2.48,0-4.5,2.02-4.5,4.5,0,.24.03.47.06.71-.62.3-1.07.91-1.13,1.63l-.65,7.83c-.09,1.11.29,2.22,1.04,3.04.75.82,1.83,1.29,2.94,1.29h11.48c1.12,0,2.19-.47,2.94-1.29.76-.82,1.14-1.93,1.04-3.04l-.65-7.83c-.08-.96-.84-1.71-1.78-1.81Zm-3.13-2.7c.41-.41,1.12-.41,1.53,0,.2.2.32.47.32.76s-.11.56-.32.76l-1.16,1.16h-3.05l2.68-2.68Zm-7.66-.32c1.38,0,2.5,1.12,2.5,2.5,0,.14-.01.29-.05.46,0,.01-.01.03-.01.04h-4.89c-.03-.16-.05-.33-.05-.5,0-1.38,1.12-2.5,2.5-2.5Zm10.71,14.35c-.38.42-.91.65-1.47.65H6.26c-.57,0-1.09-.23-1.47-.65-.38-.42-.57-.96-.52-1.52l.65-7.83h14.16l.65,7.83c.05.56-.14,1.1-.52,1.52Z"/><path class="b" d="m15.87,11h0c-.47,0-.85.34-.98.8-.35,1.27-1.51,2.2-2.89,2.2s-2.54-.93-2.89-2.2c-.13-.46-.5-.8-.98-.8h0c-.65,0-1.13.62-.97,1.25.56,2.16,2.52,3.75,4.84,3.75s4.29-1.6,4.84-3.75c.16-.63-.32-1.25-.97-1.25Z"/></svg>