<svg xmlns="http://www.w3.org/2000/svg" viewBox="0 0 24 24" width="24" height="24"><path d="m17.98,7.5c-.33-.29-.78-.38-1.2-.24-.42.14-.73.48-.83.91-.05.23-.15.59-.33,1-.06-.9-.3-1.76-.73-2.61-.83-1.65-2.82-3.28-3.94-4.1-.36-.26-.82-.32-1.22-.14-.41.17-.69.54-.75.98-.08.57-.47,2.1-2.46,4.09-2.3,2.3-3.52,4.81-3.52,7.26,0,3.15,2.13,6.84,5.31,7.31.49.07.97-.15,1.24-.56.27-.41.27-.94,0-1.36-.9-1.43-.76-2.76-.29-3.81.71,3.57,2.83,5.78,5.75,5.78s6-1.96,6-7.5c0-3.97-2.11-6.22-3.02-7Zm-2.98,12.5c-2.28,0-3.84-2.33-3.99-5.95-.02-.51-.35-.96-.83-1.13-.14-.05-.28-.07-.42-.07-.35,0-.68.15-.93.42-1.66,1.85-2.27,3.99-1.77,6-1.26-1.03-2.06-2.95-2.06-4.62,0-1.9,1.02-3.93,2.94-5.85,1.59-1.59,2.36-3,2.73-4.04,1.19.98,2.07,1.94,2.44,2.69.63,1.26.7,2.54.21,4.02-.17.52.01,1.09.46,1.41.45.32,1.05.31,1.49-.03,1.16-.89,1.83-2.01,2.22-2.96.72.92,1.51,2.43,1.51,4.62,0,5.1-3.06,5.5-4,5.5Z"/></svg>