<svg xmlns="http://www.w3.org/2000/svg" viewBox="0 0 24 24" width="24" height="24"><path d="m20.5,12h-8.89c-1.75-2.26-2.8-4-5.11-4-2.49,0-4.5,2.01-4.5,4.5v5.5c0,2.21,1.79,4,4,4h12c2.21,0,4-1.79,4-4v-4.5c0-.83-.67-1.5-1.5-1.5Zm-.5,6c0,1.1-.9,2-2,2H6c-1.1,0-2-.9-2-2v-4h16v4Z"/><path d="m15.05,10c.52,0,.94-.4.99-.92.12-1.17.46-1.86.85-2.63.43-.85.9-1.8,1.05-3.36.06-.58-.41-1.09-1-1.09-.52,0-.94.4-.99.92-.12,1.17-.46,1.86-.85,2.63-.43.85-.9,1.8-1.05,3.36-.06.58.41,1.09,1,1.09Z"/><path d="m19.05,10c.52,0,.94-.4.99-.92.12-1.17.46-1.86.85-2.63.43-.85.9-1.8,1.05-3.36.06-.58-.41-1.09-1-1.09-.52,0-.94.4-.99.92-.12,1.17-.46,1.86-.85,2.63-.43.85-.9,1.8-1.05,3.36-.06.58.41,1.09,1,1.09Z"/><path d="M5.5 2A2.5 2.5 0 1 0 5.5 7 2.5 2.5 0 1 0 5.5 2z"/></svg>