<svg xmlns="http://www.w3.org/2000/svg" width="24" height="24" viewBox="0 0 24 24"><path d="M12 2C6.49 2 2 6.49 2 12s4.49 10 10 10 10-4.49 10-10S17.51 2 12 2m0 18c-4.41 0-8-3.59-8-8s3.59-8 8-8 8 3.59 8 8-3.59 8-8 8"/><path d="M12 16a1 1 0 1 0 0 2 1 1 0 1 0 0-2M13.27 6.25c-1-.36-2.1-.31-3.1.14-1 .46-1.75 1.26-2.12 2.27-.19.52.08 1.09.6 1.28a1 1 0 0 0 1.28-.6c.37-1.02 1.61-1.58 2.65-1.21a2.01 2.01 0 0 1 1.32 1.86c0 1.04-1.66 1.86-2.24 2.07a.997.997 0 0 0 .32 1.94q.165 0 .33-.06c.15-.05 3.58-1.28 3.58-3.96a4.015 4.015 0 0 0-2.64-3.73Z"/></svg>