<svg xmlns="http://www.w3.org/2000/svg" viewBox="0 0 24 24" width="24" height="24"><path d="m20.24,4.76c-2.3-2.29-5.87-2.35-8.24-.19-2.37-2.16-5.93-2.09-8.24.2-2.36,2.37-2.36,6.07,0,8.43l6.47,6.46c.49.49,1.13.73,1.77.73s1.28-.24,1.77-.73l6.47-6.46c2.36-2.36,2.36-6.06,0-8.43,0,0,0,0,0,0Zm-8.59,13.48l-6.47-6.46c-1.57-1.57-1.57-4.03,0-5.6.79-.79,1.8-1.18,2.81-1.18s2.02.39,2.8,1.18l.5.5s0,0,0,0l-1.96,1.98c-.74.75-.74,1.96,0,2.71.37.37.86.56,1.35.56s.98-.19,1.36-.56l2.05-2.05,3.59,3.59-1.04,1.04-1.8-1.8c-.2-.2-.51-.2-.71,0s-.2.51,0,.71l1.8,1.8-.79.79-1.8-1.8c-.2-.2-.51-.2-.71,0s-.2.51,0,.71l1.8,1.8-.79.79-1.8-1.8c-.2-.2-.51-.2-.71,0s-.2.51,0,.71l1.79,1.79-.59.59c-.2.2-.51.2-.71,0Zm7.18-6.46l-.42.42-3.59-3.59,1.24-1.24c.2-.2.2-.51,0-.71s-.51-.2-.71,0l-4,4c-.36.36-.94.36-1.3,0-.36-.36-.36-.94,0-1.29l3.01-3.03s.01-.02.02-.03l.14-.14c1.57-1.57,4.04-1.57,5.62,0,1.57,1.58,1.57,4.04,0,5.6Z"/></svg>