<svg xmlns="http://www.w3.org/2000/svg" viewBox="0 0 24 24" width="24" height="24"><path d="m20.24,4.76c-2.3-2.29-5.87-2.35-8.24-.19-2.37-2.16-5.93-2.09-8.24.2-2.36,2.37-2.36,6.07,0,8.43l6.47,6.46c.49.49,1.13.73,1.77.73s1.28-.24,1.77-.73l6.47-6.46c2.36-2.36,2.36-6.06,0-8.43,0,0,0,0,0,0Zm-1.41,7.02l-6.47,6.46c-.2.2-.51.2-.71,0l-6.47-6.46c-1.57-1.57-1.57-4.03,0-5.6.79-.79,1.8-1.18,2.81-1.18s2.02.39,2.8,1.18l.5.5c.39.39,1.02.39,1.41,0l.5-.5c1.57-1.57,4.04-1.57,5.62,0,1.57,1.58,1.57,4.04,0,5.6Z"/><path d="m15,11h-2v-2c0-.55-.45-1-1-1s-1,.45-1,1v2h-2c-.55,0-1,.45-1,1s.45,1,1,1h2v2c0,.55.45,1,1,1s1-.45,1-1v-2h2c.55,0,1-.45,1-1s-.45-1-1-1Z"/></svg>