<svg xmlns="http://www.w3.org/2000/svg" width="24" height="24" viewBox="0 0 24 24"><path d="M15.57 11.02A7.01 7.01 0 0 0 19 5V4c.55 0 1-.45 1-1s-.45-1-1-1H5c-.55 0-1 .45-1 1s.45 1 1 1v1c0 2.46 1.32 4.77 3.43 6.02.35.21.57.55.57.9v.16c0 .35-.21.69-.57.9A7.01 7.01 0 0 0 5 19v1c-.55 0-1 .45-1 1s.45 1 1 1h14c.55 0 1-.45 1-1s-.45-1-1-1v-1c0-2.46-1.32-4.77-3.43-6.02-.36-.21-.57-.55-.57-.9v-.16c0-.35.21-.69.57-.9m-1.02 3.68c1.51.89 2.45 2.54 2.45 4.3v1H7v-1c0-1.76.94-3.41 2.45-4.3.97-.57 1.55-1.55 1.55-2.62v-.16c0-1.07-.58-2.05-1.55-2.62A5.01 5.01 0 0 1 7 5V4h10v1c0 1.76-.94 3.41-2.45 4.3-.97.57-1.55 1.55-1.55 2.62v.16c0 1.07.58 2.05 1.55 2.62"/></svg>