<svg xmlns="http://www.w3.org/2000/svg" viewBox="0 0 24 24" width="24" height="24"><path d="m19.12,6.27l-5-3.12c-1.29-.8-2.95-.8-4.24,0l-5,3.12c-1.18.74-1.88,2-1.88,3.39v4.67c0,1.39.7,2.66,1.88,3.39l5,3.12c.64.4,1.38.6,2.12.6s1.48-.2,2.12-.6l5-3.12c1.18-.74,1.88-2,1.88-3.39v-4.67c0-1.39-.7-2.66-1.88-3.39Zm-.12,8.07c0,.69-.35,1.33-.94,1.7l-5,3.12c-.64.4-1.48.4-2.12,0l-5-3.12c-.59-.37-.94-1-.94-1.7v-4.67c0-.69.35-1.33.94-1.7l5-3.12c.32-.2.69-.3,1.06-.3s.74.1,1.06.3l5,3.12c.59.37.94,1,.94,1.7v4.67Z"/></svg>