<svg xmlns="http://www.w3.org/2000/svg" viewBox="0 0 24 24" width="24" height="24"><path d="m20,5H4c-1.65,0-3,1.35-3,3v7c0,2.21,1.79,4,4,4h14c2.21,0,4-1.79,4-4v-7c0-1.65-1.35-3-3-3Zm-15,12c-1.1,0-2-.9-2-2v-7c0-.55.45-1,1-1h3v10h-2Zm4,0V7h6v10h-6Zm12-2c0,1.1-.9,2-2,2h-2V7h3c.55,0,1,.45,1,1v7Z"/><path d="M19 8A1 1 0 1 0 19 10 1 1 0 1 0 19 8z"/><path d="M5 8A1 1 0 1 0 5 10 1 1 0 1 0 5 8z"/><rect x="4" y="11" width="2" height="2" rx=".5" ry=".5"/><rect x="18" y="11" width="2" height="2" rx=".5" ry=".5"/></svg>