<svg xmlns="http://www.w3.org/2000/svg" width="24" height="24" viewBox="0 0 24 24"><path d="M22 9.5A2.5 2.5 0 0 0 19.5 7h-15A2.5 2.5 0 0 0 2 9.5v5A2.5 2.5 0 0 0 4.5 17h1.09l1.27 1.27c.47.47 1.11.73 1.77.73h6.76c.66 0 1.3-.27 1.77-.73L18.43 17h1.09a2.5 2.5 0 0 0 2.5-2.5v-5Zm-2 5c0 .28-.22.5-.5.5H18c-.27 0-.52.11-.71.29l-1.56 1.56a.5.5 0 0 1-.35.15H8.62a.47.47 0 0 1-.35-.15l-1.56-1.56A1 1 0 0 0 6 15H4.5c-.28 0-.5-.22-.5-.5v-5c0-.28.22-.5.5-.5h15c.28 0 .5.22.5.5z"/><path d="M17 11H7c-.55 0-1 .45-1 1s.45 1 1 1h10c.55 0 1-.45 1-1s-.45-1-1-1"/></svg>