<svg xmlns="http://www.w3.org/2000/svg" viewBox="0 0 24 24" width="24" height="24"><path d="m19.5,5c-1.38,0-2.5,1.12-2.5,2.5v.55c-.16-.03-.33-.05-.5-.05-.56,0-1.08.2-1.5.51-.42-.32-.94-.51-1.5-.51-.17,0-.34.02-.5.05v-2.55c0-1.38-1.12-2.5-2.5-2.5s-2.5,1.12-2.5,2.5v7.66l-1.61-1.05c-.87-.56-1.99-.51-2.8.14-.53.42-.86,1.06-.89,1.74-.04.68.22,1.34.7,1.82l3.44,3.44c1.13,1.13,2.64,1.76,4.24,1.76h4.93c3.31,0,6-2.69,6-6v-7.5c0-1.38-1.12-2.5-2.5-2.5Zm-3.5,5.5c0-.28.22-.5.5-.5s.5.22.5.5v2c0,.28-.22.5-.5.5s-.5-.22-.5-.5v-2Zm-3,1.5v-1.5c0-.28.22-.5.5-.5s.5.22.5.5v3c0,.28-.22.5-.5.5s-.5-.22-.5-.5v-1.5Zm7,3c0,2.21-1.79,4-4,4h-4.93c-1.05,0-2.08-.43-2.83-1.17l-3.44-3.44c-.11-.11-.12-.23-.11-.3,0-.07.03-.19.15-.29.13-.11.32-.11.46-.02l2.38,1.55c.46.3,1.05.32,1.53.06.48-.26.78-.77.78-1.32V5.5c0-.28.22-.5.5-.5s.5.22.5.5v8c0,1.38,1.12,2.5,2.5,2.5.89,0,1.67-.47,2.11-1.17.28.11.58.17.89.17,1.38,0,2.5-1.12,2.5-2.5v-5c0-.28.22-.5.5-.5s.5.22.5.5v7.5Z"/></svg>