<svg xmlns="http://www.w3.org/2000/svg" viewBox="0 0 24 24" width="24" height="24"><path d="m19.5,5h-.55c-.23-1.14-1.24-2-2.45-2h-1c-.46-.61-1.18-1-2-1s-1.54.39-2,1h-1c-1.38,0-2.5,1.12-2.5,2.5v8.66l-1.61-1.05c-.87-.56-1.99-.51-2.8.14-.53.42-.86,1.06-.89,1.74-.04.68.22,1.34.7,1.82l3.44,3.44c1.13,1.13,2.64,1.76,4.24,1.76h4.93c3.31,0,6-2.69,6-6V7.5c0-1.38-1.12-2.5-2.5-2.5Zm.5,11c0,2.21-1.79,4-4,4h-4.93c-1.05,0-2.08-.43-2.83-1.17l-3.44-3.44c-.11-.11-.12-.23-.11-.3,0-.07.03-.19.15-.29.07-.06.16-.09.25-.09.07,0,.15.02.21.06l2.38,1.55c.46.3,1.05.32,1.53.06.48-.26.78-.77.78-1.32V5.5c0-.28.22-.5.5-.5h.5v7c0,.55.45,1,1,1s1-.45,1-1v-7.5c0-.28.22-.5.5-.5s.5.22.5.5v7.5c0,.55.45,1,1,1s1-.45,1-1v-7h.5c.28,0,.5.22.5.5v6.5c0,.55.45,1,1,1s1-.45,1-1v-5h.5c.28,0,.5.22.5.5v8.5Z"/></svg>