<svg xmlns="http://www.w3.org/2000/svg" width="24" height="24" viewBox="0 0 24 24"><path d="M20.38 5.39A3.98 3.98 0 0 0 16.43 2H7.57C5.58 2 3.92 3.43 3.62 5.39L2.05 15.62c-.03.2-.05.4-.05.61V17c0 2.21 1.79 4 4 4h12c2.21 0 4-1.79 4-4v-.77c0-.2-.02-.41-.05-.61zm-14.78.3c.15-.98.98-1.7 1.98-1.7h8.85c.99 0 1.83.71 1.98 1.7l1.17 7.63c-.48-.21-1.02-.33-1.58-.33H6c-.56 0-1.09.12-1.58.33l1.17-7.63ZM18 18.99H6c-1.1 0-2-.9-2-2s.9-2 2-2h12c1.1 0 2 .9 2 2s-.9 2-2 2"/><path d="M18 16a1 1 0 1 0 0 2 1 1 0 1 0 0-2M15 16a1 1 0 1 0 0 2 1 1 0 1 0 0-2"/></svg>