<svg xmlns="http://www.w3.org/2000/svg" width="24" height="24" viewBox="0 0 24 24"><path d="m19.62 5.71-6.5-3.26a2.52 2.52 0 0 0-2.24 0l-6.5 3.26C3.53 6.14 3 7 3 7.96c.01 2.9.8 10.03 7.89 13.62.35.18.73.26 1.11.26s.76-.09 1.11-.26C20.2 17.99 20.99 10.86 21 7.96c0-.96-.53-1.82-1.38-2.25M12.2 19.8a.5.5 0 0 1-.41 0C5.69 16.71 5 10.48 5 7.95c0-.19.1-.37.28-.45l6.5-3.26c.07-.04.15-.05.22-.05s.15.02.22.05l6.5 3.26c.17.09.28.26.28.45 0 2.53-.69 8.75-6.79 11.85Z"/><path d="M12 11c-.55 0-1 .45-1 1v4c0 .55.45 1 1 1s1-.45 1-1v-4c0-.55-.45-1-1-1M12 7a1 1 0 1 0 0 2 1 1 0 1 0 0-2"/></svg>