<svg xmlns="http://www.w3.org/2000/svg" width="24" height="24" viewBox="0 0 24 24"><path d="M21.23 15.92c-.29-.07-.52-.18-.78-.32a5.4 5.4 0 0 0-1.32-.48c-.68-1.27-2.57-3.62-7.12-3.62-.89 0-1.68.12-2.39.31.27-2.14 1.03-3.62 1.65-4.51 0 .04.01.08.02.13l.03.34v.36c0 .12 0 .25-.01.38-.03.55.38 1.03.94 1.06h.06c.52 0 .96-.41 1-.94.01-.17.02-.33.02-.5 0-.16 0-.32-.01-.48 0-.16-.02-.31-.04-.46l-.06-.44c0-.02 0-.04-.01-.06.06.02.12.04.18.07.12.05.24.11.36.17s.24.13.37.2a.996.996 0 1 0 .99-1.73c-.16-.09-.31-.17-.46-.25s-.31-.15-.46-.21c-.15-.07-.3-.13-.46-.18q-.225-.09-.45-.15l-.44-.12c-.15-.04-.29-.07-.44-.09h-.06c-.04-.07-.08-.14-.12-.2-.06-.1-.13-.2-.19-.29-.07-.1-.13-.19-.2-.28s-.14-.18-.21-.26l-.21-.24c-.07-.08-.14-.15-.21-.22l-.21-.2c-.07-.07-.14-.13-.2-.19l-1.06-.8a1.003 1.003 0 0 0-1.06 1.7l1.13.95s-.09.01-.14.02c-.12.02-.23.04-.34.07-.11.02-.22.05-.32.08-.11.03-.21.06-.31.09l-.56.19c-.09.04-.18.07-.26.11l-1.17.62c-.46.3-.6.92-.3 1.38.19.3.51.46.84.46.19 0 .37-.05.54-.16l1.5-.69c.05-.02.11-.03.16-.05-.84 1.31-1.75 3.38-1.9 6.27a7.13 7.13 0 0 0-2.65 3.07c-.14-.06-.28-.12-.43-.19-.32-.16-.69-.34-1.19-.47-.64-.16-1.26.31-1.26.97 0 .46.32.86.77.97.29.07.51.18.78.31.54.27 1.21.61 2.45.61s1.91-.34 2.45-.61c.46-.23.79-.39 1.55-.39s1.09.17 1.55.39c.54.27 1.21.61 2.45.61s1.91-.34 2.45-.61c.46-.23.79-.39 1.56-.39s1.1.17 1.56.39c.32.16.69.34 1.19.47.64.15 1.26-.31 1.26-.97 0-.46-.32-.86-.77-.97Zm-5.68-.32c-.46.23-.79.39-1.56.39s-1.09-.17-1.55-.39c-.54-.27-1.21-.61-2.45-.61s-1.91.34-2.45.61c-.12.06-.24.12-.35.17.74-1.05 2.16-2.27 4.81-2.27 2.5 0 3.92.87 4.69 1.66-.47.12-.84.29-1.14.44M21.23 19.92c-.29-.07-.52-.18-.78-.32-.54-.27-1.21-.61-2.45-.61s-1.91.34-2.45.61c-.46.23-.79.39-1.56.39s-1.09-.17-1.55-.39c-.54-.27-1.21-.61-2.45-.61s-1.91.34-2.45.61c-.46.23-.79.39-1.55.39s-1.09-.17-1.55-.39c-.32-.16-.69-.34-1.19-.47-.64-.16-1.26.31-1.26.97 0 .46.32.86.77.97.29.07.51.18.78.31.54.27 1.21.61 2.45.61s1.91-.34 2.45-.61c.46-.23.79-.39 1.55-.39s1.09.17 1.55.39c.54.27 1.21.61 2.45.61s1.91-.34 2.45-.61c.46-.23.79-.39 1.56-.39s1.1.17 1.56.39c.32.16.69.34 1.19.47.64.15 1.26-.31 1.26-.97 0-.46-.32-.86-.77-.97Z"/></svg>