<svg xmlns="http://www.w3.org/2000/svg" width="24" height="24" viewBox="0 0 24 24"><path d="M8.5 7a1.5 1.5 0 1 0 0 3 1.5 1.5 0 1 0 0-3"/><path d="m8.35 14.77.41.41c.68.68 1.79.68 2.47 0l4.41-4.41c.2-.19.51-.19.71 0l2.94 2.94A1.003 1.003 0 0 0 21 13V7c0-2.21-1.79-4-4-4H7C4.79 3 3 4.79 3 7v10c0 2.21 1.79 4 4 4h6c.55 0 1-.45 1-1s-.45-1-1-1H7c-.97 0-1.79-.7-1.96-1.62l2.61-2.61c.2-.19.51-.19.71 0ZM5 14.59V7c0-1.1.9-2 2-2h10c1.1 0 2 .9 2 2v3.59l-1.23-1.23c-.97-.97-2.56-.97-3.54 0L10 13.59l-.23-.23c-.97-.97-2.56-.97-3.54 0zM23 19h-2v-2c0-.55-.45-1-1-1s-1 .45-1 1v2h-2c-.55 0-1 .45-1 1s.45 1 1 1h2v2c0 .55.45 1 1 1s1-.45 1-1v-2h2c.55 0 1-.45 1-1s-.45-1-1-1"/></svg>