<svg xmlns="http://www.w3.org/2000/svg" viewBox="0 0 24 24" width="24" height="24"><path d="M8.5 7A1.5 1.5 0 1 0 8.5 10 1.5 1.5 0 1 0 8.5 7z"/><path d="m12,19h-5c-.97,0-1.79-.7-1.96-1.62l2.61-2.61c.13-.13.28-.15.35-.15s.23.02.35.15l.41.41c.68.68,1.79.68,2.47,0l4.41-4.41c.13-.13.28-.15.35-.15s.23.02.35.15l2.94,2.94c.18.18.43.29.71.29.55,0,1-.45,1-1v-6c0-2.21-1.79-4-4-4H7c-2.21,0-4,1.79-4,4v10c0,2.21,1.79,4,4,4h5c.55,0,1-.45,1-1s-.45-1-1-1ZM7,5h10c1.1,0,2,.9,2,2v3.59l-1.23-1.23c-.94-.95-2.59-.95-3.54,0l-4.23,4.23-.23-.23c-.94-.95-2.59-.95-3.54,0l-1.23,1.23v-7.59c0-1.1.9-2,2-2Z"/><path d="m21.54,17.8l-1.07-.47c-.35-.16-.63-.44-.79-.79l-.48-1.08c-.12-.28-.39-.46-.7-.46h0c-.3,0-.58.18-.7.45,0,0,0,0,0,0l-.48,1.05c-.15.33-.41.59-.73.75l-1.15.55c-.27.13-.44.4-.44.71,0,.3.18.57.46.7l1.09.48c.35.16.63.44.79.79l.47,1.07c.12.28.4.46.71.46s.58-.18.71-.46l.47-1.07c.16-.35.43-.63.79-.79l1.07-.47c.28-.12.46-.4.46-.71s-.18-.58-.46-.71Z"/></svg>