<svg xmlns="http://www.w3.org/2000/svg" width="24" height="24" viewBox="0 0 24 24"><path d="M12 8.89a2 2 0 1 0 0 4 2 2 0 1 0 0-4M6 13h2v3H6zM16 13h2v3h-2z"/><path d="M21.93 9.63v-.02l-1.62-4.04A2.49 2.49 0 0 0 17.99 4h-4.57l-.71-.71a.996.996 0 0 0-1.41 0l-.71.71H6.02c-1.03 0-1.94.62-2.32 1.57L2.08 9.61v.02c-.05.11-.07.22-.07.33v8.54a2.5 2.5 0 0 0 2.5 2.5h15a2.5 2.5 0 0 0 2.5-2.5V9.96a.9.9 0 0 0-.06-.33ZM17.99 6c.21 0 .39.12.46.31L19.52 9h-.9a.47.47 0 0 1-.35-.15L15.42 6zm-12.43.31c.08-.19.26-.31.46-.31h2.57L5.74 8.85a.5.5 0 0 1-.35.15h-.9zM20.01 18.5c0 .28-.22.5-.5.5h-5.5v-4h-4v4h-5.5c-.28 0-.5-.22-.5-.5V11h1.38c.66 0 1.3-.27 1.77-.73l4.56-4.56.29-.29.29.29 4.56 4.56c.47.47 1.11.73 1.77.73h1.38z"/></svg>