<svg xmlns="http://www.w3.org/2000/svg" width="24" height="24" viewBox="0 0 24 24"><path d="M15 12a1 1 0 1 0 0 2 1 1 0 1 0 0-2M17 10a1 1 0 1 0 0 2 1 1 0 1 0 0-2M11 11h-1v-1c0-.55-.45-1-1-1s-1 .45-1 1v1H7c-.55 0-1 .45-1 1s.45 1 1 1h1v1c0 .55.45 1 1 1s1-.45 1-1v-1h1c.55 0 1-.45 1-1s-.45-1-1-1"/><path d="M15 5H9c-3.85 0-6.99 3.13-7 6.99v.04C2.01 15.88 5.15 19 9 19h6c3.85 0 6.99-3.13 7-6.97V12c-.01-3.87-3.15-7-7-7m0 12H9c-2.75 0-5-2.24-5-4.99C4 9.25 6.25 7 9 7h6c2.75 0 5 2.25 5 5.01 0 2.75-2.25 4.99-5 4.99"/></svg>