<svg xmlns="http://www.w3.org/2000/svg" width="24" height="24" viewBox="0 0 24 24"><path d="m7.61 10.26-2.3 1.53c-.15.1-.15.32 0 .42l2.3 1.53c.17.11.39 0 .39-.21v-3.07c0-.2-.22-.32-.39-.21ZM16.39 10.26c-.17-.11-.39 0-.39.21v3.07c0 .2.22.32.39.21l2.3-1.53c.15-.1.15-.32 0-.42l-2.3-1.53ZM12.21 5.31a.252.252 0 0 0-.42 0l-1.53 2.3c-.11.17 0 .39.21.39h3.07c.2 0 .32-.22.21-.39l-1.53-2.3ZM13.53 16h-3.07c-.2 0-.32.22-.21.39l1.53 2.3c.1.15.32.15.42 0l1.53-2.3c.11-.17 0-.39-.21-.39ZM12 10.5a1.5 1.5 0 1 0 0 3 1.5 1.5 0 1 0 0-3"/><path d="M19 7h-2V5c0-1.65-1.35-3-3-3h-4C8.35 2 7 3.35 7 5v2H5c-1.65 0-3 1.35-3 3v4c0 1.65 1.35 3 3 3h2v2c0 1.65 1.35 3 3 3h4c1.65 0 3-1.35 3-3v-2h2c1.65 0 3-1.35 3-3v-4c0-1.65-1.35-3-3-3m1 7c0 .55-.45 1-1 1h-2c-1.1 0-2 .9-2 2v2c0 .55-.45 1-1 1h-4c-.55 0-1-.45-1-1v-2c0-1.1-.9-2-2-2H5c-.55 0-1-.45-1-1v-4c0-.55.45-1 1-1h2c1.1 0 2-.9 2-2V5c0-.55.45-1 1-1h4c.55 0 1 .45 1 1v2c0 1.1.9 2 2 2h2c.55 0 1 .45 1 1z"/></svg>