<svg xmlns="http://www.w3.org/2000/svg" viewBox="0 0 24 24" width="24" height="24"><path d="m10.94,9.35c.29.29.68.44,1.06.44s.77-.15,1.06-.44l1.5-1.5c.28-.28.44-.66.44-1.06v-3.29c0-.83-.67-1.5-1.5-1.5h-3c-.83,0-1.5.67-1.5,1.5v3.29c0,.4.16.78.44,1.06l1.5,1.5Zm.06-5.35h2v2.59l-1,1-1-1v-2.59Z"/><path d="m20.5,9h-3.29c-.4,0-.78.16-1.06.44l-1.5,1.5c-.58.58-.58,1.54,0,2.12l1.5,1.5c.28.28.67.44,1.06.44h3.29c.83,0,1.5-.67,1.5-1.5v-3c0-.83-.67-1.5-1.5-1.5Zm-.5,4h-2.59l-1-1,1-1h2.59v2Z"/><path d="m13.06,14.65c-.58-.59-1.54-.59-2.12,0l-1.5,1.5c-.28.28-.44.66-.44,1.06v3.29c0,.83.67,1.5,1.5,1.5h3c.83,0,1.5-.67,1.5-1.5v-3.29c0-.4-.16-.78-.44-1.06l-1.5-1.5Zm-.06,5.35h-2v-2.59l1-1,1,1v2.59Z"/><path d="m9.35,10.94l-1.5-1.5c-.28-.28-.67-.44-1.06-.44h-3.29c-.83,0-1.5.67-1.5,1.5v3c0,.83.67,1.5,1.5,1.5h3.29c.4,0,.78-.16,1.06-.44l1.5-1.5c.58-.58.58-1.54,0-2.12Zm-2.77,2.06h-2.59v-2h2.59l1,1-1,1Z"/></svg>