<svg xmlns="http://www.w3.org/2000/svg" viewBox="0 0 24 24" width="24" height="24"><path d="m19,4H5c-2.21,0-4,1.79-4,4v8c0,2.21,1.79,4,4,4h14c2.21,0,4-1.79,4-4v-8c0-2.21-1.79-4-4-4Zm2,12c0,1.1-.9,2-2,2H5c-1.1,0-2-.9-2-2v-8c0-1.1.9-2,2-2h14c1.1,0,2,.9,2,2v8Z"/><rect x="5" y="8" width="2" height="2" rx=".5" ry=".5"/><rect x="8" y="8" width="2" height="2" rx=".5" ry=".5"/><rect x="11" y="8" width="2" height="2" rx=".5" ry=".5"/><rect x="14" y="8" width="2" height="2" rx=".5" ry=".5"/><rect x="17" y="8" width="2" height="2" rx=".5" ry=".5"/><rect x="5" y="11" width="2" height="2" rx=".5" ry=".5"/><rect x="8" y="11" width="2" height="2" rx=".5" ry=".5"/><rect x="8" y="14" width="8" height="2" rx=".5" ry=".5"/><rect x="11" y="11" width="2" height="2" rx=".5" ry=".5"/><rect x="14" y="11" width="2" height="2" rx=".5" ry=".5"/><rect x="17" y="11" width="2" height="2" rx=".5" ry=".5"/></svg>