<svg xmlns="http://www.w3.org/2000/svg" viewBox="0 0 24 24" width="24" height="24"><path class="b" d="m18.5,3h-3c-1.38,0-2.5,1.12-2.5,2.5v3c0,1.38,1.12,2.5,2.5,2.5h3c1.38,0,2.5-1.12,2.5-2.5v-3c0-1.38-1.12-2.5-2.5-2.5Zm.5,5.5c0,.28-.22.5-.5.5h-3c-.28,0-.5-.22-.5-.5v-3c0-.28.22-.5.5-.5h3c.28,0,.5.22.5.5v3Z"/><path class="b" d="m19.39,17.97c.39-.56.61-1.24.61-1.97,0-1.93-1.57-3.5-3.5-3.5s-3.5,1.57-3.5,3.5,1.57,3.5,3.5,3.5c.47,0,.91-.1,1.32-.26l1.47,1.47c.2.2.45.29.71.29s.51-.1.71-.29c.39-.39.39-1.02,0-1.41l-1.32-1.32Zm-4.39-1.97c0-.83.67-1.5,1.5-1.5s1.5.67,1.5,1.5-.67,1.5-1.5,1.5-1.5-.67-1.5-1.5Z"/><path class="b" d="m8.5,3h-3c-1.38,0-2.5,1.12-2.5,2.5v13c0,1.38,1.12,2.5,2.5,2.5h3c1.38,0,2.5-1.12,2.5-2.5V5.5c0-1.38-1.12-2.5-2.5-2.5Zm.5,15.5c0,.28-.22.5-.5.5h-3c-.28,0-.5-.22-.5-.5V5.5c0-.28.22-.5.5-.5h3c.28,0,.5.22.5.5v13Z"/></svg>