<svg xmlns="http://www.w3.org/2000/svg" width="24" height="24" viewBox="0 0 24 24"><path d="M15.9 14H8.11c-.56 0-.93.58-.67 1.08.6 1.18 1.94 2.92 4.57 2.92s3.97-1.74 4.57-2.92c.25-.49-.12-1.08-.67-1.08Z"/><path d="M12 2C6.49 2 2 6.49 2 12s4.49 10 10 10 10-4.49 10-10S17.51 2 12 2m0 18c-4.41 0-8-3.59-8-8s3.59-8 8-8 8 3.59 8 8-3.59 8-8 8"/><path d="m16.45 7.17-3 2c-.28.19-.45.5-.45.83s.17.65.45.83l3 2c.17.11.36.17.55.17.32 0 .64-.16.83-.45.31-.46.18-1.08-.28-1.39L15.8 9.99l1.75-1.17c.46-.31.58-.93.28-1.39a1.01 1.01 0 0 0-1.39-.28ZM10.55 10.83c.28-.19.45-.5.45-.83s-.17-.65-.45-.83l-3-2a1.001 1.001 0 1 0-1.11 1.67l1.75 1.17-1.75 1.17c-.46.31-.58.93-.28 1.39.19.29.51.45.83.45.19 0 .38-.05.55-.17l3-2Z"/></svg>