<svg xmlns="http://www.w3.org/2000/svg" width="24" height="24" viewBox="0 0 24 24"><path d="M8.98 21c5.79 0 9.43-2.54 9.96-6.87.07-.6-.4-1.13-1-1.13-.51 0-.93.39-.99.89-.48 3.93-4.16 4.91-6.95 5.08v-7.3l5.3-1.45c.53-.15.85-.69.7-1.23a.99.99 0 0 0-1.23-.7L10 9.59V7.66l5.3-1.45c.53-.15.85-.69.7-1.23a.99.99 0 0 0-1.23-.7L10 5.58v-1.6c0-.55-.45-1-1-1s-1 .45-1 1v2.15l-2.3.63c-.53.15-.85.69-.7 1.23s.69.85 1.23.7L8 8.21v1.93l-2.3.63c-.53.15-.85.69-.7 1.23s.69.85 1.23.7L8 12.22V20c0 .54.43 1 .98 1"/></svg>