<svg xmlns="http://www.w3.org/2000/svg" width="24" height="24" viewBox="0 0 24 24"><path d="M13.62 2.19c-2.11-.48-4.29 0-5.97 1.34A6.99 6.99 0 0 0 5 9.01c0 2.29 1.07 3.53 2.1 4.73.36.42.73.85 1.09 1.35.26.36.62 1.38.81 2.05V19c0 1.65 1.35 3 3 3s3-1.35 3-3v-1.86c.2-.68.56-1.7.82-2.06.35-.5.72-.94 1.08-1.36.97-1.14 1.98-2.32 2.09-4.34.18-3.36-2.13-6.45-5.37-7.19M12 20c-.55 0-1-.45-1-1v-1h2.02L13 19c0 .55-.45 1-1 1m3.38-7.58c-.37.43-.79.93-1.2 1.51-.37.53-.7 1.42-.92 2.07h-2.52c-.21-.65-.55-1.55-.93-2.08-.41-.57-.83-1.06-1.2-1.49C7.64 11.3 6.99 10.55 6.99 9s.69-2.95 1.9-3.91C9.78 4.38 10.88 4 12.01 4c.38 0 .77.04 1.16.13 2.31.53 3.95 2.74 3.82 5.13-.07 1.35-.72 2.11-1.61 3.15Z"/><path d="M12 5C9.79 5 8 6.79 8 9c0 .55.45 1 1 1s1-.45 1-1c0-1.1.9-2 2-2 .55 0 1-.45 1-1s-.45-1-1-1"/></svg>