<svg xmlns="http://www.w3.org/2000/svg" viewBox="0 0 24 24" width="24" height="24"><path d="m21.33,2.53c-.37-.14-.79-.05-1.07.22-.07.07-1.86,1.77-4.85.27-2.05-1.03-5.6-1.64-8.88,0C2.24,5.18.73,10.61,3.1,15.37c.38.76.83,1.42,1.34,2-.23,1.12-.38,2.32-.43,3.62-.02.55.43,1,.98,1h.05c.53,0,.95-.43.97-.96.03-.78.1-1.49.2-2.16.66.41,1.38.71,2.16.89.66.16,1.32.22,1.97.22,2.43,0,4.64-.96,5.72-1.77,1.82-1.37,3.32-2.67,4.8-5.89,1.4-3.07,1.12-8.7,1.1-8.94-.02-.39-.27-.73-.64-.87Zm-2.28,8.98c-1.29,2.81-2.49,3.85-4.18,5.13-1.1.83-3.7,1.75-6.03,1.2-.82-.19-1.55-.56-2.19-1.08,1.45-5.16,4.97-6.37,6.57-6.65.46-.08.79-.49.79-.96v-.02c0-.61-.55-1.07-1.15-.96-1.26.24-3.34.9-5.14,2.69-1.11,1.1-1.96,2.47-2.57,4.09-.08-.15-.17-.29-.25-.45-1.65-3.3-1.14-7.82,2.54-9.68,1.16-.58,2.37-.81,3.49-.81,1.4,0,2.68.35,3.59.81,2.36,1.18,4.24.92,5.48.42-.02,1.8-.18,4.6-.95,6.29Z"/></svg>