<svg xmlns="http://www.w3.org/2000/svg" viewBox="0 0 24 24" width="24" height="24"><path d="m11,9.86v7.14c0,.55.45,1,1,1s1-.45,1-1v-7.14c1.72-.45,3-2,3-3.86,0-2.21-1.79-4-4-4s-4,1.79-4,4c0,1.86,1.28,3.41,3,3.86Zm1-5.86c1.1,0,2,.9,2,2s-.9,2-2,2-2-.9-2-2,.9-2,2-2Z"/><path d="m20.91,16.05c-.54-.43-1.3-.8-2.23-1.12-.6-.2-1.27-.37-1.99-.51-.57-.11-1.11.27-1.19.84-.07.52.28,1.02.8,1.12.64.12,1.23.27,1.75.45.89.3,1.38.59,1.63.79.27.21.33.36.33.38s-.06.17-.33.38c-.25.2-.73.49-1.63.79-.77.26-1.67.46-2.68.6-2.13.3-4.6.3-6.73,0-1.01-.14-1.92-.35-2.68-.6-.89-.3-1.38-.59-1.63-.79-.27-.21-.33-.36-.33-.38s.06-.17.33-.38c.25-.2.73-.49,1.63-.79.52-.17,1.11-.32,1.75-.45.52-.1.87-.59.8-1.12-.08-.57-.63-.95-1.19-.84-.72.14-1.39.31-1.99.51-.94.31-1.69.69-2.23,1.12-.9.71-1.09,1.45-1.09,1.95s.19,1.24,1.09,1.95c.54.43,1.3.8,2.23,1.12.88.29,1.9.53,3.04.69,1.16.16,2.38.25,3.64.25s2.49-.08,3.64-.25c1.13-.16,2.15-.39,3.04-.69.94-.31,1.69-.69,2.23-1.12.9-.71,1.09-1.45,1.09-1.95s-.19-1.24-1.09-1.95Z"/></svg>