<svg xmlns="http://www.w3.org/2000/svg" viewBox="0 0 24 24" width="24" height="24"><path d="m4.09,9.75l5.97,3.32c.61.34,1.28.51,1.94.51s1.33-.17,1.94-.51l5.97-3.32c.63-.35,1.03-1.02,1.03-1.75s-.39-1.4-1.03-1.75l-5.97-3.32c-1.22-.68-2.67-.68-3.89,0l-5.97,3.32c-.63.35-1.03,1.02-1.03,1.75s.39,1.4,1.03,1.75Zm6.94-5.06c.3-.17.64-.25.97-.25s.67.08.97.25l5.97,3.31-5.97,3.32c-.61.34-1.33.34-1.94,0l-5.97-3.32,5.97-3.32Z"/><path d="m3.39,13.36l6.67,3.7c.61.34,1.28.51,1.94.51s1.33-.17,1.94-.51l6.67-3.7c.48-.27.66-.88.39-1.36-.27-.48-.88-.66-1.36-.39l-6.67,3.7c-.6.34-1.34.34-1.94,0l-6.67-3.7c-.48-.27-1.09-.09-1.36.39-.27.48-.09,1.09.39,1.36Z"/><path d="m3.39,17.36l6.67,3.7c.61.34,1.28.51,1.94.51s1.33-.17,1.94-.51l6.67-3.7c.48-.27.66-.88.39-1.36-.27-.48-.88-.66-1.36-.39l-6.67,3.7c-.6.34-1.34.34-1.94,0l-6.67-3.7c-.48-.27-1.09-.09-1.36.39-.27.48-.09,1.09.39,1.36Z"/></svg>