<svg xmlns="http://www.w3.org/2000/svg" viewBox="0 0 24 24" width="24" height="24"><path d="m19.92,11.74c.63-.35,1.02-1.02,1.02-1.74s-.39-1.39-1.02-1.74l-5.97-3.32c-1.22-.67-2.67-.67-3.89,0l-5.97,3.32c-.63.35-1.02,1.02-1.02,1.74s.39,1.39,1.02,1.74l1.36.76-1.36.76c-.63.35-1.02,1.02-1.02,1.74s.39,1.39,1.02,1.74l5.97,3.32c.61.33,1.27.5,1.94.5s1.34-.17,1.95-.5l5.97-3.32s0,0,0,0c.63-.35,1.02-1.02,1.02-1.74s-.39-1.39-1.02-1.74l-1.36-.76,1.36-.76s0,0,0,0Zm-3.42,1.9l2.44,1.35-5.97,3.32c-.61.33-1.34.34-1.95,0l-5.97-3.31,2.44-1.36,2.56,1.42c.15.08.31.16.47.22.04.01.08.02.11.04.12.04.25.09.37.12,0,0,.01,0,.02,0,.32.08.65.12.97.12.67,0,1.34-.17,1.95-.5l2.56-1.42Zm-.49-2.02s0,0,0,0l-3.04,1.69c-.61.33-1.34.34-1.95,0l-3.04-1.69s-.02,0-.02,0l-2.91-1.61,5.97-3.32c.31-.17.64-.25.98-.25s.67.08.97.25l5.97,3.31-2.93,1.63Z"/></svg>