<svg xmlns="http://www.w3.org/2000/svg" width="24" height="24" viewBox="0 0 24 24"><path d="M12 15c2.21 0 4-1.79 4-4s-1.79-4-4-4-4 1.79-4 4 1.79 4 4 4m0-6c1.1 0 2 .9 2 2s-.9 2-2 2-2-.9-2-2 .9-2 2-2"/><path d="M10.95 21.64c.33.15.69.23 1.04.23s.72-.08 1.05-.23c1.77-.83 7.59-3.99 7.93-10.06.27-4.66-2.96-8.72-7.5-9.45-2.64-.42-5.31.31-7.32 2.03a8.98 8.98 0 0 0-3.16 6.85c0 6.44 6.09 9.77 7.95 10.64ZM7.46 5.67A6.9 6.9 0 0 1 11.98 4c.39 0 .79.03 1.18.1 3.58.58 6.03 3.67 5.82 7.36-.28 4.96-5.26 7.66-6.78 8.37a.5.5 0 0 1-.41 0c-1.59-.74-6.8-3.57-6.8-8.82 0-2.05.9-4 2.46-5.33Z"/></svg>