<svg xmlns="http://www.w3.org/2000/svg" viewBox="0 0 24 24" width="24" height="24"><path d="m17,4c.55,0,1-.45,1-1s-.45-1-1-1h-8c-.55,0-1,.45-1,1s.45,1,1,1h2v1c-1.1,0-2,.9-2,2v1.14c-1.72.45-3,2-3,3.86v6c0,2.21,1.79,4,4,4h4c2.21,0,4-1.79,4-4v-6c0-1.86-1.28-3.41-3-3.86v-1.14c0-1.1-.9-2-2-2v-1h4Zm-6,3h2v1h-2v-1Zm3,13h-4c-1.1,0-2-.9-2-2v-2.96c1.66.11,2.62.49,3.63.89,1.14.46,2.32.93,4.37,1.04v1.03c0,1.1-.9,2-2,2Zm2-8v2.96c-1.66-.11-2.62-.49-3.63-.89-1.14-.46-2.32-.93-4.37-1.04v-1.03c0-1.1.9-2,2-2h4c1.1,0,2,.9,2,2Z"/></svg>