<svg xmlns="http://www.w3.org/2000/svg" viewBox="0 0 24 24" width="24" height="24"><path d="m9,16c-.55,0-1,.45-1,1v.31c0,.49-.35.91-.84.99l-2,.33c-.29.05-.58-.03-.81-.22-.23-.19-.35-.46-.35-.76v-7.64c0-1.65,1.35-3,3-3,.55,0,1,.45,1,1s.45,1,1,1,1-.45,1-1c0-1.65-1.35-3-3-3-2.76,0-5,2.24-5,5v7.64c0,.88.39,1.72,1.06,2.29.55.46,1.23.71,1.94.71.16,0,.33-.01.5-.04l2-.33c1.45-.24,2.51-1.49,2.51-2.96v-.31c0-.55-.45-1-1-1Z"/><path d="m17,5c-1.65,0-3,1.35-3,3,0,.55.45,1,1,1s1-.45,1-1,.45-1,1-1c1.65,0,3,1.35,3,3v7.64c0,.3-.13.57-.35.76-.23.19-.51.28-.81.22l-2-.33c-.48-.08-.84-.5-.84-.99v-.31c0-.55-.45-1-1-1s-1,.45-1,1v.31c0,1.47,1.05,2.72,2.51,2.96l2,.33c.17.03.33.04.5.04.7,0,1.39-.25,1.94-.71.67-.57,1.06-1.41,1.06-2.29v-7.64c0-2.76-2.24-5-5-5Z"/><path d="m17,15c.39-.39.39-1.02,0-1.41l-1.59-1.59h1.59c.55,0,1-.45,1-1s-.45-1-1-1h-4V3c0-.55-.45-1-1-1s-1,.45-1,1v7h-4c-.55,0-1,.45-1,1s.45,1,1,1h1.59l-1.59,1.59c-.39.39-.39,1.02,0,1.41.39.39,1.02.39,1.41,0l3-3h1.17l3,3c.39.39,1.02.39,1.41,0Z"/></svg>