<svg xmlns="http://www.w3.org/2000/svg" width="24" height="24" viewBox="0 0 24 24"><path d="M4.22 12.71c-.48.48-.85 1.03-1.1 1.65-.24.6-.37 1.23-.37 1.88s.12 1.28.37 1.88c.25.62.62 1.18 1.1 1.66s1.03.85 1.65 1.1c.6.24 1.23.37 1.88.37s1.28-.12 1.88-.37c.62-.25 1.18-.62 1.65-1.1l2.12-2.12a.996.996 0 1 0-1.41-1.41l-2.12 2.12q-.435.435-.99.66c-.72.29-1.54.29-2.26 0-.37-.15-.71-.37-.99-.66a2.96 2.96 0 0 1-.88-2.12c0-.39.07-.77.22-1.13.15-.37.37-.71.66-.99l2.12-2.12a.996.996 0 1 0-1.41-1.41l-2.12 2.12ZM12 7.76l2.12-2.12q.435-.435.99-.66c.72-.29 1.54-.29 2.26 0 .37.15.71.37.99.66a2.96 2.96 0 0 1 .88 2.12c0 .39-.07.77-.22 1.13-.15.37-.37.71-.66.99L16.24 12a.996.996 0 0 0 .71 1.7c.26 0 .51-.1.71-.29l2.12-2.12c.48-.48.85-1.03 1.1-1.65.24-.6.37-1.23.37-1.88s-.12-1.28-.37-1.88c-.25-.62-.62-1.18-1.1-1.65-.48-.48-1.03-.85-1.65-1.1-1.2-.49-2.56-.49-3.76 0-.62.25-1.18.62-1.65 1.1L10.6 6.35a.996.996 0 1 0 1.41 1.41ZM8 6c.55 0 1-.45 1-1V3c0-.55-.45-1-1-1s-1 .45-1 1v2c0 .55.45 1 1 1M3 9h2c.55 0 1-.45 1-1s-.45-1-1-1H3c-.55 0-1 .45-1 1s.45 1 1 1M16 18c-.55 0-1 .45-1 1v2c0 .55.45 1 1 1s1-.45 1-1v-2c0-.55-.45-1-1-1M21 15h-2c-.55 0-1 .45-1 1s.45 1 1 1h2c.55 0 1-.45 1-1s-.45-1-1-1"/></svg>