<svg xmlns="http://www.w3.org/2000/svg" viewBox="0 0 24 24" width="24" height="24"><path d="m21,4h-4c-.55,0-1,.45-1,1s.45,1,1,1h4c.55,0,1-.45,1-1s-.45-1-1-1Z"/><path d="m3.24,16.5c0,.76.42,1.45,1.11,1.79l5.87,2.93c.56.28,1.18.42,1.79.42s1.23-.14,1.79-.42l5.87-2.93c.68-.34,1.11-1.03,1.11-1.79s-.42-1.45-1.11-1.79l-.42-.21.42-.21c.68-.34,1.11-1.03,1.11-1.79s-.42-1.45-1.11-1.79l-5.87-2.93c-1.12-.56-2.46-.56-3.58,0l-5.87,2.93c-.68.34-1.11,1.03-1.11,1.79s.42,1.45,1.11,1.79l.42.21-.42.21c-.68.34-1.11,1.03-1.11,1.79Zm2-4l5.87-2.93c.28-.14.59-.21.89-.21s.61.07.89.21l5.88,2.93-5.88,2.94c-.56.28-1.23.28-1.79,0l-4.11-2.05-1.76-.88Zm4.97,4.72c1.12.56,2.46.56,3.58,0l3.21-1.61,1.77.88-5.88,2.94c-.56.28-1.23.28-1.79,0l-5.87-2.93,1.76-.88,3.21,1.61Z"/></svg>