<svg xmlns="http://www.w3.org/2000/svg" viewBox="0 0 24 24" width="24" height="24"><path d="m19.63,2.14c-2.96-.29-10.29-.51-14.56,3.76-.71.71-1.33,1.54-1.85,2.47-2.06,3.7-1.48,7.99,1.47,10.94,1.78,1.78,4.04,2.69,6.36,2.69,1.54,0,3.11-.4,4.58-1.22.93-.52,1.76-1.14,2.47-1.85,4.27-4.27,4.05-11.61,3.76-14.56-.12-1.18-1.06-2.11-2.23-2.23Zm-2.94,15.38c-.58.58-1.26,1.09-2.03,1.51-2.65,1.47-5.17,1.07-7,.04.64-3.97,3.07-7.72,6.34-10.07-3.7,1.65-6.72,4.58-8.47,8.23-1.43-1.85-2.29-4.78-.56-7.89.43-.77.94-1.45,1.51-2.03,2.75-2.75,7.14-3.31,10.3-3.31,1.06,0,1.98.06,2.65.13.23.02.41.21.44.44.27,2.67.49,9.28-3.18,12.95Z"/></svg>