<svg xmlns="http://www.w3.org/2000/svg" viewBox="0 0 24 24" width="24" height="24"><path d="m7.79,7.79c-1.16,1.16-1.79,2.69-1.79,4.33v5.88c0,2.21,1.79,4,4,4h4c2.21,0,4-1.79,4-4v-5.88c0-1.64-.64-3.17-1.79-4.33-.78-.78-1.21-1.81-1.21-2.91v-.88c.55,0,1-.45,1-1s-.45-1-1-1h-6c-.55,0-1,.45-1,1s.45,1,1,1v.88c0,1.1-.43,2.14-1.21,2.91Zm1.41,1.41c1.16-1.16,1.79-2.69,1.79-4.33v-.88h2v.88c0,1.63.64,3.17,1.79,4.33.75.75,1.16,1.74,1.2,2.79h-3.49c-.83,0-1.5.67-1.5,1.5v3c0,.83.67,1.5,1.5,1.5h3.5c0,1.1-.9,2-2,2h-4c-1.1,0-2-.9-2-2v-5.88c0-1.1.43-2.14,1.21-2.91Z"/></svg>