<svg xmlns="http://www.w3.org/2000/svg" viewBox="0 0 24 24" width="24" height="24"><path d="m14.5,10.79c.2.2.51.2.71,0,.44-.44.44-1.15,0-1.59l-.41-.41c-.44-.44-1.15-.44-1.59,0h0c-.2.2-.2.51,0,.71l1.29,1.29Z"/><path d="m8.5,16h1.29c.13,0,.26-.05.35-.15l2.85-2.85.79-.79c.2-.2.2-.51,0-.71l-1.29-1.29c-.2-.2-.51-.2-.71,0l-.79.79-2.85,2.85c-.09.09-.15.22-.15.35v1.29c0,.28.22.5.5.5Z"/><path d="m2.72,19.65c-.32.46-.36,1.05-.1,1.55.26.5.77.8,1.33.8h8.05c4.35,0,8.26-2.81,9.51-6.82,1.06-3.41.4-6.9-1.81-9.56-2.18-2.62-5.5-3.94-8.91-3.54C6.07,2.63,2.3,6.63,2.02,11.39c-.14,2.34.55,4.66,1.91,6.51l-1.21,1.75Zm1.29-8.14c.23-3.81,3.24-7.01,7.01-7.45,2.73-.32,5.39.74,7.13,2.83,1.77,2.13,2.3,4.94,1.44,7.69-.99,3.19-4.12,5.42-7.6,5.42h-7.09l.67-.96c.49-.7.48-1.63-.02-2.3-1.12-1.52-1.66-3.33-1.55-5.23Z"/></svg>