<svg xmlns="http://www.w3.org/2000/svg" viewBox="0 0 24 24" width="24" height="24"><path d="m4.5,21h7c1.38,0,2.5-1.12,2.5-2.5V5.5c0-1.38-1.12-2.5-2.5-2.5h-7c-1.38,0-2.5,1.12-2.5,2.5v13c0,1.38,1.12,2.5,2.5,2.5Zm-.5-15.5c0-.28.22-.5.5-.5h7c.28,0,.5.22.5.5v13c0,.28-.22.5-.5.5h-7c-.28,0-.5-.22-.5-.5V5.5Z"/><path d="m19.5,3h-1c-1.38,0-2.5,1.12-2.5,2.5v13c0,1.38,1.12,2.5,2.5,2.5h1c1.38,0,2.5-1.12,2.5-2.5V5.5c0-1.38-1.12-2.5-2.5-2.5Zm.5,15.5c0,.28-.22.5-.5.5h-1c-.28,0-.5-.22-.5-.5V5.5c0-.28.22-.5.5-.5h1c.28,0,.5.22.5.5v13Z"/></svg>