<svg xmlns="http://www.w3.org/2000/svg" width="24" height="24" viewBox="0 0 24 24"><path d="M2.6 21.22c.26.48.77.78 1.32.78h16.17c.55 0 1.05-.3 1.32-.78.26-.48.24-1.07-.05-1.53L13 6.71V5h3.5c.28 0 .5-.22.5-.5v-2c0-.28-.22-.5-.5-.5H11v4.71L2.65 19.69c-.3.46-.32 1.05-.05 1.53m12.74-7.17-.53.42c-.18.15-.44.15-.62 0l-.63-.5c-.92-.73-2.2-.74-3.12 0l-.63.5c-.18.15-.44.15-.62 0l-.53-.42L12 8.85zm-7.77 1.69.37.29c.92.73 2.2.74 3.12 0l.63-.5c.18-.15.44-.15.62 0l.63.5c.46.37 1.01.55 1.56.55s1.1-.18 1.56-.55l.37-.29L19.17 20H4.83z"/></svg>