<svg xmlns="http://www.w3.org/2000/svg" width="24" height="24" viewBox="0 0 24 24"><path d="M18.71 8.29A.996.996 0 1 0 17.3 9.7l1.29 1.29H13V5.4l1.29 1.29c.2.2.45.29.71.29s.51-.1.71-.29a.996.996 0 0 0 0-1.41l-3-3a.996.996 0 0 0-1.41 0l-3 3a.996.996 0 1 0 1.41 1.41L11 5.4v5.59H5.41L6.7 9.7a.996.996 0 1 0-1.41-1.41l-3 3a.996.996 0 0 0 0 1.41l3 3c.2.2.45.29.71.29s.51-.1.71-.29a.996.996 0 0 0 0-1.41L5.42 13h5.59v5.59L9.72 17.3a.996.996 0 1 0-1.41 1.41l3 3c.2.2.45.29.71.29s.51-.1.71-.29l3-3a.996.996 0 1 0-1.41-1.41l-1.29 1.29V13h5.59l-1.29 1.29a.996.996 0 0 0 .71 1.7c.26 0 .51-.1.71-.29l3-3a.996.996 0 0 0 0-1.41l-3-3Z"/></svg>