<svg xmlns="http://www.w3.org/2000/svg" viewBox="0 0 24 24" width="24" height="24"><path d="m21.55,8.17l-2.55-1.7v-1.46c0-.55-.45-1-1-1h-2.7l-1.92-1.28c-.84-.56-1.93-.56-2.77,0l-1.92,1.28h-2.7c-.55,0-1,.45-1,1v1.46l-2.55,1.7c-.28.19-.45.5-.45.83v9c0,2.21,1.79,4,4,4h12c2.21,0,4-1.79,4-4v-9c0-.33-.17-.65-.45-.83Zm-14.55-2.17h10v4.46l-4.72,3.15c-.17.11-.39.11-.55,0l-4.72-3.15v-4.46Zm11,14H6c-1.1,0-2-.9-2-2v-7.13l1.45.96,5.17,3.45c.84.56,1.93.56,2.77,0l5.17-3.45,1.45-.96v7.13c0,1.1-.9,2-2,2Z"/></svg>