<svg xmlns="http://www.w3.org/2000/svg" viewBox="0 0 24 24" width="24" height="24"><path d="m19.51,13.78c-.7.1-1.4.11-2.11.03-3.76-.42-6.79-3.46-7.22-7.21-.08-.71-.07-1.42.03-2.12.1-.66-.18-1.31-.71-1.7-.51-.38-1.19-.44-1.76-.16-3.84,1.86-6.13,5.97-5.7,10.23.47,4.71,4.38,8.62,9.09,9.09.34.03.68.05,1.02.05,3.88,0,7.5-2.22,9.21-5.75.28-.57.21-1.24-.16-1.76-.39-.53-1.04-.81-1.7-.71Zm-8.17,6.18c-3.78-.38-6.92-3.52-7.3-7.3-.33-3.31,1.28-6.4,4.14-8-.07.72-.07,1.45.01,2.17.53,4.68,4.31,8.45,8.98,8.98.72.08,1.45.08,2.17.01-1.6,2.86-4.69,4.47-8,4.14Z"/></svg>