<svg xmlns="http://www.w3.org/2000/svg" viewBox="0 0 24 24" width="24" height="24"><path d="m17,6H7c-2.21,0-4,1.79-4,4v8c0,2.21,1.79,4,4,4h10c2.21,0,4-1.79,4-4v-8c0-2.21-1.79-4-4-4Zm2,12c0,1.1-.9,2-2,2H7c-1.1,0-2-.9-2-2v-8c0-1.1.9-2,2-2h10c1.1,0,2,.9,2,2v8Z"/><path d="m7,4h10c.55,0,1-.45,1-1s-.45-1-1-1H7c-.55,0-1,.45-1,1s.45,1,1,1Z"/><path d="m15,10.89l-3.5-.7c-.37-.08-.75.02-1.04.26-.29.24-.46.59-.46.97v2.68c-.16-.06-.32-.09-.5-.09-.83,0-1.5.67-1.5,1.5s.67,1.5,1.5,1.5,1.5-.67,1.5-1.5v-4.08c0-.1.06-.17.09-.19.03-.03.11-.07.21-.05l3.5.7c.12.02.2.13.2.25v2.98c-.16-.06-.32-.09-.5-.09-.83,0-1.5.67-1.5,1.5s.67,1.5,1.5,1.5,1.5-.67,1.5-1.5v-4.39c0-.59-.42-1.11-1-1.23Z"/></svg>