<svg xmlns="http://www.w3.org/2000/svg" viewBox="0 0 24 24" width="24" height="24"><path d="m14.5,2h-5c-1.93,0-3.5,1.57-3.5,3.5v13c0,1.93,1.57,3.5,3.5,3.5h5c1.93,0,3.5-1.57,3.5-3.5V5.5c0-1.93-1.57-3.5-3.5-3.5Zm1.5,16.5c0,.83-.67,1.5-1.5,1.5h-5c-.83,0-1.5-.67-1.5-1.5V5.5c0-.83.67-1.5,1.5-1.5h5c.83,0,1.5.67,1.5,1.5v13Z"/><path d="m4.5,5h-1c-.28,0-.5.22-.5.5h-.5c-.28,0-.5.22-.5.5s.22.5.5.5h.5c0,.28.22.5.5.5h1c.28,0,.5-.22.5-.5v-1c0-.28-.22-.5-.5-.5Z"/><path d="m4.5,9h-1c-.28,0-.5.22-.5.5h-.5c-.28,0-.5.22-.5.5s.22.5.5.5h.5c0,.28.22.5.5.5h1c.28,0,.5-.22.5-.5v-1c0-.28-.22-.5-.5-.5Z"/><path d="m4.5,13h-1c-.28,0-.5.22-.5.5h-.5c-.28,0-.5.22-.5.5s.22.5.5.5h.5c0,.28.22.5.5.5h1c.28,0,.5-.22.5-.5v-1c0-.28-.22-.5-.5-.5Z"/><path d="m4.5,17h-1c-.28,0-.5.22-.5.5h-.5c-.28,0-.5.22-.5.5s.22.5.5.5h.5c0,.28.22.5.5.5h1c.28,0,.5-.22.5-.5v-1c0-.28-.22-.5-.5-.5Z"/><path d="m21.5,17.5h-.5c0-.28-.22-.5-.5-.5h-1c-.28,0-.5.22-.5.5v1c0,.28.22.5.5.5h1c.28,0,.5-.22.5-.5h.5c.28,0,.5-.22.5-.5s-.22-.5-.5-.5Z"/><path d="m21.5,13.5h-.5c0-.28-.22-.5-.5-.5h-1c-.28,0-.5.22-.5.5v1c0,.28.22.5.5.5h1c.28,0,.5-.22.5-.5h.5c.28,0,.5-.22.5-.5s-.22-.5-.5-.5Z"/><path d="m21.5,9.5h-.5c0-.28-.22-.5-.5-.5h-1c-.28,0-.5.22-.5.5v1c0,.28.22.5.5.5h1c.28,0,.5-.22.5-.5h.5c.28,0,.5-.22.5-.5s-.22-.5-.5-.5Z"/><path d="m21.5,5.5h-.5c0-.28-.22-.5-.5-.5h-1c-.28,0-.5.22-.5.5v1c0,.28.22.5.5.5h1c.28,0,.5-.22.5-.5h.5c.28,0,.5-.22.5-.5s-.22-.5-.5-.5Z"/></svg>