<svg xmlns="http://www.w3.org/2000/svg" viewBox="0 0 24 24" width="24" height="24"><path d="m16.12,3.71c-1.17-1.17-3.07-1.17-4.24,0L3.71,11.88c-1.17,1.17-1.17,3.07,0,4.24l4.17,4.17c.58.58,1.35.88,2.12.88s1.54-.29,2.12-.88l8.17-8.17c1.17-1.17,1.17-3.07,0-4.24l-4.17-4.17Zm2.76,7l-8.17,8.17c-.39.39-1.02.39-1.41,0l-4.17-4.17c-.39-.39-.39-1.02,0-1.41L13.29,5.12c.19-.19.45-.29.71-.29s.51.1.71.29l4.17,4.17c.39.39.39,1.02,0,1.41Z"/><path d="m8.29,14.29c-.39.39-.39,1.02,0,1.41.39.39,1.02.39,1.41,0,.39-.39.39-1.02,0-1.41-.39-.39-1.02-.39-1.41,0Z"/><path d="m19.29,15.29l-4,4c-.39.39-.39,1.02,0,1.41.2.2.45.29.71.29s.51-.1.71-.29l4-4c.39-.39.39-1.02,0-1.41s-1.02-.39-1.41,0Z"/><path d="m4,9c.26,0,.51-.1.71-.29l4-4c.39-.39.39-1.02,0-1.41s-1.02-.39-1.41,0L3.29,7.29c-.39.39-.39,1.02,0,1.41.2.2.45.29.71.29Z"/></svg>