<svg xmlns="http://www.w3.org/2000/svg" viewBox="0 0 24 24" width="24" height="24"><path d="m15,13.91l-1.79-.26c-.08-.01-.15-.06-.19-.14l-.8-1.62c-.09-.19-.36-.19-.45,0l-.8,1.62c-.04.07-.11.12-.19.14l-1.79.26c-.21.03-.29.28-.14.43l1.29,1.26c.06.06.09.14.07.22l-.31,1.78c-.04.2.18.36.36.26l1.6-.84c.07-.04.16-.04.23,0l1.6.84c.18.1.4-.06.36-.26l-.31-1.78c-.01-.08.01-.16.07-.22l1.29-1.26c.15-.14.07-.4-.14-.43Z"/><path d="m15.5,2h-7c-1.38,0-2.5,1.12-2.5,2.5v6.91c-.63,1.05-1,2.28-1,3.59,0,3.86,3.14,7,7,7s7-3.14,7-7c0-1.31-.37-2.54-1-3.59v-6.91c0-1.38-1.12-2.5-2.5-2.5Zm.5,2.5v4.76c-.88-.61-1.9-1.02-3-1.18v-4.08h2.5c.28,0,.5.22.5.5Zm-7.5-.5h2.5v4.08c-1.1.16-2.12.57-3,1.18v-4.76c0-.28.22-.5.5-.5Zm3.5,16c-2.76,0-5-2.24-5-5s2.24-5,5-5,5,2.24,5,5-2.24,5-5,5Z"/></svg>