<svg xmlns="http://www.w3.org/2000/svg" width="24" height="24" viewBox="0 0 24 24"><path d="M6 19h1v1.82c0 .7.4 1.31 1.04 1.6.23.1.48.16.72.16.42 0 .83-.16 1.16-.45l3.46-3.12H18c2.21 0 4-1.79 4-4V7c0-2.21-1.79-4-4-4H6C3.79 3 2 4.79 2 7v8c0 2.21 1.79 4 4 4M4 7c0-1.1.9-2 2-2h12c1.1 0 2 .9 2 2v8c0 1.1-.9 2-2 2h-5c-.25 0-.49.09-.67.26l-3.33 3v-2.25c0-.55-.45-1-1-1H6c-1.1 0-2-.9-2-2z"/><path d="M9.04 14.21c.2.2.45.29.71.29s.51-.1.71-.29a.996.996 0 0 0 0-1.41l-1.79-1.79 1.79-1.79a.996.996 0 1 0-1.41-1.41l-2.5 2.5a.996.996 0 0 0 0 1.41l2.5 2.5ZM13.54 14.21c.2.2.45.29.71.29s.51-.1.71-.29l2.5-2.5a.996.996 0 0 0 0-1.41l-2.5-2.5a.996.996 0 1 0-1.41 1.41L15.34 11l-1.79 1.79a.996.996 0 0 0 0 1.41Z"/></svg>