<svg xmlns="http://www.w3.org/2000/svg" viewBox="0 0 24 24" width="24" height="24"><path d="m12,13c.55,0,1-.45,1-1v-3c0-.55-.45-1-1-1s-1,.45-1,1v3c0,.55.45,1,1,1Z"/><path d="M12 14A1 1 0 1 0 12 16 1 1 0 1 0 12 14z"/><path d="m2.62,21.2c.26.5.77.8,1.33.8h8.05c4.35,0,8.26-2.81,9.51-6.82,1.06-3.41.4-6.9-1.81-9.56-2.18-2.62-5.5-3.94-8.91-3.54C6.07,2.63,2.3,6.63,2.02,11.39c-.14,2.34.55,4.66,1.91,6.51l-1.21,1.75c-.32.46-.36,1.05-.1,1.55Zm1.39-9.68c.23-3.81,3.24-7.01,7.01-7.45,2.73-.32,5.39.74,7.13,2.83,1.77,2.13,2.3,4.94,1.44,7.69-.99,3.19-4.12,5.42-7.6,5.42h-7.09l.67-.96c.49-.7.48-1.63-.02-2.3-1.12-1.52-1.66-3.33-1.55-5.23Z"/></svg>