<svg xmlns="http://www.w3.org/2000/svg" width="24" height="24" viewBox="0 0 24 24"><path d="M18 3H6C3.79 3 2 4.79 2 7v8c0 2.21 1.79 4 4 4h1v1.82c0 .7.4 1.31 1.04 1.6.23.1.48.16.72.16.42 0 .83-.16 1.16-.45l3.46-3.12H18c2.21 0 4-1.79 4-4V7c0-2.21-1.79-4-4-4m2 12c0 1.1-.9 2-2 2h-5c-.25 0-.49.09-.67.26l-3.33 3v-2.25c0-.55-.45-1-1-1H6c-1.1 0-2-.9-2-2V7c0-1.1.9-2 2-2h12c1.1 0 2 .9 2 2z"/><path d="M7.5 6.97a1.5 1.5 0 1 0 0 3 1.5 1.5 0 1 0 0-3M14.1 9.77c-.3-.4-.9-.4-1.2 0l-2 2.67c-.2.27-.6.27-.8 0l-.5-.67c-.3-.4-.9-.4-1.2 0l-1.8 2.4a.5.5 0 0 0 .4.8h10a.5.5 0 0 0 .4-.8z"/></svg>