<svg xmlns="http://www.w3.org/2000/svg" viewBox="0 0 24 24" width="24" height="24"><path d="m15,8.91l-1.79-.26c-.08-.01-.15-.06-.19-.14l-.8-1.62c-.09-.19-.36-.19-.45,0l-.8,1.62c-.04.07-.11.12-.19.14l-1.79.26c-.21.03-.29.28-.14.43l1.29,1.26c.06.06.09.14.07.22l-.31,1.78c-.04.2.18.36.36.26l1.6-.84c.07-.04.16-.04.23,0l1.6.84c.18.1.4-.06.36-.26l-.31-1.78c-.01-.08.01-.16.07-.22l1.29-1.26c.15-.14.07-.4-.14-.43Z"/><path d="m12,2c-4.41,0-8,3.59-8,8,0,2.52,1.17,4.77,3,6.24v4.77c0,.35.18.67.47.85.29.18.66.2.97.04l3.55-1.78,3.55,1.78c.14.07.29.11.45.11.18,0,.37-.05.53-.15.29-.18.47-.5.47-.85v-4.76c1.83-1.47,3-3.72,3-6.24,0-4.41-3.59-8-8-8Zm0,14h0c-3.31,0-6-2.69-6-6s2.69-6,6-6,6,2.69,6,6-2.69,6-6,6Z"/></svg>