<svg xmlns="http://www.w3.org/2000/svg" viewBox="0 0 24 24" width="24" height="24"><path d="m18,3H6c-2.21,0-4,1.79-4,4v10c0,2.21,1.79,4,4,4h12c2.21,0,4-1.79,4-4V7c0-2.21-1.79-4-4-4Zm-8.46,6l-2.67-4h2.6l2.67,4h-2.6Zm5,0l-2.67-4h2.6l2.67,4h-2.6Zm-10.54-2c0-.63.3-1.19.76-1.56l2.37,3.56h-3.13v-2Zm16,10c0,1.1-.9,2-2,2H6c-1.1,0-2-.9-2-2v-6h16v6Zm0-8h-.46l-2.67-4h1.13c1.1,0,2,.9,2,2v2Z"/><path d="m10.76,17.55l3.53-2.12c.32-.19.32-.66,0-.86l-3.53-2.12c-.33-.2-.76.04-.76.43v4.23c0,.39.42.63.76.43Z"/></svg>