<svg xmlns="http://www.w3.org/2000/svg" width="24" height="24" viewBox="0 0 24 24"><path d="M21 11c-.55 0-1 .45-1 1 0 4.41-3.59 8-8 8s-8-3.59-8-8c0-.55-.45-1-1-1s-1 .45-1 1c0 5.51 4.49 10 10 10s10-4.49 10-10c0-.55-.45-1-1-1"/><path d="M12 18c3.31 0 6-2.69 6-6V8c0-3.31-2.69-6-6-6S6 4.69 6 8v4c0 3.31 2.69 6 6 6m0-14c1.86 0 3.41 1.28 3.86 3H15c-.55 0-1 .45-1 1s.45 1 1 1h1v2h-1c-.55 0-1 .45-1 1s.45 1 1 1h.86c-.45 1.72-2 3-3.86 3s-3.41-1.28-3.86-3H11c.55 0 1-.45 1-1s-.45-1-1-1H8V9h3c.55 0 1-.45 1-1s-.45-1-1-1H8.14c.45-1.72 2-3 3.86-3"/></svg>