<svg xmlns="http://www.w3.org/2000/svg" viewBox="0 0 24 24" width="24" height="24"><path d="m17,2H7c-2.21,0-4,1.79-4,4v12c0,2.21,1.79,4,4,4h10c2.21,0,4-1.79,4-4V6c0-2.21-1.79-4-4-4Zm2,16c0,1.1-.9,2-2,2H7c-1.1,0-2-.9-2-2v-.59l2.65-2.65c.13-.13.28-.15.35-.15s.23.02.35.15l.41.41c.68.68,1.79.68,2.47,0l4.41-4.41c.13-.13.28-.15.35-.15s.23.02.35.15l2.65,2.65v4.59Zm0-7.41l-1.23-1.23c-.94-.95-2.59-.95-3.54,0l-4.23,4.23-.23-.23c-.94-.95-2.59-.95-3.54,0l-1.23,1.23V6c0-1.1.9-2,2-2h10c1.1,0,2,.9,2,2v4.59Z"/><path d="M8.5 7A1.5 1.5 0 1 0 8.5 10 1.5 1.5 0 1 0 8.5 7z"/></svg>