<svg xmlns="http://www.w3.org/2000/svg" viewBox="0 0 24 24" width="24" height="24"><path d="m19.62,5.71l-6.27-3.15c-.84-.42-1.85-.42-2.69,0l-6.27,3.15c-.85.43-1.38,1.29-1.38,2.25.01,2.82.77,9.78,7.54,13.44.46.25.96.37,1.46.37s1-.12,1.46-.37c6.77-3.66,7.53-10.62,7.54-13.44,0-.96-.53-1.82-1.38-2.25Zm-7.11,13.93c-.32.17-.7.17-1.02,0-5.83-3.15-6.48-9.22-6.49-11.69,0-.19.1-.37.28-.45l6.27-3.15c.14-.07.29-.11.45-.11s.31.04.45.11l6.27,3.15c.17.09.28.26.28.45,0,2.47-.66,8.54-6.49,11.69Z"/><path d="m15,11h-6c-.55,0-1,.45-1,1s.45,1,1,1h6c.55,0,1-.45,1-1s-.45-1-1-1Z"/></svg>