<svg xmlns="http://www.w3.org/2000/svg" viewBox="0 0 24 24" width="24" height="24"><path d="m18,2H6c-2.21,0-4,1.79-4,4v8c0,2.21,1.79,4,4,4h1v1.82c0,.7.4,1.31,1.04,1.6.23.1.48.16.72.16.42,0,.83-.16,1.16-.45l3.46-3.12h4.62c2.21,0,4-1.79,4-4V6c0-2.21-1.79-4-4-4Zm2,12c0,1.1-.9,2-2,2h-5c-.25,0-.49.09-.67.26l-3.33,3v-2.25c0-.55-.45-1-1-1h-2c-1.1,0-2-.9-2-2V6c0-1.1.9-2,2-2h12c1.1,0,2,.9,2,2v8Z"/><path d="m14.84,8.8l-1.64-.13-.75-1.66c-.18-.39-.73-.39-.91,0l-.75,1.66-1.64.13c-.44.03-.62.58-.29.87l1.36,1.22-.52,1.8c-.13.45.37.81.76.55l1.53-1.02,1.53,1.02c.39.26.89-.11.76-.55l-.52-1.8,1.36-1.22c.33-.29.14-.84-.29-.87Z"/></svg>