<svg xmlns="http://www.w3.org/2000/svg" viewBox="0 0 24 24" width="24" height="24"><path d="M18 3A3 3 0 1 0 18 9 3 3 0 1 0 18 3z"/><path d="m21,10c-.55,0-1,.45-1,1,0,.39-.05.78-.15,1.16-.1.37-.24.74-.44,1.09-.19.35-.43.69-.71,1.01-.28.32-.6.63-.96.9-.36.28-.76.54-1.18.76-.43.23-.9.42-1.38.58-.49.16-1.01.29-1.53.37-.54.08-1.1.13-1.66.13-.27,0-.52.11-.71.29l-2.29,2.29v-2.32c0-.41-.25-.78-.64-.93-.33-.13-.65-.27-.96-.43-.3-.16-.59-.33-.86-.52-.27-.19-.52-.39-.75-.6-.23-.21-.44-.43-.63-.67-.19-.23-.35-.47-.5-.72-.14-.25-.27-.5-.37-.76-.1-.26-.17-.53-.22-.8-.05-.27-.08-.55-.08-.83,0-.39.05-.78.15-1.16.1-.37.24-.74.44-1.09.19-.35.43-.69.71-1.01.28-.32.6-.63.96-.9.36-.28.76-.54,1.18-.76.43-.23.9-.42,1.38-.58.49-.16,1.01-.29,1.53-.37.54-.08,1.1-.13,1.66-.13s1-.45,1-1-.45-1-1-1c-.66,0-1.32.05-1.97.15-.63.1-1.25.25-1.84.45-.58.19-1.15.43-1.68.71-.53.28-1.03.6-1.48.95-.46.36-.87.75-1.24,1.17-.37.43-.69.89-.95,1.37-.27.49-.48,1.01-.61,1.54-.14.54-.22,1.11-.22,1.67,0,.4.04.8.11,1.19.07.39.18.77.32,1.14.14.36.31.72.51,1.06.2.34.43.67.68.97.25.31.53.6.82.88.29.27.61.53.96.77.34.24.7.46,1.07.66.17.09.35.18.53.26v2.26c0,.18.03.36.08.54.05.17.13.32.23.46.1.14.21.26.34.37.13.1.27.19.42.25.16.06.32.11.47.12.07,0,.14.01.21.01.1,0,.19,0,.29-.03.17-.03.34-.08.51-.17.16-.08.3-.19.43-.32l2.43-2.43c.52-.02,1.04-.07,1.55-.15.63-.1,1.25-.25,1.84-.45.58-.19,1.15-.43,1.68-.71.53-.28,1.03-.6,1.48-.95.46-.36.87-.75,1.24-1.17.37-.43.69-.89.95-1.37.27-.49.48-1.01.61-1.54.14-.54.22-1.11.22-1.67s-.45-1-1-1Z"/></svg>