<svg xmlns="http://www.w3.org/2000/svg" width="24" height="24" viewBox="0 0 24 24"><path d="M18 3H6C3.79 3 2 4.79 2 7v8c0 2.21 1.79 4 4 4h1v1.82c0 .7.4 1.31 1.04 1.6.23.1.48.16.72.16.42 0 .83-.16 1.16-.45l3.46-3.12H18c2.21 0 4-1.79 4-4V7c0-2.21-1.79-4-4-4m2 12c0 1.1-.9 2-2 2h-5c-.25 0-.49.09-.67.26l-3.33 3v-2.25c0-.55-.45-1-1-1H6c-1.1 0-2-.9-2-2V7c0-1.1.9-2 2-2h12c1.1 0 2 .9 2 2z"/><path d="M12 14a1 1 0 1 0 0 2 1 1 0 1 0 0-2M13.88 6.54a3.48 3.48 0 0 0-3.75 0c-.65.42-1.13 1.02-1.39 1.7-.24.61.27 1.26.92 1.26.4 0 .81-.2.96-.57.07-.18.18-.34.33-.49.57-.57 1.55-.57 2.12 0A1.499 1.499 0 0 1 12.04 11c-.56 0-1.03.44-1.03 1v.5a.99.99 0 0 0 1 1c.27 0 .52-.1.71-.29.11-.11.18-.24.23-.38.53-.17 1.14-.45 1.54-.85.66-.66 1.03-1.54 1.03-2.47 0-1.19-.59-2.28-1.62-2.96Z"/></svg>