<svg xmlns="http://www.w3.org/2000/svg" viewBox="0 0 24 24" width="24" height="24"><path d="m18,3H6c-2.21,0-4,1.79-4,4v8c0,1.86,1.28,3.41,3,3.86v1.14c0,.55.45,1,1,1s1-.45,1-1v-1h10v1c0,.55.45,1,1,1s1-.45,1-1v-1.14c1.72-.45,3-2,3-3.86V7c0-2.21-1.79-4-4-4Zm2,12c0,1.1-.9,2-2,2H6c-1.1,0-2-.9-2-2V7c0-1.1.9-2,2-2h12c1.1,0,2,.9,2,2v8Z"/><path d="m12,7h-4c-1.1,0-2,.9-2,2v4c0,1.1.9,2,2,2h4c1.1,0,2-.9,2-2v-4c0-1.1-.9-2-2-2Zm-4,6v-4h4v4s-4,0-4,0Z"/><path d="M17 8A1 1 0 1 0 17 10 1 1 0 1 0 17 8z"/><path d="M17 12A1 1 0 1 0 17 14 1 1 0 1 0 17 12z"/></svg>