<svg xmlns="http://www.w3.org/2000/svg" viewBox="0 0 24 24" width="24" height="24"><path d="m17,18h-.64c-1.17,0-2.28-.56-2.98-1.49-.66-.88-2.1-.88-2.76,0-.7.93-1.82,1.49-2.98,1.49h-.64c-2.76,0-5-2.24-5-5v-2c0-2.76,2.24-5,5-5h10c2.76,0,5,2.24,5,5v2c0,2.76-2.24,5-5,5Zm-5-4.18c1.18,0,2.27.54,2.98,1.49.32.43.84.69,1.38.69h.64c1.65,0,3-1.35,3-3v-2c0-1.65-1.35-3-3-3H7c-1.65,0-3,1.35-3,3v2c0,1.65,1.35,3,3,3h.64c.54,0,1.06-.26,1.38-.69.71-.95,1.8-1.49,2.98-1.49Z"/><path d="M7.5 10A2.5 1.5 0 1 0 7.5 13 2.5 1.5 0 1 0 7.5 10z"/><path d="M16.5 10A2.5 1.5 0 1 0 16.5 13 2.5 1.5 0 1 0 16.5 10z"/></svg>