<svg xmlns="http://www.w3.org/2000/svg" viewBox="0 0 24 24" width="24" height="24"><path d="m10.79,2.07C6.07,2.63,2.3,6.63,2.02,11.39c-.14,2.34.55,4.66,1.91,6.51l-1.21,1.75c-.32.46-.36,1.05-.1,1.55.26.5.77.8,1.33.8h8.05c4.35,0,8.26-2.81,9.51-6.82,1.06-3.41.4-6.9-1.81-9.56-2.18-2.62-5.5-3.94-8.91-3.54Zm8.81,12.51c-.99,3.19-4.12,5.42-7.6,5.42h-7.09l.67-.96c.49-.7.48-1.63-.02-2.3-1.12-1.52-1.66-3.33-1.55-5.23.23-3.81,3.24-7.01,7.01-7.45,2.73-.32,5.39.74,7.13,2.83,1.77,2.13,2.3,4.94,1.44,7.69Z"/><path d="m14.84,10.8l-1.64-.13-.75-1.66c-.18-.39-.73-.39-.91,0l-.75,1.66-1.64.13c-.44.03-.62.58-.29.87l1.36,1.22-.52,1.8c-.13.45.37.81.76.55l1.53-1.02,1.53,1.02c.39.26.89-.11.76-.55l-.52-1.8,1.36-1.22c.33-.29.14-.84-.29-.87Z"/></svg>