<svg xmlns="http://www.w3.org/2000/svg" width="24" height="24" viewBox="0 0 24 24"><rect width="5" height="6" x="5" y="7" rx="1.5" ry="1.5"/><path d="M14 15H6c-.55 0-1 .45-1 1s.45 1 1 1h8c.55 0 1-.45 1-1s-.45-1-1-1M14 11h-1c-.55 0-1 .45-1 1s.45 1 1 1h1c.55 0 1-.45 1-1s-.45-1-1-1M14 7h-1c-.55 0-1 .45-1 1s.45 1 1 1h1c.55 0 1-.45 1-1s-.45-1-1-1"/><path d="M22 6c-.55 0-1 .45-1 1v11c0 .55-.45 1-1 1s-1-.45-1-1V5c0-1.1-.9-2-2-2H3c-1.1 0-2 .9-2 2v13c0 1.65 1.35 3 3 3h16c1.65 0 3-1.35 3-3V7c0-.55-.45-1-1-1M4 19c-.55 0-1-.45-1-1V5h14v13c0 .35.07.69.18 1z"/></svg>