<svg xmlns="http://www.w3.org/2000/svg" viewBox="0 0 24 24" width="24" height="24"><path d="m21.24,12.03c-.54-.13-1.08.19-1.21.73l-.81,3.24h-1.72c-1.38,0-2.5,1.12-2.5,2.5v2.5c0,.55.45,1,1,1s1-.45,1-1v-2.5c0-.28.22-.5.5-.5h1.5v3c0,.55.45,1,1,1s1-.45,1-1v-3.88l.97-3.88c.13-.54-.19-1.08-.73-1.21Z"/><path d="m6.5,16h-1.72l-.81-3.24c-.13-.54-.68-.86-1.21-.73-.54.13-.86.68-.73,1.21l.97,3.88v3.88c0,.55.45,1,1,1s1-.45,1-1v-3h1.5c.28,0,.5.22.5.5v2.5c0,.55.45,1,1,1s1-.45,1-1v-2.5c0-1.38-1.12-2.5-2.5-2.5Z"/><path d="m17,14c.55,0,1-.45,1-1s-.45-1-1-1h-4v-3h7.13c.34,0,.65-.17.84-.46.18-.28.21-.64.07-.95-1.51-3.4-5.06-5.59-9.04-5.59S4.47,4.2,2.96,7.59c-.14.31-.11.67.07.95.18.28.5.46.84.46h7.13v3h-4c-.55,0-1,.45-1,1s.45,1,1,1h4v7c0,.55.45,1,1,1s1-.45,1-1v-7h4Zm-5-10c2.59,0,4.94,1.14,6.38,3H5.62c1.43-1.86,3.79-3,6.38-3Z"/></svg>