<svg xmlns="http://www.w3.org/2000/svg" viewBox="0 0 24 24" width="24" height="24"><path d="m8.85,2.03c-.9-.07-1.77.56-2.02,1.46L2.27,19.88c-.14.52,0,1.08.38,1.46.29.29.67.44,1.06.44.13,0,.27-.02.4-.05l16.39-4.55c.9-.25,1.52-1.1,1.46-2.02-.42-7.06-6.07-12.71-13.13-13.13Zm-3.14,12.94c1.05.16,2.05-.53,2.26-1.58.19-.95-.34-1.88-1.2-2.24l.86-3.12c4.46.31,8.03,3.87,8.35,8.33l-5.11,1.42c-.36-.94-1.37-1.49-2.37-1.22-1.01.27-1.63,1.27-1.45,2.28l-2.61.72,1.27-4.59Zm12.23.84c-.55-5.13-4.64-9.21-9.77-9.75l.56-2.04c6.04.36,10.88,5.19,11.25,11.23l-2.04.57Z"/><path d="M12 12A2 2 0 1 0 12 16 2 2 0 1 0 12 12z"/></svg>