<svg xmlns="http://www.w3.org/2000/svg" viewBox="0 0 24 24" width="24" height="24"><path d="m18.76,5.24c-.51-1.33-1.8-2.24-3.26-2.24-.31,0-.63.04-.93.13-.65-.71-1.57-1.13-2.57-1.13s-1.91.42-2.57,1.13c-.31-.09-.62-.13-.93-.13-1.47,0-2.75.91-3.26,2.24-1.33.51-2.24,1.8-2.24,3.26,0,.93.37,1.76.96,2.39l1.82,9.1c.23,1.16,1.26,2.01,2.45,2.01h7.54c1.19,0,2.22-.85,2.45-2.01l1.82-9.1c.59-.63.96-1.46.96-2.39,0-1.47-.91-2.75-2.24-3.26Zm-12.53,1.79c.41-.08.73-.39.8-.8.18-.97,1.33-1.55,2.24-1,.24.14.52.18.79.11.27-.08.49-.26.62-.5.26-.51.77-.82,1.33-.82s1.07.31,1.33.82c.13.25.35.43.62.5.27.08.55.04.79-.11.91-.54,2.06.03,2.24,1,.07.41.39.73.8.8.71.13,1.23.75,1.23,1.47,0,.83-.67,1.5-1.5,1.5H6.5c-.83,0-1.5-.67-1.5-1.5,0-.72.52-1.34,1.23-1.47Zm7.17,4.97l-.8,8h-1.19l-.8-8h2.79Zm-5.66,7.6l-1.52-7.6h2.38l.8,8h-1.17c-.24,0-.44-.17-.49-.4Zm8.52,0c-.05.23-.25.4-.49.4h-1.17l.8-8h2.38l-1.52,7.6Z"/></svg>