<svg xmlns="http://www.w3.org/2000/svg" width="24" height="24" viewBox="0 0 24 24"><path d="M17.15 2.73c-.47-.47-1.11-.73-1.77-.73H8.62c-.66 0-1.3.27-1.77.73L2.73 6.85C2.26 7.32 2 7.96 2 8.62v6.76c0 .66.27 1.3.73 1.77l4.12 4.12c.47.47 1.11.73 1.77.73h6.76c.66 0 1.3-.27 1.77-.73l4.12-4.12c.47-.47.73-1.11.73-1.77V8.62c0-.66-.27-1.3-.73-1.77zM20 15.38c0 .13-.05.26-.15.35l-4.12 4.12a.5.5 0 0 1-.35.15H8.62a.47.47 0 0 1-.35-.15l-4.12-4.12a.5.5 0 0 1-.15-.35V8.62c0-.13.05-.26.15-.35l4.12-4.12A.5.5 0 0 1 8.62 4h6.76c.13 0 .26.05.35.15l4.12 4.12c.09.09.15.22.15.35z"/></svg>