<svg xmlns="http://www.w3.org/2000/svg" width="24" height="24" viewBox="0 0 24 24"><path d="M3.99 20.4a1.76 1.76 0 0 0 1.7.45l9.47-2.58c1.08-.3 1.84-1.29 1.84-2.41v-3.23c0-.13.05-.26.15-.35l2.77-2.77.73-.74c.47-.47.73-1.1.73-1.77s-.26-1.3-.74-1.77l-1.88-1.88c-.98-.97-2.56-.97-3.54 0l-1.43 1.44-2.06 2.06a.5.5 0 0 1-.35.15H8.15c-1.12 0-2.12.76-2.41 1.84l-2.58 9.47c-.16.6 0 1.26.45 1.7l.38.38ZM16.64 4.77c.19-.2.51-.2.71 0l1.88 1.88c.13.13.15.28.15.35s-.02.23-.15.35l-.73.73-2.59-2.59.73-.73Zm-8.98 4.6c.06-.22.26-.37.48-.37h3.23c.66 0 1.3-.27 1.77-.73l1.35-1.35 2.59 2.59-1.35 1.35c-.47.47-.73 1.11-.73 1.77v3.23c0 .22-.15.42-.37.48l-7.64 2.08 3.43-3.43h.08c.83 0 1.5-.67 1.5-1.5s-.67-1.5-1.5-1.5-1.5.67-1.5 1.5v.08L5.57 17l2.08-7.64Z"/></svg>