<svg xmlns="http://www.w3.org/2000/svg" viewBox="0 0 24 24" width="24" height="24"><path d="m18,3H5c-1.65,0-3,1.35-3,3v11c0,1.65,1.35,3,3,3h7c.55,0,1-.45,1-1s-.45-1-1-1h-7c-.55,0-1-.45-1-1V6c0-.55.45-1,1-1h13c.55,0,1,.45,1,1v5c0,.55.45,1,1,1s1-.45,1-1v-5c0-1.65-1.35-3-3-3Z"/><rect x="6" y="7" width="8" height="6" rx="1" ry="1"/><path d="m18.21,15.79l.94-.94c.32-.31.09-.85-.35-.85h-3.29c-.28,0-.5.22-.5.5v3.29c0,.45.54.67.85.35l.94-.94,2.5,2.5c.2.2.45.29.71.29s.51-.1.71-.29c.39-.39.39-1.02,0-1.41l-2.5-2.5Z"/></svg>