<svg xmlns="http://www.w3.org/2000/svg" viewBox="0 0 24 24" width="24" height="24"><path d="m20,9h-7v-2.39c.78-.1,1.77-.36,2.53-1.02,1.46-1.28,1.47-3.57,1.47-3.57,0,0-2.35-.21-3.81,1.07-.79.69-1.15,1.67-1.32,2.43-.12-.57-.36-1.24-.87-1.74-1.1-1.06-3-.94-3-.94,0,0-.12,1.85.97,2.91.58.57,1.39.79,2.02.89v2.38h-7c-1.1,0-2,.9-2,2v2c0,1.1.9,2,2,2h.25l1.48,5.19c.31,1.07,1.29,1.81,2.4,1.81h7.74c1.11,0,2.1-.75,2.4-1.81l1.48-5.19h.25c1.1,0,2-.9,2-2v-2c0-1.1-.9-2-2-2Zm-16,2h16v2s-16,0-16,0v-2Zm12.35,8.64c-.06.21-.26.36-.48.36h-7.74c-.22,0-.42-.15-.48-.36l-1.32-4.64h11.35l-1.32,4.64Z"/></svg>