<svg xmlns="http://www.w3.org/2000/svg" viewBox="0 0 24 24" width="24" height="24"><path class="b" d="m20.65,7.23l-.88-.88c-.94-.95-2.59-.94-3.54,0l-9.79,9.79c-.28.28-.44.66-.44,1.06v2.29c0,.83.67,1.5,1.5,1.5h2.29c.4,0,.78-.16,1.06-.44l9.79-9.79c.97-.97.97-2.56,0-3.54Zm-11.06,11.77h-1.59v-1.59l7.5-7.5,1.59,1.59-7.5,7.5Zm9.65-9.65l-.73.73-1.59-1.59.73-.73c.13-.13.28-.15.35-.15s.23.02.35.15l.88.88c.19.2.19.51,0,.71Z"/><path class="b" d="m7.42,10.41l.61-1.37c.2-.45.56-.81,1.01-1.01l1.37-.61c.36-.16.59-.52.59-.91s-.23-.75-.59-.91l-1.37-.61c-.45-.2-.81-.56-1.01-1.01l-.61-1.38c-.16-.36-.51-.59-.9-.59h0c-.39,0-.74.23-.9.58,0,0,0,0,0,0l-.62,1.35c-.19.42-.53.76-.94.96l-1.48.71c-.35.17-.57.52-.56.91,0,.39.23.74.59.89l1.4.62c.45.2.81.56,1.01,1.01l.61,1.37c.16.36.52.59.91.59s.75-.23.91-.59Z"/><path class="b" d="m21.67,19l-.76-.34c-.25-.11-.45-.31-.56-.56l-.34-.77c-.09-.2-.28-.33-.5-.33h0c-.21,0-.41.13-.5.32,0,0,0,0,0,0l-.34.75c-.11.23-.29.42-.52.53l-.82.4c-.2.09-.32.29-.31.51,0,.22.13.41.33.5l.78.35c.25.11.45.31.56.56l.34.76c.09.2.29.33.5.33s.42-.13.5-.33l.34-.76c.11-.25.31-.45.56-.56l.76-.34c.2-.09.33-.29.33-.51s-.13-.42-.33-.51Z"/></svg>