<svg xmlns="http://www.w3.org/2000/svg" viewBox="0 0 24 24" width="24" height="24"><path d="m19.77,5.85c-.97-.97-2.56-.97-3.54,0l-.94.94h0s-1.22,1.22-1.22,1.22c-.06.06-.14.11-.22.13l-4.24,1.16c-.9.25-1.58.96-1.78,1.87l-1.68,7.55c-.59.18-1.2.26-1.58.05-.5-.28-.57-1.23-.57-1.77,0-1.87.77-4.02,1.51-6.11,1.06-2.97,1.98-5.53.72-7.31-.61-.87-1.64-1.37-3.14-1.53-.58-.06-1.1.41-1.1,1,0,.51.39.94.9.99.71.08,1.4.27,1.7.69.66.93-.17,3.24-.97,5.48-.76,2.14-1.63,4.56-1.63,6.78,0,1.73.53,2.91,1.59,3.51.49.28,1.03.38,1.57.38s1.08-.11,1.56-.26l.28.28c.33.33.78.51,1.23.51.13,0,.26-.01.38-.04l7.71-1.71c.91-.2,1.62-.88,1.87-1.78l1.16-4.24c.02-.08.07-.16.13-.22l1.22-1.22h0s.94-.94.94-.94c.97-.97.97-2.56,0-3.54l-1.88-1.88Zm-2.34,7.27l-1.16,4.24c-.05.18-.19.32-.37.36l-6.05,1.34,3.07-3.07s.05,0,.08,0c.83,0,1.5-.67,1.5-1.5s-.67-1.5-1.5-1.5-1.5.67-1.5,1.5c0,.03,0,.05,0,.08l-3.07,3.07,1.34-6.05c.04-.18.18-.33.36-.37l4.24-1.16c.19-.05.37-.13.55-.23l2.73,2.73c-.1.17-.18.36-.23.55Zm1.86-2.33l-.29.29-2.59-2.59.29-.29h0s.94-.94.94-.94c.2-.19.51-.19.71,0l1.88,1.88c.19.19.19.51,0,.71l-.94.94h0Z"/></svg>