<svg xmlns="http://www.w3.org/2000/svg" viewBox="0 0 24 24" width="24" height="24"><path d="m21,2H3c-.55,0-1,.45-1,1s.45,1,1,1h1v15c0,1.66,1.34,3,3,3h10c1.66,0,3-1.34,3-3V4h1c.55,0,1-.45,1-1s-.45-1-1-1Zm-3,17c0,.55-.45,1-1,1H7c-.55,0-1-.45-1-1V4h12v15Z"/><path d="m12,13c2,0,2,.68,2,1,0,.42-.62,1-2,1-1.1,0-1.6-.31-1.82-.59-.19-.24-.46-.41-.77-.41h-.17c-.73,0-1.19.81-.79,1.43.43.67,1.22,1.28,2.56,1.49v.08c0,.55.45,1,1,1s1-.45,1-1v-.09c1.97-.33,3-1.63,3-2.91,0-1.12-.52-3-4-3-2,0-2-.63-2-1,0-.48.7-1,2-1,.74,0,1.09.25,1.26.52.18.29.48.49.82.49h.16c.67,0,1.14-.71.84-1.3-.35-.7-1.02-1.34-2.09-1.59v-.12c0-.55-.45-1-1-1s-1,.45-1,1v.09c-1.97.33-3,1.63-3,2.91,0,1.12.52,3,4,3Z"/></svg>