<svg xmlns="http://www.w3.org/2000/svg" viewBox="0 0 24 24" width="24" height="24"><path d="m14.86,11.35l-4.74-2.71c-.5-.29-1.12.08-1.12.65v5.42c0,.58.62.94,1.12.65l4.74-2.71c.5-.29.5-1.01,0-1.3Z"/><path d="m13.12,2.06c-.6-.07-1.12.4-1.12,1,0,.5.37.93.87.98,4.01.43,7.13,3.83,7.13,7.95s-3.13,7.52-7.13,7.95c-.5.05-.87.49-.87.98,0,.6.53,1.07,1.12,1,4.99-.56,8.88-4.8,8.88-9.94S18.11,2.62,13.12,2.06Z"/><path d="m4.19,13.73c-.11-.49-.57-.82-1.07-.76h0c-.59.06-1,.63-.87,1.21.21.92.54,1.81,1,2.64.29.52.97.67,1.46.33h0c.41-.29.54-.84.3-1.28-.37-.67-.64-1.39-.81-2.14Z"/><path d="m9.35,19.54c-.72-.25-1.4-.61-2.03-1.06-.41-.29-.97-.23-1.31.15h0c-.4.44-.33,1.14.15,1.49.77.55,1.61.99,2.5,1.31.56.2,1.17-.14,1.31-.72h0c.11-.49-.15-.99-.63-1.16Z"/><path d="m6.04,5.34c.34.37.9.44,1.31.15.62-.45,1.31-.8,2.03-1.05.47-.16.74-.66.63-1.15h0c-.13-.58-.74-.93-1.3-.73-.89.31-1.74.75-2.51,1.3-.48.34-.56,1.04-.16,1.48h0Z"/><path d="m4.72,6.82c-.48-.35-1.17-.2-1.46.32-.46.83-.8,1.72-1.01,2.64-.13.58.28,1.15.87,1.21h0c.5.06.96-.27,1.08-.76.17-.74.44-1.46.82-2.13.25-.44.11-.99-.29-1.28h0Z"/></svg>