<svg xmlns="http://www.w3.org/2000/svg" viewBox="0 0 24 24" width="24" height="24"><path d="M12 4A2 2 0 1 0 12 8 2 2 0 1 0 12 4z"/><path d="M5 7A2 2 0 1 0 5 11 2 2 0 1 0 5 7z"/><path d="M19 7A2 2 0 1 0 19 11 2 2 0 1 0 19 7z"/><path d="m18.53,12.04c-.83.14-1.55.67-2.01,1.38l-2.19,3.29c-.35.53-.85.96-1.46,1.16-1.22.39-2.48-.08-3.15-1.08l-2.24-3.36c-.47-.7-1.18-1.23-2.01-1.38-1.86-.32-3.47,1.11-3.47,2.91v4.05c0,.55.45,1,1,1h3c.55,0,1-.45,1-1v-2.7l.99,1.49c.61.92,1.49,1.65,2.55,1.98,2.1.65,4.25-.17,5.4-1.89l1.06-1.59v2.7c0,.55.45,1,1,1h3c.55,0,1-.45,1-1v-4.05c0-1.8-1.61-3.23-3.47-2.91Z"/><path d="m11.39,15.67c.14.2.37.33.61.33.08,0,.17-.01.26-.04.13-.04.28-.18.4-.36l2.19-3.29c.04-.06.1-.12.15-.18v-.13c0-1.66-1.34-3-3-3s-3,1.34-3,3v.13c.05.06.1.11.15.18l2.24,3.36Z"/></svg>