<svg xmlns="http://www.w3.org/2000/svg" viewBox="0 0 24 24" width="24" height="24"><path class="b" d="m17,6.14v-1.64c0-1.38-1.12-2.5-2.5-2.5h-5c-1.38,0-2.5,1.12-2.5,2.5v1.64c-1.72.45-3,2-3,3.86v8c0,2.21,1.79,4,4,4h8c2.21,0,4-1.79,4-4v-8c0-1.86-1.28-3.41-3-3.86Zm-8-1.64c0-.28.22-.5.5-.5h5c.28,0,.5.22.5.5v1.5h-6v-1.5Zm9,13.5c0,1.1-.9,2-2,2h-8c-1.1,0-2-.9-2-2v-8c0-1.1.9-2,2-2h8c1.1,0,2,.9,2,2v8Z"/><path class="b" d="m15,13h-2v-2c0-.55-.45-1-1-1s-1,.45-1,1v2h-2c-.55,0-1,.45-1,1s.45,1,1,1h2v2c0,.55.45,1,1,1s1-.45,1-1v-2h2c.55,0,1-.45,1-1s-.45-1-1-1Z"/></svg>