<svg xmlns="http://www.w3.org/2000/svg" width="24" height="24" viewBox="0 0 24 24"><path d="M19.5 7.99H16V4.5A2.5 2.5 0 0 0 13.5 2h-3A2.5 2.5 0 0 0 8 4.5v3.49H4.5a2.5 2.5 0 0 0-2.5 2.5v3a2.5 2.5 0 0 0 2.5 2.5H8v3.51a2.5 2.5 0 0 0 2.5 2.5h3a2.5 2.5 0 0 0 2.5-2.5v-3.51h3.5a2.5 2.5 0 0 0 2.5-2.5v-3a2.5 2.5 0 0 0-2.5-2.5m.5 5.5c0 .28-.22.5-.5.5H15c-.55 0-1 .45-1 1v4.51c0 .28-.22.5-.5.5h-3c-.28 0-.5-.22-.5-.5v-4.51c0-.55-.45-1-1-1H4.5c-.28 0-.5-.22-.5-.5v-3c0-.28.22-.5.5-.5H9c.55 0 1-.45 1-1V4.5c0-.28.22-.5.5-.5h3c.28 0 .5.22.5.5v4.49c0 .55.45 1 1 1h4.5c.28 0 .5.22.5.5z"/></svg>