<svg xmlns="http://www.w3.org/2000/svg" viewBox="0 0 24 24" width="24" height="24"><path d="m19,2H6c-1.65,0-3,1.35-3,3v14c0,1.65,1.35,3,3,3h14c.55,0,1-.45,1-1s-.45-1-1-1H6c-.55,0-1-.45-1-1s.45-1,1-1h13c1.1,0,2-.9,2-2V4c0-1.1-.9-2-2-2Zm0,14H6c-.35,0-.69.07-1,.18V5c0-.55.45-1,1-1h13v12Z"/><path d="M8.5 6A1.5 1.5 0 1 0 8.5 9 1.5 1.5 0 1 0 8.5 6z"/><path d="m8.97,11.63l-1.29,1.55c-.27.33-.04.82.38.82h8.89c.42,0,.65-.48.39-.81l-2.78-3.48c-.29-.37-.85-.38-1.16-.02l-2.06,2.4c-.19.22-.53.23-.73.03l-.54-.54c-.31-.31-.82-.29-1.11.05Z"/></svg>