<svg xmlns="http://www.w3.org/2000/svg" viewBox="0 0 24 24" width="24" height="24"><path class="b" d="m12,2C6.49,2,2,6.49,2,12s4.49,10,10,10,10-4.49,10-10S17.51,2,12,2Zm0,18c-4.41,0-8-3.59-8-8S7.59,4,12,4s8,3.59,8,8-3.59,8-8,8Z"/><path class="b" d="m14.71,8.71c-.39-.39-1.02-.39-1.41,0l-.41.41c-.2.2-.2.51,0,.71l1.29,1.29c.2.2.51.2.71,0l.41-.41c.39-.39.39-1.02,0-1.41l-.59-.59Z"/><path class="b" d="m12.18,10.53c-.2-.2-.51-.2-.71,0l-3.32,3.32c-.09.09-.15.22-.15.35v1.29c0,.28.22.5.5.5h1.29c.13,0,.26-.05.35-.15l3.32-3.32c.2-.2.2-.51,0-.71l-1.29-1.29Z"/></svg>