<svg xmlns="http://www.w3.org/2000/svg" viewBox="0 0 24 24" width="24" height="24"><path d="m12,2C6.49,2,2,6.49,2,12c0,3.26,1.58,6.15,4,7.98v.02h.03c1.67,1.25,3.73,2,5.97,2s4.31-.75,5.97-2h.03v-.02c2.42-1.83,4-4.72,4-7.98,0-5.51-4.49-10-10-10Zm-.91,9h1.83l2.72,3.81-1.53.77-1.51-1.13c-.36-.27-.84-.27-1.2,0l-1.51,1.13-1.53-.77,2.72-3.81Zm-3.09,7.92v-2.05l1.55.78c.34.17.74.13,1.05-.09l1.4-1.05,1.4,1.05c.18.13.39.2.6.2.15,0,.31-.04.45-.11l1.55-.78v2.05c-1.18.68-2.54,1.08-4,1.08s-2.82-.4-4-1.08Zm10-1.64v-1.79c0-.52-.16-1.03-.47-1.45l-4.31-6.04c-.56-.79-1.88-.79-2.44,0l-4.31,6.04c-.3.43-.46.93-.46,1.45v1.79c-1.24-1.41-2-3.25-2-5.27,0-4.41,3.59-8,8-8s8,3.59,8,8c0,2.02-.76,3.86-2,5.27Z"/></svg>