<svg xmlns="http://www.w3.org/2000/svg" width="24" height="24" viewBox="0 0 24 24"><path d="M17.43 21.98h.15c.98 0 1.91-.48 2.47-1.29l.82-1.18c.46-.67.63-1.47.48-2.27a2.97 2.97 0 0 0-1.28-1.93l-2.3-1.53a3.004 3.004 0 0 0-3.86.46l-.6.65c-.69-.43-1.61-1.07-2.36-1.82s-1.39-1.68-1.82-2.36l.65-.6a2.99 2.99 0 0 0 .46-3.87l-1.53-2.3a3 3 0 0 0-2.5-1.34c-.61 0-1.2.18-1.71.53l-1.18.81a2.99 2.99 0 0 0-1.29 2.62c.1 1.92.75 6.81 4.67 10.74 3.93 3.93 8.82 4.58 10.74 4.67ZM8.41 8.63 7.32 9.64c-.43.4-.53 1.03-.24 1.54.43.75 1.32 2.17 2.44 3.29 1.13 1.13 2.55 2.02 3.29 2.44.51.29 1.14.2 1.54-.24l1.01-1.09c.33-.36.88-.43 1.29-.15l2.3 1.53c.23.15.38.38.43.65s0 .53-.16.76l-.81 1.18c-.2.29-.54.45-.88.43-1.69-.08-5.99-.65-9.42-4.09-3.44-3.44-4-7.74-4.09-9.43-.02-.35.14-.68.43-.87l1.18-.81c.22-.15.49-.21.76-.16s.49.2.64.43l1.53 2.3c.27.41.21.95-.15 1.29ZM11.79 3.16c-.5.35-.55 1.09-.11 1.52.34.34.88.38 1.28.1a4.51 4.51 0 0 1 5.72.53 4.51 4.51 0 0 1 .53 5.72c-.27.4-.24.94.11 1.28.43.43 1.17.39 1.52-.11 1.76-2.53 1.51-6.05-.74-8.3-2.26-2.26-5.77-2.5-8.3-.74Z"/><path d="M16.85 9.85c.51.51 1.4.31 1.62-.38.35-1.08.1-2.32-.76-3.17a3.11 3.11 0 0 0-3.17-.76c-.69.22-.89 1.11-.38 1.62.26.26.64.4.98.29.39-.13.84-.04 1.16.27.31.31.4.76.27 1.16-.12.34.03.73.29.98Z"/></svg>