<svg xmlns="http://www.w3.org/2000/svg" viewBox="0 0 24 24" width="24" height="24"><path d="m19,8.54v-.54c0-1.65-1.35-3-3-3h-1.55c-.3,0-.58.13-.77.37-.19.23-.27.54-.21.83.02.1.03.2.03.3,0,.83-.67,1.5-1.5,1.5s-1.5-.67-1.5-1.5c0-.1.01-.2.03-.3.06-.29-.02-.6-.21-.83-.19-.23-.47-.37-.77-.37h-1.55c-1.65,0-3,1.35-3,3v.54c-1.69.24-3,1.71-3,3.46s1.31,3.22,3,3.46v.54c0,1.65,1.35,3,3,3h1.55c.3,0,.58-.13.77-.37.19-.23.27-.54.21-.83-.02-.1-.03-.2-.03-.3,0-.83.67-1.5,1.5-1.5s1.5.67,1.5,1.5c0,.1-.01.2-.03.3-.06.29.02.6.21.83.19.23.47.37.77.37h1.55c1.65,0,3-1.35,3-3v-.54c1.69-.24,3-1.71,3-3.46s-1.31-3.22-3-3.46Zm-.8,4.93c-.29-.06-.6.01-.83.2-.23.19-.37.47-.37.78v1.55c0,.55-.45,1-1,1h-.54c-.24-1.69-1.7-3-3.46-3s-3.22,1.31-3.46,3h-.54c-.55,0-1-.45-1-1v-1.55c0-.3-.14-.58-.37-.78-.23-.19-.54-.27-.83-.2-.91.19-1.8-.54-1.8-1.47,0-.93.89-1.66,1.8-1.47.29.06.6-.02.83-.2.23-.19.37-.47.37-.78v-1.55c0-.55.45-1,1-1h.54c.24,1.69,1.7,3,3.46,3s3.22-1.31,3.46-3h.54c.55,0,1,.45,1,1v1.55c0,.3.14.58.37.78.23.19.54.26.83.2.91-.19,1.8.54,1.8,1.47s-.89,1.66-1.8,1.47Z"/></svg>