<svg xmlns="http://www.w3.org/2000/svg" viewBox="0 0 24 24" width="24" height="24"><path d="m13,14.09v-.59c0-1.38-1.12-2.5-2.5-2.5h-5c-.28,0-.5-.22-.5-.5v-5.5c-1.1,0-2,.9-2,2v3.5c0,1.38,1.12,2.5,2.5,2.5h5c.28,0,.5.22.5.5v.59c-.58.21-1,.76-1,1.41v5c0,.83.67,1.5,1.5,1.5h1c.83,0,1.5-.67,1.5-1.5v-5c0-.65-.42-1.2-1-1.41Z"/><path d="m17.5,2h-8c-1.93,0-3.5,1.57-3.5,3.5s1.57,3.5,3.5,3.5h8c1.93,0,3.5-1.57,3.5-3.5s-1.57-3.5-3.5-3.5Zm0,5h-8c-.83,0-1.5-.67-1.5-1.5s.67-1.5,1.5-1.5h8c.83,0,1.5.67,1.5,1.5s-.67,1.5-1.5,1.5Z"/></svg>