<svg xmlns="http://www.w3.org/2000/svg" width="24" height="24" viewBox="0 0 24 24"><path d="M10.17 19.59c.78.78 1.8 1.17 2.83 1.17s2.05-.39 2.83-1.17l3.76-3.76c.76-.75 1.17-1.76 1.17-2.83s-.42-2.07-1.17-2.83l-7.44-7.44c-.47-.47-1.11-.73-1.77-.73H6.62c-.66 0-1.3.27-1.77.73L2.73 4.85C2.26 5.32 2 5.96 2 6.62v3.76c0 .66.27 1.3.73 1.77zM4 6.62c0-.13.05-.26.15-.35l2.12-2.12A.5.5 0 0 1 6.62 4h3.76c.13 0 .26.05.35.15l7.44 7.44a1.983 1.983 0 0 1 0 2.82l-3.76 3.76c-.78.78-2.05.78-2.83 0l-7.44-7.44a.5.5 0 0 1-.15-.35V6.62Z"/><path d="M8 10c1.1 0 2-.9 2-2s-.9-2-2-2-2 .9-2 2 .9 2 2 2"/></svg>