<svg xmlns="http://www.w3.org/2000/svg" viewBox="0 0 24 24" width="24" height="24"><path d="m20.88,7.09c-1.17.19-2.15.68-2.96,1.25-.35-.4-.71-.79-1.09-1.17-.11-.11-.22-.2-.33-.31.3-.51.5-1.11.5-1.86,0-2.25-1.4-3.4-2.78-3.81-.61-.18-1.22.3-1.23.94v.04c0,.44.3.81.73.95.59.19,1.28.67,1.28,1.88,0,.18-.03.33-.07.48-1.1-.89-2.21-1.64-3.25-2.13-2.49-1.19-3.76-.69-4.39-.06-.17.17-.32.38-.44.65h0s-.04.11-.04.11c-.04.1-.07.2-.1.31l-4.23,12.98c-.39,1.19-.08,2.48.81,3.36.63.63,1.47.97,2.33.97.34,0,.69-.05,1.03-.16l13.14-4.28c.08-.03.17-.05.25-.08h.02s0,0,0,0c.27-.12.48-.27.65-.44.63-.63,1.13-1.9-.06-4.39-.37-.77-.87-1.59-1.47-2.41.57-.39,1.24-.7,2.01-.84.47-.08.82-.48.82-.95v-.06c0-.59-.53-1.07-1.12-.97Zm-9.04,10.08c-.42-.2-.89-.49-1.36-.84-.51-.38-1.02-.82-1.51-1.31s-.93-.99-1.31-1.51c-.35-.47-.64-.95-.84-1.36-.18-.38-.26-.64-.29-.81l1.05-3.23c.8,1.52,2.04,3.17,3.58,4.71,1.54,1.54,3.19,2.78,4.71,3.58l-3.23,1.05c-.16-.03-.43-.1-.81-.29Zm-5.81,2.44c-.47.15-.98.03-1.33-.32-.35-.35-.47-.86-.32-1.33l1.26-3.87c.13.2.26.4.41.61.44.59.94,1.17,1.5,1.73.56.56,1.14,1.06,1.73,1.5.21.15.41.28.61.41l-3.87,1.26Zm13.26-4.32s-.01,0-.02.01l-.16.05c-.3.04-.94-.04-1.94-.51-1.43-.68-3.06-1.9-4.59-3.43s-2.74-3.16-3.43-4.59c-.48-1-.56-1.64-.51-1.94l.05-.16s0-.02.01-.02c.04-.04.15-.07.33-.07.34,0,.93.12,1.79.52.8.38,1.67.95,2.54,1.63-.2.06-.4.11-.58.14-.46.08-.8.49-.79.96v.05c0,.6.54,1.07,1.13.96.63-.11,1.3-.32,1.92-.66.12.12.25.22.37.35.36.36.7.72,1.02,1.09-.3.33-.54.65-.74.93-.34.49-.17,1.16.37,1.43l.05.02c.43.21.95.09,1.22-.3.1-.14.23-.31.37-.48.46.65.86,1.29,1.15,1.9.62,1.3.57,2,.45,2.12Z"/></svg>