<svg xmlns="http://www.w3.org/2000/svg" viewBox="0 0 24 24" width="24" height="24"><path d="m4.41,21l4.59-4.59,1.23,1.23c.47.47,1.1.73,1.77.73s1.3-.26,1.77-.73l.88-.88c.88-.88.97-2.27.25-3.25l1.63-1.63c.98.72,2.36.64,3.25-.25l.88-.88c.47-.47.73-1.1.73-1.77s-.26-1.3-.73-1.77l-3.88-3.88c-.94-.94-2.59-.94-3.54,0l-.88.88c-.88.88-.97,2.27-.25,3.25l-1.63,1.63c-.98-.72-2.36-.64-3.25.25l-.88.88c-.47.47-.73,1.1-.73,1.77s.26,1.3.73,1.77l1.23,1.23-4.59,4.59c-.39.39-.39,1.02,0,1.41.39.39,1.02.39,1.41,0Zm3.35-9.35l.88-.88c.13-.13.28-.15.35-.15s.23.02.35.15l.44.44c.39.39,1.02.39,1.41,0l3-3c.39-.39.39-1.02,0-1.41l-.44-.44c-.13-.13-.15-.28-.15-.35s.02-.23.15-.35l.88-.88c.2-.19.51-.19.71,0l3.88,3.88c.19.19.19.51,0,.71l-.88.88c-.13.13-.28.15-.35.15s-.23-.02-.35-.15l-.44-.44c-.39-.39-1.02-.39-1.41,0l-3,3c-.39.39-.39,1.02,0,1.41l.44.44c.13.13.15.28.15.35s-.02.23-.15.35l-.88.88c-.2.19-.51.19-.71,0l-3.88-3.88c-.19-.19-.19-.51,0-.71Z"/></svg>