<svg xmlns="http://www.w3.org/2000/svg" viewBox="0 0 24 24" width="24" height="24"><path d="m20,9.8c-.1-4.53-3.64-7.8-8.5-7.8S2.01,5.24,2.01,10.67c0,2.34.74,4.36,2.2,6.01.36.41.79,1.07.79,1.91v2.41c0,.55.45,1,1,1s1-.45,1-1v-2.41c0-1.15-.46-2.3-1.3-3.24-1.13-1.27-1.7-2.84-1.7-4.68,0-4.33,3.86-6.67,7.49-6.67,3.83,0,6.5,2.47,6.5,6,0,.13.02.25.07.37l1.45,3.63h-1.02c-.83,0-1.5.67-1.5,1.5v2.5h-2c-1.1,0-2,.9-2,2v1c0,.55.45,1,1,1s1-.45,1-1v-1h2c1.1,0,2-.9,2-2v-2h1.26c.5,0,.96-.25,1.24-.66s.34-.94.15-1.4l-1.66-4.14Z"/><path d="m7.33,12.64l.42.73c.18.3.57.41.88.23l.34-.2c.29.25.62.44.97.57v.39c0,.35.29.64.64.64h.84c.35,0,.64-.29.64-.64v-.39c.35-.13.68-.32.97-.57l.34.2c.31.18.7.07.88-.23l.42-.73c.18-.31.07-.7-.23-.88l-.33-.19c.04-.19.05-.38.05-.57s-.02-.38-.05-.57l.33-.19c.31-.18.41-.57.23-.88l-.42-.73c-.18-.31-.57-.41-.88-.23l-.34.2c-.29-.25-.62-.44-.97-.57v-.39c0-.35-.29-.64-.64-.64h-.84c-.35,0-.64.29-.64.64v.39c-.35.13-.68.32-.97.57l-.34-.2c-.31-.18-.7-.07-.88.23l-.42.73c-.18.31-.07.7.23.88l.33.19c-.04.19-.05.38-.05.57s.02.38.05.57l-.33.19c-.31.18-.41.57-.23.88Zm3.67-3.18c.84,0,1.55.71,1.55,1.55s-.71,1.55-1.55,1.55-1.55-.71-1.55-1.55.71-1.55,1.55-1.55Z"/></svg>