<svg xmlns="http://www.w3.org/2000/svg" viewBox="0 0 24 24" width="24" height="24"><path d="m21,11h-1v-3.38c0-1.41-1-2.64-2.37-2.93L7.63,2.54c-.89-.19-1.81.03-2.51.6-.71.57-1.11,1.42-1.11,2.33v5.53h-1c-.55,0-1,.45-1,1s.45,1,1,1h1v5.53c0,.91.41,1.76,1.11,2.33.54.44,1.2.67,1.88.67.21,0,.42-.02.63-.07l10-2.14c1.37-.29,2.37-1.53,2.37-2.93v-3.38h1c.55,0,1-.45,1-1s-.45-1-1-1ZM6,5.47c0-.3.14-.59.37-.78.18-.15.4-.22.63-.22.07,0,.14,0,.21.02l10,2.14c.46.1.79.51.79.98v3.38H6v-5.53Zm12,10.91c0,.47-.33.88-.79.98h0l-10,2.14c-.3.06-.6,0-.84-.2-.24-.19-.37-.47-.37-.78v-5.53h12v3.38Z"/></svg>