<svg xmlns="http://www.w3.org/2000/svg" width="24" height="24" viewBox="0 0 24 24"><path d="M3 5.5v3A2.5 2.5 0 0 0 5.5 11h3A2.5 2.5 0 0 0 11 8.5v-3A2.5 2.5 0 0 0 8.5 3h-3A2.5 2.5 0 0 0 3 5.5m6 0v3c0 .28-.22.5-.5.5h-3c-.28 0-.5-.22-.5-.5v-3c0-.28.22-.5.5-.5h3c.28 0 .5.22.5.5M3 18.5A2.5 2.5 0 0 0 5.5 21h3a2.5 2.5 0 0 0 2.5-2.5v-3A2.5 2.5 0 0 0 8.5 13h-3A2.5 2.5 0 0 0 3 15.5zm2-3c0-.28.22-.5.5-.5h3c.28 0 .5.22.5.5v3c0 .28-.22.5-.5.5h-3c-.28 0-.5-.22-.5-.5zM13 8.5a2.5 2.5 0 0 0 2.5 2.5h3A2.5 2.5 0 0 0 21 8.5v-3A2.5 2.5 0 0 0 18.5 3h-3A2.5 2.5 0 0 0 13 5.5zm2-3c0-.28.22-.5.5-.5h3c.28 0 .5.22.5.5v3c0 .28-.22.5-.5.5h-3c-.28 0-.5-.22-.5-.5zM13 13h2v2h-2zM15 15h2v2h-2zM13 17h2v2h-2zM17 17h2v2h-2zM19 19h2v2h-2zM15 19h2v2h-2zM17 13h2v2h-2zM19 15h2v2h-2z"/></svg>