<svg xmlns="http://www.w3.org/2000/svg" width="24" height="24" viewBox="0 0 24 24"><path d="M13 14v3.5a2.5 2.5 0 0 0 2.5 2.5h5a2.5 2.5 0 0 0 2.5-2.5v-5a2.5 2.5 0 0 0-2.5-2.5h-2.34c.31-1.17 1.1-2.54 3.08-3.03.44-.11.76-.51.76-.97V5c0-.55-.45-1-1-1-2.78 0-4.91.77-6.31 2.29C12.8 8.34 12.99 10.97 13 11zm3.18-6.37c.48-.52 1.11-.92 1.87-1.19-.97.87-1.63 2.06-1.92 3.47-.1.51.03 1.03.36 1.44.34.41.83.65 1.36.65h2.66c.28 0 .5.22.5.5v5c0 .28-.22.5-.5.5h-5c-.28 0-.5-.22-.5-.5v-6.58s-.12-1.9 1.18-3.29ZM1 17.5A2.5 2.5 0 0 0 3.5 20h5a2.5 2.5 0 0 0 2.5-2.5v-5A2.5 2.5 0 0 0 8.5 10H6.16c.31-1.17 1.1-2.54 3.08-3.03.44-.11.76-.51.76-.97V5c0-.55-.45-1-1-1-2.78 0-4.91.77-6.31 2.29C.8 8.34.99 10.97 1 11zm2-6.58s-.12-1.9 1.18-3.29c.48-.52 1.11-.92 1.87-1.19-.97.87-1.63 2.06-1.92 3.47-.1.51.03 1.03.36 1.44.34.41.83.65 1.36.65h2.66c.28 0 .5.22.5.5v5c0 .28-.22.5-.5.5H3.5c-.28 0-.5-.22-.5-.5z"/></svg>