<svg xmlns="http://www.w3.org/2000/svg" viewBox="0 0 24 24" width="24" height="24"><path d="m3,8c.55,0,1-.45,1-1v-1c0-1.1.9-2,2-2h1c.55,0,1-.45,1-1s-.45-1-1-1h-1c-2.21,0-4,1.79-4,4v1c0,.55.45,1,1,1Z"/><path d="m7,20h-1c-1.1,0-2-.9-2-2v-1c0-.55-.45-1-1-1s-1,.45-1,1v1c0,2.21,1.79,4,4,4h1c.55,0,1-.45,1-1s-.45-1-1-1Z"/><path d="m21,16c-.55,0-1,.45-1,1v1c0,1.1-.9,2-2,2h-1c-.55,0-1,.45-1,1s.45,1,1,1h1c2.21,0,4-1.79,4-4v-1c0-.55-.45-1-1-1Z"/><path d="m18,2h-1c-.55,0-1,.45-1,1s.45,1,1,1h1c1.1,0,2,.9,2,2v1c0,.55.45,1,1,1s1-.45,1-1v-1c0-2.21-1.79-4-4-4Z"/><path d="m9,5h-2c-1.1,0-2,.9-2,2v2c0,1.1.9,2,2,2h2c1.1,0,2-.9,2-2v-2c0-1.1-.9-2-2-2Zm0,4h-2v-2s0,0,0,0h2v2Z"/><path d="m9,13h-2c-1.1,0-2,.9-2,2v2c0,1.1.9,2,2,2h2c1.1,0,2-.9,2-2v-2c0-1.1-.9-2-2-2Zm0,4h-2v-2s0,0,0,0h2v2Z"/><path d="m15,11h2c1.1,0,2-.9,2-2v-2c0-1.1-.9-2-2-2h-2c-1.1,0-2,.9-2,2v2c0,1.1.9,2,2,2Zm0-4h2v2h-2v-2s0,0,0,0Z"/><path d="M13 13H15V15H13z"/><path d="M15 15H17V17H15z"/><path d="M17 17H19V19H17z"/><path d="M17 13H19V15H17z"/></svg>