<svg xmlns="http://www.w3.org/2000/svg" width="24" height="24" viewBox="0 0 24 24"><path d="M16.99 13V6.5a2.5 2.5 0 0 0-2.5-2.5h-5a2.5 2.5 0 0 0-2.5 2.5v5a2.5 2.5 0 0 0 2.5 2.5h2.34c-.31 1.17-1.1 2.54-3.08 3.03-.44.11-.76.51-.76.97v1c0 .55.45 1 1 1 2.78 0 4.91-.77 6.31-2.29 1.89-2.05 1.7-4.68 1.69-4.71m-3.18 3.37c-.48.52-1.11.92-1.87 1.19.97-.87 1.63-2.06 1.92-3.48.1-.51-.03-1.03-.36-1.44-.34-.41-.83-.64-1.36-.64H9.48c-.28 0-.5-.22-.5-.5v-5c0-.28.22-.5.5-.5h5c.28 0 .5.22.5.5v6.58s.12 1.9-1.18 3.29Z"/></svg>