<svg xmlns="http://www.w3.org/2000/svg" width="24" height="24" viewBox="0 0 24 24"><path d="M12 11c.83 0 1.5-.67 1.5-1.5S12.83 8 12 8s-1.5.67-1.5 1.5.67 1.5 1.5 1.5"/><path d="M17 12.37v-3.3c0-1.6-.62-3.11-1.76-4.24l-1.47-1.47c-.94-.95-2.59-.95-3.54 0L8.75 4.83a5.97 5.97 0 0 0-1.76 4.24v3.3c-1.36.72-4.48 2.76-4.94 6.67-.06.5.1 1 .43 1.38s.81.59 1.31.59h16.4c.5 0 .98-.21 1.31-.59s.49-.88.43-1.38c-.46-3.9-3.58-5.95-4.94-6.67Zm-8-3.3C9 8 9.42 7 10.17 6.24l1.48-1.47c.13-.13.28-.15.35-.15s.23.02.35.15l1.47 1.47c.76.76 1.17 1.76 1.17 2.83V19h-6V9.07Zm-2 5.65V19H4.08c.35-2.11 1.8-3.5 2.92-4.28M17 19v-4.29c1.12.78 2.57 2.17 2.92 4.29z"/></svg>