<svg xmlns="http://www.w3.org/2000/svg" viewBox="0 0 24 24" width="24" height="24"><path d="m20.87,14.91c-.27-.48-.88-.66-1.36-.39-.48.27-.66.88-.39,1.36l.35.63c.09.16.13.33.13.51,0,.17-.05.33-.14.48-.09.15-.21.27-.35.36-.15.09-.32.14-.51.14h-6.6v-1c0-.41-.47-.65-.8-.4l-2.67,2c-.27.2-.27.6,0,.8l2.67,2c.33.25.8.01.8-.4v-1h6.6c.54,0,1.07-.14,1.53-.42.43-.26.8-.62,1.05-1.06.26-.44.4-.93.42-1.44.02-.53-.12-1.07-.38-1.54l-.35-.63Z"/><path d="m6.05,18h-.65c-.19,0-.36-.05-.51-.14-.14-.08-.26-.21-.35-.36-.09-.15-.14-.31-.14-.48,0-.18.04-.35.13-.51l3.35-6.03.86.5c.36.21.8-.08.75-.49l-.4-3.31c-.04-.33-.39-.53-.69-.4l-3.07,1.31c-.38.16-.41.69-.05.89l.87.5-3.36,6.06c-.26.47-.39,1.01-.38,1.54.02.5.16,1,.42,1.44.26.44.62.81,1.05,1.06.46.27.99.42,1.53.42h.65c.55,0,1-.45,1-1s-.45-1-1-1Z"/><path d="m9.44,5.61c.48.27,1.09.09,1.36-.39l.33-.59c.09-.17.22-.3.38-.39.3-.17.7-.17.99,0,.16.09.29.22.38.39l3.27,5.88-.87.5c-.36.21-.33.73.05.89l3.07,1.31c.31.13.65-.07.69-.4l.4-3.31c.05-.41-.39-.7-.75-.49l-.86.5-3.25-5.85c-.27-.49-.67-.89-1.14-1.16-.9-.51-2.06-.51-2.96,0-.48.27-.87.67-1.14,1.16l-.33.59c-.27.48-.09,1.09.39,1.36Z"/></svg>