<svg xmlns="http://www.w3.org/2000/svg" width="24" height="24" viewBox="0 0 24 24"><path d="M14.59 6.59c-.78.78-.78 2.05 0 2.83s2.05.78 2.83 0 .78-2.05 0-2.83-2.05-.78-2.83 0M5 16c-2 1-2 5-2 5s3 0 5-2z"/><path d="M20.25 2h-2.11c-2.94 0-5.7 1.14-7.78 3.22L8.68 6.89c-1-.19-3.04-.37-5.23.69-.51.24-.86.72-.96 1.28-.09.56.09 1.13.49 1.53l10.7 10.7c.33.33.79.52 1.25.52.07 0 .15 0 .22-.01.53-.07.98-.36 1.25-.82 1.1-1.87.86-4.35.67-5.46l1.69-1.69c2.08-2.08 3.22-4.84 3.22-7.78V3.74c0-.96-.79-1.75-1.75-1.75ZM20 5.86c0 2.4-.94 4.66-2.64 6.36l-2.07 2.07c-.25.25-.35.61-.26.95.18.72.46 2.76-.17 4.2L4.66 9.24c2.12-.89 4.01-.3 4.03-.29.36.12.76.03 1.02-.24l2.07-2.07C13.48 4.94 15.74 4 18.14 4H20z"/></svg>