<svg xmlns="http://www.w3.org/2000/svg" viewBox="0 0 24 24" width="24" height="24"><path d="m14,8h-1v-2.33c0-.7-.4-1.31-1.03-1.6-.64-.29-1.36-.18-1.88.29l-7.12,6.33c-.37.33-.59.81-.59,1.31s.21.98.59,1.31l7.12,6.33c.33.29.74.45,1.16.45.24,0,.49-.05.72-.16.64-.29,1.03-.9,1.03-1.6v-2.33h.64c1.83,0,3.54.82,4.69,2.25l.56.7c.47.59,1.24.81,1.95.56.71-.25,1.17-.9,1.17-1.65v-1.86c0-4.41-3.59-8-8-8Zm6,9.15l-.12-.15c-1.53-1.91-3.8-3-6.25-3h-1.64c-.55,0-1,.45-1,1v2.77l-6.49-5.77,6.49-5.77v2.77c0,.55.45,1,1,1h2c3.31,0,6,2.69,6,6v1.15Z"/></svg>