<svg xmlns="http://www.w3.org/2000/svg" viewBox="0 0 24 24" width="24" height="24"><path d="m19,7.89v-1.69l2.42-.97c.21-.08.21-.38,0-.46l-4.08-1.63c-.16-.07-.34.06-.34.23v4.05c-1.34-.24-2.75-.36-4-.4v-1.82l2.42-.97c.21-.08.21-.38,0-.46l-4.08-1.63c-.16-.07-.34.06-.34.23v4.65c-1.25.04-2.66.16-4,.4v-1.22l2.42-.97c.21-.08.21-.38,0-.46l-4.08-1.63c-.16-.07-.34.06-.34.23v4.52c-1.73.54-3,1.37-3,2.61v8c0,2.76,6.29,3.5,10,3.5s10-.74,10-3.5v-8c0-1.24-1.27-2.07-3-2.61Zm-7,1.11c4.75,0,7.4.99,7.94,1.5-.54.51-3.19,1.5-7.94,1.5s-7.4-.99-7.94-1.5c.54-.51,3.19-1.5,7.94-1.5Zm-2,10.93v-1.43c0-.28.22-.5.5-.5h3c.28,0,.5.22.5.5v1.43c-.62.04-1.28.07-2,.07s-1.38-.03-2-.07Zm6-.21v-1.22c0-1.38-1.12-2.5-2.5-2.5h-3c-1.38,0-2.5,1.12-2.5,2.5v1.22c-2.4-.35-3.76-.96-4-1.29v-5.69c2.16.95,5.61,1.26,8,1.26s5.84-.31,8-1.26v5.69c-.24.33-1.6.94-4,1.29Z"/></svg>