<svg xmlns="http://www.w3.org/2000/svg" viewBox="0 0 24 24" width="24" height="24"><path d="m4,9c.55,0,1-.45,1-1v-1c0-1.1.9-2,2-2h1c.55,0,1-.45,1-1s-.45-1-1-1h-1c-2.21,0-4,1.79-4,4v1c0,.55.45,1,1,1Z"/><path d="m7,21h1c.55,0,1-.45,1-1s-.45-1-1-1h-1c-1.1,0-2-.9-2-2v-1c0-.55-.45-1-1-1s-1,.45-1,1v1c0,2.21,1.79,4,4,4Z"/><path d="m21,15c0-.55-.45-1-1-1s-1,.45-1,1v2c0,1.1-.9,2-2,2h-1c-.55,0-1,.45-1,1s.45,1,1,1h1c2.21,0,4-1.79,4-4v-2Z"/><path d="m21,7c0-2.21-1.79-4-4-4h-1c-.55,0-1,.45-1,1s.45,1,1,1h1c1.1,0,2,.9,2,2v1c0,.55.45,1,1,1s1-.45,1-1v-1Z"/><path d="m7,10.12v3.76c0,.76.42,1.45,1.11,1.79l3,1.5c.28.14.59.21.89.21s.61-.07.89-.21l3-1.5c.68-.34,1.11-1.03,1.11-1.79v-3.76c0-.76-.42-1.45-1.11-1.79l-3-1.5c-.56-.28-1.23-.28-1.79,0h0l-3,1.5c-.68.34-1.11,1.03-1.11,1.79Zm2,1l2,1v2.76l-2-1v-2.76Zm4,3.76v-2.76l2-1v2.76l-2,1Zm-1-6.26l1.76.88-1.76.88-1.76-.88,1.76-.88Z"/></svg>