<svg xmlns="http://www.w3.org/2000/svg" viewBox="0 0 24 24" width="24" height="24"><path d="m12,2C6.49,2,2,5.81,2,10.5c0,2.29,1.06,4.44,3,6.06v2.44c0,1.1.9,2,2,2h10c1.1,0,2-.9,2-2l.02-2.45c1.92-1.61,2.98-3.76,2.98-6.05,0-4.69-4.49-8.5-10-8.5Zm5.73,13.02c-.47.39-.73.95-.73,1.54v2.44h-2v-2c0-.55-.45-1-1-1s-1,.45-1,1v2h-2v-2c0-.55-.45-1-1-1s-1,.45-1,1v2h-2v-2.44c0-.59-.27-1.15-.73-1.54-1.46-1.22-2.27-2.83-2.27-4.52,0-3.58,3.59-6.5,8-6.5s8,2.92,8,6.5c0,1.69-.81,3.29-2.27,4.52Z"/><path d="M8 8A2 2.5 0 1 0 8 13 2 2.5 0 1 0 8 8z"/><path d="M16 8A2 2.5 0 1 0 16 13 2 2.5 0 1 0 16 8z"/></svg>