<svg xmlns="http://www.w3.org/2000/svg" viewBox="0 0 24 24" width="24" height="24"><path d="m18,2H6c-2.21,0-4,1.79-4,4v2c0,1.04.41,1.98,1.06,2.69-.03.1-.06.2-.06.31v7c0,2.21,1.79,4,4,4h10c2.21,0,4-1.79,4-4v-7c0-.11-.03-.21-.06-.31.65-.71,1.06-1.65,1.06-2.69v-2c0-2.21-1.79-4-4-4Zm-2,2h2c1.1,0,2,.9,2,2v2c0,1.1-.9,2-2,2s-2-.9-2-2v-4Zm-6,0h4v4c0,1.1-.9,2-2,2s-2-.9-2-2v-4Zm-6,2c0-1.1.9-2,2-2h2v4c0,1.1-.9,2-2,2s-2-.9-2-2v-2Zm6,14v-2c0-1.1.9-2,2-2s2,.9,2,2v2h-4Zm7,0h-1v-2c0-2.21-1.79-4-4-4s-4,1.79-4,4v2h-1c-1.1,0-2-.9-2-2v-6.14c.32.08.65.14,1,.14,1.2,0,2.27-.54,3-1.38.73.84,1.8,1.38,3,1.38s2.27-.54,3-1.38c.73.84,1.8,1.38,3,1.38.35,0,.68-.06,1-.14v6.14c0,1.1-.9,2-2,2Z"/></svg>