<svg xmlns="http://www.w3.org/2000/svg" width="24" height="24" viewBox="0 0 24 24"><path d="M19 13H5c-1.65 0-3 1.35-3 3v2c0 1.65 1.35 3 3 3h14c1.65 0 3-1.35 3-3v-2c0-1.65-1.35-3-3-3m1 5c0 .55-.45 1-1 1H5c-.55 0-1-.45-1-1v-2c0-.55.45-1 1-1h14c.55 0 1 .45 1 1z"/><path d="M18 16a1 1 0 1 0 0 2 1 1 0 1 0 0-2M15 16a1 1 0 1 0 0 2 1 1 0 1 0 0-2M19 3H5C3.35 3 2 4.35 2 6v2c0 1.65 1.35 3 3 3h14c1.65 0 3-1.35 3-3V6c0-1.65-1.35-3-3-3m1 5c0 .55-.45 1-1 1H5c-.55 0-1-.45-1-1V6c0-.55.45-1 1-1h14c.55 0 1 .45 1 1z"/><path d="M18 6a1 1 0 1 0 0 2 1 1 0 1 0 0-2M15 6a1 1 0 1 0 0 2 1 1 0 1 0 0-2"/></svg>