<svg xmlns="http://www.w3.org/2000/svg" viewBox="0 0 24 24" width="24" height="24"><path d="m12,10.09l-3.09-3.09c-.78-.78-2.05-.78-2.83,0l-3.09,3.09c-.78.78-.78,2.05,0,2.83l3.09,3.09c.39.39.9.58,1.41.58s1.02-.2,1.41-.58l3.09-3.09c.78-.78.78-2.05,0-2.83Zm-4.5,4.5l-3.09-3.09,3.09-3.09,3.09,3.09-3.09,3.09Z"/><path d="m17.25,12.5c-2.62,0-4.75,2.13-4.75,4.75s2.13,4.75,4.75,4.75,4.75-2.13,4.75-4.75-2.13-4.75-4.75-4.75Zm0,7.5c-1.52,0-2.75-1.23-2.75-2.75s1.23-2.75,2.75-2.75,2.75,1.23,2.75,2.75-1.23,2.75-2.75,2.75Z"/><path d="m15.62,10.06c.39.37.88.56,1.38.56s.99-.18,1.38-.55l2.82-2.69c.74-.85.98-1.95.68-3.04-.3-1.07-1.15-1.92-2.21-2.21-.94-.26-1.89-.11-2.66.39-.77-.5-1.72-.65-2.66-.39-1.06.3-1.91,1.15-2.21,2.21-.31,1.08-.06,2.19.74,3.1l2.75,2.62Zm-1.57-5.18c.11-.4.44-.72.83-.83.12-.04.25-.05.37-.05.38,0,.72.17.97.48.38.47,1.18.47,1.56,0,.33-.41.83-.57,1.34-.42.39.11.71.44.82.83h0c.16.58-.09.99-.2,1.11l-2.75,2.62-2.69-2.55c-.17-.19-.42-.6-.26-1.18Z"/></svg>