<svg xmlns="http://www.w3.org/2000/svg" viewBox="0 0 24 24" width="24" height="24"><path d="m19,19h-1.17l-1.55-8.54c-.26-1.43-1.5-2.46-2.95-2.46h-2.66c-1.45,0-2.69,1.04-2.95,2.46l-1.55,8.54h-1.17c-.55,0-1,.45-1,1s.45,1,1,1h14c.55,0,1-.45,1-1s-.45-1-1-1Zm-10.8,0l1.49-8.18c.09-.48.5-.82.98-.82h2.66c.48,0,.9.35.98.82l1.49,8.18h-7.6Z"/><path d="m11,4v1c0,.55.45,1,1,1s1-.45,1-1v-1c0-.55-.45-1-1-1s-1,.45-1,1Z"/><path d="m21,11h-1c-.55,0-1,.45-1,1s.45,1,1,1h1c.55,0,1-.45,1-1s-.45-1-1-1Z"/><path d="m5,12c0-.55-.45-1-1-1h-1c-.55,0-1,.45-1,1s.45,1,1,1h1c.55,0,1-.45,1-1Z"/><path d="m17.61,4.97l-.62.62c-.39.39-.39,1.02,0,1.41.2.2.45.29.71.29s.51-.1.71-.29l.62-.62c.39-.39.39-1.02,0-1.41-.39-.39-1.02-.39-1.41,0Z"/><path d="m4.97,4.97c-.39.39-.39,1.02,0,1.41l.62.62c.2.2.45.29.71.29s.51-.1.71-.29c.39-.39.39-1.02,0-1.41l-.62-.62c-.39-.39-1.02-.39-1.41,0Z"/></svg>