<svg xmlns="http://www.w3.org/2000/svg" viewBox="0 0 24 24" width="24" height="24"><path d="M6.5 14A1.5 1.5 0 1 0 6.5 17 1.5 1.5 0 1 0 6.5 14z"/><path d="M17.5 14A1.5 1.5 0 1 0 17.5 17 1.5 1.5 0 1 0 17.5 14z"/><path d="m21.5,7h-.5v-1c0-2.21-1.79-4-4-4H7c-2.21,0-4,1.79-4,4v1h-.5c-.28,0-.5.22-.5.5v3c0,.28.22.5.5.5h.5v.59l-.12.12c-.57.57-.88,1.32-.88,2.12v3.17c0,.88.39,1.67,1,2.22v1.78c0,.55.45,1,1,1h1c.55,0,1-.45,1-1v-1h12v1c0,.55.45,1,1,1h1c.55,0,1-.45,1-1v-1.78c.61-.55,1-1.34,1-2.22v-3.17c0-.8-.31-1.56-.88-2.12l-.12-.12v-.59h.5c.28,0,.5-.22.5-.5v-3c0-.28-.22-.5-.5-.5ZM4,17v-3.17c0-.27.1-.52.29-.71l.12-.12h15.17l.12.12c.19.19.29.44.29.71v3.17c0,.55-.45,1-1,1H5c-.55,0-1-.45-1-1Zm1-9h6v3h-6v-3Zm8,3v-3h6v3h-6Zm-6-7h10c1.1,0,2,.9,2,2H5c0-1.1.9-2,2-2Z"/></svg>