<svg xmlns="http://www.w3.org/2000/svg" viewBox="0 0 24 24" width="24" height="24"><path d="m7.71,7.71c-2.26,2.26-4.02,4.78-4.96,7.11-.58,1.45-.23,3.12.91,4.25l1.27,1.27c.77.77,1.8,1.19,2.83,1.19.48,0,.97-.09,1.43-.28,2.33-.94,4.86-2.7,7.11-4.96,5.11-5.11,7.11-10.81,4.66-13.25-2.45-2.45-8.15-.44-13.25,4.66Zm-3.1,7.86c.84-2.09,2.44-4.38,4.52-6.45,3.34-3.34,6.95-5.12,9.03-5.12.14,0,.28,0,.41.03l-13.55,13.55c-.51-.56-.68-1.34-.41-2.01Zm10.28-.69c-2.07,2.07-4.36,3.67-6.45,4.51-.67.27-1.44.1-2.01-.41l13.55-13.55c.26,2-1.51,5.86-5.09,9.44Z"/></svg>