<svg xmlns="http://www.w3.org/2000/svg" viewBox="0 0 24 24" width="24" height="24"><path d="m19.54,9.31l-9.76-4.06c-.43-.18-.91-.24-1.37-.16l-4.32.72c-1.21.2-2.09,1.24-2.09,2.47v9.23c0,1.38,1.12,2.5,2.5,2.5h15c1.38,0,2.5-1.12,2.5-2.5v-4.5c0-1.62-.97-3.07-2.46-3.69Zm.46,8.19c0,.28-.22.5-.5.5H4.5c-.28,0-.5-.22-.5-.5v-1.5h16v1.5Zm-16-3.5v-5.73c0-.25.18-.45.42-.49l4.32-.72c.09-.02.19,0,.27.03l2.38.99-.59,1.38c-.22.51.02,1.1.52,1.31.13.06.26.08.39.08.39,0,.76-.23.92-.61l.6-1.4,1.85.77-.61,1.42c-.22.51.02,1.1.52,1.31.13.06.26.08.39.08.39,0,.76-.23.92-.61l.62-1.44,1.83.76c.75.31,1.23,1.04,1.23,1.85v1H4Z"/></svg>