<svg xmlns="http://www.w3.org/2000/svg" viewBox="0 0 24 24" width="24" height="24"><path d="m19,8c1.1,0,2-.9,2-2s-.9-2-2-2-2,.9-2,2,.9,2,2,2Z"/><path d="m20.75,12.16c-.84.23-1.4.68-1.88,1.06-.57.45-.98.78-1.88.78s-1.29-.31-1.88-.78c-.68-.54-1.52-1.22-3.13-1.22s-2.44.68-3.12,1.22c-.59.47-.98.78-1.88.78s-1.29-.31-1.87-.78c-.48-.38-1.03-.83-1.87-1.06-.63-.17-1.25.32-1.25.97h0c0,.43.27.84.69.95.46.12.77.37,1.18.7.68.54,1.52,1.22,3.12,1.22s2.45-.68,3.12-1.22c.59-.47.98-.78,1.87-.78s1.31.33,1.88.78c.68.54,1.52,1.22,3.13,1.22s2.45-.68,3.13-1.22c.41-.33.72-.58,1.18-.7.42-.11.69-.52.69-.95,0-.65-.62-1.15-1.25-.97Z"/><path d="m7.41,9l.76-.76c1.3-1.3,3.27-1.5,4.8-.64l-2.45,2.63c.41-.14.89-.23,1.48-.23,1.6,0,2.45.68,3.13,1.22.59.47.98.78,1.88.78s1.31-.33,1.88-.78c.13-.11.28-.22.43-.33l-4.06-4.06c-2.34-2.34-6.14-2.34-8.49,0l-.76.76c-.39.39-.39,1.02,0,1.41.39.39,1.02.39,1.41,0Z"/><path d="m20.75,17.16c-.84.23-1.4.68-1.88,1.06-.57.45-.98.78-1.88.78s-1.29-.31-1.88-.78c-.68-.54-1.52-1.22-3.13-1.22s-2.44.68-3.12,1.22c-.59.47-.98.78-1.88.78s-1.29-.31-1.87-.78c-.48-.38-1.03-.83-1.87-1.06-.63-.17-1.25.32-1.25.97h0c0,.43.27.84.69.95.46.12.77.37,1.18.7.68.54,1.52,1.22,3.12,1.22s2.45-.68,3.12-1.22c.59-.47.98-.78,1.87-.78s1.31.33,1.88.78c.68.54,1.52,1.22,3.13,1.22s2.45-.68,3.13-1.22c.41-.33.72-.58,1.18-.7.42-.11.69-.52.69-.95,0-.65-.62-1.15-1.25-.97Z"/></svg>