<svg xmlns="http://www.w3.org/2000/svg" width="24" height="24" viewBox="0 0 24 24"><path d="M21 11h-3.59l2.29-2.29a.996.996 0 1 0-1.41-1.41l-3.71 3.71h-1.59V9.42l3.71-3.71a.996.996 0 1 0-1.41-1.41L13 6.59V3c0-.55-.45-1-1-1s-1 .45-1 1v3.59L8.71 4.3A.996.996 0 1 0 7.3 5.71l3.71 3.71v1.59H8.92L5.21 7.3A.996.996 0 1 0 3.8 8.71L6.09 11H3c-.55 0-1 .45-1 1s.45 1 1 1h3.09L3.8 15.29a.996.996 0 0 0 .71 1.7c.26 0 .51-.1.71-.29l3.71-3.71h2.09v1.59l-3.71 3.71a.996.996 0 1 0 1.41 1.41l2.29-2.29V21c0 .55.45 1 1 1s1-.45 1-1v-3.59l2.29 2.29c.2.2.45.29.71.29s.51-.1.71-.29a.996.996 0 0 0 0-1.41l-3.71-3.71v-1.59h1.59l3.71 3.71c.2.2.45.29.71.29s.51-.1.71-.29a.996.996 0 0 0 0-1.41L17.44 13h3.59c.55 0 1-.45 1-1s-.45-1-1-1Z"/></svg>