<svg xmlns="http://www.w3.org/2000/svg" viewBox="0 0 24 24" width="24" height="24"><path d="m19,14h-3.34l4.63-4.63h0c1.17-1.17,1.17-3.07,0-4.24l-1.42-1.42c-1.13-1.13-3.11-1.13-4.24,0l-4.63,4.63v-3.34c0-1.65-1.35-3-3-3h-2c-1.65,0-3,1.35-3,3v13c0,2.21,1.79,4,4,4h13c1.65,0,3-1.35,3-3v-2c0-1.65-1.35-3-3-3Zm-2.96-8.88c.38-.38,1.04-.38,1.41,0l1.42,1.42c.39.39.39,1.02,0,1.41l-6.04,6.04h-5.67l8.88-8.88Zm-11.04-1.12h2c.55,0,1,.45,1,1v5.34l-3.96,3.96s-.03.04-.04.06V5c0-.55.45-1,1-1Zm15,15c0,.55-.45,1-1,1H6c-1.1,0-2-.9-2-2s.9-2,2-2h13c.55,0,1,.45,1,1v2Z"/><path d="M6 17A1 1 0 1 0 6 19 1 1 0 1 0 6 17z"/></svg>