<svg xmlns="http://www.w3.org/2000/svg" viewBox="0 0 24 24" width="24" height="24"><path d="m21,12h-3.09c-.48-2.83-2.94-5-5.91-5s-5.43,2.17-5.91,5h-3.09c-.55,0-1,.45-1,1s.45,1,1,1h18c.55,0,1-.45,1-1s-.45-1-1-1Zm-12.86,0c.45-1.72,2-3,3.86-3s3.41,1.28,3.86,3h-7.72Z"/><rect x="11" y="2" width="2" height="3" rx="1" ry="1"/><path d="m18.41,7l.59-.59c.39-.39.39-1.02,0-1.41-.39-.39-1.02-.39-1.41,0l-.59.59c-.39.39-.39,1.02,0,1.41.39.39,1.02.39,1.41,0Z"/><path d="m5.59,7c.39.39,1.02.39,1.41,0,.39-.39.39-1.02,0-1.41l-.59-.59c-.39-.39-1.02-.39-1.41,0-.39.39-.39,1.02,0,1.41l.59.59Z"/><path d="m13,19h1.19c.67,0,1-.81.53-1.28l-2.19-2.19c-.29-.29-.77-.29-1.06,0l-2.19,2.19c-.47.47-.14,1.28.53,1.28h1.19v2c0,.55.45,1,1,1s1-.45,1-1v-2Z"/></svg>