<svg xmlns="http://www.w3.org/2000/svg" viewBox="0 0 24 24" width="24" height="24"><path d="m21,2h-4.53c-.6,0-1.17.27-1.55.73L6.93,12.51l-1.34-1.34c-.38-.38-.59-.88-.59-1.41v-.76c0-.55-.45-1-1-1s-1,.45-1,1v.76c0,1.07.42,2.07,1.17,2.83l2.12,2.12.09.09-3.73,3.73c-.59.59-.59,1.54,0,2.12l.71.71c.59.59,1.54.59,2.12,0l3.73-3.73.09.09,2.12,2.12c.76.76,1.76,1.17,2.83,1.17h.76c.55,0,1-.45,1-1s-.45-1-1-1h-.76c-.53,0-1.04-.21-1.41-.59l-1.34-1.34,9.78-8c.47-.38.73-.95.73-1.55V3c0-.55-.45-1-1-1Zm-1,5.53l-9.93,8.13-1.72-1.72,8.13-9.93v-1s0,1,0,1h3.53v3.53Z"/></svg>