<svg xmlns="http://www.w3.org/2000/svg" width="24" height="24" viewBox="0 0 24 24"><path d="M3 18c0 2.21 1.79 4 4 4h10c2.21 0 4-1.79 4-4V7.71c0-.62-.15-1.24-.42-1.79l-1.27-2.54A2.49 2.49 0 0 0 17.07 2H6.93c-.95 0-1.81.53-2.24 1.38L3.42 5.92C3.14 6.47 3 7.09 3 7.71zM6.93 4h10.15c.19 0 .36.11.45.28L18.39 6H5.62l.86-1.72A.5.5 0 0 1 6.93 4M5 8h14v10c0 1.1-.9 2-2 2H7c-1.1 0-2-.9-2-2z"/><path d="M12 15c2.33 0 4.29-1.6 4.84-3.75.16-.63-.32-1.25-.97-1.25-.47 0-.85.34-.98.8a2.997 2.997 0 0 1-5.78 0c-.13-.46-.5-.8-.98-.8-.65 0-1.13.62-.97 1.25A5.01 5.01 0 0 0 12 15"/></svg>