<svg xmlns="http://www.w3.org/2000/svg" viewBox="0 0 24 24" width="24" height="24"><path class="b" d="m17,3H7c-2.21,0-4,1.79-4,4v10c0,2.21,1.79,4,4,4h10c2.21,0,4-1.79,4-4V7c0-2.21-1.79-4-4-4Zm2,14c0,1.1-.9,2-2,2H7c-1.1,0-2-.9-2-2V7c0-1.1.9-2,2-2h10c1.1,0,2,.9,2,2v10Z"/><path class="b" d="m15.91,11.1l-1.37-.61c-.45-.2-.81-.56-1.01-1.01l-.61-1.38c-.16-.36-.51-.59-.9-.59h0c-.39,0-.74.23-.9.58,0,0,0,0,0,0l-.62,1.35c-.19.42-.53.76-.94.96l-1.48.71c-.35.17-.57.52-.56.91,0,.39.23.74.59.89l1.4.62c.45.2.81.56,1.01,1.01l.61,1.37c.16.36.52.59.91.59s.75-.23.91-.59l.61-1.37c.2-.45.56-.81,1.01-1.01l1.37-.61c.36-.16.59-.52.59-.91s-.23-.75-.59-.91Z"/></svg>