<svg xmlns="http://www.w3.org/2000/svg" viewBox="0 0 24 24" width="24" height="24"><path d="M4 3A1 1 0 1 0 4 5 1 1 0 1 0 4 3z"/><path d="M8 3A1 1 0 1 0 8 5 1 1 0 1 0 8 3z"/><path d="M12 3A1 1 0 1 0 12 5 1 1 0 1 0 12 3z"/><path d="M16 3A1 1 0 1 0 16 5 1 1 0 1 0 16 3z"/><path d="M4 15A1 1 0 1 0 4 17 1 1 0 1 0 4 15z"/><path d="M8 15A1 1 0 1 0 8 17 1 1 0 1 0 8 15z"/><path d="M16 7A1 1 0 1 0 16 9 1 1 0 1 0 16 7z"/><path d="M4 7A1 1 0 1 0 4 9 1 1 0 1 0 4 7z"/><path d="M4 11A1 1 0 1 0 4 13 1 1 0 1 0 4 11z"/><path d="m20,15h-3v-3c0-.55-.45-1-1-1s-1,.45-1,1v3h-3c-.55,0-1,.45-1,1s.45,1,1,1h3v3c0,.55.45,1,1,1s1-.45,1-1v-3h3c.55,0,1-.45,1-1s-.45-1-1-1Z"/></svg>