<svg xmlns="http://www.w3.org/2000/svg" viewBox="0 0 24 24" width="24" height="24"><path d="m21,12h-3.09c-.48-2.83-2.94-5-5.91-5s-5.43,2.17-5.91,5h-3.09c-.55,0-1,.45-1,1s.45,1,1,1h18c.55,0,1-.45,1-1s-.45-1-1-1Zm-9-3c1.86,0,3.41,1.28,3.86,3h-7.72c.45-1.72,2-3,3.86-3Z"/><rect x="11" y="2" width="2" height="3" rx="1" ry="1"/><path d="m17.59,5l-.59.59c-.39.39-.39,1.02,0,1.41.39.39,1.02.39,1.41,0l.59-.59c.39-.39.39-1.02,0-1.41-.39-.39-1.02-.39-1.41,0Z"/><path d="m6.41,5c-.39-.39-1.02-.39-1.41,0-.39.39-.39,1.02,0,1.41l.59.59c.39.39,1.02.39,1.41,0,.39-.39.39-1.02,0-1.41l-.59-.59Z"/><path d="M16 16A1 1 0 1 0 16 18 1 1 0 1 0 16 16z"/><path d="M20 16A1 1 0 1 0 20 18 1 1 0 1 0 20 16z"/><path d="M16 19A1 1 0 1 0 16 21 1 1 0 1 0 16 19z"/><path d="M12 17A1 1 0 1 0 12 19 1 1 0 1 0 12 17z"/><path d="M12 20A1 1 0 1 0 12 22 1 1 0 1 0 12 20z"/><path d="M8 19A1 1 0 1 0 8 21 1 1 0 1 0 8 19z"/><path d="M8 16A1 1 0 1 0 8 18 1 1 0 1 0 8 16z"/><path d="M4 16A1 1 0 1 0 4 18 1 1 0 1 0 4 16z"/></svg>