<svg xmlns="http://www.w3.org/2000/svg" viewBox="0 0 24 24" width="24" height="24"><path d="M8.5 8A1.5 1.5 0 1 0 8.5 11 1.5 1.5 0 1 0 8.5 8z"/><path d="m15.5,11c.83,0,1.5-.67,1.5-1.5s-.67-1.5-1.5-1.5-1.5.67-1.5,1.5.67,1.5,1.5,1.5Z"/><path d="m8.64,15.97c.32.21.66.4,1.02.55.36.15.74.27,1.13.35.4.08.8.12,1.21.12s.81-.04,1.21-.12c.38-.08.76-.2,1.13-.35.36-.15.7-.34,1.02-.55.32-.21.62-.46.89-.73.39-.39.39-1.02,0-1.41-.39-.39-1.03-.39-1.41,0-.18.18-.38.35-.59.49-.21.14-.44.27-.68.37-.24.1-.5.18-.75.23-.53.11-1.09.11-1.62,0-.25-.05-.51-.13-.75-.23-.24-.1-.47-.23-.68-.37-.21-.14-.41-.31-.59-.49-.39-.39-1.02-.39-1.41,0-.39.39-.39,1.02,0,1.41.27.27.57.52.89.73Z"/><path d="m4,9c.55,0,1-.45,1-1v-1c0-1.1.9-2,2-2h1c.55,0,1-.45,1-1s-.45-1-1-1h-1c-2.21,0-4,1.79-4,4v1c0,.55.45,1,1,1Z"/><path d="m7,21h1c.55,0,1-.45,1-1s-.45-1-1-1h-1c-1.1,0-2-.9-2-2v-1c0-.55-.45-1-1-1s-1,.45-1,1v1c0,2.21,1.79,4,4,4Z"/><path d="m21,15c0-.55-.45-1-1-1s-1,.45-1,1v2c0,1.1-.9,2-2,2h-1c-.55,0-1,.45-1,1s.45,1,1,1h1c2.21,0,4-1.79,4-4v-2Z"/><path d="m21,7c0-2.21-1.79-4-4-4h-1c-.55,0-1,.45-1,1s.45,1,1,1h1c1.1,0,2,.9,2,2v1c0,.55.45,1,1,1s1-.45,1-1v-1Z"/></svg>