<svg xmlns="http://www.w3.org/2000/svg" viewBox="0 0 24 24" width="24" height="24"><path class="b" d="m20.72,4.28l-1.18,1.18c-1.87-2.17-4.58-3.46-7.54-3.46C6.49,2,2,6.49,2,12c0,.55.45,1,1,1s1-.45,1-1c0-4.41,3.59-8,8-8,2.41,0,4.62,1.08,6.12,2.88l-.84.84c-.47.47-.14,1.28.53,1.28h3.44c.41,0,.75-.34.75-.75v-3.44c0-.67-.81-1-1.28-.53Z"/><path class="b" d="m9.87,19.66c.58.58,1.35.88,2.12.88s1.54-.29,2.12-.88l3.54-3.54c1.17-1.17,1.17-3.07,0-4.24l-3.54-3.54c-1.17-1.17-3.07-1.17-4.24,0l-3.54,3.54c-1.17,1.17-1.17,3.07,0,4.24l3.54,3.54h0Zm-2.12-6.37l3.53-3.54c.39-.39,1.02-.39,1.42,0l3.54,3.54c.39.39.39,1.02,0,1.41l-3.54,3.54c-.39.39-1.03.39-1.42,0h0s-3.53-3.54-3.53-3.54c-.39-.39-.39-1.02,0-1.41Z"/></svg>