<svg xmlns="http://www.w3.org/2000/svg" viewBox="0 0 24 24" width="24" height="24"><path d="m13,2h-2C6.04,2,2,6.04,2,11v10c0,.55.45,1,1,1s1-.45,1-1v-10c0-3.86,3.14-7,7-7h2c3.86,0,7,3.14,7,7v10c0,.55.45,1,1,1s1-.45,1-1v-10c0-4.96-4.04-9-9-9Z"/><path d="m13,6h-2c-2.76,0-5,2.24-5,5v5.5c0,1.21.86,2.22,2,2.45v.05l-1.48,2.22c-.22.33.02.78.42.78h1.07c.16,0,.31-.07.4-.2l.45-.6c.09-.13.24-.2.4-.2h5.5c.16,0,.31.07.4.2l.45.6c.09.13.24.2.4.2h1.07c.4,0,.64-.45.42-.78l-1.48-2.22v-.05c1.14-.23,2-1.24,2-2.45v-5.5c0-2.76-2.24-5-5-5Zm-4,10c-.55,0-1-.45-1-1s.45-1,1-1,1,.45,1,1-.45,1-1,1Zm6,0c-.55,0-1-.45-1-1s.45-1,1-1,1,.45,1,1-.45,1-1,1Zm1-4.56c0,.31-.25.56-.56.56h-6.88c-.31,0-.56-.25-.56-.56v-.44c0-1.66,1.34-3,3-3h2c1.66,0,3,1.34,3,3v.44Z"/></svg>