<svg xmlns="http://www.w3.org/2000/svg" viewBox="0 0 24 24" width="24" height="24"><path d="m5.5,22h7c1.38,0,2.5-1.12,2.5-2.5v-7.5c0-2.22-1.21-4.15-3-5.19v-2.31c0-.67-.26-1.3-.73-1.77s-1.1-.73-1.77-.73h-1c-.67,0-1.3.26-1.77.73s-.73,1.1-.73,1.77v2.31c-1.79,1.04-3,2.97-3,5.19v1s0,.05,0,.07v6.43c0,1.38,1.12,2.5,2.5,2.5Zm7.5-2.5c0,.28-.22.5-.5.5h-7c-.28,0-.5-.22-.5-.5v-5.5h8v5.5Zm-5-15c0-.18.09-.3.15-.35s.17-.15.35-.15h1c.18,0,.3.09.35.15s.15.17.15.35v1.59c-.33-.06-.66-.09-1-.09s-.67.04-1,.09v-1.59Zm1,3.5c2.21,0,4,1.79,4,4H5c0-2.21,1.79-4,4-4Z"/><path d="M15 3A1 1 0 1 0 15 5 1 1 0 1 0 15 3z"/><path d="M18 3A1 1 0 1 0 18 5 1 1 0 1 0 18 3z"/><path d="M18 6A1 1 0 1 0 18 8 1 1 0 1 0 18 6z"/><path d="M21 3A1 1 0 1 0 21 5 1 1 0 1 0 21 3z"/><path d="M21 6A1 1 0 1 0 21 8 1 1 0 1 0 21 6z"/><path d="M21 9A1 1 0 1 0 21 11 1 1 0 1 0 21 9z"/></svg>