<svg xmlns="http://www.w3.org/2000/svg" viewBox="0 0 24 24" width="24" height="24"><path d="m19.7,3.6c-.75-1-1.95-1.6-3.2-1.6H7.5c-1.25,0-2.45.6-3.2,1.6l-1.8,2.4c-.32.43-.5.96-.5,1.5v.5c0,1.04.41,1.98,1.06,2.69-.03.1-.06.2-.06.31v7c0,2.21,1.79,4,4,4h10c2.21,0,4-1.79,4-4v-7c0-.11-.03-.21-.06-.31.65-.71,1.06-1.65,1.06-2.69v-.5c0-.54-.18-1.07-.5-1.5l-1.8-2.4Zm-4.42.4h1.22c.63,0,1.22.3,1.6.8l1.8,2.4c.07.09.1.19.1.3v.5c0,1.1-.9,2-2,2s-2-.9-2-2v-1l-.72-3Zm-5.28,3.12l.78-3.12h2.44l.78,3.12v.88c0,1.1-.9,2-2,2s-2-.9-2-2v-.88Zm-6,.38c0-.11.03-.21.1-.3l1.8-2.4c.38-.5.97-.8,1.6-.8h1.22l-.69,2.76-.03,1.24c0,1.1-.9,2-2,2s-2-.9-2-2v-.5Zm6,12.5v-2c0-1.1.9-2,2-2s2,.9,2,2v2h-4Zm7,0h-1v-2c0-2.21-1.79-4-4-4s-4,1.79-4,4v2h-1c-1.1,0-2-.9-2-2v-6.14c.32.08.65.14,1,.14,1.2,0,2.27-.54,3-1.38.73.84,1.8,1.38,3,1.38s2.27-.54,3-1.38c.73.84,1.8,1.38,3,1.38.35,0,.68-.06,1-.14v6.14c0,1.1-.9,2-2,2Z"/></svg>