<svg xmlns="http://www.w3.org/2000/svg" viewBox="0 0 24 24" width="24" height="24"><path d="m4,9c.55,0,1-.45,1-1v-1c0-1.1.9-2,2-2h1c.55,0,1-.45,1-1s-.45-1-1-1h-1c-2.21,0-4,1.79-4,4v1c0,.55.45,1,1,1Z"/><path d="m8,19h-1c-1.1,0-2-.9-2-2v-1c0-.55-.45-1-1-1s-1,.45-1,1v1c0,2.21,1.79,4,4,4h1c.55,0,1-.45,1-1s-.45-1-1-1Z"/><path d="m20,14c-.55,0-1,.45-1,1v2c0,1.1-.9,2-2,2h-1c-.55,0-1,.45-1,1s.45,1,1,1h1c2.21,0,4-1.79,4-4v-2c0-.55-.45-1-1-1Z"/><path d="m20,9c.55,0,1-.45,1-1v-1c0-2.21-1.79-4-4-4h-1c-.55,0-1,.45-1,1s.45,1,1,1h1c1.1,0,2,.9,2,2v1c0,.55.45,1,1,1Z"/><path d="m21,11H3c-.55,0-1,.45-1,1s.45,1,1,1h18c.55,0,1-.45,1-1s-.45-1-1-1Z"/></svg>