<svg xmlns="http://www.w3.org/2000/svg" viewBox="0 0 24 24" width="24" height="24"><path d="M20.86 9.55c-.22-.66-.82-1.13-1.52-1.18l-3.96-.31-1.78-3.95c-.29-.64-.9-1.03-1.6-1.03s-1.31.39-1.59 1.03L8.63 8.06l-3.96.31c-.7.06-1.29.52-1.52 1.18s-.03 1.39.49 1.86l3.24 2.92-1.27 4.44c-.2.71.05 1.46.65 1.89a1.72 1.72 0 0 0 2 .04l3.75-2.5 3.75 2.5c.62.41 1.4.4 2-.04s.85-1.18.65-1.89l-1.27-4.44 3.24-2.92c.52-.47.71-1.2.49-1.86ZM7.71 18.66l1.25-4.38c.1-.37 0-.76-.29-1.02L5.4 10.32 9.37 10c.36-.03.68-.25.83-.59l.8-1.77v8.82l-3.29 2.19Zm7.62-5.4c-.28.26-.4.65-.29 1.02l1.25 4.38L13 16.47V7.64l.8 1.77c.15.33.47.56.83.59l3.97.32z"/></svg>