<svg xmlns="http://www.w3.org/2000/svg" viewBox="0 0 24 24" width="24" height="24"><path d="M4 11A1 1 0 1 0 4 13 1 1 0 1 0 4 11z"/><path d="M4 15A1 1 0 1 0 4 17 1 1 0 1 0 4 15z"/><path d="M4 19A1 1 0 1 0 4 21 1 1 0 1 0 4 19z"/><path d="M8 3A1 1 0 1 0 8 5 1 1 0 1 0 8 3z"/><path d="M8 19A1 1 0 1 0 8 21 1 1 0 1 0 8 19z"/><path d="M12 3A1 1 0 1 0 12 5 1 1 0 1 0 12 3z"/><path d="M12 19A1 1 0 1 0 12 21 1 1 0 1 0 12 19z"/><path d="M16 3A1 1 0 1 0 16 5 1 1 0 1 0 16 3z"/><path d="M20 3A1 1 0 1 0 20 5 1 1 0 1 0 20 3z"/><path d="M20 7A1 1 0 1 0 20 9 1 1 0 1 0 20 7z"/><path d="M20 11A1 1 0 1 0 20 13 1 1 0 1 0 20 11z"/><path d="M20 15A1 1 0 1 0 20 17 1 1 0 1 0 20 15z"/><path d="m17,15.59v-6.59c0-1.1-.9-2-2-2h-6.59L3.71,2.29c-.39-.39-1.02-.39-1.41,0s-.39,1.02,0,1.41l18,18c.2.2.45.29.71.29s.51-.1.71-.29c.39-.39.39-1.02,0-1.41l-4.71-4.71Zm-2-6.59v4.59l-4.59-4.59h4.59Z"/><path d="m8,12c-.55,0-1,.45-1,1v2c0,1.1.9,2,2,2h2c.55,0,1-.45,1-1s-.45-1-1-1h-2v-2c0-.55-.45-1-1-1Z"/><path d="m3.67,8.93c.16.06.32.08.45.06.23-.03.31-.32.15-.48l-.78-.78c-.16-.16-.45-.08-.48.15-.02.14,0,.29.06.45.11.27.33.5.6.6Z"/><path d="m15.67,20.93c.16.06.32.08.45.06.23-.03.31-.32.15-.48l-.78-.78c-.16-.16-.45-.08-.48.15-.02.14,0,.29.06.45.11.27.33.5.6.6Z"/></svg>