<svg xmlns="http://www.w3.org/2000/svg" width="24" height="24" viewBox="0 0 24 24"><path d="M7.4 20.72c1.51.43 3.06.65 4.6.65s3.1-.22 4.6-.65a5.94 5.94 0 0 0 4.12-4.12c.86-3.01.86-6.2 0-9.21a5.94 5.94 0 0 0-4.12-4.12c-3.01-.86-6.2-.86-9.21 0a5.94 5.94 0 0 0-4.12 4.12c-.86 3.01-.86 6.2 0 9.21a5.94 5.94 0 0 0 4.12 4.12ZM5.2 7.94a3.99 3.99 0 0 1 2.75-2.75 14.673 14.673 0 0 1 8.1 0c1.34.38 2.37 1.41 2.75 2.75.76 2.65.76 5.46 0 8.11a3.99 3.99 0 0 1-2.75 2.75c-2.65.76-5.46.76-8.11 0a3.97 3.97 0 0 1-2.75-2.75c-.76-2.65-.76-5.46 0-8.11Z"/></svg>