<svg xmlns="http://www.w3.org/2000/svg" viewBox="0 0 24 24" width="24" height="24"><path d="m20.23,16.39c-1.39.47-2.03.54-2.3.52.08-.62.82-2.06,1.37-3.14.54-1.06,1.15-2.26,1.63-3.46.25-.64.85-2.14-.11-2.94-1.15-.95-2.97.2-6.27,2.29-1.38.87-2.92,1.85-4.29,2.54,1.24-1.67,2.55-3.52,2.28-5.09-.11-.62-.45-1.14-.98-1.5-.65-.44-1.43-.58-2.26-.4-2.72.56-5.78,4.56-7.06,6.39-.32.46-.19,1.1.28,1.41h0c.45.29,1.05.18,1.35-.27,1.56-2.24,4.13-5.22,5.83-5.58.39-.08.6.01.74.11.1.07.12.12.13.17.14.83-1.33,2.8-2.13,3.85-1.13,1.51-1.82,2.43-1.14,3.27.7.87,2.04.27,3.11-.22,1.66-.75,3.54-1.95,5.21-3,1.17-.74,2.66-1.69,3.57-2.1-.03.09-.07.2-.12.32-.44,1.11-1.01,2.22-1.55,3.29-1.27,2.49-2.19,4.28-1.16,5.43.37.41.88.62,1.6.62s1.67-.21,2.9-.62c.54-.18.82-.78.62-1.31-.19-.51-.75-.76-1.26-.59Z"/></svg>