<svg xmlns="http://www.w3.org/2000/svg" viewBox="0 0 24 24" width="24" height="24"><path d="m7,19h-2c-.55,0-1,.45-1,1s.45,1,1,1h14c.55,0,1-.45,1-1s-.45-1-1-1h-2v-6c0-2.76-2.24-5-5-5s-5,2.24-5,5v6Zm2-6c0-1.65,1.35-3,3-3s3,1.35,3,3v6h-6v-6Z"/><path d="m12,6c.55,0,1-.45,1-1v-1c0-.55-.45-1-1-1s-1,.45-1,1v1c0,.55.45,1,1,1Z"/><path d="m21,11h-1c-.55,0-1,.45-1,1s.45,1,1,1h1c.55,0,1-.45,1-1s-.45-1-1-1Z"/><path d="m3,13h1c.55,0,1-.45,1-1s-.45-1-1-1h-1c-.55,0-1,.45-1,1s.45,1,1,1Z"/><path d="m17.7,7.3c.26,0,.51-.1.71-.29l.62-.62c.39-.39.39-1.02,0-1.41-.39-.39-1.02-.39-1.41,0l-.62.62c-.39.39-.39,1.02,0,1.41.2.2.45.29.71.29Z"/><path d="m5.59,7.01c.2.2.45.29.71.29s.51-.1.71-.29c.39-.39.39-1.02,0-1.41l-.62-.62c-.39-.39-1.02-.39-1.41,0-.39.39-.39,1.02,0,1.41l.62.62Z"/></svg>