<svg xmlns="http://www.w3.org/2000/svg" viewBox="0 0 24 24" width="24" height="24"><path d="m8,22h8c2.21,0,4-1.79,4-4V6.62c0-.66-.27-1.3-.73-1.77l-2.12-2.12c-.47-.47-1.11-.73-1.77-.73h-7.38c-2.21,0-4,1.79-4,4v12c0,2.21,1.79,4,4,4ZM6,6c0-1.1.9-2,2-2h7.38c.13,0,.26.05.35.15l2.12,2.12c.09.09.15.22.15.35v11.38c0,1.1-.9,2-2,2h-8c-1.1,0-2-.9-2-2V6Z"/><path d="m8,9c.55,0,1-.45,1-1v-2c0-.55-.45-1-1-1s-1,.45-1,1v2c0,.55.45,1,1,1Z"/><path d="m11,9c.55,0,1-.45,1-1v-2c0-.55-.45-1-1-1s-1,.45-1,1v2c0,.55.45,1,1,1Z"/><path d="m14,9c.55,0,1-.45,1-1v-2c0-.55-.45-1-1-1s-1,.45-1,1v2c0,.55.45,1,1,1Z"/></svg>