<svg xmlns="http://www.w3.org/2000/svg" viewBox="0 0 24 24" width="24" height="24"><rect x="11" y="2" width="2" height="3" rx="1" ry="1"/><rect x="19" y="11" width="3" height="2" rx="1" ry="1"/><path d="m17.31,13.38c-.08-.17-.2-.31-.31-.45v-.93c0-2.76-2.24-5-5-5s-5,2.24-5,5h-2.38c-.7,0-1.33.35-1.7.95-.37.59-.4,1.32-.09,1.95l2.86,5.72c.43.85,1.28,1.38,2.24,1.38h10.45c.7,0,1.33-.35,1.7-.95.37-.59.4-1.32.09-1.95l-2.86-5.72Zm-5.31-4.38c1.65,0,3,1.35,3,3h-6c0-1.65,1.35-3,3-3Zm-6.38,7l-1-2h4.51l1,2h-4.51Zm2.31,4c-.19,0-.36-.11-.45-.28l-.86-1.72h4.51l1,2h-4.2Zm3.44-6h3.7c.19,0,.36.11.45.28l.86,1.72h-4.02l-1-2Zm3,6l-1-2h4.02l1,2h-4.02Z"/><path d="m18.36,7.05l.71-.71c.39-.39.39-1.02,0-1.41-.39-.39-1.02-.39-1.41,0l-.71.71c-.39.39-.39,1.02,0,1.41s1.02.39,1.41,0Z"/><path d="m5.64,7.05c.39.39,1.02.39,1.41,0,.39-.39.39-1.02,0-1.41l-.71-.71c-.39-.39-1.02-.39-1.41,0-.39.39-.39,1.02,0,1.41l.71.71Z"/></svg>