<svg xmlns="http://www.w3.org/2000/svg" width="24" height="24" viewBox="0 0 24 24"><path d="M19 8h-3V5c0-1.65-1.35-3-3-3H5C3.35 2 2 3.35 2 5v8c0 1.65 1.35 3 3 3h3v3c0 1.65 1.35 3 3 3h8c1.65 0 3-1.35 3-3v-8c0-1.65-1.35-3-3-3m1 11c0 .55-.45 1-1 1h-8c-.55 0-1-.45-1-1v-3h.5c.55 0 1-.45 1-1s-.45-1-1-1H10v-.5c0-.55-.45-1-1-1s-1 .45-1 1v.5H5c-.55 0-1-.45-1-1V5c0-.55.45-1 1-1h8c.55 0 1 .45 1 1v3h-.5c-.55 0-1 .45-1 1s.45 1 1 1h.5v.5c0 .55.45 1 1 1s1-.45 1-1V10h3c.55 0 1 .45 1 1z"/><path d="M15 12.5c-.55 0-1 .45-1 1v.5h-.5c-.55 0-1 .45-1 1s.45 1 1 1H15c.55 0 1-.45 1-1v-1.5c0-.55-.45-1-1-1M10.5 8H9c-.55 0-1 .45-1 1v1.5c0 .55.45 1 1 1s1-.45 1-1V10h.5c.55 0 1-.45 1-1s-.45-1-1-1"/></svg>