<svg xmlns="http://www.w3.org/2000/svg" width="24" height="24" viewBox="0 0 24 24"><path d="M6.85 18.89c.39.07.77.11 1.15.11 1.07 0 2.09-.29 3-.81V20H9c-.55 0-1 .45-1 1s.45 1 1 1h6c.55 0 1-.45 1-1s-.45-1-1-1h-2v-1.81c1.23.71 2.69.98 4.15.7 2.32-.44 4.21-2.28 4.71-4.58.45-2.06-.19-4.17-1.74-5.67l-6.49-5.56c-.94-.81-2.31-.81-3.25 0l-6.54 5.6c-1.51 1.46-2.14 3.56-1.69 5.63.5 2.3 2.39 4.14 4.71 4.58Zm-1.67-8.73 6.49-5.56a.516.516 0 0 1 .66 0l6.45 5.52c1.01.97 1.43 2.38 1.13 3.77a4.002 4.002 0 0 1-7.11 1.51c-.38-.5-1.22-.5-1.6 0a4.002 4.002 0 0 1-7.11-1.51c-.3-1.38.12-2.79 1.09-3.73"/></svg>