<svg xmlns="http://www.w3.org/2000/svg" viewBox="0 0 24 24" width="24" height="24"><path d="m16.68,7.32c-.95-3.12-3.87-5.32-7.18-5.32-4.14,0-7.5,3.36-7.5,7.5,0,3.31,2.2,6.23,5.32,7.18.95,3.12,3.87,5.32,7.18,5.32,4.14,0,7.5-3.36,7.5-7.5,0-3.31-2.2-6.23-5.32-7.18Zm-2.18,12.68c-2.09,0-3.95-1.21-4.88-3.01.2,0,.4-.01.6-.03.55-.05.95-.54.9-1.09-.05-.55-.54-.95-1.09-.9-.33.03-.68.04-1.02,0-.01-.16-.02-.32-.02-.48,0-.18,0-.36.03-.54.05-.55-.35-1.04-.9-1.09-.55-.07-1.04.35-1.09.9-.02.2-.03.4-.03.61-1.8-.92-3.01-2.79-3.01-4.88,0-3.03,2.47-5.5,5.5-5.5,2.1,0,3.96,1.22,4.89,3.02-.2,0-.41,0-.61.01-.55.05-.95.54-.9,1.09.05.55.53.95,1.09.9.33-.03.68-.04,1.02,0,.01.16.02.32.02.48,0,.18,0,.36-.03.54-.05.55.35,1.04.9,1.09.03,0,.06,0,.1,0,.51,0,.94-.39.99-.9.02-.2.03-.4.03-.61,1.8.92,3.01,2.79,3.01,4.88,0,3.03-2.47,5.5-5.5,5.5Z"/><path d="m10.17,8.37c-.7.5-1.31,1.11-1.81,1.81-.32.45-.21,1.08.24,1.39.17.12.38.18.57.18.31,0,.62-.15.82-.42.36-.52.81-.97,1.33-1.33.45-.32.56-.94.24-1.39s-.94-.56-1.39-.24Z"/><path d="m14,12.66c-.36.52-.81.97-1.33,1.33-.45.32-.56.94-.24,1.39.19.28.5.42.82.42.2,0,.4-.06.58-.18.7-.5,1.31-1.11,1.81-1.81.32-.45.21-1.08-.24-1.39-.45-.32-1.08-.21-1.39.24Z"/></svg>