<svg xmlns="http://www.w3.org/2000/svg" viewBox="0 0 24 24" width="24" height="24"><path d="m19,9.09v-1.59c0-1.38-1.12-2.5-2.5-2.5h-1.59l-1.15-1.15c-.94-.95-2.59-.95-3.54,0l-1.15,1.15h-1.59c-1.38,0-2.5,1.12-2.5,2.5v1.59l-1.15,1.15c-.97.97-.97,2.56,0,3.54l1.15,1.15v1.59c0,1.38,1.12,2.5,2.5,2.5h1.59l1.15,1.15c.47.47,1.1.73,1.77.73s1.3-.26,1.77-.73l1.15-1.15h1.59c1.38,0,2.5-1.12,2.5-2.5v-1.59l1.15-1.15c.97-.97.97-2.56,0-3.54l-1.15-1.15Zm-.27,3.27l-1.44,1.44c-.19.19-.29.44-.29.71v2c0,.28-.22.5-.5.5h-2c-.27,0-.52.11-.71.29l-1.44,1.44c-.13.13-.28.15-.35.15s-.23-.02-.35-.15l-1.44-1.44c-.19-.19-.44-.29-.71-.29h-2c-.28,0-.5-.22-.5-.5v-2c0-.27-.11-.52-.29-.71l-1.44-1.44c-.19-.2-.19-.51,0-.71l1.44-1.44c.19-.19.29-.44.29-.71v-2c0-.28.22-.5.5-.5h2c.27,0,.52-.11.71-.29l1.44-1.44c.13-.13.28-.15.35-.15s.23.02.35.15l1.44,1.44c.19.19.44.29.71.29h2c.28,0,.5.22.5.5v2c0,.27.11.52.29.71l1.44,1.44c.19.2.19.51,0,.71Z"/></svg>