<svg xmlns="http://www.w3.org/2000/svg" viewBox="0 0 24 24" width="24" height="24"><path d="m19.28,4.28c-.47-.47-1.28-.14-1.28.53v1.19h-1c-1.53,0-3.04.62-4.12,1.71l-7.17,7.17c-.71.71-1.7,1.12-2.71,1.12-.55,0-1,.45-1,1s.45,1,1,1c1.53,0,3.04-.62,4.12-1.71l7.17-7.17c.71-.71,1.7-1.12,2.71-1.12h1v1.19c0,.67.81,1,1.28.53l2.19-2.19c.29-.29.29-.77,0-1.06l-2.19-2.19Z"/><path d="m19.28,14.28c-.47-.47-1.28-.14-1.28.53v1.19c-1.01,0-1.99-.41-2.71-1.12l-1.59-1.59c-.39-.39-1.02-.39-1.41,0s-.39,1.02,0,1.41l1.59,1.59c1.08,1.08,2.59,1.71,4.12,1.71v1.19c0,.67.81,1,1.28.53l2.19-2.19c.29-.29.29-.77,0-1.06l-2.19-2.19Z"/><path d="m3,8h1c1.01,0,1.99.41,2.71,1.12l.59.59c.2.2.45.29.71.29s.51-.1.71-.29c.39-.39.39-1.02,0-1.41l-.59-.59c-1.08-1.08-2.59-1.71-4.12-1.71h-1c-.55,0-1,.45-1,1s.45,1,1,1Z"/></svg>