<svg xmlns="http://www.w3.org/2000/svg" width="24" height="24" viewBox="0 0 24 24"><path d="M3 13c0 .55.45 1 1 1s1-.45 1-1v-2c0-.55-.45-1-1-1s-1 .45-1 1zM3.08 17.81a3.8 3.8 0 0 0 .6 1.43c.14.21.31.41.49.59a3.94 3.94 0 0 0 2.02 1.09c.26.05.53.08.81.08.55 0 1-.45 1-1s-.45-1-1-1c-.14 0-.27-.01-.4-.04a2 2 0 0 1-.71-.31c-.11-.07-.2-.15-.29-.24s-.17-.19-.24-.29a2.2 2.2 0 0 1-.3-.71 1.8 1.8 0 0 1-.04-.4c0-.55-.45-1-1-1s-1 .45-1 1c0 .27.03.54.08.81ZM11 21h2c.55 0 1-.45 1-1s-.45-1-1-1h-2c-.55 0-1 .45-1 1s.45 1 1 1M17 21c.27 0 .54-.03.81-.08.25-.05.5-.13.75-.23a3.935 3.935 0 0 0 1.27-.86c.18-.18.34-.38.49-.59a3.832 3.832 0 0 0 .6-1.43c.05-.26.08-.54.08-.81 0-.55-.45-1-1-1s-1 .45-1 1c0 .14-.01.27-.04.4s-.07.25-.12.38c-.05.12-.11.23-.18.34s-.16.21-.25.3-.19.17-.3.25q-.165.105-.33.18c-.12.05-.25.09-.38.12s-.27.04-.4.04c-.55 0-1 .45-1 1s.45 1 1 1ZM20 10c-.55 0-1 .45-1 1v2c0 .55.45 1 1 1s1-.45 1-1v-2c0-.55-.45-1-1-1M20.92 6.19a3.8 3.8 0 0 0-.6-1.43c-.14-.21-.31-.41-.49-.59a3.94 3.94 0 0 0-2.02-1.09C17.55 3.03 17.28 3 17 3c-.55 0-1 .45-1 1s.45 1 1 1c.14 0 .27.01.4.04a2 2 0 0 1 .71.31c.11.07.2.15.29.24s.17.19.24.29a2.2 2.2 0 0 1 .3.71c.03.13.04.27.04.4 0 .55.45 1 1 1s1-.45 1-1c0-.27-.03-.54-.08-.81ZM11 5h2c.55 0 1-.45 1-1s-.45-1-1-1h-2c-.55 0-1 .45-1 1s.45 1 1 1M4 8c.55 0 1-.45 1-1 0-.14.01-.27.04-.4s.07-.25.12-.38c.05-.12.11-.23.18-.34s.16-.21.25-.3.19-.17.3-.25q.165-.105.33-.18c.12-.05.25-.09.38-.12s.27-.04.4-.04c.55 0 1-.45 1-1s-.45-1-1-1c-.27 0-.54.03-.81.08-.25.05-.5.13-.75.23a3.935 3.935 0 0 0-1.27.86c-.18.18-.34.38-.49.59a3.832 3.832 0 0 0-.6 1.43c-.05.26-.08.54-.08.81 0 .55.45 1 1 1Z"/></svg>