<svg xmlns="http://www.w3.org/2000/svg" viewBox="0 0 24 24" width="24" height="24"><path d="m16.95,2.64c-.39.39-.39,1.02,0,1.41,1.32,1.32,2.05,3.08,2.05,4.95s-.73,3.63-2.05,4.95c-1.08,1.08-2.46,1.76-3.95,1.97v-2.02c2.28-.46,4-2.48,4-4.9s-1.72-4.43-4-4.9v-1.1c0-.55-.45-1-1-1s-1,.45-1,1v1.1c-2.28.46-4,2.48-4,4.9s1.72,4.43,4,4.9v2.02c-1.49-.21-2.87-.89-3.95-1.97-1.32-1.32-2.05-3.08-2.05-4.95s.73-3.63,2.05-4.95c.39-.39.39-1.02,0-1.41s-1.02-.39-1.41,0c-1.7,1.7-2.64,3.96-2.64,6.36s.94,4.66,2.64,6.36c1.01,1.01,2.21,1.74,3.53,2.17l-2.68,1.61c-.47.28-.63.9-.34,1.37s.9.63,1.37.34l3.49-2.09v2.23c0,.55.45,1,1,1s1-.45,1-1v-2.23l3.49,2.09c.16.1.34.14.51.14.34,0,.67-.17.86-.49.28-.47.13-1.09-.34-1.37l-2.68-1.61c1.31-.44,2.52-1.17,3.53-2.17,1.7-1.7,2.64-3.96,2.64-6.36s-.94-4.66-2.64-6.36c-.39-.39-1.02-.39-1.41,0Zm-1.95,6.36c0,1.3-.84,2.4-2,2.82v-5.63c1.16.41,2,1.51,2,2.82Zm-6,0c0-1.3.84-2.4,2-2.82v5.63c-1.16-.41-2-1.51-2-2.82Z"/></svg>