<svg xmlns="http://www.w3.org/2000/svg" width="24" height="24" viewBox="0 0 24 24"><path d="M9.61 2h-1.5c-.55 0-1 .45-1 1s.45 1 1 1h1.5c.55 0 1-.45 1-1s-.45-1-1-1M15 6.18c.55 0 1-.45 1-1V5c0-1.65-1.35-3-3-3h-.18c-.55 0-1 .45-1 1s.45 1 1 1H13c.55 0 1 .45 1 1v.18c0 .55.45 1 1 1M3 6.18c.55 0 1-.45 1-1V5c0-.55.45-1 1-1h.18c.55 0 1-.45 1-1s-.45-1-1-1H5C3.35 2 2 3.35 2 5v.18c0 .55.45 1 1 1M3 10.89c.55 0 1-.45 1-1v-1.5c0-.55-.45-1-1-1s-1 .45-1 1v1.5c0 .55.45 1 1 1M5 16h.18c.55 0 1-.45 1-1s-.45-1-1-1H5c-.55 0-1-.45-1-1v-.18c0-.55-.45-1-1-1s-1 .45-1 1V13c0 1.65 1.35 3 3 3M19 8h-.18c-.55 0-1 .45-1 1s.45 1 1 1H19c.55 0 1 .45 1 1v.18c0 .55.45 1 1 1s1-.45 1-1V11c0-1.65-1.35-3-3-3M11 8c-1.65 0-3 1.35-3 3v3.08c-.36.15-.61.51-.61.92s.26.77.62.92c.02.53.45.96.99.96s.92-.39.98-.89H13c1.65 0 3-1.35 3-3V9.91c.36-.15.61-.51.61-.92s-.26-.77-.62-.92c-.02-.53-.45-.96-.99-.96s-.92.39-.98.89zm3 5c0 .55-.45 1-1 1h-3v-3c0-.55.45-1 1-1h3zM14.39 20c-.55 0-1 .45-1 1s.45 1 1 1h1.5c.55 0 1-.45 1-1s-.45-1-1-1zM21 13.11c-.55 0-1 .45-1 1v1.5c0 .55.45 1 1 1s1-.45 1-1v-1.5c0-.55-.45-1-1-1M9 17.82c-.55 0-1 .45-1 1V19c0 1.65 1.35 3 3 3h.18c.55 0 1-.45 1-1s-.45-1-1-1H11c-.55 0-1-.45-1-1v-.18c0-.55-.45-1-1-1M21 17.82c-.55 0-1 .45-1 1V19c0 .55-.45 1-1 1h-.18c-.55 0-1 .45-1 1s.45 1 1 1H19c1.65 0 3-1.35 3-3v-.18c0-.55-.45-1-1-1"/></svg>