<svg xmlns="http://www.w3.org/2000/svg" viewBox="0 0 24 24" width="24" height="24"><path d="m19.63,11c.64,0,1.23-.35,1.54-.91.31-.56.28-1.25-.06-1.79l-3.13-4.86c-.32-.5-.87-.8-1.47-.8s-1.15.3-1.47.8l-3.13,4.86c-.35.54-.37,1.22-.06,1.79.31.56.9.91,1.54.91h6.25Zm-3.13-6.15l2.67,4.15h-5.34l2.67-4.15Z"/><path d="m17.5,13c-2.48,0-4.5,2.02-4.5,4.5s2.02,4.5,4.5,4.5,4.5-2.02,4.5-4.5-2.02-4.5-4.5-4.5Zm0,7c-1.38,0-2.5-1.12-2.5-2.5s1.12-2.5,2.5-2.5,2.5,1.12,2.5,2.5-1.12,2.5-2.5,2.5Z"/><path d="m9.25,13H3.75c-.96,0-1.75.79-1.75,1.75v5.5c0,.96.79,1.75,1.75,1.75h5.5c.96,0,1.75-.79,1.75-1.75v-5.5c0-.96-.79-1.75-1.75-1.75Zm-.25,7h-5v-5h5v5Z"/></svg>