<svg xmlns="http://www.w3.org/2000/svg" width="24" height="24" viewBox="0 0 24 24"><path d="M9.61 2h-1.5c-.55 0-1 .45-1 1s.45 1 1 1h1.5c.55 0 1-.45 1-1s-.45-1-1-1M13 2h-.18c-.55 0-1 .45-1 1s.45 1 1 1H13c.55 0 1 .45 1 1v.18c0 .55.45 1 1 1s1-.45 1-1V5c0-1.65-1.35-3-3-3M5.18 2H5C3.35 2 2 3.35 2 5v.18c0 .55.45 1 1 1s1-.45 1-1V5c0-.55.45-1 1-1h.18c.55 0 1-.45 1-1s-.45-1-1-1M15 7.11c-.52 0-.93.4-.98.91-.51.05-.91.46-.91.98s.43.97.96.99c.15.36.51.62.92.62s.8-.29.93-.68c.39-.13.68-.5.68-.94s-.26-.77-.62-.92a.993.993 0 0 0-.99-.96ZM3 10.89c.55 0 1-.45 1-1v-1.5c0-.55-.45-1-1-1s-1 .45-1 1v1.5c0 .55.45 1 1 1M5.18 14H5c-.55 0-1-.45-1-1v-.18c0-.55-.45-1-1-1s-1 .45-1 1V13c0 1.65 1.35 3 3 3h.18c.55 0 1-.45 1-1s-.45-1-1-1M16 13v-.18c0-.55-.45-1-1-1s-1 .45-1 1V13c0 .55-.45 1-1 1h-.18c-.55 0-1 .45-1 1s.45 1 1 1H13c1.65 0 3-1.35 3-3M19 8h-.18c-.55 0-1 .45-1 1s.45 1 1 1H19c.55 0 1 .45 1 1v.18c0 .55.45 1 1 1s1-.45 1-1V11c0-1.65-1.35-3-3-3M11 8c-1.65 0-3 1.35-3 3v.18c0 .55.45 1 1 1s1-.45 1-1V11c0-.55.45-1 1-1h.18c.55 0 1-.45 1-1s-.45-1-1-1zM15.89 20h-1.5c-.55 0-1 .45-1 1s.45 1 1 1h1.5c.55 0 1-.45 1-1s-.45-1-1-1M21 13.11c-.55 0-1 .45-1 1v1.5c0 .55.45 1 1 1s1-.45 1-1v-1.5c0-.55-.45-1-1-1M9 16.89c.52 0 .93-.4.98-.91.51-.05.91-.46.91-.98s-.43-.97-.96-.99c-.15-.36-.51-.62-.92-.62s-.8.29-.93.68c-.39.13-.68.5-.68.94s.26.77.62.92c.02.53.45.96.99.96ZM11.18 20H11c-.55 0-1-.45-1-1v-.18c0-.55-.45-1-1-1s-1 .45-1 1V19c0 1.65 1.35 3 3 3h.18c.55 0 1-.45 1-1s-.45-1-1-1M21 17.82c-.55 0-1 .45-1 1V19c0 .55-.45 1-1 1h-.18c-.55 0-1 .45-1 1s.45 1 1 1H19c1.65 0 3-1.35 3-3v-.18c0-.55-.45-1-1-1"/></svg>