<svg xmlns="http://www.w3.org/2000/svg" width="24" height="24" viewBox="0 0 24 24"><path d="M7 21h10c2.21 0 4-1.79 4-4V8.62c0-.66-.27-1.3-.73-1.77l-3.12-3.12c-.47-.47-1.11-.73-1.77-.73H7C4.79 3 3 4.79 3 7v10c0 2.21 1.79 4 4 4m8-2H9v-4.5c0-.28.22-.5.5-.5h5c.28 0 .5.22.5.5zM11 5h2v2h-2zM5 7c0-1.1.9-2 2-2v2.5C7 8.33 7.67 9 8.5 9h5c.83 0 1.5-.67 1.5-1.5V5h.38c.13 0 .26.05.35.15l3.12 3.12c.09.09.15.22.15.35V17c0 1.1-.9 2-2 2v-4.5a2.5 2.5 0 0 0-2.5-2.5h-5A2.5 2.5 0 0 0 7 14.5V19c-1.1 0-2-.9-2-2z"/></svg>