<svg xmlns="http://www.w3.org/2000/svg" viewBox="0 0 24 24" width="24" height="24"><path d="m21,12h-3.09c-.48-2.83-2.94-5-5.91-5s-5.43,2.17-5.91,5h-3.09c-.55,0-1,.45-1,1s.45,1,1,1h18c.55,0,1-.45,1-1s-.45-1-1-1Zm-9-3c1.86,0,3.41,1.28,3.86,3h-7.72c.45-1.72,2-3,3.86-3Z"/><rect x="11" y="2" width="2" height="3" rx="1" ry="1"/><path d="m17.59,5l-.59.59c-.39.39-.39,1.02,0,1.41.39.39,1.02.39,1.41,0l.59-.59c.39-.39.39-1.02,0-1.41-.39-.39-1.02-.39-1.41,0Z"/><path d="m6.41,5c-.39-.39-1.02-.39-1.41,0-.39.39-.39,1.02,0,1.41l.59.59c.39.39,1.02.39,1.41,0,.39-.39.39-1.02,0-1.41l-.59-.59Z"/><path d="m8,15.75c-.55,0-1,.45-1,1v.5c0,.55.45,1,1,1s1-.45,1-1v-.5c0-.55-.45-1-1-1Z"/><path d="m8,19.25c-.55,0-1,.45-1,1v.5c0,.55.45,1,1,1s1-.45,1-1v-.5c0-.55-.45-1-1-1Z"/><path d="m12,16.75c-.55,0-1,.45-1,1v.5c0,.55.45,1,1,1s1-.45,1-1v-.5c0-.55-.45-1-1-1Z"/><path d="m12,20.25c-.55,0-1,.45-1,1v.5c0,.55.45,1,1,1s1-.45,1-1v-.5c0-.55-.45-1-1-1Z"/><path d="m16,15.75c-.55,0-1,.45-1,1v.5c0,.55.45,1,1,1s1-.45,1-1v-.5c0-.55-.45-1-1-1Z"/><path d="m20,15.75c-.55,0-1,.45-1,1v.5c0,.55.45,1,1,1s1-.45,1-1v-.5c0-.55-.45-1-1-1Z"/><path d="m4,15.75c-.55,0-1,.45-1,1v.5c0,.55.45,1,1,1s1-.45,1-1v-.5c0-.55-.45-1-1-1Z"/><path d="m16,19.25c-.55,0-1,.45-1,1v.5c0,.55.45,1,1,1s1-.45,1-1v-.5c0-.55-.45-1-1-1Z"/></svg>