<svg xmlns="http://www.w3.org/2000/svg" viewBox="0 0 24 24" width="24" height="24"><path d="m19.62,5.71l-6.27-3.15c-.84-.42-1.85-.42-2.69,0l-6.27,3.15c-.85.43-1.38,1.29-1.38,2.25.01,2.82.77,9.78,7.54,13.44.46.25.96.37,1.46.37s1-.12,1.46-.37c6.77-3.66,7.53-10.62,7.54-13.44,0-.96-.53-1.82-1.38-2.25Zm-.9,1.79c.17.09.28.26.28.45,0,.75-.07,1.83-.31,3.05h-5.69v-6.38l5.72,2.87Zm-13.45,0l5.72-2.87v6.38h-5.69c-.25-1.23-.31-2.31-.31-3.05,0-.19.1-.37.28-.45Zm.59,5.51h5.13v6.34c-2.82-1.69-4.34-4.09-5.13-6.34Zm7.13,6.34v-6.34h5.13c-.8,2.25-2.31,4.65-5.13,6.34Z"/></svg>