<svg xmlns="http://www.w3.org/2000/svg" viewBox="0 0 24 24" width="24" height="24"><path d="m21.39,9.47c-.4-.3-.91-.38-1.38-.22-.67.23-1.82.7-3.17,1.55-.31-1.49-1.19-4.22-3.71-7.05-.57-.64-1.69-.64-2.25,0-2.53,2.84-3.41,5.58-3.71,7.08-1.35-.86-2.49-1.34-3.16-1.57-.47-.16-.99-.08-1.38.21-.4.29-.62.76-.61,1.26.26,6.95,4.09,11.27,9.99,11.27s9.71-4.43,9.99-11.28c.02-.49-.2-.96-.6-1.25Zm-12.39,2.57s.18-3.14,3-6.54c2.81,3.4,3,6.49,3,6.49v.13c-1,.83-2.03,1.86-3.01,3.15-.98-1.27-2.01-2.29-2.99-3.11v-.13Zm3,7.96c-4.57,0-7.5-3.19-7.94-8.57,1.56.67,4.3,2.24,6.72,5.57.28.39.74.62,1.22.62h0c.48,0,.94-.24,1.22-.64,2.36-3.34,5.13-4.89,6.71-5.56-.39,4.28-2.65,8.58-7.94,8.58Z"/></svg>