<svg xmlns="http://www.w3.org/2000/svg" viewBox="0 0 24 24" width="24" height="24"><path class="b" d="m7,5h6c.55,0,1-.45,1-1s-.45-1-1-1h-6c-2.21,0-4,1.79-4,4v10c0,2.21,1.79,4,4,4h6c.55,0,1-.45,1-1s-.45-1-1-1h-6c-1.1,0-2-.9-2-2V7c0-1.1.9-2,2-2Z"/><path class="b" d="m17,3c-.55,0-1,.45-1,1s.45,1,1,1c1.1,0,2,.9,2,2,0,.55.45,1,1,1s1-.45,1-1c0-2.21-1.79-4-4-4Z"/><path class="b" d="m20,16c-.55,0-1,.45-1,1,0,1.1-.9,2-2,2-.55,0-1,.45-1,1s.45,1,1,1c2.21,0,4-1.79,4-4,0-.55-.45-1-1-1Z"/><path class="b" d="m20,10c-.55,0-1,.45-1,1v2c0,.55.45,1,1,1s1-.45,1-1v-2c0-.55-.45-1-1-1Z"/></svg>