<svg xmlns="http://www.w3.org/2000/svg" width="24" height="24" viewBox="0 0 24 24"><path d="M21.56 5.17a1 1 0 0 0-.93-.1c-2.96 1.2-5.62-.61-6.95-1.79a2.52 2.52 0 0 0-3.35 0C9 4.46 6.34 6.27 3.38 5.07a.99.99 0 0 0-.93.1c-.28.19-.44.49-.44.83 0 .5.04 12.26 9.11 15.75.28.11.59.16.89.16s.61-.05.89-.16c9.01-3.47 9.11-15.24 9.11-15.73 0-.34-.17-.65-.44-.84Zm-9.39 14.71c-.1.04-.23.04-.34 0-6.11-2.35-7.45-9.51-7.75-12.52 3.33.62 6.11-1.28 7.57-2.58.2-.18.49-.18.69 0 1.46 1.31 4.25 3.21 7.58 2.58-.27 3.01-1.58 10.14-7.76 12.52Z"/></svg>