<svg xmlns="http://www.w3.org/2000/svg" viewBox="0 0 24 24" width="24" height="24"><path d="m16.37,17.63c2.79-.86,4.95-3.2,5.49-6.11.5-2.67-.31-5.29-2.2-7.18-1.9-1.9-4.51-2.7-7.18-2.2-2.91.54-5.25,2.7-6.11,5.49l-.08.08.04.04c-.08.26-.16.52-.21.8-.19,1.08-.17,2.16.06,3.2.23,1.01-.07,2.04-.8,2.77l-1.6,1.6c-1.19,1.19-1.29,2.81-.24,3.85l.51.51c.47.47,1.1.73,1.77.73s1.3-.26,1.77-.73l1.87-1.87c.73-.73,1.77-1.02,2.78-.8,1.04.24,2.12.26,3.2.06.27-.05.54-.13.8-.21l.04.04.07-.07Zm-3.53-13.52c.39-.07.78-.11,1.17-.11,1.59,0,3.09.61,4.24,1.76,1.42,1.42,2.02,3.39,1.65,5.4-.33,1.79-1.54,3.34-3.14,4.17L8.67,7.25c.83-1.6,2.38-2.81,4.17-3.14Zm-.15,11.75c-1.68-.38-3.41.12-4.63,1.34l-1.87,1.87c-.13.13-.28.15-.35.15s-.23-.02-.35-.15l-.51-.51c-.29-.29-.06-.72.24-1.02l1.6-1.6c1.22-1.21,1.71-2.94,1.34-4.62-.14-.61-.17-1.24-.12-1.87l6.53,6.53c-.63.06-1.26.02-1.87-.12Z"/><path d="M20 18A2 2 0 1 0 20 22 2 2 0 1 0 20 18z"/></svg>