<svg xmlns="http://www.w3.org/2000/svg" viewBox="0 0 24 24" width="24" height="24"><path d="m21,10c-.55,0-1,.45-1,1s-.45,1-1,1h-.22l-1.57-6.26c1.05-.47,1.78-1.52,1.78-2.74,0-.55-.45-1-1-1s-1,.45-1,1-.45,1-1,1h-1v-1c0-.55-.45-1-1-1s-1,.45-1,1v1h-2v-1c0-.55-.45-1-1-1s-1,.45-1,1v1h-1c-.55,0-1-.45-1-1s-.45-1-1-1-1,.45-1,1c0,1.22.74,2.27,1.78,2.74l-1.57,6.26h-.22c-.55,0-1-.45-1-1s-.45-1-1-1-1,.45-1,1c0,.88.39,1.67,1,2.22v7.03c0,.96.79,1.75,1.75,1.75h14.5c.96,0,1.75-.79,1.75-1.75v-7.03c.61-.55,1-1.34,1-2.22,0-.55-.45-1-1-1Zm-12.22-4h6.44l1.5,6H7.28l1.5-6Zm10.22,14h-4v-1c0-1.66-1.34-3-3-3s-3,1.34-3,3v1h-4v-6h14v6Z"/></svg>