<svg xmlns="http://www.w3.org/2000/svg" viewBox="0 0 24 24" width="24" height="24"><path d="M3.41 16.26c-.45.78-.44 1.72 0 2.5.45.78 1.26 1.25 2.16 1.25h10.54c.9 0 1.73-.48 2.17-1.26l3.14-5.5c.44-.76.44-1.72 0-2.48l-3.14-5.5a2.49 2.49 0 0 0-2.17-1.26H5.58c-.9 0-1.71.47-2.16 1.25a2.46 2.46 0 0 0 0 2.5l2.29 4.01c.09.15.09.34 0 .5l-2.29 4.01Zm4.03-5.5L5.15 6.75c-.13-.23-.04-.42 0-.5S5.32 6 5.58 6h10.54c.18 0 .35.1.43.25l3.14 5.5c.09.15.09.34 0 .5l-3.14 5.5c-.09.16-.25.25-.43.25H5.58c-.26 0-.39-.17-.43-.25s-.13-.27 0-.5l2.29-4.01c.44-.76.44-1.72 0-2.48"/></svg>