<svg xmlns="http://www.w3.org/2000/svg" viewBox="0 0 24 24" width="24" height="24"><path d="M6.5 13A1.5 1.5 0 1 0 6.5 16 1.5 1.5 0 1 0 6.5 13z"/><path d="M17.5 13A1.5 1.5 0 1 0 17.5 16 1.5 1.5 0 1 0 17.5 13z"/><path d="m20.96,10.74s0-.04,0-.06l-1.32-3.95c-.54-1.64-2.07-2.74-3.79-2.74h-1.84v-1c0-.55-.45-1-1-1h-2c-.55,0-1,.45-1,1v1h-1.84c-1.72,0-3.25,1.1-3.79,2.73l-1.32,3.95s0,.04,0,.06c-.63.55-1.04,1.35-1.04,2.26v3c0,1.3.84,2.4,2,2.82v2.18c0,.55.45,1,1,1h1c.55,0,1-.45,1-1v-2h10v2c0,.55.45,1,1,1h1c.55,0,1-.45,1-1v-2.18c1.16-.41,2-1.51,2-2.82v-3c0-.9-.41-1.71-1.04-2.26Zm-12.79-4.74h7.68c.86,0,1.62.55,1.9,1.37l.88,2.63H5.39l.88-2.63c.27-.82,1.03-1.37,1.9-1.37Zm11.84,10c0,.55-.45,1-1,1H5c-.55,0-1-.45-1-1v-3c0-.55.45-1,1-1h14c.55,0,1,.45,1,1v3Z"/></svg>