<svg xmlns="http://www.w3.org/2000/svg" viewBox="0 0 24 24" width="24" height="24"><path d="m15.5,9c-.28,0-.5.22-.5.5v1c0,.28.22.5.5.5s.5-.22.5-.5v-1c0-.28-.22-.5-.5-.5Z"/><path d="m15.5,12c-.28,0-.5.22-.5.5v1c0,.28.22.5.5.5s.5-.22.5-.5v-1c0-.28-.22-.5-.5-.5Z"/><path d="m20.25,5H3.75c-.96,0-1.75.79-1.75,1.75v2.26c0,.71.42,1.34,1.07,1.61.56.23.93.78.93,1.39s-.36,1.15-.93,1.39c-.65.27-1.07.9-1.07,1.61v2.26c0,.96.79,1.75,1.75,1.75h16.5c.96,0,1.75-.79,1.75-1.75v-2.26c0-.71-.42-1.34-1.07-1.61-.56-.23-.93-.78-.93-1.39s.36-1.15.93-1.39c.65-.27,1.07-.9,1.07-1.61v-2.26c0-.96-.79-1.75-1.75-1.75Zm-.25,3.84c-1.22.58-2,1.8-2,3.16s.78,2.58,2,3.16v1.84h-4v-1.5c0-.28-.22-.5-.5-.5s-.5.22-.5.5v1.5H4v-1.84c1.22-.58,2-1.8,2-3.16s-.78-2.58-2-3.16v-1.84h11v.5c0,.28.22.5.5.5s.5-.22.5-.5v-.5h4v1.84Z"/></svg>