<svg xmlns="http://www.w3.org/2000/svg" viewBox="0 0 24 24" width="24" height="24"><path d="m19.5,6h-1.5v-2c0-.55-.45-1-1-1s-1,.45-1,1v2h-8v-2c0-.55-.45-1-1-1s-1,.45-1,1v2h-1.5c-1.38,0-2.5,1.12-2.5,2.5v5c0,1.38,1.12,2.5,2.5,2.5h1.5v4c0,.55.45,1,1,1s1-.45,1-1v-4h8v4c0,.55.45,1,1,1s1-.45,1-1v-4h1.5c1.38,0,2.5-1.12,2.5-2.5v-5c0-1.38-1.12-2.5-2.5-2.5Zm-2.12,2l-3,6h-2.76l3-6h2.76Zm-8,6h-2.76l3-6h2.76l-3,6Zm-5.38-5.5c0-.28.22-.5.5-.5h2.88l-2.99,5.98c-.22-.05-.39-.24-.39-.48v-5Zm16,5c0,.28-.22.5-.5.5h-2.88l2.99-5.98c.22.05.39.24.39.48v5Z"/></svg>