<svg xmlns="http://www.w3.org/2000/svg" width="24" height="24" viewBox="0 0 24 24"><path d="M20.25 5H3.75C2.79 5 2 5.79 2 6.75v2.26c0 .71.42 1.34 1.07 1.61a1.505 1.505 0 0 1 0 2.78c-.65.27-1.07.9-1.07 1.61v2.26c0 .96.79 1.75 1.75 1.75h16.5c.96 0 1.75-.79 1.75-1.75v-2.26c0-.71-.42-1.34-1.07-1.61a1.505 1.505 0 0 1 0-2.78c.65-.27 1.07-.9 1.07-1.61V6.75C22 5.79 21.21 5 20.25 5M20 8.84c-1.22.58-2 1.8-2 3.16s.78 2.58 2 3.16V17H4v-1.84c1.22-.58 2-1.8 2-3.16s-.78-2.58-2-3.16V7h16z"/><path d="M10.22 12.46c.08.08.11.2.08.31l-.52 1.68c-.09.28.23.51.47.35l1.58-1.06c.1-.07.24-.07.34 0l1.58 1.06c.24.16.55-.07.47-.35l-.52-1.68c-.03-.11 0-.23.08-.31l1.26-1.26a.31.31 0 0 0-.19-.53l-1.56-.13c-.11 0-.2-.07-.25-.17l-.76-1.55c-.11-.23-.44-.23-.56 0l-.76 1.55c-.05.1-.14.16-.25.17l-1.56.13a.31.31 0 0 0-.19.53z"/></svg>