<svg xmlns="http://www.w3.org/2000/svg" width="24" height="24" viewBox="0 0 24 24"><path d="M14.12 11.54c.2.2.45.29.71.29s.51-.1.71-.29c2.02-2.02 2.02-5.06 0-7.07a.996.996 0 1 0-1.41 1.41c1.23 1.23 1.23 3.01 0 4.24a.996.996 0 0 0 0 1.41Z"/><path d="M17.66 14.66c.26 0 .51-.1.71-.29 1.76-1.76 2.74-4.02 2.74-6.36s-.97-4.6-2.74-6.36a.996.996 0 1 0-1.41 1.41c1.39 1.39 2.15 3.14 2.15 4.95s-.76 3.56-2.15 4.95a.996.996 0 0 0 .71 1.7ZM4 8c0 2.28 1.72 4 4 4s4-1.72 4-4-1.72-4-4-4-4 1.72-4 4m6 0c0 1.18-.82 2-2 2s-2-.82-2-2 .82-2 2-2 2 .82 2 2M4 20h8c1.1 0 2-.9 2-2 0-2.76-2.24-5-5-5H7c-2.76 0-5 2.24-5 5 0 1.1.9 2 2 2m3-5h2c1.65 0 3 1.35 3 3H4c0-1.65 1.35-3 3-3"/></svg>