<svg xmlns="http://www.w3.org/2000/svg" viewBox="0 0 24 24" width="24" height="24"><path d="m12,2c-4.74,0-8.86,3.36-9.8,8-.15.74.04,1.5.52,2.08.48.59,1.19.92,1.94.92h6.34v5.88c0,1.45.98,2.78,2.4,3.06,1.92.37,3.6-1.09,3.6-2.94v-1c0-.55-.45-1-1-1s-1,.45-1,1v1c0,.55-.45,1-1,1s-1-.45-1-1v-6h6.34c.75,0,1.46-.34,1.94-.92.48-.58.67-1.34.52-2.08-.94-4.63-5.06-8-9.8-8Zm7.73,8.81c-.06.07-.18.19-.39.19H4.66c-.21,0-.33-.12-.39-.19-.06-.07-.15-.21-.1-.42.75-3.71,4.05-6.4,7.84-6.4s7.09,2.69,7.84,6.4c.04.2-.05.35-.1.42Z"/></svg>