<svg xmlns="http://www.w3.org/2000/svg" width="24" height="24" viewBox="0 0 24 24"><path d="M20.58 13.17c.26-.49.42-1.05.42-1.67 0-2-1.5-3.5-3.5-3.5S14 9.5 14 11.5s1.5 3.5 3.5 3.5c.62 0 1.18-.16 1.67-.42L20.59 16A.996.996 0 1 0 22 14.59zM17.5 13c-.88 0-1.5-.62-1.5-1.5s.62-1.5 1.5-1.5 1.5.62 1.5 1.5-.62 1.5-1.5 1.5M4 8c0 2.28 1.72 4 4 4s4-1.72 4-4-1.72-4-4-4-4 1.72-4 4m6 0c0 1.18-.82 2-2 2s-2-.82-2-2 .82-2 2-2 2 .82 2 2M4 20h8c1.1 0 2-.9 2-2 0-2.76-2.24-5-5-5H7c-2.76 0-5 2.24-5 5 0 1.1.9 2 2 2m3-5h2c1.65 0 3 1.35 3 3H4c0-1.65 1.35-3 3-3"/></svg>