<svg xmlns="http://www.w3.org/2000/svg" viewBox="0 0 24 24" width="24" height="24"><path d="m13,17c-.55,0-1,.45-1,1v.13l-4.07-2.71c-.05-.04-.11-.07-.15-.09-.06-.03-.11-.06-.17-.09-.05-.02-.1-.05-.18-.08l-.35-.1c-.06-.01-.12-.02-.16-.03-.06,0-.13-.02-.19-.02-.06,0-.13,0-.19,0h-2.05s-.07,0-.1,0c-.03,0-.07-.02-.1-.03-.03-.01-.06-.03-.16-.1,0,0-.11-.16-.11-.16-.01-.03-.02-.06-.03-.1,0-.03,0-.07,0-.1v-5s0-.07,0-.1c0-.03.02-.07.07-.18l.06-.08s.05-.04.08-.06c.46-.31.57-.94.26-1.39-.31-.45-.94-.57-1.39-.26-.13.09-.25.19-.36.3-.11.11-.22.24-.31.37-.09.13-.17.28-.23.43-.06.15-.11.3-.14.47-.03.16-.05.33-.05.5v5c0,.17.02.34.05.5.03.16.08.32.15.47.06.15.14.29.23.42.09.14.19.26.3.37.11.12.24.22.37.31.13.09.27.17.42.23.15.06.3.11.48.15.16.03.33.05.5.05h2.08s.11.02.11.02l4.97,3.29c.12.08.25.15.4.19.13.04.27.06.41.07h.03c.11,0,.23-.01.35-.04.13-.03.25-.08.37-.14.11-.06.21-.13.32-.23.1-.09.18-.19.24-.29.07-.12.13-.24.17-.38.04-.13.06-.28.06-.42v-1.07c0-.55-.45-1-1-1Z"/><path d="m20.79,16.77c.15-.28.29-.58.42-.88.13-.3.24-.61.34-.92.1-.31.18-.63.25-.96.07-.33.12-.66.15-.99.03-.34.05-.68.05-1.02s-.02-.68-.05-1.02c-.03-.34-.09-.67-.15-.99-.07-.33-.15-.65-.25-.96-.1-.31-.21-.62-.34-.92-.13-.3-.27-.59-.42-.87-.15-.28-.32-.56-.5-.83-.18-.27-.37-.52-.58-.77-.2-.25-.42-.48-.65-.71-.23-.23-.46-.44-.71-.64-.25-.2-.5-.4-.77-.58-.27-.18-.54-.35-.82-.5-.49-.26-1.09-.09-1.36.4-.26.48-.08,1.09.4,1.36.23.12.45.26.66.4.21.14.42.3.62.46.2.16.39.33.57.51.18.18.35.37.52.57.16.2.32.4.46.61.14.21.28.43.4.66.12.23.24.46.34.7.1.24.19.48.27.73.08.25.14.51.2.77.05.26.09.53.12.8.03.27.04.54.04.82s-.01.55-.04.82c-.03.27-.07.54-.12.79-.05.26-.12.52-.2.77-.08.25-.17.5-.27.73-.1.24-.21.47-.34.7-.12.23-.26.45-.4.66-.1.15-.21.29-.32.43l-1.58-1.58c.22-.08.42-.23.54-.46.09-.17.18-.35.25-.52.08-.18.14-.36.2-.56.06-.19.11-.38.15-.57.04-.2.07-.39.09-.59.02-.2.03-.41.03-.61s-.01-.41-.03-.61c-.02-.2-.05-.4-.09-.6-.04-.19-.09-.39-.15-.58-.06-.19-.13-.37-.2-.55-.08-.18-.16-.36-.25-.53-.26-.48-.87-.66-1.36-.4-.48.26-.66.87-.4,1.36.06.11.12.23.17.35.05.12.1.24.13.36.04.13.07.26.1.38.03.13.05.26.06.4.01.13.02.27.02.41s0,.28-.02.41c-.01.13-.03.27-.06.4-.03.13-.06.26-.1.38-.04.12-.08.25-.14.37-.05.12-.11.24-.17.35-.03.05-.03.1-.05.15l-1.47-1.47v-7.65c0-.14-.02-.28-.06-.42-.04-.13-.1-.26-.16-.37-.07-.11-.15-.21-.26-.32-.09-.08-.2-.16-.3-.22-.12-.06-.24-.11-.37-.14-.12-.03-.25-.04-.38-.04-.14,0-.27.03-.41.07-.14.04-.27.11-.39.19l-3.94,2.63L3.71,2.29c-.39-.39-1.02-.39-1.41,0s-.39,1.02,0,1.41l10,10h0s5.36,5.36,5.36,5.36c0,0,0,0,0,0s0,0,0,0l2.63,2.63c.2.2.45.29.71.29s.51-.1.71-.29c.39-.39.39-1.02,0-1.41l-1.97-1.97c.19-.24.38-.48.55-.74.18-.27.35-.54.5-.82Zm-8.79-6.18l-2.83-2.83,2.83-1.89v4.72Z"/></svg>