<svg xmlns="http://www.w3.org/2000/svg" width="24" height="24" viewBox="0 0 24 24"><path d="M12 21c1.1 0 2-.9 2-2s-.9-2-2-2-2 .9-2 2a2 2 0 0 0 2 2M8.89 13.68c-.12.05-.24.1-.35.16-.12.06-.23.12-.35.18-.11.06-.22.12-.33.19s-.22.13-.33.21c-.1.07-.21.14-.31.22l-.3.24a1 1 0 0 0-.14 1.41c.2.24.48.36.77.36.22 0 .45-.08.64-.23.07-.06.15-.12.22-.18.08-.06.16-.12.24-.17s.16-.11.25-.16.17-.1.25-.15.17-.09.26-.13l.27-.12c.51-.21.75-.8.53-1.31a.99.99 0 0 0-1.31-.53ZM5.78 10.79c-.17.1-.33.21-.49.31-.16.11-.32.22-.47.33q-.225.165-.45.36a1 1 0 0 0-.14 1.41c.2.24.48.36.77.36.22 0 .45-.08.64-.23.12-.1.25-.2.38-.3s.26-.19.39-.28.27-.18.41-.26c.47-.29.62-.9.34-1.37-.29-.47-.9-.62-1.37-.34ZM3.1 10.2c.17-.14.35-.28.53-.42.18-.13.36-.26.55-.39.46-.31.58-.93.27-1.39a1 1 0 0 0-1.39-.27q-.315.21-.63.45c-.21.15-.41.31-.61.48a1 1 0 0 0 .64 1.77c.22 0 .45-.08.64-.23M21.58 8.18l-.63-.45c-.21-.14-.43-.28-.65-.42-.22-.13-.44-.26-.67-.38s-.46-.24-.69-.35-.47-.22-.71-.32-.48-.2-.73-.29-.5-.17-.74-.25c-.25-.08-.5-.15-.76-.21q-.39-.105-.78-.18c-.26-.05-.52-.1-.79-.14-.26-.04-.53-.07-.8-.1q-.405-.045-.81-.06c-.54-.03-1.1-.03-1.64 0-.27.01-.54.03-.82.06-.27.03-.53.06-.8.1s-.53.09-.79.14-.52.11-.77.18c-.26.07-.51.14-.76.21-.03 0-.06.02-.08.03L3.71 2.3A.996.996 0 1 0 2.3 3.71l18 18c.2.2.45.29.71.29s.51-.1.71-.29a.996.996 0 0 0 0-1.41l-4.32-4.32c.13-.38.03-.82-.3-1.1-.1-.08-.2-.16-.31-.24-.1-.07-.2-.15-.31-.22s-.21-.14-.32-.21-.22-.13-.33-.19-.23-.12-.35-.18a5 5 0 0 0-.35-.16c-.01 0-.03-.01-.04-.02l-2.6-2.6h.04c.17 0 .34.02.51.04l.5.06c.17.03.33.06.49.09s.33.07.49.11.32.09.47.13c.16.05.31.1.47.16l.45.18c.15.06.3.13.45.2s.29.14.43.22l.42.24c.14.08.27.17.41.26.13.09.26.18.39.28s.25.2.38.3c.19.15.41.23.64.23.29 0 .57-.12.77-.36a1 1 0 0 0-.14-1.41l-.45-.36c-.15-.12-.31-.23-.47-.33-.16-.11-.32-.21-.49-.31-.16-.1-.33-.2-.5-.29s-.34-.18-.52-.27c-.17-.08-.35-.16-.53-.24q-.27-.12-.54-.21c-.18-.07-.37-.13-.56-.19s-.38-.11-.57-.16a10 10 0 0 0-.58-.13c-.19-.04-.39-.07-.59-.11-.2-.03-.39-.05-.6-.08-.2-.02-.4-.04-.61-.05-.41-.02-.83-.02-1.24 0-.2.01-.41.03-.61.05-.07 0-.14.02-.22.03L8.81 7.37l.39-.09q.345-.075.69-.12c.23-.04.47-.06.7-.09.24-.02.47-.04.71-.05.48-.02.97-.02 1.44 0 .24.01.48.03.71.05.24.03.47.05.7.09l.69.12a17 17 0 0 1 1.35.35c.22.07.43.14.65.22.21.08.43.16.64.25s.42.18.62.28.41.2.6.31c.2.11.39.22.59.34l.57.36c.19.12.37.25.55.39.18.13.35.27.53.41.19.15.41.23.64.23.29 0 .57-.12.77-.36.35-.42.29-1.06-.13-1.41-.2-.16-.4-.32-.6-.47Z"/></svg>