<svg xmlns="http://www.w3.org/2000/svg" viewBox="0 0 24 24" width="24" height="24"><path d="m19.5,2H4.5c-.83,0-1.5.67-1.5,1.5v3.23c0,4.74,3.48,8.7,8,9.21v4.07h-2c-.55,0-1,.45-1,1s.45,1,1,1h6c.55,0,1-.45,1-1s-.45-1-1-1h-2v-4.06c1.92-.21,3.71-1.02,5.15-2.37,1.81-1.7,2.85-4.09,2.85-6.57v-3.5c0-.83-.67-1.5-1.5-1.5Zm-14.5,2h14v2.67c-2.41-1.09-5.29-.91-7.53.48-1.7,1.06-3.89,1.18-5.72.33l-.73-.34c0-.14-.02-.27-.02-.41v-2.73Zm11.79,8.11c-1.43,1.34-3.28,2.01-5.25,1.88-2.71-.18-4.98-1.96-5.98-4.43.89.32,1.82.49,2.75.49,1.48,0,2.96-.4,4.23-1.19,1.7-1.06,3.89-1.19,5.72-.33l.52.24c-.33,1.27-1,2.42-1.98,3.35Z"/></svg>