<svg xmlns="http://www.w3.org/2000/svg" width="24" height="24" viewBox="0 0 24 24"><path d="M12 21c1.1 0 2-.9 2-2s-.9-2-2-2-2 .9-2 2a2 2 0 0 0 2 2M17.09 14.93l-.3-.24c-.1-.08-.21-.15-.31-.22l-.33-.21c-.11-.07-.22-.13-.33-.19s-.23-.12-.35-.18a5 5 0 0 0-.35-.16c-.12-.05-.24-.1-.37-.15-.12-.04-.24-.09-.37-.12-.12-.04-.25-.07-.38-.11l-.38-.09a5 5 0 0 0-.4-.07c-.13-.02-.26-.04-.4-.05l-.41-.03c-.27-.01-.55-.01-.82 0-.14 0-.27.02-.41.03-.13.01-.26.03-.39.05s-.27.04-.4.07l-.39.09c-.13.03-.25.07-.38.11-.12.04-.25.08-.38.13-.12.05-.24.09-.36.14s-.24.1-.36.16-.23.12-.34.17c-.11.06-.22.12-.34.19a9 9 0 0 0-.32.21c-.11.07-.21.15-.31.22-.1.08-.21.16-.31.24a1 1 0 0 0-.14 1.41c.35.43.98.49 1.41.13.07-.06.15-.12.23-.18s.15-.11.24-.17c.08-.05.16-.11.24-.15.08-.05.17-.1.26-.15.08-.05.17-.09.25-.13l.27-.12c.09-.04.18-.07.26-.11.09-.03.19-.06.28-.09.1-.03.19-.06.28-.08.1-.03.2-.05.29-.07.1-.02.19-.04.29-.05s.2-.03.3-.04c.1 0 .2-.02.31-.02h.62c.1 0 .2.01.3.02s.21.02.31.04.2.03.29.05c.1.02.2.04.29.07.1.03.19.05.29.08.09.03.19.06.27.09.09.03.18.07.28.11.09.04.18.08.26.12.09.04.17.09.26.14.08.05.17.09.25.14s.16.1.25.16c.08.05.16.11.24.17s.15.11.22.17c.19.15.41.23.64.23.29 0 .57-.12.77-.36a1 1 0 0 0-.14-1.41Z"/><path d="M4.23 13.2a1 1 0 0 0 1.41.14c.12-.1.25-.2.38-.3s.26-.19.39-.28.27-.18.41-.26l.42-.24c.14-.08.28-.15.43-.22s.3-.14.44-.2l.45-.18c.15-.06.31-.11.47-.16s.31-.09.47-.13.32-.08.48-.11l.49-.09c.17-.03.34-.05.5-.06.17-.02.34-.03.51-.04.34-.02.69-.02 1.03 0 .17 0 .34.02.51.04l.5.06c.17.03.33.06.49.09s.33.07.49.11.32.09.47.13c.16.05.31.1.47.16l.45.18c.15.06.3.13.45.2s.29.14.43.22l.42.24c.14.08.27.17.41.26.13.09.26.18.39.28s.25.2.38.3c.19.15.41.23.64.23.29 0 .57-.12.77-.36a1 1 0 0 0-.14-1.41l-.45-.36c-.15-.12-.31-.23-.47-.33-.16-.11-.32-.21-.49-.31-.16-.1-.33-.2-.5-.29s-.34-.18-.52-.27c-.17-.08-.35-.16-.53-.24q-.27-.12-.54-.21c-.18-.07-.37-.13-.56-.19s-.38-.11-.57-.16a10 10 0 0 0-.58-.13c-.19-.04-.39-.07-.59-.11-.2-.03-.39-.05-.6-.08-.2-.02-.4-.04-.61-.05-.41-.02-.83-.02-1.24 0-.2.01-.41.03-.61.05s-.4.05-.6.08-.39.07-.59.11c-.19.04-.39.08-.58.13s-.38.1-.57.16-.37.12-.56.19c-.18.07-.37.14-.55.22s-.35.16-.53.24-.35.17-.52.27c-.17.09-.34.19-.5.29-.17.1-.33.21-.49.31-.16.11-.32.22-.47.33q-.225.165-.45.36a1 1 0 0 0-.14 1.41Z"/></svg>