<svg xmlns="http://www.w3.org/2000/svg" width="24" height="24" viewBox="0 0 24 24"><path d="M12 17a2 2 0 1 0-.001 4.001A2 2 0 0 0 12 17M14.34 15.52l.27.12c.09.04.17.08.25.13.09.05.17.1.26.15.08.05.17.1.24.15.08.06.16.11.24.17s.15.12.23.18c.19.15.41.23.64.23.29 0 .57-.12.77-.36a1 1 0 0 0-.14-1.41c-.1-.08-.2-.16-.31-.24-.1-.07-.2-.15-.31-.22s-.21-.14-.32-.21-.22-.13-.33-.19-.23-.12-.35-.18a5 5 0 0 0-.35-.16c-.12-.05-.25-.1-.37-.15s-.25-.09-.37-.12c-.13-.04-.25-.08-.38-.11l-.39-.09a5 5 0 0 0-.4-.07 6 6 0 0 0-.4-.05l-.4-.03c-.28-.02-.57-.01-.83 0-.14 0-.27.02-.41.03-.13.01-.27.03-.4.05s-.27.04-.4.07-.26.06-.38.09c-.13.03-.26.07-.38.11-.13.04-.25.08-.38.13-.13.04-.25.09-.36.14-.12.05-.24.1-.35.16-.12.06-.23.12-.35.18-.11.06-.22.12-.33.19s-.22.13-.33.21c-.1.07-.21.14-.31.22l-.3.24a1 1 0 0 0-.14 1.41c.35.43.98.49 1.41.13.07-.06.15-.12.22-.18.08-.06.16-.12.24-.17s.16-.11.25-.16.17-.1.25-.15.17-.09.26-.13l.27-.12c.09-.04.18-.07.26-.11.09-.03.18-.06.28-.09.09-.03.19-.06.29-.08.09-.03.19-.05.29-.07s.19-.04.29-.05.2-.03.3-.04c.1 0 .2-.02.31-.02.2-.01.4-.01.61 0 .1 0 .2.01.31.02.1 0 .2.02.3.04s.2.03.29.05c.1.02.19.04.29.07.09.02.19.05.29.08l.27.09c.09.03.18.07.27.11Z"/><path d="M17.98 13.04c.13.1.25.2.38.3.19.15.41.23.64.23.29 0 .57-.12.77-.36a1 1 0 0 0-.14-1.41l-.45-.36c-.15-.11-.31-.23-.47-.33-.16-.11-.32-.21-.49-.31-.16-.1-.33-.2-.5-.29s-.34-.18-.52-.27c-.17-.08-.35-.16-.53-.24q-.27-.12-.54-.21c-.18-.07-.37-.13-.56-.19s-.38-.11-.57-.16-.39-.09-.58-.13c-.2-.04-.39-.07-.59-.1a12 12 0 0 0-1.21-.13c-.41-.02-.83-.02-1.23 0-.21 0-.41.03-.61.05s-.4.05-.6.08-.4.07-.59.1c-.2.04-.39.08-.58.13s-.38.1-.57.16-.38.12-.56.19-.37.14-.55.22-.36.16-.53.24c-.18.08-.35.17-.52.27-.17.09-.34.19-.5.29-.17.1-.33.2-.49.31s-.31.22-.47.33q-.225.165-.45.36a1 1 0 0 0-.14 1.41 1 1 0 0 0 1.41.14c.12-.1.25-.2.38-.3s.26-.19.39-.28.27-.18.41-.26l.42-.24c.14-.08.28-.15.43-.22s.29-.14.44-.2l.45-.18c.15-.06.31-.11.46-.16.16-.05.31-.09.48-.14.16-.04.32-.08.48-.11l.49-.09c.17-.03.33-.05.5-.06.17-.02.34-.03.51-.04.34-.02.68-.02 1.03 0 .17 0 .34.02.51.04l.5.06c.17.03.33.05.49.09.16.03.32.07.48.11s.32.09.47.13c.16.05.31.1.47.16.15.06.3.11.45.18.15.06.3.13.44.2.15.07.29.14.43.22l.42.24c.14.08.27.17.4.26s.27.18.39.28Z"/><path d="M3.1 10.2c.17-.14.35-.28.53-.42.18-.13.36-.26.55-.39s.37-.25.57-.36c.19-.12.39-.23.59-.34s.4-.21.6-.31.41-.19.62-.28.42-.17.64-.25c.21-.08.43-.15.65-.22s.44-.13.66-.19.45-.11.68-.16q.345-.075.69-.12c.23-.04.46-.06.7-.09.24-.02.47-.04.71-.05q.72-.03 1.44 0c.24.01.48.03.71.05s.47.05.7.09l.69.12c.23.05.45.1.68.16.22.06.45.12.66.19.22.07.44.14.65.22s.43.16.63.25c.21.09.42.18.62.28s.4.2.6.31.39.22.59.34l.57.36c.19.13.37.25.55.39.18.13.36.27.53.42.19.15.41.23.64.23.29 0 .57-.12.77-.36.35-.43.29-1.06-.13-1.41-.2-.16-.4-.32-.6-.47l-.63-.45c-.21-.14-.43-.28-.65-.42-.22-.13-.44-.26-.67-.39-.23-.12-.46-.24-.69-.35s-.47-.22-.71-.32-.48-.2-.73-.29a16.848 16.848 0 0 0-1.5-.47c-.26-.07-.51-.13-.77-.18s-.52-.1-.79-.14-.53-.07-.8-.1q-.405-.045-.81-.06-.825-.045-1.65 0-.405.015-.81.06c-.27.03-.54.06-.8.1-.27.04-.53.09-.79.14s-.52.11-.77.18c-.26.07-.51.14-.76.22s-.5.16-.74.25c-.25.09-.49.19-.73.29s-.48.21-.71.32-.46.23-.69.35-.45.25-.67.39c-.22.13-.44.27-.65.42q-.315.21-.63.45c-.21.15-.41.31-.6.47a.99.99 0 0 0-.13 1.41c.35.43.98.49 1.41.13Z"/></svg>