<svg xmlns="http://www.w3.org/2000/svg" width="24" height="24" viewBox="0 0 24 24"><path d="M8.5 9a1.5 1.5 0 1 0 0 3 1.5 1.5 0 1 0 0-3M15.5 10c-1.17 0-1.83.68-2.17 1.25-.2.33.05.75.44.75h3.47c.38 0 .63-.42.44-.75-.34-.57-1-1.25-2.17-1.25Z"/><path d="M12 2C6.49 2 2 6.49 2 12s4.49 10 10 10 10-4.49 10-10S17.51 2 12 2m0 18c-4.41 0-8-3.59-8-8s3.59-8 8-8 8 3.59 8 8-3.59 8-8 8"/><path d="M15.32 14.24c-.14.21-.31.41-.49.59a3.94 3.94 0 0 1-2.02 1.09 4.053 4.053 0 0 1-2.37-.23 3.935 3.935 0 0 1-1.27-.86c-.18-.18-.34-.38-.49-.59a1 1 0 0 0-1.39-.27c-.46.31-.58.93-.27 1.39.22.32.46.62.73.88.27.27.57.52.89.73s.66.4 1.02.55.74.27 1.13.35a6.1 6.1 0 0 0 2.42 0c.38-.08.76-.2 1.13-.35.36-.15.7-.34 1.02-.55s.62-.46.89-.73.52-.57.73-.89a1 1 0 0 0-.27-1.39 1 1 0 0 0-1.39.27Z"/></svg>