<svg xmlns="http://www.w3.org/2000/svg" width="24" height="24" viewBox="0 0 24 24"><path d="M11.67 21.99h.34c2.08 0 4.03-.78 5.54-2.23a7.9 7.9 0 0 0 2.46-5.77c0-6.44-5.39-10.49-7.04-11.58a1.74 1.74 0 0 0-1.92 0c-1.4.92-6.04 4.35-6.9 9.8-.39 2.48.28 5 1.84 6.91 1.44 1.76 3.46 2.78 5.68 2.87m4.49-3.66c-1.19 1.14-2.76 1.72-4.41 1.67-1.65-.07-3.14-.83-4.22-2.14-.93-1.13-1.44-2.55-1.49-4.01l.33-.19a4.8 4.8 0 0 1 5.08.17c1.15.77 2.47 1.15 3.79 1.15.93 0 1.87-.2 2.75-.59-.1 1.5-.73 2.88-1.83 3.93ZM12.01 4.19c1.39.94 5 3.76 5.83 8.05l-.19.11c-1.6.91-3.55.85-5.08-.17a6.78 6.78 0 0 0-6.2-.7c1.08-3.87 4.38-6.43 5.64-7.28Z"/></svg>