<svg xmlns="http://www.w3.org/2000/svg" viewBox="0 0 24 24" width="24" height="24"><path d="m8.85,2.03c-.9-.07-1.77.56-2.02,1.46L2.27,19.88c-.14.52,0,1.08.38,1.46.29.29.67.44,1.06.44.13,0,.27-.02.4-.05l16.39-4.55c.9-.25,1.52-1.1,1.46-2.02-.42-7.06-6.07-12.71-13.13-13.13Zm-1.23,6.01c4.46.31,8.03,3.87,8.35,8.33l-11.53,3.2,3.18-11.53Zm10.31,7.78c-.55-5.13-4.64-9.21-9.77-9.75l.56-2.04c6.04.36,10.88,5.19,11.25,11.23l-2.04.57Z"/><path d="M9 10A1 1 0 1 0 9 12 1 1 0 1 0 9 10z"/><path d="M12 12A1 1 0 1 0 12 14 1 1 0 1 0 12 12z"/><path d="M11 15A1 1 0 1 0 11 17 1 1 0 1 0 11 15z"/><path d="M8 13A1 1 0 1 0 8 15 1 1 0 1 0 8 13z"/><path d="M7 16A1 1 0 1 0 7 18 1 1 0 1 0 7 16z"/></svg>