<svg xmlns="http://www.w3.org/2000/svg" viewBox="0 0 24 24" width="24" height="24"><path d="m16,4.14v-.64c0-.83-.67-1.5-1.5-1.5h-5c-.83,0-1.5.67-1.5,1.5v.64c-1.72.45-3,2-3,3.86v8c0,1.86,1.28,3.41,3,3.86v.64c0,.83.67,1.5,1.5,1.5h5c.83,0,1.5-.67,1.5-1.5v-.64c1.72-.45,3-2,3-3.86v-8c0-1.86-1.28-3.41-3-3.86Zm1,11.86c0,1.1-.9,2-2,2h-6c-1.1,0-2-.9-2-2v-8c0-1.1.9-2,2-2h6c1.1,0,2,.9,2,2v8Z"/><path d="m13,11.59v-2.59c0-.55-.45-1-1-1s-1,.45-1,1v3c0,.27.11.52.29.71l2,2c.2.2.45.29.71.29s.51-.1.71-.29c.39-.39.39-1.02,0-1.41l-1.71-1.71Z"/></svg>