<svg xmlns="http://www.w3.org/2000/svg" viewBox="0 0 24 24" width="24" height="24"><path d="m19,7h-2v-2.54c0-.66-.32-1.27-.87-1.65-.54-.37-1.23-.45-1.85-.22L3.92,6.57c-1.15.44-1.92,1.57-1.92,2.8v9.63c0,1.65,1.35,3,3,3h14c1.65,0,3-1.35,3-3v-9c0-1.65-1.35-3-3-3Zm-4-2.54v2.54h-6.61l6.61-2.54Zm5,11.54h-3.5c-.83,0-1.5-.67-1.5-1.5s.67-1.5,1.5-1.5h3.5v3Zm-3.5-5c-1.93,0-3.5,1.57-3.5,3.5s1.57,3.5,3.5,3.5h3.5v1c0,.55-.45,1-1,1H5c-.55,0-1-.45-1-1v-9.63c0-.13.03-.26.07-.37h14.93c.55,0,1,.45,1,1v1h-3.5Z"/></svg>