<svg xmlns="http://www.w3.org/2000/svg" viewBox="0 0 24 24" width="24" height="24"><path d="m12,1c-2.94,0-5.7,1.14-7.78,3.22-2.08,2.08-3.22,4.84-3.22,7.78s1.14,5.7,3.22,7.78c2.08,2.08,4.84,3.22,7.78,3.22v-3c-2.14,0-4.15-.83-5.66-2.34-1.51-1.51-2.34-3.52-2.34-5.66s.83-4.15,2.34-5.66c1.51-1.51,3.52-2.34,5.66-2.34s4.15.83,5.66,2.34c1.51,1.51,2.34,3.52,2.34,5.66h3c0-2.94-1.14-5.7-3.22-7.78-2.08-2.08-4.84-3.22-7.78-3.22Z"/><path d="M8 8 8 16 10.94 13.06 17.94 20.06 20.06 17.94 13.06 10.94 16 8 8 8z"/></svg>