<svg xmlns="http://www.w3.org/2000/svg" width="24" height="24" viewBox="0 0 24 24"><path d="M20.65 8.11a3.847 3.847 0 0 0-3.33-4.89A3.31 3.31 0 0 0 14.2 1h-.02c-.81 0-1.43.72-1.43 1.53v18.89c0 .68.44 1.3 1.09 1.47a3.844 3.844 0 0 0 4.42-2.16 4.403 4.403 0 0 0 3.45-5.61C22.53 14.3 23 13.19 23 12c0-1.66-.95-3.14-2.35-3.89M1 12c0 1.18.47 2.29 1.29 3.12-.12.41-.19.85-.19 1.28 0 2.15 1.55 3.95 3.64 4.33A3.87 3.87 0 0 0 9.25 23c.31 0 .62-.04.91-.11.66-.17 1.09-.79 1.09-1.47V2.53c0-.81-.63-1.52-1.43-1.53H9.8c-1.43 0-2.65.91-3.11 2.22a3.848 3.848 0 0 0-3.34 4.89C1.95 8.86 1 10.34 1 12"/></svg>