<svg xmlns="http://www.w3.org/2000/svg" width="24" height="24" viewBox="0 0 24 24"><path d="M14 10c0-1.1-.9-2-2-2s-2 .9-2 2c0 .74.41 1.38 1.01 1.73L10.25 23h3.5l-.76-11.27c.6-.35 1.01-.99 1.01-1.73M9.58 7.53 7.46 5.41A6.45 6.45 0 0 0 5.55 10c0 1.74.68 3.37 1.91 4.6l2.12-2.12a3.487 3.487 0 0 1 0-4.95M16.55 5.4l-2.12 2.12c.66.66 1.03 1.54 1.03 2.47s-.36 1.81-1.03 2.47l2.12 2.12c1.23-1.23 1.9-2.86 1.9-4.6s-.68-3.37-1.9-4.6Z"/><path d="M6.34 4.34 4.22 2.22C2.14 4.3 1 7.06 1 10s1.14 5.7 3.22 7.78l2.12-2.12C4.83 14.15 4 12.14 4 10s.83-4.15 2.34-5.66M19.78 2.22l-2.12 2.12C19.17 5.85 20 7.86 20 10s-.83 4.15-2.34 5.66l2.12 2.12C21.86 15.7 23 12.94 23 10s-1.14-5.7-3.22-7.78"/></svg>