<svg xmlns="http://www.w3.org/2000/svg" viewBox="0 0 24 24" width="24" height="24"><path d="M12 1c-.18 0-.36.02-.54.03 1.09 1.24 2.52 3.24 3.57 6.01.47.15.89.4 1.22.74l3.91-3.13C18.15 2.42 15.24 1 12 1M2.3 6.83c2.19-.6 5.64-.92 10.1.6q.45-.315.99-.45c-1.21-2.92-2.86-4.82-3.77-5.72-3.17.7-5.83 2.77-7.33 5.56ZM17 9.1c.07.24.11.48.11.74 1.24.79 3.76 2.55 5.51 4.96.24-.9.38-1.83.38-2.8 0-2.29-.7-4.42-1.91-6.18zM16.71 11.37c-.28.48-.68.87-1.16 1.13.14.9.74 5.65-.78 10.13 3.22-.84 5.86-3.09 7.23-6.06-1.39-2.37-3.87-4.26-5.28-5.2ZM1 12c0 2.74 1.02 5.25 2.68 7.18 1.9-4.37 6.22-7.51 7.58-8.42a2.9 2.9 0 0 1-.15-.88c0-.43.1-.84.26-1.21-4.82-1.5-8.22-.67-9.86-.01C1.17 9.71.99 10.84.99 12ZM13.05 22.95c1.68-4.12 1.19-8.91 1.03-10.07-.79 0-1.51-.33-2.04-.83-1.35.92-5.65 4.11-7.2 8.29a10.93 10.93 0 0 0 8.21 2.62Z"/></svg>