<svg xmlns="http://www.w3.org/2000/svg" viewBox="0 0 24 24" width="24" height="24"><path d="m23,13.5v-3h-2.14c-.23-1.36-.76-2.62-1.54-3.71l1.51-1.51-2.12-2.12-1.51,1.51c-1.08-.77-2.34-1.31-3.71-1.54V1h-3v2.14c-1.36.23-2.62.76-3.71,1.54l-1.51-1.51-2.12,2.12,1.51,1.51c-.77,1.08-1.31,2.34-1.54,3.71H1v3h2.14c.23,1.36.76,2.62,1.54,3.71l-1.51,1.51,2.12,2.12,1.51-1.51c1.08.77,2.34,1.31,3.71,1.54v2.14h3v-2.14c1.36-.23,2.62-.76,3.71-1.54l1.51,1.51,2.12-2.12-1.51-1.51c.77-1.08,1.31-2.34,1.54-3.71h2.14Zm-5.2-3h-2.18l1.54-1.54c.28.48.5.99.64,1.54Zm-2.76-3.66l-1.54,1.54v-2.18c.55.14,1.07.36,1.54.64Zm-4.54-.64v2.18l-1.54-1.54c.48-.28.99-.5,1.54-.64Zm-3.66,2.76l1.54,1.54h-2.18c.14-.55.36-1.07.64-1.54Zm-.64,4.54h2.18l-1.54,1.54c-.28-.48-.5-.99-.64-1.54Zm2.76,3.66l1.54-1.54v2.18c-.55-.14-1.07-.36-1.54-.64Zm4.54.64v-2.18l1.54,1.54c-.48.28-.99.5-1.54.64Zm3.66-2.76l-1.54-1.54h2.18c-.14.55-.36,1.07-.64,1.54Z"/></svg>