<svg xmlns="http://www.w3.org/2000/svg" viewBox="0 0 24 24" width="24" height="24"><path d="m7.74,14.4l.79-.22c1.25-.34,2.29-1.27,2.78-2.47.66-1.63,2.07-2.89,3.77-3.35l.79-.22c1.25-.34,2.29-1.27,2.77-2.47l.86-2.12L15.22.04l-1.54,3.79c-.31.76-.96,1.34-1.75,1.56l-.66.18c-1.68.46-3.08,1.71-3.74,3.33-.31.76-.96,1.34-1.75,1.56l-.66.18c-1.69.46-3.08,1.71-3.74,3.33l-1.18,2.92,3.09,2.55.68-1.68c.66-1.63,2.07-2.89,3.77-3.35Z"/><path d="m20.71,4.56l-.68,1.68c-.66,1.63-2.07,2.89-3.77,3.35l-.79.22c-1.25.34-2.29,1.27-2.78,2.47-.66,1.63-2.07,2.89-3.77,3.35l-.79.22c-1.25.34-2.29,1.27-2.77,2.47l-.86,2.12,4.27,3.52,1.54-3.79c.31-.76.96-1.34,1.75-1.56l.66-.18c1.69-.46,3.08-1.71,3.74-3.33.31-.76.96-1.34,1.75-1.56l.66-.18c1.69-.46,3.08-1.71,3.74-3.33l1.18-2.92-3.09-2.55Z"/></svg>