<svg xmlns="http://www.w3.org/2000/svg" viewBox="0 0 24 24" width="24" height="24"><path d="m6.5,19.37c1.47.37,3.09.58,4.71.63v-5.08c-1.69-.05-3.28-.25-4.71-.59v5.04Z"/><path d="m12.79,20c1.62-.05,3.25-.26,4.71-.63v-5.04c-1.43.33-3.02.54-4.71.59v5.08Z"/><path d="m19.07,13.89v4.99c2.31-.87,3.93-2.25,3.93-4.2v-2.86c-.95.84-2.31,1.54-3.93,2.08Z"/><path d="m1,14.68c0,1.95,1.62,3.33,3.93,4.2v-4.99c-1.62-.53-2.98-1.24-3.93-2.08v2.86Z"/><path d="m22.97,9.04c-.31-3.45-5.82-5.04-10.97-5.04S1.34,5.58,1.03,9.04c.31,2.08,4.72,4.31,10.97,4.31s10.66-2.22,10.97-4.31Z"/></svg>