<svg xmlns="http://www.w3.org/2000/svg" viewBox="0 0 24 24" width="24" height="24"><path d="m11.5,1C6.41,1,1,4.33,1,10.5c0,2.97.98,5.33,3,7.19v5.31h11v-2h5v-5h2.96l-1.97-6.21c-.12-4.87-4.33-8.79-9.5-8.79Zm-.35,16c-1.6,0-3.11-.62-4.24-1.76-1.13-1.13-1.76-2.64-1.76-4.24s.62-3.11,1.76-4.24c1.13-1.13,2.64-1.76,4.24-1.76,1.93,0,3.5,1.57,3.5,3.5s-1.59,3.5-3.54,3.5h-1.18v-2h1.18c.84,0,1.54-.69,1.54-1.5s-.67-1.5-1.5-1.5c-1.07,0-2.07.42-2.83,1.17-.76.76-1.17,1.76-1.17,2.83s.42,2.07,1.17,2.83c1.51,1.51,4.15,1.51,5.66,0l1.41,1.41c-1.13,1.13-2.64,1.76-4.24,1.76Z"/></svg>