<svg xmlns="http://www.w3.org/2000/svg" viewBox="0 0 24 24" width="24" height="24"><path d="M19.22 3.72A10.94 10.94 0 0 0 12 1C5.93 1 1 5.93 1 12c0 2.76 1.03 5.28 2.72 7.22zm-2.96-.51.53.53-1.71 1.71-.53-.53zm-2.73 2.74.53.53-1.71 1.71-.53-.53zm-2.74 2.74.53.53-1.71 1.71-.53-.53zm-2.74 2.74.53.53-1.71 1.71-.53-.53zm-2.73 2.74.53.53-1.71 1.71-.53-.53zM12 23c6.07 0 11-4.93 11-11 0-2.76-1.03-5.28-2.72-7.22l-15.5 15.5C6.71 21.97 9.24 23 12 23m8.08-15.62.53.53-1.71 1.71-.53-.53zm-2.74 2.74.53.53-1.71 1.71-.53-.53zm-2.74 2.74.53.53-1.71 1.71-.53-.53zm-2.74 2.74.53.53-1.71 1.71-.53-.53zm-2.21 3.27-1.71 1.71-.53-.53 1.71-1.71z"/></svg>