<svg xmlns="http://www.w3.org/2000/svg" viewBox="0 0 24 24" width="24" height="24"><path d="m19.85,8.09c.1-.35.15-.71.15-1.09,0-2.21-1.79-4-4-4-1.73,0-3.46-.41-5.01-1.18l-2.03-1.02-2.79,1.59c-1.34.76-2.17,2.19-2.17,3.73,0,.68.14,1.33.39,1.92-1.92.29-3.39,1.95-3.39,3.95,0,1.58.93,2.94,2.26,3.59l2.27,7.41h12.93l2.27-7.41c1.33-.65,2.26-2.01,2.26-3.59,0-1.91-1.35-3.52-3.15-3.91Zm-14.85,2.91h6v-3h-2.12c-1.04,0-1.88-.84-1.88-1.88,0-.46.25-.9.65-1.13l1.39-.8.6.3c1.96.98,4.16,1.5,6.35,1.5h-1c.55,0,1,.45,1,1s-.45,1-1,1v3h2c.55,0,1,.45,1,1s-.45,1-1,1H5c-.55,0-1-.45-1-1s.45-1,1-1Z"/></svg>