<svg xmlns="http://www.w3.org/2000/svg" viewBox="0 0 24 24" width="24" height="24"><path d="m22.97,10.72l.32-2.03-2.03.32c-1.93.3-3.66,1.01-5.13,2.02,0-3.06-.96-6.12-2.9-8.85l-1.22-1.71-1.22,1.71c-1.94,2.73-2.91,5.79-2.9,8.85-1.47-1.02-3.2-1.72-5.13-2.02l-2.03-.32.32,2.03c.53,3.4,2.26,6.19,4.82,8-.61.14-1.2.35-1.76.63l-1.81.9,1.81.9c1.16.57,2.42.86,3.69.86,1.19,0,2.38-.26,3.47-.76v1.76h1.5v-1.76c1.1.5,2.28.76,3.47.76,1.27,0,2.54-.29,3.69-.86l1.81-.9-1.81-.9c-.56-.28-1.16-.49-1.76-.63,2.56-1.81,4.29-4.6,4.82-8Z"/></svg>