<svg xmlns="http://www.w3.org/2000/svg" viewBox="0 0 24 24" width="24" height="24"><path class="b" d="M4 1 1 1 1 23 23 23 23 20 4 20 4 1z"/><path class="b" d="m20,1c-1.65,0-3,1.35-3,3,0,.92.42,1.73,1.07,2.28l-.81,2.82c-.33.08-.65.22-.92.4l-2.4-2c.03-.17.05-.33.05-.51,0-1.65-1.35-3-3-3s-3,1.35-3,3c0,.92.42,1.73,1.07,2.28l-.81,2.82c-1.3.33-2.27,1.5-2.27,2.9,0,1.65,1.35,3,3,3s3-1.35,3-3c0-.81-.32-1.54-.85-2.08l.89-3.1,2.99,2.49c.16,1.51,1.42,2.69,2.97,2.69,1.65,0,3-1.35,3-3,0-.81-.32-1.54-.85-2.08l.89-3.12c1.14-.43,1.95-1.52,1.95-2.8,0-1.65-1.35-3-3-3Z"/></svg>