<svg xmlns="http://www.w3.org/2000/svg" viewBox="0 0 24 24" width="24" height="24"><path d="m14.4,10.97s-.01,0-.02-.01c1.01-1.36,1.44-3.09,1.13-4.83-.44-2.47-2.38-4.48-4.83-4.99-1.88-.39-3.8.07-5.27,1.26-1.14.92-1.89,2.2-2.18,3.6-.67,0-1.64,0-2.24,0,0,0,0,2.54,2.35,2.94.16.57.4,1.11.72,1.61-2.08,1.36-3.27,3.78-3.04,6.32.32,3.44,3.38,6.13,6.97,6.13h5.85c5.21,0,9.15-3.65,9.15-8.5v-7.18l-2.81,2.81c-1.52,1.52-3.84,1.85-5.79.84Zm-5.9-2.97c-.83,0-1.5-.67-1.5-1.5s.67-1.5,1.5-1.5,1.5.67,1.5,1.5-.67,1.5-1.5,1.5Z"/></svg>