<svg xmlns="http://www.w3.org/2000/svg" viewBox="0 0 24 24" width="24" height="24"><path d="m22.03,16.26l-1.03-.26v-3l1.03-.26c.57-.14.97-.65.97-1.24s-.4-1.1-.97-1.24l-1.03-.26s-.33-2.03-.92-3.09l.53-.79c.33-.49.28-1.14-.12-1.57s-1.04-.54-1.55-.27l-.73.39c-1.29-1.04-4.21-1.67-4.21-1.67l-.26-1.03c-.14-.57-.65-.97-1.24-.97s-1.1.4-1.24.97l-.26,1.03h-2.2c-4.03,0-7.56,3.05-7.79,7.07-.23,4.16,2.94,7.65,6.99,7.91v5.02h13v-4l1.03-.26c.57-.14.97-.65.97-1.24s-.4-1.1-.97-1.24ZM5,10c-.55,0-1-.45-1-1s.45-1,1-1,1,.45,1,1-.45,1-1,1Zm8,1c-1.1,0-2-.9-2-2s.9-2,2-2,2,.9,2,2-.9,2-2,2Z"/></svg>