<svg xmlns="http://www.w3.org/2000/svg" width="24" height="24" viewBox="0 0 24 24"><path d="M18.87 17.81c2.26-1.65 3.57-3.87 4.05-5.35l.15-.46-.15-.46C22.07 8.93 18.7 4 11.99 4c-2.22 0-4.07.54-5.58 1.36L1.53.47.47 1.53l4.64 4.64 3.95 3.95 13.41 13.41 1.06-1.06zM12 8.5c1.91 0 3.5 1.59 3.5 3.5 0 .69-.21 1.33-.57 1.87l-4.81-4.81c.54-.35 1.18-.57 1.87-.57ZM8.54 12.43 3.61 7.49c-1.34 1.39-2.17 2.93-2.53 4.04l-.15.46.15.46c.85 2.61 4.22 7.54 10.93 7.54 1.32 0 2.51-.2 3.58-.53l-4.02-4.02a3.5 3.5 0 0 1-3.02-3.02Z"/></svg>