<svg xmlns="http://www.w3.org/2000/svg" width="24" height="24" viewBox="0 0 24 24"><path d="M19.78 4.22c-.5-.5-1.04-.95-1.63-1.34s-1.21-.74-1.87-1.01a11.015 11.015 0 0 0-8.57 0c-.65.28-1.28.62-1.87 1.01-.58.39-1.13.85-1.63 1.34s-.95 1.04-1.34 1.63c-.4.59-.74 1.21-1.01 1.87A10.997 10.997 0 0 0 1 12.01c0 .75.08 1.49.22 2.21.14.71.36 1.4.64 2.07.28.65.62 1.28 1.01 1.87.39.58.85 1.13 1.34 1.63s1.04.95 1.63 1.34 1.21.74 1.87 1.01A10.997 10.997 0 0 0 12 23c.75 0 1.49-.08 2.21-.22.71-.14 1.4-.36 2.07-.64.65-.28 1.28-.62 1.87-1.01.58-.39 1.13-.85 1.63-1.34s.95-1.04 1.34-1.63.74-1.21 1.01-1.87a10.997 10.997 0 0 0 .86-4.29h-3a8 8 0 0 1-.62 3.12c-.2.48-.45.93-.74 1.36-.29.42-.62.82-.98 1.19a7.87 7.87 0 0 1-4.04 2.18c-1.05.22-2.17.22-3.23 0a7.78 7.78 0 0 1-2.86-1.2c-.42-.29-.82-.62-1.19-.98a7.87 7.87 0 0 1-2.18-4.04c-.11-.53-.16-1.07-.16-1.61a8 8 0 0 1 .62-3.12c.2-.48.45-.93.74-1.36.29-.42.62-.82.98-1.19a7.87 7.87 0 0 1 4.04-2.18c1.05-.22 2.17-.22 3.23 0a7.78 7.78 0 0 1 2.86 1.2c.42.29.82.62 1.19.98.17.17.32.34.48.52L16 9h7V2l-2.75 2.75c-.16-.18-.31-.36-.48-.52Z"/><path d="M11.25 7v5.75H17v-1.5h-4.25V7z"/></svg>