<svg xmlns="http://www.w3.org/2000/svg" viewBox="0 0 24 24" width="24" height="24"><path d="m10.07,12c0,1.05.89,1.93,1.93,1.93s1.93-.89,1.93-1.93-.89-1.93-1.93-1.93-1.93.89-1.93,1.93Z"/><path d="m9.62,1H1v20h22V3h-11.38l-2-2Zm4.92,8l1.12-.65,1.33,2.29-1.11.64c.05.24.07.47.07.71s-.02.48-.07.71l1.11.64-1.33,2.29-1.12-.65c-.36.31-.78.55-1.22.71v1.29h-2.65v-1.29c-.44-.16-.86-.4-1.22-.71l-1.12.65-1.33-2.29,1.11-.64c-.05-.24-.07-.48-.07-.71s.02-.48.07-.71l-1.11-.64,1.33-2.29,1.12.65c.36-.31.78-.55,1.22-.71v-1.28h2.65v1.28c.44.16.86.4,1.22.71Z"/></svg>