<svg xmlns="http://www.w3.org/2000/svg" viewBox="0 0 24 24" width="24" height="24"><path d="m14.5,18.9c0-1.79-1.54-3.29-2.5-4.06-1.06.85-2.5,2.38-2.5,4.06,0,1.43,1.12,2.6,2.5,2.6s2.5-1.17,2.5-2.6Z"/><path d="m7.33,21.84c-.52-.86-.83-1.86-.83-2.94,0-4.32,4.54-7.07,4.73-7.19l.77-.46.77.46c.19.11,4.73,2.87,4.73,7.19,0,1.08-.31,2.08-.83,2.94,3.16-1.68,5.33-4.99,5.33-8.81,0-2.01-.55-3.91-1.62-5.67l-1.04-1.69-1.34,1.46c-.74.8-1.73,1.24-2.8,1.24-2.11,0-3.82-1.7-3.82-3.8,0-.26.03-.53.1-.82l.73-3.31-2.94,1.69c-2.71,1.56-7.26,5.04-7.26,10.91,0,3.81,2.16,7.13,5.33,8.81Z"/></svg>