<svg xmlns="http://www.w3.org/2000/svg" viewBox="0 0 24 24" width="24" height="24"><path d="m7.73,7.35c-1.75-.22-3.46-.56-5.12-1.05-.89,1.46-1.45,3.14-1.57,4.94h6.39c.03-1.33.13-2.65.31-3.9Z"/><path d="m14.78,7.51c-.92.07-1.84.12-2.78.12s-1.86-.05-2.78-.12c-.16,1.12-.27,2.38-.3,3.74h6.15c-.03-1.36-.13-2.62-.3-3.74Z"/><path d="m14.51,6.03c-.64-3.02-1.69-4.79-2.51-4.79s-1.87,1.77-2.51,4.79c1.67.12,3.35.12,5.02,0Z"/><path d="m9.22,16.49c1.84-.15,3.71-.15,5.55,0,.16-1.12.27-2.38.3-3.74h-6.15c.03,1.36.13,2.62.3,3.74Z"/><path d="m7.42,12.75H1.04c.12,1.8.68,3.48,1.57,4.94,1.66-.48,3.37-.83,5.12-1.04-.18-1.25-.28-2.57-.31-3.9Z"/><path d="m9.49,17.97c.64,3.02,1.69,4.79,2.51,4.79s1.87-1.77,2.51-4.79c-1.67-.12-3.35-.12-5.02,0Z"/><path d="m9.68,1.25c-2.45.53-4.6,1.88-6.15,3.74,1.45.4,2.94.69,4.46.87.38-1.89.94-3.51,1.69-4.62Z"/><path d="m3.52,19c1.55,1.87,3.7,3.21,6.15,3.74-.75-1.1-1.31-2.73-1.69-4.62-1.52.18-3.01.48-4.46.87Z"/><path d="m16.27,16.65c1.75.22,3.47.56,5.12,1.04.89-1.46,1.45-3.14,1.57-4.94h-6.39c-.03,1.33-.13,2.65-.31,3.9Z"/><path d="m14.32,22.75c2.45-.53,4.6-1.88,6.15-3.74-1.45-.4-2.94-.69-4.46-.87-.38,1.89-.94,3.51-1.69,4.62Z"/><path d="m20.48,5c-1.55-1.87-3.7-3.21-6.15-3.74.75,1.1,1.31,2.73,1.69,4.62,1.52-.18,3.01-.48,4.46-.87Z"/><path d="m16.58,11.25h6.39c-.12-1.8-.68-3.48-1.57-4.94-1.66.49-3.37.83-5.12,1.05.18,1.25.28,2.57.31,3.9Z"/></svg>