<svg xmlns="http://www.w3.org/2000/svg" viewBox="0 0 24 24" width="24" height="24"><path class="b" d="M2 2H11V11H2z"/><path class="b" d="M13 2H22V11H13z"/><path class="b" d="M2 13H11V22H2z"/><path class="b" d="m22.18,21.12l-2.26-2.26c.4-.61.62-1.32.62-2.07,0-1-.39-1.94-1.1-2.65-1.42-1.42-3.89-1.42-5.3,0-.71.71-1.1,1.65-1.1,2.65s.39,1.94,1.1,2.65,1.65,1.1,2.65,1.1c.75,0,1.46-.22,2.07-.62l2.26,2.26,1.06-1.06Zm-6.98-2.74c-.42-.42-.66-.99-.66-1.59s.23-1.17.66-1.59.99-.66,1.59-.66,1.17.23,1.59.66.66.99.66,1.59-.23,1.17-.66,1.59c-.85.85-2.33.85-3.18,0Z"/></svg>