<svg xmlns="http://www.w3.org/2000/svg" viewBox="0 0 24 24" width="24" height="24"><path d="m22.96,11.25c-.31-4.63-3.49-8.48-7.78-9.78,1.48,2.06,2.45,5.58,2.55,9.78h5.23Z"/><path d="m16.23,11.25c-.17-6.08-2.3-10.25-4.23-10.25s-4.07,4.17-4.23,10.25h8.47Z"/><path d="m7.77,12.75c.17,6.08,2.3,10.25,4.23,10.25s4.07-4.17,4.23-10.25H7.77Z"/><path d="m8.82,1.47C4.53,2.77,1.35,6.62,1.04,11.25h5.23c.1-4.2,1.07-7.72,2.55-9.78Z"/><path d="m15.18,22.53c4.29-1.3,7.47-5.15,7.78-9.78h-5.23c-.1,4.2-1.07,7.72-2.55,9.78Z"/><path d="m1.04,12.75c.31,4.63,3.49,8.48,7.78,9.78-1.48-2.06-2.45-5.58-2.55-9.78H1.04Z"/></svg>