<svg version="1.1" xmlns="http://www.w3.org/2000/svg" xmlns:xlink="http://www.w3.org/1999/xlink" x="0px" y="0px" viewBox="0 0 24 24" xml:space="preserve" width="24" height="24"><path class="st0" d="M21.6,11.9c-1-1.2-2.3-1.9-3.8-1.9S15,10.7,14,11.9c-0.5,0.6-1.6,1.4-3.6,0.7c0.6-0.8,0.9-1.8,0.9-2.9
	C11.4,7.1,9.3,5,6.7,5S2.1,7.1,2.1,9.7h3C5.1,8.8,5.8,8,6.7,8s1.7,0.8,1.7,1.7s-0.8,1.8-1.6,1.8H6v3h0.8c1.5,0,2.7,1.2,2.7,2.7
	S8.2,20,6.7,20S4,18.8,4,17.2H1C1,20.4,3.6,23,6.7,23s5.7-2.6,5.7-5.8c0-0.5-0.1-0.9-0.2-1.4c1.8-0.1,3.2-0.9,4.1-2.1
	c0.2-0.3,0.7-0.8,1.5-0.8s1.2,0.5,1.5,0.8c0.5,0.6,0.7,1.4,0.7,2.2c0,0.8-0.3,1.7-0.7,2.2C19,18.5,18.5,19,17.8,19s-1.2-0.5-1.5-0.8
	L14,20.1c1,1.2,2.4,1.9,3.8,1.9s2.8-0.7,3.8-1.9C22.5,19,23,17.5,23,16S22.5,13,21.6,11.9L21.6,11.9z"/><path class="st0" d="M15.5 2.5 16.2 1.7 17 1 17.7 1.7 18.5 2.5 17.7 3.2 17 4 16.2 3.2z"/><path class="st0" d="M23,2h-3v0.5C20,3.9,18.6,5,17,5s-3-1.1-3-2.5V2h-3v0.5c0,3,2.7,5.5,6,5.5s6-2.5,6-5.5V2z"/></svg>