<svg xmlns="http://www.w3.org/2000/svg" width="24" height="24" viewBox="0 0 24 24"><path d="m22.08 18.98-8.58-8.12v-.08c.76-.24 1.46-.66 2.04-1.24C16.48 8.6 17 7.34 17 6s-.52-2.59-1.46-3.54C14.6 1.52 13.34 1 12 1s-2.59.52-3.54 1.46C7.52 3.4 7 4.66 7 6h3c0-.53.21-1.04.59-1.42.75-.75 2.07-.75 2.83 0 .38.38.59.88.59 1.41s-.21 1.04-.59 1.42-.88.58-1.41.58h-1.5v2.86l-8.59 8.13c-.52.5-.69 1.25-.42 1.92S2.41 22 3.13 22h17.75c.72 0 1.36-.43 1.62-1.1.27-.67.1-1.42-.42-1.92M6.27 19l5.74-5.43L17.75 19H6.26Z"/></svg>