<svg xmlns="http://www.w3.org/2000/svg" width="24" height="24" viewBox="0 0 24 24"><path d="M12 23c6.07 0 11-4.93 11-11S18.07 1 12 1 1 5.93 1 12s4.93 11 11 11m1.43-14.55c.28-.28.66-.44 1.05-.44.37 0 .73.13 1.01.37.27-.25.63-.39 1-.39.39 0 .77.15 1.06.42.59.57.6 1.48.02 2.06l-2.04 2.02-2.07-1.99c-.6-.57-.6-1.47-.02-2.06ZM17 14s-1 4-5 4-5-4-5-4zM6.43 8.45c.28-.28.66-.44 1.05-.44.37 0 .73.13 1.01.37.27-.25.63-.39 1-.39.39 0 .77.15 1.06.42.59.57.6 1.48.02 2.06l-2.04 2.02-2.07-1.99c-.6-.57-.6-1.47-.02-2.06Z"/></svg>