<svg xmlns="http://www.w3.org/2000/svg" viewBox="0 0 24 24" width="24" height="24"><path d="m17.5,10c0-2.09.45-3.11.94-4.2.52-1.18,1.06-2.4,1.06-4.8h-1.5c0,2.09-.45,3.11-.94,4.2-.52,1.18-1.06,2.4-1.06,4.8h1.5Z"/><path d="m14.94,5.8c.52-1.18,1.06-2.4,1.06-4.8h-1.5c0,2.09-.45,3.11-.94,4.2-.52,1.18-1.06,2.4-1.06,4.8h1.5c0-2.09.45-3.11.94-4.2Z"/><path d="m21,10c0-2.09.45-3.11.94-4.2.52-1.18,1.06-2.4,1.06-4.8h-1.5c0,2.09-.45,3.11-.94,4.2-.52,1.18-1.06,2.4-1.06,4.8h1.5Z"/><path d="M5 1A3 3 0 1 0 5 7 3 3 0 1 0 5 1z"/><path d="m6,8c-2.42,0-4.44,1.72-4.9,4h10.23c-1.64-2.43-2.89-4-5.33-4Z"/><path d="m1,18.5c0,2.48,2.02,4.5,4.5,4.5h13c2.48,0,4.5-2.02,4.5-4.5v-5.5H1v5.5Z"/></svg>