<svg version="1.1" xmlns="http://www.w3.org/2000/svg" xmlns:xlink="http://www.w3.org/1999/xlink" x="0px" y="0px" viewBox="0 0 24 24" xml:space="preserve" width="24" height="24"><path class="st0" d="M8,18v5h8v-5H8z"/><path class="st0" d="M13.8,1.2c-2.4-0.6-5,0-6.9,1.6C5.1,4.3,4,6.5,4,8.8s1.1,3.7,2.1,4.8c0.5,0.6,0.9,1.1,1.3,1.7
	c0.2,0.3,0.3,0.7,0.4,1.1h8.3c0.1-0.4,0.2-0.8,0.4-1.1c0.4-0.6,0.8-1.1,1.3-1.7c1-1.1,2-2.3,2.1-4.5l0,0C20.2,5.5,17.5,2,13.8,1.2z
	 M12,6.5c-1.4,0-2.5,1.1-2.5,2.5H8c0-2.2,1.8-4,4-4V6.5z"/></svg>