<svg xmlns="http://www.w3.org/2000/svg" viewBox="0 0 24 24" width="24" height="24"><path d="m23,8.5c0-4.14-3.36-7.5-7.5-7.5-3.71,0-6.79,2.68-7.38,6.17-2.01,1-3.35,2.96-3.57,5.21-2.09.79-3.55,2.79-3.55,5.12,0,3.03,2.47,5.5,5.5,5.5,2.33,0,4.33-1.46,5.12-3.55,2.26-.21,4.22-1.56,5.21-3.58,3.53-.63,6.17-3.69,6.17-7.37ZM6.5,20c-1.38,0-2.5-1.12-2.5-2.5,0-.81.39-1.54,1-2,.03.08.07.15.11.23.03.06.05.12.08.18.14.28.3.55.47.8.04.05.08.1.11.15.18.24.37.47.58.68.03.03.06.06.09.09.21.2.43.39.66.56.07.05.13.1.2.15.24.16.49.31.74.44.08.04.17.08.25.12.07.03.13.07.2.09-.46.61-1.19,1-2,1Zm4.5-3.5c-.12,0-.24,0-.38-.02-1.63-.17-2.93-1.47-3.1-3.13-.01-.11-.02-.23-.02-.35,0-.86.31-1.66.84-2.28,0,0,0,0,0,0,.08.27.18.53.3.78.04.08.08.16.12.24.08.17.17.34.27.51.05.08.1.17.15.25.1.16.21.32.33.47.05.07.1.14.16.21.17.21.35.41.54.61l.02.02c.19.19.4.37.61.54.07.06.14.11.21.16.15.11.31.22.47.32.08.05.17.1.25.15.16.1.33.18.5.27.08.04.16.08.24.12.25.11.5.21.77.29,0,0,0,0,.02,0-.62.53-1.42.84-2.28.84Z"/></svg>