<svg xmlns="http://www.w3.org/2000/svg" viewBox="0 0 24 24" width="24" height="24"><path d="M16.47 5.91 15.7 6.67 14.94 7.44 14.94 7.44 14.94 7.44 14.94 7.44 14.94 7.44 14.76 7.62 14.58 7.8 14.4 7.98 14.22 8.16 15.75 9.69 17.28 11.22 18.81 12.75 20.34 14.28 20.52 14.1 20.7 13.92 20.88 13.74 21.06 13.56 21.06 13.56 21.06 13.56 21.06 13.56 21.06 13.56 21.83 12.8 22.59 12.03 23.36 11.27 17.23 5.14 16.47 5.91z"/><path d="m7.73,10.29l-2.38,10.69.55.55,5.65-5.65c-.03-.12-.06-.25-.06-.38,0-.83.67-1.5,1.5-1.5s1.5.67,1.5,1.5-.67,1.5-1.5,1.5c-.13,0-.26-.02-.38-.06l-5.65,5.65.55.55,10.69-2.38,1.39-5.11-6.76-6.76-5.11,1.39Z"/><path d="M1 4H10V7H1z"/></svg>