<svg xmlns="http://www.w3.org/2000/svg" viewBox="0 0 24 24" width="24" height="24"><path d="M12 1A3.5 3.5 0 1 0 12 8 3.5 3.5 0 1 0 12 1z"/><path d="M19.5 5A3.5 3.5 0 1 0 19.5 12 3.5 3.5 0 1 0 19.5 5z"/><path d="M4.5 5A3.5 3.5 0 1 0 4.5 12 3.5 3.5 0 1 0 4.5 5z"/><path d="m4.6,22.67c.86.52,1.81.78,2.77.78.86,0,1.72-.21,2.52-.63l1-.53c.7-.37,1.52-.37,2.22,0l1,.53c1.68.89,3.65.83,5.29-.15,1.63-.98,2.6-2.7,2.6-4.6,0-2.51-1.7-4.66-4.14-5.23l-.13-.03c-.45-.11-.86-.34-1.18-.68l-.64-.67c-1.01-1.07-2.43-1.68-3.91-1.68s-2.9.61-3.91,1.68l-.64.67c-.32.34-.73.57-1.18.68l-.13.03c-2.44.57-4.14,2.72-4.14,5.23,0,1.9.97,3.62,2.6,4.6Z"/></svg>