<svg xmlns="http://www.w3.org/2000/svg" width="24" height="24" viewBox="0 0 24 24"><path d="M4 13.5h3.65c0 .07.01.12.01.2 0 2.54-1.06 4.58-2.83 5.45l1.11 2.78c1.66-.52 3.82-1.07 4.37-1.07.91 0 1.6.23 2.4.49.91.3 1.95.64 3.34.64s3.64-1 4.08-1.2l-1.26-2.72c-.97.45-2.33.92-2.82.92-.91 0-1.6-.23-2.4-.49-.91-.3-1.95-.64-3.34-.64q-.21 0-.48.03c.54-1.24.83-2.66.83-4.2 0-.07-.01-.13-.01-.2H15v-3H9.89c-.21-.56-.38-1.22-.38-2.47 0-1.47.93-3.03 3.53-3.03 2.18 0 2.8 1.88 2.86 2.08l2.9-.78c-.4-1.49-2.12-4.3-5.76-4.3-4.48 0-6.53 3.13-6.53 6.03 0 1.06.1 1.84.25 2.47H4v3Z"/></svg>