<svg xmlns="http://www.w3.org/2000/svg" viewBox="0 0 24 24" width="24" height="24"><path d="m4,4.5c0,4.1,3.29,7.43,7.37,7.49,4.13-.07,7.47-3.37,7.61-7.48-1.43-.95-3.14-1.51-4.99-1.51H3.75c-.69,0-1.25-.56-1.25-1.25v-.75h-1.5v.75c0,1.52,1.23,2.75,2.75,2.75h.25Zm5.5.5c.83,0,1.5.67,1.5,1.5s-.67,1.5-1.5,1.5-1.5-.67-1.5-1.5.67-1.5,1.5-1.5Z"/><path d="m20.38,5.66c-.46,2.98-2.33,5.49-4.92,6.82.63.45,1.04,1.19,1.04,2.02,0,1.38-1.12,2.5-2.5,2.5h-4c0-1.1-.9-2-2-2H3c0,2.28,2,4,2,4,0,0-2,1.71-2,4h5c1.1,0,2-.9,2-2h4c4.97,0,9-4.03,9-9,0-2.48-1-4.72-2.62-6.34Z"/></svg>