<svg xmlns="http://www.w3.org/2000/svg" width="24" height="24" viewBox="0 0 24 24"><path d="M22.13 7.71c-.28-.65-.62-1.28-1.01-1.87-.39-.58-.85-1.13-1.34-1.63s-1.04-.95-1.63-1.34-1.21-.74-1.87-1.01a11.015 11.015 0 0 0-8.57 0c-.65.28-1.28.62-1.87 1.01-.58.39-1.13.85-1.63 1.34-.17.17-.32.35-.48.52L1 2v7h7L5.87 6.87c.15-.18.31-.36.48-.52.36-.36.76-.69 1.18-.98.43-.29.89-.54 1.36-.74.48-.2.99-.36 1.5-.46 1.05-.22 2.17-.22 3.23 0a7.78 7.78 0 0 1 2.86 1.2c.42.29.82.62 1.19.98a7.87 7.87 0 0 1 2.18 4.04c.11.53.16 1.07.16 1.61a8 8 0 0 1-.62 3.12c-.2.48-.45.93-.74 1.36-.29.42-.62.82-.98 1.19a7.87 7.87 0 0 1-4.04 2.18c-1.05.22-2.17.22-3.23 0a7.78 7.78 0 0 1-2.86-1.2c-.42-.29-.82-.62-1.19-.98a7.87 7.87 0 0 1-2.18-4.04 8 8 0 0 1-.16-1.61H1c0 .75.08 1.49.22 2.21.14.71.36 1.4.64 2.07.28.65.62 1.28 1.01 1.87.39.58.85 1.13 1.34 1.63s1.04.95 1.63 1.34 1.21.74 1.87 1.01a10.997 10.997 0 0 0 4.29.86c.75 0 1.49-.08 2.21-.22.71-.14 1.4-.36 2.07-.64.65-.28 1.28-.62 1.87-1.01.58-.39 1.13-.85 1.63-1.34s.95-1.04 1.34-1.63.74-1.21 1.01-1.87a10.997 10.997 0 0 0 .86-4.29c0-.75-.08-1.49-.22-2.21-.14-.71-.36-1.4-.64-2.07Z"/><path d="M12.43 14.08c-.19.09-.41.13-.66.13-.29 0-.55-.06-.8-.17-.24-.12-.43-.27-.55-.46L9.4 14.59c.28.32.63.56 1.05.74.42.17.88.25 1.37.25.56 0 1.05-.1 1.46-.31s.73-.49.96-.86.35-.78.35-1.25q0-.645-.27-1.17c-.18-.35-.45-.64-.81-.85s-.79-.32-1.31-.32c-.23 0-.42.02-.59.06-.09.02-.16.06-.24.09l.14-1.23h2.7V8.41h-3.97l-.34 3.31.68.63c.17-.13.35-.22.55-.29q.3-.09.66-.09c.36 0 .46.04.65.13s.34.22.44.38c.11.17.16.37.16.6a1.04 1.04 0 0 1-.6.98Z"/></svg>