<svg xmlns="http://www.w3.org/2000/svg" width="24" height="24" viewBox="0 0 24 24"><path d="M19.78 4.22c-.5-.5-1.04-.95-1.63-1.34s-1.21-.74-1.87-1.01a11.015 11.015 0 0 0-8.57 0c-.65.28-1.28.62-1.87 1.01-.58.39-1.13.85-1.63 1.34s-.95 1.04-1.34 1.63c-.4.59-.74 1.22-1.01 1.87A10.997 10.997 0 0 0 1 12.01c0 .75.08 1.49.22 2.21.14.71.36 1.4.64 2.07.28.65.62 1.28 1.01 1.87.39.58.85 1.13 1.34 1.63s1.04.95 1.63 1.34 1.21.74 1.87 1.01A10.997 10.997 0 0 0 12 23c.75 0 1.49-.08 2.21-.22.71-.14 1.4-.36 2.07-.64.65-.28 1.28-.62 1.87-1.01.58-.39 1.13-.85 1.63-1.34s.95-1.04 1.34-1.63.74-1.21 1.01-1.87a10.997 10.997 0 0 0 .86-4.29h-3a8 8 0 0 1-.62 3.12c-.2.48-.45.93-.74 1.36-.29.42-.62.82-.98 1.19a7.87 7.87 0 0 1-4.04 2.18c-1.05.22-2.17.22-3.23 0a7.78 7.78 0 0 1-2.86-1.2c-.42-.29-.82-.62-1.19-.98a7.87 7.87 0 0 1-2.18-4.04c-.11-.53-.16-1.07-.16-1.61a8 8 0 0 1 .62-3.12c.2-.47.45-.93.74-1.36.29-.42.62-.82.98-1.19a7.87 7.87 0 0 1 4.04-2.18c1.05-.22 2.17-.22 3.23 0a7.78 7.78 0 0 1 2.86 1.2c.42.29.82.62 1.19.98.17.17.32.34.48.52L16 9h7V2l-2.75 2.75c-.16-.18-.31-.36-.48-.52Z"/><path d="M9.97 13.5q-.195.09-.45.09-.285 0-.54-.12a.96.96 0 0 1-.39-.32l-.71.71c.2.22.44.4.72.51s.6.18.94.18c.39 0 .72-.07 1.01-.21s.51-.34.67-.59.24-.54.24-.87c0-.3-.06-.56-.18-.77s-.28-.38-.48-.5a1.4 1.4 0 0 0-.57-.17l1.14-1.3v-.61H8.18v.93h1.68l-.94 1.1v.61c.07-.02.15-.04.24-.05.1-.01.19-.02.28-.02.19 0 .36.03.49.09.14.06.24.15.31.26s.11.24.11.4-.04.29-.11.4-.17.2-.3.26ZM15.09 9.77c-.32-.21-.68-.32-1.08-.32s-.76.11-1.08.32-.57.51-.75.89-.27.83-.27 1.33.09.95.28 1.33c.18.38.44.68.76.9.32.21.68.32 1.08.32s.76-.11 1.07-.32.56-.51.75-.89c.18-.38.28-.83.28-1.34s-.09-.96-.28-1.34c-.18-.38-.44-.68-.75-.89Zm-.2 3.09c-.08.24-.2.41-.35.53s-.33.18-.53.18-.38-.06-.54-.18-.27-.3-.35-.53q-.12-.345-.12-.87c0-.525.04-.63.12-.87.08-.23.19-.41.35-.53.15-.12.33-.17.53-.17s.39.06.54.18.27.29.35.53.12.52.12.87-.04.63-.12.86"/></svg>