<svg xmlns="http://www.w3.org/2000/svg" width="24" height="24" viewBox="0 0 24 24"><path d="M22.13 7.72c-.28-.65-.62-1.28-1.01-1.87-.39-.58-.85-1.13-1.34-1.63s-1.04-.95-1.63-1.34-1.21-.74-1.87-1.01a11.015 11.015 0 0 0-8.57 0c-.65.28-1.28.62-1.87 1.01-.58.39-1.13.85-1.63 1.34-.17.17-.32.35-.48.52L1 2v7h7L5.87 6.87c.15-.18.31-.36.48-.52.36-.36.76-.69 1.18-.98.43-.29.89-.54 1.36-.74.48-.2.99-.36 1.5-.46 1.05-.22 2.17-.22 3.23 0a7.78 7.78 0 0 1 2.86 1.2c.42.29.82.62 1.19.98a7.87 7.87 0 0 1 2.18 4.04c.11.53.16 1.07.16 1.61a8 8 0 0 1-.62 3.12c-.2.48-.45.93-.74 1.36-.29.42-.62.82-.98 1.19a7.87 7.87 0 0 1-4.04 2.18c-1.05.22-2.17.22-3.23 0a7.78 7.78 0 0 1-2.86-1.2c-.42-.29-.82-.62-1.19-.98a7.87 7.87 0 0 1-2.18-4.04 8 8 0 0 1-.16-1.61H1c0 .75.08 1.49.22 2.21.14.71.36 1.4.64 2.07.28.65.62 1.28 1.01 1.87.39.58.85 1.13 1.34 1.63s1.04.95 1.63 1.34 1.21.74 1.87 1.01a10.997 10.997 0 0 0 4.29.86c.75 0 1.49-.08 2.21-.22.71-.14 1.4-.36 2.07-.64.65-.28 1.28-.62 1.87-1.01.58-.39 1.13-.85 1.63-1.34s.95-1.04 1.34-1.63.74-1.21 1.01-1.87a10.997 10.997 0 0 0 .86-4.29c0-.75-.08-1.49-.22-2.21-.14-.71-.36-1.4-.64-2.07Z"/><path d="M10.57 14.47V9.53H8.53v.93h.95v4.01zM12.29 14.23c.32.21.68.32 1.08.32s.76-.11 1.07-.32.56-.51.75-.89c.18-.38.28-.83.28-1.34s-.09-.96-.28-1.34c-.18-.38-.44-.68-.75-.89-.32-.21-.68-.32-1.08-.32s-.76.11-1.08.32-.57.51-.75.89-.27.83-.27 1.33.09.95.28 1.33c.18.38.44.68.76.9Zm.19-3.1c.08-.23.19-.41.35-.53.15-.12.33-.17.53-.17s.39.06.54.18.27.29.35.53.12.52.12.87-.04.63-.12.86-.2.41-.35.53-.33.18-.53.18-.38-.06-.54-.18-.27-.3-.35-.53q-.12-.345-.12-.87c0-.525.04-.63.12-.87"/></svg>