<svg xmlns="http://www.w3.org/2000/svg" width="24" height="24" viewBox="0 0 24 24"><path d="M6.34 6.34c.73-.73 1.59-1.31 2.54-1.71.99-.42 2.03-.63 3.11-.63V1c-1.48 0-2.92.29-4.28.87-1.31.56-2.49 1.35-3.5 2.36s-1.8 2.18-2.36 3.5c-.57 1.36-.86 2.8-.86 4.28s.29 2.92.87 4.28c.56 1.31 1.35 2.49 2.36 3.5.17.17.35.32.52.48l-2.75 2.75h7v-7l-2.13 2.13c-.18-.15-.36-.31-.52-.48a8 8 0 0 1-1.71-2.54C4.21 14.14 4 13.1 4 12.02s.21-2.13.63-3.11c.4-.95.98-1.81 1.72-2.54ZM19.78 4.22c-.17-.17-.35-.32-.52-.48L22.01.99h-7v7l2.13-2.13c.18.15.36.31.52.48.73.73 1.31 1.59 1.71 2.54.42.99.63 2.03.63 3.11s-.21 2.13-.63 3.11c-.4.95-.98 1.81-1.72 2.54-.73.73-1.59 1.31-2.54 1.71-.99.42-2.03.63-3.11.63v3c1.48 0 2.92-.29 4.28-.87 1.31-.56 2.49-1.35 3.5-2.36s1.8-2.18 2.36-3.5c.57-1.36.86-2.8.86-4.28s-.29-2.92-.87-4.28c-.56-1.31-1.35-2.49-2.36-3.5Z"/></svg>