<svg xmlns="http://www.w3.org/2000/svg" viewBox="0 0 24 24" width="24" height="24"><path d="m19.06,1H4.94L1,5.98v1.36c0,1.09.39,2.09,1.03,2.89-.02.09-.03.18-.03.28v12.5h20v-12.5c0-.1-.01-.19-.03-.28.63-.8,1.03-1.79,1.03-2.89v-1.36l-3.94-4.98ZM7.38,6.12l-.05,1.22c0,.92-.75,1.67-1.67,1.67s-1.67-.75-1.67-1.67v-.31l2.39-3.02h1.55l-.56,2.12Zm2.95.58l.71-2.69h1.91l.71,2.69v.64c0,.92-.75,1.67-1.67,1.67s-1.67-.75-1.67-1.67v-.64Zm4.67,14.31h-6v-6h6v6Zm5-13.67c0,.92-.75,1.67-1.67,1.67s-1.67-.75-1.67-1.67v-.83l-.61-2.5h1.55l2.39,3.02v.31Z"/></svg>