<svg xmlns="http://www.w3.org/2000/svg" viewBox="0 0 24 24" width="24" height="24"><path d="M12.75 3.5 12.75 2 12 2 11.25 2 11.25 3.5 11.25 5 12 5 12.75 5 12.75 3.5z"/><path d="M20 11.5 20 12.25 20 13 21.5 13 23 13 23 12.25 23 11.5 21.5 11.5 20 11.5z"/><path d="M4 12.25 4 11.5 2.5 11.5 1 11.5 1 12.25 1 13 2.5 13 4 13 4 12.25z"/><path d="M20.31 5 19.78 4.47 19.25 3.94 18.19 5 17.13 6.06 17.66 6.59 18.19 7.12 19.25 6.06 20.31 5z"/><path d="M6.87 6.06 5.81 5 4.75 3.94 4.22 4.47 3.69 5 4.75 6.06 5.81 7.12 6.34 6.59 6.87 6.06z"/><path d="M5.23 19 3 19 3 22 4.73 22 19.27 22 21 22 21 19 18.77 19 5.23 19z"/><path d="m17.12,9.09c-.2-1.21-1.24-2.09-2.47-2.09h-5.31c-1.23,0-2.26.88-2.47,2.09l-1.48,8.91h13.21l-1.48-8.91Z"/></svg>