<svg xmlns="http://www.w3.org/2000/svg" viewBox="0 0 24 24" width="24" height="24"><path d="m19.67,4.11c-2.15-2.09-4.97-3.18-7.98-3.11C5.96,1.16,1.16,5.96,1,11.69c-.08,3,1.02,5.83,3.11,7.98,2.09,2.15,4.89,3.33,7.88,3.33h.62l.44-.44s9.48-9.48,9.51-9.51l.43-.44v-.61c0-3-1.18-5.8-3.33-7.89Zm-9,16.39c-.11-.54-.17-1.1-.17-1.68s.06-1.14.17-1.68c.11-.54.27-1.06.48-1.56.21-.5.47-.97.77-1.41.3-.44.64-.86,1.02-1.23.38-.38.79-.72,1.23-1.02.44-.3.92-.56,1.41-.77.5-.21,1.02-.37,1.56-.48.54-.11,1.1-.17,1.68-.17s1.14.06,1.68.17l-9.83,9.83Z"/></svg>