<svg xmlns="http://www.w3.org/2000/svg" width="24" height="24" viewBox="0 0 24 24"><path d="M21 19.33c0-1.5-1.5-3.33-1.5-3.33S18 17.82 18 19.33c0 .92.67 1.67 1.5 1.67s1.5-.75 1.5-1.67M11 21.33C11 19.83 9.5 18 9.5 18S8 19.82 8 21.33c0 .92.67 1.67 1.5 1.67s1.5-.75 1.5-1.67M16 21.33c0-1.5-1.5-3.33-1.5-3.33S13 19.82 13 21.33c0 .92.67 1.67 1.5 1.67s1.5-.75 1.5-1.67M6 19.33C6 17.83 4.5 16 4.5 16S3 17.82 3 19.33c0 .92.67 1.67 1.5 1.67S6 20.25 6 19.33M13.5 3.14V1h-3v2.14C6.25 3.86 3 7.55 3 12H1v3h22v-3h-2c0-4.45-3.25-8.15-7.5-8.86"/></svg>