<svg xmlns="http://www.w3.org/2000/svg" width="24" height="24" viewBox="0 0 24 24"><path d="m4.49 3.99 3.76 6.51 5.4-9.36C13.11 1.06 12.56 1 12 1 9.09 1 6.46 2.14 4.49 3.99M8.82 14.5l-5.4-9.36A10.93 10.93 0 0 0 1 12c0 .86.11 1.7.3 2.5h7.53ZM15.19 1.48 11.42 8h10.81a11.02 11.02 0 0 0-7.05-6.52ZM15.18 9.5l5.41 9.36c1.51-1.88 2.42-4.27 2.42-6.86 0-.86-.11-1.7-.3-2.5zM8.81 22.52 12.58 16H1.76a11.02 11.02 0 0 0 7.05 6.52M19.51 20.01l-3.76-6.51-5.41 9.36c.54.08 1.09.14 1.65.14 2.91 0 5.54-1.14 7.51-2.99Z"/></svg>