<svg version="1.1" xmlns="http://www.w3.org/2000/svg" xmlns:xlink="http://www.w3.org/1999/xlink" x="0px" y="0px" viewBox="0 0 24 24" xml:space="preserve" width="24" height="24"><path class="st0" d="M.4 12 3.7 8.7 7 5.4 10.3 8.7 13.6 12 10.3 15.3 7 18.6 3.7 15.3z"/><path class="st0" d="M17.8 12.600000000000001A5.2 5.2 0 1 0 17.8 23 5.2 5.2 0 1 0 17.8 12.600000000000001z"/><path class="st0" d="M17.5,11.6L22,7.3l0.1-0.1C22.7,6.5,23,5.6,23,4.7C23,2.7,21.3,1,19.3,1c-0.6,0-1.2,0.1-1.8,0.4
	C17,1.1,16.4,1,15.8,1C13.7,1,12,2.7,12,4.7c0,0.9,0.3,1.8,0.9,2.5L17.5,11.6L17.5,11.6z"/></svg>