<svg xmlns="http://www.w3.org/2000/svg" viewBox="0 0 24 24" width="24" height="24"><path d="m22.83,3.39l-.18-1.04-1.04-.18c-.25-.04-6.06-1.01-9.25,2.18-1.36,1.36-2.11,3.2-2.35,4.88-.33,1.84-.5,3.7-.5,5.57v7.19h3v-7.05c.34.03.74.04,1.19.04,2.04,0,4.99-.39,6.95-2.35,3.19-3.19,2.22-9.01,2.18-9.25Z"/><path d="m10.05,5.99s-.01-.01-.02-.02c-2.62-2.62-7.16-1.92-7.67-1.83l-1.04.18-.18,1.04c-.09.51-.79,5.05,1.83,7.67,1.58,1.58,3.86,1.95,5.53,1.97v-.2c0-1.87.17-3.73.5-5.57.12-.86.38-1.77.79-2.63.08-.21.16-.42.26-.62Z"/></svg>