<svg xmlns="http://www.w3.org/2000/svg" viewBox="0 0 24 24" width="24" height="24"><path d="M12.25 1H13.75V4H12.25z"/><path d="M20 10.25H23V11.75H20z"/><path d="M19.03 7.03 20.03 6.03 21.03 5.03 20.5 4.5 19.97 3.97 18.97 4.97 17.97 5.97 18.5 6.5 19.03 7.03z"/><path d="M6.97 7.03 7.5 6.5 8.03 5.97 7.03 4.97 6.03 3.97 5.5 4.5 4.97 5.03 5.97 6.03 6.97 7.03z"/><path d="m19,11c0-3.31-2.69-6-6-6s-6,2.69-6,6H.14l5.65,12h17.08l-4.44-9.44c.38-.8.58-1.66.58-2.56Zm-3.69,3l1.06,2.25h-4.13l-1.06-2.25h4.13Zm-10.45,0h4.66l1.06,2.25h-4.66l-1.06-2.25Zm2.82,6l-1.06-2.25h4.66l1.06,2.25h-4.66Zm6.32,0l-1.06-2.25h4.13l1.06,2.25h-4.13Z"/></svg>