<svg xmlns="http://www.w3.org/2000/svg" viewBox="0 0 24 24" width="24" height="24"><path d="m8.49,12c0-3.32.38-8.26,1.61-10.82C4.94,2.08,1,6.58,1,12c.18.56,2.86,1.55,7.52,1.89-.03-.67-.04-1.3-.04-1.89Z"/><path d="m12,1c-.69.22-2.01,4.2-2.01,11,0,.69.02,1.34.04,1.97.63.03,1.28.04,1.97.04,6.79,0,10.76-1.32,11-2.03,0-6.06-4.94-10.99-11-10.99Z"/><path d="m1.18,13.9c.8,4.54,4.38,8.12,8.92,8.92-.85-1.78-1.3-4.69-1.49-7.43-2.74-.19-5.65-.64-7.43-1.49Z"/><path d="m10.11,15.48c.34,4.65,1.33,7.33,1.9,7.52,5.41,0,9.9-3.94,10.81-9.1-2.56,1.23-7.51,1.61-10.82,1.61-.59,0-1.22-.01-1.89-.04Z"/></svg>