<svg xmlns="http://www.w3.org/2000/svg" width="24" height="24" viewBox="0 0 24 24"><path d="M12 1C5.93 1 1 5.93 1 12s4.93 11 11 11 11-4.93 11-11S18.07 1 12 1m4.38 5.38a1.25 1.25 0 1 1 0 2.5 1.25 1.25 0 0 1 0-2.5M4.5 12A1.25 1.25 0 1 1 7 12a1.25 1.25 0 0 1-2.5 0m3.12 5.62a1.25 1.25 0 1 1 0-2.5 1.25 1.25 0 0 1 0 2.5m0-8.75a1.25 1.25 0 1 1 0-2.5 1.25 1.25 0 0 1 0 2.5M12 19.49a1.25 1.25 0 1 1 0-2.5 1.25 1.25 0 0 1 0 2.5m0-12.5a1.25 1.25 0 1 1 0-2.5 1.25 1.25 0 0 1 0 2.5m4.38 10.62a1.25 1.25 0 1 1 0-2.5 1.25 1.25 0 0 1 0 2.5m1.88-4.38a1.25 1.25 0 1 1 0-2.5 1.25 1.25 0 0 1 0 2.5"/></svg>