<svg xmlns="http://www.w3.org/2000/svg" viewBox="0 0 24 24" width="24" height="24"><path d="m8,1h-1.13l-.67,2.3c7.78.48,14.01,6.71,14.49,14.49l2.3-.67v-1.13C23,7.73,16.27,1,8,1Z"/><path d="m5.78,4.78L.3,23.7l18.92-5.48c-.28-7.3-6.15-13.17-13.44-13.44Zm.22,14.22c-.55,0-1-.45-1-1s.45-1,1-1,1,.45,1,1-.45,1-1,1Zm1-4c-.55,0-1-.45-1-1s.45-1,1-1,1,.45,1,1-.45,1-1,1Zm1-5c0-.55.45-1,1-1s1,.45,1,1-.45,1-1,1-1-.45-1-1Zm2,8c-.55,0-1-.45-1-1s.45-1,1-1,1,.45,1,1-.45,1-1,1Zm1.5-4c-.55,0-1-.45-1-1s.45-1,1-1,1,.45,1,1-.45,1-1,1Zm2.5,3c-.55,0-1-.45-1-1s.45-1,1-1,1,.45,1,1-.45,1-1,1Z"/></svg>