<svg xmlns="http://www.w3.org/2000/svg" viewBox="0 0 24 24" width="24" height="24"><path d="m12.77,17.88c1.4-.26,2.57-1.32,3.02-2.67.33-.95.27-1.99-.15-2.89-.1-.21-.32-.32-.54-.27-.6.15-1.02.45-1.5.8-.79.58-1.77,1.29-3.59,1.29-.81,0-1.45-.15-1.98-.35h-.01c-.08,2.22,1.65,4.08,3.86,4.15.3.01.6-.01.9-.07Z"/><path d="m2,1v22h20V1H2Zm13,3c.55,0,1,.45,1,1s-.45,1-1,1-1-.45-1-1,.45-1,1-1Zm-3,16c-3.31,0-6-2.69-6-6s2.69-6,6-6,6,2.69,6,6-2.69,6-6,6Zm6-14c-.55,0-1-.45-1-1s.45-1,1-1,1,.45,1,1-.45,1-1,1Z"/></svg>