<svg xmlns="http://www.w3.org/2000/svg" width="24" height="24" viewBox="0 0 24 24"><path d="M12 1C5.93 1 1 5.93 1 12s4.93 11 11 11 11-4.93 11-11S18.07 1 12 1M8.5 9c.83 0 1.5.67 1.5 1.5S9.33 12 8.5 12 7 11.33 7 10.5 7.67 9 8.5 9m7.56 7.07c-.26.26-.54.5-.85.7-.31.21-.63.38-.98.53q-.525.225-1.08.33a5.6 5.6 0 0 1-2.32 0c-.37-.07-.73-.19-1.08-.33-.34-.15-.67-.32-.98-.53a5.8 5.8 0 0 1-1.55-1.55l1.24-.84c.15.23.33.44.52.63s.4.37.63.52.47.28.72.39c.26.11.52.19.8.25.56.11 1.15.11 1.71 0 .27-.06.54-.14.8-.25.25-.11.5-.24.72-.39s.44-.33.63-.52.37-.4.52-.63l1.24.84c-.21.31-.44.59-.7.85ZM13 12s.5-2 2.5-2 2.5 2 2.5 2z"/></svg>