<svg xmlns="http://www.w3.org/2000/svg" width="24" height="24" viewBox="0 0 24 24"><g opacity="0.4"><path d="m12,1C5.92,1,1,5.92,1,12s4.92,11,11,11,11-4.92,11-11S18.08,1,12,1Zm1,16c-3.31,0-6-2.69-6-6s2.69-6,6-6,6,2.69,6,6-2.69,6-6,6Z"/></g><path d="m13.3,9.5c.33,0,.6-.27.6-.6s-.27-.6-.6-.6-.6.27-.6.6.27.6.6.6Z"/><path d="m13.3,13.1c.66,0,1.2-.54,1.2-1.2s-.54-1.2-1.2-1.2-1.2.54-1.2,1.2.54,1.2,1.2,1.2Z"/><path d="m13,17c3.31,0,6-2.69,6-6s-2.69-6-6-6-6,2.69-6,6,2.69,6,6,6Zm-1.13-7.02c-.23-.3-.37-.67-.37-1.08,0-.99.81-1.8,1.8-1.8s1.8.81,1.8,1.8c0,.41-.14.78-.37,1.08.59.44.97,1.13.97,1.92,0,1.32-1.08,2.4-2.4,2.4s-2.4-1.08-2.4-2.4c0-.79.39-1.48.97-1.92Z"/></svg>