<svg xmlns="http://www.w3.org/2000/svg" width="24" height="24" viewBox="0 0 24 24"><g opacity="0.4"><path d="m13.5,4c-2.08,0-4,.68-5.56,1.82l5.06,5.06v-2.38c0-.83.67-1.5,1.5-1.5s1.5.67,1.5,1.5v6c0,.83-.67,1.5-1.5,1.5h-6c-.83,0-1.5-.67-1.5-1.5s.67-1.5,1.5-1.5h2.38l-5.06-5.06c-1.14,1.57-1.82,3.48-1.82,5.56,0,5.24,4.26,9.5,9.5,9.5s9.5-4.26,9.5-9.5-4.26-9.5-9.5-9.5Z"/></g><path d="m7,14.5c0,.83.67,1.5,1.5,1.5h6c.83,0,1.5-.67,1.5-1.5v-6c0-.83-.67-1.5-1.5-1.5s-1.5.67-1.5,1.5v2.38l-5.44-5.44c-.59-.59-1.54-.59-2.12,0s-.59,1.54,0,2.12l5.44,5.44h-2.38c-.83,0-1.5.67-1.5,1.5Z"/></svg>