<svg xmlns="http://www.w3.org/2000/svg" width="24" height="24" viewBox="0 0 24 24"><g opacity="0.4"><path d="m21.82,5.99c-.67-.15-1.14-.43-1.71-.77-.97-.58-2.19-1.31-4.44-1.31s-3.46.73-4.44,1.31c-.86.51-1.48.89-2.9.89s-2.04-.37-2.9-.89c-.7-.42-1.52-.91-2.76-1.16-.87-.17-1.68.52-1.68,1.41v.14c0,.69.5,1.26,1.18,1.41.67.15,1.14.43,1.72.77.98.58,2.19,1.31,4.44,1.31s3.46-.73,4.44-1.31c.86-.51,1.48-.89,2.9-.89s2.04.37,2.89.89c.7.42,1.52.91,2.76,1.16.87.17,1.68-.52,1.68-1.41v-.14c0-.69-.5-1.26-1.18-1.41Z"/><path d="m21.82,16.99c-.67-.15-1.14-.43-1.71-.77-.97-.58-2.19-1.31-4.44-1.31s-3.46.73-4.44,1.31c-.86.51-1.48.89-2.9.89s-2.04-.37-2.9-.89c-.7-.42-1.52-.91-2.76-1.16-.87-.17-1.68.52-1.68,1.41v.14c0,.69.5,1.26,1.18,1.41.67.15,1.14.43,1.72.77.98.58,2.19,1.31,4.44,1.31s3.46-.73,4.44-1.31c.86-.51,1.48-.89,2.9-.89s2.04.37,2.89.89c.7.42,1.52.91,2.76,1.16.87.17,1.68-.52,1.68-1.41v-.14c0-.69-.5-1.26-1.18-1.41Z"/></g><path d="m21.82,11.49c-.67-.15-1.14-.43-1.71-.77-.97-.58-2.19-1.31-4.44-1.31s-3.46.73-4.44,1.31c-.86.51-1.48.89-2.9.89s-2.04-.37-2.9-.89c-.7-.42-1.52-.91-2.76-1.16-.87-.17-1.68.52-1.68,1.41v.14c0,.69.5,1.26,1.18,1.41.67.15,1.14.43,1.72.77.98.58,2.19,1.31,4.44,1.31s3.46-.73,4.44-1.31c.86-.51,1.48-.89,2.9-.89s2.04.37,2.89.89c.7.42,1.52.91,2.76,1.16.87.17,1.68-.52,1.68-1.41v-.14c0-.69-.5-1.26-1.18-1.41Z"/></svg>