<svg xmlns="http://www.w3.org/2000/svg" width="24" height="24" viewBox="0 0 24 24"><g opacity="0.4"><path d="m9.42,6.53c-.2-.61-.78-1.03-1.42-1.03h-1c-.65,0-1.22.41-1.42,1.03l-3.5,10.5c-.26.79.16,1.64.95,1.9.79.26,1.64-.16,1.9-.95l.49-1.47h4.17l.49,1.47c.21.63.79,1.03,1.42,1.03.16,0,.32-.02.47-.08.79-.26,1.21-1.11.95-1.9l-3.5-10.5Zm-3.01,6.97l1.09-3.26,1.09,3.26h-2.17Z"/></g><path d="m21.79,13.81h-2.29v-7.31c0-.83-.67-1.5-1.5-1.5s-1.5.67-1.5,1.5v7.31h-2.29c-.45,0-.67.54-.35.85l3.62,3.62c.29.29.77.29,1.06,0l3.62-3.62c.31-.32.09-.85-.35-.85Z"/></svg>