<svg xmlns="http://www.w3.org/2000/svg" width="24" height="24" viewBox="0 0 24 24"><g opacity="0.4"><path d="m12,3c-2.2,0-4.25.76-5.92,2.02l4.42,4.42v-.94c0-.83.67-1.5,1.5-1.5s1.5.67,1.5,1.5v3h3c.83,0,1.5.67,1.5,1.5s-.67,1.5-1.5,1.5h-.94l4.42,4.42c1.26-1.67,2.02-3.72,2.02-5.92,0-5.42-4.58-10-10-10Z"/><path d="m12,14.5c-.83,0-1.5-.67-1.5-1.5v-1.44l-5.56-5.56c-1.8,1.82-2.94,4.31-2.94,7,0,5.42,4.58,10,10,10,2.7,0,5.18-1.13,7-2.94l-5.56-5.56h-1.44Z"/></g><path d="m20.97,6.03c.15.15.34.22.53.22s.38-.07.53-.22c.29-.29.29-.77,0-1.06l-3.01-3c-.29-.29-.77-.29-1.06,0s-.29.77,0,1.06l3.01,3Z"/><path d="m15.56,14.5h.94c.83,0,1.5-.67,1.5-1.5s-.67-1.5-1.5-1.5h-3v-3c0-.83-.67-1.5-1.5-1.5s-1.5.67-1.5,1.5v.94L5.06,4l.96-.97c.29-.29.29-.77,0-1.06-.29-.29-.77-.29-1.06,0l-.96.97-1.72-1.72c-.29-.29-.77-.29-1.06,0s-.29.77,0,1.06l1.72,1.72-.97.97c-.29.29-.29.77,0,1.06.15.15.34.22.53.22s.38-.07.53-.22l.97-.97,6.5,6.5v1.44c0,.83.67,1.5,1.5,1.5h1.44l8.28,8.28c.15.15.34.22.53.22s.38-.07.53-.22c.29-.29.29-.77,0-1.06l-7.22-7.22Z"/></svg>