<svg xmlns="http://www.w3.org/2000/svg" width="24" height="24" viewBox="0 0 24 24"><g opacity="0.4"><path d="m16,7.89l-2.5,2.25V2.5c0-.83-.67-1.5-1.5-1.5s-1.5.67-1.5,1.5v7.63l-2.5-2.25c-.62-.55-1.56-.51-2.12.11-.55.62-.5,1.56.11,2.12l5,4.5c.29.26.64.39,1,.39s.72-.13,1-.39l5-4.5c.62-.55.67-1.5.11-2.12-.56-.62-1.5-.66-2.12-.11Z"/></g><path d="m20.5,11.5c-.83,0-1.5.67-1.5,1.5,0,3.86-3.14,7-7,7s-7-3.14-7-7c0-.83-.67-1.5-1.5-1.5s-1.5.67-1.5,1.5c0,5.51,4.49,10,10,10s10-4.49,10-10c0-.83-.67-1.5-1.5-1.5Z"/></svg>