<svg xmlns="http://www.w3.org/2000/svg" width="24" height="24" viewBox="0 0 24 24"><g opacity="0.4"><path d="m12.46,2.35l-8,1.45c-1.43.26-2.46,1.5-2.46,2.95v10.5c0,1.45,1.04,2.69,2.46,2.95l8,1.46c.18.03.36.05.54.05.7,0,1.38-.24,1.92-.7.68-.57,1.08-1.41,1.08-2.3V5.3c0-.89-.39-1.73-1.08-2.3-.68-.57-1.58-.81-2.46-.65Z"/></g><path d="m21.25,2c-.41,0-.75.34-.75.75v18.5c0,.41.34.75.75.75s.75-.34.75-.75V2.75c0-.41-.34-.75-.75-.75Z"/><path d="m18.25,2c-.41,0-.75.34-.75.75v18.5c0,.41.34.75.75.75s.75-.34.75-.75V2.75c0-.41-.34-.75-.75-.75Z"/></svg>