<svg xmlns="http://www.w3.org/2000/svg" width="24" height="24" viewBox="0 0 24 24"><g opacity="0.4"><path d="m13.34,9.77c-.38.31-.74.63-1.09.98-1.29,1.29-2.33,2.82-3.07,4.52-.34-.48-.71-.93-1.12-1.34-1.46-1.46-3.38-2.48-5.51-2.81-.82-.13-1.56.55-1.56,1.38v.23c0,.69.52,1.25,1.2,1.37,1.45.25,2.75.95,3.75,1.95.99.99,1.68,2.26,1.94,3.69.14.74.82,1.26,1.58,1.26h.04c.82,0,1.49-.62,1.59-1.44.33-2.6,1.52-4.93,3.28-6.69.26-.26.53-.51.81-.74-.84-.57-1.48-1.4-1.85-2.36Z"/></g><path d="M18 3A5 5 0 1 0 18 13 5 5 0 1 0 18 3z"/></svg>