<svg xmlns="http://www.w3.org/2000/svg" width="24" height="24" viewBox="0 0 24 24"><g opacity="0.4"><path d="M19.5 1A2.5 2.5 0 1 0 19.5 6 2.5 2.5 0 1 0 19.5 1z"/><path d="m16.15,12.25l-.5.04,1.13-1.26c.75-.83,1.12-1.95,1.01-3.06-.11-1.11-.69-2.14-1.58-2.81l-1.73-1.3c-1.79-1.34-4.3-1.17-5.88.42l-1.6,1.6c-.59.59-.59,1.54,0,2.12.59.59,1.54.59,2.12,0l1.6-1.6c.53-.53,1.36-.59,1.96-.14l.58.43-3.38,3.75c1.97.77,3.5,2.5,3.96,4.58.03.14.03.27.05.4l2.49-.19c.42-.03.82.11,1.13.39.31.29.48.68.48,1.1v2.76c0,.83.67,1.5,1.5,1.5h0c.83,0,1.5-.67,1.5-1.5v-2.76c0-1.25-.53-2.45-1.44-3.3-.92-.85-2.15-1.28-3.4-1.18Z"/></g><path d="m5.34,12.58c.33.41.87.64,1.38.51.69-.17,1.47-.12,2.28.26.85.4,1.52,1.14,1.81,2.03.3.93.21,1.8-.13,2.54-.23.5-.21,1.08.14,1.5l.12.15c.65.81,1.95.7,2.4-.24.62-1.26.83-2.75.49-4.3-.52-2.34-2.38-4.25-4.71-4.83-1.09-.27-2.15-.26-3.12-.03-1.01.24-1.4,1.48-.75,2.29l.09.11Z"/><path d="m8.32,22.95c1.1-.14,1.6-1.46.91-2.32l-.06-.08c-.31-.39-.8-.63-1.29-.57-.65.08-1.36-.04-2.16-.58-.96-.66-1.68-1.67-1.7-2.84,0-.4.06-.79.18-1.15.15-.45.1-.95-.19-1.32l-.14-.17c-.69-.86-2.09-.67-2.46.37-.36,1-.49,2.1-.31,3.26.42,2.66,2.54,4.84,5.18,5.34.7.13,1.39.15,2.05.06Z"/></svg>