<svg xmlns="http://www.w3.org/2000/svg" width="24" height="24" viewBox="0 0 24 24"><g opacity="0.4"><path d="m20,13.5c0-2.08-.68-4-1.82-5.56l-5.06,5.06h2.38c.83,0,1.5.67,1.5,1.5s-.67,1.5-1.5,1.5h-6c-.83,0-1.5-.67-1.5-1.5v-6c0-.83.67-1.5,1.5-1.5s1.5.67,1.5,1.5v2.38l5.06-5.06c-1.57-1.14-3.48-1.82-5.56-1.82C5.26,4,1,8.26,1,13.5s4.26,9.5,9.5,9.5,9.5-4.26,9.5-9.5Z"/></g><path d="m9.5,7c-.83,0-1.5.67-1.5,1.5v6c0,.83.67,1.5,1.5,1.5h6c.83,0,1.5-.67,1.5-1.5s-.67-1.5-1.5-1.5h-2.38l5.44-5.44c.59-.59.59-1.54,0-2.12s-1.54-.59-2.12,0l-5.44,5.44v-2.38c0-.83-.67-1.5-1.5-1.5Z"/></svg>