<svg xmlns="http://www.w3.org/2000/svg" width="24" height="24" viewBox="0 0 24 24"><g opacity="0.4"><path d="m14,1c-4.97,0-9,4.03-9,9,0,1.94.62,3.74,1.67,5.21l4.27-4.27-1.66-1.66c-.47-.47-.14-1.28.53-1.28h5.44c.41,0,.75.34.75.75v5.44c0,.67-.81,1-1.28.53l-1.66-1.66-4.27,4.27c1.47,1.05,3.27,1.67,5.21,1.67,4.97,0,9-4.03,9-9S18.97,1,14,1Z"/></g><path d="m4.44,19.56c.29.29.68.44,1.06.44s.77-.15,1.06-.44l6.5-6.5,1.66,1.66c.47.47,1.28.14,1.28-.53v-5.44c0-.41-.34-.75-.75-.75h-5.44c-.67,0-1,.81-.53,1.28l1.66,1.66-6.5,6.5c-.59.59-.59,1.54,0,2.12Z"/></svg>