<svg xmlns="http://www.w3.org/2000/svg" width="24" height="24" viewBox="0 0 24 24"><g opacity="0.4"><path d="m6.5,22h6c2.48,0,4.5-2.02,4.5-4.5v-6c0-.69-.17-1.34-.45-1.93l-3.49,3.49c-.29.29-.68.44-1.06.44s-.77-.15-1.06-.44c-.59-.59-.59-1.54,0-2.12l3.49-3.49c-.59-.28-1.24-.45-1.93-.45h-6c-2.48,0-4.5,2.02-4.5,4.5v6c0,2.48,2.02,4.5,4.5,4.5Z"/></g><path d="m20.5,2h-6c-.83,0-1.5.67-1.5,1.5s.67,1.5,1.5,1.5h2.38l-5.94,5.94c-.59.59-.59,1.54,0,2.12.29.29.68.44,1.06.44s.77-.15,1.06-.44l5.94-5.94v2.38c0,.83.67,1.5,1.5,1.5s1.5-.67,1.5-1.5V3.5c0-.83-.67-1.5-1.5-1.5Z"/></svg>