<svg xmlns="http://www.w3.org/2000/svg" width="24" height="24" viewBox="0 0 24 24"><g opacity="0.4"><path d="m6.5,20h9c.69,0,1.34-.17,1.93-.45l-5.43-5.43v2.38c0,.83-.67,1.5-1.5,1.5s-1.5-.67-1.5-1.5v-6c0-.83.67-1.5,1.5-1.5h6c.83,0,1.5.67,1.5,1.5s-.67,1.5-1.5,1.5h-2.38l5.43,5.43c.28-.59.45-1.24.45-1.93V6.5c0-2.48-2.02-4.5-4.5-4.5H6.5c-2.48,0-4.5,2.02-4.5,4.5v9c0,2.48,2.02,4.5,4.5,4.5Z"/></g><path d="m18,10.5c0-.83-.67-1.5-1.5-1.5h-6c-.83,0-1.5.67-1.5,1.5v6c0,.83.67,1.5,1.5,1.5s1.5-.67,1.5-1.5v-2.38l6.44,6.44c.29.29.68.44,1.06.44s.77-.15,1.06-.44c.59-.59.59-1.54,0-2.12l-6.44-6.44h2.38c.83,0,1.5-.67,1.5-1.5Z"/></svg>