<svg xmlns="http://www.w3.org/2000/svg" width="24" height="24" viewBox="0 0 24 24"><g opacity="0.4"><path d="m17.5,2H6.5c-2.48,0-4.5,2.02-4.5,4.5v11c0,2.48,2.02,4.5,4.5,4.5h11c2.48,0,4.5-2.02,4.5-4.5V6.5c0-2.48-2.02-4.5-4.5-4.5Zm-.44,11.06l-3.94,3.94c-.59.59-1.54.59-2.12,0-.59-.59-.59-1.54,0-2.12l1.38-1.38h-4.88c-.83,0-1.5-.67-1.5-1.5h0c0-.83.67-1.5,1.5-1.5h4.88l-1.38-1.38c-.59-.59-.59-1.54,0-2.12.59-.59,1.54-.59,2.12,0l3.94,3.94c.29.29.44.68.44,1.06s-.15.77-.44,1.06Z"/></g><path d="m6,12h0c0,.83.67,1.5,1.5,1.5h4.88l-1.38,1.38c-.59.59-.59,1.54,0,2.12.59.59,1.54.59,2.12,0l3.94-3.94c.29-.29.44-.68.44-1.06s-.15-.77-.44-1.06l-3.94-3.94c-.59-.59-1.54-.59-2.12,0-.59.59-.59,1.54,0,2.12l1.38,1.38h-4.88c-.83,0-1.5.67-1.5,1.5Z"/></svg>