<svg xmlns="http://www.w3.org/2000/svg" width="24" height="24" viewBox="0 0 24 24"><g opacity="0.4"><path d="m14,5c-1.94,0-3.74.62-5.21,1.67l4.27,4.27,1.66-1.66c.47-.47,1.28-.14,1.28.53v5.44c0,.41-.34.75-.75.75h-5.44c-.67,0-1-.81-.53-1.28l1.66-1.66-4.27-4.27c-1.05,1.47-1.67,3.27-1.67,5.21,0,4.97,4.03,9,9,9s9-4.03,9-9-4.03-9-9-9Z"/></g><path d="m9.28,14.72c-.47.47-.14,1.28.53,1.28h5.44c.41,0,.75-.34.75-.75v-5.44c0-.67-.81-1-1.28-.53l-1.66,1.66-6.5-6.5c-.59-.59-1.54-.59-2.12,0s-.59,1.54,0,2.12l6.5,6.5-1.66,1.66Z"/></svg>