<svg xmlns="http://www.w3.org/2000/svg" width="24" height="24" viewBox="0 0 24 24"><g opacity="0.4"><path d="m20.48,3.09c-.83-1.31-2.25-2.09-3.8-2.09H7.32c-1.55,0-2.97.78-3.8,2.09l-1.82,2.87c-.46.72-.7,1.55-.7,2.41v10.13c0,2.48,2.02,4.5,4.5,4.5h13c2.48,0,4.5-2.02,4.5-4.5v-10.13c0-.85-.24-1.69-.7-2.41l-1.82-2.87Zm-5.29,11.91h-1.69v2.5c0,.83-.67,1.5-1.5,1.5s-1.5-.67-1.5-1.5v-2.5h-1.69c-.67,0-1-.81-.53-1.28l3.19-3.19c.29-.29.77-.29,1.06,0l3.19,3.19c.47.47.14,1.28-.53,1.28ZM5.23,6l.83-1.3c.28-.44.75-.7,1.27-.7h9.36c.52,0,.99.26,1.27.7l.83,1.3H5.23Z"/></g><path d="m12,19c.83,0,1.5-.67,1.5-1.5v-2.5h1.69c.67,0,1-.81.53-1.28l-3.19-3.19c-.29-.29-.77-.29-1.06,0l-3.19,3.19c-.47.47-.14,1.28.53,1.28h1.69v2.5c0,.83.67,1.5,1.5,1.5Z"/><path d="m17.95,4.7c-.28-.44-.75-.7-1.27-.7H7.32c-.52,0-.99.26-1.27.7l-.83,1.3h13.55l-.83-1.3Z"/></svg>