<svg xmlns="http://www.w3.org/2000/svg" width="24" height="24" viewBox="0 0 24 24"><g opacity="0.4"><path d="m21.5,19H5.65L18.29,3.45c.52-.64.42-1.59-.22-2.11-.64-.52-1.59-.42-2.11.22L1.34,19.55c-.37.45-.44,1.07-.19,1.59.25.52.78.86,1.35.86h19c.83,0,1.5-.67,1.5-1.5s-.67-1.5-1.5-1.5Z"/></g><path d="m14.66,19h3.06c-.63-3.5-2.33-6.62-4.74-9.02l-1.9,2.33c1.29,1.34,2.31,2.93,2.99,4.69.25.64.44,1.31.59,2Z"/><path d="m2.35,8.06c2.37.23,4.57,1.05,6.45,2.31l1.89-2.32c-2.33-1.62-5.07-2.69-8.05-2.98-.88-.08-1.63.62-1.63,1.5,0,.77.58,1.41,1.35,1.48Z"/></svg>