<svg xmlns="http://www.w3.org/2000/svg" width="24" height="24" viewBox="0 0 24 24"><g opacity="0.4"><path d="m17.5,4h-9c-.69,0-1.34.17-1.93.45l5.43,5.43v-2.38c0-.83.67-1.5,1.5-1.5s1.5.67,1.5,1.5v6c0,.83-.67,1.5-1.5,1.5h-6c-.83,0-1.5-.67-1.5-1.5s.67-1.5,1.5-1.5h2.38l-5.43-5.43c-.28.59-.45,1.24-.45,1.93v9c0,2.48,2.02,4.5,4.5,4.5h9c2.48,0,4.5-2.02,4.5-4.5v-9c0-2.48-2.02-4.5-4.5-4.5Z"/></g><path d="m7.5,12c-.83,0-1.5.67-1.5,1.5s.67,1.5,1.5,1.5h6c.83,0,1.5-.67,1.5-1.5v-6c0-.83-.67-1.5-1.5-1.5s-1.5.67-1.5,1.5v2.38L5.56,3.44c-.59-.59-1.54-.59-2.12,0s-.59,1.54,0,2.12l6.44,6.44h-2.38Z"/></svg>