<svg xmlns="http://www.w3.org/2000/svg" width="24" height="24" viewBox="0 0 24 24"><g opacity="0.4"><path d="m17.5,2H6.5c-2.49,0-4.5,2.01-4.5,4.5v11c0,2.49,2.01,4.5,4.5,4.5h11c2.49,0,4.5-2.01,4.5-4.5V6.5c0-2.49-2.01-4.5-4.5-4.5Zm-2.71,11.72l-1.19-1.19-2.47,2.47c-.59.59-1.54.59-2.12,0-.59-.59-.59-1.54,0-2.12l2.47-2.47-1.19-1.19c-.47-.47-.14-1.28.53-1.28h4.51c.41,0,.75.34.75.75v4.51c0,.67-.81,1-1.28.53Z"/></g><path d="m8.99,15.01c.59.59,1.54.59,2.12,0l2.47-2.47,1.19,1.19c.47.47,1.28.14,1.28-.53v-4.51c0-.41-.34-.75-.75-.75h-4.51c-.67,0-1,.81-.53,1.28l1.19,1.19-2.47,2.47c-.59.59-.59,1.54,0,2.12Z"/></svg>