<svg xmlns="http://www.w3.org/2000/svg" width="24" height="24" viewBox="0 0 24 24"><g opacity="0.4"><path d="m17.5,2H6.5c-2.48,0-4.5,2.02-4.5,4.5v11c0,2.48,2.02,4.5,4.5,4.5h11c2.48,0,4.5-2.02,4.5-4.5V6.5c0-2.48-2.02-4.5-4.5-4.5Zm-1.78,11.28l-3.19,3.19c-.29.29-.77.29-1.06,0l-3.19-3.19c-.47-.47-.14-1.28.53-1.28h1.69v-3.5c0-.83.67-1.5,1.5-1.5s1.5.67,1.5,1.5v3.5h1.69c.67,0,1,.81.53,1.28Z"/></g><path d="m11.47,16.47c.29.29.77.29,1.06,0l3.19-3.19c.47-.47.14-1.28-.53-1.28h-1.69v-3.5c0-.83-.67-1.5-1.5-1.5s-1.5.67-1.5,1.5v3.5h-1.69c-.67,0-1,.81-.53,1.28l3.19,3.19Z"/></svg>