<svg xmlns="http://www.w3.org/2000/svg" width="24" height="24" viewBox="0 0 24 24"><g opacity="0.4"><path d="m10,23c4.97,0,9-4.03,9-9,0-1.94-.62-3.74-1.67-5.21l-4.27,4.27c-.29.29-.68.44-1.06.44s-.77-.15-1.06-.44c-.59-.59-.59-1.54,0-2.12l4.27-4.27c-1.47-1.05-3.27-1.67-5.21-1.67C5.03,5,1,9.03,1,14s4.03,9,9,9Z"/></g><path d="m22.25,1h-5.44c-.67,0-1,.81-.53,1.28l1.66,1.66-7,7c-.59.59-.59,1.54,0,2.12.29.29.68.44,1.06.44s.77-.15,1.06-.44l7-7,1.66,1.66c.47.47,1.28.14,1.28-.53V1.75c0-.41-.34-.75-.75-.75Z"/></svg>