<svg xmlns="http://www.w3.org/2000/svg" width="24" height="24" viewBox="0 0 24 24"><g opacity="0.4"><path d="m18.12,6c-.56-.62-1.5-.66-2.12-.11-.62.55-.67,1.5-.11,2.12l2.25,2.5h-7.63c-.83,0-1.5.67-1.5,1.5s.67,1.5,1.5,1.5h7.63l-2.25,2.5c-.55.62-.5,1.56.11,2.12.29.26.65.39,1,.39.41,0,.82-.17,1.12-.5l4.5-5c.51-.57.51-1.44,0-2.01l-4.5-5Z"/></g><path d="m12.5,20.5c0-.83-.67-1.5-1.5-1.5-3.86,0-7-3.14-7-7s3.14-7,7-7c.83,0,1.5-.67,1.5-1.5s-.67-1.5-1.5-1.5C5.49,2,1,6.49,1,12s4.49,10,10,10c.83,0,1.5-.67,1.5-1.5Z"/></svg>