<svg xmlns="http://www.w3.org/2000/svg" width="24" height="24" viewBox="0 0 24 24"><g opacity="0.4"><path d="m6.5,17h6c.69,0,1.34-.17,1.93-.45l-3.49-3.49c-.59-.59-.59-1.54,0-2.12.59-.59,1.54-.59,2.12,0l3.49,3.49c.28-.59.45-1.24.45-1.93v-6c0-2.49-2.01-4.5-4.5-4.5h-6c-2.49,0-4.5,2.01-4.5,4.5v6c0,2.49,2.01,4.5,4.5,4.5Z"/></g><path d="m20.72,15.28l-1.66,1.66-6-6c-.59-.59-1.54-.59-2.12,0-.59.59-.59,1.54,0,2.12l6,6-1.66,1.66c-.47.47-.14,1.28.53,1.28h5.44c.41,0,.75-.34.75-.75v-5.44c0-.67-.81-1-1.28-.53Z"/></svg>