<svg xmlns="http://www.w3.org/2000/svg" width="24" height="24" viewBox="0 0 24 24"><g opacity="0.4"><path d="m21.44,12h-.1c-.73,0-1.32.55-1.44,1.28-.1.63-.28,1.24-.53,1.83-.4.95-.98,1.81-1.72,2.54-.73.74-1.59,1.31-2.54,1.72-1.97.83-4.26.83-6.23,0-.14-.06-.27-.13-.4-.19,0-.06.02-.12.02-.18,0-1.66-1.34-3-3-3s-3,1.34-3,3,1.34,3,3,3c.47,0,.91-.12,1.3-.31.3.16.6.31.92.44,1.36.57,2.8.87,4.28.87s2.93-.29,4.28-.86c1.31-.55,2.49-1.35,3.5-2.36,1.01-1.01,1.8-2.19,2.36-3.5.36-.86.61-1.75.75-2.66.13-.86-.58-1.62-1.45-1.62Z"/><path d="m2.66,12c.73,0,1.32-.55,1.44-1.28.1-.63.28-1.24.53-1.83.4-.95.98-1.81,1.72-2.54.73-.74,1.59-1.31,2.54-1.72,1.97-.83,4.26-.83,6.23,0,.14.06.27.13.4.19,0,.06-.02.12-.02.18,0,1.66,1.34,3,3,3s3-1.34,3-3-1.34-3-3-3c-.47,0-.91.12-1.3.31-.3-.16-.6-.31-.92-.44-2.71-1.15-5.85-1.15-8.56,0-1.31.55-2.49,1.35-3.5,2.36-1.01,1.01-1.8,2.19-2.36,3.5-.36.86-.61,1.75-.75,2.66-.13.86.58,1.62,1.45,1.62h.1Z"/></g><path d="M12 7A5 5 0 1 0 12 17 5 5 0 1 0 12 7z"/></svg>