<svg xmlns="http://www.w3.org/2000/svg" width="24" height="24" viewBox="0 0 24 24"><g opacity="0.4"><path d="m17.5,2H6.5c-2.48,0-4.5,2.02-4.5,4.5v11c0,2.48,2.02,4.5,4.5,4.5h11c2.48,0,4.5-2.02,4.5-4.5V6.5c0-2.48-2.02-4.5-4.5-4.5Zm-1.5,14c-.59.59-1.54.59-2.12,0l-3.88-3.88v1.88c0,.83-.67,1.5-1.5,1.5h0c-.83,0-1.5-.67-1.5-1.5v-5.5c0-.83.67-1.5,1.5-1.5h5.5c.83,0,1.5.67,1.5,1.5h0c0,.83-.67,1.5-1.5,1.5h-1.88l3.88,3.88c.59.59.59,1.54,0,2.12Z"/></g><path d="m15.5,8.5h0c0-.83-.67-1.5-1.5-1.5h-5.5c-.83,0-1.5.67-1.5,1.5v5.5c0,.83.67,1.5,1.5,1.5h0c.83,0,1.5-.67,1.5-1.5v-1.88l3.88,3.88c.59.59,1.54.59,2.12,0,.59-.59.59-1.54,0-2.12l-3.88-3.88h1.88c.83,0,1.5-.67,1.5-1.5Z"/></svg>