<svg xmlns="http://www.w3.org/2000/svg" width="24" height="24" viewBox="0 0 24 24"><g opacity="0.4"><path d="m17.94,2.32c-.84-.84-2-1.32-3.18-1.32h-5.52c-1.18,0-2.34.48-3.18,1.32l-3.74,3.74c-.85.85-1.32,1.98-1.32,3.18v5.51c0,1.2.47,2.33,1.32,3.18l3.74,3.74c.84.84,2,1.32,3.18,1.32h5.52c1.18,0,2.34-.48,3.18-1.32l3.74-3.74c.85-.85,1.32-1.98,1.32-3.18v-5.51c0-1.2-.47-2.33-1.32-3.18l-3.74-3.74Zm-5.94,15.68c-.83,0-1.5-.67-1.5-1.5s.67-1.5,1.5-1.5,1.5.67,1.5,1.5-.67,1.5-1.5,1.5Zm1.5-6.5c0,.83-.67,1.5-1.5,1.5s-1.5-.67-1.5-1.5v-4c0-.83.67-1.5,1.5-1.5s1.5.67,1.5,1.5v4Z"/></g><path d="m13.5,7.5c0-.83-.67-1.5-1.5-1.5s-1.5.67-1.5,1.5v4c0,.83.67,1.5,1.5,1.5s1.5-.67,1.5-1.5v-4Z"/><path d="M12 15A1.5 1.5 0 1 0 12 18 1.5 1.5 0 1 0 12 15z"/></svg>