<svg xmlns="http://www.w3.org/2000/svg" width="24" height="24" viewBox="0 0 24 24"><g opacity="0.4"><path d="m15.25,2.2c-.46-.27-1.03-.27-1.5,0l-6.31,3.6c-.23.13-.48.2-.74.2h-.7c-2.76,0-5,2.24-5,5s2.24,5,5,5h.7c.26,0,.52.07.74.2l6.31,3.6c.23.13.49.2.74.2s.52-.07.75-.2c.46-.27.75-.76.75-1.3V3.5c0-.54-.28-1.03-.75-1.3Z"/></g><path d="m22.25,10.25h-2c-.41,0-.75.34-.75.75s.34.75.75.75h2c.41,0,.75-.34.75-.75s-.34-.75-.75-.75Z"/><path d="m19.75,8.25c.14,0,.29-.04.42-.13l1.5-1c.34-.23.44-.7.21-1.04s-.69-.44-1.04-.21l-1.5,1c-.34.23-.44.7-.21,1.04.14.22.38.33.62.33Z"/><path d="m20.17,13.88c-.34-.23-.81-.14-1.04.21s-.14.81.21,1.04l1.5,1c.13.08.27.13.42.13.24,0,.48-.12.62-.33.23-.34.14-.81-.21-1.04l-1.5-1Z"/><path d="m16,8.18v5.63c1.16-.41,2-1.51,2-2.82s-.84-2.4-2-2.82Z"/><path d="m6.62,22c.12,0,.24-.01.37-.04.8-.2,1.29-1.02,1.09-1.82l-1.02-4.09c-.12-.03-.23-.05-.35-.05h-.7c-.78,0-1.52-.2-2.18-.52l1.35,5.38c.17.68.78,1.14,1.45,1.14Z"/></svg>