<svg xmlns="http://www.w3.org/2000/svg" width="24" height="24" viewBox="0 0 24 24"><g opacity="0.4"><path d="m12,1C5.94,1,1,5.93,1,12c0,6.07,4.94,11,11,11s11-4.93,11-11c0-6.07-4.94-11-11-11Zm5,13c0,.83-.67,1.5-1.5,1.5h0c-.83,0-1.5-.67-1.5-1.5v-1.88l-3.88,3.88c-.59.59-1.54.59-2.12,0-.59-.59-.59-1.54,0-2.12l3.88-3.88h-1.88c-.83,0-1.5-.67-1.5-1.5h0c0-.83.67-1.5,1.5-1.5h5.5c.83,0,1.5.67,1.5,1.5v5.5Z"/></g><path d="m8,16c.59.59,1.54.59,2.12,0l3.88-3.88v1.88c0,.83.67,1.5,1.5,1.5h0c.83,0,1.5-.67,1.5-1.5v-5.5c0-.83-.67-1.5-1.5-1.5h-5.5c-.83,0-1.5.67-1.5,1.5h0c0,.83.67,1.5,1.5,1.5h1.88l-3.88,3.88c-.59.59-.59,1.54,0,2.12Z"/></svg>