<svg xmlns="http://www.w3.org/2000/svg" width="24" height="24" viewBox="0 0 24 24"><g opacity="0.4"><path d="m13.5,1c-5.24,0-9.5,4.26-9.5,9.5,0,2.08.68,4,1.82,5.56l5.06-5.06h-2.38c-.83,0-1.5-.67-1.5-1.5s.67-1.5,1.5-1.5h6c.83,0,1.5.67,1.5,1.5v6c0,.83-.67,1.5-1.5,1.5s-1.5-.67-1.5-1.5v-2.38l-5.06,5.06c1.57,1.14,3.48,1.82,5.56,1.82,5.24,0,9.5-4.26,9.5-9.5S18.74,1,13.5,1Z"/></g><path d="m14.5,17c.83,0,1.5-.67,1.5-1.5v-6c0-.83-.67-1.5-1.5-1.5h-6c-.83,0-1.5.67-1.5,1.5s.67,1.5,1.5,1.5h2.38l-5.44,5.44c-.59.59-.59,1.54,0,2.12.29.29.68.44,1.06.44s.77-.15,1.06-.44l5.44-5.44v2.38c0,.83.67,1.5,1.5,1.5Z"/></svg>