<svg xmlns="http://www.w3.org/2000/svg" width="24" height="24" viewBox="0 0 24 24"><g opacity="0.4"><path d="m12,3C6.58,3,2,7.58,2,13s4.58,10,10,10,10-4.58,10-10S17.42,3,12,3Zm4.5,11.5h-4.5c-.83,0-1.5-.67-1.5-1.5v-4.5c0-.83.67-1.5,1.5-1.5s1.5.67,1.5,1.5v3h3c.83,0,1.5.67,1.5,1.5s-.67,1.5-1.5,1.5Z"/></g><path d="m19.02,1.97c-.29-.29-.77-.29-1.06,0s-.29.77,0,1.06l3.01,3c.15.15.34.22.53.22s.38-.07.53-.22c.29-.29.29-.77,0-1.06l-3.01-3Z"/><path d="m3.03,6.03l2.99-3c.29-.29.29-.77,0-1.06-.29-.29-.77-.29-1.06,0l-2.99,3c-.29.29-.29.77,0,1.06.15.15.34.22.53.22s.38-.07.53-.22Z"/><path d="m12,14.5h4.5c.83,0,1.5-.67,1.5-1.5s-.67-1.5-1.5-1.5h-3v-3c0-.83-.67-1.5-1.5-1.5s-1.5.67-1.5,1.5v4.5c0,.83.67,1.5,1.5,1.5Z"/></svg>