<svg xmlns="http://www.w3.org/2000/svg" width="24" height="24" viewBox="0 0 24 24"><g opacity="0.4"><path d="m6.57,4.63c.1.25.23.5.38.73.15.23.33.45.52.65.13.13.24.27.34.42.1.15.18.31.25.47.07.16.12.33.15.51.03.17.05.35.05.53v.27c0,.41.34.75.75.75s.75-.34.75-.75v-.27c0-.28-.03-.55-.08-.82-.05-.27-.13-.53-.24-.79-.1-.25-.23-.5-.38-.73-.15-.23-.33-.45-.52-.64-.13-.13-.24-.27-.34-.42-.1-.15-.18-.31-.25-.47-.07-.16-.12-.33-.15-.51-.03-.17-.05-.35-.05-.53v-.25c0-.41-.34-.75-.75-.75s-.75.34-.75.75v.25c0,.28.03.55.08.82.05.27.13.53.24.79Z"/><path d="m10.57,4.63c.1.25.23.5.38.73.15.23.33.45.52.65.13.13.24.27.34.42.1.15.18.31.25.47.07.16.12.33.15.51.03.17.05.35.05.53v.27c0,.41.34.75.75.75s.75-.34.75-.75v-.27c0-.28-.03-.55-.08-.82-.05-.27-.13-.53-.24-.79-.1-.25-.23-.5-.38-.73-.15-.23-.33-.45-.52-.64-.13-.13-.24-.27-.34-.42-.1-.15-.18-.31-.25-.47-.07-.16-.12-.33-.15-.51-.03-.17-.05-.35-.05-.53v-.25c0-.41-.34-.75-.75-.75s-.75.34-.75.75v.25c0,.28.03.55.08.82.05.27.13.53.24.79Z"/><path d="m14.57,4.63c.1.25.23.5.38.73.15.23.33.45.52.65.13.13.24.27.34.42.1.15.18.31.25.47.07.16.12.33.15.51.03.17.05.35.05.53v.27c0,.41.34.75.75.75s.75-.34.75-.75v-.27c0-.28-.03-.55-.08-.82-.05-.27-.13-.53-.24-.79-.1-.25-.23-.5-.38-.73-.15-.23-.33-.45-.52-.64-.13-.13-.24-.27-.34-.42-.1-.15-.18-.31-.25-.47-.07-.16-.12-.33-.15-.51-.03-.17-.05-.35-.05-.53v-.25c0-.41-.34-.75-.75-.75s-.75.34-.75.75v.25c0,.28.03.55.08.82.05.27.13.53.24.79Z"/></g><path d="m20.72,10H3.28c-.63,0-1.23.26-1.65.73-.43.47-.65,1.1-.59,1.74.29,3.42,2.09,6.31,4.96,8v.29c0,1.24,1.01,2.25,2.25,2.25h7.5c1.24,0,2.25-1.01,2.25-2.25v-.29c2.87-1.69,4.67-4.58,4.96-8h0c.05-.64-.16-1.27-.59-1.74-.42-.46-1.03-.73-1.65-.73Z"/></svg>