<svg xmlns="http://www.w3.org/2000/svg" width="24" height="24" viewBox="0 0 24 24"><g opacity="0.4"><path d="m20,8.38v-2.38c0-1.1-.9-2-2-2h-2.38l-2.21-2.21c-.78-.78-2.05-.78-2.83,0l-2.21,2.21h-2.38c-1.1,0-2,.9-2,2v2.38l-2.21,2.21c-.78.78-.78,2.05,0,2.83l2.21,2.21v2.38c0,1.1.9,2,2,2h2.38l2.21,2.21c.39.39.9.58,1.41.58s1.02-.19,1.41-.58l2.21-2.21h2.38c1.1,0,2-.9,2-2v-2.38l2.21-2.21c.78-.78.78-2.05,0-2.83l-2.21-2.21Zm-8,8.12c-2.48,0-4.5-2.02-4.5-4.5s2.02-4.5,4.5-4.5,4.5,2.02,4.5,4.5-2.02,4.5-4.5,4.5Z"/></g><path d="M12 7.5A4.5 4.5 0 1 0 12 16.5 4.5 4.5 0 1 0 12 7.5z"/></svg>