<svg xmlns="http://www.w3.org/2000/svg" width="24" height="24" viewBox="0 0 24 24"><g opacity="0.4"><path d="m18.5,3h-9c-1.42,0-2.77.69-3.61,1.84l-3.95,5.39c-.78,1.06-.78,2.49,0,3.55l3.95,5.39c.84,1.14,2.19,1.83,3.61,1.84h0s.02,0,.02,0h8.98c2.48,0,4.5-2.02,4.5-4.5V7.5c0-2.48-2.02-4.5-4.5-4.5Zm0,10.88c.59.59.59,1.54,0,2.12-.59.59-1.54.59-2.12,0l-1.88-1.88-1.88,1.88c-.59.59-1.54.59-2.12,0-.59-.59-.59-1.54,0-2.12l1.88-1.88-1.88-1.88c-.59-.59-.59-1.54,0-2.12.59-.59,1.54-.59,2.12,0l1.88,1.88,1.88-1.88c.59-.59,1.54-.59,2.12,0,.59.59.59,1.54,0,2.12l-1.88,1.88,1.88,1.88Z"/></g><path d="m10.5,16c.59.59,1.54.59,2.12,0l1.88-1.88,1.88,1.88c.59.59,1.54.59,2.12,0,.59-.59.59-1.54,0-2.12l-1.88-1.88,1.88-1.88c.59-.59.59-1.54,0-2.12-.59-.59-1.54-.59-2.12,0l-1.88,1.88-1.88-1.88c-.59-.59-1.54-.59-2.12,0-.59.59-.59,1.54,0,2.12l1.88,1.88-1.88,1.88c-.59.59-.59,1.54,0,2.12Z"/></svg>