<svg xmlns="http://www.w3.org/2000/svg" width="24" height="24" viewBox="0 0 24 24"><g opacity="0.4"><path d="m1.62,9.95c-.36.06-.62.37-.62.73,0,.46.41.82.87.75.8-.13,1.53-.45,2.13-.89v-2.25c-.41.84-1.29,1.48-2.38,1.66Z"/><path d="m12,9.5c-2.76,0-5-2.24-5-5v4.14c1.04,1.26,2.54,2.12,4.25,2.32v4.05h1.5v-4.05c1.71-.2,3.21-1.06,4.25-2.32v-4.14c0,2.76-2.24,5-5,5Z"/><path d="m22.38,9.45c-1.08-.18-1.97-.82-2.38-1.66v2.25c.61.44,1.33.76,2.13.89.45.08.87-.29.87-.75,0-.36-.26-.67-.62-.73Z"/></g><path d="m21.5,15h-1.5V3.5c0-.83-.67-1.5-1.5-1.5s-1.5.67-1.5,1.5v11.5H7V3.5c0-.83-.67-1.5-1.5-1.5s-1.5.67-1.5,1.5v11.5h-1.5c-.83,0-1.5.67-1.5,1.5s.67,1.5,1.5,1.5h1.5v2.5c0,.83.67,1.5,1.5,1.5s1.5-.67,1.5-1.5v-2.5h10v2.5c0,.83.67,1.5,1.5,1.5s1.5-.67,1.5-1.5v-2.5h1.5c.83,0,1.5-.67,1.5-1.5s-.67-1.5-1.5-1.5Z"/></svg>