<svg xmlns="http://www.w3.org/2000/svg" width="24" height="24" viewBox="0 0 24 24"><g opacity="0.4"><path d="m19.5,1H5.5c-1.93,0-3.5,1.57-3.5,3.5v14.5c0,2.21,1.79,4,4,4h14.5c.83,0,1.5-.67,1.5-1.5s-.67-1.5-1.5-1.5H6c-.55,0-1-.45-1-1s.45-1,1-1h13.5c1.38,0,2.5-1.12,2.5-2.5V3.5c0-1.38-1.12-2.5-2.5-2.5Zm-3.65,8.74l-2.55,2.5c-.44.43-1.14.43-1.59,0l-2.55-2.5c-.95-.93-.86-2.45.26-3.28.89-.65,2.13-.49,2.92.29l.16.16.16-.16c.79-.77,2.03-.94,2.92-.29,1.13.82,1.22,2.35.26,3.28Z"/></g><path d="m6,20h13c-.55,0-1-.45-1-1s.45-1,1-1H6c-.55,0-1,.45-1,1s.45,1,1,1Z"/><path d="m11.71,12.24c.44.43,1.14.43,1.59,0l2.55-2.5c.95-.93.86-2.45-.26-3.28-.89-.65-2.13-.49-2.92.29l-.16.16-.16-.16c-.79-.77-2.03-.94-2.92-.29-1.13.82-1.22,2.35-.26,3.28l2.55,2.5Z"/></svg>