<svg xmlns="http://www.w3.org/2000/svg" width="24" height="24" viewBox="0 0 24 24"><g opacity="0.4"><path d="m12,1C7.04,1,3,5.01,3,9.94c0,5.71,3.54,10.42,8.06,11l-1.21,1.21c-.32.32-.09.85.35.85h3.59c.45,0,.67-.54.35-.85l-1.21-1.21c4.52-.58,8.06-5.29,8.06-11,0-4.93-4.04-8.94-9-8.94Zm0,6c-1.65,0-3,1.35-3,3,0,.83-.67,1.5-1.5,1.5s-1.5-.67-1.5-1.5c0-3.31,2.69-6,6-6,.83,0,1.5.67,1.5,1.5s-.67,1.5-1.5,1.5Z"/></g><path d="m7.5,11.5c.83,0,1.5-.67,1.5-1.5,0-1.65,1.35-3,3-3,.83,0,1.5-.67,1.5-1.5s-.67-1.5-1.5-1.5c-3.31,0-6,2.69-6,6,0,.83.67,1.5,1.5,1.5Z"/></svg>