<svg xmlns="http://www.w3.org/2000/svg" width="24" height="24" viewBox="0 0 24 24"><g opacity="0.4"><path d="m14.5,6h-5c-4.14,0-7.5,3.36-7.5,7.5v6c0,1.93,1.57,3.5,3.5,3.5h13c1.93,0,3.5-1.57,3.5-3.5v-6c0-4.14-3.36-7.5-7.5-7.5Zm1.22,8.03l-1.56,1.56.61,1.97c.16.52-.42.95-.87.65l-1.9-1.27-1.9,1.27c-.45.3-1.03-.13-.87-.65l.61-1.97-1.56-1.56c-.34-.34-.13-.94.36-.98l1.9-.16.95-1.93c.21-.43.82-.43,1.03,0l.95,1.93,1.9.16c.49.04.7.63.36.98Z"/></g><path d="m15.36,13.05l-1.9-.16-.95-1.93c-.21-.43-.82-.43-1.03,0l-.95,1.93-1.9.16c-.49.04-.7.63-.36.98l1.56,1.56-.61,1.97c-.16.52.42.95.87.65l1.9-1.27,1.9,1.27c.45.3,1.03-.13.87-.65l-.61-1.97,1.56-1.56c.34-.34.13-.94-.36-.98Z"/><path d="m10,6c0-1.1.9-2,2-2s2,.9,2,2h.5c.88,0,1.72.16,2.5.44v-.44c0-2.76-2.24-5-5-5s-5,2.24-5,5v.44c.78-.28,1.62-.44,2.5-.44h.5Z"/></svg>