<svg xmlns="http://www.w3.org/2000/svg" width="24" height="24" viewBox="0 0 24 24"><g opacity="0.4"><path d="m18.5,2h-6.5v20h6.5c2.48,0,4.5-2.02,4.5-4.5V6.5c0-2.48-2.02-4.5-4.5-4.5Zm1,12h-4c-.83,0-1.5-.67-1.5-1.5s.67-1.5,1.5-1.5h4c.83,0,1.5.67,1.5,1.5s-.67,1.5-1.5,1.5Zm0-5h-4c-.83,0-1.5-.67-1.5-1.5s.67-1.5,1.5-1.5h4c.83,0,1.5.67,1.5,1.5s-.67,1.5-1.5,1.5Z"/></g><path d="m15.5,9h4c.83,0,1.5-.67,1.5-1.5s-.67-1.5-1.5-1.5h-4c-.83,0-1.5.67-1.5,1.5s.67,1.5,1.5,1.5Z"/><path d="m15.5,14h4c.83,0,1.5-.67,1.5-1.5s-.67-1.5-1.5-1.5h-4c-.83,0-1.5.67-1.5,1.5s.67,1.5,1.5,1.5Z"/><path d="m12,2h-6.5C3.02,2,1,4.02,1,6.5v11c0,2.48,2.02,4.5,4.5,4.5h6.5V2Z"/></svg>