<svg xmlns="http://www.w3.org/2000/svg" width="24" height="24" viewBox="0 0 24 24"><g opacity="0.4"><path d="m19.78,7.48c-.49.61-1.08,1.85-1.08,4.32,0,.96-.9,1.71-1.9,1.45-.67-.18-1.1-.83-1.1-1.52.01-2.94.73-4.76,1.56-5.89.18-.25.1-.61-.19-.74-.43-.19-.88-.36-1.33-.51-.17-.05-.36,0-.5.11-.88.78-2.14,2.66-2.14,7.11,0,.83-.67,1.5-1.5,1.5s-1.5-.67-1.5-1.5c0-3.23.6-5.47,1.4-7.03.18-.35-.1-.76-.49-.72-.56.05-1.11.13-1.64.25-.14.03-.26.11-.33.23-.74,1.26-1.54,3.31-1.54,7.27,0,.83-.67,1.5-1.5,1.5s-1.5-.67-1.5-1.5c0-1.75.15-3.2.38-4.42.09-.46-.45-.8-.81-.49-1.88,1.62-3.07,3.77-3.07,6.06,0,3.95,4.83,7.05,11,7.05s11-3.1,11-7.05c0-2.04-.95-3.96-2.48-5.51-.21-.21-.55-.19-.74.04Z"/></g><path d="m4.88,7.38c-.23,1.21-.38,2.67-.38,4.42,0,.83.67,1.5,1.5,1.5s1.5-.67,1.5-1.5c0-3.97.8-6.02,1.54-7.27.07-.12.19-.2.32-.23-2.01.44-3.84,1.35-5.26,2.58.36-.27.87.06.78.51Z"/><path d="m10.1,11.8c0,.83.67,1.5,1.5,1.5s1.5-.67,1.5-1.5c0-4.45,1.25-6.33,2.14-7.11.13-.12.32-.16.49-.11-1.18-.37-2.43-.58-3.73-.58-.33,0-.65.02-.97.05.38-.01.64.37.47.72-.8,1.56-1.4,3.8-1.4,7.03Z"/><path d="m17.26,5.83c-.82,1.13-1.54,2.96-1.56,5.89,0,.69.42,1.34,1.1,1.52,1,.26,1.9-.49,1.9-1.45,0-2.46.59-3.71,1.08-4.32.17-.21.48-.23.69-.07-.93-.93-2.08-1.72-3.37-2.3.25.14.33.47.15.71Z"/><path d="m17.07,5.09s-.09-.03-.14-.05c.06.03.12.05.17.08-.01,0-.02-.02-.04-.03Z"/></svg>