<svg xmlns="http://www.w3.org/2000/svg" width="24" height="24" viewBox="0 0 24 24"><g opacity="0.4"><path d="m21.5,9h-.5v.5c0-2.48-2.02-4.5-4.5-4.5H5.5c-2.48,0-4.5,2.02-4.5,4.5v5c0,2.48,2.02,4.5,4.5,4.5h11c2.48,0,4.5-2.02,4.5-4.5v.5h.5c.83,0,1.5-.67,1.5-1.5v-3c0-.83-.67-1.5-1.5-1.5Zm-13.5,5c0,.55-.45,1-1,1s-1-.45-1-1v-4c0-.55.45-1,1-1s1,.45,1,1v4Zm4,0c0,.55-.45,1-1,1s-1-.45-1-1v-4c0-.55.45-1,1-1s1,.45,1,1v4Z"/></g><path d="m8,14v-4c0-.55-.45-1-1-1s-1,.45-1,1v4c0,.55.45,1,1,1s1-.45,1-1Z"/><path d="m12,14v-4c0-.55-.45-1-1-1s-1,.45-1,1v4c0,.55.45,1,1,1s1-.45,1-1Z"/></svg>