<svg xmlns="http://www.w3.org/2000/svg" width="24" height="24" viewBox="0 0 24 24"><g opacity="0.4"><path d="m20,2h-5c-1.16,0-2.2.45-3,1.17v19.83c.12,0,.25-.02.37-.05.07-.02.14-.03.2-.06,0,0,0,0,0,0,0,0,0,0,0,0,.12-.05.22-.12.33-.2.03-.02.05-.04.08-.07.02-.02.05-.04.07-.06l1.12-1.12c.28-.28.67-.44,1.06-.44h4.76c1.65,0,3-1.35,3-3V5c0-1.65-1.35-3-3-3Z"/></g><path d="m12,3.17c-.8-.72-1.84-1.17-3-1.17h-5c-1.65,0-3,1.35-3,3v13c0,1.65,1.35,3,3,3h4.76c.39,0,.78.16,1.06.44l1.12,1.12s.05.04.07.06c.03.02.05.04.08.07.1.08.21.15.33.2,0,0,0,0,0,0,0,0,0,0,0,0,.07.03.13.04.2.06.12.03.25.05.37.05V3.17Z"/></svg>