<svg xmlns="http://www.w3.org/2000/svg" width="24" height="24" viewBox="0 0 24 24"><g opacity="0.4"><path d="m21.54,13.21h-.28c-.28.03-.53-.21-.54-.5-.01-.29.22-.53.51-.54.59-.02,1.18.03,1.77.12,0-.1.01-.19.01-.28,0-6.07-4.93-11-11-11-.09,0-.19.01-.28.01.07.48.12.96.12,1.45v.32c-.01.28-.25.51-.53.51h-.02c-.29,0-.52-.25-.51-.54v-.29c0-.46-.04-.92-.12-1.37C5.67,1.69,1.69,5.67,1.09,10.67c.45.08.91.12,1.37.12h.28c.26-.03.53.21.54.5.01.29-.22.53-.51.54-.11,0-.21,0-.32,0-.49,0-.97-.05-1.45-.12,0,.09-.01.19-.01.28,0,6.07,4.93,11,11,11,.09,0,.19-.01.28-.01-.07-.48-.12-.96-.12-1.45v-.32c.01-.29.23-.5.55-.51.29,0,.52.25.51.54v.29c0,.46.04.92.12,1.37,5-.61,8.98-4.58,9.58-9.58-.45-.08-.91-.12-1.37-.12Zm-10.78-6.37c-.16.3-.33.59-.52.87-.34.5-.72.96-1.14,1.39-.43.43-.89.81-1.39,1.14-.28.19-.57.37-.88.53-.08.04-.16.06-.24.06-.19,0-.37-.1-.46-.28-.14-.26-.04-.57.22-.71.27-.14.53-.3.78-.47.44-.3.86-.64,1.23-1.02.38-.38.72-.79,1.02-1.23.17-.25.32-.5.46-.77.14-.26.46-.35.71-.22.26.14.35.45.22.71Zm6.9,7.32c-.27.14-.53.3-.78.47-.44.3-.86.64-1.23,1.02-.38.38-.72.79-1.02,1.23-.17.25-.32.5-.46.77-.09.18-.28.28-.46.28-.08,0-.17-.02-.24-.06-.26-.14-.35-.45-.22-.71.16-.3.33-.59.52-.87.34-.5.72-.96,1.14-1.39.43-.43.89-.81,1.39-1.14.28-.19.57-.37.88-.53.25-.13.57-.04.71.22.14.26.04.57-.22.71Z"/></g><path d="m10.67,1.09c.08.45.12.91.12,1.37v.29c-.01.29.21.53.5.54h.02c.28,0,.51-.22.52-.51v-.32c0-.48-.04-.97-.12-1.45-.35,0-.7.03-1.05.07Z"/><path d="m10.54,6.13c-.25-.14-.57-.04-.71.22-.14.27-.29.52-.46.77-.3.44-.64.86-1.02,1.23-.38.38-.79.72-1.23,1.02-.25.17-.51.33-.78.47-.26.14-.35.45-.22.71.09.18.28.28.46.28.08,0,.17-.02.24-.06.3-.16.59-.34.88-.53.5-.33.96-.72,1.39-1.14.42-.42.81-.89,1.14-1.39.19-.28.36-.57.52-.87.14-.26.04-.57-.22-.71Z"/><path d="m21.22,12.16c-.29.01-.52.25-.51.54.01.29.26.53.54.5h.28c.46,0,.92.04,1.37.12.04-.34.07-.69.08-1.04-.58-.09-1.18-.14-1.77-.12Z"/><path d="m17.17,13.23c-.3.16-.59.34-.88.53-.5.33-.96.72-1.39,1.14-.42.42-.81.89-1.14,1.39-.19.28-.36.57-.52.87-.14.26-.04.57.22.71.08.04.16.06.24.06.19,0,.37-.1.46-.28.14-.27.29-.52.46-.77.3-.44.64-.86,1.02-1.23.38-.38.79-.72,1.23-1.02.25-.17.51-.33.78-.47.26-.14.35-.45.22-.71-.14-.26-.45-.35-.71-.22Z"/><path d="m13.21,21.25c0-.29-.22-.53-.51-.54-.32,0-.53.22-.54.51v.32c0,.48.04.97.12,1.45-.09,0-.19.01-.28.01.45,0,.89-.04,1.33-.09-.07-.45-.12-.91-.12-1.37v-.29Z"/><path d="m1.09,10.67s0,0,0,0c0-.03.01-.07.01-.1,0,.03-.01.07-.02.1Z"/><path d="m2.75,10.79h-.28c-.46,0-.92-.04-1.37-.12-.05.44-.09.88-.09,1.33,0-.09.01-.19.01-.28.48.07.96.12,1.45.12.11,0,.21,0,.32,0,.29-.01.52-.25.51-.54-.01-.29-.28-.53-.54-.5Z"/></svg>