<svg xmlns="http://www.w3.org/2000/svg" width="24" height="24" viewBox="0 0 24 24"><g opacity="0.4"><path d="m9,6.5c-1.93,0-3.5,1.57-3.5,3.5h1.5c0-1.1.9-2,2-2s2,.9,2,2h1.5c0-1.93-1.57-3.5-3.5-3.5Z"/><path d="m9,5c2.76,0,5,2.24,5,5h3.08l2.42-8.07c.12-.4-.11-.81-.5-.93-.4-.12-.82.11-.93.5l-1.65,5.51c-1.19-2.93-4.06-5.01-7.41-5.01C4.59,2,1,5.59,1,10h3c0-2.76,2.24-5,5-5Z"/><path d="m20.08,10l2.42-8.07c.12-.4-.11-.81-.5-.93-.4-.12-.82.11-.93.5l-2.55,8.5h1.57Z"/></g><path d="m1.05,12c-.02.15-.02.31,0,.47.29,3.42,2.09,6.31,4.96,8v.29c0,1.24,1.01,2.25,2.25,2.25h7.5c1.24,0,2.25-1.01,2.25-2.25v-.29c2.87-1.69,4.67-4.58,4.96-8h0c.05-.64-.16-1.27-.59-1.74-.42-.46-1.03-.73-1.65-.73H1v2h.05Z"/></svg>