<svg xmlns="http://www.w3.org/2000/svg" width="24" height="24" viewBox="0 0 24 24"><g opacity="0.4"><path d="m7.95,14.44l.58-.17c1.27-.37,2.3-1.32,2.78-2.55.64-1.66,2.04-2.95,3.76-3.45l.58-.17c1.26-.37,2.3-1.32,2.78-2.55l.77-2-1.47-1.27c-.62-.53-1.45-.73-2.24-.54-.79.2-1.44.77-1.73,1.53l-.22.57c-.29.75-.93,1.34-1.7,1.56l-.47.14c-1.67.48-3.05,1.74-3.67,3.37-.29.75-.93,1.34-1.7,1.56l-.47.14c-1.67.48-3.04,1.74-3.67,3.37l-.48,1.24c-.38.98-.1,2.1.7,2.79l1.57,1.36.57-1.49c.64-1.67,2.05-2.95,3.76-3.45Z"/><path d="m20.38,4.61l-.57,1.49c-.64,1.67-2.05,2.95-3.76,3.45l-.58.17c-1.27.37-2.3,1.32-2.78,2.55-.64,1.66-2.04,2.95-3.76,3.45l-.58.17c-1.26.37-2.3,1.32-2.78,2.55l-.77,2,1.47,1.27c.46.4,1.04.61,1.64.61.2,0,.4-.02.6-.07.79-.2,1.44-.77,1.73-1.53l.22-.57c.29-.75.93-1.34,1.7-1.56l.47-.14c1.67-.48,3.05-1.74,3.67-3.37.29-.75.93-1.34,1.7-1.56l.47-.14c1.67-.48,3.04-1.74,3.67-3.37l.48-1.24c.38-.98.1-2.1-.7-2.79l-1.57-1.36Z"/></g><path d="m5.59,18.43c.47-1.23,1.51-2.18,2.78-2.55l.58-.17c1.71-.5,3.12-1.79,3.76-3.45.47-1.23,1.51-2.18,2.78-2.55l.58-.17c1.71-.5,3.12-1.79,3.76-3.45l.57-1.49-1.21-1.04-.77,2c-.47,1.23-1.51,2.18-2.78,2.55l-.58.17c-1.71.5-3.12,1.79-3.76,3.45-.47,1.23-1.51,2.18-2.78,2.55l-.58.17c-1.71.5-3.12,1.79-3.76,3.45l-.57,1.49,1.21,1.04.77-2Z"/></svg>