<svg xmlns="http://www.w3.org/2000/svg" width="24" height="24" viewBox="0 0 24 24"><g opacity="0.4"><path d="M21 6.05A1 1 0 1 0 21 8.05 1 1 0 1 0 21 6.05z"/><path d="M10 1.0499999999999998A1 1 0 1 0 10 3.05 1 1 0 1 0 10 1.0499999999999998z"/><path d="m4.68,10.05h3.19L4.92,1.94c-.28-.78-1.14-1.18-1.92-.9s-1.18,1.14-.9,1.92l2.57,7.08Z"/></g><path d="m20.72,10.05H3.28c-.63,0-1.23.26-1.65.73-.43.47-.65,1.1-.59,1.74.29,3.42,2.09,6.31,4.96,8v.29c0,1.24,1.01,2.25,2.25,2.25h7.5c1.24,0,2.25-1.01,2.25-2.25v-.29c2.87-1.69,4.67-4.58,4.96-8h0c.05-.64-.16-1.27-.59-1.74-.42-.46-1.03-.73-1.65-.73Z"/><path d="M17.5 1.0499999999999998A1.5 1.5 0 1 0 17.5 4.05 1.5 1.5 0 1 0 17.5 1.0499999999999998z"/><path d="M13 4.05A2 2 0 1 0 13 8.05 2 2 0 1 0 13 4.05z"/></svg>