<svg xmlns="http://www.w3.org/2000/svg" width="24" height="24" viewBox="0 0 24 24"><g opacity="0.4"><path d="m20.5,15h-7c-.46,0-.89.21-1.17.56l-2.83,3.54-2.83-3.54c-.28-.36-.71-.56-1.17-.56h-2c-1.38,0-2.5,1.12-2.5,2.5v1c0,2.48,2.02,4.5,4.5,4.5h13c2.48,0,4.5-2.02,4.5-4.5v-1c0-1.38-1.12-2.5-2.5-2.5Z"/><path d="m12,1C5.93,1,1,4.14,1,8v.5c0,1.38,1.12,2.5,2.5,2.5h17c1.38,0,2.5-1.12,2.5-2.5v-.5c0-4.21-6.62-7-11-7Zm-.5,7c-.28,0-.5-.22-.5-.5s.22-.5.5-.5.5.22.5.5-.22.5-.5.5Zm3-1c-.83,0-1.5-.67-1.5-1.5s.67-1.5,1.5-1.5,1.5.67,1.5,1.5-.67,1.5-1.5,1.5Zm3.5,2c-.55,0-1-.45-1-1s.45-1,1-1,1,.45,1,1-.45,1-1,1Z"/></g><path d="m21,11H3c-1.1,0-2,.9-2,2h0c0,1.1.9,2,2,2h2.5c.46,0,.89.21,1.17.56l2.83,3.54,2.83-3.54c.28-.36.71-.56,1.17-.56h7.5c1.1,0,2-.9,2-2h0c0-1.1-.9-2-2-2Z"/><path d="M11.5 7A.5.5 0 1 0 11.5 8 .5.5 0 1 0 11.5 7z"/><path d="M14.5 4A1.5 1.5 0 1 0 14.5 7 1.5 1.5 0 1 0 14.5 4z"/><path d="M18 7A1 1 0 1 0 18 9 1 1 0 1 0 18 7z"/></svg>