<svg xmlns="http://www.w3.org/2000/svg" width="24" height="24" viewBox="0 0 24 24"><g opacity="0.4"><path d="m15.79,6.09l2.14-2.14c-3.72-2.91-8.34-2.91-12.39.1-.83.61-1.91.95-3.04.95-.83,0-1.5.67-1.5,1.5s.67,1.5,1.5,1.5c.17,0,.33-.03.5-.04v10.92l1.5-1.5V7.74c1.04-.25,2.01-.67,2.84-1.28,2.85-2.12,5.86-2.23,8.46-.37Z"/><path d="m17.91,8.21c1.86,2.6,1.75,5.61-.37,8.46-.61.82-1.03,1.8-1.28,2.84H6.62l-1.5,1.5h10.92c0,.17-.04.33-.04.5,0,.83.67,1.5,1.5,1.5s1.5-.67,1.5-1.5c0-1.14.34-2.22.95-3.04,3.01-4.04,3-8.67.1-12.39l-2.14,2.14Z"/></g><path d="m22.25,1h-3.44c-.67,0-1,.81-.53,1.28l.66.66L1.44,20.44c-.59.59-.59,1.54,0,2.12.29.29.68.44,1.06.44s.77-.15,1.06-.44L21.06,5.06l.66.66c.47.47,1.28.14,1.28-.53V1.75c0-.41-.34-.75-.75-.75Z"/></svg>