<svg xmlns="http://www.w3.org/2000/svg" width="24" height="24" viewBox="0 0 24 24"><g opacity="0.4"><path d="M12.5 1A2.5 2.5 0 1 0 12.5 6 2.5 2.5 0 1 0 12.5 1z"/><path d="m21,6h0c-.21-.8-1.04-1.28-1.84-1.06l-10.61,2.83c-.39.1-.8.05-1.15-.16-.11-.06-.18-.15-.27-.24-.44.39-1.01.63-1.64.63-.67,0-1.27-.26-1.71-.69.25.98.77,1.88,1.56,2.51.83.66,1.81,1,2.81,1,.39,0,.78-.05,1.17-.15l.53-.14-3.77,10.56c-.28.78.13,1.64.91,1.92h0c.78.28,1.64-.13,1.92-.91l2.39-6.7,1.94.39c.44.09.8.35,1.02.74.22.39.25.84.09,1.26l-1.23,3.29c-.29.78.1,1.64.88,1.93.78.29,1.64-.1,1.93-.88l1.21-3.22c.27-.72.4-1.51.28-2.27-.29-1.93-1.69-3.36-3.46-3.77l1.26-3.77,4.72-1.26c.8-.21,1.28-1.04,1.06-1.84Z"/></g><path d="M5.5 3A2.5 2.5 0 1 0 5.5 8 2.5 2.5 0 1 0 5.5 3z"/></svg>