<svg xmlns="http://www.w3.org/2000/svg" width="24" height="24" viewBox="0 0 24 24"><g opacity="0.4"><path d="m17.41,11.73c.67-.82,1.09-1.85,1.09-2.98,0-2.62-2.16-4.75-4.8-4.75h0s-7.2,0-7.2,0c-.83,0-1.5.67-1.5,1.5s.67,1.5,1.5,1.5h.5v10h-.5c-.83,0-1.5.67-1.5,1.5s.67,1.5,1.5,1.5h7.75s0,0,0,0c2.62,0,4.75-2.13,4.75-4.75,0-1.4-.62-2.65-1.59-3.52Zm-7.41-4.73h3.7c.98,0,1.8.8,1.8,1.75s-.83,1.75-1.8,1.75h-3.7v-3.5Zm4.25,10h0s-.01,0-.01,0h-4.24v-3.5h4.25c.96,0,1.75.79,1.75,1.75s-.79,1.75-1.75,1.75Z"/></g><path d="m10.5,2.75c0-.41-.34-.75-.75-.75s-.75.34-.75.75v1.25h1.5v-1.25Z"/><path d="m9.75,22c.41,0,.75-.34.75-.75v-1.25h-1.5v1.25c0,.41.34.75.75.75Z"/><path d="m13.25,22c.41,0,.75-.34.75-.75v-1.25h-1.5v1.25c0,.41.34.75.75.75Z"/><path d="m13.7,4c.1,0,.2.02.3.03v-1.28c0-.41-.34-.75-.75-.75s-.75.34-.75.75v1.25h1.2Z"/></svg>