<svg xmlns="http://www.w3.org/2000/svg" width="24" height="24" viewBox="0 0 24 24"><g opacity="0.4"><path d="m6.37,3.09c-2.01.6-3.48,2.46-3.48,4.66,0,.05,0,.11,0,.16-1.17.98-1.89,2.45-1.89,4.09,0,1.13.35,2.2.98,3.09-.03.23-.04.46-.04.69,0,2.35,1.53,4.35,3.65,5.06.88,1.31,2.39,2.16,4.05,2.16.86,0,1.66-.22,2.36-.61V1.43c-.57-.27-1.21-.43-1.89-.43-1.58,0-2.96.84-3.74,2.09Z"/></g><path d="m21.11,7.91c0-.05,0-.11,0-.16,0-2.21-1.48-4.07-3.49-4.66-.78-1.26-2.16-2.09-3.73-2.09-.68,0-1.32.15-1.89.43v20.96c.7.39,1.5.61,2.36.61,1.66,0,3.17-.85,4.05-2.17,2.13-.71,3.65-2.71,3.65-5.05,0-.23-.01-.46-.04-.69.63-.89.98-1.96.98-3.09,0-1.64-.72-3.11-1.89-4.09Z"/></svg>