<svg xmlns="http://www.w3.org/2000/svg" width="24" height="24" viewBox="0 0 24 24"><g opacity="0.4"><path d="m11.6,2.75l9.65,9.65c2.4-2.68,2.32-6.81-.26-9.39-2.58-2.57-6.71-2.66-9.39-.26Z"/><path d="m3,21h0c1.33,1.33,3.09,2,4.84,2,1.63,0,3.26-.59,4.55-1.74L2.75,11.6c-2.4,2.68-2.32,6.82.26,9.39Z"/></g><path d="m12.68,21l8.31-8.31c.09-.09.17-.19.26-.29L11.6,2.75c-.1.09-.19.17-.29.26L3,11.32c-.09.09-.17.19-.26.29l9.65,9.65c.1-.09.19-.17.29-.26Zm2.32-10c.55,0,1,.45,1,1s-.45,1-1,1-1-.45-1-1,.45-1,1-1Zm-3-3c.55,0,1,.45,1,1s-.45,1-1,1-1-.45-1-1,.45-1,1-1Zm-3,5c-.55,0-1-.45-1-1s.45-1,1-1,1,.45,1,1-.45,1-1,1Zm2,2c0-.55.45-1,1-1s1,.45,1,1-.45,1-1,1-1-.45-1-1Z"/></svg>