<svg xmlns="http://www.w3.org/2000/svg" width="24" height="24" viewBox="0 0 24 24"><g opacity="0.4"><path d="m19,1H6c-2.21,0-4,1.79-4,4v15.72c0,.68.34,1.31.92,1.68.58.37,1.29.42,1.92.13l5.16-2.38,5.16,2.38c.27.12.55.18.84.18.38,0,.75-.11,1.08-.32.58-.37.92-1,.92-1.68V5c0-1.66,1.01-3.08,2.45-3.69-.36-.14-.75-.25-1.15-.28-.1-.02-.2-.03-.3-.03Zm-5.25,10.5h-2.25v2.25c0,.83-.67,1.5-1.5,1.5s-1.5-.67-1.5-1.5v-2.25h-2.25c-.83,0-1.5-.67-1.5-1.5s.67-1.5,1.5-1.5h2.25v-2.25c0-.83.67-1.5,1.5-1.5s1.5.67,1.5,1.5v2.25h2.25c.83,0,1.5.67,1.5,1.5s-.67,1.5-1.5,1.5Z"/></g><path d="m20.45,1.31c-1.44.6-2.45,2.03-2.45,3.69v8h2c1.65,0,3-1.35,3-3v-5c0-1.69-1.06-3.11-2.55-3.69Z"/><path d="m6.25,11.5h2.25v2.25c0,.83.67,1.5,1.5,1.5s1.5-.67,1.5-1.5v-2.25h2.25c.83,0,1.5-.67,1.5-1.5s-.67-1.5-1.5-1.5h-2.25v-2.25c0-.83-.67-1.5-1.5-1.5s-1.5.67-1.5,1.5v2.25h-2.25c-.83,0-1.5.67-1.5,1.5s.67,1.5,1.5,1.5Z"/></svg>