<svg xmlns="http://www.w3.org/2000/svg" width="24" height="24" viewBox="0 0 24 24"><g opacity="0.4"><path d="m14.5,6h-5c-4.14,0-7.5,3.36-7.5,7.5v6c0,1.93,1.57,3.5,3.5,3.5h.75v-8.75c0-1.52,1.23-2.75,2.75-2.75h6.5c1.52,0,2.75,1.23,2.75,2.75v8.75h.25c1.93,0,3.5-1.57,3.5-3.5v-6c0-4.14-3.36-7.5-7.5-7.5Z"/><path d="M7.75 18.75H16.75V23H7.75z"/><path d="m15.5,13h-6.5c-.69,0-1.25.56-1.25,1.25v3h9v-3c0-.69-.56-1.25-1.25-1.25Z"/></g><path d="m7.75,18.75h9v4.25h1.5v-8.75c0-1.52-1.23-2.75-2.75-2.75h-6.5c-1.52,0-2.75,1.23-2.75,2.75v8.75h1.5v-4.25Zm0-4.5c0-.69.56-1.25,1.25-1.25h6.5c.69,0,1.25.56,1.25,1.25v3H7.75v-3Z"/><path d="m10,6c0-1.1.9-2,2-2s2,.9,2,2h.5c.88,0,1.72.16,2.5.44v-.44c0-2.76-2.24-5-5-5s-5,2.24-5,5v.44c.78-.28,1.62-.44,2.5-.44h.5Z"/></svg>