<svg xmlns="http://www.w3.org/2000/svg" width="24" height="24" viewBox="0 0 24 24"><g opacity="0.4"><path d="m4.22,4.22c-.59.59-.59,1.54,0,2.12l.45.45c.58-.82,1.3-1.54,2.12-2.12l-.45-.45c-.59-.59-1.54-.59-2.12,0Z"/><path d="m10.5,2.5v.64c.49-.08.99-.14,1.5-.14s1.01.05,1.5.14v-.64c0-.83-.67-1.5-1.5-1.5s-1.5.67-1.5,1.5Z"/><path d="m15.89,13.77h0s-.27-.27-.27-.27h2.18c.12-.48.2-.98.2-1.5s-.07-1.02-.2-1.5h-2.18l.27-.27h0s0,0,0,0l1.27-1.27c-.52-.87-1.25-1.6-2.12-2.12l-1.27,1.27s0,0,0,0h0s-.27.27-.27.27v-2.18c-.48-.12-.98-.2-1.5-.2s-1.02.07-1.5.2v2.18l-.27-.27h0s0,0,0,0l-1.27-1.27c-.87.52-1.6,1.25-2.12,2.12l1.27,1.27s0,0,0,0h0s.27.27.27.27h-2.18c-.12.48-.2.98-.2,1.5s.07,1.02.2,1.5h2.18l-.27.27h0s0,0,0,0l-1.27,1.27c.52.87,1.25,1.6,2.12,2.12l1.27-1.27s0,0,0,0h0s.27-.27.27-.27v2.18c.48.12.98.2,1.5.2s1.02-.07,1.5-.2v-2.18l.27.27h0s0,0,0,0l1.27,1.27c.87-.52,1.6-1.25,2.12-2.12l-1.27-1.27s0,0,0,0Zm-1.42.71c-.66.66-1.54,1.03-2.47,1.03s-1.81-.36-2.47-1.03c-.66-.66-1.03-1.54-1.03-2.47s.36-1.81,1.03-2.47c1.32-1.32,3.62-1.32,4.95,0,.66.66,1.03,1.54,1.03,2.47s-.36,1.81-1.03,2.47Z"/><path d="m17.66,4.22l-.45.45c.82.58,1.54,1.3,2.12,2.12l.45-.45c.59-.59.59-1.54,0-2.12-.59-.59-1.54-.59-2.12,0Z"/><path d="m4.67,17.21l-.45.45c-.59.59-.59,1.54,0,2.12.29.29.68.44,1.06.44s.77-.15,1.06-.44l.45-.45c-.82-.58-1.54-1.3-2.12-2.12Z"/><path d="m19.33,17.21c-.58.82-1.3,1.54-2.12,2.12l.45.45c.29.29.68.44,1.06.44s.77-.15,1.06-.44c.59-.59.59-1.54,0-2.12l-.45-.45Z"/><path d="m2.5,10.5c-.83,0-1.5.67-1.5,1.5s.67,1.5,1.5,1.5h.64c-.08-.49-.14-.99-.14-1.5s.05-1.01.14-1.5h-.64Z"/><path d="m21.5,10.5h-.64c.08.49.14.99.14,1.5s-.05,1.01-.14,1.5h.64c.83,0,1.5-.67,1.5-1.5s-.67-1.5-1.5-1.5Z"/><path d="m10.5,20.86v.64c0,.83.67,1.5,1.5,1.5s1.5-.67,1.5-1.5v-.64c-.49.08-.99.14-1.5.14s-1.01-.05-1.5-.14Z"/></g><path d="m12,15.5c.93,0,1.81-.36,2.47-1.03.66-.66,1.03-1.54,1.03-2.47s-.36-1.81-1.03-2.47c-1.32-1.32-3.62-1.32-4.95,0-.66.66-1.03,1.54-1.03,2.47s.36,1.81,1.03,2.47c.66.66,1.54,1.03,2.47,1.03Zm-1.41-4.91c.38-.38.88-.59,1.41-.59s1.03.21,1.41.59.59.88.59,1.41-.21,1.03-.59,1.41c-.76.76-2.07.76-2.83,0-.38-.38-.59-.88-.59-1.41s.21-1.03.59-1.41Z"/><path d="m12,21c4.96,0,9-4.04,9-9S16.96,3,12,3,3,7.04,3,12s4.04,9,9,9Zm0-15c3.31,0,6,2.69,6,6s-2.69,6-6,6-6-2.69-6-6,2.69-6,6-6Z"/></svg>