<svg xmlns="http://www.w3.org/2000/svg" width="24" height="24" viewBox="0 0 24 24"><g opacity="0.4"><path d="m17.81,1H6.19c-1.43,0-2.82.6-3.81,1.64-.95.99-1.43,2.27-1.37,3.59.04,1,.39,1.97.99,2.77v9.51c0,2.48,2.02,4.5,4.5,4.5h11c2.48,0,4.5-2.02,4.5-4.5v-9.51c.6-.8.95-1.76.99-2.77.06-1.33-.43-2.6-1.37-3.59-.99-1.04-2.38-1.64-3.81-1.64Zm-5.81,8c-.55,0-1-.45-1-1s.45-1,1-1,1,.45,1,1-.45,1-1,1Zm3.5,2c-.28,0-.5-.22-.5-.5s.22-.5.5-.5.5.22.5.5-.22.5-.5.5Zm1-3c-.83,0-1.5-.67-1.5-1.5s.67-1.5,1.5-1.5,1.5.67,1.5,1.5-.67,1.5-1.5,1.5Z"/></g><path d="M12 7A1 1 0 1 0 12 9 1 1 0 1 0 12 7z"/><path d="M16.5 5A1.5 1.5 0 1 0 16.5 8 1.5 1.5 0 1 0 16.5 5z"/><path d="M15.5 10A.5.5 0 1 0 15.5 11 .5.5 0 1 0 15.5 10z"/></svg>