<svg xmlns="http://www.w3.org/2000/svg" width="24" height="24" viewBox="0 0 24 24"><g opacity="0.4"><path d="m20,13.47v-3.47c0-3.86-2.64-6.9-6.15-7.77-.3-.72-1.01-1.23-1.85-1.23s-1.54.5-1.84,1.22c-1.39.33-2.67,1.02-3.73,2.04-1.57,1.52-2.43,3.56-2.43,5.74l.02,3.45-1.38,1.73c-.41.51-.64,1.16-.64,1.91,0,1.61,1.31,2.91,2.91,2.91h14.17c1.61,0,2.91-1.31,2.91-3,0-.66-.23-1.31-.64-1.82l-1.36-1.7Z"/></g><path d="m12,23c1.66,0,3-1.34,3-3h-6c0,1.66,1.34,3,3,3Z"/><path d="m4.44,3.13c.26-.3.27-.75-.02-1.04-.3-.3-.8-.3-1.08.02C1.67,4.01.69,6.37.53,8.89c-.03.42.33.78.75.78h0c.4,0,.72-.32.75-.72.15-2.16.99-4.19,2.41-5.82Z"/><path d="m19.58,2.09c-.28.28-.28.73-.02,1.04,1.42,1.64,2.26,3.66,2.41,5.82.03.4.34.72.75.72h0c.43,0,.78-.35.75-.78-.17-2.52-1.15-4.88-2.81-6.78-.28-.32-.78-.32-1.08-.02Z"/></svg>