<svg xmlns="http://www.w3.org/2000/svg" width="24" height="24" viewBox="0 0 24 24"><g opacity="0.4"><path d="m11.43,8.92C8.79,2,4.06,2,4.06,2c-1.69,0-3.06,1.38-3.06,3.09v4.94c0,3.11,2.06,5.72,4.88,6.53-.74.68-1.21,1.65-1.21,2.74,0,2.05,1.64,3.71,3.67,3.71,1.27,0,2.38-1.3,3.04-3.08.11-.29.37-.44.62-.44v-10.16c-.23,0-.47-.13-.57-.4Z"/></g><path d="m19.94,2s-4.74,0-7.37,6.92c-.1.27-.34.4-.57.4v10.16c.26,0,.51.15.62.44.66,1.78,1.78,3.08,3.04,3.08,2.03,0,3.67-1.66,3.67-3.71,0-1.09-.47-2.06-1.21-2.74,2.82-.81,4.88-3.42,4.88-6.53v-4.94c0-1.71-1.37-3.09-3.06-3.09Z"/></svg>