<svg xmlns="http://www.w3.org/2000/svg" width="24" height="24" viewBox="0 0 24 24"><g opacity="0.4"><path d="m12,2c-3.58,0-6.67,2.46-8.12,6h16.24c-1.45-3.54-4.54-6-8.12-6Z"/><path d="m3.38,9.5c-.24.95-.38,1.96-.38,3,0,5.49,3.64,10.01,8.25,10.46v-9.21c0-.41.34-.75.75-.75s.75.34.75.75v9.21c4.61-.45,8.25-4.96,8.25-10.46,0-1.04-.14-2.05-.38-3H3.38Z"/></g><path d="m6.31,4.37c.37-.35.76-.66,1.18-.94l-1.21-1.21c-.29-.29-.77-.29-1.06,0s-.29.77,0,1.06l1.09,1.09Z"/><path d="m1.51,10.96l1.5.5s.02,0,.03,0c.04-.51.13-1.01.23-1.5l-1.29-.43c-.4-.13-.82.08-.95.47-.13.39.08.82.47.95Z"/><path d="m3.17,14.5h-1.42c-.41,0-.75.34-.75.75s.34.75.75.75h1.78c-.15-.49-.27-.98-.36-1.5Z"/><path d="m4.55,18.39l-1.33,1.33c-.29.29-.29.77,0,1.06.15.15.34.22.53.22s.38-.07.53-.22l1.14-1.14c-.31-.39-.61-.81-.87-1.25Z"/><path d="m18.78,3.28c.29-.29.29-.77,0-1.06s-.77-.29-1.06,0l-1.21,1.21c.41.28.81.59,1.18.94l1.09-1.09Z"/><path d="m19.45,18.39c-.26.45-.55.86-.87,1.25l1.14,1.14c.15.15.34.22.53.22s.38-.07.53-.22c.29-.29.29-.77,0-1.06l-1.33-1.33Z"/><path d="m22.25,14.5h-1.42c-.09.52-.21,1.01-.36,1.5h1.78c.41,0,.75-.34.75-.75s-.34-.75-.75-.75Z"/><path d="m20.99,11.46l1.5-.5c.39-.13.61-.56.47-.95-.13-.39-.55-.61-.95-.47l-1.29.43c.1.49.19.99.23,1.5.01,0,.02,0,.03,0Z"/><path d="m20.12,8H3.88c-.2.48-.37.98-.5,1.5h17.24c-.13-.52-.3-1.02-.5-1.5Z"/><path d="m12.75,22.96v-9.21c0-.41-.34-.75-.75-.75s-.75.34-.75.75v9.21c.25.02.5.04.75.04s.5-.02.75-.04Z"/></svg>