<svg xmlns="http://www.w3.org/2000/svg" width="24" height="24" viewBox="0 0 24 24"><g opacity="0.4"><path d="m4,20.24v1.26c0,.83.67,1.5,1.5,1.5h1c.83,0,1.5-.67,1.5-1.5v-.5h-1.5c-.92,0-1.78-.28-2.5-.76Z"/><path d="m16,21v.5c0,.83.67,1.5,1.5,1.5h1c.83,0,1.5-.67,1.5-1.5v-1.26c-.72.48-1.58.76-2.5.76h-1.5Z"/><path d="m1,8.5v3c0,.28.22.5.5.5h.5v-4h-.5c-.28,0-.5.22-.5.5Z"/><path d="m22.5,8h-.5v4h.5c.28,0,.5-.22.5-.5v-3c0-.28-.22-.5-.5-.5Z"/><rect x="12.75" y="6" width="6.25" height="6" rx="1" ry="1"/><rect x="5" y="6" width="6.25" height="6" rx="1" ry="1"/></g><path d="m22,7.5c0-3.58-2.92-6.5-6.5-6.5h-7c-3.58,0-6.5,2.92-6.5,6.5v9c0,2.48,2.02,4.5,4.5,4.5h11c2.48,0,4.5-2.02,4.5-4.5V7.5Zm-15,10.5c-1.1,0-2-.9-2-2s.9-2,2-2,2,.9,2,2-.9,2-2,2Zm4.25-7c0,.55-.45,1-1,1h-4.25c-.55,0-1-.45-1-1v-4c0-.55.45-1,1-1h4.25c.55,0,1,.45,1,1v4Zm5.75,7c-1.1,0-2-.9-2-2s.9-2,2-2,2,.9,2,2-.9,2-2,2Zm2-7c0,.55-.45,1-1,1h-4.25c-.55,0-1-.45-1-1v-4c0-.55.45-1,1-1h4.25c.55,0,1,.45,1,1v4Z"/></svg>