<svg xmlns="http://www.w3.org/2000/svg" width="24" height="24" viewBox="0 0 24 24"><g opacity="0.4"><path d="m17.5,2H6.5c-2.48,0-4.5,2.02-4.5,4.5v11c0,2.48,2.02,4.5,4.5,4.5h11c2.48,0,4.5-2.02,4.5-4.5V6.5c0-2.48-2.02-4.5-4.5-4.5Zm-8.5,14.5c0,.83-.67,1.5-1.5,1.5s-1.5-.67-1.5-1.5v-6c0-.83.67-1.5,1.5-1.5s1.5.67,1.5,1.5v6Zm4.5,0c0,.83-.67,1.5-1.5,1.5s-1.5-.67-1.5-1.5V7.5c0-.83.67-1.5,1.5-1.5s1.5.67,1.5,1.5v9Zm4.5,0c0,.83-.67,1.5-1.5,1.5s-1.5-.67-1.5-1.5v-3c0-.83.67-1.5,1.5-1.5s1.5.67,1.5,1.5v3Z"/></g><path d="m7.5,18c.83,0,1.5-.67,1.5-1.5v-6c0-.83-.67-1.5-1.5-1.5s-1.5.67-1.5,1.5v6c0,.83.67,1.5,1.5,1.5Z"/><path d="m12,18c.83,0,1.5-.67,1.5-1.5V7.5c0-.83-.67-1.5-1.5-1.5s-1.5.67-1.5,1.5v9c0,.83.67,1.5,1.5,1.5Z"/><path d="m16.5,18c.83,0,1.5-.67,1.5-1.5v-3c0-.83-.67-1.5-1.5-1.5s-1.5.67-1.5,1.5v3c0,.83.67,1.5,1.5,1.5Z"/></svg>