<svg xmlns="http://www.w3.org/2000/svg" width="24" height="24" viewBox="0 0 24 24"><g opacity="0.4"><path d="m20.5,8H3.5c-.83,0-1.5.67-1.5,1.5s.67,1.5,1.5,1.5h17c.83,0,1.5-.67,1.5-1.5s-.67-1.5-1.5-1.5Z"/><path d="m20.5,3H3.5c-.83,0-1.5.67-1.5,1.5s.67,1.5,1.5,1.5h17c.83,0,1.5-.67,1.5-1.5s-.67-1.5-1.5-1.5Z"/><path d="m20.5,18h-12c-.83,0-1.5.67-1.5,1.5s.67,1.5,1.5,1.5h12c.83,0,1.5-.67,1.5-1.5s-.67-1.5-1.5-1.5Z"/><path d="m20.5,13h-12c-.83,0-1.5.67-1.5,1.5s.67,1.5,1.5,1.5h12c.83,0,1.5-.67,1.5-1.5s-.67-1.5-1.5-1.5Z"/></g><path d="m3.5,21c.83,0,1.5-.67,1.5-1.5v-5c0-.83-.67-1.5-1.5-1.5s-1.5.67-1.5,1.5v5c0,.83.67,1.5,1.5,1.5Z"/></svg>