<svg xmlns="http://www.w3.org/2000/svg" width="24" height="24" viewBox="0 0 24 24"><g opacity="0.4"><path d="m14.5,7c-.83,0-1.5.67-1.5,1.5v11c0,.83.67,1.5,1.5,1.5s1.5-.67,1.5-1.5v-11c0-.83-.67-1.5-1.5-1.5Z"/><path d="m4.5,12c-.83,0-1.5.67-1.5,1.5v6c0,.83.67,1.5,1.5,1.5s1.5-.67,1.5-1.5v-6c0-.83-.67-1.5-1.5-1.5Z"/></g><path d="m9.5,3c-.83,0-1.5.67-1.5,1.5v15c0,.83.67,1.5,1.5,1.5s1.5-.67,1.5-1.5V4.5c0-.83-.67-1.5-1.5-1.5Z"/><path d="m19.5,14c-.83,0-1.5.67-1.5,1.5v4c0,.83.67,1.5,1.5,1.5s1.5-.67,1.5-1.5v-4c0-.83-.67-1.5-1.5-1.5Z"/></svg>