<svg xmlns="http://www.w3.org/2000/svg" width="24" height="24" viewBox="0 0 24 24"><g opacity="0.4"><path d="m20,13.47v-3.47c0-3.86-2.64-6.9-6.15-7.77-.3-.72-1.01-1.23-1.85-1.23s-1.54.5-1.84,1.22c-1.39.33-2.67,1.02-3.73,2.04-.19.18-.37.38-.54.57l14.72,14.72c.83-.52,1.39-1.45,1.39-2.56,0-.66-.23-1.31-.64-1.82l-1.36-1.7Z"/><path d="m4,10l.02,3.45-1.38,1.73c-.41.51-.64,1.16-.64,1.91,0,1.61,1.31,2.91,2.91,2.91h14.03L5.02,6.08c-.67,1.18-1.02,2.52-1.02,3.92Z"/></g><path d="m15,20h-6c0,1.66,1.34,3,3,3s3-1.34,3-3Z"/><path d="m2.28,1.22c-.29-.29-.77-.29-1.06,0s-.29.77,0,1.06l20.5,20.5c.15.15.34.22.53.22s.38-.07.53-.22c.29-.29.29-.77,0-1.06L2.28,1.22Z"/></svg>