<svg xmlns="http://www.w3.org/2000/svg" width="24" height="24" viewBox="0 0 24 24"><g opacity="0.4"><path d="m19.5,6H4.5c-1.93,0-3.5,1.57-3.5,3.5h22c0-1.93-1.57-3.5-3.5-3.5Z"/><path d="M17 15A1.5 1.5 0 1 0 17 18 1.5 1.5 0 1 0 17 15z"/><path d="m1,19.5c0,1.93,1.57,3.5,3.5,3.5h15c1.93,0,3.5-1.57,3.5-3.5v-8.5H1v8.5Zm16-7c2.21,0,4,1.79,4,4s-1.79,4-4,4-4-1.79-4-4,1.79-4,4-4Zm-10,0c2.21,0,4,1.79,4,4s-1.79,4-4,4-4-1.79-4-4,1.79-4,4-4Z"/><path d="M7 15A1.5 1.5 0 1 0 7 18 1.5 1.5 0 1 0 7 15z"/></g><path d="m7,6v-1.5c0-.28.22-.5.5-.5h9c.28,0,.5.22.5.5v1.5h2.5c.17,0,.34.03.5.05v-1.55c0-1.93-1.57-3.5-3.5-3.5H7.5c-1.93,0-3.5,1.57-3.5,3.5v1.55c.16-.02.33-.05.5-.05h2.5Z"/><path d="M1 9.5H23V11H1z"/><path d="m11,16.5c0-2.21-1.79-4-4-4s-4,1.79-4,4,1.79,4,4,4,4-1.79,4-4Zm-5.5,0c0-.83.67-1.5,1.5-1.5s1.5.67,1.5,1.5-.67,1.5-1.5,1.5-1.5-.67-1.5-1.5Z"/><path d="m21,16.5c0-2.21-1.79-4-4-4s-4,1.79-4,4,1.79,4,4,4,4-1.79,4-4Zm-5.5,0c0-.83.67-1.5,1.5-1.5s1.5.67,1.5,1.5-.67,1.5-1.5,1.5-1.5-.67-1.5-1.5Z"/></svg>