<svg xmlns="http://www.w3.org/2000/svg" width="24" height="24" viewBox="0 0 24 24"><g opacity="0.4"><path d="m1,17.5c0,2.48,2.02,4.5,4.5,4.5h13c2.48,0,4.5-2.02,4.5-4.5v-9.5H1v9.5Zm5.75-3.25h.86l2.03-2.93c.15-.21.38-.35.66-.32.26.01.49.16.62.39l2.92,5.42,1.55-2.24c.14-.2.37-.32.62-.32h1.25c.41,0,.75.34.75.75s-.34.75-.75.75h-.86l-2.03,2.93c-.14.2-.37.32-.62.32-.01,0-.03,0-.04,0-.26-.01-.49-.16-.62-.39l-2.92-5.42-1.55,2.24c-.14.2-.37.32-.62.32h-1.25c-.41,0-.75-.34-.75-.75s.34-.75.75-.75Z"/></g><path d="m8,16.25c.41,0,.79-.2,1.03-.54l1.09-1.57,2.53,4.7c.2.38.6.63,1.03.66h.08c.41,0,.79-.2,1.03-.54l1.88-2.71h.6c.69,0,1.25-.56,1.25-1.25s-.56-1.25-1.25-1.25h-1.25c-.41,0-.79.2-1.03.54l-1.09,1.57-2.53-4.7c-.2-.38-.6-.63-1.02-.66-.45-.04-.86.16-1.11.54l-1.88,2.71h-.6c-.69,0-1.25.56-1.25,1.25s.56,1.25,1.25,1.25h1.25Zm5.75,2.75h0s0,0,0,0Z"/><path d="m18.5,2H5.5C3.02,2,1,4.02,1,6.5v1.5h22v-1.5c0-2.48-2.02-4.5-4.5-4.5Z"/></svg>