<svg xmlns="http://www.w3.org/2000/svg" width="24" height="24" viewBox="0 0 24 24"><g opacity="0.4"><path d="M18.52 16A3.5 3.5 0 1 0 18.52 23 3.5 3.5 0 1 0 18.52 16z"/><path d="m13.7,1.62c-.22-.08-.43-.15-.66-.21-.17-.05-.34-.07-.5-.11-.81.05-1.9.62-3.17,2.59-1.12,1.72-2.12,4.12-2.83,6.76l-.1.38,7.67,2.06.1-.38c1.26-4.71,1.42-9.76-.51-11.08Z"/></g><path d="m7.35,22.65c.8.21,1.62-.26,1.84-1.06l2.46-9.18-2.9-.78-2.46,9.18c-.21.8.26,1.62,1.06,1.84Z"/><path d="m6.54,10.64c.71-2.64,1.71-5.04,2.83-6.76,1.27-1.96,2.36-2.54,3.17-2.59C7.9.34,3.2,3.36,1.89,8.25c-.1.38-.05.79.15,1.14s.53.6.91.7l3.49.93.1-.38Z"/><path d="m14.21,12.7l-.1.38,3.33.89c.13.04.26.05.39.05.66,0,1.27-.44,1.45-1.11,1.29-4.82-1.19-9.73-5.58-11.29,1.93,1.32,1.77,6.37.51,11.08Z"/></svg>