<svg xmlns="http://www.w3.org/2000/svg" width="24" height="24" viewBox="0 0 24 24"><g opacity="0.4"><path d="m18.24,14.77l-4.16-2.77,4.26-2.84c.74-.49,1.12-1.36.97-2.26-.11-.68-.58-1.26-1.17-1.61l-5.74-3.41c-.69-.41-1.56-.42-2.26-.02-.7.4-1.14,1.15-1.14,1.96v4.8l-3.42-2.28c-.69-.46-1.62-.27-2.08.42-.46.69-.27,1.62.42,2.08l4.75,3.17-4.75,3.17c-.69.46-.88,1.39-.42,2.08.46.69,1.39.88,2.08.42l3.42-2.28v4.8c0,.81.44,1.56,1.14,1.96.34.2.73.29,1.11.29s.8-.11,1.15-.31l5.84-3.47c.76-.45,1.19-1.3,1.09-2.2-.08-.69-.51-1.29-1.09-1.67Zm-6.24-9.64l3.69,2.19-3.69,2.46v-4.65Zm0,13.73v-4.65l3.69,2.46-3.69,2.19Z"/></g></svg>