<svg xmlns="http://www.w3.org/2000/svg" width="24" height="24" viewBox="0 0 24 24"><g opacity="0.4"><path d="m18.5,6H5.5c-2.48,0-4.5,2.02-4.5,4.5v8c0,2.48,2.02,4.5,4.5,4.5h13c2.48,0,4.5-2.02,4.5-4.5v-8c0-2.48-2.02-4.5-4.5-4.5Zm-10,13.25c0,.41-.34.75-.75.75s-.75-.34-.75-.75v-9.5c0-.41.34-.75.75-.75s.75.34.75.75v9.5Zm8.5,0c0,.41-.34.75-.75.75s-.75-.34-.75-.75v-9.5c0-.41.34-.75.75-.75s.75.34.75.75v9.5Z"/></g><path d="m18,4.5c0-1.93-1.57-3.5-3.5-3.5h-5c-1.93,0-3.5,1.57-3.5,3.5v1.5h3v-1.5c0-.28.22-.5.5-.5h5c.28,0,.5.22.5.5v1.5h3v-1.5Z"/><path d="m15.5,9.75v9.5c0,.41.34.75.75.75s.75-.34.75-.75v-9.5c0-.41-.34-.75-.75-.75s-.75.34-.75.75Z"/><path d="m7,9.75v9.5c0,.41.34.75.75.75s.75-.34.75-.75v-9.5c0-.41-.34-.75-.75-.75s-.75.34-.75.75Z"/></svg>