<svg xmlns="http://www.w3.org/2000/svg" width="24" height="24" viewBox="0 0 24 24"><g opacity="0.4"><path d="m20.53,8H3.47c-.7,0-1.35.32-1.78.88-.43.56-.57,1.27-.39,1.95l2.33,8.82c.52,1.97,2.31,3.35,4.35,3.35h8.04c2.04,0,3.83-1.38,4.35-3.35l2.33-8.83c.18-.68.03-1.39-.39-1.95-.43-.56-1.08-.88-1.78-.88Zm-9.78,9.75c0,.41-.34.75-.75.75s-.75-.34-.75-.75v-4.5c0-.41.34-.75.75-.75s.75.34.75.75v4.5Zm4,0c0,.41-.34.75-.75.75s-.75-.34-.75-.75v-4.5c0-.41.34-.75.75-.75s.75.34.75.75v4.5Z"/></g><path d="m16.7,8h3.46l-3-5.24c-.41-.72-1.33-.97-2.05-.56-.72.41-.97,1.33-.56,2.05l2.15,3.76Z"/><path d="m9.45,4.24c.41-.72.16-1.64-.56-2.05-.72-.41-1.63-.16-2.05.56l-3,5.24h3.46l2.15-3.76Z"/><path d="m9.25,13.25v4.5c0,.41.34.75.75.75s.75-.34.75-.75v-4.5c0-.41-.34-.75-.75-.75s-.75.34-.75.75Z"/><path d="m14,18.5c.41,0,.75-.34.75-.75v-4.5c0-.41-.34-.75-.75-.75s-.75.34-.75.75v4.5c0,.41.34.75.75.75Z"/></svg>