<svg xmlns="http://www.w3.org/2000/svg" width="24" height="24" viewBox="0 0 24 24"><g opacity="0.4"><path d="M15.5,4h-7C6,4,4,6,4,8.5v7C4,18,6,20,8.5,20h7c2.5,0,4.5-2,4.5-4.5v-7C20,6,18,4,15.5,4z M16,11.1l-3.9,3.9
	c-0.3,0.3-0.7,0.4-1.1,0.4s-0.8-0.2-1.1-0.4L8,13.1c-0.6-0.6-0.6-1.5,0-2.1c0.6-0.6,1.5-0.6,2.1,0l0.9,0.9L13.9,9
	c0.6-0.6,1.5-0.6,2.1,0C16.6,9.6,16.6,10.5,16,11.1z"/></g><path d="m13.88,9l-2.88,2.88-.88-.88c-.59-.59-1.54-.59-2.12,0-.59.59-.59,1.54,0,2.12l1.94,1.94c.29.29.68.44,1.06.44s.77-.15,1.06-.44l3.94-3.94c.59-.59.59-1.54,0-2.12-.59-.59-1.54-.59-2.12,0Z"/></svg>