<svg xmlns="http://www.w3.org/2000/svg" width="24" height="24" viewBox="0 0 24 24"><g opacity="0.4"><path d="m7.12,22.91c.11.06.23.09.35.09.27,0,.53-.15.67-.4l2.36-4.5c.19-.37.05-.82-.32-1.01-.36-.19-.82-.05-1.01.32l-2.36,4.5c-.19.37-.05.82.32,1.01Z"/><path d="m16.54,22.91c.11.06.23.09.35.09.27,0,.53-.15.67-.4l2.36-4.5c.19-.37.05-.82-.32-1.01-.37-.19-.82-.05-1.01.32l-2.36,4.5c-.19.37-.05.82.32,1.01Z"/><path d="m3.6,20.63c.11.06.23.09.35.09.27,0,.53-.15.67-.4l1.16-2.21c.19-.37.05-.82-.32-1.01-.36-.19-.82-.05-1.01.32l-1.16,2.21c-.19.37-.05.82.32,1.01Z"/><path d="m13.03,20.63c.11.06.23.09.35.09.27,0,.53-.15.67-.4l1.16-2.21c.19-.37.05-.82-.32-1.01-.37-.19-.82-.05-1.01.32l-1.16,2.21c-.19.37-.05.82.32,1.01Z"/><path d="m2.46,22.94c.09.04.19.06.29.06.2,0,.39-.08.53-.22.07-.07.13-.15.16-.24.04-.09.06-.19.06-.29,0-.19-.08-.39-.22-.53-.07-.07-.15-.13-.24-.16-.18-.08-.39-.08-.58,0-.09.03-.17.09-.24.16-.07.07-.12.15-.16.24-.04.1-.06.19-.06.29,0,.2.08.39.22.53.07.07.15.12.24.16Z"/><path d="m11.89,22.94c.09.04.19.06.29.06.2,0,.39-.08.53-.22.07-.07.12-.15.16-.24s.06-.19.06-.29c0-.19-.08-.39-.22-.53-.21-.21-.54-.28-.82-.16-.09.03-.17.09-.24.16-.07.07-.13.15-.16.24-.04.1-.06.19-.06.29,0,.2.08.39.22.53.07.07.15.12.24.16Z"/></g><path d="m20.11,7.25c-.57-3.54-3.49-6.25-6.99-6.25-2.28,0-4.36,1.14-5.68,3.05-3.41-.49-6.43,2.38-6.43,5.95,0,3.31,2.55,6,5.69,6h12.01c2.37,0,4.29-2.02,4.29-4.5,0-1.97-1.21-3.64-2.89-4.25Z"/></svg>