<svg xmlns="http://www.w3.org/2000/svg" width="24" height="24" viewBox="0 0 24 24"><g opacity="0.4"><path d="m10.96,11.75c0-3.96,3.02-7.21,7.03-7.57l2.86-.25c-.12-.14-.23-.28-.36-.41C16.62-.34,9.68.33,5,5,1.47,8.54.23,13.37,1.51,17.19l5.51-.9c2.28-.37,3.94-2.28,3.94-4.53Z"/><path d="m18.25,7.18c-2.45.22-4.29,2.19-4.29,4.58,0,3.73-2.72,6.88-6.46,7.49l-4.42.72c.15.17.29.35.45.51,1.69,1.69,3.96,2.51,6.38,2.51,3.11,0,6.46-1.36,9.09-3.99,3.54-3.54,4.78-8.38,3.49-12.2l-4.24.38Z"/></g><path d="m7.5,19.25c3.74-.61,6.46-3.76,6.46-7.49,0-2.39,1.85-4.36,4.29-4.58l4.24-.38c-.35-1.05-.91-2.02-1.65-2.87l-2.86.25c-4.01.36-7.03,3.61-7.03,7.57,0,2.25-1.66,4.16-3.94,4.53l-5.51.9c.34,1.02.87,1.96,1.57,2.78l4.42-.72Z"/></svg>