<svg xmlns="http://www.w3.org/2000/svg" width="24" height="24" viewBox="0 0 24 24"><g opacity="0.4"><path d="m20.5,18H3.5c-1.38,0-2.5,1.12-2.5,2.5s1.12,2.5,2.5,2.5h17c1.38,0,2.5-1.12,2.5-2.5s-1.12-2.5-2.5-2.5Z"/></g><path d="m3.5,18h17s0,0,0,0h-1.89c.67-1.25,1.39-2.95,1.39-4.53,0-2.42-.95-4.76-2.5-6.47-1.26.59-3.75,2.22-3.75,6,0,.41-.34.75-.75.75s-.75-.34-.75-.75c0-4.07,2.44-6.13,4.08-7.06-.13-.1-.25-.21-.39-.3.04-.22.06-.44.06-.67,0-1.25-.57-2.4-1.57-3.15-1-.76-2.29-1-3.52-.67-1.34.36-2.43,1.47-2.77,2.82-.15.57-.17,1.12-.07,1.67-2.46,1.65-4.06,4.67-4.06,7.83,0,1.59.42,3.17,1.17,4.53h-1.67s0,0,0,0Z"/></svg>