<svg xmlns="http://www.w3.org/2000/svg" width="24" height="24" viewBox="0 0 24 24"><g opacity="0.4"><path d="m11.25,12h-2.75c-.83,0-1.5.67-1.5,1.5v1.5h4.25v-3Z"/><path d="m17,13.5c0-.83-.67-1.5-1.5-1.5h-2.75v3h4.25v-1.5Z"/><path d="m22.03,1.21L1.53,7.36c-.4.12-.62.54-.5.93.1.33.4.53.72.53.07,0,.14-.01.22-.03l9.28-2.79v2.99h1.5v-3.44l9.72-2.91c.4-.12.62-.54.5-.93-.12-.4-.53-.62-.93-.5Z"/></g><path d="m15.5,9h-7c-2.48,0-4.5,2.02-4.5,4.5v5c0,2.48,2.02,4.5,4.5,4.5h7c2.48,0,4.5-2.02,4.5-4.5v-5c0-2.48-2.02-4.5-4.5-4.5Zm1.5,4.5v1.5h-4.25v-3h2.75c.83,0,1.5.67,1.5,1.5Zm-8.5-1.5h2.75v3h-4.25v-1.5c0-.83.67-1.5,1.5-1.5Z"/></svg>