<svg xmlns="http://www.w3.org/2000/svg" width="24" height="24" viewBox="0 0 24 24"><g opacity="0.4"><path d="m8.81,11.77c-.26-.48-.77-.77-1.31-.77s-1.05.3-1.31.77L1.6,20.03c-.34.62-.33,1.38.02,1.98.36.61,1.02.99,1.72.99h9.15c.53,0,1.02-.28,1.29-.74s.28-1.02.02-1.49l-5-9Z"/><path d="m22.14,5.45c.45.05.86-.29.86-.75,0-.37-.27-.7-.64-.74-2.7-.31-4.17-2.52-4.23-2.62-.14-.22-.4-.39-.64-.34-.26,0-.5.14-.63.36-.06.1-1.46,2.3-4.22,2.61-.37.04-.64.37-.64.74h0c0,.45.4.8.86.75,1.29-.15,2.33-.63,3.14-1.18v2.09c-.7.66-1.8,1.43-3.36,1.61-.37.04-.64.37-.64.74h0c0,.45.4.8.86.75,1.29-.15,2.33-.63,3.14-1.18v2.74c.87.03,1.67.51,2.1,1.27l.9,1.63v-5.66c.82.56,1.86,1.05,3.14,1.2.45.05.86-.29.86-.75,0-.37-.27-.7-.64-.74-1.54-.18-2.66-.96-3.36-1.63v-2.09c.82.56,1.86,1.05,3.14,1.2Z"/></g><path d="M5 1A4 4 0 1 0 5 9 4 4 0 1 0 5 1z"/><path d="m8.81,11.77l5,9c.26.46.25,1.03-.02,1.49s-.76.74-1.29.74h8.15c.71,0,1.37-.38,1.72-.99.36-.61.37-1.37.02-1.98l-4.3-7.74c-.44-.79-1.28-1.28-2.19-1.28H7.5c.54,0,1.05.3,1.31.77Z"/></svg>