<svg xmlns="http://www.w3.org/2000/svg" width="24" height="24" viewBox="0 0 24 24"><g opacity="0.4"><path d="m17.96,10.04l-5.21-2.84v-2.45h1.5c.41,0,.75-.34.75-.75s-.34-.75-.75-.75h-1.5v-1.5c0-.41-.34-.75-.75-.75s-.75.34-.75.75v1.5h-1.5c-.41,0-.75.34-.75.75s.34.75.75.75h1.5v2.45l-5.21,2.84c-.64.35-1.04,1.02-1.04,1.76v11.2h4v-3c0-1.66,1.34-3,3-3s3,1.34,3,3v3h4v-11.2c0-.73-.4-1.41-1.04-1.76Zm-5.96,4.46c-1.1,0-2-.9-2-2s.9-2,2-2,2,.9,2,2-.9,2-2,2Z"/></g><path d="m21.72,13.59l-2.72-1.05v10.46h2c1.1,0,2-.9,2-2v-5.54c0-.83-.51-1.57-1.28-1.87Z"/><path d="m5,20v-7.46l-2.72,1.05c-.77.3-1.28,1.04-1.28,1.87v5.54c0,1.1.9,2,2,2h2v-3Z"/><path d="M12 10.5A2 2 0 1 0 12 14.5 2 2 0 1 0 12 10.5z"/><path d="m15,20c0-1.66-1.34-3-3-3s-3,1.34-3,3v3h6v-3Z"/></svg>