<svg xmlns="http://www.w3.org/2000/svg" width="24" height="24" viewBox="0 0 24 24"><g opacity="0.4"><path d="m4.5,16c-.83,0-1.5.67-1.5,1.5v2c0,.83.67,1.5,1.5,1.5s1.5-.67,1.5-1.5v-2c0-.83-.67-1.5-1.5-1.5Z"/><path d="m9.5,13c-.83,0-1.5.67-1.5,1.5v5c0,.83.67,1.5,1.5,1.5s1.5-.67,1.5-1.5v-5c0-.83-.67-1.5-1.5-1.5Z"/><path d="m14.5,14c-.83,0-1.5.67-1.5,1.5v4c0,.83.67,1.5,1.5,1.5s1.5-.67,1.5-1.5v-4c0-.83-.67-1.5-1.5-1.5Z"/><path d="m19.5,10c-.83,0-1.5.67-1.5,1.5v8c0,.83.67,1.5,1.5,1.5s1.5-.67,1.5-1.5v-8c0-.83-.67-1.5-1.5-1.5Z"/></g><path d="m20.5,2.5c-.65-.52-1.59-.41-2.11.23l-4.13,5.16-3.83-3.06c-.65-.52-1.59-.41-2.11.23l-5.06,6.33c-.52.65-.41,1.59.23,2.11.65.52,1.59.41,2.11-.23l4.13-5.16,3.83,3.06c.65.52,1.59.41,2.11-.23l5.06-6.33c.52-.65.41-1.59-.23-2.11Z"/></svg>