<svg xmlns="http://www.w3.org/2000/svg" width="24" height="24" viewBox="0 0 24 24"><g opacity="0.4"><path d="m7.5,17h4c.83,0,1.5-.67,1.5-1.5s-.67-1.5-1.5-1.5h-4c-.83,0-1.5.67-1.5,1.5s.67,1.5,1.5,1.5Z"/><path d="m21.5,20H4.5c-.28,0-.5-.22-.5-.5V2.5c0-.83-.67-1.5-1.5-1.5s-1.5.67-1.5,1.5v17c0,1.93,1.57,3.5,3.5,3.5h17c.83,0,1.5-.67,1.5-1.5s-.67-1.5-1.5-1.5Z"/></g><path d="m19.5,9H7.5c-.83,0-1.5.67-1.5,1.5s.67,1.5,1.5,1.5h12c.83,0,1.5-.67,1.5-1.5s-.67-1.5-1.5-1.5Z"/><path d="m7.5,7h7c.83,0,1.5-.67,1.5-1.5s-.67-1.5-1.5-1.5h-7c-.83,0-1.5.67-1.5,1.5s.67,1.5,1.5,1.5Z"/></svg>