<svg xmlns="http://www.w3.org/2000/svg" width="24" height="24" viewBox="0 0 24 24"><g opacity="0.4"><path d="m1,17.5v1c0,.83.67,1.5,1.5,1.5h15.5v-4H2.5c-.83,0-1.5.67-1.5,1.5Z"/></g><path d="m21.5,16h-3.5v4h3.5c.83,0,1.5-.67,1.5-1.5v-1c0-.83-.67-1.5-1.5-1.5Z"/><path d="m11.67,4.52c3.54.24,3.7,2.39,3.7,2.64,0,.41.33.75.75.75.17,0,4.04.11,4.36,5.37.02.4.34.72.74.72h.02c.42,0,.76-.35.74-.76-.19-3.35-1.64-5.02-2.88-5.84-.88-.59-1.76-.82-2.33-.92-.28-1.11-1.29-3.18-4.96-3.45-.43-.03-.81.3-.81.74v.02c0,.38.29.71.67.73Z"/><path d="m8.9,12.06c1.73,1.15,3.81,1.35,5.72.55.41-.17.86-.13,1.23.12.27.18.47.45.57.76.1.3.39.51.71.51h0c.51,0,.88-.5.72-.98-.21-.62-.61-1.16-1.17-1.53-.8-.53-1.76-.62-2.64-.25-1.43.6-3,.45-4.3-.42-1.4-.93-2.23-2.52-2.23-4.26v-2.8c0-.41-.34-.75-.75-.75s-.75.34-.75.75v2.8c0,2.24,1.08,4.3,2.9,5.51Z"/></svg>