<svg xmlns="http://www.w3.org/2000/svg" width="24" height="24" viewBox="0 0 24 24"><g opacity="0.4"><path d="M12 7A3 3 0 1 0 12 13 3 3 0 1 0 12 7z"/><path d="m16.5,1H7.5c-2.48,0-4.5,2.02-4.5,4.5v9c0,2.48,2.02,4.5,4.5,4.5h9c2.48,0,4.5-2.02,4.5-4.5V5.5c0-2.48-2.02-4.5-4.5-4.5Zm-4.5,15c-3.31,0-6-2.69-6-6s2.69-6,6-6,6,2.69,6,6-2.69,6-6,6Z"/></g><path d="m10.5,19v1h-2c-.83,0-1.5.67-1.5,1.5s.67,1.5,1.5,1.5h7c.83,0,1.5-.67,1.5-1.5s-.67-1.5-1.5-1.5h-2v-1h-3Z"/><path d="m12,16c3.31,0,6-2.69,6-6s-2.69-6-6-6-6,2.69-6,6,2.69,6,6,6Zm0-9c1.65,0,3,1.35,3,3s-1.35,3-3,3-3-1.35-3-3,1.35-3,3-3Z"/></svg>