<svg xmlns="http://www.w3.org/2000/svg" width="24" height="24" viewBox="0 0 24 24"><g opacity="0.4"><path d="m20.5,14h-8c-.83,0-1.5.67-1.5,1.5s.67,1.5,1.5,1.5h8c.83,0,1.5-.67,1.5-1.5s-.67-1.5-1.5-1.5Z"/><path d="m20.5,7h-8c-.83,0-1.5.67-1.5,1.5s.67,1.5,1.5,1.5h8c.83,0,1.5-.67,1.5-1.5s-.67-1.5-1.5-1.5Z"/></g><path d="m7.47,5.97l-3.47,3.47-.97-.97c-.29-.29-.77-.29-1.06,0s-.29.77,0,1.06l1.5,1.5c.15.15.34.22.53.22s.38-.07.53-.22l4-4c.29-.29.29-.77,0-1.06s-.77-.29-1.06,0Z"/><path d="m7.47,12.97l-3.47,3.47-.97-.97c-.29-.29-.77-.29-1.06,0s-.29.77,0,1.06l1.5,1.5c.15.15.34.22.53.22s.38-.07.53-.22l4-4c.29-.29.29-.77,0-1.06s-.77-.29-1.06,0Z"/></svg>