<svg xmlns="http://www.w3.org/2000/svg" width="24" height="24" viewBox="0 0 24 24"><g opacity="0.4"><path d="m12,4c.42,0,.85.03,1.26.1.08.01.16.02.24.02.73,0,1.36-.53,1.48-1.27.13-.82-.43-1.59-1.25-1.72-.57-.09-1.15-.14-1.73-.14C5.93,1,1,5.93,1,12s4.93,11,11,11c.58,0,1.16-.05,1.73-.14.82-.13,1.38-.9,1.25-1.72-.13-.82-.91-1.38-1.72-1.25-.41.07-.84.1-1.26.1-4.41,0-8-3.59-8-8S7.59,4,12,4Z"/></g><path d="m20.55,16.41c-.67-.49-1.61-.35-2.1.32-.46.63-1.01,1.19-1.64,1.66-.66.5-.79,1.44-.29,2.1.29.39.74.6,1.2.6.31,0,.63-.1.9-.3.86-.65,1.61-1.41,2.25-2.28.49-.67.35-1.61-.32-2.1Z"/><path d="m21.18,9.13c-.82.12-1.39.88-1.27,1.7.06.38.08.78.08,1.17,0,.39-.03.78-.08,1.16-.12.82.45,1.58,1.27,1.7.07.01.15.02.22.02.73,0,1.37-.54,1.48-1.28.08-.52.11-1.06.11-1.59,0-.54-.04-1.08-.12-1.61-.12-.82-.88-1.4-1.7-1.27Z"/><path d="m16.81,5.61c.62.47,1.18,1.03,1.64,1.66.29.4.75.61,1.21.61.31,0,.62-.09.89-.29.67-.49.81-1.43.32-2.1-.64-.86-1.39-1.63-2.25-2.28-.66-.5-1.6-.37-2.1.29-.5.66-.37,1.6.29,2.1Z"/></svg>