<svg xmlns="http://www.w3.org/2000/svg" width="24" height="24" viewBox="0 0 24 24"><g opacity="0.4"><path d="m17.5,2.47C12.25-.56,5.51,1.25,2.47,6.5c-3.03,5.25-1.23,11.99,4.03,15.03,1.73,1,3.62,1.47,5.48,1.47,3.8,0,7.51-1.97,9.55-5.5,3.03-5.25,1.23-11.99-4.03-15.03Zm-.09,12.65c-.19.32-.52.5-.87.5-.17,0-.34-.04-.5-.13l-4.55-2.62s-.06-.06-.09-.08c-.06-.04-.11-.08-.15-.14-.04-.05-.07-.1-.11-.16-.03-.05-.06-.11-.08-.17-.02-.07-.03-.13-.04-.2,0-.04-.02-.08-.02-.12v-5.25c0-.55.45-1,1-1s1,.45,1,1v4.67l4.05,2.34c.48.28.64.89.37,1.37Z"/></g><path d="m11.07,12.32c.02.06.05.11.08.17.03.06.06.11.11.16.05.05.1.09.15.14.03.03.06.06.09.08l4.55,2.62c.16.09.33.13.5.13.35,0,.68-.18.87-.5.28-.48.11-1.09-.37-1.37l-4.05-2.34v-4.67c0-.55-.45-1-1-1s-1,.45-1,1v5.25s.02.08.02.12c0,.07.02.14.04.2Z"/></svg>