<svg xmlns="http://www.w3.org/2000/svg" width="24" height="24" viewBox="0 0 24 24"><g opacity="0.4"><path d="M16 17A1 1 0 1 0 16 19 1 1 0 1 0 16 17z"/><path d="M20 17A1 1 0 1 0 20 19 1 1 0 1 0 20 17z"/><path d="M16 20A1 1 0 1 0 16 22 1 1 0 1 0 16 20z"/><path d="M12 18A1 1 0 1 0 12 20 1 1 0 1 0 12 18z"/><path d="M12 21A1 1 0 1 0 12 23 1 1 0 1 0 12 21z"/><path d="M8 20A1 1 0 1 0 8 22 1 1 0 1 0 8 20z"/><path d="M8 17A1 1 0 1 0 8 19 1 1 0 1 0 8 17z"/><path d="M4 17A1 1 0 1 0 4 19 1 1 0 1 0 4 17z"/></g><path d="m20.11,7.25c-.57-3.54-3.49-6.25-6.99-6.25-2.28,0-4.36,1.14-5.68,3.05-3.41-.49-6.43,2.38-6.43,5.95,0,3.31,2.55,6,5.69,6h12.01c2.37,0,4.29-2.02,4.29-4.5,0-1.97-1.21-3.64-2.89-4.25Z"/></svg>