<svg xmlns="http://www.w3.org/2000/svg" width="24" height="24" viewBox="0 0 24 24"><g opacity="0.4"><path d="m18.5,4h-1.2l-1.11-1.66c-.56-.84-1.49-1.34-2.5-1.34h-3.39c-1,0-1.94.5-2.5,1.34l-1.11,1.66h-1.2c-.14,0-.27.03-.4.04l3.79,3.79c.88-.66,1.95-1.08,3.11-1.08,2.85,0,5.25,2.4,5.25,5.25,0,1.16-.41,2.23-1.08,3.11l4.99,4.99c1.11-.82,1.83-2.12,1.83-3.61v-8c0-2.48-2.02-4.5-4.5-4.5Z"/><path d="m12,17.25c-2.85,0-5.25-2.4-5.25-5.25,0-1.16.41-2.23,1.08-3.11L3.45,4.51c-1.45.75-2.45,2.24-2.45,3.99v8c0,2.48,2.02,4.5,4.5,4.5h13c.43,0,.85-.08,1.24-.2l-4.63-4.63c-.88.66-1.95,1.08-3.11,1.08Z"/><path d="m14.25,12c0-1.2-1.05-2.25-2.25-2.25-.34,0-.66.09-.95.24l2.97,2.97c.15-.29.24-.62.24-.95Z"/><path d="m9.75,12c0,1.2,1.05,2.25,2.25,2.25.34,0,.66-.09.95-.24l-2.97-2.97c-.15.29-.24.62-.24.95Z"/></g><path d="m2.28,1.22c-.29-.29-.77-.29-1.06,0s-.29.77,0,1.06l20.5,20.5c.15.15.34.22.53.22s.38-.07.53-.22c.29-.29.29-.77,0-1.06L2.28,1.22Z"/></svg>