<svg xmlns="http://www.w3.org/2000/svg" width="24" height="24" viewBox="0 0 24 24"><g opacity="0.4"><path d="M18 7.98 14.5 9.44 14.5 19.8 18 18.45 18 7.98z"/><path d="m19.5,7.35v10.52l1.58-.61c1.15-.44,1.92-1.57,1.92-2.8v-6.61c0-.63-.22-1.23-.58-1.73l-2.92,1.22Z"/><path d="m2.49,18.73l4.63,2.7c.47.27.99.41,1.51.41.36,0,.73-.07,1.08-.2l3.29-1.27v-10.31l-3.05,1.27c-.8.33-1.7.31-2.47-.07l-6.19-3.02c-.19.39-.29.83-.29,1.28v6.61c0,1.06.57,2.06,1.49,2.59Z"/></g><path d="m21.51,5.27l-4.63-2.7c-.79-.46-1.74-.54-2.59-.21L2.92,6.73c-.73.28-1.31.84-1.63,1.52l6.19,3.02c.78.38,1.68.4,2.47.07l12.47-5.21c-.24-.34-.54-.64-.91-.86Z"/></svg>