<svg xmlns="http://www.w3.org/2000/svg" width="24" height="24" viewBox="0 0 24 24"><g opacity="0.4"><path d="m12,1c-6.07,0-11,4.94-11,11s4.93,11,11,11c6.07,0,11-4.94,11-11S18.07,1,12,1Zm5,14c-.59.59-1.54.59-2.12,0l-2.88-2.88-2.88,2.88c-.59.59-1.54.59-2.12,0-.59-.59-.59-1.54,0-2.12l3.94-3.94c.29-.29.68-.44,1.06-.44s.77.15,1.06.44l3.94,3.94c.59.59.59,1.54,0,2.12Z"/></g><path d="m9.12,15l2.88-2.88,2.88,2.88c.59.59,1.54.59,2.12,0,.59-.59.59-1.54,0-2.12l-3.94-3.94c-.29-.29-.68-.44-1.06-.44s-.77.15-1.06.44l-3.94,3.94c-.59.59-.59,1.54,0,2.12.59.59,1.54.59,2.12,0Z"/></svg>