<svg xmlns="http://www.w3.org/2000/svg" width="24" height="24" viewBox="0 0 24 24"><g opacity="0.4"><path d="m17.5,2H6.5c-2.48,0-4.5,2.02-4.5,4.5v11c0,2.48,2.02,4.5,4.5,4.5h11c2.48,0,4.5-2.02,4.5-4.5V6.5c0-2.48-2.02-4.5-4.5-4.5Zm-2.5,12.88c.59.59.59,1.54,0,2.12-.59.59-1.54.59-2.12,0l-3.94-3.94c-.29-.29-.44-.68-.44-1.06s.15-.77.44-1.06l3.94-3.94c.59-.59,1.54-.59,2.12,0,.59.59.59,1.54,0,2.12l-2.88,2.88,2.88,2.88Z"/></g><path d="m15,7c-.59-.59-1.54-.59-2.12,0l-3.94,3.94c-.29.29-.44.68-.44,1.06s.15.77.44,1.06l3.94,3.94c.59.59,1.54.59,2.12,0,.59-.59.59-1.54,0-2.12l-2.88-2.88,2.88-2.88c.59-.59.59-1.54,0-2.12Z"/></svg>