<svg xmlns="http://www.w3.org/2000/svg" width="24" height="24" viewBox="0 0 24 24"><g opacity="0.4"><path d="m20.5,18H3.5c-1.38,0-2.5,1.12-2.5,2.5s1.12,2.5,2.5,2.5h17c1.38,0,2.5-1.12,2.5-2.5s-1.12-2.5-2.5-2.5Z"/><path d="M9 6.5A1.5 1.5 0 1 0 9 9.5 1.5 1.5 0 1 0 9 6.5z"/></g><path d="m19.47,6.96c-1.58-2.36-4.28-3.6-8.01-3.69l-1.9-1.94c-.24-.24-.55-.35-.89-.33-.33.03-.63.22-.81.5L2.05,10.4c-.79,1.21-.63,2.81.38,3.84,1.03,1.05,2.66,1.21,3.87.38l1.71-1.16h.62l-3.7,4.53h-1.43s0,0,0,0h17s0,0,0,0h-.22c.67-2.51,1.56-7.52-.81-11.04Zm-10.47,2.54c-.83,0-1.5-.67-1.5-1.5s.67-1.5,1.5-1.5,1.5.67,1.5,1.5-.67,1.5-1.5,1.5Z"/></svg>