<svg xmlns="http://www.w3.org/2000/svg" width="24" height="24" viewBox="0 0 24 24"><g opacity="0.4"><path d="M11.75 13.5A1.5 1.5 0 1 0 11.75 16.5 1.5 1.5 0 1 0 11.75 13.5z"/><path d="m2,18.5c0,2.49,2.01,4.5,4.5,4.5h11c2.49,0,4.5-2.01,4.5-4.5v-10.5H2v10.5Zm9.75-8c2.48,0,4.5,2.02,4.5,4.5,0,.71-.18,1.38-.48,1.98l.04-.04.44.44c.59.59.59,1.54,0,2.12-.59.59-1.54.59-2.12,0l-.44-.44.04-.04c-.6.3-1.27.48-1.98.48-2.48,0-4.5-2.02-4.5-4.5s2.02-4.5,4.5-4.5Z"/></g><path d="m18,3.05v-.55c0-.83-.67-1.5-1.5-1.5s-1.5.67-1.5,1.5v.5h-6v-.5c0-.83-.67-1.5-1.5-1.5s-1.5.67-1.5,1.5v.55c-2.25.25-4,2.14-4,4.45v.5h20v-.5c0-2.31-1.75-4.2-4-4.45Z"/><path d="m11.75,10.5c-2.48,0-4.5,2.02-4.5,4.5s2.02,4.5,4.5,4.5c.71,0,1.38-.18,1.98-.48l-.04.04.44.44c.59.59,1.54.59,2.12,0,.59-.59.59-1.54,0-2.12l-.44-.44-.04.04c.3-.6.48-1.27.48-1.98,0-2.48-2.02-4.5-4.5-4.5Zm0,6c-.83,0-1.5-.67-1.5-1.5s.67-1.5,1.5-1.5,1.5.67,1.5,1.5-.67,1.5-1.5,1.5Z"/></svg>