<svg xmlns="http://www.w3.org/2000/svg" width="24" height="24" viewBox="0 0 24 24"><g opacity="0.4"><path d="m6.56,21.26h1c.28,0,.5.22.5.5v2c0,.27.14.32.31.11l3.37-4.21c.17-.21.09-.39-.19-.39h-1c-.27,0-.4-.2-.28-.45l.55-1.11c.12-.25,0-.45-.28-.45h-3c-.27,0-.55.22-.62.49l-.76,3.03c-.07.27.1.49.38.49Z"/><path d="m14.56,20.26h.5c.28,0,.5.22.5.5v1c0,.27.14.33.32.12l1.86-2.23c.18-.21.1-.38-.18-.38h-.5c-.27,0-.4-.2-.28-.45l.55-1.1c.12-.25,0-.45-.28-.45h-1.5c-.27,0-.57.21-.66.47l-.68,2.05c-.09.26.07.47.34.47Z"/></g><path d="m20.11,7.25c-.57-3.54-3.49-6.25-6.99-6.25-2.28,0-4.36,1.14-5.68,3.05-3.41-.49-6.43,2.38-6.43,5.95,0,3.31,2.55,6,5.69,6h12.01c2.37,0,4.29-2.02,4.29-4.5,0-1.97-1.21-3.64-2.89-4.25Z"/></svg>