<svg xmlns="http://www.w3.org/2000/svg" width="24" height="24" viewBox="0 0 24 24"><g opacity="0.4"><path d="m17.5,2H6.5c-1.95,0-3.6,1.26-4.22,3h9.8c1.14,0,2.17.63,2.68,1.66l1.19,2.39c1.16.21,2.05,1.23,2.05,2.45,0,1.38-1.12,2.5-2.5,2.5s-2.5-1.12-2.5-2.5c0-.4.1-.77.27-1.11l-1.2-2.39H2v9.5c0,2.48,2.02,4.5,4.5,4.5h11c1.95,0,3.6-1.26,4.22-3h-9.8c-1.14,0-2.17-.63-2.68-1.66l-1.19-2.39c-1.16-.21-2.05-1.23-2.05-2.45,0-1.38,1.12-2.5,2.5-2.5s2.5,1.12,2.5,2.5c0,.4-.1.77-.27,1.11l1.2,2.39h10.07V6.5c0-2.48-2.02-4.5-4.5-4.5Z"/></g><path d="m13.27,10.39c-.17.34-.27.71-.27,1.11,0,1.38,1.12,2.5,2.5,2.5s2.5-1.12,2.5-2.5c0-1.22-.89-2.24-2.05-2.45l-1.19-2.39c-.51-1.02-1.54-1.66-2.68-1.66H2.28c-.17.47-.28.97-.28,1.5v1.5h10.07l1.2,2.39Z"/><path d="m2.28,5h0s0-.02,0-.02c0,0,0,.01,0,.02Z"/><path d="m21.72,19h0s0,.02,0,.02c0,0,0-.01,0-.02Z"/><path d="m10.73,13.61c.17-.34.27-.71.27-1.11,0-1.38-1.12-2.5-2.5-2.5s-2.5,1.12-2.5,2.5c0,1.22.89,2.24,2.05,2.45l1.19,2.39c.51,1.02,1.54,1.66,2.68,1.66h9.79c.17-.47.28-.97.28-1.5v-1.5h-10.07l-1.2-2.39Z"/></svg>