<svg xmlns="http://www.w3.org/2000/svg" width="24" height="24" viewBox="0 0 24 24"><g opacity="0.4"><path d="m18,3H6c0,2.76-2.24,5-5,5v8c2.76,0,5,2.24,5,5h12c0-2.76,2.24-5,5-5v-8c-2.76,0-5-2.24-5-5Zm-6,14c-2.76,0-5-2.24-5-5s2.24-5,5-5,5,2.24,5,5-2.24,5-5,5Z"/></g><path d="M12 7A5 5 0 1 0 12 17 5 5 0 1 0 12 7z"/><path d="m20,3h-2c0,2.76,2.24,5,5,5v-2c0-1.65-1.35-3-3-3Z"/><path d="m18,21h2c1.65,0,3-1.35,3-3v-2c-2.76,0-5,2.24-5,5Z"/><path d="m6,3h-2c-1.65,0-3,1.35-3,3v2c2.76,0,5-2.24,5-5Z"/><path d="m4,21h2c0-2.76-2.24-5-5-5v2c0,1.65,1.35,3,3,3Z"/></svg>