<svg xmlns="http://www.w3.org/2000/svg" width="24" height="24" viewBox="0 0 24 24"><g opacity="0.4"><path d="m18.5,4h-1.2l-1.11-1.66c-.56-.84-1.49-1.34-2.5-1.34h-3.39c-1,0-1.94.5-2.5,1.34l-1.11,1.66h-1.2c-2.48,0-4.5,2.02-4.5,4.5v8c0,2.48,2.02,4.5,4.5,4.5h13c2.48,0,4.5-2.02,4.5-4.5v-8c0-2.48-2.02-4.5-4.5-4.5Zm-6.5,2.5c1.24,0,2.25.99,2.25,2.22s-1.01,2.22-2.25,2.22-2.25-.99-2.25-2.22,1.01-2.22,2.25-2.22Zm4.5,9c0,.55-.45,1-1,1h-7c-.55,0-1-.45-1-1v-.44c0-1.66,1.34-3,3-3h3c1.66,0,3,1.34,3,3v.44Z"/></g><path d="M12 6.5A2.25 2.22 0 1 0 12 10.940000000000001 2.25 2.22 0 1 0 12 6.5z"/><path d="m8.5,16.5h7c.55,0,1-.45,1-1v-.44c0-1.66-1.34-3-3-3h-3c-1.66,0-3,1.34-3,3v.44c0,.55.45,1,1,1Z"/></svg>