<svg xmlns="http://www.w3.org/2000/svg" width="24" height="24" viewBox="0 0 24 24"><g opacity="0.4"><path d="m18.5,4h-1.2l-1.11-1.66c-.56-.84-1.49-1.34-2.5-1.34h-3.39c-1,0-1.94.5-2.5,1.34l-1.11,1.66h-1.2c-2.48,0-4.5,2.02-4.5,4.5v8c0,2.48,2.02,4.5,4.5,4.5h13c2.48,0,4.5-2.02,4.5-4.5v-8c0-2.48-2.02-4.5-4.5-4.5Zm.15,8.35l-2.79,2.79c-.32.32-.85.09-.85-.35v-1.29h-6v1.29c0,.45-.54.67-.85.35l-2.79-2.79c-.2-.2-.2-.51,0-.71l2.79-2.79c.32-.31.85-.09.85.35v1.29h6v-1.29c0-.45.54-.67.85-.35l2.79,2.79c.2.2.2.51,0,.71Z"/></g><path d="m8.15,15.15c.32.32.85.09.85-.35v-1.29h6v1.29c0,.45.54.67.85.35l2.79-2.79c.2-.2.2-.51,0-.71l-2.79-2.79c-.32-.31-.85-.09-.85.35v1.29h-6v-1.29c0-.45-.54-.67-.85-.35l-2.79,2.79c-.2.2-.2.51,0,.71l2.79,2.79Z"/></svg>