<svg xmlns="http://www.w3.org/2000/svg" width="24" height="24" viewBox="0 0 24 24"><g opacity="0.4"><path d="m19.33,7.03L7.42,1.81c-.74-.32-1.55-.34-2.3-.05-.75.29-1.33.86-1.66,1.59l-1.79,4.09c-.66,1.52.03,3.29,1.54,3.95l11.91,5.21c.39.17.8.25,1.2.25,1.16,0,2.26-.67,2.75-1.8l1.79-4.09c.66-1.52-.03-3.29-1.54-3.95Z"/></g><path d="m21.77,11.43l-.92-.4-1.75,4,.92.4c.51.22,1.1,0,1.32-.51l.95-2.17c.22-.51,0-1.1-.51-1.32Z"/><path d="m2.5,23c.83,0,1.5-.67,1.5-1.5v-1.5h4.5c.61,0,1.17-.37,1.39-.94l1.61-4.03-2.75-1.2-1.27,3.18h-3.48v-1.5c0-.83-.67-1.5-1.5-1.5s-1.5.67-1.5,1.5v6c0,.83.67,1.5,1.5,1.5Z"/></svg>