<svg xmlns="http://www.w3.org/2000/svg" width="24" height="24" viewBox="0 0 24 24"><g opacity="0.4"><path d="m19.9,9.76c-.6-3.82-3.92-6.76-7.9-6.76-2.84,0-5.42,1.55-6.84,3.9.15,0,.31-.02.46-.02,3.64,0,6.65,2.74,7.07,6.27.05.45-.29.85-.75.85-.37,0-.7-.27-.74-.64-.32-2.8-2.7-4.99-5.59-4.99-.88,0-1.71.21-2.45.57-1.92,1.14-3.17,3.21-3.17,5.56,0,3.58,2.92,6.5,6.5,6.5h11.75c3.17,0,5.75-2.58,5.75-5.75,0-2.58-1.72-4.78-4.1-5.49Z"/></g><path d="m11.21,13.36c.04.37.37.64.74.64.45,0,.8-.4.75-.85-.42-3.53-3.43-6.27-7.07-6.27-.16,0-.31.01-.46.02-.28.46-.52.93-.71,1.44-.46.15-.88.36-1.28.6.74-.36,1.57-.57,2.45-.57,2.89,0,5.27,2.19,5.59,4.99Z"/></svg>