<svg xmlns="http://www.w3.org/2000/svg" width="24" height="24" viewBox="0 0 24 24"><g opacity="0.4"><path d="m19,2H5c-1.1,0-2.1.45-2.83,1.17-.72.72-1.17,1.72-1.17,2.83v.03c0,.54.43.96.97,1,3.75.24,7.13,1.86,9.64,4.37s4.2,6.03,4.38,9.88c.02.4.34.73.74.73h2.28c1.1,0,2.1-.45,2.83-1.17s1.17-1.72,1.17-2.83V6c0-1.1-.45-2.1-1.17-2.83-.72-.72-1.72-1.17-2.83-1.17Z"/></g><path d="m2.33,12.09c2.17.29,4.17,1.27,5.74,2.84,1.57,1.57,2.56,3.58,2.84,5.74.1.76.72,1.33,1.49,1.33.89,0,1.61-.77,1.5-1.65-.36-2.85-1.64-5.48-3.7-7.54-2.06-2.06-4.7-3.35-7.54-3.7-.88-.11-1.65.61-1.65,1.5,0,.76.57,1.39,1.33,1.49Z"/><path d="m2.12,17.12c.91.21,1.74.66,2.42,1.34.67.67,1.13,1.51,1.34,2.42.15.64.67,1.12,1.33,1.12h.31c.86,0,1.49-.79,1.32-1.64-.31-1.51-1.06-2.9-2.18-4.02-1.12-1.12-2.51-1.86-4.02-2.18-.84-.17-1.64.46-1.64,1.32v.31c0,.66.48,1.18,1.12,1.33Z"/><path d="M2.5 19A1.5 1.5 0 1 0 2.5 22 1.5 1.5 0 1 0 2.5 19z"/></svg>