<svg xmlns="http://www.w3.org/2000/svg" width="24" height="24" viewBox="0 0 24 24"><g opacity="0.4"><path d="m17,17c1.28,0,2.5-.31,3.57-.85l.13-1.22.12-1.31c-1.04.86-2.37,1.38-3.82,1.38-3.31,0-6-2.69-6-6h-2c0,4.41,3.59,8,8,8Z"/><path d="M14.25 6.5A1.25 1.25 0 1 0 14.25 9 1.25 1.25 0 1 0 14.25 6.5z"/><path d="M19.75 6.5A1.25 1.25 0 1 0 19.75 9 1.25 1.25 0 1 0 19.75 6.5z"/></g><path d="m22.99,3v-.79c0-.45-.53-.67-.85-.36l-1.14,1.14h-8l-1.14-1.14c-.32-.32-.86-.09-.85.36v.79s0,0,0,0v6c0,3.31,2.69,6,6,6s6-2.69,6-6V3h0Zm-8.74,6c-.69,0-1.25-.56-1.25-1.25s.56-1.25,1.25-1.25,1.25.56,1.25,1.25-.56,1.25-1.25,1.25Zm5.5,0c-.69,0-1.25-.56-1.25-1.25s.56-1.25,1.25-1.25,1.25.56,1.25,1.25-.56,1.25-1.25,1.25Z"/><g><path d="m9,9h-4c-.55,0-1-.45-1-1s.45-1,1-1c2.01,0,5-1.2,5-4.5,0-.83-.67-1.5-1.5-1.5s-1.5.67-1.5,1.5c0,1.36-1.54,1.49-2,1.5-2.21,0-4,1.79-4,4,0,1.51.85,2.81,2.08,3.49l.79,8.72c.14,1.58,1.47,2.79,3.06,2.79,1.69,0,3.07-1.37,3.07-3.07v-.93h4v.93c0,1.69,1.37,3.07,3.07,3.07h.02c1.57,0,2.89-1.19,3.05-2.75l.43-4.1c-1.08.54-2.29.85-3.57.85-4.41,0-8-3.59-8-8Z"/></g></svg>