<svg xmlns="http://www.w3.org/2000/svg" width="24" height="24" viewBox="0 0 24 24"><g opacity="0.4"><path d="m21.5,20H4.5c-.28,0-.5-.22-.5-.5V2.5c0-.83-.67-1.5-1.5-1.5s-1.5.67-1.5,1.5v17c0,1.93,1.57,3.5,3.5,3.5h17c.83,0,1.5-.67,1.5-1.5s-.67-1.5-1.5-1.5Z"/></g><path d="m20,1c-1.65,0-3,1.35-3,3,0,.92.42,1.73,1.07,2.28l-.81,2.82c-.33.08-.65.22-.92.4l-2.4-2c.03-.17.05-.33.05-.51,0-1.65-1.35-3-3-3s-3,1.35-3,3c0,.92.42,1.73,1.07,2.28l-.81,2.82c-1.3.33-2.27,1.5-2.27,2.9,0,1.65,1.35,3,3,3s3-1.35,3-3c0-.81-.32-1.54-.85-2.08l.89-3.1,2.99,2.49c.16,1.51,1.42,2.69,2.97,2.69,1.65,0,3-1.35,3-3,0-.81-.32-1.54-.85-2.08l.89-3.12c1.14-.43,1.95-1.52,1.95-2.8,0-1.65-1.35-3-3-3Z"/></svg>