<svg xmlns="http://www.w3.org/2000/svg" width="24" height="24" viewBox="0 0 24 24"><g opacity="0.4"><path d="m21.5,6H7.5c-.83,0-1.5.67-1.5,1.5v2c0,.71.1,1.4.26,2.06h0s1.01.37,1.01.37c2.39.92,5.25.78,7.47-.35,2.41-1.24,5.46-1.45,8.12-.61.08-.48.14-.97.14-1.48v-2c0-.83-.67-1.5-1.5-1.5Z"/></g><path d="m6.32,11.75c.86,3.12,3.45,5.54,6.68,6.12v2.13h-2c-.83,0-1.5.67-1.5,1.5s.67,1.5,1.5,1.5h7c.83,0,1.5-.67,1.5-1.5s-.67-1.5-1.5-1.5h-2v-2.13c3.49-.63,6.25-3.39,6.86-6.89-2.65-.84-5.71-.63-8.12.61-2.22,1.14-5.08,1.28-7.47.35l-1-.39c-.17-.66-.27-1.34-.27-2.05v-2c0-.83.67-1.5,1.5-1.5h4.45c-.12-1.28-.64-2.47-1.56-3.39-1.04-1.04-2.42-1.61-3.89-1.61s-2.85.57-3.89,1.61c-1.04,1.04-1.61,2.42-1.61,3.89s.57,2.85,1.61,3.89c1.01,1.01,2.34,1.57,3.76,1.6-.02-.08-.03-.16-.05-.24Z"/><path d="m21.74,2.02c-.51-.35-1.15-.47-1.75-.33-.6.14-1.13.52-1.44,1.05l-1.93,3.26h1.74l1.47-2.5c.11-.18.28-.3.48-.35.2-.05.41,0,.58.11l1.31.89c.34.23.81.14,1.04-.2.23-.34.14-.81-.2-1.04l-1.31-.89Z"/></svg>