<svg xmlns="http://www.w3.org/2000/svg" width="24" height="24" viewBox="0 0 24 24"><g opacity="0.4"><path d="m12,1C5.93,1,1,5.93,1,12s4.93,11,11,11,11-4.93,11-11S18.07,1,12,1Zm5.5,9.12l-5.94,5.94c-.29.29-.68.44-1.06.44s-.77-.15-1.06-.44l-2.94-2.94c-.59-.59-.59-1.54,0-2.12.59-.59,1.54-.59,2.12,0l1.88,1.88,4.88-4.88c.59-.59,1.54-.59,2.12,0,.59.59.59,1.54,0,2.12Z"/></g><path d="m15.38,8l-4.88,4.88-1.88-1.88c-.59-.59-1.54-.59-2.12,0-.59.59-.59,1.54,0,2.12l2.94,2.94c.29.29.68.44,1.06.44s.77-.15,1.06-.44l5.94-5.94c.59-.59.59-1.54,0-2.12-.59-.59-1.54-.59-2.12,0Z"/></svg>