<svg xmlns="http://www.w3.org/2000/svg" width="24" height="24" viewBox="0 0 24 24"><g opacity="0.4"><path d="m2,18.5c0,2.49,2.01,4.5,4.5,4.5h11c2.49,0,4.5-2.01,4.5-4.5v-10.5H2v10.5Zm5.69-5.19c-.59-.59-.59-1.54,0-2.12.59-.59,1.54-.59,2.12,0l2.19,2.19,2.19-2.19c.59-.59,1.54-.59,2.12,0,.59.59.59,1.54,0,2.12l-2.19,2.19,2.19,2.19c.59.59.59,1.54,0,2.12-.29.29-.68.44-1.06.44s-.77-.15-1.06-.44l-2.19-2.19-2.19,2.19c-.29.29-.68.44-1.06.44s-.77-.15-1.06-.44c-.59-.59-.59-1.54,0-2.12l2.19-2.19-2.19-2.19Z"/></g><path d="m18,3.05v-.55c0-.83-.67-1.5-1.5-1.5s-1.5.67-1.5,1.5v.5h-6v-.5c0-.83-.67-1.5-1.5-1.5s-1.5.67-1.5,1.5v.55c-2.25.25-4,2.14-4,4.45v.5h20v-.5c0-2.31-1.75-4.2-4-4.45Z"/><path d="m7.69,19.81c.29.29.68.44,1.06.44s.77-.15,1.06-.44l2.19-2.19,2.19,2.19c.29.29.68.44,1.06.44s.77-.15,1.06-.44c.59-.59.59-1.54,0-2.12l-2.19-2.19,2.19-2.19c.59-.59.59-1.54,0-2.12-.59-.59-1.54-.59-2.12,0l-2.19,2.19-2.19-2.19c-.59-.59-1.54-.59-2.12,0-.59.59-.59,1.54,0,2.12l2.19,2.19-2.19,2.19c-.59.59-.59,1.54,0,2.12Z"/></svg>