<svg xmlns="http://www.w3.org/2000/svg" width="24" height="24" viewBox="0 0 24 24"><g opacity="0.4"><path class="st0" d="M4,22h1c0.8,0,1.5-0.7,1.5-1.5V19h-2c-0.7,0-1.4-0.2-2-0.6v2.1C2.5,21.3,3.2,22,4,22z"/><path class="st0" d="M20,22c0.8,0,1.5-0.7,1.5-1.5v-2.1c-0.6,0.4-1.3,0.6-2,0.6h-2v1.5c0,0.8,0.7,1.5,1.5,1.5H20z"/><path d="M15,8.9h-2.5c-0.3,0-0.4-0.2-0.4-0.5L13,5.5c0.1-0.3,0-0.3-0.2-0.1l-4.1,5.3c-0.2,0.2-0.1,0.4,0.2,0.4h2.5
	c0.3,0,0.4,0.2,0.4,0.5L11,14.5c-0.1,0.3,0,0.3,0.2,0.1l4.1-5.3C15.4,9.1,15.3,8.9,15,8.9z"/></g><path d="m20.12,5c-.63-1.8-2.34-3-4.24-3h-7.76c-1.9,0-3.61,1.21-4.24,3l-1.73,4.91c-.73.66-1.15,1.59-1.15,2.59v3c0,1.93,1.57,3.5,3.5,3.5h15c1.93,0,3.5-1.57,3.5-3.5v-3c0-1-.42-1.93-1.15-2.59l-1.73-4.91Zm-14.12,11c-1.1,0-2-.9-2-2s.9-2,2-2,2,.9,2,2-.9,2-2,2Zm9.2-6.71l-4.06,5.32c-.17.22-.24.18-.16-.08l.88-2.93c.08-.26-.08-.48-.36-.48h-2.5c-.28,0-.36-.18-.2-.4l4.06-5.32c.17-.22.24-.18.16.08l-.88,2.93c-.08.26.08.48.36.48h2.5c.28,0,.36.18.2.4Zm2.8,6.71c-1.1,0-2-.9-2-2s.9-2,2-2,2,.9,2,2-.9,2-2,2Z"/></svg>