<svg xmlns="http://www.w3.org/2000/svg" width="24" height="24" viewBox="0 0 24 24"><g opacity="0.4"><path d="m2,18.5c0,2.49,2.01,4.5,4.5,4.5h11c2.49,0,4.5-2.01,4.5-4.5v-10.5H2v10.5Zm5.59-6.63c1.11-1.16,3.09-1.04,4.23.09l.15.15.15-.15c1.14-1.13,3.11-1.24,4.23-.09,1.08,1.12,1.07,2.86-.05,3.96l-3.42,3.38c-.51.5-1.33.5-1.84,0l-3.42-3.38c-1.11-1.1-1.13-2.84-.05-3.96Z"/></g><path d="m18,3.05v-.55c0-.83-.67-1.5-1.5-1.5s-1.5.67-1.5,1.5v.5h-6v-.5c0-.83-.67-1.5-1.5-1.5s-1.5.67-1.5,1.5v.55c-2.25.25-4,2.14-4,4.45v.5h20v-.5c0-2.31-1.75-4.2-4-4.45Z"/><path d="m12.89,19.21l3.42-3.38c1.11-1.1,1.13-2.84.05-3.96-1.11-1.16-3.09-1.04-4.23.09l-.15.15-.15-.15c-1.14-1.13-3.11-1.24-4.23-.09-1.08,1.12-1.07,2.86.05,3.96l3.42,3.38c.51.5,1.33.5,1.84,0Z"/></svg>