<svg xmlns="http://www.w3.org/2000/svg" width="24" height="24" viewBox="0 0 24 24"><g opacity="0.4"><path d="m4,20h2v1.32c0,.65.77.99,1.25.56l3.13-2.82c.33-.3.33-.82,0-1.11l-3.13-2.82c-.48-.43-1.25-.09-1.25.56v1.32h-2v-2.5c0-.83-.67-1.5-1.5-1.5s-1.5.67-1.5,1.5v2.5c0,1.65,1.35,3,3,3Z"/><path d="m21.5,11c.83,0,1.5-.67,1.5-1.5v-2.5c0-1.65-1.35-3-3-3h-2v-1.32c0-.65-.77-.99-1.25-.56l-3.13,2.82c-.33.3-.33.82,0,1.11l3.13,2.82c.48.43,1.25.09,1.25-.56v-1.32h2v2.5c0,.83.67,1.5,1.5,1.5Z"/></g><rect x="1" y="1" width="10" height="10" rx="3" ry="3"/><rect x="13" y="13" width="10" height="10" rx="3" ry="3"/></svg>