<svg xmlns="http://www.w3.org/2000/svg" width="24" height="24" viewBox="0 0 24 24"><g opacity="0.4"><path d="m2,18.5c0,2.49,2.01,4.5,4.5,4.5h11c2.49,0,4.5-2.01,4.5-4.5v-10.5H2v10.5Zm5.77-5.32l2.19-.19c.13-.01.24-.09.29-.2l1.1-2.24c.26-.54,1.03-.54,1.3,0l1.1,2.24c.06.11.17.19.29.2l2.19.19c.61.05.88.8.45,1.23l-1.81,1.81c-.09.09-.13.23-.09.36l.7,2.27c.2.65-.53,1.19-1.09.81l-2.19-1.46c-.12-.08-.28-.08-.4,0l-2.19,1.46c-.57.38-1.29-.16-1.09-.81l.7-2.27c.04-.13,0-.27-.09-.36l-1.81-1.81c-.43-.43-.16-1.18.45-1.23Z"/></g><path d="m18,3.05v-.55c0-.83-.67-1.5-1.5-1.5s-1.5.67-1.5,1.5v.5h-6v-.5c0-.83-.67-1.5-1.5-1.5s-1.5.67-1.5,1.5v.55c-2.25.25-4,2.14-4,4.45v.5h20v-.5c0-2.31-1.75-4.2-4-4.45Z"/><path d="m16.68,14.41c.43-.43.16-1.18-.45-1.23l-2.19-.19c-.13-.01-.24-.09-.29-.2l-1.1-2.24c-.26-.54-1.03-.54-1.3,0l-1.1,2.24c-.06.11-.17.19-.29.2l-2.19.19c-.61.05-.88.8-.45,1.23l1.81,1.81c.09.09.13.23.09.36l-.7,2.27c-.2.65.53,1.19,1.09.81l2.19-1.46c.12-.08.28-.08.4,0l2.19,1.46c.57.38,1.29-.16,1.09-.81l-.7-2.27c-.04-.13,0-.27.09-.36l1.81-1.81Z"/></svg>