<svg xmlns="http://www.w3.org/2000/svg" width="24" height="24" viewBox="0 0 24 24"><g opacity="0.4"><path d="m6.5,2.47C1.25,5.51-.56,12.25,2.47,17.5c2.04,3.53,5.74,5.5,9.55,5.5,1.86,0,3.75-.47,5.48-1.47,5.25-3.03,7.06-9.77,4.03-15.03C18.5,1.25,11.75-.56,6.5,2.47Zm6.5,9.53s-.01.04-.01.06c0,.07-.02.13-.04.2-.02.07-.03.13-.06.19,0,.02,0,.04-.02.06l-2.62,4.55c-.19.32-.52.5-.87.5-.17,0-.34-.04-.5-.13-.48-.28-.64-.89-.37-1.37l2.49-4.32v-4.98c0-.55.45-1,1-1s1,.45,1,1v5.25Z"/></g><path d="m8.88,17.41c.16.09.33.13.5.13.35,0,.68-.18.87-.5l2.62-4.55s0-.04.02-.06c.03-.06.05-.12.06-.19.02-.07.04-.13.04-.2,0-.02.01-.04.01-.06v-5.25c0-.55-.45-1-1-1s-1,.45-1,1v4.98l-2.49,4.32c-.28.48-.11,1.09.37,1.37Z"/></svg>