<svg xmlns="http://www.w3.org/2000/svg" width="24" height="24" viewBox="0 0 24 24"><g opacity="0.4"><path d="m19.5,1h-8c-1.93,0-3.5,1.57-3.5,3.5v8c0,1.93,1.57,3.5,3.5,3.5h8c1.93,0,3.5-1.57,3.5-3.5V4.5c0-1.93-1.57-3.5-3.5-3.5Zm0,6.62l-3.94,3.94c-.29.29-.68.44-1.06.44s-.77-.15-1.06-.44l-1.94-1.94c-.59-.59-.59-1.54,0-2.12.59-.59,1.54-.59,2.12,0l.88.88,2.88-2.88c.59-.59,1.54-.59,2.12,0,.59.59.59,1.54,0,2.12Z"/></g><path d="m4.5,23h8c1.93,0,3.5-1.57,3.5-3.5v-3.5h-4.5c-1.93,0-3.5-1.57-3.5-3.5v-4.5h-3.5c-1.93,0-3.5,1.57-3.5,3.5v8c0,1.93,1.57,3.5,3.5,3.5Z"/><path d="m13.44,11.56c.29.29.68.44,1.06.44s.77-.15,1.06-.44l3.94-3.94c.59-.59.59-1.54,0-2.12-.59-.59-1.54-.59-2.12,0l-2.88,2.88-.88-.88c-.59-.59-1.54-.59-2.12,0-.59.59-.59,1.54,0,2.12l1.94,1.94Z"/></svg>