<svg xmlns="http://www.w3.org/2000/svg" width="24" height="24" viewBox="0 0 24 24"><g opacity="0.4"><path d="m19.85,8.09c.1-.35.15-.71.15-1.09,0-2.21-1.79-4-4-4-1.73,0-3.46-.41-5.01-1.18l-2.03-1.02-2.79,1.59c-1.34.76-2.17,2.19-2.17,3.73,0,.68.14,1.33.39,1.92-1.92.29-3.39,1.95-3.39,3.95,0,2.21,1.79,4,4,4h14c2.21,0,4-1.79,4-4,0-1.91-1.35-3.52-3.15-3.91Z"/></g><path d="m8.12,23h7.76c1.55,0,2.89-1,3.35-2.48l1.51-4.94c-.53.26-1.11.41-1.74.41H5c-.62,0-1.21-.16-1.74-.41l1.51,4.94c.45,1.48,1.8,2.48,3.35,2.48Z"/></svg>