<svg xmlns="http://www.w3.org/2000/svg" width="24" height="24" viewBox="0 0 24 24"><g opacity="0.4"><path d="m2,18.5c0,2.49,2.01,4.5,4.5,4.5h11c2.49,0,4.5-2.01,4.5-4.5v-10.5H2v10.5Zm14-6.5c0-.55.45-1,1-1h1c.55,0,1,.45,1,1v1c0,.55-.45,1-1,1h-1c-.55,0-1-.45-1-1v-1Zm0,5c0-.55.45-1,1-1h1c.55,0,1,.45,1,1v1c0,.55-.45,1-1,1h-1c-.55,0-1-.45-1-1v-1Zm-5.5-5c0-.55.45-1,1-1h1c.55,0,1,.45,1,1v1c0,.55-.45,1-1,1h-1c-.55,0-1-.45-1-1v-1Zm0,5c0-.55.45-1,1-1h1c.55,0,1,.45,1,1v1c0,.55-.45,1-1,1h-1c-.55,0-1-.45-1-1v-1Zm-5.5-5c0-.55.45-1,1-1h1c.55,0,1,.45,1,1v1c0,.55-.45,1-1,1h-1c-.55,0-1-.45-1-1v-1Zm0,5c0-.55.45-1,1-1h1c.55,0,1,.45,1,1v1c0,.55-.45,1-1,1h-1c-.55,0-1-.45-1-1v-1Z"/></g><path d="m18,3.05v-.55c0-.83-.67-1.5-1.5-1.5s-1.5.67-1.5,1.5v.5h-6v-.5c0-.83-.67-1.5-1.5-1.5s-1.5.67-1.5,1.5v.55c-2.25.25-4,2.14-4,4.45v.5h20v-.5c0-2.31-1.75-4.2-4-4.45Z"/><rect x="5" y="16" width="3" height="3" rx="1" ry="1"/><rect x="16" y="16" width="3" height="3" rx="1" ry="1"/><rect x="16" y="11" width="3" height="3" rx="1" ry="1"/><rect x="10.5" y="11" width="3" height="3" rx="1" ry="1"/><rect x="10.5" y="16" width="3" height="3" rx="1" ry="1"/><rect x="5" y="11" width="3" height="3" rx="1" ry="1"/></svg>