<svg xmlns="http://www.w3.org/2000/svg" width="24" height="24" viewBox="0 0 24 24"><g opacity="0.4"><path d="m8.12,19c.41,0,.75-.34.75-.75v-.5c0-.41-.34-.75-.75-.75s-.75.34-.75.75v.5c0,.41.34.75.75.75Z"/><path d="m4.25,19c.41,0,.75-.34.75-.75v-.5c0-.41-.34-.75-.75-.75s-.75.34-.75.75v.5c0,.41.34.75.75.75Z"/><path d="m19.75,19c.41,0,.75-.34.75-.75v-.5c0-.41-.34-.75-.75-.75s-.75.34-.75.75v.5c0,.41.34.75.75.75Z"/><path d="m8.12,22c.41,0,.75-.34.75-.75v-.5c0-.41-.34-.75-.75-.75s-.75.34-.75.75v.5c0,.41.34.75.75.75Z"/><path d="m12,20c.41,0,.75-.34.75-.75v-.5c0-.41-.34-.75-.75-.75s-.75.34-.75.75v.5c0,.41.34.75.75.75Z"/><path d="m12,23c.41,0,.75-.34.75-.75v-.5c0-.41-.34-.75-.75-.75s-.75.34-.75.75v.5c0,.41.34.75.75.75Z"/><path d="m15.88,19c.41,0,.75-.34.75-.75v-.5c0-.41-.34-.75-.75-.75s-.75.34-.75.75v.5c0,.41.34.75.75.75Z"/><path d="m15.88,22c.41,0,.75-.34.75-.75v-.5c0-.41-.34-.75-.75-.75s-.75.34-.75.75v.5c0,.41.34.75.75.75Z"/></g><path d="m20.11,7.25c-.57-3.54-3.49-6.25-6.99-6.25-2.28,0-4.36,1.14-5.68,3.05-3.41-.49-6.43,2.38-6.43,5.95,0,3.31,2.55,6,5.69,6h12.01c2.37,0,4.29-2.02,4.29-4.5,0-1.97-1.21-3.64-2.89-4.25Z"/></svg>