<svg xmlns="http://www.w3.org/2000/svg" width="24" height="24" viewBox="0 0 24 24"><g opacity="0.4"><path d="m17.5,2H6.5c-2.48,0-4.5,2.02-4.5,4.5v11c0,2.48,2.02,4.5,4.5,4.5h11c2.48,0,4.5-2.02,4.5-4.5V6.5c0-2.48-2.02-4.5-4.5-4.5Zm0,8.12l-5.94,5.94c-.29.29-.68.44-1.06.44s-.77-.15-1.06-.44l-2.94-2.94c-.59-.59-.59-1.54,0-2.12.59-.59,1.54-.59,2.12,0l1.88,1.88,4.88-4.88c.59-.59,1.54-.59,2.12,0,.59.59.59,1.54,0,2.12Z"/></g><path d="m9.44,16.06c.29.29.68.44,1.06.44s.77-.15,1.06-.44l5.94-5.94c.59-.59.59-1.54,0-2.12-.59-.59-1.54-.59-2.12,0l-4.88,4.88-1.88-1.88c-.59-.59-1.54-.59-2.12,0-.59.59-.59,1.54,0,2.12l2.94,2.94Z"/></svg>