<svg xmlns="http://www.w3.org/2000/svg" width="24" height="24" viewBox="0 0 24 24"><g opacity="0.4"><path d="m16.5,3H7.5c-2.48,0-4.5,2.02-4.5,4.5v9c0,2.48,2.02,4.5,4.5,4.5h9c2.48,0,4.5-2.02,4.5-4.5V7.5c0-2.48-2.02-4.5-4.5-4.5Zm-.5,11.5c0,.83-.67,1.5-1.5,1.5h-5c-.83,0-1.5-.67-1.5-1.5v-5c0-.83.67-1.5,1.5-1.5h5c.83,0,1.5.67,1.5,1.5v5Z"/></g><rect x="8" y="8" width="8" height="8" rx="1.5" ry="1.5"/><path d="m3,14h-1.25c-.41,0-.75.34-.75.75s.34.75.75.75h1.25v-1.5Z"/><path d="m1.75,10h1.25v-1.5h-1.25c-.41,0-.75.34-.75.75s.34.75.75.75Z"/><path d="m8.5,22.25c0,.41.34.75.75.75s.75-.34.75-.75v-1.25h-1.5v1.25Z"/><path d="m14,22.25c0,.41.34.75.75.75s.75-.34.75-.75v-1.25h-1.5v1.25Z"/><path d="m22.25,14h-1.25v1.5h1.25c.41,0,.75-.34.75-.75s-.34-.75-.75-.75Z"/><path d="m22.25,8.5h-1.25v1.5h1.25c.41,0,.75-.34.75-.75s-.34-.75-.75-.75Z"/><path d="m15.5,1.75c0-.41-.34-.75-.75-.75s-.75.34-.75.75v1.25h1.5v-1.25Z"/><path d="m10,1.75c0-.41-.34-.75-.75-.75s-.75.34-.75.75v1.25h1.5v-1.25Z"/></svg>