<svg xmlns="http://www.w3.org/2000/svg" width="24" height="24" viewBox="0 0 24 24"><g opacity="0.4"><path d="m17.5,1H6c-1.65,0-3,1.35-3,3v16c0,1.65,1.35,3,3,3h11.5c2.48,0,4.5-2.02,4.5-4.5V5.5c0-2.48-2.02-4.5-4.5-4.5Zm-5,4.5c1.71,0,3,1.29,3,3s-1.29,3-3,3-3-1.29-3-3,1.29-3,3-3Zm4.5,12.5h-9c-.55,0-1-.45-1-1,0-2.21,1.79-4,4-4h3c2.21,0,4,1.79,4,4,0,.55-.45,1-1,1Z"/></g><path d="M12.5 5.5A3 3 0 1 0 12.5 11.5 3 3 0 1 0 12.5 5.5z"/><path d="m8,18h9c.55,0,1-.45,1-1,0-2.21-1.79-4-4-4h-3c-2.21,0-4,1.79-4,4,0,.55.45,1,1,1Z"/><path d="m3,15.5h-1.25c-.41,0-.75.34-.75.75s.34.75.75.75h1.25v-1.5Z"/><path d="m1.75,12.75h1.25v-1.5h-1.25c-.41,0-.75.34-.75.75s.34.75.75.75Z"/><path d="m1.75,8.5h1.25v-1.5h-1.25c-.41,0-.75.34-.75.75s.34.75.75.75Z"/></svg>