<svg xmlns="http://www.w3.org/2000/svg" width="24" height="24" viewBox="0 0 24 24"><g opacity="0.4"><path d="m18.5,3H5.5C3.02,3,1,5.02,1,7.5v9c0,2.48,2.02,4.5,4.5,4.5h13c2.48,0,4.5-2.02,4.5-4.5V7.5c0-2.48-2.02-4.5-4.5-4.5Zm-6,13c-1.38,0-2.5-1.12-2.5-2.5s1.12-2.5,2.5-2.5c.57,0,1.08.19,1.5.51-.6.46-1,1.17-1,1.99s.4,1.53,1,1.99c-.42.32-.93.51-1.5.51Zm4,0c-1.38,0-2.5-1.12-2.5-2.5s1.12-2.5,2.5-2.5,2.5,1.12,2.5,2.5-1.12,2.5-2.5,2.5Z"/></g><path d="m12.5,16c.57,0,1.08-.19,1.5-.51-.6-.46-1-1.17-1-1.99s.4-1.53,1-1.99c-.42-.32-.93-.51-1.5-.51-1.38,0-2.5,1.12-2.5,2.5s1.12,2.5,2.5,2.5Z"/><path d="M16.5 11A2.5 2.5 0 1 0 16.5 16 2.5 2.5 0 1 0 16.5 11z"/></svg>