<svg xmlns="http://www.w3.org/2000/svg" width="24" height="24" viewBox="0 0 24 24"><g opacity="0.4"><path d="m4,11v.5c0,.83.67,1.5,1.5,1.5h13c.83,0,1.5-.67,1.5-1.5v-.5c0-1.1.9-2,2-2v-3.5c0-1.93-1.57-3.5-3.5-3.5H5.5c-1.93,0-3.5,1.57-3.5,3.5v3.5c1.1,0,2,.9,2,2Z"/></g><path d="m22,9c-1.1,0-2,.9-2,2v.5c0,.83-.67,1.5-1.5,1.5H5.5c-.83,0-1.5-.67-1.5-1.5v-.5c0-1.1-.9-2-2-2s-2,.9-2,2v4.5c0,1.76,1.31,3.21,3.01,3.45,0,.02,0,.03,0,.05v2.5c0,.83.67,1.5,1.5,1.5s1.5-.67,1.5-1.5v-2.5h12v2.5c0,.83.67,1.5,1.5,1.5s1.5-.67,1.5-1.5v-2.5s0-.03,0-.05c1.7-.24,3.01-1.69,3.01-3.45v-4.5c0-1.1-.9-2-2-2Z"/></svg>