<svg xmlns="http://www.w3.org/2000/svg" width="24" height="24" viewBox="0 0 24 24"><g opacity="0.4"><path d="m22.79,8.79c-.14-1.31-.34-2.51-.6-3.56-.28-1.11-.62-2-1-2.66-.77-1.29-1.68-1.56-2.32-1.56s-1.55.27-2.32,1.57c-.33.55-.62,1.27-.86,2.14-2.36-.72-5-.72-7.36,0-.25-.87-.54-1.59-.86-2.14-.76-1.29-1.68-1.57-2.32-1.57s-1.55.27-2.32,1.57c-.39.66-.72,1.55-1,2.66-.26,1.05-.47,2.25-.6,3.56-.2,1.97-.21,4.34-.21,4.79,0,1.68.53,3.26,1.43,4.63l2.89-2.89c.1-.1.26-.1.35,0s.1.26,0,.35l-2.95,2.95c.32.43.68.84,1.08,1.22l3.02-3.02c.1-.1.26-.1.35,0s.1.26,0,.35l-3.01,3.01c2,1.74,4.77,2.81,7.83,2.81s5.84-1.08,7.83-2.81l-3.01-3.01c-.1-.1-.1-.26,0-.35s.26-.1.35,0l3.02,3.02c.4-.38.76-.78,1.08-1.22l-2.95-2.95c-.1-.1-.1-.26,0-.35s.26-.1.35,0l2.89,2.89c.91-1.37,1.43-2.95,1.43-4.63,0-.45-.01-2.82-.21-4.79h0ZM6.75,13c-.97,0-1.75-.78-1.75-1.75s.78-1.75,1.75-1.75,1.75.78,1.75,1.75-.78,1.75-1.75,1.75Zm8.16,4.41c-.38.38-.88.59-1.41.59s-1.04-.21-1.41-.59c-.03-.03-.06-.07-.09-.1-.03.03-.05.07-.09.1-.38.38-.88.59-1.41.59s-1.04-.21-1.41-.59c-.2-.2-.2-.51,0-.71s.51-.2.71,0c.38.38,1.04.38,1.41,0,.19-.19.29-.44.29-.71,0-.03-.01-.05-.02-.08-.85-.25-1.48-1.08-1.48-1.92,0-.55.9-1,2-1s2,.45,2,1c0,.84-.63,1.67-1.48,1.92,0,.03-.02.05-.02.08,0,.27.1.52.29.71.38.38,1.04.38,1.41,0,.2-.2.51-.2.71,0s.2.51,0,.71Zm2.34-4.41c-.97,0-1.75-.78-1.75-1.75s.78-1.75,1.75-1.75,1.75.78,1.75,1.75-.78,1.75-1.75,1.75Z"/></g><path d="m10.5,18c.53,0,1.04-.21,1.41-.59.03-.03.06-.07.09-.1.03.03.05.07.09.1.38.38.88.59,1.41.59s1.04-.21,1.41-.59c.2-.2.2-.51,0-.71s-.51-.2-.71,0c-.38.38-1.04.38-1.41,0-.19-.19-.29-.44-.29-.71,0-.03.01-.05.02-.08.85-.25,1.48-1.08,1.48-1.92,0-.55-.9-1-2-1s-2,.45-2,1c0,.84.63,1.67,1.48,1.92,0,.03.02.05.02.08,0,.27-.1.52-.29.71-.38.38-1.04.38-1.41,0-.2-.2-.51-.2-.71,0s-.2.51,0,.71c.38.38.88.59,1.41.59Z"/><path d="m18.32,15.32c-.1.1-.1.26,0,.35l4,4s.11.07.18.07.13-.02.18-.07c.1-.1.1-.26,0-.35l-4-4c-.1-.1-.26-.1-.35,0Z"/><path d="m16.82,16.82c-.1.1-.1.26,0,.35l4,4s.11.07.18.07.13-.02.18-.07c.1-.1.1-.26,0-.35l-4-4c-.1-.1-.26-.1-.35,0Z"/><path d="m1.5,19.75c.06,0,.13-.02.18-.07l4-4c.1-.1.1-.26,0-.35s-.26-.1-.35,0l-4,4c-.1.1-.1.26,0,.35.05.05.11.07.18.07Z"/><path d="m6.82,16.82l-4,4c-.1.1-.1.26,0,.35.05.05.11.07.18.07s.13-.02.18-.07l4-4c.1-.1.1-.26,0-.35s-.26-.1-.35,0Z"/><path d="M6.75 9.5A1.75 1.75 0 1 0 6.75 13 1.75 1.75 0 1 0 6.75 9.5z"/><path d="M17.25 9.5A1.75 1.75 0 1 0 17.25 13 1.75 1.75 0 1 0 17.25 9.5z"/></svg>