<svg xmlns="http://www.w3.org/2000/svg" width="24" height="24" viewBox="0 0 24 24"><g opacity="0.4"><path d="m17.74,2.02c.16.29.26.62.26.98v3c0,.55-.45,1-1,1H7c-.55,0-1-.45-1-1v-3c0-.36.1-.69.26-.98-2.37.13-4.26,2.08-4.26,4.48v12c0,2.48,2.02,4.5,4.5,4.5h11c2.48,0,4.5-2.02,4.5-4.5V6.5c0-2.4-1.89-4.35-4.26-4.48Zm-1.49,14.48h-2.75v2.75c0,.83-.67,1.5-1.5,1.5s-1.5-.67-1.5-1.5v-2.75h-2.75c-.83,0-1.5-.67-1.5-1.5s.67-1.5,1.5-1.5h2.75v-2.75c0-.83.67-1.5,1.5-1.5s1.5.67,1.5,1.5v2.75h2.75c.83,0,1.5.67,1.5,1.5s-.67,1.5-1.5,1.5Z"/></g><path d="m7,7h10c.55,0,1-.45,1-1v-3c0-1.1-.9-2-2-2h-8c-1.1,0-2,.9-2,2v3c0,.55.45,1,1,1Z"/><path d="m12,20.75c.83,0,1.5-.67,1.5-1.5v-2.75h2.75c.83,0,1.5-.67,1.5-1.5s-.67-1.5-1.5-1.5h-2.75v-2.75c0-.83-.67-1.5-1.5-1.5s-1.5.67-1.5,1.5v2.75h-2.75c-.83,0-1.5.67-1.5,1.5s.67,1.5,1.5,1.5h2.75v2.75c0,.83.67,1.5,1.5,1.5Z"/></svg>