<svg xmlns="http://www.w3.org/2000/svg" width="24" height="24" viewBox="0 0 24 24"><g opacity="0.4"><path d="m1.61,9c-.38.51-.61,1.12-.61,1.77v8.23c0,1.66,1.34,3,3,3h16c1.66,0,3-1.34,3-3v-9.5c0-.17-.02-.33-.03-.5H1.61Zm4.39,10c-1.1,0-2-.9-2-2s.9-2,2-2,2,.9,2,2-.9,2-2,2Zm5-4c-1.1,0-2-.9-2-2s.9-2,2-2,2,.9,2,2-.9,2-2,2Zm6.5,4c-1.38,0-2.5-1.12-2.5-2.5s1.12-2.5,2.5-2.5,2.5,1.12,2.5,2.5-1.12,2.5-2.5,2.5Z"/></g><path d="M6 15A2 2 0 1 0 6 19 2 2 0 1 0 6 15z"/><path d="m9,13c0,1.1.9,2,2,2s2-.9,2-2-.9-2-2-2-2,.9-2,2Z"/><path d="m15,16.5c0,1.38,1.12,2.5,2.5,2.5s2.5-1.12,2.5-2.5-1.12-2.5-2.5-2.5-2.5,1.12-2.5,2.5Z"/><path d="m16.88,1.61c-.86-.38-1.85-.34-2.67.11L2.55,8.14c-.38.21-.69.51-.94.86h21.36c-.28-4.22-3.97-6.45-6.09-7.39Z"/></svg>