<svg xmlns="http://www.w3.org/2000/svg" width="24" height="24" viewBox="0 0 24 24"><g opacity="0.4"><path d="m18.5,4h-1.2l-1.11-1.66c-.56-.84-1.49-1.34-2.5-1.34h-3.39c-1,0-1.94.5-2.5,1.34l-1.11,1.66h-1.2c-2.48,0-4.5,2.02-4.5,4.5v8c0,2.48,2.02,4.5,4.5,4.5h13c2.48,0,4.5-2.02,4.5-4.5v-8c0-2.48-2.02-4.5-4.5-4.5Zm-3.14,12.97c-.32.22-.66.4-1.02.55-.36.15-.74.27-1.13.35-.39.08-.8.12-1.21.12s-.81-.04-1.21-.12c-.39-.08-.76-.2-1.13-.35-.36-.15-.7-.34-1.02-.55-.32-.21-.62-.46-.89-.73-.17-.16-.3-.36-.45-.55l-.45.45c-.32.32-.85.09-.85-.35v-3.29c0-.28.22-.5.5-.5h3.29c.45,0,.67.54.35.85l-.7.7s.04.08.07.12c.11.16.23.31.37.44.14.14.29.26.44.37.16.11.33.2.51.28.18.08.37.13.56.17.39.08.82.08,1.21,0,.19-.04.38-.1.56-.17.17-.07.35-.17.51-.28.69-.46,1.62-.28,2.08.4s.28,1.62-.4,2.08Zm2.64-5.47c0,.28-.22.5-.5.5h-3.29c-.45,0-.67-.54-.35-.85l.7-.7s-.04-.08-.07-.12c-.11-.16-.23-.31-.37-.44-.14-.14-.29-.26-.44-.37-.16-.11-.33-.2-.51-.28-.18-.08-.37-.13-.56-.17-.39-.08-.82-.08-1.21,0-.19.04-.38.1-.56.17-.17.07-.35.17-.51.28-.69.46-1.62.28-2.08-.4-.46-.69-.28-1.62.4-2.08.32-.22.66-.4,1.02-.55.36-.15.74-.27,1.13-.35.79-.16,1.63-.16,2.42,0,.39.08.76.2,1.13.35.36.15.7.34,1.02.55.32.21.62.46.89.73.17.16.3.36.45.55l.45-.45c.32-.31.85-.09.85.35v3.29Z"/></g><path d="m6.85,16.15l.45-.45c.15.19.29.38.45.55.27.27.57.52.89.73.32.22.66.4,1.02.55.36.15.74.27,1.13.35.39.08.8.12,1.21.12s.81-.04,1.21-.12c.39-.08.76-.2,1.13-.35.35-.15.7-.34,1.02-.55.69-.46.87-1.4.4-2.08s-1.4-.87-2.08-.4c-.16.11-.33.2-.51.28-.18.08-.37.14-.56.17-.39.08-.82.08-1.21,0-.19-.04-.38-.1-.56-.17-.18-.07-.35-.17-.51-.28-.16-.11-.31-.23-.44-.37-.13-.13-.26-.28-.37-.44-.03-.04-.04-.08-.07-.12l.7-.7c.32-.31.09-.85-.35-.85h-3.29c-.28,0-.5.22-.5.5v3.29c0,.45.54.67.85.35Z"/><path d="m10.32,9.51c.16-.11.33-.2.51-.28.18-.08.37-.14.56-.17.39-.08.82-.08,1.21,0,.19.04.38.1.56.17.18.07.35.17.51.28.16.11.31.23.44.37.13.13.26.28.37.44.03.04.04.08.07.12l-.7.7c-.32.32-.09.85.35.85h3.29c.28,0,.5-.22.5-.5v-3.29c0-.45-.54-.67-.85-.35l-.45.45c-.15-.19-.29-.38-.45-.55-.27-.27-.57-.52-.89-.73-.32-.22-.66-.4-1.02-.55-.36-.15-.74-.27-1.13-.35-.79-.16-1.63-.16-2.42,0-.39.08-.76.2-1.13.35-.35.15-.7.34-1.02.55-.69.46-.87,1.4-.4,2.08.46.69,1.4.87,2.08.4Z"/></svg>