<svg xmlns="http://www.w3.org/2000/svg" width="24" height="24" viewBox="0 0 24 24"><g opacity="0.4"><path d="M4.5 5A2.5 2.5 0 1 0 4.5 10 2.5 2.5 0 1 0 4.5 5z"/><path d="M19.5 5A2.5 2.5 0 1 0 19.5 10 2.5 2.5 0 1 0 19.5 5z"/><path d="m5,18c0-1.88.87-3.56,2.23-4.66-.64-.81-1.62-1.34-2.73-1.34-1.93,0-3.5,1.57-3.5,3.5v.5c0,1.1.9,2,2,2h2Z"/><path d="m19.5,12c-1.11,0-2.09.53-2.73,1.34,1.36,1.1,2.23,2.78,2.23,4.66h2c1.1,0,2-.9,2-2v-.5c0-1.93-1.57-3.5-3.5-3.5Z"/></g><path d="M12 3A3.5 3.5 0 1 0 12 10 3.5 3.5 0 1 0 12 3z"/><path d="m5,18v.5c0,1.38,1.12,2.5,2.5,2.5h9c1.38,0,2.5-1.12,2.5-2.5v-.5c0-3.31-2.69-6-6-6h-2c-3.31,0-6,2.69-6,6Z"/></svg>