<svg xmlns="http://www.w3.org/2000/svg" width="24" height="24" viewBox="0 0 24 24"><g opacity="0.4"><path d="m15,12c0-1.65-1.35-3-3-3v6c1.65,0,3-1.35,3-3Z"/><path d="m9,12c0-1.65,1.35-3,3-3v-3c-3.31,0-6,2.69-6,6s2.69,6,6,6v-3c-1.65,0-3-1.35-3-3Z"/><path d="m18.5,4h-1.2l-1.11-1.66c-.56-.84-1.49-1.34-2.5-1.34h-1.7v5c3.31,0,6,2.69,6,6s-2.69,6-6,6v3h6.5c2.48,0,4.5-2.02,4.5-4.5v-8c0-2.48-2.02-4.5-4.5-4.5Z"/></g><path d="m12,18c-3.31,0-6-2.69-6-6s2.69-6,6-6V1h-1.7c-1,0-1.94.5-2.5,1.34l-1.11,1.66h-1.2c-2.48,0-4.5,2.02-4.5,4.5v8c0,2.48,2.02,4.5,4.5,4.5h6.5v-3Z"/><path d="m15,12c0,1.65-1.35,3-3,3v3c3.31,0,6-2.69,6-6s-2.69-6-6-6v3c1.65,0,3,1.35,3,3Z"/><path d="m9,12c0,1.65,1.35,3,3,3v-6c-1.65,0-3,1.35-3,3Z"/></svg>