<svg xmlns="http://www.w3.org/2000/svg" width="24" height="24" viewBox="0 0 24 24"><g opacity="0.4"><path d="m5.46,17.09c-.36-.19-.82-.05-1.01.32l-2.36,4.5c-.19.37-.05.82.32,1.01.11.06.23.09.35.09.27,0,.53-.15.67-.4l2.36-4.5c.19-.37.05-.82-.32-1.01Z"/><path d="m10.17,17.09c-.36-.19-.82-.05-1.01.32l-2.36,4.5c-.19.37-.05.82.32,1.01.11.06.23.09.35.09.27,0,.53-.15.67-.4l2.36-4.5c.19-.37.05-.82-.32-1.01Z"/><path d="m14.88,17.09c-.37-.19-.82-.05-1.01.32l-2.36,4.5c-.19.37-.05.82.32,1.01.11.06.23.09.35.09.27,0,.53-.15.67-.4l2.36-4.5c.19-.37.05-.82-.32-1.01Z"/><path d="m19.6,17.09c-.37-.19-.82-.05-1.01.32l-2.36,4.5c-.19.37-.05.82.32,1.01.11.06.23.09.35.09.27,0,.53-.15.67-.4l2.36-4.5c.19-.37.05-.82-.32-1.01Z"/></g><path d="m20.11,7.25c-.57-3.54-3.49-6.25-6.99-6.25-2.28,0-4.36,1.14-5.68,3.05-3.41-.49-6.43,2.38-6.43,5.95,0,3.31,2.55,6,5.69,6h12.01c2.37,0,4.29-2.02,4.29-4.5,0-1.97-1.21-3.64-2.89-4.25Z"/></svg>