<svg xmlns="http://www.w3.org/2000/svg" width="24" height="24" viewBox="0 0 24 24"><g opacity="0.4"><path d="m20.5,5h-1.5v-.5c0-1.93-1.57-3.5-3.5-3.5h-7c-1.93,0-3.5,1.57-3.5,3.5v3.5h-1.5c-1.93,0-3.5,1.57-3.5,3.5v8.5c0,1.66,1.34,3,3,3h18c1.66,0,3-1.34,3-3v-11.5c0-1.93-1.57-3.5-3.5-3.5Zm-14.75,11.25c0,.41-.34.75-.75.75h-1c-.41,0-.75-.34-.75-.75v-1c0-.41.34-.75.75-.75h1c.41,0,.75.34.75.75v1Zm5,0c0,.41-.34.75-.75.75h-1c-.41,0-.75-.34-.75-.75v-1c0-.41.34-.75.75-.75h1.75v1.75Zm0-4.75c0,.41-.34.75-.75.75h-1c-.41,0-.75-.34-.75-.75v-1c0-.41.34-.75.75-.75h1c.41,0,.75.34.75.75v1Zm0-4.5c0,.41-.34.75-.75.75h-1c-.41,0-.75-.34-.75-.75v-1c0-.41.34-.75.75-.75h1c.41,0,.75.34.75.75v1Zm5,9.25c0,.41-.34.75-.75.75h-1c-.41,0-.75-.34-.75-.75v-1c0-.41.34-.75.75-.75h1c.41,0,.75.34.75.75v1Zm0-4.75c0,.41-.34.75-.75.75h-1c-.41,0-.75-.34-.75-.75v-1c0-.41.34-.75.75-.75h1c.41,0,.75.34.75.75v1Zm0-4.5c0,.41-.34.75-.75.75h-1c-.41,0-.75-.34-.75-.75v-1c0-.41.34-.75.75-.75h1c.41,0,.75.34.75.75v1Zm5,9.25c0,.41-.34.75-.75.75h-1c-.41,0-.75-.34-.75-.75v-1c0-.41.34-.75.75-.75h1c.41,0,.75.34.75.75v1Zm0-4.75c0,.41-.34.75-.75.75h-1c-.41,0-.75-.34-.75-.75v-1c0-.41.34-.75.75-.75h1c.41,0,.75.34.75.75v1Z"/></g><rect x="13.25" y="14.5" width="2.5" height="2.5" rx=".75" ry=".75"/><rect x="13.25" y="9.75" width="2.5" height="2.5" rx=".75" ry=".75"/><rect x="18.25" y="14.5" width="2.5" height="2.5" rx=".75" ry=".75"/><rect x="18.25" y="9.75" width="2.5" height="2.5" rx=".75" ry=".75"/><rect x="8.25" y="5.25" width="2.5" height="2.5" rx=".75" ry=".75"/><path d="m9,17h1c.41,0,.75-.34.75-.75v-1.75h-1.75c-.41,0-.75.34-.75.75v1c0,.41.34.75.75.75Z"/><rect x="3.25" y="14.5" width="2.5" height="2.5" rx=".75" ry=".75"/><rect x="8.25" y="9.75" width="2.5" height="2.5" rx=".75" ry=".75"/><rect x="13.25" y="5.25" width="2.5" height="2.5" rx=".75" ry=".75"/></svg>