<svg xmlns="http://www.w3.org/2000/svg" width="24" height="24" viewBox="0 0 24 24"><g opacity="0.4"><path d="m22.33,10.75l-1.33-.89c-.15-.1-.25-.24-.29-.44-.04-.2-.01-.39.09-.54l.89-1.33c.31-.46.34-1.05.07-1.54-.26-.49-.77-.79-1.32-.79h-2.18c-.14,0-.23-.03-.24-.03h0s-.04-.04-.07-.05c-.12-.09-.2-.19-.23-.28l-1.17-2.92c-.16-.41-.5-.72-.91-.86-.41-.14-.87-.09-1.25.14l-2.66,1.6c-.36.22-.72.35-1.08.4-.92.12-1.88-.14-2.61-.73l-1.44-1.15c-.45-.36-1.07-.43-1.59-.18-.52.25-.85.78-.85,1.35l-.03,4.78s-.04.04-.05.05h-1.58c-.61,0-1.15.37-1.39.93s-.1,1.21.33,1.63l1.5,1.5c.12.13.21.27.22.4.04.33-.07.66-.31.9l-1.41,1.41c-.43.43-.56,1.07-.33,1.63s.78.93,1.39.93h3.26c.11,0,.21.03.29.09.14.11.23.27.23.42v4.32c0,.61.37,1.15.93,1.39.19.08.38.11.57.11.39,0,.77-.15,1.06-.44l2.92-2.92c.53-.53,1.21-.88,1.98-1.02.87-.15,1.79-.02,2.59.38l1.34.67c.51.26,1.13.2,1.58-.15s.67-.92.56-1.49l-.47-2.35c-.03-.15,0-.31.09-.43,0,0,0-.01.01-.02.07-.1.12-.14.15-.16l2.74-1.83c.42-.28.67-.75.67-1.25s-.25-.97-.67-1.25Z"/></g></svg>