<svg xmlns="http://www.w3.org/2000/svg" width="24" height="24" viewBox="0 0 24 24"><g opacity="0.4"><path d="m12,9.88l-1.45-1.45c.28-.59.45-1.24.45-1.93,0-2.48-2.02-4.5-4.5-4.5S2,4.02,2,6.5s2.02,4.5,4.5,4.5c.69,0,1.34-.17,1.93-.45l1.45,1.45,2.12-2.12Zm-7-3.38c0-.83.67-1.5,1.5-1.5s1.5.67,1.5,1.5-.67,1.5-1.5,1.5-1.5-.67-1.5-1.5Z"/><path d="m14.12,12l-2.12,2.12,6.44,6.44c.29.29.68.44,1.06.44s.77-.15,1.06-.44c.59-.59.59-1.54,0-2.12l-6.44-6.44Z"/></g><path d="m18.44,3.44l-10.01,10.01c-.59-.28-1.24-.45-1.93-.45-2.48,0-4.5,2.02-4.5,4.5s2.02,4.5,4.5,4.5,4.5-2.02,4.5-4.5c0-.69-.17-1.34-.45-1.93l10.01-10.01c.59-.59.59-1.54,0-2.12-.59-.59-1.54-.59-2.12,0Zm-11.94,15.56c-.83,0-1.5-.67-1.5-1.5s.67-1.5,1.5-1.5,1.5.67,1.5,1.5-.67,1.5-1.5,1.5Z"/></svg>