<svg xmlns="http://www.w3.org/2000/svg" width="24" height="24" viewBox="0 0 24 24"><g opacity="0.4"><path d="m16.25,16.25c.59.59,1.54.59,2.12,0l3.19-3.19c.59-.59.59-1.54,0-2.12l-3.19-3.19c-.59-.59-1.54-.59-2.12,0-.59.59-.59,1.54,0,2.12l2.13,2.13-2.13,2.13c-.59.59-.59,1.54,0,2.12Z"/><path d="m7.75,7.75c-.59-.59-1.54-.59-2.12,0l-3.19,3.19c-.59.59-.59,1.54,0,2.12l3.19,3.19c.59.59,1.54.59,2.12,0,.59-.59.59-1.54,0-2.12l-2.13-2.13,2.13-2.13c.59-.59.59-1.54,0-2.12Z"/></g><path d="m10.01,21.97c.1.02.2.03.3.03.7,0,1.33-.49,1.47-1.21L15.17,3.79c.16-.81-.36-1.6-1.18-1.77-.8-.16-1.6.36-1.76,1.18l-3.4,17c-.16.81.36,1.6,1.18,1.77Z"/></svg>