<svg xmlns="http://www.w3.org/2000/svg" width="24" height="24" viewBox="0 0 24 24"><g opacity="0.4"><path d="m12,1C5.93,1,1,5.93,1,12s4.93,11,11,11,11-4.93,11-11S18.07,1,12,1Zm-6,9c0-1.1.9-2,2-2s2,.9,2,2-.9,2-2,2-2-.9-2-2Zm9.36,5.74l-6.5,1s-.08,0-.12,0c-.36,0-.68-.27-.74-.64-.06-.41.22-.79.63-.86l6.5-1c.41-.06.79.22.86.63.06.41-.22.79-.63.86Zm.64-3.74c-1.1,0-2-.9-2-2s.9-2,2-2,2,.9,2,2-.9,2-2,2Z"/></g><path d="M8 8A2 2 0 1 0 8 12 2 2 0 1 0 8 8z"/><path d="m8.64,15.26c-.41.06-.69.45-.63.86.06.37.38.64.74.64.04,0,.08,0,.12,0l6.5-1c.41-.06.69-.45.63-.86-.06-.41-.44-.69-.86-.63l-6.5,1Z"/><path d="M16 8A2 2 0 1 0 16 12 2 2 0 1 0 16 8z"/></svg>