<svg xmlns="http://www.w3.org/2000/svg" width="24" height="24" viewBox="0 0 24 24"><g opacity="0.4"><path d="m5.5,1C3.02,1,1,3.02,1,5.5v1h5.5V1h-1Z"/><path d="M12 1H17.5V6.5H12z"/><path d="M1 12H6.5V17.5H1z"/><path d="M6.5 6.5H12V12H6.5z"/><path d="M6.5 17.5H12V23H6.5z"/><path d="M17.5 6.5H23V12H17.5z"/><path d="M12 12H17.5V17.5H12z"/><path d="m18.5,23c2.48,0,4.5-2.02,4.5-4.5v-1h-5.5v5.5h1Z"/></g><path d="M6.5 1H12V6.5H6.5z"/><path d="m18.5,1h-1v5.5h5.5v-1c0-2.48-2.02-4.5-4.5-4.5Z"/><path d="M1 6.5H6.5V12H1z"/><path d="M12 6.5H17.5V12H12z"/><path d="M6.5 12H12V17.5H6.5z"/><path d="M17.5 12H23V17.5H17.5z"/><path d="m1,18.5c0,2.48,2.02,4.5,4.5,4.5h1v-5.5H1v1Z"/><path d="M12 17.5H17.5V23H12z"/></svg>