<svg xmlns="http://www.w3.org/2000/svg" width="24" height="24" viewBox="0 0 24 24"><g opacity="0.4"><path d="m2.32,21.68c.81.81,1.94,1.32,3.18,1.32h13c2.49,0,4.5-2.01,4.5-4.5V5.5c0-1.24-.5-2.37-1.32-3.18L2.32,21.68Zm16.68-2.68h-5c-.83,0-1.5-.67-1.5-1.5s.67-1.5,1.5-1.5h5c.83,0,1.5.67,1.5,1.5s-.67,1.5-1.5,1.5Z"/></g><path d="m21.68,2.32c-.81-.81-1.94-1.32-3.18-1.32H5.5C3.01,1,1,3.01,1,5.5v13c0,1.24.5,2.37,1.32,3.18L21.68,2.32ZM5,6h1v-1c0-.83.67-1.5,1.5-1.5s1.5.67,1.5,1.5v1h1c.83,0,1.5.67,1.5,1.5s-.67,1.5-1.5,1.5h-1v1c0,.83-.67,1.5-1.5,1.5s-1.5-.67-1.5-1.5v-1h-1c-.83,0-1.5-.67-1.5-1.5s.67-1.5,1.5-1.5Z"/><path d="m14,16c-.83,0-1.5.67-1.5,1.5s.67,1.5,1.5,1.5h5c.83,0,1.5-.67,1.5-1.5s-.67-1.5-1.5-1.5h-5Z"/></svg>