<svg xmlns="http://www.w3.org/2000/svg" width="24" height="24" viewBox="0 0 24 24"><g opacity="0.4"><path d="m21,14c-.34-.76-1.22-1.1-1.98-.76l-7.02,3.12-7.02-3.12c-.76-.34-1.64,0-1.98.76-.34.76,0,1.64.76,1.98l4.55,2.02-4.55,2.02c-.76.34-1.1,1.22-.76,1.98.34.76,1.22,1.1,1.98.76l7.02-3.12,7.02,3.12c.76.34,1.64,0,1.98-.76.34-.76,0-1.64-.76-1.98l-4.55-2.02,4.55-2.02c.76-.34,1.1-1.22.76-1.98Z"/></g><path class="st0" d="M12,13.9c3.3,0,6-2.7,6-6c0-1.2-0.3-2.3-1-3.4c-0.2-0.4-0.7-0.7-1.1-0.7c-0.5,0-0.9,0.1-1.2,0.5
	c-0.3,0.3-0.6,0.4-1,0.4c-0.7,0-1.3-0.6-1.3-1.3c0-0.1,0-0.2,0-0.3c0.1-0.6-0.1-1.2-0.6-1.5s-1.1-0.4-1.6-0.1C7.5,3.1,6,5.4,6,8
	C6,11.3,8.7,14,12,13.9L12,13.9z"/></svg>