<svg xmlns="http://www.w3.org/2000/svg" width="24" height="24" viewBox="0 0 24 24"><g opacity="0.4"><path d="m12,1C5.93,1,1,5.93,1,12s4.93,11,11,11,11-4.93,11-11S18.07,1,12,1Zm1,11s-.02.08-.02.12c0,.07-.02.14-.04.2-.02.06-.05.11-.08.17-.03.06-.06.11-.11.16-.05.05-.1.09-.15.14-.03.03-.06.06-.09.08-.02.01-.05.02-.07.03-.03.01-.05.02-.08.03-.11.04-.23.07-.34.07,0,0,0,0,0,0,0,0,0,0,0,0,0,0,0,0,0,0-.12,0-.23-.03-.34-.07-.03-.01-.05-.02-.08-.03-.1-.05-.2-.11-.28-.19,0,0,0-.01-.01-.01-.06-.06-.11-.12-.15-.19l-2.62-4.55c-.28-.48-.11-1.09.37-1.37.48-.28,1.09-.11,1.37.37l.76,1.31v-1.52c0-.55.45-1,1-1s1,.45,1,1v5.25Z"/></g><path d="m11.13,12.5c.04.07.09.14.15.19,0,0,0,.01.01.01.08.08.18.14.28.19.03.01.05.02.08.03.11.04.22.07.34.07,0,0,0,0,0,0,0,0,0,0,0,0,0,0,0,0,0,0,.12,0,.23-.03.34-.07.03-.01.06-.02.08-.03.02-.01.05-.02.07-.03.04-.02.06-.06.09-.08.06-.04.11-.08.15-.14.04-.05.07-.1.11-.16.03-.05.06-.11.08-.17.02-.07.03-.13.04-.2,0-.04.02-.08.02-.12v-5.25c0-.55-.45-1-1-1s-1,.45-1,1v1.52l-.76-1.31c-.28-.48-.89-.64-1.37-.37-.48.28-.64.89-.37,1.37l2.62,4.55Z"/></svg>