<svg xmlns="http://www.w3.org/2000/svg" width="24" height="24" viewBox="0 0 24 24"><g opacity="0.4"><path d="m12,1.75c-.41,0-.75.34-.75.75v1h-1.5c-.41,0-.75.34-.75.75s.34.75.75.75h1.5v2.25s0,0,0,0c.26.19.51.38.75.6.23-.22.49-.42.75-.6,0,0,0,0,0-.01v-2.25h1.5c.41,0,.75-.34.75-.75s-.34-.75-.75-.75h-1.5v-1c0-.41-.34-.75-.75-.75Z"/><path d="m20.52,18h1.03s-19.1,0-19.1,0h0s1.03,0,1.03,0c-1.37,0-2.48,1.12-2.48,2.5s1.12,2.5,2.5,2.5h17c1.38,0,2.5-1.12,2.5-2.5s-1.11-2.49-2.48-2.5Z"/></g><path d="m17.27,6.03c-1.88-.19-3.85.48-5.27,1.83-1.42-1.35-3.37-2.02-5.27-1.83-2.05.22-3.82,1.46-4.85,3.4-1.04,1.94-1.16,4.32-.32,6.36l.9,2.21h19.1l.9-2.21c.83-2.04.71-4.41-.32-6.36-1.04-1.94-2.81-3.18-4.86-3.4Z"/></svg>