<svg xmlns="http://www.w3.org/2000/svg" width="24" height="24" viewBox="0 0 24 24"><g opacity="0.4"><path d="m20.4,5.25l-6.9-3.66v9.55l8.5,5s0-.03,0-.04V7.9c0-1.11-.61-2.13-1.6-2.65Z"/><path d="m10.5,1.6l-6.9,3.65c-.99.52-1.6,1.54-1.6,2.65v8.19s0,.03,0,.04l8.5-5V1.6Z"/><path d="m3.54,18.72s.03.02.05.03l7,3.71c.44.23.92.35,1.4.35s.96-.12,1.4-.35l7-3.71s.04-.02.05-.03l-8.46-4.97-8.46,4.97Z"/></g><path d="m3.54,18.72l8.46-4.97,8.46,4.97c.94-.52,1.52-1.5,1.54-2.58l-8.5-5V1.6l-.1-.05c-.88-.46-1.93-.46-2.81,0,0,0,0,0,0,0l-.1.05v9.55l-8.5,5c.02,1.08.6,2.05,1.54,2.58Z"/></svg>