<svg xmlns="http://www.w3.org/2000/svg" width="24" height="24" viewBox="0 0 24 24"><g opacity="0.4"><path d="m16.05,1H7.95c-1.02,0-1.87.76-1.99,1.77l-.78,6.71.45.2c1.91.85,4.2.73,5.98-.33,2.12-1.26,4.82-1.44,7.12-.5l-.7-6.08c-.11-1.01-.97-1.77-1.99-1.77Z"/></g><path d="m11.62,9.36c-1.78,1.06-4.07,1.19-5.98.33l-.45-.2-.17,1.49v.17c0,3.28,2.35,6.02,5.49,6.69v2.16h-2c-.83,0-1.5.67-1.5,1.5s.67,1.5,1.5,1.5h7c.83,0,1.5-.67,1.5-1.5s-.67-1.5-1.5-1.5h-2v-2.16c3.14-.68,5.5-3.42,5.5-6.69l-.26-2.29c-2.3-.94-5.01-.76-7.12.5Z"/></svg>