<svg xmlns="http://www.w3.org/2000/svg" width="24" height="24" viewBox="0 0 24 24"><g opacity="0.4"><path d="m12,1C5.93,1,1,5.93,1,12s4.93,11,11,11,11-4.93,11-11S18.07,1,12,1Zm-4.25,11c0,.41-.34.75-.75.75s-.75-.34-.75-.75c0-3.17,2.58-5.75,5.75-5.75.41,0,.75.34.75.75s-.34.75-.75.75c-2.34,0-4.25,1.91-4.25,4.25Zm4.25,2c-1.1,0-2-.9-2-2s.9-2,2-2,2,.9,2,2-.9,2-2,2Z"/></g><path d="m7,12.75c.41,0,.75-.34.75-.75,0-2.34,1.91-4.25,4.25-4.25.41,0,.75-.34.75-.75s-.34-.75-.75-.75c-3.17,0-5.75,2.58-5.75,5.75,0,.41.34.75.75.75Z"/><path d="m10,12c0,1.1.9,2,2,2s2-.9,2-2-.9-2-2-2-2,.9-2,2Z"/></svg>