<svg xmlns="http://www.w3.org/2000/svg" width="24" height="24" viewBox="0 0 24 24"><g opacity="0.4"><path d="m17.5,2H6.5c-2.48,0-4.5,2.02-4.5,4.5v9.5h20V6.5c0-2.48-2.02-4.5-4.5-4.5Zm-1.5,7.12l-2.94,2.94c-.59.59-1.54.59-2.12,0l-2.94-2.94c-.59-.59-.59-1.54,0-2.12h0c.59-.59,1.54-.59,2.12,0l1.88,1.88,1.88-1.88c.59-.59,1.54-.59,2.12,0h0c.59.59.59,1.54,0,2.12Z"/></g><path d="m2,17.5c0,2.48,2.02,4.5,4.5,4.5h11c2.48,0,4.5-2.02,4.5-4.5v-1.5H2v1.5Z"/><path d="m10.94,12.06c.59.59,1.54.59,2.12,0l2.94-2.94c.59-.59.59-1.54,0-2.12h0c-.59-.59-1.54-.59-2.12,0l-1.88,1.88-1.88-1.88c-.59-.59-1.54-.59-2.12,0h0c-.59.59-.59,1.54,0,2.12l2.94,2.94Z"/></svg>