<svg xmlns="http://www.w3.org/2000/svg" width="24" height="24" viewBox="0 0 24 24"><g opacity="0.4"><path d="m3,11.44v2.88c.65,1.22,4.02,3.02,9,3.02s8.35-1.8,9-3.02v-2.88c-1.91,1.41-5.3,2.39-9,2.39s-7.09-.98-9-2.39Z"/><path d="m3,16.44v1.89c0,2.88,4.67,4.67,9,4.67s9-1.78,9-4.67v-1.89c-1.91,1.41-5.3,2.39-9,2.39s-7.09-.98-9-2.39Z"/><path d="m12,1C7.67,1,3,2.78,3,5.67v3.65c.65,1.22,4.02,3.02,9,3.02s8.35-1.8,9-3.02v-3.65c0-2.88-4.67-4.67-9-4.67Z"/></g><path d="m12,17.33c-4.98,0-8.35-1.8-9-3.02v2.12c1.91,1.41,5.3,2.39,9,2.39s7.09-.98,9-2.39v-2.12c-.65,1.22-4.02,3.02-9,3.02Z"/><path d="m12,12.33c-4.98,0-8.35-1.8-9-3.02v2.12c1.91,1.41,5.3,2.39,9,2.39s7.09-.98,9-2.39v-2.12c-.65,1.22-4.02,3.02-9,3.02Z"/></svg>