<svg xmlns="http://www.w3.org/2000/svg" width="24" height="24" viewBox="0 0 24 24"><g opacity="0.4"><path d="m12,1C5.93,1,1,5.93,1,12s4.93,11,11,11,11-4.93,11-11S18.07,1,12,1Zm5,10.19c0,.67-.81,1-1.28.53l-.66-.66-4,4,.66.66c.47.47.14,1.28-.53,1.28h-3.44c-.41,0-.75-.34-.75-.75v-3.44c0-.67.81-1,1.28-.53l.66.66,4-4-.66-.66c-.47-.47-.14-1.28.53-1.28h3.44c.41,0,.75.34.75.75v3.44Z"/></g><path d="m7.75,17h3.44c.67,0,1-.81.53-1.28l-.66-.66,4-4,.66.66c.47.47,1.28.14,1.28-.53v-3.44c0-.41-.34-.75-.75-.75h-3.44c-.67,0-1,.81-.53,1.28l.66.66-4,4-.66-.66c-.47-.47-1.28-.14-1.28.53v3.44c0,.41.34.75.75.75Z"/></svg>