<svg xmlns="http://www.w3.org/2000/svg" width="24" height="24" viewBox="0 0 24 24"><g opacity="0.4"><path d="m12.5,1h-6c-1.93,0-3.5,1.57-3.5,3.5v15.5h13V4.5c0-1.93-1.57-3.5-3.5-3.5Zm-.5,12.25c-.69,0-1.25-.56-1.25-1.25s.56-1.25,1.25-1.25,1.25.56,1.25,1.25-.56,1.25-1.25,1.25Z"/></g><path d="m21.5,20h-.5V4.5c0-1.93-1.57-3.5-3.5-3.5h-5c.21,0,.42.03.62.06.07.01.13.03.2.04.13.03.26.07.39.12.07.03.15.05.22.08.11.05.2.11.3.16.18.1.34.22.5.35.01.01.03.02.05.04.74.64,1.23,1.58,1.23,2.64v15.5H2.5c-.83,0-1.5.67-1.5,1.5s.67,1.5,1.5,1.5h19c.83,0,1.5-.67,1.5-1.5s-.67-1.5-1.5-1.5Z"/><path d="M12 10.75A1.25 1.25 0 1 0 12 13.25 1.25 1.25 0 1 0 12 10.75z"/></svg>