<svg xmlns="http://www.w3.org/2000/svg" width="24" height="24" viewBox="0 0 24 24"><g opacity="0.4"><path d="M16.25 5A1.25 1.25 0 1 0 16.25 7.5 1.25 1.25 0 1 0 16.25 5z"/><path d="m15.36,15h.64v-2h-.64c-2.26,0-4.1-1.76-4.32-4h-2.02c.23,3.35,2.98,6,6.34,6Z"/></g><path d="m21.91,5.22h-2.18l-1.39-1.41c-.5-.51-1.18-.8-1.89-.81h-2.88c-.6-1.13-1.34-1.63-1.88-1.84-.33-.13-.69.11-.69.47v1.37s0,0,0,0v5.56c0,2.45,1.95,4.44,4.36,4.44h.64l4.5-1.64c.89-.37,1.58-1.11,1.89-2.04l.61-1.7v-1.28c0-.61-.49-1.11-1.09-1.11Zm-5.66,2.28c-.69,0-1.25-.56-1.25-1.25s.56-1.25,1.25-1.25,1.25.56,1.25,1.25-.56,1.25-1.25,1.25Z"/><path d="m9.02,9h-3.52c-1.21,0-1.48-.82-1.5-1.52,0-.92-.85-1.64-1.81-1.45-.72.14-1.21.83-1.19,1.56.03,1.24.6,2.84,2,3.74v9.18c0,1.38,1.12,2.5,2.5,2.5s2.5-1.12,2.5-2.5v-2.5h3v2.5c0,1.38,1.12,2.5,2.5,2.5s2.5-1.12,2.5-2.5v-5.5h-.64c-3.36,0-6.11-2.65-6.34-6Z"/></svg>