<svg xmlns="http://www.w3.org/2000/svg" width="24" height="24" viewBox="0 0 24 24"><g opacity="0.4"><path d="m21.12,12.13c-.57-.72-1.43-1.13-2.34-1.13H6c-1.65,0-3,1.35-3,3v2c0,1.65,1.35,3,3,3h12.78c.92,0,1.77-.41,2.34-1.13l1.55-1.94c.44-.55.44-1.33,0-1.87l-1.55-1.94Z"/><path d="m5.22,9h12.78c1.65,0,3-1.35,3-3v-2c0-1.65-1.35-3-3-3H5.22c-.92,0-1.77.41-2.34,1.13l-1.55,1.94c-.44.55-.44,1.33,0,1.87l1.55,1.94c.57.72,1.43,1.13,2.34,1.13Z"/></g><path d="m12,23c.83,0,1.5-.67,1.5-1.5v-2.5h-3v2.5c0,.83.67,1.5,1.5,1.5Z"/><path d="M10.5 9H13.5V11H10.5z"/></svg>