<svg xmlns="http://www.w3.org/2000/svg" width="24" height="24" viewBox="0 0 24 24"><g opacity="0.4"><g><path class="st0" d="M6.3,11.1c-1-1-2.6-1-3.5,0l-0.6,0.6c-1,1-1,2.6,0,3.5l6.6,6.6c0.5,0.5,1.1,0.7,1.8,0.7c0.7,0,1.3-0.3,1.8-0.7
		l0.6-0.6c0.5-0.5,0.7-1.1,0.7-1.8c0-0.7-0.3-1.3-0.7-1.8L6.3,11.1z"/><path class="st0" d="M21.9,8.7l-6.6-6.6c-1-1-2.6-1-3.5,0l-0.6,0.6c-0.5,0.5-0.7,1.1-0.7,1.8c0,0.7,0.3,1.3,0.7,1.8l6.6,6.6
		c0.5,0.5,1.1,0.7,1.8,0.7c0.6,0,1.3-0.2,1.8-0.7l0.6-0.6C22.8,11.3,22.8,9.7,21.9,8.7z"/></g></g><path d="m21.76,8.64l.09-.09s0,0,0,0c.97-.97.97-2.56,0-3.54l-2.87-2.87c-.97-.97-2.56-.98-3.54,0l-.09.09,6.4,6.4Z"/><path d="M13.38 8.5 10.94 10.94 8.5 13.38 9.56 14.44 10.62 15.5 13.06 13.06 15.5 10.62 14.44 9.56 13.38 8.5z"/><path d="m2.24,15.36l-.09.09c-.97.97-.97,2.56,0,3.54l2.87,2.87c.47.47,1.1.73,1.77.73h0c.67,0,1.3-.26,1.77-.73l.09-.09-6.4-6.4Z"/></svg>