<svg xmlns="http://www.w3.org/2000/svg" width="24" height="24" viewBox="0 0 24 24"><g opacity="0.4"><path d="M10.38 1 8.11 9.25 15.89 9.25 13.62 1 10.38 1z"/><path d="m19.16,3.18c-.81-1.35-2.29-2.18-3.86-2.18h-.12l2.27,8.25h4.85c-.07-.64-.26-1.27-.61-1.84l-2.54-4.23Z"/><path d="m8.7,1c-1.57,0-3.05.84-3.86,2.18l-2.54,4.23c-.34.57-.54,1.2-.61,1.84h4.85L8.82,1h-.12Z"/></g><path d="M15.8 10.75 8.2 10.75 12 21.18 15.8 10.75z"/><path d="m15.47,19.66l5.84-7.06c.45-.55.76-1.18.91-1.84h-4.82l-3.72,10.19c.68-.28,1.3-.7,1.78-1.29Z"/><path d="m8.53,19.66c.48.58,1.1,1.01,1.78,1.29l-3.72-10.19H1.78c.15.66.46,1.29.91,1.84l5.84,7.06Z"/></svg>