<svg xmlns="http://www.w3.org/2000/svg" width="24" height="24" viewBox="0 0 24 24"><g opacity="0.4"><path d="M9 10.5H15V13.5H9z"/><path d="m23,10.5v3c.55,0,1-.45,1-1v-1c0-.55-.45-1-1-1Z"/><path d="m1,10.5c-.55,0-1,.45-1,1v1c0,.55.45,1,1,1v-3Z"/></g><path d="m7,4c-1.1,0-2,.9-2,2v13c0,1.1.9,2,2,2s2-.9,2-2V6c0-1.1-.9-2-2-2Z"/><path d="m17,4c-1.1,0-2,.9-2,2v13c0,1.1.9,2,2,2s2-.9,2-2V6c0-1.1-.9-2-2-2Z"/><path d="m21.5,6.5c-.83,0-1.5.67-1.5,1.5v8c0,.83.67,1.5,1.5,1.5s1.5-.67,1.5-1.5v-8c0-.83-.67-1.5-1.5-1.5Z"/><path d="m2.5,6.5c-.83,0-1.5.67-1.5,1.5v8c0,.83.67,1.5,1.5,1.5s1.5-.67,1.5-1.5v-8c0-.83-.67-1.5-1.5-1.5Z"/></svg>