<svg xmlns="http://www.w3.org/2000/svg" width="24" height="24" viewBox="0 0 24 24"><g opacity="0.4"><path d="m20.5,3H3.5c-1.38,0-2.5,1.12-2.5,2.5v1.5h22v-1.5c0-1.38-1.12-2.5-2.5-2.5Z"/><path d="m1,18.5c0,1.38,1.12,2.5,2.5,2.5h1.5v-8c0-.55.45-1,1-1h4c.55,0,1,.45,1,1v8h2v-8c0-.55.45-1,1-1h4c.55,0,1,.45,1,1v8h1.5c1.38,0,2.5-1.12,2.5-2.5v-10H1v10Z"/></g><path d="m10,12h-4c-.55,0-1,.45-1,1v8h6v-8c0-.55-.45-1-1-1Z"/><path d="m18,12h-4c-.55,0-1,.45-1,1v8h6v-8c0-.55-.45-1-1-1Z"/><path d="M1 7H23V8.5H1z"/></svg>