<svg xmlns="http://www.w3.org/2000/svg" width="24" height="24" viewBox="0 0 24 24"><g opacity="0.4"><path d="m22.16,5.06c-.28-1.11-.61-2.01-.99-2.65-.69-1.16-1.47-1.41-2.02-1.41-1.06,0-3.12,2.27-4.17,3.88-2.01-.52-3.94-.52-5.96,0-1.06-1.61-3.12-3.88-4.17-3.88-.54,0-1.33.24-2.02,1.4-.38.65-.72,1.54-.99,2.65-.27,1.08-.48,2.31-.62,3.65-.21,2.03-.22,4.48-.22,4.95,0,5.94,4.01,9.35,11,9.35s11-3.41,11-9.35c0-.47-.01-2.91-.22-4.95-.14-1.34-.35-2.57-.62-3.65Zm-17.82,3.61c.2-1.88.58-3.12.8-3.71.07-.19.31-.21.43-.05l1.35,1.8c.09.12.05.28-.07.36-.8.49-1.5,1.1-2.08,1.8-.16.19-.46.06-.44-.19Zm1.16,2.34c0-.83.67-1.5,1.5-1.5s1.5.67,1.5,1.5-.67,1.5-1.5,1.5-1.5-.67-1.5-1.5Zm10.35,6.54c-.42.42-.97.65-1.57.65-.27,0-.54-.05-.79-.15v.47c0,.83-.67,1.5-1.5,1.5s-1.5-.67-1.5-1.5v-.47c-.25.09-.51.15-.79.15-.59,0-1.15-.23-1.57-.65-.2-.2-.2-.51,0-.71s.51-.2.71,0c.46.46,1.26.46,1.72,0,.16-.16.25-.38.3-.6-1.1-.54-1.88-1.8-1.88-3.06,0-.92,1.34-1.67,3-1.67s3,.75,3,1.67c0,1.27-.78,2.53-1.88,3.06.05.22.14.43.3.6.46.46,1.26.46,1.72,0,.2-.2.51-.2.71,0s.2.51,0,.71Zm1.15-5.04c-.83,0-1.5-.67-1.5-1.5s.67-1.5,1.5-1.5,1.5.67,1.5,1.5-.67,1.5-1.5,1.5Zm2.23-3.65c-.57-.7-1.27-1.3-2.08-1.8-.12-.08-.16-.24-.07-.36l1.35-1.8c.12-.16.36-.13.43.05.22.59.61,1.83.8,3.71.03.25-.28.38-.44.19Z"/></g><path d="m8.85,16.83c-.2-.2-.51-.2-.71,0s-.2.51,0,.71c.42.42.97.65,1.57.65.27,0,.54-.05.79-.15v.47c0,.83.67,1.5,1.5,1.5s1.5-.67,1.5-1.5v-.47c.25.09.51.15.79.15.59,0,1.15-.23,1.57-.65.2-.2.2-.51,0-.71s-.51-.2-.71,0c-.46.46-1.26.46-1.72,0-.16-.16-.25-.38-.3-.6,1.1-.54,1.88-1.8,1.88-3.06,0-.92-1.34-1.67-3-1.67s-3,.75-3,1.67c0,1.27.78,2.53,1.88,3.06-.05.22-.14.43-.3.6-.46.46-1.26.46-1.72,0Z"/><path d="M17 9.5A1.5 1.5 0 1 0 17 12.5 1.5 1.5 0 1 0 17 9.5z"/><path d="M7 9.5A1.5 1.5 0 1 0 7 12.5 1.5 1.5 0 1 0 7 9.5z"/><path d="m19.23,8.85c.16.19.46.06.44-.19-.2-1.88-.58-3.12-.8-3.71-.07-.19-.31-.21-.43-.05l-1.35,1.8c-.09.12-.05.28.07.36.8.49,1.5,1.1,2.08,1.8Z"/><path d="m4.77,8.85c.57-.7,1.27-1.3,2.08-1.8.12-.08.16-.24.07-.36l-1.35-1.8c-.12-.16-.36-.13-.43.05-.22.59-.61,1.83-.8,3.71-.03.25.28.38.44.19Z"/></svg>