<svg xmlns="http://www.w3.org/2000/svg" width="24" height="24" viewBox="0 0 24 24"><g opacity="0.4"><path d="m22.78,8.8c-.12-1.25-.33-2.49-.6-3.58-.28-1.12-.62-2.01-1.01-2.65-.76-1.3-1.68-1.57-2.32-1.57s-1.55.27-2.31,1.56c-.21.34-.4.75-.57,1.23-2.51-.89-5.47-.89-7.96,0-.17-.47-.36-.88-.57-1.21-.77-1.3-1.68-1.57-2.32-1.57s-1.55.27-2.31,1.56c-.39.65-.73,1.54-1.02,2.67-.26,1.08-.47,2.31-.59,3.55-.15,1.34-.22,2.78-.22,4.27,0,.68.08,1.37.25,2.05-.16.46-.25.93-.25,1.39,0,3.32,3.79,5.9,9.08,6.4.82-.25,1.42-1,1.42-1.9v-1.27c0-.79-.48-1.46-1.18-1.82-1.09-.56-1.82-1.62-1.82-2.68,0-.86,1.57-1.56,3.5-1.56s3.5.7,3.5,1.56c0,1.07-.74,2.12-1.82,2.68-.7.36-1.18,1.04-1.18,1.82v1.27c0,.9.6,1.65,1.42,1.9,5.29-.51,9.08-3.09,9.08-6.4,0-.46-.08-.93-.25-1.39.16-.69.25-1.38.25-2.05,0-1.49-.07-2.93-.22-4.26ZM6.5,13c-.83,0-1.5-.67-1.5-1.5s.67-1.5,1.5-1.5,1.5.67,1.5,1.5-.67,1.5-1.5,1.5Zm11,0c-.83,0-1.5-.67-1.5-1.5s.67-1.5,1.5-1.5,1.5.67,1.5,1.5-.67,1.5-1.5,1.5Z"/></g><path d="M6.5 10A1.5 1.5 0 1 0 6.5 13 1.5 1.5 0 1 0 6.5 10z"/><path d="M17.5 10A1.5 1.5 0 1 0 17.5 13 1.5 1.5 0 1 0 17.5 10z"/><path d="m10.32,17.91c.7.36,1.18,1.04,1.18,1.82v1.27c0,.9-.6,1.65-1.42,1.9.62.06,1.26.1,1.92.1s1.3-.04,1.92-.1c-.82-.25-1.42-1-1.42-1.9v-1.27c0-.79.48-1.46,1.18-1.82,1.09-.56,1.82-1.62,1.82-2.68,0-.86-1.57-1.56-3.5-1.56s-3.5.7-3.5,1.56c0,1.07.74,2.12,1.82,2.68Z"/></svg>