<svg xmlns="http://www.w3.org/2000/svg" width="24" height="24" viewBox="0 0 24 24"><g opacity="0.4"><path d="m14.5,19.75c-.41,0-.75.34-.75.75s.34.75.75.75h1.5c.41,0,.75-.34.75-.75s-.34-.75-.75-.75h-1.5Z"/><path d="m10,19.75c-.41,0-.75.34-.75.75s.34.75.75.75h1.5c.41,0,.75-.34.75-.75s-.34-.75-.75-.75h-1.5Z"/></g><path d="M20.5 18A2.5 2.5 0 1 0 20.5 23 2.5 2.5 0 1 0 20.5 18z"/><path d="m2.5,22c8.43,0,17.97-17.32,19.03-19.29.39-.73.12-1.64-.61-2.03-.73-.39-1.64-.12-2.03.61C15.21,8.14,7.51,19,2.5,19c-.83,0-1.5.67-1.5,1.5s.67,1.5,1.5,1.5Z"/></svg>