<svg xmlns="http://www.w3.org/2000/svg" width="24" height="24" viewBox="0 0 24 24"><g opacity="0.4"><path d="m20.5,12c-.83,0-1.5.67-1.5,1.5v4c0,.83-.67,1.5-1.5,1.5H6.5c-.83,0-1.5-.67-1.5-1.5V6.5c0-.83.67-1.5,1.5-1.5h4c.83,0,1.5-.67,1.5-1.5s-.67-1.5-1.5-1.5h-4c-2.48,0-4.5,2.02-4.5,4.5v11c0,2.48,2.02,4.5,4.5,4.5h11c2.48,0,4.5-2.02,4.5-4.5v-4c0-.83-.67-1.5-1.5-1.5Z"/></g><path d="m8.5,17h2.5c.4,0,.78-.16,1.06-.44l6.72-6.72-4.62-4.62-6.72,6.72c-.28.28-.44.66-.44,1.06v2.5c0,.83.67,1.5,1.5,1.5Z"/><path d="m20.5,8.12c.57-.57.88-1.32.88-2.12s-.31-1.55-.88-2.12l-.38-.38c-1.13-1.13-3.11-1.13-4.24,0l-.66.66,4.62,4.62.66-.66Z"/></svg>