<svg xmlns="http://www.w3.org/2000/svg" width="24" height="24" viewBox="0 0 24 24"><g opacity="0.4"><path d="m22.13,10.77l-3.68-1.69,2.45-5.11c.27-.57.16-1.25-.28-1.7-.44-.45-1.11-.58-1.69-.32l-5.78,2.61-3.81-3.21c-.44-.37-1.05-.46-1.57-.23-.52.23-.87.74-.89,1.32l-.12,3.12-3.59-.94c-.6-.16-1.25.08-1.61.59-.36.52-.36,1.2,0,1.72l3.65,5.24-3.97,6.32c-.34.54-.3,1.24.1,1.74.4.5,1.08.69,1.68.47l5.32-1.94.82,3.12c.15.56.6.98,1.17,1.09.09.02.19.03.28.03.47,0,.92-.22,1.21-.61l2.65-3.59,5.4,3.42c.56.35,1.29.3,1.79-.14.5-.44.65-1.16.37-1.76l-2.47-5.26,2.72-1.63c.48-.29.76-.81.73-1.37s-.37-1.05-.87-1.28Z"/></g></svg>