<svg xmlns="http://www.w3.org/2000/svg" width="24" height="24" viewBox="0 0 24 24"><g opacity="0.4"><path d="m13,1c-4.96,0-9,4.04-9,9v7c0,3.25,2.65,6,5.79,6,2.81,0,3.94-1.54,4.93-2.9.48-.66.98-1.34,1.72-1.93.41-.33.82-.63,1.22-.92,2.13-1.56,4.34-3.18,4.34-7.25,0-4.96-4.04-9-9-9Zm4.18,8.99c-.41.07-.8-.2-.87-.61-.13-.75-.47-1.44-.93-1.89-1.3-1.27-3.56-1.27-4.86,0-.51.5-.83,1.16-.95,1.87,1.03.26,1.97.76,2.72,1.5.89.88,1.45,2.01,1.64,3.28.06.41-.22.79-.63.85-.04,0-.07,0-.11,0-.37,0-.69-.27-.74-.64-.14-.94-.56-1.79-1.22-2.44-.48-.48-1.07-.83-1.72-1.04v3.37c0,.41-.34.75-.75.75s-.75-.34-.75-.75v-4.35c0-1.31.53-2.58,1.45-3.48.93-.91,2.17-1.42,3.48-1.42s2.55.5,3.48,1.42c.68.67,1.18,1.66,1.36,2.71.07.41-.2.8-.61.87Z"/></g><path d="m8.77,15c.41,0,.75-.34.75-.75v-3.37c.65.21,1.24.56,1.72,1.04.66.65,1.08,1.49,1.22,2.44.06.37.38.64.74.64.04,0,.07,0,.11,0,.41-.06.69-.44.63-.85-.19-1.27-.76-2.4-1.64-3.28-.75-.74-1.68-1.25-2.72-1.5.11-.71.44-1.37.95-1.87,1.29-1.27,3.56-1.27,4.86,0,.46.46.8,1.15.93,1.89.07.41.46.68.87.61.41-.07.68-.46.61-.87-.18-1.05-.68-2.04-1.36-2.71-.93-.91-2.17-1.42-3.48-1.42s-2.55.5-3.48,1.42c-.92.9-1.45,2.17-1.45,3.48v4.35c0,.41.34.75.75.75Z"/></svg>