<svg xmlns="http://www.w3.org/2000/svg" width="24" height="24" viewBox="0 0 24 24"><g opacity="0.4"><path d="m16.12,4.5c-1.17-1.17-3.07-1.17-4.24,0l-1.66,1.66,5.62,5.62,1.66-1.66c.57-.57.88-1.32.88-2.12s-.31-1.55-.88-2.12l-1.38-1.38Z"/><path d="m1.59,14.79c-.37.37-.59.89-.59,1.41v2.79c0,1.1.9,2,2,2h2.79c.53,0,1.04-.21,1.41-.59l7.57-7.57-5.62-5.62L1.59,14.79Z"/></g><path class="st0" d="M9.2 7.2 9.7 6.7 10.2 6.2 13 9 15.8 11.8 15.3 12.3 14.8 12.8 12 10z"/><path class="st0" d="M21.5,18h-8c-0.8,0-1.5,0.7-1.5,1.5s0.7,1.5,1.5,1.5h8c0.8,0,1.5-0.7,1.5-1.5S22.3,18,21.5,18z"/></svg>