<svg xmlns="http://www.w3.org/2000/svg" width="24" height="24" viewBox="0 0 24 24"><g opacity="0.4"><path d="m22.86,6.6h0c0,.49-.23.94-.61,1.22l-6.55,4.82,6.46,6.46c.52-.74.84-1.63.84-2.6V7.5c0-.44-.07-.88-.2-1.31.04.13.06.27.06.41Z"/><path d="m1.75,7.82c-.38-.28-.61-.73-.61-1.21,0-.14.02-.28.06-.42-.13.43-.2.86-.2,1.31v9c0,.97.32,1.86.84,2.6l6.46-6.46L1.75,7.82Z"/><path d="m12,14.28c-.86,0-1.71-.26-2.46-.75l-6.64,6.64c.74.52,1.63.84,2.6.84h13c.97,0,1.86-.32,2.6-.84l-6.64-6.64c-.75.49-1.61.75-2.46.75Z"/></g><path d="m22.86,6.6h0c0,.49-.23.94-.61,1.22l-6.55,4.82,6.46,6.46c-.29.41-.65.77-1.06,1.06l-6.64-6.63c-.75.49-1.6.75-2.46.75s-1.71-.26-2.46-.75l-6.64,6.63c-.41-.29-.77-.65-1.06-1.06l6.46-6.46L1.75,7.82c-.38-.28-.61-.73-.61-1.21,0-.15.02-.31.07-.46.58-1.88,2.31-3.15,4.29-3.15h13c1.98,0,3.71,1.27,4.29,3.15.05.15.07.3.07.45Z"/></svg>