<svg xmlns="http://www.w3.org/2000/svg" width="24" height="24" viewBox="0 0 24 24"><g opacity="0.4"><path d="m20.22,3.77c-1.61-1.15-3.51-1.77-5.52-1.77-2.6,0-5.04,1.05-6.88,2.95-.86.89-1.54,1.93-2.01,3.05h3.39c.23-.34.49-.67.78-.97,1.26-1.31,2.94-2.03,4.72-2.03,1.35,0,2.65.42,3.74,1.19.61.43,1.42.41,1.95-.11h0c.68-.66.59-1.77-.18-2.32Z"/><path d="m8,12c0-.34.03-.67.08-1h-3.03c-.03.33-.05.66-.05,1s.02.67.05,1h3.03c-.04-.33-.08-.66-.08-1Z"/><path d="m18.45,17.81c-1.1.78-2.39,1.19-3.74,1.19-1.78,0-3.46-.72-4.72-2.03-.29-.3-.55-.63-.78-.97h-3.39c.48,1.12,1.15,2.16,2.01,3.05,1.83,1.9,4.28,2.95,6.88,2.95,2,0,3.91-.62,5.52-1.77.77-.55.86-1.66.18-2.32-.53-.52-1.35-.54-1.95-.11Z"/></g><path d="m3.5,11h8c.83,0,1.5-.67,1.5-1.5s-.67-1.5-1.5-1.5H3.5c-.83,0-1.5.67-1.5,1.5s.67,1.5,1.5,1.5Z"/><path d="m13,14.5c0-.83-.67-1.5-1.5-1.5H3.5c-.83,0-1.5.67-1.5,1.5s.67,1.5,1.5,1.5h8c.83,0,1.5-.67,1.5-1.5Z"/></svg>