<svg xmlns="http://www.w3.org/2000/svg" width="24" height="24" viewBox="0 0 24 24"><g opacity="0.4"><path d="m22.65,16.03c.21-.1.35-.32.35-.56v-3.35c-1.4.62-2.8.8-4.2.73v4.08c1.28-.03,2.56-.28,3.85-.9Z"/><path d="m2.35,1.91c-.21.1-.35.32-.35.56v3.35c1.4-.62,2.8-.8,4.2-.73V1c-1.28.03-2.56.28-3.85.9Z"/><path d="m10.4,15.2c.64.17,1.28.35,1.93.54.75.22,1.51.43,2.27.62v-4.34c-1.4-.42-2.8-.93-4.2-1.34v4.52Z"/><path d="m6.2,5.09v4.77c1.4.07,2.8.41,4.2.83v-4.77c-1.4-.42-2.8-.75-4.2-.83Z"/><path d="m22.11,2.56c-1.1.53-2.2.75-3.31.78v4.74c1.4.07,2.8-.11,4.2-.73V3.12c0-.21-.11-.41-.29-.52-.18-.11-.41-.13-.6-.03Z"/><path d="m14.6,12.02c1.4.42,2.8.75,4.2.83v-4.77c-1.4-.07-2.8-.41-4.2-.83v4.77Z"/><path d="m14.6,2.73c-.64-.17-1.28-.35-1.93-.54-.75-.22-1.51-.44-2.27-.63v4.34c1.4.42,2.8.93,4.2,1.34V2.73Z"/><path d="m2,10.58v4.23c0,.21.11.41.29.52.18.11.4.12.6.03,1.1-.53,2.2-.75,3.31-.78v-4.74c-1.4-.07-2.8.11-4.2.73Z"/></g><path d="m10.4,15.2v-4.52c-1.4-.42-2.8-.75-4.2-.83v4.74c1.38-.04,2.78.23,4.2.61Z"/><path d="m14.6,2.73v4.52c1.4.42,2.8.75,4.2.83V3.34c-1.38.04-2.78-.23-4.2-.61Z"/><path d="m14.6,16.36c1.31.33,2.63.58,3.97.58.08,0,.16,0,.23-.01v-4.08c-1.4-.07-2.8-.41-4.2-.83v4.34Z"/><path d="m6.2,9.85v-4.77c1.4.07,2.8.41,4.2.83V1.57c-1.39-.35-2.79-.6-4.2-.57v4.08c-1.4-.07-2.8.11-4.2.73v4.77c1.4-.62,2.8-.8,4.2-.73Z"/><path d="m14.6,7.26c-1.4-.42-2.8-.93-4.2-1.34v4.77c1.4.42,2.8.93,4.2,1.34v-4.77Z"/><path d="m18.8,8.08v4.77c1.4.07,2.8-.11,4.2-.73v-4.77c-1.4.62-2.8.8-4.2.73Z"/><path d="m3.5,23c.83,0,1.5-.67,1.5-1.5v-6.78c-.71.12-1.41.32-2.11.66-.19.09-.42.08-.6-.03-.18-.11-.29-.31-.29-.52v6.68c0,.83.67,1.5,1.5,1.5Z"/></svg>