<svg xmlns="http://www.w3.org/2000/svg" width="24" height="24" viewBox="0 0 24 24"><g opacity="0.4"><path d="m21.12,2.66c-.55-.37-1.25-.45-1.87-.19l-.85.34c-1.97.8-4.15.64-5.99-.42-2.89-1.67-6.39-1.77-9.37-.26l-.22.11c-.5.25-.82.77-.82,1.34v11.84c0,.52.27,1,.71,1.28.45.27,1,.29,1.46.06l.22-.11c2.07-1.05,4.5-.98,6.51.18,1.52.88,3.21,1.33,4.92,1.33,1.25,0,2.5-.24,3.7-.73l1.22-.49c.76-.31,1.25-1.03,1.25-1.86V4.31c0-.67-.33-1.29-.88-1.66Z"/></g><path d="m3.5,23c.83,0,1.5-.67,1.5-1.5v-5.12c-.2.08-.41.16-.6.26l-.22.11c-.47.23-1.02.21-1.46-.06-.44-.27-.71-.76-.71-1.28v6.09c0,.83.67,1.5,1.5,1.5Z"/></svg>