<svg xmlns="http://www.w3.org/2000/svg" width="24" height="24" viewBox="0 0 24 24"><g opacity="0.4"><path d="m13.56,11.5h8.34c.7-1.16,1.1-2.48,1.1-3.81,0-1.55-.51-3.01-1.45-4.18l-7.99,7.99Z"/><path d="m11.02,3.28l-5.77,5.74c-1.43,1.42-2.25,3.35-2.25,5.29,0,1.55.51,3.01,1.45,4.18L20.48,2.46c-2.72-2.12-6.8-1.82-9.46.83Z"/><path d="m5.52,19.54c1.2.93,2.66,1.4,4.15,1.4,1.89,0,3.83-.75,5.31-2.22l5.75-5.72h-8.67l-6.54,6.54Z"/></g><path d="m20.73,13l.02-.02c.45-.45.83-.95,1.15-1.48h-8.34l7.99-7.99c-.15-.19-.31-.37-.48-.54-.19-.19-.38-.35-.59-.51L1.47,21.47c-.29.29-.29.77,0,1.06.15.15.34.22.53.22s.38-.07.53-.22l9.53-9.53h8.67Z"/></svg>