<svg xmlns="http://www.w3.org/2000/svg" width="24" height="24" viewBox="0 0 24 24"><g opacity="0.4"><path d="m12.5,1c-.83,0-1.5.67-1.5,1.5v6.5h-1.5V2.5c0-.83-.67-1.5-1.5-1.5s-1.5.67-1.5,1.5v6.5h-1.5V2.5c0-.83-.67-1.5-1.5-1.5s-1.5.67-1.5,1.5v8.12c0,1.93,1.57,3.5,3.5,3.5h1v7.38c0,.83.67,1.5,1.5,1.5s1.5-.67,1.5-1.5v-7.38h1c1.93,0,3.5-1.57,3.5-3.5V2.5c0-.83-.67-1.5-1.5-1.5Z"/></g><path d="m20.5,1c-2.48,0-4.5,2.02-4.5,4.5v7c0,.83.67,1.5,1.5,1.5h1.5v7.5c0,.83.67,1.5,1.5,1.5s1.5-.67,1.5-1.5V2.5c0-.83-.67-1.5-1.5-1.5Z"/></svg>