<svg xmlns="http://www.w3.org/2000/svg" width="24" height="24" viewBox="0 0 24 24"><g opacity="0.4"><path d="m10.03,15.91c-.21,1.76-1.7,3.09-3.48,3.09h-1.05c-.83,0-1.5.67-1.5,1.5s.67,1.5,1.5,1.5h1.05c3.3,0,6.07-2.47,6.46-5.74l.38-3.26h-3.02l-.34,2.91Z"/><path d="m18.5,2h-1.94c-2.79,0-5.14,2.09-5.46,4.86l-.37,3.14h3.02l.33-2.79c.15-1.26,1.22-2.21,2.48-2.21h1.94c.83,0,1.5-.67,1.5-1.5s-.67-1.5-1.5-1.5Z"/></g><path d="m7.5,13h9c.83,0,1.5-.67,1.5-1.5s-.67-1.5-1.5-1.5H7.5c-.83,0-1.5.67-1.5,1.5s.67,1.5,1.5,1.5Z"/></svg>