<svg xmlns="http://www.w3.org/2000/svg" width="24" height="24" viewBox="0 0 24 24"><g opacity="0.4"><path d="M13.5 1A2.5 2.5 0 1 0 13.5 6 2.5 2.5 0 1 0 13.5 1z"/><path d="m20.61,7h-9.61c-2.45,0-4.73,1.01-6.36,2.75-.6.65-.49,1.68.27,2.15l.18.12c.58.36,1.31.23,1.79-.27.81-.84,1.86-1.41,3.01-1.64l-1.17,2.57c-1.3,1.47-3.16,2.31-5.13,2.31h-.09c-.83,0-1.5.67-1.5,1.5s.67,1.5,1.5,1.5h.09c2.74,0,5.32-1.14,7.18-3.13l1.17,1.55c.68.91.66,2.17-.05,3.06l-1.19,1.49c-.48.6-.38,1.48.22,1.96l.17.13c.6.48,1.48.38,1.96-.22l1.19-1.49c1.57-1.96,1.61-4.73.11-6.74l-.63-.84,1.58-3.79h5.32c.77,0,1.39-.62,1.39-1.39v-.22c0-.77-.62-1.39-1.39-1.39Z"/></g><path d="M5 19A2 2 0 1 0 5 23 2 2 0 1 0 5 19z"/></svg>