<svg xmlns="http://www.w3.org/2000/svg" width="24" height="24" viewBox="0 0 24 24"><g opacity="0.4"><path d="m13,7V1h-5.5c-2.49,0-4.5,2.01-4.5,4.5v13c0,2.49,2.01,4.5,4.5,4.5h9c2.49,0,4.5-2.01,4.5-4.5v-9.5h-6c-1.1,0-2-.9-2-2Zm2.18,7.44l-1.06,1.06,1.06,1.06c.59.59.59,1.54,0,2.12-.29.29-.68.44-1.06.44s-.77-.15-1.06-.44l-1.06-1.06-1.06,1.06c-.29.29-.68.44-1.06.44s-.77-.15-1.06-.44c-.59-.59-.59-1.54,0-2.12l1.06-1.06-1.06-1.06c-.59-.59-.59-1.54,0-2.12.59-.59,1.54-.59,2.12,0l1.06,1.06,1.06-1.06c.59-.59,1.54-.59,2.12,0,.59.59.59,1.54,0,2.12Z"/></g><path d="m15.06,1.44c-.28-.28-.66-.44-1.06-.44h-1v6c0,1.1.9,2,2,2h6v-1c0-.4-.16-.78-.44-1.06L15.06,1.44Z"/><path d="m8.82,18.68c.29.29.68.44,1.06.44s.77-.15,1.06-.44l1.06-1.06,1.06,1.06c.29.29.68.44,1.06.44s.77-.15,1.06-.44c.59-.59.59-1.54,0-2.12l-1.06-1.06,1.06-1.06c.59-.59.59-1.54,0-2.12-.59-.59-1.54-.59-2.12,0l-1.06,1.06-1.06-1.06c-.59-.59-1.54-.59-2.12,0-.59.59-.59,1.54,0,2.12l1.06,1.06-1.06,1.06c-.59.59-.59,1.54,0,2.12Z"/></svg>