<svg xmlns="http://www.w3.org/2000/svg" width="24" height="24" viewBox="0 0 24 24"><g opacity="0.4"><path d="m22.34,1.24c-.42-.28-.94-.33-1.4-.14C6.87,6.84,3.67,20.59,3.54,21.17c-.18.81.33,1.61,1.14,1.79.11.02.22.04.33.04.69,0,1.31-.47,1.46-1.17,0-.04.27-1.15.95-2.83h4.08c1.22,0,2.4-.19,3.5-.55v-2.45l2,1.6c1.13-.62,2.14-1.43,3-2.38v-2.22l.99.99c1.27-1.85,2.01-4.08,2.01-6.49V2.49c0-.5-.25-.97-.66-1.25Z"/></g><path d="m4,8.5c0,.83.67,1.5,1.5,1.5s1.5-.67,1.5-1.5v-1.5h1.5c.83,0,1.5-.67,1.5-1.5s-.67-1.5-1.5-1.5h-1.5v-1.5c0-.83-.67-1.5-1.5-1.5s-1.5.67-1.5,1.5v1.5h-1.5c-.83,0-1.5.67-1.5,1.5s.67,1.5,1.5,1.5h1.5v1.5Z"/></svg>