<svg xmlns="http://www.w3.org/2000/svg" width="24" height="24" viewBox="0 0 24 24"><g opacity="0.4"><path d="m12.74,1.41c-.46-.26-1.02-.26-1.47,0-.34.19-8.26,4.75-8.26,12.92,0,3.58,2.15,6.66,5.24,8.07.27.12.53-.19.34-.43-.68-.87-1.08-2.01-1.08-3.25,0-4.07,3.3-7.42,3.44-7.56.59-.59,1.54-.59,2.12,0,.14.14,3.44,3.49,3.44,7.56,0,1.24-.41,2.38-1.08,3.25-.18.24.07.55.34.43,3.09-1.41,5.24-4.49,5.24-8.07C21,6.15,13.07,1.6,12.74,1.41Z"/></g><path d="m8.57,22.32c1.06.43,2.22.68,3.43.68s2.37-.24,3.43-.68c-.08-.09-.11-.23-.02-.36.68-.87,1.08-2.01,1.08-3.25,0-4.07-3.3-7.42-3.44-7.56-.59-.59-1.54-.59-2.12,0-.14.14-3.44,3.49-3.44,7.56,0,1.24.41,2.38,1.08,3.25.1.12.07.27-.02.36Z"/></svg>