<svg xmlns="http://www.w3.org/2000/svg" width="24" height="24" viewBox="0 0 24 24"><g opacity="0.4"><path d="m6.27,17.82h0c-.62.38-.88,1.15-.61,1.82.28.7.4,1.35.45,2,.06.77.72,1.36,1.49,1.36.87,0,1.56-.74,1.5-1.61-.06-.88-.23-1.82-.65-2.87-.34-.85-1.39-1.18-2.17-.7Z"/><path d="m7.48,15.25c2.22,3.01,2.73,4.76,2.85,6.34.06.79.7,1.41,1.49,1.41h0c.88,0,1.56-.75,1.5-1.63-.14-1.92-.75-4.28-3.42-7.9-.14-.2-.31-.41-.5-.64-1.01-1.26-1.76-2.32-1.4-3.41.24-.73.72-1.21,1.48-1.47.85-.29,1.94-.23,2.88.11.62.22,1.31-.03,1.69-.57.55-.8.22-1.93-.69-2.26-1.57-.56-3.35-.63-4.83-.13-1.65.55-2.85,1.75-3.38,3.38-.89,2.72.86,4.91,1.91,6.21.15.19.3.37.42.54Z"/><path d="m15.55,10.53c.11.13.21.27.32.41s.21.29.3.44c.1.15.2.31.29.47.09.16.19.32.28.49.09.17.18.34.26.52.09.18.17.36.25.55.08.19.16.38.24.58.08.2.15.41.23.61.07.21.15.42.21.64.07.22.14.45.2.67.07.23.13.47.19.71.06.24.12.49.18.74.06.25.12.51.17.77.06.26.11.53.17.8.14.71.77,1.21,1.47,1.21.1,0,.19,0,.29-.03.81-.16,1.34-.95,1.18-1.76-.06-.29-.12-.58-.18-.86-.06-.28-.12-.56-.19-.83-.06-.27-.13-.54-.2-.8-.07-.27-.14-.52-.21-.78-.07-.26-.15-.51-.23-.75-.08-.25-.16-.49-.24-.73-.08-.24-.17-.48-.26-.71-.09-.23-.18-.46-.28-.68-.1-.23-.2-.45-.3-.66-.1-.22-.21-.43-.32-.63-.11-.21-.23-.42-.34-.62-.12-.2-.24-.4-.36-.59-.13-.19-.26-.38-.39-.56-.14-.19-.28-.37-.42-.54-.14-.18-.29-.35-.44-.52-.56-.61-1.51-.65-2.12-.1-.61.56-.65,1.51-.1,2.12.11.13.22.25.34.39Z"/><path d="m14.55,21.59c.05.79.7,1.41,1.49,1.41.87,0,1.56-.73,1.5-1.6-.02-.37-.05-.73-.09-1.09-.09-.86-.9-1.46-1.76-1.31-.78.14-1.31.85-1.23,1.64.03.32.06.64.08.96Z"/></g><path d="m21.66,7.35c-.07-.11-.14-.23-.22-.35s-.17-.26-.26-.38c-.1-.14-.2-.28-.31-.43-.11-.14-.22-.29-.34-.44-.12-.15-.25-.3-.39-.46-.14-.16-.28-.31-.43-.47-.15-.16-.31-.31-.47-.47-.17-.16-.34-.32-.52-.48-.18-.16-.37-.31-.57-.46-.2-.15-.4-.3-.61-.44-.21-.15-.43-.29-.66-.42-.17-.1-.37-.21-.58-.31-.2-.09-.42-.19-.64-.27-.22-.09-.46-.17-.7-.25-.24-.08-.5-.15-.77-.22-.26-.07-.54-.13-.82-.18-.28-.05-.57-.1-.86-.15s-.59-.08-.9-.1c-.31-.03-.62-.04-.93-.05-.32,0-.63,0-.95.01-.32.01-.64.04-.96.08-.32.04-.64.09-.96.16-.32.07-.64.15-.95.24-.32.1-.63.21-.94.35-.31.13-.61.29-.9.46-.3.18-.59.37-.85.58-.28.22-.54.46-.78.71-.24.25-.46.51-.65.78-.2.27-.38.55-.54.83-.16.28-.3.57-.43.87-.12.29-.23.59-.33.89-.09.3-.17.6-.23.9-.06.3-.11.6-.14.9-.03.3-.05.6-.06.9,0,.3,0,.59.02.88.02.29.05.58.09.87.04.28.09.56.16.84.06.28.13.55.22.81.08.26.17.52.27.77.1.25.21.5.32.73.12.24.25.47.38.68.14.22.28.43.43.63.16.21.32.4.47.56.02.02.08.08.1.1,0,0,.1.09.1.1,0,0,.06.05.06.06.29.25.64.38,1,.38.41,0,.82-.17,1.12-.5.55-.62.5-1.56-.12-2.12l-.08-.07c-.09-.1-.18-.2-.26-.31-.09-.12-.18-.25-.26-.39-.09-.14-.17-.29-.25-.45-.08-.16-.15-.33-.22-.5-.07-.18-.14-.36-.19-.55-.06-.19-.11-.39-.16-.59-.04-.2-.08-.41-.11-.61s-.05-.42-.07-.63c-.01-.21-.02-.43-.02-.63,0-.21.02-.43.04-.64.02-.21.05-.42.09-.63.04-.21.09-.41.15-.61.06-.2.13-.4.22-.59.08-.19.17-.38.28-.56.1-.18.22-.36.35-.53.13-.17.27-.34.42-.5.14-.15.3-.29.46-.42.16-.13.34-.25.52-.35.19-.11.38-.21.57-.29.21-.09.42-.17.63-.23.22-.07.45-.13.68-.17.24-.05.47-.09.71-.12.25-.03.49-.05.74-.06.25-.01.5-.02.75,0,.25,0,.5.02.74.04.25.02.49.05.73.08s.47.07.7.12.45.09.66.15c.21.05.41.11.6.17.18.06.36.12.53.19.15.06.3.12.43.19.12.06.23.11.33.17.17.1.33.21.49.32.16.11.32.23.47.34.15.12.3.24.44.36.14.12.28.25.41.37.13.13.26.26.38.38.12.13.24.26.35.38.11.13.22.25.32.38.1.12.2.25.28.36.09.12.17.23.25.35.08.11.15.21.22.31l.55.92,1.36-.63,1.33-.69s-.05-.1-.08-.16l-.45-.76Z"/><path d="m16.08,14.63c-.12-.28-.24-.55-.36-.81-.12-.26-.26-.5-.39-.74-.13-.24-.27-.46-.4-.68-.14-.22-.28-.42-.41-.62-.14-.19-.27-.38-.41-.56-.14-.18-.27-.34-.4-.5-.13-.16-.26-.3-.39-.44-.12-.14-.25-.26-.37-.38-.12-.12-.23-.22-.33-.32-.11-.1-.21-.19-.3-.27-.63-.55-1.57-.48-2.12.15-.54.62-.48,1.57.15,2.12.07.06.14.12.22.2.08.08.17.16.25.25.09.09.19.19.29.3.1.11.2.22.31.35.11.12.21.26.32.39.11.14.22.29.33.45s.22.32.33.5c.11.17.22.35.32.54.11.19.21.39.31.59.1.21.2.42.29.64.09.22.18.46.27.7.22.62.8,1.01,1.42,1.01.16,0,.33-.03.49-.08.78-.27,1.2-1.13.92-1.91-.1-.3-.21-.59-.33-.86Z"/></svg>