<svg xmlns="http://www.w3.org/2000/svg" width="24" height="24" viewBox="0 0 24 24"><g opacity="0.4"><path d="m23,7c0-3.31-2.69-6-6-6-2.09,0-3.92,1.07-5,2.69-1.08-1.62-2.91-2.69-5-2.69C3.69,1,1,3.69,1,7c0,2.09,1.07,3.92,2.69,5-1.62,1.08-2.69,2.91-2.69,5,0,3.31,2.69,6,6,6,2.09,0,3.92-1.07,5-2.69,1.08,1.62,2.91,2.69,5,2.69,3.31,0,6-2.69,6-6,0-2.09-1.07-3.92-2.69-5,1.62-1.08,2.69-2.91,2.69-5Zm-11,9.5c-2.49,0-4.5-2.01-4.5-4.5s2.01-4.5,4.5-4.5,4.5,2.01,4.5,4.5-2.01,4.5-4.5,4.5Z"/></g><path d="M12 7.5A4.5 4.5 0 1 0 12 16.5 4.5 4.5 0 1 0 12 7.5z"/></svg>