<svg xmlns="http://www.w3.org/2000/svg" width="24" height="24" viewBox="0 0 24 24"><g opacity="0.4"><path d="m10,1.5v4.29c0,.45-.54.67-.85.35l-1.18-1.18c-2.31,1.08-3.97,3.93-3.97,7.28,0,3.8,2.13,6.97,4.92,7.62.62.14,1.08.65,1.08,1.28v.4c0,.84-.79,1.45-1.61,1.27-4.2-.91-7.39-5.31-7.39-10.58,0-4.1,1.93-7.67,4.77-9.48l-.91-.91c-.32-.32-.09-.85.35-.85h4.29c.28,0,.5.22.5.5Z"/></g><path d="m20,2h-3.5c-1.45,0-2.69,1.04-2.95,2.46l-1.08,5.92c-.06.36-.38.62-.74.62h-3.63c-1,0-1.92.68-2.08,1.66-.2,1.25.76,2.34,1.97,2.34h8.57c.5,0,.87.48.72.97-.14.46-.32,1.04-.5,1.63-.37,1.19.52,2.41,1.77,2.41.6,0,1.16-.28,1.5-.77.75-1.04,1.79-2.56,2.41-3.46.34-.5.53-1.09.53-1.7V5c0-1.66-1.34-3-3-3Z"/></svg>