<svg xmlns="http://www.w3.org/2000/svg" width="24" height="24" viewBox="0 0 24 24"><g opacity="0.4"><path d="m21.25,2h-.75v1.25h-2.41v-1.25H5.91v1.25h-2.41v-1.25h-.75c-.41,0-.75.34-.75.75v18.5c0,.41.34.75.75.75h.75v-1.25h2.41v1.25h12.19v-1.25h2.41v1.25h.75c.41,0,.75-.34.75-.75V2.75c0-.41-.34-.75-.75-.75ZM5.91,19.25h-2.41v-2.5h2.41v2.5Zm0-4h-2.41v-2.5h2.41v2.5Zm0-4h-2.41v-2.5h2.41v2.5Zm0-4h-2.41v-2.5h2.41v2.5Zm14.59,12h-2.41v-2.5h2.41v2.5Zm0-4h-2.41v-2.5h2.41v2.5Zm0-4h-2.41v-2.5h2.41v2.5Zm0-4h-2.41v-2.5h2.41v2.5Z"/></g><path d="M18.09 4.75H20.5V7.25H18.09z"/><path d="M18.09 16.75H20.5V19.25H18.09z"/><path d="M3.5 2H5.91V3.25H3.5z"/><path d="M18.09 2H20.5V3.25H18.09z"/><path d="M18.09 12.75H20.5V15.25H18.09z"/><path d="M3.5 8.75H5.91V11.25H3.5z"/><path d="M18.09 8.75H20.5V11.25H18.09z"/><path d="M18.09 20.75H20.5V22H18.09z"/><path d="M3.5 20.75H5.91V22H3.5z"/><path d="M3.5 12.75H5.91V15.25H3.5z"/><path d="M3.5 4.75H5.91V7.25H3.5z"/><path d="M3.5 16.75H5.91V19.25H3.5z"/></svg>