<svg xmlns="http://www.w3.org/2000/svg" width="24" height="24" viewBox="0 0 24 24"><g opacity="0.4"><path d="m16,5.95v-1.95h.5c.83,0,1.5-.67,1.5-1.5s-.67-1.5-1.5-1.5H7.5c-.83,0-1.5.67-1.5,1.5s.67,1.5,1.5,1.5h.5v1.95c-2.11,1.04-3.69,2.89-4.47,5.07,4.3.08,6.58,1.08,8.77,2.05,2.23.99,4.34,1.92,8.64,1.93.04-.33.06-.66.06-1,0-3.44-1.97-6.56-5-8.05Z"/></g><path d="m11.06,22.95c.32.04.62.05.94.05s.62-.01.92-.05c4.27-.43,7.56-3.77,8.02-7.95-4.3,0-6.41-.94-8.64-1.93-2.19-.97-4.48-1.97-8.77-2.05-.33.94-.53,1.95-.53,2.98,0,4.64,3.47,8.49,8.06,8.95Z"/></svg>