<svg xmlns="http://www.w3.org/2000/svg" width="24" height="24" viewBox="0 0 24 24"><g opacity="0.4"><path d="m13.5,5c-3.61,0-6.03,1.82-7.51,3.53-.78-1.13-1.9-1.85-3.04-2.22-.96-.31-1.95.41-1.95,1.42h0c0,.67.46,1.23,1.1,1.43.87.28,1.9.99,1.9,2.83s-1.05,2.56-1.95,2.84c-.63.19-1.06.77-1.06,1.43h0c0,1.02.99,1.73,1.95,1.42,1.14-.37,2.27-1.09,3.05-2.22,1.48,1.71,3.9,3.53,7.51,3.53,6.64,0,9.28-6.16,9.38-6.42.15-.37.15-.78,0-1.15-.11-.26-2.75-6.42-9.38-6.42Zm3,7c-.83,0-1.5-.67-1.5-1.5s.67-1.5,1.5-1.5,1.5.67,1.5,1.5-.67,1.5-1.5,1.5Z"/></g><path d="M16.5 9A1.5 1.5 0 1 0 16.5 12 1.5 1.5 0 1 0 16.5 9z"/></svg>