<svg xmlns="http://www.w3.org/2000/svg" width="24" height="24" viewBox="0 0 24 24"><g opacity="0.4"><path d="m14.62,3c-1.13-1.13-3.11-1.13-4.24,0l-1.22,1.22,7.62,7.62,1.22-1.22c.57-.57.88-1.32.88-2.12s-.31-1.55-.88-2.12l-3.38-3.38Z"/><path d="m4,9.38c-.57.57-.88,1.32-.88,2.12s.31,1.55.88,2.12l3.38,3.38c.57.57,1.32.88,2.12.88s1.55-.31,2.12-.88l1.22-1.22-7.62-7.62-1.22,1.22Z"/></g><path d="m16,21.5c0-.83-.67-1.5-1.5-1.5H2.5c-.83,0-1.5.67-1.5,1.5s.67,1.5,1.5,1.5h12c.83,0,1.5-.67,1.5-1.5Z"/><path d="m15.87,12.75l.91-.91-7.62-7.62-3.94,3.94,7.62,7.62.91-.91,7.19,7.19c.29.29.68.44,1.06.44s.77-.15,1.06-.44c.59-.59.59-1.54,0-2.12l-7.19-7.19Z"/></svg>