<svg xmlns="http://www.w3.org/2000/svg" width="24" height="24" viewBox="0 0 24 24"><g opacity="0.4"><path d="m16.5,8.7v.3c0,.83-.67,1.5-1.5,1.5h-6c-.83,0-1.5-.67-1.5-1.5v-.3c-.46.19-.97.3-1.5.3s-1.04-.11-1.5-.3v.3c0,2.48,2.02,4.5,4.5,4.5h1.5v1.8c.46-.19.97-.3,1.5-.3s1.04.11,1.5.3v-1.8h1.5c2.48,0,4.5-2.02,4.5-4.5v-.3c-.46.19-.97.3-1.5.3s-1.04-.11-1.5-.3Z"/></g><path d="M12 15A4 4 0 1 0 12 23 4 4 0 1 0 12 15z"/><path d="M6 1A4 4 0 1 0 6 9 4 4 0 1 0 6 1z"/><path d="M18 1A4 4 0 1 0 18 9 4 4 0 1 0 18 1z"/></svg>