<svg xmlns="http://www.w3.org/2000/svg" width="24" height="24" viewBox="0 0 24 24"><g opacity="0.4"><path d="m10.95,22.95l-.28-.28v-2.67l-1.33-1.33-2.67-2.67v-2.67l-2.67-2.67-2.35-2.35c-.41,1.15-.65,2.39-.65,3.68,0,5.71,4.37,10.41,9.95,10.95Z"/><path d="m16,1.76v.9c0,1.47-1.19,2.67-2.67,2.67h-1.33v1.33c0,1.47-1.19,2.67-2.67,2.67v4h5.33c1.47,0,2.67,1.19,2.67,2.67v1.33c1.01,0,2.51.56,3.36,1.39,1.44-1.86,2.31-4.19,2.31-6.72,0-4.65-2.91-8.63-7-10.24Z"/></g><path d="m6.67,13.33v2.67l2.67,2.67,1.33,1.33v2.67l.28.28c.35.03.7.05,1.05.05,3.53,0,6.68-1.68,8.69-4.28-.85-.83-2.35-1.39-3.36-1.39v-1.33c0-1.47-1.19-2.67-2.67-2.67h-5.33v-4c1.47,0,2.67-1.19,2.67-2.67v-1.33h1.33c1.47,0,2.67-1.19,2.67-2.67v-.9c-1.24-.49-2.59-.76-4-.76C7.23,1,3.17,4.06,1.65,8.32l2.35,2.35,2.67,2.67Z"/></svg>