<svg xmlns="http://www.w3.org/2000/svg" width="24" height="24" viewBox="0 0 24 24"><g opacity="0.4"><path d="M12 11A1 1 0 1 0 12 13 1 1 0 1 0 12 11z"/><path d="m22.25,11.25h-.29c-.06-.82-.22-1.62-.47-2.37l.26-.11c.38-.16.56-.6.41-.98-.16-.38-.6-.56-.98-.41l-.27.11c-.37-.72-.82-1.4-1.34-2.01l.21-.21c.29-.29.29-.77,0-1.06s-.77-.29-1.06,0l-.21.21c-.61-.53-1.28-.98-2.01-1.34l.11-.27c.16-.38-.02-.82-.41-.98-.38-.16-.82.02-.98.41l-.11.26c-.76-.25-1.55-.41-2.37-.47v-.29c0-.41-.34-.75-.75-.75s-.75.34-.75.75v.29c-.82.06-1.62.22-2.37.47l-.11-.26c-.16-.38-.6-.57-.98-.41-.38.16-.56.6-.41.98l.11.27c-.72.37-1.4.82-2.01,1.34l-.21-.21c-.29-.29-.77-.29-1.06,0-.29.29-.29.77,0,1.06l.21.21c-.53.61-.98,1.28-1.34,2.01l-.27-.11c-.38-.16-.82.02-.98.41-.16.38.02.82.41.98l.26.11c-.25.75-.41,1.55-.47,2.37h-.29c-.41,0-.75.34-.75.75s.34.75.75.75h.29c.06.82.22,1.62.47,2.37l-.26.11c-.38.16-.56.6-.41.98.12.29.4.46.69.46.1,0,.19-.02.29-.06l.27-.11c.37.72.82,1.4,1.34,2.01l-.21.21c-.29.29-.29.77,0,1.06.15.15.34.22.53.22s.38-.07.53-.22l.21-.21c.61.53,1.28.98,2.01,1.34l-.11.27c-.16.38.02.82.41.98.09.04.19.06.29.06.29,0,.57-.17.69-.46l.11-.26c.75.25,1.55.41,2.37.47v.29c0,.41.34.75.75.75s.75-.34.75-.75v-.29c.82-.06,1.62-.22,2.37-.47l.11.26c.12.29.4.46.69.46.1,0,.19-.02.29-.06.38-.16.56-.6.41-.98l-.11-.27c.72-.37,1.4-.82,2.01-1.34l.21.21c.15.15.34.22.53.22s.38-.07.53-.22c.29-.29.29-.77,0-1.06l-.21-.21c.53-.61.98-1.28,1.34-2.01l.27.11c.09.04.19.06.29.06.29,0,.57-.17.69-.46.16-.38-.02-.82-.41-.98l-.26-.11c.25-.75.41-1.55.47-2.37h.29c.41,0,.75-.34.75-.75s-.34-.75-.75-.75Zm-3.88.39l-3.4.6c-.12,1.54-1.4,2.76-2.98,2.76-.1,0-.19-.02-.28-.03l-1.17,3.23c-.11.3-.4.49-.71.49-.08,0-.17-.01-.26-.05-.39-.14-.59-.57-.45-.96l1.17-3.21c-.79-.54-1.3-1.44-1.3-2.47,0-.65.21-1.25.56-1.74l-2.25-2.68c-.27-.32-.23-.79.09-1.06.32-.27.79-.23,1.06.09l2.25,2.69c.39-.19.82-.3,1.29-.3,1.21,0,2.25.72,2.72,1.76l3.39-.6c.41-.07.8.2.87.61.07.41-.2.8-.61.87Z"/></g><path d="m9.56,10.26c-.35.49-.56,1.09-.56,1.74,0,1.03.52,1.93,1.3,2.47l-1.17,3.21c-.14.39.06.82.45.96.08.03.17.05.26.05.31,0,.59-.19.71-.49l1.17-3.23c.09,0,.19.03.28.03,1.58,0,2.85-1.22,2.98-2.76l3.4-.6c.41-.07.68-.46.61-.87-.07-.41-.46-.68-.87-.61l-3.39.6c-.47-1.04-1.51-1.76-2.72-1.76-.46,0-.9.11-1.29.3l-2.25-2.69c-.27-.32-.74-.36-1.06-.09-.32.27-.36.74-.09,1.06l2.25,2.68Zm2.44.74c.55,0,1,.45,1,1s-.45,1-1,1-1-.45-1-1,.45-1,1-1Z"/></svg>