<svg xmlns="http://www.w3.org/2000/svg" width="24" height="24" viewBox="0 0 24 24"><g opacity="0.4"><path d="m10.22,15.97c-.49-.39-1.22-.04-1.22.59v.94h-1c-.83,0-1.5-.67-1.5-1.5v-7.3c1.46-.6,2.5-2.03,2.5-3.7,0-2.21-1.79-4-4-4S1,2.79,1,5c0,1.67,1.04,3.11,2.5,3.7v7.3c0,2.48,2.02,4.5,4.5,4.5h1v.94c0,.63.73.98,1.22.59l3.05-2.44c.38-.3.38-.87,0-1.17l-3.05-2.44Z"/></g><path d="m20.5,15.3v-7.3c0-2.48-2.02-4.5-4.5-4.5h-1v-.94c0-.63-.73-.98-1.22-.59l-3.05,2.44c-.38.3-.38.87,0,1.17l3.05,2.44c.49.39,1.22.04,1.22-.59v-.94h1c.83,0,1.5.67,1.5,1.5v7.3c-1.46.6-2.5,2.03-2.5,3.7,0,2.21,1.79,4,4,4s4-1.79,4-4c0-1.67-1.04-3.11-2.5-3.7Z"/></svg>