<svg xmlns="http://www.w3.org/2000/svg" width="24" height="24" viewBox="0 0 24 24"><g opacity="0.4"><path d="m19.53,7H4.47c-1.3,0-2.38.99-2.49,2.28l-.73,8.37c-.2,2.34,1.64,4.35,3.98,4.35h13.53c2.35,0,4.19-2.01,3.98-4.35l-.73-8.37c-.11-1.29-1.19-2.28-2.49-2.28Zm-7.53,8.75c-2.32,0-4.25-1.67-4.67-3.87-.09-.46.28-.88.75-.88.36,0,.66.25.73.6.28,1.51,1.61,2.65,3.19,2.65s2.91-1.14,3.19-2.65c.07-.35.37-.6.73-.6h0c.47,0,.83.42.75.88-.41,2.2-2.35,3.87-4.67,3.87Z"/></g><path d="m4.47,7h15.06c.23,0,.45.04.66.1.51-.66.8-1.46.8-2.31,0-1.01-.39-1.97-1.11-2.68-.73-.73-1.7-1.1-2.67-1.1-.12,0-.23.02-.35.03-.13.01-.25.01-.38.04-.07.01-.14.04-.21.06-.17.04-.33.08-.5.15-.02,0-.04.02-.05.03-.44.18-.85.45-1.21.8l-.45.45-1.48,1.48c-.76-1.79-2.54-3.04-4.6-3.04-2.76,0-5,2.24-5,5,0,.47.07.92.2,1.35.37-.22.81-.35,1.27-.35Z"/><path d="m15.92,11c-.36,0-.66.25-.73.6-.28,1.51-1.61,2.65-3.19,2.65s-2.91-1.14-3.19-2.65c-.07-.35-.37-.6-.73-.6-.47,0-.83.42-.75.88.41,2.2,2.35,3.87,4.67,3.87s4.25-1.67,4.67-3.87c.09-.46-.28-.88-.75-.88h0Z"/></svg>