<svg xmlns="http://www.w3.org/2000/svg" width="24" height="24" viewBox="0 0 24 24"><g opacity="0.4"><path d="m4.7,11.19l.54-3.76c.04-.25.25-.43.49-.43h.77c.83,0,1.5-.67,1.5-1.5s-.67-1.5-1.5-1.5h-.77c-1.74,0-3.22,1.28-3.46,3l-1.12,7.83c.43-1.77,1.8-3.17,3.55-3.64Z"/><path d="m17.5,7h.77c.25,0,.46.18.49.43l.54,3.76c1.75.48,3.12,1.87,3.55,3.64l-1.12-7.83c-.25-1.72-1.72-3.01-3.47-3.01h-.76c-.83,0-1.5.67-1.5,1.5s.67,1.5,1.5,1.5Z"/><path d="m10.9,17h2.2c-.07-.32-.1-.66-.1-1,0-.71.15-1.39.42-2h-2.85c.27.61.42,1.29.42,2,0,.34-.04.68-.1,1Z"/></g><path d="M6 11A5 5 0 1 0 6 21 5 5 0 1 0 6 11z"/><path d="M18 11A5 5 0 1 0 18 21 5 5 0 1 0 18 11z"/></svg>