<svg xmlns="http://www.w3.org/2000/svg" width="24" height="24" viewBox="0 0 24 24"><g opacity="0.4"><path d="m17.81,10c-1.42,0-2.8.68-3.77,1.87-.52.63-1.61,1.41-3.59.7.58-.8.94-1.78.94-2.85,0-2.6-2.09-4.71-4.67-4.71s-4.67,2.11-4.67,4.71c0,.83.67,1.5,1.5,1.5s1.5-.67,1.5-1.5c0-.95.75-1.71,1.67-1.71s1.67.77,1.67,1.71-.76,1.79-1.67,1.79c-.83,0-1.5.67-1.5,1.5s.67,1.5,1.5,1.5c1.53,0,2.72,1.19,2.72,2.71s-1.22,2.79-2.72,2.79-2.72-1.25-2.72-2.79c0-.83-.67-1.5-1.5-1.5s-1.5.67-1.5,1.5c0,3.19,2.57,5.79,5.72,5.79s5.72-2.6,5.72-5.79c0-.48-.07-.94-.18-1.39,1.78-.1,3.18-.95,4.09-2.06.24-.29.74-.77,1.45-.77s1.22.48,1.45.77c.47.57.74,1.39.74,2.23s-.27,1.66-.74,2.23c-.24.29-.74.77-1.45.77s-1.22-.48-1.45-.77c-.52-.64-1.47-.73-2.11-.21-.64.53-.73,1.47-.21,2.11.97,1.19,2.35,1.87,3.77,1.87s2.78-.66,3.77-1.87c.92-1.12,1.42-2.59,1.42-4.13s-.5-3.02-1.42-4.13c-.99-1.2-2.33-1.87-3.77-1.87Z"/></g><path class="st0" d="M21.5,1C20.7,1,20,1.7,20,2.5C20,3.9,18.6,5,17,5s-3-1.1-3-2.5C14,1.7,13.3,1,12.5,1S11,1.7,11,2.5
	c0,3,2.7,5.5,6,5.5s6-2.5,6-5.5C23,1.7,22.3,1,21.5,1z"/><path class="st0" d="M15.9,2.1l0.4-0.4l0.4-0.4c0.1-0.1,0.2-0.1,0.4-0.1c0.1,0,0.3,0,0.4,0.1l0.4,0.4l0.4,0.4
	c0.1,0.1,0.1,0.2,0.1,0.4s0,0.3-0.1,0.4l-0.4,0.4l-0.4,0.4c-0.1,0.1-0.2,0.1-0.4,0.1c-0.1,0-0.3,0-0.4-0.1l-0.4-0.4l-0.4-0.4
	c-0.1-0.1-0.1-0.2-0.1-0.4C15.7,2.4,15.8,2.2,15.9,2.1z"/></svg>