<svg xmlns="http://www.w3.org/2000/svg" width="24" height="24" viewBox="0 0 24 24"><g opacity="0.4"><path d="M5 1A3 3 0 1 0 5 7 3 3 0 1 0 5 1z"/><path d="m21,13H2.5c-.83,0-1.5.67-1.5,1.5v4c0,2.48,2.02,4.5,4.5,4.5h13c2.48,0,4.5-2.02,4.5-4.5v-3.5c0-1.1-.9-2-2-2Z"/></g><path d="m16.77,10c.39,0,.72-.31.75-.7.09-1.63.49-2.54.92-3.49.46-1.04.94-2.11,1.04-4,.02-.43-.31-.81-.75-.81-.39,0-.72.31-.75.7-.09,1.63-.49,2.54-.92,3.49-.46,1.04-.94,2.11-1.04,4-.02.43.31.81.75.81Z"/><path d="m13.27,10c.39,0,.72-.31.75-.7.09-1.63.49-2.54.92-3.49.46-1.04.94-2.11,1.04-4,.02-.43-.31-.81-.75-.81-.39,0-.72.31-.75.7-.09,1.63-.49,2.54-.92,3.49-.46,1.04-.94,2.11-1.04,4-.02.43.31.81.75.81Z"/><path d="m20.27,10c.39,0,.72-.31.75-.7.09-1.63.49-2.54.92-3.49.46-1.04.94-2.11,1.04-4,.02-.43-.31-.81-.75-.81-.39,0-.72.31-.75.7-.09,1.63-.49,2.54-.92,3.49-.46,1.04-.94,2.11-1.04,4-.02.43.31.81.75.81Z"/><path d="m2.5,13h8.98c-1.87-3.02-3.06-5-6.08-5-2.43,0-4.4,2.33-4.4,5.83v.67c0-.83.67-1.5,1.5-1.5Z"/></svg>