<svg xmlns="http://www.w3.org/2000/svg" width="24" height="24" viewBox="0 0 24 24"><g opacity="0.4"><path d="m12.9,2.04c-.59-.05-1.21-.05-1.81,0-3.3.27-6.19,2.08-7.94,4.97-1.35,2.24-1.83,4.86-1.43,7.38l2.87-1.43c-.06-1.52.32-3.06,1.13-4.4,1.24-2.06,3.28-3.34,5.61-3.53.44-.04.9-.04,1.33,0,2.33.19,4.37,1.48,5.61,3.53.81,1.34,1.18,2.88,1.13,4.4l2.87,1.43c.41-2.52-.08-5.15-1.43-7.38-1.74-2.89-4.64-4.71-7.94-4.98Z"/></g><path d="m3.83,20.12c.27.63.8,1.13,1.44,1.36.28.1.57.15.86.15.39,0,.77-.09,1.12-.26l.35-.18c1.15-.58,1.68-1.97,1.2-3.16l-1.38-3.45c-.26-.65-.78-1.16-1.43-1.41-.45-.17-.93-.21-1.39-.11,0-.03,0-.06,0-.1l-2.87,1.43c.14.86.38,1.72.73,2.54l1.37,3.19Z"/><path d="m16.4,21.19l.35.18c.61.31,1.33.35,1.98.11.64-.24,1.17-.73,1.44-1.36l1.36-3.18c.35-.82.59-1.67.73-2.54l-2.87-1.43s0,.06,0,.1c-.46-.09-.94-.06-1.39.11-.65.25-1.17.76-1.43,1.41l-1.38,3.45c-.48,1.2.05,2.59,1.2,3.16Z"/></svg>