<svg xmlns="http://www.w3.org/2000/svg" width="24" height="24" viewBox="0 0 24 24"><g opacity="0.4"><path d="m9.5,6c-.83,0-1.5.67-1.5,1.5v3h-3v-3c0-.83-.67-1.5-1.5-1.5s-1.5.67-1.5,1.5v9c0,.83.67,1.5,1.5,1.5s1.5-.67,1.5-1.5v-3h3v3c0,.83.67,1.5,1.5,1.5s1.5-.67,1.5-1.5V7.5c0-.83-.67-1.5-1.5-1.5Z"/></g><path d="m20.5,15h-1.5v-7.5c0-.61-.37-1.15-.93-1.39-.56-.23-1.21-.1-1.63.33l-2,2c-.59.59-.59,1.54,0,2.12.42.42,1.03.54,1.56.35v4.09h-1.5c-.83,0-1.5.67-1.5,1.5s.67,1.5,1.5,1.5h6c.83,0,1.5-.67,1.5-1.5s-.67-1.5-1.5-1.5Z"/></svg>