<svg xmlns="http://www.w3.org/2000/svg" width="24" height="24" viewBox="0 0 24 24"><g opacity="0.4"><path d="m12,1C5.93,1,1,5.93,1,12s4.93,11,11,11,11-4.93,11-11S18.07,1,12,1Zm-6,9c0-1.1.9-2,2-2s2,.9,2,2-.9,2-2,2-2-.9-2-2Zm10.57,5.08c-.6,1.18-1.94,2.92-4.57,2.92s-3.97-1.74-4.57-2.92c-.25-.49.12-1.08.67-1.08h7.79c.56,0,.93.58.67,1.08Zm-.57-3.08c-1.1,0-2-.9-2-2s.9-2,2-2,2,.9,2,2-.9,2-2,2Z"/></g><path d="M8 8A2 2 0 1 0 8 12 2 2 0 1 0 8 8z"/><path d="M16 8A2 2 0 1 0 16 12 2 2 0 1 0 16 8z"/><path d="m8.1,14c-.56,0-.93.58-.67,1.08.6,1.18,1.94,2.92,4.57,2.92s3.97-1.74,4.57-2.92c.25-.49-.12-1.08-.67-1.08h-7.79Z"/></svg>