<svg xmlns="http://www.w3.org/2000/svg" width="24" height="24" viewBox="0 0 24 24"><g opacity="0.4"><path d="m15.5,10.5h-3.5v-1.69c0-.67-.81-1-1.28-.53l-3.19,3.19c-.29.29-.29.77,0,1.06l3.19,3.19c.47.47,1.28.14,1.28-.53v-1.69h3.5c.83,0,1.5-.67,1.5-1.5s-.67-1.5-1.5-1.5Z"/></g><path d="m3.5,1c-.83,0-1.5.67-1.5,1.5v1c0,.83.67,1.5,1.5,1.5s1.5-.67,1.5-1.5v-1c0-.83-.67-1.5-1.5-1.5Z"/><path d="m3.5,7c-.83,0-1.5.67-1.5,1.5v1c0,.83.67,1.5,1.5,1.5s1.5-.67,1.5-1.5v-1c0-.83-.67-1.5-1.5-1.5Z"/><path d="m3.5,13c-.83,0-1.5.67-1.5,1.5v1c0,.83.67,1.5,1.5,1.5s1.5-.67,1.5-1.5v-1c0-.83-.67-1.5-1.5-1.5Z"/><path d="m3.5,19c-.83,0-1.5.67-1.5,1.5v1c0,.83.67,1.5,1.5,1.5s1.5-.67,1.5-1.5v-1c0-.83-.67-1.5-1.5-1.5Z"/></svg>