<svg xmlns="http://www.w3.org/2000/svg" width="24" height="24" viewBox="0 0 24 24"><g opacity="0.4"><path d="m17.5,2H6.5c-2.48,0-4.5,2.02-4.5,4.5v11c0,2.48,2.02,4.5,4.5,4.5h11c2.48,0,4.5-2.02,4.5-4.5V6.5c0-2.48-2.02-4.5-4.5-4.5Zm-.48,10.87l-4.17,4.21c-.47.47-1.24.47-1.71,0l-4.17-4.21c-1.31-1.32-1.31-3.41,0-4.74,1.31-1.32,3.38-1.32,4.69,0l.33.34.33-.34c1.31-1.32,3.37-1.32,4.69,0,1.31,1.33,1.31,3.42,0,4.74Z"/></g><path d="m11.15,17.08c.47.47,1.24.47,1.71,0l4.17-4.21c1.31-1.32,1.31-3.41,0-4.74-1.31-1.32-3.38-1.32-4.69,0l-.33.34-.33-.34c-1.3-1.32-3.37-1.32-4.69,0-1.31,1.33-1.31,3.42,0,4.74l4.17,4.21Z"/></svg>