<svg xmlns="http://www.w3.org/2000/svg" width="24" height="24" viewBox="0 0 24 24"><g opacity="0.4"><path d="m12,1C5.93,1,1,5.93,1,12s4.93,11,11,11,11-4.93,11-11S18.07,1,12,1Zm-5.25,10c0,.41-.34.75-.75.75s-.75-.34-.75-.75c0-1.52,1.23-2.75,2.75-2.75s2.75,1.23,2.75,2.75c0,.41-.34.75-.75.75s-.75-.34-.75-.75c0-.69-.56-1.25-1.25-1.25s-1.25.56-1.25,1.25Zm9.82,4.08c-.6,1.18-1.94,2.92-4.57,2.92s-3.97-1.74-4.57-2.92c-.25-.49.12-1.08.67-1.08h7.79c.56,0,.93.58.67,1.08Zm1.43-3.33c-.41,0-.75-.34-.75-.75,0-.69-.56-1.25-1.25-1.25s-1.25.56-1.25,1.25c0,.41-.34.75-.75.75s-.75-.34-.75-.75c0-1.52,1.23-2.75,2.75-2.75s2.75,1.23,2.75,2.75c0,.41-.34.75-.75.75Z"/></g><path d="m14,11.75c.41,0,.75-.34.75-.75,0-.69.56-1.25,1.25-1.25s1.25.56,1.25,1.25c0,.41.34.75.75.75s.75-.34.75-.75c0-1.52-1.23-2.75-2.75-2.75s-2.75,1.23-2.75,2.75c0,.41.34.75.75.75Z"/><path d="m8.1,14c-.56,0-.93.58-.67,1.08.6,1.18,1.94,2.92,4.57,2.92s3.97-1.74,4.57-2.92c.25-.49-.12-1.08-.67-1.08h-7.79Z"/><path d="m6,11.75c.41,0,.75-.34.75-.75,0-.69.56-1.25,1.25-1.25s1.25.56,1.25,1.25c0,.41.34.75.75.75s.75-.34.75-.75c0-1.52-1.23-2.75-2.75-2.75s-2.75,1.23-2.75,2.75c0,.41.34.75.75.75Z"/></svg>