<svg xmlns="http://www.w3.org/2000/svg" width="24" height="24" viewBox="0 0 24 24"><g opacity="0.4"><path d="m21.01,4c-1.29-1.29-2.98-2-4.77-2h0c-1.55,0-3.03.54-4.23,1.52-1.2-.98-2.68-1.51-4.23-1.52h0c-1.79,0-3.49.71-4.78,2-2.66,2.69-2.66,6.89,0,9.57l6.89,6.92c.57.57,1.32.88,2.13.88s1.56-.31,2.13-.88l6.89-6.92c2.66-2.68,2.67-6.88,0-9.57h0Zm-5.51,9.5h-2v2c0,.83-.67,1.5-1.5,1.5s-1.5-.67-1.5-1.5v-2h-2c-.83,0-1.5-.67-1.5-1.5s.67-1.5,1.5-1.5h2v-2c0-.83.67-1.5,1.5-1.5s1.5.67,1.5,1.5v2h2c.83,0,1.5.67,1.5,1.5s-.67,1.5-1.5,1.5Z"/></g><path d="m8.5,13.5h2v2c0,.83.67,1.5,1.5,1.5s1.5-.67,1.5-1.5v-2h2c.83,0,1.5-.67,1.5-1.5s-.67-1.5-1.5-1.5h-2v-2c0-.83-.67-1.5-1.5-1.5s-1.5.67-1.5,1.5v2h-2c-.83,0-1.5.67-1.5,1.5s.67,1.5,1.5,1.5Z"/></svg>