<svg xmlns="http://www.w3.org/2000/svg" width="24" height="24" viewBox="0 0 24 24"><g opacity="0.4"><path d="m12,1C5.93,1,1,5.93,1,12s4.93,11,11,11,11-4.93,11-11S18.07,1,12,1Zm-6.37,9.2c-.75-.72-.81-1.96-.03-2.64.33-.28.74-.44,1.18-.44.45,0,.87.15,1.21.45.33-.3.75-.46,1.2-.47.45,0,.87.16,1.21.45.77.67.73,1.88,0,2.6l-1.68,1.66c-.39.38-1,.39-1.4.01l-1.69-1.63Zm10.94,4.88c-.6,1.18-1.94,2.92-4.57,2.92s-3.97-1.74-4.57-2.92c-.25-.49.12-1.08.67-1.08h7.79c.56,0,.93.58.67,1.08Zm1.83-4.93l-1.68,1.66c-.39.38-1.01.39-1.4.01l-1.69-1.63c-.75-.72-.81-1.96-.03-2.64.33-.28.74-.44,1.18-.44.45,0,.87.15,1.21.45.33-.3.75-.46,1.2-.47.45,0,.87.16,1.21.45.77.67.73,1.88,0,2.6Z"/></g><path d="m9.19,7.1c-.45,0-.87.17-1.2.47-.33-.29-.76-.45-1.21-.45-.43,0-.85.16-1.18.44-.78.68-.72,1.92.03,2.64l1.69,1.63c.39.38,1.01.37,1.4-.01l1.68-1.66c.72-.72.76-1.93,0-2.6-.34-.29-.76-.45-1.21-.45Z"/><path d="m7.43,15.08c.6,1.18,1.94,2.92,4.57,2.92s3.97-1.74,4.57-2.92c.25-.49-.12-1.08-.67-1.08h-7.79c-.56,0-.93.58-.67,1.08Z"/><path d="m16.72,11.81l1.68-1.66c.72-.72.76-1.93,0-2.6-.34-.29-.76-.45-1.21-.45-.45,0-.87.17-1.2.47-.33-.29-.76-.45-1.21-.45-.43,0-.85.16-1.18.44-.78.68-.72,1.92.03,2.64l1.69,1.63c.39.38,1.01.37,1.4-.01Z"/></svg>