<svg xmlns="http://www.w3.org/2000/svg" width="24" height="24" viewBox="0 0 24 24"><g opacity="0.4"><path d="m18.58,2.99c-1.16-1.16-3.06-1.17-4.23-.02l-6.9,6.8,2.12,2.12,1.41,1.41,2.12,2.12,6.87-6.76s0,0,0,0c.57-.57.89-1.32.89-2.13,0-.81-.31-1.56-.88-2.13l-1.41-1.41Z"/></g><path d="m19.5,20H4.5c-.83,0-1.5.67-1.5,1.5s.67,1.5,1.5,1.5h15c.83,0,1.5-.67,1.5-1.5s-.67-1.5-1.5-1.5Z"/><path d="m7.29,17.54l4.38-1.01c.27-.06.52-.2.71-.39l.72-.71-5.66-5.66-.7.69c-.2.2-.35.45-.41.73l-1.02,4.44-2.31,2.37h3.83l.47-.46Z"/></svg>