<svg xmlns="http://www.w3.org/2000/svg" width="24" height="24" viewBox="0 0 24 24"><g opacity="0.4"><path d="m19.5,14h-2.09l-.73,3h2.83c.83,0,1.5-.67,1.5-1.5s-.67-1.5-1.5-1.5Z"/><path d="M7.97 17 13.58 17 14.32 14 8.7 14 7.97 17z"/><path d="m2,15.5c0,.83.67,1.5,1.5,1.5h1.38l.73-3h-2.11c-.83,0-1.5.67-1.5,1.5Z"/><path d="M9.68 10 15.3 10 16.03 7 10.42 7 9.68 10z"/><path d="m20.5,7h-1.38l-.73,3h2.11c.83,0,1.5-.67,1.5-1.5s-.67-1.5-1.5-1.5Z"/><path d="m3,8.5c0,.83.67,1.5,1.5,1.5h2.09l.73-3h-2.83c-.83,0-1.5.67-1.5,1.5Z"/></g><path d="m8.03,4.14l-3.67,15c-.2.8.3,1.62,1.1,1.81.12.03.24.04.36.04.67,0,1.29-.46,1.46-1.14l3.67-15c.2-.8-.3-1.62-1.1-1.81-.8-.2-1.62.3-1.81,1.1Z"/><path d="m16.73,4.14l-3.67,15c-.2.8.3,1.62,1.1,1.81.12.03.24.04.36.04.67,0,1.29-.46,1.46-1.14l3.67-15c.2-.8-.3-1.62-1.1-1.81-.8-.2-1.62.3-1.81,1.1Z"/></svg>