<svg xmlns="http://www.w3.org/2000/svg" width="24" height="24" viewBox="0 0 24 24"><g opacity="0.4"><path d="m13.62,10.97c.09-.17.22-.32.37-.38.58-.25,1.1-.61,1.54-1.05.94-.94,1.46-2.2,1.46-3.54s-.52-2.59-1.46-3.54c-.94-.94-2.2-1.46-3.54-1.46s-2.59.52-3.54,1.46c-.94.94-1.46,2.2-1.46,3.54,0,.83.67,1.5,1.5,1.5s1.5-.67,1.5-1.5c0-.53.21-1.04.59-1.42.75-.75,2.07-.75,2.83,0,.38.38.59.88.59,1.41s-.21,1.04-.59,1.42c-.18.18-.39.32-.62.42-1.2.52-2.03,1.65-2.24,2.96l-8.18,7.75c-.6.57-.79,1.43-.48,2.19.3.77,1.03,1.26,1.86,1.26h16.49c.82,0,1.55-.49,1.86-1.26.3-.77.12-1.63-.48-2.19l-8-7.58Zm-7.36,8.03l5.74-5.43,5.74,5.43H6.26Z"/></g></svg>