<svg xmlns="http://www.w3.org/2000/svg" width="24" height="24" viewBox="0 0 24 24"><g opacity="0.4"><path d="m6,8.33c0-1.45.36-2.11.82-2.95.38-.69.82-1.51,1.04-2.73.16-.86-.53-1.65-1.41-1.65h-.15c-.7,0-1.27.51-1.41,1.2-.14.7-.4,1.19-.71,1.75-.53.97-1.18,2.17-1.18,4.38s.66,3.42,1.18,4.38c.46.84.82,1.5.82,2.95s-.36,2.11-.82,2.95c-.38.69-.82,1.51-1.04,2.73-.16.86.53,1.65,1.41,1.65h.15c.7,0,1.27-.51,1.41-1.2.14-.7.4-1.19.71-1.75.53-.97,1.18-2.17,1.18-4.38s-.66-3.42-1.18-4.39c-.46-.84-.82-1.5-.82-2.95Z"/><path d="m19,8.33c0-1.45.36-2.11.82-2.95.38-.69.82-1.51,1.04-2.73.16-.86-.53-1.65-1.41-1.65h-.15c-.7,0-1.27.51-1.41,1.2-.14.7-.4,1.19-.71,1.75-.53.97-1.18,2.17-1.18,4.38s.66,3.42,1.18,4.38c.46.84.82,1.5.82,2.95s-.36,2.11-.82,2.95c-.38.69-.82,1.51-1.04,2.73-.16.86.53,1.65,1.41,1.65h.15c.7,0,1.27-.51,1.41-1.2.14-.7.4-1.19.71-1.75.53-.97,1.18-2.17,1.18-4.38s-.66-3.42-1.18-4.39c-.46-.84-.82-1.5-.82-2.95Z"/></g><path d="m12.5,8.33c0-1.45.36-2.11.82-2.95.38-.69.82-1.51,1.04-2.73.16-.86-.53-1.65-1.41-1.65h-.15c-.7,0-1.27.51-1.41,1.2-.14.7-.4,1.19-.71,1.75-.53.97-1.18,2.17-1.18,4.38s.66,3.42,1.18,4.38c.46.84.82,1.5.82,2.95s-.36,2.11-.82,2.95c-.38.69-.82,1.51-1.04,2.73-.16.86.53,1.65,1.41,1.65h.15c.7,0,1.27-.51,1.41-1.2.14-.7.4-1.19.71-1.75.53-.97,1.18-2.17,1.18-4.38s-.66-3.42-1.18-4.39c-.46-.84-.82-1.5-.82-2.95Z"/></svg>