<svg xmlns="http://www.w3.org/2000/svg" width="24" height="24" viewBox="0 0 24 24"><g opacity="0.4"><path d="m13.67,7.71l-2.52,2.52c-.49.49-1.14.74-1.79.74-.7,0-1.4-.29-1.9-.86-.89-1.01-.76-2.56.18-3.52l3.58-3.61c-1.04-.63-2.21-.98-3.45-.98h0c-1.79,0-3.49.71-4.78,2-2.66,2.69-2.66,6.89,0,9.57l6.89,6.92c.57.57,1.32.88,2.13.88,0,0,.01,0,.02,0,.85,0,1.25-1.07.65-1.67l-3.19-3.18c-.2-.2-.2-.51,0-.71s.51-.2.71,0l3.58,3.58c.4.4,1.06.4,1.46,0,.4-.4.4-1.06,0-1.46l-3.58-3.58c-.2-.2-.2-.51,0-.71s.51-.2.71,0l3.57,3.57c.4.4,1.06.4,1.46,0,.4-.4.4-1.06,0-1.46l-3.57-3.57c-.2-.2-.2-.51,0-.71s.51-.2.71,0l3.57,3.57c.4.4,1.06.4,1.46,0,.4-.4.4-1.06,0-1.46l-5.88-5.88Z"/></g><path d="m21.01,4c-1.29-1.29-2.98-2-4.77-2h0c-1.42,0-2.77.47-3.91,1.3l-4.04,4.07c-.59.59-.59,1.56,0,2.15s1.56.59,2.16,0l4.04-4.04c.2-.2.51-.2.71,0s.2.51,0,.71l-.81.81,6.61,6.61.03-.03c2.66-2.68,2.67-6.88,0-9.57,0,0,0,0,0,0Z"/></svg>