<svg xmlns="http://www.w3.org/2000/svg" width="24" height="24" viewBox="0 0 24 24"><g opacity="0.4"><path d="m21.5,4c-.83,0-1.5.67-1.5,1.5v8c0,1.38-1.12,2.5-2.5,2.5-.64,0-1.22-.25-1.66-.65-.35.96-1.26,1.65-2.34,1.65-1.38,0-2.5-1.12-2.5-2.5V3.5c0-.83-.67-1.5-1.5-1.5s-1.5.67-1.5,1.5v11.85c0,.37-.43.56-.71.33l-2.66-2.28c-.87-.74-2.19-.56-2.82.39-.48.72-.42,1.66.15,2.31l4.25,4.85c1.14,1.3,2.79,2.05,4.52,2.05h6.28c3.31,0,6-2.69,6-6V5.5c0-.83-.67-1.5-1.5-1.5Z"/></g><path d="m13.5,16c.83,0,1.5-.67,1.5-1.5v-5c0-.83-.67-1.5-1.5-1.5s-1.5.67-1.5,1.5v5c0,.83.67,1.5,1.5,1.5Z"/><path d="m17.5,15c.83,0,1.5-.67,1.5-1.5v-4c0-.83-.67-1.5-1.5-1.5s-1.5.67-1.5,1.5v4c0,.83.67,1.5,1.5,1.5Z"/></svg>