<svg xmlns="http://www.w3.org/2000/svg" width="24" height="24" viewBox="0 0 24 24"><g opacity="0.4"><path d="m17.5,1H6.5c-2.48,0-4.5,2.02-4.5,4.5v13c0,2.48,2.02,4.5,4.5,4.5h11c2.48,0,4.5-2.02,4.5-4.5V5.5c0-2.48-2.02-4.5-4.5-4.5ZM6,9c0-1.1.9-2,2-2s2,.9,2,2-.9,2-2,2-2-.9-2-2Zm11.12,7.8H7.07c-.42,0-.66-.49-.38-.82l1.79-2.15c.28-.34.79-.36,1.11-.05l.65.65c.31.31.82.29,1.1-.04l2.4-2.8c.33-.39.95-.34,1.21.1l2.61,4.35c.2.33-.04.76-.43.76Z"/></g><path d="m8.47,13.83l-1.79,2.15c-.27.33-.04.82.38.82h10.05c.39,0,.63-.42.43-.76l-2.61-4.35c-.26-.44-.88-.49-1.21-.1l-2.4,2.8c-.28.33-.79.35-1.1.04l-.65-.65c-.31-.31-.82-.29-1.11.05Z"/><path d="M8 7A2 2 0 1 0 8 11 2 2 0 1 0 8 7z"/></svg>