<svg xmlns="http://www.w3.org/2000/svg" width="24" height="24" viewBox="0 0 24 24"><g opacity="0.4"><path d="m17.5,2H6.5c-2.48,0-4.5,2.02-4.5,4.5v11c0,.45.09.88.21,1.29l5.08-5.03c.39-.39,1.02-.39,1.41,0l.59.59c.39.39,1.02.39,1.41,0l4.59-4.59c.39-.39,1.02-.39,1.41,0l5.29,5.24V6.5c0-2.48-2.02-4.5-4.5-4.5Zm-9.5,8c-1.1,0-2-.9-2-2s.9-2,2-2,2,.9,2,2-.9,2-2,2Z"/></g><path d="M8 6A2 2 0 1 0 8 10 2 2 0 1 0 8 6z"/><path d="m15.3,9.76l-4.59,4.59c-.39.39-1.02.39-1.41,0l-.59-.59c-.39-.39-1.02-.39-1.41,0l-5.08,5.03c.56,1.85,2.26,3.21,4.29,3.21h11c2.48,0,4.5-2.02,4.5-4.5v-2.5l-5.29-5.24c-.39-.39-1.02-.39-1.41,0Z"/></svg>