<svg xmlns="http://www.w3.org/2000/svg" width="24" height="24" viewBox="0 0 24 24"><g opacity="0.4"><path d="m17.5,2H6.5c-2.48,0-4.5,2.02-4.5,4.5v11c0,1.24.5,2.37,1.32,3.18l4.44-4.44c-1.09-1.09-1.76-2.59-1.76-4.24,0-3.31,2.69-6,6-6,1.66,0,3.16.67,4.24,1.76l-.2.2-8.08,8.08-.2.2c1.09,1.09,2.59,1.76,4.24,1.76,3.31,0,6-2.69,6-6,0-1.66-.67-3.16-1.76-4.24l4.44-4.44c-.81-.81-1.94-1.32-3.18-1.32Z"/></g><path d="m16.24,7.76c1.09,1.09,1.76,2.59,1.76,4.24,0,3.31-2.69,6-6,6-1.66,0-3.16-.67-4.24-1.76l-4.44,4.44c.81.81,1.94,1.32,3.18,1.32h11c2.48,0,4.5-2.02,4.5-4.5V6.5c0-1.24-.5-2.37-1.32-3.18l-4.44,4.44Z"/><path d="m16.04,7.96l.2-.2c-1.09-1.09-2.59-1.76-4.24-1.76-3.31,0-6,2.69-6,6,0,1.66.67,3.16,1.76,4.24l.2-.2,8.08-8.08Z"/></svg>