<svg xmlns="http://www.w3.org/2000/svg" width="24" height="24" viewBox="0 0 24 24"><g opacity="0.4"><path d="m12.5,2h-1c-.83,0-1.5.67-1.5,1.5s.67,1.5,1.5,1.5h1c.83,0,1.5-.67,1.5-1.5s-.67-1.5-1.5-1.5Z"/><path d="m7,2h-.5c-2.48,0-4.5,2.02-4.5,4.5v.5c0,.83.67,1.5,1.5,1.5s1.5-.67,1.5-1.5v-.5c0-.83.67-1.5,1.5-1.5h.5c.83,0,1.5-.67,1.5-1.5s-.67-1.5-1.5-1.5Z"/><path d="m17.5,2h-.5c-.83,0-1.5.67-1.5,1.5s.67,1.5,1.5,1.5h.5c.83,0,1.5.67,1.5,1.5v.5c0,.83.67,1.5,1.5,1.5s1.5-.67,1.5-1.5v-.5c0-2.48-2.02-4.5-4.5-4.5Z"/><path d="m3.5,10c-.83,0-1.5.67-1.5,1.5v6c0-.45.2-.87.55-1.16l2.45-2.02v-2.82c0-.83-.67-1.5-1.5-1.5Z"/><path d="M2 17.5 2 17.5 2 17.5 2 17.5z"/><path d="m20.5,10c-.55,0-1.02.3-1.28.73l2.31,2.17c.3.28.47.68.47,1.09v-2.5c0-.83-.67-1.5-1.5-1.5Z"/></g><path d="m18.31,9.88c-1.15-1.09-2.96-1.08-4.11,0l-4.31,4.06-.14-.13c-1.1-1.03-2.8-1.09-3.96-.13l-3.23,2.66c-.35.29-.55.71-.55,1.16,0,2.48,2.02,4.5,4.5,4.5h11c2.48,0,4.5-2.02,4.5-4.5v-3.5c0-.41-.17-.81-.47-1.09l-3.22-3.03Z"/><path d="M8.5 7A1.5 1.5 0 1 0 8.5 10 1.5 1.5 0 1 0 8.5 7z"/></svg>