<svg xmlns="http://www.w3.org/2000/svg" width="24" height="24" viewBox="0 0 24 24"><g opacity="0.4"><path d="m17.5,2H6.5c-2.48,0-4.5,2.02-4.5,4.5v11c0,2.48,2.02,4.5,4.5,4.5h11c2.48,0,4.5-2.02,4.5-4.5V6.5c0-2.48-2.02-4.5-4.5-4.5Zm.31,16.07H6.19c-.4,0-.63-.46-.38-.78l2.17-2.79c.31-.39.9-.37,1.18.04l.02.02c.19.28.61.29.8,0l2.41-3.45c.28-.41.88-.42,1.18-.02l4.64,6.18c.24.32.01.78-.39.78Z"/></g><path d="m6.19,18.07h11.63c.4,0,.63-.46.39-.78l-4.64-6.18c-.3-.4-.89-.39-1.18.02l-2.41,3.45c-.2.28-.61.28-.8,0l-.02-.02c-.28-.41-.88-.44-1.18-.04l-2.17,2.79c-.25.32-.02.78.38.78Z"/></svg>