<svg xmlns="http://www.w3.org/2000/svg" width="24" height="24" viewBox="0 0 24 24"><g opacity="0.4"><path d="m12,13.9c-4.64,0-6.94,3.26-7.73,5.55.46.41.65.55,1.12.55.5,0,.68-.15,1.19-.61.61-.55,1.53-1.39,3.21-1.39s2.6.84,3.21,1.39c.51.46.69.61,1.19.61s.68-.15,1.19-.61c.61-.55,1.53-1.39,3.21-1.39.33,0,.62.04.89.09-.97-1.87-3.26-4.19-7.49-4.19Z"/></g><path d="m22.32,19.82c-.15-.1-.3-.23-.51-.43-.61-.55-1.53-1.39-3.21-1.39s-2.6.84-3.21,1.39c-.51.46-.7.61-1.19.61s-.68-.15-1.19-.61c-.61-.55-1.53-1.39-3.21-1.39s-2.6.84-3.21,1.39c-.51.46-.69.61-1.19.61s-.68-.15-1.19-.61c-.25-.23-.55-.5-.94-.75-.98-.62-2.27.13-2.27,1.29h0c0,.51.26.97.68,1.25.14.1.3.23.51.42.61.55,1.53,1.39,3.21,1.39s2.6-.84,3.21-1.39c.51-.46.69-.61,1.19-.61s.68.15,1.19.61c.61.55,1.53,1.39,3.21,1.39s2.6-.84,3.21-1.39c.51-.46.7-.61,1.19-.61s.68.15,1.19.61c.25.23.56.5.94.75.98.62,2.27-.13,2.27-1.29,0-.51-.26-.97-.68-1.25Z"/><path d="m8.25,7.43c.38-.22.91-.47,1.55-.67-1.07,1.81-2.14,4.56-2.16,8.35.84-.54,1.85-.94,3.04-1.11.21-2.91,1.16-4.92,1.96-6.14.08.55.11,1.15.06,1.8-.04.5.31.96.81,1.05h.01c.58.11,1.13-.32,1.17-.91.08-1.08-.01-2.07-.23-2.96.42.14.85.32,1.29.56.45.24,1.01.09,1.28-.34h0c.32-.5.14-1.17-.38-1.44-1.08-.57-2.12-.89-3.1-1.05-.78-1.4-1.85-2.44-2.81-3.11-.51-.35-1.2-.17-1.47.39v.02c-.22.44-.08.96.32,1.24.42.3.98.75,1.5,1.38-1.65.17-2.99.75-3.83,1.21-.55.3-.69,1.02-.29,1.5.31.38.84.47,1.26.23Z"/></svg>