<svg xmlns="http://www.w3.org/2000/svg" width="24" height="24" viewBox="0 0 24 24"><g opacity="0.4"><path d="M17.28 6C15.06 6 13.41 7.61 12 9.44 10.59 7.6 8.94 6 6.72 6 3.56 6 1 8.69 1 12c0 1.64.65 3.22 1.78 4.35C3.85 17.41 5.24 18 6.71 18h.01c2.21 0 3.86-1.61 5.27-3.45C13.4 16.39 15.05 18 17.27 18c3.16 0 5.72-2.69 5.72-6s-2.57-6-5.72-6ZM6.72 15c-.7 0-1.32-.27-1.82-.77-.57-.57-.9-1.38-.9-2.23 0-1.65 1.22-3 2.72-3 1.13 0 2.29 1.41 3.44 3-1.14 1.59-2.31 3-3.44 3m10.56 0c-1.13 0-2.3-1.41-3.44-3 1.14-1.59 2.31-3 3.44-3 1.5 0 2.72 1.35 2.72 3s-1.22 3-2.72 3"/></g></svg>