<svg xmlns="http://www.w3.org/2000/svg" width="24" height="24" viewBox="0 0 24 24"><g opacity="0.4"><path d="m12,1C5.93,1,1,5.93,1,12s4.93,11,11,11,11-4.93,11-11S18.07,1,12,1Zm1.5,15.5c0,.83-.67,1.5-1.5,1.5s-1.5-.67-1.5-1.5v-4c0-.83.67-1.5,1.5-1.5s1.5.67,1.5,1.5v4Zm-1.5-7.5c-.83,0-1.5-.67-1.5-1.5s.67-1.5,1.5-1.5,1.5.67,1.5,1.5-.67,1.5-1.5,1.5Z"/></g><path d="M12 6A1.5 1.5 0 1 0 12 9 1.5 1.5 0 1 0 12 6z"/><path d="m10.5,16.5c0,.83.67,1.5,1.5,1.5s1.5-.67,1.5-1.5v-4c0-.83-.67-1.5-1.5-1.5s-1.5.67-1.5,1.5v4Z"/></svg>