<svg xmlns="http://www.w3.org/2000/svg" width="24" height="24" viewBox="0 0 24 24"><g opacity="0.4"><path d="m17.5,2H6.5c-2.48,0-4.5,2.02-4.5,4.5v11c0,2.48,2.02,4.5,4.5,4.5h5c.83,0,1.5-.67,1.5-1.5s-.67-1.5-1.5-1.5h-5c-.83,0-1.5-.67-1.5-1.5v-.44l2.47-2.47c.29-.29.77-.29,1.06,0l.41.41c.58.58,1.54.58,2.12,0l4.41-4.41c.29-.29.77-.29,1.06,0l2.57,2.47h0c.22.55.76.94,1.39.94.83,0,1.5-.67,1.5-1.5v-6c0-2.48-2.02-4.5-4.5-4.5Zm-9.5,9c-1.1,0-2-.9-2-2s.9-2,2-2,2,.9,2,2-.9,2-2,2Z"/></g><path d="m22.39,18.06l-1.24-.55c-.29-.13-.52-.36-.65-.65l-.55-1.25c-.16-.37-.53-.61-.93-.61h0c-.4,0-.76.23-.93.6h0s-.56,1.21-.56,1.21c-.12.27-.34.49-.61.62l-1.32.64c-.36.17-.59.54-.58.94,0,.4.25.76.61.92l1.26.56c.29.13.52.36.65.65l.55,1.24c.16.37.53.61.94.61s.77-.24.94-.61l.55-1.24c.13-.29.36-.52.65-.65l1.24-.55c.37-.17.61-.53.61-.94s-.24-.77-.61-.94Z"/></svg>