<svg xmlns="http://www.w3.org/2000/svg" width="24" height="24" viewBox="0 0 24 24"><g opacity="0.4"><path d="m19.5,1h-10c-1.93,0-3.5,1.57-3.5,3.5v10c0,1.93,1.57,3.5,3.5,3.5h10c1.93,0,3.5-1.57,3.5-3.5V4.5c0-1.93-1.57-3.5-3.5-3.5Zm-.4,12h-9.19c-.39,0-.63-.43-.42-.77l1.33-2.11c.19-.3.62-.31.83-.03l.24.33c.21.28.63.27.82-.02l2.48-3.75c.2-.3.65-.3.84,0l3.51,5.58c.21.33-.03.77-.42.77Z"/></g><path d="m16,21.5c0-.83-.67-1.5-1.5-1.5H5.5c-.83,0-1.5-.67-1.5-1.5v-9c0-.83-.67-1.5-1.5-1.5s-1.5.67-1.5,1.5v9c0,2.48,2.02,4.5,4.5,4.5h9c.83,0,1.5-.67,1.5-1.5Z"/><path d="m9.9,13h9.19c.39,0,.63-.43.42-.77l-3.51-5.58c-.19-.31-.64-.31-.84,0l-2.48,3.75c-.19.29-.61.3-.82.02l-.24-.33c-.21-.28-.64-.27-.83.03l-1.33,2.11c-.21.33.03.77.42.77Z"/></svg>