<svg xmlns="http://www.w3.org/2000/svg" width="24" height="24" viewBox="0 0 24 24"><g opacity="0.4"><path d="m15,4h-6C4.59,4,1,7.59,1,12s3.59,8,8,8h6c4.41,0,8-3.59,8-8s-3.59-8-8-8Zm-2,9.5h-2.5v2.5h-3v-2.5h-2.5v-3h2.5v-2.5h3v2.5h2.5v3Zm3.5,2c-.83,0-1.5-.67-1.5-1.5s.67-1.5,1.5-1.5,1.5.67,1.5,1.5-.67,1.5-1.5,1.5Zm2-4c-.83,0-1.5-.67-1.5-1.5s.67-1.5,1.5-1.5,1.5.67,1.5,1.5-.67,1.5-1.5,1.5Z"/></g><path d="M7.5 16 10.5 16 10.5 13.5 13 13.5 13 10.5 10.5 10.5 10.5 8 7.5 8 7.5 10.5 5 10.5 5 13.5 7.5 13.5 7.5 16z"/><path d="M18.5 8.5A1.5 1.5 0 1 0 18.5 11.5 1.5 1.5 0 1 0 18.5 8.5z"/><path d="M16.5 12.5A1.5 1.5 0 1 0 16.5 15.5 1.5 1.5 0 1 0 16.5 12.5z"/></svg>