<svg xmlns="http://www.w3.org/2000/svg" width="24" height="24" viewBox="0 0 24 24"><g opacity="0.4"><path d="m19.5,6h-1.5v-1.5c0-1.93-1.57-3.5-3.5-3.5h-5c-1.93,0-3.5,1.57-3.5,3.5v1.5h-1.5c-1.93,0-3.5,1.57-3.5,3.5v5c0,1.93,1.57,3.5,3.5,3.5h1.5v1.5c0,1.93,1.57,3.5,3.5,3.5h5c1.93,0,3.5-1.57,3.5-3.5v-1.5h1.5c1.93,0,3.5-1.57,3.5-3.5v-5c0-1.93-1.57-3.5-3.5-3.5Zm-12.5,7.57c0,.4-.45.64-.78.42l-2.35-1.57c-.3-.2-.3-.63,0-.83l2.35-1.57c.33-.22.78.02.78.42v3.13Zm3.14-7.47l1.57-2.35c.2-.3.63-.3.83,0l1.57,2.35c.22.33-.02.78-.42.78h-3.13c-.4,0-.64-.45-.42-.78Zm3.96,11.8l-1.57,2.35c-.2.3-.63.3-.83,0l-1.57-2.35c-.22-.33.02-.78.42-.78h3.13c.4,0,.64.45.42.78Zm-1.98-3.4c-1.38,0-2.5-1.12-2.5-2.5s1.12-2.5,2.5-2.5,2.5,1.12,2.5,2.5-1.12,2.5-2.5,2.5Zm8.25-2.08l-2.35,1.57c-.33.22-.78-.02-.78-.42v-3.13c0-.4.45-.64.78-.42l2.35,1.57c.3.2.3.63,0,.83Z"/></g><path d="m10.56,17.12c-.4,0-.64.45-.42.78l1.57,2.35c.2.3.63.3.83,0l1.57-2.35c.22-.33-.02-.78-.42-.78h-3.13Z"/><path d="M12.12 9.5A2.5 2.5 0 1 0 12.12 14.5 2.5 2.5 0 1 0 12.12 9.5z"/><path d="m10.56,6.88h3.13c.4,0,.64-.45.42-.78l-1.57-2.35c-.2-.3-.63-.3-.83,0l-1.57,2.35c-.22.33.02.78.42.78Z"/><path d="m6.22,13.98c.33.22.78-.02.78-.42v-3.13c0-.4-.45-.64-.78-.42l-2.35,1.57c-.3.2-.3.63,0,.83l2.35,1.57Z"/><path d="m18.03,13.98l2.35-1.57c.3-.2.3-.63,0-.83l-2.35-1.57c-.33-.22-.78.02-.78.42v3.13c0,.4.45.64.78.42Z"/></svg>