<svg xmlns="http://www.w3.org/2000/svg" width="24" height="24" viewBox="0 0 24 24"><g opacity="0.4"><path d="m13.92,6.03c-.2-.61-.78-1.03-1.42-1.03h-1c-.65,0-1.22.41-1.42,1.03l-3.5,10.5c-.26.79.16,1.64.95,1.9.78.26,1.64-.16,1.9-.95l.49-1.47h4.17l.49,1.47c.21.63.79,1.03,1.42,1.03.16,0,.32-.02.47-.08.79-.26,1.21-1.11.95-1.9l-3.5-10.5Zm-3.01,6.97l1.09-3.26,1.09,3.26h-2.17Z"/></g><path d="m21,21.5c0-.83-.67-1.5-1.5-1.5H4.5c-.83,0-1.5.67-1.5,1.5s.67,1.5,1.5,1.5h15c.83,0,1.5-.67,1.5-1.5Z"/><path d="m4.5,4h15c.83,0,1.5-.67,1.5-1.5s-.67-1.5-1.5-1.5H4.5c-.83,0-1.5.67-1.5,1.5s.67,1.5,1.5,1.5Z"/></svg>