<svg xmlns="http://www.w3.org/2000/svg" width="24" height="24" viewBox="0 0 24 24"><g opacity="0.4"><path d="m16.5,6h-1c-.83,0-1.5.67-1.5,1.5s.67,1.5,1.5,1.5h1c1.65,0,3,1.35,3,3s-1.35,3-3,3h-1c-.83,0-1.5.67-1.5,1.5s.67,1.5,1.5,1.5h1c3.31,0,6-2.69,6-6s-2.69-6-6-6Z"/><path d="m7.5,9h1c.83,0,1.5-.67,1.5-1.5s-.67-1.5-1.5-1.5h-1c-3.31,0-6,2.69-6,6s2.69,6,6,6h1c.83,0,1.5-.67,1.5-1.5s-.67-1.5-1.5-1.5h-1c-1.65,0-3-1.35-3-3s1.35-3,3-3Z"/></g><path d="m7,12.75h10c.41,0,.75-.34.75-.75s-.34-.75-.75-.75H7c-.41,0-.75.34-.75.75s.34.75.75.75Z"/></svg>