<svg xmlns="http://www.w3.org/2000/svg" width="24" height="24" viewBox="0 0 24 24"><g opacity="0.4"><path d="m20.98,12.22l-7.85,4.52c-.69.4-1.55.4-2.24,0l-7.85-4.52c-.36-.21-.82-.08-1.02.28s-.08.82.28,1.02l7.85,4.52c.58.33,1.22.5,1.87.5s1.29-.17,1.87-.5l7.85-4.52c.36-.21.48-.67.28-1.02s-.67-.48-1.02-.28Z"/><path d="m20.98,16.22l-7.85,4.52c-.69.4-1.55.4-2.24,0l-7.85-4.52c-.36-.21-.82-.08-1.02.28s-.08.82.28,1.02l7.85,4.52c.58.33,1.22.5,1.87.5s1.29-.17,1.87-.5l7.85-4.52c.36-.21.48-.67.28-1.02s-.67-.48-1.02-.28Z"/></g><path d="m20.76,5.84l-6.5-3.76c-1.39-.8-3.12-.8-4.51,0l-6.5,3.76c-.78.45-1.25,1.26-1.25,2.16s.47,1.71,1.25,2.16l6.5,3.76c.7.4,1.47.6,2.25.6s1.56-.2,2.25-.6l6.5-3.76c.78-.45,1.25-1.26,1.25-2.16s-.47-1.71-1.25-2.16Z"/></svg>