<svg xmlns="http://www.w3.org/2000/svg" width="24" height="24" viewBox="0 0 24 24"><g opacity="0.4"><rect x="3" y="8" width="18" height="15" rx="3.5" ry="3.5"/></g><path d="m14.34,1.47c-1.48-.62-3.19-.62-4.67,0-.71.3-1.36.74-1.91,1.29-.55.55-.98,1.19-1.28,1.9-.31.74-.47,1.53-.47,2.34v1h3v-1c0-.41.08-.8.24-1.17.15-.35.37-.68.64-.95.28-.28.6-.49.95-.64.74-.31,1.6-.31,2.34,0,.36.15.68.37.95.64.03.03.07.07.1.11.42.46,1.07.62,1.64.38l.13-.05c.91-.38,1.16-1.54.51-2.28-.08-.1-.17-.19-.26-.28-.55-.55-1.19-.98-1.91-1.29Z"/></svg>