<svg xmlns="http://www.w3.org/2000/svg" width="24" height="24" viewBox="0 0 24 24"><g opacity="0.4"><path d="m14.5,6h-5c-2.48,0-4.5,2.02-4.5,4.5v1.76c3.37.05,5.19.54,6.93,1.02,1.82.5,3.54.97,7.07.97v-3.75c0-2.48-2.02-4.5-4.5-4.5Z"/></g><path d="m18.25,1h-8.5c-.41,0-.75.34-.75.75s.34.75.75.75h1.5v1.25c-.96,0-1.75.79-1.75,1.75v.5h5v-.5c0-.96-.79-1.75-1.75-1.75v-1.25h5.5c.41,0,.75-.34.75-.75s-.34-.75-.75-.75Z"/><path d="m5,12.26v6.24c0,2.48,2.02,4.5,4.5,4.5h5c2.48,0,4.5-2.02,4.5-4.5v-4.25c-3.54,0-5.25-.47-7.07-.97-1.74-.48-3.56-.97-6.93-1.02Z"/></svg>