<svg xmlns="http://www.w3.org/2000/svg" width="24" height="24" viewBox="0 0 24 24"><g opacity="0.4"><path d="m12,6c-3.86,0-7,3.19-7,7.1,0,2.97,1.22,4.21,2.77,5.79l.16.16c.18.18.31.54.41.95h7.33c.09-.41.23-.77.41-.95l.12-.12c1.57-1.6,2.81-2.86,2.81-5.83,0-3.92-3.14-7.1-7-7.1Z"/></g><path d="m12,4.75c.41,0,.75-.34.75-.75V1.5c0-.41-.34-.75-.75-.75s-.75.34-.75.75v2.5c0,.41.34.75.75.75Z"/><path d="m3.17,6.38c-.35-.23-.81-.14-1.04.21-.23.34-.14.81.21,1.04l1.5,1c.13.09.27.13.42.13.24,0,.48-.12.62-.33.23-.34.14-.81-.21-1.04l-1.5-1Z"/><path d="m6.88,5.17c.14.22.38.33.62.33.14,0,.29-.04.42-.13.34-.23.44-.7.21-1.04l-1-1.5c-.23-.34-.69-.44-1.04-.21-.34.23-.44.7-.21,1.04l1,1.5Z"/><path d="m20.83,6.38l-1.5,1c-.34.23-.44.7-.21,1.04.14.22.38.33.62.33.14,0,.29-.04.42-.13l1.5-1c.34-.23.44-.7.21-1.04-.23-.34-.69-.44-1.04-.21Z"/><path d="m16.5,5.5c.24,0,.48-.12.62-.33l1-1.5c.23-.34.14-.81-.21-1.04-.35-.23-.81-.14-1.04.21l-1,1.5c-.23.34-.14.81.21,1.04.13.09.27.13.42.13Z"/><path d="M7 20H17V23H7z"/></svg>