<svg xmlns="http://www.w3.org/2000/svg" width="24" height="24" viewBox="0 0 24 24"><g opacity="0.4"><path d="m17.5,2H6.5c-2.48,0-4.5,2.02-4.5,4.5v11c0,2.48,2.02,4.5,4.5,4.5h11c2.48,0,4.5-2.02,4.5-4.5V6.5c0-2.48-2.02-4.5-4.5-4.5Zm-.58,8.58l-2.17,3.25c-.46.69-1.39.88-2.08.42l-1.75-1.17-1.34,2c-.46.69-1.39.88-2.08.42s-.88-1.39-.42-2.08l2.17-3.25c.46-.69,1.39-.88,2.08-.42l1.75,1.17,1.34-2c.46-.69,1.39-.88,2.08-.42s.88,1.39.42,2.08Z"/></g><path d="m7.5,15.5c.69.46,1.62.27,2.08-.42l1.34-2,1.75,1.17c.69.46,1.62.27,2.08-.42l2.17-3.25c.46-.69.27-1.62-.42-2.08s-1.62-.27-2.08.42l-1.34,2-1.75-1.17c-.69-.46-1.62-.27-2.08.42l-2.17,3.25c-.46.69-.27,1.62.42,2.08Z"/></svg>