<svg xmlns="http://www.w3.org/2000/svg" width="24" height="24" viewBox="0 0 24 24"><g opacity="0.4"><path d="m6.5,23h11c1.93,0,3.5-1.57,3.5-3.5v-8c0-1.93-1.57-3.5-3.5-3.5H6.5c-1.93,0-3.5,1.57-3.5,3.5v8c0,1.93,1.57,3.5,3.5,3.5Zm5.5-9c1.1,0,2,.9,2,2,0,.84-.52,1.55-1.25,1.85v1.4c0,.41-.34.75-.75.75s-.75-.34-.75-.75v-1.4c-.73-.3-1.25-1.01-1.25-1.85,0-1.1.9-2,2-2Z"/></g><path d="m9,7c0-1.65,1.35-3,3-3s3,1.35,3,3v1h3v-1c0-3.31-2.69-6-6-6s-6,2.69-6,6v1h3v-1Z"/><path d="m12,20c.41,0,.75-.34.75-.75v-1.4c.73-.3,1.25-1.01,1.25-1.85,0-1.1-.9-2-2-2s-2,.9-2,2c0,.84.52,1.55,1.25,1.85v1.4c0,.41.34.75.75.75Z"/></svg>