<svg xmlns="http://www.w3.org/2000/svg" width="24" height="24" viewBox="0 0 24 24"><g opacity="0.4"><path d="M7 10.7 10 9.95 10 8.05 7 8.8 7 10.7z"/><path d="m10,3.43c0-.79-.64-1.43-1.43-1.43h-.13c-.79,0-1.43.64-1.43,1.43v2.27l3-.75v-1.52Z"/><path d="m18.43,13h-.13c-.71,0-1.27.52-1.42,1.22-.63,3.03-3.67,4.4-6.88,4.71v-5.88l-3,.75v6.7c0,.83.68,1.5,1.51,1.5,6.22,0,10.48-2.81,11.33-7.29.17-.89-.51-1.71-1.41-1.71Z"/></g><path class="st0" d="M5,6.2l9.2-2.3c0.8-0.2,1.5,0.3,1.7,1l0,0.1c0.2,0.8-0.3,1.5-1,1.7l-3.3,0.8L5.8,9.1C5,9.3,4.2,8.8,4,8.1l0-0.1
	C3.8,7.2,4.3,6.4,5,6.2z"/><path class="st0" d="M5,11.2l9.2-2.3c0.8-0.2,1.5,0.3,1.7,1l0,0.1c0.2,0.8-0.3,1.5-1,1.7l-3.1,0.8l-6.1,1.5c-0.8,0.2-1.5-0.3-1.7-1
	l0-0.1C3.8,12.2,4.3,11.4,5,11.2z"/></svg>