<svg xmlns="http://www.w3.org/2000/svg" width="24" height="24" viewBox="0 0 24 24"><g opacity="0.4"><path d="m12,1C7.04,1,3,4.99,3,9.88c-.03,5.58,4.95,10.28,7.09,12.04.55.46,1.23.68,1.91.68s1.35-.23,1.91-.68c2.14-1.76,7.12-6.46,7.09-12.03,0-4.9-4.04-8.89-9-8.89Zm3.71,10.59c.59.59.59,1.54,0,2.12-.59.59-1.54.59-2.12,0l-1.59-1.59-1.59,1.59c-.59.59-1.54.59-2.12,0-.59-.59-.59-1.54,0-2.12l1.59-1.59-1.59-1.59c-.59-.59-.59-1.54,0-2.12.59-.59,1.54-.59,2.12,0l1.59,1.59,1.59-1.59c.59-.59,1.54-.59,2.12,0,.59.59.59,1.54,0,2.12l-1.59,1.59,1.59,1.59Z"/></g><path d="m8.29,13.71c.59.59,1.54.59,2.12,0l1.59-1.59,1.59,1.59c.59.59,1.54.59,2.12,0,.59-.59.59-1.54,0-2.12l-1.59-1.59,1.59-1.59c.59-.59.59-1.54,0-2.12-.59-.59-1.54-.59-2.12,0l-1.59,1.59-1.59-1.59c-.59-.59-1.54-.59-2.12,0-.59.59-.59,1.54,0,2.12l1.59,1.59-1.59,1.59c-.59.59-.59,1.54,0,2.12Z"/></svg>