<svg xmlns="http://www.w3.org/2000/svg" width="24" height="24" viewBox="0 0 24 24"><g opacity="0.4"><path d="m14.82,6h6.68c.83,0,1.5-.67,1.5-1.5s-.67-1.5-1.5-1.5h-7.28c-.55-.61-1.34-1-2.22-1s-1.67.39-2.22,1H2.5c-.83,0-1.5.67-1.5,1.5s.67,1.5,1.5,1.5h6.68c.24.67.71,1.23,1.32,1.58v11.42H2.5c-.83,0-1.5.67-1.5,1.5s.67,1.5,1.5,1.5h19c.83,0,1.5-.67,1.5-1.5s-.67-1.5-1.5-1.5h-8V7.58c.61-.35,1.08-.91,1.32-1.58Zm-2.82.5c-.83,0-1.5-.67-1.5-1.5s.67-1.5,1.5-1.5,1.5.67,1.5,1.5-.67,1.5-1.5,1.5Z"/></g><path d="m5,17c2.21,0,4-1.79,4-4,0-.09-.02-.19-.05-.27l-2.65-6.73h-2.6l-2.65,6.73c-.03.09-.05.18-.05.27,0,2.21,1.79,4,4,4Zm0-10.2l2.44,6.2H2.56l2.44-6.2Z"/><path d="m20.3,6h-2.6l-2.65,6.73c-.03.09-.05.18-.05.27,0,2.21,1.79,4,4,4s4-1.79,4-4c0-.09-.02-.19-.05-.27l-2.65-6.73Zm-3.74,7l2.44-6.2,2.44,6.2h-4.89Z"/></svg>