<svg xmlns="http://www.w3.org/2000/svg" width="24" height="24" viewBox="0 0 24 24"><g opacity="0.4"><path d="m13.5,10.5H4.5c-.83,0-1.5.67-1.5,1.5s.67,1.5,1.5,1.5h9c.83,0,1.5-.67,1.5-1.5s-.67-1.5-1.5-1.5Z"/><path d="m19.5,5H4.5c-.83,0-1.5.67-1.5,1.5s.67,1.5,1.5,1.5h15c.83,0,1.5-.67,1.5-1.5s-.67-1.5-1.5-1.5Z"/><path d="m10.5,16h-6c-.83,0-1.5.67-1.5,1.5s.67,1.5,1.5,1.5h6c.83,0,1.5-.67,1.5-1.5s-.67-1.5-1.5-1.5Z"/></g><path d="m21.5,16h-1.5v-1.5c0-.83-.67-1.5-1.5-1.5s-1.5.67-1.5,1.5v1.5h-1.5c-.83,0-1.5.67-1.5,1.5s.67,1.5,1.5,1.5h1.5v1.5c0,.83.67,1.5,1.5,1.5s1.5-.67,1.5-1.5v-1.5h1.5c.83,0,1.5-.67,1.5-1.5s-.67-1.5-1.5-1.5Z"/></svg>