<svg xmlns="http://www.w3.org/2000/svg" width="24" height="24" viewBox="0 0 24 24"><g opacity="0.4"><path d="m7.5,4h-1c-3.03,0-5.5,2.47-5.5,5.5v8.61c0,1.04.46,2.02,1.25,2.68.64.53,1.43.82,2.24.82.21,0,.41-.02.62-.05l2.83-.5c1.19-.22,2.06-1.25,2.06-2.46v-5.78l-1.94,1.94c-.29.29-.77.29-1.06,0-.29-.29-.29-.77,0-1.06l2.19-2.19h-2.44c-.41,0-.75-.34-.75-.75s.34-.75.75-.75h3.25v-3.5c0-1.38-1.12-2.5-2.5-2.5Z"/><path d="m17.5,4h-1c-1.38,0-2.5,1.12-2.5,2.5v3.5h3.25c.41,0,.75.34.75.75s-.34.75-.75.75h-2.44l2.19,2.19c.29.29.29.77,0,1.06-.29.29-.77.29-1.06,0l-1.94-1.94v5.78c0,1.21.87,2.25,2.06,2.46l2.82.5c.21.04.41.05.62.05.81,0,1.61-.28,2.24-.82.8-.67,1.25-1.65,1.25-2.68v-8.61c0-3.03-2.47-5.5-5.5-5.5Z"/></g><path d="m17,14.75c.29-.29.29-.77,0-1.06l-2.19-2.19h2.44c.41,0,.75-.34.75-.75s-.34-.75-.75-.75h-4.5V1.75c0-.41-.34-.75-.75-.75s-.75.34-.75.75v8.25h-4.5c-.41,0-.75.34-.75.75s.34.75.75.75h2.44l-2.19,2.19c-.29.29-.29.77,0,1.06.29.29.77.29,1.06,0l3.25-3.25h1.38l3.25,3.25c.29.29.77.29,1.06,0Z"/></svg>