<svg xmlns="http://www.w3.org/2000/svg" width="24" height="24" viewBox="0 0 24 24"><g opacity="0.4"><path d="m13.5,10.5H3.5c-.83,0-1.5.67-1.5,1.5s.67,1.5,1.5,1.5h10c.83,0,1.5-.67,1.5-1.5s-.67-1.5-1.5-1.5Z"/><path d="m13.5,5H3.5c-.83,0-1.5.67-1.5,1.5s.67,1.5,1.5,1.5h10c.83,0,1.5-.67,1.5-1.5s-.67-1.5-1.5-1.5Z"/><path d="m10.5,16H3.5c-.83,0-1.5.67-1.5,1.5s.67,1.5,1.5,1.5h7c.83,0,1.5-.67,1.5-1.5s-.67-1.5-1.5-1.5Z"/></g><path d="m20.5,5h-1.25c-1.24,0-2.25,1.01-2.25,2.25v7.75c-1.66,0-3,1.34-3,3s1.34,3,3,3,3-1.34,3-3v-10h.5c.83,0,1.5-.67,1.5-1.5s-.67-1.5-1.5-1.5Z"/></svg>