<svg xmlns="http://www.w3.org/2000/svg" width="24" height="24" viewBox="0 0 24 24"><g opacity="0.4"><path d="m20.17,1.15c-3.17-.32-11.04-.57-15.66,4.06-1.12,1.12-2.03,2.5-2.7,4.12-1.24,2.94-.99,6.1.55,8.71.4.68,1.37.67,1.75-.02,1.84-3.4,4.66-6.23,8.03-8.1.26-.14.5.21.28.41-3.09,2.87-5.27,6.78-5.79,10.94-.05.43.19.86.59,1.02,1.14.46,2.35.71,3.58.71,1.29,0,2.61-.26,3.88-.8,1.62-.68,3-1.59,4.12-2.7,4.63-4.62,4.38-12.49,4.06-15.66-.14-1.41-1.27-2.53-2.67-2.68Z"/></g><path d="m14.75,22.16s-.05.03-.08.04c0,0,0,0,0,0,.03-.01.05-.02.08-.04Z"/><path d="m2.35,18.04s0,0,0,0c0,0,0-.01-.01-.02,0,0,0,0,0,.01Z"/><path d="m10.79,22.99q1.25,0,0,0c-1.23,0-2.44-.24-3.58-.71-.4-.16-.64-.59-.59-1.02.52-4.16,2.7-8.07,5.79-10.94.22-.2-.02-.55-.28-.41-3.37,1.87-6.19,4.71-8.03,8.1-.37.69-1.34.7-1.74.03.42.73.93,1.42,1.55,2.04,1.9,1.9,4.35,2.9,6.88,2.9Z"/><path d="m2.35,18.03c-.18-.3-.34-.62-.48-.93.14.32.31.63.48.93Z"/></svg>