<svg xmlns="http://www.w3.org/2000/svg" width="24" height="24" viewBox="0 0 24 24"><g opacity="0.4"><path d="m20.5,18H3.5c-1.38,0-2.5,1.12-2.5,2.5s1.12,2.5,2.5,2.5h17c1.38,0,2.5-1.12,2.5-2.5s-1.12-2.5-2.5-2.5Z"/><path d="m21.62,5.4L13.07,1.35c-.68-.32-1.46-.32-2.14,0L2.38,5.4c-.84.4-1.38,1.26-1.38,2.19,0,1.33,1.08,2.42,2.42,2.42h17.16c1.33,0,2.42-1.08,2.42-2.42,0-.93-.54-1.79-1.38-2.19Z"/></g><path d="M10 10H14V18H10z"/><path d="m7,18v-8h-3.58c-.14,0-.28-.02-.42-.04v8.09c.16-.03.33-.05.5-.05h3.5Z"/><path d="m21,18.05v-8.09c-.14.02-.28.04-.42.04h-3.58v8h3.5c.17,0,.34.02.5.05Z"/></svg>