<svg xmlns="http://www.w3.org/2000/svg" width="24" height="24" viewBox="0 0 24 24"><g opacity="0.4"><rect x="5" y="8" width="18" height="15" rx="3.5" ry="3.5"/></g><path d="m2.01,5.31l.13.05c.57.24,1.23.08,1.64-.38.03-.04.07-.07.1-.11.28-.28.6-.49.95-.64.74-.31,1.6-.31,2.34,0,.36.15.68.37.95.64.28.28.49.6.64.95.16.37.24.76.24,1.17v1h3v-1c0-.81-.16-1.59-.47-2.34-.3-.71-.73-1.36-1.28-1.9-.55-.55-1.19-.99-1.91-1.29-1.48-.62-3.19-.62-4.67,0-.71.3-1.36.73-1.91,1.29-.09.09-.18.18-.26.28-.65.74-.39,1.89.51,2.28Z"/></svg>