<svg xmlns="http://www.w3.org/2000/svg" width="24" height="24" viewBox="0 0 24 24"><g opacity="0.4"><path d="m3.5,8h9c.83,0,1.5.67,1.5,1.5s-.67,1.5-1.5,1.5H3.5c-.83,0-1.5-.67-1.5-1.5s.67-1.5,1.5-1.5Z"/><path d="m3.5,3h17c.83,0,1.5.67,1.5,1.5,0,.83-.67,1.5-1.5,1.5H3.5c-.83,0-1.5-.67-1.5-1.5s.67-1.5,1.5-1.5Z"/><path d="m3.5,13h9c.83,0,1.5.67,1.5,1.5,0,.83-.67,1.5-1.5,1.5H3.5c-.83,0-1.5-.67-1.5-1.5s.67-1.5,1.5-1.5Z"/><path d="m3.5,18h17c.83,0,1.5.67,1.5,1.5,0,.83-.67,1.5-1.5,1.5H3.5c-.83,0-1.5-.67-1.5-1.5s.67-1.5,1.5-1.5Z"/></g><path d="m20.81,16.15l-4.11-2.93c-.84-.6-.84-1.84,0-2.44l4.11-2.93c.5-.35,1.19,0,1.19.61v7.09c0,.61-.69.96-1.19.61Z"/></svg>