<svg xmlns="http://www.w3.org/2000/svg" width="24" height="24" viewBox="0 0 24 24"><g opacity="0.4"><path d="m1,9v5c0,1.65,1.35,3,3,3h.63c.46,0,.91.03,1.37.08V5.81c-.66.11-1.33.19-2,.19-1.65,0-3,1.35-3,3Z"/><path d="m16.89,1.84c-.69-.41-1.53-.42-2.23-.03l-4.83,2.68c-.27.15-.55.27-.83.39v12.96c.17.07.34.12.51.2l5.33,2.37c.29.13.61.2.92.2.43,0,.85-.12,1.22-.36.64-.42,1.02-1.12,1.02-1.89V3.77c0-.81-.41-1.53-1.11-1.94Z"/></g><path d="m18,6v10c2.76,0,5-2.24,5-5s-2.24-5-5-5Z"/><path d="m9,8.13v-3.25c-.96.44-1.96.75-3,.93v15.69c0,.83.67,1.5,1.5,1.5s1.5-.67,1.5-1.5v-13.37Z"/></svg>