<svg xmlns="http://www.w3.org/2000/svg" width="24" height="24" viewBox="0 0 24 24"><g opacity="0.4"><path d="m2.3,19.6l4.58,2.5c.35.19.73.28,1.12.3V4.29l-3.3-1.8c-.78-.43-1.71-.41-2.47.04-.77.46-1.22,1.26-1.22,2.15v12.72c0,.92.5,1.76,1.3,2.19Z"/><path d="m21.7,4.4l-4.58-2.5c-.35-.19-.73-.28-1.12-.3v18.1l3.3,1.8c.78.43,1.71.41,2.47-.04s1.22-1.26,1.22-2.15V6.59c0-.92-.5-1.76-1.3-2.19Z"/></g><path d="m16,1.61c-.32,0-.65.03-.96.15l-6.93,2.6-.12-.06v18.1s.05,0,.08,0c.3,0,.59-.05.88-.16l6.93-2.6.12.06V1.61Z"/></svg>