<svg xmlns="http://www.w3.org/2000/svg" width="24" height="24" viewBox="0 0 24 24"><g opacity="0.4"><path d="m19.34,3.81c-2.33-2.08-5.46-3.08-8.58-2.74C5.76,1.62,1.7,5.64,1.08,10.62c-.33,2.69.32,5.37,1.84,7.58l-1.13,1.67c-.42.61-.46,1.4-.12,2.06.35.66,1.02,1.07,1.77,1.07h8.56c6.07,0,11-4.93,11-11,0-3.12-1.33-6.11-3.66-8.19Zm-11.34,3.19c1.1,0,2,.9,2,2s-.9,2-2,2-2-.9-2-2,.9-2,2-2Zm9.12,9H7.07c-.42,0-.66-.49-.38-.82l1.79-2.15c.28-.34.79-.36,1.11-.05l.65.65c.31.31.82.29,1.1-.04l2.4-2.8c.33-.39.95-.34,1.21.1l2.61,4.35c.2.33-.04.76-.43.76Z"/></g><path d="m8.47,13.03l-1.79,2.15c-.27.33-.04.82.38.82h10.05c.39,0,.63-.42.43-.76l-2.61-4.35c-.26-.44-.88-.49-1.21-.1l-2.4,2.8c-.28.33-.79.35-1.1.04l-.65-.65c-.31-.31-.82-.29-1.11.05Z"/><path d="M8 7A2 2 0 1 0 8 11 2 2 0 1 0 8 7z"/></svg>