<svg xmlns="http://www.w3.org/2000/svg" width="24" height="24" viewBox="0 0 24 24"><g opacity="0.4"><path d="m16,4.88v-.97c-.16.06-.32.09-.5.09h-7c-.18,0-.34-.04-.5-.09v.97c0,.95-.39,1.89-1.06,2.56-1.25,1.25-1.94,2.91-1.94,4.68v6.38c0,2.48,2.02,4.5,4.5,4.5h5c2.48,0,4.5-2.02,4.5-4.5v-6.38c0-1.77-.69-3.43-1.94-4.68-.67-.67-1.06-1.61-1.06-2.56Zm1.5,7.24v6.38c0,.17-.02.34-.05.5h-4.95c-.83,0-1.5-.67-1.5-1.5v-4c0-.83.67-1.5,1.5-1.5h4.99s.01.08.01.12Z"/></g><path d="m8.5,4h7c.83,0,1.5-.67,1.5-1.5s-.67-1.5-1.5-1.5h-7c-.83,0-1.5.67-1.5,1.5s.67,1.5,1.5,1.5Z"/><path d="m11,13.5v4c0,.83.67,1.5,1.5,1.5h4.95c.03-.16.05-.33.05-.5v-6.38s-.01-.08-.01-.12h-4.99c-.83,0-1.5.67-1.5,1.5Z"/></svg>