<svg xmlns="http://www.w3.org/2000/svg" width="24" height="24" viewBox="0 0 24 24"><g opacity="0.4"><path d="m3.5,8h1.5v1.5c0,.83.67,1.5,1.5,1.5s1.5-.67,1.5-1.5v-1.5h1.5c.83,0,1.5-.67,1.5-1.5s-.67-1.5-1.5-1.5h-1.5v-1.5c0-.83-.67-1.5-1.5-1.5s-1.5.67-1.5,1.5v1.5h-1.5c-.83,0-1.5.67-1.5,1.5s.67,1.5,1.5,1.5Z"/></g><path d="m18.4,16h-3.9c-.83,0-1.5.67-1.5,1.5s.67,1.5,1.5,1.5h6c.83,0,1.5-.67,1.5-1.5s-.67-1.5-1.5-1.5h-2.1Z"/><path d="m20.06,3.94c-.59-.59-1.54-.59-2.12,0L3.94,17.94c-.59.59-.59,1.54,0,2.12.29.29.68.44,1.06.44s.77-.15,1.06-.44l14-14c.59-.59.59-1.54,0-2.12Z"/></svg>