<svg xmlns="http://www.w3.org/2000/svg" width="24" height="24" viewBox="0 0 24 24"><g opacity="0.4"><path d="m12,1C5.93,1,1,5.93,1,12s4.93,11,11,11,11-4.93,11-11S18.07,1,12,1Zm-6,9.25c0-.41.34-.75.75-.75h2.5c.41,0,.75.34.75.75s-.34.75-.75.75h-2.5c-.41,0-.75-.34-.75-.75Zm9.25,6.25h-6.5c-.41,0-.75-.34-.75-.75s.34-.75.75-.75h6.5c.41,0,.75.34.75.75s-.34.75-.75.75Zm2-5.5h-2.5c-.41,0-.75-.34-.75-.75s.34-.75.75-.75h2.5c.41,0,.75.34.75.75s-.34.75-.75.75Z"/></g><path d="m9.25,9.5h-2.5c-.41,0-.75.34-.75.75s.34.75.75.75h2.5c.41,0,.75-.34.75-.75s-.34-.75-.75-.75Z"/><path d="m17.25,11c.41,0,.75-.34.75-.75s-.34-.75-.75-.75h-2.5c-.41,0-.75.34-.75.75s.34.75.75.75h2.5Z"/><path d="m8,15.75c0,.41.34.75.75.75h6.5c.41,0,.75-.34.75-.75s-.34-.75-.75-.75h-6.5c-.41,0-.75.34-.75.75Z"/></svg>