<svg xmlns="http://www.w3.org/2000/svg" width="24" height="24" viewBox="0 0 24 24"><g opacity="0.4"><path d="m18.5,2H5.5C3.02,2,1,4.02,1,6.5v9c0,2.48,2.02,4.5,4.5,4.5h.5v1.95c0,.78.44,1.47,1.14,1.81.28.13.57.2.86.2.45,0,.89-.15,1.26-.45l4.27-3.49h4.96c2.48,0,4.5-2.02,4.5-4.5V6.5c0-2.48-2.02-4.5-4.5-4.5Zm-2.73,9.26l-3.17,3.12c-.33.32-.85.32-1.18,0l-3.17-3.12s-.04-.04-.07-.07c-.92-.95-.89-2.47.07-3.39.97-.96,2.54-.96,3.51,0l.25.25.25-.25c.97-.96,2.54-.96,3.51,0,.02.02.04.04.07.07.92.95.89,2.47-.07,3.39Z"/></g><path d="m11.41,14.38c.33.32.85.32,1.18,0l3.17-3.12c.95-.92.98-2.43.07-3.39-.02-.02-.04-.04-.07-.07-.97-.96-2.54-.96-3.51,0l-.25.25-.25-.25c-.97-.96-2.54-.96-3.51,0-.95.92-.98,2.43-.07,3.39.02.02.04.04.07.07l3.17,3.12Z"/></svg>