<svg xmlns="http://www.w3.org/2000/svg" width="24" height="24" viewBox="0 0 24 24"><g opacity="0.4"><path d="m18.5,2H5.5C3.02,2,1,4.02,1,6.5v9c0,2.48,2.02,4.5,4.5,4.5h.5v1.95c0,.78.44,1.47,1.14,1.81.28.13.57.2.86.2.45,0,.89-.15,1.26-.45l4.27-3.49h4.96c2.48,0,4.5-2.02,4.5-4.5V6.5c0-2.48-2.02-4.5-4.5-4.5Zm-6.5,14c-.83,0-1.5-.67-1.5-1.5s.67-1.5,1.5-1.5,1.5.67,1.5,1.5-.67,1.5-1.5,1.5Zm1.5-6c0,.83-.67,1.5-1.5,1.5s-1.5-.67-1.5-1.5v-3c0-.83.67-1.5,1.5-1.5s1.5.67,1.5,1.5v3Z"/></g><path d="m12,11.5c.83,0,1.5-.67,1.5-1.5v-3c0-.83-.67-1.5-1.5-1.5s-1.5.67-1.5,1.5v3c0,.83.67,1.5,1.5,1.5Z"/><path d="M12 13A1.5 1.5 0 1 0 12 16 1.5 1.5 0 1 0 12 13z"/></svg>