<svg xmlns="http://www.w3.org/2000/svg" width="24" height="24" viewBox="0 0 24 24"><g opacity="0.4"><path d="m5,4v7.14c1.13-2.04,3.13-3.54,5.5-3.99V1h-2.5c-1.66,0-3,1.34-3,3Z"/><path d="m19,11.14v-7.14c0-1.66-1.34-3-3-3h-2.5v6.15c2.37.45,4.37,1.95,5.5,3.99Z"/><path d="m13.34,13.11l-1.05-2.12c-.12-.24-.47-.24-.59,0l-1.05,2.12c-.05.1-.14.16-.25.18l-2.34.34c-.27.04-.38.37-.18.56l1.7,1.65c.08.08.11.18.09.29l-.4,2.33c-.05.27.24.47.48.35l2.1-1.1c.1-.05.21-.05.3,0l2.1,1.1c.24.13.52-.08.48-.35l-.4-2.33c-.02-.11.02-.21.09-.29l1.7-1.65c.19-.19.09-.52-.18-.56l-2.34-.34c-.11-.02-.2-.08-.25-.18Z"/></g><path d="m13.5,7.15V1h-3v6.15c-3.7.7-6.5,3.96-6.5,7.85,0,4.41,3.59,8,8,8s8-3.59,8-8c0-3.9-2.8-7.15-6.5-7.85Zm2.61,7.04l-1.7,1.65c-.08.08-.11.18-.09.29l.4,2.33c.05.27-.24.47-.48.35l-2.1-1.1c-.1-.05-.21-.05-.3,0l-2.1,1.1c-.24.13-.52-.08-.48-.35l.4-2.33c.02-.11-.02-.21-.09-.29l-1.7-1.65c-.19-.19-.09-.52.18-.56l2.34-.34c.11-.02.2-.08.25-.18l1.05-2.12c.12-.24.47-.24.59,0l1.05,2.12c.05.1.14.16.25.18l2.34.34c.27.04.38.37.18.56Z"/></svg>