<svg xmlns="http://www.w3.org/2000/svg" width="24" height="24" viewBox="0 0 24 24"><g opacity="0.4"><path d="m1,21c0,1.1.9,2,2,2h1v-4c0-2,2-3,2-3,0,0,2,1,2,3v4h3v-4c0-2,2-3,2-3,0,0,2,1,2,3v4h3v-10H1v8Z"/><path d="m1,10v2h17v-4H3c-1.1,0-2,.9-2,2Z"/></g><path d="m18,12H1v1h17v10h3c1.1,0,2-.9,2-2V6h-5v6Z"/><path d="m20.5,1c-1.38,0-2.5,1.12-2.5,2.5v1.5h5v-1.5c0-1.38-1.12-2.5-2.5-2.5Z"/><path d="m6,16s-2,1-2,3v4h4v-4c0-2-2-3-2-3Z"/><path d="m13,16s-2,1-2,3v4h4v-4c0-2-2-3-2-3Z"/><path d="m13.42,3.22l-3.12-1.99c-.49-.31-1.12-.31-1.61,0l-3.12,1.99c-1.72,1.1-2.65,2.93-2.55,4.78h12.95c.09-1.85-.83-3.68-2.55-4.78Z"/></svg>