<svg xmlns="http://www.w3.org/2000/svg" width="24" height="24" viewBox="0 0 24 24"><g opacity="0.4"><path d="m14.5,8.25c0-.41.34-.75.75-.75h3.72c-.26-3.63-3.28-6.5-6.97-6.5s-6.72,2.87-6.97,6.5h6.22c.41,0,.75.34.75.75s-.34.75-.75.75h-6.25v2.5h6.25c.41,0,.75.34.75.75s-.34.75-.75.75h-6.25c0,3.86,3.14,7,7,7s7-3.14,7-7h-3.75c-.41,0-.75-.34-.75-.75s.34-.75.75-.75h3.75v-2.5h-3.75c-.41,0-.75-.34-.75-.75Z"/></g><path d="m12,8.25c0-.41-.34-.75-.75-.75h-6.22c-.01.17-.03.33-.03.5v1h6.25c.41,0,.75-.34.75-.75Z"/><path d="m12,12.25c0-.41-.34-.75-.75-.75h-6.25v1.5h6.25c.41,0,.75-.34.75-.75Z"/><path d="m15.25,9h3.75v-1c0-.17-.01-.33-.03-.5h-3.72c-.41,0-.75.34-.75.75s.34.75.75.75Z"/><path d="m15.25,13h3.75v-1.5h-3.75c-.41,0-.75.34-.75.75s.34.75.75.75Z"/><path d="m21.25,12.25c-.41,0-.75.34-.75.75,0,4.69-3.81,8.5-8.5,8.5S3.5,17.69,3.5,13c0-.41-.34-.75-.75-.75s-.75.34-.75.75c0,5.51,4.49,10,10,10s10-4.49,10-10c0-.41-.34-.75-.75-.75Z"/></svg>