<svg xmlns="http://www.w3.org/2000/svg" width="24" height="24" viewBox="0 0 24 24"><g opacity="0.4"><path d="m20.5,4H3.5c-.83,0-1.5.67-1.5,1.5s.67,1.5,1.5,1.5h17c.83,0,1.5-.67,1.5-1.5s-.67-1.5-1.5-1.5Z"/><path d="m7.5,10.5H3.5c-.83,0-1.5.67-1.5,1.5s.67,1.5,1.5,1.5h4c.83,0,1.5-.67,1.5-1.5s-.67-1.5-1.5-1.5Z"/><path d="m7.5,17H3.5c-.83,0-1.5.67-1.5,1.5s.67,1.5,1.5,1.5h4c.83,0,1.5-.67,1.5-1.5s-.67-1.5-1.5-1.5Z"/></g><path d="m20.24,16.62c.47-.76.76-1.66.76-2.62,0-2.76-2.24-5-5-5s-5,2.24-5,5,2.24,5,5,5c.7,0,1.37-.15,1.98-.41,0,0,.01.02.02.03l1.88,1.88c.59.59,1.54.59,2.12,0,.59-.59.59-1.54,0-2.12l-1.76-1.76Z"/></svg>