<svg xmlns="http://www.w3.org/2000/svg" width="24" height="24" viewBox="0 0 24 24"><g opacity="0.4"><path d="m8.67,22.84l3.33-1.67,3.33,1.67c.21.11.44.16.67.16.27,0,.55-.08.79-.22.44-.27.71-.76.71-1.28v-3.68c-.82.74-1.89,1.18-3.02,1.18h-4.96c-1.13,0-2.2-.44-3.02-1.18v3.68c0,.52.27,1,.71,1.28.44.27.99.3,1.46.07Z"/></g><path d="m18.39,3.27c-.8-1.4-2.3-2.27-3.91-2.27h-4.96c-1.61,0-3.11.87-3.91,2.27l-2.57,4.5c-.78,1.38-.78,3.08,0,4.46l2.57,4.5c.8,1.4,2.3,2.27,3.91,2.27h4.96c1.61,0,3.11-.87,3.91-2.27l2.57-4.5c.78-1.38.78-3.08,0-4.46l-2.57-4.5Z"/></svg>