<svg xmlns="http://www.w3.org/2000/svg" width="24" height="24" viewBox="0 0 24 24"><g opacity="0.4"><path d="m5.5,20h.5v1.94c0,.78.44,1.47,1.14,1.81.28.13.57.2.86.2.45,0,.89-.15,1.26-.45l4.27-3.49h4.96c2.48,0,4.5-2.02,4.5-4.5V6.5c0-2.48-2.02-4.5-4.5-4.5H5.5C3.02,2,1,4.02,1,6.5v9c0,2.48,2.02,4.5,4.5,4.5Zm2.25-10.5h2.75v-2.75c0-.83.67-1.5,1.5-1.5s1.5.67,1.5,1.5v2.75h2.75c.83,0,1.5.67,1.5,1.5s-.67,1.5-1.5,1.5h-2.75v2.75c0,.83-.67,1.5-1.5,1.5s-1.5-.67-1.5-1.5v-2.75h-2.75c-.83,0-1.5-.67-1.5-1.5s.67-1.5,1.5-1.5Z"/></g><path d="m12,16.75c.83,0,1.5-.67,1.5-1.5v-2.75h2.75c.83,0,1.5-.67,1.5-1.5s-.67-1.5-1.5-1.5h-2.75v-2.75c0-.83-.67-1.5-1.5-1.5s-1.5.67-1.5,1.5v2.75h-2.75c-.83,0-1.5.67-1.5,1.5s.67,1.5,1.5,1.5h2.75v2.75c0,.83.67,1.5,1.5,1.5Z"/></svg>