<svg xmlns="http://www.w3.org/2000/svg" width="24" height="24" viewBox="0 0 24 24"><g opacity="0.4"><path d="m18.5,2H5.5C3.02,2,1,4.02,1,6.5v9c0,2.48,2.02,4.5,4.5,4.5h.5v1.94c0,.78.44,1.47,1.14,1.81.28.13.57.2.86.2.45,0,.89-.15,1.26-.45l4.27-3.49h4.96c2.48,0,4.5-2.02,4.5-4.5V6.5c0-2.48-2.02-4.5-4.5-4.5ZM5,6.97c0-1.1.9-2,2-2s2,.9,2,2-.9,2-2,2-2-.9-2-2Zm13,9H6c-.41,0-.65-.47-.4-.8l2.34-3.12c.29-.38.86-.4,1.17-.04l.97,1.13c.21.25.6.23.79-.04l2.29-3.28c.29-.42.91-.43,1.22-.02l4.03,5.37c.25.33.01.8-.4.8Z"/></g><path d="M7 4.97A2 2 0 1 0 7 8.969999999999999 2 2 0 1 0 7 4.97z"/><path d="m5.6,15.17c-.25.33-.01.8.4.8h12c.41,0,.65-.47.4-.8l-4.03-5.37c-.31-.41-.92-.4-1.22.02l-2.29,3.28c-.19.27-.58.29-.79.04l-.97-1.13c-.31-.36-.88-.35-1.17.04l-2.34,3.12Z"/></svg>