<svg xmlns="http://www.w3.org/2000/svg" width="24" height="24" viewBox="0 0 24 24"><g opacity="0.4"><path d="m19.34,3.81c-2.33-2.08-5.46-3.08-8.58-2.74C5.76,1.62,1.7,5.64,1.08,10.62c-.33,2.69.32,5.37,1.84,7.58l-1.13,1.67c-.42.61-.46,1.4-.12,2.06.35.66,1.02,1.07,1.77,1.07h8.56c6.07,0,11-4.93,11-11,0-3.12-1.33-6.11-3.66-8.19Zm-7.34,14.19c-.83,0-1.5-.67-1.5-1.5s.67-1.5,1.5-1.5,1.5.67,1.5,1.5-.67,1.5-1.5,1.5Zm3.69-6.69c-.2.48-.49.91-.86,1.27-.36.36-.79.65-1.27.85-.5.21-1.02.32-1.56.32-.83,0-1.5-.67-1.5-1.5s.67-1.5,1.5-1.5c.13,0,.27-.03.39-.08.12-.05.22-.12.32-.21s.17-.2.22-.32c.05-.12.08-.25.08-.39s-.03-.27-.08-.39c-.05-.12-.12-.22-.21-.32s-.2-.17-.32-.22c-.24-.1-.53-.1-.78,0-.12.05-.22.12-.32.21s-.17.2-.22.32c-.32.76-1.2,1.12-1.97.8-.76-.32-1.12-1.2-.8-1.97.2-.48.49-.91.86-1.27.36-.36.79-.65,1.27-.85.99-.42,2.12-.42,3.11,0,.48.2.91.49,1.27.86.36.36.65.79.85,1.27.21.5.32,1.02.32,1.56s-.11,1.06-.31,1.56Z"/></g><path d="m14.83,12.58c.37-.37.66-.79.86-1.27.21-.5.31-1.02.31-1.56s-.11-1.06-.32-1.56c-.2-.48-.49-.91-.85-1.27-.37-.37-.79-.66-1.27-.86-.99-.42-2.12-.42-3.11,0-.48.2-.91.49-1.27.85-.37.37-.66.79-.86,1.27-.32.76.03,1.64.8,1.97.77.33,1.64-.03,1.97-.8.05-.12.12-.23.22-.32s.2-.16.32-.21c.25-.1.54-.1.78,0,.12.05.23.12.32.22s.16.2.21.32c.05.12.08.25.08.39s-.03.27-.08.39c-.05.12-.12.23-.22.32s-.2.16-.32.21c-.12.05-.25.08-.39.08-.83,0-1.5.67-1.5,1.5s.67,1.5,1.5,1.5c.54,0,1.06-.11,1.56-.32.48-.2.91-.49,1.27-.85Z"/><path d="M12 15A1.5 1.5 0 1 0 12 18 1.5 1.5 0 1 0 12 15z"/></svg>