<svg xmlns="http://www.w3.org/2000/svg" width="24" height="24" viewBox="0 0 24 24"><g opacity="0.4"><path d="m20,1H4c-1.66,0-3,1.34-3,3v11c0,1.66,1.34,3,3,3h16c1.66,0,3-1.34,3-3V4c0-1.66-1.34-3-3-3ZM5,6.5c0-.83.67-1.5,1.5-1.5s1.5.67,1.5,1.5-.67,1.5-1.5,1.5-1.5-.67-1.5-1.5Zm12.91,7.5H6.09c-.49,0-.76-.56-.47-.95l2.13-2.84c.35-.47,1.06-.47,1.42,0l.59.79c.24.32.71.32.95,0l2.36-3.15c.35-.47,1.06-.47,1.42,0l3.9,5.2c.29.39.01.95-.47.95Z"/></g><path d="m8.5,20c-.83,0-1.5.67-1.5,1.5s.67,1.5,1.5,1.5h7c.83,0,1.5-.67,1.5-1.5s-.67-1.5-1.5-1.5h-2v-2h-3v2h-2Z"/><path d="M6.5 5A1.5 1.5 0 1 0 6.5 8 1.5 1.5 0 1 0 6.5 5z"/><path d="m14.48,7.85c-.35-.47-1.06-.47-1.42,0l-2.36,3.15c-.24.32-.71.32-.95,0l-.59-.79c-.35-.47-1.06-.47-1.42,0l-2.13,2.84c-.29.39-.01.95.47.95h11.82c.49,0,.76-.56.47-.95l-3.9-5.2Z"/></svg>