<svg xmlns="http://www.w3.org/2000/svg" width="24" height="24" viewBox="0 0 24 24"><g opacity="0.4"><path d="m5.5,22c.83,0,1.5-.67,1.5-1.5v-.5h-1.5c-.53,0-1.03-.11-1.5-.28v.78c0,.83.67,1.5,1.5,1.5Z"/><path d="m18.5,22c.83,0,1.5-.67,1.5-1.5v-.78c-.47.17-.97.28-1.5.28h-1.5v.5c0,.83.67,1.5,1.5,1.5Z"/><rect x="5" y="6" width="10" height="10" rx="2.5" ry="2.5"/><path d="M18.5 7A1.5 1.5 0 1 0 18.5 10 1.5 1.5 0 1 0 18.5 7z"/><path d="M18.5 12A1.5 1.5 0 1 0 18.5 15 1.5 1.5 0 1 0 18.5 12z"/></g><path d="m18.5,2H5.5C3.02,2,1,4.02,1,6.5v9c0,2.48,2.02,4.5,4.5,4.5h13c2.48,0,4.5-2.02,4.5-4.5V6.5c0-2.48-2.02-4.5-4.5-4.5Zm-3.5,11.5c0,1.38-1.12,2.5-2.5,2.5h-5c-1.38,0-2.5-1.12-2.5-2.5v-5c0-1.38,1.12-2.5,2.5-2.5h5c1.38,0,2.5,1.12,2.5,2.5v5Zm3.5,1.5c-.83,0-1.5-.67-1.5-1.5s.67-1.5,1.5-1.5,1.5.67,1.5,1.5-.67,1.5-1.5,1.5Zm0-5c-.83,0-1.5-.67-1.5-1.5s.67-1.5,1.5-1.5,1.5.67,1.5,1.5-.67,1.5-1.5,1.5Z"/></svg>