<svg xmlns="http://www.w3.org/2000/svg" width="24" height="24" viewBox="0 0 24 24"><g opacity="0.4"><path d="m19.58,2H4.42c-.74,0-1.41.4-1.76,1.05-.35.65-.32,1.43.08,2.04l1.87,2.86.57.25c2.06.9,4.52.77,6.44-.35,2.32-1.35,5.3-1.52,7.79-.43l.24.11,1.59-2.44c.4-.62.44-1.4.09-2.05-.35-.65-1.02-1.05-1.76-1.05Z"/></g><path d="m10.5,20h-2c-.83,0-1.5.67-1.5,1.5s.67,1.5,1.5,1.5h7c.83,0,1.5-.67,1.5-1.5s-.67-1.5-1.5-1.5h-2v-3.05l6.16-9.42-.24-.11c-2.49-1.09-5.47-.92-7.79.43-1.91,1.12-4.38,1.25-6.44.35l-.57-.25,5.88,9v3.05Z"/></svg>