<svg xmlns="http://www.w3.org/2000/svg" width="24" height="24" viewBox="0 0 24 24"><g opacity="0.4"><path d="m18.5,2H5.5C3.02,2,1,4.02,1,6.5v9c0,2.48,2.02,4.5,4.5,4.5h.5v1.95c0,.78.44,1.47,1.14,1.81.28.13.57.2.86.2.45,0,.89-.15,1.26-.45l4.27-3.49h4.96c2.48,0,4.5-2.02,4.5-4.5V6.5c0-2.48-2.02-4.5-4.5-4.5Zm-12,6h1c.83,0,1.5.67,1.5,1.5s-.67,1.5-1.5,1.5h-1c-.83,0-1.5-.67-1.5-1.5s.67-1.5,1.5-1.5Zm5,8h-5c-.83,0-1.5-.67-1.5-1.5s.67-1.5,1.5-1.5h5c.83,0,1.5.67,1.5,1.5s-.67,1.5-1.5,1.5Zm6,0h-1c-.83,0-1.5-.67-1.5-1.5s.67-1.5,1.5-1.5h1c.83,0,1.5.67,1.5,1.5s-.67,1.5-1.5,1.5Zm0-5h-5c-.83,0-1.5-.67-1.5-1.5s.67-1.5,1.5-1.5h5c.83,0,1.5.67,1.5,1.5s-.67,1.5-1.5,1.5Z"/></g><path d="m12.5,11h5c.83,0,1.5-.67,1.5-1.5s-.67-1.5-1.5-1.5h-5c-.83,0-1.5.67-1.5,1.5s.67,1.5,1.5,1.5Z"/><path d="m17.5,13h-1c-.83,0-1.5.67-1.5,1.5s.67,1.5,1.5,1.5h1c.83,0,1.5-.67,1.5-1.5s-.67-1.5-1.5-1.5Z"/><path d="m6.5,11h1c.83,0,1.5-.67,1.5-1.5s-.67-1.5-1.5-1.5h-1c-.83,0-1.5.67-1.5,1.5s.67,1.5,1.5,1.5Z"/><path d="m6.5,16h5c.83,0,1.5-.67,1.5-1.5s-.67-1.5-1.5-1.5h-5c-.83,0-1.5.67-1.5,1.5s.67,1.5,1.5,1.5Z"/></svg>