<svg xmlns="http://www.w3.org/2000/svg" width="24" height="24" viewBox="0 0 24 24"><g opacity="0.4"><path d="m12,1c-2.76,0-5,2.24-5,5v.25h4.5c.41,0,.75.34.75.75s-.34.75-.75.75h-4.5v2.5h4.5c.41,0,.75.34.75.75s-.34.75-.75.75h-4.5v.25c0,2.76,2.24,5,5,5s5-2.24,5-5v-.25h-1.5c-.41,0-.75-.34-.75-.75s.34-.75.75-.75h1.5v-2.5h-1.5c-.41,0-.75-.34-.75-.75s.34-.75.75-.75h1.5v-.25c0-2.76-2.24-5-5-5Z"/></g><path d="m20.25,10.5c-.41,0-.75.34-.75.75,0,4.14-3.36,7.5-7.5,7.5s-7.5-3.36-7.5-7.5c0-.41-.34-.75-.75-.75s-.75.34-.75.75c0,4.45,3.25,8.15,7.5,8.86v1.39c0,.83.67,1.5,1.5,1.5s1.5-.67,1.5-1.5v-1.39c4.25-.72,7.5-4.41,7.5-8.86,0-.41-.34-.75-.75-.75Z"/><path d="m12.25,11c0-.41-.34-.75-.75-.75h-4.5v1.5h4.5c.41,0,.75-.34.75-.75Z"/><path d="m12.25,7c0-.41-.34-.75-.75-.75h-4.5v1.5h4.5c.41,0,.75-.34.75-.75Z"/><path d="m15.5,11.75h1.5v-1.5h-1.5c-.41,0-.75.34-.75.75s.34.75.75.75Z"/><path d="m15.5,7.75h1.5v-1.5h-1.5c-.41,0-.75.34-.75.75s.34.75.75.75Z"/></svg>