<svg xmlns="http://www.w3.org/2000/svg" width="24" height="24" viewBox="0 0 24 24"><g opacity="0.4"><path d="m17.07,2h-1.8l4.67,7h-3.2l-4.67-7h-1.8l4.67,7h-3.2L7.07,2h-1.57c-.08,0-.15.02-.22.02l4.65,6.98h-3.2L2.72,2.98c-.41.32-.76.71-1.04,1.15l3.24,4.87H1v8.5c0,2.48,2.02,4.5,4.5,4.5h13c2.48,0,4.5-2.02,4.5-4.5v-8.5h-1.27l-4.67-7Zm-2.18,14.15l-3.76,2.19c-.5.29-1.13-.07-1.13-.65v-4.39c0-.58.63-.94,1.13-.65l3.76,2.19c.5.29.5,1.01,0,1.3Z"/></g><path d="m18.5,2h-1.43l4.67,7h1.27v-2.5c0-2.48-2.02-4.5-4.5-4.5Z"/><path d="m9.93,9L5.28,2.02c-.97.05-1.84.4-2.56.96l4.01,6.02h3.2Z"/><path d="m1.69,4.13c-.43.69-.69,1.5-.69,2.37v2.5h3.93L1.69,4.13Z"/><path d="M19.93 9 15.27 2 12.07 2 16.73 9 19.93 9z"/><path d="M14.93 9 10.27 2 7.07 2 11.73 9 14.93 9z"/><path d="m11.13,12.66c-.5-.29-1.13.07-1.13.65v4.39c0,.58.63.94,1.13.65l3.76-2.19c.5-.29.5-1.01,0-1.3l-3.76-2.19Z"/></svg>