<svg xmlns="http://www.w3.org/2000/svg" width="24" height="24" viewBox="0 0 24 24"><g opacity="0.4"><path d="m18.5,2H5.5C3.02,2,1,4.02,1,6.5v9c0,2.48,2.02,4.5,4.5,4.5h.5v1.94c0,.78.44,1.47,1.14,1.81.28.13.57.2.86.2.45,0,.89-.15,1.26-.45l4.27-3.49h4.96c2.48,0,4.5-2.02,4.5-4.5V6.5c0-2.48-2.02-4.5-4.5-4.5Zm-2.41,8.56l-1.77,1.59.67,2.35c.17.58-.48,1.06-.99.72l-2-1.33-2,1.33c-.5.34-1.15-.14-.99-.72l.67-2.35-1.77-1.59c-.43-.38-.19-1.09.38-1.13l2.13-.17.98-2.16c.23-.51.96-.51,1.19,0l.98,2.16,2.13.17c.57.05.81.75.38,1.13Z"/></g><path d="m9.68,12.15l-.67,2.35c-.17.58.48,1.06.99.72l2-1.33,2,1.33c.5.34,1.15-.14.99-.72l-.67-2.35,1.77-1.59c.43-.38.19-1.09-.38-1.13l-2.13-.17-.98-2.16c-.23-.51-.96-.51-1.19,0l-.98,2.16-2.13.17c-.57.05-.81.75-.38,1.13l1.77,1.59Z"/></svg>