<svg xmlns="http://www.w3.org/2000/svg" width="24" height="24" viewBox="0 0 24 24"><g opacity="0.4"><path d="m2.44,2.44c-.59.59-.59,1.54,0,2.12l3,3,2.12-2.12-3-3c-.59-.59-1.54-.59-2.12,0Z"/><path d="m18.56,16.44l-2.12,2.12,3,3c.29.29.68.44,1.06.44s.77-.15,1.06-.44c.59-.59.59-1.54,0-2.12l-3-3Z"/><path d="m2.44,19.44c-.59.59-.59,1.54,0,2.12.29.29.68.44,1.06.44s.77-.15,1.06-.44l3-3-2.12-2.12-3,3Z"/><path d="m19.44,2.44l-3,3,2.12,2.12,3-3c.59-.59.59-1.54,0-2.12s-1.54-.59-2.12,0Z"/></g><path d="m8.72,4.28l-4.44,4.44c-.47.47-.14,1.28.53,1.28h4.44c.41,0,.75-.34.75-.75v-4.44c0-.67-.81-1-1.28-.53Z"/><path d="m19.19,14h-4.44c-.41,0-.75.34-.75.75v4.44c0,.67.81,1,1.28.53l4.44-4.44c.47-.47.14-1.28-.53-1.28Z"/><path d="m9.25,14h-4.44c-.67,0-1,.81-.53,1.28l4.44,4.44c.47.47,1.28.14,1.28-.53v-4.44c0-.41-.34-.75-.75-.75Z"/><path d="m14.75,10h4.44c.67,0,1-.81.53-1.28l-4.44-4.44c-.47-.47-1.28-.14-1.28.53v4.44c0,.41.34.75.75.75Z"/></svg>