<svg xmlns="http://www.w3.org/2000/svg" width="24" height="24" viewBox="0 0 24 24"><g opacity="0.4"><path d="m8,23h8c1.66,0,3-1.34,3-3V4c0-1.66-1.34-3-3-3h-8c-1.66,0-3,1.34-3,3v16c0,1.66,1.34,3,3,3Zm2-18.57c.55,0,1,.45,1,1s-.45,1-1,1-1-.45-1-1,.45-1,1-1Zm-2.32-1.43c.55,0,1,.45,1,1s-.45,1-1,1-1-.45-1-1,.45-1,1-1Zm0,3c.55,0,1,.45,1,1s-.45,1-1,1-1-.45-1-1,.45-1,1-1Z"/></g><path d="M7.68 3A1 1 0 1 0 7.68 5 1 1 0 1 0 7.68 3z"/><path d="M7.68 6A1 1 0 1 0 7.68 8 1 1 0 1 0 7.68 6z"/><path d="M10 4.43A1 1 0 1 0 10 6.43 1 1 0 1 0 10 4.43z"/></svg>