<svg xmlns="http://www.w3.org/2000/svg" width="24" height="24" viewBox="0 0 24 24"><g opacity="0.4"><path d="M5.5 13A4.5 4.5 0 1 0 5.5 22 4.5 4.5 0 1 0 5.5 13z"/><path d="M18.5 13A4.5 4.5 0 1 0 18.5 22 4.5 4.5 0 1 0 18.5 13z"/><path d="m14.93,5l1.5,3h.07c.83,0,1.5-.67,1.5-1.5s-.67-1.5-1.5-1.5h-1.57Z"/></g><path d="m2.5,12h.12c.44,0,.85.19,1.14.52l.56.65c.38-.1.77-.18,1.18-.18,2.48,0,4.5,2.02,4.5,4.5,0,.52-.11,1.01-.27,1.47.09.02.18.03.27.03h4.28c-.17-.47-.28-.97-.28-1.5,0-2.48,2.02-4.5,4.5-4.5.15,0,.3.03.45.05l-4.06-8.11c-.59-1.19-1.8-1.93-3.13-1.93h-.26c-.83,0-1.5.67-1.5,1.5s.67,1.5,1.5,1.5h.26c.19,0,.36.11.45.28l1.36,2.72h-1.86c-.91,0-1.76.4-2.33,1.11l-1.82,2.24-1.52-1.78c-.86-1-2.1-1.57-3.42-1.57h-.12c-.83,0-1.5.67-1.5,1.5s.67,1.5,1.5,1.5Z"/></svg>