<svg xmlns="http://www.w3.org/2000/svg" width="24" height="24" viewBox="0 0 24 24"><g opacity="0.4"><path d="m17.5,1H6.5c-2.48,0-4.5,2.02-4.5,4.5v13c0,.16.03.3.05.45l5.25-5.19c.39-.39,1.02-.39,1.41,0l.59.59c.39.39,1.02.39,1.41,0l4.59-4.59c.39-.39,1.02-.39,1.41,0l5.29,5.24V5.5c0-2.48-2.02-4.5-4.5-4.5Zm-9.5,9c-1.1,0-2-.9-2-2s.9-2,2-2,2,.9,2,2-.9,2-2,2Z"/></g><path d="m15.3,9.76l-4.59,4.59c-.39.39-1.02.39-1.41,0l-.59-.59c-.39-.39-1.02-.39-1.41,0l-5.25,5.19c.23,2.27,2.13,4.05,4.45,4.05h11c2.48,0,4.5-2.02,4.5-4.5v-3.5l-5.29-5.24c-.39-.39-1.02-.39-1.41,0Z"/><path d="M8 6A2 2 0 1 0 8 10 2 2 0 1 0 8 6z"/></svg>