<svg xmlns="http://www.w3.org/2000/svg" width="24" height="24" viewBox="0 0 24 24"><g opacity="0.4"><path d="m17.67,10.04l-2.08,1.53c-.35.26-.83.26-1.18,0l-1.82-1.33c-.35-.26-.83-.26-1.18,0l-1.82,1.33c-.35.26-.83.26-1.18,0l-2.08-1.53L1.17,19.8c-.25.46-.23,1.02.04,1.47s.76.73,1.28.73h19c.53,0,1.01-.28,1.28-.73s.29-1.01.04-1.47l-5.15-9.76Z"/></g><path d="m9.59,11.57l1.82-1.33c.35-.26.83-.26,1.18,0l1.82,1.33c.35.26.83.26,1.18,0l2.08-1.53L13.33,1.8c-.26-.49-.77-.8-1.33-.8s-1.07.31-1.33.8l-4.35,8.24,2.08,1.53c.35.26.83.26,1.18,0Z"/></svg>