<svg xmlns="http://www.w3.org/2000/svg" width="24" height="24" viewBox="0 0 24 24"><g opacity="0.4"><path d="m19.93,13.43c-2.41.37-4.92-.36-7.24-2.11-1.76-2.33-2.5-4.83-2.12-7.25.13-.84-.21-1.67-.89-2.18-.66-.49-1.53-.58-2.28-.23C3.08,3.72.54,8.31,1.07,13.08c.58,5.13,4.72,9.27,9.84,9.84.42.05.85.07,1.27.07,4.3,0,8.28-2.46,10.15-6.4.35-.74.27-1.62-.23-2.28-.5-.68-1.34-1.02-2.18-.89Z"/></g><path d="m13.27,4.92l.67.3c.81.37,1.46,1.02,1.83,1.83l.3.67c.16.36.68.36.84,0l.3-.67c.37-.81,1.02-1.46,1.83-1.83l.67-.3c.36-.16.36-.68,0-.84l-.67-.3c-.81-.37-1.46-1.02-1.83-1.83l-.3-.67c-.16-.36-.68-.36-.84,0l-.3.67c-.37.81-1.02,1.46-1.83,1.83l-.67.3c-.36.16-.36.68,0,.84Z"/><path d="m22.85,8.76l-.38-.17c-.46-.21-.84-.58-1.05-1.05l-.17-.38c-.09-.21-.39-.21-.48,0l-.17.38c-.21.46-.58.84-1.05,1.05l-.38.17c-.21.09-.21.39,0,.48l.38.17c.46.21.84.58,1.05,1.05l.17.38c.09.21.39.21.48,0l.17-.38c.21-.46.58-.84,1.05-1.05l.38-.17c.21-.09.21-.39,0-.48Z"/></svg>