<svg xmlns="http://www.w3.org/2000/svg" width="24" height="24" viewBox="0 0 24 24"><g opacity="0.4"><path d="m18.5,2H5.5C3.02,2,1,4.02,1,6.5v9c0,2.48,2.02,4.5,4.5,4.5h.5v1.95c0,.78.44,1.47,1.14,1.81.28.13.57.2.86.2.45,0,.89-.15,1.26-.45l4.27-3.49h4.96c2.48,0,4.5-2.02,4.5-4.5V6.5c0-2.48-2.02-4.5-4.5-4.5Zm-4.44,9.2l-.9.9-3.23,3.23c-.11.11-.25.17-.4.17h-1.46c-.31,0-.57-.25-.57-.57v-1.47c0-.15.06-.29.17-.4l3.23-3.23.9-.9c.22-.22.58-.22.8,0l1.46,1.46c.22.22.22.58,0,.8Zm1.6-1.6c-.22.22-.58.22-.8,0l-1.46-1.46c-.22-.22-.22-.58,0-.8h0c.5-.5,1.3-.5,1.8,0l.47.47c.5.5.5,1.3,0,1.8Z"/></g><path d="m15.66,9.6c.5-.5.5-1.3,0-1.8l-.47-.47c-.5-.5-1.3-.5-1.8,0h0c-.22.22-.22.58,0,.8l1.46,1.46c.22.22.58.22.8,0Z"/><path d="m11.8,8.94l-.9.9-3.23,3.23c-.11.11-.17.25-.17.4v1.47c0,.31.25.57.57.57h1.46c.15,0,.29-.06.4-.17l3.23-3.23.9-.9c.22-.22.22-.58,0-.8l-1.46-1.46c-.22-.22-.58-.22-.8,0Z"/></svg>