<svg xmlns="http://www.w3.org/2000/svg" width="24" height="24" viewBox="0 0 24 24"><g opacity="0.4"><path d="m10.73,5.7l-4.86,7.68,1.81,1.85c.59.6,1.56.6,2.15,0l1.1-1.13c.59-.6,1.56-.6,2.15,0l1.1,1.13c.59.6,1.56.6,2.15,0l1.81-1.85-4.86-7.68c-.55-.87-1.98-.87-2.54,0Z"/></g><path d="m13,5.4v-1.4h3.5c.28,0,.5-.22.5-.5V1.5c0-.28-.22-.5-.5-.5h-5.5v4.4c.55-.46,1.45-.46,2,0Z"/><path d="m18.13,13.38l-1.81,1.85c-.59.6-1.56.6-2.15,0l-1.1-1.13c-.59-.6-1.56-.6-2.15,0l-1.1,1.13c-.59.6-1.56.6-2.15,0l-1.81-1.85-4.15,6.55c-.39.62-.41,1.4-.06,2.03s1.02,1.04,1.75,1.04h17.18c.73,0,1.4-.4,1.75-1.04s.33-1.42-.06-2.03l-4.15-6.55Z"/></svg>