<svg xmlns="http://www.w3.org/2000/svg" width="24" height="24" viewBox="0 0 24 24"><g opacity="0.4"><path d="m19.34,3.8c-2.33-2.08-5.45-3.08-8.58-2.74C5.76,1.62,1.7,5.64,1.08,10.62c-.33,2.69.32,5.37,1.84,7.58l-1.13,1.67c-.42.61-.46,1.4-.11,2.06.35.66,1.03,1.06,1.77,1.06h8.56c6.07,0,11-4.93,11-11,0-3.12-1.33-6.11-3.66-8.2Zm-3.09,9.7h-2.75v2.75c0,.83-.67,1.5-1.5,1.5s-1.5-.67-1.5-1.5v-2.75h-2.75c-.83,0-1.5-.67-1.5-1.5s.67-1.5,1.5-1.5h2.75v-2.75c0-.83.67-1.5,1.5-1.5s1.5.67,1.5,1.5v2.75h2.75c.83,0,1.5.67,1.5,1.5s-.67,1.5-1.5,1.5Z"/></g><path d="m16.25,10.5h-2.75v-2.75c0-.83-.67-1.5-1.5-1.5s-1.5.67-1.5,1.5v2.75h-2.75c-.83,0-1.5.67-1.5,1.5s.67,1.5,1.5,1.5h2.75v2.75c0,.83.67,1.5,1.5,1.5s1.5-.67,1.5-1.5v-2.75h2.75c.83,0,1.5-.67,1.5-1.5s-.67-1.5-1.5-1.5Z"/></svg>