<svg xmlns="http://www.w3.org/2000/svg" width="24" height="24" viewBox="0 0 24 24"><g opacity="0.4"><path d="m4,15.5c0,.83.67,1.5,1.5,1.5h1.26l2.05-3h-3.31c-.83,0-1.5.67-1.5,1.5Z"/><path d="m18.5,14h-6.05l-2.05,3h8.1c.83,0,1.5-.67,1.5-1.5s-.67-1.5-1.5-1.5Z"/><path d="m18.5,7h-1.26l-2.05,3h3.31c.83,0,1.5-.67,1.5-1.5s-.67-1.5-1.5-1.5Z"/><path d="m5.5,10h6.05l2.05-3H5.5c-.83,0-1.5.67-1.5,1.5s.67,1.5,1.5,1.5Z"/></g><path d="m19.35,1.26c-.68-.47-1.62-.29-2.08.39L4.26,20.65c-.47.68-.29,1.62.39,2.08.26.18.55.26.85.26.48,0,.95-.23,1.24-.65L19.74,3.35c.47-.68.29-1.62-.39-2.08Z"/></svg>