<svg xmlns="http://www.w3.org/2000/svg" width="24" height="24" viewBox="0 0 24 24"><g opacity="0.4"><path d="m22.5,6c-.83,0-1.5.67-1.5,1.5v10.5c0,.55-.45,1-1,1s-1-.45-1-1V4.5c0-1.38-1.12-2.5-2.5-2.5H2.5c-1.38,0-2.5,1.12-2.5,2.5v14c0,1.93,1.57,3.5,3.5,3.5h16v-.05c.17.02.33.05.5.05,2.21,0,4-1.79,4-4V7.5c0-.83-.67-1.5-1.5-1.5Zm-19.5.5c0-.83.67-1.5,1.5-1.5h3c.83,0,1.5.67,1.5,1.5v5c0,.83-.67,1.5-1.5,1.5h-3c-.83,0-1.5-.67-1.5-1.5v-5Zm11.5,11.5H4.5c-.83,0-1.5-.67-1.5-1.5s.67-1.5,1.5-1.5h10c.83,0,1.5.67,1.5,1.5s-.67,1.5-1.5,1.5Zm0-5h-2c-.83,0-1.5-.67-1.5-1.5s.67-1.5,1.5-1.5h2c.83,0,1.5.67,1.5,1.5s-.67,1.5-1.5,1.5Zm0-5h-2c-.83,0-1.5-.67-1.5-1.5s.67-1.5,1.5-1.5h2c.83,0,1.5.67,1.5,1.5s-.67,1.5-1.5,1.5Z"/></g><rect x="3" y="5" width="6" height="8" rx="1.5" ry="1.5"/><path d="m12.5,8h2c.83,0,1.5-.67,1.5-1.5s-.67-1.5-1.5-1.5h-2c-.83,0-1.5.67-1.5,1.5s.67,1.5,1.5,1.5Z"/><path d="m12.5,13h2c.83,0,1.5-.67,1.5-1.5s-.67-1.5-1.5-1.5h-2c-.83,0-1.5.67-1.5,1.5s.67,1.5,1.5,1.5Z"/><path d="m4.5,18h10c.83,0,1.5-.67,1.5-1.5s-.67-1.5-1.5-1.5H4.5c-.83,0-1.5.67-1.5,1.5s.67,1.5,1.5,1.5Z"/></svg>