<svg xmlns="http://www.w3.org/2000/svg" width="24" height="24" viewBox="0 0 24 24"><g opacity="0.4"><path d="m18.5,2H5.5C3.01,2,1,4.01,1,6.5v11c0,2.49,2.01,4.5,4.5,4.5h13c2.49,0,4.5-2.01,4.5-4.5V6.5c0-2.49-2.01-4.5-4.5-4.5ZM4,6.5c0-.83.67-1.5,1.5-1.5h5c.83,0,1.5.67,1.5,1.5v5c0,.83-.67,1.5-1.5,1.5h-5c-.83,0-1.5-.67-1.5-1.5v-5Zm14.5,11.5H5.5c-.83,0-1.5-.67-1.5-1.5s.67-1.5,1.5-1.5h13c.83,0,1.5.67,1.5,1.5s-.67,1.5-1.5,1.5Zm0-5h-3c-.83,0-1.5-.67-1.5-1.5s.67-1.5,1.5-1.5h3c.83,0,1.5.67,1.5,1.5s-.67,1.5-1.5,1.5Zm0-5h-3c-.83,0-1.5-.67-1.5-1.5s.67-1.5,1.5-1.5h3c.83,0,1.5.67,1.5,1.5s-.67,1.5-1.5,1.5Z"/></g><rect x="4" y="5" width="8" height="8" rx="1.5" ry="1.5"/><path d="m15.5,13h3c.83,0,1.5-.67,1.5-1.5s-.67-1.5-1.5-1.5h-3c-.83,0-1.5.67-1.5,1.5s.67,1.5,1.5,1.5Z"/><path d="m5.5,18h13c.83,0,1.5-.67,1.5-1.5s-.67-1.5-1.5-1.5H5.5c-.83,0-1.5.67-1.5,1.5s.67,1.5,1.5,1.5Z"/><path d="m15.5,8h3c.83,0,1.5-.67,1.5-1.5s-.67-1.5-1.5-1.5h-3c-.83,0-1.5.67-1.5,1.5s.67,1.5,1.5,1.5Z"/></svg>