<svg xmlns="http://www.w3.org/2000/svg" width="24" height="24" viewBox="0 0 24 24"><g opacity="0.4"><path d="m17.5,2H6.5c-2.49,0-4.5,2.01-4.5,4.5v2.5h20v-2.5c0-2.49-2.01-4.5-4.5-4.5ZM7,7c-.83,0-1.5-.67-1.5-1.5s.67-1.5,1.5-1.5,1.5.67,1.5,1.5-.67,1.5-1.5,1.5Zm5,0c-.83,0-1.5-.67-1.5-1.5s.67-1.5,1.5-1.5,1.5.67,1.5,1.5-.67,1.5-1.5,1.5Zm5,0c-.83,0-1.5-.67-1.5-1.5s.67-1.5,1.5-1.5,1.5.67,1.5,1.5-.67,1.5-1.5,1.5Z"/></g><path d="M7 4A1.5 1.5 0 1 0 7 7 1.5 1.5 0 1 0 7 4z"/><path d="M17 4A1.5 1.5 0 1 0 17 7 1.5 1.5 0 1 0 17 4z"/><path d="M12 4A1.5 1.5 0 1 0 12 7 1.5 1.5 0 1 0 12 4z"/><path d="m2,17.5c0,2.49,2.01,4.5,4.5,4.5h11c2.49,0,4.5-2.01,4.5-4.5v-8.5H2v8.5Zm6.5-5.5h7c.83,0,1.5.67,1.5,1.5s-.67,1.5-1.5,1.5h-7c-.83,0-1.5-.67-1.5-1.5s.67-1.5,1.5-1.5Z"/></svg>