<svg xmlns="http://www.w3.org/2000/svg" width="24" height="24" viewBox="0 0 24 24"><g opacity="0.4"><path d="m21.5,1H2.5c-.83,0-1.5.67-1.5,1.5s.67,1.5,1.5,1.5h19c.83,0,1.5-.67,1.5-1.5s-.67-1.5-1.5-1.5Z"/><path d="m12,6c-.78,0-1.41.63-1.41,1.41v.21c-.15.03-.31.05-.44.1-.56.17-1.06.43-1.48.77-.43.34-.77.75-1,1.21-.24.47-.35.97-.35,1.48,0,.65.13,1.23.39,1.73.26.52.65.94,1.16,1.27.42.27.93.46,1.5.58.48.1,1.02.15,1.63.15.41,0,.76.03,1.05.09.24.05.44.12.57.21.11.07.15.13.18.18.05.1.08.25.08.44,0,.06-.02.13-.05.2-.05.1-.13.2-.24.28-.15.12-.34.22-.57.29-.54.17-1.3.22-1.93-.03-.23-.09-.46-.22-.67-.39-.19-.15-.33-.3-.41-.4-.5-.6-1.38-.68-1.98-.18-.6.5-.68,1.38-.18,1.98.24.29.52.56.82.8.42.34.89.61,1.38.81.18.07.37.11.55.16v.26c0,.78.63,1.41,1.41,1.41s1.41-.63,1.41-1.41v-.21c.15-.03.31-.06.45-.1.56-.18,1.06-.44,1.48-.78.43-.34.76-.75.99-1.21.23-.46.36-.97.36-1.47,0-.64-.13-1.22-.39-1.73-.26-.51-.65-.94-1.16-1.26-.42-.27-.93-.47-1.5-.59-.48-.1-1.03-.15-1.63-.15-.42,0-.78-.03-1.07-.09-.3-.06-.47-.14-.56-.2-.1-.06-.14-.12-.16-.17-.05-.1-.08-.26-.08-.46,0-.07.02-.15.06-.22.05-.1.13-.19.23-.27.15-.12.34-.21.57-.28.52-.16,1.3-.21,1.79.01.15.07.28.16.39.28.11.12.18.23.21.28.36.69,1.21.96,1.9.6.69-.36.96-1.21.6-1.9-.17-.32-.39-.64-.65-.91-.36-.39-.79-.69-1.28-.91-.16-.08-.35-.12-.53-.17v-.28c0-.78-.63-1.41-1.41-1.41Z"/></g><path d="m3,19.5c0,1.93,1.57,3.5,3.5,3.5h11c1.93,0,3.5-1.57,3.5-3.5V4H3v15.5Zm4.67-9.81c.23-.47.57-.88,1-1.21.42-.33.92-.59,1.48-.77.14-.04.3-.06.44-.1v-.21c0-.78.63-1.41,1.41-1.41s1.41.63,1.41,1.41v.28c.18.05.36.09.53.17.48.22.91.53,1.28.91.26.27.48.59.65.91.36.69.09,1.54-.6,1.9-.69.36-1.54.09-1.9-.6-.03-.06-.1-.17-.21-.28-.11-.12-.24-.21-.39-.28-.49-.22-1.27-.17-1.79-.01-.23.07-.42.17-.57.28-.11.08-.18.18-.23.27-.04.07-.06.15-.06.22,0,.2.03.35.08.46.02.05.06.1.16.17.09.06.26.14.56.2.29.06.65.09,1.07.09.6,0,1.15.05,1.63.15.57.12,1.08.32,1.5.59.51.32.9.75,1.16,1.26.26.5.39,1.09.39,1.73,0,.5-.12,1.01-.36,1.47-.23.46-.57.87-.99,1.21-.42.34-.92.6-1.48.78-.14.05-.3.07-.45.1v.21c0,.78-.63,1.41-1.41,1.41s-1.41-.63-1.41-1.41v-.26c-.18-.05-.37-.09-.55-.16-.49-.2-.96-.47-1.38-.81-.3-.24-.58-.51-.82-.8-.5-.6-.42-1.48.18-1.98.6-.5,1.48-.42,1.98.18.08.1.22.25.41.4.21.17.43.3.67.39.63.25,1.39.2,1.93.03.23-.07.42-.17.57-.29.11-.09.19-.18.24-.28.04-.07.05-.14.05-.2,0-.19-.03-.34-.08-.44-.02-.05-.07-.11-.18-.18-.13-.08-.33-.16-.57-.21-.29-.06-.65-.09-1.05-.09-.62,0-1.15-.05-1.63-.15-.58-.12-1.08-.31-1.5-.58-.51-.32-.9-.75-1.16-1.27-.26-.5-.39-1.09-.39-1.73,0-.52.12-1.02.35-1.48Z"/></svg>