<svg xmlns="http://www.w3.org/2000/svg" width="24" height="24" viewBox="0 0 24 24"><g opacity="0.4"><path d="m18.71,2.69L3.44,9.9c-.72.34-1.28,1.01-1.37,1.81-.11,1.02.42,1.93,1.33,2.33l1.58.7c.16.07.34.05.48-.04l10.2-6.8c.24-.16.51.14.33.36l-6.34,7.92c-.43.53-.66,1.19-.66,1.87v3.98c0,.41.46.64.79.41l4.83-3.45,3.29,1.45c.29.13.6.19.91.19.41,0,.81-.11,1.17-.33.63-.38,1.03-1.05,1.08-1.78l.85-13.56c.04-.71-.2-1.44-.73-1.91-.7-.62-1.65-.75-2.47-.37Z"/></g><path d="m9.66,16.18l6.34-7.92c.18-.22-.1-.52-.33-.36l-10.2,6.8c-.14.09-.32.11-.48.04l4.37,1.93c.09-.17.19-.33.31-.48Z"/></svg>