<svg xmlns="http://www.w3.org/2000/svg" width="24" height="24" viewBox="0 0 24 24"><g opacity="0.4"><path d="m19.5,2H4.5C2.02,2,0,4.02,0,6.5v11c0,2.48,2.02,4.5,4.5,4.5h15c2.48,0,4.5-2.02,4.5-4.5V6.5c0-2.48-2.02-4.5-4.5-4.5Zm-7.5,5h6c.55,0,1,.45,1,1s-.45,1-1,1h-6c-.55,0-1-.45-1-1s.45-1,1-1Zm-5-1c1.1,0,2,.9,2,2s-.9,2-2,2-2-.9-2-2,.9-2,2-2Zm14,11.5c0,.83-.67,1.5-1.5,1.5H4.5c-.83,0-1.5-.67-1.5-1.5v-4.5h18v4.5Z"/></g><path d="m5.25,16.25c0,.41.34.75.75.75s.75-.34.75-.75v-3.25h-1.5v3.25Z"/><path d="m10,17c.41,0,.75-.34.75-.75v-3.25h-1.5v3.25c0,.41.34.75.75.75Z"/><path d="m14,17c.41,0,.75-.34.75-.75v-3.25h-1.5v3.25c0,.41.34.75.75.75Z"/><path d="m17.25,16.25c0,.41.34.75.75.75s.75-.34.75-.75v-3.25h-1.5v3.25Z"/><path d="m12,9h6c.55,0,1-.45,1-1s-.45-1-1-1h-6c-.55,0-1,.45-1,1s.45,1,1,1Z"/><path d="M7 6A2 2 0 1 0 7 10 2 2 0 1 0 7 6z"/></svg>