<svg xmlns="http://www.w3.org/2000/svg" width="24" height="24" viewBox="0 0 24 24"><g opacity="0.4"><path d="m12,1C5.93,1,1,5.93,1,12s4.93,11,11,11,11-4.93,11-11S18.07,1,12,1Zm3.5,12.5h-2v2c0,.83-.67,1.5-1.5,1.5s-1.5-.67-1.5-1.5v-2h-2c-.83,0-1.5-.67-1.5-1.5s.67-1.5,1.5-1.5h2v-2c0-.83.67-1.5,1.5-1.5s1.5.67,1.5,1.5v2h2c.83,0,1.5.67,1.5,1.5s-.67,1.5-1.5,1.5Z"/></g><path d="m12,17c.83,0,1.5-.67,1.5-1.5v-2h2c.83,0,1.5-.67,1.5-1.5s-.67-1.5-1.5-1.5h-2v-2c0-.83-.67-1.5-1.5-1.5s-1.5.67-1.5,1.5v2h-2c-.83,0-1.5.67-1.5,1.5s.67,1.5,1.5,1.5h2v2c0,.83.67,1.5,1.5,1.5Z"/></svg>