<svg xmlns="http://www.w3.org/2000/svg" width="24" height="24" viewBox="0 0 24 24"><g opacity="0.4"><path d="m20.98,15.83l-2.58-1.72c-1.31-.87-3.03-.67-4.1.49l-.77.84c-.79-.48-1.91-1.24-2.81-2.15-.9-.9-1.66-2.03-2.15-2.81l.84-.77c1.16-1.07,1.36-2.79.49-4.1l-1.72-2.58c-.48-.72-1.21-1.2-2.05-1.36-.84-.16-1.7.02-2.41.51l-1.32.91s0,0,0,0c-.91.63-1.42,1.67-1.37,2.78.11,2.13.83,7.56,5.19,11.93,4.36,4.36,9.79,5.08,11.93,5.19.05,0,.11,0,.16,0,1.05,0,2.02-.5,2.62-1.37l.92-1.32c.49-.71.67-1.56.51-2.41-.16-.85-.65-1.58-1.36-2.05Z"/></g><path d="m11.29,2.54c-.36.29-.39.83-.06,1.15h0c.28.28.71.31,1.02.07,2.23-1.76,5.48-1.61,7.54.45s2.21,5.31.45,7.54c-.24.31-.21.74.06,1.02h0c.33.33.87.3,1.15-.06,2.23-2.84,2.04-6.98-.57-9.59s-6.75-2.81-9.59-.57Z"/><path d="m17.7,10.17h0c.36.36.96.29,1.21-.15.31-.54.47-1.15.47-1.78,0-.97-.38-1.88-1.06-2.56-1.13-1.13-2.95-1.33-4.32-.59-.45.24-.53.86-.17,1.22.24.24.61.3.91.13.78-.43,1.83-.32,2.48.33.39.39.61.91.61,1.46,0,.36-.09.7-.26,1.01-.17.3-.12.68.13.92Z"/></svg>