<svg xmlns="http://www.w3.org/2000/svg" width="24" height="24" viewBox="0 0 24 24"><g opacity="0.4"><path d="m5.7,5.04L1.31,20.21c-.2.7,0,1.46.51,1.97.38.38.89.59,1.41.59.19,0,.37-.03.56-.08l15.18-4.39c-.36-7.17-6.09-12.9-13.26-13.26Zm1.3,13.46c-.83,0-1.5-.67-1.5-1.5s.67-1.5,1.5-1.5,1.5.67,1.5,1.5-.67,1.5-1.5,1.5Zm2-7c-.83,0-1.5-.67-1.5-1.5s.67-1.5,1.5-1.5,1.5.67,1.5,1.5-.67,1.5-1.5,1.5Zm4,6c-1.38,0-2.5-1.12-2.5-2.5s1.12-2.5,2.5-2.5,2.5,1.12,2.5,2.5-1.12,2.5-2.5,2.5Z"/></g><path d="m8.86,1.02c-1.13-.07-2.2.69-2.52,1.81l-.64,2.21c7.17.36,12.9,6.09,13.26,13.26l2.2-.64c1.11-.32,1.87-1.38,1.81-2.52-.43-7.61-6.5-13.68-14.11-14.11Z"/><path d="M13 12.5A2.5 2.5 0 1 0 13 17.5 2.5 2.5 0 1 0 13 12.5z"/><path d="M9 8.5A1.5 1.5 0 1 0 9 11.5 1.5 1.5 0 1 0 9 8.5z"/><path d="M7 15.5A1.5 1.5 0 1 0 7 18.5 1.5 1.5 0 1 0 7 15.5z"/></svg>