<svg xmlns="http://www.w3.org/2000/svg" width="24" height="24" viewBox="0 0 24 24"><g opacity="0.4"><path d="m20.71,7.01l-1.71-2.05v-1.96c0-1.1-.9-2-2-2h-.5c-1.66,0-3.23.75-4.27,2h-3.23C4.36,3,1,6.36,1,11c0,3.25.59,6.25,1.96,10.02.43,1.19,1.57,1.98,2.82,1.98h.21c1.65,0,3-1.35,3-3v-1h4v1c0,1.65,1.35,3,3,3h.46c1.05,0,2.01-.54,2.57-1.44,1.12-1.81,1.84-4.18,2.2-5.67,1.02-.31,1.77-1.27,1.77-2.39v-4c0-1.31-1.01-2.38-2.29-2.49Zm-9.46,1.49h-5.5c-.41,0-.75-.34-.75-.75s.34-.75.75-.75h5.5c.41,0,.75.34.75.75s-.34.75-.75.75Zm5.25,2.5c-.83,0-1.5-.67-1.5-1.5s.67-1.5,1.5-1.5,1.5.67,1.5,1.5-.67,1.5-1.5,1.5Z"/></g><path d="M16.5 8A1.5 1.5 0 1 0 16.5 11 1.5 1.5 0 1 0 16.5 8z"/><path d="m5.75,8.5h5.5c.41,0,.75-.34.75-.75s-.34-.75-.75-.75h-5.5c-.41,0-.75.34-.75.75s.34.75.75.75Z"/></svg>