<svg xmlns="http://www.w3.org/2000/svg" width="24" height="24" viewBox="0 0 24 24"><g opacity="0.4"><path d="m17.9,6c-1.01,0-1.96-.49-2.54-1.33l-.06-.09c-1.57-2.25-4.14-3.59-6.88-3.59C3.77,1,0,4.77,0,9.4v9.1c0,2.48,2.02,4.5,4.5,4.5h15c2.48,0,4.5-2.02,4.5-4.5v-6.4c0-3.37-2.74-6.1-6.1-6.1Zm3.1,12.5c0,.83-.67,1.5-1.5,1.5H4.5c-.83,0-1.5-.67-1.5-1.5v-4.5h18v4.5Z"/></g><path d="m6,18c.41,0,.75-.34.75-.75v-3.25h-1.5v3.25c0,.41.34.75.75.75Z"/><path d="m10,18c.41,0,.75-.34.75-.75v-3.25h-1.5v3.25c0,.41.34.75.75.75Z"/><path d="m14,18c.41,0,.75-.34.75-.75v-3.25h-1.5v3.25c0,.41.34.75.75.75Z"/><path d="m18,18c.41,0,.75-.34.75-.75v-3.25h-1.5v3.25c0,.41.34.75.75.75Z"/></svg>