<svg xmlns="http://www.w3.org/2000/svg" width="24" height="24" viewBox="0 0 24 24"><g opacity="0.4"><path d="m15.92,2.04c.05.15.08.3.08.46v1.75c0,.41-.34.75-.75.75H4.75c-.41,0-.75-.34-.75-.75v-1.75c0-.16.03-.31.08-.46-1.73.21-3.08,1.67-3.08,3.46v10c0,1.93,1.57,3.5,3.5,3.5h5.5v-5.5c0-1.93,1.57-3.5,3.5-3.5h5.5v-4.5c0-1.79-1.35-3.25-3.08-3.46Z"/></g><path d="m4.75,5h10.5c.41,0,.75-.34.75-.75v-1.75c0-.83-.67-1.5-1.5-1.5H5.5c-.83,0-1.5.67-1.5,1.5v1.75c0,.41.34.75.75.75Z"/><rect x="10" y="10" width="13" height="13" rx="3.5" ry="3.5"/></svg>