<svg xmlns="http://www.w3.org/2000/svg" width="24" height="24" viewBox="0 0 24 24"><g opacity="0.4"><path d="m7.89,8.95c-.76-.12-1.57.1-2.16.69l-.59.59c-.97.97-.97,2.56,0,3.54l1.48,1.48-4.13,4.13c-.59.59-.59,1.54,0,2.12.59.59,1.54.59,2.12,0l4.13-4.13,1.48,1.48c.49.49,1.13.73,1.77.73s1.28-.24,1.77-.73l.59-.59c.59-.59.81-1.4.69-2.16l-7.15-7.15Z"/><path d="m9.72,8.66l5.62,5.62,2.68-2.68c.98.72,2.36.64,3.25-.25l.59-.59c.97-.97.97-2.56,0-3.54l-5.09-5.09c-.97-.97-2.56-.97-3.54,0l-.59.59c-.88.88-.97,2.27-.25,3.25l-2.68,2.68Z"/></g><path d="m22.25,23c-.19,0-.38-.07-.53-.22L1.22,2.28c-.29-.29-.29-.77,0-1.06s.77-.29,1.06,0l20.5,20.5c.29.29.29.77,0,1.06-.15.15-.34.22-.53.22Z"/></svg>