<svg xmlns="http://www.w3.org/2000/svg" width="24" height="24" viewBox="0 0 24 24"><g opacity="0.4"><path d="m20.5,8H3.5c-1.38,0-2.5,1.12-2.5,2.5s1.12,2.5,2.5,2.5h17c1.38,0,2.5-1.12,2.5-2.5s-1.12-2.5-2.5-2.5Z"/></g><path class="st0" d="M11.2,5.7V8h1.5V5.6c0.8-0.1,1.9-0.3,2.8-1.1C17,3.3,17,1,17,1s-2.4-0.2-3.8,1.1c-0.8,0.7-1.1,1.7-1.3,2.4
	c-0.1-0.6-0.4-1.2-0.9-1.7C9.9,1.7,8,1.8,8,1.8S7.9,3.7,9,4.7C9.6,5.4,10.6,5.6,11.2,5.7L11.2,5.7z"/><path class="st0" d="M20.5,13h-17c-0.5,0-0.9-0.1-1.3-0.4l2.1,8.1C4.6,22.1,5.8,23,7.2,23h0h9.6c1.4,0,2.6-0.9,2.9-2.2l2.1-8.1
	C21.4,12.9,21,13,20.5,13z"/></svg>