<svg xmlns="http://www.w3.org/2000/svg" width="24" height="24" viewBox="0 0 24 24"><g opacity="0.4"><path d="m16.5,6H7.5c-2.48,0-4.5,2.02-4.5,4.5v8c0,2.48,2.02,4.5,4.5,4.5h9c2.48,0,4.5-2.02,4.5-4.5v-8c0-2.48-2.02-4.5-4.5-4.5Zm-.75,10h-2.25v2.25c0,.83-.67,1.5-1.5,1.5s-1.5-.67-1.5-1.5v-2.25h-2.25c-.83,0-1.5-.67-1.5-1.5s.67-1.5,1.5-1.5h2.25v-2.25c0-.83.67-1.5,1.5-1.5s1.5.67,1.5,1.5v2.25h2.25c.83,0,1.5.67,1.5,1.5s-.67,1.5-1.5,1.5Z"/></g><path d="m16.5,6c.53,0,1.03.11,1.5.28v-2.28c0-1.65-1.35-3-3-3h-6c-1.65,0-3,1.35-3,3v2.28c.47-.17.97-.28,1.5-.28h9Z"/><path d="m12,19.75c.83,0,1.5-.67,1.5-1.5v-2.25h2.25c.83,0,1.5-.67,1.5-1.5s-.67-1.5-1.5-1.5h-2.25v-2.25c0-.83-.67-1.5-1.5-1.5s-1.5.67-1.5,1.5v2.25h-2.25c-.83,0-1.5.67-1.5,1.5s.67,1.5,1.5,1.5h2.25v2.25c0,.83.67,1.5,1.5,1.5Z"/></svg>