<svg xmlns="http://www.w3.org/2000/svg" width="24" height="24" viewBox="0 0 24 24"><g opacity="0.4"><path d="m17.06,2.71l-2.55,2.55-9.45-1.05c-.46-.05-.92.11-1.25.44-.77.77-.52,2.07.48,2.49l5.84,2.5-3.32,3.32-3.66-.33c-.15-.01-.29.04-.4.14l-.76.76c-.24.24-.18.65.13.8l4.74,2.37c.19.1.35.25.45.45l2.37,4.74c.15.31.56.37.8.13l.76-.76c.1-.1.16-.25.14-.4l-.33-3.66,3.32-3.32,2.5,5.84c.43,1,1.73,1.25,2.49.48.33-.33.49-.79.44-1.25l-1.05-9.45,2.43-2.43c1.15-1.15,1.32-3.04.23-4.25-1.16-1.29-3.14-1.33-4.35-.12Z"/></g></svg>