<svg xmlns="http://www.w3.org/2000/svg" width="24" height="24" viewBox="0 0 24 24"><g opacity="0.4"><path d="m9.55,9.35c-1.55.4-2.72,1.68-2.96,3.26l-1.13,7.22c-.07.42,0,.86.2,1.24l.24.47,5.65-5.65c-.03-.12-.06-.25-.06-.38,0-.83.67-1.5,1.5-1.5s1.5.67,1.5,1.5-.67,1.5-1.5,1.5c-.13,0-.26-.02-.38-.06l-5.65,5.65.4.22c.41.22.87.29,1.33.2l7.67-1.49c1.59-.31,2.84-1.55,3.16-3.14l.82-4.09-6.12-6.12-4.66,1.19Z"/></g><path d="m7,8.5v-1.5h1.5c.83,0,1.5-.67,1.5-1.5s-.67-1.5-1.5-1.5h-1.5v-1.5c0-.83-.67-1.5-1.5-1.5s-1.5.67-1.5,1.5v1.5h-1.5c-.83,0-1.5.67-1.5,1.5s.67,1.5,1.5,1.5h1.5v1.5c0,.83.67,1.5,1.5,1.5s1.5-.67,1.5-1.5Z"/><path d="m19.36,7.27c-1.17-1.17-3.07-1.17-4.24,0l-.89.89,1.53,1.53,4.59,4.59.89-.89c1.17-1.17,1.17-3.07,0-4.24l-1.88-1.88Z"/><path d="m5.91,21.53l1.06,1.06,5.65-5.65c.12.03.25.06.38.06.83,0,1.5-.67,1.5-1.5s-.67-1.5-1.5-1.5-1.5.67-1.5,1.5c0,.13.02.26.06.38l-5.65,5.65Z"/></svg>