<svg xmlns="http://www.w3.org/2000/svg" width="24" height="24" viewBox="0 0 24 24"><g opacity="0.4"><path d="m6.5,22h11c2.48,0,4.5-2.02,4.5-4.5V6.5c0-2.48-2.02-4.5-4.5-4.5H6.5c-2.48,0-4.5,2.02-4.5,4.5v11c0,2.48,2.02,4.5,4.5,4.5Zm2-11.5h2v-2c0-.83.67-1.5,1.5-1.5s1.5.67,1.5,1.5v2h2c.83,0,1.5.67,1.5,1.5s-.67,1.5-1.5,1.5h-2v2c0,.83-.67,1.5-1.5,1.5s-1.5-.67-1.5-1.5v-2h-2c-.83,0-1.5-.67-1.5-1.5s.67-1.5,1.5-1.5Z"/></g><path d="m8.5,13.5h2v2c0,.83.67,1.5,1.5,1.5s1.5-.67,1.5-1.5v-2h2c.83,0,1.5-.67,1.5-1.5s-.67-1.5-1.5-1.5h-2v-2c0-.83-.67-1.5-1.5-1.5s-1.5.67-1.5,1.5v2h-2c-.83,0-1.5.67-1.5,1.5s.67,1.5,1.5,1.5Z"/></svg>