<svg xmlns="http://www.w3.org/2000/svg" width="24" height="24" viewBox="0 0 24 24"><g opacity="0.4"><path d="m17.88,4.93c-.67-.49-1.61-.34-2.1.33s-.34,1.61.33,2.1c1.83,1.34,2.88,3.4,2.88,5.65,0,3.86-3.14,7-7,7s-7-3.14-7-7c0-2.25,1.05-4.31,2.88-5.65.67-.49.82-1.43.33-2.1-.49-.67-1.43-.82-2.1-.33-2.58,1.88-4.12,4.9-4.12,8.07,0,5.51,4.49,10,10,10s10-4.49,10-10c0-3.18-1.54-6.19-4.12-8.07Z"/></g><path d="m12,12c.83,0,1.5-.67,1.5-1.5V2.5c0-.83-.67-1.5-1.5-1.5s-1.5.67-1.5,1.5v8c0,.83.67,1.5,1.5,1.5Z"/></svg>