<svg xmlns="http://www.w3.org/2000/svg" width="24" height="24" viewBox="0 0 24 24"><g opacity="0.4"><path d="m6.51,8.03c0,1.06.1,1.84.25,2.47h3.13c-.21-.56-.38-1.22-.38-2.47,0-1.47.93-3.03,3.53-3.03,1.25,0,1.98.61,2.4,1.18.37.51.99.76,1.6.6l.06-.02c.97-.26,1.41-1.42.83-2.24-.9-1.27-2.47-2.51-4.89-2.51-4.48,0-6.53,3.13-6.53,6.03Z"/><path d="m19.46,19.35c-.32-.69-1.12-1.02-1.83-.76-.66.24-1.28.41-1.57.41-.91,0-1.6-.23-2.4-.49-.91-.3-1.95-.64-3.34-.64-.14,0-.3.01-.47.03.54-1.24.83-2.66.83-4.2,0-.07-.01-.13-.01-.2h-3c0,.07.01.12.01.2,0,2.54-1.06,4.58-2.83,5.45-.7.35-1.02,1.17-.73,1.9.23.58.79.95,1.39.95.15,0,.3-.02.44-.07,1.66-.51,3.8-1.07,4.37-1.07.91,0,1.6.23,2.4.49.91.3,1.95.64,3.34.64.76,0,1.77-.29,2.6-.6.81-.29,1.19-1.21.83-1.99l-.03-.06Z"/></g><path d="m5.5,13.5h8c.83,0,1.5-.67,1.5-1.5s-.67-1.5-1.5-1.5H5.5c-.83,0-1.5.67-1.5,1.5s.67,1.5,1.5,1.5Z"/></svg>