<svg xmlns="http://www.w3.org/2000/svg" width="24" height="24" viewBox="0 0 24 24"><g opacity="0.4"><path d="m9.55,9.35c-1.55.4-2.72,1.68-2.96,3.26l-1.13,7.22c-.07.42,0,.86.2,1.24l.24.47,5.65-5.65c-.03-.12-.06-.25-.06-.38,0-.83.67-1.5,1.5-1.5s1.5.67,1.5,1.5-.67,1.5-1.5,1.5c-.13,0-.26-.02-.38-.06l-5.65,5.65.4.22c.41.22.87.29,1.33.2l7.67-1.49c1.59-.31,2.84-1.55,3.16-3.14l.82-4.09-6.12-6.12-4.66,1.19Z"/></g><path d="m19.36,7.27c-1.17-1.17-3.07-1.17-4.24,0l-.89.89,1.53,1.53,4.59,4.59.89-.89c1.17-1.17,1.17-3.07,0-4.24l-1.88-1.88Z"/><path d="m7.85,22.98c-.16-.04-.33-.09-.48-.17l-.4-.22,5.65-5.65c.12.03.25.06.38.06.83,0,1.5-.67,1.5-1.5s-.67-1.5-1.5-1.5-1.5.67-1.5,1.5c0,.13.02.26.06.38l-5.65,5.65-.24-.47c-.16-.3-.21-.62-.2-.96-.26-.06-.5-.15-.7-.3-.53-.4-.8-1.21-.8-2.41,0-1.77.78-3.93,1.54-6.01,1.16-3.19,2.25-6.21.73-8.37-.72-1.03-1.9-1.65-3.58-1.89-.91-.13-1.73.57-1.73,1.49,0,.75.56,1.38,1.3,1.48.78.11,1.33.33,1.55.65.62.89-.33,3.52-1.09,5.63-.84,2.33-1.72,4.74-1.72,7.03s.67,3.82,2,4.81c1.03.77,2.23.98,3.19.98.79,0,1.41-.13,1.7-.2Z"/></svg>