<svg xmlns="http://www.w3.org/2000/svg" width="24" height="24" viewBox="0 0 24 24"><g opacity="0.4"><path d="M4.5 6A2.5 2.5 0 1 0 4.5 11 2.5 2.5 0 1 0 4.5 6z"/><path d="M19.5 6A2.5 2.5 0 1 0 19.5 11 2.5 2.5 0 1 0 19.5 6z"/><path d="m18.84,12.02c-1.18.11-2.21.83-2.87,1.82l-2.11,3.17c-.42.62-1.11,1-1.86,1s-1.45-.37-1.86-1l-2.11-3.17c-.66-.98-1.69-1.7-2.87-1.82-2.25-.22-4.16,1.55-4.16,3.76v4.22c0,.55.45,1,1,1h4c.55,0,1-.45,1-1v-2.3l.57.86c.68,1.01,1.65,1.83,2.82,2.19,2.32.72,4.7-.18,5.97-2.09l.64-.96v2.3c0,.55.45,1,1,1h4c.55,0,1-.45,1-1v-4.22c0-2.21-1.9-3.98-4.16-3.76Z"/></g><path d="M12 3A2.5 2.5 0 1 0 12 8 2.5 2.5 0 1 0 12 3z"/><path d="m9.69,12.73l2.11,3.17c.04.07.12.1.2.1s.15-.04.2-.11l2.11-3.17c.2-.31.43-.58.68-.84-.06-1.6-1.37-2.88-2.99-2.88s-2.93,1.28-2.99,2.88c.24.26.48.54.68.84Z"/></svg>