<svg xmlns="http://www.w3.org/2000/svg" width="24" height="24" viewBox="0 0 24 24"><g opacity="0.4"><path d="m18.5,2H4.5c-1.93,0-3.5,1.57-3.5,3.5v12c0,1.93,1.57,3.5,3.5,3.5h6c.83,0,1.5-.67,1.5-1.5s-.67-1.5-1.5-1.5h-6c-.28,0-.5-.22-.5-.5V5.5c0-.28.22-.5.5-.5h14c.28,0,.5.22.5.5v6c0,.83.67,1.5,1.5,1.5s1.5-.67,1.5-1.5v-6c0-1.93-1.57-3.5-3.5-3.5Z"/></g><rect x="14" y="15" width="9" height="7" rx="1" ry="1"/><path d="m8.94,12.06l-.66.66c-.47.47-.14,1.28.53,1.28h3.44c.41,0,.75-.34.75-.75v-3.44c0-.67-.81-1-1.28-.53l-.66.66-2-2c-.59-.59-1.54-.59-2.12,0s-.59,1.54,0,2.12l2,2Z"/></svg>