<svg xmlns="http://www.w3.org/2000/svg" width="24" height="24" viewBox="0 0 24 24"><g opacity="0.4"><path d="m18.47,11.53l-5-5-1.06-1.06-1.03,1.03h-3.23c-1.35,0-2.54.91-2.89,2.21l-2.58,9.47c-.17.62-.05,1.27.29,1.8l6.1-6.1c-.03-.12-.06-.25-.06-.38,0-.83.67-1.5,1.5-1.5s1.5.67,1.5,1.5-.67,1.5-1.5,1.5c-.13,0-.26-.02-.38-.06l-6.11,6.11c.36.23.79.36,1.22.36.2,0,.4-.03.59-.08l9.48-2.58c1.3-.35,2.21-1.54,2.21-2.89v-3.23s1.03-1.03,1.03-1.03l-.06-.06Z"/></g><path d="m3.97,21.09l6.15-6.15c.12.03.25.06.38.06.83,0,1.5-.67,1.5-1.5s-.67-1.5-1.5-1.5-1.5.67-1.5,1.5c0,.13.02.26.06.38l-6.15,6.15,1.06,1.06Z"/><path d="m20.05,3.93l-.94-.94c-1.17-1.17-3.07-1.17-4.24,0l-2.46,2.47,6.12,6.12,2.47-2.48c1.17-1.17,1.17-3.07,0-4.24l-.94-.94Z"/></svg>