<svg xmlns="http://www.w3.org/2000/svg" width="24" height="24" viewBox="0 0 24 24"><g opacity="0.4"><path d="m17.5,1H6c-1.65,0-3,1.35-3,3v16c0,1.65,1.35,3,3,3h11.5c2.48,0,4.5-2.02,4.5-4.5V5.5c0-2.48-2.02-4.5-4.5-4.5Zm-.12,15.52l-.3.44c-.24.35-.65.56-1.07.53-1.26-.08-4-.53-6.23-2.76-2.23-2.23-2.67-4.96-2.76-6.23-.03-.43.18-.83.53-1.07l.44-.3c.57-.39,1.35-.24,1.73.33l.74,1.11c.34.5.26,1.18-.19,1.59l-.48.44c-.21.2-.26.51-.12.76.29.5.83,1.33,1.49,1.99.67.67,1.5,1.2,1.99,1.49.25.15.56.1.76-.12l.44-.48c.41-.45,1.09-.53,1.59-.19l1.11.74c.57.38.72,1.16.33,1.73Z"/></g><path d="m3,15.5h-1.25c-.41,0-.75.34-.75.75s.34.75.75.75h1.25v-1.5Z"/><path d="m1.75,12.75h1.25v-1.5h-1.25c-.41,0-.75.34-.75.75s.34.75.75.75Z"/><path d="m1.75,8.5h1.25v-1.5h-1.25c-.41,0-.75.34-.75.75s.34.75.75.75Z"/><path d="m16,17.48c.43.03.83-.18,1.07-.53l.3-.44c.39-.57.24-1.35-.33-1.73l-1.11-.74c-.5-.34-1.18-.26-1.59.19l-.44.48c-.2.21-.51.26-.76.12-.5-.29-1.33-.83-1.99-1.49-.67-.67-1.2-1.5-1.49-1.99-.15-.25-.1-.56.12-.76l.48-.44c.44-.41.52-1.08.19-1.59l-.74-1.11c-.38-.57-1.16-.72-1.73-.33l-.44.3c-.35.24-.56.65-.53,1.07.08,1.26.53,4,2.76,6.23,2.23,2.23,4.96,2.67,6.23,2.76Z"/></svg>