<svg xmlns="http://www.w3.org/2000/svg" width="24" height="24" viewBox="0 0 24 24"><g opacity="0.4"><path d="m19.5,1H5.5c-1.93,0-3.5,1.57-3.5,3.5v14.5c0,2.21,1.79,4,4,4h14.5c.83,0,1.5-.67,1.5-1.5s-.67-1.5-1.5-1.5H6c-.55,0-1-.45-1-1s.45-1,1-1h13.5c1.38,0,2.5-1.12,2.5-2.5V3.5c0-1.38-1.12-2.5-2.5-2.5Zm-11.5,4c1.1,0,2,.9,2,2s-.9,2-2,2-2-.9-2-2,.9-2,2-2Zm9.97,9H7.06c-.42,0-.65-.49-.39-.82l1.75-2.14c.28-.34.8-.37,1.11-.05l.61.62c.31.31.82.29,1.11-.04l2.42-2.87c.31-.36.87-.35,1.16.02l3.52,4.47c.26.33.02.81-.39.81Z"/></g><path class="st0" d="M8 5A2 2 0 1 0 8 9 2 2 0 1 0 8 5z"/><path class="st0" d="M8.4,11l-1.8,2.1c-0.3,0.3,0,0.8,0.4,0.8H18c0.4,0,0.6-0.5,0.4-0.8l-3.5-4.5c-0.3-0.4-0.9-0.4-1.2,0l-2.4,2.9
	c-0.3,0.3-0.8,0.4-1.1,0L9.5,11C9.2,10.7,8.7,10.7,8.4,11L8.4,11z"/><path class="st1" d="M6,20h13c-0.5,0-1-0.5-1-1s0.5-1,1-1H6c-0.6,0-1,0.5-1,1S5.4,20,6,20z"/></svg>