<svg xmlns="http://www.w3.org/2000/svg" width="24" height="24" viewBox="0 0 24 24"><g opacity="0.4"><path d="m6.5,2c-2.48,0-4.5,2.02-4.5,4.5s2.02,4.5,4.5,4.5,4.5-2.02,4.5-4.5-2.02-4.5-4.5-4.5Zm0,6c-.83,0-1.5-.67-1.5-1.5s.67-1.5,1.5-1.5,1.5.67,1.5,1.5-.67,1.5-1.5,1.5Z"/></g><path d="m6.69,22c.5,0,.99-.25,1.27-.71L18.58,4.29c.44-.7.22-1.63-.48-2.07-.7-.44-1.63-.23-2.07.48L5.42,19.71c-.44.7-.22,1.63.48,2.07.25.15.52.23.79.23Z"/><path d="m17.5,13c-2.48,0-4.5,2.02-4.5,4.5s2.02,4.5,4.5,4.5,4.5-2.02,4.5-4.5-2.02-4.5-4.5-4.5Zm0,6c-.83,0-1.5-.67-1.5-1.5s.67-1.5,1.5-1.5,1.5.67,1.5,1.5-.67,1.5-1.5,1.5Z"/></svg>