<svg xmlns="http://www.w3.org/2000/svg" width="24" height="24" viewBox="0 0 24 24"><g opacity="0.4"><path d="m20.34,4.98l-6.78-3.38c-.98-.49-2.15-.49-3.12,0l-6.78,3.38c-1.02.51-1.66,1.54-1.66,2.67,0,2.41.59,10.6,8.32,14.7.53.28,1.11.42,1.68.42s1.16-.14,1.68-.42c7.72-4.09,8.32-12.28,8.32-14.7,0-1.14-.64-2.16-1.66-2.67Zm-4.09,8.52h-2.75v2.75c0,.83-.67,1.5-1.5,1.5s-1.5-.67-1.5-1.5v-2.75h-2.75c-.83,0-1.5-.67-1.5-1.5s.67-1.5,1.5-1.5h2.75v-2.75c0-.83.67-1.5,1.5-1.5s1.5.67,1.5,1.5v2.75h2.75c.83,0,1.5.67,1.5,1.5s-.67,1.5-1.5,1.5Z"/></g><path d="m7.75,13.5h2.75v2.75c0,.83.67,1.5,1.5,1.5s1.5-.67,1.5-1.5v-2.75h2.75c.83,0,1.5-.67,1.5-1.5s-.67-1.5-1.5-1.5h-2.75v-2.75c0-.83-.67-1.5-1.5-1.5s-1.5.67-1.5,1.5v2.75h-2.75c-.83,0-1.5.67-1.5,1.5s.67,1.5,1.5,1.5Z"/></svg>