<svg xmlns="http://www.w3.org/2000/svg" width="24" height="24" viewBox="0 0 24 24"><g opacity="0.4"><path d="m20.12,5.5c-1.13-1.13-3.11-1.13-4.24,0l-1.66,1.66,5.62,5.62,1.66-1.66c.57-.57.88-1.32.88-2.12s-.31-1.55-.88-2.12l-1.38-1.38Z"/><path d="m5.59,15.79c-.38.38-.59.88-.59,1.41v2.79c0,1.1.9,2,2,2h2.79c.53,0,1.04-.21,1.41-.59l7.57-7.57-5.62-5.62-7.57,7.57Z"/></g><path class="st0" d="M13.2 8.2 13.7 7.7 14.2 7.2 17 10 19.8 12.8 19.3 13.3 18.8 13.8 16 11z"/><path class="st0" d="M7.1,10C8.7,8.5,10,7.2,10,5.5c0-3.4-4.7-4.2-7.4-4.4C1.8,1,1,1.7,1,2.6C1,3.4,1.6,4,2.4,4.1C4.9,4.3,7,5,7,5.5
	c0,0.4-1.2,1.6-2,2.3c-2.2,2.1-5.7,5.5-3.6,10c0.4,0.9,1.5,1.1,2.2,0.6c0.6-0.4,0.8-1.2,0.5-1.8C3,14.2,4.6,12.4,7.1,10L7.1,10z"/></svg>