<svg xmlns="http://www.w3.org/2000/svg" width="24" height="24" viewBox="0 0 24 24"><g opacity="0.4"><path d="m9.5,6.5c.83,0,1.5-.67,1.5-1.5s-.67-1.5-1.5-1.5c-2.94,0-5.19.83-6.69,2.46-1.94,2.11-1.83,4.8-1.81,5.14v6.91c0,1.38,1.12,2.5,2.5,2.5h5c1.38,0,2.5-1.12,2.5-2.5v-6c0-1.27-.96-2.32-2.2-2.47-.1-.02-.2-.03-.3-.03h-4.31c.15-.5.41-1.05.86-1.54.91-.97,2.41-1.46,4.45-1.46Z"/></g><path d="m21.5,6.5c.83,0,1.5-.67,1.5-1.5s-.67-1.5-1.5-1.5c-2.94,0-5.19.83-6.69,2.46-1.94,2.11-1.83,4.8-1.81,5.14v6.91c0,1.38,1.12,2.5,2.5,2.5h5c1.38,0,2.5-1.12,2.5-2.5v-6c0-1.27-.96-2.32-2.2-2.47-.1-.02-.2-.03-.3-.03h-4.31c.15-.5.41-1.05.86-1.54.91-.97,2.41-1.46,4.45-1.46Z"/></svg>