<svg xmlns="http://www.w3.org/2000/svg" width="24" height="24" viewBox="0 0 24 24"><g opacity="0.4"><path d="m9.79,12.56l2.27,1.82c.17-1.06.75-1.97,1.57-2.58l-1.87-1.5c-.34.99-1.05,1.8-1.97,2.26Z"/><path d="m5.58,12.17l-.86,2.86c.09,0,.18-.03.27-.03.99,0,1.88.37,2.58.97l.9-3.01c-.16.02-.32.05-.48.05-.91,0-1.74-.32-2.42-.83Z"/><path d="m16.44,8.05l-.75,2.98c.1,0,.2-.03.3-.03.98,0,1.86.37,2.56.95l.75-2.98c-.1,0-.2.03-.3.03-.98,0-1.86-.37-2.56-.95Z"/></g><path d="M5 15A4 4 0 1 0 5 23 4 4 0 1 0 5 15z"/><path d="M16 11A4 4 0 1 0 16 19 4 4 0 1 0 16 11z"/><path d="M8 5A4 4 0 1 0 8 13 4 4 0 1 0 8 5z"/><path d="M19 1A4 4 0 1 0 19 9 4 4 0 1 0 19 1z"/></svg>