<svg xmlns="http://www.w3.org/2000/svg" width="24" height="24" viewBox="0 0 24 24"><g opacity="0.4"><path d="m20,8.57s0-.05,0-.07c0-4.41-3.59-8-8-8S4,4.09,4,8.5c0,.02,0,.05,0,.07C1.54,9.99,0,12.6,0,15.5c0,4.41,3.59,8,8,8,1.4,0,2.79-.38,4-1.08,1.21.7,2.6,1.08,4,1.08,4.41,0,8-3.59,8-8,0-2.9-1.54-5.51-4-6.93Zm-4,11.93c-.54,0-1.07-.09-1.57-.26-.43.58-.93,1.11-1.51,1.56-.27.21-.59.32-.92.32s-.65-.11-.92-.32c-.58-.45-1.08-.98-1.51-1.56-.5.17-1.03.26-1.57.26-2.76,0-5-2.24-5-5,0-1.47.64-2.82,1.71-3.75-.29-.65-.51-1.34-.61-2.06-.1-.68.28-1.35.92-1.61.67-.27,1.37-.43,2.08-.5.44-2.32,2.47-4.08,4.91-4.08s4.47,1.76,4.91,4.08c.71.08,1.41.23,2.08.5.64.26,1.02.92.92,1.61-.11.72-.32,1.41-.61,2.06,1.06.93,1.71,2.28,1.71,3.75,0,2.76-2.24,5-5,5Z"/></g><path d="m8,15.42s0,.05,0,.08c0,2.49,1.12,4.79,3.08,6.3.27.21.59.32.92.32s.65-.11.92-.32c1.96-1.52,3.08-3.82,3.08-6.3,0-.03,0-.05,0-.08,2.09-1.21,3.55-3.32,3.91-5.73.1-.68-.28-1.35-.92-1.61-2.24-.91-4.88-.7-6.98.5-2.1-1.2-4.74-1.41-6.98-.5-.64.26-1.02.92-.92,1.61.36,2.42,1.82,4.53,3.91,5.73Z"/></svg>