<svg xmlns="http://www.w3.org/2000/svg" width="24" height="24" viewBox="0 0 24 24"><g opacity="0.4"><path d="m18,17.5V5c0-1.65-1.35-3-3-3H4c-1.65,0-3,1.35-3,3v12.5c0,2.48,2.02,4.5,4.5,4.5h13.5c.61,0,1.17-.15,1.69-.39-1.58-.7-2.69-2.27-2.69-4.11Zm-5.5.5h-2c-.83,0-1.5-.67-1.5-1.5s.67-1.5,1.5-1.5h2c.83,0,1.5.67,1.5,1.5s-.67,1.5-1.5,1.5Zm0-4.5h-6c-.83,0-1.5-.67-1.5-1.5s.67-1.5,1.5-1.5h6c.83,0,1.5.67,1.5,1.5s-.67,1.5-1.5,1.5Zm0-4.5h-6c-.83,0-1.5-.67-1.5-1.5s.67-1.5,1.5-1.5h6c.83,0,1.5.67,1.5,1.5s-.67,1.5-1.5,1.5Z"/></g><path d="m20,10.5h-2v7c0,1.84,1.11,3.42,2.69,4.11,1.36-.64,2.31-2.01,2.31-3.61v-4.5c0-1.65-1.35-3-3-3Z"/><path d="m6.5,13.5h6c.83,0,1.5-.67,1.5-1.5s-.67-1.5-1.5-1.5h-6c-.83,0-1.5.67-1.5,1.5s.67,1.5,1.5,1.5Z"/><path d="m12.5,15h-2c-.83,0-1.5.67-1.5,1.5s.67,1.5,1.5,1.5h2c.83,0,1.5-.67,1.5-1.5s-.67-1.5-1.5-1.5Z"/><path d="m6.5,9h6c.83,0,1.5-.67,1.5-1.5s-.67-1.5-1.5-1.5h-6c-.83,0-1.5.67-1.5,1.5s.67,1.5,1.5,1.5Z"/></svg>