<svg xmlns="http://www.w3.org/2000/svg" width="24" height="24" viewBox="0 0 24 24"><g opacity="0.4"><path d="m19.73,6.02c-.32-.15-.65-.23-.99-.23-.49,0-.98.16-1.39.48l-5.04,3.96c-.55.43-.86,1.07-.86,1.77s.31,1.34.86,1.77l5.04,3.96c.68.54,1.59.63,2.37.25.78-.38,1.27-1.15,1.27-2.02v-7.91c0-.87-.49-1.64-1.27-2.02Z"/></g><path class="st0" d="M11.7,6c-0.3-0.2-0.6-0.2-1-0.2c-0.5,0-1,0.2-1.4,0.5l-5,4c-0.5,0.4-0.9,1.1-0.9,1.8s0.3,1.3,0.9,1.8l5,4
	c0.7,0.5,1.6,0.6,2.4,0.2s1.3-1.1,1.3-2v-1.7l-0.7-0.5c-0.6-0.4-0.9-1.1-0.9-1.8s0.3-1.3,0.9-1.8L13,9.7V8C13,7.2,12.5,6.4,11.7,6
	L11.7,6z"/></svg>