<svg xmlns="http://www.w3.org/2000/svg" width="24" height="24" viewBox="0 0 24 24"><g opacity="0.4"><path d="m22,10v-.5c0-2.48-2.02-4.5-4.5-4.5H6.5c-2.48,0-4.5,2.02-4.5,4.5v.5c-.55,0-1,.45-1,1v6c0,.55.45,1,1,1v.5c0,2.48,2.02,4.5,4.5,4.5h11c2.48,0,4.5-2.02,4.5-4.5v-.5c.55,0,1-.45,1-1v-6c0-.55-.45-1-1-1Zm-16,1.5c0-1.38.9-2.5,2-2.5s2,1.12,2,2.5-.9,2.5-2,2.5-2-1.12-2-2.5Zm10.25,7.5H7.75c-.55,0-1-.45-1-1s.45-1,1-1h8.5c.55,0,1,.45,1,1s-.45,1-1,1Zm-.25-5c-1.1,0-2-1.12-2-2.5s.9-2.5,2-2.5,2,1.12,2,2.5-.9,2.5-2,2.5Z"/></g><path d="M8 9A2 2.5 0 1 0 8 14 2 2.5 0 1 0 8 9z"/><path d="m16.25,17H7.75c-.55,0-1,.45-1,1s.45,1,1,1h8.5c.55,0,1-.45,1-1s-.45-1-1-1Z"/><path d="M16 9A2 2.5 0 1 0 16 14 2 2.5 0 1 0 16 9z"/><path d="m11.25,3.79v1.21h1.5v-1.21c.45-.26.75-.74.75-1.29,0-.83-.67-1.5-1.5-1.5s-1.5.67-1.5,1.5c0,.55.3,1.03.75,1.29Z"/></svg>