<svg xmlns="http://www.w3.org/2000/svg" width="24" height="24" viewBox="0 0 24 24"><g opacity="0.4"><path d="m13,9h-3v2h3c.55,0,1-.45,1-1s-.45-1-1-1Z"/><path d="m12,1C6.04,1,1,6.04,1,12s5.04,11,11,11,11-5.04,11-11S17.96,1,12,1Zm4.63,14.51c.55.62.48,1.57-.14,2.12-.28.25-.64.37-.99.37-.42,0-.83-.17-1.13-.51l-3.05-3.49h-1.32v2.5c0,.83-.67,1.5-1.5,1.5s-1.5-.67-1.5-1.5V7.5c0-.83.67-1.5,1.5-1.5h4.5c2.21,0,4,1.79,4,4,0,1.52-.87,2.84-2.12,3.51l1.75,2Z"/></g><path d="m8.5,18c.83,0,1.5-.67,1.5-1.5v-2.5h1.32l3.05,3.49c.3.34.71.51,1.13.51.35,0,.7-.12.99-.37.62-.55.69-1.49.14-2.12l-1.75-2c1.26-.68,2.12-1.99,2.12-3.51,0-2.21-1.79-4-4-4h-4.5c-.83,0-1.5.67-1.5,1.5v9c0,.83.67,1.5,1.5,1.5Zm1.5-9h3c.55,0,1,.45,1,1s-.45,1-1,1h-3v-2Z"/></svg>