<svg xmlns="http://www.w3.org/2000/svg" width="24" height="24" viewBox="0 0 24 24"><g opacity="0.4"><path d="m17.5,2H6.5c-.83,0-1.5.67-1.5,1.5s.67,1.5,1.5,1.5h3.5c1.67,0,3.09,1.04,3.69,2.5h3.14c-.21-.92-.6-1.76-1.14-2.5h1.82c.83,0,1.5-.67,1.5-1.5s-.67-1.5-1.5-1.5Z"/><path d="m16.83,10.5h-3.15c-.63,1.49-2.17,2.5-3.86,2.5h-3.32c-.62,0-1.18.39-1.4.97-.22.58-.06,1.24.41,1.66l7.38,6.51c.62.55,1.57.49,2.12-.13h0c.55-.62.49-1.57-.13-2.12l-4.42-3.9c3.14-.2,5.72-2.49,6.38-5.49Z"/></g><path d="m17.5,7.5H6.5c-.83,0-1.5.67-1.5,1.5s.67,1.5,1.5,1.5h11c.83,0,1.5-.67,1.5-1.5s-.67-1.5-1.5-1.5Z"/></svg>