<svg xmlns="http://www.w3.org/2000/svg" width="24" height="24" viewBox="0 0 24 24"><g opacity="0.4"><path d="m1.75,9h4.44c.67,0,1-.81.53-1.28l-.85-.85c.15-.18.31-.36.48-.52.73-.74,1.59-1.31,2.54-1.72,1.97-.83,4.26-.83,6.23,0,.95.4,1.81.98,2.54,1.72.74.73,1.31,1.59,1.72,2.54.25.59.43,1.2.53,1.83.12.73.71,1.28,1.44,1.28h.1c.87,0,1.57-.76,1.45-1.62-.13-.91-.38-1.8-.75-2.66-.55-1.31-1.35-2.49-2.36-3.5-1.01-1.01-2.19-1.8-3.5-2.36-2.71-1.15-5.85-1.15-8.56,0-1.31.55-2.49,1.35-3.5,2.36-.17.17-.32.35-.48.52l-1.47-1.47c-.47-.47-1.28-.14-1.28.53v4.44c0,.41.34.75.75.75Z"/></g><path d="m22.25,15h-4.44c-.67,0-1,.81-.53,1.28l.85.85c-.15.18-.31.36-.48.52-.73.74-1.59,1.31-2.54,1.72-1.97.83-4.26.83-6.23,0-.95-.4-1.81-.98-2.54-1.72-.74-.73-1.31-1.59-1.72-2.54-.25-.59-.43-1.2-.53-1.83-.12-.73-.71-1.28-1.44-1.28h-.1c-.87,0-1.57.76-1.45,1.62.13.91.38,1.8.75,2.66.55,1.31,1.35,2.49,2.36,3.5,1.01,1.01,2.19,1.8,3.5,2.36,1.36.57,2.8.87,4.28.87s2.93-.29,4.28-.86c1.31-.55,2.49-1.35,3.5-2.36.17-.17.32-.35.48-.52l1.47,1.47c.47.47,1.28.14,1.28-.53v-4.44c0-.41-.34-.75-.75-.75Z"/></svg>