<svg xmlns="http://www.w3.org/2000/svg" width="24" height="24" viewBox="0 0 24 24"><g opacity="0.4"><path d="m22,15.49c-.4-.73-1.31-.99-2.04-.59-.73.4-.99,1.31-.59,2.04l.18.32c.05.08.07.17.07.25,0,.08-.03.17-.07.24-.04.08-.11.14-.18.18-.07.04-.16.07-.25.07h-6.11v3h6.11c.63,0,1.25-.17,1.79-.49.5-.3.93-.73,1.23-1.24.3-.51.47-1.09.49-1.67.02-.62-.13-1.24-.44-1.8l-.18-.32Z"/><path d="m17.83,7.94l-2.76-5c-.32-.57-.78-1.04-1.34-1.35-1.05-.59-2.41-.59-3.45,0-.56.32-1.02.78-1.34,1.36l-.15.27c-.4.73-.14,1.64.59,2.04.73.4,1.64.14,2.04-.59l.15-.27c.05-.09.11-.15.19-.19.15-.08.35-.08.5,0,.08.04.14.11.19.19l2.79,5.05,2.6-1.5Z"/><path d="m7.33,12.06l-2.6-1.5-2.9,5.25c-.31.55-.46,1.18-.44,1.8.02.59.19,1.17.49,1.67.3.51.73.94,1.23,1.24.54.32,1.15.49,1.79.49h.28c.83,0,1.5-.67,1.5-1.5s-.67-1.5-1.5-1.5h-.28c-.1,0-.18-.02-.25-.07-.07-.04-.13-.1-.18-.18-.04-.07-.07-.16-.07-.24,0-.09.02-.17.06-.25l2.87-5.2Z"/></g><path d="m13,22.04v-5.08c0-.4-.46-.64-.79-.41l-3.63,2.54c-.28.2-.28.62,0,.82l3.63,2.54c.33.23.79,0,.79-.41Z"/><path d="m14.34,10.87l4.01,1.87c.31.15.68-.06.71-.41l.39-4.41c.04-.4-.4-.68-.75-.48l-4.4,2.54c-.35.2-.33.72.04.89Z"/><path d="m8.95,12.08l-.39-4.41c-.03-.35-.39-.56-.71-.41l-4.01,1.87c-.37.17-.39.68-.04.89l4.4,2.54c.35.2.78-.07.75-.48Z"/></svg>