<svg xmlns="http://www.w3.org/2000/svg" width="24" height="24" viewBox="0 0 24 24"><g opacity="0.4"><path d="m4.22,19.78c.17.17.35.32.52.48l-1.47,1.47c-.47.47-.14,1.28.53,1.28h4.44c.41,0,.75-.34.75-.75v-4.44c0-.67-.81-1-1.28-.53l-.85.85c-.18-.15-.36-.31-.52-.48-.74-.73-1.31-1.59-1.72-2.54-.83-1.97-.83-4.26,0-6.23.4-.95.98-1.81,1.72-2.54.73-.74,1.59-1.31,2.54-1.72.59-.25,1.2-.43,1.83-.53.73-.12,1.28-.71,1.28-1.44v-.1c0-.87-.76-1.57-1.62-1.45-.91.13-1.8.38-2.66.75-1.31.55-2.49,1.35-3.5,2.36-1.01,1.01-1.8,2.19-2.36,3.5-1.15,2.71-1.15,5.85,0,8.56.55,1.31,1.35,2.49,2.36,3.5Z"/><path d="m22.13,7.72c-.55-1.31-1.35-2.49-2.36-3.5-.17-.17-.35-.32-.52-.48l1.47-1.47c.47-.47.14-1.28-.53-1.28h-4.44c-.41,0-.75.34-.75.75v4.44c0,.67.81,1,1.28.53l.85-.85c.18.15.36.31.52.48.74.73,1.31,1.59,1.72,2.54.83,1.97.83,4.26,0,6.23-.4.95-.98,1.81-1.72,2.54-.73.74-1.59,1.31-2.54,1.72-.59.25-1.2.43-1.83.53-.73.12-1.28.71-1.28,1.44v.1c0,.87.76,1.57,1.62,1.45.91-.13,1.8-.38,2.66-.75,1.31-.55,2.49-1.35,3.5-2.36,1.01-1.01,1.8-2.19,2.36-3.5.57-1.36.87-2.8.87-4.28s-.29-2.93-.86-4.28Z"/></g><path d="M12 9A3 3 0 1 0 12 15 3 3 0 1 0 12 9z"/></svg>