<svg xmlns="http://www.w3.org/2000/svg" width="24" height="24" viewBox="0 0 24 24"><g opacity="0.4"><path d="m12,11c.83,0,1.5-.67,1.5-1.5v-1c0-.83-.67-1.5-1.5-1.5s-1.5.67-1.5,1.5v1c0,.83.67,1.5,1.5,1.5Z"/><path d="m12,5c.83,0,1.5-.67,1.5-1.5V1h-3v2.5c0,.83.67,1.5,1.5,1.5Z"/><path d="m12,17c.83,0,1.5-.67,1.5-1.5v-1c0-.83-.67-1.5-1.5-1.5s-1.5.67-1.5,1.5v1c0,.83.67,1.5,1.5,1.5Z"/><path d="m13.5,20.5c0-.83-.67-1.5-1.5-1.5s-1.5.67-1.5,1.5v2.5h3v-2.5Z"/></g><path d="m19.17,1h-5.67v2.5c0,.83-.67,1.5-1.5,1.5s-1.5-.67-1.5-1.5V1h-5.67c-1.03,0-1.9.79-1.99,1.82l-1.64,18c-.11,1.17.82,2.18,1.99,2.18h7.31v-2.5c0-.83.67-1.5,1.5-1.5s1.5.67,1.5,1.5v2.5h7.31c1.18,0,2.1-1.01,1.99-2.18l-1.64-18c-.09-1.03-.96-1.82-1.99-1.82Zm-5.67,14.5c0,.83-.67,1.5-1.5,1.5s-1.5-.67-1.5-1.5v-1c0-.83.67-1.5,1.5-1.5s1.5.67,1.5,1.5v1Zm0-6c0,.83-.67,1.5-1.5,1.5s-1.5-.67-1.5-1.5v-1c0-.83.67-1.5,1.5-1.5s1.5.67,1.5,1.5v1Z"/></svg>