<svg xmlns="http://www.w3.org/2000/svg" width="24" height="24" viewBox="0 0 24 24"><g opacity="0.4"><path d="m5.63,4.08c-.88-.09-1.63.62-1.63,1.5,0,.77.59,1.41,1.35,1.49,3.05.32,5.78,1.69,7.84,3.74,2.05,2.05,3.43,4.79,3.74,7.84.08.77.72,1.35,1.49,1.35.88,0,1.59-.76,1.5-1.63-.38-3.76-2.07-7.14-4.61-9.68s-5.91-4.23-9.68-4.61Z"/><path d="M6 16A2 2 0 1 0 6 20 2 2 0 1 0 6 16z"/></g><path d="m11.42,12.58c-1.52-1.52-3.52-2.58-5.74-2.94-.89-.14-1.68.59-1.68,1.49,0,.75.56,1.36,1.3,1.49,1.55.27,2.93,1.02,4,2.09,1.07,1.07,1.81,2.45,2.09,4,.13.74.74,1.3,1.49,1.3.9,0,1.64-.79,1.49-1.68-.36-2.22-1.42-4.21-2.94-5.74Z"/></svg>