<svg xmlns="http://www.w3.org/2000/svg" width="24" height="24" viewBox="0 0 24 24"><g opacity="0.4"><path d="m4.22,19.78c1.01,1.01,2.19,1.8,3.5,2.36.86.36,1.74.61,2.66.75.86.13,1.62-.58,1.62-1.45v-.1c0-.73-.55-1.32-1.28-1.44-.63-.1-1.24-.28-1.83-.53-.95-.4-1.81-.98-2.54-1.72-.74-.74-1.31-1.59-1.72-2.54-.83-1.97-.83-4.26,0-6.23.4-.95.98-1.81,1.72-2.54.17-.17.34-.33.52-.48l.85.85c.47.47,1.28.14,1.28-.53V1.75c0-.41-.34-.75-.75-.75H3.81c-.67,0-1,.81-.53,1.28l1.47,1.47c-.18.16-.36.31-.52.48-1.01,1.01-1.8,2.19-2.36,3.5-.57,1.36-.86,2.8-.86,4.28s.29,2.93.87,4.28c.55,1.31,1.35,2.49,2.36,3.5Z"/></g><path d="m22.14,7.72c-.55-1.31-1.35-2.49-2.36-3.5-1.01-1.01-2.19-1.8-3.5-2.36-.86-.36-1.74-.61-2.66-.75-.86-.13-1.62.58-1.62,1.45v.1c0,.73.55,1.32,1.28,1.44.63.1,1.24.28,1.83.53.95.4,1.81.98,2.54,1.72.74.74,1.31,1.59,1.72,2.54.83,1.97.83,4.26,0,6.23-.4.95-.98,1.81-1.72,2.54-.17.17-.34.33-.52.48l-.85-.85c-.47-.47-1.28-.14-1.28.53v4.44c0,.41.34.75.75.75h4.44c.67,0,1-.81.53-1.28l-1.47-1.47c.18-.16.36-.31.52-.48,1.01-1.01,1.8-2.19,2.36-3.5,1.15-2.71,1.15-5.85,0-8.56Z"/></svg>