<svg xmlns="http://www.w3.org/2000/svg" width="24" height="24" viewBox="0 0 24 24"><g opacity="0.4"><path d="m20,6h-1.25v5c0,.41-.34.75-.75.75s-.75-.34-.75-.75v-5h-2.5v4c0,.41-.34.75-.75.75s-.75-.34-.75-.75v-4h-2.5v5c0,.41-.34.75-.75.75s-.75-.34-.75-.75v-5h-2.5v4c0,.41-.34.75-.75.75s-.75-.34-.75-.75v-4h-1.25C1.79,6,0,7.79,0,10v4c0,2.21,1.79,4,4,4h16c2.21,0,4-1.79,4-4v-4c0-2.21-1.79-4-4-4Z"/></g><path d="m14,10.75c.41,0,.75-.34.75-.75v-4h-1.5v4c0,.41.34.75.75.75Z"/><path d="m18,11.75c.41,0,.75-.34.75-.75v-5h-1.5v5c0,.41.34.75.75.75Z"/><path d="m10,11.75c.41,0,.75-.34.75-.75v-5h-1.5v5c0,.41.34.75.75.75Z"/><path d="m6,10.75c.41,0,.75-.34.75-.75v-4h-1.5v4c0,.41.34.75.75.75Z"/></svg>