<svg xmlns="http://www.w3.org/2000/svg" width="24" height="24" viewBox="0 0 24 24"><g opacity="0.4"><path d="m19,8H5l-3.24,7.3c-.49,1.11-.28,2.41.56,3.28.94.98,2.38,2.22,4.25,3.14l1.68-10.09c.07-.41.46-.68.86-.62.41.07.68.46.62.86l-1.74,10.44c1.2.42,2.54.69,4.01.69s2.81-.27,4.01-.69l-1.74-10.44c-.07-.41.21-.79.62-.86.4-.06.79.21.86.62l1.68,10.09c1.87-.92,3.31-2.16,4.25-3.14.84-.87,1.05-2.17.56-3.28l-3.24-7.3Z"/></g><path d="m19,2.5c0-.83-.67-1.5-1.5-1.5H6.5c-.83,0-1.5.67-1.5,1.5v5.5h14V2.5Z"/><path d="m8.25,11.63l-1.68,10.09c.45.22.92.42,1.42.6l1.74-10.44c.07-.41-.21-.79-.62-.86-.4-.07-.79.21-.86.62Z"/><path d="m14.89,11.01c-.41.07-.68.46-.62.86l1.74,10.44c.5-.18.97-.38,1.42-.6l-1.68-10.09c-.07-.41-.46-.68-.86-.62Z"/></svg>