<svg xmlns="http://www.w3.org/2000/svg" width="24" height="24" viewBox="0 0 24 24"><g opacity="0.4"><path d="m7.5,2h-1c-2.48,0-4.5,2.02-4.5,4.5v1c0,.83.67,1.5,1.5,1.5s1.5-.67,1.5-1.5v-1c0-.83.67-1.5,1.5-1.5h1c.83,0,1.5-.67,1.5-1.5s-.67-1.5-1.5-1.5Z"/><path d="m17.5,2h-1c-.83,0-1.5.67-1.5,1.5s.67,1.5,1.5,1.5h1c.83,0,1.5.67,1.5,1.5v1c0,.83.67,1.5,1.5,1.5s1.5-.67,1.5-1.5v-1c0-2.48-2.02-4.5-4.5-4.5Z"/><path d="m20.5,15c-.83,0-1.5.67-1.5,1.5v1c0,.83-.67,1.5-1.5,1.5h-1c-.83,0-1.5.67-1.5,1.5s.67,1.5,1.5,1.5h1c2.48,0,4.5-2.02,4.5-4.5v-1c0-.83-.67-1.5-1.5-1.5Z"/><path d="m7.5,19h-1c-.83,0-1.5-.67-1.5-1.5v-1c0-.83-.67-1.5-1.5-1.5s-1.5.67-1.5,1.5v1c0,2.48,2.02,4.5,4.5,4.5h1c.83,0,1.5-.67,1.5-1.5s-.67-1.5-1.5-1.5Z"/></g><rect x="7" y="7" width="2" height="10" rx=".5" ry=".5"/><rect x="12" y="7" width="3" height="10" rx=".5" ry=".5"/><path d="m10.5,7c-.28,0-.5.22-.5.5v9c0,.28.22.5.5.5s.5-.22.5-.5V7.5c0-.28-.22-.5-.5-.5Z"/><path d="m16.5,17c.28,0,.5-.22.5-.5V7.5c0-.28-.22-.5-.5-.5s-.5.22-.5.5v9c0,.28.22.5.5.5Z"/></svg>