<svg xmlns="http://www.w3.org/2000/svg" width="24" height="24" viewBox="0 0 24 24"><g opacity="0.4"><path d="m19.5,7h-9c-1.93,0-3.5,1.57-3.5,3.5v9c0,1.93,1.57,3.5,3.5,3.5h9c1.93,0,3.5-1.57,3.5-3.5v-9c0-1.93-1.57-3.5-3.5-3.5Zm.5,12.5c0,.28-.22.5-.5.5h-9c-.28,0-.5-.22-.5-.5v-9c0-.28.22-.5.5-.5h9c.28,0,.5.22.5.5v9Z"/></g><path d="m14,13.5c0,.28-.22.5-.5.5h-3.5v3h3.5c1.93,0,3.5-1.57,3.5-3.5v-3.5h-3v3.5Z"/><path d="m7,14h-2.5c-.28,0-.5-.22-.5-.5V4.5c0-.28.22-.5.5-.5h9c.28,0,.5.22.5.5v2.5h3v-2.5c0-1.93-1.57-3.5-3.5-3.5H4.5c-1.93,0-3.5,1.57-3.5,3.5v9c0,1.93,1.57,3.5,3.5,3.5h2.5v-3Z"/></svg>