<svg xmlns="http://www.w3.org/2000/svg" width="24" height="24" viewBox="0 0 24 24"><g opacity="0.4"><path d="m17.5,2H6.5c-2.48,0-4.5,2.02-4.5,4.5v11c0,2.48,2.02,4.5,4.5,4.5h11c2.48,0,4.5-2.02,4.5-4.5V6.5c0-2.48-2.02-4.5-4.5-4.5Zm-.84,11.3l-1.7.76c-.4.18-.72.5-.9.9l-.76,1.71c-.23.51-.73.84-1.29.84s-1.06-.33-1.29-.84l-.76-1.71c-.18-.4-.5-.72-.9-.9l-1.73-.77c-.5-.22-.83-.72-.84-1.27,0-.55.31-1.06.8-1.3l1.82-.88c.37-.18.67-.48.84-.85l.77-1.67h0c.23-.5.73-.82,1.28-.82h.01c.55,0,1.06.33,1.28.84l.76,1.72c.18.4.5.72.9.9l1.7.76c.51.23.84.73.84,1.29s-.33,1.07-.84,1.29Z"/></g><path d="m7.34,13.29l1.73.77c.4.18.72.5.9.9l.76,1.71c.23.51.73.84,1.29.84s1.06-.33,1.29-.84l.76-1.71c.18-.4.5-.72.9-.9l1.7-.76c.51-.23.84-.73.84-1.29s-.33-1.07-.84-1.29l-1.7-.76c-.4-.18-.72-.5-.9-.9l-.76-1.72c-.22-.51-.73-.84-1.28-.84h-.01c-.55,0-1.05.32-1.28.82h0s-.77,1.67-.77,1.67c-.17.37-.47.67-.84.85l-1.82.88c-.49.24-.81.75-.8,1.3,0,.55.34,1.05.84,1.27Z"/></svg>