<svg xmlns="http://www.w3.org/2000/svg" width="24" height="24" viewBox="0 0 24 24"><g opacity="0.4"><path d="m13.89,2.1c-1.1-.89-2.69-.89-3.78,0L3.1,7.79c-1.34,1.23-2.1,2.94-2.1,4.71,0,3.58,3.04,6.5,6.78,6.5,1.54,0,3.03-.51,4.22-1.42,1.19.91,2.68,1.42,4.22,1.42,3.74,0,6.78-2.92,6.78-6.5,0-1.77-.77-3.48-2.17-4.76l-6.94-5.63Z"/></g><path d="m15.5,20h-2v-1.58c-.53-.23-1.04-.49-1.5-.84-.46.35-.97.62-1.5.84v1.58h-2c-.83,0-1.5.67-1.5,1.5s.67,1.5,1.5,1.5h7c.83,0,1.5-.67,1.5-1.5s-.67-1.5-1.5-1.5Z"/></svg>