<svg xmlns="http://www.w3.org/2000/svg" width="24" height="24" viewBox="0 0 24 24"><g opacity="0.4"><path d="m18.18,16.06c1.14-1.57,1.82-3.48,1.82-5.56,0-5.24-4.26-9.5-9.5-9.5S1,5.26,1,10.5s4.26,9.5,9.5,9.5c2.08,0,4-.68,5.56-1.82l3.88,3.88c.29.29.68.44,1.06.44s.77-.15,1.06-.44c.59-.59.59-1.54,0-2.12l-3.88-3.88Zm-3.68-4.06h-2.5v2.5c0,.83-.67,1.5-1.5,1.5s-1.5-.67-1.5-1.5v-2.5h-2.5c-.83,0-1.5-.67-1.5-1.5s.67-1.5,1.5-1.5h2.5v-2.5c0-.83.67-1.5,1.5-1.5s1.5.67,1.5,1.5v2.5h2.5c.83,0,1.5.67,1.5,1.5s-.67,1.5-1.5,1.5Z"/></g><path d="m14.5,9h-2.5v-2.5c0-.83-.67-1.5-1.5-1.5s-1.5.67-1.5,1.5v2.5h-2.5c-.83,0-1.5.67-1.5,1.5s.67,1.5,1.5,1.5h2.5v2.5c0,.83.67,1.5,1.5,1.5s1.5-.67,1.5-1.5v-2.5h2.5c.83,0,1.5-.67,1.5-1.5s-.67-1.5-1.5-1.5Z"/></svg>