<svg xmlns="http://www.w3.org/2000/svg" width="24" height="24" viewBox="0 0 24 24"><g opacity="0.4"><path d="m21.71,10.51c-.83-.11-1.58.46-1.69,1.28l-.58,4.15c-.17,1.17-1.18,2.06-2.37,2.06-1.07,0-2.02-.72-2.3-1.75l-1.31-4.66c.22.8-.24,1.63-1.04,1.85-.14.04-.27.06-.41.06-.66,0-1.26-.43-1.44-1.09l1.31,4.66c.65,2.32,2.79,3.93,5.19,3.93,2.67,0,4.97-2,5.34-4.64l.58-4.15c.12-.82-.46-1.58-1.28-1.69Z"/></g><path d="m12,13.5c.13,0,.27-.02.41-.06.8-.22,1.26-1.05,1.04-1.85l-1.31-4.66c-.65-2.32-2.79-3.93-5.19-3.93-2.67,0-4.97,2-5.34,4.64l-.58,4.15c-.12.82.46,1.58,1.28,1.69.83.12,1.58-.46,1.69-1.28l.58-4.15c.17-1.17,1.18-2.06,2.37-2.06,1.07,0,2.02.72,2.3,1.75l1.31,4.66c.19.66.79,1.09,1.44,1.09Z"/></svg>