<svg xmlns="http://www.w3.org/2000/svg" width="24" height="24" viewBox="0 0 24 24"><g opacity="0.4"><path d="m3,21.5c0,.83.67,1.5,1.5,1.5s1.5-.67,1.5-1.5v-1.85c-.46.22-.96.35-1.5.35s-1.04-.13-1.5-.35v1.85Z"/><path d="m18,21.5c0,.83.67,1.5,1.5,1.5s1.5-.67,1.5-1.5v-1.85c-.46.22-.96.35-1.5.35s-1.04-.13-1.5-.35v1.85Z"/><path d="m13.5,21.5v-10.85c-.46.22-.96.35-1.5.35s-1.04-.13-1.5-.35v10.85c0,.83.67,1.5,1.5,1.5s1.5-.67,1.5-1.5Z"/><path d="m6,13.35V2.5c0-.83-.67-1.5-1.5-1.5s-1.5.67-1.5,1.5v10.85c.46-.22.96-.35,1.5-.35s1.04.13,1.5.35Z"/><path d="m21,13.35V2.5c0-.83-.67-1.5-1.5-1.5s-1.5.67-1.5,1.5v10.85c.46-.22.96-.35,1.5-.35s1.04.13,1.5.35Z"/><path d="m10.5,2.5v1.85c.46-.22.96-.35,1.5-.35s1.04.13,1.5.35v-1.85c0-.83-.67-1.5-1.5-1.5s-1.5.67-1.5,1.5Z"/></g><path d="M4.5 13A3.5 3.5 0 1 0 4.5 20 3.5 3.5 0 1 0 4.5 13z"/><path d="M19.5 13A3.5 3.5 0 1 0 19.5 20 3.5 3.5 0 1 0 19.5 13z"/><path d="M12 4A3.5 3.5 0 1 0 12 11 3.5 3.5 0 1 0 12 4z"/></svg>