<svg xmlns="http://www.w3.org/2000/svg" width="24" height="24" viewBox="0 0 24 24"><g opacity="0.4"><rect x="2" y="6" width="20" height="12" rx="3.5" ry="3.5"/></g><path d="m12,5c.41,0,.75-.34.75-.75V1.75c0-.41-.34-.75-.75-.75s-.75.34-.75.75v2.5c0,.41.34.75.75.75Z"/><path d="m6.42,4.98c.15.18.36.27.58.27.17,0,.34-.06.48-.17.32-.26.37-.74.1-1.06l-1.44-1.75c-.26-.32-.74-.37-1.05-.1-.32.26-.37.74-.1,1.06l1.44,1.75Z"/><path d="m17,5.25c.22,0,.43-.09.58-.27l1.44-1.75c.26-.32.22-.79-.1-1.06-.32-.26-.79-.22-1.05.1l-1.44,1.75c-.26.32-.22.79.1,1.06.14.11.31.17.48.17Z"/><path d="m12,23c.41,0,.75-.34.75-.75v-2.5c0-.41-.34-.75-.75-.75s-.75.34-.75.75v2.5c0,.41.34.75.75.75Z"/><path d="m17.86,21.73c.15.18.36.27.58.27.17,0,.34-.06.48-.17.32-.26.37-.74.1-1.06l-1.44-1.75c-.26-.32-.74-.37-1.05-.1-.32.26-.37.74-.1,1.06l1.44,1.75Z"/><path d="m5.56,22c.22,0,.43-.09.58-.27l1.44-1.75c.26-.32.22-.79-.1-1.06-.32-.26-.79-.22-1.05.1l-1.44,1.75c-.26.32-.22.79.1,1.06.14.11.31.17.48.17Z"/></svg>