<svg xmlns="http://www.w3.org/2000/svg" width="24" height="24" viewBox="0 0 24 24"><g opacity="0.4"><path d="m3.41,19.53L21.19,1.75c-3-1.99-8.82.19-14.03,5.4-2.2,2.2-4,4.7-5.06,7.03-.75,1.66-.37,3.66.94,4.98l.37.37Z"/><path d="m4.47,20.59l.37.37c.87.87,2.03,1.33,3.19,1.33.61,0,1.22-.13,1.79-.38,2.33-1.06,4.82-2.85,7.03-5.06,2.47-2.47,4.38-5.23,5.38-7.78,1.02-2.59,1.02-4.77.02-6.26L4.47,20.59Z"/></g><path d="m4.47,20.59L22.25,2.81c-.14-.21-.3-.4-.48-.58-.18-.18-.38-.34-.58-.48L3.41,19.53l1.06,1.06Z"/></svg>