<svg xmlns="http://www.w3.org/2000/svg" width="24" height="24" viewBox="0 0 24 24"><g opacity="0.4"><path d="m12,1C5.93,1,1,5.93,1,12s4.93,11,11,11,11-4.93,11-11S18.07,1,12,1Zm-6,9c0-1.1.9-2,2-2s2,.9,2,2-.9,2-2,2-2-.9-2-2Zm8.75,7h-5.51c-.6,0-.97-.68-.62-1.17.59-.84,1.66-1.83,3.38-1.83s2.79.99,3.38,1.83c.35.49-.02,1.17-.62,1.17Zm1.25-5c-1.1,0-2-.9-2-2s.9-2,2-2,2,.9,2,2-.9,2-2,2Z"/></g><path d="M8 8A2 2 0 1 0 8 12 2 2 0 1 0 8 8z"/><path d="m8.62,15.83c-.35.49.02,1.17.62,1.17h5.51c.6,0,.97-.68.62-1.17-.59-.84-1.66-1.83-3.38-1.83s-2.79.99-3.38,1.83Z"/><path d="M16 8A2 2 0 1 0 16 12 2 2 0 1 0 16 8z"/></svg>