<svg xmlns="http://www.w3.org/2000/svg" width="24" height="24" viewBox="0 0 24 24"><g opacity="0.4"><path d="m12,1C5.93,1,1,5.93,1,12s4.93,11,11,11,11-4.93,11-11S18.07,1,12,1Zm1.48,12.18l-5.06,3.93c-.99.77-2.42.06-2.42-1.18v-7.87c0-1.25,1.44-1.95,2.42-1.18l5.06,3.93c.77.6.77,1.77,0,2.37Zm4.52,3.32c0,.83-.67,1.5-1.5,1.5s-1.5-.67-1.5-1.5V7.5c0-.83.67-1.5,1.5-1.5s1.5.67,1.5,1.5v9Z"/></g><path d="m16.5,18c.83,0,1.5-.67,1.5-1.5V7.5c0-.83-.67-1.5-1.5-1.5s-1.5.67-1.5,1.5v9c0,.83.67,1.5,1.5,1.5Z"/><path d="m8.42,17.12l5.06-3.93c.77-.6.77-1.77,0-2.37l-5.06-3.93c-.99-.77-2.42-.06-2.42,1.18v7.87c0,1.25,1.44,1.95,2.42,1.18Z"/></svg>