<svg xmlns="http://www.w3.org/2000/svg" width="24" height="24" viewBox="0 0 24 24"><g opacity="0.4"><path d="m21.14,6.6c-.52-.99-1.54-1.6-2.65-1.6H5.52c-1.12,0-2.13.61-2.65,1.6l-1.51,2.87c-.23.43-.35.92-.35,1.4v2.63c0,.65.42,1.2,1,1.41v.09h20v-.09c.58-.21,1-.76,1-1.41v-2.63c0-.49-.12-.97-.35-1.4l-1.52-2.87Z"/></g><path d="m5.5,4h13c.83,0,1.5-.67,1.5-1.5s-.67-1.5-1.5-1.5H5.5c-.83,0-1.5.67-1.5,1.5s.67,1.5,1.5,1.5Z"/><path d="m4.5,23h6c1.38,0,2.5-1.12,2.5-2.5v-5.5h-3v5h-5v-5h-3v5.5c0,1.38,1.12,2.5,2.5,2.5Z"/><path d="m19,21.5c0,.83.67,1.5,1.5,1.5s1.5-.67,1.5-1.5v-6.5h-3v6.5Z"/></svg>