<svg xmlns="http://www.w3.org/2000/svg" width="24" height="24" viewBox="0 0 24 24"><g opacity="0.4"><path d="m22.19,8.92c-.53-.39-1.22-.5-1.84-.29-1.5.51-5.15,2.07-8.36,6.08-3.26-4-6.84-5.57-8.32-6.07-.62-.22-1.31-.11-1.85.28-.53.39-.83,1.02-.81,1.68.27,7.53,4.58,12.4,10.99,12.4s10.7-4.99,10.99-12.41c.02-.65-.28-1.28-.8-1.67Z"/></g><path d="m10.5,2.91c-2.43,2.74-3.46,5.4-3.9,7.11,1.61.95,3.55,2.44,5.39,4.69,1.82-2.27,3.78-3.76,5.41-4.71-.44-1.71-1.47-4.36-3.89-7.08-.76-.85-2.24-.85-3,0Z"/></svg>