<svg xmlns="http://www.w3.org/2000/svg" width="24" height="24" viewBox="0 0 24 24"><g opacity="0.4"><path d="m12,1C5.92,1,1,5.25,1,10.5c0,2.38,1.02,4.55,2.7,6.22.19.19.3.44.3.71v2.07c0,1.38,1.12,2.5,2.5,2.5h.5v-3.25c0-.41.34-.75.75-.75s.75.34.75.75v3.25h2.75v-3.25c0-.41.34-.75.75-.75s.75.34.75.75v3.25h2.75v-3.25c0-.41.34-.75.75-.75s.75.34.75.75v3.25h.5c1.38,0,2.5-1.12,2.5-2.5v-2.07c0-.27.11-.52.3-.71,1.68-1.67,2.7-3.84,2.7-6.22,0-5.25-4.92-9.5-11-9.5Zm-4.5,12c-1.38,0-2.5-1.34-2.5-3s1.12-3,2.5-3,2.5,1.34,2.5,3-1.12,3-2.5,3Zm9,0c-1.38,0-2.5-1.34-2.5-3s1.12-3,2.5-3,2.5,1.34,2.5,3-1.12,3-2.5,3Z"/></g><path d="m7,18.75v3.25h1.5v-3.25c0-.41-.34-.75-.75-.75s-.75.34-.75.75Z"/><path d="m15.5,18.75v3.25h1.5v-3.25c0-.41-.34-.75-.75-.75s-.75.34-.75.75Z"/><path d="m12.75,18.75c0-.41-.34-.75-.75-.75s-.75.34-.75.75v3.25h1.5v-3.25Z"/><path d="M7.5 7A2.5 3 0 1 0 7.5 13 2.5 3 0 1 0 7.5 7z"/><path d="M16.5 7A2.5 3 0 1 0 16.5 13 2.5 3 0 1 0 16.5 7z"/></svg>