<svg xmlns="http://www.w3.org/2000/svg" width="24" height="24" viewBox="0 0 24 24"><g opacity="0.4"><path d="m11.69,1C5.96,1.16,1.16,5.96,1,11.69c-.13,4.6,2.65,8.83,6.92,10.53.76.3,1.56.45,2.35.45.37,0,.74-.04,1.1-.1-.24-.81-.38-1.68-.38-2.57,0-4.97,4.03-9,9-9,.89,0,1.75.13,2.56.38.2-1.14.1-2.33-.34-3.45-1.7-4.27-5.97-7.07-10.53-6.92Z"/></g><path d="m14.87,20.75l5.89-5.89c.98-.98,1.58-2.2,1.81-3.49-.81-.24-1.67-.38-2.56-.38-4.97,0-9,4.03-9,9,0,.89.13,1.75.38,2.57,1.29-.23,2.51-.84,3.49-1.82Z"/></svg>