<svg xmlns="http://www.w3.org/2000/svg" width="24" height="24" viewBox="0 0 24 24"><g opacity="0.4"><path d="M2 13c0 .83.67 1.5 1.5 1.5S5 13.83 5 13v-2c0-.83-.67-1.5-1.5-1.5S2 10.17 2 11zM11 22h2c.83 0 1.5-.67 1.5-1.5S13.83 19 13 19h-2c-.83 0-1.5.67-1.5 1.5S10.17 22 11 22M20.5 9.5c-.83 0-1.5.67-1.5 1.5v2c0 .83.67 1.5 1.5 1.5S22 13.83 22 13v-2c0-.83-.67-1.5-1.5-1.5M11 5h2c.83 0 1.5-.67 1.5-1.5S13.83 2 13 2h-2c-.83 0-1.5.67-1.5 1.5S10.17 5 11 5M3.5 8C4.33 8 5 7.33 5 6.5S5.67 5 6.5 5 8 4.33 8 3.5 7.33 2 6.5 2C4.02 2 2 4.02 2 6.5 2 7.33 2.67 8 3.5 8M17.5 2c-.83 0-1.5.67-1.5 1.5S16.67 5 17.5 5s1.5.67 1.5 1.5.67 1.5 1.5 1.5S22 7.33 22 6.5C22 4.02 19.98 2 17.5 2M17.5 22c2.48 0 4.5-2.02 4.5-4.5 0-.83-.67-1.5-1.5-1.5s-1.5.67-1.5 1.5-.67 1.5-1.5 1.5-1.5.67-1.5 1.5.67 1.5 1.5 1.5M6.5 22c.83 0 1.5-.67 1.5-1.5S7.33 19 6.5 19 5 18.33 5 17.5 4.33 16 3.5 16 2 16.67 2 17.5C2 19.98 4.02 22 6.5 22"/></g></svg>