<svg xmlns="http://www.w3.org/2000/svg" width="24" height="24" viewBox="0 0 24 24"><g opacity="0.4"><path d="m6.5,5h6c.83,0,1.5-.67,1.5-1.5s-.67-1.5-1.5-1.5h-6c-2.48,0-4.5,2.02-4.5,4.5v11c0,2.48,2.02,4.5,4.5,4.5h6c.83,0,1.5-.67,1.5-1.5s-.67-1.5-1.5-1.5h-6c-.83,0-1.5-.67-1.5-1.5V6.5c0-.83.67-1.5,1.5-1.5Z"/></g><path d="m17.5,2c-.83,0-1.5.67-1.5,1.5s.67,1.5,1.5,1.5,1.5.67,1.5,1.5.67,1.5,1.5,1.5,1.5-.67,1.5-1.5c0-2.48-2.02-4.5-4.5-4.5Z"/><path d="m20.5,16c-.83,0-1.5.67-1.5,1.5s-.67,1.5-1.5,1.5-1.5.67-1.5,1.5.67,1.5,1.5,1.5c2.48,0,4.5-2.02,4.5-4.5,0-.83-.67-1.5-1.5-1.5Z"/><path d="m20.5,10c-.83,0-1.5.67-1.5,1.5v1c0,.83.67,1.5,1.5,1.5s1.5-.67,1.5-1.5v-1c0-.83-.67-1.5-1.5-1.5Z"/></svg>