<svg xmlns="http://www.w3.org/2000/svg" width="24" height="24" viewBox="0 0 24 24"><g opacity="0.4"><path d="m7.5,2h-1c-2.48,0-4.5,2.02-4.5,4.5v1c0,.83.67,1.5,1.5,1.5s1.5-.67,1.5-1.5v-1c0-.83.67-1.5,1.5-1.5h1c.83,0,1.5-.67,1.5-1.5s-.67-1.5-1.5-1.5Z"/><path d="m17.5,2h-1c-.83,0-1.5.67-1.5,1.5s.67,1.5,1.5,1.5h1c.83,0,1.5.67,1.5,1.5v1c0,.83.67,1.5,1.5,1.5s1.5-.67,1.5-1.5v-1c0-2.48-2.02-4.5-4.5-4.5Z"/><path d="m20.5,15c-.83,0-1.5.67-1.5,1.5v1c0,.83-.67,1.5-1.5,1.5h-1c-.83,0-1.5.67-1.5,1.5s.67,1.5,1.5,1.5h1c2.48,0,4.5-2.02,4.5-4.5v-1c0-.83-.67-1.5-1.5-1.5Z"/><path d="m7.5,19h-1c-.83,0-1.5-.67-1.5-1.5v-1c0-.83-.67-1.5-1.5-1.5s-1.5.67-1.5,1.5v1c0,2.48,2.02,4.5,4.5,4.5h1c.83,0,1.5-.67,1.5-1.5s-.67-1.5-1.5-1.5Z"/></g><path d="m15.72,16.78c.15.15.34.22.53.22s.38-.07.53-.22c.29-.29.29-.77,0-1.06l-1.62-1.62c.52-.74.84-1.63.84-2.6,0-2.48-2.02-4.5-4.5-4.5s-4.5,2.02-4.5,4.5,2.02,4.5,4.5,4.5c.97,0,1.86-.32,2.6-.84l1.62,1.62Z"/></svg>