<svg xmlns="http://www.w3.org/2000/svg" width="24" height="24" viewBox="0 0 24 24"><g opacity="0.4"><path d="m20.7,1.5c-.54-.04-1.03.22-1.33.65-2.06,3.01-3.12,4.28-5.38,4.71-.61.12-1.27.15-1.98.18-.81.04-1.64.08-2.44.24-3.16.49-5.96,2.58-7.48,5.6-1.45,2.88-1.46,6.09-.03,8.81.24.47.72.77,1.24.8.03,0,.06,0,.09,0,.49,0,.96-.24,1.24-.65,2.06-3.01,3.12-4.28,5.38-4.71.61-.12,1.27-.15,1.98-.18.81-.04,1.64-.08,2.44-.24,3.16-.49,5.96-2.58,7.48-5.6,1.45-2.88,1.46-6.09.03-8.81-.24-.47-.72-.77-1.24-.8Z"/></g></svg>