<svg xmlns="http://www.w3.org/2000/svg" width="24" height="24" viewBox="0 0 24 24"><g opacity="0.4"><path d="m9,5c-3.86,0-7,3.29-7,7.33v1.17s0,.06,0,.09v.41h14v-1.67c0-4.04-3.14-7.33-7-7.33Z"/></g><path d="M16 3A1 1 0 1 0 16 5 1 1 0 1 0 16 3z"/><path d="M19 3A1 1 0 1 0 19 5 1 1 0 1 0 19 3z"/><path d="M19 6A1 1 0 1 0 19 8 1 1 0 1 0 19 6z"/><path d="M22 3A1 1 0 1 0 22 5 1 1 0 1 0 22 3z"/><path d="M22 6A1 1 0 1 0 22 8 1 1 0 1 0 22 6z"/><path d="M22 9A1 1 0 1 0 22 11 1 1 0 1 0 22 9z"/><path d="m12,5.72v-2.22c0-1.38-1.12-2.5-2.5-2.5h-1c-1.38,0-2.5,1.12-2.5,2.5v2.22c.91-.46,1.93-.72,3-.72s2.09.26,3,.72Z"/><path d="m2,20c0,1.65,1.35,3,3,3h8c1.65,0,3-1.35,3-3v-6H2v6Z"/></svg>