<svg xmlns="http://www.w3.org/2000/svg" width="24" height="24" viewBox="0 0 24 24"><g opacity="0.4"><path d="m6.5,1H2.5c-.83,0-1.5.67-1.5,1.5s.67,1.5,1.5,1.5h4c.28,0,.5.22.5.5v1.25H2.5c-.83,0-1.5.67-1.5,1.5s.67,1.5,1.5,1.5h4.5v1.75H2.5c-.83,0-1.5.67-1.5,1.5s.67,1.5,1.5,1.5h4.5v1.75H2.5c-.83,0-1.5.67-1.5,1.5s.67,1.5,1.5,1.5h4.5v1.25c0,.28-.22.5-.5.5H2.5c-.83,0-1.5.67-1.5,1.5s.67,1.5,1.5,1.5h4c1.93,0,3.5-1.57,3.5-3.5V4.5c0-1.93-1.57-3.5-3.5-3.5Z"/><path d="m20.5,10h-6c-1.38,0-2.5,1.12-2.5,2.5v7c0,1.93,1.57,3.5,3.5,3.5h4c1.93,0,3.5-1.57,3.5-3.5v-7c0-1.38-1.12-2.5-2.5-2.5Zm-.5,9.25c0,.41-.34.75-.75.75s-.75-.34-.75-.75v-5.5c0-.41.34-.75.75-.75s.75.34.75.75v5.5Z"/></g><path d="m20.5,10c.57,0,1.08.2,1.5.51V3.5c0-1.38-1.12-2.5-2.5-2.5h-1c-3.03,0-5.5,2.47-5.5,5.5v4.01c.42-.32.93-.51,1.5-.51h6Z"/><path d="m18.5,13.75v5.5c0,.41.34.75.75.75s.75-.34.75-.75v-5.5c0-.41-.34-.75-.75-.75s-.75.34-.75.75Z"/></svg>