<svg xmlns="http://www.w3.org/2000/svg" width="24" height="24" viewBox="0 0 24 24"><g opacity="0.4"><path d="m12,3C6.49,3,2,7.49,2,13s4.49,10,10,10,10-4.49,10-10S17.51,3,12,3Zm1.5,9.5c0,.83-.67,1.5-1.5,1.5s-1.5-.67-1.5-1.5v-4c0-.83.67-1.5,1.5-1.5s1.5.67,1.5,1.5v4Z"/></g><path d="m13.5,3.12v-.62c0-.83-.67-1.5-1.5-1.5s-1.5.67-1.5,1.5v.62c.49-.07.99-.12,1.5-.12s1.01.05,1.5.12Z"/><path d="m20.04,7.08l.44-.44c.59-.59.59-1.54,0-2.12-.59-.59-1.54-.59-2.12,0l-.44.44c.81.6,1.52,1.31,2.12,2.12Z"/><path d="m12,14c.83,0,1.5-.67,1.5-1.5v-4c0-.83-.67-1.5-1.5-1.5s-1.5.67-1.5,1.5v4c0,.83.67,1.5,1.5,1.5Z"/></svg>