<svg xmlns="http://www.w3.org/2000/svg" width="24" height="24" viewBox="0 0 24 24"><g opacity="0.4"><path d="m13.5,5.5H5.5c-.83,0-1.5.67-1.5,1.5v2c0,.83.67,1.5,1.5,1.5s1.5-.67,1.5-1.5v-.5h1v7h-.75c-.83,0-1.5.67-1.5,1.5s.67,1.5,1.5,1.5h4.5c.83,0,1.5-.67,1.5-1.5s-.67-1.5-1.5-1.5h-.75v-7h1v.5c0,.83.67,1.5,1.5,1.5s1.5-.67,1.5-1.5v-2c0-.83-.67-1.5-1.5-1.5Z"/></g><path d="m18.5,19.5h-.75v-3.75c0-.41-.34-.75-.75-.75h-1.5c-.41,0-.75.34-.75.75s.34.75.75.75h.75v3h-.75c-.41,0-.75.34-.75.75s.34.75.75.75h3c.41,0,.75-.34.75-.75s-.34-.75-.75-.75Z"/></svg>