<svg xmlns="http://www.w3.org/2000/svg" width="24" height="24" viewBox="0 0 24 24"><g opacity="0.4"><path d="m14.47,9.34c-1.37-1.37-3.59-1.36-4.95,0l-3.18,3.18c-1.36,1.36-1.36,3.58,0,4.95l3.18,3.18c.68.68,1.58,1.02,2.47,1.02s1.79-.34,2.47-1.02l3.18-3.18c1.36-1.36,1.36-3.58,0-4.95l-3.18-3.18Z"/></g><path d="m12,1c-3.21,0-6.17,1.39-8.24,3.76l-1.48-1.48c-.47-.47-1.28-.14-1.28.53v4.44c0,.41.34.75.75.75h4.44c.67,0,1-.81.53-1.28l-.84-.84c1.51-1.82,3.73-2.88,6.12-2.88,4.41,0,8,3.59,8,8,0,.83.67,1.5,1.5,1.5s1.5-.67,1.5-1.5c0-6.07-4.93-11-11-11Z"/></svg>