<svg xmlns="http://www.w3.org/2000/svg" width="24" height="24" viewBox="0 0 24 24"><g opacity="0.4"><path d="m9.5,12.06c0-1.83.4-3.64,1.2-5.27-.2-.29-.41-.56-.67-.82-1.96-1.96-5.03-2.05-6.68-1.94-1.24.08-2.23,1.08-2.32,2.31-.12,1.66-.02,4.73,1.94,6.68,1.64,1.64,4.04,1.98,5.73,1.98.29,0,.56-.01.8-.03v-2.92Z"/></g><path d="m20.67,2.06c-2.08-.18-5.91-.12-8.32,2.29-.19.19-.39.43-.59.69-1.52,2.01-2.27,4.5-2.27,7.02v8.44c0,.83.67,1.5,1.5,1.5s1.5-.67,1.5-1.5v-5.55c.34.03.74.04,1.19.04,2.04,0,4.99-.39,6.95-2.35,2.41-2.41,2.47-6.25,2.29-8.32-.1-1.21-1.06-2.17-2.27-2.27Z"/></svg>