<svg xmlns="http://www.w3.org/2000/svg" width="24" height="24" viewBox="0 0 24 24"><g opacity="0.4"><path d="m13.42,10.68c-.27.21-.6.32-.92.32-.45,0-.89-.2-1.18-.58-.51-.65-.39-1.6.26-2.1l6.14-4.78c-1.69-1.53-3.8-2.43-6-2.53-2.43-.12-4.68.73-6.33,2.38-3.37,3.37-3.14,9.07.5,12.72,1.75,1.75,4.02,2.77,6.39,2.88.15,0,.29.01.44.01,2.26,0,4.34-.84,5.89-2.39,1.65-1.65,2.5-3.9,2.38-6.32-.07-1.56-.55-3.08-1.36-4.43l-6.21,4.83Z"/></g><path d="m20.58,1.32l-9,7c-.65.51-.77,1.45-.26,2.1.29.38.74.58,1.18.58.32,0,.65-.1.92-.32l9-7c.65-.51.77-1.45.26-2.1-.51-.65-1.45-.77-2.1-.26Z"/><path d="m5.5,23h6c.83,0,1.5-.67,1.5-1.5s-.67-1.5-1.5-1.5h-1.5v-1.42c-1.07-.33-2.08-.84-3-1.53v2.95h-1.5c-.83,0-1.5.67-1.5,1.5s.67,1.5,1.5,1.5Z"/></svg>