<svg xmlns="http://www.w3.org/2000/svg" width="24" height="24" viewBox="0 0 24 24"><g opacity="0.4"><path d="m20.28,8.76l-2.22-.96-1.58,3.68c-.12.28-.4.45-.69.45-.1,0-.2-.02-.29-.06-.38-.16-.56-.6-.39-.98l1.58-3.69-2.29-1-1.59,3.7c-.12.28-.4.45-.69.45-.1,0-.2-.02-.3-.06-.38-.16-.56-.6-.39-.98l1.59-3.71-3.02-1.31c-.52-.22-1.09-.3-1.65-.21l-4.8.74c-1.47.23-2.54,1.47-2.54,2.97v8.21h22v-3.1c0-1.8-1.07-3.43-2.72-4.13Z"/></g><path d="m15.5,11.88c.1.04.2.06.29.06.29,0,.57-.17.69-.45l1.58-3.68-1.38-.6-1.58,3.69c-.16.38.01.82.39.98Z"/><path d="m11.82,10.3c.1.04.2.06.3.06.29,0,.57-.17.69-.45l1.59-3.7-1.38-.6-1.59,3.71c-.16.38.01.82.39.98Z"/><path d="m1,18c0,1.66,1.34,3,3,3h16c1.66,0,3-1.34,3-3v-2H1v2Z"/></svg>