<svg xmlns="http://www.w3.org/2000/svg" width="24" height="24" viewBox="0 0 24 24"><g opacity="0.4"><path class="st0" d="M12,7c-1.6,0-3.1,0.7-4.2,1.8S6,11.4,6,13v6h12v-6c0-1.6-0.7-3.1-1.8-4.2S13.6,7,12,7z"/></g><path d="m20.56,21.56c.27-.27.44-.65.44-1.06s-.17-.79-.44-1.06-.65-.44-1.06-.44H4.5c-.41,0-.79.17-1.06.44s-.44.65-.44,1.06.17.79.44,1.06.65.44,1.06.44h15c.41,0,.79-.17,1.06-.44Z"/><path d="m12,5c.21,0,.39-.08.53-.22s.22-.32.22-.53v-1.5c0-.21-.08-.39-.22-.53s-.32-.22-.53-.22-.39.08-.53.22-.22.32-.22.53v1.5c0,.21.08.39.22.53s.32.22.53.22Z"/><path d="m22.25,11.5h-1.5c-.21,0-.39.08-.53.22s-.22.32-.22.53.08.39.22.53.32.22.53.22h1.5c.21,0,.39-.08.53-.22s.22-.32.22-.53-.08-.39-.22-.53-.32-.22-.53-.22Z"/><path d="m1.75,13h1.5c.21,0,.39-.08.53-.22s.22-.32.22-.53-.08-.39-.22-.53-.32-.22-.53-.22h-1.5c-.21,0-.39.08-.53.22s-.22.32-.22.53.08.39.22.53.32.22.53.22Z"/><path d="m17.87,6.79c.09.04.19.05.28.05s.19-.02.28-.05.17-.09.25-.16l.56-.56.56-.56c.15-.15.22-.34.22-.53s-.07-.38-.22-.53-.34-.22-.53-.22-.38.07-.53.22l-.56.56-.56.56c-.15.15-.22.34-.22.53s.07.38.22.53c.07.07.16.13.25.16Z"/><path d="m4.75,6.06l.56.56c.07.07.16.13.25.16s.19.05.28.05.19-.02.28-.05.17-.09.25-.16c.15-.15.22-.34.22-.53s-.07-.38-.22-.53l-.56-.56-.56-.56c-.15-.15-.34-.22-.53-.22s-.38.07-.53.22-.22.34-.22.53.07.38.22.53l.56.56Z"/></svg>