<svg xmlns="http://www.w3.org/2000/svg" width="24" height="24" viewBox="0 0 24 24"><g opacity="0.4"><path d="m13.81,7h-3.61c-1.72,0-3.17,1.23-3.45,2.92l-1.51,9.08h13.54l-1.51-9.08c-.28-1.69-1.73-2.92-3.45-2.92Z"/></g><path d="m12,5c.21,0,.39-.08.53-.22s.22-.32.22-.53v-1.5c0-.21-.08-.39-.22-.53s-.32-.22-.53-.22-.39.08-.53.22-.22.32-.22.53v1.5c0,.21.08.39.22.53s.32.22.53.22Z"/><path d="m22.25,11.5h-1.5c-.21,0-.39.08-.53.22s-.22.32-.22.53.08.39.22.53.32.22.53.22h1.5c.21,0,.39-.08.53-.22s.22-.32.22-.53-.08-.39-.22-.53-.32-.22-.53-.22Z"/><path d="m3.78,12.78c.14-.14.22-.32.22-.53s-.08-.39-.22-.53-.32-.22-.53-.22h-1.5c-.21,0-.39.08-.53.22s-.22.32-.22.53.08.39.22.53.32.22.53.22h1.5c.21,0,.39-.08.53-.22Z"/><path d="m17.87,6.79c.09.04.19.05.28.05s.19-.02.28-.05.17-.09.25-.16l.56-.56.56-.56c.15-.15.22-.34.22-.53s-.07-.38-.22-.53-.34-.22-.53-.22-.38.07-.53.22l-.56.56-.56.56c-.15.15-.22.34-.22.53s.07.38.22.53c.07.07.16.13.25.16Z"/><path d="m4.75,6.06l.56.56c.07.07.16.13.25.16s.19.05.28.05.19-.02.28-.05.17-.09.25-.16c.15-.15.22-.34.22-.53s-.07-.38-.22-.53l-.56-.56-.56-.56c-.15-.15-.34-.22-.53-.22s-.38.07-.53.22-.22.34-.22.53.07.38.22.53l.56.56Z"/><path d="m19.5,19H4.5c-.83,0-1.5.67-1.5,1.5s.67,1.5,1.5,1.5h15c.83,0,1.5-.67,1.5-1.5s-.67-1.5-1.5-1.5Z"/></svg>