<svg xmlns="http://www.w3.org/2000/svg" width="24" height="24" viewBox="0 0 24 24"><g opacity="0.4"><path d="M3.5 2A1.5 1.5 0 1 0 3.5 5 1.5 1.5 0 1 0 3.5 2z"/><path d="M7.75 2A1.5 1.5 0 1 0 7.75 5 1.5 1.5 0 1 0 7.75 2z"/><path d="M12 2A1.5 1.5 0 1 0 12 5 1.5 1.5 0 1 0 12 2z"/><path d="M16.25 2A1.5 1.5 0 1 0 16.25 5 1.5 1.5 0 1 0 16.25 2z"/><path d="M20.5 2A1.5 1.5 0 1 0 20.5 5 1.5 1.5 0 1 0 20.5 2z"/><path d="M3.5 19A1.5 1.5 0 1 0 3.5 22 1.5 1.5 0 1 0 3.5 19z"/><path d="M7.75 19A1.5 1.5 0 1 0 7.75 22 1.5 1.5 0 1 0 7.75 19z"/><path d="M12 19A1.5 1.5 0 1 0 12 22 1.5 1.5 0 1 0 12 19z"/><path d="M16.25 19A1.5 1.5 0 1 0 16.25 22 1.5 1.5 0 1 0 16.25 19z"/><path d="M20.5 19A1.5 1.5 0 1 0 20.5 22 1.5 1.5 0 1 0 20.5 19z"/><path d="M20.5 6.25A1.5 1.5 0 1 0 20.5 9.25 1.5 1.5 0 1 0 20.5 6.25z"/><path d="M20.5 10.5A1.5 1.5 0 1 0 20.5 13.5 1.5 1.5 0 1 0 20.5 10.5z"/><path d="M20.5 14.75A1.5 1.5 0 1 0 20.5 17.75 1.5 1.5 0 1 0 20.5 14.75z"/><path d="M3.5 6.25A1.5 1.5 0 1 0 3.5 9.25 1.5 1.5 0 1 0 3.5 6.25z"/><path d="M3.5 10.5A1.5 1.5 0 1 0 3.5 13.5 1.5 1.5 0 1 0 3.5 10.5z"/><path d="M3.5 14.75A1.5 1.5 0 1 0 3.5 17.75 1.5 1.5 0 1 0 3.5 14.75z"/></g><rect x="7" y="7" width="4" height="4" rx="1.5" ry="1.5"/><rect x="13" y="7" width="4" height="4" rx="1.5" ry="1.5"/><rect x="7" y="13" width="4" height="4" rx="1.5" ry="1.5"/><rect x="13" y="13" width="4" height="4" rx="1.5" ry="1.5"/></svg>