<svg xmlns="http://www.w3.org/2000/svg" width="24" height="24" viewBox="0 0 24 24"><g opacity="0.4"><path d="M12 6A6 6 0 1 0 12 18 6 6 0 1 0 12 6z"/></g><path d="m12,22c.41,0,.75-.34.75-.75v-.5c0-.41-.34-.75-.75-.75s-.75.34-.75.75v.5c0,.41.34.75.75.75Z"/><path d="m12,4c.41,0,.75-.34.75-.75v-.5c0-.41-.34-.75-.75-.75s-.75.34-.75.75v.5c0,.41.34.75.75.75Z"/><path d="m3.25,11.25h-.5c-.41,0-.75.34-.75.75s.34.75.75.75h.5c.41,0,.75-.34.75-.75s-.34-.75-.75-.75Z"/><path d="m21.25,11.25h-.5c-.41,0-.75.34-.75.75s.34.75.75.75h.5c.41,0,.75-.34.75-.75s-.34-.75-.75-.75Z"/><path d="m6.34,17.66c-.29-.29-.77-.29-1.06,0l-.35.35c-.29.29-.29.77,0,1.06.15.15.34.22.53.22s.38-.07.53-.22l.35-.35c.29-.29.29-.77,0-1.06Z"/><path d="m18.01,4.93l-.35.35c-.29.29-.29.77,0,1.06.15.15.34.22.53.22s.38-.07.53-.22l.35-.35c.29-.29.29-.77,0-1.06s-.77-.29-1.06,0Z"/><path d="m5.28,6.34c.15.15.34.22.53.22s.38-.07.53-.22c.29-.29.29-.77,0-1.06l-.35-.35c-.29-.29-.77-.29-1.06,0s-.29.77,0,1.06l.35.35Z"/><path d="m18.72,17.66c-.29-.29-.77-.29-1.06,0s-.29.77,0,1.06l.35.35c.15.15.34.22.53.22s.38-.07.53-.22c.29-.29.29-.77,0-1.06l-.35-.35Z"/></svg>