<svg xmlns="http://www.w3.org/2000/svg" width="24" height="24" viewBox="0 0 24 24"><g opacity="0.4"><path d="m9.53,7.4c-.59-.59-1.54-.59-2.12,0-1.23,1.23-1.9,2.86-1.9,4.6s.68,3.37,1.9,4.6c.29.29.68.44,1.06.44s.77-.15,1.06-.44c.59-.59.59-1.54,0-2.12-.66-.66-1.03-1.54-1.03-2.47s.36-1.81,1.03-2.47c.59-.59.59-1.54,0-2.12Z"/><path d="m14.47,7.4c-.59.59-.59,1.54,0,2.12.66.66,1.03,1.54,1.03,2.47s-.36,1.81-1.03,2.47c-.59.59-.59,1.54,0,2.12.29.29.68.44,1.06.44s.77-.15,1.06-.44c1.23-1.23,1.9-2.86,1.9-4.6s-.68-3.37-1.9-4.6c-.59-.58-1.54-.59-2.12,0Z"/></g><path class="st0" d="M6.3,17.7c-3.1-3.1-3.1-8.2,0-11.3c0.6-0.6,0.6-1.5,0-2.1c-0.6-0.6-1.5-0.6-2.1,0c-4.3,4.3-4.3,11.3,0,15.6
	c0.3,0.3,0.7,0.4,1.1,0.4s0.8-0.1,1.1-0.4C6.9,19.2,6.9,18.2,6.3,17.7z"/><path class="st0" d="M17.7,4.2c-0.6,0.6-0.6,1.5,0,2.1c3.1,3.1,3.1,8.2,0,11.3c-0.6,0.6-0.6,1.5,0,2.1c0.3,0.3,0.7,0.4,1.1,0.4
	s0.8-0.1,1.1-0.4c4.3-4.3,4.3-11.3,0-15.6C19.2,3.6,18.2,3.6,17.7,4.2L17.7,4.2z"/><path class="st0" d="M12,10c-1.1,0-2,0.9-2,2s0.9,2,2,2s2-0.9,2-2S13.1,10,12,10z"/></svg>