<svg xmlns="http://www.w3.org/2000/svg" width="24" height="24" viewBox="0 0 24 24"><g opacity="0.4"><path d="m19.38,7.83l-3.67-.29-.99-2.19h0s-.67-1.49-.67-1.49c-.36-.8-1.17-1.32-2.05-1.32v16.43h.3l1.87,1.25h0s1.3.87,1.3.87c.79.53,1.8.51,2.57-.05.77-.56,1.1-1.52.84-2.44l-.44-1.54h0s-.7-2.44-.7-2.44l.07-.26,1.69-1.52h0s1.2-1.08,1.2-1.08c.67-.6.92-1.54.63-2.39-.29-.85-1.06-1.45-1.95-1.52Z"/></g><path d="m12,2.54c-.88,0-1.69.52-2.05,1.32l-.67,1.49h0s-.99,2.19-.99,2.19l-3.67.29c-.9.07-1.67.67-1.95,1.52-.29.85-.04,1.79.63,2.39l1.2,1.08h0s1.69,1.52,1.69,1.52l.07.26-.7,2.44h0s-.44,1.54-.44,1.54c-.26.92.07,1.87.84,2.44.4.29.86.44,1.32.44.43,0,.87-.13,1.25-.38l1.3-.87h0s1.87-1.25,1.87-1.25h.3V2.54Z"/></svg>