<svg xmlns="http://www.w3.org/2000/svg" width="24" height="24" viewBox="0 0 24 24"><g opacity="0.4"><path d="m2.5,6h1.85c-.22-.46-.35-.96-.35-1.5s.13-1.04.35-1.5h-1.85c-.83,0-1.5.67-1.5,1.5s.67,1.5,1.5,1.5Z"/><path d="m2.5,18c-.83,0-1.5.67-1.5,1.5s.67,1.5,1.5,1.5h1.85c-.22-.46-.35-.96-.35-1.5s.13-1.04.35-1.5h-1.85Z"/><path d="m2.5,13.5h10.85c-.22-.46-.35-.96-.35-1.5s.13-1.04.35-1.5H2.5c-.83,0-1.5.67-1.5,1.5s.67,1.5,1.5,1.5Z"/><path d="m21.5,3h-10.85c.22.46.35.96.35,1.5s-.13,1.04-.35,1.5h10.85c.83,0,1.5-.67,1.5-1.5s-.67-1.5-1.5-1.5Z"/><path d="m21.5,18h-10.85c.22.46.35.96.35,1.5s-.13,1.04-.35,1.5h10.85c.83,0,1.5-.67,1.5-1.5s-.67-1.5-1.5-1.5Z"/><path d="m21.5,10.5h-1.85c.22.46.35.96.35,1.5s-.13,1.04-.35,1.5h1.85c.83,0,1.5-.67,1.5-1.5s-.67-1.5-1.5-1.5Z"/></g><path d="M7.5 1A3.5 3.5 0 1 0 7.5 8 3.5 3.5 0 1 0 7.5 1z"/><path d="M7.5 16A3.5 3.5 0 1 0 7.5 23 3.5 3.5 0 1 0 7.5 16z"/><path d="M16.5 8.5A3.5 3.5 0 1 0 16.5 15.5 3.5 3.5 0 1 0 16.5 8.5z"/></svg>