<svg xmlns="http://www.w3.org/2000/svg" width="24" height="24" viewBox="0 0 24 24"><g opacity="0.4"><path d="m5.05,9.38c.42,2.1,2.27,3.62,4.41,3.62h5.08c2.14,0,3.99-1.51,4.41-3.62l.68-3.38H4.37l.68,3.38Z"/></g><path d="m11.77,22.31c.1-1.38.49-2.16.9-2.98.44-.88.93-1.86,1.05-3.52.03-.44-.31-.82-.75-.82-.39,0-.72.3-.74.69-.1,1.38-.49,2.16-.9,2.98-.44.88-.93,1.85-1.05,3.52-.03.44.31.82.75.82.39,0,.72-.3.74-.69Z"/><path d="m8.27,22.31c.1-1.38.49-2.16.9-2.98.44-.88.93-1.86,1.05-3.52.03-.44-.31-.82-.75-.82-.39,0-.72.3-.74.69-.1,1.38-.49,2.16-.9,2.98-.44.88-.93,1.85-1.05,3.52-.03.44.31.82.75.82.39,0,.72-.3.74-.69Z"/><path d="m15.27,22.31c.1-1.38.49-2.16.9-2.98.44-.88.93-1.86,1.05-3.52.03-.44-.31-.82-.75-.82-.39,0-.72.3-.74.69-.1,1.38-.49,2.16-.9,2.98-.44.88-.93,1.85-1.05,3.52-.03.44.31.82.75.82.39,0,.72-.3.74-.69Z"/><path d="m20.5,1H3.5c-1.38,0-2.5,1.12-2.5,2.5s1.12,2.5,2.5,2.5h17c1.38,0,2.5-1.12,2.5-2.5s-1.12-2.5-2.5-2.5Z"/></svg>