<svg xmlns="http://www.w3.org/2000/svg" width="24" height="24" viewBox="0 0 24 24"><g opacity="0.4"><path d="m9.84,1.22c-2.84.57-5.28,2.23-6.87,4.53-1.85,2.77-1.2,6.55,1.52,8.52,2.15,1.56,4.95,1.54,7.06.19-.11-.02-.21-.05-.31-.09h0c-.06,0-.12-.03-.17-.06-.01,0-.02,0-.04-.01-3.66-1.32-5.65-5.33-4.44-9.06.56-1.72,1.71-3.13,3.27-4.03Z"/><path d="m16.75,4.75c1.85,0,3.54.71,4.83,1.86-1.35-2.39-3.57-4.23-6.23-5.08-1.57-.5-3.24-.36-4.72.39-1.49.76-2.59,2.05-3.11,3.64-.82,2.53.06,5.2,2.01,6.78-.01-.11-.03-.22-.03-.33h0c0-4,3.25-7.25,7.25-7.25Z"/><path d="m13.81,10.28c.08.08.14.16.21.25h0s.02.03.03.05c.01.02.02.03.03.05,2.26,3.23,1.53,7.7-1.67,10.02-1.28.93-2.77,1.38-4.25,1.38-.24,0-.49-.02-.73-.04,1.39.64,2.93,1,4.56,1,1.21,0,2.38-.21,3.47-.57,1.55-.53,2.82-1.61,3.56-3.07.76-1.49.89-3.18.38-4.77-.82-2.52-3.1-4.16-5.6-4.3Z"/><path d="m11.83,19.85c2.15-1.56,3-4.24,2.36-6.67-.05.1-.11.19-.17.28h0c-1.42,1.95-3.63,2.99-5.88,2.99-1.48,0-2.97-.45-4.25-1.38-1.5-1.09-2.45-2.66-2.82-4.35-.05.42-.08.84-.08,1.27,0,2.57.89,4.93,2.37,6.81,2.09,2.49,5.79,2.98,8.46,1.04Z"/><path d="m16.75,5.75c-2.65,0-4.92,1.66-5.82,4,.1-.05.2-.08.31-.12h0c1.84-.61,3.81-.46,5.53.42,1.73.88,3,2.38,3.6,4.22.55,1.7.46,3.5-.25,5.13,1.79-1.96,2.89-4.55,2.89-7.41h0c0-3.45-2.8-6.25-6.25-6.25Z"/></g><path d="m3.9,15.07c1.28.93,2.77,1.38,4.25,1.38,2.24,0,4.46-1.04,5.88-2.99h0c.07-.09.12-.19.17-.29.64,2.42-.21,5.11-2.36,6.67-2.63,1.91-6.24,1.46-8.35-.93,1.06,1.3,2.41,2.37,3.96,3.08.24.02.48.04.73.04,1.48,0,2.97-.45,4.25-1.38,3.2-2.33,3.93-6.8,1.67-10.02-.01-.02-.02-.03-.03-.05-.01-.02-.02-.04-.03-.05h0c-.06-.08-.13-.17-.21-.25,2.5.14,4.78,1.78,5.6,4.3.52,1.59.38,3.28-.38,4.77-.75,1.46-2.01,2.55-3.56,3.07,1.8-.6,3.38-1.65,4.63-3.02.71-1.63.81-3.43.25-5.13-.6-1.84-1.88-3.34-3.6-4.22-1.73-.88-3.69-1.03-5.53-.44h0c-.11.05-.21.08-.31.13.91-2.34,3.17-4,5.82-4,3.2,0,5.83,2.41,6.2,5.51-.11-1.68-.59-3.26-1.38-4.65-1.28-1.15-2.97-1.86-4.83-1.86-4,0-7.25,3.25-7.25,7.25h0c0,.11.02.22.03.33-1.95-1.58-2.83-4.25-2.01-6.78.52-1.59,1.62-2.88,3.11-3.64,1.47-.75,3.15-.88,4.72-.39-1.06-.34-2.18-.52-3.35-.52-.75,0-1.47.08-2.18.23-1.54.9-2.7,2.3-3.25,4.02-1.21,3.73.78,7.74,4.44,9.06.01,0,.02,0,.04.01.06.02.11.05.17.07h0c.1.02.2.06.31.08-2.11,1.36-4.92,1.37-7.06-.19-2.65-1.93-3.33-5.55-1.65-8.3-.93,1.4-1.55,3.02-1.75,4.77.36,1.69,1.31,3.25,2.81,4.34Z"/></svg>