<svg xmlns="http://www.w3.org/2000/svg" width="24" height="24" viewBox="0 0 24 24"><g opacity="0.4"><path d="M12 10A2 2 0 1 0 12 14 2 2 0 1 0 12 10z"/><path d="m17.5,2H6.5c-2.48,0-4.5,2.02-4.5,4.5v11c0,2.48,2.02,4.5,4.5,4.5h11c2.48,0,4.5-2.02,4.5-4.5V6.5c0-2.48-2.02-4.5-4.5-4.5Zm-.5,10c0,1.02-.31,1.96-.83,2.75l1.33,1.33c.39.39.39,1.02,0,1.41-.39.39-1.02.39-1.41,0l-1.33-1.33c-.79.52-1.74.83-2.75.83s-1.96-.31-2.75-.83l-1.33,1.33c-.39.39-1.02.39-1.41,0-.39-.39-.39-1.02,0-1.41l1.33-1.33c-.52-.79-.83-1.74-.83-2.75s.31-1.96.83-2.75l-1.33-1.33c-.39-.39-.39-1.02,0-1.41.39-.39,1.02-.39,1.41,0l1.33,1.33c.79-.52,1.74-.83,2.75-.83s1.96.31,2.75.83l1.33-1.33c.39-.39,1.02-.39,1.41,0,.39.39.39,1.02,0,1.41l-1.33,1.33c.52.79.83,1.74.83,2.75Z"/></g><path d="m6.5,17.5c.39.39,1.02.39,1.41,0l1.33-1.33c.79.52,1.74.83,2.75.83s1.96-.31,2.75-.83l1.33,1.33c.39.39,1.02.39,1.41,0,.39-.39.39-1.02,0-1.41l-1.33-1.33c.52-.79.83-1.74.83-2.75s-.31-1.96-.83-2.75l1.33-1.33c.39-.39.39-1.02,0-1.41-.39-.39-1.02-.39-1.41,0l-1.33,1.33c-.79-.52-1.74-.83-2.75-.83s-1.96.31-2.75.83l-1.33-1.33c-.39-.39-1.02-.39-1.41,0-.39.39-.39,1.02,0,1.41l1.33,1.33c-.52.79-.83,1.74-.83,2.75s.31,1.96.83,2.75l-1.33,1.33c-.39.39-.39,1.02,0,1.41Zm5.5-7.5c1.1,0,2,.9,2,2s-.9,2-2,2-2-.9-2-2,.9-2,2-2Z"/></svg>