<svg xmlns="http://www.w3.org/2000/svg" width="24" height="24" viewBox="0 0 24 24"><g opacity="0.4"><path d="m7.5,2h-1c-2.48,0-4.5,2.02-4.5,4.5v1c0,.83.67,1.5,1.5,1.5s1.5-.67,1.5-1.5v-1c0-.83.67-1.5,1.5-1.5h1c.83,0,1.5-.67,1.5-1.5s-.67-1.5-1.5-1.5Z"/><path d="m17.5,2h-1c-.83,0-1.5.67-1.5,1.5s.67,1.5,1.5,1.5h1c.83,0,1.5.67,1.5,1.5v1c0,.83.67,1.5,1.5,1.5s1.5-.67,1.5-1.5v-1c0-2.48-2.02-4.5-4.5-4.5Z"/><path d="m20.5,15c-.83,0-1.5.67-1.5,1.5v1c0,.83-.67,1.5-1.5,1.5h-1c-.83,0-1.5.67-1.5,1.5s.67,1.5,1.5,1.5h1c2.48,0,4.5-2.02,4.5-4.5v-1c0-.83-.67-1.5-1.5-1.5Z"/><path d="m7.5,19h-1c-.83,0-1.5-.67-1.5-1.5v-1c0-.83-.67-1.5-1.5-1.5s-1.5.67-1.5,1.5v1c0,2.48,2.02,4.5,4.5,4.5h1c.83,0,1.5-.67,1.5-1.5s-.67-1.5-1.5-1.5Z"/></g><path d="M8.5 8A1.5 1.5 0 1 0 8.5 11 1.5 1.5 0 1 0 8.5 8z"/><path d="m15.5,11c.83,0,1.5-.67,1.5-1.5s-.67-1.5-1.5-1.5-1.5.67-1.5,1.5.67,1.5,1.5,1.5Z"/><path d="m16.07,15.07c.29-.29.29-.77,0-1.06-.29-.29-.77-.29-1.06,0-.19.19-.4.37-.63.52-.23.15-.47.29-.72.39-.26.11-.53.19-.8.25-.56.11-1.15.11-1.71,0-.27-.06-.54-.14-.8-.25-.25-.11-.49-.24-.72-.39-.23-.15-.44-.33-.63-.52-.29-.29-.77-.29-1.06,0-.29.29-.29.77,0,1.06.26.26.54.5.85.7.31.21.64.39.98.53.35.15.71.26,1.08.34.38.08.77.12,1.16.12s.78-.04,1.16-.12c.37-.08.73-.19,1.08-.34.34-.14.67-.32.98-.53.31-.21.59-.44.85-.7Z"/></svg>