<svg xmlns="http://www.w3.org/2000/svg" width="24" height="24" viewBox="0 0 24 24"><g opacity="0.4"><path d="m12.05,6h0c1.38,0,2.28.4,2.7,1.2.38.73,1.29,1.02,2.02.63.73-.38,1.02-1.29.63-2.03-.55-1.05-1.97-2.8-5.36-2.8-5.58,0-7.06,3.11-7.06,4.75,0,1.12.19,2.02.51,2.75h5.44c-2.72,0-2.95-1.3-2.95-2.75,0-.37.69-1.75,4.06-1.75Z"/><path d="m12.61,13.5c3.39,0,3.39,1.66,3.39,2.75,0,1.58-3.23,1.75-4.61,1.75-1.1,0-2.54-.22-3.13-1.25-.41-.72-1.33-.96-2.05-.55-.72.41-.96,1.33-.55,2.05.72,1.25,2.3,2.75,5.73,2.75,6.62,0,7.61-2.98,7.61-4.75,0-1.12-.21-2.02-.55-2.75h-5.84Z"/></g><path d="m19.5,10.5H4.5c-.83,0-1.5.67-1.5,1.5s.67,1.5,1.5,1.5h15c.83,0,1.5-.67,1.5-1.5s-.67-1.5-1.5-1.5Z"/></svg>