<svg xmlns="http://www.w3.org/2000/svg" width="24" height="24" viewBox="0 0 24 24"><g opacity="0.4"><path d="m7.5,2h-1c-2.48,0-4.5,2.02-4.5,4.5v1c0,.83.67,1.5,1.5,1.5s1.5-.67,1.5-1.5v-1c0-.83.67-1.5,1.5-1.5h1c.83,0,1.5-.67,1.5-1.5s-.67-1.5-1.5-1.5Z"/><path d="m17.5,2h-1c-.83,0-1.5.67-1.5,1.5s.67,1.5,1.5,1.5h1c.83,0,1.5.67,1.5,1.5v1c0,.83.67,1.5,1.5,1.5s1.5-.67,1.5-1.5v-1c0-2.48-2.02-4.5-4.5-4.5Z"/><path d="m20.5,15c-.83,0-1.5.67-1.5,1.5v1c0,.83-.67,1.5-1.5,1.5h-1c-.83,0-1.5.67-1.5,1.5s.67,1.5,1.5,1.5h1c2.48,0,4.5-2.02,4.5-4.5v-1c0-.83-.67-1.5-1.5-1.5Z"/><path d="m7.5,19h-1c-.83,0-1.5-.67-1.5-1.5v-1c0-.83-.67-1.5-1.5-1.5s-1.5.67-1.5,1.5v1c0,2.48,2.02,4.5,4.5,4.5h1c.83,0,1.5-.67,1.5-1.5s-.67-1.5-1.5-1.5Z"/></g><path d="m16.17,8.53l-3.5-1.75c-.42-.21-.92-.21-1.34,0l-3.5,1.75c-.1.05-.19.12-.28.19l4.45,2.22,4.45-2.22c-.09-.07-.17-.14-.28-.19Z"/><path d="m17,14.13v-4.26c0-.1-.02-.19-.04-.29l-4.46,2.23v5.48c.06-.02.12-.03.17-.06l3.5-1.75c.51-.25.83-.77.83-1.34Z"/><path d="m7,9.87v4.26c0,.57.32,1.09.83,1.34l3.5,1.75c.05.03.11.04.17.06v-5.48l-4.46-2.23c-.02.1-.04.19-.04.29Z"/></svg>