<svg xmlns="http://www.w3.org/2000/svg" width="24" height="24" viewBox="0 0 24 24"><g opacity="0.4"><path d="m19.25,3.13c-.48-.43-1.25-.09-1.25.56v1.32h-.5c-1.69,0-3.28.66-4.47,1.85L4.85,15.03c-.62.62-1.48.97-2.35.97h-.5c-.83,0-1.5.67-1.5,1.5s.67,1.5,1.5,1.5h.5c1.69,0,3.28-.66,4.47-1.85l8.17-8.17c.62-.62,1.48-.97,2.35-.97h.5v1.32c0,.65.77.99,1.25.56l3.13-2.82c.33-.3.33-.82,0-1.11l-3.13-2.82Z"/></g><path d="m2,8h.5c.88,0,1.73.36,2.35.97l3.03,3.03,2.12-2.12-3.03-3.03c-1.2-1.2-2.78-1.85-4.47-1.85h-.5c-.83,0-1.5.67-1.5,1.5s.67,1.5,1.5,1.5Z"/><path d="m19.25,14.13c-.48-.43-1.25-.09-1.25.56v1.32h-.5c-.88,0-1.73-.36-2.35-.97l-3.03-3.03-2.12,2.12,3.03,3.03c1.2,1.2,2.78,1.85,4.47,1.85h.5v1.32c0,.65.77.99,1.25.56l3.13-2.82c.33-.3.33-.82,0-1.11l-3.13-2.82Z"/></svg>