<svg xmlns="http://www.w3.org/2000/svg" width="24" height="24" viewBox="0 0 24 24"><g opacity="0.4"><path d="m6.55,3.45l1.16-1.16c.47-.47.14-1.28-.53-1.28H2.75c-.41,0-.75.34-.75.75v4.44c0,.67.81,1,1.28.53l1.15-1.15,5.04,5.04c.66.66,1.02,1.54,1.02,2.48v8.42c0,.83.67,1.5,1.5,1.5s1.5-.67,1.5-1.5v-8.42c0-1.74-.68-3.37-1.9-4.6L6.55,3.45Z"/></g><path d="m21.25,1h-4.44c-.67,0-1,.81-.53,1.28l1.16,1.16-5.04,5.04c-.14.14-.28.29-.4.45.97,1.16,1.5,2.62,1.5,4.15,0-.94.36-1.81,1.02-2.48l5.04-5.04,1.15,1.15c.47.47,1.28.14,1.28-.53V1.75c0-.41-.34-.75-.75-.75Z"/></svg>