<svg xmlns="http://www.w3.org/2000/svg" width="24" height="24" viewBox="0 0 24 24"><g opacity="0.4"><path d="M22.96 7.07c.1-.43 0-.89-.26-1.24l-2.72-3.62c-.56-.75-1.46-1.2-2.4-1.2H6.42c-.94 0-1.84.45-2.4 1.2L1.3 5.83c-.27.36-.36.81-.26 1.24s.39.8.79 1l.77.38-.63 1.26A9.3 9.3 0 0 0 1 13.82c0 2.7 1.7 5.14 4.22 6.09l3.8 1.42c.73.27 1.37.69 1.92 1.24.29.29.68.44 1.06.44s.77-.15 1.06-.44c.55-.55 1.19-.96 1.92-1.24l3.8-1.43c2.52-.95 4.22-3.39 4.22-6.08 0-1.42-.33-2.84-.97-4.11l-.63-1.26.77-.38c.4-.2.69-.56.79-1"/></g></svg>