<svg xmlns="http://www.w3.org/2000/svg" width="24" height="24" viewBox="0 0 24 24"><g opacity="0.4"><path d="m13.5,11.58v3.22c2.58-.67,4.5-3.01,4.5-5.8s-1.92-5.13-4.5-5.8v3.22c.89.52,1.5,1.48,1.5,2.58s-.61,2.06-1.5,2.58Z"/><path d="m6,9c0,2.79,1.92,5.13,4.5,5.8v-3.22c-.89-.52-1.5-1.48-1.5-2.58s.61-2.06,1.5-2.58v-3.22c-2.58.67-4.5,3.01-4.5,5.8Z"/><path d="m17.66,1.22c-.59.59-.59,1.54,0,2.12,1.51,1.51,2.34,3.52,2.34,5.66s-.83,4.15-2.34,5.66c-1.15,1.15-2.59,1.9-4.16,2.2v.79l2.6,1.56c1.36-.55,2.61-1.36,3.68-2.43,2.08-2.08,3.22-4.84,3.22-7.78s-1.14-5.7-3.22-7.78c-.59-.59-1.54-.59-2.12,0Z"/><path d="m4,9c0-2.14.83-4.15,2.34-5.66.59-.59.59-1.54,0-2.12s-1.54-.59-2.12,0C2.14,3.3,1,6.06,1,9s1.14,5.7,3.22,7.78c1.07,1.07,2.32,1.89,3.68,2.43l2.6-1.56v-.79c-1.57-.3-3.01-1.05-4.16-2.2-1.51-1.51-2.34-3.52-2.34-5.66Z"/></g><path d="m13.5,21.15l2.73,1.64c.24.15.51.21.77.21.51,0,1.01-.26,1.29-.73.43-.71.2-1.63-.51-2.06l-4.27-2.56V2.5c0-.83-.67-1.5-1.5-1.5s-1.5.67-1.5,1.5v15.15l-4.27,2.56c-.71.43-.94,1.35-.51,2.06s1.35.94,2.06.51l2.73-1.64v.35c0,.83.67,1.5,1.5,1.5s1.5-.67,1.5-1.5v-.35Z"/></svg>