<svg xmlns="http://www.w3.org/2000/svg" width="24" height="24" viewBox="0 0 24 24"><g opacity="0.4"><path d="M3.5 2A1.5 1.5 0 1 0 3.5 5 1.5 1.5 0 1 0 3.5 2z"/><path d="M8.5 2A1.5 1.5 0 1 0 8.5 5 1.5 1.5 0 1 0 8.5 2z"/><path d="M13.5 2A1.5 1.5 0 1 0 13.5 5 1.5 1.5 0 1 0 13.5 2z"/><path d="M8.5 17A1.5 1.5 0 1 0 8.5 20 1.5 1.5 0 1 0 8.5 17z"/><path d="M18.5 2A1.5 1.5 0 1 0 18.5 5 1.5 1.5 0 1 0 18.5 2z"/><path d="M3.5 17A1.5 1.5 0 1 0 3.5 20 1.5 1.5 0 1 0 3.5 17z"/><path d="M3.5 7A1.5 1.5 0 1 0 3.5 10 1.5 1.5 0 1 0 3.5 7z"/><path d="M3.5 12A1.5 1.5 0 1 0 3.5 15 1.5 1.5 0 1 0 3.5 12z"/><path d="M18.5 7A1.5 1.5 0 1 0 18.5 10 1.5 1.5 0 1 0 18.5 7z"/></g><path d="m22.5,17h-2.5v-2.5c0-.83-.67-1.5-1.5-1.5s-1.5.67-1.5,1.5v2.5h-2.5c-.83,0-1.5.67-1.5,1.5s.67,1.5,1.5,1.5h2.5v2.5c0,.83.67,1.5,1.5,1.5s1.5-.67,1.5-1.5v-2.5h2.5c.83,0,1.5-.67,1.5-1.5s-.67-1.5-1.5-1.5Z"/></svg>