<svg xmlns="http://www.w3.org/2000/svg" width="24" height="24" viewBox="0 0 24 24"><g opacity="0.4"><path d="m21.59,4.09l-.24-.11c-.5-.23-1.1-.82-1.32-1.32l-.11-.24c-.23-.5-.6-.5-.83,0l-.11.24c-.23.5-.82,1.1-1.32,1.32l-.24.11c-.5.23-.5.6,0,.83l.24.11c.5.23,1.1.82,1.32,1.32l.11.24c.23.5.6.5.83,0l.11-.24c.23-.5.82-1.1,1.32-1.32l.24-.11c.5-.23.5-.6,0-.83Z"/></g><path d="m21.15,10.18l-3.84-1.77c-.75-.35-1.36-.96-1.71-1.71l-1.78-3.84c-.33-.71-1.04-1.16-1.82-1.16s-1.49.46-1.82,1.16h0l-1.77,3.84c-.35.75-.96,1.36-1.71,1.71l-3.84,1.78c-.71.33-1.16,1.04-1.16,1.82s.46,1.49,1.16,1.82l3.84,1.77c.75.35,1.36.96,1.71,1.71l1.78,3.84c.33.71,1.04,1.16,1.82,1.16s1.49-.46,1.82-1.16l1.77-3.84c.35-.75.96-1.36,1.71-1.71l3.84-1.78c.71-.33,1.16-1.04,1.16-1.82s-.46-1.49-1.16-1.82Z"/></svg>