<svg xmlns="http://www.w3.org/2000/svg" width="24" height="24" viewBox="0 0 24 24"><g opacity="0.4"><path d="m12,7c-4.09,0-11,.95-11,4.5v7.5c0,2.57,4.18,3.49,7.46,3.82.29.03.54-.2.54-.5v-2.32c0-.55.45-1,1-1h4c.55,0,1,.45,1,1v2.32c0,.29.25.53.54.5,3.28-.33,7.46-1.25,7.46-3.82v-7.5c0-3.55-6.91-4.5-11-4.5Zm0,3c4.34,0,7.01.93,7.82,1.5-.81.57-3.48,1.5-7.82,1.5s-7.01-.93-7.82-1.5c.81-.57,3.48-1.5,7.82-1.5Z"/></g><path d="m6,5.4l2.92-1.17c.21-.08.21-.38,0-.46l-4.08-1.63c-.16-.07-.34.06-.34.23v5.71c.48-.16.98-.31,1.5-.43v-2.25Z"/><path d="m19.82,11.5c-.81-.57-3.48-1.5-7.82-1.5s-7.01.93-7.82,1.5c.81.57,3.48,1.5,7.82,1.5s7.01-.93,7.82-1.5Z"/><path d="m12.75,7.01v-2.64l2.7-1.14c.2-.09.2-.37,0-.46l-3.86-1.62c-.16-.07-.35.05-.35.23v5.63c.26,0,.51-.01.75-.01s.49,0,.75.01Z"/><path d="m19.5,5.4l2.92-1.17c.21-.08.21-.38,0-.46l-4.08-1.63c-.16-.07-.34.06-.34.23v5.28c.52.12,1.02.27,1.5.43v-2.68Z"/></svg>