<svg xmlns="http://www.w3.org/2000/svg" width="24" height="24" viewBox="0 0 24 24"><g opacity="0.4"><path d="m21.6,3.63c-1.7-1.02-3.02,1.15-3.76,2.2-1.84,2.68-3.4,5.7-5.86,7.83-1.24,1.28-2.81,1.36-4.13.76.62-.51,1.24-1.02,1.82-1.5,1.76-1.55,6.29-4.89,3.2-7.33-1.42-.82-2.94-.61-4.43-.47-2.41.21-5.32,1.74-5.46,4.49-.02,1.43.54,2.81,1.45,3.94-.43.43-.85.86-1.23,1.31-.12.16-.24.31-.35.45-.69.89-.05,2.18,1.07,2.18h.03c.39,0,.73-.16,1-.44.51-.53,1.11-1.09,1.75-1.64,1.33.7,2.84.94,4.27.45,3.37-1.59,5.71-4.62,8.09-7.43-.49,1.55-1.24,3.02-1.89,4.58-.35.99-.72,1.88-.16,3.13.84,1.4,2.24,1.63,3.63,1.65.75.01,1.37-.6,1.37-1.35,0-.69-.53-1.26-1.21-1.34-.2-.02-.39-.05-.57-.09-.23-.05-.44-.11-.58-.17,0-.01,0-.02,0-.03,1.08-2.76,2.79-5.56,2.79-8.72-.02-.65.17-1.74-.83-2.46ZM5.65,12.39c-.43-.76-.64-1.63-.52-2.51.35-1.65,2.98-1.98,5.25-1.86-1.39,1.54-3.11,2.91-4.73,4.37Z"/></g><path d="M2 19.25H22V20.75H2z"/></svg>