<svg xmlns="http://www.w3.org/2000/svg" width="24" height="24" viewBox="0 0 24 24"><g opacity="0.4"><path d="m11.85,10.23l-3.09-3.09c-.97-.97-2.56-.97-3.54,0l-3.09,3.09c-.97.97-.97,2.56,0,3.54l3.09,3.09c.49.49,1.13.73,1.77.73s1.28-.24,1.77-.73l3.09-3.09c.97-.97.97-2.56,0-3.54Z"/><path d="M17.75 12.5A5.25 5.25 0 1 0 17.75 23 5.25 5.25 0 1 0 17.75 12.5z"/></g><path d="m13.02,7.31l2.75,2.62c.48.46,1.1.69,1.72.69s1.24-.23,1.73-.69l2.75-2.62s.07-.06.1-.1c.85-.97,1.13-2.25.78-3.5h0c-.35-1.24-1.33-2.22-2.56-2.56-.97-.27-1.96-.16-2.8.29-.84-.45-1.83-.56-2.8-.29-1.23.34-2.21,1.33-2.56,2.56-.35,1.25-.07,2.52.78,3.5.03.04.06.07.1.1Z"/></svg>