<svg xmlns="http://www.w3.org/2000/svg" width="24" height="24" viewBox="0 0 24 24"><g opacity="0.4"><path d="m19,1H5C2.79,1,1,2.79,1,5v2c0,2.21,1.79,4,4,4h14c2.21,0,4-1.79,4-4v-2c0-2.21-1.79-4-4-4Zm-5.5,6.5c-.83,0-1.5-.67-1.5-1.5s.67-1.5,1.5-1.5,1.5.67,1.5,1.5-.67,1.5-1.5,1.5Zm5,0c-.83,0-1.5-.67-1.5-1.5s.67-1.5,1.5-1.5,1.5.67,1.5,1.5-.67,1.5-1.5,1.5Z"/></g><path d="m19,13H5c-2.21,0-4,1.79-4,4v2c0,2.21,1.79,4,4,4h14c2.21,0,4-1.79,4-4v-2c0-2.21-1.79-4-4-4Zm-5.5,6.5c-.83,0-1.5-.67-1.5-1.5s.67-1.5,1.5-1.5,1.5.67,1.5,1.5-.67,1.5-1.5,1.5Zm5,0c-.83,0-1.5-.67-1.5-1.5s.67-1.5,1.5-1.5,1.5.67,1.5,1.5-.67,1.5-1.5,1.5Z"/><path d="M18.5 4.5A1.5 1.5 0 1 0 18.5 7.5 1.5 1.5 0 1 0 18.5 4.5z"/><path d="M13.5 4.5A1.5 1.5 0 1 0 13.5 7.5 1.5 1.5 0 1 0 13.5 4.5z"/></svg>