<svg xmlns="http://www.w3.org/2000/svg" width="24" height="24" viewBox="0 0 24 24"><g opacity="0.4"><path d="M10,1c-5,0-9,4-9,9s4,9,9,9s9-4,9-9S15,1,10,1z M13.5,11.5h-2v2c0,0.8-0.7,1.5-1.5,1.5s-1.5-0.7-1.5-1.5v-2h-2
	C5.7,11.5,5,10.8,5,10s0.7-1.5,1.5-1.5h2v-2C8.5,5.7,9.2,5,10,5s1.5,0.7,1.5,1.5v2h2c0.8,0,1.5,0.7,1.5,1.5S14.3,11.5,13.5,11.5z"/></g><path d="m10,15c.83,0,1.5-.67,1.5-1.5v-2h2c.83,0,1.5-.67,1.5-1.5s-.67-1.5-1.5-1.5h-2v-2c0-.83-.67-1.5-1.5-1.5s-1.5.67-1.5,1.5v2h-2c-.83,0-1.5.67-1.5,1.5s.67,1.5,1.5,1.5h2v2c0,.83.67,1.5,1.5,1.5Z"/><path d="m17.33,15.21c-.58.82-1.3,1.54-2.12,2.12l4.23,4.23c.29.29.68.44,1.06.44s.77-.15,1.06-.44c.59-.59.59-1.54,0-2.12l-4.23-4.23Z"/></svg>