<svg xmlns="http://www.w3.org/2000/svg" width="24" height="24" viewBox="0 0 24 24"><g opacity="0.4"><path d="m2.11,7c-.07.32-.11.64-.11.97v10.53c0,2.49,2.01,4.5,4.5,4.5h11c2.49,0,4.5-2.01,4.5-4.5V7.97c0-.33-.04-.65-.11-.97H2.11Zm9.89,8.75c-2.32,0-4.25-1.67-4.67-3.87-.09-.46.28-.88.75-.88.36,0,.66.25.73.6.28,1.51,1.61,2.65,3.19,2.65s2.91-1.14,3.19-2.65c.07-.35.37-.6.73-.6.47,0,.83.42.75.88-.41,2.2-2.35,3.87-4.67,3.87Z"/></g><path d="m21.6,6.11l-1.52-3.35c-.49-1.07-1.55-1.76-2.73-1.76H6.66c-1.18,0-2.25.69-2.73,1.76l-1.52,3.35c-.13.29-.23.58-.29.89h19.78c-.07-.3-.16-.6-.29-.89Z"/><path d="m15.19,11.6c-.28,1.51-1.61,2.65-3.19,2.65s-2.91-1.14-3.19-2.65c-.07-.35-.37-.6-.73-.6-.47,0-.83.42-.75.88.41,2.2,2.35,3.87,4.67,3.87s4.25-1.67,4.67-3.87c.09-.46-.28-.88-.75-.88-.36,0-.66.25-.73.6Z"/></svg>