<svg xmlns="http://www.w3.org/2000/svg" width="24" height="24" viewBox="0 0 24 24"><g opacity="0.4"><path d="m10.97,5.91l3.06,3.06c.29.29.29.77,0,1.06-.15.15-.34.22-.53.22s-.38-.07-.53-.22l-3.06-3.06-1.94,1.94,3.06,3.06c.29.29.29.77,0,1.06-.15.15-.34.22-.53.22s-.38-.07-.53-.22l-3.06-3.06-2.59,2.59c-.85.85-1.32,1.98-1.32,3.18v3.76c0,.83.67,1.5,1.5,1.5h3.76c1.18,0,2.34-.48,3.18-1.32l8.56-8.56-7.12-7.12-1.91,1.91Z"/></g><path d="m13.5,10.25c.19,0,.38-.07.53-.22.29-.29.29-.77,0-1.06l-3.06-3.06-1.06,1.06,3.06,3.06c.15.15.34.22.53.22Z"/><path d="m10.5,13.25c.19,0,.38-.07.53-.22.29-.29.29-.77,0-1.06l-3.06-3.06-1.06,1.06,3.06,3.06c.15.15.34.22.53.22Z"/><path d="m3.06,19.88l-1.84,1.84c-.29.29-.29.77,0,1.06.15.15.34.22.53.22s.38-.07.53-.22l1.84-1.84c-.52-.14-.92-.54-1.06-1.06Z"/><path d="m19.09,5.97l.91-.91.72.72c.15.15.34.22.53.22s.38-.07.53-.22c.29-.29.29-.77,0-1.06l-2.5-2.5c-.29-.29-.77-.29-1.06,0s-.29.77,0,1.06l.72.72-.91.91-3.47-3.47c-.59-.59-1.54-.59-2.12,0-.59.59-.59,1.54,0,2.12l8,8c.29.29.68.44,1.06.44s.77-.15,1.06-.44c.59-.59.59-1.54,0-2.12l-3.47-3.47Z"/></svg>