<svg xmlns="http://www.w3.org/2000/svg" width="24" height="24" viewBox="0 0 24 24"><g opacity="0.4"><path d="m17,1H5c-.41,0-.8.08-1.17.2,1.26.45,2.17,1.64,2.17,3.05v14.75c0,1.8,1.2,3.3,2.84,3.8,1.26-.45,2.16-1.64,2.16-3.05v-3.25c0-.83.67-1.5,1.5-1.5h8.5V5c0-2.21-1.79-4-4-4Z"/></g><path d="m6,4.25c0-1.42-.91-2.61-2.17-3.05-1.63.51-2.83,2.01-2.83,3.8v2.5c0,1.38,1.12,2.5,2.5,2.5h2.5v-5.75Z"/><path d="m21,15.05v-.05h-8.5c-.83,0-1.5.67-1.5,1.5v3.25c0,1.41-.9,2.6-2.16,3.05.28.08.56.15.86.17.1.02.2.03.3.03h9c2.21,0,4-1.79,4-4v-1.5c0-1.21-.86-2.22-2-2.45Z"/></svg>