<svg xmlns="http://www.w3.org/2000/svg" width="24" height="24" viewBox="0 0 24 24"><g opacity="0.4"><path d="m22.12,11.17l-8.84,5.75c-.08.05-.18.08-.27.08-.16,0-.32-.08-.42-.23-.15-.23-.08-.54.15-.69l8.94-5.81.05-.44c.13-1.17-.27-2.32-1.1-3.15-.46-.46-1.03-.78-1.64-.95l-7.62,7.62c-.1.1-.23.15-.35.15s-.26-.05-.35-.15c-.2-.2-.2-.51,0-.71l7.62-7.62c-.17-.61-.49-1.18-.96-1.64-.83-.83-1.98-1.23-3.15-1.1l-.44.05-5.81,8.94c-.1.15-.26.23-.42.23-.09,0-.19-.03-.27-.08-.23-.15-.3-.46-.15-.69L12.83,1.89s-.02-.02-.03-.03c-.97-.97-2.34-1.34-3.66-1-1.33.34-2.35,1.32-2.73,2.63l-2.51,8.53,8.09,8.09,8.53-2.51c1.31-.39,2.3-1.41,2.64-2.73.34-1.33-.04-2.69-1-3.66-.01-.01-.02-.02-.03-.03Z"/></g><path d="m10.76,21.33l1.22-1.22h0S3.9,12.01,3.9,12.01h0s-1.22,1.23-1.22,1.23c-1.08,1.08-1.67,2.52-1.67,4.04s.59,2.96,1.68,4.04c1.08,1.08,2.52,1.67,4.04,1.67s2.96-.59,4.04-1.67Z"/></svg>