<svg xmlns="http://www.w3.org/2000/svg" width="24" height="24" viewBox="0 0 24 24"><g opacity="0.4"><path d="m22.25,9c-.41,0-.75.34-.75.75v1c0,.69-.56,1.25-1.25,1.25H3.75c-.69,0-1.25-.56-1.25-1.25v-1c0-.41-.34-.75-.75-.75s-.75.34-.75.75v1c0,.9.44,1.69,1.11,2.19-.07.17-.11.36-.11.56v7.25c0,1.24,1.01,2.25,2.25,2.25h4.75v-3.83c0-1.62,1.22-3.08,2.84-3.17,1.73-.09,3.16,1.29,3.16,3v4h4.75c1.24,0,2.25-1.01,2.25-2.25v-7.25c0-.2-.04-.38-.11-.56.67-.5,1.11-1.29,1.11-2.19v-1c0-.41-.34-.75-.75-.75Z"/></g><path d="m4.79,12h14.43l-1.46-7.81c-.02-.09-.07-.17-.1-.25.66-.5,1.1-1.29,1.1-2.19,0-.41-.34-.75-.75-.75s-.76.35-.75.77c.02.7-.65,1.23-1.35,1.23h-1.15v-1.25c0-.41-.34-.75-.75-.75s-.75.34-.75.75v1.25h-2.5v-1.25c0-.41-.34-.75-.75-.75s-.75.34-.75.75v1.25h-1.15c-.7,0-1.37-.53-1.35-1.23.01-.42-.33-.77-.75-.77s-.75.34-.75.75c0,.9.43,1.68,1.1,2.19-.03.08-.08.16-.1.25l-1.46,7.81Z"/><path d="m9,19.17v3.83h6v-4c0-1.71-1.43-3.09-3.16-3-1.62.08-2.84,1.54-2.84,3.17Z"/></svg>