<svg xmlns="http://www.w3.org/2000/svg" width="24" height="24" viewBox="0 0 24 24"><g opacity="0.4"><path d="m18,1H6c-1.1,0-2,.9-2,2s.9,2,2,2h4.09l-4.09,3.54v1.99l6.38-5.53h5.62c1.1,0,2-.9,2-2s-.9-2-2-2Z"/><path d="m18,19h-4.24l4.24-3.67v-1.99l-6.53,5.66h-5.47c-1.1,0-2,.9-2,2s.9,2,2,2h12c1.1,0,2-.9,2-2s-.9-2-2-2Z"/><path d="M18 5.87 6 16.27 6 18.26 18 7.86 18 5.87z"/></g><path d="M18 19 18 15.33 13.76 19 18 19z"/><path d="M6 8.54 10.09 5 6 5 6 8.54z"/><path d="M6 10.53 6 16.27 18 5.87 18 5 12.38 5 6 10.53z"/><path d="M6 19 11.47 19 18 13.34 18 7.86 6 18.26 6 19z"/></svg>