<svg xmlns="http://www.w3.org/2000/svg" width="24" height="24" viewBox="0 0 24 24"><g opacity="0.4"><path d="m18.5,3H5.5C3.02,3,1,5.02,1,7.5v9c0,2.48,2.02,4.5,4.5,4.5h13c2.48,0,4.5-2.02,4.5-4.5V7.5c0-2.48-2.02-4.5-4.5-4.5Zm-8.44,10.06l-2.94,2.94c-.59.59-1.54.59-2.12,0s-.59-1.54,0-2.12l1.88-1.88-1.88-1.88c-.59-.59-.59-1.54,0-2.12.59-.59,1.54-.59,2.12,0l2.94,2.94c.59.59.59,1.54,0,2.12Zm8.19,3.44h-5.5c-.41,0-.75-.34-.75-.75s.34-.75.75-.75h5.5c.41,0,.75.34.75.75s-.34.75-.75.75Z"/></g><path d="m5,16c.59.59,1.54.59,2.12,0l2.94-2.94c.59-.59.59-1.54,0-2.12l-2.94-2.94c-.59-.59-1.54-.59-2.12,0-.59.59-.59,1.54,0,2.12l1.88,1.88-1.88,1.88c-.59.59-.59,1.54,0,2.12Z"/><path d="m12.75,16.5h5.5c.41,0,.75-.34.75-.75s-.34-.75-.75-.75h-5.5c-.41,0-.75.34-.75.75s.34.75.75.75Z"/></svg>