<svg xmlns="http://www.w3.org/2000/svg" width="24" height="24" viewBox="0 0 24 24"><g opacity="0.4"><path d="M1 8H6.88V14.25H1z"/><path d="m1,17.5c0,2.48,2.02,4.5,4.5,4.5h1.38v-6.25H1v1.75Z"/><path d="M8.38 8H15.63V14.25H8.38z"/><path d="m17.12,22h1.38c2.48,0,4.5-2.02,4.5-4.5v-9.5h-5.88v14Z"/><path d="M8.38 15.75H15.63V22H8.38z"/></g><path d="m18.5,2H5.5C3.02,2,1,4.02,1,6.5v1.5h5.88v6.25H1v1.5h5.88v6.25h1.5v-6.25h7.25v6.25h1.5v-14h5.88v-1.5c0-2.48-2.02-4.5-4.5-4.5Zm-2.88,12.25h-7.25v-6.25h7.25v6.25Z"/></svg>