<svg xmlns="http://www.w3.org/2000/svg" width="24" height="24" viewBox="0 0 24 24"><g opacity="0.4"><path d="m12,1C5.93,1,1,5.93,1,12s4.93,11,11,11,11-4.93,11-11S18.07,1,12,1Zm-5,11.78c-.25,0-.5-.12-.65-.35-.24-.36-.14-.84.22-1.08l2.03-1.35-2.03-1.35c-.36-.24-.46-.72-.22-1.08s.72-.46,1.08-.22l3,2c.22.14.35.39.35.65s-.13.5-.35.65l-3,2c-.13.09-.28.13-.43.13Zm7.75,4.22h-5.51c-.6,0-.97-.68-.62-1.17.59-.84,1.66-1.83,3.38-1.83s2.79.99,3.38,1.83c.35.49-.02,1.17-.62,1.17Zm2.68-5.65c.36.24.46.72.22,1.08-.15.23-.4.35-.65.35-.15,0-.3-.04-.43-.13l-3-2c-.22-.14-.35-.39-.35-.65s.13-.5.35-.65l3-2c.36-.24.84-.14,1.08.22.24.36.14.84-.22,1.08l-2.03,1.35,2.03,1.35Z"/></g><path d="m17.65,7.57c-.24-.36-.72-.46-1.08-.22l-3,2c-.22.14-.35.39-.35.65s.13.5.35.65l3,2c.13.09.28.13.43.13.25,0,.5-.12.65-.35.24-.36.14-.84-.22-1.08l-2.03-1.35,2.03-1.35c.36-.24.46-.72.22-1.08Z"/><path d="m6.35,12.43c.15.23.4.35.65.35.15,0,.3-.04.43-.13l3-2c.22-.14.35-.39.35-.65s-.13-.5-.35-.65l-3-2c-.36-.24-.84-.14-1.08.22s-.14.84.22,1.08l2.03,1.35-2.03,1.35c-.36.24-.46.72-.22,1.08Z"/><path d="m8.62,15.83c-.35.49.02,1.17.62,1.17h5.51c.6,0,.97-.68.62-1.17-.59-.84-1.66-1.83-3.38-1.83s-2.79.99-3.38,1.83Z"/></svg>