<svg xmlns="http://www.w3.org/2000/svg" width="24" height="24" viewBox="0 0 24 24"><g opacity="0.4"><path d="m20,5H4c-1.65,0-3,1.35-3,3v6c0,1.65,1.35,3,3,3h16c1.65,0,3-1.35,3-3v-6c0-1.65-1.35-3-3-3ZM5.98,14h-1.68l3-6h1.68l-3,6Zm5.36,0h-1.68l3-6h1.68l-3,6Zm5.36,0h-1.68l3-6h1.68l-3,6Z"/></g><path d="m8.5,3.5c0-.83-.67-1.5-1.5-1.5s-1.5.67-1.5,1.5v1.5h3v-1.5Z"/><path d="m18.5,3.5c0-.83-.67-1.5-1.5-1.5s-1.5.67-1.5,1.5v1.5h3v-1.5Z"/><path d="m5.5,20.5c0,.83.67,1.5,1.5,1.5s1.5-.67,1.5-1.5v-3.5h-3v3.5Z"/><path d="m15.5,20.5c0,.83.67,1.5,1.5,1.5s1.5-.67,1.5-1.5v-3.5h-3v3.5Z"/><path d="M8.98 8 7.3 8 4.3 14 5.98 14 8.98 8z"/><path d="M19.7 8 18.02 8 15.02 14 16.7 14 19.7 8z"/><path d="M14.34 8 12.66 8 9.66 14 11.34 14 14.34 8z"/></svg>