<svg xmlns="http://www.w3.org/2000/svg" width="24" height="24" viewBox="0 0 24 24"><g opacity="0.4"><path d="M21.5,10.5h-0.6c-0.6-3.8-3.6-6.7-7.4-7.4V2.5C13.5,1.7,12.8,1,12,1s-1.5,0.7-1.5,1.5v0.6c-3.8,0.6-6.7,3.6-7.4,7.4H2.5
	C1.7,10.5,1,11.2,1,12s0.7,1.5,1.5,1.5h0.6c0.6,3.8,3.6,6.7,7.4,7.4v0.6c0,0.8,0.7,1.5,1.5,1.5s1.5-0.7,1.5-1.5v-0.6
	c3.8-0.6,6.7-3.6,7.4-7.4h0.6c0.8,0,1.5-0.7,1.5-1.5S22.3,10.5,21.5,10.5z M12,16c-2.2,0-4-1.8-4-4s1.8-4,4-4s4,1.8,4,4
	S14.2,16,12,16z"/></g><path d="M12 8A4 4 0 1 0 12 16 4 4 0 1 0 12 8z"/></svg>