<svg xmlns="http://www.w3.org/2000/svg" width="24" height="24" viewBox="0 0 24 24"><g opacity="0.4"><path d="M3,8v10.5C3,21,5,23,7.5,23h9c2.5,0,4.5-2,4.5-4.5V8H3z M10,18.5c0,0.8-0.7,1.5-1.5,1.5S7,19.3,7,18.5v-6
	C7,11.7,7.7,11,8.5,11s1.5,0.7,1.5,1.5V18.5z M17,18.5c0,0.8-0.7,1.5-1.5,1.5S14,19.3,14,18.5v-6c0-0.8,0.7-1.5,1.5-1.5
	s1.5,0.7,1.5,1.5V18.5z"/></g><path d="m21.5,5h-3.5v-1c0-1.65-1.35-3-3-3h-6c-1.65,0-3,1.35-3,3v1h-3.5c-.83,0-1.5.67-1.5,1.5s.67,1.5,1.5,1.5h19c.83,0,1.5-.67,1.5-1.5s-.67-1.5-1.5-1.5Zm-12.5,0v-1h6v1h-6Z"/><path d="m8.5,11c-.83,0-1.5.67-1.5,1.5v6c0,.83.67,1.5,1.5,1.5s1.5-.67,1.5-1.5v-6c0-.83-.67-1.5-1.5-1.5Z"/><path d="m15.5,11c-.83,0-1.5.67-1.5,1.5v6c0,.83.67,1.5,1.5,1.5s1.5-.67,1.5-1.5v-6c0-.83-.67-1.5-1.5-1.5Z"/></svg>