<svg xmlns="http://www.w3.org/2000/svg" width="24" height="24" viewBox="0 0 24 24"><g opacity="0.4"><path d="m19,3.21v7.04h4v-1.75c0-2.51-1.7-4.63-4-5.29Z"/><path d="m14,13c0,1.1-.9,2-2,2s-2-.9-2-2v-1.25h-3.5v9.25h11v-9.25h-3.5v1.25Z"/><path d="M6.5 3H17.5V10.25H6.5z"/><path d="m1,8.5v1.75h4V3.21c-2.3.66-4,2.77-4,5.29Z"/><path d="m19,21h1c1.65,0,3-1.35,3-3v-6.25h-4v9.25Z"/><path d="m1,18c0,1.65,1.35,3,3,3h1v-9.25H1v6.25Z"/></g><path d="m5,3.21h0c-.07.02-.06.02,0,0Z"/><path d="m19,3.21c-.19-.05-.88-.21-1.5-.21v7.25H6.5V3c-.62,0-1.31.16-1.5.21v7.04H1v1.5h4v9.25h1.5v-9.25h3.5v1.25c0,1.1.9,2,2,2s2-.9,2-2v-1.25h3.5v9.25h1.5v-9.25h4v-1.5h-4V3.21Z"/><path d="m19,3.21h0c.06.02.07.02,0,0Z"/></svg>