<svg xmlns="http://www.w3.org/2000/svg" width="24" height="24" viewBox="0 0 24 24"><g opacity="0.4"><path d="M1 8H9V14.25H1z"/><path d="m1,19v3h3.5c2.48,0,4.5-2.02,4.5-4.5v-1.75H1v3.25Z"/><path d="m15,17.5c0,2.48,2.02,4.5,4.5,4.5h3.5v-6.25h-8v1.75Z"/><path d="M15 8H23V14.25H15z"/></g><path d="m12,1c-.41,0-.75.34-.75.75v2.5c0,.41.34.75.75.75s.75-.34.75-.75V1.75c0-.41-.34-.75-.75-.75Z"/><path d="m12,7c-.41,0-.75.34-.75.75v2.5c0,.41.34.75.75.75s.75-.34.75-.75v-2.5c0-.41-.34-.75-.75-.75Z"/><path d="m12,13c-.41,0-.75.34-.75.75v2.5c0,.41.34.75.75.75s.75-.34.75-.75v-2.5c0-.41-.34-.75-.75-.75Z"/><path d="m12,19c-.41,0-.75.34-.75.75v2.5c0,.41.34.75.75.75s.75-.34.75-.75v-2.5c0-.41-.34-.75-.75-.75Z"/><path d="M15 14.25H23V15.75H15z"/><path d="M1 14.25H9V15.75H1z"/><path d="m4.5,2H1v6h8v-1.5c0-2.48-2.02-4.5-4.5-4.5Z"/><path d="m15,6.5v1.5h8V2h-3.5c-2.48,0-4.5,2.02-4.5,4.5Z"/></svg>