<svg xmlns="http://www.w3.org/2000/svg" width="24" height="24" viewBox="0 0 24 24"><g opacity="0.4"><path d="m18.5,2H5.5C3.02,2,1,4.02,1,6.5v11c0,2.48,2.02,4.5,4.5,4.5h13c2.48,0,4.5-2.02,4.5-4.5V6.5c0-2.48-2.02-4.5-4.5-4.5Zm-8,13.62l-2.44,2.44c-.29.29-.68.44-1.06.44s-.77-.15-1.06-.44l-1.44-1.44c-.59-.59-.59-1.54,0-2.12.59-.59,1.54-.59,2.12,0l.38.38,1.38-1.38c.59-.59,1.54-.59,2.12,0,.59.59.59,1.54,0,2.12Zm0-8l-2.44,2.44c-.29.29-.68.44-1.06.44s-.77-.15-1.06-.44l-1.44-1.44c-.59-.59-.59-1.54,0-2.12.59-.59,1.54-.59,2.12,0l.38.38,1.38-1.38c.59-.59,1.54-.59,2.12,0,.59.59.59,1.54,0,2.12Zm8,9.38h-4c-.83,0-1.5-.67-1.5-1.5s.67-1.5,1.5-1.5h4c.83,0,1.5.67,1.5,1.5s-.67,1.5-1.5,1.5Zm0-7h-4c-.83,0-1.5-.67-1.5-1.5s.67-1.5,1.5-1.5h4c.83,0,1.5.67,1.5,1.5s-.67,1.5-1.5,1.5Z"/></g><path d="m5.94,18.06c.29.29.68.44,1.06.44s.77-.15,1.06-.44l2.44-2.44c.59-.59.59-1.54,0-2.12-.59-.59-1.54-.59-2.12,0l-1.38,1.38-.38-.38c-.59-.59-1.54-.59-2.12,0-.59.59-.59,1.54,0,2.12l1.44,1.44Z"/><path d="m5.94,10.06c.29.29.68.44,1.06.44s.77-.15,1.06-.44l2.44-2.44c.59-.59.59-1.54,0-2.12-.59-.59-1.54-.59-2.12,0l-1.38,1.38-.38-.38c-.59-.59-1.54-.59-2.12,0-.59.59-.59,1.54,0,2.12l1.44,1.44Z"/><path d="m14.5,10h4c.83,0,1.5-.67,1.5-1.5s-.67-1.5-1.5-1.5h-4c-.83,0-1.5.67-1.5,1.5s.67,1.5,1.5,1.5Z"/><path d="m14.5,17h4c.83,0,1.5-.67,1.5-1.5s-.67-1.5-1.5-1.5h-4c-.83,0-1.5.67-1.5,1.5s.67,1.5,1.5,1.5Z"/></svg>