<svg xmlns="http://www.w3.org/2000/svg" width="24" height="24" viewBox="0 0 24 24"><g opacity="0.4"><path d="m8.25,4.25c-1.8,1.8-2.94,4.08-3.2,6.41-.15,1.38.02,2.68.47,3.85.12.7.1,1.34-.15,2l-4.22,4.23c-.39.39-.39,1.02,0,1.41l.71.71c.39.39,1.02.39,1.41,0l4.22-4.22c.66-.25,1.29-.28,1.99-.16.89.35,1.86.52,2.86.52,2.54,0,5.26-1.11,7.4-3.24,1.8-1.8,2.94-4.08,3.2-6.41.27-2.45-.45-4.67-2.03-6.25C17.75-.09,12.07.44,8.25,4.25Zm11.71,4.75c-.18,1.65-1.01,3.29-2.34,4.62-2.65,2.65-6.42,3.17-8.42,1.17-.92-.92-1.34-2.27-1.17-3.8.18-1.65,1.01-3.29,2.34-4.62,1.56-1.56,3.52-2.38,5.27-2.38,1.21,0,2.33.4,3.15,1.21.92.92,1.34,2.27,1.17,3.8Z"/></g><path d="M20.5 18A2.5 2.5 0 1 0 20.5 23 2.5 2.5 0 1 0 20.5 18z"/><path d="m8.06,12.3l.94-.94,1.65,1.65-1.6,1.6c.06.06.09.14.15.2.06.06.13.11.19.16l1.61-1.61,1.65,1.65-.96.96c.22.03.44.04.67.04l.65-.65.53.53c.19-.04.38-.08.57-.14l-.75-.75,1.65-1.65,1.33,1.33c.14-.09.28-.19.41-.3l-1.39-1.39,1.65-1.65,1.39,1.39c.1-.13.2-.27.3-.41l-1.33-1.33,1.65-1.65.74.74c.05-.19.1-.38.14-.57l-.53-.53.62-.62c0-.23,0-.46-.03-.68l-.94.94-1.65-1.65,1.6-1.6c-.06-.06-.09-.14-.15-.2-.06-.06-.13-.1-.2-.16l-1.6,1.6-1.65-1.65.95-.95c-.21-.03-.43-.05-.65-.05l-.65.65-.53-.53c-.19.04-.38.09-.57.14l.74.74-1.65,1.65-1.34-1.34c-.14.09-.27.2-.41.3l1.39,1.39-1.65,1.65-1.39-1.39c-.1.13-.2.27-.3.41l1.33,1.33-1.65,1.65-.74-.74c-.05.19-.1.38-.14.57l.53.53-.62.62c0,.23,0,.46.03.68Zm4.94,2.35l-1.65-1.65,1.65-1.65,1.65,1.65-1.65,1.65Zm2-2l-1.65-1.65,1.65-1.65,1.65,1.65-1.65,1.65Zm3.65-3.65l-1.65,1.65-1.65-1.65,1.65-1.65,1.65,1.65Zm-3.65-3.65l1.65,1.65-1.65,1.65-1.65-1.65,1.65-1.65Zm-2,2l1.65,1.65-1.65,1.65-1.65-1.65,1.65-1.65Zm-2,2l1.65,1.65-1.65,1.65-1.65-1.65,1.65-1.65Z"/></svg>