<svg xmlns="http://www.w3.org/2000/svg" width="24" height="24" viewBox="0 0 24 24"><g opacity="0.4"><path d="M4.89 15 3.45 19 20.55 19 19.11 15 4.89 15z"/><path d="M5.97 12 18.03 12 16.94 9 7.06 9 5.97 12z"/><path d="m12.02,1h-.03c-1.22,0-2.32.77-2.73,1.92l-1.11,3.08h7.72l-1.11-3.08c-.41-1.15-1.51-1.92-2.73-1.92Z"/></g><path d="m21.5,19H2.5c-.83,0-1.5.67-1.5,1.5s.67,1.5,1.5,1.5h19c.83,0,1.5-.67,1.5-1.5s-.67-1.5-1.5-1.5Z"/><path d="M15.86 6 8.14 6 7.06 9 16.94 9 15.86 6z"/><path d="M18.03 12 5.97 12 4.89 15 19.11 15 18.03 12z"/></svg>