<svg xmlns="http://www.w3.org/2000/svg" width="24" height="24" viewBox="0 0 24 24"><g opacity="0.4"><path d="M10.69 2 2 10.69 2 16.81 16.81 2 10.69 2z"/><path d="M13.31 22 22 13.31 22 7.19 7.19 22 13.31 22z"/><path d="m6.5,2c-2.48,0-4.5,2.02-4.5,4.5v2.06l6.56-6.56h-2.06Z"/><path d="m17.5,22c2.48,0,4.5-2.02,4.5-4.5v-2.06l-6.56,6.56h2.06Z"/><path d="m18.74,2.2L2.2,18.74c.43,1.48,1.58,2.64,3.06,3.06L21.8,5.26c-.43-1.48-1.58-2.64-3.06-3.06Z"/></g><path d="M15.44 22 22 15.44 22 13.31 13.31 22 15.44 22z"/><path d="M8.56 2 2 8.56 2 10.69 10.69 2 8.56 2z"/><path d="m18.74,2.2c-.4-.11-.81-.2-1.24-.2h-.69L2,16.81v.69c0,.43.08.84.2,1.24L18.74,2.2Z"/><path d="m5.26,21.8c.4.11.81.2,1.24.2h.69l14.81-14.81v-.69c0-.43-.08-.84-.2-1.24L5.26,21.8Z"/></svg>