<svg xmlns="http://www.w3.org/2000/svg" width="24" height="24" viewBox="0 0 24 24"><g opacity="0.4"><path d="m1,17.5c0,2.48,2.02,4.5,4.5,4.5h5.75v-9.25H1v4.75Z"/><path d="m1,6.5v4.75h10.25V2h-5.75C3.02,2,1,4.02,1,6.5Z"/><path d="m12.75,22h5.75c2.48,0,4.5-2.02,4.5-4.5v-4.75h-10.25v9.25Z"/><path d="m18.5,2h-5.75v9.25h10.25v-4.75c0-2.48-2.02-4.5-4.5-4.5Z"/></g><path d="M12.75 2 11.25 2 11.25 11.25 1 11.25 1 12.75 11.25 12.75 11.25 22 12.75 22 12.75 12.75 23 12.75 23 11.25 12.75 11.25 12.75 2z"/></svg>