<svg xmlns="http://www.w3.org/2000/svg" width="24" height="24" viewBox="0 0 24 24"><g opacity="0.4"><path d="m20.75,7h-3.75v.5c0,.28-.22.5-.5.5s-.5-.22-.5-.5v-.5H3.25c-1.24,0-2.25,1.01-2.25,2.25v2.05c0,.6.36,1.15.92,1.38.93.37,1.58,1.27,1.58,2.33s-.65,1.96-1.58,2.33c-.56.22-.92.77-.92,1.38v2.05c0,1.24,1.01,2.25,2.25,2.25h12.75v-1.5c0-.28.22-.5.5-.5s.5.22.5.5v1.5h3.75c1.24,0,2.25-1.01,2.25-2.25v-2.05c0-.6-.36-1.15-.92-1.38-.93-.37-1.58-1.27-1.58-2.33s.65-1.96,1.58-2.33c.56-.22.92-.77.92-1.38v-2.05c0-1.24-1.01-2.25-2.25-2.25Zm-3.75,12.5c0,.28-.22.5-.5.5s-.5-.22-.5-.5v-1c0-.28.22-.5.5-.5s.5.22.5.5v1Zm0-3c0,.28-.22.5-.5.5s-.5-.22-.5-.5v-1c0-.28.22-.5.5-.5s.5.22.5.5v1Zm0-3c0,.28-.22.5-.5.5s-.5-.22-.5-.5v-1c0-.28.22-.5.5-.5s.5.22.5.5v1Zm0-3c0,.28-.22.5-.5.5s-.5-.22-.5-.5v-1c0-.28.22-.5.5-.5s.5.22.5.5v1Z"/></g><path d="m20,3.59c0-.74-.37-1.44-.98-1.86-.61-.42-1.39-.51-2.08-.24L3,7h17s0-3.4,0-3.4Z"/><path d="m17,15.5c0-.28-.22-.5-.5-.5s-.5.22-.5.5v1c0,.28.22.5.5.5s.5-.22.5-.5v-1Z"/><path d="m17,12.5c0-.28-.22-.5-.5-.5s-.5.22-.5.5v1c0,.28.22.5.5.5s.5-.22.5-.5v-1Z"/><path d="m17,7h-1v.5c0,.28.22.5.5.5s.5-.22.5-.5v-.5Z"/><path d="m17,18.5c0-.28-.22-.5-.5-.5s-.5.22-.5.5v1c0,.28.22.5.5.5s.5-.22.5-.5v-1Z"/><path d="m17,9.5c0-.28-.22-.5-.5-.5s-.5.22-.5.5v1c0,.28.22.5.5.5s.5-.22.5-.5v-1Z"/><path d="m16.5,21c-.28,0-.5.22-.5.5v1.5h1v-1.5c0-.28-.22-.5-.5-.5Z"/></svg>