<svg xmlns="http://www.w3.org/2000/svg" width="24" height="24" viewBox="0 0 24 24"><g opacity="0.4"><path d="m20.75,4H3.25c-1.24,0-2.25,1.01-2.25,2.25v2.05c0,.6.36,1.15.92,1.38.93.37,1.58,1.27,1.58,2.33s-.65,1.96-1.58,2.33c-.56.22-.92.77-.92,1.38v2.05c0,1.24,1.01,2.25,2.25,2.25h17.5c1.24,0,2.25-1.01,2.25-2.25v-2.05c0-.6-.36-1.15-.92-1.38-.93-.37-1.58-1.27-1.58-2.33s.65-1.96,1.58-2.33c.56-.22.92-.77.92-1.38v-2.05c0-1.24-1.01-2.25-2.25-2.25Zm-5.22,7.12l-1.46,1.46c-.09.09-.13.23-.09.36l.6,1.94c.1.32-.26.59-.54.4l-1.84-1.22c-.12-.08-.28-.08-.4,0l-1.84,1.22c-.28.19-.64-.08-.54-.4l.6-1.94c.04-.13,0-.27-.09-.36l-1.46-1.46c-.22-.22-.08-.59.22-.61l1.8-.16c.13-.01.24-.09.29-.2l.89-1.8c.13-.27.51-.27.64,0l.89,1.8c.06.11.17.19.29.2l1.8.16c.3.03.44.4.22.61Z"/></g><path d="m9.93,12.58c.09.09.13.23.09.36l-.6,1.94c-.1.32.26.59.54.4l1.84-1.22c.12-.08.28-.08.4,0l1.84,1.22c.28.19.64-.08.54-.4l-.6-1.94c-.04-.13,0-.27.09-.36l1.46-1.46c.22-.22.08-.59-.22-.61l-1.8-.16c-.13-.01-.24-.09-.29-.2l-.89-1.8c-.13-.27-.51-.27-.64,0l-.89,1.8c-.06.11-.17.19-.29.2l-1.8.16c-.3.03-.44.4-.22.61l1.46,1.46Z"/></svg>