<svg xmlns="http://www.w3.org/2000/svg" width="24" height="24" viewBox="0 0 24 24"><g opacity="0.4"><path d="m14.47,4c-2.77,0-5.29,1.37-6.86,3.53,1.76.15,3.4.9,4.66,2.17,1.42,1.42,2.2,3.3,2.2,5.3,0,.41-.34.75-.75.75s-.75-.34-.75-.75c0-1.6-.62-3.11-1.76-4.24-1.13-1.13-2.64-1.76-4.24-1.76-.14,0-.28.01-.41.02-.1,0-.21.02-.31.03-.09.01-.18.02-.27.04-.11.02-.22.04-.33.06-.08.02-.15.04-.23.06-.12.03-.23.06-.35.1-.06.02-.12.04-.18.07-.12.05-.25.09-.37.15-.05.02-.1.05-.15.07-.13.06-.25.12-.37.19-.04.02-.08.05-.13.08-.12.07-.24.15-.36.23-.04.03-.08.06-.12.09-.11.08-.22.17-.33.26-.04.03-.08.07-.12.11-1.22,1.1-2,2.69-2,4.46,0,3.31,2.69,6,6,6h7.5c4.69,0,8.5-3.81,8.5-8.5s-3.81-8.5-8.5-8.5Z"/></g><path d="m2.5,9c.44,0,.83-.19,1.1-.49l.74,1.12c.46-.23.95-.4,1.47-.5l-.81-1.22c.58-.21.99-.76.99-1.41,0-.83-.67-1.5-1.5-1.5-.69,0-1.27.47-1.44,1.11-.17-.07-.36-.11-.56-.11-.83,0-1.5.67-1.5,1.5s.67,1.5,1.5,1.5Z"/><path d="m11.22,10.76c1.13,1.13,1.76,2.64,1.76,4.24,0,.41.34.75.75.75s.75-.34.75-.75c0-2-.78-3.89-2.2-5.3-1.26-1.26-2.9-2.02-4.66-2.17-.34.46-.64.95-.88,1.47h.24c1.6,0,3.11.62,4.24,1.75Z"/></svg>