<svg xmlns="http://www.w3.org/2000/svg" width="24" height="24" viewBox="0 0 24 24"><g opacity="0.4"><path d="m21.5,2H2.5c-.83,0-1.5.67-1.5,1.5s.67,1.5,1.5,1.5h19c.83,0,1.5-.67,1.5-1.5s-.67-1.5-1.5-1.5Z"/><path d="m20,12.5c0-.83-.67-1.5-1.5-1.5h-10c-.83,0-1.5.67-1.5,1.5s.67,1.5,1.5,1.5h10c.83,0,1.5-.67,1.5-1.5Z"/><path d="m9.5,20c-.83,0-1.5.67-1.5,1.5s.67,1.5,1.5,1.5h2c.83,0,1.5-.67,1.5-1.5s-.67-1.5-1.5-1.5h-2Z"/></g><path d="m19.5,6.5H5.5c-.83,0-1.5.67-1.5,1.5s.67,1.5,1.5,1.5h14c.83,0,1.5-.67,1.5-1.5s-.67-1.5-1.5-1.5Z"/><path d="m15.5,15.5h-5c-.83,0-1.5.67-1.5,1.5s.67,1.5,1.5,1.5h5c.83,0,1.5-.67,1.5-1.5s-.67-1.5-1.5-1.5Z"/></svg>