<svg xmlns="http://www.w3.org/2000/svg" width="24" height="24" viewBox="0 0 24 24"><g opacity="0.4"><path d="m20,2h-.74c-1.03,0-2.06-.14-3.06-.43l-.09-.03c-1.26-.36-2.56-.54-3.88-.54h-5.74c-1.93,0-3.5,1.57-3.5,3.5,0,.46.09.91.26,1.32-.77.64-1.26,1.61-1.26,2.68,0,.46.09.91.26,1.32-.77.64-1.26,1.61-1.26,2.68,0,1.93,1.57,3.5,3.5,3.5h4.19c.2,0,.32.11.38.17s.15.2.12.4l-.35,2.43c-.14,1.01.16,2.02.82,2.79.67.77,1.63,1.21,2.64,1.21h.99c1.05,0,2-.67,2.36-1.66l1.41-3.95c.37-1.04,1.23-1.86,2.29-2.18l1.51-.45c1.28-.38,2.14-1.54,2.14-2.87v-6.88c0-1.65-1.35-3-3-3Z"/></g></svg>