<svg xmlns="http://www.w3.org/2000/svg" width="24" height="24" viewBox="0 0 24 24"><g opacity="0.4"><path d="m1.2,9.92c-.17.89.06,1.8.64,2.5.57.69,1.41,1.09,2.31,1.09h2.85c0-6.9,2.24-12.5,5-12.5C6.73,1,2.19,4.75,1.2,9.92Z"/><path d="m12,1c2.76,0,5,5.6,5,12.5h2.85c.9,0,1.74-.4,2.31-1.09.58-.7.81-1.61.64-2.5-.99-5.17-5.54-8.91-10.8-8.91Z"/></g><path d="m10.62,18.63c0,2.19,1.59,4.14,3.77,4.35,2.5.24,4.61-1.72,4.61-4.17v-.31c0-.83-.67-1.5-1.5-1.5s-1.5.67-1.5,1.5v.31c0,.66-.53,1.19-1.19,1.19s-1.19-.53-1.19-1.19v-5.31h3.38c0-6.9-2.24-12.5-5-12.5s-5,5.6-5,12.5h3.62v5.13Z"/></svg>