<svg xmlns="http://www.w3.org/2000/svg" width="24" height="24" viewBox="0 0 24 24"><g opacity="0.4"><path d="M8 2A5 5 0 1 0 8 12 5 5 0 1 0 8 2z"/><path d="m3.5,22h9c1.38,0,2.5-1.12,2.5-2.5v-1c0-3.03-2.47-5.5-5.5-5.5h-3c-3.03,0-5.5,2.47-5.5,5.5v1c0,1.38,1.12,2.5,2.5,2.5Z"/></g><path d="m17.66,6.11c-.13-.3-.29-.59-.47-.87-.46-.69-1.4-.86-2.08-.4-.69.46-.86,1.4-.4,2.08.08.12.14.23.19.35.05.12.09.24.11.36.02.11.04.23.04.36s-.01.24-.04.36c-.02.12-.06.24-.11.35-.05.12-.12.24-.19.35-.47.68-.29,1.62.39,2.08.26.18.55.26.84.26.48,0,.95-.23,1.24-.66.19-.28.35-.57.48-.87.13-.3.23-.62.29-.92.06-.31.1-.64.1-.96s-.03-.65-.1-.96c-.06-.32-.16-.63-.29-.92Z"/><path d="m22.91,6.1c-.06-.31-.14-.62-.24-.93-.1-.31-.21-.62-.33-.91-.13-.3-.27-.6-.43-.89-.16-.29-.33-.57-.52-.85-.19-.28-.39-.55-.61-.81-.53-.64-1.47-.73-2.11-.2-.64.53-.73,1.47-.2,2.11.16.19.31.39.44.59.13.2.26.4.37.6.11.2.21.41.3.62.09.21.17.42.23.63.07.21.12.43.17.64.04.21.08.43.1.65.02.22.03.43.03.65s-.01.44-.03.65c-.02.22-.06.44-.1.65s-.1.43-.16.63c-.07.21-.14.43-.23.64-.09.21-.19.42-.3.62-.11.2-.23.4-.37.6-.14.2-.28.4-.44.59-.53.64-.44,1.58.2,2.11.28.23.62.34.95.34.43,0,.86-.19,1.16-.55.22-.26.42-.54.61-.81.19-.28.37-.57.52-.85.16-.29.3-.59.43-.89.13-.3.24-.6.34-.91.1-.31.18-.62.24-.93s.11-.63.15-.95c.03-.32.05-.63.05-.95s-.02-.64-.05-.95c-.03-.32-.08-.63-.15-.95Z"/></svg>