<svg xmlns="http://www.w3.org/2000/svg" width="24" height="24" viewBox="0 0 24 24"><g opacity="0.4"><path d="m17,3c-.83,0-1.5.67-1.5,1.5v5c0,1.93-1.57,3.5-3.5,3.5s-3.5-1.57-3.5-3.5v-5c0-.83-.67-1.5-1.5-1.5s-1.5.67-1.5,1.5v5c0,3.58,2.92,6.5,6.5,6.5s6.5-2.92,6.5-6.5v-5c0-.83-.67-1.5-1.5-1.5Z"/></g><path d="M6 18A1 1 0 1 0 6 20 1 1 0 1 0 6 18z"/><path d="M14 18A1 1 0 1 0 14 20 1 1 0 1 0 14 18z"/><path d="M18 18A1 1 0 1 0 18 20 1 1 0 1 0 18 18z"/><path d="M10 18A1 1 0 1 0 10 20 1 1 0 1 0 10 18z"/></svg>