<svg xmlns="http://www.w3.org/2000/svg" width="24" height="24" viewBox="0 0 24 24"><g opacity="0.4"><path d="m19.94,5.85l-5.5-3.56c-1.48-.96-3.4-.96-4.89,0l-5.5,3.56c-1.29.83-2.06,2.25-2.06,3.78v4.74c0,1.53.77,2.95,2.06,3.78l1.64,1.06c1.01-1.91,3-3.21,5.31-3.21h2c2.3,0,4.3,1.3,5.31,3.21l1.64-1.06c1.29-.83,2.06-2.25,2.06-3.78v-4.74c0-1.53-.77-2.95-2.06-3.78Zm-7.94,8.15c-2.21,0-4-1.79-4-4s1.79-4,4-4,4,1.79,4,4-1.79,4-4,4Z"/></g><path d="m12,22.42c.85,0,1.7-.24,2.44-.72l3.86-2.5c-1.01-1.91-3-3.21-5.31-3.21h-2c-2.3,0-4.3,1.3-5.31,3.21l3.86,2.5c.74.48,1.59.72,2.44.72Z"/><path d="M12 6A4 4 0 1 0 12 14 4 4 0 1 0 12 6z"/></svg>