<svg xmlns="http://www.w3.org/2000/svg" width="24" height="24" viewBox="0 0 24 24"><g opacity="0.4"><path d="m17,1H7c-1.65,0-3,1.35-3,3v9.05c.16-.03.33-.05.5-.05h15c.17,0,.34.02.5.05V4c0-1.65-1.35-3-3-3Zm-7,8c0,.55-.45,1-1,1s-1-.45-1-1v-4c0-.55.45-1,1-1s1,.45,1,1v4Zm6,0c0,.55-.45,1-1,1s-1-.45-1-1v-4c0-.55.45-1,1-1s1,.45,1,1v4Z"/></g><path d="m19.5,13H4.5c-1.38,0-2.5,1.12-2.5,2.5v3c0,2.48,2.02,4.5,4.5,4.5h11c2.48,0,4.5-2.02,4.5-4.5v-3c0-1.38-1.12-2.5-2.5-2.5Z"/><path d="m9,10c.55,0,1-.45,1-1v-4c0-.55-.45-1-1-1s-1,.45-1,1v4c0,.55.45,1,1,1Z"/><path d="m15,10c.55,0,1-.45,1-1v-4c0-.55-.45-1-1-1s-1,.45-1,1v4c0,.55.45,1,1,1Z"/></svg>