<svg xmlns="http://www.w3.org/2000/svg" width="24" height="24" viewBox="0 0 24 24"><g opacity="0.4"><path d="m11.47,8.47c.29.29.77.29,1.06,0l3.19-3.19c.47-.47.14-1.28-.53-1.28h-1.69v-1.5c0-.83-.67-1.5-1.5-1.5s-1.5.67-1.5,1.5v1.5h-1.69c-.67,0-1,.81-.53,1.28l3.19,3.19Z"/><path d="m8.81,20h1.69v1.5c0,.83.67,1.5,1.5,1.5s1.5-.67,1.5-1.5v-1.5h1.69c.67,0,1-.81.53-1.28l-3.19-3.19c-.29-.29-.77-.29-1.06,0l-3.19,3.19c-.47.47-.14,1.28.53,1.28Z"/></g><path d="m2.5,13.5h1c.83,0,1.5-.67,1.5-1.5s-.67-1.5-1.5-1.5h-1c-.83,0-1.5.67-1.5,1.5s.67,1.5,1.5,1.5Z"/><path d="m8.5,13.5h1c.83,0,1.5-.67,1.5-1.5s-.67-1.5-1.5-1.5h-1c-.83,0-1.5.67-1.5,1.5s.67,1.5,1.5,1.5Z"/><path d="m14.5,10.5c-.83,0-1.5.67-1.5,1.5s.67,1.5,1.5,1.5h1c.83,0,1.5-.67,1.5-1.5s-.67-1.5-1.5-1.5h-1Z"/><path d="m21.5,10.5h-1c-.83,0-1.5.67-1.5,1.5s.67,1.5,1.5,1.5h1c.83,0,1.5-.67,1.5-1.5s-.67-1.5-1.5-1.5Z"/></svg>