<svg xmlns="http://www.w3.org/2000/svg" width="24" height="24" viewBox="0 0 24 24"><g opacity="0.4"><path class="st0" d="M19,16.7v-3.4v-1.8C19,9.6,17.4,8,15.5,8h-11C2.6,8,1,9.6,1,11.5v7C1,20.4,2.6,22,4.5,22h11
	c1.9,0,3.5-1.6,3.5-3.5V16.7z"/></g><path d="m4.5,8h1.5c-.83,0-1.5-.67-1.5-1.5s.67-1.5,1.5-1.5,1.5.67,1.5,1.5-.67,1.5-1.5,1.5h7c-.83,0-1.5-.67-1.5-1.5s.67-1.5,1.5-1.5,1.5.67,1.5,1.5-.67,1.5-1.5,1.5h2.5c.57,0,1.1.15,1.57.39.27-.58.43-1.21.43-1.89,0-2.48-2.02-4.5-4.5-4.5-1.42,0-2.67.67-3.5,1.71-.83-1.03-2.08-1.71-3.5-1.71C3.52,2,1.5,4.02,1.5,6.5c0,.88.26,1.69.7,2.38.62-.54,1.42-.88,2.3-.88Z"/><path d="m21.88,11.64l-2.88,1.64v3.43l2.88,1.64c.5.29,1.12-.08,1.12-.65v-5.42c0-.58-.62-.94-1.12-.65Z"/></svg>