<svg xmlns="http://www.w3.org/2000/svg" width="24" height="24" viewBox="0 0 24 24"><g opacity="0.4"><path d="m16.92,12.81c-.03.13-.06.26-.1.38-.04.13-.09.25-.13.37-.05.12-.11.24-.17.35-.26.49-.09,1.09.4,1.36.15.08.32.12.48.12.35,0,.7-.19.88-.52.09-.17.18-.34.26-.53.07-.18.14-.36.2-.55.06-.19.11-.38.15-.58.04-.19.07-.39.09-.6.02-.2.03-.4.03-.61s-.01-.41-.03-.61c-.02-.2-.05-.4-.09-.59-.04-.2-.09-.39-.15-.58-.06-.19-.12-.37-.2-.55-.08-.18-.16-.35-.25-.52-.26-.48-.87-.67-1.36-.4-.49.26-.66.87-.4,1.36.06.11.12.23.17.34.05.12.1.25.14.37s.07.25.1.38c.03.13.05.26.06.4.01.14.02.27.02.41s0,.28-.02.41c-.01.14-.04.27-.06.4Z"/></g><path d="m13.98,2.65c-.63-.35-1.41-.34-2.02.04l-5.38,3.31h-2.58c-1.65,0-3,1.35-3,3v6c0,1.65,1.35,3,3,3h2.58l5.38,3.31c.32.2.68.3,1.05.3.34,0,.67-.08.98-.25.63-.35,1.02-1.02,1.02-1.75V4.4c0-.72-.39-1.39-1.02-1.75Z"/></svg>