<svg xmlns="http://www.w3.org/2000/svg" width="24" height="24" viewBox="0 0 24 24"><g opacity="0.4"><path d="m8.05,7.48c-.76.4-1.45.9-2.06,1.51-.78.78-1.39,1.69-1.82,2.7-.35.83-.56,1.7-.63,2.59.45-.18.95-.29,1.46-.29.56,0,1.09.12,1.57.32.06-.5.17-.99.36-1.46.28-.66.67-1.24,1.18-1.75.51-.51,1.09-.9,1.75-1.18.07-.03.13-.07.19-.1-1.04-.35-1.82-1.25-2-2.35Z"/><path d="m18.01,8.99c-.61-.61-1.3-1.11-2.06-1.51-.18,1.11-.96,2-2,2.35.06.04.12.07.19.1.65.28,1.24.67,1.75,1.18.51.51.9,1.09,1.18,1.75.2.47.3.96.36,1.46.48-.21,1.01-.32,1.57-.32.52,0,1.01.11,1.46.29-.07-.89-.28-1.76-.63-2.6-.43-1.01-1.04-1.92-1.82-2.7Z"/><path d="m15.82,4c.11.31.18.65.18,1v2h2.51c-.32-.42-.51-.93-.51-1.5s.19-1.08.51-1.5h-2.7Z"/><path d="m8,7v-2c0-.35.07-.69.18-1h-2.7c.32.42.51.93.51,1.5s-.19,1.08-.51,1.5h2.51Z"/></g><path d="M19 14A4 4 0 1 0 19 22 4 4 0 1 0 19 14z"/><path d="M5 14A4 4 0 1 0 5 22 4 4 0 1 0 5 14z"/><path d="m16,7v-2c0-1.65-1.35-3-3-3h-2c-1.65,0-3,1.35-3,3v2c0,1.65,1.35,3,3,3h2c1.65,0,3-1.35,3-3Zm-5,0v-2h2v2s-2,0-2,0Z"/><path d="M20.5 3A2.5 2.5 0 1 0 20.5 8 2.5 2.5 0 1 0 20.5 3z"/><path d="M3.5 3A2.5 2.5 0 1 0 3.5 8 2.5 2.5 0 1 0 3.5 3z"/></svg>