<svg xmlns="http://www.w3.org/2000/svg" width="24" height="24" viewBox="0 0 24 24"><g opacity="0.4"><path d="m6,21c2.21,0,4-1.79,4-4,0-.86-.29-1.72-.8-2.4-.76-1.01-1.93-1.6-3.2-1.6s-2.43.58-3.2,1.6c-.52.69-.8,1.54-.8,2.4,0,2.21,1.79,4,4,4Z"/><path d="m18,21c2.21,0,4-1.79,4-4,0-.86-.29-1.72-.8-2.4-.76-1.01-1.93-1.6-3.2-1.6s-2.43.58-3.2,1.6c-.52.69-.8,1.54-.8,2.4,0,2.21,1.79,4,4,4Z"/><path d="M9.25 6H14.75V9.5H9.25z"/><path d="M18.61 6 16.25 6 16.25 9.5 20.52 9.5 18.61 6z"/><path d="M3 6H7.75V9.5H3z"/></g><path d="m21.24,4.56c-.53-.96-1.54-1.56-2.63-1.56H3c-1.65,0-3,1.35-3,3v8c0,1.31.85,2.41,2.01,2.82.04-.8.31-1.59.79-2.22.76-1.01,1.93-1.6,3.2-1.6s2.43.58,3.2,1.6c.52.69.8,1.54.8,2.4h4c0-.86.29-1.72.8-2.4.76-1.01,1.93-1.6,3.2-1.6s2.43.58,3.2,1.6c.48.64.75,1.42.79,2.22,1.17-.41,2.01-1.51,2.01-2.82v-3.62c0-.5-.13-1-.37-1.44l-2.39-4.38Zm-13.49,4.94H3v-3.5h4.75v3.5Zm7,0h-5.5v-3.5h5.5v3.5Zm1.5,0v-3.5h2.36l1.91,3.5h-4.27Z"/></svg>