<svg xmlns="http://www.w3.org/2000/svg" width="24" height="24" viewBox="0 0 24 24"><g opacity="0.4"><path d="m14.5,4h-5c-2.48,0-4.5,2.02-4.5,4.5v7c0,2.48,2.02,4.5,4.5,4.5h5c2.48,0,4.5-2.02,4.5-4.5v-7c0-2.48-2.02-4.5-4.5-4.5Zm1,11.5c-.29.29-.77.29-1.06,0l-2.97-2.97c-.14-.14-.22-.33-.22-.53v-4.25c0-.41.34-.75.75-.75h0c.41,0,.75.34.75.75v3.94l2.75,2.75c.29.29.29.77,0,1.06Z"/></g><path d="m12,7h0c-.41,0-.75.34-.75.75v4.25c0,.2.08.39.22.53l2.97,2.97c.29.29.77.29,1.06,0,.29-.29.29-.77,0-1.06l-2.75-2.75v-3.94c0-.41-.34-.75-.75-.75Z"/><path d="m7,22c0,.55.45,1,1,1h8c.55,0,1-.45,1-1v-2.76c-.72.48-1.58.76-2.5.76h-5c-.92,0-1.78-.28-2.5-.76v2.76Z"/><path d="m17,2c0-.55-.45-1-1-1h-8c-.55,0-1,.45-1,1v2.76c.72-.48,1.58-.76,2.5-.76h5c.92,0,1.78.28,2.5.76v-2.76Z"/></svg>