<svg xmlns="http://www.w3.org/2000/svg" width="24" height="24" viewBox="0 0 24 24"><g opacity="0.4"><path d="m20.5,14h-4c-1.38,0-2.5,1.12-2.5,2.5v.5h-4.43c.67.89.67,2.11,0,3h4.43v.5c0,1.38,1.12,2.5,2.5,2.5h4c1.38,0,2.5-1.12,2.5-2.5v-4c0-1.38-1.12-2.5-2.5-2.5Z"/><path d="m10,7h4.28c-.17-.47-.28-.97-.28-1.5s.11-1.03.28-1.5h-4.28v-.5c0-1.38-1.12-2.5-2.5-2.5H3.5c-1.38,0-2.5,1.12-2.5,2.5v4c0,1.38,1.12,2.5,2.5,2.5h.5v4.43c.89-.67,2.11-.67,3,0v-4.43h.5c1.38,0,2.5-1.12,2.5-2.5v-.5Z"/></g><path d="m3.73,22.35c.49.49,1.13.73,1.77.73s1.28-.24,1.77-.73l2.09-2.09c.97-.97.97-2.56,0-3.54l-2.09-2.09c-.97-.97-2.56-.97-3.54,0l-2.09,2.09c-.97.97-.97,2.56,0,3.54l2.09,2.09Z"/><path d="M18.5 1A4.5 4.5 0 1 0 18.5 10 4.5 4.5 0 1 0 18.5 1z"/></svg>