<svg xmlns="http://www.w3.org/2000/svg" width="24" height="24" viewBox="0 0 24 24"><g opacity="0.4"><path d="m1,17.5c0,2.49,2.01,4.5,4.5,4.5h13c2.49,0,4.5-2.01,4.5-4.5v-9.5H1v9.5Z"/><rect x="18" y="4" width="2" height="2" rx=".5" ry=".5"/><rect x="14" y="4" width="2" height="2" rx=".5" ry=".5"/></g><path d="m18.5,2H5.5C3.01,2,1,4.01,1,6.5v1.5h22v-1.5c0-2.49-2.01-4.5-4.5-4.5Zm-2.5,3.5c0,.28-.22.5-.5.5h-1c-.28,0-.5-.22-.5-.5v-1c0-.28.22-.5.5-.5h1c.28,0,.5.22.5.5v1Zm4,0c0,.28-.22.5-.5.5h-1c-.28,0-.5-.22-.5-.5v-1c0-.28.22-.5.5-.5h1c.28,0,.5.22.5.5v1Z"/></svg>