<svg xmlns="http://www.w3.org/2000/svg" width="24" height="24" viewBox="0 0 24 24"><g opacity="0.4"><path d="m12,2C5.93,2,1,6.93,1,13v6.5c0,1.38,1.12,2.5,2.5,2.5h1.5v-4c0-.55.45-1,1-1h12c.55,0,1,.45,1,1v4h1.5c1.38,0,2.5-1.12,2.5-2.5v-6.5c0-6.07-4.93-11-11-11Zm7,12c0,.55-.45,1-1,1H6c-.55,0-1-.45-1-1v-1.5c0-.83.67-1.5,1.5-1.5h11c.83,0,1.5.67,1.5,1.5v1.5Z"/></g><path d="m6,15h12c.55,0,1-.45,1-1v-1.5c0-.83-.67-1.5-1.5-1.5H6.5c-.83,0-1.5.67-1.5,1.5v1.5c0,.55.45,1,1,1Z"/><path d="m19,18c0-.55-.45-1-1-1H6c-.55,0-1,.45-1,1v4h14v-4Z"/></svg>