<svg xmlns="http://www.w3.org/2000/svg" width="24" height="24" viewBox="0 0 24 24"><g opacity="0.4"><path d="m18,2H6C3.52,2,1.5,4.02,1.5,6.5v11c0,2.48,2.02,4.5,4.5,4.5h12c2.48,0,4.5-2.02,4.5-4.5V6.5c0-2.48-2.02-4.5-4.5-4.5ZM5,7c0-.55.45-1,1-1s1,.45,1,1-.45,1-1,1-1-.45-1-1Zm3,0c0-.55.45-1,1-1s1,.45,1,1-.45,1-1,1-1-.45-1-1Zm3,0c0-.55.45-1,1-1s1,.45,1,1-.45,1-1,1-1-.45-1-1Z"/></g><path d="M6 6A1 1 0 1 0 6 8 1 1 0 1 0 6 6z"/><path d="M9 6A1 1 0 1 0 9 8 1 1 0 1 0 9 6z"/><path d="M12 6A1 1 0 1 0 12 8 1 1 0 1 0 12 6z"/></svg>