<svg xmlns="http://www.w3.org/2000/svg" width="24" height="24" viewBox="0 0 24 24"><g opacity="0.4"><path d="m5.7,5.04L1.31,20.21c-.2.7,0,1.46.51,1.97.38.38.89.59,1.41.59.19,0,.37-.03.56-.08l15.18-4.39c-.36-7.17-6.09-12.9-13.26-13.26Zm.3,13.96c-.55,0-1-.45-1-1s.45-1,1-1,1,.45,1,1-.45,1-1,1Zm1-4c-.55,0-1-.45-1-1s.45-1,1-1,1,.45,1,1-.45,1-1,1Zm1-5c0-.55.45-1,1-1s1,.45,1,1-.45,1-1,1-1-.45-1-1Zm2,8c-.55,0-1-.45-1-1s.45-1,1-1,1,.45,1,1-.45,1-1,1Zm1.5-4c-.55,0-1-.45-1-1s.45-1,1-1,1,.45,1,1-.45,1-1,1Zm2.5,3c-.55,0-1-.45-1-1s.45-1,1-1,1,.45,1,1-.45,1-1,1Z"/></g><path d="m8.86,1.02c-1.13-.07-2.2.69-2.52,1.81l-.64,2.21c7.17.36,12.9,6.09,13.26,13.26l2.2-.64c1.11-.32,1.87-1.38,1.81-2.52-.43-7.61-6.5-13.68-14.11-14.11Z"/><path d="M10 16A1 1 0 1 0 10 18 1 1 0 1 0 10 16z"/><path d="M11.5 12A1 1 0 1 0 11.5 14 1 1 0 1 0 11.5 12z"/><path d="M6 17A1 1 0 1 0 6 19 1 1 0 1 0 6 17z"/><path d="M7 13A1 1 0 1 0 7 15 1 1 0 1 0 7 13z"/><path d="M14 15A1 1 0 1 0 14 17 1 1 0 1 0 14 15z"/><path d="M9 9A1 1 0 1 0 9 11 1 1 0 1 0 9 9z"/></svg>