<svg xmlns="http://www.w3.org/2000/svg" width="24" height="24" viewBox="0 0 24 24"><g opacity="0.4"><path d="M15.23 11 12.09 11 12.7 13 15.83 13 15.23 11z"/><path d="M6.22 11 3.14 11 3.62 13 6.7 13 6.22 11z"/><path d="M17.3 13 20.38 13 20.86 11 17.78 11 17.3 13z"/><path d="M8.17 13 11.3 13 11.91 11 8.77 11 8.17 13z"/><path d="m13.44,5.07c-.19-.63-.77-1.07-1.44-1.07s-1.25.43-1.44,1.07l-.88,2.93h4.64l-.88-2.93Z"/><path d="m21,4c-.81-.19-1.62.3-1.81,1.11l-.69,2.89h3s.05,0,.08,0l.53-2.2c.19-.81-.3-1.62-1.11-1.81Z"/><path d="m14.79,19.93c.19.63.77,1.07,1.44,1.07h1.06c.69,0,1.3-.48,1.46-1.15l.92-3.85h-6.06l1.19,3.93Z"/><path d="m5.26,19.85c.16.67.77,1.15,1.46,1.15h1.06c.66,0,1.25-.43,1.44-1.07l1.19-3.93h-6.06l.92,3.85Z"/><path d="m4.81,5.11c-.19-.81-1-1.3-1.81-1.11-.81.19-1.3,1-1.11,1.81l.53,2.2s.05,0,.08,0h3l-.69-2.89Z"/></g><path d="m21.5,8H2.5c-.83,0-1.5.67-1.5,1.5s.67,1.5,1.5,1.5h19c.83,0,1.5-.67,1.5-1.5s-.67-1.5-1.5-1.5Z"/><path d="m21.5,13H2.5c-.83,0-1.5.67-1.5,1.5s.67,1.5,1.5,1.5h19c.83,0,1.5-.67,1.5-1.5s-.67-1.5-1.5-1.5Z"/></svg>