<svg xmlns="http://www.w3.org/2000/svg" width="24" height="24" viewBox="0 0 24 24"><g opacity="0.4"><path d="m22.32,5.82c-.15-.1-.3-.23-.51-.43-.61-.55-1.53-1.39-3.21-1.39s-2.6.84-3.21,1.39c-.51.46-.7.61-1.19.61s-.68-.15-1.19-.61c-.61-.55-1.53-1.39-3.21-1.39s-2.6.84-3.21,1.39c-.51.46-.69.61-1.19.61s-.68-.15-1.19-.61c-.25-.23-.55-.5-.94-.75-.98-.62-2.27.13-2.27,1.29,0,.51.26.97.68,1.25.14.1.3.23.51.42.61.55,1.53,1.39,3.21,1.39s2.6-.84,3.21-1.39c.51-.46.69-.61,1.19-.61s.68.15,1.19.61c.61.55,1.53,1.39,3.21,1.39s2.6-.84,3.21-1.39c.51-.46.7-.61,1.19-.61s.68.15,1.19.61c.25.23.55.5.94.75.98.62,2.27-.13,2.27-1.29,0-.51-.26-.97-.68-1.25Z"/><path d="m22.32,16.82c-.15-.1-.3-.23-.51-.43-.61-.55-1.53-1.39-3.21-1.39s-2.6.84-3.21,1.39c-.51.46-.7.61-1.19.61s-.68-.15-1.19-.61c-.61-.55-1.53-1.39-3.21-1.39s-2.6.84-3.21,1.39c-.51.46-.69.61-1.19.61s-.68-.15-1.19-.61c-.25-.23-.55-.5-.94-.75-.98-.62-2.27.13-2.27,1.29,0,.51.26.97.68,1.25.14.1.3.23.51.42.61.55,1.53,1.39,3.21,1.39s2.6-.84,3.21-1.39c.51-.46.69-.61,1.19-.61s.68.15,1.19.61c.61.55,1.53,1.39,3.21,1.39s2.6-.84,3.21-1.39c.51-.46.7-.61,1.19-.61s.68.15,1.19.61c.25.23.55.5.94.75.98.62,2.27-.13,2.27-1.29,0-.51-.26-.97-.68-1.25Z"/></g><path d="m22.32,11.32c-.15-.1-.3-.23-.51-.43-.61-.55-1.53-1.39-3.21-1.39s-2.6.84-3.21,1.39c-.51.46-.7.61-1.19.61s-.68-.15-1.19-.61c-.61-.55-1.53-1.39-3.21-1.39s-2.6.84-3.21,1.39c-.51.46-.69.61-1.19.61s-.68-.15-1.19-.61c-.25-.23-.55-.5-.94-.75-.98-.62-2.27.13-2.27,1.29,0,.51.26.97.68,1.25.14.1.3.23.51.42.61.55,1.53,1.39,3.21,1.39s2.6-.84,3.21-1.39c.51-.46.69-.61,1.19-.61s.68.15,1.19.61c.61.55,1.53,1.39,3.21,1.39s2.6-.84,3.21-1.39c.51-.46.7-.61,1.19-.61s.68.15,1.19.61c.25.23.55.5.94.75.98.62,2.27-.13,2.27-1.29,0-.51-.26-.97-.68-1.25Z"/></svg>