<svg xmlns="http://www.w3.org/2000/svg" width="24" height="24" viewBox="0 0 24 24"><g opacity="0.4"><path d="m17.09,14.39c-.11-.08-.22-.16-.34-.24-.11-.08-.23-.15-.34-.22-.12-.07-.23-.14-.36-.21-.12-.06-.24-.13-.36-.18-.12-.06-.25-.12-.38-.17-.12-.05-.25-.1-.39-.15-.13-.05-.26-.09-.39-.13-.14-.04-.27-.08-.4-.11-.14-.04-.28-.07-.43-.1-.13-.03-.26-.05-.41-.07-.14-.02-.28-.04-.43-.05-.14-.01-.29-.03-.43-.03-.29-.01-.58-.01-.87,0-.14,0-.29.02-.43.03-.14.01-.28.03-.44.06-.13.02-.26.04-.41.07-.14.03-.28.06-.4.09-.14.04-.28.07-.41.12-.14.04-.27.09-.39.13-.13.05-.26.1-.4.16-.12.05-.25.11-.37.17-.12.06-.24.12-.37.19-.12.06-.24.13-.35.2-.12.07-.23.14-.35.22-.11.08-.23.16-.34.24-.66.5-.8,1.44-.3,2.1.5.66,1.44.8,2.1.3.07-.05.14-.1.21-.15.07-.05.15-.1.23-.15.08-.05.15-.09.23-.13.08-.04.16-.08.25-.12.08-.04.16-.08.24-.11.08-.03.17-.07.25-.1.08-.03.17-.06.26-.09.08-.03.17-.05.27-.08.09-.02.17-.04.25-.06.1-.02.2-.04.28-.05.09-.01.18-.03.27-.03.09,0,.19-.02.28-.02.19,0,.38,0,.57,0,.09,0,.19.01.28.02.09,0,.18.02.26.03.1.02.2.03.28.05.09.02.17.04.27.06.08.02.17.05.26.07.09.03.17.06.25.09.08.03.17.06.24.09.08.04.17.07.25.11.08.04.16.08.23.12.08.04.16.09.24.14.08.05.15.09.22.14.07.05.14.1.21.15.27.2.59.3.9.3.46,0,.91-.21,1.2-.6.5-.66.36-1.6-.3-2.1Z"/></g><path d="m12,17c-1.1,0-2,.9-2,2,0,1.1.89,2,2,2s2-.9,2-2-.9-2-2-2Z"/></svg>