<svg xmlns="http://www.w3.org/2000/svg" width="24" height="24" viewBox="0 0 24 24"><g opacity="0.4"><path d="m4,12c0,4.41,3.59,8,8,8s8-3.59,8-8-3.59-8-8-8S4,7.59,4,12Zm6.5-3.5c0-.83.67-1.5,1.5-1.5s1.5.67,1.5,1.5v2h2c.83,0,1.5.67,1.5,1.5s-.67,1.5-1.5,1.5h-3.5c-.83,0-1.5-.67-1.5-1.5v-3.5Z"/></g><path d="m12,7c-.83,0-1.5.67-1.5,1.5v3.5c0,.83.67,1.5,1.5,1.5h3.5c.83,0,1.5-.67,1.5-1.5s-.67-1.5-1.5-1.5h-2v-2c0-.83-.67-1.5-1.5-1.5Z"/><path d="m7,21.5c0,.83.67,1.5,1.5,1.5h7c.83,0,1.5-.67,1.5-1.5v-3.26c-1.37,1.1-3.11,1.76-5,1.76s-3.63-.66-5-1.76v3.26Z"/><path d="m17,2.5c0-.83-.67-1.5-1.5-1.5h-7c-.83,0-1.5.67-1.5,1.5v3.26c1.37-1.1,3.11-1.76,5-1.76s3.63.66,5,1.76v-3.26Z"/></svg>