<svg xmlns="http://www.w3.org/2000/svg" width="24" height="24" viewBox="0 0 24 24"><g opacity="0.4"><path d="M18 4H19V5H18z"/><path d="M20 4H21V5H20z"/><path d="m6,13.5c0,1.93,1.57,3.5,3.5,3.5h10c1.93,0,3.5-1.57,3.5-3.5v-6.5H6v6.5Z"/></g><path d="m16,20.5c0-.83-.67-1.5-1.5-1.5H5.5c-.83,0-1.5-.67-1.5-1.5v-7c0-.83-.67-1.5-1.5-1.5s-1.5.67-1.5,1.5v7c0,2.48,2.02,4.5,4.5,4.5h9c.83,0,1.5-.67,1.5-1.5Z"/><path d="m19.5,2h-10c-1.93,0-3.5,1.57-3.5,3.5v1.5h17v-1.5c0-1.93-1.57-3.5-3.5-3.5Zm-.5,3h-1v-1h1v1Zm2,0h-1v-1h1v1Z"/></svg>