<svg xmlns="http://www.w3.org/2000/svg" width="24" height="24" viewBox="0 0 24 24"><g opacity="0.4"><rect x="18" y="4" width="2" height="2" rx=".5" ry=".5"/><rect x="14" y="4" width="2" height="2" rx=".5" ry=".5"/><path d="m1,17.5c0,2.49,2.01,4.5,4.5,4.5h13c2.49,0,4.5-2.01,4.5-4.5v-9.5H1v9.5Zm7.28-3.78l3.19-3.19c.29-.29.77-.29,1.06,0l3.19,3.19c.47.47.14,1.28-.53,1.28h-1.69v3.5c0,.83-.67,1.5-1.5,1.5s-1.5-.67-1.5-1.5v-3.5h-1.69c-.67,0-1-.81-.53-1.28Z"/></g><path d="m18.5,2H5.5C3.01,2,1,4.01,1,6.5v1.5h22v-1.5c0-2.49-2.01-4.5-4.5-4.5Zm-2.5,3.5c0,.28-.22.5-.5.5h-1c-.28,0-.5-.22-.5-.5v-1c0-.28.22-.5.5-.5h1c.28,0,.5.22.5.5v1Zm4,0c0,.28-.22.5-.5.5h-1c-.28,0-.5-.22-.5-.5v-1c0-.28.22-.5.5-.5h1c.28,0,.5.22.5.5v1Z"/><path d="m12.53,10.53c-.29-.29-.77-.29-1.06,0l-3.19,3.19c-.47.47-.14,1.28.53,1.28h1.69v3.5c0,.83.67,1.5,1.5,1.5s1.5-.67,1.5-1.5v-3.5h1.69c.67,0,1-.81.53-1.28l-3.19-3.19Z"/></svg>