<svg xmlns="http://www.w3.org/2000/svg" width="24" height="24" viewBox="0 0 24 24"><g opacity="0.4"><path d="m4.22,19.78c2.14,2.14,4.96,3.22,7.78,3.22s5.63-1.07,7.78-3.22c4.29-4.29,4.29-11.27,0-15.56-2.08-2.08-4.84-3.22-7.78-3.22s-5.7,1.14-7.78,3.22C-.07,8.51-.07,15.49,4.22,19.78Zm4.24-11.31c.07-.07.16-.13.25-.16.58-.38,1.36-.35,1.87.16l1.41,1.41,1.41-1.41c.51-.51,1.29-.55,1.87-.16.09.04.17.09.25.16.59.59.59,1.54,0,2.12l-1.41,1.41,1.41,1.41c.51.51.55,1.29.16,1.87-.04.09-.09.17-.16.25s-.16.13-.25.16c-.25.16-.52.27-.81.27-.38,0-.77-.15-1.06-.44l-1.41-1.41-1.41,1.41c-.29.29-.68.44-1.06.44-.29,0-.56-.11-.81-.27-.09-.04-.17-.09-.25-.16s-.13-.16-.16-.25c-.38-.58-.35-1.36.16-1.87l1.41-1.41-1.41-1.41c-.59-.59-.59-1.54,0-2.12Z"/></g><path d="m15.54,8.46c-.07-.07-.16-.13-.25-.16-.58-.38-1.36-.35-1.87.16l-1.41,1.41-1.41-1.41c-.51-.51-1.29-.55-1.87-.16-.09.04-.17.09-.25.16-.59.59-.59,1.54,0,2.12l1.41,1.41-1.41,1.41c-.51.51-.55,1.29-.16,1.87.04.09.09.17.16.25s.16.13.25.16c.25.16.52.27.81.27.38,0,.77-.15,1.06-.44l1.41-1.41,1.41,1.41c.29.29.68.44,1.06.44.29,0,.56-.11.81-.27.09-.04.17-.09.25-.16s.13-.16.16-.25c.38-.58.35-1.36-.16-1.87l-1.41-1.41,1.41-1.41c.59-.59.59-1.54,0-2.12Z"/></svg>