<svg xmlns="http://www.w3.org/2000/svg" width="24" height="24" viewBox="0 0 24 24"><g opacity="0.4"><path d="M10.5 13H13.5V15H10.5z"/><path d="m20,2h0c-.65-.52-1.59-.41-2.11.23l-5.89,7.36L6.11,2.23c-.52-.65-1.46-.75-2.11-.23h0c-.65.52-.75,1.46-.23,2.11l4.71,5.89h7.04l4.71-5.89c.52-.65.41-1.59-.23-2.11Z"/><path d="m10.5,20.5c0,.83.67,1.5,1.5,1.5s1.5-.67,1.5-1.5v-2.5h-3v2.5Z"/></g><path d="m7.5,13h9c.83,0,1.5-.67,1.5-1.5s-.67-1.5-1.5-1.5H7.5c-.83,0-1.5.67-1.5,1.5s.67,1.5,1.5,1.5Z"/><path d="m7.5,18h9c.83,0,1.5-.67,1.5-1.5s-.67-1.5-1.5-1.5H7.5c-.83,0-1.5.67-1.5,1.5s.67,1.5,1.5,1.5Z"/></svg>