<svg xmlns="http://www.w3.org/2000/svg" width="24" height="24" viewBox="0 0 24 24"><g opacity="0.4"><path d="m12.7,1.04c-.23-.01-.47-.04-.7-.04C5.92,1,1,5.92,1,12s4.55,10.6,10.3,10.96c-1.35-.21-4.17-1.1-4.17-4.84,0-6.13,9.75-6.13,9.75-12.26,0-3.73-2.82-4.62-4.17-4.84Zm-1.7,6.96c-1.1,0-2-.9-2-2s.9-2,2-2,2,.9,2,2-.9,2-2,2Z"/></g><path d="M11 4A2 2 0 1 0 11 8 2 2 0 1 0 11 4z"/><path d="m12.7,1.04c1.35.21,4.17,1.1,4.17,4.84,0,6.13-9.75,6.13-9.75,12.26,0,3.73,2.82,4.62,4.17,4.84.23.01.47.04.7.04,6.08,0,11-4.92,11-11S18.45,1.4,12.7,1.04Zm.3,18.96c-1.1,0-2-.9-2-2s.9-2,2-2,2,.9,2,2-.9,2-2,2Z"/></svg>