<svg xmlns="http://www.w3.org/2000/svg" viewBox="0 0 24 24" width="24" height="24"><path d="m12,22c2.67,0,5.18-1.04,7.07-2.93,1.6-1.6,2.62-3.72,2.86-5.96.06-.55-.33-1.04-.88-1.1-.56-.06-1.04.34-1.1.88-.2,1.79-1.01,3.49-2.29,4.77-1.51,1.51-3.52,2.34-5.66,2.34s-4.15-.83-5.66-2.34c-1.51-1.51-2.34-3.52-2.34-5.66s.83-4.15,2.34-5.66c1.28-1.28,2.97-2.09,4.77-2.29.55-.06.94-.55.88-1.1-.06-.55-.53-.94-1.1-.88-2.24.25-4.36,1.27-5.96,2.86-1.89,1.89-2.93,4.4-2.93,7.07s1.04,5.18,2.93,7.07c1.89,1.89,4.4,2.93,7.07,2.93Z"/><path d="m17.71,6.29c-.39-.39-1.02-.39-1.41,0l-6.29,6.29v-3.59c0-.55-.45-1-1-1s-1,.45-1,1v6c0,.55.45,1,1,1h6c.55,0,1-.45,1-1s-.45-1-1-1h-3.59l6.29-6.29c.39-.39.39-1.02,0-1.41Z"/></svg>