<svg xmlns="http://www.w3.org/2000/svg" width="24" height="24" viewBox="0 0 24 24"><path d="M21.11 6.94c-.82-.13-1.33-.43-1.93-.8C18.29 5.6 17.28 5 15.33 5s-2.96.61-3.85 1.14c-.8.48-1.43.86-2.82.86s-2.02-.38-2.82-.86c-.69-.42-1.46-.88-2.68-1.06-.61-.09-1.17.37-1.17.99 0 .51.38.91.89.99.82.13 1.33.43 1.93.8C5.7 8.4 6.71 9 8.66 9s2.96-.61 3.85-1.14c.8-.48 1.43-.86 2.82-.86s2.02.38 2.82.86c.69.42 1.46.88 2.68 1.06.61.09 1.17-.37 1.17-.99 0-.51-.38-.91-.89-.99M21.11 11.94c-.82-.13-1.33-.43-1.93-.8-.89-.54-1.9-1.14-3.85-1.14s-2.96.61-3.85 1.14c-.8.48-1.43.86-2.82.86s-2.02-.38-2.82-.86c-.69-.42-1.46-.88-2.68-1.06-.61-.09-1.17.37-1.17.99 0 .51.38.91.89.99.82.13 1.33.43 1.93.8.89.54 1.9 1.14 3.85 1.14s2.96-.61 3.85-1.14c.8-.48 1.43-.86 2.82-.86s2.02.38 2.82.86c.69.42 1.46.88 2.68 1.06.61.09 1.17-.37 1.17-.99 0-.51-.38-.91-.89-.99M21.11 16.94c-.82-.13-1.33-.43-1.93-.8-.89-.54-1.9-1.14-3.85-1.14s-2.96.61-3.85 1.14c-.8.48-1.43.86-2.82.86s-2.02-.38-2.82-.86c-.69-.42-1.46-.88-2.68-1.06-.61-.09-1.17.37-1.17.99 0 .51.38.91.89.99.82.13 1.33.43 1.93.8.89.54 1.9 1.14 3.85 1.14s2.96-.61 3.85-1.14c.8-.48 1.43-.86 2.82-.86s2.02.38 2.82.86c.69.42 1.46.88 2.68 1.06.61.09 1.17-.37 1.17-.99 0-.51-.38-.91-.89-.99"/></svg>