<svg xmlns="http://www.w3.org/2000/svg" viewBox="0 0 24 24" width="24" height="24"><path d="m3,10c.55,0,1-.45,1-1v-3.59l7.29,7.29c.2.2.45.29.71.29s.51-.1.71-.29c.39-.39.39-1.02,0-1.41l-7.29-7.29h3.59c.55,0,1-.45,1-1s-.45-1-1-1H3c-.13,0-.26.03-.38.08-.24.1-.44.3-.54.54-.05.12-.08.25-.08.38v6c0,.55.45,1,1,1Z"/><path d="m13.11,2.06c-.54-.05-1.04.33-1.1.88-.06.55.33,1.04.88,1.1,1.8.2,3.49,1.01,4.77,2.29,1.51,1.51,2.34,3.52,2.34,5.66s-.83,4.15-2.34,5.66c-1.51,1.51-3.52,2.34-5.66,2.34s-4.15-.83-5.66-2.34c-1.28-1.28-2.09-2.97-2.29-4.77-.06-.55-.56-.94-1.1-.88-.55.06-.94.56-.88,1.1.25,2.25,1.27,4.36,2.86,5.96,1.89,1.89,4.4,2.93,7.07,2.93s5.18-1.04,7.07-2.93c1.89-1.89,2.93-4.4,2.93-7.07s-1.04-5.18-2.93-7.07c-1.6-1.6-3.71-2.62-5.96-2.86Z"/></svg>