<svg xmlns="http://www.w3.org/2000/svg" viewBox="0 0 24 24" width="24" height="24"><path d="m11,4c0-.55-.45-1-1-1h-6c-.13,0-.26.03-.38.08-.24.1-.44.3-.54.54-.05.12-.08.25-.08.38v6c0,.55.45,1,1,1s1-.45,1-1v-3.59l6.29,6.29c.2.2.45.29.71.29s.51-.1.71-.29c.39-.39.39-1.02,0-1.41l-6.29-6.29h3.59c.55,0,1-.45,1-1Z"/><path d="m3,17c0,2.21,1.79,4,4,4h10c2.21,0,4-1.79,4-4V7c0-2.21-1.79-4-4-4h-3c-.55,0-1,.45-1,1s.45,1,1,1h3c1.1,0,2,.9,2,2v10c0,1.1-.9,2-2,2H7c-1.1,0-2-.9-2-2v-3c0-.55-.45-1-1-1s-1,.45-1,1v3Z"/></svg>