<svg xmlns="http://www.w3.org/2000/svg" width="24" height="24" viewBox="0 0 24 24"><path d="M12 2C6.49 2 2 6.49 2 12s4.49 10 10 10 10-4.49 10-10S17.51 2 12 2m-5 9c0-.24.1-.46.24-.64l-.8-.53a1.01 1.01 0 0 1-.28-1.39c.3-.46.93-.58 1.39-.28l3 2c.46.31.58.93.28 1.39-.19.29-.51.45-.83.45-.19 0-.38-.05-.55-.17l-.57-.38c-.17.32-.49.55-.88.55-.55 0-1-.45-1-1m7.75 6H9.24c-.6 0-.97-.68-.62-1.17C9.21 14.99 10.28 14 12 14s2.79.99 3.38 1.83c.35.49-.02 1.17-.62 1.17Zm2.8-7.17-.8.53c.15.17.24.39.24.64 0 .55-.45 1-1 1-.39 0-.71-.23-.88-.55l-.57.38c-.17.11-.36.17-.55.17-.32 0-.64-.16-.83-.45-.31-.46-.18-1.08.28-1.39l3-2a1.001 1.001 0 1 1 1.11 1.67"/></svg>