<svg xmlns="http://www.w3.org/2000/svg" width="24" height="24" viewBox="0 0 24 24"><path d="M18.7 2.29a.996.996 0 1 0-1.41 1.41l3.01 3c.2.19.45.29.71.29s.51-.1.71-.29a.996.996 0 0 0 0-1.41l-3.01-3ZM3 7c.26 0 .51-.1.71-.29l2.99-3A.996.996 0 1 0 5.29 2.3l-2.99 3a.996.996 0 0 0 0 1.41c.2.19.45.29.71.29ZM3 13c0 4.88 4.12 9 9 9s9-4.12 9-9-4.12-9-9-9-9 4.12-9 9m8-4c0-.55.45-1 1-1s1 .45 1 1v5c0 .55-.45 1-1 1s-1-.45-1-1zm.08 7.62c.05-.13.12-.23.21-.33.37-.37 1.05-.37 1.42 0 .09.1.16.2.21.33a.995.995 0 0 1-.21 1.09q-.15.135-.33.21A.8.8 0 0 1 12 18a.99.99 0 0 1-1-1c0-.13.02-.26.08-.38"/></svg>