<svg xmlns="http://www.w3.org/2000/svg" viewBox="0 0 24 24" width="24" height="24"><path d="m19.25,8.01c-.46-.63-1.21-1.01-2-1.01h-2.25v-.5c0-1.38-1.12-2.5-2.5-2.5H4.5c-1.38,0-2.5,1.12-2.5,2.5v9c0,1.21.86,2.22,2.01,2.45,0,.02,0,.03,0,.05,0,1.65,1.35,3,3,3s3-1.35,3-3h4c0,1.65,1.35,3,3,3s3-1.35,3-3c0-.02,0-.03,0-.05,1.14-.23,2.01-1.24,2.01-2.45v-3.5c0-.22-.07-.43-.2-.6l-2.54-3.39Zm-12.25,10.99c-.55,0-1-.45-1-1,0-.17.05-.35.13-.5.36-.62,1.33-.63,1.72-.02,0,0,.01.02.02.03.09.15.13.32.13.49,0,.55-.45,1-1,1Zm4-7.5h-1.5v1.5c0,.55-.45,1-1,1s-1-.45-1-1v-1.5h-1.5c-.55,0-1-.45-1-1s.45-1,1-1h1.5v-1.5c0-.55.45-1,1-1s1,.45,1,1v1.5h1.5c.55,0,1,.45,1,1s-.45,1-1,1Zm6,7.5c-.55,0-1-.45-1-1,0-.17.05-.35.13-.5.36-.62,1.33-.63,1.72-.02,0,0,.01.02.02.03.09.15.13.32.13.49,0,.55-.45,1-1,1Zm-2-7v-3h2.25c.16,0,.31.07.4.2l2.1,2.8h-4.75Z"/></svg>