<svg xmlns="http://www.w3.org/2000/svg" viewBox="0 0 24 24" width="24" height="24"><path d="m21,14c-.55,0-1,.45-1,1v3.59l-7.29-7.29c-.39-.39-1.02-.39-1.41,0s-.39,1.02,0,1.41l7.29,7.29h-3.59c-.55,0-1,.45-1,1s.45,1,1,1h6c.13,0,.26-.03.38-.08.24-.1.44-.3.54-.54.05-.12.08-.25.08-.38v-6c0-.55-.45-1-1-1Z"/><path d="m10.89,21.94s.07,0,.11,0c.5,0,.94-.38.99-.89.06-.55-.33-1.04-.88-1.1-1.8-.2-3.49-1.01-4.77-2.29-1.51-1.51-2.34-3.52-2.34-5.66s.83-4.15,2.34-5.66c1.51-1.51,3.52-2.34,5.66-2.34s4.15.83,5.66,2.34c1.28,1.28,2.09,2.97,2.29,4.77.06.55.57.94,1.1.88.55-.06.94-.56.88-1.1-.25-2.25-1.27-4.36-2.86-5.96-1.89-1.89-4.4-2.93-7.07-2.93s-5.18,1.04-7.07,2.93c-1.89,1.89-2.93,4.4-2.93,7.07s1.04,5.18,2.93,7.07c1.6,1.6,3.71,2.62,5.96,2.86Z"/></svg>