<svg xmlns="http://www.w3.org/2000/svg" width="24" height="24" viewBox="0 0 24 24"><path d="M18.7 2.29a.996.996 0 1 0-1.41 1.41l3.01 3c.2.19.45.29.71.29s.51-.1.71-.29a.996.996 0 0 0 0-1.41l-3.01-3ZM3 7c.26 0 .51-.1.71-.29l2.99-3A.996.996 0 1 0 5.29 2.3l-2.99 3a.996.996 0 0 0 0 1.41c.2.19.45.29.71.29ZM21 13c0-4.88-4.12-9-9-9s-9 4.12-9 9 4.12 9 9 9 9-4.12 9-9m-4.79-1.98-4.38 4.38c-.2.2-.45.29-.71.29s-.51-.1-.71-.29l-2.62-2.62a.996.996 0 1 1 1.41-1.41l1.92 1.92 3.67-3.67a.996.996 0 1 1 1.41 1.41Z"/></svg>