<svg xmlns="http://www.w3.org/2000/svg" viewBox="0 0 24 24" width="24" height="24"><path d="m20.29,6.71c.2.19.45.29.71.29s.51-.1.71-.29c.39-.39.39-1.02,0-1.41l-3.01-3c-.39-.39-1.02-.39-1.41,0-.39.39-.39,1.02,0,1.41l3.01,3Z"/><path d="m19.41,18c.99-1.44,1.59-3.16,1.59-5,0-4.88-4.12-9-9-9-1.84,0-3.56.59-5,1.59l-1.09-1.09.79-.79c.39-.39.39-1.02,0-1.41-.39-.39-1.02-.39-1.41,0l-.79.79-.79-.79c-.39-.39-1.02-.39-1.41,0s-.39,1.02,0,1.41l.79.79h0s1.41,1.41,1.41,1.41h0s.97.97.97.97h0l5.53,5.53h0s1.59,1.59,1.59,1.59h0l5.53,5.53h0s2.18,2.18,2.18,2.18c.2.2.45.29.71.29s.51-.1.71-.29c.39-.39.39-1.02,0-1.41l-2.29-2.29Zm-8.41-9c0-.55.45-1,1-1s1,.45,1,1v2.59l-2-2v-.59Zm2.41,3h2.59c.55,0,1,.45,1,1s-.45,1-1,1h-.59l-2-2Z"/><path d="m3,13c0,4.88,4.12,9,9,9,1.63,0,3.17-.47,4.5-1.26L4.26,8.5c-.79,1.33-1.26,2.87-1.26,4.5Z"/></svg>