<svg xmlns="http://www.w3.org/2000/svg" viewBox="0 0 24 24" width="24" height="24"><path d="m12.5,16c0-.55-.45-1-1-1s-1,.45-1,1c0,.98.43,1.52.72,1.88.21.26.28.35.28.62s-.07.36-.28.62c-.29.36-.72.9-.72,1.88,0,.55.45,1,1,1s1-.45,1-1c0-.27.07-.36.28-.62.29-.36.72-.9.72-1.88s-.43-1.52-.72-1.88c-.21-.26-.28-.35-.28-.62Z"/><path d="m8.5,16c0-.55-.45-1-1-1s-1,.45-1,1c0,.98.43,1.52.72,1.88.21.26.28.35.28.62s-.07.36-.28.62c-.29.36-.72.9-.72,1.88,0,.55.45,1,1,1s1-.45,1-1c0-.27.07-.36.28-.62.29-.36.72-.9.72-1.88s-.43-1.52-.72-1.88c-.21-.26-.28-.35-.28-.62Z"/><path d="m16.5,16c0-.55-.45-1-1-1s-1,.45-1,1c0,.98.43,1.52.72,1.88.21.26.28.35.28.62s-.07.36-.28.62c-.29.36-.72.9-.72,1.88,0,.55.45,1,1,1s1-.45,1-1c0-.27.07-.36.28-.62.29-.36.72-.9.72-1.88s-.43-1.52-.72-1.88c-.21-.26-.28-.35-.28-.62Z"/><path d="m18,2H6c-2.21,0-4,1.79-4,4v3c0,2.21,1.79,4,4,4h12c2.21,0,4-1.79,4-4v-3c0-2.21-1.79-4-4-4Zm-.5,8H6.5c-.28,0-.5-.22-.5-.5s.22-.5.5-.5h11c.28,0,.5.22.5.5s-.22.5-.5.5Zm0-3c-.28,0-.5-.22-.5-.5s.22-.5.5-.5.5.22.5.5-.22.5-.5.5Z"/></svg>