<svg xmlns="http://www.w3.org/2000/svg" viewBox="0 0 24 24" width="24" height="24"><path d="m21,10h-1.5c-.55,0-1,.45-1,1s.45,1,1,1h1.5c.55,0,1-.45,1-1s-.45-1-1-1Z"/><path d="m15,8.18v-4.18c0-.37-.2-.71-.53-.88-.32-.17-.72-.16-1.03.05l-5.24,3.5c-.33.22-.71.34-1.11.34h-1.09c-2.21,0-4,1.79-4,4,0,1.52.86,2.82,2.1,3.5l1.65,5.78c.13.44.53.73.96.73.09,0,.18-.01.28-.04.53-.15.84-.71.69-1.24l-1.35-4.73h.77c.4,0,.78.12,1.11.34l5.24,3.5c.17.11.36.17.55.17.16,0,.32-.04.47-.12.33-.17.53-.51.53-.88v-4.18c1.16-.41,2-1.51,2-2.82s-.84-2.4-2-2.82Z"/><path d="m19,8.33c.19,0,.38-.05.55-.17l1-.67c.46-.31.58-.93.28-1.39s-.93-.58-1.39-.28l-1,.67c-.46.31-.58.93-.28,1.39.19.29.51.45.83.45Z"/><path d="m19.55,13.83c-.46-.31-1.08-.18-1.39.28-.31.46-.18,1.08.28,1.39l1,.67c.17.11.36.17.55.17.32,0,.64-.16.83-.45.31-.46.18-1.08-.28-1.39l-1-.67Z"/></svg>