<svg xmlns="http://www.w3.org/2000/svg" viewBox="0 0 24 24" width="24" height="24"><path d="M7.5 15A1.5 1.5 0 1 0 7.5 18 1.5 1.5 0 1 0 7.5 15z"/><path d="m19,6v-1c0-1.65-1.35-3-3-3h-8c-1.65,0-3,1.35-3,3v1c-1.65,0-3,1.35-3,3h20c0-1.65-1.35-3-3-3Zm-2,0H7v-1c0-.55.45-1,1-1h8c.55,0,1,.45,1,1v1Z"/><path d="m2,19c0,1.65,1.35,3,3,3h14c1.65,0,3-1.35,3-3v-8H2v8Zm14.5-6c1.93,0,3.5,1.57,3.5,3.5s-1.57,3.5-3.5,3.5-3.5-1.57-3.5-3.5,1.57-3.5,3.5-3.5Zm-9,0c1.93,0,3.5,1.57,3.5,3.5s-1.57,3.5-3.5,3.5-3.5-1.57-3.5-3.5,1.57-3.5,3.5-3.5Z"/><path d="M16.5 15A1.5 1.5 0 1 0 16.5 18 1.5 1.5 0 1 0 16.5 15z"/></svg>