<svg xmlns="http://www.w3.org/2000/svg" viewBox="0 0 24 24" width="24" height="24"><path d="m18.96,8.02c-.51.65-1.06,1.89-1.06,4.21,0,.55-.45,1-1,1s-1-.45-1-1c0-2.67.65-4.3,1.39-5.3.18-.25.1-.6-.17-.73-.65-.32-1.34-.58-2.06-.78-.17-.05-.36,0-.48.12-.86.89-1.87,2.76-1.87,6.69,0,.55-.45,1-1,1s-1-.45-1-1c0-3.01.57-5.06,1.3-6.46.18-.34-.07-.75-.46-.73-.74.03-1.77.11-2.47.33-.12.04-.22.12-.28.24-.65,1.23-1.3,3.16-1.3,6.62,0,.55-.45,1-1,1s-1-.45-1-1c0-1.81.17-3.27.43-4.46.1-.45-.42-.78-.78-.5-1.91,1.45-3.15,3.46-3.15,5.61,0,3.43,4.39,6.12,10,6.12s10-2.69,10-6.12c0-1.82-.89-3.54-2.32-4.9-.21-.2-.55-.18-.72.05Z"/></svg>