<svg xmlns="http://www.w3.org/2000/svg" width="24" height="24" viewBox="0 0 24 24"><path d="M16.81 2.08C16.55 2.03 16.28 2 16 2H8c-.28 0-.55.03-.81.08A4 4 0 0 0 4 6v14.14c0 .53.29 1.03.75 1.3.23.13.49.2.75.2s.51-.07.74-.2l5.51-3.15c.15-.09.34-.09.5 0l5.51 3.15c.46.27 1.04.26 1.5 0s.75-.76.75-1.3V6c0-1.93-1.37-3.55-3.19-3.92Zm-1.72 6.99-1.34 1.21c-.09.08-.12.2-.09.31l.52 1.84c.08.27-.22.49-.45.33l-1.55-1.04a.29.29 0 0 0-.33 0l-1.55 1.04c-.23.15-.53-.06-.45-.33l.52-1.84c.03-.11 0-.23-.09-.31L8.94 9.07c-.2-.18-.09-.5.18-.52l1.64-.13c.11 0 .2-.08.25-.18l.74-1.63a.3.3 0 0 1 .55 0l.74 1.63c.04.1.14.17.25.18l1.64.13c.26.02.37.35.18.52Z"/></svg>