<svg xmlns="http://www.w3.org/2000/svg" viewBox="0 0 24 24" width="24" height="24"><path d="m21,16.51v-3.51c0-.3-.02-.59-.04-.89l-3.65,1.62c-.26.11-.54.17-.81.17s-.55-.06-.81-.17l-3.69-1.64-3.68,1.64c-.52.23-1.11.23-1.62,0l-3.64-1.62c-.03.29-.04.59-.04.89v3.51c-.6.46-1,1.17-1,1.99v1c0,1.38,1.12,2.5,2.5,2.5h15c1.38,0,2.5-1.12,2.5-2.5v-1c0-.81-.4-1.53-1-1.99Zm-1,2.99c0,.28-.22.5-.5.5H4.5c-.28,0-.5-.22-.5-.5v-1c0-.28.22-.5.5-.5h15c.28,0,.5.22.5.5v1Z"/><path d="m11.18,10.27c.52-.23,1.11-.23,1.62,0l3.69,1.64,4.02-1.79c-.94-2.78-3.2-4.95-6.03-5.76-.08-1.31-1.16-2.36-2.49-2.36s-2.41,1.05-2.49,2.36c-2.83.82-5.09,2.99-6.03,5.76l4.01,1.79,3.68-1.64Z"/></svg>