<svg xmlns="http://www.w3.org/2000/svg" viewBox="0 0 24 24" width="24" height="24"><path d="m21,10.2v-.07c0-1.3-.71-2.48-1.81-3.12-.24-1.77-1.78-3.13-3.63-3.13-.34,0-.68.05-1.01.14-.68-.65-1.58-1.01-2.54-1.01s-1.87.37-2.54,1.01c-.33-.09-.67-.14-1.01-.14-.01,0-.02,0-.04,0-.01,0-.02,0-.03,0-.02,0-.04.01-.06.01-1.79.06-3.27,1.39-3.51,3.12-1.11.64-1.81,1.82-1.81,3.12v.07c-.19.09-.36.22-.5.37-.34.37-.5.87-.46,1.37.3,3.22,2.15,6.1,4.96,7.72v.59c0,.96.79,1.75,1.75,1.75h6.5c.96,0,1.75-.79,1.75-1.75v-.59c2.81-1.62,4.66-4.5,4.96-7.72.05-.5-.12-1-.46-1.37-.14-.16-.32-.28-.5-.37Zm-14.89-1.59c.47-.16.76-.62.67-1.11,0-.88.73-1.6,1.63-1.62.95.02,1.72.79,1.72,1.75,0,.55.45,1,1,1s1-.45,1-1c0-.93-.35-1.77-.92-2.43.24-.13.51-.2.79-.2.57,0,1.1.28,1.42.76.29.43.86.57,1.32.32.25-.14.53-.21.83-.21.92,0,1.67.73,1.67,1.6-.09.49.19.97.67,1.13.62.21,1.03.76,1.09,1.39H5.02c.05-.63.47-1.19,1.09-1.39Z"/></svg>