<svg xmlns="http://www.w3.org/2000/svg" viewBox="0 0 24 24" width="24" height="24"><path d="m21.5,8h-.5c0-3.31-2.69-6-6-6h-6c-3.31,0-6,2.69-6,6h-.5c-.28,0-.5.22-.5.5v3c0,.28.22.5.5.5h.5v4c0,1.47.81,2.75,2,3.44v1.56c0,.55.45,1,1,1h1c.55,0,1-.45,1-1v-1h8v1c0,.55.45,1,1,1h1c.55,0,1-.45,1-1v-1.56c1.19-.69,2-1.97,2-3.44v-4h.5c.28,0,.5-.22.5-.5v-3c0-.28-.22-.5-.5-.5Zm-14,9c-.83,0-1.5-.67-1.5-1.5s.67-1.5,1.5-1.5,1.5.67,1.5,1.5-.67,1.5-1.5,1.5Zm3.5-6c0,.55-.45,1-1,1h-4c-.55,0-1-.45-1-1v-3c0-.55.45-1,1-1h4c.55,0,1,.45,1,1v3Zm5.5,6c-.83,0-1.5-.67-1.5-1.5s.67-1.5,1.5-1.5,1.5.67,1.5,1.5-.67,1.5-1.5,1.5Zm2.5-6c0,.55-.45,1-1,1h-4c-.55,0-1-.45-1-1v-3c0-.55.45-1,1-1h4c.55,0,1,.45,1,1v3Z"/></svg>