<svg xmlns="http://www.w3.org/2000/svg" viewBox="0 0 24 24" width="24" height="24"><path d="m20,8.55v-.05c0-2.4-1.89-4.37-4.27-4.49-.83-1.24-2.23-2.01-3.73-2.01s-2.91.77-3.73,2.01c-2.37.12-4.27,2.09-4.27,4.49v.05c-1.22.7-2,2.01-2,3.45,0,2.41,2.13,4.37,4.62,3.95.19.16.39.3.61.42,2.46,1.91,3.32,3.75,3.61,4.79.15.51.62.86,1.16.86s1.01-.34,1.16-.86c.29-1.03,1.15-2.86,3.59-4.77.22-.13.44-.28.64-.44,2.49.43,4.62-1.53,4.62-3.95,0-1.44-.78-2.75-2-3.45Zm-8,10.25c-.33-.61-.78-1.28-1.37-1.97.49-.12.95-.31,1.37-.59.42.28.88.48,1.36.6-.59.69-1.03,1.35-1.36,1.96Z"/></svg>