<svg xmlns="http://www.w3.org/2000/svg" viewBox="0 0 24 24" width="24" height="24"><path d="m19.12,12.71c-.08-.08-.12-.18-.12-.29v-2.41c0-1.91-.75-3.69-2.13-5.02-.87-.84-1.89-1.43-3.02-1.73-.3-.73-1.01-1.24-1.85-1.24s-1.57.53-1.86,1.27c-2.95.85-5.14,3.69-5.14,6.98v2.16c0,.11-.04.22-.12.29l-1.17,1.17c-.45.45-.71,1.07-.71,1.71,0,1.33,1.08,2.41,2.41,2.41h13.17c1.33,0,2.41-1.08,2.41-2.41,0-.63-.26-1.26-.71-1.71l-1.17-1.17Z"/><path d="m5.04,3.96c.32-.39.28-.96-.07-1.32-.42-.42-1.12-.38-1.5.08-1.37,1.67-2.2,3.68-2.42,5.83-.06.6.4,1.12,1,1.12h0c.51,0,.94-.38.99-.88.17-1.78.86-3.45,2-4.83Z"/><path d="m19.03,2.63c-.36.36-.4.93-.07,1.32,1.14,1.38,1.83,3.05,2,4.83.05.5.48.88.99.88h0c.6,0,1.06-.52,1-1.12-.22-2.15-1.05-4.16-2.42-5.83-.38-.46-1.07-.51-1.5-.08Z"/><path d="m12,22c1.31,0,2.41-.83,2.82-2h-5.64c.41,1.17,1.51,2,2.82,2Z"/></svg>