<svg xmlns="http://www.w3.org/2000/svg" width="24" height="24" viewBox="0 0 24 24"><path d="M12 8c-1.1 0-2 .9-2 2 0 .85.53 1.57 1.28 1.86l-.5 9.6c-.01.29.21.53.5.53h1.45c.29 0 .51-.24.5-.53l-.5-9.6c.75-.29 1.28-1.01 1.28-1.86 0-1.1-.9-2-2-2ZM9.17 5.76a.996.996 0 0 0-1.41 0A5.97 5.97 0 0 0 6 10c0 1.6.62 3.11 1.76 4.25.2.2.45.29.71.29s.51-.1.71-.29a.996.996 0 0 0 0-1.41 3.96 3.96 0 0 1-1.17-2.83c0-1.07.42-2.07 1.17-2.82a.996.996 0 0 0 0-1.41ZM16.24 5.76a.996.996 0 1 0-1.41 1.41C15.59 7.93 16 8.93 16 10s-.42 2.07-1.17 2.83a.996.996 0 0 0 .71 1.7c.26 0 .51-.1.71-.29 1.13-1.13 1.76-2.64 1.76-4.24s-.62-3.11-1.76-4.24Z"/><path d="M4 10c0-2.14.83-4.15 2.34-5.65a.996.996 0 1 0-1.41-1.41C3.04 4.83 2 7.34 2 10.01s1.04 5.18 2.93 7.07c.2.2.45.29.71.29s.51-.1.71-.29a.996.996 0 0 0 0-1.41 7.95 7.95 0 0 1-2.34-5.66ZM17.66 2.93a.996.996 0 0 0 0 1.41c3.12 3.12 3.12 8.2 0 11.31a.996.996 0 0 0 .71 1.7c.26 0 .51-.1.71-.29 3.9-3.9 3.9-10.24 0-14.14a.996.996 0 0 0-1.41 0Z"/></svg>