<svg xmlns="http://www.w3.org/2000/svg" viewBox="0 0 24 24" width="24" height="24"><path d="m21.47,10h-8.94c-.31,0-.53.27-.5.58.29,2.49,2.41,4.42,4.97,4.42s4.68-1.94,4.97-4.42c.04-.3-.19-.58-.5-.58Z"/><path d="m20.64,14.76c-1.06.82-2.41,1.29-3.86,1.24-3.27-.12-5.78-2.98-5.78-6.25v-4.14c0-1.67-1.13-3.19-2.76-3.53-2.25-.46-4.24,1.25-4.24,3.42v.55c-1.14.23-2,1.24-2,2.45,0,.28.22.5.5.5h1.5v1.69c0,3.57,2,6.8,5,8.35v1.96c0,.55.45,1,1,1s1-.45,1-1v-1.24c.43.1.87.18,1.32.21.23.02.45,0,.68,0v1.03c0,.55.45,1,1,1s1-.45,1-1v-1.23c2.63-.6,4.82-2.35,6.01-4.7.12-.23-.17-.47-.37-.32ZM7,7c-.55,0-1-.45-1-1s.45-1,1-1,1,.45,1,1-.45,1-1,1Z"/></svg>