<svg xmlns="http://www.w3.org/2000/svg" width="24" height="24" viewBox="0 0 24 24"><path d="M18.5 2h-12C4.57 2 3 3.57 3 5.5v14.69c0 .52.27 1 .71 1.28s.99.3 1.46.07l4.6-2.3c.14-.07.31-.07.45 0l4.61 2.3c.21.11.44.16.67.16.27 0 .55-.08.79-.23.45-.28.71-.75.71-1.28V13h2.5a2.5 2.5 0 0 0 2.5-2.5v-5C22 3.57 20.43 2 18.5 2m-6 9H11v1.5c0 .55-.45 1-1 1s-1-.45-1-1V11H7.5c-.55 0-1-.45-1-1s.45-1 1-1H9V7.5c0-.55.45-1 1-1s1 .45 1 1V9h1.5c.55 0 1 .45 1 1s-.45 1-1 1m7.5-.5c0 .28-.22.5-.5.5H17V5.5c0-.83.67-1.5 1.5-1.5s1.5.67 1.5 1.5z"/></svg>