<svg xmlns="http://www.w3.org/2000/svg" width="24" height="24" viewBox="0 0 24 24"><path d="M9 2C7.27 2 4 3.26 4 8c0 2.79-1.67 2.99-2.01 3-.08 0-.15.03-.23.05-.05.01-.11.01-.16.03-.07.03-.12.08-.18.12-.04.03-.09.05-.13.09-.06.06-.09.13-.13.2-.02.04-.06.07-.08.12A1.003 1.003 0 0 0 2 13c.08 0 2 .03 2 3 0 4.74 3.27 6 5 6a1 1 0 0 0 1-.99c0-.55-.44-1-.98-1.01-.31 0-3.01-.17-3.01-4 0-1.99-.67-3.25-1.5-4 .84-.75 1.5-2.01 1.5-4 0-3.83 2.7-3.99 3-4 .55 0 1-.45 1-1s-.45-1-1-1ZM23 12c0-.55-.45-1-1-1-.08 0-2-.03-2-3 0-4.74-3.27-6-5-6a1 1 0 0 0-1 .99c0 .55.44 1 .98 1.01.31 0 3.01.17 3.01 4 0 1.99.67 3.25 1.5 4-.84.75-1.5 2.01-1.5 4 0 3.83-2.7 3.99-3 4-.55 0-1 .45-1 1s.45 1 1 1c1.73 0 5-1.26 5-6 0-2.79 1.67-2.99 2.01-3 .08 0 .15-.03.22-.05.05-.01.11-.01.16-.03.07-.03.12-.08.18-.12.04-.03.1-.05.14-.09.05-.05.09-.12.13-.19.03-.04.07-.08.09-.13.05-.12.08-.25.08-.39"/></svg>