<svg xmlns="http://www.w3.org/2000/svg" width="24" height="24" viewBox="0 0 24 24"><path d="M12.13 3.16c0 .41-.32.76-.74.76h-.01c-.41 0-.74-.33-.75-.74 0-.36-.05-.72-.1-1.07-4.34.66-7.76 4.08-8.41 8.41.35.06.71.1 1.07.1.41 0 .74.35.74.76s-.34.74-.75.74h-.01c-.39 0-.78-.05-1.16-.11.01 5.5 4.48 9.96 9.98 9.98-.06-.38-.1-.77-.11-1.16 0-.41.32-.76.74-.76.42.01.76.32.76.74 0 .36.05.72.1 1.07a9.99 9.99 0 0 0 8.4-8.4c-.35-.06-.71-.1-1.07-.1-.41 0-.74-.35-.74-.76s.34-.74.75-.74h.01c.39 0 .78.05 1.16.11-.01-5.5-4.48-9.96-9.98-9.98.06.38.1.77.11 1.16Zm-1.37 4.88-.13.2c-.31.46-.67.9-1.07 1.3s-.84.76-1.3 1.08l-.19.12a.74.74 0 0 1-1.03-.22.76.76 0 0 1 .23-1.04l.16-.1q.585-.39 1.08-.9c.33-.33.63-.69.89-1.08l.11-.16c.22-.35.68-.45 1.04-.23.35.22.45.69.23 1.04Zm2.49 7.91.13-.2c.31-.46.67-.9 1.07-1.3s.84-.76 1.3-1.08l.19-.12c.35-.22.81-.12 1.04.23.22.35.12.81-.23 1.04l-.16.1q-.585.39-1.08.9a7 7 0 0 0-.89 1.08l-.11.16a.74.74 0 0 1-1.03.23.756.756 0 0 1-.23-1.04"/></svg>