<svg xmlns="http://www.w3.org/2000/svg" width="24" height="24" viewBox="0 0 24 24"><path d="m6.29 5.71.09.06c-.38.45-.74.94-1.04 1.48-.19.34.05.76.43.76h12.45c.39 0 .62-.42.43-.76-.3-.54-.66-1.03-1.04-1.48.03-.02.06-.03.09-.06l1-1a.996.996 0 1 0-1.41-1.41l-1 1s-.06.1-.1.14C14.97 3.54 13.53 3 11.99 3s-2.97.54-4.2 1.44c-.03-.05-.05-.1-.1-.14l-1-1a.996.996 0 1 0-1.41 1.41l1 1ZM21 14h-1.11c.07-.49.11-.99.11-1.5 0-.1-.01-.21-.02-.31.03-.01.07-.02.1-.04l1.4-.78c.48-.27.66-.88.39-1.36s-.88-.66-1.36-.39l-.89.49a.53.53 0 0 0-.33-.12H4.7c-.11 0-.21.04-.3.1l-.97-.48a.99.99 0 0 0-1.34.45.993.993 0 0 0 .45 1.34l1.47.74c0 .12-.02.24-.02.36 0 .51.04 1.01.11 1.5H2.99c-.55 0-1 .45-1 1s.45 1 1 1h1.57c.17.5.37.97.6 1.42l-.87.87a.996.996 0 0 0 .71 1.7c.26 0 .51-.1.71-.29l.58-.58c1.23 1.5 2.87 2.52 4.71 2.79v-7.92c0-.55.45-1 1-1s1 .45 1 1v7.92c1.84-.27 3.48-1.3 4.71-2.79l.58.58c.2.2.45.29.71.29s.51-.1.71-.29a.996.996 0 0 0 0-1.41l-.87-.87c.23-.45.43-.93.6-1.42h1.57c.55 0 1-.45 1-1s-.45-1-1-1Z"/></svg>