<svg xmlns="http://www.w3.org/2000/svg" width="24" height="24" viewBox="0 0 24 24"><path d="M12 22c1.31 0 2.41-.83 2.82-2H9.18c.41 1.17 1.51 2 2.82 2M19.3 17.88c.98-.31 1.7-1.21 1.7-2.3 0-.63-.26-1.26-.71-1.71l-1.17-1.17a.4.4 0 0 1-.12-.29V10c0-1.91-.75-3.69-2.13-5.02-.87-.84-1.89-1.43-3.02-1.73-.3-.73-1.01-1.24-1.85-1.24s-1.57.53-1.86 1.27a6.97 6.97 0 0 0-3.3 2.15L3.71 2.3A.996.996 0 1 0 2.3 3.71l3.42 3.42L16.59 18l3.71 3.71c.2.2.45.29.71.29s.51-.1.71-.29a.996.996 0 0 0 0-1.41l-2.41-2.41ZM5.08 9.32c-.04.31-.08.62-.08.93v2.16c0 .11-.04.22-.12.29l-1.17 1.17a2.411 2.411 0 0 0 1.7 4.12h8.34z"/></svg>