<svg xmlns="http://www.w3.org/2000/svg" width="24" height="24" viewBox="0 0 24 24"><path d="M21.61 10.19c.82-2.16.37-4.69-1.37-6.42s-4.27-2.18-6.43-1.37c-.51.19-.63.85-.25 1.24l6.81 6.81c.38.38 1.04.25 1.24-.25ZM10.72 4.69l-6.03 6.03c-.29.29-.29.77 0 1.06l7.52 7.52c.29.29.77.29 1.06 0l6.03-6.03c.29-.29.29-.77 0-1.06l-7.52-7.52a.754.754 0 0 0-1.06 0M8.99 13c-.55 0-1-.45-1-1s.45-1 1-1 1 .45 1 1-.45 1-1 1M15 11c.55 0 1 .45 1 1s-.45 1-1 1-1-.45-1-1 .45-1 1-1m-3 5c-.55 0-1-.45-1-1s.45-1 1-1 1 .45 1 1-.45 1-1 1m1-7.01c0 .55-.45 1-1 1s-1-.45-1-1 .45-1 1-1 1 .45 1 1M2.39 13.8c-.82 2.16-.37 4.69 1.37 6.42a6.06 6.06 0 0 0 4.29 1.77c.73 0 1.45-.14 2.14-.4.5-.19.63-.85.25-1.23l-6.82-6.81a.762.762 0 0 0-1.24.25Z"/></svg>