<svg xmlns="http://www.w3.org/2000/svg" viewBox="0 0 24 24" width="24" height="24"><path d="m3,15h18c.55,0,1-.45,1-1s-.45-1-1-1H3c-.55,0-1,.45-1,1s.45,1,1,1Z"/><path d="m5,22h14c1.65,0,3-1.35,3-3v-1c0-1.1-.9-2-2-2h-8c-.27,0-.52.11-.71.29l-2.29,2.29-2.29-2.29c-.19-.19-.44-.29-.71-.29h-2c-1.1,0-2,.9-2,2v1c0,1.65,1.35,3,3,3Z"/><path d="m4,12h16c1.1,0,2-.9,2-2v-1c0-3.93-4.39-7-10-7S2,5.07,2,9v1c0,1.1.9,2,2,2Zm13.5-4c.28,0,.5.22.5.5s-.22.5-.5.5-.5-.22-.5-.5.22-.5.5-.5Zm-2.5-3c.55,0,1,.45,1,1s-.45,1-1,1-1-.45-1-1,.45-1,1-1Zm-2.5,2c.28,0,.5.22.5.5s-.22.5-.5.5-.5-.22-.5-.5.22-.5.5-.5Z"/></svg>