<svg xmlns="http://www.w3.org/2000/svg" viewBox="0 0 24 24" width="24" height="24"><path d="m21.1,6.91L12.85,2.33c-.53-.29-1.16-.29-1.7,0L2.9,6.91c-.56.31-.9.89-.9,1.53v.81c0,.96.79,1.75,1.75,1.75h1.25v7h-1.25c-.96,0-1.75.79-1.75,1.75v.5c0,.96.79,1.75,1.75,1.75h16.5c.96,0,1.75-.79,1.75-1.75v-.5c0-.96-.79-1.75-1.75-1.75h-1.25v-7h1.25c.96,0,1.75-.79,1.75-1.75v-.81c0-.64-.34-1.22-.9-1.53Zm-12.1,11.09h-2v-7h2v7Zm4,0h-2v-7h2v7Zm-1-9c-.83,0-1.5-.67-1.5-1.5s.67-1.5,1.5-1.5,1.5.67,1.5,1.5-.67,1.5-1.5,1.5Zm5,9h-2v-7h2v7Z"/></svg>