<svg xmlns="http://www.w3.org/2000/svg" width="24" height="24" viewBox="0 0 24 24"><path d="M19.5 3H15c-1.2 0-2.27.54-3 1.38C11.27 3.54 10.2 3 9 3H4.5A2.5 2.5 0 0 0 2 5.5v12A2.5 2.5 0 0 0 4.5 20h4.26c.53 0 1.04.21 1.41.58l1.12 1.12s.02.01.03.02c.09.08.18.15.29.2.12.05.25.08.38.08s.26-.03.38-.08c.11-.05.21-.12.29-.2 0 0 .02-.01.03-.02l1.12-1.12c.37-.37.89-.59 1.42-.59h4.26a2.5 2.5 0 0 0 2.5-2.5V5.5a2.5 2.5 0 0 0-2.5-2.5Zm.5 14.5c0 .28-.22.5-.5.5h-4.26c-.8 0-1.58.25-2.24.69V7c0-1.1.9-2 2-2h4.5c.28 0 .5.22.5.5z"/></svg>