<svg xmlns="http://www.w3.org/2000/svg" width="24" height="24" viewBox="0 0 24 24"><path d="M14.82 20H9.18c.41 1.17 1.51 2 2.82 2s2.41-.83 2.82-2M19.12 12.71a.4.4 0 0 1-.12-.29v-2.41c0-1.91-.75-3.69-2.13-5.02-.87-.84-1.89-1.43-3.02-1.73-.3-.73-1.01-1.24-1.85-1.24s-1.57.53-1.86 1.27C7.19 4.14 5 6.98 5 10.27v2.16c0 .11-.04.22-.12.29l-1.17 1.17a2.411 2.411 0 0 0 1.7 4.12h13.17a2.411 2.411 0 0 0 1.7-4.12l-1.17-1.17ZM14.5 12H13v1.5c0 .55-.45 1-1 1s-1-.45-1-1V12H9.5c-.55 0-1-.45-1-1s.45-1 1-1H11V8.5c0-.55.45-1 1-1s1 .45 1 1V10h1.5c.55 0 1 .45 1 1s-.45 1-1 1"/></svg>