<svg xmlns="http://www.w3.org/2000/svg" viewBox="0 0 24 24" width="24" height="24"><path d="m21.5,2h-3.29c-.45,0-.67.54-.35.85l.94.94-1.33,1.33c-3.33-2.7-8.05-2.74-11.8,0-.79.57-1.64.88-2.48.88h-.17c-.55,0-1,.45-1,1s.45,1,1,1h.17c.28,0,.55-.03.83-.07v7.57c0,.28.22.5.5.5s.5-.22.5-.5v-7.81c.64-.21,1.25-.53,1.84-.95,2.98-2.18,6.56-2.21,9.2-.19L3,19.59c-.39.39-.39,1.02,0,1.41.39.39,1.02.39,1.41,0l13.03-13.03c2.03,2.64,1.99,6.21-.19,9.2-.43.58-.74,1.2-.95,1.84h-7.81c-.28,0-.5.22-.5.5s.22.5.5.5h7.57c-.04.27-.07.55-.07.82v.18c0,.55.45,1,1,1s1-.45,1-1v-.18c0-.84.3-1.7.88-2.48,2.74-3.75,2.7-8.47,0-11.8l1.33-1.33.94.94c.32.32.85.09.85-.35v-3.29c0-.28-.22-.5-.5-.5Z"/></svg>