<svg xmlns="http://www.w3.org/2000/svg" width="24" height="24" viewBox="0 0 24 24"><path d="M2.59 9.69c-.33.44-.44.99-.3 1.52l2.14 7.84A4 4 0 0 0 8.29 22h7.42c1.8 0 3.39-1.21 3.86-2.95l2.14-7.84c.15-.53.04-1.09-.3-1.52-.33-.44-.84-.69-1.39-.69h-.44l-3.14-5.5a.99.99 0 0 0-1.36-.37c-.48.27-.65.88-.37 1.36l2.57 4.5H6.72l2.57-4.5a.996.996 0 0 0-.37-1.36.99.99 0 0 0-1.36.37L4.42 9h-.44c-.55 0-1.06.25-1.39.69M13 14c0-.55.45-1 1-1s1 .45 1 1v3c0 .55-.45 1-1 1s-1-.45-1-1zm-4 0c0-.55.45-1 1-1s1 .45 1 1v3c0 .55-.45 1-1 1s-1-.45-1-1z"/></svg>