<svg xmlns="http://www.w3.org/2000/svg" viewBox="0 0 24 24" width="24" height="24"><path d="m21,5c0-1.65-1.35-3-3-3h-8c-1.65,0-3,1.35-3,3v5h-1c-1.65,0-3,1.35-3,3v6.5c0,1.38,1.12,2.5,2.5,2.5h13c1.38,0,2.5-1.12,2.5-2.5V5ZM5,19.5v-6.5c0-.55.45-1,1-1h4c.55,0,1,.45,1,1v7h-5.5c-.28,0-.5-.22-.5-.5ZM13,7.5c0,.28-.22.5-.5.5h-1c-.28,0-.5-.22-.5-.5v-1c0-.28.22-.5.5-.5h1c.28,0,.5.22.5.5v1Zm4,8c0,.28-.22.5-.5.5h-1c-.28,0-.5-.22-.5-.5v-1c0-.28.22-.5.5-.5h1c.28,0,.5.22.5.5v1Zm0-4c0,.28-.22.5-.5.5h-1c-.28,0-.5-.22-.5-.5v-.97c0-.28.22-.5.5-.5h1c.28,0,.5.22.5.5v.97Zm0-4c0,.28-.22.5-.5.5h-1c-.28,0-.5-.22-.5-.5v-1c0-.28.22-.5.5-.5h1c.28,0,.5.22.5.5v1Z"/><rect x="7" y="14" width="2" height="2" rx=".5" ry=".5"/></svg>