<svg xmlns="http://www.w3.org/2000/svg" viewBox="0 0 24 24" width="24" height="24"><path d="m10.05,12.18c-1.27-.64-2.99-.54-4.26.25-1.17.72-1.81,1.89-1.81,3.29,0,.3.02.59.04.86.08,1.03.11,1.42-1.47,2.21-.32.16-.53.47-.55.82s.14.69.43.89c1,.69,2.76,1.49,4.62,1.49,1.35,0,2.74-.42,3.92-1.6,1.2-1.2,1.8-3.1,1.52-4.84-.24-1.5-1.11-2.7-2.44-3.36Z"/><path d="m21.08,2.91c-1.22-1.22-3.2-1.22-4.41,0l-7.88,7.88c.61.07,1.19.23,1.71.49,1.51.76,2.52,2.08,2.89,3.73l7.69-7.69c1.22-1.22,1.22-3.2,0-4.41Z"/><path d="m2.52,6.8l1.24.55c.4.18.72.5.9.9l.54,1.22c.14.32.46.53.81.53s.67-.21.81-.53l.54-1.22c.18-.4.5-.72.9-.9l1.22-.54c.32-.14.52-.46.52-.81s-.21-.67-.52-.81l-1.22-.54c-.4-.18-.72-.5-.9-.9l-.55-1.23c-.14-.32-.45-.52-.8-.53h0c-.34,0-.66.2-.8.51,0,0,0,0,0,0l-.55,1.2c-.17.37-.47.68-.84.85l-1.32.63c-.31.15-.51.46-.5.81,0,.35.21.65.52.8Z"/><path d="m21.61,18.4l-.91-.41c-.3-.13-.54-.37-.67-.67l-.41-.92c-.11-.24-.34-.39-.6-.39h0c-.26,0-.49.15-.6.39,0,0,0,0,0,0l-.41.9c-.13.28-.35.51-.63.64l-.99.48c-.24.11-.38.35-.38.61,0,.26.15.49.39.6l.93.41c.3.13.54.37.67.67l.41.91c.11.24.34.39.61.39s.5-.16.61-.39l.41-.91c.13-.3.37-.54.67-.67l.91-.41c.24-.11.39-.34.39-.61s-.15-.5-.39-.61Z"/></svg>