<svg xmlns="http://www.w3.org/2000/svg" width="24" height="24" viewBox="0 0 24 24"><path d="M19 8.59V6.5c0-.83-.67-1.5-1.5-1.5h-2.09l-2.35-2.35c-.58-.58-1.54-.58-2.12 0L8.59 5H6.5C5.67 5 5 5.67 5 6.5v2.09l-2.35 2.35c-.58.58-.58 1.54 0 2.12L5 15.41v2.09c0 .83.67 1.5 1.5 1.5h2.09l2.35 2.35c.29.29.68.44 1.06.44s.77-.15 1.06-.44L15.41 19h2.09c.83 0 1.5-.67 1.5-1.5v-2.09l2.35-2.35c.58-.58.58-1.54 0-2.12zm-7 6.87c0 .31-.28.54-.59.5C9.48 15.67 8 14.01 8 12s1.48-3.67 3.41-3.96c.31-.05.59.19.59.5z"/></svg>