<svg xmlns="http://www.w3.org/2000/svg" width="24" height="24" viewBox="0 0 24 24"><path d="M16.09 3c-1.84-.06-3.48 1.04-4.46 2.6-.97 1.54-.88 2.87-.48 4.06l-7.82 7.73c-.21.21-.33.5-.33.8v1.68c0 .62.5 1.12 1.12 1.12H5.9c.3 0 .58-.12.8-.33l.63-.63a.55.55 0 0 0 .16-.4v-2.02l.73.73c.22.22.58.22.8 0l.56-.56a.55.55 0 0 0 .16-.4v-2.02l.73.73c.22.22.58.22.8 0l.56-.56a.55.55 0 0 0 .16-.4v-2.02l.72.52c.34.25.68.28.89.06l.77-.86c1.19.39 2.51.47 4.05-.53 1.57-1.02 2.67-2.69 2.56-4.56a5.055 5.055 0 0 0-4.9-4.76Zm1.82 6.14c-.16.29-.56.34-.8.1l-2.36-2.36c-.23-.23-.19-.64.1-.8.85-.47 1.95-.34 2.67.39.72.72.85 1.81.39 2.67"/></svg>