<svg xmlns="http://www.w3.org/2000/svg" viewBox="0 0 24 24" width="24" height="24"><path d="m20.86,3.04c-.57-.38-1.27-.51-1.94-.36-.66.15-1.25.57-1.6,1.15l-1.9,3.17h-4.48c-.11-1.01-.54-1.95-1.27-2.68-.85-.85-1.98-1.32-3.18-1.32s-2.33.47-3.18,1.32c-.85.85-1.32,1.98-1.32,3.18s.47,2.33,1.32,3.18c.79.79,1.83,1.23,2.94,1.29.16.62.38,1.21.68,1.76l-.03.05s.04.02.07.03c1.21,2.21,3.42,3.78,6.03,4.11v2.07h-2c-.55,0-1,.45-1,1s.45,1,1,1h6c.55,0,1-.45,1-1s-.45-1-1-1h-2v-2.07c3.94-.49,7-3.86,7-7.93v-2c0-.55-.45-1-1-1h-3.23l1.28-2.14c.1-.16.24-.21.32-.23.08-.02.23-.03.39.07l.86.57c.46.31,1.08.18,1.39-.28.31-.46.18-1.08-.28-1.39l-.86-.57Zm-.86,6.96c0,.27-.02.53-.06.79-2.16-.62-4.55-.33-6.47.86-1.49.93-3.36,1.14-5.03.6-.28-.7-.44-1.45-.44-2.25v-1h12v1Z"/></svg>