<svg xmlns="http://www.w3.org/2000/svg" viewBox="0 0 24 24" width="24" height="24"><path d="m8,2c-.55,0-1,.45-1,1v1c-1.59,0-2.96.94-3.6,2.29-.15.33.1.71.46.71h16.28c.36,0,.62-.38.46-.71-.64-1.35-2.01-2.29-3.6-2.29v-1c0-.55-.45-1-1-1s-1,.45-1,1v1h-6v-1c0-.55-.45-1-1-1Z"/><path d="m20.5,8H3.5c-.28,0-.5.22-.5.5v9.5c0,2.21,1.79,4,4,4h4.76c1.06,0,2.08-.42,2.83-1.17l5.24-5.24c.75-.75,1.17-1.77,1.17-2.83v-4.26c0-.28-.22-.5-.5-.5Zm-2.93,5.43l-5.15,5.15c-.16.16-.43.05-.43-.18v-3.9c0-.83.67-1.5,1.5-1.5h3.9c.22,0,.33.27.18.43Z"/></svg>