<svg xmlns="http://www.w3.org/2000/svg" viewBox="0 0 24 24" width="24" height="24"><path d="m21,2H3c-.55,0-1,.45-1,1s.45,1,1,1h18c.55,0,1-.45,1-1s-.45-1-1-1Z"/><path d="m19.5,5H4.5c-.28,0-.5.22-.5.5v13.5c0,1.66,1.34,3,3,3h10c1.66,0,3-1.34,3-3V5.5c0-.28-.22-.5-.5-.5Zm-8.5,13.25c0,.41-.34.75-.75.75h-1.5c-.41,0-.75-.34-.75-.75v-3.5c0-.41.34-.75.75-.75h1.5c.41,0,.75.34.75.75v3.5Zm5-.25c0,.55-.45,1-1,1s-1-.45-1-1v-3c0-.55.45-1,1-1s1,.45,1,1v3Zm0-7c0,.55-.45,1-1,1s-1-.45-1-1v-3c0-.55.45-1,1-1s1,.45,1,1v3Z"/></svg>