<svg xmlns="http://www.w3.org/2000/svg" viewBox="0 0 24 24" width="24" height="24"><path d="m11.31,9.85c.39.37.99.37,1.38,0l3.42-3.24c.52-.64.79-1.49.57-2.42-.24-1.06-1.12-1.91-2.18-2.13-.97-.2-1.86.1-2.5.67-.64-.57-1.53-.87-2.5-.67-1.06.22-1.94,1.07-2.18,2.13-.21.93.05,1.78.57,2.42l3.42,3.24Z"/><path d="m12.69,14.15c-.39-.37-.99-.37-1.38,0l-3.42,3.24c-.52.64-.79,1.49-.57,2.42.24,1.06,1.12,1.91,2.18,2.13.97.2,1.86-.1,2.5-.67.64.57,1.53.87,2.5.67,1.06-.22,1.94-1.07,2.18-2.13.21-.93-.05-1.78-.57-2.42l-3.42-3.24Z"/><path d="m21.94,9.5c-.22-1.06-1.07-1.94-2.13-2.18-.93-.21-1.78.05-2.42.57l-3.24,3.42c-.37.39-.37.99,0,1.38l3.24,3.42c.64.52,1.49.79,2.42.57,1.06-.24,1.91-1.12,2.13-2.18.2-.97-.1-1.86-.67-2.5.57-.64.87-1.53.67-2.5Z"/><path d="m9.85,11.31l-3.24-3.42c-.64-.52-1.49-.79-2.42-.57-1.06.24-1.91,1.12-2.13,2.18-.2.97.1,1.86.67,2.5-.57.64-.87,1.53-.67,2.5.22,1.06,1.07,1.94,2.13,2.18.93.21,1.78-.05,2.42-.57l3.24-3.42c.37-.39.37-.99,0-1.38Z"/></svg>