<svg xmlns="http://www.w3.org/2000/svg" width="24" height="24" viewBox="0 0 24 24"><path d="M12 2C6.49 2 2 6.49 2 12s4.49 10 10 10 10-4.49 10-10S17.51 2 12 2m4.83 8.37-4.33 2.5s-.05.02-.07.03c-.03.01-.05.02-.08.03-.11.04-.23.07-.34.07-.12 0-.23-.03-.34-.07-.03-.01-.05-.02-.08-.03-.1-.05-.2-.11-.28-.19 0 0 0-.01-.01-.01a1 1 0 0 1-.15-.19c-.01-.02-.01-.04-.02-.06a.6.6 0 0 1-.06-.19c-.02-.07-.04-.13-.04-.2 0-.02-.01-.04-.01-.06V7c0-.55.45-1 1-1s1 .45 1 1v3.27l2.83-1.63c.48-.28 1.09-.11 1.37.37s.11 1.09-.37 1.37Z"/></svg>