<svg xmlns="http://www.w3.org/2000/svg" width="24" height="24" viewBox="0 0 24 24"><path d="M8.57 14.02q-.285-.48-.42-1.02H2.62c-.3 0-.55.27-.5.57a9.9 9.9 0 0 0 1.79 4.3c.18.24.54.26.75.05l3.9-3.9ZM9.98 8.57q.48-.285 1.02-.42V2.62c0-.3-.27-.55-.57-.5a9.9 9.9 0 0 0-4.3 1.79c-.24.18-.26.54-.05.75l3.9 3.9ZM13.57 2.12c-.3-.05-.57.2-.57.5v5.52c.36.09.7.24 1.02.42l3.9-3.9c.21-.21.2-.58-.05-.75a9.9 9.9 0 0 0-4.3-1.79M8.14 11c.09-.36.24-.7.42-1.02l-3.9-3.9c-.21-.21-.58-.2-.75.05a9.9 9.9 0 0 0-1.79 4.3c-.05.3.2.57.5.57zM15.86 13c-.09.36-.24.7-.42 1.02l3.9 3.9c.21.21.58.2.75-.05a9.9 9.9 0 0 0 1.79-4.3c.05-.3-.2-.57-.5-.57zM15.43 9.98q.285.48.42 1.02h5.52c.3 0 .55-.27.5-.57a9.9 9.9 0 0 0-1.79-4.3.502.502 0 0 0-.75-.05zM11 15.86c-.36-.09-.7-.24-1.02-.42l-3.9 3.9c-.21.21-.2.58.05.75a9.9 9.9 0 0 0 4.3 1.79c.3.05.57-.2.57-.5zM14.02 15.43q-.48.285-1.02.42v5.52c0 .3.27.55.57.5a9.9 9.9 0 0 0 4.3-1.79c.24-.18.26-.54.05-.75z"/></svg>