<svg xmlns="http://www.w3.org/2000/svg" width="24" height="24" viewBox="0 0 24 24"><path d="M9.5 18a2.5 2.5 0 0 0 2.5-2.5v-8A2.5 2.5 0 0 0 9.5 5h-1A2.5 2.5 0 0 0 6 7.5v8A2.5 2.5 0 0 0 8.5 18zm-1-11h1c.28 0 .5.22.5.5V12H8V7.5c0-.28.22-.5.5-.5M17.5 18a2.5 2.5 0 0 0 2.5-2.5v-11A2.5 2.5 0 0 0 17.5 2h-1A2.5 2.5 0 0 0 14 4.5v11a2.5 2.5 0 0 0 2.5 2.5zm-1-14h1c.28 0 .5.22.5.5V8h-2V4.5c0-.28.22-.5.5-.5"/><path d="M21 20H4.5c-.28 0-.5-.22-.5-.5V3c0-.55-.45-1-1-1s-1 .45-1 1v16.5A2.5 2.5 0 0 0 4.5 22H21c.55 0 1-.45 1-1s-.45-1-1-1"/></svg>