<svg xmlns="http://www.w3.org/2000/svg" viewBox="0 0 24 24" width="24" height="24"><path d="m3,22c.35,0,.68-.18.87-.5l2.29-4c.27-.48.11-1.09-.37-1.36-.48-.27-1.09-.11-1.36.37l-2.29,4c-.27.48-.11,1.09.37,1.36.16.09.33.13.5.13Z"/><path d="m7.57,22c.35,0,.68-.18.87-.5l2.29-4c.27-.48.11-1.09-.37-1.36-.48-.27-1.09-.11-1.36.37l-2.29,4c-.27.48-.11,1.09.37,1.36.16.09.33.13.5.13Z"/><path d="m12.14,22c.35,0,.68-.18.87-.5l2.29-4c.27-.48.11-1.09-.37-1.36-.48-.27-1.09-.11-1.36.37l-2.29,4c-.27.48-.11,1.09.37,1.36.16.09.33.13.5.13Z"/><path d="m16.71,22c.35,0,.68-.18.87-.5l2.29-4c.27-.48.11-1.09-.37-1.36-.48-.27-1.09-.11-1.36.37l-2.29,4c-.27.48-.11,1.09.37,1.36.16.09.33.13.5.13Z"/><path d="m19.38,7.25c-.59-3-3.26-5.25-6.38-5.25-2.04,0-3.92.94-5.15,2.54-.21-.03-.4-.04-.6-.04-2.89,0-5.25,2.35-5.25,5.25s2.36,5.25,5.25,5.25h10.75c2.21,0,4-1.79,4-4,0-1.71-1.07-3.19-2.62-3.75Z"/></svg>