<svg xmlns="http://www.w3.org/2000/svg" viewBox="0 0 24 24" width="24" height="24"><path d="M15.99 2A2 2 0 1 0 15.99 6 2 2 0 1 0 15.99 2z"/><path d="m17.65,11h1.34c.55,0,1-.45,1-1s-.45-1-1-1h-1.34c-.8,0-1.56-.32-2.12-.88l-2.12-2.12c-.78-.78-2.05-.78-2.83,0l-2.59,2.59c-.78.78-.78,2.05,0,2.83l2.12,2.12c.56.56.88,1.33.88,2.12v2.34c0,.55.45,1,1,1s1-.45,1-1v-2.34c0-1.33-.53-2.6-1.46-3.54l-1.12-1.12,2.59-2.59,1.12,1.12c.94.94,2.21,1.46,3.54,1.46Z"/><path d="m18,13c-2.21,0-4,1.79-4,4s1.79,4,4,4,4-1.79,4-4-1.79-4-4-4Zm0,6c-1.1,0-2-.9-2-2s.9-2,2-2,2,.9,2,2-.9,2-2,2Z"/><path d="m10,17c0-2.21-1.79-4-4-4s-4,1.79-4,4,1.79,4,4,4,4-1.79,4-4Zm-6,0c0-1.1.9-2,2-2s2,.9,2,2-.9,2-2,2-2-.9-2-2Z"/></svg>