<svg xmlns="http://www.w3.org/2000/svg" width="24" height="24" viewBox="0 0 24 24"><path d="M4.05 12.91a.996.996 0 0 0-1.11-.88c-.55.06-.94.56-.88 1.11.13 1.12.44 2.2.93 3.22.17.36.53.56.9.56a1 1 0 0 0 .9-1.44 7.9 7.9 0 0 1-.74-2.57M10.23 19.8c-.88-.2-1.71-.54-2.47-1.02-.47-.29-1.08-.15-1.38.32s-.15 1.08.32 1.38c.96.6 2 1.03 3.1 1.28.07.02.15.02.22.02.46 0 .87-.32.97-.78.12-.54-.22-1.07-.75-1.2ZM3.45 9.01c.14.07.29.1.43.1.37 0 .73-.21.9-.57.39-.81.91-1.55 1.55-2.19a.996.996 0 1 0-1.41-1.41c-.8.8-1.45 1.72-1.93 2.73A.99.99 0 0 0 3.46 9ZM20.14 8.03c.47-.3.61-.91.31-1.38-.6-.95-1.36-1.79-2.24-2.49-.43-.34-1.06-.27-1.41.16-.34.43-.27 1.06.16 1.41.71.56 1.31 1.23 1.79 1.99.19.3.51.46.85.46.18 0 .37-.05.53-.16ZM16.99 18.25c-.71.57-1.5 1-2.34 1.3-.52.18-.8.75-.61 1.27.14.41.53.67.94.67q.165 0 .33-.06c1.06-.37 2.05-.92 2.93-1.62.43-.34.5-.97.16-1.41-.34-.43-.97-.5-1.41-.16ZM13.09 2.06c-1.1-.12-2.25-.05-3.34.2A1 1 0 0 0 9 3.46c.11.46.52.78.97.78.07 0 .15 0 .23-.03.87-.2 1.79-.25 2.67-.16a1 1 0 1 0 .21-1.99ZM21 10.98c-.55 0-1 .46-1 1.02q0 1.365-.45 2.64c-.18.52.09 1.09.61 1.27q.165.06.33.06c.41 0 .8-.26.94-.67.37-1.06.56-2.17.56-3.3v-.04c0-.55-.45-.98-1-.98Z"/></svg>