<svg xmlns="http://www.w3.org/2000/svg" viewBox="0 0 24 24" width="24" height="24"><rect class="b" x="2" y="2" width="9" height="9" rx="2.5" ry="2.5"/><path class="b" d="M18 12.5A4.5 4.5 0 1 0 18 21.5 4.5 4.5 0 1 0 18 12.5z"/><path class="b" d="m7.8,16.6c-.33-.25-.8-.01-.8.4v1h-2.5c-.28,0-.5-.22-.5-.5v-3.5c0-.55-.45-1-1-1s-1,.45-1,1v3.5c0,1.38,1.12,2.5,2.5,2.5h2.5v1c0,.41.47.65.8.4l2.67-2c.27-.2.27-.6,0-.8l-2.67-2Z"/><path class="b" d="m16.2,7.4c.33.25.8.01.8-.4v-1h2.5c.28,0,.5.22.5.5v3.5c0,.55.45,1,1,1s1-.45,1-1v-3.5c0-1.38-1.12-2.5-2.5-2.5h-2.5v-1c0-.41-.47-.65-.8-.4l-2.67,2c-.27.2-.27.6,0,.8l2.67,2Z"/></svg>