<svg xmlns="http://www.w3.org/2000/svg" viewBox="0 0 24 24" width="24" height="24"><path d="m3.86,7h16.28c.36,0,.62-.38.46-.71-.64-1.35-2.01-2.29-3.6-2.29v-1c0-.55-.45-1-1-1s-1,.45-1,1v1h-6v-1c0-.55-.45-1-1-1s-1,.45-1,1v1c-1.59,0-2.96.94-3.6,2.29-.15.33.1.71.46.71Z"/><path d="m20.5,8H3.5c-.28,0-.5.22-.5.5v9.5c0,2.21,1.79,4,4,4h10c2.21,0,4-1.79,4-4v-9.5c0-.28-.22-.5-.5-.5Zm-7.5,10h-5c-.55,0-1-.45-1-1s.45-1,1-1h5c.55,0,1,.45,1,1s-.45,1-1,1Zm3-4h-8c-.55,0-1-.45-1-1s.45-1,1-1h8c.55,0,1,.45,1,1s-.45,1-1,1Z"/></svg>