<svg xmlns="http://www.w3.org/2000/svg" viewBox="0 0 24 24" width="24" height="24"><path d="m8,18.13c.55,0,1-.45,1-1v-.25c0-.55-.45-1-1-1s-1,.45-1,1v.25c0,.55.45,1,1,1Z"/><path d="m5,17.13v-.25c0-.55-.45-1-1-1s-1,.45-1,1v.25c0,.55.45,1,1,1s1-.45,1-1Z"/><path d="m21,17.13v-.25c0-.55-.45-1-1-1s-1,.45-1,1v.25c0,.55.45,1,1,1s1-.45,1-1Z"/><path d="m7,20.13c0,.55.45,1,1,1s1-.45,1-1v-.25c0-.55-.45-1-1-1s-1,.45-1,1v.25Z"/><path d="m12,19.13c.55,0,1-.45,1-1v-.25c0-.55-.45-1-1-1s-1,.45-1,1v.25c0,.55.45,1,1,1Z"/><path d="m11,21.13c0,.55.45,1,1,1s1-.45,1-1v-.25c0-.55-.45-1-1-1s-1,.45-1,1v.25Z"/><path d="m16,18.13c.55,0,1-.45,1-1v-.25c0-.55-.45-1-1-1s-1,.45-1,1v.25c0,.55.45,1,1,1Z"/><path d="m15,20.13c0,.55.45,1,1,1s1-.45,1-1v-.25c0-.55-.45-1-1-1s-1,.45-1,1v.25Z"/><path d="m19.38,7.25c-.59-3-3.26-5.25-6.38-5.25-2.04,0-3.92.94-5.15,2.54-.21-.03-.4-.04-.6-.04-2.89,0-5.25,2.35-5.25,5.25s2.36,5.25,5.25,5.25h10.75c2.21,0,4-1.79,4-4,0-1.71-1.07-3.19-2.62-3.75Z"/></svg>