<svg xmlns="http://www.w3.org/2000/svg" width="24" height="24" viewBox="0 0 24 24"><path d="M4.36 5.77c.21.18.38.38.49.6.1.2.15.42.15.63 0 .55.45 1 1 1s1-.45 1-1-.12-1.04-.37-1.53c-.23-.47-.57-.88-.99-1.24-.21-.18-.38-.38-.49-.6C5.05 3.43 5 3.21 5 3c0-.55-.45-1-1-1s-1 .45-1 1 .12 1.04.37 1.53c.23.47.57.88.99 1.24M8.36 5.77c.21.18.38.38.49.6.1.2.15.42.15.63 0 .55.45 1 1 1s1-.45 1-1-.12-1.04-.37-1.53c-.23-.47-.57-.88-.99-1.24-.21-.18-.38-.38-.49-.6C9.05 3.43 9 3.21 9 3c0-.55-.45-1-1-1s-1 .45-1 1 .12 1.04.37 1.53c.23.47.57.88.99 1.24M12.36 5.77c.21.18.38.38.49.6.1.2.15.42.15.63 0 .55.45 1 1 1s1-.45 1-1-.12-1.04-.37-1.53c-.23-.47-.57-.88-.99-1.24-.21-.18-.38-.38-.49-.6-.1-.2-.15-.42-.15-.63 0-.55-.45-1-1-1s-1 .45-1 1 .12 1.04.37 1.53c.23.47.57.88.99 1.24M7 22h6c1.86 0 3.41-1.28 3.86-3H17c2.21 0 4-1.79 4-4s-1.79-4-4-4v-1c0-.55-.45-1-1-1H4c-.55 0-1 .45-1 1v8c0 2.21 1.79 4 4 4m12-7c0 1.1-.9 2-2 2v-4c1.1 0 2 .9 2 2"/></svg>