<svg xmlns="http://www.w3.org/2000/svg" viewBox="0 0 24 24" width="24" height="24"><path d="m21.65,9.41c-.12-.45-.41-.83-.81-1.06l-1.26-.73v-1.45c0-.96-.79-1.75-1.75-1.75h-1.45l-.73-1.26c-.23-.4-.61-.69-1.06-.82-.45-.12-.92-.06-1.33.17l-1.26.73-1.26-.73c-.41-.23-.88-.29-1.33-.17-.45.12-.83.41-1.06.81l-.73,1.26h-1.45c-.96,0-1.75.79-1.75,1.75v1.45l-1.26.73c-.41.23-.7.61-.82,1.06s-.06.92.18,1.33l.73,1.26-.73,1.26c-.23.4-.3.88-.18,1.33s.41.83.82,1.06l1.26.73v1.45c0,.96.79,1.75,1.75,1.75h1.45l.73,1.26c.23.4.61.69,1.06.82.45.12.92.06,1.33-.18l1.26-.73,1.26.73c.27.16.57.24.87.24.15,0,.3-.02.46-.06.45-.12.83-.41,1.06-.82l.73-1.26h1.45c.96,0,1.75-.79,1.75-1.75v-1.45l1.26-.73c.41-.23.7-.61.82-1.06.12-.45.06-.92-.18-1.33l-.73-1.26.73-1.26c.23-.41.3-.88.17-1.33Z"/></svg>