<svg xmlns="http://www.w3.org/2000/svg" viewBox="0 0 24 24" width="24" height="24"><path d="m12,6c-4.41,0-8,3.59-8,8s3.59,8,8,8,8-3.59,8-8c0-3.62-2.43-6.69-5.74-7.67,1.1-1.42,2.81-2.33,4.74-2.33.55,0,1-.45,1-1s-.45-1-1-1c-1.36,0-2.64.34-3.77.95-.7-.43-1.82-.95-3.23-.95-1.57,0-2.8.65-3.46,1.09-.29.2-.29.63,0,.82.66.44,1.89,1.09,3.46,1.09.28,0,.55-.02.81-.06-.27.33-.51.69-.73,1.06-.03,0-.05,0-.08,0Zm4,7c.55,0,1,.45,1,1,0,2.76-2.24,5-5,5-.55,0-1-.45-1-1s.45-1,1-1c1.65,0,3-1.35,3-3,0-.55.45-1,1-1Z"/></svg>