<svg xmlns="http://www.w3.org/2000/svg" width="24" height="24" viewBox="0 0 24 24"><path d="M6 15c.47.29 1.09.15 1.38-.32l2.08-3.32c.4-.63 1.05-1.03 1.79-1.08.74-.06 1.45.24 1.93.8a4.326 4.326 0 0 0 5.53.88c.65-.39 1.17-.97 1.55-1.63l1.12-1.96a.996.996 0 1 0-1.73-.99l-1.17 2.05c-.39.68-1.06 1.1-1.85 1.16-.72.05-1.46-.26-1.93-.81a4.29 4.29 0 0 0-3.78-1.47c-1.36.16-2.54 1.02-3.26 2.17l-1.97 3.15c-.29.47-.15 1.09.32 1.38Z"/><path d="M21 20H4.5c-.28 0-.5-.22-.5-.5V3c0-.55-.45-1-1-1s-1 .45-1 1v16.5A2.5 2.5 0 0 0 4.5 22H21c.55 0 1-.45 1-1s-.45-1-1-1"/></svg>