<svg xmlns="http://www.w3.org/2000/svg" viewBox="0 0 24 24" width="24" height="24"><path d="m3.45,9.01c.14.07.29.1.43.1.37,0,.73-.21.9-.57.52-1.07,1.28-2.04,2.21-2.79.43-.35.5-.97.15-1.41s-.98-.5-1.41-.15c-1.17.94-2.12,2.14-2.77,3.48-.24.5-.03,1.1.47,1.33Z"/><path d="m19.2,8.5c.17.36.53.56.9.56.15,0,.3-.03.44-.1.5-.24.7-.84.46-1.34-.65-1.34-1.62-2.54-2.79-3.46-.43-.34-1.06-.27-1.4.16-.34.43-.27,1.06.16,1.4.94.74,1.71,1.7,2.23,2.78Z"/><path d="m9.97,4.23c.07,0,.15,0,.23-.03,1.16-.27,2.4-.27,3.56-.01.54.12,1.07-.22,1.19-.76.12-.54-.22-1.07-.76-1.19-1.45-.33-3-.32-4.45.01-.54.12-.87.66-.75,1.2.11.46.52.78.97.78Z"/><path d="m4,12.02c0-.55-.45-1-1-1h0c-.55,0-1,.45-1,1,0,1.52.34,2.98,1,4.33.17.36.53.56.9.56.15,0,.29-.03.43-.1.5-.24.71-.84.46-1.34-.53-1.08-.79-2.25-.8-3.47Z"/><path d="m10.23,19.8c-1.16-.26-2.27-.79-3.21-1.54-.43-.34-1.06-.27-1.41.16-.34.43-.27,1.06.16,1.41,1.17.93,2.56,1.6,4.01,1.93.07.02.15.02.22.02.46,0,.87-.32.97-.78.12-.54-.22-1.07-.75-1.2Z"/><path d="m16.99,18.25c-.93.75-2.04,1.28-3.2,1.55-.54.12-.88.66-.75,1.2.11.46.52.78.97.78.07,0,.15,0,.22-.03,1.45-.33,2.84-1,4.01-1.93.43-.34.5-.97.16-1.41-.34-.43-.97-.5-1.41-.16Z"/><path d="m21,10.98c-.55,0-1,.47-1,1.02,0,1.21-.27,2.38-.79,3.47-.24.5-.03,1.09.47,1.33.14.07.29.1.43.1.37,0,.73-.21.9-.57.66-1.36.99-2.82.99-4.37h-1s1,0,1,0c0-.55-.45-.98-1-.98Z"/><path d="M12 6A6 6 0 1 0 12 18 6 6 0 1 0 12 6z"/></svg>