<svg xmlns="http://www.w3.org/2000/svg" viewBox="0 0 24 24" width="24" height="24"><path d="m2,15.31v5.19c0,.83.67,1.5,1.5,1.5h1.5v-9.12l-2.17,1.09c-.51.26-.83.77-.83,1.34Z"/><path d="m17.27,11l-4.27-2.56v-2.43h1c.55,0,1-.45,1-1s-.45-1-1-1h-1v-1c0-.55-.45-1-1-1s-1,.45-1,1v1h-1c-.55,0-1,.45-1,1s.45,1,1,1h1v2.43l-4.27,2.56c-.45.27-.73.76-.73,1.29v9.72h4v-4c0-1.1.9-2,2-2s2,.9,2,2v4h4v-9.72c0-.53-.28-1.02-.73-1.29Zm-5.27,3c-.83,0-1.5-.67-1.5-1.5s.67-1.5,1.5-1.5,1.5.67,1.5,1.5-.67,1.5-1.5,1.5Z"/><path d="m21.17,13.97l-2.17-1.09v9.12h1.5c.83,0,1.5-.67,1.5-1.5v-5.19c0-.57-.32-1.08-.83-1.34Z"/></svg>