<svg xmlns="http://www.w3.org/2000/svg" viewBox="0 0 24 24" width="24" height="24"><path d="m20.52,11.69l-3.02-1.34v-4.38c0-.99-.58-1.88-1.48-2.28l-3-1.33c-.64-.29-1.38-.29-2.03,0l-3,1.33c-.9.4-1.49,1.3-1.49,2.28v4.38l-3.01,1.34c-.9.4-1.49,1.3-1.49,2.28v4.05c0,.99.58,1.88,1.48,2.28l3,1.33c.32.14.67.21,1.01.21s.69-.07,1.02-.21l3.48-1.55,3.49,1.55c.32.14.67.21,1.01.21s.69-.07,1.02-.21l3-1.33c.9-.4,1.49-1.3,1.49-2.28v-4.05c0-.99-.58-1.88-1.48-2.28Zm-13.02,3.21l-3.16-1.41,3.16-1.41.44.19,2.72,1.21-3.16,1.41Zm8-7.37v2.81l-2.5,1.11v-2.81l2.5-1.11Zm1,7.37l-3.16-1.41,2.72-1.21.44-.19,3.16,1.41-3.16,1.41Zm-4.7-10.72c.13-.06.28-.06.41,0l2.96,1.32-3.16,1.41-3.16-1.41,2.96-1.32Zm-3.3,15.28v-2.81l2.5-1.11v2.81l-2.5,1.11Zm11.2-.98l-2.2.98v-2.81l2.5-1.11v2.49c0,.2-.12.38-.3.46Z"/></svg>