<svg xmlns="http://www.w3.org/2000/svg" viewBox="0 0 24 24" width="24" height="24"><path class="b" d="m19.73,6.2l-6.5-3.66c-.76-.43-1.7-.43-2.45,0l-6.5,3.66c-.79.44-1.27,1.28-1.27,2.18v7.25c0,.9.49,1.74,1.27,2.18l6.5,3.66c.38.21.8.32,1.23.32s.85-.11,1.23-.32l6.5-3.66c.79-.44,1.27-1.28,1.27-2.18v-7.25c0-.9-.49-1.74-1.27-2.18Zm-6.2,6.09l5.47-3.08v6.15l-5.47-3.08Zm-8.53,3.08v-6.15l5.47,3.08-5.47,3.08Zm12.96-7.86l-5.46,3.07v-6.14l5.46,3.07Zm-6.46-3.07v6.14l-5.46-3.07,5.46-3.07Zm-5.97,11.78l5.47-3.08v6.15l-5.47-3.08Zm7.47,3.08v-6.15l5.47,3.08-5.47,3.08Z"/></svg>