<svg xmlns="http://www.w3.org/2000/svg" viewBox="0 0 24 24" width="24" height="24"><path d="m21.99,3.21c0-.45-.54-.67-.85-.36l-1.14,1.14h-6l-1.14-1.14c-.32-.32-.86-.09-.85.36v.79s0,0,0,0v5c0,2.76,2.24,5,5,5s5-2.24,5-5v-5h-.01v-.79Zm-6.99,5.79c-.55,0-1-.45-1-1s.45-1,1-1,1,.45,1,1-.45,1-1,1Zm4,0c-.55,0-1-.45-1-1s.45-1,1-1,1,.45,1,1-.45,1-1,1Z"/><path d="m11.09,10h-5.59c-.83,0-1.5-.67-1.5-1.5s.67-1.5,1.5-1.5c1.56,0,4.5-.84,4.5-4,0-.55-.45-1-1-1s-1,.45-1,1c0,1.88-2.09,2-2.5,2-1.93,0-3.5,1.57-3.5,3.5,0,1.42.85,2.63,2.06,3.18l.8,8c.13,1.32,1.24,2.32,2.56,2.32,1.42,0,2.57-1.15,2.57-2.57v-1.43h4v1.43c0,1.42,1.15,2.57,2.57,2.57h.02c1.31,0,2.41-.99,2.56-2.29l.6-5.38c-.82.43-1.76.67-2.75.67-2.97,0-5.43-2.17-5.91-5Z"/></svg>