<svg xmlns="http://www.w3.org/2000/svg" width="24" height="24" viewBox="0 0 24 24"><path d="M16.5 5.5c.28 0 .5-.22.5-.5V3h-.09c-.21-.58-.76-1-1.41-1h-7c-.65 0-1.2.42-1.41 1H7v2c0 .28.22.5.5.5z"/><path d="M18 3.14V5c0 .83-.67 1.5-1.5 1.5h-9C6.67 6.5 6 5.83 6 5V3.14c-1.72.45-3 2-3 3.86v11c0 2.21 1.79 4 4 4h10c2.21 0 4-1.79 4-4V7c0-1.86-1.28-3.41-3-3.86m-3.17 11.77a.996.996 0 0 1-.71 1.7c-.26 0-.51-.1-.71-.29L12 14.91l-1.41 1.41c-.2.2-.45.29-.71.29s-.51-.1-.71-.29a.996.996 0 0 1 0-1.41l1.41-1.41-1.41-1.41a.996.996 0 1 1 1.41-1.41l1.41 1.41 1.41-1.41a.996.996 0 1 1 1.41 1.41L13.4 13.5l1.41 1.41Z"/></svg>