<svg xmlns="http://www.w3.org/2000/svg" width="24" height="24" viewBox="0 0 24 24"><path d="M18 3H6c-1.1 0-2.1.45-2.83 1.17A4 4 0 0 0 2 7v.52c0 .27.22.48.48.49 3.39.12 6.46 1.56 8.7 3.8 2.25 2.25 3.68 5.31 3.8 8.7 0 .27.22.49.49.49h2.52c1.1 0 2.1-.45 2.83-1.17s1.17-1.72 1.17-2.83V7c0-1.1-.45-2.1-1.17-2.83A4 4 0 0 0 17.99 3Z"/><path d="M3.12 10.06c-.6-.06-1.12.4-1.12 1 0 .51.38.94.88.99 2.07.2 3.99 1.1 5.48 2.59a8.93 8.93 0 0 1 2.59 5.48c.05.5.48.88.99.88.6 0 1.06-.52 1-1.12a10.85 10.85 0 0 0-3.17-6.66 10.96 10.96 0 0 0-6.66-3.17Z"/><path d="M3.15 14.09c-.6-.1-1.15.39-1.15 1 0 .49.35.9.83.98 1.02.17 1.96.65 2.7 1.39s1.22 1.68 1.4 2.7c.08.48.49.83.98.83.61 0 1.09-.55 1-1.15a6.9 6.9 0 0 0-1.96-3.8 7 7 0 0 0-3.8-1.96ZM3.5 18a1.5 1.5 0 1 0 0 3 1.5 1.5 0 1 0 0-3"/></svg>