<svg xmlns="http://www.w3.org/2000/svg" width="24" height="24" viewBox="0 0 24 24"><path d="M15.92 2.2c-.65-.19-1.36-.1-1.95.24L2.5 9.14s-.08.07-.13.1c-.03.03-.07.05-.1.08-.07.08-.13.16-.17.26 0 .01-.02.02-.02.04-.05.11-.07.23-.07.36v8.53a2.5 2.5 0 0 0 2.5 2.5h15a2.5 2.5 0 0 0 2.5-2.5v-8.5c0-5.58-4.65-7.38-6.08-7.8ZM6.5 18c-.83 0-1.5-.67-1.5-1.5S5.67 15 6.5 15s1.5.67 1.5 1.5S7.33 18 6.5 18m5-3c-.83 0-1.5-.67-1.5-1.5s.67-1.5 1.5-1.5 1.5.67 1.5 1.5-.67 1.5-1.5 1.5m5.5 3c-1.1 0-2-.9-2-2s.9-2 2-2 2 .9 2 2-.9 2-2 2M6.7 9l8.28-4.83a.47.47 0 0 1 .38-.05c1.58.46 4.13 1.7 4.58 4.88z"/></svg>