<svg xmlns="http://www.w3.org/2000/svg" viewBox="0 0 24 24" width="24" height="24"><path d="m16.5,5.33c-.69-.92-1.91-1.25-2.97-.81l-.61.25c-.33-1.59-1.74-2.78-3.42-2.78-1.93,0-3.5,1.57-3.5,3.5,0,.7.21,1.36.59,1.93l-3.05,1.27c-.94.38-1.54,1.29-1.54,2.3v5.73c0,1.23.88,2.26,2.09,2.47l15,2.5c.14.02.27.03.41.03.59,0,1.17-.21,1.62-.6.56-.47.88-1.17.88-1.9v-5.73c0-.53-.17-1.05-.5-1.5l-5-6.67Zm-7-1.33c.83,0,1.5.67,1.5,1.5,0,.16-.03.33-.09.49-.28.82-1.29,1.24-2.07.86,0,0,0,0,0,0,0,0,0,0,0,0-.51-.25-.84-.78-.84-1.35,0-.83.67-1.5,1.5-1.5Zm10.33,15.61c-.07.06-.21.14-.41.11l-15-2.5c-.24-.04-.42-.25-.42-.49v-5.05l16,2.67v1.97l-12.85-2.14c-.54-.09-1.06.28-1.15.82-.09.54.28,1.06.82,1.15l13.18,2.2v.88c0,.2-.11.32-.17.38Z"/></svg>