<svg xmlns="http://www.w3.org/2000/svg" viewBox="0 0 24 24" width="24" height="24"><path d="M15.61 9 13.28 2 10.72 2 8.39 9 15.61 9z"/><path d="m8.42,11l3.32,9.23s.05,0,.08,0l3.7-9.24h-7.1Z"/><path d="m18.73,4.02c-.69-1.21-1.96-1.96-3.34-2.01l2.33,6.99h3.58c-.08-.45-.22-.88-.45-1.29l-2.11-3.7Z"/><path d="m14.26,19.54c.31-.21.59-.45.84-.75l5.37-6.57c.3-.37.52-.79.67-1.23h-3.46l-3.42,8.54Z"/><path d="m8.61,2.01c-1.38.05-2.65.8-3.34,2.01l-2.11,3.7c-.23.4-.38.84-.45,1.29h3.58l2.33-6.99Z"/><path d="m2.86,11c.15.44.37.86.67,1.23l5.37,6.57c.09.11.21.2.31.3l-2.92-8.1h-3.44Z"/></svg>