<svg xmlns="http://www.w3.org/2000/svg" viewBox="0 0 24 24" width="24" height="24"><path d="m10,9h-4c-1.83,0-1.99-1.53-2-2.01,0-.55-.45-.99-1-.99s-1,.45-1,1c0,1.17.57,2.73,2,3.51v9.49c0,1.1.9,2,2,2s2-.9,2-2v-2h4v2c0,1.1.9,2,2,2s2-.9,2-2v-6h-1c-2.76,0-5-2.24-5-5Z"/><path d="m21,6h-2l-1.27-1.27c-.46-.46-1.08-.72-1.73-.73h-2.43c-.6-1.13-1.34-1.63-1.88-1.84-.33-.13-.69.11-.69.47v1.37s0,0,0,0v5c0,2.21,1.79,4,4,4h1l3.71-1.48c.82-.33,1.45-1,1.73-1.84l.56-1.53v-1.15c0-.55-.45-1-1-1Zm-5,2c-.55,0-1-.45-1-1s.45-1,1-1,1,.45,1,1-.45,1-1,1Z"/></svg>