<svg xmlns="http://www.w3.org/2000/svg" viewBox="0 0 24 24" width="24" height="24"><path d="m6.15,9h11.69c.23,0,.44-.16.49-.39l.62-2.79c.25-1.13-.08-2.35-.96-3.09-1-.84-2.35-.96-3.46-.32l-2.53,1.45-2.41-1.38c-1-.57-2.26-.62-3.24,0-1.1.7-1.62,1.96-1.34,3.22l.65,2.92c.05.23.25.39.49.39Z"/><path d="m18.41,11.37c-.06-.22-.26-.37-.48-.37H6.07c-.23,0-.42.15-.48.37l-2.01,7.36c-.18.67-.14,1.4.2,2,.46.8,1.28,1.27,2.18,1.27h2.04v-7c0-.55.45-1,1-1s1,.45,1,1v7h4v-7c0-.55.45-1,1-1s1,.45,1,1v7h2.04c.9,0,1.72-.47,2.18-1.27.34-.6.39-1.33.2-2l-2.01-7.36Z"/></svg>