<svg xmlns="http://www.w3.org/2000/svg" width="24" height="24" viewBox="0 0 24 24"><path d="M12 2C6.49 2 2 6.49 2 12s4.49 10 10 10 10-4.49 10-10S17.51 2 12 2m1 14.91V17c0 .55-.45 1-1 1s-1-.45-1-1v-.08c-1.33-.21-2.13-.83-2.56-1.49-.4-.62.06-1.43.79-1.43h.17c.31 0 .58.17.77.41.22.28.72.59 1.82.59 1.38 0 2-.58 2-1 0-.32 0-1-2-1-3.48 0-4-1.88-4-3 0-1.29 1.03-2.58 3-2.91V7c0-.55.45-1 1-1s1 .45 1 1v.12c1.07.25 1.74.89 2.09 1.59.3.6-.18 1.29-.84 1.3h-.16c-.34 0-.64-.19-.82-.49C13.09 9.24 12.74 9 12 9c-1.3 0-2 .52-2 1 0 .37 0 1 2 1 3.48 0 4 1.88 4 3 0 1.29-1.03 2.58-3 2.91"/></svg>