<svg xmlns="http://www.w3.org/2000/svg" viewBox="0 0 24 24" width="24" height="24"><path d="m21,6.39l-3.39-3.39c-.78-.78-2.05-.78-2.83,0l-.89.89-.39-.39c-.38-.38-.88-.59-1.41-.59h0c-.53,0-1.04.21-1.41.59l-.39.39c-.78.78-.78,2.05,0,2.83l2.79,2.79-3.59,3.59-2.79-2.79c-.78-.78-2.05-.78-2.83,0l-.39.39c-.38.38-.59.88-.59,1.42s.21,1.04.59,1.41l.39.39-.89.89c-.78.78-.78,2.05,0,2.83l3.39,3.39c.39.39.9.58,1.41.58s1.02-.2,1.41-.58l.89-.89.39.39c.39.39.9.58,1.41.58s1.03-.2,1.42-.58l.39-.39c.78-.78.78-2.05,0-2.83l-2.79-2.79,3.59-3.59,2.79,2.79c.39.39.9.58,1.41.58s1.02-.2,1.41-.58l.39-.39c.38-.38.59-.88.59-1.42s-.21-1.04-.59-1.41l-.39-.39.89-.89c.78-.78.78-2.05,0-2.83Z"/></svg>