<svg xmlns="http://www.w3.org/2000/svg" viewBox="0 0 24 24" width="24" height="24"><path d="m13.77,10.22c.4.42,1.06.42,1.46,0l3.11-3.32c.41-.41.66-.98.66-1.62s-.25-1.2-.66-1.62c-.41-.41-.97-.67-1.59-.67,0,0-1.12,0-2.25,1.14-1.13-1.15-2.25-1.14-2.25-1.14-.62,0-1.18.26-1.59.67-.41.41-.66.99-.66,1.62s.25,1.2.66,1.62l3.11,3.32Z"/><path d="m19.75,12.25c-.47-.16-.99-.06-1.38.25l-4.38,3.5h-5v-1h3.5c.83,0,1.5-.67,1.5-1.5s-.67-1.5-1.5-1.5H4c-1.1,0-2,.9-2,2v4c0,1.1.9,2,2,2h9.76c.8,0,1.56-.32,2.12-.88l4.45-4.45c.77-.77.46-2.08-.57-2.42Z"/></svg>