<svg xmlns="http://www.w3.org/2000/svg" viewBox="0 0 24 24" width="24" height="24"><path d="m13.66,7.28c1.43.5,2.56,1.63,3.06,3.06.14.4.51.66.93.66h3.12c.64,0,1.12-.59.98-1.22-.85-3.74-3.79-6.69-7.53-7.53-.62-.14-1.22.34-1.22.98,0,.96,0,2.3,0,3.12,0,.42.26.79.66.93Z"/><path d="m16.72,13.65c-.77,2.19-3.02,3.69-5.55,3.28-2.07-.33-3.76-2.03-4.1-4.1-.41-2.53,1.09-4.78,3.28-5.55.39-.14.65-.51.65-.93v-2.82c0-.94-.59-1.42-1.22-1.28C5.15,3.3,1.74,7.56,2.02,12.58s4.41,9.13,9.41,9.41,9.28-3.13,10.33-7.77c.14-.62-.34-1.22-.98-1.22h-3.12c-.42,0-.79.26-.93.65Z"/></svg>