<svg xmlns="http://www.w3.org/2000/svg" viewBox="0 0 24 24" width="24" height="24"><path d="m21,5H3c-.55,0-1,.45-1,1v8c0,.55.45,1,1,1h2v1c0,.55.45,1,1,1h2v1c0,.55.45,1,1,1h6c.55,0,1-.45,1-1v-1h2c.55,0,1-.45,1-1v-1h2c.55,0,1-.45,1-1V6c0-.55-.45-1-1-1Zm-14,5.5c0,.55-.45,1-1,1s-1-.45-1-1v-2c0-.55.45-1,1-1s1,.45,1,1v2Zm4,0c0,.55-.45,1-1,1s-1-.45-1-1v-2c0-.55.45-1,1-1s1,.45,1,1v2Zm4,0c0,.55-.45,1-1,1s-1-.45-1-1v-2c0-.55.45-1,1-1s1,.45,1,1v2Zm4,0c0,.55-.45,1-1,1s-1-.45-1-1v-2c0-.55.45-1,1-1s1,.45,1,1v2Z"/></svg>