<svg xmlns="http://www.w3.org/2000/svg" width="24" height="24" viewBox="0 0 24 24"><path d="M18.4 16.99c1.77-1.32 2.77-2.96 3.23-3.92.33-.68.33-1.46 0-2.13-.86-1.78-3.51-5.93-9.63-5.93-1.85 0-3.37.38-4.63.96L3.7 2.3a.996.996 0 1 0-1.41 1.41l3.3 3.3 3.71 3.71 3.98 3.98 3.35 3.35 3.66 3.66c.2.2.45.29.71.29s.51-.1.71-.29a.996.996 0 0 0 0-1.41zM12 9c1.64 0 3 1.36 3 3 0 .46-.11.89-.3 1.29l-3.98-3.98c.39-.19.83-.3 1.29-.3ZM4.49 8.73a.5.5 0 0 0-.74.03c-.67.82-1.12 1.61-1.39 2.17-.33.68-.33 1.46 0 2.13.86 1.78 3.51 5.93 9.63 5.93.54 0 1.04-.03 1.53-.1.41-.05.58-.56.28-.85z"/></svg>