<svg xmlns="http://www.w3.org/2000/svg" viewBox="0 0 24 24" width="24" height="24"><path d="m20.5,6h-3.5v-1.5c0-1.38-1.12-2.5-2.5-2.5h-5c-1.38,0-2.5,1.12-2.5,2.5v2.88l-4.62,2.31c-.85.42-1.38,1.29-1.38,2.24v7.57c0,1.38,1.12,2.5,2.5,2.5h.5c.55,0,1-.45,1-1v-6.75c0-.69.45-1.25,1-1.25s1,.56,1,1.25v6.75c0,.55.45,1,1,1h12.5c1.38,0,2.5-1.12,2.5-2.5v-11c0-1.38-1.12-2.5-2.5-2.5Zm-7.5,9.5c0,.28-.22.5-.5.5h-1c-.28,0-.5-.22-.5-.5v-1c0-.28.22-.5.5-.5h1c.28,0,.5.22.5.5v1Zm0-4c0,.28-.22.5-.5.5h-1c-.28,0-.5-.22-.5-.5v-1c0-.28.22-.5.5-.5h1c.28,0,.5.22.5.5v1Zm0-4c0,.28-.22.5-.5.5h-1c-.28,0-.5-.22-.5-.5v-1c0-.28.22-.5.5-.5h1c.28,0,.5.22.5.5v1Zm6,8c0,.28-.22.5-.5.5h-1c-.28,0-.5-.22-.5-.5v-1c0-.28.22-.5.5-.5h1c.28,0,.5.22.5.5v1Zm0-4c0,.28-.22.5-.5.5h-1c-.28,0-.5-.22-.5-.5v-1c0-.28.22-.5.5-.5h1c.28,0,.5.22.5.5v1Z"/></svg>