<svg xmlns="http://www.w3.org/2000/svg" viewBox="0 0 24 24" width="24" height="24"><path d="m2.99,13.11c-.54.04-.91.54-.79,1.07.94,4.1,4.39,7.22,8.64,7.69l1.16.13c-.59-4.69-4.31-8.37-9.01-8.89Z"/><path d="m21.01,13.11c-4.7.52-8.43,4.2-9.01,8.89l1.16-.13c4.26-.47,7.7-3.59,8.64-7.69.12-.52-.25-1.03-.79-1.07Z"/><path d="m5.95,12.51c.69,1.18,2.2,1.58,3.39.91.06-.03.11-.08.17-.12,0,.07-.02.14-.02.21,0,1.38,1.12,2.5,2.5,2.5s2.5-1.12,2.5-2.5c0-.07-.02-.14-.02-.21.06.04.11.09.17.12,1.2.68,2.73.26,3.41-.94.68-1.19.27-2.7-.91-3.39-.06-.03-.13-.06-.19-.08.06-.03.13-.05.19-.09,1.2-.69,1.61-2.22.92-3.41,0,0,0,0,0,0-.69-1.2-2.22-1.61-3.41-.92-.06.04-.11.08-.17.12,0-.07.02-.14.02-.21,0-1.38-1.12-2.5-2.5-2.5s-2.5,1.12-2.5,2.5c0,.07.02.14.02.21-.06-.04-.11-.09-.17-.12-1.2-.68-2.73-.26-3.41.94-.68,1.19-.27,2.7.91,3.39.06.04.13.06.19.09-.06.03-.13.05-.19.08-1.19.7-1.59,2.23-.89,3.42Zm6.04-6.01c1.38,0,2.5,1.12,2.5,2.5s-1.12,2.5-2.5,2.5-2.5-1.12-2.5-2.5,1.12-2.5,2.5-2.5Z"/></svg>