<svg xmlns="http://www.w3.org/2000/svg" viewBox="0 0 24 24" width="24" height="24"><path d="m18.45,12.62l-4.81-.72c-.37-.06-.64-.37-.64-.74v-3.65c0-.83-.67-1.5-1.5-1.5s-1.5.67-1.5,1.5v8.39c0,.53-.54.89-1.03.7l-1.87-.75c-1.01-.4-2.1.34-2.1,1.42,0,.47.21.91.58,1.2l3.6,2.88c.53.43,1.19.66,1.87.66h6.95c1.66,0,3-1.34,3-3v-3.42c0-1.48-1.09-2.75-2.55-2.97Z"/><path d="m7,8.5c.55,0,1-.45,1-1,0-1.93,1.57-3.5,3.5-3.5s3.5,1.57,3.5,3.5c0,.55.45,1,1,1s1-.45,1-1c0-3.03-2.47-5.5-5.5-5.5s-5.5,2.47-5.5,5.5c0,.55.45,1,1,1Z"/></svg>