<svg xmlns="http://www.w3.org/2000/svg" width="24" height="24" viewBox="0 0 24 24"><path d="M17 2H6.5A2.5 2.5 0 0 0 4 4.5V7H3c-.55 0-1 .45-1 1s.45 1 1 1h1v2H3c-.55 0-1 .45-1 1s.45 1 1 1h1v2H3c-.55 0-1 .45-1 1s.45 1 1 1h1v2.5A2.5 2.5 0 0 0 6.5 22H17c2.21 0 4-1.79 4-4V6c0-2.21-1.79-4-4-4m-5 6.55V8.5c0-.28.22-.5.5-.5s.5.22.5.5v.05c2.05.23 3.7 1.82 3.96 3.87.04.31-.18.59-.5.59H8.53c-.31 0-.54-.28-.5-.59a4.5 4.5 0 0 1 3.96-3.87ZM16.5 15h-8c-.28 0-.5-.22-.5-.5s.22-.5.5-.5h8c.28 0 .5.22.5.5s-.22.5-.5.5"/></svg>