<svg xmlns="http://www.w3.org/2000/svg" viewBox="0 0 24 24" width="24" height="24"><path d="m3,7h2v2c0,.55.45,1,1,1s1-.45,1-1v-2h2c.55,0,1-.45,1-1s-.45-1-1-1h-2v-2c0-.55-.45-1-1-1s-1,.45-1,1v2h-2c-.55,0-1,.45-1,1s.45,1,1,1Z"/><path d="m21.57,2.18c-.27-.19-.62-.23-.93-.11C7.3,7.2,4.15,20.22,4.03,20.78c-.12.54.21,1.08.75,1.2.08.02.15.03.23.03.46,0,.87-.31.97-.78,0-.04.32-1.33,1.14-3.22h3.88c1.41,0,2.76-.28,4-.76v-2.24l1.51,1.51c.93-.54,1.76-1.21,2.49-1.98v-1.53l.7.7c1.43-1.86,2.3-4.18,2.3-6.7V3c0-.33-.16-.64-.43-.82Z"/></svg>