<svg xmlns="http://www.w3.org/2000/svg" width="24" height="24" viewBox="0 0 24 24"><path d="M11.5 13a1.5 1.5 0 1 0 0 3 1.5 1.5 0 1 0 0-3"/><path d="M14.71 2.29A1 1 0 0 0 14 2H8C5.79 2 4 3.79 4 6v12c0 2.21 1.79 4 4 4h8c2.21 0 4-1.79 4-4V8c0-.27-.11-.52-.29-.71zm1 16.41c-.2.2-.45.29-.71.29s-.51-.1-.71-.29l-1.14-1.14c-.49.27-1.05.43-1.65.43-1.93 0-3.5-1.57-3.5-3.5s1.57-3.5 3.5-3.5 3.5 1.57 3.5 3.5c0 .6-.17 1.16-.43 1.65l1.14 1.14c.39.39.39 1.02 0 1.41Zm2.19-9.71h-3.4c-.83 0-1.5-.67-1.5-1.5v-3.4c0-.22.27-.33.43-.18l4.65 4.65c.16.16.05.43-.18.43"/></svg>