<svg xmlns="http://www.w3.org/2000/svg" viewBox="0 0 24 24" width="24" height="24"><path d="m21.15,5.85l-.95.95c-1.47-2.82-4.81-4.8-8.7-4.8-4.78,0-8.74,2.98-9.4,6.85-.1.6.39,1.15,1,1.15.49,0,.9-.35.98-.83.51-2.91,3.65-5.17,7.43-5.17,3.4,0,6.28,1.82,7.19,4.31l-.84.84c-.31.32-.09.85.35.85h3.29c.28,0,.5-.22.5-.5v-3.29c0-.45-.54-.67-.85-.35Z"/><path d="m11.5,6c-.83,0-1.5.67-1.5,1.5v8.39c0,.53-.54.89-1.03.7l-1.87-.75c-1.01-.4-2.1.34-2.1,1.42,0,.47.21.91.58,1.2l3.6,2.88c.53.43,1.19.66,1.87.66h6.95c1.66,0,3-1.34,3-3v-3.42c0-1.48-1.09-2.75-2.55-2.97l-4.81-.72c-.37-.06-.64-.37-.64-.74v-3.65c0-.83-.67-1.5-1.5-1.5Z"/></svg>