<svg xmlns="http://www.w3.org/2000/svg" width="24" height="24" viewBox="0 0 24 24"><path d="M14.71 2.29A1 1 0 0 0 14 2H8C5.79 2 4 3.79 4 6v12c0 2.21 1.79 4 4 4h8c2.21 0 4-1.79 4-4V8c0-.27-.11-.52-.29-.71zm-3.96 14.79a.996.996 0 1 1-1.41 1.41L7.05 16.2a.996.996 0 0 1 0-1.41l2.29-2.29a.996.996 0 1 1 1.41 1.41L9.16 15.5l1.59 1.59Zm6.21-.88-2.29 2.29a.996.996 0 1 1-1.41-1.41l1.59-1.59-1.59-1.59a.996.996 0 1 1 1.41-1.41l2.29 2.29c.39.39.39 1.02 0 1.41Zm.94-7.21h-3.4c-.83 0-1.5-.67-1.5-1.5v-3.4c0-.22.27-.33.43-.18l4.65 4.65c.16.16.05.43-.18.43"/></svg>