<svg xmlns="http://www.w3.org/2000/svg" width="24" height="24" viewBox="0 0 24 24"><path d="M12 2C6.49 2 2 6.49 2 12s4.49 10 10 10 10-4.49 10-10S17.51 2 12 2m6.23 15h-1.77a.76.76 0 0 0-.67.41l-1.04 2.09c-.86.32-1.78.5-2.75.5s-1.89-.18-2.75-.5L8.2 17.42a.76.76 0 0 0-.67-.41H5.76a8 8 0 0 1-1.63-3.53l1.58-2.11c.17-.23.2-.53.07-.79L4.77 8.56a8.02 8.02 0 0 1 4.79-4.19l2.01 1.34c.25.17.58.17.83 0l2.01-1.34c2.11.68 3.84 2.21 4.79 4.19l-1.01 2.02c-.13.25-.1.56.07.78l1.58 2.11a8.1 8.1 0 0 1-1.62 3.52Z"/><path d="M12.44 8.81a.735.735 0 0 0-.87 0l-2.6 1.85c-.28.2-.39.56-.27.87l1.12 2.97c.11.29.39.49.7.49h2.96c.31 0 .59-.19.7-.49l1.12-2.97c.12-.32.01-.68-.27-.87l-2.6-1.85Z"/></svg>