<svg xmlns="http://www.w3.org/2000/svg" width="24" height="24" viewBox="0 0 24 24"><path d="M14.71 2.29A1 1 0 0 0 14 2H8C5.79 2 4 3.79 4 6v12c0 2.21 1.79 4 4 4h8c2.21 0 4-1.79 4-4V8c0-.27-.11-.52-.29-.71zm.33 11.66-1.26 1.26c-.08.08-.11.2-.08.31l.52 1.68c.09.28-.23.51-.47.35l-1.58-1.06a.3.3 0 0 0-.34 0l-1.58 1.06c-.24.16-.55-.07-.47-.35l.52-1.68c.03-.11 0-.23-.08-.31l-1.26-1.26a.31.31 0 0 1 .19-.53l1.56-.13c.11 0 .2-.07.25-.17l.76-1.55c.11-.23.44-.23.56 0l.76 1.55c.05.1.14.16.25.17l1.56.13c.26.02.38.34.19.53m2.85-4.96h-3.4c-.83 0-1.5-.67-1.5-1.5v-3.4c0-.22.27-.33.43-.18l4.65 4.65c.16.16.05.43-.18.43"/></svg>