<svg xmlns="http://www.w3.org/2000/svg" viewBox="0 0 24 24" width="24" height="24"><path d="m9.17,19.93c-2.91-.51-5.17-3.65-5.17-7.43,0-3.4,1.82-6.28,4.31-7.19l.84.84c.32.32.85.09.85-.35v-3.29c0-.28-.22-.5-.5-.5h-3.29c-.45,0-.67.54-.35.85l.95.95c-2.82,1.47-4.8,4.81-4.8,8.7,0,4.78,2.98,8.74,6.85,9.4.6.1,1.15-.39,1.15-1,0-.49-.35-.9-.83-.98Z"/><path d="m19,3h-3.42c-1.48,0-2.75,1.09-2.97,2.55l-.72,4.81c-.06.37-.37.64-.74.64h-3.65c-.83,0-1.5.67-1.5,1.5s.67,1.5,1.5,1.5h8.39c.53,0,.89.54.7,1.03l-.75,1.87c-.4,1.01.34,2.1,1.42,2.1.47,0,.91-.21,1.2-.58l2.88-3.6c.43-.53.66-1.19.66-1.87v-6.95c0-1.66-1.34-3-3-3Z"/></svg>