<svg xmlns="http://www.w3.org/2000/svg" viewBox="0 0 24 24" width="24" height="24"><rect class="b" x="3" y="3" width="8" height="8" rx="2.5" ry="2.5"/><rect class="b" x="13" y="3" width="8" height="8" rx="2.5" ry="2.5"/><rect class="b" x="3" y="13" width="8" height="8" rx="2.5" ry="2.5"/><path class="b" d="m19.39,17.97c.39-.56.61-1.24.61-1.97,0-1.93-1.57-3.5-3.5-3.5s-3.5,1.57-3.5,3.5,1.57,3.5,3.5,3.5c.47,0,.91-.1,1.32-.26l1.47,1.47c.2.2.45.29.71.29s.51-.1.71-.29c.39-.39.39-1.02,0-1.41l-1.32-1.32Zm-4.39-1.97c0-.83.67-1.5,1.5-1.5s1.5.67,1.5,1.5-.67,1.5-1.5,1.5-1.5-.67-1.5-1.5Z"/></svg>