<svg xmlns="http://www.w3.org/2000/svg" viewBox="0 0 24 24" width="24" height="24"><path d="m20,7h-1.21c.13-.41.21-.9.21-1.5,0-1.93-1.57-3.5-3.5-3.5-1.62,0-2.7,1.48-3.4,3.09-.69-1.51-1.83-3.09-3.6-3.09-1.93,0-3.5,1.57-3.5,3.5,0,.6.08,1.09.21,1.5h-1.21c-1.1,0-2,.9-2,2s.9,2,2,2h16c1.1,0,2-.9,2-2s-.9-2-2-2Zm-4.5-3c.83,0,1.5.67,1.5,1.5,0,1.5-.63,1.5-1,1.5h-2.48c.51-1.58,1.25-3,1.98-3Zm-8.5,1.5c0-.83.67-1.5,1.5-1.5.89,0,1.71,1.53,2.2,3h-2.7c-.37,0-1,0-1-1.5Z"/><path d="m4,19c0,1.65,1.35,3,3,3h4v-9h-7v6Z"/><path d="m13,22h4c1.65,0,3-1.35,3-3v-6h-7v9Z"/></svg>