<svg xmlns="http://www.w3.org/2000/svg" viewBox="0 0 24 24" width="24" height="24"><path d="M9 4A4 4 0 1 0 9 12 4 4 0 1 0 9 4z"/><path d="m10,13h-2c-2.76,0-5,2.24-5,5,0,1.1.9,2,2,2h8c1.1,0,2-.9,2-2,0-2.76-2.24-5-5-5Z"/><path d="m19,8.19c.07-1.72-1.29-3.56-2.94-4.04-.58-.17-1.11-.18-1.61-.11-.35.05-.54.45-.35.75.58.92.91,2.02.91,3.21s-.33,2.29-.91,3.21c-.19.3,0,.7.35.75.18.03.37.04.56.04,2.22,0,3.9-1.63,4-3.81Z"/><path d="m16,13h-.01c-.41,0-.65.47-.4.79.89,1.17,1.42,2.63,1.42,4.21,0,.46-.09.91-.24,1.32-.12.33.11.68.46.68h1.77c1.08,0,1.99-.88,2-1.96.02-2.77-2.23-5.04-5-5.04Z"/></svg>