<svg xmlns="http://www.w3.org/2000/svg" viewBox="0 0 24 24" width="24" height="24"><path class="b" d="m4.66,6h7.69c.33,0,.57-.32.49-.64-.5-1.93-2.24-3.36-4.33-3.36s-3.83,1.43-4.33,3.36c-.08.32.16.64.49.64Z"/><path class="b" d="m14.96,6h4.53c.28,0,.5-.23.5-.5v-.5c0-.82-.32-1.52-.9-2.1-1.16-1.16-3.19-1.16-4.35,0l-.53.53c.38.71.63,1.5.73,2.34l.03.22Z"/><path class="b" d="m19.09,8H4.91c-1.04,0-1.9.79-1.99,1.82l-.66,7.37c-.18,2.05,1.43,3.81,3.49,3.81h12.52c2.06,0,3.67-1.76,3.49-3.81l-.66-7.37c-.09-1.03-.96-1.82-1.99-1.82Zm-2.25,4.25c-.56,2.16-2.52,3.75-4.84,3.75s-4.29-1.6-4.84-3.75c-.16-.63.32-1.25.97-1.25h0c.47,0,.85.34.98.8.35,1.27,1.51,2.2,2.89,2.2s2.54-.93,2.89-2.2c.13-.46.5-.8.98-.8h0c.65,0,1.13.62.97,1.25Z"/></svg>