<svg xmlns="http://www.w3.org/2000/svg" viewBox="0 0 24 24" width="24" height="24"><path d="m14,20H3c-.55,0-1,.45-1,1s.45,1,1,1h11c.55,0,1-.45,1-1s-.45-1-1-1Z"/><path d="m17.18,9.77c.13.13.34.13.46,0,.98-.98.98-2.56,0-3.54l-2.88-2.88c-.98-.98-2.56-.98-3.54,0-.13.13-.13.34,0,.46l5.95,5.95Z"/><path d="m7.23,16.65c.49.49,1.13.73,1.77.73s1.28-.24,1.77-.73c.13-.13.13-.34,0-.46l-5.95-5.95c-.13-.13-.34-.13-.46,0-.98.98-.98,2.56,0,3.53l2.88,2.88Z"/><path d="m14.91,12.5l.73-.73c.2-.2.2-.51,0-.71l-5.71-5.71c-.2-.2-.51-.2-.71,0l-2.88,2.88c-.2.2-.2.51,0,.71l5.71,5.71c.2.2.51.2.71,0l.73-.73,6.79,6.79c.2.2.45.29.71.29s.51-.1.71-.29c.39-.39.39-1.02,0-1.41l-6.79-6.79Z"/></svg>