<svg xmlns="http://www.w3.org/2000/svg" viewBox="0 0 24 24" width="24" height="24"><path d="m10.41,8.83c-.25-.51-.77-.83-1.34-.83h-3.15c-.57,0-1.09.32-1.34.83l-1.25,2.5c-.21.42-.21.92,0,1.34l1.25,2.5c.25.51.77.83,1.34.83h3.15c.57,0,1.09-.32,1.34-.83l1.25-2.5c.21-.42.21-.92,0-1.34l-1.25-2.5Z"/><path d="m19.41,3.83c-.25-.51-.77-.83-1.34-.83h-3.15c-.57,0-1.09.32-1.34.83l-1.25,2.5c-.21.42-.21.92,0,1.34l1.25,2.5c.25.51.77.83,1.34.83h3.15c.57,0,1.09-.32,1.34-.83l1.25-2.5c.21-.42.21-.92,0-1.34l-1.25-2.5Z"/><path d="m19.41,13.83c-.25-.51-.77-.83-1.34-.83h-3.15c-.57,0-1.09.32-1.34.83l-1.25,2.5c-.21.42-.21.92,0,1.34l1.25,2.5c.25.51.77.83,1.34.83h3.15c.57,0,1.09-.32,1.34-.83l1.25-2.5c.21-.42.21-.92,0-1.34l-1.25-2.5Z"/></svg>