<svg xmlns="http://www.w3.org/2000/svg" width="24" height="24" viewBox="0 0 24 24"><path d="M17.59 3.17A4.03 4.03 0 0 0 14.76 2H9.24c-1.05 0-2.08.43-2.83 1.17L3.17 6.41C2.41 7.17 2 8.17 2 9.24v5.51c0 1.07.42 2.07 1.17 2.83l3.24 3.24c.74.74 1.77 1.17 2.83 1.17h5.52c1.05 0 2.08-.43 2.83-1.17l3.24-3.24c.76-.76 1.17-1.76 1.17-2.83V9.24c0-1.07-.42-2.07-1.17-2.83zM12 18c-.55 0-1-.45-1-1s.45-1 1-1 1 .45 1 1-.45 1-1 1m.33-4.06A1 1 0 0 1 12 14a.997.997 0 0 1-.32-1.94c.58-.2 2.24-1.03 2.24-2.07 0-.82-.54-1.57-1.32-1.86-1.04-.38-2.28.19-2.65 1.21-.19.52-.76.79-1.28.6a1 1 0 0 1-.6-1.28c.75-2.06 3.13-3.16 5.21-2.41 1.56.57 2.62 2.07 2.64 3.73 0 2.69-3.44 3.91-3.58 3.96Z"/></svg>