<svg xmlns="http://www.w3.org/2000/svg" viewBox="0 0 24 24" width="24" height="24"><path d="m12,6c-.64,0-1.26.1-1.84.29,2.3-2.22,5.63-2.29,5.84-2.29.55,0,1-.45,1-1s-.45-1-1-1c-.1,0-10,.11-10,10,0,.64.1,1.26.29,1.84-2.22-2.3-2.29-5.63-2.29-5.84,0-.55-.45-1-1-1s-1,.45-1,1c0,.1.11,10,10,10,.64,0,1.26-.1,1.84-.29-2.3,2.22-5.63,2.29-5.84,2.29-.55,0-1,.45-1,1s.45,1,1,1c.1,0,10-.11,10-10,0-.64-.1-1.26-.29-1.84,2.22,2.3,2.29,5.63,2.29,5.84,0,.55.45,1,1,1s1-.45,1-1c0-.1-.11-10-10-10Zm2.5,6c0,1.38-1.12,2.5-2.5,2.5s-2.5-1.12-2.5-2.5,1.12-2.5,2.5-2.5,2.5,1.12,2.5,2.5Z"/></svg>