<svg xmlns="http://www.w3.org/2000/svg" viewBox="0 0 24 24" width="24" height="24"><path d="m21,13.5c-.64,0-.91-.15-1.32-.37-.43-.24-.98-.52-1.87-.59-.66-2.6-3.01-4.53-5.81-4.53-3.12,0-5.69,2.39-5.97,5.44-.28-.06-.49-.17-.74-.31-.5-.28-1.13-.63-2.29-.63-.55,0-1,.45-1,1s.45,1,1,1c.64,0,.91.15,1.31.37.5.28,1.13.63,2.28.63s1.78-.35,2.29-.63c.4-.23.67-.37,1.31-.37s.91.15,1.31.37c.5.28,1.13.63,2.29.63s1.78-.35,2.29-.62c.41-.23.67-.38,1.32-.38s.91.15,1.32.37c.5.28,1.13.63,2.29.63.55,0,1-.45,1-1s-.45-1-1-1Z"/><rect x="11" y="3" width="2" height="3" rx="1" ry="1"/><path d="m18.41,8l.59-.59c.39-.39.39-1.02,0-1.41-.39-.39-1.02-.39-1.41,0l-.59.59c-.39.39-.39,1.02,0,1.41.39.39,1.02.39,1.41,0Z"/><path d="m5.59,8c.39.39,1.02.39,1.41,0,.39-.39.39-1.02,0-1.41l-.59-.59c-.39-.39-1.02-.39-1.41,0-.39.39-.39,1.02,0,1.41l.59.59Z"/><path d="m21,18c-.64,0-.91-.15-1.32-.37-.5-.28-1.13-.63-2.29-.63s-1.79.35-2.29.63c-.41.23-.67.37-1.32.37s-.91-.15-1.31-.37c-.5-.28-1.13-.63-2.29-.63s-1.78.35-2.29.63c-.4.23-.67.37-1.31.37s-.91-.15-1.31-.37c-.5-.28-1.13-.63-2.29-.63-.55,0-1,.45-1,1s.45,1,1,1c.64,0,.91.15,1.31.37.5.28,1.13.63,2.28.63s1.78-.35,2.29-.63c.4-.23.67-.37,1.31-.37s.91.15,1.31.37c.5.28,1.13.63,2.29.63s1.78-.35,2.29-.62c.41-.23.67-.38,1.32-.38s.91.15,1.32.37c.5.28,1.13.63,2.29.63.55,0,1-.45,1-1s-.45-1-1-1Z"/></svg>