<svg xmlns="http://www.w3.org/2000/svg" width="24" height="24" viewBox="0 0 24 24"><path d="M4 14c-.55 0-1 .45-1 1s.45 1 1 1h2.18l-.65 2.77c-.13.54.21 1.08.74 1.2.08.02.15.03.23.03.45 0 .86-.31.97-.77L8.23 16h5.65l-.65 2.77c-.13.54.21 1.08.74 1.2.08.02.15.03.23.03.45 0 .86-.31.97-.77l.76-3.23H19c.55 0 1-.45 1-1s-.45-1-1-1h-2.59l.94-4H20c.55 0 1-.45 1-1s-.45-1-1-1h-2.18l.65-2.77a.994.994 0 0 0-.74-1.2c-.54-.12-1.08.21-1.2.74L15.77 8h-5.65l.65-2.77a.994.994 0 0 0-.74-1.2c-.54-.12-1.08.21-1.2.74L8.07 8H5c-.55 0-1 .45-1 1s.45 1 1 1h2.59l-.94 4zm5.65-4h5.65l-.94 4H8.71z"/></svg>