<svg xmlns="http://www.w3.org/2000/svg" viewBox="0 0 24 24" width="24" height="24"><path d="m20.47,5c-.83.02-1.47.72-1.47,1.55v3.95c0,.28-.22.5-.5.5h0c-.28,0-.5-.22-.5-.5v-5.95c0-.83-.65-1.53-1.47-1.55s-1.53.66-1.53,1.5v6c0,.28-.22.5-.5.5h0c-.28,0-.5-.22-.5-.5V3.55c0-.83-.65-1.53-1.47-1.55s-1.53.66-1.53,1.5v7c0,.28-.22.5-.5.5h0c-.28,0-.5-.22-.5-.5v-5.95c0-.83-.65-1.53-1.47-1.55s-1.53.66-1.53,1.5v10.3c0,.43-.57.59-.79.23l-1.43-2.31c-.44-.71-1.36-.93-2.07-.49s-.93,1.36-.49,2.07l3.31,5.34c.91,1.47,2.52,2.37,4.25,2.37h7.22c2.76,0,5-2.24,5-5V6.5c0-.84-.69-1.52-1.53-1.5Z"/></svg>