<svg xmlns="http://www.w3.org/2000/svg" viewBox="0 0 24 24" width="24" height="24"><path d="m15,11h-4v-1.79c0-.45-.54-.67-.85-.35l-2.79,2.79c-.2.2-.2.51,0,.71l2.79,2.79c.32.32.85.09.85-.35v-1.79h4c.55,0,1-.45,1-1s-.45-1-1-1Z"/><path d="m4,18c-.55,0-1,.45-1,1v1c0,.55.45,1,1,1s1-.45,1-1v-1c0-.55-.45-1-1-1Z"/><path d="m4,13c-.55,0-1,.45-1,1v1c0,.55.45,1,1,1s1-.45,1-1v-1c0-.55-.45-1-1-1Z"/><path d="m4,8c-.55,0-1,.45-1,1v1c0,.55.45,1,1,1s1-.45,1-1v-1c0-.55-.45-1-1-1Z"/><path d="m4,3c-.55,0-1,.45-1,1v1c0,.55.45,1,1,1s1-.45,1-1v-1c0-.55-.45-1-1-1Z"/></svg>