<svg xmlns="http://www.w3.org/2000/svg" viewBox="0 0 24 24" width="24" height="24"><path d="m16.04,9.08c.12-1.17.46-1.86.85-2.63.43-.85.9-1.8,1.05-3.36.06-.58-.41-1.09-1-1.09-.52,0-.94.4-.99.92-.12,1.17-.46,1.86-.85,2.63-.43.85-.9,1.8-1.05,3.36-.06.58.41,1.09,1,1.09.52,0,.94-.4.99-.92Z"/><path d="m12.04,9.08c.12-1.17.46-1.86.85-2.63.43-.85.9-1.8,1.05-3.36.06-.58-.41-1.09-1-1.09-.52,0-.94.4-.99.92-.12,1.17-.46,1.86-.85,2.63-.43.85-.9,1.8-1.05,3.36-.06.58.41,1.09,1,1.09.52,0,.94-.4.99-.92Z"/><path d="m20.04,9.08c.12-1.17.46-1.86.85-2.63.43-.85.9-1.8,1.05-3.36.06-.58-.41-1.09-1-1.09-.52,0-.94.4-.99.92-.12,1.17-.46,1.86-.85,2.63-.43.85-.9,1.8-1.05,3.36-.06.58.41,1.09,1,1.09.52,0,.94-.4.99-.92Z"/><path d="m21,12c-.55,0-1,.45-1,1v2c-.51,0-.72-.13-1.07-.35-.44-.27-1.04-.65-2.13-.65s-1.69.38-2.13.65c-.35.22-.56.35-1.07.35s-.72-.13-1.07-.35c-.44-.28-1.04-.65-2.13-.65s-1.69.38-2.13.65c-.35.22-.56.35-1.07.35s-.72-.13-1.07-.35c-.44-.28-1.04-.65-2.13-.65v-1c0-.55-.45-1-1-1s-1,.45-1,1v5c0,2.21,1.79,4,4,4h12c2.21,0,4-1.79,4-4v-5c0-.55-.45-1-1-1Z"/></svg>