<svg xmlns="http://www.w3.org/2000/svg" viewBox="0 0 24 24" width="24" height="24"><path d="m13.06,10.65s-.01,0-.02-.01c.1-.45.4-.86.89-1.13,1.69-.93,2.46-2.88,1.88-4.76-.37-1.21-1.35-2.19-2.56-2.56-1.26-.39-2.58-.18-3.62.59-1.02.75-1.63,1.96-1.63,3.22,0,.55.45,1,1,1s1-.45,1-1c0-.64.3-1.23.81-1.61.53-.39,1.18-.49,1.84-.29.58.18,1.06.66,1.24,1.24.35,1.12-.22,2.02-.93,2.41-1.1.61-1.8,1.62-1.94,2.82-.01.01-.03.02-.05.03l-7.7,6.9c-.62.56-.83,1.42-.53,2.2s1.03,1.29,1.87,1.29h14.77c.84,0,1.57-.5,1.87-1.29.3-.78.09-1.65-.53-2.2l-7.66-6.86Zm-8.45,8.35l7.39-6.62,7.39,6.62H4.61Z"/></svg>