<svg xmlns="http://www.w3.org/2000/svg" viewBox="0 0 24 24" width="24" height="24"><path d="m20,9.8c-.1-4.53-3.64-7.8-8.5-7.8S2.01,5.24,2.01,10.67c0,2.34.74,4.36,2.2,6.01.36.41.79,1.07.79,1.91v2.41c0,.55.45,1,1,1h8c.55,0,1-.45,1-1v-1h2c1.1,0,2-.9,2-2v-3h1.26c.5,0,.96-.25,1.24-.66.28-.41.33-.94.15-1.4l-1.66-3.14Zm-5.18,2.02c-.31.69-1.01,1.18-1.82,1.18-.16,0-.31-.02-.46-.06-.45.64-1.19,1.06-2.04,1.06s-1.58-.42-2.04-1.06c-.15.04-.3.06-.46.06-1.1,0-2-.9-2-2,0-.37.11-.7.28-1-.17-.3-.28-.63-.28-1,0-1.1.9-2,2-2,.09,0,.18.02.26.03.34-.61.99-1.03,1.74-1.03.44,0,.84.15,1.17.39.39-.24.84-.39,1.33-.39,1.3,0,2.36,1,2.48,2.26.61.34,1.02.99,1.02,1.74,0,.81-.49,1.51-1.18,1.82Z"/></svg>