<svg xmlns="http://www.w3.org/2000/svg" viewBox="0 0 24 24" width="24" height="24"><path d="m19,4H5c-2.21,0-4,1.79-4,4v8c0,2.21,1.79,4,4,4h14c2.21,0,4-1.79,4-4v-8c0-2.21-1.79-4-4-4Zm-5.5,3h1c.28,0,.5.22.5.5v1c0,.28-.22.5-.5.5h-1c-.28,0-.5-.22-.5-.5v-1c0-.28.22-.5.5-.5Zm0,4h1c.28,0,.5.22.5.5v1c0,.28-.22.5-.5.5h-1c-.28,0-.5-.22-.5-.5v-1c0-.28.22-.5.5-.5Zm-4-4h1c.28,0,.5.22.5.5v1c0,.28-.22.5-.5.5h-1c-.28,0-.5-.22-.5-.5v-1c0-.28.22-.5.5-.5Zm0,4h1c.28,0,.5.22.5.5v1c0,.28-.22.5-.5.5h-1c-.28,0-.5-.22-.5-.5v-1c0-.28.22-.5.5-.5Zm-4-4h1c.28,0,.5.22.5.5v1c0,.28-.22.5-.5.5h-1c-.28,0-.5-.22-.5-.5v-1c0-.28.22-.5.5-.5Zm0,4h1c.28,0,.5.22.5.5v1c0,.28-.22.5-.5.5h-1c-.28,0-.5-.22-.5-.5v-1c0-.28.22-.5.5-.5Zm11,6H7.5c-.28,0-.5-.22-.5-.5v-1c0-.28.22-.5.5-.5h9c.28,0,.5.22.5.5v1c0,.28-.22.5-.5.5Zm2-4h-1c-.28,0-.5-.22-.5-.5v-1c0-.28.22-.5.5-.5h1c.28,0,.5.22.5.5v1c0,.28-.22.5-.5.5Zm0-4h-1c-.28,0-.5-.22-.5-.5v-1c0-.28.22-.5.5-.5h1c.28,0,.5.22.5.5v1c0,.28-.22.5-.5.5Z"/></svg>