<svg xmlns="http://www.w3.org/2000/svg" viewBox="0 0 24 24" width="24" height="24"><path d="m21,4h-1v-1c0-.55-.45-1-1-1s-1,.45-1,1v1h-1c-.55,0-1,.45-1,1s.45,1,1,1h1v1c0,.55.45,1,1,1s1-.45,1-1v-1h1c.55,0,1-.45,1-1s-.45-1-1-1Z"/><path d="m4.34,14.29l5.87,2.93c.56.28,1.17.42,1.79.42s1.23-.14,1.79-.42l5.87-2.93c.68-.34,1.11-1.03,1.11-1.79s-.42-1.45-1.11-1.79l-5.87-2.93c-1.12-.56-2.46-.56-3.58,0l-5.87,2.93c-.68.34-1.11,1.03-1.11,1.79s.42,1.45,1.11,1.79Z"/><path d="m4.34,18.29l5.87,2.93c.56.28,1.17.42,1.79.42s1.23-.14,1.79-.42l5.87-2.93c.68-.34,1.11-1.03,1.11-1.79,0-.17-.03-.34-.07-.5-.05.03-.09.06-.14.08l-5.87,2.93c-.83.41-1.75.63-2.68.63s-1.86-.22-2.68-.63l-5.87-2.93s-.09-.05-.14-.08c-.04.16-.07.33-.07.5,0,.76.42,1.45,1.11,1.79Z"/></svg>