<svg xmlns="http://www.w3.org/2000/svg" width="24" height="24" viewBox="0 0 24 24"><path d="M12 2c-.55 0-1 .45-1 1v3c0 .55.45 1 1 1s1-.45 1-1V3c0-.55-.45-1-1-1M12 17c-.55 0-1 .45-1 1v3c0 .55.45 1 1 1s1-.45 1-1v-3c0-.55-.45-1-1-1M21 11h-3c-.55 0-1 .45-1 1s.45 1 1 1h3c.55 0 1-.45 1-1s-.45-1-1-1M7 12c0-.55-.45-1-1-1H3c-.55 0-1 .45-1 1s.45 1 1 1h3c.55 0 1-.45 1-1M16.24 8.76c.26 0 .51-.1.71-.29l2.12-2.12a.996.996 0 1 0-1.41-1.41l-2.12 2.12a.996.996 0 0 0 .71 1.7ZM7.05 15.54l-2.12 2.12a.996.996 0 0 0 .71 1.7c.26 0 .51-.1.71-.29l2.12-2.12a.996.996 0 1 0-1.41-1.41ZM16.95 15.54a.996.996 0 1 0-1.41 1.41l2.12 2.12c.2.2.45.29.71.29s.51-.1.71-.29a.996.996 0 0 0 0-1.41l-2.12-2.12ZM6.34 4.93a.996.996 0 1 0-1.41 1.41l2.12 2.12c.2.2.45.29.71.29s.51-.1.71-.29a.996.996 0 0 0 0-1.41L6.35 4.93Z"/></svg>