<svg xmlns="http://www.w3.org/2000/svg" viewBox="0 0 24 24" width="24" height="24"><path d="m11.79,9.28l-6.89-3.45c-.63-.31-1.35-.28-1.95.09-.59.37-.95,1-.95,1.7v6.53c0,1.52.85,2.9,2.21,3.58l6.89,3.45c.29.14.59.21.9.21.36,0,.73-.1,1.05-.3.59-.37.95-1,.95-1.7v-6.53c0-1.52-.85-2.9-2.21-3.58Z"/><path d="m15.79,7.28l-7.45-3.72c-.49-.25-1.09-.05-1.34.45h0c-.25.49-.05,1.09.45,1.34l7.45,3.72c.68.34,1.11,1.03,1.11,1.79v7.15c0,.55.45,1,1,1s1-.45,1-1v-7.15c0-1.51-.86-2.9-2.21-3.58Z"/><path d="m19.79,5.28l-7.45-3.72c-.49-.25-1.09-.05-1.34.45h0c-.25.49-.05,1.09.45,1.34l7.45,3.72c.68.34,1.11,1.03,1.11,1.79v7.15c0,.55.45,1,1,1s1-.45,1-1v-7.15c0-1.51-.86-2.9-2.21-3.58Z"/></svg>