<svg xmlns="http://www.w3.org/2000/svg" viewBox="0 0 24 24" width="24" height="24"><path d="m5,13h6c.55,0,1-.45,1-1s-.45-1-1-1h-6c-.55,0-1,.45-1,1s.45,1,1,1Z"/><path d="m5,8h14c.55,0,1-.45,1-1s-.45-1-1-1H5c-.55,0-1,.45-1,1s.45,1,1,1Z"/><path d="m5,18h6c.55,0,1-.45,1-1s-.45-1-1-1h-6c-.55,0-1,.45-1,1s.45,1,1,1Z"/><path d="m21.71,13.29c-.39-.39-1.02-.39-1.41,0l-2.29,2.29-2.29-2.29c-.39-.39-1.02-.39-1.41,0s-.39,1.02,0,1.41l2.29,2.29-2.29,2.29c-.39.39-.39,1.02,0,1.41.2.2.45.29.71.29s.51-.1.71-.29l2.29-2.29,2.29,2.29c.2.2.45.29.71.29s.51-.1.71-.29c.39-.39.39-1.02,0-1.41l-2.29-2.29,2.29-2.29c.39-.39.39-1.02,0-1.41Z"/></svg>