<svg xmlns="http://www.w3.org/2000/svg" viewBox="0 0 24 24" width="24" height="24"><path d="m5.5,10h-2c-.28,0-.5.22-.5.5s.22.5.5.5h1.5v.5h-1.5c-.28,0-.5.22-.5.5v1.5c0,.28.22.5.5.5h2c.28,0,.5-.22.5-.5s-.22-.5-.5-.5h-1.5v-.5h1.5c.28,0,.5-.22.5-.5v-1.5c0-.28-.22-.5-.5-.5Z"/><path d="m5.5,15h-2c-.28,0-.5.22-.5.5s.22.5.5.5h1.5v.5h-1.5c-.28,0-.5.22-.5.5s.22.5.5.5h1.5v.5h-1.5c-.28,0-.5.22-.5.5s.22.5.5.5h2c.28,0,.5-.22.5-.5v-3c0-.28-.22-.5-.5-.5Z"/><path d="m5.5,5h-1c-.28,0-.5.22-.5.5s.22.5.5.5h.5v2.5c0,.28.22.5.5.5s.5-.22.5-.5v-3c0-.28-.22-.5-.5-.5Z"/><path d="m20,11h-11c-.55,0-1,.45-1,1s.45,1,1,1h11c.55,0,1-.45,1-1s-.45-1-1-1Z"/><path d="m20,6h-11c-.55,0-1,.45-1,1s.45,1,1,1h11c.55,0,1-.45,1-1s-.45-1-1-1Z"/><path d="m20,16h-11c-.55,0-1,.45-1,1s.45,1,1,1h11c.55,0,1-.45,1-1s-.45-1-1-1Z"/></svg>