<svg xmlns="http://www.w3.org/2000/svg" width="24" height="24" viewBox="0 0 24 24"><path d="M12 8c-3.31 0-6 2.69-6 6 0 1.91.88 2.93 1.72 3.93.32.37.65.76.95 1.21.18.27.31.57.4.86H9c-.55 0-1 .45-1 1s.45 1 1 1h6c.55 0 1-.45 1-1s-.45-1-1-1h-.07c.1-.29.22-.59.4-.86.3-.44.62-.83.94-1.2.85-1 1.73-2.04 1.73-3.94 0-3.31-2.69-6-6-6M11 3.5V5c0 .55.45 1 1 1s1-.45 1-1V3.5c0-.55-.45-1-1-1s-1 .45-1 1M3.55 7.83A1.001 1.001 0 1 0 2.44 9.5l1 .67c.17.11.36.17.55.17.32 0 .64-.16.83-.45.31-.46.18-1.08-.28-1.39l-1-.67ZM7.33 7c.19 0 .38-.05.55-.17.46-.31.58-.93.28-1.39l-.67-1a1.01 1.01 0 0 0-1.39-.28c-.46.31-.58.93-.28 1.39l.67 1c.19.29.51.45.83.45ZM20.45 7.83l-1 .67c-.46.31-.58.93-.28 1.39.19.29.51.45.83.45.19 0 .38-.05.55-.17l1-.67a1.001 1.001 0 1 0-1.11-1.67ZM16.5 4.45l-.67 1c-.31.46-.18 1.08.28 1.39.17.11.36.17.55.17.32 0 .64-.16.83-.45l.67-1a1.001 1.001 0 1 0-1.67-1.11Z"/></svg>