<svg xmlns="http://www.w3.org/2000/svg" viewBox="0 0 24 24" width="24" height="24"><path d="m21.33,2.53c-.37-.14-.79-.05-1.07.22-.08.07-1.86,1.77-4.84.27-2.05-1.03-5.6-1.64-8.88,0C2.29,5.15.77,10.48,3.03,15.21c.62-1.74,1.51-3.2,2.68-4.37,1.79-1.79,3.87-2.45,5.14-2.69.34-.06.65.06.87.29-1.19.37-2.67,1.08-4,2.4-2.3,2.29-3.54,5.71-3.7,10.16-.02.55.43,1,.98,1h.05c.53,0,.95-.43.97-.96.03-.78.1-1.49.2-2.16.66.41,1.38.71,2.16.89.66.16,1.32.22,1.97.22,2.43,0,4.64-.96,5.72-1.77,1.82-1.37,3.32-2.67,4.8-5.89,1.4-3.07,1.12-8.7,1.1-8.94-.02-.39-.27-.73-.64-.87Z"/></svg>