<svg xmlns="http://www.w3.org/2000/svg" viewBox="0 0 24 24" width="24" height="24"><path d="m19.91,8.25l-5.97-3.32c-1.22-.68-2.67-.68-3.89,0l-5.97,3.32c-.63.35-1.03,1.02-1.03,1.75s.39,1.4,1.03,1.75l5.97,3.32c.61.34,1.28.51,1.94.51s1.33-.17,1.94-.51l5.97-3.32c.63-.35,1.03-1.02,1.03-1.75s-.39-1.4-1.03-1.75Z"/><path d="m14.91,16.81c-.89.5-1.9.76-2.91.76s-2.02-.26-2.91-.76l-5.55-3.08c-.3.35-.48.8-.48,1.27,0,.73.39,1.4,1.03,1.75l5.97,3.32c.61.34,1.28.51,1.94.51s1.33-.17,1.94-.51l5.97-3.32c.63-.35,1.03-1.02,1.03-1.75,0-.48-.18-.92-.48-1.27l-5.55,3.08Z"/></svg>