<svg xmlns="http://www.w3.org/2000/svg" viewBox="0 0 24 24" width="24" height="24"><rect x="6" y="2" width="12" height="20" rx="3.5" ry="3.5"/><path d="m4.5,5h-1c-.28,0-.5.22-.5.5h-.5c-.28,0-.5.22-.5.5s.22.5.5.5h.5c0,.28.22.5.5.5h1c.28,0,.5-.22.5-.5v-1c0-.28-.22-.5-.5-.5Z"/><path d="m4.5,9h-1c-.28,0-.5.22-.5.5h-.5c-.28,0-.5.22-.5.5s.22.5.5.5h.5c0,.28.22.5.5.5h1c.28,0,.5-.22.5-.5v-1c0-.28-.22-.5-.5-.5Z"/><path d="m4.5,13h-1c-.28,0-.5.22-.5.5h-.5c-.28,0-.5.22-.5.5s.22.5.5.5h.5c0,.28.22.5.5.5h1c.28,0,.5-.22.5-.5v-1c0-.28-.22-.5-.5-.5Z"/><path d="m4.5,17h-1c-.28,0-.5.22-.5.5h-.5c-.28,0-.5.22-.5.5s.22.5.5.5h.5c0,.28.22.5.5.5h1c.28,0,.5-.22.5-.5v-1c0-.28-.22-.5-.5-.5Z"/><path d="m21.5,17.5h-.5c0-.28-.22-.5-.5-.5h-1c-.28,0-.5.22-.5.5v1c0,.28.22.5.5.5h1c.28,0,.5-.22.5-.5h.5c.28,0,.5-.22.5-.5s-.22-.5-.5-.5Z"/><path d="m21.5,13.5h-.5c0-.28-.22-.5-.5-.5h-1c-.28,0-.5.22-.5.5v1c0,.28.22.5.5.5h1c.28,0,.5-.22.5-.5h.5c.28,0,.5-.22.5-.5s-.22-.5-.5-.5Z"/><path d="m21.5,9.5h-.5c0-.28-.22-.5-.5-.5h-1c-.28,0-.5.22-.5.5v1c0,.28.22.5.5.5h1c.28,0,.5-.22.5-.5h.5c.28,0,.5-.22.5-.5s-.22-.5-.5-.5Z"/><path d="m21.5,5.5h-.5c0-.28-.22-.5-.5-.5h-1c-.28,0-.5.22-.5.5v1c0,.28.22.5.5.5h1c.28,0,.5-.22.5-.5h.5c.28,0,.5-.22.5-.5s-.22-.5-.5-.5Z"/></svg>