<svg xmlns="http://www.w3.org/2000/svg" viewBox="0 0 24 24" width="24" height="24"><path d="m7,17.48v3.52c0,.35.18.67.47.85.29.18.66.2.97.04l3.55-1.78,3.55,1.78c.14.07.29.11.45.11.18,0,.37-.05.53-.15.29-.18.47-.5.47-.85v-3.52c-1.43.96-3.15,1.52-5,1.52s-3.57-.56-5-1.52Z"/><path d="m12,2c-4.41,0-8,3.59-8,8s3.59,8,8,8,8-3.59,8-8-3.59-8-8-8Zm3.14,7.34l-1.29,1.26c-.06.06-.09.14-.07.22l.31,1.78c.04.2-.18.36-.36.26l-1.6-.84c-.07-.04-.16-.04-.23,0l-1.6.84c-.18.1-.4-.06-.36-.26l.31-1.78c.01-.08-.01-.16-.07-.22l-1.29-1.26c-.15-.14-.07-.4.14-.43l1.79-.26c.08-.01.15-.06.19-.14l.8-1.62c.09-.19.36-.19.45,0l.8,1.62c.04.07.11.12.19.14l1.79.26c.21.03.29.28.14.43Z"/></svg>