<svg xmlns="http://www.w3.org/2000/svg" viewBox="0 0 24 24" width="24" height="24"><path d="m20.26,14.47s-.07-.04-.1-.05c-.5-.27-1.07-.42-1.66-.42-.02,0-.04,0-.06,0l-2.19-5.01h.76c.55,0,1-.45,1-1s-.45-1-1-1h-1.63l-.09-.2c-.48-1.09-1.56-1.8-2.75-1.8h-.53c-.55,0-1,.45-1,1s.45,1,1,1h.53c.4,0,.76.24.92.6l1.05,2.4h-3.26c-.71,0-1.39.3-1.87.84l-1.95,2.18-2.28-2.28c-.47-.47-1.1-.73-1.77-.73h-.54c-.55,0-1,.45-1,1s.45,1,1,1h.54c.13,0,.26.05.35.15l1.87,1.87s-.06-.01-.1-.01c-1.11,0-2.13.51-2.79,1.38-.3.39-.53.87-.65,1.43-.04.22-.07.45-.07.69,0,1.93,1.57,3.5,3.5,3.5s3.5-1.57,3.5-3.5c0-.03,0-.06,0-.1l.86.86c.47.47,1.1.73,1.77.73h.79c.63,0,1.24-.24,1.7-.67l.89-.82c0,1.93,1.57,3.49,3.5,3.49s3.5-1.57,3.5-3.5c0-1.24-.67-2.4-1.74-3.03Zm-14.76,4.53c-.83,0-1.5-.67-1.5-1.5,0-.11.01-.21.03-.29.05-.23.14-.45.27-.61.29-.38.73-.6,1.2-.6.26,0,.52.07.74.19.02.01.04.02.07.03.35.23.59.57.67.95.02.1.03.21.03.32,0,.83-.67,1.5-1.5,1.5Zm13,0c-.83,0-1.5-.67-1.5-1.5,0-.32.11-.64.3-.9.29-.38.73-.6,1.2-.6.26,0,.52.07.74.19.02.01.04.02.07.04.43.28.7.76.7,1.27,0,.83-.67,1.5-1.5,1.5Z"/></svg>