<svg xmlns="http://www.w3.org/2000/svg" width="24" height="24" viewBox="0 0 24 24"><path d="M18 3H6C3.79 3 2 4.79 2 7v8c0 2.21 1.79 4 4 4h1v1.82c0 .7.4 1.31 1.04 1.6.23.1.48.16.72.16.42 0 .83-.16 1.16-.45l3.46-3.12H18c2.21 0 4-1.79 4-4V7c0-2.21-1.79-4-4-4m-4.21 8.21L13 12l-2.85 2.85a.5.5 0 0 1-.35.15H8.51c-.28 0-.5-.22-.5-.5v-1.29c0-.13.05-.26.15-.35l2.85-2.85.79-.79c.2-.2.51-.2.71 0l1.29 1.29c.2.2.2.51 0 .71ZM15.2 9.8c-.2.2-.51.2-.71 0L13.2 8.51c-.2-.2-.2-.51 0-.71.44-.44 1.15-.44 1.59 0l.41.41c.44.44.44 1.15 0 1.59"/></svg>