<svg xmlns="http://www.w3.org/2000/svg" viewBox="0 0 24 24" width="24" height="24"><path d="m12,3C6.49,3,2,6.59,2,11c0,2.91,1.9,5.51,5,6.93v2.26c0,.71.42,1.34,1.08,1.62.22.09.45.13.67.13.45,0,.9-.18,1.24-.51l2.43-2.43c5.32-.18,9.58-3.69,9.58-7.99S17.51,3,12,3Zm1.79,8.21l-.79.79-2.85,2.85c-.09.09-.22.15-.35.15h-1.29c-.28,0-.5-.22-.5-.5v-1.29c0-.13.05-.26.15-.35l2.85-2.85.79-.79c.2-.2.51-.2.71,0l1.29,1.29c.2.2.2.51,0,.71Zm1.41-1.41c-.2.2-.51.2-.71,0l-1.29-1.29c-.2-.2-.2-.51,0-.71h0c.44-.44,1.15-.44,1.59,0l.41.41c.44.44.44,1.15,0,1.59Z"/></svg>