<svg xmlns="http://www.w3.org/2000/svg" viewBox="0 0 24 24" width="24" height="24"><path d="m7,4h10c.55,0,1-.45,1-1s-.45-1-1-1H7c-.55,0-1,.45-1,1s.45,1,1,1Z"/><path d="m17,6H7c-2.21,0-4,1.79-4,4v8c0,2.21,1.79,4,4,4h10c2.21,0,4-1.79,4-4v-8c0-2.21-1.79-4-4-4Zm-.5,11.25c0,.96-.78,1.75-1.75,1.75s-1.75-.79-1.75-1.75.78-1.75,1.75-1.75c.27,0,.52.07.75.18v-4.33c0-.25-.18-.45-.42-.49l-4-.67c-.15-.03-.29.01-.41.11-.11.1-.18.23-.18.38v5.49h0s0,.05,0,.08c0,.96-.78,1.75-1.75,1.75s-1.75-.79-1.75-1.75.78-1.75,1.75-1.75c.27,0,.52.07.75.18v-3.99c0-.44.19-.86.53-1.15.34-.29.78-.41,1.22-.33l4,.67c.73.12,1.25.74,1.25,1.48v5.9Z"/></svg>