<svg xmlns="http://www.w3.org/2000/svg" width="24" height="24" viewBox="0 0 24 24"><path d="M6 19h1v1.82c0 .7.4 1.31 1.04 1.6.23.1.48.15.72.15.42 0 .83-.15 1.16-.45L13.38 19H18c2.21 0 4-1.79 4-4V7c0-2.21-1.79-4-4-4H6C3.79 3 2 4.79 2 7v8c0 2.21 1.79 4 4 4m3.29-9.29A.996.996 0 1 1 10.7 8.3l1.29 1.29 1.29-1.29a.996.996 0 1 1 1.41 1.41L13.4 11l1.29 1.29a.996.996 0 0 1-.71 1.7c-.26 0-.51-.1-.71-.29l-1.29-1.29-1.29 1.29c-.2.2-.45.29-.71.29s-.51-.1-.71-.29a.996.996 0 0 1 0-1.41L10.56 11 9.27 9.71Z"/></svg>