<svg xmlns="http://www.w3.org/2000/svg" width="24" height="24" viewBox="0 0 24 24"><path d="M6 19h1v1.82c0 .7.4 1.31 1.04 1.6.23.1.48.16.72.16.42 0 .83-.16 1.16-.45l3.46-3.12H18c2.21 0 4-1.79 4-4V7c0-2.21-1.79-4-4-4H6C3.79 3 2 4.79 2 7v8c0 2.21 1.79 4 4 4m7.54-9.79a.996.996 0 1 1 1.41-1.41l2.5 2.5c.39.39.39 1.02 0 1.41l-2.5 2.5c-.2.2-.45.29-.71.29s-.51-.1-.71-.29a.996.996 0 0 1 0-1.41l1.79-1.79-1.79-1.79Zm-7 1.09 2.5-2.5a.996.996 0 1 1 1.41 1.41L8.66 11l1.79 1.79a.996.996 0 0 1-.71 1.7c-.26 0-.51-.1-.71-.29l-2.5-2.5a.996.996 0 0 1 0-1.41Z"/></svg>