<svg xmlns="http://www.w3.org/2000/svg" viewBox="0 0 24 24" width="24" height="24"><path d="m20,7.56v6.89c1.19-.69,2-1.97,2-3.44s-.81-2.75-2-3.44Z"/><path d="m2,9.5v4c0,1.38,1.12,2.5,2.5,2.5h.63c.29,0,.58.03.87.04v4.96c0,.55.45,1,1,1s1-.45,1-1V6.48c-1.14.33-2.31.52-3.5.52-1.38,0-2.5,1.12-2.5,2.5Z"/><path d="m17.14,2.77c-.54-.32-1.19-.33-1.74-.02l-4.83,2.68c-.19.1-.38.18-.57.27v11.3c.07.03.14.05.21.08l5.33,2.37c.23.1.47.15.71.15.33,0,.66-.1.95-.28.5-.32.8-.87.8-1.47V4.27c0-.63-.32-1.19-.86-1.51Z"/></svg>