<svg xmlns="http://www.w3.org/2000/svg" viewBox="0 0 24 24" width="24" height="24"><path d="m21,3c-.55,0-1,.45-1,1,0,4.07-3.06,7.44-7,7.93v-1.01c3.39-.49,6-3.4,6-6.92,0-.55-.45-1-1-1s-1,.45-1,1c0,2.41-1.72,4.43-4,4.9v-1.04c1.72-.45,3-2,3-3.86,0-.55-.45-1-1-1s-1,.45-1,1c0,.74-.41,1.37-1,1.72v-1.72c0-.55-.45-1-1-1s-1,.45-1,1v1.72c-.59-.35-1-.98-1-1.72,0-.55-.45-1-1-1s-1,.45-1,1c0,1.86,1.28,3.41,3,3.86v1.04c-2.28-.46-4-2.48-4-4.9,0-.55-.45-1-1-1s-1,.45-1,1c0,3.52,2.61,6.43,6,6.92v1.01c-3.94-.49-7-3.86-7-7.93,0-.55-.45-1-1-1s-1,.45-1,1c0,5.18,3.95,9.45,9,9.95v5.05h-3c-.55,0-1,.45-1,1s.45,1,1,1h8c.55,0,1-.45,1-1s-.45-1-1-1h-3v-5.05c5.05-.5,9-4.77,9-9.95,0-.55-.45-1-1-1Z"/></svg>