<svg xmlns="http://www.w3.org/2000/svg" width="24" height="24" viewBox="0 0 24 24"><path d="M18 3H6C3.79 3 2 4.79 2 7v8c0 2.21 1.79 4 4 4h1v1.82c0 .7.4 1.31 1.04 1.6.23.1.48.16.72.16.42 0 .83-.16 1.16-.45l3.46-3.12H18c2.21 0 4-1.79 4-4V7c0-2.21-1.79-4-4-4M7 9h1c.55 0 1 .45 1 1s-.45 1-1 1H7c-.55 0-1-.45-1-1s.45-1 1-1m5 6H7c-.55 0-1-.45-1-1s.45-1 1-1h5c.55 0 1 .45 1 1s-.45 1-1 1m5 0h-1c-.55 0-1-.45-1-1s.45-1 1-1h1c.55 0 1 .45 1 1s-.45 1-1 1m0-4h-5c-.55 0-1-.45-1-1s.45-1 1-1h5c.55 0 1 .45 1 1s-.45 1-1 1"/></svg>