<svg xmlns="http://www.w3.org/2000/svg" viewBox="0 0 24 24" width="24" height="24"><path d="m12,3C6.49,3,2,6.59,2,11c0,2.91,1.9,5.51,5,6.93v2.26c0,.71.42,1.34,1.08,1.62.22.09.45.13.67.13.45,0,.9-.18,1.24-.51l2.43-2.43c5.32-.18,9.58-3.69,9.58-7.99S17.51,3,12,3Zm0,13c-.55,0-1-.45-1-1s.45-1,1-1,1,.45,1,1-.45,1-1,1Zm2.47-4.03c-.4.4-1.01.69-1.54.85,0,.02,0,.04-.01.05-.05.12-.12.23-.21.33-.19.19-.44.29-.71.29s-.52-.1-.71-.29-.29-.44-.29-.71v-.5c0-.56.46-.99,1.03-1,.39,0,.76-.16,1.03-.44.28-.28.44-.66.44-1.06s-.16-.78-.44-1.06c-.57-.57-1.55-.57-2.12,0-.14.14-.25.31-.33.49-.15.37-.56.57-.96.57-.66,0-1.16-.65-.92-1.26.26-.68.74-1.27,1.39-1.7,1.12-.73,2.63-.73,3.75,0,1.04.67,1.62,1.77,1.62,2.96,0,.94-.36,1.81-1.03,2.47Z"/></svg>