<svg xmlns="http://www.w3.org/2000/svg" width="24" height="24" viewBox="0 0 24 24"><path d="M10 6H8V4c0-.55-.45-1-1-1s-1 .45-1 1v2H4c-.55 0-1 .45-1 1s.45 1 1 1h2v2c0 .55.45 1 1 1s1-.45 1-1V8h2c.55 0 1-.45 1-1s-.45-1-1-1M20 6h-6c-.55 0-1 .45-1 1s.45 1 1 1h6c.55 0 1-.45 1-1s-.45-1-1-1M20 14h-6c-.55 0-1 .45-1 1s.45 1 1 1h6c.55 0 1-.45 1-1s-.45-1-1-1M20 18h-6c-.55 0-1 .45-1 1s.45 1 1 1h6c.55 0 1-.45 1-1s-.45-1-1-1M9.96 14.04a.996.996 0 0 0-1.41 0l-1.54 1.54-1.54-1.54a.996.996 0 1 0-1.41 1.41l1.54 1.54-1.54 1.54a.996.996 0 0 0 .71 1.7c.26 0 .51-.1.71-.29l1.54-1.54 1.54 1.54c.2.2.45.29.71.29s.51-.1.71-.29a.996.996 0 0 0 0-1.41l-1.54-1.54 1.54-1.54a.996.996 0 0 0 0-1.41Z"/></svg>