<svg xmlns="http://www.w3.org/2000/svg" viewBox="0 0 24 24" width="24" height="24"><path d="m2.72,19.65c-.32.46-.36,1.05-.1,1.55.26.5.77.8,1.33.8h8.05c4.35,0,8.26-2.81,9.51-6.82,1.06-3.41.4-6.9-1.81-9.56-2.17-2.62-5.5-3.94-8.91-3.54C6.07,2.63,2.3,6.63,2.02,11.39c-.14,2.34.55,4.66,1.91,6.51l-1.21,1.75Zm9.28-2.65c-.55,0-1-.45-1-1s.45-1,1-1,1,.45,1,1-.45,1-1,1Zm-3.27-7.76c.26-.68.74-1.27,1.39-1.7,1.12-.73,2.63-.73,3.75,0,1.04.67,1.62,1.77,1.62,2.96,0,.94-.36,1.81-1.03,2.47-.4.4-1,.68-1.54.85-.05.14-.12.27-.23.38-.19.19-.44.29-.71.29-.13,0-.26-.03-.38-.08s-.23-.12-.33-.21c-.09-.1-.17-.21-.22-.33-.05-.12-.07-.25-.07-.38h0v-.5c0-.56.46-.99,1.03-1,.39,0,.76-.16,1.03-.44.28-.28.44-.66.44-1.06s-.16-.78-.44-1.06c-.57-.57-1.55-.57-2.12,0-.14.14-.25.31-.33.49-.15.37-.56.57-.96.57-.66,0-1.16-.65-.92-1.26Z"/></svg>