<svg xmlns="http://www.w3.org/2000/svg" viewBox="0 0 24 24" width="24" height="24"><path d="m12,7c-.2,0-.4.04-.59.06h-.01s0,0,0,0c-2.47.3-4.39,2.39-4.39,4.94,0,2.76,2.24,5,5,5s5-2.24,5-5-2.24-5-5-5Zm0,8c-1.65,0-3-1.35-3-3,0-1.31.85-2.41,2.02-2.82.02.61.14,1.2.38,1.77.25.6.61,1.13,1.07,1.59.46.46.99.82,1.59,1.07.13.05.26.08.39.12-.54.77-1.43,1.27-2.44,1.27Z"/><path d="m12,19c-.55,0-1,.45-1,1v1c0,.55.45,1,1,1s1-.45,1-1v-1c0-.55-.45-1-1-1Z"/><path d="m12,5c.55,0,1-.45,1-1v-1c0-.55-.45-1-1-1s-1,.45-1,1v1c0,.55.45,1,1,1Z"/><path d="m5,12c0-.55-.45-1-1-1h-1c-.55,0-1,.45-1,1s.45,1,1,1h1c.55,0,1-.45,1-1Z"/><path d="m21,11h-1c-.55,0-1,.45-1,1s.45,1,1,1h1c.55,0,1-.45,1-1s-.45-1-1-1Z"/><path d="m5.64,7.05c.2.2.45.29.71.29s.51-.1.71-.29c.39-.39.39-1.02,0-1.41l-.71-.71c-.39-.39-1.02-.39-1.41,0s-.39,1.02,0,1.41l.71.71Z"/><path d="m18.36,16.95c-.39-.39-1.02-.39-1.41,0s-.39,1.02,0,1.41l.71.71c.2.2.45.29.71.29s.51-.1.71-.29c.39-.39.39-1.02,0-1.41l-.71-.71Z"/><path d="m17.66,7.34c.26,0,.51-.1.71-.29l.71-.71c.39-.39.39-1.02,0-1.41s-1.02-.39-1.41,0l-.71.71c-.39.39-.39,1.02,0,1.41.2.2.45.29.71.29Z"/><path d="m5.64,16.95l-.71.71c-.39.39-.39,1.02,0,1.41.2.2.45.29.71.29s.51-.1.71-.29l.71-.71c.39-.39.39-1.02,0-1.41s-1.02-.39-1.41,0Z"/></svg>