<svg xmlns="http://www.w3.org/2000/svg" width="24" height="24" viewBox="0 0 24 24"><path d="M18 3a3 3 0 1 0 0 6 3 3 0 1 0 0-6"/><path d="M19.74 18.33c.15-.42.26-.86.26-1.33v-6.99c-.61.3-1.28.49-2 .49-2.48 0-4.5-2.02-4.5-4.5 0-.72.19-1.39.49-2H7c-.47 0-.91.1-1.33.26L3.71 2.3A.996.996 0 1 0 2.3 3.71L3.99 5.4 18.6 20.01l1.69 1.69c.2.2.45.29.71.29s.51-.1.71-.29a.996.996 0 0 0 0-1.41l-1.96-1.96ZM3.88 8.12c-.31-.31-.82-.1-.85.34-.02.23-.02.41-.02.54v8c0 2.21 1.79 4 4 4h8c.13 0 .46-.02.54-.02.44-.04.65-.54.34-.85z"/></svg>