<svg xmlns="http://www.w3.org/2000/svg" viewBox="0 0 24 24" width="24" height="24"><path d="m19,8c.55,0,1-.45,1-1s-.45-1-1-1h-1.07l1.86-2.39c.34-.44.26-1.06-.17-1.4-.44-.34-1.06-.26-1.4.17l-2.81,3.61h-5.4c-3.31,0-6,2.69-6,6,0,2.13,1.12,4,2.79,5.06l-2.58,3.32c-.34.44-.26,1.06.17,1.4.18.14.4.21.61.21.3,0,.59-.13.79-.39l2.92-3.76c.42.09.85.14,1.29.14h9c.55,0,1-.45,1-1s-.45-1-1-1h-8.84l2.33-3h6.51c.55,0,1-.45,1-1s-.45-1-1-1h-4.96l2.33-3h2.62Zm-10.96,7.46c-.93-.53-1.62-1.41-1.9-2.46h3.81l-1.92,2.46Zm3.47-4.46h-5.37c.45-1.72,2-3,3.86-3h3.84l-2.33,3Z"/></svg>