<svg xmlns="http://www.w3.org/2000/svg" viewBox="0 0 24 24" width="24" height="24"><path d="m18,3H6c-2.21,0-4,1.79-4,4v10c0,2.21,1.79,4,4,4h12c2.21,0,4-1.79,4-4V7c0-2.21-1.79-4-4-4ZM6.5,7h4c.83,0,1.5.67,1.5,1.5v3c0,.83-.67,1.5-1.5,1.5h-4c-.83,0-1.5-.67-1.5-1.5v-3c0-.83.67-1.5,1.5-1.5Zm12.5,9c0,.55-.45,1-1,1H6c-.55,0-1-.45-1-1h0c0-.55.45-1,1-1h12c.55,0,1,.45,1,1h0Zm-1-3h-3c-.55,0-1-.45-1-1h0c0-.55.45-1,1-1h3c.55,0,1,.45,1,1h0c0,.55-.45,1-1,1Zm0-4h-3c-.55,0-1-.45-1-1h0c0-.55.45-1,1-1h3c.55,0,1,.45,1,1h0c0,.55-.45,1-1,1Z"/></svg>