<svg xmlns="http://www.w3.org/2000/svg" viewBox="0 0 24 24" width="24" height="24"><path d="M16.5 10A1.5 1.5 0 1 0 16.5 13 1.5 1.5 0 1 0 16.5 10z"/><path d="M7.5 10A1.5 1.5 0 1 0 7.5 13 1.5 1.5 0 1 0 7.5 10z"/><path d="m21.31,8.36s0,0,0,0c-.2-.52-.45-1.01-.72-1.48.72-.62,1.18-1.53,1.34-2.76.08-.59-.4-1.12-1-1.12-.5,0-.92.37-.99.87-.07.54-.24,1.05-.55,1.4-1.85-2.05-4.5-3.26-7.4-3.26s-5.55,1.22-7.4,3.26c-.31-.34-.48-.86-.55-1.4-.07-.5-.49-.87-.99-.87-.6,0-1.08.53-1,1.12.16,1.23.62,2.14,1.34,2.76-.28.47-.52.96-.72,1.48,0,0,0,0,0,0-.46,1.15-.69,2.38-.69,3.64,0,.17.02.33.03.5h-.03v8.5c0,.55.45,1,1,1h18c.55,0,1-.45,1-1v-8.5h-.03c0-.17.03-.33.03-.5,0-1.26-.23-2.49-.69-3.64Zm-17.31,3.64c0-.98.17-1.93.52-2.82.04-.07.09-.13.13-.19.04-.05.07-.11.11-.16.05-.07.11-.13.17-.19.04-.05.09-.1.13-.14.06-.06.13-.11.19-.16.05-.04.1-.09.15-.13.07-.05.14-.09.21-.14.05-.03.11-.07.16-.1.08-.04.16-.08.23-.11.06-.03.11-.06.17-.08.09-.03.17-.06.26-.09.03-.01.07-.02.1-.03.2-.03.37-.07.51-.11.15-.02.3-.03.45-.03.94,0,1.82.36,2.48,1.03.66.65,1.02,1.53,1.02,2.47,0,.55.45,1,1,1s1-.45,1-1c0-1.93,1.57-3.5,3.5-3.5.15,0,.3.01.45.03.13.04.31.07.51.11.03,0,.07.02.1.03.09.03.18.05.26.09.06.02.11.05.17.08.08.04.16.07.24.12.06.03.11.07.16.1.07.05.14.09.21.14.05.04.1.08.15.13.06.05.13.11.19.16.05.05.09.1.13.15.06.06.12.12.17.19.04.05.08.11.11.16.05.06.09.13.13.2.34.89.52,1.84.52,2.82,0,4.41-3.59,8-8,8s-8-3.59-8-8Z"/><path d="m12.39,17.52c.44-.58,1.11-1.61,1.11-2.52,0-1.38-.67-2-1.5-2s-1.5.62-1.5,2c0,.92.66,1.94,1.11,2.52.2.26.59.26.79,0Z"/></svg>