<svg xmlns="http://www.w3.org/2000/svg" viewBox="0 0 24 24" width="24" height="24"><path d="m21.55,13.17s-.11-.07-.17-.09c-.06-.03-.12-.05-.19-.06-.12-.03-.26-.03-.39,0-.06.01-.12.03-.18.06-.06.02-.12.05-.18.09-.05.03-.1.08-.15.12l-.12.15c-.04.06-.07.12-.09.18-.03.06-.05.12-.06.19,0,.06-.02.13-.02.19v1c0,.55-.45,1-1,1s-1-.45-1-1c0-1.48.35-2.89.62-4.02.07-.3.14-.59.2-.85.23-1.06.18-2.17-.14-3.21-.34-1.09-.93-2.05-1.69-2.83v-.09h-.1c-1.28-1.25-3.01-2-4.9-2s-3.63.75-4.9,2h-.1v.09c-.76.77-1.35,1.73-1.69,2.83-.32,1.04-.37,2.15-.14,3.21.06.26.13.54.2.85.28,1.13.62,2.54.62,4.02,0,.55-.45,1-1,1s-1-.45-1-1v-1c0-.26-.11-.52-.29-.71-.38-.37-1.05-.37-1.42,0-.09.1-.16.2-.21.33-.06.12-.08.25-.08.38v.66c0,.66.16,1.32.5,1.88,1.07,1.73,3.2,1.75,4.5.94.58-.36,1.16-.64,1.75-.86-1.1,3.32-5.54,3.38-5.75,3.38h0c-.26.01-.52.1-.71.29-.09.1-.16.2-.21.33-.06.12-.08.25-.08.38s.02.26.07.38c.06.12.13.23.22.33.1.09.21.16.33.21s.25.08.38.08c2.16,0,5.82-.9,7.32-3.92.32-.65.95-1.08,1.68-1.08s1.36.44,1.68,1.09c.67,1.35,1.82,2.39,3.43,3.08,1.92.82,3.81.83,3.89.83.27,0,.52-.1.71-.29.09-.1.16-.21.21-.33s.08-.25.08-.38-.03-.26-.08-.38-.12-.23-.21-.33c-.05-.04-.1-.08-.16-.12-.05-.04-.11-.07-.17-.09-.06-.03-.12-.05-.19-.06-.06-.01-.12,0-.19,0v-.02c-.21,0-4.66-.07-5.76-3.38.59.23,1.18.5,1.76.87,1.3.81,3.43.79,4.5-.94.35-.56.5-1.22.5-1.88v-.66c0-.26-.11-.52-.29-.71-.05-.04-.1-.09-.16-.12Zm-11.55-1.17c-.55,0-1-.45-1-1s.45-1,1-1,1,.45,1,1-.45,1-1,1Zm4,0c-.55,0-1-.45-1-1s.45-1,1-1,1,.45,1,1-.45,1-1,1Z"/></svg>