<svg xmlns="http://www.w3.org/2000/svg" viewBox="0 0 24 24" width="24" height="24"><path d="m14.91,13.5l2.59-2.59.09.09c.78.78,2.05.78,2.83,0l.59-.59c.78-.78.78-2.05,0-2.83l-4.59-4.59c-.78-.78-2.05-.78-2.83,0l-.59.59c-.78.78-.78,2.05,0,2.83l.09.09-2.59,2.59L3.71,2.29c-.39-.39-1.02-.39-1.41,0s-.39,1.02,0,1.41l5.71,5.71h0l6.58,6.58h0s5.71,5.71,5.71,5.71c.2.2.45.29.71.29s.51-.1.71-.29c.39-.39.39-1.02,0-1.41l-6.79-6.79Z"/><path d="m6.34,10.59c-.09-.09-.25-.09-.34,0-.78.78-.78,2.05,0,2.83l1.59,1.59-4.56,4.56c-.37.37-.43.97-.1,1.37.38.46,1.07.49,1.48.07l4.59-4.59,1.59,1.59c.39.39.9.58,1.41.58s1.02-.19,1.41-.58c.09-.09.09-.25,0-.34l-7.07-7.07Z"/></svg>