<svg xmlns="http://www.w3.org/2000/svg" viewBox="0 0 24 24" width="24" height="24"><path d="m19.77,3.35c-.97-.97-2.56-.97-3.54,0l-1.73,1.73-1.09-1.09c-.78-.78-2.05-.78-2.83,0l-4.59,4.59c-.39.39-.39,1.02,0,1.41s1.02.39,1.41,0l4.59-4.59,1.09,1.09L4.29,15.29c-.1.1-.17.21-.22.34l-1.35,3.37c-.26.65-.11,1.39.39,1.89.33.33.78.51,1.24.51.22,0,.44-.04.65-.12l3.38-1.35c.13-.05.24-.13.34-.22l11.94-11.94c.47-.47.73-1.1.73-1.77s-.26-1.3-.73-1.77l-.88-.88Zm-.54,3l-1.73,1.73-1.59-1.59,1.73-1.73c.2-.19.51-.19.71,0l.88.88c.13.13.15.28.15.35s-.02.23-.15.35Z"/></svg>