<svg xmlns="http://www.w3.org/2000/svg" viewBox="0 0 24 24" width="24" height="24"><path d="m20,6c.55,0,1-.45,1-1s-.45-1-1-1h-11.79c-.99,0-1.95.29-2.77.84l-1.99,1.33c-.46.31-.58.93-.28,1.39.19.29.51.45.83.45.19,0,.38-.05.55-.17l1.99-1.33c.5-.33,1.07-.5,1.66-.5h.79v6.53c0,2.38-1.32,4.51-3.45,5.58-.49.25-.69.85-.45,1.34.18.35.53.55.9.55.15,0,.3-.03.45-.11,2.81-1.4,4.55-4.23,4.55-7.37v-6.53h4v11.32c0,1.48,1.2,2.68,2.68,2.68,1.23,0,2.31-.84,2.6-2.03l.68-2.72c.13-.54-.19-1.08-.73-1.21-.54-.14-1.08.19-1.21.73l-.68,2.72c-.08.31-.35.52-.67.52-.38,0-.68-.31-.68-.68V6h3Z"/></svg>