<svg xmlns="http://www.w3.org/2000/svg" width="24" height="24" viewBox="0 0 24 24"><path d="M18.01 13.75c.47 0 .91-.18 1.24-.51l.88-.88a4.01 4.01 0 0 0 0-5.66l-.71-.71 1.41-1.41a.996.996 0 1 0-1.41-1.41l-1.41 1.41-.71-.71a4.01 4.01 0 0 0-5.66 0l-.88.88c-.33.33-.51.77-.51 1.24s.18.91.51 1.24l6.01 6.01c.33.33.77.51 1.24.51M13.77 13.06a.996.996 0 0 0-1.41 0l-1.41 1.41-1.41-1.41 1.41-1.41a.996.996 0 1 0-1.41-1.41l-1.41 1.41-.88-.88c-.66-.66-1.81-.66-2.47 0l-.88.88a4.01 4.01 0 0 0 0 5.66l.71.71-1.41 1.41a.996.996 0 0 0 .71 1.7c.26 0 .51-.1.71-.29l1.41-1.41.71.71c.78.78 1.8 1.17 2.83 1.17s2.05-.39 2.83-1.17l.88-.88c.33-.33.51-.77.51-1.24s-.18-.91-.51-1.24l-.88-.88 1.41-1.41a.996.996 0 0 0 0-1.41Z"/></svg>