<svg xmlns="http://www.w3.org/2000/svg" viewBox="0 0 24 24" width="24" height="24"><path d="m17,2H6.5c-1.38,0-2.5,1.12-2.5,2.5v2.5h-1c-.55,0-1,.45-1,1s.45,1,1,1h1v2h-1c-.55,0-1,.45-1,1s.45,1,1,1h1v2h-1c-.55,0-1,.45-1,1s.45,1,1,1h1v2.5c0,1.38,1.12,2.5,2.5,2.5h10.5c2.21,0,4-1.79,4-4V6c0-2.21-1.79-4-4-4Zm-.58,13.7l-.25.36c-.2.28-.53.45-.87.43-1.03-.07-3.25-.43-5.05-2.24-1.8-1.81-2.17-4.03-2.24-5.05-.02-.35.15-.67.43-.87l.36-.25c.46-.32,1.09-.2,1.4.27l.6.9c.27.41.21.96-.15,1.29l-.39.36c-.17.16-.21.41-.09.62.24.4.67,1.08,1.21,1.62.54.54,1.22.97,1.62,1.21.2.12.46.08.62-.09l.36-.39c.33-.36.88-.43,1.29-.15l.9.6c.47.31.59.94.27,1.4Z"/></svg>