<svg xmlns="http://www.w3.org/2000/svg" width="24" height="24" viewBox="0 0 24 24"><path d="m19.92 9.5.73-.74c.47-.47.73-1.1.73-1.77s-.26-1.3-.74-1.77l-1.88-1.88c-.98-.97-2.56-.97-3.54 0l-.72.73 5.42 5.42ZM9.01 13.58v-.08c0-.83.67-1.5 1.5-1.5s1.5.67 1.5 1.5-.67 1.5-1.5 1.5h-.08l-5.81 5.81a1.8 1.8 0 0 0 1.07.05l9.48-2.58c1.08-.3 1.84-1.29 1.84-2.41v-3.23c0-.13.05-.26.15-.35l1.35-1.35-5.41-5.41-1.35 1.35a.5.5 0 0 1-.35.15H8.17c-1.12 0-2.12.76-2.41 1.84l-2.58 9.47c-.1.36-.07.73.06 1.06l5.8-5.8Z"/></svg>