<svg xmlns="http://www.w3.org/2000/svg" viewBox="0 0 24 24" width="24" height="24"><path d="m20.77,14.03l-3.39,2.82c-.72.6-.72,1.7,0,2.3l3.39,2.82c.49.41,1.23.06,1.23-.58v-6.8c0-.64-.74-.98-1.23-.58Z"/><path d="m15,8H3c-.55,0-1,.45-1,1s.45,1,1,1h12c.55,0,1-.45,1-1s-.45-1-1-1Z"/><path d="m15,4H3c-.55,0-1,.45-1,1s.45,1,1,1h12c.55,0,1-.45,1-1s-.45-1-1-1Z"/><path d="m15,12H3c-.55,0-1,.45-1,1s.45,1,1,1h12c.55,0,1-.45,1-1s-.45-1-1-1Z"/><rect x="2" y="16" width="14" height="4" rx="1.25" ry="1.25"/></svg>