<svg xmlns="http://www.w3.org/2000/svg" viewBox="0 0 24 24" width="24" height="24"><path d="m17.32,2.87l-2.36,2.37-.52-.52c-.57-.57-1.32-.88-2.12-.88h0c-.8,0-1.56.31-2.12.88l-1.23,1.24-6.09,6.08c-.57.57-.88,1.32-.88,2.12,0,.8.31,1.56.88,2.12l4.86,4.86c.58.58,1.35.88,2.12.88s1.54-.29,2.12-.88l6.09-6.08h0s0,0,0,0l1.24-1.25c1.17-1.17,1.16-3.07,0-4.24l-.52-.52,2.44-2.44c.51-.51.79-1.19.79-1.91,0-.8-.36-1.56-.98-2.08-1.06-.89-2.69-.78-3.7.24Zm-6.77,16.86c-.39.39-1.02.39-1.41,0l-4.86-4.86c-.19-.19-.29-.44-.29-.71s.1-.52.29-.71l5.38-5.37,6.27,6.27-5.38,5.38Z"/></svg>