<svg xmlns="http://www.w3.org/2000/svg" width="24" height="24" viewBox="0 0 24 24"><path d="M17.81 21.98h.13c.85 0 1.64-.41 2.13-1.12l.87-1.25c.4-.58.55-1.27.42-1.96s-.52-1.28-1.11-1.67l-2.44-1.63a2.58 2.58 0 0 0-3.34.4l-.96 1.04c-.75-.44-2.03-1.26-3.03-2.27s-1.82-2.28-2.27-3.03l1.04-.96c.94-.87 1.11-2.27.4-3.34L8.02 3.75a2.58 2.58 0 0 0-3.63-.69l-1.25.86c-.74.51-1.16 1.36-1.11 2.26.1 1.97.76 6.98 4.79 11.01 4.02 4.02 9.03 4.69 11 4.79ZM14.29 9.71c.2.2.45.29.71.29s.51-.1.71-.29l3-3 1.01 1.01c.47.47 1.28.14 1.28-.53V3.75c0-.41-.34-.75-.75-.75h-3.44c-.67 0-1 .81-.53 1.28l1.01 1.01-3 3a.996.996 0 0 0 0 1.41Z"/></svg>