<svg xmlns="http://www.w3.org/2000/svg" viewBox="0 0 24 24" width="24" height="24"><path d="m19.5,5H4.5c-.28,0-.5.22-.5.5v13.5c0,1.66,1.34,3,3,3h10c1.66,0,3-1.34,3-3V5.5c0-.28-.22-.5-.5-.5Zm-6.5,12.91v.09c0,.55-.45,1-1,1s-1-.45-1-1v-.08c-1.33-.21-2.13-.83-2.56-1.49-.4-.62.06-1.43.79-1.43h.17c.31,0,.58.17.77.41.22.28.72.59,1.82.59,1.38,0,2-.58,2-1,0-.32,0-1-2-1-3.48,0-4-1.88-4-3,0-1.29,1.03-2.58,3-2.91v-.09c0-.55.45-1,1-1s1,.45,1,1v.12c1.07.25,1.74.89,2.09,1.59.3.6-.18,1.29-.84,1.3h-.16c-.34,0-.64-.19-.82-.49-.17-.28-.52-.52-1.26-.52-1.3,0-2,.52-2,1,0,.37,0,1,2,1,3.48,0,4,1.88,4,3,0,1.29-1.03,2.58-3,2.91Z"/><path d="m21,2H3c-.55,0-1,.45-1,1s.45,1,1,1h18c.55,0,1-.45,1-1s-.45-1-1-1Z"/></svg>