<svg xmlns="http://www.w3.org/2000/svg" width="24" height="24" viewBox="0 0 24 24"><path d="M17.81 21.98h.13c.85 0 1.64-.41 2.13-1.12l.87-1.25c.4-.58.55-1.27.42-1.96s-.52-1.28-1.11-1.67l-2.44-1.63a2.58 2.58 0 0 0-3.34.4l-.96 1.04c-.75-.44-2.03-1.26-3.03-2.27s-1.82-2.28-2.27-3.03l1.04-.96c.94-.87 1.11-2.27.4-3.34L8.02 3.75a2.58 2.58 0 0 0-3.63-.69l-1.25.86c-.74.51-1.16 1.36-1.11 2.26.1 1.97.76 6.98 4.79 11.01 4.02 4.02 9.03 4.69 11 4.79ZM11.79 3.16c-.5.35-.55 1.09-.11 1.52.34.34.88.38 1.28.1a4.51 4.51 0 0 1 5.72.53 4.51 4.51 0 0 1 .53 5.72c-.27.4-.24.94.11 1.28.43.43 1.17.39 1.52-.11 1.76-2.53 1.51-6.05-.74-8.3-2.26-2.26-5.77-2.5-8.3-.74Z"/><path d="M16.85 9.85c.51.51 1.4.31 1.62-.38.35-1.08.1-2.32-.76-3.17a3.11 3.11 0 0 0-3.17-.76c-.69.22-.89 1.11-.38 1.62.26.26.64.4.98.29.39-.13.84-.04 1.16.27.31.31.4.76.27 1.16-.12.34.03.73.29.98Z"/></svg>