<svg xmlns="http://www.w3.org/2000/svg" width="24" height="24" viewBox="0 0 24 24"><path d="M12 9a3 3 0 1 0 0 6 3 3 0 1 0 0-6"/><path d="M2.78 15.89c.5 1.19 1.23 2.26 2.14 3.18.17.17.35.32.52.48l-1.17 1.17c-.47.47-.14 1.28.53 1.28h3.44c.41 0 .75-.34.75-.75v-3.44c0-.67-.81-1-1.28-.53l-.85.85c-.18-.15-.36-.31-.52-.48a7.8 7.8 0 0 1-1.71-2.54 8.1 8.1 0 0 1 0-6.23c.4-.95.98-1.81 1.72-2.54.73-.74 1.59-1.31 2.54-1.71.72-.3 1.46-.5 2.23-.58.5-.05.88-.48.88-.99 0-.6-.52-1.07-1.12-1-.95.11-1.88.35-2.77.72-1.19.5-2.26 1.23-3.18 2.14S3.29 6.91 2.79 8.1a10.12 10.12 0 0 0 0 7.79ZM21.21 8.11c-.5-1.19-1.23-2.26-2.14-3.18-.17-.17-.35-.32-.52-.48l1.17-1.17c.47-.47.14-1.28-.53-1.28h-3.44c-.41 0-.75.34-.75.75v3.44c0 .67.81 1 1.28.53l.85-.85c.18.15.36.31.52.48.74.73 1.31 1.59 1.71 2.54.83 1.97.83 4.26 0 6.23-.4.95-.98 1.81-1.72 2.54-.73.74-1.59 1.31-2.54 1.71-.72.3-1.46.5-2.23.58-.5.05-.88.48-.88.99 0 .6.52 1.07 1.12 1 .95-.11 1.88-.35 2.77-.72 1.19-.5 2.26-1.23 3.18-2.14s1.64-1.99 2.14-3.18c.52-1.23.79-2.54.79-3.89s-.26-2.66-.79-3.89Z"/></svg>