<svg xmlns="http://www.w3.org/2000/svg" width="24" height="24" viewBox="0 0 24 24"><path d="m20.72 4.28-1.17 1.17c-.15-.18-.31-.36-.48-.52-.45-.45-.95-.86-1.48-1.22a9.6 9.6 0 0 0-1.7-.92c-.6-.25-1.24-.45-1.88-.58-1.32-.27-2.71-.27-4.03 0-.64.13-1.27.33-1.88.58a9.96 9.96 0 0 0-4.4 3.62 9.6 9.6 0 0 0-.92 1.7c-.25.6-.45 1.24-.58 1.88-.13.66-.2 1.34-.2 2.01s.07 1.35.2 2.01c.13.64.33 1.27.58 1.88a9.96 9.96 0 0 0 3.62 4.4c.53.36 1.1.67 1.7.92s1.24.45 1.88.58c.66.13 1.34.2 2.01.2s1.35-.07 2.01-.2c.64-.13 1.27-.33 1.88-.58a9.96 9.96 0 0 0 4.4-3.62c.36-.53.67-1.1.92-1.7s.45-1.24.58-1.88c.06-.3.11-.61.14-.91.06-.59-.41-1.1-1-1.1-.51 0-.93.39-.99.9-.03.24-.06.48-.11.71a8 8 0 0 1-.47 1.5c-.2.48-.45.93-.74 1.36-.28.42-.61.82-.98 1.19-.36.36-.76.69-1.18.98-.43.29-.88.54-1.36.74s-.99.36-1.5.47a8 8 0 0 1-4.73-.47c-.48-.2-.93-.45-1.36-.74-.42-.29-.82-.62-1.18-.98s-.69-.76-.98-1.19a7.8 7.8 0 0 1-.74-1.36c-.2-.48-.36-.99-.47-1.5-.11-.53-.16-1.07-.16-1.61a7.85 7.85 0 0 1 .63-3.11c.2-.48.45-.93.74-1.36.29-.42.62-.82.98-1.18s.76-.69 1.18-.98c.43-.29.88-.54 1.36-.74s.99-.36 1.5-.47a8 8 0 0 1 4.73.47c.48.2.93.45 1.36.74.42.29.82.62 1.18.98.17.17.32.34.48.52l-.85.85c-.47.47-.14 1.28.53 1.28h3.44c.41 0 .75-.34.75-.75V4.81c0-.67-.81-1-1.28-.53Z"/><path d="M12.28 14.08c-.19.09-.41.13-.66.13-.29 0-.55-.06-.8-.17-.07-.03-.13-.07-.18-.1a.65.65 0 0 0-.82.09l-.06.06c-.31.3-.25.82.12 1.04q.195.12.42.21c.42.17.88.25 1.37.25.56 0 1.05-.1 1.46-.31s.73-.49.96-.86.35-.78.35-1.25q0-.645-.27-1.17c-.18-.35-.45-.64-.81-.85s-.79-.32-1.31-.32c-.23 0-.42.02-.59.06-.09.02-.16.06-.24.09l.14-1.23h2.04a.66.66 0 1 0 0-1.32h-2.71c-.34 0-.63.26-.66.6l-.24 2.34c-.02.24.06.47.24.63.21.2.53.26.79.15.05-.02.1-.04.16-.06q.3-.09.66-.09c.36 0 .46.04.65.13s.34.22.44.38c.11.17.16.37.16.6a1.04 1.04 0 0 1-.6.98Z"/></svg>