<svg xmlns="http://www.w3.org/2000/svg" width="24" height="24" viewBox="0 0 24 24"><path d="M19.05 6.9c-.25-.13-.53-.19-.8-.19-.36 0-.71.11-1.02.33l-4.96 3.54a1.75 1.75 0 0 0 0 2.84l.73.52 4.23 3.02A1.755 1.755 0 0 0 20 15.53V8.45c0-.66-.36-1.25-.95-1.56Z"/><path d="M12.05 17.1c.59-.3.95-.9.95-1.56v-.37l-1.31-.93c-.72-.52-1.15-1.35-1.15-2.24s.43-1.72 1.15-2.24L13 8.83v-.37c0-.66-.36-1.25-.95-1.56-.25-.13-.53-.19-.8-.19-.36 0-.71.11-1.02.33l-4.96 3.54a1.75 1.75 0 0 0 0 2.84l4.96 3.54c.54.38 1.23.43 1.82.13Z"/></svg>