<svg xmlns="http://www.w3.org/2000/svg" viewBox="0 0 24 24" width="24" height="24"><path d="M12 9A3 3 0 1 0 12 15 3 3 0 1 0 12 9z"/><path d="m8,12c0-1.84,1.25-3.37,2.94-3.84l-2.31-4.01c-.21-.36-.55-.62-.96-.71-.11-.03-.23-.04-.35-.04-.29,0-.57.08-.81.24-1.3.85-2.4,2.01-3.18,3.36-.78,1.35-1.24,2.88-1.32,4.43-.02.4.12.8.41,1.1.29.3.69.47,1.1.47h4.62c-.08-.32-.14-.65-.14-1Z"/><path d="m17.48,3.64c-.24-.16-.52-.24-.81-.24-.12,0-.23.01-.35.04-.4.1-.75.36-.96.71l-2.31,4.01c1.69.47,2.94,2,2.94,3.84,0,.35-.06.68-.14,1h4.62c.41,0,.82-.17,1.1-.47.28-.3.43-.7.41-1.1-.08-1.54-.54-3.08-1.32-4.43-.78-1.35-1.88-2.51-3.18-3.36Z"/><path d="m14.8,14.85c-.72.71-1.71,1.15-2.8,1.15s-2.08-.44-2.8-1.15l-2.31,3.99c-.21.36-.26.79-.14,1.19.12.39.39.72.75.9,2.76,1.4,6.23,1.4,9,0,.36-.18.63-.51.75-.9.12-.4.07-.83-.14-1.19l-2.31-3.99Z"/></svg>