<svg xmlns="http://www.w3.org/2000/svg" width="24" height="24" viewBox="0 0 24 24"><path d="M12 9a3 3 0 1 0 0 6 3 3 0 1 0 0-6"/><path d="m20.72 4.28-1.17 1.17c-.15-.18-.31-.36-.48-.52a9.9 9.9 0 0 0-3.18-2.14 10.12 10.12 0 0 0-7.79 0c-1.19.5-2.26 1.23-3.18 2.14S3.28 6.92 2.78 8.11c-.38.89-.62 1.82-.72 2.77-.07.6.4 1.12 1 1.12.51 0 .93-.38.99-.88.08-.77.28-1.52.58-2.23.4-.95.98-1.81 1.71-2.54.73-.74 1.59-1.31 2.54-1.72 1.97-.83 4.25-.83 6.23 0 .95.4 1.81.98 2.54 1.71.17.17.33.34.48.52l-.85.85c-.47.47-.14 1.28.53 1.28h3.44c.41 0 .75-.34.75-.75V4.8c0-.67-.81-1-1.28-.53ZM3.28 19.72l1.17-1.17c.15.18.31.36.48.52.92.92 1.99 1.64 3.18 2.14 1.23.52 2.54.79 3.89.79s2.66-.26 3.89-.79c1.19-.5 2.26-1.23 3.18-2.14s1.64-1.99 2.14-3.18c.38-.89.62-1.82.72-2.77.07-.6-.4-1.12-1-1.12-.51 0-.93.38-.99.88-.08.77-.28 1.52-.58 2.23-.4.95-.98 1.81-1.71 2.54-.73.74-1.59 1.31-2.54 1.72-1.97.83-4.25.83-6.23 0-.95-.4-1.81-.98-2.54-1.71-.17-.17-.33-.34-.48-.52l.85-.85c.47-.47.14-1.28-.53-1.28H2.74c-.41 0-.75.34-.75.75v3.44c0 .67.81 1 1.28.53Z"/></svg>