<svg xmlns="http://www.w3.org/2000/svg" viewBox="0 0 24 24" width="24" height="24"><path d="m13.27,6.41l-3.05-2.44c-.49-.39-1.22-.04-1.22.59v1.44h-.79c-3.05,0-5.77,2.19-6.16,5.21-.42,3.25,1.79,6.08,4.79,6.68.61.12,1.16-.38,1.16-.99,0-.48-.34-.88-.81-.98-1.94-.4-3.37-2.22-3.17-4.32.2-2.08,2.07-3.6,4.16-3.6h.82v1.44c0,.63.73.98,1.22.59l3.05-2.44c.38-.3.38-.87,0-1.17Z"/><path d="m17.16,6.11c-.61-.12-1.16.38-1.16.99,0,.48.34.88.81.98,1.94.4,3.37,2.22,3.17,4.32-.2,2.08-2.07,3.6-4.16,3.6h-.82v-1.44c0-.63-.73-.98-1.22-.59l-3.05,2.44c-.38.3-.38.87,0,1.17l3.05,2.44c.49.39,1.22.04,1.22-.59v-1.44h.79c3.05,0,5.77-2.19,6.16-5.21.42-3.25-1.79-6.08-4.79-6.68Z"/></svg>