<svg xmlns="http://www.w3.org/2000/svg" width="24" height="24" viewBox="0 0 24 24"><path d="M12 9a3 3 0 1 0 0 6 3 3 0 1 0 0-6"/><path d="M2.75 9h3.44c.67 0 1-.81.53-1.28l-.85-.85c.15-.18.31-.36.48-.52.73-.74 1.59-1.31 2.54-1.71 1.97-.83 4.26-.83 6.23 0 .95.4 1.81.98 2.54 1.72.74.73 1.31 1.59 1.71 2.54.3.72.5 1.46.58 2.23.05.5.48.88.99.88.6 0 1.07-.52 1-1.12-.11-.95-.35-1.88-.72-2.77-.5-1.19-1.23-2.26-2.14-3.18S17.09 3.3 15.9 2.8a10.12 10.12 0 0 0-7.79 0c-1.19.5-2.26 1.23-3.18 2.14-.17.17-.32.35-.48.52L3.28 4.29C2.81 3.82 2 4.15 2 4.82v3.44c0 .41.34.75.75.75ZM21.25 15h-3.44c-.67 0-1 .81-.53 1.28l.85.85c-.15.18-.31.36-.48.52-.73.74-1.59 1.31-2.54 1.71-1.97.83-4.26.83-6.23 0-.95-.4-1.81-.98-2.54-1.72a7.8 7.8 0 0 1-1.71-2.54c-.3-.72-.5-1.46-.58-2.23a.99.99 0 0 0-.99-.88c-.6 0-1.07.52-1 1.12.11.95.35 1.88.72 2.77.5 1.19 1.23 2.26 2.14 3.18S6.91 20.7 8.1 21.2c1.23.52 2.54.79 3.89.79s2.66-.26 3.89-.79c1.19-.5 2.26-1.23 3.18-2.14.17-.17.32-.35.48-.52l1.17 1.17c.47.47 1.28.14 1.28-.53v-3.44c0-.41-.34-.75-.75-.75Z"/></svg>