<svg xmlns="http://www.w3.org/2000/svg" viewBox="0 0 24 24" width="24" height="24"><path d="m12,12c-1.76,0-3.27,1.15-3.8,2.74-.21.62.29,1.26.95,1.26.42,0,.82-.24.95-.63.26-.79,1.02-1.37,1.9-1.37s1.63.57,1.9,1.37c.13.39.54.63.95.63.66,0,1.15-.64.95-1.26-.53-1.59-2.03-2.74-3.8-2.74Z"/><path d="m12,9c-3.48,0-6.38,2.55-6.91,5.88-.09.59.38,1.12.98,1.12h.04c.48,0,.88-.36.97-.84.4-2.36,2.46-4.16,4.93-4.16s4.53,1.8,4.93,4.16c.08.48.48.84.97.84h.04c.59,0,1.07-.53.98-1.12-.54-3.33-3.43-5.88-6.91-5.88Z"/><path d="m12,6c-5.14,0-9.39,3.9-9.94,8.9-.06.59.39,1.1.98,1.1h.03c.49,0,.92-.36.97-.85.43-4.01,3.83-7.15,7.96-7.15s7.53,3.14,7.96,7.15c.05.49.48.85.97.85h.03c.59,0,1.05-.52.98-1.1-.55-5-4.8-8.9-9.94-8.9Z"/></svg>