<svg xmlns="http://www.w3.org/2000/svg" width="24" height="24" viewBox="0 0 24 24"><path d="M5 16c-2 1-2 5-2 5s3 0 5-2zM20.25 2h-2.11c-2.94 0-5.7 1.14-7.78 3.22L8.69 6.89c-1-.19-3.04-.37-5.23.69-.5.25-.86.72-.96 1.28-.09.56.09 1.13.49 1.53l10.7 10.7c.33.33.79.52 1.25.52.07 0 .15 0 .22-.01.53-.07.98-.36 1.25-.82 1.1-1.87.86-4.35.67-5.46l1.69-1.69c2.08-2.08 3.22-4.84 3.22-7.78V3.74c0-.96-.79-1.75-1.75-1.75Zm-2.84 7.41c-.78.78-2.05.78-2.83 0s-.78-2.05 0-2.83 2.05-.78 2.83 0 .78 2.05 0 2.83"/></svg>