<svg xmlns="http://www.w3.org/2000/svg" viewBox="0 0 24 24" width="24" height="24"><path d="m20,13c-.55,0-1,.45-1,1v4c0,1.1-.9,2-2,2H7c-1.1,0-2-.9-2-2V6c0-1.1.9-2,2-2h2c.55,0,1-.45,1-1s-.45-1-1-1h-2c-2.21,0-4,1.79-4,4v12c0,2.21,1.79,4,4,4h10c2.21,0,4-1.79,4-4v-4c0-.55-.45-1-1-1Z"/><path d="M12 10A1 1 0 1 0 12 12 1 1 0 1 0 12 10z"/><path d="m12.8,8.11c.51.14.96.41,1.32.77.36.36.63.82.77,1.32.13.46.5.8.98.8h0c.65,0,1.13-.62.97-1.25-.23-.88-.69-1.66-1.31-2.29s-1.41-1.08-2.29-1.31c-.63-.16-1.25.32-1.25.97h0c0,.48.34.85.8.98Z"/><path d="m12.86,4.05c1.59.2,3.01.92,4.08,2,1.08,1.08,1.8,2.5,2,4.08.06.49.48.86.98.86h0c.6,0,1.07-.53,1-1.12-.25-2.03-1.19-3.86-2.57-5.24-1.38-1.38-3.21-2.32-5.24-2.57-.59-.07-1.12.4-1.12,1h0c0,.5.37.93.86.99Z"/><path d="m9.27,16.21c.09-.14.14-.31.14-.5s-.05-.35-.14-.5c-.09-.14-.22-.26-.38-.34-.16-.08-.35-.12-.57-.12h-.99c-.18,0-.33.15-.33.33v2.58c0,.19.15.34.34.34h.05c.19,0,.34-.15.34-.34v-1h.08l.87,1.2c.06.09.17.14.27.14.28,0,.44-.32.27-.54l-.63-.82c.11-.02.21-.05.31-.09.17-.08.29-.19.39-.33Zm-.7-.19c-.08.07-.19.11-.33.11h-.51v-.81h.52c.14,0,.25.04.33.11.08.08.11.17.11.29,0,.13-.04.23-.12.3Z"/><path d="m9.93,17.69c0,.17.14.31.31.31h.1c.17,0,.31-.14.31-.31v-.96h1.14c.17,0,.31-.14.31-.31s-.14-.31-.31-.31h-1.14v-.73h1.22c.17,0,.31-.14.31-.31s-.14-.31-.31-.31h-1.56c-.21,0-.37.17-.37.37v2.56Z"/><path d="m12.65,15.12v2.52c0,.2.16.36.36.36s.36-.16.36-.36v-2.52c0-.2-.16-.36-.36-.36s-.36.16-.36.36Z"/><path d="m16.52,15.21c-.16-.15-.34-.26-.54-.34-.21-.08-.43-.12-.68-.12h-.93c-.21,0-.37.17-.37.37v2.5c0,.21.17.37.37.37h.94c.24,0,.47-.04.67-.12.21-.08.39-.19.54-.34.15-.14.27-.32.36-.51.08-.2.13-.42.13-.65s-.04-.46-.13-.65c-.08-.2-.2-.37-.36-.51Zm-.37,1.7c-.08.15-.19.26-.34.34-.15.08-.32.12-.52.12h-.57v-1.98h.57c.2,0,.37.04.51.12.15.08.26.19.34.34.08.15.12.32.12.53s-.04.38-.12.53Z"/></svg>