<svg xmlns="http://www.w3.org/2000/svg" viewBox="0 0 24 24" width="24" height="24"><path d="m19.7,3.6c-.75-1-1.95-1.6-3.2-1.6H7.5c-1.25,0-2.45.6-3.2,1.6l-1.8,2.4c-.32.43-.5.96-.5,1.5v.5c0,1.01.39,1.91,1,2.62v7.38c0,2.21,1.79,4,4,4h10c2.21,0,4-1.79,4-4v-7.38c.61-.7,1-1.61,1-2.62v-.5c0-.54-.18-1.07-.5-1.5l-1.8-2.4Zm-9.7,3.52l.78-3.12h2.44l.78,3.12v.88c0,1.1-.9,2-2,2s-2-.9-2-2v-.88Zm-1.97-.37l-.03,1.24c0,1.1-.9,2-2,2s-2-.9-2-2v-.5c0-.11.04-.21.1-.3l1.8-2.4c.38-.5.97-.8,1.6-.8h1.22l-.69,2.76Zm6.97,13.24h-6v-3c0-1.66,1.34-3,3-3s3,1.34,3,3v3Zm5-12c0,1.1-.9,2-2,2s-2-.9-2-2v-1l-.72-3h1.22c.63,0,1.22.3,1.6.8l1.8,2.4c.07.09.1.19.1.3v.5Z"/></svg>