<svg xmlns="http://www.w3.org/2000/svg" viewBox="0 0 24 24" width="24" height="24"><path d="m21.96,3.72c-.16-.53-.7-.83-1.24-.68-.03,0-3.33.96-8.72.96s-8.68-.95-8.72-.96c-.54-.16-1.08.15-1.24.68-.16.53.15,1.08.67,1.24.04.01.31.09.78.2-.29.17-.5.48-.5.84,0,.55.45,1,1,1h.88l-.12,2h-.76c-.55,0-1,.45-1,1s.45,1,1,1h.65l-.59,9.94c-.03.55.39,1.02.94,1.06.02,0,.04,0,.06,0,.53,0,.97-.41,1-.94l.59-10.06h10.69l.63,10.06c.03.53.47.94,1,.94.02,0,.04,0,.06,0,.55-.03.97-.51.94-1.06l-.62-9.94h.65c.55,0,1-.45,1-1s-.45-1-1-1h-.78l-.12-2h.9c.55,0,1-.45,1-1,0-.37-.2-.67-.5-.84.47-.11.74-.19.78-.2.53-.16.83-.71.67-1.24Zm-15.07,3.28h4.12v2h-4.23l.12-2Zm10.33,2h-4.22v-2h4.09l.12,2Z"/></svg>