<svg xmlns="http://www.w3.org/2000/svg" width="24" height="24" viewBox="0 0 24 24"><path d="M20.29 5.71c.2.2.45.29.71.29s.51-.1.71-.29a.996.996 0 0 0 0-1.41l-2-2a.996.996 0 1 0-1.41 1.41l.29.29-1.09 1.09-1.79-1.79-1-1a.996.996 0 1 0-1.41 1.41l.29.29-1.73 1.73c-.2.2-.2.51 0 .71l2.35 2.35a.996.996 0 0 1-.71 1.7c-.26 0-.51-.1-.71-.29l-2.35-2.35c-.2-.2-.51-.2-.71 0l-.88.88c-.2.2-.2.51 0 .71l2.35 2.35a.996.996 0 0 1-.71 1.7c-.26 0-.51-.1-.71-.29l-2.35-2.35c-.2-.2-.51-.2-.71 0l-1.56 1.56c-.75.75-1.17 1.77-1.17 2.83v3.34l-1.71 1.71a.996.996 0 0 0 .71 1.7c.26 0 .51-.1.71-.29l1.71-1.71h3.34c1.06 0 2.08-.42 2.83-1.17l8.41-8.41.29.29c.2.2.45.29.71.29s.51-.1.71-.29a.996.996 0 0 0 0-1.41l-1-1-1.79-1.79L20 5.41l.29.29Z"/></svg>