<svg xmlns="http://www.w3.org/2000/svg" viewBox="0 0 24 24" width="24" height="24"><path d="m4,18.84v2.16c0,.55.45,1,1,1s1-.45,1-1v-2.16c1.44-.43,2.5-1.76,2.5-3.34s-1.06-2.9-2.5-3.34V3c0-.55-.45-1-1-1s-1,.45-1,1v9.16c-1.44.43-2.5,1.76-2.5,3.34s1.06,2.9,2.5,3.34Z"/><path d="m20,12.16V3c0-.55-.45-1-1-1s-1,.45-1,1v9.16c-1.44.43-2.5,1.76-2.5,3.34s1.07,2.92,2.53,3.35c0,.05-.03.1-.03.15v2c0,.55.45,1,1,1s1-.45,1-1v-2c0-.05-.02-.1-.03-.15,1.46-.42,2.53-1.76,2.53-3.35s-1.06-2.9-2.5-3.34Z"/><path d="m12,22c.55,0,1-.45,1-1v-10.16c1.44-.43,2.5-1.76,2.5-3.34s-1.06-2.9-2.5-3.34v-1.16c0-.55-.45-1-1-1s-1,.45-1,1v1.16c-1.44.43-2.5,1.76-2.5,3.34s1.06,2.9,2.5,3.34v10.16c0,.55.45,1,1,1Z"/></svg>