<svg xmlns="http://www.w3.org/2000/svg" width="24" height="24" viewBox="0 0 24 24"><path d="M12 6.99a5.01 5.01 0 1 0 0 10.02 5.01 5.01 0 1 0 0-10.02M12.71 19.29s-.05-.04-.08-.06-.05-.04-.08-.06-.06-.04-.09-.05-.06-.03-.09-.04c-.03-.02-.06-.03-.09-.04s-.06-.02-.09-.02c-.17-.03-.34-.02-.49.03s-.3.13-.42.24c-.09.09-.16.2-.21.32s-.08.25-.08.39c0 .06 0 .13.02.19s.03.13.06.19c.02.06.05.12.09.17s.08.11.12.16c.05.04.1.08.16.12s.11.07.17.09.12.04.19.06.13.02.19.02c.13 0 .26-.03.38-.07s.23-.12.33-.22c.04-.05.08-.1.12-.16s.07-.11.09-.17.04-.12.06-.19.02-.13.02-.19c0-.13-.03-.26-.08-.38s-.12-.23-.21-.33ZM11.08 4.38c.02.06.05.12.09.17s.08.11.12.16c.05.04.1.08.16.12s.11.07.17.09.12.04.19.06.13.02.19.02c.13 0 .26-.03.38-.07s.23-.12.33-.22c.04-.05.08-.1.12-.16s.07-.11.09-.17.04-.12.06-.19S13 4.06 13 4c0-.13-.03-.26-.08-.38s-.12-.23-.21-.33c-.02-.02-.05-.04-.08-.06s-.05-.04-.08-.06-.06-.04-.09-.05-.06-.03-.09-.04c-.03-.02-.06-.03-.09-.04s-.06-.02-.09-.02c-.17-.03-.34-.02-.49.03s-.3.13-.42.24c-.09.09-.16.2-.21.32s-.08.25-.08.39c0 .06 0 .13.02.19s.03.13.06.19ZM3.8 11.02q-.09.015-.18.06-.09.03-.18.09c-.05.03-.1.08-.15.12l-.12.15q-.06.09-.09.18-.045.09-.06.18c0 .07-.02.14-.02.2 0 .27.1.52.29.7.19.2.44.3.71.3s.52-.1.71-.3A.95.95 0 0 0 5 12c0-.06 0-.13-.02-.2 0-.06-.03-.12-.06-.18a.8.8 0 0 0-.09-.18l-.12-.15c-.23-.23-.58-.33-.91-.27M20.38 12.92q.18-.075.33-.21c.19-.19.29-.44.29-.71s-.11-.52-.29-.71c-.05-.04-.1-.09-.16-.12a.6.6 0 0 0-.17-.09.6.6 0 0 0-.19-.06 1 1 0 0 0-.9.27c-.18.19-.29.45-.29.71s.1.51.29.71a.99.99 0 0 0 1.09.21M7.34 6.34c0-.06 0-.13-.02-.19s-.03-.13-.05-.19c-.03-.06-.06-.12-.1-.17l-.12-.15-.07-.07c-.02-.02-.05-.04-.08-.06s-.06-.03-.09-.05-.06-.03-.09-.04c-.03-.02-.06-.03-.09-.04s-.06-.02-.09-.02c-.16-.03-.33-.02-.48.03s-.3.13-.42.25c-.05.04-.09.09-.13.15s-.07.11-.09.17-.04.12-.06.19-.02.13-.02.19c0 .13.03.26.08.38s.13.23.22.33.2.17.32.22.25.07.38.07c.07 0 .13 0 .2-.02s.13-.03.19-.05.12-.06.17-.09.1-.08.15-.12a.986.986 0 0 0 .29-.71ZM18.21 16.82s-.05-.03-.08-.04-.06-.03-.09-.05c-.03 0-.06-.02-.09-.03s-.06-.02-.1-.02c-.09-.02-.19-.02-.29-.02s-.2.03-.29.07c-.06.03-.12.06-.17.1s-.1.08-.15.13c-.05.04-.09.09-.13.15s-.07.11-.1.17c-.02.06-.04.13-.05.2s-.02.13-.02.2c0 .13.02.26.07.38s.12.23.22.32c.09.1.2.17.32.22s.25.08.39.08.26-.03.38-.08.23-.13.32-.22a.995.995 0 0 0 .3-.7c0-.06 0-.13-.02-.2s-.03-.13-.06-.2c-.02-.06-.05-.12-.09-.17s-.08-.1-.13-.15c-.02-.03-.04-.05-.07-.07s-.05-.04-.08-.06ZM18.64 6.15l-.03-.1-.03-.09c-.01-.03-.03-.06-.04-.09s-.03-.06-.05-.08c-.02-.03-.04-.06-.06-.08s-.04-.05-.07-.07c-.02-.02-.04-.05-.07-.07s-.05-.04-.08-.06c-.02-.02-.05-.03-.08-.05s-.06-.03-.09-.04c-.03-.02-.06-.03-.09-.04s-.06-.02-.1-.02a.961.961 0 0 0-.58.07c-.06.02-.12.05-.17.09s-.1.08-.15.13c-.1.09-.17.2-.22.32s-.07.25-.07.38.02.26.07.38.12.23.22.33c.09.1.2.17.32.22s.25.07.39.07.26-.02.38-.07.23-.12.32-.22c.1-.1.17-.21.22-.33s.08-.25.08-.38v-.09c0-.03 0-.07-.01-.1ZM6.54 16.68c-.16-.04-.33-.03-.48.02s-.3.13-.42.25c-.05.04-.09.09-.13.15s-.07.11-.09.17-.04.13-.06.2-.02.13-.02.2 0 .13.02.19.03.13.06.19.05.12.09.17.08.1.13.15c.04.05.09.09.15.13s.11.07.17.09.12.04.19.06.13.02.19.02c.07 0 .13 0 .2-.02s.13-.03.19-.06c.06-.02.12-.05.17-.09s.1-.08.15-.13c.1-.09.17-.2.22-.32s.07-.25.07-.38c0-.06 0-.13-.02-.2s-.03-.13-.05-.2c-.03-.06-.06-.12-.1-.17l-.12-.15c-.02-.03-.05-.05-.07-.07s-.05-.04-.08-.06c-.03-.01-.06-.03-.09-.04s-.06-.03-.09-.05c-.03 0-.06-.02-.09-.03s-.06-.02-.09-.02"/></svg>