<svg xmlns="http://www.w3.org/2000/svg" viewBox="0 0 24 24" width="24" height="24"><path d="m17,3H7c-2.21,0-4,1.79-4,4v10c0,2.21,1.79,4,4,4h10c2.21,0,4-1.79,4-4V7c0-2.21-1.79-4-4-4Zm-1,9c0,.74-.22,1.42-.57,2.02l1.07,1.07c.39.39.39,1.02,0,1.41-.39.39-1.02.39-1.41,0l-1.07-1.07c-.59.35-1.28.57-2.02.57s-1.42-.22-2.02-.57l-1.07,1.07c-.39.39-1.02.39-1.41,0-.39-.39-.39-1.02,0-1.41l1.07-1.07c-.35-.59-.57-1.28-.57-2.02s.22-1.42.57-2.02l-1.07-1.07c-.39-.39-.39-1.02,0-1.41.39-.39,1.02-.39,1.41,0l1.07,1.07c.59-.35,1.28-.57,2.02-.57s1.42.22,2.02.57l1.07-1.07c.39-.39,1.02-.39,1.41,0,.39.39.39,1.02,0,1.41l-1.07,1.07c.35.59.57,1.28.57,2.02Z"/><path d="M12 10A2 2 0 1 0 12 14 2 2 0 1 0 12 10z"/></svg>