<svg xmlns="http://www.w3.org/2000/svg" viewBox="0 0 24 24" width="24" height="24"><path d="m3.35,21.35c.59.59,1.54.59,2.12,0l3.73-3.73,2.21,2.21c.74.74,1.77,1.17,2.83,1.17h.76c.55,0,1-.45,1-1s-.45-1-1-1h-.76c-.53,0-1.04-.21-1.41-.59l-7.24-7.24c-.38-.38-.59-.88-.59-1.41v-.76c0-.55-.45-1-1-1s-1,.45-1,1v.76c0,1.07.42,2.07,1.17,2.83l2.21,2.21-3.73,3.73c-.59.59-.59,1.54,0,2.12l.71.71Z"/><path d="m21,2h-4.53c-.6,0-1.17.27-1.55.73l-7.36,9,4.7,4.7,9-7.36c.47-.38.73-.95.73-1.55V3c0-.55-.45-1-1-1Z"/></svg>