<svg xmlns="http://www.w3.org/2000/svg" viewBox="0 0 24 24" width="24" height="24"><path class="b" d="m12,2C6.49,2,2,6.49,2,12s4.49,10,10,10,10-4.49,10-10S17.51,2,12,2Zm3.91,10.92l-1.37.61c-.45.2-.81.56-1.01,1.01l-.61,1.37c-.16.36-.52.59-.91.59s-.75-.23-.91-.59l-.61-1.37c-.2-.45-.56-.81-1.01-1.01l-1.4-.62c-.36-.16-.58-.5-.59-.89,0-.39.21-.74.56-.91l1.48-.71c.41-.2.75-.54.94-.96l.62-1.35s0,0,0,0c.16-.35.52-.58.9-.58h0c.4,0,.74.23.9.59l.61,1.38c.2.45.56.81,1.01,1.01l1.37.61c.36.16.59.52.59.91s-.23.75-.59.91Z"/></svg>