<svg xmlns="http://www.w3.org/2000/svg" viewBox="0 0 24 24" width="24" height="24"><path d="m11.72,2c-5.21.14-9.57,4.5-9.71,9.71-.12,4.52,2.81,8.58,7.14,9.87.47.14.94.21,1.41.21,1.3,0,2.58-.52,3.54-1.47l6.22-6.22c1.3-1.3,1.79-3.2,1.27-4.95-1.29-4.33-5.31-7.25-9.87-7.14Zm7.92,9.51l-8.13,8.13c-.15.15-.42.06-.44-.15-.04-.33-.07-.66-.07-1,0-.52.05-1.02.15-1.51.1-.49.25-.96.44-1.41.19-.45.42-.87.69-1.27.27-.4.58-.77.91-1.11.34-.34.71-.64,1.11-.91.4-.27.82-.5,1.27-.69.45-.19.92-.34,1.41-.44.49-.1.99-.15,1.51-.15.34,0,.67.02,1,.07.22.03.31.29.15.44Z"/></svg>