<svg xmlns="http://www.w3.org/2000/svg" viewBox="0 0 24 24" width="24" height="24"><path d="m21,12h-3.09c-.48-2.83-2.94-5-5.91-5s-5.43,2.17-5.91,5h-3.09c-.55,0-1,.45-1,1s.45,1,1,1h18c.55,0,1-.45,1-1s-.45-1-1-1Z"/><rect x="11" y="2" width="2" height="3" rx="1" ry="1"/><path d="m17.59,5l-.59.59c-.39.39-.39,1.02,0,1.41.39.39,1.02.39,1.41,0l.59-.59c.39-.39.39-1.02,0-1.41-.39-.39-1.02-.39-1.41,0Z"/><path d="m6.41,5c-.39-.39-1.02-.39-1.41,0-.39.39-.39,1.02,0,1.41l.59.59c.39.39,1.02.39,1.41,0,.39-.39.39-1.02,0-1.41l-.59-.59Z"/><path d="m6.45,16.11c-.49-.25-1.09-.05-1.34.45l-2,4c-.25.49-.05,1.09.45,1.34.14.07.3.11.45.11.37,0,.72-.2.9-.55l2-4c.25-.49.05-1.09-.45-1.34Z"/><path d="m8,22c.37,0,.72-.2.9-.55l2-4c.25-.49.05-1.09-.45-1.34-.49-.25-1.09-.05-1.34.45l-2,4c-.25.49-.05,1.09.45,1.34.14.07.3.11.45.11Z"/><path d="m12,22c.37,0,.72-.2.9-.55l2-4c.25-.49.05-1.09-.45-1.34-.5-.25-1.09-.05-1.34.45l-2,4c-.25.49-.05,1.09.45,1.34.14.07.3.11.45.11Z"/><path d="m18.45,16.11c-.49-.25-1.09-.05-1.34.45l-2,4c-.25.49-.05,1.09.45,1.34.14.07.3.11.45.11.37,0,.72-.2.9-.55l2-4c.25-.49.05-1.09-.45-1.34Z"/></svg>