<svg xmlns="http://www.w3.org/2000/svg" width="24" height="24" viewBox="0 0 24 24"><path d="M20 13v-2h-9c-.41 0-.78-.04-1.11-.11a3 3 0 0 1-.74-.26 1.83 1.83 0 0 1-.78-.75c-.08-.14-.15-.3-.2-.47a3 3 0 0 1-.11-.51c-.03-.17-.04-.34-.04-.49v-.42c0-.04 0-.1.02-.19s.05-.18.1-.27c.05-.11.12-.21.2-.31.09-.12.2-.23.32-.33.14-.12.31-.23.49-.33.21-.11.44-.21.7-.29.29-.09.61-.16.95-.21.73-.1 1.65-.12 2.34.03a3 3 0 0 1 .75.26c.18.09.35.2.49.33.12.11.22.23.31.36.08.11.14.24.19.37.05.12.08.23.1.33.12.54.66.88 1.19.76.54-.12.88-.65.76-1.19-.04-.19-.1-.4-.2-.63-.1-.26-.23-.51-.39-.73a4.006 4.006 0 0 0-1.57-1.37c-.37-.19-.79-.33-1.23-.42-.92-.2-2.08-.19-3.03-.05-.45.06-.87.15-1.26.28-.37.12-.73.26-1.04.43-.3.16-.58.35-.83.55-.23.2-.44.41-.62.64a3.2 3.2 0 0 0-.42.68c-.1.22-.18.45-.24.68-.05.22-.08.44-.08.64v.5c0 .21.03.44.06.69q.06.39.18.81c.1.31.22.6.38.87.03.05.06.09.09.13H4.01v2h16ZM15.36 19.26a4.78 4.78 0 0 0 1.86-1.73c.18-.29.33-.59.45-.91.11-.29.18-.56.23-.79a.995.995 0 0 0-.77-1.18.983.983 0 0 0-1.18.77c-.03.14-.08.31-.14.49-.07.2-.17.38-.27.56-.12.2-.27.38-.44.54-.19.19-.42.35-.67.48q-.435.24-.99.36c-.87.2-2.04.18-2.91.03a6 6 0 0 1-1.04-.28c-.25-.1-.48-.22-.68-.36-.16-.11-.3-.24-.41-.38q-.135-.165-.24-.36-.075-.165-.12-.3c-.15-.53-.7-.84-1.23-.7-.53.15-.84.7-.7 1.23.06.23.15.45.25.66.13.26.3.51.49.74.22.27.49.51.78.72.33.23.7.44 1.1.6.43.17.92.31 1.44.4.55.1 1.17.14 1.82.14s1.3-.07 1.87-.2c.54-.12 1.04-.31 1.49-.54Z"/></svg>