<svg xmlns="http://www.w3.org/2000/svg" viewBox="0 0 24 24" width="24" height="24"><path d="M4 3A1 1 0 1 0 4 5 1 1 0 1 0 4 3z"/><path d="M4 7A1 1 0 1 0 4 9 1 1 0 1 0 4 7z"/><path d="M4 11A1 1 0 1 0 4 13 1 1 0 1 0 4 11z"/><path d="M4 15A1 1 0 1 0 4 17 1 1 0 1 0 4 15z"/><path d="M4 19A1 1 0 1 0 4 21 1 1 0 1 0 4 19z"/><path d="M8 3A1 1 0 1 0 8 5 1 1 0 1 0 8 3z"/><path d="M8 19A1 1 0 1 0 8 21 1 1 0 1 0 8 19z"/><path d="M12 3A1 1 0 1 0 12 5 1 1 0 1 0 12 3z"/><path d="M12 19A1 1 0 1 0 12 21 1 1 0 1 0 12 19z"/><path d="M16 3A1 1 0 1 0 16 5 1 1 0 1 0 16 3z"/><path d="M16 19A1 1 0 1 0 16 21 1 1 0 1 0 16 19z"/><path d="M20 3A1 1 0 1 0 20 5 1 1 0 1 0 20 3z"/><path d="M20 7A1 1 0 1 0 20 9 1 1 0 1 0 20 7z"/><path d="M20 11A1 1 0 1 0 20 13 1 1 0 1 0 20 11z"/><path d="M20 15A1 1 0 1 0 20 17 1 1 0 1 0 20 15z"/><path d="M20 19A1 1 0 1 0 20 21 1 1 0 1 0 20 19z"/><rect x="7" y="7" width="4" height="4" rx="1.5" ry="1.5"/><rect x="13" y="7" width="4" height="4" rx="1.5" ry="1.5"/><rect x="7" y="13" width="4" height="4" rx="1.5" ry="1.5"/><rect x="13" y="13" width="4" height="4" rx="1.5" ry="1.5"/></svg>