<svg xmlns="http://www.w3.org/2000/svg" viewBox="0 0 24 24" width="24" height="24"><path d="m17.5,6c.28,0,.5-.22.5-.5v-2.5c0-.55-.45-1-1-1H7c-.55,0-1,.45-1,1v2.5c0,.28.22.5.5.5h11Z"/><path d="m18.68,8.3c-.08-.18-.26-.3-.46-.3H5.78c-.2,0-.38.12-.46.3l-2.91,6.5c-.36.8-.28,1.72.23,2.46.93,1.37,2.17,2.48,3.62,3.28.3.16.67-.03.73-.36l1.46-8.34c.1-.54.61-.9,1.16-.81.54.1.91.61.81,1.16l-1.56,8.91c-.05.26.12.52.37.58.89.21,1.82.33,2.78.33s1.88-.12,2.78-.33c.26-.06.42-.32.37-.58l-1.56-8.91c-.09-.54.27-1.06.81-1.16.55-.09,1.06.27,1.16.81l1.46,8.34c.06.33.43.52.73.36,1.45-.8,2.69-1.91,3.62-3.28.5-.74.59-1.66.23-2.46l-2.91-6.5Z"/></svg>