<svg xmlns="http://www.w3.org/2000/svg" width="24" height="24" viewBox="0 0 24 24"><path d="M12 6.99a5.01 5.01 0 1 0 0 10.02 5.01 5.01 0 1 0 0-10.02M12 18c-.28 0-.53.11-.71.29s-.29.43-.29.71v2c0 .28.11.53.29.71s.43.29.71.29.53-.11.71-.29.29-.43.29-.71v-2c0-.28-.11-.53-.29-.71S12.28 18 12 18M12 2c-.28 0-.53.11-.71.29S11 2.72 11 3v2c0 .28.11.53.29.71s.43.29.71.29.53-.11.71-.29S13 5.28 13 5V3c0-.28-.11-.53-.29-.71S12.28 2 12 2M6 12c0-.55-.45-1-1-1H3c-.55 0-1 .45-1 1s.45 1 1 1h2c.55 0 1-.45 1-1M21 11h-2c-.55 0-1 .45-1 1s.45 1 1 1h2c.55 0 1-.45 1-1s-.45-1-1-1M6.34 7.76a.986.986 0 0 0 .71.29.986.986 0 0 0 1-1c0-.26-.1-.51-.29-.71l-.71-.71-.71-.71c-.2-.2-.45-.29-.71-.29s-.51.1-.71.29-.29.45-.29.71.1.51.29.71l.71.71zM17.66 16.24c-.2-.2-.45-.29-.71-.29s-.51.1-.71.29-.29.45-.29.71.1.51.29.71l.71.71.71.71a.986.986 0 0 0 .71.29.986.986 0 0 0 1-1c0-.26-.1-.51-.29-.71l-.71-.71zM16.95 8.05a.99.99 0 0 0 .71-.29l.71-.71.71-.71c.2-.2.29-.45.29-.71s-.1-.51-.29-.71-.45-.29-.71-.29-.51.1-.71.29l-.71.71-.71.71c-.2.2-.29.45-.29.71s.1.51.29.71a.986.986 0 0 0 .71.29M6.34 16.24l-.71.71-.71.71c-.2.2-.29.45-.29.71s.1.51.29.71a.986.986 0 0 0 .71.29.99.99 0 0 0 .71-.29l.71-.71.71-.71c.2-.2.29-.45.29-.71s-.1-.51-.29-.71-.45-.29-.71-.29-.51.1-.71.29"/></svg>