<svg xmlns="http://www.w3.org/2000/svg" viewBox="0 0 24 24" width="24" height="24"><path d="m12.95,14c-.52,0-.94.4-.99.92-.12,1.17-.46,1.86-.85,2.63-.43.85-.9,1.8-1.05,3.36-.06.58.41,1.09,1,1.09.52,0,.94-.4.99-.92.12-1.17.46-1.86.85-2.63.43-.85.9-1.8,1.05-3.36.06-.58-.41-1.09-1-1.09Z"/><path d="m8.95,14c-.52,0-.94.4-.99.92-.12,1.17-.46,1.86-.85,2.63-.43.85-.9,1.8-1.05,3.36-.06.58.41,1.09,1,1.09.52,0,.94-.4.99-.92.12-1.17.46-1.86.85-2.63.43-.85.9-1.8,1.05-3.36.06-.58-.41-1.09-1-1.09Z"/><path d="m16.95,14c-.52,0-.94.4-.99.92-.12,1.17-.46,1.86-.85,2.63-.43.85-.9,1.8-1.05,3.36-.06.58.41,1.09,1,1.09.52,0,.94-.4.99-.92.12-1.17.46-1.86.85-2.63.43-.85.9-1.8,1.05-3.36.06-.58-.41-1.09-1-1.09Z"/><path d="m20,2H4c-1.1,0-2,.9-2,2s.9,2,2,2h16c1.1,0,2-.9,2-2s-.9-2-2-2Z"/><path d="m18.39,7H5.61c-.33,0-.56.31-.49.62l.34,1.35c.45,1.78,2.05,3.03,3.88,3.03h5.31c1.84,0,3.44-1.25,3.88-3.03l.34-1.35c.08-.32-.16-.62-.49-.62Z"/></svg>