<svg xmlns="http://www.w3.org/2000/svg" viewBox="0 0 24 24" width="24" height="24"><path d="m2.85,12.65l7-7c.09-.09.15-.22.15-.35v-.3c0-1.66-1.34-3-3-3h-2c-1.66,0-3,1.34-3,3v7.3c0,.45.54.67.85.35Z"/><path d="m7.54,12h9.91c.13,0,.26-.05.35-.15l2.48-2.48c1.17-1.17,1.17-3.07,0-4.24l-1.42-1.42c-1.17-1.17-3.08-1.17-4.24,0l-7.44,7.44c-.32.32-.09.85.35.85Z"/><path d="m19,14H6.18c-2.09,0-3.96,1.52-4.16,3.6-.23,2.38,1.64,4.4,3.98,4.4h13c1.66,0,3-1.34,3-3v-2c0-1.66-1.34-3-3-3Zm-13,5.5c-.83,0-1.5-.67-1.5-1.5s.67-1.5,1.5-1.5,1.5.67,1.5,1.5-.67,1.5-1.5,1.5Z"/></svg>