<svg xmlns="http://www.w3.org/2000/svg" width="24" height="24" viewBox="0 0 24 24"><path d="M4 15c-.55 0-1 .45-1 1v3c0 .55.45 1 1 1s1-.45 1-1v-3c0-.55-.45-1-1-1M8 12.5c-.55 0-1 .45-1 1V19c0 .55.45 1 1 1s1-.45 1-1v-5.5c0-.55-.45-1-1-1M12 15.75c-.55 0-1 .45-1 1V19c0 .55.45 1 1 1s1-.45 1-1v-2.25c0-.55-.45-1-1-1M20.87 19.46c.07-.14.13-.29.13-.46V4c0-.55-.45-1-1-1s-1 .45-1 1v13.59l-2-2V7c0-.55-.45-1-1-1s-1 .45-1 1v6.59l-2.01-2.01s.01-.05.01-.07v-1.5c0-.55-.45-1-1-1-.43 0-.79.27-.93.66L3.71 2.29A.996.996 0 1 0 2.3 3.7l13 13 5 5c.2.2.45.29.71.29s.51-.1.71-.29a.996.996 0 0 0 0-1.41l-.83-.83Z"/></svg>