<svg xmlns="http://www.w3.org/2000/svg" viewBox="0 0 24 24" width="24" height="24"><rect x="3" y="7" width="18" height="10" rx="3" ry="3"/><path d="m12,6c.28,0,.5-.22.5-.5v-3c0-.28-.22-.5-.5-.5s-.5.22-.5.5v3c0,.28.22.5.5.5Z"/><path d="m6.61,5.82c.1.12.24.18.39.18.11,0,.22-.04.32-.11.21-.17.25-.49.07-.7l-1.62-2c-.17-.21-.49-.25-.7-.07s-.25.49-.07.7l1.62,2Z"/><path d="m17,6c.15,0,.29-.06.39-.18l1.62-2c.17-.21.14-.53-.07-.7-.21-.18-.53-.14-.7.07l-1.62,2c-.17.21-.14.53.07.7.09.08.2.11.32.11Z"/><path d="m12,18c-.28,0-.5.22-.5.5v3c0,.28.22.5.5.5s.5-.22.5-.5v-3c0-.28-.22-.5-.5-.5Z"/><path d="m17.39,18.18c-.17-.21-.49-.25-.7-.07s-.25.49-.07.7l1.62,2c.1.12.24.18.39.18.11,0,.22-.04.32-.11.21-.17.25-.49.07-.7l-1.62-2Z"/><path d="m6.61,18.18l-1.62,2c-.17.21-.14.53.07.7.09.08.2.11.32.11.15,0,.29-.06.39-.18l1.62-2c.17-.21.14-.53-.07-.7-.21-.18-.53-.14-.7.07Z"/></svg>