<svg xmlns="http://www.w3.org/2000/svg" viewBox="0 0 24 24" width="24" height="24"><path d="m14,6h-4c-4.11,0-7.53,4.22-7.96,9.83-.04.56.15,1.12.53,1.53.37.4.88.62,1.42.64h0s15,0,15,0v-.02c.82-.04,1.6-.41,2.13-1.04.57-.67.81-1.54.67-2.4-.83-5.03-4.03-8.55-7.8-8.55Zm.5,7c0,.28-.22.5-.5.5s-.5-.22-.5-.5.22-.5.5-.5.5.22.5.5Zm-2-2c0,.28-.22.5-.5.5s-.5-.22-.5-.5.22-.5.5-.5.5.22.5.5Zm-1,2c0,.28-.22.5-.5.5s-.5-.22-.5-.5.22-.5.5-.5.5.22.5.5Zm8.11,2.65c-.19.22-.46.35-.75.35-.5,0-.91-.39-.98-.92-.37-2.92-1.55-5.4-3.2-7.02,2.44.43,4.55,3.16,5.15,6.81.06.38-.11.65-.22.78Z"/></svg>