<svg xmlns="http://www.w3.org/2000/svg" viewBox="0 0 24 24" width="24" height="24"><path d="m21.2,10.53c.46-.1.8-.5.8-.97v-2.81c0-.97-.78-1.75-1.75-1.75H3.75c-.97,0-1.75.78-1.75,1.75v2.81c0,.47.34.87.8.97.71.15,1.2.77,1.2,1.47s-.48,1.32-1.2,1.47c-.46.1-.8.5-.8.97v2.81c0,.97.78,1.75,1.75,1.75h12.25v-.5c0-.28.22-.5.5-.5s.5.22.5.5v.5h3.25c.97,0,1.75-.78,1.75-1.75v-2.81c0-.47-.34-.87-.8-.97-.71-.15-1.2-.77-1.2-1.47s.48-1.32,1.2-1.47Zm-4.2,5.97c0,.28-.22.5-.5.5s-.5-.22-.5-.5v-1c0-.28.22-.5.5-.5s.5.22.5.5v1Zm0-3c0,.28-.22.5-.5.5s-.5-.22-.5-.5v-1c0-.28.22-.5.5-.5s.5.22.5.5v1Zm0-3c0,.28-.22.5-.5.5s-.5-.22-.5-.5v-1c0-.28.22-.5.5-.5s.5.22.5.5v1Zm0-3c0,.28-.22.5-.5.5s-.5-.22-.5-.5v-1c0-.28.22-.5.5-.5s.5.22.5.5v1Z"/></svg>