<svg xmlns="http://www.w3.org/2000/svg" width="24" height="24" viewBox="0 0 24 24"><path d="M20.25 5H3.75C2.78 5 2 5.78 2 6.75v2.81c0 .47.34.87.8.97.71.15 1.2.77 1.2 1.47s-.48 1.32-1.2 1.47c-.46.1-.8.5-.8.97v2.81c0 .97.78 1.75 1.75 1.75h16.5c.97 0 1.75-.78 1.75-1.75v-2.81c0-.47-.34-.87-.8-.97-.71-.15-1.2-.77-1.2-1.47s.48-1.32 1.2-1.47c.46-.1.8-.5.8-.97V6.75C22 5.78 21.22 5 20.25 5m-5.21 6.21-1.26 1.26c-.08.08-.11.2-.08.31l.52 1.68c.09.28-.23.51-.47.35l-1.58-1.06a.3.3 0 0 0-.34 0l-1.58 1.06c-.24.16-.55-.07-.47-.35l.52-1.68c.03-.11 0-.23-.08-.31l-1.26-1.26a.31.31 0 0 1 .19-.53l1.56-.13c.11 0 .2-.07.25-.17l.76-1.55c.11-.23.44-.23.56 0l.76 1.55c.05.1.14.16.25.17l1.56.13c.26.02.38.34.19.53"/></svg>