<svg xmlns="http://www.w3.org/2000/svg" viewBox="0 0 24 24" width="24" height="24"><path d="m15,6h-2v-2h3c.55,0,1-.45,1-1s-.45-1-1-1h-8c-.55,0-1,.45-1,1s.45,1,1,1h3v2h-2c-2.21,0-4,1.79-4,4v6c0,1.65,1.35,3,3,3h8c1.65,0,3-1.35,3-3v-6c0-2.21-1.79-4-4-4Zm-7,9c0-.55.45-1,1-1s1,.45,1,1-.45,1-1,1-1-.45-1-1Zm6,0c0-.55.45-1,1-1s1,.45,1,1-.45,1-1,1-1-.45-1-1Zm3-3H7v-2c0-1.1.9-2,2-2h6c1.1,0,2,.9,2,2v2Z"/><path d="m16.82,20.22c-.09-.14-.25-.22-.42-.22H7.6c-.17,0-.32.08-.42.22l-.67,1c-.22.33.02.78.42.78h1.07c.16,0,.31-.07.4-.2l.45-.6c.09-.13.24-.2.4-.2h5.5c.16,0,.31.07.4.2l.45.6c.09.13.24.2.4.2h1.07c.4,0,.64-.45.42-.78l-.67-1Z"/></svg>