<svg xmlns="http://www.w3.org/2000/svg" viewBox="0 0 24 24" width="24" height="24"><path d="m21,10c-.55,0-1,.45-1,1s-.45,1-1,1H5c-.55,0-1-.45-1-1s-.45-1-1-1-1,.45-1,1c0,.88.39,1.67,1,2.22v7.03c0,.97.78,1.75,1.75,1.75h3.75c.28,0,.5-.22.5-.5v-2.33c0-1.62,1.22-3.08,2.84-3.17,1.73-.09,3.16,1.29,3.16,3v2.5c0,.28.22.5.5.5h3.75c.97,0,1.75-.78,1.75-1.75v-7.03c.61-.55,1-1.34,1-2.22,0-.55-.45-1-1-1Z"/><path d="m6.79,5.74l-1.16,4.64c-.08.32.16.62.49.62h11.78c.33,0,.56-.31.49-.62l-1.16-4.64c1.05-.47,1.79-1.52,1.79-2.74,0-.55-.45-1-1-1s-1.01.45-1,1.01c0,.55-.45.99-1,.99h-1v-1c0-.55-.45-1-1-1s-1,.45-1,1v1h-2v-1c0-.55-.45-1-1-1s-1,.45-1,1v1h-1c-.55,0-1.01-.44-1-.99,0-.56-.44-1.01-1-1.01s-1,.45-1,1c0,1.22.74,2.27,1.79,2.74Z"/></svg>