<svg xmlns="http://www.w3.org/2000/svg" viewBox="0 0 24 24" width="24" height="24"><path d="m3.5,8c.35,0,.66-.12.92-.32l.64.96c-1.78.91-3.01,2.73-3.01,4.86,0,3,2.44,5.46,5.45,5.5h7.76c2.73,0,5.14-1.55,6.13-3.95.48-1.15.67-2.38.58-3.64-.27-3.71-3.24-6.86-6.92-7.34-2.31-.3-4.55.42-6.24,1.87-.28.24-.25.68.08.84,2.71,1.28,4.6,4.04,4.6,7.23,0,.55-.45,1-1,1s-1-.45-1-1c0-2.71-1.81-4.98-4.28-5.72l-.99-1.48c.45-.26.76-.74.76-1.3,0-.83-.67-1.5-1.5-1.5-.69,0-1.27.47-1.44,1.11-.17-.07-.36-.11-.56-.11-.83,0-1.5.67-1.5,1.5s.67,1.5,1.5,1.5Z"/></svg>