<svg xmlns="http://www.w3.org/2000/svg" viewBox="0 0 24 24" width="24" height="24"><path d="m6.85,11.73l3.88-3.88c.32-.31.09-.85-.35-.85h-3.88c-.28,0-.5.22-.5.5v3.88c0,.45.54.67.85.35Z"/><path d="m17.15,12.27l-3.88,3.88c-.32.32-.09.85.35.85h3.88c.28,0,.5-.22.5-.5v-3.88c0-.45-.54-.67-.85-.35Z"/><path d="m6,16.5c0,.28.22.5.5.5h2.88c.13,0,.26-.05.35-.15l8.12-8.12c.09-.09.15-.22.15-.35v-.88c0-.28-.22-.5-.5-.5h-2.88c-.13,0-.26.05-.35.15L6.15,15.27c-.09.09-.15.22-.15.35v.88Z"/><path d="m18.5,2H5.5c-.83,0-1.5.67-1.5,1.5s.67,1.5,1.5,1.5h13c.83,0,1.5-.67,1.5-1.5s-.67-1.5-1.5-1.5Z"/><path d="m18.5,19H5.5c-.83,0-1.5.67-1.5,1.5s.67,1.5,1.5,1.5h13c.83,0,1.5-.67,1.5-1.5s-.67-1.5-1.5-1.5Z"/></svg>