<svg xmlns="http://www.w3.org/2000/svg" viewBox="0 0 24 24" width="24" height="24"><path d="m16,8h2.28c.35.6.98,1,1.72,1,1.1,0,2-.9,2-2s-.9-2-2-2c-.74,0-1.38.4-1.72,1h-2.28v-.5c0-1.38-1.12-2.5-2.5-2.5h-3c-1.38,0-2.5,1.12-2.5,2.5v.5h-2.28c-.35-.6-.98-1-1.72-1-1.1,0-2,.9-2,2s.9,2,2,2c.74,0,1.38-.4,1.72-1h2.28v.5c0,.19.02.37.06.54-.63.35-1.2.79-1.72,1.3-.73.73-1.31,1.59-1.71,2.54-.31.73-.5,1.5-.59,2.28-1.18.4-2.04,1.51-2.04,2.83,0,1.65,1.35,3,3,3s3-1.35,3-3c0-1.28-.81-2.37-1.94-2.8.07-.53.2-1.04.41-1.54.3-.71.74-1.36,1.29-1.91.45-.45.97-.8,1.53-1.08.36.2.77.33,1.21.33h3c.44,0,.85-.12,1.21-.33.56.28,1.08.63,1.53,1.08.55.55.98,1.19,1.29,1.91.21.49.34,1.01.41,1.54-1.13.43-1.94,1.52-1.94,2.8,0,1.65,1.35,3,3,3s3-1.35,3-3c0-1.32-.86-2.43-2.04-2.83-.08-.79-.28-1.55-.59-2.28-.4-.95-.98-1.81-1.71-2.54-.52-.52-1.09-.95-1.72-1.3.04-.17.06-.35.06-.54v-.5Zm-5.5,1c-.28,0-.5-.22-.5-.5v-3c0-.28.22-.5.5-.5h3c.28,0,.5.22.5.5v3c0,.28-.22.5-.5.5h-3Z"/></svg>