<svg xmlns="http://www.w3.org/2000/svg" viewBox="0 0 24 24" width="24" height="24"><path d="m19.31,5.38s0,0,0,0c-.43-.85-1.28-1.38-2.24-1.38H4.5c-1.38,0-2.5,1.12-2.5,2.5v8c0,1.21.86,2.22,2.01,2.45,0,.02,0,.03,0,.05,0,1.65,1.35,3,3,3s3-1.35,3-3h4c0,1.65,1.35,3,3,3s3-1.35,3-3c0-.02,0-.03,0-.05,1.14-.23,2.01-1.24,2.01-2.45v-3.15c0-.38-.09-.77-.26-1.12l-2.43-4.85Zm-2.24.62c.19,0,.36.11.45.28l1.86,3.72h-4.13v-4h1.82Zm-3.82,0v4h-3.5v-4h3.5Zm-8.75,0h3.25v4h-3.75v-3.5c0-.28.22-.5.5-.5Zm2.5,12c-.55,0-1-.45-1-1,0-.17.05-.35.13-.5.36-.62,1.33-.63,1.72-.02,0,0,.01.02.02.03.09.15.13.32.13.49,0,.55-.45,1-1,1Zm10,0c-.55,0-1-.45-1-1,0-.17.05-.35.13-.5.36-.62,1.33-.63,1.72-.02,0,0,.01.02.02.03.09.15.13.32.13.49,0,.55-.45,1-1,1Z"/></svg>