<svg xmlns="http://www.w3.org/2000/svg" viewBox="0 0 24 24" width="24" height="24"><path d="m8,10c1.1,0,2-.9,2-2v-1h4.14c.45,1.72,2,3,3.86,3,2.21,0,4-1.79,4-4s-1.79-4-4-4c-1.86,0-3.41,1.28-3.86,3h-4.14v-1c0-1.1-.9-2-2-2h-4c-1.1,0-2,.9-2,2v4c0,1.1.9,2,2,2h1v4.19c-.15.09-.29.18-.41.31l-2.09,2.09c-.78.78-.78,2.05,0,2.83l2.09,2.09c.39.39.9.58,1.41.58s1.02-.2,1.41-.58l2.09-2.09c.13-.13.22-.27.31-.41h4.19v1c0,1.1.9,2,2,2h4c1.1,0,2-.9,2-2v-4c0-1.1-.9-2-2-2h-4c-1.1,0-2,.9-2,2v1h-4.19c-.09-.15-.18-.29-.31-.41l-2.09-2.09c-.13-.13-.27-.22-.41-.31v-4.19h1Z"/></svg>