<svg xmlns="http://www.w3.org/2000/svg" width="24" height="24" viewBox="0 0 24 24"><path d="M12 17a2 2 0 1 0-.001 4.001A2 2 0 0 0 12 17M14.34 15.52c.09.04.18.08.26.12.09.04.17.09.25.13.09.05.17.1.26.15.08.05.17.11.24.15.08.06.16.12.24.17.08.06.15.12.22.18.19.16.41.23.64.23.29 0 .57-.12.77-.36.35-.42.29-1.06-.13-1.41-.1-.08-.2-.16-.31-.24-.1-.07-.2-.15-.31-.22a9 9 0 0 0-.32-.21c-.11-.07-.22-.13-.34-.19-.11-.06-.23-.12-.35-.18-.12-.05-.23-.11-.35-.16s-.24-.1-.37-.15c-.12-.05-.25-.09-.37-.12-.13-.04-.25-.08-.38-.11l-.39-.09a5 5 0 0 0-.4-.07c-.13-.02-.27-.04-.4-.05l-.4-.03c-.28-.02-.57-.01-.83 0-.14 0-.27.02-.41.03-.13.01-.27.03-.4.05s-.26.04-.4.07c-.13.03-.26.06-.38.09-.13.03-.26.07-.38.11-.13.04-.26.08-.38.13-.12.04-.25.09-.36.14-.12.05-.24.1-.36.16s-.23.11-.35.18c-.11.06-.22.12-.33.19s-.21.13-.33.21c-.1.07-.21.14-.31.22l-.3.24c-.42.35-.48.98-.13 1.41a1 1 0 0 0 1.41.13c.07-.06.15-.12.22-.17.08-.06.16-.12.23-.17.08-.06.17-.11.25-.16s.17-.1.25-.14c.09-.05.17-.09.26-.13s.18-.08.28-.12c.09-.04.18-.07.27-.11.09-.03.18-.06.28-.09.09-.03.18-.06.29-.08.09-.02.19-.05.28-.07.1-.02.2-.04.29-.05.1-.01.2-.03.3-.04.1 0 .2-.02.31-.02.2-.01.4-.01.61 0 .1 0 .2.01.3.02s.2.02.3.04.2.03.29.05c.1.02.19.04.3.07.09.02.19.05.29.08l.27.09c.09.03.18.07.27.11Z"/><path d="m17.98 13.04.38.29c.19.16.41.23.64.23.29 0 .57-.12.77-.36.35-.43.29-1.06-.13-1.41l-.45-.36c-.15-.11-.31-.23-.47-.34s-.32-.21-.49-.31-.33-.2-.5-.29-.34-.18-.52-.27c-.17-.08-.35-.17-.53-.24a9 9 0 0 0-.55-.22c-.18-.07-.37-.13-.56-.19s-.38-.11-.57-.16-.39-.09-.58-.13-.39-.08-.59-.11a12 12 0 0 0-1.21-.13c-.41-.02-.83-.02-1.23 0-.21 0-.41.03-.61.05s-.4.05-.6.08-.4.07-.59.11-.39.08-.58.13-.38.1-.57.16-.38.12-.56.19-.37.14-.54.21c-.18.08-.36.16-.53.24s-.35.17-.52.26-.34.19-.51.29c-.16.1-.32.2-.49.31-.16.11-.31.22-.46.33-.16.12-.31.23-.46.36-.42.35-.48.98-.13 1.41a1 1 0 0 0 1.41.13c.12-.1.25-.2.38-.3s.26-.19.39-.28.27-.18.41-.26l.42-.24c.14-.08.29-.15.43-.22.15-.07.29-.14.45-.2l.45-.18c.15-.06.31-.11.46-.16s.31-.09.48-.13c.16-.04.32-.08.48-.11l.49-.09c.17-.02.33-.05.5-.06.17-.02.34-.03.51-.04.34-.02.69-.02 1.03 0 .17 0 .34.02.51.04l.5.06c.17.02.33.05.49.09s.32.07.49.11c.16.04.32.09.47.13.16.05.31.1.46.16s.3.11.46.18c.15.06.3.13.44.2s.29.14.43.22l.42.24c.14.08.28.17.4.26.13.09.27.18.4.28Z"/><path d="M3.1 10.2c.17-.14.35-.28.53-.42s.36-.26.55-.39.38-.25.57-.37.39-.23.59-.34.4-.21.6-.31.41-.19.62-.28.42-.17.64-.25c.21-.08.43-.15.65-.22s.44-.13.66-.19.45-.11.68-.16q.345-.075.69-.12c.23-.04.46-.06.7-.09.23-.02.47-.04.71-.05.47-.02.96-.02 1.44 0 .24.01.48.03.71.05.24.02.47.05.7.09l.69.12c.23.05.45.1.68.16.22.06.44.12.66.19s.44.14.65.22.43.16.63.25c.21.09.42.18.62.28s.4.2.6.31.39.22.59.34l.57.36c.19.13.37.26.55.39s.36.27.53.42c.19.15.41.23.64.23.29 0 .57-.12.77-.36.35-.43.29-1.06-.13-1.41l-.6-.48c-.2-.16-.42-.3-.63-.45-.21-.14-.43-.28-.65-.41s-.44-.26-.67-.38-.46-.24-.69-.35-.47-.22-.71-.32-.48-.2-.73-.29-.49-.17-.74-.25-.5-.15-.76-.22-.51-.13-.77-.18-.52-.1-.79-.14c-.26-.04-.53-.07-.8-.1q-.405-.045-.81-.06c-.54-.03-1.1-.03-1.65 0q-.405.015-.81.06c-.27.03-.54.06-.8.1s-.53.09-.79.14q-.39.075-.78.18c-.25.07-.51.14-.76.22s-.5.16-.74.25-.49.19-.73.29-.47.21-.71.32c-.23.11-.47.23-.69.35-.23.12-.45.25-.67.38s-.44.27-.65.42q-.315.21-.63.45c-.315.24-.41.31-.6.48a1 1 0 0 0-.13 1.41 1 1 0 0 0 1.41.13Z"/></svg>