<svg xmlns="http://www.w3.org/2000/svg" viewBox="0 0 24 24" width="24" height="24"><path d="M13.99 2A2 2 0 1 0 13.99 6 2 2 0 1 0 13.99 2z"/><path d="m9.76,7.16c-1.61.69-2.92,1.93-3.71,3.49l-.5,1.01c-.25.49-.05,1.09.45,1.34s1.09.05,1.34-.45l.5-1.01c.61-1.22,1.66-2.16,2.94-2.64,0,0,0,0,.02.01l-.8,3.98c-.53,2.63-1.9,4.99-3.91,6.74-.37.33-.46.87-.16,1.27l.09.12c.33.44.95.49,1.36.13,1.77-1.54,3.11-3.49,3.93-5.67l1.55,1.16c.79.59,1.33,1.45,1.52,2.42l.43,2.15c.11.54.64.89,1.18.78.54-.11.89-.64.78-1.18l-.43-2.15c-.29-1.45-1.1-2.74-2.28-3.62l-.91-.69.83-3.88c.71,1.2,1.74,2.16,2.96,2.79.54.28,1.2-.01,1.39-.59.16-.47-.06-.97-.49-1.2-.92-.48-1.68-1.21-2.2-2.12l-.12-.21c-.37-.65-.87-1.23-1.5-1.64-1.32-.84-2.88-.97-4.27-.37Z"/></svg>