<svg xmlns="http://www.w3.org/2000/svg" viewBox="0 0 24 24" width="24" height="24"><path d="m19,7H5c-1.66,0-3,1.34-3,3v9c0,1.66,1.34,3,3,3h14c1.66,0,3-1.34,3-3v-.5c0-.28-.22-.5-.5-.5h-3c-2.17,0-3.89-1.99-3.42-4.24.34-1.64,1.86-2.76,3.53-2.76h2.9c.28,0,.5-.22.5-.5v-.5c0-1.66-1.34-3-3-3Z"/><path d="m21.5,13h-3c-.83,0-1.5.67-1.5,1.5s.67,1.5,1.5,1.5h3c.28,0,.5-.22.5-.5v-2c0-.28-.22-.5-.5-.5Z"/><path d="m9.25,5.03h7.34c.27,0,.48-.22.48-.48,0-.47-.13-.93-.41-1.31-.57-.74-1.53-.99-2.36-.67l-5.14,1.98c-.26.1-.19.48.09.48Z"/></svg>