<svg xmlns="http://www.w3.org/2000/svg" width="24" height="24" viewBox="0 0 24 24"><g opacity="0.4"><path d="M19 3A1.5 1.5 0 1 0 19 6 1.5 1.5 0 1 0 19 3z"/><path d="m13.86,14.28l4.14-1.13v5.85h1v-7.15l-5.45,1.49c.13.3.23.62.31.95Z"/><path d="m17.45,7.5c-.04-.44-.27-.84-.63-1.1l-3.61-2.55-4.05,3.78.68.73,3.45-3.22,1.67,1.18-4.18,4.18c.97.45,1.79,1.16,2.35,2.06l3.87-3.87c.31-.31.47-.75.43-1.19Z"/></g><path d="m10.87,19.29c-.69.44-1.49.71-2.37.71-2.48,0-4.5-2.02-4.5-4.5,0-.88.27-1.68.71-2.37l-.73-.73c-.61.89-.98,1.95-.98,3.1,0,3.03,2.47,5.5,5.5,5.5,1.15,0,2.22-.37,3.1-.98l-.73-.73Z"/><path d="m8.5,11c2.48,0,4.5,2.02,4.5,4.5,0,.88-.27,1.68-.71,2.37l.73.73c.61-.89.98-1.95.98-3.1,0-3.03-2.47-5.5-5.5-5.5-1.15,0-2.22.37-3.1.98l.73.73c.69-.44,1.49-.71,2.37-.71Z"/></svg>