<svg xmlns="http://www.w3.org/2000/svg" width="24" height="24" viewBox="0 0 24 24"><g opacity="0.4"><path d="m3,12h18V3H3v9Zm14.5-6c.28,0,.5.22.5.5s-.22.5-.5.5-.5-.22-.5-.5.22-.5.5-.5Zm-11.5,3h12v1H6v-1Z"/></g><path d="m13,14h-1c0,.4-.15.57-.38.84-.28.32-.62.72-.62,1.49s.34,1.17.62,1.49c.23.27.38.44.38.84s-.15.57-.38.84c-.28.32-.62.72-.62,1.49h1c0-.4.15-.58.38-.84.28-.32.62-.72.62-1.49s-.34-1.17-.62-1.49c-.23-.27-.38-.44-.38-.84s.15-.57.38-.84c.28-.32.62-.72.62-1.49Z"/><path d="m16.5,14h-1c0,.4-.15.57-.38.84-.28.32-.62.72-.62,1.49s.34,1.17.62,1.49c.23.27.38.44.38.84s-.15.57-.38.84c-.28.32-.62.72-.62,1.49h1c0-.4.15-.58.38-.84.28-.32.62-.72.62-1.49s-.34-1.17-.62-1.49c-.23-.27-.38-.44-.38-.84s.15-.57.38-.84c.28-.32.62-.72.62-1.49Z"/><path d="m9.5,14h-1c0,.4-.15.57-.38.84-.28.32-.62.72-.62,1.49s.34,1.17.62,1.49c.23.27.38.44.38.84s-.15.57-.38.84c-.28.32-.62.72-.62,1.49h1c0-.4.15-.58.38-.84.28-.32.62-.72.62-1.49s-.34-1.17-.62-1.49c-.23-.27-.38-.44-.38-.84s.15-.57.38-.84c.28-.32.62-.72.62-1.49Z"/><path d="M6 9H18V10H6z"/><path d="M17.5 6A.5.5 0 1 0 17.5 7 .5.5 0 1 0 17.5 6z"/></svg>