<svg xmlns="http://www.w3.org/2000/svg" width="24" height="24" viewBox="0 0 24 24"><g opacity="0.4"><path d="m12,4c-4.88,0-9,4.12-9,9s4.12,9,9,9,9-4.12,9-9-4.12-9-9-9Zm5,9.5h-4.5v4.5h-1v-4.5h-4.5v-1h4.5v-4.5h1v4.5h4.5v1Z"/></g><path d="M18.34 2.65 17.99 3 17.64 3.35 19.14 4.85 20.65 6.35 21 6 21.35 5.65 19.85 4.15 18.34 2.65z"/><path d="M3.35 6.35 4.85 4.85 6.34 3.35 5.99 3 5.64 2.65 4.14 4.15 2.65 5.65 3 6 3.35 6.35z"/><path d="M11.5 18 12.5 18 12.5 13.5 17 13.5 17 12.5 12.5 12.5 12.5 8 11.5 8 11.5 12.5 7 12.5 7 13.5 11.5 13.5 11.5 18z"/></svg>