<svg xmlns="http://www.w3.org/2000/svg" width="24" height="24" viewBox="0 0 24 24"><g opacity="0.4"><path d="M5.5 4A1.5 1.5 0 1 0 5.5 7 1.5 1.5 0 1 0 5.5 4z"/><path d="M18.5 4A1.5 1.5 0 1 0 18.5 7 1.5 1.5 0 1 0 18.5 4z"/><path d="M12 10.5A1.5 1.5 0 1 0 12 13.5 1.5 1.5 0 1 0 12 10.5z"/><path d="M5.5 17A1.5 1.5 0 1 0 5.5 20 1.5 1.5 0 1 0 5.5 17z"/><path d="M18.5 17A1.5 1.5 0 1 0 18.5 20 1.5 1.5 0 1 0 18.5 17z"/></g><path d="M12 4A1.5 1.5 0 1 0 12 7 1.5 1.5 0 1 0 12 4z"/><path d="M5.5 10.5A1.5 1.5 0 1 0 5.5 13.5 1.5 1.5 0 1 0 5.5 10.5z"/><path d="M18.5 10.5A1.5 1.5 0 1 0 18.5 13.5 1.5 1.5 0 1 0 18.5 10.5z"/><path d="M12 17A1.5 1.5 0 1 0 12 20 1.5 1.5 0 1 0 12 17z"/></svg>