<svg xmlns="http://www.w3.org/2000/svg" width="24" height="24" viewBox="0 0 24 24"><g opacity="0.4"><path d="m15,6.1c-1.64,0-2.5.52-3.26.97-.74.45-1.38.83-2.74.83s-2-.38-2.74-.83c-.76-.46-1.62-.97-3.26-.97v1c1.36,0,2,.38,2.74.83.76.46,1.62.97,3.26.97s2.5-.52,3.26-.97c.74-.45,1.38-.83,2.74-.83s2,.38,2.74.83c.76.46,1.62.97,3.26.97v-1c-1.36,0-2-.38-2.74-.83-.76-.46-1.62-.97-3.26-.97Z"/><path d="m15,15.1c-1.64,0-2.5.52-3.26.97-.74.45-1.38.83-2.74.83s-2-.38-2.74-.83c-.76-.46-1.62-.97-3.26-.97v1c1.36,0,2,.38,2.74.83.76.46,1.62.97,3.26.97s2.5-.52,3.26-.97c.74-.45,1.38-.83,2.74-.83s2,.38,2.74.83c.76.46,1.62.97,3.26.97v-1c-1.36,0-2-.38-2.74-.83-.76-.46-1.62-.97-3.26-.97Z"/></g><path d="m15,10.6c-1.64,0-2.5.52-3.26.97-.74.45-1.38.83-2.74.83s-2-.38-2.74-.83c-.76-.46-1.62-.97-3.26-.97v1c1.36,0,2,.38,2.74.83.76.46,1.62.97,3.26.97s2.5-.52,3.26-.97c.74-.45,1.38-.83,2.74-.83s2,.38,2.74.83c.76.46,1.62.97,3.26.97v-1c-1.36,0-2-.38-2.74-.83-.76-.46-1.62-.97-3.26-.97Z"/></svg>