<svg xmlns="http://www.w3.org/2000/svg" width="24" height="24" viewBox="0 0 24 24"><g opacity="0.4"><path d="m15.17,3.79l-1.76,1.8c-.9-.39-1.88-.59-2.91-.59-4.14,0-7.5,3.36-7.5,7.5s3.36,7.5,7.5,7.5,7.5-3.36,7.5-7.5c0-.9-.4-2.26-.6-2.86l1.8-1.81-4.04-4.04Zm-4.67,5.21c-1.93,0-3.5,1.57-3.5,3.5h-1c0-2.48,2.02-4.5,4.5-4.5v1Z"/></g><path d="m18.56,3.73l-1.73,1.73.71.71,1.73-1.73c.28-.28.67-.44,1.06-.44h.67v-1h-.67c-.67,0-1.29.26-1.77.73Z"/><path d="m10.5,9v-1c-2.48,0-4.5,2.02-4.5,4.5h1c0-1.93,1.57-3.5,3.5-3.5Z"/></svg>