<svg xmlns="http://www.w3.org/2000/svg" width="24" height="24" viewBox="0 0 24 24"><g opacity="0.4"><path d="m15.03,8c0-.68-.29-1.04-.51-1.31-.18-.23-.29-.36-.29-.69s.11-.46.29-.69c.13-.17.29-.38.39-.67l-1.3.2c-.19.26-.39.6-.39,1.15,0,.68.29,1.04.51,1.31.18.23.29.36.29.69s-.11.46-.29.69c-.21.27-.51.64-.51,1.31,0,.45.14.76.29,1h1.23c-.07-.12-.15-.22-.22-.31-.18-.23-.29-.36-.29-.69s.11-.46.29-.69c.21-.27.51-.64.51-1.31Z"/><path d="m12.56,8.5c0-.61-.27-.94-.46-1.19-.16-.19-.24-.3-.24-.56s.08-.37.24-.56c.19-.24.46-.57.46-1.18l-1.01.16c-.03.15-.11.25-.22.39-.19.24-.46.57-.46,1.19s.27.94.46,1.19c.16.19.24.3.24.56s-.09.37-.24.56c-.19.24-.46.57-.46,1.19,0,.32.07.56.17.75h1.22c-.05-.07-.1-.13-.14-.19-.16-.19-.24-.3-.24-.56s.09-.37.24-.56c.19-.24.46-.57.46-1.19Z"/><path d="m10.14,8.5c0-.61-.27-.94-.46-1.19-.16-.19-.24-.3-.24-.56s.08-.37.24-.56c.15-.18.33-.42.42-.79l-1.22.19c-.19.24-.44.57-.44,1.16s.27.94.46,1.19c.16.19.24.3.24.56s-.09.37-.24.56c-.19.24-.46.57-.46,1.19,0,.32.07.56.17.75h1.22c-.05-.07-.1-.13-.14-.19-.16-.19-.24-.3-.24-.56s.09-.37.24-.56c.19-.24.46-.57.46-1.19Z"/><path d="m7.72,8.5c0-.61-.27-.94-.46-1.19-.16-.19-.24-.3-.24-.56s.08-.37.24-.56c.08-.11.18-.23.26-.39l-1.34.21c-.09.19-.16.43-.16.74,0,.61.27.94.46,1.19.16.19.24.3.24.56s-.08.37-.24.56c-.19.24-.46.58-.46,1.19,0,.32.07.56.17.75h1.22c-.05-.07-.1-.13-.14-.19-.16-.19-.24-.3-.24-.56s.08-.37.24-.56c.19-.24.46-.58.46-1.19Z"/></g><path d="m3,11.5c0,3.15,1.95,6.18,5,7.81v1.69h8v-1.69c3.05-1.63,5-4.66,5-7.81v-.5H3v.5Z"/><path d="M20.92 2.69 11.92 4.1 2.92 5.51 3 6 3.08 6.49 12.08 5.08 21.08 3.68 21 3.18 20.92 2.69z"/></svg>