<svg xmlns="http://www.w3.org/2000/svg" width="24" height="24" viewBox="0 0 24 24"><g opacity="0.4"><path d="m8.74,14.09l.47-.14c1.06-.31,1.93-1.1,2.33-2.14.51-1.32,1.62-2.34,2.98-2.74l.47-.14c1.06-.31,1.93-1.1,2.33-2.13l.64-1.65-2.89-2.5-.91,2.36c-.35.92-1.13,1.63-2.08,1.9l-.42.12c-1.25.36-2.27,1.3-2.73,2.51-.35.92-1.13,1.63-2.08,1.9l-.42.12c-1.25.36-2.27,1.3-2.73,2.51l-.78,2.03,2.34,2.03.51-1.32c.51-1.32,1.62-2.34,2.98-2.74Z"/><path d="m18.24,7.17c-.51,1.32-1.62,2.34-2.98,2.74l-.47.14c-1.06.31-1.93,1.1-2.33,2.14-.51,1.32-1.62,2.34-2.98,2.74l-.47.14c-1.06.31-1.93,1.1-2.33,2.13l-.64,1.65,2.89,2.5.91-2.36c.35-.92,1.13-1.63,2.08-1.9l.42-.12c1.25-.36,2.27-1.3,2.73-2.51.35-.92,1.13-1.63,2.08-1.9l.42-.12c1.25-.36,2.27-1.3,2.73-2.51l.78-2.03-2.34-2.03-.51,1.32Z"/></g><path d="m6.69,17.19c.4-1.03,1.27-1.83,2.33-2.13l.47-.14c1.36-.39,2.47-1.42,2.98-2.74.4-1.03,1.27-1.83,2.33-2.14l.47-.14c1.36-.39,2.48-1.42,2.98-2.74l.51-1.32-.8-.7-.64,1.65c-.4,1.03-1.27,1.83-2.33,2.13l-.47.14c-1.36.39-2.47,1.42-2.98,2.74-.4,1.03-1.27,1.83-2.33,2.14l-.47.14c-1.36.39-2.48,1.42-2.98,2.74l-.51,1.32.8.7.64-1.65Z"/></svg>