<svg xmlns="http://www.w3.org/2000/svg" width="24" height="24" viewBox="0 0 24 24"><g opacity="0.4"><path d="m16,14.06l-4-2-4,2-3.94-1.97c-.03.3-.06.6-.06.91v3h16v-3c0-.31-.02-.61-.06-.91l-3.95,1.97Z"/><path d="m11.99,10.94l4,2,3.76-1.88c-.71-2.84-2.94-5.09-5.78-5.81-.12.98-.96,1.75-1.97,1.75s-1.85-.77-1.97-1.75c-2.84.72-5.07,2.97-5.78,5.81l3.75,1.88,4-2Z"/></g><rect x="3" y="16" width="18" height="5" rx="1.5" ry="1.5"/><path d="M12 3A2 2 0 1 0 12 7 2 2 0 1 0 12 3z"/><path d="m8,14.06l4-2,4,2,3.95-1.97-.19-1.02-3.76,1.88-4-2-4,2-3.75-1.88c-.08.33-.14.68-.19,1.03l3.94,1.97Z"/><path d="M4.25 11.06 4.25 11.06 4.25 11.06 4.25 11.06z"/></svg>