<svg xmlns="http://www.w3.org/2000/svg" width="24" height="24" viewBox="0 0 24 24"><g opacity="0.4"><path d="m12,12c-.83,0-1.5.3-1.5.67,0,.67.67,1.33,1.5,1.33s1.5-.67,1.5-1.33c0-.37-.67-.67-1.5-.67Z"/><path d="m17.67,3c-1.09,0-2.09.53-2.71,1.42-1.91-.63-4-.63-5.9,0-.62-.88-1.63-1.42-2.71-1.42-1.84,0-3.33,1.5-3.33,3.33,0,.87.34,1.7.96,2.32-.63,1.18-.96,2.49-.96,3.82,0,4.7,4.04,8.53,9,8.53s9-3.83,9-8.53c0-1.32-.33-2.64-.96-3.82.61-.62.96-1.45.96-2.32,0-1.84-1.5-3.33-3.33-3.33Zm-12.04,3.92c-.36-.15-.62-.51-.62-.92,0-.55.45-1,1-1,.49,0,.88.36.96.82-.49.32-.94.69-1.34,1.1Zm1.38,2.08c0-.55.45-1,1-1s1,.45,1,1-.45,1-1,1-1-.45-1-1Zm5,10c-2.21,0-4-2.51-4-5s1.79-4,4-4,4,1.51,4,4-1.79,5-4,5Zm4-9c-.55,0-1-.45-1-1s.45-1,1-1,1,.45,1,1-.45,1-1,1Zm2.38-3.08c-.4-.41-.85-.78-1.34-1.1.09-.47.47-.82.96-.82.55,0,1,.45,1,1,0,.42-.26.77-.62.92Z"/></g><path d="m19,6c0-.55-.45-1-1-1-.49,0-.88.36-.96.82.49.32.94.69,1.34,1.1.36-.15.62-.51.62-.92Z"/><path d="M16 8A1 1 0 1 0 16 10 1 1 0 1 0 16 8z"/><path d="m12,19c2.21,0,4-2.51,4-5s-1.79-4-4-4-4,1.51-4,4,1.79,5,4,5Zm0-7c.83,0,1.5.3,1.5.67,0,.67-.67,1.33-1.5,1.33s-1.5-.67-1.5-1.33c0-.37.67-.67,1.5-.67Z"/><path d="m5.62,6.92c.4-.41.85-.78,1.34-1.1-.09-.47-.47-.82-.96-.82-.55,0-1,.45-1,1,0,.42.26.77.62.92Z"/><path d="M8 8A1 1 0 1 0 8 10 1 1 0 1 0 8 8z"/></svg>