<svg xmlns="http://www.w3.org/2000/svg" width="24" height="24" viewBox="0 0 24 24"><g opacity="0.4"><path d="M18 17 15.75 17 14.75 17 12.5 17 11.5 17 9.25 17 8.25 17 6 17 5 17 3 17 3 21 21 21 21 17 19 17 18 17z"/><path d="m3,7.57v3.43h18v-3.43L12,2.94,3,7.57Zm10.5-.07c0,.83-.67,1.5-1.5,1.5s-1.5-.67-1.5-1.5.67-1.5,1.5-1.5,1.5.67,1.5,1.5Z"/></g><path d="M5 11H6V17H5z"/><path d="M18 11H19V17H18z"/><path d="M11.5 11H12.5V17H11.5z"/><path d="M8.25 11H9.25V17H8.25z"/><path d="M14.75 11H15.75V17H14.75z"/><path d="M12 6A1.5 1.5 0 1 0 12 9 1.5 1.5 0 1 0 12 6z"/></svg>