<svg xmlns="http://www.w3.org/2000/svg" width="24" height="24" viewBox="0 0 24 24"><g opacity="0.4"><path d="m16.5,12c-.17,0-.33-.03-.5-.05v3.05h-1v-3.28c-.47-.17-.91-.41-1.29-.72l-2.85,2.85-.71-.71,2.85-2.85c-.31-.39-.55-.82-.72-1.29h-3.28v-1h3.05c-.02-.17-.05-.33-.05-.5v-3.5H3v15h18v-2.5c0-2.48-2.02-4.5-4.5-4.5Z"/></g><path d="M18 19H20V20H18z"/><path d="M9 19H11V20H9z"/><path d="M3 19H5V20H3z"/><path d="M6 19H8V20H6z"/><path d="M15 19H17V20H15z"/><path d="M12 19H14V20H12z"/><path d="m12.05,8h-3.05v1h3.28c-.11-.32-.19-.65-.23-1Z"/><path d="m10.85,13.85l2.85-2.85c-.26-.21-.5-.45-.71-.71l-2.85,2.85.71.71Z"/><path d="m16,11.95c-.35-.04-.68-.11-1-.23v3.28h1v-3.05Z"/></svg>