<svg xmlns="http://www.w3.org/2000/svg" width="24" height="24" viewBox="0 0 24 24"><g opacity="0.4"><path d="m12,8c-1.1,0-2,.9-2,2,0,.95.67,1.75,1.56,1.95l-.31,9.05h1.5l-.31-9.05c.89-.2,1.56-1,1.56-1.95,0-1.1-.9-2-2-2Z"/></g><path d="m8.11,6.11c-1.04,1.04-1.61,2.42-1.61,3.89,0,1.47.57,2.85,1.61,3.89l.71-.71c-.85-.85-1.32-1.98-1.32-3.19,0-1.2.47-2.33,1.32-3.18l-.71-.71Z"/><path d="m15.18,6.82c.85.85,1.32,1.98,1.32,3.18s-.47,2.33-1.32,3.18l.71.71c1.04-1.04,1.61-2.42,1.61-3.89s-.57-2.85-1.61-3.89l-.71.71Z"/><path d="m5.28,3.28c-1.8,1.79-2.78,4.18-2.78,6.72s.99,4.92,2.78,6.72l.71-.71c-1.61-1.61-2.49-3.74-2.49-6.01s.88-4.4,2.49-6.01l-.71-.71Z"/><path d="m18.01,3.99c1.61,1.61,2.49,3.74,2.49,6.01s-.88,4.41-2.49,6.01l.71.71c1.79-1.79,2.78-4.18,2.78-6.72s-.99-4.92-2.78-6.72l-.71.71Z"/></svg>