<svg xmlns="http://www.w3.org/2000/svg" width="24" height="24" viewBox="0 0 24 24"><g opacity="0.4"><path d="m5.63,9h12.74c-1.1-2.94-3.54-5-6.37-5s-5.27,2.06-6.37,5Z"/><path d="m5.31,10c-.2.79-.31,1.63-.31,2.5,0,4.48,2.87,8.16,6.5,8.47v-7.97h1v7.97c3.63-.31,6.5-3.99,6.5-8.47,0-.87-.11-1.71-.31-2.5H5.31Z"/></g><path d="m7.6,5.9l-2.25-2.25-.71.71,2.29,2.29c.21-.27.43-.52.66-.75Z"/><path d="m5.14,10.8l-2.94-1.26-.39.92,3.22,1.38c.02-.35.06-.7.11-1.04Z"/><path d="m5.12,14h-3.12v1h3.31c-.08-.32-.14-.66-.19-1Z"/><path d="m5.82,16.48l-2.17,2.17.71.71,1.94-1.94c-.17-.3-.34-.61-.48-.93Z"/><path d="m17.7,17.41l1.94,1.94.71-.71-2.17-2.17c-.14.33-.3.64-.48.93Z"/><path d="m18.69,15h3.31v-1h-3.12c-.05.34-.11.68-.19,1Z"/><path d="m18.86,10.8c.06.34.09.69.11,1.04l3.22-1.38-.39-.92-2.94,1.26Z"/><path d="m19.35,4.35l-.71-.71-2.25,2.25c.24.23.46.48.66.75l2.29-2.29Z"/><path d="m18.37,9H5.63c-.12.32-.23.66-.32,1h13.38c-.09-.34-.2-.68-.32-1Z"/><path d="m12.5,20.97v-7.97h-1v7.97c.17.01.33.03.5.03s.33-.02.5-.03Z"/></svg>