<svg xmlns="http://www.w3.org/2000/svg" width="24" height="24" viewBox="0 0 24 24"><g opacity="0.4"><path d="m9,17.35l-2.82-2.35h-3.18v2.5c0,1.93,1.57,3.5,3.5,3.5h11c1.93,0,3.5-1.57,3.5-3.5v-2.5h-9.18l-2.82,2.35Z"/><path d="m12,3c-4.96,0-9,2.58-9,5.75v3.25h18v-3.25c0-3.17-4.04-5.75-9-5.75Zm.5,5c-.28,0-.5-.22-.5-.5s.22-.5.5-.5.5.22.5.5-.22.5-.5.5Zm2.5,0c-.55,0-1-.45-1-1s.45-1,1-1,1,.45,1,1-.45,1-1,1Zm2.5,1c-.28,0-.5-.22-.5-.5s.22-.5.5-.5.5.22.5.5-.22.5-.5.5Z"/></g><path d="M3 15 5 15 6.18 15 9 17.35 11.82 15 13 15 21 15 21 12 3 12 3 15z"/><path d="M17.5 8A.5.5 0 1 0 17.5 9 .5.5 0 1 0 17.5 8z"/><path d="M15 6A1 1 0 1 0 15 8 1 1 0 1 0 15 6z"/><path d="M12.5 7A.5.5 0 1 0 12.5 8 .5.5 0 1 0 12.5 7z"/></svg>