<svg xmlns="http://www.w3.org/2000/svg" width="24" height="24" viewBox="0 0 24 24"><g opacity="0.4"><path d="m8.5,8.93v1.07h1v-1.07c0-1.05-.41-2.05-1.14-2.81-.55-.57-.86-1.32-.86-2.11v-1.02h-1v1.02c0,1.05.41,2.05,1.14,2.81.55.57.86,1.32.86,2.11Z"/><path d="m12.5,8.93v1.07h1v-1.07c0-1.05-.41-2.05-1.14-2.81-.55-.57-.86-1.32-.86-2.11v-1.02h-1v1.02c0,1.05.41,2.05,1.14,2.81.55.57.86,1.32.86,2.11Z"/><path d="m16.5,8.93v1.07h1v-1.07c0-1.05-.41-2.05-1.14-2.81-.55-.57-.86-1.32-.86-2.11v-1.02h-1v1.02c0,1.05.41,2.05,1.14,2.81.55.57.86,1.32.86,2.11Z"/></g><path d="m3,11.5c0,3.15,1.95,6.18,5,7.81v1.69h8v-1.69c3.05-1.63,5-4.66,5-7.81v-.5H3v.5Z"/></svg>