<svg xmlns="http://www.w3.org/2000/svg" width="24" height="24" viewBox="0 0 24 24"><g opacity="0.4"><path d="m18,10c0-2.66-1.74-4.91-4.13-5.7-.28-.76-1.01-1.3-1.87-1.3s-1.59.54-1.87,1.3c-2.4.79-4.13,3.04-4.13,5.7v3.75l-2,1.5v2.75h16v-2.75l-2-1.5v-3.75Z"/></g><path d="m12,21c1.66,0,3-1.34,3-3h-6c0,1.66,1.34,3,3,3Z"/><path d="m17.66,4.07c1.51,1.51,2.34,3.52,2.34,5.66h1c0-2.4-.94-4.66-2.64-6.36l-.71.71Z"/><path d="m6.34,4.07l-.71-.71c-1.7,1.7-2.64,3.96-2.64,6.36h1c0-2.14.83-4.15,2.34-5.66Z"/></svg>