<svg xmlns="http://www.w3.org/2000/svg" width="24" height="24" viewBox="0 0 24 24"><g opacity="0.4"><path d="M20 8H21V12H20z"/><path d="M3 8H4V12H3z"/><path d="M5 19H8V21H5z"/><path d="M16 19H19V21H16z"/><path d="M12.5 7H19V12H12.5z"/><path d="M5 7H11.5V12H5z"/></g><path d="m20,5.5c0-1.38-1.12-2.5-2.5-2.5H6.5c-1.38,0-2.5,1.12-2.5,2.5v13.5h16V5.5Zm-12.5,11.5c-.83,0-1.5-.67-1.5-1.5s.67-1.5,1.5-1.5,1.5.67,1.5,1.5-.67,1.5-1.5,1.5Zm4-5h-6.5v-5h6.5v5Zm5,5c-.83,0-1.5-.67-1.5-1.5s.67-1.5,1.5-1.5,1.5.67,1.5,1.5-.67,1.5-1.5,1.5Zm2.5-5h-6.5v-5h6.5v5Z"/></svg>