<svg xmlns="http://www.w3.org/2000/svg" width="24" height="24" viewBox="0 0 24 24"><g opacity="0.4"><path d="m17.5,3H6.5c-1.93,0-3.5,1.57-3.5,3.5,0,.9.36,1.78,1,2.43v12.07h16v-12.07c.64-.66,1-1.53,1-2.43,0-1.93-1.57-3.5-3.5-3.5Zm-5.5,6c-.55,0-1-.45-1-1s.45-1,1-1,1,.45,1,1-.45,1-1,1Zm3.5,2c-.28,0-.5-.22-.5-.5s.22-.5.5-.5.5.22.5.5-.22.5-.5.5Zm.5-3c-.55,0-1-.45-1-1s.45-1,1-1,1,.45,1,1-.45,1-1,1Z"/></g><path d="M16 6A1 1 0 1 0 16 8 1 1 0 1 0 16 6z"/><path d="M12 7A1 1 0 1 0 12 9 1 1 0 1 0 12 7z"/><path d="M15.5 10A.5.5 0 1 0 15.5 11 .5.5 0 1 0 15.5 10z"/></svg>