<svg xmlns="http://www.w3.org/2000/svg" width="24" height="24" viewBox="0 0 24 24"><g opacity="0.4"><path d="m18.41,8.13c-.58.61-1.61,1.99-1.61,4.18h-1c0-2.41,1.07-3.97,1.78-4.76-.8-.49-1.7-.88-2.66-1.15-.82.5-2.52,2.01-2.52,5.91h-1c0-3.43,1.22-5.25,2.25-6.18-.54-.08-1.09-.13-1.65-.13-.78,0-1.54.09-2.28.25-.73.98-1.72,2.5-1.72,6.06h-1c0-2.85.62-4.53,1.25-5.64-3.04,1.12-5.25,3.5-5.25,6.12,0,2.87,4.04,5.2,9,5.2s9-2.33,9-5.2c0-1.77-1.01-3.43-2.59-4.67Z"/></g><path d="m9.71,6.26c-.5.11-.99.24-1.46.41-.63,1.11-1.25,2.79-1.25,5.64h1c0-3.55.98-5.06,1.71-6.05Z"/><path d="m18.41,8.13c-.26-.2-.54-.39-.83-.57-.71.79-1.78,2.35-1.78,4.75h1c0-2.19,1.02-3.57,1.61-4.18Z"/><path d="m14.92,6.41c-.42-.12-.85-.2-1.28-.27-1.03.94-2.24,2.76-2.24,6.17h1c0-3.9,1.7-5.4,2.52-5.9Z"/><path d="M14.92 6.41 14.92 6.41 14.93 6.41 14.92 6.41z"/></svg>