<svg xmlns="http://www.w3.org/2000/svg" width="24" height="24" viewBox="0 0 24 24"><g opacity="0.4"><path d="m3.53,9h16.95c-1.24-3.49-4.57-6-8.47-6s-7.24,2.51-8.47,6Z"/><path d="m19,10c0,1.66-1.34,3-3,3s-3-1.34-3-3h-2c0,1.66-1.34,3-3,3s-3-1.34-3-3h-1.77c-.15.64-.23,1.31-.23,2,0,4.96,4.04,9,9,9s9-4.04,9-9c0-.69-.08-1.36-.23-2h-1.77Zm-6.99,7.5c-1.47,0-2.85-.57-3.89-1.61l.71-.71c.85.85,1.98,1.32,3.18,1.32s2.33-.47,3.18-1.32l.71.71c-1.04,1.04-2.42,1.61-3.89,1.61Z"/></g><path d="m15.9,15.89l-.71-.71c-.85.85-1.98,1.32-3.18,1.32s-2.33-.47-3.18-1.32l-.71.71c1.04,1.04,2.42,1.61,3.89,1.61s2.85-.57,3.89-1.61Z"/><path d="m20.46,9H3.54c-.12.33-.22.66-.3,1h1.76c0,1.66,1.34,3,3,3s3-1.34,3-3h2c0,1.66,1.34,3,3,3s3-1.34,3-3h1.76c-.08-.34-.18-.67-.3-1Z"/></svg>