<svg xmlns="http://www.w3.org/2000/svg" width="24" height="24" viewBox="0 0 24 24"><g opacity="0.4"><path d="m13.76,17.04c.69-.69.72-1.34.76-2.08.04-.83.08-1.78,1.05-2.74.97-.97,1.91-1.01,2.74-1.05.58-.03,1.11-.06,1.64-.4-.11-.13-.22-.26-.34-.38-1.57-1.56-4.07-1.87-6.36-.78-.77.35-1.48.85-2.13,1.49-1.19,1.19-1.94,2.69-2.1,4.24-.11,1.11.07,2.14.52,3.02.75-.48,1.47-.53,2.13-.56.75-.04,1.39-.07,2.08-.76Z"/><path d="m18.37,12.16c-.75.04-1.39.07-2.08.76s-.72,1.34-.76,2.08c-.04.83-.08,1.78-1.05,2.74-.97.97-1.91,1.01-2.74,1.05-.58.03-1.11.06-1.64.4.11.13.22.26.34.38.92.92,2.2,1.43,3.6,1.43h0c1.75,0,3.53-.78,4.88-2.14,2.1-2.1,2.67-5.08,1.58-7.26-.75.48-1.47.53-2.13.56Z"/></g><path d="m8.98,11.67c0-.89-.38-1.31-.85-1.83-.52-.58-1.11-1.23-1.11-2.5s.59-1.93,1.11-2.5c.47-.52.84-.93.85-1.8-.16-.02-.32-.03-.48-.03-3.03,0-5.5,2.92-5.5,6.5,0,2.98,1.71,5.49,4.03,6.26.07-1.11.61-1.72,1.1-2.26.48-.53.85-.94.85-1.83Z"/><path d="m11.14,11.09c.64-.64,1.36-1.15,2.13-1.49.24-.11.48-.2.72-.29-.07-2.9-1.75-5.32-4.02-6.07-.07,1.11-.61,1.72-1.1,2.26-.48.52-.85.94-.85,1.83s.38,1.31.85,1.83c.52.58,1.11,1.23,1.11,2.5s-.59,1.93-1.11,2.5c-.47.52-.84.93-.85,1.8.16.02.32.03.48.03s.34-.01.5-.03c0-.21,0-.43.03-.64.17-1.55.92-3.05,2.1-4.24Z"/><path d="m11.68,17.8c-.66.03-1.38.07-2.13.56.15.3.33.58.54.84.53-.34,1.05-.37,1.64-.4.83-.04,1.78-.08,2.74-1.05.97-.97,1.01-1.91,1.05-2.74.04-.75.07-1.39.76-2.08s1.34-.72,2.08-.76c.66-.03,1.38-.07,2.13-.56-.15-.3-.32-.58-.54-.84-.53.34-1.06.37-1.64.4-.83.04-1.78.08-2.74,1.05-.97.97-1.01,1.91-1.05,2.74-.04.75-.07,1.39-.76,2.08s-1.34.72-2.08.76Z"/></svg>