<svg xmlns="http://www.w3.org/2000/svg" width="24" height="24" viewBox="0 0 24 24"><g opacity="0.4"><path d="m9.26,12.07c-1.53-1.52-3.47-2.63-5.63-3.18l-.82-.21.21.82c.56,2.16,1.66,4.11,3.2,5.64.4.4.82.76,1.25,1.09.62-.08,1.25-.07,1.88.05l.4.08v.1l1.31.62c-.61-.98-1.09-2.01-1.4-3.07-.2-.65-.32-1.3-.4-1.95Z"/><path d="m14.76,12.06c-.09.67-.22,1.33-.42,1.97-.3,1.02-.75,2.02-1.34,2.98.44-.16.86-.33,1.26-.53v-.11l.4-.08c.62-.12,1.25-.13,1.88-.05.43-.33.85-.69,1.25-1.09,1.54-1.53,2.65-3.48,3.2-5.64l.21-.82-.82.21c-2.15.55-4.09,1.65-5.62,3.16Z"/></g><path d="m19.87,18.48l.49-.39-.49-.39c-1.58-1.26-3.43-1.76-5.22-1.41l-.4.08v.11c-.4.2-.82.37-1.26.53.59-.96,1.05-1.96,1.34-2.98.35-1.11.52-2.28.52-3.47,0-2.57-.85-5.12-2.45-7.35l-.41-.57-.41.56c-2.37,3.3-3.06,7.14-1.93,10.81.31,1.06.78,2.08,1.4,3.07l-1.31-.62v-.1l-.4-.08c-1.79-.35-3.64.15-5.22,1.41l-.49.39.49.39c1.25.99,2.66,1.52,4.09,1.52,1.13,0,2.25-.34,3.28-.97v1.97h1v-1.97c1.04.63,2.15.97,3.28.97,1.43,0,2.84-.53,4.09-1.52Z"/></svg>