<svg xmlns="http://www.w3.org/2000/svg" width="24" height="24" viewBox="0 0 24 24"><g opacity="0.4"><path d="M12 10A3 3 0 1 0 12 16 3 3 0 1 0 12 10z"/><path d="m14.23,4h-4.47l-2.5,2H3v14h18V6h-4.27l-2.5-2Zm-2.23,13c-2.17,0-4-1.83-4-4s1.83-4,4-4,4,1.83,4,4-1.83,4-4,4Zm6-9c.55,0,1,.45,1,1s-.45,1-1,1-1-.45-1-1,.45-1,1-1Z"/></g><path d="M18 8A1 1 0 1 0 18 10 1 1 0 1 0 18 8z"/><path d="m12,17c2.17,0,4-1.83,4-4s-1.83-4-4-4-4,1.83-4,4,1.83,4,4,4Zm0-7c1.63,0,3,1.37,3,3s-1.37,3-3,3-3-1.37-3-3,1.37-3,3-3Z"/></svg>