<svg xmlns="http://www.w3.org/2000/svg" width="24" height="24" viewBox="0 0 24 24"><g opacity="0.4"><path d="m3,11v9h18v-10H3v1Zm14,3c1.1,0,2,.9,2,2s-.9,2-2,2-2-.9-2-2,.9-2,2-2Zm-5.5-2c.83,0,1.5.67,1.5,1.5s-.67,1.5-1.5,1.5-1.5-.67-1.5-1.5.67-1.5,1.5-1.5Zm-5,3c.83,0,1.5.67,1.5,1.5s-.67,1.5-1.5,1.5-1.5-.67-1.5-1.5.67-1.5,1.5-1.5Z"/></g><path d="m14.95,3.01l-.2-.05L3,10h18s-.03,0-.03,0c-.33-5.55-5.96-6.97-6.02-6.99Z"/><path d="M6.5 15A1.5 1.5 0 1 0 6.5 18 1.5 1.5 0 1 0 6.5 15z"/><path d="M17 14A2 2 0 1 0 17 18 2 2 0 1 0 17 14z"/><path d="M11.5 12A1.5 1.5 0 1 0 11.5 15 1.5 1.5 0 1 0 11.5 12z"/></svg>