<svg xmlns="http://www.w3.org/2000/svg" width="24" height="24" viewBox="0 0 24 24"><g opacity="0.4"><path d="m12,16.55c.84,0,1.55-.71,1.55-1.55s-.71-1.55-1.55-1.55-1.55.71-1.55,1.55.71,1.55,1.55,1.55Z"/><path d="m4,21h16v-12H4v12Zm5.07-8.92l.9.52c.29-.25.62-.44.97-.57v-1.03h2.12v1.03c.35.13.68.32.97.57l.9-.52,1.06,1.84-.89.51c.04.19.05.38.05.57s-.02.38-.05.57l.89.51-1.06,1.84-.9-.52c-.29.25-.62.44-.97.57v1.03h-2.12v-1.03c-.35-.13-.68-.32-.97-.57l-.9.52-1.06-1.84.89-.51c-.04-.19-.05-.38-.05-.57s.02-.38.05-.57l-.89-.51,1.06-1.84Z"/></g><path d="M16 3 15 3 15 5 9 5 9 3 8 3 8 5 4 5 4 9 20 9 20 5 16 5 16 3z"/><path d="m10.94,11v1.03c-.35.13-.68.32-.97.57l-.9-.52-1.06,1.84.89.51c-.04.19-.05.38-.05.57s.02.38.05.57l-.89.51,1.06,1.84.9-.52c.29.25.62.44.97.57v1.03h2.12v-1.03c.35-.13.68-.32.97-.57l.9.52,1.06-1.84-.89-.51c.04-.19.05-.38.05-.57s-.02-.38-.05-.57l.89-.51-1.06-1.84-.9.52c-.29-.25-.62-.44-.97-.57v-1.03h-2.12Zm2.61,4c0,.84-.71,1.55-1.55,1.55s-1.55-.71-1.55-1.55.71-1.55,1.55-1.55,1.55.71,1.55,1.55Z"/></svg>