<svg xmlns="http://www.w3.org/2000/svg" width="24" height="24" viewBox="0 0 24 24"><g opacity="0.4"><path d="m18,3H6v8H2v10h20V7h-4V3Zm-12,13h-2v-2h2v2Zm5,0h-2v-2h2v2Zm0-4h-2v-2h2v2Zm0-4h-2v-2h2v2Zm4,8h-2v-2h2v2Zm0-4h-2v-2h2v2Zm0-4h-2v-2h2v2Zm5,8h-2v-2h2v2Zm0-6v2h-2v-2h2Z"/></g><path d="M9 10H11V12H9z"/><path d="M18 10H20V12H18z"/><path d="M18 14H20V16H18z"/><path d="M13 14H15V16H13z"/><path d="M9 6H11V8H9z"/><path d="M9 14H11V16H9z"/><path d="M13 10H15V12H13z"/><path d="M13 6H15V8H13z"/><path d="M4 14H6V16H4z"/></svg>