<svg xmlns="http://www.w3.org/2000/svg" width="24" height="24" viewBox="0 0 24 24"><g opacity="0.4"><path d="m21,10c0,1.24-1.14,2.3-3,3.03v4c-.31.12-.65.23-1,.33v-4c-1.28.37-2.82.6-4.5.63v4c-.17,0-.33.01-.5.01s-.33-.01-.5-.01v-4c-1.68-.03-3.22-.26-4.5-.63v4c-.35-.1-.69-.21-1-.33v-4c-1.86-.73-3-1.79-3-3.03,0-2.28,3.87-4,9-4s9,1.72,9,4Z"/></g><path d="m17,13.36c-1.29.37-2.82.59-4.5.63v4c1.68-.04,3.21-.26,4.5-.63v-4Z"/><path d="m11.5,13.99c-1.68-.04-3.21-.26-4.5-.63v4c1.29.37,2.82.59,4.5.63v-4Z"/><path d="m6,17.03v-4c-1.86-.72-3-1.79-3-3.03v4c0,1.24,1.14,2.3,3,3.03Z"/><path d="m18,13.03v4c1.86-.72,3-1.79,3-3.03v-4c0,1.24-1.14,2.3-3,3.03Z"/></svg>