<svg xmlns="http://www.w3.org/2000/svg" width="24" height="24" viewBox="0 0 24 24"><g opacity="0.4"><path d="m4,21h16v-12H4v12Zm4.68-8.86c.87-.86,2.24-.86,3.1,0l.22.22.22-.22c.86-.86,2.23-.86,3.1,0,.86.86.86,2.21,0,3.07l-3.32,3.29-3.32-3.29c-.86-.86-.86-2.21,0-3.07Z"/></g><path d="M16 3 15 3 15 5 9 5 9 3 8 3 8 5 4 5 4 9 20 9 20 5 16 5 16 3z"/><path d="m15.32,15.21c.86-.86.86-2.21,0-3.07-.87-.86-2.23-.86-3.1,0l-.22.22-.22-.22c-.86-.86-2.23-.86-3.1,0-.86.86-.86,2.21,0,3.07l3.32,3.29,3.32-3.29Z"/></svg>