<svg xmlns="http://www.w3.org/2000/svg" width="24" height="24" viewBox="0 0 24 24"><g opacity="0.4"><path d="M3 12H7.5V16.5H3z"/><path d="M3 3H7.5V7.5H3z"/><path d="M12 3H16.5V7.5H12z"/><path d="M7.5 16.5H12V21H7.5z"/><path d="M16.5 16.5H21V21H16.5z"/><path d="M7.5 7.5H12V12H7.5z"/><path d="M16.5 7.5H21V12H16.5z"/><path d="M12 12H16.5V16.5H12z"/></g><path d="M7.5 3H12V7.5H7.5z"/><path d="M16.5 3H21V7.5H16.5z"/><path d="M3 7.5H7.5V12H3z"/><path d="M12 7.5H16.5V12H12z"/><path d="M7.5 12H12V16.5H7.5z"/><path d="M16.5 12H21V16.5H16.5z"/><path d="M3 16.5H7.5V21H3z"/><path d="M12 16.5H16.5V21H12z"/></svg>