<svg xmlns="http://www.w3.org/2000/svg" width="24" height="24" viewBox="0 0 24 24"><g opacity="0.4"><path d="M4 3 3 3 3 21 21 21 21 20 4 20 4 3z"/></g><path d="m19,5c-1.1,0-2,.9-2,2,0,.6.27,1.13.69,1.5l-1.27,2.55c-.14-.03-.27-.05-.42-.05-.45,0-.86.15-1.19.4l-1.99-1.59c.11-.25.18-.53.18-.82,0-1.1-.9-2-2-2s-2,.9-2,2c0,.62.29,1.16.73,1.53l-1.5,3.49c-.08,0-.15-.02-.23-.02-1.1,0-2,.9-2,2s.9,2,2,2,2-.9,2-2c0-.67-.33-1.25-.83-1.62l1.47-3.42c.12.02.24.04.37.04.45,0,.86-.15,1.19-.4l1.99,1.59c-.11.25-.18.53-.18.82,0,1.1.9,2,2,2s2-.9,2-2c0-.6-.27-1.13-.69-1.5l1.27-2.55c.14.03.27.05.42.05,1.1,0,2-.9,2-2s-.9-2-2-2Z"/></svg>