<svg xmlns="http://www.w3.org/2000/svg" width="24" height="24" viewBox="0 0 24 24"><g opacity="0.4"><path d="m5,7.98v2.23c.25,1.36,3.05,2.79,7,2.79s6.75-1.43,7-2.79v-2.23c-1.36,1.21-3.96,2.01-7,2.01s-5.64-.8-7-2.01Z"/><path d="m5,15.98v1.69c0,1.9,3.01,3.33,7,3.33s7-1.43,7-3.33v-1.69c-1.36,1.21-3.96,2.01-7,2.01s-5.64-.8-7-2.01Z"/><path d="m5,11.98v2.23c.25,1.36,3.05,2.79,7,2.79s6.75-1.43,7-2.79v-2.23c-1.36,1.21-3.96,2.01-7,2.01s-5.64-.8-7-2.01Z"/><path d="m18.99,6.26c-.08-1.86-3.05-3.26-6.99-3.26s-6.92,1.4-6.99,3.26c.32,1.34,3.1,2.73,6.99,2.73s6.67-1.39,6.99-2.73Z"/></g><path d="m12,16.99c-3.95,0-6.75-1.43-7-2.79v1.77c1.36,1.21,3.96,2.01,7,2.01s5.64-.8,7-2.01v-1.77c-.25,1.36-3.05,2.79-7,2.79Z"/><path d="m12,12.99c-3.95,0-6.75-1.43-7-2.79v1.77c1.36,1.21,3.96,2.01,7,2.01s5.64-.8,7-2.01v-1.77c-.25,1.36-3.05,2.79-7,2.79Z"/><path d="m12,8.99c-3.89,0-6.67-1.39-6.99-2.73,0,.02,0,.05,0,.07v1.65c1.36,1.21,3.96,2.01,7,2.01s5.64-.8,7-2.01v-1.65s0-.05,0-.07c-.32,1.34-3.1,2.73-6.99,2.73Z"/></svg>