<svg xmlns="http://www.w3.org/2000/svg" width="24" height="24" viewBox="0 0 24 24"><g opacity="0.4"><path d="M6 3 5.08 5 3 6 5.08 6.92 6 9 6.92 6.92 9 6 6.92 5.08 6 3z"/><path d="M15.62 4.38 15 3 14.38 4.33 13 5 14.38 5.62 15 7 15.62 5.62 17 5 15.62 4.38z"/><path d="M19 5 18.38 6.33 17 7 18.38 7.62 19 9 19.62 7.62 21 7 19.62 6.38 19 5z"/></g><path d="m4,19h1v2h2v-2h10v2h2v-2h1v-5h-1.16l-2-5H7.16l-2,5h-1.16v5Zm13-1.5c-.55,0-1-.45-1-1s.45-1,1-1,1,.45,1,1-.45,1-1,1Zm-10-2c.55,0,1,.45,1,1s-.45,1-1,1-1-.45-1-1,.45-1,1-1Zm.84-5.5h8.32l1.6,4H6.24l1.6-4Z"/></svg>