<svg xmlns="http://www.w3.org/2000/svg" width="24" height="24" viewBox="0 0 24 24"><g opacity="0.4"><path d="m5,7v14h15V3H5v4Zm7.5,0c1.43,0,2.5,1.07,2.5,2.5s-1.07,2.5-2.5,2.5-2.5-1.07-2.5-2.5,1.07-2.5,2.5-2.5Zm-4.5,9c0-1.66,1.34-3,3-3h3c1.66,0,3,1.34,3,3v1h-9v-1Z"/></g><path d="M12.5 7A2.5 2.5 0 1 0 12.5 12 2.5 2.5 0 1 0 12.5 7z"/><path d="m17,16c0-1.66-1.34-3-3-3h-3c-1.66,0-3,1.34-3,3v1h9v-1Z"/><path d="M3 10H5V11H3z"/><path d="M3 7H5V8H3z"/><path d="M3 13H5V14H3z"/><path d="M3 16H5V17H3z"/></svg>