<svg xmlns="http://www.w3.org/2000/svg" width="24" height="24" viewBox="0 0 24 24"><g opacity="0.4"><path d="m7,10c0,1.06.24,2.06.67,2.96,2.06.53,4.26.21,6.03-.88,0,0,0,0,0,0,2.12-1.32,4.78-1.63,7.2-.89.07-.39.11-.78.11-1.19v-2H7v2Z"/></g><path d="m7.67,12.96c1.05,2.24,3.25,3.82,5.83,4v3.04h-2.5v1h6v-1h-2.5v-3.02c3.23-.23,5.85-2.66,6.39-5.79-2.41-.75-5.08-.43-7.2.89,0,0,0,0,0,0-1.76,1.1-3.96,1.42-6.03.88Z"/><path d="m7.29,12c-.19-.63-.29-1.3-.29-2v-2h4c0-1.07-.42-2.07-1.17-2.83-.75-.76-1.76-1.17-2.83-1.17s-2.07.42-2.83,1.17c-.76.75-1.17,1.76-1.17,2.83s.42,2.07,1.17,2.83c.75.76,1.76,1.17,2.83,1.17h.29Z"/><path d="M15.72 8 16.88 8 19.14 4.23 20.7 5.4 21.3 4.6 18.86 2.77 15.72 8z"/></svg>