<svg xmlns="http://www.w3.org/2000/svg" width="24" height="24" viewBox="0 0 24 24"><g opacity="0.4"><path d="m5.35,3h-2.35v1h1.65l4.5,12h8.69l3.38-9H6.85l-1.5-4Zm6.03,7.09l.71-.71,1.41,1.41,1.41-1.41.71.71-1.41,1.41,1.41,1.41-.71.71-1.41-1.41-1.41,1.41-.71-.71,1.41-1.41-1.41-1.41Z"/></g><path d="M10.5 18A1.5 1.5 0 1 0 10.5 21 1.5 1.5 0 1 0 10.5 18z"/><path d="M16.5 18A1.5 1.5 0 1 0 16.5 21 1.5 1.5 0 1 0 16.5 18z"/><path d="M12.09 13.62 13.5 12.21 14.91 13.62 15.62 12.91 14.21 11.5 15.62 10.09 14.91 9.38 13.5 10.79 12.09 9.38 11.38 10.09 12.79 11.5 11.38 12.91 12.09 13.62z"/></svg>