<svg xmlns="http://www.w3.org/2000/svg" width="24" height="24" viewBox="0 0 24 24"><g opacity="0.4"><path d="m9,15h12V3h-12v12Zm3.53-7.77l-.38-.38.71-.71.38.38,1.77,1.77,1.77-1.77.38-.38.71.71-.38.38-1.77,1.77,1.77,1.77.38.38-.71.71-.38-.38-1.77-1.77-1.77,1.77-.38.38-.71-.71.38-.38,1.77-1.77-1.77-1.77Z"/></g><path d="M15 15 9 15 9 9 3 9 3 21 15 21 15 15z"/><path d="M12.15 11.15 12.85 11.85 13.23 11.47 15 9.71 16.77 11.47 17.15 11.85 17.85 11.15 17.47 10.77 15.71 9 17.47 7.23 17.85 6.85 17.15 6.15 16.77 6.53 15 8.29 13.23 6.53 12.85 6.15 12.15 6.85 12.53 7.23 14.29 9 12.53 10.77 12.15 11.15z"/></svg>