<svg xmlns="http://www.w3.org/2000/svg" width="24" height="24" viewBox="0 0 24 24"><g opacity="0.4"><path d="m12.5,6h2.5v-1h-2.5v-2h-1v2h-2.5v1h2.5v2.21l-5.5,3.25v9.54h4v-3c0-1.1.9-2,2-2s2,.9,2,2v3h4v-9.54l-5.5-3.25v-2.21Zm1,6.5c0,.83-.67,1.5-1.5,1.5s-1.5-.67-1.5-1.5.67-1.5,1.5-1.5,1.5.67,1.5,1.5Z"/></g><path d="M6 13.19 2 14.69 2 21 6 21 6 13.19z"/><path d="M18 21 22 21 22 14.69 18 13.19 18 21z"/><path d="M12 11A1.5 1.5 0 1 0 12 14 1.5 1.5 0 1 0 12 11z"/><path d="m14,18c0-1.1-.9-2-2-2s-2,.9-2,2v3h4v-3Z"/></svg>