<svg xmlns="http://www.w3.org/2000/svg" width="24" height="24" viewBox="0 0 24 24"><g opacity="0.4"><path d="m5,15.1v2.56c0,1.78,3.27,3.33,7,3.33s7-1.56,7-3.33v-2.56c-1.4,1.18-4.11,2.03-7,2.03s-5.6-.85-7-2.03Z"/><path d="m5,11.1v2.26c0,1.09,3.01,2.77,7,2.77s7-1.68,7-2.77v-2.26c-1.4,1.18-4.11,2.03-7,2.03s-5.6-.85-7-2.03Z"/><path d="m12,3c-3.73,0-7,1.56-7,3.33v3.03c0,1.09,3.01,2.77,7,2.77s7-1.68,7-2.77v-3.03c0-1.78-3.27-3.33-7-3.33Z"/></g><path d="m12,12.13c-3.99,0-7-1.68-7-2.77v1.74c1.4,1.18,4.11,2.03,7,2.03s5.6-.85,7-2.03v-1.74c0,1.09-3.01,2.77-7,2.77Z"/><path d="m12,16.13c-3.99,0-7-1.68-7-2.77v1.74c1.4,1.18,4.11,2.03,7,2.03s5.6-.85,7-2.03v-1.74c0,1.09-3.01,2.77-7,2.77Z"/></svg>