<svg xmlns="http://www.w3.org/2000/svg" width="24" height="24" viewBox="0 0 24 24"><g opacity="0.4"><path d="m4,10h16v-6H4v6Zm11.5-4c.55,0,1,.45,1,1s-.45,1-1,1-1-.45-1-1,.45-1,1-1Zm-3.5,0c.55,0,1,.45,1,1s-.45,1-1,1-1-.45-1-1,.45-1,1-1Zm-3.5,0c.55,0,1,.45,1,1s-.45,1-1,1-1-.45-1-1,.45-1,1-1Z"/></g><path d="m4,20h16v-10H4v10Zm8-8s2,1.49,2,3c0,1.1-.9,2-2,2s-2-.9-2-2c0-1.51,2-3,2-3Z"/><path d="M8.5 6A1 1 0 1 0 8.5 8 1 1 0 1 0 8.5 6z"/><path d="M15.5 6A1 1 0 1 0 15.5 8 1 1 0 1 0 15.5 6z"/><path d="M12 6A1 1 0 1 0 12 8 1 1 0 1 0 12 6z"/></svg>