<svg xmlns="http://www.w3.org/2000/svg" width="24" height="24" viewBox="0 0 24 24"><g opacity="0.4"><path d="M12 3A2.5 2.5 0 1 0 12 8 2.5 2.5 0 1 0 12 3z"/><path d="M5.5 9.5A2.5 2.5 0 1 0 5.5 14.5 2.5 2.5 0 1 0 5.5 9.5z"/><path d="M18.5 9.5A2.5 2.5 0 1 0 18.5 14.5 2.5 2.5 0 1 0 18.5 9.5z"/><path d="M12 16A2.5 2.5 0 1 0 12 21 2.5 2.5 0 1 0 12 16z"/></g><path d="M5.5 3A2.5 2.5 0 1 0 5.5 8 2.5 2.5 0 1 0 5.5 3z"/><path d="M18.5 3A2.5 2.5 0 1 0 18.5 8 2.5 2.5 0 1 0 18.5 3z"/><path d="M12 9.5A2.5 2.5 0 1 0 12 14.5 2.5 2.5 0 1 0 12 9.5z"/></svg>