<svg xmlns="http://www.w3.org/2000/svg" width="24" height="24" viewBox="0 0 24 24"><g opacity="0.4"><path d="m18.36,8.33v-2.68h-2.68l-1.34-2.33-2.33,1.34-2.33-1.34-1.34,2.33h-2.68v2.68l-2.33,1.35,1.35,2.33-1.35,2.33,2.33,1.34v2.68h2.68l1.34,2.33,2.33-1.35,2.33,1.35,1.34-2.33h2.68v-2.68l2.33-1.34-1.35-2.33,1.35-2.33-2.33-1.35Zm-8.36-.33c.55,0,1,.45,1,1s-.45,1-1,1-1-.45-1-1,.45-1,1-1Zm4,8c-.55,0-1-.45-1-1s.45-1,1-1,1,.45,1,1-.45,1-1,1Zm-4.6.3l-.8-.6,6-8,.8.6-6,8Z"/></g><path class="st0" d="M8.6 15.7 11.6 11.7 14.6 7.7 15 8 15.4 8.3 12.4 12.3 9.4 16.3 9 16z"/><path class="st0" d="M10 8A1 1 0 1 0 10 10 1 1 0 1 0 10 8z"/><path class="st0" d="M14 14A1 1 0 1 0 14 16 1 1 0 1 0 14 14z"/></svg>