<svg xmlns="http://www.w3.org/2000/svg" width="24" height="24" viewBox="0 0 24 24"><g opacity="0.4"><path d="m5.47,9.97c-.37-.68-.58-1.43-.58-2.22,0-.25.04-.5.08-.75-.15,0-1.06,0-1.97,0,0,0,0,2.63,2.47,2.97Z"/><path d="M9 6A1 1 0 1 0 9 8 1 1 0 1 0 9 6z"/></g><path d="m18.65,11.87c-1.91.96-4.18.69-5.77-.66,1.16-1.08,1.71-2.67,1.44-4.27-.34-2.02-2.07-3.66-4.11-3.91-1.35-.16-2.72.26-3.73,1.16-1.01.9-1.6,2.2-1.6,3.55,0,1.21.46,2.35,1.28,3.22-.02,0-.04.02-.06.03-2.06.91-3.3,3.03-3.09,5.28.25,2.65,2.62,4.72,5.4,4.72h5.47c4.05,0,7.11-2.79,7.11-6.5v-4.65l-1.06,1.06c-.42.42-.85.74-1.29.96Zm-9.65-3.87c-.55,0-1-.45-1-1s.45-1,1-1,1,.45,1,1-.45,1-1,1Z"/></svg>