<svg xmlns="http://www.w3.org/2000/svg" width="24" height="24" viewBox="0 0 24 24"><g opacity="0.4"><path d="m14.83,12.83c.76-.76,1.17-1.76,1.17-2.83s-.42-2.07-1.17-2.83c-1.51-1.51-4.15-1.51-5.66,0-.22.22-.4.47-.56.73l.74.74c.14-.27.31-.53.54-.76,1.13-1.13,3.11-1.13,4.24,0,.57.57.88,1.32.88,2.12s-.31,1.55-.88,2.12l.71.71Z"/><path d="m8,10h1c0-.09.02-.18.03-.27l-.85-.85c-.1.36-.18.73-.18,1.12Z"/><path d="m15,17c0,2.87-2.97,3-3,3-1.79,0-3-1.21-3-3h-1c0,2.36,1.65,4,4,4,1.04,0,4-.73,4-4,0-.1.01-.18.02-.28l-.88-.88c-.09.35-.14.73-.14,1.15Z"/><path d="m12,3c-2.3,0-4.3,1.06-5.57,2.72l.72.72c1.08-1.49,2.83-2.44,4.85-2.44,3.36,0,6,2.64,6,6,0,1.33-.68,2.24-1.4,3.2-.38.51-.77,1.03-1.07,1.62l.76.76c.26-.64.68-1.2,1.11-1.78.79-1.05,1.6-2.13,1.6-3.8,0-3.93-3.07-7-7-7Z"/><path d="m5,10h1c0-.97.22-1.87.62-2.68l-.75-.75c-.55,1.01-.87,2.17-.87,3.42Z"/></g><path class="st0" d="M2.6 3.4 3 3 3.4 2.6 12.4 11.6 21.4 20.6 21 21 20.6 21.4 11.6 12.4z"/></svg>