<svg xmlns="http://www.w3.org/2000/svg" width="24" height="24" viewBox="0 0 24 24"><g opacity="0.4"><path d="m15.33,9.81c-1.13-.67-2.04-1.61-2.7-2.78-.27-.48-.47-.96-.63-1.41-.15.45-.35.93-.63,1.41-.66,1.17-1.57,2.11-2.7,2.78-1.27.75-2.82,1.15-4.6,1.22-.04.32-.07.64-.07.97,0,4.41,3.59,8,8,8s8-3.59,8-8c0-.33-.03-.65-.07-.97-1.78-.07-3.34-.47-4.6-1.22Zm-6.83,5.19c-.83,0-1.5-.67-1.5-1.5s.67-1.5,1.5-1.5,1.5.67,1.5,1.5-.67,1.5-1.5,1.5Zm7,0c-.83,0-1.5-.67-1.5-1.5s.67-1.5,1.5-1.5,1.5.67,1.5,1.5-.67,1.5-1.5,1.5Z"/></g><path d="M8.5 12A1.5 1.5 0 1 0 8.5 15 1.5 1.5 0 1 0 8.5 12z"/><path d="M15.5 12A1.5 1.5 0 1 0 15.5 15 1.5 1.5 0 1 0 15.5 12z"/><path d="m21,11.97c-.01-3.88-2.49-7.17-5.94-8.42l-.06-.05h-.07c-.92-.32-1.9-.5-2.93-.5C7.05,3,3.02,7.02,3,11.97h0l-.53,9.03h19.06l-.53-9.03h0Zm-9,8.03c-4.41,0-8-3.59-8-8,0-.33.03-.65.07-.97,1.78-.07,3.34-.47,4.6-1.22,1.13-.67,2.04-1.61,2.7-2.78.27-.48.47-.96.63-1.41.15.45.35.93.63,1.41.66,1.17,1.57,2.11,2.7,2.78,1.27.75,2.82,1.15,4.6,1.22.04.32.07.64.07.97,0,4.41-3.59,8-8,8Z"/></svg>