<svg xmlns="http://www.w3.org/2000/svg" width="24" height="24" viewBox="0 0 24 24"><g opacity="0.4"><path d="m15,6.58v-3.05c-.94-.33-1.95-.53-3-.53s-2.06.19-3,.53v3.05c0,1.37-.62,2.66-1.69,3.51l-4.15,3.57c.78,4.17,4.45,7.34,8.84,7.34s8.06-3.17,8.84-7.34l-4.16-3.58c-1.06-.85-1.67-2.13-1.67-3.5Zm-6.5,8.42c-.83,0-1.5-.67-1.5-1.5s.67-1.5,1.5-1.5,1.5.67,1.5,1.5-.67,1.5-1.5,1.5Zm7,0c-.83,0-1.5-.67-1.5-1.5s.67-1.5,1.5-1.5,1.5.67,1.5,1.5-.67,1.5-1.5,1.5Z"/></g><path d="M8.5 12A1.5 1.5 0 1 0 8.5 15 1.5 1.5 0 1 0 8.5 12z"/><path d="M15.5 12A1.5 1.5 0 1 0 15.5 15 1.5 1.5 0 1 0 15.5 12z"/><path d="m7.31,10.09c1.07-.86,1.69-2.14,1.69-3.51v-3.05c-3.49,1.24-6,4.57-6,8.47,0,.57.06,1.12.16,1.66l4.15-3.57Z"/><path d="m15,3.53v3.05c0,1.37.62,2.66,1.67,3.5l4.16,3.58c.1-.54.16-1.09.16-1.66,0-3.91-2.51-7.24-6-8.47Z"/></svg>