<svg xmlns="http://www.w3.org/2000/svg" width="24" height="24" viewBox="0 0 24 24"><g opacity="0.4"><path d="m4.28,3.78l-.28.14v2.94c1.13-.52,2.27-.67,3.4-.61v-3.19c-1.03.02-2.07.23-3.12.73Z"/><path d="m4,10.85v4.18l.72-.35c.89-.43,1.78-.61,2.68-.63v-3.81c-1.13-.06-2.27.09-3.4.61Z"/><path d="m10.8,14.55c.52.14,1.03.28,1.56.44.61.18,1.22.35,1.84.5v-3.42c-1.13-.35-2.27-.78-3.4-1.13v3.61Z"/><path d="m20.72,15.22l.28-.14v-2.94c-1.13.52-2.27.67-3.4.61v3.19c1.03-.02,2.07-.22,3.12-.73Z"/><path d="m17.6,4.95v3.81c1.13.06,2.27-.09,3.4-.61V3.97l-.72.35c-.89.43-1.78.61-2.68.63Z"/><path d="m14.2,12.06c1.13.35,2.27.63,3.4.69v-4c-1.13-.06-2.27-.34-3.4-.69v4Z"/><path d="m7.4,6.25v4c1.13.06,2.27.34,3.4.69v-4c-1.13-.35-2.27-.63-3.4-.69Z"/><path d="m14.2,4.45c-.52-.14-1.03-.28-1.56-.44-.61-.18-1.22-.35-1.84-.51v3.43c1.13.35,2.27.78,3.4,1.13v-3.61Z"/></g><path d="m10.8,3.51c-1.12-.28-2.26-.48-3.4-.46v3.19c1.13.06,2.27.34,3.4.69v-3.43Z"/><path d="m7.4,14.05c1.12-.03,2.25.19,3.4.49v-3.61c-1.13-.35-2.27-.63-3.4-.69v3.81Z"/><path d="m17.6,4.95c-1.12.03-2.25-.19-3.4-.49v3.61c1.13.35,2.27.63,3.4.69v-3.81Z"/><path d="m14.2,15.48c1.06.27,2.13.47,3.21.47.06,0,.13,0,.19,0v-3.19c-1.13-.06-2.27-.34-3.4-.69v3.42Z"/><path d="m4,6.86v4c1.13-.52,2.27-.67,3.4-.61v-4c-1.13-.06-2.27.09-3.4.61Z"/><path d="m10.8,6.94v4c1.13.35,2.27.78,3.4,1.13v-4c-1.13-.35-2.27-.78-3.4-1.13Z"/><path d="m17.6,8.76v4c1.13.06,2.27-.09,3.4-.61v-4c-1.13.52-2.27.67-3.4.61Z"/><path d="m5,14.57c-.09.04-.19.06-.28.11l-.72.35v5.97h1v-6.43Z"/></svg>