<svg xmlns="http://www.w3.org/2000/svg" width="24" height="24" viewBox="0 0 24 24"><g opacity="0.4"><path d="m3.98,8l-1.03,12h18.09l-1.03-12H3.98Zm8.02,7c-2.21,0-4-1.79-4-4h1c0,1.65,1.35,3,3,3s3-1.35,3-3h1c0,2.21-1.79,4-4,4Z"/></g><path d="m17.36,8l.95-.95c.23-.23.41-.51.53-.8,0-.01,0-.03.01-.04.05-.12.09-.25.11-.38.03-.15.04-.3.04-.46,0-.32-.06-.62-.18-.91-.12-.28-.29-.54-.52-.77-.69-.69-1.71-.86-2.57-.52-.29.11-.56.29-.79.52l-2.14,2.14c-.5-1.65-2-2.83-3.81-2.83-2.21,0-4,1.79-4,4,0,.35.05.68.14,1h12.22Z"/><path d="m12,14c-1.65,0-3-1.35-3-3h-1c0,2.21,1.79,4,4,4s4-1.79,4-4h-1c0,1.65-1.35,3-3,3Z"/></svg>