<svg xmlns="http://www.w3.org/2000/svg" width="24" height="24" viewBox="0 0 24 24"><g opacity="0.4"><path d="m12,20c-1.75,0-3.39-.64-4.67-1.81-.23.25-.51.45-.83.59,1.49,1.43,3.42,2.21,5.5,2.21s4.01-.79,5.5-2.21c-.32-.14-.59-.34-.83-.59-1.28,1.17-2.92,1.81-4.67,1.81Z"/><path d="m14.49,5.43s0,.05,0,.07c0,.33-.07.64-.18.92,2.77.98,4.68,3.6,4.68,6.58,0,.37-.04.71-.09,1.04.35.06.67.18.95.37.08-.45.14-.91.14-1.41,0-3.46-2.25-6.5-5.51-7.57Z"/><path d="m9.68,6.42c-.11-.29-.18-.6-.18-.92,0-.03,0-.05,0-.07-3.26,1.07-5.51,4.12-5.51,7.57,0,.49.05.96.14,1.41.28-.18.6-.31.95-.37-.05-.33-.09-.68-.09-1.04,0-2.97,1.91-5.6,4.68-6.58Z"/></g><path d="M12 3A2.5 2.5 0 1 0 12 8 2.5 2.5 0 1 0 12 3z"/><path d="M18.5 14A2.5 2.5 0 1 0 18.5 19 2.5 2.5 0 1 0 18.5 14z"/><path d="M5.5 14A2.5 2.5 0 1 0 5.5 19 2.5 2.5 0 1 0 5.5 14z"/></svg>