<svg xmlns="http://www.w3.org/2000/svg" width="24" height="24" viewBox="0 0 24 24"><g opacity="0.4"><path d="M5 12H11.5V21H5z"/><path d="M12.5 12H19V21H12.5z"/><path d="M16 8 12.63 8 11.37 8 8 8 6.01 8 3 8 3 11 21 11 21 8 17.99 8 16 8z"/></g><path d="M11.5 21 12.5 21 12.5 12 19 12 19 11 5 11 5 12 11.5 12 11.5 21z"/><path d="m8,8c-.64,0-1.5-.21-1.5-2,0-1.1.9-2,2-2,1.48,0,2.47,2.5,2.87,4h1.27c.4-1.5,1.38-4,2.87-4,1.1,0,2,.9,2,2,0,1.79-.86,2-1.5,2h1.99c.3-.45.51-1.07.51-2,0-1.65-1.35-3-3-3-1.83,0-2.93,2.11-3.5,3.69-.57-1.58-1.67-3.69-3.5-3.69-1.65,0-3,1.35-3,3,0,.93.21,1.55.51,2h1.99Z"/></svg>