<svg xmlns="http://www.w3.org/2000/svg" width="24" height="24" viewBox="0 0 24 24"><g opacity="0.4"><path d="m19.57,14.28c-.14-.3-.41-.51-.58-.46-.17.05-.23.46-.12.9.11.44.26.93.33,1.09.07.15.28.52.48.85.23-.38.44-.77.61-1.18,0,0,0,0,0,0-.25-.36-.57-.9-.72-1.2Z"/><path d="m16.74,15.69c-.17-.03-.55.01-.85.09s-.68,0-.84-.15c-.16-.16-.45.11-.64.59-.19.49-.53,1.28-.76,1.76-.23.48-.6.7-.82.48-.22-.21-.47-.67-.55-1.01-.08-.34-.39-.71-.68-.82-.29-.11-.38-.02-.21.19s.22.61.1.88c-.12.27-.49.12-.82-.35-.33-.46-.73-.94-.88-1.05-.16-.11-.57-.11-.91,0-.34.11-.81.36-1.03.54s-.62.31-.87.29c-.26-.02-.59-.12-.75-.21-.15-.09-.35-.31-.44-.48-.09-.17-.12-.54-.06-.82s.38-.49.72-.49c.34,0,.71-.03.83-.07.12-.04.21-.3.21-.56s.29-.45.65-.41c.35.04.67-.3.71-.75.04-.46.26-.93.5-1.06.24-.13.63-.35.88-.49s.26-.31.03-.38-.33-.41-.23-.76c.1-.35.5-1,.9-1.45.4-.45,1.01-1,1.35-1.22.35-.22.94-.31,1.31-.21.37.11.55.42.39.69s-.12.63.09.8c.21.16.53.06.71-.24.18-.29.44-.59.57-.67.14-.08.46-.5.72-.94.26-.44.47-1.12.47-1.51s.06-.87.12-1.08c.04-.13.12-.28.2-.41-1.4-.9-3.06-1.43-4.85-1.43-.26,0-.51.02-.77.04-.01.04-.02.08-.05.12-.27.42-.73,1.02-1.03,1.33-.3.31-.78.75-1.06.98-.28.23-.69.56-.89.74-.21.18-.71.28-1.12.23s-1.14-.1-1.64-.1c-.16,0-.27-.04-.37-.09-1.3,1.56-2.08,3.56-2.08,5.75s.85,4.34,2.24,5.93c.1-.01.24,0,.44.07.78.27,2.02.38,2.76.26.75-.12,1.47.21,1.6.75.14.53.6,1.02,1.04,1.08.43.06,1.02,0,1.31-.15.29-.14.82-.23,1.18-.19.36.04,1.07.06,1.58.06s1.03-.21,1.15-.44c.12-.24.17-.57.11-.73s-.5-.22-.97-.12c-.47.1-.88-.15-.91-.55-.03-.4.45-.93,1.06-1.18l.49-.09.17-.03c.56-.07.96-.3.9-.51-.06-.22-.25-.42-.41-.44Zm-1.68-10.84c.14-.19.32-.32.41-.29.09.03.14.2.11.39-.03.18-.02.53,0,.76.03.24.15.54.26.66.11.13.15.27.08.32-.07.05-.35.05-.62,0-.28-.05-.5-.41-.5-.8s.11-.87.25-1.06Zm-7.94,6.56c-.06-.21-.11-.56-.11-.78s.11-.45.26-.5c.14-.06.34-.1.45-.1s.24.05.3.12c.06.06.04.21-.03.32-.07.11-.19.44-.26.73-.07.29-.02.61.11.72.13.11.21.31.18.46-.03.14-.16.32-.27.39s-.38.09-.59.06c-.21-.04-.46-.06-.56-.06-.1,0-.19-.03-.2-.09-.01-.06.17-.27.41-.48.24-.21.38-.55.32-.76Zm-1.28.3c.06-.17.24-.35.4-.38.16-.03.34-.06.41-.06s.14.07.16.17c.02.09-.19.33-.46.53s-.52.3-.56.21c-.03-.08,0-.3.06-.47Z"/></g><path d="m7.09,6.44c.41.05.91-.05,1.12-.23.21-.18.61-.51.89-.74.28-.23.76-.67,1.06-.98.3-.31.76-.91,1.03-1.33.03-.05.04-.08.05-.12-2.47.21-4.66,1.41-6.15,3.21.1.05.21.09.37.09.5,0,1.23.05,1.64.1Z"/><path d="m7.98,10.45c.07-.11.08-.25.03-.32-.06-.06-.19-.12-.3-.12s-.31.05-.45.1c-.14.06-.26.28-.26.5s.05.57.11.78c.06.21-.08.55-.32.76-.24.21-.42.43-.41.48.01.06.1.1.2.09.1,0,.35.02.56.06.21.04.47.01.59-.06s.24-.24.27-.39c.03-.14-.05-.35-.18-.46-.13-.11-.18-.43-.11-.72.07-.29.19-.62.26-.73Z"/><path d="m15.31,6.71c.28.05.56.04.62,0,.07-.05.03-.2-.08-.32-.11-.13-.23-.43-.26-.66-.03-.24-.03-.58,0-.76.03-.18-.02-.36-.11-.39-.09-.03-.27.1-.41.29-.14.19-.25.66-.25,1.06s.23.76.5.8Z"/><path d="m16.85,4.43c-.08.14-.16.28-.2.41-.07.2-.12.69-.12,1.08s-.21,1.07-.47,1.51c-.26.44-.58.86-.72.94-.14.08-.4.38-.57.67-.18.29-.5.4-.71.24-.21-.16-.25-.52-.09-.8s-.01-.58-.39-.69c-.37-.11-.96-.01-1.31.21-.35.22-.96.77-1.35,1.22-.4.45-.8,1.1-.9,1.45-.1.35,0,.69.23.76s.21.24-.03.38-.64.36-.88.49c-.24.13-.46.6-.5,1.06-.04.46-.35.8-.71.75-.35-.04-.65.14-.65.41s-.1.52-.21.56c-.12.04-.49.08-.83.07-.34,0-.66.21-.72.49s-.03.64.06.82c.09.17.29.39.44.48.15.09.49.18.75.21.26.02.65-.11.87-.29s.68-.43,1.03-.54c.34-.11.75-.11.91,0,.16.11.56.59.88,1.05.33.46.69.62.82.35.12-.27.08-.67-.1-.88s-.08-.3.21-.19c.29.11.59.47.68.82.08.34.33.8.55,1.01.22.21.59,0,.82-.48.23-.48.57-1.27.76-1.76.19-.49.48-.75.64-.59.16.16.54.23.84.15s.69-.12.85-.09c.17.03.35.23.41.44.06.22-.34.45-.9.51l-.17.03-.49.09c-.62.25-1.09.78-1.06,1.18.03.4.44.65.91.55.47-.1.91-.04.97.12s.01.5-.11.73c-.12.24-.64.44-1.15.44s-1.22-.02-1.58-.06c-.36-.04-.89.05-1.18.19-.29.14-.88.21-1.31.15-.43-.06-.9-.55-1.04-1.08-.14-.53-.86-.87-1.6-.75-.75.12-1.99,0-2.76-.26-.2-.07-.34-.08-.44-.07,1.65,1.88,4.06,3.07,6.76,3.07,3.26,0,6.1-1.74,7.68-4.33-.2-.33-.41-.7-.48-.85-.08-.16-.23-.65-.33-1.09-.11-.44-.05-.85.12-.9.17-.05.44.15.58.46.14.3.47.85.72,1.2,0,0,0,0,0,0,.45-1.07.7-2.25.7-3.49,0-3.18-1.66-5.97-4.15-7.57Z"/><path d="m6.64,11.26c-.07,0-.25.03-.41.06-.16.03-.34.2-.4.38-.06.17-.09.39-.06.47.03.08.28-.01.56-.21s.48-.44.46-.53c-.02-.09-.09-.17-.16-.17Z"/></svg>