<svg xmlns="http://www.w3.org/2000/svg" width="24" height="24" viewBox="0 0 24 24"><g opacity="0.4"><path d="m17.21,11c-1.03,0-1.99.48-2.7,1.34-2.02,2.33-4.37,1.17-5.29.56.85-.58,1.39-1.52,1.39-2.62,0-1.81-1.5-3.29-3.33-3.29s-3.33,1.47-3.33,3.29h1c0-1.26,1.05-2.29,2.33-2.29s2.33,1.03,2.33,2.29-1.03,2.21-2.33,2.21h-.28v1h.28c1.78,0,3.28,1.5,3.28,3.29s-1.47,3.21-3.28,3.21-3.28-1.44-3.28-3.21h-1c0,2.32,1.92,4.21,4.28,4.21s4.28-1.89,4.28-4.21c0-.77-.22-1.49-.58-2.11,1.36.22,2.92-.1,4.29-1.69,1.05-1.27,2.83-1.28,3.88,0,.55.67.85,1.56.85,2.51s-.3,1.84-.85,2.51c-1.05,1.28-2.83,1.27-3.88,0l-.77.63c.72.87,1.68,1.35,2.71,1.35s1.99-.48,2.71-1.35c.69-.85,1.08-1.96,1.08-3.15s-.38-2.3-1.08-3.15c-.72-.87-1.68-1.35-2.71-1.35Z"/></g><path d="m16,8c-2.21,0-4-1.57-4-3.5h-1c0,2.48,2.24,4.5,5,4.5s5-2.02,5-4.5h-1c0,1.93-1.79,3.5-4,3.5Z"/><path d="M16 6.09 16.75 5.34 17.5 4.59 16.75 3.84 16 3.09 15.25 3.84 14.5 4.59 15.25 5.34 16 6.09z"/></svg>