<svg xmlns="http://www.w3.org/2000/svg" width="24" height="24" viewBox="0 0 24 24"><g opacity="0.4"><path d="m20.29,8.5c-.22-.53-.5-1.04-.83-1.53-.32-.47-.69-.92-1.1-1.33-.41-.41-.86-.78-1.33-1.1-.48-.33-1-.61-1.53-.83-.54-.23-1.11-.41-1.69-.52-1.19-.24-2.44-.24-3.63,0-.58.12-1.15.29-1.69.52-.53.22-1.04.5-1.53.83-.47.32-.92.69-1.33,1.1-.17.17-.32.35-.48.52l-2.16-2.16v5h5l-2.13-2.13c.15-.18.31-.36.48-.52.37-.36.76-.69,1.18-.98.43-.29.89-.54,1.36-.74.48-.21.99-.36,1.5-.47,1.05-.22,2.17-.22,3.22,0,.51.1,1.02.26,1.5.47.47.2.93.45,1.36.74.42.28.82.61,1.18.98.37.37.69.76.98,1.19.29.43.54.89.74,1.36.21.48.36.99.47,1.5.11.53.16,1.07.16,1.61s-.05,1.09-.16,1.61c-.1.51-.26,1.02-.47,1.5-.2.47-.45.93-.74,1.36-.28.42-.61.82-.98,1.18-.37.37-.76.69-1.19.98-.43.29-.89.54-1.36.74-.48.21-.99.36-1.5.47-1.05.22-2.17.22-3.22,0-.51-.1-1.02-.26-1.5-.47-.47-.2-.93-.45-1.36-.74-.42-.28-.82-.61-1.18-.98-.37-.37-.69-.76-.98-1.19-.29-.43-.54-.89-.74-1.36-.21-.48-.36-.99-.47-1.5-.11-.53-.16-1.07-.16-1.61h-1c0,.61.06,1.22.18,1.81.12.58.29,1.15.52,1.69.22.53.5,1.04.83,1.53.32.47.69.92,1.1,1.33.41.41.86.78,1.33,1.1.48.33,1,.61,1.53.83.54.23,1.11.41,1.69.52.59.12,1.2.18,1.81.18s1.22-.06,1.81-.18c.58-.12,1.15-.29,1.69-.52.53-.22,1.04-.5,1.53-.83.47-.32.92-.69,1.33-1.1.41-.41.78-.86,1.1-1.33.33-.48.61-1,.83-1.53.23-.54.41-1.11.52-1.69.12-.59.18-1.2.18-1.81s-.06-1.22-.18-1.81c-.12-.58-.29-1.15-.52-1.69Z"/></g><path d="M11.5 7 11.5 12.5 17 12.5 17 11.5 12.5 11.5 12.5 7 11.5 7z"/></svg>