<svg xmlns="http://www.w3.org/2000/svg" width="24" height="24" viewBox="0 0 24 24"><g opacity="0.4"><path d="m12.54,10.35s-.03-.02-.04-.03v-1.36c.61-.1,1.17-.39,1.62-.84.57-.57.88-1.32.88-2.12s-.31-1.56-.88-2.12c-1.13-1.13-3.11-1.13-4.24,0-.57.57-.88,1.32-.88,2.12h1c0-.53.21-1.04.59-1.41.76-.76,2.07-.76,2.83,0,.38.38.59.88.59,1.41s-.21,1.04-.59,1.41c-.38.38-.88.59-1.41.59h-.5v2.32s-.03.02-.04.03l-7.92,8.39c-.21.22-.26.54-.14.81s.39.45.69.45h15.84c.3,0,.57-.18.69-.45s.06-.59-.14-.81l-7.92-8.39Zm-7.88,8.65l7.34-7.77,7.34,7.77H4.66Z"/></g></svg>