<svg xmlns="http://www.w3.org/2000/svg" width="24" height="24" viewBox="0 0 24 24"><g opacity="0.4"><path d="m8.9,3h-1c0,1.36-.38,2-.83,2.74-.46.76-.97,1.62-.97,3.26s.52,2.5.97,3.26c.45.74.83,1.38.83,2.74s-.38,2-.83,2.74c-.46.76-.97,1.62-.97,3.26h1c0-1.36.38-2,.83-2.74.46-.76.97-1.62.97-3.26s-.52-2.5-.97-3.26c-.45-.74-.83-1.38-.83-2.74s.38-2,.83-2.74c.46-.76.97-1.62.97-3.26Z"/><path d="m17.9,3h-1c0,1.36-.38,2-.83,2.74-.46.76-.97,1.62-.97,3.26s.52,2.5.97,3.26c.45.74.83,1.38.83,2.74s-.38,2-.83,2.74c-.46.76-.97,1.62-.97,3.26h1c0-1.36.38-2,.83-2.74.46-.76.97-1.62.97-3.26s-.52-2.5-.97-3.26c-.45-.74-.83-1.38-.83-2.74s.38-2,.83-2.74c.46-.76.97-1.62.97-3.26Z"/></g><path d="m13.4,3h-1c0,1.36-.38,2-.83,2.74-.46.76-.97,1.62-.97,3.26s.52,2.5.97,3.26c.45.74.83,1.38.83,2.74s-.38,2-.83,2.74c-.46.76-.97,1.62-.97,3.26h1c0-1.36.38-2,.83-2.74.46-.76.97-1.62.97-3.26s-.52-2.5-.97-3.26c-.45-.74-.83-1.38-.83-2.74s.38-2,.83-2.74c.46-.76.97-1.62.97-3.26Z"/></svg>