<svg xmlns="http://www.w3.org/2000/svg" width="24" height="24" viewBox="0 0 24 24"><g opacity="0.4"><path d="m19,5.5c0-1.38-1.12-2.5-2.5-2.5H7.5c-1.38,0-2.5,1.12-2.5,2.5v4.5h-2v1h18v-1h-2v-4.5Z"/></g><path d="m7.5,20c1.76,0,3.2-1.31,3.45-3h2.1c.25,1.69,1.69,3,3.45,3,1.93,0,3.5-1.57,3.5-3.5s-1.57-3.5-3.5-3.5c-1.76,0-3.2,1.31-3.45,3h-2.1c-.25-1.69-1.69-3-3.45-3-1.93,0-3.5,1.57-3.5,3.5s1.57,3.5,3.5,3.5Zm9-6c1.38,0,2.5,1.12,2.5,2.5s-1.12,2.5-2.5,2.5-2.5-1.12-2.5-2.5,1.12-2.5,2.5-2.5Zm-9,0c1.38,0,2.5,1.12,2.5,2.5s-1.12,2.5-2.5,2.5-2.5-1.12-2.5-2.5,1.12-2.5,2.5-2.5Z"/></svg>