<svg xmlns="http://www.w3.org/2000/svg" width="24" height="24" viewBox="0 0 24 24"><g opacity="0.4"><path d="m20,11h-2.22l-5.78-6.26-5.78,6.26h-3.22v9h7v-5h4v5h7v-9h-1Zm-12,5h-2v-3h2v3Zm3.89-3.1c-1.1,0-2-.9-2-2s.9-2,2-2,2,.9,2,2-.9,2-2,2Zm6.11,3.1h-2v-3h2v3Z"/></g><path d="M10 15H14V20H10z"/><path d="M11.89 8.9A2 2 0 1 0 11.89 12.9 2 2 0 1 0 11.89 8.9z"/><path d="M16 13H18V16H16z"/><path d="M6 13H8V16H6z"/><path d="M19 5 13.6 5 12 3.26 10.4 5 5 5 4.64 5 3.03 9.84 3 11 3.5 11 4 11 6.22 11 12 4.74 17.78 11 20 11 20.5 11 21 11 21 10 19.36 5 19 5z"/></svg>