<svg xmlns="http://www.w3.org/2000/svg" width="24" height="24" viewBox="0 0 24 24"><g opacity="0.4"><path d="m16,3h-8v5H3v8h5v5h8v-5h5v-8h-5V3Zm-8,11l-3-2,3-2v4Zm4,5l-2-3h4l-2,3Zm-1.5-7c0-.83.67-1.5,1.5-1.5s1.5.67,1.5,1.5-.67,1.5-1.5,1.5-1.5-.67-1.5-1.5Zm-.5-4l2-3,2,3h-4Zm9,4l-3,2v-4l3,2Z"/></g><path d="M16 10 16 14 19 12 16 10z"/><path d="M12 5 10 8 14 8 12 5z"/><path d="M8 10 5 12 8 14 8 10z"/><path d="M12 10.5A1.5 1.5 0 1 0 12 13.5 1.5 1.5 0 1 0 12 10.5z"/><path d="M14 16 10 16 12 19 14 16z"/></svg>