<svg xmlns="http://www.w3.org/2000/svg" width="24" height="24" viewBox="0 0 24 24"><g opacity="0.4"><path d="m16,6h-8c-3.31,0-6,2.69-6,6s2.69,6,6,6h8c3.31,0,6-2.69,6-6s-2.69-6-6-6Zm-5,7h-2v2h-2v-2h-2v-2h2v-2h2v2h2v2Zm5,1c-.55,0-1-.45-1-1s.45-1,1-1,1,.45,1,1-.45,1-1,1Zm2-2c-.55,0-1-.45-1-1s.45-1,1-1,1,.45,1,1-.45,1-1,1Z"/></g><path d="M18 10A1 1 0 1 0 18 12 1 1 0 1 0 18 10z"/><path d="M16 12A1 1 0 1 0 16 14 1 1 0 1 0 16 12z"/><path d="M7 15 9 15 9 13 11 13 11 11 9 11 9 9 7 9 7 11 5 11 5 13 7 13 7 15z"/></svg>