<svg xmlns="http://www.w3.org/2000/svg" width="24" height="24" viewBox="0 0 24 24"><g opacity="0.4"><path d="m17.5,5H6.5c-2.48,0-4.5,2.02-4.5,4.5v7.64c0,1.58,1.29,2.86,2.86,2.86.87,0,1.69-.39,2.24-1.07l2.04-2.55c.7-.87,1.74-1.37,2.86-1.37s2.16.5,2.86,1.37l2.04,2.55c.55.68,1.36,1.07,2.24,1.07,1.58,0,2.86-1.28,2.86-2.86v-7.64c0-2.48-2.02-4.5-4.5-4.5Zm-10.5,7c-1.1,0-2-.9-2-2s.9-2,2-2,2,.9,2,2-.9,2-2,2Zm9.5-5c.55,0,1,.45,1,1s-.45,1-1,1-1-.45-1-1,.45-1,1-1Zm-2,4c-.55,0-1-.45-1-1s.45-1,1-1,1,.45,1,1-.45,1-1,1Zm2,2c-.55,0-1-.45-1-1s.45-1,1-1,1,.45,1,1-.45,1-1,1Zm2-2c-.55,0-1-.45-1-1s.45-1,1-1,1,.45,1,1-.45,1-1,1Z"/></g><path d="M18.5 9A1 1 0 1 0 18.5 11 1 1 0 1 0 18.5 9z"/><path d="M7 8A2 2 0 1 0 7 12 2 2 0 1 0 7 8z"/><path d="M16.5 11A1 1 0 1 0 16.5 13 1 1 0 1 0 16.5 11z"/><path d="M14.5 9A1 1 0 1 0 14.5 11 1 1 0 1 0 14.5 9z"/><path d="M16.5 7A1 1 0 1 0 16.5 9 1 1 0 1 0 16.5 7z"/></svg>