<svg xmlns="http://www.w3.org/2000/svg" width="24" height="24" viewBox="0 0 24 24"><g opacity="0.4"><path d="m13.92,17.03c-1.9,0-3.29,1.53-3.34,1.59l-.25.29.22.32c.05.07,1.22,1.72,3.17,1.77.03,0,.06,0,.08,0,1.89,0,3.2-1.53,3.26-1.59l.25-.29-.22-.32c-.05-.07-1.22-1.72-3.17-1.77Z"/><path d="m8.26,13.83c.72-.17,1.85-.27,2.93.29.24.13.45.28.65.44l.03-.2c.01-.08.27-2.1-1.09-3.52-1.36-1.42-3.39-1.26-3.48-1.26l-.4.03-.05.4c-.01.08-.27,2.1,1.09,3.52.1.11.21.2.32.29Z"/><path d="m14.07,3.24l-.22-.35-.39.14c-.08.03-1.93.74-2.51,2.65-.1.34-.14.67-.15.99.39.33.76.74,1.03,1.29.27.55.37,1.11.38,1.62.43-.19,1.88-.94,2.39-2.6.57-1.89-.5-3.67-.54-3.74Z"/></g><path d="m11.25,18.03c.48-.37,1.19-.79,2.05-.94-.03-.19-.43-2.09-2.11-2.97-1.72-.9-3.6-.09-3.68-.05l-.36.16.07.39c.01.08.39,2.09,2.11,2.99.61.32,1.24.42,1.8.42.04,0,.07,0,.11,0Z"/><path d="m8.34,9.65c.72.11,1.68.41,2.43,1.2.34.36.58.76.75,1.15l.14.03.17-.37c.04-.08.87-1.91,0-3.7-.87-1.78-2.85-2.27-2.93-2.29l-.4-.1-.17.37c-.04.08-.87,1.92,0,3.7,0,0,0,0,0,0Z"/></svg>