<svg xmlns="http://www.w3.org/2000/svg" width="24" height="24" viewBox="0 0 24 24"><g opacity="0.4"><path d="m3,10.5v7.82c0,.44.19.86.53,1.14.27.23.62.36.97.36.08,0,.17,0,.25-.02l5.25-.88v-5.72l-2.65,2.65-.71-.71,3.15-3.15h-3.79v-1h4v-5h-2.5c-2.48,0-4.5,2.02-4.5,4.5Z"/><path d="m16.5,6h-2.5v5h4v1h-3.79l3.15,3.15-.71.71-2.65-2.65v5.72l5.25.88c.08.01.17.02.25.02.35,0,.7-.12.97-.36.34-.29.53-.7.53-1.14v-7.82c0-2.48-2.02-4.5-4.5-4.5Z"/></g><path d="M17.35 15.15 14.21 12 18 12 18 11 13.21 11 12.5 11 12.5 2 11.5 2 11.5 11 10.79 11 6 11 6 12 9.79 12 6.65 15.15 7.35 15.85 11.21 12 11.5 12 12.5 12 12.79 12 16.65 15.85 17.35 15.15z"/></svg>