<svg xmlns="http://www.w3.org/2000/svg" width="24" height="24" viewBox="0 0 24 24"><g opacity="0.4"><path d="m13.39,3.16c-1.78-.42-3.62-.01-5.04,1.12-1.49,1.18-2.35,2.96-2.35,4.89,0,2.1.91,3.16,1.95,4.4.29.34.59.7.9,1.1.61.8.91,1.76,1.04,2.34h4.24c.16-.56.47-1.44,1.04-2.38.35-.57.74-1.04,1.11-1.5.83-1.01,1.61-1.96,1.7-3.63.16-2.95-1.82-5.68-4.6-6.33Zm-1.39,2.84c-1.65,0-3,1.35-3,3h-1c0-2.21,1.79-4,4-4v1Z"/></g><path d="m8,9h1c0-1.65,1.35-3,3-3v-1c-2.21,0-4,1.79-4,4Z"/><path d="m9.9,17c.07.3.1.5.1.5v3.5h4v-3.42s.03-.23.13-.58h-4.24Z"/></svg>