<svg xmlns="http://www.w3.org/2000/svg" width="24" height="24" viewBox="0 0 24 24"><g opacity="0.4"><path d="m14.9,17.03c-1.44.03-2.44.94-2.9,1.44-.45-.5-1.46-1.41-2.9-1.44-1.93-.05-3.29,1.53-3.34,1.59l-.25.29.22.32c.05.07,1.22,1.72,3.16,1.77.03,0,.06,0,.08,0,1.45,0,2.56-.9,3.02-1.34.46.45,1.57,1.34,3.02,1.34.03,0,.06,0,.08,0,1.95-.05,3.12-1.7,3.16-1.77l.22-.32-.25-.29c-.06-.07-1.42-1.64-3.34-1.59Z"/><path d="m7.02,14.57l.03-.2c.01-.08.27-2.1-1.09-3.52-1.36-1.42-3.39-1.26-3.47-1.26l-.4.03-.05.4c-.01.08-.27,2.1,1.09,3.52.1.11.21.2.33.29.72-.17,1.86-.27,2.93.29.24.13.45.28.65.44Z"/><path d="m21.92,9.62l-.4-.03c-.09,0-2.12-.16-3.47,1.26-1.36,1.42-1.1,3.44-1.09,3.52l.03.2c.19-.16.4-.32.65-.44,1.07-.56,2.21-.46,2.93-.29.11-.09.22-.18.33-.29,1.36-1.42,1.1-3.44,1.09-3.52l-.05-.4Z"/><path d="m6.14,5.68c-.1.34-.14.67-.15.99.39.33.77.74,1.03,1.29.27.55.37,1.11.38,1.62.43-.19,1.88-.94,2.39-2.6.57-1.89-.5-3.67-.54-3.74l-.22-.35-.39.14c-.08.03-1.93.74-2.51,2.65Z"/><path d="m16.6,9.58c.02-.51.11-1.06.38-1.62.27-.55.64-.96,1.03-1.29-.01-.32-.05-.65-.15-.99-.58-1.91-2.43-2.62-2.51-2.65l-.39-.14-.22.35c-.05.07-1.12,1.85-.54,3.74.5,1.66,1.96,2.41,2.39,2.6Z"/></g><path d="m4.51,17.61c.61.32,1.24.42,1.8.42.03,0,.06,0,.09,0,.48-.38,1.2-.81,2.08-.95-.04-.23-.45-2.09-2.11-2.95-1.72-.9-3.61-.09-3.68-.05l-.36.16.07.39c.01.08.39,2.09,2.11,2.99Z"/><path d="m17.69,18.03c.56,0,1.19-.1,1.8-.42,1.73-.91,2.1-2.91,2.11-2.99l.07-.39-.36-.16c-.08-.03-1.96-.85-3.68.05-1.66.87-2.06,2.73-2.11,2.95.88.14,1.59.57,2.07.95.03,0,.06,0,.09,0Z"/><path d="m3.52,9.65c.72.11,1.68.41,2.43,1.2.34.36.58.76.75,1.15l.14.03.17-.37c.04-.08.87-1.91,0-3.7-.87-1.78-2.85-2.27-2.93-2.29l-.4-.1-.17.37c-.04.08-.87,1.92,0,3.7,0,0,0,0,0,0Z"/><path d="m17.15,12.03l.14-.03c.17-.39.41-.79.75-1.15.76-.79,1.71-1.09,2.43-1.2,0,0,0,0,0,0,.87-1.78.04-3.62,0-3.7l-.17-.37-.4.1c-.08.02-2.06.51-2.93,2.29-.87,1.78-.04,3.62,0,3.7l.17.37Z"/></svg>