<svg xmlns="http://www.w3.org/2000/svg" width="24" height="24" viewBox="0 0 24 24"><g opacity="0.4"><path d="m12,3c-4.96,0-9,2.92-9,6.5s4.04,6.5,9,6.5c.15,0,.3-.01.45-.02-.05-.35-.15-.68-.3-.99-.05,0-.1,0-.15,0-4.41,0-8-2.47-8-5.5s3.59-5.5,8-5.5,8,2.47,8,5.5c0,2.75-2.95,5.03-6.79,5.43.12.31.19.64.24.98,4.28-.5,7.56-3.18,7.56-6.41,0-3.58-4.04-6.5-9-6.5Z"/></g><path d="m11.48,14.02c.66.66,1.02,1.54,1.02,2.48s-.36,1.81-1.02,2.48c-.66.66-1.54,1.02-2.48,1.02v1c1.2,0,2.33-.47,3.18-1.32.85-.85,1.32-1.98,1.32-3.18s-.47-2.33-1.32-3.18c-.85-.85-1.98-1.32-3.18-1.32-1.11,0-2.15.41-2.97,1.14.27.21.56.4.87.58,1.35-1,3.37-.91,4.58.3Z"/></svg>