<svg xmlns="http://www.w3.org/2000/svg" width="24" height="24" viewBox="0 0 24 24"><g opacity="0.4"><path d="m4,21h16V6H4v15Zm5.5-7c.18,0,.34.04.5.09v-5.2l6,1.2v6.41c0,.83-.67,1.5-1.5,1.5s-1.5-.67-1.5-1.5.67-1.5,1.5-1.5c.18,0,.34.04.5.09v-4.18l-4-.8v5.39c0,.83-.67,1.5-1.5,1.5s-1.5-.67-1.5-1.5.67-1.5,1.5-1.5Z"/></g><path d="M7 3H17V4H7z"/><path d="m14.5,15c-.83,0-1.5.67-1.5,1.5s.67,1.5,1.5,1.5,1.5-.67,1.5-1.5v-6.41l-6-1.2v5.2c-.16-.06-.32-.09-.5-.09-.83,0-1.5.67-1.5,1.5s.67,1.5,1.5,1.5,1.5-.67,1.5-1.5v-5.39l4,.8v4.18c-.16-.06-.32-.09-.5-.09Z"/></svg>