<svg xmlns="http://www.w3.org/2000/svg" width="24" height="24" viewBox="0 0 24 24"><g opacity="0.4"><path d="m12.33,15.39c-1.1.26-2.31-.01-3.17-.79-.74-.65-1.16-1.59-1.16-2.59s.42-1.95,1.16-2.6c.86-.78,2.07-1.05,3.17-.79.2-.21.41-.41.64-.59.08-.06.17-.11.25-.16-1.46-.6-3.19-.38-4.45.58-.55-.28-1.15-.44-1.78-.44-2.21,0-4,1.79-4,4s1.79,4,4,4c.63,0,1.24-.16,1.79-.44.78.6,1.73.94,2.71.94.6,0,1.18-.12,1.73-.36-.09-.06-.18-.1-.26-.17-.23-.18-.44-.38-.64-.59Zm-5.24-2.51c.02.09.05.18.07.27.05.19.11.38.18.56.04.1.08.19.13.28.08.17.18.33.29.49.06.08.11.17.17.25.03.03.04.07.07.1-.32.11-.65.17-1,.17-1.65,0-3-1.35-3-3s1.35-3,3-3c.35,0,.68.06,1,.17-.03.03-.05.07-.07.1-.06.08-.11.16-.16.24-.11.16-.21.33-.29.5-.05.09-.09.18-.13.28-.08.18-.14.37-.19.57-.02.09-.05.17-.07.26-.06.28-.09.58-.09.87s.04.59.09.87Z"/></g><path d="m16,7c-1.1,0-2.17.36-3.02,1.02-1.26.95-1.98,2.4-1.98,3.98s.72,3.02,1.97,3.98c.85.66,1.93,1.02,3.03,1.02,2.76,0,5-2.24,5-5s-2.24-5-5-5Z"/></svg>