<svg xmlns="http://www.w3.org/2000/svg" width="24" height="24" viewBox="0 0 24 24"><g opacity="0.4"><path class="st0" d="M2.8 17.7 8 12.5 13.2 7.2 15 9 16.8 10.8 11.6 16 6.3 21.2 4.6 19.4z"/></g><path class="st0" d="M13.2 7.2 15.4 5 17.7 2.8 19.4 4.6 21.2 6.3 19 8.6 16.8 10.8 15 9z"/><path class="st0" d="M10.5 6 11.5 5.3 12.5 6 12.2 4.8 13 4.1 12 4 11.5 3 11 4 10 4.1 10.8 4.8z"/><path class="st0" d="M19.3 13.7 18.5 12 17.7 13.7 16 13.9 17.4 15.1 16.8 17 18.5 15.9 20.2 17 19.6 15.1 21 13.9z"/><path class="st0" d="M4.8 10 6.5 8.9 8.2 10 7.6 8.1 9 6.9 7.3 6.7 6.5 5 5.7 6.7 4 6.9 5.4 8.1z"/></svg>