<svg xmlns="http://www.w3.org/2000/svg" width="24" height="24" viewBox="0 0 24 24"><g opacity="0.4"><path d="m12,3C7.04,3,3,7.04,3,12c0,2.04.7,4.02,1.98,5.61l-1.94,3.39h8.96c4.96,0,9-4.04,9-9S16.96,3,12,3Zm2.93,9.18l-2.93,2.82-2.93-2.82s-.03-.03-.05-.05c-.71-.73-.69-1.88.05-2.58.76-.73,1.98-.73,2.73,0l.2.19.2-.19c.76-.73,1.98-.73,2.73,0,.02.02.03.03.05.05.71.73.69,1.88-.05,2.58Z"/></g><path d="m12,15l2.93-2.82c.74-.7.76-1.85.05-2.58-.02-.02-.03-.03-.05-.05-.76-.73-1.98-.73-2.73,0l-.2.19-.2-.19c-.76-.73-1.98-.73-2.73,0-.74.7-.76,1.85-.05,2.58.02.02.03.03.05.05l2.93,2.82Z"/></svg>