<svg xmlns="http://www.w3.org/2000/svg" width="24" height="24" viewBox="0 0 24 24"><g opacity="0.4"><path d="m3,18h4v3.38l5.64-3.38h8.36V4H3v14Zm6.07-9.45c.76-.73,1.98-.73,2.73,0l.2.19.2-.19c.76-.73,1.98-.73,2.73,0,.02.02.03.03.05.05.71.73.69,1.88-.05,2.58l-2.93,2.82-2.93-2.82s-.03-.03-.05-.05c-.71-.73-.69-1.88.05-2.58Z"/></g><path d="m12,14l2.93-2.82c.74-.7.76-1.85.05-2.58-.02-.02-.03-.03-.05-.05-.76-.73-1.98-.73-2.73,0l-.2.19-.2-.19c-.76-.73-1.98-.73-2.73,0-.74.7-.76,1.85-.05,2.58.02.02.03.03.05.05l2.93,2.82Z"/></svg>