<svg xmlns="http://www.w3.org/2000/svg" width="24" height="24" viewBox="0 0 24 24"><g opacity="0.4"><path d="m19.5,14.4l-.13-.07h0c-.42-.22-.89-.33-1.37-.33-.95,0-1.83.44-2.4,1.2-.39.51-.6,1.15-.6,1.8,0,1.65,1.35,3,3,3s3-1.35,3-3c0-1.06-.57-2.06-1.5-2.6Z"/><path d="m7.5,14.4l-.13-.07h0c-.42-.22-.89-.33-1.37-.33-.95,0-1.83.44-2.39,1.19-.26.33-.45.75-.55,1.22-.04.19-.06.39-.06.59,0,1.65,1.35,3,3,3s3-1.35,3-3c0-.2-.02-.4-.06-.6-.16-.83-.69-1.56-1.44-2Z"/><path d="M16.08 10 17 10 17 8 15.2 8 16.08 10z"/></g><path d="m15.6,15.2c.54-.72,1.35-1.13,2.23-1.18l-2.85-6.52c-.4-.91-1.3-1.5-2.29-1.5h-.69v1h.69c.6,0,1.13.35,1.37.9l1.36,3.1h-4.57l-3.78,2.37-2.37-2.37h-1.71v1h1.29l2.04,2.04c.36.04.72.12,1.04.29h0l.13.07c.75.44,1.27,1.17,1.44,2,.02.09.02.18.03.27l1.33,1.33h3.41l1.32-1.32c.06-.54.25-1.05.57-1.48Z"/></svg>