<svg xmlns="http://www.w3.org/2000/svg" width="24" height="24" viewBox="0 0 24 24"><g opacity="0.4"><path d="m12,3C7.04,3,3,7.04,3,12c0,2.04.7,4.02,1.98,5.61l-1.94,3.39h8.96c4.96,0,9-4.04,9-9S16.96,3,12,3Zm-4,10c-.55,0-1-.45-1-1s.45-1,1-1,1,.45,1,1-.45,1-1,1Zm4,0c-.55,0-1-.45-1-1s.45-1,1-1,1,.45,1,1-.45,1-1,1Zm4,0c-.55,0-1-.45-1-1s.45-1,1-1,1,.45,1,1-.45,1-1,1Z"/></g><path d="M16 11A1 1 0 1 0 16 13 1 1 0 1 0 16 11z"/><path d="M8 11A1 1 0 1 0 8 13 1 1 0 1 0 8 11z"/><path d="M12 11A1 1 0 1 0 12 13 1 1 0 1 0 12 11z"/></svg>