<svg xmlns="http://www.w3.org/2000/svg" width="24" height="24" viewBox="0 0 24 24"><g opacity="0.4"><path d="m15,12v-6c0-1.65-1.35-3-3-3s-3,1.35-3,3v2.29l5.44,5.44c.35-.49.56-1.09.56-1.73Z"/><path d="m9,12c0,1.65,1.35,3,3,3,.65,0,1.24-.21,1.73-.56l-4.73-4.73v2.29Z"/><path d="m15.85,15.15l.72.72c.89-1.04,1.43-2.39,1.43-3.87h-1c0,1.2-.44,2.28-1.15,3.15Z"/><path d="m12,17c-2.76,0-5-2.24-5-5h-1c0,3.14,2.43,5.72,5.5,5.97v3.03h1v-3.03c1.28-.11,2.44-.62,3.37-1.4l-.72-.72c-.86.71-1.95,1.15-3.15,1.15Z"/></g><path d="M3.35 2.65 3 3 2.65 3.35 11.65 12.35 20.65 21.35 21 21 21.35 20.65 12.35 11.65 3.35 2.65z"/></svg>