<svg xmlns="http://www.w3.org/2000/svg" width="24" height="24" viewBox="0 0 24 24"><g opacity="0.4"><path d="M7 8.38 7 8.81 7 11 8 11 8 8.81 8 8.38 8 8 8.38 8 10.56 8 11 8 11 7 10.56 7 8.38 7 8 7 8 4 7 4 7 7 4 7 4 8 7 8 7 8.38z"/></g><path d="M13 16 13 17 17.38 17 19.56 17 20 17 20 16 19.56 16 17.38 16 13 16z"/><path d="M5.04 19.04 5.21 19.21 5.39 19.39 8.89 15.89 12.39 12.39 15.89 8.89 19.39 5.39 19.21 5.21 19.04 5.04 18.86 4.86 18.68 4.68 15.18 8.18 11.68 11.68 8.18 15.18 4.68 18.68 4.86 18.86 5.04 19.04z"/></svg>