<svg xmlns="http://www.w3.org/2000/svg" width="24" height="24" viewBox="0 0 24 24"><g opacity="0.4"><path d="m12,3C7.04,3,3,7.04,3,12c0,2.04.7,4.02,1.98,5.61l-1.94,3.39h8.96c4.96,0,9-4.04,9-9S16.96,3,12,3Zm.5,13h-1v-1h1v1Zm1.27-3.73c-.35.35-.79.59-1.27.68v1.05h-1v-2h.5c.4,0,.78-.16,1.06-.44.28-.28.44-.66.44-1.06s-.16-.78-.44-1.06c-.57-.57-1.56-.57-2.12,0-.28.28-.44.66-.44,1.06h-1c0-.67.26-1.3.73-1.77.94-.94,2.59-.94,3.54,0,.47.47.73,1.1.73,1.77s-.26,1.3-.73,1.77Z"/></g><path d="m12.5,12.95c.48-.1.92-.33,1.27-.68.47-.47.73-1.1.73-1.77s-.26-1.3-.73-1.77c-.94-.94-2.59-.94-3.54,0-.47.47-.73,1.1-.73,1.77h1c0-.4.16-.78.44-1.06.56-.57,1.55-.57,2.12,0,.28.28.44.66.44,1.06s-.16.78-.44,1.06c-.28.28-.66.44-1.06.44h-.5v2h1v-1.05Z"/><path d="M11.5 15H12.5V16H11.5z"/></svg>