<svg xmlns="http://www.w3.org/2000/svg" width="24" height="24" viewBox="0 0 24 24"><g opacity="0.4"><path d="M7 3A1.5 1.5 0 1 0 7 6 1.5 1.5 0 1 0 7 3z"/><path d="M4.6 7 3.01 13.89 3.99 14.11 5 9.72 5 21 6 21 6 15 8 15 8 21 9 21 9 9.72 10.01 14.11 10.99 13.89 9.4 7 4.6 7z"/></g><path d="M17 3A1.5 1.5 0 1 0 17 6 1.5 1.5 0 1 0 17 3z"/><path d="M14.6 7 13.01 13.89 13.99 14.11 14.87 10.27 14.5 17 15 17 15 21 16 21 16 17 18 17 18 21 19 21 19 17 19.55 17 19.14 10.34 20.01 14.11 20.99 13.89 19.4 7 14.6 7z"/></svg>