<svg xmlns="http://www.w3.org/2000/svg" width="24" height="24" viewBox="0 0 24 24"><g opacity="0.4"><path d="m10.51,14.3l-2.54,2.96c-.29-.16-.62-.26-.97-.26-1.1,0-2,.9-2,2s.9,2,2,2,2-.9,2-2c0-.38-.11-.74-.3-1.05l2.46-2.87c-.25-.23-.47-.49-.64-.78Z"/><path d="m8,5.5c0-1.38-1.12-2.5-2.5-2.5s-2.5,1.12-2.5,2.5,1.12,2.5,2.5,2.5c.52,0,1.01-.16,1.41-.44l3.75,2.91c.2-.27.44-.51.7-.72l-3.75-2.92c.25-.39.4-.84.4-1.34Z"/><path d="m19,4c-1.1,0-2,.9-2,2,0,.38.11.74.3,1.05l-2.08,2.43c.29.17.56.37.8.61l2.01-2.34c.29.16.62.26.97.26,1.1,0,2-.9,2-2s-.9-2-2-2Z"/></g><path d="M13.5 9A3.5 3.5 0 1 0 13.5 16 3.5 3.5 0 1 0 13.5 9z"/></svg>