<svg xmlns="http://www.w3.org/2000/svg" width="24" height="24" viewBox="0 0 24 24"><g opacity="0.4"><path d="m6.81,6.04l-4.01,15.16,15.16-4.01c-.4-5.98-5.17-10.75-11.15-11.15Zm.69,11.96c-.83,0-1.5-.67-1.5-1.5s.67-1.5,1.5-1.5,1.5.67,1.5,1.5-.67,1.5-1.5,1.5Zm1-6c-.83,0-1.5-.67-1.5-1.5s.67-1.5,1.5-1.5,1.5.67,1.5,1.5-.67,1.5-1.5,1.5Zm4.5,4c-1.1,0-2-.9-2-2s.9-2,2-2,2,.9,2,2-.9,2-2,2Z"/></g><path d="m8,3h-.38l-.8,3.04c5.98.4,10.75,5.17,11.15,11.15l3.04-.8v-.38c0-7.17-5.83-13-13-13Z"/><path d="M13 12A2 2 0 1 0 13 16 2 2 0 1 0 13 12z"/><path d="M7.5 15A1.5 1.5 0 1 0 7.5 18 1.5 1.5 0 1 0 7.5 15z"/><path d="M8.5 9A1.5 1.5 0 1 0 8.5 12 1.5 1.5 0 1 0 8.5 9z"/></svg>