<svg xmlns="http://www.w3.org/2000/svg" width="24" height="24" viewBox="0 0 24 24"><g opacity="0.4"><path d="m14.24,8.55l-5.66,1.54-2.12,9.56.34.34,4.85-4.85h.01c-.1-.19-.16-.41-.16-.65,0-.83.67-1.5,1.5-1.5s1.5.67,1.5,1.5-.67,1.5-1.5,1.5c-.24,0-.46-.06-.66-.16h.01s-4.85,4.87-4.85,4.87l.34.34,9.56-2.12,1.54-5.66,1.51-1.51-4.71-4.71-1.51,1.51Z"/></g><path d="M18 4.79 16.88 5.92 15.75 7.04 18.1 9.4 20.46 11.75 21.58 10.62 22.71 9.5 20.35 7.15 18 4.79z"/><path d="m12.35,15.85h-.01c.2.09.42.15.66.15.83,0,1.5-.67,1.5-1.5s-.67-1.5-1.5-1.5-1.5.67-1.5,1.5c0,.24.06.46.16.66h-.01s-4.85,4.84-4.85,4.84l.71.71,4.85-4.85Z"/><path d="m6.79,20l-.24-.24c-.73.16-1.82.28-2.58-.24-.64-.44-.97-1.28-.97-2.52,0-2.04.95-4.35,1.78-6.39,1.06-2.59,1.97-4.82,1-6.28-.6-.9-1.84-1.33-3.78-1.33v1c1.56,0,2.55.3,2.95.89.68,1.01-.18,3.12-1.09,5.34-.87,2.12-1.85,4.53-1.85,6.77,0,1.59.47,2.71,1.41,3.35.61.42,1.33.55,2.01.55.81,0,1.55-.19,1.95-.32l-.57-.57Z"/></svg>