<svg xmlns="http://www.w3.org/2000/svg" width="24" height="24" viewBox="0 0 24 24"><g opacity="0.4"><path d="m11.79,7.5h-5.17l-3.18,11.65.35.35,5.35-5.35h.01c-.1-.19-.16-.41-.16-.65,0-.83.67-1.5,1.5-1.5s1.5.67,1.5,1.5-.67,1.5-1.5,1.5c-.24,0-.46-.06-.66-.16h.01s-5.35,5.36-5.35,5.36l.35.35,11.65-3.18v-5.17l2-2-4.71-4.71-2,2Z"/></g><path d="M16.99 2.29 15.74 3.54 13.79 5.5 18.5 10.21 21.71 6.99 19.35 4.64 16.99 2.29z"/><path d="m3.79,19.5l.71.71,5.35-5.35h-.01c.2.09.42.15.66.15.83,0,1.5-.67,1.5-1.5s-.67-1.5-1.5-1.5-1.5.67-1.5,1.5c0,.24.06.46.16.66h-.01s-5.35,5.34-5.35,5.34Z"/></svg>