<svg xmlns="http://www.w3.org/2000/svg" width="24" height="24" viewBox="0 0 24 24"><g opacity="0.4"><path d="m4,5.5v13c0,.18.02.35.06.52.21,1.21,1.1,1.74,1.86,1.91.05.01.09.02.14.03.16.03.31.04.44.04h13.5v-1H6.5s0,0,0,0c-.09,0-.18-.01-.27-.03-.01,0-.03,0-.04,0-.57-.12-1.03-.57-1.15-1.14-.02-.1-.04-.2-.04-.32,0-.83.67-1.5,1.5-1.5h13.5V3H6.5c-1.38,0-2.5,1.12-2.5,2.5Zm4.5.5c.83,0,1.5.67,1.5,1.5s-.67,1.5-1.5,1.5-1.5-.67-1.5-1.5.67-1.5,1.5-1.5Zm1,5l1.5,1.5,3-3.5,4,5H7l2.5-3Z"/></g><path class="st0" d="M14 9 11 12.5 9.5 11 7 14 18 14z"/><path class="st0" d="M8.5 6A1.5 1.5 0 1 0 8.5 9 1.5 1.5 0 1 0 8.5 6z"/><path class="st1" d="M5,18.5C5,19.3,5.7,20,6.5,20H20v-3H6.5C5.7,17,5,17.7,5,18.5z"/></svg>