<svg xmlns="http://www.w3.org/2000/svg" width="24" height="24" viewBox="0 0 24 24"><g opacity="0.4"><path d="m13.26,3.09c-2.83-.39-5.62.54-7.63,2.55-2.01,2.01-2.94,4.79-2.55,7.63.48,3.5,3.11,6.48,6.56,7.42.78.21,1.57.32,2.36.32.04,0,.08,0,.12,0,.82-.01,1.57-.44,2-1.14.43-.7.48-1.55.12-2.29l-.19-.39c-.53-1.1-.11-2.09.45-2.66.57-.57,1.56-.98,2.66-.45t0,0l.39.19c.74.36,1.59.31,2.29-.12.7-.43,1.12-1.18,1.14-2,.01-.83-.09-1.66-.32-2.48-.93-3.45-3.92-6.08-7.42-6.56Zm-5.94,11.67c-.55,0-1-.45-1-1s.45-1,1-1,1,.45,1,1-.45,1-1,1Zm.07-3.58c-.62,0-1.12-.5-1.12-1.12s.5-1.12,1.12-1.12,1.12.5,1.12,1.12-.5,1.12-1.12,1.12Zm2.81-2.61c-.69,0-1.25-.56-1.25-1.25s.56-1.25,1.25-1.25,1.25.56,1.25,1.25-.56,1.25-1.25,1.25Zm4.06.36c-.76,0-1.38-.62-1.38-1.38s.62-1.38,1.38-1.38,1.38.62,1.38,1.38-.62,1.38-1.38,1.38Z"/></g><path d="M7.33 12.76A1 1 0 1 0 7.33 14.76 1 1 0 1 0 7.33 12.76z"/><path d="M7.4 8.93A1.12 1.12 0 1 0 7.4 11.170000000000002 1.12 1.12 0 1 0 7.4 8.93z"/><path d="M14.27 6.17A1.38 1.38 0 1 0 14.27 8.93 1.38 1.38 0 1 0 14.27 6.17z"/><path d="M10.21 6.06A1.25 1.25 0 1 0 10.21 8.559999999999999 1.25 1.25 0 1 0 10.21 6.06z"/></svg>