<svg xmlns="http://www.w3.org/2000/svg" width="24" height="24" viewBox="0 0 24 24"><g opacity="0.4"><path d="m13.48,16.16c-.65-.36-2.13-1.25-3.26-2.38s-2.02-2.61-2.38-3.26l2.49-2.31-3.61-5.42-3.71,2.57v.25c-.02.26-.25,6.36,4.38,10.99,4.14,4.14,9.45,4.4,10.71,4.4.15,0,.24,0,.27,0h.25s2.57-3.72,2.57-3.72l-5.42-3.61-2.3,2.49Z"/></g><path d="m15,4c1.34,0,2.59.52,3.54,1.46,1.95,1.95,1.95,5.12,0,7.07l.71.71c2.34-2.34,2.34-6.15,0-8.48-1.13-1.13-2.64-1.76-4.24-1.76s-3.11.62-4.24,1.76l.71.71c.94-.94,2.2-1.46,3.54-1.46Z"/><path d="m17.12,11.12c1.17-1.17,1.17-3.07,0-4.24-1.13-1.13-3.11-1.13-4.24,0l.71.71c.76-.76,2.07-.76,2.83,0s.78,2.05,0,2.83l.71.71Z"/></svg>