<svg xmlns="http://www.w3.org/2000/svg" width="24" height="24" viewBox="0 0 24 24"><g opacity="0.4"><path d="m17,9s0,.06,0,.09c.2.03.4.07.59.12l.4.11c0-.11.01-.22.01-.33,0-3.31-2.69-6-6-6s-6,2.69-6,6c0,.11,0,.22.01.33l.4-.11c.19-.05.39-.09.59-.12,0-.03,0-.06,0-.09,0-2.76,2.24-5,5-5s5,2.24,5,5Z"/><path d="m18,9.35l-.05.42c-.03.21-.07.4-.12.6,1.89.74,3.17,2.56,3.17,4.63,0,2.76-2.24,5-5,5-1.25,0-2.41-.47-3.32-1.29-.11.14-.2.28-.32.41l-.35.37c1.09.98,2.49,1.52,3.99,1.52,3.31,0,6-2.69,6-6,0-2.56-1.62-4.82-4-5.65Z"/><path d="m11.32,18.71c-.91.82-2.06,1.29-3.32,1.29-2.76,0-5-2.24-5-5,0-2.07,1.29-3.9,3.17-4.63-.05-.2-.09-.4-.12-.6l-.05-.42c-2.38.83-4,3.1-4,5.65,0,3.31,2.69,6,6,6,1.5,0,2.89-.54,3.99-1.52l-.35-.37c-.12-.13-.21-.27-.32-.41Z"/></g><path d="m10.03,14.64c0,.12-.03.23-.03.36,0,1.54.58,3,1.64,4.11l.36.38.36-.38c1.06-1.11,1.64-2.57,1.64-4.11,0-.12-.02-.24-.03-.36,2.14-.74,3.68-2.6,3.97-4.88l.05-.43-.41-.12c-.51-.15-1.05-.22-1.59-.22-1.5,0-2.91.54-4,1.54-1.09-.99-2.5-1.54-4-1.54-.54,0-1.07.07-1.59.22l-.41.12.05.43c.29,2.28,1.83,4.14,3.97,4.88Z"/></svg>