<svg xmlns="http://www.w3.org/2000/svg" width="24" height="24" viewBox="0 0 24 24"><g opacity="0.4"><path d="m5.87,16.04c.34.05.66.17.94.34l2.32-5.42c-.34-.05-.66-.17-.94-.34l-2.32,5.42Z"/><path d="m10.85,10.6l1.83,2.2c.23-.25.5-.45.82-.58l-1.93-2.31c-.19.28-.44.51-.72.7Z"/><path d="m14.92,12.04c.34.06.66.18.94.36l2.22-4.45c-.34-.06-.66-.18-.94-.36l-2.22,4.45Z"/></g><path d="M14.5 12A2.5 2.5 0 1 0 14.5 17 2.5 2.5 0 1 0 14.5 12z"/><path d="M5.5 16A2.5 2.5 0 1 0 5.5 21 2.5 2.5 0 1 0 5.5 16z"/><path d="M9.5 6A2.5 2.5 0 1 0 9.5 11 2.5 2.5 0 1 0 9.5 6z"/><path d="M18.5 3A2.5 2.5 0 1 0 18.5 8 2.5 2.5 0 1 0 18.5 3z"/></svg>