<svg xmlns="http://www.w3.org/2000/svg" width="24" height="24" viewBox="0 0 24 24"><g opacity="0.4"><path d="M7.02 11 16.98 11 18.13 6 5.87 6 7.02 11z"/></g><path d="m11.55,16.78c-.52,1.04-1.05,2.11-1.05,4.22h1c0-1.88.46-2.8.95-3.78.52-1.04,1.05-2.11,1.05-4.22h-1c0,1.88-.46,2.8-.95,3.78Z"/><path d="m8.55,16.78c-.52,1.04-1.05,2.11-1.05,4.22h1c0-1.88.46-2.8.95-3.78.52-1.04,1.05-2.11,1.05-4.22h-1c0,1.88-.46,2.8-.95,3.78Z"/><path d="m15.45,17.22c.52-1.04,1.05-2.11,1.05-4.22h-1c0,1.88-.46,2.8-.95,3.78-.52,1.04-1.05,2.11-1.05,4.22h1c0-1.88.46-2.8.95-3.78Z"/><path d="M3 3H21V6H3z"/></svg>