<svg xmlns="http://www.w3.org/2000/svg" width="24" height="24" viewBox="0 0 24 24"><g opacity="0.4"><path d="M12.5 11.5 12.5 9.01 12 9.51 11.5 9.01 11.5 11.5 8.81 11.5 9.31 12 8.81 12.5 11.5 12.5 11.5 14.99 12 14.49 12.5 14.99 12.5 12.5 14.99 12.5 14.49 12 14.99 11.5 12.5 11.5z"/><path d="M12.5 7.59 12.5 3 11.5 3 11.5 7.59 12 8.09 12.5 7.59z"/><path d="M15.91 12 16.41 12.5 21 12.5 21 11.5 16.41 11.5 15.91 12z"/><path d="M3 11.5 3 12.5 7.39 12.5 7.89 12 7.39 11.5 3 11.5z"/><path d="M11.5 16.41 11.5 21 12.5 21 12.5 16.41 12 15.91 11.5 16.41z"/></g><path d="M15.95 5.55 15.25 4.85 12 8.09 8.75 4.85 8.05 5.55 12 9.51 15.95 5.55z"/><path d="M12 14.49 8.05 18.45 8.75 19.15 12 15.91 15.25 19.15 15.95 18.45 12 14.49z"/><path d="M18.45 15.95 19.15 15.25 15.91 12 19.15 8.75 18.45 8.05 14.49 12 18.45 15.95z"/><path d="M5.35 15.95 9.31 12 5.35 8.05 4.65 8.75 7.89 12 4.65 15.25 5.35 15.95z"/></svg>