<svg xmlns="http://www.w3.org/2000/svg" width="24" height="24" viewBox="0 0 24 24"><g opacity="0.4"><path d="M12 12A2.5 2.5 0 1 0 12 17 2.5 2.5 0 1 0 12 12z"/><path d="m5,21h14V3H5v18Zm7-15c.83,0,1.5.67,1.5,1.5s-.67,1.5-1.5,1.5-1.5-.67-1.5-1.5.67-1.5,1.5-1.5Zm0,5c1.93,0,3.5,1.57,3.5,3.5s-1.57,3.5-3.5,3.5-3.5-1.57-3.5-3.5,1.57-3.5,3.5-3.5Z"/></g><path d="m12,18c1.93,0,3.5-1.57,3.5-3.5s-1.57-3.5-3.5-3.5-3.5,1.57-3.5,3.5,1.57,3.5,3.5,3.5Zm0-6c1.38,0,2.5,1.12,2.5,2.5s-1.12,2.5-2.5,2.5-2.5-1.12-2.5-2.5,1.12-2.5,2.5-2.5Z"/><path d="M12 6A1.5 1.5 0 1 0 12 9 1.5 1.5 0 1 0 12 6z"/></svg>