<svg xmlns="http://www.w3.org/2000/svg" width="24" height="24" viewBox="0 0 24 24"><g opacity="0.4"><path d="m18.78,10.73l-1.18-.46-1.2,3.06-.93-.36,1.19-3.05-1.87-.72-1.19,3.04-.93-.36,1.19-3.04-1.87-.72-1.18,3.02-.93-.36,1.18-3.02-2.01-.78-6.05,1.1v7.92h18v-2.01c0-1.45-.87-2.73-2.22-3.26Z"/></g><path d="M16.4 13.33 17 11.8 17.59 10.28 17.13 10.1 16.66 9.92 16.06 11.44 15.47 12.97 15.93 13.15 16.4 13.33z"/><path d="M10.81 11.14 11.4 9.63 11.99 8.12 11.53 7.94 11.06 7.76 10.47 9.27 9.88 10.78 10.34 10.96 10.81 11.14z"/><path d="M13.6 12.24 14.2 10.72 14.79 9.2 14.33 9.02 13.86 8.84 13.27 10.35 12.67 11.87 13.14 12.05 13.6 12.24z"/><path d="M3 16H21V19H3z"/></svg>