<svg xmlns="http://www.w3.org/2000/svg" width="24" height="24" viewBox="0 0 24 24"><g opacity="0.4"><path d="M4 15H5V20H4z"/><path d="M7.75 12H8.75V20H7.75z"/><path d="M19 18.29 20 19.29 20 3 19 3 19 18.29z"/><path d="M19 20 19.29 20 19 19.71 19 20z"/><path d="M11.5 10.79 12.5 11.79 12.5 9 11.5 9 11.5 10.79z"/><path d="M11.5 20 12.5 20 12.5 13.21 11.5 12.21 11.5 20z"/><path d="M15.25 20 16.25 20 16.25 16.96 15.25 15.96 15.25 20z"/><path d="M15.25 14.54 16.25 15.54 16.25 6 15.25 6 15.25 14.54z"/></g><path d="M3.35 2.65 3 3 2.65 3.35 11.65 12.35 20.65 21.35 21 21 21.35 20.65 12.35 11.65 3.35 2.65z"/></svg>