<svg xmlns="http://www.w3.org/2000/svg" width="24" height="24" viewBox="0 0 24 24"><g opacity="0.4"><path d="m12,8c-2.76,0-5,2.24-5,5h10c0-2.76-2.24-5-5-5Z"/></g><path d="M3 13H21V14H3z"/><path d="M11.5 3H12.5V6H11.5z"/><path d="M17.35 8.35 18.35 7.35 19.35 6.35 19 6 18.65 5.65 17.65 6.65 16.65 7.65 17 8 17.35 8.35z"/><path d="M6.65 8.35 7 8 7.35 7.65 6.35 6.65 5.35 5.65 5 6 4.65 6.35 5.65 7.35 6.65 8.35z"/><path d="M8 15H9V17H8z"/><path d="M8 18H9V20H8z"/><path d="M11.5 16H12.5V18H11.5z"/><path d="M4.5 15H5.5V17H4.5z"/><path d="M18.5 15H19.5V17H18.5z"/><path d="M11.5 19H12.5V21H11.5z"/><path d="M15 15H16V17H15z"/><path d="M15 18H16V20H15z"/></svg>