<svg xmlns="http://www.w3.org/2000/svg" width="24" height="24" viewBox="0 0 24 24"><g opacity="0.4"><path d="M3 6H13V12H3z"/><path d="m16.76,5.1l.46,2.9h1.77v-3h-2.26s.02.07.03.1Z"/><path d="m19.5,15.4s-.04-.02-.06-.03c-.43-.24-.93-.37-1.44-.37-.95,0-1.83.44-2.4,1.2-.39.51-.6,1.15-.6,1.8,0,1.65,1.35,3,3,3s3-1.35,3-3c0-1.06-.57-2.06-1.5-2.6Z"/><path d="m9.5,15.4l-.13-.07h0c-.42-.22-.89-.33-1.37-.33-.95,0-1.83.44-2.39,1.19-.26.33-.45.75-.55,1.22-.04.19-.06.39-.06.59,0,1.65,1.35,3,3,3s3-1.35,3-3c0-.2-.02-.4-.06-.6-.16-.83-.69-1.56-1.44-2Z"/></g><path d="m15.78,5.26l1.57,9.81c.21-.05.43-.08.65-.08.12,0,.24.03.35.04l-1.59-9.94c-.2-1.22-1.23-2.1-2.47-2.1h-1.29v1h1.29c.74,0,1.36.53,1.48,1.26Z"/><path d="m15.18,17h-2.18v-5H4.71c-1.03.83-1.71,2.08-1.71,3.5v2.5h2c0-.2.02-.4.06-.59.1-.47.29-.89.55-1.22.57-.75,1.44-1.19,2.39-1.19.48,0,.95.11,1.37.33h0l.13.07c.75.44,1.27,1.17,1.44,2,.04.19.06.4.06.6h4c0-.34.06-.68.18-1Z"/></svg>