<svg xmlns="http://www.w3.org/2000/svg" width="24" height="24" viewBox="0 0 24 24"><g opacity="0.4"><path d="m18.38,12c-.88,0-1.65-.44-2.12-1.1-.48.66-1.25,1.1-2.12,1.1s-1.65-.44-2.12-1.1c-.48.66-1.25,1.1-2.12,1.1s-1.65-.44-2.12-1.1c-.48.66-1.25,1.1-2.12,1.1-.61,0-1.16-.22-1.61-.57,0,.02-.01.04-.01.07v9.5h5v-6h6v6h5v-9.5s-.01-.05-.01-.07c-.45.35-1,.57-1.61.57Z"/></g><path d="m15.75,3H3v6.38c0,1.45,1.18,2.62,2.62,2.62.88,0,1.65-.44,2.12-1.1.48.66,1.25,1.1,2.12,1.1s1.65-.44,2.12-1.1c.48.66,1.25,1.1,2.12,1.1s1.65-.44,2.12-1.1c.48.66,1.25,1.1,2.12,1.1,1.45,0,2.62-1.18,2.62-2.62V3h-5.25Z"/><path d="M9 15H15V21H9z"/></svg>