<svg xmlns="http://www.w3.org/2000/svg" width="24" height="24" viewBox="0 0 24 24"><g opacity="0.4"><path d="m12,3C7.04,3,3,7.04,3,12s4.04,9,9,9,9-4.04,9-9S16.96,3,12,3Zm-6,9c0-1.6.62-3.11,1.76-4.24,1.25-1.25,2.91-1.81,4.55-1.73l-6.29,6.3c0-.11-.02-.22-.02-.33Zm.21,1.55l7.32-7.32c.84.22,1.63.63,2.32,1.21L7.42,15.87c-.58-.68-.99-1.47-1.21-2.32Zm1.92,3.03l8.45-8.45c.58.68.99,1.47,1.21,2.32l-7.34,7.34c-.85-.23-1.64-.64-2.32-1.21Zm8.11-.34c-1.13,1.13-2.64,1.76-4.24,1.76-.11,0-.22-.01-.33-.02l6.31-6.31c0,.11.02.22.02.33,0,1.6-.62,3.11-1.76,4.24Z"/></g><path d="m10.45,17.79l7.34-7.34c-.23-.85-.64-1.64-1.21-2.32l-8.45,8.45c.68.58,1.47.99,2.32,1.21Z"/><path d="m7.42,15.87L15.85,7.44c-.7-.59-1.49-.99-2.32-1.21l-7.32,7.32c.23.85.64,1.64,1.21,2.32Z"/><path d="m12.31,6.03c-1.64-.08-3.3.48-4.55,1.73-1.13,1.13-1.76,2.64-1.76,4.24,0,.11.01.22.02.33l6.29-6.3Z"/><path d="m12,18c1.6,0,3.11-.62,4.24-1.76,1.13-1.13,1.76-2.64,1.76-4.24,0-.11-.01-.22-.02-.33l-6.31,6.31c.11,0,.22.02.33.02Z"/></svg>