<svg xmlns="http://www.w3.org/2000/svg" width="24" height="24" viewBox="0 0 24 24"><g opacity="0.4"><path d="m16.5,14.71c-.96,0-1.42-.35-1.95-.75-.59-.45-1.26-.96-2.55-.96s-1.96.51-2.55.96c-.53.41-.99.75-1.95.75s-1.41-.35-1.95-.75c-.59-.45-1.26-.96-2.55-.96v1c.95,0,1.41.35,1.94.75.59.45,1.26.96,2.55.96s1.96-.51,2.55-.96c.53-.41.99-.75,1.95-.75s1.42.35,1.95.75c.59.45,1.26.96,2.55.96s1.96-.51,2.55-.96c.53-.41.99-.75,1.95-.75v-1c-1.29,0-1.96.51-2.55.96-.53.4-.99.75-1.95.75Z"/><path d="m16.5,19c-.96,0-1.42-.35-1.95-.75-.59-.45-1.26-.96-2.55-.96s-1.96.51-2.55.96c-.53.41-.99.75-1.95.75s-1.41-.35-1.95-.75c-.59-.45-1.26-.96-2.55-.96v1c.95,0,1.41.35,1.94.75.59.45,1.26.96,2.55.96s1.96-.51,2.55-.96c.53-.41.99-.75,1.95-.75s1.42.35,1.95.75c.59.45,1.26.96,2.55.96s1.96-.51,2.55-.96c.53-.41.99-.75,1.95-.75v-1c-1.29,0-1.96.51-2.55.96-.53.4-.99.75-1.95.75Z"/></g><path d="m17.5,9c.83,0,1.5-.67,1.5-1.5s-.67-1.5-1.5-1.5-1.5.67-1.5,1.5.67,1.5,1.5,1.5Z"/><path d="m11.52,6.23l1.9,1.9-3.14,3.36c.45-.2,1-.34,1.71-.34,1.46,0,2.24.59,2.86,1.06.52.39.86.65,1.65.65s1.13-.26,1.65-.65c.14-.1.29-.22.44-.32l-7.11-7.11-4.35,4.9.75.66,3.65-4.1Z"/></svg>