<svg xmlns="http://www.w3.org/2000/svg" width="24" height="24" viewBox="0 0 24 24"><g opacity="0.4"><path d="m17.12,17.09c-.16-1.1.96-2.41,1.48-3.45.71-1.45,4.02-5.87.85-6.32-.8.02-1.2.25-1.82.51-2.14,1.03-4.16,2.38-6.17,3.48,1.35-1.93,2.41-4.17.24-5.75C7.58,3.48,3.96,9.75,3,12.95c2.21-1.73,4.08-3.88,6.46-5.03.32-.13.58-.14.68-.12.04,0,.07.02.1.04-.21,1.12-1.39,2.53-2.19,3.66-.4.61-.88,1.1-1.07,1.91-.21.81.45,1.71,1.24,1.78.56.07,1.12-.14,1.5-.29,3.38-1.37,6.04-3.82,9.16-5.48-.09.34-.23.7-.35,1.02-.38,1.66-4.77,8.28-.28,7.38.98-.24,1.85-.65,2.73-1.07-.93.26-1.88.48-2.8.56-.44.04-.97-.02-1.07-.21Z"/></g></svg>