<svg xmlns="http://www.w3.org/2000/svg" width="24" height="24" viewBox="0 0 24 24"><g opacity="0.4"><path d="m14.31,10l4.52,7.83c.35-.41.68-.85.96-1.33,1.15-1.98,1.48-4.28.97-6.5h-6.46Z"/><path d="m9.67,3.31c-1.44.39-2.73,1.11-3.79,2.09l3.23,5.6,4.53-7.84c-1.3-.24-2.65-.2-3.97.15Z"/><path d="m7.5,19.79c.6.34,1.22.6,1.85.79l3.22-5.59H3.53c.69,1.95,2.04,3.68,3.97,4.79Z"/></g><path d="m16.5,4.21c-.59-.34-1.21-.6-1.85-.8l-3.23,5.59h9.06c-.71-2.02-2.1-3.71-3.98-4.79Z"/><path d="m18.11,18.59l-3.23-5.59-4.52,7.83c.54.1,1.08.17,1.62.17,2.25,0,4.45-.85,6.13-2.41Z"/><path d="m5.16,6.15c-.35.42-.68.86-.96,1.35-1.18,2.04-1.46,4.36-.97,6.5h6.45l-4.53-7.85Z"/></svg>