<svg xmlns="http://www.w3.org/2000/svg" width="24" height="24" viewBox="0 0 24 24"><g opacity="0.4"><path d="m11.99,6.01h.01c3.41-.01,3.5,1.91,3.5,2h1s-.05-3-4.5-3-4.98,2.69-5,3.23c-.03.75.06,2.17,1.03,3.18.03.03.08.06.11.09h2.85c-.99,0-1.74-.26-2.24-.78-.71-.75-.78-1.85-.76-2.45.02-.53.38-2.27,4-2.27Z"/><path d="m15.78,12.49h0s-2.99.01-2.99.01c1.09,0,1.92.28,2.45.84.71.74.78,1.81.75,2.39-.02.53-.4,2.27-4.26,2.27-3.64,0-3.73-1.92-3.73-2.01h-1s.05,3,4.73,3,5.23-2.47,5.26-3.23c.03-.73-.06-2.11-1.03-3.12-.05-.06-.12-.1-.18-.15Z"/></g><path d="M5 11.5H19V12.5H5z"/></svg>