<svg xmlns="http://www.w3.org/2000/svg" width="24" height="24" viewBox="0 0 24 24"><g opacity="0.4"><path d="m16.25,10.9c-.48.66-1.25,1.1-2.12,1.1s-1.65-.44-2.12-1.1c-.48.66-1.25,1.1-2.12,1.1s-1.65-.44-2.12-1.1c-.48.66-1.25,1.1-2.12,1.1-.62,0-1.18-.22-1.62-.58v9.58h5v-6h6v6h5v-9.58c-.45.36-1.01.58-1.62.58-.88,0-1.65-.44-2.12-1.1Z"/></g><path d="m15.38,3H5.17l-2.13,4.8-.04,1.58c0,1.45,1.18,2.62,2.62,2.62.88,0,1.65-.44,2.12-1.1.48.66,1.25,1.1,2.12,1.1s1.65-.44,2.12-1.1c.48.66,1.25,1.1,2.12,1.1s1.65-.44,2.12-1.1c.48.66,1.25,1.1,2.12,1.1,1.45,0,2.62-1.18,2.62-2.62v-1.38l-2.17-5h-3.45Z"/><path d="M9 15H15V21H9z"/></svg>