<svg xmlns="http://www.w3.org/2000/svg" width="24" height="24" viewBox="0 0 24 24"><g opacity="0.4"><path d="m10,3c-3.86,0-7,3.14-7,7s3.14,7,7,7,7-3.14,7-7-3.14-7-7-7Zm-.9,9.15l-.71.71-2.85-2.85,2.85-2.85.71.71-2.15,2.15,2.15,2.15Zm2.5.71l-.71-.71,2.15-2.15-2.15-2.15.71-.71,2.85,2.85-2.85,2.85Z"/></g><path d="M10.9 7.85 13.04 10 10.9 12.15 11.6 12.85 14.46 10 11.6 7.15 10.9 7.85z"/><path d="M8.4 7.15 5.54 10 8.4 12.85 9.1 12.15 6.96 10 9.1 7.85 8.4 7.15z"/><path d="m15.28,14.58c-.22.25-.45.49-.71.71l5.42,5.42.71-.71-5.42-5.42Z"/></svg>