<svg xmlns="http://www.w3.org/2000/svg" width="24" height="24" viewBox="0 0 24 24"><g opacity="0.4"><path d="m2.71,12l4.24,9h13.34l-4.24-9H2.71Zm14.12,4h-4.77l-1.5-3h4.86l1.41,3Zm-7.39-3l1.5,3h-5.24l-1.41-3h5.15Zm-3.27,4h5.27l1.5,3h-5.36l-1.41-3Zm7.89,3l-1.5-3h4.74l1.41,3h-4.65Z"/></g><path d="M11.5 3H12.5V6H11.5z"/><path d="M7.15 7.85 7.5 7.5 7.85 7.15 6.92 6.21 5.99 5.28 5.64 5.64 5.28 5.99 6.21 6.92 7.15 7.85z"/><path d="M16.85 7.85 17.79 6.92 18.72 5.99 18.36 5.64 18.01 5.28 17.08 6.21 16.15 7.15 16.5 7.5 16.85 7.85z"/><path d="M18 11.5H21V12.5H18z"/><path d="m9,12h7c0-2.21-1.79-4-4-4s-4,1.79-4,4h1Z"/></svg>