<svg xmlns="http://www.w3.org/2000/svg" width="24" height="24" viewBox="0 0 24 24"><g opacity="0.4"><path class="st0" d="M12,9c-2.2,0-4,1.8-4,4v6h8v-6C16,10.8,14.2,9,12,9z"/></g><path d="M5 19H19V20H5z"/><path d="M12.5 7 12.5 5.5 12.5 4 12 4 11.5 4 11.5 5.5 11.5 7 12 7 12.5 7z"/><path d="M18 12 18 12.5 18 13 19.5 13 21 13 21 12.5 21 12 19.5 12 18 12z"/><path d="M6 13 6 12.5 6 12 4.5 12 3 12 3 12.5 3 13 4.5 13 6 13z"/><path d="M16.6 8.61 17.66 7.55 18.72 6.49 18.36 6.14 18.01 5.78 16.95 6.84 15.89 7.9 16.24 8.26 16.6 8.61z"/><path d="M7.4 8.61 7.76 8.26 8.11 7.9 7.05 6.84 5.99 5.78 5.64 6.14 5.28 6.49 6.34 7.55 7.4 8.61z"/></svg>