<svg xmlns="http://www.w3.org/2000/svg" width="24" height="24" viewBox="0 0 24 24"><g opacity="0.4"><path d="m12.5,15.95c-.17.02-.33.05-.5.05s-.33-.03-.5-.05v2.05h-2.5v1h2.5v2h1v-2h2.5v-1h-2.5v-2.05Z"/><path d="m14.44,8.85c.26.21.5.44.71.71l3.71-3.71-.71-.71-3.71,3.71Z"/><path d="m8.21,7.5l1.65-1.65-.71-.71-1.65,1.65-1.65-1.65-.71.71,1.65,1.65-1.65,1.65.71.71,1.65-1.65,1.35,1.35c.21-.26.44-.5.71-.71l-1.35-1.35Z"/></g><path d="M12 8A4 4 0 1 0 12 16 4 4 0 1 0 12 8z"/><path d="M3 3 3 8 8 3 3 3z"/><path d="M21 8 21 3 16 3 21 8z"/></svg>