<svg xmlns="http://www.w3.org/2000/svg" width="24" height="24" viewBox="0 0 24 24"><g opacity="0.4"><path d="M3 4H8V8.75H3z"/><path d="M9 9.75H15V14.25H9z"/><path d="M3 9.75H8V14.25H3z"/><path d="M9 4H15V8.75H9z"/><path d="M16 4H21V8.75H16z"/><path d="M16 15.25H21V20H16z"/><path d="M16 9.75H21V14.25H16z"/><path d="M9 15.25H15V20H9z"/><path d="M3 15.25H8V20H3z"/></g><path d="m16,4h-1v4.75h-6v-4.75h-1v4.75H3v1h5v4.5H3v1h5v4.75h1v-4.75h6v4.75h1v-4.75h5v-1h-5v-4.5h5v-1h-5v-4.75Zm-1,10.25h-6v-4.5h6v4.5Z"/></svg>