<svg xmlns="http://www.w3.org/2000/svg" width="24" height="24" viewBox="0 0 24 24"><g opacity="0.4"><path d="m3,20h18V4H3v16Zm10-11h5v1h-5v-1Zm0,5h5v1h-5v-1Zm-6.15-5.35l1.15,1.15,2.15-2.15.71.71-2.85,2.85-1.85-1.85.71-.71Zm0,5l1.15,1.15,2.15-2.15.71.71-2.85,2.85-1.85-1.85.71-.71Z"/></g><path d="M10.85 13.35 10.15 12.65 8 14.79 6.85 13.65 6.15 14.35 8 16.21 10.85 13.35z"/><path d="M13 9H18V10H13z"/><path d="M13 14H18V15H13z"/><path d="M10.85 8.35 10.15 7.65 8 9.79 6.85 8.65 6.15 9.35 8 11.21 10.85 8.35z"/></svg>