<svg xmlns="http://www.w3.org/2000/svg" width="24" height="24" viewBox="0 0 24 24"><g opacity="0.4"><path d="m3,15h18V7H3v8Zm17-7v1.62l-2.19,4.38h-1.12l3-6h.31Zm-2.44,0l-3,6h-1.12l3-6h1.12Zm-3.5,0l-3,6h-1.12l3-6h1.12Zm-3.5,0l-3,6h-1.12l3-6h1.12Zm-6.56,4.38l2.19-4.38h1.12l-3,6h-.31v-1.62Z"/></g><path d="M6 4H7V7H6z"/><path d="M17 4H18V7H17z"/><path d="M6 15H7V20H6z"/><path d="M17 15H18V20H17z"/><path d="M7.56 14 10.56 8 9.44 8 6.44 14 7.56 14z"/><path d="M7.31 8 6.19 8 4 12.38 4 14 4.31 14 7.31 8z"/><path d="M11.06 14 14.06 8 12.94 8 9.94 14 11.06 14z"/><path d="M17.81 14 20 9.62 20 8 19.69 8 16.69 14 17.81 14z"/><path d="M14.56 14 17.56 8 16.44 8 13.44 14 14.56 14z"/></svg>