<svg xmlns="http://www.w3.org/2000/svg" width="24" height="24" viewBox="0 0 24 24"><g opacity="0.4"><path d="M3 19 3 19.5 3 20 9 20 9 14 3 14 3 19z"/><path d="M3 7H9V13H3z"/><path d="M15 20 21 20 21 19.5 21 19 21 14 15 14 15 20z"/><path d="M15 7H21V13H15z"/></g><path d="M11.5 3H12.5V6H11.5z"/><path d="M11.5 8H12.5V11H11.5z"/><path d="M11.5 13H12.5V16H11.5z"/><path d="M11.5 18H12.5V21H11.5z"/><path d="M15 13H21V14H15z"/><path d="M3 13H9V14H3z"/><path d="M3 4.5 3 5 3 7 9 7 9 4 3 4 3 4.5z"/><path d="M15 7 21 7 21 5 21 4.5 21 4 15 4 15 7z"/></svg>