<svg xmlns="http://www.w3.org/2000/svg" width="24" height="24" viewBox="0 0 24 24"><g opacity="0.4"><path d="m14.5,6c-2.35,0-4.45,1.24-5.59,3.19,2.35.62,4.09,2.77,4.09,5.31h-1c0-2.15-1.52-3.95-3.54-4.39,0,0,0,0,0,0-.08-.02-.16-.03-.24-.04-.23-.04-.47-.07-.72-.07-2.48,0-4.5,2.02-4.5,4.5s2.02,4.5,4.5,4.5h7c3.58,0,6.5-2.92,6.5-6.5s-2.92-6.5-6.5-6.5Z"/></g><path d="m4,10c.38,0,.71-.22.87-.54l.67,1.01c.31-.15.63-.27.97-.35l-.78-1.16c.44-.11.76-.48.76-.95,0-.55-.45-1-1-1s-1,.45-1,1c0,.06.02.12.04.18-.16-.1-.33-.18-.54-.18-.55,0-1,.45-1,1s.45,1,1,1Z"/><path d="m12,14.5h1c0-2.55-1.74-4.69-4.09-5.31-.17.29-.32.6-.45.92,2.02.44,3.54,2.24,3.54,4.39Z"/></svg>