<svg xmlns="http://www.w3.org/2000/svg" width="24" height="24" viewBox="0 0 24 24"><g opacity="0.4"><path d="m12,3C7.04,3,3,7.04,3,12s4.04,9,9,9,9-4.04,9-9S16.96,3,12,3Zm0,3c.83,0,1.5.67,1.5,1.5s-.67,1.5-1.5,1.5-1.5-.67-1.5-1.5.67-1.5,1.5-1.5Zm3,11.25l-1.5.75-1.25-3.5h-.5l-1.25,3.5-1.5-.75,1.5-4.25v-1.5l-3-1,.5-1.5,3,1h2l3-1,.5,1.5-3,1v1.5l1.5,4.25Z"/></g><path d="M10.5 13 9 17.25 10.5 18 11.75 14.5 12.25 14.5 13.5 18 15 17.25 13.5 13 13.5 11.5 16.5 10.5 16 9 13 10 11 10 8 9 7.5 10.5 10.5 11.5 10.5 13z"/><path d="M12 6A1.5 1.5 0 1 0 12 9 1.5 1.5 0 1 0 12 6z"/></svg>