<svg xmlns="http://www.w3.org/2000/svg" width="24" height="24" viewBox="0 0 24 24"><g opacity="0.4"><path d="m16,11c0,2.21-1.79,4-4,4s-4-1.79-4-4v-6h-1v6c0,2.76,2.24,5,5,5s5-2.24,5-5v-6h-1v6Z"/></g><path d="m16.2,17.58c-.84,0-1.29.27-1.66.49-.33.19-.58.35-1.14.35s-.82-.15-1.14-.35c-.36-.22-.82-.49-1.66-.49s-1.29.27-1.66.49c-.32.19-.58.35-1.14.35s-.82-.15-1.14-.35c-.36-.22-.82-.49-1.66-.49v1c.56,0,.82.15,1.14.35.37.22.82.49,1.66.49s1.29-.27,1.66-.49c.33-.19.58-.35,1.14-.35s.82.15,1.14.35c.37.22.82.49,1.66.49s1.29-.27,1.66-.49c.33-.2.58-.35,1.15-.35s.82.15,1.14.35c.37.22.82.49,1.66.49v-1c-.56,0-.82-.15-1.14-.35-.37-.22-.82-.49-1.66-.49Z"/></svg>