<svg xmlns="http://www.w3.org/2000/svg" width="24" height="24" viewBox="0 0 24 24"><g opacity="0.4"><path d="m16,11c0,2.21-1.79,4-4,4s-4-1.79-4-4v-6h-1v6c0,2.76,2.24,5,5,5s5-2.24,5-5v-6h-1v6Z"/></g><path d="M6 18A.5.5 0 1 0 6 19 .5.5 0 1 0 6 18z"/><path d="M8 18A.5.5 0 1 0 8 19 .5.5 0 1 0 8 18z"/><path d="M10 18A.5.5 0 1 0 10 19 .5.5 0 1 0 10 18z"/><path d="M12 18A.5.5 0 1 0 12 19 .5.5 0 1 0 12 18z"/><path d="M14 18A.5.5 0 1 0 14 19 .5.5 0 1 0 14 18z"/><path d="M16 18A.5.5 0 1 0 16 19 .5.5 0 1 0 16 18z"/><path d="M18 18A.5.5 0 1 0 18 19 .5.5 0 1 0 18 18z"/></svg>