<svg xmlns="http://www.w3.org/2000/svg" width="24" height="24" viewBox="0 0 24 24"><g opacity="0.4"><path d="M6.86 8 3 8 3 16 6.86 16 14 20.39 14 14.71 7.13 7.83 6.86 8z"/><path d="M14 13.29 14 3.61 8 7.3 14 13.29z"/><path d="m16,7.54v7.75l.57.57c.89-1.04,1.43-2.39,1.43-3.86,0-1.77-.78-3.36-2-4.46Z"/><path d="m16,3.95v1.13c2.39,1.39,4,3.96,4,6.92,0,2.03-.77,3.86-2.02,5.27l.71.71c1.43-1.59,2.31-3.68,2.31-5.98,0-3.52-2.04-6.57-5-8.05Z"/><path d="m16,18.92v1.13c.72-.36,1.39-.82,1.99-1.35l-.72-.72c-.4.35-.81.67-1.27.94Z"/></g><path d="M3.35 2.65 3 3 2.65 3.35 11.65 12.35 20.65 21.35 21 21 21.35 20.65 12.35 11.65 3.35 2.65z"/></svg>