<svg xmlns="http://www.w3.org/2000/svg" width="24" height="24" viewBox="0 0 24 24"><g opacity="0.4"><path d="m12,6c0-1.65-1.35-3-3-3s-2.75,1.27-2.75,2.5h1c0-.74.65-1.5,1.75-1.5s2,.9,2,2-.9,2-2,2H3v1h6c1.65,0,3-1.35,3-3Z"/><path d="m15,15h-7v1h7c1.1,0,2,.9,2,2s-.9,2-2,2-1.75-.76-1.75-1.5h-1c0,1.23,1.03,2.5,2.75,2.5s3-1.35,3-3-1.35-3-3-3Z"/></g><path d="m17.5,5.5c-1.93,0-3.5,1.57-3.5,3.5h1c0-1.38,1.12-2.5,2.5-2.5s2.5,1.12,2.5,2.5-1.12,2.5-2.5,2.5H3v1h14.5c1.93,0,3.5-1.57,3.5-3.5s-1.57-3.5-3.5-3.5Z"/><path d="M3 15H6V16H3z"/></svg>