<svg xmlns="http://www.w3.org/2000/svg" width="24" height="24" viewBox="0 0 24 24"><g opacity="0.4"><path d="m4,21h16V3H4v18ZM17,5c.55,0,1,.45,1,1s-.45,1-1,1-1-.45-1-1,.45-1,1-1Zm-3,0c.55,0,1,.45,1,1s-.45,1-1,1-1-.45-1-1,.45-1,1-1Zm-2,3c2.76,0,5,2.24,5,5s-2.24,5-5,5-5-2.24-5-5,2.24-5,5-5Z"/></g><path d="M17 5A1 1 0 1 0 17 7 1 1 0 1 0 17 5z"/><path d="M14 5A1 1 0 1 0 14 7 1 1 0 1 0 14 5z"/><path d="m11.9,16.21c.23,0,.45,0,.68-.05,1.05-.2,1.93-.99,2.27-2,.25-.71.2-1.49-.11-2.17-.07-.15-.24-.24-.41-.2-.45.11-.76.34-1.12.6-.59.43-1.32.97-2.69.97-.61,0-1.09-.11-1.49-.27h0c-.06,1.67,1.24,3.06,2.9,3.12Z"/></svg>