<svg xmlns="http://www.w3.org/2000/svg" width="24" height="24" viewBox="0 0 24 24"><g opacity="0.4"><path d="M13.94 11 12.89 11 13.84 14 14.89 14 13.94 11z"/><path d="M9.11 14 10.16 14 11.11 11 10.06 11 9.11 14z"/><path d="M19.2 10 20.26 10 21.68 6 20.62 6 19.2 10z"/><path d="M17.78 14 18.85 14 19.91 11 18.85 11 17.78 14z"/><path d="M5.15 11 4.09 11 5.15 14 6.22 14 5.15 11z"/><path d="M12.37 6 11.63 6 10.37 10 11.42 10 12 8.17 12.58 10 13.63 10 12.37 6z"/><path d="M7.86 18 7.63 18 6.57 15 5.51 15 6.92 19 8.59 19 9.85 15 8.8 15 7.86 18z"/><path d="M16.37 18 16.14 18 15.2 15 14.15 15 15.41 19 17.08 19 18.49 15 17.43 15 16.37 18z"/><path d="M3.38 6 2.32 6 3.74 10 4.8 10 3.38 6z"/></g><path d="M2 10H22V11H2z"/><path d="M2 14H22V15H2z"/></svg>