<svg xmlns="http://www.w3.org/2000/svg" width="24" height="24" viewBox="0 0 24 24"><g opacity="0.4"><path d="m6.81,6.04l-4.01,15.16,15.16-4.01c-.4-5.98-5.17-10.75-11.15-11.15Zm.19,11.96c-.55,0-1-.45-1-1s.45-1,1-1,1,.45,1,1-.45,1-1,1Zm1-4c-.55,0-1-.45-1-1s.45-1,1-1,1,.45,1,1-.45,1-1,1Zm1-5c0-.55.45-1,1-1s1,.45,1,1-.45,1-1,1-1-.45-1-1Zm2,8c-.55,0-1-.45-1-1s.45-1,1-1,1,.45,1,1-.45,1-1,1Zm1.5-4c-.55,0-1-.45-1-1s.45-1,1-1,1,.45,1,1-.45,1-1,1Zm3.5,2c0,.55-.45,1-1,1s-1-.45-1-1,.45-1,1-1,1,.45,1,1Z"/></g><path d="m8,3h-.38l-.8,3.04c5.98.4,10.75,5.17,11.15,11.15l3.04-.8v-.38c0-7.17-5.83-13-13-13Z"/><path d="M15 14A1 1 0 1 0 15 16 1 1 0 1 0 15 14z"/><path d="M12.5 11A1 1 0 1 0 12.5 13 1 1 0 1 0 12.5 11z"/><path d="M10 8A1 1 0 1 0 10 10 1 1 0 1 0 10 8z"/><path d="M8 12A1 1 0 1 0 8 14 1 1 0 1 0 8 12z"/><path d="M11 15A1 1 0 1 0 11 17 1 1 0 1 0 11 15z"/><path d="M7 16A1 1 0 1 0 7 18 1 1 0 1 0 7 16z"/></svg>