<svg xmlns="http://www.w3.org/2000/svg" width="24" height="24" viewBox="0 0 24 24"><g opacity="0.4"><path d="m19.98,6.67l-7.98-3.73-7.98,3.73v.3c-.02.1-.44,10.39,7.78,13.98l.2.09.2-.09c8.21-3.6,7.8-13.88,7.79-13.98v-.3Zm-4.62,7.97l-.71.71-2.65-2.65-2.65,2.65-.71-.71,2.65-2.65-2.65-2.65.71-.71,2.65,2.65,2.65-2.65.71.71-2.65,2.65,2.65,2.65Z"/></g><path d="M9.35 15.35 12 12.71 14.65 15.35 15.35 14.65 12.71 12 15.35 9.35 14.65 8.65 12 11.29 9.35 8.65 8.65 9.35 11.29 12 8.65 14.65 9.35 15.35z"/></svg>