<svg xmlns="http://www.w3.org/2000/svg" width="24" height="24" viewBox="0 0 24 24"><g opacity="0.4"><path d="m12.58,3.03c-.19-.01-.38-.03-.58-.03C7.03,3,3,7.03,3,12s3.72,8.67,8.42,8.97c-1.1-.17-3.41-.9-3.41-3.96,0-5.01,7.98-5.01,7.98-10.03,0-3.06-2.31-3.78-3.41-3.96Zm-1.08,5.47c-.83,0-1.5-.67-1.5-1.5s.67-1.5,1.5-1.5,1.5.67,1.5,1.5-.67,1.5-1.5,1.5Z"/></g><path d="M11.5 5.5A1.5 1.5 0 1 0 11.5 8.5 1.5 1.5 0 1 0 11.5 5.5z"/><path d="m12.58,3.03c1.1.17,3.41.9,3.41,3.96,0,5.01-7.98,5.01-7.98,10.03,0,3.06,2.31,3.78,3.41,3.96.19.01.38.03.58.03,4.97,0,9-4.03,9-9S17.28,3.33,12.58,3.03Zm-.08,15.47c-.83,0-1.5-.67-1.5-1.5s.67-1.5,1.5-1.5,1.5.67,1.5,1.5-.67,1.5-1.5,1.5Z"/></svg>