<svg xmlns="http://www.w3.org/2000/svg" viewBox="0 0 24 24" width="24" height="24"><path d="m21.1,5.3c-.44-.8-1.28-1.3-2.2-1.3h-3.96c-.23-1.14-1.24-2-2.45-2H2.5c-1.38,0-2.5,1.12-2.5,2.5v11c0,1.21.86,2.22,2,2.45,0,.02,0,.03,0,.05,0,2.21,1.79,4,4,4s4-1.79,4-4h4c0,2.21,1.79,4,4,4s4-1.79,4-4c0-.02,0-.03,0-.05,1.14-.23,2-1.24,2-2.45v-4.25c0-.42-.11-.83-.31-1.2l-2.59-4.75Zm-15.1,13.7c-.55,0-1-.45-1-1,0-.21.07-.43.2-.6.11-.15.37-.4.8-.4.11,0,.21.02.29.04.26.08.42.25.51.36.12.17.2.38.2.6,0,.55-.45,1-1,1Zm5.5-8h-2.5v2.5h-3v-2.5h-2.5v-3h2.5v-2.5h3v2.5h2.5v3Zm6.5,8c-.55,0-1-.45-1-1,0-.21.07-.43.2-.6.11-.15.37-.4.8-.4.11,0,.21.02.29.04.26.08.42.25.51.36.12.17.2.38.2.6,0,.55-.45,1-1,1Zm-3-9v-3h3.61l1.64,3h-5.25Z"/></svg>