<svg xmlns="http://www.w3.org/2000/svg" viewBox="0 0 24 24" width="24" height="24"><path d="M19.02 1.97 18.49 2.5 17.96 3.03 19.47 4.53 20.97 6.03 21.5 5.5 22.03 4.97 20.52 3.47 19.02 1.97z"/><path d="M2.5 5.5 3.03 6.03 4.53 4.53 6.02 3.03 5.49 2.5 4.96 1.97 3.46 3.47 1.97 4.97 2.5 5.5z"/><path d="m12,3C6.58,3,2,7.58,2,13s4.58,10,10,10,10-4.58,10-10S17.42,3,12,3Zm4,14.25h-6.25c-.58,0-1.11-.33-1.36-.86-.25-.52-.17-1.14.19-1.59l2.5-3.05h-3.08v-3h6.25c.58,0,1.11.33,1.36.86.25.52.17,1.14-.19,1.59l-2.5,3.05h3.08v3Z"/></svg>