<svg xmlns="http://www.w3.org/2000/svg" viewBox="0 0 24 24" width="24" height="24"><path class="b" d="m19.75,4.55c-.72-.42-1.63-.17-2.05.55-.42.72-1.33.96-2.05.55l-5.2-3c-.72-.42-1.63-.17-2.05.55l-2.25,3.9c-.2.34-.25.75-.15,1.14.1.38.35.71.7.91l5.2,3c.72.41.96,1.33.55,2.05-.41.72-.17,1.63.55,2.05,1.06.62,2.21.93,3.34.93.59,0,1.18-.09,1.75-.26,1.59-.49,2.99-1.65,3.92-3.26.93-1.62,1.24-3.4.87-5.03-.39-1.69-1.5-3.13-3.12-4.07Z"/><path class="b" d="m4.58,9.82l-3.69,6.38c-.41.72-.17,1.63.55,2.05l2.33,1.34c.23.13.49.2.75.2.13,0,.26-.02.39-.05.38-.1.71-.35.91-.7l3.51-6.08-3.62-2.09c-.46-.26-.83-.63-1.13-1.05Z"/></svg>