<svg xmlns="http://www.w3.org/2000/svg" viewBox="0 0 24 24" width="24" height="24"><path d="m21.5,10h-6.31c-.13-.27-.29-.48-.4-.63-.17-.21-.18-.23-.18-.38s.02-.17.18-.38c.23-.29.62-.77.62-1.63s-.39-1.34-.62-1.62c-.17-.21-.18-.23-.18-.37s.02-.17.18-.37c.09-.11.21-.27.31-.46l7.05-.99-.28-1.98L1.86,4.01l.28,1.98,2.52-.36s-.01.07-.01.11c0,.79.36,1.23.57,1.5q.13.16.13.25t-.13.25c-.21.27-.57.71-.57,1.5,0,.3.06.54.14.75h-2.29c-.83,0-1.5.67-1.5,1.5,0,3.77,1.89,7.12,5,8.96v1.04c0,.83.67,1.5,1.5,1.5h9c.83,0,1.5-.67,1.5-1.5v-1.04c3.11-1.84,5-5.19,5-8.96,0-.83-.67-1.5-1.5-1.5Zm-8.28-3.38c.17.21.18.23.18.37s-.02.17-.18.38c-.23.29-.62.77-.62,1.63,0,.42.09.74.22,1h-1.63c-.13-.27-.29-.48-.4-.63-.17-.21-.18-.23-.18-.38s.02-.17.18-.38c.23-.29.62-.77.62-1.63s-.39-1.34-.62-1.62c-.17-.21-.18-.23-.18-.37,0-.09.01-.14.06-.21l2-.28c-.03.15-.05.31-.05.49,0,.85.39,1.33.62,1.62Zm-6.44,2.88q-.13-.16-.13-.25,0-.09.13-.25c.21-.27.57-.71.57-1.5s-.36-1.23-.57-1.5q-.13-.16-.13-.25,0-.09.13-.25c.04-.05.09-.12.14-.18l1.69-.24c.03.8.39,1.26.61,1.54.17.21.18.23.18.37s-.02.17-.18.38c-.23.29-.62.77-.62,1.63,0,.42.09.74.22,1h-1.7c-.11-.21-.23-.38-.33-.5Z"/></svg>