<svg xmlns="http://www.w3.org/2000/svg" width="24" height="24" viewBox="0 0 24 24"><path d="M17.5 14.75c-1.62 0-2.46-.61-3.19-1.14-.66-.48-1.18-.86-2.31-.86s-1.65.38-2.31.86c-.74.54-1.57 1.14-3.19 1.14s-2.45-.61-3.19-1.14c-.66-.48-1.18-.86-2.31-.86v7.75c0 .83.67 1.5 1.5 1.5h19c.83 0 1.5-.67 1.5-1.5v-7.75c-1.13 0-1.65.38-2.31.86-.74.54-1.57 1.14-3.19 1.14"/><path d="M19.5 4h-6V1h-3v3h-6C2.57 4 1 5.57 1 7.5v3.75c1.62 0 2.45.61 3.19 1.14.66.48 1.18.86 2.31.86s1.65-.38 2.31-.86c.74-.54 1.57-1.14 3.19-1.14s2.46.61 3.19 1.14c.66.48 1.18.86 2.31.86s1.65-.38 2.31-.86c.74-.54 1.57-1.14 3.19-1.14V7.5C23 5.57 21.43 4 19.5 4"/></svg>