<svg xmlns="http://www.w3.org/2000/svg" viewBox="0 0 24 24" width="24" height="24"><path d="M1 12.25H23V13.75H1z"/><path d="m5.5,23h13c2.48,0,4.5-2.02,4.5-4.5v-2c0-.83-.67-1.5-1.5-1.5h-8c-.46,0-.89.21-1.17.56l-2.83,3.54-2.83-3.54c-.28-.36-.71-.56-1.17-.56h-3c-.83,0-1.5.67-1.5,1.5v2c0,2.48,2.02,4.5,4.5,4.5Z"/><path d="m2.5,11h19c.83,0,1.5-.67,1.5-1.5v-.25c0-4.55-4.93-8.25-11-8.25S1,4.7,1,9.25v.25c0,.83.67,1.5,1.5,1.5Zm15.5-4c.55,0,1,.45,1,1s-.45,1-1,1-1-.45-1-1,.45-1,1-1Zm-3.5-3c.83,0,1.5.67,1.5,1.5s-.67,1.5-1.5,1.5-1.5-.67-1.5-1.5.67-1.5,1.5-1.5Zm-3,3c.28,0,.5.22.5.5s-.22.5-.5.5-.5-.22-.5-.5.22-.5.5-.5Z"/></svg>