<svg xmlns="http://www.w3.org/2000/svg" viewBox="0 0 24 24" width="24" height="24"><path d="M22.84 13.78c-.32-.11-.64-.21-.97-.28-.93-.19-1.93-.19-2.86 0a7 7 0 0 0-2.53 1.06c-.17.11-.33.24-.49.37l4.29 4.29c1.32-1.51 2.23-3.38 2.56-5.44M14.57 16.48c-.26.38-.48.79-.66 1.21-.18.43-.32.88-.41 1.33-.09.47-.14.95-.14 1.43s.05.96.14 1.43c.07.33.17.65.28.97 2.06-.34 3.93-1.25 5.44-2.56L14.93 16c-.13.16-.25.32-.37.49ZM11.47 6.9c-.21.51-.48 1-.79 1.46q-.255.375-.54.72l1.87 1.87 7.22-7.22a10.94 10.94 0 0 0-7.22-2.72c-.08 0-.16.01-.24.01q.12.405.21.81c.12.57.17 1.15.17 1.73s-.06 1.17-.17 1.73c-.11.55-.28 1.09-.5 1.61ZM13.06 12l1.87 1.87c.23-.19.47-.38.72-.54.46-.31.95-.58 1.46-.79.52-.22 1.06-.39 1.61-.5 1.13-.23 2.33-.23 3.46 0q.405.09.81.21c0-.08.01-.16.01-.24 0-2.76-1.03-5.28-2.72-7.22l-7.22 7.22ZM1 12c0 2.76 1.03 5.28 2.72 7.22L10.94 12l-1.87-1.87c-.23.19-.47.38-.72.54-.46.31-.95.58-1.46.79a8.388 8.388 0 0 1-3.34.67c-.58 0-1.17-.06-1.73-.17q-.405-.09-.81-.21c0 .08-.01.16-.01.24ZM4.78 20.28C6.71 21.97 9.24 23 12 23c.08 0 .16-.01.24-.01q-.12-.405-.21-.81c-.12-.57-.17-1.15-.17-1.73s.06-1.17.17-1.73c.11-.55.28-1.09.5-1.61.21-.51.48-1 .79-1.46q.255-.375.54-.72l-1.87-1.87-7.22 7.22ZM10.22 1.16c-2.06.34-3.93 1.25-5.44 2.56l4.29 4.29c.13-.16.25-.32.37-.49.26-.38.48-.79.66-1.21.18-.43.32-.88.41-1.33.09-.47.14-.95.14-1.43s-.05-.96-.14-1.43c-.07-.33-.17-.65-.28-.97ZM1.16 10.22c.32.11.64.21.97.28.93.19 1.93.19 2.86 0a7 7 0 0 0 2.53-1.06c.17-.11.33-.24.49-.37L3.72 4.78a10.87 10.87 0 0 0-2.56 5.44"/></svg>