<svg xmlns="http://www.w3.org/2000/svg" viewBox="0 0 24 24" width="24" height="24"><path d="m21.96,10.08c-.18-2.6-1.95-4.73-4.42-5.37-.91-2.2-3.1-3.71-5.54-3.71s-4.63,1.51-5.54,3.71c-2.47.64-4.24,2.77-4.42,5.37-.6.2-1.04.75-1.04,1.42,0,3.77,1.89,7.12,5,8.96v1.04c0,.83.67,1.5,1.5,1.5h9c.83,0,1.5-.67,1.5-1.5v-1.04c3.11-1.84,5-5.19,5-8.96,0-.67-.44-1.23-1.04-1.42Zm-3-.08h-4.98s-.01-.07-.01-.1c-.01-.13-.03-.25-.05-.38-.02-.11-.04-.22-.06-.33-.03-.13-.07-.25-.1-.38-.02-.07-.03-.14-.06-.21.02-.02.04-.05.06-.07.14-.16.29-.3.45-.43.01,0,.03-.02.04-.03.18-.13.37-.23.58-.32.01,0,.03-.01.04-.02.21-.08.42-.14.64-.18.04,0,.07-.01.11-.02.22-.03.44-.04.65-.03,1.39.11,2.47,1.15,2.69,2.48Zm-6.96-6c.78,0,1.51.31,2.06.82-.04.01-.08.04-.12.05-.31.11-.6.24-.89.4-.11.06-.22.14-.32.21-.19.13-.38.26-.56.41-.06.05-.12.08-.17.13-.03-.03-.07-.05-.1-.07-.25-.22-.52-.41-.8-.58-.03-.02-.05-.04-.08-.05-.32-.18-.65-.33-1-.45-.03,0-.05-.03-.07-.03.54-.51,1.27-.82,2.06-.82Zm-4.27,3.52c.15-.01.3-.01.45,0,1.05.07,2,.66,2.48,1.62.1.19.17.39.22.59.01.05.02.09.03.14,0,.05,0,.09.02.14h-5.9c.22-1.34,1.3-2.37,2.69-2.48Z"/></svg>