<svg xmlns="http://www.w3.org/2000/svg" width="24" height="24" viewBox="0 0 24 24"><path d="M20.65 8.11a3.847 3.847 0 0 0-3.33-4.89A3.31 3.31 0 0 0 14.2 1c-.52 0-1.01.13-1.45.35v21.07c.58.36 1.26.58 2 .58 1.53 0 2.9-.91 3.51-2.27a4.403 4.403 0 0 0 3.45-5.61C22.53 14.3 23 13.19 23 12c0-1.66-.95-3.14-2.35-3.89M1 12c0 1.18.47 2.29 1.29 3.12-.12.41-.19.85-.19 1.28 0 2.15 1.55 3.95 3.64 4.33A3.87 3.87 0 0 0 9.25 23c.74 0 1.42-.22 2-.58V1.35C10.81 1.13 10.32 1 9.8 1c-1.43 0-2.65.91-3.11 2.22a3.848 3.848 0 0 0-3.34 4.89C1.95 8.86 1 10.34 1 12"/></svg>