<svg xmlns="http://www.w3.org/2000/svg" width="24" height="24" viewBox="0 0 24 24"><path d="M21.5 2H15c-1.16 0-2.2.45-3 1.17A4.46 4.46 0 0 0 9 2H2.5C1.67 2 1 2.67 1 3.5v16c0 .83.67 1.5 1.5 1.5h6.26c.39 0 .78.16 1.06.44l1.12 1.12s.05.04.07.06a.5.5 0 0 1 .08.07c.1.08.21.15.33.2.07.03.13.04.2.06.12.03.25.05.37.05s.25-.02.37-.05c.07-.02.14-.03.2-.06a1.6 1.6 0 0 0 .41-.27c.02-.02.05-.04.07-.06l1.12-1.12c.28-.28.67-.44 1.06-.44h6.26c.83 0 1.5-.67 1.5-1.5v-16c0-.83-.67-1.5-1.5-1.5ZM20 18h-4.76c-.6 0-1.19.12-1.74.35V6.5c0-.83.67-1.5 1.5-1.5h5z"/></svg>