<svg xmlns="http://www.w3.org/2000/svg" width="24" height="24" viewBox="0 0 24 24"><path d="M6 20.46v1.04c0 .83.67 1.5 1.5 1.5h9c.83 0 1.5-.67 1.5-1.5v-1.04c3.11-1.84 5-5.19 5-8.96 0-.83-.67-1.5-1.5-1.5h-19c-.83 0-1.5.67-1.5 1.5 0 3.77 1.89 7.12 5 8.96M9.75 9V7.93c0-1.12-.43-2.18-1.21-2.98a2.75 2.75 0 0 1-.79-1.93V2h-1.5v1.02c0 1.12.43 2.18 1.21 2.98.51.52.79 1.21.79 1.93V9zM13.75 9V7.93c0-1.12-.43-2.18-1.21-2.98a2.75 2.75 0 0 1-.79-1.93V2h-1.5v1.02c0 1.12.43 2.18 1.21 2.98.51.52.79 1.21.79 1.93V9zM17.75 9V7.93c0-1.12-.43-2.18-1.21-2.98a2.75 2.75 0 0 1-.79-1.93V2h-1.5v1.02c0 1.12.43 2.18 1.21 2.98.51.52.79 1.21.79 1.93V9z"/></svg>