<svg xmlns="http://www.w3.org/2000/svg" viewBox="0 0 24 24" width="24" height="24"><path d="M12 1c-.09 0-.19.01-.28.01.07.48.12.96.12 1.45 0 .29-.01.58-.04.87l-1.04-.1c.02-.25.04-.51.04-.77 0-.46-.05-.92-.12-1.37-5.01.6-8.98 4.57-9.59 9.58.71.12 1.44.16 2.15.09l.1 1.04c-.29.03-.58.04-.87.04-.49 0-.97-.05-1.45-.12 0 .09-.01.19-.01.28 0 6.07 4.93 11 11 11 .09 0 .19-.01.28-.01-.07-.48-.12-.96-.12-1.45 0-.29.01-.58.04-.87l1.04.1c-.02.25-.04.51-.04.77 0 .46.05.92.12 1.37 5-.61 8.97-4.58 9.58-9.58-.71-.12-1.43-.16-2.15-.09l-.1-1.04c.76-.07 1.55-.02 2.32.09 0-.1.01-.19.01-.29 0-6.07-4.93-11-11-11Zm-1.76 6.71c-.34.5-.72.96-1.14 1.39-.43.43-.89.81-1.39 1.14-.32.21-.65.41-.99.58l-.47-.93c.3-.15.6-.33.88-.52.44-.3.86-.64 1.23-1.02q.57-.57 1.02-1.23c.19-.28.36-.57.52-.88l.93.48c-.17.34-.37.67-.58.99Zm6.64 6.92c-.44.3-.86.64-1.23 1.02q-.57.57-1.02 1.23c-.19.28-.36.57-.52.88l-.93-.48c.17-.34.37-.67.58-.99.34-.5.72-.96 1.14-1.39.43-.43.89-.81 1.39-1.14.32-.21.65-.41.99-.58l.47.93c-.3.15-.6.33-.88.52Z"/></svg>