<svg xmlns="http://www.w3.org/2000/svg" viewBox="0 0 24 24" width="24" height="24"><path d="m20.33,4.57l-.63,1.64c-.63,1.64-2.02,2.91-3.71,3.4l-.57.16c-1.24.36-2.26,1.29-2.72,2.5-.63,1.64-2.02,2.91-3.71,3.4l-.57.16c-1.24.36-2.26,1.29-2.72,2.5l-.82,2.14,2.49,2.16c.28.24.63.37.98.37.12,0,.24-.01.36-.04.47-.12.86-.46,1.04-.92l.73-1.9c.29-.75.93-1.34,1.7-1.56l.47-.14c1.67-.48,3.05-1.74,3.67-3.37.29-.75.93-1.34,1.7-1.56l.47-.14c1.67-.48,3.04-1.74,3.67-3.37l.73-1.9c.23-.59.06-1.26-.42-1.67l-2.15-1.87Z"/><path d="m8.01,14.39l.57-.16c1.24-.36,2.26-1.29,2.72-2.5.63-1.64,2.02-2.91,3.71-3.4l.57-.16c1.24-.36,2.26-1.29,2.72-2.5l.82-2.14-2.49-2.16c-.37-.32-.87-.44-1.35-.32-.47.12-.86.46-1.04.92l-.73,1.9c-.29.75-.93,1.34-1.7,1.56l-.47.14c-1.67.48-3.05,1.74-3.67,3.37-.29.75-.93,1.34-1.7,1.56l-.47.14c-1.67.48-3.04,1.74-3.67,3.37l-.73,1.9c-.23.59-.06,1.26.42,1.67l2.15,1.87.63-1.64c.63-1.64,2.02-2.91,3.71-3.4Z"/></svg>