<svg xmlns="http://www.w3.org/2000/svg" viewBox="0 0 24 24" width="24" height="24"><path d="m22.5,8h-.5v-2.5c0-2.48-2.02-4.5-4.5-4.5H6.5c-2.48,0-4.5,2.02-4.5,4.5v2.5h-.5c-.28,0-.5.22-.5.5v3c0,.28.22.5.5.5h.5v6.5c0,.81.4,1.53,1,1.99v2.01c0,.28.22.5.5.5h3c.28,0,.5-.22.5-.5v-1.5h10v1.5c0,.28.22.5.5.5h3c.28,0,.5-.22.5-.5v-2.01c.6-.46,1-1.17,1-1.99v-6.5h.5c.28,0,.5-.22.5-.5v-3c0-.28-.22-.5-.5-.5ZM5,6h6.25v6h-6.25v-6Zm14,0v6h-6.25v-6h6.25Zm-4,10c0-1.1.9-2,2-2s2,.9,2,2-.9,2-2,2-2-.9-2-2Zm-10,0c0-1.1.9-2,2-2s2,.9,2,2-.9,2-2,2-2-.9-2-2Z"/></svg>