<svg xmlns="http://www.w3.org/2000/svg" viewBox="0 0 24 24" width="24" height="24"><path d="m19.75,4.19l-1.06,1.06c.89.89,1.59,1.92,2.07,3.07l1.38-.58c-.56-1.33-1.37-2.53-2.4-3.56Z"/><path d="m20.78,15.63l1.39.57c.55-1.34.83-2.75.83-4.21v-.04l-1.5.04c0,1.26-.24,2.48-.72,3.63Z"/><path d="m8.38,20.78l-.57,1.39c1.33.55,2.74.83,4.2.83h.01v-1.5c-1.27,0-2.49-.24-3.64-.72Z"/><path d="m15.61,3.21l.57-1.39c-1.32-.54-2.72-.82-4.2-.82h0v.14s.03,1.36.03,1.36c1.25,0,2.46.24,3.61.71Z"/><path d="m8.34,3.23l-.58-1.38c-1.34.56-2.53,1.36-3.56,2.4l1.06,1.06c.89-.89,1.92-1.59,3.07-2.07Z"/><path d="m15.64,20.78l.58,1.38c1.34-.56,2.54-1.36,3.56-2.39l-1.06-1.06c-.89.89-1.92,1.58-3.08,2.06Z"/><path d="m3.21,8.38l-1.39-.57c-.55,1.33-.83,2.74-.83,4.19v.02l1.5-.02c0-1.25.24-2.47.71-3.62Z"/><path d="m1.84,16.23c.56,1.34,1.36,2.54,2.39,3.56l1.06-1.06c-.89-.89-1.58-1.92-2.07-3.08l-1.38.58Z"/><path d="M12 5A7 7 0 1 0 12 19 7 7 0 1 0 12 5z"/></svg>