<svg xmlns="http://www.w3.org/2000/svg" viewBox="0 0 24 24" width="24" height="24"><path d="m21.5,5h-2.5v-1.5c0-1.38-1.12-2.5-2.5-2.5H7.5c-1.38,0-2.5,1.12-2.5,2.5v4.5h-2.5c-1.38,0-2.5,1.12-2.5,2.5v11c0,.83.67,1.5,1.5,1.5h21c.83,0,1.5-.67,1.5-1.5V7.5c0-1.38-1.12-2.5-2.5-2.5Zm-15.75,12h-2.5v-2.5h2.5v2.5Zm5,0h-2.5v-2.5h2.5v2.5Zm0-4.75h-2.5v-2.5h2.5v2.5Zm0-4.5h-2.5v-2.5h2.5v2.5Zm5,9.25h-2.5v-2.5h2.5v2.5Zm0-4.75h-2.5v-2.5h2.5v2.5Zm0-4.5h-2.5v-2.5h2.5v2.5Zm5,9.25h-2.5v-2.5h2.5v2.5Zm0-4.75h-2.5v-2.5h2.5v2.5Z"/></svg>