<svg xmlns="http://www.w3.org/2000/svg" viewBox="0 0 24 24" width="24" height="24"><path d="m20.18,16.82l1.39,1.39c.91-1.37,1.43-2.95,1.43-4.63,0-.45-.01-2.82-.21-4.79h0c-.14-1.31-.34-2.51-.6-3.56-.28-1.11-.62-2-1-2.66-.77-1.29-1.68-1.56-2.32-1.56s-1.55.27-2.32,1.57c-.33.55-.62,1.27-.86,2.14-2.36-.72-5-.72-7.36,0-.25-.87-.54-1.59-.86-2.14-.76-1.29-1.68-1.57-2.32-1.57s-1.55.27-2.32,1.57c-.39.66-.72,1.55-1,2.66-.26,1.05-.47,2.25-.6,3.56-.2,1.97-.21,4.34-.21,4.79,0,1.68.53,3.26,1.43,4.63l1.39-1.39c.1-.1.26-.1.35,0s.1.26,0,.35l-1.45,1.45c.32.43.68.84,1.08,1.22l1.52-1.52c.1-.1.26-.1.35,0s.1.26,0,.35l-1.51,1.51c2,1.74,4.77,2.81,7.83,2.81s5.84-1.08,7.83-2.81l-1.51-1.51c-.1-.1-.1-.26,0-.35s.26-.1.35,0l1.52,1.52c.4-.38.76-.78,1.08-1.22l-1.45-1.45c-.1-.1-.1-.26,0-.35s.26-.1.35,0Zm-13.43-3.82c-.97,0-1.75-.78-1.75-1.75s.78-1.75,1.75-1.75,1.75.78,1.75,1.75-.78,1.75-1.75,1.75Zm7.25,6c-.67,0-1.3-.26-1.77-.73-.09-.09-.16-.18-.23-.28-.07.1-.14.2-.23.28-.47.47-1.1.73-1.77.73s-1.3-.26-1.77-.73l.71-.71c.56.57,1.55.57,2.12,0,.28-.28.44-.66.44-1.06,0-.06-.01-.12-.02-.19-1.13-.26-1.98-1.35-1.98-2.44,0-.69,1.12-1.25,2.5-1.25s2.5.56,2.5,1.25c0,1.09-.85,2.18-1.98,2.44,0,.06-.02.12-.02.19,0,.4.16.78.44,1.06.57.57,1.56.57,2.12,0l.71.71c-.47.47-1.1.73-1.77.73Zm3.25-6c-.97,0-1.75-.78-1.75-1.75s.78-1.75,1.75-1.75,1.75.78,1.75,1.75-.78,1.75-1.75,1.75Z"/></svg>