<svg xmlns="http://www.w3.org/2000/svg" width="24" height="24" viewBox="0 0 24 24"><path d="M16.55 2c-2.05-.06-3.86 1.15-4.95 2.89-1.07 1.71-.98 3.19-.54 4.51l-8.69 8.59c-.24.23-.37.55-.37.89v1.87c0 .69.56 1.25 1.25 1.25h1.98c.33 0 .65-.13.88-.37l.7-.7a.62.62 0 0 0 .18-.44v-2.24l.81.81c.24.24.64.24.88 0l.62-.62a.62.62 0 0 0 .18-.44v-2.24l.81.81c.24.24.64.24.88 0l.62-.62a.62.62 0 0 0 .18-.44v-2.24l.8.58c.38.27.76.31.99.07l.85-.95c1.32.43 2.78.53 4.5-.59 1.74-1.13 2.96-2.99 2.84-5.07-.17-2.9-2.53-5.2-5.44-5.29Zm1.59 7.39L14.6 5.85c.98-.98 2.56-.98 3.54 0s.98 2.56 0 3.54"/></svg>