<svg xmlns="http://www.w3.org/2000/svg" viewBox="0 0 24 24" width="24" height="24"><path d="m14.78,11.45c.44.35,1,.55,1.56.55h3.65v-3h-3.47l-3.78-3.03c-.53-.43-1.2-.62-1.88-.53-.68.09-1.27.43-1.68.98l-1.82,2.43c-.78,1.04-.63,2.53.35,3.38l2.79,2.44v5.32h3v-5.55c0-.72-.31-1.41-.85-1.88l-1.93-1.69,1.26-1.68,2.81,2.25Z"/><path d="M15.49 1A2.5 2.5 0 1 0 15.49 6 2.5 2.5 0 1 0 15.49 1z"/><path d="m18.62,13.25c-2.41,0-4.38,1.96-4.38,4.38s1.96,4.38,4.38,4.38,4.38-1.96,4.38-4.38-1.96-4.38-4.38-4.38Zm0,7.25c-1.58,0-2.88-1.29-2.88-2.88s1.29-2.88,2.88-2.88,2.88,1.29,2.88,2.88-1.29,2.88-2.88,2.88Z"/><path d="m5.37,22c2.41,0,4.38-1.96,4.38-4.38s-1.96-4.38-4.38-4.38S1,15.21,1,17.63s1.96,4.38,4.38,4.38Zm0-7.25c1.58,0,2.88,1.29,2.88,2.88s-1.29,2.88-2.88,2.88-2.88-1.29-2.88-2.88,1.29-2.88,2.88-2.88Z"/></svg>