<svg xmlns="http://www.w3.org/2000/svg" viewBox="0 0 24 24" width="24" height="24"><path d="m12,1c-.58,0-1.17.05-1.74.14l.49,2.96c.41-.07.83-.1,1.25-.1,4.34,0,8,3.66,8,8s-3.66,8-8,8c-.42,0-.84-.03-1.25-.1l-.49,2.96c.57.09,1.16.14,1.74.14,5.96,0,11-5.04,11-11S17.96,1,12,1Z"/><path d="m4.25,19.74c.81.82,1.74,1.5,2.75,2.03l1.39-2.66c-.74-.39-1.42-.89-2.02-1.49l-2.12,2.12Z"/><path d="m1.14,10.28l2.96.48c.13-.82.4-1.61.79-2.36l-2.66-1.38c-.54,1.03-.9,2.13-1.08,3.26Z"/><path d="m8.39,4.9l-1.39-2.66c-1.01.53-1.94,1.21-2.75,2.03l2.12,2.12c.6-.6,1.28-1.1,2.02-1.49Z"/><path d="m4.1,13.24l-2.96.48c.18,1.13.55,2.23,1.09,3.26l2.66-1.38c-.39-.75-.66-1.54-.79-2.36Z"/><path d="M11 7 11 13 17 13 17 11 13 11 13 7 11 7z"/></svg>