<svg xmlns="http://www.w3.org/2000/svg" viewBox="0 0 24 24" width="24" height="24"><path d="m21.26,9.01c-1.94.31-3.68,1.01-5.16,2.04.14-3.25-.82-6.52-2.88-9.42-.56-.79-1.88-.79-2.44,0-2.06,2.9-3.02,6.17-2.88,9.42-1.47-1.03-3.21-1.73-5.16-2.04-.48-.08-.96.08-1.29.42-.34.34-.5.82-.42,1.29.53,3.4,2.26,6.19,4.82,8-.61.14-1.2.35-1.76.63-.34.17-.56.52-.56.9s.22.73.56.9c1.16.57,2.42.86,3.69.86,1.19,0,2.38-.26,3.47-.76v1.76h1.5v-1.76c1.1.5,2.28.76,3.47.76,1.27,0,2.54-.29,3.69-.86.34-.17.56-.52.56-.9s-.22-.73-.56-.9c-.56-.28-1.16-.49-1.76-.63,2.56-1.81,4.29-4.6,4.82-8,.07-.47-.08-.95-.42-1.29-.34-.34-.81-.49-1.29-.42Z"/></svg>