<svg xmlns="http://www.w3.org/2000/svg" width="24" height="24" viewBox="0 0 24 24"><path d="M3 12.99v1.62c0 1.91 3.7 4.04 9 4.04s9-2.13 9-4.04v-1.62c-1.82 1.6-5.13 2.66-9 2.66s-7.18-1.06-9-2.66"/><path d="M3 8.49v1.62c0 1.91 3.7 4.04 9 4.04s9-2.13 9-4.04V8.49c-1.82 1.6-5.13 2.66-9 2.66s-7.18-1.06-9-2.66M3 17.49v.85c0 3.06 4.53 4.67 9 4.67s9-1.6 9-4.67v-.85c-1.82 1.6-5.13 2.66-9 2.66s-7.18-1.06-9-2.66"/><path d="M12 9.64c5.28 0 8.96-2.11 9-4.01C20.97 2.59 16.46 1 12 1S3.04 2.59 3 5.63c.03 1.9 3.72 4.01 9 4.01"/></svg>