<svg xmlns="http://www.w3.org/2000/svg" viewBox="0 0 24 24" width="24" height="24"><path class="b" d="m15.77,19.06l1.42,2.64c1.85-.99,3.37-2.49,4.4-4.32l-2.62-1.47c-.75,1.33-1.86,2.42-3.2,3.14Z"/><path class="b" d="m18.98,8.08l2.62-1.47c-1.03-1.83-2.55-3.32-4.4-4.32l-1.42,2.64c1.35.72,2.46,1.81,3.21,3.14Z"/><path class="b" d="m19.68,9.75c.21.73.32,1.48.32,2.25s-.11,1.52-.32,2.24l2.88.84c.29-1,.44-2.03.44-3.08s-.15-2.09-.44-3.08l-2.88.84Z"/><path class="b" d="m12,4c.71,0,1.41.09,2.09.27l.78-2.9c-.93-.25-1.89-.38-2.86-.38C5.93,1,1,5.93,1,12s4.93,11,11,11c.97,0,1.93-.13,2.86-.38l-.78-2.9c-.68.18-1.38.27-2.09.27-4.41,0-8-3.59-8-8S7.59,4,12,4Z"/></svg>