<svg xmlns="http://www.w3.org/2000/svg" viewBox="0 0 24 24" width="24" height="24"><path d="m16.19,3.59c-.42-.55-1.16-.74-1.79-.46l-.47.21c-.76-1.39-2.23-2.33-3.93-2.33-2.48,0-4.5,2.02-4.5,4.5,0,.49.1.97.25,1.42l-3.86,1.7c-.54.24-.89.78-.89,1.37v8c0,.72.52,1.34,1.23,1.48l19,3.5c.09.02.18.02.27.02.35,0,.69-.12.96-.35.34-.29.54-.71.54-1.15v-8.5c0-.33-.11-.65-.31-.91l-6.5-8.5Zm-4.69,1.9h0s0,0,0,0h0Zm-1.5-1.49c.81,0,1.46.63,1.49,1.44,0,.04,0,.07,0,.11,0,.16-.04.33-.11.5-.28.74-1.11,1.2-1.94.84-.2-.08-.36-.18-.52-.34-.27-.26-.43-.64-.43-1.04,0-.83.67-1.5,1.5-1.5Zm-6,12.75v-4.5l16,2.53v1.79l-13.88-2.31-.25,1.48,14.12,2.35v1.6l-16-2.95Z"/></svg>