<svg xmlns="http://www.w3.org/2000/svg" width="24" height="24" viewBox="0 0 24 24"><path d="M12 17.25c-2.85 0-5.25-2.4-5.25-5.25 0-.41.06-.81.16-1.2L1.35 5.24c-.22.37-.35.8-.35 1.26v12A2.5 2.5 0 0 0 3.5 21h13.61l-3.91-3.91c-.39.1-.79.16-1.2.16M23 18.5v-12A2.5 2.5 0 0 0 20.5 4h-3.2l-1.55-2.33C15.47 1.25 15 1 14.5 1h-5c-.5 0-.97.25-1.25.67L6.7 4H5.06L1.53.47.47 1.53l2.52 2.52 4.84 4.84 14.64 14.64 1.06-1.06-1.8-1.8c.76-.43 1.27-1.23 1.27-2.17m-9-5.56c.15-.29.25-.61.25-.94 0-1.2-1.05-2.25-2.25-2.25-.34 0-.65.1-.94.25L8.89 7.83c.88-.67 1.95-1.08 3.11-1.08 2.85 0 5.25 2.4 5.25 5.25 0 1.16-.41 2.23-1.08 3.11z"/></svg>