<svg xmlns="http://www.w3.org/2000/svg" viewBox="0 0 24 24" width="24" height="24"><path d="M12 2A4 4 0 1 0 12 10 4 4 0 1 0 12 2z"/><path d="m13,12h-2c-3.31,0-6,2.69-6,6v1c0,1.1.9,2,2,2h10c1.1,0,2-.9,2-2v-1c0-3.31-2.69-6-6-6Z"/><path d="m6.5,10c.31,0,.61-.05.9-.12-.87-1.04-1.4-2.39-1.4-3.88,0-1.09.28-2.1.77-2.97-.09,0-.18-.03-.27-.03-2.01,0-3.5,1.48-3.5,3.5s1.49,3.5,3.5,3.5Z"/><path d="m5.73,12h-.73c-2.21,0-4,1.79-4,4v1.5c0,.28.22.5.5.5h1.5c0-2.39,1.06-4.53,2.73-6Z"/><path d="m17.5,10c2.01,0,3.5-1.48,3.5-3.5s-1.49-3.5-3.5-3.5c-.09,0-.18.02-.27.03.49.87.77,1.88.77,2.97,0,1.49-.52,2.84-1.4,3.88.29.07.58.12.9.12Z"/><path d="m19,12h-.73c1.67,1.47,2.73,3.61,2.73,6h1.5c.28,0,.5-.22.5-.5v-1.5c0-2.21-1.79-4-4-4Z"/></svg>