<svg xmlns="http://www.w3.org/2000/svg" viewBox="0 0 24 24" width="24" height="24"><path d="m21.63,9.27l-1.74-4.93c-.49-1.4-1.82-2.34-3.3-2.34H7.42c-1.48,0-2.81.94-3.3,2.33l-1.74,4.93c-.81.41-1.37,1.26-1.37,2.23v5c0,1.02.62,1.9,1.5,2.29v1.71c0,.83.67,1.5,1.5,1.5h1c.83,0,1.5-.67,1.5-1.5v-1.5h11v1.5c0,.83.67,1.5,1.5,1.5h1c.83,0,1.5-.67,1.5-1.5v-1.71c.88-.39,1.5-1.27,1.5-2.29v-5c0-.97-.56-1.82-1.37-2.23Zm-5.63,4.73c0-1.1.9-2,2-2s2,.9,2,2-.9,2-2,2-2-.9-2-2Zm4-2l-.02-.09s.02,0,.02.01v.08Zm-4.5-3.11l-4.67,6.11,1.17-3.89h-3.5l4.67-6.11-1.17,3.89h3.5Zm-11.5,3.04s.02,0,.02-.01l-.02.09v-.08Zm2,.08c1.1,0,2,.9,2,2s-.9,2-2,2-2-.9-2-2,.9-2,2-2Z"/></svg>