<svg xmlns="http://www.w3.org/2000/svg" viewBox="0 0 24 24" width="24" height="24"><path d="m19.5,2H4.5c-1.38,0-2.5,1.12-2.5,2.5v.5h11c.57,0,1.09.32,1.34.83l1.61,3.22c1.16.21,2.05,1.23,2.05,2.45,0,1.38-1.12,2.5-2.5,2.5s-2.5-1.12-2.5-2.5c0-.4.1-.77.27-1.11l-1.2-2.39H2v11.5c0,1.38,1.12,2.5,2.5,2.5h15c1.38,0,2.5-1.12,2.5-2.5v-.5h-11c-.57,0-1.09-.32-1.34-.83l-1.61-3.22c-1.16-.21-2.05-1.23-2.05-2.45,0-1.38,1.12-2.5,2.5-2.5s2.5,1.12,2.5,2.5c0,.4-.1.77-.27,1.11l1.2,2.39h10.07V4.5c0-1.38-1.12-2.5-2.5-2.5Z"/></svg>