<svg xmlns="http://www.w3.org/2000/svg" width="24" height="24" viewBox="0 0 24 24"><path d="M20.5 4h-3.2l-1.55-2.33C15.47 1.25 15 1 14.5 1h-5c-.5 0-.97.25-1.25.67L6.7 4H3.5A2.5 2.5 0 0 0 1 6.5v12A2.5 2.5 0 0 0 3.5 21h17a2.5 2.5 0 0 0 2.5-2.5v-12A2.5 2.5 0 0 0 20.5 4m-4.26 12.24c-.27.27-.57.52-.89.73-.32.22-.66.4-1.02.55s-.74.27-1.13.35-.8.12-1.21.12-.81-.04-1.21-.12c-.39-.08-.76-.2-1.13-.35-.36-.15-.7-.34-1.02-.55a5.7 5.7 0 0 1-.89-.73c-.17-.16-.3-.36-.45-.55L5.98 17v-5h5l-1.55 1.55s.04.08.07.12c.11.16.23.31.37.44.14.14.29.26.44.37a2.78 2.78 0 0 0 1.07.45c.39.08.82.08 1.21 0 .19-.04.38-.1.56-.17.17-.07.35-.17.51-.28s.31-.23.44-.37c.14-.14.26-.29.37-.45l2.48 1.68c-.22.32-.46.62-.73.89ZM18 12h-5l1.55-1.55s-.04-.08-.07-.12c-.11-.16-.23-.31-.37-.44-.14-.14-.29-.26-.44-.37a2.78 2.78 0 0 0-1.07-.45 3.1 3.1 0 0 0-1.21 0c-.19.04-.38.1-.56.17-.17.07-.35.17-.51.28s-.31.23-.44.37c-.14.14-.26.29-.37.45L7.03 8.66c.22-.32.46-.62.73-.89s.57-.52.89-.73c.32-.22.66-.4 1.02-.55s.74-.27 1.13-.35a6.2 6.2 0 0 1 2.42 0c.39.08.76.2 1.13.35.36.15.7.34 1.02.55s.62.46.89.73c.17.16.3.36.45.55l1.31-1.31v5Z"/></svg>