<svg xmlns="http://www.w3.org/2000/svg" viewBox="0 0 24 24" width="24" height="24"><path d="m1,15v6.5c0,.83.67,1.5,1.5,1.5h1.5v-10.46l-2.18,1.12c-.5.26-.82.77-.82,1.33Z"/><path d="m22.18,13.67l-2.18-1.12v10.46h1.5c.83,0,1.5-.67,1.5-1.5v-6.5c0-.56-.31-1.08-.82-1.33Z"/><path d="m18.22,10.18l-5.47-2.98v-2.45h2.25v-1.5h-2.25V1h-1.5v2.25h-2.25v1.5h2.25v2.45l-5.47,2.98c-.48.26-.78.77-.78,1.32v11.5h4v-3c0-1.66,1.34-3,3-3s3,1.34,3,3v3h4v-11.5c0-.55-.3-1.05-.78-1.32Zm-6.22,4.32c-1.1,0-2-.9-2-2s.9-2,2-2,2,.9,2,2-.9,2-2,2Z"/></svg>