<svg xmlns="http://www.w3.org/2000/svg" viewBox="0 0 24 24" width="24" height="24"><path d="m21,3h-8l-2-2v2s0,0,0,0v6c0,3.31,2.69,6,6,6s6-2.69,6-6V3h0V1s0,0-1.99,2Zm-6.75,6c-.69,0-1.25-.56-1.25-1.25s.56-1.25,1.25-1.25,1.25.56,1.25,1.25-.56,1.25-1.25,1.25Zm5.5,0c-.69,0-1.25-.56-1.25-1.25s.56-1.25,1.25-1.25,1.25.56,1.25,1.25-.56,1.25-1.25,1.25Z"/><path d="m10,9h-5c-.55,0-1-.45-1-1s.45-1,1-1c2.01,0,5-1.2,5-4.5v-1.5h-3v1.5c0,1.36-1.54,1.49-2,1.5-2.21,0-4,1.79-4,4,0,1.51.85,2.81,2.08,3.49l.92,10.15c.07.77.72,1.36,1.49,1.36h3c.83,0,1.5-.67,1.5-1.5v-2.5h4v2.5c0,.83.67,1.5,1.5,1.5h3c.77,0,1.41-.58,1.49-1.34l.71-6.73c-1.08.67-2.34,1.07-3.7,1.07-3.86,0-7-3.14-7-7Z"/></svg>