<svg xmlns="http://www.w3.org/2000/svg" width="24" height="24" viewBox="0 0 24 24"><path d="M10.3 9.24c.29-.18.61-.31.95-.4v-7.8c-2.47.17-4.71 1.15-6.47 2.68zM9.24 10.3 3.72 4.78c-1.53 1.76-2.51 4-2.68 6.47h7.81c.08-.34.22-.66.4-.95ZM8.85 12.75H1.04c.17 2.47 1.15 4.71 2.68 6.47l5.52-5.52a3.5 3.5 0 0 1-.4-.95ZM19.22 3.72c-1.76-1.53-4-2.51-6.47-2.68v7.81c.34.08.66.22.95.4l5.52-5.52ZM15.15 11.25h7.81c-.17-2.47-1.15-4.71-2.68-6.47l-5.52 5.52c.18.29.31.61.4.95ZM14.76 13.7l5.52 5.52c1.53-1.76 2.51-4 2.68-6.47h-7.81c-.08.34-.22.66-.4.95ZM4.78 20.28c1.76 1.53 4 2.51 6.47 2.68v-7.81c-.34-.08-.66-.22-.95-.4l-5.52 5.52ZM12.75 15.15v7.81c2.47-.17 4.71-1.15 6.47-2.68l-5.52-5.52c-.29.18-.61.31-.95.4Z"/></svg>