<svg xmlns="http://www.w3.org/2000/svg" viewBox="0 0 24 24" width="24" height="24"><path d="m11,6.5c0-2.48-2.02-4.5-4.5-4.5S2,4.02,2,6.5s2.02,4.5,4.5,4.5c.67,0,1.29-.15,1.86-.42l1.29,1.42-1.29,1.42c-.57-.26-1.2-.42-1.86-.42-2.48,0-4.5,2.02-4.5,4.5s2.02,4.5,4.5,4.5,4.5-2.02,4.5-4.5c0-.74-.19-1.42-.51-2.03l1.17-1.27,6.22,6.8h4.12l-11.51-12.47c.31-.61.51-1.3.51-2.03Zm-4.5,12.5c-.83,0-1.5-.67-1.5-1.5s.67-1.5,1.5-1.5,1.5.67,1.5,1.5-.67,1.5-1.5,1.5Zm-1.5-12.5c0-.83.67-1.5,1.5-1.5s1.5.67,1.5,1.5-.67,1.5-1.5,1.5-1.5-.67-1.5-1.5Z"/><path d="M12.66 8.71 14.69 10.92 22 3 17.88 3 12.66 8.71z"/></svg>