<svg xmlns="http://www.w3.org/2000/svg" viewBox="0 0 24 24" width="24" height="24"><path d="m19.5,3h-1.5V1h-3v2h-6V1h-3v2h-1.5c-1.38,0-2.5,1.12-2.5,2.5v1.5h20v-1.5c0-1.38-1.12-2.5-2.5-2.5Z"/><path d="M11.75 13.5A1.5 1.5 0 1 0 11.75 16.5 1.5 1.5 0 1 0 11.75 13.5z"/><path d="m2,20.5c0,1.38,1.12,2.5,2.5,2.5h15c1.38,0,2.5-1.12,2.5-2.5v-12.5H2v12.5Zm9.75-10c2.48,0,4.5,2.02,4.5,4.5,0,.71-.18,1.38-.48,1.98l.04-.04,1.5,1.5-2.12,2.12-1.5-1.5.04-.04c-.6.3-1.27.48-1.98.48-2.48,0-4.5-2.02-4.5-4.5s2.02-4.5,4.5-4.5Z"/></svg>