<svg xmlns="http://www.w3.org/2000/svg" viewBox="0 0 24 24" width="24" height="24"><path d="m22.24,8.16l-1.79-1.04v-2.07c0-.83-.67-1.5-1.5-1.5h-2.07l-.3-.52-.73-1.27c-.2-.34-.53-.6-.91-.7-.39-.1-.79-.05-1.14.15l-1.79,1.04-.52-.3h0s-1.27-.74-1.27-.74c-.72-.41-1.63-.17-2.05.55l-.74,1.27h0s-.3.52-.3.52h-2.07c-.83,0-1.5.67-1.5,1.5v2.07l-1.79,1.04c-.34.2-.6.53-.7.91s-.05.79.15,1.14l1.04,1.79-1.04,1.79c-.41.72-.17,1.63.55,2.05l1.79,1.04v2.07c0,.83.67,1.5,1.5,1.5h2.07l1.04,1.79c.28.48.78.75,1.3.75.25,0,.51-.06.75-.2l1.79-1.04,1.79,1.04c.34.2.75.25,1.14.15.38-.1.71-.35.91-.7l1.04-1.79h2.07c.83,0,1.5-.67,1.5-1.5v-2.07l1.79-1.04c.72-.42.96-1.33.55-2.05l-1.04-1.79,1.04-1.79c.41-.72.17-1.63-.55-2.05Zm-16.24.84c0-1.1.9-2,2-2s2,.9,2,2-.9,2-2,2-2-.9-2-2Zm3.68,8.42l-2.37-1.84,7-9,2.37,1.84-7,9Zm6.32-.42c-1.1,0-2-.9-2-2s.9-2,2-2,2,.9,2,2-.9,2-2,2Z"/></svg>