<svg xmlns="http://www.w3.org/2000/svg" viewBox="0 0 24 24" width="24" height="24"><path d="M15.89 9.25 13.62 1 10.38 1 8.11 9.25 15.89 9.25z"/><path d="m18.58,2.21c-.45-.75-1.27-1.21-2.14-1.21h-1.26l2.27,8.25h5.24c-.06-.22-.14-.43-.26-.63l-3.85-6.41Z"/><path d="M8.17 10.75 12 22.13 15.83 10.75 8.17 10.75z"/><path d="m8.82,1h-1.26c-.87,0-1.69.46-2.14,1.21l-3.85,6.41c-.12.2-.2.41-.26.63h5.24L8.82,1Z"/><path d="m1.37,10.75c.1.27.23.52.42.75l8.28,10.02c.06.07.14.13.21.2l-3.69-10.97H1.37Z"/><path d="m13.72,21.72c.07-.07.14-.12.2-.2l8.28-10.02c.19-.23.33-.48.42-.75h-5.21l-3.69,10.97Z"/></svg>