<svg xmlns="http://www.w3.org/2000/svg" viewBox="0 0 24 24" width="24" height="24"><path d="m10.02,9h-4.52c-1.21,0-1.48-.82-1.5-1.51v-1.49H1v1.5c0,1.25.57,2.91,2,3.82v10.18c0,.83.67,1.5,1.5,1.5h2c.83,0,1.5-.67,1.5-1.5v-3.5h3v3.5c0,.83.67,1.5,1.5,1.5h2c.83,0,1.5-.67,1.5-1.5v-7.5h-.64c-2.81,0-5.12-2.21-5.34-5Z"/><path d="m21.91,5.22h-2.18l-1.39-1.41c-.5-.51-1.18-.8-1.89-.81h-2.88c-1.05-2-2.58-2-2.58-2v2s0,0,0,0v5.56c0,2.45,1.95,4.44,4.36,4.44h1.09l4.05-1.64c.89-.37,1.58-1.11,1.89-2.04l.61-1.7v-1.28c0-.61-.49-1.11-1.09-1.11Zm-5.66,2.28c-.69,0-1.25-.56-1.25-1.25s.56-1.25,1.25-1.25,1.25.56,1.25,1.25-.56,1.25-1.25,1.25Z"/></svg>