<svg xmlns="http://www.w3.org/2000/svg" viewBox="0 0 24 24" width="24" height="24"><path d="m15,11l4.27-4.61c.45-.47.73-1.11.73-1.82s-.28-1.35-.73-1.82c-.45-.47-1.08-.75-1.77-.75,0,0-1.25,0-2.5,1.29-1.25-1.29-2.5-1.29-2.5-1.29-.69,0-1.32.29-1.77.75-.45.47-.73,1.11-.73,1.82s.28,1.35.73,1.82l4.27,4.61Z"/><path d="m21.66,12.55l-.07-.02c-.99-.33-2.07-.12-2.87.54l-4.72,3.93h-6v-1h5.19c.37,0,.61-.39.45-.72l-1.09-2.17c-.34-.68-1.03-1.11-1.79-1.11H2c-.55,0-1,.45-1,1v8c0,.55.45,1,1,1h12.53c.93,0,1.8-.43,2.37-1.16l5.23-6.73c.42-.54.18-1.34-.47-1.56Z"/></svg>