<svg xmlns="http://www.w3.org/2000/svg" viewBox="0 0 24 24" width="24" height="24"><path d="m15.6,5.27l-9.52,11.55c-1.14,1.38-2.82,2.18-4.61,2.18h-.47v3h.47c2.69,0,5.22-1.19,6.93-3.27l9.52-11.55c1.14-1.38,2.82-2.18,4.61-2.18h.47v-3h-.47c-2.69,0-5.22,1.19-6.93,3.27Z"/><path d="M10 19.75H12V21.25H10z"/><path d="M14 19.75H16V21.25H14z"/><path d="M18 19.75 18 21.25 18 23 23 23 23 18 18 18 18 19.75z"/><path d="M12 2.75H14V4.25H12z"/><path d="M8 2.75H10V4.25H8z"/><path d="M6 4.25 6 2.75 6 1 1 1 1 6 6 6 6 4.25z"/></svg>