<svg xmlns="http://www.w3.org/2000/svg" viewBox="0 0 24 24" width="24" height="24"><path d="m21.5,2.77C15.5,5.09,9.5-1.09,3.5,1.23c-.83.32-1.5,1.44-1.5,2.27v19.5h3v-7.16c5.5-.94,11,4.06,16.5,1.93.83-.32,1.5-1.44,1.5-2.27V3.5c0-.83-.67-1.05-1.5-.73Zm-1.5,9.41c-1,.17-2,.14-3,0v3c-1-.14-2-.41-3-.71v-3c-1-.3-2-.64-3-.94v3c-1-.3-2-.56-3-.71v-3c-1-.14-2-.17-3,0v-3c1-.17,2-.14,3,0v-3c1,.14,2,.41,3,.71v3c1,.3,2,.64,3,.94v-3c1,.3,2,.56,3,.71v3c1,.14,2,.17,3,0v3Z"/><path d="m8,6.82v3c1,.14,2,.41,3,.71v-3c-1-.3-2-.56-3-.71Z"/><path d="m14,8.47v3c1,.3,2,.56,3,.71v-3c-1-.14-2-.41-3-.71Z"/></svg>