<svg xmlns="http://www.w3.org/2000/svg" viewBox="0 0 24 24" width="24" height="24"><path class="b" d="m20.45,7H3.55c-.78,0-1.43.59-1.49,1.37l-1.04,12c-.08.88.61,1.63,1.49,1.63h18.98c.88,0,1.57-.75,1.49-1.63l-1.04-12c-.07-.78-.72-1.37-1.49-1.37Zm-8.45,8.75c-2.62,0-4.75-2.13-4.75-4.75h1.5c0,1.79,1.46,3.25,3.25,3.25s3.25-1.46,3.25-3.25h1.5c0,2.62-2.13,4.75-4.75,4.75Z"/><path class="b" d="m8,1c-2.41,0-4.43,1.72-4.9,4h9.8c-.46-2.28-2.48-4-4.9-4Z"/><path class="b" d="m14.94,5h6.04c0-.07.02-.14.02-.21,0-1.01-.39-1.97-1.11-2.68-1.47-1.47-3.87-1.47-5.36,0l-.45.45c.36.63.63,1.3.78,2.04l.08.4Z"/></svg>