<svg xmlns="http://www.w3.org/2000/svg" width="24" height="24" viewBox="0 0 24 24"><rect width="9" height="9" x="2" y="2" rx="2" ry="2"/><rect width="9" height="9" x="13" y="2" rx="2" ry="2"/><rect width="9" height="9" x="2" y="13" rx="2" ry="2"/><path d="M19.44 14.14c-1.42-1.42-3.89-1.42-5.3 0a3.754 3.754 0 0 0 0 5.3c.73.73 1.69 1.1 2.65 1.1.72 0 1.44-.21 2.07-.62l2.26 2.26 1.06-1.06-2.26-2.26c.96-1.46.8-3.44-.48-4.72m-4.24 4.24c-.88-.88-.88-2.3 0-3.18.42-.42.99-.66 1.59-.66s1.17.23 1.59.66c.88.88.88 2.3 0 3.18s-2.3.88-3.18 0"/></svg>