<svg xmlns="http://www.w3.org/2000/svg" viewBox="0 0 24 24" width="24" height="24"><path d="m2,19c0,2.21,1.79,4,4,4s4-1.79,4-4c0-1.67-1.04-3.11-2.5-3.7v-6.59c1.46-.59,2.5-2.03,2.5-3.7,0-2.21-1.79-4-4-4S2,2.79,2,5c0,1.67,1.04,3.11,2.5,3.7v6.59c-1.46.59-2.5,2.03-2.5,3.7Z"/><path d="m16.5,10v5.3c-1.46.59-2.5,2.03-2.5,3.7,0,2.21,1.79,4,4,4s4-1.79,4-4c0-1.67-1.04-3.11-2.5-3.7v-5.3h-3Z"/><path d="M19.94.94 18 2.88 16.06.94 13.94 3.06 15.88 5 13.94 6.94 16.06 9.06 18 7.12 19.94 9.06 22.06 6.94 20.12 5 22.06 3.06 19.94.94z"/></svg>