<svg xmlns="http://www.w3.org/2000/svg" viewBox="0 0 24 24" width="24" height="24"><path d="m20.5,6h-1.97c.14-.4.22-.89.22-1.5,0-1.79-1.46-3.25-3.25-3.25-1.68,0-2.75,1.75-3.4,3.47-.62-1.59-1.75-3.47-3.6-3.47s-3.25,1.46-3.25,3.25c0,.61.09,1.1.22,1.5h-1.97c-1.38,0-2.5,1.12-2.5,2.5v1c0,1.38,1.12,2.5,2.5,2.5h17c1.38,0,2.5-1.12,2.5-2.5v-1c0-1.38-1.12-2.5-2.5-2.5Zm-5-3.25c.96,0,1.75.79,1.75,1.75,0,.83-.19,1.27-.45,1.5h-3.54c.54-1.68,1.35-3.25,2.24-3.25Zm-8.75,1.75c0-.96.79-1.75,1.75-1.75,1.15,0,2.01,1.85,2.46,3.25h-3.75c-.27-.23-.45-.67-.45-1.5Z"/><path d="m3,20.5c0,1.38,1.12,2.5,2.5,2.5h5.5v-9H3v6.5Z"/><path d="m13,23h5.5c1.38,0,2.5-1.12,2.5-2.5v-6.5h-8v9Z"/></svg>