<svg xmlns="http://www.w3.org/2000/svg" viewBox="0 0 24 24" width="24" height="24"><path d="M8.94 12.94 6 15.88 3.06 12.94.94 15.06 3.88 18 .94 20.94 3.06 23.06 6 20.12 8.94 23.06 11.06 20.94 8.12 18 11.06 15.06 8.94 12.94z"/><rect x="1" y="1" width="10" height="10" rx="1.5" ry="1.5"/><path d="m19.3,1.76c-.27-.47-.76-.76-1.3-.76s-1.04.29-1.3.76l-4,7c-.26.46-.26,1.03,0,1.5.27.46.76.75,1.3.75h8c.54,0,1.03-.28,1.3-.75.27-.46.27-1.03,0-1.5l-4-7Z"/><path d="M18 13A5 5 0 1 0 18 23 5 5 0 1 0 18 13z"/></svg>