<svg xmlns="http://www.w3.org/2000/svg" width="24" height="24" viewBox="0 0 24 24"><path d="M12 23c6.07 0 11-4.93 11-11S18.07 1 12 1 1 5.93 1 12s4.93 11 11 11m.07-6.6c-.05-.14.01-.25.13-.25s.37.11.57.24c.19.13.51.37.72.54.2.16.44.3.53.31.09 0 .14.15.1.33-.03.17-.16.29-.29.27-.13-.03-.33-.08-.45-.11s-.33-.18-.47-.32l-.5-.5c-.14-.14-.29-.36-.34-.5Zm2.96 0c.21-.14.54-.43.75-.65s.49-.38.62-.36c.14.02.23.22.21.45s-.19.65-.38.94-.56.52-.84.51-.56-.16-.62-.34c-.07-.17.05-.42.26-.56Zm2.12-5.39c0-.27.19-.96.41-1.51.23-.56.47-1.01.55-1 .07 0 .19.17.27.35s-.02.63-.2.97c-.18.35-.49.87-.68 1.16s-.35.3-.35.03m.57-4.24c-.4.67-.72 1.53-.71 1.91s-.08.75-.18.82c-.11.07-.29-.07-.4-.33s-.26-.18-.32.18c-.06.35-.03.81.07 1.02s.1.63.01.95-.46.79-.82 1.06-.82.51-1.01.55c-.2.04-.36.17-.37.31 0 .13.1.33.24.45.13.12.26.4.29.63.02.23-.14.53-.35.67-.22.14-.54.22-.72.17s-.24.12-.13.38.07.45-.08.43-.38-.13-.51-.26c-.13-.12-.29-.51-.35-.87-.06-.35-.25-.69-.41-.74s-.34-.25-.39-.45c-.05-.19-.2-.45-.33-.57s-.46-.19-.74-.15-.74.3-1.01.57c-.28.27-.56.72-.62 1-.07.27-.29.61-.5.75s-.6-.54-.88-1.5-.72-1.98-1-2.25c-.28-.28-1.17-.48-2-.45-.17 0-.3-.03-.42-.09C4.59 7.04 7.95 4 12 4c2.3 0 4.36.98 5.82 2.53-.02.08-.05.16-.1.24"/></svg>