<svg xmlns="http://www.w3.org/2000/svg" viewBox="0 0 24 24" width="24" height="24"><path d="M6.5 8.93 3 7.03 3 16.97 6.5 15.07 6.5 8.93z"/><path d="M20.01 5.29 13 1.34 13 5.29 16.5 7.2 20.01 5.29z"/><path d="M11 5.29 11 1.34 3.99 5.29 7.5 7.2 11 5.29z"/><path d="M13 18.71 13 22.66 20.01 18.71 16.5 16.8 13 18.71z"/><path d="M17.5 15.07 21 16.97 21 7.03 17.5 8.93 17.5 15.07z"/><path d="M3.99 18.71 11 22.66 11 18.71 7.5 16.8 3.99 18.71z"/><path d="M15.5 8.93 12 7.03 8.5 8.93 8.5 15.07 12 16.97 15.5 15.07 15.5 8.93z"/></svg>