<svg xmlns="http://www.w3.org/2000/svg" viewBox="0 0 24 24" width="24" height="24"><path d="m18.44,5.8c.52-1.18,1.06-2.4,1.06-4.8h-1.5c0,2.09-.45,3.11-.94,4.2-.52,1.18-1.06,2.4-1.06,4.8h1.5c0-2.09.45-3.11.94-4.2Z"/><path d="m13.56,5.2c-.52,1.18-1.06,2.4-1.06,4.8h1.5c0-2.09.45-3.11.94-4.2.52-1.18,1.06-2.4,1.06-4.8h-1.5c0,2.09-.45,3.11-.94,4.2Z"/><path d="m20.56,5.2c-.52,1.18-1.06,2.4-1.06,4.8h1.5c0-2.09.45-3.11.94-4.2.52-1.18,1.06-2.4,1.06-4.8h-1.5c0,2.09-.45,3.11-.94,4.2Z"/><path d="m20,15.25c-.59,0-.85-.16-1.2-.39-.44-.27-.98-.61-2-.61s-1.56.34-2,.61c-.36.22-.62.39-1.2.39s-.84-.16-1.2-.39c-.44-.27-.98-.61-2-.61s-1.56.34-2,.61c-.36.22-.62.39-1.2.39s-.84-.16-1.2-.39c-.44-.27-.98-.61-2-.61v-2.25H1v7.5c0,1.93,1.57,3.5,3.5,3.5h15c1.93,0,3.5-1.57,3.5-3.5v-7.5h-3v3.25Z"/></svg>