<svg xmlns="http://www.w3.org/2000/svg" viewBox="0 0 24 24" width="24" height="24"><path d="m10.05,8.11c-.17-.34-.52-.55-.89-.55h-4.32c-.38,0-.73.21-.89.55l-1.72,3.44c-.14.28-.14.61,0,.89l1.72,3.44c.17.34.52.55.89.55h4.32c.38,0,.73-.21.89-.55l1.72-3.44c.14-.28.14-.61,0-.89l-1.72-3.44Z"/><path d="m20.05,2.55c-.17-.34-.52-.55-.89-.55h-4.32c-.38,0-.73.21-.89.55l-1.72,3.44c-.14.28-.14.61,0,.89l1.72,3.44c.17.34.52.55.89.55h4.32c.38,0,.73-.21.89-.55l1.72-3.44c.14-.28.14-.61,0-.89l-1.72-3.44Z"/><path d="m20.05,13.66c-.17-.34-.52-.55-.89-.55h-4.32c-.38,0-.73.21-.89.55l-1.72,3.44c-.14.28-.14.61,0,.89l1.72,3.44c.17.34.52.55.89.55h4.32c.38,0,.73-.21.89-.55l1.72-3.44c.14-.28.14-.61,0-.89l-1.72-3.44Z"/></svg>