<svg xmlns="http://www.w3.org/2000/svg" width="24" height="24" viewBox="0 0 24 24"><path d="M17.06 1.44C16.78 1.16 16.4 1 16 1H8c-.4 0-.78.16-1.06.44l-5.5 5.5C1.16 7.22 1 7.6 1 8v8c0 .4.16.78.44 1.06l5.5 5.5c.28.28.66.44 1.06.44h8c.4 0 .78-.16 1.06-.44l5.5-5.5c.28-.28.44-.66.44-1.06V8c0-.4-.16-.78-.44-1.06zM13.5 20h-3v-3h3zm0-6.15V14h-3v-1.14c0-.64.41-1.21 1.02-1.42.74-.26 2.38-1.13 2.38-2.02 0-.79-.53-1.51-1.31-1.78-1.06-.38-2.32.17-2.69 1.18L7.09 7.78c.94-2.52 3.92-3.88 6.51-2.96 1.96.7 3.29 2.54 3.31 4.6 0 2.38-2.08 3.79-3.4 4.44Z"/></svg>