<svg xmlns="http://www.w3.org/2000/svg" viewBox="0 0 24 24" width="24" height="24"><path d="m6,23h-3c0-2.22.66-3.42,1.18-4.39.46-.84.82-1.5.82-2.95s-.36-2.11-.82-2.95c-.53-.97-1.18-2.17-1.18-4.38s.66-3.42,1.18-4.38c.46-.84.82-1.5.82-2.95h3c0,2.21-.66,3.42-1.18,4.38-.46.84-.82,1.5-.82,2.95s.36,2.11.82,2.95c.53.97,1.18,2.17,1.18,4.39s-.66,3.42-1.18,4.38c-.46.84-.82,1.5-.82,2.95Z"/><path d="m12.5,23h-3c0-2.22.66-3.42,1.18-4.39.46-.84.82-1.5.82-2.95s-.36-2.11-.82-2.95c-.53-.97-1.18-2.17-1.18-4.38s.66-3.42,1.18-4.38c.46-.84.82-1.5.82-2.95h3c0,2.21-.66,3.42-1.18,4.38-.46.84-.82,1.5-.82,2.95s.36,2.11.82,2.95c.53.97,1.18,2.17,1.18,4.39s-.66,3.42-1.18,4.38c-.46.84-.82,1.5-.82,2.95Z"/><path d="m19,23h-3c0-2.22.66-3.42,1.18-4.39.46-.84.82-1.5.82-2.95s-.36-2.11-.82-2.95c-.53-.97-1.18-2.17-1.18-4.38s.66-3.42,1.18-4.38c.46-.84.82-1.5.82-2.95h3c0,2.21-.66,3.42-1.18,4.38-.46.84-.82,1.5-.82,2.95s.36,2.11.82,2.95c.53.97,1.18,2.17,1.18,4.39s-.66,3.42-1.18,4.38c-.46.84-.82,1.5-.82,2.95Z"/></svg>