<svg xmlns="http://www.w3.org/2000/svg" width="24" height="24" viewBox="0 0 24 24"><path d="M12 9a2 2 0 1 0 0 4 2 2 0 1 0 0-4M6 13h2v3H6zM16 13h2v3h-2z"/><path d="M22.98 9.33c0-.07-.02-.14-.04-.21v-.05l-1.5-5C21.25 3.44 20.67 3 20 3h-6.87l-.12-.11c-.59-.54-1.51-.52-2.07.05l-.06.06H4a1.5 1.5 0 0 0-1.44 1.07l-1.5 5v.05c-.02.07-.03.14-.04.21 0 .04-.01.08-.01.12V20.5c0 .83.67 1.5 1.5 1.5h19c.83 0 1.5-.67 1.5-1.5V9.45c0-.04 0-.08-.01-.12ZM20 19h-6v-4h-4v4H4v-8h2.5c.4 0 .78-.16 1.06-.44l4.46-4.46 4.89 4.45.07.06c.07.06.15.1.23.14.08.05.15.11.24.15.17.07.35.1.54.1h2v8Z"/></svg>