<svg xmlns="http://www.w3.org/2000/svg" viewBox="0 0 24 24" width="24" height="24"><path d="m5,17.06l3-3,1.47,1.47c.29.29.77.29,1.06,0l5.47-5.47,3,3v.94h3V4.5c0-1.38-1.12-2.5-2.5-2.5H4.5c-1.38,0-2.5,1.12-2.5,2.5v15c0,1.38,1.12,2.5,2.5,2.5h8.5v-3H5v-1.94Zm3-10.06c1.1,0,2,.9,2,2s-.9,2-2,2-2-.9-2-2,.9-2,2-2Z"/><path d="m22.58,18.35l-2.03-.9-.9-2.03c-.11-.25-.36-.42-.64-.42h0c-.28,0-.53.16-.64.41l-.91,1.97-2.05.99c-.25.12-.4.37-.4.65,0,.28.17.52.42.63l2.03.9.9,2.03c.11.26.37.42.64.42s.53-.16.65-.42l.9-2.03,2.03-.9c.25-.11.42-.37.42-.65s-.16-.53-.42-.65Z"/></svg>