<svg xmlns="http://www.w3.org/2000/svg" viewBox="0 0 24 24" width="24" height="24"><path d="M16.5 3.5H23V5H16.5z"/><path d="m22.14,10.64l-8.64-4.09c-.95-.45-2.04-.45-3,0L1.86,10.64c-.52.25-.86.78-.86,1.36s.33,1.11.86,1.36l8.64,4.09c.48.23.99.34,1.5.34s1.02-.11,1.5-.34l8.64-4.09c.52-.25.86-.78.86-1.36s-.33-1.11-.86-1.36Z"/><path d="m22.14,15.64l-.08-.04-7.71,3.65c-.74.35-1.54.53-2.35.53s-1.61-.18-2.36-.53l-7.71-3.65-.08.04c-.52.25-.86.78-.86,1.36s.33,1.11.86,1.36l8.64,4.09c.48.23.99.34,1.5.34s1.02-.11,1.5-.34l8.64-4.09c.52-.25.86-.78.86-1.36s-.33-1.11-.86-1.36Z"/></svg>