<svg xmlns="http://www.w3.org/2000/svg" viewBox="0 0 24 24" width="24" height="24"><path d="m6.47,14.22l2.72-2.72h-3.19v-1.5h4v-3.5c0-1.38-1.12-2.5-2.5-2.5h-1c-3.03,0-5.5,2.47-5.5,5.5v9.81c0,.74.33,1.44.89,1.92.46.38,1.02.58,1.6.58.15,0,.29-.01.44-.04l4-.71c1.19-.22,2.06-1.25,2.06-2.46v-5.78l-2.47,2.47-1.06-1.06Z"/><path d="m17.5,4h-1c-1.38,0-2.5,1.12-2.5,2.5v3.5h4v1.5h-3.19l2.72,2.72-1.06,1.06-2.47-2.47v5.78c0,1.21.87,2.25,2.06,2.46l4,.71c.15.03.29.04.44.04.58,0,1.15-.2,1.6-.58.57-.48.89-1.17.89-1.92v-9.81c0-3.03-2.47-5.5-5.5-5.5Z"/><path d="M13.31 10 12.75 10 12.75 1 11.25 1 11.25 10 10.69 10 10 10 10 12.81 11.31 11.5 12.69 11.5 14 12.81 14 10 13.31 10z"/></svg>