<svg xmlns="http://www.w3.org/2000/svg" width="24" height="24" viewBox="0 0 24 24"><path d="M5.5 23h13a2.5 2.5 0 0 0 2.5-2.5v-10A2.5 2.5 0 0 0 18.5 8H9V7q0-.615.24-1.17a3.004 3.004 0 0 1 1.59-1.59c.74-.31 1.6-.31 2.34 0a3.004 3.004 0 0 1 1.59 1.59l2.76-1.17c-.3-.71-.73-1.35-1.29-1.91s-1.19-.98-1.91-1.29a6 6 0 0 0-4.67 0c-.71.3-1.35.73-1.91 1.29s-.98 1.19-1.29 1.91c-.31.74-.47 1.53-.47 2.33v1h-.5a2.5 2.5 0 0 0-2.5 2.5v10a2.5 2.5 0 0 0 2.5 2.5Zm6.5-9c1.1 0 2 .9 2 2 0 .84-.52 1.55-1.25 1.85V20h-1.5v-2.15C10.52 17.55 10 16.84 10 16c0-1.1.9-2 2-2"/></svg>