<svg version="1.1" xmlns="http://www.w3.org/2000/svg" xmlns:xlink="http://www.w3.org/1999/xlink" x="0px" y="0px" viewBox="0 0 24 24" xml:space="preserve" width="24" height="24"><path d="M3.4 14 3.9 13.4 4.4 12.9 6.2 14.7 7.9 16.4 7.4 16.9 6.9 17.5 5.1 15.7z"/><path d="M18.7,8.8l0.9-0.9c0.6-0.6,0.6-1.5,0-2.1L19,5.2l1-1l-3-3l-1,1l-0.8-0.8c-0.6-0.6-1.5-0.6-2.1,0L5.4,8.9C5.2,9.2,5,9.6,5,10
	s0.2,0.8,0.4,1.1l4.5,4.5c0.3,0.3,0.7,0.4,1.1,0.4l0,0c0.4,0,0.8-0.2,1.1-0.4l4.5-4.6c1.5,0.8,2.5,2.4,2.5,4.2
	c0,2.7-2.2,4.8-4.8,4.8H2v3h20v-3h-1.7c1-1.3,1.7-3,1.7-4.8C22,12.6,20.7,10.2,18.7,8.8z"/></svg>