<svg xmlns="http://www.w3.org/2000/svg" viewBox="0 0 24 24" width="24" height="24"><path d="m22.98,12.99l-.03-.96c.02-.33.02-.63,0-.92-.46-5.67-5.27-10.11-10.96-10.11S1.59,5.26,1.04,10.92c-.04.43-.04.89,0,1.35v2.94c-.33,3.8,2.16,7.18,5.71,7.71.35.05.69.08,1.03.08,1.56,0,3.05-.53,4.28-1.53.71-.58,1.67-.66,2.5-.21.83.44,1.76.68,2.71.68h.02c1.47,0,2.86-.64,3.92-1.79,1.23-1.33,1.88-3.21,1.76-5.03l.03-2.14Zm-6.12,2.75c-.67,0-1.3-.17-1.85-.46-1.26-.67-2.74-.57-3.84.34-1.01.83-2.37,1.26-3.82,1.04-2.67-.4-4.35-2.98-4.09-5.68.43-4.44,4.17-7.9,8.72-7.9s8.37,3.54,8.74,8.05c.19,2.36-1.49,4.6-3.86,4.61Z"/><path d="m12,5.33c-3.64,0-6.63,2.38-6.98,5.43-.21,1.85,1.11,3.9,3.27,3.9,1.38,0,2.02-.56,2.83-1.13.88-.62,2.2-1.06,3.21-.6.44.2,1.8.6,2.33.6,1.17,0,2.47-1.04,2.32-2.67-.29-3.1-3.31-5.53-6.99-5.53Zm-2.92,7c-.97,0-1.75-.78-1.75-1.75s.78-1.75,1.75-1.75,1.75.78,1.75,1.75-.78,1.75-1.75,1.75Z"/></svg>