<svg xmlns="http://www.w3.org/2000/svg" width="24" height="24" viewBox="0 0 24 24"><path d="M20.5 2h-17A2.5 2.5 0 0 0 1 4.5v13A2.5 2.5 0 0 0 3.5 20H6v1.5c0 .53.28 1.02.73 1.29.24.14.5.21.77.21q.375 0 .72-.18L13.38 20h7.12a2.5 2.5 0 0 0 2.5-2.5v-13A2.5 2.5 0 0 0 20.5 2m-7 15h-3v-3h3zm1.33-5.42c-.39.39-.84.68-1.33.88v.29h-3v-1.5c0-.83.67-1.5 1.5-1.5a.99.99 0 0 0 1-1c0-.27-.1-.52-.29-.71-.38-.38-1.04-.38-1.41 0a1 1 0 0 0-.29.71h-3c0-1.07.42-2.07 1.17-2.83 1.51-1.51 4.14-1.51 5.66 0 .76.76 1.17 1.76 1.17 2.83s-.42 2.07-1.17 2.83Z"/></svg>