<svg xmlns="http://www.w3.org/2000/svg" viewBox="0 0 24 24" width="24" height="24"><path d="m12,2C5.93,2,1,6.04,1,11c0,2.7,1.48,5.24,4,6.94v3.06c0,.55.3,1.06.79,1.32.22.12.46.18.71.18.29,0,.58-.08.83-.25l3.46-2.31c.42.04.82.06,1.21.06,6.07,0,11-4.04,11-9S18.07,2,12,2Zm1.5,15h-3v-3h3v3Zm1.33-5.42c-.39.39-.84.68-1.33.88v.29h-3v-1.5c0-.83.67-1.5,1.5-1.5.27,0,.52-.1.71-.29.19-.19.29-.44.29-.71s-.1-.52-.29-.71c-.38-.38-1.04-.38-1.41,0-.19.19-.29.44-.29.71h-3c0-1.07.42-2.07,1.17-2.83,1.51-1.51,4.14-1.51,5.66,0,.76.76,1.17,1.76,1.17,2.83s-.42,2.07-1.17,2.83Z"/></svg>