<svg xmlns="http://www.w3.org/2000/svg" viewBox="0 0 24 24" width="24" height="24"><path d="m18.95,13.05l-2.52-5.05h.57c.55,0,1-.45,1-1v-1c0-.55-.45-1-1-1h-2.07l-.03-.07c-.6-1.19-1.8-1.93-3.13-1.93h-1.76v3h1.76c.19,0,.36.11.45.28l1.36,2.72h-2.57c-.45,0-.88.2-1.16.55l-2.27,2.8-2.42-2.83c-.29-.33-.7-.52-1.14-.52H1v3h2.31l1.01,1.18c-1.91.52-3.32,2.25-3.32,4.32,0,2.48,2.02,4.5,4.5,4.5,1.96,0,3.62-1.27,4.23-3.03.09.02.18.03.27.03h4.28c.62,1.74,2.27,3,4.22,3,2.48,0,4.5-2.02,4.5-4.5,0-2.33-1.78-4.23-4.05-4.45Zm-13.45,5.95c-.83,0-1.5-.67-1.5-1.5s.67-1.5,1.5-1.5,1.5.67,1.5,1.5-.67,1.5-1.5,1.5Zm13,0c-.83,0-1.5-.67-1.5-1.5,0-.33.11-.63.29-.88l.19-.22c.27-.25.62-.4,1.02-.4.83,0,1.5.67,1.5,1.5s-.67,1.5-1.5,1.5Z"/></svg>