<svg xmlns="http://www.w3.org/2000/svg" viewBox="0 0 24 24" width="24" height="24"><path d="m12,1c-.87,0-1.68.1-2.47.29h0s0,0-.01,0c0,0,0,0-.01,0,0,0,0,0,0,0C4.8,2.38,1.32,6.5,1.03,11.25c-.03.24-.03.49-.03.75s0,.51.02.68c.3,4.82,3.78,8.94,8.47,10.02,0,0,0,0,0,0,0,0,0,0,.01,0,0,0,0,0,.01,0h0c.79.19,1.6.29,2.47.29,6.07,0,11-4.93,11-11S18.07,1,12,1Zm-7.99,11.43c-.01-.14-.01-.29-.01-.43s0-.29.02-.5c.21-3.35,2.53-6.2,5.71-7.14,1.65.9,3.27,3.72,3.27,7.64s-1.62,6.74-3.27,7.64c-3.18-.94-5.51-3.8-5.72-7.21Z"/></svg>