<svg xmlns="http://www.w3.org/2000/svg" viewBox="0 0 24 24" width="24" height="24"><path d="m19.5,2H4.5c-1.38,0-2.5,1.12-2.5,2.5v15c0,1.38,1.12,2.5,2.5,2.5h15c1.38,0,2.5-1.12,2.5-2.5V4.5c0-1.38-1.12-2.5-2.5-2.5ZM5,18h-1v-1h1v1Zm0-4h-1v-1h1v1Zm0-4h-1v-1h1v1Zm0-4h-1v-1h1v1Zm2,14h-1v-1h1v1Zm0-4h-1v-1h1v1Zm0-4h-1v-1h1v1Zm0-4h-1v-1h1v1Zm2,10h-1v-1h1v1Zm0-4h-1v-1h1v1Zm0-4h-1v-1h1v1Zm0-4h-1v-1h1v1Zm2,14h-1v-1h1v1Zm0-4h-1v-1h1v1Zm0-4h-1v-1h1v1Zm0-4h-1v-1h1v1Zm2,10h-1v-1h1v1Zm0-4h-1v-1h1v1Zm0-4h-1v-1h1v1Zm0-4h-1v-1h1v1Zm2,14h-1v-1h1v1Zm0-4h-1v-1h1v1Zm0-4h-1v-1h1v1Zm0-4h-1v-1h1v1Zm2,10h-1v-1h1v1Zm0-4h-1v-1h1v1Zm0-4h-1v-1h1v1Zm0-4h-1v-1h1v1Zm2,14h-1v-1h1v1Zm0-4h-1v-1h1v1Zm0-4h-1v-1h1v1Zm0-4h-1v-1h1v1Z"/></svg>