<svg xmlns="http://www.w3.org/2000/svg" viewBox="0 0 24 24" width="24" height="24"><path d="m6.5,16h-2.13l-.38-4.14-2.99.27.49,5.44v5.43h3v-4h1.5v4h3v-4.5c0-1.38-1.12-2.5-2.5-2.5Z"/><path d="m20.01,11.86l-.38,4.14h-2.13c-1.38,0-2.5,1.12-2.5,2.5v4.5h3v-4h1.5v4h3v-5.43l.49-5.44-2.99-.27Z"/><path d="m18,14.75v-1.5h-5.25v-4.25h7.88c.51,0,.99-.26,1.27-.7.27-.43.31-.98.09-1.44-1.68-3.56-5.6-5.86-9.99-5.86S3.69,3.3,2.01,6.86c-.22.46-.19,1.01.09,1.44.28.43.75.7,1.27.7h7.88v4.25h-5.25v1.5h5.25v8.25h1.5v-8.25h5.25Z"/></svg>