<svg xmlns="http://www.w3.org/2000/svg" width="24" height="24" viewBox="0 0 24 24"><path d="M18.79 23h.38c.47-.02.9-.26 1.17-.64l2.39-3.45c.23-.33.32-.74.24-1.14s-.31-.74-.64-.97l-5.18-3.45c-.61-.41-1.43-.31-1.93.23l-1.74 1.88c-.79-.48-1.9-1.24-2.8-2.13-.89-.9-1.65-2.01-2.13-2.8l1.88-1.74c.54-.5.64-1.32.23-1.93L7.2 1.67c-.22-.33-.57-.57-.97-.64-.39-.07-.8.01-1.14.24L1.65 3.66c-.39.27-.62.7-.64 1.17-.03.77-.16 7.63 5.18 12.98C11.02 22.64 17.1 23 18.79 23M20.95 12.95a7.007 7.007 0 0 0 0-9.9C19.63 1.73 17.87 1 16 1s-3.63.73-4.95 2.05l1.06 1.06C13.15 3.07 14.53 2.5 16 2.5s2.85.57 3.89 1.61c2.14 2.14 2.14 5.63 0 7.78z"/><path d="M18.47 10.47c.66-.66 1.03-1.54 1.03-2.47s-.36-1.81-1.03-2.47c-1.32-1.32-3.63-1.32-4.95 0l1.06 1.06c.76-.76 2.07-.76 2.83 0a1.983 1.983 0 0 1 0 2.82z"/></svg>