<svg xmlns="http://www.w3.org/2000/svg" viewBox="0 0 24 24" width="24" height="24"><path d="m12,1C5.93,1,1,5.93,1,12s4.93,11,11,11,11-4.93,11-11S18.07,1,12,1Zm-4.25,11c0-2.09,1.51-3.82,3.5-4.17v3.83l-2.9,2.49c-.37-.63-.6-1.36-.6-2.14Zm5-.75v-3.42c1.74.31,3.11,1.68,3.42,3.42h-3.42Zm-.9,1.86l1.89,2.76c-.55.24-1.14.38-1.74.38-1.02,0-1.94-.37-2.67-.97l2.53-2.16Zm8.11-1.86h-2.27c-.34-2.57-2.38-4.61-4.95-4.95v-2.27c3.81.36,6.86,3.4,7.21,7.21Zm-15.96.75c0-4.16,3.19-7.58,7.25-7.96v2.27c-2.82.37-5,2.78-5,5.7,0,1.16.35,2.23.94,3.14l-1.72,1.47c-.92-1.3-1.47-2.89-1.47-4.61Zm2.45,5.75l1.72-1.47c1.02.91,2.36,1.48,3.83,1.48.91,0,1.8-.22,2.6-.63l1.28,1.87c-1.15.64-2.47,1.01-3.88,1.01-2.16,0-4.11-.86-5.55-2.25Z"/></svg>