<svg xmlns="http://www.w3.org/2000/svg" viewBox="0 0 24 24" width="24" height="24"><path d="m20,9c-.17,0-.34.02-.5.05v-2.05c0-1.38-1.12-2.5-2.5-2.5h-2.05c.03.16.05.33.05.5,0,1.66-1.34,3-3,3s-3-1.34-3-3c0-.17.02-.34.05-.5h-2.05c-1.38,0-2.5,1.12-2.5,2.5v2.05c-.16-.03-.33-.05-.5-.05-1.66,0-3,1.34-3,3s1.34,3,3,3c.17,0,.34-.02.5-.05v2.05c0,1.38,1.12,2.5,2.5,2.5h2.05c-.03-.16-.05-.33-.05-.5,0-1.66,1.34-3,3-3s3,1.34,3,3c0,.17-.02.34-.05.5h2.05c1.38,0,2.5-1.12,2.5-2.5v-2.05c.16.03.33.05.5.05,1.66,0,3-1.34,3-3s-1.34-3-3-3Z"/></svg>