<svg xmlns="http://www.w3.org/2000/svg" viewBox="0 0 24 24" width="24" height="24"><path d="m20.34,12.28l2.22-2.22c.59-.59.59-1.54,0-2.12l-3.5-3.5c-.59-.59-1.54-.59-2.12,0l-2.22,2.22,5.62,5.62Z"/><path d="m13.66,7.72L5.44,15.94c-.28.28-.44.66-.44,1.06v3.5c0,.83.67,1.5,1.5,1.5h3.5c.4,0,.78-.16,1.06-.44l8.22-8.22-5.62-5.62Z"/><path d="m4,17c0-.44.13-.87.35-1.25-.12-.3-.21-.6-.22-.89-.07-1.67,1.63-3.42,3.12-4.95,1.48-1.52,2.75-2.83,2.75-4.41C10,1.22,2.5,1,1,1v3c3.09,0,6,.85,6,1.48-.06.44-1.17,1.58-1.9,2.33-1.82,1.87-4.09,4.2-3.97,7.17.07,1.8,1.04,3.53,2.87,5.14v-3.12Z"/></svg>