<svg xmlns="http://www.w3.org/2000/svg" viewBox="0 0 24 24" width="24" height="24"><path d="m21.5,7h-.8l-1.7-2.04v-2.46c0-.83-.67-1.5-1.5-1.5h-1c-1.66,0-3.23.75-4.27,2h-3.23C4.36,3,1,6.36,1,11c0,3.55.68,6.75,2.35,11.04.22.58.78.96,1.4.96h2.75c.83,0,1.5-.67,1.5-1.5v-2.5h4v2.5c0,.83.67,1.5,1.5,1.5h2.75c.46,0,.9-.21,1.18-.57,1.46-1.87,2.35-4.7,2.77-6.43h.3c.83,0,1.5-.67,1.5-1.5v-6c0-.83-.67-1.5-1.5-1.5Zm-9.5,1.5h-7v-1.5h7v1.5Zm4.5,2.5c-.83,0-1.5-.67-1.5-1.5s.67-1.5,1.5-1.5,1.5.67,1.5,1.5-.67,1.5-1.5,1.5Z"/></svg>