<svg xmlns="http://www.w3.org/2000/svg" viewBox="0 0 24 24" width="24" height="24"><path d="m5.09,21.42c.2.92,1.02,1.58,1.96,1.58h1.74l-1.43-13H2.64l2.45,11.42Z"/><path d="M13.7 23 15.14 10 8.86 10 10.3 23 13.7 23z"/><path d="m16.95,23c.94,0,1.76-.67,1.96-1.58l2.45-11.42h-4.71l-1.43,13h1.74Z"/><path d="m19.54,4.75c-.64-1.57-2.13-2.63-3.82-2.63-.28,0-.56.03-.83.09-.76-.77-1.79-1.22-2.88-1.22s-2.12.45-2.88,1.22c-.27-.06-.55-.09-.83-.09-1.7,0-3.19,1.06-3.82,2.63-1.41.66-2.38,2.1-2.44,3.75h19.97c-.07-1.65-1.03-3.09-2.44-3.75Z"/></svg>