<svg xmlns="http://www.w3.org/2000/svg" viewBox="0 0 24 24" width="24" height="24"><path d="m19.77,6.15c-.97-.97-2.56-.97-3.54,0l-1.29,1.29h0s-.72.72-.72.72l6.12,6.12.72-.72h0s1.29-1.29,1.29-1.29c.97-.97.97-2.56,0-3.54l-2.59-2.59Z"/><path d="m13,17c-.13,0-.26-.02-.38-.06l-5.65,5.65.55.55,10.69-2.38,1.39-5.11-6.76-6.76-5.11,1.39-2.38,10.69.55.55,5.65-5.65c-.03-.12-.06-.25-.06-.38,0-.83.67-1.5,1.5-1.5s1.5.67,1.5,1.5-.67,1.5-1.5,1.5Z"/><path d="M4 10 7 10 7 7 10 7 10 4 7 4 7 1 4 1 4 4 1 4 1 7 4 7 4 10z"/></svg>