<svg xmlns="http://www.w3.org/2000/svg" viewBox="0 0 24 24" width="24" height="24"><path d="m19.77,6.15c-.97-.97-2.56-.97-3.54,0l-1.29,1.29h0s-.72.72-.72.72l6.12,6.12.72-.72h0s1.29-1.29,1.29-1.29c.97-.97.97-2.56,0-3.54l-2.59-2.59Z"/><path d="m7.73,10.29l-2.38,10.69.55.55,5.65-5.65c-.03-.12-.06-.25-.06-.38,0-.83.67-1.5,1.5-1.5s1.5.67,1.5,1.5-.67,1.5-1.5,1.5c-.13,0-.26-.02-.38-.06l-5.65,5.65.55.55,10.69-2.38,1.39-5.11-6.76-6.76-5.11,1.39Z"/><path d="m5.49,11.16c1.13-3.12,2.2-6.06.71-8.19-.93-1.33-2.63-1.97-5.2-1.97v3c1.43,0,2.43.25,2.74.69.59.85-.33,3.4-1.07,5.44-.82,2.27-1.67,4.62-1.67,6.86s.66,3.91,1.95,4.81l.52-1.47.68-1.99c-.09-.38-.14-.82-.14-1.35,0-1.71.76-3.81,1.49-5.84Z"/></svg>