<svg xmlns="http://www.w3.org/2000/svg" viewBox="0 0 24 24" width="24" height="24"><path d="m21.1,4.3c-.44-.8-1.28-1.3-2.2-1.3h-4.41c-.83,0-1.5.67-1.5,1.5v3.5H1.5c-.83,0-1.5.67-1.5,1.5v5c0,1.21.86,2.22,2,2.45,0,.02,0,.03,0,.05,0,2.21,1.79,4,4,4s4-1.79,4-4h4c0,2.21,1.79,4,4,4s4-1.79,4-4c0-.02,0-.03,0-.05,1.14-.23,2-1.24,2-2.45v-4.25c0-.42-.11-.83-.31-1.2l-2.59-4.75Zm-5.1,1.7h2.61l1.91,3.5h-4.52v-3.5Zm-10,12c-.55,0-1-.45-1-1,0-.21.07-.43.2-.6.11-.15.37-.4.8-.4.11,0,.21.02.29.04.26.08.42.25.51.36.12.17.2.38.2.6,0,.55-.45,1-1,1Zm12,0c-.55,0-1-.45-1-1,0-.21.07-.43.2-.6.11-.15.37-.4.8-.4.11,0,.21.02.29.04.26.08.42.25.51.36.12.17.2.38.2.6,0,.55-.45,1-1,1Z"/></svg>