<svg xmlns="http://www.w3.org/2000/svg" width="24" height="24" viewBox="0 0 24 24"><path d="M19.78 4.22c-1.01-1.01-2.18-1.8-3.5-2.36a11.08 11.08 0 0 0-8.57 0 10.9 10.9 0 0 0-3.5 2.36C3.2 5.23 2.41 6.4 1.85 7.72 1.28 9.08.99 10.52.99 12h3c0-1.08.21-2.13.63-3.11.4-.95.98-1.81 1.72-2.54s1.59-1.31 2.54-1.72c1.97-.83 4.26-.83 6.23 0 .95.4 1.81.98 2.54 1.72.17.17.32.34.48.52L16 9h7V2l-2.75 2.75c-.16-.18-.31-.36-.48-.52ZM19.37 15.11c-.4.95-.98 1.81-1.72 2.54s-1.59 1.31-2.54 1.72c-1.97.83-4.26.83-6.23 0-.95-.4-1.81-.98-2.54-1.72-.17-.17-.32-.34-.48-.52L7.99 15H1v7l2.75-2.75c.16.18.31.36.48.52 1.01 1.01 2.18 1.8 3.5 2.36 1.36.57 2.8.87 4.28.87s2.93-.29 4.28-.87a10.9 10.9 0 0 0 3.5-2.36c1.01-1.01 1.8-2.18 2.36-3.5.57-1.36.86-2.8.86-4.28h-3c0 1.08-.21 2.13-.63 3.11Z"/></svg>