<svg xmlns="http://www.w3.org/2000/svg" viewBox="0 0 24 24" width="24" height="24"><path d="m22,10v-2.5c0-1.38-1.12-2.5-2.5-2.5h-6.75v-1.21c.45-.26.75-.74.75-1.29,0-.83-.67-1.5-1.5-1.5s-1.5.67-1.5,1.5c0,.55.3,1.03.75,1.29v1.21h-6.75c-1.38,0-2.5,1.12-2.5,2.5v2.5c-.55,0-1,.45-1,1v6c0,.55.45,1,1,1v2.5c0,1.38,1.12,2.5,2.5,2.5h15c1.38,0,2.5-1.12,2.5-2.5v-2.5c.55,0,1-.45,1-1v-6c0-.55-.45-1-1-1Zm-16,1.5c0-1.38.9-2.5,2-2.5s2,1.12,2,2.5-.9,2.5-2,2.5-2-1.12-2-2.5Zm11,7.5H7v-2h10v2Zm-1-5c-1.1,0-2-1.12-2-2.5s.9-2.5,2-2.5,2,1.12,2,2.5-.9,2.5-2,2.5Z"/></svg>