<svg xmlns="http://www.w3.org/2000/svg" width="24" height="24" viewBox="0 0 24 24"><path d="M20.16 5.15a1.52 1.52 0 0 0-1.59.17L13 9.7l-1.43 1.12c-.36.28-.57.72-.57 1.18s.21.9.57 1.18L13 14.3l5.57 4.38c.45.35 1.07.42 1.58.17.52-.25.84-.77.84-1.35v-11c0-.57-.33-1.1-.84-1.35Z"/><path d="M12.16 18.85c.52-.25.84-.77.84-1.35v-1.93l-2.04-1.61c-.61-.48-.96-1.19-.96-1.97s.35-1.49.96-1.97L13 8.41V6.48c0-.57-.33-1.1-.84-1.35a1.52 1.52 0 0 0-1.59.17l-7 5.5c-.36.28-.57.72-.57 1.18s.21.9.57 1.18l7 5.5c.45.35 1.07.42 1.58.17Z"/></svg>