<svg xmlns="http://www.w3.org/2000/svg" viewBox="0 0 24 24" width="24" height="24"><path d="m12.25,15c0,1.82-.45,2.72-.92,3.67-.51,1.01-1.08,2.16-1.08,4.33h1.5c0-1.82.45-2.72.92-3.67.51-1.01,1.08-2.16,1.08-4.33h-1.5Z"/><path d="m8.75,15c0,1.82-.45,2.72-.92,3.67-.51,1.01-1.08,2.16-1.08,4.33h1.5c0-1.82.45-2.72.92-3.67.51-1.01,1.08-2.16,1.08-4.33h-1.5Z"/><path d="m14.83,18.67c-.51,1.01-1.08,2.16-1.08,4.33h1.5c0-1.82.45-2.72.92-3.67.51-1.01,1.08-2.16,1.08-4.33h-1.5c0,1.82-.45,2.72-.92,3.67Z"/><path d="m5.37,10.99c.23,1.16,1.26,2.01,2.45,2.01h8.36c1.19,0,2.22-.84,2.45-2.01l1-4.99H4.37l1,4.99Z"/><path d="m21.5,1H2.5c-.83,0-1.5.67-1.5,1.5v1c0,.83.67,1.5,1.5,1.5h19c.83,0,1.5-.67,1.5-1.5v-1c0-.83-.67-1.5-1.5-1.5Z"/></svg>