<svg xmlns="http://www.w3.org/2000/svg" viewBox="0 0 24 24" width="24" height="24"><path d="M2 2H5V5H2z"/><path d="M6.25 2H9.25V5H6.25z"/><path d="M10.5 2H13.5V5H10.5z"/><path d="M14.75 2H17.75V5H14.75z"/><path d="M19 2H22V5H19z"/><path d="M2 19H5V22H2z"/><path d="M6.25 19H9.25V22H6.25z"/><path d="M10.5 19H13.5V22H10.5z"/><path d="M14.75 19H17.75V22H14.75z"/><path d="M19 19H22V22H19z"/><path d="M19 6.25H22V9.25H19z"/><path d="M19 10.5H22V13.5H19z"/><path d="M19 14.75H22V17.75H19z"/><path d="M2 6.25H5V9.25H2z"/><path d="M2 10.5H5V13.5H2z"/><path d="M2 14.75H5V17.75H2z"/><path d="M7 7H17V17H7z"/></svg>