<svg xmlns="http://www.w3.org/2000/svg" viewBox="0 0 24 24" width="24" height="24"><path d="M12 10A2 2 0 1 0 12 14 2 2 0 1 0 12 10z"/><path d="m2,4.5v15c0,1.38,1.12,2.5,2.5,2.5h15c1.38,0,2.5-1.12,2.5-2.5V4.5c0-1.38-1.12-2.5-2.5-2.5H4.5c-1.38,0-2.5,1.12-2.5,2.5Zm5,7.5c0-1.02.31-1.96.83-2.75l-2.04-2.04,1.41-1.41,2.04,2.04c.79-.52,1.74-.83,2.75-.83s1.96.31,2.75.83l2.04-2.04,1.41,1.41-2.04,2.04c.52.79.83,1.74.83,2.75s-.31,1.96-.83,2.75l2.04,2.04-1.41,1.41-2.04-2.04c-.79.52-1.74.83-2.75.83s-1.96-.31-2.75-.83l-2.04,2.04-1.41-1.41,2.04-2.04c-.52-.79-.83-1.74-.83-2.75Z"/></svg>