<svg xmlns="http://www.w3.org/2000/svg" viewBox="0 0 24 24" width="24" height="24"><path d="m17.66,3.34c3.12,3.12,3.12,8.2,0,11.31-1.18,1.18-2.63,1.91-4.16,2.2v-2.05c2.58-.67,4.5-3.01,4.5-5.8s-1.92-5.13-4.5-5.8V1h-3v2.2c-2.58.67-4.5,3.01-4.5,5.8s1.92,5.13,4.5,5.8v2.05c-1.52-.29-2.98-1.02-4.16-2.2-3.12-3.12-3.12-8.2,0-11.31l-2.12-2.12C-.07,5.51-.07,12.49,4.22,16.78c1.08,1.08,2.34,1.89,3.68,2.43l-1.68,1.01,1.54,2.57,2.73-1.64v1.85h3v-1.85l2.73,1.64,1.54-2.57-1.68-1.01c1.34-.54,2.6-1.34,3.68-2.43,4.29-4.29,4.29-11.27,0-15.56l-2.12,2.12Zm-2.66,5.66c0,1.11-.61,2.06-1.5,2.58v-5.17c.89.52,1.5,1.48,1.5,2.58Zm-6,0c0-1.11.61-2.06,1.5-2.58v5.17c-.89-.52-1.5-1.48-1.5-2.58Z"/></svg>