<svg xmlns="http://www.w3.org/2000/svg" viewBox="0 0 24 24" width="24" height="24"><path d="m4.5,23h15c1.38,0,2.5-1.12,2.5-2.5V3.5c0-1.38-1.12-2.5-2.5-2.5H4.5c-1.38,0-2.5,1.12-2.5,2.5v17c0,1.38,1.12,2.5,2.5,2.5Zm3.5-18c1.1,0,2,.9,2,2s-.9,2-2,2-2-.9-2-2,.9-2,2-2Zm-3,8.25c.46,0,.65.14.96.36.38.27.9.64,1.84.64s1.46-.37,1.83-.64c.31-.22.5-.36.96-.36s.65.14.96.36c.38.27.9.64,1.84.64s1.46-.37,1.84-.64c.32-.22.51-.36.97-.36s.65.14.97.36c.38.27.9.64,1.84.64v2.5c-.46,0-.65-.14-.97-.36-.38-.27-.9-.64-1.84-.64s-1.46.37-1.84.64c-.32.22-.5.36-.97.36s-.65-.14-.96-.36c-.38-.27-.9-.64-1.83-.64s-1.46.37-1.84.64c-.31.22-.5.36-.96.36s-.65-.14-.96-.36c-.38-.27-.9-.64-1.83-.64v-2.5Zm0,4c.46,0,.65.14.96.36.38.27.9.64,1.84.64s1.46-.37,1.83-.64c.31-.22.5-.36.96-.36s.65.14.96.36c.38.27.9.64,1.84.64s1.46-.37,1.84-.64c.32-.22.51-.36.97-.36s.65.14.97.36c.38.27.9.64,1.84.64v1.75H5v-2.75Z"/></svg>