<svg xmlns="http://www.w3.org/2000/svg" viewBox="0 0 24 24" width="24" height="24"><path d="m17.5,13.29c-.83,0-1.17-.28-1.79-.8-.76-.63-1.79-1.49-3.71-1.49s-2.95.86-3.71,1.49c-.62.51-.96.8-1.79.8s-1.17-.28-1.79-.8c-.76-.63-1.79-1.49-3.71-1.49v3c.83,0,1.17.28,1.79.8.76.63,1.79,1.49,3.71,1.49s2.95-.86,3.71-1.49c.62-.51.96-.8,1.79-.8s1.17.28,1.79.8c.76.63,1.79,1.49,3.71,1.49s2.95-.86,3.71-1.49c.62-.51.96-.8,1.79-.8v-3c-1.92,0-2.95.86-3.71,1.49-.62.51-.96.8-1.79.8Z"/><path d="m11.05,5.17l1.68,1.68-2.51,2.69c.48-.19,1.05-.33,1.77-.33,1.74,0,2.65.76,3.39,1.37.64.53,1.1.91,2.11.91s1.48-.38,2.11-.91c.19-.16.39-.32.61-.48l-7.42-7.42c-.48-.48-1.17-.77-1.83-.73-.68.02-1.33.31-1.79.82l-4.29,4.72,2.22,2.02,3.94-4.34Z"/><path d="m17.5,19c-.83,0-1.17-.28-1.79-.8-.76-.63-1.79-1.49-3.71-1.49s-2.95.86-3.71,1.49c-.62.51-.96.8-1.79.8s-1.17-.28-1.79-.8c-.76-.63-1.79-1.49-3.71-1.49v3c.83,0,1.17.28,1.79.8.76.63,1.79,1.49,3.71,1.49s2.95-.86,3.71-1.49c.62-.51.96-.8,1.79-.8s1.17.28,1.79.8c.76.63,1.79,1.49,3.71,1.49s2.95-.86,3.71-1.49c.62-.51.96-.8,1.79-.8v-3c-1.92,0-2.95.86-3.71,1.49-.62.51-.96.8-1.79.8Z"/><path d="m19.5,7c1.38,0,2.5-1.12,2.5-2.5s-1.12-2.5-2.5-2.5-2.5,1.12-2.5,2.5,1.12,2.5,2.5,2.5Z"/></svg>