<svg xmlns="http://www.w3.org/2000/svg" width="24" height="24" viewBox="0 0 24 24"><path d="M2.97 5.74c-1.85 2.77-1.2 6.55 1.52 8.52 2.15 1.56 4.95 1.54 7.06.19-.11-.02-.21-.05-.31-.09-.06 0-.12-.03-.17-.06-.01 0-.02 0-.04-.01-3.66-1.32-5.65-5.33-4.44-9.06A7.19 7.19 0 0 1 9.86 1.2c-2.84.57-5.28 2.23-6.87 4.53Z"/><path d="M16.75 4.75c1.85 0 3.54.71 4.83 1.86a11.04 11.04 0 0 0-6.23-5.08c-1.57-.5-3.24-.36-4.72.39a6.245 6.245 0 0 0-1.1 10.42c-.01-.11-.03-.22-.03-.33 0-4 3.25-7.25 7.25-7.25Z"/><path d="M13.81 10.28c.08.08.14.16.21.25s.02.03.03.05.02.03.03.05c2.26 3.23 1.53 7.7-1.67 10.02a7.2 7.2 0 0 1-4.25 1.38c-.24 0-.49-.02-.73-.04a10.86 10.86 0 0 0 8.03.43 6.2 6.2 0 0 0 3.56-3.07c.76-1.49.89-3.18.38-4.77-.82-2.52-3.1-4.16-5.6-4.3Z"/><path d="M1 12c0 2.57.89 4.93 2.37 6.81 2.09 2.49 5.79 2.98 8.46 1.04 2.15-1.56 3-4.24 2.36-6.67-.05.1-.11.19-.17.28a7.26 7.26 0 0 1-5.88 2.99c-1.48 0-2.97-.45-4.25-1.38-1.5-1.09-2.45-2.66-2.82-4.35-.05.42-.08.84-.08 1.27ZM16.75 5.75a6.24 6.24 0 0 0-5.82 4c.1-.05.2-.08.31-.12 1.84-.61 3.81-.46 5.53.42 1.73.88 3 2.38 3.6 4.22.55 1.7.46 3.5-.25 5.13 1.79-1.96 2.89-4.55 2.89-7.41 0-3.45-2.8-6.25-6.25-6.25Z"/></svg>