<svg xmlns="http://www.w3.org/2000/svg" viewBox="0 0 24 24" width="24" height="24"><path d="m23,3.5c0-1.38-1.12-2.5-2.5-2.5H3.5c-1.38,0-2.5,1.12-2.5,2.5v3.83c0,1.09.39,2.09,1.03,2.89-.02.09-.03.18-.03.28v10c0,1.38,1.12,2.5,2.5,2.5h15c1.38,0,2.5-1.12,2.5-2.5v-10c0-.1-.01-.19-.03-.28.63-.8,1.03-1.79,1.03-2.89v-3.83Zm-15.67,3.83c0,.92-.75,1.67-1.67,1.67s-1.67-.75-1.67-1.67v-3.33h3.33v3.33Zm3-3.33h3.33v3.33c0,.92-.75,1.67-1.67,1.67s-1.67-.75-1.67-1.67v-3.33Zm4.67,17h-6v-5c0-.55.45-1,1-1h4c.55,0,1,.45,1,1v5Zm5-13.67c0,.92-.75,1.67-1.67,1.67s-1.67-.75-1.67-1.67v-3.33h3.33v3.33Z"/></svg>