<svg xmlns="http://www.w3.org/2000/svg" viewBox="0 0 24 24" width="24" height="24"><path d="m12.56,10.94l-4.5-4.5c-.59-.59-1.54-.59-2.12,0L1.44,10.94c-.59.59-.59,1.54,0,2.12l4.5,4.5c.29.29.68.44,1.06.44s.77-.15,1.06-.44l4.5-4.5c.59-.59.59-1.54,0-2.12Z"/><path d="M17.75 12.5A5.25 5.25 0 1 0 17.75 23 5.25 5.25 0 1 0 17.75 12.5z"/><path d="m19.25,1c-.62,0-1.22.15-1.75.44-.53-.28-1.13-.44-1.75-.44-2.07,0-3.75,1.68-3.75,3.75,0,.89.33,1.77.93,2.46.03.04.06.07.1.1l3.44,3.28c.29.28.66.41,1.04.41s.75-.14,1.04-.41l3.44-3.28s.07-.07.1-.1c.6-.69.93-1.56.93-2.46,0-2.07-1.68-3.75-3.75-3.75Z"/></svg>