<svg xmlns="http://www.w3.org/2000/svg" viewBox="0 0 24 24" width="24" height="24"><path d="m5,5h4v-3h-4.5c-1.38,0-2.5,1.12-2.5,2.5v4.5h3v-4Z"/><path d="m4.5,22h4.5v-3h-4v-4h-3v4.5c0,1.38,1.12,2.5,2.5,2.5Z"/><path d="m22,19.5v-4.5h-3v4h-4v3h4.5c1.38,0,2.5-1.12,2.5-2.5Z"/><path d="m22,9v-4.5c0-1.38-1.12-2.5-2.5-2.5h-4.5v3h4v4h3Z"/><path d="m16.5,8.69l-4.28-2.14c-.14-.07-.31-.07-.45,0l-4.28,2.14,4.5,2.25,4.5-2.25Z"/><path d="m7,14.75c0,.19.11.36.28.45l4.22,2.11v-5.5l-4.5-2.25v5.19Z"/><path d="m17,14.75v-5.19l-4.5,2.25v5.5l4.22-2.11c.17-.08.28-.26.28-.45Z"/></svg>