<svg xmlns="http://www.w3.org/2000/svg" viewBox="0 0 24 24" width="24" height="24"><path d="m18.59,18c-1.68,0-2.6.84-3.21,1.39-.51.46-.7.61-1.19.61s-.68-.15-1.19-.61c-.61-.55-1.53-1.39-3.21-1.39s-2.6.84-3.21,1.39c-.51.46-.69.61-1.19.61s-.68-.15-1.19-.61c-.61-.55-1.53-1.39-3.21-1.39v3c.5,0,.68.15,1.19.61.61.55,1.53,1.39,3.21,1.39s2.6-.84,3.21-1.39c.51-.46.69-.61,1.19-.61s.68.15,1.19.61c.61.55,1.53,1.39,3.21,1.39s2.6-.84,3.21-1.39c.51-.46.7-.61,1.19-.61s.68.15,1.2.61c.61.55,1.53,1.39,3.21,1.39v-3c-.5,0-.68-.15-1.19-.61-.61-.55-1.53-1.39-3.21-1.39Z"/><path d="m3.58,16.86c.24.18.45.37.63.53.51.46.69.61,1.19.61s.68-.15,1.19-.61c.61-.55,1.53-1.39,3.21-1.39s2.6.84,3.21,1.39c.51.46.69.61,1.19.61s.68-.15,1.19-.61c.61-.55,1.53-1.39,3.21-1.39.81,0,1.44.2,1.95.46l1.39-4.52c.12-.38.08-.8-.11-1.15-.19-.35-.51-.62-.9-.73l-1.92-.57v-5c0-.83-.67-1.5-1.5-1.5h-4V1h-3v2h-4c-.83,0-1.5.67-1.5,1.5v5l-1.92.57c-.38.11-.71.38-.9.73-.19.35-.23.77-.11,1.15l1.51,4.92Zm4.42-10.86h8v2.61l-3.58-1.05c-.28-.08-.57-.08-.85,0l-3.58,1.05v-2.61Z"/></svg>