<svg xmlns="http://www.w3.org/2000/svg" viewBox="0 0 24 24" width="24" height="24"><path d="m20,8.88v-3.38c0-.83-.67-1.5-1.5-1.5h-3.38l-2.06-2.06c-.59-.59-1.54-.59-2.12,0l-2.06,2.06h-3.38c-.83,0-1.5.67-1.5,1.5v3.38l-2.06,2.06c-.59.59-.59,1.54,0,2.12l2.06,2.06v3.38c0,.83.67,1.5,1.5,1.5h3.38l2.06,2.06c.29.29.68.44,1.06.44s.77-.15,1.06-.44l2.06-2.06h3.38c.83,0,1.5-.67,1.5-1.5v-3.38l2.06-2.06c.59-.59.59-1.54,0-2.12l-2.06-2.06Zm-9,7.74l-4.06-4.06,2.12-2.12,1.94,1.94,3.94-3.94,2.12,2.12-6.06,6.06Z"/></svg>