<svg xmlns="http://www.w3.org/2000/svg" viewBox="0 0 24 24" width="24" height="24"><path d="m20,17.5V7.5c0-1.93-1.57-3.5-3.5-3.5h-3.5v-1.5h4v-1.5H7v1.5h4v1.5h-3.5c-1.93,0-3.5,1.57-3.5,3.5v10c0,1.38,1.12,2.5,2.5,2.5h11c1.38,0,2.5-1.12,2.5-2.5ZM7.5,7h9c.28,0,.5.22.5.5v3.5H7v-3.5c0-.28.22-.5.5-.5Zm1,10c-.83,0-1.5-.67-1.5-1.5s.67-1.5,1.5-1.5,1.5.67,1.5,1.5-.67,1.5-1.5,1.5Zm7,0c-.83,0-1.5-.67-1.5-1.5s.67-1.5,1.5-1.5,1.5.67,1.5,1.5-.67,1.5-1.5,1.5Z"/><path d="M7.33 21 6 23 8.25 23 9 22 15 22 15.75 23 18 23 16.67 21 7.33 21z"/></svg>