<svg xmlns="http://www.w3.org/2000/svg" viewBox="0 0 24 24" width="24" height="24"><path d="m17,11c-.59,0-1.13.35-1.37.88l-4.5,10,2.74,1.23.95-2.12h4.36l.95,2.12,2.74-1.23-4.5-10c-.24-.54-.78-.88-1.37-.88Zm-.83,7l.83-1.84.83,1.84h-1.66Z"/><path d="m12.17,14.96l.67-2.92s-1.29-.31-2.77-1.05c1.24-1.27,2.24-2.9,2.57-4.99h1.37v-3h-5V1h-3v2H1v3h8.54c-.34,1.34-1.11,2.42-2.05,3.27-.41-.38-.8-.79-1.13-1.27h-3.42c.48,1.17,1.19,2.14,2,2.97-1.49.74-2.75,1.06-2.78,1.06l.34,1.46.33,1.46c.19-.04,2.39-.58,4.67-1.96,2.28,1.39,4.47,1.92,4.66,1.96Z"/></svg>