<svg xmlns="http://www.w3.org/2000/svg" viewBox="0 0 24 24" width="24" height="24"><path d="m23,13.5c0-2.48-2.02-4.5-4.5-4.5h-.5c0-3.86-3.14-7-7-7s-7,3.14-7,7v.27c-.62.22-1.2.56-1.68,1.05-.85.85-1.32,1.98-1.32,3.18,0,1.56.83,2.96,2.07,3.77-.05.24-.07.49-.07.73,0,2.21,1.79,4,4,4s4-1.79,4-4h2c0,2.21,1.79,4,4,4s4-1.79,4-4c0-.24-.03-.49-.07-.73.27-.17.52-.36.75-.59.85-.85,1.32-1.98,1.32-3.18Zm-16,5.5c-.55,0-1-.45-1-1,0-.21.07-.43.2-.6h0s0-.01.01-.02c0,0,0,0,0,0,.09-.12.21-.21.34-.28,0,0,0,0,0,0,.13-.06.28-.1.44-.1.43,0,.69.25.8.4.12.17.2.38.2.6,0,.55-.45,1-1,1Zm3.25-10h-3.25c0-1.95,1.4-3.57,3.25-3.92v3.92Zm1.5,0v-3.92c1.85.35,3.25,1.97,3.25,3.92h-3.25Zm5.25,10c-.55,0-1-.45-1-1,0-.21.07-.43.2-.6.11-.15.37-.4.8-.4.16,0,.31.03.44.1.02,0,.03.03.05.04.11.06.21.14.29.24,0,0,0,0,0,0,0,0,0,.01.01.02h0c.12.17.2.38.2.6,0,.55-.45,1-1,1Z"/></svg>