<svg xmlns="http://www.w3.org/2000/svg" viewBox="0 0 24 24" width="24" height="24"><path d="m19.58,1.18c-2.28-.91-4.9-.18-6.37,1.79l-.72.96c-.23.31-.75.31-.98,0l-.72-.96c-1.47-1.96-4.09-2.7-6.37-1.79-2.08.83-3.42,2.81-3.42,5.05,0,1.85.23,3.71.68,5.51l2.16,8.64c.39,1.55,1.78,2.63,3.37,2.63h.13c1.54,0,2.92-1.04,3.34-2.52l1.27-4.43c.07-.26.31-.43.58-.43s.5.18.58.43l1.27,4.43c.42,1.49,1.8,2.52,3.34,2.52,1.71,0,3.15-1.22,3.43-2.91l1.41-8.44c.3-1.79.45-3.62.45-5.43,0-2.24-1.34-4.22-3.42-5.05Z"/></svg>