<svg xmlns="http://www.w3.org/2000/svg" viewBox="0 0 24 24" width="24" height="24"><path d="m22.24,9.62c.44-.14.76-.51.76-.97v-2.84c0-1.14-.67-1.81-1.5-1.81H2.5c-.83,0-1.5.67-1.5,1.5v3.15c0,.46.32.83.76.97,1.01.32,1.74,1.27,1.74,2.38s-.73,2.06-1.74,2.38c-.44.14-.76.51-.76.97v2.84c0,1.14.67,1.81,1.5,1.81h19c.83,0,1.5-.67,1.5-1.5v-3.15c0-.46-.32-.83-.76-.97-1.01-.32-1.74-1.27-1.74-2.38s.73-2.06,1.74-2.38Zm-7.41,6.13l-2.82-1.88-2.82,1.88.94-3.06-2.12-2.12,2.72-.24,1.28-2.59,1.28,2.59,2.72.24-2.12,2.12.94,3.06Z"/></svg>