<svg xmlns="http://www.w3.org/2000/svg" viewBox="0 0 24 24" width="24" height="24"><path d="m15.78,18.29c.27-.44.3-1,.07-1.46l-1.92-3.83h.07c.54,0,1.04-.29,1.31-.77.26-.47.25-1.05-.03-1.52L9.78,1.72c-.27-.45-.76-.72-1.28-.72s-1.01.27-1.28.72L1.72,10.72c-.28.46-.29,1.04-.03,1.52.27.47.77.77,1.31.77h.07l-1.92,3.83c-.23.46-.21,1.02.07,1.46.27.44.76.71,1.28.71h4.5v4h3v-4h4.5c.52,0,1-.27,1.28-.71Z"/><path d="m20.93,13h.07c.54,0,1.04-.29,1.31-.77.26-.47.25-1.05-.03-1.52L16.78,1.72c-.27-.45-.76-.72-1.28-.72s-1.01.27-1.28.72l-1.63,2.67,3.55,5.81c.47.77.49,1.74.05,2.53-.2.36-.49.66-.83.88l1.39,2.78c.39.78.35,1.69-.11,2.43-.45.73-1.27,1.18-2.13,1.18h-.5v3h3v-4h4.5c.52,0,1-.27,1.28-.71.27-.44.3-1,.07-1.46l-1.92-3.83Z"/></svg>