<svg xmlns="http://www.w3.org/2000/svg" viewBox="0 0 24 24" width="24" height="24"><path d="m18.51,7c.46.6,1.17,1,1.99,1,1.38,0,2.5-1.12,2.5-2.5s-1.12-2.5-2.5-2.5c-.82,0-1.53.4-1.99,1h-2.51v-.5c0-.83-.67-1.5-1.5-1.5h-5c-.83,0-1.5.67-1.5,1.5v.5h-2.51c-.46-.6-1.17-1-1.99-1-1.38,0-2.5,1.12-2.5,2.5s1.12,2.5,2.5,2.5c.82,0,1.53-.4,1.99-1h2.51v.5c-.74.39-1.41.89-2.01,1.49-.78.78-1.39,1.69-1.82,2.7-.31.74-.51,1.51-.6,2.31h-1.06c-.83,0-1.5.67-1.5,1.5v5c0,.83.67,1.5,1.5,1.5h5c.83,0,1.5-.67,1.5-1.5v-5c0-.83-.67-1.5-1.5-1.5h-.9c.07-.39.18-.77.33-1.14.28-.66.67-1.24,1.18-1.75.47-.47,1.02-.84,1.62-1.11h4.53c.6.27,1.15.64,1.62,1.11.51.51.9,1.09,1.18,1.75.16.37.26.75.33,1.14h-.9c-.83,0-1.5.67-1.5,1.5v5c0,.83.67,1.5,1.5,1.5h5c.83,0,1.5-.67,1.5-1.5v-5c0-.83-.67-1.5-1.5-1.5h-1.06c-.09-.79-.29-1.57-.6-2.31-.43-1.01-1.04-1.92-1.82-2.7-.6-.6-1.27-1.1-2.01-1.49v-.5h2.51Zm-5.51,0h-2v-2h2v2Z"/></svg>