<svg xmlns="http://www.w3.org/2000/svg" viewBox="0 0 24 24" width="24" height="24"><path d="m20.5,2h-5c-.83,0-1.5.67-1.5,1.5v1h-4v-1c0-.83-.67-1.5-1.5-1.5H3.5c-.83,0-1.5.67-1.5,1.5v5c0,.83.67,1.5,1.5,1.5h1v4h-1c-.83,0-1.5.67-1.5,1.5v5c0,.83.67,1.5,1.5,1.5h5c.83,0,1.5-.67,1.5-1.5v-1h4v1c0,.83.67,1.5,1.5,1.5h5c.83,0,1.5-.67,1.5-1.5v-5c0-.83-.67-1.5-1.5-1.5h-1v-4h1c.83,0,1.5-.67,1.5-1.5V3.5c0-.83-.67-1.5-1.5-1.5Zm-6.5,13.5v1h-4v-1c0-.83-.67-1.5-1.5-1.5h-1v-4h1c.83,0,1.5-.67,1.5-1.5v-1h4v1c0,.83.67,1.5,1.5,1.5h1v4h-1c-.83,0-1.5.67-1.5,1.5Z"/></svg>