<svg xmlns="http://www.w3.org/2000/svg" width="24" height="24" viewBox="0 0 24 24"><path d="m22.46 4.35-2.92-.7L18.5 8h-4.18l-.88-2.93C13.25 4.44 12.67 4 12 4s-1.25.43-1.44 1.07L9.68 8H5.5L4.46 3.65l-2.92.7L2.42 8H1v3h2.14l.48 2H1v3h3.34l.92 3.85c.16.67.77 1.15 1.46 1.15h1.06a1.5 1.5 0 0 0 1.44-1.07L10.41 16h3.2l1.19 3.93c.19.63.77 1.07 1.44 1.07h1.06c.69 0 1.3-.48 1.46-1.15l.92-3.85h3.34v-3H20.4l.48-2h2.14V8H21.6l.88-3.65ZM6.22 11h2.55l-.6 2H6.7zm5.08 2 .6-2h.18l.6 2h-1.39Zm5.99 0h-1.47l-.6-2h2.55z"/></svg>