<svg xmlns="http://www.w3.org/2000/svg" viewBox="0 0 24 24" width="24" height="24"><path class="b" d="m19.75,4.55c-.72-.42-1.63-.17-2.05.55-.41.71-1.33.96-2.05.55l-5.2-3c-.72-.41-1.63-.17-2.05.55l-2.25,3.9L.89,16.21c-.2.34-.25.75-.15,1.14.1.38.35.71.7.91l3.9,2.25c.24.14.49.2.75.2.52,0,1.02-.27,1.3-.75l4.51-7.81h0c.35.2.59.52.7.91.1.39.05.79-.15,1.14-.2.34-.25.75-.15,1.14.1.38.35.71.7.91,1.06.62,2.21.93,3.34.93.59,0,1.18-.09,1.75-.26,1.59-.49,2.99-1.65,3.92-3.26.93-1.62,1.24-3.4.87-5.03-.39-1.69-1.5-3.13-3.12-4.07Zm-14.21,12.61l-1.3-.75,3.76-6.51,1.3.75-3.76,6.51Zm13.86-5.01c-.91,1.58-2.33,2.27-3.8,1.94.09-.6.05-1.21-.11-1.81-.31-1.16-1.06-2.13-2.1-2.73l-3.9-2.25.75-1.3,3.9,2.25c1.64.95,3.63.74,5.04-.36.38.41.64.88.76,1.41.21.89.02,1.88-.54,2.85Z"/></svg>