<svg xmlns="http://www.w3.org/2000/svg" viewBox="0 0 24 24" width="24" height="24"><path d="m20.5,1H3.5c-1.38,0-2.5,1.12-2.5,2.5v7c0,1.38,1.12,2.5,2.5,2.5h17c1.38,0,2.5-1.12,2.5-2.5V3.5c0-1.38-1.12-2.5-2.5-2.5Zm-.5,9H4v-6h16v6Z"/><path d="M6 8H18V9H6z"/><path d="m13.25,15h-1.5c0,.42-.12.58-.35.88-.27.37-.65.87-.65,1.78s.38,1.42.65,1.78c.23.3.35.47.35.88s-.12.58-.35.88c-.27.37-.65.87-.65,1.78h1.5c0-.42.12-.58.35-.88.27-.37.65-.87.65-1.78s-.38-1.42-.65-1.78c-.23-.3-.35-.47-.35-.88s.12-.58.35-.88c.27-.37.65-.87.65-1.78Z"/><path d="m17.75,15h-1.5c0,.42-.12.58-.35.88-.27.37-.65.87-.65,1.78s.38,1.42.65,1.78c.23.3.35.47.35.88s-.12.58-.35.88c-.27.37-.65.87-.65,1.78h1.5c0-.42.12-.58.35-.88.27-.37.65-.87.65-1.78s-.38-1.42-.65-1.78c-.23-.3-.35-.47-.35-.88s.12-.58.35-.88c.27-.37.65-.87.65-1.78Z"/><path d="m8.75,15h-1.5c0,.42-.12.58-.35.88-.27.37-.65.87-.65,1.78s.38,1.42.65,1.78c.23.3.35.47.35.88s-.12.58-.35.88c-.27.37-.65.87-.65,1.78h1.5c0-.42.12-.58.35-.88.27-.37.65-.87.65-1.78s-.38-1.42-.65-1.78c-.23-.3-.35-.47-.35-.88s.12-.58.35-.88c.27-.37.65-.87.65-1.78Z"/><path d="M17.5 5A.5.5 0 1 0 17.5 6 .5.5 0 1 0 17.5 5z"/></svg>