<svg xmlns="http://www.w3.org/2000/svg" viewBox="0 0 24 24" width="24" height="24"><path d="m12,1C6.49,1,2,5.46,2,10.94c0,5.18,5.7,12.06,10,12.06s10-6.87,10-12.06c0-5.48-4.49-9.94-10-9.94Zm0,19c-2.25,0-7-5.07-7-9.06s3.14-6.94,7-6.94,7,3.12,7,6.94-4.75,9.06-7,9.06Z"/><path d="m9.74,10.92c-1.02-.59-2.18-.48-2.6.23-.41.72.08,1.78,1.1,2.37,1.02.59,2.18.48,2.6-.23.41-.72-.08-1.78-1.1-2.37Z"/><path d="m14.26,10.92c-1.02.59-1.51,1.65-1.1,2.37.41.72,1.58.82,2.6.23,1.02-.59,1.51-1.65,1.1-2.37-.41-.72-1.58-.82-2.6-.23Z"/></svg>