<svg xmlns="http://www.w3.org/2000/svg" viewBox="0 0 24 24" width="24" height="24"><path d="m16.64,1.37c-.37-.32-.87-.44-1.35-.32-.47.12-.86.46-1.04.92l-.73,1.9c-.29.75-.93,1.34-1.7,1.56l-.47.14c-1.67.48-3.04,1.74-3.67,3.37-.29.75-.93,1.34-1.7,1.56l-.47.14c-1.67.48-3.05,1.74-3.67,3.37l-.73,1.9c-.23.59-.06,1.26.42,1.67l5.85,5.07c.28.24.63.37.98.37.12,0,.24-.01.36-.04.47-.12.86-.46,1.04-.92l.73-1.9c.29-.75.93-1.34,1.7-1.56l.47-.14c1.67-.48,3.04-1.74,3.67-3.37.29-.75.93-1.34,1.7-1.56l.47-.14c1.67-.48,3.05-1.74,3.67-3.37l.73-1.9c.23-.59.06-1.26-.42-1.67l-5.85-5.07ZM4.63,15.07c.29-.75.93-1.34,1.7-1.56l.47-.14c1.67-.48,3.04-1.74,3.67-3.37.29-.75.93-1.34,1.7-1.56l.47-.14c1.64-.47,2.99-1.69,3.63-3.27l1.12.97-.26.66c-.37.97-1.19,1.72-2.19,2.01l-.47.14c-1.45.42-2.64,1.51-3.18,2.92-.37.97-1.19,1.72-2.19,2.01l-.47.14c-1.45.42-2.64,1.51-3.18,2.92l-.06.16-1.11-.97.35-.92Zm14.74-6.14c-.29.75-.93,1.34-1.7,1.56l-.47.14c-1.67.48-3.04,1.74-3.67,3.37-.29.75-.93,1.34-1.7,1.56l-.47.14c-1.64.47-2.99,1.69-3.63,3.27l-1.12-.97.26-.66c.37-.97,1.19-1.72,2.19-2.01l.47-.14c1.45-.42,2.64-1.51,3.18-2.92.37-.97,1.19-1.72,2.19-2.01l.47-.14c1.45-.42,2.64-1.51,3.18-2.92l.06-.16,1.11.97-.35.92Z"/></svg>