<svg xmlns="http://www.w3.org/2000/svg" viewBox="0 0 24 24" width="24" height="24"><path d="m10.5,10.5v-1.5c-2.48,0-4.5,2.02-4.5,4.5h1.5c0-1.65,1.35-3,3-3Z"/><path d="m10.5,23c5.24,0,9.5-4.26,9.5-9.5,0-.82-.1-1.62-.31-2.4l.87-.87c.59-.59.59-1.54,0-2.12l-1.8-1.8.78-.78c.2-.2.9-.78,1.47-.78h1v-1.5h-1c-1.3,0-2.41,1.1-2.53,1.22l-.77.77-1.8-1.8c-.59-.59-1.54-.59-2.12,0l-.87.87c-.78-.2-1.59-.31-2.4-.31C5.26,4,1,8.26,1,13.5s4.26,9.5,9.5,9.5Zm0-16c.79,0,1.56.14,2.29.41.55.21,1.17.07,1.59-.34l.45-.45,2.55,2.55-.45.45c-.42.42-.55,1.04-.34,1.59.27.73.41,1.51.41,2.29,0,3.58-2.92,6.5-6.5,6.5s-6.5-2.92-6.5-6.5,2.92-6.5,6.5-6.5Z"/></svg>