<svg xmlns="http://www.w3.org/2000/svg" viewBox="0 0 24 24" width="24" height="24"><path d="m17.44,13.97c.13.04.26.05.39.05.66,0,1.27-.44,1.45-1.11,1.36-5.06-1.44-10.22-6.23-11.51C8.25.11,3.25,3.19,1.89,8.25c-.1.38-.05.79.15,1.14.2.34.53.6.91.7l5.8,1.55-2.85,10.63,2.9.78,2.85-10.63,5.8,1.55Zm-5.24-9.43c.47.13.86.75,1.05,1.67.19.94.17,2.07-.07,3.25l-4.3-1.15c.39-1.14.93-2.13,1.57-2.85.62-.7,1.27-1.05,1.75-.92Zm4.41,6.1l-2.04-.55c.34-1.49.4-2.96.15-4.18-.02-.09-.04-.16-.06-.25,1.3,1.23,2.04,3.04,1.95,4.97Zm-7.1-6.36c-.06.06-.12.12-.18.18-.83.93-1.5,2.24-1.96,3.7l-2.04-.55c.89-1.72,2.44-2.92,4.18-3.33Z"/><path d="M18.5 16A3.5 3.5 0 1 0 18.5 23 3.5 3.5 0 1 0 18.5 16z"/></svg>