<svg xmlns="http://www.w3.org/2000/svg" viewBox="0 0 24 24" width="24" height="24"><path d="M8 6A1 1 0 1 0 8 8 1 1 0 1 0 8 6z"/><path d="m21.5,8h-8.5v-2c0-2.76-2.24-5-5-5S3,3.24,3,6v.18c-1.16.41-2,1.51-2,2.82h2v2c0,3.69,2.02,6.91,5,8.65v3.35h3v-2.2c.65.13,1.32.2,2,.2v2h3v-2.46c4.05-1.28,7-5.07,7-9.54v-1.5c0-.83-.67-1.5-1.5-1.5Zm-1.5,3c0,1.8-.69,3.45-1.82,4.69-.53.19-1.09.31-1.68.31-2.76,0-5-2.24-5-5h8.5Zm-14,0v-5c0-1.1.9-2,2-2s2,.9,2,2v3.5c0,.27.08.53.21.75h-.21v.75c0,3.32,2.5,6.06,5.72,6.45-.84.35-1.76.55-2.72.55-3.86,0-7-3.14-7-7Z"/></svg>