<svg xmlns="http://www.w3.org/2000/svg" viewBox="0 0 24 24" width="24" height="24"><path d="m20.64,6.75c-.35-2.23-2.25-3.93-4.52-3.93-.36,0-.71.04-1.06.13-.83-.76-1.91-1.19-3.05-1.19s-2.22.43-3.05,1.19c-.35-.08-.7-.13-1.06-.13-2.28,0-4.17,1.71-4.52,3.93-1.29.84-2.11,2.31-2.11,3.92-.16.24-.25.52-.25.83,0,3.77,1.89,7.12,5,8.96v1.04c0,.83.67,1.5,1.5,1.5h9c.83,0,1.5-.67,1.5-1.5v-1.04c3.11-1.84,5-5.19,5-8.96,0-.31-.09-.59-.25-.83,0-1.62-.82-3.09-2.11-3.92Zm-15.32,2.36c.68-.24,1.1-.89.99-1.61,0-.93.71-1.69,1.58-1.69.12,0,.24.02.35.05.05.01.1.03.14.05.05.02.1.04.14.06.6.29,1.01.94,1.01,1.69h1.5c0-.7-.21-1.35-.57-1.89.07-.07.14-.15.19-.24.6-.96,2.06-.96,2.66,0,.43.68,1.32.9,2.02.5.23-.13.49-.2.76-.2.87,0,1.58.76,1.59,1.64-.11.72.3,1.41.98,1.65.42.15.73.48.91.89H4.41c.18-.41.49-.75.91-.89Zm10.55,9.1c-.53.25-.86.78-.86,1.36v.44h-6v-.44c0-.58-.34-1.11-.86-1.36-2.14-1.01-3.57-2.9-4-5.2h15.73c-.43,2.31-1.86,4.19-4,5.2Z"/></svg>