<svg xmlns="http://www.w3.org/2000/svg" viewBox="0 0 24 24" width="24" height="24"><path d="m22.26,6.83L12.76,1.21c-.47-.28-1.06-.28-1.53,0L1.74,6.83c-.46.27-.74.76-.74,1.29v3.38c0,.83.67,1.5,1.5,1.5h1.5v5h-1.5c-.83,0-1.5.67-1.5,1.5v2c0,.83.67,1.5,1.5,1.5h19c.83,0,1.5-.67,1.5-1.5v-2c0-.83-.67-1.5-1.5-1.5h-1.5v-5h1.5c.83,0,1.5-.67,1.5-1.5v-3.38c0-.53-.28-1.02-.74-1.29Zm-15.26,6.17h3.5v5h-3.5v-5Zm10,5h-3.5v-5h3.5v5Zm3-8H4v-1.02l8-4.74,8,4.74v1.02Z"/><path d="M12 6A1.5 1.5 0 1 0 12 9 1.5 1.5 0 1 0 12 6z"/></svg>