<svg xmlns="http://www.w3.org/2000/svg" viewBox="0 0 24 24" width="24" height="24"><path d="m17,6.44v-2.44c0-1.65-1.35-3-3-3h-4c-1.65,0-3,1.35-3,3v2.44c-2.91,1.03-5,3.8-5,7.06v7c0,1.38,1.12,2.5,2.5,2.5h15c1.38,0,2.5-1.12,2.5-2.5v-7c0-3.26-2.09-6.03-5-7.06Zm-7-2.44h4v2h-4v-2Zm5.5,12.25h-7v-2.5c0-.14.11-.25.25-.25h6.5c.14,0,.25.11.25.25v2.5Zm-7,1.5h7v2.25h-7v-2.25Zm10.5,2.25h-2v-6.25c0-.96-.79-1.75-1.75-1.75h-6.5c-.96,0-1.75.79-1.75,1.75v6.25h-2v-6.5c0-2.48,2.02-4.5,4.5-4.5h5c2.48,0,4.5,2.02,4.5,4.5v6.5Z"/></svg>