<svg xmlns="http://www.w3.org/2000/svg" viewBox="0 0 24 24" width="24" height="24"><path d="m2.5,11h19c.83,0,1.5-.67,1.5-1.5v-.25c0-4.55-4.93-8.25-11-8.25S1,4.7,1,9.25v.25c0,.83.67,1.5,1.5,1.5Zm9.5-7c3.68,0,6.88,1.73,7.76,4H4.24c.88-2.27,4.08-4,7.76-4Z"/><path d="M1 12.25H23V13.75H1z"/><path d="m5.5,23h13c2.48,0,4.5-2.02,4.5-4.5v-2c0-.83-.67-1.5-1.5-1.5h-8.5c-.43,0-.84.19-1.13.51l-2.37,2.71-2.37-2.71c-.28-.33-.7-.51-1.13-.51h-3.5c-.83,0-1.5.67-1.5,1.5v2c0,2.48,2.02,4.5,4.5,4.5Zm8.18-5h6.32v.5c0,.83-.67,1.5-1.5,1.5h-6.57l1.75-2Zm-9.68,0h1.32l1.75,2h-1.57c-.83,0-1.5-.67-1.5-1.5v-.5Z"/><path d="M14 5A1 1 0 1 0 14 7 1 1 0 1 0 14 5z"/><path d="M11.5 6A.5.5 0 1 0 11.5 7 .5.5 0 1 0 11.5 6z"/><path d="M16.5 6A.5.5 0 1 0 16.5 7 .5.5 0 1 0 16.5 6z"/></svg>