<svg xmlns="http://www.w3.org/2000/svg" width="24" height="24" viewBox="0 0 24 24"><path d="M12 23c1.31 0 2.41-.83 2.82-2H9.18c.41 1.17 1.51 2 2.82 2M20.5 19c.83 0 1.5-.67 1.5-1.5v-2c0-.34-.12-.67-.33-.94L20 12.47V10c0-3.78-2.63-6.94-6.16-7.78C13.54 1.5 12.83 1 12 1s-1.55.51-1.85 1.23c-1.69.4-3.16 1.34-4.24 2.62L1.53.47.47 1.53l22 22 1.06-1.06L20.06 19zM12 5c2.76 0 5 2.24 5 5v3c0 .34.12.67.33.94L18.98 16h-1.92L8.04 6.98C8.95 5.78 10.38 5 12 5M5.02 16l1.65-2.06c.21-.27.33-.6.33-.94v-2.11L4.23 8.12C4.08 8.72 4 9.35 4 10v2.47l-1.67 2.09c-.21.27-.33.6-.33.94v2c0 .83.67 1.5 1.5 1.5h11.61l-3-3z"/></svg>