<svg xmlns="http://www.w3.org/2000/svg" viewBox="0 0 24 24" width="24" height="24"><path class="b" d="m21.5,10H7.87L4.41.49,1.59,1.51l3.09,8.49h-2.18c-.83,0-1.5.67-1.5,1.5,0,3.77,1.89,7.12,5,8.96v1.04c0,.83.67,1.5,1.5,1.5h9c.83,0,1.5-.67,1.5-1.5v-1.04c3.11-1.84,5-5.19,5-8.96,0-.83-.67-1.5-1.5-1.5Zm-5.64,8.2c-.53.25-.86.78-.86,1.36v.44h-6v-.44c0-.58-.34-1.11-.86-1.36-2.14-1.01-3.57-2.9-4-5.2h15.73c-.43,2.31-1.86,4.19-4,5.2Z"/><path class="b" d="M21 6A1 1 0 1 0 21 8 1 1 0 1 0 21 6z"/><path class="b" d="M10 1A1 1 0 1 0 10 3 1 1 0 1 0 10 1z"/><path class="b" d="M17.5 1A1.5 1.5 0 1 0 17.5 4 1.5 1.5 0 1 0 17.5 1z"/><path class="b" d="M13 4A2 2 0 1 0 13 8 2 2 0 1 0 13 4z"/></svg>