<svg xmlns="http://www.w3.org/2000/svg" viewBox="0 0 24 24" width="24" height="24"><path d="M7.5 14A1.5 1.5 0 1 0 7.5 17 1.5 1.5 0 1 0 7.5 14z"/><path d="M16.5 14A1.5 1.5 0 1 0 16.5 17 1.5 1.5 0 1 0 16.5 14z"/><path d="m22.5,8h-.5v-2.5c0-2.48-2.02-4.5-4.5-4.5H6.5c-2.48,0-4.5,2.02-4.5,4.5v2.5h-.5c-.28,0-.5.22-.5.5v3c0,.28.22.5.5.5h.5v6.5c0,.81.4,1.53,1,1.99v2.01c0,.28.22.5.5.5h3c.28,0,.5-.22.5-.5v-1.5h10v1.5c0,.28.22.5.5.5h3c.28,0,.5-.22.5-.5v-2.01c.6-.46,1-1.17,1-1.99v-6.5h.5c.28,0,.5-.22.5-.5v-3c0-.28-.22-.5-.5-.5Zm-3.5,3.5h-6.25v-4h6.25v4Zm-7.75,0h-6.25v-4h6.25v4Zm-6.25,1.5h14v5H5v-5Zm1.5-9h11c.83,0,1.5.67,1.5,1.5v.5H5v-.5c0-.83.67-1.5,1.5-1.5Z"/></svg>