<svg xmlns="http://www.w3.org/2000/svg" viewBox="0 0 24 24" width="24" height="24"><path d="m19.5,1h-11c-.67,0-1.3.26-1.77.73-.47.47-.73,1.1-.73,1.77v6.38L1.44,14.44c-.43.43-.56,1.07-.33,1.63.17.4.49.7.89.84v4.59c0,.83.67,1.5,1.5,1.5h17c.83,0,1.5-.67,1.5-1.5V3.5c0-.67-.26-1.3-.73-1.77-.47-.47-1.1-.73-1.77-.73Zm-9.5,19h-5v-4.88l2.5-2.5,2.5,2.5v4.88Zm9,0h-6v-3.09c.39-.14.72-.44.89-.84.23-.56.1-1.21-.33-1.63l-4.56-4.56v-5.88h10v16Z"/><path d="M11 6H13V8H11z"/><path d="M15 6H17V8H15z"/><path d="M15 10.03H17V12H15z"/><path d="M6.5 15H8.5V17H6.5z"/></svg>