<svg xmlns="http://www.w3.org/2000/svg" viewBox="0 0 24 24" width="24" height="24"><path d="m20.76,4.69c-.02-.08-.04-.16-.07-.23-.61-1.5-2.06-2.46-3.69-2.46-1.44,0-2.74.79-3.44,2h-3.12c-.7-1.21-2-2-3.44-2-1.63,0-3.07.97-3.69,2.46-.03.07-.06.15-.07.23L1.16,13.67s0,.04,0,.05c-.1.39-.15.81-.15,1.27,0,3.31,2.69,6,6,6,2.09,0,3.92-1.07,5-2.69,1.08,1.62,2.91,2.69,5,2.69,3.31,0,6-2.69,6-6,0-.53-.08-1.04-.21-1.53l-2.03-8.78Zm-6.18,2.31c.71,0,1.33-.5,1.47-1.2.09-.46.49-.8.95-.8.37,0,.71.2.87.51l.87,3.74s-.08-.02-.12-.03c-.2-.06-.41-.1-.62-.14-.07-.01-.14-.02-.21-.03-.26-.03-.52-.06-.79-.06-.2,0-.41.01-.61.03-.04,0-.09.01-.13.02-.16.02-.31.04-.47.07-.03,0-.07.02-.1.03-.16.04-.32.07-.48.12-.02,0-.05.02-.07.02-.16.05-.32.11-.48.18-.03.01-.05.02-.08.04-.15.07-.3.14-.44.21-.06.03-.11.07-.17.1-.11.06-.21.12-.32.19-.32.21-.62.46-.89.73h-.03v-3.74h1.83Zm-8.45-1.49c.17-.32.5-.51.87-.51.46,0,.86.33.95.8.14.7.76,1.2,1.47,1.2h1.83v3.74h-.04c-.14-.14-.29-.27-.44-.4-.02-.01-.03-.02-.05-.04-.15-.12-.3-.23-.46-.34-.06-.04-.12-.07-.18-.11-.12-.07-.24-.14-.37-.21-.07-.04-.15-.07-.22-.1-.12-.05-.24-.11-.36-.15-.08-.03-.16-.06-.23-.08-.13-.04-.25-.08-.38-.11-.08-.02-.16-.04-.23-.06-.14-.03-.28-.05-.43-.07-.07,0-.14-.02-.21-.03-.21-.02-.43-.04-.65-.04-.33,0-.64.03-.96.08-.1.02-.19.04-.29.07-.16.03-.33.06-.49.11l.87-3.74Zm.87,12.49c-1.65,0-3-1.35-3-3,0-.24.02-.43.08-.63,0-.02.03-.09.03-.11.33-1.33,1.52-2.26,2.89-2.26.93,0,1.78.42,2.37,1.18.25.32.43.69.54,1.11l.09.79c-.04,1.62-1.37,2.92-3,2.92Zm10,0c-1.65,0-3-1.35-3-3,0-.71.26-1.35.67-1.86.12-.15.26-.29.4-.41.04-.03.08-.07.12-.1.12-.1.25-.18.39-.25.06-.03.11-.07.17-.09.14-.06.28-.11.42-.15.06-.02.12-.04.18-.06.21-.05.42-.07.64-.07.19,0,.38.02.56.06.05.01.1.03.16.04.13.03.26.07.38.12.05.02.1.04.15.07.12.06.23.12.35.19.04.03.09.05.13.08.11.08.22.17.32.26.03.03.07.06.1.09.1.1.18.21.26.32.22.3.39.65.49,1.03l.03.11s.01.03.02.04c.04.19.06.39.06.59,0,1.65-1.35,3-3,3Z"/></svg>