<svg xmlns="http://www.w3.org/2000/svg" viewBox="0 0 24 24" width="24" height="24"><path d="m1,21.5c0,.83.67,1.5,1.5,1.5h9c.18,0,.34-.04.5-.09v.09h8.5c.83,0,1.5-.67,1.5-1.5V3.5c0-.67-.26-1.3-.73-1.77-.47-.47-1.1-.73-1.77-.73h-11c-.67,0-1.3.26-1.77.73-.47.47-.73,1.1-.73,1.77v5.5h-2.5c-1.38,0-2.5,1.12-2.5,2.5v10ZM9,4h10v16h-6v-8.5c0-1.38-1.12-2.5-2.5-2.5h-1.5v-5Zm-5,8h6v8h-6v-8Z"/><path d="M11 6H13V8H11z"/><path d="M15 6H17V8H15z"/><path d="M15 10.03H17V12H15z"/><path d="M6 14H8V16H6z"/><path d="M15 14H17V16H15z"/></svg>