<svg xmlns="http://www.w3.org/2000/svg" width="24" height="24" viewBox="0 0 24 24"><path d="M19.78 4.22c-.22-.7-.61-1.33-1.13-1.85-1.82-1.82-4.78-1.82-6.59 0-.88.88-1.37 2.05-1.37 3.3 0 .73.17 1.43.48 2.06l-3.45 3.45a4.67 4.67 0 0 0-5.36.89c-.88.88-1.37 2.05-1.37 3.3s.49 2.42 1.37 3.3c.52.52 1.16.9 1.85 1.13a4.639 4.639 0 0 0 4.43 3.21c1.2 0 2.39-.45 3.3-1.36a4.66 4.66 0 0 0 .88-5.36l3.45-3.45c1.74.86 3.91.56 5.36-.89 1.82-1.82 1.82-4.78 0-6.59a4.6 4.6 0 0 0-1.85-1.13Zm-.27 5.6c-.65.65-1.7.65-2.35 0L16.1 8.76 8.76 16.1l1.06 1.06c.65.65.65 1.7 0 2.35s-1.7.65-2.35 0c-.36-.36-.46-.79-.47-1.09l-.07-1.35L5.58 17c-.3-.02-.73-.11-1.09-.47-.31-.31-.49-.73-.49-1.18s.17-.86.49-1.18.75-.49 1.18-.49.85.16 1.18.49l1.06 1.06 7.34-7.34-1.06-1.06c-.31-.31-.49-.73-.49-1.18s.17-.86.49-1.18c.65-.65 1.7-.65 2.35 0 .36.36.46.79.47 1.09l.07 1.34 1.34.07c.3.02.73.11 1.09.47.65.65.65 1.7 0 2.35Z"/></svg>