<svg xmlns="http://www.w3.org/2000/svg" width="24" height="24" viewBox="0 0 24 24"><path d="M19.5 4h-6V1h-3v3h-6C2.57 4 1 5.57 1 7.5v13c0 .83.67 1.5 1.5 1.5h19c.83 0 1.5-.67 1.5-1.5v-13C23 5.57 21.43 4 19.5 4m-15 3h15c.28 0 .5.22.5.5v3.88c-.8.22-1.31.67-1.75 1.06-.53.47-.91.81-1.75.81s-1.22-.34-1.75-.81c-.6-.53-1.34-1.19-2.75-1.19s-2.15.66-2.75 1.19c-.53.47-.91.81-1.75.81s-1.22-.34-1.75-.81c-.44-.39-.95-.84-1.75-1.06V7.5c0-.28.22-.5.5-.5M4 19v-6.02c.26.14.49.34.75.58.6.53 1.34 1.19 2.75 1.19s2.15-.66 2.75-1.19c.53-.47.91-.81 1.75-.81s1.22.34 1.75.81c.6.53 1.34 1.19 2.75 1.19s2.15-.66 2.75-1.19c.26-.23.49-.43.75-.58V19z"/></svg>