<svg xmlns="http://www.w3.org/2000/svg" viewBox="0 0 24 24" width="24" height="24"><path d="m22,15.51v-2.51c0-4.49-2.97-8.3-7.06-9.56-.26-1.39-1.48-2.44-2.94-2.44s-2.68,1.05-2.94,2.44c-4.08,1.26-7.06,5.07-7.06,9.56v2.51c-.6.46-1,1.17-1,1.99v3c0,1.38,1.12,2.5,2.5,2.5h17c1.38,0,2.5-1.12,2.5-2.5v-3c0-.81-.4-1.53-1-1.99ZM5.23,11.25l3.27,1.87,3.5-2,3.5,2,3.27-1.87c.15.56.23,1.15.23,1.75v2H5v-2c0-.61.09-1.19.23-1.75Zm4.84-4.97c.52.44,1.19.72,1.93.72s1.41-.28,1.93-.72c1.88.54,3.43,1.84,4.3,3.55l-2.73,1.56-3.5-2-3.5,2-2.73-1.56c.87-1.71,2.43-3.01,4.3-3.55Zm9.93,13.72H4v-2h16v2Z"/></svg>