<svg xmlns="http://www.w3.org/2000/svg" viewBox="0 0 24 24" width="24" height="24"><path d="m12,3C6.14,3,1,7.71,1,13.07c0,4.45,4.83,7.93,11,7.93s11-3.48,11-7.93c0-5.37-5.14-10.07-11-10.07Zm0,15c-4.34,0-8-2.26-8-4.93,0-2.27,1.59-4.73,4.05-6.07-.44,1.1-.8,2.67-.8,4.99h1.5c0-3.42.82-4.91,1.42-5.79.59-.13,1.2-.21,1.83-.21.31,0,.61.02.91.05-.85,1.01-1.66,2.79-1.66,5.95h1.5c0-3.8,1.23-5.11,1.92-5.55.74.25,1.42.6,2.03,1.02-.69.69-1.45,2.01-1.45,4.53h1.5c0-2.29.68-3.21,1.11-3.57,1.34,1.33,2.14,3.03,2.14,4.64,0,2.67-3.66,4.93-8,4.93Z"/></svg>