<svg xmlns="http://www.w3.org/2000/svg" width="24" height="24" viewBox="0 0 24 24"><path d="M21.5 2H15c-1.16 0-2.2.45-3 1.17A4.46 4.46 0 0 0 9 2H2.5C1.67 2 1 2.67 1 3.5v16c0 .83.67 1.5 1.5 1.5h6.26c.4 0 .78.16 1.06.44l1.12 1.12s.05.04.07.06c.03.02.05.04.08.06.1.08.21.15.33.2q.105.045.21.06c.12.03.24.05.36.05s.24-.02.36-.05l.21-.06c.12-.05.23-.12.33-.2.03-.02.05-.04.08-.06.02-.02.05-.04.07-.06l1.12-1.12c.28-.28.66-.44 1.06-.44h6.26c.83 0 1.5-.67 1.5-1.5v-16c0-.83-.67-1.5-1.5-1.5ZM8.76 18H4V5h5c.83 0 1.5.67 1.5 1.5v11.85c-.54-.23-1.13-.35-1.74-.35M20 18h-4.76c-.61 0-1.2.12-1.74.35V6.5c0-.83.67-1.5 1.5-1.5h5z"/></svg>