<svg xmlns="http://www.w3.org/2000/svg" width="24" height="24" viewBox="0 0 24 24"><path d="M19.69 15c.21-.81.31-1.65.31-2.5 0-3.03-1.36-5.81-3.52-7.46A4.503 4.503 0 0 0 12 1c-1.02 0-2.03.35-2.9 1-.42.31-.77.73-1.01 1.2-.31.6-.5 1.22-.56 1.84C5.34 6.7 4.01 9.48 4.01 12.5c0 .85.11 1.7.31 2.5-1.84.1-3.31 1.63-3.31 3.5v1c0 1.93 1.57 3.5 3.5 3.5h15c1.93 0 3.5-1.57 3.5-3.5v-1c0-1.87-1.47-3.4-3.31-3.5ZM4 18.5c0-.28.22-.5.5-.5h3.98c.2 0 .39-.12.46-.31s.03-.4-.11-.55C7.67 15.99 7 14.29 7 12.5c0-2.57 1.36-4.85 3.39-5.68a.505.505 0 0 0 .26-.69c-.14-.27-.18-.58-.13-.9.09-.53.48-1 .99-1.16.48-.15.98-.07 1.37.21s.62.74.62 1.21c0 .23-.05.44-.15.64a.505.505 0 0 0 .26.69c.5.2.95.5 1.36.86-1.04.63-2.72 2.15-2.72 5.32h1.5c0-2.71 1.54-3.81 2.2-4.16.66 1.03 1.05 2.3 1.05 3.66 0 1.8-.67 3.49-1.83 4.64-.14.14-.19.36-.11.55s.26.31.46.31h3.98c.28 0 .5.22.5.5v1c0 .28-.22.5-.5.5h-15c-.28 0-.5-.22-.5-.5zM16.6 17s.01-.02.02-.03c0 0 0 .02.01.03zm-9.2 0h-.03s0-.02.01-.03c0 0 .01.02.02.03"/></svg>