<svg xmlns="http://www.w3.org/2000/svg" viewBox="0 0 24 24" width="24" height="24"><path d="m22.24,8.16l-1.27-.73h0s-.52-.3-.52-.3v-2.07c0-.83-.67-1.5-1.5-1.5h-2.06l-1.04-1.79c-.2-.34-.53-.6-.91-.7-.38-.1-.79-.05-1.14.15l-1.27.73h0s-.52.3-.52.3l-.52-.3h0s-1.27-.73-1.27-.73c-.72-.42-1.64-.17-2.05.55l-.73,1.27h0s-.3.52-.3.52h-2.06c-.83,0-1.5.67-1.5,1.5v2.07l-.52.3h0s-1.27.74-1.27.74c-.34.2-.6.53-.7.91-.1.38-.05.79.15,1.14l.74,1.27h0s.3.52.3.52l-.3.52h0s-.74,1.27-.74,1.27c-.2.34-.25.75-.15,1.14.1.38.35.71.7.91l1.27.73h0s.52.3.52.3v2.07c0,.83.67,1.5,1.5,1.5h2.06l.3.52h0s.73,1.27.73,1.27c.2.34.53.6.91.7.38.1.79.05,1.14-.15l1.27-.74h0s.52-.3.52-.3l.52.3h0s1.27.74,1.27.74c.23.13.49.2.75.2.13,0,.26-.02.39-.05.38-.1.71-.35.91-.7l1.04-1.79h2.06c.83,0,1.5-.67,1.5-1.5v-2.07l.52-.3h0s1.27-.74,1.27-.74c.72-.42.96-1.33.55-2.05l-.74-1.27h0s-.3-.52-.3-.52l.3-.52h0s.74-1.27.74-1.27c.41-.72.17-1.63-.55-2.05Zm-6.23,9.29h-.87l-.55.95-.6,1.04-1.25-.72s0,0,0,0l-.75-.43-.75.43s0,0,0,0l-1.24.72-.51-.88-.21-.36s0,0,0,0l-.43-.75h-2.3v-2.3l-.75-.43s0,0,0,0l-1.24-.72.72-1.24s0,0,0,0l.43-.75-.43-.75s0,0,0,0l-.72-1.24,1.24-.72s0,0,0,0l.75-.43v-2.3h2.3l.43-.75s0,0,0,0l.18-.31.54-.93.63.36.61.36s0,0,0,0l.75.43.75-.43s0,0,0,0l.36-.21.89-.51.56.97.59,1.02h2.3v2.3l.75.43s0,0,0,0l.99.57.25.15-.72,1.24s0,0,0,0l-.43.75.43.75s0,0,0,0l.72,1.24-.25.15-.99.57s0,0,0,0l-.75.43v2.3h-1.43Z"/></svg>