<svg xmlns="http://www.w3.org/2000/svg" viewBox="0 0 24 24" width="24" height="24"><path d="m20.11,7.25c-.57-3.54-3.48-6.25-6.99-6.25-2.28,0-4.36,1.14-5.68,3.05-.25-.04-.5-.05-.74-.05-3.14,0-5.69,2.69-5.69,6s2.55,6,5.69,6h12.01c2.37,0,4.29-2.02,4.29-4.5,0-1.97-1.21-3.64-2.89-4.25Zm-1.4,5.75H6.69c-1.48,0-2.69-1.35-2.69-3s1.21-3,2.69-3c.29,0,.59.06.9.19l1.31.53.6-1.28c.71-1.5,2.09-2.44,3.61-2.44,2.25,0,4.09,2.02,4.09,4.5v1.5h1.5c.71,0,1.29.67,1.29,1.5s-.58,1.5-1.29,1.5Z"/><path d="M9.37 17 6.22 23 7.92 23 11.06 17 9.37 17z"/><path d="M15.65 23 17.35 23 20.49 17 18.8 17 15.65 23z"/><path d="M4.65 17 3.08 20 4.78 20 6.35 17 4.65 17z"/><path d="M1.51 23 3.2 23 4.25 21 2.56 21 1.51 23z"/><path d="M14.08 17 12.51 20 14.2 20 15.78 17 14.08 17z"/><path d="M10.94 23 12.63 23 13.68 21 11.99 21 10.94 23z"/></svg>