<svg xmlns="http://www.w3.org/2000/svg" viewBox="0 0 24 24" width="24" height="24"><path d="m12,13.94c3.31,0,6-2.68,6-5.98,0-1.19-.32-2.33-.96-3.37-.25-.4-.66-.66-1.13-.71-.47-.05-.93.13-1.25.48-.26.28-.6.43-.96.43-.73,0-1.32-.59-1.32-1.31,0-.08.01-.18.03-.28.13-.58-.1-1.18-.58-1.53-.48-.35-1.12-.39-1.63-.09-2.71,1.55-4.2,3.82-4.2,6.39,0,3.3,2.69,5.98,6,5.98Zm-2.07-8.36c.74,1.31,2.15,2.2,3.76,2.2.44,0,.88-.07,1.29-.2.01.12.02.25.02.38,0,1.65-1.35,2.98-3,2.98s-3-1.34-3-2.98c0-.95.39-1.74.93-2.37Z"/><path d="M20.39 12.63 12 16.36 3.61 12.63 2.39 15.37 8.31 18 2.39 20.63 3.61 23.37 12 19.64 20.39 23.37 21.61 20.63 15.69 18 21.61 15.37 20.39 12.63z"/></svg>