<svg xmlns="http://www.w3.org/2000/svg" viewBox="0 0 24 24" width="24" height="24"><path d="m19.5,2H4.5c-1.38,0-2.5,1.12-2.5,2.5v15c0,1.38,1.12,2.5,2.5,2.5h15c1.38,0,2.5-1.12,2.5-2.5V4.5c0-1.38-1.12-2.5-2.5-2.5Zm-.5,13.5h-7.54l-1.05-2.09c.36-.36.58-.86.58-1.41,0-1.1-.9-2-2-2s-2,.9-2,2,.9,2,2,2c.01,0,.02,0,.03,0l1.29,2.59c.13.25.39.41.67.41h8v2H5v-10.5h7.54l1.05,2.09c-.36.36-.58.86-.58,1.41,0,1.1.9,2,2,2s2-.9,2-2-.9-2-2-2c-.01,0-.02,0-.03,0l-1.29-2.59c-.13-.25-.39-.41-.67-.41H5v-2h14v10.5Z"/></svg>