<svg xmlns="http://www.w3.org/2000/svg" viewBox="0 0 24 24" width="24" height="24"><path d="m9.15,22.62c.95.25,1.91.38,2.86.38,1.91,0,3.79-.5,5.48-1.48,2.54-1.47,4.36-3.84,5.12-6.68.76-2.84.37-5.8-1.1-8.35-1.47-2.54-3.84-4.36-6.68-5.12-2.84-.76-5.8-.37-8.35,1.1S2.14,6.31,1.38,9.15c-.76,2.84-.37,5.8,1.1,8.35,1.47,2.54,3.84,4.36,6.68,5.12Zm-4.88-12.7c.55-2.06,1.88-3.79,3.73-4.86,1.23-.71,2.6-1.08,3.99-1.08.69,0,1.39.09,2.08.28,2.06.55,3.79,1.88,4.86,3.73s1.35,4.01.8,6.07c-.55,2.06-1.88,3.79-3.73,4.86h0c-1.85,1.07-4.01,1.35-6.07.8-2.06-.55-3.79-1.88-4.86-3.73s-1.35-4.01-.8-6.07Z"/><path d="m11.62,12.65c.12.07.25.1.38.1s.26-.03.38-.1l5.2-3-.75-1.3-4.07,2.35v-4.7h-1.5v6c0,.27.14.52.38.65Z"/></svg>