<svg xmlns="http://www.w3.org/2000/svg" width="24" height="24" viewBox="0 0 24 24"><path d="M20.81 15.25c.6-2.65.9-6.42-1.05-9.36-1.63-2.46-4.37-3.76-8.15-3.89l-1.49-.75a2.516 2.516 0 0 0-3.18.82l-5.5 8.01a2.5 2.5 0 0 0 .29 3.18l1.85 1.85a3.51 3.51 0 0 0-2.59 3.38v1c0 1.93 1.57 3.5 3.5 3.5h15c1.93 0 3.5-1.57 3.5-3.5v-1c0-1.47-.91-2.73-2.19-3.25ZM4 18.5c0-.28.22-.5.5-.5h2c.16 0 .31-.07.4-.2l4.5-6c.11-.15.13-.35.05-.52A.5.5 0 0 0 11 11H8a.5.5 0 0 0-.31.11l-2.15 1.72-1.39-1.39 5.02-7.3 1.61.81c.07.03.15.05.22.05 3.03 0 5.14.86 6.26 2.55 2.35 3.55-.19 9.69-.22 9.75a.493.493 0 0 0 .46.69h2c.28 0 .5.22.5.5v1c0 .28-.22.5-.5.5h-15c-.28 0-.5-.22-.5-.5v-1Z"/><path d="M9.5 7c-.55 0-1 .45-1 1s.45 1 1 1 1-.45 1-1-.45-1-1-1m0 1h.5z"/></svg>