<svg xmlns="http://www.w3.org/2000/svg" viewBox="0 0 24 24" width="24" height="24"><path d="m18.74,5.26c-.21-2.38-2.19-4.26-4.63-4.26-.74,0-1.46.18-2.11.51-.65-.33-1.37-.51-2.11-.51-2.44,0-4.42,1.88-4.63,4.26-2.38.21-4.26,2.19-4.26,4.63,0,.74.18,1.46.51,2.11-.33.65-.51,1.37-.51,2.11,0,2.44,1.88,4.42,4.26,4.63.21,2.38,2.19,4.26,4.63,4.26.74,0,1.46-.18,2.11-.51.65.33,1.37.51,2.11.51,2.44,0,4.42-1.88,4.63-4.26,2.38-.21,4.26-2.19,4.26-4.63,0-.74-.18-1.46-.51-2.11.33-.65.51-1.37.51-2.11,0-2.44-1.88-4.42-4.26-4.63Zm-8.85-1.26c.52,0,.89.24,1.11.44l1,.9,1-.9c.22-.2.59-.44,1.11-.44.92,0,1.67.75,1.67,1.67,0,.18-.03.36-.1.54l-3.67,3.68-3.67-3.68c-.07-.18-.1-.36-.1-.54,0-.92.75-1.67,1.67-1.67Zm-5.89,10.11c0-.52.24-.89.44-1.11l.9-1-.9-1c-.2-.22-.44-.59-.44-1.11,0-.92.75-1.67,1.67-1.67.18,0,.36.03.54.1l3.68,3.67-3.68,3.67c-1.11.42-2.2-.47-2.2-1.56Zm10.11,5.89c-.52,0-.89-.24-1.11-.44l-1-.9-1,.9c-.22.2-.59.44-1.11.44-.92,0-1.67-.75-1.67-1.67,0-.18.03-.36.1-.54l3.67-3.68,3.67,3.68c.07.18.1.36.1.54,0,.92-.75,1.67-1.67,1.67Zm5.45-7c.2.22.44.59.44,1.11,0,1.1-1.09,1.99-2.2,1.56l-3.68-3.67,3.68-3.67c1.12-.42,2.2.47,2.2,1.56,0,.52-.24.89-.44,1.11l-.9,1,.9,1Z"/></svg>