<svg xmlns="http://www.w3.org/2000/svg" viewBox="0 0 24 24" width="24" height="24"><path d="m22.33,10.75l-1.33-.89c-.15-.1-.25-.24-.29-.44-.04-.2-.01-.39.09-.55l.89-1.33c.31-.46.34-1.05.07-1.54-.26-.49-.77-.79-1.32-.79h-2.18c-.15,0-.24-.04-.3-.08-.12-.1-.2-.2-.24-.28l-1.17-2.92c-.16-.41-.5-.72-.91-.86-.42-.14-.87-.09-1.25.14l-2.66,1.6c-.36.22-.72.35-1.08.4-.93.12-1.88-.14-2.61-.73l-1.44-1.15c-.45-.36-1.07-.43-1.59-.18s-.85.78-.85,1.35v4.73s-.09.1-.09.1h-1.58c-.61,0-1.15.37-1.39.93-.23.56-.1,1.21.33,1.63l1.5,1.5c.13.13.21.27.23.4.04.33-.07.66-.31.9l-1.41,1.41c-.43.43-.56,1.07-.33,1.63.23.56.78.93,1.39.93h3.26c.11,0,.21.03.29.1.14.11.23.27.23.42v4.32c0,.61.37,1.15.93,1.39.19.08.38.11.57.11.39,0,.77-.15,1.06-.44l2.92-2.92c.53-.53,1.21-.88,1.98-1.02.87-.15,1.79-.02,2.59.38l1.34.67c.51.26,1.13.2,1.58-.15.46-.35.67-.92.56-1.49l-.47-2.35c-.03-.15,0-.31.1-.44,0,0,0-.01,0-.01.07-.1.12-.14.15-.16l2.74-1.83c.42-.28.67-.75.67-1.25s-.25-.97-.67-1.25Zm-4.41,1.83c-.33.22-.63.51-.9.88,0,0,0,0,0,.01h0c-.5.68-.74,1.51-.68,2.35-1.01-.27-2.09-.33-3.14-.14-1.35.24-2.58.88-3.55,1.85l-.35.35v-.7c0-1.07-.49-2.08-1.36-2.77-.59-.47-1.35-.74-2.13-.74.33-.69.45-1.47.36-2.26-.06-.52-.25-1.02-.54-1.48.45-.26.84-.63,1.11-1.09.3-.5.46-1.05.46-1.6v-1.77c1.18.63,2.55.88,3.9.7.75-.1,1.49-.36,2.21-.8l1.15-.69.51,1.28c.23.58.62,1.08,1.16,1.52.49.39,1.1.64,1.75.71-.18.6-.2,1.24-.06,1.89.16.73.53,1.38,1.06,1.88l-.92.61Z"/></svg>