<svg xmlns="http://www.w3.org/2000/svg" viewBox="0 0 24 24" width="24" height="24"><path d="m21.5,14h-1c0-1.15-.23-2.26-.67-3.31-.43-1.01-1.04-1.92-1.82-2.7-.32-.32-.66-.6-1.02-.86,0-.04.01-.08.01-.13,0-2.76-2.24-5-5-5s-5,2.24-5,5c0,.04.01.08.01.13-.36.26-.7.54-1.02.86-.78.78-1.39,1.69-1.82,2.7-.44,1.05-.67,2.16-.67,3.31h-1c-.83,0-1.5.67-1.5,1.5v5c0,.83.67,1.5,1.5,1.5h5c.83,0,1.5-.67,1.5-1.5v-5c0-.83-.67-1.5-1.5-1.5h-1c0-.74.15-1.46.43-2.14.28-.65.67-1.24,1.18-1.75,0,0,0,0,0,0,.92,1.14,2.31,1.89,3.89,1.89s2.97-.75,3.89-1.89c0,0,0,0,0,0,.51.51.9,1.09,1.18,1.75.29.68.43,1.4.43,2.14h-1c-.83,0-1.5.67-1.5,1.5v5c0,.83.67,1.5,1.5,1.5h5c.83,0,1.5-.67,1.5-1.5v-5c0-.83-.67-1.5-1.5-1.5Zm-15.5,5h-2v-2h2v2Zm6-10c-1.1,0-2-.9-2-2s.9-2,2-2,2,.9,2,2-.9,2-2,2Zm8,10h-2v-2h2v2Z"/></svg>