<svg version="1.1" xmlns="http://www.w3.org/2000/svg" xmlns:xlink="http://www.w3.org/1999/xlink" x="0px" y="0px" viewBox="0 0 24 24" xml:space="preserve" width="24" height="24"><path d="M12,1C5.9,1,1,5.9,1,12s4.9,11,11,11s11-4.9,11-11S18.1,1,12,1 M4.9,15.6l0.8-0.8l-0.5-0.5l-0.6,0.6C4.2,14,4,13,4,12
	c0-4.4,3.6-8,8-8c1,0,2,0.2,2.9,0.6l-0.6,0.6l0.5,0.5l0.8-0.8c0.5,0.3,1,0.6,1.5,0.9L5.8,17.1C5.5,16.6,5.2,16.2,4.9,15.6 M12,20
	c-1,0-2-0.2-2.9-0.6l0.6-0.6l-0.5-0.5l-0.8,0.8c-0.5-0.3-1-0.6-1.5-1L18.2,6.9c0.4,0.4,0.7,0.9,1,1.5l-0.8,0.8l0.5,0.5l0.6-0.6
	C19.8,10,20,11,20,12C20,16.4,16.4,20,12,20"/><path d="M10.1,17.3l0.9-0.9l0.9-0.9l0.3,0.3l0.3,0.3L11.5,17l-0.9,0.9l-0.3-0.3L10.1,17.3z"/><path d="M15.6,11.9l0.9-0.9l0.9-0.9l0.3,0.3l0.3,0.3L17,11.5l-0.9,0.9l-0.3-0.3L15.6,11.9z"/><path d="M12.9,14.6l0.9-0.9l0.9-0.9l0.3,0.3l0.3,0.3l-0.9,0.9l-0.9,0.9l-0.3-0.3L12.9,14.6z"/><path d="M8.9,10.6l0.9-0.9l0.9-0.9l0.3,0.3l0.3,0.3l-0.9,0.9l-0.9,0.9l-0.3-0.3L8.9,10.6z"/><path d="M11.6,7.9L12.5,7l0.9-0.9l0.3,0.3l0.3,0.3L13,7.5l-0.9,0.9l-0.3-0.3L11.6,7.9z"/><path d="M6.1,13.3L7,12.5l0.9-0.9l0.3,0.3l0.3,0.3L7.5,13l-0.9,0.9l-0.3-0.3L6.1,13.3z"/></svg>