<svg xmlns="http://www.w3.org/2000/svg" viewBox="0 0 24 24" width="24" height="24"><path d="m5.5,10c2.48,0,4.5-2.02,4.5-4.5S7.98,1,5.5,1,1,3.02,1,5.5s2.02,4.5,4.5,4.5Zm0-6c.83,0,1.5.67,1.5,1.5s-.67,1.5-1.5,1.5-1.5-.67-1.5-1.5.67-1.5,1.5-1.5Z"/><path d="m18.13,1.35c-.14-.22-.4-.39-.64-.34-.26,0-.5.14-.63.36-.07.11-1.68,2.64-4.86,2.64v1.5c1.69,0,3.01-.56,4-1.23v2.09c-.79.75-2.12,1.63-4,1.63v1.5c1.69,0,3.01-.56,4-1.23v2.73H7.5c-.54,0-1.05.29-1.31.77L1.19,20.77c-.26.46-.25,1.03.02,1.49s.76.74,1.29.74h19c.53,0,1.02-.28,1.29-.74s.28-1.02.02-1.49l-3.81-6.86v-5.66c1,.67,2.33,1.25,4,1.25v-1.5c-1.85,0-3.2-.9-4-1.66v-2.09c1,.67,2.33,1.25,4,1.25v-1.5c-3.11,0-4.8-2.55-4.87-2.65Zm-.62,1.62s.03.03.04.04h-.07s.02-.03.04-.04ZM5.05,20l2.45-4.41,2.45,4.41h-4.9Zm8.33,0l-3.33-6h5.57l3.33,6h-5.57Z"/></svg>