<svg xmlns="http://www.w3.org/2000/svg" viewBox="0 0 24 24" width="24" height="24"><path d="m17.82,4.65c-1.07-2.22-3.31-3.65-5.82-3.65s-4.75,1.43-5.82,3.65c-2.97.61-5.18,3.23-5.18,6.35,0,2.24,1.15,4.29,3,5.47v1.03c0,.83.67,1.5,1.5,1.5h13c.83,0,1.5-.67,1.5-1.5v-1.03c1.85-1.18,3-3.24,3-5.47,0-3.12-2.21-5.73-5.18-6.35Zm.08,9.55c-.55.24-.9.78-.9,1.37v.42H7v-.42c0-.6-.35-1.14-.9-1.37-1.28-.56-2.1-1.82-2.1-3.2,0-1.85,1.46-3.38,3.32-3.48.63-.03,1.17-.45,1.36-1.05.46-1.48,1.79-2.47,3.32-2.47s2.86.99,3.32,2.47c.19.6.73,1.02,1.36,1.05,1.86.1,3.32,1.62,3.32,3.48,0,1.39-.82,2.65-2.1,3.2Z"/><path d="M4 20H20V23H4z"/></svg>