<svg xmlns="http://www.w3.org/2000/svg" width="24" height="24" viewBox="0 0 24 24"><path d="M15.41 1.06c-.38-.11-.8-.06-1.15.13l-12.49 7s-.02.02-.03.02c-.13.07-.24.16-.34.27-.02.02-.03.04-.05.06-.18.22-.3.49-.34.79V20.5c0 .83.67 1.5 1.5 1.5h19c.83 0 1.5-.67 1.5-1.5v-11c0-6.2-7.28-8.35-7.59-8.44Zm-.27 3.08c1.15.44 3.72 1.66 4.58 3.86H8.25l6.9-3.86ZM20 19H4v-8h16z"/><path d="M6.5 15a1.5 1.5 0 1 0 0 3 1.5 1.5 0 1 0 0-3M11.5 12a1.5 1.5 0 1 0 0 3 1.5 1.5 0 1 0 0-3M17 14a2 2 0 1 0 0 4 2 2 0 1 0 0-4"/></svg>