<svg xmlns="http://www.w3.org/2000/svg" width="24" height="24" viewBox="0 0 24 24"><path d="M2.5 23H23V5a1.506 1.506 0 0 0-2.47-1.15l-3.54 2.98-1.3-1.73a1.492 1.492 0 0 0-2.26-.16l-2.78 2.78L9.44 6.1c-.26-.35-.67-.57-1.11-.6-.44-.02-.87.14-1.17.46l-3.17 3.3V1H1v20.5c0 .83.67 1.5 1.5 1.5M4 20v-.48l4.18-4.36 1.72 2.29c.13.17.33.28.55.3a.7.7 0 0 0 .58-.22l3.39-3.39 1.73 2.31c.12.17.31.27.52.29.2.02.41-.04.57-.17l2.77-2.33V20zM8.11 9.31 9.3 10.9a1.492 1.492 0 0 0 2.26.16l2.78-2.78 1.21 1.62c.25.33.62.54 1.03.59.41.04.82-.08 1.14-.34L20 8.23v4.06l-3.13 2.63-1.77-2.37a.78.78 0 0 0-.55-.3.7.7 0 0 0-.58.22l-3.39 3.39-1.73-2.31a.72.72 0 0 0-.55-.3.74.74 0 0 0-.59.23L4 17.35V13.6z"/></svg>