<svg xmlns="http://www.w3.org/2000/svg" viewBox="0 0 24 24" width="24" height="24"><path d="m12.8,5.04c-.26-.02-.53-.04-.8-.04-4.96,0-9,4.04-9,9s4.04,9,9,9,9-4.04,9-9c0-4.11-2.78-7.58-6.55-8.65,1.33-1.59,3.33-2.6,5.55-2.6v-1.5c-1.52,0-2.96.39-4.21,1.08-.49-.39-1.88-1.33-3.79-1.33-2.4,0-4,1.5-4,1.5,0,0,1.6,1.5,4,1.5.77,0,1.44-.16,2.02-.37-.45.43-.86.9-1.22,1.41Zm5.2,8.96c0,3.31-2.69,6-6,6s-6-2.69-6-6c0-3.13,2.42-5.71,5.48-5.97-.15.64-.23,1.29-.23,1.97v1c-.73-.24-1.11-.77-1.13-.8l-1.24.84c.04.06,1.08,1.58,3.12,1.58s3.08-1.52,3.12-1.58l-1.24-.84s-.4.56-1.13.8v-1c0-.66.1-1.3.26-1.91,2.83.48,4.99,2.95,4.99,5.91Z"/></svg>