<svg xmlns="http://www.w3.org/2000/svg" viewBox="0 0 24 24" width="24" height="24"><path d="M6.5 12A1.5 1.5 0 1 0 6.5 15 1.5 1.5 0 1 0 6.5 12z"/><path d="M17.5 12A1.5 1.5 0 1 0 17.5 15 1.5 1.5 0 1 0 17.5 12z"/><path d="m21.18,8.11l-1.3-3.75c-.49-1.41-1.82-2.35-3.31-2.35H7.42c-1.49,0-2.82.95-3.31,2.35l-1.3,3.75c-1.05.3-1.82,1.25-1.82,2.39v6c0,1.02.62,1.9,1.5,2.29v1.71c0,.83.67,1.5,1.5,1.5h1c.83,0,1.5-.67,1.5-1.5v-1.5h11v1.5c0,.83.67,1.5,1.5,1.5h1c.83,0,1.5-.67,1.5-1.5v-1.71c.88-.39,1.5-1.27,1.5-2.29v-6c0-1.14-.77-2.09-1.82-2.39Zm-1.18,7.89H4v-5h16v5ZM7.42,5h9.15c.21,0,.4.14.47.34l.92,2.66H6.03l.92-2.66c.07-.2.26-.34.47-.34Z"/></svg>