<svg xmlns="http://www.w3.org/2000/svg" viewBox="0 0 24 24" width="24" height="24"><path d="M6.5 12A1.5 1.5 0 1 0 6.5 15 1.5 1.5 0 1 0 6.5 12z"/><path d="M17.5 12A1.5 1.5 0 1 0 17.5 15 1.5 1.5 0 1 0 17.5 12z"/><path d="m21.18,8.09l-1.29-3.73c-.49-1.41-1.82-2.36-3.31-2.36H7.42c-1.49,0-2.82.95-3.31,2.36l-1.29,3.73c-1.05.3-1.82,1.26-1.82,2.41v6c0,1.02.62,1.9,1.5,2.29v1.71c0,.83.67,1.5,1.5,1.5h1c.83,0,1.5-.67,1.5-1.5v-1.5h11v1.5c0,.83.67,1.5,1.5,1.5h1c.83,0,1.5-.67,1.5-1.5v-1.71c.88-.39,1.5-1.27,1.5-2.29v-6c0-1.14-.77-2.11-1.82-2.41Zm-17.18,2.9c.61-.03,1.14-.43,1.34-1.01l1.61-4.65c.07-.2.26-.34.47-.34h9.16c.21,0,.4.14.47.34l1.61,4.65c.2.58.73.98,1.34,1.01v5H4v-5Z"/><path d="M13 6 9 11.5 12 11.5 11 15 15 9.5 12 9.5 13 6z"/></svg>