<svg xmlns="http://www.w3.org/2000/svg" viewBox="0 0 24 24" width="24" height="24"><path d="m16.19,3.59c-.42-.55-1.16-.74-1.79-.46l-1.15.51c-.56-1.53-2.02-2.63-3.74-2.63-2.21,0-4,1.79-4,4,0,.66.16,1.29.45,1.84l-4.05,1.79c-.54.24-.9.78-.9,1.37v8c0,.72.52,1.34,1.23,1.48l19,3.5c.09.02.18.02.27.02.35,0,.69-.12.96-.35.34-.29.54-.71.54-1.15v-8.5c0-.33-.11-.65-.31-.91l-6.5-8.5Zm-1.67,2.76l3.94,5.16-11.53-1.82,1.74-.77s.02,0,.03,0c.26.05.52.08.79.08.19,0,.39-.02.57-.04.06,0,.12-.03.18-.04.12-.02.25-.05.37-.09.07-.02.14-.05.21-.07.1-.04.21-.08.31-.12.07-.03.15-.07.22-.11.09-.05.18-.1.26-.15.07-.05.15-.09.22-.15.07-.05.15-.11.22-.17.07-.06.15-.12.22-.19.06-.06.11-.12.16-.18.13-.15.26-.3.37-.47.04-.06.09-.12.13-.19l1.59-.7Zm-5.02-2.35c.55,0,1,.45,1,1,0,.11-.02.23-.08.37-.16.43-.66.67-1.09.6-.07-.01-.14-.01-.21-.04-.31-.12-.63-.45-.63-.92,0-.55.45-1,1-1Zm-5.5,12.75v-4.5l16,2.53v1.79l-13.88-2.31-.25,1.48,14.12,2.35v1.6l-16-2.95Z"/></svg>