<svg xmlns="http://www.w3.org/2000/svg" width="24" height="24" viewBox="0 0 24 24"><path d="M19.5 15h-.29l-.48-3.81C19.5 10.55 20 9.58 20 8.5v-5A2.5 2.5 0 0 0 17.5 1h-11A2.5 2.5 0 0 0 4 3.5v5c0 1.08.49 2.05 1.27 2.69L4.79 15H4.5C2.57 15 1 16.57 1 18.5v1C1 21.43 2.57 23 4.5 23h15c1.93 0 3.5-1.57 3.5-3.5v-1c0-1.93-1.57-3.5-3.5-3.5M4 18.5c0-.28.22-.5.5-.5H7c.25 0 .46-.19.5-.44l1-8A.497.497 0 0 0 8 9h-.5c-.28 0-.5-.22-.5-.5V4h2v2.5c0 .28.22.5.5.5h1c.28 0 .5-.22.5-.5V4h2v2.5c0 .28.22.5.5.5h1c.28 0 .5-.22.5-.5V4h2v4.5c0 .28-.22.5-.5.5H16c-.14 0-.28.06-.38.17-.09.11-.14.25-.12.39l1 8c.03.25.24.44.5.44h2.5c.28 0 .5.22.5.5v1c0 .28-.22.5-.5.5h-15c-.28 0-.5-.22-.5-.5z"/></svg>