<svg xmlns="http://www.w3.org/2000/svg" width="24" height="24" viewBox="0 0 24 24"><path d="M12.1 15.99 8.01 11.9S8 11.97 8 12c0 2.17 1.83 4 4 4 .03 0 .07 0 .1-.01"/><path d="M4 18V7.89L1.35 5.24c-.22.37-.35.8-.35 1.26v12A2.5 2.5 0 0 0 3.5 21h13.61l-3-3zM23 18.5v-12A2.5 2.5 0 0 0 20.5 4h-3.2l-1.55-2.33C15.47 1.25 15 1 14.5 1h-5c-.5 0-.97.25-1.25.67L6.7 4H5.06L1.53.47.47 1.53l22 22 1.06-1.06-1.8-1.8c.76-.43 1.27-1.23 1.27-2.17M8.75 6.33 10.3 4h3.39l1.55 2.33c.28.42.75.67 1.25.67h3.5v11h-.94l-3.77-3.77c.44-.64.71-1.41.71-2.23 0-2.17-1.83-4-4-4-.82 0-1.59.27-2.23.71l-1.8-1.8c.31-.1.59-.3.77-.58Zm2.12 3.47c.34-.18.72-.31 1.13-.31 1.35 0 2.5 1.14 2.5 2.5 0 .41-.12.79-.31 1.13l-3.33-3.33Z"/></svg>