<svg xmlns="http://www.w3.org/2000/svg" viewBox="0 0 24 24" width="24" height="24"><path d="m21.5,14H2.5c-.83,0-1.5.67-1.5,1.5v5c0,.83.67,1.5,1.5,1.5h19c.83,0,1.5-.67,1.5-1.5v-5c0-.83-.67-1.5-1.5-1.5Zm-17.5,5v-2h12.25v2H4Zm16,0h-2.25v-2h2.25v2Z"/><path d="m15.38,6.17c0,.41.33.75.75.75.18,0,4.38.12,4.38,6.08h1.5c0-3.86-1.58-5.72-2.9-6.6-.88-.59-1.76-.82-2.33-.92-.3-1.18-1.44-3.48-5.77-3.48v1.5c4.19,0,4.37,2.4,4.38,2.67Z"/><path d="m8.9,11.06c1.73,1.15,3.81,1.35,5.72.55.41-.17.86-.13,1.23.12.41.27.66.75.66,1.26h1.5c0-1.02-.5-1.96-1.33-2.51-.8-.53-1.76-.62-2.64-.25-1.43.6-3,.45-4.3-.42-1.4-.93-2.23-2.52-2.23-4.26v-3.55h-1.5v3.55c0,2.24,1.08,4.3,2.9,5.51Z"/></svg>