<svg xmlns="http://www.w3.org/2000/svg" width="24" height="24" viewBox="0 0 24 24"><path d="M4.1 6.08V7h1.5v-.92c0-1-.48-1.98-1.32-2.68-.5-.42-.78-.96-.78-1.53V1H2v.87c0 1 .48 1.98 1.32 2.68.5.42.78.97.78 1.53M8.3 6.08V7h1.5v-.92c0-1-.48-1.98-1.32-2.68-.5-.42-.78-.96-.78-1.53V1H6.2v.87c0 1 .48 1.98 1.32 2.68.5.42.78.96.78 1.53M12.5 6.08V7H14v-.92c0-1-.48-1.98-1.32-2.68-.5-.42-.78-.96-.78-1.53V1h-1.5v.87c0 1 .48 1.98 1.32 2.68.5.42.78.97.78 1.53M5.5 23h8c1.93 0 3.5-1.57 3.5-3.5V19h2.5a2.5 2.5 0 0 0 2.5-2.5v-4a2.5 2.5 0 0 0-2.5-2.5H17v-.5c0-.83-.67-1.5-1.5-1.5h-12C2.67 8 2 8.67 2 9.5v10C2 21.43 3.57 23 5.5 23M19 13v3h-2v-3zM5 11h9v8.5c0 .28-.22.5-.5.5h-8c-.28 0-.5-.22-.5-.5z"/></svg>