<svg xmlns="http://www.w3.org/2000/svg" width="24" height="24" viewBox="0 0 24 24"><path d="M23 11.8C22.9 8.05 19.76 5 16 5h-.04c-1.15 0-2.24.3-3.21.81V4H15V2.5h-2.25V1h-1.5v1.5H9V4h2.25v1.81c-.97-.51-2.07-.8-3.21-.81-3.8 0-6.94 3.05-7.03 6.8-.04 1.6.41 3.06.99 4.26-.61.63-.99 1.49-.99 2.44v1c0 1.93 1.57 3.5 3.5 3.5h15c1.93 0 3.5-1.57 3.5-3.5v-1c0-.95-.38-1.81-.99-2.44.58-1.2 1.03-2.66.99-4.26ZM4 18.5c0-.28.22-.5.5-.5H6a.499.499 0 0 0 .35-.85c-.02-.02-2.42-2.46-2.35-5.27C4.05 9.78 5.88 8 8 8h.02c1.5 0 2.86.84 3.53 2.17.17.33.72.33.89 0A3.97 3.97 0 0 1 15.97 8h.02c2.12 0 3.95 1.77 4 3.88.07 2.8-2.33 5.25-2.35 5.27-.14.14-.19.36-.11.54s.26.31.46.31h1.5c.28 0 .5.22.5.5v1c0 .28-.22.5-.5.5H4.5c-.28 0-.5-.22-.5-.5z"/></svg>