<svg xmlns="http://www.w3.org/2000/svg" width="24" height="24" viewBox="0 0 24 24"><path d="M23 9c0-2.48-2.02-4.5-4.5-4.5-.29 0-.58.03-.87.08-.41.08-.8.22-1.16.4C16.21 2.74 14.31.99 12 .99S7.78 2.74 7.53 4.98c-.36-.19-.75-.32-1.16-.4a4.3 4.3 0 0 0-.87-.08C3.02 4.5 1 6.52 1 9c0 1.47.71 2.8 1.83 3.62l.35 2.64A3.5 3.5 0 0 0 1 18.5v1C1 21.43 2.57 23 4.5 23h15c1.93 0 3.5-1.57 3.5-3.5v-1a3.5 3.5 0 0 0-2.18-3.24l.35-2.64A4.48 4.48 0 0 0 23 9m-4.22 1.47a.51.51 0 0 0-.41.43l-.87 6.54c-.02.14.02.29.12.4.09.11.23.17.38.17h1.5c.28 0 .5.22.5.5v1c0 .28-.22.5-.5.5h-15c-.28 0-.5-.22-.5-.5v-1c0-.28.22-.5.5-.5H6c.14 0 .28-.06.38-.17s.14-.25.12-.4l-.87-6.54a.51.51 0 0 0-.41-.43A1.49 1.49 0 0 1 4 9c0-.45.2-.87.55-1.16s.8-.4 1.25-.31c.72.14 1.25.85 1.2 1.59-.01.17-.06.33-.13.47-.06.13-.07.27-.01.4l1.68 4.19c.08.2.28.34.5.31.22-.01.4-.17.45-.38l1.74-6.95a.5.5 0 0 0-.17-.51 1.51 1.51 0 0 1-.56-1.16c0-.83.67-1.5 1.5-1.5s1.5.67 1.5 1.5c0 .45-.2.87-.56 1.16-.15.12-.21.32-.17.51l1.74 6.95a.501.501 0 0 0 .95.07l1.68-4.19c.05-.13.05-.28-.01-.4-.07-.15-.11-.31-.13-.47-.06-.74.48-1.45 1.2-1.59.45-.09.9.02 1.25.31S20 8.55 20 9c0 .72-.51 1.34-1.22 1.47"/></svg>