<svg xmlns="http://www.w3.org/2000/svg" width="24" height="24" viewBox="0 0 24 24"><path d="M14.82 9.18c-.18-.18-.38-.35-.59-.49a3.4 3.4 0 0 0-.68-.37q-.36-.15-.75-.24a3.9 3.9 0 0 0-1.6 0c-.25.05-.51.13-.75.24-.24.1-.46.23-.68.37-.21.14-.41.31-.59.49s-.35.38-.49.59l1.24.84c.09-.13.2-.26.31-.37.12-.12.24-.22.38-.31.13-.09.28-.17.42-.23.15-.06.3-.11.46-.15.32-.07.66-.07.98 0 .16.03.31.08.46.15.15.06.29.14.43.23.13.09.26.2.37.31.12.12.22.24.31.38.04.06.07.13.11.2L12.98 12h3V9l-.73.73c-.14-.19-.28-.38-.45-.55ZM13.76 13.75c-.12.12-.24.22-.38.31-.13.09-.28.17-.42.23-.15.06-.3.11-.46.15-.32.07-.66.07-.98 0-.16-.03-.31-.08-.46-.15-.15-.06-.29-.14-.43-.23-.13-.09-.26-.2-.37-.31a2.2 2.2 0 0 1-.31-.38c-.04-.06-.07-.13-.11-.2l1.18-1.18h-3v3l.73-.73c.14.19.28.38.45.55.18.18.38.35.59.49.21.15.44.27.68.37q.36.15.75.24c.26.06.53.08.8.08s.54-.03.8-.08c.25-.05.51-.13.75-.24.24-.1.46-.23.68-.37.21-.14.41-.31.59-.49s.35-.38.49-.59l-1.24-.84c-.09.13-.2.26-.31.37Z"/><path d="M20.5 4h-3.2l-1.55-2.33C15.47 1.25 15 1 14.5 1h-5c-.5 0-.97.25-1.25.67L6.7 4H3.5A2.5 2.5 0 0 0 1 6.5v12A2.5 2.5 0 0 0 3.5 21h17a2.5 2.5 0 0 0 2.5-2.5v-12A2.5 2.5 0 0 0 20.5 4M20 18H4V7h3.5c.5 0 .97-.25 1.25-.67L10.3 4h3.39l1.55 2.33c.28.42.75.67 1.25.67h3.5v11Z"/></svg>