<svg xmlns="http://www.w3.org/2000/svg" viewBox="0 0 24 24" width="24" height="24"><path class="b" d="m12,9c-2.17,0-4,1.83-4,4s1.83,4,4,4,4-1.83,4-4-1.83-4-4-4Zm0,6.5c-1.35,0-2.5-1.14-2.5-2.5s1.15-2.5,2.5-2.5,2.5,1.14,2.5,2.5-1.15,2.5-2.5,2.5Z"/><path class="b" d="m20.5,4h-3.38l-1.56-1.56c-.28-.28-.66-.44-1.06-.44h-5c-.4,0-.78.16-1.06.44l-1.56,1.56h-3.38c-1.38,0-2.5,1.12-2.5,2.5v13c0,1.38,1.12,2.5,2.5,2.5h17c1.38,0,2.5-1.12,2.5-2.5V6.5c0-1.38-1.12-2.5-2.5-2.5Zm-.5,15H4V7h3.5c.4,0,.78-.16,1.06-.44l1.56-1.56h3.76l1.56,1.56c.28.28.66.44,1.06.44h3.5v12Z"/><path class="b" d="M18 8A1 1 0 1 0 18 10 1 1 0 1 0 18 8z"/></svg>