<svg xmlns="http://www.w3.org/2000/svg" viewBox="0 0 24 24" width="24" height="24"><path class="b" d="m3.5,11h5c1.38,0,2.5-1.12,2.5-2.5V3.5c0-1.38-1.12-2.5-2.5-2.5H3.5c-1.38,0-2.5,1.12-2.5,2.5v5c0,1.38,1.12,2.5,2.5,2.5Zm.5-7h4v4h-4v-4Z"/><path class="b" d="m20.5,13h-5c-1.38,0-2.5,1.12-2.5,2.5v5c0,1.38,1.12,2.5,2.5,2.5h5c1.38,0,2.5-1.12,2.5-2.5v-5c0-1.38-1.12-2.5-2.5-2.5Zm-.5,7h-4v-4h4v4Z"/><path class="b" d="m3.5,20h2.5v3l5-4.5-5-4.5v3h-2v-4H1v4.5c0,1.38,1.12,2.5,2.5,2.5Z"/><path class="b" d="m20.5,4h-2.5V1l-5,4.5,5,4.5v-3h2v4h3v-4.5c0-1.38-1.12-2.5-2.5-2.5Z"/></svg>