<svg xmlns="http://www.w3.org/2000/svg" viewBox="0 0 24 24" width="24" height="24"><path d="m11.98,23c.96,0,1.92-.13,2.87-.38,2.84-.76,5.21-2.58,6.68-5.12,3.03-5.25,1.23-11.99-4.03-15.03-2.54-1.47-5.51-1.86-8.35-1.1-2.84.76-5.21,2.58-6.68,5.12-3.03,5.25-1.23,11.99,4.03,15.03,1.69.98,3.58,1.48,5.48,1.48Zm-6.91-15c2.21-3.82,7.11-5.13,10.93-2.93,3.82,2.21,5.13,7.11,2.93,10.93-2.21,3.82-7.11,5.13-10.93,2.93-3.82-2.21-5.13-7.11-2.93-10.93Z"/><path d="m16.82,15.65l.75-1.3-4.82-2.78v-5.57h-1.5v6c0,.27.14.52.38.65l5.2,3Z"/></svg>