<svg xmlns="http://www.w3.org/2000/svg" viewBox="0 0 24 24" width="24" height="24"><path d="m5,5C.33,9.68-.34,16.62,3.52,20.48c1.69,1.69,3.96,2.51,6.38,2.51,3.11,0,6.46-1.36,9.09-3.99,4.67-4.68,5.34-11.62,1.48-15.47C16.62-.34,9.68.33,5,5Zm2.12,2.12c2.06-2.05,4.64-3.13,6.96-3.13,1.3,0,2.52.36,3.53,1.05l-.5.04c-3.55.32-6.22,3.2-6.22,6.7,0,1.83-1.35,3.37-3.2,3.67l-3.42.56c-.82-2.72.21-6.25,2.86-8.9Zm9.75,9.75c-3.32,3.31-8,4.08-10.77,1.89l2.07-.34c3.31-.54,5.72-3.33,5.72-6.64,0-1.94,1.5-3.53,3.48-3.71l2.32-.21c.88,2.74-.14,6.32-2.82,9Z"/></svg>