<svg xmlns="http://www.w3.org/2000/svg" viewBox="0 0 24 24" width="24" height="24"><path d="m22.11,11.68l-3.86-1.72v-5.36c0-.59-.35-1.13-.89-1.37l-4.75-2.11c-.39-.17-.83-.17-1.22,0l-4.75,2.11c-.54.24-.89.78-.89,1.37v5.36l-3.86,1.72c-.54.24-.89.78-.89,1.37v6.33c0,.59.35,1.13.89,1.37l4.75,2.11c.19.09.4.13.61.13s.42-.04.61-.13l4.14-1.84,4.14,1.84c.19.09.4.13.61.13s.42-.04.61-.13l4.75-2.11c.54-.24.89-.78.89-1.37v-6.33c0-.59-.35-1.13-.89-1.37Zm-5.61,3.25l-2.51-1.12,2.76-1.23,2.51,1.12-2.76,1.23Zm-9.25-2.34l2.76,1.23-2.51,1.12-2.76-1.23,2.51-1.12Zm4-4.35v2.84l-2.5-1.11v-2.84l2.5,1.11Zm4,1.73l-2.5,1.11v-2.84l2.5-1.11v2.84Zm-7,6.27l2.25-1v3.18l-2.25,1v-3.18Zm3.75-12.1l3.14,1.39-3.14,1.39-3.14-1.39,3.14-1.39Zm-8,14.27v-3.4l2.75,1.22v3.4l-2.75-1.22Zm9.5-3.18l2.25,1v3.18l-2.25-1v-3.18Zm3.75,4.4v-3.4l2.75-1.22v3.4l-2.75,1.22Z"/></svg>