<svg xmlns="http://www.w3.org/2000/svg" width="24" height="24" viewBox="0 0 24 24"><path d="M12 1C5.93 1 1 5.93 1 12s4.93 11 11 11 11-4.93 11-11S18.07 1 12 1m0 19c-4.41 0-8-3.59-8-8s3.59-8 8-8 8 3.59 8 8-3.59 8-8 8"/><path d="M12 11.25c-2.25 0-2.25-.81-2.25-1.25 0-.62.77-1.25 2.25-1.25s1.64.96 1.65 1.26h1.5c0-.68-.46-2.33-2.4-2.68V6.01h-1.5v1.3c-2.05.25-3 1.51-3 2.7 0 1.25.65 2.75 3.75 2.75 2.25 0 2.25.84 2.25 1.25 0 .61-.79 1.25-2.25 1.25-2.13 0-2.24-1.14-2.25-1.25h-1.5c0 .86.66 2.41 3 2.69v1.31h1.5v-1.3c1.97-.25 3-1.48 3-2.7 0-1.03-.49-2.75-3.75-2.75Z"/></svg>