<svg xmlns="http://www.w3.org/2000/svg" viewBox="0 0 24 24" width="24" height="24"><path d="m18.58,2.21c-.45-.75-1.27-1.21-2.14-1.21H7.57c-.87,0-1.69.46-2.14,1.21l-3.84,6.41c-.54.91-.46,2.06.22,2.88l8.28,10.02c.48.58,1.18.91,1.93.91s1.45-.33,1.93-.91l8.28-10.02c.67-.82.76-1.97.22-2.88l-3.85-6.41Zm.72,7.04h-3.03l-1.93-5.25h1.8l3.15,5.25Zm-11.57,1.5l2.22,5.91-4.88-5.91h2.66Zm6.94,0l-2.67,7.11-2.67-7.11h5.34Zm-5.34-1.5l1.92-5.25h1.5l1.92,5.25h-5.35Zm6.95,1.5h2.66l-4.88,5.91,2.22-5.91ZM7.85,4h1.8l-1.93,5.25h-3.03l3.15-5.25Z"/></svg>