<svg xmlns="http://www.w3.org/2000/svg" viewBox="0 0 24 24" width="24" height="24"><path d="m20.5,8h-3.5V3.5c0-1.38-1.12-2.5-2.5-2.5H3.5c-1.38,0-2.5,1.12-2.5,2.5v9c0,1.38,1.12,2.5,2.5,2.5h.5v1.5c0,.55.3,1.06.79,1.32.22.12.47.18.71.18.29,0,.58-.08.83-.25l2.67-1.78v1.53c0,1.38,1.12,2.5,2.5,2.5h3.05l4.12,2.75c.25.17.54.25.83.25.24,0,.49-.06.71-.18.49-.26.79-.77.79-1.32v-1.55c1.14-.23,2-1.24,2-2.45v-7c0-1.38-1.12-2.5-2.5-2.5Zm-15,4h-1.5V4h10v8h-4c-.3,0-.59.09-.83.25l-2.17,1.45v-.2c0-.83-.67-1.5-1.5-1.5Zm14.5,5h-.5c-.83,0-1.5.67-1.5,1.5v.2l-2.17-1.45c-.25-.16-.54-.25-.83-.25h-3v-2h2.5c1.38,0,2.5-1.12,2.5-2.5v-1.5h3v6Z"/></svg>