<svg xmlns="http://www.w3.org/2000/svg" viewBox="0 0 24 24" width="24" height="24"><path d="m13.5,11c2.34,0,4.25-1.79,4.25-4s-2.44-4.82-3.19-5.56c-.59-.58-1.53-.58-2.12,0-.75.75-3.19,3.35-3.19,5.56s1.91,4,4.25,4Zm0-6.24c.7.88,1.25,1.8,1.25,2.24,0,.54-.57,1-1.25,1s-1.25-.46-1.25-1c0-.44.55-1.35,1.25-2.24Z"/><path d="m22.09,13.62l-2.48-1.06c-1.12-.48-2.39-.35-3.39.35l-2.74,1.92-.9-1.57c-.44-.78-1.28-1.26-2.17-1.26H3.5c-1.38,0-2.5,1.12-2.5,2.5v6c0,1.38,1.12,2.5,2.5,2.5h10.26c1.2,0,2.33-.47,3.18-1.32l5.62-5.62c.35-.35.51-.86.41-1.34-.09-.49-.42-.9-.88-1.1Zm-7.27,5.94c-.28.28-.66.44-1.06.44H4v-5h6.13l1.14,2h-4.27v1.5h6c.31,0,.61-.09.86-.27l4.09-2.86h0c.14-.1.32-.12.48-.05l.44.19-4.05,4.05Z"/></svg>