<svg xmlns="http://www.w3.org/2000/svg" viewBox="0 0 24 24" width="24" height="24"><path d="m16.31 4.69-3.25-3.25a1.49 1.49 0 0 0-2.12 0L7.69 4.69a1.49 1.49 0 0 0 0 2.12l3.25 3.25c.29.29.68.44 1.06.44s.77-.15 1.06-.44l3.25-3.25c.59-.59.59-1.54 0-2.12M12 6.88l-1.13-1.13L12 4.62l1.13 1.13zM13.06 13.94a1.49 1.49 0 0 0-2.12 0l-3.25 3.25a1.49 1.49 0 0 0 0 2.12l3.25 3.25c.29.29.68.44 1.06.44s.77-.15 1.06-.44l3.25-3.25c.59-.59.59-1.54 0-2.12zM12 19.38l-1.13-1.13L12 17.12l1.13 1.13zM19.31 7.69a1.49 1.49 0 0 0-2.12 0l-3.25 3.25a1.49 1.49 0 0 0 0 2.12l3.25 3.25c.29.29.68.44 1.06.44s.77-.15 1.06-.44l3.25-3.25c.59-.59.59-1.54 0-2.12zm-1.06 5.44L17.12 12l1.13-1.13L19.38 12zM4.69 7.69l-3.25 3.25a1.49 1.49 0 0 0 0 2.12l3.25 3.25c.29.29.68.44 1.06.44s.77-.15 1.06-.44l3.25-3.25c.59-.59.59-1.54 0-2.12L6.81 7.69a1.49 1.49 0 0 0-2.12 0m1.06 5.44L4.62 12l1.13-1.13L6.88 12z"/></svg>