<svg xmlns="http://www.w3.org/2000/svg" viewBox="0 0 24 24" width="24" height="24"><path d="m17.5,4h-1c-.83,0-1.5.67-1.5,1.5v5h-6v-5c0-.83-.67-1.5-1.5-1.5h-1c-.83,0-1.5.67-1.5,1.5v13c0,.83.67,1.5,1.5,1.5h1c.83,0,1.5-.67,1.5-1.5v-5h6v5c0,.83.67,1.5,1.5,1.5h1c.83,0,1.5-.67,1.5-1.5V5.5c0-.83-.67-1.5-1.5-1.5Z"/><path d="m23,8c0-.83-.67-1.5-1.5-1.5s-1.5.67-1.5,1.5v8c0,.83.67,1.5,1.5,1.5s1.5-.67,1.5-1.5v-2.5h1v-3h-1v-2.5Z"/><path d="m2.5,6.5c-.83,0-1.5.67-1.5,1.5v2.5H0v3h1v2.5c0,.83.67,1.5,1.5,1.5s1.5-.67,1.5-1.5v-8c0-.83-.67-1.5-1.5-1.5Z"/></svg>