<svg xmlns="http://www.w3.org/2000/svg" viewBox="0 0 24 24" width="24" height="24"><path d="m22.09,13.62l-2.48-1.06c-1.12-.48-2.39-.35-3.39.35l-2.74,1.92-.9-1.57c-.44-.78-1.28-1.26-2.17-1.26H3.5c-1.38,0-2.5,1.12-2.5,2.5v6c0,1.38,1.12,2.5,2.5,2.5h10.26c1.2,0,2.33-.47,3.18-1.32l5.62-5.62c.35-.35.51-.86.41-1.34-.09-.49-.42-.9-.88-1.1Zm-7.27,5.94c-.28.28-.66.44-1.06.44H4v-5h6.13l1.14,2h-4.27v1.5h6c.31,0,.61-.09.86-.27l4.09-2.86h0c.14-.1.32-.12.48-.05l.44.19-4.05,4.05Z"/><path d="m12.91,11.47c.28.3.68.47,1.09.47s.8-.17,1.09-.47l3.81-4.01c.71-.71,1.1-1.65,1.1-2.65s-.39-1.94-1.1-2.65c-.71-.71-1.65-1.1-2.65-1.1h0c-.15,0-1.12.03-2.25.72-1.13-.69-2.1-.72-2.25-.72h0c-1,0-1.94.39-2.65,1.1-.71.71-1.1,1.65-1.1,2.65s.39,1.94,1.07,2.62l3.84,4.03Zm-1.69-7.19c.08-.08.26-.22.48-.22.02,0,.6.05,1.24.69.59.59,1.54.59,2.12,0,.64-.64,1.21-.69,1.19-.69.27,0,.45.14.53.22h0c.14.14.22.33.22.53s-.08.39-.25.56l-2.75,2.89-2.78-2.92c-.14-.14-.22-.33-.22-.53s.08-.39.22-.53Z"/></svg>