<svg xmlns="http://www.w3.org/2000/svg" viewBox="0 0 24 24" width="24" height="24"><path d="m12,9c-3.86,0-7,3.14-7,7s3.14,7,7,7,7-3.14,7-7-3.14-7-7-7Zm0,12c-2.76,0-5-2.24-5-5s2.24-5,5-5,5,2.24,5,5-2.24,5-5,5Z"/><path d="m12,15.57c-1.3,0-1.3-.47-1.3-.72,0-.36.45-.72,1.3-.72s.95.56.96.73h.43s.43,0,.43,0c0-.4-.27-1.35-1.39-1.55v-.77h-.87v.75c-1.19.15-1.74.87-1.74,1.56,0,.73.38,1.59,2.17,1.59,1.3,0,1.3.49,1.3.72,0,.35-.46.72-1.3.72-1.23,0-1.3-.66-1.3-.72h-.87c0,.5.38,1.4,1.74,1.56v.76h.87v-.75c1.14-.15,1.74-.86,1.74-1.56,0-.59-.28-1.59-2.17-1.59Z"/><path d="M9.53 8 12 6.35 14.47 8 13.65 5.32 15.5 3.47 13.12 3.26 12 1 10.88 3.26 8.5 3.47 10.35 5.32 9.53 8z"/><path d="M20.96 6.44 20 4.5 19.04 6.44 17 6.62 18.59 8.21 17.88 10.5 20 9.09 22.12 10.5 21.41 8.21 23 6.62 20.96 6.44z"/><path d="M5.41 8.21 7 6.62 4.96 6.44 4 4.5 3.04 6.44 1 6.62 2.59 8.21 1.88 10.5 4 9.09 6.12 10.5 5.41 8.21z"/></svg>