<svg xmlns="http://www.w3.org/2000/svg" viewBox="0 0 24 24" width="24" height="24"><path d="m12,8c-2.21,0-4,1.79-4,4s1.79,4,4,4,4-1.79,4-4-1.79-4-4-4Zm0,5c-.55,0-1-.45-1-1s.45-1,1-1,1,.45,1,1-.45,1-1,1Z"/><path d="m21.35,8.48c-1.48-.07-2.67-1.2-2.81-2.68-.04-.4-.24-.77-.55-1.02-.31-.25-.72-.37-1.12-.32l-.17.02c-.07,0-.13.02-.2.02-1.4,0-2.6-.96-2.92-2.33-.16-.68-.72-1.16-1.41-1.16-.04,0-.13,0-.17,0C5.93,1,1,5.93,1,12s4.93,11,11,11,11-4.93,11-11c0-.77-.09-1.56-.25-2.34-.14-.66-.71-1.15-1.39-1.18Zm-9.35,11.52c-4.41,0-8-3.59-8-8,0-4.11,3.12-7.51,7.07-7.95.88,1.89,2.68,3.19,4.78,3.42.65,1.88,2.18,3.32,4.12,3.82.02.24.03.48.03.71,0,4.41-3.59,8-8,8Z"/></svg>