<svg xmlns="http://www.w3.org/2000/svg" viewBox="0 0 24 24" width="24" height="24"><path d="m22.94,9.07c-.1-.38-.35-.71-.7-.91l-1.27-.74h0s-.52-.3-.52-.3v-2.07c0-.83-.67-1.5-1.5-1.5h-2.06l-1.04-1.79c-.2-.34-.53-.6-.91-.7-.38-.1-.79-.05-1.14.15l-1.79,1.04-.52-.3h0s-1.27-.74-1.27-.74c-.34-.2-.75-.25-1.14-.15-.38.1-.71.35-.91.7l-1.04,1.79h-2.06c-.83,0-1.5.67-1.5,1.5v2.07l-.52.3h0s-1.27.74-1.27.74c-.34.2-.6.53-.7.91-.1.38-.05.79.15,1.14l.74,1.27h0s.3.52.3.52l-1.04,1.79c-.2.34-.25.75-.15,1.14.1.38.35.71.7.91l1.27.73h0s.52.3.52.3v2.07c0,.83.67,1.5,1.5,1.5h2.06l.3.52h0s.73,1.27.73,1.27c.2.34.53.6.91.7.38.1.79.05,1.14-.15l1.27-.74h0s.52-.3.52-.3l.52.3h0s1.27.74,1.27.74c.23.13.49.2.75.2.13,0,.26-.02.39-.05.38-.1.71-.35.91-.7l1.04-1.79h2.06c.83,0,1.5-.67,1.5-1.5v-2.07l.52-.3h0s1.27-.74,1.27-.74c.72-.42.96-1.33.55-2.05l-.74-1.27h0s-.3-.52-.3-.52l.3-.52h0s.74-1.27.74-1.27c.2-.34.25-.75.15-1.14Zm-6.92,8.37h-.87l-.55.95-.6,1.04-1.25-.72s0,0,0,0l-.75-.43-.75.43s0,0,0,0l-1.24.72-.51-.88-.21-.36s0,0,0,0l-.43-.75h-2.3v-2.3l-.75-.43s0,0,0,0l-1.24-.72.72-1.24s0,0,0,0l.43-.75-.43-.75s0,0,0,0l-.72-1.24,1.99-1.15v-2.3h2.3l1.15-1.99.99.57.25.15s0,0,0,0l.75.43,2-1.15.56.97.59,1.02h2.3v2.3l1.99,1.15-.4.69-.75,1.3,1.15,2-.25.15-.99.57s0,0,0,0l-.75.43v2.3h-1.43Z"/><path d="M14.4 7.55 11.4 11.55 8.4 15.55 9 16 9.6 16.45 12.6 12.45 15.6 8.45 15 8 14.4 7.55z"/><path d="M14.75 13.5A1.25 1.25 0 1 0 14.75 16 1.25 1.25 0 1 0 14.75 13.5z"/><path d="M9.25 8A1.25 1.25 0 1 0 9.25 10.5 1.25 1.25 0 1 0 9.25 8z"/></svg>