<svg xmlns="http://www.w3.org/2000/svg" viewBox="0 0 24 24" width="24" height="24"><path d="m21.76,8.64l.8-.8c.28-.28.44-.66.44-1.06s-.16-.78-.44-1.06l-4.28-4.28c-.56-.56-1.56-.56-2.12,0l-.8.8-.81-.81c-.59-.59-1.54-.59-2.12,0l-3,3c-.28.28-.44.66-.44,1.06s.16.78.44,1.06l2.95,2.95-2.88,2.88-2.95-2.95c-.59-.59-1.54-.59-2.12,0l-3,3c-.28.28-.44.66-.44,1.06s.16.78.44,1.06l.81.81-.8.8c-.28.28-.44.66-.44,1.06s.16.78.44,1.06l4.28,4.28c.28.28.66.44,1.06.44s.78-.16,1.06-.44l.8-.8.81.81c.29.29.68.44,1.06.44s.77-.15,1.06-.44l3-3c.28-.28.44-.66.44-1.06s-.16-.78-.44-1.06l-2.95-2.95,2.88-2.88,2.95,2.95c.29.29.68.44,1.06.44s.77-.15,1.06-.44l3-3c.28-.28.44-.66.44-1.06s-.16-.78-.44-1.06l-.81-.81Zm-11.25,10.75l-5.91-5.91.88-.88,5.91,5.91-.88.88Zm8-8l-5.91-5.91.88-.88,5.91,5.91-.88.88Z"/></svg>