<svg xmlns="http://www.w3.org/2000/svg" width="24" height="24" viewBox="0 0 24 24"><path d="M20.61 4.99 8.05 1.62c-1.33-.36-2.7.44-3.06 1.77L1.62 15.95c-.36 1.33.44 2.7 1.77 3.06l12.56 3.36c.22.06.43.08.65.08 1.1 0 2.12-.74 2.42-1.85l3.36-12.56c.36-1.33-.44-2.7-1.77-3.06Zm-4.37 14.36L4.65 16.24 7.76 4.65l11.59 3.11z"/><path d="M9.2 12.8c.8.21 1.62-.26 1.84-1.06.21-.8-.26-1.62-1.06-1.84-.8-.21-1.62.26-1.84 1.06-.21.8.26 1.62 1.06 1.84M14.03 14.1c.8.21 1.62-.26 1.84-1.06.21-.8-.26-1.62-1.06-1.84-.8-.21-1.62.26-1.84 1.06-.21.8.26 1.62 1.06 1.84"/></svg>