<svg xmlns="http://www.w3.org/2000/svg" viewBox="0 0 24 24" width="24" height="24"><path d="m22.07,9.56c-.56-.23-1.21-.1-1.63.33l-.25.25c-1.52,1.52-3.85,1.86-5.79.84,0,0-.01,0-.02,0,1.01-1.36,1.44-3.09,1.13-4.83-.44-2.47-2.38-4.48-4.83-4.99-1.88-.39-3.8.07-5.27,1.26-1.14.92-1.89,2.2-2.18,3.6-.67,0-1.64,0-2.24,0,0,0,0,2.54,2.35,2.94.16.57.4,1.11.72,1.61-2.08,1.36-3.27,3.78-3.04,6.32.32,3.44,3.38,6.13,6.97,6.13h5.85c5.21,0,9.15-3.65,9.15-8.5v-3.56c0-.61-.37-1.15-.93-1.39Zm-2.07,4.94c0,3.19-2.58,5.5-6.15,5.5h-5.85c-2.06,0-3.8-1.5-3.98-3.41-.15-1.63.75-3.17,2.24-3.83.32-.14.65-.32,1-.55.4-.26.65-.71.67-1.19s-.19-.94-.57-1.24c-.79-.63-1.25-1.55-1.25-2.53s.44-1.9,1.2-2.52c.59-.48,1.3-.73,2.04-.73.24,0,.48.02.72.08,1.24.26,2.26,1.32,2.48,2.58.22,1.26-.26,2.47-1.3,3.22-.35.26-.58.66-.61,1.1-.03.44.12.87.44,1.18l.1.1c.59.59,1.19,1.04,1.83,1.38,2.24,1.17,4.81,1.21,6.99.23v.65Z"/><path d="M9 6A1 1 0 1 0 9 8 1 1 0 1 0 9 6z"/></svg>