<svg xmlns="http://www.w3.org/2000/svg" viewBox="0 0 24 24" width="24" height="24"><path d="m5.5,2h-2c-1.93,0-3.5,1.57-3.5,3.5v5c0,1.76,1.31,3.22,3,3.46v4.04c0,2.21,1.79,4,4,4s4-1.79,4-4V7.5c0-3.03-2.47-5.5-5.5-5.5Zm2.5,16c0,.55-.45,1-1,1s-1-.45-1-1v-5.5c0-.83-.67-1.5-1.5-1.5h-1c-.28,0-.5-.22-.5-.5v-5c0-.28.22-.5.5-.5h2c1.38,0,2.5,1.12,2.5,2.5v10.5Z"/><path d="m20.5,2h-2c-3.03,0-5.5,2.47-5.5,5.5v10.5c0,2.21,1.79,4,4,4s4-1.79,4-4v-4.04c1.69-.24,3-1.71,3-3.46v-5c0-1.93-1.57-3.5-3.5-3.5Zm.5,8.5c0,.28-.22.5-.5.5h-1c-.83,0-1.5.67-1.5,1.5v5.5c0,.55-.45,1-1,1s-1-.45-1-1V7.5c0-1.38,1.12-2.5,2.5-2.5h2c.28,0,.5.22.5.5v5Z"/><path d="m19.5,6c-.28,0-.5.22-.5.5v3c0,.28.22.5.5.5s.5-.22.5-.5v-3c0-.28-.22-.5-.5-.5Z"/><path d="m4.5,6c-.28,0-.5.22-.5.5v3c0,.28.22.5.5.5s.5-.22.5-.5v-3c0-.28-.22-.5-.5-.5Z"/></svg>