<svg xmlns="http://www.w3.org/2000/svg" viewBox="0 0 24 24" width="24" height="24"><path d="m12,1C7.04,1,3,5.04,3,10h3c0-3.31,2.69-6,6-6s6,2.69,6,6c0,2.55-1.17,3.41-3.11,4.83-.43.32-.88.64-1.33,1-1.05.84-1.73,1.76-2.27,2.5-.86,1.18-1.22,1.67-2.51,1.67-1.46,0-2.79-1.43-2.79-3h-3c0,3.25,2.65,6,5.79,6,2.81,0,3.94-1.54,4.93-2.9.48-.66.98-1.34,1.72-1.93.41-.33.82-.63,1.22-.92,2.13-1.56,4.34-3.18,4.34-7.25,0-4.96-4.04-9-9-9Z"/><path d="m13.77,8.22c.46.46.73,1.11.73,1.78h1.5c0-1.07-.43-2.1-1.17-2.84-1.51-1.49-4.14-1.49-5.65,0-.75.74-1.17,1.77-1.17,2.84v4h1.5v-3c1.17.49,2,1.65,2,3h1.5c0-2.16-1.46-3.97-3.44-4.54.1-.47.33-.9.67-1.23.95-.93,2.6-.93,3.54,0Z"/></svg>