<svg xmlns="http://www.w3.org/2000/svg" width="24" height="24" viewBox="0 0 24 24"><path d="M7.82 19.05C9.65 20.95 12.1 22 14.7 22s5.04-1.05 6.88-2.95l-2.16-2.08C18.16 18.28 16.48 19 14.7 19s-3.46-.72-4.72-2.03c-.29-.3-.55-.63-.78-.97h3.79v-3H8.07c-.04-.33-.08-.66-.08-1s.03-.67.08-1h4.92V8H9.2c.23-.34.49-.67.78-.97C11.24 5.72 12.92 5 14.7 5s3.46.72 4.72 2.03l2.16-2.08C19.75 3.05 17.3 2 14.7 2S9.66 3.05 7.82 4.95A9.9 9.9 0 0 0 5.81 8H2v3h3.05c-.03.33-.05.66-.05 1s.02.67.05 1H2v3h3.81c.48 1.12 1.15 2.16 2.01 3.05"/></svg>