<svg xmlns="http://www.w3.org/2000/svg" viewBox="0 0 24 24" width="24" height="24"><path d="M11 9A3 3 0 1 0 11 15 3 3 0 1 0 11 9z"/><path d="m19.17,7.18c-1.33-.59-2.24-1.37-2.71-2.32-1.21-2.42-3.31-3.79-5.91-3.86-3.18-.09-5.95,1.85-6.94,4.81-.37,1.11-.47,2.23-.29,3.34.16,1.01-.43,1.93-.79,2.39-1.27,1.6-1.78,3.61-1.41,5.66.51,2.87,2.88,5.21,5.75,5.69.41.07.82.1,1.22.1,1.78,0,3.49-.66,4.81-1.89.75-.69,1.93-1.53,3.42-1.48,2.15.04,4.12-.91,5.42-2.65,1.65-2.23,1.68-5.37.07-7.63-.68-.95-1.59-1.71-2.64-2.17Zm.16,8.02c-.7.95-1.76,1.49-2.93,1.44-1.94-.05-3.91.76-5.54,2.28-.93.87-2.21,1.24-3.49,1.03-1.65-.28-3-1.62-3.3-3.27-.21-1.18.07-2.34.8-3.26,1.16-1.46,1.66-3.13,1.41-4.72-.1-.63-.04-1.28.18-1.93.56-1.69,2.08-2.76,3.88-2.76.04,0,.08,0,.13,0,1.51.04,2.59.76,3.31,2.2.79,1.58,2.19,2.83,4.17,3.71.57.25,1.04.65,1.42,1.18.85,1.2.84,2.93-.04,4.1Z"/></svg>