<svg xmlns="http://www.w3.org/2000/svg" width="24" height="24" viewBox="0 0 24 24"><path d="M12 4C5.29 4 1.92 8.93 1.07 11.54c-.1.3-.1.63 0 .93.85 2.61 4.22 7.54 10.93 7.54s10.08-4.93 10.93-7.54c.1-.3.1-.63 0-.93C22.08 8.93 18.71 4 12 4m0 13c-5.15 0-7.28-3.67-7.89-5 .6-1.33 2.73-5 7.89-5s7.29 3.67 7.89 5c-.6 1.33-2.73 5-7.89 5"/><path d="M13.5 12c-.83 0-1.5-.67-1.5-1.5 0-.6.36-1.12.87-1.35-.28-.09-.56-.15-.87-.15-1.64 0-3 1.36-3 3s1.36 3 3 3 3-1.36 3-3c0-.3-.06-.59-.15-.87-.24.51-.75.87-1.35.87"/></svg>