<svg xmlns="http://www.w3.org/2000/svg" viewBox="0 0 24 24" width="24" height="24"><path d="m21.5,4H2.5c-.83,0-1.5.67-1.5,1.5v9c0,.83.67,1.5,1.5,1.5h1.5v.5c0,.83.67,1.5,1.5,1.5h1.5v.5c0,.83.67,1.5,1.5,1.5h7c.83,0,1.5-.67,1.5-1.5v-.5h1.5c.83,0,1.5-.67,1.5-1.5v-.5h1.5c.83,0,1.5-.67,1.5-1.5V5.5c0-.83-.67-1.5-1.5-1.5Zm-1.5,9h-1.5c-.83,0-1.5.67-1.5,1.5v.5h-1.5c-.83,0-1.5.67-1.5,1.5v.5h-4v-.5c0-.83-.67-1.5-1.5-1.5h-1.5v-.5c0-.83-.67-1.5-1.5-1.5h-1.5v-6h16v6Z"/><path d="M5.5 8H7V11H5.5z"/><path d="M8.38 8H9.88V11H8.38z"/><path d="M11.25 8H12.75V11H11.25z"/><path d="M14.12 8H15.62V11H14.12z"/><path d="M17 8H18.5V11H17z"/></svg>