<svg xmlns="http://www.w3.org/2000/svg" width="24" height="24" viewBox="0 0 24 24"><path d="M12 17c-5.15 0-7.28-3.67-7.89-5 .25-.54.75-1.48 1.61-2.39L3.6 7.49c-1.34 1.39-2.17 2.93-2.53 4.04-.1.3-.1.63 0 .93C1.92 15.07 5.29 20 12 20c1.32 0 2.51-.2 3.58-.53l-2.53-2.53Q12.54 17 12 17M22.93 12.46c.1-.3.1-.63 0-.93-.85-2.61-4.22-7.54-10.93-7.54-2.22 0-4.06.54-5.58 1.36L1.53.47.47 1.53l4.65 4.65 2.15 2.15 15.21 15.21 1.06-1.06-4.66-4.66c2.26-1.65 3.57-3.87 4.05-5.35ZM8.68 7.62C9.62 7.25 10.7 7 12 7c5.16 0 7.29 3.67 7.89 5-.37.81-1.32 2.48-3.16 3.67l-2.15-2.15c.27-.44.43-.96.43-1.51 0-1.64-1.36-3-3-3-.55 0-1.07.16-1.51.43L8.69 7.63Z"/></svg>