<svg xmlns="http://www.w3.org/2000/svg" viewBox="0 0 24 24" width="24" height="24"><path d="m5,17h7.71c-.2.84-.15,1.72.15,2.55.42,1.17,1.27,2.09,2.41,2.59l.86.38c.33.15.68.22,1.02.22.81,0,1.6-.4,2.08-1.11l3.53-5.3c.16-.25.25-.54.25-.83V2.5c0-.83-.67-1.5-1.5-1.5h-8.73c-1.76,0-3.25,1.32-3.47,3.07l-.62,4.93h-3.68c-2.21,0-4,1.79-4,4s1.79,4,4,4Zm0-5h5c.76,0,1.39-.56,1.49-1.31l.78-6.25c.03-.25.24-.44.5-.44h7.23v11.05l-3.05,4.57-.48-.21c-.38-.17-.66-.47-.8-.86-.14-.39-.11-.81.07-1.18l.6-1.19c.23-.46.21-1.02-.07-1.46-.27-.44-.76-.71-1.28-.71H5c-.55,0-1-.45-1-1s.45-1,1-1Z"/></svg>