<svg xmlns="http://www.w3.org/2000/svg" viewBox="0 0 24 24" width="24" height="24"><path d="m12.62,8.05c-.4-.06-.85-.06-1.25,0-1.72.27-3.05,1.61-3.32,3.33-.03.2-.05.41-.05.62s.02.43.05.63c.27,1.72,1.61,3.05,3.33,3.32.2.03.41.05.62.05s.43-.02.63-.05c1.72-.27,3.05-1.61,3.32-3.33.03-.2.05-.41.05-.62s-.02-.43-.05-.63c-.27-1.72-1.61-3.05-3.33-3.32Zm1.85,4.34c-.17,1.07-1,1.91-2.07,2.07-.25.04-.55.04-.79,0-1.07-.17-1.9-1-2.07-2.07-.02-.13-.03-.26-.03-.4s.01-.27.03-.39c.17-1.07,1-1.91,2.07-2.07.13-.02.26-.03.4-.03s.27.01.4.03c1.07.17,1.9,1,2.07,2.07.02.13.03.26.03.4s-.01.27-.03.39Z"/><path d="m17.34,4.67c-.83-2.16-2.93-3.66-5.34-3.66s-4.51,1.5-5.34,3.66c-2.32.13-4.39,1.66-5.13,3.96-.74,2.3.04,4.75,1.84,6.21-.6,2.23.22,4.68,2.17,6.1,1.01.73,2.19,1.09,3.37,1.09,1.09,0,2.17-.31,3.1-.91,1.94,1.24,4.52,1.22,6.48-.19,1.95-1.42,2.76-3.86,2.17-6.1,1.8-1.46,2.58-3.91,1.84-6.21-.74-2.3-2.82-3.83-5.13-3.96Zm.82,8.2c-.38.17-.67.5-.8.9-.13.4-.09.84.12,1.2.68,1.2.35,2.72-.77,3.53-1.12.81-2.68.66-3.62-.35-.57-.61-1.63-.61-2.2,0-.94,1.01-2.49,1.16-3.61.35-1.12-.81-1.45-2.33-.77-3.54.21-.37.25-.8.12-1.2-.13-.4-.42-.73-.8-.9-1.26-.57-1.88-2-1.46-3.32.37-1.14,1.43-1.89,2.6-1.89.18,0,.36.02.54.05.41.08.84-.01,1.18-.26.34-.25.56-.62.61-1.04.16-1.37,1.32-2.4,2.71-2.4s2.55,1.03,2.71,2.4c.05.42.27.79.61,1.04.34.25.77.34,1.18.26,1.36-.27,2.71.52,3.13,1.83.43,1.32-.2,2.75-1.46,3.32Z"/></svg>