<svg xmlns="http://www.w3.org/2000/svg" viewBox="0 0 24 24" width="24" height="24"><path d="m6.04,0h-.04c-1.47,0-2.79.54-3.83,1.57C.79,2.94,0,5.1,0,7.5c0,2.73.75,5.42,1,6.23v1.27c0,2.21,1.79,4,4,4s4-1.79,4-4v-1.5c0-1.21.41-2.25.89-3.44.61-1.52,1.29-3.24,1.06-5.44C10.67,2.01,8.56.02,6.04,0Zm-.04,15c0,.55-.45,1-1,1s-1-.45-1-1v-1.5h2v1.5Zm1.11-6.06c-.37.91-.76,1.92-.96,3.06h-2.52c-.27-1.06-.63-2.8-.63-4.5,0-1.58.48-3,1.29-3.8.47-.47,1.03-.7,1.71-.7h.02c.98,0,1.83.86,1.95,1.94.16,1.46-.32,2.64-.86,4Z"/><path d="m17.96,5c-2.52.02-4.63,2.01-4.91,4.62-.23,2.2.45,3.92,1.06,5.44.48,1.2.89,2.23.89,3.44v1.5c0,2.21,1.79,4,4,4s4-1.79,4-4v-1.27c.25-.81,1-3.5,1-6.23,0-2.4-.79-4.56-2.17-5.93-1.05-1.04-2.43-1.58-3.87-1.57Zm-1.93,4.94c.11-1.08.97-1.93,1.95-1.94h.02c.68,0,1.24.23,1.71.7.81.8,1.29,2.22,1.29,3.8,0,1.7-.36,3.44-.63,4.5h-2.52c-.2-1.14-.59-2.14-.96-3.06-.55-1.37-1.02-2.54-.86-4Zm3.97,10.06c0,.55-.45,1-1,1s-1-.45-1-1v-1.5h2v1.5Z"/></svg>