<svg xmlns="http://www.w3.org/2000/svg" viewBox="0 0 24 24" width="24" height="24"><path d="m14,5.28v-2.78c0-.83-.67-1.5-1.5-1.5-3.49,0-6.28,4.07-6.72,9.5h-2.78c-.83,0-1.5.67-1.5,1.5,0,3.49,4.07,6.28,9.5,6.72v2.78c0,.83.67,1.5,1.5,1.5,3.49,0,6.28-4.07,6.72-9.5h2.78c.83,0,1.5-.67,1.5-1.5,0-3.49-4.07-6.28-9.5-6.72Zm3.78,5.22c-.83,0-1.5.67-1.5,1.5,0,3.3-1.03,5.99-2.28,7.24v-1.97c0-.83-.67-1.5-1.5-1.5-3.3,0-5.99-1.03-7.24-2.28h1.97c.83,0,1.5-.67,1.5-1.5,0-3.3,1.03-5.99,2.28-7.24v1.97c0,.83.67,1.5,1.5,1.5,3.3,0,5.99,1.03,7.24,2.28h-1.97Z"/><path d="M12.5 10.5A1.5 1.5 0 1 0 12.5 13.5 1.5 1.5 0 1 0 12.5 10.5z"/></svg>