<svg xmlns="http://www.w3.org/2000/svg" viewBox="0 0 24 24" width="24" height="24"><path d="m23.81,23l-.81-11.05h0c-.03-6.04-4.95-10.95-11-10.95S1.03,5.91,1,11.95h0S.19,23,.19,23h23.61Zm-6.29-1.5c1.86-1.09,3.37-2.7,4.33-4.64l.34,4.64h-4.67ZM4.02,11.62c4.88-.49,7.03-3.31,7.98-5.69.95,2.38,3.1,5.2,7.98,5.69,0,.13.02.25.02.38,0,4.41-3.59,8-8,8s-8-3.59-8-8c0-.13.01-.26.02-.38Zm15.74-1.54c-4.84-.65-6.34-3.98-6.79-6.01,3.31.4,6,2.83,6.79,6.01Zm-8.72-6.01c-.46,2.03-1.95,5.35-6.79,6.01.79-3.18,3.48-5.61,6.79-6.01ZM1.81,21.5l.34-4.64c.96,1.94,2.47,3.55,4.33,4.64H1.81Z"/><path d="M8.5 12A1.5 1.5 0 1 0 8.5 15 1.5 1.5 0 1 0 8.5 12z"/><path d="M15.5 12A1.5 1.5 0 1 0 15.5 15 1.5 1.5 0 1 0 15.5 12z"/></svg>