<svg xmlns="http://www.w3.org/2000/svg" viewBox="0 0 24 24" width="24" height="24"><path d="m13.53,2.41c-.43-.41-1.07-.52-1.62-.29-.55.24-.91.78-.91,1.38v3.5h-1.5C4.81,7,1,10.81,1,15.5v5c0,.64.4,1.2,1,1.42.16.06.33.08.5.08.45,0,.88-.2,1.17-.56l1.9-2.37c1.05-1.31,2.61-2.06,4.29-2.06h1.14v3.5c0,.6.36,1.14.91,1.38.55.24,1.19.12,1.62-.29l9-8.5c.3-.28.47-.68.47-1.09s-.17-.81-.47-1.09L13.53,2.41Zm.47,14.61v-3.02h-4.14c-2.21,0-4.29.84-5.86,2.35v-.85c0-3.03,2.47-5.5,5.5-5.5h4.5v-3.02l5.32,5.02-5.32,5.02Z"/></svg>