<svg xmlns="http://www.w3.org/2000/svg" viewBox="0 0 24 24" width="24" height="24"><path d="M8.5 12A1.5 1.5 0 1 0 8.5 15 1.5 1.5 0 1 0 8.5 12z"/><path d="M15.5 12A1.5 1.5 0 1 0 15.5 15 1.5 1.5 0 1 0 15.5 12z"/><path d="m12,23c6.07,0,11-4.93,11-11S18.07,1,12,1,1,5.93,1,12s4.93,11,11,11Zm7.73-13.03c-2.15-.51-4.01-1.94-5.05-3.93.19-.33.37-.66.51-1.01.04-.1.07-.2.11-.3,2.16.99,3.81,2.91,4.42,5.25Zm-7.73-5.97c.65,0,1.28.09,1.89.23-.03.07-.05.14-.08.21-.16.39-.37.76-.59,1.12l-.03.05c-.34.53-.74,1-1.17,1.42-.06.05-.11.1-.17.16-.16.14-.32.28-.49.4-.07.06-.15.11-.23.17-.19.14-.4.26-.6.38-.04.03-.09.05-.13.08-.25.13-.5.25-.76.36-.09.04-.18.06-.27.1-.19.07-.38.13-.58.19-.09.03-.18.05-.28.07-.21.05-.42.09-.63.12-.09.01-.17.03-.26.04-.3.03-.59.06-.9.06-.71,0-1.4-.11-2.07-.3,1.23-2.84,4.06-4.84,7.35-4.84Zm-7.81,6.27c.82.24,1.66.37,2.53.37.33,0,.65-.02.98-.05.11-.01.21-.03.32-.05.19-.03.37-.05.56-.08.03,0,.05-.01.08-.02.13-.03.25-.06.38-.1.18-.05.35-.09.53-.15.14-.05.29-.1.43-.16.11-.04.21-.07.32-.12.05-.02.09-.05.14-.07.14-.06.28-.13.42-.2.14-.07.28-.14.41-.22.14-.08.27-.16.41-.25.06-.04.13-.07.19-.11.07-.05.13-.1.2-.15.12-.09.24-.17.35-.26.15-.12.29-.24.43-.36.09-.08.18-.15.26-.24.04-.04.08-.07.12-.11.14-.15.28-.3.41-.45.03-.03.06-.06.08-.09,1.4,2.21,3.69,3.72,6.26,4.15,0,.15.02.3.02.45,0,4.41-3.59,8-8,8s-8-3.59-8-8c0-.59.07-1.17.19-1.73Z"/></svg>