<svg xmlns="http://www.w3.org/2000/svg" viewBox="0 0 24 24" width="24" height="24"><path d="m2.5,19c1.75,0,3.44-.42,4.95-1.22.79.54,1.49,1,2.55,1.36v2.36c0,.83.67,1.5,1.5,1.5,2.84,0,5.22-1.5,6.18-3.81,3.26-1.2,5.32-3.95,5.32-7.19s-2.06-5.99-5.32-7.19c-.96-2.31-3.34-3.81-6.18-3.81-.83,0-1.5.67-1.5,1.5v2.36c-1.06.36-1.76.82-2.55,1.36-1.51-.8-3.2-1.22-4.95-1.22-.83,0-1.5.67-1.5,1.5,0,2,.83,4,2.21,5.5-1.38,1.5-2.21,3.5-2.21,5.5,0,.83.67,1.5,1.5,1.5Zm3.83-8.25c-.88-.58-1.59-1.51-1.99-2.53.83.21,1.61.55,2.33,1.02.5.34,1.16.34,1.66,0,.24-.16.46-.31.66-.45,1.02-.7,1.53-1.05,2.83-1.33.69-.15,1.18-.76,1.18-1.47v-1.75c1.04.37,1.8,1.13,2.04,2.11.13.52.53.94,1.05,1.08,2.37.66,3.9,2.45,3.9,4.55s-1.53,3.9-3.9,4.55c-.52.14-.92.56-1.05,1.08-.25.98-1.01,1.74-2.04,2.11v-1.75c0-.7-.49-1.31-1.18-1.47-1.3-.28-1.81-.64-2.83-1.33-.2-.14-.42-.29-.66-.45-.25-.17-.54-.25-.83-.25s-.58.08-.83.25c-.71.48-1.5.82-2.33,1.02.4-1.01,1.1-1.94,1.99-2.53.42-.28.67-.75.67-1.25s-.25-.97-.67-1.25Z"/><path d="M17 10A1 1 0 1 0 17 12 1 1 0 1 0 17 10z"/><path d="m14.32,15.18c-.85-.85-1.32-1.98-1.32-3.18s.47-2.33,1.32-3.18l-.71-.71c-1.04,1.04-1.61,2.42-1.61,3.89s.57,2.85,1.61,3.89l.71-.71Z"/></svg>