<svg xmlns="http://www.w3.org/2000/svg" viewBox="0 0 24 24" width="24" height="24"><path d="M8.5 11A1.5 1.5 0 1 0 8.5 14 1.5 1.5 0 1 0 8.5 11z"/><path d="M15.5 11A1.5 1.5 0 1 0 15.5 14 1.5 1.5 0 1 0 15.5 11z"/><path d="m12,1C5.93,1,1,5.93,1,12s4.93,11,11,11,11-4.93,11-11S18.07,1,12,1Zm7.37,7.89c-2-.58-3.7-1.97-4.69-3.85.09-.15.17-.31.25-.47,1.99.79,3.6,2.35,4.44,4.32Zm.63,3.11c0,1.23-.29,2.39-.78,3.43-1.14.27-3.88.82-7.22.82s-6.08-.55-7.22-.82c-.5-1.04-.78-2.2-.78-3.43,0-.93.17-1.82.46-2.65.73.19,1.49.29,2.26.29.33,0,.65-.02.97-.05.13-.01.26-.04.38-.06.17-.02.33-.04.5-.08.02,0,.04-.01.06-.02.14-.03.28-.07.43-.11.16-.04.32-.08.49-.14.15-.05.3-.11.44-.16.1-.04.21-.07.31-.11.04-.02.09-.04.13-.06.15-.06.29-.13.43-.21.14-.07.27-.14.4-.21.14-.08.28-.16.42-.25.06-.04.13-.07.19-.11.07-.05.13-.1.2-.15.12-.09.24-.17.36-.27.14-.11.28-.23.42-.36.09-.08.18-.16.27-.25.04-.04.08-.07.11-.1.14-.14.27-.29.4-.44.03-.03.06-.06.09-.1,1.38,2.17,3.62,3.66,6.14,4.13.09.48.14.97.14,1.47ZM12,4c.5,0,.99.05,1.47.14-.08.14-.17.28-.25.42l-.03.05c-.34.52-.73.99-1.17,1.41-.06.06-.12.11-.18.16-.16.14-.32.27-.49.4-.08.06-.15.11-.23.17-.19.14-.4.26-.6.38-.04.03-.09.06-.13.08-.25.13-.5.25-.76.36-.09.04-.18.07-.28.1-.18.07-.37.13-.56.18-.1.03-.2.05-.3.08-.2.05-.4.08-.6.11-.09.01-.18.03-.28.04-.29.03-.59.06-.89.06-.55,0-1.09-.06-1.62-.18,1.39-2.37,3.96-3.96,6.89-3.96Zm0,16c-2.43,0-4.6-1.09-6.07-2.8,1.47.27,3.6.55,6.07.55s4.6-.28,6.07-.55c-1.47,1.71-3.64,2.8-6.07,2.8Z"/></svg>