<svg xmlns="http://www.w3.org/2000/svg" viewBox="0 0 24 24" width="24" height="24"><path d="m4.07,14.71l4.93.62v3.68c0,2.21,1.79,4,4,4s4-1.79,4-4v-7.71c.84.2,1.72.15,2.55-.15,1.17-.42,2.09-1.27,2.59-2.41l.38-.86c.5-1.12.12-2.42-.9-3.1l-5.3-3.53c-.25-.16-.54-.25-.83-.25H2.5c-.83,0-1.5.67-1.5,1.5v8.73c0,1.76,1.32,3.25,3.07,3.47Zm-.07-10.71h11.05l4.57,3.05-.21.48c-.17.38-.47.66-.86.8-.39.14-.81.11-1.18-.07l-1.19-.6c-.46-.23-1.02-.21-1.46.07-.44.27-.71.76-.71,1.28v10c0,.55-.45,1-1,1s-1-.45-1-1v-5c0-.76-.56-1.39-1.31-1.49l-6.25-.78c-.25-.03-.44-.24-.44-.5v-7.23Z"/></svg>