<svg xmlns="http://www.w3.org/2000/svg" viewBox="0 0 24 24" width="24" height="24"><path d="m23,7c0-3.31-2.69-6-6-6-2.09,0-3.92,1.07-5,2.69-1.08-1.62-2.91-2.69-5-2.69C3.69,1,1,3.69,1,7c0,2.09,1.07,3.92,2.69,5-1.62,1.08-2.69,2.91-2.69,5,0,3.31,2.69,6,6,6,2.09,0,3.92-1.07,5-2.69,1.08,1.62,2.91,2.69,5,2.69,3.31,0,6-2.69,6-6,0-2.09-1.07-3.92-2.69-5,1.62-1.08,2.69-2.91,2.69-5Zm-6-3c1.65,0,3,1.35,3,3s-1.28,2.93-2.88,3c-.02-.06-.06-.11-.09-.17-.1-.23-.22-.46-.35-.67-.05-.09-.1-.17-.16-.26-.19-.27-.39-.53-.63-.77,0,0-.02-.02-.03-.03-.23-.23-.49-.44-.77-.62-.09-.06-.18-.11-.27-.17-.21-.13-.42-.24-.65-.33-.06-.03-.12-.07-.18-.09.07-1.6,1.39-2.88,3-2.88Zm-4.6,10.47c-.26.04-.56.04-.8,0-1.07-.17-1.9-1-2.07-2.06-.02-.13-.03-.26-.03-.4s.01-.28.03-.4c.02-.13.05-.26.09-.39.29-.88,1.04-1.53,1.97-1.68.13-.02.26-.03.4-.03s.28.01.4.03c1.07.17,1.9,1,2.07,2.06.02.13.03.26.03.4s-.01.28-.03.4c-.02.13-.05.26-.09.39-.29.88-1.04,1.53-1.97,1.68ZM7,4c1.61,0,2.93,1.28,3,2.88-.06.02-.11.06-.17.09-.23.1-.46.21-.67.34-.09.05-.18.1-.26.16-.27.18-.53.39-.76.62-.02.01-.03.03-.05.04-.23.23-.43.49-.62.76-.06.09-.12.19-.17.28-.12.2-.23.42-.33.64-.03.07-.07.12-.1.19-1.6-.07-2.88-1.38-2.88-3s1.35-3,3-3Zm0,16c-1.65,0-3-1.35-3-3s1.28-2.93,2.88-3c.02.06.06.11.09.17.1.23.22.46.35.67.05.09.1.17.16.26.19.27.39.53.63.77,0,0,.02.02.03.03.23.23.49.44.77.62.09.06.18.11.27.17.21.13.42.24.65.33.06.03.12.07.18.09-.07,1.6-1.39,2.88-3,2.88Zm10,0c-1.61,0-2.93-1.28-3-2.88.06-.02.11-.06.17-.09.23-.1.46-.21.67-.34.09-.05.18-.1.26-.16.27-.18.53-.39.76-.62.02-.01.03-.03.05-.04.23-.23.43-.49.62-.76.06-.09.12-.19.17-.28.12-.2.23-.42.33-.64.03-.07.07-.12.1-.19,1.6.07,2.88,1.38,2.88,3s-1.35,3-3,3Z"/></svg>