<svg xmlns="http://www.w3.org/2000/svg" width="24" height="24" viewBox="0 0 24 24"><path d="M11 14h2v2h-2zM15 14h2v2h-2zM7 14h2v2H7z"/><path d="M8.5 2h-5C2.67 2 2 2.67 2 3.5v16c0 .83.67 1.5 1.5 1.5h17c.83 0 1.5-.67 1.5-1.5v-13c0-.59-.34-1.12-.88-1.37-.54-.24-1.17-.15-1.61.24L18 6.69V6.5c0-.59-.34-1.12-.88-1.37-.54-.24-1.17-.15-1.61.24L14 6.69V6.5c0-.59-.34-1.12-.88-1.37-.54-.24-1.17-.15-1.61.24L10 6.69V3.5C10 2.67 9.33 2 8.5 2M11 9.81V10c0 .59.34 1.12.88 1.37.54.24 1.17.15 1.61-.24L15 9.81V10c0 .59.34 1.12.88 1.37.54.24 1.16.15 1.61-.24L19 9.81V18H5V5h2v5c0 .59.34 1.12.88 1.37.54.24 1.16.15 1.61-.24z"/></svg>