<svg xmlns="http://www.w3.org/2000/svg" viewBox="0 0 24 24" width="24" height="24"><path d="m2.37,19.22l5.3,3.53c.25.16.54.25.83.25h13c.83,0,1.5-.67,1.5-1.5v-8.73c0-1.76-1.32-3.25-3.07-3.47l-4.93-.62v-3.68c0-2.21-1.79-4-4-4s-4,1.79-4,4v7.71c-.84-.2-1.72-.15-2.55.15-1.17.42-2.09,1.27-2.59,2.41l-.38.86c-.5,1.12-.12,2.42.9,3.1Zm2.23-2.74c.17-.38.47-.66.86-.8.39-.14.81-.11,1.18.07l1.19.6c.46.23,1.02.21,1.46-.07.44-.27.71-.76.71-1.28V5c0-.55.45-1,1-1s1,.45,1,1v5c0,.76.56,1.39,1.31,1.49l6.25.78c.25.03.44.24.44.5v7.23h-11.05l-4.57-3.05.21-.48Z"/></svg>