<svg xmlns="http://www.w3.org/2000/svg" viewBox="0 0 24 24" width="24" height="24"><path d="m20.24,5.42L12.74,1.19c-.46-.26-1.01-.26-1.47,0L3.76,5.42c-.47.27-.76.77-.76,1.31v10.56c0,.54.29,1.04.76,1.31l7.5,4.22c.23.13.48.19.74.19s.51-.06.74-.19l7.5-4.22c.47-.27.76-.77.76-1.31V6.72c0-.54-.29-1.04-.76-1.31Zm-4.74,2.43l-2.5-1.43v-1.64l3.96,2.23-1.46.83Zm-3.5,8l-2.5-1.43v-4.84l2.5-1.43,2.5,1.43v4.84l-2.5,1.43Zm-1-9.43l-2.5,1.43-1.46-.83,3.96-2.23v1.64Zm-3.5,3.16v4.84l-1.5.86v-6.55l1.5.86Zm1,6.57l2.5,1.43v1.64l-3.96-2.23,1.46-.83Zm4.5,1.43l2.5-1.43,1.46.83-3.96,2.23v-1.64Zm3.5-3.16v-4.84l1.5-.86v6.55l-1.5-.86Z"/></svg>