<svg xmlns="http://www.w3.org/2000/svg" viewBox="0 0 24 24" width="24" height="24"><path class="b" d="m9,2h-5c-1.1,0-2,.9-2,2v5c0,1.1.9,2,2,2h5c1.1,0,2-.9,2-2v-5c0-1.1-.9-2-2-2Zm-1,6h-3v-3h3v3Z"/><path class="b" d="m15,11h5c1.1,0,2-.9,2-2v-5c0-1.1-.9-2-2-2h-5c-1.1,0-2,.9-2,2v5c0,1.1.9,2,2,2Zm1-6h3v3h-3v-3Z"/><path class="b" d="m9,13h-5c-1.1,0-2,.9-2,2v5c0,1.1.9,2,2,2h5c1.1,0,2-.9,2-2v-5c0-1.1-.9-2-2-2Zm-1,6h-3v-3h3v3Z"/><path class="b" d="m20.54,16.79c0-1-.39-1.94-1.1-2.65-1.42-1.42-3.89-1.42-5.3,0-.71.71-1.1,1.65-1.1,2.65s.39,1.94,1.1,2.65,1.65,1.1,2.65,1.1c.75,0,1.46-.22,2.07-.62l2.26,2.26,1.06-1.06-2.26-2.26c.4-.61.62-1.32.62-2.07Zm-5.34,1.59c-.42-.42-.66-.99-.66-1.59s.23-1.17.66-1.59.99-.66,1.59-.66,1.17.23,1.59.66.66.99.66,1.59-.23,1.17-.66,1.59c-.85.85-2.33.85-3.18,0Z"/></svg>