<svg xmlns="http://www.w3.org/2000/svg" width="24" height="24" viewBox="0 0 24 24"><path d="M18 8c-1.67 0-3.11 1.04-3.7 2.5H11c-1.38 0-2.57-.81-3.14-1.98A3.98 3.98 0 0 0 10 5c0-2.21-1.79-4-4-4S2 2.79 2 5c0 1.67 1.04 3.11 2.5 3.7v6.59c-1.46.6-2.5 2.03-2.5 3.7 0 2.21 1.79 4 4 4s4-1.79 4-4c0-1.67-1.04-3.11-2.5-3.7v-2.83c1.01.65 2.21 1.03 3.5 1.03h3.3c.6 1.46 2.03 2.5 3.7 2.5 2.21 0 4-1.79 4-4s-1.79-4-4-4ZM6 4c.55 0 1 .45 1 1s-.45 1-1 1-1-.45-1-1 .45-1 1-1m0 16c-.55 0-1-.45-1-1s.45-1 1-1 1 .45 1 1-.45 1-1 1m12-7c-.55 0-1-.45-1-1s.45-1 1-1 1 .45 1 1-.45 1-1 1"/></svg>