<svg xmlns="http://www.w3.org/2000/svg" viewBox="0 0 24 24" width="24" height="24"><path d="m12,1C5.93,1,1,5.93,1,12s4.93,11,11,11,11-4.93,11-11S18.07,1,12,1Zm7.96,10.25h-3.98c-.08-2.62-.59-5.18-1.49-6.85,2.96.98,5.17,3.64,5.47,6.85Zm-7.96,8.75c-.97,0-2.34-2.8-2.49-7.25h4.97c-.14,4.45-1.52,7.25-2.49,7.25Zm-2.49-8.75c.14-4.45,1.52-7.25,2.49-7.25s2.34,2.8,2.49,7.25h-4.97Zm0-6.85c-.91,1.67-1.41,4.22-1.49,6.85h-3.98c.3-3.21,2.5-5.87,5.47-6.85Zm-5.47,8.35h3.98c.08,2.62.59,5.18,1.49,6.85-2.96-.98-5.17-3.64-5.47-6.85Zm10.45,6.85c.91-1.67,1.41-4.22,1.49-6.85h3.98c-.3,3.21-2.5,5.87-5.47,6.85Z"/></svg>