<svg xmlns="http://www.w3.org/2000/svg" width="24" height="24" viewBox="0 0 24 24"><path d="M7 16.25H3c-.41 0-.75.34-.75.75v4c0 .41.34.75.75.75h4c.41 0 .75-.34.75-.75v-4c0-.41-.34-.75-.75-.75m-.75 4h-2.5v-2.5h2.5zM14 16.25h-4c-.41 0-.75.34-.75.75v4c0 .41.34.75.75.75h4c.41 0 .75-.34.75-.75v-4c0-.41-.34-.75-.75-.75m-.75 4h-2.5v-2.5h2.5zM21 16.25h-4c-.41 0-.75.34-.75.75v4c0 .41.34.75.75.75h4c.41 0 .75-.34.75-.75v-4c0-.41-.34-.75-.75-.75m-.75 4h-2.5v-2.5h2.5zM7 9.25H3c-.41 0-.75.34-.75.75v4c0 .41.34.75.75.75h4c.41 0 .75-.34.75-.75v-4c0-.41-.34-.75-.75-.75m-.75 4h-2.5v-2.5h2.5zM14 9.25h-4c-.41 0-.75.34-.75.75v4c0 .41.34.75.75.75h4c.41 0 .75-.34.75-.75v-4c0-.41-.34-.75-.75-.75m-.75 4h-2.5v-2.5h2.5zM21 9.25h-4c-.41 0-.75.34-.75.75v4c0 .41.34.75.75.75h4c.41 0 .75-.34.75-.75v-4c0-.41-.34-.75-.75-.75m-.75 4h-2.5v-2.5h2.5zM7 2.25H3c-.41 0-.75.34-.75.75v4c0 .41.34.75.75.75h4c.41 0 .75-.34.75-.75V3c0-.41-.34-.75-.75-.75m-.75 4h-2.5v-2.5h2.5zM14 2.25h-4c-.41 0-.75.34-.75.75v4c0 .41.34.75.75.75h4c.41 0 .75-.34.75-.75V3c0-.41-.34-.75-.75-.75m-.75 4h-2.5v-2.5h2.5zM21 2.25h-4c-.41 0-.75.34-.75.75v4c0 .41.34.75.75.75h4c.41 0 .75-.34.75-.75V3c0-.41-.34-.75-.75-.75m-.75 4h-2.5v-2.5h2.5z"/></svg>