<svg xmlns="http://www.w3.org/2000/svg" width="24" height="24" viewBox="0 0 24 24"><path d="M6.5 11C8.98 11 11 8.98 11 6.5S8.98 2 6.5 2 2 4.02 2 6.5 4.02 11 6.5 11m0-6C7.33 5 8 5.67 8 6.5S7.33 8 6.5 8 5 7.33 5 6.5 5.67 5 6.5 5M17.5 13c-2.48 0-4.5 2.02-4.5 4.5s2.02 4.5 4.5 4.5 4.5-2.02 4.5-4.5-2.02-4.5-4.5-4.5m0 6c-.83 0-1.5-.67-1.5-1.5s.67-1.5 1.5-1.5 1.5.67 1.5 1.5-.67 1.5-1.5 1.5M20 2h-5c-1.1 0-2 .9-2 2v5c0 1.1.9 2 2 2h5c1.1 0 2-.9 2-2V4c0-1.1-.9-2-2-2m-1 6h-3V5h3zM4 22h5c1.1 0 2-.9 2-2v-5c0-1.1-.9-2-2-2H4c-1.1 0-2 .9-2 2v5c0 1.1.9 2 2 2m1-6h3v3H5z"/></svg>