<svg xmlns="http://www.w3.org/2000/svg" viewBox="0 0 24 24" width="24" height="24"><path d="m12,1C5.93,1,1,5.93,1,12s4.93,11,11,11,11-4.93,11-11S18.07,1,12,1Zm3.6,12.9c.05-.63.07-1.27.07-1.9s-.03-1.28-.07-1.9c2.87.45,4.4,1.36,4.4,1.9s-1.53,1.46-4.4,1.9Zm-3.6,6.1c-.54,0-1.46-1.53-1.9-4.4.63.05,1.27.07,1.9.07s1.28-.03,1.9-.07c-.45,2.87-1.36,4.4-1.9,4.4Zm0-5.83c-.74,0-1.44-.03-2.08-.09-.05-.65-.09-1.34-.09-2.08s.03-1.44.09-2.08c.65-.05,1.34-.09,2.08-.09s1.44.03,2.08.09c.05.65.09,1.34.09,2.08s-.03,1.44-.09,2.08c-.65.05-1.34.09-2.08.09Zm-8-2.17c0-.54,1.53-1.46,4.4-1.9-.05.63-.07,1.27-.07,1.9s.03,1.28.07,1.9c-2.87-.45-4.4-1.36-4.4-1.9ZM12,4c.54,0,1.46,1.53,1.9,4.4-.63-.05-1.27-.07-1.9-.07s-1.28.03-1.9.07c.45-2.87,1.36-4.4,1.9-4.4Zm7.67,5.75c-1.09-.56-2.58-.96-4.24-1.19-.23-1.65-.63-3.14-1.19-4.24,2.6.77,4.66,2.82,5.42,5.42Zm-9.92-5.42c-.56,1.09-.96,2.58-1.19,4.24-1.65.23-3.14.63-4.24,1.19.77-2.6,2.82-4.66,5.42-5.42Zm-5.42,9.92c1.09.56,2.58.96,4.24,1.19.23,1.65.63,3.14,1.19,4.24-2.6-.77-4.66-2.82-5.42-5.42Zm9.92,5.42c.56-1.09.96-2.58,1.19-4.24,1.65-.23,3.14-.63,4.24-1.19-.77,2.6-2.82,4.66-5.42,5.42Z"/></svg>