<svg xmlns="http://www.w3.org/2000/svg" width="24" height="24" viewBox="0 0 24 24"><path d="M4 1H3v3h1v.61c0 2.76 1.51 5.35 3.94 6.75.25.14.39.35.39.56v.17c0 .21-.15.42-.4.56-2.43 1.4-3.94 3.98-3.94 6.75v.61h-1v3h18v-3h-1v-.61c0-2.76-1.51-5.35-3.94-6.75-.25-.14-.4-.35-.4-.56v-.17c0-.21.15-.42.4-.56 2.43-1.4 3.94-3.98 3.94-6.75V4h1V1zm13 3.61c0 1.69-.93 3.28-2.43 4.15-1.19.68-1.9 1.86-1.9 3.16v.17c0 1.29.71 2.47 1.9 3.16 1.5.86 2.43 2.45 2.43 4.15v.61H7v-.61c0-1.69.93-3.28 2.44-4.15 1.19-.68 1.9-1.87 1.9-3.16v-.17c0-1.3-.71-2.48-1.9-3.16-1.5-.86-2.43-2.45-2.43-4.15V4h10v.61Z"/></svg>