<svg xmlns="http://www.w3.org/2000/svg" viewBox="0 0 24 24" width="24" height="24"><path d="m11.27,1.02C5.7,1.39,1,6.57,1,12.33v5.17c0,3.03,2.47,5.5,5.5,5.5h5.17c5.76,0,10.94-4.7,11.31-10.26.21-3.17-.96-6.27-3.2-8.51S14.44.82,11.27,1.02Zm-6.82,8.73h8.55c.14,0,.25.11.25.25v4c0,.14-.11.25-.25.25H4v-1.92c0-.89.17-1.76.45-2.58Zm7.22,10.25h-5.17c-1.38,0-2.5-1.12-2.5-2.5v-1.75h9c.96,0,1.75-.79,1.75-1.75v-4c0-.96-.79-1.75-1.75-1.75h-7.87c1.34-2.34,3.73-4.06,6.33-4.23.18-.01.35-.02.52-.02,2.12,0,4.17.84,5.67,2.34.83.83,1.45,1.82,1.85,2.91h-2.51v1.5h2.9c.09.59.13,1.19.09,1.79-.02.24-.05.47-.09.71h-2.9v1.5h2.45c-1.23,2.97-4.42,5.25-7.78,5.25Z"/></svg>