<svg xmlns="http://www.w3.org/2000/svg" width="24" height="24" viewBox="0 0 24 24"><path d="M22.14 7.72c-.27-.65-.62-1.28-1.01-1.87-.39-.58-.85-1.13-1.34-1.63-.5-.5-1.04-.95-1.63-1.34-.59-.4-1.21-.74-1.87-1.01a11.015 11.015 0 0 0-8.57 0c-.65.28-1.28.62-1.87 1.01-.58.39-1.13.84-1.63 1.34-.17.17-.32.35-.48.52L1 2v7h7L5.87 6.87c.15-.18.31-.36.48-.52.36-.36.76-.69 1.18-.98.43-.29.89-.54 1.36-.74.48-.2.99-.36 1.5-.46 1.05-.22 2.17-.22 3.23 0a7.78 7.78 0 0 1 2.86 1.2c.42.29.82.62 1.19.98.36.36.69.76.98 1.18.29.43.54.89.74 1.36.2.48.36.99.47 1.5.11.53.16 1.07.16 1.62s-.05 1.09-.16 1.61c-.1.51-.26 1.02-.47 1.5a7.871 7.871 0 0 1-1.72 2.54c-.36.36-.76.69-1.18.98-.43.29-.89.54-1.36.74-.48.2-.99.36-1.5.46-1.05.22-2.17.22-3.23 0a7.78 7.78 0 0 1-2.86-1.2c-.42-.29-.82-.62-1.19-.98-.36-.36-.69-.76-.98-1.18-.29-.43-.54-.89-.74-1.36-.2-.48-.36-.99-.47-1.5C4.05 13.09 4 12.55 4 12H1c0 .75.08 1.49.22 2.22.14.71.36 1.4.64 2.07.28.65.62 1.28 1.01 1.87.39.58.85 1.13 1.34 1.63.5.5 1.04.95 1.63 1.34.59.4 1.21.74 1.87 1.01A10.926 10.926 0 0 0 12 23c.75 0 1.49-.08 2.21-.22.71-.14 1.4-.36 2.07-.64.65-.28 1.28-.62 1.87-1.01.58-.39 1.13-.84 1.63-1.34s.95-1.05 1.34-1.63c.4-.59.74-1.22 1.01-1.87a10.9 10.9 0 0 0 .86-4.28c0-.74-.08-1.49-.22-2.22-.14-.71-.36-1.4-.64-2.07Z"/><path d="M11.25 7v5.75H17v-1.5h-4.25V7z"/></svg>