<svg xmlns="http://www.w3.org/2000/svg" viewBox="0 0 24 24" width="24" height="24"><path d="m19.38,4c-1.31,0-2.47.7-3.1,1.75h-2.02v-.12c0-2-1.63-3.62-3.62-3.62s-3.62,1.63-3.62,3.62v5.69l-.07-.04c-.55-.36-1.19-.55-1.85-.55-.77,0-1.52.26-2.12.74-.75.6-1.21,1.5-1.27,2.46s.31,1.9.99,2.59l3.73,3.73c1.13,1.13,2.64,1.76,4.24,1.76h6.34c3.31,0,6-2.69,6-6V7.62c0-2-1.63-3.62-3.63-3.62Zm-3.62,5.5c0-.41.34-.75.75-.75s.75.34.75.75v2.25c0,.41-.34.75-.75.75s-.75-.34-.75-.75v-2.25Zm-3,0c0-.41.34-.75.75-.75s.75.34.75.75v3.25c0,.41-.34.75-.75.75s-.75-.34-.75-.75v-3.25Zm7.25,6.5c0,1.65-1.35,3-3,3h-6.34c-.79,0-1.56-.32-2.12-.88l-3.73-3.73c-.11-.11-.12-.23-.11-.3,0-.07.03-.19.15-.29.07-.06.16-.09.25-.09.07,0,.15.02.21.06l3.16,2.05c.31.2.7.21,1.02.04.32-.17.52-.51.52-.88V5.62c0-.34.28-.62.62-.62s.62.28.62.62v7.12c0,1.24,1.01,2.25,2.25,2.25.88,0,1.63-.51,2-1.24.3.15.64.24,1,.24,1.24,0,2.25-1.01,2.25-2.25v-4.12c0-.34.28-.62.62-.62s.62.28.62.62v8.38Z"/></svg>