<svg xmlns="http://www.w3.org/2000/svg" viewBox="0 0 24 24" width="24" height="24"><path d="m19.92,4.03c-.56-1.2-1.77-2.03-3.17-2.03h-.7c-.67-.62-1.56-1-2.55-1s-1.88.38-2.55,1h-.45c-1.93,0-3.5,1.57-3.5,3.5v6.81l-.07-.04c-.55-.36-1.19-.55-1.85-.55-.77,0-1.52.26-2.12.74-.75.6-1.21,1.5-1.27,2.46s.31,1.9.99,2.59l3.73,3.73c1.13,1.13,2.64,1.76,4.24,1.76h6.34c3.31,0,6-2.69,6-6V7.5c0-1.79-1.35-3.26-3.08-3.47Zm-6.92,8.97V4.5c0-.28.22-.5.5-.5s.5.22.5.5v8.5h2V5h.5c.28,0,.5.22.5.5v7.5h2v-6h.5c.28,0,.5.22.5.5v9.5c0,1.65-1.35,3-3,3h-6.34c-.79,0-1.56-.32-2.12-.88l-3.73-3.73c-.11-.11-.12-.23-.11-.3,0-.07.03-.19.15-.29.07-.06.16-.09.25-.09.07,0,.15.02.21.06l3.16,2.05c.31.2.7.21,1.02.04.32-.17.52-.51.52-.88V5.5c0-.28.22-.5.5-.5h.5v8h2Z"/></svg>