<svg xmlns="http://www.w3.org/2000/svg" width="24" height="24" viewBox="0 0 24 24"><path d="M17.06 1.44C16.78 1.16 16.4 1 16 1H8c-.4 0-.78.16-1.06.44l-5.5 5.5C1.16 7.22 1 7.6 1 8v8c0 .4.16.78.44 1.06l5.5 5.5c.28.28.66.44 1.06.44h8c.4 0 .78-.16 1.06-.44l5.5-5.5c.28-.28.44-.66.44-1.06V8c0-.4-.16-.78-.44-1.06zM20 15.38 15.38 20H8.62L4 15.38V8.62L8.62 4h6.76L20 8.62z"/><path d="M11.25 16.25h1.5v1.5h-1.5zM13.27 6.25c-2.08-.75-4.47.35-5.22 2.39l1.41.52c.47-1.28 1.99-1.96 3.31-1.49.98.35 1.64 1.27 1.65 2.29 0 1.55-2.62 2.51-2.65 2.52-.3.1-.51.39-.51.71v1.07h1.5v-.57c1.01-.45 3.16-1.66 3.16-3.74a3.98 3.98 0 0 0-2.64-3.7Z"/></svg>