<svg xmlns="http://www.w3.org/2000/svg" viewBox="0 0 24 24" width="24" height="24"><path d="m21.01,4c-1.29-1.29-2.98-2-4.77-2h0c-1.55,0-3.03.54-4.23,1.52-1.2-.98-2.68-1.51-4.23-1.52h0c-1.79,0-3.49.71-4.78,2-2.66,2.69-2.66,6.89,0,9.57l7.95,7.99c.28.28.66.44,1.06.44s.78-.16,1.06-.44l7.95-7.99c2.66-2.68,2.66-6.88,0-9.57,0,0,0,0,0,0Zm-2.12,7.46l-6.89,6.92-6.89-6.92c-1.49-1.49-1.48-3.84,0-5.34.72-.72,1.66-1.12,2.65-1.12h0c.99,0,1.92.4,2.64,1.12l.53.53c.56.56,1.56.56,2.13,0l.53-.53c.72-.72,1.65-1.12,2.64-1.12h0c.99,0,1.93.4,2.65,1.12,1.48,1.5,1.48,3.85,0,5.34Z"/><path d="M12.75 8.5 11.25 8.5 11.25 11.25 8.5 11.25 8.5 12.75 11.25 12.75 11.25 15.5 12.75 15.5 12.75 12.75 15.5 12.75 15.5 11.25 12.75 11.25 12.75 8.5z"/></svg>