<svg xmlns="http://www.w3.org/2000/svg" width="24" height="24" viewBox="0 0 24 24"><path d="M13.5 10.85v-.08c.76-.24 1.46-.66 2.04-1.24.94-.94 1.46-2.2 1.46-3.54s-.52-2.59-1.46-3.54C14.6 1.51 13.34.99 12 .99s-2.59.52-3.54 1.46C7.52 3.39 7 4.65 7 5.99h3c0-.53.21-1.04.58-1.41.76-.76 2.07-.75 2.83 0 .38.38.59.88.59 1.42s-.21 1.04-.58 1.41c-.38.38-.88.59-1.42.59-.83 0-1.5.67-1.5 1.5v1.35l-9.03 8.56a1.48 1.48 0 0 0-.36 1.64c.23.57.78.94 1.39.94h19c.61 0 1.17-.37 1.39-.94.23-.57.08-1.22-.36-1.64zM6.26 19 12 13.57 17.74 19z"/></svg>