<svg xmlns="http://www.w3.org/2000/svg" width="24" height="24" viewBox="0 0 24 24"><path d="M2.5 13H3v7.5A2.5 2.5 0 0 0 5.5 23h13a2.5 2.5 0 0 0 2.5-2.5V13h.5c.61 0 1.17-.37 1.39-.94.23-.57.08-1.22-.36-1.64l-9.5-9.01c-.58-.55-1.48-.55-2.06 0l-9.5 9a1.48 1.48 0 0 0-.36 1.64c.23.57.78.94 1.39.94ZM12 4.57l6 5.68V20H6v-9.75z"/><path d="m8.59 14.65.06.06L12 18l3.35-3.29c.85-.82.87-2.16.06-3.01l-.06-.06c-.87-.86-2.26-.86-3.12 0l-.22.22-.22-.22c-.87-.86-2.26-.86-3.12 0-.85.82-.87 2.16-.06 3.01Z"/></svg>