<svg xmlns="http://www.w3.org/2000/svg" viewBox="0 0 24 24" width="24" height="24"><path d="m21.01,4c-1.29-1.29-2.98-2-4.77-2h0c-1.55,0-3.03.54-4.23,1.52-1.2-.98-2.68-1.51-4.23-1.52h0c-1.79,0-3.49.71-4.78,2-2.66,2.69-2.66,6.89,0,9.57l7.95,7.99c.28.28.66.44,1.06.44s.78-.16,1.06-.44l7.95-7.99c2.66-2.68,2.66-6.88,0-9.57,0,0,0,0,0,0Zm-15.9,7.46c-1.49-1.49-1.48-3.84,0-5.34.72-.72,1.66-1.12,2.65-1.12h0c.99,0,1.92.4,2.64,1.12l.53.53c.12.12.27.2.42.27l-2.63,2.65c-.51.52-.51,1.36,0,1.88.49.49,1.13.73,1.77.73s1.28-.24,1.77-.73l1.74-1.74,3.31,3.31-.79.79-2.18-2.18-.71.71,2.18,2.18-.79.79-2.18-2.18-.71.71,2.18,2.18-.79.79-2.18-2.18-.71.71,2.18,2.18-.83.84-6.89-6.92Zm13.77,0l-.86.86-3.31-3.31,1.14-1.14-.71-.71-3.59,3.59c-.58.58-1.54.58-2.12,0-.13-.13-.13-.34,0-.47l3.42-3.44-.03-.03c.08-.05.17-.09.24-.16l.53-.53c.72-.72,1.65-1.12,2.64-1.12h0c.99,0,1.93.4,2.65,1.12,1.48,1.5,1.48,3.85,0,5.34Z"/></svg>