<svg xmlns="http://www.w3.org/2000/svg" viewBox="0 0 24 24" width="24" height="24"><path d="m21.01,4c-1.29-1.29-2.98-2-4.77-2h0c-1.55,0-3.03.54-4.23,1.52-1.2-.98-2.68-1.51-4.23-1.52h0c-1.79,0-3.49.71-4.78,2-2.66,2.69-2.66,6.89,0,9.57l7.95,7.99c.28.28.66.44,1.06.44s.78-.16,1.06-.44l7.95-7.99c2.66-2.68,2.66-6.88,0-9.57,0,0,0,0,0,0Zm-15.9,2.12c.72-.72,1.66-1.12,2.65-1.12h0c.99,0,1.92.4,2.64,1.12l.53.53c.08.08.18.12.27.17l-2.12,4.08c-.12.23-.11.51.02.74.14.22.38.36.64.36h3.42l-2.04,5.5-6.02-6.04c-1.49-1.49-1.48-3.84,0-5.34Zm13.78,5.34l-6.24,6.27,2.31-6.22c.09-.23.05-.49-.09-.69-.14-.2-.37-.32-.62-.32h-3.26l1.96-3.78s.08-.04.11-.07l.53-.53c.72-.72,1.65-1.12,2.64-1.12h0c.99,0,1.93.4,2.65,1.12,1.48,1.5,1.48,3.85,0,5.34Z"/></svg>