<svg xmlns="http://www.w3.org/2000/svg" viewBox="0 0 24 24" width="24" height="24"><path d="m17.28,4.18c-1.03-1.93-3.05-3.18-5.28-3.18s-4.25,1.25-5.28,3.18c-2.15.57-3.72,2.53-3.72,4.82,0,2.41,1.71,4.42,3.98,4.89l3.65,8.22c.24.54.78.89,1.37.89s1.13-.35,1.37-.89l3.65-8.22c2.27-.47,3.98-2.49,3.98-4.89s-1.57-4.25-3.72-4.82Zm-5.28,13.62l-1.69-3.81h3.38l-1.69,3.81Zm4-6.81h-8c-1.1,0-2-.9-2-2,0-1.04.82-1.91,1.87-1.98l.99-.07.33-.94c.42-1.21,1.55-2.02,2.82-2.02s2.39.81,2.82,2.02l.33.94.99.07c1.05.07,1.87.94,1.87,1.98,0,1.1-.9,2-2,2Z"/></svg>