<svg xmlns="http://www.w3.org/2000/svg" viewBox="0 0 24 24" width="24" height="24"><path d="m19.49,18.09c-.97-1.87-3.26-4.19-7.49-4.19-.47,0-.9.04-1.32.1.21-2.91,1.15-4.92,1.96-6.14.12.79.12,1.68-.06,2.68l1.97.35c.27-1.52.2-2.86-.09-4.05.66.22,1.35.54,2.07,1l1.08-1.68c-1.42-.91-2.78-1.39-4.04-1.59-1.07-1.92-2.68-3.16-3.81-3.7l-.86,1.8c.09.05,1.22.61,2.22,1.82-2.88.3-4.8,1.83-4.83,1.85l1.27,1.55c.07-.06.9-.71,2.24-1.13-1.07,1.81-2.14,4.56-2.16,8.35-1.82,1.16-2.88,2.92-3.36,4.33-.02-.02-.04-.03-.06-.06-.61-.55-1.53-1.39-3.21-1.39v3c.5,0,.68.15,1.19.61.61.55,1.53,1.39,3.21,1.39s2.6-.84,3.21-1.39c.51-.46.69-.61,1.19-.61s.68.15,1.19.61c.61.55,1.53,1.39,3.21,1.39s2.6-.84,3.21-1.39c.51-.46.7-.61,1.19-.61s.68.15,1.19.61c.61.55,1.53,1.39,3.21,1.39v-3c-.5,0-.68-.15-1.19-.61-.49-.45-1.19-1.07-2.32-1.3Zm-5.3,1.91c-.5,0-.68-.15-1.19-.61-.61-.55-1.53-1.39-3.21-1.39-.48,0-.89.07-1.26.18.76-.71,1.86-1.28,3.46-1.28,2.32,0,3.6.92,4.3,1.76-.37.24-.67.51-.91.73-.51.46-.7.61-1.19.61Z"/></svg>