<svg xmlns="http://www.w3.org/2000/svg" width="24" height="24" viewBox="0 0 24 24"><path d="M12 14.75c2.07 0 3.75-1.68 3.75-3.75S14.07 7.25 12 7.25 8.25 8.93 8.25 11s1.68 3.75 3.75 3.75m0-6c1.24 0 2.25 1.01 2.25 2.25s-1.01 2.25-2.25 2.25S9.75 12.24 9.75 11 10.76 8.75 12 8.75"/><path d="M11.48 22.91c.17.06.35.09.52.09s.35-.03.52-.09c.39-.14 9.48-3.63 9.48-11.96 0-5.48-4.49-9.94-10-9.94S2 5.46 2 10.94c0 8.33 9.09 11.82 9.48 11.96ZM12 4c3.86 0 7 3.12 7 6.94 0 5.26-5.29 8.13-7 8.92-1.71-.79-7-3.67-7-8.92C5 7.11 8.14 4 12 4"/></svg>