<svg xmlns="http://www.w3.org/2000/svg" viewBox="0 0 24 24" width="24" height="24"><path d="m5,7.94c-.02,5.39,5.88,9.61,6.14,9.79.26.18.56.27.86.27s.6-.09.86-.27c.25-.18,6.16-4.4,6.14-9.78,0-3.83-3.14-6.94-7-6.94s-7,3.12-7,6.94Zm11,0h0c.01,2.63-2.4,5.27-4,6.65-1.6-1.38-4.01-4.02-4-6.65,0-2.17,1.79-3.94,4-3.94s4,1.77,4,3.94Z"/><path d="M12 6A2 2 0 1 0 12 10 2 2 0 1 0 12 6z"/><path d="m19.07,14.06c-.61.96-1.3,1.82-1.97,2.54,1.72.46,2.7,1.06,2.88,1.39-.32.59-3.07,2-7.99,2s-7.81-1.48-8.01-1.96c.12-.33,1.11-.96,2.9-1.44-.67-.73-1.36-1.58-1.97-2.54-2.31.81-3.93,2.11-3.93,3.94,0,3.44,5.7,5,11,5s11-1.56,11-5c0-1.83-1.62-3.12-3.93-3.94Z"/></svg>