<svg xmlns="http://www.w3.org/2000/svg" viewBox="0 0 24 24" width="24" height="24"><path d="m23,9c0-.58-.33-1.11-.86-1.36L13.5,3.55c-.95-.45-2.05-.45-3,0L1.86,7.64c-.52.25-.86.78-.86,1.36s.33,1.11.86,1.36l3.47,1.64-3.47,1.64c-.52.25-.86.78-.86,1.36s.33,1.11.86,1.36l8.64,4.09c.48.23.99.34,1.5.34s1.02-.11,1.5-.34l8.64-4.09c.52-.25.86-.78.86-1.36s-.33-1.11-.86-1.36l-3.47-1.64,3.47-1.64c.52-.25.86-.78.86-1.36Zm-11.21-2.74c.14-.06.29-.06.43,0l5.78,2.74-5.78,2.74c-.14.06-.29.06-.43,0l-5.78-2.74,5.78-2.74Zm3.38,7.4l2.83,1.34-5.78,2.74c-.14.06-.29.06-.43,0l-5.78-2.74,2.83-1.34,1.67.79c.28.13.58.22.89.27.2.04.41.07.61.07.51,0,1.02-.11,1.5-.34l1.67-.79Z"/></svg>