<svg xmlns="http://www.w3.org/2000/svg" viewBox="0 0 24 24" width="24" height="24"><path d="m12,4c-2.22,0-4.06.54-5.58,1.36L2.53,1.47l-1.06,1.06,3.65,3.65c-2.26,1.65-3.56,3.88-4.04,5.36-.1.3-.1.63,0,.93.85,2.61,4.22,7.54,10.93,7.54,2.22,0,4.06-.54,5.58-1.36l3.89,3.89,1.06-1.06-3.65-3.65c2.26-1.65,3.56-3.88,4.04-5.36.1-.3.1-.63,0-.93-.85-2.61-4.22-7.54-10.93-7.54Zm-7.89,8c.13-.3.35-.71.65-1.17l6.1,6.1c-4.34-.49-6.2-3.7-6.76-4.93Zm8.89,4.95l-7.31-7.31c.43-.46.94-.91,1.56-1.31l8.08,8.08c-.68.27-1.46.46-2.33.55Zm3.73-1.27l-1.44-1.44c.73-1.07.88-2.41.45-3.6-.18.21-.45.36-.75.36-.55,0-1-.45-1-1,0-.44.29-.81.69-.94-1.38-1.27-3.43-1.39-4.94-.37l-1.09-1.09c.94-.37,2.04-.6,3.34-.6,5.16,0,7.29,3.67,7.89,5-.37.81-1.31,2.49-3.15,3.68Z"/></svg>