<svg xmlns="http://www.w3.org/2000/svg" width="24" height="24" viewBox="0 0 24 24"><path d="M11.25 2.75V4.5h1.5V1h-1.5zM5.42 7.88l-1.5-1-1.5-1L2 6.5l-.42.62 1.5 1 1.5 1L5 8.5zM6.62 2.08 6 2.5l-.62.42 1 1.5 1 1.5L8 5.5l.62-.42-1-1.5zM21.58 5.88l-1.5 1-1.5 1 .42.62.42.62 1.5-1 1.5-1L22 6.5zM16.38 3.58l-1 1.5.62.42.62.42 1-1.5 1-1.5L18 2.5l-.62-.42zM16.19 18.93c1.57-1.6 2.81-2.86 2.81-5.83C19 9.18 15.86 6 12 6s-7 3.19-7 7.1c0 2.96 1.22 4.21 2.77 5.78l.16.17c.18.18.31.54.41.95H7v3h10v-3h-1.34c.09-.41.23-.77.41-.95zm-2.14-2.1-.12.13c-.82.84-1.18 2.06-1.33 3.05h-1.21c-.15-.98-.5-2.21-1.32-3.05l-.16-.17C8.48 15.34 8 14.85 8 13.11c0-2.26 1.79-4.1 4-4.1s4 1.84 4 4.1c0 1.74-.53 2.28-1.95 3.72"/></svg>