<svg xmlns="http://www.w3.org/2000/svg" width="24" height="24" viewBox="0 0 24 24"><path d="M5.5 23h13a2.5 2.5 0 0 0 2.5-2.5v-10A2.5 2.5 0 0 0 18.5 8H9V7c0-.41.08-.8.23-1.17a3.004 3.004 0 0 1 1.59-1.59c.74-.31 1.6-.31 2.33 0a3.004 3.004 0 0 1 1.59 1.59l2.76-1.17c-.3-.71-.74-1.36-1.29-1.91s-1.19-.98-1.91-1.29a6.1 6.1 0 0 0-4.67 0c-.71.3-1.36.73-1.91 1.29-.55.55-.98 1.19-1.29 1.91-.31.74-.47 1.53-.47 2.33v1h-.5a2.5 2.5 0 0 0-2.5 2.5v10a2.5 2.5 0 0 0 2.5 2.5ZM6 11h12v9h-5.25v-2.15c.73-.3 1.25-1.01 1.25-1.85 0-1.1-.9-2-2-2s-2 .9-2 2c0 .84.52 1.55 1.25 1.85V20H6z"/></svg>