<svg xmlns="http://www.w3.org/2000/svg" viewBox="0 0 24 24" width="24" height="24"><path d="m21.46,1.32c-.45-.08-11.19-1.87-16.95,3.89-1.11,1.11-2.02,2.5-2.7,4.12-1.59,3.79-.8,7.93,2.07,10.8,1.89,1.89,4.33,2.88,6.86,2.88,1.31,0,2.65-.27,3.94-.81,1.62-.68,3-1.59,4.12-2.7,5.76-5.76,3.97-16.49,3.89-16.95-.11-.62-.6-1.11-1.22-1.22Zm-4.79,16.05c-.84.84-1.9,1.53-3.16,2.06-2.07.87-3.98.66-5.49-.03.02-.19.04-.38.07-.56.6-3.88,2.79-7.42,5.9-9.84-3.76,1.51-6.93,4.4-8.83,8-1.09-1.62-1.68-3.94-.6-6.52.53-1.26,1.22-2.32,2.06-3.16,2.76-2.76,7.26-3.33,10.47-3.33,1.11,0,2.07.07,2.76.14.26,2.65.53,9.51-3.19,13.23Z"/></svg>