<svg xmlns="http://www.w3.org/2000/svg" width="24" height="24" viewBox="0 0 24 24"><path d="M13.01 16.9 7 10.89V12c0 2.76 2.24 5 5 5 .35 0 .68-.04 1.01-.1M21 11.25h-1.5c0 1.99-.79 3.79-2.06 5.13l-1.43-1.43c.62-.83.99-1.84.99-2.95V6c0-2.76-2.24-5-5-5S7.04 3.21 7.01 5.95L1.53.47.47 1.53l22 22 1.06-1.06-5.03-5.03c1.54-1.61 2.5-3.78 2.5-6.18ZM10 6c0-1.1.9-2 2-2s2 .9 2 2v6c0 .27-.07.53-.17.77L10 8.94z"/><path d="M12 18.75c-4.14 0-7.5-3.36-7.5-7.5H3c0 4.45 3.25 8.15 7.5 8.86V23h3v-2.89c.73-.12 1.43-.34 2.09-.63l-1.15-1.15c-.77.27-1.59.42-2.44.42"/></svg>