<svg xmlns="http://www.w3.org/2000/svg" viewBox="0 0 24 24" width="24" height="24"><path d="M13.08 13.63 12 11.44 10.92 13.63 8.5 13.98 10.25 15.69 9.84 18.1 12 16.96 14.16 18.1 13.75 15.69 15.5 13.98 13.08 13.63z"/><path d="m17.5,1H6.5c-.83,0-1.5.67-1.5,1.5v8.64c-.64,1.15-1,2.46-1,3.86,0,4.41,3.59,8,8,8s8-3.59,8-8c0-1.4-.36-2.72-1-3.86V2.5c0-.83-.67-1.5-1.5-1.5Zm-1.5,7.08c-.97-.57-2.07-.93-3.25-1.04v-3.04h3.25v4.08Zm-4.75-4.08v3.04c-1.18.11-2.28.48-3.25,1.04v-4.08h3.25Zm.75,16c-2.76,0-5-2.24-5-5s2.24-5,5-5,5,2.24,5,5-2.24,5-5,5Z"/></svg>