<svg xmlns="http://www.w3.org/2000/svg" viewBox="0 0 24 24" width="24" height="24"><path d="M11.25 14.25H12.75V15.75H11.25z"/><path d="m9.7,7.2c-.61.61-.95,1.43-.95,2.3h1.5c0-.47.18-.91.51-1.24.66-.66,1.81-.66,2.47,0,.33.33.51.77.51,1.24s-.18.91-.51,1.24c-.33.33-.77.51-1.24.51-.41,0-.75.34-.75.75v1h1.5v-.34c.58-.14,1.11-.43,1.55-.87.61-.61.95-1.43.95-2.3s-.34-1.68-.95-2.3c-1.23-1.23-3.37-1.23-4.6,0Z"/><path d="m12,2C5.93,2,1,6.04,1,11c0,2.7,1.48,5.24,4,6.94v3.06c0,.55.3,1.06.79,1.32.22.12.47.18.71.18.29,0,.58-.08.83-.25l3.46-2.31c.42.04.82.06,1.21.06,6.07,0,11-4.04,11-9S18.07,2,12,2Zm0,15c-.43,0-.88-.03-1.38-.1-.36-.05-.73.04-1.03.24l-1.59,1.06v-1.09c0-.54-.29-1.04-.77-1.31-2.03-1.14-3.23-2.93-3.23-4.8,0-3.31,3.59-6,8-6s8,2.69,8,6-3.59,6-8,6Z"/></svg>