<svg xmlns="http://www.w3.org/2000/svg" viewBox="0 0 24 24" width="24" height="24"><path d="m21.06,13.17c-.78.24-1.58.35-2.38.35-4.53,0-8.21-3.68-8.21-8.21,0-.81.12-1.61.35-2.38.16-.53.02-1.1-.37-1.5s-.97-.54-1.5-.38C4.2,2.51,1,6.82,1,11.79c0,6.18,5.03,11.21,11.21,11.21,4.97,0,9.28-3.2,10.73-7.96.16-.53.02-1.1-.38-1.5-.39-.39-.97-.53-1.5-.37Zm-8.86,6.83c-4.53,0-8.21-3.68-8.21-8.21,0-2.74,1.33-5.21,3.48-6.72,0,.08,0,.16,0,.24,0,6.26,5.17,11.3,11.45,11.21-1.5,2.15-3.97,3.48-6.72,3.48Z"/><path d="M18.5 1 17.09 4.09 14 5.5 17.09 6.91 18.5 10 19.91 6.91 23 5.5 19.91 4.09 18.5 1z"/></svg>