<svg xmlns="http://www.w3.org/2000/svg" viewBox="0 0 24 24" width="24" height="24"><path d="M19 3A3 3 0 1 0 19 9 3 3 0 1 0 19 3z"/><path d="m19.92,10.91c.05.36.08.72.08,1.09,0,4.41-3.59,8-8,8h-6.67l.68-1c.38-.56.34-1.3-.1-1.82-1.23-1.45-1.91-3.29-1.91-5.18,0-4.41,3.59-8,8-8,.8,0,1.57.12,2.3.34.36-1.02,1.03-1.9,1.92-2.5-1.3-.54-2.73-.85-4.22-.85C5.93,1,1,5.93,1,12c0,2.22.68,4.38,1.92,6.21l-1.66,2.45c-.31.46-.34,1.05-.08,1.54.26.49.77.8,1.33.8h9.5c6.07,0,11-4.93,11-11,0-.91-.12-1.79-.33-2.63-.72.78-1.67,1.34-2.75,1.54Z"/></svg>