<svg xmlns="http://www.w3.org/2000/svg" viewBox="0 0 24 24" width="24" height="24"><path d="m22,15.17c0-2.6-1.27-4.95-3.31-6.39l.88-.9c.57-.59.57-1.53-.01-2.11l-.54-.54,1.04-1.04-3-3-1.04,1.04-.79-.79c-.58-.58-1.52-.59-2.11-.01l-7.67,7.5c-.29.28-.45.66-.45,1.06,0,.4.16.79.44,1.07l4.5,4.5c.28.28.66.44,1.06.44h0c.4,0,.78-.16,1.06-.45l4.48-4.57c1.49.84,2.45,2.42,2.45,4.19,0,2.67-2.17,4.83-4.83,4.83H2v3h20v-3h-1.68c1.05-1.33,1.68-3.01,1.68-4.83Zm-11.01-2.8l-2.36-2.36,5.52-5.4,2.24,2.24-5.4,5.52Z"/><path d="M6.86 17.47 7.39 16.94 7.92 16.41 6.17 14.66 4.42 12.91 3.89 13.44 3.36 13.97 5.11 15.72 6.86 17.47z"/></svg>