<svg xmlns="http://www.w3.org/2000/svg" width="24" height="24" viewBox="0 0 24 24"><path d="M20.5 2h-17A2.5 2.5 0 0 0 1 4.5v13A2.5 2.5 0 0 0 3.5 20H6v1.5c0 .53.28 1.02.73 1.29.24.14.5.21.77.21q.375 0 .72-.18L13.38 20h7.12a2.5 2.5 0 0 0 2.5-2.5v-13A2.5 2.5 0 0 0 20.5 2M20 17h-7c-.25 0-.5.06-.72.18L9 18.97v-.47c0-.83-.67-1.5-1.5-1.5H4V5h16z"/><path d="M11.25 14.25h1.5v1.5h-1.5zM10.76 8.26c.66-.66 1.81-.66 2.47 0 .33.33.51.77.51 1.24a1.74 1.74 0 0 1-1.75 1.75c-.41 0-.75.34-.75.75v1h1.5v-.34c.58-.14 1.11-.43 1.55-.87.61-.61.95-1.43.95-2.3s-.34-1.68-.95-2.3c-1.23-1.23-3.37-1.23-4.6 0-.61.61-.95 1.43-.95 2.3h1.5c0-.47.18-.91.51-1.24Z"/></svg>