<svg xmlns="http://www.w3.org/2000/svg" viewBox="0 0 24 24" width="24" height="24"><path d="m22.36,2.27c-.4-.28-.92-.34-1.38-.17L7.73,7H3.5c-1.38,0-2.5,1.12-2.5,2.5v5c0,1.38,1.12,2.5,2.5,2.5h4.23l1.22.45-.42,1.47c-.25.87.2,1.77,1.03,2.11l3.13,1.25c.21.08.43.12.65.12.27,0,.53-.06.77-.18.44-.22.78-.62.91-1.09l.37-1.3,5.58,2.07c.17.06.35.09.52.09.3,0,.6-.09.86-.27.4-.28.64-.74.64-1.23V3.5c0-.49-.24-.95-.64-1.23ZM4,10h3.5v4h-3.5v-4Zm9.58,10.73c-.03.09-.09.14-.13.16-.04.02-.11.04-.2,0l-3.13-1.25c-.12-.05-.18-.18-.15-.3l.39-1.36,3.63,1.34-.4,1.41Zm6.42-2.38l-11-4.07v-4.54l11-4.07v12.69Z"/></svg>