<svg xmlns="http://www.w3.org/2000/svg" viewBox="0 0 24 24" width="24" height="24"><path d="m14.5,1.29h0s0,0-.01,0c0,0,0,0-.01,0,0,0,0,0-.01,0-.79-.19-1.6-.29-2.46-.29C5.93,1,1,5.93,1,12s4.93,11,11,11c.86,0,1.67-.1,2.46-.29,0,0,.01,0,.02,0,0,0,0,0,.01,0,0,0,0,0,.01,0h0c4.7-1.08,8.18-5.2,8.47-9.96.03-.24.03-.49.03-.75s0-.51-.02-.68c-.3-4.82-3.78-8.94-8.48-10.02Zm3.73,5.71h-6.19c.61-1.29,1.42-2.22,2.24-2.67,1.58.46,2.95,1.41,3.95,2.67Zm-7.19,5.75h8.91c-.09.97-.37,1.9-.78,2.75h-7.67c-.24-.83-.4-1.75-.45-2.75Zm0-1.5c.06-1,.21-1.92.45-2.75h7.67c.42.85.69,1.77.79,2.75h-8.91Zm-7.04.75c0-3.78,2.64-6.96,6.18-7.78-1.25,1.84-2.04,4.31-2.16,7.03h-.02v1.5h.02c.12,2.72.91,5.2,2.16,7.03-3.54-.83-6.18-4-6.18-7.78Zm10.27,7.67c-.82-.45-1.63-1.37-2.24-2.67h6.2c-1,1.25-2.38,2.2-3.96,2.67Z"/></svg>