<svg xmlns="http://www.w3.org/2000/svg" viewBox="0 0 24 24" width="24" height="24"><path d="M9.47 8.47 5.94 12 9.47 15.53 10.53 14.47 8.06 12 10.53 9.53 9.47 8.47z"/><path d="M13.47 9.53 15.94 12 13.47 14.47 14.53 15.53 18.06 12 14.53 8.47 13.47 9.53z"/><path d="m12,1C5.93,1,1,5.93,1,12c0,2.22.68,4.38,1.92,6.21l-1.66,2.45c-.31.46-.34,1.05-.08,1.54.26.49.77.8,1.33.8h9.5c6.07,0,11-4.93,11-11S18.07,1,12,1Zm0,19h-6.67l.68-1c.38-.56.34-1.3-.1-1.82-1.23-1.45-1.91-3.29-1.91-5.18,0-4.41,3.59-8,8-8s8,3.59,8,8-3.59,8-8,8Z"/></svg>