<svg xmlns="http://www.w3.org/2000/svg" viewBox="0 0 24 24" width="24" height="24"><path d="M10.5 4 11.5 3.33 12.5 4 12.17 2.83 13 2.12 12 2 11.5 1 11 2 10 2.12 10.83 2.83 10.5 4z"/><path d="M21.33 14.67 20.5 13 19.67 14.67 18 14.88 19.39 16.06 18.83 18 20.5 16.89 22.17 18 21.61 16.06 23 14.88 21.33 14.67z"/><path d="M3.83 8 5.5 6.89 7.17 8 6.61 6.05 8 4.88 6.33 4.67 5.5 3 4.67 4.67 3 4.88 4.39 6.05 3.83 8z"/><path d="m19.39,1.44c-.28-.28-.66-.44-1.06-.44s-.78.16-1.06.44L1.44,17.27c-.59.59-.59,1.54,0,2.12l3.17,3.17c.28.28.66.44,1.06.44s.78-.16,1.06-.44l15.83-15.83c.59-.59.59-1.54,0-2.12l-3.17-3.17ZM5.67,19.38l-1.05-1.05,9.33-9.33,1.05,1.05-9.33,9.33Zm10.39-10.39l-1.05-1.05,3.33-3.33,1.05,1.05-3.33,3.33Z"/></svg>