<svg xmlns="http://www.w3.org/2000/svg" viewBox="0 0 24 24" width="24" height="24"><path d="m11,11.94l-1.47-1.47-1.06,1.06,2,2c.15.15.34.22.53.22s.38-.07.53-.22l4-4-1.06-1.06-3.47,3.47Z"/><path d="m12,2C5.93,2,1,6.04,1,11c0,2.7,1.48,5.24,4,6.94v3.06c0,.55.3,1.06.79,1.32.22.12.47.18.71.18.29,0,.58-.08.83-.25l3.46-2.31c.42.04.82.06,1.21.06,6.07,0,11-4.04,11-9S18.07,2,12,2Zm0,15c-.43,0-.88-.03-1.38-.1-.36-.05-.73.04-1.03.24l-1.59,1.06v-1.09c0-.54-.29-1.04-.76-1.31-2.03-1.14-3.24-2.93-3.24-4.8,0-3.31,3.59-6,8-6s8,2.69,8,6-3.59,6-8,6Z"/></svg>