<svg xmlns="http://www.w3.org/2000/svg" viewBox="0 0 24 24" width="24" height="24"><path d="m12,2C5.93,2,1,6.04,1,11c0,2.7,1.48,5.24,4,6.94v3.06c0,.55.3,1.06.79,1.32.22.12.47.18.71.18.29,0,.58-.08.83-.25l3.46-2.31c.42.04.82.06,1.21.06,6.07,0,11-4.04,11-9S18.07,2,12,2Zm0,15c-.43,0-.88-.03-1.38-.1-.36-.05-.73.04-1.03.24l-1.59,1.06v-1.09c0-.54-.29-1.04-.77-1.31-2.03-1.14-3.23-2.93-3.23-4.8,0-3.31,3.59-6,8-6s8,2.69,8,6-3.59,6-8,6Z"/><path d="M13.2 9.67 12 7 10.8 9.67 8 9.89 10.22 11.89 9.33 15 12 13.22 14.67 15 13.78 11.89 16 9.89 13.2 9.67z"/></svg>