<svg xmlns="http://www.w3.org/2000/svg" viewBox="0 0 24 24" width="24" height="24"><path class="b" d="m19.5,2H4.5c-1.38,0-2.5,1.12-2.5,2.5v15c0,1.38,1.12,2.5,2.5,2.5h15c1.38,0,2.5-1.12,2.5-2.5V4.5c0-1.38-1.12-2.5-2.5-2.5Zm-.5,17h-3v-1h-1v1h-3v-1h-1v1h-3v-1h-1v1h-2v-2h1v-1h-1v-3h1v-1h-1v-3h1v-1h-1v-3h14v14Z"/><path class="b" d="M17 8H18V9H17z"/><path class="b" d="M17 12H18V13H17z"/><path class="b" d="M17 16H18V17H17z"/><path class="b" d="M15 10H16V11H15z"/><path class="b" d="M15 6H16V7H15z"/><path class="b" d="M15 14H16V15H15z"/><path class="b" d="M13 8H14V9H13z"/><path class="b" d="M13 12H14V13H13z"/><path class="b" d="M13 16H14V17H13z"/><path class="b" d="M11 10H12V11H11z"/><path class="b" d="M11 6H12V7H11z"/><path class="b" d="M11 14H12V15H11z"/><path class="b" d="M9 8H10V9H9z"/><path class="b" d="M9 12H10V13H9z"/><path class="b" d="M9 16H10V17H9z"/><path class="b" d="M7 10H8V11H7z"/><path class="b" d="M7 6H8V7H7z"/><path class="b" d="M7 14H8V15H7z"/></svg>