<svg xmlns="http://www.w3.org/2000/svg" viewBox="0 0 24 24" width="24" height="24"><path d="M16.5 10A1.5 1.5 0 1 0 16.5 13 1.5 1.5 0 1 0 16.5 10z"/><path d="M7.5 10A1.5 1.5 0 1 0 7.5 13 1.5 1.5 0 1 0 7.5 10z"/><path d="m12,13c-.83,0-1.5.62-1.5,2s1.5,3,1.5,3c0,0,1.5-1.62,1.5-3s-.67-2-1.5-2Z"/><path d="m23,2h-3c0,1.08-.39,1.43-.51,1.55-.08.07-.17.13-.26.18-1.94-1.69-4.46-2.73-7.23-2.73s-5.29,1.03-7.23,2.73c-.09-.05-.18-.11-.26-.18-.13-.11-.51-.46-.51-1.55H1c0,2.02.83,3.18,1.54,3.8.08.07.17.13.26.2-1.13,1.73-1.79,3.79-1.79,6,0,.17.02.33.03.5h-.03v10.5h3v-3.47c2.01,2.13,4.85,3.47,8,3.47s5.99-1.34,8-3.47v3.47h3v-10.5h-.03c0-.17.03-.33.03-.5,0-2.21-.66-4.27-1.79-6,.09-.07.17-.12.26-.2.7-.62,1.54-1.78,1.54-3.8Zm-11,2c1.71,0,3.29.54,4.59,1.46-1.95.06-3.65,1.13-4.58,2.71-.24-.4-.52-.77-.86-1.11-.99-1-2.31-1.56-3.73-1.6,1.3-.92,2.88-1.46,4.59-1.46Zm0,16c-4.41,0-8-3.59-8-8,0-1.73.56-3.33,1.49-4.64.37-.18.77-.31,1.18-.37,0,0,0,0,.01,0h0c.19-.03.37-.04.56-.04,1.07,0,2.08.42,2.83,1.18.75.75,1.17,1.75,1.17,2.82,0,.41.34.75.75.75s.75-.34.75-.75c0-2.21,1.79-4,4-4,.19,0,.38.02.56.04h0s0,0,.01,0c.41.06.81.19,1.18.37.94,1.31,1.49,2.91,1.49,4.64,0,4.41-3.59,8-8,8Z"/></svg>