<svg xmlns="http://www.w3.org/2000/svg" viewBox="0 0 24 24" width="24" height="24"><path d="m21.8,8.46c-.88-.61-1.94-.85-2.99-.66l-1.16.21-5.09-5.51c-.35-.38-.86-.54-1.36-.46l-3.94.7c-.48.08-.89.4-1.1.84-.21.44-.19.96.05,1.38l2.42,4.25-1.19-1.6c-.34-.46-.9-.68-1.47-.58l-3.94.69c-.47.08-.87.38-1.08.81-.21.43-.21.93.01,1.35l3.85,7.44c.26.5.78.81,1.33.81.09,0,.17,0,.26-.02l13.79-2.43c2.17-.38,3.63-2.46,3.24-4.63-.19-1.05-.77-1.97-1.64-2.58Zm-2.12,4.26l-12.7,2.24-2.41-4.65,1.02-.18,1.45,1.95c.34.46.91.68,1.47.58l2.95-.52c.48-.08.89-.4,1.1-.84.21-.44.19-.96-.05-1.38l-2.62-4.61,1.04-.18,5.09,5.51c.35.38.86.55,1.36.46l1.97-.35h0c.26-.05.53.01.75.17s.36.38.41.65c.1.54-.27,1.06-.81,1.16Z"/><path d="M1 20H23V23H1z"/></svg>