<svg xmlns="http://www.w3.org/2000/svg" viewBox="0 0 24 24" width="24" height="24"><path d="m4.5,1H1v3h2v16.5c0,1.38,1.12,2.5,2.5,2.5h13c1.38,0,2.5-1.12,2.5-2.5V4h2V1H4.5Zm13.5,19H6V4h12v16Z"/><path d="m12,15.25c-2.13,0-2.24-1.14-2.25-1.25h-1.5c0,.86.66,2.41,3,2.69v1.31h1.5v-1.3c1.97-.25,3-1.48,3-2.7,0-1.03-.49-2.75-3.75-2.75-2.25,0-2.25-.81-2.25-1.25,0-.62.77-1.25,2.25-1.25s1.64.96,1.65,1.26h.75s.75,0,.75,0c0-.68-.46-2.33-2.4-2.68v-1.32h-1.5v1.3c-2.05.25-3,1.51-3,2.7,0,1.25.65,2.75,3.75,2.75,2.25,0,2.25.84,2.25,1.25,0,.61-.79,1.25-2.25,1.25Z"/></svg>