<svg xmlns="http://www.w3.org/2000/svg" viewBox="0 0 24 24" width="24" height="24"><path d="m16.06,14.44l-.44-.44,1.38-1.38.44.44c.59.59,1.54.59,2.12,0l3-3c.59-.59.59-1.54,0-2.12l-6.5-6.5c-.59-.59-1.54-.59-2.12,0l-3,3c-.59.59-.59,1.54,0,2.12l.44.44-1.38,1.38-.44-.44c-.27-.27-.63-.41-.99-.42L1.53.47.47,1.53l11.75,11.75,3.56,3.56,6.69,6.69,1.06-1.06-7.04-7.04c-.02-.36-.15-.71-.42-.99Zm-4.22-3.66l2.72-2.72c.59-.59.59-1.54,0-2.12l-.44-.44.88-.88,4.38,4.38-.88.88-.44-.44c-.59-.59-1.54-.59-2.12,0l-2.72,2.72-1.38-1.38Z"/><path d="m12,16.38l-4.38-4.38.24-.24-2.12-2.12-1.31,1.31c-.59.59-.59,1.54,0,2.12l2.16,2.16-5.16,5.16,2.12,2.12,5.16-5.16,2.21,2.21c.29.29.68.44,1.06.44s.77-.15,1.06-.44l1.31-1.31-2.12-2.12-.24.24Z"/></svg>