<svg xmlns="http://www.w3.org/2000/svg" viewBox="0 0 24 24" width="24" height="24"><path d="m19.06,4.44c-.59-.59-1.54-.59-2.12,0L5.44,15.94c-.28.28-.44.66-.44,1.06v3.5c0,.83.67,1.5,1.5,1.5h3.5c.4,0,.78-.16,1.06-.44l11.5-11.5c.59-.59.59-1.54,0-2.12l-3.5-3.5Zm-9.68,14.56h-1.38v-1.38l7.28-7.28,1.38,1.38-7.28,7.28Zm8.34-8.34l-1.38-1.38,1.66-1.66,1.38,1.38-1.66,1.66Z"/><path d="m7.25,9.91c1.48-1.52,2.75-2.83,2.75-4.41C10,1.22,2.5,1,1,1v3c3.09,0,6,.85,6,1.48-.06.44-1.17,1.58-1.9,2.33-1.82,1.87-4.09,4.2-3.97,7.17.07,1.8,1.04,3.53,2.87,5.14v-3.12c0-.44.13-.87.35-1.25-.12-.3-.21-.6-.22-.89-.07-1.67,1.63-3.42,3.12-4.95Z"/></svg>