<svg xmlns="http://www.w3.org/2000/svg" viewBox="0 0 24 24" width="24" height="24"><path d="m19.77,6.15c-.97-.97-2.56-.97-3.54,0l-1.29,1.29h0s-1.22,1.22-1.22,1.22l-5.99,1.63-2.05,9.2c-.37.05-.74.04-.99-.12-.44-.27-.69-1.14-.69-2.38,0-1.71.76-3.81,1.49-5.84,1.13-3.12,2.2-6.06.71-8.19-.93-1.33-2.63-1.97-5.2-1.97v3c1.43,0,2.43.25,2.74.69.59.85-.33,3.4-1.07,5.44-.82,2.27-1.67,4.62-1.67,6.86,0,2.41.71,4.07,2.12,4.93.72.44,1.49.59,2.21.59.5,0,.98-.08,1.4-.17l.79.79,10.69-2.38,1.63-5.99,1.22-1.22h0s1.29-1.29,1.29-1.29c.97-.97.97-2.56,0-3.54l-2.59-2.59Zm-3.98,12.09l-5.74,1.28,2.56-2.56c.12.03.25.06.38.06.83,0,1.5-.67,1.5-1.5s-.67-1.5-1.5-1.5-1.5.67-1.5,1.5c0,.13.02.26.06.38l-2.56,2.56,1.28-5.74,5.01-1.37h0s1.88,1.88,1.88,1.88h0s-1.37,5.01-1.37,5.01Zm3.15-6.79l-.72.72-1.88-1.88.72-.72h0s.94-.94.94-.94l1.88,1.88-.94.94h0Z"/></svg>