<svg xmlns="http://www.w3.org/2000/svg" viewBox="0 0 24 24" width="24" height="24"><path d="m1.64,16.73c.4.28.91.35,1.37.19l4.61-1.65-1.78.89c-.51.25-.83.77-.83,1.34v4c0,.49.24.95.64,1.23.4.28.91.35,1.37.18l4.99-1.81,4.99,1.81c.17.06.34.09.51.09.3,0,.6-.09.86-.27.4-.28.64-.74.64-1.23v-4c0-.57-.32-1.09-.83-1.34l-1.78-.89,4.61,1.65c.46.16.97.09,1.37-.19.4-.28.64-.74.64-1.23v-4c0-.51-.26-.99-.69-1.26l-6.31-4.06v-1.18c0-2.21-1.79-4-4-4s-4,1.79-4,4v1.18L1.69,10.24c-.43.28-.69.75-.69,1.26v4c0,.49.24.95.64,1.23Zm2.36-4.41l6.31-4.06c.43-.28.69-.75.69-1.26v-2c0-.55.45-1,1-1s1,.45,1,1v2c0,.51.26.99.69,1.26l6.31,4.06v1.05l-5-1.78c-.46-.17-.97-.09-1.37.19-.4.28-.64.74-.64,1.23v3c0,.57.32,1.09.83,1.34l2.17,1.08v.93l-3.49-1.27c-.17-.06-.34-.09-.51-.09s-.35.03-.51.09l-3.49,1.27v-.93l2.17-1.08c.51-.25.83-.77.83-1.34v-3c0-.49-.24-.95-.64-1.23-.4-.28-.91-.35-1.37-.19l-5,1.78v-1.05Z"/></svg>