<svg xmlns="http://www.w3.org/2000/svg" viewBox="0 0 24 24" width="24" height="24"><path d="m22.53,5.47c0-1.07-.42-2.07-1.17-2.83-1.51-1.51-4.15-1.51-5.66,0l-.83.83-7.33-1.59c-.5-.11-1.02.04-1.38.41l-2.83,2.83c-.35.34-.5.84-.42,1.32s.4.89.84,1.1l4.42,2.09-1.89-.63c-.54-.18-1.13-.04-1.53.36l-2.83,2.83c-.35.35-.5.84-.42,1.32.08.48.4.89.84,1.1l4.81,2.24,2.24,4.81c.21.44.62.76,1.1.84.09.01.17.02.26.02.39,0,.78-.16,1.06-.44l2.83-2.83c.4-.4.54-1,.36-1.54l-.63-1.89,2.09,4.42c.21.44.62.75,1.1.83.48.09.97-.07,1.32-.42l2.83-2.83c.36-.36.51-.88.4-1.38l-1.59-7.33.83-.83c.76-.76,1.17-1.76,1.17-2.83Zm-3.29.71l-1.41,1.41c-.36.36-.51.88-.41,1.38l1.59,7.33-.74.74-2.27-4.79c-.21-.44-.62-.75-1.1-.83-.48-.09-.97.07-1.32.42l-2.12,2.12c-.4.4-.54,1-.36,1.54l.77,2.3-.66.66-1.57-3.36c-.15-.32-.41-.58-.73-.72l-3.36-1.57.66-.66,2.3.77c.54.18,1.13.04,1.53-.36l2.12-2.12c.35-.34.5-.84.42-1.32-.08-.48-.4-.89-.84-1.1l-4.79-2.27.74-.74,7.33,1.59c.5.11,1.02-.04,1.38-.41l1.41-1.41c.38-.38,1.04-.38,1.41,0,.19.19.29.44.29.71s-.1.52-.29.71Z"/></svg>