<svg xmlns="http://www.w3.org/2000/svg" width="24" height="24" viewBox="0 0 24 24"><path d="M14.5 1c-.83 0-1.5.67-1.5 1.5v7c0 .83.67 1.5 1.5 1.5h7c.83 0 1.5-.67 1.5-1.5C23 4.81 19.19 1 14.5 1M16 8V4.21c1.83.52 3.27 1.96 3.79 3.79z"/><path d="M10.01 23c2.41 0 4.67-.94 6.37-2.64a8.97 8.97 0 0 0 2.61-5.77c.03-.41-.12-.82-.4-1.12S17.91 13 17.5 13h-6.49V6.51c0-.42-.17-.81-.47-1.09s-.71-.43-1.12-.4a8.97 8.97 0 0 0-5.77 2.61C1.95 9.33 1.01 11.6 1.01 14s.94 4.67 2.64 6.37 3.97 2.64 6.37 2.64ZM5.76 9.74a5.9 5.9 0 0 1 2.25-1.42v6.17c0 .83.67 1.5 1.5 1.5h6.17c-.29.84-.77 1.6-1.42 2.25-1.14 1.14-2.65 1.76-4.25 1.76s-3.12-.62-4.25-1.76C4.62 17.1 4 15.59 4 13.99s.63-3.12 1.76-4.25"/></svg>