<svg xmlns="http://www.w3.org/2000/svg" viewBox="0 0 24 24" width="24" height="24"><path d="m21.13,5.38L12.67,1.16c-.42-.21-.92-.21-1.34,0L2.87,5.38c-.46.23-.77.68-.82,1.19-.01.12-1.05,11.69,9.35,16.3.19.09.4.13.61.13s.41-.04.61-.13c10.4-4.61,9.36-16.18,9.35-16.3-.05-.51-.36-.96-.82-1.19Zm-9.13,14.46c-6.47-3.25-7.02-9.87-7.01-12.17l7.01-3.49,7.01,3.49c.01,2.31-.54,8.93-7.01,12.17Z"/><path d="M11.25 8 11.25 11.25 8 11.25 8 12.75 11.25 12.75 11.25 16 12.75 16 12.75 12.75 16 12.75 16 11.25 12.75 11.25 12.75 8 11.25 8z"/></svg>