<svg xmlns="http://www.w3.org/2000/svg" viewBox="0 0 24 24" width="24" height="24"><path d="m20,8.12v-1.62c0-1.38-1.12-2.5-2.5-2.5h-3.05c-.45,0-.88.2-1.16.55-.28.35-.4.81-.31,1.25.04.18.02.36-.04.55-.1.3-.37.54-.67.62-.44.1-.75-.07-.89-.18-.24-.19-.38-.48-.38-.79,0-.07,0-.14.02-.2.09-.44-.02-.9-.31-1.25-.28-.35-.71-.55-1.16-.55h-3.05c-1.38,0-2.5,1.12-2.5,2.5v1.62c-.1.03-.2.06-.3.09-1.28.43-2.26,1.5-2.58,2.81-.3,1.22-.03,2.48.74,3.45.55.7,1.3,1.19,2.14,1.4v1.62c0,1.38,1.12,2.5,2.5,2.5h3.05c.45,0,.88-.2,1.16-.55.28-.35.4-.81.31-1.25-.01-.06-.02-.13-.02-.2,0-.31.14-.6.38-.79.14-.11.45-.29.89-.18.3.07.57.32.67.61.06.19.08.37.04.55-.09.44.02.9.31,1.25.29.35.71.55,1.16.55h3.05c1.38,0,2.5-1.12,2.5-2.5v-1.62c.1-.03.2-.06.3-.09,1.28-.43,2.26-1.5,2.58-2.81.3-1.22.03-2.48-.74-3.45-.55-.7-1.3-1.19-2.14-1.4Zm-.03,4.15c-.07.3-.32.57-.61.67-.19.06-.37.08-.55.04-.44-.09-.9.02-1.25.31s-.55.71-.55,1.16v2.55h-1.13c-.03-.1-.06-.2-.09-.3-.43-1.27-1.5-2.26-2.81-2.58-1.22-.29-2.48-.03-3.45.74-.7.55-1.19,1.3-1.4,2.14h-1.13v-2.55c0-.45-.2-.88-.55-1.16-.35-.29-.81-.4-1.25-.31-.37.08-.75-.07-.99-.36-.11-.14-.29-.45-.18-.89.07-.3.32-.57.61-.67.19-.06.37-.08.55-.04.44.09.9-.02,1.25-.31.35-.28.55-.71.55-1.16v-2.55h1.13c.22.84.7,1.59,1.4,2.14.97.76,2.23,1.04,3.45.74,1.3-.32,2.38-1.3,2.81-2.58.03-.1.06-.2.09-.3h1.13v2.55c0,.45.2.88.55,1.16.35.29.81.4,1.25.31.37-.08.75.07.99.36.11.14.29.45.18.89Z"/></svg>