<svg xmlns="http://www.w3.org/2000/svg" viewBox="0 0 24 24" width="24" height="24"><path d="m12,1C5.93,1,1,5.93,1,12s4.93,11,11,11,11-4.93,11-11S18.07,1,12,1Zm-3.24,18.31c.05-2.64.72-5.23,1.97-7.56h2.54c1.25,2.32,1.92,4.92,1.97,7.56-.99.44-2.09.69-3.24.69s-2.25-.25-3.24-.69Zm7.95-.86c-.18-2.75-.98-5.43-2.35-7.82-.13-.23-.38-.38-.65-.38h-.4l-.97-2.59c-.12-.31-.56-.31-.68,0l-.97,2.59h-.4c-.27,0-.52.14-.65.38-1.37,2.4-2.17,5.08-2.35,7.82-1.99-1.46-3.29-3.8-3.29-6.45,0-4.41,3.59-8,8-8s8,3.59,8,8c0,2.65-1.3,4.99-3.29,6.45Z"/></svg>