<svg xmlns="http://www.w3.org/2000/svg" viewBox="0 0 24 24" width="24" height="24"><path d="m7.19,5.1l-3.94-.69c-.47-.08-.95.06-1.3.39-.34.33-.51.8-.45,1.28l1.07,8.31c.08.65.58,1.17,1.23,1.29l13.79,2.43c.23.04.47.06.7.06.81,0,1.6-.25,2.29-.72.88-.61,1.46-1.53,1.65-2.58.38-2.17-1.07-4.25-3.24-4.63h0l-1.16-.2-2.9-6.92c-.2-.47-.62-.81-1.12-.9l-3.94-.69c-.48-.08-.97.07-1.32.41-.35.34-.5.83-.42,1.31l.82,4.82-.57-1.91c-.16-.54-.62-.95-1.18-1.05Zm3.39,6.69c.48.08.97-.07,1.32-.41.35-.34.5-.83.42-1.32l-.89-5.23,1.04.18,2.9,6.92c.2.47.62.81,1.12.9l1.97.35c.54.1.91.62.81,1.16-.05.26-.19.49-.41.65-.22.15-.49.21-.75.17l-12.7-2.24-.67-5.2,1.02.18.69,2.33c.16.54.62.95,1.18,1.05l2.95.52Z"/><path d="M1 20H23V23H1z"/></svg>