<svg xmlns="http://www.w3.org/2000/svg" viewBox="0 0 24 24" width="24" height="24"><path d="m18.77,3.15c-.97-.97-2.56-.97-3.54,0l-2.01,2.01-1.69-1.69c-.29-.29-.77-.29-1.06,0l-6,6,1.06,1.06,5.47-5.47,1.16,1.16L3.94,14.44c-.2.2-.34.46-.4.74l-1,4.5c-.11.5.04,1.02.4,1.39.28.28.67.44,1.06.44.11,0,.22-.01.33-.04l4.5-1c.28-.06.53-.2.74-.4l11.29-11.29c.97-.97.97-2.56,0-3.54l-2.09-2.09Zm-11.02,14.48l-1.77.39.39-1.77,7.91-7.91,1.38,1.38-7.91,7.91Zm8.97-8.97l-1.38-1.38,1.66-1.66,1.38,1.38-1.66,1.66Z"/></svg>