<svg xmlns="http://www.w3.org/2000/svg" viewBox="0 0 24 24" width="24" height="24"><path d="m12,1C5.93,1,1,5.93,1,12s4.93,11,11,11,11-4.93,11-11S18.07,1,12,1Zm-1.43,10h2.85l2.83,3.91-1.95.98-1.89-1.26c-.25-.17-.58-.17-.83,0l-1.89,1.26-1.95-.98,2.83-3.91Zm-3.07,7.61v-2.15l1.91.96c.24.12.53.1.75-.05l1.83-1.22,1.83,1.22c.13.08.27.13.42.13.11,0,.23-.03.34-.08l1.91-.96v2.15c-1.28.88-2.83,1.39-4.5,1.39s-3.22-.51-4.5-1.39Zm10.5-1.34v-2.27c0-.16-.05-.31-.14-.44l-5.25-7.25c-.28-.39-.93-.39-1.21,0l-5.25,7.25c-.09.13-.14.28-.14.44v2.27c-1.24-1.41-2-3.25-2-5.27,0-4.41,3.59-8,8-8s8,3.59,8,8c0,2.02-.76,3.86-2,5.27Z"/></svg>