<svg xmlns="http://www.w3.org/2000/svg" viewBox="0 0 24 24" width="24" height="24"><path class="b" d="m19.06,4.44c-.59-.59-1.54-.59-2.12,0L5.44,15.94c-.28.28-.44.66-.44,1.06v3.5c0,.83.67,1.5,1.5,1.5h3.5c.4,0,.78-.16,1.06-.44l11.5-11.5c.59-.59.59-1.54,0-2.12l-3.5-3.5Zm-9.68,14.56h-1.38v-1.38l7.28-7.28,1.38,1.38-7.28,7.28Zm8.34-8.34l-1.38-1.38,1.66-1.66,1.38,1.38-1.66,1.66Z"/><path class="b" d="m6,11c.35,0,.66-.21.81-.52l1.13-2.54,2.54-1.13c.32-.14.52-.46.52-.81s-.21-.66-.52-.81l-2.54-1.13-1.13-2.54c-.14-.32-.45-.52-.8-.52h0c-.34,0-.66.2-.8.51l-1.13,2.46-2.57,1.24c-.31.15-.5.46-.5.81,0,.34.21.65.52.79l2.54,1.13,1.13,2.54c.14.32.46.52.81.52Z"/><path class="b" d="m22.69,19.52l-1.52-.68-.68-1.52c-.08-.19-.27-.31-.48-.31h0c-.21,0-.39.12-.48.31l-.68,1.47-1.54.74c-.19.09-.3.28-.3.48,0,.21.13.39.31.48l1.52.68.68,1.52c.08.19.27.31.48.31s.4-.12.48-.31l.68-1.52,1.52-.68c.19-.09.31-.27.31-.48s-.12-.4-.31-.48Z"/></svg>