<svg xmlns="http://www.w3.org/2000/svg" width="24" height="24" viewBox="0 0 24 24"><path d="M18.07 23h.39c.78-.03 1.5-.43 1.95-1.07l2.14-3.09a2.499 2.499 0 0 0-.67-3.5l-4.64-3.09a2.516 2.516 0 0 0-3.23.38l-.89.97c-.5-.35-1.04-.76-1.5-1.23-.46-.46-.88-1-1.22-1.5l.97-.89a2.5 2.5 0 0 0 .38-3.22L8.66 2.12c-.37-.56-.95-.94-1.61-1.07-.16-.03-.31-.04-.47-.04-.51 0-1 .15-1.42.44L2.07 3.59C1.43 4.04 1.03 4.76 1 5.54c-.03.74-.17 7.34 4.98 12.48C10.6 22.64 16.4 23 18.07 23M6.88 10.05c-.16.15-.21.39-.11.59.05.09 1.15 2.24 2.74 3.84 1.6 1.6 3.75 2.7 3.84 2.75.2.1.44.06.59-.11l1.99-2.15 3.86 2.57-1.7 2.46c-1.16 0-6.13-.24-9.99-4.1S4 7.06 4 5.91l2.46-1.7 2.57 3.86-2.15 1.99Z"/><path d="m16.06 10.06 3.5-3.5L22 9V2h-7l2.44 2.44-3.5 3.5z"/></svg>