<svg xmlns="http://www.w3.org/2000/svg" viewBox="0 0 24 24" width="24" height="24"><path d="m3.56,22.56l5.19-5.19,2.19,2.19c.29.29.68.44,1.06.44s.77-.15,1.06-.44l3-3c.59-.59.59-1.54,0-2.12l-.44-.44,1.38-1.38.44.44c.59.59,1.54.59,2.12,0l3-3c.59-.59.59-1.54,0-2.12l-6.5-6.5c-.59-.59-1.54-.59-2.12,0l-3,3c-.59.59-.59,1.54,0,2.12l.44.44-1.38,1.38-.44-.44c-.59-.59-1.54-.59-2.12,0l-3,3c-.59.59-.59,1.54,0,2.12l2.19,2.19-5.19,5.19,2.12,2.12Zm4.94-11.44l.44.44c.59.59,1.54.59,2.12,0l3.5-3.5c.59-.59.59-1.54,0-2.12l-.44-.44.88-.88,4.38,4.38-.88.88-.44-.44c-.59-.59-1.54-.59-2.12,0l-3.5,3.5c-.59.59-.59,1.54,0,2.12l.44.44-.88.88-4.38-4.38.88-.88Z"/></svg>