<svg xmlns="http://www.w3.org/2000/svg" viewBox="0 0 24 24" width="24" height="24"><path d="m4,4h4V1H3.5c-1.38,0-2.5,1.12-2.5,2.5v4.5h3v-4Z"/><path d="m4,16H1v4.5c0,1.38,1.12,2.5,2.5,2.5h4.5v-3h-4v-4Z"/><path d="m20,20h-4v3h4.5c1.38,0,2.5-1.12,2.5-2.5v-4.5h-3v4Z"/><path d="m20.5,1h-4.5v3h4v4h3V3.5c0-1.38-1.12-2.5-2.5-2.5Z"/><path d="m9.75,5h-3.5c-.69,0-1.25.56-1.25,1.25v3.5c0,.69.56,1.25,1.25,1.25h3.5c.69,0,1.25-.56,1.25-1.25v-3.5c0-.69-.56-1.25-1.25-1.25Zm-.25,4.5h-3v-3h3v3Z"/><path d="m9.75,13h-3.5c-.69,0-1.25.56-1.25,1.25v3.5c0,.69.56,1.25,1.25,1.25h3.5c.69,0,1.25-.56,1.25-1.25v-3.5c0-.69-.56-1.25-1.25-1.25Zm-.25,4.5h-3v-3h3v3Z"/><path d="m14.25,11h3.5c.69,0,1.25-.56,1.25-1.25v-3.5c0-.69-.56-1.25-1.25-1.25h-3.5c-.69,0-1.25.56-1.25,1.25v3.5c0,.69.56,1.25,1.25,1.25Zm.25-4.5h3v3h-3v-3Z"/><path d="M13 13H15V15H13z"/><path d="M15 15H17V17H15z"/><path d="M17 17H19V19H17z"/><path d="M17 13H19V15H17z"/></svg>