<svg xmlns="http://www.w3.org/2000/svg" viewBox="0 0 24 24" width="24" height="24"><path d="m14.5,7h-1.5v-3.5c0-.6-.36-1.14-.91-1.38-.55-.24-1.19-.12-1.62.29L1.47,10.91c-.3.28-.47.68-.47,1.09s.17.81.47,1.09l9,8.5c.44.41,1.07.52,1.62.29s.91-.78.91-1.38v-3.5h1.14c1.68,0,3.25.75,4.29,2.06l1.9,2.37c.29.36.72.56,1.17.56.17,0,.33-.03.5-.08.6-.21,1-.78,1-1.42v-5c0-4.69-3.81-8.5-8.5-8.5Zm5.5,9.35c-1.57-1.5-3.65-2.35-5.86-2.35h-4.14v3.02l-5.32-5.02,5.32-5.02v3.02h4.5c3.03,0,5.5,2.47,5.5,5.5v.85Z"/></svg>