<svg xmlns="http://www.w3.org/2000/svg" width="24" height="24" viewBox="0 0 24 24"><path d="M12 11c.83 0 1.5-.67 1.5-1.5S12.83 8 12 8s-1.5.67-1.5 1.5.67 1.5 1.5 1.5"/><path d="M18 11.71V7.85c0-1.29-.55-2.51-1.51-3.36l-3.16-2.81c-.76-.67-1.9-.67-2.65 0L7.52 4.49c-.96.85-1.51 2.08-1.51 3.36v3.86c-1.55 1.14-5 4.21-5 8.79 0 .83.67 1.5 1.5 1.5h19c.83 0 1.5-.67 1.5-1.5 0-4.58-3.45-7.65-5-8.79ZM9 7.85c0-.43.18-.84.5-1.12L12 4.51l2.5 2.22c.32.28.5.69.5 1.12V19H9zm-3 7.92V19H4.19c.33-1.29 1.06-2.38 1.81-3.23M18 19v-3.23c.75.85 1.47 1.94 1.81 3.23z"/></svg>