<svg xmlns="http://www.w3.org/2000/svg" viewBox="0 0 24 24" width="24" height="24"><path d="m9.6,18.71l1.58-2.86,3.57,2.14,1.82,5.47,2.85-.95-1.88-5.65c-.19-.57-.57-1.05-1.09-1.35l-2.38-1.43,1.44-3.12.65.98c.38.57.98.96,1.66,1.08.14.02.28.04.42.04.54,0,1.07-.17,1.5-.5l3.15-2.37-1.8-2.4-2.73,2.05-.9-1.35c-.26-.39-.58-.71-.97-.97l-2.16-1.44c-.58-.38-1.25-.59-1.94-.59h-2.89c-.78,0-1.53.37-2,1l-2.7,3.6,2.4,1.8,2.55-3.4h2.08l-4.72,8.5H2v3h5.41c.91,0,1.75-.49,2.19-1.29Z"/><path d="M17.5 1A2.5 2.5 0 1 0 17.5 6 2.5 2.5 0 1 0 17.5 1z"/></svg>