<svg xmlns="http://www.w3.org/2000/svg" width="24" height="24" viewBox="0 0 24 24"><path d="M18.13 17.13c-.15.18-.31.36-.48.52-.73.74-1.59 1.31-2.54 1.72-1.97.83-4.26.83-6.23 0-.95-.4-1.81-.98-2.54-1.72a8 8 0 0 1-1.72-2.54A7.9 7.9 0 0 1 3.99 12H1c0 1.48.29 2.93.86 4.28a10.9 10.9 0 0 0 2.36 3.5c1.01 1.01 2.19 1.8 3.5 2.36a11.03 11.03 0 0 0 8.56.01 10.9 10.9 0 0 0 3.5-2.36c.17-.17.32-.35.48-.52l2.75 2.75v-7h-7l2.13 2.13ZM19.78 4.22c-1.01-1.01-2.19-1.8-3.5-2.36a11.05 11.05 0 0 0-8.56 0 10.9 10.9 0 0 0-3.5 2.36c-.17.17-.32.35-.48.52L1 2v7h7L5.87 6.87c.15-.18.31-.36.48-.52.73-.74 1.59-1.31 2.54-1.72 1.97-.83 4.26-.83 6.23 0 .95.4 1.81.98 2.54 1.72.74.73 1.31 1.59 1.72 2.54.42.98.63 2.03.63 3.11h3c0-1.48-.29-2.93-.86-4.28a10.9 10.9 0 0 0-2.36-3.5Z"/></svg>