<svg xmlns="http://www.w3.org/2000/svg" width="24" height="24" viewBox="0 0 24 24"><path d="M12 9a3 3 0 1 0 0 6 3 3 0 1 0 0-6"/><path d="M22.14 7.72c-.28-.65-.62-1.28-1.01-1.87-.39-.58-.85-1.13-1.34-1.63-.5-.5-1.04-.95-1.63-1.34a10.777 10.777 0 0 0-3.94-1.66 11 11 0 0 0-6.5.64c-.65.28-1.28.62-1.87 1.01-.58.39-1.13.85-1.63 1.34-.17.17-.32.35-.48.52L1 2v7h7L5.87 6.87c.15-.18.31-.36.48-.52.36-.36.76-.69 1.19-.98s.88-.54 1.36-.74.99-.36 1.5-.47c1.05-.22 2.17-.22 3.23 0 .51.1 1.02.26 1.5.47.47.2.93.45 1.36.74.42.29.82.62 1.19.98a7.9 7.9 0 0 1 1.72 2.54c.2.48.36.99.47 1.5.11.53.16 1.07.16 1.61a7.85 7.85 0 0 1-.63 3.11c-.2.47-.45.93-.74 1.36-.29.42-.62.82-.98 1.19a7.9 7.9 0 0 1-2.54 1.72c-.48.2-.99.36-1.5.47-1.05.22-2.17.22-3.23 0a7.3 7.3 0 0 1-1.5-.47c-.47-.2-.93-.45-1.36-.74-.42-.29-.82-.62-1.19-.98a7.9 7.9 0 0 1-1.72-2.54c-.2-.48-.36-.99-.47-1.5a8 8 0 0 1-.16-1.61H1c0 .75.08 1.49.22 2.21.14.71.36 1.4.64 2.07.28.65.62 1.28 1.01 1.87.39.58.85 1.13 1.34 1.63.5.5 1.04.95 1.63 1.34.59.4 1.22.74 1.87 1.01A10.926 10.926 0 0 0 12 23c.75 0 1.49-.08 2.21-.22.71-.14 1.4-.36 2.07-.64.65-.28 1.28-.62 1.87-1.01.58-.39 1.13-.85 1.63-1.34.5-.5.95-1.04 1.34-1.63.4-.59.74-1.22 1.01-1.87a10.926 10.926 0 0 0 .86-4.29c0-.75-.08-1.49-.22-2.21-.14-.71-.36-1.4-.64-2.07Z"/></svg>