<svg xmlns="http://www.w3.org/2000/svg" width="24" height="24" viewBox="0 0 24 24"><path d="M19.78 4.22c-1.01-1.01-2.18-1.8-3.5-2.36C14.92 1.29 13.48 1 12 1v3c1.08 0 2.13.21 3.11.63.95.4 1.81.98 2.54 1.72s1.31 1.59 1.72 2.54c.42.98.63 2.03.63 3.11s-.21 2.13-.63 3.11c-.4.95-.98 1.81-1.72 2.54-.17.17-.34.32-.52.48L15 16v7h7l-2.75-2.75c.18-.16.36-.31.52-.48 1.01-1.01 1.8-2.18 2.36-3.5.57-1.36.87-2.8.87-4.28s-.29-2.93-.87-4.28a10.9 10.9 0 0 0-2.36-3.5ZM6.34 17.66a8.2 8.2 0 0 1-1.72-2.54c-.42-.98-.63-2.03-.63-3.11s.21-2.13.63-3.11c.4-.95.98-1.81 1.72-2.54.17-.17.34-.32.52-.48l2.13 2.13V1H2l2.75 2.75c-.18.16-.36.31-.52.48-1.01 1.01-1.8 2.18-2.36 3.5C1.3 9.09 1 10.53 1 12.01s.29 2.93.87 4.28a10.9 10.9 0 0 0 2.36 3.5c1.01 1.01 2.18 1.8 3.5 2.36 1.36.57 2.8.86 4.28.86v-3a7.9 7.9 0 0 1-3.11-.63c-.95-.4-1.81-.98-2.54-1.72Z"/></svg>