<svg xmlns="http://www.w3.org/2000/svg" width="24" height="24" viewBox="0 0 24 24"><path d="M14.59 6.59c-.78.78-.78 2.05 0 2.83s2.05.78 2.83 0 .78-2.05 0-2.83-2.05-.78-2.83 0M4 17c-2 1-2 5-2 5s3 0 5-2z"/><path d="M21.5 1h-4.19c-2.54 0-4.92.99-6.72 2.78L8.34 6.03c-1.26.1-4.11.51-6.68 2.22-.37.25-.62.65-.66 1.1s.11.89.43 1.21l12 12c.29.29.68.44 1.06.44s.77-.15 1.06-.44c1.95-1.95 2.34-5.44 2.42-6.92l2.24-2.24a9.45 9.45 0 0 0 2.78-6.72V2.5c0-.83-.67-1.5-1.5-1.5ZM20 6.69c0 1.74-.68 3.37-1.9 4.6l-2.66 2.66c-.28.28-.44.66-.44 1.06 0 .75-.16 2.66-.75 4.13L4.99 9.87C7.06 9.02 8.98 9 9 9c.4 0 .78-.16 1.06-.44l2.66-2.66a6.45 6.45 0 0 1 4.6-1.9h2.69v2.69Z"/></svg>