<svg xmlns="http://www.w3.org/2000/svg" viewBox="0 0 24 24" width="24" height="24"><path d="m12,8c-2.21,0-4,1.79-4,4s1.79,4,4,4,4-1.79,4-4-1.79-4-4-4Zm0,6.5c-1.38,0-2.5-1.12-2.5-2.5s1.12-2.5,2.5-2.5,2.5,1.12,2.5,2.5-1.12,2.5-2.5,2.5Z"/><path d="M16.5 6.75A.75.75 0 1 0 16.5 8.25.75.75 0 1 0 16.5 6.75z"/><path d="m18.5,2H5.5c-1.93,0-3.5,1.57-3.5,3.5v13c0,1.93,1.57,3.5,3.5,3.5h13c1.93,0,3.5-1.57,3.5-3.5V5.5c0-1.93-1.57-3.5-3.5-3.5Zm.5,16.5c0,.28-.22.5-.5.5H5.5c-.28,0-.5-.22-.5-.5V5.5c0-.28.22-.5.5-.5h13c.28,0,.5.22.5.5v13Z"/></svg>