<svg xmlns="http://www.w3.org/2000/svg" viewBox="0 0 24 24" width="24" height="24"><path d="m23,4l-5-2v5.54c-1.97-.39-4.04-.5-5.25-.53v-2.64l3.25-1.37-4.75-2v6.01c-1.21.03-3.28.14-5.25.53v-2.14l3.5-1.4-5-2v5.91c-1.95.58-3.5,1.53-3.5,3.09v8c0,3.81,9.16,4,11,4s11-.19,11-4v-8c0-1.56-1.55-2.51-3.5-3.09v-2.51l3.5-1.4Zm-3.66,7c-1.23.47-3.77,1-7.34,1s-6.11-.53-7.34-1c1.23-.47,3.77-1,7.34-1s6.11.53,7.34,1Zm-9.34,8.94v-1.69h4v1.69c-.63.04-1.29.06-2,.06s-1.37-.03-2-.06Zm5.5-.13v-2.31c0-.41-.34-.75-.75-.75h-5.5c-.41,0-.75.34-.75.75v2.31c-2.41-.27-3.99-.77-4.5-1.12v-4.74c2.85.98,6.85,1.06,8,1.06s5.15-.08,8-1.06v4.74c-.51.35-2.09.85-4.5,1.12Z"/></svg>