<svg xmlns="http://www.w3.org/2000/svg" viewBox="0 0 24 24" width="24" height="24"><path d="m1,9.5c0,1.25.26,2.45.78,3.57l1.36-.63c-.43-.92-.64-1.91-.64-2.94,0-.5.05-.99.16-1.47l-1.47-.31c-.12.58-.19,1.18-.19,1.79Z"/><path d="m1.92,5.65l1.34.68c.68-1.34,1.81-2.45,3.16-3.12l-.66-1.35c-1.64.81-3.01,2.15-3.84,3.78Z"/><path d="m9.49,2.5h0c1.06,0,2.08.23,3.02.69l.65-1.35c-1.15-.55-2.39-.83-3.67-.83h0c-.56,0-1.12.06-1.67.16l.29,1.47c.45-.09.91-.14,1.37-.14Z"/><path d="m8.75,18.49l-1.23.86c1.05,1.51,2.58,2.66,4.31,3.23l.47-1.42c-1.43-.47-2.69-1.42-3.55-2.66Z"/><path d="m13.98,22.99c.18.01.35.02.53.02,1.67,0,3.28-.49,4.67-1.41l-.83-1.25c-1.27.84-2.75,1.24-4.29,1.14l-.09,1.5Z"/><path d="m20.84,20.17c1.24-1.38,1.97-3.09,2.13-4.95l-1.5-.13c-.13,1.53-.74,2.94-1.75,4.07l1.12,1Z"/><path d="m19.47,9.57c1.06,1.07,1.76,2.49,1.97,3.98l1.49-.2c-.25-1.81-1.09-3.53-2.39-4.83l-1.07,1.06Z"/><path d="m6.37,12.02c-.02.08-.04.16-.06.24-.05.2-.11.39-.15.59-.02.1-.03.19-.04.29-.03.19-.06.38-.08.58,0,.02,0,.04,0,.06-.02.24-.03.49-.03.73,0,.33.03.66.07.99,0,.03,0,.05,0,.08-.74-.42-1.42-.96-1.96-1.62l-1.16.96c1.11,1.34,2.62,2.3,4.29,2.76.04.01.07.03.11.04.02,0,.05,0,.07.01.04,0,.07.03.11.04h0c.64.14,1.3.23,1.98.23.07,0,.13,0,.19,0h0s.09,0,.13,0c.37-.01.74-.05,1.1-.11.07-.01.14-.02.2-.03.38-.07.75-.18,1.11-.3.1-.04.21-.07.31-.11.35-.14.7-.29,1.02-.47.07-.04.13-.08.19-.12.3-.17.58-.36.85-.57.05-.04.1-.06.15-.1h0c.57-.46,1.08-.99,1.52-1.57h.01s.06-.09.09-.14c.22-.3.43-.62.61-.95.04-.08.08-.16.12-.24.14-.29.27-.58.38-.89.03-.09.07-.18.1-.28.12-.36.2-.73.27-1.1.02-.1.03-.19.04-.29.06-.4.1-.8.1-1.21,0-.37-.02-.74-.07-1.1.04.02.08.04.12.06l.76-1.29c-.43-.26-.89-.46-1.36-.63-.51-1.35-1.34-2.57-2.44-3.51l-.97,1.14c.63.54,1.15,1.19,1.55,1.9-.05,0-.11,0-.16-.01-.07,0-.14-.02-.21-.03-.24-.02-.49-.03-.73-.03-.3,0-.55.02-.82.04-.02,0-.04,0-.06,0-.03,0-.05,0-.08,0h0c-.74.09-1.45.27-2.12.53h0s-.06.02-.09.04c-.36.14-.7.31-1.03.5-.08.05-.16.09-.23.14-.34.21-.66.43-.97.68-.03.02-.06.05-.09.08-.28.24-.54.49-.78.77-.06.07-.13.14-.19.21-.24.28-.46.59-.67.9-.03.04-.06.07-.09.12h.01c-.38.62-.7,1.29-.91,1.99h0Zm3.13,2.98c-.16,0-.32,0-.48-.02-.01-.16-.02-.32-.02-.48,0-3.03,2.47-5.5,5.5-5.5.16,0,.32,0,.48.02.01.16.02.32.02.48,0,3.03-2.47,5.5-5.5,5.5Z"/></svg>