<svg xmlns="http://www.w3.org/2000/svg" viewBox="0 0 24 24" width="24" height="24"><path d="m14.5,1h-5C4.81,1,1,4.81,1,9.5v13.5h3v-13.5c0-3.03,2.47-5.5,5.5-5.5h5c3.03,0,5.5,2.47,5.5,5.5v13.5h3v-13.5c0-4.69-3.81-8.5-8.5-8.5Z"/><path d="m14.5,6h-5c-1.93,0-3.5,1.57-3.5,3.5v8c0,1.21.86,2.22,2,2.45v.05l-2,3h2.25l.75-1h6l.75,1h2.25l-2-3v-.05c1.14-.23,2-1.24,2-2.45v-8c0-1.93-1.57-3.5-3.5-3.5Zm-5.5,3.5c0-.28.22-.5.5-.5h5c.28,0,.5.22.5.5v3.5h-6v-3.5Zm0,8.5c-.55,0-1-.45-1-1s.45-1,1-1,1,.45,1,1-.45,1-1,1Zm6,0c-.55,0-1-.45-1-1s.45-1,1-1,1,.45,1,1-.45,1-1,1Z"/></svg>