<svg xmlns="http://www.w3.org/2000/svg" viewBox="0 0 24 24" width="24" height="24"><path d="m7.88,11.31l1.36.62c.54-1.19,1.5-2.14,2.68-2.69l-.63-1.36c-1.51.7-2.73,1.91-3.42,3.43Z"/><path d="m12.07,14.75l.63,1.36c1.51-.7,2.73-1.91,3.42-3.43l-1.36-.62c-.55,1.19-1.5,2.14-2.68,2.69Z"/><path d="m17.46,6.54c-1.22-3.3-4.39-5.54-7.96-5.54C4.81,1,1,4.81,1,9.5c0,3.58,2.24,6.74,5.54,7.96,1.22,3.3,4.39,5.54,7.96,5.54,4.69,0,8.5-3.81,8.5-8.5,0-3.58-2.24-6.74-5.54-7.96Zm-2.96,13.46c-2.2,0-4.15-1.31-5.02-3.27.1,0,.2.02.3.02.34,0,.68-.02,1.02-.07l-.21-1.48c-.57.08-1.17.08-1.75-.02-.05-.31-.08-.63-.08-.95,0-.27.02-.54.06-.8l-1.48-.21c-.05.33-.07.68-.07,1.02,0,.1.01.2.02.3-1.96-.87-3.27-2.82-3.27-5.02,0-3.03,2.47-5.5,5.5-5.5,2.19,0,4.14,1.3,5.02,3.26-.44-.02-.88,0-1.31.06l.21,1.48c.57-.08,1.17-.08,1.75.02.05.31.08.63.08.95,0,.27-.02.54-.06.8l1.48.21c.05-.33.07-.68.07-1.02,0-.1-.01-.2-.02-.3,1.96.87,3.27,2.82,3.27,5.02,0,3.03-2.47,5.5-5.5,5.5Z"/></svg>