<svg xmlns="http://www.w3.org/2000/svg" viewBox="0 0 24 24" width="24" height="24"><path d="m20,8.88v-3.38c0-.83-.67-1.5-1.5-1.5h-3.38l-2.06-2.06c-.59-.59-1.54-.59-2.12,0l-2.06,2.06h-3.38c-.83,0-1.5.67-1.5,1.5v3.38l-2.06,2.06c-.59.59-.59,1.54,0,2.12l2.06,2.06v3.38c0,.83.67,1.5,1.5,1.5h3.38l2.06,2.06c.29.29.68.44,1.06.44s.77-.15,1.06-.44l2.06-2.06h3.38c.83,0,1.5-.67,1.5-1.5v-3.38l2.06-2.06c.59-.59.59-1.54,0-2.12l-2.06-2.06Zm-2.56,4.56c-.28.28-.44.66-.44,1.06v2.5h-2.5c-.4,0-.78.16-1.06.44l-1.44,1.44-1.44-1.44c-.28-.28-.66-.44-1.06-.44h-2.5v-2.5c0-.4-.16-.78-.44-1.06l-1.44-1.44,1.44-1.44c.28-.28.44-.66.44-1.06v-2.5h2.5c.4,0,.78-.16,1.06-.44l1.44-1.44,1.44,1.44c.28.28.66.44,1.06.44h2.5v2.5c0,.4.16.78.44,1.06l1.44,1.44-1.44,1.44Z"/><path d="M11 12.94 9.53 11.47 8.47 12.53 11 15.06 15.53 10.53 14.47 9.47 11 12.94z"/></svg>