<svg xmlns="http://www.w3.org/2000/svg" viewBox="0 0 24 24" width="24" height="24"><path d="m7,11.5c0,2.48,2.02,4.5,4.5,4.5.97,0,1.86-.32,2.6-.84l1.87,1.87,1.06-1.06-1.87-1.87c.52-.74.84-1.63.84-2.6,0-2.48-2.02-4.5-4.5-4.5s-4.5,2.02-4.5,4.5Zm4.5-3c1.65,0,3,1.35,3,3s-1.35,3-3,3-3-1.35-3-3,1.35-3,3-3Z"/><path d="m5,5h4v-3h-4.5c-1.38,0-2.5,1.12-2.5,2.5v4.5h3v-4Z"/><path d="m4.5,22h4.5v-3h-4v-4h-3v4.5c0,1.38,1.12,2.5,2.5,2.5Z"/><path d="m22,15h-3v4h-4v3h4.5c1.38,0,2.5-1.12,2.5-2.5v-4.5Z"/><path d="m22,4.5c0-1.38-1.12-2.5-2.5-2.5h-4.5v3h4v4h3v-4.5Z"/></svg>