<svg xmlns="http://www.w3.org/2000/svg" viewBox="0 0 24 24" width="24" height="24"><path d="m20,18.23h0s0,0,0,0c-.18-.06-.38-.11-.58-.15-.03,0-.07-.01-.1-.02-.22-.04-.46-.06-.72-.06-1.68,0-2.6.84-3.21,1.39-.51.46-.7.61-1.19.61s-.68-.15-1.19-.61c-.61-.55-1.53-1.39-3.21-1.39s-2.6.84-3.21,1.39c-.51.46-.69.61-1.19.61s-.68-.15-1.19-.61c-.61-.55-1.53-1.39-3.21-1.39v3c.5,0,.68.15,1.19.61.61.55,1.53,1.39,3.21,1.39s2.6-.84,3.21-1.39c.51-.46.69-.61,1.19-.61s.68.15,1.19.61c.61.55,1.53,1.39,3.21,1.39s2.6-.84,3.21-1.39c.51-.46.7-.61,1.19-.61s.68.15,1.19.61c.61.55,1.53,1.39,3.21,1.39v-3c-.5,0-.68-.15-1.19-.61-.41-.37-.97-.87-1.81-1.16Z"/><path d="m3.47,16.51c.88.38,1.51.89,1.93,1.26.31-.28.75-.63,1.31-.96l-1.32-4.3,6.62-1.95,6.62,1.95-1.1,3.59c.34-.06.69-.1,1.08-.1.76,0,1.42.13,1.99.32l1.35-4.38c.12-.38.08-.8-.11-1.15-.19-.35-.51-.62-.9-.73l-1.92-.57v-5c0-.83-.67-1.5-1.5-1.5h-4V1h-3v2h-4c-.83,0-1.5.67-1.5,1.5v5l-1.92.57c-.38.11-.71.38-.9.73-.19.35-.23.77-.11,1.15l1.4,4.56Zm4.53-10.51h8v2.61l-3.58-1.05c-.28-.08-.57-.08-.85,0l-3.58,1.05v-2.61Z"/></svg>