<svg xmlns="http://www.w3.org/2000/svg" viewBox="0 0 24 24" width="24" height="24"><path d="m20.5,1H3.5c-1.38,0-2.5,1.12-2.5,2.5v3.83c0,1.09.39,2.09,1.03,2.89-.02.09-.03.18-.03.28v10c0,1.38,1.12,2.5,2.5,2.5h15c1.38,0,2.5-1.12,2.5-2.5v-10c0-.1-.01-.19-.03-.28.63-.8,1.03-1.79,1.03-2.89v-3.83c0-1.38-1.12-2.5-2.5-2.5Zm-3.83,3h3.33v3.33c0,.92-.75,1.67-1.67,1.67s-1.67-.75-1.67-1.67v-3.33Zm-6.33,0h3.33v3.33c0,.92-.75,1.67-1.67,1.67s-1.67-.75-1.67-1.67v-3.33Zm-6.33,0h3.33v3.33c0,.92-.75,1.67-1.67,1.67s-1.67-.75-1.67-1.67v-3.33Zm10.5,16h-5v-4.25c0-.14.11-.25.25-.25h4.5c.14,0,.25.11.25.25v4.25Zm1.5,0v-4.25c0-.96-.79-1.75-1.75-1.75h-4.5c-.96,0-1.75.79-1.75,1.75v4.25h-3v-8.07c.22.03.44.07.67.07,1.23,0,2.33-.48,3.17-1.26.83.78,1.94,1.26,3.17,1.26s2.33-.48,3.17-1.26c.83.78,1.94,1.26,3.17,1.26.23,0,.45-.04.67-.07v8.07h-3Z"/></svg>