<svg xmlns="http://www.w3.org/2000/svg" viewBox="0 0 24 24" width="24" height="24"><path d="m19.5,2H4.5c-1.38,0-2.5,1.12-2.5,2.5v15c0,1.38,1.12,2.5,2.5,2.5h15c1.38,0,2.5-1.12,2.5-2.5V4.5c0-1.38-1.12-2.5-2.5-2.5Zm-.5,17H5V5h14v14Z"/><path d="m8.03,17.03l1.72-1.72c.64.44,1.41.69,2.25.69s1.61-.26,2.25-.69l1.72,1.72,1.06-1.06-1.72-1.72c.44-.64.69-1.41.69-2.25s-.26-1.61-.69-2.25l1.72-1.72-1.06-1.06-1.72,1.72c-.64-.44-1.41-.69-2.25-.69s-1.61.26-2.25.69l-1.72-1.72-1.06,1.06,1.72,1.72c-.44.64-.69,1.41-.69,2.25s.26,1.61.69,2.25l-1.72,1.72,1.06,1.06Zm3.97-7.53c1.38,0,2.5,1.12,2.5,2.5s-1.12,2.5-2.5,2.5-2.5-1.12-2.5-2.5,1.12-2.5,2.5-2.5Z"/></svg>