<svg xmlns="http://www.w3.org/2000/svg" viewBox="0 0 24 24" width="24" height="24"><path d="m19.5,1H4.5c-1.38,0-2.5,1.12-2.5,2.5v17c0,1.38,1.12,2.5,2.5,2.5h15c1.38,0,2.5-1.12,2.5-2.5V3.5c0-1.38-1.12-2.5-2.5-2.5Zm-.5,19H5v-2.75c.46,0,.65.14.96.36.38.27.9.64,1.83.64s1.46-.37,1.83-.64c.31-.22.5-.36.96-.36s.65.14.96.36c.38.27.9.64,1.84.64s1.46-.37,1.84-.64c.31-.22.51-.36.97-.36s.65.14.97.36c.38.27.9.64,1.84.64v1.75Zm0-3.25c-.46,0-.65-.14-.97-.36-.38-.27-.9-.64-1.84-.64s-1.46.37-1.84.64c-.31.22-.51.36-.97.36s-.65-.14-.96-.36c-.38-.27-.9-.64-1.84-.64s-1.46.37-1.83.64c-.31.22-.5.36-.96.36s-.65-.14-.96-.36c-.38-.27-.9-.64-1.83-.64v-2.5c.46,0,.65.14.96.36.38.27.9.64,1.83.64s1.46-.37,1.83-.64c.31-.22.5-.36.96-.36s.65.14.96.36c.38.27.9.64,1.84.64s1.46-.37,1.84-.64c.31-.22.51-.36.97-.36s.65.14.97.36c.38.27.9.64,1.84.64v2.5Zm0-4c-.46,0-.65-.14-.97-.36-.38-.27-.9-.64-1.84-.64s-1.46.37-1.84.64c-.31.22-.51.36-.97.36s-.65-.14-.96-.36c-.38-.27-.9-.64-1.84-.64s-1.46.37-1.83.64c-.31.22-.5.36-.96.36s-.65-.14-.96-.36c-.38-.27-.9-.64-1.83-.64v-7.75h14v8.75Z"/><path d="M8.5 6A1.5 1.5 0 1 0 8.5 9 1.5 1.5 0 1 0 8.5 6z"/></svg>