<svg xmlns="http://www.w3.org/2000/svg" viewBox="0 0 24 24" width="24" height="24"><path d="M2 21H22V23H2z"/><path d="m17.5,12h-.5c-.83,0-1.5-.67-1.5-1.5v-.36c0-.35.11-.67.31-.91,1.01-1.19,1.4-2.76,1.07-4.31-.4-1.87-1.86-3.36-3.73-3.79-1.52-.34-3.08,0-4.27.96-1.2.96-1.88,2.38-1.88,3.91,0,1.2.43,2.36,1.22,3.26.18.21.28.52.28.88v.36c0,.83-.67,1.5-1.5,1.5h-.5c-2.48,0-4.5,2.02-4.5,4.5v2c0,.83.67,1.5,1.5,1.5h17c.83,0,1.5-.67,1.5-1.5v-2c0-2.48-2.02-4.5-4.5-4.5Zm1.5,5H5v-.5c0-.83.67-1.5,1.5-1.5h.5c2.48,0,4.5-2.02,4.5-4.5v-.36c0-1.08-.36-2.08-1.01-2.84-.22-.26-.49-.69-.49-1.3s.27-1.18.75-1.57c.49-.39,1.1-.52,1.74-.38.71.16,1.31.77,1.46,1.49.19.87-.19,1.46-.42,1.74-.66.78-1.03,1.79-1.03,2.85v.36c0,2.48,2.02,4.5,4.5,4.5h.5c.83,0,1.5.67,1.5,1.5v.5Z"/></svg>