<svg xmlns="http://www.w3.org/2000/svg" viewBox="0 0 24 24" width="24" height="24"><path d="m20.5,14h-4.12l5.47-5.47c.97-.97.97-2.56,0-3.54l-2.85-2.85c-.98-.97-2.56-.97-3.54,0l-5.47,5.47V3.5c0-1.38-1.12-2.5-2.5-2.5H3.5c-1.38,0-2.5,1.12-2.5,2.5v15c0,2.48,2.02,4.5,4.5,4.5h15c1.38,0,2.5-1.12,2.5-2.5v-4c0-1.38-1.12-2.5-2.5-2.5Zm-3.26-9.38l2.14,2.14-7.24,7.24h-4.28l9.38-9.38Zm-10.24-.62v6.62l-3,3V4h3Zm13,16H5.5c-.83,0-1.5-.67-1.5-1.5s.67-1.5,1.5-1.5h14.5v3Z"/><path d="M5.5 18A.5.5 0 1 0 5.5 19 .5.5 0 1 0 5.5 18z"/></svg>