<svg xmlns="http://www.w3.org/2000/svg" viewBox="0 0 24 24" width="24" height="24"><path d="M6.5 14A1.5 1.5 0 1 0 6.5 17 1.5 1.5 0 1 0 6.5 14z"/><path d="M17.5 14A1.5 1.5 0 1 0 17.5 17 1.5 1.5 0 1 0 17.5 14z"/><path d="m22.5,7h-.5v-1.5c0-2.48-2.02-4.5-4.5-4.5H6.5c-2.48,0-4.5,2.02-4.5,4.5v1.5h-.5c-.28,0-.5.22-.5.5v3c0,.28.22.5.5.5h.32l-.45.91c-.24.48-.37,1.02-.37,1.56v5.03c0,1.21.86,2.22,2,2.45v.55c0,.83.67,1.5,1.5,1.5h1c.83,0,1.5-.67,1.5-1.5v-.5h10v.5c0,.83.67,1.5,1.5,1.5h1c.83,0,1.5-.67,1.5-1.5v-.55c1.14-.23,2-1.24,2-2.45v-5.03c0-.54-.13-1.08-.37-1.57l-.45-.91h.32c.28,0,.5-.22.5-.5v-3c0-.28-.22-.5-.5-.5ZM4,13.47c0-.08.02-.16.05-.22l.62-1.25h14.65l.62,1.25c.03.07.05.15.05.22v4.53H4v-4.53Zm15-2.97h-6.25v-3h6.25v3Zm-7.75,0h-6.25v-3h6.25v3Zm-4.75-6.5h11c.83,0,1.5.67,1.5,1.5v.5H5v-.5c0-.83.67-1.5,1.5-1.5Z"/></svg>