<svg xmlns="http://www.w3.org/2000/svg" viewBox="0 0 24 24" width="24" height="24"><path d="m22.82,10.22c.26-.48.24-1.07-.05-1.53l-4.5-7c-.55-.86-1.97-.86-2.52,0l-4.5,7c-.3.46-.32,1.05-.05,1.53.26.48.77.78,1.32.78h9c.55,0,1.05-.3,1.32-.78Zm-7.57-2.22l1.75-2.73,1.75,2.73h-3.5Z"/><path d="m18,13c-2.76,0-5,2.24-5,5s2.24,5,5,5,5-2.24,5-5-2.24-5-5-5Zm0,7c-1.1,0-2-.9-2-2s.9-2,2-2,2,.9,2,2-.9,2-2,2Z"/><path d="m9.5,13H2.5c-.83,0-1.5.67-1.5,1.5v7c0,.83.67,1.5,1.5,1.5h7c.83,0,1.5-.67,1.5-1.5v-7c0-.83-.67-1.5-1.5-1.5Zm-1.5,7h-4v-4h4v4Z"/></svg>