<svg xmlns="http://www.w3.org/2000/svg" viewBox="0 0 24 24" width="24" height="24"><path d="m12,5c-3.52,0-6.43,2.61-6.92,6H1v3h22v-3h-4.08c-.49-3.39-3.4-6-6.92-6Zm0,3c1.86,0,3.41,1.28,3.86,3h-7.72c.45-1.72,2-3,3.86-3Z"/><path d="M11.25 1H12.75V4H11.25z"/><path d="M17.47 5.47 18 6 18.53 6.53 19.53 5.53 20.53 4.53 20 4 19.47 3.47 18.47 4.47 17.47 5.47z"/><path d="M4 4 3.47 4.53 4.47 5.53 5.47 6.53 6 6 6.53 5.47 5.53 4.47 4.53 3.47 4 4z"/><path d="M7.75 16H9.25V21H7.75z"/><path d="M11.25 17H12.75V22H11.25z"/><path d="M14.75 16H16.25V21H14.75z"/><path d="M18.25 16H19.75V19H18.25z"/><path d="M4.25 16H5.75V19H4.25z"/></svg>