<svg xmlns="http://www.w3.org/2000/svg" viewBox="0 0 24 24" width="24" height="24"><path d="m21.5,15h-9.5v-2h8.5c.62,0,1.18-.38,1.4-.96.22-.58.06-1.24-.4-1.65L11.5,1.39c-.28-.25-.63-.39-1-.39C6.13,1,2,6.1,2,11.5c0,.83.67,1.5,1.5,1.5h5.5v2H2.5c-.5,0-.96.25-1.24.66-.28.41-.34.94-.15,1.4l1.75,4.37c.38.95,1.29,1.57,2.32,1.57h13.65c1.03,0,1.94-.62,2.32-1.57l1.75-4.37c.19-.46.13-.99-.15-1.4-.28-.41-.74-.66-1.24-.66Zm-9.5-5v-4.13l4.59,4.13h-4.59Zm-6.86,0c.49-2.56,2.15-4.72,3.86-5.58v5.58h-3.86Zm13.34,10H5.52l-.8-2h14.57l-.8,2Z"/></svg>