<svg xmlns="http://www.w3.org/2000/svg" viewBox="0 0 24 24" width="24" height="24"><path d="m2.51,9.92c0-.14-.01-.28-.01-.42,0-.87.16-1.73.48-2.54.18-.46.41-.91.68-1.32l-1.25-.83c-.33.5-.61,1.04-.83,1.6-.39.99-.58,2.03-.58,3.09,0,.17,0,.35.02.52l1.5-.09Z"/><path d="m8.79,1.03c-1.82.15-3.58.91-4.95,2.13l1,1.12c1.13-1,2.58-1.63,4.08-1.75l-.13-1.49Z"/><path d="m17.9,10.79c.07-.42.1-.86.1-1.29,0-1.4-.35-2.79-1.01-4.02l-1.18.63c-1.31-.2-2.67-.11-3.94.3l.46,1.43c1.27-.41,2.65-.43,3.94-.09.15.57.23,1.16.23,1.75,0,.35-.03.71-.08,1.06l1.48.23Z"/><path d="m10.98,1.13l-.26,1.48c.45.08.9.21,1.33.37.99.39,1.85.97,2.57,1.74l1.1-1.02c-.87-.94-1.92-1.65-3.12-2.12-.52-.2-1.06-.36-1.61-.45Z"/><path d="m2.85,11.69l-1.42.47c.58,1.74,1.72,3.28,3.22,4.32l.86-1.23c-1.24-.86-2.18-2.12-2.65-3.56Z"/><path d="m11.98,17.63l-.44-1.44c-1.24.38-2.56.38-3.81.05-.15-.57-.23-1.16-.23-1.75,0-.22.01-.44.03-.66l-1.49-.14c-.03.27-.04.54-.04.8,0,1.57.43,3.11,1.25,4.45l1.28-.79c-.05-.08-.08-.16-.12-.24.36.05.72.08,1.09.08.84,0,1.67-.12,2.48-.37Z"/><path d="m17.42,12.59l-1.4-.54c-.56,1.43-1.54,2.61-2.84,3.41l.79,1.28c1.58-.97,2.77-2.41,3.45-4.14Z"/><path d="m13.68,21.45c-1.52-.18-2.91-.83-4.01-1.89l-1.04,1.08c1.34,1.28,3.03,2.08,4.87,2.3l.18-1.49Z"/><path d="m22.52,11.68c-.42-1.21-1.1-2.28-2.01-3.2-.4-.4-.83-.75-1.29-1.06l-.83,1.25c.38.25.74.55,1.07.87.75.75,1.31,1.64,1.66,2.63l1.42-.5Z"/><path d="m21.48,13.94c.01.19.02.37.02.56,0,1.33-.38,2.63-1.09,3.75l1.27.8c.86-1.36,1.32-2.94,1.32-4.55,0-.22,0-.45-.03-.67l-1.5.12Z"/><path d="m7.93,12.08c.35-.95.9-1.8,1.62-2.53.35-.35.74-.67,1.16-.93l-.81-1.26c-.5.33-.97.71-1.4,1.13-.88.88-1.54,1.91-1.97,3.07l1.41.52Z"/><path d="m20.51,20.51l-1.06-1.06c-1.08,1.08-2.46,1.77-3.97,1.98l.21,1.49c1.84-.26,3.51-1.09,4.82-2.41Z"/></svg>