<svg xmlns="http://www.w3.org/2000/svg" width="24" height="24" viewBox="0 0 24 24"><path d="M21.5 4h-19C1.67 4 1 4.67 1 5.5v4c0 .83.67 1.5 1.5 1.5.55 0 1 .45 1 1s-.45 1-1 1c-.83 0-1.5.67-1.5 1.5v4c0 .83.67 1.5 1.5 1.5h19c.83 0 1.5-.67 1.5-1.5v-4c0-.83-.67-1.5-1.5-1.5-.55 0-1-.45-1-1s.45-1 1-1c.83 0 1.5-.67 1.5-1.5v-4c0-.83-.67-1.5-1.5-1.5M20 8.29c-1.46.59-2.5 2.03-2.5 3.71s1.04 3.11 2.5 3.71V17H4v-1.29c1.46-.59 2.5-2.03 2.5-3.71S5.46 8.89 4 8.29V7h16z"/><path d="M9.53 15.25 12 13.6l2.47 1.65-.82-2.68 1.85-1.85-2.38-.21L12 8.25l-1.12 2.26-2.38.21 1.85 1.85z"/></svg>