<svg xmlns="http://www.w3.org/2000/svg" viewBox="0 0 24 24" width="24" height="24"><path d="m21.5,7h-1.5V2.5c0-.49-.24-.95-.65-1.23-.4-.28-.92-.35-1.38-.17L1.97,7.1s-.02,0-.02.01c-.06.02-.11.05-.16.08-.04.02-.07.04-.11.06-.04.03-.08.06-.12.09-.04.03-.07.06-.11.09-.03.03-.06.07-.09.11-.03.04-.06.07-.09.11-.03.04-.05.09-.08.13-.02.04-.05.08-.06.12-.02.05-.03.09-.05.14-.01.05-.03.09-.04.14,0,.04-.01.09-.02.13,0,.06-.02.11-.02.17,0,0,0,.02,0,.03v4c0,.83.67,1.5,1.5,1.5.55,0,1,.45,1,1s-.45,1-1,1c-.83,0-1.5.67-1.5,1.5v4c0,.83.67,1.5,1.5,1.5h19c.83,0,1.5-.67,1.5-1.5v-4c0-.83-.67-1.5-1.5-1.5-.55,0-1-.45-1-1s.45-1,1-1c.83,0,1.5-.67,1.5-1.5v-4c0-.83-.67-1.5-1.5-1.5Zm-4.5,0h-6.23l6.23-2.34v2.34Zm3,4.29c-1.46.59-2.5,2.03-2.5,3.71s1.04,3.11,2.5,3.71v1.29h-4v-2h-1v2H4v-1.29c1.46-.59,2.5-2.03,2.5-3.71s-1.04-3.11-2.5-3.71v-1.29h11v1h1v-1h4v1.29Z"/><path d="M15 12H16V14H15z"/><path d="M15 15H16V17H15z"/></svg>