<svg xmlns="http://www.w3.org/2000/svg" viewBox="0 0 24 24" width="24" height="24"><path d="M4.22 4.22C2.14 6.3 1 9.06 1 12s1.14 5.7 3.22 7.78C6.36 21.92 9.18 23 12 23s5.63-1.07 7.78-3.22C21.86 17.7 23 14.94 23 12s-1.14-5.7-3.22-7.78C15.49-.07 8.51-.07 4.22 4.22m13.43 2.12c.87.87 1.51 1.91 1.9 3.04-.8.87-1.5 1.91-2.17 3.29-.29.59-.7 1.11-1.23 1.54-1.59 1.3-4 1.32-5.61.06a4.48 4.48 0 0 1-1.75-3.3c-.08-1.3.4-2.57 1.32-3.48.36-.36.76-.65 1.2-.86.9-.45 2.18-1.16 3.3-2.18 1.11.38 2.16 1.01 3.05 1.9ZM19.99 12c0 2.14-.83 4.15-2.34 5.66-3.12 3.12-8.19 3.12-11.31 0C4.83 16.15 4 14.14 4 12s.83-4.15 2.34-5.66A7.98 7.98 0 0 1 12 4c.25 0 .5.01.75.04-.59.42-1.26.83-2.1 1.24-.59.29-1.13.68-1.6 1.15a6.021 6.021 0 0 0 .58 9.02c1.08.84 2.38 1.26 3.69 1.26s2.7-.45 3.8-1.34c.7-.57 1.24-1.26 1.63-2.04.4-.82.8-1.49 1.23-2.09.02.25.04.5.04.75Z"/></svg>