<svg xmlns="http://www.w3.org/2000/svg" viewBox="0 0 24 24" width="24" height="24"><path d="m18.5,9h-.5c0-3.86-3.14-7-7-7s-7,3.14-7,7v.27c-.62.22-1.2.56-1.68,1.05-.85.85-1.32,1.98-1.32,3.18,0,1.56.83,2.96,2.07,3.77-.05.24-.07.49-.07.73,0,2.21,1.79,4,4,4s4-1.79,4-4h2c0,2.21,1.79,4,4,4s4-1.79,4-4c0-.24-.03-.49-.07-.73.27-.17.52-.36.75-.59.85-.85,1.32-1.98,1.32-3.18,0-2.48-2.02-4.5-4.5-4.5Zm-6.75-3.92c1.85.35,3.25,1.97,3.25,3.92h-3.25v-3.92Zm-1.5,0v3.92h-3.25c0-1.95,1.4-3.57,3.25-3.92Zm-3.25,13.92c-.55,0-1-.45-1-1,0-.21.07-.43.2-.6h0s0-.01.01-.02c0,0,0,0,0,0,.09-.12.21-.21.34-.28,0,0,0,0,0,0,.13-.06.28-.1.44-.1.43,0,.69.25.8.4.12.17.2.38.2.6,0,.55-.45,1-1,1Zm10,0c-.55,0-1-.45-1-1,0-.21.07-.43.2-.6.11-.15.37-.4.8-.4.16,0,.31.03.44.1.02,0,.03.03.05.04.11.06.21.14.29.24,0,0,0,0,0,0,0,0,0,.01.01.02h0c.12.17.2.38.2.6,0,.55-.45,1-1,1Zm2.56-4.44c-.07.07-.15.13-.23.19-.14-.1-.3-.19-.46-.27-.17-.09-.34-.15-.52-.22-.08-.03-.16-.06-.25-.09-.21-.06-.42-.09-.63-.12,0,0,0,0,0,0-.16-.02-.31-.05-.47-.05-.5,0-.97.11-1.41.28-.05.02-.1.03-.14.05-.14.06-.28.12-.41.2-.15.08-.29.18-.43.28-.06.05-.13.09-.19.14-.02.02-.04.03-.06.04h-4.71s-.04-.03-.06-.04c-.06-.05-.12-.09-.19-.14-.14-.11-.29-.2-.44-.29-.13-.08-.27-.14-.41-.2-.05-.02-.1-.04-.15-.05-.45-.17-.91-.28-1.41-.28-.16,0-.31.03-.47.05,0,0,0,0-.01,0-.21.03-.42.06-.63.12-.08.02-.16.06-.25.09-.18.06-.36.13-.52.22-.15.08-.31.16-.45.27-.4-.27-.67-.74-.67-1.25,0-.4.16-.78.44-1.06s.66-.44,1.06-.44h13c.83,0,1.5.67,1.5,1.5,0,.4-.16.78-.44,1.06Z"/></svg>