<svg xmlns="http://www.w3.org/2000/svg" viewBox="0 0 24 24" width="24" height="24"><path d="m14.11,5h-4.61C5.07,5,1.44,9.87,1.04,16.33c-.04.69.2,1.38.68,1.88.47.5,1.13.79,1.82.79h15.47v-.02c1.11-.05,2.14-.55,2.86-1.41.76-.91,1.07-2.11.85-3.28-1.01-5.47-4.55-9.29-8.6-9.29Zm-3.11,11h-6.93c.43-4.53,2.76-8,5.43-8s5,3.53,5.43,8h-3.93Zm8.55-.35c-.11.13-.35.35-.74.35-.48,0-.89-.35-.95-.81-.33-2.83-1.23-5.22-2.53-6.98,2.06.73,3.8,3.25,4.42,6.63.07.4-.1.68-.21.81Z"/><path d="M12.5 13A.5.5 0 1 0 12.5 14 .5.5 0 1 0 12.5 13z"/><path d="M10.5 11A.5.5 0 1 0 10.5 12 .5.5 0 1 0 10.5 11z"/><path d="M9.5 13A.5.5 0 1 0 9.5 14 .5.5 0 1 0 9.5 13z"/></svg>