<svg xmlns="http://www.w3.org/2000/svg" width="24" height="24" viewBox="0 0 24 24"><path d="m16.54 4.46-2.12 2.12c.83.83.83 2 0 2.83l2.12 2.12c2.01-2.02 2.01-5.06 0-7.07"/><path d="M17.95 3.05C19.34 4.44 20.11 6.2 20.11 8s-.77 3.56-2.16 4.95l2.12 2.12C22.03 13.11 23.1 10.6 23.1 8S22.02 2.89 20.07.93zM3 7c0 2.85 2.15 5 5 5s5-2.15 5-5-2.15-5-5-5-5 2.15-5 5m7 0c0 1.18-.82 2-2 2s-2-.82-2-2 .82-2 2-2 2 .82 2 2M2.5 22h11c.83 0 1.5-.67 1.5-1.5v-2c0-3.03-2.47-5.5-5.5-5.5h-3A5.51 5.51 0 0 0 1 18.5v2c0 .83.67 1.5 1.5 1.5M4 18.5A2.5 2.5 0 0 1 6.5 16h3a2.5 2.5 0 0 1 2.5 2.5v.5H4z"/></svg>