<svg xmlns="http://www.w3.org/2000/svg" viewBox="0 0 24 24" width="24" height="24"><path d="m12,14c2,0,3.5-1.5,3.5-3.5s-1.5-3.5-3.5-3.5-3.5,1.5-3.5,3.5,1.5,3.5,3.5,3.5Zm0-5.5c1.18,0,2,.82,2,2s-.82,2-2,2-2-.82-2-2,.82-2,2-2Z"/><path d="m19.5,2H4.5c-1.38,0-2.5,1.12-2.5,2.5v15c0,1.38,1.12,2.5,2.5,2.5h15c1.38,0,2.5-1.12,2.5-2.5V4.5c0-1.38-1.12-2.5-2.5-2.5ZM7.85,19c.34-1.43,1.62-2.5,3.15-2.5h2c1.53,0,2.81,1.07,3.15,2.5H7.85Zm11.15,0h-1.33c-.36-2.26-2.31-4-4.67-4h-2c-2.36,0-4.31,1.74-4.67,4h-1.33V5h14v14Z"/></svg>