<svg xmlns="http://www.w3.org/2000/svg" viewBox="0 0 24 24" width="24" height="24"><path d="m12,1C5.93,1,1,5.93,1,12c0,.83.67,1.5,1.5,1.5h8.12v5.31c0,2.31,1.88,4.19,4.19,4.19s4.19-1.88,4.19-4.19v-.81h-3v.81c0,.66-.53,1.19-1.19,1.19s-1.19-.53-1.19-1.19v-5.31h7.88c.83,0,1.5-.67,1.5-1.5,0-6.07-4.93-11-11-11Zm3.45,9.5h-6.9c.3-3.89,1.95-6.5,3.45-6.5s3.15,2.61,3.45,6.5Zm-6.72-5.8c-.91,1.43-1.52,3.46-1.68,5.8h-2.91c.49-2.59,2.25-4.74,4.59-5.8Zm8.22,5.8c-.16-2.33-.78-4.36-1.68-5.8,2.35,1.05,4.1,3.2,4.59,5.8h-2.91Z"/></svg>