<svg xmlns="http://www.w3.org/2000/svg" viewBox="0 0 24 24" width="24" height="24"><path d="M12 1C5.93 1 1 5.93 1 12s4.93 11 11 11 11-4.93 11-11S18.07 1 12 1M8.2 4.96a7.97 7.97 0 0 1 8.55.62c-1.97-.6-3.77-.35-5.15.11-1.48.49-2.65 1.27-3.38 1.83-.18-.72-.21-1.56-.01-2.55Zm-2.56 2.2c.28-.36.58-.7.91-1.01-.06 3.74 2.8 5.76 4.85 6.47.12.72.27 2.29-.45 3.74-1.62-.58-6.69-2.95-5.31-9.2M4 12c0-.33.03-.65.06-.97.44 2.09 1.59 3.58 2.71 4.58 1.16 1.03 2.42 1.66 3.27 2.01-.51.51-1.2.94-2.11 1.26C5.58 17.48 4 14.93 4 12.01Zm7.22 7.96c-.49-.05-.97-.15-1.44-.28 1.98-1.14 2.77-2.85 3.06-4.24.27-1.32.14-2.51.03-3.14.55-.46 1.85-1.38 3.47-1.49.12.71.29 2.13-.03 3.7-.55 2.68-2.27 4.5-5.09 5.44Zm4.22-.75c2.74-2.68 2.67-6.43 2.44-8.23.68.19 1.4.56 2.12 1.17-.06 3.12-1.91 5.79-4.56 7.06m-.83-9.57a8.7 8.7 0 0 0-2.73 1.54c-.68-.25-2.12-.9-3.03-2.26.55-.46 1.71-1.32 3.23-1.83 2.6-.87 5.03-.29 7.25 1.68.19.44.34.89.46 1.37-1.97-1.13-3.83-.95-5.17-.5Z"/></svg>