<svg xmlns="http://www.w3.org/2000/svg" viewBox="0 0 24 24" width="24" height="24"><path d="m23,12c0-4.09-2.47-7.61-6-9.16v2.24c2.39,1.39,4,3.96,4,6.92,0,2.19-.9,4.16-2.34,5.6l-1.4-1.4c1.07-1.08,1.74-2.56,1.74-4.2,0-1.77-.78-3.36-2-4.46v8.4l-2-2V3.5c0-.54-.29-1.04-.77-1.31-.48-.26-1.06-.25-1.52.03l-5.84,3.59L1.53.47.47,1.53l22,22,1.06-1.06-3.45-3.45c1.79-1.81,2.92-4.28,2.92-7.02Zm-11-1.06l-2.94-2.94,2.94-1.81v4.75Z"/><path d="m12,17.82l-4.21-2.59c-.24-.15-.51-.22-.79-.22h-3v-6h1.11l-2.73-2.73c-.82.41-1.39,1.25-1.39,2.23v7c0,1.38,1.12,2.5,2.5,2.5h3.08l6.14,3.78c.24.15.51.22.79.22.25,0,.5-.06.73-.19.47-.27.77-.77.77-1.31v-1.61l-3-3v1.93Z"/></svg>