<svg xmlns="http://www.w3.org/2000/svg" viewBox="0 0 24 24" width="24" height="24"><path d="m17.5,5H6.5c-3.03,0-5.5,2.47-5.5,5.5v3c0,3.03,2.47,5.5,5.5,5.5,1.81,0,3.43-1,4.24-2.62l.43-.87c.32-.63,1.34-.63,1.66,0l.43.87c.81,1.61,2.43,2.62,4.24,2.62,3.03,0,5.5-2.47,5.5-5.5v-3c0-3.03-2.47-5.5-5.5-5.5Zm2.5,8.5c0,1.38-1.12,2.5-2.5,2.5-.66,0-1.26-.37-1.55-.96l-.43-.87c-.67-1.34-2.02-2.17-3.51-2.17s-2.84.83-3.51,2.17l-.43.87c-.3.59-.89.96-1.55.96-1.38,0-2.5-1.12-2.5-2.5v-3c0-1.38,1.12-2.5,2.5-2.5h11c1.38,0,2.5,1.12,2.5,2.5v3Z"/></svg>