<svg xmlns="http://www.w3.org/2000/svg" viewBox="0 0 24 24" width="24" height="24"><path d="m19,10.5c0-1.14-.77-2.09-1.81-2.39.19-.5.31-1.04.31-1.61,0-2.48-2.02-4.5-4.5-4.5-1.42,0-2.67.67-3.5,1.71-.83-1.03-2.08-1.71-3.5-1.71C3.52,2,1.5,4.02,1.5,6.5c0,.73.19,1.41.5,2.01-.6.46-1,1.17-1,1.99v9c0,1.38,1.12,2.5,2.5,2.5h13c1.38,0,2.5-1.12,2.5-2.5v-2.79l4,2.29v-8l-4,2.29v-2.79Zm-6-5.5c.83,0,1.5.67,1.5,1.5s-.67,1.5-1.5,1.5-1.5-.67-1.5-1.5.67-1.5,1.5-1.5Zm-7,0c.83,0,1.5.67,1.5,1.5s-.67,1.5-1.5,1.5-1.5-.67-1.5-1.5.67-1.5,1.5-1.5Zm10,14H4v-8h12v8Z"/></svg>