<svg xmlns="http://www.w3.org/2000/svg" width="24" height="24" viewBox="0 0 24 24"><path d="M12 1C5.93 1 1 5.93 1 12s4.93 11 11 11 11-4.93 11-11S18.07 1 12 1m0 19c-4.41 0-8-3.59-8-8s3.59-8 8-8 8 3.59 8 8-3.59 8-8 8"/><path d="M12 6a1 1 0 1 0 0 2 1 1 0 1 0 0-2M15.5 7.5a1 1 0 1 0 0 2 1 1 0 1 0 0-2M17 11a1 1 0 1 0 0 2 1 1 0 1 0 0-2M12 16a1 1 0 1 0 0 2 1 1 0 1 0 0-2M8.5 14.5a1 1 0 1 0 0 2 1 1 0 1 0 0-2M15.5 14.5a1 1 0 1 0 0 2 1 1 0 1 0 0-2M8.5 7.5a1 1 0 1 0 0 2 1 1 0 1 0 0-2M7 11a1 1 0 1 0 0 2 1 1 0 1 0 0-2"/></svg>