<svg xmlns="http://www.w3.org/2000/svg" width="24" height="24" viewBox="0 0 24 24"><path d="M12 23c4.96 0 9-3.99 9-8.89 0-8.17-7.93-12.73-8.26-12.92-.46-.26-1.01-.26-1.47 0-.34.19-8.26 4.75-8.26 12.92 0 4.9 4.04 8.89 9 8.89Zm0-3c-3.31 0-6-2.64-6-5.89 0-.19.02-.37.03-.55l.21-.12c1.68-.96 3.73-.89 5.34.18a6.57 6.57 0 0 0 3.65 1.11c.94 0 1.88-.22 2.77-.63 0 3.25-2.69 5.89-6 5.89Zm0-15.71c1.56 1.09 5.1 3.99 5.85 8.22l-.09.05c-1.68.96-3.73.89-5.34-.18a6.57 6.57 0 0 0-6.1-.64C7.33 7.92 10.54 5.31 12 4.29"/></svg>