<svg xmlns="http://www.w3.org/2000/svg" viewBox="0 0 24 24" width="24" height="24"><path d="m2,13h20V2H2v11Zm2-9h16v7H4v-7Z"/><path d="M6 9H18V10H6z"/><path d="m13.5,15h-2c0,.21-.04.26-.26.51-.29.34-.74.86-.74,1.82s.45,1.47.74,1.82c.22.25.26.31.26.52s-.04.26-.26.52c-.29.34-.74.86-.74,1.82h2c0-.21.04-.26.26-.52.29-.34.74-.86.74-1.82s-.45-1.47-.74-1.82c-.22-.25-.26-.31-.26-.52s.04-.26.26-.51c.29-.34.74-.86.74-1.82Z"/><path d="m17.5,15h-2c0,.21-.04.26-.26.51-.29.34-.74.86-.74,1.82s.45,1.47.74,1.82c.22.25.26.31.26.52s-.04.26-.26.52c-.29.34-.74.86-.74,1.82h2c0-.21.04-.26.26-.52.29-.34.74-.86.74-1.82s-.45-1.47-.74-1.82c-.22-.25-.26-.31-.26-.52s.04-.26.26-.51c.29-.34.74-.86.74-1.82Z"/><path d="m9.5,15h-2c0,.21-.04.26-.26.51-.29.34-.74.86-.74,1.82s.45,1.47.74,1.82c.22.25.26.31.26.52s-.04.26-.26.52c-.29.34-.74.86-.74,1.82h2c0-.21.04-.26.26-.52.29-.34.74-.86.74-1.82s-.45-1.47-.74-1.82c-.22-.25-.26-.31-.26-.52s.04-.26.26-.51c.29-.34.74-.86.74-1.82Z"/><path d="M17.5 6A.5.5 0 1 0 17.5 7 .5.5 0 1 0 17.5 6z"/></svg>