<svg xmlns="http://www.w3.org/2000/svg" viewBox="0 0 24 24" width="24" height="24"><path class="b" d="m19.24,5.04l-.87-.5-.5.87c-.27.46-.7.79-1.21.93-.52.14-1.06.07-1.52-.2l-5.2-3-2.5,4.33h0S1.45,17.86,1.45,17.86l5.2,3,5-8.66h0c.46.27.79.7.93,1.21s.07,1.05-.2,1.52l-.5.87.87.5c.93.54,1.93.79,2.92.79,2.15,0,4.26-1.22,5.53-3.42,1.85-3.21,1.02-6.92-1.95-8.63Zm-13.33,13.09l-1.73-1,4-6.93.87.5.87.5-4,6.93Zm13.54-5.46c-1.14,1.97-3.11,2.83-4.93,2.25.17-.66.16-1.35-.02-2.02-.28-1.03-.94-1.89-1.86-2.43l-3.46-2,1.5-2.6,3.46,2c.93.53,2,.67,3.04.4.67-.18,1.27-.52,1.75-1,1.42,1.28,1.66,3.42.52,5.39Z"/></svg>