<svg xmlns="http://www.w3.org/2000/svg" viewBox="0 0 24 24" width="24" height="24"><path d="m22,9c0-3.93-4.39-7-10-7S2,5.07,2,9v3h20v-3Zm-2,1H4v-1c0-2.71,3.66-5,8-5s8,2.29,8,5v1Z"/><path d="M2 13H22V15H2z"/><path d="m5,22h14c1.65,0,3-1.35,3-3v-3h-10.41l-2.59,2.59-2.59-2.59H2v3c0,1.65,1.35,3,3,3Zm7.41-4h7.59v1c0,.55-.45,1-1,1h-8.59l2-2Zm-8.41,0h1.59l2,2h-2.59c-.55,0-1-.45-1-1v-1Z"/><path d="M15 6A1 1 0 1 0 15 8 1 1 0 1 0 15 6z"/><path d="M12.5 7A.5.5 0 1 0 12.5 8 .5.5 0 1 0 12.5 7z"/><path d="M17.5 8A.5.5 0 1 0 17.5 9 .5.5 0 1 0 17.5 8z"/></svg>