<svg xmlns="http://www.w3.org/2000/svg" viewBox="0 0 24 24" width="24" height="24"><path d="m6.04,13.38l-2.83,4.09,4.9-.44.42,4.98,3.47-3.54,3.47,3.54.42-4.98,4.9.44-2.83-4.09,4.04-2.86-4.75-1.28,1.28-4.82-4.46,2.12-2.07-4.53-2.07,4.53-4.46-2.12,1.28,4.82-4.75,1.28,4.04,2.86Zm1.24-2.21l1.92-.52-.51-1.92-.17-.65.55.26,1.83.87.84-1.85.25-.55.25.55.84,1.85,1.83-.87.55-.26-.17.65-.51,1.92,1.92.52.65.18-.57.4-1.61,1.14,1.13,1.63.4.57-.64-.06-2-.18-.17,2.01-.05.63-.42-.43-1.43-1.45-1.43,1.45-.42.43-.05-.63-.17-2.01-2,.18-.64.06.4-.57,1.13-1.63-1.61-1.14-.57-.4.65-.18Z"/></svg>