<svg xmlns="http://www.w3.org/2000/svg" viewBox="0 0 24 24" width="24" height="24"><path class="b" d="M20 6A1 1 0 1 0 20 8 1 1 0 1 0 20 6z"/><path class="b" d="M9 2A1 1 0 1 0 9 4 1 1 0 1 0 9 2z"/><path class="b" d="M17.5 2A1.5 1.5 0 1 0 17.5 5 1.5 1.5 0 1 0 17.5 2z"/><path class="b" d="M13 4A2 2 0 1 0 13 8 2 2 0 1 0 13 4z"/><path class="b" d="m3.91,1.59l-1.83.81,3.38,7.59h-3.46v1c0,3.61,1.9,6.87,5,8.66v2.34h10v-2.34c3.1-1.78,5-5.05,5-8.66v-1H7.65L3.91,1.59Zm11.64,16.57l-.56.28v1.56h-6v-1.56l-.56-.28c-2.44-1.21-4.06-3.52-4.38-6.16h15.88c-.33,2.65-1.94,4.95-4.38,6.16Z"/></svg>