<svg xmlns="http://www.w3.org/2000/svg" viewBox="0 0 24 24" width="24" height="24"><path d="m13.84,4.44c-.32.84-1.03,1.48-1.89,1.73l-.45.13c-1.46.42-2.66,1.52-3.2,2.94-.32.84-1.03,1.49-1.89,1.73l-.45.13c-1.46.42-2.66,1.52-3.2,2.94l-.94,2.46,7.15,6.19,1.2-3.13c.32-.84,1.03-1.48,1.89-1.73l.45-.13c1.46-.42,2.66-1.52,3.2-2.94.32-.84,1.03-1.49,1.89-1.73l.45-.13c1.46-.42,2.66-1.52,3.2-2.94l.94-2.46L15.04,1.31l-1.2,3.13Zm5.54,4.8c-.32.84-1.03,1.48-1.89,1.73l-.45.13c-1.46.42-2.66,1.52-3.2,2.94-.32.84-1.03,1.48-1.89,1.73l-.45.13c-1.46.42-2.66,1.52-3.2,2.94l-.18.47-1.16-1.01.44-1.15c.32-.84,1.03-1.48,1.89-1.73l.45-.13c1.46-.42,2.66-1.52,3.2-2.94.32-.84,1.03-1.48,1.89-1.73l.45-.13c1.46-.42,2.66-1.52,3.2-2.94l.18-.47,1.16,1.01-.44,1.15Zm-3.49-4.55l1.16,1.01-.44,1.15c-.32.84-1.03,1.48-1.89,1.73l-.45.13c-1.46.42-2.66,1.52-3.2,2.94-.32.84-1.03,1.48-1.89,1.73l-.45.13c-1.46.42-2.66,1.52-3.2,2.94l-.18.47-1.16-1.01.44-1.15c.32-.84,1.03-1.48,1.89-1.73l.45-.13c1.46-.42,2.66-1.52,3.2-2.94.32-.84,1.03-1.48,1.89-1.73l.45-.13c1.46-.42,2.66-1.52,3.2-2.94l.18-.47Z"/></svg>