<svg xmlns="http://www.w3.org/2000/svg" viewBox="0 0 24 24" width="24" height="24"><path d="m19.58,7.62v-3.2h-3.2l-1.6-2.78-2.78,1.6-2.77-1.6-1.6,2.78h-3.2v3.2l-2.78,1.6,1.6,2.77-1.6,2.77,2.78,1.6v3.2h3.2l1.6,2.78,2.77-1.6,2.78,1.6,1.6-2.78h3.2v-3.2l2.78-1.6-1.6-2.77,1.6-2.77-2.78-1.6Zm.04,6.42l-2.04,1.18v2.35h-2.35l-1.18,2.04-2.04-1.18-2.04,1.18-1.18-2.04h-2.35v-2.35l-2.04-1.18,1.18-2.04-1.18-2.04,2.04-1.18v-2.35h2.35l1.18-2.04,2.04,1.18,2.04-1.18,1.18,2.04h2.35v2.35l2.04,1.18-1.18,2.04,1.18,2.04Z"/></svg>