<svg xmlns="http://www.w3.org/2000/svg" viewBox="0 0 24 24" width="24" height="24"><path d="m18,9.56c.97.76,2.3,1.44,4,1.44v-2c-2.18,0-3.58-1.71-4-2.3v-1.14c.97.76,2.3,1.44,4,1.44v-2c-2.62,0-4.12-2.48-4.14-2.5h-1.74c-.06.12-1.44,2.5-4.13,2.5v2c1.72,0,3.04-.66,4-1.41v1.12c-.39.58-1.72,2.29-4,2.29v2c1.72,0,3.04-.66,4-1.41v2.41H6.91L1.29,22h21.42l-4.71-8.37v-4.06Zm-13.29,10.44l2.79-4.96,2.79,4.96h-5.58Zm7.88,0l-3.37-6h6.71l3.38,6h-6.71Z"/><path d="m5.5,9c1.93,0,3.5-1.57,3.5-3.5s-1.57-3.5-3.5-3.5-3.5,1.57-3.5,3.5,1.57,3.5,3.5,3.5Zm0-5c.83,0,1.5.67,1.5,1.5s-.67,1.5-1.5,1.5-1.5-.67-1.5-1.5.67-1.5,1.5-1.5Z"/></svg>