<svg xmlns="http://www.w3.org/2000/svg" viewBox="0 0 24 24" width="24" height="24"><path d="m17.72,7H6.28l-1.67,5h-1.61v7h1v3h3v-3h10v3h3v-3h1v-7h-1.61l-1.67-5Zm-10,2h8.56l1,3H6.72l1-3Zm-2.72,8v-3h14v3H5Z"/><path d="M5 8 5.92 5.92 8 5 5.92 4.08 5 2 4.08 4 2 5 4.08 5.92 5 8z"/><path d="M16.62 4.62 18 4 16.62 3.38 16 2 15.38 3.33 14 4 15.38 4.62 16 6 16.62 4.62z"/><path d="M20 4 19.38 5.33 18 6 19.38 6.62 20 8 20.62 6.62 22 6 20.62 5.38 20 4z"/><path d="M7 14.5A1 1 0 1 0 7 16.5 1 1 0 1 0 7 14.5z"/><path d="M17 14.5A1 1 0 1 0 17 16.5 1 1 0 1 0 17 14.5z"/></svg>