<svg xmlns="http://www.w3.org/2000/svg" width="24" height="24" viewBox="0 0 24 24"><path d="M12 8c-2.21 0-4 1.79-4 4s1.79 4 4 4 4-1.79 4-4-1.79-4-4-4m0 6c-1.08 0-2-.92-2-2s.92-2 2-2 2 .92 2 2-.92 2-2 2"/><path d="M19.16 4.4 16.9 5.71c-.58-.46-1.22-.83-1.9-1.11V2H9v2.6c-.67.28-1.31.66-1.9 1.11L4.84 4.4l-3 5.19 2.24 1.29c-.05.37-.08.74-.08 1.11s.03.74.08 1.11l-2.24 1.29 3 5.19 2.26-1.31c.58.46 1.22.83 1.9 1.11v2.6h6v-2.6a8.7 8.7 0 0 0 1.9-1.11l2.26 1.31 3-5.19-2.24-1.29c.05-.37.08-.74.08-1.11s-.03-.74-.08-1.11l2.24-1.29zm-1.33 6.22c.11.45.17.92.17 1.38s-.06.92-.17 1.38l-.18.73 1.78 1.03-1 1.73-1.79-1.04-.54.52c-.68.65-1.51 1.13-2.38 1.4l-.71.22v2.04h-2v-2.04l-.71-.22c-.88-.27-1.7-.75-2.38-1.4l-.54-.52-1.79 1.04-1-1.73 1.78-1.03-.18-.73c-.11-.45-.17-.92-.17-1.38s.06-.93.17-1.38l.18-.73-1.78-1.03 1-1.73 1.79 1.04.54-.52C8.6 7 9.43 6.52 10.3 6.25l.71-.22V3.99h2v2.04l.71.22c.88.27 1.7.75 2.38 1.4l.54.52 1.79-1.04 1 1.73-1.78 1.03z"/></svg>