<svg xmlns="http://www.w3.org/2000/svg" width="24" height="24" viewBox="0 0 24 24"><path d="M21 17h-3.44l-1.64-2.68-.75-2.45A5 5 0 0 0 17 8.01c0-1.92-1.07-3.64-2.79-4.49-1.81-.89-3.97-.61-5.77.77l-.19.19C7.2 5.89 6.79 7.5 7.1 9.01c.23 1.13.85 2.13 1.73 2.85l-.75 2.45-1.64 2.68H3v5h18v-5Zm-2 3H5v-1h2.56l2.29-3.75 1.34-4.26-.69-.4a3.03 3.03 0 0 1-1.44-1.98c-.19-.92.05-1.9.71-2.82 1.17-.85 2.46-1.03 3.56-.49C14.36 5.81 15 6.84 15 7.99c0 1.07-.57 2.06-1.5 2.59l-.69.4 1.23 4.03 2.4 3.98H19v1Z"/></svg>