<svg xmlns="http://www.w3.org/2000/svg" viewBox="0 0 24 24" width="24" height="24"><path d="m12.93,4.78c-.33-1.59-1.74-2.78-3.43-2.78-1.93,0-3.5,1.57-3.5,3.5,0,.7.21,1.36.59,1.93l-4.59,1.91v9.51l20,3.33v-9.51L15.33,3.78l-2.41,1.01Zm6.21,7.39l-13.39-2.23,2.68-1.11c.07.02.13.03.2.05.06.02.12.03.18.04.23.05.46.08.7.08.18,0,.35-.02.52-.04.06,0,.11-.02.16-.03.12-.02.23-.05.34-.08.06-.02.12-.04.17-.06.1-.04.21-.08.31-.13.05-.03.11-.06.16-.08.1-.05.2-.11.29-.18.05-.03.09-.06.13-.1.1-.07.19-.15.28-.24.03-.03.07-.06.1-.1.1-.1.19-.2.27-.31.02-.03.04-.05.06-.08.09-.13.18-.26.26-.41,0-.01.02-.03.03-.04,0-.02.02-.03.03-.05l2.04-.85,4.46,5.95ZM9.5,4c.83,0,1.5.67,1.5,1.5,0,.16-.03.34-.07.48-.24.68-.97,1.08-1.66.99-.14-.02-.28-.05-.42-.12h0c-.51-.25-.84-.78-.84-1.35,0-.83.67-1.5,1.5-1.5Zm-5.5,13.15v-5.47l16,2.67v1.97l-13.84-2.31-.33,1.97,14.16,2.36v1.47l-16-2.67Z"/></svg>