<svg xmlns="http://www.w3.org/2000/svg" viewBox="0 0 24 24" width="24" height="24"><path d="m17.13,5.54c-.8-2.12-2.81-3.54-5.13-3.54s-4.33,1.42-5.13,3.54c-2.74.31-4.87,2.65-4.87,5.46,0,2.07,1.18,3.95,3,4.88v3.12h14v-3.12c1.82-.93,3-2.81,3-4.88,0-2.82-2.13-5.15-4.87-5.46Zm.53,8.75l-.67.24v2.48H7v-2.48l-.67-.24c-1.4-.5-2.33-1.82-2.33-3.28,0-1.93,1.57-3.5,3.42-3.5l1,.04.18-.8c.36-1.61,1.76-2.73,3.41-2.73s3.05,1.12,3.41,2.73l.18.8.82-.02c.06,0,.12,0,.09-.01,1.93,0,3.5,1.57,3.5,3.5,0,1.47-.94,2.79-2.33,3.28Z"/><path d="M5 20H19V22H5z"/></svg>