<svg xmlns="http://www.w3.org/2000/svg" viewBox="0 0 24 24" width="24" height="24"><path d="m2,21h20v-6H2v6Zm18-2h-2v-2h2v2Zm-16-2h12v2H4v-2Z"/><path d="m19.01,6.89c-.82-.49-1.63-.71-2.2-.81-.41-1.18-1.7-3.08-5.81-3.08v2c3.79,0,3.99,1.82,4,2v.99s.99.01.99.01c.41,0,4.01.19,4.01,5h2c0-3.57-1.62-5.29-2.99-6.11Z"/><path d="m8.75,11.41c1.72,1.17,3.9,1.4,5.83.63.32-.13.67-.09.96.1.29.19.45.51.45.85h2c0-1.01-.5-1.95-1.33-2.51-.83-.57-1.89-.68-2.83-.3-1.33.53-2.78.38-3.97-.43-1.19-.81-1.87-2.09-1.87-3.53v-3.23h-2v3.23c0,2.08,1.03,4.02,2.75,5.18Z"/></svg>