<svg xmlns="http://www.w3.org/2000/svg" viewBox="0 0 24 24" width="24" height="24"><path d="m18.71,14.81c.08-.11.16-.19.25-.25l3.85-2.56-2.51-1.67c-.23-.15-.39-.38-.45-.67-.07-.3-.01-.6.15-.84l1.88-2.82h-3.94s0,0,0,0c-.21,0-.4-.06-.54-.17-.17-.14-.29-.29-.35-.44l-1.54-3.85-3.53,2.12c-.39.24-.78.38-1.19.43-.99.13-2.01-.15-2.79-.78L5,.92v6.57c0,.1-.05.21-.1.29-.08.13-.23.22-.4.22H.59l3.13,3.13c.19.19.31.4.33.62.05.45-.1.89-.41,1.2l-3.05,3.05h5.5c.2,0,.39.06.54.18.24.19.37.45.37.72v6.51l4.47-4.47c.57-.57,1.28-.94,2.1-1.08.92-.16,1.88-.02,2.71.4l3.1,1.55-.85-4.24c-.05-.26,0-.54.17-.75h0Zm-.86-1.91c-.27.18-.52.42-.73.7l-.02.03c-.49.67-.68,1.52-.52,2.33l.05.26c-1.08-.41-2.27-.53-3.43-.33-1.2.21-2.28.77-3.14,1.63l-1.06,1.06v-1.68c0-.88-.41-1.72-1.13-2.3-.49-.39-1.12-.61-1.77-.61h-.72c.54-.71.78-1.6.66-2.51-.07-.58-.33-1.14-.75-1.62.56-.19,1.04-.56,1.35-1.08.25-.42.37-.85.37-1.3v-2.42c1.17.83,2.62,1.19,4.06,1,.65-.08,1.3-.32,1.93-.7l1.51-.91.67,1.67c.19.48.51.9.97,1.26.48.39,1.12.6,1.79.6h.23c-.32.63-.42,1.38-.26,2.1.17.78.63,1.45,1.29,1.89h.01s-1.35.91-1.35.91Z"/></svg>