<svg xmlns="http://www.w3.org/2000/svg" viewBox="0 0 24 24" width="24" height="24"><path d="m17.01,11.48l-3.68,2.61-1.17-2.07c-.35-.63-1.02-1.02-1.74-1.02H2v10h11.62c1.17,0,2.28-.51,3.04-1.4l6.07-7.08-3.93-1.31c-.6-.2-1.27-.1-1.79.27Zm-1.87,6.82c-.38.44-.93.7-1.52.7H4v-6h6.42l1.13,2h-4.54v2h5.65v-.03l.02.04,5.49-3.9,1.11.37-4.13,4.82Z"/><path d="m13.28,10.69c.19.2.45.31.72.31s.54-.11.72-.31l3.4-3.57c.57-.57.88-1.32.88-2.12s-.31-1.55-.88-2.12c-.57-.57-1.32-.88-2.12-.88-.06,0-1,.02-2,.7-1-.68-1.92-.74-2-.7-.8,0-1.56.31-2.12.88-.57.57-.88,1.32-.88,2.12s.31,1.56.86,2.1l3.41,3.59Zm-1.98-6.4c.19-.19.44-.29.68-.29.03,0,.65.04,1.31.71.39.39,1.02.39,1.41,0,.67-.67,1.29-.71,1.29-.71.27,0,.52.1.71.29h0c.19.19.29.44.29.71s-.1.52-.31.72l-2.69,2.83-2.71-2.84c-.19-.19-.29-.44-.29-.71s.1-.52.29-.71Z"/></svg>