<svg xmlns="http://www.w3.org/2000/svg" viewBox="0 0 24 24" width="24" height="24"><path d="m12.79,3.04c-2.96-.91-6.02-1.85-9.19-.48l-.6.26v19.18h2v-6.81c2.31-.73,4.69,0,7.21.77,1.89.58,3.81,1.17,5.78,1.17,1.12,0,2.26-.19,3.41-.69l.6-.26V3l-1.4.6c-2.5,1.08-5.08.28-7.81-.56Zm-3.99,1.01c-.16-.03-.31-.06-.47-.08.16.02.31.05.47.08Zm7.41,10.89c.15.02.3.05.44.07-.15-.02-.3-.05-.44-.07Zm.79.11v-2.98c-1-.1-2-.34-3-.62v2.96c-.4-.12-.8-.24-1.21-.36-.59-.18-1.19-.36-1.79-.53v-2.97c-1-.28-2-.52-3-.62v3c.05,0,.1.02.15.02-.38-.04-.76-.08-1.14-.08-.67,0-1.34.07-2.01.23v-2.97c1-.27,2-.31,3-.2v-3c-1-.1-2-.06-3,.2v-2.96c.98-.31,1.98-.34,3-.23v2.98c1,.1,2,.34,3,.62v-2.96c.4.12.8.24,1.21.36.59.18,1.19.37,1.79.53v2.96c1,.28,2,.52,3,.62v-2.99c.99.09,1.99.06,3-.18v2.97c-1,.27-2,.31-3,.2v3c1,.1,2,.06,3-.2v2.96c-.98.31-1.98.34-3,.23Z"/><path d="m11,7.55v3c1,.28,2,.62,3,.9v-3c-1-.28-2-.62-3-.9Z"/></svg>