<svg xmlns="http://www.w3.org/2000/svg" viewBox="0 0 24 24" width="24" height="24"><path d="m2,11h9V2H2v9Zm2-7h5v5h-5v-5Z"/><path d="m17.5,13c-2.48,0-4.5,2.02-4.5,4.5s2.02,4.5,4.5,4.5,4.5-2.02,4.5-4.5-2.02-4.5-4.5-4.5Zm0,7c-1.38,0-2.5-1.12-2.5-2.5s1.12-2.5,2.5-2.5,2.5,1.12,2.5,2.5-1.12,2.5-2.5,2.5Z"/><path d="M9.54 13.04 6.5 16.09 3.46 13.04 2.04 14.46 5.09 17.5 2.04 20.54 3.46 21.96 6.5 18.91 9.54 21.96 10.96 20.54 7.91 17.5 10.96 14.46 9.54 13.04z"/><path d="m12.5,11h10l-5-9-5,9Zm3.4-2l1.6-2.88,1.6,2.88h-3.2Z"/></svg>