<svg xmlns="http://www.w3.org/2000/svg" viewBox="0 0 24 24" width="24" height="24"><path d="m20.24,4.76c-2.3-2.29-5.87-2.35-8.24-.19-2.36-2.16-5.93-2.09-8.24.2-2.36,2.37-2.36,6.07,0,8.43l8.24,8.22,8.24-8.22c2.36-2.36,2.36-6.06,0-8.43h0Zm-1.41,7.02l-6.82,6.81-6.82-6.81c-1.57-1.57-1.57-4.03,0-5.6.79-.79,1.8-1.18,2.81-1.18s2.02.39,2.8,1.18l1.21,1.21,1.21-1.21c1.57-1.57,4.04-1.57,5.62,0,1.57,1.58,1.57,4.04,0,5.6Z"/><path d="M13 8.5 11 8.5 11 11 8.5 11 8.5 13 11 13 11 15.5 13 15.5 13 13 15.5 13 15.5 11 13 11 13 8.5z"/></svg>