<svg xmlns="http://www.w3.org/2000/svg" viewBox="0 0 24 24" width="24" height="24"><path d="m16.89,6.45c.52-1.04,1.11-2.21,1.11-4.45h-2c0,1.76-.41,2.59-.89,3.55-.52,1.04-1.11,2.21-1.11,4.45h2c0-1.76.41-2.59.89-3.55Z"/><path d="m19.11,5.55c-.52,1.04-1.11,2.21-1.11,4.45h2c0-1.76.41-2.59.89-3.55.52-1.04,1.11-2.21,1.11-4.45h-2c0,1.76-.41,2.59-.89,3.55Z"/><path d="M5.5 2A2.5 2.5 0 1 0 5.5 7 2.5 2.5 0 1 0 5.5 2z"/><path d="m6.5,8c-2.31,0-4.2,1.75-4.45,4h-.05v6c0,2.21,1.79,4,4,4h12c2.21,0,4-1.79,4-4v-6h-10.39c-1.75-2.26-2.8-4-5.11-4Zm13.5,10c0,1.1-.9,2-2,2H6c-1.1,0-2-.9-2-2v-4h16v4Z"/></svg>