<svg xmlns="http://www.w3.org/2000/svg" width="24" height="24" viewBox="0 0 24 24"><path d="M8.19 15.08c.26.36.62 1.38.81 2.05v4.86h6v-4.86c.2-.68.56-1.7.82-2.06.35-.5.72-.94 1.08-1.36.97-1.14 1.98-2.32 2.09-4.34.18-3.36-2.13-6.45-5.37-7.19-2.11-.48-4.29 0-5.97 1.34A6.99 6.99 0 0 0 5 9c0 2.29 1.07 3.53 2.1 4.73.36.42.73.85 1.09 1.35M11 20v-2h2.02L13 20zM8.9 5.09c1.2-.95 2.76-1.3 4.27-.95 2.31.53 3.95 2.74 3.82 5.13-.07 1.35-.72 2.11-1.61 3.15-.37.43-.79.93-1.2 1.51-.37.53-.7 1.42-.92 2.07h-2.52c-.21-.65-.55-1.55-.93-2.08-.41-.57-.83-1.06-1.2-1.49C7.64 11.3 6.99 10.55 6.99 9s.69-2.95 1.9-3.91Z"/><path d="M12 7V5C9.79 5 8 6.79 8 9h2c0-1.1.9-2 2-2"/></svg>