<svg xmlns="http://www.w3.org/2000/svg" viewBox="0 0 24 24" width="24" height="24"><path d="m22.97,9.84l-.11-.79-.8-.07s-.18-.01-.43,0c.52-1.82-.24-3.5-.27-3.58l-.35-.74-.8.19c-.05.01-.74.2-1.52.68-.02-.11-.03-.23-.07-.34-.68-2.25-2.84-3.08-2.93-3.11l-.77-.29-.43.71c-.05.09-1.28,2.14-.62,4.34.5,1.66,1.8,2.54,2.49,2.9.03,1.17.43,2.05.45,2.11l.18.4c-.37,1.17-.27,2.2-.25,2.32-.82.79-1.23,1.76-1.4,2.33-.1,0-.2-.02-.31-.02-1.38.03-2.41.75-3.04,1.33-.62-.58-1.66-1.3-3.04-1.33-.11,0-.21.02-.31.02-.17-.56-.58-1.54-1.4-2.33.02-.12.12-1.15-.25-2.32l.18-.4c.03-.06.42-.94.45-2.11.69-.37,1.99-1.25,2.49-2.9.66-2.2-.57-4.25-.62-4.34l-.43-.71-.77.29c-.09.03-2.25.86-2.93,3.11-.03.12-.04.23-.07.34-.78-.48-1.47-.66-1.52-.68l-.8-.19-.35.74c-.04.08-.79,1.75-.27,3.58-.24,0-.41,0-.43,0l-.8.07-.11.79c-.01.09-.27,2.23,1.09,3.88-.06.02-.11.04-.12.05l-.71.32.13.77c.02.1.45,2.44,2.47,3.5.38.2.76.32,1.14.4l-.46.54.44.63c.06.08,1.42,2.02,3.71,2.07.03,0,.07,0,.1,0,1.4,0,2.53-.72,3.18-1.26.65.54,1.77,1.26,3.18,1.26.03,0,.07,0,.1,0,2.29-.05,3.65-1.99,3.71-2.07l.44-.63-.46-.54c.38-.08.76-.2,1.14-.4,2.02-1.07,2.45-3.4,2.47-3.5l.13-.77-.71-.32s-.06-.02-.12-.05c1.35-1.64,1.1-3.78,1.08-3.88Zm-3.5,1.99c.43-.46,1-.67,1.48-.78-.08.48-.27,1.06-.7,1.52-.43.46-1,.67-1.48.78.08-.48.27-1.06.7-1.52Zm.32-4.65c.06.48.05,1.08-.23,1.65-.28.57-.75.96-1.18,1.22-.06-.48-.04-1.08.23-1.65.28-.57.75-.96,1.17-1.21Zm-3.97-2.73c.35.29.71.72.89,1.3.19.64.11,1.29-.03,1.79-.35-.29-.71-.72-.89-1.3-.19-.64-.11-1.29.03-1.79Zm-11.29,7.38c.44.46.63,1.04.7,1.52-.48-.1-1.04-.32-1.48-.78-.44-.46-.62-1.04-.7-1.52.48.1,1.04.32,1.48.78Zm2.76-6.08c.17-.58.54-1,.89-1.3.14.5.23,1.15.03,1.79-.17.58-.54,1-.89,1.3-.14-.5-.23-1.15-.03-1.79Zm-3.08,1.43c.42.25.89.64,1.17,1.22.28.57.29,1.17.23,1.65-.42-.25-.89-.64-1.17-1.22-.28-.57-.29-1.17-.23-1.65Zm-.51,8.18c.49-.07,1.1-.05,1.66.24.55.29.91.79,1.12,1.22-.49.07-1.1.05-1.66-.24-.55-.29-.91-.79-1.12-1.22Zm5.07,4.64c-.61-.01-1.12-.3-1.49-.59.42-.29.99-.54,1.64-.56.61.02,1.12.3,1.49.59-.42.29-.99.55-1.64.56Zm6.46,0c-.65,0-1.22-.27-1.64-.56.37-.29.88-.57,1.49-.59.63,0,1.22.27,1.64.56-.37.29-.88.57-1.49.59Zm3.94-3.42c-.56.29-1.17.31-1.66.24.22-.43.57-.93,1.12-1.22.56-.29,1.17-.31,1.66-.24-.22.43-.57.93-1.12,1.22Z"/></svg>