<svg xmlns="http://www.w3.org/2000/svg" viewBox="0 0 24 24" width="24" height="24"><path d="m20,18h-3.64c-1.17,0-2.28-.56-2.98-1.49-.66-.88-2.1-.88-2.76,0-.7.93-1.82,1.49-2.98,1.49h-3.64c-1.1,0-2-.9-2-2v-8c0-1.1.9-2,2-2h16c1.1,0,2,.9,2,2v8c0,1.1-.9,2-2,2Zm-8-4.18c1.18,0,2.27.54,2.98,1.49.32.43.84.69,1.38.69h3.64v-8H4v8h3.64c.54,0,1.06-.26,1.38-.69.71-.95,1.8-1.49,2.98-1.49Z"/><path d="M7.5 10A2.5 1.5 0 1 0 7.5 13 2.5 1.5 0 1 0 7.5 10z"/><path d="M16.5 10A2.5 1.5 0 1 0 16.5 13 2.5 1.5 0 1 0 16.5 10z"/></svg>