<svg xmlns="http://www.w3.org/2000/svg" width="24" height="24" viewBox="0 0 24 24"><path d="M8.03 12.27a3.98 3.98 0 0 0 3.7 3.7zM20 12h-2c0 1.29-.42 2.49-1.12 3.47l-1.44-1.44c.36-.59.56-1.28.56-2.02v-6c0-2.21-1.79-4-4-4s-4 1.79-4 4v.59L2.71 1.29 1.3 2.7l6.71 6.71 2 2 2.51 2.51 1.51 1.51 1.45 1.45 1.43 1.43 4.4 4.4 1.41-1.41-4.4-4.4a7.9 7.9 0 0 0 1.69-4.89ZM10 8.59V6c0-1.1.9-2 2-2s2 .9 2 2v6c0 .18-.03.35-.07.51L10 8.58Z"/><path d="M13.55 17.79c-.49.13-1.01.21-1.55.21-3.31 0-6-2.69-6-6H4c0 4.07 3.06 7.44 7 7.93V22h2v-2.07a7.6 7.6 0 0 0 2.12-.57z"/></svg>