<svg xmlns="http://www.w3.org/2000/svg" viewBox="0 0 24 24" width="24" height="24"><path d="m15.35,8.14c-.87-.86-2.26-.86-3.12,0l-.22.22-.22-.22c-.87-.86-2.26-.86-3.12,0-.85.82-.87,2.16-.06,3.01.02.02.04.04.06.06l3.35,3.29,3.35-3.29c.85-.82.87-2.16.06-3.01-.02-.02-.04-.04-.06-.06Z"/><path d="m12,3C6.49,3,2,6.59,2,11c0,2.91,1.9,5.51,5,6.93v5.07l5.34-4c5.36-.14,9.66-3.67,9.66-8S17.51,3,12,3Zm0,14h-.33l-2.67,2v-2.42l-.64-.25c-2.69-1.04-4.36-3.08-4.36-5.34,0-3.31,3.59-6,8-6s8,2.69,8,6-3.59,6-8,6Z"/></svg>