<svg xmlns="http://www.w3.org/2000/svg" viewBox="0 0 24 24" width="24" height="24"><path d="m16,2c-1.6,0-3.1.62-4.25,1.76-1.13,1.14-1.75,2.65-1.75,4.24,0,.2.01.4.03.6L1.64,18.56l3.8,3.8,9.96-8.39c.19.02.39.03.6.03,1.6,0,3.1-.62,4.25-1.76,1.13-1.14,1.75-2.65,1.75-4.24s-.62-3.1-1.76-4.25c-1.14-1.13-2.65-1.75-4.24-1.75Zm-3.15,3.56l5.59,5.59c-.7.54-1.55.85-2.44.85-.22,0-.44-.02-.63-.05l-3.32-3.32c-.03-.2-.05-.41-.05-.63,0-.9.31-1.74.85-2.44Zm-7.29,14.09l-1.2-1.2,6.71-7.96,2.46,2.46-7.96,6.71Zm13.59-9.2l-5.59-5.59c.7-.54,1.55-.85,2.44-.85,1.07,0,2.07.42,2.83,1.16.75.76,1.17,1.77,1.17,2.84,0,.9-.31,1.74-.85,2.44Z"/></svg>