<svg xmlns="http://www.w3.org/2000/svg" viewBox="0 0 24 24" width="24" height="24"><path d="m9.5,22c-2,0-3.89-.78-5.3-2.2-2.92-2.92-2.92-7.68,0-10.61L14.55.37l-1.14,5.71L23.57.43l-5.87,10.57h5.67l-8.56,8.79c-1.43,1.43-3.31,2.21-5.31,2.21Zm1.95-16.37l-5.9,5.03c-2.09,2.09-2.09,5.58.06,7.72,1.04,1.04,2.42,1.61,3.89,1.61s2.85-.57,3.89-1.61l5.24-5.39h-4.33l4.13-7.43-7.83,4.35.86-4.29Z"/><path d="m10.98,11.34c0,.05.02.1.02.16,0,.83-.67,1.5-1.5,1.5s-1.5-.67-1.5-1.5c0-.05.01-.11.02-.16-1.19.56-2.02,1.76-2.02,3.16,0,1.93,1.57,3.5,3.5,3.5s3.5-1.57,3.5-3.5c0-1.4-.83-2.6-2.02-3.16Z"/></svg>