<svg xmlns="http://www.w3.org/2000/svg" viewBox="0 0 24 24" width="24" height="24"><path d="m19,2c-1.65,0-3,1.35-3,3v3.59c0-1.67-.84-3.26-2.32-4.28l-3.68-2.53-3.68,2.53c-1.6,1.1-2.43,2.88-2.29,4.68h-2.03v13h20V5c0-1.65-1.35-3-3-3Zm-3,7h-.03c0-.1.03-.21.03-.31v.31Zm-8.55-3.04l2.55-1.75,2.55,1.75c1.04.72,1.56,1.88,1.42,3.04h-7.94c-.14-1.16.38-2.32,1.42-3.04Zm8.55,14.04h-2v-2c0-2-1.5-3-1.5-3,0,0-1.5,1-1.5,3v2h-2v-2c0-2-1.5-3-1.5-3,0,0-1.5,1-1.5,3v2h-2v-6h12v6Zm0-8H4v-1h12v1Zm4,8h-2v-12h2v12Zm-2-14v-1c0-.55.45-1,1-1s1,.45,1,1v1h-2Z"/></svg>