<svg xmlns="http://www.w3.org/2000/svg" viewBox="0 0 24 24" width="24" height="24"><path d="m14.91,13.5l1.59-1.59,1.5,1.5,4.41-4.41L15,1.59l-4.41,4.41,1.5,1.5-1.59,1.59-1.5-1.5L2.71,1.29l-1.41,1.41,6.29,6.29,1.41,1.41,1.5,1.5,1.59,1.59,1.5,1.5,1.41,1.41,6.29,6.29,1.41-1.41-6.29-6.29-1.5-1.5Zm-3-3l3-3-1.5-1.5,1.59-1.59,4.59,4.59-1.59,1.59-1.5-1.5-3,3-1.59-1.59Z"/><path d="M12 16.59 7.41 12 7.59 11.83 6.17 10.41 4.59 12 7.59 15 2.29 20.29 3.71 21.71 9 16.41 12 19.41 13.59 17.83 12.17 16.41 12 16.59z"/></svg>