<svg xmlns="http://www.w3.org/2000/svg" viewBox="0 0 24 24" width="24" height="24"><path d="M12 4A2 2 0 1 0 12 8 2 2 0 1 0 12 4z"/><path d="M5 7A2 2 0 1 0 5 11 2 2 0 1 0 5 7z"/><path d="M19 7A2 2 0 1 0 19 11 2 2 0 1 0 19 7z"/><path d="m20,12h-1.46c-.67,0-1.29.33-1.66.89l-3.41,5.11h-2.93l-3.41-5.11c-.37-.56-.99-.89-1.66-.89h-1.46c-1.1,0-2,.9-2,2v6h5v-3.7l2.46,3.7h5.07l2.46-3.7v3.7h5v-6c0-1.1-.9-2-2-2Z"/><path d="m12.39,16l2.61-3.91v-1.09c0-1.1-.9-2-2-2h-2c-1.1,0-2,.9-2,2v1.09l2.61,3.91h.79Z"/></svg>