<svg xmlns="http://www.w3.org/2000/svg" viewBox="0 0 24 24" width="24" height="24"><path d="m15.29,6.79l-1.31,1.31-5.83,1.59-2.25,10.12,1.78,1.78,10.12-2.25,1.59-5.83,1.31-1.31,2.71-2.71-5.41-5.41-2.71,2.71Zm.9,10.86l-6.34,1.41,3.07-3.07s.05,0,.08,0c.83,0,1.5-.67,1.5-1.5s-.67-1.5-1.5-1.5-1.5.67-1.5,1.5c0,.03,0,.05,0,.08l-3.07,3.07,1.41-6.34,5.14-1.4,2.61,2.61-1.4,5.14Zm3.1-6.86l-.29.29-2.59-2.59.29-.29,1.29-1.29,2.59,2.59-1.29,1.29Z"/><path d="M5 10 7 10 7 7 10 7 10 5 7 5 7 2 5 2 5 5 2 5 2 7 5 7 5 10z"/></svg>