<svg xmlns="http://www.w3.org/2000/svg" width="24" height="24" viewBox="0 0 24 24"><path d="m16.7 13.07-1.06-.71-.87.94-1.47 1.59c-.69-.43-1.61-1.07-2.36-1.82s-1.39-1.68-1.82-2.36l1.59-1.47.94-.87-.71-1.06-3.09-4.64L7 1.4l-1.26.87-3.09 2.14-.61.42-.03.75c-.03.69-.16 6.9 4.68 11.74 4.35 4.35 9.81 4.69 11.38 4.69h.35l.74-.03.43-.61 2.14-3.09.87-1.26-1.27-.85-4.64-3.09ZM6.46 4.2l2.57 3.86-2.43 2.25.17.34c.05.09 1.15 2.24 2.74 3.84 1.6 1.6 3.75 2.7 3.84 2.75l.34.17 2.25-2.43 3.86 2.57-1.7 2.46c-1.16 0-6.13-.24-9.99-4.1s-4.1-8.84-4.1-9.99l2.46-1.7ZM20.1 13.1c2.53-2.53 2.53-6.66 0-9.19s-6.66-2.53-9.19 0l1.41 1.41a4.51 4.51 0 0 1 6.36 0 4.51 4.51 0 0 1 0 6.36l1.41 1.41Z"/><path d="M17.71 10.71a3.114 3.114 0 0 0 0-4.41 3.114 3.114 0 0 0-4.41 0l1.41 1.41c.44-.44 1.15-.44 1.59 0s.44 1.15 0 1.59z"/></svg>