<svg xmlns="http://www.w3.org/2000/svg" viewBox="0 0 24 24" width="24" height="24"><path d="m12,2C6.49,2,2,6.49,2,12c0,3.26,1.58,6.15,4,7.98v.02h.03c1.67,1.25,3.73,2,5.97,2s4.31-.75,5.97-2h.03v-.02c2.42-1.83,4-4.72,4-7.98,0-5.51-4.49-10-10-10Zm-.91,9h1.83l2.72,3.81-1.53.77-2.11-1.58-2.11,1.58-1.53-.77,2.72-3.81Zm-3.09,7.92v-2.05l2.11,1.05,1.89-1.42,1.89,1.42,2.11-1.05v2.05c-1.18.68-2.54,1.08-4,1.08s-2.82-.4-4-1.08Zm10-1.64v-2.59l-6-8.4-6,8.4v2.59c-1.24-1.41-2-3.25-2-5.27,0-4.41,3.59-8,8-8s8,3.59,8,8c0,2.02-.76,3.86-2,5.27Z"/></svg>