<svg xmlns="http://www.w3.org/2000/svg" viewBox="0 0 24 24" width="24" height="24"><path d="m22,4.7c0-.72-.28-1.4-.79-1.91-1.02-1.02-2.8-1.02-3.82,0l-2.43,2.44-2.65-2.65-3.38,3.39L1.59,13.31l9.1,9.11,6.66-6.65h0s.63-.63.63-.63l.78-.78h0s2.65-2.66,2.65-2.66l-2.64-2.64,2.44-2.44c.51-.51.79-1.19.79-1.91ZM4.41,13.31l5.25-5.24,5.07,5.07,1.2,1.2-5.25,5.24-6.28-6.28Zm15.38-8.12l-3.85,3.86,2.64,2.64-1.24,1.24-6.28-6.28,1.24-1.24,2.65,2.65,3.85-3.86c.26-.26.72-.26.99,0,.14.14.21.31.21.49s-.07.36-.21.49Z"/></svg>