<svg xmlns="http://www.w3.org/2000/svg" width="24" height="24" viewBox="0 0 24 24"><path d="M21.19 11.29c.47-.47.73-1.1.73-1.77s-.26-1.3-.73-1.77l-1.77-1.77 2.12-2.12-1.41-1.41-2.12 2.12-1.77-1.77c-.97-.97-2.56-.97-3.54 0L9.52 5.98 18 14.47l3.18-3.18Zm-7.07-7.07c.13-.13.28-.15.35-.15s.23.02.35.15l4.95 4.95c.13.13.15.28.15.35s-.02.23-.15.35L18 11.64l-5.66-5.66 1.77-1.77ZM13.06 12.35l-2.12 2.12-1.41-1.41 2.12-2.12-1.41-1.41-2.12 2.12L6 9.53l-3.18 3.18c-.47.47-.73 1.1-.73 1.77s.26 1.3.73 1.77l1.77 1.77-2.12 2.12 1.41 1.41L6 19.43l1.77 1.77c.49.49 1.13.73 1.77.73s1.28-.24 1.77-.73l3.18-3.18-2.12-2.12 2.12-2.12-1.41-1.41Zm-3.18 7.42c-.13.13-.28.15-.35.15s-.23-.02-.35-.15l-4.95-4.95c-.13-.13-.15-.28-.15-.35s.02-.23.15-.35L6 12.35l3.54 3.54 1.41 1.41.71.71-1.77 1.77Z"/></svg>