<svg xmlns="http://www.w3.org/2000/svg" width="24" height="24" viewBox="0 0 24 24"><path d="M5.85 14c-.27 1.02-1.01 2.51-3.1 3.03l-.76.19V20h1c2.78 0 4.91-.77 6.31-2.29 1.89-2.05 1.7-4.68 1.69-4.71V4H1v10zM3 6h6v7.08s.12 1.9-1.18 3.29c-.48.52-1.11.91-1.87 1.19 1.56-1.42 2.04-3.4 2.04-4.56v-1H3zM17.85 14c-.27 1.02-1.01 2.51-3.1 3.03l-.76.19V20h1c2.78 0 4.91-.77 6.31-2.29 1.89-2.05 1.7-4.68 1.69-4.71V4h-10v10h4.85ZM15 6h6v7.08s.12 1.9-1.18 3.29c-.48.52-1.11.91-1.87 1.19 1.56-1.42 2.04-3.4 2.04-4.56v-1h-5V6Z"/></svg>