<svg xmlns="http://www.w3.org/2000/svg" width="24" height="24" viewBox="0 0 24 24"><path d="M14.59 6.59c-.78.78-.78 2.05 0 2.83s2.05.78 2.83 0 .78-2.05 0-2.83-2.05-.78-2.83 0M5 16c-2 1-2 5-2 5s3 0 5-2z"/><path d="M10.95 4.64 8.69 6.9a8.4 8.4 0 0 0-6.24 1.27l-1.02.68L15 22.42l.71-.71c1.9-1.9 1.6-5.08 1.38-6.38l2.28-2.28c1.7-1.7 2.64-3.96 2.64-6.36V2h-4.69c-2.4 0-4.66.94-6.36 2.64ZM20 6.69c0 1.87-.73 3.63-2.05 4.95l-3.06 3.06.13.55c.19.79.45 2.78-.17 4.2L4.65 9.24c2.11-.89 3.94-.32 4.03-.29l.59.2 3.09-3.09a6.96 6.96 0 0 1 4.95-2.05H20V6.7Z"/></svg>