<svg xmlns="http://www.w3.org/2000/svg" viewBox="0 0 24 24" width="24" height="24"><path d="m16.99,3.34l-.86-.49-3.07,5.32c-.34-.09-.69-.16-1.06-.16s-.72.07-1.06.16l-3.07-5.32-.86.49c-1.52.87-2.78,2.13-3.67,3.66-.88,1.53-1.34,3.26-1.34,5.01v1s6.14,0,6.14,0c.18.71.55,1.35,1.06,1.85l-3.06,5.3.86.5c1.51.88,3.24,1.35,5,1.35s3.49-.47,5-1.35l.86-.5-3.06-5.3c.51-.5.87-1.14,1.06-1.85h6.13s0-.99,0-.99c0-1.75-.45-3.48-1.34-5.01-.88-1.53-2.15-2.79-3.67-3.66Zm-2.99,8.66c0,1.1-.9,2-2,2s-2-.9-2-2,.9-2,2-2,2,.9,2,2Zm-5.86-1h-4.08c.13-1.05.47-2.07,1.01-3,.54-.93,1.25-1.74,2.1-2.37l2.03,3.52c-.51.5-.87,1.14-1.06,1.85Zm6.96,8.37c-1.95.82-4.26.82-6.21,0l2.04-3.53c.34.09.69.16,1.06.16s.72-.07,1.06-.16l2.04,3.53Zm.75-8.37c-.18-.71-.55-1.35-1.06-1.85l2.03-3.52c.84.64,1.56,1.44,2.09,2.37.54.93.88,1.95,1.01,3h-4.08Z"/></svg>