<svg xmlns="http://www.w3.org/2000/svg" width="24" height="24" viewBox="0 0 24 24"><path d="M5.5 2 1.48 7.36l2.18 1.09-1.06 2.13c-.39.78-.59 1.65-.59 2.52 0 2.75 1.73 5.25 4.31 6.22l3.01 1.13c.75.28 1.41.71 1.97 1.27l.71.71.71-.71c.56-.56 1.22-.99 1.97-1.27l3.02-1.13a6.66 6.66 0 0 0 4.31-6.21c0-.87-.21-1.74-.6-2.52l-1.06-2.12 2.18-1.09-4.02-5.36H5.5Zm14.12 9.47c.25.5.38 1.07.38 1.63 0 1.92-1.21 3.67-3.01 4.34l-3.02 1.13c-.72.27-1.38.64-1.97 1.1-.6-.46-1.26-.83-1.97-1.1l-3.02-1.13A4.65 4.65 0 0 1 4 13.1c0-.56.13-1.12.38-1.62l1.96-3.92-1.82-.91L6.5 4.01h11l1.98 2.64-1.82.91z"/></svg>