<svg xmlns="http://www.w3.org/2000/svg" viewBox="0 0 24 24" width="24" height="24"><path d="m3,22h18V2H3v20ZM5,4h14v8.5c-.38,0-.52-.1-.82-.31-.41-.29-.96-.69-1.98-.69s-1.58.4-1.98.69c-.3.22-.44.31-.82.31s-.52-.1-.82-.31c-.41-.29-.96-.69-1.98-.69s-1.58.4-1.98.69c-.3.22-.44.31-.82.31s-.52-.1-.82-.31c-.41-.29-.96-.69-1.98-.69v-7.5Zm0,9.5c.38,0,.52.1.82.31.41.29.96.69,1.98.69s1.58-.4,1.98-.69c.3-.21.44-.31.82-.31s.52.1.82.31c.41.29.96.69,1.98.69s1.58-.4,1.98-.69c.3-.22.44-.31.82-.31s.52.1.82.31c.41.29.96.69,1.98.69v2c-.38,0-.52-.1-.82-.31-.41-.29-.96-.69-1.98-.69s-1.58.4-1.98.69c-.3.22-.44.31-.82.31s-.52-.1-.82-.31c-.41-.29-.96-.69-1.98-.69s-1.58.4-1.98.69c-.3.21-.44.31-.82.31s-.52-.1-.82-.31c-.41-.29-.96-.69-1.98-.69v-2Zm0,4c.38,0,.52.1.82.31.41.29.96.69,1.98.69s1.58-.4,1.98-.69c.3-.21.44-.31.82-.31s.52.1.82.31c.41.29.96.69,1.98.69s1.58-.4,1.98-.69c.3-.22.44-.31.82-.31s.52.1.82.31c.41.29.96.69,1.98.69v1.5H5v-2.5Z"/><path d="M8.5 6A1.5 1.5 0 1 0 8.5 9 1.5 1.5 0 1 0 8.5 6z"/></svg>