<svg xmlns="http://www.w3.org/2000/svg" viewBox="0 0 24 24" width="24" height="24"><path d="m19.95,4.05c-.67-.67-1.45-1.19-2.32-1.54-1.68-.68-3.59-.68-5.27,0l.75,1.85c1.2-.49,2.57-.49,3.76,0,.62.25,1.18.62,1.65,1.1.48.48.85,1.03,1.1,1.65.24.6.37,1.23.37,1.88s-.12,1.28-.37,1.88l1.85.75c.34-.84.51-1.73.51-2.63s-.17-1.79-.51-2.63c-.35-.87-.87-1.65-1.54-2.32Z"/><path d="m13.71,11.7c.39.19.82.3,1.29.3,1.65,0,3-1.35,3-3s-1.35-3-3-3-3,1.35-3,3c0,.46.11.89.3,1.29l-1.1,1.1-5.8-5.8-.71.71c-3.35,3.35-3.57,8.66-.67,12.26l-1.74,1.74,1.41,1.41,1.73-1.73c1.68,1.35,3.72,2.02,5.76,2.02,2.36,0,4.71-.9,6.51-2.69l.71-.71-5.8-5.8,1.1-1.1Zm1.29-3.7c.55,0,1,.45,1,1s-.45,1-1,1-1-.45-1-1,.45-1,1-1Zm-8.89,9.89c-2.57-2.57-2.79-6.61-.66-9.43l10.09,10.09c-2.82,2.13-6.86,1.91-9.43-.66Z"/></svg>