<svg xmlns="http://www.w3.org/2000/svg" viewBox="0 0 24 24" width="24" height="24"><path d="m3,21h18V3H3v18ZM5,5h14v14H5V5Z"/><path d="m15.79,6.79l-1.77,1.77c-.59-.35-1.28-.57-2.02-.57s-1.42.22-2.02.57l-1.77-1.77-1.41,1.41,1.77,1.77c-.35.59-.57,1.28-.57,2.02s.22,1.42.57,2.02l-1.77,1.77,1.41,1.41,1.77-1.77c.59.35,1.28.57,2.02.57s1.42-.22,2.02-.57l1.77,1.77,1.41-1.41-1.77-1.77c.35-.59.57-1.28.57-2.02s-.22-1.42-.57-2.02l1.77-1.77-1.41-1.41Zm-3.79,7.21c-1.1,0-2-.9-2-2s.9-2,2-2,2,.9,2,2-.9,2-2,2Z"/></svg>