<svg xmlns="http://www.w3.org/2000/svg" viewBox="0 0 24 24" width="24" height="24"><path d="m19.17,9h-4.02c-.32,0-.61-.14-.8-.4-.19-.25-.25-.57-.16-.88l.54-1.9c.26-.91.08-1.87-.49-2.63s-1.44-1.19-2.4-1.19h-2.1l-1.35,4.74c-.42,1.47-1.62,2.56-3.13,2.84l-3.26.59v10.83h3.42c.94,0,1.87.15,2.77.45,1.1.37,2.24.55,3.4.55h5.59c1.56,0,2.83-1.27,2.83-2.83,0-.46-.11-.9-.31-1.28.79-.5,1.31-1.39,1.31-2.39,0-.46-.11-.9-.31-1.28.79-.5,1.31-1.39,1.31-2.39,0-1.56-1.27-2.83-2.83-2.83Zm0,3.67h-1.17v2h.17c.46,0,.83.37.83.83s-.37.83-.83.83h-1.17v2h.17c.46,0,.83.37.83.83s-.37.83-.83.83h-5.59c-.94,0-1.87-.15-2.77-.45-1.1-.37-2.24-.55-3.4-.55h-1.42v-7.17l1.62-.29c2.26-.41,4.06-2.04,4.7-4.25l.94-3.29h.59c.32,0,.61.14.8.4.19.25.25.57.16.88l-.54,1.9c-.26.91-.08,1.87.49,2.63s1.44,1.19,2.4,1.19h4.02c.46,0,.83.37.83.83s-.37.83-.83.83Z"/></svg>