<svg xmlns="http://www.w3.org/2000/svg" width="24" height="24" viewBox="0 0 24 24"><g opacity="0.4"><path d="m10.5,22c4.69,0,8.5-3.81,8.5-8.5,0-1.99-.69-3.81-1.83-5.26l-4.46,4.46c-.2.2-.45.29-.71.29s-.51-.1-.71-.29c-.39-.39-.39-1.02,0-1.41l4.46-4.46c-1.45-1.14-3.27-1.83-5.26-1.83-4.69,0-8.5,3.81-8.5,8.5s3.81,8.5,8.5,8.5Z"/></g><path d="m21.25,2h-4.44c-.67,0-1,.81-.53,1.28l1.51,1.51-6.5,6.5c-.39.39-.39,1.02,0,1.41.2.2.45.29.71.29s.51-.1.71-.29l6.5-6.5,1.51,1.51c.47.47,1.28.14,1.28-.53V2.75c0-.41-.34-.75-.75-.75Z"/></svg>