<svg xmlns="http://www.w3.org/2000/svg" width="24" height="24" viewBox="0 0 24 24"><g opacity="0.4"><path d="m13.5,2c-4.69,0-8.5,3.81-8.5,8.5,0,1.98.69,3.81,1.83,5.25l5.75-5.75h-3.59c-.55,0-1-.45-1-1s.45-1,1-1h6c.55,0,1,.45,1,1v6c0,.55-.45,1-1,1s-1-.45-1-1v-3.59l-5.75,5.75c1.45,1.14,3.27,1.83,5.25,1.83,4.69,0,8.5-3.81,8.5-8.5S18.19,2,13.5,2Z"/></g><path d="m15,16c.55,0,1-.45,1-1v-6c0-.55-.45-1-1-1h-6c-.55,0-1,.45-1,1s.45,1,1,1h3.59l-6.29,6.29c-.39.39-.39,1.02,0,1.41.2.2.45.29.71.29s.51-.1.71-.29l6.29-6.29v3.59c0,.55.45,1,1,1Z"/></svg>