<svg xmlns="http://www.w3.org/2000/svg" width="24" height="24" viewBox="0 0 24 24"><g opacity="0.4"><path d="m7,21h6c2.21,0,4-1.79,4-4v-6c0-.74-.21-1.43-.57-2.02l-3.73,3.73c-.2.2-.45.29-.71.29s-.51-.1-.71-.29c-.39-.39-.39-1.02,0-1.41l3.73-3.73c-.59-.35-1.28-.57-2.02-.57h-6c-2.21,0-4,1.79-4,4v6c0,2.21,1.79,4,4,4Z"/></g><path d="m20.25,3h-4.44c-.67,0-1,.81-.53,1.28l1.51,1.51-5.5,5.5c-.39.39-.39,1.02,0,1.41.2.2.45.29.71.29s.51-.1.71-.29l5.5-5.5,1.51,1.51c.47.47,1.28.14,1.28-.53V3.75c0-.41-.34-.75-.75-.75Z"/></svg>