<svg xmlns="http://www.w3.org/2000/svg" width="24" height="24" viewBox="0 0 24 24"><g opacity="0.4"><path d="m17,3H7c-2.21,0-4,1.79-4,4v10c0,2.21,1.79,4,4,4h10c2.21,0,4-1.79,4-4V7c0-2.21-1.79-4-4-4Zm-1,12c0,.55-.45,1-1,1h-5c-.55,0-1-.45-1-1s.45-1,1-1h2.59l-3.79-3.79c-.39-.39-.39-1.02,0-1.41s1.02-.39,1.41,0l3.79,3.79v-2.59c0-.55.45-1,1-1s1,.45,1,1v5Z"/></g><path d="m9,15c0,.55.45,1,1,1h5c.55,0,1-.45,1-1v-5c0-.55-.45-1-1-1s-1,.45-1,1v2.59l-3.79-3.79c-.39-.39-1.02-.39-1.41,0s-.39,1.02,0,1.41l3.79,3.79h-2.59c-.55,0-1,.45-1,1Z"/></svg>