<svg xmlns="http://www.w3.org/2000/svg" width="24" height="24" viewBox="0 0 24 24"><g opacity="0.4"><path d="m6.74,18.18l3.81-6.61-4.11-2.37-3.81,6.61c-.32.55-.4,1.19-.24,1.8.16.61.56,1.12,1.1,1.44.37.21.77.32,1.18.32.21,0,.41-.03.62-.08.61-.16,1.12-.56,1.44-1.1Z"/></g><path d="m19.24,5.04c-.23-.13-.5-.17-.76-.1-.26.07-.47.24-.61.47-.27.46-.7.79-1.21.93s-1.06.07-1.52-.2l-4.33-2.5c-.48-.28-1.09-.11-1.37.37l-3,5.2,5.2,3c.46.27.79.7.93,1.21.14.52.07,1.05-.2,1.52-.13.23-.17.5-.1.76.07.26.24.47.47.61.92.53,1.93.8,2.94.8.56,0,1.12-.08,1.66-.25,1.56-.47,2.93-1.6,3.84-3.18s1.21-3.33.83-4.92c-.37-1.57-1.36-2.89-2.78-3.71Z"/></svg>