<svg xmlns="http://www.w3.org/2000/svg" width="24" height="24" viewBox="0 0 24 24"><g opacity="0.4"><path d="m18,2H6c-2.21,0-4,1.79-4,4v3c0,2.21,1.79,4,4,4h12c2.21,0,4-1.79,4-4v-3c0-2.21-1.79-4-4-4Zm-.5,8H6.5c-.28,0-.5-.22-.5-.5s.22-.5.5-.5h11c.28,0,.5.22.5.5s-.22.5-.5.5Zm0-3c-.28,0-.5-.22-.5-.5s.22-.5.5-.5.5.22.5.5-.22.5-.5.5Z"/></g><path d="m10.5,21c0,.55.45,1,1,1s1-.45,1-1c0-.27.07-.36.28-.63.29-.36.72-.9.72-1.87s-.43-1.52-.72-1.87c-.21-.26-.28-.35-.28-.63,0-.55-.45-1-1-1s-1,.45-1,1c0,.98.43,1.52.72,1.87.21.26.28.35.28.63s-.07.36-.28.63c-.29.36-.72.9-.72,1.87Z"/><path d="m6.5,21c0,.55.45,1,1,1s1-.45,1-1c0-.27.07-.36.28-.63.29-.36.72-.9.72-1.87s-.43-1.52-.72-1.87c-.21-.26-.28-.35-.28-.63,0-.55-.45-1-1-1s-1,.45-1,1c0,.98.43,1.52.72,1.87.21.26.28.35.28.63s-.07.36-.28.63c-.29.36-.72.9-.72,1.87Z"/><path d="m14.5,21c0,.55.45,1,1,1s1-.45,1-1c0-.27.07-.36.28-.63.29-.36.72-.9.72-1.87s-.43-1.52-.72-1.87c-.21-.26-.28-.35-.28-.63,0-.55-.45-1-1-1s-1,.45-1,1c0,.98.43,1.52.72,1.87.21.26.28.35.28.63s-.07.36-.28.63c-.29.36-.72.9-.72,1.87Z"/><path d="m6.5,10h11c.28,0,.5-.22.5-.5s-.22-.5-.5-.5H6.5c-.28,0-.5.22-.5.5s.22.5.5.5Z"/><path d="M17.5 6A.5.5 0 1 0 17.5 7 .5.5 0 1 0 17.5 6z"/></svg>