<svg xmlns="http://www.w3.org/2000/svg" width="24" height="24" viewBox="0 0 24 24"><g opacity="0.4"><path d="m13.5,5c-1.98,0-3.81.69-5.25,1.83l4.46,4.46c.39.39.39,1.02,0,1.41-.2.2-.45.29-.71.29s-.51-.1-.71-.29l-4.46-4.46c-1.14,1.45-1.83,3.27-1.83,5.25,0,4.69,3.81,8.5,8.5,8.5s8.5-3.81,8.5-8.5-3.81-8.5-8.5-8.5Z"/></g><path d="m3,10c.55,0,1-.45,1-1v-3.59l7.29,7.29c.2.2.45.29.71.29s.51-.1.71-.29c.39-.39.39-1.02,0-1.41l-7.29-7.29h3.59c.55,0,1-.45,1-1s-.45-1-1-1H3c-.13,0-.26.03-.38.08-.24.1-.44.3-.54.54-.05.12-.08.25-.08.38v6c0,.55.45,1,1,1Z"/></svg>