<svg xmlns="http://www.w3.org/2000/svg" width="24" height="24" viewBox="0 0 24 24"><g opacity="0.4"><path d="m12,2c-5.51,0-10,4.49-10,10s4.49,10,10,10c5.51,0,10-4.49,10-10S17.51,2,12,2Zm3.21,13.21c-.39.39-1.02.39-1.41,0l-3.79-3.79v2.59c0,.55-.45,1-1,1s-1-.45-1-1v-5c0-.55.45-1,1-1h5c.55,0,1,.45,1,1s-.45,1-1,1h-2.59l3.79,3.79c.39.39.39,1.02,0,1.41Z"/></g><path d="m15,9c0-.55-.45-1-1-1h-5c-.55,0-1,.45-1,1v5c0,.55.45,1,1,1s1-.45,1-1v-2.59l3.79,3.79c.39.39,1.02.39,1.41,0s.39-1.02,0-1.41l-3.79-3.79h2.59c.55,0,1-.45,1-1Z"/></svg>