<svg xmlns="http://www.w3.org/2000/svg" width="24" height="24" viewBox="0 0 24 24"><g opacity="0.4"><path d="m17,3H7c-2.21,0-4,1.79-4,4v10c0,2.21,1.79,4,4,4h10c2.21,0,4-1.79,4-4V7c0-2.21-1.79-4-4-4Zm-1,10h-5.59l1.29,1.29c.39.39.39,1.02,0,1.41-.2.2-.45.29-.71.29s-.51-.1-.71-.29l-3-3c-.39-.39-.39-1.02,0-1.41l3-3c.39-.39,1.02-.39,1.41,0s.39,1.02,0,1.41l-1.29,1.29h5.59c.55,0,1,.45,1,1s-.45,1-1,1Z"/></g><path d="m11.71,8.29c-.39-.39-1.02-.39-1.41,0l-3,3c-.39.39-.39,1.02,0,1.41l3,3c.2.2.45.29.71.29s.51-.1.71-.29c.39-.39.39-1.02,0-1.41l-1.29-1.29h5.59c.55,0,1-.45,1-1s-.45-1-1-1h-5.59l1.29-1.29c.39-.39.39-1.02,0-1.41Z"/></svg>