<svg xmlns="http://www.w3.org/2000/svg" width="24" height="24" viewBox="0 0 24 24"><g opacity="0.4"><path d="m17,5h-8c-.74,0-1.42.22-2.02.57l6.02,6.02v-3.59c0-.55.45-1,1-1s1,.45,1,1v6c0,.55-.45,1-1,1h-6c-.55,0-1-.45-1-1s.45-1,1-1h3.59l-6.02-6.02c-.35.59-.57,1.28-.57,2.02v8c0,2.21,1.79,4,4,4h8c2.21,0,4-1.79,4-4v-8c0-2.21-1.79-4-4-4Z"/></g><path d="m8,13c-.55,0-1,.45-1,1s.45,1,1,1h6c.55,0,1-.45,1-1v-6c0-.55-.45-1-1-1s-1,.45-1,1v3.59l-7.29-7.29c-.39-.39-1.02-.39-1.41,0s-.39,1.02,0,1.41l7.29,7.29h-3.59Z"/></svg>