<svg xmlns="http://www.w3.org/2000/svg" width="24" height="24" viewBox="0 0 24 24"><g opacity="0.4"><path d="m17,3h-8c-2.21,0-4,1.79-4,4v8c0,.74.22,1.42.57,2.02l6.02-6.02h-3.59c-.55,0-1-.45-1-1s.45-1,1-1h6c.55,0,1,.45,1,1v6c0,.55-.45,1-1,1s-1-.45-1-1v-3.59l-6.02,6.02c.59.35,1.28.57,2.02.57h8c2.21,0,4-1.79,4-4V7c0-2.21-1.79-4-4-4Z"/></g><path d="m14,17c.55,0,1-.45,1-1v-6c0-.55-.45-1-1-1h-6c-.55,0-1,.45-1,1s.45,1,1,1h3.59l-7.29,7.29c-.39.39-.39,1.02,0,1.41.2.2.45.29.71.29s.51-.1.71-.29l7.29-7.29v3.59c0,.55.45,1,1,1Z"/></svg>