<svg xmlns="http://www.w3.org/2000/svg" width="24" height="24" viewBox="0 0 24 24"><g opacity="0.4"><path d="m12,2C6.49,2,2,6.49,2,12c0,5.51,4.49,10,10,10s10-4.49,10-10c0-5.51-4.49-10-10-10Zm2.71,12.71c-.2.2-.45.29-.71.29s-.51-.1-.71-.29l-2-2-1.44,1.44c-.32.32-.85.09-.85-.35v-4.29c0-.28.22-.5.5-.5h4.29c.45,0,.67.54.35.85l-1.44,1.44,2,2c.39.39.39,1.02,0,1.41Z"/></g><path d="m13.79,9h-4.29c-.28,0-.5.22-.5.5v4.29c0,.45.54.67.85.35l1.44-1.44,2,2c.2.2.45.29.71.29s.51-.1.71-.29c.39-.39.39-1.02,0-1.41l-2-2,1.44-1.44c.31-.31.09-.85-.35-.85Z"/></svg>