<svg xmlns="http://www.w3.org/2000/svg" width="24" height="24" viewBox="0 0 24 24"><g opacity="0.4"><path d="m19.7,3.6c-.75-1-1.95-1.6-3.2-1.6H7.5c-1.25,0-2.45.6-3.2,1.6l-1.5,2c-.51.69-.8,1.54-.8,2.4v10c0,2.21,1.79,4,4,4h12c2.21,0,4-1.79,4-4v-10c0-.86-.28-1.71-.8-2.4l-1.5-2Zm-4.7,9.4h-6c-.55,0-1-.45-1-1s.45-1,1-1h6c.55,0,1,.45,1,1s-.45,1-1,1ZM5,6l.9-1.2c.38-.5.97-.8,1.6-.8h9c.63,0,1.22.3,1.6.8l.9,1.2H5Z"/></g><path d="m9,11c-.55,0-1,.45-1,1s.45,1,1,1h6c.55,0,1-.45,1-1s-.45-1-1-1h-6Z"/><path d="m18.1,4.8c-.38-.5-.97-.8-1.6-.8H7.5c-.63,0-1.22.3-1.6.8l-.9,1.2h14l-.9-1.2Z"/></svg>