<svg xmlns="http://www.w3.org/2000/svg" width="24" height="24" viewBox="0 0 24 24"><g opacity="0.4"><path d="m12,4c-4.88,0-9,4.12-9,9s4.12,9,9,9,9-4.12,9-9-4.12-9-9-9Zm4,10h-4c-.55,0-1-.45-1-1v-4c0-.55.45-1,1-1s1,.45,1,1v3h3c.55,0,1,.45,1,1s-.45,1-1,1Z"/></g><path d="m18.7,2.29c-.39-.39-1.02-.39-1.41,0-.39.39-.39,1.02,0,1.41l3.01,3c.2.19.45.29.71.29s.51-.1.71-.29c.39-.39.39-1.02,0-1.41l-3.01-3Z"/><path d="m3.71,6.71l2.99-3c.39-.39.39-1.02,0-1.41-.39-.39-1.02-.39-1.41,0l-2.99,3c-.39.39-.39,1.02,0,1.41.2.19.45.29.71.29s.51-.1.71-.29Z"/><path d="m12,14h4c.55,0,1-.45,1-1s-.45-1-1-1h-3v-3c0-.55-.45-1-1-1s-1,.45-1,1v4c0,.55.45,1,1,1Z"/></svg>