<svg xmlns="http://www.w3.org/2000/svg" width="24" height="24" viewBox="0 0 24 24"><g opacity="0.4"><path d="m11.11,11.56c-1.04,1.22-1.85,2.62-2.38,4.13-.71-1.11-1.69-2.03-2.84-2.68-.84-.47-1.77-.79-2.76-.94-.6-.09-1.13.39-1.13,1,0,.49.36.91.85.98,1.31.19,2.49.8,3.39,1.7.9.9,1.51,2.08,1.7,3.39.07.49.49.85.98.85h.12c.51,0,.95-.38.99-.88.14-1.71.67-3.34,1.53-4.78.87-1.44,2.08-2.66,3.54-3.59-.46-.49-.8-1.09-.97-1.77-1.15.71-2.17,1.58-3.02,2.58Z"/></g><path d="M18 4A4 4 0 1 0 18 12 4 4 0 1 0 18 4z"/></svg>