<svg xmlns="http://www.w3.org/2000/svg" width="24" height="24" viewBox="0 0 24 24"><g opacity="0.4"><path d="m12,2c-5.51,0-10,4.49-10,10s4.49,10,10,10c5.51,0,10-4.49,10-10S17.51,2,12,2Zm3,12.5c0,.28-.22.5-.5.5h-4.29c-.45,0-.67-.54-.35-.85l1.44-1.44-2-2c-.39-.39-.39-1.02,0-1.41s1.02-.39,1.41,0l2,2,1.44-1.44c.31-.32.85-.09.85.35v4.29Z"/></g><path d="m10.21,15h4.29c.28,0,.5-.22.5-.5v-4.29c0-.45-.54-.67-.85-.35l-1.44,1.44-2-2c-.39-.39-1.02-.39-1.41,0s-.39,1.02,0,1.41l2,2-1.44,1.44c-.32.31-.09.85.35.85Z"/></svg>