<svg xmlns="http://www.w3.org/2000/svg" width="24" height="24" viewBox="0 0 24 24"><g opacity="0.4"><path d="m19.25,8.01c-.46-.63-1.21-1.01-2-1.01h-2.25v-.5c0-1.38-1.12-2.5-2.5-2.5H4.5c-1.38,0-2.5,1.12-2.5,2.5v9c0,1.21.86,2.22,2.01,2.45,0,.02,0,.03,0,.05,0-.53.14-1.05.41-1.51.55-.94,1.52-1.49,2.59-1.49s2.05.56,2.59,1.5c.27.45.41.97.41,1.5h4c0-.53.14-1.05.41-1.51.55-.94,1.52-1.49,2.59-1.49s2.05.56,2.59,1.5c.27.45.41.97.41,1.5,0-.02,0-.03,0-.05,1.14-.23,2.01-1.24,2.01-2.45v-3.5c0-.22-.07-.43-.2-.6l-2.54-3.39Zm-8.25,3.49h-1.5v1.5c0,.55-.45,1-1,1s-1-.45-1-1v-1.5h-1.5c-.55,0-1-.45-1-1s.45-1,1-1h1.5v-1.5c0-.55.45-1,1-1s1,.45,1,1v1.5h1.5c.55,0,1,.45,1,1s-.45,1-1,1Zm4,.5v-3h2.25c.16,0,.31.07.4.2l2.1,2.8h-4.75Z"/></g><path d="m7,21c1.65,0,3-1.35,3-3,0-.53-.14-1.05-.41-1.5-.55-.94-1.52-1.5-2.59-1.5s-2.05.56-2.59,1.49c-.27.45-.41.97-.41,1.51,0,1.65,1.35,3,3,3Z"/><path d="m17,21c1.65,0,3-1.35,3-3,0-.53-.14-1.05-.41-1.5-.55-.94-1.52-1.5-2.59-1.5s-2.05.56-2.59,1.49c-.27.45-.41.97-.41,1.51,0,1.65,1.35,3,3,3Z"/><path d="m17.65,9.2c-.09-.13-.24-.2-.4-.2h-2.25v3h4.75l-2.1-2.8Z"/><path d="m6,11.5h1.5v1.5c0,.55.45,1,1,1s1-.45,1-1v-1.5h1.5c.55,0,1-.45,1-1s-.45-1-1-1h-1.5v-1.5c0-.55-.45-1-1-1s-1,.45-1,1v1.5h-1.5c-.55,0-1,.45-1,1s.45,1,1,1Z"/></svg>