<svg xmlns="http://www.w3.org/2000/svg" width="24" height="24" viewBox="0 0 24 24"><g opacity="0.4"><path d="m9.44,6.67c-.14-.4-.52-.67-.94-.67h-1c-.42,0-.8.27-.94.67l-3.5,10c-.18.52.09,1.09.61,1.27.52.18,1.09-.09,1.27-.61l.82-2.33h4.48l.82,2.33c.14.41.53.67.94.67.11,0,.22-.02.33-.06.52-.18.8-.75.61-1.27l-3.5-10Zm-2.87,6.33h-.11l1.54-4.4,1.54,4.4h-2.97Z"/></g><path d="m21.79,13.31h-2.79v-6.31c0-.55-.45-1-1-1s-1,.45-1,1v6.31h-2.79c-.45,0-.67.54-.35.85l3.62,3.62c.29.29.77.29,1.06,0l3.62-3.62c.31-.32.09-.85-.35-.85Z"/></svg>