<svg xmlns="http://www.w3.org/2000/svg" width="24" height="24" viewBox="0 0 24 24"><g opacity="0.4"><path d="m19,13.5c0-1.98-.69-3.81-1.83-5.25l-5.75,5.75h3.59c.55,0,1,.45,1,1s-.45,1-1,1h-6c-.55,0-1-.45-1-1v-6c0-.55.45-1,1-1s1,.45,1,1v3.59l5.75-5.75c-1.45-1.14-3.27-1.83-5.25-1.83-4.69,0-8.5,3.81-8.5,8.5s3.81,8.5,8.5,8.5,8.5-3.81,8.5-8.5Z"/></g><path d="m9,8c-.55,0-1,.45-1,1v6c0,.55.45,1,1,1h6c.55,0,1-.45,1-1s-.45-1-1-1h-3.59l6.29-6.29c.39-.39.39-1.02,0-1.41s-1.02-.39-1.41,0l-6.29,6.29v-3.59c0-.55-.45-1-1-1Z"/></svg>