<svg xmlns="http://www.w3.org/2000/svg" width="24" height="24" viewBox="0 0 24 24"><g opacity="0.4"><path d="m12,2C6.49,2,2,6.49,2,12c0,5.51,4.49,10,10,10s10-4.49,10-10c0-5.51-4.49-10-10-10Zm2.71,8.71l-2,2,1.44,1.44c.31.32.09.85-.35.85h-4.29c-.28,0-.5-.22-.5-.5v-4.29c0-.45.54-.67.85-.35l1.44,1.44,2-2c.39-.39,1.02-.39,1.41,0s.39,1.02,0,1.41Z"/></g><path d="m14.71,9.29c-.39-.39-1.02-.39-1.41,0l-2,2-1.44-1.44c-.32-.31-.85-.09-.85.35v4.29c0,.28.22.5.5.5h4.29c.45,0,.67-.54.35-.85l-1.44-1.44,2-2c.39-.39.39-1.02,0-1.41Z"/></svg>