<svg xmlns="http://www.w3.org/2000/svg" width="24" height="24" viewBox="0 0 24 24"><g opacity="0.4"><path d="m21.11,6.94c-.82-.13-1.33-.43-1.93-.8-.89-.54-1.9-1.14-3.85-1.14s-2.96.61-3.85,1.14c-.8.48-1.43.86-2.82.86s-2.02-.38-2.82-.86c-.69-.42-1.46-.88-2.68-1.06-.61-.09-1.17.37-1.17.99h0c0,.51.38.91.89.99.82.13,1.33.43,1.93.8.89.54,1.9,1.14,3.85,1.14s2.96-.61,3.85-1.14c.8-.48,1.43-.86,2.82-.86s2.02.38,2.82.86c.69.42,1.46.88,2.68,1.06.61.09,1.17-.37,1.17-.99,0-.51-.38-.91-.89-.99Z"/><path d="m21.11,16.94c-.82-.13-1.33-.43-1.93-.8-.89-.54-1.9-1.14-3.85-1.14s-2.96.61-3.85,1.14c-.8.48-1.43.86-2.82.86s-2.02-.38-2.82-.86c-.69-.42-1.46-.88-2.68-1.06-.61-.09-1.17.37-1.17.99h0c0,.51.38.91.89.99.82.13,1.33.43,1.93.8.89.54,1.9,1.14,3.85,1.14s2.96-.61,3.85-1.14c.8-.48,1.43-.86,2.82-.86s2.02.38,2.82.86c.69.42,1.46.88,2.68,1.06.61.09,1.17-.37,1.17-.99,0-.51-.38-.91-.89-.99Z"/></g><path d="m21.11,11.94c-.82-.13-1.33-.43-1.93-.8-.89-.54-1.9-1.14-3.85-1.14s-2.96.61-3.85,1.14c-.8.48-1.43.86-2.82.86s-2.02-.38-2.82-.86c-.69-.42-1.46-.88-2.68-1.06-.61-.09-1.17.37-1.17.99h0c0,.51.38.91.89.99.82.13,1.33.43,1.93.8.89.54,1.9,1.14,3.85,1.14s2.96-.61,3.85-1.14c.8-.48,1.43-.86,2.82-.86s2.02.38,2.82.86c.69.42,1.46.88,2.68,1.06.61.09,1.17-.37,1.17-.99,0-.51-.38-.91-.89-.99Z"/></svg>