<svg xmlns="http://www.w3.org/2000/svg" width="24" height="24" viewBox="0 0 24 24"><g opacity="0.4"><path d="m13.5,5c-1.99,0-3.81.69-5.26,1.83l4.46,4.46c.39.39.39,1.02,0,1.41-.2.2-.45.29-.71.29s-.51-.1-.71-.29l-4.46-4.46c-1.14,1.45-1.83,3.27-1.83,5.26,0,4.69,3.81,8.5,8.5,8.5s8.5-3.81,8.5-8.5-3.81-8.5-8.5-8.5Z"/></g><path d="m3.28,7.72l1.51-1.51,6.5,6.5c.2.2.45.29.71.29s.51-.1.71-.29c.39-.39.39-1.02,0-1.41l-6.5-6.5,1.51-1.51c.47-.47.14-1.28-.53-1.28H2.75c-.41,0-.75.34-.75.75v4.44c0,.67.81,1,1.28.53Z"/></svg>