<svg xmlns="http://www.w3.org/2000/svg" width="24" height="24" viewBox="0 0 24 24"><g opacity="0.4"><path d="m7,19h8c.74,0,1.42-.22,2.02-.57l-6.02-6.02v3.59c0,.55-.45,1-1,1s-1-.45-1-1v-6c0-.55.45-1,1-1h6c.55,0,1,.45,1,1s-.45,1-1,1h-3.59l6.02,6.02c.35-.59.57-1.28.57-2.02V7c0-2.21-1.79-4-4-4H7c-2.21,0-4,1.79-4,4v8c0,2.21,1.79,4,4,4Z"/></g><path d="m17,10c0-.55-.45-1-1-1h-6c-.55,0-1,.45-1,1v6c0,.55.45,1,1,1s1-.45,1-1v-3.59l7.29,7.29c.2.2.45.29.71.29s.51-.1.71-.29c.39-.39.39-1.02,0-1.41l-7.29-7.29h3.59c.55,0,1-.45,1-1Z"/></svg>