<svg xmlns="http://www.w3.org/2000/svg" width="24" height="24" viewBox="0 0 24 24"><g opacity="0.4"><path d="m12,4c-4.88,0-9,4.12-9,9s4.12,9,9,9,9-4.12,9-9-4.12-9-9-9Zm.71,13.71c-.1.09-.21.16-.33.21s-.25.08-.38.08c-.27,0-.52-.1-.71-.29s-.29-.44-.29-.71c0-.13.02-.26.08-.38.05-.13.12-.23.21-.33.37-.37,1.05-.37,1.42,0,.09.1.16.2.21.33.05.12.08.25.08.38,0,.27-.1.52-.29.71Zm.29-3.71c0,.55-.45,1-1,1s-1-.45-1-1v-5c0-.55.45-1,1-1s1,.45,1,1v5Z"/></g><path d="m18.7,2.29c-.39-.39-1.02-.39-1.41,0s-.39,1.02,0,1.41l3.01,3c.2.19.45.29.71.29s.51-.1.71-.29c.39-.39.39-1.02,0-1.41l-3.01-3Z"/><path d="m3.71,6.71l2.99-3c.39-.39.39-1.02,0-1.41-.39-.39-1.02-.39-1.41,0l-2.99,3c-.39.39-.39,1.02,0,1.41.2.19.45.29.71.29s.51-.1.71-.29Z"/><path d="m12,18c.13,0,.26-.03.38-.08s.23-.12.33-.21c.19-.19.29-.44.29-.71,0-.13-.03-.26-.08-.38-.05-.13-.12-.23-.21-.33-.37-.37-1.05-.37-1.42,0-.09.1-.16.2-.21.33-.06.12-.08.25-.08.38,0,.27.1.52.29.71s.44.29.71.29Z"/><path d="m12,15c.55,0,1-.45,1-1v-5c0-.55-.45-1-1-1s-1,.45-1,1v5c0,.55.45,1,1,1Z"/></svg>