<svg xmlns="http://www.w3.org/2000/svg" width="24" height="24" viewBox="0 0 24 24"><g opacity="0.4"><path d="m10.5,22c4.69,0,8.5-3.81,8.5-8.5,0-1.98-.69-3.81-1.83-5.25l-4.46,4.46c-.2.2-.45.29-.71.29s-.51-.1-.71-.29c-.39-.39-.39-1.02,0-1.41l4.46-4.46c-1.45-1.14-3.27-1.83-5.25-1.83-4.69,0-8.5,3.81-8.5,8.5s3.81,8.5,8.5,8.5Z"/></g><path d="m21.38,2.08c-.12-.05-.25-.08-.38-.08h-6c-.55,0-1,.45-1,1s.45,1,1,1h3.59l-7.29,7.29c-.39.39-.39,1.02,0,1.41.2.2.45.29.71.29s.51-.1.71-.29l7.29-7.29v3.59c0,.55.45,1,1,1s1-.45,1-1V3c0-.13-.03-.26-.08-.38-.1-.24-.3-.44-.54-.54Z"/></svg>