<svg xmlns="http://www.w3.org/2000/svg" width="24" height="24" viewBox="0 0 24 24"><g opacity="0.4"><path d="m7,21h6c2.21,0,4-1.79,4-4v-6c0-.74-.22-1.42-.57-2.02l-3.73,3.73c-.2.2-.45.29-.71.29s-.51-.1-.71-.29c-.39-.39-.39-1.02,0-1.41l3.73-3.73c-.59-.35-1.28-.57-2.02-.57h-6c-2.21,0-4,1.79-4,4v6c0,2.21,1.79,4,4,4Z"/></g><path d="m20.38,3.08c-.12-.05-.25-.08-.38-.08h-6c-.55,0-1,.45-1,1s.45,1,1,1h3.59l-6.29,6.29c-.39.39-.39,1.02,0,1.41.2.2.45.29.71.29s.51-.1.71-.29l6.29-6.29v3.59c0,.55.45,1,1,1s1-.45,1-1v-6c0-.13-.03-.26-.08-.38-.1-.24-.3-.44-.54-.54Z"/></svg>