<svg xmlns="http://www.w3.org/2000/svg" width="24" height="24" viewBox="0 0 24 24"><g opacity="0.4"><path d="m10.5,19c1.99,0,3.81-.69,5.26-1.83l-3.96-3.96-1.51,1.51c-.47.47-1.28.14-1.28-.53v-4.44c0-.41.34-.75.75-.75h4.44c.67,0,1,.81.53,1.28l-1.51,1.51,3.96,3.96c1.14-1.45,1.83-3.27,1.83-5.26,0-4.69-3.81-8.5-8.5-8.5S2,5.81,2,10.5s3.81,8.5,8.5,8.5Z"/></g><path d="m14.19,9h-4.44c-.41,0-.75.34-.75.75v4.44c0,.67.81,1,1.28.53l1.51-1.51,5.5,5.5c.2.2.45.29.71.29s.51-.1.71-.29c.39-.39.39-1.02,0-1.41l-5.5-5.5,1.51-1.51c.47-.47.14-1.28-.53-1.28Z"/></svg>