<svg xmlns="http://www.w3.org/2000/svg" width="24" height="24" viewBox="0 0 24 24"><g opacity="0.4"><path d="m17,3h-6c-2.21,0-4,1.79-4,4v6c0,.74.22,1.42.57,2.02l3.73-3.73c.39-.39,1.02-.39,1.41,0s.39,1.02,0,1.41l-3.73,3.73c.59.35,1.28.57,2.02.57h6c2.21,0,4-1.79,4-4v-6c0-2.21-1.79-4-4-4Z"/></g><path d="m3.62,20.92c.12.05.25.08.38.08h6c.55,0,1-.45,1-1s-.45-1-1-1h-3.59l6.29-6.29c.39-.39.39-1.02,0-1.41s-1.02-.39-1.41,0l-6.29,6.29v-3.59c0-.55-.45-1-1-1s-1,.45-1,1v6c0,.13.03.26.08.38.1.24.3.44.54.54Z"/></svg>