<svg xmlns="http://www.w3.org/2000/svg" width="24" height="24" viewBox="0 0 24 24"><g opacity="0.4"><path d="m17,7h-6c-.74,0-1.42.22-2.02.57l3.73,3.73c.39.39.39,1.02,0,1.41-.2.2-.45.29-.71.29s-.51-.1-.71-.29l-3.73-3.73c-.35.59-.57,1.28-.57,2.02v6c0,2.21,1.79,4,4,4h6c2.21,0,4-1.79,4-4v-6c0-2.21-1.79-4-4-4Z"/></g><path d="m4,11c.55,0,1-.45,1-1v-3.59l6.29,6.29c.2.2.45.29.71.29s.51-.1.71-.29c.39-.39.39-1.02,0-1.41l-6.29-6.29h3.59c.55,0,1-.45,1-1s-.45-1-1-1h-6c-.13,0-.26.03-.38.08-.24.1-.44.3-.54.54-.05.12-.08.25-.08.38v6c0,.55.45,1,1,1Z"/></svg>