<svg xmlns="http://www.w3.org/2000/svg" width="24" height="24" viewBox="0 0 24 24"><g opacity="0.4"><rect x="9" y="3" width="2" height="18" rx=".5" ry=".5"/><rect x="3" y="3" width="2" height="18" rx=".5" ry=".5"/></g><path d="m16.91,12.08l-3.59-7.7c-.06-.13-.16-.21-.28-.26-.12-.04-.26-.04-.38.02l-.45.21-.45.21c-.13.06-.21.16-.26.28s-.04.26.02.38l3.59,7.7,3.59,7.7c.06.13.16.21.28.26.12.04.26.04.38-.02l.45-.21.45-.21c.13-.06.21-.16.26-.28.04-.12.04-.26-.02-.38l-3.59-7.7Z"/><rect x="6" y="3" width="2" height="18" rx=".5" ry=".5"/></svg>