<svg xmlns="http://www.w3.org/2000/svg" width="24" height="24" viewBox="0 0 24 24"><g opacity="0.4"><path d="m19.12,13.71c-.08-.08-.12-.18-.12-.29v-3.41c0-1.91-.75-3.69-2.13-5.02-.87-.84-1.89-1.43-3.02-1.73-.3-.73-1.01-1.24-1.85-1.24s-1.57.53-1.86,1.27c-1.29.37-2.42,1.14-3.3,2.15l13.13,13.13c.62-.44,1.03-1.16,1.03-1.97,0-.63-.26-1.26-.71-1.71l-1.17-1.17Z"/><path d="m5,10.25v3.16c0,.11-.04.22-.12.29l-1.17,1.17c-.45.45-.71,1.07-.71,1.71,0,1.33,1.08,2.41,2.41,2.41h12.17L5.72,7.13c-.45.95-.72,2.01-.72,3.12Z"/></g><path d="m15,19h-6c0,1.66,1.34,3,3,3s3-1.34,3-3Z"/><path d="m3.71,2.29c-.39-.39-1.02-.39-1.41,0s-.39,1.02,0,1.41l18,18c.2.2.45.29.71.29s.51-.1.71-.29c.39-.39.39-1.02,0-1.41L3.71,2.29Z"/></svg>