<svg xmlns="http://www.w3.org/2000/svg" width="24" height="24" viewBox="0 0 24 24"><g opacity="0.4"><path d="m16,2h-8c-3.31,0-6,2.69-6,6,0,.55.45,1,1,1h18c.55,0,1-.45,1-1,0-3.31-2.69-6-6-6Z"/><path d="m21,15H3c-.55,0-1,.45-1,1,0,3.31,2.69,6,6,6h8c3.31,0,6-2.69,6-6,0-.55-.45-1-1-1Z"/></g><path d="m21.31,11.92c-.46-.12-.77-.37-1.18-.7-.68-.54-1.52-1.22-3.12-1.22s-2.45.68-3.12,1.22c-.59.47-.98.78-1.87.78s-1.29-.31-1.88-.78c-.68-.54-1.52-1.22-3.13-1.22s-2.45.68-3.13,1.22c-.41.33-.72.58-1.18.7-.42.11-.69.52-.69.95,0,.65.62,1.15,1.25.97.84-.23,1.4-.68,1.88-1.06.59-.47.98-.78,1.88-.78s1.29.31,1.88.78c.68.54,1.52,1.22,3.13,1.22s2.45-.68,3.12-1.22c.59-.47.98-.78,1.87-.78s1.29.31,1.87.78c.48.38,1.03.83,1.87,1.06.63.17,1.25-.32,1.25-.97h0c0-.43-.27-.84-.69-.95Z"/></svg>