<svg xmlns="http://www.w3.org/2000/svg" width="24" height="24" viewBox="0 0 24 24"><g opacity="0.4"><path d="m18,5h-9v.04c-1.03.11-1.99.59-2.67,1.39l-3.3,3.96c-.77.93-.77,2.27,0,3.2l3.3,3.96c.67.81,1.63,1.29,2.67,1.39v.04h9c2.21,0,4-1.79,4-4v-6c0-2.21-1.79-4-4-4Zm-.79,8.79c.39.39.39,1.02,0,1.41-.2.2-.45.29-.71.29s-.51-.1-.71-.29l-1.79-1.79-1.79,1.79c-.2.2-.45.29-.71.29s-.51-.1-.71-.29c-.39-.39-.39-1.02,0-1.41l1.79-1.79-1.79-1.79c-.39-.39-.39-1.02,0-1.41s1.02-.39,1.41,0l1.79,1.79,1.79-1.79c.39-.39,1.02-.39,1.41,0s.39,1.02,0,1.41l-1.79,1.79,1.79,1.79Z"/></g><path d="m10.79,15.21c.2.2.45.29.71.29s.51-.1.71-.29l1.79-1.79,1.79,1.79c.2.2.45.29.71.29s.51-.1.71-.29c.39-.39.39-1.02,0-1.41l-1.79-1.79,1.79-1.79c.39-.39.39-1.02,0-1.41s-1.02-.39-1.41,0l-1.79,1.79-1.79-1.79c-.39-.39-1.02-.39-1.41,0s-.39,1.02,0,1.41l1.79,1.79-1.79,1.79c-.39.39-.39,1.02,0,1.41Z"/></svg>