<svg xmlns="http://www.w3.org/2000/svg" width="24" height="24" viewBox="0 0 24 24"><g opacity="0.4"><path d="m13,2H5c-1.65,0-3,1.35-3,3v14.5c0,1.38,1.12,2.5,2.5,2.5h11.5V5c0-1.65-1.35-3-3-3Zm-5,13.5c0,.28-.22.5-.5.5h-1c-.28,0-.5-.22-.5-.5v-1c0-.28.22-.5.5-.5h1c.28,0,.5.22.5.5v1Zm0-4c0,.28-.22.5-.5.5h-1c-.28,0-.5-.22-.5-.5v-1c0-.28.22-.5.5-.5h1c.28,0,.5.22.5.5v1Zm0-4c0,.28-.22.5-.5.5h-1c-.28,0-.5-.22-.5-.5v-1c0-.28.22-.5.5-.5h1c.28,0,.5.22.5.5v1Zm4,8c0,.28-.22.5-.5.5h-1c-.28,0-.5-.22-.5-.5v-1c0-.28.22-.5.5-.5h1c.28,0,.5.22.5.5v1Zm0-4c0,.28-.22.5-.5.5h-1c-.28,0-.5-.22-.5-.5v-1c0-.28.22-.5.5-.5h1c.28,0,.5.22.5.5v1Zm0-4c0,.28-.22.5-.5.5h-1c-.28,0-.5-.22-.5-.5v-1c0-.28.22-.5.5-.5h1c.28,0,.5.22.5.5v1Z"/></g><rect x="10" y="14" width="2" height="2" rx=".5" ry=".5"/><rect x="10" y="10" width="2" height="2" rx=".5" ry=".5"/><rect x="10" y="6" width="2" height="2" rx=".5" ry=".5"/><rect x="6" y="6" width="2" height="2" rx=".5" ry=".5"/><rect x="6" y="10" width="2" height="2" rx=".5" ry=".5"/><rect x="6" y="14" width="2" height="2" rx=".5" ry=".5"/><path d="m19,6h-3v16h3.5c1.38,0,2.5-1.12,2.5-2.5v-10.5c0-1.65-1.35-3-3-3Zm1,9.5c0,.28-.22.5-.5.5h-1c-.28,0-.5-.22-.5-.5v-1c0-.28.22-.5.5-.5h1c.28,0,.5.22.5.5v1Zm0-4c0,.28-.22.5-.5.5h-1c-.28,0-.5-.22-.5-.5v-1c0-.28.22-.5.5-.5h1c.28,0,.5.22.5.5v1Z"/></svg>