<svg xmlns="http://www.w3.org/2000/svg" width="24" height="24" viewBox="0 0 24 24"><g opacity="0.4"><path d="m12,3c-3.04,0-5.69,2.03-7.04,5h14.09c-1.35-2.97-4-5-7.04-5Z"/><path d="m4.29,10c-.18.8-.29,1.63-.29,2.5,0,4.84,3.06,8.83,7,9.42v-7.92c0-.55.45-1,1-1s1,.45,1,1v7.92c3.94-.59,7-4.58,7-9.42,0-.87-.11-1.7-.29-2.5H4.29Z"/></g><path d="m6.29,5.71s.05.03.08.05c.43-.51.91-.95,1.43-1.33-.03-.05-.05-.1-.09-.14l-1-1c-.39-.39-1.02-.39-1.41,0s-.39,1.02,0,1.41l1,1Z"/><path d="m2.55,11.4l1.47.73c.02-.72.11-1.43.27-2.1l-.84-.42c-.49-.25-1.1-.05-1.34.45-.25.49-.05,1.09.45,1.34Z"/><path d="m4.11,14h-1.11c-.55,0-1,.45-1,1s.45,1,1,1h1.57c-.21-.64-.37-1.31-.46-2Z"/><path d="m6.28,19.13c-.43-.52-.8-1.09-1.11-1.71l-.88.88c-.39.39-.39,1.02,0,1.41.2.2.45.29.71.29s.51-.1.71-.29l.58-.58Z"/><path d="m17.63,5.76s.05-.03.08-.05l1-1c.39-.39.39-1.02,0-1.41s-1.02-.39-1.41,0l-1,1s-.06.09-.09.14c.52.38,1,.82,1.43,1.33Z"/><path d="m18.83,17.42c-.32.62-.69,1.2-1.11,1.71l.58.58c.2.2.45.29.71.29s.51-.1.71-.29c.39-.39.39-1.02,0-1.41l-.88-.88Z"/><path d="m21,14h-1.11c-.09.69-.25,1.36-.46,2h1.57c.55,0,1-.45,1-1s-.45-1-1-1Z"/><path d="m20.08,12.15l1.4-.78c.48-.27.66-.88.39-1.36-.27-.48-.88-.66-1.36-.39l-.79.44c.15.68.24,1.39.26,2.13.03-.01.06-.02.1-.04Z"/><path d="m19.04,8H4.96c-.29.63-.51,1.3-.67,2h15.42c-.16-.7-.38-1.37-.67-2Z"/><path d="m13,21.92v-7.92c0-.55-.45-1-1-1s-1,.45-1,1v7.92c.33.05.66.08,1,.08s.67-.03,1-.08Z"/></svg>