<svg xmlns="http://www.w3.org/2000/svg" width="24" height="24" viewBox="0 0 24 24"><g opacity="0.4"><path d="m7.28,6.17c.23.24.41.52.53.83.12.31.19.64.19.98,0,.55.45,1,1,1s1-.45,1-1c0-.59-.11-1.17-.33-1.72-.22-.55-.54-1.04-.95-1.47-.23-.24-.41-.52-.53-.83-.12-.31-.19-.64-.19-.98,0-.55-.45-1-1-1s-1,.45-1,1c0,.59.11,1.17.33,1.72.22.55.54,1.04.95,1.47Z"/><path d="m11.28,6.17c.23.24.41.52.53.83.12.31.19.64.19.98,0,.55.45,1,1,1s1-.45,1-1c0-.59-.11-1.17-.33-1.72-.22-.55-.54-1.04-.95-1.47-.23-.24-.41-.52-.53-.83-.12-.31-.19-.64-.19-.98,0-.55-.45-1-1-1s-1,.45-1,1c0,.59.11,1.17.33,1.72.22.55.54,1.04.95,1.47Z"/><path d="m15.28,6.17c.23.24.41.52.53.83.12.31.19.64.19.98,0,.55.45,1,1,1s1-.45,1-1c0-.59-.11-1.17-.33-1.72-.22-.55-.54-1.04-.95-1.47-.23-.24-.41-.52-.53-.83-.12-.31-.19-.64-.19-.98,0-.55-.45-1-1-1s-1,.45-1,1c0,.59.11,1.17.33,1.72.22.55.54,1.04.95,1.47Z"/></g><path d="m20.21,10H3.79c-.49,0-.96.21-1.29.57-.34.37-.5.87-.46,1.37.3,3.22,2.15,6.1,4.96,7.72v.59c0,.96.79,1.75,1.75,1.75h6.5c.96,0,1.75-.79,1.75-1.75v-.59c2.81-1.62,4.66-4.5,4.96-7.72.05-.5-.12-1-.46-1.37-.33-.36-.8-.57-1.29-.57Z"/></svg>