<svg xmlns="http://www.w3.org/2000/svg" width="24" height="24" viewBox="0 0 24 24"><g opacity="0.4"><path d="m19,8.59v-2.09c0-.83-.67-1.5-1.5-1.5h-2.09l-2.35-2.35c-.58-.58-1.54-.58-2.12,0l-2.35,2.35h-2.09c-.83,0-1.5.67-1.5,1.5v2.09l-2.35,2.35c-.58.58-.58,1.54,0,2.12l2.35,2.35v2.09c0,.83.67,1.5,1.5,1.5h2.09l2.35,2.35c.29.29.68.44,1.06.44s.77-.15,1.06-.44l2.35-2.35h2.09c.83,0,1.5-.67,1.5-1.5v-2.09l2.35-2.35c.58-.58.58-1.54,0-2.12l-2.35-2.35Zm-7,6.87c0,.31-.28.54-.59.5-1.93-.29-3.41-1.95-3.41-3.96s1.48-3.67,3.41-3.96c.31-.05.59.19.59.5v6.92Z"/></g><path d="m11.41,15.96c.31.05.59-.19.59-.5v-6.92c0-.31-.28-.54-.59-.5-1.93.29-3.41,1.95-3.41,3.96s1.48,3.67,3.41,3.96Z"/></svg>