<svg xmlns="http://www.w3.org/2000/svg" width="24" height="24" viewBox="0 0 24 24"><g opacity="0.4"><path d="m20.21,10c.06,0,.12.01.18.02-.36-1.8-1.7-3.28-3.47-3.8-.38-2.38-2.43-4.21-4.92-4.21s-4.48,1.77-4.91,4.09c-2.05.38-3.66,2.01-4.02,4.06.22-.1.46-.15.71-.15h16.43Z"/></g><path d="m20.21,10H3.79c-.49,0-.96.21-1.29.57-.34.37-.5.87-.46,1.37.3,3.22,2.15,6.1,4.96,7.72v.59c0,.96.79,1.75,1.75,1.75h6.5c.96,0,1.75-.79,1.75-1.75v-.59c2.81-1.62,4.66-4.5,4.96-7.72.05-.5-.12-1-.46-1.37-.33-.36-.8-.57-1.29-.57Z"/></svg>