<svg xmlns="http://www.w3.org/2000/svg" width="24" height="24" viewBox="0 0 24 24"><g opacity="0.4"><path d="m19,2H6c-1.65,0-3,1.35-3,3v14c0,1.65,1.35,3,3,3h14c.55,0,1-.45,1-1s-.45-1-1-1H6c-.55,0-1-.45-1-1s.45-1,1-1h13c1.1,0,2-.9,2-2V4c0-1.1-.9-2-2-2Zm-3.5,9h-2v2c0,.55-.45,1-1,1s-1-.45-1-1v-2h-2c-.55,0-1-.45-1-1s.45-1,1-1h2v-2c0-.55.45-1,1-1s1,.45,1,1v2h2c.55,0,1,.45,1,1s-.45,1-1,1Z"/></g><path d="m6,20h13c-.55,0-1-.45-1-1s.45-1,1-1H6c-.55,0-1,.45-1,1s.45,1,1,1Z"/><path d="m9.5,11h2v2c0,.55.45,1,1,1s1-.45,1-1v-2h2c.55,0,1-.45,1-1s-.45-1-1-1h-2v-2c0-.55-.45-1-1-1s-1,.45-1,1v2h-2c-.55,0-1,.45-1,1s.45,1,1,1Z"/></svg>