<svg xmlns="http://www.w3.org/2000/svg" width="24" height="24" viewBox="0 0 24 24"><g opacity="0.4"><path d="m17.31,2H6.69c-1.29,0-2.55.54-3.45,1.48-.85.89-1.29,2.04-1.24,3.22.04.96.39,1.87,1,2.62v8.68c0,2.21,1.79,4,4,4h10c2.21,0,4-1.79,4-4v-8.68c.6-.75.95-1.66,1-2.62.05-1.19-.38-2.33-1.24-3.22-.9-.94-2.16-1.48-3.45-1.48Zm-5.31,7c-.55,0-1-.45-1-1s.45-1,1-1,1,.45,1,1-.45,1-1,1Zm3.5,2c-.28,0-.5-.22-.5-.5s.22-.5.5-.5.5.22.5.5-.22.5-.5.5Zm.5-3c-.55,0-1-.45-1-1s.45-1,1-1,1,.45,1,1-.45,1-1,1Z"/></g><path d="M16 6A1 1 0 1 0 16 8 1 1 0 1 0 16 6z"/><path d="M15.5 10A.5.5 0 1 0 15.5 11 .5.5 0 1 0 15.5 10z"/><path d="M12 7A1 1 0 1 0 12 9 1 1 0 1 0 12 7z"/></svg>