<svg xmlns="http://www.w3.org/2000/svg" width="24" height="24" viewBox="0 0 24 24"><g opacity="0.4"><path d="m20,16h-8c-.27,0-.52.11-.71.29l-2.29,2.29-2.29-2.29c-.19-.19-.44-.29-.71-.29h-2c-1.1,0-2,.9-2,2v1c0,1.65,1.35,3,3,3h14c1.65,0,3-1.35,3-3v-1c0-1.1-.9-2-2-2Z"/><path d="m12,2c-5.61,0-10,3.07-10,7v1c0,1.1.9,2,2,2h16c1.1,0,2-.9,2-2v-1c0-3.93-4.39-7-10-7Zm.5,6c-.28,0-.5-.22-.5-.5s.22-.5.5-.5.5.22.5.5-.22.5-.5.5Zm2.5-1c-.55,0-1-.45-1-1s.45-1,1-1,1,.45,1,1-.45,1-1,1Zm2.5,2c-.28,0-.5-.22-.5-.5s.22-.5.5-.5.5.22.5.5-.22.5-.5.5Z"/></g><path d="m20,12H4c-1.1,0-2,.9-2,2h0c0,1.1.9,2,2,2h2c.27,0,.52.11.71.29l2.29,2.29,2.29-2.29c.19-.19.44-.29.71-.29h8c1.1,0,2-.9,2-2h0c0-1.1-.9-2-2-2Z"/><path d="M15 5A1 1 0 1 0 15 7 1 1 0 1 0 15 5z"/><path d="M17.5 8A.5.5 0 1 0 17.5 9 .5.5 0 1 0 17.5 8z"/><path d="M12.5 7A.5.5 0 1 0 12.5 8 .5.5 0 1 0 12.5 7z"/></svg>