<svg xmlns="http://www.w3.org/2000/svg" width="24" height="24" viewBox="0 0 24 24"><g opacity="0.4"><path d="m16.81,2.08c-.26-.05-.53-.08-.81-.08h-8c-.28,0-.55.03-.81.08-1.82.37-3.19,1.99-3.19,3.92v14.14c0,.53.29,1.03.75,1.3.23.13.49.2.75.2s.51-.07.74-.2l5.51-3.15c.15-.09.34-.09.5,0l5.51,3.15c.46.27,1.04.26,1.5,0s.75-.76.75-1.3V6c0-1.93-1.37-3.55-3.19-3.92Zm-1.81,8.3l-2.58,2.58c-.23.23-.61.23-.85,0l-2.58-2.58c-.78-.78-.78-2.02,0-2.8.78-.78,2.02-.78,2.8,0l.2.2.2-.2c.78-.78,2.02-.78,2.8,0,.78.78.78,2.02,0,2.8Z"/></g><path d="m11.58,12.96c.23.23.61.23.85,0l2.58-2.58c.78-.78.78-2.02,0-2.8-.78-.78-2.02-.78-2.8,0l-.2.2-.2-.2c-.78-.78-2.02-.78-2.8,0-.78.78-.78,2.02,0,2.8l2.58,2.58Z"/></svg>