<svg xmlns="http://www.w3.org/2000/svg" width="24" height="24" viewBox="0 0 24 24"><g opacity="0.4"><path d="m17.31,13.73c-.26.11-.54.17-.81.17s-.55-.06-.81-.17l-3.69-1.64-3.68,1.64c-.52.23-1.11.23-1.62,0l-3.64-1.62c-.03.29-.04.59-.04.89v3.51c.42-.32.93-.51,1.5-.51h15c.57,0,1.08.2,1.5.51v-3.51c0-.3-.02-.59-.04-.89l-3.65,1.62Z"/><path d="m3.48,10.12l4.01,1.79,3.68-1.64c.52-.23,1.11-.23,1.62,0l3.69,1.64,4.02-1.79c-.94-2.78-3.2-4.95-6.03-5.76,0,.05.01.09.01.14,0,1.38-1.12,2.5-2.5,2.5s-2.5-1.12-2.5-2.5c0-.05.01-.09.01-.14-2.83.82-5.09,2.99-6.03,5.76Z"/></g><path d="M12 2A2.5 2.5 0 1 0 12 7 2.5 2.5 0 1 0 12 2z"/><rect x="2" y="16" width="20" height="6" rx="2.5" ry="2.5"/><path d="m8.31,13.73l3.68-1.64,3.69,1.64c.26.11.53.17.81.17s.55-.06.81-.17l3.65-1.62c-.07-.69-.22-1.36-.44-2l-4.02,1.79-3.69-1.64c-.52-.23-1.11-.23-1.62,0l-3.68,1.64-4.01-1.79-.44,1.99,3.64,1.62c.52.23,1.11.23,1.62,0Z"/></svg>