<svg xmlns="http://www.w3.org/2000/svg" width="24" height="24" viewBox="0 0 24 24"><g opacity="0.4"><path d="m18,2h-8c-1.65,0-3,1.35-3,3v4.59l.29-.29c.39-.39,1.02-.39,1.41,0l5,5c.29.29.37.72.22,1.09-.15.37-.52.62-.92.62v5c0,.55-.45,1-1,1h6.5c1.38,0,2.5-1.12,2.5-2.5V5c0-1.65-1.35-3-3-3Zm-5,5.5c0,.28-.22.5-.5.5h-1c-.28,0-.5-.22-.5-.5v-1c0-.28.22-.5.5-.5h1c.28,0,.5.22.5.5v1Zm4,4c0,.28-.22.5-.5.5h-1c-.28,0-.5-.22-.5-.5v-.97c0-.28.22-.5.5-.5h1c.28,0,.5.22.5.5v.97Zm0-4c0,.28-.22.5-.5.5h-1c-.28,0-.5-.22-.5-.5v-1c0-.28.22-.5.5-.5h1c.28,0,.5.22.5.5v1Z"/></g><path d="m13,21v-5c.4,0,.77-.24.92-.62.16-.37.07-.8-.22-1.09l-5-5c-.39-.39-1.02-.39-1.41,0l-5,5c-.29.29-.37.72-.22,1.09.15.37.52.62.92.62v3.5c0,1.38,1.12,2.5,2.5,2.5h6.5c.55,0,1-.45,1-1Zm-4-4.5c0,.28-.22.5-.5.5h-1c-.28,0-.5-.22-.5-.5v-1c0-.28.22-.5.5-.5h1c.28,0,.5.22.5.5v1Z"/><rect x="15" y="10.03" width="2" height="1.97" rx=".5" ry=".5"/><rect x="11" y="6" width="2" height="2" rx=".5" ry=".5"/><rect x="15" y="6" width="2" height="2" rx=".5" ry=".5"/></svg>