<svg xmlns="http://www.w3.org/2000/svg" width="24" height="24" viewBox="0 0 24 24"><g opacity="0.4"><path d="m19.38,8c0-.67-.26-1.3-.73-1.77l-1.88-1.88c-.47-.47-1.1-.73-1.77-.73,0,0,0,0,0,0-.67,0-1.3.26-1.77.74l-.07.07c-.99-.33-2.03-.47-3.09-.42-4.41.22-7.96,3.85-8.07,8.26-.06,2.36.82,4.57,2.49,6.24s3.74,2.49,6.01,2.49c.08,0,.15,0,.23,0,4.42-.12,8.05-3.66,8.26-8.07.05-1.06-.09-2.09-.42-3.08l.07-.07c.47-.47.73-1.1.73-1.77Zm-8.88,2c-1.38,0-2.5,1.12-2.5,2.5,0,.55-.45,1-1,1s-1-.45-1-1c0-2.48,2.02-4.5,4.5-4.5.55,0,1,.45,1,1s-.45,1-1,1Z"/></g><path d="M16.29 6.71 16.29 6.71 16.29 6.71 16.29 6.71z"/><path d="m21,2c-1.4,0-2.58,1.17-2.71,1.29l-1.29,1.29,1.41,1.41,1.3-1.3c.23-.23.84-.7,1.29-.7.55,0,1-.45,1-1s-.45-1-1-1Z"/><path d="m7,13.5c.55,0,1-.45,1-1,0-1.38,1.12-2.5,2.5-2.5.55,0,1-.45,1-1s-.45-1-1-1c-2.48,0-4.5,2.02-4.5,4.5,0,.55.45,1,1,1Z"/></svg>