<svg xmlns="http://www.w3.org/2000/svg" width="24" height="24" viewBox="0 0 24 24"><g opacity="0.4"><path d="M12 2A2 2 0 1 0 12 6 2 2 0 1 0 12 2z"/><path d="m20,6h0c-.15-.53-.71-.84-1.24-.69l-10.64,3.04c-.78.22-1.59-.05-2.09-.65-.3.18-.65.3-1.03.3-.55,0-1.05-.22-1.41-.58l.4.8c.69,1.38,2.09,2.21,3.58,2.21.36,0,.73-.05,1.1-.15l.98-.28-3.31,10.75c-.16.53.13,1.09.66,1.25.53.16,1.09-.13,1.25-.66l2.05-6.68v.04s1.54.44,1.54.44c1.06.3,1.68,1.41,1.37,2.47l-.9,3.15c-.15.53.16,1.08.69,1.24h0c.53.15,1.08-.16,1.24-.69l.9-3.15c.58-2.01-.51-4.12-2.44-4.84l1.13-4.51,5.48-1.57c.53-.15.84-.71.69-1.24Z"/></g><path d="M5 4A2 2 0 1 0 5 8 2 2 0 1 0 5 4z"/></svg>