<svg xmlns="http://www.w3.org/2000/svg" width="24" height="24" viewBox="0 0 24 24"><g opacity="0.4"><path d="m20.21,10c.28,0,.54.07.79.2v-.07c0-1.3-.71-2.48-1.81-3.12-.24-1.77-1.78-3.13-3.63-3.13-.34,0-.68.05-1.01.14-.68-.65-1.58-1.01-2.54-1.01s-1.87.37-2.54,1.01c-.33-.09-.67-.14-1.01-.14-.01,0-.02,0-.04,0-.01,0-.02,0-.03,0-.02,0-.04.01-.06.01-1.79.06-3.27,1.39-3.51,3.12-1.11.64-1.81,1.82-1.81,3.12v.07c.24-.12.51-.2.79-.2h16.43Z"/></g><path d="m20.21,10H3.79c-.49,0-.96.21-1.29.57-.34.37-.5.87-.46,1.37.3,3.22,2.15,6.1,4.96,7.72v.59c0,.96.79,1.75,1.75,1.75h6.5c.96,0,1.75-.79,1.75-1.75v-.59c2.81-1.62,4.66-4.5,4.96-7.72.05-.5-.12-1-.46-1.37-.33-.36-.8-.57-1.29-.57Z"/></svg>