<svg xmlns="http://www.w3.org/2000/svg" width="24" height="24" viewBox="0 0 24 24"><g opacity="0.4"><path d="M8 19H16V22H8z"/><path d="m15,14h-6c-.55,0-1,.45-1,1v2h8v-2c0-.55-.45-1-1-1Z"/><path d="m15,6h-6c-3.31,0-6,2.69-6,6v7c0,1.65,1.35,3,3,3v-7c0-1.65,1.35-3,3-3h6c1.65,0,3,1.35,3,3v7c1.65,0,3-1.35,3-3v-7c0-3.31-2.69-6-6-6Z"/></g><path d="m8,19h8v3h2v-7c0-1.65-1.35-3-3-3h-6c-1.65,0-3,1.35-3,3v7h2v-3Zm0-4c0-.55.45-1,1-1h6c.55,0,1,.45,1,1v2h-8v-2Z"/><path d="m10,6c0-1.1.9-2,2-2s2,.9,2,2h1c.34,0,.67.04,1,.09v-.09c0-2.21-1.79-4-4-4s-4,1.79-4,4v.09c.33-.06.66-.09,1-.09h1Z"/></svg>