<svg xmlns="http://www.w3.org/2000/svg" width="24" height="24" viewBox="0 0 24 24"><g opacity="0.4"><path d="m15.4,7c0-.85-.39-1.34-.62-1.62-.17-.21-.18-.23-.18-.37s.02-.17.18-.37c.09-.11.21-.27.31-.46l-2.44.34c-.03.15-.05.31-.05.49,0,.85.39,1.33.62,1.62.17.21.18.23.18.37s-.02.17-.18.38c-.23.29-.62.77-.62,1.63,0,.42.09.74.22,1h2.37c-.13-.27-.29-.48-.4-.63-.17-.21-.18-.23-.18-.38s.02-.17.18-.38c.23-.29.62-.77.62-1.63Z"/><path d="m11.4,7c0-.85-.39-1.34-.62-1.62-.17-.21-.18-.23-.18-.37,0-.09.01-.14.06-.21l-2.05.29c.03.8.39,1.26.61,1.54.17.21.18.23.18.37s-.02.17-.18.38c-.23.29-.62.77-.62,1.63,0,.42.09.74.22,1h2.37c-.13-.27-.29-.48-.4-.63-.17-.21-.18-.23-.18-.38s.02-.17.18-.38c.23-.29.62-.77.62-1.63Z"/><path d="m7.35,7.5c0-.79-.36-1.23-.57-1.5q-.13-.16-.13-.25t.13-.25c.04-.05.09-.12.14-.18l-2.25.32s-.01.07-.01.11c0,.79.36,1.23.57,1.5q.13.16.13.25,0,.09-.13.25c-.21.27-.57.71-.57,1.5,0,.3.06.54.14.75h2.33c-.11-.21-.23-.38-.33-.5q-.13-.16-.13-.25,0-.09.13-.25c.21-.27.57-.71.57-1.5Z"/></g><path d="m20.21,10H3.79c-.49,0-.96.21-1.29.57-.34.37-.5.87-.46,1.37.3,3.22,2.15,6.1,4.96,7.72v.59c0,.96.79,1.75,1.75,1.75h6.5c.96,0,1.75-.79,1.75-1.75v-.59c2.81-1.62,4.66-4.5,4.96-7.72.05-.5-.12-1-.46-1.37-.33-.36-.8-.57-1.29-.57Z"/><path d="m20.86,1.33L2.86,3.87c-.55.08-.93.58-.85,1.13.07.5.5.86.99.86.05,0,.09,0,.14,0l18-2.54c.55-.08.93-.58.85-1.13-.08-.55-.57-.93-1.13-.85Z"/></svg>