<svg xmlns="http://www.w3.org/2000/svg" width="24" height="24" viewBox="0 0 24 24"><g opacity="0.4"><path d="m18.96,8.02c-.51.65-1.06,1.89-1.06,4.21,0,.55-.45,1-1,1s-1-.45-1-1c0-2.67.65-4.3,1.39-5.3.18-.25.1-.6-.17-.73-.65-.32-1.34-.58-2.06-.78-.17-.05-.36,0-.48.12-.86.89-1.87,2.76-1.87,6.69,0,.55-.45,1-1,1s-1-.45-1-1c0-3.01.57-5.06,1.3-6.46.18-.34-.07-.75-.46-.73-.74.03-1.77.11-2.47.33-.12.04-.22.12-.28.24-.65,1.23-1.3,3.16-1.3,6.62,0,.55-.45,1-1,1s-1-.45-1-1c0-1.81.17-3.27.43-4.46.1-.45-.42-.78-.78-.5-1.91,1.45-3.15,3.46-3.15,5.61,0,3.43,4.39,6.12,10,6.12s10-2.69,10-6.12c0-1.82-.89-3.54-2.32-4.9-.21-.2-.55-.18-.72.05Z"/></g><path d="m10.7,12.23c0,.55.45,1,1,1s1-.45,1-1c0-3.93,1.01-5.8,1.87-6.69.12-.13.31-.17.48-.12-.97-.26-2-.41-3.05-.41l-.45.03c.39-.02.64.39.46.73-.74,1.4-1.3,3.45-1.3,6.46Z"/><path d="m5.93,7.77c-.26,1.19-.43,2.65-.43,4.46,0,.55.45,1,1,1s1-.45,1-1c0-3.46.64-5.39,1.3-6.62.05-.1.14-.18.25-.22-1.46.38-2.79,1.04-3.9,1.88.36-.27.88.06.78.51Z"/><path d="M5.15 7.26 5.14 7.27 5.15 7.26 5.15 7.26z"/><path d="m15.9,12.23c0,.55.45,1,1,1s1-.45,1-1c0-2.31.55-3.56,1.06-4.21.16-.2.44-.23.65-.09-.71-.67-1.54-1.26-2.48-1.72.26.14.34.48.16.72-.73,1-1.39,2.64-1.39,5.3Z"/></svg>