<svg xmlns="http://www.w3.org/2000/svg" width="24" height="24" viewBox="0 0 24 24"><g opacity="0.4"><path d="M17.5 15A3.5 3.5 0 1 0 17.5 22 3.5 3.5 0 1 0 17.5 15z"/><path d="m14.61,5.63c-.11-1.74-.62-2.62-1.19-3.05-.23-.09-.47-.16-.71-.23-.23-.06-.46-.11-.7-.15-.7.09-1.58.59-2.55,2.05-.85,1.28-1.61,3.07-2.14,5.03l-.24.88,6.62,1.77.24-.88c.53-1.96.76-3.89.67-5.43Z"/></g><path d="m7.54,21.68c.53.14,1.08-.17,1.22-.71l2.59-9.66-1.93-.52-2.59,9.66c-.14.53.17,1.08.71,1.22Z"/><path d="m7.33,9.29c.53-1.96,1.29-3.75,2.14-5.03.97-1.46,1.85-1.95,2.55-2.05-1.85-.32-3.73,0-5.37.95-1.85,1.07-3.17,2.79-3.73,4.86-.14.53.17,1.08.71,1.22l3.47.93.24-.88Z"/><path d="m14.61,5.63c.1,1.54-.14,3.47-.67,5.43l-.24.88,3.44.92c.09.02.17.03.26.03.44,0,.84-.29.96-.74.55-2.06.27-4.22-.8-6.07-.94-1.63-2.4-2.86-4.15-3.5.56.43,1.08,1.3,1.19,3.05Z"/></svg>