<svg xmlns="http://www.w3.org/2000/svg" width="24" height="24" viewBox="0 0 24 24"><g opacity="0.4"><path d="m15,6h-6c-3.31,0-6,2.69-6,6v7c0,1.65,1.35,3,3,3h12c1.65,0,3-1.35,3-3v-7c0-3.31-2.69-6-6-6Zm.24,7.58l-1.36,1.36.53,1.72c.14.45-.36.82-.76.56l-1.66-1.1-1.66,1.1c-.39.26-.89-.11-.76-.56l.53-1.72-1.36-1.36c-.3-.3-.11-.82.31-.85l1.65-.14.83-1.68c.18-.37.71-.37.9,0l.83,1.68,1.65.14c.42.04.61.55.31.85Z"/></g><path d="m14.93,12.73l-1.65-.14-.83-1.68c-.18-.37-.71-.37-.9,0l-.83,1.68-1.65.14c-.42.04-.61.55-.31.85l1.36,1.36-.53,1.72c-.14.45.36.82.76.56l1.66-1.1,1.66,1.1c.39.26.89-.11.76-.56l-.53-1.72,1.36-1.36c.3-.3.11-.82-.31-.85Z"/><path d="m10,6c0-1.1.9-2,2-2s2,.9,2,2h1c.34,0,.67.04,1,.09v-.09c0-2.21-1.79-4-4-4s-4,1.79-4,4v.09c.33-.06.66-.09,1-.09h1Z"/></svg>