<svg xmlns="http://www.w3.org/2000/svg" width="24" height="24" viewBox="0 0 24 24"><g opacity="0.4"><path d="m19.12,13.71c-.08-.08-.12-.18-.12-.29v-3.41c0-1.91-.75-3.69-2.13-5.02-.87-.84-1.89-1.43-3.02-1.73-.3-.73-1.01-1.24-1.85-1.24s-1.57.53-1.86,1.27c-2.95.85-5.14,3.69-5.14,6.98v3.16c0,.11-.04.22-.12.29l-1.17,1.17c-.45.45-.71,1.07-.71,1.71,0,1.33,1.08,2.41,2.41,2.41h13.17c1.33,0,2.41-1.08,2.41-2.41,0-.63-.26-1.26-.71-1.71l-1.17-1.17Zm-4.62-1.71h-1.5v1.5c0,.55-.45,1-1,1s-1-.45-1-1v-1.5h-1.5c-.55,0-1-.45-1-1s.45-1,1-1h1.5v-1.5c0-.55.45-1,1-1s1,.45,1,1v1.5h1.5c.55,0,1,.45,1,1s-.45,1-1,1Z"/></g><path d="m12,22c1.66,0,3-1.34,3-3h-6c0,1.66,1.34,3,3,3Z"/><path d="m9.5,12h1.5v1.5c0,.55.45,1,1,1s1-.45,1-1v-1.5h1.5c.55,0,1-.45,1-1s-.45-1-1-1h-1.5v-1.5c0-.55-.45-1-1-1s-1,.45-1,1v1.5h-1.5c-.55,0-1,.45-1,1s.45,1,1,1Z"/></svg>