<svg xmlns="http://www.w3.org/2000/svg" width="24" height="24" viewBox="0 0 24 24"><g opacity="0.4"><path d="m16,1.97h-8c-2.21,0-4,1.79-4,4v14.16c0,.53.29,1.03.75,1.3.23.13.49.2.75.2s.51-.07.74-.2l5.51-3.15c.15-.09.34-.09.5,0l5.51,3.15c.46.26,1.04.26,1.5,0,.46-.27.75-.76.75-1.3V5.97c0-2.21-1.79-4-4-4Zm-.79,9.82c.39.39.39,1.02,0,1.41-.2.2-.45.29-.71.29s-.51-.1-.71-.29l-1.79-1.79-1.79,1.79c-.2.2-.45.29-.71.29s-.51-.1-.71-.29c-.39-.39-.39-1.02,0-1.41l1.79-1.79-1.79-1.79c-.39-.39-.39-1.02,0-1.41s1.02-.39,1.41,0l1.79,1.79,1.79-1.79c.39-.39,1.02-.39,1.41,0s.39,1.02,0,1.41l-1.79,1.79,1.79,1.79Z"/></g><path d="m8.79,13.21c.2.2.45.29.71.29s.51-.1.71-.29l1.79-1.79,1.79,1.79c.2.2.45.29.71.29s.51-.1.71-.29c.39-.39.39-1.02,0-1.41l-1.79-1.79,1.79-1.79c.39-.39.39-1.02,0-1.41s-1.02-.39-1.41,0l-1.79,1.79-1.79-1.79c-.39-.39-1.02-.39-1.41,0s-.39,1.02,0,1.41l1.79,1.79-1.79,1.79c-.39.39-.39,1.02,0,1.41Z"/></svg>