<svg xmlns="http://www.w3.org/2000/svg" width="24" height="24" viewBox="0 0 24 24"><g opacity="0.4"><path d="m20.81,13.37c-.41,0-.74-.35-.74-.76,0-.41.34-.74.75-.74h.01c.39,0,.78.05,1.16.11-.01-5.5-4.48-9.96-9.98-9.98.06.38.1.77.11,1.16,0,.41-.32.76-.74.76h-.01c-.41,0-.74-.33-.75-.74,0-.36-.05-.72-.1-1.07C6.19,2.77,2.77,6.19,2.12,10.52c.35.06.71.1,1.07.1.41,0,.74.35.74.76,0,.41-.34.74-.75.74h-.01c-.39,0-.78-.05-1.16-.11.01,5.5,4.48,9.96,9.98,9.98-.06-.38-.1-.77-.11-1.16,0-.41.32-.76.74-.76.42.01.76.32.76.74,0,.36.05.72.1,1.07,4.33-.64,7.76-4.07,8.4-8.4-.35-.06-.71-.1-1.07-.1Zm-10.06-5.33l-.13.2c-.31.46-.67.9-1.07,1.3-.4.4-.84.76-1.3,1.08l-.19.13c-.13.08-.27.12-.4.12-.25,0-.49-.12-.63-.34-.22-.35-.12-.81.23-1.04l.16-.1c.39-.26.75-.56,1.08-.9.33-.33.63-.69.89-1.08l.11-.16c.22-.35.68-.45,1.04-.23.35.22.45.69.23,1.04Zm6,6.47l-.16.1c-.39.26-.75.56-1.08.9-.33.33-.63.69-.89,1.08l-.11.16c-.14.23-.39.35-.63.35-.14,0-.28-.04-.4-.12-.35-.22-.45-.69-.23-1.04l.13-.2c.31-.46.67-.9,1.07-1.3.4-.4.84-.76,1.3-1.08l.19-.13c.35-.22.81-.12,1.04.23.22.35.12.81-.23,1.04Z"/></g><path d="m15.95,13.25l-.19.12c-.47.31-.9.68-1.3,1.08-.4.4-.76.84-1.07,1.3l-.13.2c-.22.35-.12.81.23,1.04.12.08.26.12.4.12.25,0,.49-.12.63-.35l.11-.16c.26-.39.56-.75.89-1.08.33-.33.7-.63,1.08-.9l.16-.1c.35-.22.45-.69.23-1.04-.22-.35-.69-.45-1.04-.23Z"/><path d="m12.13,3.16c0-.39-.05-.78-.11-1.16h-.02c-.5,0-.99.05-1.47.12.06.35.1.71.1,1.07,0,.41.34.74.75.74h.01c.41,0,.74-.35.74-.76Z"/><path d="m10.52,7.01c-.35-.22-.81-.12-1.04.23l-.11.16c-.26.39-.56.75-.89,1.08-.33.33-.7.63-1.08.9l-.16.1c-.35.22-.45.69-.23,1.04.14.22.38.34.63.34.14,0,.28-.04.4-.12l.19-.12c.47-.31.9-.68,1.3-1.08.4-.4.76-.84,1.07-1.3l.13-.2c.22-.35.12-.81-.23-1.04Z"/><path d="m20.84,11.87h-.01c-.41,0-.74.33-.75.74,0,.41.32.76.74.76.36,0,.72.05,1.07.1.07-.48.12-.97.12-1.48,0,0,0-.02,0-.02-.39-.06-.77-.1-1.16-.11Z"/><path d="m3.19,10.63c-.36,0-.72-.05-1.07-.1-.07.48-.12.97-.12,1.48,0,0,0,.02,0,.02.39.06.77.1,1.16.11h.01c.41,0,.74-.33.75-.74,0-.41-.32-.76-.74-.76Z"/><path d="m12.61,20.07c-.41,0-.74.35-.74.76,0,.39.05.78.11,1.16h.02c.5,0,.99-.05,1.47-.12-.06-.35-.1-.71-.1-1.07,0-.41-.35-.72-.76-.74Z"/></svg>