<svg xmlns="http://www.w3.org/2000/svg" width="24" height="24" viewBox="0 0 24 24"><g opacity="0.4"><path d="m10.84,21.16c.15.51.62.86,1.16.86s1.01-.34,1.16-.86c.29-1.03,1.15-2.86,3.59-4.77-.68.39-1.45.61-2.24.61-.39,0-.77-.06-1.14-.16-.59.69-1.03,1.35-1.36,1.96-.33-.61-.78-1.28-1.37-1.97-1.13.28-2.38.12-3.4-.47,2.46,1.91,3.32,3.75,3.61,4.79Z"/></g><path d="m20,8.55v-.05c0-2.4-1.89-4.37-4.27-4.49-.83-1.24-2.23-2.01-3.73-2.01s-2.91.77-3.73,2.01c-2.37.12-4.27,2.09-4.27,4.49v.05c-1.22.7-2,2.01-2,3.45,0,2.41,2.13,4.37,4.62,3.95,1.5,1.26,3.79,1.36,5.38.29.73.49,1.6.76,2.5.76,1.05,0,2.07-.38,2.88-1.05,2.49.42,4.62-1.53,4.62-3.95,0-1.44-.78-2.75-2-3.45Z"/></svg>