<svg xmlns="http://www.w3.org/2000/svg" width="24" height="24" viewBox="0 0 24 24"><g opacity="0.4"><path d="m7.17,4.02c-1.78.16-3.17,1.66-3.17,3.48,0,.33.05.65.14.96-1.27.68-2.14,2.03-2.14,3.54,0,1.08.43,2.09,1.17,2.83-.11.38-.17.77-.17,1.17,0,1.96,1.41,3.59,3.31,3.93.55,1.23,1.8,2.07,3.19,2.07.98,0,1.86-.4,2.5-1.05V2.77c-.53-.48-1.23-.77-2-.77-1.3,0-2.41.83-2.83,2.02Z"/></g><path d="m19.86,8.46c.09-.31.14-.64.14-.96,0-1.82-1.39-3.32-3.17-3.48-.41-1.17-1.52-2.02-2.83-2.02-.77,0-1.47.29-2,.77v18.18c.64.65,1.52,1.05,2.5,1.05,1.39,0,2.63-.83,3.19-2.06,1.88-.33,3.31-1.97,3.31-3.94,0-.4-.06-.79-.17-1.17.74-.75,1.17-1.76,1.17-2.83,0-1.51-.86-2.86-2.14-3.54Z"/></svg>