<svg xmlns="http://www.w3.org/2000/svg" width="24" height="24" viewBox="0 0 24 24"><g opacity="0.4"><path d="m2.8,9.89c-.46.13-.8.5-.8.98h0c0,.65.62,1.14,1.25.97.64-.17,1.24-.46,1.75-.85v-3.99c0,.83-.34,1.58-.88,2.12-.36.36-.82.63-1.32.77Z"/><path d="m12,10c-2.76,0-5-2.24-5-5v4.87c1.05,1.08,2.44,1.82,4,2.05v3.08h2v-3.08c1.56-.22,2.95-.97,4-2.05v-4.87c0,2.76-2.24,5-5,5Z"/><path d="m21.2,9.89c-.51-.14-.96-.41-1.32-.77-.54-.54-.88-1.29-.88-2.12v3.99c.52.39,1.11.68,1.75.85.63.16,1.25-.32,1.25-.97h0c0-.48-.34-.85-.8-.98Z"/></g><path d="m21,15h-2V4c0-.55-.45-1-1-1s-1,.45-1,1v11H7V4c0-.55-.45-1-1-1s-1,.45-1,1v11h-2c-.55,0-1,.45-1,1s.45,1,1,1h2v3c0,.55.45,1,1,1s1-.45,1-1v-3h10v3c0,.55.45,1,1,1s1-.45,1-1v-3h2c.55,0,1-.45,1-1s-.45-1-1-1Z"/></svg>