<svg xmlns="http://www.w3.org/2000/svg" width="24" height="24" viewBox="0 0 24 24"><g opacity="0.4"><path d="m20.25,18H3.75c-.96,0-1.75.79-1.75,1.75v.5c0,.96.79,1.75,1.75,1.75h16.5c.96,0,1.75-.79,1.75-1.75v-.5c0-.96-.79-1.75-1.75-1.75Z"/><path d="m21.1,6.91L12.85,2.33c-.53-.29-1.16-.29-1.7,0L2.9,6.91c-.56.31-.9.89-.9,1.53v.81c0,.96.79,1.75,1.75,1.75h16.5c.96,0,1.75-.79,1.75-1.75v-.81c0-.64-.34-1.22-.9-1.53Zm-9.1,2.09c-.83,0-1.5-.67-1.5-1.5s.67-1.5,1.5-1.5,1.5.67,1.5,1.5-.67,1.5-1.5,1.5Z"/></g><path d="M13 11H15V18H13z"/><path d="M5 11H7V18H5z"/><path d="M17 11H19V18H17z"/><path d="M9 11H11V18H9z"/><path d="M12 6A1.5 1.5 0 1 0 12 9 1.5 1.5 0 1 0 12 6z"/></svg>