<svg xmlns="http://www.w3.org/2000/svg" width="24" height="24" viewBox="0 0 24 24"><g opacity="0.4"><path d="m12,2c-3.86,0-7,3.14-7,7v6c0,3.86,3.14,7,7,7s7-3.14,7-7v-6c0-3.86-3.14-7-7-7Zm2,13h-4c-.55,0-1-.45-1-1s.45-1,1-1h4c.55,0,1,.45,1,1s-.45,1-1,1Zm0-4h-4c-.55,0-1-.45-1-1s.45-1,1-1h4c.55,0,1,.45,1,1s-.45,1-1,1Z"/></g><path d="m10,15h4c.55,0,1-.45,1-1s-.45-1-1-1h-4c-.55,0-1,.45-1,1s.45,1,1,1Z"/><path d="m10,11h4c.55,0,1-.45,1-1s-.45-1-1-1h-4c-.55,0-1,.45-1,1s.45,1,1,1Z"/><path d="m5,13h-1c-.55,0-1,.45-1,1s.45,1,1,1h1v-2Z"/><path d="m4,11h1v-2h-1c-.55,0-1,.45-1,1s.45,1,1,1Z"/><path d="m6,5.41c.35-.58.78-1.1,1.27-1.56l-.56-.56c-.39-.39-1.02-.39-1.41,0s-.39,1.02,0,1.41l.71.71Z"/><path d="m20,13h-1v2h1c.55,0,1-.45,1-1s-.45-1-1-1Z"/><path d="m20,9h-1v2h1c.55,0,1-.45,1-1s-.45-1-1-1Z"/><path d="m18.71,4.71c.39-.39.39-1.02,0-1.41s-1.02-.39-1.41,0l-.56.56c.49.46.92.98,1.27,1.56l.71-.71Z"/></svg>