<svg xmlns="http://www.w3.org/2000/svg" width="24" height="24" viewBox="0 0 24 24"><g opacity="0.4"><path d="m17,3H7c-2.21,0-4,1.79-4,4v10c0,2.21,1.79,4,4,4h10c2.21,0,4-1.79,4-4V7c0-2.21-1.79-4-4-4Zm-8,13c0,.55-.45,1-1,1s-1-.45-1-1v-5c0-.55.45-1,1-1s1,.45,1,1v5Zm4,0c0,.55-.45,1-1,1s-1-.45-1-1v-8c0-.55.45-1,1-1s1,.45,1,1v8Zm4,0c0,.55-.45,1-1,1s-1-.45-1-1v-3c0-.55.45-1,1-1s1,.45,1,1v3Z"/></g><path d="m16,17c.55,0,1-.45,1-1v-3c0-.55-.45-1-1-1s-1,.45-1,1v3c0,.55.45,1,1,1Z"/><path d="m12,17c.55,0,1-.45,1-1v-8c0-.55-.45-1-1-1s-1,.45-1,1v8c0,.55.45,1,1,1Z"/><path d="m8,17c.55,0,1-.45,1-1v-5c0-.55-.45-1-1-1s-1,.45-1,1v5c0,.55.45,1,1,1Z"/></svg>