<svg xmlns="http://www.w3.org/2000/svg" width="24" height="24" viewBox="0 0 24 24"><g opacity="0.4"><path d="m14,6.26v-2.26h1c.55,0,1-.45,1-1s-.45-1-1-1h-6c-.55,0-1,.45-1,1s.45,1,1,1h1v2.26c-2.03.53-3.75,1.83-4.82,3.58,3.46.34,5.45,1.66,7.38,2.94,1.94,1.29,3.8,2.51,7.29,2.66.09-.47.15-.95.15-1.45,0-3.73-2.55-6.85-6-7.74Z"/><path d="m5.17,9.86s0-.01.01-.02c0,0,0,0,0,0,0,0,0,.01,0,.02Z"/></g><path d="m12,22c3.92,0,7.18-2.83,7.86-6.55-3.49-.16-5.36-1.37-7.3-2.67-1.93-1.29-3.92-2.6-7.38-2.94h0s0,0,0,0c-.74,1.21-1.18,2.63-1.18,4.16,0,4.42,3.58,8,8,8Z"/><path d="m19.29,8.29l-.91.91c.42.55.76,1.16,1.02,1.81l1.3-1.3c.39-.39.39-1.02,0-1.41s-1.02-.39-1.41,0Z"/></svg>