<svg xmlns="http://www.w3.org/2000/svg" width="24" height="24" viewBox="0 0 24 24"><g opacity="0.4"><path d="m17,16c-3.31,0-6-2.69-6-6v-4.5c0-1.93-1.57-3.5-3.5-3.5s-3.5,1.57-3.5,3.5v5.5c0,4.96,4.04,9,9,9,3.92,0,7.25-2.52,8.49-6.03-1.1,1.24-2.7,2.03-4.49,2.03ZM7,7c-.55,0-1-.45-1-1s.45-1,1-1,1,.45,1,1-.45,1-1,1Z"/></g><path d="m4,6.18c-.98.35-1.73,1.18-1.94,2.22-.06.31.18.6.5.6h1.44v-2.82Z"/><path d="m10,22c.55,0,1-.45,1-1v-1.23c-.7-.16-1.37-.4-2-.72v1.95c0,.55.45,1,1,1Z"/><path d="m15,21v-1.23c-.64.15-1.31.23-2,.23v1c0,.55.45,1,1,1s1-.45,1-1Z"/><path d="M7 5A1 1 0 1 0 7 7 1 1 0 1 0 7 5z"/><path d="m21.5,10h-10.5c0,3.31,2.69,6,6,6,1.78,0,3.38-.79,4.48-2.03.33-.93.52-1.93.52-2.97v-.5c0-.28-.22-.5-.5-.5Z"/></svg>