<svg xmlns="http://www.w3.org/2000/svg" width="24" height="24" viewBox="0 0 24 24"><g opacity="0.4"><path d="m19.5,17H4.5c-1.38,0-2.5,1.12-2.5,2.5s1.12,2.5,2.5,2.5h15c1.38,0,2.5-1.12,2.5-2.5s-1.12-2.5-2.5-2.5Z"/></g><path d="m4.5,17h15s0,0,0,0h-1.72c.59-1.1,1.22-2.61,1.22-4,0-2.02-.75-3.98-1.98-5.46-1.26.75-3.02,2.35-3.02,5.46,0,.55-.45,1-1,1s-1-.45-1-1c0-3.44,1.76-5.64,3.5-6.87-.02-.01-.03-.03-.05-.04.03-.19.05-.39.05-.59,0-1.1-.5-2.11-1.38-2.78-.87-.67-2-.88-3.08-.59-1.17.32-2.12,1.29-2.43,2.49-.13.5-.15.99-.06,1.47-2.15,1.45-3.55,4.12-3.55,6.91,0,1.4.37,2.8,1.02,4h-1.52s0,0,0,0Z"/></svg>