<svg xmlns="http://www.w3.org/2000/svg" width="24" height="24" viewBox="0 0 24 24"><g opacity="0.4"><path d="m17,11v-1c0-.55-.45-1-1-1H4c-.55,0-1,.45-1,1v8c0,2.21,1.79,4,4,4h6c1.86,0,3.41-1.28,3.86-3h.14c2.21,0,4-1.79,4-4s-1.79-4-4-4Zm0,6v-4c1.1,0,2,.9,2,2s-.9,2-2,2Z"/></g><path d="m4.36,5.77c.21.18.38.38.49.6.1.2.15.42.15.63,0,.55.45,1,1,1s1-.45,1-1-.12-1.04-.37-1.53c-.23-.47-.57-.89-.99-1.24-.21-.18-.38-.38-.49-.6-.1-.2-.15-.42-.15-.63,0-.55-.45-1-1-1s-1,.45-1,1,.12,1.04.37,1.53c.23.47.57.89.99,1.24Z"/><path d="m8.36,5.77c.21.18.38.38.49.6.1.2.15.42.15.63,0,.55.45,1,1,1s1-.45,1-1-.12-1.04-.37-1.53c-.23-.47-.57-.89-.99-1.24-.21-.18-.38-.38-.49-.6-.1-.2-.15-.42-.15-.63,0-.55-.45-1-1-1s-1,.45-1,1,.12,1.04.37,1.53c.23.47.57.89.99,1.24Z"/><path d="m12.36,5.77c.21.18.38.38.49.6.1.2.15.42.15.63,0,.55.45,1,1,1s1-.45,1-1-.12-1.04-.37-1.53c-.23-.47-.57-.89-.99-1.24-.21-.18-.38-.38-.49-.6-.1-.2-.15-.42-.15-.63,0-.55-.45-1-1-1s-1,.45-1,1,.12,1.04.37,1.53c.23.47.57.89.99,1.24Z"/></svg>