<svg xmlns="http://www.w3.org/2000/svg" width="24" height="24" viewBox="0 0 24 24"><g opacity="0.4"><path d="m17,3H7c-2.21,0-4,1.79-4,4v10c0,2.21,1.79,4,4,4h10c2.21,0,4-1.79,4-4V7c0-2.21-1.79-4-4-4Zm-1,7.41l-4.79,4.79c-.2.2-.45.29-.71.29s-.51-.1-.71-.29l-1.79-1.79c-.39-.39-.39-1.02,0-1.41.39-.39,1.02-.39,1.41,0l1.09,1.09,4.09-4.09c.39-.39,1.02-.39,1.41,0,.39.39.39,1.02,0,1.41Z"/></g><path d="m10.5,15.5c.26,0,.51-.1.71-.29l4.79-4.79c.39-.39.39-1.02,0-1.41-.39-.39-1.02-.39-1.41,0l-4.09,4.09-1.09-1.09c-.39-.39-1.02-.39-1.41,0-.39.39-.39,1.02,0,1.41l1.79,1.79c.2.2.45.29.71.29Z"/></svg>