<svg xmlns="http://www.w3.org/2000/svg" width="24" height="24" viewBox="0 0 24 24"><g opacity="0.4"><path d="m3,18c0,2.21,1.79,4,4,4h10c2.21,0,4-1.79,4-4v-10H3v10Zm4.79-4.14c.39-.39,1.02-.39,1.41,0l1.92,1.92,3.67-3.67c.39-.39,1.02-.39,1.41,0s.39,1.02,0,1.41l-4.38,4.38c-.2.2-.45.29-.71.29s-.51-.1-.71-.29l-2.62-2.62c-.39-.39-.39-1.02,0-1.41Z"/></g><path d="m17,4v-1c0-.55-.45-1-1-1s-1,.45-1,1v1h-6v-1c0-.55-.45-1-1-1s-1,.45-1,1v1c-2.21,0-4,1.79-4,4h18c0-2.21-1.79-4-4-4Z"/><path d="m11.12,18.19c.26,0,.51-.1.71-.29l4.38-4.38c.39-.39.39-1.02,0-1.41s-1.02-.39-1.41,0l-3.67,3.67-1.92-1.92c-.39-.39-1.02-.39-1.41,0s-.39,1.02,0,1.41l2.62,2.62c.2.2.45.29.71.29Z"/></svg>