<svg xmlns="http://www.w3.org/2000/svg" width="24" height="24" viewBox="0 0 24 24"><g opacity="0.4"><path d="m3,18c0,2.21,1.79,4,4,4h10c2.21,0,4-1.79,4-4v-10H3v10Zm5.85-3.85l2.79-2.79c.2-.2.51-.2.71,0l2.79,2.79c.31.32.09.85-.35.85h-1.79v3c0,.55-.45,1-1,1s-1-.45-1-1v-3h-1.79c-.45,0-.67-.54-.35-.85Z"/></g><path d="m17,4v-1c0-.55-.45-1-1-1s-1,.45-1,1v1h-6v-1c0-.55-.45-1-1-1s-1,.45-1,1v1c-2.21,0-4,1.79-4,4h18c0-2.21-1.79-4-4-4Z"/><path d="m12,19c.55,0,1-.45,1-1v-3h1.79c.45,0,.67-.54.35-.85l-2.79-2.79c-.2-.2-.51-.2-.71,0l-2.79,2.79c-.32.31-.09.85.35.85h1.79v3c0,.55.45,1,1,1Z"/></svg>