<svg xmlns="http://www.w3.org/2000/svg" width="24" height="24" viewBox="0 0 24 24"><g opacity="0.4"><path d="m17,3h-.09c.06.16.09.32.09.5v2.5c0,.55-.45,1-1,1h-8c-.55,0-1-.45-1-1v-2.5c0-.18.04-.34.09-.5h-.09c-2.21,0-4,1.79-4,4v11c0,2.21,1.79,4,4,4h10c2.21,0,4-1.79,4-4V7c0-2.21-1.79-4-4-4Zm-6.25,12.59c.39.39.39,1.02,0,1.41-.39.39-1.02.39-1.41,0l-2.29-2.29c-.39-.39-.39-1.02,0-1.41l2.29-2.29c.39-.39,1.02-.39,1.41,0,.39.39.39,1.02,0,1.41l-1.59,1.59,1.59,1.59Zm6.21-.88l-2.29,2.29c-.39.39-1.02.39-1.41,0-.39-.39-.39-1.02,0-1.41l1.59-1.59-1.59-1.59c-.39-.39-.39-1.02,0-1.41.39-.39,1.02-.39,1.41,0l2.29,2.29c.39.39.39,1.02,0,1.41Z"/></g><path d="m8,7h8c.55,0,1-.45,1-1v-2.5c0-.83-.67-1.5-1.5-1.5h-7c-.83,0-1.5.67-1.5,1.5v2.5c0,.55.45,1,1,1Z"/><path d="m13.25,17c.39.39,1.02.39,1.41,0l2.29-2.29c.39-.39.39-1.02,0-1.41l-2.29-2.29c-.39-.39-1.02-.39-1.41,0-.39.39-.39,1.02,0,1.41l1.59,1.59-1.59,1.59c-.39.39-.39,1.02,0,1.41Z"/><path d="m9.34,17c.39.39,1.02.39,1.41,0,.39-.39.39-1.02,0-1.41l-1.59-1.59,1.59-1.59c.39-.39.39-1.02,0-1.41-.39-.39-1.02-.39-1.41,0l-2.29,2.29c-.39.39-.39,1.02,0,1.41l2.29,2.29Z"/></svg>