<svg xmlns="http://www.w3.org/2000/svg" width="24" height="24" viewBox="0 0 24 24"><g opacity="0.4"><path d="m3,18c0,2.21,1.79,4,4,4h10c2.21,0,4-1.79,4-4v-10H3v10Zm12-5.25c0-.41.34-.75.75-.75h.5c.41,0,.75.34.75.75v.5c0,.41-.34.75-.75.75h-.5c-.41,0-.75-.34-.75-.75v-.5Zm0,4c0-.41.34-.75.75-.75h.5c.41,0,.75.34.75.75v.5c0,.41-.34.75-.75.75h-.5c-.41,0-.75-.34-.75-.75v-.5Zm-4-4c0-.41.34-.75.75-.75h.5c.41,0,.75.34.75.75v.5c0,.41-.34.75-.75.75h-.5c-.41,0-.75-.34-.75-.75v-.5Zm0,4c0-.41.34-.75.75-.75h.5c.41,0,.75.34.75.75v.5c0,.41-.34.75-.75.75h-.5c-.41,0-.75-.34-.75-.75v-.5Zm-4-4c0-.41.34-.75.75-.75h.5c.41,0,.75.34.75.75v.5c0,.41-.34.75-.75.75h-.5c-.41,0-.75-.34-.75-.75v-.5Zm0,4c0-.41.34-.75.75-.75h.5c.41,0,.75.34.75.75v.5c0,.41-.34.75-.75.75h-.5c-.41,0-.75-.34-.75-.75v-.5Z"/></g><path d="m17,4v-1c0-.55-.45-1-1-1s-1,.45-1,1v1h-6v-1c0-.55-.45-1-1-1s-1,.45-1,1v1c-2.21,0-4,1.79-4,4h18c0-2.21-1.79-4-4-4Z"/><rect x="11" y="12" width="2" height="2" rx=".75" ry=".75"/><rect x="15" y="16" width="2" height="2" rx=".75" ry=".75"/><rect x="15" y="12" width="2" height="2" rx=".75" ry=".75"/><rect x="11" y="16" width="2" height="2" rx=".75" ry=".75"/><rect x="7" y="16" width="2" height="2" rx=".75" ry=".75"/><rect x="7" y="12" width="2" height="2" rx=".75" ry=".75"/></svg>