<svg xmlns="http://www.w3.org/2000/svg" width="24" height="24" viewBox="0 0 24 24"><g opacity="0.4"><path d="m2.62,13c-.3,0-.55.27-.5.57.25,1.59.88,3.05,1.79,4.3.18.24.54.26.75.05l3.9-3.9c-.19-.32-.33-.66-.42-1.02H2.62Z"/><path d="m10.43,2.12c-1.59.25-3.05.88-4.3,1.79-.24.18-.26.54-.05.75l3.9,3.9c.32-.19.66-.33,1.02-.42V2.62c0-.3-.27-.55-.57-.5Z"/><path d="m19.33,6.08l-3.9,3.9c.19.32.33.66.42,1.02h5.52c.3,0,.55-.27.5-.57-.25-1.59-.88-3.05-1.79-4.3-.18-.24-.54-.26-.75-.05Z"/><path d="m14.02,15.43c-.32.19-.66.33-1.02.42v5.52c0,.3.27.55.57.5,1.59-.25,3.05-.88,4.3-1.79.24-.18.26-.54.05-.75l-3.9-3.9Z"/></g><path d="m17.92,4.67c.21-.21.2-.58-.05-.75-1.25-.91-2.71-1.54-4.3-1.79-.3-.05-.57.2-.57.5v5.52c.36.09.7.24,1.02.42l3.9-3.9Z"/><path d="m2.62,11h5.52c.09-.36.24-.7.42-1.02l-3.9-3.9c-.21-.21-.58-.2-.75.05-.91,1.25-1.54,2.71-1.79,4.3-.05.3.2.57.5.57Z"/><path d="m21.38,13h-5.52c-.09.36-.24.7-.42,1.02l3.9,3.9c.21.21.58.2.75-.05.91-1.25,1.54-2.71,1.79-4.3.05-.3-.2-.57-.5-.57Z"/><path d="m6.08,19.33c-.21.21-.2.58.05.75,1.25.91,2.71,1.54,4.3,1.79.3.05.57-.2.57-.5v-5.52c-.36-.09-.7-.24-1.02-.42l-3.9,3.9Z"/></svg>