<svg xmlns="http://www.w3.org/2000/svg" width="24" height="24" viewBox="0 0 24 24"><g opacity="0.4"><path d="m18,4H6c0,2.21-1.79,4-4,4v8c2.21,0,4,1.79,4,4h12c0-2.21,1.79-4,4-4v-8c-2.21,0-4-1.79-4-4Zm-6,12c-2.21,0-4-1.79-4-4s1.79-4,4-4,4,1.79,4,4-1.79,4-4,4Z"/></g><path d="M12 8A4 4 0 1 0 12 16 4 4 0 1 0 12 8z"/><path d="m19.5,4h-1.5c0,2.21,1.79,4,4,4v-1.5c0-1.38-1.12-2.5-2.5-2.5Z"/><path d="m18,20h1.5c1.38,0,2.5-1.12,2.5-2.5v-1.5c-2.21,0-4,1.79-4,4Z"/><path d="m6,4h-1.5c-1.38,0-2.5,1.12-2.5,2.5v1.5c2.21,0,4-1.79,4-4Z"/><path d="m4.5,20h1.5c0-2.21-1.79-4-4-4v1.5c0,1.38,1.12,2.5,2.5,2.5Z"/></svg>