<svg xmlns="http://www.w3.org/2000/svg" width="24" height="24" viewBox="0 0 24 24"><g opacity="0.4"><path d="m18,3H6c-1.1,0-2.1.45-2.83,1.17-.72.72-1.17,1.72-1.17,2.83v.52c0,.27.22.48.48.49,3.39.12,6.46,1.56,8.7,3.8,2.25,2.25,3.68,5.31,3.8,8.7,0,.27.22.49.49.49h2.52c1.1,0,2.1-.45,2.83-1.17s1.17-1.72,1.17-2.83V7c0-1.1-.45-2.1-1.17-2.83-.72-.72-1.72-1.17-2.83-1.17Z"/></g><path d="m2.88,12.04c2.07.2,3.99,1.1,5.48,2.59,1.49,1.49,2.39,3.41,2.59,5.48.05.5.48.88.99.88.6,0,1.06-.52,1-1.12-.25-2.52-1.35-4.85-3.17-6.66-1.81-1.81-4.14-2.91-6.66-3.17-.6-.06-1.12.4-1.12,1,0,.51.38.94.88.99Z"/><path d="m2.83,16.07c1.02.17,1.96.65,2.7,1.39.74.74,1.22,1.68,1.4,2.7.08.48.49.83.98.83h0c.61,0,1.09-.55,1-1.15-.23-1.43-.91-2.76-1.96-3.8-1.05-1.05-2.37-1.72-3.8-1.96-.6-.1-1.15.39-1.15,1h0c0,.49.35.9.83.98Z"/><path d="M3.5 18A1.5 1.5 0 1 0 3.5 21 1.5 1.5 0 1 0 3.5 18z"/></svg>