<svg xmlns="http://www.w3.org/2000/svg" width="24" height="24" viewBox="0 0 24 24"><g opacity="0.4"><path d="M17 8.57 14 9.81 14 19 17 17.75 17 8.57z"/><path d="m19,7.74v9.17l1.46-.61c.93-.39,1.54-1.3,1.54-2.31v-6.07c0-.46-.13-.9-.36-1.28l-2.64,1.09Z"/><path d="m3.38,18.31l4.56,2.28c.35.18.73.26,1.12.26.33,0,.65-.06.96-.19l1.98-.83v-9.19l-1.96.81c-.66.27-1.4.25-2.04-.06l-5.61-2.71c-.24.39-.38.84-.38,1.31v6.07c0,.95.53,1.81,1.38,2.24Z"/></g><path d="m20.62,5.69l-4.56-2.28c-.65-.32-1.41-.35-2.08-.07L3.54,7.69c-.49.21-.89.56-1.15.99l5.61,2.71c.64.31,1.39.33,2.04.06l11.61-4.81c-.24-.4-.59-.74-1.03-.96Z"/></svg>