<svg xmlns="http://www.w3.org/2000/svg" width="24" height="24" viewBox="0 0 24 24"><g opacity="0.4"><path d="m12,2c-.55,0-1,.45-1,1v1h-1c-.55,0-1,.45-1,1s.45,1,1,1h1v1.85c.36.2.69.44,1,.7.31-.27.64-.5,1-.7v-1.85h1c.55,0,1-.45,1-1s-.45-1-1-1h-1v-1c0-.55-.45-1-1-1Z"/><path d="m20.57,17.24l.11-.24H3.32l.11.24c-.84.4-1.43,1.26-1.43,2.26,0,1.38,1.12,2.5,2.5,2.5h15c1.38,0,2.5-1.12,2.5-2.5,0-1-.58-1.86-1.43-2.26Z"/></g><path d="m16.79,7.03c-1.7-.16-3.5.4-4.79,1.52-1.29-1.12-3.06-1.68-4.79-1.52-1.86.18-3.47,1.21-4.41,2.83-.94,1.62-1.05,3.6-.29,5.3l.82,1.84h17.36l.82-1.84c.76-1.7.65-3.68-.29-5.3-.94-1.62-2.55-2.65-4.41-2.83Z"/></svg>