<svg xmlns="http://www.w3.org/2000/svg" width="24" height="24" viewBox="0 0 24 24"><g opacity="0.4"><path d="m12.86,6.48c.08-.26,0-.3-.16-.08l-3.41,4.69c-.16.22-.07.4.21.4h2c.28,0,.44.22.36.48l-.73,2.54c-.08.26,0,.3.16.08l3.41-4.69c.16-.22.07-.4-.21-.4h-2c-.28,0-.44-.22-.36-.48l.73-2.54Z"/><path d="m6,21c.55,0,1-.45,1-1v-2h-2c-.35,0-.69-.07-1-.18v2.18c0,.55.45,1,1,1h1Z"/><path d="m19,21c.55,0,1-.45,1-1v-2.18c-.31.11-.65.18-1,.18h-2v2c0,.55.45,1,1,1h1Z"/></g><path d="m19.63,5.73c-.54-1.64-2.07-2.73-3.79-2.73h-7.68c-1.72,0-3.25,1.1-3.79,2.73l-1.33,4c-.65.57-1.03,1.39-1.03,2.27v3c0,1.65,1.35,3,3,3h14c1.65,0,3-1.35,3-3v-3c0-.88-.38-1.7-1.03-2.27l-1.33-4ZM6.5,15c-.83,0-1.5-.67-1.5-1.5s.67-1.5,1.5-1.5,1.5.67,1.5,1.5-.67,1.5-1.5,1.5Zm4.5,0l1-3.5h-3l4-5.5-1,3.5h3l-4,5.5Zm6.5,0c-.83,0-1.5-.67-1.5-1.5s.67-1.5,1.5-1.5,1.5.67,1.5,1.5-.67,1.5-1.5,1.5Z"/></svg>