<svg xmlns="http://www.w3.org/2000/svg" width="24" height="24" viewBox="0 0 24 24"><g opacity="0.4"><path d="m12,2C6.49,2,2,6.49,2,12s4.49,10,10,10,10-4.49,10-10S17.51,2,12,2Zm1,10c0,.45-.3.85-.74.97-.09.02-.17.03-.26.03-.35,0-.68-.19-.87-.5l-2.5-4.33c-.28-.48-.11-1.09.37-1.37.48-.28,1.09-.11,1.37.37l.63,1.1v-1.27c0-.55.45-1,1-1s1,.45,1,1v5Z"/></g><path d="m11.13,12.5c.18.31.52.5.87.5.09,0,.17-.01.26-.03.44-.12.74-.51.74-.97v-5c0-.55-.45-1-1-1s-1,.45-1,1v1.27l-.63-1.1c-.28-.48-.89-.64-1.37-.37-.48.28-.64.89-.37,1.37l2.5,4.33Z"/></svg>