<svg xmlns="http://www.w3.org/2000/svg" width="24" height="24" viewBox="0 0 24 24"><g opacity="0.4"><path d="m18,5h-.59l-2.27-2.27c-.47-.47-1.11-.73-1.77-.73h-1.38v5c2.71,0,5,2.29,5,5s-2.29,5-5,5v3h6c2.21,0,4-1.79,4-4v-7c0-2.21-1.79-4-4-4Z"/><path d="m9,12c0-1.6,1.4-3,3-3v-2c-2.71,0-5,2.29-5,5s2.29,5,5,5v-2c-1.6,0-3-1.4-3-3Z"/><path d="m15,12c0-1.63-1.37-3-3-3v6c1.63,0,3-1.37,3-3Z"/></g><path d="m12,17c-2.71,0-5-2.29-5-5s2.29-5,5-5V2h-1.38c-.66,0-1.3.27-1.77.73l-2.27,2.27h-.59c-2.21,0-4,1.79-4,4v7c0,2.21,1.79,4,4,4h6v-3Z"/><path d="m15,12c0,1.63-1.37,3-3,3v2c2.71,0,5-2.29,5-5s-2.29-5-5-5v2c1.63,0,3,1.37,3,3Z"/><path d="m9,12c0,1.6,1.4,3,3,3v-6c-1.6,0-3,1.4-3,3Z"/></svg>