<svg xmlns="http://www.w3.org/2000/svg" width="24" height="24" viewBox="0 0 24 24"><g opacity="0.4"><path d="m17.11,3.42l-.38.38c-.07.07-.17.11-.27.11s-.19-.04-.27-.11c-.15-.15-.15-.38,0-.53l.22-.22c-1.34-.66-2.83-1.05-4.42-1.05C6.49,2,2,6.49,2,12c0,1.59.38,3.09,1.05,4.42l.22-.22c.15-.15.38-.15.53,0,.15.15.15.38,0,.53l-.38.38c.3.5.63.97,1.01,1.4l14.08-14.08c-.44-.38-.91-.71-1.4-1.01ZM6.59,13.94l-1.05,1.05c-.07.07-.17.11-.27.11s-.19-.04-.26-.11c-.15-.15-.15-.38,0-.53l1.05-1.05c.15-.15.38-.15.53,0s.15.38,0,.53Zm2.8-2.8l-1.05,1.05c-.07.07-.17.11-.27.11s-.19-.04-.27-.11c-.15-.15-.15-.38,0-.53l1.05-1.05c.15-.15.38-.15.53,0,.15.15.15.38,0,.53Zm2.8-2.8l-1.05,1.05c-.07.07-.17.11-.27.11s-.19-.04-.26-.11c-.15-.15-.15-.38,0-.53l1.05-1.05c.15-.15.38-.15.53,0s.15.38,0,.53Zm2.8-2.8l-1.05,1.05c-.07.07-.17.11-.27.11s-.19-.04-.26-.11c-.15-.15-.15-.38,0-.53l1.05-1.05c.15-.15.38-.15.53,0s.15.38,0,.53Z"/><path d="m20.74,7.8c-.07.07-.17.11-.27.11s-.19-.04-.27-.11c-.15-.15-.15-.38,0-.53l.38-.38c-.3-.5-.63-.97-1.01-1.4l-14.08,14.08c.44.38.91.71,1.4,1.01l.38-.38c.15-.15.38-.15.53,0,.15.15.15.38,0,.53l-.22.22c1.34.66,2.83,1.05,4.42,1.05,5.51,0,10-4.49,10-10,0-1.59-.38-3.09-1.05-4.42l-.22.22Zm-10.14,10.14l-1.05,1.05c-.07.07-.17.11-.27.11s-.19-.04-.26-.11c-.15-.15-.15-.38,0-.53l1.05-1.05c.15-.15.38-.15.53,0s.15.38,0,.53Zm2.8-2.8l-1.05,1.05c-.07.07-.17.11-.27.11s-.19-.04-.27-.11c-.15-.15-.15-.38,0-.53l1.05-1.05c.15-.15.38-.15.53,0,.15.15.15.38,0,.53Zm2.8-2.8l-1.05,1.05c-.07.07-.17.11-.27.11s-.19-.04-.26-.11c-.15-.15-.15-.38,0-.53l1.05-1.05c.15-.15.38-.15.53,0s.15.38,0,.53Zm2.8-2.8l-1.05,1.05c-.07.07-.17.11-.27.11s-.19-.04-.26-.11c-.15-.15-.15-.38,0-.53l1.05-1.05c.15-.15.38-.15.53,0s.15.38,0,.53Z"/></g><path d="m13.67,6.7c.1,0,.19-.04.27-.11l1.05-1.05c.15-.15.15-.38,0-.53s-.38-.15-.53,0l-1.05,1.05c-.15.15-.15.38,0,.53.07.07.17.11.26.11Z"/><path d="m16.47,3.91c.1,0,.19-.04.27-.11l.38-.38c-.22-.13-.45-.26-.69-.38l-.22.22c-.15.15-.15.38,0,.53.07.07.17.11.27.11Z"/><path d="m15.66,11.81l-1.05,1.05c-.15.15-.15.38,0,.53.07.07.17.11.26.11s.19-.04.27-.11l1.05-1.05c.15-.15.15-.38,0-.53s-.38-.15-.53,0Z"/><path d="m12.86,14.61l-1.05,1.05c-.15.15-.15.38,0,.53.07.07.17.11.27.11s.19-.04.27-.11l1.05-1.05c.15-.15.15-.38,0-.53-.15-.15-.38-.15-.53,0Z"/><path d="m18.46,9.01l-1.05,1.05c-.15.15-.15.38,0,.53.07.07.17.11.26.11s.19-.04.27-.11l1.05-1.05c.15-.15.15-.38,0-.53s-.38-.15-.53,0Z"/><path d="m20.47,7.91c.1,0,.19-.04.27-.11l.22-.22c-.12-.23-.27-.44-.4-.66l-.35.35c-.15.15-.15.38,0,.53.07.07.17.11.27.11Z"/><path d="m19.56,5.5c-.33-.38-.67-.74-1.05-1.07l-14.07,14.07c.33.38.67.74,1.05,1.07l14.07-14.07Z"/><path d="m10.06,17.41l-1.05,1.05c-.15.15-.15.38,0,.53.07.07.17.11.26.11s.19-.04.27-.11l1.05-1.05c.15-.15.15-.38,0-.53s-.38-.15-.53,0Z"/><path d="m7.26,20.2l-.38.38c.22.13.46.25.69.37l.22-.22c.15-.15.15-.38,0-.53-.15-.15-.38-.15-.53,0Z"/><path d="m8.08,12.3c.1,0,.19-.04.27-.11l1.05-1.05c.15-.15.15-.38,0-.53-.15-.15-.38-.15-.53,0l-1.05,1.05c-.15.15-.15.38,0,.53.07.07.17.11.27.11Z"/><path d="m5.28,15.1c.1,0,.19-.04.27-.11l1.05-1.05c.15-.15.15-.38,0-.53s-.38-.15-.53,0l-1.05,1.05c-.15.15-.15.38,0,.53.07.07.17.11.26.11Z"/><path d="m3.8,16.73c.15-.15.15-.38,0-.53-.15-.15-.38-.15-.53,0l-.21.21c.12.23.24.46.38.68l.36-.36Z"/><path d="m10.88,9.5c.1,0,.19-.04.27-.11l1.05-1.05c.15-.15.15-.38,0-.53s-.38-.15-.53,0l-1.05,1.05c-.15.15-.15.38,0,.53.07.07.17.11.26.11Z"/></svg>