<svg xmlns="http://www.w3.org/2000/svg" width="24" height="24" viewBox="0 0 24 24"><g opacity="0.4"><path d="m13.28,17c.64-.64.67-1.19.7-2.02.04-.96.09-2.16,1.28-3.36,1.2-1.2,2.39-1.24,3.36-1.28.73-.03,1.24-.05,1.79-.49-.04-.05-.08-.09-.12-.14-1.63-1.63-4.16-2.14-6.6-1.33-1.21.39-2.35,1.09-3.3,2.04-1.53,1.53-2.41,3.55-2.42,5.55,0,.9.17,1.76.5,2.54,1-.73,1.98-.78,2.8-.81.83-.03,1.38-.06,2.02-.7Z"/><path d="m18.7,12.34c-.83.03-1.38.05-2.02.7-.64.64-.67,1.19-.7,2.02-.04.96-.09,2.16-1.28,3.36s-2.39,1.24-3.36,1.28c-.73.03-1.24.05-1.79.49.04.05.08.09.12.14,1.15,1.15,2.69,1.71,4.3,1.71,1.95,0,4-.82,5.6-2.42,2.31-2.31,2.98-5.57,1.92-8.09-1,.73-1.98.78-2.8.81Z"/></g><path d="m7.77,10.18c-.63-.69-1.42-1.54-1.42-3.18s.79-2.49,1.42-3.18c.53-.58.89-.96.89-1.81-.05,0-.1,0-.15,0-3.58,0-6.5,3.36-6.5,7.5,0,3.27,1.83,6.06,4.37,7.08.12-1.37.82-2.13,1.39-2.76.54-.58.89-.96.89-1.82s-.35-1.24-.89-1.82Z"/><path d="m9.23,8.82c.39.43.85.92,1.13,1.62,0,0,.01-.01.02-.02.95-.95,2.09-1.66,3.3-2.04.4-.13.8-.22,1.2-.28-.43-2.68-2.07-4.83-4.25-5.69-.12,1.37-.82,2.14-1.4,2.77-.54.58-.89.96-.89,1.82s.35,1.24.89,1.82Z"/><path d="m13.28,17c-.64.64-1.19.67-2.02.7-.81.03-1.79.08-2.8.81.26.62.63,1.18,1.09,1.68.55-.44,1.06-.46,1.79-.49.96-.04,2.16-.09,3.36-1.28s1.25-2.39,1.28-3.36c.03-.83.06-1.38.7-2.02.64-.64,1.19-.67,2.02-.7.81-.03,1.79-.08,2.8-.81-.26-.61-.62-1.18-1.09-1.68-.55.44-1.06.46-1.79.49-.96.04-2.16.09-3.36,1.28-1.2,1.2-1.25,2.39-1.28,3.36-.03.83-.06,1.38-.7,2.02Z"/></svg>