<svg xmlns="http://www.w3.org/2000/svg" width="24" height="24" viewBox="0 0 24 24"><g opacity="0.4"><path d="m14.44,8.73c-.4.56-.99.97-1.67,1.15l2.53,5.48s.06-.02.09-.03c.6-.24,1.16-.55,1.68-.91l-2.63-5.7Z"/><path d="m17.92,16.27c-.56.36-1.15.67-1.78.93l1.95,4.23c.17.37.53.58.91.58.14,0,.28-.03.42-.09.5-.23.72-.83.49-1.33l-1.99-4.31Z"/></g><path d="m18.36,13.36c-.86.86-1.86,1.52-2.98,1.98-2.13.86-4.55.87-6.69.03l2.53-5.48c.25.07.5.11.77.11,1.65,0,3-1.35,3-3,0-1.3-.84-2.4-2-2.82v-1.18c0-.55-.45-1-1-1s-1,.45-1,1v1.18c-1.16.41-2,1.51-2,2.82,0,.65.21,1.24.56,1.73l-2.63,5.7c-.46-.31-.89-.67-1.29-1.07-.39-.39-1.02-.39-1.41,0s-.39,1.02,0,1.41c.57.57,1.19,1.06,1.86,1.49l-1.99,4.31c-.23.5-.01,1.1.49,1.33.14.06.28.09.42.09.38,0,.74-.21.91-.58l1.95-4.23s0,0,0,0c1.32.53,2.71.81,4.14.81s2.82-.27,4.14-.81c1.37-.55,2.59-1.37,3.64-2.42.39-.39.39-1.02,0-1.41s-1.02-.39-1.41,0Z"/></svg>