<svg xmlns="http://www.w3.org/2000/svg" width="24" height="24" viewBox="0 0 24 24"><g opacity="0.4"><path d="m19.67,4H6.17l1.38,9h9.94c1.33,0,2.52-.9,2.88-2.18l1.22-4.27c.17-.61.05-1.25-.33-1.75-.38-.51-.96-.8-1.6-.8Z"/></g><path d="M8 18A2 2 0 1 0 8 22 2 2 0 1 0 8 18z"/><path d="M17 18A2 2 0 1 0 17 22 2 2 0 1 0 17 18z"/><path d="m8.72,17h9.28c.55,0,1-.45,1-1s-.45-1-1-1h-9.28c-.5,0-.91-.36-.99-.85l-1.61-10.46c-.15-.98-.98-1.7-1.98-1.7h-1.14c-.55,0-1,.45-1,1s.45,1,1,1h1.14l1.61,10.46c.23,1.47,1.47,2.54,2.96,2.54Z"/></svg>