<svg xmlns="http://www.w3.org/2000/svg" width="24" height="24" viewBox="0 0 24 24"><g opacity="0.4"><path d="m3,18c0,2.21,1.79,4,4,4h10c2.21,0,4-1.79,4-4v-10H3v10Zm5.63-4.45l1.74-.15c.1,0,.19-.07.23-.16l.88-1.78c.21-.43.82-.43,1.03,0l.88,1.78c.04.09.13.15.23.16l1.74.15c.49.04.7.63.36.98l-1.44,1.44c-.08.08-.1.19-.07.29l.56,1.81c.16.52-.42.95-.87.65l-1.74-1.16c-.1-.06-.22-.06-.32,0l-1.74,1.16c-.45.3-1.03-.13-.87-.65l.56-1.81c.03-.1,0-.21-.07-.29l-1.44-1.44c-.35-.35-.13-.94.36-.98Z"/></g><path d="m17,4v-1c0-.55-.45-1-1-1s-1,.45-1,1v1h-6v-1c0-.55-.45-1-1-1s-1,.45-1,1v1c-2.21,0-4,1.79-4,4h18c0-2.21-1.79-4-4-4Z"/><path d="m15.73,14.52c.35-.35.13-.94-.36-.98l-1.74-.15c-.1,0-.19-.07-.23-.16l-.88-1.78c-.21-.43-.82-.43-1.03,0l-.88,1.78c-.04.09-.13.15-.23.16l-1.74.15c-.49.04-.7.63-.36.98l1.44,1.44c.08.08.1.19.07.29l-.56,1.81c-.16.52.42.95.87.65l1.74-1.16c.1-.06.22-.06.32,0l1.74,1.16c.45.3,1.03-.13.87-.65l-.56-1.81c-.03-.1,0-.21.07-.29l1.44-1.44Z"/></svg>