<svg xmlns="http://www.w3.org/2000/svg" width="24" height="24" viewBox="0 0 24 24"><g opacity="0.4"><path d="m17,2H7c-2.21,0-4,1.79-4,4v5h18v-5c0-2.21-1.79-4-4-4Zm-1,5c0,.55-.45,1-1,1h-6c-.55,0-1-.45-1-1v-1c0-.55.45-1,1-1s1,.45,1,1h4c0-.55.45-1,1-1s1,.45,1,1v1Z"/><path d="m3,18c0,2.21,1.79,4,4,4h10c2.21,0,4-1.79,4-4v-5H3v5Zm5-1c0-.55.45-1,1-1s1,.45,1,1h4c0-.55.45-1,1-1s1,.45,1,1v1c0,.55-.45,1-1,1h-6c-.55,0-1-.45-1-1v-1Z"/></g><path d="m9,8h6c.55,0,1-.45,1-1v-1c0-.55-.45-1-1-1s-1,.45-1,1h-4c0-.55-.45-1-1-1s-1,.45-1,1v1c0,.55.45,1,1,1Z"/><path d="m15,19c.55,0,1-.45,1-1v-1c0-.55-.45-1-1-1s-1,.45-1,1h-4c0-.55-.45-1-1-1s-1,.45-1,1v1c0,.55.45,1,1,1h6Z"/><path d="M3 11H21V13H3z"/></svg>