<svg xmlns="http://www.w3.org/2000/svg" width="24" height="24" viewBox="0 0 24 24"><g opacity="0.4"><path d="m19.5,8h-11c-1.38,0-2.5,1.12-2.5,2.5v7c0,1.38,1.12,2.5,2.5,2.5h11c1.38,0,2.5-1.12,2.5-2.5v-7c0-1.38-1.12-2.5-2.5-2.5Zm.5,8c-1.1,0-2,.9-2,2h-8c0-1.1-.9-2-2-2v-4c1.1,0,2-.9,2-2h8c0,1.1.9,2,2,2v4Z"/><path d="M14 12A2 2 0 1 0 14 16 2 2 0 1 0 14 12z"/></g><path d="m18,5c0-.55-.45-1-1-1H4.5c-1.38,0-2.5,1.12-2.5,2.5v8.5c0,.55.45,1,1,1s1-.45,1-1V6.5c0-.28.22-.5.5-.5h12.5c.55,0,1-.45,1-1Z"/></svg>