<svg xmlns="http://www.w3.org/2000/svg" width="24" height="24" viewBox="0 0 24 24"><g opacity="0.4"><path d="m12,4c.6,0,1.19.07,1.77.2.07.02.15.02.22.02.46,0,.87-.32.97-.78.12-.54-.22-1.07-.76-1.19-.72-.16-1.46-.24-2.21-.24C6.49,2,2,6.49,2,12s4.49,10,10,10c.74,0,1.48-.08,2.21-.24.54-.12.88-.66.76-1.19-.12-.54-.66-.88-1.19-.76-.58.13-1.17.2-1.77.2-4.41,0-8-3.59-8-8S7.59,4,12,4Z"/></g><path d="m18.7,7.63c.19.29.51.45.84.45.19,0,.38-.05.55-.16.46-.3.59-.92.29-1.38-.71-1.08-1.6-2.01-2.67-2.75-.45-.32-1.08-.2-1.39.25s-.2,1.08.25,1.39c.85.59,1.57,1.33,2.13,2.2Z"/><path d="m20.09,16.07c-.46-.3-1.08-.17-1.38.29-.57.87-1.28,1.61-2.13,2.2-.45.32-.56.94-.25,1.39.19.28.51.43.82.43.2,0,.4-.06.57-.18,1.06-.74,1.96-1.66,2.66-2.75.3-.46.17-1.08-.29-1.38Z"/><path d="m20.64,9.29c-.54.1-.9.63-.79,1.17.1.5.15,1.02.15,1.54s-.05,1.03-.15,1.53c-.1.54.25,1.07.79,1.17.06.01.13.02.19.02.47,0,.89-.33.98-.81.12-.62.18-1.27.18-1.91s-.06-1.29-.18-1.92c-.1-.54-.63-.9-1.17-.79Z"/></svg>