<svg xmlns="http://www.w3.org/2000/svg" width="24" height="24" viewBox="0 0 24 24"><g opacity="0.4"><path d="m21,20H4.5c-.28,0-.5-.22-.5-.5V3c0-.55-.45-1-1-1s-1,.45-1,1v16.5c0,1.38,1.12,2.5,2.5,2.5h16.5c.55,0,1-.45,1-1s-.45-1-1-1Z"/></g><path d="m7,13c.55,0,1-.45,1-1v-5c0-.55-.45-1-1-1s-1,.45-1,1v5c0,.55.45,1,1,1Z"/><path d="m11,9c.55,0,1-.45,1-1v-4c0-.55-.45-1-1-1s-1,.45-1,1v4c0,.55.45,1,1,1Z"/><path d="m15,9c.55,0,1-.45,1-1v-1c0-.55-.45-1-1-1s-1,.45-1,1v1c0,.55.45,1,1,1Z"/><path d="m19,18c.55,0,1-.45,1-1V7c0-.55-.45-1-1-1s-1,.45-1,1v10c0,.55.45,1,1,1Z"/></svg>