<svg xmlns="http://www.w3.org/2000/svg" width="24" height="24" viewBox="0 0 24 24"><g opacity="0.4"><path d="m2,11.22v7.09c0,1.38,1.12,2.5,2.5,2.5h15c1.38,0,2.5-1.12,2.5-2.5v-8.31H2.32c-.2.37-.32.78-.32,1.22Zm15,2.59c1.1,0,2,.9,2,2s-.9,2-2,2-2-.9-2-2,.9-2,2-2Zm-5.5-2c.83,0,1.5.67,1.5,1.5s-.67,1.5-1.5,1.5-1.5-.67-1.5-1.5.67-1.5,1.5-1.5Zm-5,3c.83,0,1.5.67,1.5,1.5s-.67,1.5-1.5,1.5-1.5-.67-1.5-1.5.67-1.5,1.5-1.5Z"/></g><path d="M11.5 11.81A1.5 1.5 0 1 0 11.5 14.81 1.5 1.5 0 1 0 11.5 11.81z"/><path d="M6.5 14.809999999999999A1.5 1.5 0 1 0 6.5 17.81 1.5 1.5 0 1 0 6.5 14.809999999999999z"/><path d="M17 13.81A2 2 0 1 0 17 17.810000000000002 2 2 0 1 0 17 13.81z"/><path d="m16.38,2.13c-.7-.24-1.47-.15-2.11.23L3.2,9.08c-.38.23-.68.55-.89.92h19.68v-.19c0-4.59-3.21-6.85-5.62-7.67Z"/></svg>