<svg xmlns="http://www.w3.org/2000/svg" width="24" height="24" viewBox="0 0 24 24"><g opacity="0.4"><path d="m19,2H5c-1.1,0-2,.9-2,2v16c0,1.1.9,2,2,2h14c1.1,0,2-.9,2-2V4c0-1.1-.9-2-2-2ZM6,19c-.55,0-1-.45-1-1s.45-1,1-1,1,.45,1,1-.45,1-1,1Zm13-.5c0,.28-.22.5-.5.5h-2c-.28,0-.5-.22-.5-.5h-3.5c-.28,0-.5-.22-.5-.5s.22-.5.5-.5h3.5c0-.28.22-.5.5-.5h2c.28,0,.5.22.5.5v1Zm0-4.5H5V4h14v10Z"/></g><path d="m18.5,17h-2c-.28,0-.5.22-.5.5h-3.5c-.28,0-.5.22-.5.5s.22.5.5.5h3.5c0,.28.22.5.5.5h2c.28,0,.5-.22.5-.5v-1c0-.28-.22-.5-.5-.5Z"/><path d="M6 17A1 1 0 1 0 6 19 1 1 0 1 0 6 17z"/></svg>