<svg xmlns="http://www.w3.org/2000/svg" width="24" height="24" viewBox="0 0 24 24"><g opacity="0.4"><path d="m12,2C6.49,2,2,6.49,2,12s4.49,10,10,10c5.51,0,10-4.49,10-10S17.51,2,12,2Zm3.71,11.71c-.2.2-.45.29-.71.29s-.51-.1-.71-.29l-2.29-2.29-2.29,2.29c-.39.39-1.02.39-1.41,0s-.39-1.02,0-1.41l3-3c.39-.39,1.02-.39,1.41,0l3,3c.39.39.39,1.02,0,1.41Z"/></g><path d="m9.71,13.71l2.29-2.29,2.29,2.29c.2.2.45.29.71.29s.51-.1.71-.29c.39-.39.39-1.02,0-1.41l-3-3c-.39-.39-1.02-.39-1.41,0l-3,3c-.39.39-.39,1.02,0,1.41s1.02.39,1.41,0Z"/></svg>