<svg xmlns="http://www.w3.org/2000/svg" width="24" height="24" viewBox="0 0 24 24"><g opacity="0.4"><path d="m21,15h-10c-.55,0-1,.45-1,1s.45,1,1,1h10c.55,0,1-.45,1-1s-.45-1-1-1Z"/><path d="m21,8h-10c-.55,0-1,.45-1,1s.45,1,1,1h10c.55,0,1-.45,1-1s-.45-1-1-1Z"/></g><path d="m6.29,5.79l-2.29,2.29-.29-.29c-.39-.39-1.02-.39-1.41,0s-.39,1.02,0,1.41l1,1c.2.2.45.29.71.29s.51-.1.71-.29l3-3c.39-.39.39-1.02,0-1.41s-1.02-.39-1.41,0Z"/><path d="m6.29,13.79l-2.29,2.29-.29-.29c-.39-.39-1.02-.39-1.41,0s-.39,1.02,0,1.41l1,1c.2.2.45.29.71.29s.51-.1.71-.29l3-3c.39-.39.39-1.02,0-1.41s-1.02-.39-1.41,0Z"/></svg>