<svg xmlns="http://www.w3.org/2000/svg" width="24" height="24" viewBox="0 0 24 24"><g opacity="0.4"><path d="m19,2h-8c-1.65,0-3,1.35-3,3v8c0,1.65,1.35,3,3,3h8c1.65,0,3-1.35,3-3V5c0-1.65-1.35-3-3-3Zm0,5.41l-1,1-3.29,3.29c-.2.2-.45.29-.71.29s-.51-.1-.71-.29l-1.29-1.29-1-1c-.39-.39-.39-1.02,0-1.41.39-.39,1.02-.39,1.41,0l1,1,.59.59,2.59-2.59,1-1c.39-.39,1.02-.39,1.41,0,.39.39.39,1.02,0,1.41Z"/></g><path d="m5,22h8c1.65,0,3-1.35,3-3v-3h-5c-1.65,0-3-1.35-3-3v-5h-3c-1.65,0-3,1.35-3,3v8c0,1.65,1.35,3,3,3Z"/><path d="m12,10.41l1.29,1.29c.2.2.45.29.71.29s.51-.1.71-.29l3.29-3.29,1-1c.39-.39.39-1.02,0-1.41-.39-.39-1.02-.39-1.41,0l-1,1-2.59,2.59-.59-.59-1-1c-.39-.39-1.02-.39-1.41,0-.39.39-.39,1.02,0,1.41l1,1Z"/></svg>