<svg xmlns="http://www.w3.org/2000/svg" width="24" height="24" viewBox="0 0 24 24"><g opacity="0.4"><path d="m16,4h-8c-2.21,0-4,1.79-4,4v8c0,2.21,1.79,4,4,4h8c2.21,0,4-1.79,4-4v-8c0-2.21-1.79-4-4-4Zm-1,9.5c0,.83-.67,1.5-1.5,1.5h-3c-.83,0-1.5-.67-1.5-1.5v-3c0-.83.67-1.5,1.5-1.5h3c.83,0,1.5.67,1.5,1.5v3Z"/></g><rect x="9" y="9" width="6" height="6" rx="1.5" ry="1.5"/><path d="m9,2c-.55,0-1,.45-1,1v1h2v-1c0-.55-.45-1-1-1Z"/><path d="m3,10h1v-2h-1c-.55,0-1,.45-1,1s.45,1,1,1Z"/><path d="m4,14h-1c-.55,0-1,.45-1,1s.45,1,1,1h1v-2Z"/><path d="m8,21c0,.55.45,1,1,1s1-.45,1-1v-1h-2v1Z"/><path d="m14,21c0,.55.45,1,1,1s1-.45,1-1v-1h-2v1Z"/><path d="m21,14h-1v2h1c.55,0,1-.45,1-1s-.45-1-1-1Z"/><path d="m21,8h-1v2h1c.55,0,1-.45,1-1s-.45-1-1-1Z"/><path d="m16,3c0-.55-.45-1-1-1s-1,.45-1,1v1h2v-1Z"/></svg>