<svg xmlns="http://www.w3.org/2000/svg" width="24" height="24" viewBox="0 0 24 24"><g opacity="0.4"><path d="m21,20H4.5c-.28,0-.5-.22-.5-.5V3c0-.55-.45-1-1-1s-1,.45-1,1v16.5c0,1.38,1.12,2.5,2.5,2.5h16.5c.55,0,1-.45,1-1s-.45-1-1-1Z"/><path d="m10,12c-.55,0-1,.45-1,1s.45,1,1,1h4c.55,0,1-.45,1-1s-.45-1-1-1h-4Z"/><path d="m19,5c0-.55-.45-1-1-1h-6c-.55,0-1,.45-1,1s.45,1,1,1h6c.55,0,1-.45,1-1Z"/></g><path d="m7,10h4c.55,0,1-.45,1-1s-.45-1-1-1h-4c-.55,0-1,.45-1,1s.45,1,1,1Z"/><path d="m14,18h4c.55,0,1-.45,1-1s-.45-1-1-1h-4c-.55,0-1,.45-1,1s.45,1,1,1Z"/></svg>