<svg xmlns="http://www.w3.org/2000/svg" width="24" height="24" viewBox="0 0 24 24"><g opacity="0.4"><path d="m8.14,6.99c-.66.36-1.26.81-1.8,1.35-.73.73-1.31,1.59-1.71,2.54-.42.99-.63,2.04-.63,3.11h2c0-.81.16-1.6.47-2.33.3-.71.74-1.36,1.29-1.91.15-.15.33-.27.49-.41-.15-.42-.25-.87-.25-1.35,0-.35.06-.68.14-1.01Z"/><path d="m17.66,8.34c-.54-.54-1.14-.99-1.8-1.35.09.32.14.66.14,1.01,0,.48-.1.93-.25,1.35.17.13.34.25.49.41.55.55.98,1.19,1.29,1.91.31.74.47,1.53.47,2.34h2c0-1.08-.21-2.13-.63-3.11-.4-.95-.98-1.81-1.71-2.54Z"/></g><rect x="16" y="14" width="6" height="6" rx="2" ry="2"/><rect x="2" y="14" width="6" height="6" rx="2" ry="2"/><path d="m12,4c-2.21,0-4,1.79-4,4s1.79,4,4,4,4-1.79,4-4-1.79-4-4-4Zm0,6c-1.1,0-2-.9-2-2s.9-2,2-2,2,.9,2,2-.9,2-2,2Z"/></svg>