<svg xmlns="http://www.w3.org/2000/svg" width="24" height="24" viewBox="0 0 24 24"><g opacity="0.4"><path d="m6,15h3v1h6v-1h3c1.65,0,3-1.35,3-3v-7c0-1.65-1.35-3-3-3H6c-1.65,0-3,1.35-3,3v7c0,1.65,1.35,3,3,3Zm-1-10c0-.55.45-1,1-1h12c.55,0,1,.45,1,1v7c0,.55-.45,1-1,1H6c-.55,0-1-.45-1-1v-7Z"/><path d="m14,20c.55,0,1-.45,1-1s-.45-1-1-1H6c-.55,0-1,.45-1,1s.45,1,1,1h8Z"/><path d="M18 18A1 1 0 1 0 18 20 1 1 0 1 0 18 18z"/></g><path class="st0" d="M20,16H4c-1.1,0-2,0.9-2,2v2c0,1.1,0.9,2,2,2h16c1.1,0,2-0.9,2-2v-2C22,16.9,21.1,16,20,16z M14,20H6
	c-0.6,0-1-0.5-1-1s0.4-1,1-1h8c0.6,0,1,0.5,1,1S14.6,20,14,20z M18,20c-0.5,0-1-0.5-1-1s0.5-1,1-1s1,0.5,1,1S18.5,20,18,20z"/></svg>