<svg xmlns="http://www.w3.org/2000/svg" width="24" height="24" viewBox="0 0 24 24"><g opacity="0.4"><path d="m17,3h-.09c.06.16.09.32.09.5v2.5c0,.55-.45,1-1,1h-8c-.55,0-1-.45-1-1v-2.5c0-.18.04-.34.09-.5h-.09c-2.21,0-4,1.79-4,4v11c0,2.21,1.79,4,4,4h10c2.21,0,4-1.79,4-4V7c0-2.21-1.79-4-4-4Zm-2,13h-6c-.55,0-1-.45-1-1s.45-1,1-1h6c.55,0,1,.45,1,1s-.45,1-1,1Z"/></g><path d="m8,7h8c.55,0,1-.45,1-1v-2.5c0-.83-.67-1.5-1.5-1.5h-7c-.83,0-1.5.67-1.5,1.5v2.5c0,.55.45,1,1,1Z"/><path d="m9,14c-.55,0-1,.45-1,1s.45,1,1,1h6c.55,0,1-.45,1-1s-.45-1-1-1h-6Z"/></svg>