<svg xmlns="http://www.w3.org/2000/svg" width="24" height="24" viewBox="0 0 24 24"><g opacity="0.4"><path d="m17.27,11l-4.27-2.56v-2.43h1c.55,0,1-.45,1-1s-.45-1-1-1h-1v-1c0-.55-.45-1-1-1s-1,.45-1,1v1h-1c-.55,0-1,.45-1,1s.45,1,1,1h1v2.43l-4.27,2.56c-.45.27-.73.76-.73,1.29v9.72h4v-4c0-1.1.9-2,2-2s2,.9,2,2v4h4v-9.72c0-.53-.28-1.02-.73-1.29Zm-5.27,3c-.83,0-1.5-.67-1.5-1.5s.67-1.5,1.5-1.5,1.5.67,1.5,1.5-.67,1.5-1.5,1.5Z"/></g><path d="m6,12.88l-3.03,1.14c-.59.22-.97.78-.97,1.4v5.08c0,.83.67,1.5,1.5,1.5h2.5v-9.12Z"/><path d="m21.03,14.02l-3.03-1.14v9.12h2.5c.83,0,1.5-.67,1.5-1.5v-5.08c0-.63-.39-1.18-.97-1.4Z"/><path d="M12 11A1.5 1.5 0 1 0 12 14 1.5 1.5 0 1 0 12 11z"/><path d="m14,18c0-1.1-.9-2-2-2s-2,.9-2,2v4h4v-4Z"/></svg>