<svg xmlns="http://www.w3.org/2000/svg" width="24" height="24" viewBox="0 0 24 24"><g opacity="0.4"><path d="m12,2C6.49,2,2,6.49,2,12s4.49,10,10,10,10-4.49,10-10S17.51,2,12,2Zm5.2,13c-.19.32-.52.5-.87.5-.17,0-.34-.04-.5-.13l-4.33-2.5s-.06-.06-.09-.08c-.06-.04-.11-.08-.15-.14-.04-.05-.07-.1-.11-.16-.03-.05-.06-.11-.08-.17-.02-.07-.03-.13-.04-.2,0-.04-.02-.08-.02-.12v-5c0-.55.45-1,1-1s1,.45,1,1v4.42l3.83,2.21c.48.28.64.89.37,1.37Z"/></g><path d="m11.07,12.32c.02.06.05.11.08.17.03.06.06.11.11.16.05.05.1.09.15.14.03.03.06.06.09.08l4.33,2.5c.16.09.33.13.5.13.35,0,.68-.18.87-.5.28-.48.11-1.09-.37-1.37l-3.83-2.21v-4.42c0-.55-.45-1-1-1s-1,.45-1,1v5s.02.08.02.12c0,.07.02.14.04.2Z"/></svg>