<svg xmlns="http://www.w3.org/2000/svg" width="24" height="24" viewBox="0 0 24 24"><g opacity="0.4"><path d="m19,2h-8c-1.65,0-3,1.35-3,3v8c0,1.65,1.35,3,3,3h8c1.65,0,3-1.35,3-3V5c0-1.65-1.35-3-3-3Zm-1.17,8.41l.88.88-1.41,1.41-.88-.88-1.41-1.41-1.41,1.41-.88.88-1.41-1.41.88-.88,1.41-1.41-1.41-1.41-.88-.88,1.41-1.41.88.88,1.41,1.41,1.41-1.41.88-.88,1.41,1.41-.88.88-1.41,1.41,1.41,1.41Z"/></g><path d="m5,22h8c1.65,0,3-1.35,3-3v-3h-5c-1.65,0-3-1.35-3-3v-5h-3c-1.65,0-3,1.35-3,3v8c0,1.65,1.35,3,3,3Z"/><path d="M11.29 11.29 12.71 12.71 13.59 11.83 15 10.41 16.41 11.83 17.29 12.71 18.71 11.29 17.83 10.41 16.41 9 17.83 7.59 18.71 6.71 17.29 5.29 16.41 6.17 15 7.59 13.59 6.17 12.71 5.29 11.29 6.71 12.17 7.59 13.59 9 12.17 10.41 11.29 11.29z"/></svg>