<svg xmlns="http://www.w3.org/2000/svg" width="24" height="24" viewBox="0 0 24 24"><g opacity="0.4"><path d="m11.41,11.77c0-3.43,2.59-6.25,6.03-6.56l2.9-.26c-.19-.24-.39-.47-.61-.69-3.49-3.49-9.8-2.86-14.06,1.41-2.04,2.04-3.32,4.6-3.61,7.21-.17,1.53.02,2.96.52,4.24l4.97-.82c2.24-.37,3.87-2.27,3.87-4.52Z"/><path d="m17.62,7.21c-2.4.22-4.21,2.18-4.21,4.57,0,3.23-2.33,5.97-5.54,6.5l-4.26.7c.2.26.42.52.66.76,1.48,1.48,3.49,2.27,5.74,2.27.37,0,.74-.02,1.11-.06,2.61-.29,5.18-1.57,7.21-3.61s3.32-4.6,3.61-7.21c.17-1.53-.02-2.97-.52-4.25l-3.79.34Z"/></g><path d="m7.87,18.27c3.21-.53,5.54-3.26,5.54-6.5,0-2.39,1.81-4.35,4.21-4.57l3.79-.34c-.27-.69-.62-1.33-1.07-1.91l-2.9.26c-3.44.31-6.03,3.13-6.03,6.56,0,2.25-1.63,4.15-3.87,4.52l-4.97.82c.26.67.61,1.29,1.04,1.86l4.26-.7Z"/></svg>