<svg xmlns="http://www.w3.org/2000/svg" width="24" height="24" viewBox="0 0 24 24"><g opacity="0.4"><path d="m16,2h-8c-2.21,0-4,1.79-4,4v8c0,2.21,1.79,4,4,4h8c2.21,0,4-1.79,4-4V6c0-2.21-1.79-4-4-4Zm-4,12c-2.21,0-4-1.79-4-4s1.79-4,4-4,4,1.79,4,4-1.79,4-4,4Z"/><path d="M12 8A2 2 0 1 0 12 12 2 2 0 1 0 12 8z"/></g><path d="m8,22h8c.55,0,1-.45,1-1s-.45-1-1-1h-3v-2h-2v2h-3c-.55,0-1,.45-1,1s.45,1,1,1Z"/><path d="m12,14c2.21,0,4-1.79,4-4s-1.79-4-4-4-4,1.79-4,4,1.79,4,4,4Zm0-6c1.1,0,2,.9,2,2s-.9,2-2,2-2-.9-2-2,.9-2,2-2Z"/></svg>