<svg xmlns="http://www.w3.org/2000/svg" width="24" height="24" viewBox="0 0 24 24"><g opacity="0.4"><path d="m3,18c0,2.21,1.79,4,4,4h10c2.21,0,4-1.79,4-4v-10H3v10Zm6-4.5h1.5v-1.5c0-.83.67-1.5,1.5-1.5s1.5.67,1.5,1.5v1.5h1.5c.83,0,1.5.67,1.5,1.5s-.67,1.5-1.5,1.5h-1.5v1.5c0,.83-.67,1.5-1.5,1.5s-1.5-.67-1.5-1.5v-1.5h-1.5c-.83,0-1.5-.67-1.5-1.5s.67-1.5,1.5-1.5Z"/></g><path d="m17,4v-1c0-.55-.45-1-1-1s-1,.45-1,1v1h-6v-1c0-.55-.45-1-1-1s-1,.45-1,1v1c-2.21,0-4,1.79-4,4h18c0-2.21-1.79-4-4-4Z"/><path d="m12,10.5c-.83,0-1.5.67-1.5,1.5v1.5h-1.5c-.83,0-1.5.67-1.5,1.5s.67,1.5,1.5,1.5h1.5v1.5c0,.83.67,1.5,1.5,1.5s1.5-.67,1.5-1.5v-1.5h1.5c.83,0,1.5-.67,1.5-1.5s-.67-1.5-1.5-1.5h-1.5v-1.5c0-.83-.67-1.5-1.5-1.5Z"/></svg>