<svg xmlns="http://www.w3.org/2000/svg" width="24" height="24" viewBox="0 0 24 24"><g opacity="0.4"><path d="M15.99 2A2 2 0 1 0 15.99 6 2 2 0 1 0 15.99 2z"/><path d="m18.99,9h-1.34c-.8,0-1.56-.32-2.12-.88l-2.12-2.12c-.78-.78-2.05-.78-2.83,0l-2.59,2.59c-.78.78-.78,2.05,0,2.83l2.12,2.12c.56.56.88,1.33.88,2.12v2.34c0,.55.45,1,1,1s1-.45,1-1v-2.34c0-1.33-.53-2.6-1.46-3.54l-1.12-1.12,2.59-2.59,1.12,1.12c.94.94,2.21,1.46,3.54,1.46h1.34c.55,0,1-.45,1-1s-.45-1-1-1Z"/></g><path d="M18 13A4 4 0 1 0 18 21 4 4 0 1 0 18 13z"/><path d="M6 13A4 4 0 1 0 6 21 4 4 0 1 0 6 13z"/></svg>