<svg xmlns="http://www.w3.org/2000/svg" width="24" height="24" viewBox="0 0 24 24"><g opacity="0.4"><path d="m8.76,12.74c-.25-.47-.73-.76-1.26-.76s-1.01.29-1.26.76l-3.74,7.06c-.25.47-.23,1.02.04,1.47.27.46.75.73,1.29.73h8.17c.35,0,.68-.18.86-.48.18-.3.19-.67.03-.98l-4.12-7.79Z"/><path d="m21.17,4.91c-2.1-.44-3.29-2.4-3.3-2.42-.18-.31-.53-.5-.87-.5-.36,0-.69.2-.87.51-.05.09-1.15,1.99-3.29,2.41-.48.09-.84.49-.84.98h0c0,.61.54,1.1,1.14,1,1.18-.21,2.13-.73,2.86-1.31v1.12c-.34.51-1.39,1.86-3.16,2.21-.48.09-.84.49-.84.98h0c0,.61.54,1.1,1.14,1,1.18-.21,2.13-.73,2.86-1.31v2.42c.69.03,1.32.4,1.66,1.01l.34.61v-4.06c.72.56,1.64,1.08,2.77,1.31.63.13,1.23-.34,1.23-.98h0c0-.49-.36-.88-.83-.98-1.72-.36-2.81-1.72-3.17-2.22v-1.13c.72.56,1.64,1.08,2.77,1.31.63.13,1.23-.34,1.23-.98h0c0-.49-.36-.88-.83-.98Z"/></g><path d="M5.5 2A3.5 3.5 0 1 0 5.5 9 3.5 3.5 0 1 0 5.5 2z"/><path d="m8.76,12.74l4.12,7.79c.16.31.15.68-.03.98-.18.3-.51.48-.86.48h8.15c.54,0,1.02-.28,1.29-.74.27-.47.28-1.02.01-1.49l-3.79-6.75c-.35-.63-1.02-1.02-1.74-1.02H7.62c.48.04.91.31,1.13.74Z"/></svg>