<svg xmlns="http://www.w3.org/2000/svg" width="24" height="24" viewBox="0 0 24 24"><g opacity="0.4"><path d="m12,10.59l-2.43-2.43c.27-.49.43-1.05.43-1.65,0-1.93-1.57-3.5-3.5-3.5s-3.5,1.57-3.5,3.5,1.57,3.5,3.5,3.5c.6,0,1.16-.17,1.65-.43l2.43,2.43,1.41-1.41Zm-7-4.09c0-.83.67-1.5,1.5-1.5s1.5.67,1.5,1.5-.67,1.5-1.5,1.5-1.5-.67-1.5-1.5Z"/><path d="m13.41,12l-1.41,1.41,6.29,6.29c.2.2.45.29.71.29s.51-.1.71-.29c.39-.39.39-1.02,0-1.41l-6.29-6.29Z"/></g><path d="m18.29,4.29l-10.14,10.14c-.49-.27-1.05-.43-1.65-.43-1.93,0-3.5,1.57-3.5,3.5s1.57,3.5,3.5,3.5,3.5-1.57,3.5-3.5c0-.6-.17-1.16-.43-1.65l10.14-10.14c.39-.39.39-1.02,0-1.41s-1.02-.39-1.41,0Zm-11.79,14.71c-.83,0-1.5-.67-1.5-1.5s.67-1.5,1.5-1.5,1.5.67,1.5,1.5-.67,1.5-1.5,1.5Z"/></svg>