<svg xmlns="http://www.w3.org/2000/svg" width="24" height="24" viewBox="0 0 24 24"><g opacity="0.4"><path d="m21.24,5.69c-.25-1.01-.56-1.82-.9-2.41-.62-1.06-1.34-1.28-1.83-1.28s-1.21.22-1.83,1.28c-.34.58-.64,1.37-.89,2.36-2.39-.83-5.16-.83-7.55,0-.25-.99-.55-1.78-.89-2.36-.62-1.06-1.34-1.28-1.83-1.28s-1.21.22-1.83,1.28c-.35.59-.65,1.4-.9,2.41-.25.98-.43,2.1-.56,3.32-.19,1.85-.2,4.07-.2,4.5,0,1.44.43,2.79,1.17,3.98l2.15-2.15c.1-.1.26-.1.35,0s.1.26,0,.35l-2.22,2.22c.31.44.67.85,1.06,1.23l2.3-2.3c.1-.1.26-.1.35,0s.1.26,0,.35l-2.29,2.29c1.81,1.56,4.33,2.53,7.11,2.53s5.3-.97,7.11-2.53l-2.29-2.29c-.1-.1-.1-.26,0-.35s.26-.1.35,0l2.3,2.3c.4-.38.75-.79,1.06-1.23l-2.22-2.22c-.1-.1-.1-.26,0-.35s.26-.1.35,0l2.15,2.15c.74-1.19,1.17-2.54,1.17-3.98,0-.43,0-2.65-.2-4.5-.13-1.22-.32-2.34-.56-3.32ZM7.5,14c-.83,0-1.5-.67-1.5-1.5s.67-1.5,1.5-1.5,1.5.67,1.5,1.5-.67,1.5-1.5,1.5Zm7.41,3.41c-.38.38-.88.59-1.41.59s-1.04-.21-1.41-.59c-.03-.03-.06-.07-.09-.1-.03.03-.05.07-.09.1-.38.38-.88.59-1.41.59s-1.04-.21-1.41-.59c-.2-.2-.2-.51,0-.71s.51-.2.71,0c.38.38,1.04.38,1.41,0,.19-.19.29-.44.29-.71,0-.03-.01-.05-.02-.08-.85-.25-1.48-1.08-1.48-1.92,0-.55.9-1,2-1s2,.45,2,1c0,.84-.63,1.67-1.48,1.92,0,.03-.02.05-.02.08,0,.27.1.52.29.71.38.38,1.04.38,1.41,0,.2-.2.51-.2.71,0s.2.51,0,.71Zm1.59-3.41c-.83,0-1.5-.67-1.5-1.5s.67-1.5,1.5-1.5,1.5.67,1.5,1.5-.67,1.5-1.5,1.5Z"/></g><path d="m9.09,17.41c.38.38.88.59,1.41.59s1.04-.21,1.41-.59c.03-.03.06-.07.09-.1.03.03.05.07.09.1.38.38.88.59,1.41.59s1.04-.21,1.41-.59c.2-.2.2-.51,0-.71s-.51-.2-.71,0c-.38.38-1.04.38-1.41,0-.19-.19-.29-.44-.29-.71,0-.03.01-.05.02-.08.85-.25,1.48-1.08,1.48-1.92,0-.55-.9-1-2-1s-2,.45-2,1c0,.84.63,1.67,1.48,1.92,0,.03.02.05.02.08,0,.27-.1.52-.29.71-.38.38-1.04.38-1.41,0-.2-.2-.51-.2-.71,0s-.2.51,0,.71Z"/><path d="m21.32,18.68s.11.07.18.07.13-.02.18-.07c.1-.1.1-.26,0-.35l-3-3c-.1-.1-.26-.1-.35,0s-.1.26,0,.35l3,3Z"/><path d="m16.82,16.82c-.1.1-.1.26,0,.35l3,3s.11.07.18.07.13-.02.18-.07c.1-.1.1-.26,0-.35l-3-3c-.1-.1-.26-.1-.35,0Z"/><path d="m2.5,18.75c.06,0,.13-.02.18-.07l3-3c.1-.1.1-.26,0-.35s-.26-.1-.35,0l-3,3c-.1.1-.1.26,0,.35.05.05.11.07.18.07Z"/><path d="m6.82,16.82l-3,3c-.1.1-.1.26,0,.35.05.05.11.07.18.07s.13-.02.18-.07l3-3c.1-.1.1-.26,0-.35s-.26-.1-.35,0Z"/><path d="M7.5 11A1.5 1.5 0 1 0 7.5 14 1.5 1.5 0 1 0 7.5 11z"/><path d="M16.5 11A1.5 1.5 0 1 0 16.5 14 1.5 1.5 0 1 0 16.5 11z"/></svg>