<svg xmlns="http://www.w3.org/2000/svg" width="24" height="24" viewBox="0 0 24 24"><g opacity="0.4"><path d="m3,18c0,2.21,1.79,4,4,4h10c2.21,0,4-1.79,4-4v-10H3v10Zm5.79-4.79c-.39-.39-.39-1.02,0-1.41s1.02-.39,1.41,0l1.79,1.79,1.79-1.79c.39-.39,1.02-.39,1.41,0s.39,1.02,0,1.41l-1.79,1.79,1.79,1.79c.39.39.39,1.02,0,1.41-.2.2-.45.29-.71.29s-.51-.1-.71-.29l-1.79-1.79-1.79,1.79c-.2.2-.45.29-.71.29s-.51-.1-.71-.29c-.39-.39-.39-1.02,0-1.41l1.79-1.79-1.79-1.79Z"/></g><path d="m17,4v-1c0-.55-.45-1-1-1s-1,.45-1,1v1h-6v-1c0-.55-.45-1-1-1s-1,.45-1,1v1c-2.21,0-4,1.79-4,4h18c0-2.21-1.79-4-4-4Z"/><path d="m8.79,18.21c.2.2.45.29.71.29s.51-.1.71-.29l1.79-1.79,1.79,1.79c.2.2.45.29.71.29s.51-.1.71-.29c.39-.39.39-1.02,0-1.41l-1.79-1.79,1.79-1.79c.39-.39.39-1.02,0-1.41s-1.02-.39-1.41,0l-1.79,1.79-1.79-1.79c-.39-.39-1.02-.39-1.41,0s-.39,1.02,0,1.41l1.79,1.79-1.79,1.79c-.39.39-.39,1.02,0,1.41Z"/></svg>