<svg xmlns="http://www.w3.org/2000/svg" width="24" height="24" viewBox="0 0 24 24"><g opacity="0.4"><path d="M8.5 6A1.5 1.5 0 1 0 8.5 9 1.5 1.5 0 1 0 8.5 6z"/><path d="M18.5 12A1.5 1.5 0 1 0 18.5 15 1.5 1.5 0 1 0 18.5 12z"/><path d="m21,20H4.5c-.28,0-.5-.22-.5-.5V3c0-.55-.45-1-1-1s-1,.45-1,1v16.5c0,1.38,1.12,2.5,2.5,2.5h16.5c.55,0,1-.45,1-1s-.45-1-1-1Z"/></g><path d="M13.5 9A1.5 1.5 0 1 0 13.5 12 1.5 1.5 0 1 0 13.5 9z"/><path d="M9.5 14A1.5 1.5 0 1 0 9.5 17 1.5 1.5 0 1 0 9.5 14z"/><path d="M17.5 4A1.5 1.5 0 1 0 17.5 7 1.5 1.5 0 1 0 17.5 4z"/></svg>