<svg xmlns="http://www.w3.org/2000/svg" width="24" height="24" viewBox="0 0 24 24"><g opacity="0.4"><path d="m5.9,19.68c.09,1.3,1.19,2.32,2.49,2.32h7.21c1.3,0,2.4-1.02,2.49-2.32l.98-13.68H4.93l.98,13.68Zm2.14-8.68h7.91c.44,0,.78.37.75.81l-.35,4.5c-.03.39-.36.69-.75.69h-7.22c-.39,0-.72-.3-.75-.69l-.35-4.5c-.03-.44.31-.81.75-.81Z"/></g><path d="m19,4h-.38l-.31-.62c-.43-.85-1.28-1.38-2.24-1.38H7.93c-.95,0-1.81.53-2.24,1.38,0,0,0,0,0,0l-.31.62h-.38c-.55,0-1,.45-1,1s.45,1,1,1h14c.55,0,1-.45,1-1s-.45-1-1-1Z"/><path d="m8.39,17h7.22c.39,0,.72-.3.75-.69l.35-4.5c.03-.44-.31-.81-.75-.81h-7.91c-.44,0-.78.37-.75.81l.35,4.5c.03.39.36.69.75.69Z"/></svg>