<svg xmlns="http://www.w3.org/2000/svg" width="24" height="24" viewBox="0 0 24 24"><g opacity="0.4"><path d="m15.55,2h-7.11c-.76,0-1.41.57-1.49,1.33l-.67,6,.52.37c1.45,1.05,3.13.89,4.5-.43,1.82-1.76,4.2-2.14,6.27-1.08l-.54-4.86c-.08-.76-.73-1.33-1.49-1.33Z"/></g><path d="m11.31,9.28c-1.37,1.32-3.05,1.48-4.5.43l-.52-.37-.28,2.55v.11c0,2.97,2.16,5.43,4.99,5.91v2.09h-2c-.55,0-1,.45-1,1s.45,1,1,1h6c.55,0,1-.45,1-1s-.45-1-1-1h-2v-2.09c2.83-.48,5-2.94,5-5.91l-.42-3.8c-2.07-1.05-4.45-.67-6.27,1.08Z"/></svg>