<svg xmlns="http://www.w3.org/2000/svg" width="24" height="24" viewBox="0 0 24 24"><g opacity="0.4"><path d="m21,20H4.5c-.28,0-.5-.22-.5-.5V3c0-.55-.45-1-1-1s-1,.45-1,1v16.5c0,1.38,1.12,2.5,2.5,2.5h16.5c.55,0,1-.45,1-1s-.45-1-1-1Z"/><path d="m20,4.5c0-1.38-1.12-2.5-2.5-2.5h-1c-1.38,0-2.5,1.12-2.5,2.5v3.5h6v-3.5Z"/><path d="m12,7.5c0-1.38-1.12-2.5-2.5-2.5h-1c-1.38,0-2.5,1.12-2.5,2.5v4.5h6v-4.5Z"/></g><path d="m16.5,18h1c1.38,0,2.5-1.12,2.5-2.5v-7.5h-6v7.5c0,1.38,1.12,2.5,2.5,2.5Z"/><path d="m8.5,18h1c1.38,0,2.5-1.12,2.5-2.5v-3.5h-6v3.5c0,1.38,1.12,2.5,2.5,2.5Z"/></svg>