<svg xmlns="http://www.w3.org/2000/svg" width="24" height="24" viewBox="0 0 24 24"><g opacity="0.4"><path d="m6.5,20h1c.28,0,.5.22.5.5v2c0,.27.14.32.31.11l3.37-4.21c.17-.21.09-.39-.19-.39h-1c-.27,0-.4-.2-.28-.45l.55-1.11c.12-.25,0-.45-.28-.45h-3c-.27,0-.55.22-.62.49l-.76,3.03c-.07.27.1.49.38.49Z"/><path d="m14.5,19h.5c.28,0,.5.22.5.5v1c0,.27.14.33.32.12l1.86-2.23c.18-.21.1-.38-.18-.38h-.5c-.27,0-.4-.2-.28-.45l.55-1.1c.12-.25,0-.45-.28-.45h-1.5c-.27,0-.57.21-.66.47l-.68,2.05c-.09.26.07.47.34.47Z"/></g><path d="m19.38,7.25c-.59-3-3.26-5.25-6.38-5.25-2.04,0-3.92.94-5.15,2.54-.21-.03-.4-.04-.6-.04-2.89,0-5.25,2.35-5.25,5.25s2.36,5.25,5.25,5.25h10.75c2.21,0,4-1.79,4-4,0-1.71-1.07-3.19-2.62-3.75Z"/></svg>