<svg xmlns="http://www.w3.org/2000/svg" width="24" height="24" viewBox="0 0 24 24"><g opacity="0.4"><path d="m12,5c-1.89,0-4,3.29-4,8v.43c1.15-.25,2.48-.43,4-.43s2.85.18,4,.43v-.43c0-4.71-2.11-8-4-8Z"/><path d="m13.4,3.06c.03.08.07.16.08.25,2.62,1.07,4.52,4.94,4.52,9.69v.98c1.58.55,2.49,1.14,2.55,1.18.28.19.45.5.45.83v.34c.55,0,1-.43,1-.96v-2.87c0-4.81-3.75-8.8-8.6-9.45Z"/><path d="m10.52,3.31c.01-.09.05-.16.08-.25C5.75,3.72,2,7.7,2,12.51v2.87c0,.53.45.96,1,.96v-.34c0-.33.17-.65.45-.83.07-.05.97-.63,2.55-1.18v-.98c0-4.75,1.9-8.62,4.52-9.69Z"/></g><path d="m4.18,21.47c.74.53,1.69.67,2.55.37,3.29-1.12,7.25-1.12,10.54,0,.3.1.6.15.91.15.58,0,1.16-.18,1.64-.52.74-.53,1.18-1.39,1.18-2.3v-3.18c0-.33-.17-.65-.45-.83-.07-.05-.97-.63-2.55-1.18v-.98c0-4.75-1.9-8.62-4.52-9.69-.1-.74-.72-1.31-1.48-1.31s-1.39.57-1.48,1.31c-2.62,1.07-4.52,4.94-4.52,9.69v.98c-1.58.55-2.49,1.14-2.55,1.18-.28.19-.45.5-.45.83v3.18c0,.91.44,1.77,1.18,2.3Zm3.82-8.47c0-4.71,2.11-8,4-8s4,3.29,4,8v.43c-1.15-.25-2.48-.43-4-.43s-2.85.18-4,.43v-.43Z"/></svg>