<svg xmlns="http://www.w3.org/2000/svg" width="24" height="24" viewBox="0 0 24 24"><g opacity="0.4"><path d="M12 2H17V7H12z"/><path d="M2 12H7V17H2z"/><path d="m6,2c-2.21,0-4,1.79-4,4v1h5V2h-1Z"/><path d="m18,22c2.21,0,4-1.79,4-4v-1h-5v5h1Z"/><path d="M7 17H12V22H7z"/><path d="M7 7H12V12H7z"/><path d="M17 7H22V12H17z"/><path d="M12 12H17V17H12z"/></g><path d="M7 2H12V7H7z"/><path d="m18,2h-1v5h5v-1c0-2.21-1.79-4-4-4Z"/><path d="M2 7H7V12H2z"/><path d="M12 7H17V12H12z"/><path d="M7 12H12V17H7z"/><path d="M17 12H22V17H17z"/><path d="m2,18c0,2.21,1.79,4,4,4h1v-5H2v1Z"/><path d="M12 17H17V22H12z"/></svg>