<svg xmlns="http://www.w3.org/2000/svg" width="24" height="24" viewBox="0 0 24 24"><g opacity="0.4"><path d="m12,2C6.49,2,2,6.49,2,12s4.49,10,10,10,10-4.49,10-10S17.51,2,12,2Zm-5,8.5c0-.83.67-1.5,1.5-1.5s1.5.67,1.5,1.5-.67,1.5-1.5,1.5-1.5-.67-1.5-1.5Zm8.16,5.49l-6,1c-.06,0-.11.01-.17.01-.48,0-.9-.35-.99-.84-.09-.54.28-1.06.82-1.15l6-1c.54-.1,1.06.28,1.15.82.09.54-.28,1.06-.82,1.15Zm.34-3.99c-.83,0-1.5-.67-1.5-1.5s.67-1.5,1.5-1.5,1.5.67,1.5,1.5-.67,1.5-1.5,1.5Z"/></g><path d="m8.84,15.01c-.54.09-.91.61-.82,1.15.08.49.5.84.99.84.05,0,.11,0,.17-.01l6-1c.54-.09.91-.61.82-1.15-.09-.54-.61-.92-1.15-.82l-6,1Z"/><path d="m15.5,12c.83,0,1.5-.67,1.5-1.5s-.67-1.5-1.5-1.5-1.5.67-1.5,1.5.67,1.5,1.5,1.5Z"/><path d="M8.5 9A1.5 1.5 0 1 0 8.5 12 1.5 1.5 0 1 0 8.5 9z"/></svg>