<svg xmlns="http://www.w3.org/2000/svg" width="24" height="24" viewBox="0 0 24 24"><g opacity="0.4"><path d="m17.61,5.19c-.77-.77-1.79-1.19-2.88-1.19-2.05,0-3.94,1.03-5.05,2.76l-6.76,10.51c-.7,1.08-.54,2.53.37,3.44.53.53,1.24.8,1.95.8.51,0,1.03-.14,1.48-.43l5.13-3.3-1.86-1.86c-.39-.39-.39-1.02,0-1.41.39-.39,1.02-.39,1.41,0l2.17,2.17,1.93-1.24-3.02-3.02c-.39-.39-.39-1.02,0-1.41.39-.39,1.02-.39,1.41,0l3.32,3.32h0c1.72-1.11,2.75-3,2.75-5.05,0-1.07-.43-2.12-1.19-2.88l-1.2-1.2Z"/></g><path d="m11.86,17.78l1.72-1.11-2.17-2.17c-.39-.39-1.02-.39-1.41,0-.39.39-.39,1.02,0,1.41l1.86,1.86Z"/><path d="m15.52,15.43l1.72-1.11-3.32-3.32c-.39-.39-1.02-.39-1.41,0-.39.39-.39,1.02,0,1.41l3.02,3.02Z"/><path d="m21,6h-1.59l1.59-1.59c.39-.39.39-1.02,0-1.41-.39-.39-1.02-.39-1.41,0l-1.59,1.59v-1.59c0-.55-.45-1-1-1s-1,.45-1,1v1.22c.6.2,1.15.51,1.61.97l1.2,1.2c.45.45.77,1.01.97,1.6h1.22c.55,0,1-.45,1-1s-.45-1-1-1Z"/></svg>