<svg xmlns="http://www.w3.org/2000/svg" width="24" height="24" viewBox="0 0 24 24"><g opacity="0.4"><path d="m12,2C6.49,2,2,6.49,2,12s4.49,10,10,10,10-4.49,10-10S17.51,2,12,2Zm-4,10c0,.55-.45,1-1,1s-1-.45-1-1c0-3.31,2.69-6,6-6,.55,0,1,.45,1,1s-.45,1-1,1c-2.21,0-4,1.79-4,4Zm4,2c-1.1,0-2-.9-2-2s.9-2,2-2,2,.9,2,2-.9,2-2,2Z"/></g><path d="m10,12c0,1.1.9,2,2,2s2-.9,2-2-.9-2-2-2-2,.9-2,2Z"/><path d="m7,13c.55,0,1-.45,1-1,0-2.21,1.79-4,4-4,.55,0,1-.45,1-1s-.45-1-1-1c-3.31,0-6,2.69-6,6,0,.55.45,1,1,1Z"/></svg>