<svg xmlns="http://www.w3.org/2000/svg" width="24" height="24" viewBox="0 0 24 24"><g opacity="0.4"><path d="M10.72 2 8.39 9 15.61 9 13.28 2 10.72 2z"/><path d="m18.73,4.02c-.69-1.21-1.96-1.96-3.34-2.01l2.33,6.99h3.58c-.08-.45-.22-.88-.45-1.29l-2.11-3.7Z"/><path d="m5.27,4.02l-2.11,3.7c-.23.4-.38.84-.45,1.29h3.58l2.33-6.99c-1.38.05-2.65.8-3.34,2.01Z"/></g><path d="m11.83,20.24l3.7-9.24h-7.1l3.32,9.23s.05,0,.08,0Z"/><path d="m15.1,18.79l5.37-6.57c.3-.37.52-.79.67-1.23h-3.46l-3.42,8.54c.31-.21.59-.45.84-.75Z"/><path d="m8.9,18.8c.09.11.21.2.31.3l-2.92-8.1h-3.44c.15.44.37.86.67,1.23l5.37,6.57Z"/></svg>