<svg xmlns="http://www.w3.org/2000/svg" width="24" height="24" viewBox="0 0 24 24"><g opacity="0.4"><path d="M10 11H14V13H10z"/><path d="m22,11h-1v2h1c.55,0,1-.45,1-1s-.45-1-1-1Z"/><path d="m3,11h-1c-.55,0-1,.45-1,1s.45,1,1,1h1v-2Z"/></g><path d="m8,5c-1.1,0-2,.9-2,2v10c0,1.1.9,2,2,2s2-.9,2-2V7c0-1.1-.9-2-2-2Z"/><path d="m16,5c-1.1,0-2,.9-2,2v10c0,1.1.9,2,2,2s2-.9,2-2V7c0-1.1-.9-2-2-2Zm0,12V7s0,0,0,0v10Z"/><path d="m20,7.5c-.55,0-1,.45-1,1v7c0,.55.45,1,1,1s1-.45,1-1v-7c0-.55-.45-1-1-1Z"/><path d="m4,7.5c-.55,0-1,.45-1,1v7c0,.55.45,1,1,1s1-.45,1-1v-7c0-.55-.45-1-1-1Z"/></svg>