<svg xmlns="http://www.w3.org/2000/svg" width="24" height="24" viewBox="0 0 24 24"><g opacity="0.4"><path d="m12,9c-3.58,0-6.5,2.92-6.5,6.5s2.92,6.5,6.5,6.5,6.5-2.92,6.5-6.5-2.92-6.5-6.5-6.5Zm.65,9.69v.06c0,.36-.29.65-.65.65s-.65-.29-.65-.65v-.05c-.87-.14-1.38-.54-1.66-.97-.26-.4.04-.93.51-.93h.11c.2,0,.38.11.5.27.14.18.47.38,1.18.38.9,0,1.3-.38,1.3-.65,0-.21,0-.65-1.3-.65-2.26,0-2.6-1.22-2.6-1.95,0-.84.67-1.68,1.95-1.89v-.06c0-.36.29-.65.65-.65s.65.29.65.65v.08c.7.16,1.13.58,1.36,1.04.19.39-.12.84-.55.84h-.1c-.22,0-.42-.12-.53-.32-.11-.18-.34-.34-.82-.34-.84,0-1.3.33-1.3.65,0,.24,0,.65,1.3.65,2.26,0,2.6,1.22,2.6,1.95,0,.84-.67,1.68-1.95,1.89Z"/></g><path d="m10.6,5.69l-.43,1.39c-.09.3.24.54.5.37l1.33-.89,1.33.89c.26.17.59-.08.5-.37l-.43-1.39,1.07-1.07c.2-.2.07-.54-.21-.56l-1.32-.11-.65-1.32c-.12-.25-.47-.25-.59,0l-.65,1.32-1.32.11c-.28.02-.4.36-.21.56l1.07,1.07Z"/><path d="m21.31,7.71l-1.02-.09-.51-1.03c-.11-.23-.44-.23-.55,0l-.51,1.03-1.02.09c-.26.02-.38.34-.19.53l.84.84-.33,1.06c-.09.28.22.51.47.35l1.02-.68,1.02.68c.24.16.55-.07.47-.35l-.33-1.06.84-.84c.19-.19.07-.5-.19-.53Z"/><path d="m5.99,10.13l-.33-1.06.84-.84c.19-.19.07-.5-.19-.53l-1.02-.09-.51-1.03c-.11-.23-.44-.23-.55,0l-.51,1.03-1.02.09c-.26.02-.38.34-.19.53l.84.84-.33,1.06c-.09.28.22.51.47.35l1.02-.68,1.02.68c.24.16.55-.07.47-.35Z"/><path d="m12,16.15c1.3,0,1.3.44,1.3.65,0,.27-.4.65-1.3.65-.72,0-1.04-.2-1.18-.38-.13-.16-.3-.27-.5-.27h-.11c-.48,0-.77.53-.51.93.28.43.8.83,1.66.97v.05c0,.36.29.65.65.65s.65-.29.65-.65v-.06c1.28-.22,1.95-1.06,1.95-1.89,0-.73-.34-1.95-2.6-1.95-1.3,0-1.3-.41-1.3-.65,0-.32.46-.65,1.3-.65.48,0,.71.16.82.34.12.19.31.32.53.32h.1c.43,0,.74-.46.55-.85-.23-.46-.66-.87-1.36-1.04v-.08c0-.36-.29-.65-.65-.65s-.65.29-.65.65v.06c-1.28.22-1.95,1.06-1.95,1.89,0,.73.34,1.95,2.6,1.95Z"/></svg>