<svg xmlns="http://www.w3.org/2000/svg" width="24" height="24" viewBox="0 0 24 24"><g opacity="0.4"><path d="m12,2C6.49,2,2,6.49,2,12s4.49,10,10,10,10-4.49,10-10S17.51,2,12,2Zm1,14.91v.09c0,.55-.45,1-1,1s-1-.45-1-1v-.08c-1.33-.21-2.13-.83-2.56-1.49-.4-.62.06-1.43.79-1.43h.17c.31,0,.58.17.77.41.22.28.72.59,1.82.59,1.38,0,2-.58,2-1,0-.32,0-1-2-1-3.48,0-4-1.88-4-3,0-1.29,1.03-2.58,3-2.91v-.09c0-.55.45-1,1-1s1,.45,1,1v.12c1.07.25,1.74.89,2.09,1.59.3.6-.18,1.29-.84,1.3h-.16c-.34,0-.64-.19-.82-.49-.17-.28-.52-.52-1.26-.52-1.3,0-2,.52-2,1,0,.37,0,1,2,1,3.48,0,4,1.88,4,3,0,1.29-1.03,2.58-3,2.91Z"/></g><path d="m12,13c2,0,2,.68,2,1,0,.42-.62,1-2,1-1.1,0-1.6-.31-1.82-.59-.19-.24-.46-.41-.77-.41h-.17c-.73,0-1.19.81-.79,1.43.43.67,1.22,1.28,2.56,1.49v.08c0,.55.45,1,1,1s1-.45,1-1v-.09c1.97-.33,3-1.63,3-2.91,0-1.12-.52-3-4-3-2,0-2-.63-2-1,0-.48.7-1,2-1,.74,0,1.09.25,1.26.52.18.29.48.49.82.49h.16c.67,0,1.14-.71.84-1.3-.35-.7-1.02-1.34-2.09-1.59v-.12c0-.55-.45-1-1-1s-1,.45-1,1v.09c-1.97.33-3,1.63-3,2.91,0,1.12.52,3,4,3Z"/></svg>