<svg xmlns="http://www.w3.org/2000/svg" width="24" height="24" viewBox="0 0 24 24"><g opacity="0.4"><path d="m18,11H6l-2.34,7.78c-.48,1.6.72,3.22,2.39,3.22h1.95v-7c0-.55.45-1,1-1s1,.45,1,1v7h4v-7c0-.55.45-1,1-1s1,.45,1,1v7h1.95c1.68,0,2.88-1.62,2.39-3.22l-2.34-7.78Z"/></g><path d="m6,11h12l.98-5.32c.26-1.19-.18-2.37-1.16-3.09-.98-.72-2.24-.79-3.3-.19l-2.53,1.45-2.53-1.45c-1.05-.6-2.32-.53-3.3.19-.98.72-1.42,1.91-1.16,3.09l.98,5.32Z"/><path d="m8,15v7h2v-7c0-.55-.45-1-1-1s-1,.45-1,1Z"/><path d="m14,15v7h2v-7c0-.55-.45-1-1-1s-1,.45-1,1Z"/></svg>