<svg xmlns="http://www.w3.org/2000/svg" width="24" height="24" viewBox="0 0 24 24"><g opacity="0.4"><path d="m6,8.5c0,2.71,2.67,4.11,5,4.43v-2.03c-1.37-.25-3-1-3-2.4s1.67-2.16,3-2.4v-2.03c-2.25.3-5,1.59-5,4.43Z"/><path d="m13,6.1c1.12.2,2.47.73,2.88,1.76.15.37.46.64.86.64h.23c.61,0,1.04-.6.85-1.18-.64-2.02-2.92-2.99-4.82-3.24v2.02Z"/><path d="m8.14,16.18c-.17-.39-.5-.68-.92-.68h-.09c-.65,0-1.14.64-.92,1.25.64,1.83,2.66,2.92,4.79,3.18v-2.03c-1.19-.21-2.45-.77-2.86-1.73Z"/><path d="m13,11.07v2.03c1.33.24,3,.94,3,2.4s-1.67,2.16-3,2.4v2.03c2.25-.3,5-1.59,5-4.43s-2.75-4.13-5-4.43Z"/></g><path d="m13,3c0-.55-.45-1-1-1s-1,.45-1,1v18c0,.55.45,1,1,1s1-.45,1-1V3Z"/></svg>