<svg xmlns="http://www.w3.org/2000/svg" width="24" height="24" viewBox="0 0 24 24"><g opacity="0.4"><path d="m17,2H7c-2.21,0-4,1.79-4,4v12c0,2.21,1.79,4,4,4h10c2.21,0,4-1.79,4-4V6c0-2.21-1.79-4-4-4Zm-2,2c.55,0,1,.45,1,1s-.45,1-1,1-1-.45-1-1,.45-1,1-1Zm-3,14c-2.76,0-5-2.24-5-5s2.24-5,5-5,5,2.24,5,5-2.24,5-5,5Zm6-12c-.55,0-1-.45-1-1s.45-1,1-1,1,.45,1,1-.45,1-1,1Z"/></g><path d="m10.18,14.28c-.27.23-.68.57-.68,1.22,0,.28.22.5.5.5s.5-.22.5-.5c0-.17.08-.25.32-.45.27-.23.68-.57.68-1.22s-.41-.99-.68-1.22c-.24-.2-.32-.28-.32-.45s.06-.24.32-.45c.27-.23.68-.57.68-1.22,0-.28-.22-.5-.5-.5s-.5.22-.5.5c0,.16-.06.24-.32.45-.27.23-.68.57-.68,1.22s.41.99.68,1.22c.24.2.32.28.32.45s-.08.25-.32.45Z"/><path d="m13.18,14.28c-.27.23-.68.57-.68,1.22,0,.28.22.5.5.5s.5-.22.5-.5c0-.17.08-.25.32-.45.27-.23.68-.57.68-1.22s-.41-.99-.68-1.22c-.24-.2-.32-.28-.32-.45s.06-.24.32-.45c.27-.23.68-.57.68-1.22,0-.28-.22-.5-.5-.5s-.5.22-.5.5c0,.16-.06.24-.32.45-.27.23-.68.57-.68,1.22s.41.99.68,1.22c.24.2.32.28.32.45s-.08.25-.32.45Z"/><path d="M18 4A1 1 0 1 0 18 6 1 1 0 1 0 18 4z"/><path d="M15 4A1 1 0 1 0 15 6 1 1 0 1 0 15 4z"/></svg>