<svg xmlns="http://www.w3.org/2000/svg" width="24" height="24" viewBox="0 0 24 24"><g opacity="0.4"><g><path class="st0" d="M6.7,10.3c-0.8-0.8-2-0.8-2.8,0l-0.4,0.4c-0.8,0.8-0.8,2,0,2.8l7,7c0.4,0.4,0.9,0.6,1.4,0.6
		c0.5,0,1-0.2,1.4-0.6l0.4-0.4c0.4-0.4,0.6-0.9,0.6-1.4s-0.2-1-0.6-1.4L6.7,10.3z"/><path class="st0" d="M20.5,10.5l-7-7c-0.8-0.8-2-0.8-2.8,0l-0.4,0.4c0,0,0,0,0,0c-0.8,0.8-0.8,2,0,2.8l7,7c0.4,0.4,0.9,0.6,1.4,0.6
		c0,0,0,0,0,0c0.5,0,1-0.2,1.4-0.6l0.4-0.4C21.3,12.5,21.3,11.3,20.5,10.5z"/></g></g><path d="M13.09 9.5 11.29 11.29 9.5 13.09 10.21 13.79 10.91 14.5 12.71 12.71 14.5 10.91 13.79 10.21 13.09 9.5z"/><path d="m20.11,10.1l.89-.89c.78-.78.78-2.05,0-2.83l-3.39-3.39c-.78-.78-2.05-.78-2.83,0l-.89.89,6.21,6.21Z"/><path d="m3.89,13.9l-.89.89c-.78.78-.78,2.05,0,2.83l3.39,3.39c.39.39.9.58,1.41.58s1.02-.2,1.41-.58l.89-.89-6.21-6.21Z"/></svg>