<svg xmlns="http://www.w3.org/2000/svg" width="24" height="24" viewBox="0 0 24 24"><g opacity="0.4"><path d="m19.41,9c-.78-.78-2.05-.78-2.83,0l-1.59,1.59c-.78.78-.78,2.05,0,2.83l1.59,1.59c.39.39.9.58,1.41.58s1.02-.2,1.41-.58l1.59-1.59c.78-.78.78-2.05,0-2.83l-1.59-1.59Z"/><path d="m9,10.59l-1.59-1.59c-.78-.78-2.05-.78-2.83,0l-1.59,1.59c-.78.78-.78,2.05,0,2.83l1.59,1.59c.39.39.9.58,1.41.58s1.02-.2,1.41-.58l1.59-1.59c.78-.78.78-2.05,0-2.83Z"/></g><path d="m13.41,3c-.78-.78-2.05-.78-2.83,0l-1.59,1.59c-.78.78-.78,2.05,0,2.83l1.59,1.59c.39.39.9.58,1.41.58s1.02-.2,1.41-.58l1.59-1.59c.78-.78.78-2.05,0-2.83l-1.59-1.59Z"/><path d="m13.41,15c-.78-.78-2.05-.78-2.83,0l-1.59,1.59c-.78.78-.78,2.05,0,2.83l1.59,1.59c.39.39.9.58,1.41.58s1.02-.2,1.41-.58l1.59-1.59c.78-.78.78-2.05,0-2.83l-1.59-1.59Z"/></svg>