<svg xmlns="http://www.w3.org/2000/svg" width="24" height="24" viewBox="0 0 24 24"><g opacity="0.4"><path d="m12,2C6.49,2,2,6.49,2,12s4.49,10,10,10,10-4.49,10-10S17.51,2,12,2Zm5,8.79c0,.45-.54.67-.85.35l-.94-.94-5,5,.94.94c.32.32.09.85-.35.85h-3.29c-.28,0-.5-.22-.5-.5v-3.29c0-.45.54-.67.85-.35l.94.94,5-5-.94-.94c-.32-.31-.09-.85.35-.85h3.29c.28,0,.5.22.5.5v3.29Z"/></g><path d="m7.5,17h3.29c.45,0,.67-.54.35-.85l-.94-.94,5-5,.94.94c.32.32.85.09.85-.35v-3.29c0-.28-.22-.5-.5-.5h-3.29c-.45,0-.67.54-.35.85l.94.94-5,5-.94-.94c-.32-.31-.85-.09-.85.35v3.29c0,.28.22.5.5.5Z"/></svg>