<svg xmlns="http://www.w3.org/2000/svg" width="24" height="24" viewBox="0 0 24 24"><g opacity="0.4"><path d="m13,2h-6c-1.65,0-3,1.35-3,3v15h12V5c0-1.65-1.35-3-3-3Zm-1,11c-.55,0-1-.45-1-1s.45-1,1-1,1,.45,1,1-.45,1-1,1Z"/></g><path d="m21,20h-1V5c0-1.65-1.35-3-3-3h-4c.18,0,.36.02.53.05.05,0,.1.02.15.03.14.03.27.07.4.12.08.03.15.06.22.1.09.04.18.09.26.14.08.05.17.11.24.17.03.02.05.04.07.06.68.55,1.13,1.38,1.13,2.32v15H3c-.55,0-1,.45-1,1s.45,1,1,1h18c.55,0,1-.45,1-1s-.45-1-1-1Z"/><path d="M12 11A1 1 0 1 0 12 13 1 1 0 1 0 12 11z"/></svg>