<svg xmlns="http://www.w3.org/2000/svg" width="24" height="24" viewBox="0 0 24 24"><g opacity="0.4"><path d="m11,19h-1c-.55,0-1,.45-1,1s.45,1,1,1h1c.55,0,1-.45,1-1s-.45-1-1-1Z"/><path d="m16,19h-1c-.55,0-1,.45-1,1s.45,1,1,1h1c.55,0,1-.45,1-1s-.45-1-1-1Z"/><path d="m15,4c0-.55-.45-1-1-1h-1c-.55,0-1,.45-1,1s.45,1,1,1h1c.55,0,1-.45,1-1Z"/><path d="m10,4c0-.55-.45-1-1-1h-1c-.55,0-1,.45-1,1s.45,1,1,1h1c.55,0,1-.45,1-1Z"/></g><path d="m21,3c-2.59,0-5,1.28-6.44,3.42l-6.77,10.03c-1.08,1.59-2.86,2.54-4.79,2.54-.55,0-1,.45-1,1s.45,1,1,1c2.59,0,5-1.28,6.44-3.42l6.77-10.03c1.08-1.59,2.86-2.54,4.79-2.54.55,0,1-.45,1-1s-.45-1-1-1Z"/><path d="M20 18A2 2 0 1 0 20 22 2 2 0 1 0 20 18z"/><path d="M4 2A2 2 0 1 0 4 6 2 2 0 1 0 4 2z"/></svg>