<svg xmlns="http://www.w3.org/2000/svg" width="24" height="24" viewBox="0 0 24 24"><g opacity="0.4"><path d="m12,15c-1.64,0-3-1.36-3-3,0-.46.12-.89.3-1.28l-3.71-3.71c-1.77,1.32-2.76,2.96-3.23,3.93-.33.68-.33,1.46,0,2.13h0c.86,1.78,3.51,5.93,9.63,5.93,1.84,0,3.37-.38,4.63-.96l-3.35-3.35c-.39.19-.82.3-1.28.3Z"/><path d="m12,5c-1.84,0-3.37.38-4.63.96l3.35,3.35c.39-.19.82-.3,1.28-.3,1.64,0,3,1.36,3,3,0,.46-.12.89-.3,1.28l3.71,3.71c1.77-1.32,2.76-2.96,3.23-3.93.33-.68.33-1.46,0-2.13-.86-1.78-3.51-5.93-9.63-5.93Z"/></g><path d="m19.29,20.71c.2.2.45.29.71.29s.51-.1.71-.29c.39-.39.39-1.02,0-1.41L4.71,3.29c-.39-.39-1.02-.39-1.41,0s-.39,1.02,0,1.41l16,16Z"/></svg>