<svg xmlns="http://www.w3.org/2000/svg" width="24" height="24" viewBox="0 0 24 24"><g opacity="0.4"><path d="m16.89,8.53c.7.98,1.11,2.18,1.11,3.47,0,3.31-2.69,6-6,6-1.29,0-2.49-.42-3.47-1.11l-1.43,1.43c1.36,1.05,3.05,1.69,4.9,1.69,4.41,0,8-3.59,8-8,0-1.85-.63-3.54-1.69-4.9l-1.43,1.43Z"/><path d="m6,12c0-3.31,2.69-6,6-6,1.29,0,2.49.42,3.47,1.11l1.43-1.43c-1.36-1.05-3.05-1.69-4.9-1.69-4.41,0-8,3.59-8,8,0,1.85.63,3.54,1.69,4.9l1.43-1.43c-.7-.98-1.11-2.18-1.11-3.47Z"/></g><path d="m19.29,3.29L3.29,19.29c-.39.39-.39,1.02,0,1.41.2.2.45.29.71.29s.51-.1.71-.29L20.71,4.71c.39-.39.39-1.02,0-1.41s-1.02-.39-1.41,0Z"/></svg>