<svg xmlns="http://www.w3.org/2000/svg" width="24" height="24" viewBox="0 0 24 24"><g opacity="0.4"><path d="m2.78,8.09c-.37-.28-.49-.78-.29-1.21-.32.67-.48,1.38-.48,2.12v6c0,1.02.31,1.96.83,2.75l5.41-5.41-5.47-4.25Z"/><path d="m21.22,8.09l-5.47,4.25,5.41,5.41c.52-.79.83-1.74.83-2.75v-6c0-.74-.16-1.45-.48-2.12.19.42.07.92-.29,1.21Z"/><path d="m13.53,14.07c-.45.36-.99.54-1.53.54s-1.09-.18-1.55-.54l-.62-.48-5.59,5.59c.79.52,1.74.83,2.75.83h10c1.02,0,1.96-.31,2.75-.83l-5.59-5.59-.63.49Z"/></g><path d="m21.22,8.09l-5.46,4.25,5.41,5.41c-.38.56-.86,1.04-1.42,1.42l-5.59-5.59-.63.49c-.45.36-.99.54-1.53.54s-1.09-.19-1.54-.55l-.62-.48-5.59,5.59c-.56-.38-1.04-.86-1.42-1.42l5.41-5.41-5.46-4.25c-.37-.29-.49-.79-.3-1.21.81-1.75,2.59-2.88,4.52-2.88h10c1.93,0,3.71,1.13,4.52,2.88.19.42.07.92-.3,1.21Z"/></svg>