<svg xmlns="http://www.w3.org/2000/svg" width="24" height="24" viewBox="0 0 24 24"><g opacity="0.4"><path d="m11,3h-6c-1.65,0-3,1.35-3,3v12c0,1.65,1.35,3,3,3h6c1.65,0,3-1.35,3-3V6c0-1.65-1.35-3-3-3Zm-.38,8.53l-3.01,4.22c-.21.29-.67.09-.6-.26l.45-2.29c.02-.1-.06-.2-.16-.2h-1.67c-.27,0-.43-.3-.28-.52l2.87-4.31c.2-.29.65-.12.61.23l-.3,2.41c-.01.1.07.19.17.19h1.66c.27,0,.43.31.27.53Z"/></g><path d="m5.62,13h1.67c.1,0,.18.1.16.2l-.45,2.29c-.07.35.39.55.6.26l3.01-4.22c.16-.22,0-.53-.27-.53h-1.66c-.1,0-.18-.09-.17-.19l.3-2.41c.04-.35-.41-.52-.61-.23l-2.87,4.31c-.15.22.01.52.28.52Z"/><path d="m17.41,3.84c-.43-.35-1.06-.28-1.41.16-.34.43-.27,1.06.16,1.41l3.09,2.48c.47.38.75.95.75,1.56v8.56c0,.55-.45,1-1,1s-1-.45-1-1v-3c0-1.66-1.34-3-3-3h-1v2h1c.55,0,1,.45,1,1v2.88c0,1.45.98,2.78,2.4,3.06,1.92.37,3.6-1.09,3.6-2.94v-8.56c0-1.22-.55-2.36-1.5-3.12l-3.09-2.47Z"/></svg>