<svg xmlns="http://www.w3.org/2000/svg" width="24" height="24" viewBox="0 0 24 24"><g opacity="0.4"><path d="m12,14c-.73,0-1.45-.13-2.14-.39l-4.86-1.85v3.69c0,2.06,3.12,4.56,7,4.56s7-2.49,7-4.56v-3.69l-4.86,1.86c-.68.26-1.4.39-2.14.39Z"/></g><path d="m21.71,7.63l-8.28-3.16c-.92-.35-1.93-.35-2.85,0h0L2.29,7.63c-.78.3-1.29,1.03-1.29,1.87,0,.09.03.18.04.27-.02.08-.05.15-.05.23v5c0,.55.45,1,1,1s1-.45,1-1v-3.36l7.58,2.89c.46.17.94.26,1.42.26s.97-.09,1.43-.26l8.28-3.16c.78-.3,1.29-1.03,1.29-1.87s-.5-1.57-1.29-1.87Z"/></svg>