<svg xmlns="http://www.w3.org/2000/svg" width="24" height="24" viewBox="0 0 24 24"><g opacity="0.4"><path d="m13.64,2.16c-4.73-.95-8.94,2.31-9.56,6.7-.09.6.39,1.13,1,1.13.49,0,.91-.36.98-.85.49-3.48,3.99-6.01,7.78-4.88,2.54.76,4.18,3.12,4.16,5.78-.01,1.73-.66,2.49-1.42,3.35-.74.86-1.58,1.83-1.58,3.59,0,2.44-2.61,3-3,3-1.38,0-2.54-.93-2.89-2.2-.13-.46-.5-.8-.98-.8h0c-.65,0-1.13.62-.97,1.25.56,2.16,2.52,3.75,4.84,3.75,1.69,0,5-1.51,5-5,0-1.02.44-1.52,1.09-2.28.82-.95,1.84-2.13,1.9-4.49.1-3.91-2.52-7.29-6.35-8.06Z"/></g><path d="m9.17,10c.41,0,.8-.23.93-.62.1-.3.26-.57.49-.79.75-.76,2.07-.76,2.83,0,.38.38.59.88.59,1.41,0,.32-.07.63-.22.91-.18.36-.07.81.22,1.09h0c.47.47,1.29.37,1.58-.22.27-.55.42-1.15.42-1.78,0-1.07-.42-2.07-1.17-2.83s-1.76-1.17-2.83-1.17-2.07.42-2.83,1.17c-.44.44-.77.97-.97,1.55-.21.63.3,1.28.96,1.28Z"/></svg>