<svg xmlns="http://www.w3.org/2000/svg" width="24" height="24" viewBox="0 0 24 24"><g opacity="0.4"><path d="m12,8c-.55,0-1,.45-1,1v6c0,.55.45,1,1,1s1-.45,1-1v-6c0-.55-.45-1-1-1Z"/><path d="m20,10c-.55,0-1,.45-1,1v2c0,.55.45,1,1,1s1-.45,1-1v-2c0-.55-.45-1-1-1Z"/><path d="m4,9c-.55,0-1,.45-1,1v4c0,.55.45,1,1,1s1-.45,1-1v-4c0-.55-.45-1-1-1Z"/></g><path d="m16,5c-.55,0-1,.45-1,1v12c0,.55.45,1,1,1s1-.45,1-1V6c0-.55-.45-1-1-1Z"/><path d="m8,3c-.55,0-1,.45-1,1v16c0,.55.45,1,1,1s1-.45,1-1V4c0-.55-.45-1-1-1Z"/></svg>