<svg xmlns="http://www.w3.org/2000/svg" width="24" height="24" viewBox="0 0 24 24"><g opacity="0.4"><path d="m6,2c-2.21,0-4,1.79-4,4v12c0,1.1.45,2.1,1.17,2.83L20.83,3.17c-.72-.72-1.72-1.17-2.83-1.17H6Zm4,7h-4c-.55,0-1-.45-1-1s.45-1,1-1h4c.55,0,1,.45,1,1s-.45,1-1,1Z"/></g><path d="m3.17,20.83c.72.72,1.72,1.17,2.83,1.17h12c2.21,0,4-1.79,4-4V6c0-1.1-.45-2.1-1.17-2.83L3.17,20.83Zm14.83-3.83h-1v1c0,.55-.45,1-1,1s-1-.45-1-1v-1h-1c-.55,0-1-.45-1-1s.45-1,1-1h1v-1c0-.55.45-1,1-1s1,.45,1,1v1h1c.55,0,1,.45,1,1s-.45,1-1,1Z"/><path d="m6,9h4c.55,0,1-.45,1-1s-.45-1-1-1h-4c-.55,0-1,.45-1,1s.45,1,1,1Z"/></svg>