<svg xmlns="http://www.w3.org/2000/svg" width="24" height="24" viewBox="0 0 24 24"><g opacity="0.4"><path d="m4.29,15.29c-.13.13-.22.29-.26.46l-.8,3.19c-.13.52.02,1.05.39,1.43.29.29.66.44,1.05.44.12,0,.25-.02.37-.05l3.19-.8c.18-.04.34-.13.46-.26l8.29-8.29-4.41-4.41L4.29,15.29Z"/></g><path d="m15.79,3.79l-1.79,1.79-.59-.59c-.39-.39-1.02-.39-1.41,0-.39.39-.39,1.02,0,1.41l5.59,5.59c.39.39,1.02.39,1.41,0,.39-.39.39-1.02,0-1.41l-.59-.59,1.79-1.79c1.22-1.22,1.22-3.2,0-4.41-1.18-1.18-3.24-1.18-4.41,0Z"/></svg>