<svg xmlns="http://www.w3.org/2000/svg" width="24" height="24" viewBox="0 0 24 24"><g opacity="0.4"><path d="m20,11c-.55,0-1,.45-1,1v5c0,1.1-.9,2-2,2H7c-1.1,0-2-.9-2-2V7c0-1.1.9-2,2-2h5c.55,0,1-.45,1-1s-.45-1-1-1h-5c-2.21,0-4,1.79-4,4v10c0,2.21,1.79,4,4,4h10c2.21,0,4-1.79,4-4v-5c0-.55-.45-1-1-1Z"/></g><path d="m8,17h2c.27,0,.52-.11.71-.29l7.65-7.65-3.41-3.41-7.65,7.65c-.19.19-.29.44-.29.71v2c0,.55.45,1,1,1Z"/><path d="m20,7.41c.78-.78.78-2.05,0-2.83l-.59-.59c-.78-.78-2.05-.78-2.83,0l-.94.94,3.41,3.41.94-.94Z"/></svg>