<svg xmlns="http://www.w3.org/2000/svg" width="24" height="24" viewBox="0 0 24 24"><g opacity="0.4"><path d="m20.91,11.97c-.46-.16-.97.04-1.19.48-.76,1.48-2.93,4.56-7.71,4.56s-6.95-3.08-7.71-4.55c-.22-.43-.73-.63-1.19-.48-.58.19-.86.86-.57,1.39,1,1.88,3.72,5.64,9.47,5.64s8.47-3.76,9.47-5.64c.29-.54,0-1.2-.57-1.39Z"/></g><path d="m4.21,15.71c-.5-.54-.91-1.09-1.23-1.58l-1.48,1.12c-.44.33-.53.96-.19,1.4.33.44.96.53,1.4.19l1.5-1.14Z"/><path d="m5.71,20.49c.47.29,1.09.14,1.37-.33l1.09-1.8c-.67-.24-1.27-.54-1.81-.87l-.99,1.63c-.29.47-.14,1.09.33,1.37Z"/><path d="m12,22c.55,0,1-.45,1-1v-2.04c-.32.03-.66.04-1,.04s-.68-.02-1-.04v2.04c0,.55.45,1,1,1Z"/><path d="m21.02,14.13c-.31.49-.72,1.04-1.23,1.58l1.5,1.14c.44.33,1.07.25,1.4-.19.33-.44.25-1.07-.19-1.4l-1.48-1.12Z"/><path d="m18.29,20.49c.47-.29.62-.9.33-1.37l-.99-1.63c-.54.33-1.14.63-1.81.87l1.09,1.8c.29.47.9.62,1.37.33Z"/></svg>