<svg xmlns="http://www.w3.org/2000/svg" width="24" height="24" viewBox="0 0 24 24"><g opacity="0.4"><path d="m14,12h0c.47.47,1.29.37,1.58-.22.27-.55.42-1.15.42-1.78,0-1.07-.42-2.07-1.17-2.83s-1.76-1.17-2.83-1.17-2.07.42-2.83,1.17c-.1.1-.17.22-.26.33l1.41,1.41c.08-.12.16-.23.26-.33.75-.76,2.07-.76,2.83,0,.38.38.59.88.59,1.41,0,.32-.07.63-.22.91-.18.36-.07.81.22,1.09Z"/><path d="m13.64,2.16c-3-.6-5.78.49-7.58,2.48l1.42,1.42c1.47-1.68,3.85-2.55,6.36-1.79,2.54.76,4.18,3.12,4.16,5.78-.01,1.73-.66,2.49-1.42,3.35-.26.3-.53.62-.78.98l1.46,1.46c.19-.38.47-.72.83-1.13.82-.95,1.84-2.13,1.9-4.49.1-3.91-2.52-7.29-6.35-8.06Z"/><path d="m15,17c0,2.44-2.61,3-3,3-1.38,0-2.54-.93-2.89-2.2-.13-.46-.5-.8-.98-.8h0c-.65,0-1.13.62-.97,1.25.56,2.16,2.52,3.75,4.84,3.75,1.47,0,4.17-1.15,4.84-3.74l-1.81-1.81c-.02.18-.03.36-.03.55Z"/><path d="m4.08,8.87c-.09.6.39,1.13,1,1.13.49,0,.91-.36.98-.85.07-.46.19-.9.35-1.33l-1.5-1.5c-.41.78-.7,1.64-.83,2.55Z"/></g><path d="m3.71,2.29c-.39-.39-1.02-.39-1.41,0s-.39,1.02,0,1.41l18,18c.2.2.45.29.71.29s.51-.1.71-.29c.39-.39.39-1.02,0-1.41L3.71,2.29Z"/></svg>