<svg xmlns="http://www.w3.org/2000/svg" width="24" height="24" viewBox="0 0 24 24"><g opacity="0.4"><path d="m6.61,17.16h0c-.43.27-.58.83-.36,1.29.44.93.56,1.75.59,2.59.02.53.46.95,1,.95.56,0,1.02-.46,1-1.03-.04-1.02-.2-2.13-.8-3.4-.25-.53-.93-.71-1.43-.4Z"/><path d="m8.05,14.58c2.33,3.1,2.72,4.86,2.79,6.45.02.53.44.95.97.95h.06c.55,0,.99-.46.97-1.01-.07-1.82-.5-4.02-3.19-7.59-.13-.18-.29-.37-.46-.58-1.03-1.26-1.79-2.32-1.39-3.51.26-.79.81-1.33,1.64-1.6.98-.33,2.27-.23,3.33.21.43.19.94.06,1.2-.33l.04-.05c.33-.49.16-1.18-.38-1.42-1.52-.67-3.34-.8-4.83-.3-1.41.48-2.44,1.49-2.89,2.87-.78,2.33.8,4.25,1.74,5.4.15.18.29.35.41.51Z"/><path d="m18.87,18.16c.1.48.51.8.98.8.07,0,.13,0,.2-.02.54-.11.89-.64.78-1.18-.94-4.68-2.32-7.69-4.46-9.75-.4-.38-1.03-.37-1.41.03-.38.4-.37,1.03.03,1.41,1.83,1.76,3.03,4.45,3.89,8.7Z"/><path d="m15.5,18.27h0c-.52.09-.88.57-.82,1.09.07.56.12,1.12.15,1.68.02.53.47.93,1,.93.58,0,1.03-.49,1-1.07-.03-.6-.08-1.19-.16-1.77-.07-.57-.6-.98-1.17-.87Z"/></g><path d="m16.36,3.37c-2.53-1.48-8.95-2.46-12.22.92-3.37,3.48-2.25,9.07,0,11.39.12.12.24.23.37.33.07.06.15.12.21.18.2.22.47.34.75.34.24,0,.47-.08.67-.25.41-.37.45-1,.08-1.41-.12-.14-.27-.27-.42-.39-.07-.06-.15-.12-.21-.19-1.66-1.71-2.51-6.02,0-8.61,2.53-2.61,8.07-1.58,9.78-.58,2.69,1.57,4.1,4.31,4.11,4.33.25.49.85.69,1.34.45s.69-.85.45-1.34c-.07-.13-1.67-3.29-4.89-5.17Z"/><path d="m11.41,9.15c-.45-.31-1.07-.18-1.38.27-.31.46-.19,1.08.27,1.39.03.02,2.71,1.88,3.8,5.72.12.44.53.73.96.73.09,0,.18-.01.27-.04.53-.15.84-.7.69-1.23-1.3-4.58-4.47-6.75-4.61-6.84Z"/></svg>