<svg xmlns="http://www.w3.org/2000/svg" width="24" height="24" viewBox="0 0 24 24"><g opacity="0.4"><path d="m18,4h-6.38c-.13,0-.26-.05-.35-.15l-1.12-1.12c-.47-.47-1.11-.73-1.77-.73h-3.88c-1.38,0-2.5,1.12-2.5,2.5v11.5c0,2.21,1.79,4,4,4h12c2.21,0,4-1.79,4-4v-8c0-2.21-1.79-4-4-4Zm-3.17,9.41c.39.39.39,1.02,0,1.41-.2.2-.45.29-.71.29s-.51-.1-.71-.29l-1.41-1.41-1.41,1.41c-.2.2-.45.29-.71.29s-.51-.1-.71-.29c-.39-.39-.39-1.02,0-1.41l1.41-1.41-1.41-1.41c-.39-.39-.39-1.02,0-1.41s1.02-.39,1.41,0l1.41,1.41,1.41-1.41c.39-.39,1.02-.39,1.41,0s.39,1.02,0,1.41l-1.41,1.41,1.41,1.41Z"/></g><path d="m9.17,14.83c.2.2.45.29.71.29s.51-.1.71-.29l1.41-1.41,1.41,1.41c.2.2.45.29.71.29s.51-.1.71-.29c.39-.39.39-1.02,0-1.41l-1.41-1.41,1.41-1.41c.39-.39.39-1.02,0-1.41s-1.02-.39-1.41,0l-1.41,1.41-1.41-1.41c-.39-.39-1.02-.39-1.41,0s-.39,1.02,0,1.41l1.41,1.41-1.41,1.41c-.39.39-.39,1.02,0,1.41Z"/></svg>