<svg xmlns="http://www.w3.org/2000/svg" width="24" height="24" viewBox="0 0 24 24"><g opacity="0.4"><path d="m13,6.5V2h-5c-2.21,0-4,1.79-4,4v12c0,2.21,1.79,4,4,4h8c2.21,0,4-1.79,4-4v-9h-4.5c-1.38,0-2.5-1.12-2.5-2.5Zm2.04,7.46l-1.26,1.26c-.08.08-.11.2-.08.31l.52,1.68c.09.28-.23.51-.47.35l-1.58-1.06c-.1-.07-.24-.07-.34,0l-1.58,1.06c-.24.16-.55-.07-.47-.35l.52-1.68c.03-.11,0-.23-.08-.31l-1.26-1.26c-.19-.19-.07-.51.19-.53l1.56-.13c.11,0,.2-.07.25-.17l.76-1.55c.11-.23.44-.23.56,0l.76,1.55c.05.1.14.16.25.17l1.56.13c.26.02.38.34.19.53Z"/></g><path d="m14.71,2.29c-.19-.19-.44-.29-.71-.29h-1v4.5c0,1.38,1.12,2.5,2.5,2.5h4.5v-1c0-.27-.11-.52-.29-.71l-5-5Z"/><path d="m10.22,15.21c.08.08.11.2.08.31l-.52,1.68c-.09.28.23.51.47.35l1.58-1.06c.1-.07.24-.07.34,0l1.58,1.06c.24.16.55-.07.47-.35l-.52-1.68c-.03-.11,0-.23.08-.31l1.26-1.26c.19-.19.07-.51-.19-.53l-1.56-.13c-.11,0-.2-.07-.25-.17l-.76-1.55c-.11-.23-.44-.23-.56,0l-.76,1.55c-.05.1-.14.16-.25.17l-1.56.13c-.26.02-.38.34-.19.53l1.26,1.26Z"/></svg>