<svg xmlns="http://www.w3.org/2000/svg" width="24" height="24" viewBox="0 0 24 24"><g opacity="0.4"><path d="m16.4,5.46c-.33-2.06-2.3-3.46-4.96-3.46h-.56v2.06c0,.81-.5,1.51-1.23,1.85-1,.46-1.93,1.13-2.71,1.97-1.16-.94-2.67-1.43-4.4-1.43h-.56v.56c0,1.67.57,3.14,1.67,4.32.36.39.36.97,0,1.36-1.1,1.18-1.67,2.65-1.67,4.32v.56h.56c1.73,0,3.24-.49,4.4-1.43.78.83,1.7,1.5,2.71,1.97.73.34,1.23,1.04,1.23,1.85v2.06h.56c2.65,0,4.63-1.4,4.96-3.46,3.27-1.05,5.6-3.75,5.6-6.54s-2.33-5.49-5.6-6.54Zm-1.08,9.72c.2.2.2.51,0,.71-.1.1-.23.15-.35.15s-.26-.05-.35-.15c-1.04-1.04-1.61-2.42-1.61-3.89s.57-2.85,1.61-3.89c.2-.2.51-.2.71,0s.2.51,0,.71c-.85.85-1.32,1.98-1.32,3.18s.47,2.33,1.32,3.18Zm2.68-3.18c-.55,0-1-.45-1-1s.45-1,1-1,1,.45,1,1-.45,1-1,1Z"/></g><path d="m14.96,16.04c.13,0,.26-.05.35-.15.2-.2.2-.51,0-.71-.85-.85-1.32-1.98-1.32-3.18s.47-2.33,1.32-3.18c.2-.2.2-.51,0-.71s-.51-.2-.71,0c-1.04,1.04-1.61,2.42-1.61,3.89s.57,2.85,1.61,3.89c.1.1.23.15.35.15Z"/><path d="M18 10A1 1 0 1 0 18 12 1 1 0 1 0 18 10z"/></svg>