<svg xmlns="http://www.w3.org/2000/svg" width="24" height="24" viewBox="0 0 24 24"><g opacity="0.4"><path d="m3,21c.39.39,1.02.39,1.41,0l6.09-6.09.3.3c.45.45,1.01.79,1.64.91,1,.18,1.99-.13,2.68-.83l5.88-5.88c.39-.39.39-1.02,0-1.41-.39-.39-1.02-.39-1.41,0l-4.04,4.04c-.3.3-.79.3-1.09,0s-.3-.79,0-1.09l4.04-4.04c.39-.39.39-1.02,0-1.41-.39-.39-1.02-.39-1.41,0l-4.04,4.04c-.3.3-.79.3-1.09,0s-.3-.79,0-1.09l4.04-4.04c.39-.39.39-1.02,0-1.41-.39-.39-1.02-.39-1.41,0l-5.8,5.8c-.45.45-.79,1.01-.91,1.64-.18,1,.13,1.99.83,2.68l.38.38-6.09,6.09c-.39.39-.39,1.02,0,1.41Z"/></g></svg>