<svg xmlns="http://www.w3.org/2000/svg" width="24" height="24" viewBox="0 0 24 24"><g opacity="0.4"><path d="m20,3h-1v3h-2v-3H7v3h-2v-3h-1c-.55,0-1,.45-1,1v16c0,.55.45,1,1,1h1v-3h2v3h10v-3h2v3h1c.55,0,1-.45,1-1V4c0-.55-.45-1-1-1Zm-13,13h-2v-3h2v3Zm0-5h-2v-3h2v3Zm12,5h-2v-3h2v3Zm0-5h-2v-3h2v3Z"/></g><path d="M5 8H7V11H5z"/><path d="M17 13H19V16H17z"/><path d="M17 3H19V6H17z"/><path d="M17 8H19V11H17z"/><path d="M5 3H7V6H5z"/><path d="M17 18H19V21H17z"/><path d="M5 18H7V21H5z"/><path d="M5 13H7V16H5z"/></svg>