<svg xmlns="http://www.w3.org/2000/svg" width="24" height="24" viewBox="0 0 24 24"><g opacity="0.4"><path d="m17,2H6.5c-1.38,0-2.5,1.12-2.5,2.5v15c0,1.38,1.12,2.5,2.5,2.5h10.5c2.21,0,4-1.79,4-4V6c0-2.21-1.79-4-4-4Zm-5,6.55v-.05c0-.28.22-.5.5-.5s.5.22.5.5v.05c2.05.23,3.7,1.82,3.96,3.87.04.31-.18.59-.5.59h-7.93c-.31,0-.54-.28-.5-.59.27-2.04,1.91-3.64,3.96-3.87Zm4.5,6.45h-8c-.28,0-.5-.22-.5-.5s.22-.5.5-.5h8c.28,0,.5.22.5.5s-.22.5-.5.5Z"/></g><path d="m4,15h-1c-.55,0-1,.45-1,1s.45,1,1,1h1v-2Z"/><path d="m3,13h1v-2h-1c-.55,0-1,.45-1,1s.45,1,1,1Z"/><path d="m3,9h1v-2h-1c-.55,0-1,.45-1,1s.45,1,1,1Z"/><path d="m8.5,15h8c.28,0,.5-.22.5-.5s-.22-.5-.5-.5h-8c-.28,0-.5.22-.5.5s.22.5.5.5Z"/><path d="m8.53,13h7.93c.31,0,.54-.28.5-.59-.27-2.04-1.91-3.64-3.96-3.87v-.05c0-.28-.22-.5-.5-.5s-.5.22-.5.5v.05c-2.05.23-3.7,1.82-3.96,3.87-.04.31.18.59.5.59Z"/></svg>