<svg xmlns="http://www.w3.org/2000/svg" width="24" height="24" viewBox="0 0 24 24"><g opacity="0.4"><path d="m20.34,3.5c-.41-.28-.93-.33-1.4-.15l-.76.31c-1.97.79-4.16.64-6-.42-2.6-1.48-5.74-1.57-8.41-.23l-.21.1c-.34.17-.55.52-.55.89v11c0,.35.18.67.47.85.29.18.66.2.97.04l.21-.1c2.07-1.04,4.51-.97,6.53.18,1.37.78,2.89,1.18,4.42,1.18,1.12,0,2.25-.21,3.32-.64l1.13-.45c.57-.23.94-.78.94-1.39V4.74c0-.5-.25-.96-.66-1.24Z"/></g><path d="m4,22c.55,0,1-.45,1-1v-5.36c-.11.05-.23.09-.34.15l-.21.1c-.31.15-.68.14-.97-.04-.29-.18-.47-.5-.47-.85v6c0,.55.45,1,1,1Z"/></svg>