<svg xmlns="http://www.w3.org/2000/svg" width="24" height="24" viewBox="0 0 24 24"><g opacity="0.4"><path d="M16 13A1 1 0 1 0 16 15 1 1 0 1 0 16 13z"/><path d="m18,4v2h-2v2h2v6c0,1.1-.9,2-2,2s-2-.9-2-2v-4h2v-2h-2v-2h2v-2h-4.38c-.13,0-.26-.05-.35-.15l-1.12-1.12c-.47-.47-1.11-.73-1.77-.73h-3.88c-1.38,0-2.5,1.12-2.5,2.5v11.5c0,2.21,1.79,4,4,4h12c2.21,0,4-1.79,4-4v-8c0-2.21-1.79-4-4-4Z"/></g><path d="M14 6H16V8H14z"/><path d="m16,16c1.1,0,2-.9,2-2v-6h-2v2h-2v4c0,1.1.9,2,2,2Zm0-3c.55,0,1,.45,1,1s-.45,1-1,1-1-.45-1-1,.45-1,1-1Z"/><path d="M16 4H18V6H16z"/></svg>