<svg xmlns="http://www.w3.org/2000/svg" width="24" height="24" viewBox="0 0 24 24"><g opacity="0.4"><path d="m22,12c0-5.51-4.49-10-10-10S2,6.49,2,12s4.49,10,10,10c.27,0,.53-.02.8-.04.07.01.13.04.2.04h8c.55,0,1-.45,1-1s-.45-1-1-1h-3.03c2.44-1.83,4.03-4.73,4.03-8Zm-12,4c0-1.1.9-2,2-2s2,.9,2,2-.9,2-2,2-2-.9-2-2Zm6-2c-1.1,0-2-.9-2-2s.9-2,2-2,2,.9,2,2-.9,2-2,2Zm-2-6c0,1.1-.9,2-2,2s-2-.9-2-2,.9-2,2-2,2,.9,2,2Zm-6,2c1.1,0,2,.9,2,2s-.9,2-2,2-2-.9-2-2,.9-2,2-2Z"/></g><path d="M12 6A2 2 0 1 0 12 10 2 2 0 1 0 12 6z"/><path d="M16 10A2 2 0 1 0 16 14 2 2 0 1 0 16 10z"/><path d="M12 14A2 2 0 1 0 12 18 2 2 0 1 0 12 14z"/><path d="M8 10A2 2 0 1 0 8 14 2 2 0 1 0 8 10z"/></svg>