<svg xmlns="http://www.w3.org/2000/svg" width="24" height="24" viewBox="0 0 24 24"><g opacity="0.4"><path d="m19.91,10.2l1.17-2.35c-1.19-2.59-3.44-4.59-6.2-5.42l-2.35,1.57c-.32.21-.74.21-1.06,0l-2.35-1.57c-2.76.83-5.02,2.83-6.2,5.42l1.17,2.35c.16.32.13.71-.09,1l-1.85,2.46c.3,1.77,1.06,3.39,2.16,4.72h2c.36,0,.69.2.85.53l1.2,2.4c1.13.44,2.35.69,3.63.69s2.51-.25,3.64-.69l1.2-2.4c.16-.32.49-.53.86-.53h2.01c1.1-1.33,1.85-2.94,2.15-4.71l-1.85-2.46c-.22-.29-.25-.68-.09-1Zm-3.71,1.21l-1.42,3.79c-.14.37-.5.62-.9.62h-3.77c-.4,0-.76-.25-.9-.62l-1.42-3.79c-.15-.41-.01-.86.34-1.11l3.31-2.36c.33-.24.78-.24,1.11,0l3.31,2.36c.35.25.49.71.34,1.11Z"/></g><path d="m9.22,15.2c.14.37.5.62.9.62h3.77c.4,0,.76-.25.9-.62l1.42-3.79c.15-.41.01-.86-.34-1.11l-3.31-2.36c-.33-.24-.78-.24-1.11,0l-3.31,2.36c-.35.25-.49.71-.34,1.11l1.42,3.79Z"/><path d="m19.91,10.2c-.16.32-.13.71.09,1l1.85,2.46c.09-.54.15-1.1.15-1.66,0-1.48-.33-2.88-.91-4.15l-1.17,2.35Z"/><path d="m12.53,4l2.35-1.57c-.91-.28-1.88-.43-2.88-.43s-1.97.15-2.88.43l2.35,1.57c.32.21.74.21,1.06,0Z"/><path d="m19.7,18.38h-2.01c-.36,0-.69.2-.86.53l-1.2,2.4c1.59-.62,2.99-1.64,4.06-2.93Z"/><path d="m4.09,10.2l-1.17-2.35c-.58,1.27-.91,2.67-.91,4.15,0,.57.06,1.12.15,1.66l1.85-2.46c.22-.29.25-.68.09-1Z"/><path d="m8.37,21.31l-1.2-2.4c-.16-.32-.49-.53-.85-.53h-2c1.07,1.29,2.47,2.3,4.06,2.93Z"/></svg>