<svg xmlns="http://www.w3.org/2000/svg" width="24" height="24" viewBox="0 0 24 24"><g opacity="0.4"><path d="m4.95,17.1c.25.13.53.19.8.19.36,0,.71-.11,1.02-.33l4.96-3.54c.46-.33.73-.86.73-1.42s-.27-1.1-.73-1.42l-4.96-3.54c-.54-.38-1.23-.43-1.82-.13s-.95.9-.95,1.56v7.08c0,.66.36,1.25.95,1.56Z"/></g><path class="st0" d="M11.9,6.9C11.4,7.2,11,7.8,11,8.5v1.6l0.7,0.5c0.5,0.3,0.7,0.9,0.7,1.4s-0.3,1.1-0.7,1.4L11,13.9v1.6
	c0,0.7,0.4,1.3,0.9,1.6c0.2,0.1,0.5,0.2,0.8,0.2c0.4,0,0.7-0.1,1-0.3l5-3.5c0.5-0.3,0.7-0.9,0.7-1.4s-0.3-1.1-0.7-1.4l-5-3.5
	C13.2,6.7,12.5,6.6,11.9,6.9L11.9,6.9z"/></svg>