<svg xmlns="http://www.w3.org/2000/svg" width="24" height="24" viewBox="0 0 24 24"><g opacity="0.4"><path d="m13,6.5V2h-5c-2.21,0-4,1.79-4,4v12c0,2.21,1.79,4,4,4h8c2.21,0,4-1.79,4-4v-9h-4.5c-1.38,0-2.5-1.12-2.5-2.5Zm2.71,12.21c-.2.2-.45.29-.71.29s-.51-.1-.71-.29l-1.14-1.14c-.49.27-1.05.43-1.65.43-1.93,0-3.5-1.57-3.5-3.5s1.57-3.5,3.5-3.5,3.5,1.57,3.5,3.5c0,.6-.17,1.16-.43,1.65l1.14,1.14c.39.39.39,1.02,0,1.41Z"/><path d="M11.5 13A1.5 1.5 0 1 0 11.5 16 1.5 1.5 0 1 0 11.5 13z"/></g><path d="m14.71,2.29c-.19-.19-.44-.29-.71-.29h-1v4.5c0,1.38,1.12,2.5,2.5,2.5h4.5v-1c0-.27-.11-.52-.29-.71l-5-5Z"/><path d="m11.5,18c.6,0,1.16-.17,1.65-.43l1.14,1.14c.2.2.45.29.71.29s.51-.1.71-.29c.39-.39.39-1.02,0-1.41l-1.14-1.14c.27-.49.43-1.05.43-1.65,0-1.93-1.57-3.5-3.5-3.5s-3.5,1.57-3.5,3.5,1.57,3.5,3.5,3.5Zm0-5c.83,0,1.5.67,1.5,1.5s-.67,1.5-1.5,1.5-1.5-.67-1.5-1.5.67-1.5,1.5-1.5Z"/></svg>