<svg xmlns="http://www.w3.org/2000/svg" width="24" height="24" viewBox="0 0 24 24"><g opacity="0.4"><path d="M11.14 13.280000000000001A1.29 1.29 0 1 0 11.14 15.86 1.29 1.29 0 1 0 11.14 13.280000000000001z"/><path d="m13.71,6.21c-.35,0-.64.29-.64.64s.29.64.64.64.64-.29.64-.64-.29-.64-.64-.64Z"/><path d="m13.71,11.36c-.35,0-.64.29-.64.64s.29.64.64.64.64-.29.64-.64-.29-.64-.64-.64Z"/><path d="m11.14,8.14c-.71,0-1.29.58-1.29,1.29s.58,1.29,1.29,1.29,1.29-.58,1.29-1.29-.58-1.29-1.29-1.29Z"/><path d="M8.57 15.850000000000001A1.29 1.29 0 1 0 8.57 18.43 1.29 1.29 0 1 0 8.57 15.850000000000001z"/><path d="M8.57 10.71A1.29 1.29 0 1 0 8.57 13.29 1.29 1.29 0 1 0 8.57 10.71z"/><path d="M8.57 5.57A1.29 1.29 0 1 0 8.57 8.15 1.29 1.29 0 1 0 8.57 5.57z"/><path d="m16.29,8.79c-.36,0-.64.29-.64.64s.29.64.64.64.64-.29.64-.64-.29-.64-.64-.64Z"/><path d="m6,17.79v-1.29c1.07,0,1.93-.86,1.93-1.93s-.86-1.93-1.93-1.93v-1.29c1.07,0,1.93-.86,1.93-1.93s-.86-1.93-1.93-1.93v-1.29c1.07,0,1.93-.86,1.93-1.93,0-.5-.19-.94-.5-1.29h-.43c-2.21,0-4,1.79-4,4v10c0,2.21,1.79,4,4,4h.43c.31-.34.5-.79.5-1.29,0-1.07-.86-1.93-1.93-1.93Z"/><path d="m11.14,18.43c-.71,0-1.29.58-1.29,1.29s.58,1.29,1.29,1.29,1.29-.58,1.29-1.29-.58-1.29-1.29-1.29Z"/><path d="M11.14 3A1.29 1.29 0 1 0 11.14 5.58 1.29 1.29 0 1 0 11.14 3z"/><path d="m16.29,3.64c-.36,0-.64.29-.64.64s.29.64.64.64.64-.29.64-.64-.29-.64-.64-.64Z"/><path d="m13.71,16.5c-.35,0-.64.29-.64.64s.29.64.64.64.64-.29.64-.64-.29-.64-.64-.64Z"/><path d="m16.29,13.93c-.36,0-.64.29-.64.64s.29.64.64.64.64-.29.64-.64-.29-.64-.64-.64Z"/><path d="m16.29,19.07c-.36,0-.64.29-.64.64s.29.64.64.64.64-.29.64-.64-.29-.64-.64-.64Z"/></g><path d="m17,3h-5.86c.71,0,1.29.58,1.29,1.29s-.58,1.29-1.29,1.29-1.29-.58-1.29-1.29.58-1.29,1.29-1.29h-3.71c.31.34.5.79.5,1.29,0,1.07-.86,1.93-1.93,1.93v1.29c1.07,0,1.93.86,1.93,1.93s-.86,1.93-1.93,1.93v1.29c1.07,0,1.93.86,1.93,1.93s-.86,1.93-1.93,1.93v1.29c1.07,0,1.93.86,1.93,1.93,0,.5-.19.94-.5,1.29h3.71c-.71,0-1.29-.58-1.29-1.29s.58-1.29,1.29-1.29,1.29.58,1.29,1.29-.58,1.29-1.29,1.29h5.86c2.21,0,4-1.79,4-4V7c0-2.21-1.79-4-4-4Zm-9.71,3.86c0-.71.58-1.29,1.29-1.29s1.29.58,1.29,1.29-.58,1.29-1.29,1.29-1.29-.58-1.29-1.29Zm0,5.14c0-.71.58-1.29,1.29-1.29s1.29.58,1.29,1.29-.58,1.29-1.29,1.29-1.29-.58-1.29-1.29Zm1.29,6.43c-.71,0-1.29-.58-1.29-1.29s.58-1.29,1.29-1.29,1.29.58,1.29,1.29-.58,1.29-1.29,1.29Zm2.57-2.57c-.71,0-1.29-.58-1.29-1.29s.58-1.29,1.29-1.29,1.29.58,1.29,1.29-.58,1.29-1.29,1.29Zm0-5.14c-.71,0-1.29-.58-1.29-1.29s.58-1.29,1.29-1.29,1.29.58,1.29,1.29-.58,1.29-1.29,1.29Zm2.57,7.07c-.35,0-.64-.29-.64-.64s.29-.64.64-.64.64.29.64.64-.29.64-.64.64Zm0-5.14c-.35,0-.64-.29-.64-.64s.29-.64.64-.64.64.29.64.64-.29.64-.64.64Zm0-5.14c-.35,0-.64-.29-.64-.64s.29-.64.64-.64.64.29.64.64-.29.64-.64.64Zm2.57,12.86c-.36,0-.64-.29-.64-.64s.29-.64.64-.64.64.29.64.64-.29.64-.64.64Zm0-5.14c-.36,0-.64-.29-.64-.64s.29-.64.64-.64.64.29.64.64-.29.64-.64.64Zm0-5.14c-.36,0-.64-.29-.64-.64s.29-.64.64-.64.64.29.64.64-.29.64-.64.64Zm0-5.14c-.36,0-.64-.29-.64-.64s.29-.64.64-.64.64.29.64.64-.29.64-.64.64Z"/></svg>