<svg xmlns="http://www.w3.org/2000/svg" width="24" height="24" viewBox="0 0 24 24"><g opacity="0.4"><path d="m18,6H6c-2.21,0-4,1.79-4,4v3h20v-3c0-2.21-1.79-4-4-4Zm-4.5,5c-.83,0-1.5-.67-1.5-1.5s.67-1.5,1.5-1.5,1.5.67,1.5,1.5-.67,1.5-1.5,1.5Zm5,0c-.83,0-1.5-.67-1.5-1.5s.67-1.5,1.5-1.5,1.5.67,1.5,1.5-.67,1.5-1.5,1.5Z"/></g><path d="M13.5 8A1.5 1.5 0 1 0 13.5 11 1.5 1.5 0 1 0 13.5 8z"/><path d="M18.5 8A1.5 1.5 0 1 0 18.5 11 1.5 1.5 0 1 0 18.5 8z"/><path d="m4,13h-2v5c0,2.21,1.79,4,4,4h12c2.21,0,4-1.79,4-4v-5H4Zm12.5,2c.28,0,.5.22.5.5s-.22.5-.5.5-.5-.22-.5-.5.22-.5.5-.5Zm-2,0c.28,0,.5.22.5.5s-.22.5-.5.5-.5-.22-.5-.5.22-.5.5-.5Zm-2,0c.28,0,.5.22.5.5s-.22.5-.5.5-.5-.22-.5-.5.22-.5.5-.5Zm-2,0c.28,0,.5.22.5.5s-.22.5-.5.5-.5-.22-.5-.5.22-.5.5-.5Zm-2,0c.28,0,.5.22.5.5s-.22.5-.5.5-.5-.22-.5-.5.22-.5.5-.5Zm-2,0c.28,0,.5.22.5.5s-.22.5-.5.5-.5-.22-.5-.5.22-.5.5-.5Zm-1,3c-.28,0-.5-.22-.5-.5s.22-.5.5-.5.5.22.5.5-.22.5-.5.5Zm1,2c-.28,0-.5-.22-.5-.5s.22-.5.5-.5.5.22.5.5-.22.5-.5.5Zm1-2c-.28,0-.5-.22-.5-.5s.22-.5.5-.5.5.22.5.5-.22.5-.5.5Zm1,2c-.28,0-.5-.22-.5-.5s.22-.5.5-.5.5.22.5.5-.22.5-.5.5Zm1-2c-.28,0-.5-.22-.5-.5s.22-.5.5-.5.5.22.5.5-.22.5-.5.5Zm1,2c-.28,0-.5-.22-.5-.5s.22-.5.5-.5.5.22.5.5-.22.5-.5.5Zm1-2c-.28,0-.5-.22-.5-.5s.22-.5.5-.5.5.22.5.5-.22.5-.5.5Zm1,2c-.28,0-.5-.22-.5-.5s.22-.5.5-.5.5.22.5.5-.22.5-.5.5Zm1-2c-.28,0-.5-.22-.5-.5s.22-.5.5-.5.5.22.5.5-.22.5-.5.5Zm1,2c-.28,0-.5-.22-.5-.5s.22-.5.5-.5.5.22.5.5-.22.5-.5.5Zm1-2c-.28,0-.5-.22-.5-.5s.22-.5.5-.5.5.22.5.5-.22.5-.5.5Zm1,2c-.28,0-.5-.22-.5-.5s.22-.5.5-.5.5.22.5.5-.22.5-.5.5Zm1-2c-.28,0-.5-.22-.5-.5s.22-.5.5-.5.5.22.5.5-.22.5-.5.5Zm1,2c-.28,0-.5-.22-.5-.5s.22-.5.5-.5.5.22.5.5-.22.5-.5.5Zm0-4c-.28,0-.5-.22-.5-.5s.22-.5.5-.5.5.22.5.5-.22.5-.5.5Z"/><path d="m9,5c0-.55.45-1,1-1h4c.55,0,1,.45,1,1v1h2v-1c0-1.65-1.35-3-3-3h-4c-1.65,0-3,1.35-3,3v1h2v-1Z"/></svg>