<svg xmlns="http://www.w3.org/2000/svg" width="24" height="24" viewBox="0 0 24 24"><g opacity="0.4"><path d="m19.09,8H4.91c-1.04,0-1.9.79-1.99,1.82l-.66,7.37c-.18,2.05,1.43,3.81,3.49,3.81h12.52c2.06,0,3.67-1.76,3.49-3.81l-.66-7.37c-.09-1.03-.96-1.82-1.99-1.82Zm-2.25,4.25c-.56,2.16-2.52,3.75-4.84,3.75s-4.29-1.6-4.84-3.75c-.16-.63.32-1.25.97-1.25h0c.47,0,.85.34.98.8.35,1.27,1.51,2.2,2.89,2.2s2.54-.93,2.89-2.2c.13-.46.5-.8.98-.8h0c.65,0,1.13.62.97,1.25Z"/></g><path d="m4.91,8h13.45l.74-.74c.42-.42.7-.94.82-1.51.05-.08.08-.16.08-.26v-.5c0-.82-.32-1.52-.9-2.1-.96-.96-2.49-1.11-3.66-.5-.25.13-.49.29-.7.5l-2.04,2.04c-.64-1.71-2.27-2.94-4.21-2.94-2.48,0-4.5,2.02-4.5,4.5,0,.57.11,1.1.3,1.6.19-.06.39-.1.6-.1Z"/><path d="m15.87,11c-.47,0-.85.34-.98.8-.35,1.27-1.51,2.2-2.89,2.2s-2.54-.93-2.89-2.2c-.13-.46-.5-.8-.98-.8h0c-.65,0-1.13.62-.97,1.25.56,2.16,2.52,3.75,4.84,3.75s4.29-1.6,4.84-3.75c.16-.63-.32-1.25-.97-1.25h0Z"/></svg>