<svg xmlns="http://www.w3.org/2000/svg" width="24" height="24" viewBox="0 0 24 24"><g opacity="0.4"><path d="m9.08,6.65c-.2-.42-.33-.89-.33-1.4,0-.23.02-.45.07-.66-3.47,1.31-5.82,4.63-5.82,8.41,0,.55.07,1.1.17,1.64.51-.39,1.14-.64,1.83-.64.03,0,.05,0,.08,0-.05-.33-.08-.67-.08-1.01,0-2.77,1.63-5.23,4.08-6.35Z"/><path d="m15.18,4.59c.04.21.07.43.07.66,0,.5-.12.97-.33,1.4,2.45,1.12,4.08,3.58,4.08,6.35,0,.34-.03.68-.08,1.01.03,0,.05,0,.08,0,.69,0,1.32.24,1.83.64.1-.54.17-1.09.17-1.64,0-3.78-2.35-7.11-5.82-8.41Z"/><path d="m16.39,18.45c-1.24,1-2.77,1.55-4.39,1.55s-3.15-.55-4.39-1.55c-.34.6-.87,1.08-1.51,1.34,1.64,1.43,3.7,2.21,5.9,2.21s4.27-.78,5.9-2.21c-.65-.26-1.18-.74-1.51-1.34Z"/></g><path d="M12 2A3.25 3.25 0 1 0 12 8.5 3.25 3.25 0 1 0 12 2z"/><path d="M19 14A3 3 0 1 0 19 20 3 3 0 1 0 19 14z"/><path d="M5 14A3 3 0 1 0 5 20 3 3 0 1 0 5 14z"/></svg>