<svg xmlns="http://www.w3.org/2000/svg" width="24" height="24" viewBox="0 0 24 24"><g opacity="0.4"><path d="m4.84,11.33l.79-3.54c.1-.46.51-.78.98-.78h.4c.55,0,1-.45,1-1s-.45-1-1-1h-.4c-1.41,0-2.62.98-2.93,2.35l-1.65,7.43h.05c.25-1.57,1.32-2.88,2.77-3.46Z"/><path d="m17,7h.4c.47,0,.87.33.98.78l.79,3.54c1.45.58,2.52,1.89,2.77,3.47h.05s-1.65-7.44-1.65-7.44c-.3-1.37-1.52-2.35-2.93-2.35h-.4c-.55,0-1,.45-1,1s.45,1,1,1Z"/><path d="m10.95,16h2.1c-.02-.17-.05-.33-.05-.5,0-.53.11-1.03.28-1.5h-2.55c.17.47.28.97.28,1.5,0,.17-.03.33-.05.5Z"/></g><path d="M6.5 11A4.5 4.5 0 1 0 6.5 20 4.5 4.5 0 1 0 6.5 11z"/><path d="M17.5 11A4.5 4.5 0 1 0 17.5 20 4.5 4.5 0 1 0 17.5 11z"/></svg>