<svg xmlns="http://www.w3.org/2000/svg" width="24" height="24" viewBox="0 0 24 24"><g opacity="0.4"><path d="m3,11h1.39l1.11-3.32c.14-.41.52-.68.95-.68h.56c.55,0,1-.45,1-1s-.45-1-1-1h-.56c-1.29,0-2.44.83-2.85,2.05l-1.54,4.63h.01c.13-.39.5-.68.94-.68Z"/><path d="m17,7h.56c.43,0,.81.28.95.68l1.11,3.32h1.39c.44,0,.8.29.94.69h.01s-1.54-4.64-1.54-4.64c-.41-1.22-1.55-2.05-2.85-2.05h-.56c-.55,0-1,.45-1,1s.45,1,1,1Z"/><path d="m14,11h-4c.55,0,1,.45,1,1v1h2v-1c0-.55.45-1,1-1Z"/></g><path d="m10,11H3c-.55,0-1,.45-1,1v4c0,1.65,1.35,3,3,3h3c1.65,0,3-1.35,3-3v-4c0-.55-.45-1-1-1Z"/><path d="m21,11h-7c-.55,0-1,.45-1,1v4c0,1.65,1.35,3,3,3h3c1.65,0,3-1.35,3-3v-4c0-.55-.45-1-1-1Z"/></svg>