<svg xmlns="http://www.w3.org/2000/svg" width="24" height="24" viewBox="0 0 24 24"><g opacity="0.4"><path d="M13 17H17V19H13z"/><path d="M7 17H11V19H7z"/><path d="m2,18c0,.55.45,1,1,1h2v-2h-2c-.55,0-1,.45-1,1Z"/><path d="m21,17h-2v2h2c.55,0,1-.45,1-1s-.45-1-1-1Z"/><path d="M13 11H17V13H13z"/><path d="M7 11H11V13H7z"/><path d="m21,11h-2v2h2c.55,0,1-.45,1-1s-.45-1-1-1Z"/><path d="m2,12c0,.55.45,1,1,1h2v-2h-2c-.55,0-1,.45-1,1Z"/><path d="M7 5H11V7H7z"/><path d="M13 5H17V7H13z"/><path d="m21,5h-2v2h2c.55,0,1-.45,1-1s-.45-1-1-1Z"/><path d="m2,6c0,.55.45,1,1,1h2v-2h-2c-.55,0-1,.45-1,1Z"/></g><path d="m7,3c0-.55-.45-1-1-1s-1,.45-1,1v18c0,.55.45,1,1,1s1-.45,1-1V3Z"/><path d="m13,3c0-.55-.45-1-1-1s-1,.45-1,1v18c0,.55.45,1,1,1s1-.45,1-1V3Z"/><path d="m19,3c0-.55-.45-1-1-1s-1,.45-1,1v18c0,.55.45,1,1,1s1-.45,1-1V3Z"/></svg>