<svg xmlns="http://www.w3.org/2000/svg" width="24" height="24" viewBox="0 0 24 24"><g opacity="0.4"><path d="m18.67,5h-1.67v14h1.67c2.39,0,4.33-1.92,4.33-4.27v-5.45c0-2.36-1.94-4.27-4.33-4.27Zm1.33,11c-.55,0-1-.45-1-1s.45-1,1-1,1,.45,1,1-.45,1-1,1Z"/><path d="m1,9.27v5.45c0,2.36,1.94,4.27,4.33,4.27h1.67V5h-1.67c-2.39,0-4.33,1.92-4.33,4.27Zm3,.73c-.55,0-1-.45-1-1s.45-1,1-1,1,.45,1,1-.45,1-1,1Z"/></g><path d="M20 14A1 1 0 1 0 20 16 1 1 0 1 0 20 14z"/><path d="M4 8A1 1 0 1 0 4 10 1 1 0 1 0 4 8z"/><path d="M7 5H17V19H7z"/></svg>