<svg xmlns="http://www.w3.org/2000/svg" width="24" height="24" viewBox="0 0 24 24"><g opacity="0.4"><path d="M12 2A2 2 0 1 0 12 6 2 2 0 1 0 12 2z"/><path d="m18.91,2.29h0c-.48,0-.89.35-.98.83-.27,1.52-1.28,2.84-2.73,3.48-.61.27-1.25.41-1.91.41h-2.58c-.95,0-1.86.19-2.73.58-2.07.92-3.51,2.81-3.89,4.99-.1.6.38,1.15.99,1.15h0c.48,0,.89-.35.98-.83.27-1.52,1.28-2.84,2.73-3.48.07-.03.14-.04.2-.07v11.66c0,.55.45,1,1,1s1-.45,1-1v-6h2v6c0,.55.45,1,1,1s1-.45,1-1v-12.23c.34-.09.68-.2,1.01-.35,2.07-.92,3.51-2.81,3.89-4.99.1-.6-.38-1.15-.99-1.15Z"/></g><rect x="3" y="16" width="4" height="6" rx="1" ry="1"/></svg>