<svg xmlns="http://www.w3.org/2000/svg" width="24" height="24" viewBox="0 0 24 24"><g opacity="0.4"><path d="m3,15c0,.55.45,1,1,1h2.18l.47-2h-2.65c-.55,0-1,.45-1,1Z"/><path d="M8.23 16 13.88 16 14.35 14 8.71 14 8.23 16z"/><path d="m19,14h-2.59l-.47,2h3.07c.55,0,1-.45,1-1s-.45-1-1-1Z"/><path d="M9.65 10 15.29 10 15.77 8 10.12 8 9.65 10z"/><path d="m20,8h-2.18l-.47,2h2.65c.55,0,1-.45,1-1s-.45-1-1-1Z"/><path d="m4,9c0,.55.45,1,1,1h2.59l.47-2h-3.07c-.55,0-1,.45-1,1Z"/></g><path d="m8.83,4.77l-3.3,14c-.13.54.21,1.08.74,1.2.08.02.15.03.23.03.45,0,.86-.31.97-.77l3.3-14c.13-.54-.21-1.08-.74-1.2-.54-.13-1.08.21-1.2.74Z"/><path d="m16.53,4.77l-3.3,14c-.13.54.21,1.08.74,1.2.08.02.15.03.23.03.45,0,.86-.31.97-.77l3.3-14c.13-.54-.21-1.08-.74-1.2-.54-.13-1.08.21-1.2.74Z"/></svg>