<svg xmlns="http://www.w3.org/2000/svg" width="24" height="24" viewBox="0 0 24 24"><g opacity="0.4"><path d="m7,8.66c0-1.39.38-2.02.86-2.82.42-.69.88-1.46,1.06-2.68.09-.61-.37-1.17-.99-1.17-.51,0-.91.38-.99.89-.13.82-.43,1.33-.8,1.93-.54.89-1.14,1.9-1.14,3.85s.61,2.96,1.14,3.85c.48.8.86,1.43.86,2.82s-.38,2.02-.86,2.82c-.42.69-.88,1.46-1.06,2.68-.09.61.37,1.17.99,1.17h0c.51,0,.91-.38.99-.89.13-.82.43-1.33.8-1.93.54-.89,1.14-1.9,1.14-3.85s-.61-2.96-1.14-3.85c-.48-.8-.86-1.43-.86-2.82Z"/><path d="m17,8.66c0-1.39.38-2.02.86-2.82.42-.69.88-1.46,1.06-2.68.09-.61-.37-1.17-.99-1.17-.51,0-.91.38-.99.89-.13.82-.43,1.33-.8,1.93-.54.89-1.14,1.9-1.14,3.85s.61,2.96,1.14,3.85c.48.8.86,1.43.86,2.82s-.38,2.02-.86,2.82c-.42.69-.88,1.46-1.06,2.68-.09.61.37,1.17.99,1.17h0c.51,0,.91-.38.99-.89.13-.82.43-1.33.8-1.93.54-.89,1.14-1.9,1.14-3.85s-.61-2.96-1.14-3.85c-.48-.8-.86-1.43-.86-2.82Z"/></g><path d="m12,8.66c0-1.39.38-2.02.86-2.82.42-.69.88-1.46,1.06-2.68.09-.61-.37-1.17-.99-1.17-.51,0-.91.38-.99.89-.13.82-.43,1.33-.8,1.93-.54.89-1.14,1.9-1.14,3.85s.61,2.96,1.14,3.85c.48.8.86,1.43.86,2.82s-.38,2.02-.86,2.82c-.42.69-.88,1.46-1.06,2.68-.09.61.37,1.17.99,1.17h0c.51,0,.91-.38.99-.89.13-.82.43-1.33.8-1.93.54-.89,1.14-1.9,1.14-3.85s-.61-2.96-1.14-3.85c-.48-.8-.86-1.43-.86-2.82Z"/></svg>