<svg xmlns="http://www.w3.org/2000/svg" width="24" height="24" viewBox="0 0 24 24"><g opacity="0.4"><path d="M14 16A1 1 0 1 0 14 18 1 1 0 1 0 14 16z"/><path d="m20.38,5.39c-.3-1.97-1.97-3.39-3.95-3.39H7.57c-1.99,0-3.65,1.43-3.95,3.39l-1.57,10.23c-.03.2-.05.41-.05.61v.77c0-2.21,1.79-4,4-4h12c2.21,0,4,1.79,4,4v-.77c0-.2-.02-.41-.05-.61l-1.57-10.23Z"/><path d="M18 16A1 1 0 1 0 18 18 1 1 0 1 0 18 16z"/></g><path d="m18,13H6c-2.21,0-4,1.79-4,4s1.79,4,4,4h12c2.21,0,4-1.79,4-4s-1.79-4-4-4Zm-4,5c-.55,0-1-.45-1-1s.45-1,1-1,1,.45,1,1-.45,1-1,1Zm4,0c-.55,0-1-.45-1-1s.45-1,1-1,1,.45,1,1-.45,1-1,1Z"/></svg>