<svg xmlns="http://www.w3.org/2000/svg" width="24" height="24" viewBox="0 0 24 24"><g opacity="0.4"><path d="m12,2C6.49,2,2,6.49,2,12s4.49,10,10,10,10-4.49,10-10S17.51,2,12,2Zm-5,9c0,.55-.45,1-1,1s-1-.45-1-1c0-1.65,1.35-3,3-3s3,1.35,3,3c0,.55-.45,1-1,1s-1-.45-1-1-.45-1-1-1-1,.45-1,1Zm9.57,4.08c-.6,1.18-1.94,2.92-4.57,2.92s-3.97-1.74-4.57-2.92c-.25-.49.12-1.08.67-1.08h7.79c.56,0,.93.58.67,1.08Zm1.43-3.08c-.55,0-1-.45-1-1s-.45-1-1-1-1,.45-1,1-.45,1-1,1-1-.45-1-1c0-1.65,1.35-3,3-3s3,1.35,3,3c0,.55-.45,1-1,1Z"/></g><path d="m14,12c.55,0,1-.45,1-1s.45-1,1-1,1,.45,1,1,.45,1,1,1,1-.45,1-1c0-1.65-1.35-3-3-3s-3,1.35-3,3c0,.55.45,1,1,1Z"/><path d="m6,12c.55,0,1-.45,1-1s.45-1,1-1,1,.45,1,1,.45,1,1,1,1-.45,1-1c0-1.65-1.35-3-3-3s-3,1.35-3,3c0,.55.45,1,1,1Z"/><path d="m8.1,14c-.56,0-.93.58-.67,1.08.6,1.18,1.94,2.92,4.57,2.92s3.97-1.74,4.57-2.92c.25-.49-.12-1.08-.67-1.08h-7.79Z"/></svg>