<svg xmlns="http://www.w3.org/2000/svg" width="24" height="24" viewBox="0 0 24 24"><g opacity="0.4"><path d="m12.71,2.29c-.39-.39-1.02-.39-1.41,0L2.29,11.29c-.29.29-.37.72-.22,1.09.15.37.52.62.92.62h1v6c0,1.65,1.35,3,3,3h10c1.65,0,3-1.35,3-3v-6h1c.4,0,.77-.24.92-.62.16-.37.07-.8-.22-1.09L12.71,2.29Zm2.64,12.42l-2.82,2.77c-.29.29-.76.29-1.05,0l-2.82-2.77s-.04-.04-.06-.06c-.82-.85-.79-2.2.06-3.01.87-.86,2.26-.86,3.12,0l.22.22.22-.22c.87-.86,2.26-.86,3.12,0,.02.02.04.04.06.06.82.85.79,2.2-.06,3.01Z"/></g><path d="m11.47,17.48c.29.29.76.29,1.05,0l2.82-2.77c.85-.82.87-2.16.06-3.01-.02-.02-.04-.04-.06-.06-.87-.86-2.26-.86-3.12,0l-.22.22-.22-.22c-.87-.86-2.26-.86-3.12,0-.85.82-.87,2.16-.06,3.01.02.02.04.04.06.06l2.82,2.77Z"/></svg>