<svg xmlns="http://www.w3.org/2000/svg" width="24" height="24" viewBox="0 0 24 24"><g opacity="0.4"><path d="m13.85,8.85c-.32-.31-.85-.09-.85.35v1.79h-4c-.55,0-1,.45-1,1s.45,1,1,1h4v1.79c0,.45.54.67.85.35l2.79-2.79c.2-.2.2-.51,0-.71l-2.79-2.79Z"/></g><path d="m20,3c-.55,0-1,.45-1,1v1c0,.55.45,1,1,1s1-.45,1-1v-1c0-.55-.45-1-1-1Z"/><path d="m20,8c-.55,0-1,.45-1,1v1c0,.55.45,1,1,1s1-.45,1-1v-1c0-.55-.45-1-1-1Z"/><path d="m20,13c-.55,0-1,.45-1,1v1c0,.55.45,1,1,1s1-.45,1-1v-1c0-.55-.45-1-1-1Z"/><path d="m20,18c-.55,0-1,.45-1,1v1c0,.55.45,1,1,1s1-.45,1-1v-1c0-.55-.45-1-1-1Z"/></svg>