<svg xmlns="http://www.w3.org/2000/svg" width="24" height="24" viewBox="0 0 24 24"><g opacity="0.4"><path d="m17.5,10c-1.25,0-2.41.6-3.27,1.72-.9,1.19-2.77,1.1-4.16.82.57-.69.93-1.57.93-2.54,0-2.21-1.79-4-4-4s-4,1.79-4,4c0,.55.45,1,1,1s1-.45,1-1c0-1.1.9-2,2-2s2,.9,2,2-.9,2-2,2c-.55,0-1,.45-1,1s.45,1,1,1c1.65,0,3,1.35,3,3s-1.35,3-3,3-3-1.35-3-3c0-.55-.45-1-1-1s-1,.45-1,1c0,2.76,2.24,5,5,5s5-2.24,5-5c0-.83-.22-1.6-.58-2.29,1.58.05,3.3-.32,4.4-1.78.94-1.2,2.44-1.2,3.37,0,.53.67.81,1.59.81,2.57s-.29,1.89-.81,2.57c-.94,1.2-2.44,1.2-3.37,0-.34-.44-.97-.52-1.4-.18-.44.34-.51.97-.17,1.4.85,1.1,2.01,1.7,3.26,1.7s2.41-.6,3.26-1.7c.8-1.02,1.24-2.37,1.24-3.8s-.44-2.77-1.24-3.8c-.85-1.1-2.01-1.7-3.26-1.7Z"/></g><path class="st0" d="M21,2c-0.5,0-1,0.5-1,1c0,1.7-1.6,3-3.5,3S13,4.7,13,3c0-0.5-0.4-1-1-1s-1,0.5-1,1c0,2.8,2.5,5,5.5,5
	S22,5.8,22,3C22,2.5,21.5,2,21,2z"/><path class="st0" d="M15.4,3.1l0.4-0.4l0.4-0.4c0.1-0.1,0.2-0.1,0.4-0.1c0.1,0,0.3,0,0.4,0.1l0.4,0.4l0.4,0.4
	c0.1,0.1,0.1,0.2,0.1,0.4s0,0.3-0.1,0.4l-0.4,0.4l-0.4,0.4c-0.1,0.1-0.2,0.1-0.4,0.1c-0.1,0-0.3,0-0.4-0.1l-0.4-0.4l-0.4-0.4
	c-0.1-0.1-0.1-0.2-0.1-0.4S15.3,3.2,15.4,3.1z"/></svg>