<svg xmlns="http://www.w3.org/2000/svg" width="24" height="24" viewBox="0 0 24 24"><g opacity="0.4"><path d="m12.71,2.29c-.39-.39-1.02-.39-1.41,0L2.29,11.29c-.29.29-.37.72-.22,1.09.15.37.52.62.92.62h1v6c0,1.65,1.35,3,3,3h10c1.65,0,3-1.35,3-3v-6h1c.4,0,.77-.24.92-.62.16-.37.07-.8-.22-1.09L12.71,2.29Zm2.29,12.71h-2v2c0,.55-.45,1-1,1s-1-.45-1-1v-2h-2c-.55,0-1-.45-1-1s.45-1,1-1h2v-2c0-.55.45-1,1-1s1,.45,1,1v2h2c.55,0,1,.45,1,1s-.45,1-1,1Z"/></g><path d="m12,18c.55,0,1-.45,1-1v-2h2c.55,0,1-.45,1-1s-.45-1-1-1h-2v-2c0-.55-.45-1-1-1s-1,.45-1,1v2h-2c-.55,0-1,.45-1,1s.45,1,1,1h2v2c0,.55.45,1,1,1Z"/></svg>