<svg xmlns="http://www.w3.org/2000/svg" width="24" height="24" viewBox="0 0 24 24"><g opacity="0.4"><path d="m12,2C6.49,2,2,6.49,2,12s4.49,10,10,10,10-4.49,10-10S17.51,2,12,2Zm0,16c-.55,0-1-.45-1-1s.45-1,1-1,1,.45,1,1-.45,1-1,1Zm.33-4.06c-.11.04-.22.06-.33.06-.41,0-.8-.26-.94-.67-.18-.52.09-1.09.62-1.27.58-.2,2.24-1.03,2.24-2.07,0-.82-.54-1.57-1.32-1.86-1.04-.38-2.28.19-2.65,1.21-.19.52-.76.79-1.28.6-.52-.19-.79-.76-.6-1.28.75-2.06,3.13-3.16,5.21-2.41,1.56.57,2.62,2.07,2.64,3.73,0,2.69-3.44,3.91-3.58,3.96Z"/></g><path d="M12 16A1 1 0 1 0 12 18 1 1 0 1 0 12 16z"/><path d="m15.91,9.98c-.01-1.66-1.07-3.16-2.64-3.73-2.08-.76-4.47.35-5.21,2.41-.19.52.08,1.09.6,1.28.52.19,1.09-.08,1.28-.6.37-1.02,1.61-1.59,2.65-1.21.78.28,1.31,1.03,1.32,1.86,0,1.04-1.66,1.86-2.24,2.07-.52.18-.8.75-.62,1.27.14.41.53.67.94.67.11,0,.22-.02.33-.06.15-.05,3.58-1.28,3.58-3.96Z"/></svg>