<svg xmlns="http://www.w3.org/2000/svg" width="24" height="24" viewBox="0 0 24 24"><g opacity="0.4"><path d="M5.5 2A2.5 2.5 0 1 0 5.5 7 2.5 2.5 0 1 0 5.5 2z"/><path d="m20.5,13H3c-.55,0-1,.45-1,1v4c0,2.21,1.79,4,4,4h12c2.21,0,4-1.79,4-4v-3.5c0-.83-.67-1.5-1.5-1.5Z"/></g><path d="m15.05,10c.52,0,.94-.4.99-.92.12-1.17.46-1.86.85-2.63.43-.85.9-1.8,1.05-3.36.06-.58-.41-1.09-1-1.09-.52,0-.94.4-.99.92-.12,1.17-.46,1.86-.85,2.63-.43.85-.9,1.8-1.05,3.36-.06.58.41,1.09,1,1.09Z"/><path d="m19.05,10c.52,0,.94-.4.99-.92.12-1.17.46-1.86.85-2.63.43-.85.9-1.8,1.05-3.36.06-.58-.41-1.09-1-1.09-.52,0-.94.4-.99.92-.12,1.17-.46,1.86-.85,2.63-.43.85-.9,1.8-1.05,3.36-.06.58.41,1.09,1,1.09Z"/><path d="m3,13h8.53c-1.7-3.02-2.78-5-5.53-5-2.21,0-4,2.33-4,5.83v.17c0-.55.45-1,1-1Z"/></svg>