<svg xmlns="http://www.w3.org/2000/svg" width="24" height="24" viewBox="0 0 24 24"><g opacity="0.4"><path d="m12.82,3.03c-.54-.05-1.1-.05-1.64,0-2.97.24-5.58,1.88-7.15,4.48-1.27,2.11-1.68,4.6-1.23,6.96l1.87-.93c-.2-1.72.16-3.48,1.08-5,1.24-2.05,3.28-3.33,5.6-3.52.43-.04.87-.04,1.31,0,2.32.19,4.36,1.47,5.6,3.52.91,1.52,1.28,3.28,1.08,5l1.87.93c.46-2.37.04-4.86-1.23-6.96-1.57-2.61-4.18-4.24-7.15-4.48Z"/></g><path d="m4.66,19.42c.22.5.64.9,1.15,1.09.22.08.45.12.69.12.31,0,.62-.07.9-.21l.23-.11c.92-.46,1.35-1.57.96-2.53l-1.25-3.14c-.21-.52-.62-.93-1.15-1.13-.49-.19-1.04-.17-1.52.04,0,0,0,0,0,0l-1.87.93c.13.68.32,1.35.6,2l1.26,2.94Z"/><path d="m16.38,20.31l.23.11c.49.25,1.07.28,1.58.09.52-.19.94-.59,1.15-1.09l1.26-2.94c.28-.65.47-1.32.6-2l-1.87-.93s0,0,0,0c-.48-.21-1.03-.23-1.52-.04-.52.2-.94.61-1.15,1.13l-1.25,3.14c-.38.96.04,2.07.96,2.53Z"/></svg>