<svg xmlns="http://www.w3.org/2000/svg" width="24" height="24" viewBox="0 0 24 24"><g opacity="0.4"><path d="m13.06,10.65s-.01,0-.02-.01c.1-.45.4-.86.89-1.13,1.69-.93,2.46-2.88,1.88-4.76-.37-1.21-1.35-2.19-2.56-2.56-1.26-.39-2.58-.18-3.62.59-1.02.75-1.63,1.96-1.63,3.22,0,.55.45,1,1,1s1-.45,1-1c0-.64.3-1.23.81-1.61.53-.39,1.18-.49,1.84-.29.58.18,1.06.66,1.24,1.24.35,1.12-.22,2.02-.93,2.41-1.11.61-1.81,1.63-1.94,2.83-.03.02-.06.03-.09.06l-7.79,7.79c-.43.43-.56,1.07-.32,1.63.23.56.78.93,1.39.93h15.59c.61,0,1.15-.36,1.39-.93.23-.56.11-1.2-.33-1.63l-7.79-7.79Zm-7.65,8.35l6.59-6.59,6.59,6.59H5.41Z"/></g></svg>