<svg xmlns="http://www.w3.org/2000/svg" width="24" height="24" viewBox="0 0 24 24"><g opacity="0.4"><path d="m17,3H7c-2.21,0-4,1.79-4,4v10c0,2.21,1.79,4,4,4h10c2.21,0,4-1.79,4-4V7c0-2.21-1.79-4-4-4Zm.03,14H7c-.41,0-.65-.47-.4-.8l1.91-2.55c.22-.3.68-.26.85.08l.23.46c.18.35.67.37.88.03l1.94-3.24c.28-.46.94-.49,1.25-.05l3.77,5.28c.24.33,0,.79-.41.79Z"/></g><path d="m7,17h10.03c.41,0,.64-.46.41-.79l-3.77-5.28c-.31-.44-.98-.41-1.25.05l-1.94,3.24c-.2.34-.7.32-.88-.03l-.23-.46c-.17-.33-.62-.37-.85-.08l-1.91,2.55c-.25.33-.01.8.4.8Z"/></svg>