<svg xmlns="http://www.w3.org/2000/svg" width="24" height="24" viewBox="0 0 24 24"><g opacity="0.4"><path d="m17,2H7c-2.21,0-4,1.79-4,4v12c0,2.21,1.79,4,4,4h10c2.21,0,4-1.79,4-4V6c0-2.21-1.79-4-4-4Zm-10,7.5c0-.83.67-1.5,1.5-1.5s1.5.67,1.5,1.5-.67,1.5-1.5,1.5-1.5-.67-1.5-1.5Zm9.12,6.74h-8.05c-.42,0-.66-.49-.38-.82l1.29-1.55c.28-.34.79-.36,1.11-.05l.54.54c.21.21.54.19.73-.03l1.97-2.3c.33-.39.95-.34,1.21.1l2.01,3.35c.2.33-.04.76-.43.76Z"/></g><path d="m8.97,13.87l-1.29,1.55c-.27.33-.04.82.38.82h8.05c.39,0,.63-.42.43-.76l-2.01-3.35c-.26-.44-.88-.49-1.21-.1l-1.97,2.3c-.19.22-.53.23-.73.03l-.54-.54c-.31-.31-.82-.29-1.11.05Z"/><path d="M8.5 8A1.5 1.5 0 1 0 8.5 11 1.5 1.5 0 1 0 8.5 8z"/></svg>