<svg xmlns="http://www.w3.org/2000/svg" width="24" height="24" viewBox="0 0 24 24"><g opacity="0.4"><path d="m12,11.5c-4.13,0-6.29,2.44-7.13,4.3.29.12.61.2,1.13.2.76,0,1.09-.17,1.55-.39.54-.27,1.21-.61,2.45-.61s1.91.34,2.45.61c.46.23.79.39,1.55.39s1.1-.17,1.56-.39c.54-.27,1.21-.61,2.45-.61.45,0,.8.05,1.12.12-.68-1.27-2.57-3.62-7.12-3.62Z"/></g><path d="m21.23,19.92c-.29-.07-.52-.18-.78-.32-.54-.27-1.21-.61-2.45-.61s-1.91.34-2.45.61c-.46.23-.79.39-1.56.39s-1.09-.17-1.55-.39c-.54-.27-1.21-.61-2.45-.61s-1.91.34-2.45.61c-.46.23-.79.39-1.55.39s-1.09-.17-1.55-.39c-.32-.16-.69-.34-1.19-.47-.64-.16-1.26.31-1.26.97,0,.46.32.86.77.97.29.07.51.18.78.31.54.27,1.21.61,2.45.61s1.91-.34,2.45-.61c.46-.23.79-.39,1.55-.39s1.09.17,1.55.39c.54.27,1.21.61,2.45.61s1.91-.34,2.45-.61c.46-.23.79-.39,1.56-.39s1.1.17,1.56.39c.32.16.69.34,1.19.47.64.15,1.26-.31,1.26-.97,0-.46-.32-.86-.77-.97Z"/><path d="m21.23,15.92c-.29-.07-.52-.18-.78-.32-.54-.27-1.21-.61-2.45-.61s-1.91.34-2.45.61c-.46.23-.79.39-1.56.39s-1.09-.17-1.55-.39c-.54-.27-1.21-.61-2.45-.61s-1.91.34-2.45.61c-.46.23-.79.39-1.55.39s-1.09-.17-1.55-.39c-.32-.16-.69-.34-1.19-.47-.64-.16-1.26.31-1.26.97,0,.46.32.86.77.97.29.07.51.18.78.31.54.27,1.21.61,2.45.61s1.91-.34,2.45-.61c.46-.23.79-.39,1.55-.39s1.09.17,1.55.39c.54.27,1.21.61,2.45.61s1.91-.34,2.45-.61c.46-.23.79-.39,1.56-.39s1.1.17,1.56.39c.32.16.69.34,1.19.47.64.15,1.26-.31,1.26-.97,0-.46-.32-.86-.77-.97Z"/><path d="m7.22,7.35c.18,0,.37-.05.53-.16l1.5-.69c.05-.02.11-.03.16-.05-.84,1.31-1.75,3.38-1.89,6.27.59-.38,1.29-.7,2.09-.92.28-2.13,1.02-3.62,1.64-4.51,0,.04.01.08.02.12.01.11.02.23.03.35,0,.12,0,.23,0,.36,0,.12,0,.25-.01.37-.04.55.38,1.03.93,1.06.02,0,.04,0,.07,0,.52,0,.96-.41,1-.93.01-.17.02-.34.02-.5,0-.16,0-.33-.01-.48,0-.16-.02-.31-.04-.46-.02-.15-.04-.3-.07-.45,0-.02,0-.04-.01-.06.06.02.12.04.17.07.12.05.24.11.36.17.12.06.24.13.37.2.48.27,1.09.11,1.36-.37.27-.48.11-1.09-.37-1.36-.16-.09-.31-.17-.46-.25-.15-.08-.31-.15-.46-.22-.15-.07-.3-.13-.45-.18-.15-.06-.3-.11-.45-.15-.15-.04-.29-.09-.44-.12-.15-.04-.29-.07-.44-.09-.02,0-.04,0-.06,0-.04-.07-.08-.14-.12-.21-.06-.1-.13-.2-.19-.29-.07-.1-.13-.19-.2-.27-.07-.09-.13-.17-.21-.26-.07-.08-.14-.16-.21-.24-.07-.08-.14-.15-.21-.22-.07-.07-.14-.14-.21-.21-.07-.07-.14-.13-.2-.18-.07-.06-.14-.12-.21-.18l-.86-.62c-.47-.29-1.09-.15-1.38.32-.29.47-.15,1.09.32,1.38l1.06.97s-.04,0-.06,0c-.12.02-.23.04-.34.07-.11.02-.22.05-.32.08-.11.03-.21.06-.31.09l-.29.09c-.09.03-.19.07-.27.1-.09.03-.18.07-.26.11l-1.17.61c-.47.3-.61.91-.31,1.38.19.3.51.46.85.46Z"/></svg>