<svg xmlns="http://www.w3.org/2000/svg" width="24" height="24" viewBox="0 0 24 24"><g opacity="0.4"><path d="m18,11c-.27,0-.52-.11-.71-.29l-5.29-5.29-5.29,5.29c-.19.19-.44.29-.71.29H2v7.5c0,1.38,1.12,2.5,2.5,2.5h5.5v-5h4v5h5.5c1.38,0,2.5-1.12,2.5-2.5v-7.5h-4Zm-11,5h-2v-3h2v3Zm5-3.11c-1.1,0-2-.9-2-2s.9-2,2-2,2,.9,2,2-.9,2-2,2Zm7,3.11h-2v-3h2v3Z"/></g><path d="M12 8.89A2 2 0 1 0 12 12.89 2 2 0 1 0 12 8.89z"/><path d="M5 13H7V16H5z"/><path d="M17 13H19V16H17z"/><path d="m20.31,5.38c-.43-.85-1.28-1.38-2.24-1.38h-4.66l-.71-.71c-.39-.39-1.02-.39-1.41,0l-.71.71h-4.66c-.95,0-1.81.53-2.24,1.38l-1.58,3.17c-.07.14-.11.29-.11.45h0v2h4c.27,0,.52-.11.71-.29l5.29-5.29,5.29,5.29c.19.19.44.29.71.29h4v-2c0-.16-.04-.31-.11-.45l-1.59-3.17Z"/><path d="M10 16H14V21H10z"/></svg>