<svg xmlns="http://www.w3.org/2000/svg" width="24" height="24" viewBox="0 0 24 24"><g opacity="0.4"><path d="m18,2h-8c-2.21,0-4,1.79-4,4v8c0,2.21,1.79,4,4,4h8c2.21,0,4-1.79,4-4V6c0-2.21-1.79-4-4-4Zm.25,12h-8.5c-.41,0-.56-.28-.33-.62l1.17-1.75c.23-.34.64-.4.92-.12.28.27.7.23.95-.1l2.1-2.8c.25-.33.64-.32.87.02l3.17,4.75c.23.34.08.62-.33.62Z"/></g><path d="m15,22c.55,0,1-.45,1-1s-.45-1-1-1H6c-1.1,0-2-.9-2-2v-9c0-.55-.45-1-1-1s-1,.45-1,1v9c0,2.21,1.79,4,4,4h9Z"/><path d="m9.75,14h8.5c.41,0,.56-.28.33-.62l-3.17-4.75c-.23-.34-.62-.35-.87-.02l-2.1,2.8c-.25.33-.67.38-.95.1-.28-.28-.69-.22-.92.12l-1.17,1.75c-.23.34-.08.62.33.62Z"/></svg>