<svg xmlns="http://www.w3.org/2000/svg" width="24" height="24" viewBox="0 0 24 24"><g opacity="0.4"><path d="m18,5H6c-1.1,0-2,.9-2,2v5h2.54c.86,0,1.64.43,2.09,1.14.74,1.16,2,1.86,3.37,1.86s2.63-.7,3.37-1.86c.45-.71,1.23-1.14,2.09-1.14h2.54v-5c0-1.1-.9-2-2-2Z"/></g><path d="m18,3H6c-2.21,0-4,1.79-4,4v10c0,2.21,1.79,4,4,4h12c2.21,0,4-1.79,4-4V7c0-2.21-1.79-4-4-4Zm2,9h-2.54c-.86,0-1.64.43-2.09,1.14-.74,1.16-2,1.86-3.37,1.86s-2.63-.7-3.37-1.86c-.45-.71-1.23-1.14-2.09-1.14h-2.54v-5c0-1.1.9-2,2-2h12c1.1,0,2,.9,2,2v5Z"/></svg>