<svg xmlns="http://www.w3.org/2000/svg" width="24" height="24" viewBox="0 0 24 24"><g opacity="0.4"><path d="m17.59,3.17c-.74-.74-1.77-1.17-2.83-1.17h-5.52c-1.05,0-2.08.43-2.83,1.17l-3.24,3.24c-.76.76-1.17,1.76-1.17,2.83v5.51c0,1.07.42,2.07,1.17,2.83l3.24,3.24c.74.74,1.77,1.17,2.83,1.17h5.52c1.05,0,2.08-.43,2.83-1.17l3.24-3.24c.76-.76,1.17-1.76,1.17-2.83v-5.51c0-1.07-.42-2.07-1.17-2.83l-3.24-3.24Zm-4.59,12.83c0,.55-.45,1-1,1s-1-.45-1-1v-4c0-.55.45-1,1-1s1,.45,1,1v4Zm-1-7c-.55,0-1-.45-1-1s.45-1,1-1,1,.45,1,1-.45,1-1,1Z"/></g><path d="m11,12v4c0,.55.45,1,1,1s1-.45,1-1v-4c0-.55-.45-1-1-1s-1,.45-1,1Z"/><path d="M12 7A1 1 0 1 0 12 9 1 1 0 1 0 12 7z"/></svg>