<svg xmlns="http://www.w3.org/2000/svg" width="24" height="24" viewBox="0 0 24 24"><g opacity="0.4"><path d="m13,3h-2c-.55,0-1,.45-1,1s.45,1,1,1h2c.55,0,1-.45,1-1s-.45-1-1-1Z"/><path d="m7,3c-2.21,0-4,1.79-4,4,0,.55.45,1,1,1s1-.45,1-1c0-1.1.9-2,2-2,.55,0,1-.45,1-1s-.45-1-1-1Z"/><path d="m17,3c-.55,0-1,.45-1,1s.45,1,1,1c1.1,0,2,.9,2,2,0,.55.45,1,1,1s1-.45,1-1c0-2.21-1.79-4-4-4Z"/><path d="m4,10c-.55,0-1,.45-1,1v6c0-.27.11-.52.29-.71l1.71-1.71v-3.59c0-.55-.45-1-1-1Z"/><path d="m20,10c-.43,0-.79.27-.93.66l1.64,1.64c.19.19.29.44.29.71v-2c0-.55-.45-1-1-1Z"/></g><path d="m17.77,9.35c-.97-.97-2.56-.97-3.54,0l-4.23,4.23-.23-.23c-.97-.97-2.56-.97-3.54,0l-2.94,2.94c-.19.19-.29.44-.29.71,0,2.21,1.79,4,4,4h10c2.21,0,4-1.79,4-4v-4c0-.27-.11-.52-.29-.71l-2.94-2.94Z"/><path d="M8.5 7A1.5 1.5 0 1 0 8.5 10 1.5 1.5 0 1 0 8.5 7z"/></svg>