<svg xmlns="http://www.w3.org/2000/svg" width="24" height="24" viewBox="0 0 24 24"><g opacity="0.4"><path d="m17,4H7c-2.76,0-5,2.24-5,5v7.88c0,1.72,1.4,3.12,3.12,3.12.82,0,1.63-.33,2.21-.91l1.96-1.96c.71-.71,1.7-1.12,2.71-1.12s1.99.41,2.71,1.12l1.96,1.96c.58.58,1.38.91,2.21.91,1.72,0,3.12-1.4,3.12-3.12v-7.88c0-2.76-2.24-5-5-5ZM7,12c-1.1,0-2-.9-2-2s.9-2,2-2,2,.9,2,2-.9,2-2,2Zm9.5-5c.55,0,1,.45,1,1s-.45,1-1,1-1-.45-1-1,.45-1,1-1Zm-2,4c-.55,0-1-.45-1-1s.45-1,1-1,1,.45,1,1-.45,1-1,1Zm2,2c-.55,0-1-.45-1-1s.45-1,1-1,1,.45,1,1-.45,1-1,1Zm2-2c-.55,0-1-.45-1-1s.45-1,1-1,1,.45,1,1-.45,1-1,1Z"/></g><path d="M18.5 9A1 1 0 1 0 18.5 11 1 1 0 1 0 18.5 9z"/><path d="M14.5 9A1 1 0 1 0 14.5 11 1 1 0 1 0 14.5 9z"/><path d="M16.5 11A1 1 0 1 0 16.5 13 1 1 0 1 0 16.5 11z"/><path d="M16.5 7A1 1 0 1 0 16.5 9 1 1 0 1 0 16.5 7z"/><path d="M7 8A2 2 0 1 0 7 12 2 2 0 1 0 7 8z"/></svg>