<svg xmlns="http://www.w3.org/2000/svg" width="24" height="24" viewBox="0 0 24 24"><g opacity="0.4"><path d="m19,4H5c-2.21,0-4,1.79-4,4v8c0,2.21,1.79,4,4,4h14c2.21,0,4-1.79,4-4v-8c0-2.21-1.79-4-4-4Zm-6,3.5c0-.28.22-.5.5-.5h1c.28,0,.5.22.5.5v1c0,.28-.22.5-.5.5h-1c-.28,0-.5-.22-.5-.5v-1Zm0,4c0-.28.22-.5.5-.5h1c.28,0,.5.22.5.5v1c0,.28-.22.5-.5.5h-1c-.28,0-.5-.22-.5-.5v-1Zm-4-4c0-.28.22-.5.5-.5h1c.28,0,.5.22.5.5v1c0,.28-.22.5-.5.5h-1c-.28,0-.5-.22-.5-.5v-1Zm0,4c0-.28.22-.5.5-.5h1c.28,0,.5.22.5.5v1c0,.28-.22.5-.5.5h-1c-.28,0-.5-.22-.5-.5v-1Zm-4-4c0-.28.22-.5.5-.5h1c.28,0,.5.22.5.5v1c0,.28-.22.5-.5.5h-1c-.28,0-.5-.22-.5-.5v-1Zm1.5,5.5h-1c-.28,0-.5-.22-.5-.5v-1c0-.28.22-.5.5-.5h1c.28,0,.5.22.5.5v1c0,.28-.22.5-.5.5Zm10.5,3.5c0,.28-.22.5-.5.5H7.5c-.28,0-.5-.22-.5-.5v-1c0-.28.22-.5.5-.5h9c.28,0,.5.22.5.5v1Zm2-4c0,.28-.22.5-.5.5h-1c-.28,0-.5-.22-.5-.5v-1c0-.28.22-.5.5-.5h1c.28,0,.5.22.5.5v1Zm0-4c0,.28-.22.5-.5.5h-1c-.28,0-.5-.22-.5-.5v-1c0-.28.22-.5.5-.5h1c.28,0,.5.22.5.5v1Z"/></g><rect x="5" y="11" width="2" height="2" rx=".5" ry=".5"/><rect x="13" y="11" width="2" height="2" rx=".5" ry=".5"/><rect x="9" y="7" width="2" height="2" rx=".5" ry=".5"/><rect x="9" y="11" width="2" height="2" rx=".5" ry=".5"/><rect x="5" y="7" width="2" height="2" rx=".5" ry=".5"/><rect x="13" y="7" width="2" height="2" rx=".5" ry=".5"/><rect x="17" y="7" width="2" height="2" rx=".5" ry=".5"/><rect x="17" y="11" width="2" height="2" rx=".5" ry=".5"/><rect x="7" y="15" width="10" height="2" rx=".5" ry=".5"/></svg>