<svg xmlns="http://www.w3.org/2000/svg" width="24" height="24" viewBox="0 0 24 24"><g opacity="0.4"><path d="m7,22h10c1.65,0,3-1.35,3-3v-7c0-1.65-1.35-3-3-3H7c-1.65,0-3,1.35-3,3v7c0,1.65,1.35,3,3,3Zm5-8c1.1,0,2,.9,2,2,0,.74-.41,1.37-1,1.72v1.28c0,.55-.45,1-1,1s-1-.45-1-1v-1.28c-.59-.35-1-.98-1-1.72,0-1.1.9-2,2-2Z"/></g><path d="m9,7c0-1.65,1.35-3,3-3s3,1.35,3,3v2h2v-2c0-2.76-2.24-5-5-5s-5,2.24-5,5v2h2v-2Z"/><path d="m12,20c.55,0,1-.45,1-1v-1.28c.59-.35,1-.98,1-1.72,0-1.1-.9-2-2-2s-2,.9-2,2c0,.74.41,1.37,1,1.72v1.28c0,.55.45,1,1,1Z"/></svg>