<svg xmlns="http://www.w3.org/2000/svg" width="24" height="24" viewBox="0 0 24 24"><g opacity="0.4"><path d="m12,8c-3.31,0-6,2.69-6,6,0,1.91.88,2.93,1.72,3.93.32.37.65.76.95,1.21.18.27.31.57.4.86h5.86c.1-.29.22-.59.4-.86.3-.44.62-.83.94-1.2.85-1,1.73-2.04,1.73-3.94,0-3.31-2.69-6-6-6Z"/></g><path d="m8,21c0,.55.45,1,1,1h6c.55,0,1-.45,1-1s-.45-1-1-1h-6c-.55,0-1,.45-1,1Z"/><path d="m12,6c.55,0,1-.45,1-1v-1.5c0-.55-.45-1-1-1s-1,.45-1,1v1.5c0,.55.45,1,1,1Z"/><path d="m3.55,7.83c-.46-.31-1.08-.18-1.39.28-.31.46-.18,1.08.28,1.39l1,.67c.17.11.36.17.55.17.32,0,.64-.16.83-.45.31-.46.18-1.08-.28-1.39l-1-.67Z"/><path d="m7.33,7c.19,0,.38-.05.55-.17.46-.31.58-.93.28-1.39l-.67-1c-.31-.46-.93-.58-1.39-.28-.46.31-.58.93-.28,1.39l.67,1c.19.29.51.45.83.45Z"/><path d="m20.45,7.83l-1,.67c-.46.31-.58.93-.28,1.39.19.29.51.45.83.45.19,0,.38-.05.55-.17l1-.67c.46-.31.58-.93.28-1.39-.31-.46-.93-.59-1.39-.28Z"/><path d="m16.5,4.45l-.67,1c-.31.46-.18,1.08.28,1.39.17.11.36.17.55.17.32,0,.64-.16.83-.45l.67-1c.31-.46.18-1.08-.28-1.39-.46-.31-1.08-.18-1.39.28Z"/></svg>