<svg xmlns="http://www.w3.org/2000/svg" width="24" height="24" viewBox="0 0 24 24"><g opacity="0.4"><path d="m19.91,10.25l-5.97-3.32c-1.22-.68-2.67-.68-3.89,0l-5.97,3.32c-.63.35-1.03,1.02-1.03,1.75s.39,1.4,1.03,1.75l5.97,3.32c.61.34,1.28.51,1.94.51s1.33-.17,1.94-.51l5.97-3.32c.63-.35,1.03-1.02,1.03-1.75s-.39-1.4-1.03-1.75Z"/></g><path d="m21,4h-4c-.55,0-1,.45-1,1s.45,1,1,1h4c.55,0,1-.45,1-1s-.45-1-1-1Z"/><path d="m19.91,15.25l-1.35-.75-4.62,2.56c-.61.34-1.28.51-1.94.51s-1.33-.17-1.94-.51l-4.62-2.56-1.35.75c-.63.35-1.03,1.02-1.03,1.75s.39,1.4,1.03,1.75l5.97,3.32c.61.34,1.28.51,1.94.51s1.33-.17,1.94-.51l5.97-3.32c.63-.35,1.03-1.02,1.03-1.75s-.39-1.4-1.03-1.75Z"/></svg>