<svg xmlns="http://www.w3.org/2000/svg" width="24" height="24" viewBox="0 0 24 24"><g opacity="0.4"><path d="m19.64,11.61l-6.67,3.7c-.6.34-1.34.34-1.94,0l-6.67-3.7c-.48-.27-1.09-.09-1.36.39-.27.48-.09,1.09.39,1.36l6.67,3.7c.61.34,1.28.51,1.94.51s1.33-.17,1.94-.51l6.67-3.7c.48-.27.66-.88.39-1.36-.27-.48-.88-.66-1.36-.39Z"/><path d="m19.64,15.61l-6.67,3.7c-.6.34-1.34.34-1.94,0l-6.67-3.7c-.48-.27-1.09-.09-1.36.39-.27.48-.09,1.09.39,1.36l6.67,3.7c.61.34,1.28.51,1.94.51s1.33-.17,1.94-.51l6.67-3.7c.48-.27.66-.88.39-1.36-.27-.48-.88-.66-1.36-.39Z"/></g><path d="m19.91,6.25l-5.97-3.32c-1.22-.68-2.67-.68-3.88,0l-5.97,3.32c-.63.35-1.03,1.02-1.03,1.75s.39,1.4,1.03,1.75l5.97,3.32c.61.34,1.28.51,1.94.51s1.33-.17,1.94-.51l5.97-3.32c.63-.35,1.03-1.02,1.03-1.75s-.39-1.4-1.03-1.75Z"/></svg>