<svg xmlns="http://www.w3.org/2000/svg" width="24" height="24" viewBox="0 0 24 24"><g opacity="0.4"><path d="m17,3H7c-2.21,0-4,1.79-4,4v10c0,2.21,1.79,4,4,4h10c2.21,0,4-1.79,4-4V7c0-2.21-1.79-4-4-4Zm-9,14c-.55,0-1-.45-1-1s.45-1,1-1,1,.45,1,1-.45,1-1,1Zm0-4c-.55,0-1-.45-1-1s.45-1,1-1,1,.45,1,1-.45,1-1,1Zm0-4c-.55,0-1-.45-1-1s.45-1,1-1,1,.45,1,1-.45,1-1,1Zm8,8h-4c-.55,0-1-.45-1-1s.45-1,1-1h4c.55,0,1,.45,1,1s-.45,1-1,1Zm0-4h-4c-.55,0-1-.45-1-1s.45-1,1-1h4c.55,0,1,.45,1,1s-.45,1-1,1Zm0-4h-4c-.55,0-1-.45-1-1s.45-1,1-1h4c.55,0,1,.45,1,1s-.45,1-1,1Z"/></g><path d="m12,17h4c.55,0,1-.45,1-1s-.45-1-1-1h-4c-.55,0-1,.45-1,1s.45,1,1,1Z"/><path d="M8 7A1 1 0 1 0 8 9 1 1 0 1 0 8 7z"/><path d="m12,13h4c.55,0,1-.45,1-1s-.45-1-1-1h-4c-.55,0-1,.45-1,1s.45,1,1,1Z"/><path d="M8 11A1 1 0 1 0 8 13 1 1 0 1 0 8 11z"/><path d="M8 15A1 1 0 1 0 8 17 1 1 0 1 0 8 15z"/><path d="m12,9h4c.55,0,1-.45,1-1s-.45-1-1-1h-4c-.55,0-1,.45-1,1s.45,1,1,1Z"/></svg>