<svg xmlns="http://www.w3.org/2000/svg" width="24" height="24" viewBox="0 0 24 24"><g opacity="0.4"><path d="m21.19,6.82c.32-.65.39-1.38.21-2.11-.26-1.02-1.09-1.84-2.11-2.11-.73-.19-1.46-.12-2.11.2-.51.25-1.28.5-2,.24-1.51-.54-3.1-.68-4.72-.43-3.98.63-7.21,3.86-7.84,7.84-.26,1.62-.11,3.2.43,4.72.26.72.01,1.49-.24,2-.32.65-.39,1.38-.21,2.11.26,1.02,1.09,1.84,2.11,2.11.73.19,1.46.12,2.11-.2.51-.25,1.28-.5,2-.24,1.03.37,2.09.55,3.17.55.51,0,1.03-.04,1.55-.12,3.98-.63,7.21-3.86,7.84-7.84.26-1.62.11-3.2-.43-4.72-.26-.72-.01-1.49.24-2Zm-9.19,1.18c-2.21,0-4,1.79-4,4,0,.55-.45,1-1,1s-1-.45-1-1c0-3.31,2.69-6,6-6,.55,0,1,.45,1,1s-.45,1-1,1Z"/></g><path d="m7,13c.55,0,1-.45,1-1,0-2.21,1.79-4,4-4,.55,0,1-.45,1-1s-.45-1-1-1c-3.31,0-6,2.69-6,6,0,.55.45,1,1,1Z"/></svg>