<svg xmlns="http://www.w3.org/2000/svg" width="24" height="24" viewBox="0 0 24 24"><g opacity="0.4"><path d="m8.94,2.67c-.14-.4-.52-.67-.94-.67h-1c-.42,0-.8.27-.94.67l-3.5,10c-.18.52.09,1.09.61,1.27.52.18,1.09-.09,1.27-.61l.82-2.33h4.48l.82,2.33c.14.41.53.67.94.67.11,0,.22-.02.33-.06.52-.18.8-.75.61-1.27l-3.5-10Zm-2.98,6.33l1.54-4.4,1.54,4.4h-3.08Z"/><path d="m20.83,2.06c-.52-.18-1.09.09-1.27.61l-3.06,8.73-3.06-8.73c-.18-.52-.75-.79-1.27-.61-.52.18-.8.75-.61,1.27l3.5,10c.14.4.52.67.94.67h1c.42,0,.8-.27.94-.67l3.5-10c.18-.52-.09-1.09-.61-1.27Z"/></g><path d="m18.85,14.85c-.32-.31-.85-.09-.85.35v1.79H6v-1.79c0-.45-.54-.67-.85-.35l-2.44,2.44c-.39.39-.39,1.02,0,1.41l2.44,2.44c.31.32.85.09.85-.35v-1.79h12v1.79c0,.45.54.67.85.35l2.44-2.44c.39-.39.39-1.02,0-1.41l-2.44-2.44Z"/></svg>