<svg xmlns="http://www.w3.org/2000/svg" width="24" height="24" viewBox="0 0 24 24"><g opacity="0.4"><path d="m12,2c-4.41,0-8,3.59-8,8-.02,5.06,4.46,9.39,6.39,11.01.46.39,1.04.59,1.61.59s1.14-.2,1.61-.59c1.93-1.62,6.42-5.95,6.39-11.01,0-4.41-3.59-8-8-8Zm3,9h-2v2c0,.55-.45,1-1,1s-1-.45-1-1v-2h-2c-.55,0-1-.45-1-1s.45-1,1-1h2v-2c0-.55.45-1,1-1s1,.45,1,1v2h2c.55,0,1,.45,1,1s-.45,1-1,1Z"/></g><path d="m9,11h2v2c0,.55.45,1,1,1s1-.45,1-1v-2h2c.55,0,1-.45,1-1s-.45-1-1-1h-2v-2c0-.55-.45-1-1-1s-1,.45-1,1v2h-2c-.55,0-1,.45-1,1s.45,1,1,1Z"/></svg>