<svg xmlns="http://www.w3.org/2000/svg" width="24" height="24" viewBox="0 0 24 24"><g opacity="0.4"><path d="m12,2c-.55,0-1,.45-1,1v3c0,.55.45,1,1,1s1-.45,1-1v-3c0-.55-.45-1-1-1Z"/><path d="m12,17c-.55,0-1,.45-1,1v3c0,.55.45,1,1,1s1-.45,1-1v-3c0-.55-.45-1-1-1Z"/><path d="m21,11h-3c-.55,0-1,.45-1,1s.45,1,1,1h3c.55,0,1-.45,1-1s-.45-1-1-1Z"/><path d="m6,11h-3c-.55,0-1,.45-1,1s.45,1,1,1h3c.55,0,1-.45,1-1s-.45-1-1-1Z"/></g><path d="m7.05,15.54l-2.12,2.12c-.39.39-.39,1.02,0,1.41.2.2.45.29.71.29s.51-.1.71-.29l2.12-2.12c.39-.39.39-1.02,0-1.41s-1.02-.39-1.41,0Z"/><path d="m18.36,19.36c.26,0,.51-.1.71-.29.39-.39.39-1.02,0-1.41l-2.12-2.12c-.39-.39-1.02-.39-1.41,0s-.39,1.02,0,1.41l2.12,2.12c.2.2.45.29.71.29Z"/><path d="m6.34,4.93c-.39-.39-1.02-.39-1.41,0s-.39,1.02,0,1.41l2.12,2.12c.2.2.45.29.71.29s.51-.1.71-.29c.39-.39.39-1.02,0-1.41l-2.12-2.12Z"/></svg>