<svg xmlns="http://www.w3.org/2000/svg" width="24" height="24" viewBox="0 0 24 24"><g opacity="0.4"><path d="m12,2c-4.41,0-8,3.59-8,8,0,2.43,1.13,4.74,3,6.24v.76h4v-3.14c-1.72-.45-3-2-3-3.86,0-.55.45-1,1-1s1,.45,1,1c0,1.1.9,2,2,2s2-.9,2-2c0-.55.45-1,1-1s1,.45,1,1c0,1.86-1.28,3.41-3,3.86v3.14h4v-.76c1.87-1.5,3-3.81,3-6.24,0-4.41-3.59-8-8-8Z"/></g><path d="m11,22h2c2.21,0,4-1.79,4-4v-1h-4v-3.14c1.72-.45,3-2,3-3.86,0-.55-.45-1-1-1s-1,.45-1,1c0,1.1-.9,2-2,2s-2-.9-2-2c0-.55-.45-1-1-1s-1,.45-1,1c0,1.86,1.28,3.41,3,3.86v3.14h-4v1c0,2.21,1.79,4,4,4Z"/></svg>