<svg xmlns="http://www.w3.org/2000/svg" width="24" height="24" viewBox="0 0 24 24"><g opacity="0.4"><path d="m4.93,16.24c-.78.78-.78,2.05,0,2.83.78.78,2.05.78,2.83,0,.78-.78.78-2.05,0-2.83-.78-.78-2.05-.78-2.83,0Z"/><path d="m19.07,7.76c.78-.78.78-2.05,0-2.83-.78-.78-2.05-.78-2.83,0-.78.78-.78,2.05,0,2.83.78.78,2.05.78,2.83,0Z"/><path d="m4.93,7.76c.78.78,2.05.78,2.83,0,.78-.78.78-2.05,0-2.83-.78-.78-2.05-.78-2.83,0-.78.78-.78,2.05,0,2.83Z"/><path d="m16.24,16.24c-.78.78-.78,2.05,0,2.83.78.78,2.05.78,2.83,0,.78-.78.78-2.05,0-2.83-.78-.78-2.05-.78-2.83,0Z"/></g><path d="M12 18A2 2 0 1 0 12 22 2 2 0 1 0 12 18z"/><path d="M12 2A2 2 0 1 0 12 6 2 2 0 1 0 12 2z"/><path d="m4,14c1.1,0,2-.9,2-2,0-1.1-.9-2-2-2s-2,.9-2,2,.9,2,2,2Z"/><path d="m20,10c-1.1,0-2,.9-2,2s.9,2,2,2c1.1,0,2-.9,2-2s-.9-2-2-2Z"/></svg>