<svg xmlns="http://www.w3.org/2000/svg" width="24" height="24" viewBox="0 0 24 24"><g opacity="0.4"><path d="m12,2c-4.41,0-8,3.59-8,8-.02,5.06,4.46,9.39,6.39,11.01.46.39,1.04.59,1.61.59s1.14-.2,1.61-.59c1.93-1.62,6.42-5.95,6.39-11.01,0-4.41-3.59-8-8-8Zm2.83,9.41c.39.39.39,1.02,0,1.41-.39.39-1.02.39-1.41,0l-1.41-1.41-1.41,1.41c-.39.39-1.02.39-1.41,0-.39-.39-.39-1.02,0-1.41l1.41-1.41-1.41-1.41c-.39-.39-.39-1.02,0-1.41.39-.39,1.02-.39,1.41,0l1.41,1.41,1.41-1.41c.39-.39,1.02-.39,1.41,0,.39.39.39,1.02,0,1.41l-1.41,1.41,1.41,1.41Z"/></g><path d="m9.17,12.83c.39.39,1.02.39,1.41,0l1.41-1.41,1.41,1.41c.39.39,1.02.39,1.41,0,.39-.39.39-1.02,0-1.41l-1.41-1.41,1.41-1.41c.39-.39.39-1.02,0-1.41-.39-.39-1.02-.39-1.41,0l-1.41,1.41-1.41-1.41c-.39-.39-1.02-.39-1.41,0-.39.39-.39,1.02,0,1.41l1.41,1.41-1.41,1.41c-.39.39-.39,1.02,0,1.41Z"/></svg>