<svg xmlns="http://www.w3.org/2000/svg" width="24" height="24" viewBox="0 0 24 24"><g opacity="0.4"><path d="m4,15h8c.55,0,1,.45,1,1s-.45,1-1,1H4c-.55,0-1-.45-1-1s.45-1,1-1Z"/><path d="m4,19h16c.55,0,1,.45,1,1s-.45,1-1,1H4c-.55,0-1-.45-1-1s.45-1,1-1Z"/><path d="m4,11h8c.55,0,1,.45,1,1,0,.55-.45,1-1,1H4c-.55,0-1-.45-1-1,0-.55.45-1,1-1Z"/><path d="m4,7h8c.55,0,1,.45,1,1,0,.55-.45,1-1,1H4c-.55,0-1-.45-1-1,0-.55.45-1,1-1Z"/><path d="m4,3h16c.55,0,1,.45,1,1s-.45,1-1,1H4c-.55,0-1-.45-1-1s.45-1,1-1Z"/></g><path d="m19.78,16.15l-4.08-2.93c-.83-.6-.83-1.84,0-2.44l4.08-2.93c.5-.36,1.19,0,1.19.61v7.08c0,.61-.69.97-1.19.61Z"/></svg>