<svg xmlns="http://www.w3.org/2000/svg" width="24" height="24" viewBox="0 0 24 24"><g opacity="0.4"><path d="m12,2c-4.41,0-8,3.59-8,8-.02,5.06,4.46,9.39,6.39,11.01.46.39,1.04.59,1.61.59s1.14-.2,1.61-.59c1.93-1.62,6.42-5.95,6.39-11.01,0-4.41-3.59-8-8-8Zm4.21,7.02l-4.38,4.38c-.2.2-.45.29-.71.29s-.51-.1-.71-.29l-2.62-2.62c-.39-.39-.39-1.02,0-1.41s1.02-.39,1.41,0l1.92,1.92,3.67-3.67c.39-.39,1.02-.39,1.41,0s.39,1.02,0,1.41Z"/></g><path d="m10.42,13.39c.2.2.45.29.71.29s.51-.1.71-.29l4.38-4.38c.39-.39.39-1.02,0-1.41s-1.02-.39-1.41,0l-3.67,3.67-1.92-1.92c-.39-.39-1.02-.39-1.41,0s-.39,1.02,0,1.41l2.62,2.62Z"/></svg>