<svg xmlns="http://www.w3.org/2000/svg" width="24" height="24" viewBox="0 0 24 24"><g opacity="0.4"><path d="m6.25,18.93c-.26.37-.23.87.06,1.21.06.08,1.59,1.86,3.79,1.86.03,0,.07,0,.1,0,2.29-.05,3.65-1.99,3.71-2.07.26-.37.23-.87-.06-1.21-.07-.08-1.61-1.92-3.89-1.85-2.29.05-3.65,1.99-3.71,2.07Z"/><path d="m16.81,13.72c1.35-1.64,1.1-3.78,1.09-3.88-.06-.46-.44-.82-.9-.86-.1-.01-2.46-.19-4.04,1.48h0c-1.53,1.61-1.31,3.83-1.28,4.08.27-.26.59-.5.96-.7,1.79-.94,3.7-.3,4.18-.12Z"/><path d="m8.8,6.82c.5,1.66,1.8,2.54,2.49,2.9-.02-.67.09-1.44.46-2.2h0c.47-.96,1.21-1.59,1.88-2-.02-.11-.03-.23-.07-.34-.68-2.25-2.84-3.08-2.93-3.11-.45-.17-.95,0-1.2.42-.05.09-1.28,2.14-.62,4.34Z"/></g><path d="m13.88,18.76c.38-.08.77-.2,1.15-.4,2.02-1.07,2.45-3.4,2.47-3.5.08-.45-.16-.9-.58-1.09-.09-.04-2.27-.99-4.29.07-1.51.79-2.13,2.29-2.36,3.05,2.1.1,3.52,1.76,3.58,1.83.01.01.02.03.03.04Z"/><path d="m16.56,8.97c.52-1.82-.24-3.5-.27-3.58-.2-.43-.68-.66-1.14-.55-.1.02-2.39.6-3.4,2.68h0c-1.02,2.08-.05,4.23,0,4.32.05.11.13.21.22.29.19-.56.49-1.15.99-1.67h0c1.2-1.26,2.84-1.46,3.61-1.48Z"/></svg>