<svg xmlns="http://www.w3.org/2000/svg" width="24" height="24" viewBox="0 0 24 24"><g opacity="0.4"><path d="M8 10.15 10 9.6 10 7.67 8 8.22 8 10.15z"/><path d="m17.94,13c-.51,0-.93.39-.99.89-.48,3.93-4.16,4.91-6.95,5.08v-7.3l-2,.55v7.78c0,.54.43,1,.98,1,5.79,0,9.43-2.54,9.96-6.87.07-.6-.4-1.13-1-1.13Z"/><path d="m10,4c0-.55-.45-1-1-1h0c-.55,0-1,.45-1,1v2.15l2-.55v-1.6Z"/></g><path d="m5,8c.15.53.69.85,1.23.7l9.07-2.47c.53-.15.85-.69.7-1.23h0c-.15-.54-.69-.85-1.23-.7l-9.07,2.47c-.53.15-.85.69-.7,1.23h0Z"/><path d="m16,9h0c-.15-.54-.69-.85-1.23-.7l-9.07,2.47c-.53.15-.85.69-.7,1.23h0c.15.54.69.85,1.23.7l9.07-2.47c.53-.15.85-.69.7-1.23Z"/></svg>