<svg xmlns="http://www.w3.org/2000/svg" width="24" height="24" viewBox="0 0 24 24"><g opacity="0.4"><path d="m12,2C6.49,2,2,6.49,2,12s4.49,10,10,10,10-4.49,10-10S17.51,2,12,2Zm-5.83,10.55c-.31-.46-.18-1.08.28-1.39l1.75-1.17-1.75-1.17c-.46-.31-.58-.93-.28-1.39.3-.46.93-.58,1.39-.28l3,2c.28.19.45.5.45.83s-.17.65-.45.83l-3,2c-.17.11-.36.17-.55.17-.32,0-.64-.16-.83-.45Zm10.4,2.52c-.6,1.18-1.94,2.92-4.57,2.92s-3.97-1.74-4.57-2.92c-.25-.49.12-1.08.67-1.08h7.79c.56,0,.93.58.67,1.08Zm.98-3.91c.46.31.58.93.28,1.39-.19.29-.51.45-.83.45-.19,0-.38-.05-.55-.17l-3-2c-.28-.19-.45-.5-.45-.83s.17-.65.45-.83l3-2c.46-.31,1.08-.18,1.39.28.31.46.18,1.08-.28,1.39l-1.75,1.17,1.75,1.17Z"/></g><path d="m17.83,7.45c-.31-.46-.93-.58-1.39-.28l-3,2c-.28.19-.45.5-.45.83s.17.65.45.83l3,2c.17.11.36.17.55.17.32,0,.64-.16.83-.45.31-.46.18-1.08-.28-1.39l-1.75-1.17,1.75-1.17c.46-.31.58-.93.28-1.39Z"/><path d="m7.43,15.08c.6,1.18,1.94,2.92,4.57,2.92s3.97-1.74,4.57-2.92c.25-.49-.12-1.08-.67-1.08h-7.79c-.56,0-.93.58-.67,1.08Z"/><path d="m6.17,12.55c.19.29.51.45.83.45.19,0,.38-.05.55-.17l3-2c.28-.19.45-.5.45-.83s-.17-.65-.45-.83l-3-2c-.46-.31-1.08-.18-1.39.28-.31.46-.18,1.08.28,1.39l1.75,1.17-1.75,1.17c-.46.31-.58.93-.28,1.39Z"/></svg>