<svg xmlns="http://www.w3.org/2000/svg" width="24" height="24" viewBox="0 0 24 24"><g opacity="0.4"><path d="m15.3,14.99c-.45-.01-.89-.07-1.32-.17-.76,1.23-2.23,1.93-3.76,1.6-1.31-.31-2.32-1.31-2.63-2.62-.06-.28-.09-.54-.09-.8,0-1.26.66-2.37,1.68-2.99-.1-.42-.16-.86-.17-1.3-.01-.09-.01-.16-.01-.2,0-.21.01-.42.03-.63-2.11.8-3.53,2.8-3.53,5.13,0,.04,0,.08,0,.12-2,.45-3.51,2.24-3.51,4.38,0,2.48,2.02,4.5,4.5,4.5,2.14,0,3.93-1.5,4.38-3.51.04,0,.08,0,.12,0,2.32,0,4.33-1.42,5.13-3.53-.21.02-.42.03-.63.03-.04,0-.12,0-.2-.01Zm-8.8,5.01c-1.38,0-2.5-1.12-2.5-2.5,0-1.17.81-2.15,1.9-2.43.02.04.04.07.06.11.11.26.24.5.39.74.05.08.1.15.15.23.18.25.37.5.58.71.02.02.04.04.06.06.22.21.46.4.71.58.08.06.17.11.26.17.22.13.44.25.68.36.05.02.1.06.15.08-.27,1.09-1.26,1.9-2.43,1.9Z"/></g><path d="m15.5,2c-3.58,0-6.5,2.92-6.5,6.5,0,.04,0,.12.01.2.1,3.45,2.84,6.19,6.28,6.28.09.01.16.01.2.01,3.58,0,6.5-2.92,6.5-6.5s-2.92-6.5-6.5-6.5Z"/></svg>