<svg xmlns="http://www.w3.org/2000/svg" width="24" height="24" viewBox="0 0 24 24"><g opacity="0.4"><path d="m10.79,2.07C6.07,2.63,2.3,6.63,2.02,11.39c-.14,2.34.55,4.66,1.91,6.51l-1.21,1.75c-.32.46-.36,1.05-.1,1.55.26.5.77.8,1.33.8h8.05c4.35,0,8.26-2.81,9.51-6.82,1.06-3.41.4-6.9-1.81-9.56-2.17-2.62-5.5-3.94-8.91-3.54Zm3,10.14l-.79.79-2.85,2.85c-.09.09-.22.15-.35.15h-1.29c-.28,0-.5-.22-.5-.5v-1.29c0-.13.05-.26.15-.35l2.85-2.85.79-.79c.2-.2.51-.2.71,0l1.29,1.29c.2.2.2.51,0,.71Zm1.41-1.41c-.2.2-.51.2-.71,0l-1.29-1.29c-.2-.2-.2-.51,0-.71h0c.44-.44,1.15-.44,1.59,0l.41.41c.44.44.44,1.15,0,1.59Z"/></g><path d="m15.21,10.79c.44-.44.44-1.15,0-1.59l-.41-.41c-.44-.44-1.15-.44-1.59,0h0c-.2.2-.2.51,0,.71l1.29,1.29c.2.2.51.2.71,0Z"/><path d="m11.79,10.21l-.79.79-2.85,2.85c-.09.09-.15.22-.15.35v1.29c0,.28.22.5.5.5h1.29c.13,0,.26-.05.35-.15l2.85-2.85.79-.79c.2-.2.2-.51,0-.71l-1.29-1.29c-.2-.2-.51-.2-.71,0Z"/></svg>