<svg xmlns="http://www.w3.org/2000/svg" width="24" height="24" viewBox="0 0 24 24"><g opacity="0.4"><path d="m11.16,6.46l-4.69,7.3,1.61,1.75c.49.54,1.34.54,1.84,0l1.16-1.26c.49-.54,1.34-.54,1.84,0l1.16,1.26c.49.54,1.34.54,1.84,0l1.61-1.75-4.69-7.3c-.37-.57-1.31-.57-1.68,0Z"/></g><path d="m12.84,6.46l.16.25v-1.71h3.5c.28,0,.5-.22.5-.5v-2c0-.28-.22-.5-.5-.5h-5.5v4.71l.16-.25c.37-.57,1.31-.57,1.68,0Z"/><path d="m17.53,13.76l-1.61,1.75c-.49.54-1.34.54-1.84,0l-1.16-1.26c-.49-.54-1.34-.54-1.84,0l-1.16,1.26c-.49.54-1.34.54-1.84,0l-1.61-1.75-3.81,5.93c-.3.46-.32,1.05-.05,1.53.26.48.77.78,1.32.78h16.17c.55,0,1.05-.3,1.32-.78.26-.48.24-1.07-.05-1.53l-3.81-5.93Z"/></svg>