<svg xmlns="http://www.w3.org/2000/svg" width="24" height="24" viewBox="0 0 24 24"><g opacity="0.4"><path d="M13 6 11 6 11 11 6 11 6 13 11 13 11 18 13 18 13 13 18 13 18 11 13 11 13 6z"/></g><path d="m8.21,6h7.59c.45,0,.67-.54.35-.85l-3.79-3.79c-.2-.2-.51-.2-.71,0l-3.79,3.79c-.32.32-.09.85.35.85Z"/><path d="m11.65,22.65c.2.2.51.2.71,0l3.79-3.79c.32-.31.09-.85-.35-.85h-7.59c-.45,0-.67.54-.35.85l3.79,3.79Z"/><path d="m18.85,7.85c-.32-.31-.85-.09-.85.35v7.59c0,.45.54.67.85.35l3.79-3.79c.2-.2.2-.51,0-.71l-3.79-3.79Z"/><path d="m6,8.21c0-.45-.54-.67-.85-.35l-3.79,3.79c-.2.2-.2.51,0,.71l3.79,3.79c.32.32.85.09.85-.35v-7.59Z"/></svg>