<svg xmlns="http://www.w3.org/2000/svg" width="24" height="24" viewBox="0 0 24 24"><g opacity="0.4"><path d="m16.44,2c-1.2,0-2.3.38-3.21,1.02l7.75,7.75c.64-.91,1.02-2.01,1.02-3.21,0-3.07-2.49-5.56-5.56-5.56Z"/><path d="m10.88,7.56s0,.02,0,.03l.06-.07,5.54,5.54-.07.06s.02,0,.03,0c1.52,0,2.89-.61,3.89-1.59l-7.86-7.86c-.98,1-1.59,2.38-1.59,3.89Z"/></g><path d="m10.94,7.52l-7.63,9.06c-.95,1.13-.88,2.77.16,3.81l.14.14c.55.55,1.27.83,1.99.83.64,0,1.29-.22,1.82-.67l9.06-7.63-5.54-5.54Z"/><path d="m20.98,10.77l-7.75-7.75c-.27.19-.53.41-.76.65l7.86,7.86c.24-.23.46-.49.65-.76Z"/></svg>