<svg xmlns="http://www.w3.org/2000/svg" width="24" height="24" viewBox="0 0 24 24"><g opacity="0.4"><path d="m21.97,12.01c.02-.27.02-.55,0-.82h0c-.42-5.15-4.79-9.19-9.97-9.19S2.55,5.88,2.05,11.02c-.04.44-.04.87,0,1.3v2.7c-.33,3.41,1.89,6.45,5.05,6.91.31.05.61.07.92.07,1.38,0,2.7-.47,3.79-1.35.8-.66,1.89-.75,2.84-.24.72.39,1.54.59,2.36.59h.01c1.27,0,2.48-.56,3.41-1.56,1.1-1.2,1.68-2.89,1.55-4.43l.03-3h-.03Zm-2.91,2.06c-.39.42-1.06.93-2.05.93-.54,0-.98-.12-1.43-.35-1.68-.9-3.61-.73-5.05.45-.88.72-2,1.03-3.14.86-2.11-.31-3.58-2.39-3.35-4.74.4-4.11,3.82-7.21,7.96-7.21s7.64,3.23,7.97,7.35c.08,1-.26,2.02-.91,2.72Z"/></g><path d="m7.38,15.95c1.15.17,2.26-.14,3.14-.86,1.44-1.18,3.38-1.35,5.05-.45.44.24.88.35,1.43.35.99,0,1.66-.51,2.05-.93.65-.71.99-1.73.91-2.72-.33-4.12-3.84-7.35-7.97-7.35s-7.56,3.1-7.96,7.21c-.23,2.35,1.24,4.43,3.35,4.74Zm1.12-5.95c.83,0,1.5.67,1.5,1.5s-.67,1.5-1.5,1.5-1.5-.67-1.5-1.5.67-1.5,1.5-1.5Z"/></svg>