<svg xmlns="http://www.w3.org/2000/svg" width="24" height="24" viewBox="0 0 24 24"><g opacity="0.4"><path d="M6 2A2 2 0 1 0 6 6 2 2 0 1 0 6 2z"/><path d="m6,7c-2.21,0-4,1.79-4,4v3c0,.55.45,1,1,1h1v6c0,.55.45,1,1,1h2c.55,0,1-.45,1-1v-6h1c.55,0,1-.45,1-1v-3c0-2.21-1.79-4-4-4Z"/></g><path d="M17 2A2 2 0 1 0 17 6 2 2 0 1 0 17 2z"/><path d="m20.58,9.59c-.52-1.55-1.96-2.59-3.59-2.59s-3.06,1.03-3.58,2.56l-1.41,4.11c-.1.3-.06.64.13.91.19.26.49.42.81.42h.72s-.4,1.79-.4,1.79c-.14.62.34,1.22.98,1.22h.75v3c0,.55.45,1,1,1h2.01c.55,0,1-.45,1-1,0-.04,0-.07,0-.11v-2.89h.75c.64,0,1.11-.59.98-1.22l-.4-1.78h.67s0,0,0,0c.32,0,.62-.15.81-.42.19-.26.24-.6.14-.9l-1.36-4.09Z"/></svg>