<svg xmlns="http://www.w3.org/2000/svg" width="24" height="24" viewBox="0 0 24 24"><g opacity="0.4"><path d="m7.47,21.85c.29.18.66.2.97.04l3.55-1.78,3.55,1.78c.14.07.29.11.45.11.18,0,.37-.05.53-.15.29-.18.47-.5.47-.85v-4.1c-.73.69-1.71,1.1-2.74,1.1h-4.52c-1.03,0-2.01-.41-2.74-1.1v4.1c0,.35.18.67.47.85Z"/><path d="m10.16,10.6c.06.06.09.14.07.22l-.31,1.78c-.04.2.18.36.36.26l1.6-.84c.07-.04.16-.04.23,0l1.6.84c.18.1.4-.06.36-.26l-.31-1.78c-.01-.08.01-.16.07-.22l1.29-1.26c.15-.14.07-.4-.14-.43l-1.79-.26c-.08-.01-.15-.06-.19-.14l-.8-1.62c-.09-.19-.36-.19-.45,0l-.8,1.62c-.04.07-.11.12-.19.14l-1.79.26c-.21.03-.29.28-.14.43l1.29,1.26Z"/></g><path d="m17.73,4.02c-.71-1.24-2.04-2.02-3.47-2.02h-4.52c-1.43,0-2.76.77-3.47,2.02l-2.29,4c-.7,1.22-.7,2.75,0,3.97l2.29,4c.71,1.24,2.04,2.02,3.47,2.02h4.52c1.43,0,2.76-.77,3.47-2.02l2.29-4c.7-1.22.7-2.75,0-3.97l-2.29-4Zm-2.6,5.32l-1.29,1.26c-.06.06-.09.14-.07.22l.31,1.78c.04.2-.18.36-.36.26l-1.6-.84c-.07-.04-.16-.04-.23,0l-1.6.84c-.18.1-.4-.06-.36-.26l.31-1.78c.01-.08-.01-.16-.07-.22l-1.29-1.26c-.15-.14-.07-.4.14-.43l1.79-.26c.08-.01.15-.06.19-.14l.8-1.62c.09-.19.36-.19.45,0l.8,1.62c.04.07.11.12.19.14l1.79.26c.21.03.29.28.14.43Z"/></svg>