<svg xmlns="http://www.w3.org/2000/svg" width="24" height="24" viewBox="0 0 24 24"><g opacity="0.4"><path d="m18,3H6c-2.21,0-4,1.79-4,4v8c0,2.21,1.79,4,4,4h1v1.82c0,.7.4,1.31,1.04,1.6.23.1.48.16.72.16.42,0,.83-.16,1.16-.45l3.46-3.12h4.62c2.21,0,4-1.79,4-4V7c0-2.21-1.79-4-4-4Zm-4.21,8.21l-.79.79-2.85,2.85c-.09.09-.22.15-.35.15h-1.29c-.28,0-.5-.22-.5-.5v-1.29c0-.13.05-.26.15-.35l2.85-2.85.79-.79c.2-.2.51-.2.71,0l1.29,1.29c.2.2.2.51,0,.71Zm1.41-1.41c-.2.2-.51.2-.71,0l-1.29-1.29c-.2-.2-.2-.51,0-.71h0c.44-.44,1.15-.44,1.59,0l.41.41c.44.44.44,1.15,0,1.59Z"/></g><path d="m11.79,9.21l-.79.79-2.85,2.85c-.09.09-.15.22-.15.35v1.29c0,.28.22.5.5.5h1.29c.13,0,.26-.05.35-.15l2.85-2.85.79-.79c.2-.2.2-.51,0-.71l-1.29-1.29c-.2-.2-.51-.2-.71,0Z"/><path d="m15.21,9.79c.44-.44.44-1.15,0-1.59l-.41-.41c-.44-.44-1.15-.44-1.59,0h0c-.2.2-.2.51,0,.71l1.29,1.29c.2.2.51.2.71,0Z"/></svg>