<svg xmlns="http://www.w3.org/2000/svg" width="24" height="24" viewBox="0 0 24 24"><g opacity="0.4"><path d="m10.79,2.07C6.07,2.63,2.3,6.63,2.02,11.39c-.14,2.34.55,4.66,1.91,6.51l-1.21,1.75c-.32.46-.36,1.05-.09,1.55.26.5.77.8,1.33.8h8.05c4.35,0,8.26-2.81,9.51-6.82,1.06-3.41.4-6.9-1.81-9.56-2.17-2.62-5.5-3.94-8.91-3.54Zm-2.79,10.93c-.55,0-1-.45-1-1s.45-1,1-1,1,.45,1,1-.45,1-1,1Zm4,0c-.55,0-1-.45-1-1s.45-1,1-1,1,.45,1,1-.45,1-1,1Zm4,0c-.55,0-1-.45-1-1s.45-1,1-1,1,.45,1,1-.45,1-1,1Z"/></g><path d="M12 11A1 1 0 1 0 12 13 1 1 0 1 0 12 11z"/><path d="M16 11A1 1 0 1 0 16 13 1 1 0 1 0 16 11z"/><path d="M8 11A1 1 0 1 0 8 13 1 1 0 1 0 8 11z"/></svg>