<svg xmlns="http://www.w3.org/2000/svg" width="24" height="24" viewBox="0 0 24 24"><g opacity="0.4"><path d="m15,8c0-.55.45-1,1-1h1.91c-.48-2.83-2.94-5-5.91-5s-5.43,2.17-5.91,5h4.91c.55,0,1,.45,1,1s-.45,1-1,1h-5v2h5c.55,0,1,.45,1,1s-.45,1-1,1h-4.91c.48,2.83,2.94,5,5.91,5s5.43-2.17,5.91-5h-1.91c-.55,0-1-.45-1-1s.45-1,1-1h2v-2h-2c-.55,0-1-.45-1-1Z"/></g><path d="m12,8c0-.55-.45-1-1-1h-4.91c-.06.33-.09.66-.09,1v1h5c.55,0,1-.45,1-1Z"/><path d="m11,13c.55,0,1-.45,1-1s-.45-1-1-1h-5v1c0,.34.04.67.09,1h4.91Z"/><path d="m16,9h2v-1c0-.34-.04-.67-.09-1h-1.91c-.55,0-1,.45-1,1s.45,1,1,1Z"/><path d="m16,13h1.91c.06-.33.09-.66.09-1v-1h-2c-.55,0-1,.45-1,1s.45,1,1,1Z"/><path d="m21,11c-.55,0-1,.45-1,1,0,4.41-3.59,8-8,8s-8-3.59-8-8c0-.55-.45-1-1-1s-1,.45-1,1c0,5.51,4.49,10,10,10s10-4.49,10-10c0-.55-.45-1-1-1Z"/></svg>