<svg xmlns="http://www.w3.org/2000/svg" width="24" height="24" viewBox="0 0 24 24"><g opacity="0.4"><path d="m12,3C6.49,3,2,6.59,2,11c0,2.91,1.9,5.51,5,6.93v2.26c0,.71.42,1.34,1.08,1.62.22.09.45.13.67.13.45,0,.9-.18,1.24-.51l2.43-2.43c5.32-.18,9.58-3.69,9.58-7.99S17.51,3,12,3Zm0,12c-.55,0-1-.45-1-1s.45-1,1-1,1,.45,1,1-.45,1-1,1Zm1-4c0,.55-.45,1-1,1s-1-.45-1-1v-3c0-.55.45-1,1-1s1,.45,1,1v3Z"/></g><path d="m12,12c.55,0,1-.45,1-1v-3c0-.55-.45-1-1-1s-1,.45-1,1v3c0,.55.45,1,1,1Z"/><path d="M12 13A1 1 0 1 0 12 15 1 1 0 1 0 12 13z"/></svg>