<svg xmlns="http://www.w3.org/2000/svg" width="24" height="24" viewBox="0 0 24 24"><g opacity="0.4"><path d="m18,11c-2.76,0-5-2.24-5-5,0-1.44.62-2.73,1.6-3.65-1.22-.33-2.51-.43-3.81-.28C6.07,2.63,2.3,6.63,2.02,11.39c-.14,2.34.55,4.66,1.91,6.51l-1.21,1.75c-.32.46-.36,1.05-.1,1.55.26.5.77.8,1.33.8h8.05c4.35,0,8.26-2.81,9.51-6.82.61-1.96.63-3.94.14-5.78-.91.98-2.2,1.6-3.65,1.6Z"/><path d="m20.76,7.18c-.46,1.07-1.52,1.82-2.76,1.82-1.66,0-3-1.34-3-3,0-1.24.75-2.3,1.82-2.76-1.43-.79-3.07-1.24-4.82-1.24-.6,0-1.18.06-1.75.16v11.84h11.55c.13-.65.2-1.32.2-2,0-1.75-.45-3.39-1.24-4.82Z"/></g><path d="M18 3A3 3 0 1 0 18 9 3 3 0 1 0 18 3z"/></svg>