<svg xmlns="http://www.w3.org/2000/svg" width="24" height="24" viewBox="0 0 24 24"><g opacity="0.4"><path d="m2.97,18.15l4.1,2.46c.29.17.6.26.93.27V5.83l-2.97-1.78c-.63-.38-1.38-.39-2.01-.03-.64.36-1.01,1.01-1.01,1.74v10.67c0,.7.37,1.35.97,1.72Z"/><path d="m21.03,5.85l-4.1-2.46c-.29-.17-.6-.26-.93-.28v15.05l2.97,1.78c.63.38,1.38.39,2.01.03.64-.36,1.01-1.01,1.01-1.74V7.57c0-.7-.37-1.35-.97-1.72Z"/></g><path d="m16,3.11c-.27-.01-.54.02-.8.12l-7.1,2.66-.1-.06v15.05s.07.01.1.01c.24,0,.48-.04.71-.13l7.1-2.66.1.06V3.11Z"/></svg>