<svg xmlns="http://www.w3.org/2000/svg" width="24" height="24" viewBox="0 0 24 24"><g opacity="0.4"><path d="m16,12v-6c0-2.21-1.79-4-4-4s-4,1.79-4,4v.59l7.43,7.43c.35-.59.57-1.28.57-2.02Z"/><path d="m8,12c0,2.21,1.79,4,4,4,.74,0,1.42-.22,2.02-.57l-6.02-6.02v2.59Z"/><path d="m19,11c-.55,0-1,.45-1,1,0,1.29-.42,2.49-1.11,3.47l1.43,1.43c1.06-1.35,1.69-3.05,1.69-4.9,0-.55-.45-1-1-1Z"/><path d="m12,18c-3.31,0-6-2.69-6-6,0-.55-.45-1-1-1s-1,.45-1,1c0,4.07,3.06,7.44,7,7.93v1.07c0,.55.45,1,1,1s1-.45,1-1v-1.07c1.46-.18,2.79-.76,3.9-1.62l-1.43-1.43c-.98.7-2.18,1.11-3.47,1.11Z"/></g><path d="m3.71,2.29c-.39-.39-1.02-.39-1.41,0s-.39,1.02,0,1.41l18,18c.2.2.45.29.71.29s.51-.1.71-.29c.39-.39.39-1.02,0-1.41L3.71,2.29Z"/></svg>