<svg xmlns="http://www.w3.org/2000/svg" width="24" height="24" viewBox="0 0 24 24"><g opacity="0.4"><path d="m6,19h1v1.82c0,.7.4,1.31,1.04,1.6.23.1.48.15.72.15.42,0,.83-.15,1.16-.45l3.46-3.12h4.62c2.21,0,4-1.79,4-4V7c0-2.21-1.79-4-4-4H6c-2.21,0-4,1.79-4,4v8c0,2.21,1.79,4,4,4Zm3-9h2v-2c0-.55.45-1,1-1s1,.45,1,1v2h2c.55,0,1,.45,1,1s-.45,1-1,1h-2v2c0,.55-.45,1-1,1s-1-.45-1-1v-2h-2c-.55,0-1-.45-1-1s.45-1,1-1Z"/></g><path d="m12,15c.55,0,1-.45,1-1v-2h2c.55,0,1-.45,1-1s-.45-1-1-1h-2v-2c0-.55-.45-1-1-1s-1,.45-1,1v2h-2c-.55,0-1,.45-1,1s.45,1,1,1h2v2c0,.55.45,1,1,1Z"/></svg>