<svg xmlns="http://www.w3.org/2000/svg" width="24" height="24" viewBox="0 0 24 24"><g opacity="0.4"><path d="m3,13.21c1.79,0,3.23.08,4.46.2.11-.57.23-1.1.35-1.64.19-.86.38-1.71.54-2.67-1.4-.19-3.06-.32-5.35-.32v4.43Z"/><path d="m3,17c0,2.13,1.68,3.86,3.79,3.98,0-2.36.14-4.12.34-5.59-1.14-.11-2.47-.18-4.13-.18v1.79Z"/><path d="m10.79,3c0,1.79-.08,3.23-.2,4.46.57.11,1.1.23,1.64.35.86.19,1.71.38,2.67.54.19-1.4.32-3.06.32-5.35h-4.43Z"/><path d="m10.32,9.45c-.17,1.02-.36,1.9-.56,2.77-.11.49-.21.97-.31,1.46,1.02.17,1.9.36,2.77.56.49.11.97.21,1.46.31.17-1.02.36-1.9.56-2.77.11-.49.21-.97.31-1.46-1.02-.17-1.9-.36-2.77-.56-.49-.11-.97-.21-1.46-.31Z"/><path d="m7,3c-2.13,0-3.86,1.68-3.98,3.79,2.36,0,4.12.14,5.59.34.11-1.14.18-2.47.18-4.13h-1.79Z"/><path d="m16.19,12.22c-.19.86-.38,1.71-.54,2.67,1.4.19,3.06.32,5.35.32v-4.43c-1.79,0-3.23-.08-4.46-.2-.11.57-.23,1.1-.35,1.64Z"/><path d="m17.21,3.02c0,2.36-.14,4.12-.34,5.59,1.14.11,2.47.18,4.13.18v-1.79c0-2.13-1.68-3.86-3.79-3.98Z"/><path d="m9.11,15.65c-.19,1.4-.32,3.06-.32,5.35h4.43c0-1.79.08-3.23.2-4.46-.57-.11-1.1-.23-1.64-.35-.86-.19-1.71-.38-2.67-.54Z"/><path d="m15.21,21h1.79c2.13,0,3.86-1.68,3.98-3.79-2.36,0-4.12-.14-5.59-.34-.11,1.14-.18,2.47-.18,4.13Z"/></g><path d="m6.79,20.98h0s-.01,0-.02,0c0,0,.01,0,.02,0Z"/><path d="m20.98,17.21h0s0,.01,0,.02c0,0,0-.01,0-.02Z"/><path d="m3.02,6.79h0s0-.01,0-.02c0,0,0,.01,0,.02Z"/><path d="m17.21,3.02c-.07,0-.14-.02-.21-.02h-1.79c0,2.28-.13,3.95-.32,5.35-.96-.16-1.81-.35-2.67-.54-.53-.12-1.07-.24-1.64-.35.13-1.23.2-2.67.2-4.46h-2c0,1.65-.07,2.99-.18,4.13-1.46-.2-3.23-.34-5.59-.34,0,.07-.02.14-.02.21v1.79c2.28,0,3.95.13,5.35.32-.16.96-.35,1.81-.54,2.67-.12.53-.24,1.07-.35,1.64-1.23-.13-2.67-.2-4.46-.2v2c1.65,0,2.99.07,4.13.18-.2,1.46-.34,3.23-.34,5.59.07,0,.14.02.21.02h1.79c0-2.28.13-3.95.32-5.35.96.16,1.81.35,2.67.54.53.12,1.07.24,1.64.35-.13,1.23-.2,2.67-.2,4.46h2c0-1.65.07-2.99.18-4.13,1.46.2,3.23.34,5.59.34,0-.07.02-.14.02-.21v-1.79c-2.28,0-3.95-.13-5.35-.32.16-.96.35-1.81.54-2.67.12-.53.24-1.07.35-1.64,1.23.13,2.67.2,4.46.2v-2c-1.65,0-2.99-.07-4.13-.18.2-1.46.34-3.23.34-5.59Zm-2.98,8.76c-.19.87-.39,1.75-.56,2.77-.5-.1-.98-.21-1.46-.31-.87-.19-1.75-.39-2.77-.56.1-.5.21-.98.31-1.46.19-.87.39-1.75.56-2.77.5.1.98.21,1.46.31.87.19,1.75.39,2.77.56-.1.5-.21.98-.31,1.46Z"/><path d="m17.21,3.02h0s.01,0,.02,0c0,0-.01,0-.02,0Z"/></svg>