<svg xmlns="http://www.w3.org/2000/svg" width="24" height="24" viewBox="0 0 24 24"><g opacity="0.4"><path d="m17.14,2.77c-.54-.32-1.19-.33-1.74-.02l-4.83,2.68c-.51.28-1.04.52-1.57.73v10.46c.41.13.81.29,1.21.47l5.33,2.37c.23.1.47.15.71.15.33,0,.66-.1.95-.28.5-.32.8-.87.8-1.47V4.27c0-.63-.32-1.19-.86-1.51Z"/><path d="m2,9.5v4c0,1.38,1.12,2.5,2.5,2.5h.63c.63,0,1.25.06,1.87.16V6.72c-.82.17-1.66.28-2.5.28-1.38,0-2.5,1.12-2.5,2.5Z"/></g><path d="m18,7v8c2.21,0,4-1.79,4-4s-1.79-4-4-4Z"/><path d="m9,8.28v-2.13c-.65.25-1.32.43-2,.57v14.28c0,.55.45,1,1,1s1-.45,1-1v-12.72Z"/></svg>