<svg xmlns="http://www.w3.org/2000/svg" width="24" height="24" viewBox="0 0 24 24"><g opacity="0.4"><path d="m19.5,3H4.5c-1.38,0-2.5,1.12-2.5,2.5v10c0,1.38,1.12,2.5,2.5,2.5h15c1.38,0,2.5-1.12,2.5-2.5V5.5c0-1.38-1.12-2.5-2.5-2.5Zm-13.5,5c0-.55.45-1,1-1s1,.45,1,1-.45,1-1,1-1-.45-1-1Zm11,6H7c-.41,0-.65-.47-.4-.8l1.8-2.4c.3-.4.9-.4,1.2,0l.5.67c.2.27.6.27.8,0l2-2.67c.3-.4.9-.4,1.2,0l3.3,4.4c.25.33.01.8-.4.8Z"/></g><path d="m9,20c-.55,0-1,.45-1,1s.45,1,1,1h6c.55,0,1-.45,1-1s-.45-1-1-1h-2v-2h-2v2h-2Z"/><path d="m14.1,8.8c-.3-.4-.9-.4-1.2,0l-2,2.67c-.2.27-.6.27-.8,0l-.5-.67c-.3-.4-.9-.4-1.2,0l-1.8,2.4c-.25.33-.01.8.4.8h10c.41,0,.65-.47.4-.8l-3.3-4.4Z"/><path d="M7 7A1 1 0 1 0 7 9 1 1 0 1 0 7 7z"/></svg>