<svg xmlns="http://www.w3.org/2000/svg" width="24" height="24" viewBox="0 0 24 24"><g opacity="0.4"><path d="m12,2C6.49,2,2,6.49,2,12s4.49,10,10,10,10-4.49,10-10S17.51,2,12,2Zm-5,8.5c0-.83.67-1.5,1.5-1.5s1.5.67,1.5,1.5-.67,1.5-1.5,1.5-1.5-.67-1.5-1.5Zm8,6.5h-6c-.55,0-1-.45-1-1s.45-1,1-1h6c.55,0,1,.45,1,1s-.45,1-1,1Zm.5-5c-.83,0-1.5-.67-1.5-1.5s.67-1.5,1.5-1.5,1.5.67,1.5,1.5-.67,1.5-1.5,1.5Z"/></g><path d="m17,10.5c0-.83-.67-1.5-1.5-1.5s-1.5.67-1.5,1.5.67,1.5,1.5,1.5,1.5-.67,1.5-1.5Z"/><path d="M8.5 9A1.5 1.5 0 1 0 8.5 12 1.5 1.5 0 1 0 8.5 9z"/><path d="m8,16c0,.55.45,1,1,1h6c.55,0,1-.45,1-1s-.45-1-1-1h-6c-.55,0-1,.45-1,1Z"/></svg>