<svg xmlns="http://www.w3.org/2000/svg" width="24" height="24" viewBox="0 0 24 24"><g opacity="0.4"><path d="m18,3H6c-2.21,0-4,1.79-4,4v8c0,2.21,1.79,4,4,4h1v1.82c0,.7.4,1.31,1.04,1.6.23.1.48.16.72.16.42,0,.83-.16,1.16-.45l3.46-3.12h4.62c2.21,0,4-1.79,4-4V7c0-2.21-1.79-4-4-4Zm-7.54,9.79c.39.39.39,1.02,0,1.41-.2.2-.45.29-.71.29s-.51-.1-.71-.29l-2.5-2.5c-.39-.39-.39-1.02,0-1.41l2.5-2.5c.39-.39,1.02-.39,1.41,0s.39,1.02,0,1.41l-1.79,1.79,1.79,1.79Zm7-1.09l-2.5,2.5c-.2.2-.45.29-.71.29s-.51-.1-.71-.29c-.39-.39-.39-1.02,0-1.41l1.79-1.79-1.79-1.79c-.39-.39-.39-1.02,0-1.41s1.02-.39,1.41,0l2.5,2.5c.39.39.39,1.02,0,1.41Z"/></g><path d="m13.54,14.21c.2.2.45.29.71.29s.51-.1.71-.29l2.5-2.5c.39-.39.39-1.02,0-1.41l-2.5-2.5c-.39-.39-1.02-.39-1.41,0s-.39,1.02,0,1.41l1.79,1.79-1.79,1.79c-.39.39-.39,1.02,0,1.41Z"/><path d="m9.04,14.21c.2.2.45.29.71.29s.51-.1.71-.29c.39-.39.39-1.02,0-1.41l-1.79-1.79,1.79-1.79c.39-.39.39-1.02,0-1.41s-1.02-.39-1.41,0l-2.5,2.5c-.39.39-.39,1.02,0,1.41l2.5,2.5Z"/></svg>