<svg xmlns="http://www.w3.org/2000/svg" width="24" height="24" viewBox="0 0 24 24"><g opacity="0.4"><path d="m17,6H7c-2.76,0-5,2.24-5,5v2c0,2.76,2.24,5,5,5h.64c1.17,0,2.28-.56,2.98-1.49.66-.88,2.1-.88,2.76,0,.7.93,1.82,1.49,2.98,1.49h.64c2.76,0,5-2.24,5-5v-2c0-2.76-2.24-5-5-5Zm-9.5,7c-1.38,0-2.5-.67-2.5-1.5s1.12-1.5,2.5-1.5,2.5.67,2.5,1.5-1.12,1.5-2.5,1.5Zm9,0c-1.38,0-2.5-.67-2.5-1.5s1.12-1.5,2.5-1.5,2.5.67,2.5,1.5-1.12,1.5-2.5,1.5Z"/></g><path d="M7.5 10A2.5 1.5 0 1 0 7.5 13 2.5 1.5 0 1 0 7.5 10z"/><path d="M16.5 10A2.5 1.5 0 1 0 16.5 13 2.5 1.5 0 1 0 16.5 10z"/></svg>