<svg xmlns="http://www.w3.org/2000/svg" width="24" height="24" viewBox="0 0 24 24"><g opacity="0.4"><path d="m18,3H6c-2.21,0-4,1.79-4,4v8c0,2.21,1.79,4,4,4h1v1.82c0,.7.4,1.31,1.04,1.6.23.1.48.16.72.16.42,0,.83-.16,1.16-.45l3.46-3.12h4.62c2.21,0,4-1.79,4-4V7c0-2.21-1.79-4-4-4Zm-6,12c-.55,0-1-.45-1-1s.45-1,1-1,1,.45,1,1-.45,1-1,1Zm1-4c0,.55-.45,1-1,1s-1-.45-1-1v-3c0-.55.45-1,1-1s1,.45,1,1v3Z"/></g><path d="m13,11v-3c0-.55-.45-1-1-1s-1,.45-1,1v3c0,.55.45,1,1,1s1-.45,1-1Z"/><path d="M12 13A1 1 0 1 0 12 15 1 1 0 1 0 12 13z"/></svg>