<svg xmlns="http://www.w3.org/2000/svg" width="24" height="24" viewBox="0 0 24 24"><g opacity="0.4"><path d="m11,20v1c0,.55.45,1,1,1s1-.45,1-1v-1c0-.55-.45-1-1-1s-1,.45-1,1Z"/><path d="m12,5c.55,0,1-.45,1-1v-1c0-.55-.45-1-1-1s-1,.45-1,1v1c0,.55.45,1,1,1Z"/><path d="m5,12c0-.55-.45-1-1-1h-1c-.55,0-1,.45-1,1s.45,1,1,1h1c.55,0,1-.45,1-1Z"/><path d="m21,11h-1c-.55,0-1,.45-1,1s.45,1,1,1h1c.55,0,1-.45,1-1s-.45-1-1-1Z"/><path d="m5.64,7.05c.2.2.45.29.71.29s.51-.1.71-.29c.39-.39.39-1.02,0-1.41l-.71-.71c-.39-.39-1.02-.39-1.41,0s-.39,1.02,0,1.41l.71.71Z"/><path d="m18.36,16.95c-.39-.39-1.02-.39-1.41,0s-.39,1.02,0,1.41l.71.71c.2.2.45.29.71.29s.51-.1.71-.29c.39-.39.39-1.02,0-1.41l-.71-.71Z"/><path d="m17.66,7.34c.26,0,.51-.1.71-.29l.71-.71c.39-.39.39-1.02,0-1.41s-1.02-.39-1.41,0l-.71.71c-.39.39-.39,1.02,0,1.41.2.2.45.29.71.29Z"/><path d="m5.64,16.95l-.71.71c-.39.39-.39,1.02,0,1.41.2.2.45.29.71.29s.51-.1.71-.29l.71-.71c.39-.39.39-1.02,0-1.41s-1.02-.39-1.41,0Z"/><path d="m16.36,14.4c-.18-.02-.37-.05-.54-.08-.4-.08-.78-.2-1.14-.35-.36-.15-.71-.34-1.03-.56-.32-.22-.62-.47-.9-.74-.27-.28-.52-.58-.74-.9-.22-.32-.41-.67-.56-1.03-.15-.36-.27-.75-.35-1.14-.08-.4-.12-.81-.12-1.22s.04-.83.12-1.22c0-.02,0-.03.01-.05-2.33.43-4.1,2.46-4.1,4.91,0,2.76,2.24,5,5,5,1.88,0,3.5-1.06,4.36-2.6Z"/></g><path d="m12,7c-.31,0-.61.04-.9.09,0,.02,0,.03-.01.05-.08.4-.12.81-.12,1.22s.04.83.12,1.22c.08.4.2.78.35,1.14.15.36.34.71.56,1.03.22.32.47.62.74.9.28.28.58.52.9.74.32.22.67.41,1.03.56.36.15.75.27,1.14.35.18.04.36.06.54.08.4-.72.64-1.53.64-2.4,0-2.76-2.24-5-5-5Z"/></svg>