<svg xmlns="http://www.w3.org/2000/svg" width="24" height="24" viewBox="0 0 24 24"><g opacity="0.4"><path d="m15,6c0-.77.3-1.47.78-2H7c-.47,0-.92.1-1.34.25l14.09,14.09c.15-.42.25-.87.25-1.34v-8.78c-.53.48-1.23.78-2,.78-1.66,0-3-1.34-3-3Z"/><path d="m3,8v9c0,2.21,1.79,4,4,4h9c1,0,1.9-.38,2.6-.98L3.98,5.4c-.61.7-.98,1.6-.98,2.6Z"/></g><path d="M18 3A3 3 0 1 0 18 9 3 3 0 1 0 18 3z"/><path d="m3.71,2.29c-.39-.39-1.02-.39-1.41,0s-.39,1.02,0,1.41l18,18c.2.2.45.29.71.29s.51-.1.71-.29c.39-.39.39-1.02,0-1.41L3.71,2.29Z"/></svg>