<svg xmlns="http://www.w3.org/2000/svg" width="24" height="24" viewBox="0 0 24 24"><g opacity="0.4"><path d="m19,6h-1.07l-1.56,2h2.62c.55,0,1-.45,1-1s-.45-1-1-1Z"/><path d="m6.14,13h3.81l1.56-2h-5.37c.45-1.72,2-3,3.86-3h3.84l1.56-2h-5.4c-3.31,0-6,2.69-6,6,0,2.13,1.12,4,2.8,5.06l1.24-1.59c-.92-.53-1.62-1.42-1.89-2.47Z"/><path d="m19,11h-4.96l-1.56,2h6.51c.55,0,1-.45,1-1s-.45-1-1-1Z"/><path d="m19,16h-8.84l-1.44,1.86c.42.09.85.14,1.29.14h9c.55,0,1-.45,1-1s-.45-1-1-1Z"/></g><path d="m5,22c.3,0,.59-.13.79-.39L19.79,3.61c.34-.44.26-1.06-.17-1.4-.44-.34-1.06-.26-1.4.18L4.21,20.39c-.34.44-.26,1.06.17,1.4.18.14.4.21.61.21Z"/></svg>