<svg xmlns="http://www.w3.org/2000/svg" width="24" height="24" viewBox="0 0 24 24"><g opacity="0.4"><path d="m5,18h1.07l1.56-2h-2.62c-.55,0-1,.45-1,1s.45,1,1,1Z"/><path d="m5,8h8.84l1.44-1.86c-.42-.09-.85-.14-1.29-.14H5c-.55,0-1,.45-1,1s.45,1,1,1Z"/><path d="m17.2,6.94l-1.24,1.6c1.21.69,2.04,1.98,2.04,3.46,0,2.21-1.79,4-4,4h-3.84l-1.56,2h5.4c3.31,0,6-2.69,6-6,0-2.13-1.12-4-2.8-5.06Z"/></g><path d="m5,22c.3,0,.59-.13.79-.39L19.79,3.61c.34-.44.26-1.06-.17-1.4-.44-.34-1.06-.26-1.4.18L4.21,20.39c-.34.44-.26,1.06.17,1.4.18.14.4.21.61.21Z"/></svg>