<svg xmlns="http://www.w3.org/2000/svg" width="24" height="24" viewBox="0 0 24 24"><g opacity="0.4"><path d="m17,3H7c-2.21,0-4,1.79-4,4v2h18v-2c0-2.21-1.79-4-4-4Zm-9,4c-.55,0-1-.45-1-1s.45-1,1-1,1,.45,1,1-.45,1-1,1Zm4,0c-.55,0-1-.45-1-1s.45-1,1-1,1,.45,1,1-.45,1-1,1Zm4,0c-.55,0-1-.45-1-1s.45-1,1-1,1,.45,1,1-.45,1-1,1Z"/></g><path d="M8 5A1 1 0 1 0 8 7 1 1 0 1 0 8 5z"/><path d="M16 5A1 1 0 1 0 16 7 1 1 0 1 0 16 5z"/><path d="M12 5A1 1 0 1 0 12 7 1 1 0 1 0 12 5z"/><path d="m3,17c0,2.21,1.79,4,4,4h10c2.21,0,4-1.79,4-4v-8H3v8Zm6-5h6c.55,0,1,.45,1,1s-.45,1-1,1h-6c-.55,0-1-.45-1-1s.45-1,1-1Z"/></svg>