<svg xmlns="http://www.w3.org/2000/svg" width="24" height="24" viewBox="0 0 24 24"><g opacity="0.4"><path d="m21.71,13.29c-.38-.37-1.05-.37-1.42,0-.09.1-.16.2-.21.33-.06.12-.08.25-.08.38v1c0,.55-.45,1-1,1s-1-.45-1-1c0-1.48.35-2.89.62-4.02.07-.3.14-.59.2-.85.23-1.06.18-2.17-.14-3.21-.34-1.09-.93-2.05-1.69-2.83v-.09h-.1c-1.28-1.25-3.01-2-4.9-2s-3.63.75-4.9,2h-.1v.09c-.76.77-1.35,1.73-1.69,2.83-.32,1.04-.37,2.15-.14,3.21.06.26.13.54.2.85.28,1.13.62,2.54.62,4.02,0,.55-.45,1-1,1s-1-.45-1-1v-1c0-.13-.03-.26-.08-.38s-.12-.23-.21-.33c-.05-.04-.1-.09-.15-.12-.06-.04-.12-.07-.18-.09-.06-.03-.12-.05-.19-.06-.19-.04-.39-.02-.57.06-.13.05-.23.12-.33.21-.09.1-.16.2-.21.33-.06.12-.08.25-.08.38v.66c0,.66.16,1.32.5,1.88,1.07,1.73,3.2,1.75,4.5.94.58-.36,1.16-.64,1.75-.86-1.1,3.32-5.54,3.38-5.75,3.38h0c-.26,0-.53.1-.71.29-.18.19-.29.45-.29.71s.1.52.29.71.44.29.71.29c2.16,0,5.82-.9,7.32-3.92.32-.65.95-1.08,1.68-1.08s1.36.44,1.68,1.09c.67,1.35,1.82,2.39,3.43,3.08,1.92.82,3.81.83,3.89.83.13,0,.26-.03.38-.08s.23-.12.33-.21c.19-.19.29-.44.29-.71s-.11-.52-.29-.71c-.19-.19-.45-.28-.71-.28h0c-.21-.01-4.66-.08-5.76-3.4.59.23,1.18.5,1.76.87,1.3.81,3.43.79,4.5-.94.35-.56.5-1.22.5-1.88v-.66c0-.13-.03-.26-.08-.38s-.12-.23-.21-.33Zm-11.71-1.29c-.55,0-1-.45-1-1s.45-1,1-1,1,.45,1,1-.45,1-1,1Zm4,0c-.55,0-1-.45-1-1s.45-1,1-1,1,.45,1,1-.45,1-1,1Z"/></g><path d="M14 10A1 1 0 1 0 14 12 1 1 0 1 0 14 10z"/><path d="M10 10A1 1 0 1 0 10 12 1 1 0 1 0 10 10z"/></svg>