<svg xmlns="http://www.w3.org/2000/svg" width="24" height="24" viewBox="0 0 24 24"><g opacity="0.4"><path d="m15.15,15.65c-2.19,1.94-4.63,3.61-6.82,4.58,1.1.49,2.31.76,3.55.77.04,0,.08,0,.12,0,2.37,0,4.59-.9,6.28-2.55,1.72-1.67,2.68-3.92,2.71-6.34.01-.98-.14-1.92-.42-2.83-1.21,2.1-3.19,4.38-5.43,6.36Z"/><path d="m19.51,7.02c-.31-.46-.66-.91-1.06-1.31-.17-.17-.34-.32-.52-.48,0,0,0,0,0,0-.54-.48-1.13-.88-1.76-1.21,0,0,0,0,0,0-1.24-.65-2.62-1-4.06-1.02-2.42,0-4.69.88-6.4,2.55-1.72,1.68-2.68,3.93-2.71,6.34-.02,1.15.19,2.27.58,3.31,0,0,0,0,0,0,.26.69.62,1.35,1.05,1.96,0,0,0,0,0,0,.28.39.58.77.92,1.12.21.22.44.43.67.62,1.75-.52,4.47-1.98,7.6-4.76,3.23-2.87,5-5.46,5.68-7.13Z"/></g><path d="m18.64,2.89c-.81.09-1.63.48-2.47,1.13.63.33,1.22.73,1.76,1.21.39-.23.71-.33.93-.35.36-.04.63.06.86.32.63.71-.88,4.5-5.89,8.95-5,4.45-8.95,5.5-9.58,4.79-.22-.25,0-1.09.39-1.78-.43-.61-.79-1.27-1.05-1.96-1.07,1.2-2.07,3.68-.83,5.08.52.58,1.26.84,2.15.84,2.71,0,6.81-2.4,10.26-5.46,4.59-4.07,8.14-9.42,6.06-11.77-.66-.74-1.57-1.09-2.57-.98Z"/></svg>