<svg xmlns="http://www.w3.org/2000/svg" width="24" height="24" viewBox="0 0 24 24"><g opacity="0.4"><path d="m11,3h-6c-1.65,0-3,1.35-3,3v12c0,1.65,1.35,3,3,3h6c1.65,0,3-1.35,3-3V6c0-1.65-1.35-3-3-3Zm1,6H4v-3c0-.55.45-1,1-1h6c.55,0,1,.45,1,1v3Z"/></g><path d="m17.41,3.84c-.43-.35-1.06-.28-1.41.16-.34.43-.27,1.06.16,1.41l3.09,2.48c.47.38.75.95.75,1.56v8.56c0,.55-.45,1-1,1s-1-.45-1-1v-3c0-1.66-1.34-3-3-3h-1v2h1c.55,0,1,.45,1,1v2.88c0,1.45.98,2.78,2.4,3.06,1.92.37,3.6-1.09,3.6-2.94v-8.56c0-1.22-.55-2.36-1.5-3.12l-3.09-2.47Z"/><path d="m12,6c0-.55-.45-1-1-1h-6c-.55,0-1,.45-1,1v3h8v-3Z"/></svg>