<svg xmlns="http://www.w3.org/2000/svg" width="24" height="24" viewBox="0 0 24 24"><g opacity="0.4"><path d="m20,7h-.4l-1.6-1.6v-1.9c0-.83-.67-1.5-1.5-1.5h-.5c-1.44,0-2.75.78-3.45,2h-3.55c-3.86,0-7,3.14-7,7,0,.22.02,5.35,1.64,9.41.39.97,1.3,1.59,2.33,1.59h.52c1.38,0,2.5-1.12,2.5-2.5v-1.5h4v1.5c0,1.38,1.12,2.5,2.5,2.5h.65c.92,0,1.77-.51,2.22-1.33,1.14-2.1,1.57-4.41,1.73-5.67,1.06-.05,1.9-.93,1.9-2v-4c0-1.1-.9-2-2-2Zm-9,3h-4c-.55,0-1-.45-1-1s.45-1,1-1h4c.55,0,1,.45,1,1s-.45,1-1,1Zm5,1c-.55,0-1-.45-1-1s.45-1,1-1,1,.45,1,1-.45,1-1,1Z"/></g><path d="m7,10h4c.55,0,1-.45,1-1s-.45-1-1-1h-4c-.55,0-1,.45-1,1s.45,1,1,1Z"/><path d="M16 9A1 1 0 1 0 16 11 1 1 0 1 0 16 9z"/></svg>