<svg xmlns="http://www.w3.org/2000/svg" width="24" height="24" viewBox="0 0 24 24"><g opacity="0.4"><path d="m6.33,8.27c0,1.26.16,2.1.35,2.73h2.12c-.25-.63-.48-1.29-.48-2.73s.96-3.27,3.67-3.27c1.54,0,2.35.89,2.73,1.56.23.4.68.59,1.13.48h0c.62-.17.95-.87.63-1.43-.71-1.23-2.13-2.61-4.49-2.61-3.89,0-5.67,2.73-5.67,5.27Z"/><path d="m17.98,18.97c-.22-.48-.78-.7-1.27-.5-.72.28-1.51.54-1.91.54-.9,0-1.57-.22-2.35-.48-.82-.27-1.75-.58-2.98-.58-.29,0-.69.06-1.14.15.69-1.26,1.07-2.79,1.07-4.48,0-.22-.02-.41-.04-.6h-2.01c.03.18.05.37.05.6,0,2.56-1.06,4.61-2.85,5.51-.47.23-.68.79-.48,1.27.16.39.53.63.93.63.1,0,.2-.01.3-.05,1.35-.42,3.54-1.02,4.17-1.02.9,0,1.57.22,2.35.48.82.27,1.75.58,2.98.58.77,0,1.86-.36,2.65-.68.54-.21.78-.83.53-1.35h0Z"/></g><path d="m5,13h8c.55,0,1-.45,1-1s-.45-1-1-1H5c-.55,0-1,.45-1,1s.45,1,1,1Z"/></svg>