<svg xmlns="http://www.w3.org/2000/svg" width="24" height="24" viewBox="0 0 24 24"><g opacity="0.4"><path d="m17.27,7c-1.14,0-2.2-.51-2.91-1.4l-.75-.94c-1.35-1.69-3.37-2.66-5.53-2.66-3.9,0-7.08,3.18-7.08,7.08v8.92c0,2.21,1.79,4,4,4h14c2.21,0,4-1.79,4-4v-5.27c0-3.16-2.57-5.73-5.73-5.73Zm3.73,11c0,1.1-.9,2-2,2H5c-1.1,0-2-.9-2-2v-4h18v4Z"/></g><path d="m6,18c.55,0,1-.45,1-1v-3h-2v3c0,.55.45,1,1,1Z"/><path d="m10,18c.55,0,1-.45,1-1v-3h-2v3c0,.55.45,1,1,1Z"/><path d="m14,18c.55,0,1-.45,1-1v-3h-2v3c0,.55.45,1,1,1Z"/><path d="m18,18c.55,0,1-.45,1-1v-3h-2v3c0,.55.45,1,1,1Z"/></svg>