<svg xmlns="http://www.w3.org/2000/svg" width="24" height="24" viewBox="0 0 24 24"><g opacity="0.4"><path d="m17.92,8.34c-.35-.4-.72-.79-1.1-1.17-.11-.11-.22-.21-.33-.31-.36.6-.87,1.06-1.46,1.38.12.12.24.22.37.35.37.37.71.73,1.02,1.09.4-.45.9-.91,1.49-1.33Z"/><path d="m7.34,16.66c-.84-.84-1.6-1.72-2.25-2.6-.39-.53-.72-1.04-1.02-1.55l-1.57,4.82c-.11.32-.17.67-.17,1.04,0,.89.34,1.72.96,2.34.63.63,1.48.96,2.35.96.34,0,.68-.05,1.01-.16l4.84-1.58c-.51-.3-1.02-.63-1.55-1.02-.88-.65-1.76-1.41-2.6-2.25Z"/><path d="m17.7,11.27c1.52,2.15,1.89,3.73,1.59,4.02l-.14.05c-.87.19-3.56-.93-6.57-3.93-2.99-2.99-4.11-5.66-3.93-6.55l.05-.16c.06-.06.18-.09.35-.09.71,0,2.32.61,4.33,2.17.66-.2,1.35-.58,1.56-1.32-2.87-2.33-6.06-3.76-7.65-2.17-.17.18-.31.38-.42.62h0s-.02.05-.02.05c0,0,0,0,0,0l-.02.07-.09.29s0,0,0,0l-1.76,5.42c.08.26.2.57.38.95.33.69.78,1.42,1.35,2.19.6.81,1.29,1.6,2.06,2.38.77.77,1.57,1.47,2.38,2.06.76.57,1.5,1.02,2.19,1.35.38.18.69.3.95.38l5.42-1.76.35-.11c.26-.11.49-.26.68-.45,1.43-1.43.4-4.17-1.53-6.8-.62.42-1.11.92-1.48,1.37Z"/></g><path d="m7.34,16.66c.84.84,1.72,1.6,2.6,2.25.53.39,1.05.72,1.55,1.02l2.77-.9c-.26-.08-.57-.2-.95-.38-.69-.33-1.42-.78-2.19-1.35-.81-.6-1.6-1.29-2.38-2.06-.77-.77-1.46-1.57-2.06-2.38-.57-.76-1.02-1.5-1.35-2.19-.18-.38-.3-.69-.38-.95l-.9,2.77c.3.51.63,1.02,1.02,1.55.66.88,1.41,1.76,2.25,2.6Z"/><path d="m13.13,8.9c1.73-.3,3.87-1.34,3.87-3.9,0-2.25-1.4-3.4-2.78-3.81-.61-.18-1.22.3-1.23.94v.04c0,.44.3.81.73.95.59.19,1.28.67,1.28,1.88,0,1.32-1.32,1.77-2.21,1.92-.46.08-.8.49-.79.96v.05c0,.6.54,1.07,1.13.96Z"/><path d="m20.88,7.09c-2.65.43-4.36,2.33-5.19,3.51-.34.49-.17,1.16.37,1.43l.05.02c.43.21.95.09,1.22-.3.62-.89,1.92-2.35,3.86-2.68.47-.08.82-.48.82-.95v-.06c0-.59-.53-1.07-1.12-.97Z"/></svg>