<svg xmlns="http://www.w3.org/2000/svg" width="24" height="24" viewBox="0 0 24 24"><g opacity="0.4"><path d="m16,6h-8c-2.21,0-4,1.79-4,4v8c0,2.21,1.79,4,4,4h8c2.21,0,4-1.79,4-4v-8c0-2.21-1.79-4-4-4Zm-1,9h-2v2c0,.55-.45,1-1,1s-1-.45-1-1v-2h-2c-.55,0-1-.45-1-1s.45-1,1-1h2v-2c0-.55.45-1,1-1s1,.45,1,1v2h2c.55,0,1,.45,1,1s-.45,1-1,1Z"/></g><path d="m16,6c.35,0,.68.06,1,.14v-1.64c0-1.38-1.12-2.5-2.5-2.5h-5c-1.38,0-2.5,1.12-2.5,2.5v1.64c.32-.08.65-.14,1-.14h8Z"/><path d="m12,18c.55,0,1-.45,1-1v-2h2c.55,0,1-.45,1-1s-.45-1-1-1h-2v-2c0-.55-.45-1-1-1s-1,.45-1,1v2h-2c-.55,0-1,.45-1,1s.45,1,1,1h2v2c0,.55.45,1,1,1Z"/></svg>