<svg xmlns="http://www.w3.org/2000/svg" width="24" height="24" viewBox="0 0 24 24"><g opacity="0.4"><path d="M17 8A2 2 0 1 0 17 12 2 2 0 1 0 17 8z"/><path d="m20.72,15.21c-.68-1.36-2.05-2.21-3.58-2.21h-3.54c-.38,0-.75-.11-1.07-.31.47.3.6.91.31,1.38-.3.47-.91.6-1.38.31.64.41,1.38.62,2.14.62h.39v6c0,.55.45,1,1,1s1-.45,1-1v-2h2v2c0,.55.45,1,1,1s1-.45,1-1v-2.76l.11.21c.18.35.53.55.9.55.15,0,.3-.03.45-.11.49-.25.69-.85.45-1.34l-1.17-2.34Z"/></g><path d="M6 2A2 2 0 1 0 6 6 2 2 0 1 0 6 2z"/><path d="m12.84,14.07c.3-.47.16-1.08-.31-1.38-.24-.15-.44-.35-.59-.58l-2-3c-.88-1.32-2.35-2.11-3.94-2.11-2.21,0-4,1.79-4,4v3c0,.55.45,1,1,1h1v6c0,.55.45,1,1,1h2c.55,0,1-.45,1-1v-11.1c.1.1.2.2.28.32l2,3c.31.47.71.86,1.19,1.16.47.3,1.08.16,1.38-.31Z"/></svg>