<svg xmlns="http://www.w3.org/2000/svg" width="24" height="24" viewBox="0 0 24 24"><g opacity="0.4"><path d="m20.71,6.7l-7.5-4.17c-.76-.42-1.67-.42-2.43,0l-2.3,1.28,9.25,5.17c.47.27.77.77.77,1.31v2.92c0,.36-.2.7-.51.87-.67.37-1.49-.11-1.49-.87v-2.04c0-.36-.2-.7-.51-.87L6.4,4.97l-3.12,1.73c-.38.21-.68.51-.9.86l8.34,4.72c.78.44,1.27,1.27,1.27,2.18v7.33c.42,0,.83-.11,1.21-.32l7.5-4.17c.79-.44,1.29-1.28,1.29-2.19v-6.23c0-.91-.49-1.75-1.29-2.19Z"/></g><path d="m3.29,17.3l7.5,4.17c.38.21.8.32,1.21.32v-7.33c0-.9-.48-1.73-1.27-2.18L2.39,7.56c-.25.39-.39.85-.39,1.32v6.23c0,.91.49,1.75,1.29,2.19Z"/><path d="m16.5,11.18v2.04c0,.76.82,1.24,1.49.87.32-.18.51-.51.51-.87v-2.92c0-.54-.29-1.04-.77-1.31L8.49,3.81l-2.08,1.16,9.58,5.34c.32.18.51.51.51.87Z"/></svg>