<svg xmlns="http://www.w3.org/2000/svg" width="24" height="24" viewBox="0 0 24 24"><g opacity="0.4"><path d="m14.71,5.29l4.21,4.21,1.73-1.73c.47-.47.73-1.1.73-1.77s-.26-1.3-.73-1.77l-.88-.88c-.97-.97-2.56-.97-3.54,0l-1.73,1.73.21.21Z"/><path d="m13.09,6.5L4.29,15.29c-.1.1-.17.21-.22.34l-1.35,3.37c-.26.65-.11,1.39.39,1.89.33.33.78.51,1.24.51.22,0,.44-.04.65-.12l3.38-1.35c.13-.05.24-.13.34-.22l8.79-8.79-4.41-4.41Z"/></g><path d="m14.71,5.29l-.21-.21h0l-1.09-1.09c-.78-.78-2.05-.78-2.83,0l-4.59,4.59c-.39.39-.39,1.02,0,1.41s1.02.39,1.41,0l4.59-4.59.29.29h0s.79.79.79.79l2.21,2.21,2.21,2.21,1.41-1.41-4.21-4.21Z"/></svg>