<svg xmlns="http://www.w3.org/2000/svg" width="24" height="24" viewBox="0 0 24 24"><g opacity="0.4"><path d="m2.87,12.03c-.57.57-.88,1.32-.88,2.12s.31,1.56.88,2.12l4.86,4.86c.58.58,1.35.88,2.12.88s1.54-.29,2.12-.88l5.38-5.38L8.25,6.66l-5.38,5.37Z"/></g><path d="m17.32,2.87l-2.36,2.37-.53-.52c-.57-.57-1.32-.88-2.12-.88h0c-.8,0-1.56.31-2.12.88l-1.94,1.95,9.1,9.1,1.95-1.96c1.17-1.17,1.17-3.07,0-4.24l-.52-.52,2.44-2.44c.51-.51.79-1.19.79-1.91,0-.8-.36-1.56-.98-2.08-1.06-.89-2.69-.78-3.7.24Z"/></svg>