<svg xmlns="http://www.w3.org/2000/svg" width="24" height="24" viewBox="0 0 24 24"><g opacity="0.4"><path d="m9.76,8.52c-1.08.3-1.91,1.17-2.14,2.27l-1.6,7.5c-.08.36-.09.72-.03,1.08l.1.64,5.42-5.42s0-.05,0-.08c0-.83.67-1.5,1.5-1.5s1.5.67,1.5,1.5-.67,1.5-1.5,1.5c-.03,0-.05,0-.08,0l-5.42,5.42.7.11c.32.05.64.05.96,0l7.05-1.21c1.1-.19,2.01-.97,2.35-2.04l1.86-5.77-5.41-5.41-5.24,1.43Z"/></g><path d="m20.71,6.79l-.94-.94c-.98-.98-2.56-.98-3.54,0l-1.23,1.23,2.71,2.71,2.71,2.71,1.23-1.23c.98-.98.98-2.56,0-3.54l-.94-.94Z"/><path d="m7.5,21.41l5.42-5.42s.05,0,.08,0c.83,0,1.5-.67,1.5-1.5s-.67-1.5-1.5-1.5-1.5.67-1.5,1.5c0,.03,0,.05,0,.08l-5.42,5.42-.05-.34c-.54.22-1.12.35-1.45.18-.37-.2-.58-.93-.58-2.01,0-1.98.79-4.25,1.56-6.44,1.05-3.01,2.05-5.86.72-7.73-.65-.92-1.76-1.45-3.36-1.61-.59-.06-1.1.41-1.1,1,0,.51.39.94.9.99.8.08,1.58.29,1.93.78.73,1.02-.14,3.51-.98,5.91-.78,2.24-1.67,4.78-1.67,7.1,0,1.93.56,3.21,1.66,3.78.42.22.87.3,1.31.3.9,0,1.78-.35,2.37-.66l.16.16Z"/></svg>