<svg xmlns="http://www.w3.org/2000/svg" width="24" height="24" viewBox="0 0 24 24"><g opacity="0.4"><path d="m20.24,15.99l-2.44-1.63c-1.07-.71-2.47-.54-3.34.4l-.96,1.04c-.75-.44-2.03-1.26-3.03-2.27s-1.82-2.28-2.27-3.03l1.04-.96c.94-.87,1.11-2.27.4-3.34l-1.63-2.44c-.39-.58-.98-.98-1.67-1.11-.69-.13-1.38.02-1.96.42l-1.25.86c-.74.51-1.16,1.36-1.11,2.26.1,1.97.76,6.98,4.79,11.01,4.02,4.02,9.03,4.69,11,4.79.04,0,.09,0,.13,0,.85,0,1.64-.41,2.13-1.12l.87-1.25c.4-.58.55-1.27.42-1.96-.13-.69-.52-1.28-1.11-1.67Z"/></g><path d="m21,5h-2v-2c0-.55-.45-1-1-1s-1,.45-1,1v2h-2c-.55,0-1,.45-1,1s.45,1,1,1h2v2c0,.55.45,1,1,1s1-.45,1-1v-2h2c.55,0,1-.45,1-1s-.45-1-1-1Z"/></svg>