<svg xmlns="http://www.w3.org/2000/svg" width="24" height="24" viewBox="0 0 24 24"><g opacity="0.4"><path d="m5,4c-.55,0-1-.45-1-1s-.45-1-1-1-1,.45-1,1c0,1.65,1.35,3,3,3v-2Z"/><path d="M10 6A1 1 0 1 0 10 8 1 1 0 1 0 10 6z"/><path d="m16.02,13.04c2.21-1.11,3.9-3.1,4.61-5.5-.46-.68-1.02-1.29-1.67-1.8-.37,3.52-3.35,6.27-6.96,6.27h2c.83,0,1.57.41,2.02,1.04Z"/></g><path d="m16.02,13.04c.3.41.48.91.48,1.46,0,1.38-1.12,2.5-2.5,2.5h-4.35c-.56-1.18-1.76-2-3.15-2h-1.62c-.51,0-.87.5-.72.99.47,1.49,1.84,2.51,1.84,2.51,0,0-1.37,1.03-1.84,2.51-.15.49.21.99.72.99h1.62c1.39,0,2.59-.82,3.15-2h4.35c4.42,0,8-3.58,8-8h0c0-1.66-.51-3.19-1.37-4.46-.71,2.41-2.4,4.4-4.61,5.5Z"/><path d="m15.99,4.26c-.25-.06-.51-.12-.77-.16-.08-.01-.16-.03-.24-.04-.32-.04-.65-.07-.98-.07H5v2c0,3.31,2.69,6,6,6h1c3.61,0,6.59-2.75,6.96-6.27-.82-.65-1.76-1.14-2.79-1.43-.06-.02-.12-.03-.17-.04Zm-5.99,3.74c-.55,0-1-.45-1-1s.45-1,1-1,1,.45,1,1-.45,1-1,1Z"/></svg>