<svg xmlns="http://www.w3.org/2000/svg" width="24" height="24" viewBox="0 0 24 24"><g opacity="0.4"><path d="m11.73,6.85c-.09.09-.22.15-.35.15h-3.23c-1.12,0-2.12.76-2.41,1.84l-2.58,9.47c-.1.36-.07.73.06,1.06l5.8-5.8s0-.05,0-.08c0-.83.67-1.5,1.5-1.5s1.5.67,1.5,1.5-.67,1.5-1.5,1.5c-.03,0-.05,0-.08,0l-5.81,5.81c.19.07.4.11.61.11.15,0,.31-.02.46-.06l9.48-2.58c1.08-.3,1.84-1.29,1.84-2.41v-3.23c0-.13.05-.26.15-.35l1.35-1.35-5.41-5.41-1.35,1.35Z"/></g><path d="m4.5,20.91l5.92-5.92s.05,0,.08,0c.83,0,1.5-.67,1.5-1.5s-.67-1.5-1.5-1.5-1.5.67-1.5,1.5c0,.03,0,.05,0,.08l-5.92,5.92,1.41,1.41Z"/><path d="m19.7,4.29l-.94-.94c-.98-.97-2.56-.97-3.53,0l-2.14,2.14,5.41,5.41,2.15-2.15c.98-.98.97-2.56,0-3.54l-.94-.94Z"/></svg>