<svg xmlns="http://www.w3.org/2000/svg" width="24" height="24" viewBox="0 0 24 24"><g opacity="0.4"><path d="m15.35,14.19c-.26.4-.22.93.12,1.27.43.43,1.17.4,1.52-.11.22-.32.4-.66.55-1.02.31-.74.47-1.53.47-2.34s-.16-1.59-.47-2.34c-.3-.71-.73-1.36-1.28-1.91s-1.19-.98-1.91-1.29c-1.48-.63-3.19-.63-4.67,0-.71.3-1.36.74-1.91,1.29-.55.55-.98,1.19-1.29,1.91-.31.74-.47,1.53-.47,2.34s.16,1.59.47,2.34c.15.36.34.7.55,1.02.34.51,1.08.54,1.52.11.34-.34.38-.87.12-1.27-.13-.2-.25-.41-.34-.64-.21-.49-.31-1.02-.31-1.56s.11-1.06.31-1.56c.2-.48.49-.9.86-1.27.37-.37.8-.66,1.27-.86.98-.42,2.13-.42,3.11,0,.48.2.9.49,1.27.86s.66.79.86,1.27c.21.49.31,1.02.31,1.56s-.11,1.06-.31,1.56c-.09.22-.21.44-.34.64Z"/><path d="m21.21,8.11c-.25-.59-.56-1.16-.92-1.7-.36-.53-.77-1.03-1.22-1.48-.45-.45-.95-.86-1.48-1.22-.54-.36-1.11-.67-1.7-.92-.6-.26-1.24-.45-1.88-.58-1.31-.27-2.72-.27-4.03,0-.64.13-1.27.33-1.88.58-.59.25-1.16.56-1.7.92-.53.36-1.03.77-1.48,1.22-.45.45-.86.95-1.22,1.48-.36.54-.67,1.11-.92,1.7-.26.6-.45,1.24-.58,1.88-.13.66-.2,1.34-.2,2.01s.07,1.35.2,2.01c.13.64.33,1.27.58,1.88.25.59.56,1.16.92,1.7.36.53.77,1.03,1.22,1.48.45.45.95.86,1.48,1.22.23.16.47.3.71.44.52.29,1.17.05,1.4-.49.2-.47,0-1.01-.44-1.27-.19-.11-.37-.22-.55-.34-.42-.29-.82-.62-1.18-.98s-.69-.76-.98-1.18c-.29-.43-.54-.89-.74-1.36-.2-.48-.36-.99-.47-1.5-.11-.53-.16-1.07-.16-1.61s.05-1.09.16-1.61c.11-.51.26-1.02.47-1.5.2-.47.45-.93.74-1.36.29-.42.62-.82.98-1.18.36-.36.76-.69,1.18-.98.43-.29.89-.54,1.36-.74.48-.2.99-.36,1.5-.47,1.05-.21,2.18-.21,3.23,0,.51.11,1.02.26,1.5.47.47.2.93.45,1.36.74.42.29.82.62,1.18.98s.69.76.98,1.18c.29.43.54.89.74,1.36.2.48.36.99.47,1.5.11.53.16,1.07.16,1.61s-.05,1.09-.16,1.61c-.11.51-.26,1.02-.47,1.5-.2.47-.45.93-.74,1.36-.29.42-.62.82-.98,1.18-.36.36-.76.69-1.18.98-.18.12-.36.23-.55.34-.45.25-.65.79-.44,1.27.23.54.88.78,1.4.49.24-.14.48-.28.71-.44.53-.36,1.03-.77,1.48-1.22.45-.45.86-.95,1.22-1.48.36-.54.67-1.11.92-1.7.26-.6.45-1.24.58-1.88.13-.66.2-1.34.2-2.01s-.07-1.35-.2-2.01c-.13-.64-.33-1.27-.58-1.88Z"/></g><path d="M12 10A2 2 0 1 0 12 14 2 2 0 1 0 12 10z"/><path d="m12.43,15h-.85c-.58,0-1.04.49-1,1.07l.36,5c.04.52.47.93,1,.93h.14c.52,0,.96-.41,1-.93l.36-5c.04-.58-.42-1.07-1-1.07Z"/></svg>