<svg xmlns="http://www.w3.org/2000/svg" width="24" height="24" viewBox="0 0 24 24"><g opacity="0.4"><path d="m8,9.41c-.51,0-1.03.19-1.41.59l-.59.59c-.78.78-.78,2.05,0,2.83l1.59,1.59-4.59,4.59c-.39.39-.39,1.02,0,1.41s1.02.39,1.41,0l4.59-4.59,1.59,1.59c.39.39.9.58,1.41.58s1.02-.19,1.41-.58l.59-.59c.39-.39.59-.9.59-1.41l-6.58-6.58Z"/><path d="m13.09,6.5l-2.59,2.59,4.41,4.41,2.59-2.59.09.09c.78.78,2.05.78,2.83,0l.59-.59c.78-.78.78-2.05,0-2.83l-4.59-4.59c-.78-.78-2.05-.78-2.83,0l-.59.59c-.78.78-.78,2.05,0,2.83l.09.09Z"/></g><path d="m21,22c-.26,0-.51-.1-.71-.29L2.29,3.71c-.39-.39-.39-1.02,0-1.41s1.02-.39,1.41,0l18,18c.39.39.39,1.02,0,1.41-.2.2-.45.29-.71.29Z"/></svg>