<svg xmlns="http://www.w3.org/2000/svg" width="24" height="24" viewBox="0 0 24 24"><g opacity="0.4"><path d="m20.65,10.77c.47-.47.73-1.1.73-1.77s-.26-1.29-.73-1.77l-.88-.88c-.95-.95-2.59-.95-3.54,0l-.73.73,4.41,4.41.73-.73Z"/><path d="m7.5,21h2.29c.4,0,.78-.16,1.06-.44l7.65-7.65-4.41-4.41-7.65,7.65c-.28.28-.44.66-.44,1.06v2.29c0,.83.67,1.5,1.5,1.5Z"/></g><path class="st0" d="M10.4,5.6L9,5C8.6,4.8,8.2,4.4,8,4L7.4,2.6C7.3,2.2,6.9,2,6.5,2l0,0C6.1,2,5.8,2.2,5.6,2.6l0,0L5,3.9
	c-0.2,0.4-0.5,0.8-0.9,1L2.6,5.6C2.2,5.8,2,6.1,2,6.5c0,0.4,0.2,0.7,0.6,0.9L4,8c0.4,0.2,0.8,0.6,1,1l0.6,1.4
	C5.8,10.8,6.1,11,6.5,11s0.8-0.2,0.9-0.6L8.1,9c0.2-0.4,0.6-0.8,1-1l1.4-0.6C10.8,7.3,11,6.9,11,6.5S10.8,5.8,10.4,5.6L10.4,5.6z"/><path class="st0" d="M21.7,19l-0.8-0.3c-0.2-0.1-0.5-0.3-0.6-0.6L20,17.3c-0.1-0.2-0.3-0.3-0.5-0.3l0,0c-0.2,0-0.4,0.1-0.5,0.3l0,0
	l-0.3,0.8c-0.1,0.2-0.3,0.4-0.5,0.5L17.3,19c-0.2,0.1-0.3,0.3-0.3,0.5c0,0.2,0.1,0.4,0.3,0.5l0.8,0.4c0.2,0.1,0.5,0.3,0.6,0.6
	l0.3,0.8c0.1,0.2,0.3,0.3,0.5,0.3s0.4-0.1,0.5-0.3l0.3-0.8c0.1-0.2,0.3-0.5,0.6-0.6l0.8-0.3c0.2-0.1,0.3-0.3,0.3-0.5
	S21.9,19.1,21.7,19L21.7,19z"/><path class="st0" d="M14.1 8.5 14.8 7.8 15.5 7.1 17.7 9.3 19.9 11.5 19.2 12.2 18.5 12.9 16.3 10.7z"/></svg>