<svg xmlns="http://www.w3.org/2000/svg" width="24" height="24" viewBox="0 0 24 24"><g opacity="0.4"><path d="m19,2H6c-1.65,0-3,1.35-3,3v14c0,1.65,1.35,3,3,3h14c.55,0,1-.45,1-1s-.45-1-1-1H6c-.55,0-1-.45-1-1s.45-1,1-1h13c1.1,0,2-.9,2-2V4c0-1.1-.9-2-2-2ZM7,7.5c0-.83.67-1.5,1.5-1.5s1.5.67,1.5,1.5-.67,1.5-1.5,1.5-1.5-.67-1.5-1.5Zm9.96,6.5h-8.89c-.42,0-.66-.49-.38-.82l1.29-1.55c.28-.34.79-.36,1.11-.05l.54.54c.21.21.54.19.73-.03l2.06-2.4c.31-.36.86-.35,1.16.02l2.78,3.48c.26.33.03.81-.39.81Z"/></g><path class="st0" d="M8.5 6A1.5 1.5 0 1 0 8.5 9 1.5 1.5 0 1 0 8.5 6z"/><path class="st0" d="M9,11.6l-1.3,1.6c-0.3,0.3,0,0.8,0.4,0.8H17c0.4,0,0.6-0.5,0.4-0.8l-2.8-3.5c-0.3-0.4-0.9-0.4-1.2,0l-2.1,2.4
	c-0.2,0.2-0.5,0.2-0.7,0l-0.5-0.5C9.8,11.3,9.3,11.3,9,11.6L9,11.6z"/><path class="st1" d="M6,20h13c-0.5,0-1-0.5-1-1s0.5-1,1-1H6c-0.6,0-1,0.5-1,1S5.4,20,6,20z"/></svg>