<svg xmlns="http://www.w3.org/2000/svg" width="24" height="24" viewBox="0 0 24 24"><g opacity="0.4"><path d="m15,4c-.92,0-2.1.35-3.52,1.06-1.13.56-2.36.9-3.53,1.21-1.64.43-3.08,1.36-4.17,2.69-2.37,2.89-2.39,7.1-.06,10.01,1.43,1.79,3.56,2.89,5.83,3.02.15,0,.3.01.44.01,2.12,0,4.16-.84,5.66-2.35,1.1-1.1,1.85-2.47,2.17-3.97.22-1.05.6-2.11,1.12-3.15.7-1.42,1.06-2.61,1.06-3.53,0-2.76-2.24-5-5-5Z"/></g><path d="m20.76,3.13c-1.41.3-2.34,1.08-2.91,1.77.56.39,1.02.89,1.38,1.46.32-.44.93-1.05,1.94-1.28.47-.11.83-.5.83-.98,0-.65-.61-1.11-1.24-.98Z"/></svg>