<svg xmlns="http://www.w3.org/2000/svg" width="24" height="24" viewBox="0 0 24 24"><g opacity="0.4"><path d="m8.5,10h-2.34c.31-1.17,1.1-2.54,3.08-3.03.45-.11.76-.51.76-.97v-1c0-.55-.45-1-1-1-2.78,0-4.91.77-6.31,2.29-1.89,2.05-1.7,4.68-1.69,4.71v6.5c0,1.38,1.12,2.5,2.5,2.5h5c1.38,0,2.5-1.12,2.5-2.5v-5c0-1.38-1.12-2.5-2.5-2.5Z"/></g><path d="m20.5,10h-2.34c.31-1.17,1.1-2.54,3.08-3.03.45-.11.76-.51.76-.97v-1c0-.55-.45-1-1-1-2.78,0-4.91.77-6.31,2.29-1.89,2.05-1.7,4.68-1.69,4.71v6.5c0,1.38,1.12,2.5,2.5,2.5h5c1.38,0,2.5-1.12,2.5-2.5v-5c0-1.38-1.12-2.5-2.5-2.5Z"/></svg>