<svg xmlns="http://www.w3.org/2000/svg" width="24" height="24" viewBox="0 0 24 24"><g opacity="0.4"><path d="m22.99,10v-3.5c0-1.38-1.12-2.5-2.5-2.5h-5c-1.38,0-2.5,1.12-2.5,2.5v5c0,1.38,1.12,2.5,2.5,2.5h2.34c-.31,1.17-1.1,2.54-3.08,3.03-.45.11-.76.51-.76.97v1c0,.55.45,1,1,1,2.78,0,4.91-.77,6.31-2.29,1.89-2.05,1.7-4.68,1.69-4.71v-3Z"/></g><path d="m10.99,10v-3.5c0-1.38-1.12-2.5-2.5-2.5H3.49c-1.38,0-2.5,1.12-2.5,2.5v5c0,1.38,1.12,2.5,2.5,2.5h2.34c-.31,1.17-1.1,2.54-3.08,3.03-.45.11-.76.51-.76.97v1c0,.55.45,1,1,1,2.78,0,4.91-.77,6.31-2.29,1.89-2.05,1.7-4.68,1.69-4.71v-3Z"/></svg>