<svg xmlns="http://www.w3.org/2000/svg" width="24" height="24" viewBox="0 0 24 24"><g opacity="0.4"><path d="m17,3H7c-.55,0-1,.45-1,1s.45,1,1,1h3c1.86,0,3.4,1.28,3.85,3h2.05c-.2-1.16-.74-2.18-1.5-3h2.6c.55,0,1-.45,1-1s-.45-1-1-1Z"/><path d="m15.91,10h-2.05c-.47,1.76-2.16,3-4.04,3h-2.82c-.42,0-.79.26-.94.65-.15.39-.04.83.28,1.1l7.25,6.34c.42.36,1.05.32,1.41-.09.36-.42.32-1.05-.09-1.41l-5.24-4.59h.34c2.97,0,5.43-2.17,5.91-5Z"/></g><path d="m17,8H7c-.55,0-1,.45-1,1s.45,1,1,1h10c.55,0,1-.45,1-1s-.45-1-1-1Z"/></svg>