<svg xmlns="http://www.w3.org/2000/svg" width="24" height="24" viewBox="0 0 24 24"><g opacity="0.4"><path d="m20.72,4.28l-1.17,1.17c-.15-.18-.31-.36-.48-.52-.45-.45-.95-.86-1.48-1.22-.53-.36-1.1-.67-1.7-.92-.6-.25-1.24-.45-1.88-.58-1.32-.27-2.71-.27-4.03,0-.64.13-1.27.33-1.88.58-.59.25-1.17.56-1.7.92-.53.36-1.03.77-1.48,1.22-.45.45-.86.95-1.22,1.48-.36.53-.67,1.1-.92,1.7-.25.6-.45,1.24-.58,1.88-.13.66-.2,1.34-.2,2.01s.07,1.35.2,2.01c.13.64.33,1.27.58,1.88.25.59.56,1.17.92,1.7.36.53.77,1.03,1.22,1.48.45.45.95.86,1.48,1.22.53.36,1.1.67,1.7.92.6.25,1.24.45,1.88.58.66.13,1.34.2,2.01.2s1.35-.07,2.01-.2c.64-.13,1.27-.33,1.88-.58.59-.25,1.17-.56,1.7-.92.53-.36,1.03-.77,1.48-1.22.45-.45.86-.95,1.22-1.48.36-.53.67-1.1.92-1.7.25-.6.45-1.24.58-1.88.06-.3.11-.61.14-.91.06-.59-.41-1.1-1-1.1-.51,0-.93.39-.99.9-.03.24-.06.48-.11.71-.11.51-.26,1.02-.47,1.5-.2.48-.45.93-.74,1.36-.28.42-.61.82-.98,1.19-.36.36-.76.69-1.18.98-.43.29-.88.54-1.36.74-.48.2-.99.36-1.5.47-1.06.22-2.17.22-3.23,0-.51-.11-1.02-.26-1.5-.47-.48-.2-.93-.45-1.36-.74-.42-.29-.82-.62-1.18-.98-.36-.36-.69-.76-.98-1.19-.29-.43-.54-.88-.74-1.36-.2-.48-.36-.99-.47-1.5-.11-.53-.16-1.07-.16-1.61s.05-1.09.16-1.61c.11-.51.26-1.02.47-1.5.2-.48.45-.93.74-1.36.29-.42.62-.82.98-1.18s.76-.69,1.18-.98c.43-.29.88-.54,1.36-.74.48-.2.99-.36,1.5-.47,1.06-.22,2.17-.22,3.23,0,.51.11,1.02.26,1.5.47.48.2.93.45,1.36.74.42.29.82.62,1.18.98.17.17.32.34.48.52l-.85.85c-.47.47-.14,1.28.53,1.28h3.44c.41,0,.75-.34.75-.75v-3.44c0-.67-.81-1-1.28-.53Z"/></g><path d="m8.99,10.46h.49v3.54c0,.26.21.47.47.47h.16c.26,0,.47-.21.47-.47v-4.01c0-.26-.21-.47-.47-.47h-1.11c-.26,0-.47.21-.47.47s.21.47.47.47Z"/><path d="m12.29,14.23c.32.21.68.32,1.08.32s.76-.11,1.07-.32c.31-.21.56-.51.75-.89.18-.38.28-.83.28-1.34s-.09-.96-.28-1.34c-.18-.38-.44-.68-.75-.89-.32-.21-.68-.32-1.08-.32s-.76.11-1.08.32c-.32.21-.57.51-.75.89-.18.38-.27.83-.27,1.33s.09.95.28,1.33c.18.38.44.68.76.9Zm.19-3.1c.08-.23.19-.41.35-.53.15-.12.33-.17.53-.17s.39.06.54.18.27.29.35.53.12.52.12.87-.04.63-.12.86-.2.41-.35.53-.33.18-.53.18-.38-.06-.54-.18-.27-.3-.35-.53c-.08-.23-.12-.52-.12-.87s.04-.63.12-.87Z"/></svg>