<svg xmlns="http://www.w3.org/2000/svg" width="24" height="24" viewBox="0 0 24 24"><g opacity="0.4"><path d="m18,5H6c-2.21,0-4,1.79-4,4v8c0,2.21,1.79,4,4,4h12c2.21,0,4-1.79,4-4v-8c0-2.21-1.79-4-4-4Zm-7,12h-4c-.55,0-1-.45-1-1s.45-1,1-1h4c.55,0,1,.45,1,1s-.45,1-1,1Zm5,1c-1.1,0-2-.9-2-2s.9-2,2-2,2,.9,2,2-.9,2-2,2Zm4-7H4v-2c0-1.1.9-2,2-2h12c1.1,0,2,.9,2,2v2Z"/></g><path d="M16 14A2 2 0 1 0 16 18 2 2 0 1 0 16 14z"/><path d="m7,17h4c.55,0,1-.45,1-1s-.45-1-1-1h-4c-.55,0-1,.45-1,1s.45,1,1,1Z"/><path d="m11.55,3.89l2.21,1.11h4.24c.1,0,.2.02.3.03l-5.85-2.92c-.49-.25-1.09-.05-1.34.45-.25.49-.05,1.09.45,1.34Z"/></svg>