<svg xmlns="http://www.w3.org/2000/svg" width="24" height="24" viewBox="0 0 24 24"><g opacity="0.4"><path d="m19.05,6.9c-.25-.13-.53-.19-.8-.19-.36,0-.71.11-1.02.33l-4.96,3.54c-.46.33-.73.86-.73,1.42s.27,1.1.73,1.42l4.96,3.54c.54.38,1.23.43,1.82.13s.95-.9.95-1.56v-7.08c0-.66-.36-1.25-.95-1.56Z"/></g><path class="st0" d="M12.1,6.9c-0.2-0.1-0.5-0.2-0.8-0.2c-0.4,0-0.7,0.1-1,0.3l-5,3.5c-0.5,0.3-0.7,0.9-0.7,1.4s0.3,1.1,0.7,1.4
	l5,3.5c0.5,0.4,1.2,0.4,1.8,0.1s0.9-0.9,0.9-1.6v-1.6l-0.7-0.5c-0.5-0.3-0.7-0.9-0.7-1.4s0.3-1.1,0.7-1.4l0.7-0.5V8.5
	C13,7.8,12.6,7.2,12.1,6.9L12.1,6.9z"/></svg>