<svg xmlns="http://www.w3.org/2000/svg" width="24" height="24" viewBox="0 0 24 24"><g opacity="0.4"><path d="m17.31,8.1l-.6.6-2.78,2.78c.05.16.08.33.08.51,0,1.08-.92,2-2,2s-2-.92-2-2,.92-2,2-2c.18,0,.34.03.51.08l2.29-2.29c-.79-.51-1.7-.79-2.65-.79-1.32,0-2.57.53-3.52,1.48s-1.48,2.21-1.48,3.52.53,2.56,1.48,3.52c.95.96,2.2,1.48,3.52,1.48s2.57-.53,3.52-1.48c.39-.39,1.02-.39,1.41,0,.39.39.39,1.02,0,1.41-1.33,1.33-3.08,2.07-4.93,2.07s-3.6-.73-4.93-2.07c-1.33-1.33-2.07-3.08-2.07-4.93s.73-3.6,2.07-4.93c1.33-1.33,3.08-2.07,4.93-2.07,1.48,0,2.9.48,4.09,1.35l2.05-2.05c-1.73-1.43-3.93-2.3-6.29-2.3C6.58,2,2,6.58,2,12s4.58,10,10,10,10-4.58,10-10c0-2.36-.87-4.56-2.3-6.29l-2.39,2.39Z"/></g><path d="m12.15,19c1.85,0,3.6-.73,4.93-2.07.39-.39.39-1.02,0-1.41-.39-.39-1.02-.39-1.41,0-.95.96-2.2,1.48-3.52,1.48s-2.57-.53-3.52-1.48c-.96-.96-1.48-2.21-1.48-3.52s.53-2.57,1.48-3.52,2.2-1.48,3.52-1.48c.95,0,1.86.28,2.65.79l-2.29,2.29c-.16-.05-.33-.08-.51-.08-1.08,0-2,.92-2,2s.92,2,2,2,2-.92,2-2c0-.18-.03-.34-.08-.51l2.78-2.78.6-.6,2.39-2.39c-.42-.52-.9-.99-1.41-1.41l-2.05,2.05c-1.19-.87-2.61-1.35-4.09-1.35-1.85,0-3.6.73-4.93,2.07-1.33,1.33-2.07,3.08-2.07,4.93s.73,3.6,2.07,4.93c1.33,1.33,3.08,2.07,4.93,2.07Z"/></svg>