<svg xmlns="http://www.w3.org/2000/svg" width="24" height="24" viewBox="0 0 24 24"><g opacity="0.4"><path d="m4.93,19.07c.92.92,1.99,1.64,3.18,2.14.89.38,1.82.62,2.77.72.6.07,1.12-.4,1.12-1h0c0-.51-.38-.93-.88-.99-.77-.08-1.52-.28-2.23-.58-.95-.4-1.81-.98-2.54-1.71-.74-.73-1.31-1.59-1.72-2.54-.83-1.97-.83-4.25,0-6.23.4-.95.98-1.81,1.71-2.54.17-.17.34-.33.52-.48l.85.85c.47.47,1.28.14,1.28-.53v-3.44c0-.41-.34-.75-.75-.75h-3.44c-.67,0-1,.81-.53,1.28l1.17,1.17c-.18.15-.36.31-.52.48-.92.92-1.64,1.99-2.14,3.18-.52,1.23-.79,2.54-.79,3.89s.26,2.66.79,3.89c.5,1.19,1.23,2.26,2.14,3.18Z"/></g><path d="m21.22,8.11c-.5-1.19-1.23-2.26-2.14-3.18s-1.99-1.64-3.18-2.14c-.89-.38-1.82-.62-2.77-.72-.6-.07-1.12.4-1.12,1,0,.51.38.93.88.99.77.08,1.52.28,2.23.58.95.4,1.81.98,2.54,1.71.74.73,1.31,1.59,1.72,2.54.83,1.97.83,4.25,0,6.23-.4.95-.98,1.81-1.71,2.54-.17.17-.34.33-.52.48l-.85-.85c-.47-.47-1.28-.14-1.28.53v3.44c0,.41.34.75.75.75h3.44c.67,0,1-.81.53-1.28l-1.17-1.17c.18-.15.36-.31.52-.48.92-.92,1.64-1.99,2.14-3.18,1.04-2.47,1.04-5.32,0-7.79Z"/></svg>