<svg xmlns="http://www.w3.org/2000/svg" width="24" height="24" viewBox="0 0 24 24"><g opacity="0.4"><path d="m12,2C6.58,2,2,6.58,2,12s4.58,10,10,10,10-4.58,10-10S17.42,2,12,2Zm3.8,13.4c.33.44.24,1.07-.2,1.4-.18.13-.39.2-.6.2-.3,0-.6-.14-.8-.4l-2.7-3.6h-1.5v3c0,.55-.45,1-1,1s-1-.45-1-1v-8c0-.55.45-1,1-1h4c1.65,0,3,1.35,3,3,0,1.34-.89,2.47-2.11,2.85l1.91,2.55Z"/><path d="m13,9h-3v2h3c.55,0,1-.45,1-1s-.45-1-1-1Z"/></g><path d="m9,17c.55,0,1-.45,1-1v-3h1.5l2.7,3.6c.2.26.5.4.8.4.21,0,.42-.07.6-.2.44-.33.53-.96.2-1.4l-1.91-2.55c1.22-.38,2.11-1.51,2.11-2.85,0-1.65-1.35-3-3-3h-4c-.55,0-1,.45-1,1v8c0,.55.45,1,1,1Zm1-8h3c.55,0,1,.45,1,1s-.45,1-1,1h-3v-2Z"/></svg>