<svg xmlns="http://www.w3.org/2000/svg" width="24" height="24" viewBox="0 0 24 24"><g opacity="0.4"><path d="m5.1,5.04c-.59-.04-1.1.4-1.1,1,0,.51.39.96.9.99,3.23.22,6.13,1.63,8.29,3.78s3.56,5.06,3.78,8.29c.04.51.48.9.99.9.59,0,1.04-.51,1-1.1-.27-3.7-1.89-7.03-4.36-9.5s-5.8-4.09-9.5-4.36Z"/><path d="M6 16A2 2 0 1 0 6 20 2 2 0 1 0 6 16z"/></g><path d="m5.12,10.06c-.6-.07-1.12.4-1.12,1,0,.5.37.93.87.98,1.86.2,3.53,1.04,4.79,2.3,1.26,1.26,2.1,2.93,2.3,4.79.05.5.49.87.98.87.6,0,1.07-.53,1-1.12-.26-2.31-1.31-4.38-2.87-5.95-1.56-1.56-3.64-2.61-5.95-2.87Z"/></svg>