<svg xmlns="http://www.w3.org/2000/svg" width="24" height="24" viewBox="0 0 24 24"><g opacity="0.4"><path d="M12 8A4 4 0 1 0 12 16 4 4 0 1 0 12 8z"/></g><path d="m14.8,14.85c-.72.71-1.71,1.15-2.8,1.15s-2.08-.44-2.8-1.15l-2.31,3.99c-.21.36-.26.79-.14,1.19.12.39.39.72.75.9,1.38.7,2.94,1.07,4.5,1.07s3.12-.37,4.5-1.07c.36-.18.63-.51.75-.9.12-.4.07-.83-.14-1.19l-2.31-3.99Z"/><path d="m8,12c0-1.84,1.25-3.37,2.94-3.84l-2.31-4.01c-.21-.36-.55-.62-.96-.71-.39-.1-.82-.02-1.16.2-1.3.85-2.4,2.01-3.18,3.36-.78,1.35-1.24,2.88-1.32,4.43-.02.4.12.8.41,1.1.29.3.69.47,1.1.47h4.62c-.08-.32-.14-.65-.14-1Z"/><path d="m17.48,3.64c-.34-.22-.76-.29-1.16-.2-.4.1-.75.36-.96.71l-2.31,4.01c1.69.47,2.94,2,2.94,3.84,0,.35-.06.68-.14,1h4.62c.41,0,.81-.17,1.1-.47.28-.3.43-.7.41-1.1-.08-1.54-.54-3.08-1.32-4.43-.78-1.35-1.88-2.51-3.18-3.36Z"/></svg>