<svg xmlns="http://www.w3.org/2000/svg" width="24" height="24" viewBox="0 0 24 24"><g opacity="0.4"><path d="m18.99,8.67c-.17-3.71-3.24-6.67-6.99-6.67s-6.82,2.96-6.99,6.67c-2.42,1.14-4.01,3.6-4.01,6.33,0,3.86,3.14,7,7,7,1.44,0,2.83-.44,4-1.26,1.17.82,2.56,1.26,4,1.26,3.86,0,7-3.14,7-7,0-2.73-1.58-5.19-4.01-6.33Zm-2.99,11.33c-.89,0-1.75-.24-2.5-.69-.25.32-.53.62-.83.89-.19.17-.43.25-.66.25s-.47-.08-.66-.25c-.31-.27-.58-.57-.83-.89-.75.44-1.61.69-2.5.69-2.76,0-5-2.24-5-5,0-1.71.88-3.26,2.27-4.17-.13-.47-.22-.94-.24-1.44-.02-.44.25-.85.66-1,.46-.16.93-.26,1.41-.32.44-2.32,2.47-4.08,4.91-4.08s4.47,1.76,4.91,4.07c.48.06.95.16,1.41.32.42.15.69.55.66,1-.03.5-.12.97-.24,1.44,1.38.91,2.27,2.46,2.27,4.17,0,2.76-2.24,5-5,5Z"/></g><path d="m9.02,15.31c.08,1.88.91,3.65,2.32,4.9.19.17.43.25.66.25s.47-.08.66-.25c1.41-1.25,2.24-3.02,2.32-4.9,2.31-1.09,3.86-3.33,4-5.92.02-.44-.25-.85-.66-1-2.1-.75-4.5-.39-6.31.87-1.82-1.27-4.21-1.62-6.31-.87-.42.15-.69.55-.66,1,.14,2.59,1.68,4.83,4,5.92Z"/></svg>