<svg xmlns="http://www.w3.org/2000/svg" width="24" height="24" viewBox="0 0 24 24"><g opacity="0.4"><path d="m18,12c-1.2,0-2.27-.54-3-1.38-.73.84-1.8,1.38-3,1.38s-2.27-.54-3-1.38c-.73.84-1.8,1.38-3,1.38s-2.21-.51-2.94-1.31c-.03.1-.06.2-.06.31v7c0,2.21,1.79,4,4,4h2v-4c0-1.66,1.34-3,3-3s3,1.34,3,3v4h2c2.21,0,4-1.79,4-4v-7c0-.11-.03-.21-.06-.31-.73.8-1.77,1.31-2.94,1.31Z"/></g><path d="m18,2H6c-2.21,0-4,1.79-4,4v2c0,2.21,1.79,4,4,4,1.2,0,2.27-.54,3-1.38.73.84,1.8,1.38,3,1.38s2.27-.54,3-1.38c.73.84,1.8,1.38,3,1.38,2.21,0,4-1.79,4-4v-2c0-2.21-1.79-4-4-4Z"/><path d="m15,18c0-1.66-1.34-3-3-3s-3,1.34-3,3v4h6v-4Z"/></svg>