<svg xmlns="http://www.w3.org/2000/svg" width="24" height="24" viewBox="0 0 24 24"><g opacity="0.4"><path d="m12,2C6.49,2,2,6.49,2,12s4.49,10,10,10,10-4.49,10-10S17.51,2,12,2Zm1.4,10.81l-4.81,3.53c-.66.48-1.59.01-1.59-.81v-7.05c0-.82.93-1.29,1.59-.81l4.81,3.53c.54.4.54,1.21,0,1.61Zm3.6,3.19c0,.55-.45,1-1,1s-1-.45-1-1v-8c0-.55.45-1,1-1s1,.45,1,1v8Z"/></g><path d="m8.59,16.33l4.81-3.53c.54-.4.54-1.21,0-1.61l-4.81-3.53c-.66-.48-1.59-.01-1.59.81v7.05c0,.82.93,1.29,1.59.81Z"/><path d="m16,17c.55,0,1-.45,1-1v-8c0-.55-.45-1-1-1s-1,.45-1,1v8c0,.55.45,1,1,1Z"/></svg>