<svg xmlns="http://www.w3.org/2000/svg" width="24" height="24" viewBox="0 0 24 24"><g opacity="0.4"><path d="m19.54,9.31l-1.81-.76-1.4,3.28c-.16.38-.53.61-.92.61-.13,0-.27-.03-.39-.08-.51-.22-.74-.81-.53-1.31l1.4-3.26-1.85-.77-1.39,3.24c-.16.38-.53.61-.92.61-.13,0-.27-.03-.39-.08-.51-.22-.74-.81-.53-1.31l1.38-3.22-2.4-1c-.44-.18-.91-.24-1.37-.16l-4.32.72c-1.21.2-2.09,1.24-2.09,2.47v7.73h20v-3c0-1.62-.97-3.07-2.46-3.69Z"/></g><path d="m15.01,12.36c.13.06.26.08.39.08.39,0,.76-.23.92-.61l1.4-3.28-1.85-.77-1.4,3.26c-.22.51.02,1.1.53,1.31Z"/><path d="m11.33,10.78c.13.06.26.08.39.08.39,0,.76-.23.92-.61l1.39-3.24-1.85-.77-1.38,3.22c-.22.51.02,1.1.53,1.31Z"/><path d="m2,17.5c0,1.38,1.12,2.5,2.5,2.5h15c1.38,0,2.5-1.12,2.5-2.5v-1.5H2v1.5Z"/></svg>