<svg xmlns="http://www.w3.org/2000/svg" width="24" height="24" viewBox="0 0 24 24"><g opacity="0.4"><path d="M5 16A3 3 0 1 0 5 22 3 3 0 1 0 5 16z"/><path d="M19 16A3 3 0 1 0 19 22 3 3 0 1 0 19 16z"/><path d="M12 16A3 3 0 1 0 12 22 3 3 0 1 0 12 16z"/></g><path d="m11,16.18c.31-.11.65-.18,1-.18s.69.07,1,.18v-3.18h3c1.1,0,2,.9,2,2v1.18c.31-.11.65-.18,1-.18s.69.07,1,.18v-1.18c0-2.21-1.79-4-4-4h-3v-3.18c1.16-.41,2-1.51,2-2.82,0-1.65-1.35-3-3-3s-3,1.35-3,3c0,1.3.84,2.4,2,2.82v3.18h-3c-2.21,0-4,1.79-4,4v1.18c.31-.11.65-.18,1-.18s.69.07,1,.18v-1.18c0-1.1.9-2,2-2h3v3.18Z"/></svg>