<svg xmlns="http://www.w3.org/2000/svg" width="24" height="24" viewBox="0 0 24 24"><g opacity="0.4"><path d="m12.61,10.79c-.18.14-.4.21-.61.21-.3,0-.59-.13-.79-.39-.34-.44-.26-1.06.17-1.4l5.99-4.66c-3.25-3.21-8.29-3.41-11.26-.44-2.99,2.99-2.78,8.06.47,11.3,1.71,1.71,3.93,2.58,6.08,2.58,1.93,0,3.81-.7,5.22-2.11,2.55-2.55,2.76-6.62.75-9.78l-6.02,4.68Z"/></g><path d="m20.39,2.21l-9,7c-.44.34-.51.97-.17,1.4.2.25.49.39.79.39.21,0,.43-.07.61-.21l9-7c.44-.34.51-.97.17-1.4-.34-.44-.97-.51-1.4-.18Z"/><path d="m6,22h6c.55,0,1-.45,1-1s-.45-1-1-1h-2v-2.45c-.7-.24-1.37-.57-2-.99v3.43h-2c-.55,0-1,.45-1,1s.45,1,1,1Z"/></svg>