<svg xmlns="http://www.w3.org/2000/svg" width="24" height="24" viewBox="0 0 24 24"><g opacity="0.4"><path d="m12,7c-2.97,0-5.43,2.17-5.91,5h11.82c-.48-2.83-2.94-5-5.91-5Z"/></g><path d="m21,12H3c-.55,0-1,.45-1,1s.45,1,1,1h18c.55,0,1-.45,1-1s-.45-1-1-1Z"/><rect x="11" y="2" width="2" height="3" rx="1" ry="1"/><path d="m18.41,7l.59-.59c.39-.39.39-1.02,0-1.41-.39-.39-1.02-.39-1.41,0l-.59.59c-.39.39-.39,1.02,0,1.41.39.39,1.02.39,1.41,0Z"/><path d="m5.59,7c.39.39,1.02.39,1.41,0,.39-.39.39-1.02,0-1.41l-.59-.59c-.39-.39-1.02-.39-1.41,0-.39.39-.39,1.02,0,1.41l.59.59Z"/><path d="m12,15c-.55,0-1,.45-1,1v2h-1.19c-.67,0-1,.81-.53,1.28l2.19,2.19c.29.29.77.29,1.06,0l2.19-2.19c.47-.47.14-1.28-.53-1.28h-1.19v-2c0-.55-.45-1-1-1Z"/></svg>