<svg xmlns="http://www.w3.org/2000/svg" width="24" height="24" viewBox="0 0 24 24"><g opacity="0.4"><path d="m4,21c0,.55.45,1,1,1s1-.45,1-1v-2.16c-.32.1-.65.16-1,.16s-.68-.07-1-.16v2.16Z"/><path d="m18,21c0,.55.45,1,1,1s1-.45,1-1v-2c0-.05-.02-.1-.03-.15-.31.09-.63.15-.97.15s-.66-.06-.97-.15c0,.05-.03.1-.03.15v2Z"/><path d="m13,4.16v-1.16c0-.55-.45-1-1-1s-1,.45-1,1v1.16c.32-.1.65-.16,1-.16s.68.07,1,.16Z"/><path d="m6,12.16V3c0-.55-.45-1-1-1s-1,.45-1,1v9.16c.32-.1.65-.16,1-.16s.68.07,1,.16Z"/><path d="m20,12.16V3c0-.55-.45-1-1-1s-1,.45-1,1v9.16c.32-.1.65-.16,1-.16s.68.07,1,.16Z"/><path d="m13,21v-10.16c-.32.1-.65.16-1,.16s-.68-.07-1-.16v10.16c0,.55.45,1,1,1s1-.45,1-1Z"/></g><path d="M5 12A3.5 3.5 0 1 0 5 19 3.5 3.5 0 1 0 5 12z"/><path d="M19 12A3.5 3.5 0 1 0 19 19 3.5 3.5 0 1 0 19 12z"/><path d="M12 4A3.5 3.5 0 1 0 12 11 3.5 3.5 0 1 0 12 4z"/></svg>