<svg xmlns="http://www.w3.org/2000/svg" width="24" height="24" viewBox="0 0 24 24"><g opacity="0.4"><path d="m19.62,5.71l-6.27-3.15c-.42-.21-.88-.32-1.35-.32v9.76h8.51c.39-1.63.49-3.08.49-4.05,0-.96-.53-1.82-1.38-2.25Z"/><path d="m10.54,21.39c.46.25.96.37,1.46.37v-9.77H3.49c.75,3.15,2.59,6.99,7.05,9.39Z"/></g><path d="m13.46,21.39c4.46-2.41,6.3-6.25,7.05-9.39h-8.51v9.77c.5,0,1-.12,1.46-.37Z"/><path d="m12,12V2.24c-.46,0-.92.11-1.35.32l-6.27,3.15c-.85.43-1.38,1.29-1.38,2.25,0,.96.1,2.41.49,4.04h8.51Z"/></svg>