<svg xmlns="http://www.w3.org/2000/svg" width="24" height="24" viewBox="0 0 24 24"><g opacity="0.4"><path d="M5 4A1 1 0 1 0 5 6 1 1 0 1 0 5 4z"/><path d="M9 4A1 1 0 1 0 9 6 1 1 0 1 0 9 4z"/><path d="M13 4A1 1 0 1 0 13 6 1 1 0 1 0 13 4z"/><path d="M17 4A1 1 0 1 0 17 6 1 1 0 1 0 17 4z"/><path d="M5 16A1 1 0 1 0 5 18 1 1 0 1 0 5 16z"/><path d="M9 16A1 1 0 1 0 9 18 1 1 0 1 0 9 16z"/><path d="M17 8A1 1 0 1 0 17 10 1 1 0 1 0 17 8z"/><path d="M5 8A1 1 0 1 0 5 10 1 1 0 1 0 5 8z"/><path d="M5 12A1 1 0 1 0 5 14 1 1 0 1 0 5 12z"/></g><path d="m21,16h-3v-3c0-.55-.45-1-1-1s-1,.45-1,1v3h-3c-.55,0-1,.45-1,1s.45,1,1,1h3v3c0,.55.45,1,1,1s1-.45,1-1v-3h3c.55,0,1-.45,1-1s-.45-1-1-1Z"/></svg>