<svg xmlns="http://www.w3.org/2000/svg" width="24" height="24" viewBox="0 0 24 24"><g opacity="0.4"><path d="m16.75,5.75c-2.65,0-4.92,1.66-5.82,4,.1-.05.2-.08.31-.12h0c1.84-.61,3.81-.46,5.53.42,1.73.88,3,2.38,3.6,4.22.28.86.39,1.75.34,2.63.82-1.45,1.3-3.12,1.3-4.91s-.44-3.34-1.2-4.75c-1.09-.93-2.5-1.5-4.05-1.5Z"/><path d="m16.75,4.75c.92,0,1.79.18,2.6.49-1.83-1.99-4.44-3.24-7.35-3.24-.6,0-1.19.06-1.76.17-1.28.78-2.25,1.95-2.71,3.39-.82,2.53.06,5.2,2.01,6.78-.01-.11-.03-.22-.03-.33h0c0-4,3.25-7.25,7.25-7.25Z"/><path d="m14.19,13.18c-.05.1-.11.19-.17.28h0c-1.42,1.95-3.63,2.99-5.88,2.99-1.48,0-2.97-.45-4.25-1.38-.75-.54-1.35-1.21-1.83-1.94.4,3.49,2.6,6.44,5.64,7.89,1.42.1,2.88-.27,4.12-1.17,2.15-1.56,3-4.24,2.36-6.67Z"/><path d="m7.84,2.92c-3.06,1.41-5.29,4.32-5.74,7.78.34,1.38,1.15,2.66,2.39,3.56,2.15,1.56,4.95,1.54,7.06.19-.11-.02-.21-.05-.31-.09h0c-.06,0-.12-.03-.17-.06-.01,0-.02,0-.04-.01-3.66-1.32-5.65-5.33-4.44-9.06.28-.86.71-1.64,1.27-2.32Z"/><path d="m13.81,10.28c.08.08.14.16.21.25h0s.02.03.03.05c.01.02.02.03.03.05,2.26,3.23,1.53,7.7-1.67,10.02-.76.55-1.59.91-2.45,1.13.66.14,1.34.21,2.03.21,2.86,0,5.44-1.21,7.26-3.15.55-1.36.61-2.86.15-4.27-.82-2.52-3.1-4.16-5.6-4.3Z"/></g><path d="m3.9,15.07c1.28.93,2.77,1.38,4.25,1.38,2.24,0,4.46-1.04,5.88-2.99h0c.07-.09.12-.19.17-.29.64,2.42-.21,5.11-2.36,6.67-1.24.9-2.7,1.27-4.12,1.17.71.34,1.46.61,2.26.77.86-.22,1.69-.58,2.45-1.13,3.2-2.33,3.93-6.8,1.67-10.02-.01-.02-.02-.03-.03-.05-.01-.02-.02-.04-.03-.05h0c-.06-.08-.13-.17-.21-.25,2.5.14,4.78,1.78,5.6,4.3.46,1.41.4,2.91-.15,4.27.56-.59,1.04-1.24,1.44-1.95.05-.88-.06-1.77-.34-2.63-.6-1.84-1.88-3.34-3.6-4.22-1.73-.88-3.69-1.03-5.53-.44h0c-.11.05-.21.08-.31.13.91-2.34,3.17-4,5.82-4,1.54,0,2.95.57,4.05,1.5-.4-.73-.89-1.4-1.45-2.01-.81-.31-1.68-.49-2.6-.49-4,0-7.25,3.25-7.25,7.25h0c0,.11.02.22.03.33-1.95-1.58-2.83-4.25-2.01-6.78.47-1.44,1.43-2.61,2.71-3.39-.84.15-1.64.41-2.4.75-.55.68-.99,1.46-1.27,2.32-1.21,3.73.78,7.74,4.44,9.06.01,0,.02,0,.04.01.06.02.11.05.17.07h0c.1.02.2.06.31.08-2.11,1.36-4.91,1.37-7.06-.19-1.24-.9-2.05-2.18-2.39-3.56-.06.43-.09.86-.09,1.3,0,.38.03.76.07,1.13.47.73,1.08,1.4,1.83,1.94Z"/></svg>