<svg xmlns="http://www.w3.org/2000/svg" width="24" height="24" viewBox="0 0 24 24"><g opacity="0.4"><path d="m19,14H6.18c-.87,0-1.69.28-2.38.74,0,0,0,0,0,0,.05-.16.12-.32.25-.44l5.96-5.96v-3.34c0-1.65-1.35-3-3-3h-2c-1.65,0-3,1.35-3,3v13c0,2.2,1.8,4,4,4h13c1.66,0,3-1.34,3-3v-2c0-1.66-1.34-3-3-3Zm-13,5.5c-.83,0-1.5-.67-1.5-1.5s.67-1.5,1.5-1.5,1.5.67,1.5,1.5-.67,1.5-1.5,1.5Z"/></g><path d="m15.66,14l4.63-4.63c.57-.57.88-1.32.88-2.12s-.31-1.55-.88-2.12l-1.42-1.42c-1.17-1.17-3.07-1.17-4.24,0L4.04,14.29c-.13.13-.2.28-.25.44.69-.46,1.51-.74,2.38-.74h9.49Z"/><path d="M6 16.5A1.5 1.5 0 1 0 6 19.5 1.5 1.5 0 1 0 6 16.5z"/></svg>