<svg xmlns="http://www.w3.org/2000/svg" width="24" height="24" viewBox="0 0 24 24"><g opacity="0.4"><path d="m12,2C6.49,2,2,6.49,2,12s4.49,10,10,10,10-4.49,10-10S17.51,2,12,2Zm4.14,9.39l-1.91,1.72.74,2.58c.13.45-.37.81-.76.55l-2.2-1.47-2.2,1.47c-.39.26-.89-.11-.76-.55l.74-2.58-1.91-1.72c-.33-.29-.14-.84.29-.87l2.34-.19,1.05-2.32c.18-.39.73-.39.91,0l1.05,2.32,2.34.19c.44.03.62.58.29.87Z"/></g><path d="m9.78,13.11l-.74,2.58c-.13.45.37.81.76.55l2.2-1.47,2.2,1.47c.39.26.89-.11.76-.55l-.74-2.58,1.91-1.72c.33-.29.14-.84-.29-.87l-2.34-.19-1.05-2.32c-.18-.39-.73-.39-.91,0l-1.05,2.32-2.34.19c-.44.03-.62.58-.29.87l1.91,1.72Z"/></svg>