<svg xmlns="http://www.w3.org/2000/svg" width="24" height="24" viewBox="0 0 24 24"><g opacity="0.4"><path d="m11.5,5h1c.28,0,.5-.22.5-.5v-1.5h-2v1.5c0,.28.22.5.5.5Z"/><path d="m16.85,3.44c-.28-.28-.66-.44-1.06-.44h-.79v3.5c0,.83-.67,1.5-1.5,1.5h-5c-.83,0-1.5-.67-1.5-1.5v-3.5h-.5c-1.93,0-3.5,1.57-3.5,3.5v11c0,1.93,1.57,3.5,3.5,3.5h.5v-6.5c0-.83.67-1.5,1.5-1.5h7c.83,0,1.5.67,1.5,1.5v6.5h.4c1.99,0,3.6-1.61,3.6-3.6v-8.99c0-.53-.21-1.04-.59-1.41l-3.56-3.56Z"/></g><path d="m8.5,8h5c.83,0,1.5-.67,1.5-1.5v-3.5h-2v1.5c0,.28-.22.5-.5.5h-1c-.28,0-.5-.22-.5-.5v-1.5h-4v3.5c0,.83.67,1.5,1.5,1.5Z"/><path d="m17,14.5c0-.83-.67-1.5-1.5-1.5h-7c-.83,0-1.5.67-1.5,1.5v6.5h10v-6.5Z"/></svg>