<svg xmlns="http://www.w3.org/2000/svg" width="24" height="24" viewBox="0 0 24 24"><g opacity="0.4"><path d="m13,6.59v-3.59c0-.55-.45-1-1-1s-1,.45-1,1v3.59l1,1,1-1Z"/><path d="m3,11c-.55,0-1,.45-1,1s.45,1,1,1h3.09l1-1-1-1h-3.09Z"/><path d="m14.59,11h-1.59v-1.59l-.29.29c-.2.2-.45.29-.71.29s-.51-.1-.71-.29l-.29-.29v1.59h-2.09l.29.29c.39.39.39,1.02,0,1.41l-.29.29h2.09v1.59l.29-.29c.39-.39,1.02-.39,1.41,0l.29.29v-1.59h1.59l-.29-.29c-.39-.39-.39-1.02,0-1.41l.29-.29Z"/><path d="m11,17.41v3.59c0,.55.45,1,1,1s1-.45,1-1v-3.59l-1-1-1,1Z"/><path d="m21,11h-3.59l-1,1,1,1h3.59c.55,0,1-.45,1-1s-.45-1-1-1Z"/></g><path d="m11.29,9.71c.2.2.45.29.71.29s.51-.1.71-.29l4-4c.39-.39.39-1.02,0-1.41s-1.02-.39-1.41,0l-3.29,3.29-3.29-3.29c-.39-.39-1.02-.39-1.41,0s-.39,1.02,0,1.41l4,4Z"/><path d="m16.71,18.29l-4-4c-.39-.39-1.02-.39-1.41,0l-4,4c-.39.39-.39,1.02,0,1.41s1.02.39,1.41,0l3.29-3.29,3.29,3.29c.2.2.45.29.71.29s.51-.1.71-.29c.39-.39.39-1.02,0-1.41Z"/><path d="m14.29,12.71l4,4c.2.2.45.29.71.29s.51-.1.71-.29c.39-.39.39-1.02,0-1.41l-3.29-3.29,3.29-3.29c.39-.39.39-1.02,0-1.41s-1.02-.39-1.41,0l-4,4c-.39.39-.39,1.02,0,1.41Z"/><path d="m3.79,16.71c.2.2.45.29.71.29s.51-.1.71-.29l4-4c.39-.39.39-1.02,0-1.41l-4-4c-.39-.39-1.02-.39-1.41,0s-.39,1.02,0,1.41l3.29,3.29-3.29,3.29c-.39.39-.39,1.02,0,1.41Z"/></svg>