<svg xmlns="http://www.w3.org/2000/svg" width="24" height="24" viewBox="0 0 24 24"><g opacity="0.4"><path d="M4 7A1 1 0 1 0 4 9 1 1 0 1 0 4 7z"/><path d="M4 11A1 1 0 1 0 4 13 1 1 0 1 0 4 11z"/><path d="M4 15A1 1 0 1 0 4 17 1 1 0 1 0 4 15z"/><path d="M4 19A1 1 0 1 0 4 21 1 1 0 1 0 4 19z"/><path d="M8 3A1 1 0 1 0 8 5 1 1 0 1 0 8 3z"/><path d="M8 19A1 1 0 1 0 8 21 1 1 0 1 0 8 19z"/><path d="M12 3A1 1 0 1 0 12 5 1 1 0 1 0 12 3z"/><path d="M12 19A1 1 0 1 0 12 21 1 1 0 1 0 12 19z"/><path d="M16 3A1 1 0 1 0 16 5 1 1 0 1 0 16 3z"/><path d="M16 19A1 1 0 1 0 16 21 1 1 0 1 0 16 19z"/><path d="M20 3A1 1 0 1 0 20 5 1 1 0 1 0 20 3z"/><path d="M20 7A1 1 0 1 0 20 9 1 1 0 1 0 20 7z"/><path d="M20 11A1 1 0 1 0 20 13 1 1 0 1 0 20 11z"/><path d="M20 15A1 1 0 1 0 20 17 1 1 0 1 0 20 15z"/><path d="m15,7h-6c-.18,0-.35.03-.51.07l8.44,8.44c.04-.16.07-.33.07-.51v-6c0-1.1-.9-2-2-2Z"/><path d="m15.51,16.93L7.07,8.49c-.04.16-.07.33-.07.51v6c0,1.1.9,2,2,2h6c.18,0,.35-.03.51-.07Z"/></g><path d="m3.71,2.29c-.39-.39-1.02-.39-1.41,0s-.39,1.02,0,1.41l18,18c.2.2.45.29.71.29s.51-.1.71-.29c.39-.39.39-1.02,0-1.41L3.71,2.29Z"/></svg>