<svg xmlns="http://www.w3.org/2000/svg" width="24" height="24" viewBox="0 0 24 24"><g opacity="0.4"><path d="m6.71,4.29l1.01-1.01c.47-.47.14-1.28-.53-1.28h-3.44c-.41,0-.75.34-.75.75v3.44c0,.67.81,1,1.28.53l1.01-1.01,4.24,4.24c.94.94,1.46,2.2,1.46,3.54v7.51c0,.55.45,1,1,1s1-.45,1-1v-7.51c0-1.87-.73-3.63-2.05-4.95l-4.24-4.24Z"/></g><path d="m20.26,2.04l-3.42-.03c-.67,0-1.01.81-.54,1.28l1,1-4.24,4.24c-.41.41-.76.87-1.05,1.36.65,1.08,1,2.31,1,3.59,0-1.34.52-2.59,1.46-3.54l4.24-4.24,1.01,1.01c.47.47,1.28.14,1.28-.53v-3.4c0-.41-.33-.75-.74-.75Z"/></svg>