<svg xmlns="http://www.w3.org/2000/svg" width="24" height="24" viewBox="0 0 24 24"><g opacity="0.4"><path d="m21.38,9.47c-.4-.3-.92-.38-1.38-.22-1.43.49-4.98,2.03-8.01,6.03-3.09-3.98-6.58-5.53-7.99-6.02-.47-.16-.98-.08-1.38.21-.4.29-.62.76-.61,1.26.26,6.95,4.09,11.27,9.99,11.27s9.71-4.43,9.99-11.28c.02-.49-.21-.96-.6-1.25Z"/></g><path d="m10.87,3.75c-2.53,2.84-3.41,5.58-3.71,7.08,1.48.95,3.21,2.36,4.83,4.45,1.6-2.11,3.34-3.53,4.85-4.48-.31-1.49-1.19-4.22-3.71-7.05-.57-.64-1.69-.64-2.25,0Z"/></svg>