<svg xmlns="http://www.w3.org/2000/svg" width="24" height="24" viewBox="0 0 24 24"><g opacity="0.4"><path d="m13.33,8h-2.66c-1.45,0-2.69,1.04-2.95,2.46l-1.55,8.54h11.67l-1.55-8.54c-.26-1.43-1.5-2.46-2.95-2.46Z"/></g><path d="m12,6c.28,0,.53-.11.71-.29s.29-.43.29-.71v-1c0-.28-.11-.53-.29-.71s-.43-.29-.71-.29-.53.11-.71.29-.29.43-.29.71v1c0,.28.11.53.29.71s.43.29.71.29Z"/><path d="m21,11h-1c-.28,0-.53.11-.71.29s-.29.43-.29.71.11.53.29.71.43.29.71.29h1c.28,0,.53-.11.71-.29s.29-.43.29-.71-.11-.53-.29-.71-.43-.29-.71-.29Z"/><path d="m4.71,12.71c.18-.18.29-.43.29-.71s-.11-.53-.29-.71-.43-.29-.71-.29h-1c-.28,0-.53.11-.71.29s-.29.43-.29.71.11.53.29.71.43.29.71.29h1c.28,0,.53-.11.71-.29Z"/><path d="m17.32,7.23c.12.05.25.07.38.07s.26-.02.38-.07.23-.12.33-.22l.31-.31.31-.31c.2-.2.29-.45.29-.71s-.1-.51-.29-.71-.45-.29-.71-.29-.51.1-.71.29l-.31.31-.31.31c-.2.2-.29.45-.29.71s.1.51.29.71c.1.1.21.17.33.22Z"/><path d="m5.28,6.7l.31.31c.1.1.21.17.33.22s.25.07.38.07.26-.02.38-.07.23-.12.33-.22c.2-.2.29-.45.29-.71s-.1-.51-.29-.71l-.31-.31-.31-.31c-.2-.2-.45-.29-.71-.29s-.51.1-.71.29-.29.45-.29.71.1.51.29.71l.31.31Z"/><path d="m19,19H5c-.55,0-1,.45-1,1s.45,1,1,1h14c.55,0,1-.45,1-1s-.45-1-1-1Z"/></svg>