<svg xmlns="http://www.w3.org/2000/svg" width="24" height="24" viewBox="0 0 24 24"><g opacity="0.4"><path d="m10,2C5.59,2,2,5.59,2,10s3.59,8,8,8,8-3.59,8-8S14.41,2,10,2Zm-1.04,9.29c.39.39.39,1.02,0,1.41-.2.2-.45.29-.71.29s-.51-.1-.71-.29l-2-2c-.39-.39-.39-1.02,0-1.41l2-2c.39-.39,1.02-.39,1.41,0s.39,1.02,0,1.41l-1.29,1.29,1.29,1.29Zm5.5-.59l-2,2c-.2.2-.45.29-.71.29s-.51-.1-.71-.29c-.39-.39-.39-1.02,0-1.41l1.29-1.29-1.29-1.29c-.39-.39-.39-1.02,0-1.41s1.02-.39,1.41,0l2,2c.39.39.39,1.02,0,1.41Z"/></g><path d="m8.96,7.29c-.39-.39-1.02-.39-1.41,0l-2,2c-.39.39-.39,1.02,0,1.41l2,2c.2.2.45.29.71.29s.51-.1.71-.29c.39-.39.39-1.02,0-1.41l-1.29-1.29,1.29-1.29c.39-.39.39-1.02,0-1.41Z"/><path d="m12.46,7.29c-.39-.39-1.02-.39-1.41,0s-.39,1.02,0,1.41l1.29,1.29-1.29,1.29c-.39.39-.39,1.02,0,1.41.2.2.45.29.71.29s.51-.1.71-.29l2-2c.39-.39.39-1.02,0-1.41l-2-2Z"/><path d="m20.71,19.29l-4.4-4.4c-.41.53-.89,1-1.41,1.41l4.4,4.4c.2.2.45.29.71.29s.51-.1.71-.29c.39-.39.39-1.02,0-1.41Z"/></svg>