<svg xmlns="http://www.w3.org/2000/svg" width="24" height="24" viewBox="0 0 24 24"><g opacity="0.4"><path d="m8,3h-1c-2.21,0-4,1.79-4,4v1c0,.55.45,1,1,1s1-.45,1-1v-1c0-1.1.9-2,2-2h1c.55,0,1-.45,1-1s-.45-1-1-1Z"/><path d="m17,3h-1c-.55,0-1,.45-1,1s.45,1,1,1h1c1.1,0,2,.9,2,2v1c0,.55.45,1,1,1s1-.45,1-1v-1c0-2.21-1.79-4-4-4Z"/><path d="m20,15c-.55,0-1,.45-1,1v1c0,1.1-.9,2-2,2h-1c-.55,0-1,.45-1,1s.45,1,1,1h1c2.21,0,4-1.79,4-4v-1c0-.55-.45-1-1-1Z"/><path d="m8,19h-1c-1.1,0-2-.9-2-2v-1c0-.55-.45-1-1-1s-1,.45-1,1v1c0,2.21,1.79,4,4,4h1c.55,0,1-.45,1-1s-.45-1-1-1Z"/></g><path d="m7,9.87v4.26c0,.57.32,1.09.83,1.34l3.5,1.75c.05.03.11.04.17.06v-5.48l-4.46-2.23c-.02.1-.04.19-.04.29Z"/><path d="m16.17,8.53l-3.5-1.75c-.42-.21-.92-.21-1.34,0l-3.5,1.75c-.1.05-.19.12-.28.19l4.45,2.22,4.45-2.22c-.09-.07-.17-.14-.28-.19Z"/><path d="m17,14.13v-4.26c0-.1-.02-.19-.04-.29l-4.46,2.23v5.48c.06-.02.12-.03.17-.06l3.5-1.75c.51-.25.83-.77.83-1.34Z"/></svg>