<svg xmlns="http://www.w3.org/2000/svg" width="24" height="24" viewBox="0 0 24 24"><g opacity="0.4"><path d="m6,22h2.25l.15-.2h0s.22-.3.22-.3l.23-.3c.09-.13.24-.2.4-.2h5.5c.16,0,.31.07.4.2l.23.3.22.3h0s.15.2.15.2h2.25l-2-3v-.05c1.14-.23,2-1.24,2-2.45v-5.5c0-2.76-2.24-5-5-5h-2c-2.76,0-5,2.24-5,5v5.5c0,1.21.86,2.22,2,2.45v.05l-2,3Zm9-6c-.55,0-1-.45-1-1s.45-1,1-1,1,.45,1,1-.45,1-1,1Zm-7-5c0-1.66,1.34-3,3-3h2c1.66,0,3,1.34,3,3v.44c0,.31-.25.56-.56.56h-6.88c-.31,0-.56-.25-.56-.56v-.44Zm1,3c.55,0,1,.45,1,1s-.45,1-1,1-1-.45-1-1,.45-1,1-1Z"/></g><path d="m16,11c0-1.66-1.34-3-3-3h-2c-1.66,0-3,1.34-3,3v.44c0,.31.25.56.56.56h6.88c.31,0,.56-.25.56-.56v-.44Z"/><path d="m15.6,21.8l-.22-.3-.23-.3c-.09-.13-.24-.2-.4-.2h-5.5c-.16,0-.31.07-.4.2l-.23.3-.22.3h0s-.15.2-.15.2h7.5l-.15-.2h0Z"/><path d="m13,2h-2C6.04,2,2,6.04,2,11v10c0,.55.45,1,1,1h3l2-3v-.05c-1.14-.23-2-1.24-2-2.45v-5.5c0-2.76,2.24-5,5-5h2c2.76,0,5,2.24,5,5v5.5c0,1.21-.86,2.22-2,2.45v.05l2,3h3c.55,0,1-.45,1-1v-10c0-4.96-4.04-9-9-9Z"/></svg>