<svg xmlns="http://www.w3.org/2000/svg" width="24" height="24" viewBox="0 0 24 24"><g opacity="0.4"><path d="m12,4c-4.96,0-9,4.04-9,9s4.04,9,9,9,9-4.04,9-9-4.04-9-9-9Zm1,9c0,.55-.45,1-1,1h0c-.55,0-1-.45-1-1v-4c0-.55.45-1,1-1h0c.55,0,1,.45,1,1v4Z"/></g><path d="m13,4.06v-1.06c0-.55-.45-1-1-1h0c-.55,0-1,.45-1,1v1.06c.33-.04.66-.06,1-.06s.67.02,1,.06Z"/><path d="m19.03,7.39l.75-.75c.39-.39.39-1.02,0-1.41-.39-.39-1.02-.39-1.41,0l-.75.75c.52.42,1,.89,1.41,1.41Z"/><rect x="11" y="8" width="2" height="6" rx="1" ry="1"/></svg>