<svg xmlns="http://www.w3.org/2000/svg" width="24" height="24" viewBox="0 0 24 24"><g opacity="0.4"><path d="m11.5,6.09l2.71,2.71c.39.39.39,1.02,0,1.41-.2.2-.45.29-.71.29s-.51-.1-.71-.29l-2.71-2.71-1.59,1.59,2.71,2.71c.39.39.39,1.02,0,1.41-.2.2-.45.29-.71.29s-.51-.1-.71-.29l-2.71-2.71-1.91,1.91c-.76.76-1.17,1.76-1.17,2.83v3.76c0,.55.45,1,1,1h3.76c1.05,0,2.08-.43,2.83-1.17l8.41-8.41-6.41-6.41-2.09,2.09Z"/></g><path d="m13.5,10.5c.26,0,.51-.1.71-.29.39-.39.39-1.02,0-1.41l-2.71-2.71-1.41,1.41,2.71,2.71c.2.2.45.29.71.29Z"/><path d="m10.5,13.5c.26,0,.51-.1.71-.29.39-.39.39-1.02,0-1.41l-2.71-2.71-1.41,1.41,2.71,2.71c.2.2.45.29.71.29Z"/><path d="m5,20c-.55,0-1-.45-1-1v-.41l-1.71,1.71c-.39.39-.39,1.02,0,1.41.2.2.45.29.71.29s.51-.1.71-.29l1.71-1.71h-.41Z"/><path d="m20.29,5.71c.2.2.45.29.71.29s.51-.1.71-.29c.39-.39.39-1.02,0-1.41l-2-2c-.39-.39-1.02-.39-1.41,0s-.39,1.02,0,1.41l.29.29-1.09,1.09-2.79-2.79c-.39-.39-1.02-.39-1.41,0s-.39,1.02,0,1.41l7,7c.2.2.45.29.71.29s.51-.1.71-.29c.39-.39.39-1.02,0-1.41l-2.79-2.79,1.09-1.09.29.29Z"/></svg>