<svg xmlns="http://www.w3.org/2000/svg" width="24" height="24" viewBox="0 0 24 24"><g opacity="0.4"><path d="m12,2C6.49,2,2,6.49,2,12s4.49,10,10,10,10-4.49,10-10S17.51,2,12,2Zm-5,8.5c0-.83.67-1.5,1.5-1.5s1.5.67,1.5,1.5-.67,1.5-1.5,1.5-1.5-.67-1.5-1.5Zm7.75,6.5h-5.51c-.6,0-.97-.68-.62-1.17.59-.84,1.66-1.83,3.38-1.83s2.79.99,3.38,1.83c.35.49-.02,1.17-.62,1.17Zm.75-5c-.83,0-1.5-.67-1.5-1.5s.67-1.5,1.5-1.5,1.5.67,1.5,1.5-.67,1.5-1.5,1.5Z"/></g><path d="M8.5 9A1.5 1.5 0 1 0 8.5 12 1.5 1.5 0 1 0 8.5 9z"/><path d="m17,10.5c0-.83-.67-1.5-1.5-1.5s-1.5.67-1.5,1.5.67,1.5,1.5,1.5,1.5-.67,1.5-1.5Z"/><path d="m8.62,15.83c-.35.49.02,1.17.62,1.17h5.51c.6,0,.97-.68.62-1.17-.59-.84-1.66-1.83-3.38-1.83s-2.79.99-3.38,1.83Z"/></svg>