<svg xmlns="http://www.w3.org/2000/svg" width="24" height="24" viewBox="0 0 24 24"><g opacity="0.4"><path d="m3,22c.26,0,.51-.1.71-.29l1.74-1.74c-.26-.21-.51-.43-.75-.67s-.46-.49-.66-.75l-1.74,1.74c-.39.39-.39,1.02,0,1.41.2.2.45.29.71.29Z"/><path d="m12.71,12.71l1.78-1.78c.16.04.33.07.51.07,1.1,0,2-.9,2-2s-.9-2-2-2-2,.9-2,2c0,.18.03.35.07.51l-1.78,1.78s-.05.07-.07.11l1.38,1.38s.08-.04.11-.07Z"/></g><path d="m6.87,7.05h0c-.41-.41-.98-.63-1.56-.58-.58.04-1.11.33-1.45.78-2.75,3.64-2.39,8.82.84,12.05,1.78,1.78,4.14,2.69,6.52,2.69,1.94,0,3.89-.61,5.53-1.85.46-.35.75-.88.78-1.46.04-.58-.17-1.15-.58-1.56L6.87,7.05Z"/><path d="m19.95,4.05c-.67-.67-1.45-1.19-2.32-1.54-1.68-.68-3.59-.68-5.27,0-.51.21-.76.79-.55,1.3.21.51.79.76,1.3.55,1.2-.49,2.57-.49,3.76,0,.62.25,1.18.62,1.65,1.1.48.48.85,1.03,1.1,1.65.24.6.37,1.23.37,1.88s-.12,1.28-.37,1.88c-.21.51.04,1.1.55,1.3.12.05.25.07.38.07.39,0,.77-.24.93-.62.34-.84.51-1.73.51-2.63s-.17-1.79-.51-2.63c-.35-.87-.87-1.65-1.54-2.32Z"/></svg>