<svg xmlns="http://www.w3.org/2000/svg" width="24" height="24" viewBox="0 0 24 24"><g opacity="0.4"><rect x="2" y="6" width="11" height="6" rx="2" ry="2"/><path d="m17.11,4c.06.17.11.36.14.54l.53,3.46h.22c1.1,0,2-.9,2-2s-.9-2-2-2h-.89Z"/><path d="m20.26,15.47s-.07-.04-.1-.05c-.5-.27-1.07-.42-1.66-.42-1.11,0-2.13.51-2.8,1.4-.45.6-.7,1.35-.7,2.1,0,1.93,1.57,3.5,3.5,3.5s3.5-1.57,3.5-3.5c0-1.24-.67-2.4-1.74-3.03Z"/><path d="m9.26,15.47s-.07-.04-.1-.05c-.5-.27-1.07-.42-1.66-.42-1.11,0-2.13.51-2.79,1.38-.3.39-.53.87-.65,1.43-.04.22-.07.45-.07.69,0,1.93,1.57,3.5,3.5,3.5s3.5-1.57,3.5-3.5c0-.23-.03-.47-.07-.69-.19-.97-.8-1.82-1.67-2.34Z"/></g><path d="m13,4h1.28c.49,0,.91.36.99.85l1.62,10.54c.49-.25,1.03-.39,1.61-.39.12,0,.24.03.36.05l-1.62-10.5c-.23-1.46-1.48-2.54-2.97-2.54h-1.28c-.55,0-1,.45-1,1s.45,1,1,1Z"/><path d="m4,19h.05c-.02-.16-.05-.33-.05-.5,0-.23.03-.47.07-.69.12-.56.34-1.04.65-1.43.66-.87,1.68-1.38,2.79-1.38.58,0,1.15.14,1.66.42.04.02.07.03.1.05.87.51,1.48,1.37,1.67,2.34.04.23.07.46.07.69,0,.17-.03.34-.05.5h4.1c-.02-.16-.05-.33-.05-.5,0-.52.13-1.03.35-1.5h-2.35v-5c0-.37-.11-.7-.28-1-.35.59-.98,1-1.72,1h-7c-.29,0-.57-.07-.82-.18-.72.87-1.18,1.97-1.18,3.18v2c0,1.1.9,2,2,2Z"/></svg>