<svg xmlns="http://www.w3.org/2000/svg" width="24" height="24" viewBox="0 0 24 24"><g opacity="0.4"><path d="m8.71,2.29c-.39-.39-1.02-.39-1.41,0l-1.79,1.79-1.79-1.79c-.39-.39-1.02-.39-1.41,0s-.39,1.02,0,1.41l1.79,1.79-1.79,1.79c-.39.39-.39,1.02,0,1.41.2.2.45.29.71.29s.51-.1.71-.29l1.79-1.79,1.79,1.79c.2.2.45.29.71.29s.51-.1.71-.29c.39-.39.39-1.02,0-1.41l-1.79-1.79,1.79-1.79c.39-.39.39-1.02,0-1.41Z"/><path d="m21.71,14.29c-.39-.39-1.02-.39-1.41,0l-2.29,2.29-2.29-2.29c-.39-.39-1.02-.39-1.41,0s-.39,1.02,0,1.41l2.29,2.29-2.29,2.29c-.39.39-.39,1.02,0,1.41.2.2.45.29.71.29s.51-.1.71-.29l2.29-2.29,2.29,2.29c.2.2.45.29.71.29s.51-.1.71-.29c.39-.39.39-1.02,0-1.41l-2.29-2.29,2.29-2.29c.39-.39.39-1.02,0-1.41Z"/></g><path d="M20 2A2 2 0 1 0 20 6 2 2 0 1 0 20 2z"/><path d="m16.25,11.25c.3.3.81.11.85-.31l.35-3.84c.03-.31-.23-.57-.54-.54l-3.84.35c-.42.04-.61.55-.31.85l1,1c-.47.4-1.01.5-1.69.63-1.05.19-2.35.44-3.4,1.93-1.04,1.49-.83,2.8-.65,3.85.15.9.26,1.55-.32,2.38-.58.82-1.22.94-2.12,1.11-1.05.19-2.35.43-3.4,1.93-.32.45-.21,1.08.25,1.39.17.12.38.18.57.18.32,0,.62-.15.82-.43.58-.82,1.22-.94,2.12-1.11,1.05-.19,2.35-.43,3.4-1.93,1.05-1.49.83-2.8.65-3.85-.15-.9-.26-1.55.32-2.38s1.23-.94,2.12-1.11c.84-.15,1.84-.35,2.74-1.18l1.08,1.08Z"/></svg>