<svg xmlns="http://www.w3.org/2000/svg" width="24" height="24" viewBox="0 0 24 24"><g opacity="0.4"><path class="st0" d="M12,8c-1.4,0-2.6,0.6-3.5,1.5S7,11.6,7,13v6h10v-6c0-1.4-0.6-2.6-1.5-3.5S13.4,8,12,8z"/></g><path d="m19.71,20.71c.18-.18.29-.43.29-.71s-.11-.53-.29-.71-.43-.29-.71-.29H5c-.28,0-.53.11-.71.29s-.29.43-.29.71.11.53.29.71.43.29.71.29h14c.28,0,.53-.11.71-.29Z"/><path d="m12,6c.28,0,.53-.11.71-.29s.29-.43.29-.71v-1c0-.28-.11-.53-.29-.71s-.43-.29-.71-.29-.53.11-.71.29-.29.43-.29.71v1c0,.28.11.53.29.71s.43.29.71.29Z"/><path d="m21,11h-1c-.28,0-.53.11-.71.29s-.29.43-.29.71.11.53.29.71.43.29.71.29h1c.28,0,.53-.11.71-.29s.29-.43.29-.71-.11-.53-.29-.71-.43-.29-.71-.29Z"/><path d="m3,13h1c.28,0,.53-.11.71-.29s.29-.43.29-.71-.11-.53-.29-.71-.43-.29-.71-.29h-1c-.28,0-.53.11-.71.29s-.29.43-.29.71.11.53.29.71.43.29.71.29Z"/><path d="m17.32,7.23c.12.05.25.07.38.07s.26-.02.38-.07.23-.12.33-.22l.31-.31.31-.31c.2-.2.29-.45.29-.71s-.1-.51-.29-.71-.45-.29-.71-.29-.51.1-.71.29l-.31.31-.31.31c-.2.2-.29.45-.29.71s.1.51.29.71c.1.1.21.17.33.22Z"/><path d="m5.28,6.7l.31.31c.1.1.21.17.33.22s.25.07.38.07.26-.02.38-.07.23-.12.33-.22c.2-.2.29-.45.29-.71s-.1-.51-.29-.71l-.31-.31-.31-.31c-.2-.2-.45-.29-.71-.29s-.51.1-.71.29-.29.45-.29.71.1.51.29.71l.31.31Z"/></svg>