<svg xmlns="http://www.w3.org/2000/svg" width="24" height="24" viewBox="0 0 24 24"><g opacity="0.4"><path d="m21.19,15.09c-.37-.03-.74-.07-1.08-.13-.32-.05-.87-.21-.97-.39-.06-.02.07-.69.33-1.23,1.3-2.8,2.91-5.95,2.37-9.19-.09-.41-.69-.89-1.19-.78-.54.12-.59.27-.73.36-2.67,3.42-4.14,7.8-7.84,10.29-1.06.72-2.34,1.15-3.56,1-.71-.09-1.37-.4-1.95-.84,1.95-1.65,4.06-3.11,5.79-5.11.41-.51.85-1.07.97-1.82.24-3.25-5.43-2.3-7.33-1.48-3.31,1.32-3.59,5.23-1.55,7.7-.67.64-.97,1.02-1.46,1.63-.09.15-.25.31-.41.6-.32.59.11,1.3.78,1.3.3,0,.58-.15.74-.4.38-.59,1.14-1.66,1.76-1.8,5.26,3.91,10.55-2.98,13.94-7.75-.85,4.32-6.03,9.64,1.27,9.81.5.01.92-.39.92-.89,0-.46-.35-.85-.81-.88Zm-15.92-2.37c-1.17-1.92-1.13-4.47,1.42-5.28,1.23-.47,3.42-.52,4.54-.32-.75,1.3-2.13,2.22-3.29,3.31-.87.77-1.79,1.51-2.67,2.3Z"/></g><path d="M2 19H22V21H2z"/></svg>