<svg xmlns="http://www.w3.org/2000/svg" width="24" height="24" viewBox="0 0 24 24"><g opacity="0.4"><path d="m21.19,16.19c-1.07.32-2.12.67-3.14.68.26-.97.86-1.89,1.39-2.9.89-1.83,4.27-6.76.43-7.28-1.46.07-2.35.75-3.52,1.36-1.47.82-2.85,1.72-4.25,2.55.52-.85.94-1.75,1.06-2.77.23-1.54-1.14-3.15-2.73-3.25-4.1-.2-7.09,4.85-8.66,7.95-.43.89.82,1.7,1.46.93,1.92-1.97,3.82-4.39,6.18-5.59.24-.11.44-.14.54-.14-.01.05-.03.11-.06.18-.57,1.44-1.76,2.75-2.68,4.11-.25.37-.65.97-.72,1.59-.15,1.01.72,1.98,1.71,1.97.52.02,1.17-.19,1.49-.32,3.23-1.25,5.99-3.58,8.87-5.2-.89,2.25-2.34,4.3-2.72,6.8,0,3.36,4.22,1.76,5.96.95,1.01-.42.42-1.97-.61-1.62Zm-3.37.67c-.05-.01-.05-.03,0,0h0Z"/></g></svg>