<svg xmlns="http://www.w3.org/2000/svg" width="24" height="24" viewBox="0 0 24 24"><g opacity="0.4"><path d="m6,21h4v-4c0-1.1.9-2,2-2s2,.9,2,2v4h4V5H6v16Zm7-14h2v2h-2v-2Zm0,4h2v2h-2v-2Zm-4-4h2v2h-2v-2Zm0,4h2v2h-2v-2Z"/></g><path d="M13 11H15V13H13z"/><path d="M9 7H11V9H9z"/><path d="M9 11H11V13H9z"/><path d="M13 7H15V9H13z"/><path d="m14,17c0-1.1-.9-2-2-2s-2,.9-2,2v4h4v-4Z"/><path d="m6,5h12c.55,0,1-.45,1-1s-.45-1-1-1H6c-.55,0-1,.45-1,1s.45,1,1,1Z"/><path d="m6,9h-2.25c-.96,0-1.75.79-1.75,1.75v8.5c0,.96.79,1.75,1.75,1.75h2.25v-12Z"/><path d="m20.25,9h-2.25v12h2.25c.96,0,1.75-.79,1.75-1.75v-8.5c0-.96-.79-1.75-1.75-1.75Z"/></svg>