<svg xmlns="http://www.w3.org/2000/svg" width="24" height="24" viewBox="0 0 24 24"><g opacity="0.4"><path d="m11.72,2c-5.21.14-9.57,4.5-9.71,9.71-.12,4.52,2.81,8.58,7.14,9.87.47.14.94.21,1.41.21.25,0,.5-.04.75-.07-.19-.71-.3-1.45-.3-2.22,0-4.69,3.81-8.5,8.5-8.5.77,0,1.52.11,2.23.3.11-.71.07-1.45-.14-2.16-1.29-4.33-5.31-7.25-9.87-7.14Z"/></g><path d="m14.1,20.32l6.22-6.22c.77-.77,1.25-1.76,1.41-2.79-.71-.19-1.45-.3-2.23-.3-4.69,0-8.5,3.81-8.5,8.5,0,.77.11,1.51.3,2.22,1.04-.16,2.02-.63,2.79-1.4Z"/></svg>