<svg xmlns="http://www.w3.org/2000/svg" width="24" height="24" viewBox="0 0 24 24"><g opacity="0.4"><path d="m21.14,11.01c-.55-.08-1.05.3-1.13.85l-.55,3.82c-.19,1.32-1.34,2.32-2.67,2.32-1.2,0-2.27-.81-2.6-1.96l-1.23-4.32c.15.53-.16,1.08-.69,1.24-.09.03-.18.04-.28.04-.43,0-.83-.29-.96-.73l1.23,4.32c.57,2.01,2.43,3.41,4.52,3.41,2.32,0,4.32-1.73,4.65-4.04l.55-3.82c.08-.55-.3-1.05-.85-1.13Z"/></g><path d="m12,13c.09,0,.18-.01.28-.04.53-.15.84-.71.69-1.24l-1.23-4.32c-.57-2.01-2.43-3.41-4.52-3.41-2.32,0-4.32,1.73-4.65,4.04l-.55,3.82c-.08.55.3,1.05.85,1.13.55.08,1.05-.3,1.13-.85l.55-3.82c.19-1.32,1.34-2.32,2.67-2.32,1.2,0,2.27.81,2.6,1.96l1.23,4.32c.13.44.53.73.96.73Z"/></svg>