<svg xmlns="http://www.w3.org/2000/svg" width="24" height="24" viewBox="0 0 24 24"><g opacity="0.4"><path d="m5.56,8.82c.39,1.85,2.02,3.18,3.92,3.18h5.06c1.89,0,3.53-1.33,3.92-3.18l.59-2.82H4.97l.59,2.82Z"/></g><path d="m12.04,21.08c.12-1.17.46-1.86.85-2.63.43-.85.9-1.8,1.05-3.36.06-.58-.41-1.09-1-1.09-.52,0-.94.4-.99.92-.12,1.17-.46,1.86-.85,2.63-.43.85-.9,1.8-1.05,3.36-.06.58.41,1.09,1,1.09.52,0,.94-.4.99-.92Z"/><path d="m8.04,21.08c.12-1.17.46-1.86.85-2.63.43-.85.9-1.8,1.05-3.36.06-.58-.41-1.09-1-1.09-.52,0-.94.4-.99.92-.12,1.17-.46,1.86-.85,2.63-.43.85-.9,1.8-1.05,3.36-.06.58.41,1.09,1,1.09.52,0,.94-.4.99-.92Z"/><path d="m16.04,21.08c.12-1.17.46-1.86.85-2.63.43-.85.9-1.8,1.05-3.36.06-.58-.41-1.09-1-1.09-.52,0-.94.4-.99.92-.12,1.17-.46,1.86-.85,2.63-.43.85-.9,1.8-1.05,3.36-.06.58.41,1.09,1,1.09.52,0,.94-.4.99-.92Z"/><path d="m20,2H4c-1.1,0-2,.9-2,2s.9,2,2,2h16c1.1,0,2-.9,2-2s-.9-2-2-2Z"/></svg>