<svg xmlns="http://www.w3.org/2000/svg" width="24" height="24" viewBox="0 0 24 24"><g opacity="0.4"><path d="m15,10.62c-.73.84-1.8,1.38-3,1.38s-2.27-.54-3-1.38c-.73.84-1.8,1.38-3,1.38s-2.27-.54-3-1.38v7.38c0,2.21,1.79,4,4,4h2v-4c0-1.66,1.34-3,3-3s3,1.34,3,3v4h2c2.21,0,4-1.79,4-4v-7.38c-.73.84-1.8,1.38-3,1.38s-2.27-.54-3-1.38Z"/></g><path d="m19.7,3.6c-.75-1-1.95-1.6-3.2-1.6H7.5c-1.25,0-2.45.6-3.2,1.6l-1.8,2.4c-.32.43-.5.96-.5,1.5v.5c0,2.21,1.79,4,4,4,1.2,0,2.27-.54,3-1.38.73.84,1.8,1.38,3,1.38s2.27-.54,3-1.38c.73.84,1.8,1.38,3,1.38,2.21,0,4-1.79,4-4v-.5c0-.54-.18-1.07-.5-1.5l-1.8-2.4Z"/><path d="m15,18c0-1.66-1.34-3-3-3s-3,1.34-3,3v4h6v-4Z"/></svg>