<svg xmlns="http://www.w3.org/2000/svg" width="24" height="24" viewBox="0 0 24 24"><g opacity="0.4"><path d="m12,7c-3.71,0-10,.74-10,3.5v8c0,1.98,3.24,2.92,6.45,3.29.3.03.55-.2.55-.5v-2.29c0-.55.45-1,1-1h4c.55,0,1,.45,1,1v2.29c0,.3.26.53.55.5,3.2-.37,6.45-1.31,6.45-3.29v-8c0-2.76-6.29-3.5-10-3.5Zm0,2c4.75,0,7.4.99,7.94,1.5h-.1s.02.03.02.05c-.65.52-3.26,1.45-7.86,1.45s-7.21-.92-7.86-1.45c0-.02.01-.03.02-.05h-.1c.54-.51,3.19-1.5,7.94-1.5Z"/></g><path d="m7,6.2l2.42-.97c.21-.08.21-.38,0-.46l-4.08-1.63c-.16-.07-.34.06-.34.23v4.52c.62-.19,1.3-.35,2-.47v-1.22Z"/><path d="m13,7.02v-1.82l2.42-.97c.21-.08.21-.38,0-.46l-4.08-1.63c-.16-.07-.34.06-.34.23v4.65c.35-.01.68-.02,1-.02s.65,0,1,.02Z"/><path d="m19,6.2l2.42-.97c.21-.08.21-.38,0-.46l-4.08-1.63c-.16-.07-.34.06-.34.23v4.05c.7.12,1.38.28,2,.47v-1.69Z"/><path d="m12,12c4.6,0,7.21-.92,7.86-1.45l.07-.05c-.54-.51-3.19-1.5-7.94-1.5s-7.4.99-7.94,1.5l.07.05c.65.52,3.26,1.45,7.86,1.45Z"/></svg>