<svg xmlns="http://www.w3.org/2000/svg" width="24" height="24" viewBox="0 0 24 24"><g opacity="0.4"><path d="m18.5,2H5.5c-.83,0-1.5.67-1.5,1.5s.67,1.5,1.5,1.5h4.2l-3.7,3.21v2.65l6.76-5.86h5.74c.83,0,1.5-.67,1.5-1.5s-.67-1.5-1.5-1.5Z"/><path d="m18.5,19h-4.36l3.86-3.34v-2.65l-6.91,5.99h-5.59c-.83,0-1.5.67-1.5,1.5s.67,1.5,1.5,1.5h13c.83,0,1.5-.67,1.5-1.5s-.67-1.5-1.5-1.5Z"/><path d="M18 5.54 6 15.94 6 18.59 18 8.19 18 5.54z"/></g><path d="M6 10.86 6 15.94 18 5.54 18 5 12.76 5 6 10.86z"/><path d="M6 8.21 9.7 5 6 5 6 8.21z"/><path d="M18 19 18 15.66 14.14 19 18 19z"/><path d="M6 19 11.09 19 18 13.01 18 8.19 6 18.59 6 19z"/></svg>