<svg xmlns="http://www.w3.org/2000/svg" width="24" height="24" viewBox="0 0 24 24"><g opacity="0.4"><path d="m13.18,6.75l2.13-3.37c.29-.47.16-1.08-.31-1.38-.47-.3-1.08-.16-1.38.31l-1.62,2.57-1.62-2.57c-.29-.47-.91-.61-1.38-.31-.47.29-.61.91-.31,1.38l2.13,3.37-7.69,12.18c-.39.62-.41,1.4-.06,2.03.35.64,1.02,1.03,1.75,1.03h3.63l3.1-6.97c.18-.4.74-.4.91,0l3.1,6.97h3.63c.73,0,1.4-.4,1.75-1.03.35-.64.33-1.42-.06-2.03l-7.69-12.18Z"/></g><path d="m12.46,15.03c-.18-.4-.74-.4-.91,0l-3.1,6.97h7.11l-3.1-6.97Z"/></svg>