<svg xmlns="http://www.w3.org/2000/svg" width="24" height="24" viewBox="0 0 24 24"><g opacity="0.4"><path d="m13.12,4.06c-2.84-.31-5.68.6-7.8,2.49-2.11,1.9-3.33,4.61-3.33,7.45,0,1.19.21,2.36.62,3.47.56,1.51,2.06,2.53,3.72,2.53h11.32c1.66,0,3.14-1,3.7-2.49.56-1.5.75-3.07.57-4.68-.52-4.58-4.23-8.26-8.81-8.77Zm3.34,5.78l-3.4,5.22s0,0,0,0c-.46.71-1.41.9-2.12.44-.18-.12-.33-.27-.44-.44-.46-.71-.26-1.66.44-2.12l5.23-3.4c.2-.13.43.1.3.3Z"/></g><path d="m10.94,15.5c.71.46,1.65.27,2.12-.44,0,0,0,0,0,0l3.4-5.22c.13-.2-.1-.43-.3-.3l-5.23,3.4c-.71.46-.91,1.41-.44,2.12.12.18.27.33.44.44Z"/></svg>