<svg xmlns="http://www.w3.org/2000/svg" width="24" height="24" viewBox="0 0 24 24"><g opacity="0.4"><path d="m12,2C6.49,2,2,6.49,2,12s4.49,10,10,10,10-4.49,10-10S17.51,2,12,2Zm-5,11c-.32,0-.64-.16-.83-.45-.31-.46-.18-1.08.28-1.39l1.75-1.17-1.75-1.17c-.46-.31-.58-.93-.28-1.39.3-.46.93-.58,1.39-.28l3,2c.28.19.45.5.45.83s-.17.65-.45.83l-3,2c-.17.11-.36.17-.55.17Zm7.75,4h-5.51c-.6,0-.97-.68-.62-1.17.59-.84,1.66-1.83,3.38-1.83s2.79.99,3.38,1.83c.35.49-.02,1.17-.62,1.17Zm2.8-5.83c.46.31.58.93.28,1.39-.19.29-.51.45-.83.45-.19,0-.38-.05-.55-.17l-3-2c-.28-.19-.45-.5-.45-.83s.17-.65.45-.83l3-2c.46-.31,1.08-.18,1.39.28.31.46.18,1.08-.28,1.39l-1.75,1.17,1.75,1.17Z"/></g><path d="m17.83,7.45c-.31-.46-.93-.58-1.39-.28l-3,2c-.28.19-.45.5-.45.83s.17.65.45.83l3,2c.17.11.36.17.55.17.32,0,.64-.16.83-.45.31-.46.18-1.08-.28-1.39l-1.75-1.17,1.75-1.17c.46-.31.58-.93.28-1.39Z"/><path d="m6.17,12.55c.19.29.51.45.83.45.19,0,.38-.05.55-.17l3-2c.28-.19.45-.5.45-.83s-.17-.65-.45-.83l-3-2c-.46-.31-1.08-.18-1.39.28-.31.46-.18,1.08.28,1.39l1.75,1.17-1.75,1.17c-.46.31-.58.93-.28,1.39Z"/><path d="m8.62,15.83c-.35.49.02,1.17.62,1.17h5.51c.6,0,.97-.68.62-1.17-.59-.84-1.66-1.83-3.38-1.83s-2.79.99-3.38,1.83Z"/></svg>