<svg xmlns="http://www.w3.org/2000/svg" width="24" height="24" viewBox="0 0 24 24"><g opacity="0.4"><path d="m3.56,5c-.34.59-.56,1.27-.56,2h2v-2h-1.44Z"/><path d="M5 7H7V9H5z"/><path d="M7 5H9V7H7z"/><path d="M9 7H11V9H9z"/><path d="M11 5H13V7H11z"/><path d="M15 5H17V7H15z"/><path d="M13 7H15V9H13z"/><path d="m7,3c-.73,0-1.41.21-2,.56v1.44h2v-2Z"/><path d="M9 3H11V5H9z"/><path d="M13 3H15V5H13z"/><path d="M3 9H5V11H3z"/><path d="M5 11H7V13H5z"/><path d="M7 9H9V11H7z"/><path d="M9 11H11V13H9z"/><path d="M11 9H13V11H11z"/><path d="M15 9H17V11H15z"/><path d="M13 11H15V13H13z"/><path d="M3 13H5V15H3z"/><path d="M5 15H7V17H5z"/><path d="M7 13H9V15H7z"/><path d="M9 15H11V17H9z"/><path d="M11 13H13V15H11z"/><path d="M15 13H17V15H15z"/><path d="M13 15H15V17H13z"/><path d="m21,7c0-.73-.21-1.41-.56-2h-1.44v2h2Z"/><path d="M17 7H19V9H17z"/><path d="m19,3.56c-.59-.34-1.27-.56-2-.56v2h2v-1.44Z"/><path d="M19 9H21V11H19z"/><path d="M17 11H19V13H17z"/><path d="M19 13H21V15H19z"/><path d="M17 15H19V17H17z"/><path d="m3,17c0,.73.21,1.41.56,2h1.44v-2h-2Z"/><path d="m5,20.44c.59.34,1.27.56,2,.56v-2h-2v1.44Z"/><path d="M7 17H9V19H7z"/><path d="M9 19H11V21H9z"/><path d="M11 17H13V19H11z"/><path d="M15 17H17V19H15z"/><path d="M13 19H15V21H13z"/><path d="m20.44,19c.34-.59.56-1.27.56-2h-2v2h1.44Z"/><path d="m17,21c.73,0,1.41-.21,2-.56v-1.44h-2v2Z"/></g></svg>