<svg xmlns="http://www.w3.org/2000/svg" width="24" height="24" viewBox="0 0 24 24"><g opacity="0.4"><path d="m20.5,3h-1.92c-.94,0-1.87-.15-2.76-.45-1.1-.37-2.24-.55-3.4-.55h-5.59c-1.56,0-2.83,1.27-2.83,2.83,0,.46.11.9.31,1.28-.79.5-1.31,1.39-1.31,2.39,0,.46.11.9.31,1.28-.79.5-1.31,1.39-1.31,2.39,0,1.56,1.27,2.83,2.83,2.83h4.02c.32,0,.61.14.8.4.19.25.25.57.16.88l-.54,1.9c-.26.91-.08,1.87.49,2.63.57.76,1.45,1.19,2.4,1.19h.59c.89,0,1.68-.6,1.92-1.45l.94-3.28c.42-1.48,1.62-2.56,3.13-2.84l2.03-.37c.71-.13,1.23-.75,1.23-1.48V4.5c0-.83-.67-1.5-1.5-1.5Z"/></g></svg>