<svg xmlns="http://www.w3.org/2000/svg" width="24" height="24" viewBox="0 0 24 24"><g opacity="0.4"><path d="m3,3h-1v2c0,2.21,1.79,4,4,4h1V3H3Z"/><path d="M9 3H15V9H9z"/><path d="m20,3h-3v6h1c2.21,0,4-1.79,4-4v-2h-2Z"/><path d="m2,19v2h5v-6h-1c-2.21,0-4,1.79-4,4Z"/><path d="m18,15h-1v6h5v-2c0-2.21-1.79-4-4-4Z"/><path d="M9 15H15V21H9z"/></g><path d="m21,11h-1c-.55,0-1,.45-1,1s.45,1,1,1h1c.55,0,1-.45,1-1s-.45-1-1-1Z"/><path d="m14,13h2c.55,0,1-.45,1-1s-.45-1-1-1h-2c-.55,0-1,.45-1,1s.45,1,1,1Z"/><path d="m8,13h2c.55,0,1-.45,1-1s-.45-1-1-1h-2c-.55,0-1,.45-1,1s.45,1,1,1Z"/><path d="m3,13h1c.55,0,1-.45,1-1s-.45-1-1-1h-1c-.55,0-1,.45-1,1s.45,1,1,1Z"/><path d="M7 3H9V9H7z"/><path d="M15 3H17V9H15z"/><path d="M7 15H9V21H7z"/><path d="M15 15H17V21H15z"/></svg>