<svg xmlns="http://www.w3.org/2000/svg" width="24" height="24" viewBox="0 0 24 24"><g opacity="0.4"><path d="m12.01,2h-.02c-1.02,0-1.92.64-2.26,1.6l-1.55,4.4h7.65l-1.55-4.4c-.34-.96-1.25-1.6-2.26-1.6Z"/><path d="M5.7 15 4.29 19 19.71 19 18.3 15 5.7 15z"/><path d="M6.41 13 17.59 13 16.53 10 7.47 10 6.41 13z"/></g><path d="m21,19H3c-.55,0-1,.45-1,1s.45,1,1,1h18c.55,0,1-.45,1-1s-.45-1-1-1Z"/><path d="M15.83 8 8.17 8 7.47 10 16.53 10 15.83 8z"/><path d="M17.59 13 6.41 13 5.7 15 18.3 15 17.59 13z"/></svg>