<svg xmlns="http://www.w3.org/2000/svg" width="24" height="24" viewBox="0 0 24 24"><g opacity="0.4"><path d="m13.4,8h-4.4c-.55,0-1,.45-1,1s.45,1,1,1h4.5c.83,0,1.5.67,1.5,1.5s-.67,1.5-1.5,1.5h-7c-2.63,0-4.74,2.27-4.48,4.95.23,2.34,2.33,4.05,4.68,4.05h8.3c.55,0,1-.45,1-1s-.45-1-1-1H6.5c-1.46,0-2.64-1.27-2.49-2.76.13-1.3,1.33-2.24,2.63-2.24h6.85c2.17,0,3.89-1.99,3.42-4.24-.34-1.64-1.86-2.76-3.53-2.76Z"/></g><path d="m4.35,9.52c.38.31.91.32,1.29,0,.88-.73,2.36-2.29,2.36-4.53,0-1.77-1.53-3.18-3.34-2.98-1.77.2-2.87,1.98-2.6,3.73.28,1.83,1.51,3.12,2.29,3.77Zm.65-6.02c.83,0,1.5.67,1.5,1.5s-.67,1.5-1.5,1.5-1.5-.67-1.5-1.5.67-1.5,1.5-1.5Z"/><path d="m18.66,14.02c-1.77.2-2.87,1.98-2.6,3.73.28,1.83,1.51,3.12,2.29,3.77.38.31.91.32,1.29,0,.88-.73,2.36-2.29,2.36-4.53,0-1.77-1.53-3.18-3.34-2.98Zm.34,4.48c-.83,0-1.5-.67-1.5-1.5s.67-1.5,1.5-1.5,1.5.67,1.5,1.5-.67,1.5-1.5,1.5Z"/></svg>