<svg xmlns="http://www.w3.org/2000/svg" width="24" height="24" viewBox="0 0 24 24"><g opacity="0.4"><path d="m4,18c0,2.21,1.79,4,4,4h8c2.21,0,4-1.79,4-4v-10H4v10Zm4.5-5.09c-.39-.39-.39-1.02,0-1.41.39-.39,1.02-.39,1.41,0l2.09,2.09,2.09-2.09c.39-.39,1.02-.39,1.41,0,.39.39.39,1.02,0,1.41l-2.09,2.09,2.09,2.09c.39.39.39,1.02,0,1.41-.39.39-1.02.39-1.41,0l-2.09-2.09-2.09,2.09c-.39.39-1.02.39-1.41,0-.39-.39-.39-1.02,0-1.41l2.09-2.09-2.09-2.09Z"/></g><path d="m21,6h-4v-1.5c0-1.38-1.12-2.5-2.5-2.5h-5c-1.38,0-2.5,1.12-2.5,2.5v1.5H3c-.55,0-1,.45-1,1s.45,1,1,1h18c.55,0,1-.45,1-1s-.45-1-1-1Zm-6,0h-6v-1.5c0-.28.22-.5.5-.5h5c.28,0,.5.22.5.5v1.5Z"/><path d="m8.5,18.5c.39.39,1.02.39,1.41,0l2.09-2.09,2.09,2.09c.39.39,1.02.39,1.41,0,.39-.39.39-1.02,0-1.41l-2.09-2.09,2.09-2.09c.39-.39.39-1.02,0-1.41-.39-.39-1.02-.39-1.41,0l-2.09,2.09-2.09-2.09c-.39-.39-1.02-.39-1.41,0-.39.39-.39,1.02,0,1.41l2.09,2.09-2.09,2.09c-.39.39-.39,1.02,0,1.41Z"/></svg>