<svg xmlns="http://www.w3.org/2000/svg" width="24" height="24" viewBox="0 0 24 24"><g opacity="0.4"><path d="m2,17c0,2.21,1.79,4,4,4h1v-5H2v1Z"/><path d="M2 10H7V14H2z"/><path d="M9 3H15V8H9z"/><path d="M9 10H15V14H9z"/><path d="m2,7v1h5V3h-1c-2.21,0-4,1.79-4,4Z"/><path d="m18,3h-1v5h5v-1c0-2.21-1.79-4-4-4Z"/><path d="M17 10H22V14H17z"/><path d="m17,21h1c2.21,0,4-1.79,4-4v-1h-5v5Z"/><path d="M9 16H15V21H9z"/></g><path d="m17,3h-2v5h-6V3h-2v5H2v2h5v4H2v2h5v5h2v-5h6v5h2v-5h5v-2h-5v-4h5v-2h-5V3Zm-2,11h-6v-4h6v4Z"/></svg>