<svg xmlns="http://www.w3.org/2000/svg" width="24" height="24" viewBox="0 0 24 24"><g opacity="0.4"><path d="m12,2C6.49,2,2,6.49,2,12s4.49,10,10,10,10-4.49,10-10S17.51,2,12,2Zm-3.49,13c-.82,0-1.49-.67-1.49-1.49s.67-1.49,1.49-1.49,1.49.67,1.49,1.49-.67,1.49-1.49,1.49Zm.67-5.83c-.39.39-1.02.39-1.41,0-.39-.39-.39-1.02,0-1.41,1.13-1.13,2.64-1.76,4.24-1.76s3.11.62,4.24,1.76c.39.39.39,1.02,0,1.41-.2.2-.45.29-.71.29s-.51-.1-.71-.29c-1.51-1.51-4.14-1.51-5.66,0Zm6.33,5.83c-.83,0-1.5-.67-1.5-1.5s.67-1.5,1.5-1.5,1.5.67,1.5,1.5-.67,1.5-1.5,1.5Z"/></g><path d="m9.17,9.17c1.51-1.51,4.14-1.51,5.66,0,.2.2.45.29.71.29s.51-.1.71-.29c.39-.39.39-1.02,0-1.41-1.13-1.13-2.64-1.76-4.24-1.76s-3.11.62-4.24,1.76c-.39.39-.39,1.02,0,1.41.39.39,1.02.39,1.41,0Z"/><path d="m8.51,15c.82,0,1.49-.67,1.49-1.49s-.67-1.49-1.49-1.49-1.49.67-1.49,1.49.67,1.49,1.49,1.49Z"/><path d="M15.5 12A1.5 1.5 0 1 0 15.5 15 1.5 1.5 0 1 0 15.5 12z"/></svg>