<svg xmlns="http://www.w3.org/2000/svg" width="24" height="24" viewBox="0 0 24 24"><g opacity="0.4"><path d="m17,4c-.55,0-1,.45-1,1v5c0,2.21-1.79,4-4,4s-4-1.79-4-4v-5c0-.55-.45-1-1-1s-1,.45-1,1v5c0,3.31,2.69,6,6,6s6-2.69,6-6v-5c0-.55-.45-1-1-1Z"/></g><path d="m18,18.36c-.32,0-.43-.06-.69-.22-.35-.21-.84-.5-1.71-.5s-1.36.29-1.71.5c-.26.15-.36.22-.69.22s-.43-.06-.68-.22c-.35-.21-.84-.5-1.71-.5s-1.36.29-1.71.5c-.26.15-.36.22-.68.22s-.43-.06-.68-.22c-.35-.21-.84-.5-1.71-.5-.55,0-1,.45-1,1s.45,1,1,1c.32,0,.43.06.68.22.35.21.84.5,1.71.5s1.36-.29,1.71-.5c.26-.15.36-.22.68-.22s.43.06.68.22c.35.21.84.5,1.71.5s1.36-.29,1.72-.5c.26-.15.36-.22.69-.22s.43.06.69.22c.35.21.84.5,1.71.5.55,0,1-.45,1-1s-.45-1-1-1Z"/></svg>