<svg xmlns="http://www.w3.org/2000/svg" width="24" height="24" viewBox="0 0 24 24"><g opacity="0.4"><path d="m17,3H7c-2.21,0-4,1.79-4,4v10c0,1.86,1.29,3.42,3.01,3.86.07-2.7,2.27-4.86,4.99-4.86h2c2.71,0,4.91,2.17,4.99,4.86,1.73-.44,3.01-2,3.01-3.86V7c0-2.21-1.79-4-4-4Zm-5,11c-1.66,0-3-1.34-3-3s1.34-3,3-3,3,1.34,3,3-1.34,3-3,3Z"/></g><path d="m17,21c.34,0,.67-.06.99-.14-.07-2.7-2.27-4.86-4.99-4.86h-2c-2.71,0-4.91,2.17-4.99,4.86.32.08.64.14.99.14h10Z"/><path d="M12 8A3 3 0 1 0 12 14 3 3 0 1 0 12 8z"/></svg>