<svg xmlns="http://www.w3.org/2000/svg" width="24" height="24" viewBox="0 0 24 24"><g opacity="0.4"><path d="M8 4A4 4 0 1 0 8 12 4 4 0 1 0 8 4z"/><path d="m4,20h8c1.1,0,2-.9,2-2,0-2.76-2.24-5-5-5h-2c-2.76,0-5,2.24-5,5,0,1.1.9,2,2,2Z"/></g><path d="m20.83,9.17c-.39-.39-1.02-.39-1.41,0l-1.41,1.41-1.41-1.41c-.39-.39-1.02-.39-1.41,0s-.39,1.02,0,1.41l1.41,1.41-1.41,1.41c-.39.39-.39,1.02,0,1.41.2.2.45.29.71.29s.51-.1.71-.29l1.41-1.41,1.41,1.41c.2.2.45.29.71.29s.51-.1.71-.29c.39-.39.39-1.02,0-1.41l-1.41-1.41,1.41-1.41c.39-.39.39-1.02,0-1.41Z"/></svg>