<svg xmlns="http://www.w3.org/2000/svg" width="24" height="24" viewBox="0 0 24 24"><g opacity="0.4"><path d="m12,2C6.49,2,2,6.49,2,12s4.49,10,10,10,10-4.49,10-10S17.51,2,12,2Zm0,4c.83,0,1.5.67,1.5,1.5s-.67,1.5-1.5,1.5-1.5-.67-1.5-1.5.67-1.5,1.5-1.5Zm3.75,4.75l-2.25.75v1.5l1.27,3.59c.13.38-.04.79-.39.97l-.08.04c-.42.21-.94,0-1.1-.44l-.95-2.66h-.5l-.95,2.66c-.16.45-.67.65-1.1.44l-.08-.04c-.36-.18-.52-.59-.39-.97l1.27-3.59v-1.5l-2.25-.75c-.41-.14-.64-.59-.5-1,.14-.41.59-.64,1-.5l1.3.43c.63.21,1.29.32,1.95.32s1.32-.11,1.95-.32l1.3-.43c.41-.14.86.09,1,.5h0c.14.41-.09.86-.5,1Z"/></g><path d="m8.25,10.75l2.25.75v1.5l-1.27,3.59c-.13.38.04.79.39.97l.08.04c.42.21.94,0,1.1-.44l.95-2.66h.5l.95,2.66c.16.45.67.65,1.1.44l.08-.04c.36-.18.52-.59.39-.97l-1.27-3.59v-1.5l2.25-.75c.41-.14.64-.59.5-1h0c-.14-.42-.59-.64-1-.5l-1.3.43c-.63.21-1.29.32-1.95.32s-1.32-.11-1.95-.32l-1.3-.43c-.41-.14-.86.09-1,.5-.14.41.09.86.5,1Z"/><path d="M12 6A1.5 1.5 0 1 0 12 9 1.5 1.5 0 1 0 12 6z"/></svg>