<svg xmlns="http://www.w3.org/2000/svg" width="24" height="24" viewBox="0 0 24 24"><g opacity="0.4"><path d="m2.2,10c-.15.74.04,1.5.51,2.08.48.59,1.19.92,1.94.92h3.34c0-6.08,1.79-11,4-11-4.74,0-8.86,3.36-9.8,8Z"/><path d="m12,2c2.21,0,4,4.92,4,11h3.34c.75,0,1.46-.34,1.94-.92.48-.58.67-1.34.51-2.08-.94-4.63-5.06-8-9.8-8Z"/></g><path d="m11,18.88c0,1.45.98,2.78,2.4,3.06,1.92.37,3.6-1.09,3.6-2.94v-1c0-.55-.45-1-1-1s-1,.45-1,1v1c0,.55-.45,1-1,1s-1-.45-1-1v-6h3c0-6.08-1.79-11-4-11s-4,4.92-4,11h3v5.88Z"/></svg>