<svg xmlns="http://www.w3.org/2000/svg" width="24" height="24" viewBox="0 0 24 24"><g opacity="0.4"><path d="M8 4A4 4 0 1 0 8 12 4 4 0 1 0 8 4z"/><path d="m4,20h8c1.1,0,2-.9,2-2,0-2.76-2.24-5-5-5h-2c-2.76,0-5,2.24-5,5,0,1.1.9,2,2,2Z"/></g><path d="m20.58,13.17c.26-.49.42-1.05.42-1.67,0-2-1.5-3.5-3.5-3.5s-3.5,1.5-3.5,3.5,1.5,3.5,3.5,3.5c.62,0,1.18-.16,1.67-.42l1.42,1.42c.39.39,1.02.39,1.41,0,.39-.39.39-1.02,0-1.41l-1.42-1.42Zm-3.08-.17c-.88,0-1.5-.62-1.5-1.5s.62-1.5,1.5-1.5,1.5.62,1.5,1.5-.62,1.5-1.5,1.5Z"/></svg>