<svg xmlns="http://www.w3.org/2000/svg" width="24" height="24" viewBox="0 0 24 24"><g opacity="0.4"><path d="m13.21,3.61c-.49-.26-1.08-.23-1.54.08l-3.94,2.63,6.27,6.27v-7.65c0-.55-.3-1.06-.79-1.32Z"/><path d="m4.5,7c-1.38,0-2.5,1.12-2.5,2.5v5c0,1.38,1.12,2.5,2.5,2.5h2.05c.1,0,.2.03.28.08l4.84,3.23c.25.17.54.25.83.25.24,0,.49-.06.71-.18.49-.26.79-.77.79-1.32v-3.65L5.59,7h-1.09Z"/><path d="m15.92,12.81c-.03.13-.06.26-.1.38-.04.13-.09.25-.13.37-.05.12-.11.24-.17.35-.03.05-.03.1-.05.15l1.26,1.26c.22-.08.42-.23.54-.46.09-.17.18-.34.26-.53.07-.18.14-.36.2-.55.06-.19.11-.38.15-.58.04-.19.07-.39.09-.6.02-.2.03-.4.03-.61s-.01-.41-.03-.61c-.02-.2-.05-.4-.09-.59-.04-.2-.09-.39-.15-.58-.06-.19-.12-.37-.2-.55-.08-.18-.16-.35-.25-.52-.26-.48-.87-.67-1.36-.4-.49.26-.66.87-.4,1.36.06.11.12.23.17.34.05.12.1.25.14.37s.07.25.1.38c.03.13.05.26.06.4.01.14.02.27.02.41s0,.28-.02.41c-.01.14-.04.27-.06.4Z"/><path d="m21.8,9.98c-.07-.32-.15-.64-.25-.96-.1-.31-.21-.62-.34-.92-.13-.3-.27-.59-.42-.87-.15-.28-.32-.56-.5-.83s-.37-.52-.57-.77c-.2-.25-.42-.48-.65-.71-.23-.22-.46-.44-.71-.64-.25-.2-.5-.39-.77-.57s-.54-.35-.83-.5c-.48-.27-1.09-.09-1.36.4-.26.48-.08,1.09.4,1.36.23.12.45.26.66.4s.42.3.62.46c.2.16.39.34.57.51.18.18.35.37.52.57.16.2.32.4.46.62s.28.43.4.66c.12.23.23.46.33.7.1.24.19.49.27.73.08.25.14.51.2.77.05.26.09.52.12.8.03.27.04.54.04.82s-.01.55-.04.82c-.03.27-.07.53-.12.79-.05.26-.12.52-.2.77-.08.25-.17.5-.27.73-.1.24-.21.47-.34.7-.12.23-.26.45-.4.66-.1.15-.21.29-.32.43l1.43,1.43c.19-.24.38-.48.55-.73.18-.27.35-.54.5-.83.15-.28.29-.58.42-.88.13-.3.24-.6.34-.92.1-.31.18-.63.25-.96.07-.33.12-.66.15-.99.03-.34.05-.68.05-1.02s-.02-.69-.05-1.02c-.03-.34-.08-.67-.15-1Z"/><path d="m16.47,18.63c-.21.14-.43.28-.66.4-.49.26-.67.87-.4,1.36.18.33.52.52.88.52.16,0,.33-.04.48-.12.28-.15.56-.32.83-.5.25-.17.5-.36.73-.55l-1.43-1.43c-.14.11-.28.22-.43.32Z"/></g><path d="m3.71,2.29c-.39-.39-1.02-.39-1.41,0s-.39,1.02,0,1.41l18,18c.2.2.45.29.71.29s.51-.1.71-.29c.39-.39.39-1.02,0-1.41L3.71,2.29Z"/></svg>