<svg xmlns="http://www.w3.org/2000/svg" width="24" height="24" viewBox="0 0 24 24"><g opacity="0.4"><path d="m11.65,8.65c.2.2.51.2.71,0l2.79-2.79c.32-.31.09-.85-.35-.85h-1.79v-2c0-.55-.45-1-1-1s-1,.45-1,1v2h-1.79c-.45,0-.67.54-.35.85l2.79,2.79Z"/><path d="m9.21,19h1.79v2c0,.55.45,1,1,1s1-.45,1-1v-2h1.79c.45,0,.67-.54.35-.85l-2.79-2.79c-.2-.2-.51-.2-.71,0l-2.79,2.79c-.32.32-.09.85.35.85Z"/></g><path d="m4,13h1c.55,0,1-.45,1-1s-.45-1-1-1h-1c-.55,0-1,.45-1,1s.45,1,1,1Z"/><path d="m9,13h1c.55,0,1-.45,1-1s-.45-1-1-1h-1c-.55,0-1,.45-1,1s.45,1,1,1Z"/><path d="m14,11c-.55,0-1,.45-1,1s.45,1,1,1h1c.55,0,1-.45,1-1s-.45-1-1-1h-1Z"/><path d="m19,13h1c.55,0,1-.45,1-1s-.45-1-1-1h-1c-.55,0-1,.45-1,1s.45,1,1,1Z"/></svg>