<svg xmlns="http://www.w3.org/2000/svg" width="24" height="24" viewBox="0 0 24 24"><g opacity="0.4"><path d="m2,8v8c0,2.21,1.79,4,4,4h8c1.25,0,2.36-.59,3.09-1.49L3.49,4.91c-.9.73-1.49,1.84-1.49,3.09Z"/><path d="m21.18,7.68l-3.18,2.65v-2.33c0-2.21-1.79-4-4-4H6c-.18,0-.36.03-.53.05l12.48,12.48c.02-.18.05-.35.05-.53v-2.33l3.18,2.65c.33.27.82.04.82-.38v-7.86c0-.42-.49-.66-.82-.38Z"/></g><path d="m3.71,2.29c-.39-.39-1.02-.39-1.41,0s-.39,1.02,0,1.41l18,18c.2.2.45.29.71.29s.51-.1.71-.29c.39-.39.39-1.02,0-1.41L3.71,2.29Z"/></svg>