<svg xmlns="http://www.w3.org/2000/svg" width="24" height="24" viewBox="0 0 24 24"><g opacity="0.4"><rect x="2" y="9" width="16" height="12" rx="3" ry="3"/></g><path d="m5,9h1c-1.1,0-2-.9-2-2s.9-2,2-2,2,.9,2,2-.9,2-2,2h7c-1.1,0-2-.9-2-2s.9-2,2-2,2,.9,2,2-.9,2-2,2h2c.46,0,.88.11,1.27.29.46-.65.73-1.44.73-2.29,0-2.21-1.79-4-4-4-1.52,0-2.82.86-3.5,2.1-.68-1.25-1.98-2.1-3.5-2.1-2.21,0-4,1.79-4,4,0,1.05.42,2,1.08,2.71.52-.44,1.19-.71,1.92-.71Z"/><path d="m20.91,12.04l-2.91,1.46v3l2.91,1.46c.5.25,1.09-.11,1.09-.67v-4.57c0-.56-.59-.92-1.09-.67Z"/></svg>