<svg xmlns="http://www.w3.org/2000/svg" width="24" height="24" viewBox="0 0 24 24"><g opacity="0.4"><path d="m5,8.82v6.37c.31-.11.65-.18,1-.18s.69.07,1,.18v-6.37c-.31.11-.65.18-1,.18s-.69-.07-1-.18Z"/><path d="m15.18,19c-.11-.31-.18-.65-.18-1s.07-.69.18-1h-6.37c.11.31.18.65.18,1s-.07.69-.18,1h6.37Z"/><path d="m15.32,16.68c.29-.59.77-1.07,1.36-1.36l.03-.03L8.71,7.29l-.03.03c-.29.59-.77,1.07-1.36,1.36l-.03.03,8,8,.03-.03Z"/></g><path d="M6 3A3 3 0 1 0 6 9 3 3 0 1 0 6 3z"/><path d="M6 15A3 3 0 1 0 6 21 3 3 0 1 0 6 15z"/><path d="M18 15A3 3 0 1 0 18 21 3 3 0 1 0 18 15z"/></svg>