<svg xmlns="http://www.w3.org/2000/svg" width="24" height="24" viewBox="0 0 24 24"><g opacity="0.4"><path d="m18,3H6c-2.21,0-4,1.79-4,4v7c0,2.21,1.79,4,4,4h1.38s2.24,0,2.24,0h0s4.76,0,4.76,0h0s2.24,0,2.24,0h0s1.38,0,1.38,0c2.21,0,4-1.79,4-4v-7c0-2.21-1.79-4-4-4Zm-9,11h-2c-.55,0-1-.45-1-1s.45-1,1-1h2c.55,0,1,.45,1,1s-.45,1-1,1Z"/></g><path d="m14.38,18l1.28,2.55c.25.49.85.69,1.34.45s.69-.85.45-1.34l-.83-1.66h-2.24Z"/><path d="m6.55,19.66c-.25.49-.05,1.09.45,1.34s1.09.05,1.34-.45l1.28-2.55h-2.24l-.83,1.66Z"/><path d="m10,13c0-.55-.45-1-1-1h-2c-.55,0-1,.45-1,1s.45,1,1,1h2c.55,0,1-.45,1-1Z"/></svg>