<svg xmlns="http://www.w3.org/2000/svg" width="24" height="24" viewBox="0 0 24 24"><g opacity="0.4"><path d="m5,12c0,3.86,3.14,7,7,7s7-3.14,7-7-3.14-7-7-7-7,3.14-7,7Zm6-4c0-.55.45-1,1-1s1,.45,1,1v3h3c.55,0,1,.45,1,1s-.45,1-1,1h-4c-.55,0-1-.45-1-1v-4Z"/></g><path d="m12,7c-.55,0-1,.45-1,1v4c0,.55.45,1,1,1h4c.55,0,1-.45,1-1s-.45-1-1-1h-3v-3c0-.55-.45-1-1-1Z"/><path d="m8,20.5c0,.83.67,1.5,1.5,1.5h5c.83,0,1.5-.67,1.5-1.5v-2.76c-1.14.79-2.51,1.26-4,1.26s-2.86-.47-4-1.26v2.76Z"/><path d="m14.5,2h-5c-.83,0-1.5.67-1.5,1.5v2.76c1.14-.79,2.51-1.26,4-1.26s2.86.47,4,1.26v-2.76c0-.83-.67-1.5-1.5-1.5Z"/></svg>