<svg xmlns="http://www.w3.org/2000/svg" width="24" height="24" viewBox="0 0 24 24"><g opacity="0.4"><path d="m8.19,16.47c.07-.06.14-.12.22-.18.08-.06.15-.11.24-.17s.16-.11.24-.16c.08-.05.17-.1.26-.15.09-.05.17-.09.25-.13.09-.04.18-.08.28-.12.09-.04.18-.07.27-.11.09-.03.18-.06.28-.09.09-.03.19-.06.28-.08.1-.02.2-.05.29-.07.1-.02.2-.04.29-.05.1-.01.21-.03.3-.04.1,0,.2-.02.31-.02.21,0,.42,0,.62,0,.1,0,.2.01.3.02.1.01.21.02.31.04.1.02.2.03.29.05.1.02.2.04.29.07.1.03.19.05.29.08.09.03.19.06.27.09.09.04.18.07.28.11.09.04.18.08.26.12.09.04.17.09.26.14.08.05.17.09.25.14.08.05.17.1.25.16.08.05.16.11.24.17.08.06.15.11.22.17.19.16.41.23.64.23.29,0,.57-.12.77-.36.35-.42.29-1.06-.13-1.41-.1-.08-.2-.16-.3-.24-.1-.08-.21-.15-.31-.22-.11-.07-.21-.14-.33-.21-.11-.07-.22-.13-.33-.19-.11-.06-.23-.12-.35-.18-.12-.05-.23-.11-.35-.16-.12-.05-.24-.1-.37-.15-.12-.04-.25-.09-.37-.12-.12-.04-.25-.08-.38-.11-.12-.03-.25-.06-.38-.09-.13-.03-.26-.05-.4-.07-.13-.02-.26-.04-.4-.05-.13-.01-.27-.02-.41-.03-.27-.01-.55-.01-.82,0-.14,0-.27.02-.41.03-.13.01-.26.03-.39.05-.13.02-.26.04-.4.07-.13.03-.26.06-.39.09-.13.03-.25.07-.38.11-.13.04-.25.08-.38.13-.12.05-.24.09-.36.14-.12.05-.24.1-.36.16-.12.06-.23.11-.34.17-.11.06-.22.12-.34.19-.11.07-.22.13-.32.21-.11.07-.21.15-.31.22-.1.08-.21.16-.31.24-.42.35-.48.98-.13,1.41.35.42.98.48,1.41.13Z"/></g><path d="m12,17c-1.1,0-2,.9-2,2,0,1.1.89,2,2,2s2-.9,2-2-.9-2-2-2Z"/><path d="m19.18,11.44c-.15-.12-.31-.23-.47-.34-.16-.11-.32-.21-.49-.31-.17-.1-.33-.2-.5-.29-.17-.09-.34-.18-.52-.27-.17-.08-.35-.16-.53-.24-.18-.08-.36-.15-.55-.21-.18-.07-.37-.13-.56-.19-.19-.06-.38-.11-.57-.16-.19-.05-.38-.09-.58-.13-.19-.04-.39-.07-.59-.11-.2-.03-.39-.05-.6-.08-.2-.02-.4-.04-.61-.05-.41-.02-.83-.02-1.24,0-.2.01-.41.03-.61.05-.2.02-.4.05-.6.08-.2.03-.39.07-.59.11-.19.04-.39.08-.58.13-.19.05-.38.1-.57.16-.19.06-.37.12-.56.19-.18.07-.37.14-.55.22-.18.08-.36.16-.53.24-.17.08-.35.17-.52.27-.17.09-.34.19-.5.29-.16.1-.32.2-.49.31-.16.11-.32.22-.47.33-.16.12-.31.24-.46.36-.42.35-.48.98-.13,1.41.35.42.98.49,1.41.13.12-.1.25-.2.38-.3.13-.1.26-.19.39-.28.13-.09.27-.18.41-.26.14-.08.28-.16.42-.24.14-.08.29-.15.43-.22.15-.07.29-.14.44-.2.15-.06.3-.12.45-.18.15-.06.31-.11.47-.16.16-.05.31-.09.47-.13.16-.04.32-.08.48-.11.16-.03.33-.06.49-.09.17-.03.34-.05.5-.06.17-.02.34-.03.51-.04.34-.02.69-.02,1.03,0,.17,0,.34.02.5.04.17.02.34.04.5.06.17.03.33.06.49.09.16.03.33.07.49.11.16.04.32.09.47.13.16.05.31.1.46.16s.3.12.45.18c.15.06.3.13.45.2.14.07.29.14.43.22.14.08.28.16.42.24.14.08.28.17.41.26.13.09.26.18.39.28.13.1.25.19.38.3.19.15.41.23.64.23.29,0,.57-.12.77-.36.35-.43.29-1.06-.13-1.41-.15-.12-.3-.24-.45-.36Z"/></svg>