<svg xmlns="http://www.w3.org/2000/svg" width="24" height="24" viewBox="0 0 24 24"><g opacity="0.4"><path d="m14,5h-4c-2.21,0-4,1.79-4,4v6c0,2.21,1.79,4,4,4h4c2.21,0,4-1.79,4-4v-6c0-2.21-1.79-4-4-4Zm.71,9.71c-.2.2-.45.29-.71.29s-.51-.1-.71-.29l-2-2c-.19-.19-.29-.44-.29-.71v-3c0-.55.45-1,1-1s1,.45,1,1v2.59l1.71,1.71c.39.39.39,1.02,0,1.41Z"/></g><path d="m12,8c-.55,0-1,.45-1,1v3c0,.27.11.52.29.71l2,2c.2.2.45.29.71.29s.51-.1.71-.29c.39-.39.39-1.02,0-1.41l-1.71-1.71v-2.59c0-.55-.45-1-1-1Z"/><path d="m8,21c0,.55.45,1,1,1h6c.55,0,1-.45,1-1v-2.56c-.59.34-1.27.56-2,.56h-4c-.73,0-1.41-.21-2-.56v2.56Z"/><path d="m16,3c0-.55-.45-1-1-1h-6c-.55,0-1,.45-1,1v2.56c.59-.34,1.27-.56,2-.56h4c.73,0,1.41.21,2,.56v-2.56Z"/></svg>