<svg xmlns="http://www.w3.org/2000/svg" width="24" height="24" viewBox="0 0 24 24"><g opacity="0.4"><path d="m3,14h3.88c1.07,0,2.03.59,2.51,1.55.14.28.42.45.72.45h3.76c.31,0,.59-.17.72-.45.48-.96,1.44-1.55,2.51-1.55h3.88v-2H3v2Z"/><path d="m17,3H7c-1.86,0-3.41,1.28-3.86,3h17.72c-.45-1.72-2-3-3.86-3Z"/><path d="M3 8H21V10H3z"/></g><path d="M3 10H21V12H3z"/><path d="M3 6H21V8H3z"/><path d="m14.61,15.55c-.14.28-.42.45-.72.45h-3.76c-.31,0-.59-.17-.72-.45-.48-.96-1.44-1.55-2.51-1.55h-3.88v3c0,2.21,1.79,4,4,4h10c2.21,0,4-1.79,4-4v-3h-3.88c-1.07,0-2.03.59-2.51,1.55Z"/></svg>