<svg xmlns="http://www.w3.org/2000/svg" width="24" height="24" viewBox="0 0 24 24"><g opacity="0.4"><path d="m12,2C6.49,2,2,6.49,2,12s4.49,10,10,10,10-4.49,10-10S17.51,2,12,2Zm-3.5,7c.83,0,1.5.67,1.5,1.5s-.67,1.5-1.5,1.5-1.5-.67-1.5-1.5.67-1.5,1.5-1.5Zm8.47,6.36c-.21.32-.46.62-.73.89-.27.27-.57.52-.88.73-.32.22-.66.4-1.02.55-.37.16-.75.27-1.13.35-.4.08-.8.12-1.21.12s-.81-.04-1.21-.12c-.38-.08-.76-.2-1.13-.35-.36-.15-.7-.34-1.02-.55-.32-.22-.62-.46-.89-.73-.27-.27-.52-.57-.73-.88-.31-.46-.19-1.08.27-1.39.46-.31,1.08-.19,1.39.27.14.21.31.41.49.59.18.18.38.35.59.49.21.14.44.27.68.37.24.1.49.18.75.23.53.11,1.09.11,1.62,0,.25-.05.51-.13.75-.23.24-.1.47-.22.68-.37.21-.14.41-.31.59-.49.18-.18.35-.38.49-.59.31-.46.93-.58,1.39-.27.46.31.58.93.27,1.39Zm.26-3.36h-3.47c-.38,0-.63-.42-.44-.75.34-.57,1-1.25,2.17-1.25s1.83.68,2.17,1.25c.2.33-.05.75-.44.75Z"/></g><path d="M8.5 9A1.5 1.5 0 1 0 8.5 12 1.5 1.5 0 1 0 8.5 9z"/><path d="m17.23,12c.38,0,.63-.42.44-.75-.34-.57-1-1.25-2.17-1.25s-1.83.68-2.17,1.25c-.2.33.05.75.44.75h3.47Z"/><path d="m7.03,15.36c.21.32.46.62.73.88.27.27.57.52.89.73.32.21.66.4,1.02.55.36.15.74.27,1.13.35.4.08.8.12,1.21.12s.81-.04,1.21-.12c.38-.08.76-.2,1.13-.35.36-.15.7-.34,1.02-.55.32-.21.62-.46.88-.73.27-.27.52-.57.73-.89.31-.46.19-1.08-.27-1.39-.46-.31-1.08-.19-1.39.27-.14.21-.31.41-.49.59-.18.18-.38.35-.59.49-.21.14-.44.27-.68.37-.24.1-.5.18-.75.23-.53.11-1.09.11-1.62,0-.25-.05-.51-.13-.75-.23-.24-.1-.47-.23-.68-.37-.21-.14-.41-.31-.59-.49-.18-.18-.35-.38-.49-.59-.31-.46-.93-.58-1.39-.27-.46.31-.58.93-.27,1.39Z"/></svg>