<svg xmlns="http://www.w3.org/2000/svg" width="24" height="24" viewBox="0 0 24 24"><g opacity="0.4"><path d="m17,2H7c-2.21,0-4,1.79-4,4v12c0,2.21,1.79,4,4,4h10c2.21,0,4-1.79,4-4V6c0-2.21-1.79-4-4-4Zm-2,2c.55,0,1,.45,1,1s-.45,1-1,1-1-.45-1-1,.45-1,1-1Zm-3,14c-2.76,0-5-2.24-5-5s2.24-5,5-5,5,2.24,5,5-2.24,5-5,5Zm6-12c-.55,0-1-.45-1-1s.45-1,1-1,1,.45,1,1-.45,1-1,1Z"/></g><path d="M18 4A1 1 0 1 0 18 6 1 1 0 1 0 18 4z"/><path d="M15 4A1 1 0 1 0 15 6 1 1 0 1 0 15 4z"/><path d="m11.9,16.21c.23,0,.45,0,.68-.05,1.05-.2,1.93-.99,2.27-2,.25-.71.2-1.49-.11-2.17-.07-.15-.24-.24-.41-.2-.45.11-.76.34-1.12.6-.59.43-1.32.97-2.69.97-.61,0-1.09-.11-1.49-.27h0c-.06,1.67,1.24,3.06,2.9,3.12Z"/></svg>