<svg xmlns="http://www.w3.org/2000/svg" width="24" height="24" viewBox="0 0 24 24"><g opacity="0.4"><path d="m8.19,16.42c.07-.06.15-.12.22-.18.08-.06.16-.11.23-.17.08-.06.17-.11.25-.16.08-.05.17-.1.25-.15.09-.05.17-.09.25-.13.09-.04.18-.08.27-.12.09-.04.18-.07.27-.11.09-.03.18-.06.28-.09.09-.03.19-.06.29-.08.09-.02.19-.05.29-.07.1-.02.2-.04.3-.05.1-.02.2-.03.3-.04.1-.01.2-.02.31-.02.21-.01.42-.01.62,0,.1,0,.2.01.3.02.1.01.2.02.3.04.1.01.2.03.3.05.1.02.19.04.29.07.09.02.19.05.28.08.09.03.19.06.27.09.09.03.18.07.27.11.09.04.18.08.27.12.09.04.17.09.26.13.08.05.17.09.25.14.08.05.17.1.25.16.08.05.16.11.24.17.08.06.15.11.22.17.19.15.41.23.64.23.29,0,.57-.12.77-.36.35-.43.29-1.06-.13-1.41-.1-.08-.2-.16-.3-.24-.1-.08-.21-.15-.32-.23-.11-.07-.21-.14-.32-.21-.11-.07-.22-.13-.33-.19-.11-.06-.23-.12-.35-.18-.12-.05-.23-.11-.35-.16-.12-.05-.24-.1-.37-.15-.12-.04-.25-.09-.37-.12-.12-.04-.25-.08-.38-.11-.13-.03-.26-.06-.39-.09-.13-.03-.26-.05-.39-.07-.13-.02-.27-.04-.41-.05-.13-.01-.27-.02-.41-.03-.27-.01-.55-.01-.82,0-.14,0-.27.02-.41.03-.13.01-.27.03-.4.05-.13.02-.26.04-.39.07-.13.03-.26.06-.39.09-.13.03-.26.07-.38.11-.13.04-.25.08-.38.13-.12.05-.24.09-.36.14-.12.05-.23.1-.36.16-.12.06-.23.11-.34.18-.11.06-.22.12-.34.19-.11.07-.21.13-.32.21-.11.07-.21.15-.31.22s-.21.16-.3.24c-.42.35-.48.98-.13,1.41.35.42.98.48,1.41.13Z"/><path d="m21.57,8.18c-.21-.15-.42-.3-.63-.45-.21-.14-.43-.28-.65-.41-.22-.13-.44-.26-.67-.38-.23-.12-.46-.24-.69-.35-.23-.11-.47-.22-.71-.32-.24-.1-.48-.2-.73-.29-.25-.09-.49-.17-.74-.25-.25-.08-.5-.15-.76-.22-.26-.07-.51-.13-.77-.18-.26-.05-.52-.1-.79-.14-.26-.04-.53-.07-.8-.1-.27-.03-.54-.05-.81-.06-.54-.03-1.1-.03-1.65,0-.27.01-.54.03-.81.06-.27.03-.54.06-.8.1-.26.04-.53.09-.79.14-.26.05-.52.11-.78.18-.25.07-.51.14-.76.22-.25.08-.5.16-.74.25-.24.09-.49.19-.73.29-.24.1-.47.21-.71.32-.23.11-.47.23-.69.35-.23.12-.45.25-.67.38-.22.13-.44.27-.65.42-.21.14-.42.29-.63.45s-.41.31-.6.48c-.43.35-.48.98-.13,1.41.35.42.98.49,1.41.13.17-.14.35-.28.53-.42s.36-.26.55-.39c.19-.13.38-.25.57-.37.19-.12.39-.23.59-.34.2-.11.4-.21.6-.31.2-.1.41-.19.62-.28.21-.09.42-.17.64-.25.21-.08.43-.15.65-.22.22-.07.44-.13.66-.19.22-.06.45-.11.68-.16.23-.05.46-.09.69-.12.23-.04.46-.06.7-.09.23-.02.47-.04.71-.05.47-.02.96-.02,1.44,0,.24.01.48.03.71.05.24.02.47.05.7.09.23.04.46.08.69.12.23.05.45.1.68.16.22.06.44.12.66.19.22.07.44.14.65.22.21.08.43.16.63.25.21.09.42.18.62.28.2.1.4.2.6.31.2.11.39.22.59.34.19.12.38.24.57.36.19.13.37.26.55.39s.36.27.53.42c.19.15.41.23.64.23.29,0,.57-.12.77-.36.35-.43.29-1.06-.13-1.41-.2-.16-.4-.32-.6-.48Z"/></g><path d="m12,17c-1.1,0-2,.9-2,2,0,1.1.89,2,2,2s2-.9,2-2-.9-2-2-2Z"/><path d="m19.18,11.44c-.15-.11-.31-.23-.47-.34-.16-.11-.32-.21-.49-.31-.17-.1-.33-.2-.5-.29-.17-.09-.34-.18-.52-.27-.17-.08-.35-.17-.53-.24-.18-.08-.36-.15-.55-.22-.18-.07-.37-.13-.56-.19-.19-.06-.38-.11-.57-.16-.19-.05-.39-.09-.58-.13s-.39-.08-.59-.11c-.2-.03-.4-.06-.6-.08-.2-.02-.41-.04-.61-.05-.41-.02-.83-.02-1.23,0-.21,0-.41.03-.61.05-.2.02-.4.05-.6.08-.2.03-.4.07-.59.11s-.39.08-.58.13c-.19.05-.38.1-.57.16-.19.06-.38.12-.56.19-.18.07-.37.14-.54.21-.18.08-.36.16-.53.24-.17.08-.35.17-.52.26-.17.09-.34.19-.51.29-.16.1-.32.2-.49.31-.16.11-.31.22-.46.33-.16.12-.31.23-.46.36-.42.35-.48.98-.13,1.41.35.42.98.49,1.41.13.12-.1.25-.2.38-.3.13-.1.26-.19.39-.28.13-.09.27-.18.41-.26.14-.08.28-.16.42-.24.14-.08.29-.15.43-.22.15-.07.29-.14.45-.2.15-.06.3-.12.45-.18.15-.06.31-.11.46-.16s.31-.09.48-.13c.16-.04.32-.08.48-.11s.33-.06.49-.09c.17-.02.33-.05.5-.06.17-.02.34-.03.51-.04.34-.02.69-.02,1.03,0,.17,0,.34.02.51.04.17.02.33.04.5.06.17.02.33.05.49.09s.32.07.49.11c.16.04.32.09.47.13.16.05.31.1.46.16.15.06.3.11.46.18.15.06.3.13.44.2.14.07.29.14.43.22.14.08.28.16.42.24.14.08.28.17.4.26.13.09.27.18.4.28.13.1.25.19.38.29.19.16.41.23.64.23.29,0,.57-.12.77-.36.35-.43.29-1.06-.13-1.41-.15-.12-.3-.24-.45-.36Z"/></svg>