<svg xmlns="http://www.w3.org/2000/svg" width="24" height="24" viewBox="0 0 24 24"><g opacity="0.4"><rect x="18" y="5" width="2" height="2" rx=".5" ry=".5"/><rect x="14" y="5" width="2" height="2" rx=".5" ry=".5"/><path d="m2,17c0,2.21,1.79,4,4,4h12c2.21,0,4-1.79,4-4v-8H2v8Zm7.21-2h1.79v-3c0-.55.45-1,1-1s1,.45,1,1v3h1.79c.45,0,.67.54.35.85l-2.79,2.79c-.2.2-.51.2-.71,0l-2.79-2.79c-.32-.31-.09-.85.35-.85Z"/></g><path d="m18,3H6c-2.21,0-4,1.79-4,4v2h20v-2c0-2.21-1.79-4-4-4Zm-2,3.5c0,.28-.22.5-.5.5h-1c-.28,0-.5-.22-.5-.5v-1c0-.28.22-.5.5-.5h1c.28,0,.5.22.5.5v1Zm4,0c0,.28-.22.5-.5.5h-1c-.28,0-.5-.22-.5-.5v-1c0-.28.22-.5.5-.5h1c.28,0,.5.22.5.5v1Z"/><path d="m12,11c-.55,0-1,.45-1,1v3h-1.79c-.45,0-.67.54-.35.85l2.79,2.79c.2.2.51.2.71,0l2.79-2.79c.32-.31.09-.85-.35-.85h-1.79v-3c0-.55-.45-1-1-1Z"/></svg>