<svg xmlns="http://www.w3.org/2000/svg" width="24" height="24" viewBox="0 0 24 24"><g opacity="0.4"><path d="m2,17c0,2.21,1.79,4,4,4h12c2.21,0,4-1.79,4-4v-8H2v8Z"/><rect x="18" y="5" width="2" height="2" rx=".5" ry=".5"/><rect x="14" y="5" width="2" height="2" rx=".5" ry=".5"/></g><path d="m18,3H6c-2.21,0-4,1.79-4,4v2h20v-2c0-2.21-1.79-4-4-4Zm-2,3.5c0,.28-.22.5-.5.5h-1c-.28,0-.5-.22-.5-.5v-1c0-.28.22-.5.5-.5h1c.28,0,.5.22.5.5v1Zm4,0c0,.28-.22.5-.5.5h-1c-.28,0-.5-.22-.5-.5v-1c0-.28.22-.5.5-.5h1c.28,0,.5.22.5.5v1Z"/></svg>