<svg xmlns="http://www.w3.org/2000/svg" width="24" height="24" viewBox="0 0 24 24"><g opacity="0.4"><path d="m20,14h-4c-1.1,0-2,.9-2,2v1h-4.19c.36.62.36,1.38,0,2h4.19v1c0,1.1.9,2,2,2h4c1.1,0,2-.9,2-2v-4c0-1.1-.9-2-2-2Z"/><path d="m10,7h4.14c-.08-.32-.14-.65-.14-1s.06-.68.14-1h-4.14v-1c0-1.1-.9-2-2-2h-4c-1.1,0-2,.9-2,2v4c0,1.1.9,2,2,2h1v4.19c.62-.36,1.38-.36,2,0v-4.19h1c1.1,0,2-.9,2-2v-1Z"/></g><path d="m4.59,21.5c.39.39.9.58,1.41.58s1.02-.2,1.41-.58l2.09-2.09c.78-.78.78-2.05,0-2.83l-2.09-2.09c-.78-.78-2.05-.78-2.83,0l-2.09,2.09c-.78.78-.78,2.05,0,2.83l2.09,2.09Z"/><path d="M18 2A4 4 0 1 0 18 10 4 4 0 1 0 18 2z"/></svg>