<svg xmlns="http://www.w3.org/2000/svg" width="24" height="24" viewBox="0 0 24 24"><g opacity="0.4"><path d="m12,17c-1.1,0-2,.9-2,2,0,1.1.89,2,2,2s2-.9,2-2-.9-2-2-2Z"/><path d="m16.78,14.64c-.1-.07-.2-.15-.31-.22-.11-.07-.21-.14-.32-.21-.11-.07-.22-.13-.33-.19-.11-.06-.23-.12-.35-.18-.12-.06-.23-.11-.35-.16-.01,0-.03-.01-.04-.02l2.31,2.31c.13-.38.03-.82-.3-1.1-.1-.08-.2-.16-.31-.24Z"/><path d="m10.5,15.24c.09-.03.19-.05.29-.07.1-.02.19-.04.29-.05.1-.01.2-.03.3-.04.1,0,.2-.02.31-.02.2-.01.4-.01.61,0,.1,0,.2.01.31.02.1,0,.2.02.3.04.1.02.2.03.29.05.1.02.19.04.29.07.09.02.19.05.29.08.06.02.12.04.18.06l-2.32-2.32s-.04,0-.06,0c-.14,0-.27.02-.41.03-.13.01-.27.03-.4.05-.13.02-.27.04-.4.07-.13.03-.26.06-.38.09-.13.03-.26.07-.38.11-.13.04-.25.08-.38.13-.13.04-.25.09-.36.14-.12.05-.24.1-.35.16-.12.06-.23.12-.35.18-.11.06-.22.12-.33.19-.11.07-.22.13-.33.21-.1.07-.21.14-.31.22-.1.08-.2.16-.3.24-.43.35-.49.98-.14,1.41.35.43.98.49,1.41.13.07-.06.15-.12.22-.18.08-.06.16-.12.24-.17.08-.05.16-.11.25-.16.09-.05.17-.1.25-.15.08-.05.17-.09.26-.13.09-.04.18-.08.27-.12.09-.04.18-.07.26-.11.09-.03.18-.06.28-.09.09-.03.19-.06.29-.08Z"/><path d="m19.18,11.43c-.15-.11-.31-.23-.47-.33-.16-.11-.32-.21-.49-.31-.16-.1-.33-.2-.5-.29-.17-.09-.34-.18-.52-.27-.17-.08-.35-.16-.53-.24-.18-.08-.36-.15-.54-.21-.18-.07-.37-.13-.56-.19-.19-.06-.38-.11-.57-.16-.19-.05-.39-.09-.58-.13-.2-.04-.39-.07-.59-.1-.2-.03-.4-.06-.6-.08-.2-.02-.41-.04-.61-.05-.41-.02-.83-.02-1.23,0-.21,0-.41.03-.61.05-.07,0-.15.02-.22.03l1.92,1.92s.03,0,.04,0c.17,0,.34.02.51.04.17.02.33.04.5.06.17.03.33.05.49.09.16.03.32.07.48.11.16.04.32.09.47.13.16.05.31.1.47.16.15.06.3.11.45.18.15.06.3.13.44.2.15.07.29.14.43.22.14.08.28.16.42.24.14.08.27.17.4.26.13.09.27.18.39.28.13.1.25.2.38.3.19.15.41.23.64.23.29,0,.57-.12.77-.36.35-.43.29-1.06-.14-1.41-.15-.12-.3-.24-.45-.36Z"/><path d="m7.24,12.26c.14-.08.28-.15.43-.22.15-.07.29-.14.44-.2.15-.06.3-.12.45-.18.15-.06.31-.11.46-.16.16-.05.31-.09.48-.14.12-.03.24-.06.37-.08l-1.63-1.63c-.12.04-.25.08-.37.12-.18.07-.37.14-.55.22-.18.08-.36.16-.53.24-.18.08-.35.17-.52.27-.17.09-.34.19-.5.29-.17.1-.33.2-.49.31-.16.11-.31.22-.47.33-.15.11-.3.23-.45.36-.43.35-.49.98-.14,1.41.35.43.98.49,1.41.14.12-.1.25-.2.38-.3.13-.1.26-.19.39-.28.13-.09.27-.18.41-.26.14-.08.28-.16.42-.24Z"/><path d="m21.57,8.18c-.21-.15-.42-.3-.63-.45-.21-.14-.43-.28-.65-.42-.22-.13-.44-.26-.67-.39-.23-.12-.46-.24-.69-.35-.23-.11-.47-.22-.71-.32-.24-.1-.48-.2-.73-.29-.24-.09-.49-.17-.74-.25-.25-.08-.5-.15-.76-.22-.26-.07-.51-.13-.77-.18-.26-.05-.52-.1-.79-.14-.27-.04-.53-.07-.8-.1-.27-.03-.54-.05-.81-.06-.55-.03-1.1-.03-1.65,0-.27.01-.54.03-.81.06-.27.03-.54.06-.8.1-.27.04-.53.09-.79.14-.26.05-.52.11-.77.18-.26.07-.51.14-.76.22-.03,0-.05.02-.08.03l1.63,1.63c.13-.03.26-.06.39-.09.23-.05.46-.09.69-.12.23-.04.46-.06.7-.09.24-.02.47-.04.71-.05.48-.02.96-.02,1.44,0,.24.01.48.03.71.05.23.02.47.05.7.09.23.04.46.08.69.12.23.05.45.1.68.16.22.06.45.12.66.19.22.07.44.14.65.22.21.08.43.16.63.25.21.09.42.18.62.28.2.1.4.2.6.31.2.11.39.22.59.34.19.12.38.24.57.36.19.13.37.25.55.39.18.13.36.27.53.42.19.15.41.23.64.23.29,0,.57-.12.77-.36.35-.43.29-1.06-.13-1.41-.2-.16-.4-.32-.6-.47Z"/><path d="m4.74,9.03c.19-.12.39-.23.59-.34.2-.11.4-.21.6-.31.2-.1.41-.19.62-.28.03-.01.06-.02.1-.04l-1.51-1.51s-.05.02-.07.03c-.23.11-.46.23-.69.35-.23.12-.45.25-.67.39-.22.13-.44.27-.65.42-.21.14-.42.29-.63.45-.21.15-.41.31-.6.47-.43.35-.49.98-.13,1.41.35.43.98.49,1.41.13.17-.14.35-.28.53-.42.18-.13.36-.26.55-.39.19-.13.37-.25.57-.36Z"/></g><path d="m20.29,21.71c.2.2.45.29.71.29s.51-.1.71-.29c.39-.39.39-1.02,0-1.41L3.71,2.29c-.39-.39-1.02-.39-1.41,0s-.39,1.02,0,1.41l18,18Z"/></svg>