<svg xmlns="http://www.w3.org/2000/svg" width="24" height="24" viewBox="0 0 24 24"><g opacity="0.4"><path d="M17.96 12 20.04 12 20.61 10 18.53 10 17.96 12z"/><path d="M14.28 10 12.18 10 12.8 12 14.89 12 14.28 10z"/><path d="M5.47 10 3.39 10 3.96 12 6.04 12 5.47 10z"/><path d="M9.11 12 11.2 12 11.82 10 9.72 10 9.11 12z"/><path d="m12.96,5.71c-.13-.42-.52-.71-.96-.71s-.83.29-.96.71l-.71,2.29h3.32l-.71-2.29Z"/><path d="m21,5c-.53-.15-1.08.16-1.24.69l-.66,2.31h1.9c.06,0,.11.02.17.03l.51-1.8c.15-.53-.16-1.08-.69-1.24Z"/><path d="m16.48,17.17l-.98-3.17h-2.09l1.63,5.29c.13.42.52.71.96.71h1c.45,0,.84-.3.96-.73l1.51-5.27h-2.08l-.91,3.17Z"/><path d="m7.52,17.17l-.91-3.17h-2.08l1.51,5.27c.12.43.51.73.96.73h1c.44,0,.83-.29.96-.71l1.63-5.29h-2.09l-.98,3.17Z"/><path d="m4.24,5.69c-.15-.53-.7-.84-1.24-.69-.53.15-.84.71-.69,1.24l.51,1.8c.06-.01.11-.03.17-.03h1.9l-.66-2.31Z"/></g><path d="m21,8H3c-.55,0-1,.45-1,1s.45,1,1,1h18c.55,0,1-.45,1-1s-.45-1-1-1Z"/><path d="m21,12H3c-.55,0-1,.45-1,1s.45,1,1,1h18c.55,0,1-.45,1-1s-.45-1-1-1Z"/></svg>