<svg xmlns="http://www.w3.org/2000/svg" width="24" height="24" viewBox="0 0 24 24"><g opacity="0.4"><path d="m7,21h10c2.21,0,4-1.79,4-4V7c0-2.21-1.79-4-4-4H7c-2.21,0-4,1.79-4,4v10c0,2.21,1.79,4,4,4Zm1.46-11.12c-.39-.39-.39-1.02,0-1.41s1.02-.39,1.41,0l2.12,2.12,2.12-2.12c.39-.39,1.02-.39,1.41,0s.39,1.02,0,1.41l-2.12,2.12,2.12,2.12c.39.39.39,1.02,0,1.41-.2.2-.45.29-.71.29s-.51-.1-.71-.29l-2.12-2.12-2.12,2.12c-.2.2-.45.29-.71.29s-.51-.1-.71-.29c-.39-.39-.39-1.02,0-1.41l2.12-2.12-2.12-2.12Z"/></g><path d="m15.54,8.46c-.39-.39-1.02-.39-1.41,0l-2.12,2.12-2.12-2.12c-.39-.39-1.02-.39-1.41,0s-.39,1.02,0,1.41l2.12,2.12-2.12,2.12c-.39.39-.39,1.02,0,1.41.2.2.45.29.71.29s.51-.1.71-.29l2.12-2.12,2.12,2.12c.2.2.45.29.71.29s.51-.1.71-.29c.39-.39.39-1.02,0-1.41l-2.12-2.12,2.12-2.12c.39-.39.39-1.02,0-1.41Z"/></svg>