<svg xmlns="http://www.w3.org/2000/svg" width="24" height="24" viewBox="0 0 24 24"><g opacity="0.4"><path d="m4.93,19.07c1.95,1.95,4.51,2.92,7.07,2.92s5.12-.98,7.07-2.92c3.9-3.9,3.9-10.24,0-14.14-1.89-1.89-4.4-2.93-7.07-2.93s-5.18,1.04-7.07,2.93c-3.9,3.9-3.9,10.24,0,14.14Zm3.54-9.19c-.39-.39-.39-1.02,0-1.41s1.02-.39,1.41,0l2.12,2.12,2.12-2.12c.39-.39,1.02-.39,1.41,0s.39,1.02,0,1.41l-2.12,2.12,2.12,2.12c.39.39.39,1.02,0,1.41-.2.2-.45.29-.71.29s-.51-.1-.71-.29l-2.12-2.12-2.12,2.12c-.2.2-.45.29-.71.29s-.51-.1-.71-.29c-.39-.39-.39-1.02,0-1.41l2.12-2.12-2.12-2.12Z"/></g><path d="m8.46,15.54c.2.2.45.29.71.29s.51-.1.71-.29l2.12-2.12,2.12,2.12c.2.2.45.29.71.29s.51-.1.71-.29c.39-.39.39-1.02,0-1.41l-2.12-2.12,2.12-2.12c.39-.39.39-1.02,0-1.41s-1.02-.39-1.41,0l-2.12,2.12-2.12-2.12c-.39-.39-1.02-.39-1.41,0s-.39,1.02,0,1.41l2.12,2.12-2.12,2.12c-.39.39-.39,1.02,0,1.41Z"/></svg>