<svg xmlns="http://www.w3.org/2000/svg" width="24" height="24" viewBox="0 0 24 24"><g opacity="0.4"><path d="m18.94,7.72c0-1.15-.18-2.29-.53-3.38-.18-.15-.36-.28-.55-.42-.25,7.59-6.36,13.7-13.95,13.95.14.19.27.37.42.55,1.09.35,2.23.53,3.39.53,6.19,0,11.22-5.03,11.22-11.22Z"/><path d="m4.25,5.68c-.51.62-.94,1.31-1.29,2.05,3.26.81,6.06,2.82,7.9,5.67,1.26-.94,2.33-2.11,3.16-3.46-2.37-2.72-5.76-4.29-9.36-4.29-.14,0-.27.01-.41.02Z"/><path d="m15.89,3.44c0-.23-.02-.45-.03-.67-1.19-.5-2.49-.77-3.85-.77-2.1,0-4.05.65-5.66,1.77,3.29.38,6.33,1.89,8.66,4.28.57-1.43.89-2.98.89-4.6Z"/><path d="m2.29,9.63c-.19.76-.29,1.55-.29,2.37,0,1.36.28,2.66.77,3.85.22.02.44.04.67.04,2.07,0,4.02-.52,5.74-1.41-1.6-2.47-4.05-4.19-6.89-4.84Z"/><path d="m21.9,10.64c-.04-.31-.09-.61-.16-.9-.01-.05-.03-.11-.04-.16-.08-.33-.18-.66-.3-.98,0-.01,0-.02-.01-.03-.13-.35-.28-.69-.44-1.02,0,.06,0,.12,0,.18,0,7.29-5.93,13.22-13.22,13.22-.06,0-.12,0-.18,0,.33.17.67.31,1.02.44.01,0,.02,0,.03.01.32.12.65.21.98.3.05.01.11.03.16.04.3.07.6.12.9.16.08.01.15.03.23.04.37.04.75.07,1.13.07,2.25,0,4.31-.75,5.98-2h0c1.22-.91,2.22-2.09,2.92-3.45,0,0,0-.02.01-.02.16-.31.29-.62.42-.95.03-.07.05-.14.08-.22.1-.27.18-.54.25-.81.03-.1.05-.2.08-.3.06-.26.11-.53.15-.81.01-.1.04-.21.05-.31.04-.37.07-.75.07-1.13s-.03-.76-.07-1.13c0-.08-.02-.15-.04-.23Z"/></g><path d="m7.72,18.94c-1.14,0-2.27-.18-3.36-.52.88,1.05,1.97,1.9,3.21,2.52.05,0,.1,0,.15,0,7.29,0,13.22-5.93,13.22-13.22,0-.05,0-.1,0-.15-.61-1.24-1.47-2.33-2.52-3.21.34,1.09.52,2.21.52,3.36,0,6.19-5.03,11.22-11.22,11.22Z"/><path d="m9.18,14.48c-1.72.9-3.67,1.41-5.74,1.41-.23,0-.45-.02-.67-.04.3.72.7,1.39,1.15,2.02,7.58-.25,13.68-6.36,13.94-13.94-.62-.45-1.29-.85-2.01-1.15.01.22.03.44.03.67,0,1.63-.32,3.18-.89,4.6-2.32-2.38-5.35-3.89-8.63-4.28-.79.54-1.5,1.18-2.1,1.91.13,0,.27-.02.4-.02,3.61,0,6.99,1.56,9.36,4.29-.83,1.34-1.9,2.51-3.16,3.46-1.84-2.85-4.64-4.87-7.89-5.67l-.68,1.9c2.84.65,5.29,2.37,6.89,4.84Z"/><path d="m21,20h-3.02c-1.67,1.25-3.74,2-5.98,2h9c.55,0,1-.45,1-1s-.45-1-1-1Z"/></svg>