<svg xmlns="http://www.w3.org/2000/svg" viewBox="0 0 24 24" width="24" height="24"><path d="m12,3c-2.4,0-4.67.94-6.36,2.64-1.55,1.55-2.48,3.63-2.61,5.83-.02.28.19.51.47.53.27.03.51-.19.53-.47.11-1.96.94-3.81,2.32-5.19,1.51-1.51,3.52-2.34,5.66-2.34s4.15.83,5.66,2.34,2.34,3.52,2.34,5.66-.83,4.15-2.34,5.66c-1.38,1.38-3.22,2.2-5.19,2.32-.28.02-.49.25-.47.53.02.27.24.47.5.47,0,0,.02,0,.03,0,2.21-.13,4.28-1.06,5.83-2.61,1.7-1.7,2.64-3.96,2.64-6.36s-.94-4.67-2.64-6.36-3.96-2.64-6.36-2.64Z"/><path d="m6.15,17.15c-.2.2-.2.51,0,.71.1.1.23.15.35.15s.26-.05.35-.15l4.15-4.15.35-.35,1.79,1.79c.32.32.85.09.85-.35v-4.29c0-.28-.22-.5-.5-.5h-4.29c-.45,0-.67.54-.35.85l1.79,1.79-.35.35-4.15,4.15Z"/></svg>