<svg xmlns="http://www.w3.org/2000/svg" viewBox="0 0 24 24" width="24" height="24"><path d="m13,19.5c0,.28.22.5.5.5h6c.07,0,.13-.01.19-.04.12-.05.22-.15.27-.27.03-.06.04-.13.04-.19v-6c0-.28-.22-.5-.5-.5s-.5.22-.5.5v4.79l-6.65-6.65c-.2-.2-.51-.2-.71,0s-.2.51,0,.71l6.65,6.65h-4.79c-.28,0-.5.22-.5.5Z"/><path d="m20,7.5c0-1.93-1.57-3.5-3.5-3.5H7.5c-1.93,0-3.5,1.57-3.5,3.5v9c0,1.93,1.57,3.5,3.5,3.5h3c.28,0,.5-.22.5-.5s-.22-.5-.5-.5h-3c-1.38,0-2.5-1.12-2.5-2.5V7.5c0-1.38,1.12-2.5,2.5-2.5h9c1.38,0,2.5,1.12,2.5,2.5v3c0,.28.22.5.5.5s.5-.22.5-.5v-3Z"/></svg>