<svg xmlns="http://www.w3.org/2000/svg" width="24" height="24" viewBox="0 0 24 24"><path d="M20.5 7.85c-1.28 0-1.88-.36-2.57-.78-.72-.43-1.53-.92-3.09-.92s-2.37.49-3.09.92c-.7.42-1.3.78-2.58.78s-1.88-.36-2.58-.78c-.72-.43-1.54-.92-3.09-.92-.28 0-.5.22-.5.5s.22.5.5.5c1.28 0 1.88.36 2.58.78.72.43 1.54.92 3.09.92s2.37-.49 3.09-.92c.7-.42 1.3-.78 2.58-.78s1.88.36 2.57.78c.72.43 1.53.92 3.09.92.28 0 .5-.22.5-.5s-.22-.5-.5-.5M20.5 12.35c-1.28 0-1.88-.36-2.57-.78-.72-.43-1.53-.92-3.09-.92s-2.37.49-3.09.92c-.7.42-1.3.78-2.58.78s-1.88-.36-2.58-.78c-.72-.43-1.54-.92-3.09-.92-.28 0-.5.22-.5.5s.22.5.5.5c1.28 0 1.88.36 2.58.78.72.43 1.54.92 3.09.92s2.37-.49 3.09-.92c.7-.42 1.3-.78 2.58-.78s1.88.36 2.57.78c.72.43 1.53.92 3.09.92.28 0 .5-.22.5-.5s-.22-.5-.5-.5M20.5 16.85c-1.28 0-1.88-.36-2.57-.78-.72-.43-1.53-.92-3.09-.92s-2.37.49-3.09.92c-.7.42-1.3.78-2.58.78s-1.88-.36-2.58-.78c-.72-.43-1.54-.92-3.09-.92-.28 0-.5.22-.5.5s.22.5.5.5c1.28 0 1.88.36 2.58.78.72.43 1.54.92 3.09.92s2.37-.49 3.09-.92c.7-.42 1.3-.78 2.58-.78s1.88.36 2.57.78c.72.43 1.53.92 3.09.92.28 0 .5-.22.5-.5s-.22-.5-.5-.5"/></svg>