<svg xmlns="http://www.w3.org/2000/svg" width="24" height="24" viewBox="0 0 24 24"><path d="M18.97 4.48A3.5 3.5 0 0 0 16.11 3H7.88c-1.13 0-2.2.55-2.86 1.48L3.64 6.43C3.22 7.02 3 7.72 3 8.45v9.05C3 19.43 4.57 21 6.5 21h11c1.93 0 3.5-1.57 3.5-3.5V8.45c0-.73-.22-1.43-.64-2.02l-1.38-1.95Zm-4.83 10.38-1.79 1.79c-.2.2-.51.2-.71 0l-1.79-1.79a.496.496 0 0 1 .35-.85h1.29v-2.5c0-.28.22-.5.5-.5s.5.22.5.5v2.5h1.29c.45 0 .67.54.35.85ZM4.47 7l1.38-1.94C6.32 4.4 7.08 4 7.89 4h8.23c.81 0 1.57.39 2.04 1.06L19.54 7z"/></svg>