<svg xmlns="http://www.w3.org/2000/svg" viewBox="0 0 24 24" width="24" height="24"><path d="m4,16.5c0,1.93,1.57,3.5,3.5,3.5h9c1.93,0,3.5-1.57,3.5-3.5V7.5c0-1.93-1.57-3.5-3.5-3.5h-3c-.28,0-.5.22-.5.5s.22.5.5.5h3c1.38,0,2.5,1.12,2.5,2.5v9c0,1.38-1.12,2.5-2.5,2.5H7.5c-1.38,0-2.5-1.12-2.5-2.5v-3c0-.28-.22-.5-.5-.5s-.5.22-.5.5v3Z"/><path d="m8.79,4h-4.29c-.07,0-.13.01-.19.04-.12.05-.22.15-.27.27-.03.06-.04.13-.04.19v4.29c0,.45.54.67.85.35l1.79-1.79,5,5c.1.1.23.15.35.15s.26-.05.35-.15c.2-.2.2-.51,0-.71l-5-5,1.79-1.79c.32-.31.09-.85-.35-.85Z"/></svg>