<svg xmlns="http://www.w3.org/2000/svg" width="24" height="24" viewBox="0 0 24 24"><path d="M18.34 2.65a.504.504 0 0 0-.71 0c-.19.2-.19.51 0 .71l3.01 3a.485.485 0 0 0 .7 0c.19-.2.19-.51 0-.71l-3.01-3ZM3 6.5c.13 0 .26-.05.35-.15l2.99-3c.19-.2.19-.51 0-.71a.513.513 0 0 0-.71 0l-2.99 3c-.19.2-.19.51 0 .71.1.1.23.15.35.15ZM3 13c0 4.88 4.12 9 9 9s9-4.12 9-9-4.12-9-9-9-9 4.12-9 9m8.5-4.5c0-.28.22-.5.5-.5s.5.22.5.5V15c0 .28-.22.5-.5.5s-.5-.22-.5-.5zm0 8.5c0-.28.22-.5.5-.5s.5.22.5.5v.5c0 .28-.22.5-.5.5s-.5-.22-.5-.5z"/></svg>