<svg xmlns="http://www.w3.org/2000/svg" width="24" height="24" viewBox="0 0 24 24"><path d="M12 3c-4.96 0-9 4.04-9 9s4.04 9 9 9c1.32 0 2.66-.33 4-1a.5.5 0 1 0-.44-.9c-1.2.59-2.4.89-3.56.89-4.41 0-8-3.59-8-8S7.59 4 12 4s8 3.59 8 8v.75c0 1.09-.7 2.25-2 2.25-1.8 0-1.99-2.19-2-2.25V8.5c0-.28-.22-.5-.5-.5s-.5.22-.5.5v.88C14.27 8.54 13.2 8 12 8c-2.21 0-4 1.79-4 4s1.79 4 4 4c1.41 0 2.64-.74 3.36-1.84.41.94 1.21 1.84 2.64 1.84 1.88 0 3-1.65 3-3.25V12c0-4.96-4.04-9-9-9m0 12c-1.65 0-3-1.35-3-3s1.35-3 3-3 3 1.35 3 3-1.35 3-3 3"/></svg>