<svg xmlns="http://www.w3.org/2000/svg" viewBox="0 0 24 24" width="24" height="24"><path d="m12.35,11.65c-.2-.2-.51-.2-.71,0l-5,5-1.79-1.79c-.32-.31-.85-.09-.85.35v4.29c0,.07.01.13.04.19.05.12.15.22.27.27.06.03.13.04.19.04h4.29c.45,0,.67-.54.35-.85l-1.79-1.79,5-5c.2-.2.2-.51,0-.71Z"/><path d="m16.5,19h-3c-.28,0-.5.22-.5.5s.22.5.5.5h3c1.93,0,3.5-1.57,3.5-3.5V7.5c0-1.93-1.57-3.5-3.5-3.5H7.5c-1.93,0-3.5,1.57-3.5,3.5v3c0,.28.22.5.5.5s.5-.22.5-.5v-3c0-1.38,1.12-2.5,2.5-2.5h9c1.38,0,2.5,1.12,2.5,2.5v9c0,1.38-1.12,2.5-2.5,2.5Z"/></svg>