<svg xmlns="http://www.w3.org/2000/svg" width="24" height="24" viewBox="0 0 24 24"><path d="M18.34 2.65a.504.504 0 0 0-.71 0c-.19.2-.19.51 0 .71l3.01 3a.485.485 0 0 0 .7 0c.19-.2.19-.51 0-.71l-3.01-3ZM3.35 6.35l2.99-3c.19-.2.19-.51 0-.71a.513.513 0 0 0-.71 0l-2.99 3c-.19.2-.19.51 0 .71a.485.485 0 0 0 .7 0ZM12 4c-4.88 0-9 4.12-9 9s4.12 9 9 9 9-4.12 9-9-4.12-9-9-9m2.5 12h-5a.499.499 0 0 1-.35-.85L13.3 11H9.51c-.28 0-.5-.22-.5-.5s.22-.5.5-.5h5a.499.499 0 0 1 .35.85L10.71 15h3.79c.28 0 .5.22.5.5s-.22.5-.5.5"/></svg>