<svg xmlns="http://www.w3.org/2000/svg" viewBox="0 0 24 24" width="24" height="24"><path d="m18.34,2.65c-.19-.19-.51-.2-.71,0-.19.2-.19.51,0,.71l3.01,3c.1.1.22.15.35.15s.26-.05.35-.15c.19-.2.19-.51,0-.71l-3.01-3Z"/><path d="m19.12,18.41c1.17-1.52,1.88-3.4,1.88-5.41,0-4.88-4.12-9-9-9-2.01,0-3.89.71-5.41,1.88l-1.38-1.38,1.14-1.14c.19-.2.19-.51,0-.71-.2-.19-.51-.2-.71,0l-1.14,1.14-.64-.64c-.2-.2-.51-.2-.71,0s-.2.51,0,.71l17,17c.1.1.23.15.35.15s.26-.05.35-.15c.2-.2.2-.51,0-.71l-1.73-1.73Zm-2.12-5.41c0,.28-.22.5-.5.5h-2.29l-1-1h3.29c.28,0,.5.22.5.5Zm-5.5-4.5c0-.28.22-.5.5-.5s.5.22.5.5v3.29l-1-1v-2.29Z"/><path d="m3,13c0,4.88,4.12,9,9,9,1.81,0,3.51-.57,4.94-1.53L4.53,8.06c-.96,1.43-1.53,3.13-1.53,4.94Z"/></svg>