<svg xmlns="http://www.w3.org/2000/svg" viewBox="0 0 24 24" width="24" height="24"><path d="m3.31,20.96c.06.03.13.04.19.04h6c.28,0,.5-.22.5-.5s-.22-.5-.5-.5h-4.79l7.65-7.65c.2-.2.2-.51,0-.71s-.51-.2-.71,0l-7.65,7.65v-4.79c0-.28-.22-.5-.5-.5s-.5.22-.5.5v6c0,.07.01.13.04.19.05.12.15.22.27.27Z"/><path d="m12,3c-2.4,0-4.67.94-6.36,2.64-1.55,1.55-2.48,3.63-2.61,5.83-.02.28.19.51.47.53.27,0,.51-.19.53-.47.11-1.96.94-3.8,2.32-5.19,1.51-1.51,3.52-2.34,5.66-2.34s4.15.83,5.66,2.34c1.51,1.51,2.34,3.52,2.34,5.66s-.83,4.15-2.34,5.66c-1.38,1.38-3.22,2.2-5.19,2.32-.28.02-.49.25-.47.53.02.27.24.47.5.47,0,0,.02,0,.03,0,2.21-.13,4.28-1.06,5.83-2.61,1.7-1.7,2.64-3.96,2.64-6.36s-.94-4.66-2.64-6.36c-1.7-1.7-3.96-2.64-6.36-2.64Z"/></svg>