<svg xmlns="http://www.w3.org/2000/svg" viewBox="0 0 24 24" width="24" height="24"><path d="m20.5,11.5h-1.52c-.11-1.51-.69-2.93-1.69-4.08l1.08-1.08c.2-.2.2-.51,0-.71s-.51-.2-.71,0l-1.08,1.08c-1.15-.99-2.57-1.58-4.08-1.69v-1.52c0-.28-.22-.5-.5-.5s-.5.22-.5.5v1.52c-1.51.11-2.93.69-4.08,1.69l-1.08-1.08c-.2-.2-.51-.2-.71,0s-.2.51,0,.71l1.08,1.08c-.99,1.15-1.58,2.57-1.69,4.08h-1.52c-.28,0-.5.22-.5.5s.22.5.5.5h1.52c.11,1.51.69,2.93,1.69,4.08l-1.08,1.08c-.2.2-.2.51,0,.71.1.1.23.15.35.15s.26-.05.35-.15l1.08-1.08c1.15.99,2.57,1.58,4.08,1.69v1.52c0,.28.22.5.5.5s.5-.22.5-.5v-1.52c1.51-.11,2.93-.69,4.08-1.69l1.08,1.08c.1.1.23.15.35.15s.26-.05.35-.15c.2-.2.2-.51,0-.71l-1.08-1.08c.99-1.15,1.58-2.57,1.69-4.08h1.52c.28,0,.5-.22.5-.5s-.22-.5-.5-.5Zm-2.52,0h-2.98s-.03,0-.05,0c-.07-.45-.25-.88-.52-1.25.01-.01.03-.01.04-.03l2.11-2.11c.81.96,1.29,2.13,1.39,3.37Zm-2.1-4.08l-2.11,2.11s-.02.03-.03.04c-.37-.26-.8-.42-1.26-.48,0-.03.02-.05.02-.08v-2.98c1.25.1,2.41.59,3.37,1.39Zm-4.37-1.39v2.98s.01.06.02.08c-.45.07-.88.23-1.26.48-.01-.01-.02-.03-.03-.04l-2.11-2.11c.96-.81,2.13-1.29,3.37-1.39Zm-4.08,2.1l2.11,2.11s.03.02.04.03c-.27.37-.44.8-.52,1.25-.02,0-.03,0-.05,0h-2.98c.1-1.25.59-2.42,1.39-3.37Zm-1.39,4.37h2.98s.03,0,.05,0c.08.45.25.88.52,1.25-.01.01-.03.01-.04.03l-2.11,2.11c-.81-.96-1.29-2.13-1.39-3.37Zm2.1,4.08l2.11-2.11s.02-.03.03-.04c.37.26.8.44,1.25.52,0,.02,0,.03,0,.05v2.98c-1.25-.1-2.42-.59-3.37-1.39Zm4.37,1.39v-2.98s0-.03,0-.05c.45-.08.88-.25,1.25-.52.01.01.01.03.03.04l2.11,2.11c-.96.81-2.13,1.29-3.37,1.39Zm4.08-2.1l-2.11-2.11s-.03-.02-.04-.03c.26-.37.44-.8.52-1.25.02,0,.03,0,.05,0h2.98c-.1,1.25-.59,2.42-1.39,3.37Z"/></svg>