<svg xmlns="http://www.w3.org/2000/svg" width="24" height="24" viewBox="0 0 24 24"><path d="M6.5 17c-.28 0-.5.22-.5.5s.22.5.5.5H9v1.5c0 .28.23.5.5.5.24.01.5-.22.5-.5V18h2v1.5c0 .28.22.5.5.5s.5-.22.5-.5V18h.76c1.88 0 3.24-1.26 3.24-3 0-1.21-.78-2.37-1.84-3 .82-.56 1.34-1.55 1.34-2.75 0-1.88-1.26-3.25-3-3.25H13V4.5c0-.28-.22-.5-.5-.5s-.5.22-.5.5V6h-2V4.5c0-.28-.22-.5-.5-.5s-.5.22-.5.5V6H6.5c-.28 0-.5.22-.5.5s.22.5.5.5H8v10zm7-10c1.18 0 2 .93 2 2.25s-.82 2.25-2 2.25H9V7zM9 12.5h4.5c1.24 0 2.5 1.26 2.5 2.5s-.92 2-2.24 2H9z"/></svg>