<svg xmlns="http://www.w3.org/2000/svg" width="24" height="24" viewBox="0 0 24 24"><path d="M16.55 8.84c.11.29.18.6.18.92 0 .1-.02.2-.03.29.88.69 2.86 2.44 3.78 4.9.32-.93.51-1.92.51-2.96 0-1.84-.56-3.55-1.5-4.97l-2.94 1.81ZM14.24 7.26c.69 0 1.32.28 1.77.74l2.89-1.78a8.98 8.98 0 0 0-6.89-3.23c-.13 0-.26.01-.4.02.78.83 1.83 2.24 2.52 4.26.04 0 .08-.01.11-.01M12.46 8.01c.2-.2.43-.36.69-.49-.82-2.36-2.21-3.81-2.82-4.36-2.7.51-4.98 2.22-6.25 4.57 1.55-.56 4.45-1.1 8.38.28M19.85 16.39c-.49-2.51-2.46-4.45-3.49-5.32-.35.56-.9.97-1.56 1.13.18 1.13.67 5.17-.77 8.56 2.5-.58 4.6-2.2 5.82-4.37M11.81 10.34c-.04-.19-.07-.38-.07-.57 0-.31.06-.61.17-.89-4.67-1.56-7.71-.17-8.41.21-.32.92-.49 1.9-.49 2.92 0 2.22.81 4.25 2.15 5.82 2.35-4.13 6.21-7.14 6.66-7.48ZM12.25 11.26c-.88.7-4.35 3.62-6.37 7.32A8.95 8.95 0 0 0 12 21c.28 0 .56-.02.83-.04 1.74-3.37 1.09-7.93.95-8.74-.63-.11-1.17-.47-1.54-.95Z"/></svg>