<svg xmlns="http://www.w3.org/2000/svg" width="24" height="24" viewBox="0 0 24 24"><path d="M21.7 10.67c.25-.11.37-.4.26-.66a.495.495 0 0 0-.66-.26l-2.46 1.05c-.02-.14-.04-.28-.07-.41a.505.505 0 0 0-.5-.39H5.72c-.24 0-.45.16-.5.39-.03.14-.04.28-.07.41L2.69 9.75c-.25-.11-.55 0-.66.26-.11.25 0 .55.26.66l2.73 1.17c-.01.22-.03.43-.03.66 0 .51.04 1.01.11 1.5H2.49c-.28 0-.5.22-.5.5s.22.5.5.5H5.3c.14.54.32 1.05.53 1.53-.07.02-.14.06-.2.12l-1.5 1.5c-.2.2-.2.51 0 .71a.485.485 0 0 0 .7 0l1.45-1.45c1.18 2.01 3.06 3.38 5.2 3.56V13.5c0-.28.22-.5.5-.5s.5.22.5.5v7.47c2.15-.19 4.02-1.55 5.2-3.56l1.45 1.45a.485.485 0 0 0 .7 0c.2-.2.2-.51 0-.71l-1.5-1.5c-.06-.06-.13-.09-.2-.12.22-.48.4-1 .53-1.53h2.81c.28 0 .5-.22.5-.5s-.22-.5-.5-.5h-2.61c.07-.49.11-.99.11-1.5 0-.22-.02-.44-.03-.66l2.72-1.17ZM6.9 6.6s.04.02.05.04c-.39.49-.73 1.04-1.01 1.63-.16.34.08.73.45.73h11.23c.37 0 .61-.39.45-.73a8.6 8.6 0 0 0-1.01-1.63c.02-.01.04-.02.05-.04l1.75-1.75c.2-.2.2-.51 0-.71s-.51-.2-.71 0L16.4 5.89c-1.2-1.19-2.73-1.9-4.39-1.9s-3.19.72-4.39 1.9L5.87 4.14c-.2-.2-.51-.2-.71 0s-.2.51 0 .71L6.91 6.6Z"/></svg>