<svg xmlns="http://www.w3.org/2000/svg" viewBox="0 0 24 24" width="24" height="24"><path d="M12 10.5A1.5 1.5 0 1 0 12 13.5 1.5 1.5 0 1 0 12 10.5z"/><path d="M17 11A1 1 0 1 0 17 13 1 1 0 1 0 17 11z"/><path d="M7 11A1 1 0 1 0 7 13 1 1 0 1 0 7 11z"/><path d="M20.5 11.5A.5.5 0 1 0 20.5 12.5.5.5 0 1 0 20.5 11.5z"/><path d="M3.5 11.5A.5.5 0 1 0 3.5 12.5.5.5 0 1 0 3.5 11.5z"/><path d="M12 16A1 1 0 1 0 12 18 1 1 0 1 0 12 16z"/><path d="M12 6A1 1 0 1 0 12 8 1 1 0 1 0 12 6z"/><path d="M12 20A.5.5 0 1 0 12 21 .5.5 0 1 0 12 20z"/><path d="M12 3A.5.5 0 1 0 12 4 .5.5 0 1 0 12 3z"/><path d="m15,8.25c0-.41.34-.75.75-.75s.75.34.75.75c0,.41-.34.75-.75.75s-.75-.34-.75-.75Z"/><path d="M8.25 15A.75.75 0 1 0 8.25 16.5.75.75 0 1 0 8.25 15z"/><path d="M15.75 15A.75.75 0 1 0 15.75 16.5.75.75 0 1 0 15.75 15z"/><path d="M8.25 7.5A.75.75 0 1 0 8.25 9 .75.75 0 1 0 8.25 7.5z"/><path d="M7.5 4A.5.5 0 1 0 7.5 5 .5.5 0 1 0 7.5 4z"/><path d="M4.5 7A.5.5 0 1 0 4.5 8 .5.5 0 1 0 4.5 7z"/><path d="M19.5 7A.5.5 0 1 0 19.5 8 .5.5 0 1 0 19.5 7z"/><path d="M16.5 4A.5.5 0 1 0 16.5 5 .5.5 0 1 0 16.5 4z"/><path d="M16.5 19A.5.5 0 1 0 16.5 20 .5.5 0 1 0 16.5 19z"/><path d="M19.5 16A.5.5 0 1 0 19.5 17 .5.5 0 1 0 19.5 16z"/><path d="M4.5 16A.5.5 0 1 0 4.5 17 .5.5 0 1 0 4.5 16z"/><path d="M7.5 19A.5.5 0 1 0 7.5 20 .5.5 0 1 0 7.5 19z"/></svg>