<svg xmlns="http://www.w3.org/2000/svg" viewBox="0 0 24 24" width="24" height="24"><rect x="7" y="14" width="2" height="2" rx=".5" ry=".5"/><path d="m16,3h-6.5c-1.38,0-2.5,1.12-2.5,2.5v5.5h-.5c-1.38,0-2.5,1.12-2.5,2.5v5.5c0,1.1.9,2,2,2h11c1.1,0,2-.9,2-2V5.5c0-1.38-1.12-2.5-2.5-2.5h-.5Zm-5,17h-5c-.55,0-1-.45-1-1v-5.5c0-.83.67-1.5,1.5-1.5h3c.83,0,1.5.67,1.5,1.5v6.5Zm1-12.5c0,.28-.22.5-.5.5h-1c-.28,0-.5-.22-.5-.5v-1c0-.28.22-.5.5-.5h1c.28,0,.5.22.5.5v1Zm4,8c0,.28-.22.5-.5.5h-1c-.28,0-.5-.22-.5-.5v-1c0-.28.22-.5.5-.5h1c.28,0,.5.22.5.5v1Zm0-4c0,.28-.22.5-.5.5h-1c-.28,0-.5-.22-.5-.5v-.97c0-.28.22-.5.5-.5h1c.28,0,.5.22.5.5v.97Zm0-4c0,.28-.22.5-.5.5h-1c-.28,0-.5-.22-.5-.5v-1c0-.28.22-.5.5-.5h1c.28,0,.5.22.5.5v1Z"/></svg>