<svg xmlns="http://www.w3.org/2000/svg" viewBox="0 0 24 24" width="24" height="24"><path d="m20.46,7.29l-7.77-4c-.43-.22-.94-.22-1.37,0l-7.77,4c-.33.17-.54.51-.54.89v1.82c0,.55.45,1,1,1h1v6h-1c-.55,0-1,.45-1,1v2c0,.55.45,1,1,1h16c.55,0,1-.45,1-1v-2c0-.55-.45-1-1-1h-1v-6h1c.55,0,1-.45,1-1v-1.82c0-.38-.21-.72-.54-.89Zm-12.21,9.71h-2.25v-6h2.25v6Zm3.25,0h-2.25v-6h2.25v6Zm-1-9.5c0-.83.67-1.5,1.5-1.5s1.5.67,1.5,1.5-.67,1.5-1.5,1.5-1.5-.67-1.5-1.5Zm4.25,9.5h-2.25v-6h2.25v6Zm3.25,0h-2.25v-6h2.25v6Z"/></svg>