<svg xmlns="http://www.w3.org/2000/svg" viewBox="0 0 24 24" width="24" height="24"><path d="m9.55,13.09c-1.01-.51-2.38-.42-3.4.21-.91.56-1.41,1.47-1.41,2.56,0,.26.02.5.04.73.07.97.12,1.5-1.51,2.31-.16.08-.26.24-.28.41-.01.18.07.35.21.45.83.57,2.31,1.24,3.85,1.24,1.1,0,2.24-.34,3.2-1.3.98-.97,1.46-2.51,1.23-3.92-.19-1.2-.89-2.15-1.95-2.68Z"/><path d="m16.53,3.77l-8.04,8.04c.54.05,1.06.16,1.51.39,1.26.63,2.1,1.72,2.42,3.09l7.81-7.81c.5-.5.77-1.15.77-1.85s-.27-1.36-.77-1.85c-.99-.99-2.71-.99-3.71,0Z"/><path d="m3.35,7.04l1.24.58c.31.15.57.4.72.71l.64,1.34c.1.21.31.34.54.34h0c.23,0,.44-.14.54-.35l.57-1.23c.14-.32.4-.57.71-.72l1.35-.65c.21-.1.34-.31.34-.54,0-.23-.12-.44-.33-.54l-1.31-.66c-.29-.14-.52-.38-.67-.67l-.66-1.33c-.2-.41-.87-.41-1.07,0l-.66,1.33c-.14.29-.38.53-.67.67l-1.3.65c-.21.1-.33.31-.33.55,0,.23.14.44.35.53Z"/><path d="m20.76,18.12l-.94-.47c-.21-.1-.37-.27-.48-.48l-.47-.95c-.15-.29-.62-.29-.76,0l-.47.95c-.1.21-.27.38-.48.48l-.93.47c-.15.07-.24.22-.24.39,0,.17.1.31.25.38l.89.41c.22.1.41.28.51.51l.46.95c.07.15.22.24.38.24h0c.17,0,.31-.1.38-.25l.41-.88c.1-.23.28-.41.51-.52l.97-.47c.15-.07.24-.22.24-.38,0-.16-.09-.31-.24-.39Z"/></svg>