<svg xmlns="http://www.w3.org/2000/svg" viewBox="0 0 24 24" width="24" height="24"><path d="m16.5,12c-.17,0-.33-.03-.5-.05v2.55c0,.28-.22.5-.5.5s-.5-.22-.5-.5v-2.78c-.47-.17-.91-.41-1.29-.72l-2.35,2.35c-.1.1-.23.15-.35.15s-.26-.05-.35-.15c-.2-.2-.2-.51,0-.71l2.35-2.35c-.31-.39-.55-.82-.72-1.29h-2.78c-.28,0-.5-.22-.5-.5s.22-.5.5-.5h2.55c-.02-.17-.05-.33-.05-.5v-2c0-.83-.67-1.5-1.5-1.5h-6c-.83,0-1.5.67-1.5,1.5v13.5c0,.55.45,1,1,1s1-.45,1-1h1c0,.55.45,1,1,1s1-.45,1-1h1c0,.55.45,1,1,1s1-.45,1-1h1c0,.55.45,1,1,1s1-.45,1-1h1c0,.55.45,1,1,1s1-.45,1-1h1c0,.55.45,1,1,1s1-.45,1-1v-.28c.59-.35,1-.98,1-1.72v-.5c0-2.48-2.02-4.5-4.5-4.5Z"/></svg>