<svg xmlns="http://www.w3.org/2000/svg" viewBox="0 0 24 24" width="24" height="24"><path d="m19.5,7.75H4.5c-.28,0-.5.22-.5.5s.22.5.5.5h15c.28,0,.5-.22.5-.5s-.22-.5-.5-.5Z"/><path d="m19.5,4H4.5c-.28,0-.5.22-.5.5s.22.5.5.5h15c.28,0,.5-.22.5-.5s-.22-.5-.5-.5Z"/><path d="m19.5,11.5H7.5c-.28,0-.5.22-.5.5s.22.5.5.5h12c.28,0,.5-.22.5-.5s-.22-.5-.5-.5Z"/><path d="m4.5,11.5c-.28,0-.5.22-.5.5v7.5c0,.28.22.5.5.5s.5-.22.5-.5v-7.5c0-.28-.22-.5-.5-.5Z"/><path d="m19.5,15.25H7.5c-.28,0-.5.22-.5.5s.22.5.5.5h12c.28,0,.5-.22.5-.5s-.22-.5-.5-.5Z"/><path d="m19.5,19H7.5c-.28,0-.5.22-.5.5s.22.5.5.5h12c.28,0,.5-.22.5-.5s-.22-.5-.5-.5Z"/></svg>