<svg xmlns="http://www.w3.org/2000/svg" viewBox="0 0 24 24" width="24" height="24"><path d="m20.5,4h-.17c-.67,0-1.29.26-1.77.73l-1.73,1.73-.25-.25c-.78-.78-2.05-.78-2.83,0l-.37.37c-.9-.39-1.92-.58-2.91-.58-3.71.01-6.89,2.77-7.4,6.42-.33,2.38.44,4.7,2.12,6.38,1.42,1.42,3.31,2.19,5.3,2.19.36,0,.72-.02,1.08-.08,3.65-.51,6.41-3.69,6.42-7.4,0-1.03-.19-2.01-.58-2.91l.37-.37c.38-.38.59-.88.59-1.41s-.21-1.04-.59-1.41l-.25-.25,1.73-1.73c.28-.28.67-.44,1.06-.44h.17c.28,0,.5-.22.5-.5s-.22-.5-.5-.5Zm-10,6c-1.93,0-3.5,1.57-3.5,3.5,0,.28-.22.5-.5.5s-.5-.22-.5-.5c0-2.48,2.02-4.5,4.5-4.5.28,0,.5.22.5.5s-.22.5-.5.5Z"/></svg>