<svg xmlns="http://www.w3.org/2000/svg" width="24" height="24" viewBox="0 0 24 24"><path d="M13.5 5h2c.28 0 .5-.22.5-.5s-.22-.5-.5-.5h-2c-.28 0-.5.22-.5.5s.22.5.5.5M10.5 4h-2c-.28 0-.5.22-.5.5s.22.5.5.5h2c.28 0 .5-.22.5-.5s-.22-.5-.5-.5M10.5 19h-2c-.28 0-.5.22-.5.5s.22.5.5.5h2c.28 0 .5-.22.5-.5s-.22-.5-.5-.5M13.5 20h2c.28 0 .5-.22.5-.5s-.22-.5-.5-.5h-2c-.28 0-.5.22-.5.5s.22.5.5.5M11.5 16.5c0 .28.22.5.5.5s.5-.22.5-.5v-2c0-.28-.22-.5-.5-.5s-.5.22-.5.5zM11.5 9.5c0 .28.22.5.5.5s.5-.22.5-.5v-2c0-.28-.22-.5-.5-.5s-.5.22-.5.5zM16.5 11.5h-2c-.28 0-.5.22-.5.5s.22.5.5.5h2c.28 0 .5-.22.5-.5s-.22-.5-.5-.5M7.5 12.5h2c.28 0 .5-.22.5-.5s-.22-.5-.5-.5h-2c-.28 0-.5.22-.5.5s.22.5.5.5M4.5 16c.28 0 .5-.22.5-.5v-2c0-.28-.22-.5-.5-.5s-.5.22-.5.5v2c0 .28.22.5.5.5M4.5 11c.28 0 .5-.22.5-.5v-2c0-.28-.22-.5-.5-.5s-.5.22-.5.5v2c0 .28.22.5.5.5M6 20c.28 0 .5-.22.5-.5S6.28 19 6 19c-.55 0-1-.45-1-1 0-.28-.22-.5-.5-.5s-.5.22-.5.5c0 1.1.9 2 2 2M4.5 6.5c.28 0 .5-.22.5-.5 0-.55.45-1 1-1 .28 0 .5-.22.5-.5S6.28 4 6 4c-1.1 0-2 .9-2 2 0 .28.22.5.5.5M18 4c-.28 0-.5.22-.5.5s.22.5.5.5c.55 0 1 .45 1 1v12c0 .55-.45 1-1 1-.28 0-.5.22-.5.5s.22.5.5.5c1.1 0 2-.9 2-2V6c0-1.1-.9-2-2-2"/></svg>