<svg xmlns="http://www.w3.org/2000/svg" viewBox="0 0 24 24" width="24" height="24"><path d="m19.1,8.87c0-.1.01-.2.01-.29,0-2.07-1.76-3.78-3.84-3.73-.68-1.13-1.93-1.85-3.27-1.85s-2.6.71-3.27,1.85c-2.11-.05-3.84,1.66-3.84,3.73,0,.1,0,.19.01.29-1.15.54-1.9,1.67-1.9,2.94,0,1.8,1.5,3.27,3.33,3.27.23,0,.47-.03.72-.09.16.15.33.27.51.39,0,0,.01.01.02.02,3.81,2.77,3.92,5.07,3.92,5.11,0,.04.01.08.02.11,0,.03,0,.05.02.08.08.18.25.31.46.31.26,0,.46-.19.49-.44,0-.02.01-.03.01-.05,0-.02.1-2.33,3.92-5.11,0,0,0,0,0-.01.18-.12.36-.25.52-.39.25.06.49.09.72.09,1.84,0,3.33-1.47,3.33-3.27,0-1.27-.75-2.4-1.9-2.94Zm-9.28,7.08c.59-.02,1.17-.16,1.68-.44v2.41c-.39-.59-.93-1.26-1.68-1.97Zm2.68,1.97v-2.4c.5.28,1.06.43,1.65.46-.73.7-1.27,1.35-1.65,1.94Z"/></svg>