<svg xmlns="http://www.w3.org/2000/svg" viewBox="0 0 24 24" width="24" height="24"><path d="m18.7,5.81l-.56,1.46c-.5,1.3-1.6,2.3-2.93,2.69l-.46.13c-1.04.3-1.89,1.08-2.28,2.09-.5,1.3-1.6,2.3-2.93,2.69l-.46.13c-1.04.3-1.89,1.08-2.28,2.09l-.69,1.8,1.22,1.06c.28.24.63.37.98.37.12,0,.24-.01.36-.04.47-.12.86-.46,1.04-.92l.14-.37c.35-.92,1.13-1.63,2.08-1.9l.42-.12c1.25-.36,2.27-1.3,2.73-2.51.35-.92,1.13-1.63,2.08-1.9l.42-.12c1.25-.36,2.27-1.3,2.73-2.51l.4-1.04c.23-.59.06-1.26-.42-1.67l-1.6-1.39Z"/><path d="m8.8,14.04l.46-.13c1.04-.3,1.89-1.08,2.28-2.09.5-1.3,1.6-2.3,2.93-2.69l.46-.13c1.04-.3,1.89-1.08,2.28-2.09l.69-1.8-1.22-1.06c-.37-.32-.87-.44-1.35-.32-.47.12-.86.46-1.04.92l-.14.37c-.35.92-1.13,1.63-2.08,1.9l-.42.12c-1.25.36-2.27,1.3-2.73,2.51-.35.92-1.13,1.63-2.08,1.9l-.42.12c-1.25.36-2.27,1.3-2.73,2.51l-.4,1.04c-.23.59-.06,1.26.42,1.67l1.6,1.39.56-1.46c.5-1.3,1.6-2.3,2.93-2.69Z"/></svg>