<svg xmlns="http://www.w3.org/2000/svg" width="24" height="24" viewBox="0 0 24 24"><path d="m12.71 12 1.72 1.72A6.96 6.96 0 0 1 21 12.29c0-.1.01-.19.01-.29 0-2.3-.88-4.4-2.3-5.99L12.72 12ZM20.89 13.31c-.6-.2-1.23-.31-1.89-.31-1.47 0-2.82.54-3.87 1.42l3.57 3.57a9 9 0 0 0 2.2-4.68ZM13 19c0 .66.11 1.3.31 1.89 1.78-.26 3.4-1.05 4.68-2.2l-3.57-3.57A5.96 5.96 0 0 0 13 18.99ZM12 11.29l5.99-5.99A8.93 8.93 0 0 0 12 3c-.1 0-.19.01-.29.01a6.956 6.956 0 0 1-1.43 6.57L12 11.3ZM3 12c0 2.3.88 4.4 2.3 5.99L11.29 12l-1.72-1.72A6.96 6.96 0 0 1 3 11.71c0 .1-.01.19-.01.29ZM3.11 10.69c.6.2 1.23.31 1.89.31 1.47 0 2.82-.54 3.87-1.42L5.3 6.01a9 9 0 0 0-2.2 4.68ZM6.01 18.7A8.93 8.93 0 0 0 12 21c.1 0 .19-.01.29-.01a6.956 6.956 0 0 1 1.43-6.57L12 12.7l-5.99 5.99Z"/><path d="m6.01 5.3 3.57 3.57a5.96 5.96 0 0 0 1.11-5.76c-1.78.26-3.4 1.05-4.68 2.2Z"/></svg>