<svg xmlns="http://www.w3.org/2000/svg" width="24" height="24" viewBox="0 0 24 24"><path d="M7.86 19.23c.09.05.14.13.14.22v.3c0 .69.56 1.25 1.25 1.25h5.5c.69 0 1.25-.56 1.25-1.25v-.3c0-.09.05-.17.14-.22 2.69-1.49 4.49-4.04 4.81-6.82.04-.36-.07-.72-.31-.99s-.58-.42-.93-.42H4.3c-.36 0-.7.15-.93.42-.24.27-.35.63-.31.99.32 2.78 2.12 5.33 4.81 6.82ZM9 9.97c.28 0 .5-.22.5-.5v-.53c0-.52-.1-1.03-.3-1.52-.2-.48-.48-.92-.84-1.29a2.966 2.966 0 0 1-.86-2.11v-.51c0-.28-.22-.5-.5-.5s-.5.22-.5.5v.51c0 .52.1 1.03.3 1.51s.48.92.84 1.29a2.966 2.966 0 0 1 .86 2.11v.53c0 .28.22.5.5.5ZM13 9.97c.28 0 .5-.22.5-.5v-.53c0-.52-.1-1.03-.3-1.52-.2-.48-.48-.92-.84-1.29a2.966 2.966 0 0 1-.86-2.11v-.51c0-.28-.22-.5-.5-.5s-.5.22-.5.5v.51c0 .52.1 1.03.3 1.51s.48.92.84 1.29a2.966 2.966 0 0 1 .86 2.11v.53c0 .28.22.5.5.5ZM17 9.97c.28 0 .5-.22.5-.5v-.53c0-.52-.1-1.03-.3-1.52-.2-.48-.48-.92-.84-1.29a2.966 2.966 0 0 1-.86-2.11v-.51c0-.28-.22-.5-.5-.5s-.5.22-.5.5v.51c0 .52.1 1.03.3 1.51s.48.92.84 1.29a2.966 2.966 0 0 1 .86 2.11v.53c0 .28.22.5.5.5Z"/></svg>