<svg xmlns="http://www.w3.org/2000/svg" width="24" height="24" viewBox="0 0 24 24"><path d="M12 21c1.31 0 2.41-.83 2.82-2H9.18c.41 1.17 1.51 2 2.82 2M17.71 17h.46c1.01 0 1.83-.82 1.83-1.83 0-.57-.27-1.12-.73-1.47l-.87-.65c-.25-.19-.4-.49-.4-.8v-2.01c0-2.72-1.73-5.1-4.13-5.92-.28-.77-1.01-1.31-1.87-1.31s-1.58.54-1.87 1.29a5.9 5.9 0 0 0-2.97 2.17L3.84 3.15c-.2-.2-.51-.2-.71 0s-.2.51 0 .71l17 17a.485.485 0 0 0 .7 0c.2-.2.2-.51 0-.71L17.68 17ZM6.02 9.56c-.01.15-.02.29-.02.44v2.25c0 .31-.15.61-.4.8l-.87.65c-.46.34-.73.89-.73 1.47C4 16.18 4.82 17 5.83 17h7.63z"/></svg>