<svg xmlns="http://www.w3.org/2000/svg" viewBox="0 0 24 24" width="24" height="24"><path d="m18.5,7h-.5v-1.5c0-1.38-1.12-2.5-2.5-2.5h-7c-1.38,0-2.5,1.12-2.5,2.5v1.5h-.5c-1.38,0-2.5,1.12-2.5,2.5v.5h18v-.5c0-1.38-1.12-2.5-2.5-2.5Zm-11.5-1.5c0-.83.67-1.5,1.5-1.5h7c.83,0,1.5.67,1.5,1.5v1.5H7v-1.5Z"/><path d="M16 14A2 2 0 1 0 16 18 2 2 0 1 0 16 14z"/><path d="m3,18.5c0,1.38,1.12,2.5,2.5,2.5h13c1.38,0,2.5-1.12,2.5-2.5v-7.5H3v7.5Zm13-5.5c1.65,0,3,1.35,3,3s-1.35,3-3,3-3-1.35-3-3,1.35-3,3-3Zm-8,0c1.65,0,3,1.35,3,3s-1.35,3-3,3-3-1.35-3-3,1.35-3,3-3Z"/><path d="M8 14A2 2 0 1 0 8 18 2 2 0 1 0 8 14z"/></svg>