<svg xmlns="http://www.w3.org/2000/svg" viewBox="0 0 24 24" width="24" height="24"><path d="m15.97,6.21c-.15-1.79-1.64-3.21-3.47-3.21h-1c-1.83,0-3.32,1.42-3.47,3.21-2.32.65-4.03,2.77-4.03,5.29v7c0,1.38,1.12,2.5,2.5,2.5h11c1.38,0,2.5-1.12,2.5-2.5v-7c0-2.52-1.71-4.65-4.03-5.29Zm-6.92-.21c.23-1.14,1.24-2,2.45-2h1c1.21,0,2.22.86,2.45,2h-5.9Zm6.19,7.08l-1.36,1.36.53,1.72c.14.45-.36.82-.76.56l-1.66-1.1-1.66,1.1c-.39.26-.89-.11-.76-.56l.53-1.72-1.36-1.36c-.3-.3-.11-.82.31-.85l1.65-.14.83-1.68c.18-.37.71-.37.9,0l.83,1.68,1.65.14c.42.04.61.55.31.85Z"/></svg>