<svg xmlns="http://www.w3.org/2000/svg" width="24" height="24" viewBox="0 0 24 24"><path d="M19.47 4.53c-1.78-1.77-4.5-2-6.54-.72-.28.18-.34.56-.1.79l6.57 6.56c.23.23.61.18.79-.1 1.28-2.04 1.06-4.76-.72-6.53M8.27 21c.99 0 1.98-.29 2.84-.85.26-.17.28-.54.06-.76L4.6 12.82a.51.51 0 0 0-.79.1c-1.28 2.04-1.06 4.76.72 6.53A5.29 5.29 0 0 0 8.27 21M11.31 5.21l-6.1 6.09c-.2.2-.2.51 0 .71l6.78 6.77c.2.2.51.2.71 0l6.1-6.09c.2-.2.2-.51 0-.71l-6.78-6.77c-.2-.2-.51-.2-.71 0M9 13c-.55 0-1-.45-1-1s.45-1 1-1 1 .45 1 1-.45 1-1 1m3.01 3c-.55 0-1-.45-1-1s.45-1 1-1 1 .45 1 1-.45 1-1 1m3.01-5.01c.55 0 1 .45 1 1s-.45 1-1 1-1-.45-1-1 .45-1 1-1m-2-2c0 .55-.45 1-1 1s-1-.45-1-1 .45-1 1-1 1 .45 1 1"/></svg>