<svg xmlns="http://www.w3.org/2000/svg" viewBox="0 0 24 24" width="24" height="24"><path d="m8,21h8c1.1,0,2-.9,2-2v-9.5c0-1.38-1.12-2.5-2.5-2.5h-7c-1.38,0-2.5,1.12-2.5,2.5v9.5c0,1.1.9,2,2,2Zm5-10.5c0-.28.22-.5.5-.5h1c.28,0,.5.22.5.5v1c0,.28-.22.5-.5.5h-1c-.28,0-.5-.22-.5-.5v-1Zm0,4c0-.28.22-.5.5-.5h1c.28,0,.5.22.5.5v1c0,.28-.22.5-.5.5h-1c-.28,0-.5-.22-.5-.5v-1Zm-4-4c0-.28.22-.5.5-.5h1c.28,0,.5.22.5.5v1c0,.28-.22.5-.5.5h-1c-.28,0-.5-.22-.5-.5v-1Zm0,4c0-.28.22-.5.5-.5h1c.28,0,.5.22.5.5v1c0,.28-.22.5-.5.5h-1c-.28,0-.5-.22-.5-.5v-1Z"/></svg>