<svg xmlns="http://www.w3.org/2000/svg" width="24" height="24" viewBox="0 0 24 24"><path d="M8.63 11.1c.08-.3.2-.59.35-.85.12-.21.1-.46-.06-.63L5.69 6.39a.497.497 0 0 0-.74.03 8.8 8.8 0 0 0-1.87 4.52c-.03.29.21.55.5.55h4.57c.24 0 .43-.17.49-.4ZM8.98 13.75c-.15-.26-.27-.55-.35-.85a.51.51 0 0 0-.49-.4H3.58c-.3 0-.54.26-.5.55.2 1.69.87 3.24 1.87 4.52.18.23.54.24.74.03l3.23-3.23c.17-.17.18-.42.06-.63ZM10.25 8.98c.26-.15.55-.27.85-.35.23-.06.4-.25.4-.49V3.58c0-.3-.26-.54-.55-.5-1.69.2-3.24.87-4.52 1.87-.23.18-.24.54-.03.74l3.23 3.23c.17.17.42.18.63.06ZM12.5 3.58v4.57c0 .24.17.43.4.49.3.08.59.2.85.35.21.12.46.1.63-.06l3.23-3.23c.21-.21.2-.56-.03-.74a8.8 8.8 0 0 0-4.52-1.87.507.507 0 0 0-.55.5ZM11.1 15.37c-.3-.08-.59-.2-.85-.35a.525.525 0 0 0-.63.06l-3.23 3.23c-.21.21-.2.56.03.74a8.8 8.8 0 0 0 4.52 1.87c.29.03.55-.21.55-.5v-4.57c0-.24-.17-.43-.4-.49ZM15.02 10.25c.15.26.27.55.35.85.06.23.25.4.49.4h4.57c.3 0 .54-.26.5-.55-.2-1.69-.87-3.24-1.87-4.52a.5.5 0 0 0-.74-.03l-3.23 3.23c-.17.17-.18.42-.06.63ZM13.75 15.02c-.26.15-.55.27-.85.35-.23.06-.4.25-.4.49v4.57c0 .3.26.54.55.5 1.69-.2 3.24-.87 4.52-1.87.23-.18.24-.54.03-.74l-3.23-3.23c-.17-.17-.42-.18-.63-.06ZM15.37 12.9c-.08.3-.2.59-.35.85-.12.21-.1.46.06.63l3.23 3.23c.21.21.56.2.74-.03a8.8 8.8 0 0 0 1.87-4.52.507.507 0 0 0-.5-.55h-4.57c-.24 0-.43.17-.49.4Z"/></svg>