<svg xmlns="http://www.w3.org/2000/svg" viewBox="0 0 24 24" width="24" height="24"><path d="m14.45,16.06c-.24-.13-.55-.04-.68.2l-.94,1.76c-.13.24-.04.55.2.68.08.04.16.06.24.06.18,0,.35-.1.44-.26l.94-1.76c.13-.24.04-.55-.2-.68Z"/><path d="m12.56,19.59c-.24-.13-.55-.04-.68.2l-.25.47c-.13.24-.04.55.2.68.08.04.16.06.24.06.18,0,.35-.1.44-.26l.25-.47c.13-.24.04-.55-.2-.68Z"/><path d="m10.17,16.06c-.24-.13-.55-.04-.68.2l-2.14,4c-.13.24-.04.55.2.68.08.04.16.06.24.06.18,0,.35-.1.44-.26l2.14-4c.13-.24.04-.55-.2-.68Z"/><path d="m18.74,16.06c-.24-.13-.55-.04-.68.2l-2.14,4c-.13.24-.04.55.2.68.08.04.16.06.24.06.18,0,.35-.1.44-.26l2.14-4c.13-.24.04-.55-.2-.68Z"/><path d="m5.88,16.06c-.24-.13-.55-.04-.68.2l-.94,1.76c-.13.24-.04.55.2.68.08.04.16.06.24.06.18,0,.35-.1.44-.26l.94-1.76c.13-.24.04-.55-.2-.68Z"/><path d="m3.99,19.59c-.24-.13-.55-.04-.68.2l-.25.47c-.13.24-.04.55.2.68.08.04.16.06.24.06.18,0,.35-.1.44-.26l.25-.47c.13-.24.04-.55-.2-.68Z"/><path d="m18.75,8.65c-.18-3.15-2.74-5.65-5.86-5.65-2.19,0-4.2,1.25-5.2,3.23-.13-.01-.26-.02-.39-.02-2.37,0-4.3,1.97-4.3,4.4s1.93,4.4,4.3,4.4h10.51c1.76,0,3.18-1.46,3.18-3.25,0-1.44-.92-2.69-2.25-3.1Z"/></svg>