<svg xmlns="http://www.w3.org/2000/svg" width="24" height="24" viewBox="0 0 24 24"><path d="M15.64 4c-1.64-.05-3.09.92-3.96 2.31-.86 1.37-.78 2.55-.43 3.61L4.3 16.8a1 1 0 0 0-.3.71v1.5c0 .55.45 1 1 1h1.59c.27 0 .52-.11.71-.29l.56-.56a.5.5 0 0 0 .15-.35v-1.79l.65.65c.2.2.51.2.71 0l.5-.5a.5.5 0 0 0 .15-.35v-1.79l.65.65c.2.2.51.2.71 0l.5-.5a.5.5 0 0 0 .15-.35v-1.79l.64.46c.31.22.61.25.79.06l.68-.76c1.05.34 2.23.42 3.6-.47 1.4-.9 2.37-2.39 2.28-4.05a4.49 4.49 0 0 0-4.35-4.23Zm1.65 5.39c-.15.3-.56.34-.79.1l-1.99-2c-.23-.23-.19-.65.1-.79.75-.37 1.68-.25 2.31.38.62.62.75 1.56.38 2.31Z"/></svg>