<svg xmlns="http://www.w3.org/2000/svg" viewBox="0 0 24 24" width="24" height="24"><path d="m19,7.05v-1.55c0-.28-.22-.5-.5-.5h-3c-.28,0-.5.22-.5.5v1.5h-6v-1.5c0-.28-.22-.5-.5-.5h-3c-.28,0-.5.22-.5.5v1.55c-1.69.25-3,1.69-3,3.45v5c0,1.93,1.57,3.5,3.5,3.5h13c1.93,0,3.5-1.57,3.5-3.5v-5c0-1.76-1.31-3.2-3-3.45Zm-9.5,6.45h-5c-.28,0-.5-.22-.5-.5s.22-.5.5-.5h5c.28,0,.5.22.5.5s-.22.5-.5.5Zm10,0h-2v2c0,.28-.22.5-.5.5s-.5-.22-.5-.5v-2h-2c-.28,0-.5-.22-.5-.5s.22-.5.5-.5h2v-2c0-.28.22-.5.5-.5s.5.22.5.5v2h2c.28,0,.5.22.5.5s-.22.5-.5.5Z"/></svg>