<svg xmlns="http://www.w3.org/2000/svg" viewBox="0 0 24 24" width="24" height="24"><path d="m20.5,6h-1.79l1.65-1.65c.2-.2.2-.51,0-.71s-.51-.2-.71,0l-1.65,1.65v-1.79c0-.28-.22-.5-.5-.5s-.5.22-.5.5v1.99c-.54-.31-1.15-.49-1.78-.49-2.19,0-4.2,1.09-5.39,2.93l-6.03,9.31c-.54.84-.43,1.97.28,2.68.41.41.96.62,1.52.62.4,0,.81-.11,1.16-.34l5.39-3.49c.27-.17.31-.55.08-.77l-1.58-1.58c-.2-.2-.2-.51,0-.71s.51-.2.71,0l1.89,1.89c.17.17.43.19.63.07l1.32-.85c.27-.17.31-.55.08-.77l-2.62-2.62c-.2-.2-.2-.51,0-.71s.51-.2.71,0l2.85,2.85c.18.18.49.2.68.03,1.33-1.21,2.11-2.91,2.11-4.75,0-.63-.18-1.24-.49-1.78h1.99c.28,0,.5-.22.5-.5s-.22-.5-.5-.5Z"/></svg>