<svg xmlns="http://www.w3.org/2000/svg" viewBox="0 0 24 24" width="24" height="24"><path d="m19.41,12.12h0c-.04-.08-.04-.17,0-.25l.65-1.12c.17-.29.21-.63.13-.95-.09-.32-.29-.59-.58-.76l-1.12-.65c-.08-.04-.12-.13-.12-.22v-1.29c0-.69-.56-1.25-1.25-1.25h-1.29c-.09,0-.17-.05-.22-.12l-.65-1.12c-.17-.29-.44-.5-.76-.58-.32-.09-.66-.04-.95.12l-1.12.65c-.08.04-.17.04-.25,0l-1.12-.65c-.29-.17-.63-.21-.95-.12-.32.09-.59.29-.76.58l-.65,1.12c-.04.08-.13.13-.22.13h-1.29c-.69,0-1.25.56-1.25,1.25v1.29c0,.09-.05.17-.12.22l-1.12.65c-.29.17-.5.44-.58.76-.09.32-.04.66.13.95l.65,1.12c.04.08.04.17,0,.25l-.65,1.12c-.17.29-.21.63-.13.95.09.32.29.59.58.76l1.12.65c.08.04.12.13.12.22v1.29c0,.69.56,1.25,1.25,1.25h1.29c.09,0,.17.05.22.12l.65,1.12c.17.29.44.5.76.58.32.09.66.04.95-.13l1.12-.65c.08-.04.17-.04.25,0l1.12.65c.19.11.41.17.62.17.11,0,.22-.01.33-.04.32-.09.59-.29.76-.58l.65-1.12c.04-.08.13-.12.22-.12h1.29c.69,0,1.25-.56,1.25-1.25v-1.29c0-.09.05-.17.12-.22l1.12-.65c.29-.17.5-.44.58-.76.09-.32.04-.66-.12-.95l-.65-1.12Z"/></svg>