<svg xmlns="http://www.w3.org/2000/svg" width="24" height="24" viewBox="0 0 24 24"><path d="M5 7.98v2.23C5.25 11.57 8.05 13 12 13s6.75-1.43 7-2.79V7.98c-1.36 1.21-3.96 2.01-7 2.01s-5.64-.8-7-2.01M5 15.98v1.69C5 19.57 8.01 21 12 21s7-1.43 7-3.33v-1.69c-1.36 1.21-3.96 2.01-7 2.01s-5.64-.8-7-2.01"/><path d="M5 11.98v2.23C5.25 15.57 8.05 17 12 17s6.75-1.43 7-2.79v-2.23c-1.36 1.21-3.96 2.01-7 2.01s-5.64-.8-7-2.01M12 8.99c3.89 0 6.67-1.39 6.99-2.73C18.91 4.4 15.94 3 12 3S5.08 4.4 5.01 6.26C5.33 7.6 8.11 8.99 12 8.99"/></svg>