<svg xmlns="http://www.w3.org/2000/svg" viewBox="0 0 24 24" width="24" height="24"><path d="M12 8A4 4 0 1 0 12 16 4 4 0 1 0 12 8z"/><path d="m4.5,9c.28,0,.5-.22.5-.5v-1c0-1.38,1.12-2.5,2.5-2.5h1c.28,0,.5-.22.5-.5s-.22-.5-.5-.5h-1c-1.93,0-3.5,1.57-3.5,3.5v1c0,.28.22.5.5.5Z"/><path d="m15.5,5h1c1.38,0,2.5,1.12,2.5,2.5v1c0,.28.22.5.5.5s.5-.22.5-.5v-1c0-1.93-1.57-3.5-3.5-3.5h-1c-.28,0-.5.22-.5.5s.22.5.5.5Z"/><path d="m20,15.5c0-.28-.22-.5-.5-.5s-.5.22-.5.5v1c0,1.38-1.12,2.5-2.5,2.5h-1c-.28,0-.5.22-.5.5s.22.5.5.5h1c1.93,0,3.5-1.57,3.5-3.5v-1Z"/><path d="m7.5,20h1c.28,0,.5-.22.5-.5s-.22-.5-.5-.5h-1c-1.38,0-2.5-1.12-2.5-2.5v-1c0-.28-.22-.5-.5-.5s-.5.22-.5.5v1c0,1.93,1.57,3.5,3.5,3.5Z"/></svg>