<svg xmlns="http://www.w3.org/2000/svg" viewBox="0 0 24 24" width="24" height="24"><path d="m17.65,10.5h1.84c.28,0,.5-.22.5-.5s-.22-.5-.5-.5h-1.84c-.93,0-1.81-.36-2.47-1.02l-2.12-2.12c-.58-.58-1.54-.58-2.12,0l-2.59,2.59c-.58.58-.58,1.54,0,2.12l2.12,2.12c.65.65,1.03,1.55,1.03,2.47v2.84c0,.28.22.5.5.5s.5-.22.5-.5v-2.84c0-1.18-.48-2.34-1.32-3.18l-1.47-1.48,3.29-3.29,1.47,1.48c.85.85,1.98,1.32,3.18,1.32Z"/><path d="M15.49 3A1.5 1.5 0 1 0 15.49 6 1.5 1.5 0 1 0 15.49 3z"/><path d="m18,13c-2.21,0-4,1.79-4,4s1.79,4,4,4,4-1.79,4-4-1.79-4-4-4Zm0,7c-1.65,0-3-1.35-3-3s1.35-3,3-3,3,1.35,3,3-1.35,3-3,3Z"/><path d="m10,17c0-2.21-1.79-4-4-4s-4,1.79-4,4,1.79,4,4,4,4-1.79,4-4Zm-7,0c0-1.65,1.35-3,3-3s3,1.35,3,3-1.35,3-3,3-3-1.35-3-3Z"/></svg>