<svg xmlns="http://www.w3.org/2000/svg" viewBox="0 0 24 24" width="24" height="24"><path d="m20.5,3H3.5c-.28,0-.5.22-.5.5s.22.5.5.5h17c.28,0,.5-.22.5-.5s-.22-.5-.5-.5Z"/><path d="m18.5,5H5.5c-.28,0-.5.22-.5.5v13c0,1.38,1.12,2.5,2.5,2.5h9c1.38,0,2.5-1.12,2.5-2.5V5.5c0-.28-.22-.5-.5-.5Zm-7.5,13.25c0,.41-.34.75-.75.75h-1.5c-.41,0-.75-.34-.75-.75v-3.5c0-.41.34-.75.75-.75h1.5c.41,0,.75.34.75.75v3.5Zm5,.25c0,.28-.22.5-.5.5s-.5-.22-.5-.5v-4c0-.28.22-.5.5-.5s.5.22.5.5v4Zm0-7c0,.28-.22.5-.5.5s-.5-.22-.5-.5v-4c0-.28.22-.5.5-.5s.5.22.5.5v4Z"/></svg>