<svg xmlns="http://www.w3.org/2000/svg" viewBox="0 0 24 24" width="24" height="24"><path d="m8.5,3c-.28,0-.5.22-.5.5v1.5h-.5c-1.52,0-2.81.98-3.29,2.34-.11.32.14.66.48.66h14.61c.34,0,.59-.34.48-.66-.48-1.36-1.77-2.34-3.29-2.34h-.5v-1.5c0-.28-.22-.5-.5-.5s-.5.22-.5.5v1.5h-6v-1.5c0-.28-.22-.5-.5-.5Z"/><path d="m19.5,9H4.5c-.28,0-.5.22-.5.5v8c0,1.93,1.57,3.5,3.5,3.5h3.76c.93,0,1.82-.37,2.48-1.03l5.24-5.24c.66-.66,1.02-1.55,1.02-2.47v-2.76c0-.28-.22-.5-.5-.5Zm-1.93,4.43l-5.15,5.15c-.16.16-.43.05-.43-.18v-3.9c0-.83.67-1.5,1.5-1.5h3.9c.22,0,.33.27.18.43Z"/></svg>