<svg xmlns="http://www.w3.org/2000/svg" width="24" height="24" viewBox="0 0 24 24"><path d="M19.04 10h1.46c.28 0 .5-.22.5-.5s-.22-.5-.5-.5H19v-.51c0-1.93-1.57-3.5-3.5-3.5h-.51v-1.5c0-.28-.22-.5-.5-.5s-.5.22-.5.5v1.5H9.97v-1.5c0-.28-.22-.5-.5-.5s-.5.22-.5.5v1.5h-.51c-1.93 0-3.5 1.57-3.5 3.5V9h-1.5c-.28 0-.5.22-.5.5s.22.5.5.5h1.5v4.02h-1.5c-.28 0-.5.22-.5.5s.22.5.5.5h1.5v.51c0 1.93 1.57 3.5 3.5 3.5h.51v1.5c0 .28.22.5.5.5s.5-.22.5-.5v-1.5h4.02v1.5c0 .28.22.5.5.5s.5-.22.5-.5v-1.5h.51c1.93 0 3.5-1.57 3.5-3.5v-.51h1.5c.28 0 .5-.22.5-.5s-.22-.5-.5-.5H19V10zM15 13.5c0 .83-.67 1.5-1.5 1.5h-3c-.83 0-1.5-.67-1.5-1.5v-3c0-.83.67-1.5 1.5-1.5h3c.83 0 1.5.67 1.5 1.5z"/></svg>