<svg xmlns="http://www.w3.org/2000/svg" viewBox="0 0 24 24" width="24" height="24"><path d="m12,13.42c-4.82,0-7.71,1.89-7.83,1.97-.14.09-.22.25-.22.42v3c0,.73.34,1.39.93,1.81.38.27.83.42,1.28.42.24,0,.49-.04.73-.12,3.21-1.09,7.04-1.09,10.24,0,.68.23,1.42.13,2.01-.29.59-.42.93-1.08.93-1.81v-3c0-.17-.08-.32-.22-.42-.12-.08-3.01-1.97-7.83-1.97Z"/><path d="m16.34,5.13c-.43-.24-.91.2-.7.65,1.08,2.38,1.16,5.79,1.15,6.91,0,.22.15.41.37.48,2.01.6,3.16,1.35,3.24,1.4.25.17.43.41.54.67.04-.14.07-.28.07-.43v-1.54c0-3.49-1.88-6.55-4.66-8.14Z"/><path d="m7.22,12.68c0-1.12.07-4.57,1.18-6.96.21-.44-.27-.88-.7-.65-.64.35-1.24.78-1.79,1.29-1.92,1.77-2.9,4.34-2.9,6.95v1.5c0,.15.03.29.07.43.11-.27.29-.51.54-.67.08-.05,1.23-.81,3.24-1.41.21-.06.37-.25.37-.48Z"/><path d="m8.23,12.19c0,.32.28.56.6.5.95-.17,2.01-.27,3.17-.27s2.23.11,3.17.27c.31.05.6-.19.6-.5-.1-3.71-1.07-6.52-2.26-7.84-.15-.07-.35-.17-.53-.25,0-.03.02-.06.02-.09,0-.55-.45-1-1-1s-1,.45-1,1c0,.01,0,.02,0,.04-.08,0-.16,0-.24.02-1.31,1.17-2.43,4.13-2.54,8.13Z"/></svg>