<svg xmlns="http://www.w3.org/2000/svg" viewBox="0 0 24 24" width="24" height="24"><path d="m8.5,3c-.28,0-.5.22-.5.5v1.5h-.5c-1.52,0-2.81.98-3.29,2.34-.11.32.14.66.48.66h14.61c.34,0,.59-.34.48-.66-.48-1.36-1.77-2.34-3.29-2.34h-.5v-1.5c0-.28-.22-.5-.5-.5s-.5.22-.5.5v1.5h-6v-1.5c0-.28-.22-.5-.5-.5Z"/><path d="m19.5,9H4.5c-.28,0-.5.22-.5.5v8c0,1.93,1.57,3.5,3.5,3.5h9c1.93,0,3.5-1.57,3.5-3.5v-8c0-.28-.22-.5-.5-.5Zm-4.21,6.21l-2.62,2.59c-.39.39-1.02.39-1.41,0l-2.62-2.59c-.85-.84-.86-2.17-.04-3.03.85-.89,2.36-.8,3.24.07l.12.12.12-.12c.87-.86,2.38-.95,3.24-.07.83.86.82,2.19-.04,3.03Z"/></svg>