<svg xmlns="http://www.w3.org/2000/svg" viewBox="0 0 24 24" width="24" height="24"><path d="m19.5,15H4.5c-.28,0-.5.22-.5.5v3.5c0,1.1.9,2,2,2h12c1.1,0,2-.9,2-2v-3.5c0-.28-.22-.5-.5-.5Zm-7.5,3c-.55,0-1-.45-1-1s.45-1,1-1,1,.45,1,1-.45,1-1,1Z"/><path d="m4.5,14h6.5c.28,0,.5-.22.5-.5V3.5c0-.28-.22-.5-.5-.5h-5c-1.1,0-2,.9-2,2v8.5c0,.28.22.5.5.5Zm4.5-6c.55,0,1,.45,1,1s-.45,1-1,1-1-.45-1-1,.45-1,1-1Z"/><path d="m18,3h-5c-.28,0-.5.22-.5.5v10c0,.28.22.5.5.5h6.5c.28,0,.5-.22.5-.5V5c0-1.1-.9-2-2-2Zm-3,7c-.55,0-1-.45-1-1s.45-1,1-1,1,.45,1,1-.45,1-1,1Z"/></svg>