<svg xmlns="http://www.w3.org/2000/svg" width="24" height="24" viewBox="0 0 24 24"><path d="M20.5 9c-.28 0-.5.22-.5.5V11h-3V6h.5c.28 0 .5-.22.5-.5v-2c0-.28-.22-.5-.5-.5s-.5.22-.5.5V5h-1.75V3.5c0-.28-.22-.5-.5-.5s-.5.22-.5.5V5H12.5V3.5c0-.28-.22-.5-.5-.5s-.5.22-.5.5V5H9.75V3.5c0-.28-.22-.5-.5-.5s-.5.22-.5.5V5H7V3.5c0-.28-.22-.5-.5-.5s-.5.22-.5.5v2c0 .28.22.5.5.5H7v5H4V9.5c0-.28-.22-.5-.5-.5s-.5.22-.5.5v11c0 .28.22.5.5.5h6c.28 0 .5-.22.5-.5V17c0-1.1.9-2 2-2s2 .9 2 2v3.5c0 .28.22.5.5.5h6c.28 0 .5-.22.5-.5v-11c0-.28-.22-.5-.5-.5M10 10.5c0 .28-.22.5-.5.5h-1c-.28 0-.5-.22-.5-.5v-2c0-.28.22-.5.5-.5h1c.28 0 .5.22.5.5zm6 0c0 .28-.22.5-.5.5h-1c-.28 0-.5-.22-.5-.5v-2c0-.28.22-.5.5-.5h1c.28 0 .5.22.5.5z"/></svg>