<svg xmlns="http://www.w3.org/2000/svg" viewBox="0 0 24 24" width="24" height="24"><path d="m20.99,4.21c0-.45-.54-.67-.85-.36l-1.14,1.14h-4l-1.14-1.14c-.32-.32-.86-.09-.85.36v.79s0,0,0,0v4c0,2.21,1.79,4,4,4s4-1.79,4-4v-4h0v-.79Zm-5.74,4.79c-.41,0-.75-.34-.75-.75s.34-.75.75-.75.75.34.75.75-.34.75-.75.75Zm3.5,0c-.41,0-.75-.34-.75-.75s.34-.75.75-.75.75.34.75.75-.34.75-.75.75Z"/><path d="m12.1,10h-6.52c-.87,0-1.58-.76-1.58-1.69s.71-1.69,1.58-1.69c1.18,0,3.42-.65,3.42-3.12,0-.28-.22-.5-.5-.5s-.5.22-.5.5c0,2.05-2.17,2.12-2.42,2.12-1.42,0-2.58,1.21-2.58,2.69,0,1.3.89,2.38,2.06,2.63l1.28,8.5c.13.89.9,1.55,1.8,1.55h.04c1.01,0,1.82-.82,1.82-1.82v-2.18h5v2.18c0,1.01.82,1.82,1.82,1.82.92,0,1.7-.69,1.81-1.61l.71-6c-.7.38-1.49.61-2.34.61-2.41,0-4.43-1.72-4.9-4Z"/></svg>