<svg xmlns="http://www.w3.org/2000/svg" viewBox="0 0 24 24" width="24" height="24"><path d="m18.94,14.24l-1.47-3.67c-.38-.96-1.29-1.57-2.32-1.57h-6.29c-1.03,0-1.94.62-2.32,1.57l-1.47,3.67c-.63.34-1.06.99-1.06,1.76v1c0,.74.41,1.37,1,1.72v1.78c0,.28.22.5.5.5h1c.28,0,.5-.22.5-.5v-1.5h10v1.5c0,.28.22.5.5.5h1c.28,0,.5-.22.5-.5v-1.78c.59-.35,1-.98,1-1.72v-1c0-.76-.43-1.42-1.06-1.76Zm-12.94,2.26c0-.55.45-1,1-1s1,.45,1,1-.45,1-1,1-1-.45-1-1Zm10,0c0-.55.45-1,1-1s1,.45,1,1-.45,1-1,1-1-.45-1-1Zm-8.54-5.56c.23-.57.78-.94,1.39-.94h6.29c.62,0,1.16.37,1.39.94l1.22,3.06H6.24l1.22-3.06Z"/><path d="m4.89,7.61l.41.93c.12.28.4.46.7.46s.58-.18.7-.46l.41-.93c.1-.22.27-.39.49-.49l.93-.41c.28-.12.46-.4.46-.71s-.18-.58-.46-.71l-.93-.41c-.22-.1-.39-.27-.49-.49l-.42-.94c-.12-.28-.4-.46-.7-.46h0c-.3,0-.57.18-.7.45h0s-.42.91-.42.91c-.09.2-.26.37-.46.46l-.99.48c-.27.13-.44.41-.44.71,0,.3.18.57.46.69l.94.42c.22.1.39.27.49.49Z"/><path d="m13.88,5.68c.2.09.36.25.45.45l.27.61c.07.16.23.26.4.26s.33-.1.4-.26l.27-.61c.09-.2.25-.36.45-.45l.61-.27c.16-.07.26-.23.26-.4s-.1-.33-.26-.4l-.61-.27c-.2-.09-.36-.25-.45-.45l-.27-.62c-.07-.16-.22-.26-.4-.26h0c-.17,0-.33.1-.4.26,0,0,0,0,0,0l-.28.6c-.09.19-.23.34-.42.43l-.66.32c-.16.08-.25.23-.25.41,0,.17.1.33.26.4l.62.28Z"/><path d="m20.74,6.6l-.61-.27c-.2-.09-.36-.25-.45-.45l-.27-.62c-.07-.16-.22-.26-.4-.26h0c-.17,0-.33.1-.4.26,0,0,0,0,0,0l-.28.6c-.09.19-.23.34-.42.43l-.66.32c-.16.08-.25.23-.25.41,0,.17.1.33.26.4l.62.28c.2.09.36.25.45.45l.27.61c.07.16.23.26.4.26s.33-.1.4-.26l.27-.61c.09-.2.25-.36.45-.45l.61-.27c.16-.07.26-.23.26-.4s-.1-.33-.26-.4Z"/></svg>