<svg xmlns="http://www.w3.org/2000/svg" width="24" height="24" viewBox="0 0 24 24"><path d="M15.75 3.27a1.95 1.95 0 0 0-1.77.17L3.24 10.07s-.01.02-.02.02c-.08.06-.14.13-.18.22v.02c-.02.05-.03.11-.03.16v7.5c0 1.1.9 2 2 2h14c1.1 0 2-.9 2-2v-7.5c0-4.7-3.67-6.62-5.25-7.23ZM6.5 18c-.83 0-1.5-.67-1.5-1.5S5.67 15 6.5 15s1.5.67 1.5 1.5S7.33 18 6.5 18m5-3c-.83 0-1.5-.67-1.5-1.5s.67-1.5 1.5-1.5 1.5.67 1.5 1.5-.67 1.5-1.5 1.5m5.5 3c-1.1 0-2-.9-2-2s.9-2 2-2 2 .9 2 2-.9 2-2 2M5.26 10l9.24-5.71c.27-.17.59-.2.88-.08 1.33.51 4.34 2.07 4.59 5.79z"/></svg>