<svg xmlns="http://www.w3.org/2000/svg" viewBox="0 0 24 24" width="24" height="24"><path d="m12,7c-3.86,0-7,3.14-7,7s3.14,7,7,7,7-3.14,7-7c0-3.37-2.39-6.18-5.56-6.85,1.14-1.88,3.2-3.15,5.56-3.15.28,0,.5-.22.5-.5s-.22-.5-.5-.5c-1.4,0-2.71.39-3.83,1.06-.67-.44-1.87-1.06-3.42-1.06s-2.81.65-3.47,1.09c-.29.19-.29.62,0,.82.66.44,1.89,1.09,3.47,1.09.51,0,.97-.08,1.4-.18-.3.37-.56.77-.79,1.2-.12,0-.24-.02-.36-.02Zm4,7c0-.28.22-.5.5-.5s.5.22.5.5c0,2.76-2.24,5-5,5-.28,0-.5-.22-.5-.5s.22-.5.5-.5c2.21,0,4-1.79,4-4Z"/></svg>