<svg xmlns="http://www.w3.org/2000/svg" viewBox="0 0 24 24" width="24" height="24"><path d="m11.31,10.35c.39.36.99.36,1.37,0l3.2-3.02c.38-.46.61-1.03.61-1.67,0-1.47-1.21-2.67-2.7-2.67-.69,0-1.32.27-1.8.69-.48-.43-1.11-.69-1.8-.69-1.49,0-2.7,1.19-2.7,2.67,0,.64.24,1.21.61,1.67l3.2,3.02Z"/><path d="m12.69,13.65c-.39-.36-.99-.36-1.37,0l-3.2,3.02c-.38.46-.61,1.03-.61,1.67,0,1.47,1.21,2.67,2.7,2.67.69,0,1.32-.27,1.8-.69.48.43,1.11.69,1.8.69,1.49,0,2.7-1.19,2.7-2.67,0-.64-.24-1.21-.61-1.67l-3.2-3.02Z"/><path d="m18.33,7.5c-.64,0-1.21.24-1.67.61l-3.02,3.2c-.36.39-.36.99,0,1.37l3.02,3.2c.46.38,1.03.61,1.67.61,1.47,0,2.67-1.21,2.67-2.7,0-.69-.27-1.32-.69-1.8.43-.48.69-1.11.69-1.8,0-1.49-1.19-2.7-2.67-2.7Z"/><path d="m10.35,11.31l-3.02-3.2c-.46-.38-1.03-.61-1.67-.61-1.47,0-2.67,1.21-2.67,2.7,0,.69.27,1.32.69,1.8-.43.48-.69,1.11-.69,1.8,0,1.49,1.19,2.7,2.67,2.7.64,0,1.21-.24,1.67-.61l3.02-3.2c.36-.39.36-.99,0-1.37Z"/></svg>