<svg xmlns="http://www.w3.org/2000/svg" width="24" height="24" viewBox="0 0 24 24"><path d="M18.5 3h-7A2.5 2.5 0 0 0 9 5.5v7a2.5 2.5 0 0 0 2.5 2.5h7a2.5 2.5 0 0 0 2.5-2.5v-7A2.5 2.5 0 0 0 18.5 3m-1.38 7.41.23.23c.2.2.2.51 0 .71a.485.485 0 0 1-.7 0l-.23-.23-1.41-1.41-1.41 1.41-.23.23a.485.485 0 0 1-.7 0c-.2-.2-.2-.51 0-.71l.23-.23L14.31 9 12.9 7.59l-.23-.23c-.2-.2-.2-.51 0-.71s.51-.2.71 0l.23.23 1.41 1.41 1.41-1.41.23-.23c.2-.2.51-.2.71 0s.2.51 0 .71l-.23.23L15.73 9l1.41 1.41Z"/><path d="M5.5 21h7a2.5 2.5 0 0 0 2.5-2.5v-1c0-.28-.22-.5-.5-.5H10c-1.66 0-3-1.34-3-3V9.5c0-.28-.22-.5-.5-.5h-1A2.5 2.5 0 0 0 3 11.5v7A2.5 2.5 0 0 0 5.5 21"/></svg>