<svg xmlns="http://www.w3.org/2000/svg" viewBox="0 0 24 24" width="24" height="24"><path d="m16.75,16H3.5c-.28,0-.5.22-.5.5v2c0,.28.22.5.5.5h13.25c.14,0,.25-.11.25-.25v-2.5c0-.14-.11-.25-.25-.25Z"/><path d="m20.5,16h-2.25c-.14,0-.25.11-.25.25v2.5c0,.14.11.25.25.25h2.25c.28,0,.5-.22.5-.5v-2c0-.28-.22-.5-.5-.5Z"/><path d="m16.03,7.5c-.01-.55-.15-1.38-.75-2.11-.77-.92-2.04-1.39-3.78-1.39-.28,0-.5.22-.5.5s.22.5.5.5c1.42,0,2.43.34,3,1.02.68.81.51,1.88.51,1.89-.03.15.02.31.12.43.11.12.25.18.42.16.01,0,1.77-.15,3.05,1.01.93.85,1.4,2.19,1.4,3.99,0,.28.22.5.5.5s.5-.22.5-.5c0-2.1-.58-3.7-1.74-4.74-1.12-1.01-2.48-1.23-3.23-1.26Z"/><path d="m17.12,11.73c-.64-.41-1.51-.44-2.33-.08-1.43.64-2.87.6-3.95-.1-1.19-.77-1.84-2.31-1.84-4.33v-2.73c0-.28-.22-.5-.5-.5s-.5.22-.5.5v2.73c0,2.37.82,4.2,2.3,5.16,1.37.89,3.15.95,4.9.18.51-.22,1.03-.22,1.38,0,.28.18.42.5.42.93,0,.28.22.5.5.5s.5-.22.5-.5c0-.77-.31-1.4-.88-1.77Z"/></svg>