<svg xmlns="http://www.w3.org/2000/svg" viewBox="0 0 24 24" width="24" height="24"><path d="m19.5,15c0-1.01-.2-1.99-.59-2.92-.38-.89-.92-1.69-1.61-2.38-.67-.67-1.45-1.2-2.32-1.57,0-.04.01-.08.01-.12,0-1.65-1.35-3-3-3s-3,1.35-3,3c0,.04.01.08.01.12-.86.38-1.64.9-2.32,1.57-.69.69-1.23,1.49-1.61,2.38-.39.93-.59,1.91-.59,2.92-.83,0-1.5.67-1.5,1.5v1c0,.83.67,1.5,1.5,1.5h1c.83,0,1.5-.67,1.5-1.5v-1c0-.83-.67-1.5-1.5-1.5,0-.88.17-1.73.51-2.53.33-.77.8-1.47,1.39-2.07.53-.53,1.15-.94,1.82-1.26.45,1.09,1.52,1.86,2.77,1.86s2.32-.77,2.77-1.86c.67.32,1.29.73,1.82,1.26.6.6,1.07,1.29,1.39,2.07.34.8.51,1.65.51,2.53-.83,0-1.5.67-1.5,1.5v1c0,.83.67,1.5,1.5,1.5h1c.83,0,1.5-.67,1.5-1.5v-1c0-.83-.67-1.5-1.5-1.5Zm-7.5-5c-1.1,0-2-.9-2-2s.9-2,2-2,2,.9,2,2-.9,2-2,2Z"/></svg>