<svg xmlns="http://www.w3.org/2000/svg" width="24" height="24" viewBox="0 0 24 24"><path d="M9.29 8.59c.44-.58.71-1.3.71-2.09C10 4.57 8.43 3 6.5 3S3 4.57 3 6.5 4.57 10 6.5 10c.78 0 1.5-.27 2.09-.71L11.3 12l-2.71 2.71c-.58-.44-1.3-.71-2.09-.71C4.57 14 3 15.57 3 17.5S4.57 21 6.5 21s3.5-1.57 3.5-3.5c0-.78-.27-1.5-.71-2.09L12 12.7l7.15 7.15a.485.485 0 0 0 .7 0c.2-.2.2-.51 0-.71L9.29 8.58ZM6.5 19.5c-1.1 0-2-.9-2-2s.9-2 2-2 2 .9 2 2-.9 2-2 2m0-11c-1.1 0-2-.9-2-2s.9-2 2-2 2 .9 2 2-.9 2-2 2"/><path d="m19.15 4.15-5.5 5.5c-.2.2-.2.51 0 .71a.485.485 0 0 0 .7 0l5.5-5.5c.2-.2.2-.51 0-.71s-.51-.2-.71 0Z"/></svg>