<svg xmlns="http://www.w3.org/2000/svg" viewBox="0 0 24 24" width="24" height="24"><path d="m21.01,4.32l-.38-.22c-.45-.34-1.03-.47-1.58-.36-.55.11-1.04.45-1.33.93l-2,3.33h-4.72c0-1.07-.42-2.07-1.17-2.83-.75-.76-1.76-1.17-2.83-1.17s-2.07.42-2.83,1.17c-.76.75-1.17,1.76-1.17,2.83s.42,2.07,1.17,2.83c.75.76,1.76,1.17,2.83,1.17h.29c.82,2.73,3.26,4.77,6.21,4.97v3.03h-2c-.28,0-.5.22-.5.5s.22.5.5.5h5c.28,0,.5-.22.5-.5s-.22-.5-.5-.5h-2v-3.03c3.63-.26,6.5-3.28,6.5-6.97v-1.5c0-.28-.22-.5-.5-.5h-3.62l1.69-2.82c.15-.25.38-.41.67-.47.28-.06.56,0,.83.21l.42.25c.23.14.54.07.69-.17.14-.24.07-.54-.17-.69Zm-11.12,2.91c-.04-.13-.07-.27-.12-.39.05.13.09.26.12.39Zm.11.77c0-.21-.02-.41-.06-.6.04.2.06.4.06.6Zm-.51-1.67c.06.09.11.2.16.3-.05-.1-.1-.21-.16-.3Zm-5.26.51c-.05.13-.09.26-.12.39.04-.13.07-.27.12-.39Zm.28-.51c-.06.09-.11.2-.16.3.05-.1.1-.2.16-.3Zm-.45,1.07c-.04.19-.06.39-.06.6s.02.41.06.6c-.04-.2-.06-.4-.06-.6s.02-.4.06-.6Zm.05,1.37c.04.13.07.27.12.39-.05-.13-.09-.26-.12-.39Zm.23.6c.05.1.1.21.17.31-.07-.1-.11-.2-.17-.31Zm.54.76s.01,0,.01.01c0,0-.01,0-.01-.01h0Zm2.12.88c-.2,0-.4-.02-.6-.06.19.04.39.06.6.06.03,0,.05,0,.08,0,0,0,0,0,0,0h-.08Zm-1.67-.51c.11.07.23.13.35.19-.12-.06-.24-.12-.35-.19Zm.51.28c.13.06.28.09.42.13-.14-.04-.28-.07-.42-.13Zm14.16-.77c0,.44-.05.87-.14,1.29-2.06-.61-4.32-.33-6.12.78-1.47.91-3.29,1.19-5.02.76-.45-.84-.71-1.81-.71-2.83v-1h12v1Z"/></svg>