<svg xmlns="http://www.w3.org/2000/svg" width="24" height="24" viewBox="0 0 24 24"><path d="M17.5 6h-.77l-1.9-2.28c-.38-.46-.94-.72-1.54-.72h-2.6a2 2 0 0 0-1.54.72L7.25 6h-.77c-1.93 0-3.5 1.57-3.5 3.5v6c0 1.93 1.57 3.5 3.5 3.5h11c1.93 0 3.5-1.57 3.5-3.5v-6c0-1.93-1.57-3.5-3.5-3.5Zm-1.82 7.55c-.2.47-.49.9-.86 1.27s-.8.66-1.27.86a3.9 3.9 0 0 1-3.1 0c-.47-.2-.9-.5-1.27-.86l-.76.76a.25.25 0 0 1-.43-.18v-2.15c0-.14.11-.25.25-.25h2.15c.22 0 .33.27.18.43l-.68.68c.28.28.6.5.96.65.73.32 1.56.32 2.3 0 .36-.15.68-.37.96-.65s.5-.6.65-.96c.11-.25.41-.37.66-.26s.37.4.26.66m.32-2.8c0 .14-.11.25-.25.25H13.6c-.22 0-.33-.27-.18-.43l.68-.68c-.28-.28-.6-.5-.96-.65-.73-.32-1.56-.32-2.3 0-.36.15-.68.37-.96.65s-.5.6-.65.96a.5.5 0 0 1-.66.26.503.503 0 0 1-.26-.66c.2-.47.49-.9.86-1.27s.8-.66 1.27-.86c.99-.43 2.1-.43 3.09 0 .47.2.9.5 1.27.86l.76-.76a.25.25 0 0 1 .43.18v2.15Z"/></svg>