<svg xmlns="http://www.w3.org/2000/svg" width="24" height="24" viewBox="0 0 24 24"><path d="M7.9 16.1a.485.485 0 0 0 .7 0c.2-.2.2-.51 0-.71l-3.4-3.4 3.4-3.4c.2-.2.2-.51 0-.71s-.51-.2-.71 0l-3.75 3.75c-.2.2-.2.51 0 .71l3.75 3.75ZM15.4 7.9c-.2.2-.2.51 0 .71l3.4 3.4-3.4 3.4c-.2.2-.2.51 0 .71a.485.485 0 0 0 .7 0l3.75-3.75c.2-.2.2-.51 0-.71L16.1 7.91c-.2-.2-.51-.2-.71 0ZM14 4.02c-.27-.07-.54.1-.61.36l-3.75 15c-.07.27.1.54.36.61.04.01.08.02.12.02.22 0 .43-.15.49-.38l3.75-15c.07-.27-.1-.54-.36-.61"/></svg>