<svg xmlns="http://www.w3.org/2000/svg" viewBox="0 0 24 24" width="24" height="24"><path d="m19,10h-.27c.17-.29.27-.64.27-1,0-1.1-.9-2-2-2h-.27c.17-.29.27-.64.27-1,0-1.1-.9-2-2-2h-2.02c-.85,0-1.75-.3-2.61-.86l-.32-.21-1.33.59c-1.04.46-1.71,1.42-1.72,2.48,0,.36.1.71.27,1h-.27c-1.1,0-2,.9-2,2,0,.36.1.71.27,1h-.27c-1.1,0-2,.9-2,2,0,.97.69,1.78,1.61,1.96l1.49,5.23c.3,1.07,1.29,1.81,2.4,1.81h6.98c1.11,0,2.1-.75,2.4-1.81l1.49-5.23c.92-.18,1.61-.99,1.61-1.96,0-1.1-.9-2-2-2Zm-15,2c0-.55.45-1,1-1h6.5c.28,0,.5-.22.5-.5s-.22-.5-.5-.5h-4.5c-.55,0-1-.45-1-1s.45-1,1-1h2.5c.28,0,.5-.22.5-.5s-.22-.5-.5-.5h-.5c-.55,0-1-.45-1-1.02,0-.64.45-1.25,1.12-1.55l.83-.37c.98.61,2.02.93,3.04.93h.5c.55,0,1,.45,1,1s-.45,1-1,1c-.28,0-.5.22-.5.5s.22.5.5.5h2c.55,0,1,.45,1,1s-.45,1-1,1c-.28,0-.5.22-.5.5s.22.5.5.5h1.5c.55,0,1,.45,1,1s-.45,1-1,1H5c-.55,0-1-.45-1-1Z"/></svg>