<svg xmlns="http://www.w3.org/2000/svg" width="24" height="24" viewBox="0 0 24 24"><path d="M8.5 5.5h7c.28 0 .5-.22.5-.5V4h-.08c-.19-.59-.68-1-1.29-1H9.38c-.61 0-1.11.41-1.29 1h-.08v1c0 .28.22.5.5.5Z"/><path d="M17 4.05V5c0 .83-.67 1.5-1.5 1.5h-7C7.67 6.5 7 5.83 7 5v-.95C5.31 4.3 4 5.74 4 7.5v10C4 19.43 5.57 21 7.5 21h9c1.93 0 3.5-1.57 3.5-3.5v-10c0-1.76-1.31-3.2-3-3.45m-1.15 7.3-4.5 4.5a.485.485 0 0 1-.7 0l-2.5-2.5c-.2-.2-.2-.51 0-.71s.51-.2.71 0l2.15 2.15 4.15-4.15c.2-.2.51-.2.71 0s.2.51 0 .71Z"/></svg>