<svg xmlns="http://www.w3.org/2000/svg" viewBox="0 0 24 24" width="24" height="24"><path d="m15.17,5.19c-.59-.77-1.65-1-2.52-.55l-.81.42c-.39-1.2-1.52-2.07-2.84-2.07-1.65,0-3,1.35-3,3,0,.67.22,1.3.61,1.81l-2.54,1.33c-.52.28-.88.76-1,1.32l-.06.04h.05c-.03.14-.05.27-.05.41v5.33c0,.97.69,1.8,1.65,1.97l14,2.47c.12.02.23.03.34.03.47,0,.92-.16,1.29-.47.45-.38.71-.94.71-1.53v-5.2c0-.44-.15-.87-.41-1.21l-5.42-7.1Zm-6.17-1.19c1.04,0,1.92.81,2,1.9,0,.03,0,.07,0,.1,0,1.1-.9,2-2,2-.45,0-.9-.16-1.26-.45-.47-.37-.74-.94-.74-1.55,0-1.1.9-2,2-2Zm10.64,15.48c-.23.19-.52.27-.82.22l-14-2.47c-.48-.09-.83-.5-.83-.99v-5.07l16,2.67v2.57l-13.92-2.4c-.27-.05-.53.14-.58.41s.14.53.41.58l14.08,2.43v1.29c0,.3-.13.58-.36.77Z"/></svg>