<svg xmlns="http://www.w3.org/2000/svg" viewBox="0 0 24 24" width="24" height="24"><path d="m18.5,17h-8c-.28,0-.5.22-.5.5s.22.5.5.5h8c.28,0,.5-.22.5-.5s-.22-.5-.5-.5Z"/><path d="m16.5,20H7.5c-.28,0-.5.22-.5.5s.22.5.5.5h9c.28,0,.5-.22.5-.5s-.22-.5-.5-.5Z"/><path d="m8,17.5c0-.28-.22-.5-.5-.5h-2c-.28,0-.5.22-.5.5s.22.5.5.5h2c.28,0,.5-.22.5-.5Z"/><path d="m18.75,8.65c-.18-3.15-2.74-5.65-5.86-5.65-2.19,0-4.2,1.26-5.2,3.23-.13-.01-.26-.02-.39-.02-2.37,0-4.3,1.97-4.3,4.4s1.93,4.4,4.3,4.4h10.51c1.76,0,3.18-1.46,3.18-3.25,0-1.44-.92-2.69-2.25-3.1Z"/></svg>