<svg xmlns="http://www.w3.org/2000/svg" viewBox="0 0 24 24" width="24" height="24"><path class="b" d="m19.5,16h-4.5v-1h2.5c1.38,0,2.5-1.12,2.5-2.5v-7c0-1.38-1.12-2.5-2.5-2.5H6.5c-1.38,0-2.5,1.12-2.5,2.5v7c0,1.38,1.12,2.5,2.5,2.5h2.5v1h-4.5c-.83,0-1.5.67-1.5,1.5v2c0,.83.67,1.5,1.5,1.5h15c.83,0,1.5-.67,1.5-1.5v-2c0-.83-.67-1.5-1.5-1.5Zm-13-2c-.83,0-1.5-.67-1.5-1.5v-7c0-.83.67-1.5,1.5-1.5h11c.83,0,1.5.67,1.5,1.5v7c0,.83-.67,1.5-1.5,1.5H6.5Zm8,5H5.5c-.28,0-.5-.22-.5-.5s.22-.5.5-.5h9c.28,0,.5.22.5.5s-.22.5-.5.5Zm3.5.5c-.55,0-1-.45-1-1s.45-1,1-1,1,.45,1,1-.45,1-1,1Z"/></svg>