<svg xmlns="http://www.w3.org/2000/svg" viewBox="0 0 24 24" width="24" height="24"><path d="m4.69,8h14.61c.34,0,.59-.34.48-.66-.48-1.36-1.77-2.34-3.29-2.34h-.5v-1.5c0-.28-.22-.5-.5-.5s-.5.22-.5.5v1.5h-6v-1.5c0-.28-.22-.5-.5-.5s-.5.22-.5.5v1.5h-.5c-1.52,0-2.81.98-3.29,2.34-.11.32.14.66.48.66Z"/><path d="m19.5,9H4.5c-.28,0-.5.22-.5.5v8c0,1.93,1.57,3.5,3.5,3.5h9c1.93,0,3.5-1.57,3.5-3.5v-8c0-.28-.22-.5-.5-.5Zm-7,7h-5c-.28,0-.5-.22-.5-.5s.22-.5.5-.5h5c.28,0,.5.22.5.5s-.22.5-.5.5Zm4-3H7.5c-.28,0-.5-.22-.5-.5s.22-.5.5-.5h9c.28,0,.5.22.5.5s-.22.5-.5.5Z"/></svg>