<svg xmlns="http://www.w3.org/2000/svg" width="24" height="24" viewBox="0 0 24 24"><path d="M17.5 4h-11c-.97 0-1.84.39-2.47 1.03C3.4 5.66 3 6.54 3 7.5v1.02c0 .27.22.48.48.49 2.84.12 5.4 1.33 7.29 3.21s3.09 4.45 3.21 7.29c.01.27.22.48.49.48h3.02c.97 0 1.84-.39 2.47-1.03.63-.63 1.03-1.51 1.03-2.47V7.5c0-.97-.39-1.84-1.03-2.47A3.5 3.5 0 0 0 17.49 4Z"/><path d="M3.5 11c-.28 0-.5.22-.5.5s.22.5.5.5c4.14 0 7.5 3.36 7.5 7.5 0 .28.22.5.5.5s.5-.22.5-.5c0-4.69-3.81-8.5-8.5-8.5"/><path d="M3.5 14c-.28 0-.5.22-.5.5s.22.5.5.5C5.98 15 8 17.02 8 19.5c0 .28.22.5.5.5s.5-.22.5-.5C9 16.47 6.53 14 3.5 14M4.5 17a1.5 1.5 0 1 0 0 3 1.5 1.5 0 1 0 0-3"/></svg>