<svg xmlns="http://www.w3.org/2000/svg" width="24" height="24" viewBox="0 0 24 24"><path d="M21 9c0-.75-.33-1.45-.91-1.93a2.47 2.47 0 0 0-2.08-.52c-1.22.24-2.1 1.4-2 2.65.02.21.06.42.13.62l-1.03 2.57-1.29-5.17c.44-.46.68-1.07.68-1.71a2.5 2.5 0 0 0-5 0c0 .64.25 1.25.68 1.71l-1.29 5.17-1.03-2.57c.07-.2.12-.4.13-.62.1-1.25-.78-2.41-2-2.65-.74-.14-1.5.05-2.08.52C3.33 7.55 3 8.25 3 9c0 1.08.69 2.02 1.68 2.36L5.43 17H5c-1.1 0-2 .9-2 2s.9 2 2 2h14c1.1 0 2-.9 2-2s-.9-2-2-2h-.43l.75-5.64C20.31 11.02 21 10.08 21 9"/></svg>