<svg xmlns="http://www.w3.org/2000/svg" viewBox="0 0 24 24" width="24" height="24"><path d="m19,5h-.06c-.63-.62-1.49-1-2.44-1H7.5c-.95,0-1.81.38-2.44,1h-.06v.06c-.62.63-1,1.49-1,2.44v9c0,1.93,1.57,3.5,3.5,3.5h9c1.93,0,3.5-1.57,3.5-3.5V7.5c0-.95-.38-1.81-1-2.44v-.06Zm0,11.5c0,1.38-1.12,2.5-2.5,2.5H7.5c-1.38,0-2.5-1.12-2.5-2.5v-6.5h14v6.5Z"/><path d="m9.35,15.85l2.65-2.65,2.65,2.65c.1.1.23.15.35.15s.26-.05.35-.15c.2-.2.2-.51,0-.71l-3-3c-.2-.2-.51-.2-.71,0l-3,3c-.2.2-.2.51,0,.71s.51.2.71,0Z"/></svg>