<svg xmlns="http://www.w3.org/2000/svg" viewBox="0 0 24 24" width="24" height="24"><path d="m7.25,9h9.5c.23,0,.43-.16.49-.38l.55-2.2c.24-.97-.01-2.04-.76-2.71-.85-.76-2.03-.9-3.02-.36l-2.01,1.08-1.89-1.02c-.89-.48-1.99-.49-2.82.07-.95.64-1.37,1.74-1.09,2.83l.58,2.31c.06.22.26.38.49.38Z"/><path d="m17.26,10.37c-.06-.22-.26-.37-.48-.37H7.23c-.23,0-.42.15-.48.37l-2.21,8.11c-.17.61-.04,1.24.34,1.74.38.5.96.79,1.59.79h2.54v-7.5c0-.28.22-.5.5-.5s.5.22.5.5v7.5h4v-7.5c0-.28.22-.5.5-.5s.5.22.5.5v7.5h2.54c.63,0,1.21-.29,1.59-.79.38-.5.51-1.13.34-1.74l-2.21-8.11Z"/></svg>