<svg xmlns="http://www.w3.org/2000/svg" viewBox="0 0 24 24" width="24" height="24"><path d="m17.81,4.56c-.65-.98-1.74-1.56-2.91-1.56h-.23l2,6h3.63c-.06-.55-.24-1.09-.57-1.57l-1.91-2.87Z"/><path d="M8.72 10 12.01 19 15.56 10 8.72 10z"/><path d="M15.61 9 13.61 3 10.69 3 8.69 9 15.61 9z"/><path d="m13.13,18.89c.64-.22,1.21-.6,1.64-1.15l4.81-6.22c.35-.45.57-.97.67-1.51h-3.61l-3.51,8.89Z"/><path d="m9.64,3h-.53c-1.17,0-2.26.58-2.91,1.56l-1.91,2.87c-.32.48-.51,1.02-.57,1.57h3.93l2-6Z"/><path d="m3.75,10c.1.54.32,1.06.67,1.51l4.81,6.22c.43.56,1.02.95,1.68,1.16l-3.25-8.9h-3.9Z"/></svg>