<svg xmlns="http://www.w3.org/2000/svg" width="24" height="24" viewBox="0 0 24 24"><path d="M9 15.15c0-.28-.22-.5-.5-.5s-.5.22-.5.5c0 2.44 2.58 3.47 4.5 3.63v1.72c0 .28.22.5.5.5s.5-.22.5-.5v-1.72c2.02-.16 4.5-1.31 4.5-3.63s-2.48-3.46-4.5-3.63v-5.3c1.39.14 3.5.85 3.5 2.62 0 .28.22.5.5.5s.5-.22.5-.5c0-2.44-2.58-3.47-4.5-3.63V3.49c0-.28-.22-.5-.5-.5s-.5.22-.5.5v1.72C10.58 5.36 8 6.4 8 8.84s2.48 3.46 4.5 3.63v5.29c-1.59-.14-3.5-.97-3.5-2.62Zm8 0c0 1.77-2.11 2.48-3.5 2.62v-5.24c1.39.14 3.5.85 3.5 2.62m-8-6.3c0-1.77 2.11-2.48 3.5-2.62v5.24c-1.56-.15-3.5-.99-3.5-2.62"/></svg>