<svg xmlns="http://www.w3.org/2000/svg" viewBox="0 0 24 24" width="24" height="24"><path d="m20.03,12.74c.57-.14.97-.65.97-1.24s-.4-1.1-.97-1.24l-1.03-.26s-.25-1.38-.69-2.17l.48-.72c.33-.49.28-1.14-.12-1.57-.4-.43-1.04-.54-1.55-.27l-.87.46c-.81-.47-2.25-.74-2.25-.74l-.26-1.03c-.14-.57-.65-.97-1.24-.97s-1.1.4-1.24.97l-.26,1.03h-3c-2.76,0-5,2.24-5,5s2.24,5,5,5h2v5.5c0,.28.22.5.5.5h8c.28,0,.5-.22.5-.5v-1.5l1.03-.26c.57-.14.97-.65.97-1.24s-.4-1.1-.97-1.24l-1.03-.26v-3l1.03-.26Zm-13.53-2.74c-.28,0-.5-.22-.5-.5s.22-.5.5-.5.5.22.5.5-.22.5-.5.5Zm6,1c-.83,0-1.5-.67-1.5-1.5s.67-1.5,1.5-1.5,1.5.67,1.5,1.5-.67,1.5-1.5,1.5Z"/></svg>