<svg xmlns="http://www.w3.org/2000/svg" viewBox="0 0 24 24" width="24" height="24"><path d="m12,9c-3.31,0-6,2.69-6,6s2.69,6,6,6,6-2.69,6-6-2.69-6-6-6Zm.5,8.8v.54c0,.28-.22.5-.5.5s-.5-.22-.5-.5v-.54c-1.3-.19-1.67-1.11-1.67-1.62,0-.28.22-.5.5-.5s.5.22.5.5c0,.1.09.67,1.17.67.76,0,1.17-.34,1.17-.67,0-.23,0-.67-1.17-.67-1.79,0-2.17-.91-2.17-1.67s.57-1.46,1.67-1.63v-.54c0-.28.22-.5.5-.5s.5.22.5.5v.56c.97.21,1.33,1.03,1.33,1.61,0,.28-.22.5-.5.5s-.5-.22-.5-.49c0-.2-.1-.67-.83-.67s-1.17.33-1.17.67c0,.25,0,.67,1.17.67,1.89,0,2.17,1.04,2.17,1.67,0,.72-.57,1.46-1.67,1.63Z"/><path d="m10.83,6.08l-.36,1.16c-.08.25.2.45.42.31l1.11-.74,1.11.74c.22.14.49-.06.42-.31l-.36-1.16.89-.89c.17-.17.06-.45-.17-.47l-1.1-.09-.54-1.1c-.1-.21-.39-.21-.49,0l-.54,1.1-1.1.09c-.23.02-.34.3-.17.47l.89.89Z"/><path d="m20.45,7.37l-.82-.07-.41-.83c-.09-.18-.35-.18-.44,0l-.41.83-.82.07c-.21.02-.3.27-.15.42l.67.67-.26.85c-.07.22.18.41.37.28l.82-.54.82.54c.19.13.44-.06.37-.28l-.26-.85.67-.67c.15-.15.06-.4-.15-.42Z"/><path d="m6.19,9.31l-.26-.85.67-.67c.15-.15.06-.4-.15-.42l-.82-.07-.41-.83c-.09-.18-.35-.18-.44,0l-.41.83-.82.07c-.21.02-.3.27-.15.42l.67.67-.26.85c-.07.22.18.41.37.28l.82-.54.82.54c.19.13.44-.06.37-.28Z"/></svg>