<svg xmlns="http://www.w3.org/2000/svg" viewBox="0 0 24 24" width="24" height="24"><path d="m12.59,13.7l8.3-6.05c-.38-1.52-1.75-2.65-3.38-2.65H6.5c-1.64,0-3,1.13-3.38,2.65l8.3,6.05c.35.26.83.26,1.18,0Z"/><path d="m3,8.81v6.69c0,.78.27,1.5.71,2.09l4.78-4.78-5.49-4Z"/><path d="m20.29,17.59c.44-.58.71-1.3.71-2.09v-6.69l-5.49,4,4.78,4.78Z"/><path d="m13.18,14.51c-.35.26-.77.39-1.18.39s-.83-.13-1.18-.39l-1.52-1.11-4.89,4.89c.58.44,1.3.71,2.09.71h11c.78,0,1.5-.27,2.09-.71l-4.89-4.89-1.52,1.11Z"/></svg>