<svg xmlns="http://www.w3.org/2000/svg" viewBox="0 0 24 24" width="24" height="24"><path d="m6.5,4h-1c-1.38,0-2.5,1.12-2.5,2.5v3c0,1.38,1.12,2.5,2.5,2.5h2c.28,0,.5.22.5.5v6c0,.83.67,1.5,1.5,1.5s1.5-.67,1.5-1.5v-10c0-2.48-2.02-4.5-4.5-4.5Zm-.5,5.5c0,.28-.22.5-.5.5s-.5-.22-.5-.5v-3c0-.28.22-.5.5-.5s.5.22.5.5v3Z"/><path d="m18.5,4h-1c-2.48,0-4.5,2.02-4.5,4.5v10c0,.83.67,1.5,1.5,1.5s1.5-.67,1.5-1.5v-6c0-.28.22-.5.5-.5h2c1.38,0,2.5-1.12,2.5-2.5v-3c0-1.38-1.12-2.5-2.5-2.5Zm.5,5.5c0,.28-.22.5-.5.5s-.5-.22-.5-.5v-3c0-.28.22-.5.5-.5s.5.22.5.5v3Z"/></svg>