<svg xmlns="http://www.w3.org/2000/svg" viewBox="0 0 24 24" width="24" height="24"><path d="m20.5,6H3.5c-.28,0-.5.22-.5.5v7c0,.28.22.5.5.5h1.5v1.5c0,.28.22.5.5.5h1.5v1.5c0,.28.22.5.5.5h9c.28,0,.5-.22.5-.5v-1.5h1.5c.28,0,.5-.22.5-.5v-1.5h1.5c.28,0,.5-.22.5-.5v-7c0-.28-.22-.5-.5-.5Zm-14,4.5c0,.28-.22.5-.5.5s-.5-.22-.5-.5v-2c0-.28.22-.5.5-.5s.5.22.5.5v2Zm3,0c0,.28-.22.5-.5.5s-.5-.22-.5-.5v-2c0-.28.22-.5.5-.5s.5.22.5.5v2Zm3,0c0,.28-.22.5-.5.5s-.5-.22-.5-.5v-2c0-.28.22-.5.5-.5s.5.22.5.5v2Zm3,0c0,.28-.22.5-.5.5s-.5-.22-.5-.5v-2c0-.28.22-.5.5-.5s.5.22.5.5v2Zm3,0c0,.28-.22.5-.5.5s-.5-.22-.5-.5v-2c0-.28.22-.5.5-.5s.5.22.5.5v2Z"/></svg>