<svg xmlns="http://www.w3.org/2000/svg" viewBox="0 0 24 24" width="24" height="24"><path d="m3.25,10h3.15c.22,0,.33-.27.18-.43l-1.26-1.26c.37-1.01,1.07-1.94,2.04-2.67,1.4-1.06,3.22-1.64,5.14-1.64s3.75.58,5.14,1.64c1.36,1.03,2.19,2.42,2.33,3.91.02.26.24.45.5.45.02,0,.03,0,.05,0,.27-.03.48-.27.45-.54-.17-1.77-1.13-3.41-2.72-4.61-1.57-1.19-3.61-1.84-5.75-1.84s-4.18.65-5.75,1.84c-1,.75-1.75,1.68-2.21,2.7l-1.12-1.12c-.16-.16-.43-.05-.43.18v3.15c0,.14.11.25.25.25Z"/><path d="m10.5,6c-.83,0-1.5.67-1.5,1.5v8.39c0,.53-.54.89-1.03.7l-1.96-.78c-.96-.39-2.01.32-2.01,1.36,0,.52.27.99.71,1.26l3.57,2.14c.47.28,1,.43,1.54.43h7.17c1.66,0,3-1.34,3-3v-2.35c0-1.51-1.13-2.79-2.63-2.98l-4.72-.59c-.38-.05-.66-.37-.66-.74v-3.84c0-.83-.67-1.5-1.5-1.5Z"/></svg>