<svg xmlns="http://www.w3.org/2000/svg" viewBox="0 0 24 24" width="24" height="24"><path d="m14.85,3.15c-.09-.09-.22-.15-.35-.15h-6c-1.93,0-3.5,1.57-3.5,3.5v11c0,1.93,1.57,3.5,3.5,3.5h7c1.93,0,3.5-1.57,3.5-3.5V7.5c0-.13-.05-.26-.15-.35l-4-4Zm-4.85,14.35c0,.28-.22.5-.5.5s-.5-.22-.5-.5v-5c0-.28.22-.5.5-.5s.5.22.5.5v5Zm2.5,0c0,.28-.22.5-.5.5s-.5-.22-.5-.5v-7c0-.28.22-.5.5-.5s.5.22.5.5v7Zm2.5,0c0,.28-.22.5-.5.5s-.5-.22-.5-.5v-3c0-.28.22-.5.5-.5s.5.22.5.5v3Zm2.4-9.5h-2.4c-.55,0-1-.45-1-1v-2.4c0-.22.27-.33.43-.18l3.15,3.15c.16.16.05.43-.18.43Z"/></svg>