<svg xmlns="http://www.w3.org/2000/svg" width="24" height="24" viewBox="0 0 24 24"><path d="M5.7 17.08c.18.09.36.13.55.13.27 0 .54-.09.77-.27L12 13.03l.06-.05c.3-.24.48-.6.48-.98s-.17-.74-.48-.98l-.06-.05-4.98-3.91c-.38-.3-.88-.35-1.32-.14-.43.21-.7.64-.7 1.12v7.91c0 .48.27.91.7 1.12Z"/><path d="m19.06 11.02-5.04-3.96c-.38-.3-.88-.35-1.32-.14s-.7.64-.7 1.12V9.7l.67.53c.55.43.86 1.07.86 1.77s-.31 1.34-.86 1.77l-.68.53v1.66c0 .48.27.91.7 1.12.18.09.36.13.55.13.27 0 .54-.09.77-.27l5.04-3.96c.3-.24.48-.6.48-.98s-.17-.74-.48-.98Z"/></svg>