<svg xmlns="http://www.w3.org/2000/svg" viewBox="0 0 24 24" width="24" height="24"><path d="m17.5,5h-4.88c-.26,0-.52-.11-.71-.29l-1.12-1.12c-.37-.37-.89-.59-1.41-.59h-4.38c-1.1,0-2,.9-2,2v10.5c0,1.93,1.57,3.5,3.5,3.5h11c1.93,0,3.5-1.57,3.5-3.5v-7c0-1.93-1.57-3.5-3.5-3.5Zm-2.67,9.12c.2.2.2.51,0,.71-.1.1-.23.15-.35.15s-.26-.05-.35-.15l-2.12-2.12-2.12,2.12c-.1.1-.23.15-.35.15s-.26-.05-.35-.15c-.2-.2-.2-.51,0-.71l2.12-2.12-2.12-2.12c-.2-.2-.2-.51,0-.71s.51-.2.71,0l2.12,2.12,2.12-2.12c.2-.2.51-.2.71,0s.2.51,0,.71l-2.12,2.12,2.12,2.12Z"/></svg>