<svg xmlns="http://www.w3.org/2000/svg" viewBox="0 0 24 24" width="24" height="24"><path d="m3.89,13c-.48.03-.82.49-.71.96.85,3.69,3.95,6.5,7.78,6.92l1.04.12c-.53-4.22-3.88-7.53-8.11-8Z"/><path d="m20.11,13c-4.23.47-7.58,3.78-8.11,8l1.04-.12c3.83-.43,6.93-3.23,7.78-6.92.11-.47-.23-.93-.71-.96Z"/><path d="m6.56,12.46c.62,1.06,1.98,1.43,3.05.82.06-.03.1-.07.15-.11,0,.06-.02.12-.02.19,0,1.24,1.01,2.25,2.25,2.25s2.25-1.01,2.25-2.25c0-.06-.01-.12-.02-.19.05.04.1.08.15.11,1.08.61,2.45.24,3.07-.84.61-1.07.24-2.43-.82-3.05-.05-.03-.11-.05-.17-.08.06-.03.11-.04.17-.08,1.08-.62,1.45-2,.82-3.07,0,0,0,0,0,0-.62-1.08-2-1.44-3.07-.82-.06.03-.1.07-.15.11,0-.06.02-.12.02-.19,0-1.24-1.01-2.25-2.25-2.25s-2.25,1.01-2.25,2.25c0,.06.01.12.02.19-.05-.04-.1-.08-.15-.11-1.08-.61-2.45-.24-3.07.84-.61,1.07-.24,2.43.82,3.05.05.03.11.05.17.08-.06.03-.11.04-.17.08-1.07.63-1.43,2.01-.8,3.08Zm5.44-5.16c1.1,0,2,.9,2,2s-.9,2-2,2-2-.9-2-2,.9-2,2-2Z"/></svg>