<svg xmlns="http://www.w3.org/2000/svg" width="24" height="24" viewBox="0 0 24 24"><path d="M14.85 3.15A.5.5 0 0 0 14.5 3h-6C6.57 3 5 4.57 5 6.5v11C5 19.43 6.57 21 8.5 21h7c1.93 0 3.5-1.57 3.5-3.5v-10a.47.47 0 0 0-.15-.35zm-4 13.5c.2.2.2.51 0 .71a.485.485 0 0 1-.7 0l-2-2c-.2-.2-.2-.51 0-.71l2-2c.2-.2.51-.2.71 0s.2.51 0 .71l-1.65 1.65 1.65 1.65Zm5-1.29-2 2a.485.485 0 0 1-.7 0c-.2-.2-.2-.51 0-.71L14.8 15l-1.65-1.65c-.2-.2-.2-.51 0-.71s.51-.2.71 0l2 2c.2.2.2.51 0 .71Zm1.54-7.35h-2.4c-.55 0-1-.45-1-1v-2.4c0-.22.27-.33.43-.18l3.15 3.15c.16.16.05.43-.18.43"/></svg>