<svg xmlns="http://www.w3.org/2000/svg" viewBox="0 0 24 24" width="24" height="24"><path d="m7.46,15.71c.68.73,1.48,1.31,2.35,1.73.72.34,1.2,1.03,1.2,1.83v1.73h.5c2.39,0,4.17-1.26,4.46-3.12,2.94-.94,5.04-3.37,5.04-5.88s-2.1-4.94-5.04-5.88c-.29-1.85-2.07-3.12-4.46-3.12h-.5v1.73c0,.79-.48,1.48-1.2,1.83-.87.42-1.67,1-2.35,1.73-1.04-.85-2.4-1.29-3.96-1.29h-.5v.5c0,1.48.5,2.78,1.45,3.83.34.38.34.95,0,1.33-.95,1.05-1.45,2.35-1.45,3.83v.5h.5c1.56,0,2.91-.44,3.96-1.29Zm10.54-5.71c.55,0,1,.45,1,1s-.45,1-1,1-1-.45-1-1,.45-1,1-1Zm-4.6-.07c.28-.68.68-1.29,1.21-1.82.2-.2.51-.2.71,0s.2.51,0,.71c-.43.43-.76.93-.99,1.49-.22.54-.33,1.11-.33,1.69s.11,1.15.33,1.69c.23.56.56,1.06.99,1.49.2.2.2.51,0,.71-.1.1-.23.15-.35.15s-.26-.05-.35-.15c-.53-.52-.93-1.14-1.21-1.82-.27-.66-.4-1.35-.4-2.07s.14-1.41.4-2.07Z"/></svg>