<svg xmlns="http://www.w3.org/2000/svg" viewBox="0 0 24 24" width="24" height="24"><path d="m7.54,19.46l-1.12,1.12c-.16.16-.05.43.18.43h3.15c.14,0,.25-.11.25-.25v-3.15c0-.22-.27-.33-.43-.18l-1.26,1.26c-1.01-.37-1.94-1.07-2.67-2.04-1.06-1.4-1.64-3.22-1.64-5.14s.58-3.75,1.64-5.14c1.03-1.36,2.42-2.19,3.91-2.33.27-.03.48-.27.45-.54-.03-.27-.28-.47-.54-.45-1.77.17-3.41,1.13-4.61,2.72-1.19,1.57-1.84,3.61-1.84,5.75s.65,4.18,1.84,5.75c.75,1,1.68,1.75,2.7,2.21Z"/><path d="m18,4h-2.35c-1.51,0-2.79,1.13-2.98,2.63l-.59,4.72c-.05.38-.37.66-.74.66h-3.84c-.83,0-1.5.67-1.5,1.5s.67,1.5,1.5,1.5h8.39c.53,0,.89.54.7,1.03l-.78,1.96c-.39.96.32,2.01,1.36,2.01.52,0,.99-.27,1.26-.71l2.14-3.57c.28-.47.43-1,.43-1.54v-7.17c0-1.66-1.34-3-3-3Z"/></svg>