<svg xmlns="http://www.w3.org/2000/svg" width="24" height="24" viewBox="0 0 24 24"><path d="M14.85 3.15A.5.5 0 0 0 14.5 3h-6C6.57 3 5 4.57 5 6.5v11C5 19.43 6.57 21 8.5 21h7c1.93 0 3.5-1.57 3.5-3.5v-10a.47.47 0 0 0-.15-.35zm-.03 12.48c.2.2.2.51 0 .71a.485.485 0 0 1-.7 0L12 14.22l-2.12 2.12a.485.485 0 0 1-.7 0c-.2-.2-.2-.51 0-.71l2.12-2.12-2.12-2.12c-.2-.2-.2-.51 0-.71s.51-.2.71 0l2.12 2.12 2.12-2.12c.2-.2.51-.2.71 0s.2.51 0 .71l-2.12 2.12 2.12 2.12Zm2.57-7.62h-2.4c-.55 0-1-.45-1-1v-2.4c0-.22.27-.33.43-.18l3.15 3.15c.16.16.05.43-.18.43"/></svg>