<svg xmlns="http://www.w3.org/2000/svg" viewBox="0 0 24 24" width="24" height="24"><path d="m11.5,3c-.28,0-.5.22-.5.5v5.5h-1.3V3.5c0-.28-.22-.5-.5-.5s-.5.22-.5.5v5.5h-1.4V3.5c0-.28-.22-.5-.5-.5s-.5.22-.5.5v5.5h-1.3V3.5c0-.28-.22-.5-.5-.5s-.5.22-.5.5v7c0,1.38,1.12,2.5,2.5,2.5h1v7.5c0,.28.22.5.5.5s.5-.22.5-.5v-7.5h1c1.38,0,2.5-1.12,2.5-2.5V3.5c0-.28-.22-.5-.5-.5Z"/><path d="m17,3c-2.06,0-3.5,3.89-3.5,6s1.31,3.66,3,3.94v7.56c0,.28.22.5.5.5s.5-.22.5-.5v-7.56c1.69-.28,3-1.93,3-3.94s-1.44-6-3.5-6Z"/></svg>