<svg xmlns="http://www.w3.org/2000/svg" viewBox="0 0 24 24" width="24" height="24"><rect class="b" x="4" y="4" width="7" height="7" rx="2" ry="2"/><rect class="b" x="4" y="13" width="7" height="7" rx="2" ry="2"/><rect class="b" x="13" y="4" width="7" height="7" rx="2" ry="2"/><path class="b" d="m18.21,18.01c.48-.53.79-1.23.79-2.01,0-1.65-1.35-3-3-3s-3,1.35-3,3,1.35,3,3,3c.52,0,.99-.14,1.42-.37l1.23,1.23c.1.1.23.15.35.15s.26-.05.35-.15c.2-.2.2-.51,0-.71l-1.14-1.14Zm-4.21-2.01c0-1.1.9-2,2-2s2,.9,2,2-.9,2-2,2-2-.9-2-2Z"/></svg>