<svg xmlns="http://www.w3.org/2000/svg" width="24" height="24" viewBox="0 0 24 24"><path d="M12 3c-4.96 0-9 4.04-9 9s4.04 9 9 9 9-4.04 9-9-4.04-9-9-9m2.71 2.67c.12-.17.29-.28.36-.25s.12.18.1.34-.02.47 0 .68c.03.21.13.47.23.59.1.11.13.24.07.29-.06.04-.31.05-.55 0-.24-.04-.44-.36-.44-.71s.1-.77.22-.94Zm-3.37-1.64s-.02.09-.06.15c-.23.38-.64.91-.91 1.18-.26.27-.69.66-.94.86s-.61.5-.79.65-.63.25-.99.2c-.36-.04-1.01-.08-1.45-.09-.16 0-.27-.04-.36-.1a7.98 7.98 0 0 1 5.49-2.86ZM8.31 11.9c.12.09.19.28.16.4a.6.6 0 0 1-.24.34c-.1.06-.33.08-.52.05s-.41-.06-.5-.05c-.09 0-.17-.03-.18-.08s.15-.24.36-.43.34-.49.28-.67c-.05-.18-.1-.5-.1-.69s.1-.4.23-.45c.12-.05.3-.09.4-.09s.21.05.26.1c.05.06.04.18-.02.28s-.17.39-.23.64c-.06.26-.02.54.1.64Zm-1.32.06c-.24.18-.46.26-.49.19s0-.26.05-.42c.06-.15.21-.31.35-.34s.3-.05.36-.05.12.07.14.15-.17.29-.41.47m12.38 3.15s-.02-.01-.03-.03c-.22-.32-.51-.79-.64-1.06s-.36-.45-.51-.4-.2.4-.11.8c.09.39.23.83.29.97s.26.49.45.79c-1.41 2.29-3.93 3.83-6.82 3.83a7.98 7.98 0 0 1-6.03-2.76c.09-.02.24 0 .44.06.69.24 1.79.34 2.45.23s1.3.19 1.42.66.53.9.92.95c.38.05.91 0 1.16-.13.26-.13.72-.2 1.04-.17s.94.06 1.39.05.91-.18 1.02-.39.15-.5.1-.65-.44-.2-.86-.11-.78-.13-.81-.49.4-.83.94-1.04l.43-.08.15-.03c.49-.06.85-.26.8-.45s-.22-.37-.37-.39-.49.01-.76.08-.6 0-.75-.13c-.14-.14-.39.1-.56.53s-.47 1.13-.67 1.55-.53.62-.72.43c-.2-.19-.42-.59-.49-.89s-.34-.63-.6-.72-.34-.02-.18.17.19.54.09.78c-.11.24-.43.1-.72-.31s-.64-.83-.78-.93-.5-.1-.81 0c-.3.1-.71.32-.91.48s-.55.28-.77.26c-.23-.02-.53-.1-.66-.18s-.31-.27-.39-.43c-.08-.15-.11-.48-.06-.72s.34-.44.64-.43c.3 0 .63-.02.73-.06s.19-.26.19-.5.26-.4.57-.36.6-.26.63-.67c.03-.4.23-.83.44-.94s.56-.31.78-.43c.22-.13.23-.28.03-.34s-.3-.36-.21-.67.45-.89.79-1.28c.35-.4.89-.88 1.2-1.08s.83-.28 1.16-.18c.33.09.48.37.34.61s-.11.56.08.7c.18.14.47.05.62-.21.16-.26.39-.53.51-.59.12-.07.41-.44.64-.83s.42-.99.42-1.33.05-.77.11-.95c.04-.12.12-.27.2-.4a7.99 7.99 0 0 1 3.69 6.73c0 1.1-.22 2.16-.63 3.11Z"/></svg>