<svg xmlns="http://www.w3.org/2000/svg" viewBox="0 0 24 24" width="24" height="24"><path d="m8.51,12.5c.11,5.03,1.89,8.5,3.49,8.5s3.38-3.47,3.49-8.5h-6.98Z"/><path d="m15.49,11.5c-.11-5.03-1.89-8.5-3.49-8.5s-3.38,3.47-3.49,8.5h6.98Z"/><path d="m14.24,3.29c1.3,1.63,2.17,4.64,2.25,8.21h4.49c-.22-3.97-3.01-7.25-6.74-8.21Z"/><path d="m14.24,20.71c3.72-.96,6.52-4.24,6.74-8.21h-4.49c-.08,3.56-.95,6.58-2.25,8.21Z"/><path d="m9.76,3.29c-3.72.96-6.52,4.24-6.74,8.21h4.49c.08-3.56.95-6.58,2.25-8.21Z"/><path d="m3.03,12.5c.22,3.97,3.01,7.25,6.74,8.21-1.3-1.63-2.17-4.64-2.25-8.21H3.03Z"/></svg>