<svg xmlns="http://www.w3.org/2000/svg" viewBox="0 0 24 24" width="24" height="24"><path d="m19.5,8h-1.51c.3-.45.51-1.07.51-2,0-1.65-1.35-3-3-3-1.83,0-2.93,2.11-3.5,3.69-.57-1.58-1.67-3.69-3.5-3.69-1.65,0-3,1.35-3,3,0,.93.21,1.55.51,2h-1.51c-.83,0-1.5.67-1.5,1.5s.67,1.5,1.5,1.5h15c.83,0,1.5-.67,1.5-1.5s-.67-1.5-1.5-1.5Zm-4-4c1.1,0,2,.9,2,2,0,1.79-.86,2-1.5,2h-3.37c.4-1.5,1.38-4,2.87-4Zm-9,2c0-1.1.9-2,2-2,1.48,0,2.47,2.5,2.87,4h-3.37c-.64,0-1.5-.21-1.5-2Z"/><path d="m5,18.5c0,1.38,1.12,2.5,2.5,2.5h4v-9h-6.5v6.5Z"/><path d="m12.5,21h4c1.38,0,2.5-1.12,2.5-2.5v-6.5h-6.5v9Z"/></svg>