<svg xmlns="http://www.w3.org/2000/svg" viewBox="0 0 24 24" width="24" height="24"><path d="m17.5,7h-.5v-1.5c0-1.38-1.12-2.5-2.5-2.5h-5c-1.38,0-2.5,1.12-2.5,2.5v1.5h-.5c-1.93,0-3.5,1.57-3.5,3.5v7c0,.95.38,1.81,1,2.44v.06h.06c.63.62,1.49,1,2.44,1h11c.95,0,1.81-.38,2.44-1h.06v-.06c.62-.63,1-1.49,1-2.44v-7c0-1.93-1.57-3.5-3.5-3.5Zm-9.5-1.5c0-.83.67-1.5,1.5-1.5h5c.83,0,1.5.67,1.5,1.5v1.5h-8v-1.5Zm-3,11c0-.28.22-.5.5-.5s.5.22.5.5-.22.5-.5.5-.5-.22-.5-.5Zm1,2c0-.28.22-.5.5-.5s.5.22.5.5-.22.5-.5.5-.5-.22-.5-.5Zm10.5-.5c.28,0,.5.22.5.5s-.22.5-.5.5-.5-.22-.5-.5.22-.5.5-.5Zm-.5-3.5c0-.28.22-.5.5-.5s.5.22.5.5-.22.5-.5.5-.5-.22-.5-.5Zm-.5,2.5c-.28,0-.5-.22-.5-.5s.22-.5.5-.5.5.22.5.5-.22.5-.5.5Zm-1-2c-.28,0-.5-.22-.5-.5s.22-.5.5-.5.5.22.5.5-.22.5-.5.5Zm0,3c.28,0,.5.22.5.5s-.22.5-.5.5-.5-.22-.5-.5.22-.5.5-.5Zm-1-1c-.28,0-.5-.22-.5-.5s.22-.5.5-.5.5.22.5.5-.22.5-.5.5Zm-1-2c-.28,0-.5-.22-.5-.5s.22-.5.5-.5.5.22.5.5-.22.5-.5.5Zm0,3c.28,0,.5.22.5.5s-.22.5-.5.5-.5-.22-.5-.5.22-.5.5-.5Zm-1-1c-.28,0-.5-.22-.5-.5s.22-.5.5-.5.5.22.5.5-.22.5-.5.5Zm-1-2c-.28,0-.5-.22-.5-.5s.22-.5.5-.5.5.22.5.5-.22.5-.5.5Zm0,3c.28,0,.5.22.5.5s-.22.5-.5.5-.5-.22-.5-.5.22-.5.5-.5Zm-1-1c-.28,0-.5-.22-.5-.5s.22-.5.5-.5.5.22.5.5-.22.5-.5.5Zm-1-2c-.28,0-.5-.22-.5-.5s.22-.5.5-.5.5.22.5.5-.22.5-.5.5Zm0,3c.28,0,.5.22.5.5s-.22.5-.5.5-.5-.22-.5-.5.22-.5.5-.5Zm-1-1c-.28,0-.5-.22-.5-.5s.22-.5.5-.5.5.22.5.5-.22.5-.5.5Zm-1-2c-.28,0-.5-.22-.5-.5s.22-.5.5-.5.5.22.5.5-.22.5-.5.5Zm10.5,1.5c0-.28.22-.5.5-.5s.5.22.5.5-.22.5-.5.5-.5-.22-.5-.5Zm1.5,1.5c.28,0,.5.22.5.5s-.22.5-.5.5-.5-.22-.5-.5.22-.5.5-.5Zm-.5-3.5c0-.28.22-.5.5-.5s.5.22.5.5-.22.5-.5.5-.5-.22-.5-.5Zm1.5-2.5H4.5c-.28,0-.5-.22-.5-.5v-1c0-1.38,1.12-2.5,2.5-2.5h11c1.38,0,2.5,1.12,2.5,2.5v1c0,.28-.22.5-.5.5Z"/><path d="M15 9A1 1 0 1 0 15 11 1 1 0 1 0 15 9z"/><path d="M18 9A1 1 0 1 0 18 11 1 1 0 1 0 18 9z"/></svg>