<svg xmlns="http://www.w3.org/2000/svg" viewBox="0 0 24 24" width="24" height="24"><path d="m20.97,11.34l-1.54-4.63c-.34-1.02-1.29-1.71-2.37-1.71h-1.06c-.28,0-.5.22-.5.5s.22.5.5.5h1.06c.65,0,1.22.41,1.42,1.03l1.32,3.97H4.19l1.32-3.97c.2-.61.78-1.03,1.42-1.03h1.06c.28,0,.5-.22.5-.5s-.22-.5-.5-.5h-1.06c-1.08,0-2.03.69-2.37,1.71l-1.54,4.63s0,.05,0,.08c0,.03-.02.05-.02.08v4c0,1.38,1.12,2.5,2.5,2.5h3c1.38,0,2.5-1.12,2.5-2.5v-3.5h2v3.5c0,1.38,1.12,2.5,2.5,2.5h3c1.38,0,2.5-1.12,2.5-2.5v-4s-.01-.05-.02-.08c0-.03,0-.05,0-.08Z"/></svg>