<svg xmlns="http://www.w3.org/2000/svg" viewBox="0 0 24 24" width="24" height="24"><path class="b" d="m15.45,11.65l-7.6,7.6c-.83.83-2.27.83-3.09,0-.41-.41-.64-.96-.64-1.55s.23-1.13.64-1.55l7.6-7.6c.6-.6.93-1.4.93-2.25s-.33-1.65-.93-2.25c-1.2-1.21-3.3-1.21-4.51,0l-4.75,4.75c-.2.2-.2.51,0,.71s.51.2.71,0l4.75-4.75c.83-.83,2.27-.83,3.09,0,.41.41.64.96.64,1.55s-.23,1.13-.64,1.55l-7.6,7.6c-.6.6-.93,1.4-.93,2.25s.33,1.65.93,2.25c1.2,1.2,3.3,1.2,4.51,0l7.6-7.6c.83-.83,2.27-.83,3.09,0,.41.41.64.96.64,1.55s-.23,1.13-.64,1.55l-4.75,4.75c-.2.2-.2.51,0,.71.1.1.23.15.35.15s.26-.05.35-.15l4.75-4.75c.6-.6.93-1.4.93-2.25s-.33-1.65-.93-2.25c-1.2-1.21-3.3-1.21-4.51,0Z"/></svg>