<svg xmlns="http://www.w3.org/2000/svg" viewBox="0 0 24 24" width="24" height="24"><path d="M7.73 9.38 5 7.81 5 16.19 7.73 14.62 7.73 9.38z"/><path d="M18.53 6.93 12.5 3.22 12.5 6.43 15.78 8.5 18.53 6.93z"/><path d="M11.5 6.43 11.5 3.22 5.47 6.93 8.22 8.5 11.5 6.43z"/><path d="M12.5 17.57 12.5 20.78 18.53 17.07 15.78 15.5 12.5 17.57z"/><path d="M16.27 14.62 19 16.19 19 7.81 16.27 9.38 16.27 14.62z"/><path d="M5.47 17.07 11.5 20.78 11.5 17.57 8.22 15.5 5.47 17.07z"/><path d="M15.27 9.36 12 7.3 8.73 9.36 8.73 14.64 12 16.7 15.27 14.64 15.27 9.36z"/></svg>