<svg xmlns="http://www.w3.org/2000/svg" width="24" height="24" viewBox="0 0 24 24"><path d="M12 3c-4.96 0-9 4.04-9 9s4.04 9 9 9 9-4.04 9-9-4.04-9-9-9m3.46 12.65c-.05.58-.39 1.48-.76 2-.36.52-1.29 1.02-2.05 1.1s-1.42-.18-1.44-.58c-.03-.4-.26-1.1-.51-1.54-.26-.44-.63-.41-.83.07s-.98.58-1.74.22c-.75-.36-1.22-1.19-1.04-1.85.18-.65.1-1.3-.17-1.44s-.64-.54-.81-.89-.04-.47.29-.26c.33.2.86.48 1.17.45.03 0 .1-.04.1-.04.81-.32 1.47-.91 1.99-1.61.21-.28.44-.47.65-.51.42-.09 1.61.05 2.64.32 1.04.26 1.94.88 2.01 1.36s.23 1.17.37 1.52c.13.35.2 1.11.15 1.69Zm2.1-9.1c-.3.3-.95.51-1.44.46-.5-.04-1.28-.26-1.74-.49s-1.13-1.27-1.49-2.3l-.06-.18a7.93 7.93 0 0 1 4.81 2.29c0 .09-.02.16-.08.22"/></svg>