<svg xmlns="http://www.w3.org/2000/svg" viewBox="0 0 24 24" width="24" height="24"><path d="m20.99,14.38l-1.62-6.48c-.28-1.12-1.28-1.89-2.43-1.89h-.94c-.28,0-.5.22-.5.5s.22.5.5.5h.94c.69,0,1.29.47,1.46,1.14l.9,3.6c-.65-.46-1.44-.73-2.29-.73-1.86,0-3.41,1.28-3.86,3h-2.28c-.45-1.72-2-3-3.86-3-.85,0-1.64.27-2.29.73l.9-3.6c.17-.67.77-1.14,1.46-1.14h.94c.28,0,.5-.22.5-.5s-.22-.5-.5-.5h-.94c-1.15,0-2.15.78-2.43,1.89l-1.62,6.48c-.02.1,0,.19.02.28-.01.12-.03.23-.03.34,0,2.21,1.79,4,4,4s4-1.79,4-4h2c0,2.21,1.79,4,4,4s4-1.79,4-4c0-.12-.02-.23-.03-.34.03-.09.04-.18.02-.28Z"/></svg>