<svg xmlns="http://www.w3.org/2000/svg" viewBox="0 0 24 24" width="24" height="24"><path d="m13.5,20H3.5c-.28,0-.5.22-.5.5s.22.5.5.5h10c.28,0,.5-.22.5-.5s-.22-.5-.5-.5Z"/><path d="m15.6,9.9c.2.2.51.2.71,0l.48-.48c.78-.78.78-2.05,0-2.83l-2.38-2.38c-.78-.78-2.05-.78-2.83,0l-.48.48c-.2.2-.2.51,0,.71l4.5,4.5Z"/><path d="m13.96,12.25l.94-.94c.2-.2.2-.51,0-.71l-4.5-4.5c-.2-.2-.51-.2-.71,0l-2.59,2.59c-.2.2-.2.51,0,.71l4.5,4.5c.2.2.51.2.71,0l.94-.94,6.4,6.4c.1.1.23.15.35.15s.26-.05.35-.15c.2-.2.2-.51,0-.71l-6.4-6.4Z"/><path d="m7.59,15.79c.39.39.9.58,1.41.58s1.02-.2,1.41-.58l.48-.48c.2-.2.2-.51,0-.71l-4.5-4.5c-.2-.2-.51-.2-.71,0l-.48.48c-.78.78-.78,2.05,0,2.83l2.38,2.38Z"/></svg>