<svg xmlns="http://www.w3.org/2000/svg" width="24" height="24" viewBox="0 0 24 24"><path d="M3.5 17c.28 0 .5-.22.5-.5v-4h6v4c0 .28.22.5.5.5s.5-.22.5-.5v-9c0-.28-.22-.5-.5-.5s-.5.22-.5.5v4H4v-4c0-.28-.22-.5-.5-.5s-.5.22-.5.5v9c0 .28.22.5.5.5M19 7h-5.5c-.28 0-.5.22-.5.5s.22.5.5.5H19c.55 0 1 .45 1 1v1.5c0 .55-.45 1-1 1h-4c-.28 0-.5.22-.5.5s.22.5.5.5h4c.55 0 1 .45 1 1V15c0 .55-.45 1-1 1h-5.5c-.28 0-.5.22-.5.5s.22.5.5.5H19c1.1 0 2-.9 2-2v-1.5c0-.6-.27-1.13-.69-1.5.42-.37.69-.9.69-1.5V9c0-1.1-.9-2-2-2"/></svg>