<svg xmlns="http://www.w3.org/2000/svg" viewBox="0 0 24 24" width="24" height="24"><path d="m19.43,5.54c-2.06-2.03-5.29-2.03-7.34,0l-.12.12-.12-.12c-2.05-2.04-5.28-2.04-7.34,0-.99.99-1.54,2.28-1.53,3.65,0,1.36.55,2.66,1.54,3.63l6.06,6c.39.38.9.58,1.41.58s1.02-.19,1.41-.58l6.06-6c.99-.98,1.53-2.27,1.54-3.63,0-1.37-.54-2.67-1.53-3.65,0,0,0,0,0,0Zm-15.43,3.27v.76c-.01-.12-.04-.25-.04-.37,0-.13.03-.26.04-.38Zm14.72,3.31l-6.06,6c-.18.18-.42.27-.67.28V6.86c.11,0,.23-.05.32-.14l.47-.47c1.66-1.64,4.27-1.65,5.94,0,.8.8,1.24,1.84,1.24,2.94,0,1.1-.44,2.13-1.24,2.93Z"/></svg>