<svg xmlns="http://www.w3.org/2000/svg" viewBox="0 0 24 24" width="24" height="24"><path d="m15.5,11.5h-5v-1.29c0-.45-.54-.67-.85-.35l-1.79,1.79c-.2.2-.2.51,0,.71l1.79,1.79c.32.32.85.09.85-.35v-1.29h5c.28,0,.5-.22.5-.5s-.22-.5-.5-.5Z"/><path d="m4.5,18c-.28,0-.5.22-.5.5v2c0,.28.22.5.5.5s.5-.22.5-.5v-2c0-.28-.22-.5-.5-.5Z"/><path d="m4.5,13c-.28,0-.5.22-.5.5v2c0,.28.22.5.5.5s.5-.22.5-.5v-2c0-.28-.22-.5-.5-.5Z"/><path d="m4.5,8c-.28,0-.5.22-.5.5v2c0,.28.22.5.5.5s.5-.22.5-.5v-2c0-.28-.22-.5-.5-.5Z"/><path d="m4.5,3c-.28,0-.5.22-.5.5v2c0,.28.22.5.5.5s.5-.22.5-.5v-2c0-.28-.22-.5-.5-.5Z"/></svg>