<svg xmlns="http://www.w3.org/2000/svg" width="24" height="24" viewBox="0 0 24 24"><path d="M17.23 4.03A3.52 3.52 0 0 0 14.76 3H9.24c-.92 0-1.82.37-2.47 1.03L4.03 6.77C3.37 7.43 3 8.31 3 9.25v5.51c0 .93.36 1.81 1.03 2.48l2.74 2.74c.65.65 1.55 1.03 2.47 1.03h5.52c.92 0 1.82-.37 2.47-1.03l2.74-2.74c.66-.66 1.03-1.54 1.03-2.48V9.25c0-.93-.36-1.81-1.03-2.48zM12 17c-.28 0-.5-.22-.5-.5s.22-.5.5-.5.5.22.5.5-.22.5-.5.5m1.27-4.44c-.48.31-.77.85-.77 1.44 0 .28-.22.5-.5.5s-.5-.22-.5-.5c0-.94.46-1.79 1.23-2.28.54-.35 1.18-.91 1.18-1.65 0-.86-.54-1.64-1.32-1.93-.5-.19-1.05-.16-1.55.07-.51.24-.89.65-1.07 1.17-.09.26-.38.4-.64.31a.506.506 0 0 1-.31-.64c.27-.77.84-1.4 1.59-1.75s1.57-.39 2.32-.1c1.17.44 1.96 1.59 1.97 2.86 0 .95-.57 1.81-1.64 2.5Z"/></svg>