<svg xmlns="http://www.w3.org/2000/svg" width="24" height="24" viewBox="0 0 24 24"><path d="M12 3c-4.96 0-9 4.04-9 9s4.04 9 9 9 9-4.04 9-9-4.04-9-9-9m0 14c-.28 0-.5-.22-.5-.5s.22-.5.5-.5.5.22.5.5-.22.5-.5.5m1.27-4.44c-.48.31-.77.85-.77 1.44 0 .28-.22.5-.5.5s-.5-.22-.5-.5c0-.94.46-1.79 1.23-2.28.54-.35 1.18-.91 1.18-1.65 0-.86-.54-1.64-1.32-1.93-.5-.19-1.05-.16-1.55.07-.51.24-.89.65-1.07 1.17-.09.26-.38.4-.64.31a.506.506 0 0 1-.31-.64c.27-.77.84-1.4 1.59-1.75s1.57-.39 2.32-.1c1.17.44 1.96 1.59 1.97 2.86 0 .95-.57 1.81-1.64 2.5Z"/></svg>