<svg xmlns="http://www.w3.org/2000/svg" viewBox="0 0 24 24" width="24" height="24"><path d="m20.5,13H3.5c-.28,0-.5.22-.5.5v4c0,1.93,1.57,3.5,3.5,3.5h11c1.93,0,3.5-1.57,3.5-3.5v-4c0-.28-.22-.5-.5-.5Z"/><path d="m15.5,10c.28,0,.5-.22.5-.5,0-1.35.42-1.99.92-2.72.51-.76,1.08-1.63,1.08-3.28,0-.28-.22-.5-.5-.5s-.5.22-.5.5c0,1.35-.42,1.99-.92,2.72-.51.76-1.08,1.63-1.08,3.28,0,.28.22.5.5.5Z"/><path d="m12.5,10c.28,0,.5-.22.5-.5,0-1.35.42-1.99.92-2.72.51-.76,1.08-1.63,1.08-3.28,0-.28-.22-.5-.5-.5s-.5.22-.5.5c0,1.35-.42,1.99-.92,2.72-.51.76-1.08,1.63-1.08,3.28,0,.28.22.5.5.5Z"/><path d="m20.5,3c-.28,0-.5.22-.5.5,0,1.35-.42,1.99-.92,2.72-.51.76-1.08,1.63-1.08,3.28,0,.28.22.5.5.5s.5-.22.5-.5c0-1.35.42-1.99.92-2.72.51-.76,1.08-1.63,1.08-3.28,0-.28-.22-.5-.5-.5Z"/><path d="M7 3A2 2 0 1 0 7 7 2 2 0 1 0 7 3z"/><path d="m3.54,12h7.52c.4,0,.64-.46.41-.79-1.63-2.39-2.47-3.21-4.47-3.21s-3.67,1.48-3.96,3.41c-.05.31.19.59.5.59Z"/></svg>