<svg xmlns="http://www.w3.org/2000/svg" width="24" height="24" viewBox="0 0 24 24"><path d="M11.89 8.9a2 2 0 1 0 0 4 2 2 0 1 0 0-4M16 13h2v3h-2zM6 13h2v3H6z"/><path d="M20.98 10.36 19.8 6.43A2 2 0 0 0 17.88 5H13.6l-1.24-1.34a.5.5 0 0 0-.73 0L10.39 5H6.11c-.89 0-1.66.57-1.92 1.43l-1.18 3.93v.05c0 .03-.02.06-.02.09V18c0 1.1.9 2 2 2h14c1.1 0 2-.9 2-2v-7.5s-.01-.06-.02-.09v-.05ZM20 18c0 .55-.45 1-1 1h-5v-4h-4v4H5c-.55 0-1-.45-1-1v-7h1.34c.56 0 1.09-.23 1.47-.64L12 4.74l5.19 5.62c.38.41.91.64 1.47.64H20z"/></svg>