<svg xmlns="http://www.w3.org/2000/svg" viewBox="0 0 24 24" width="24" height="24"><path d="m15.86,6.02c-.44-1.75-2.04-3.02-3.86-3.02s-3.42,1.27-3.86,3.02c-1.76.18-3.14,1.67-3.14,3.48s1.39,3.29,3.16,3.47l3.38,7.73c.08.18.26.3.46.3s.38-.12.46-.3l3.38-7.73c1.77-.17,3.16-1.65,3.16-3.47s-1.38-3.3-3.14-3.48Zm-.36,5.98h-7c-1.38,0-2.5-1.12-2.5-2.5s1.12-2.5,2.45-2.5l.08-.49h0s.02.5.02.5c.25,0,.46-.18.5-.43.21-1.47,1.48-2.58,2.96-2.58s2.75,1.11,2.96,2.58c.04.25.25.43.5.43.02,0,.05,0,.07,0,1.37.01,2.48,1.13,2.48,2.5s-1.12,2.5-2.5,2.5Z"/></svg>