<svg xmlns="http://www.w3.org/2000/svg" viewBox="0 0 24 24" width="24" height="24"><path d="m16.5,4H7.5c-1.93,0-3.5,1.57-3.5,3.5v9c0,1.93,1.57,3.5,3.5,3.5h9c.95,0,1.81-.38,2.44-1h.06v-.06c.62-.63,1-1.49,1-2.44V7.5c0-1.93-1.57-3.5-3.5-3.5Zm-11.5,12.5V7.5c0-1.38,1.12-2.5,2.5-2.5h9c.69,0,1.31.28,1.77.73l-3.44,3.44c.86.86,1.33,2.11,1.12,3.46-.26,1.68-1.63,3.06-3.32,3.32-1.35.21-2.6-.26-3.46-1.12l-3.44,3.44c-.45-.45-.73-1.08-.73-1.77Z"/><path d="m9.17,9.17c-1.56,1.56-1.56,4.09,0,5.66l5.66-5.66c-1.56-1.56-4.09-1.56-5.66,0Z"/></svg>