<svg xmlns="http://www.w3.org/2000/svg" viewBox="0 0 24 24" width="24" height="24"><path d="m10,11.29l-2-2c-.19-.19-.44-.29-.71-.29h-3.29c-.55,0-1,.45-1,1v4c0,.55.45,1,1,1h3.29c.27,0,.52-.1.71-.29l2-2c.39-.39.39-1.02,0-1.41Z"/><path d="m20,9h-3.29c-.27,0-.52.1-.71.29l-2,2c-.39.39-.39,1.02,0,1.41l2,2c.19.19.44.29.71.29h3.29c.55,0,1-.45,1-1v-4c0-.55-.45-1-1-1Z"/><path d="m11.29,10c.2.2.45.29.71.29s.51-.1.71-.29l2-2c.19-.19.29-.44.29-.71v-3.29c0-.55-.45-1-1-1h-4c-.55,0-1,.45-1,1v3.29c0,.27.1.52.29.71l2,2Z"/><path d="m12.71,14c-.39-.39-1.02-.39-1.41,0l-2,2c-.19.19-.29.44-.29.71v3.29c0,.55.45,1,1,1h4c.55,0,1-.45,1-1v-3.29c0-.27-.1-.52-.29-.71l-2-2Z"/></svg>