<svg xmlns="http://www.w3.org/2000/svg" viewBox="0 0 24 24" width="24" height="24"><path d="m20.12,16.61c-.47-.33-1.13-.62-1.97-.86-.26-.08-.54.07-.62.34-.08.26.07.54.34.62.72.21,1.3.46,1.68.72.29.2.45.41.45.56s-.17.36-.45.56c-.38.26-.96.51-1.68.73-.75.22-1.63.4-2.62.52-2.06.26-4.43.26-6.49,0-.99-.12-1.87-.3-2.62-.52-.72-.21-1.3-.46-1.68-.73-.29-.2-.45-.41-.45-.56s.17-.36.45-.56c.38-.26.96-.51,1.68-.72.27-.08.42-.36.34-.62-.08-.26-.36-.42-.62-.34-.83.24-1.49.53-1.97.86-.58.41-.88.87-.88,1.38s.3.98.88,1.38c.47.33,1.13.62,1.97.86.8.24,1.74.42,2.78.55,1.07.13,2.21.2,3.37.2s2.3-.07,3.37-.2c1.04-.13,1.98-.32,2.78-.55.83-.25,1.5-.54,1.96-.86.59-.41.88-.87.88-1.38s-.3-.98-.88-1.38Z"/><path d="m6,8.94c-.02,4.87,5.48,8.8,5.71,8.97.09.06.19.09.29.09s.2-.03.29-.09c.23-.17,5.73-4.09,5.71-8.96,0-3.28-2.69-5.94-6-5.94s-6,2.67-6,5.94Zm8,.06c0,1.1-.9,2-2,2s-2-.9-2-2,.9-2,2-2,2,.9,2,2Z"/></svg>