<svg xmlns="http://www.w3.org/2000/svg" viewBox="0 0 24 24" width="24" height="24"><path d="m21,5.5c0-.28-.22-.5-.5-.5h-6s-.03,0-.05.01c-.23-1.14-1.24-2.01-2.45-2.01s-2.22.87-2.45,2.01c-.02,0-.03-.01-.05-.01H3.5c-.28,0-.5.22-.5.5s.22.5.5.5h2.24l-2.7,6.3c-.03.06-.04.13-.04.2,0,1.93,1.57,3.5,3.5,3.5s3.5-1.57,3.5-3.5c0-.07-.01-.13-.04-.2l-2.7-6.3h2.24s.03,0,.05-.01c.2.98.97,1.76,1.95,1.96v12.05H3.5c-.28,0-.5.22-.5.5s.22.5.5.5h17c.28,0,.5-.22.5-.5s-.22-.5-.5-.5h-8V7.95c.98-.2,1.75-.98,1.95-1.96.02,0,.03.01.05.01h2.24l-2.7,6.3c-.03.06-.04.13-.04.2,0,1.93,1.57,3.5,3.5,3.5s3.5-1.57,3.5-3.5c0-.07-.01-.13-.04-.2l-2.7-6.3h2.24c.28,0,.5-.22.5-.5ZM4.04,12.5l2.46-5.73,2.46,5.73h-4.91Zm7.96-5.5c-.83,0-1.5-.67-1.5-1.5s.67-1.5,1.5-1.5,1.5.67,1.5,1.5-.67,1.5-1.5,1.5Zm3.04,5.5l2.46-5.73,2.46,5.73h-4.91Z"/></svg>