<svg xmlns="http://www.w3.org/2000/svg" viewBox="0 0 24 24" width="24" height="24"><path d="m20.5,5h-4c-.28,0-.5.22-.5.5s.22.5.5.5h4c.28,0,.5-.22.5-.5s-.22-.5-.5-.5Z"/><path d="m19.07,10.67l-5.43-2.87c-1.03-.54-2.25-.54-3.28,0l-5.43,2.87c-.49.26-.8.77-.8,1.33s.3,1.06.8,1.33l5.43,2.87c.51.27,1.08.41,1.64.41s1.12-.14,1.64-.41l5.43-2.87h0c.49-.26.8-.77.8-1.33s-.3-1.06-.8-1.33Z"/><path d="m14.57,17.97c-.79.42-1.68.64-2.57.64s-1.78-.22-2.57-.64l-5.09-2.7c-.12.22-.19.47-.19.73,0,.56.3,1.06.8,1.33l5.43,2.87c.51.27,1.08.41,1.64.41s1.12-.14,1.64-.41l5.43-2.87h0c.49-.26.8-.77.8-1.33,0-.26-.07-.51-.19-.73l-5.1,2.7Z"/></svg>