<svg xmlns="http://www.w3.org/2000/svg" viewBox="0 0 24 24" width="24" height="24"><path d="m7.15,15.35c-.2-.2-.2-.51,0-.71l2.65-2.65h-3.29c-.28,0-.5-.22-.5-.5s.22-.5.5-.5h3.5v-2.5c0-1.38-1.12-2.5-2.5-2.5-2.48,0-4.5,2.02-4.5,4.5v6.64c0,.74.32,1.43.88,1.91.46.39,1.03.59,1.62.59.14,0,.27-.01.41-.03l2-.33c1.21-.2,2.09-1.24,2.09-2.47v-3.6l-2.15,2.15c-.2.2-.51.2-.71,0Z"/><path d="m16.5,6c-1.38,0-2.5,1.12-2.5,2.5v2.5h3.5c.28,0,.5.22.5.5s-.22.5-.5.5h-3.29l2.65,2.65c.2.2.2.51,0,.71-.1.1-.23.15-.35.15s-.26-.05-.35-.15l-2.15-2.15v3.6c0,1.23.88,2.26,2.09,2.47l2,.33c.14.02.28.03.41.03.59,0,1.16-.21,1.62-.59.56-.48.88-1.17.88-1.91v-6.64c0-2.48-2.02-4.5-4.5-4.5Z"/><path d="m13.21,11h-.71V2.5c0-.28-.22-.5-.5-.5s-.5.22-.5.5v8.5h-1.5v2.21l1.21-1.21h1.59l1.21,1.21v-2.21h-.79Z"/></svg>