<svg xmlns="http://www.w3.org/2000/svg" viewBox="0 0 24 24" width="24" height="24"><path d="m19.5,11.5h-10c-.28,0-.5.22-.5.5s.22.5.5.5h10c.28,0,.5-.22.5-.5s-.22-.5-.5-.5Z"/><path d="m19.5,7h-10c-.28,0-.5.22-.5.5s.22.5.5.5h10c.28,0,.5-.22.5-.5s-.22-.5-.5-.5Z"/><path d="m19.5,16h-10c-.28,0-.5.22-.5.5s.22.5.5.5h10c.28,0,.5-.22.5-.5s-.22-.5-.5-.5Z"/><path d="M5.5 6A1.5 1.5 0 1 0 5.5 9 1.5 1.5 0 1 0 5.5 6z"/><path d="M5.5 10.5A1.5 1.5 0 1 0 5.5 13.5 1.5 1.5 0 1 0 5.5 10.5z"/><path d="M5.5 15A1.5 1.5 0 1 0 5.5 18 1.5 1.5 0 1 0 5.5 15z"/></svg>