<svg xmlns="http://www.w3.org/2000/svg" width="24" height="24" viewBox="0 0 24 24"><path d="m12.35 16.6-2.12 2.12c-.33.33-.72.59-1.16.77-.84.34-1.8.34-2.63 0-.43-.18-.82-.43-1.16-.77s-.59-.72-.77-1.16a3.49 3.49 0 0 1 .77-3.8l2.12-2.12c.2-.2.2-.51 0-.71s-.51-.2-.71 0l-2.12 2.12c-.43.43-.76.93-.99 1.49-.22.54-.33 1.11-.33 1.69s.11 1.15.33 1.69a4.52 4.52 0 0 0 4.17 2.81c.58 0 1.15-.11 1.69-.33.56-.23 1.06-.56 1.49-.99l2.12-2.12c.2-.2.2-.51 0-.71s-.51-.2-.71 0ZM19.42 4.58c-.43-.43-.93-.76-1.49-.99a4.52 4.52 0 0 0-3.39 0c-.56.23-1.06.56-1.49.99L10.93 6.7c-.2.2-.2.51 0 .71s.51.2.71 0l2.12-2.12c.33-.33.72-.59 1.16-.77.84-.34 1.8-.34 2.63 0 .43.18.82.43 1.16.77s.59.72.77 1.16a3.49 3.49 0 0 1-.77 3.8l-2.12 2.12c-.2.2-.2.51 0 .71a.485.485 0 0 0 .7 0l2.12-2.12c.43-.43.76-.93.99-1.49.22-.54.33-1.11.33-1.69s-.11-1.15-.33-1.69c-.23-.56-.56-1.06-.99-1.49Z"/><path d="M7.4 16.6s.11.09.17.11.12.04.19.04.13-.01.19-.04.12-.06.17-.11l4.24-4.24 4.24-4.24a.485.485 0 0 0 0-.7c-.1-.09-.23-.15-.35-.15s-.26.05-.35.15l-4.24 4.24-4.24 4.24a.485.485 0 0 0 0 .7Z"/></svg>