<svg xmlns="http://www.w3.org/2000/svg" viewBox="0 0 24 24" width="24" height="24"><path d="m20.32,7.78c-.43-.28-.96-.32-1.43-.11l-5.81,2.58c-1.26.56-2.08,1.82-2.08,3.2v5.51c0,.51.25.98.68,1.26.25.16.53.24.82.24.21,0,.42-.04.61-.13l5.81-2.58c1.26-.56,2.08-1.82,2.08-3.2v-5.51c0-.51-.25-.98-.68-1.26Z"/><path d="m16.46,5.55c-.11-.25-.41-.37-.66-.25l-6.71,2.96c-1.27.56-2.09,1.82-2.09,3.2v6.54c0,.28.22.5.5.5s.5-.22.5-.5v-6.54c0-.99.58-1.89,1.49-2.29l6.71-2.96c.25-.11.37-.41.25-.66Z"/><path d="m12.46,3.55c-.11-.25-.41-.37-.66-.25l-6.71,2.96c-1.27.56-2.09,1.82-2.09,3.2v6.54c0,.28.22.5.5.5s.5-.22.5-.5v-6.54c0-.99.58-1.89,1.49-2.29l6.71-2.96c.25-.11.37-.41.25-.66Z"/></svg>