<svg xmlns="http://www.w3.org/2000/svg" width="24" height="24" viewBox="0 0 24 24"><path d="M12 17.4a1.8 1.8 0 1 0 0 3.6 1.8 1.8 0 1 0 0-3.6M12 3a1.8 1.8 0 1 0 0 3.6A1.8 1.8 0 1 0 12 3M8.18 18.36c-.7.7-1.84.7-2.55 0-.7-.7-.7-1.84 0-2.55.7-.7 1.84-.7 2.55 0 .7.7.7 1.84 0 2.55M18.36 8.18c-.7.7-1.84.7-2.55 0-.7-.7-.7-1.84 0-2.55.7-.7 1.84-.7 2.55 0 .7.7.7 1.84 0 2.55M4.8 13.8c-.99 0-1.8-.81-1.8-1.8s.81-1.8 1.8-1.8 1.8.81 1.8 1.8-.81 1.8-1.8 1.8M19.2 13.8c-.99 0-1.8-.81-1.8-1.8s.81-1.8 1.8-1.8 1.8.81 1.8 1.8-.81 1.8-1.8 1.8M5.64 8.18c-.7-.7-.7-1.84 0-2.55.7-.7 1.84-.7 2.55 0 .7.7.7 1.84 0 2.55-.7.7-1.84.7-2.55 0M15.82 18.37c-.7-.7-.7-1.84 0-2.55.7-.7 1.84-.7 2.55 0 .7.7.7 1.84 0 2.55-.7.7-1.84.7-2.55 0"/></svg>