<svg xmlns="http://www.w3.org/2000/svg" viewBox="0 0 24 24" width="24" height="24"><path d="m17.5,4H6.5c-1.93,0-3.5,1.57-3.5,3.5v7c0,1.76,1.31,3.21,3.01,3.45,0,.02-.01.03-.01.05v1.5c0,.28.22.5.5.5s.5-.22.5-.5v-1.5h10v1.5c0,.28.22.5.5.5s.5-.22.5-.5v-1.5s0-.03-.01-.05c1.7-.24,3.01-1.69,3.01-3.45v-7c0-1.93-1.57-3.5-3.5-3.5Zm-3.5,9.5c0,.83-.67,1.5-1.5,1.5h-5c-.83,0-1.5-.67-1.5-1.5v-5c0-.83.67-1.5,1.5-1.5h5c.83,0,1.5.67,1.5,1.5v5Zm3,.5c-.55,0-1-.45-1-1s.45-1,1-1,1,.45,1,1-.45,1-1,1Zm0-4c-.55,0-1-.45-1-1s.45-1,1-1,1,.45,1,1-.45,1-1,1Z"/></svg>