<svg xmlns="http://www.w3.org/2000/svg" width="24" height="24" viewBox="0 0 24 24"><path d="M17.5 4h-11C4.57 4 3 5.57 3 7.5v7C3 16.43 4.57 18 6.5 18H7v1.75c0 .6.34 1.13.89 1.37a1.5 1.5 0 0 0 1.62-.26l3.19-2.87h4.81c1.93 0 3.5-1.57 3.5-3.5v-7c0-1.93-1.57-3.5-3.5-3.5Zm-3.71 7.21L13 12l-2.85 2.85a.5.5 0 0 1-.35.15H8.51c-.28 0-.5-.22-.5-.5v-1.29c0-.13.05-.26.15-.35l2.85-2.85.79-.79c.2-.2.51-.2.71 0l1.29 1.29c.2.2.2.51 0 .71ZM15.2 9.8c-.2.2-.51.2-.71 0L13.2 8.51c-.2-.2-.2-.51 0-.71.44-.44 1.15-.44 1.59 0l.41.41c.44.44.44 1.15 0 1.59"/></svg>