<svg xmlns="http://www.w3.org/2000/svg" viewBox="0 0 24 24" width="24" height="24"><path d="m15,3c-3.12,0-5.69,2.37-5.96,5.41-1.83.78-3.04,2.58-3.04,4.59,0,.05,0,.1,0,.15-1.74.44-3.01,2.01-3.01,3.85,0,2.21,1.79,4,4,4,1.84,0,3.41-1.27,3.85-3.01.05,0,.1,0,.15,0,2.01,0,3.8-1.21,4.59-3.04,3.06-.29,5.41-2.85,5.41-5.96,0-3.31-2.69-6-6-6ZM7,20c-1.65,0-3-1.35-3-3,0-1.34.89-2.5,2.13-2.87.01.06.04.11.05.17.03.09.05.19.09.28.05.16.11.32.18.47.04.09.08.17.12.25.08.16.18.31.27.46.04.06.08.13.13.19.3.41.66.77,1.07,1.07.06.04.13.08.19.12.15.1.3.19.46.28.08.04.16.08.25.12.15.07.31.13.47.19.09.03.18.06.27.08.06.02.11.04.17.05-.37,1.24-1.53,2.13-2.87,2.13Zm3.52-3.03c-.23-.03-.45-.07-.67-.14-1.29-.38-2.3-1.4-2.69-2.69-.06-.21-.11-.44-.14-.66-.02-.16-.03-.32-.03-.48,0-1.45.79-2.78,2.02-3.48,0,.01,0,.02,0,.03.03.32.09.63.17.94.01.05.02.1.04.15.08.3.19.58.32.86.02.05.04.09.07.14.13.27.29.54.46.79.02.03.04.06.07.09.38.52.83.97,1.35,1.35.03.02.06.04.09.07.25.17.51.33.79.46.05.02.09.05.14.07.28.13.56.23.86.32.05.01.1.03.15.04.3.08.62.14.94.17.01,0,.02,0,.03,0-.78,1.37-2.38,2.17-3.96,2Z"/></svg>