<svg xmlns="http://www.w3.org/2000/svg" width="24" height="24" viewBox="0 0 24 24"><path d="M17.5 4h-11C4.57 4 3 5.57 3 7.5v7C3 16.43 4.57 18 6.5 18H7v1.75c0 .6.34 1.13.89 1.37a1.5 1.5 0 0 0 1.62-.26l3.19-2.87h4.81c1.93 0 3.5-1.57 3.5-3.5v-7c0-1.93-1.57-3.5-3.5-3.5ZM12 15c-.28 0-.5-.22-.5-.5s.22-.5.5-.5.5.22.5.5-.22.5-.5.5m1.77-3.73c-.35.35-.79.59-1.27.68V13h-1v-1.5c0-.28.22-.5.5-.5a1.499 1.499 0 0 0 1.06-2.56c-.57-.57-1.56-.57-2.12 0-.28.28-.44.66-.44 1.06h-1c0-.67.26-1.3.73-1.77.94-.94 2.59-.94 3.54 0 .47.47.73 1.1.73 1.77s-.26 1.3-.73 1.77"/></svg>