<svg xmlns="http://www.w3.org/2000/svg" viewBox="0 0 24 24" width="24" height="24"><path d="m12,21c3.31,0,6-2.69,6-6s-2.69-6-6-6-6,2.69-6,6,2.69,6,6,6Zm-3-7.09l1.79-.26c.08-.01.15-.06.19-.14l.8-1.62c.09-.19.36-.19.45,0l.8,1.62c.04.07.11.12.19.14l1.79.26c.21.03.29.28.14.43l-1.29,1.26c-.06.06-.09.14-.07.22l.31,1.78c.04.2-.18.36-.36.26l-1.6-.84c-.07-.04-.16-.04-.23,0l-1.6.84c-.18.1-.4-.06-.36-.26l.31-1.78c.01-.08-.01-.16-.07-.22l-1.29-1.26c-.15-.14-.07-.4.14-.43Z"/><path d="m7,5v4.02c0,.42.47.64.8.39.93-.7,2.04-1.17,3.25-1.33.25-.03.44-.24.44-.49V3h-2.5c-1.1,0-2,.9-2,2Z"/><path d="m12.5,7.58c0,.25.19.46.44.49,1.58.21,2.99.95,4.06,2.04v-5.11c0-1.1-.9-2-2-2h-2.5v4.58Z"/></svg>