<svg xmlns="http://www.w3.org/2000/svg" width="24" height="24" viewBox="0 0 24 24"><path d="M17.5 4h-11C4.57 4 3 5.57 3 7.5v7C3 16.43 4.57 18 6.5 18H7v1.75c0 .6.34 1.13.89 1.37a1.5 1.5 0 0 0 1.62-.26l3.19-2.87h4.81c1.93 0 3.5-1.57 3.5-3.5v-7c0-1.93-1.57-3.5-3.5-3.5Zm-11 7h2c.28 0 .5.22.5.5s-.22.5-.5.5h-2c-.28 0-.5-.22-.5-.5s.22-.5.5-.5m6 4h-6c-.28 0-.5-.22-.5-.5s.22-.5.5-.5h6c.28 0 .5.22.5.5s-.22.5-.5.5m5 0h-2c-.28 0-.5-.22-.5-.5s.22-.5.5-.5h2c.28 0 .5.22.5.5s-.22.5-.5.5m0-3h-6c-.28 0-.5-.22-.5-.5s.22-.5.5-.5h6c.28 0 .5.22.5.5s-.22.5-.5.5"/></svg>