<svg xmlns="http://www.w3.org/2000/svg" viewBox="0 0 24 24" width="24" height="24"><path d="m20.5,4c-.28,0-.5.22-.5.5,0,4.24-3.32,7.71-7.5,7.97v-1.83c3.17-.26,5.67-2.91,5.67-6.14,0-.28-.22-.5-.5-.5s-.5.22-.5.5c0,2.68-2.06,4.86-4.67,5.12v-1.83c1.6-.24,2.83-1.62,2.83-3.28,0-.28-.22-.5-.5-.5s-.5.22-.5.5c0,1.11-.79,2.05-1.83,2.28v-2.28c0-.28-.22-.5-.5-.5s-.5.22-.5.5v2.28c-1.05-.23-1.83-1.16-1.83-2.28,0-.28-.22-.5-.5-.5s-.5.22-.5.5c0,1.67,1.23,3.04,2.83,3.28v1.83c-2.61-.26-4.67-2.44-4.67-5.12,0-.28-.22-.5-.5-.5s-.5.22-.5.5c0,3.23,2.5,5.89,5.67,6.14v1.83c-4.18-.26-7.5-3.73-7.5-7.97,0-.28-.22-.5-.5-.5s-.5.22-.5.5c0,4.79,3.77,8.71,8.5,8.97v5.53h-3c-.28,0-.5.22-.5.5s.22.5.5.5h7c.28,0,.5-.22.5-.5s-.22-.5-.5-.5h-3v-5.53c4.73-.26,8.5-4.18,8.5-8.97,0-.28-.22-.5-.5-.5Z"/></svg>