<svg xmlns="http://www.w3.org/2000/svg" viewBox="0 0 24 24" width="24" height="24"><path d="m8.81,14c1.18,0,1.73-.48,2.43-.97.76-.53,1.89-.91,2.75-.51.38.17,1.54.51,2,.51,1,0,2.12-.89,1.99-2.29-.25-2.65-2.84-4.74-5.99-4.74s-5.68,2.04-5.98,4.66c-.18,1.59.95,3.34,2.8,3.34Zm.68-5c.83,0,1.5.67,1.5,1.5s-.67,1.5-1.5,1.5-1.5-.67-1.5-1.5.67-1.5,1.5-1.5Z"/><path d="m20.96,11.5c0-.08.01-.16,0-.24-.37-4.64-4.31-8.27-8.97-8.27S3.49,6.49,3.04,11.12c0,.02,0,.03,0,.05h0v.26c-.01.28-.02.56,0,.83v2.64c-.29,2.99,1.64,5.64,4.39,6.05.27.04.54.06.8.06,1.2,0,2.35-.41,3.29-1.18.9-.74,2.12-.84,3.17-.27.62.33,1.32.51,2.03.51h0c1.08,0,2.1-.48,2.89-1.33.96-1.04,1.46-2.51,1.35-3.89l.03-3.33h-.03Zm-16.93-.29c.4-4.11,3.82-7.21,7.96-7.21s7.64,3.23,7.97,7.35c.09,1.06-.28,2.15-.98,2.91-.6.66-1.41,1.02-2.27,1.02-.54.03-1.08-.13-1.56-.39-1.42-.76-3.06-.62-4.28.38-.93.76-2.11,1.08-3.32.9-2.22-.33-3.78-2.51-3.54-4.96Z"/></svg>