<svg xmlns="http://www.w3.org/2000/svg" viewBox="0 0 24 24" width="24" height="24"><path d="m17.5,4H6.5c-1.93,0-3.5,1.57-3.5,3.5v9c0,1.93,1.57,3.5,3.5,3.5h11c1.93,0,3.5-1.57,3.5-3.5V7.5c0-1.93-1.57-3.5-3.5-3.5Zm-4.18,10.92l-2.56,1.6c-.33.21-.77-.03-.77-.42v-3.2c0-.39.43-.63.77-.42l2.56,1.6c.31.2.31.65,0,.85Zm-1.54-5.92l-2.4-4h2.83l2.4,4h-2.83Zm4,0l-2.4-4h2.83l2.4,4h-2.83Zm-7.57-4l2.4,4h-2.83l-2.28-3.79c.3-.13.64-.21.99-.21h1.72Zm-4.22,2.5c0-.66.26-1.27.69-1.71l1.93,3.21h-2.62v-1.5Zm16,1.5h-.22l-2.4-4h.12c1.38,0,2.5,1.12,2.5,2.5v1.5Z"/></svg>