<svg xmlns="http://www.w3.org/2000/svg" width="24" height="24" viewBox="0 0 24 24"><path d="M6.5 18H7v1.75c0 .6.34 1.13.89 1.37a1.5 1.5 0 0 0 1.62-.26l3.19-2.87h4.81c1.93 0 3.5-1.57 3.5-3.5v-7c0-1.93-1.57-3.5-3.5-3.5H6.5C4.57 3.99 3 5.56 3 7.49v7c0 1.93 1.57 3.5 3.5 3.5Zm2.65-9.15c-.2-.2-.2-.51 0-.71s.51-.2.71 0l2.15 2.15 2.15-2.15c.2-.2.51-.2.71 0s.2.51 0 .71L12.72 11l2.15 2.15c.2.2.2.51 0 .71a.485.485 0 0 1-.7 0l-2.15-2.15-2.15 2.15a.485.485 0 0 1-.7 0c-.2-.2-.2-.51 0-.71L11.32 11 9.17 8.85Z"/></svg>