<svg xmlns="http://www.w3.org/2000/svg" viewBox="0 0 24 24" width="24" height="24"><path d="m18,5.29c-1.93-1.73-4.43-2.53-7.03-2.23-4.03.45-7.34,3.69-7.88,7.7-.32,2.33.27,4.66,1.65,6.54.13.18.14.4.03.56l-1.11,1.57c-.22.31-.24.7-.07,1.04.17.33.51.54.89.54h7.53c4.96,0,9-4.04,9-9,0-2.56-1.09-5-3-6.71Zm-11,4.21c0-.83.67-1.5,1.5-1.5s1.5.67,1.5,1.5-.67,1.5-1.5,1.5-1.5-.67-1.5-1.5Zm9.12,5.5h-8.05c-.42,0-.66-.49-.38-.82l1.29-1.55c.28-.34.79-.36,1.11-.05l.54.54c.21.21.54.19.73-.03l1.97-2.3c.33-.39.95-.34,1.21.1l2.01,3.35c.2.33-.04.76-.43.76Z"/></svg>