<svg xmlns="http://www.w3.org/2000/svg" width="24" height="24" viewBox="0 0 24 24"><path d="M17 4a3 3 0 1 0 0 6 3 3 0 1 0 0-6"/><path d="M18.66 17.95c.21-.44.34-.93.34-1.45v-5.49c-.61.3-1.28.49-2 .49-2.48 0-4.5-2.02-4.5-4.5 0-.72.19-1.39.49-2H7.5c-.52 0-1.01.13-1.45.34L3.86 3.15c-.2-.2-.51-.2-.71 0s-.2.51 0 .71l17 17a.485.485 0 0 0 .7 0c.2-.2.2-.51 0-.71l-2.19-2.19ZM4.9 8.43c-.31-.31-.81-.1-.85.33-.04.35-.04.56-.04.74v7c0 1.93 1.57 3.5 3.5 3.5h7c.17 0 .31 0 .74-.04.43-.05.64-.54.33-.85z"/></svg>