<svg xmlns="http://www.w3.org/2000/svg" viewBox="0 0 24 24" width="24" height="24"><path d="m20.6,11.01c-.26-.06-.53.12-.59.39l-.85,4.23c-.1.09-.16.22-.16.36h-2c-1.1,0-2,.9-2,2v2.5c0,.28.22.5.5.5s.5-.22.5-.5v-2.5c0-.55.45-1,1-1h2v3.5c0,.28.22.5.5.5s.5-.22.5-.5v-3.95l.99-4.95c.05-.27-.12-.53-.39-.59Z"/><path d="m7,16h-2c0-.15-.06-.27-.16-.36l-.85-4.23c-.05-.27-.33-.45-.59-.39-.27.05-.45.32-.39.59l.99,4.95v3.95c0,.28.22.5.5.5s.5-.22.5-.5v-3.5h2c.55,0,1,.45,1,1v2.5c0,.28.22.5.5.5s.5-.22.5-.5v-2.5c0-1.1-.9-2-2-2Z"/><path d="m17.5,14c.28,0,.5-.22.5-.5s-.22-.5-.5-.5h-5v-4h6.5c.16,0,.3-.07.4-.2.09-.12.12-.29.08-.44-.88-3.16-3.96-5.37-7.48-5.37s-6.6,2.21-7.48,5.37c-.04.15-.01.31.08.44.09.12.24.2.4.2h6.5v4h-5c-.28,0-.5.22-.5.5s.22.5.5.5h5v6.5c0,.28.22.5.5.5s.5-.22.5-.5v-6.5h5Z"/></svg>