<svg xmlns="http://www.w3.org/2000/svg" viewBox="0 0 24 24" width="24" height="24"><rect x="13" y="14" width="8" height="6" rx="1" ry="1"/><path d="m9.21,13h2.29c.28,0,.5-.22.5-.5v-2.29c0-.45-.54-.67-.85-.35l-.79.79-2.5-2.5c-.2-.2-.51-.2-.71,0s-.2.51,0,.71l2.5,2.5-.79.79c-.32.32-.09.85.35.85Z"/><path d="m5.5,19h5c.28,0,.5-.22.5-.5s-.22-.5-.5-.5h-5c-.83,0-1.5-.67-1.5-1.5V6.5c0-.83.67-1.5,1.5-1.5h12c.83,0,1.5.67,1.5,1.5v5c0,.28.22.5.5.5s.5-.22.5-.5v-5c0-1.38-1.12-2.5-2.5-2.5H5.5c-1.38,0-2.5,1.12-2.5,2.5v10c0,1.38,1.12,2.5,2.5,2.5Z"/></svg>