<svg xmlns="http://www.w3.org/2000/svg" width="24" height="24" viewBox="0 0 24 24"><path d="M17.48 20.98h.1c.66 0 1.27-.32 1.64-.86l.82-1.18c.31-.44.42-.98.32-1.51s-.41-.99-.86-1.29l-2.3-1.53c-.82-.55-1.91-.42-2.58.31l-1.01 1.09c-.08.09-.21.11-.31.05-.7-.4-2.04-1.24-3.08-2.29-1.04-1.04-1.88-2.38-2.28-3.08-.06-.1-.04-.23.05-.31l1.09-1.01c.72-.67.85-1.75.31-2.58l-1.54-2.3c-.3-.45-.76-.75-1.29-.86-.53-.1-1.07.01-1.51.32l-1.17.81c-.57.4-.9 1.05-.86 1.75.09 1.8.7 6.4 4.38 10.08s8.28 4.29 10.08 4.38ZM15 3c-1.6 0-3.11.62-4.24 1.76l.71.71c.94-.94 2.2-1.46 3.54-1.46s2.59.52 3.54 1.46a5.003 5.003 0 0 1 0 7.07l.71.71a6.01 6.01 0 0 0 0-8.49A5.97 5.97 0 0 0 15.02 3Z"/><path d="M17.12 11.12c.57-.57.88-1.32.88-2.12s-.31-1.55-.88-2.12c-1.13-1.13-3.11-1.13-4.24 0l.71.71c.76-.76 2.07-.76 2.83 0a1.983 1.983 0 0 1 0 2.82l.71.71Z"/></svg>