<svg xmlns="http://www.w3.org/2000/svg" viewBox="0 0 24 24" width="24" height="24"><path d="M12 3A2.5 2.5 0 1 0 12 8 2.5 2.5 0 1 0 12 3z"/><path d="M18.5 6A2.5 2.5 0 1 0 18.5 11 2.5 2.5 0 1 0 18.5 6z"/><path d="M5.5 6A2.5 2.5 0 1 0 5.5 11 2.5 2.5 0 1 0 5.5 6z"/><path d="m16.84,11.97c-.55-.14-1.05-.42-1.45-.81l-.49-.49c-1.6-1.58-4.21-1.58-5.8,0l-.49.48c-.4.4-.9.68-1.48.82-1.84.46-3.13,2.1-3.13,4,0,1.39.7,2.68,1.86,3.45.68.45,1.47.68,2.26.68.56,0,1.11-.11,1.64-.34l.99-.43c.79-.34,1.7-.34,2.49,0l.99.43c1.28.55,2.74.43,3.9-.34s1.86-2.05,1.86-3.45c0-1.9-1.29-3.55-3.16-4.01Z"/></svg>