<svg xmlns="http://www.w3.org/2000/svg" viewBox="0 0 24 24" width="24" height="24"><path d="m12.54,12.2l1.97-2.03c.67-.69.65-1.78-.04-2.46-.66-.63-1.73-.54-2.37.11l-.1.1-.1-.1c-.64-.65-1.71-.75-2.37-.11-.7.67-.71,1.77-.04,2.46l1.97,2.03c.29.3.78.3,1.08,0Z"/><path d="M6.5 6A1.5 1.5 0 1 0 6.5 9 1.5 1.5 0 1 0 6.5 6z"/><path d="m17.73,10c-.61,0-1.17.24-1.6.66l-2.78,2.78c-.72.72-1.98.72-2.71,0l-2.78-2.78c-.43-.43-1-.66-1.6-.66-1.25,0-2.27,1.02-2.27,2.27v4.73h4v-4.79l1.94,1.94c1.1,1.1,3.02,1.1,4.12,0l1.94-1.94v4.79h4v-4.73c0-1.25-1.02-2.27-2.27-2.27Z"/><path d="M17.5 6A1.5 1.5 0 1 0 17.5 9 1.5 1.5 0 1 0 17.5 6z"/></svg>