<svg xmlns="http://www.w3.org/2000/svg" viewBox="0 0 24 24" width="24" height="24"><path d="m18.5,4H5.5c-1.93,0-3.5,1.57-3.5,3.5v9c0,1.93,1.57,3.5,3.5,3.5h13c1.93,0,3.5-1.57,3.5-3.5V7.5c0-1.93-1.57-3.5-3.5-3.5Zm.5,3.5c0,.28-.22.5-.5.5h-6c-.28,0-.5-.22-.5-.5s.22-.5.5-.5h6c.28,0,.5.22.5.5Zm0,2c0,.28-.22.5-.5.5h-6c-.28,0-.5-.22-.5-.5s.22-.5.5-.5h6c.28,0,.5.22.5.5Zm-11.5-3.5c1.38,0,2.5,1.12,2.5,2.5s-1.12,2.5-2.5,2.5-2.5-1.12-2.5-2.5,1.12-2.5,2.5-2.5Zm13.5,10.5c0,1.38-1.12,2.5-2.5,2.5H5.5c-1.38,0-2.5-1.12-2.5-2.5v-3.5h2v3.5c0,.28.22.5.5.5s.5-.22.5-.5v-3.5h2.25v3.5c0,.28.22.5.5.5s.5-.22.5-.5v-3.5h2.25v3.5c0,.28.22.5.5.5s.5-.22.5-.5v-3.5h2.25v3.5c0,.28.22.5.5.5s.5-.22.5-.5v-3.5h2.25v3.5c0,.28.22.5.5.5s.5-.22.5-.5v-3.5h2v3.5Z"/></svg>