<svg xmlns="http://www.w3.org/2000/svg" viewBox="0 0 24 24" width="24" height="24"><path d="m11,9.45c-.84,0-1.55.71-1.55,1.55s.71,1.55,1.55,1.55,1.55-.71,1.55-1.55-.71-1.55-1.55-1.55Z"/><path d="m19,9.89c-.06-3.34-2.92-6.89-7.5-6.89-4.22,0-8.5,2.58-8.5,7.5,0,2.05.72,3.87,2.13,5.4.56.61.87,1.36.87,2.1v2.5c0,.28.22.5.5.5h7c.28,0,.5-.22.5-.5v-1c0-.28.22-.5.5-.5h2c.83,0,1.5-.67,1.5-1.5v-2c0-.28.22-.5.5-.5h.46c.51,0,.98-.26,1.26-.68.28-.43.32-.96.11-1.43l-1.33-3Zm-4.84,1.11c0,.19-.02.38-.05.57l.33.19c.31.18.41.57.23.88l-.42.73c-.18.31-.57.41-.88.23l-.34-.2c-.29.25-.62.44-.97.57v.39c0,.35-.29.64-.64.64h-.84c-.35,0-.64-.29-.64-.64v-.39c-.35-.13-.68-.32-.97-.57l-.34.2c-.31.18-.7.07-.88-.23l-.42-.73c-.18-.31-.07-.7.23-.88l.33-.19c-.04-.19-.05-.38-.05-.57s.02-.38.05-.57l-.33-.19c-.31-.18-.41-.57-.23-.88l.42-.73c.18-.31.57-.41.88-.23l.34.2c.29-.25.62-.44.97-.57v-.39c0-.35.29-.64.64-.64h.84c.35,0,.64.29.64.64v.39c.35.13.68.32.97.57l.34-.2c.31-.18.7-.07.88.23l.42.73c.18.31.07.7-.23.88l-.33.19c.04.19.05.38.05.57Z"/></svg>