<svg xmlns="http://www.w3.org/2000/svg" viewBox="0 0 24 24" width="24" height="24"><path d="m19.41,3.71c-.78-.78-2.05-.78-2.83,0l-2.09,2.09-.94-.94c-.57-.57-1.55-.57-2.12,0l-4.79,4.79c-.2.2-.2.51,0,.71.1.1.23.15.35.15s.26-.05.35-.15l4.79-4.79c.2-.2.51-.2.71,0l.94.94L4.65,15.65s-.09.1-.11.17l-1.35,3.37c-.19.47-.08.99.28,1.35.24.24.55.37.88.37.16,0,.32-.03.47-.09l3.38-1.35c.06-.03.12-.06.17-.11l11.94-11.94c.38-.38.59-.88.59-1.41s-.21-1.04-.59-1.41l-.88-.88Zm.17,3l-1.94,1.94-2.29-2.29,1.94-1.94c.38-.38,1.04-.38,1.41,0l.88.88c.19.19.29.44.29.71s-.1.52-.29.71Z"/></svg>