<svg xmlns="http://www.w3.org/2000/svg" viewBox="0 0 24 24" width="24" height="24"><path d="m20.01,7.63l-7-4.12c-.62-.37-1.4-.37-2.03,0h0L3.99,7.63c-.61.36-.99,1.02-.99,1.72v5.28c0,.71.38,1.37.99,1.72l7,4.12c.31.18.66.28,1.01.28s.7-.09,1.01-.28l7-4.12c.61-.36.99-1.02.99-1.72v-5.28c0-.71-.38-1.37-.99-1.72Zm-8.52-3.26c.31-.18.7-.18,1.01,0l7,4.12s0,0,0,0l-3.26,1.92-7.51-4.42,2.76-1.62Zm-3.74,2.2l7.51,4.42-2.76,1.62c-.31.18-.7.18-1.01,0l-7.01-4.12s0,0,0,0l3.26-1.92Zm11.76,8.92l-7,4.12s0,0,0,0v-5.93c.18-.05.35-.11.51-.21l2.74-1.61v2.63c0,.28.22.5.5.5s.5-.22.5-.5v-3.21l3.25-1.91v5.27c0,.35-.19.68-.49.86Z"/></svg>