<svg xmlns="http://www.w3.org/2000/svg" viewBox="0 0 24 24" width="24" height="24"><path d="m18.5,3H6.5c-1.38,0-2.5,1.12-2.5,2.5v13c0,.18.02.35.06.52.21,1.21,1.1,1.74,1.86,1.91.05.01.09.02.14.03.16.03.31.04.44.04h13c.28,0,.5-.22.5-.5s-.22-.5-.5-.5H6.5s0,0,0,0c-.09,0-.18-.01-.27-.03-.01,0-.03,0-.04,0-.57-.12-1.03-.57-1.15-1.14-.02-.1-.04-.2-.04-.32,0-.83.67-1.5,1.5-1.5h12c.83,0,1.5-.67,1.5-1.5V4.5c0-.83-.67-1.5-1.5-1.5ZM7,7.5c0-.83.67-1.5,1.5-1.5s1.5.67,1.5,1.5-.67,1.5-1.5,1.5-1.5-.67-1.5-1.5Zm9.96,6.5h-8.89c-.42,0-.66-.49-.38-.82l1.29-1.55c.28-.34.79-.36,1.11-.05l.54.54c.21.21.54.19.73-.03l2.06-2.4c.31-.36.86-.35,1.16.02l2.78,3.48c.26.33.03.81-.39.81Z"/></svg>