<svg xmlns="http://www.w3.org/2000/svg" viewBox="0 0 24 24" width="24" height="24"><path d="m11,12h.75c3.17,0,5.77-2.47,5.98-5.59.01-.19-.09-.38-.25-.47-1.03-.59-2.21-.93-3.48-.93H5.38c-.76,0-1.38-.62-1.38-1.38v-.12c0-.28-.22-.5-.5-.5s-.5.22-.5.5v.12c0,1.18.87,2.16,2,2.34v.04c0,3.31,2.69,6,6,6Zm-1-5c.55,0,1,.45,1,1s-.45,1-1,1-1-.45-1-1,.45-1,1-1Z"/><path d="m19.39,7.55c-.26-.32-.77-.19-.87.21-.45,1.72-1.54,3.19-3,4.13-.25.16-.29.52-.09.73.35.36.56.84.56,1.38,0,.14-.01.27-.04.4-.05.22.14.41.36.36,2.46-.54,4.16-1.97,4.54-3.89.01-.07.01-.15,0-.23-.23-1.16-.74-2.22-1.47-3.09Z"/><path d="m20.23,13.91c-1.4,1.31-3.57,2.09-6.18,2.09h0s-.03,0-.05,0h-4.35c-.56-1.18-1.76-2-3.15-2h-.94c-.32,0-.56.29-.5.6.33,1.69,1.94,2.9,1.94,2.9,0,0-1.61,1.21-1.94,2.9-.06.31.18.6.5.6h.94c1.39,0,2.59-.82,3.15-2h4.35c3.11,0,5.74-2.03,6.65-4.83.08-.25-.23-.43-.42-.25Z"/></svg>