<svg xmlns="http://www.w3.org/2000/svg" width="24" height="24" viewBox="0 0 24 24"><path d="M13.77 13.06c-.2-.2-.51-.2-.71 0l-1.77 1.77-2.12-2.12 1.77-1.77c.2-.2.2-.51 0-.71s-.51-.2-.71 0L8.46 12l-.88-.88c-.24-.24-.55-.37-.88-.37s-.65.13-.88.37l-.88.88a3.513 3.513 0 0 0 0 4.95l.71.71-1.77 1.77c-.2.2-.2.51 0 .71a.485.485 0 0 0 .7 0l1.77-1.77.71.71c.68.68 1.58 1.02 2.47 1.02s1.79-.34 2.48-1.02l.88-.88a1.234 1.234 0 0 0 0-1.76l-.88-.88 1.77-1.77c.2-.2.2-.51 0-.71ZM20.13 3.87c-.2-.2-.51-.2-.71 0l-1.77 1.77-.71-.71a3.513 3.513 0 0 0-4.95 0l-.88.88a1.234 1.234 0 0 0 0 1.76l5.3 5.3c.24.24.55.37.88.37s.65-.13.88-.37l.88-.88a3.513 3.513 0 0 0 0-4.95l-.71-.71 1.77-1.77c.2-.2.2-.51 0-.71Z"/></svg>