<svg xmlns="http://www.w3.org/2000/svg" viewBox="0 0 24 24" width="24" height="24"><path d="m19.41,6.21c-.78-.78-2.05-.78-2.83,0l-.84.84,4.71,4.71.84-.84c.38-.38.59-.88.59-1.41s-.21-1.04-.59-1.41l-1.88-1.88Z"/><path d="m14.43,8.36c-.12.12-.28.21-.44.26l-4.24,1.16c-.72.2-1.26.77-1.43,1.5l-1.71,7.71c-.08.35,0,.71.21.99l4.84-4.84h.01c-.1-.19-.16-.41-.16-.65,0-.83.67-1.5,1.5-1.5s1.5.67,1.5,1.5-.67,1.5-1.5,1.5c-.24,0-.46-.06-.66-.16h.01s-4.82,4.84-4.82,4.84c.21.15.45.25.71.25.09,0,.18,0,.27-.03l7.71-1.71c.73-.16,1.3-.71,1.5-1.43l1.16-4.24c.05-.17.13-.32.26-.44l.61-.61-4.71-4.71-.61.61Z"/><path d="m6.19,4.3c-.57-.88-1.78-1.3-3.69-1.3-.28,0-.5.22-.5.5s.22.5.5.5c1.53,0,2.49.29,2.85.85.63.97-.29,3.01-1.26,5.18-.98,2.19-2.09,4.66-2.09,6.97,0,1.89.52,3.13,1.56,3.7.42.23.89.32,1.36.32.45,0,.9-.08,1.31-.2l-.12-.12-.06-.06-.05-.07c-.14-.2-.24-.41-.31-.64-.59.13-1.19.15-1.65-.1-.69-.38-1.04-1.33-1.04-2.82,0-2.1,1.06-4.47,2-6.56,1.13-2.53,2.11-4.71,1.19-6.13Z"/></svg>