<svg xmlns="http://www.w3.org/2000/svg" width="24" height="24" viewBox="0 0 24 24"><path d="M17.5 10c-1.21 0-2.31.48-3.12 1.26.09-.3.19-.57.29-.81l.05-.11c.15-.32.29-.62.51-.93.18-.3.4-.57.72-.91.14-.17.32-.32.51-.47.1-.08.2-.16.29-.24.17-.14.36-.25.54-.35.11-.06.21-.12.32-.19.15-.1.32-.16.49-.23.1-.04.2-.08.27-.11l.19-.08c.17-.07.33-.13.48-.16l1.06-.26a.49.49 0 0 0 .37-.6.5.5 0 0 0-.6-.37l-1.04.26c-.22.04-.44.13-.65.21l-.2.08c-.08.03-.16.06-.24.1-.21.08-.45.17-.68.33-.09.06-.18.11-.27.16-.21.12-.46.26-.7.46-.08.07-.17.14-.26.21-.22.17-.47.37-.65.61-.29.31-.58.65-.79 1.01-.25.34-.42.7-.58 1.05l-.06.12c-.15.36-.29.74-.41 1.18q-.27 1.005-.33 2.13-.03.63 0 1.05v.1c0 2.49 2.01 4.5 4.5 4.5s4.5-2.01 4.5-4.5S20 10 17.51 10ZM6.5 10c-1.21 0-2.31.48-3.12 1.26.09-.3.19-.57.29-.81l.05-.11c.15-.32.29-.62.51-.93.18-.3.4-.57.72-.91.14-.17.32-.32.51-.47.1-.08.2-.16.29-.24.17-.14.36-.25.54-.35.11-.06.21-.12.32-.19.15-.1.32-.16.49-.23.1-.04.2-.08.27-.11l.19-.08c.17-.07.33-.13.48-.16l1.06-.26a.49.49 0 0 0 .37-.6.5.5 0 0 0-.6-.37l-1.04.26c-.22.04-.44.13-.65.21l-.2.08c-.08.03-.16.06-.24.1-.21.08-.45.17-.68.33-.09.06-.18.11-.27.16-.21.12-.46.26-.7.46-.08.07-.17.14-.26.21-.22.17-.47.37-.65.61-.29.31-.58.65-.79 1.01-.25.34-.42.7-.58 1.05l-.06.12c-.15.36-.29.74-.41 1.18q-.27 1.005-.33 2.13-.03.63 0 1.05v.1c0 2.49 2.01 4.5 4.5 4.5s4.5-2.01 4.5-4.5S9 10 6.51 10Z"/></svg>