<svg xmlns="http://www.w3.org/2000/svg" width="24" height="24" viewBox="0 0 24 24"><path d="m20.15 4.85-1.32 1.32C17.17 4.22 14.7 2.98 11.94 3c-4.73.04-8.67 3.79-8.92 8.51C2.74 16.69 6.88 21 12.01 21c4.79 0 8.72-3.76 8.99-8.48a.49.49 0 0 0-.49-.52c-.27 0-.49.2-.5.47-.24 4.19-3.73 7.53-7.99 7.53-4.56 0-8.24-3.83-7.99-8.44.22-4.12 3.6-7.42 7.72-7.56 2.57-.08 4.86 1.06 6.38 2.87l-1.27 1.27c-.32.32-.09.85.35.85h3.29c.28 0 .5-.22.5-.5V5.2c0-.45-.54-.67-.85-.35"/><path d="M12.28 14.08c-.19.09-.41.13-.66.13-.29 0-.55-.06-.8-.17-.07-.03-.13-.07-.18-.1a.65.65 0 0 0-.82.09l-.06.06c-.31.3-.25.82.12 1.04q.195.12.42.21c.42.17.88.25 1.37.25.56 0 1.05-.1 1.46-.31s.73-.49.96-.86.35-.78.35-1.25q0-.645-.27-1.17c-.18-.35-.45-.64-.81-.85s-.79-.32-1.31-.32c-.23 0-.42.02-.59.06-.09.02-.16.06-.24.09l.14-1.23h2.04a.66.66 0 1 0 0-1.32h-2.71c-.34 0-.63.26-.66.6l-.24 2.34c-.02.24.06.47.24.63.21.2.53.26.79.15.05-.02.1-.04.16-.06q.3-.09.66-.09c.36 0 .46.04.65.13s.34.22.44.38c.11.17.16.37.16.6a1.04 1.04 0 0 1-.6.98Z"/></svg>