<svg xmlns="http://www.w3.org/2000/svg" width="24" height="24" viewBox="0 0 24 24"><path d="M12 9a3 3 0 1 0 0 6 3 3 0 1 0 0-6"/><path d="M17.21 9h3.29c.28 0 .5-.22.5-.5V5.21c0-.45-.54-.67-.85-.35l-1.32 1.32c-1.66-1.95-4.13-3.19-6.89-3.17-4.73.04-8.67 3.79-8.92 8.51-.28 5.18 3.86 9.49 8.99 9.49 4.79 0 8.72-3.76 8.99-8.48a.49.49 0 0 0-.49-.52c-.27 0-.49.2-.5.47-.24 4.19-3.73 7.53-7.99 7.53-4.56 0-8.24-3.83-7.99-8.44.22-4.12 3.6-7.42 7.72-7.56 2.57-.08 4.86 1.06 6.38 2.87l-1.27 1.27c-.32.32-.09.85.35.85"/></svg>