<svg xmlns="http://www.w3.org/2000/svg" viewBox="0 0 24 24" width="24" height="24"><path d="m20,11v-.5c0-1.93-1.57-3.5-3.5-3.5h-4v-1.09c.58-.21,1-.76,1-1.41,0-.83-.67-1.5-1.5-1.5s-1.5.67-1.5,1.5c0,.65.42,1.2,1,1.41v1.09h-4c-1.93,0-3.5,1.57-3.5,3.5v.5c-.55,0-1,.45-1,1v4c0,.55.45,1,1,1v.5c0,1.93,1.57,3.5,3.5,3.5h9c1.93,0,3.5-1.57,3.5-3.5v-.5c.55,0,1-.45,1-1v-4c0-.55-.45-1-1-1Zm-13,1c0-1.1.67-2,1.5-2s1.5.9,1.5,2-.67,2-1.5,2-1.5-.9-1.5-2Zm8.5,5h-7c-.28,0-.5-.22-.5-.5s.22-.5.5-.5h7c.28,0,.5.22.5.5s-.22.5-.5.5Zm0-3c-.83,0-1.5-.9-1.5-2s.67-2,1.5-2,1.5.9,1.5,2-.67,2-1.5,2Z"/></svg>