<svg xmlns="http://www.w3.org/2000/svg" viewBox="0 0 24 24" width="24" height="24"><path d="m18.28,6.09s-.03-.03-.05-.04l-6-3c-.25-.12-.55-.02-.67.22-.12.25-.02.55.22.67l4.11,2.05H6.5c-1.93,0-3.5,1.57-3.5,3.5v7c0,1.93,1.57,3.5,3.5,3.5h11c1.93,0,3.5-1.57,3.5-3.5v-7c0-1.66-1.17-3.05-2.72-3.41Zm-12.28,10.41c0-.28.22-.5.5-.5h5c.28,0,.5.22.5.5s-.22.5-.5.5h-5c-.28,0-.5-.22-.5-.5Zm0-2c0-.28.22-.5.5-.5h5c.28,0,.5.22.5.5s-.22.5-.5.5h-5c-.28,0-.5-.22-.5-.5Zm8,1c0-1.38,1.12-2.5,2.5-2.5s2.5,1.12,2.5,2.5-1.12,2.5-2.5,2.5-2.5-1.12-2.5-2.5Zm6-4.5H4v-1.5c0-1.38,1.12-2.5,2.5-2.5h11c1.38,0,2.5,1.12,2.5,2.5v1.5Z"/></svg>