<svg xmlns="http://www.w3.org/2000/svg" viewBox="0 0 24 24" width="24" height="24"><path d="m9.94,6.21l.75-1.34c.14-.25.33-.44.57-.58.45-.25,1.04-.25,1.48,0,.24.13.43.33.57.58l3.04,5.44-.84.48c-.37.21-.32.76.08.9l2.1.77c.29.11.61-.08.67-.38l.38-2.2c.07-.42-.38-.73-.74-.52l-.78.45-3.03-5.43c-.23-.4-.56-.74-.95-.96-.74-.42-1.72-.42-2.46,0-.4.22-.72.55-.95.96l-.75,1.34c-.13.24-.05.55.19.68.24.13.54.05.68-.19Z"/><path d="m19.5,13.9c-.13-.24-.44-.33-.68-.19-.24.13-.33.44-.19.68l.77,1.38c.14.24.2.5.19.77,0,.25-.08.5-.21.72-.13.22-.31.41-.53.53-.23.14-.49.21-.77.21h-6.09v-.93c0-.42-.49-.66-.82-.38l-1.72,1.43c-.24.2-.24.57,0,.77l1.72,1.43c.33.27.82.04.82-.38v-.93h6.09c.45,0,.9-.12,1.28-.35.36-.21.66-.52.88-.89.21-.37.33-.78.35-1.2.01-.45-.1-.89-.32-1.28l-.77-1.38Z"/><path d="m8.19,7.53l-2.1.77c-.4.15-.44.69-.08.9l.84.48-3.12,5.59c-.22.39-.33.84-.32,1.29.01.42.13.83.35,1.2.21.37.52.67.88.89.38.23.82.35,1.28.35h1.52c.28,0,.5-.22.5-.5s-.22-.5-.5-.5h-1.52c-.28,0-.54-.07-.77-.21-.21-.13-.4-.31-.53-.53-.13-.22-.2-.47-.21-.72,0-.27.06-.53.19-.77l3.12-5.58.78.45c.37.21.81-.1.74-.52l-.38-2.2c-.05-.31-.37-.49-.67-.38Z"/></svg>