<svg xmlns="http://www.w3.org/2000/svg" width="24" height="24" viewBox="0 0 24 24"><path d="M4.5 15c-.28 0-.5.22-.5.5v4c0 .28.22.5.5.5s.5-.22.5-.5v-4c0-.28-.22-.5-.5-.5M8.25 12c-.28 0-.5.22-.5.5v7c0 .28.22.5.5.5s.5-.22.5-.5v-7c0-.28-.22-.5-.5-.5M12 15.5c-.28 0-.5.22-.5.5v3.5c0 .28.22.5.5.5s.5-.22.5-.5V16c0-.28-.22-.5-.5-.5M15.75 18.5c-.28 0-.5.22-.5.5v.5c0 .28.22.5.5.5s.5-.22.5-.5V19c0-.28-.22-.5-.5-.5M20 19.29V3.5c0-.28-.22-.5-.5-.5s-.5.22-.5.5v14.79l-2.76-2.76V6.5c0-.28-.22-.5-.5-.5s-.5.22-.5.5v8.04l-2.75-2.75V9.5c0-.28-.22-.5-.5-.5s-.5.22-.5.5v1.29L3.85 3.15c-.2-.2-.51-.2-.71 0s-.2.51 0 .71l8.5 8.5 7.5 7.5 1 1a.485.485 0 0 0 .7 0c.2-.2.2-.51 0-.71l-.85-.85Z"/></svg>