<svg xmlns="http://www.w3.org/2000/svg" viewBox="0 0 24 24" width="24" height="24"><path d="m21.5,17c-.83,0-1.22-.21-1.67-.44-.5-.26-1.06-.56-2.13-.56s-1.64.3-2.13.56c-.44.23-.83.43-1.62.44-.24,0-.45-.02-.65-.04-.45-.07-.74-.22-1.07-.39-.5-.26-1.06-.56-2.13-.56-.02,0-.03,0-.05,0-.02,0-.03,0-.05,0-.24,0-.42.02-.59.05-.07.01-.13.03-.19.04-.04,0-.09.02-.12.03-.47.11-.82.28-1.13.44-.17.09-.35.18-.53.25-.01,0-.02,0-.04.01h0c-.28.11-.61.18-1.1.18-.83,0-1.21-.21-1.67-.44-.5-.26-1.06-.56-2.13-.56-.28,0-.5.22-.5.5s.22.5.5.5c.83,0,1.21.21,1.67.44.5.26,1.06.56,2.13.56s1.64-.3,2.13-.56c.45-.24.84-.44,1.67-.44s1.21.21,1.67.44c.5.26,1.06.56,2.13.56s1.64-.3,2.13-.56c.45-.24.84-.44,1.67-.44s1.22.21,1.67.44c.5.26,1.06.56,2.13.56.28,0,.5-.22.5-.5s-.22-.5-.5-.5Z"/><path d="m21.5,20c-.83,0-1.22-.21-1.67-.44-.5-.26-1.06-.56-2.13-.56s-1.64.3-2.13.56c-.45.24-.84.44-1.67.44s-1.22-.21-1.67-.44c-.5-.26-1.06-.56-2.13-.56s-1.64.3-2.13.56c-.45.24-.84.44-1.67.44s-1.21-.21-1.67-.44c-.5-.26-1.06-.56-2.13-.56-.28,0-.5.22-.5.5s.22.5.5.5c.83,0,1.21.21,1.67.44.5.26,1.06.56,2.13.56s1.64-.3,2.13-.56c.45-.24.84-.44,1.67-.44s1.21.21,1.67.44c.5.26,1.06.56,2.13.56s1.64-.3,2.13-.56c.45-.24.84-.44,1.67-.44s1.22.21,1.67.44c.5.26,1.06.56,2.13.56.28,0,.5-.22.5-.5s-.22-.5-.5-.5Z"/><path d="m6.67,14.93c.33-.07.59-.18.88-.33.54-.27,1.21-.61,2.45-.61s1.91.34,2.45.61c.46.23.79.39,1.55.39s1.1-.17,1.55-.39c.49-.24,1.11-.53,2.14-.58l1.29-3.34c.1-.26-.03-.55-.29-.65l-1.68-.65v-2.89c0-.83-.67-1.5-1.5-1.5h-3v-1.5c0-.28-.22-.5-.5-.5s-.5.22-.5.5v1.5h-3c-.83,0-1.5.67-1.5,1.5v2.89l-1.68.65c-.26.1-.39.39-.29.65l1.64,4.25Zm1.33-8.43c0-.28.22-.5.5-.5h7c.28,0,.5.22.5.5v2.5l-3.82-1.47c-.12-.04-.24-.04-.36,0l-3.82,1.47v-2.5Z"/></svg>