<svg xmlns="http://www.w3.org/2000/svg" viewBox="0 0 24 24" width="24" height="24"><path d="m20.2,3.1l-3.24,2.43c-.08-.09-.15-.17-.23-.26-2.85-2.85-7.28-3.04-9.89-.44-1.27,1.27-1.92,3-1.83,4.88.09,1.86.89,3.64,2.27,5.01.53.53,1.11.96,1.73,1.3v3.97h-2.5c-.28,0-.5.22-.5.5s.22.5.5.5h6c.28,0,.5-.22.5-.5s-.22-.5-.5-.5h-2.5v-3.5c.85.33,1.74.5,2.62.5,1.68,0,3.31-.61,4.54-1.83,2.08-2.08,2.35-5.32.94-7.99l-4.3,3.23c-.09.07-.2.1-.3.1-.15,0-.3-.07-.4-.2-.17-.22-.12-.53.1-.7l4.39-3.29s0,0,0,0l3.21-2.41c.22-.17.27-.48.1-.7-.17-.22-.48-.26-.7-.1Z"/></svg>