<svg xmlns="http://www.w3.org/2000/svg" viewBox="0 0 24 24" width="24" height="24"><rect x="7" y="3" width="10" height="4" rx=".5" ry=".5"/><path d="m16.98,8H7.02c-.19,0-.37.11-.45.28l-3.16,6.54c-.31.64-.27,1.41.14,1.99.89,1.29,2.12,2.31,3.54,3.02.29.15.64-.04.71-.36l1.72-8.58c.05-.27.33-.45.59-.39.27.05.45.32.39.59l-1.78,8.91c-.05.26.1.52.35.59.94.26,1.92.4,2.94.4s2-.14,2.94-.4c.25-.07.4-.33.35-.59l-1.78-8.91c-.05-.27.12-.53.39-.59.26-.06.53.12.59.39l1.71,8.57c.06.32.42.5.71.36,1.25-.63,2.36-1.5,3.21-2.58.32-.41.47-.92.47-1.44v-.99l-3.16-6.54c-.08-.17-.26-.28-.45-.28Z"/></svg>