<svg xmlns="http://www.w3.org/2000/svg" viewBox="0 0 24 24" width="24" height="24"><path d="m20.5,13c-1.24,0-1.88.51-2.44.97-.52.42-.93.75-1.81.75s-1.29-.33-1.81-.75c-.56-.45-1.2-.97-2.44-.97s-1.88.51-2.44.97c-.52.42-.92.75-1.81.75s-1.29-.33-1.81-.75c-.56-.45-1.2-.97-2.44-.97-.28,0-.5.22-.5.5s.22.5.5.5c.88,0,1.29.33,1.81.75.56.45,1.2.97,2.44.97s1.88-.51,2.44-.97c.52-.42.92-.75,1.81-.75s1.3.33,1.81.75c.56.45,1.2.97,2.44.97s1.88-.51,2.44-.97c.52-.42.93-.75,1.81-.75.28,0,.5-.22.5-.5s-.22-.5-.5-.5Z"/><path d="m20.5,17.29c-1.24,0-1.88.51-2.44.97-.52.42-.93.75-1.81.75s-1.29-.33-1.81-.75c-.56-.45-1.2-.97-2.44-.97s-1.88.51-2.44.97c-.52.42-.92.75-1.81.75s-1.29-.33-1.81-.75c-.56-.45-1.2-.97-2.44-.97-.28,0-.5.22-.5.5s.22.5.5.5c.88,0,1.29.33,1.81.75.56.45,1.2.97,2.44.97s1.88-.51,2.44-.97c.52-.42.92-.75,1.81-.75s1.3.33,1.81.75c.56.45,1.2.97,2.44.97s1.88-.51,2.44-.97c.52-.42.93-.75,1.81-.75.28,0,.5-.22.5-.5s-.22-.5-.5-.5Z"/><path d="m17.5,9c.83,0,1.5-.67,1.5-1.5s-.67-1.5-1.5-1.5-1.5.67-1.5,1.5.67,1.5,1.5,1.5Z"/><path d="m7.85,9.85l1.17-1.17c1.17-1.17,2.98-1.33,4.33-.49l-3.07,3.29c.45-.2,1-.34,1.71-.34,1.46,0,2.24.59,2.86,1.06.52.39.86.65,1.65.65s1.13-.26,1.65-.65c.14-.1.29-.22.44-.32l-3.91-3.91c-1.75-1.75-4.61-1.75-6.36,0l-1.17,1.17c-.2.2-.2.51,0,.71s.51.2.71,0Z"/></svg>