<svg xmlns="http://www.w3.org/2000/svg" width="24" height="24" viewBox="0 0 24 24"><path d="M19 12c0-.28-.22-.5-.5-.5H11c-.38 0-.73-.04-1.04-.12a2.9 2.9 0 0 1-.74-.3q-.285-.165-.51-.42a2.6 2.6 0 0 1-.57-1.05c-.05-.19-.09-.37-.11-.54S8 8.74 7.99 8.6v-.33c0-.06.01-.15.03-.24.02-.1.05-.2.09-.32q.06-.18.18-.36c.09-.13.19-.26.31-.37.14-.13.3-.25.47-.36.2-.12.43-.23.69-.31.29-.1.61-.17.96-.22.76-.11 1.75-.12 2.5.01.33.06.63.14.89.25.23.09.43.21.6.34a1.99 1.99 0 0 1 .62.73c.06.11.09.22.12.31.07.27.34.42.61.35s.43-.35.35-.61c-.04-.14-.1-.31-.18-.49-.09-.2-.21-.38-.35-.55-.16-.2-.35-.38-.57-.55a4 4 0 0 0-.82-.46c-.33-.14-.7-.24-1.1-.31-.86-.15-1.96-.15-2.82-.02-.41.06-.79.15-1.13.27-.32.11-.62.24-.89.4-.24.15-.46.31-.65.5-.17.17-.32.35-.45.55q-.18.285-.27.54c-.07.17-.11.34-.14.49s-.04.28-.05.38v.4c0 .17.02.36.05.58s.07.45.14.68c.08.26.17.51.29.73.14.27.3.51.49.71.05.06.11.11.17.16H5.49c-.28 0-.5.22-.5.5s.22.5.5.5h13c.28 0 .5-.22.5-.5ZM14.82 18.4c.33-.17.64-.39.91-.64.24-.22.44-.47.62-.73.15-.23.27-.47.38-.73a3.913 3.913 0 0 0 .26-1.08.503.503 0 0 0-1-.1c0 .08-.02.2-.05.34s-.08.31-.15.49c-.08.2-.17.38-.29.55-.13.2-.28.39-.46.55q-.3.285-.69.48c-.29.15-.63.27-.99.35-.84.19-1.95.17-2.78.04-.38-.06-.72-.15-1.03-.26-.26-.1-.5-.21-.7-.35a2.04 2.04 0 0 1-.69-.74q-.075-.15-.12-.3c-.02-.08-.04-.15-.04-.2a.495.495 0 0 0-.55-.44c-.27.03-.47.28-.44.55.01.09.03.21.07.36.05.17.12.34.2.5.1.2.23.38.39.56q.27.3.63.54c.26.18.57.33.91.45.36.13.77.24 1.22.31.48.08 1.01.11 1.57.11s1.1-.05 1.58-.16c.45-.1.86-.25 1.23-.44Z"/></svg>