<svg xmlns="http://www.w3.org/2000/svg" viewBox="0 0 24 24" width="24" height="24"><path d="m10.2,3.18c-3.52.68-6.34,3.51-7.02,7.02-.96,4.94,2.11,9.6,6.99,10.61.24.05.47.07.71.07.92,0,1.81-.36,2.48-1.03l6.5-6.5c.84-.84,1.2-2.03.96-3.19-1.01-4.88-5.67-7.95-10.61-6.99Zm9.44,8.33l-8.13,8.13c-.15.15-.42.06-.44-.15-.04-.33-.07-.66-.07-1,0-.52.05-1.02.15-1.51.1-.49.25-.96.44-1.41.19-.45.42-.87.69-1.27.27-.4.58-.77.91-1.11.34-.34.71-.64,1.11-.91.4-.27.82-.5,1.27-.69.45-.19.92-.34,1.41-.44.49-.1.99-.15,1.51-.15.34,0,.67.02,1,.07.22.03.31.29.15.44Z"/></svg>