<svg xmlns="http://www.w3.org/2000/svg" width="24" height="24" viewBox="0 0 24 24"><path d="M20.15 6.85a.485.485 0 0 0 .7 0c.2-.2.2-.51 0-.71l-3-3c-.2-.2-.51-.2-.71 0s-.2.51 0 .71L18.29 5 17 6.29l-2.15-2.15-1-1c-.2-.2-.51-.2-.71 0s-.2.51 0 .71l.65.65-2.04 2.04 2.35 2.35c.2.2.2.51 0 .71a.485.485 0 0 1-.7 0l-2-2c-.2-.2-.51-.2-.71 0L9.6 8.69c-.2.2-.2.51 0 .71l2 2c.2.2.2.51 0 .71a.485.485 0 0 1-.7 0l-2-2c-.2-.2-.51-.2-.71 0L7.1 11.2c-.2.2-.2.51 0 .71l2 2c.2.2.2.51 0 .71a.485.485 0 0 1-.7 0l-2.19-2.19a.235.235 0 0 0-.33 0c-.56.56-.88 1.33-.88 2.12v3.76l-1.85 1.85c-.2.2-.2.51 0 .71a.485.485 0 0 0 .7 0l1.85-1.85h3.76c.8 0 1.56-.32 2.12-.88l7.91-7.91.65.65a.485.485 0 0 0 .7 0c.2-.2.2-.51 0-.71l-1-1-2.15-2.15 1.29-1.29 1.15 1.15Z"/></svg>