<svg xmlns="http://www.w3.org/2000/svg" viewBox="0 0 24 24" width="24" height="24"><path d="m19.75,5.08c-.56-1.26-1.82-2.08-3.2-2.08H7.45c-1.38,0-2.64.82-3.2,2.08l-1.08,2.43c-.11.26-.17.53-.17.81v1.06c0,.84.4,1.58,1.01,2.06,0,.02-.01.04-.01.07v6c0,1.93,1.57,3.5,3.5,3.5h9c1.93,0,3.5-1.57,3.5-3.5v-6s-.01-.05-.01-.07c.61-.48,1.01-1.22,1.01-2.06v-1.06c0-.28-.06-.55-.17-.81l-1.08-2.43Zm-12.48,2.79l-.02,1.51c0,.9-.73,1.62-1.62,1.62s-1.62-.73-1.62-1.62v-1.06c0-.14.03-.28.09-.41l1.08-2.43c.4-.9,1.3-1.48,2.28-1.48h.89l-1.07,3.87Zm.98,1.51v-1.31l1.13-4.07h2.12v5.38c0,.9-.73,1.62-1.62,1.62s-1.62-.73-1.62-1.62Zm6.75,10.62h-6v-3c0-1.66,1.34-3,3-3s3,1.34,3,3v3Zm.75-10.62c0,.9-.73,1.62-1.62,1.62s-1.62-.73-1.62-1.62v-5.38h2.12l1.13,4.07v1.31Zm4.25,0c0,.9-.73,1.62-1.62,1.62s-1.62-.73-1.62-1.62v-1.38l-1.09-4h.89c.99,0,1.88.58,2.28,1.48l1.08,2.43c.06.13.09.27.09.41v1.06Z"/></svg>