<svg xmlns="http://www.w3.org/2000/svg" width="24" height="24" viewBox="0 0 24 24"><path d="M21.5 17c-.83 0-1.22-.21-1.67-.44-.5-.26-1.06-.56-2.13-.56s-1.64.3-2.13.56c-.45.24-.84.44-1.67.44s-1.22-.21-1.67-.44c-.5-.26-1.06-.56-2.13-.56s-1.64.3-2.13.56c-.45.24-.84.44-1.67.44s-1.21-.21-1.67-.44C4.13 16.3 3.57 16 2.5 16c-.28 0-.5.22-.5.5s.22.5.5.5c.83 0 1.21.21 1.67.44.5.26 1.06.56 2.13.56s1.64-.3 2.13-.56c.45-.24.84-.44 1.67-.44s1.21.21 1.67.44c.5.26 1.06.56 2.13.56s1.64-.3 2.13-.56c.45-.24.84-.44 1.67-.44s1.22.21 1.67.44c.5.26 1.06.56 2.13.56.28 0 .5-.22.5-.5s-.22-.5-.5-.5M21.5 20c-.83 0-1.22-.21-1.67-.44-.5-.26-1.06-.56-2.13-.56s-1.64.3-2.13.56c-.45.24-.84.44-1.67.44s-1.22-.21-1.67-.44c-.5-.26-1.06-.56-2.13-.56s-1.64.3-2.13.56c-.45.24-.84.44-1.67.44s-1.21-.21-1.67-.44C4.13 19.3 3.57 19 2.5 19c-.28 0-.5.22-.5.5s.22.5.5.5c.83 0 1.21.21 1.67.44.5.26 1.06.56 2.13.56s1.64-.3 2.13-.56c.45-.24.84-.44 1.67-.44s1.21.21 1.67.44c.5.26 1.06.56 2.13.56s1.64-.3 2.13-.56c.45-.24.84-.44 1.67-.44s1.22.21 1.67.44c.5.26 1.06.56 2.13.56.28 0 .5-.22.5-.5s-.22-.5-.5-.5M21.5 8H16V5.5a2.5 2.5 0 0 0-5 0c0 .28.22.5.5.5s.5-.22.5-.5c0-.83.67-1.5 1.5-1.5s1.5.67 1.5 1.5V8h-5V5.5a2.5 2.5 0 0 0-5 0c0 .28.22.5.5.5s.5-.22.5-.5C6 4.67 6.67 4 7.5 4S9 4.67 9 5.5V8H2.5c-.28 0-.5.22-.5.5s.22.5.5.5H9v4.5c0 .28.22.5.5.5s.5-.22.5-.5V9h5v4.5c0 .28.22.5.5.5s.5-.22.5-.5V9h5.5c.28 0 .5-.22.5-.5s-.22-.5-.5-.5"/></svg>