<svg xmlns="http://www.w3.org/2000/svg" width="24" height="24" viewBox="0 0 24 24"><path d="M14 12c0-1.1-.9-2-2-2s-2 .9-2 2a2 2 0 1 0 4 0M8.11 15.89a.485.485 0 0 0 .7 0c.2-.2.2-.51 0-.71a4.48 4.48 0 0 1-1.32-3.19c0-1.2.47-2.33 1.32-3.18.2-.2.2-.51 0-.71s-.51-.2-.71 0a5.46 5.46 0 0 0-1.61 3.89c0 1.47.57 2.85 1.61 3.89ZM15.18 15.89a.485.485 0 0 0 .7 0c1.04-1.04 1.61-2.42 1.61-3.89s-.57-2.85-1.61-3.89c-.2-.2-.51-.2-.71 0s-.2.51 0 .71c.85.85 1.32 1.98 1.32 3.18s-.47 2.33-1.32 3.18c-.2.2-.2.51 0 .71ZM5.64 18.86c.13 0 .26-.05.35-.15.2-.2.2-.51 0-.71-1.61-1.61-2.49-3.74-2.49-6.01s.88-4.4 2.49-6.01c.2-.2.2-.51 0-.71s-.51-.2-.71 0C3.48 7.06 2.5 9.45 2.5 11.99s.99 4.92 2.78 6.72c.1.1.23.15.35.15ZM18.72 5.28c-.2-.2-.51-.2-.71 0s-.2.51 0 .71C19.62 7.6 20.5 9.73 20.5 12s-.88 4.41-2.49 6.01c-.2.2-.2.51 0 .71a.485.485 0 0 0 .7 0c1.79-1.79 2.78-4.18 2.78-6.72s-.99-4.92-2.78-6.72Z"/></svg>