<svg xmlns="http://www.w3.org/2000/svg" viewBox="0 0 24 24" width="24" height="24"><path d="m18.85,14.35c-.31-.31-.85-.09-.85.35v1.29h-.5c-1.14,0-2.25-.46-3.06-1.27l-1.09-1.09c-.2-.2-.51-.2-.71,0s-.2.51,0,.71l1.09,1.09c.99.99,2.37,1.56,3.77,1.56h.5v1.29c0,.45.54.67.85.35l1.79-1.79c.2-.2.2-.51,0-.71l-1.79-1.79Z"/><path d="m3.5,8h1c1.14,0,2.25.46,3.06,1.27l1.09,1.09c.1.1.23.15.35.15s.26-.05.35-.15c.2-.2.2-.51,0-.71l-1.09-1.09c-.99-.99-2.37-1.56-3.77-1.56h-1c-.28,0-.5.22-.5.5s.22.5.5.5Z"/><path d="m18.85,5.35c-.32-.32-.85-.09-.85.35v1.29h-.5c-1.4,0-2.78.57-3.77,1.56l-6.17,6.17c-.81.81-1.92,1.27-3.06,1.27h-1c-.28,0-.5.22-.5.5s.22.5.5.5h1c1.4,0,2.78-.57,3.77-1.56l6.17-6.17c.81-.81,1.92-1.27,3.06-1.27h.5v1.29c0,.45.54.67.85.35l1.79-1.79c.2-.2.2-.51,0-.71l-1.79-1.79Z"/></svg>