<svg xmlns="http://www.w3.org/2000/svg" viewBox="0 0 24 24" width="24" height="24"><path d="M4.5 4A.5.5 0 1 0 4.5 5 .5.5 0 1 0 4.5 4z"/><path d="M4.5 7A.5.5 0 1 0 4.5 8 .5.5 0 1 0 4.5 7z"/><path d="M4.5 10A.5.5 0 1 0 4.5 11 .5.5 0 1 0 4.5 10z"/><path d="M16.5 7A.5.5 0 1 0 16.5 8 .5.5 0 1 0 16.5 7z"/><path d="M16.5 10A.5.5 0 1 0 16.5 11 .5.5 0 1 0 16.5 10z"/><path d="M4.5 13A.5.5 0 1 0 4.5 14 .5.5 0 1 0 4.5 13z"/><path d="M4.5 16A.5.5 0 1 0 4.5 17 .5.5 0 1 0 4.5 16z"/><path d="M7.5 16A.5.5 0 1 0 7.5 17 .5.5 0 1 0 7.5 16z"/><path d="M10.5 16A.5.5 0 1 0 10.5 17 .5.5 0 1 0 10.5 16z"/><path d="M7.5 4A.5.5 0 1 0 7.5 5 .5.5 0 1 0 7.5 4z"/><path d="M10.5 4A.5.5 0 1 0 10.5 5 .5.5 0 1 0 10.5 4z"/><path d="M13.5 4A.5.5 0 1 0 13.5 5 .5.5 0 1 0 13.5 4z"/><path d="M16.5 4A.5.5 0 1 0 16.5 5 .5.5 0 1 0 16.5 4z"/><path d="m19.5,16h-2.5v-2.5c0-.28-.22-.5-.5-.5s-.5.22-.5.5v2.5h-2.5c-.28,0-.5.22-.5.5s.22.5.5.5h2.5v2.5c0,.28.22.5.5.5s.5-.22.5-.5v-2.5h2.5c.28,0,.5-.22.5-.5s-.22-.5-.5-.5Z"/></svg>