<svg xmlns="http://www.w3.org/2000/svg" viewBox="0 0 24 24" width="24" height="24"><path d="m12,3c-4.97,0-9,3.36-9,7.5,0,2.06,1.01,3.93,2.63,5.28.23.19.37.47.37.77v1.94c0,.83.67,1.5,1.5,1.5h.75v-2.5c0-.28.22-.5.5-.5s.5.22.5.5v2.5h2.25v-2.5c0-.28.22-.5.5-.5s.5.22.5.5v2.5h2.25v-2.5c0-.28.22-.5.5-.5s.5.22.5.5v2.5h.75c.83,0,1.5-.67,1.5-1.5v-1.94c0-.3.14-.58.37-.77,1.62-1.36,2.63-3.22,2.63-5.28,0-4.14-4.03-7.5-9-7.5Zm-4,10c-1.1,0-2-1.12-2-2.5s.9-2.5,2-2.5,2,1.12,2,2.5-.9,2.5-2,2.5Zm8,0c-1.1,0-2-1.12-2-2.5s.9-2.5,2-2.5,2,1.12,2,2.5-.9,2.5-2,2.5Z"/></svg>