<svg xmlns="http://www.w3.org/2000/svg" viewBox="0 0 24 24" width="24" height="24"><path d="M4.5 10A.5.5 0 1 0 4.5 11 .5.5 0 1 0 4.5 10z"/><path d="M4.5 13A.5.5 0 1 0 4.5 14 .5.5 0 1 0 4.5 13z"/><path d="M4.5 16A.5.5 0 1 0 4.5 17 .5.5 0 1 0 4.5 16z"/><path d="M4.5 19A.5.5 0 1 0 4.5 20 .5.5 0 1 0 4.5 19z"/><path d="M19.5 4A.5.5 0 1 0 19.5 5 .5.5 0 1 0 19.5 4z"/><path d="M19.5 7A.5.5 0 1 0 19.5 8 .5.5 0 1 0 19.5 7z"/><path d="M19.5 10A.5.5 0 1 0 19.5 11 .5.5 0 1 0 19.5 10z"/><path d="M19.5 13A.5.5 0 1 0 19.5 14 .5.5 0 1 0 19.5 13z"/><path d="M19.5 16A.5.5 0 1 0 19.5 17 .5.5 0 1 0 19.5 16z"/><path d="M16.5 4A.5.5 0 1 0 16.5 5 .5.5 0 1 0 16.5 4z"/><path d="M13.5 4A.5.5 0 1 0 13.5 5 .5.5 0 1 0 13.5 4z"/><path d="M10.5 4A.5.5 0 1 0 10.5 5 .5.5 0 1 0 10.5 4z"/><path d="M7.5 4A.5.5 0 1 0 7.5 5 .5.5 0 1 0 7.5 4z"/><path d="M13.5 19A.5.5 0 1 0 13.5 20 .5.5 0 1 0 13.5 19z"/><path d="M10.5 19A.5.5 0 1 0 10.5 20 .5.5 0 1 0 10.5 19z"/><path d="M7.5 19A.5.5 0 1 0 7.5 20 .5.5 0 1 0 7.5 19z"/><path d="m16.84,16.13c.09-.19.16-.4.16-.63v-7c0-.83-.67-1.5-1.5-1.5h-7c-.23,0-.44.07-.63.16L3.85,3.15c-.2-.2-.51-.2-.71,0s-.2.51,0,.71l4,4,8.99,8.99,4,4c.1.1.23.15.35.15s.26-.05.35-.15c.2-.2.2-.51,0-.71l-4.01-4.01Z"/><path d="m7.85,11.39c-.32-.31-.85-.09-.85.35v3.76c0,.83.67,1.5,1.5,1.5h3.76c.45,0,.67-.54.35-.85l-4.76-4.76Z"/></svg>