<svg xmlns="http://www.w3.org/2000/svg" viewBox="0 0 24 24" width="24" height="24"><path d="m20.5,13h-3.5c0-2.76-2.24-5-5-5s-5,2.24-5,5h-3.5c-.28,0-.5.22-.5.5s.22.5.5.5h17c.28,0,.5-.22.5-.5s-.22-.5-.5-.5Z"/><path d="m11.5,3.5v2c0,.28.22.5.5.5s.5-.22.5-.5v-2c0-.28-.22-.5-.5-.5s-.5.22-.5.5Z"/><path d="m17.15,7.15c-.2.2-.2.51,0,.71.1.1.23.15.35.15s.26-.05.35-.15l1-1c.2-.2.2-.51,0-.71s-.51-.2-.71,0l-1,1Z"/><path d="m5.15,6.15c-.2.2-.2.51,0,.71l1,1c.1.1.23.15.35.15s.26-.05.35-.15c.2-.2.2-.51,0-.71l-1-1c-.2-.2-.51-.2-.71,0Z"/><path d="m8.5,15c-.28,0-.5.22-.5.5v1c0,.28.22.5.5.5s.5-.22.5-.5v-1c0-.28-.22-.5-.5-.5Z"/><path d="m8.5,18c-.28,0-.5.22-.5.5v1c0,.28.22.5.5.5s.5-.22.5-.5v-1c0-.28-.22-.5-.5-.5Z"/><path d="m12,16c-.28,0-.5.22-.5.5v1c0,.28.22.5.5.5s.5-.22.5-.5v-1c0-.28-.22-.5-.5-.5Z"/><path d="m12,19c-.28,0-.5.22-.5.5v1c0,.28.22.5.5.5s.5-.22.5-.5v-1c0-.28-.22-.5-.5-.5Z"/><path d="m15.5,15c-.28,0-.5.22-.5.5v1c0,.28.22.5.5.5s.5-.22.5-.5v-1c0-.28-.22-.5-.5-.5Z"/><path d="m19,15c-.28,0-.5.22-.5.5v1c0,.28.22.5.5.5s.5-.22.5-.5v-1c0-.28-.22-.5-.5-.5Z"/><path d="m5,15c-.28,0-.5.22-.5.5v1c0,.28.22.5.5.5s.5-.22.5-.5v-1c0-.28-.22-.5-.5-.5Z"/><path d="m15.5,18c-.28,0-.5.22-.5.5v1c0,.28.22.5.5.5s.5-.22.5-.5v-1c0-.28-.22-.5-.5-.5Z"/></svg>