<svg xmlns="http://www.w3.org/2000/svg" width="24" height="24" viewBox="0 0 24 24"><path d="M18.5 9H15V5.5A2.5 2.5 0 0 0 12.5 3h-7A2.5 2.5 0 0 0 3 5.5v7A2.5 2.5 0 0 0 5.5 15H9v3.5a2.5 2.5 0 0 0 2.5 2.5h7a2.5 2.5 0 0 0 2.5-2.5v-7A2.5 2.5 0 0 0 18.5 9m-13 5c-.83 0-1.5-.67-1.5-1.5v-7C4 4.67 4.67 4 5.5 4h7c.83 0 1.5.67 1.5 1.5V9h-2.5A2.5 2.5 0 0 0 9 11.5V14zm8.5-4v2.5c0 .83-.67 1.5-1.5 1.5H10v-2.5c0-.83.67-1.5 1.5-1.5zm6 8.5c0 .83-.67 1.5-1.5 1.5h-7c-.83 0-1.5-.67-1.5-1.5V15h2.5a2.5 2.5 0 0 0 2.5-2.5V10h3.5c.83 0 1.5.67 1.5 1.5z"/></svg>