<svg xmlns="http://www.w3.org/2000/svg" viewBox="0 0 24 24" width="24" height="24"><path d="m17.5,6H6.5c-.15,0-.3.07-.39.19-.1.12-.13.27-.1.42l.38,1.67c.37,1.6,1.77,2.72,3.41,2.72h4.39c1.64,0,3.04-1.12,3.41-2.72l.38-1.67c.03-.15,0-.3-.1-.42-.09-.12-.24-.19-.39-.19Z"/><path d="m13,13c-.28,0-.5.22-.5.5,0,1.62-.45,2.41-.93,3.25-.52.92-1.07,1.87-1.07,3.75,0,.28.22.5.5.5s.5-.22.5-.5c0-1.62.45-2.41.93-3.25.52-.92,1.07-1.87,1.07-3.75,0-.28-.22-.5-.5-.5Z"/><path d="m10,13c-.28,0-.5.22-.5.5,0,1.62-.45,2.41-.93,3.25-.52.92-1.07,1.87-1.07,3.75,0,.28.22.5.5.5s.5-.22.5-.5c0-1.62.45-2.41.93-3.25.52-.92,1.07-1.87,1.07-3.75,0-.28-.22-.5-.5-.5Z"/><path d="m16,13c-.28,0-.5.22-.5.5,0,1.62-.45,2.41-.93,3.25-.52.92-1.07,1.87-1.07,3.75,0,.28.22.5.5.5s.5-.22.5-.5c0-1.62.45-2.41.93-3.25.52-.92,1.07-1.87,1.07-3.75,0-.28-.22-.5-.5-.5Z"/><path d="m20,3H4c-.55,0-1,.45-1,1s.45,1,1,1h16c.55,0,1-.45,1-1s-.45-1-1-1Z"/></svg>