<svg xmlns="http://www.w3.org/2000/svg" width="24" height="24" viewBox="0 0 24 24"><path d="M12 8a4 4 0 1 0 0 8 4 4 0 1 0 0-8M12 6c.14 0 .26-.06.35-.15s.15-.22.15-.35v-2c0-.14-.06-.26-.15-.35S12.13 3 12 3a.51.51 0 0 0-.5.5v2c0 .14.06.26.15.35s.22.15.35.15M12.5 18.5c0-.14-.06-.26-.15-.35S12.13 18 12 18a.51.51 0 0 0-.5.5v2c0 .14.06.26.15.35s.22.15.35.15a.51.51 0 0 0 .5-.5zM20.5 11.5h-2c-.28 0-.5.22-.5.5s.22.5.5.5h2c.28 0 .5-.22.5-.5s-.22-.5-.5-.5M3.5 12.5h2c.28 0 .5-.22.5-.5s-.22-.5-.5-.5h-2c-.28 0-.5.22-.5.5s.22.5.5.5M17.66 18.36s.11.09.17.11.12.04.19.04.13-.01.19-.04.12-.06.17-.11a.485.485 0 0 0 0-.7l-.71-.71-.71-.71a.485.485 0 0 0-.7 0c-.09.1-.15.23-.15.35s.05.26.15.35l.71.71.71.71ZM7.05 7.76s.11.09.17.11.12.04.19.04.13-.01.19-.04.12-.06.17-.11a.485.485 0 0 0 0-.7l-.71-.71-.71-.71a.485.485 0 0 0-.7 0c-.09.1-.15.23-.15.35s.05.26.15.35l.71.71.71.71ZM7.76 16.24a.485.485 0 0 0-.7 0l-.71.71-.71.71a.485.485 0 0 0 0 .7c.05.05.11.09.17.11s.12.04.19.04.13-.01.19-.04.12-.06.17-.11l.71-.71.71-.71a.485.485 0 0 0 0-.7ZM16.6 7.9c.06 0 .13-.01.19-.04s.12-.06.17-.11l.71-.71.71-.71a.485.485 0 0 0 0-.7c-.1-.09-.23-.15-.35-.15s-.26.05-.35.15l-.71.71-.71.71a.485.485 0 0 0 0 .7c.05.05.11.09.17.11s.12.04.19.04Z"/></svg>