<svg xmlns="http://www.w3.org/2000/svg" viewBox="0 0 24 24" width="24" height="24"><path class="b" d="m20.15,3.85l-1.32,1.32c-1.69-1.98-4.16-3.17-6.83-3.17C7.04,2,3,6.04,3,11c0,.28.22.5.5.5s.5-.22.5-.5c0-4.41,3.59-8,8-8,2.4,0,4.62,1.08,6.12,2.88l-1.27,1.27c-.32.32-.09.85.35.85h3.29c.28,0,.5-.22.5-.5v-3.29c0-.45-.54-.67-.85-.35Z"/><path class="b" d="m11.99,20.03c.64,0,1.28-.24,1.77-.73l3.54-3.54c.97-.97.97-2.56,0-3.54l-3.54-3.54c-.97-.97-2.56-.98-3.54,0l-3.54,3.54c-.97.97-.97,2.56,0,3.54l3.54,3.54c.49.49,1.13.73,1.77.73Z"/></svg>