<svg xmlns="http://www.w3.org/2000/svg" viewBox="0 0 24 24" width="24" height="24"><path d="m17.5,3H6.5c-1.93,0-3.5,1.57-3.5,3.5v2.88c0,.84.4,1.58,1.01,2.06,0,.02-.01.04-.01.07v6c0,1.93,1.57,3.5,3.5,3.5h9c1.93,0,3.5-1.57,3.5-3.5v-6s-.01-.05-.01-.07c.61-.48,1.01-1.22,1.01-2.06v-2.88c0-1.93-1.57-3.5-3.5-3.5Zm-10.25,6.38c0,.9-.73,1.62-1.62,1.62s-1.62-.73-1.62-1.62v-2.88c0-1.38,1.12-2.5,2.5-2.5h.75v5.38Zm1,0v-5.38h3.25v5.38c0,.9-.73,1.62-1.62,1.62s-1.62-.73-1.62-1.62Zm6.75,10.62h-6v-3c0-1.66,1.34-3,3-3s3,1.34,3,3v3Zm.75-10.62c0,.9-.73,1.62-1.62,1.62s-1.62-.73-1.62-1.62v-5.38h3.25v5.38Zm4.25,0c0,.9-.73,1.62-1.62,1.62s-1.62-.73-1.62-1.62v-5.38h.75c1.38,0,2.5,1.12,2.5,2.5v2.88Z"/></svg>