<svg xmlns="http://www.w3.org/2000/svg" viewBox="0 0 24 24" width="24" height="24"><path d="m19.57,4.43c-1.77-1.77-4.57-1.87-6.48-.34l-.09-.09c-.39-.39-1.02-.39-1.41,0l-1.59,1.59c-.39.39-.39,1.02,0,1.41l.05.05-3,3-.05-.05c-.39-.39-1.02-.39-1.41,0l-1.59,1.59c-.39.39-.39,1.02,0,1.41l.09.09c-1.53,1.91-1.43,4.71.34,6.48.95.95,2.2,1.42,3.45,1.42,1.08,0,2.15-.38,3.03-1.09l.09.09c.39.39,1.02.39,1.41,0l1.59-1.59c.39-.39.39-1.02,0-1.41l-.05-.05,3-3,.05.05c.39.39,1.02.39,1.41,0l1.59-1.59c.39-.39.39-1.02,0-1.41l-.09-.09c1.53-1.91,1.43-4.71-.34-6.48ZM7.5,15c-.28,0-.5-.22-.5-.5s.22-.5.5-.5.5.22.5.5-.22.5-.5.5Zm1-2c0-.28.22-.5.5-.5s.5.22.5.5-.22.5-.5.5-.5-.22-.5-.5Zm1,4c-.28,0-.5-.22-.5-.5s.22-.5.5-.5.5.22.5.5-.22.5-.5.5Zm1.5-1.5c-.28,0-.5-.22-.5-.5s.22-.5.5-.5.5.22.5.5-.22.5-.5.5Zm3-7c-.28,0-.5-.22-.5-.5s.22-.5.5-.5.5.22.5.5-.22.5-.5.5Zm1-2c0-.28.22-.5.5-.5s.5.22.5.5-.22.5-.5.5-.5-.22-.5-.5Zm1,4c-.28,0-.5-.22-.5-.5s.22-.5.5-.5.5.22.5.5-.22.5-.5.5Zm1.5-1.5c-.28,0-.5-.22-.5-.5s.22-.5.5-.5.5.22.5.5-.22.5-.5.5Z"/></svg>