<svg xmlns="http://www.w3.org/2000/svg" width="24" height="24" viewBox="0 0 24 24"><path d="M11 5c0-.66-.11-1.3-.31-1.89-3.91.58-7.01 3.67-7.58 7.58.6.2 1.23.31 1.89.31 3.31 0 6-2.69 6-6M20.89 13.31c-.6-.2-1.23-.31-1.89-.31-3.31 0-6 2.69-6 6 0 .66.11 1.3.31 1.89 3.91-.58 7.01-3.67 7.58-7.58"/><path d="M12 3c-.1 0-.19.01-.29.01.19.63.29 1.3.29 1.99 0 3.86-3.14 7-7 7-.69 0-1.36-.1-1.99-.29 0 .1-.01.19-.01.29 0 4.96 4.04 9 9 9 .1 0 .19-.01.29-.01A6.9 6.9 0 0 1 12 19c0-3.86 3.14-7 7-7 .69 0 1.36.1 1.99.29 0-.1.01-.19.01-.29 0-4.96-4.04-9-9-9"/></svg>