<svg xmlns="http://www.w3.org/2000/svg" viewBox="0 0 24 24" width="24" height="24"><path d="m14.5,6h-2v-2h4c.28,0,.5-.22.5-.5s-.22-.5-.5-.5H7.5c-.28,0-.5.22-.5.5s.22.5.5.5h4v2h-2c-1.93,0-3.5,1.57-3.5,3.5v6c0,1.38,1.12,2.5,2.5,2.5h7c1.38,0,2.5-1.12,2.5-2.5v-6c0-1.93-1.57-3.5-3.5-3.5Zm.5,10c-.55,0-1-.45-1-1s.45-1,1-1,1,.45,1,1-.45,1-1,1Zm-6,0c-.55,0-1-.45-1-1s.45-1,1-1,1,.45,1,1-.45,1-1,1Zm8-4H7v-2.5c0-1.38,1.12-2.5,2.5-2.5h5c1.38,0,2.5,1.12,2.5,2.5v2.5Z"/><path d="m16.82,19.22c-.09-.14-.25-.22-.42-.22H7.6c-.17,0-.32.08-.42.22l-.67,1c-.22.33.02.78.42.78h1.07c.16,0,.31-.07.4-.2l.45-.6c.09-.13.24-.2.4-.2h5.5c.16,0,.31.07.4.2l.45.6c.09.13.24.2.4.2h1.07c.4,0,.64-.45.42-.78l-.67-1Z"/></svg>