<svg xmlns="http://www.w3.org/2000/svg" viewBox="0 0 24 24" width="24" height="24"><path d="m17,8.91c0-.45-.54-.67-.85-.35l-7.59,7.59c-.32.32-.09.85.35.85h2.67c.13,0,.26-.05.35-.15l4.91-4.91c.09-.09.15-.22.15-.35v-2.67Z"/><path d="m7,15.09c0,.45.54.67.85.35l7.59-7.59c.32-.31.09-.85-.35-.85h-2.67c-.13,0-.26.05-.35.15l-4.91,4.91c-.09.09-.15.22-.15.35v2.67Z"/><path d="m7.85,9.94l2.09-2.09c.32-.31.09-.85-.35-.85h-2.09c-.28,0-.5.22-.5.5v2.09c0,.45.54.67.85.35Z"/><path d="m16.15,14.06l-2.09,2.09c-.32.32-.09.85.35.85h2.09c.28,0,.5-.22.5-.5v-2.09c0-.45-.54-.67-.85-.35Z"/><path d="m18,3H6c-.55,0-1,.45-1,1s.45,1,1,1h12c.55,0,1-.45,1-1s-.45-1-1-1Z"/><path d="m18,19H6c-.55,0-1,.45-1,1s.45,1,1,1h12c.55,0,1-.45,1-1s-.45-1-1-1Z"/></svg>