<svg xmlns="http://www.w3.org/2000/svg" viewBox="0 0 24 24" width="24" height="24"><path d="m20.5,11c-.28,0-.5.22-.5.5,0,.83-.67,1.5-1.5,1.5H5.5c-.83,0-1.5-.67-1.5-1.5,0-.28-.22-.5-.5-.5s-.5.22-.5.5c0,.81.4,1.53,1,1.99,0,0,0,0,0,.01v6.25c0,.69.56,1.25,1.25,1.25h3.25c.28,0,.5-.22.5-.5v-1.33c0-1.62,1.22-3.08,2.84-3.17,1.73-.09,3.16,1.29,3.16,3v1.5c0,.28.22.5.5.5h3.25c.69,0,1.25-.56,1.25-1.25v-6.25s0,0,0-.01c.6-.46,1-1.17,1-1.99,0-.28-.22-.5-.5-.5Z"/><path d="m6.52,12h10.96c.33,0,.57-.31.48-.63l-1.55-6c-.02-.07-.05-.12-.09-.18.42-.45.68-1.04.68-1.7,0-.28-.22-.5-.5-.5s-.5.22-.5.5c0,.83-.67,1.5-1.5,1.5h-.5v-1.5c0-.28-.22-.5-.5-.5s-.5.22-.5.5v1.5h-2v-1.5c0-.28-.22-.5-.5-.5s-.5.22-.5.5v1.5h-.5c-.83,0-1.5-.67-1.5-1.5,0-.28-.22-.5-.5-.5s-.5.22-.5.5c0,.66.26,1.25.68,1.7-.04.05-.07.11-.09.18l-1.55,6c-.08.32.16.63.48.63Z"/></svg>