<svg xmlns="http://www.w3.org/2000/svg" width="24" height="24" viewBox="0 0 24 24"><path d="M12 3c-4.96 0-9 4.04-9 9s4.04 9 9 9 9-4.04 9-9-4.04-9-9-9m-5 9.5c-.16 0-.32-.08-.42-.22a.5.5 0 0 1 .14-.69l2.38-1.58-2.38-1.58a.498.498 0 0 1 .55-.83l3 2c.14.09.22.25.22.42s-.08.32-.22.42l-3 2a.46.46 0 0 1-.28.08Zm7.75 4.5H9.24c-.6 0-.97-.68-.62-1.17C9.21 14.99 10.28 14 12 14s2.79.99 3.38 1.83c.35.49-.02 1.17-.62 1.17Zm2.52-5.42c.23.15.29.46.14.69-.1.14-.25.22-.42.22-.1 0-.19-.03-.28-.08l-3-2c-.14-.09-.22-.25-.22-.42s.08-.32.22-.42l3-2a.498.498 0 0 1 .55.83l-2.38 1.58 2.38 1.58Z"/></svg>