<svg xmlns="http://www.w3.org/2000/svg" viewBox="0 0 24 24" width="24" height="24"><path d="m19,14.5v-7c0-2.48-2.02-4.5-4.5-4.5h-5c-2.48,0-4.5,2.02-4.5,4.5v7c0,1.93,1.57,3.5,3.5,3.5h7c1.93,0,3.5-1.57,3.5-3.5Zm-10.5,1.5c-.83,0-1.5-.67-1.5-1.5s.67-1.5,1.5-1.5,1.5.67,1.5,1.5-.67,1.5-1.5,1.5Zm7,0c-.83,0-1.5-.67-1.5-1.5s.67-1.5,1.5-1.5,1.5.67,1.5,1.5-.67,1.5-1.5,1.5Zm1.5-4H7c-.55,0-1-.45-1-1v-3c0-.55.45-1,1-1h10c.55,0,1,.45,1,1v3c0,.55-.45,1-1,1Z"/><path d="m7.25,19l-.77,1.23c-.21.33.03.77.42.77h1.1c.16,0,.31-.07.4-.2l.45-.6c.09-.13.24-.2.4-.2h5.5c.16,0,.31.07.4.2l.45.6c.09.13.24.2.4.2h1.1c.39,0,.63-.43.42-.77l-.77-1.23H7.25Z"/></svg>