<svg xmlns="http://www.w3.org/2000/svg" viewBox="0 0 24 24" width="24" height="24"><path d="m13.89,7h-3.78c-3.6,0-6.63,3.59-7.06,8.35-.04.42.1.84.39,1.16.27.3.66.47,1.06.48h0s13.9,0,13.9,0h.14c.68,0,1.33-.3,1.77-.82.43-.52.62-1.19.5-1.86-.75-4.31-3.6-7.32-6.92-7.32Zm.11,6.5c0,.28-.22.5-.5.5s-.5-.22-.5-.5.22-.5.5-.5.5.22.5.5Zm-2-2c0,.28-.22.5-.5.5s-.5-.22-.5-.5.22-.5.5-.5.5.22.5.5Zm-1,2c0,.28-.22.5-.5.5s-.5-.22-.5-.5.22-.5.5-.5.5.22.5.5Zm5.48,2.43s.03.05.05.07h-.05s0-.05,0-.07Zm3.07-.39c-.25.3-.61.47-1,.47h-.14c-.66,0-1.2-.5-1.29-1.18-.41-3.04-1.86-5.51-3.82-6.82h.59c2.83,0,5.27,2.67,5.94,6.49.06.37-.04.75-.28,1.04Z"/></svg>