<svg xmlns="http://www.w3.org/2000/svg" viewBox="0 0 24 24" width="24" height="24"><path d="m13.9,5c-2,0-3.89.84-5.22,2.24-.25.26-.16.69.17.82,2.32.86,3.97,3.04,3.97,5.6,0,.28-.22.5-.5.5s-.5-.22-.5-.5c0-.97-.29-1.87-.78-2.63-1.02-1.58-2.88-2.24-4.55-1.94l-.76-1.14c.44-.11.76-.48.76-.95,0-.55-.45-1-1-1s-1,.45-1,1c0,.06.02.12.04.18-.16-.1-.33-.18-.54-.18-.55,0-1,.45-1,1s.45,1,1,1c.38,0,.71-.22.87-.54l.62.94c-.71.32-1.35.84-1.8,1.58-.42.69-.67,1.5-.67,2.37,0,2.54,2.11,4.62,4.71,4.65h7.06c3.4,0,6.19-2.67,6.23-6.04,0-3.84-3.2-6.96-7.13-6.96Z"/></svg>