<svg xmlns="http://www.w3.org/2000/svg" viewBox="0 0 24 24" width="24" height="24"><path d="m19.75,9h-3.75v1.5c0,.28-.22.5-.5.5s-.5-.22-.5-.5v-1.5H4.25c-.69,0-1.25.56-1.25,1.25v1.6c0,.58.39,1.08.96,1.21.91.21,1.54,1.01,1.54,1.95s-.63,1.73-1.54,1.95c-.56.13-.96.63-.96,1.21v1.6c0,.69.56,1.25,1.25,1.25h15.5c.69,0,1.25-.56,1.25-1.25v-1.6c0-.58-.39-1.08-.96-1.21-.91-.21-1.54-1.01-1.54-1.95s.63-1.73,1.54-1.95c.56-.13.96-.63.96-1.21v-1.6c0-.69-.56-1.25-1.25-1.25Zm-3.75,10.5c0,.28-.22.5-.5.5s-.5-.22-.5-.5v-1c0-.28.22-.5.5-.5s.5.22.5.5v1Zm0-3c0,.28-.22.5-.5.5s-.5-.22-.5-.5v-1c0-.28.22-.5.5-.5s.5.22.5.5v1Zm0-3c0,.28-.22.5-.5.5s-.5-.22-.5-.5v-1c0-.28.22-.5.5-.5s.5.22.5.5v1Z"/><path d="m18.5,7c.28,0,.5-.22.5-.5v-1.88c0-.42-.21-.81-.56-1.04-.35-.23-.79-.28-1.17-.12l-7.38,3.05c-.25.1-.18.48.1.48h8.51Z"/></svg>