<svg xmlns="http://www.w3.org/2000/svg" viewBox="0 0 24 24" width="24" height="24"><path d="m17.5,4H6.5c-1.93,0-3.5,1.57-3.5,3.5v9c0,1.93,1.57,3.5,3.5,3.5h11c1.93,0,3.5-1.57,3.5-3.5V7.5c0-1.93-1.57-3.5-3.5-3.5Zm-6.65,9.35l-2.5,2.5c-.1.1-.23.15-.35.15s-.26-.05-.35-.15l-1.5-1.5c-.2-.2-.2-.51,0-.71s.51-.2.71,0l1.15,1.15,2.15-2.15c.2-.2.51-.2.71,0s.2.51,0,.71Zm0-5l-2.5,2.5c-.1.1-.23.15-.35.15s-.26-.05-.35-.15l-1.5-1.5c-.2-.2-.2-.51,0-.71s.51-.2.71,0l1.15,1.15,2.15-2.15c.2-.2.51-.2.71,0s.2.51,0,.71Zm6.65,6.65h-4c-.28,0-.5-.22-.5-.5s.22-.5.5-.5h4c.28,0,.5.22.5.5s-.22.5-.5.5Zm0-5h-4c-.28,0-.5-.22-.5-.5s.22-.5.5-.5h4c.28,0,.5.22.5.5s-.22.5-.5.5Z"/></svg>