<svg xmlns="http://www.w3.org/2000/svg" viewBox="0 0 24 24" width="24" height="24"><path d="m20.5,4c-.28,0-.5.22-.5.5v1c0,1.38-1.12,2.5-2.5,2.5h-2v-3.5c0-.28-.22-.5-.5-.5s-.5.22-.5.5v3.5h-5v-3.5c0-.28-.22-.5-.5-.5s-.5.22-.5.5v3.5h-2c-1.38,0-2.5-1.12-2.5-2.5v-1c0-.28-.22-.5-.5-.5s-.5.22-.5.5v1c0,1.93,1.57,3.5,3.5,3.5h11c1.93,0,3.5-1.57,3.5-3.5v-1c0-.28-.22-.5-.5-.5Z"/><path d="m17.5,15H6.5c-1.93,0-3.5,1.57-3.5,3.5v1c0,.28.22.5.5.5s.5-.22.5-.5v-1c0-1.38,1.12-2.5,2.5-2.5h2v3.5c0,.28.22.5.5.5s.5-.22.5-.5v-3.5h5v3.5c0,.28.22.5.5.5s.5-.22.5-.5v-3.5h2c1.38,0,2.5,1.12,2.5,2.5v1c0,.28.22.5.5.5s.5-.22.5-.5v-1c0-1.93-1.57-3.5-3.5-3.5Z"/><path d="m20.5,11.5h-2c-.28,0-.5.22-.5.5s.22.5.5.5h2c.28,0,.5-.22.5-.5s-.22-.5-.5-.5Z"/><path d="m15.5,12.5c.28,0,.5-.22.5-.5s-.22-.5-.5-.5h-2c-.28,0-.5.22-.5.5s.22.5.5.5h2Z"/><path d="m10.5,12.5c.28,0,.5-.22.5-.5s-.22-.5-.5-.5h-2c-.28,0-.5.22-.5.5s.22.5.5.5h2Z"/><path d="m5.5,12.5c.28,0,.5-.22.5-.5s-.22-.5-.5-.5h-2c-.28,0-.5.22-.5.5s.22.5.5.5h2Z"/></svg>