<svg xmlns="http://www.w3.org/2000/svg" width="24" height="24" viewBox="0 0 24 24"><path d="M10.13 10.11a4 4 0 0 0 1.53 2.92c1.48 1.17 3.67 1.12 5.1-.13a4.2 4.2 0 0 0 1-1.33 7.55 7.55 0 0 1 2.56-3.01 8.94 8.94 0 0 0-4.86-4.86 7.3 7.3 0 0 1-2.97 2.53 4 4 0 0 0-2.36 3.88"/><path d="M18.67 11.96c-.31.66-.73 1.22-1.26 1.69-1.78 1.56-4.52 1.64-6.38.17a5.07 5.07 0 0 1-1.91-3.65c-.12-2.02 1.1-4.01 2.91-4.84.97-.44 1.79-1.13 2.43-1.98-3.04-.86-6.45-.1-8.83 2.28-3.51 3.51-3.51 9.22 0 12.73s9.22 3.51 12.73 0c2.38-2.38 3.14-5.78 2.29-8.82a6.4 6.4 0 0 0-1.98 2.41Z"/></svg>