<svg xmlns="http://www.w3.org/2000/svg" viewBox="0 0 24 24" width="24" height="24"><path d="m18.79,8.92c-.36-.57-1-.92-1.68-.92h-2.11v-1c0-1.1-.9-2-2-2H5c-1.1,0-2,.9-2,2v8c0,.96.68,1.75,1.57,1.95-.04.18-.07.36-.07.55,0,1.38,1.12,2.5,2.5,2.5s2.5-1.12,2.5-2.5c0-.17-.03-.34-.07-.5h5.13c-.03.16-.07.33-.07.5,0,1.38,1.12,2.5,2.5,2.5s2.5-1.12,2.5-2.5c0-.19-.03-.37-.07-.55.9-.2,1.57-1,1.57-1.95v-2.06c0-.39-.11-.77-.32-1.08l-1.89-2.94Zm-11.79,10.08c-.83,0-1.5-.67-1.5-1.5,0-.26.07-.53.2-.75.28-.47.76-.75,1.3-.75.13,0,.27.02.39.05.38.1.7.35.91.7.13.22.2.49.2.75,0,.83-.67,1.5-1.5,1.5Zm10,0c-.83,0-1.5-.67-1.5-1.5,0-.26.07-.53.2-.75.28-.47.76-.75,1.3-.75.13,0,.27.02.39.05.38.1.7.35.91.7.13.22.2.49.2.75,0,.83-.67,1.5-1.5,1.5Zm-2-7v-3s2.11,0,2.11,0c.34,0,.66.17.84.46l1.63,2.54h-4.58Z"/></svg>