<svg xmlns="http://www.w3.org/2000/svg" width="24" height="24" viewBox="0 0 24 24"><path d="M14.12 5.17c-.2.2-.2.51 0 .71.59.59.92 1.35.92 2.12s-.33 1.53-.92 2.12c-.2.2-.2.51 0 .71a.485.485 0 0 0 .7 0c.78-.78 1.22-1.79 1.22-2.83s-.43-2.04-1.22-2.83c-.2-.2-.51-.2-.71 0Z"/><path d="M16.24 12.95a.485.485 0 0 0 .7 0c1.38-1.37 2.13-3.13 2.13-4.95s-.76-3.58-2.13-4.95c-.2-.2-.51-.2-.71 0s-.2.51 0 .71c1.19 1.19 1.84 2.69 1.84 4.24s-.65 3.06-1.84 4.24c-.2.2-.2.51 0 .71ZM8.5 5a3.5 3.5 0 1 0 0 7 3.5 3.5 0 1 0 0-7M4.5 19h8c.83 0 1.5-.67 1.5-1.5 0-2.48-2.02-4.5-4.5-4.5h-2C5.02 13 3 15.02 3 17.5c0 .83.67 1.5 1.5 1.5"/></svg>