<svg xmlns="http://www.w3.org/2000/svg" viewBox="0 0 24 24" width="24" height="24"><path d="m12,16c.28,0,.5-.22.5-.5v-5h1.29c.45,0,.67-.54.35-.85l-1.79-1.79c-.2-.2-.51-.2-.71,0l-1.79,1.79c-.32.32-.09.85.35.85h1.29v5c0,.28.22.5.5.5Z"/><path d="m5.5,4h-2c-.28,0-.5.22-.5.5s.22.5.5.5h2c.28,0,.5-.22.5-.5s-.22-.5-.5-.5Z"/><path d="m11,4.5c0-.28-.22-.5-.5-.5h-2c-.28,0-.5.22-.5.5s.22.5.5.5h2c.28,0,.5-.22.5-.5Z"/><path d="m16,4.5c0-.28-.22-.5-.5-.5h-2c-.28,0-.5.22-.5.5s.22.5.5.5h2c.28,0,.5-.22.5-.5Z"/><path d="m20.5,4h-2c-.28,0-.5.22-.5.5s.22.5.5.5h2c.28,0,.5-.22.5-.5s-.22-.5-.5-.5Z"/></svg>