<svg xmlns="http://www.w3.org/2000/svg" viewBox="0 0 24 24" width="24" height="24"><path d="m20,6c0-1.1-.9-2-2-2-.93,0-1.71.64-1.93,1.5H7.93c-.22-.86-1-1.5-1.93-1.5-1.1,0-2,.9-2,2,0,.93.64,1.71,1.5,1.93v8.14c-.86.22-1.5,1-1.5,1.93,0,1.1.9,2,2,2,.93,0,1.71-.64,1.93-1.5h8.14c.22.86,1,1.5,1.93,1.5,1.1,0,2-.9,2-2,0-.93-.64-1.71-1.5-1.93V7.93c.86-.22,1.5-1,1.5-1.93Zm-3.93,11.5H7.93c-.18-.7-.73-1.25-1.43-1.43V7.93c.7-.18,1.25-.73,1.43-1.43h8.14c.18.7.73,1.25,1.43,1.43v8.14c-.7.18-1.25.73-1.43,1.43Z"/></svg>