<svg xmlns="http://www.w3.org/2000/svg" viewBox="0 0 24 24" width="24" height="24"><path d="m11.65,8.65c.2.2.51.2.71,0l1.79-1.79c.32-.31.09-.85-.35-.85h-1.29v-2.5c0-.28-.22-.5-.5-.5s-.5.22-.5.5v2.5h-1.29c-.45,0-.67.54-.35.85l1.79,1.79Z"/><path d="m12.35,15.35c-.2-.2-.51-.2-.71,0l-1.79,1.79c-.32.32-.09.85.35.85h1.29v2.5c0,.28.22.5.5.5s.5-.22.5-.5v-2.5h1.29c.45,0,.67-.54.35-.85l-1.79-1.79Z"/><path d="m3.5,12.5h2c.28,0,.5-.22.5-.5s-.22-.5-.5-.5h-2c-.28,0-.5.22-.5.5s.22.5.5.5Z"/><path d="m8.5,12.5h2c.28,0,.5-.22.5-.5s-.22-.5-.5-.5h-2c-.28,0-.5.22-.5.5s.22.5.5.5Z"/><path d="m13,12c0,.28.22.5.5.5h2c.28,0,.5-.22.5-.5s-.22-.5-.5-.5h-2c-.28,0-.5.22-.5.5Z"/><path d="m20.5,11.5h-2c-.28,0-.5.22-.5.5s.22.5.5.5h2c.28,0,.5-.22.5-.5s-.22-.5-.5-.5Z"/></svg>