<svg xmlns="http://www.w3.org/2000/svg" width="24" height="24" viewBox="0 0 24 24"><path d="M10 18c0 1.1.9 2 2 2s2-.9 2-2v-2.75h-4z"/><path d="M12 3c-4.96 0-9 4.04-9 9s4.04 9 9 9c-1.65 0-3-1.35-3-3v-.77c-1.48-.86-2.28-2.25-2.67-3.2-.2-.49.17-1.03.7-1.03h9.94c.53 0 .9.54.7 1.03-.39.95-1.19 2.34-2.67 3.2V18c0 1.65-1.35 3-3 3 4.96 0 9-4.04 9-9s-4.04-9-9-9m-3.5 8C7.67 11 7 10.33 7 9.5S7.67 8 8.5 8s1.5.67 1.5 1.5S9.33 11 8.5 11m8.73 0h-3.47c-.38 0-.63-.42-.44-.75.34-.57 1-1.25 2.17-1.25s1.83.68 2.17 1.25c.2.33-.05.75-.44.75Z"/></svg>