<svg xmlns="http://www.w3.org/2000/svg" viewBox="0 0 24 24" width="24" height="24"><path d="m14.5,3h-6.74c-.61,0-1.2.21-1.67.59-.59.48-.96,1.18-1,1.94s.24,1.51.78,2.04l.11.11c-.04,1.04-.5,2.01-1.3,2.67-1.07.89-1.68,2.2-1.68,3.59v5.35c0,.94.76,1.7,1.7,1.7h6.6c.94,0,1.7-.76,1.7-1.7v-5.35c0-1.39-.61-2.7-1.68-3.59-.8-.67-1.26-1.64-1.3-2.67l1.54-1.54c.19,1.24.94,2.85,2.94,2.85.28,0,.5-.22.5-.5s-.22-.5-.5-.5c-1.43,0-1.83-1.27-1.95-2h1.95c.28,0,.5-.22.5-.5v-2c0-.28-.22-.5-.5-.5Zm-2.5,10.95v2.51c-1.75-.11-2.76-.51-3.81-.93-1.1-.44-2.23-.89-4.19-1.01v-.58c0-1.09.48-2.12,1.32-2.82.94-.79,1.53-1.9,1.65-3.13h2.05c.12,1.22.71,2.34,1.66,3.13.84.7,1.32,1.73,1.32,2.82Z"/><path d="M17 4A1 1 0 1 0 17 6 1 1 0 1 0 17 4z"/><path d="M20 4A1 1 0 1 0 20 6 1 1 0 1 0 20 4z"/><path d="M20 7A1 1 0 1 0 20 9 1 1 0 1 0 20 7z"/></svg>