<svg xmlns="http://www.w3.org/2000/svg" width="24" height="24" viewBox="0 0 24 24"><path d="M20.98 6.65a.506.506 0 0 0-.33-.63.506.506 0 0 0-.63.33L18.87 10h-5.25l-1.15-3.65c-.13-.42-.82-.42-.95 0L10.37 10H5.12L3.97 6.35a.506.506 0 0 0-.63-.33c-.26.08-.41.36-.33.63L4.06 10H1.98v1h2.39l.94 3H1.97v1h3.65l1.15 3.65c.07.21.26.35.48.35h.95c.22 0 .41-.14.48-.35L9.83 15h4.3l1.15 3.65c.07.21.26.35.48.35h.95c.22 0 .41-.14.48-.35L18.34 15h3.65v-1h-3.34l.94-3h2.39v-1H19.9l1.05-3.35ZM12 8.16l.58 1.83h-1.16zm-6.56 2.83h4.62l-.94 3H6.39l-.94-3Zm2.41 7h-.21l-.94-3h2.1l-.94 3Zm2.31-4 .94-3h1.78l.94 3h-3.67Zm6.19 4h-.21l-.94-3h2.1l-.94 3Zm1.26-4h-2.73l-.94-3h4.62l-.94 3Z"/></svg>