<svg xmlns="http://www.w3.org/2000/svg" width="24" height="24" viewBox="0 0 24 24"><path d="M17.5 4h-11C4.57 4 3 5.57 3 7.5v9C3 18.43 4.57 20 6.5 20h2c.28 0 .5-.22.5-.5s-.22-.5-.5-.5h-2A2.5 2.5 0 0 1 4 16.5V10h16v6.5a2.5 2.5 0 0 1-2.5 2.5h-2c-.28 0-.5.22-.5.5s.22.5.5.5h2c1.93 0 3.5-1.57 3.5-3.5v-9C21 5.57 19.43 4 17.5 4M16 7.5c0 .28-.22.5-.5.5h-1c-.28 0-.5-.22-.5-.5v-1c0-.28.22-.5.5-.5h1c.28 0 .5.22.5.5zm3 0c0 .28-.22.5-.5.5h-1c-.28 0-.5-.22-.5-.5v-1c0-.28.22-.5.5-.5h1c.28 0 .5.22.5.5z"/><path d="M12.35 13.35c-.2-.2-.51-.2-.71 0l-1.79 1.79c-.32.32-.09.85.35.85h1.29v3.5c0 .28.22.5.5.5s.5-.22.5-.5v-3.5h1.29c.45 0 .67-.54.35-.85l-1.79-1.79Z"/></svg>