<svg xmlns="http://www.w3.org/2000/svg" viewBox="0 0 24 24" width="24" height="24"><path d="m18.5,8H5.5c-1.38,0-2.5,1.12-2.5,2.5v8c0,1.38,1.12,2.5,2.5,2.5h13c1.38,0,2.5-1.12,2.5-2.5v-1c0-.28-.22-.5-.5-.5h-3c-1.46,0-2.64-1.27-2.49-2.76.13-1.3,1.33-2.24,2.63-2.24h2.85c.28,0,.5-.22.5-.5v-1c0-1.38-1.12-2.5-2.5-2.5Z"/><path d="m20.5,13h-3c-.83,0-1.5.67-1.5,1.5s.67,1.5,1.5,1.5h3c.28,0,.5-.22.5-.5v-2c0-.28-.22-.5-.5-.5Z"/><path d="m8.95,6.05h6.72c.27,0,.5-.22.5-.5v-.5c0-.39-.12-.79-.38-1.08-.44-.49-1.11-.64-1.7-.42l-5.23,2.01c-.26.1-.19.48.09.48Z"/></svg>