<svg xmlns="http://www.w3.org/2000/svg" viewBox="0 0 24 24" width="24" height="24"><path d="m7,10h1.5c.83,0,1.5-.67,1.5-1.5v-1.5h4.05c.25,1.69,1.69,3,3.45,3,1.93,0,3.5-1.57,3.5-3.5s-1.57-3.5-3.5-3.5c-1.76,0-3.2,1.31-3.45,3h-4.05v-1.5c0-.83-.67-1.5-1.5-1.5h-4c-.83,0-1.5.67-1.5,1.5v4c0,.83.67,1.5,1.5,1.5h1.5v4h.06c-.23.07-.45.17-.62.35l-2.09,2.09c-.58.58-.58,1.54,0,2.12l2.09,2.09c.29.29.68.44,1.06.44s.77-.15,1.06-.44l2.09-2.09c.16-.16.27-.36.34-.56h4.01v1.5c0,.83.67,1.5,1.5,1.5h4c.83,0,1.5-.67,1.5-1.5v-4c0-.83-.67-1.5-1.5-1.5h-4c-.83,0-1.5.67-1.5,1.5v1.5h-4.01c-.07-.2-.18-.4-.34-.56l-2.09-2.09c-.18-.18-.4-.28-.62-.35h.06v-4Z"/></svg>