<svg version="1.1" xmlns="http://www.w3.org/2000/svg" xmlns:xlink="http://www.w3.org/1999/xlink" x="0px" y="0px" viewBox="0 0 24 24" xml:space="preserve" width="24" height="24"><path class="st0" d="M9.7 12 10.9 10.9 12 9.7 13.1 10.9 14.3 12 13.1 13.1 12 14.3 10.9 13.1z"/><path class="st0" d="M12,3c-5,0-9,4-9,9s4,9,9,9s9-4,9-9S17,3,12,3z M17.6,13.9c0.2,0.2,0.2,0.5,0,0.7c-0.1,0.1-0.2,0.1-0.4,0.1
	s-0.3-0.1-0.4-0.1L15,12.7L12.7,15l1.9,1.9c0.2,0.2,0.2,0.5,0,0.7c-0.1,0.1-0.2,0.1-0.4,0.1s-0.3,0-0.4-0.1L12,15.7l-1.9,1.9
	c-0.1,0.1-0.2,0.1-0.4,0.1s-0.3,0-0.4-0.1c-0.2-0.2-0.2-0.5,0-0.7l1.9-1.9L9,12.7l-1.9,1.9c-0.1,0.1-0.2,0.1-0.3,0.1
	s-0.3-0.1-0.3-0.1c-0.2-0.2-0.2-0.5,0-0.7L8.3,12l-1.9-1.9c-0.2-0.2-0.2-0.5,0-0.7s0.5-0.2,0.7,0L9,11.3L11.3,9L9.4,7.1
	c-0.2-0.2-0.2-0.5,0-0.7s0.5-0.2,0.7,0L12,8.3l1.9-1.9c0.2-0.2,0.5-0.2,0.7,0s0.2,0.5,0,0.7L12.7,9l2.3,2.3l1.9-1.9
	c0.2-0.2,0.5-0.2,0.7,0s0.2,0.5,0,0.7L15.7,12L17.6,13.9L17.6,13.9z"/></svg>