<svg xmlns="http://www.w3.org/2000/svg" viewBox="0 0 24 24" width="24" height="24"><path d="M11.5 6A1.5 1.5 0 1 0 11.5 9 1.5 1.5 0 1 0 11.5 6z"/><path d="m12.36,3.02c-.13-.01-.25-.02-.36-.02C7.04,3,3,7.04,3,12s3.84,8.79,8.64,8.98c.13.01.25.02.36.02,4.96,0,9-4.04,9-9S17.16,3.21,12.36,3.02Zm-1.36,13.48c0-.83.67-1.5,1.5-1.5s1.5.67,1.5,1.5-.67,1.5-1.5,1.5-1.5-.67-1.5-1.5Zm-7-4.5c0-4.41,3.59-8,8-8,0,0,0,0,0,0,.06,0,.12,0,.18,0,.69.06,3.1.45,3.1,3.27,0,2.08-1.72,3.16-3.54,4.3-1.97,1.23-4.01,2.51-4.01,5.15,0,1,.25,1.78.64,2.39-2.58-1.33-4.36-4.02-4.36-7.11Z"/></svg>