<svg xmlns="http://www.w3.org/2000/svg" width="24" height="24" viewBox="0 0 24 24"><path d="M5.64 5.64c-3.51 3.51-3.51 9.22 0 12.73C7.39 20.12 9.7 21 12 21s4.61-.88 6.36-2.63c3.51-3.51 3.51-9.22 0-12.73s-9.22-3.51-12.73 0Zm10.55 8.55c-1.76 1.76-4.61 1.76-6.36 0s-1.76-4.61 0-6.36a4.49 4.49 0 0 1 6.36 0 4.49 4.49 0 0 1 0 6.36"/><path d="M14.44 10.15c.19-.25.31-.56.31-.9 0-.83-.67-1.5-1.5-1.5s-1.5.67-1.5 1.5c0 .34.12.65.31.9-.49.37-.81.94-.81 1.6 0 1.1.9 2 2 2s2-.9 2-2c0-.66-.32-1.23-.81-1.6m-1.69-.9c0-.28.22-.5.5-.5s.5.22.5.5-.22.5-.5.5-.5-.22-.5-.5m.5 3.5c-.55 0-1-.45-1-1s.45-1 1-1 1 .45 1 1-.45 1-1 1"/></svg>