<svg xmlns="http://www.w3.org/2000/svg" viewBox="0 0 24 24" width="24" height="24"><path d="m19.1,8.87c0-.1.01-.2.01-.29,0-2.06-1.71-3.73-3.81-3.73-.01,0-.02,0-.03,0-.68-1.13-1.93-1.85-3.27-1.85s-2.6.71-3.27,1.85c-.01,0-.02,0-.03,0-2.1,0-3.81,1.67-3.81,3.73,0,.1,0,.19.01.29-1.15.54-1.9,1.67-1.9,2.94,0,1.8,1.5,3.27,3.33,3.27.23,0,.47-.03.72-.09.17.15.34.28.53.4h0c3.84,2.79,3.92,5.58,3.92,5.61h.33s.67,0,.67,0c0-.03.08-2.82,3.92-5.61h0c.19-.12.37-.25.53-.4.25.06.49.09.72.09,1.84,0,3.33-1.47,3.33-3.27,0-1.27-.75-2.4-1.9-2.94Zm-9.31,7.08c.6-.02,1.19-.16,1.71-.44v2.57c-.39-.66-.95-1.38-1.71-2.13Zm2.71,2.13v-2.56c.51.28,1.08.44,1.68.47-.75.74-1.29,1.45-1.68,2.1Z"/></svg>