<svg xmlns="http://www.w3.org/2000/svg" viewBox="0 0 24 24" width="24" height="24"><path d="m19.5,10.5c-.65,0-1.2.42-1.41,1h-5.59v-2.5h4.5v-3.09c.58-.21,1-.76,1-1.41,0-.83-.67-1.5-1.5-1.5s-1.5.67-1.5,1.5c0,.65.42,1.2,1,1.41v2.09h-3.5v-2.61c0-1.32-1.07-2.39-2.39-2.39-1.13,0-2.09.8-2.33,1.89h-.03c-1.58,0-2.86,1.28-2.86,2.86,0,.4.08.79.24,1.14-1.25.49-2.13,1.72-2.13,3.11,0,.99.43,1.91,1.18,2.54-.15.39-.23.81-.23,1.23,0,1.71,1.3,3.12,3,3.31.4,1.13,1.48,1.91,2.7,1.91,1.58,0,2.86-1.28,2.86-2.86v-2.14h3.5v2.09c-.58.21-1,.76-1,1.41,0,.83.67,1.5,1.5,1.5s1.5-.67,1.5-1.5c0-.65-.42-1.2-1-1.41v-3.09h-4.5v-2.5h5.59c.21.58.76,1,1.41,1,.83,0,1.5-.67,1.5-1.5s-.67-1.5-1.5-1.5Z"/></svg>