<svg xmlns="http://www.w3.org/2000/svg" viewBox="0 0 24 24" width="24" height="24"><path d="m17.5,17.21c2.15-.72,3.5-1.87,3.5-3.22v-2.01c-.79.78-1.99,1.43-3.5,1.89v3.33Z"/><path d="m20.99,9.95c-.07-2.26-3.91-3.95-8.99-3.95s-8.92,1.69-8.99,3.95c.07,1.73,3.74,3.64,8.99,3.64s8.92-1.91,8.99-3.64Z"/><path d="m7.5,17.5c1.18.29,2.53.46,4,.5v-3.37c-1.44-.03-2.79-.2-4-.48v3.36Z"/><path d="m12.5,18c1.47-.03,2.82-.21,4-.5v-3.36c-1.21.28-2.56.45-4,.48v3.37Z"/><path d="m3,14c0,1.35,1.35,2.5,3.5,3.22v-3.33c-1.51-.46-2.71-1.12-3.5-1.89v2.01Z"/></svg>