<svg xmlns="http://www.w3.org/2000/svg" viewBox="0 0 24 24" width="24" height="24"><path d="m17.25,9.5c-.15,0-.31,0-.47.03-1.11-2.16-3.34-3.53-5.78-3.53-3.44,0-6.27,2.69-6.48,6.15-1.48.43-2.52,1.78-2.52,3.35,0,1.93,1.57,3.5,3.5,3.5h11.75c2.62,0,4.75-2.13,4.75-4.75s-2.13-4.75-4.75-4.75Z"/><path d="m21,7c-2.21,0-4-1.79-4-4,0-.08.01-.16.02-.24l.08-.78-.75.07c-.12,0-.25.02-.36.04-.32.06-.63.16-.94.29-.3.13-.58.28-.85.46-.27.18-.52.39-.74.61-.23.22-.43.47-.61.74,0,0,0,0,0,0,2.03.45,3.82,1.62,5.04,3.32,1.38.13,2.64.69,3.65,1.53.02-.04.04-.07.06-.11.13-.3.23-.62.29-.94.03-.12.04-.24.04-.37l.07-.75-.78.08c-.08.01-.16.02-.24.02Z"/></svg>