<svg xmlns="http://www.w3.org/2000/svg" viewBox="0 0 24 24" width="24" height="24"><path d="m17.98,14.39c.11-.15.22-.26.34-.34l3.08-2.05-1.81-1.21c-.31-.21-.53-.53-.61-.91-.09-.4-.02-.81.2-1.14l1.31-1.97h-2.89s0,0,0,0c-.3,0-.58-.09-.79-.26-.22-.18-.38-.38-.47-.6l-1.26-3.15-2.88,1.73c-.43.25-.85.41-1.29.47-1.07.14-2.14-.16-2.97-.83l-2.1-1.68v5.28c0,.16-.05.32-.16.5-.15.26-.45.42-.76.42h-2.62l2.2,2.2c.25.25.4.54.44.85.07.56-.12,1.11-.52,1.5l-2.12,2.12h4.13c.29,0,.56.09.78.27.33.26.52.64.52,1.03v5.07l3.62-3.62c.51-.51,1.19-.85,1.97-.97l.21-.04c.87-.17,1.7-.08,2.38.26l2.46,1.23-.62-3.11c-.07-.37.01-.76.24-1.06l-.4-.3h0l.41.29Z"/></svg>