<svg xmlns="http://www.w3.org/2000/svg" viewBox="0 0 24 24" width="24" height="24"><path d="m19,5h-4l-2-2v2s0,0,0,0v4c0,2.21,1.79,4,4,4s4-1.79,4-4v-4h0v-2s0,0-1.99,2Zm-3.75,4c-.41,0-.75-.34-.75-.75s.34-.75.75-.75.75.34.75.75-.34.75-.75.75Zm3.5,0c-.41,0-.75-.34-.75-.75s.34-.75.75-.75.75.34.75.75-.34.75-.75.75Z"/><path d="m12.1,10h-6.52c-.87,0-1.58-.76-1.58-1.69s.71-1.69,1.58-1.69c1.18,0,3.42-.65,3.42-3.12v-.5h-1v.5c0,2.05-2.17,2.12-2.42,2.12-1.42,0-2.58,1.21-2.58,2.69,0,1.3.89,2.38,2.06,2.63l1.51,10.06h3.43v-4h5v4h3.44l.89-7.61c-.7.38-1.49.61-2.34.61-2.41,0-4.43-1.72-4.9-4Z"/></svg>