<svg xmlns="http://www.w3.org/2000/svg" width="24" height="24" viewBox="0 0 24 24"><path d="M11.87 11.81c0-2.77 2.17-5.06 5.04-5.31l3.04-.27c-.27-.44-.59-.85-.96-1.22-3.12-3.12-8.8-2.53-12.65 1.33-1.85 1.85-3.02 4.18-3.28 6.55-.16 1.42.03 2.74.51 3.91l4.52-.72c2.2-.35 3.79-2.15 3.79-4.27Z"/><path d="M17 7.49c-2.35.21-4.13 2.06-4.13 4.31 0 2.62-1.95 4.83-4.63 5.26l-4.21.67c.28.45.6.87.98 1.25 1.31 1.31 3.1 2.01 5.11 2.01.33 0 .66-.02 1-.06 2.37-.26 4.69-1.43 6.55-3.28s3.02-4.18 3.28-6.55c.16-1.42-.03-2.75-.51-3.92l-3.44.3Z"/></svg>