<svg xmlns="http://www.w3.org/2000/svg" viewBox="0 0 24 24" width="24" height="24"><path d="m11.5,3c-4.22,0-8.5,2.58-8.5,7.5,0,2.43,1.04,4.58,3,6.24v4.26h8v-2h4v-4h2.69l-1.69-5.08c-.05-3.34-2.9-6.92-7.5-6.92Zm-.57,12c-1.07,0-2.07-.42-2.83-1.17-.76-.76-1.17-1.76-1.17-2.83s.42-2.07,1.17-2.83c.75-.76,1.76-1.17,2.83-1.17,1.24,0,2.25,1.01,2.25,2.25s-.97,2.2-2.18,2.24h0s-1,0-1,0v-1h.93c.69,0,1.25-.56,1.25-1.25s-.56-1.25-1.25-1.25c-.8,0-1.55.31-2.12.88-.57.57-.88,1.32-.88,2.12s.31,1.55.88,2.12c1.13,1.13,3.11,1.13,4.24,0l.71.71c-.75.76-1.76,1.17-2.83,1.17Z"/></svg>