<svg xmlns="http://www.w3.org/2000/svg" viewBox="0 0 24 24" width="24" height="24"><path d="m18.36,13.36c-.55.55-1.17,1.02-1.84,1.41l-2.91-6.61c.24-.33.38-.73.38-1.16,0-.93-.64-1.71-1.5-1.93v-2.07h-1v2.07c-.86.22-1.5,1-1.5,1.93,0,.44.14.84.38,1.16l-2.91,6.61c-.66-.39-1.28-.85-1.84-1.41l-.35-.35-.71.71.35.35c.64.64,1.36,1.18,2.14,1.62l-2.03,4.61.92.4,2.01-4.56c.09.04.18.09.27.13,1.2.49,2.46.73,3.76.73s2.57-.25,3.76-.73c1.24-.5,2.35-1.24,3.31-2.2l.35-.35-.71-.71-.35.35Zm-9.75,1.98c-.08-.03-.16-.08-.25-.11l2.82-6.41c.25.11.52.18.82.18s.57-.07.82-.18l2.82,6.41c-.08.04-.16.08-.25.11-2.16.87-4.62.87-6.78,0Z"/><path d="m16.84,17.97l1.2,2.73.92-.4-1.22-2.77c-.29.16-.59.3-.9.44Z"/></svg>