<svg xmlns="http://www.w3.org/2000/svg" viewBox="0 0 24 24" width="24" height="24"><path d="m4,3v18h16V3H4Zm10,2c.55,0,1,.45,1,1s-.45,1-1,1-1-.45-1-1,.45-1,1-1Zm-2,13c-2.76,0-5-2.24-5-5s2.24-5,5-5,5,2.24,5,5-2.24,5-5,5Zm5-11c-.55,0-1-.45-1-1s.45-1,1-1,1,.45,1,1-.45,1-1,1Z"/><path d="m10.4,16h-1c0-.73.45-1.11.78-1.38.31-.26.42-.37.42-.62s-.11-.36-.42-.62c-.33-.27-.78-.65-.78-1.38s.45-1.11.78-1.38c.31-.26.42-.37.42-.62h1c0,.73-.45,1.11-.78,1.38-.31.26-.42.37-.42.62s.11.36.42.62c.33.27.78.65.78,1.38s-.45,1.11-.78,1.38c-.31.26-.42.37-.42.62Z"/><path d="m13.4,16h-1c0-.73.45-1.11.78-1.38.31-.26.42-.37.42-.62s-.11-.36-.42-.62c-.33-.27-.78-.65-.78-1.38s.45-1.11.78-1.38c.31-.26.42-.37.42-.62h1c0,.73-.45,1.11-.78,1.38-.31.26-.42.37-.42.62s.11.36.42.62c.33.27.78.65.78,1.38s-.45,1.11-.78,1.38c-.31.26-.42.37-.42.62Z"/></svg>