<svg xmlns="http://www.w3.org/2000/svg" viewBox="0 0 24 24" width="24" height="24"><path d="m17.4,13.8c.79-1.05,1.6-2.13,1.6-3.8,0-3.93-3.08-7-7-7-2.3,0-4.3,1.06-5.57,2.72l-3.08-3.08-.71.71,3.22,3.22.75.75,1.56,1.56.85.85,6.11,6.11.88.88,4.63,4.63.71-.71-5.05-5.05c.26-.65.66-1.22,1.1-1.8Zm-8.06-5.16c.14-.27.31-.53.54-.76,1.13-1.13,3.11-1.13,4.24,0,.57.57.88,1.32.88,2.12s-.31,1.55-.88,2.12l.71.71c.76-.76,1.17-1.76,1.17-2.83s-.42-2.07-1.17-2.83c-1.51-1.51-4.15-1.51-5.66,0-.22.22-.41.47-.56.73l-1.45-1.45c1.08-1.49,2.83-2.45,4.85-2.45,3.36,0,6,2.64,6,6,0,1.33-.68,2.24-1.4,3.2-.38.51-.76,1.04-1.06,1.63l-6.2-6.2Z"/><path d="m12,20c-1.79,0-3-1.21-3-3h-1c0,2.36,1.64,4,4,4,.77,0,2.61-.41,3.5-1.96l-.75-.75c-.72,1.63-2.72,1.72-2.75,1.72Z"/></svg>