<svg xmlns="http://www.w3.org/2000/svg" viewBox="0 0 24 24" width="24" height="24"><path d="m15,17.06c0-2.55-2.28-4.07-3-4.49-.72.42-3,1.95-3,4.49,0,1.9,1.35,3.44,3,3.44s3-1.54,3-3.44Z"/><path d="m18.34,7.79l-.45.49c-.81.88-1.9,1.37-3.08,1.37-2.31,0-4.19-1.89-4.19-4.21,0-.29.03-.59.11-.91l.24-1.11-.98.57c-2.24,1.29-5.99,4.18-5.99,8.98,0,3.61,2.39,6.67,5.66,7.68-1-.81-1.66-2.11-1.66-3.59,0-3.65,3.63-5.44,3.78-5.51l.22-.1.22.1c.15.07,3.78,1.87,3.78,5.51,0,1.48-.66,2.78-1.66,3.59,3.27-1.01,5.66-4.07,5.66-7.68,0-1.63-.44-3.18-1.31-4.61l-.35-.57Z"/></svg>