<svg xmlns="http://www.w3.org/2000/svg" viewBox="0 0 24 24" width="24" height="24"><path d="m19.14,4.15l-7.85,7.85h8.13c.96-1.04,1.52-2.34,1.58-3.71.05-1.46-.47-2.82-1.47-3.82-.12-.12-.26-.21-.39-.32Z"/><path d="m6.15,17.14l-3.01,3.01.71.71,3.01-3.01c.9.74,2.01,1.15,3.22,1.15.07,0,.14,0,.21,0,1.45-.05,2.83-.67,3.89-1.73l4.27-4.27h-8.16l-4.14,4.14Z"/><path d="m18.29,3.59c-.78-.41-1.66-.63-2.58-.59-1.45.05-2.83.67-3.89,1.73l-5.09,5.09c-1.06,1.06-1.67,2.44-1.73,3.89-.03.93.18,1.8.59,2.57L18.29,3.59Z"/></svg>