<svg xmlns="http://www.w3.org/2000/svg" width="24" height="24" viewBox="0 0 24 24"><path d="M18.36 5.64c-.41-.41-.86-.78-1.33-1.1-.48-.33-1-.61-1.53-.83-.54-.23-1.11-.41-1.69-.52a9.2 9.2 0 0 0-3.63 0c-.58.12-1.15.29-1.69.52-.53.22-1.04.5-1.53.83-.47.32-.92.69-1.33 1.1s-.78.86-1.1 1.33c-.33.48-.61 1-.83 1.53-.23.54-.41 1.11-.52 1.69-.12.59-.18 1.2-.18 1.81s.06 1.22.18 1.81c.12.58.29 1.15.52 1.69.22.53.5 1.04.83 1.53.32.47.69.92 1.1 1.33s.86.78 1.33 1.1c.48.33 1 .61 1.53.83.54.23 1.11.41 1.69.52.59.12 1.2.18 1.81.18s1.22-.06 1.81-.18c.58-.12 1.15-.29 1.69-.52.53-.22 1.04-.5 1.53-.83.47-.32.92-.69 1.33-1.1s.78-.86 1.1-1.33c.33-.48.61-1 .83-1.53.23-.54.41-1.11.52-1.69.12-.59.18-1.2.18-1.81h-1a7.85 7.85 0 0 1-.63 3.11c-.2.47-.45.93-.74 1.36-.28.42-.61.82-.98 1.18a8.158 8.158 0 0 1-2.55 1.72 7.937 7.937 0 0 1-4.72.47 7.3 7.3 0 0 1-1.5-.47c-.47-.2-.93-.45-1.36-.74a7.3 7.3 0 0 1-1.18-.98A8.158 8.158 0 0 1 4.6 15.1a8 8 0 0 1-.47-1.5c-.11-.53-.16-1.07-.16-1.61a7.85 7.85 0 0 1 .63-3.11c.2-.47.45-.93.74-1.36.28-.42.61-.82.98-1.18s.76-.69 1.18-.98c.43-.29.89-.54 1.36-.74a7.937 7.937 0 0 1 4.72-.47c.51.1 1.02.26 1.5.47.47.2.93.45 1.36.74.42.28.82.61 1.18.98.17.17.32.34.48.52l-2.13 2.13h5v-5l-2.16 2.16c-.15-.18-.31-.36-.48-.52Z"/><path d="M11.5 7v5.5H17v-1h-4.5V7z"/></svg>