<svg xmlns="http://www.w3.org/2000/svg" width="24" height="24" viewBox="0 0 24 24"><path d="M5 3v18h14V7.29L14.71 3zm10.16 11c0 .19-.02.38-.05.57l.89.51-1.06 1.84-.9-.52c-.29.25-.62.44-.97.57V18h-2.12v-1.03c-.35-.13-.68-.32-.97-.57l-.9.52-1.06-1.84.89-.51c-.04-.19-.05-.38-.05-.57s.02-.38.05-.57l-.89-.51 1.06-1.84.9.52c.29-.25.62-.44.97-.57V10h2.12v1.03c.35.13.68.32.97.57l.9-.52L16 12.92l-.89.51c.04.19.05.38.05.57M14 8V4l4 4z"/><path d="M12 12.45c-.84 0-1.55.71-1.55 1.55s.71 1.55 1.55 1.55 1.55-.71 1.55-1.55-.71-1.55-1.55-1.55"/></svg>