<svg xmlns="http://www.w3.org/2000/svg" viewBox="0 0 24 24" width="24" height="24"><path d="m16.15,6.25c-.45-1.89-2.16-3.27-4.15-3.27s-3.7,1.37-4.15,3.27c-1.93-.15-3.78,1.04-4.4,2.94-.61,1.9.17,3.95,1.83,4.96-.75,1.8-.18,3.91,1.43,5.08.76.55,1.64.81,2.51.81.99,0,1.98-.34,2.77-1.01,1.48,1.26,3.67,1.36,5.28.2,1.61-1.17,2.18-3.29,1.43-5.08,1.66-1.01,2.45-3.06,1.83-4.96-.61-1.9-2.46-3.09-4.4-2.94Zm-.15,5.75c0,2.19-1.8,3.98-3.99,3.99-2.21,0-4-1.8-4.01-3.99,0-2.21,1.8-4,3.99-4.01,2.21,0,4,1.8,4.01,3.99v.02Z"/></svg>