<svg xmlns="http://www.w3.org/2000/svg" viewBox="0 0 24 24" width="24" height="24"><path d="m19.63,9.6l.95-.36-.36-.93-.96.37c-.33-.71-.76-1.37-1.27-1.95l.73-.73-.71-.71-.73.73c-.48-.43-1.01-.8-1.59-1.1l.42-.93-.91-.41-.42.94c-.72-.27-1.48-.43-2.28-.48v-1.03h-1v1.03c-.66.04-1.29.15-1.9.34l-.36-.95-.93.36.37.96c-.71.33-1.37.76-1.95,1.27l-.73-.73-.71.71.73.73c-.43.48-.8,1.01-1.1,1.59l-.93-.42-.41.91.94.42c-.27.72-.43,1.48-.48,2.28h-1.03v1h1.03c.04.66.15,1.29.34,1.9l-.95.36.36.93.96-.37c.33.71.76,1.37,1.27,1.95l-.73.73.71.71.73-.73c.48.43,1.01.8,1.59,1.1l-.42.93.91.41.42-.94c.72.27,1.48.43,2.28.48v1.03h1v-1.03c.66-.04,1.29-.15,1.9-.34l.36.95.93-.36-.37-.96c.71-.33,1.37-.76,1.95-1.27l.73.73.71-.71-.73-.73c.43-.48.8-1.01,1.1-1.59l.93.42.41-.91-.94-.42c.27-.72.43-1.48.48-2.28h1.03v-1h-1.03c-.04-.66-.15-1.29-.34-1.9Zm-10.49,8.78l1.38-3.79c-.91-.52-1.52-1.48-1.52-2.6,0-.74.28-1.41.72-1.93l-2.59-3.09c.24-.23.5-.44.77-.64l2.59,3.08c.45-.26.96-.42,1.51-.42,1.3,0,2.4.84,2.82,2l3.97-.7c.08.32.15.65.18.98l-3.97.7s0,.01,0,.02c0,1.66-1.34,3-3,3-.19,0-.36-.02-.54-.05l-1.38,3.78c-.32-.09-.64-.21-.94-.34Z"/><path d="M12 11A1 1 0 1 0 12 13 1 1 0 1 0 12 11z"/></svg>