<svg xmlns="http://www.w3.org/2000/svg" viewBox="0 0 24 24" width="24" height="24"><path d="m16,10c0-1.62.45-2.41.93-3.25.52-.92,1.07-1.87,1.07-3.75h-1c0,1.62-.45,2.41-.93,3.25-.52.92-1.07,1.87-1.07,3.75h1Z"/><path d="m13.93,6.75c.52-.92,1.07-1.87,1.07-3.75h-1c0,1.62-.45,2.41-.93,3.25-.52.92-1.07,1.87-1.07,3.75h1c0-1.62.45-2.41.93-3.25Z"/><path d="m19.07,6.25c-.52.92-1.07,1.87-1.07,3.75h1c0-1.62.45-2.41.93-3.25.52-.92,1.07-1.87,1.07-3.75h-1c0,1.62-.45,2.41-.93,3.25Z"/><path d="M7 3A2 2 0 1 0 7 7 2 2 0 1 0 7 3z"/><path d="m7,8c-2.21,0-4,1.79-4,4h9c-2-3-2.79-4-5-4Z"/><path d="m3,17.5c0,1.93,1.57,3.5,3.5,3.5h11c1.93,0,3.5-1.57,3.5-3.5v-4.5H3v4.5Z"/></svg>