<svg version="1.1" xmlns="http://www.w3.org/2000/svg" xmlns:xlink="http://www.w3.org/1999/xlink" x="0px" y="0px" viewBox="0 0 24 24" xml:space="preserve" width="24" height="24"><path class="st0" d="M7.3,20C5.5,20,4,18.6,4,16.8H3C3,19.1,4.9,21,7.3,21s4.3-1.9,4.3-4.2c0-0.8-0.2-1.5-0.6-2.1
	c1.4,0.2,2.9-0.1,4.3-1.7c1-1.3,2.8-1.3,3.9,0c0.5,0.7,0.9,1.6,0.9,2.5s-0.3,1.8-0.9,2.5c-1,1.3-2.8,1.3-3.9,0l-0.8,0.6
	c0.7,0.9,1.7,1.4,2.7,1.4s2-0.5,2.7-1.4c0.7-0.9,1.1-2,1.1-3.1s-0.4-2.3-1.1-3.1c-0.7-0.9-1.7-1.4-2.7-1.4s-2,0.5-2.7,1.3
	c-2,2.3-4.4,1.2-5.3,0.6c0.9-0.6,1.4-1.5,1.4-2.6C10.6,8.5,9.1,7,7.3,7S4,8.5,4,10.3h1C5,9,6,8,7.3,8s2.3,1,2.3,2.3s-1,2.2-2.3,2.2
	H7v1h0.3c1.8,0,3.3,1.5,3.3,3.3S9.1,20,7.3,20L7.3,20z"/><path class="st0" d="M12,4.5h-1C11,7,13.2,9,16,9s5-2,5-4.5h-1C20,6.4,18.2,8,16,8S12,6.4,12,4.5z"/><path class="st0" d="M14.5 4.6 15.2 3.8 16 3.1 16.7 3.8 17.5 4.6 16.7 5.3 16 6.1 15.2 5.3z"/></svg>