<svg xmlns="http://www.w3.org/2000/svg" viewBox="0 0 24 24" width="24" height="24"><path d="m17.5,15.58c-.23.3-.46.59-.69.86,2.1.44,3.19,1.11,3.19,1.55,0,.7-2.75,2-8,2s-8-1.3-8-2c0-.44,1.09-1.11,3.19-1.55-.23-.27-.47-.56-.69-.86-2.06.5-3.5,1.3-3.5,2.41,0,1.97,4.53,3,9,3s9-1.03,9-3c0-1.11-1.44-1.92-3.5-2.41Z"/><path d="m6,8.94c-.02,4.87,5.48,8.8,5.71,8.97.09.06.19.09.29.09s.2-.03.29-.09c.23-.17,5.73-4.09,5.71-8.96,0-3.28-2.69-5.94-6-5.94s-6,2.67-6,5.94Zm8,.06c0,1.1-.9,2-2,2s-2-.9-2-2,.9-2,2-2,2,.9,2,2Z"/></svg>