<svg xmlns="http://www.w3.org/2000/svg" viewBox="0 0 24 24" width="24" height="24"><path d="m13.92,17.03s-.06,0-.08,0c-.19,0-.37.03-.54.05-.03-.18-.34-1.57-1.46-2.52l.03-.2c0-.06.15-1.21-.34-2.37l.14.03.17-.37c.02-.05.42-.95.38-2.08.43-.19,1.88-.94,2.39-2.6.57-1.89-.5-3.67-.54-3.74l-.21-.35-.38.14c-.08.03-1.93.74-2.51,2.65-.1.34-.14.67-.15.99-.88-.74-1.84-.99-1.9-1l-.4-.1-.17.37c-.04.08-.87,1.92,0,3.7,0,0,0,0,0,0-.57-.09-1-.06-1.04-.06l-.4.03-.05.4c-.01.08-.27,2.1,1.09,3.52.1.11.21.2.32.29-.44.1-.73.23-.76.24l-.36.16.07.39c.01.08.39,2.09,2.11,2.99.61.32,1.24.42,1.8.42.03,0,.06,0,.09,0-.39.31-.62.57-.64.6l-.25.29.22.32c.05.07,1.22,1.72,3.17,1.77.03,0,.06,0,.08,0,1.89,0,3.2-1.53,3.26-1.59l.25-.29-.22-.32c-.05-.07-1.22-1.72-3.16-1.77Z"/></svg>