<svg xmlns="http://www.w3.org/2000/svg" viewBox="0 0 24 24" width="24" height="24"><path d="m19.5,14.4l-.13-.07h0c-.42-.22-.89-.33-1.37-.33-.06,0-.11.02-.16.02l-1.76-4.02h.92v-2h-1.8l-.22-.5c-.4-.91-1.3-1.5-2.29-1.5h-.69v1h.69c.6,0,1.13.35,1.37.9l1.36,3.1h-4.57l-3.78,2.37-2.37-2.37h-1.71v1h1.29l2.04,2.04c-.11-.01-.22-.04-.33-.04-.95,0-1.83.44-2.39,1.19-.26.33-.45.75-.55,1.22-.04.19-.06.39-.06.59,0,1.65,1.35,3,3,3s3-1.35,3-3c0-.11-.02-.22-.03-.33l1.33,1.33h3.41l1.32-1.32c-.01.11-.03.21-.03.32,0,1.65,1.35,3,3,3s3-1.35,3-3c0-1.06-.57-2.06-1.5-2.6Zm-13.5,4.6c-1.1,0-2-.9-2-2,0-.14.02-.28.04-.39.07-.31.19-.59.36-.8.38-.51.97-.8,1.6-.8.35,0,.69.09.99.26l.08.04c.47.3.79.77.89,1.29.02.13.04.27.04.41,0,1.1-.9,2-2,2Zm12,0c-1.1,0-2-.9-2-2,0-.43.14-.86.4-1.2.38-.51.97-.8,1.6-.8.35,0,.69.09.99.26l.08.04c.58.37.93,1.01.93,1.7,0,1.1-.9,2-2,2Z"/></svg>