<svg xmlns="http://www.w3.org/2000/svg" viewBox="0 0 24 24" width="24" height="24"><path class="b" d="m4,20h16V4H4v16Zm13-12h1v1h-1v-1Zm0,4h1v1h-1v-1Zm0,4h1v1h-1v-1Zm-2-10h1v1h-1v-1Zm0,4h1v1h-1v-1Zm0,4h1v1h-1v-1Zm0,4h1v1h-1v-1Zm-2-10h1v1h-1v-1Zm0,4h1v1h-1v-1Zm0,4h1v1h-1v-1Zm-2-10h1v1h-1v-1Zm0,4h1v1h-1v-1Zm0,4h1v1h-1v-1Zm0,4h1v1h-1v-1Zm-2-10h1v1h-1v-1Zm0,4h1v1h-1v-1Zm0,4h1v1h-1v-1Zm-2-10h1v1h-1v-1Zm0,4h1v1h-1v-1Zm0,4h1v1h-1v-1Zm0,4h1v1h-1v-1Zm-2-10h1v1h-1v-1Zm0,4h1v1h-1v-1Zm0,4h1v1h-1v-1Z"/></svg>