<svg xmlns="http://www.w3.org/2000/svg" viewBox="0 0 24 24" width="24" height="24"><path d="m11,9.45c-.84,0-1.55.71-1.55,1.55s.71,1.55,1.55,1.55,1.55-.71,1.55-1.55-.71-1.55-1.55-1.55Z"/><path d="m11.5,3c-4.22,0-8.5,2.58-8.5,7.5,0,2.43,1.04,4.58,3,6.24v4.26h8v-2h4v-4h2.69l-1.69-5.08c-.05-3.34-2.9-6.92-7.5-6.92Zm2.67,8c0,.19-.02.38-.05.57l.89.51-1.06,1.84-.9-.52c-.29.25-.62.44-.98.57v1.03h-2.13v-1.03c-.35-.13-.69-.32-.98-.57l-.9.52-1.06-1.84.89-.51c-.04-.19-.05-.38-.05-.57s.02-.38.05-.57l-.89-.51,1.06-1.84.9.52c.29-.25.62-.44.98-.57v-1.03h2.13v1.03c.35.13.69.32.98.57l.9-.52,1.06,1.84-.89.51c.04.19.05.38.05.57Z"/></svg>