<svg xmlns="http://www.w3.org/2000/svg" viewBox="0 0 24 24" width="24" height="24"><path d="m8.02,15.98c-.67-.67-1.29-1.38-1.81-2.09-.45-.61-.82-1.21-1.11-1.77l-1.64,5.05c-.31.97-.06,2.01.65,2.73.51.51,1.19.79,1.89.79.28,0,.56-.04.83-.13l5.05-1.64c-.57-.29-1.16-.65-1.78-1.11-.71-.53-1.42-1.14-2.09-1.81Z"/><path d="m16.29,7.71c-.21-.21-.43-.4-.64-.6.41-.47.67-1.08.67-1.86,0-2.57-2.18-3.25-3.34-3.25v1c.24,0,2.34.08,2.34,2.25,0,.5-.17.89-.42,1.19-1.14-.96-2.29-1.75-3.36-2.26-2.12-1.01-3.16-.64-3.65-.14-.11.11-.22.26-.3.44h0s-.01.03-.01.03c-.05.11-.09.23-.12.37l-1.89,5.8c.08.24.18.5.31.77.28.58.66,1.2,1.13,1.84.5.67,1.08,1.34,1.72,1.98.64.64,1.31,1.22,1.98,1.72.64.48,1.26.86,1.84,1.13.27.13.53.23.77.31l5.89-1.92c.08-.02.16-.04.23-.07l.08-.03h0c.16-.09.31-.18.44-.31,1.2-1.2.07-3.85-1.87-6.35,1.02-.6,2.32-1.08,3.91-1.08v-1c-1.88,0-3.39.57-4.55,1.28-.37-.43-.75-.85-1.16-1.25Zm2.96,7.69c-.08.08-.2.13-.34.17h-.03c-1.08.22-3.73-.96-6.61-3.84-1.48-1.48-2.66-3.07-3.33-4.47-.43-.89-.6-1.65-.52-2.13h0c.03-.16.09-.29.18-.38.13-.13.35-.2.64-.2.47,0,1.13.18,1.88.54.93.45,1.95,1.14,2.96,1.97-.9.43-1.97.44-2.04.44v1c.78,0,1.93-.19,2.84-.75.24.22.48.43.71.66.38.38.72.75,1.04,1.12-1.31,1.02-1.99,2.08-2.05,2.17l.85.53s.63-.99,1.84-1.91c1.95,2.48,2.55,4.52,1.99,5.08Z"/></svg>