<svg xmlns="http://www.w3.org/2000/svg" viewBox="0 0 24 24" width="24" height="24"><path d="M10.65 21 13.35 21 14.45 10 9.55 10 10.65 21z"/><path d="M4.89 10 7.09 21 9.65 21 8.55 10 4.89 10z"/><path d="M19.11 10 15.45 10 14.35 21 16.91 21 19.11 10z"/><path d="m17.99,5.75c-.37-1.1-1.46-1.87-2.71-1.87-.35,0-.7.06-1.03.19-.53-.66-1.36-1.06-2.25-1.06s-1.72.4-2.25,1.06c-.33-.12-.68-.19-1.03-.19-1.25,0-2.34.77-2.71,1.87-1.18.34-2.01,1.38-2.01,2.57,0,.24.04.47.11.69h15.79c.06-.22.11-.45.11-.69,0-1.19-.83-2.23-2.01-2.57Z"/></svg>