<svg xmlns="http://www.w3.org/2000/svg" viewBox="0 0 24 24" width="24" height="24"><path d="M7 16.79 7 20 10.21 20 18.25 11.96 15.04 8.75 7 16.79z"/><path d="M18 5.79 16.87 6.92 15.75 8.04 17.35 9.65 18.96 11.25 20.08 10.12 21.21 9 19.6 7.4 18 5.79z"/><path d="m4.07,15.18c.05-1.79,2.22-3.44,4.14-4.89,1.76-1.34,3.29-2.49,3.29-3.79,0-3.4-7.63-3.5-8.5-3.5v1c1.95,0,7.5.46,7.5,2.5,0,.8-1.47,1.91-2.89,2.99-2.1,1.59-4.48,3.39-4.54,5.66-.04,1.28.65,2.5,2.11,3.73l.65-.76c-1.21-1.02-1.78-1.98-1.75-2.94Z"/></svg>