<svg xmlns="http://www.w3.org/2000/svg" viewBox="0 0 24 24" width="24" height="24"><path d="m12,3v1c4.41,0,8,3.59,8,8s-3.59,8-8,8v1c4.96,0,9-4.04,9-9S16.96,3,12,3Z"/><path d="M16 12 9 8 9 16 16 12z"/><path d="m3.06,10.92l.99.12c.16-1.29.63-2.54,1.38-3.61l-.82-.57c-.84,1.2-1.38,2.61-1.56,4.06Z"/><path d="m5.98,18.68c1.09.98,2.42,1.69,3.84,2.04l.24-.97c-1.26-.31-2.44-.94-3.42-1.82l-.67.74Z"/><path d="m3.06,13.03c.17,1.46.69,2.86,1.53,4.07l.82-.57c-.74-1.07-1.21-2.33-1.36-3.62l-.99.11Z"/><path d="m10.12,4.23l-.24-.97c-1.42.34-2.76,1.04-3.85,2.02l.66.75c.98-.87,2.16-1.49,3.43-1.79Z"/></svg>