<svg xmlns="http://www.w3.org/2000/svg" viewBox="0 0 24 24" width="24" height="24"><path d="m5,6c0,3.31,2.69,6,6,6h.75c3.28,0,5.94-2.64,6-5.91-1.08-.69-2.37-1.09-3.75-1.09H5.38c-.76,0-1.38-.62-1.38-1.38v-.62h-1v.62c0,1.18.87,2.16,2,2.34v.04Zm5,1c.55,0,1,.45,1,1s-.45,1-1,1-1-.45-1-1,.45-1,1-1Z"/><path d="m14.92,12.23c.64.33,1.08,1,1.08,1.77,0,.31-.08.6-.2.86,2.79-.45,4.73-1.99,5.08-4.1-.28-1.55-1.07-2.92-2.19-3.93-.28,2.37-1.74,4.37-3.78,5.41Z"/><path d="m14.05,16h0s-.03,0-.05,0h-4c0-1.1-.9-2-2-2h-3c0,2,2,3.5,2,3.5,0,0-2,1.5-2,3.5h3c1.1,0,2-.9,2-2h4c3.46,0,6.33-2.51,6.89-5.81-1.32,1.74-3.77,2.81-6.84,2.81Z"/></svg>