<svg xmlns="http://www.w3.org/2000/svg" viewBox="0 0 24 24" width="24" height="24"><path d="M18 4.79 16.88 5.92 15.75 7.04 18.1 9.4 20.46 11.75 21.58 10.63 22.71 9.5 20.35 7.15 18 4.79z"/><path d="m14.24,8.55l-5.66,1.54-2.12,9.56.34.34,4.85-4.85h.01c-.1-.19-.16-.41-.16-.65,0-.83.67-1.5,1.5-1.5s1.5.67,1.5,1.5-.67,1.5-1.5,1.5c-.24,0-.46-.06-.66-.16h.01s-4.85,4.87-4.85,4.87l.34.34,9.56-2.12,1.54-5.66.8-.8-4.71-4.71-.8.8Z"/><path d="m5.75,20.37l-.38-.38c-.48.07-.95.04-1.32-.16-.69-.38-1.04-1.33-1.04-2.82,0-2.04.95-4.35,1.78-6.39,1.06-2.59,1.97-4.82,1-6.28-.6-.9-1.84-1.33-3.78-1.33v1c1.56,0,2.55.3,2.95.89.68,1.01-.18,3.12-1.09,5.34-.87,2.12-1.85,4.53-1.85,6.77,0,1.89.52,3.13,1.56,3.7.42.23.89.32,1.36.32.44,0,.87-.08,1.28-.19l-.12-.12-.34-.34Z"/></svg>