<svg xmlns="http://www.w3.org/2000/svg" width="24" height="24" viewBox="0 0 24 24"><path d="M18.16 4.13c-.67.07-1.38.41-2.09.98A8.04 8.04 0 0 0 12.1 4c-2.14.02-4.17.78-5.69 2.27A7.95 7.95 0 0 0 4 11.9c-.01 1.17.23 2.29.68 3.33-.41.44-.79 1.08-1.01 1.74-.34.99-.27 1.84.21 2.38.38.43.95.65 1.68.65s1.7-.24 2.79-.71c1.94-.83 4.18-2.32 6.3-4.21 2.12-1.88 3.87-3.93 4.93-5.76 1.16-2.02 1.36-3.55.58-4.43-.51-.57-1.22-.85-2-.76M7.44 18.58h-.01c-1.37.52-2.4.56-2.8.12-.23-.26-.23-.77-.02-1.4.15-.43.36-.81.57-1.1.31.5.67.97 1.09 1.4.36.37.74.69 1.16.98.12-.03.24-.08.36-.13-.12.05-.24.1-.35.14ZM19.04 8.2c-.34-.65-.78-1.25-1.31-1.79-.25-.26-.52-.49-.8-.71.48-.33.93-.53 1.34-.58.46-.04.84.1 1.14.44.39.43.25 1.4-.37 2.64M15.32 15.83c-1.82 1.62-3.73 2.95-5.49 3.86.67.19 1.36.3 2.08.3h.11c2.1 0 4.08-.8 5.58-2.27a7.95 7.95 0 0 0 2.41-5.63c0-.47-.04-.94-.11-1.39-1.12 1.68-2.71 3.47-4.58 5.13"/></svg>