<svg xmlns="http://www.w3.org/2000/svg" viewBox="0 0 24 24" width="24" height="24"><path d="M19 19 16 19 8 19 5 19 5 20 8 20 16 20 19 20 19 19z"/><path d="M12.5 7 12.5 5.5 12.5 4 12 4 11.5 4 11.5 5.5 11.5 7 12 7 12.5 7z"/><path d="M18 12 18 12.5 18 13 19.5 13 21 13 21 12.5 21 12 19.5 12 18 12z"/><path d="M6 13 6 12.5 6 12 4.5 12 3 12 3 12.5 3 13 4.5 13 6 13z"/><path d="M16.6 8.61 17.66 7.55 18.72 6.49 18.36 6.14 18.01 5.78 16.95 6.84 15.89 7.9 16.24 8.26 16.6 8.61z"/><path d="M7.4 8.61 7.76 8.26 8.11 7.9 7.05 6.84 5.99 5.78 5.64 6.14 5.28 6.49 6.34 7.55 7.4 8.61z"/><path d="m8,18h8v-5c0-2.21-1.79-4-4-4s-4,1.79-4,4v5Z"/></svg>