<svg xmlns="http://www.w3.org/2000/svg" width="24" height="24" viewBox="0 0 24 24"><path d="M16.88 6.41c-.07-.53-.3-1.04-.7-1.45-.54-.54-1.28-.8-2.04-.72-.28.03-.55.11-.8.23L6.8 14.68l.91.91 9.17-9.17ZM7.95 4.7 5.12 13l.96.96 6.32-9.87c-.09-.12-.17-.25-.28-.36-.62-.62-1.5-.87-2.35-.67A2.5 2.5 0 0 0 7.96 4.7ZM19.68 10.17c.02-.1.07-.2.08-.31.08-.76-.19-1.5-.72-2.04-.39-.39-.91-.63-1.45-.7l-9.17 9.17.89.89 10.37-7.02ZM4.17 14.17C3.41 14.92 3 15.93 3 17s.42 2.07 1.17 2.83C4.95 20.61 5.97 21 7 21s2.05-.39 2.83-1.17l.35-.35-5.66-5.66zM20.22 11.84c-.18-.18-.38-.31-.59-.43l-9.6 6.5.97.97 8.3-2.83a2.5 2.5 0 0 0 1.64-1.81c.2-.85-.05-1.73-.67-2.35l-.04-.04Z"/></svg>