<svg xmlns="http://www.w3.org/2000/svg" viewBox="0 0 24 24" width="24" height="24"><path d="m4,21h16V3H4v18Zm4.5-15c.83,0,1.5.67,1.5,1.5s-.67,1.5-1.5,1.5-1.5-.67-1.5-1.5.67-1.5,1.5-1.5Zm-3.5,8c.54,0,.78.17,1.11.41.37.26.83.59,1.69.59s1.32-.33,1.69-.59c.33-.24.57-.41,1.11-.41s.78.17,1.11.41c.37.26.83.59,1.69.59s1.32-.33,1.69-.59c.33-.24.57-.41,1.11-.41s.78.17,1.11.41c.37.26.83.59,1.69.59v2c-.54,0-.78-.17-1.11-.41-.37-.26-.83-.59-1.69-.59s-1.32.33-1.69.59c-.33.24-.57.41-1.11.41s-.78-.17-1.11-.41c-.37-.26-.83-.59-1.69-.59s-1.32.33-1.69.59c-.33.24-.57.41-1.11.41s-.78-.17-1.11-.41c-.37-.26-.83-.59-1.69-.59v-2Zm0,3c.54,0,.78.17,1.11.41.37.26.83.59,1.69.59s1.32-.33,1.69-.59c.33-.24.57-.41,1.11-.41s.78.17,1.11.41c.37.26.83.59,1.69.59s1.32-.33,1.69-.59c.33-.24.57-.41,1.11-.41s.78.17,1.11.41c.37.26.83.59,1.69.59v2H5v-3Z"/></svg>