<svg xmlns="http://www.w3.org/2000/svg" viewBox="0 0 24 24" width="24" height="24"><path d="M4 10H5V11H4z"/><path d="M4 13H5V14H4z"/><path d="M4 16H5V17H4z"/><path d="M4 19H5V20H4z"/><path d="M19 4H20V5H19z"/><path d="M19 7H20V8H19z"/><path d="M19 10H20V11H19z"/><path d="M19 13H20V14H19z"/><path d="M19 16H20V17H19z"/><path d="M16 4H17V5H16z"/><path d="M13 4H14V5H13z"/><path d="M10 4H11V5H10z"/><path d="M7 4H8V5H7z"/><path d="M13 19H14V20H13z"/><path d="M10 19H11V20H10z"/><path d="M7 19H8V20H7z"/><path d="M17 7 7.71 7 3.35 2.65 2.65 3.35 7 7.71 7 7.71 16.29 17 16.29 17 20.65 21.35 21.35 20.65 17 16.29 17 7z"/><path d="M7 17 13.46 17 7 10.54 7 17z"/></svg>