<svg xmlns="http://www.w3.org/2000/svg" viewBox="0 0 24 24" width="24" height="24"><path d="m19.5,15.4s-.04-.02-.06-.03c-.33-.18-.7-.28-1.08-.32l-1.13-7.04h1.77v-3h-2.26c-.24-1.16-1.24-2-2.44-2h-1.29v1h1.29c.74,0,1.36.53,1.48,1.26l1.57,9.81c-.69.15-1.31.54-1.74,1.12-.18.24-.32.51-.42.8h-2.18v-8h-5.5c-2.48,0-4.5,2.02-4.5,4.5v4.5h2c0,1.65,1.35,3,3,3s3-1.35,3-3h4c0,1.65,1.35,3,3,3s3-1.35,3-3c0-1.06-.57-2.06-1.5-2.6Zm-11.5,4.6c-1.1,0-2-.9-2-2,0-.14.02-.28.04-.39.07-.31.19-.59.36-.8.08-.11.18-.2.27-.29.07-.06.15-.12.23-.17.02-.01.03-.02.05-.03.38-.22.82-.32,1.25-.28.06,0,.13.01.19.02.06.01.13.03.19.05.14.04.27.09.4.16l.08.04c.12.07.22.16.32.25,0,0,0,0,0,0,.29.28.49.64.57,1.03.02.13.04.27.04.41,0,1.1-.9,2-2,2Zm10-13h-.93l-.16-1h1.09v1Zm0,13c-1.1,0-2-.9-2-2,0-.43.14-.86.4-1.2.28-.37.67-.62,1.1-.74h0s.49-.07.49-.07c.35,0,.69.09.99.26.02.01.04.02.05.03.59.37.96,1.02.96,1.71,0,1.1-.9,2-2,2Z"/></svg>