<svg version="1.1" xmlns="http://www.w3.org/2000/svg" xmlns:xlink="http://www.w3.org/1999/xlink" x="0px" y="0px" viewBox="0 0 24 24" xml:space="preserve" width="24" height="24"><path class="st0" d="M2.8 11.5 5.4 8.9 8 6.3 10.6 8.9 13.2 11.5 10.6 14.1 8 16.7 5.4 14.1z"/><path class="st0" d="M16.8 12.600000000000001A4.2 4.2 0 1 0 16.8 21 4.2 4.2 0 1 0 16.8 12.600000000000001z"/><path class="st0" d="M18.2,3c-0.6,0-1.3,0.2-1.8,0.6C16,3.2,15.4,3,14.8,3C13.2,3,12,4.2,12,5.8c0,0.7,0.2,1.3,0.7,1.8l3.8,3.6
	l3.8-3.6C20.8,7,21,6.4,21,5.7C21,4.2,19.8,3,18.2,3z"/></svg>