<svg xmlns="http://www.w3.org/2000/svg" viewBox="0 0 24 24" width="24" height="24"><path d="m8.5,3c-1.21,0-2.22.86-2.45,2h-3.05v1h3.05c.23,1.14,1.24,2,2.45,2,1.38,0,2.5-1.12,2.5-2.5s-1.12-2.5-2.5-2.5Z"/><path d="m8.5,16c-1.21,0-2.22.86-2.45,2h-3.05v1h3.05c.23,1.14,1.24,2,2.45,2,1.38,0,2.5-1.12,2.5-2.5s-1.12-2.5-2.5-2.5Z"/><path d="M3 11.5 3 12.5 14 12.5 14 12 14 11.5 3 11.5z"/><path d="M21 6 21 5 11 5 11 5.5 11 6 21 6z"/><path d="m21,11.5h-2.05c-.23-1.14-1.24-2-2.45-2-1.38,0-2.5,1.12-2.5,2.5s1.12,2.5,2.5,2.5c1.21,0,2.22-.86,2.45-2h2.05v-1Z"/><path d="M11 18.5 11 19 21 19 21 18 11 18 11 18.5z"/></svg>