<svg xmlns="http://www.w3.org/2000/svg" viewBox="0 0 24 24" width="24" height="24"><path d="m15.85,8.17v-.02s-.02,0-.02,0c-.62-2.96-3.26-5.15-6.33-5.15-3.58,0-6.5,2.92-6.5,6.5,0,3.06,2.2,5.71,5.15,6.33v.02s.02,0,.02,0c.62,2.96,3.26,5.15,6.33,5.15,3.58,0,6.5-2.92,6.5-6.5,0-3.06-2.2-5.71-5.15-6.33Zm-11.85,1.33c0-3.03,2.47-5.5,5.5-5.5,2.47,0,4.64,1.68,5.29,4.01-.09,0-.19,0-.29,0-3.58,0-6.5,2.92-6.5,6.5,0,.1,0,.19,0,.29-2.32-.65-4.01-2.82-4.01-5.29Zm10.5,10.5c-2.47,0-4.64-1.68-5.29-4.01.09,0,.19,0,.29,0,3.58,0,6.5-2.92,6.5-6.5,0-.1,0-.19,0-.29,2.32.65,4.01,2.82,4.01,5.29,0,3.03-2.47,5.5-5.5,5.5Z"/></svg>