<svg xmlns="http://www.w3.org/2000/svg" viewBox="0 0 24 24" width="24" height="24"><path class="b" d="m12,3C7.04,3,3,7.04,3,12s4.04,9,9,9,9-4.04,9-9S16.96,3,12,3Zm0,1c3.71,0,6.82,2.54,7.73,5.97l-4.01-.5c-2.47-.31-4.97-.31-7.44,0l-4.01.5c.9-3.43,4.02-5.97,7.73-5.97Zm1.5,8c0,.83-.67,1.5-1.5,1.5s-1.5-.67-1.5-1.5.67-1.5,1.5-1.5,1.5.67,1.5,1.5Zm-9.5,0c0-.33.03-.66.07-.98l2.68.89c2.01.67,3.52,2.36,3.97,4.43l.78,3.62c-4.18-.26-7.49-3.73-7.49-7.97Zm8.51,7.97l.78-3.62c.45-2.08,1.95-3.76,3.97-4.43l2.68-.89c.04.32.07.65.07.98,0,4.24-3.32,7.71-7.49,7.97Z"/></svg>