<svg xmlns="http://www.w3.org/2000/svg" viewBox="0 0 24 24" width="24" height="24"><path d="m19.24,4.76c-.57-.57-1.24-1.02-1.99-1.32-1.44-.58-3.08-.58-4.51,0l.38.93c1.2-.49,2.56-.49,3.76,0,.62.25,1.18.62,1.65,1.1.48.48.85,1.03,1.1,1.65.24.6.37,1.23.37,1.88s-.12,1.28-.37,1.88l.93.38c.29-.72.44-1.48.44-2.26s-.15-1.54-.44-2.26c-.3-.74-.75-1.41-1.32-1.98Z"/><path d="m13.99,10.72c.3.18.64.28,1.01.28,1.1,0,2-.9,2-2s-.9-2-2-2-2,.9-2,2c0,.37.11.71.28,1.01l-1.58,1.58-5.8-5.8-.35.35c-1.64,1.64-2.55,3.83-2.55,6.15,0,2.16.79,4.19,2.21,5.78l-2.57,2.57.71.71,2.57-2.57c1.6,1.42,3.63,2.21,5.78,2.21,2.32,0,4.51-.9,6.15-2.55l.35-.35-5.8-5.8,1.58-1.58Z"/></svg>