<svg xmlns="http://www.w3.org/2000/svg" viewBox="0 0 24 24" width="24" height="24"><path d="m15.38,3H5.17l-2.13,4.8-.04,1.58c0,.84.4,1.58,1.01,2.06,0,.02-.01.04-.01.07v9.5h16v-9.5s-.01-.05-.01-.07c.61-.48,1.01-1.22,1.01-2.06v-1.38l-2.17-5h-3.45Zm-8.13,6.38c0,.9-.73,1.62-1.62,1.62s-1.62-.73-1.62-1.62v-1.27l1.83-4.11h2.52l-1.07,3.87-.02,1.51Zm1,0v-1.31l1.13-4.07h2.12v5.38c0,.9-.73,1.62-1.62,1.62s-1.62-.73-1.62-1.62Zm6.75,10.62h-6v-6h6v6Zm.75-10.62c0,.9-.73,1.62-1.62,1.62s-1.62-.73-1.62-1.62v-5.38h2.12l1.13,4.07v1.31Zm4.25,0c0,.9-.73,1.62-1.62,1.62s-1.62-.73-1.62-1.62v-1.38l-1.09-4h2.52l1.83,4.11v1.27Z"/></svg>