<svg xmlns="http://www.w3.org/2000/svg" width="24" height="24" viewBox="0 0 24 24"><path d="M20.12 3.88c-1.07-1.07-2.93-1.17-5.25-.28-.93.36-1.9.87-2.87 1.5-.97-.63-1.94-1.14-2.87-1.5-2.31-.89-4.18-.79-5.25.28C2.33 5.43 2.92 8.62 5.1 12c-2.18 3.38-2.77 6.57-1.22 8.12.59.59 1.41.88 2.42.88.83 0 1.78-.2 2.83-.6.93-.36 1.9-.87 2.87-1.5.97.63 1.94 1.14 2.87 1.5 1.05.4 2 .6 2.83.6 1.01 0 1.83-.29 2.42-.88 1.55-1.55.96-4.74-1.22-8.12 2.18-3.38 2.77-6.57 1.22-8.12m-15.53.71C4.98 4.2 5.57 4 6.31 4s1.54.18 2.46.53c.76.29 1.55.69 2.34 1.17-.99.72-1.98 1.55-2.91 2.49-.95.95-1.78 1.93-2.48 2.9C4 8.3 3.46 5.72 4.59 4.58ZM12 6.3c1.05.73 2.1 1.61 3.1 2.61s1.88 2.06 2.6 3.1c-.72 1.04-1.6 2.09-2.6 3.1-1 1-2.04 1.87-3.1 2.61-1.05-.73-2.1-1.61-3.1-2.61s-1.88-2.06-2.6-3.1c.72-1.04 1.6-2.09 2.6-3.1 1-1 2.04-1.87 3.1-2.61M8.77 19.47c-1.9.73-3.42.71-4.18-.05-1.14-1.14-.59-3.72 1.13-6.51a24.653 24.653 0 0 0 5.39 5.39c-.79.49-1.58.88-2.34 1.17m10.64-.05c-.76.76-2.29.78-4.18.05-.76-.29-1.55-.69-2.34-1.17.99-.72 1.98-1.55 2.91-2.49.95-.95 1.78-1.93 2.48-2.9 1.72 2.79 2.26 5.37 1.13 6.51m-1.13-8.31a24.653 24.653 0 0 0-5.39-5.39c.79-.49 1.58-.88 2.34-1.17.92-.36 1.76-.53 2.46-.53.74 0 1.33.2 1.72.59 1.14 1.14.59 3.72-1.13 6.51Z"/><path d="M13.77 13.77c.98-.98.98-2.56 0-3.54s-2.56-.98-3.54 0-.98 2.56 0 3.54 2.56.98 3.54 0"/></svg>