<svg xmlns="http://www.w3.org/2000/svg" viewBox="0 0 24 24" width="24" height="24"><path d="M11.5 3H12.5V6H11.5z"/><path d="M7.15 7.85 7.5 7.5 7.85 7.15 6.92 6.21 5.99 5.28 5.64 5.64 5.28 5.99 6.21 6.92 7.15 7.85z"/><path d="M16.85 7.85 17.79 6.92 18.72 5.99 18.36 5.64 18.01 5.28 17.08 6.21 16.15 7.15 16.5 7.5 16.85 7.85z"/><path d="M18 11.5H21V12.5H18z"/><path d="m16,12c0-2.21-1.79-4-4-4s-4,1.79-4,4H2.71l4.24,9h13.34l-4.24-9h-.05Zm-11.71,1h5.15l1.5,3h-5.24l-1.41-3Zm3.29,7l-1.41-3h5.27l1.5,3h-5.36Zm11.13,0h-4.65l-1.5-3h4.74l1.41,3Zm-6.65-4l-1.5-3h4.86l1.41,3h-4.77Z"/></svg>