<svg xmlns="http://www.w3.org/2000/svg" viewBox="0 0 24 24" width="24" height="24"><path d="m18,11h-2v-1c0-2.76-2.24-5-5-5s-5,2.24-5,5v1c-.8,0-1.56.31-2.12.88-.56.56-.88,1.33-.88,2.12,0,1.15.66,2.18,1.66,2.68-.09.26-.16.54-.16.82,0,1.38,1.12,2.5,2.5,2.5s2.5-1.12,2.5-2.5c0-.17-.03-.34-.07-.5h5.13c-.03.16-.07.33-.07.5,0,1.38,1.12,2.5,2.5,2.5s2.5-1.12,2.5-2.5c0-.29-.07-.57-.16-.83.29-.14.56-.32.79-.54.56-.56.88-1.33.88-2.12,0-1.65-1.35-3-3-3Zm-11,8c-.83,0-1.5-.67-1.5-1.5,0-.26.07-.53.25-.82.28-.43.75-.68,1.25-.68.54,0,1.02.28,1.3.75.13.22.2.49.2.75,0,.83-.67,1.5-1.5,1.5Zm3.5-8h-3.5v-1c0-2.03,1.53-3.7,3.5-3.95v4.95Zm4.5,0h-3.5v-4.95c1.97.25,3.5,1.91,3.5,3.95v1Zm2,8c-.83,0-1.5-.67-1.5-1.5,0-.26.07-.53.2-.75.27-.47.76-.75,1.3-.75.5,0,.97.26,1.3.75.13.22.2.49.2.75,0,.83-.67,1.5-1.5,1.5Z"/></svg>