<svg xmlns="http://www.w3.org/2000/svg" viewBox="0 0 24 24" width="24" height="24"><path d="M19 17A2 2 0 1 0 19 21 2 2 0 1 0 19 17z"/><path d="m14.66,3.04c-1.84.2-3.64,1.11-5.08,2.54-1.44,1.44-2.34,3.24-2.54,5.08-.14,1.24.06,2.39.54,3.38.01.68-.14,1.25-.49,1.81-.29.42-.59.83-.9,1.24l-3.06,3.06s0,0,0,0h0s.71.71.71.71h0s0,0,0,0l3.06-3.06c.4-.31.82-.61,1.24-.9.57-.35,1.15-.5,1.86-.48.77.37,1.62.59,2.55.59.25,0,.52-.01.78-.04,1.84-.2,3.64-1.11,5.08-2.54,1.44-1.44,2.34-3.24,2.54-5.08.21-1.88-.33-3.57-1.53-4.77-1.19-1.19-2.89-1.74-4.77-1.53Zm5.3,6.18c-.01.11-.03.22-.05.33l-.56-.56.64-.64c.01.28,0,.57-.03.86Zm-6.96,5.42l-1.65-1.65,1.65-1.65,1.65,1.65-1.65,1.65Zm2-1.29l1.41,1.41c-.71.47-1.48.82-2.27,1.02l-.79-.79,1.65-1.65Zm-6.96-2.58c.01-.11.03-.22.05-.33l.56.56-.64.64c-.01-.28,0-.57.03-.86Zm6.96-5.42l1.65,1.65-1.65,1.65-1.65-1.65,1.65-1.65Zm-2,1.29l-1.41-1.41c.71-.47,1.48-.82,2.27-1.02l.79.79-1.65,1.65Zm2.35-1.65l.93-.93c.86.14,1.63.5,2.25,1.05l-1.53,1.53-1.65-1.65Zm-.71,4l-1.65,1.65-1.65-1.65,1.65-1.65,1.65,1.65Zm-2,2l-1.65,1.65-1.65-1.65,1.65-1.65,1.65,1.65Zm-3.53,3.53c-.55-.62-.9-1.39-1.04-2.25l.93-.93,1.65,1.65-1.53,1.53Zm-.11-3.89l-.79-.79c.2-.79.55-1.55,1.02-2.27l1.41,1.41-1.65,1.65Zm2,2.71l1.65,1.65-.93.93c-.86-.14-1.63-.49-2.25-1.04l1.53-1.53Zm2.35-2.35l1.65-1.65,1.65,1.65-1.65,1.65-1.65-1.65Zm2-2l1.65-1.65,1.65,1.65-1.65,1.65-1.65-1.65Zm3.65.35l.79.79c-.2.79-.55,1.55-1.02,2.27l-1.41-1.41,1.65-1.65Zm0-.71l-1.65-1.65,1.53-1.53c.55.62.9,1.39,1.04,2.25l-.93.93Zm-4.23-4.61c.22-.03.45-.04.66-.04.07,0,.13.01.19.02l-.63.63-.56-.56c.11-.02.22-.04.33-.05Zm-4.48,2.26c.28-.28.58-.53.88-.76l1.47,1.47-1.65,1.65-1.47-1.47c.23-.31.48-.6.76-.88Zm2.93,9.67c-.29.03-.58.04-.86.03l.64-.64.56.56c-.11.02-.22.04-.33.05Zm4.48-2.26c-.28.28-.58.53-.88.76l-1.47-1.47,1.65-1.65,1.47,1.47c-.23.31-.48.6-.76.88Z"/></svg>