<svg xmlns="http://www.w3.org/2000/svg" viewBox="0 0 24 24" width="24" height="24"><path class="b" d="m10.23,18.72c-1.36,1.36-3.58,1.36-4.95,0-1.36-1.36-1.36-3.59,0-4.95l2.83-2.83-.71-.71-2.83,2.83c-1.75,1.75-1.75,4.61,0,6.36.88.88,2.03,1.32,3.18,1.32s2.31-.44,3.18-1.32l2.83-2.83-.71-.71-2.83,2.83Z"/><path class="b" d="m13.06,4.58l-2.83,2.83.71.71,2.83-2.83c1.37-1.36,3.58-1.36,4.95,0,1.36,1.36,1.36,3.59,0,4.95l-2.83,2.83.71.71,2.83-2.83c1.75-1.75,1.75-4.61,0-6.36-1.75-1.75-4.61-1.75-6.36,0Z"/></svg>