<svg xmlns="http://www.w3.org/2000/svg" width="24" height="24" viewBox="0 0 24 24"><path d="M16.5 4.21c-4.3-2.48-9.81-1-12.29 3.29-2.48 4.3-1 9.81 3.29 12.29a8.9 8.9 0 0 0 4.48 1.2c3.11 0 6.14-1.61 7.81-4.5 2.48-4.3 1-9.81-3.29-12.29Zm-1 3.29c.55 0 1 .45 1 1s-.45 1-1 1-1-.45-1-1 .45-1 1-1M7 13c-.55 0-1-.45-1-1s.45-1 1-1 1 .45 1 1-.45 1-1 1m1.5 3.5c-.55 0-1-.45-1-1s.45-1 1-1 1 .45 1 1-.45 1-1 1m0-7c-.55 0-1-.45-1-1s.45-1 1-1 1 .45 1 1-.45 1-1 1M12 18c-.55 0-1-.45-1-1s.45-1 1-1 1 .45 1 1-.45 1-1 1m0-10c-.55 0-1-.45-1-1s.45-1 1-1 1 .45 1 1-.45 1-1 1m3.5 8.5c-.55 0-1-.45-1-1s.45-1 1-1 1 .45 1 1-.45 1-1 1M17 13c-.55 0-1-.45-1-1s.45-1 1-1 1 .45 1 1-.45 1-1 1"/></svg>