<svg xmlns="http://www.w3.org/2000/svg" viewBox="0 0 24 24" width="24" height="24"><path d="m6.41,3.33l-1.35,1.08c-.33.27-.54.66-.56,1.09-.02.43.14.84.44,1.14l1.05,1.05c-.04,1.04-.5,2.01-1.3,2.67-1.07.89-1.68,2.2-1.68,3.59v7.05h10v-7.05c0-1.39-.61-2.7-1.68-3.59-.8-.67-1.26-1.64-1.3-2.67l1.61-1.61c.31,1.35,1.23,2.92,3.37,2.92v-1c-1.54,0-2.13-1.13-2.36-2h2.36v-3h-7.65c-.34,0-.67.12-.94.33Zm5.59,10.62v2.51c-1.75-.11-2.76-.51-3.81-.93-1.1-.44-2.23-.89-4.19-1.01v-.58c0-1.09.48-2.12,1.32-2.82.94-.79,1.53-1.9,1.65-3.13h2.05c.12,1.22.71,2.34,1.66,3.13.84.7,1.32,1.73,1.32,2.82Z"/><path d="M16 4H18V6H16z"/><path d="M19 4H21V6H19z"/><path d="M19 7H21V9H19z"/></svg>