<svg xmlns="http://www.w3.org/2000/svg" viewBox="0 0 24 24" width="24" height="24"><path d="m10.93,13.74c1.34-.93,2.45-2.14,3.28-3.55-2.12-2.55-5.23-4.02-8.54-4.02-.18,0-.35.01-.53.02-.6.71-1.1,1.51-1.46,2.39,3.03.62,5.65,2.47,7.25,5.16Z"/><path d="m18.36,8.31c0-1.07-.17-2.11-.5-3.12-.36-.31-.74-.59-1.15-.84,0,.09.01.18.01.27,0,6.68-5.43,12.11-12.11,12.11-.09,0-.18-.01-.27-.02.25.41.53.79.84,1.15,1.01.33,2.06.5,3.12.5,5.54,0,10.06-4.51,10.06-10.06Z"/><path d="m10.08,14.27c-1.48-2.5-3.91-4.2-6.73-4.74-.23.79-.35,1.61-.35,2.47,0,1.31.29,2.55.79,3.67.27.02.54.05.82.05,1.99,0,3.86-.53,5.47-1.45Z"/><path d="m21,12c0-2-.66-3.84-1.77-5.33.08.54.13,1.09.13,1.64,0,6.1-4.96,11.06-11.06,11.06-.55,0-1.1-.05-1.64-.13,1.49,1.1,3.34,1.77,5.33,1.77h9v-1h-4.9c2.9-1.5,4.9-4.52,4.9-8Z"/><path d="m14.7,9.24c.65-1.41,1.03-2.98,1.03-4.63,0-.28-.02-.55-.04-.82-1.13-.51-2.37-.8-3.68-.8-2.24,0-4.29.83-5.87,2.19,3.3.13,6.37,1.58,8.57,4.05Z"/></svg>