<svg xmlns="http://www.w3.org/2000/svg" width="24" height="24" viewBox="0 0 24 24"><g opacity="0.4"><path d="m12,3C7.04,3,3,7.04,3,12s4.04,9,9,9,9-4.04,9-9S16.96,3,12,3Zm-5,8c0-.37.21-.68.51-.86l-1.7-.68.37-.93,5,2-.37.93-1.87-.75c.03.09.06.18.06.28,0,.55-.45,1-1,1s-1-.45-1-1Zm1,6s1-3,4-3,4,3,4,3h-8Zm9-6c0,.55-.45,1-1,1s-1-.45-1-1c0-.1.03-.19.06-.28l-1.87.75-.37-.93,5-2,.37.93-1.7.68c.3.17.51.48.51.86Z"/></g><path d="m8,17h8s-1-3-4-3-4,3-4,3Z"/><path d="m5.81,9.46l1.7.68c-.3.17-.51.48-.51.86,0,.55.45,1,1,1s1-.45,1-1c0-.1-.03-.19-.06-.28l1.87.75.37-.93-5-2-.37.93Z"/><path d="m17.81,8.54l-5,2,.37.93,1.87-.75c-.03.09-.06.18-.06.28,0,.55.45,1,1,1s1-.45,1-1c0-.37-.21-.68-.51-.86l1.7-.68-.37-.93Z"/></svg>