<svg xmlns="http://www.w3.org/2000/svg" width="24" height="24" viewBox="0 0 24 24"><g opacity="0.4"><path d="M7 3 6 3 6 17 3 17 6.5 21 10 17 7 17 7 3z"/></g><path d="m20.5,13h-6.5v1h5.79l-5.65,5.65c-.09.09-.15.22-.15.35v.5c0,.28.22.5.5.5h6.5v-1h-5.79l5.65-5.65c.09-.09.15-.22.15-.35v-.5c0-.28-.22-.5-.5-.5Z"/><path d="m17.75,3h-.5c-.66,0-1.25.44-1.44,1.08l-2.04,6.92h1.04l.88-3h3.6l.88,3h1.04l-2.04-6.92c-.19-.63-.78-1.08-1.44-1.08Zm-1.76,4l.78-2.64c.06-.21.26-.36.48-.36h.5c.22,0,.42.15.48.36l.78,2.64h-3.02Z"/></svg>