<svg xmlns="http://www.w3.org/2000/svg" width="24" height="24" viewBox="0 0 24 24"><g opacity="0.4"><path d="m18.64,8.69c-.28-.43-.75-.69-1.26-.69h-2.38v-1.5c0-.83-.67-1.5-1.5-1.5H4.5c-.83,0-1.5.67-1.5,1.5v9c0,.83.67,1.5,1.5,1.5h.07c.05-.26.14-.52.27-.75.46-.78,1.26-1.25,2.16-1.25s1.71.47,2.16,1.25c.14.23.22.49.27.75h5.13c.05-.26.14-.52.27-.75.46-.78,1.26-1.25,2.16-1.25s1.71.47,2.16,1.25c.14.23.22.49.27.75h.07c.83,0,1.5-.67,1.5-1.5v-2.71c0-.29-.08-.57-.24-.81l-2.12-3.29Zm-6.64,2.31h-2.5v2.5h-1v-2.5h-2.5v-1h2.5v-2.5h1v2.5h2.5v1Zm3,1v-3s2.38,0,2.38,0c.17,0,.33.09.42.23l1.78,2.77h-4.58Z"/></g><path d="m7,20c1.38,0,2.5-1.12,2.5-2.5,0-.44-.12-.88-.34-1.25-.46-.78-1.26-1.25-2.16-1.25s-1.71.47-2.16,1.25c-.22.38-.34.81-.34,1.25,0,1.38,1.12,2.5,2.5,2.5Z"/><path d="m17,20c1.38,0,2.5-1.12,2.5-2.5,0-.44-.12-.88-.34-1.25-.46-.78-1.26-1.25-2.16-1.25s-1.71.47-2.16,1.25c-.22.38-.34.81-.34,1.25,0,1.38,1.12,2.5,2.5,2.5Z"/><path d="m19.58,12l-1.78-2.77c-.09-.14-.25-.23-.42-.23h-2.38v3h4.58Z"/><path d="M8.5 13.5 9.5 13.5 9.5 11 12 11 12 10 9.5 10 9.5 7.5 8.5 7.5 8.5 10 6 10 6 11 8.5 11 8.5 13.5z"/></svg>