<svg xmlns="http://www.w3.org/2000/svg" width="24" height="24" viewBox="0 0 24 24"><g opacity="0.4"><path d="m12,4c-4.34,0-8,3.66-8,8s3.66,8,8,8,8-3.66,8-8-3.66-8-8-8Zm5,8.5h-5.5v-5.5h1v4.5h4.5v1Z"/></g><path d="m8.15,3.91c-1.17-1.17-3.07-1.17-4.24,0-1.17,1.17-1.17,3.07,0,4.24.9-1.84,2.4-3.34,4.24-4.24Z"/><path d="m15.85,3.91c1.84.9,3.34,2.4,4.24,4.24,1.17-1.17,1.17-3.07,0-4.24-1.17-1.17-3.07-1.17-4.24,0Z"/><path d="M17 11.5 12.5 11.5 12.5 7 11.5 7 11.5 12.5 17 12.5 17 11.5z"/><path d="m4.85,20.85l2.44-2.44c-.27-.2-.53-.41-.77-.65l-2.38,2.38.71.71Z"/><path d="m19.15,20.85l.71-.71-2.38-2.38c-.24.23-.5.45-.77.65l2.44,2.44Z"/></svg>