<svg xmlns="http://www.w3.org/2000/svg" width="24" height="24" viewBox="0 0 24 24"><g opacity="0.4"><path d="m20.91,7.21l-2.53-3.58c-.28-.4-.74-.63-1.22-.63H6.85c-.49,0-.94.24-1.22.63l-2.53,3.58h0c-.06.09-.1.18-.1.29v12c0,.83.67,1.5,1.5,1.5h15c.83,0,1.5-.67,1.5-1.5V7.5c0-.11-.04-.2-.1-.28h0Zm-4.91,5.79h-8v-1h8v1ZM4.47,7l1.98-2.79c.09-.13.25-.21.41-.21h10.3c.16,0,.31.08.41.21l1.98,2.79H4.47Z"/></g><path d="m19.53,7l-1.98-2.79c-.09-.13-.25-.21-.41-.21H6.85c-.16,0-.31.08-.41.21l-1.98,2.79h15.07Z"/><path d="M8 12H16V13H8z"/></svg>