<svg xmlns="http://www.w3.org/2000/svg" width="24" height="24" viewBox="0 0 24 24"><g opacity="0.4"><path d="M20 7.050000000000001A1 1 0 1 0 20 9.05 1 1 0 1 0 20 7.050000000000001z"/><path d="M8 3.05A1 1 0 1 0 8 5.05 1 1 0 1 0 8 3.05z"/><path d="M8.29 11.05 3.43 2.79 2.57 3.3 7.13 11.05 8.29 11.05z"/></g><path d="m20.5,11.05H3.5c-.28,0-.5.22-.5.5,0,3.15,1.95,6.18,5,7.8v1.2c0,.28.22.5.5.5h7c.28,0,.5-.22.5-.5v-1.2c3.05-1.62,5-4.66,5-7.8,0-.28-.22-.5-.5-.5Z"/><path d="M17.5 3.05A1.5 1.5 0 1 0 17.5 6.05 1.5 1.5 0 1 0 17.5 3.05z"/><path d="M12 5.05A2 2 0 1 0 12 9.05 2 2 0 1 0 12 5.05z"/></svg>