<svg xmlns="http://www.w3.org/2000/svg" width="24" height="24" viewBox="0 0 24 24"><g opacity="0.4"><path d="m20.5,17H3.5c-.28,0-.5.22-.5.5v3c0,.28.22.5.5.5h17c.28,0,.5-.22.5-.5v-3c0-.28-.22-.5-.5-.5Z"/><path d="m20.73,7.43L12.23,3.06c-.14-.07-.31-.07-.46,0L3.27,7.43c-.17.09-.27.26-.27.44v2.62c0,.28.22.5.5.5h17c.28,0,.5-.22.5-.5v-2.62c0-.19-.1-.36-.27-.44Zm-8.73,1.57c-.83,0-1.5-.67-1.5-1.5s.67-1.5,1.5-1.5,1.5.67,1.5,1.5-.67,1.5-1.5,1.5Z"/></g><path d="M5 11H6V17H5z"/><path d="M14.75 11H15.75V17H14.75z"/><path d="M8.25 11H9.25V17H8.25z"/><path d="M11.5 11H12.5V17H11.5z"/><path d="M18 11H19V17H18z"/><path d="M12 6A1.5 1.5 0 1 0 12 9 1.5 1.5 0 1 0 12 6z"/></svg>