<svg xmlns="http://www.w3.org/2000/svg" width="24" height="24" viewBox="0 0 24 24"><g opacity="0.4"><path d="m4.55,11.98c-2.06,2.06-2.06,5.41,0,7.47,1.03,1.03,2.38,1.54,3.73,1.54s2.71-.51,3.73-1.54l.32-.32-7.47-7.47-.32.32Z"/><path d="m11.98,4.55l-.32.32,7.47,7.47.31-.31c2.06-2.06,2.06-5.41,0-7.47-2.06-2.06-5.41-2.06-7.47,0Z"/></g><path d="m19.14,12.33l-7.48-7.48-6.81,6.8,7.48,7.48,6.81-6.8Zm-4.14-1.34c.55,0,1,.45,1,1s-.45,1-1,1-1-.45-1-1,.45-1,1-1Zm-3.01-3c.55,0,1,.45,1,1s-.45,1-1,1-1-.45-1-1,.45-1,1-1Zm-3.01,5.01c-.55,0-1-.45-1-1s.45-1,1-1,1,.45,1,1-.45,1-1,1Zm2,2c0-.55.45-1,1-1s1,.45,1,1-.45,1-1,1-1-.45-1-1Z"/></svg>