<svg xmlns="http://www.w3.org/2000/svg" width="24" height="24" viewBox="0 0 24 24"><g opacity="0.4"><path d="m17.5,3H6.5c-.83,0-1.5.67-1.5,1.5v16c0,.19.1.36.27.44.17.09.36.07.52-.03l6.22-4.3,6.22,4.3c.08.06.18.09.28.09.08,0,.16-.02.23-.06.16-.09.27-.26.27-.44V4.5c0-.83-.67-1.5-1.5-1.5Zm-2.65,7.37l-2.85,2.82-2.85-2.82c-.74-.73-.74-1.89,0-2.63.74-.73,1.92-.73,2.66,0l.19.19.19-.19c.74-.73,1.91-.73,2.66,0,.74.74.74,1.9,0,2.63Z"/></g><path d="m12,13.19l2.85-2.82c.74-.73.74-1.89,0-2.63-.74-.73-1.92-.73-2.66,0l-.19.19-.19-.19c-.74-.73-1.91-.73-2.66,0-.74.74-.74,1.9,0,2.63l2.85,2.82Z"/></svg>