<svg xmlns="http://www.w3.org/2000/svg" width="24" height="24" viewBox="0 0 24 24"><g opacity="0.4"><path d="m13.5,3H4.5c-.83,0-1.5.67-1.5,1.5v16c0,.28.22.5.5.5h11.5V4.5c0-.83-.67-1.5-1.5-1.5Zm-5.5,13h-2v-2h2v2Zm0-4h-2v-2h2v2Zm0-4h-2v-2h2v2Zm4,8h-2v-2h2v2Zm0-4h-2v-2h2v2Zm0-4h-2v-2h2v2Z"/></g><path d="M10 6H12V8H10z"/><path d="M10 14H12V16H10z"/><path d="M10 10H12V12H10z"/><path d="M6 6H8V8H6z"/><path d="M6 10H8V12H6z"/><path d="M6 14H8V16H6z"/><path d="m19.5,7h-4.5v14h5.5c.28,0,.5-.22.5-.5v-12c0-.83-.67-1.5-1.5-1.5Zm-.5,9h-2v-2h2v2Zm0-4h-2v-2h2v2Z"/></svg>