<svg xmlns="http://www.w3.org/2000/svg" width="24" height="24" viewBox="0 0 24 24"><g opacity="0.4"><path d="m19.5,3H6.5c-1.38,0-2.5,1.12-2.5,2.5v13c0,.18.02.35.06.52.21,1.21,1.1,1.74,1.86,1.91.05.01.09.02.14.03.16.03.31.04.44.04h13.5v-1H6.5s0,0,0,0c-.09,0-.18-.01-.27-.03-.01,0-.03,0-.04,0-.57-.12-1.03-.57-1.15-1.14-.02-.1-.04-.2-.04-.32,0-.83.67-1.5,1.5-1.5h13c.28,0,.5-.22.5-.5V3.5c0-.28-.22-.5-.5-.5Zm-3.5,6.5h-3v4.5h-1v-4.5h-3v-1h3v-2.5h1v2.5h3v1Z"/></g><path d="m6.5,20h13c-.83,0-1.5-.67-1.5-1.5s.67-1.5,1.5-1.5H6.5c-.83,0-1.5.67-1.5,1.5s.67,1.5,1.5,1.5Z"/><path d="M12 14 13 14 13 9.5 16 9.5 16 8.5 13 8.5 13 6 12 6 12 8.5 9 8.5 9 9.5 12 9.5 12 14z"/></svg>