<svg xmlns="http://www.w3.org/2000/svg" width="24" height="24" viewBox="0 0 24 24"><g opacity="0.4"><path d="m11.5,3.03c-3.07.26-5.5,2.83-5.5,5.97h5.5V3.03Z"/><path d="m12.5,3.03v5.97h5.5c0-3.14-2.43-5.72-5.5-5.97Z"/><path d="M8 15H10V20H8z"/><path d="M11 15H13V20H11z"/><path d="M6 15H7V20H6z"/><path d="M12.5 14 13 14 14 14 16 14 17 14 18 14 18 10 12.5 10 12.5 14z"/><path d="M11.5 14 11.5 10 6 10 6 14 7 14 8 14 10 14 11 14 11.5 14z"/><path d="M17 15H18V20H17z"/><path d="M14 15H16V20H14z"/></g><path d="m19,14H3v1h1v5h-1v1h18v-1h-1v-5h1v-1h-2Zm-12,6h-2v-5h2v5Zm3,0h-2v-5h2v5Zm3,0h-2v-5h2v5Zm3,0h-2v-5h2v5Zm3,0h-2v-5h2v5Z"/></svg>