<svg xmlns="http://www.w3.org/2000/svg" width="24" height="24" viewBox="0 0 24 24"><g opacity="0.4"><path d="m20.06,10.26c0-1.14-.66-2.17-1.68-2.66-.1-1.55-1.41-2.78-3.01-2.78-.37,0-.74.07-1.08.19-.57-.64-1.4-1.02-2.28-1.02s-1.7.37-2.28,1.02c-.34-.13-.71-.19-1.08-.19-.01,0-.02,0-.03,0-.01,0-.02,0-.03,0h0c-1.57.04-2.85,1.25-2.95,2.78-1.02.49-1.68,1.52-1.68,2.66v.74h16.11v-.74Z"/></g><path d="m20.5,11H3.5c-.28,0-.5.22-.5.5,0,3.15,1.95,6.18,5,7.81v1.19c0,.28.22.5.5.5h7c.28,0,.5-.22.5-.5v-1.19c3.05-1.63,5-4.66,5-7.81,0-.28-.22-.5-.5-.5Z"/></svg>