<svg xmlns="http://www.w3.org/2000/svg" width="24" height="24" viewBox="0 0 24 24"><g opacity="0.4"><path d="m17.29,17.99c-1.46,1.29-3.32,2.01-5.29,2.01-4.41,0-8-3.59-8-8,0-1.97.71-3.82,2.01-5.29l-.7-.7h0c-1.48,1.65-2.3,3.75-2.3,5.99,0,4.96,4.04,9,9,9,2.24,0,4.34-.82,5.99-2.3h0s-.7-.71-.7-.71Z"/></g><path d="m12,3c-1.43,0-2.8.34-4.04.96-.69.35-1.33.79-1.9,1.29-.06.05-.11.1-.16.15-.21.19-.4.4-.59.61l12.68,12.68c.21-.19.41-.38.61-.59.05-.05.1-.11.15-.16.51-.58.95-1.21,1.29-1.9.63-1.24.96-2.61.96-4.04,0-4.96-4.04-9-9-9Zm6,14.29L6.71,6c1.46-1.29,3.32-2,5.29-2,4.41,0,8,3.59,8,8,0,1.97-.71,3.83-2,5.29Z"/></svg>