<svg xmlns="http://www.w3.org/2000/svg" width="24" height="24" viewBox="0 0 24 24"><g opacity="0.4"><path d="m9,8c-1.65,0-3,1.35-3,3h1c0-1.1.9-2,2-2s2,.9,2,2h1c0-1.65-1.35-3-3-3Z"/><path d="m9,6c2.76,0,5,2.24,5,5h1.71l2.76-7.83-.94-.33-2.59,7.34c-.4-2.92-2.91-5.18-5.94-5.18-3.31,0-6,2.69-6,6h1c0-2.76,2.24-5,5-5Z"/><path d="M18.21 11 20.97 3.17 20.03 2.83 17.15 11 18.21 11z"/></g><path d="m3.04,12c.19,2.97,2.08,5.77,4.96,7.31v1.19c0,.28.22.5.5.5h7c.28,0,.5-.22.5-.5v-1.19c3.05-1.62,5-4.65,5-7.81,0-.28-.22-.5-.5-.5H3v1h.04Z"/></svg>