<svg xmlns="http://www.w3.org/2000/svg" width="24" height="24" viewBox="0 0 24 24"><g opacity="0.4"><path d="m18,7.73c0-.17-.1-.32-.24-.41l-7-4.25c-.15-.09-.35-.1-.5,0-.16.09-.25.25-.25.44v6.95l-5.22-3.61-.57.82,5.78,4v.67l-5.78,4,.57.82,5.22-3.61v6.95c0,.18.1.35.25.44.08.04.16.06.25.06.09,0,.18-.02.26-.07l7-4.25c.14-.09.24-.24.24-.41,0-.17-.08-.33-.22-.43l-5.54-3.84,5.54-3.84c.14-.1.22-.26.22-.43Zm-1.42,8.49l-5.58,3.39v-6.75l.36-.25,5.22,3.61Zm-5.22-4.83l-.36-.25v-6.75l5.58,3.39-5.22,3.61Z"/></g></svg>