<svg xmlns="http://www.w3.org/2000/svg" width="24" height="24" viewBox="0 0 24 24"><g opacity="0.4"><path d="m14.5,6h-5c-3.03,0-5.5,2.47-5.5,5.5v8c0,.83.67,1.5,1.5,1.5h13c.83,0,1.5-.67,1.5-1.5v-8c0-3.03-2.47-5.5-5.5-5.5Zm-.03,11l-2.47-1.65-2.47,1.65.82-2.68-1.85-1.85,2.38-.21,1.12-2.26,1.12,2.26,2.38.21-1.85,1.85.82,2.68Z"/></g><path d="M13.12 12.26 12 10 10.88 12.26 8.5 12.47 10.35 14.32 9.53 17 12 15.35 14.47 17 13.65 14.32 15.5 12.47 13.12 12.26z"/><path d="m9,6v-1c0-.55.45-1,1-1h4c.55,0,1,.45,1,1v1h-.5c.52,0,1.02.08,1.5.21v-1.21c0-1.1-.9-2-2-2h-4c-1.1,0-2,.9-2,2v1.21c.48-.14.98-.21,1.5-.21h-.5Z"/></svg>