<svg xmlns="http://www.w3.org/2000/svg" width="24" height="24" viewBox="0 0 24 24"><g opacity="0.4"><path d="m14.5,6h-5c-3.03,0-5.5,2.47-5.5,5.5v8c0,.83.67,1.5,1.5,1.5h1.5v-8.5c0-.83.67-1.5,1.5-1.5h7c.83,0,1.5.67,1.5,1.5v8.5h1.5c.83,0,1.5-.67,1.5-1.5v-8c0-3.03-2.47-5.5-5.5-5.5Z"/><path d="M8 17H16V21H8z"/><path d="m15.5,12h-7c-.28,0-.5.22-.5.5v3.5h8v-3.5c0-.28-.22-.5-.5-.5Z"/></g><path d="m8,17h8v4h1v-8.5c0-.83-.67-1.5-1.5-1.5h-7c-.83,0-1.5.67-1.5,1.5v8.5h1v-4Zm0-4.5c0-.28.22-.5.5-.5h7c.28,0,.5.22.5.5v3.5h-8v-3.5Z"/><path d="m9,6v-1c0-.55.45-1,1-1h4c.55,0,1,.45,1,1v1h-.5c.52,0,1.02.08,1.5.21v-1.21c0-1.1-.9-2-2-2h-4c-1.1,0-2,.9-2,2v1.21c.48-.14.98-.21,1.5-.21h-.5Z"/></svg>