<svg xmlns="http://www.w3.org/2000/svg" width="24" height="24" viewBox="0 0 24 24"><g opacity="0.4"><path d="M16 14A2 2 0 1 0 16 18 2 2 0 1 0 16 14z"/><path d="M8 14A2 2 0 1 0 8 18 2 2 0 1 0 8 14z"/><path d="m3,19.5c0,.83.67,1.5,1.5,1.5h15c.83,0,1.5-.67,1.5-1.5v-8.5H3v8.5Zm13-6.5c1.65,0,3,1.35,3,3s-1.35,3-3,3-3-1.35-3-3,1.35-3,3-3Zm-8,0c1.65,0,3,1.35,3,3s-1.35,3-3,3-3-1.35-3-3,1.35-3,3-3Z"/><path d="m19.5,7H4.5c-.83,0-1.5.67-1.5,1.5v1.5h18v-1.5c0-.83-.67-1.5-1.5-1.5Z"/></g><path d="m7,4.5c0-.28.22-.5.5-.5h9c.28,0,.5.22.5.5v2.5h1v-2.5c0-.83-.67-1.5-1.5-1.5H7.5c-.83,0-1.5.67-1.5,1.5v2.5h1v-2.5Z"/><path d="M3 10H21V11H3z"/><path d="m11,16c0-1.65-1.35-3-3-3s-3,1.35-3,3,1.35,3,3,3,3-1.35,3-3Zm-5,0c0-1.1.9-2,2-2s2,.9,2,2-.9,2-2,2-2-.9-2-2Z"/><path d="m19,16c0-1.65-1.35-3-3-3s-3,1.35-3,3,1.35,3,3,3,3-1.35,3-3Zm-5,0c0-1.1.9-2,2-2s2,.9,2,2-.9,2-2,2-2-.9-2-2Z"/></svg>