<svg xmlns="http://www.w3.org/2000/svg" width="24" height="24" viewBox="0 0 24 24"><g opacity="0.4"><path d="m15.52,4.15c-.2-.2-.51-.2-.71,0l-1.43,1.43c-.9-.38-1.87-.58-2.88-.58-4.14,0-7.5,3.36-7.5,7.5s3.36,7.5,7.5,7.5,7.5-3.36,7.5-7.5c0-1.02-.19-1.99-.58-2.88l1.43-1.43c.2-.2.2-.51,0-.71l-3.33-3.33Zm-5.02,4.85c-1.93,0-3.5,1.57-3.5,3.5h-1c0-2.48,2.02-4.5,4.5-4.5v1Z"/></g><path d="m18.56,3.73l-1.73,1.73.71.71,1.73-1.73c.28-.28.67-.44,1.06-.44h.67v-1h-.67c-.67,0-1.29.26-1.77.73Z"/><path d="m10.5,9v-1c-2.48,0-4.5,2.02-4.5,4.5h1c0-1.93,1.57-3.5,3.5-3.5Z"/></svg>