<svg xmlns="http://www.w3.org/2000/svg" width="24" height="24" viewBox="0 0 24 24"><g opacity="0.4"><path d="m8.5,8.93v1.07h1v-1.07c0-1.05-.41-2.05-1.14-2.81-.55-.57-.86-1.32-.86-2.11v-1.02h-1v1.02c0,1.05.41,2.05,1.14,2.81.55.57.86,1.32.86,2.11Z"/><path d="m12.5,8.93v1.07h1v-1.07c0-1.05-.41-2.05-1.14-2.81-.55-.57-.86-1.32-.86-2.11v-1.02h-1v1.02c0,1.05.41,2.05,1.14,2.81.55.57.86,1.32.86,2.11Z"/><path d="m16.5,8.93v1.07h1v-1.07c0-1.05-.41-2.05-1.14-2.81-.55-.57-.86-1.32-.86-2.11v-1.02h-1v1.02c0,1.05.41,2.05,1.14,2.81.55.57.86,1.32.86,2.11Z"/></g><path d="m20.5,11H3.5c-.28,0-.5.22-.5.5,0,3.15,1.95,6.18,5,7.81v1.19c0,.28.22.5.5.5h7c.28,0,.5-.22.5-.5v-1.19c3.05-1.63,5-4.66,5-7.81,0-.28-.22-.5-.5-.5Z"/></svg>