<svg xmlns="http://www.w3.org/2000/svg" width="24" height="24" viewBox="0 0 24 24"><g opacity="0.4"><path d="m18,8.79v-2.29c0-.28-.22-.5-.5-.5h-2.29l-2.85-2.85c-.2-.2-.51-.2-.71,0l-2.85,2.85h-2.29c-.28,0-.5.22-.5.5v2.29l-2.85,2.85c-.2.2-.2.51,0,.71l2.85,2.85v2.29c0,.28.22.5.5.5h2.29l2.85,2.85c.1.1.23.15.35.15s.26-.05.35-.15l2.85-2.85h2.29c.28,0,.5-.22.5-.5v-2.29l2.85-2.85c.2-.2.2-.51,0-.71l-2.85-2.85Zm-6,.21v7c-2.21,0-4-1.79-4-4s1.79-4,4-4v1Z"/></g><path d="m12,16v-8c-2.21,0-4,1.79-4,4s1.79,4,4,4Z"/></svg>