<svg xmlns="http://www.w3.org/2000/svg" width="24" height="24" viewBox="0 0 24 24"><g opacity="0.4"><path d="m17.5,3H6.5c-.83,0-1.5.67-1.5,1.5v16c0,.19.1.36.27.44.17.09.36.07.52-.03l6.22-4.3,6.22,4.3c.08.06.18.09.28.09.08,0,.16-.02.23-.06.16-.09.27-.26.27-.44V4.5c0-.83-.67-1.5-1.5-1.5Zm-2.65,9.15l-.71.71-2.15-2.15-2.15,2.15-.71-.71,2.15-2.15-2.15-2.15.71-.71,2.15,2.15,2.15-2.15.71.71-2.15,2.15,2.15,2.15Z"/></g><path d="M9.85 12.85 12 10.71 14.15 12.85 14.85 12.15 12.71 10 14.85 7.85 14.15 7.15 12 9.29 9.85 7.15 9.15 7.85 11.29 10 9.15 12.15 9.85 12.85z"/></svg>