<svg xmlns="http://www.w3.org/2000/svg" width="24" height="24" viewBox="0 0 24 24"><g opacity="0.4"><path d="M12 7A3 3 0 1 0 12 13 3 3 0 1 0 12 7z"/><path d="m17.5,3H6.5c-.83,0-1.5.67-1.5,1.5v11c0,.83.67,1.5,1.5,1.5h11c.83,0,1.5-.67,1.5-1.5V4.5c0-.83-.67-1.5-1.5-1.5Zm-5.5,11c-2.21,0-4-1.79-4-4s1.79-4,4-4,4,1.79,4,4-1.79,4-4,4Z"/></g><path d="M16 20 12.5 20 12.5 17 11.5 17 11.5 20 8 20 8 21 16 21 16 20z"/><path d="m12,14c2.21,0,4-1.79,4-4s-1.79-4-4-4-4,1.79-4,4,1.79,4,4,4Zm0-7c1.65,0,3,1.35,3,3s-1.35,3-3,3-3-1.35-3-3,1.35-3,3-3Z"/></svg>