<svg xmlns="http://www.w3.org/2000/svg" width="24" height="24" viewBox="0 0 24 24"><g opacity="0.4"><path d="m4,19.5c0,.83.67,1.5,1.5,1.5h13c.83,0,1.5-.67,1.5-1.5v-10.5H4v10.5Zm4.65-7.15l.71-.71,2.65,2.65,2.65-2.65.71.71-2.65,2.65,2.65,2.65-.71.71-2.65-2.65-2.65,2.65-.71-.71,2.65-2.65-2.65-2.65Z"/></g><path d="m18.5,5h-2.5v-2h-1v2h-6v-2h-1v2h-2.5c-.83,0-1.5.67-1.5,1.5v2.5h16v-2.5c0-.83-.67-1.5-1.5-1.5Z"/><path d="M9.35 18.35 12 15.71 14.65 18.35 15.35 17.65 12.71 15 15.35 12.35 14.65 11.65 12 14.29 9.35 11.65 8.65 12.35 11.29 15 8.65 17.65 9.35 18.35z"/></svg>