<svg xmlns="http://www.w3.org/2000/svg" width="24" height="24" viewBox="0 0 24 24"><g opacity="0.4"><path d="M4.78 8.55c.65-1.36 1.67-2.5 2.94-3.31l-.54-.84c-1.43.91-2.57 2.2-3.31 3.72l.9.43ZM20.48 8.98a9 9 0 0 0-2.9-4.04l-.62.79c1.19.94 2.08 2.18 2.58 3.6l.94-.34ZM4.05 11.13l-.99-.11c-.03.32-.05.65-.05.98 0 1.38.3 2.7.9 3.93l.9-.44a7.93 7.93 0 0 1-.75-4.36ZM5.65 18.38c1.2 1.2 2.71 2.03 4.36 2.4l.22-.97a7.94 7.94 0 0 1-3.88-2.14l-.71.71ZM14.93 3.49C13.99 3.17 13 3 12 3h-.01c-.68 0-1.36.08-2.03.23l.23.97c.59-.14 1.18-.25 1.81-.21.9 0 1.77.15 2.61.43l.33-.95ZM18.78 16.25l.85.53c.9-1.43 1.38-3.09 1.38-4.79v-.05l-1 .05c0 1.51-.42 2.98-1.22 4.25ZM12.91 19.95l.11.99c1.68-.19 3.27-.85 4.6-1.91l-.62-.78a8 8 0 0 1-4.09 1.7"/></g></svg>