<svg xmlns="http://www.w3.org/2000/svg" width="24" height="24" viewBox="0 0 24 24"><g opacity="0.4"><path d="m11.5,3v2h-2.5v1h2.5v2.43c.18.18.35.36.5.56.15-.2.32-.39.5-.56v-2.43h2.5v-1h-2.5v-2h-1Z"/><path d="m4.5,17h15c.83,0,1.5.67,1.5,1.5v1c0,.83-.67,1.5-1.5,1.5H4.5c-.83,0-1.5-.67-1.5-1.5v-1c0-.83.67-1.5,1.5-1.5Z"/></g><path d="m16,7h-.02c-1.59,0-3.05.76-3.97,2-.92-1.24-2.38-1.99-3.97-2h-.02c-2.69,0-4.93,2.17-5,4.85-.06,2.18,1.11,4.1,1.92,5.15h-.42s0,0,0,0h15s0,0,0,0h-.42c.8-1.05,1.97-2.97,1.92-5.15-.07-2.68-2.31-4.85-5-4.85Z"/></svg>