<svg xmlns="http://www.w3.org/2000/svg" width="24" height="24" viewBox="0 0 24 24"><g opacity="0.4"><path d="m20.68,4.53c-.2-.07-.42-.02-.55.14l-3.07,3.51-1.64-2.46c-.08-.12-.22-.21-.37-.22-.14-.01-.3.04-.4.14l-3.57,3.57-1.66-2.49c-.08-.13-.22-.21-.38-.22-.15-.01-.3.05-.41.16l-4.63,5.05V3h-1v17.5c0,.28.22.5.5.5h17.5v-1H4v-1.28l4.63-5.05c.1-.11.25-.17.41-.16.15.01.29.09.38.22l1.66,2.49,3.57-3.57c.11-.11.26-.16.4-.14.15.01.28.1.37.22l1.64,2.46,3.07-3.51c.14-.16.35-.21.55-.14.2.07.32.26.32.47v-7c0-.21-.13-.4-.32-.47Z"/></g><path d="m20.68,11.53c-.2-.07-.42-.02-.55.14l-3.07,3.51-1.64-2.46c-.08-.12-.22-.21-.37-.22-.14-.01-.3.04-.4.14l-3.57,3.57-1.66-2.49c-.08-.13-.22-.21-.38-.22-.15-.01-.3.05-.41.16l-4.63,5.05v1.28h17v-8c0-.21-.13-.4-.32-.47Z"/></svg>