<svg xmlns="http://www.w3.org/2000/svg" width="24" height="24" viewBox="0 0 24 24"><g opacity="0.4"><path d="m4,19.5c0,.83.67,1.5,1.5,1.5h13c.83,0,1.5-.67,1.5-1.5v-10.5H4v10.5Zm6.72-5.91l1.28-2.59,1.28,2.59,2.72.24-2.12,2.12.94,3.06-2.82-1.88-2.82,1.88.94-3.06-2.12-2.12,2.72-.24Z"/></g><path d="m18.5,5h-2.5v-2h-1v2h-6v-2h-1v2h-2.5c-.83,0-1.5.67-1.5,1.5v2.5h16v-2.5c0-.83-.67-1.5-1.5-1.5Z"/><path d="M13.28 13.59 12 11 10.72 13.59 8 13.82 10.12 15.94 9.18 19 12 17.12 14.82 19 13.88 15.94 16 13.82 13.28 13.59z"/></svg>