<svg xmlns="http://www.w3.org/2000/svg" width="24" height="24" viewBox="0 0 24 24"><g opacity="0.4"><path d="m17,5H7c0,2.21-1.79,4-4,4v6c2.21,0,4,1.79,4,4h10c0-2.21,1.79-4,4-4v-6c-2.21,0-4-1.79-4-4Zm-5,11c-2.21,0-4-1.79-4-4s1.79-4,4-4,4,1.79,4,4-1.79,4-4,4Z"/></g><path d="M12 8A4 4 0 1 0 12 16 4 4 0 1 0 12 8z"/><path d="m20.5,5h-3.5c0,2.21,1.79,4,4,4v-3.5c0-.28-.22-.5-.5-.5Z"/><path d="m17,19h3.5c.28,0,.5-.22.5-.5v-3.5c-2.21,0-4,1.79-4,4Z"/><path d="m7,5h-3.5c-.28,0-.5.22-.5.5v3.5c2.21,0,4-1.79,4-4Z"/><path d="m3.5,19h3.5c0-2.21-1.79-4-4-4v3.5c0,.28.22.5.5.5Z"/></svg>