<svg xmlns="http://www.w3.org/2000/svg" width="24" height="24" viewBox="0 0 24 24"><g opacity="0.4"><path d="m9,12c0-1.63,1.37-3,3-3v-1c-2.17,0-4,1.83-4,4s1.83,4,4,4v-1c-1.63,0-3-1.37-3-3Z"/><path d="m15,12c0-1.63-1.37-3-3-3v6c1.63,0,3-1.37,3-3Z"/><path d="m19.5,6h-2.77l-2.35-2.82c-.09-.11-.24-.18-.38-.18h-2v5c2.17,0,4,1.83,4,4s-1.83,4-4,4v3h7.5c.83,0,1.5-.67,1.5-1.5V7.5c0-.83-.67-1.5-1.5-1.5Z"/></g><path d="m12,16c-2.17,0-4-1.83-4-4s1.83-4,4-4V3h-2c-.15,0-.29.07-.38.18l-2.35,2.82h-2.77c-.83,0-1.5.67-1.5,1.5v10c0,.83.67,1.5,1.5,1.5h7.5v-3Z"/><path d="m15,12c0,1.63-1.37,3-3,3v1c2.17,0,4-1.83,4-4s-1.83-4-4-4v1c1.63,0,3,1.37,3,3Z"/><path d="m9,12c0,1.63,1.37,3,3,3v-6c-1.63,0-3,1.37-3,3Z"/></svg>