<svg xmlns="http://www.w3.org/2000/svg" width="24" height="24" viewBox="0 0 24 24"><g opacity="0.4"><path d="m3,10.29v9.21c0,.28.22.5.5.5h17c.28,0,.5-.22.5-.5v-9.5H3.1c-.06.08-.1.18-.1.29Zm14,3.71c1.1,0,2,.9,2,2s-.9,2-2,2-2-.9-2-2,.9-2,2-2Zm-5.5-2c.83,0,1.5.67,1.5,1.5s-.67,1.5-1.5,1.5-1.5-.67-1.5-1.5.67-1.5,1.5-1.5Zm-5,3c.83,0,1.5.67,1.5,1.5s-.67,1.5-1.5,1.5-1.5-.67-1.5-1.5.67-1.5,1.5-1.5Z"/></g><path d="m15.16,3.07c-.13-.04-.27-.02-.39.05L3.25,9.86c-.06.04-.1.09-.14.14h17.9c-.29-4.93-4.81-6.61-5.84-6.93Z"/><path d="M11.5 12A1.5 1.5 0 1 0 11.5 15 1.5 1.5 0 1 0 11.5 12z"/><path d="M17 14A2 2 0 1 0 17 18 2 2 0 1 0 17 14z"/><path d="M6.5 15A1.5 1.5 0 1 0 6.5 18 1.5 1.5 0 1 0 6.5 15z"/></svg>