<svg xmlns="http://www.w3.org/2000/svg" width="24" height="24" viewBox="0 0 24 24"><g opacity="0.4"><path d="m18.5,4H5.5c-.83,0-1.5.67-1.5,1.5v1.5h9c.17,0,.32.08.42.22l1.87,2.8c.07-.01.14-.02.22-.02.83,0,1.5.67,1.5,1.5s-.67,1.5-1.5,1.5-1.5-.67-1.5-1.5c0-.39.15-.74.4-1.01l-1.66-2.49H4v10.5c0,.83.67,1.5,1.5,1.5h13c.83,0,1.5-.67,1.5-1.5v-1.5h-9c-.17,0-.32-.08-.42-.22l-1.87-2.8c-.07.01-.14.02-.22.02-.83,0-1.5-.67-1.5-1.5s.67-1.5,1.5-1.5,1.5.67,1.5,1.5c0,.39-.15.74-.4,1.01l1.66,2.49h8.73V5.5c0-.83-.67-1.5-1.5-1.5Z"/></g><path d="m14.4,10.49c-.24.27-.4.62-.4,1.01,0,.83.67,1.5,1.5,1.5s1.5-.67,1.5-1.5-.67-1.5-1.5-1.5c-.07,0-.15.01-.22.02l-1.87-2.8c-.09-.14-.25-.22-.42-.22H4v1h8.73l1.66,2.49Z"/><path d="m9.6,13.51c.24-.27.4-.62.4-1.01,0-.83-.67-1.5-1.5-1.5s-1.5.67-1.5,1.5.67,1.5,1.5,1.5c.07,0,.15-.01.22-.02l1.87,2.8c.09.14.25.22.42.22h9v-1h-8.73l-1.66-2.49Z"/></svg>