<svg xmlns="http://www.w3.org/2000/svg" width="24" height="24" viewBox="0 0 24 24"><g opacity="0.4"><path d="m12,3C7.04,3,3,7.04,3,12s4.04,9,9,9,9-4.04,9-9S16.96,3,12,3Zm0,17c-4.41,0-8-3.59-8-8S7.59,4,12,4s8,3.59,8,8-3.59,8-8,8Z"/></g><path d="m12.5,4.03c-.17-.01-.33-.03-.5-.03s-.33.01-.5.03v2.97h1v-2.97Z"/><path d="m7,12.5v-1h-2.97c-.01.17-.03.33-.03.5s.01.33.03.5h2.97Z"/><path d="m12.5,19.97v-2.97h-1v2.97c.17.01.33.03.5.03s.33-.01.5-.03Z"/><path d="m20,12c0-.17-.01-.33-.03-.5h-2.97v1h2.97c.01-.17.03-.33.03-.5Z"/></svg>