<svg xmlns="http://www.w3.org/2000/svg" width="24" height="24" viewBox="0 0 24 24"><g opacity="0.4"><path d="M12 9A3 3 0 1 0 12 15 3 3 0 1 0 12 9z"/><path d="m19.5,6h-2.77l-2.35-2.82c-.09-.11-.24-.18-.38-.18h-4c-.15,0-.29.07-.38.18l-2.35,2.82h-2.77c-.83,0-1.5.67-1.5,1.5v10c0,.83.67,1.5,1.5,1.5h15c.83,0,1.5-.67,1.5-1.5V7.5c0-.83-.67-1.5-1.5-1.5Zm-7.5,10c-2.17,0-4-1.83-4-4s1.83-4,4-4,4,1.83,4,4-1.83,4-4,4Z"/></g><path d="m12,16c2.17,0,4-1.83,4-4s-1.83-4-4-4-4,1.83-4,4,1.83,4,4,4Zm0-7c1.63,0,3,1.37,3,3s-1.37,3-3,3-3-1.37-3-3,1.37-3,3-3Z"/></svg>