<svg xmlns="http://www.w3.org/2000/svg" width="24" height="24" viewBox="0 0 24 24"><g opacity="0.4"><path d="m19.5,6h-2.77l-2.35-2.82c-.09-.11-.24-.18-.38-.18h-4c-.15,0-.29.07-.38.18l-2.35,2.82h-.56l2.87,2.87c.68-.53,1.52-.87,2.43-.87,2.17,0,4,1.83,4,4,0,.91-.33,1.75-.87,2.43l4.55,4.55c.74-.09,1.31-.72,1.31-1.48V7.5c0-.83-.67-1.5-1.5-1.5Z"/><path d="m12,16c-2.17,0-4-1.83-4-4,0-.91.33-1.75.87-2.43l-3.57-3.57h-.79c-.83,0-1.5.67-1.5,1.5v10c0,.83.67,1.5,1.5,1.5h13.79l-3.87-3.87c-.68.53-1.52.87-2.43.87Z"/><path d="m15,12c0-1.63-1.37-3-3-3-.64,0-1.23.22-1.72.57l4.15,4.15c.35-.49.57-1.09.57-1.72Z"/><path d="m9,12c0,1.63,1.37,3,3,3,.64,0,1.23-.22,1.72-.57l-4.15-4.15c-.35.49-.57,1.09-.57,1.72Z"/></g><path d="M3.35 2.65 3 3 2.65 3.35 11.65 12.35 20.65 21.35 21 21 21.35 20.65 12.35 11.65 3.35 2.65z"/></svg>