<svg xmlns="http://www.w3.org/2000/svg" width="24" height="24" viewBox="0 0 24 24"><g opacity="0.4"><path d="m20.5,7H3.5c-.83,0-1.5.67-1.5,1.5v9c0,.83.67,1.5,1.5,1.5h17c.83,0,1.5-.67,1.5-1.5v-9c0-.83-.67-1.5-1.5-1.5Zm-10.5,6.5h-6v-1h6v1Zm10,0h-2.5v2.5h-1v-2.5h-2.5v-1h2.5v-2.5h1v2.5h2.5v1Z"/></g><path d="M5 5H9V7H5z"/><path d="M15 5H19V7H15z"/><path d="M4 12.5H10V13.5H4z"/><path d="M16.5 16 17.5 16 17.5 13.5 20 13.5 20 12.5 17.5 12.5 17.5 10 16.5 10 16.5 12.5 14 12.5 14 13.5 16.5 13.5 16.5 16z"/></svg>