<svg xmlns="http://www.w3.org/2000/svg" width="24" height="24" viewBox="0 0 24 24"><g opacity="0.4"><path d="m4.5,17h15c.83,0,1.5.67,1.5,1.5v1c0,.83-.67,1.5-1.5,1.5H4.5c-.83,0-1.5-.67-1.5-1.5v-1c0-.83.67-1.5,1.5-1.5Z"/></g><path d="m18.01,6.55c-1.22.24-2.1,1.4-2,2.65.02.21.06.42.13.62l-1.03,2.57-1.29-5.17c.44-.46.68-1.07.68-1.71,0-1.38-1.12-2.5-2.5-2.5s-2.5,1.12-2.5,2.5c0,.64.25,1.25.68,1.71l-1.29,5.17-1.03-2.57c.07-.2.12-.4.13-.62.1-1.25-.78-2.41-2-2.65-.74-.14-1.5.05-2.08.52-.58.48-.91,1.18-.91,1.93,0,1.08.69,2.02,1.68,2.36l.75,5.64h-.93s0,0,0,0h15s0,0,0,0h-.93l.75-5.64c.99-.34,1.68-1.28,1.68-2.36,0-.75-.33-1.45-.91-1.93-.58-.48-1.34-.67-2.08-.52Z"/></svg>