<svg xmlns="http://www.w3.org/2000/svg" width="24" height="24" viewBox="0 0 24 24"><g opacity="0.4"><path d="m19.34,13.39h0l.16-1.29c-.69.55-1.55.9-2.5.9-1.86,0-3.41-1.28-3.86-3h-1.04c.46,2.28,2.48,4,4.9,4,.85,0,1.64-.23,2.34-.61Z"/><path d="M15.25 7.5A.75.75 0 1 0 15.25 9 .75.75 0 1 0 15.25 7.5z"/><path d="M18.75 7.5A.75.75 0 1 0 18.75 9 .75.75 0 1 0 18.75 7.5z"/></g><path d="m21,3l-2,2h-4l-2-2v2s0,0,0,0v4c0,2.21,1.79,4,4,4s4-1.79,4-4v-4h0v-2Zm-5.75,6c-.41,0-.75-.34-.75-.75s.34-.75.75-.75.75.34.75.75-.34.75-.75.75Zm3.5,0c-.41,0-.75-.34-.75-.75s.34-.75.75-.75.75.34.75.75-.34.75-.75.75Z"/><g><path d="m12.1,10h-6.52c-.87,0-1.58-.76-1.58-1.69s.71-1.69,1.58-1.69c1.18,0,3.42-.65,3.42-3.12v-.5h-1v.5c0,2.05-2.17,2.12-2.42,2.12-1.42,0-2.58,1.21-2.58,2.69,0,1.3.89,2.38,2.06,2.63l1.44,9.63c.04.24.25.43.49.43h2.5c.28,0,.5-.22.5-.5v-3.5h5v3.5c0,.28.22.5.5.5h2.5c.25,0,.47-.19.5-.44l.84-7.17c-.7.38-1.49.61-2.34.61-2.41,0-4.43-1.72-4.9-4Z"/></g></svg>