<svg xmlns="http://www.w3.org/2000/svg" width="24" height="24" viewBox="0 0 24 24"><g opacity="0.4"><path d="m15.64,4c-1.64-.05-3.09.92-3.96,2.31-.86,1.37-.78,2.55-.43,3.61l-6.95,6.88c-.19.19-.3.44-.3.71v1.5c0,.55.45,1,1,1h1.59c.27,0,.52-.11.71-.29l.56-.56c.09-.09.15-.22.15-.35v-1.79l.65.65c.2.2.51.2.71,0l.5-.5c.09-.09.15-.22.15-.35v-1.79l.65.65c.2.2.51.2.71,0l.5-.5c.09-.09.15-.22.15-.35v-1.79l.64.46c.31.22.61.25.79.06l.68-.76c1.05.34,2.23.42,3.6-.47,1.4-.9,2.37-2.39,2.28-4.05-.13-2.32-2.02-4.16-4.35-4.23Zm1.27,5.91l-2.83-2.83c.78-.78,2.05-.78,2.83,0s.78,2.05,0,2.83Z"/></g><path d="m16.91,7.09c-.78-.78-2.05-.78-2.83,0l2.83,2.83c.78-.78.78-2.05,0-2.83Z"/></svg>