<svg xmlns="http://www.w3.org/2000/svg" width="24" height="24" viewBox="0 0 24 24"><g opacity="0.4"><path d="m19.59,10.79c-.31-.21-.53-.53-.61-.91-.09-.4-.02-.81.2-1.14l.79-1.19c.1-.15.11-.35.02-.51-.09-.16-.26-.26-.44-.26h-1.95s0,0,0,0c-.3,0-.58-.09-.79-.26-.22-.18-.38-.38-.47-.6l-1.04-2.61c-.05-.14-.17-.24-.3-.29-.14-.05-.29-.03-.42.04l-2.38,1.43c-.43.25-.85.41-1.29.47-1.06.14-2.14-.16-2.97-.83l-1.29-1.03c-.15-.12-.35-.14-.53-.06-.17.08-.28.26-.28.45v4.24c0,.16-.05.32-.16.5-.15.26-.45.42-.76.42h-1.41c-.2,0-.38.12-.46.31s-.03.4.11.54l1.34,1.34c.25.25.4.54.44.85.07.56-.12,1.11-.52,1.5l-1.26,1.27c-.14.14-.19.36-.11.54s.26.31.46.31h2.92c.29,0,.56.09.78.27.33.26.52.64.52,1.03v3.87c0,.2.12.38.31.46.06.03.13.04.19.04.13,0,.26-.05.35-.15l2.76-2.76c.51-.51,1.19-.85,1.97-.97l.21-.04c.87-.17,1.7-.08,2.38.26l1.54.77c.17.08.38.07.53-.05.15-.12.22-.31.19-.5l-.42-2.11c-.07-.37.01-.76.24-1.06l-.4-.3h0l.41.29c.11-.15.22-.26.34-.34l2.46-1.64c.14-.09.22-.25.22-.42s-.08-.32-.22-.42l-1.19-.79Z"/></g></svg>