<svg xmlns="http://www.w3.org/2000/svg" width="24" height="24" viewBox="0 0 24 24"><g opacity="0.4"><path d="m4.5,17h15c.83,0,1.5.67,1.5,1.5v1c0,.83-.67,1.5-1.5,1.5H4.5c-.83,0-1.5-.67-1.5-1.5v-1c0-.83.67-1.5,1.5-1.5Z"/></g><path d="m4.5,17h15s0,0,0,0h-2.9c.9-1.25,1.4-2.84,1.4-4.5,0-1.84-.63-3.55-1.67-4.83-.89.47-2.83,1.89-2.83,5.33h-1c0-3.62,1.96-5.35,3.12-6.06-.37-.33-.76-.62-1.19-.84.05-.19.07-.39.07-.6,0-.79-.38-1.55-1.03-2.02-.65-.48-1.47-.61-2.26-.36-.87.27-1.53,1.04-1.68,1.95-.06.35-.04.7.04,1.02-2.16,1.11-3.57,3.62-3.57,6.4,0,1.66.5,3.25,1.4,4.5h-2.9s0,0,0,0Z"/></svg>