<svg xmlns="http://www.w3.org/2000/svg" width="24" height="24" viewBox="0 0 24 24"><g opacity="0.4"><path d="m8.87,5.79l-1.78-.89-.89-1.78c-.08-.16-.33-.16-.41,0l-.89,1.78-1.78.89c-.08.04-.13.12-.13.21,0,.09.05.17.13.21l1.77.82.89,1.85c.04.08.12.13.21.13h0c.09,0,.17-.05.21-.13l.82-1.77,1.84-.89c.08-.04.13-.12.13-.21,0-.09-.05-.17-.13-.21Z"/><path d="m16.91,4.86l-1.18-.59-.59-1.19c-.05-.1-.22-.1-.28,0l-.59,1.19-1.18.59c-.05.03-.09.08-.09.14,0,.06.04.11.09.14l1.18.55.59,1.23c.03.05.08.09.14.09h0c.06,0,.11-.04.14-.09l.54-1.18,1.23-.59c.05-.03.09-.08.09-.14,0-.06-.03-.11-.09-.14Z"/><path d="m19.73,6.27l-.59-1.19c-.05-.1-.22-.1-.28,0l-.59,1.19-1.18.59c-.05.03-.09.08-.09.14,0,.06.04.11.09.14l1.18.55.59,1.23c.03.05.08.09.14.09h0c.06,0,.11-.04.14-.09l.54-1.18,1.23-.59c.05-.03.09-.08.09-.14,0-.06-.03-.11-.09-.14l-1.18-.59Z"/></g><path d="m4,17.5c0,.65.42,1.2,1,1.41v1.59c0,.28.22.5.5.5h1c.28,0,.5-.22.5-.5v-1.5h10v1.5c0,.28.22.5.5.5h1c.28,0,.5-.22.5-.5v-1.59c.58-.21,1-.76,1-1.41v-2c0-.7-.49-1.29-1.14-1.45l-1.64-4.1c-.23-.57-.78-.94-1.39-.94h-7.65c-.62,0-1.16.37-1.39.94l-1.64,4.1c-.65.16-1.14.75-1.14,1.45v2Zm2-1c0-.55.45-1,1-1s1,.45,1,1-.45,1-1,1-1-.45-1-1Zm10,0c0-.55.45-1,1-1s1,.45,1,1-.45,1-1,1-1-.45-1-1Zm-8.29-6.19c.08-.19.26-.31.46-.31h7.65c.21,0,.39.12.46.31l1.47,3.69H6.24l1.48-3.69Z"/></svg>