<svg xmlns="http://www.w3.org/2000/svg" width="24" height="24" viewBox="0 0 24 24"><g opacity="0.4"><path d="m4.5,17h15c.83,0,1.5.67,1.5,1.5v1c0,.83-.67,1.5-1.5,1.5H4.5c-.83,0-1.5-.67-1.5-1.5v-1c0-.83.67-1.5,1.5-1.5Z"/><path d="M9.5 7A1 1 0 1 0 9.5 9 1 1 0 1 0 9.5 7z"/></g><path d="m18.09,7c-1.3-1.97-3.65-2.98-6.97-3l-1.9-.95c-.22-.11-.49-.04-.64.16L3.09,11.22c-.14.2-.11.47.06.64l2,2c.18.18.47.2.67.04l2.36-1.89h1.82l-3.75,5h-1.75s0,0,0,0h15s0,0,0,0h-1.28c.64-1.81,2.04-6.72-.13-10Zm-8.59,2c-.55,0-1-.45-1-1s.45-1,1-1,1,.45,1,1-.45,1-1,1Z"/></svg>