<svg xmlns="http://www.w3.org/2000/svg" width="24" height="24" viewBox="0 0 24 24"><g opacity="0.4"><path d="m20.29,6.14c-.23-.92-.5-1.64-.81-2.16-.77-1.31-1.93-1.31-2.7,0-.31.52-.58,1.25-.8,2.16-.04.14-.07.29-.1.44-2.42-.98-5.34-.98-7.77,0-.03-.15-.07-.29-.1-.43-.23-.91-.5-1.64-.8-2.16-.77-1.31-1.93-1.31-2.7,0-.31.52-.58,1.24-.81,2.16-.23.9-.4,1.94-.52,3.07-.18,1.73-.19,3.8-.19,4.2,0,1.19.34,2.31.92,3.31l1.41-1.41.35.35-1.49,1.49c.3.44.65.86,1.05,1.24l1.58-1.58.35.35-1.57,1.57c1.63,1.39,3.89,2.25,6.39,2.25s4.76-.86,6.39-2.25l-1.57-1.57.35-.35,1.58,1.58c.4-.38.75-.8,1.05-1.24l-1.49-1.49.35-.35,1.41,1.41c.58-1,.92-2.12.92-3.31,0-.4,0-2.48-.19-4.2-.12-1.13-.29-2.17-.52-3.07Zm-12.79,7.86c-.83,0-1.5-.67-1.5-1.5s.67-1.5,1.5-1.5,1.5.67,1.5,1.5-.67,1.5-1.5,1.5Zm6,4c-.53,0-1.04-.21-1.41-.59-.03-.03-.06-.07-.09-.1-.03.03-.05.07-.09.1-.38.38-.88.59-1.41.59s-1.04-.21-1.41-.59l.71-.71c.38.38,1.04.38,1.41,0,.19-.19.29-.44.29-.71,0-.03-.01-.05-.02-.08-.85-.25-1.48-1.08-1.48-1.92,0-.55.9-1,2-1s2,.45,2,1c0,.84-.63,1.67-1.48,1.92,0,.03-.02.05-.02.08,0,.27.1.52.29.71.38.38,1.04.38,1.41,0l.71.71c-.38.38-.88.59-1.41.59Zm3-4c-.83,0-1.5-.67-1.5-1.5s.67-1.5,1.5-1.5,1.5.67,1.5,1.5-.67,1.5-1.5,1.5Z"/></g><path d="m11.91,17.41s.06-.07.09-.1c.03.03.05.07.09.1.38.38.88.59,1.41.59s1.04-.21,1.41-.59l-.71-.71c-.38.38-1.04.38-1.41,0-.19-.19-.29-.44-.29-.71,0-.03.01-.05.02-.08.85-.25,1.48-1.08,1.48-1.92,0-.55-.9-1-2-1s-2,.45-2,1c0,.84.63,1.67,1.48,1.92,0,.03.02.05.02.08,0,.27-.1.52-.29.71-.38.38-1.04.38-1.41,0l-.71.71c.38.38.88.59,1.41.59s1.04-.21,1.41-.59Z"/><path d="M20.32 17.68 20.5 17.5 20.68 17.32 19.68 16.32 18.68 15.32 18.5 15.5 18.32 15.68 19.32 16.68 20.32 17.68z"/><path d="M17 17 16.82 17.18 17.82 18.18 18.82 19.18 19 19 19.18 18.82 18.18 17.82 17.18 16.82 17 17z"/><path d="M3.68 17.68 4.68 16.68 5.68 15.68 5.5 15.5 5.32 15.32 4.32 16.32 3.32 17.32 3.5 17.5 3.68 17.68z"/><path d="M5 19 5.18 19.18 6.18 18.18 7.18 17.18 7 17 6.82 16.82 5.82 17.82 4.82 18.82 5 19z"/><path d="M16.5 11A1.5 1.5 0 1 0 16.5 14 1.5 1.5 0 1 0 16.5 11z"/><path d="M7.5 11A1.5 1.5 0 1 0 7.5 14 1.5 1.5 0 1 0 7.5 11z"/></svg>