<svg xmlns="http://www.w3.org/2000/svg" width="24" height="24" viewBox="0 0 24 24"><g opacity="0.4"><path d="M11.5 12A2.5 2.5 0 1 0 11.5 17 2.5 2.5 0 1 0 11.5 12z"/><path d="m4,19.5c0,.83.67,1.5,1.5,1.5h13c.83,0,1.5-.67,1.5-1.5v-10.5H4v10.5Zm7.5-8.5c1.93,0,3.5,1.57,3.5,3.5,0,.78-.27,1.5-.71,2.09l1.56,1.56-.71.71-1.56-1.56c-.58.44-1.3.71-2.09.71-1.93,0-3.5-1.57-3.5-3.5s1.57-3.5,3.5-3.5Z"/></g><path d="m18.5,5h-2.5v-2h-1v2h-6v-2h-1v2h-2.5c-.83,0-1.5.67-1.5,1.5v2.5h16v-2.5c0-.83-.67-1.5-1.5-1.5Z"/><path d="m11.5,11c-1.93,0-3.5,1.57-3.5,3.5s1.57,3.5,3.5,3.5c.78,0,1.5-.27,2.09-.71l1.56,1.56.71-.71-1.56-1.56c.44-.58.71-1.3.71-2.09,0-1.93-1.57-3.5-3.5-3.5Zm0,6c-1.38,0-2.5-1.12-2.5-2.5s1.12-2.5,2.5-2.5,2.5,1.12,2.5,2.5-1.12,2.5-2.5,2.5Z"/></svg>