<svg xmlns="http://www.w3.org/2000/svg" width="24" height="24" viewBox="0 0 24 24"><g opacity="0.4"><path d="m19.2,8.57L6.37,2.96c-.12-.05-.26-.06-.38,0-.12.05-.22.14-.28.27l-2.62,5.98c-.11.25,0,.55.26.66l12.82,5.62c.06.03.13.04.2.04.19,0,.38-.11.46-.3l2.62-5.98c.05-.12.06-.26,0-.38-.05-.12-.14-.22-.27-.28Z"/></g><path class="st0" d="M17.3 14.2 18.1 12.2 19 10.2 19.5 10.4 19.9 10.6 19.1 12.6 18.2 14.6 17.7 14.4z"/><path class="st0" d="M4,18h5.5c0.2,0,0.4-0.1,0.5-0.3l1.8-4.1l-0.9-0.4L9.2,17H4v-3H3v7h1V18L4,18z"/></svg>