<svg xmlns="http://www.w3.org/2000/svg" width="24" height="24" viewBox="0 0 24 24"><g opacity="0.4"><path d="m18.5,4H5.5c-.83,0-1.5.67-1.5,1.5v4.5h16v-4.5c0-.83-.67-1.5-1.5-1.5Zm-10,4c-.55,0-1-.45-1-1s.45-1,1-1,1,.45,1,1-.45,1-1,1Zm3.5,0c-.55,0-1-.45-1-1s.45-1,1-1,1,.45,1,1-.45,1-1,1Zm3.5,0c-.55,0-1-.45-1-1s.45-1,1-1,1,.45,1,1-.45,1-1,1Z"/></g><path d="m4,18.5c0,.83.67,1.5,1.5,1.5h13c.83,0,1.5-.67,1.5-1.5v-8.5H4v8.5Zm8-6.5s2,1.49,2,3c0,1.1-.9,2-2,2s-2-.9-2-2c0-1.51,2-3,2-3Z"/><path d="M8.5 6A1 1 0 1 0 8.5 8 1 1 0 1 0 8.5 6z"/><path d="M15.5 6A1 1 0 1 0 15.5 8 1 1 0 1 0 15.5 6z"/><path d="M12 6A1 1 0 1 0 12 8 1 1 0 1 0 12 6z"/></svg>