<svg xmlns="http://www.w3.org/2000/svg" width="24" height="24" viewBox="0 0 24 24"><g opacity="0.4"><path d="m12,9c-3.31,0-6,2.69-6,6s2.69,6,6,6,6-2.69,6-6-2.69-6-6-6Zm.5,8.8v.54h-.17s-.67,0-.67,0h0s-.17,0-.17,0v-.54c-1.3-.19-1.67-1.11-1.67-1.62h.17s.67,0,.67,0c0,0,0,0,0,0h.17c0,.1.09.67,1.17.67.76,0,1.17-.34,1.17-.67,0-.23,0-.67-1.17-.67-1.79,0-2.17-.91-2.17-1.67s.57-1.46,1.67-1.63v-.54h.17s.67,0,.67,0h0s.17,0,.17,0v.56c.97.21,1.33,1.03,1.33,1.61h-.17s-.33,0-.33,0h-.06s-.44,0-.44,0c0-.2-.1-.67-.83-.67s-1.17.33-1.17.67c0,.25,0,.67,1.17.67,1.89,0,2.17,1.04,2.17,1.67,0,.72-.57,1.46-1.67,1.63Z"/></g><path d="M10.24 8 12 6.82 13.76 8 13.18 6.09 14.5 4.76 12.8 4.62 12 3 11.2 4.62 9.5 4.76 10.82 6.09 10.24 8z"/><path d="M19.64 7.29 19 6 18.36 7.29 17 7.41 18.06 8.47 17.59 10 19 9.06 20.41 10 19.94 8.47 21 7.41 19.64 7.29z"/><path d="M5.94 8.47 7 7.41 5.64 7.29 5 6 4.36 7.29 3 7.41 4.06 8.47 3.59 10 5 9.06 6.41 10 5.94 8.47z"/><path d="m12.33,18.33h0s.17,0,.17,0v-.54c1.1-.17,1.67-.9,1.67-1.63,0-.62-.28-1.67-2.17-1.67-1.17,0-1.17-.42-1.17-.67,0-.33.4-.67,1.17-.67s.83.47.83.67h.44s.06,0,.06,0h.33s.17,0,.17,0c0-.58-.37-1.4-1.33-1.61v-.56h-.17s-.67,0-.67,0h0s-.17,0-.17,0v.54c-1.1.17-1.67.9-1.67,1.63,0,.76.38,1.67,2.17,1.67,1.17,0,1.17.43,1.17.67,0,.32-.41.67-1.17.67-1.08,0-1.16-.56-1.17-.67h-.17s0,0,0,0h-.67s-.17,0-.17,0c0,.51.37,1.43,1.67,1.62v.54h.17s.67,0,.67,0Z"/></svg>