<svg xmlns="http://www.w3.org/2000/svg" width="24" height="24" viewBox="0 0 24 24"><g opacity="0.4"><path d="m13.5,5.22v1c1.39.14,3.5.85,3.5,2.62h1c0-2.44-2.58-3.47-4.5-3.63Z"/><path d="m8,8.85c0,2.32,2.48,3.46,4.5,3.63v-1.01c-1.56-.15-3.5-.99-3.5-2.62,0-1.77,2.11-2.48,3.5-2.62v-1c-1.92.15-4.5,1.19-4.5,3.63Z"/><path d="m9,15.15h-1c0,2.44,2.58,3.47,4.5,3.63v-1.01c-1.59-.14-3.5-.97-3.5-2.62Z"/><path d="m13.5,11.52v1c1.39.14,3.5.85,3.5,2.62s-2.11,2.48-3.5,2.62v1c2.02-.16,4.5-1.31,4.5-3.63s-2.48-3.46-4.5-3.63Z"/></g><path d="M12.5 3H13.5V21H12.5z"/></svg>