<svg xmlns="http://www.w3.org/2000/svg" width="24" height="24" viewBox="0 0 24 24"><g opacity="0.4"><path d="m10.35,11.65l-3-3c-.2-.2-.51-.2-.71,0l-3,3c-.2.2-.2.51,0,.71l3,3c.1.1.23.15.35.15s.26-.05.35-.15l3-3c.2-.2.2-.51,0-.71Z"/><path d="m17.35,8.65c-.2-.2-.51-.2-.71,0l-3,3c-.2.2-.2.51,0,.71l3,3c.1.1.23.15.35.15s.26-.05.35-.15l3-3c.2-.2.2-.51,0-.71l-3-3Z"/></g><path d="m12.35,3.65c-.2-.2-.51-.2-.71,0l-3,3c-.2.2-.2.51,0,.71l3,3c.1.1.23.15.35.15s.26-.05.35-.15l3-3c.2-.2.2-.51,0-.71l-3-3Z"/><path d="m12.35,13.65c-.2-.2-.51-.2-.71,0l-3,3c-.2.2-.2.51,0,.71l3,3c.1.1.23.15.35.15s.26-.05.35-.15l3-3c.2-.2.2-.51,0-.71l-3-3Z"/></svg>