<svg xmlns="http://www.w3.org/2000/svg" width="24" height="24" viewBox="0 0 24 24"><g opacity="0.4"><g><path class="st0" d="M5.9,10.2c-0.2-0.2-0.5-0.2-0.7,0L3.3,12c-0.2,0.2-0.2,0.5,0,0.7l7.9,7.9c0.1,0.1,0.2,0.1,0.4,0.1
		s0.3-0.1,0.4-0.1l1.9-1.9c0.2-0.2,0.2-0.5,0-0.7L5.9,10.2z"/><path class="st0" d="M20.7,11.2l-7.9-7.9c-0.2-0.2-0.5-0.2-0.7,0l-1.9,1.9c-0.2,0.2-0.2,0.5,0,0.7l7.9,7.9c0.1,0.1,0.2,0.1,0.4,0.1
		s0.3-0.1,0.4-0.1l1.9-1.9c0.1-0.1,0.1-0.2,0.1-0.4S20.8,11.3,20.7,11.2z"/></g></g><path d="M13.79 9.5 11.65 11.65 9.5 13.79 9.85 14.15 10.21 14.5 12.35 12.35 14.5 10.21 14.15 9.85 13.79 9.5z"/><path d="m20.85,7.68l-4.53-4.53c-.2-.2-.51-.2-.71,0l-1.51,1.51,5.24,5.24,1.51-1.51c.2-.2.2-.51,0-.71Z"/><path d="m4.66,14.1l-1.51,1.51c-.2.2-.2.51,0,.71l4.53,4.53c.1.1.23.15.35.15s.26-.05.35-.15l1.51-1.51-5.24-5.24Z"/></svg>