<svg xmlns="http://www.w3.org/2000/svg" width="24" height="24" viewBox="0 0 24 24"><g opacity="0.4"><path d="m18.5,3H5.5c-.83,0-1.5.67-1.5,1.5v15c0,.83.67,1.5,1.5,1.5h13c.83,0,1.5-.67,1.5-1.5V4.5c0-.83-.67-1.5-1.5-1.5Zm-4.5,2c.55,0,1,.45,1,1s-.45,1-1,1-1-.45-1-1,.45-1,1-1Zm-2,13c-2.76,0-5-2.24-5-5s2.24-5,5-5,5,2.24,5,5-2.24,5-5,5Zm5-11c-.55,0-1-.45-1-1s.45-1,1-1,1,.45,1,1-.45,1-1,1Z"/></g><path d="m10.18,14.62c-.33.27-.78.65-.78,1.38h1c0-.24.11-.36.42-.62.33-.27.78-.65.78-1.38s-.45-1.11-.78-1.38c-.31-.26-.42-.37-.42-.62s.11-.36.42-.61c.33-.27.78-.65.78-1.38h-1c0,.24-.11.36-.42.61-.33.27-.78.65-.78,1.38s.45,1.11.78,1.38c.31.26.42.37.42.62s-.11.36-.42.62Z"/><path d="m13.18,14.62c-.33.27-.78.65-.78,1.38h1c0-.24.11-.36.42-.62.33-.27.78-.65.78-1.38s-.45-1.11-.78-1.38c-.31-.26-.42-.37-.42-.62s.11-.36.42-.61c.33-.27.78-.65.78-1.38h-1c0,.24-.11.36-.42.61-.33.27-.78.65-.78,1.38s.45,1.11.78,1.38c.31.26.42.37.42.62s-.11.36-.42.62Z"/><path d="M14 5A1 1 0 1 0 14 7 1 1 0 1 0 14 5z"/><path d="M17 5A1 1 0 1 0 17 7 1 1 0 1 0 17 5z"/></svg>