<svg xmlns="http://www.w3.org/2000/svg" width="24" height="24" viewBox="0 0 24 24"><g opacity="0.4"><path d="m12,3C7.04,3,3,7.04,3,12s4.04,9,9,9,9-4.04,9-9S16.96,3,12,3Zm-4,8.71l-1.65,1.65-.71-.71,1.65-1.65-1.65-1.65.71-.71,1.65,1.65,1.65-1.65.71.71-1.65,1.65,1.65,1.65-.71.71-1.65-1.65Zm6,5.29h-4v-1h4v1Zm4.35-4.35l-.71.71-1.65-1.65-1.65,1.65-.71-.71,1.65-1.65-1.65-1.65.71-.71,1.65,1.65,1.65-1.65.71.71-1.65,1.65,1.65,1.65Z"/></g><path d="M10 16H14V17H10z"/><path d="M14.35 13.35 16 11.71 17.65 13.35 18.35 12.65 16.71 11 18.35 9.35 17.65 8.65 16 10.29 14.35 8.65 13.65 9.35 15.29 11 13.65 12.65 14.35 13.35z"/><path d="M6.35 13.35 8 11.71 9.65 13.35 10.35 12.65 8.71 11 10.35 9.35 9.65 8.65 8 10.29 6.35 8.65 5.65 9.35 7.29 11 5.65 12.65 6.35 13.35z"/></svg>