<svg xmlns="http://www.w3.org/2000/svg" width="24" height="24" viewBox="0 0 24 24"><g opacity="0.4"><path d="m20.35,5.95L7.79,2.59c-.79-.21-1.62.26-1.84,1.06l-3.36,12.56c-.21.8.26,1.62,1.06,1.84l12.56,3.36h0c.13.03.26.05.39.05.66,0,1.27-.44,1.45-1.11l3.36-12.56c.21-.8-.26-1.62-1.06-1.84Zm-9.31,5.79c-.21.8-1.04,1.28-1.84,1.06-.8-.21-1.27-1.04-1.06-1.84.21-.8,1.04-1.28,1.84-1.06.8.21,1.27,1.04,1.06,1.84Zm4.83,1.29c-.21.8-1.04,1.27-1.84,1.06-.8-.21-1.28-1.04-1.06-1.84.21-.8,1.04-1.27,1.84-1.06.8.21,1.28,1.04,1.06,1.84Z"/></g><path d="m14.03,14.1c.8.21,1.62-.26,1.84-1.06.21-.8-.26-1.62-1.06-1.84-.8-.21-1.62.26-1.84,1.06-.21.8.26,1.62,1.06,1.84Z"/><path d="m9.2,12.8c.8.21,1.62-.26,1.84-1.06.21-.8-.26-1.62-1.06-1.84-.8-.21-1.62.26-1.84,1.06-.21.8.26,1.62,1.06,1.84Z"/></svg>