<svg xmlns="http://www.w3.org/2000/svg" width="24" height="24" viewBox="0 0 24 24"><g opacity="0.4"><path d="m12,3C7.04,3,3,7.04,3,12s4.04,9,9,9,9-4.04,9-9S16.96,3,12,3Zm.5,12.96v1.04h-1v-1.02c-2.47-.24-2.5-2.2-2.5-2.23h1c0,.12.09,1.25,2,1.25,1.31,0,2-.63,2-1.25,0-.37,0-1.25-2-1.25-2.48,0-3-1.22-3-2.25s.79-2.04,2.5-2.21v-1.04h1v1.05c1.56.23,2,1.5,2,2.2h-1c0-.21-.09-1.25-1.5-1.25s-2,.65-2,1.25c0,.65.24,1.25,2,1.25,2.48,0,3,1.22,3,2.25s-.86,2.04-2.5,2.21Z"/></g><path d="m12,15c-1.91,0-2-1.13-2-1.25h-1s.03,1.99,2.5,2.23v1.02h1v-1.04c1.64-.18,2.5-1.2,2.5-2.21s-.52-2.25-3-2.25c-1.76,0-2-.6-2-1.25,0-.6.63-1.25,2-1.25s1.5,1.04,1.5,1.25h.5s.5,0,.5,0c0-.71-.44-1.97-2-2.2v-1.05h-1v1.04c-1.71.18-2.5,1.22-2.5,2.21s.52,2.25,3,2.25c2,0,2,.88,2,1.25,0,.62-.69,1.25-2,1.25Z"/></svg>