<svg xmlns="http://www.w3.org/2000/svg" width="24" height="24" viewBox="0 0 24 24"><g opacity="0.4"><path d="m12,15c-1.64,0-3-1.36-3-3,0-.64.21-1.24.56-1.73l-2.84-2.84c-2.74,1.72-3.69,4.36-3.7,4.4-.04.1-.04.22,0,.32.02.06,2.08,5.84,8.97,5.84,1.75,0,3.19-.38,4.36-.93l-2.63-2.63c-.49.35-1.09.56-1.73.56Z"/><path d="m12,6c-1.75,0-3.19.38-4.36.93l2.63,2.63c.49-.35,1.09-.56,1.73-.56,1.64,0,3,1.36,3,3,0,.64-.21,1.24-.56,1.73l2.84,2.84c2.74-1.72,3.69-4.36,3.7-4.4.04-.1.04-.22,0-.32-.02-.06-2.08-5.84-8.97-5.84Z"/></g><path d="M19.65 20.35 20 20 20.35 19.65 12.35 11.65 4.35 3.65 4 4 3.65 4.35 11.65 12.35 19.65 20.35z"/></svg>