<svg xmlns="http://www.w3.org/2000/svg" width="24" height="24" viewBox="0 0 24 24"><g opacity="0.4"><path d="m12,6c-6.89,0-8.95,5.78-8.97,5.84-.04.1-.04.22,0,.32.02.06,2.08,5.84,8.97,5.84s8.95-5.78,8.97-5.84c.04-.1.04-.22,0-.32-.02-.06-2.08-5.84-8.97-5.84Zm0,9c-1.64,0-3-1.36-3-3s1.36-3,3-3c.09,0,.17.02.26.03-.16.29-.26.62-.26.97,0,1.1.9,2,2,2,.36,0,.68-.1.97-.26,0,.09.03.17.03.26,0,1.64-1.36,3-3,3Z"/></g><path d="m12,15c1.64,0,3-1.36,3-3,0-.09-.02-.17-.03-.26-.29.16-.62.26-.97.26-1.1,0-2-.9-2-2,0-.36.1-.68.26-.97-.09,0-.17-.03-.26-.03-1.64,0-3,1.36-3,3s1.36,3,3,3Z"/></svg>