<svg xmlns="http://www.w3.org/2000/svg" width="24" height="24" viewBox="0 0 24 24"><g opacity="0.4"><path d="m14.5,8c-.28,0-.5-.22-.5-.5V3.05c-.06-.03-.13-.05-.21-.05h-7.29c-.83,0-1.5.67-1.5,1.5v15c0,.83.67,1.5,1.5,1.5h11c.83,0,1.5-.67,1.5-1.5v-11.29c0-.07-.02-.14-.05-.21h-4.45Zm.35,6.68l-2.85,2.82-2.85-2.82c-.74-.73-.74-1.89,0-2.63.74-.73,1.92-.73,2.66,0l.19.19.19-.19c.74-.73,1.91-.73,2.66,0,.74.74.74,1.9,0,2.63Z"/></g><path d="m14.85,3.15c-.09-.09-.22-.15-.35-.15h-.5v4.5c0,.28.22.5.5.5h4.5v-.5c0-.13-.05-.26-.15-.35l-4-4Z"/><path d="m12,17.5l2.85-2.82c.74-.73.74-1.89,0-2.63-.74-.73-1.92-.73-2.66,0l-.19.19-.19-.19c-.74-.73-1.91-.73-2.66,0-.74.74-.74,1.9,0,2.63l2.85,2.82Z"/></svg>