<svg xmlns="http://www.w3.org/2000/svg" width="24" height="24" viewBox="0 0 24 24"><g opacity="0.4"><path d="m14.5,8c-.28,0-.5-.22-.5-.5V3.05c-.06-.03-.13-.05-.21-.05h-7.29c-.83,0-1.5.67-1.5,1.5v15c0,.83.67,1.5,1.5,1.5h11c.83,0,1.5-.67,1.5-1.5v-11.29c0-.07-.02-.14-.05-.21h-4.45Zm.5,8.05l-.71.71-2.3-2.3-2.3,2.3-.71-.71,2.3-2.3-2.3-2.3.71-.71,2.3,2.3,2.3-2.3.71.71-2.3,2.3,2.3,2.3Z"/></g><path d="m14.85,3.15c-.09-.09-.22-.15-.35-.15h-.5v4.5c0,.28.22.5.5.5h4.5v-.5c0-.13-.05-.26-.15-.35l-4-4Z"/><path d="M9.7 16.76 12 14.46 14.3 16.76 15 16.05 12.71 13.75 15 11.45 14.3 10.74 12 13.04 9.7 10.74 9 11.45 11.29 13.75 9 16.05 9.7 16.76z"/></svg>