<svg xmlns="http://www.w3.org/2000/svg" width="24" height="24" viewBox="0 0 24 24"><g opacity="0.4"><path d="m19.5,5h-7.29l-1.56-1.56c-.28-.28-.67-.44-1.06-.44h-5.09c-.83,0-1.5.67-1.5,1.5v13c0,.83.67,1.5,1.5,1.5h15c.83,0,1.5-.67,1.5-1.5V6.5c0-.83-.67-1.5-1.5-1.5Zm-8.65,9.65l-.71.71-3.35-3.35,3.35-3.35.71.71-2.65,2.65,2.65,2.65Zm3,.71l-.71-.71,2.65-2.65-2.65-2.65.71-.71,3.35,3.35-3.35,3.35Z"/></g><path d="M13.85 15.35 17.21 12 13.85 8.65 13.15 9.35 15.79 12 13.15 14.65 13.85 15.35z"/><path d="M10.85 14.65 8.21 12 10.85 9.35 10.15 8.65 6.79 12 10.15 15.35 10.85 14.65z"/></svg>