<svg xmlns="http://www.w3.org/2000/svg" width="24" height="24" viewBox="0 0 24 24"><g opacity="0.4"><path d="m18.5,4H5.5c-.83,0-1.5.67-1.5,1.5v13c0,.83.67,1.5,1.5,1.5h13c.83,0,1.5-.67,1.5-1.5V5.5c0-.83-.67-1.5-1.5-1.5Zm-10.5,13.5c-.55,0-1-.45-1-1s.45-1,1-1,1,.45,1,1-.45,1-1,1Zm9-.5h-7v-1h7v1Zm0-3H7v-1h10v1Zm-10-3.5c0-.55.45-1,1-1s1,.45,1,1-.45,1-1,1-1-.45-1-1Zm10,.5h-7v-1h7v1Zm0-3H7v-1h10v1Z"/></g><path d="M8 9.5A1 1 0 1 0 8 11.5 1 1 0 1 0 8 9.5z"/><path d="M10 10H17V11H10z"/><path d="M7 13H17V14H7z"/><path d="M8 15.5A1 1 0 1 0 8 17.5 1 1 0 1 0 8 15.5z"/><path d="M7 7H17V8H7z"/><path d="M10 16H17V17H10z"/></svg>