<svg xmlns="http://www.w3.org/2000/svg" width="24" height="24" viewBox="0 0 24 24"><g opacity="0.4"><path d="m19.18,9.04c.39-1.18.09-2.5-.82-3.39-.9-.91-2.21-1.22-3.4-.82-.55-1.11-1.69-1.82-2.96-1.82s-2.41.71-2.96,1.82c-1.18-.39-2.5-.09-3.39.82-.91.9-1.21,2.21-.82,3.4-1.11.55-1.82,1.69-1.82,2.96s.71,2.41,1.82,2.96c-.39,1.18-.09,2.5.82,3.39.9.91,2.21,1.22,3.4.82.55,1.11,1.69,1.82,2.96,1.82s2.41-.71,2.96-1.82c1.19.39,2.5.09,3.39-.82.91-.9,1.21-2.21.82-3.4,1.11-.55,1.82-1.69,1.82-2.96s-.71-2.41-1.82-2.96Zm-3.18,2.97c0,2.19-1.8,3.98-3.99,3.99-2.21,0-4-1.8-4.01-3.99,0-2.21,1.8-4,3.99-4.01,2.21,0,4,1.8,4.01,3.99v.02Z"/></g><path d="m12.01,16c2.19,0,3.98-1.8,3.99-3.99v-.02c0-2.19-1.8-3.98-4.01-3.99-2.19,0-3.98,1.8-3.99,4.01,0,2.19,1.8,3.98,4.01,3.99Z"/></svg>