<svg xmlns="http://www.w3.org/2000/svg" width="24" height="24" viewBox="0 0 24 24"><g opacity="0.4"><path d="m5.28,17.95c.07.03.14.05.22.05.11,0,.22-.04.31-.11l7-5.5c.12-.09.19-.24.19-.39s-.07-.3-.19-.39l-7-5.5c-.15-.12-.35-.14-.53-.06-.17.08-.28.26-.28.45v11c0,.19.11.37.28.45Z"/></g><path class="st0" d="M12.8,6.1C12.7,6,12.5,6,12.3,6C12.1,6.1,12,6.3,12,6.5V11l0.8,0.6c0.1,0.1,0.2,0.2,0.2,0.4s-0.1,0.3-0.2,0.4
	L12,13v4.5c0,0.2,0.1,0.4,0.3,0.5c0.1,0,0.1,0,0.2,0c0.1,0,0.2,0,0.3-0.1l7-5.5c0.1-0.1,0.2-0.2,0.2-0.4s-0.1-0.3-0.2-0.4
	C19.8,11.6,12.8,6.1,12.8,6.1z"/></svg>