<svg xmlns="http://www.w3.org/2000/svg" width="24" height="24" viewBox="0 0 24 24"><g opacity="0.4"><path d="m19.71,6.04c-.18-.08-.39-.05-.54.08l-3.17,2.77v-2.4c0-.2-.11-.37-.29-.46-.18-.08-.39-.05-.54.08l-3.17,2.77v-2.4c0-.2-.11-.37-.29-.46-.18-.08-.39-.05-.54.08l-3.17,2.77v-4.4c0-.28-.22-.5-.5-.5h-3c-.28,0-.5.22-.5.5v14c0,.28.22.5.5.5h15c.28,0,.5-.22.5-.5V6.5c0-.2-.11-.37-.29-.46Zm-10.71,9.96h-2v-2h2v2Zm4,0h-2v-2h2v2Zm4,0h-2v-2h2v2Z"/></g><path d="M11 14H13V16H11z"/><path d="M15 14H17V16H15z"/><path d="M7 14H9V16H7z"/></svg>