<svg xmlns="http://www.w3.org/2000/svg" width="24" height="24" viewBox="0 0 24 24"><g opacity="0.4"><path d="m12.25,3.07c-.15-.09-.35-.09-.5,0-.28.16-6.75,4-6.75,10.82,0,3.28,2.21,6.05,5.19,6.86-.72-.66-1.19-1.69-1.19-2.86,0-3.27,2.52-6.1,2.63-6.22.19-.21.55-.21.74,0,.11.12,2.63,2.96,2.63,6.22,0,1.17-.47,2.2-1.19,2.86,2.98-.81,5.19-3.58,5.19-6.86,0-6.82-6.47-10.66-6.75-10.82Z"/></g><path d="m12,21c1.83,0,2.92-.55,1.81-.25.72-.66,1.19-1.69,1.19-2.86,0-3.27-2.52-6.1-2.63-6.22-.19-.21-.55-.21-.74,0-.11.12-2.63,2.96-2.63,6.22,0,1.17.47,2.2,1.19,2.86-1.11-.3-.02.25,1.81.25Z"/></svg>