<svg xmlns="http://www.w3.org/2000/svg" width="24" height="24" viewBox="0 0 24 24"><g opacity="0.4"><path d="m18.5,3H5.5c-.28,0-.5.22-.5.5v17c0,.28.22.5.5.5h13c.83,0,1.5-.67,1.5-1.5V4.5c0-.83-.67-1.5-1.5-1.5Zm-1.5,12h-9v-1h9v1Zm-9-2c0-2.31,1.75-4.2,4-4.45v-.55h1v.55c2.25.25,4,2.14,4,4.45h-9Z"/></g><path d="M3 16H5V17H3z"/><path d="M3 13H5V14H3z"/><path d="M3 10H5V11H3z"/><path d="M3 7H5V8H3z"/><path d="M8 14H17V15H8z"/><path d="m13,8.55v-.55h-1v.55c-2.25.25-4,2.14-4,4.45h9c0-2.31-1.75-4.2-4-4.45Z"/></svg>