<svg xmlns="http://www.w3.org/2000/svg" width="24" height="24" viewBox="0 0 24 24"><g opacity="0.4"><path d="m14.5,8c-.28,0-.5-.22-.5-.5V3.05c-.06-.03-.13-.05-.21-.05h-7.29c-.83,0-1.5.67-1.5,1.5v15c0,.83.67,1.5,1.5,1.5h11c.83,0,1.5-.67,1.5-1.5v-11.29c0-.07-.02-.14-.05-.21h-4.45Zm-3.65,8.65l-.71.71-2.35-2.35,2.35-2.35.71.71-1.65,1.65,1.65,1.65Zm3,.71l-.71-.71,1.65-1.65-1.65-1.65.71-.71,2.35,2.35-2.35,2.35Z"/></g><path d="m14.85,3.15c-.09-.09-.22-.15-.35-.15h-.5v4.5c0,.28.22.5.5.5h4.5v-.5c0-.13-.05-.26-.15-.35l-4-4Z"/><path d="M13.85 17.35 16.21 15 13.85 12.65 13.15 13.35 14.79 15 13.15 16.65 13.85 17.35z"/><path d="M10.85 16.65 9.21 15 10.85 13.35 10.15 12.65 7.79 15 10.15 17.35 10.85 16.65z"/></svg>