<svg xmlns="http://www.w3.org/2000/svg" width="24" height="24" viewBox="0 0 24 24"><g opacity="0.4"><path d="M8 12H10V14H8z"/><path d="m14.5,8c-.28,0-.5-.22-.5-.5V3.05c-.06-.03-.13-.05-.21-.05h-2.79v2h-2v2h2v8h-4v-6h2v-2h-2v-2h2v-2h-2.5c-.83,0-1.5.67-1.5,1.5v15c0,.83.67,1.5,1.5,1.5h11c.83,0,1.5-.67,1.5-1.5v-11.29c0-.07-.02-.14-.05-.21h-4.45Z"/></g><path d="m14.85,3.15c-.09-.09-.22-.15-.35-.15h-.5v4.5c0,.28.22.5.5.5h4.5v-.5c0-.13-.05-.26-.15-.35l-4-4Z"/><path d="M7 5H9V7H7z"/><path d="m11,15V7h-2v2h-2v6h4Zm-3-3h2v2h-2v-2Z"/><path d="M9 3H11V5H9z"/></svg>