<svg xmlns="http://www.w3.org/2000/svg" width="24" height="24" viewBox="0 0 24 24"><g opacity="0.4"><path d="m14.84,3.46c.07.17.12.36.12.53.01.33-.04.68-.11.78s-.39,0-.71-.22c-.32-.22-.66-.26-.76-.07s-.04.48.13.65c.17.17.6.52.95.78.35.26.34.6-.02.76-.36.16-.93.64-1.26,1.06-.34.42-.68,1.02-.76,1.34-.08.32-.21.66-.28.76-.07.1-.22.06-.32-.09-.1-.15-.41-.35-.68-.43-.28-.08-.79,0-1.13.17s-.5.62-.33,1c.16.38.5.49.74.24.25-.25.54-.22.66.06.12.28.48.78.82,1.11.33.33.76.49.96.36.19-.14.84-.13,1.43.02.59.15,1.39.47,1.76.71.38.25,1.13.7,1.67,1,.54.31.73,1.13.43,1.82-.31.69-1.35,1.92-2.31,2.72l-.84.69c-.96.8-1.87,1.42-2.01,1.38-.14-.04-.07-.83.17-1.76s.19-1.9-.09-2.15c-.29-.26-.68-.79-.87-1.19-.19-.4-.24-1.1-.09-1.56.14-.46.09-.93-.11-1.04-.2-.11-.57-.36-.82-.54-.25-.19-.82-.47-1.28-.63-.46-.16-1.14-.62-1.52-1.02s-.87-1.25-1.1-1.89c-.22-.64-.22-1.8.02-2.56.23-.77.26-1.52.06-1.67-.07-.05-.07-.13-.04-.22-2.57,1.58-4.29,4.42-4.29,7.66,0,4.97,4.03,9,9,9s9-4.03,9-9c0-3.98-2.58-7.35-6.16-8.54Z"/><path d="m9.16,3.46s.05.02.07.04c.2.27.99.27,1.75.02.46-.16.87-.35,1.12-.52-.03,0-.06,0-.09,0-.99,0-1.95.17-2.84.46Z"/></g><path d="m12.98,20.59c.14.04,1.05-.58,2.01-1.38l.84-.69c.96-.8,2-2.02,2.31-2.72.31-.69.11-1.51-.43-1.82-.54-.31-1.29-.76-1.67-1-.38-.25-1.17-.57-1.76-.71-.59-.15-1.24-.15-1.43-.02-.19.14-.62-.02-.96-.36-.33-.33-.7-.83-.82-1.11-.12-.28-.41-.31-.66-.06-.25.25-.58.14-.74-.24-.16-.38-.01-.83.33-1s.86-.25,1.13-.17c.28.08.58.27.68.43.1.15.24.19.32.09.07-.1.2-.44.28-.76.08-.32.42-.92.76-1.34.34-.42.91-.9,1.26-1.06.36-.16.37-.51.02-.76-.35-.26-.77-.61-.95-.78-.17-.17-.23-.47-.13-.65s.44-.15.76.07c.32.22.63.32.71.22s.12-.45.11-.78c0-.17-.06-.35-.12-.53-.86-.29-1.79-.45-2.75-.46-.25.17-.66.36-1.12.52-.76.26-1.54.25-1.75-.02-.02-.02-.05-.03-.07-.04-.66.22-1.29.52-1.87.88-.02.09-.02.18.04.22.2.15.18.91-.06,1.67-.23.77-.24,1.92-.02,2.56.22.64.72,1.5,1.1,1.89s1.06.86,1.52,1.02c.46.16,1.04.44,1.28.63.25.19.61.43.82.54.2.11.25.58.11,1.04-.14.46-.1,1.16.09,1.56.19.4.59.93.87,1.19.29.26.33,1.22.09,2.15s-.31,1.72-.17,1.76Z"/></svg>