<svg xmlns="http://www.w3.org/2000/svg" width="24" height="24" viewBox="0 0 24 24"><g opacity="0.4"><path d="M12.5 17H17V18H12.5z"/><path d="M7 17H11.5V18H7z"/><path d="M18 17H21V18H18z"/><path d="M3 17H6V18H3z"/><path d="M12.5 11.5H17V12.5H12.5z"/><path d="M7 11.5H11.5V12.5H7z"/><path d="M3 11.5H6V12.5H3z"/><path d="M18 11.5H21V12.5H18z"/><path d="M7 6H11.5V7H7z"/><path d="M12.5 6H17V7H12.5z"/><path d="M3 6H6V7H3z"/><path d="M18 6H21V7H18z"/></g><path d="M6 3H7V21H6z"/><path d="M11.5 3H12.5V21H11.5z"/><path d="M17 3H18V21H17z"/></svg>