<svg xmlns="http://www.w3.org/2000/svg" width="24" height="24" viewBox="0 0 24 24"><g opacity="0.4"><path d="m9.78,16.82c.54,2.65,1.48,4.18,2.22,4.18s1.67-1.52,2.22-4.18c-1.47-.12-2.96-.12-4.43,0Z"/><path d="m18.99,6.34c-1.29-1.59-3.12-2.74-5.21-3.16.63.92,1.11,2.29,1.43,3.89,1.29-.15,2.55-.4,3.78-.73Z"/><path d="m15.38,8.06c.17,1.1.26,2.27.28,3.44h5.32c-.09-1.57-.57-3.03-1.37-4.29-1.37.39-2.78.68-4.23.85Z"/><path d="m9.61,15.84c1.59-.13,3.2-.13,4.79,0,.15-.99.24-2.11.26-3.34h-5.32c.02,1.23.11,2.35.26,3.34Z"/><path d="m14.39,8.17c-.79.07-1.59.11-2.39.11s-1.6-.04-2.39-.11c-.15.99-.24,2.11-.26,3.33h5.32c-.02-1.23-.11-2.34-.26-3.33Z"/><path d="m15.38,15.94c1.44.17,2.86.45,4.23.85.79-1.26,1.28-2.72,1.37-4.29h-5.32c-.02,1.17-.12,2.34-.28,3.44Z"/><path d="m5.01,17.66c1.29,1.59,3.12,2.74,5.21,3.16-.63-.92-1.11-2.29-1.43-3.89-1.29.15-2.55.4-3.78.73Z"/><path d="m13.78,20.82c2.09-.42,3.91-1.56,5.21-3.16-1.23-.33-2.49-.58-3.78-.73-.32,1.6-.8,2.97-1.43,3.89Z"/><path d="m12,3c-.74,0-1.67,1.52-2.22,4.18,1.47.12,2.96.12,4.43,0-.54-2.65-1.48-4.18-2.22-4.18Z"/><path d="m3.03,11.5h5.32c.02-1.17.12-2.33.28-3.44-1.45-.17-2.86-.46-4.23-.85-.79,1.26-1.28,2.72-1.37,4.29Z"/><path d="m5.01,6.34c1.23.33,2.49.58,3.78.73.32-1.6.8-2.97,1.43-3.89-2.09.42-3.91,1.56-5.21,3.16Z"/><path d="m8.34,12.5H3.03c.09,1.57.57,3.03,1.37,4.29,1.37-.39,2.79-.67,4.23-.85-.17-1.11-.26-2.28-.28-3.44Z"/></g><path d="m15.66,11.5c-.02-1.17-.12-2.33-.28-3.44,1.45-.17,2.86-.46,4.23-.85-.19-.3-.4-.6-.62-.88-1.23.33-2.49.58-3.78.73-.32-1.6-.8-2.97-1.43-3.89-.58-.12-1.17-.18-1.78-.18.74,0,1.67,1.52,2.22,4.18-1.47.12-2.96.12-4.43,0,.54-2.65,1.48-4.18,2.22-4.18-.61,0-1.2.06-1.78.18-.63.92-1.11,2.29-1.43,3.89-1.29-.15-2.55-.4-3.78-.73-.23.28-.43.57-.62.88,1.37.39,2.78.68,4.23.85-.17,1.1-.26,2.27-.28,3.44H3.03c0,.17-.03.33-.03.5s.02.33.03.5h5.32c.02,1.17.12,2.34.28,3.44-1.44.17-2.86.45-4.23.85.19.3.4.6.62.87,1.23-.33,2.49-.58,3.78-.73.32,1.6.8,2.97,1.43,3.89.58.12,1.17.18,1.78.18-.74,0-1.67-1.52-2.22-4.18,1.47-.12,2.96-.12,4.43,0-.54,2.65-1.48,4.18-2.22,4.18.61,0,1.2-.06,1.78-.18.63-.92,1.11-2.29,1.43-3.89,1.29.15,2.55.4,3.78.73.23-.28.43-.57.62-.87-1.37-.39-2.79-.67-4.23-.85.17-1.11.26-2.28.28-3.44h5.32c0-.17.03-.33.03-.5s-.02-.33-.03-.5h-5.32Zm-1.27,4.34c-1.59-.13-3.2-.13-4.79,0-.15-.99-.24-2.11-.26-3.34h5.32c-.02,1.23-.11,2.35-.26,3.34Zm-5.05-4.34c.02-1.23.11-2.34.26-3.33.79.07,1.59.11,2.39.11s1.6-.04,2.39-.11c.15.99.24,2.11.26,3.33h-5.32Z"/></svg>