<svg xmlns="http://www.w3.org/2000/svg" width="24" height="24" viewBox="0 0 24 24"><g opacity="0.4"><path d="M14.86 9.14H16V10.280000000000001H14.86z"/><path d="M14.86 18.29H16V19.43H14.86z"/><path d="M14.86 13.71H16V14.850000000000001H14.86z"/><path d="M14.86 4.57H16V5.71H14.86z"/><path d="M12.57 16H13.71V17.14H12.57z"/><path d="M12.57 6.86H13.71V8H12.57z"/><path d="M12.57 11.43H13.71V12.57H12.57z"/><path d="M9.71 17.71H12V20H9.71z"/><path d="M9.71 4H12V6.29H9.71z"/><path d="m7.43,4h-1.93c-.83,0-1.5.67-1.5,1.5v13c0,.83.67,1.5,1.5,1.5h1.93v-2.29h2.29v-2.29h-2.29v-2.29h2.29v-2.29h-2.29v-2.29h2.29v-2.29h-2.29v-2.29Z"/><path d="M9.71 13.14H12V15.43H9.71z"/><path d="M9.71 8.57H12V10.86H9.71z"/></g><path d="M7.43 17.71H9.719999999999999V20H7.43z"/><path d="M7.43 8.57H9.719999999999999V10.86H7.43z"/><path d="M7.43 4H9.719999999999999V6.29H7.43z"/><path d="M7.43 13.14H9.719999999999999V15.43H7.43z"/><path d="m18.5,4h-6.5v2.29h-2.29v2.29h2.29v2.29h-2.29v2.29h2.29v2.29h-2.29v2.29h2.29v2.29h6.5c.83,0,1.5-.67,1.5-1.5V5.5c0-.83-.67-1.5-1.5-1.5Zm-4.79,13.14h-1.14v-1.14h1.14v1.14Zm0-4.57h-1.14v-1.14h1.14v1.14Zm0-4.57h-1.14v-1.14h1.14v1.14Zm2.29,11.43h-1.14v-1.14h1.14v1.14Zm0-4.57h-1.14v-1.14h1.14v1.14Zm0-4.57h-1.14v-1.14h1.14v1.14Zm0-4.57h-1.14v-1.14h1.14v1.14Z"/></svg>