<svg xmlns="http://www.w3.org/2000/svg" width="24" height="24" viewBox="0 0 24 24"><g opacity="0.4"><path d="m12.73,4.03c-.48-.04-.98-.04-1.46,0-2.64.21-4.96,1.67-6.36,3.99-1.19,1.98-1.54,4.33-1.02,6.54l.91-.45c-.38-1.89-.04-3.88.97-5.57,1.23-2.04,3.27-3.33,5.59-3.51.43-.04.87-.04,1.3,0,2.32.19,4.36,1.47,5.59,3.51,1.02,1.68,1.34,3.68.96,5.56l.92.46c.51-2.21.17-4.56-1.02-6.54-1.4-2.32-3.72-3.78-6.36-3.99Z"/></g><path d="m5.92,19.7c.05.13.16.22.29.27.06.02.11.03.17.03.08,0,.15-.02.22-.05l1.88-.94c.23-.12.34-.39.24-.63l-1.88-4.69c-.05-.13-.16-.23-.29-.28-.13-.05-.28-.04-.4.02l-1.36.68s0,0,0,0l-.91.45c.12.5.26.99.46,1.46l1.57,3.67Z"/><path d="m15.53,19.01l1.88.94c.07.04.15.05.22.05.06,0,.12,0,.17-.03.13-.05.23-.15.29-.27l1.57-3.67c.2-.48.35-.97.46-1.46l-.92-.46-1.35-.68c-.12-.06-.27-.07-.4-.02-.13.05-.23.15-.29.28l-1.88,4.69c-.1.24,0,.52.24.63Z"/></svg>