<svg xmlns="http://www.w3.org/2000/svg" width="24" height="24" viewBox="0 0 24 24"><g opacity="0.4"><path d="m12.5,10.3v-1.34c.61-.1,1.17-.39,1.62-.84.57-.57.88-1.32.88-2.12s-.31-1.56-.88-2.12c-1.13-1.13-3.11-1.13-4.24,0-.57.57-.88,1.32-.88,2.12h1c0-.53.21-1.04.59-1.41.76-.76,2.07-.76,2.83,0,.38.38.59.88.59,1.41s-.21,1.04-.59,1.41c-.38.38-.88.59-1.41.59-.28,0-.5.22-.5.5v1.8L3.14,19.16c-.14.15-.17.36-.1.54.08.18.26.3.46.3h17c.2,0,.38-.12.46-.3.08-.18.04-.4-.1-.54l-8.36-8.86Zm-7.84,8.7l7.34-7.77,7.34,7.77H4.66Z"/></g></svg>