<svg xmlns="http://www.w3.org/2000/svg" width="24" height="24" viewBox="0 0 24 24"><g opacity="0.4"><path d="m16.35,3.15c-.09-.09-.22-.15-.35-.15h-8c-.13,0-.26.05-.35.15L3.15,7.65c-.09.09-.15.22-.15.35v8c0,.13.05.26.15.35l4.5,4.5c.09.09.22.15.35.15h8c.13,0,.26-.05.35-.15l4.5-4.5c.09-.09.15-.22.15-.35v-8c0-.13-.05-.26-.15-.35l-4.5-4.5Zm-3.85,13.85h-1v-1h1v1Zm0-4.02v1.52h-1v-1.86c0-.21.13-.4.33-.47.02,0,2.08-.77,2.08-2.11,0-.86-.54-1.64-1.32-1.93-.5-.19-1.05-.16-1.55.07-.51.24-.89.65-1.07,1.17l-.94-.33c.27-.77.84-1.4,1.59-1.75.75-.35,1.57-.39,2.32-.1,1.17.44,1.96,1.59,1.97,2.86,0,1.63-1.68,2.58-2.41,2.92Z"/></g><path d="M11.5 16H12.5V17H11.5z"/><path d="m12.5,12.98c.73-.34,2.41-1.28,2.41-2.92,0-1.27-.8-2.42-1.97-2.86-.75-.28-1.58-.24-2.32.1-.75.35-1.32.97-1.59,1.75l.94.33c.18-.52.56-.94,1.07-1.17.5-.23,1.05-.26,1.55-.07.78.29,1.31,1.07,1.32,1.93,0,1.34-2.06,2.1-2.08,2.11-.2.07-.33.26-.33.47v1.86h1v-1.52Z"/></svg>