<svg xmlns="http://www.w3.org/2000/svg" width="24" height="24" viewBox="0 0 24 24"><g opacity="0.4"><path d="m12,9c-2.76,0-5,2.24-5,5v.47c.5-.06.81-.22,1.15-.41.47-.26,1.01-.56,2.04-.56s1.57.3,2.04.56c.42.23.79.44,1.56.44s1.14-.2,1.56-.44c.4-.22.86-.46,1.6-.53-.24-2.54-2.36-4.53-4.95-4.53Z"/></g><path d="m17.4,13.5c-1.03,0-1.57.3-2.04.56-.42.23-.79.44-1.56.44s-1.13-.2-1.56-.44c-.47-.26-1.01-.56-2.04-.56s-1.57.3-2.04.56c-.42.23-.79.44-1.56.44s-1.13-.2-1.55-.44c-.47-.26-1.01-.56-2.04-.56v1c.77,0,1.13.2,1.56.44.47.26,1.01.56,2.04.56s1.57-.3,2.04-.56c.42-.23.79-.44,1.56-.44s1.13.2,1.56.44c.47.26,1.01.56,2.04.56s1.57-.3,2.04-.56c.42-.23.79-.44,1.56-.44s1.14.2,1.56.44c.47.26,1.01.56,2.04.56v-1c-.77,0-1.14-.2-1.56-.44-.47-.26-1.01-.56-2.04-.56Z"/><path d="M11.5 4H12.5V7H11.5z"/><path d="M17.35 9.35 18.35 8.35 19.35 7.35 19 7 18.65 6.65 17.65 7.65 16.65 8.65 17 9 17.35 9.35z"/><path d="M6.65 9.35 7 9 7.35 8.65 6.35 7.65 5.35 6.65 5 7 4.65 7.35 5.65 8.35 6.65 9.35z"/><path d="m17.4,17c-1.03,0-1.57.3-2.04.56-.42.23-.79.44-1.56.44s-1.13-.2-1.56-.44c-.47-.26-1.01-.56-2.04-.56s-1.57.3-2.04.56c-.42.23-.79.44-1.56.44s-1.13-.2-1.55-.44c-.47-.26-1.01-.56-2.04-.56v1c.77,0,1.13.2,1.56.44.47.26,1.01.56,2.04.56s1.57-.3,2.04-.56c.42-.23.79-.44,1.56-.44s1.13.2,1.56.44c.47.26,1.01.56,2.04.56s1.57-.3,2.04-.56c.42-.23.79-.44,1.56-.44s1.14.2,1.56.44c.47.26,1.01.56,2.04.56v-1c-.77,0-1.14-.2-1.56-.44-.47-.26-1.01-.56-2.04-.56Z"/></svg>