<svg xmlns="http://www.w3.org/2000/svg" width="24" height="24" viewBox="0 0 24 24"><g opacity="0.4"><path d="m18.5,4H5.5c-.83,0-1.5.67-1.5,1.5v13c0,.83.67,1.5,1.5,1.5h13c.83,0,1.5-.67,1.5-1.5V5.5c0-.83-.67-1.5-1.5-1.5Zm-2.32,8.77l-4.18,4.23-4.18-4.23c-1.09-1.1-1.09-2.84,0-3.95,1.09-1.1,2.82-1.1,3.91,0l.28.28.28-.28c1.09-1.1,2.81-1.1,3.91,0,1.09,1.11,1.09,2.85,0,3.95Z"/></g><path d="m12,17l4.18-4.23c1.09-1.1,1.09-2.84,0-3.95-1.09-1.1-2.82-1.1-3.91,0l-.28.28-.28-.28c-1.09-1.1-2.81-1.1-3.91,0-1.09,1.11-1.09,2.85,0,3.95l4.18,4.23Z"/></svg>