<svg xmlns="http://www.w3.org/2000/svg" width="24" height="24" viewBox="0 0 24 24"><g opacity="0.4"><path d="m20.5,6H3.5c-.83,0-1.5.67-1.5,1.5v7c0,1.93,1.57,3.5,3.5,3.5h13c1.93,0,3.5-1.57,3.5-3.5v-7c0-.83-.67-1.5-1.5-1.5Zm-14.5,7h-2v-2h2v2Zm-1-3c-.55,0-1-.45-1-1s.45-1,1-1,1,.45,1,1-.45,1-1,1Zm12,7H7V7h10v10Zm3-4h-2v-2h2v2Zm-1-3c-.55,0-1-.45-1-1s.45-1,1-1,1,.45,1,1-.45,1-1,1Z"/></g><path d="M19 8A1 1 0 1 0 19 10 1 1 0 1 0 19 8z"/><path d="M18 11H20V13H18z"/><path d="M5 8A1 1 0 1 0 5 10 1 1 0 1 0 5 8z"/><path d="M4 11H6V13H4z"/><path d="M7 7H17V17H7z"/></svg>