<svg xmlns="http://www.w3.org/2000/svg" width="24" height="24" viewBox="0 0 24 24"><g opacity="0.4"><path d="m10.39,8.78c-.17-.34-.52-.55-.89-.55h-3.49c-.38,0-.73.21-.89.55l-1.39,2.78c-.14.28-.14.61,0,.89l1.39,2.78c.17.34.52.55.89.55h3.49c.38,0,.73-.21.89-.55l1.39-2.78c.14-.28.14-.61,0-.89l-1.39-2.78Z"/><path d="m18.89,13.5c-.17-.34-.52-.55-.89-.55h-3.49c-.38,0-.73.21-.89.55l-1.39,2.78c-.14.28-.14.61,0,.89l1.39,2.78c.17.34.52.55.89.55h3.49c.38,0,.73-.21.89-.55l1.39-2.78c.14-.28.14-.61,0-.89l-1.39-2.78Z"/></g><path d="m18.89,4.05c-.17-.34-.52-.55-.89-.55h-3.49c-.38,0-.73.21-.89.55l-1.39,2.78c-.14.28-.14.61,0,.89l1.39,2.78c.17.34.52.55.89.55h3.49c.38,0,.73-.21.89-.55l1.39-2.78c.14-.28.14-.61,0-.89l-1.39-2.78Z"/></svg>