<svg xmlns="http://www.w3.org/2000/svg" width="24" height="24" viewBox="0 0 24 24"><g opacity="0.4"><path d="m20,11h-2c-.14,0-.27-.06-.37-.16l-5.63-6.1-5.63,6.1c-.09.1-.23.16-.37.16h-3v8.5c0,.28.22.5.5.5h6.5v-5h4v5h6.5c.28,0,.5-.22.5-.5v-8.5h-1Zm-12,5h-2v-3h2v3Zm3.89-3.1c-1.1,0-2-.9-2-2s.9-2,2-2,2,.9,2,2-.9,2-2,2Zm6.11,3.1h-2v-3h2v3Z"/></g><path d="M10 15H14V20H10z"/><path d="M11.89 8.9A2 2 0 1 0 11.89 12.9 2 2 0 1 0 11.89 8.9z"/><path d="M6 13H8V16H6z"/><path d="M16 13H18V16H16z"/><path d="m19.47,5.34c-.07-.2-.26-.34-.47-.34h-5.4l-1.24-1.34c-.19-.21-.54-.21-.73,0l-1.24,1.34h-5.4c-.21,0-.41.14-.47.34l-1.5,4.5c-.02.05-.03.1-.03.16v1h3c.14,0,.27-.06.37-.16l5.63-6.1,5.63,6.1c.09.1.23.16.37.16h3v-1c0-.05,0-.11-.03-.16l-1.5-4.5Z"/></svg>