<svg xmlns="http://www.w3.org/2000/svg" width="24" height="24" viewBox="0 0 24 24"><g opacity="0.4"><path d="m19.5,5H4.5c-.28,0-.5.22-.5.5v7.5h4.13l.12.33c.57,1.6,2.08,2.67,3.75,2.67s3.19-1.07,3.75-2.67l.12-.33h4.13v-7.5c0-.28-.22-.5-.5-.5Z"/></g><path d="m19.5,4H4.5c-.83,0-1.5.67-1.5,1.5v13c0,.83.67,1.5,1.5,1.5h15c.83,0,1.5-.67,1.5-1.5V5.5c0-.83-.67-1.5-1.5-1.5Zm.5,9h-4.13l-.12.33c-.57,1.6-2.08,2.67-3.75,2.67s-3.19-1.07-3.75-2.67l-.12-.33h-4.13v-7.5c0-.28.22-.5.5-.5h15c.28,0,.5.22.5.5v7.5Z"/></svg>