<svg xmlns="http://www.w3.org/2000/svg" width="24" height="24" viewBox="0 0 24 24"><g opacity="0.4"><path d="m18.5,4H5.5c-.83,0-1.5.67-1.5,1.5v13c0,.83.67,1.5,1.5,1.5h8.5v-1H5.5c-.28,0-.5-.22-.5-.5v-1.79l3-3,1.65,1.65c.2.2.51.2.71,0l5.65-5.65,3,3v1.29h1V5.5c0-.83-.67-1.5-1.5-1.5Zm-10,6c-.83,0-1.5-.67-1.5-1.5s.67-1.5,1.5-1.5,1.5.67,1.5,1.5-.67,1.5-1.5,1.5Z"/></g><path d="m20.87,17.79l-1.78-.89-.89-1.78c-.08-.16-.33-.16-.41,0l-.89,1.78-1.78.89c-.08.04-.13.12-.13.21,0,.09.05.17.13.21l1.77.82.89,1.85c.04.08.12.13.21.13h0c.09,0,.17-.05.21-.13l.82-1.77,1.84-.89c.08-.04.13-.12.13-.21,0-.09-.05-.17-.13-.21Z"/></svg>