<svg xmlns="http://www.w3.org/2000/svg" width="24" height="24" viewBox="0 0 24 24"><g opacity="0.4"><path d="m19.93,7.25c-.09-.15-.25-.25-.43-.25h-4.9l-2.16-3.75c-.18-.31-.69-.31-.87,0l-2.16,3.75h-4.9c-.18,0-.34.1-.43.25-.09.15-.09.35,0,.5l2.45,4.25-2.45,4.25c-.09.15-.09.35,0,.5.09.15.25.25.43.25h4.9l2.16,3.75c.09.15.25.25.43.25s.34-.1.43-.25l2.16-3.75h4.9c.18,0,.34-.1.43-.25.09-.15.09-.35,0-.5l-2.45-4.25,2.45-4.25c.09-.15.09-.35,0-.5Zm-7.93-2.75l1.44,2.5h-2.88l1.44-2.5Zm2.02,3.5l2.31,4-2.31,4h-4.04l-2.31-4,2.31-4h4.04Zm-8.65,0h3.46l-1.73,3-1.73-3Zm0,8l1.73-3,1.73,3h-3.46Zm6.63,3.5l-1.44-2.5h2.88l-1.44,2.5Zm6.63-3.5h-3.46l1.73-3,1.73,3Zm-1.73-5l-1.73-3h3.46l-1.73,3Z"/></g></svg>