<svg xmlns="http://www.w3.org/2000/svg" width="24" height="24" viewBox="0 0 24 24"><g opacity="0.4"><path d="m20.32,3.27c-.39-.07-9.59-1.6-14.45,3.25-.89.89-1.63,2-2.19,3.29-1.33,3.08-.7,6.47,1.67,8.83.01.01.03.02.04.03,1.46-4.23,4.61-7.73,8.61-9.68-2.86,1.93-5.11,4.73-6.25,7.97-.35.96-.62,2.02-.73,2.95,1.2.7,2.54,1.07,3.91,1.07,1.08,0,2.18-.23,3.25-.69,1.29-.56,2.4-1.29,3.29-2.19,4.86-4.86,3.32-14.06,3.25-14.45-.04-.21-.2-.37-.41-.41Z"/></g><path d="m7.02,19.93c.11-.94.38-1.99.73-2.95,1.15-3.25,3.4-6.04,6.25-7.97-4,1.95-7.15,5.45-8.61,9.68,1.01,1,2.21,1.68,3.49,2.03-.64-.18-1.27-.44-1.86-.79Z"/><path d="m5.35,18.65h0s.01.01.02.02c0,0-.01-.01-.02-.02Z"/><path d="m5.39,18.68s-.01-.01-.02-.02c0,0,.01.01.02.02,0,0,0,0,0,0Z"/></svg>