<svg xmlns="http://www.w3.org/2000/svg" width="24" height="24" viewBox="0 0 24 24"><g opacity="0.4"><path d="m15.23,15.2c-1.4,1.61-2.82,2.62-2.94,2.71-.09.06-.19.09-.29.09s-.2-.03-.29-.09c-.12-.08-1.54-1.1-2.94-2.71-3.37.43-5.77,1.52-5.77,2.8,0,1.66,4.03,3,9,3s9-1.34,9-3c0-1.28-2.4-2.36-5.77-2.8Z"/></g><path d="m11.71,17.91c.09.06.19.09.29.09s.2-.03.29-.09c.23-.17,5.73-4.09,5.71-8.96,0-3.28-2.69-5.94-6-5.94s-6,2.67-6,5.94c-.02,4.87,5.48,8.8,5.71,8.97Zm.29-10.91c1.1,0,2,.9,2,2s-.9,2-2,2-2-.9-2-2,.9-2,2-2Z"/></svg>