<svg xmlns="http://www.w3.org/2000/svg" width="24" height="24" viewBox="0 0 24 24"><g opacity="0.4"><path d="m12,17c.08,0,.16-.02.23-.06l8.5-4.5-.47-.88-8.27,4.38L3.73,11.56l-.47.88,8.5,4.5c.07.04.15.06.23.06Z"/><path d="m12,21c.08,0,.16-.02.23-.06l8.5-4.5-.47-.88-8.27,4.38L3.73,15.56l-.47.88,8.5,4.5c.07.04.15.06.23.06Z"/></g><path d="m20.73,7.56L12.23,3.06c-.15-.08-.32-.08-.47,0L3.27,7.56c-.16.09-.27.26-.27.44s.1.36.27.44l8.5,4.5c.07.04.15.06.23.06s.16-.02.23-.06l8.5-4.5c.16-.09.27-.26.27-.44s-.1-.36-.27-.44Z"/></svg>