<svg xmlns="http://www.w3.org/2000/svg" width="24" height="24" viewBox="0 0 24 24"><g opacity="0.4"><path d="m19.5,10h-11c-.83,0-1.5.67-1.5,1.5v8c0,.83.67,1.5,1.5,1.5h11c.83,0,1.5-.67,1.5-1.5v-8c0-.83-.67-1.5-1.5-1.5Zm-5,7.41v1.59h-1v-1.59c-.58-.21-1-.76-1-1.41,0-.83.67-1.5,1.5-1.5s1.5.67,1.5,1.5c0,.65-.42,1.2-1,1.41Z"/></g><path d="m10,7v3h1v-3c0-2.21-1.79-4-4-4s-4,1.79-4,4v1h1v-1c0-1.65,1.35-3,3-3s3,1.35,3,3Z"/><path d="m14.5,19v-1.59c.58-.21,1-.76,1-1.41,0-.83-.67-1.5-1.5-1.5s-1.5.67-1.5,1.5c0,.65.42,1.2,1,1.41v1.59h1Z"/></svg>