<svg xmlns="http://www.w3.org/2000/svg" width="24" height="24" viewBox="0 0 24 24"><g opacity="0.4"><path d="m20.73,11.56l-8.5-4.5c-.15-.08-.32-.08-.47,0L3.27,11.56c-.16.09-.27.26-.27.44s.1.36.27.44l8.5,4.5c.07.04.15.06.23.06s.16-.02.23-.06l8.5-4.5c.16-.09.27-.26.27-.44s-.1-.36-.27-.44Z"/></g><path d="M19 3 18 3 18 5 16 5 16 6 18 6 18 8 19 8 19 6 21 6 21 5 19 5 19 3z"/><path d="m20.73,15.56l-2.94-1.56-5.56,2.94c-.07.04-.15.06-.23.06s-.16-.02-.23-.06l-5.56-2.94-2.94,1.56c-.16.09-.27.26-.27.44s.1.36.27.44l8.5,4.5c.07.04.15.06.23.06s.16-.02.23-.06l8.5-4.5c.16-.09.27-.26.27-.44s-.1-.36-.27-.44Z"/></svg>