<svg xmlns="http://www.w3.org/2000/svg" width="24" height="24" viewBox="0 0 24 24"><g opacity="0.4"><path d="m6.5,21h11c.83,0,1.5-.67,1.5-1.5v-8c0-.83-.67-1.5-1.5-1.5H6.5c-.83,0-1.5.67-1.5,1.5v8c0,.83.67,1.5,1.5,1.5Zm5.5-6.5c.83,0,1.5.67,1.5,1.5,0,.65-.42,1.2-1,1.41v1.59h-1v-1.59c-.58-.21-1-.76-1-1.41,0-.83.67-1.5,1.5-1.5Z"/></g><path d="m9,7c0-1.65,1.35-3,3-3s3,1.35,3,3v3h1v-3c0-2.21-1.79-4-4-4s-4,1.79-4,4v3h1v-3Z"/><path d="m12.5,19v-1.59c.58-.21,1-.76,1-1.41,0-.83-.67-1.5-1.5-1.5s-1.5.67-1.5,1.5c0,.65.42,1.2,1,1.41v1.59h1Z"/></svg>