<svg xmlns="http://www.w3.org/2000/svg" width="24" height="24" viewBox="0 0 24 24"><g opacity="0.4"><path d="m19.5,14.4s-.04-.02-.06-.03c-.43-.24-.93-.37-1.44-.37-.95,0-1.83.44-2.4,1.2-.39.51-.6,1.15-.6,1.8,0,1.65,1.35,3,3,3s3-1.35,3-3c0-1.06-.57-2.06-1.5-2.6Z"/><path d="m7.5,14.4s-.04-.02-.07-.03c-.43-.24-.93-.37-1.44-.37-.95,0-1.83.44-2.39,1.19-.26.33-.45.75-.55,1.22-.04.19-.06.39-.06.59,0,1.65,1.35,3,3,3s3-1.35,3-3c0-.2-.02-.4-.06-.6-.16-.83-.69-1.56-1.44-2Z"/><path d="m15.2,8l.87,2h.42c.28,0,.5-.22.5-.5v-1c0-.28-.22-.5-.5-.5h-1.3Z"/></g><path d="m15.6,15.2c.54-.72,1.35-1.13,2.23-1.18l-2.85-6.52c-.4-.91-1.3-1.5-2.29-1.5h-.69v1h.69c.6,0,1.13.35,1.37.9l1.36,3.1h-4.14c-.28,0-.56.08-.79.23l-3.42,2.14-2.22-2.22c-.09-.09-.22-.15-.35-.15h-1.5v1h1.29l2.04,2.04c.39.04.77.14,1.1.33.02,0,.04.02.07.03.75.44,1.27,1.17,1.44,2,.02.09.02.18.03.27l.89.89c.28.28.67.44,1.06.44h2.17c.39,0,.78-.16,1.06-.44l.88-.88c.06-.54.25-1.05.57-1.48Z"/></svg>