<svg xmlns="http://www.w3.org/2000/svg" width="24" height="24" viewBox="0 0 24 24"><g opacity="0.4"><path d="m19.5,4H4.5c-.83,0-1.5.67-1.5,1.5v11c0,.83.67,1.5,1.5,1.5h2.5v2.5c0,.18.1.35.25.44.08.04.16.06.25.06s.18-.02.26-.07l4.88-2.93h6.86c.83,0,1.5-.67,1.5-1.5V5.5c0-.83-.67-1.5-1.5-1.5Zm-6.5,8l-3,3h-2s0-2,0-2l3-3,1.15-1.15,2,2-1.15,1.15Zm1.85-1.85l-2-2,1.15-1.15,1,1,1,1-1.15,1.15Z"/></g><path d="M16 9 15 8 14 7 12.85 8.15 14.85 10.15 16 9z"/><path d="M11 10 8 13 8 15 10 15 13 12 14.15 10.85 12.15 8.85 11 10z"/></svg>