<svg xmlns="http://www.w3.org/2000/svg" width="24" height="24" viewBox="0 0 24 24"><g opacity="0.4"><path d="m19.5,4H4.5c-.83,0-1.5.67-1.5,1.5v11c0,.83.67,1.5,1.5,1.5h2.5v2.5c0,.18.1.35.25.44.08.04.16.06.25.06s.18-.02.26-.07l4.88-2.93h6.86c.83,0,1.5-.67,1.5-1.5V5.5c0-.83-.67-1.5-1.5-1.5Zm-12,2.97c.83,0,1.5.67,1.5,1.5s-.67,1.5-1.5,1.5-1.5-.67-1.5-1.5.67-1.5,1.5-1.5Zm-1.5,8l3-4,1.5,2,3-4,4.5,6H6Z"/></g><path d="M18 14.97 13.5 8.97 10.5 12.97 9 10.97 6 14.97 18 14.97z"/><path d="M7.5 6.970000000000001A1.5 1.5 0 1 0 7.5 9.97 1.5 1.5 0 1 0 7.5 6.970000000000001z"/></svg>