<svg xmlns="http://www.w3.org/2000/svg" width="24" height="24" viewBox="0 0 24 24"><g opacity="0.4"><path d="m19.5,7H4.5c-.83,0-1.5.67-1.5,1.5v11c0,.83.67,1.5,1.5,1.5h15c.83,0,1.5-.67,1.5-1.5v-11c0-.83-.67-1.5-1.5-1.5Zm-3.5,7.5h-3.5v3.5h-1v-3.5h-3.5v-1h3.5v-3.5h1v3.5h3.5v1Z"/></g><path d="M12.5 18 12.5 14.5 16 14.5 16 13.5 12.5 13.5 12.5 10 11.5 10 11.5 13.5 8 13.5 8 14.5 11.5 14.5 11.5 18 12.5 18z"/><path d="m8,4.5c0-.28.22-.5.5-.5h7c.28,0,.5.22.5.5v2.5h1v-2.5c0-.83-.67-1.5-1.5-1.5h-7c-.83,0-1.5.67-1.5,1.5v2.5h1v-2.5Z"/></svg>