<svg xmlns="http://www.w3.org/2000/svg" width="24" height="24" viewBox="0 0 24 24"><g opacity="0.4"><path d="m16.78,4h-1.17l3,5h-2.83l-3-5h-1.17l3,5h-2.83l-3-5h-1.17l3,5h-2.83l-3-5h-.28c-.28,0-.53.08-.76.21l2.87,4.79h-3.62v9.5c0,.83.67,1.5,1.5,1.5h15c.83,0,1.5-.67,1.5-1.5v-9.5h-1.22l-3-5Zm-6.78,13v-5l4,2.5-4,2.5Z"/></g><path d="M14.62 9 11.62 4 8.78 4 11.78 9 14.62 9z"/><path d="M10.62 9 7.62 4 4.78 4 7.78 9 10.62 9z"/><path d="m19.5,4h-2.72l3,5h1.22v-3.5c0-.83-.67-1.5-1.5-1.5Z"/><path d="m3.74,4.21c-.44.26-.74.74-.74,1.29v3.5h3.62l-2.87-4.79Z"/><path d="M18.62 9 15.62 4 12.78 4 15.78 9 18.62 9z"/><path d="M10 17 14 14.5 10 12 10 17z"/></svg>