<svg xmlns="http://www.w3.org/2000/svg" width="24" height="24" viewBox="0 0 24 24"><g opacity="0.4"><path d="m8,20.5c0,.18.09.34.25.43s.34.09.5,0l3.25-1.86,3.25,1.86c.08.04.16.07.25.07s.17-.02.25-.07c.15-.09.25-.25.25-.43v-5.26c-1.13.79-2.51,1.26-4,1.26s-2.87-.47-4-1.26v5.26Z"/><path d="M13.08 8.36 12 6.17 10.92 8.36 8.5 8.71 10.25 10.42 9.84 12.83 12 11.69 14.16 12.83 13.75 10.42 15.5 8.71 13.08 8.36z"/></g><path d="m12,2.5c-3.86,0-7,3.14-7,7s3.14,7,7,7,7-3.14,7-7-3.14-7-7-7Zm2.16,10.33l-2.16-1.14-2.16,1.14.41-2.41-1.75-1.71,2.42-.35,1.08-2.19,1.08,2.19,2.42.35-1.75,1.71.41,2.41Z"/></svg>