<svg xmlns="http://www.w3.org/2000/svg" width="24" height="24" viewBox="0 0 24 24"><g opacity="0.4"><path d="m3,20.5c0,.28.22.5.5.5h2.5v-3c0-2,1.5-3,1.5-3,0,0,1.5,1,1.5,3v3h3v-3c0-2,1.5-3,1.5-3,0,0,1.5,1,1.5,3v3h2v-8H3v7.5Z"/><path d="m3,10.5v1.5h14v-2H3.5c-.28,0-.5.22-.5.5Z"/></g><path d="m17,12H3v1h14v8h3.5c.28,0,.5-.22.5-.5V7h-4v5Z"/><path d="m18.66,3.03c-.98.16-1.66,1.08-1.66,2.08v.89h4v-1c0-1.21-1.09-2.18-2.34-1.97Z"/><path d="m7.5,15s-1.5,1-1.5,3v3h3v-3c0-2-1.5-3-1.5-3Z"/><path d="m13.5,15s-1.5,1-1.5,3v3h3v-3c0-2-1.5-3-1.5-3Z"/><path d="m15.71,10c.31-1.8-.42-3.64-1.94-4.74l-2.97-2.16c-.18-.13-.41-.13-.59,0l-2.97,2.16c-1.52,1.1-2.24,2.94-1.94,4.74h10.41Z"/></svg>