<svg xmlns="http://www.w3.org/2000/svg" width="24" height="24" viewBox="0 0 24 24"><g opacity="0.4"><path d="m12,4c-4.96,0-9,3.14-9,7,0,2.36,1.49,4.51,4,5.82v3.1c0,.85,1,1.32,1.65.76l3.13-2.68c.07,0,.15,0,.22,0,4.96,0,9-3.14,9-7s-4.04-7-9-7Zm2.93,7.18l-2.93,2.82-2.93-2.82s-.03-.03-.05-.05c-.71-.73-.69-1.88.05-2.58.76-.73,1.98-.73,2.73,0l.2.19.2-.19c.76-.73,1.98-.73,2.73,0,.02.02.03.03.05.05.71.73.69,1.88-.05,2.58Z"/></g><path d="m12,14l2.93-2.82c.74-.7.76-1.85.05-2.58-.02-.02-.03-.03-.05-.05-.76-.73-1.98-.73-2.73,0l-.2.19-.2-.19c-.76-.73-1.98-.73-2.73,0-.74.7-.76,1.85-.05,2.58.02.02.03.03.05.05l2.93,2.82Z"/></svg>