<svg xmlns="http://www.w3.org/2000/svg" width="24" height="24" viewBox="0 0 24 24"><g opacity="0.4"><path d="m7,3.5v8.19c.99-1.49,2.62-2.51,4.5-2.67V3h-4c-.28,0-.5.22-.5.5Z"/><path d="m17,11.69V3.5c0-.28-.22-.5-.5-.5h-4v6.03c1.88.16,3.51,1.18,4.5,2.67Z"/><path d="M10.92 13.63 8.5 13.98 10.25 15.69 9.84 18.1 12 16.96 14.16 18.1 13.75 15.69 15.5 13.98 13.08 13.63 12 11.44 10.92 13.63z"/></g><path d="m12.5,9.03V3h-1v6.03c-3.07.26-5.5,2.83-5.5,5.97,0,3.31,2.69,6,6,6s6-2.69,6-6-2.43-5.72-5.5-5.97Zm1.66,9.07l-2.16-1.14-2.16,1.14.41-2.41-1.75-1.71,2.42-.35,1.08-2.19,1.08,2.19,2.42.35-1.75,1.71.41,2.41Z"/></svg>