<svg xmlns="http://www.w3.org/2000/svg" width="24" height="24" viewBox="0 0 24 24"><g opacity="0.4"><path d="m7.5,21h9c.83,0,1.5-.67,1.5-1.5V4.5c0-.83-.67-1.5-1.5-1.5H7.5c-.83,0-1.5.67-1.5,1.5v15c0,.83.67,1.5,1.5,1.5Zm3.82-14.57c.55,0,1,.45,1,1s-.45,1-1,1-1-.45-1-1,.45-1,1-1Zm-2.32-1.43c.55,0,1,.45,1,1s-.45,1-1,1-1-.45-1-1,.45-1,1-1Zm0,3c.55,0,1,.45,1,1s-.45,1-1,1-1-.45-1-1,.45-1,1-1Z"/></g><path d="M11.32 6.43A1 1 0 1 0 11.32 8.43 1 1 0 1 0 11.32 6.43z"/><path d="M9 8A1 1 0 1 0 9 10 1 1 0 1 0 9 8z"/><path d="M9 5A1 1 0 1 0 9 7 1 1 0 1 0 9 5z"/></svg>