<svg xmlns="http://www.w3.org/2000/svg" width="24" height="24" viewBox="0 0 24 24"><g opacity="0.4"><path d="m18.5,6H5.5c-.83,0-1.5.67-1.5,1.5v12c0,.83.67,1.5,1.5,1.5h13c.83,0,1.5-.67,1.5-1.5V7.5c0-.83-.67-1.5-1.5-1.5Zm-2.5,10.5c0,.83-.67,1.5-1.5,1.5s-1.5-.67-1.5-1.5.67-1.5,1.5-1.5c.18,0,.34.04.5.09v-4.18l-4-.8v5.39c0,.83-.67,1.5-1.5,1.5s-1.5-.67-1.5-1.5.67-1.5,1.5-1.5c.18,0,.34.04.5.09v-4.59c0-.15.07-.29.18-.39.12-.09.27-.13.42-.1l5,1c.23.05.4.25.4.49v6Z"/></g><path d="M7 3H17V4H7z"/><path d="m14.5,15c-.83,0-1.5.67-1.5,1.5s.67,1.5,1.5,1.5,1.5-.67,1.5-1.5v-6c0-.24-.17-.44-.4-.49l-5-1c-.14-.03-.3,0-.42.1-.12.1-.18.24-.18.39v4.59c-.16-.06-.32-.09-.5-.09-.83,0-1.5.67-1.5,1.5s.67,1.5,1.5,1.5,1.5-.67,1.5-1.5v-5.39l4,.8v4.18c-.16-.06-.32-.09-.5-.09Z"/></svg>