<svg xmlns="http://www.w3.org/2000/svg" width="24" height="24" viewBox="0 0 24 24"><g opacity="0.4"><path d="m12,4c-4.96,0-9,3.14-9,7,0,2.36,1.49,4.51,4,5.82v3.1c0,.85,1,1.32,1.65.76l3.13-2.68c.07,0,.15,0,.22,0,4.96,0,9-3.14,9-7s-4.04-7-9-7Zm-1.65,9.65l-.71.71-3.35-3.35,3.35-3.35.71.71-2.65,2.65,2.65,2.65Zm4,.71l-.71-.71,2.65-2.65-2.65-2.65.71-.71,3.35,3.35-3.35,3.35Z"/></g><path d="M10.35 13.65 7.71 11 10.35 8.35 9.65 7.65 6.29 11 9.65 14.35 10.35 13.65z"/><path d="M14.35 14.35 17.71 11 14.35 7.65 13.65 8.35 16.29 11 13.65 13.65 14.35 14.35z"/></svg>