<svg xmlns="http://www.w3.org/2000/svg" width="24" height="24" viewBox="0 0 24 24"><g opacity="0.4"><path d="m17.27,6.23l.58-.58-2.25-2.25-.58.58-.83-.83c-.2-.2-.51-.2-.71,0l-7.33,7.33c-.09.09-.15.22-.15.35s.05.26.15.35l3.67,3.67c.1.1.23.15.35.15s.26-.05.35-.15l7.33-7.33c.09-.09.15-.22.15-.35s-.05-.26-.15-.35l-.58-.58Z"/></g><path d="M4.6 13.4 5 13 5.4 12.6 6.9 14.1 8.4 15.6 8 16 7.6 16.3 6.1 14.9z"/><path d="M20,14.5c0-2.4-1.3-4.6-3.4-5.7l-0.8,0.8c1.9,0.9,3.2,2.8,3.2,4.9c0,3-2.5,5.5-5.5,5.5H4v1h16v-1h-3
	C18.8,18.9,20,16.8,20,14.5z"/></svg>