<svg xmlns="http://www.w3.org/2000/svg" width="24" height="24" viewBox="0 0 24 24"><g opacity="0.4"><path d="m19.31,4.03l-12.31,4.97v6l12.31,4.97c.33.13.69-.11.69-.46V4.49c0-.35-.36-.6-.69-.46Z"/></g><path d="m7,9h-2.5c-.83,0-1.5.67-1.5,1.5v3c0,.83.67,1.5,1.5,1.5h2.5v-6Z"/><path d="m9.69,19.31l3.14,1.26c.18.07.37.11.56.11.22,0,.43-.05.63-.14.37-.17.66-.5.79-.89l.44-1.32-.93-.38-.46,1.38c-.04.13-.14.24-.26.29-.12.06-.27.06-.4.01l-3.14-1.26c-.25-.1-.37-.37-.29-.62l.48-1.45-.93-.38-.5,1.51c-.25.75.13,1.57.87,1.87Z"/></svg>