<svg xmlns="http://www.w3.org/2000/svg" width="24" height="24" viewBox="0 0 24 24"><g opacity="0.4"><path d="m12,3C7.04,3,3,7.04,3,12c0,2.03.69,4,1.95,5.59l-1.86,2.63c-.11.15-.12.35-.04.52s.26.27.44.27h8.5c4.96,0,9-4.04,9-9S16.96,3,12,3Zm3.35,11.65l-.71.71-2.65-2.65-2.65,2.65-.71-.71,2.65-2.65-2.65-2.65.71-.71,2.65,2.65,2.65-2.65.71.71-2.65,2.65,2.65,2.65Z"/></g><path d="M14.65 8.65 12 11.29 9.35 8.65 8.65 9.35 11.29 12 8.65 14.65 9.35 15.35 12 12.71 14.65 15.35 15.35 14.65 12.71 12 15.35 9.35 14.65 8.65z"/></svg>