<svg xmlns="http://www.w3.org/2000/svg" width="24" height="24" viewBox="0 0 24 24"><g opacity="0.4"><path d="m15.06,3.85c-.58-.58-1.54-.58-2.12,0L3.85,12.94c-.58.58-.58,1.54,0,2.12l5.09,5.09c.29.29.68.44,1.06.44s.77-.15,1.06-.44l9.09-9.09c.58-.58.58-1.54,0-2.12l-5.09-5.09Zm-5.35,11.85c-.39.39-1.02.39-1.41,0-.39-.39-.39-1.02,0-1.41.39-.39,1.02-.39,1.41,0,.39.39.39,1.02,0,1.41Z"/></g><path d="M14.35 20.35 17.35 17.35 20.35 14.35 20 14 19.65 13.65 16.65 16.65 13.65 19.65 14 20 14.35 20.35z"/><path d="M4.35 10.35 7.35 7.35 10.35 4.35 10 4 9.65 3.65 6.65 6.65 3.65 9.65 4 10 4.35 10.35z"/><path d="m8.29,14.29c-.39.39-.39,1.02,0,1.41.39.39,1.02.39,1.41,0,.39-.39.39-1.02,0-1.41-.39-.39-1.02-.39-1.41,0Z"/></svg>