<svg xmlns="http://www.w3.org/2000/svg" width="24" height="24" viewBox="0 0 24 24"><g opacity="0.4"><path d="m12,4c-4.96,0-9,3.14-9,7,0,2.36,1.49,4.51,4,5.82v3.1c0,.85,1,1.32,1.65.76l3.13-2.68c.07,0,.15,0,.22,0,4.96,0,9-3.14,9-7s-4.04-7-9-7Zm.5,11h-1v-1h1v1Zm1.27-3.73c-.35.35-.79.59-1.27.68v1.05h-1v-1.5c0-.28.22-.5.5-.5.4,0,.78-.16,1.06-.44.28-.28.44-.66.44-1.06s-.16-.78-.44-1.06c-.57-.57-1.56-.57-2.12,0-.28.28-.44.66-.44,1.06h-1c0-.67.26-1.3.73-1.77.94-.94,2.59-.94,3.54,0,.47.47.73,1.1.73,1.77s-.26,1.3-.73,1.77Z"/></g><path d="M11.5 14H12.5V15H11.5z"/><path d="m12.5,11.95c.48-.1.92-.33,1.27-.68.47-.47.73-1.1.73-1.77s-.26-1.3-.73-1.77c-.94-.94-2.59-.94-3.54,0-.47.47-.73,1.1-.73,1.77h1c0-.4.16-.78.44-1.06.56-.57,1.55-.57,2.12,0,.28.28.44.66.44,1.06s-.16.78-.44,1.06c-.28.28-.66.44-1.06.44-.28,0-.5.22-.5.5v1.5h1v-1.05Z"/></svg>