<svg xmlns="http://www.w3.org/2000/svg" width="24" height="24" viewBox="0 0 24 24"><g opacity="0.4"><path d="m15,15c-.18,0-.35-.01-.52-.03-.7,1.23-2.02,2.03-3.48,2.03-.16,0-.32,0-.48-.03-.23-.03-.45-.07-.67-.14-1.51-.45-2.63-1.75-2.83-3.35,0,0,0,0,0,0-.02-.16-.03-.32-.03-.48,0-1.45.79-2.77,2.03-3.48-.02-.17-.03-.35-.03-.52,0-.1,0-.21.01-.31,0-.09.02-.18.03-.28-1.83.78-3.04,2.58-3.04,4.59,0,.05,0,.1,0,.15-1.74.44-3.01,2.01-3.01,3.85,0,2.21,1.79,4,4,4,1.84,0,3.41-1.27,3.85-3.01.05,0,.1,0,.15,0,2.01,0,3.8-1.21,4.59-3.04-.1.01-.21.02-.31.03-.06,0-.17.01-.27.01Zm-8,5c-1.65,0-3-1.35-3-3,0-1.34.89-2.5,2.13-2.87.01.06.04.11.05.17.03.1.06.19.09.28.05.16.11.31.18.46.04.09.08.17.12.26.08.16.17.31.27.45.04.07.08.13.13.2.3.41.66.77,1.07,1.07.06.04.12.08.19.12.15.1.31.2.47.28.08.04.16.08.24.11.16.07.31.13.48.19.09.03.18.06.27.08.06.02.11.04.17.05-.37,1.24-1.53,2.13-2.87,2.13Z"/></g><path d="m15,3c-3.22,0-5.85,2.52-5.99,5.69-.01.1-.01.21-.01.31,0,3.31,2.69,6,6,6,.1,0,.21,0,.27-.01,3.21-.14,5.73-2.77,5.73-5.99s-2.69-6-6-6Z"/></svg>