<svg xmlns="http://www.w3.org/2000/svg" width="24" height="24" viewBox="0 0 24 24"><g opacity="0.4"><path d="M4.85 4.15 4.5 4.5 4.15 4.85 5.65 6.35 7.15 7.85 7.5 7.5 7.85 7.15 6.35 5.65 4.85 4.15z"/><path d="M16.85 16.15 16.5 16.5 16.15 16.85 17.65 18.35 19.15 19.85 19.5 19.5 19.85 19.15 18.35 17.65 16.85 16.15z"/><path d="M7.15 16.15 5.65 17.65 4.15 19.15 4.5 19.5 4.85 19.85 6.35 18.35 7.85 16.85 7.5 16.5 7.15 16.15z"/><path d="M19.15 4.15 17.65 5.65 16.15 7.15 16.5 7.5 16.85 7.85 18.35 6.35 19.85 4.85 19.5 4.5 19.15 4.15z"/></g><path d="M10 10 10 5 5 10 10 10z"/><path d="M14 14 14 19 19 14 14 14z"/><path d="M10 19 10 14 5 14 10 19z"/><path d="M14 5 14 10 19 10 14 5z"/></svg>