<svg xmlns="http://www.w3.org/2000/svg" width="24" height="24" viewBox="0 0 24 24"><g opacity="0.4"><path d="m4.5,18h2.5v2.5c0,.18.1.35.25.44.08.04.16.06.25.06s.18-.02.26-.07l4.88-2.93h6.86c.83,0,1.5-.67,1.5-1.5V5.5c0-.83-.67-1.5-1.5-1.5H4.5c-.83,0-1.5.67-1.5,1.5v11c0,.83.67,1.5,1.5,1.5Zm4.15-9.65l.71-.71,2.65,2.65,2.65-2.65.71.71-2.65,2.65,2.65,2.65-.71.71-2.65-2.65-2.65,2.65-.71-.71,2.65-2.65-2.65-2.65Z"/></g><path d="M14.65 7.65 12 10.29 9.35 7.65 8.65 8.35 11.29 11 8.65 13.65 9.35 14.35 12 11.71 14.65 14.35 15.35 13.65 12.71 11 15.35 8.35 14.65 7.65z"/></svg>