<svg xmlns="http://www.w3.org/2000/svg" width="24" height="24" viewBox="0 0 24 24"><g opacity="0.4"><path d="m4.5,18h2.5v2.5c0,.18.1.35.25.44.08.04.16.06.25.06s.18-.02.26-.07l4.88-2.93h6.86c.83,0,1.5-.67,1.5-1.5V5.5c0-.83-.67-1.5-1.5-1.5H4.5c-.83,0-1.5.67-1.5,1.5v11c0,.83.67,1.5,1.5,1.5Zm11.5-8c.55,0,1,.45,1,1s-.45,1-1,1-1-.45-1-1,.45-1,1-1Zm-4,0c.55,0,1,.45,1,1s-.45,1-1,1-1-.45-1-1,.45-1,1-1Zm-4,0c.55,0,1,.45,1,1s-.45,1-1,1-1-.45-1-1,.45-1,1-1Z"/></g><path d="M16 10A1 1 0 1 0 16 12 1 1 0 1 0 16 10z"/><path d="M8 10A1 1 0 1 0 8 12 1 1 0 1 0 8 10z"/><path d="M12 10A1 1 0 1 0 12 12 1 1 0 1 0 12 10z"/></svg>