<svg xmlns="http://www.w3.org/2000/svg" width="24" height="24" viewBox="0 0 24 24"><g opacity="0.4"><path d="m20.5,10H3.5c-.28,0-.5.22-.5.5v2c0,.28.22.5.5.5h17c.28,0,.5-.22.5-.5v-2c0-.28-.22-.5-.5-.5Z"/></g><path d="m7,21h10c.22,0,.42-.15.48-.36l2.18-7.64H4.34l2.18,7.64c.06.21.26.36.48.36Z"/><path d="m11.5,7.67v2.33h1v-2.34c.81-.05,2.1-.25,3.03-1.07,1.46-1.28,1.47-3.57,1.47-3.57,0,0-2.35-.21-3.81,1.07-.79.69-1.15,1.67-1.32,2.43-.12-.57-.36-1.24-.87-1.74-1.1-1.06-3-.94-3-.94,0,0-.12,1.85.97,2.91.76.74,1.89.9,2.52.94Z"/></svg>