<svg xmlns="http://www.w3.org/2000/svg" width="24" height="24" viewBox="0 0 24 24"><g opacity="0.4"><path d="m11.5,4h-7c-.83,0-1.5.67-1.5,1.5v13c0,.83.67,1.5,1.5,1.5h7c.83,0,1.5-.67,1.5-1.5V5.5c0-.83-.67-1.5-1.5-1.5Zm.5,5H4v-3.5c0-.28.22-.5.5-.5h7c.28,0,.5.22.5.5v3.5Z"/></g><path d="m16.45,4.12l-.65.76,3.33,2.85c.55.48.87,1.17.87,1.9v7.87c0,.83-.67,1.5-1.5,1.5s-1.5-.67-1.5-1.5v-3c0-1.38-1.12-2.5-2.5-2.5h-1.5v1h1.5c.83,0,1.5.67,1.5,1.5v3c0,1.38,1.12,2.5,2.5,2.5s2.5-1.12,2.5-2.5v-7.87c0-1.02-.45-1.99-1.22-2.66l-3.33-2.85Z"/><path d="m12,5.5c0-.28-.22-.5-.5-.5h-7c-.28,0-.5.22-.5.5v3.5h8v-3.5Z"/></svg>