<svg xmlns="http://www.w3.org/2000/svg" width="24" height="24" viewBox="0 0 24 24"><g opacity="0.4"><path d="m12,3C7.04,3,3,7.04,3,12c0,3.89,2.49,7.2,5.95,8.46l-.09-1.1c-2.85-1.22-4.86-4.06-4.86-7.35,0-4.41,3.59-8,8-8s8,3.59,8,8c0,3.3-2,6.13-4.86,7.35l-.09,1.1c3.46-1.25,5.95-4.57,5.95-8.46,0-4.96-4.04-9-9-9Z"/><path d="m12,7.5c2.48,0,4.5,2.02,4.5,4.5,0,1.05-.37,2-.97,2.76l-.03.41-.1,1.15c1.28-1.01,2.1-2.57,2.1-4.32,0-3.03-2.47-5.5-5.5-5.5s-5.5,2.47-5.5,5.5c0,1.75.82,3.31,2.1,4.32l-.1-1.15-.03-.41c-.6-.76-.97-1.72-.97-2.76,0-2.48,2.02-4.5,4.5-4.5Z"/></g><path d="M12 10A2 2 0 1 0 12 14 2 2 0 1 0 12 10z"/><path d="M11 21 13 21 13.5 15 10.5 15 11 21z"/></svg>