<svg xmlns="http://www.w3.org/2000/svg" width="24" height="24" viewBox="0 0 24 24"><g opacity="0.4"><path d="m16.14,13.9c-.21-.14-.48-.1-.64.08l-2.01,2.18c-.65-.36-2.13-1.25-3.26-2.38s-2.02-2.61-2.38-3.26l2.18-2.02c.18-.17.21-.44.08-.64l-3.09-4.64c-.07-.11-.19-.19-.32-.21-.13-.02-.27,0-.38.08l-3.08,2.14c-.13.09-.21.23-.21.39-.01.26-.23,6.36,4.39,10.99,4.14,4.14,9.45,4.4,10.71,4.4.15,0,.24,0,.27,0,.16,0,.3-.09.39-.21l2.14-3.08c.08-.11.11-.25.08-.38s-.1-.25-.21-.32l-4.64-3.09Z"/></g><path d="m15,3c-1.6,0-3.11.62-4.24,1.76l.71.71c.94-.94,2.2-1.46,3.54-1.46s2.59.52,3.54,1.46,1.46,2.2,1.46,3.54-.52,2.59-1.46,3.54l.71.71c1.13-1.13,1.76-2.64,1.76-4.24s-.62-3.11-1.76-4.24c-1.13-1.13-2.64-1.76-4.24-1.76Z"/><path d="m17.12,11.12c1.17-1.17,1.17-3.07,0-4.24s-3.07-1.17-4.24,0l.71.71c.78-.78,2.05-.78,2.83,0s.78,2.05,0,2.83l.71.71Z"/></svg>