<svg xmlns="http://www.w3.org/2000/svg" width="24" height="24" viewBox="0 0 24 24"><g opacity="0.4"><path d="m16.14,13.9c-.21-.14-.48-.1-.64.08l-2.01,2.18c-.65-.36-2.13-1.25-3.26-2.38s-2.02-2.61-2.38-3.26l2.18-2.02c.18-.17.21-.44.08-.64l-3.09-4.64c-.07-.11-.19-.19-.32-.21-.13-.03-.27,0-.38.08l-3.08,2.14c-.13.09-.21.23-.21.39-.01.26-.23,6.36,4.39,10.99,4.14,4.14,9.45,4.4,10.71,4.4.15,0,.24,0,.27,0,.16,0,.3-.09.39-.21l2.14-3.08c.08-.11.11-.25.08-.38s-.1-.25-.21-.32l-4.64-3.09Z"/></g><path d="M18 5.5 13 5.5 13 6.5 18 6.5 18 9 21 6 18 3 18 5.5z"/></svg>