<svg xmlns="http://www.w3.org/2000/svg" width="24" height="24" viewBox="0 0 24 24"><g opacity="0.4"><path d="m14.15,6.85l-.35-.35L4.65,15.65c-.06.06-.11.14-.13.23l-1,4c-.04.17,0,.35.13.47.09.09.22.15.35.15.04,0,.08,0,.12-.02l4-1c.09-.02.17-.07.23-.13l9.15-9.15-3.35-3.35Z"/><path d="m20.65,4.94l-1.59-1.59c-.58-.58-1.54-.58-2.12,0l-2.44,2.44.35.35,3.35,3.35,2.44-2.44c.58-.58.58-1.54,0-2.12Z"/></g><path d="m17.47,8.76l-2.62-2.62-.35-.35-1.15-1.15-.5-.5c-.2-.2-.51-.2-.71,0l-6,6,.71.71,5.65-5.65.15.15,1.15,1.15.35.35,2.38,2.38.97.97.71-.71-.74-.74Z"/></svg>