<svg xmlns="http://www.w3.org/2000/svg" width="24" height="24" viewBox="0 0 24 24"><g opacity="0.4"><path d="m7.5,20h2.5c.13,0,.26-.05.35-.15l7.9-7.9-3.21-3.21-7.9,7.9c-.09.09-.15.22-.15.35v2.5c0,.28.22.5.5.5Z"/><path d="m18.35,6.15c-.2-.2-.51-.2-.71,0l-1.9,1.9,3.21,3.21,1.9-1.9c.2-.2.2-.51,0-.71l-2.5-2.5Z"/></g><path class="st0" d="M11.8,7.2L9.1,5.8L7.8,3.2c-0.1-0.2-0.5-0.2-0.6,0L5.9,5.8L3.2,7.2C3.1,7.2,3,7.4,3,7.5c0,0.1,0.1,0.2,0.2,0.3
	L5.9,9l1.3,2.8C7.3,11.9,7.4,12,7.5,12l0,0c0.1,0,0.3-0.1,0.3-0.2L9,9.1l2.8-1.3C11.9,7.8,12,7.6,12,7.5S11.9,7.3,11.8,7.2L11.8,7.2
	z"/><path class="st0" d="M20.9,18.3l-1.5-0.7l-0.7-1.5c-0.1-0.1-0.3-0.1-0.3,0l-0.7,1.5l-1.5,0.7c-0.1,0-0.1,0.1-0.1,0.2
	c0,0.1,0,0.1,0.1,0.2l1.5,0.7l0.7,1.5c0,0.1,0.1,0.1,0.2,0.1l0,0c0.1,0,0.1,0,0.2-0.1l0.7-1.5l1.5-0.7c0.1,0,0.1-0.1,0.1-0.2
	S21,18.4,20.9,18.3L20.9,18.3z"/><path class="st0" d="M15 8.7 15.4 8.4 15.8 8 17.4 9.6 19 11.3 18.6 11.6 18.3 12 16.6 10.4z"/></svg>