<svg xmlns="http://www.w3.org/2000/svg" width="24" height="24" viewBox="0 0 24 24"><g opacity="0.4"><path d="m7,19c1.38,0,2.5-1.12,2.5-2.5,0-.44-.12-.88-.34-1.25-.46-.78-1.26-1.25-2.16-1.25s-1.71.47-2.16,1.25c-.22.38-.34.81-.34,1.25,0,1.38,1.12,2.5,2.5,2.5Z"/><path d="m17,14c-.9,0-1.71.47-2.16,1.25-.22.38-.34.81-.34,1.25,0,1.38,1.12,2.5,2.5,2.5s2.5-1.12,2.5-2.5c0-.44-.12-.88-.34-1.25-.46-.78-1.26-1.25-2.16-1.25Z"/><path d="m16.89,6.21c-.09-.13-.25-.21-.41-.21h-2.48v4h5.54l-2.65-3.79Z"/></g><path d="m17.71,5.64c-.28-.4-.74-.64-1.23-.64h-2.98c-.28,0-.5.22-.5.5v4.5H3.5c-.28,0-.5.22-.5.5v4c0,.83.67,1.5,1.5,1.5h.07c.05-.26.14-.52.27-.75.46-.78,1.26-1.25,2.16-1.25s1.71.47,2.16,1.25c.14.23.22.49.27.75h5.13c.05-.26.14-.52.27-.75.46-.78,1.26-1.25,2.16-1.25s1.71.47,2.16,1.25c.14.23.22.49.27.75h.07c.83,0,1.5-.67,1.5-1.5v-3.68c0-.31-.09-.61-.27-.86l-3.02-4.32Zm-3.71,4.36v-4h2.48c.16,0,.32.08.41.21l2.65,3.79h-5.54Z"/></svg>