<svg xmlns="http://www.w3.org/2000/svg" width="24" height="24" viewBox="0 0 24 24"><g opacity="0.4"><path d="m7.15,16.65c-.09.09-.15.22-.15.35v2.5c0,.28.22.5.5.5h2.5c.13,0,.26-.05.35-.15l7.9-7.9-3.21-3.21-7.9,7.9Z"/><path d="m18.35,6.15c-.2-.2-.51-.2-.71,0l-1.9,1.9,3.21,3.21,1.9-1.9c.2-.2.2-.51,0-.71l-2.5-2.5Z"/></g><path class="st0" d="M15 8.7 15.4 8.4 15.8 8 17.4 9.6 19 11.3 18.6 11.6 18.3 12 16.6 10.4z"/><path class="st0" d="M4.1,15.2c0.1-1.8,2.2-3.4,4.1-4.9C10,9,11.5,7.8,11.5,6.5C11.5,3.1,3.9,3,3,3v1c1.9,0,7.5,0.5,7.5,2.5
	c0,0.8-1.5,1.9-2.9,3c-2.1,1.6-4.5,3.4-4.5,5.7c0,1.3,0.7,2.5,2.1,3.7l0.7-0.8C4.6,17.1,4,16.1,4.1,15.2L4.1,15.2z"/></svg>