<svg xmlns="http://www.w3.org/2000/svg" width="24" height="24" viewBox="0 0 24 24"><g opacity="0.4"><path d="m14.24,8.55l-5.08,1.39c-.36.1-.63.39-.71.75l-1.99,8.97.34.34,4.85-4.85h.01c-.1-.19-.16-.41-.16-.65,0-.83.67-1.5,1.5-1.5s1.5.67,1.5,1.5-.67,1.5-1.5,1.5c-.24,0-.46-.06-.66-.16h.01s-4.85,4.87-4.85,4.87l.34.34,8.97-1.99c.36-.08.65-.36.75-.71l1.39-5.08,1.51-1.51-4.71-4.71-1.51,1.51Z"/></g><path d="M6.5 8.5 6.5 6 9 6 9 5 6.5 5 6.5 2.5 5.5 2.5 5.5 5 3 5 3 6 5.5 6 5.5 8.5 6.5 8.5z"/><path d="m20.35,7.15l-1.65-1.65c-.39-.39-1.02-.39-1.41,0l-.42.42-1.12,1.12,2.35,2.35,2.35,2.35,1.12-1.12.42-.42c.39-.39.39-1.02,0-1.41l-1.65-1.65Z"/><path d="m11.65,15.15l-4.85,4.85.71.71,4.85-4.85h-.01c.2.09.42.15.66.15.83,0,1.5-.67,1.5-1.5s-.67-1.5-1.5-1.5-1.5.67-1.5,1.5c0,.24.06.46.16.66h-.01Z"/></svg>