<svg xmlns="http://www.w3.org/2000/svg" width="24" height="24" viewBox="0 0 24 24"><g opacity="0.4"><path d="M10 7A1 1 0 1 0 10 9 1 1 0 1 0 10 7z"/><path d="m13.89,12c.35,0,.7.09,1,.24,2.05-1.04,3.52-3.04,3.8-5.41-.3-.27-.61-.52-.95-.74-.05,3.18-2.58,5.76-5.75,5.89h0s1.89.01,1.89.01Z"/><path d="m12,11.99c-.08,0-.17.01-.25.01.08,0,.17,0,.25-.01h0Z"/><path d="m15.99,13.91c.02.37-.06.72-.22,1.02,2.26-.06,4.1-.83,5.18-2.08.03-.28.06-.57.06-.86,0-.39-.04-.77-.11-1.15-.45,1.75-2.33,2.93-4.91,3.06Z"/><path d="m5,5c-.58-.16-1-.69-1-1.32v-.62h-1v.62c0,1.18.87,2.16,2,2.34v-1.02Z"/></g><path d="m15.97,13.66c.01.08,0,.17.01.25,2.58-.14,4.46-1.32,4.91-3.06-.26-1.58-1.06-2.98-2.2-4.02-.28,2.37-1.75,4.38-3.8,5.41.55.28.97.79,1.08,1.42Z"/><path d="m15.77,14.93c-.34.63-1,1.07-1.77,1.07h-4c0-1.1-.9-2-2-2h-3c0,2,2,3.5,2,3.5,0,0-2,1.5-2,3.5h3c1.1,0,2-.9,2-2h4c3.57,0,6.52-2.68,6.94-6.14-1.08,1.25-2.91,2.02-5.18,2.08Z"/><path d="m16.92,5.64s-.02,0-.03-.01c-.29-.13-.59-.24-.89-.34-.01,0-.03,0-.04-.01-.27-.08-.54-.14-.82-.18-.07-.01-.14-.02-.21-.03-.3-.04-.61-.07-.92-.07H5v1c0,3.31,2.69,6,6,6h.75c3.28,0,5.94-2.64,6-5.91,0,0,0,0,0,0-.26-.17-.54-.32-.83-.45Zm-6.92,3.36c-.55,0-1-.45-1-1s.45-1,1-1,1,.45,1,1-.45,1-1,1Z"/></svg>