<svg xmlns="http://www.w3.org/2000/svg" width="24" height="24" viewBox="0 0 24 24"><g opacity="0.4"><path d="m6.81,6.04l-3.79,14.33c-.05.17,0,.36.13.48.09.1.22.15.35.15.04,0,.09,0,.13-.02l14.33-3.79c-.4-5.98-5.17-10.75-11.15-11.15Zm.69,11.96c-.83,0-1.5-.67-1.5-1.5s.67-1.5,1.5-1.5,1.5.67,1.5,1.5-.67,1.5-1.5,1.5Zm1-6c-.83,0-1.5-.67-1.5-1.5s.67-1.5,1.5-1.5,1.5.67,1.5,1.5-.67,1.5-1.5,1.5Zm4.5,4c-1.1,0-2-.9-2-2s.9-2,2-2,2,.9,2,2-.9,2-2,2Z"/></g><path d="m8,3c-.23,0-.43.15-.48.37l-.71,2.67c.23.02.46.05.69.08,4.08.51,7.51,3.05,9.25,6.59,0,0,0,0,0,0,0,0,0,0,0,0,.57,1.17.96,2.44,1.13,3.79.03.23.06.46.08.69l2.67-.71c.22-.06.37-.26.37-.48,0-7.17-5.83-13-13-13Z"/><path d="M13 12A2 2 0 1 0 13 16 2 2 0 1 0 13 12z"/><path d="M8.5 9A1.5 1.5 0 1 0 8.5 12 1.5 1.5 0 1 0 8.5 9z"/><path d="M7.5 15A1.5 1.5 0 1 0 7.5 18 1.5 1.5 0 1 0 7.5 15z"/></svg>