<svg xmlns="http://www.w3.org/2000/svg" width="24" height="24" viewBox="0 0 24 24"><g opacity="0.4"><path d="m20.29,8.5c-.22-.53-.5-1.04-.83-1.53-.32-.47-.69-.92-1.1-1.33-.41-.41-.86-.78-1.33-1.1-.48-.33-1-.61-1.53-.83-.54-.23-1.11-.41-1.69-.52-1.19-.24-2.44-.24-3.63,0-.58.12-1.15.29-1.69.52-.53.22-1.04.5-1.53.83-.47.32-.92.69-1.33,1.1-.17.17-.32.35-.48.52l-2.16-2.16v5h5l-2.13-2.13c.15-.18.31-.36.48-.52.37-.37.76-.69,1.19-.98.43-.29.89-.54,1.36-.74.48-.21.99-.36,1.5-.47,1.05-.22,2.17-.22,3.22,0,.51.1,1.02.26,1.5.47.47.2.93.45,1.36.74.42.28.82.61,1.18.98.37.37.69.76.98,1.19.29.43.54.89.74,1.36.21.48.36.99.47,1.5.11.53.16,1.07.16,1.61s-.05,1.09-.16,1.61c-.1.51-.26,1.02-.47,1.5-.2.47-.45.93-.74,1.36-.28.42-.61.82-.98,1.18-.37.37-.76.69-1.19.98-.43.29-.89.54-1.36.74-.48.21-.99.36-1.5.47-1.05.22-2.17.22-3.22,0-.51-.1-1.02-.26-1.5-.47-.47-.2-.93-.45-1.36-.74-.42-.28-.82-.61-1.18-.98-.37-.37-.69-.76-.98-1.19-.29-.43-.54-.89-.74-1.36-.21-.48-.36-.99-.47-1.5-.11-.53-.16-1.07-.16-1.61h-1c0,.61.06,1.22.18,1.81.12.58.29,1.15.52,1.69.22.53.5,1.04.83,1.53.32.47.69.92,1.1,1.33.41.41.86.78,1.33,1.1.48.33,1,.61,1.53.83.54.23,1.11.41,1.69.52.59.12,1.2.18,1.81.18s1.22-.06,1.81-.18c.58-.12,1.15-.29,1.69-.52.53-.22,1.04-.5,1.53-.83.47-.32.92-.69,1.33-1.1.41-.41.78-.86,1.1-1.33.33-.48.61-1,.83-1.53.23-.54.41-1.11.52-1.69.12-.59.18-1.2.18-1.81s-.06-1.22-.18-1.81c-.12-.58-.29-1.15-.52-1.69Z"/></g><path d="m9.97,13.5c-.13.06-.28.09-.45.09-.19,0-.37-.04-.54-.12-.17-.08-.3-.19-.39-.32l-.71.71c.2.22.44.4.72.51s.6.18.94.18c.39,0,.72-.07,1.01-.21.29-.14.51-.34.67-.59s.24-.54.24-.87c0-.3-.06-.56-.18-.77s-.28-.38-.48-.5c-.17-.1-.37-.15-.57-.17l1.14-1.3v-.61h-3.19v.93h1.68l-.94,1.1v.61c.07-.02.15-.04.24-.05.1-.01.19-.02.28-.02.19,0,.36.03.49.09.14.06.24.15.31.26.07.11.11.24.11.4s-.04.29-.11.4c-.07.11-.17.2-.3.26Z"/><path d="m12.18,13.33c.18.38.44.68.76.9.32.21.68.32,1.08.32s.76-.11,1.07-.32c.31-.21.56-.51.75-.89.18-.38.28-.83.28-1.34s-.09-.96-.28-1.34c-.18-.38-.44-.68-.75-.89-.32-.21-.68-.32-1.08-.32s-.76.11-1.08.32c-.32.21-.57.51-.75.89-.18.38-.27.83-.27,1.33s.09.95.28,1.33Zm.95-2.2c.08-.23.19-.41.35-.53.15-.12.33-.17.53-.17s.39.06.54.18.27.29.35.53.12.52.12.87-.04.63-.12.86-.2.41-.35.53-.33.18-.53.18-.38-.06-.54-.18-.27-.3-.35-.53c-.08-.23-.12-.52-.12-.87s.04-.63.12-.87Z"/></svg>