<svg xmlns="http://www.w3.org/2000/svg" width="24" height="24" viewBox="0 0 24 24"><g opacity="0.4"><path d="m12,3C7.12,3,3,7.12,3,12s4.12,9,9,9,9-4.12,9-9S16.88,3,12,3Zm2.77,13h-1.2l-2-3h-1.57v3h-1v-7.5c0-.28.22-.5.5-.5h3c1.38,0,2.5,1.12,2.5,2.5,0,1.29-.99,2.35-2.25,2.47l2.02,3.03Z"/><path d="m12.5,9h-2.5v3h2.5c.83,0,1.5-.67,1.5-1.5s-.67-1.5-1.5-1.5Z"/></g><path d="m10,13h1.57l2,3h1.2l-2.02-3.03c1.26-.13,2.25-1.18,2.25-2.47,0-1.38-1.12-2.5-2.5-2.5h-3c-.28,0-.5.22-.5.5v7.5h1v-3Zm0-4h2.5c.83,0,1.5.67,1.5,1.5s-.67,1.5-1.5,1.5h-2.5v-3Z"/></svg>