<svg xmlns="http://www.w3.org/2000/svg" width="24" height="24" viewBox="0 0 24 24"><g opacity="0.4"><path d="m20,11v-2.5c0-.83-.67-1.5-1.5-1.5H5.5c-.83,0-1.5.67-1.5,1.5v2.5c-.55,0-1,.45-1,1v4c0,.55.45,1,1,1v2.5c0,.83.67,1.5,1.5,1.5h13c.83,0,1.5-.67,1.5-1.5v-2.5c.55,0,1-.45,1-1v-4c0-.55-.45-1-1-1Zm-13,1c0-1.1.67-2,1.5-2s1.5.9,1.5,2-.67,2-1.5,2-1.5-.9-1.5-2Zm9,5h-8v-1h8v1Zm-.5-3c-.83,0-1.5-.9-1.5-2s.67-2,1.5-2,1.5.9,1.5,2-.67,2-1.5,2Z"/></g><path d="M8.5 10A1.5 2 0 1 0 8.5 14 1.5 2 0 1 0 8.5 10z"/><path d="M15.5 10A1.5 2 0 1 0 15.5 14 1.5 2 0 1 0 15.5 10z"/><path d="M8 16H16V17H8z"/><path d="m11.5,5.91v1.09h1v-1.09c.58-.21,1-.76,1-1.41,0-.83-.67-1.5-1.5-1.5s-1.5.67-1.5,1.5c0,.65.42,1.2,1,1.41Z"/></svg>