<svg xmlns="http://www.w3.org/2000/svg" width="24" height="24" viewBox="0 0 24 24"><g opacity="0.4"><path d="m7,12.68c-1,.5-4,2.38-4,6.82,0,.28.22.5.5.5h3.5v-7.32Z"/><path d="m17,12.68v7.32h3.5c.28,0,.5-.22.5-.5,0-4.43-3-6.31-4-6.82Z"/><path d="m12,11c.83,0,1.5-.67,1.5-1.5s-.67-1.5-1.5-1.5c-.83,0-1.5.67-1.5,1.5s.67,1.5,1.5,1.5Z"/></g><path d="m12.66,3.42c-.38-.34-.95-.34-1.33,0l-3.16,2.81c-.75.66-1.17,1.62-1.17,2.62v11.15h10v-11.15c0-1-.43-1.95-1.17-2.62l-3.16-2.81Zm-.66,7.58c-.83,0-1.5-.67-1.5-1.5s.67-1.5,1.5-1.5c.83,0,1.5.67,1.5,1.5s-.67,1.5-1.5,1.5Z"/></svg>