<svg xmlns="http://www.w3.org/2000/svg" width="24" height="24" viewBox="0 0 24 24"><g opacity="0.4"><path d="m18.72,6.05c-.07-.03-.14-.05-.22-.05-.11,0-.22.04-.31.11l-7,5.5c-.12.09-.19.24-.19.39s.07.3.19.39l7,5.5c.15.12.35.14.53.06.17-.08.28-.26.28-.45V6.5c0-.19-.11-.37-.28-.45Z"/></g><path class="st0" d="M11.7,6.1C11.7,6,11.6,6,11.5,6c-0.1,0-0.2,0-0.3,0.1l-7,5.5C4.1,11.7,4,11.9,4,12s0.1,0.3,0.2,0.4l7,5.5
	c0.1,0.1,0.4,0.1,0.5,0.1c0.2-0.1,0.3-0.3,0.3-0.5V13l-0.8-0.6C11.1,12.3,11,12.2,11,12s0.1-0.3,0.2-0.4L12,11V6.5
	C12,6.3,11.9,6.1,11.7,6.1z"/></svg>