<svg xmlns="http://www.w3.org/2000/svg" width="24" height="24" viewBox="0 0 24 24"><g opacity="0.4"><path d="m9.5,3H3v1h6.5c.28,0,.5.22.5.5v1.88H3v1h7v2.38H3v1h7v2.5H3v1h7v2.38H3v1h7v1.88c0,.28-.22.5-.5.5H3v1h6.5c.83,0,1.5-.67,1.5-1.5V4.5c0-.83-.67-1.5-1.5-1.5Z"/><path d="m19.5,10h-5c-.83,0-1.5.67-1.5,1.5v8c0,.83.67,1.5,1.5,1.5h5c.83,0,1.5-.67,1.5-1.5v-8c0-.83-.67-1.5-1.5-1.5Zm-.5,8h-1v-5h1v5Z"/></g><path d="m19.5,10c.18,0,.34.04.5.09V3.5c0-.28-.22-.5-.5-.5h-2c-1.93,0-3.5,1.57-3.5,3.5v3.59c.16-.06.32-.09.5-.09h5Z"/><path d="M18 13H19V18H18z"/></svg>