<svg xmlns="http://www.w3.org/2000/svg" width="24" height="24" viewBox="0 0 24 24"><g opacity="0.4"><path d="m17.21,17c-.31-.35.66-2.26,1.31-3.52.51-.99,1.08-2.12,1.53-3.24.32-.8.61-1.79.03-2.27-.8-.67-2.32.25-5.41,2.2-1.54.97-3.28,2.08-4.76,2.75-.39.18-.68.29-.89.37.21-.32.51-.72.78-1.08,1.12-1.5,2.52-3.37,2.28-4.76-.08-.46-.33-.85-.74-1.12-.52-.35-1.13-.46-1.8-.32-3.04.63-6.79,6.42-6.95,6.67l.84.54c1.01-1.58,4.13-5.78,6.31-6.23.41-.08.75-.03,1.04.17.18.12.28.27.31.46.17.97-1.2,2.79-2.1,3.99-1.01,1.35-1.52,2.02-1.09,2.55.38.47,1.11.26,2.42-.34,1.54-.7,3.32-1.82,4.88-2.81,1.6-1.01,3.77-2.39,4.21-2.32,0,0,.09.25-.28,1.18-.43,1.07-.99,2.18-1.49,3.15-1.12,2.2-1.93,3.78-1.16,4.64.26.29.65.44,1.2.44.79,0,1.92-.3,3.51-.9l-.35-.94c-3.04,1.15-3.54.81-3.61.73Z"/></g></svg>