<svg xmlns="http://www.w3.org/2000/svg" width="24" height="24" viewBox="0 0 24 24"><g opacity="0.4"><path d="m11.75,6.54l2.6,2.6-.71.71-2.6-2.6-1.79,1.79,2.6,2.6-.71.71-2.6-2.6-1.79,1.79,2.6,2.6-.71.71-2.6-2.6-.9.9c-.09.09-.15.22-.15.35v5c0,.28.22.5.5.5h5c.13,0,.26-.05.35-.15l8.65-8.65-5.71-5.71-2.04,2.04Z"/></g><path d="M13.65 9.85 14 9.5 14.35 9.15 13.05 7.84 11.75 6.54 11.4 6.9 11.04 7.25 12.34 8.55 13.65 9.85z"/><path d="M11.15 12.35 11.5 12 11.85 11.65 10.55 10.34 9.25 9.04 8.9 9.4 8.54 9.75 9.84 11.05 11.15 12.35z"/><path d="M8.65 14.85 9 14.5 9.35 14.15 8.05 12.84 6.75 11.54 6.4 11.9 6.04 12.25 7.34 13.55 8.65 14.85z"/><path d="M20.65 7.35 21.35 6.65 17.35 2.65 16.65 3.35 18.29 5 17 6.29 13.35 2.65 12.65 3.35 20.65 11.35 21.35 10.65 17.71 7 19 5.71 20.65 7.35z"/><path d="m5.5,19c-.28,0-.5-.22-.5-.5v-.21l-2.35,2.35.71.71,2.35-2.35h-.21Z"/></svg>