<svg xmlns="http://www.w3.org/2000/svg" width="24" height="24" viewBox="0 0 24 24"><g opacity="0.4"><path d="m18.68,10.03l-1.68-.65v-3.89c0-.28-.22-.5-.5-.5h-4v-2h-1v2h-4c-.28,0-.5.22-.5.5v3.89l-1.68.65c-.26.1-.39.39-.29.65l1.64,4.25c.33-.07.59-.18.88-.33.54-.27,1.21-.61,2.45-.61s1.91.34,2.45.61c.46.23.79.39,1.55.39s1.1-.17,1.55-.39c.49-.24,1.11-.53,2.14-.58l1.29-3.34c.1-.26-.03-.55-.29-.65Zm-6.5-2.5c-.12-.04-.24-.04-.36,0l-3.82,1.47v-3h8v3l-3.82-1.47Z"/></g><path d="m18,16c-1.12,0-1.71.29-2.23.55-.48.24-.9.45-1.78.45s-1.3-.21-1.78-.45c-.52-.26-1.11-.55-2.22-.55s-1.7.29-2.22.55c-.48.24-.89.45-1.78.45s-1.29-.21-1.77-.45c-.52-.26-1.1-.55-2.22-.55v1c.88,0,1.29.21,1.77.45.52.26,1.1.55,2.22.55s1.71-.29,2.22-.55c.48-.24.89-.45,1.77-.45s1.3.21,1.78.45c.52.26,1.11.55,2.22.55s1.71-.29,2.23-.55c.48-.24.9-.45,1.78-.45s1.3.21,1.78.45c.52.26,1.11.55,2.23.55v-1c-.88,0-1.3-.21-1.78-.45-.52-.26-1.11-.55-2.23-.55Z"/><path d="m18,19c-1.12,0-1.71.29-2.23.55-.48.24-.9.45-1.78.45s-1.3-.21-1.78-.45c-.52-.26-1.11-.55-2.22-.55s-1.7.29-2.22.55c-.48.24-.89.45-1.78.45s-1.29-.21-1.77-.45c-.52-.26-1.1-.55-2.22-.55v1c.88,0,1.29.21,1.77.45.52.26,1.1.55,2.22.55s1.71-.29,2.22-.55c.48-.24.89-.45,1.77-.45s1.3.21,1.78.45c.52.26,1.11.55,2.22.55s1.71-.29,2.23-.55c.48-.24.9-.45,1.78-.45s1.3.21,1.78.45c.52.26,1.11.55,2.23.55v-1c-.88,0-1.3-.21-1.78-.45-.52-.26-1.11-.55-2.23-.55Z"/><path d="m12.18,7.53l3.82,1.47v-3h-8v3l3.82-1.47c.12-.04.24-.04.36,0Z"/></svg>