<svg xmlns="http://www.w3.org/2000/svg" width="24" height="24" viewBox="0 0 24 24"><g opacity="0.4"><path d="M8.15 3.15 6 5.29 3.85 3.15 3.15 3.85 5.29 6 3.15 8.15 3.85 8.85 6 6.71 8.15 8.85 8.85 8.15 6.71 6 8.85 3.85 8.15 3.15z"/><path d="M20.15 14.15 17.5 16.79 14.85 14.15 14.15 14.85 16.79 17.5 14.15 20.15 14.85 20.85 17.5 18.21 20.15 20.85 20.85 20.15 18.21 17.5 20.85 14.85 20.15 14.15z"/></g><path d="M19 3A2 2 0 1 0 19 7 2 2 0 1 0 19 3z"/><path d="m16.09,12l.41-4.5-4.5.41,1.66,1.66c-.52.46-1.11.57-1.77.7-.93.17-1.99.37-2.85,1.6-.86,1.23-.68,2.29-.53,3.22.14.85.27,1.59-.36,2.49s-1.36,1.03-2.21,1.19c-.93.17-1.99.37-2.85,1.6l.82.57c.63-.89,1.36-1.03,2.21-1.19.93-.17,1.99-.37,2.85-1.6.86-1.23.68-2.29.53-3.22-.14-.85-.27-1.59.36-2.49.63-.9,1.36-1.03,2.21-1.19.74-.14,1.56-.3,2.3-.97l1.73,1.73Z"/></svg>