<svg xmlns="http://www.w3.org/2000/svg" width="24" height="24" viewBox="0 0 24 24"><g opacity="0.4"><path d="m6,5.5c0-.17.02-.34.05-.5h-3.05v1h3.05c-.03-.16-.05-.33-.05-.5Z"/><path d="m3,18v1h3.05c-.03-.16-.05-.33-.05-.5s.02-.34.05-.5h-3.05Z"/><path d="M3 11.5H14V12.5H3z"/><path d="M11 5H21V6H11z"/><path d="M11 18H21V19H11z"/><path d="m19,12c0,.17-.02.34-.05.5h2.05v-1h-2.05c.03.16.05.33.05.5Z"/></g><path d="M8.5 3A2.5 2.5 0 1 0 8.5 8 2.5 2.5 0 1 0 8.5 3z"/><path d="M8.5 16A2.5 2.5 0 1 0 8.5 21 2.5 2.5 0 1 0 8.5 16z"/><path d="M16.5 9.5A2.5 2.5 0 1 0 16.5 14.5 2.5 2.5 0 1 0 16.5 9.5z"/></svg>