<svg xmlns="http://www.w3.org/2000/svg" width="24" height="24" viewBox="0 0 24 24"><g opacity="0.4"><path d="m6,20h4v-5h4v5h4V5H6v15Zm7-13h2v2h-2v-2Zm0,4h2v2h-2v-2Zm-4-4h2v2h-2v-2Zm0,4h2v2h-2v-2Z"/></g><path d="M10 15H14V20H10z"/><path d="M9 7H11V9H9z"/><path d="M9 11H11V13H9z"/><path d="M13 7H15V9H13z"/><path d="M13 11H15V13H13z"/><path d="M5 4H19V5H5z"/><path d="m6,10h-3.5c-.28,0-.5.22-.5.5v9c0,.28.22.5.5.5h3.5v-10Z"/><path d="m21.5,10h-3.5v10h3.5c.28,0,.5-.22.5-.5v-9c0-.28-.22-.5-.5-.5Z"/></svg>