<svg xmlns="http://www.w3.org/2000/svg" width="24" height="24" viewBox="0 0 24 24"><g opacity="0.4"><path d="m4,5.5v3.5h1v-3.5c0-.28.22-.5.5-.5h3.5v-1h-3.5c-.83,0-1.5.67-1.5,1.5Z"/><path d="m5,18.5v-3.5h-1v3.5c0,.83.67,1.5,1.5,1.5h3.5v-1h-3.5c-.28,0-.5-.22-.5-.5Z"/><path d="m19,18.5c0,.28-.22.5-.5.5h-3.5v1h3.5c.83,0,1.5-.67,1.5-1.5v-3.5h-1v3.5Z"/><path d="m18.5,4h-3.5v1h3.5c.28,0,.5.22.5.5v3.5h1v-3.5c0-.83-.67-1.5-1.5-1.5Z"/></g><path d="m12.22,6.55c-.14-.07-.31-.07-.45,0l-4.28,2.14,4.5,2.25,4.5-2.25-4.28-2.14Z"/><path d="m7,14.75c0,.19.11.36.28.45l4.22,2.11v-5.5l-4.5-2.25v5.19Z"/><path d="m17,14.75v-5.19l-4.5,2.25v5.5l4.22-2.11c.17-.08.28-.26.28-.45Z"/></svg>