<svg xmlns="http://www.w3.org/2000/svg" width="24" height="24" viewBox="0 0 24 24"><g opacity="0.4"><path d="m17,8H7l-3.86,7.54c-.09.17-.07.37.04.52.5.7,2.06,2.67,4.53,3.9l1.81-9.05.98.2-1.86,9.28c1,.38,2.13.63,3.37.63s2.36-.24,3.37-.63l-1.86-9.28.98-.2,1.81,9.05c2.46-1.23,4.03-3.21,4.53-3.9.11-.15.12-.35.04-.52l-3.86-7.54Z"/></g><path d="m17,3.5c0-.28-.22-.5-.5-.5H7.5c-.28,0-.5.22-.5.5v4.5h10V3.5Z"/><path d="m8.63,20.37l1.86-9.28-.98-.2-1.81,9.05c.3.15.61.29.94.42Z"/><path d="m15.37,20.37c.33-.12.64-.27.94-.42l-1.81-9.05-.98.2,1.86,9.28Z"/></svg>