<svg xmlns="http://www.w3.org/2000/svg" width="24" height="24" viewBox="0 0 24 24"><g opacity="0.4"><path d="M5 5H6V6H5z"/><path d="M8 5H9V6H8z"/><path d="M11 5H12V6H11z"/><path d="M11 17H12V18H11z"/><path d="M14 5H15V6H14z"/><path d="M17 5H18V6H17z"/><path d="M5 14H6V15H5z"/><path d="M5 17H6V18H5z"/><path d="M8 17H9V18H8z"/><path d="M5 8H6V9H5z"/><path d="M5 11H6V12H5z"/><path d="M17 8H18V9H17z"/><path d="M17 11H18V12H17z"/></g><path d="M18 14 17 14 17 17 14 17 14 18 17 18 17 21 18 21 18 18 21 18 21 17 18 17 18 14z"/></svg>