<svg xmlns="http://www.w3.org/2000/svg" width="24" height="24" viewBox="0 0 24 24"><g opacity="0.4"><path d="m5,21h1v-3.05c-.16.03-.33.05-.5.05s-.34-.02-.5-.05v3.05Z"/><path d="m18,21h1v-3.05c-.16.03-.33.05-.5.05s-.34-.02-.5-.05v3.05Z"/><path d="M11.5 10H12.5V21H11.5z"/><path d="M5 3H6V13H5z"/><path d="M18 3H19V13H18z"/><path d="m12.5,3h-1v2.05c.16-.03.33-.05.5-.05s.34.02.5.05v-2.05Z"/></g><path d="M5.5 13A2.5 2.5 0 1 0 5.5 18 2.5 2.5 0 1 0 5.5 13z"/><path d="M18.5 13A2.5 2.5 0 1 0 18.5 18 2.5 2.5 0 1 0 18.5 13z"/><path d="M12 5A2.5 2.5 0 1 0 12 10 2.5 2.5 0 1 0 12 5z"/></svg>