<svg xmlns="http://www.w3.org/2000/svg" width="24" height="24" viewBox="0 0 24 24"><g opacity="0.4"><path d="m12,3C7.04,3,3,7.04,3,12s4.04,9,9,9,9-4.04,9-9S16.96,3,12,3Zm4.78,9.34l-3.07,1.48-1.36,2.96c-.06.14-.2.22-.35.22h0c-.15,0-.28-.09-.35-.22l-1.48-3.08-2.95-1.36c-.13-.06-.22-.2-.22-.34,0-.15.08-.28.21-.35l2.96-1.48,1.48-2.97c.13-.26.56-.26.69,0l1.48,2.97,2.96,1.48c.13.07.21.2.21.35,0,.15-.09.28-.22.34Z"/></g><path d="m7.22,12.34l2.95,1.36,1.48,3.08c.06.13.2.22.35.22h0c.15,0,.28-.09.35-.22l1.36-2.96,3.07-1.48c.13-.06.22-.2.22-.34,0-.15-.08-.28-.21-.35l-2.96-1.48-1.48-2.97c-.13-.26-.56-.26-.69,0l-1.48,2.97-2.96,1.48c-.13.07-.21.2-.21.35,0,.15.09.28.22.34Z"/></svg>