<svg xmlns="http://www.w3.org/2000/svg" width="24" height="24" viewBox="0 0 24 24"><g opacity="0.4"><path d="m19.5,14H6.5c-.96,0-1.84.39-2.47,1.03l5.97-5.97v-4.55c0-.83-.67-1.5-1.5-1.5h-4c-.83,0-1.5.67-1.5,1.5v13c0,1.93,1.57,3.5,3.5,3.5h13c.83,0,1.5-.67,1.5-1.5v-4c0-.83-.67-1.5-1.5-1.5Zm-13,5c-.83,0-1.5-.67-1.5-1.5s.67-1.5,1.5-1.5,1.5.67,1.5,1.5-.67,1.5-1.5,1.5Z"/></g><path d="m14.95,14l5.2-5.2c.58-.58.58-1.54,0-2.12l-2.83-2.83c-.58-.58-1.54-.58-2.12,0L4.03,15.03c.63-.63,1.51-1.03,2.47-1.03h8.45Z"/><path d="M6.5 16A1.5 1.5 0 1 0 6.5 19 1.5 1.5 0 1 0 6.5 16z"/></svg>