<svg xmlns="http://www.w3.org/2000/svg" width="24" height="24" viewBox="0 0 24 24"><g opacity="0.4"><path d="m4.05,7c-.03.12-.05.24-.05.36v12.14c0,.83.67,1.5,1.5,1.5h13c.83,0,1.5-.67,1.5-1.5V7.36c0-.12-.02-.24-.05-.36H4.05Zm7.95,7.25c-2.21,0-4-1.79-4-4h1c0,1.65,1.35,3,3,3s3-1.35,3-3h1c0,2.21-1.79,4-4,4Z"/></g><path d="m12,13.25c-1.65,0-3-1.35-3-3h-1c0,2.21,1.79,4,4,4s4-1.79,4-4h-1c0,1.65-1.35,3-3,3Z"/><path d="m19.83,6.68l-1.47-2.86c-.26-.5-.77-.81-1.33-.81H6.97c-.56,0-1.08.31-1.33.81l-1.47,2.86c-.05.1-.09.21-.12.32h15.91c-.03-.11-.07-.22-.12-.32Z"/></svg>