<svg xmlns="http://www.w3.org/2000/svg" width="24" height="24" viewBox="0 0 24 24"><g opacity="0.4"><path d="M12 8A4 4 0 1 0 12 16 4 4 0 1 0 12 8z"/></g><path d="M11.5 3H12.5V7H11.5z"/><path d="M11.5 17H12.5V21H11.5z"/><path d="M17 11.5H21V12.5H17z"/><path d="M3 11.5H7V12.5H3z"/><path d="M15.89 8.82 17.3 7.4 18.72 5.99 18.36 5.64 18.01 5.28 16.6 6.7 15.18 8.11 15.54 8.46 15.89 8.82z"/><path d="M8.46 15.54 8.11 15.18 6.7 16.6 5.28 18.01 5.64 18.36 5.99 18.72 7.4 17.3 8.82 15.89 8.46 15.54z"/><path d="M15.89 15.18 15.54 15.54 15.18 15.89 16.6 17.3 18.01 18.72 18.36 18.36 18.72 18.01 17.3 16.6 15.89 15.18z"/><path d="M8.11 8.82 8.46 8.46 8.82 8.11 7.4 6.7 5.99 5.28 5.64 5.64 5.28 5.99 6.7 7.4 8.11 8.82z"/></svg>