<svg xmlns="http://www.w3.org/2000/svg" width="24" height="24" viewBox="0 0 24 24"><g opacity="0.4"><path d="m12.5,11.95v1c1.97-.25,3.5-1.92,3.5-3.95s-1.53-3.7-3.5-3.95v1c1.42.24,2.5,1.47,2.5,2.95s-1.08,2.71-2.5,2.95Z"/><path d="m8,9c0,2.03,1.53,3.7,3.5,3.95v-1c-1.42-.24-2.5-1.47-2.5-2.95s1.08-2.71,2.5-2.95v-1c-1.97.25-3.5,1.92-3.5,3.95Z"/><path d="m5,9c0-1.87.73-3.63,2.05-4.95l-.71-.71c-1.51,1.51-2.34,3.52-2.34,5.66s.83,4.15,2.34,5.66c1.16,1.16,2.62,1.92,4.21,2.21l.95-.63v-.26c-1.68-.12-3.25-.82-4.45-2.03-1.32-1.32-2.05-3.08-2.05-4.95Z"/><path d="m16.95,4.05c1.32,1.32,2.05,3.08,2.05,4.95s-.73,3.63-2.05,4.95c-1.2,1.2-2.77,1.91-4.45,2.03v.26l.95.63c1.58-.29,3.05-1.04,4.21-2.21,1.51-1.51,2.34-3.52,2.34-5.66s-.83-4.15-2.34-5.66l-.71.71Z"/></g><path d="M12.5 21 12.5 17.43 16.22 19.92 16.78 19.08 12.5 16.23 12.5 3 11.5 3 11.5 16.23 7.22 19.08 7.78 19.92 11.5 17.43 11.5 21 12.5 21z"/></svg>