<svg xmlns="http://www.w3.org/2000/svg" width="24" height="24" viewBox="0 0 24 24"><g opacity="0.4"><path d="m4,5.5v3.5h1v-3.5c0-.28.22-.5.5-.5h3.5v-1h-3.5c-.83,0-1.5.67-1.5,1.5Z"/><path d="m5,18.5v-3.5h-1v3.5c0,.83.67,1.5,1.5,1.5h3.5v-1h-3.5c-.28,0-.5-.22-.5-.5Z"/><path d="m19,18.5c0,.28-.22.5-.5.5h-3.5v1h3.5c.83,0,1.5-.67,1.5-1.5v-3.5h-1v3.5Z"/><path d="m18.5,4h-3.5v1h3.5c.28,0,.5.22.5.5v3.5h1v-3.5c0-.83-.67-1.5-1.5-1.5Z"/></g><path d="M7 7H9V17H7z"/><path d="M10 7H11V17H10z"/><path d="M12 7H15V17H12z"/><path d="M16 7H17V17H16z"/></svg>