<svg xmlns="http://www.w3.org/2000/svg" width="24" height="24" viewBox="0 0 24 24"><g opacity="0.4"><path d="m18,9.29v-2.79c0-.28-.22-.5-.5-.5h-2.79l-2.35-2.35c-.2-.2-.51-.2-.71,0l-2.35,2.35h-2.79c-.28,0-.5.22-.5.5v2.79l-2.35,2.35c-.2.2-.2.51,0,.71l2.35,2.35v2.79c0,.28.22.5.5.5h2.79l2.35,2.35c.1.1.23.15.35.15s.26-.05.35-.15l2.35-2.35h2.79c.28,0,.5-.22.5-.5v-2.79l2.35-2.35c.2-.2.2-.51,0-.71l-2.35-2.35Zm-7,5.41l-2.35-2.35.71-.71,1.65,1.65,3.65-3.65.71.71-4.35,4.35Z"/></g><path d="M11 13.29 9.35 11.65 8.65 12.35 11 14.71 15.35 10.35 14.65 9.65 11 13.29z"/></svg>