<svg xmlns="http://www.w3.org/2000/svg" width="24" height="24" viewBox="0 0 24 24"><g opacity="0.4"><path d="m12.8,9.9l-.6-.8,4.76-3.57c-.08-.09-.15-.17-.23-.26-2.85-2.85-7.28-3.04-9.89-.44-1.27,1.27-1.92,3-1.83,4.88.09,1.86.89,3.64,2.27,5.01s3.15,2.18,5.01,2.27c.11,0,.23,0,.34,0,1.75,0,3.35-.65,4.54-1.84,2.31-2.31,2.41-6.05.43-8.86l-4.79,3.59Z"/></g><path d="m13,20h-3v-3.5c-.34-.13-.68-.28-1-.46v3.96h-3v1h7v-1Z"/><path d="M20.2 3.1 16.2 6.1 12.2 9.1 12.5 9.5 12.8 9.9 16.8 6.9 20.8 3.9 20.5 3.5 20.2 3.1z"/></svg>