<svg xmlns="http://www.w3.org/2000/svg" width="24" height="24" viewBox="0 0 24 24"><g opacity="0.4"><path d="m16.81,16.49c1.35-1.43,2.19-3.36,2.19-5.49,0-4.41-3.59-8-8-8S3,6.59,3,11s3.59,8,8,8c2.12,0,4.05-.84,5.49-2.19l-.19.19,3.71,3.71.71-.71-3.71-3.71-.19.19Zm-6.95-2.84l-.71.71-3.35-3.35,3.35-3.35.71.71-2.65,2.65,2.65,2.65Zm3,.71l-.71-.71,2.65-2.65-2.65-2.65.71-.71,3.35,3.35-3.35,3.35Z"/></g><path d="M9.15 7.65 5.79 11 9.15 14.35 9.85 13.65 7.21 11 9.85 8.35 9.15 7.65z"/><path d="M12.15 8.35 14.79 11 12.15 13.65 12.85 14.35 16.21 11 12.85 7.65 12.15 8.35z"/></svg>