<svg xmlns="http://www.w3.org/2000/svg" width="24" height="24" viewBox="0 0 24 24"><g opacity="0.4"><path d="m8.25,21l.75-1h6l.75,1h2.25l-2-3h.5c.83,0,1.5-.67,1.5-1.5v-8c0-1.38-1.12-2.5-2.5-2.5h-7c-1.38,0-2.5,1.12-2.5,2.5v8c0,.83.67,1.5,1.5,1.5h.5l-2,3h2.25Zm.75-5c-.55,0-1-.45-1-1s.45-1,1-1,1,.45,1,1-.45,1-1,1Zm6,0c-.55,0-1-.45-1-1s.45-1,1-1,1,.45,1,1-.45,1-1,1Zm-8-5v-2.5c0-.83.67-1.5,1.5-1.5h7c.83,0,1.5.67,1.5,1.5v2.5H7Z"/></g><path d="m17,8.5c0-.83-.67-1.5-1.5-1.5h-7c-.83,0-1.5.67-1.5,1.5v2.5h10v-2.5Z"/><path d="M9 20 8.25 21 15.75 21 15 20 9 20z"/><path d="m15.5,3h-7c-3.03,0-5.5,2.47-5.5,5.5v12.5h3l2-3h-.5c-.83,0-1.5-.67-1.5-1.5v-8c0-1.38,1.12-2.5,2.5-2.5h7c1.38,0,2.5,1.12,2.5,2.5v8c0,.83-.67,1.5-1.5,1.5h-.5l2,3h3v-12.5c0-3.03-2.47-5.5-5.5-5.5Z"/></svg>