<svg xmlns="http://www.w3.org/2000/svg" width="24" height="24" viewBox="0 0 24 24"><g opacity="0.4"><path d="M9 4H15V9H9z"/><path d="m3.5,4h-.5v3.5c0,.83.67,1.5,1.5,1.5h3.5v-5H3.5Z"/><path d="m20,4h-4v5h3.5c.83,0,1.5-.67,1.5-1.5v-3.5h-1Z"/><path d="m3,16.5v3.5h5v-5h-3.5c-.83,0-1.5.67-1.5,1.5Z"/><path d="m19.5,15h-3.5v5h5v-3.5c0-.83-.67-1.5-1.5-1.5Z"/><path d="M9 15H15V20H9z"/></g><path d="M18 11.5H21V12.5H18z"/><path d="M13 11.5H16V12.5H13z"/><path d="M8 11.5H11V12.5H8z"/><path d="M3 11.5H6V12.5H3z"/><path d="M8 4H9V9H8z"/><path d="M15 4H16V9H15z"/><path d="M8 15H9V20H8z"/><path d="M15 15H16V20H15z"/></svg>