<svg xmlns="http://www.w3.org/2000/svg" width="24" height="24" viewBox="0 0 24 24"><g opacity="0.4"><path d="M3 9.75H8V14.25H3z"/><path d="m3,18.5c0,.83.67,1.5,1.5,1.5h3.5v-4.75H3v3.25Z"/><path d="M9 9.75H15V14.25H9z"/><path d="M9 4H15V8.75H9z"/><path d="m3,5.5v3.25h5v-4.75h-3.5c-.83,0-1.5.67-1.5,1.5Z"/><path d="m19.5,4h-3.5v4.75h5v-3.25c0-.83-.67-1.5-1.5-1.5Z"/><path d="M9 15.25H15V20H9z"/><path d="M16 9.75H21V14.25H16z"/><path d="m16,20h3.5c.83,0,1.5-.67,1.5-1.5v-3.25h-5v4.75Z"/></g><path d="m16,4h-1v4.75h-6v-4.75h-1v4.75H3v1h5v4.5H3v1h5v4.75h1v-4.75h6v4.75h1v-4.75h5v-1h-5v-4.5h5v-1h-5v-4.75Zm-1,10.25h-6v-4.5h6v4.5Z"/></svg>