<svg xmlns="http://www.w3.org/2000/svg" width="24" height="24" viewBox="0 0 24 24"><g opacity="0.4"><path d="m20.5,6H3.5c-.28,0-.5.22-.5.5v3c0,.28.22.5.5.5,1.1,0,2,.9,2,2s-.9,2-2,2c-.28,0-.5.22-.5.5v3c0,.28.22.5.5.5h17c.28,0,.5-.22.5-.5v-3c0-.28-.22-.5-.5-.5-1.1,0-2-.9-2-2s.9-2,2-2c.28,0,.5-.22.5-.5v-3c0-.28-.22-.5-.5-.5Zm-6.03,9.25l-2.47-1.65-2.47,1.65.82-2.68-1.85-1.85,2.38-.21,1.12-2.26,1.12,2.26,2.38.21-1.85,1.85.82,2.68Z"/></g><path d="M9.53 15.25 12 13.6 14.47 15.25 13.65 12.57 15.5 10.72 13.12 10.51 12 8.25 10.88 10.51 8.5 10.72 10.35 12.57 9.53 15.25z"/></svg>