<svg xmlns="http://www.w3.org/2000/svg" width="24" height="24" viewBox="0 0 24 24"><g opacity="0.4"><path d="M14 18H15V21H14z"/><path d="m18.9,14h1.1c.19,0,.36-.11.45-.28s.07-.37-.05-.52l-2.4-3.2h1c.19,0,.36-.11.45-.28s.07-.37-.05-.52l-4.5-6c-.19-.25-.61-.25-.8,0l-2.1,2.8,2.4,3.2c.11.15.13.35.05.52s-.26.28-.45.28h-1l2.4,3.2c.11.15.13.35.05.52s-.26.28-.45.28h-1.04l.05.17,1.91,3.06c.1.15.1.35.01.51s-.26.26-.44.26h5c.18,0,.35-.1.44-.26s.08-.35-.01-.51l-2.02-3.24Z"/></g><path d="m15.94,17.74c.09-.16.08-.35-.01-.51l-2.02-3.24h1.1c.19,0,.36-.11.45-.28s.07-.37-.05-.52l-2.4-3.2h1c.19,0,.36-.11.45-.28s.07-.37-.05-.52l-4.5-6c-.19-.25-.61-.25-.8,0l-4.5,6c-.11.15-.13.35-.05.52s.26.28.45.28h1l-2.4,3.2c-.11.15-.13.35-.05.52s.26.28.45.28h1.1l-2.02,3.24c-.1.15-.1.35-.01.51s.26.26.44.26h5.5v3h1v-3h5.5c.18,0,.35-.1.44-.26Z"/></svg>