<svg xmlns="http://www.w3.org/2000/svg" width="24" height="24" viewBox="0 0 24 24"><g opacity="0.4"><path d="m5,19.5c0,.83.67,1.5,1.5,1.5h11c.83,0,1.5-.67,1.5-1.5V7H5v12.5Zm3.65-8.65l.71-.71,2.65,2.65,2.65-2.65.71.71-2.65,2.65,2.65,2.65-.71.71-2.65-2.65-2.65,2.65-.71-.71,2.65-2.65-2.65-2.65Z"/></g><path d="m16.5,6v-1.5c0-.83-.67-1.5-1.5-1.5h-6c-.83,0-1.5.67-1.5,1.5v1.5H3v1h18v-1h-4.5Zm-1,0h-7v-1.5c0-.28.22-.5.5-.5h6c.28,0,.5.22.5.5v1.5Z"/><path d="M9.35 16.85 12 14.21 14.65 16.85 15.35 16.15 12.71 13.5 15.35 10.85 14.65 10.15 12 12.79 9.35 10.15 8.65 10.85 11.29 13.5 8.65 16.15 9.35 16.85z"/></svg>