<svg xmlns="http://www.w3.org/2000/svg" width="24" height="24" viewBox="0 0 24 24"><g opacity="0.4"><path d="m20,11.5c0,.83-.67,1.5-1.5,1.5H5.5c-.83,0-1.5-.67-1.5-1.5v-.5h-1v.5c0,.81.4,1.53,1,1.99,0,0,0,0,0,.01v7c0,.28.22.5.5.5h4.5v-5h6v5h4.5c.28,0,.5-.22.5-.5v-7s0,0,0-.01c.6-.46,1-1.17,1-1.99v-.5h-1v.5Z"/></g><path d="m18.13,13s-1.77-7.75-1.81-7.8c.42-.45.68-1.04.68-1.7v-.5h-1v.5c0,.83-.67,1.5-1.5,1.5h-.5v-2h-1v2h-2v-2h-1v2h-.5c-.83,0-1.5-.67-1.5-1.5v-.5h-1v.5c0,.66.26,1.25.68,1.7-.04.05-1.81,7.8-1.81,7.8h12.26Z"/><path d="M9 16H15V21H9z"/></svg>