<svg xmlns="http://www.w3.org/2000/svg" width="24" height="24" viewBox="0 0 24 24"><g opacity="0.4"><path d="m10.13,10.11c.07,1.15.61,2.19,1.53,2.92,1.48,1.17,3.67,1.12,5.1-.13.42-.38.76-.82,1-1.33.57-1.22,1.46-2.25,2.56-3.01-.44-1.06-1.09-2.06-1.95-2.92-.86-.86-1.85-1.5-2.91-1.94-.75,1.1-1.77,1.98-2.97,2.53-1.56.71-2.46,2.27-2.36,3.88Z"/><path d="m18.67,11.96c-.31.66-.73,1.22-1.26,1.69-1.78,1.56-4.52,1.64-6.38.17-1.13-.9-1.82-2.22-1.91-3.65-.12-2.02,1.1-4.01,2.91-4.84.97-.44,1.79-1.13,2.43-1.98-3.04-.86-6.45-.1-8.83,2.28-3.51,3.51-3.51,9.22,0,12.73,3.51,3.51,9.22,3.51,12.73,0,2.38-2.38,3.14-5.78,2.29-8.82-.85.64-1.54,1.46-1.98,2.41Z"/></g><path d="m12.04,5.33c-1.82.83-3.03,2.81-2.91,4.84.08,1.42.78,2.75,1.91,3.65,1.85,1.47,4.59,1.4,6.38-.17.53-.47.95-1.03,1.26-1.69.44-.95,1.13-1.77,1.97-2.4-.1-.34-.21-.67-.34-.99-1.1.76-1.98,1.79-2.55,3-.23.5-.57.95-1,1.33-1.42,1.25-3.62,1.31-5.1.13-.92-.73-1.46-1.77-1.53-2.92-.09-1.62.8-3.17,2.36-3.88,1.19-.55,2.2-1.42,2.95-2.51-.32-.13-.64-.26-.98-.36-.64.85-1.46,1.54-2.43,1.98Z"/></svg>