<svg xmlns="http://www.w3.org/2000/svg" width="24" height="24" viewBox="0 0 24 24"><g opacity="0.4"><path d="m3,19v1h4.5c.83,0,1.5-.67,1.5-1.5v-4.5H3v5Z"/><path d="M3 7H9V13H3z"/><path d="m15,18.5c0,.83.67,1.5,1.5,1.5h4.5v-6h-6v4.5Z"/><path d="M15 7H21V13H15z"/></g><path d="M11.5 3H12.5V6H11.5z"/><path d="M11.5 8H12.5V11H11.5z"/><path d="M11.5 13H12.5V16H11.5z"/><path d="M11.5 18H12.5V21H11.5z"/><path d="M15 13H21V14H15z"/><path d="M3 13H9V14H3z"/><path d="m15,5.5v1.5h6v-3h-4.5c-.83,0-1.5.67-1.5,1.5Z"/><path d="m7.5,4H3v3h6v-1.5c0-.83-.67-1.5-1.5-1.5Z"/></svg>