<svg xmlns="http://www.w3.org/2000/svg" width="24" height="24" viewBox="0 0 24 24"><g opacity="0.4"><path d="m19.5,6h-11.03c-.45,0-.88.2-1.16.55l-4.2,5.13c-.15.18-.15.45,0,.63l4.2,5.13c.29.35.71.55,1.16.55h11.03c.83,0,1.5-.67,1.5-1.5V7.5c0-.83-.67-1.5-1.5-1.5Zm-2.15,8.65l-.71.71-2.65-2.65-2.65,2.65-.71-.71,2.65-2.65-2.65-2.65.71-.71,2.65,2.65,2.65-2.65.71.71-2.65,2.65,2.65,2.65Z"/></g><path d="M11.35 15.35 14 12.71 16.65 15.35 17.35 14.65 14.71 12 17.35 9.35 16.65 8.65 14 11.29 11.35 8.65 10.65 9.35 13.29 12 10.65 14.65 11.35 15.35z"/></svg>