<svg xmlns="http://www.w3.org/2000/svg" width="24" height="24" viewBox="0 0 24 24"><g opacity="0.4"><path d="m12,3C7.04,3,3,7.04,3,12s4.04,9,9,9,9-4.04,9-9S16.96,3,12,3Zm-5.28,8.58l2.38-1.58-2.38-1.58.55-.83,3,2c.14.09.22.25.22.42s-.08.32-.22.42l-3,2-.55-.83Zm1.28,5.42s1-3,4-3,4,3,4,3h-8Zm9.28-5.42l-.55.83-3-2c-.14-.09-.22-.25-.22-.42s.08-.32.22-.42l3-2,.55.83-2.38,1.58,2.38,1.58Z"/></g><path d="m7.28,12.42l3-2c.14-.09.22-.25.22-.42s-.08-.32-.22-.42l-3-2-.55.83,2.38,1.58-2.38,1.58.55.83Z"/><path d="m16.72,7.58l-3,2c-.14.09-.22.25-.22.42s.08.32.22.42l3,2,.55-.83-2.38-1.58,2.38-1.58-.55-.83Z"/><path d="m8,17h8s-1-3-4-3-4,3-4,3Z"/></svg>