<svg xmlns="http://www.w3.org/2000/svg" width="24" height="24" viewBox="0 0 24 24"><g opacity="0.4"><path d="m12.26,3.07c-.16-.1-.36-.1-.51,0l-7.5,4.5c-.15.09-.24.25-.24.43v8c0,.18.09.34.24.43l2.73,1.64c.91-1.25,2.37-2.06,4.03-2.06h2c1.66,0,3.12.82,4.03,2.06l2.73-1.64c.15-.09.24-.25.24-.43v-8c0-.18-.09-.34-.24-.43l-7.5-4.5Zm-.26,10.93c-1.66,0-3-1.34-3-3s1.34-3,3-3,3,1.34,3,3-1.34,3-3,3Z"/></g><path d="m12,21c.09,0,.18-.02.26-.07l4.77-2.86c-.91-1.25-2.37-2.06-4.03-2.06h-2c-1.66,0-3.12.82-4.03,2.06l4.77,2.86c.08.05.17.07.26.07Z"/><path d="M12 8A3 3 0 1 0 12 14 3 3 0 1 0 12 8z"/></svg>