<svg xmlns="http://www.w3.org/2000/svg" width="24" height="24" viewBox="0 0 24 24"><g opacity="0.4"><path d="m9,9.5v-.37c-.86.38-1.64.9-2.3,1.57-.69.69-1.23,1.49-1.61,2.38-.39.93-.59,1.91-.59,2.92h1c0-.88.17-1.73.51-2.53.33-.77.8-1.47,1.39-2.07.6-.6,1.29-1.07,2.07-1.39v-.02c-.27-.02-.47-.23-.47-.49Z"/><path d="m17.3,10.7c-.67-.67-1.44-1.19-2.3-1.57v.37c0,.26-.2.47-.46.49v.02c.77.33,1.46.8,2.06,1.39.6.6,1.07,1.29,1.39,2.07.34.8.51,1.65.51,2.53h1c0-1.01-.2-1.99-.59-2.92-.38-.89-.92-1.69-1.61-2.38Z"/><path d="m15,6.5v1h2.07c-.04-.16-.07-.33-.07-.5s.03-.34.07-.5h-2.07Z"/><path d="m9,7.5v-1h-2.07c.04.16.07.33.07.5s-.03.34-.07.5h2.07Z"/></g><rect x="17" y="16" width="4" height="4" rx=".5" ry=".5"/><rect x="3" y="16" width="4" height="4" rx=".5" ry=".5"/><path d="m15,9.5v-5c0-.28-.22-.5-.5-.5h-5c-.28,0-.5.22-.5.5v5c0,.28.22.5.5.5h5c.28,0,.5-.22.5-.5Zm-1-.5h-4v-4h4v4Z"/><path d="M19 5A2 2 0 1 0 19 9 2 2 0 1 0 19 5z"/><path d="M5 5A2 2 0 1 0 5 9 2 2 0 1 0 5 5z"/></svg>