<svg xmlns="http://www.w3.org/2000/svg" width="24" height="24" viewBox="0 0 24 24"><g opacity="0.4"><path d="M4 6A1 1 0 1 0 4 8 1 1 0 1 0 4 6z"/><path d="M11 6A1 1 0 1 0 11 8 1 1 0 1 0 11 6z"/><path d="M8 3A1 1 0 1 0 8 5 1 1 0 1 0 8 3z"/><path d="M8 18A1 1 0 1 0 8 20 1 1 0 1 0 8 18z"/><path d="M20 12A1 1 0 1 0 20 14 1 1 0 1 0 20 12z"/><path d="M4 16A1 1 0 1 0 4 18 1 1 0 1 0 4 16z"/><path d="m14.5,13h-6.5v1h6.5c1.38,0,2.5,1.12,2.5,2.5s-1.12,2.5-2.5,2.5-2.5-1.12-2.5-2.5h-1c0,1.93,1.57,3.5,3.5,3.5s3.5-1.57,3.5-3.5-1.57-3.5-3.5-3.5Z"/></g><path d="m17.5,4c-1.93,0-3.5,1.57-3.5,3.5h1c0-1.38,1.12-2.5,2.5-2.5s2.5,1.12,2.5,2.5-1.12,2.5-2.5,2.5H3v1h14.5c1.93,0,3.5-1.57,3.5-3.5s-1.57-3.5-3.5-3.5Z"/><path d="M3 13H6V14H3z"/></svg>