<svg xmlns="http://www.w3.org/2000/svg" width="24" height="24" viewBox="0 0 24 24"><g opacity="0.4"><path d="m4,13h4.5c.19,0,.36.11.45.28l.86,1.72h4.38l.86-1.72c.08-.17.26-.28.45-.28h4.5v-2H4v2Z"/><path d="m18.5,4H5.5c-.83,0-1.5.67-1.5,1.5v1.5h16v-1.5c0-.83-.67-1.5-1.5-1.5Z"/><path d="M4 8H20V10H4z"/></g><path d="m15.05,13.28l-.86,1.72h-4.38l-.86-1.72c-.08-.17-.26-.28-.45-.28h-4.5v5.5c0,.83.67,1.5,1.5,1.5h13c.83,0,1.5-.67,1.5-1.5v-5.5h-4.5c-.19,0-.36.11-.45.28Z"/><path d="M4 7H20V8H4z"/><path d="M4 10H20V11H4z"/></svg>