<svg xmlns="http://www.w3.org/2000/svg" width="24" height="24" viewBox="0 0 24 24"><g opacity="0.4"><path d="m6.81,6.04l-3.79,14.33c-.05.17,0,.36.13.48.09.1.22.15.35.15.04,0,.09,0,.13-.02l14.33-3.79c-.4-5.98-5.17-10.75-11.15-11.15Zm.19,11.96c-.55,0-1-.45-1-1s.45-1,1-1,1,.45,1,1-.45,1-1,1Zm1-4c-.55,0-1-.45-1-1s.45-1,1-1,1,.45,1,1-.45,1-1,1Zm1-5c0-.55.45-1,1-1s1,.45,1,1-.45,1-1,1-1-.45-1-1Zm2,8c-.55,0-1-.45-1-1s.45-1,1-1,1,.45,1,1-.45,1-1,1Zm1.5-4c-.55,0-1-.45-1-1s.45-1,1-1,1,.45,1,1-.45,1-1,1Zm3.5,2c0,.55-.45,1-1,1s-1-.45-1-1,.45-1,1-1,1,.45,1,1Z"/></g><path d="m8,3c-.23,0-.43.15-.48.37l-.71,2.67c.23.02.46.05.69.08,4.08.51,7.51,3.05,9.25,6.59,0,0,0,0,0,0,0,0,0,0,0,0,.57,1.17.96,2.44,1.13,3.79.03.23.06.46.08.69l2.67-.71c.22-.06.37-.26.37-.48,0-7.17-5.83-13-13-13Z"/><path d="M12.5 11A1 1 0 1 0 12.5 13 1 1 0 1 0 12.5 11z"/><path d="M15 14A1 1 0 1 0 15 16 1 1 0 1 0 15 14z"/><path d="M11 15A1 1 0 1 0 11 17 1 1 0 1 0 11 15z"/><path d="M8 12A1 1 0 1 0 8 14 1 1 0 1 0 8 12z"/><path d="M10 8A1 1 0 1 0 10 10 1 1 0 1 0 10 8z"/><path d="M7 16A1 1 0 1 0 7 18 1 1 0 1 0 7 16z"/></svg>