<svg xmlns="http://www.w3.org/2000/svg" width="24" height="24" viewBox="0 0 24 24"><g opacity="0.4"><path d="m11.32,10.37c-.8-.67-1.26-1.64-1.3-2.67l-.16.16c-.09.09-.22.15-.35.15h-3c-.13,0-.26-.05-.35-.15l-.16-.16c-.04,1.04-.5,2.01-1.3,2.67-1.07.89-1.68,2.2-1.68,3.59v.55c2.6,0,3.91.53,5.19,1.04,1.24.5,2.41.96,4.81.96v-2.55c0-1.39-.61-2.7-1.68-3.59Z"/></g><path d="m14.5,3h-7.15c-.34,0-.67.12-.94.33l-1.35,1.08c-.33.27-.54.66-.56,1.09-.02.43.14.84.44,1.14l1.21,1.21c.09.09.22.15.35.15h3c.13,0,.26-.05.35-.15l1.78-1.78c.31,1.35,1.23,2.92,3.37,2.92v-1c-1.54,0-2.13-1.13-2.36-2h1.86c.28,0,.5-.22.5-.5v-2c0-.28-.22-.5-.5-.5Z"/><path d="m3,14.5v6c0,.28.22.5.5.5h9c.28,0,.5-.22.5-.5v-4c-2.4,0-3.57-.47-4.81-.96-1.27-.51-2.59-1.04-5.19-1.04Z"/><path d="M16 4H18V6H16z"/><path d="M19 4H21V6H19z"/><path d="M19 7H21V9H19z"/></svg>