<svg xmlns="http://www.w3.org/2000/svg" width="24" height="24" viewBox="0 0 24 24"><g opacity="0.4"><path class="st0" d="M12,3c-5,0-9,4-9,9s4,9,9,9s9-4,9-9S17,3,12,3z M17.9,14.1l-0.7,0.7L15,12.7L12.7,15l2.2,2.2l-0.7,0.7L12,15.7
	l-2.1,2.1l-0.7-0.7l2.2-2.1L9,12.7l-2.2,2.2l-0.7-0.7L8.3,12L6.1,9.9l0.7-0.7L9,11.3L11.3,9L9.1,6.9l0.7-0.7L12,8.3l2.1-2.2l0.7,0.7
	L12.7,9l2.3,2.3l2.2-2.1l0.7,0.7L15.7,12C15.7,12,17.9,14.2,17.9,14.1z"/><path class="st0" d="M9.7 12 10.9 10.9 12 9.7 13.1 10.9 14.3 12 13.1 13.1 12 14.3 10.9 13.1z"/></g><path d="m6.85,14.85l2.15-2.15,2.29,2.29-2.15,2.15.71.71,2.15-2.15,2.15,2.15.71-.71-2.15-2.15,2.29-2.29,2.15,2.15.71-.71-2.15-2.15,2.15-2.15-.71-.71-2.15,2.15-2.29-2.29,2.15-2.15-.71-.71-2.15,2.15-2.15-2.15-.71.71,2.15,2.15-2.29,2.29-2.15-2.15-.71.71,2.15,2.15-2.15,2.15.71.71Zm5.15-5.15l2.29,2.29-2.29,2.29-2.29-2.29,2.29-2.29Z"/></svg>