<svg xmlns="http://www.w3.org/2000/svg" width="24" height="24" viewBox="0 0 24 24"><g opacity="0.4"><path d="M17.56 14 18.6 14 19.51 11 18.47 11 17.56 14z"/><path d="M5.53 11 4.49 11 5.4 14 6.44 14 5.53 11z"/><path d="M18.77 10 19.81 10 20.98 6.14 20.02 5.86 18.77 10z"/><path d="M8.97 14 10.03 14 11.03 11 9.97 11 8.97 14z"/><path d="M13.94 11 12.89 11 13.84 14 14.89 14 13.94 11z"/><path d="m7.64,17.99l-.9-2.99h-1.04l1.1,3.64c.06.21.26.36.48.36h.72c.21,0,.41-.14.47-.34l1.22-3.66h-1.05l-1,2.99Z"/><path d="m16.35,18h-.21l-.94-3h-1.05l1.15,3.65c.07.21.26.35.48.35h.95c.22,0,.42-.14.48-.36l1.1-3.64h-1.04l-.91,3Z"/><path d="m12.48,6.35c-.06-.21-.26-.35-.47-.35-.18.01-.41.14-.48.34l-1.22,3.66h1.05l.63-1.88.59,1.88h1.05l-1.15-3.65Z"/><path d="M3.98 5.86 3.02 6.14 4.19 10 5.23 10 3.98 5.86z"/></g><path d="M2 10H22V11H2z"/><path d="M2 14H22V15H2z"/></svg>