<svg xmlns="http://www.w3.org/2000/svg" width="24" height="24" viewBox="0 0 24 24"><g opacity="0.4"><path d="m19.5,4H4.5c-.83,0-1.5.67-1.5,1.5v13c0,.83.67,1.5,1.5,1.5h15c.83,0,1.5-.67,1.5-1.5V5.5c0-.83-.67-1.5-1.5-1.5Zm-13.5,4c-.55,0-1-.45-1-1s.45-1,1-1,1,.45,1,1-.45,1-1,1Zm3,0c-.55,0-1-.45-1-1s.45-1,1-1,1,.45,1,1-.45,1-1,1Zm3,0c-.55,0-1-.45-1-1s.45-1,1-1,1,.45,1,1-.45,1-1,1Z"/></g><path d="M12 6A1 1 0 1 0 12 8 1 1 0 1 0 12 6z"/><path d="M6 6A1 1 0 1 0 6 8 1 1 0 1 0 6 6z"/><path d="M9 6A1 1 0 1 0 9 8 1 1 0 1 0 9 6z"/></svg>