<svg xmlns="http://www.w3.org/2000/svg" width="24" height="24" viewBox="0 0 24 24"><g opacity="0.4"><path d="m5.64,18.36c1.75,1.75,4.06,2.63,6.36,2.63s4.61-.88,6.36-2.63c3.51-3.51,3.51-9.22,0-12.73-1.7-1.7-3.96-2.64-6.36-2.64s-4.66.94-6.36,2.64c-3.51,3.51-3.51,9.22,0,12.73Zm2.48-9.55l.71-.71,3.18,3.18,3.18-3.18.71.71-3.18,3.18,2.74,2.74.44.44-.71.71-2.65-2.65h0s-.53-.53-.53-.53l-.53.53-2.65,2.65-.71-.71,2.21-2.21.97-.97-3.18-3.18Z"/></g><path d="M8.11 15.18 8.82 15.89 11.47 13.24 12 12.71 12.53 13.24 12.53 13.24 15.18 15.89 15.89 15.18 15.45 14.74 12.71 12 15.89 8.82 15.18 8.11 12 11.29 8.82 8.11 8.11 8.82 11.29 12 10.32 12.97 8.11 15.18z"/></svg>