<svg xmlns="http://www.w3.org/2000/svg" width="24" height="24" viewBox="0 0 24 24"><g opacity="0.4"><path d="m5.5,20h13c.83,0,1.5-.67,1.5-1.5V5.5c0-.83-.67-1.5-1.5-1.5H5.5c-.83,0-1.5.67-1.5,1.5v13c0,.83.67,1.5,1.5,1.5Zm2.61-11.18l.71-.71,3.18,3.18,3.18-3.18.71.71-3.18,3.18.53.53,2.21,2.21.44.44-.71.71-.44-.44-2.21-2.21-.53-.53-.53.53-.44.44-2.21,2.21-.71-.71,2.21-2.21.44-.44.53-.53-3.18-3.18Z"/></g><path d="M15.18 8.11 12 11.29 8.82 8.11 8.11 8.82 11.29 12 10.76 12.53 10.32 12.97 8.11 15.18 8.82 15.89 11.03 13.68 11.47 13.24 12 12.71 12.53 13.24 14.74 15.45 15.18 15.89 15.89 15.18 15.45 14.74 13.24 12.53 12.71 12 15.89 8.82 15.18 8.11z"/></svg>