<svg xmlns="http://www.w3.org/2000/svg" viewBox="0 0 24 24" width="24" height="24"><path d="M4.22 4.22c-4.29 4.29-4.29 11.27 0 15.56C6.37 21.93 9.18 23 12 23s5.64-1.07 7.78-3.22c4.29-4.29 4.29-11.27 0-15.56S8.51-.07 4.22 4.22m12.32 10.32c-.94.94-2.2 1.47-3.54 1.47s-2.59-.52-3.54-1.47c-.94-.94-1.47-2.2-1.47-3.54s.52-2.59 1.47-3.54c.94-.94 2.2-1.47 3.54-1.47s2.59.52 3.54 1.47 1.47 2.2 1.47 3.54-.52 2.59-1.47 3.54"/><path d="M14.44 10.15c.19-.25.31-.56.31-.9 0-.83-.67-1.5-1.5-1.5s-1.5.67-1.5 1.5c0 .34.12.65.31.9-.49.37-.81.94-.81 1.6 0 1.1.9 2 2 2s2-.9 2-2c0-.66-.32-1.23-.81-1.6m-1.19-1.4c.28 0 .5.22.5.5s-.22.5-.5.5-.5-.22-.5-.5.22-.5.5-.5m0 4c-.55 0-1-.45-1-1s.45-1 1-1 1 .45 1 1-.45 1-1 1"/></svg>