<svg xmlns="http://www.w3.org/2000/svg" viewBox="0 0 24 24" width="24" height="24"><path d="m20.97,6.03c.15.15.34.22.53.22s.38-.07.53-.22c.29-.29.29-.77,0-1.06l-3.01-3c-.29-.29-.77-.29-1.06,0s-.29.77,0,1.06l3.01,3Z"/><path d="m19.98,18.92c1.26-1.67,2.02-3.72,2.02-5.92,0-5.42-4.58-10-10-10-2.2,0-4.25.76-5.92,2.02l-1.02-1.02.96-.97c.29-.29.29-.77,0-1.06-.29-.29-.77-.29-1.06,0l-.96.97-1.72-1.72c-.29-.29-.77-.29-1.06,0s-.29.77,0,1.06l20.5,20.5c.15.15.34.22.53.22s.38-.07.53-.22c.29-.29.29-.77,0-1.06l-2.8-2.8Zm-9.48-10.42c0-.83.67-1.5,1.5-1.5s1.5.67,1.5,1.5v3h3c.83,0,1.5.67,1.5,1.5s-.67,1.5-1.5,1.5h-.94l-5.06-5.06v-.94Z"/><path d="m2,13c0,5.42,4.58,10,10,10,1.99,0,3.86-.62,5.44-1.67L3.67,7.56c-1.05,1.58-1.67,3.45-1.67,5.44Z"/></svg>