<svg xmlns="http://www.w3.org/2000/svg" width="24" height="24" viewBox="0 0 24 24"><path d="M19.88 11.43a.494.494 0 0 0-.75 0l-2.4 2.74c-.28.32-.05.83.38.83h.81a5.98 5.98 0 0 1-4.41 4.8V13h1c.83 0 1.5-.67 1.5-1.5s-.67-1.5-1.5-1.5h-1V8.69c1.45-.61 2.5-2.07 2.5-3.72 0-2.19-1.79-3.97-4-3.97s-4 1.78-4 3.97c0 1.65 1.05 3.11 2.5 3.72V10h-1c-.83 0-1.5.67-1.5 1.5s.67 1.5 1.5 1.5h1v6.8A6.01 6.01 0 0 1 6.1 15h.81c.43 0 .66-.51.38-.83l-2.4-2.74a.494.494 0 0 0-.75 0l-2.4 2.74c-.28.32-.05.83.38.83h.96c.5 4.49 4.32 8 8.94 8s8.44-3.51 8.94-8h.96c.43 0 .66-.51.38-.83l-2.4-2.74ZM12 4c.54 0 1 .44 1 .97S12.52 6 12 6s-1-.49-1-1.03.46-.97 1-.97"/></svg>