<svg xmlns="http://www.w3.org/2000/svg" viewBox="0 0 24 24" width="24" height="24"><path d="m12,1c-2.94,0-5.7,1.14-7.78,3.22-1.64,1.64-2.71,3.73-3.07,6.04-.13.82.43,1.59,1.25,1.72.82.13,1.59-.43,1.72-1.25.27-1.68,1.04-3.2,2.23-4.39,1.51-1.51,3.52-2.34,5.66-2.34s4.15.83,5.66,2.34c1.51,1.51,2.34,3.52,2.34,5.66s-.83,4.15-2.34,5.66c-1.19,1.19-2.71,1.96-4.39,2.23-.82.13-1.38.9-1.25,1.72.12.74.75,1.26,1.48,1.26.08,0,.16,0,.24-.02,2.31-.37,4.4-1.43,6.04-3.07,2.08-2.08,3.22-4.84,3.22-7.78s-1.14-5.7-3.22-7.78c-2.08-2.08-4.84-3.22-7.78-3.22Z"/><path d="m5.44,18.56c.29.29.68.44,1.06.44s.77-.15,1.06-.44l5.5-5.5,1.66,1.66c.47.47,1.28.14,1.28-.53v-5.44c0-.41-.34-.75-.75-.75h-5.44c-.67,0-1,.81-.53,1.28l1.66,1.66-5.5,5.5c-.59.59-.59,1.54,0,2.12Z"/></svg>