<svg xmlns="http://www.w3.org/2000/svg" viewBox="0 0 24 24" width="24" height="24"><path d="m7,14.5c0,.83.67,1.5,1.5,1.5h6c.83,0,1.5-.67,1.5-1.5v-6c0-.83-.67-1.5-1.5-1.5s-1.5.67-1.5,1.5v2.38l-5.44-5.44c-.59-.59-1.54-.59-2.12,0s-.59,1.54,0,2.12l5.44,5.44h-2.38c-.83,0-1.5.67-1.5,1.5Z"/><path d="m13.74,1.15c-.82-.13-1.59.43-1.72,1.25-.13.82.43,1.59,1.25,1.72,1.68.27,3.2,1.04,4.39,2.23,1.51,1.51,2.34,3.52,2.34,5.66s-.83,4.15-2.34,5.66c-1.51,1.51-3.52,2.34-5.66,2.34s-4.15-.83-5.66-2.34c-1.19-1.19-1.96-2.71-2.23-4.39-.13-.82-.9-1.37-1.72-1.25-.82.13-1.38.9-1.25,1.72.37,2.31,1.43,4.4,3.07,6.04,2.08,2.08,4.84,3.22,7.78,3.22s5.7-1.14,7.78-3.22c2.08-2.08,3.22-4.84,3.22-7.78s-1.14-5.7-3.22-7.78c-1.64-1.64-3.73-2.71-6.04-3.07Z"/></svg>