<svg xmlns="http://www.w3.org/2000/svg" width="24" height="24" viewBox="0 0 24 24"><path d="M17.94 2.32c-.84-.84-2-1.32-3.18-1.32H9.24c-1.18 0-2.34.48-3.18 1.32L2.32 6.06C1.47 6.91 1 8.04 1 9.24v5.51c0 1.2.47 2.33 1.32 3.18l3.74 3.74c.84.84 2 1.32 3.18 1.32h5.52c1.18 0 2.34-.48 3.18-1.32l3.74-3.74c.85-.85 1.32-1.98 1.32-3.18V9.24c0-1.2-.47-2.33-1.32-3.18zM12 18c-.83 0-1.5-.67-1.5-1.5S11.17 15 12 15s1.5.67 1.5 1.5S12.83 18 12 18m1.5-6.5c0 .83-.67 1.5-1.5 1.5s-1.5-.67-1.5-1.5v-4c0-.83.67-1.5 1.5-1.5s1.5.67 1.5 1.5z"/></svg>