<svg xmlns="http://www.w3.org/2000/svg" viewBox="0 0 24 24" width="24" height="24"><path d="m20.97,6.03c.15.15.34.22.53.22s.38-.07.53-.22c.29-.29.29-.77,0-1.06l-3.01-3c-.29-.29-.77-.29-1.06,0-.29.29-.29.77,0,1.06l3.01,3Z"/><path d="m2.5,6.25c.19,0,.38-.07.53-.22l2.99-3c.29-.29.29-.77,0-1.06s-.77-.29-1.06,0l-2.99,3c-.29.29-.29.77,0,1.06.15.15.34.22.53.22Z"/><path d="m2,13c0,5.42,4.58,10,10,10s10-4.58,10-10S17.42,3,12,3,2,7.58,2,13Zm5.44-2c.59-.59,1.54-.59,2.12,0l1.56,1.56,3.31-3.31c.59-.59,1.54-.59,2.12,0,.59.59.59,1.54,0,2.12l-4.38,4.38c-.29.29-.68.44-1.06.44s-.77-.15-1.06-.44l-2.62-2.62c-.59-.59-.59-1.54,0-2.12Z"/></svg>