<svg xmlns="http://www.w3.org/2000/svg" viewBox="0 0 24 24" width="24" height="24"><path d="m19.02,1.97c-.29-.29-.77-.29-1.06,0-.29.29-.29.77,0,1.06l3.01,3c.15.15.34.22.53.22s.38-.07.53-.22c.29-.29.29-.77,0-1.06l-3.01-3Z"/><path d="m3.03,6.03l2.99-3c.29-.29.29-.77,0-1.06-.29-.29-.77-.29-1.06,0l-2.99,3c-.29.29-.29.77,0,1.06.15.15.34.22.53.22s.38-.07.53-.22Z"/><path d="m12,3C6.58,3,2,7.58,2,13s4.58,10,10,10,10-4.58,10-10S17.42,3,12,3Zm2.75,14.25h-5c-.58,0-1.11-.33-1.36-.86-.25-.52-.17-1.14.19-1.59l2.5-3.05h-1.83c-.83,0-1.5-.67-1.5-1.5s.67-1.5,1.5-1.5h5c.58,0,1.11.33,1.36.86.25.52.17,1.14-.19,1.59l-2.5,3.05h1.83c.83,0,1.5.67,1.5,1.5s-.67,1.5-1.5,1.5Z"/></svg>