<svg xmlns="http://www.w3.org/2000/svg" viewBox="0 0 24 24" width="24" height="24"><path d="M12 11A1 1 0 1 0 12 13 1 1 0 1 0 12 11z"/><path d="m21.53,6.5c-.49-.86-1.84-2.23-5.31-1.8,0,0,0,0,0,0-.92-2.2-2.33-3.71-4.21-3.71s-3.28,1.5-4.21,3.71c0,0,0,0,0,0-3.47-.44-4.81.94-5.31,1.8-.5.86-1.01,2.71,1.1,5.5,0,0,0,0,0,0,0,0,0,0,0,0-2.11,2.78-1.59,4.64-1.1,5.5.43.75,1.5,1.88,4.05,1.88.38,0,.8-.03,1.26-.08,0,0,0,0,0,0,.92,2.2,2.33,3.71,4.21,3.71s3.28-1.5,4.21-3.71c0,0,0,0,0,0,.46.06.88.08,1.26.08,2.55,0,3.62-1.13,4.05-1.88.5-.86,1.01-2.71-1.1-5.5,0,0,0,0,0,0,0,0,0,0,0,0,2.11-2.78,1.59-4.64,1.1-5.5Zm-4.05,1.12c.89,0,1.36.21,1.46.38.11.19.02.83-.61,1.78-.33-.29-.66-.57-1.02-.84-.06-.44-.13-.87-.22-1.29.13,0,.28-.03.39-.03Zm-6.72,6.54c-.41-.24-.81-.49-1.2-.75-.03-.45-.05-.92-.05-1.41s.02-.96.05-1.41c.39-.26.79-.51,1.2-.75h0c.41-.24.83-.45,1.25-.65.42.2.84.42,1.25.65h0c.41.24.81.49,1.2.75.03.45.05.92.05,1.41s-.02.96-.05,1.41c-.39.26-.79.51-1.2.75-.41.24-.83.45-1.25.65-.42-.21-.84-.42-1.25-.65Zm1.25-10.16c.3,0,.78.49,1.24,1.42-.41.14-.82.29-1.24.46-.42-.17-.83-.32-1.24-.46.46-.93.94-1.42,1.24-1.42Zm-6.93,4c.1-.17.57-.38,1.46-.38.12,0,.26.02.39.03-.08.42-.16.85-.22,1.29-.36.28-.7.56-1.02.84-.63-.95-.72-1.59-.61-1.78Zm0,8c-.11-.19-.02-.83.61-1.78.33.29.66.57,1.02.84.06.44.14.88.22,1.3-1.14.07-1.74-.17-1.85-.36Zm6.93,4c-.3,0-.78-.49-1.24-1.42.41-.14.82-.29,1.24-.46.42.17.83.32,1.24.46-.46.93-.94,1.42-1.24,1.42Zm6.93-4c-.11.2-.71.44-1.85.36.09-.43.16-.86.22-1.3.36-.28.7-.56,1.02-.84.63.95.72,1.59.61,1.78Z"/></svg>