<svg xmlns="http://www.w3.org/2000/svg" viewBox="0 0 24 24" width="24" height="24"><path d="m13.06,10.94c-.59-.59-1.54-.59-2.12,0l-6,6-1.66-1.66c-.47-.47-1.28-.14-1.28.53v5.44c0,.41.34.75.75.75h5.44c.67,0,1-.81.53-1.28l-1.66-1.66,6-6c.59-.59.59-1.54,0-2.12Z"/><path d="m14.5,22h3c2.48,0,4.5-2.02,4.5-4.5V6.5c0-2.48-2.02-4.5-4.5-4.5H6.5c-2.48,0-4.5,2.02-4.5,4.5v3c0,.83.67,1.5,1.5,1.5s1.5-.67,1.5-1.5v-3c0-.83.67-1.5,1.5-1.5h11c.83,0,1.5.67,1.5,1.5v11c0,.83-.67,1.5-1.5,1.5h-3c-.83,0-1.5.67-1.5,1.5s.67,1.5,1.5,1.5Z"/></svg>