<svg xmlns="http://www.w3.org/2000/svg" viewBox="0 0 24 24" width="24" height="24"><path d="m10.29,17h-2.29V2.5c0-.83-.67-1.5-1.5-1.5s-1.5.67-1.5,1.5v14.5h-2.3c-.65,0-.99.78-.55,1.26l3.79,4.14c.3.32.81.32,1.11,0l3.8-4.14c.44-.48.1-1.26-.55-1.26Z"/><path d="m21.5,20h-2.74l3.88-4.52c.38-.44.47-1.07.22-1.6-.24-.53-.78-.87-1.36-.87h-6c-.83,0-1.5.67-1.5,1.5s.67,1.5,1.5,1.5h2.74l-3.88,4.52c-.38.44-.47,1.07-.22,1.6.24.53.78.87,1.36.87h6c.83,0,1.5-.67,1.5-1.5s-.67-1.5-1.5-1.5Z"/><path d="m21.83,3.57c-.4-1.51-1.77-2.57-3.33-2.57s-2.94,1.06-3.33,2.57l-1.46,5.55c-.21.8.27,1.62,1.07,1.83.8.21,1.62-.27,1.83-1.07l.23-.88h3.32l.23.88c.18.67.78,1.12,1.45,1.12.13,0,.25-.02.38-.05.8-.21,1.28-1.03,1.07-1.83l-1.46-5.55Zm-4.2,2.43l.44-1.67c.1-.39.76-.39.86,0l.44,1.67h-1.74Z"/></svg>