<svg xmlns="http://www.w3.org/2000/svg" viewBox="0 0 24 24" width="24" height="24"><path d="m18.5,3H5.5C3.02,3,1,5.02,1,7.5v9c0,2.48,2.02,4.5,4.5,4.5h1c.83,0,1.5-.67,1.5-1.5s-.67-1.5-1.5-1.5h-1c-.83,0-1.5-.67-1.5-1.5V7.5c0-.83.67-1.5,1.5-1.5h13c.83,0,1.5.67,1.5,1.5v9c0,.83-.67,1.5-1.5,1.5s-1.5.67-1.5,1.5.67,1.5,1.5,1.5c2.48,0,4.5-2.02,4.5-4.5V7.5c0-2.48-2.02-4.5-4.5-4.5Z"/><path d="m12.58,17.69c-.3-.36-.85-.36-1.15,0l-3.4,4.08c-.41.49-.06,1.23.58,1.23h6.8c.64,0,.98-.74.58-1.23l-3.4-4.08Z"/></svg>