<svg xmlns="http://www.w3.org/2000/svg" viewBox="0 0 24 24" width="24" height="24"><path d="m20.5,8H3.5c-.83,0-1.5.67-1.5,1.5s.67,1.5,1.5,1.5h17c.83,0,1.5-.67,1.5-1.5s-.67-1.5-1.5-1.5Z"/><path d="m20.5,3H3.5c-.83,0-1.5.67-1.5,1.5s.67,1.5,1.5,1.5h17c.83,0,1.5-.67,1.5-1.5s-.67-1.5-1.5-1.5Z"/><path d="m20.5,13H3.5c-.83,0-1.5.67-1.5,1.5s.67,1.5,1.5,1.5h17c.83,0,1.5-.67,1.5-1.5s-.67-1.5-1.5-1.5Z"/><path d="m17.5,21c.83,0,1.5-.67,1.5-1.5s-.67-1.5-1.5-1.5H6.5c-.83,0-1.5.67-1.5,1.5s.67,1.5,1.5,1.5h11Z"/></svg>