<svg xmlns="http://www.w3.org/2000/svg" viewBox="0 0 24 24" width="24" height="24"><path d="m2,6.5v3c0,.83.67,1.5,1.5,1.5s1.5-.67,1.5-1.5v-3c0-.83.67-1.5,1.5-1.5h11c.83,0,1.5.67,1.5,1.5v11c0,.83-.67,1.5-1.5,1.5h-3c-.83,0-1.5.67-1.5,1.5s.67,1.5,1.5,1.5h3c2.48,0,4.5-2.02,4.5-4.5V6.5c0-2.48-2.02-4.5-4.5-4.5H6.5c-2.48,0-4.5,2.02-4.5,4.5Z"/><path d="m5.44,18.56c.29.29.68.44,1.06.44s.77-.15,1.06-.44l5.44-5.44v2.38c0,.83.67,1.5,1.5,1.5s1.5-.67,1.5-1.5v-6c0-.83-.67-1.5-1.5-1.5h-6c-.83,0-1.5.67-1.5,1.5s.67,1.5,1.5,1.5h2.38l-5.44,5.44c-.59.59-.59,1.54,0,2.12Z"/></svg>