<svg xmlns="http://www.w3.org/2000/svg" viewBox="0 0 24 24" width="24" height="24"><path d="m1.75,13.75h20.5c.41,0,.75-.34.75-.75s-.34-.75-.75-.75H1.75c-.41,0-.75.34-.75.75s.34.75.75.75Z"/><path d="m5.5,23h13c2.48,0,4.5-2.02,4.5-4.5v-1c0-1.38-1.12-2.5-2.5-2.5h-7c-.46,0-.89.21-1.17.56l-2.83,3.54-2.83-3.54c-.28-.36-.71-.56-1.17-.56h-2c-1.38,0-2.5,1.12-2.5,2.5v1c0,2.48,2.02,4.5,4.5,4.5Z"/><path d="m3.5,11h17c1.38,0,2.5-1.12,2.5-2.5v-.5c0-4.21-6.62-7-11-7C5.93,1,1,4.14,1,8v.5c0,1.38,1.12,2.5,2.5,2.5Zm14.5-4c.55,0,1,.45,1,1s-.45,1-1,1-1-.45-1-1,.45-1,1-1Zm-3.5-3c.83,0,1.5.67,1.5,1.5s-.67,1.5-1.5,1.5-1.5-.67-1.5-1.5.67-1.5,1.5-1.5Zm-3,3c.28,0,.5.22.5.5s-.22.5-.5.5-.5-.22-.5-.5.22-.5.5-.5Z"/></svg>