<svg xmlns="http://www.w3.org/2000/svg" viewBox="0 0 24 24" width="24" height="24"><path d="m21,10c-.84,0-1.55.52-1.85,1.25h-4.65v-2.5h3c1.24,0,2.25-1.01,2.25-2.25v-1.65c.73-.3,1.25-1.01,1.25-1.85,0-1.1-.9-2-2-2s-2,.9-2,2c0,.84.52,1.55,1.25,1.85v1.65c0,.41-.34.75-.75.75h-3v-1.86c0-2.42-1.97-4.39-4.39-4.39-1.58,0-2.96.84-3.74,2.09-2.01.59-3.49,2.46-3.49,4.66,0,.05,0,.11,0,.16-1.17.98-1.89,2.45-1.89,4.09,0,1.13.35,2.2.99,3.1-.03.23-.04.45-.04.68,0,2.35,1.53,4.36,3.65,5.06.88,1.31,2.38,2.16,4.04,2.16,2.68,0,4.86-2.18,4.86-4.86v-1.39h3c.41,0,.75.34.75.75v1.65c-.73.3-1.25,1.01-1.25,1.85,0,1.1.9,2,2,2s2-.9,2-2c0-.84-.52-1.55-1.25-1.85v-1.65c0-1.24-1.01-2.25-2.25-2.25h-3v-2.5h4.65c.3.73,1.01,1.25,1.85,1.25,1.1,0,2-.9,2-2s-.9-2-2-2Z"/></svg>