<svg xmlns="http://www.w3.org/2000/svg" viewBox="0 0 24 24" width="24" height="24"><path d="m19.5,5h-2.5v-.5c0-1.93-1.57-3.5-3.5-3.5H4.5c-1.93,0-3.5,1.57-3.5,3.5v15.5c0,1.65,1.35,3,3,3h16c1.65,0,3-1.35,3-3v-11.5c0-1.93-1.57-3.5-3.5-3.5Zm-11.75,11.25c0,.41-.34.75-.75.75h-1c-.41,0-.75-.34-.75-.75v-1c0-.41.34-.75.75-.75h1c.41,0,.75.34.75.75v1Zm0-4.75c0,.41-.34.75-.75.75h-1c-.41,0-.75-.34-.75-.75v-1c0-.41.34-.75.75-.75h1c.41,0,.75.34.75.75v1Zm0-4.5c0,.41-.34.75-.75.75h-1c-.41,0-.75-.34-.75-.75v-1c0-.41.34-.75.75-.75h1c.41,0,.75.34.75.75v1Zm5,9.25c0,.41-.34.75-.75.75h-1c-.41,0-.75-.34-.75-.75v-1c0-.41.34-.75.75-.75h1c.41,0,.75.34.75.75v1Zm0-4.75c0,.41-.34.75-.75.75h-1c-.41,0-.75-.34-.75-.75v-1c0-.41.34-.75.75-.75h1c.41,0,.75.34.75.75v1Zm0-4.5c0,.41-.34.75-.75.75h-1c-.41,0-.75-.34-.75-.75v-1c0-.41.34-.75.75-.75h1c.41,0,.75.34.75.75v1Zm7.75,9.25c0,.41-.34.75-.75.75h-1c-.41,0-.75-.34-.75-.75v-1c0-.41.34-.75.75-.75h1c.41,0,.75.34.75.75v1Zm0-4.75c0,.41-.34.75-.75.75h-1c-.41,0-.75-.34-.75-.75v-1c0-.41.34-.75.75-.75h1c.41,0,.75.34.75.75v1Z"/></svg>