<svg xmlns="http://www.w3.org/2000/svg" viewBox="0 0 24 24" width="24" height="24"><path d="m9.18,21c.41,1.17,1.51,2,2.82,2s2.41-.83,2.82-2h-5.64Z"/><path d="m21.36,14.17l-1.36-1.7v-2.2c0-3.86-2.64-7.18-6.15-8.05-.3-.72-1.01-1.23-1.85-1.23s-1.54.5-1.84,1.22c-1.39.33-2.68,1.02-3.73,2.04-1.57,1.52-2.43,3.56-2.43,5.74l.02,2.45-1.38,1.73c-.41.51-.64,1.16-.64,1.91,0,1.61,1.31,2.91,2.91,2.91h14.17c1.61,0,2.91-1.31,2.91-3,0-.66-.23-1.3-.64-1.82Zm-6.36-2.17h-6c-.83,0-1.5-.67-1.5-1.5s.67-1.5,1.5-1.5h6c.83,0,1.5.67,1.5,1.5s-.67,1.5-1.5,1.5Z"/></svg>