<svg xmlns="http://www.w3.org/2000/svg" viewBox="0 0 24 24" width="24" height="24"><path d="m22.5,1h-3.29c-.45,0-.67.54-.35.85l1.12,1.12-1.46,1.46c-3.81-3.38-8.71-3.55-12.96-.38-.83.61-1.91.95-3.04.95-.83,0-1.5.67-1.5,1.5s.67,1.5,1.5,1.5c.17,0,.33-.03.5-.04v9.04c0,.41.34.75.75.75s.75-.34.75-.75V7.74c1.04-.25,2.01-.67,2.84-1.28,3.07-2.28,6.33-2.24,9.05.1L2,20.94c-.29.29-.29.77,0,1.06.29.29.77.29,1.06,0l14.39-14.39c2.33,2.72,2.38,5.99.1,9.05-.61.82-1.03,1.8-1.28,2.84H7c-.41,0-.75.34-.75.75s.34.75.75.75h9.04c0,.17-.04.33-.04.5,0,.83.67,1.5,1.5,1.5s1.5-.67,1.5-1.5c0-1.14.34-2.22.95-3.04,3.17-4.26,3-9.16-.38-12.97l1.46-1.46,1.12,1.12c.32.32.85.09.85-.35V1.5c0-.28-.22-.5-.5-.5Z"/></svg>