<svg xmlns="http://www.w3.org/2000/svg" viewBox="0 0 24 24" width="24" height="24"><path d="m8.01,14.39l.57-.16c1.24-.36,2.26-1.29,2.72-2.5.63-1.64,2.02-2.91,3.71-3.4l.57-.16c1.24-.36,2.26-1.29,2.72-2.5l.82-2.14-1.41-1.22c-.62-.53-1.45-.73-2.24-.54-.79.2-1.44.77-1.73,1.53l-.22.57c-.29.75-.93,1.34-1.7,1.56l-.47.14c-1.67.48-3.05,1.74-3.67,3.37-.29.75-.93,1.34-1.7,1.56l-.47.14c-1.67.48-3.04,1.74-3.67,3.37l-.48,1.24c-.38.98-.1,2.1.7,2.79l1.62,1.41.63-1.64c.63-1.64,2.02-2.91,3.71-3.4Z"/><path d="m20.33,4.57l-.63,1.64c-.63,1.64-2.02,2.91-3.71,3.4l-.57.16c-1.24.36-2.26,1.29-2.72,2.5-.63,1.64-2.02,2.91-3.71,3.4l-.57.16c-1.24.36-2.26,1.29-2.72,2.5l-.82,2.14,1.41,1.22c.46.4,1.04.61,1.64.61.2,0,.4-.02.6-.07.79-.2,1.44-.77,1.73-1.53l.22-.57c.29-.75.93-1.34,1.7-1.56l.47-.14c1.67-.48,3.05-1.74,3.67-3.37.29-.75.93-1.34,1.7-1.56l.47-.14c1.67-.48,3.04-1.74,3.67-3.37l.48-1.24c.38-.98.1-2.1-.7-2.79l-1.62-1.41Z"/></svg>