<svg xmlns="http://www.w3.org/2000/svg" width="24" height="24" viewBox="0 0 24 24"><path d="M12 23c1.31 0 2.41-.83 2.82-2H9.18c.41 1.17 1.51 2 2.82 2M19.92 18.86c1.2-.36 2.08-1.48 2.08-2.87 0-.66-.23-1.31-.64-1.82L20 12.47v-2.2c0-3.86-2.64-7.17-6.15-8.05C13.55 1.5 12.84.99 12 .99s-1.54.5-1.84 1.22a8.03 8.03 0 0 0-3.73 2.04c-.19.18-.35.39-.52.59L2.28 1.22c-.29-.29-.77-.29-1.06 0s-.29.77 0 1.06l20.5 20.5c.15.15.34.22.53.22s.38-.07.53-.22c.29-.29.29-.77 0-1.06zM4 10l.02 2.45-1.38 1.73c-.41.51-.64 1.16-.64 1.91C2 17.7 3.31 19 4.91 19h10.2L4.23 8.12C4.08 8.73 4 9.36 4 10"/></svg>