<svg xmlns="http://www.w3.org/2000/svg" viewBox="0 0 24 24" width="24" height="24"><path d="m7,23h10c1.66,0,3-1.34,3-3v-11.5c0-1.93-1.57-3.5-3.5-3.5H7.5c-1.93,0-3.5,1.57-3.5,3.5v11.5c0,1.66,1.34,3,3,3Zm6.25-12.5c0-.41.34-.75.75-.75h1c.41,0,.75.34.75.75v1c0,.41-.34.75-.75.75h-1c-.41,0-.75-.34-.75-.75v-1Zm0,4.75c0-.41.34-.75.75-.75h1c.41,0,.75.34.75.75v1c0,.41-.34.75-.75.75h-1c-.41,0-.75-.34-.75-.75v-1Zm-5-4.75c0-.41.34-.75.75-.75h1c.41,0,.75.34.75.75v1c0,.41-.34.75-.75.75h-1c-.41,0-.75-.34-.75-.75v-1Zm0,4.75c0-.41.34-.75.75-.75h1c.41,0,.75.34.75.75v1c0,.41-.34.75-.75.75h-1c-.41,0-.75-.34-.75-.75v-1Z"/></svg>