<svg xmlns="http://www.w3.org/2000/svg" viewBox="0 0 24 24" width="24" height="24"><path d="m21.5,10.5h-.64c-.23-1.36-.76-2.62-1.54-3.71l.45-.45c.59-.59.59-1.54,0-2.12s-1.54-.59-2.12,0l-.45.45c-1.08-.77-2.34-1.31-3.71-1.54v-.64c0-.83-.67-1.5-1.5-1.5s-1.5.67-1.5,1.5v.64c-1.36.23-2.62.76-3.71,1.54l-.45-.45c-.59-.58-1.54-.59-2.12,0s-.59,1.54,0,2.12l.45.45c-.77,1.08-1.31,2.34-1.54,3.71h-.64c-.83,0-1.5.67-1.5,1.5s.67,1.5,1.5,1.5h.64c.23,1.36.76,2.62,1.54,3.71l-.45.45c-.59.59-.59,1.54,0,2.12.29.29.68.44,1.06.44s.77-.15,1.06-.44l.45-.45c1.08.77,2.34,1.31,3.71,1.54v.64c0,.83.67,1.5,1.5,1.5s1.5-.67,1.5-1.5v-.64c1.36-.23,2.62-.76,3.71-1.54l.45.45c.29.29.68.44,1.06.44s.77-.15,1.06-.44c.59-.59.59-1.54,0-2.12l-.45-.45c.77-1.08,1.31-2.34,1.54-3.71h.64c.83,0,1.5-.67,1.5-1.5s-.67-1.5-1.5-1.5Zm-3.7,0h-2.18l.27-.27h0s1.27-1.27,1.27-1.27c.28.48.5.99.64,1.54Zm-2.76-3.66l-1.27,1.27s0,0,0,0l-.27.27v-2.18c.55.14,1.07.36,1.54.64Zm-4.54-.64v2.18l-.27-.27s0,0,0,0l-1.27-1.27c.48-.28.99-.5,1.54-.64Zm-3.66,2.76l1.27,1.27h0s.27.27.27.27h-2.18c.14-.55.36-1.07.64-1.54Zm-.64,4.54h2.18l-.27.27h0s-1.27,1.27-1.27,1.27c-.28-.48-.5-.99-.64-1.54Zm2.76,3.66l1.27-1.27h0s.27-.27.27-.27v2.18c-.55-.14-1.07-.36-1.54-.64Zm4.54.64v-2.18l.27.27h0s1.27,1.27,1.27,1.27c-.48.28-.99.5-1.54.64Zm3.66-2.76l-1.27-1.27h0s-.27-.27-.27-.27h2.18c-.14.55-.36,1.07-.64,1.54Z"/></svg>