<svg xmlns="http://www.w3.org/2000/svg" viewBox="0 0 24 24" width="24" height="24"><path d="m4,23h7.5c.18,0,.34-.04.5-.09v.09h7c1.65,0,3-1.35,3-3V4.5c0-1.93-1.57-3.5-3.5-3.5h-9c-1.93,0-3.5,1.57-3.5,3.5v4.5h-1.5c-1.93,0-3.5,1.57-3.5,3.5v7.5c0,1.65,1.35,3,3,3ZM15.25,6c0-.41.34-.75.75-.75h1c.41,0,.75.34.75.75v1c0,.41-.34.75-.75.75h-1c-.41,0-.75-.34-.75-.75v-1Zm0,4.5c0-.41.34-.75.75-.75h1c.41,0,.75.34.75.75v1c0,.41-.34.75-.75.75h-1c-.41,0-.75-.34-.75-.75v-1Zm0,4.75c0-.41.34-.75.75-.75h1c.41,0,.75.34.75.75v1c0,.41-.34.75-.75.75h-1c-.41,0-.75-.34-.75-.75v-1Zm-5-9.25c0-.41.34-.75.75-.75h1c.41,0,.75.34.75.75v1c0,.41-.34.75-.75.75h-1c-.41,0-.75-.34-.75-.75v-1Zm-6.25,6.5c0-.28.22-.5.5-.5h5c.28,0,.5.22.5.5v7.5h-6v-7.5Z"/><rect x="6" y="14" width="2" height="2" rx=".5" ry=".5"/></svg>