<svg xmlns="http://www.w3.org/2000/svg" viewBox="0 0 24 24" width="24" height="24"><path d="M7 15A1.5 1.5 0 1 0 7 18 1.5 1.5 0 1 0 7 15z"/><path d="m20,6.05v-1.55c0-1.93-1.57-3.5-3.5-3.5H7.5c-1.93,0-3.5,1.57-3.5,3.5v1.55c-1.53.22-2.73,1.42-2.95,2.95h21.91c-.22-1.53-1.43-2.73-2.95-2.95Zm-3-.05H7v-1.5c0-.28.22-.5.5-.5h9c.28,0,.5.22.5.5v1.5Z"/><path d="M17 15A1.5 1.5 0 1 0 17 18 1.5 1.5 0 1 0 17 15z"/><path d="m1,19.5c0,1.93,1.57,3.5,3.5,3.5h15c1.93,0,3.5-1.57,3.5-3.5v-9H1v9Zm16-7c2.21,0,4,1.79,4,4s-1.79,4-4,4-4-1.79-4-4,1.79-4,4-4Zm-10,0c2.21,0,4,1.79,4,4s-1.79,4-4,4-4-1.79-4-4,1.79-4,4-4Z"/></svg>