<svg xmlns="http://www.w3.org/2000/svg" viewBox="0 0 24 24" width="24" height="24"><path d="m19.5,5h-2.5v-.5c0-1.93-1.57-3.5-3.5-3.5H4.5c-1.93,0-3.5,1.57-3.5,3.5v15.5c0,1.66,1.34,3,3,3h1.5c.55,0,1-.45,1-1v-4c0-.55.45-1,1-1h3c.55,0,1,.45,1,1v4c0,.55.45,1,1,1h7.5c1.66,0,3-1.34,3-3v-11.5c0-1.93-1.57-3.5-3.5-3.5Zm-8.25,4.25h-1v1c0,.69-.56,1.25-1.25,1.25s-1.25-.56-1.25-1.25v-1h-1c-.69,0-1.25-.56-1.25-1.25s.56-1.25,1.25-1.25h1v-1c0-.69.56-1.25,1.25-1.25s1.25.56,1.25,1.25v1h1c.69,0,1.25.56,1.25,1.25s-.56,1.25-1.25,1.25Zm9.25,7c0,.41-.34.75-.75.75h-1c-.41,0-.75-.34-.75-.75v-1c0-.41.34-.75.75-.75h1c.41,0,.75.34.75.75v1Zm0-4.75c0,.41-.34.75-.75.75h-1c-.41,0-.75-.34-.75-.75v-1c0-.41.34-.75.75-.75h1c.41,0,.75.34.75.75v1Z"/></svg>