<svg xmlns="http://www.w3.org/2000/svg" viewBox="0 0 24 24" width="24" height="24"><path d="m22,15.78v-2.78c0-.92-.14-1.81-.37-2.65l-3.74,2.24c-.28.17-.59.25-.9.25s-.62-.08-.9-.25l-3.98-2.38c-.08-.05-.18-.05-.26,0l-3.97,2.38c-.55.33-1.25.33-1.8,0l-3.73-2.24c-.23.85-.37,1.73-.37,2.65v2.78c-.61.55-1,1.34-1,2.22v2c0,1.65,1.35,3,3,3h16c1.65,0,3-1.35,3-3v-2c0-.88-.39-1.67-1-2.22Zm-18,4.22v-2h16v2s-16,0-16,0Z"/><path d="m7.12,11.3l3.97-2.38c.55-.33,1.25-.33,1.8,0l3.98,2.38c.08.05.18.05.26,0l3.99-2.39c-1.17-2.6-3.42-4.61-6.17-5.46-.26-1.39-1.48-2.44-2.94-2.44s-2.68,1.06-2.94,2.44c-2.75.85-5,2.86-6.17,5.46l3.98,2.39c.08.05.18.05.26,0Z"/></svg>