<svg xmlns="http://www.w3.org/2000/svg" viewBox="0 0 24 24" width="24" height="24"><path d="m10.5,23c.06,0,.13,0,.19,0,4.83-.09,8.91-3.94,9.28-8.75.08-1.08-.01-2.14-.28-3.17.45-.54.69-1.21.69-1.91,0-.8-.31-1.55-.88-2.12l-.74-.74.78-.78c.2-.2.9-.78,1.47-.78h1c.41,0,.75-.34.75-.75s-.34-.75-.75-.75h-1c-1.3,0-2.41,1.1-2.53,1.22l-.77.77-.74-.74c-1.1-1.1-2.86-1.17-4.03-.19-1.03-.27-2.09-.36-3.17-.28C4.94,4.4,1.1,8.48,1,13.31c-.05,2.61.94,5.06,2.78,6.91,1.8,1.8,4.18,2.78,6.71,2.78Zm0-15.5c.83,0,1.5.67,1.5,1.5s-.67,1.5-1.5,1.5c-1.65,0-3,1.35-3,3,0,.83-.67,1.5-1.5,1.5s-1.5-.67-1.5-1.5c0-3.31,2.69-6,6-6Z"/></svg>