<svg xmlns="http://www.w3.org/2000/svg" viewBox="0 0 24 24" width="24" height="24"><path d="m20.89,8.25c-.09-2.65-2.12-4.82-4.69-5.07-.97-1.35-2.52-2.18-4.2-2.18s-3.23.83-4.2,2.18c-2.57.25-4.6,2.41-4.69,5.07-1.3.86-2.11,2.33-2.11,3.95,0,2.79,2.4,5.05,5.19,4.7.42.33.89.59,1.39.76,2.18,1.8,2.99,3.52,3.27,4.5.15.51.62.86,1.16.86s1.01-.34,1.16-.86c.28-.98,1.08-2.68,3.24-4.48.51-.19.98-.45,1.41-.79,2.79.35,5.19-1.91,5.19-4.7,0-1.62-.82-3.09-2.11-3.95Zm-8.89,11.56c-.33-.61-.78-1.28-1.37-1.98.48-.12.95-.3,1.37-.56.43.26.89.44,1.37.57-.59.69-1.03,1.36-1.37,1.97Z"/></svg>