<svg xmlns="http://www.w3.org/2000/svg" viewBox="0 0 24 24" width="24" height="24"><path d="M12 1c-.09 0-.19.01-.28.01.07.48.12.96.12 1.45v.32c-.01.28-.25.51-.53.51h-.02c-.29 0-.52-.25-.51-.54v-.29c0-.46-.04-.92-.12-1.37-4.99.6-8.97 4.58-9.57 9.58.45.08.91.12 1.37.12h.28c.26-.03.53.21.54.5s-.22.53-.51.54h-.32c-.49 0-.97-.05-1.45-.12 0 .09-.01.19-.01.28 0 6.07 4.93 11 11 11 .09 0 .19-.01.28-.01-.07-.48-.12-.96-.12-1.45v-.32c.01-.29.23-.5.55-.51.29 0 .52.25.51.54v.29c0 .46.04.92.12 1.37 5-.61 8.98-4.58 9.58-9.58a8 8 0 0 0-1.37-.12h-.28c-.28.03-.53-.21-.54-.5s.22-.53.51-.54c.59-.02 1.18.03 1.77.12 0-.1.01-.19.01-.28 0-6.07-4.93-11-11-11Zm-1.24 5.84c-.16.3-.33.59-.52.87-.34.5-.72.96-1.14 1.39-.43.43-.89.81-1.39 1.14-.28.19-.57.37-.88.53q-.12.06-.24.06c-.19 0-.37-.1-.46-.28a.52.52 0 0 1 .22-.71c.27-.14.53-.3.78-.47.44-.3.86-.64 1.23-1.02q.57-.57 1.02-1.23c.17-.25.32-.5.46-.77a.53.53 0 0 1 .71-.22c.26.14.35.45.22.71Zm6.9 7.32c-.27.14-.53.3-.78.47-.44.3-.86.64-1.23 1.02q-.57.57-1.02 1.23c-.17.25-.32.5-.46.77a.52.52 0 0 1-.7.22.53.53 0 0 1-.22-.71c.16-.3.33-.59.52-.87.34-.5.72-.96 1.14-1.39.43-.43.89-.81 1.39-1.14.28-.19.57-.37.88-.53a.53.53 0 0 1 .71.22c.14.26.04.57-.22.71Z"/></svg>