<svg xmlns="http://www.w3.org/2000/svg" viewBox="0 0 24 24" width="24" height="24"><path d="m22.13,10.93c.45.08.87-.29.87-.75,0-.36-.26-.67-.62-.73-1.08-.18-1.97-.82-2.38-1.66V3.5c0-.83-.67-1.5-1.5-1.5s-1.5.67-1.5,1.5v1c0,2.76-2.24,5-5,5s-5-2.24-5-5v-1c0-.83-.67-1.5-1.5-1.5s-1.5.67-1.5,1.5v4.79c-.41.84-1.29,1.48-2.38,1.66-.36.06-.62.37-.62.73,0,.46.41.82.87.75.8-.13,1.53-.45,2.13-.89v4.46h-1.5c-.83,0-1.5.67-1.5,1.5s.67,1.5,1.5,1.5h1.5v2.5c0,.83.67,1.5,1.5,1.5s1.5-.67,1.5-1.5v-2.5h10v2.5c0,.83.67,1.5,1.5,1.5s1.5-.67,1.5-1.5v-2.5h1.5c.83,0,1.5-.67,1.5-1.5s-.67-1.5-1.5-1.5h-1.5v-4.96c.61.44,1.33.76,2.13.89Zm-15.13-2.28c1.04,1.25,2.55,2.11,4.25,2.31v4.05h-4.25v-6.35Zm5.75,6.35v-4.05c1.7-.2,3.21-1.05,4.25-2.31v6.35h-4.25Z"/></svg>