<svg xmlns="http://www.w3.org/2000/svg" viewBox="0 0 24 24" width="24" height="24"><path d="m21.73,16.64l-6.44-9.99c-1.95.99-3.3,3.01-3.3,5.35,0,3.31,2.69,6,6,6h.5c.28,0,.5.22.5.5s-.22.5-.5.5h-.5c-3.86,0-7-3.14-7-7,0-2.69,1.52-5.02,3.75-6.2l-1.29-2-.02-.03c-1.17-1.72-3.11-2.75-5.18-2.75-3.45,0-6.26,2.81-6.26,6.26,0,.07.01.14.02.2-.61.46-1.02,1.18-1.02,2,0,.28.22.5.5.5h1.13c.72,1.49,2.02,2.66,3.62,3.21.27,1.95,1.08,4.28,2.75,5.88v2.42c0,.83.67,1.5,1.5,1.5s1.5-.67,1.5-1.5v-.76c.59.15,1.23.23,1.93.23.02,0,.05,0,.07,0v.53c0,.83.67,1.5,1.5,1.5s1.5-.67,1.5-1.5v-.85c1.31-.28,2.32-.71,3.06-1.1l.35.53c.46.69,1.39.88,2.08.42s.88-1.39.42-2.08l-1.18-1.78ZM6.5,8c-.83,0-1.5-.67-1.5-1.5s.67-1.5,1.5-1.5,1.5.67,1.5,1.5-.67,1.5-1.5,1.5Z"/></svg>