<svg xmlns="http://www.w3.org/2000/svg" width="24" height="24" viewBox="0 0 24 24"><path d="M20 8.38V6c0-1.1-.9-2-2-2h-2.38l-2.21-2.21c-.78-.78-2.05-.78-2.83 0L8.37 4H5.99c-1.1 0-2 .9-2 2v2.38l-2.21 2.21c-.78.78-.78 2.05 0 2.83l2.21 2.21v2.38c0 1.1.9 2 2 2h2.38l2.21 2.21c.39.39.9.58 1.41.58s1.02-.19 1.41-.58l2.21-2.21h2.38c1.1 0 2-.9 2-2v-2.38l2.21-2.21c.78-.78.78-2.05 0-2.83l-2.21-2.21Zm-8 7.59c0 .31-.28.54-.59.5-2.21-.29-3.91-2.18-3.91-4.46s1.71-4.17 3.91-4.46c.31-.04.59.18.59.5v7.93Z"/></svg>