<svg xmlns="http://www.w3.org/2000/svg" width="24" height="24" viewBox="0 0 24 24"><path d="M18 4H9v.03c-1.21.13-2.34.76-3.09 1.73l-3.4 4.42a3 3 0 0 0 0 3.66l3.4 4.41c.75.97 1.88 1.6 3.09 1.73v.03h9c2.48 0 4.5-2.02 4.5-4.5v-7c0-2.48-2.02-4.5-4.5-4.5Zm-.97 9.97c.29.29.29.77 0 1.06-.15.15-.34.22-.53.22s-.38-.07-.53-.22L14 13.06l-1.97 1.97c-.15.15-.34.22-.53.22s-.38-.07-.53-.22a.754.754 0 0 1 0-1.06L12.94 12l-1.97-1.97c-.29-.29-.29-.77 0-1.06s.77-.29 1.06 0L14 10.94l1.97-1.97c.29-.29.77-.29 1.06 0s.29.77 0 1.06L15.06 12z"/></svg>