<svg xmlns="http://www.w3.org/2000/svg" viewBox="0 0 24 24" width="24" height="24"><path d="m19.78,7.48c-.49.61-1.08,1.85-1.08,4.32,0,.96-.9,1.71-1.9,1.45-.67-.18-1.1-.83-1.1-1.52.01-2.94.73-4.76,1.56-5.89.18-.25.1-.61-.19-.74-.43-.19-.88-.36-1.33-.51-.17-.05-.36,0-.5.11-.88.78-2.14,2.66-2.14,7.11,0,.83-.67,1.5-1.5,1.5s-1.5-.67-1.5-1.5c0-3.23.6-5.47,1.4-7.03.18-.35-.1-.76-.49-.72-.56.05-1.11.13-1.64.25-.14.03-.26.11-.33.23-.74,1.26-1.54,3.31-1.54,7.27,0,.83-.67,1.5-1.5,1.5s-1.5-.67-1.5-1.5c0-1.75.15-3.2.38-4.42.09-.46-.45-.8-.81-.49-1.88,1.62-3.07,3.77-3.07,6.06,0,3.95,4.83,7.05,11,7.05s11-3.1,11-7.05c0-2.04-.95-3.96-2.48-5.51-.21-.21-.55-.19-.74.04Z"/></svg>