<svg xmlns="http://www.w3.org/2000/svg" width="24" height="24" viewBox="0 0 24 24"><path d="M21.25 10.75c.41 0 .75-.34.75-.75s-.34-.75-.75-.75H20V9c0-1.68-.52-3.24-1.41-4.53l1.19-1.19c.29-.29.29-.77 0-1.06s-.77-.29-1.06 0l-1.1 1.1C16.17 1.89 14.19 1 12 1s-4.18.89-5.62 2.32l-1.1-1.1c-.29-.29-.77-.29-1.06 0s-.29.77 0 1.06l1.19 1.19A7.95 7.95 0 0 0 4 9v.25H2.75c-.41 0-.75.34-.75.75s.34.75.75.75H4v2.5H2.75c-.41 0-.75.34-.75.75s.34.75.75.75H4V15c0 4.41 3.59 8 8 8s8-3.59 8-8v-.25h1.25c.41 0 .75-.34.75-.75s-.34-.75-.75-.75H20v-2.5zM14.5 16h-5c-.83 0-1.5-.67-1.5-1.5S8.67 13 9.5 13h5c.83 0 1.5.67 1.5 1.5s-.67 1.5-1.5 1.5m0-5h-5C8.67 11 8 10.33 8 9.5S8.67 8 9.5 8h5c.83 0 1.5.67 1.5 1.5s-.67 1.5-1.5 1.5"/></svg>