<svg xmlns="http://www.w3.org/2000/svg" width="24" height="24" viewBox="0 0 24 24"><path d="M5 19.5v-15C5 3.67 4.33 3 3.5 3S2 3.67 2 4.5v15c0 .83.67 1.5 1.5 1.5S5 20.33 5 19.5M20 15a1 1 0 1 0 0 2 1 1 0 1 0 0-2M20 19a1 1 0 1 0 0 2 1 1 0 1 0 0-2M16 19a1 1 0 1 0 0 2 1 1 0 1 0 0-2M20 3a1 1 0 1 0 0 2 1 1 0 1 0 0-2M20 7a1 1 0 1 0 0 2 1 1 0 1 0 0-2M20 11a1 1 0 1 0 0 2 1 1 0 1 0 0-2M16 11a1 1 0 1 0 0 2 1 1 0 1 0 0-2M12 11a1 1 0 1 0 0 2 1 1 0 1 0 0-2M8 11a1 1 0 1 0 0 2 1 1 0 1 0 0-2M12 15a1 1 0 1 0 0 2 1 1 0 1 0 0-2M12 7a1 1 0 1 0 0 2 1 1 0 1 0 0-2M8 3a1 1 0 1 0 0 2 1 1 0 1 0 0-2M16 3a1 1 0 1 0 0 2 1 1 0 1 0 0-2M12 3a1 1 0 1 0 0 2 1 1 0 1 0 0-2M8 19a1 1 0 1 0 0 2 1 1 0 1 0 0-2M12 19a1 1 0 1 0 0 2 1 1 0 1 0 0-2"/></svg>