<svg xmlns="http://www.w3.org/2000/svg" width="24" height="24" viewBox="0 0 24 24"><path d="M20.29 5.23a1.55 1.55 0 0 0-.62-.57l-7-3.5c-.42-.21-.92-.21-1.34 0l-7 3.5c-.25.13-.47.33-.62.57l-3 5c-.43.71-.2 1.63.51 2.06.24.15.51.21.77.21v9.01c0 .83.67 1.5 1.5 1.5h17c.83 0 1.5-.67 1.5-1.5v-9c.26 0 .53-.07.77-.21.71-.43.94-1.35.51-2.06l-3-5ZM12 6a2.5 2.5 0 0 1 0 5 2.5 2.5 0 0 1 0-5m-4 9.18 2.82 2.32L8 19.82v-4.65ZM8.93 14h6.14L12 16.53zM16 15.18v4.65l-2.82-2.32L16 15.19ZM8.93 21 12 18.47 15.07 21z"/></svg>