<svg xmlns="http://www.w3.org/2000/svg" viewBox="0 0 24 24" width="24" height="24"><path d="m17,6.44v-.44c0-2.76-2.24-5-5-5s-5,2.24-5,5v.44c-2.91,1.03-5,3.8-5,7.06v6c0,1.93,1.57,3.5,3.5,3.5h13c1.93,0,3.5-1.57,3.5-3.5v-6c0-3.26-2.09-6.03-5-7.06Zm-5-2.44c1.1,0,2,.9,2,2h-4c0-1.1.9-2,2-2Zm3.72,10.03l-1.56,1.56.61,1.97c.16.52-.42.95-.87.65l-1.9-1.27-1.9,1.27c-.45.3-1.03-.13-.87-.65l.61-1.97-1.56-1.56c-.34-.34-.13-.94.36-.98l1.9-.16.95-1.93c.21-.43.82-.43,1.03,0l.95,1.93,1.9.16c.49.04.7.63.36.98Z"/></svg>