<svg xmlns="http://www.w3.org/2000/svg" width="24" height="24" viewBox="0 0 24 24"><path d="M16.21 1.33a2.96 2.96 0 0 0-2.53.19L1.77 8.19s-.02.02-.03.02c-.13.07-.24.17-.34.27-.02.02-.03.04-.05.06-.18.22-.3.49-.34.79V19c0 1.65 1.35 3 3 3h16c1.65 0 3-1.35 3-3V9.5c0-5.02-4.75-7.38-6.79-8.17ZM6.5 18c-.83 0-1.5-.67-1.5-1.5S5.67 15 6.5 15s1.5.67 1.5 1.5S7.33 18 6.5 18m5-3c-.83 0-1.5-.67-1.5-1.5s.67-1.5 1.5-1.5 1.5.67 1.5 1.5-.67 1.5-1.5 1.5m5.5 3c-1.1 0-2-.9-2-2s.9-2 2-2 2 .9 2 2-.9 2-2 2M8.24 8l6.89-3.87c1.21.47 3.75 1.68 4.59 3.87z"/></svg>