<svg xmlns="http://www.w3.org/2000/svg" viewBox="0 0 24 24" width="24" height="24"><path d="m2.17,6.36c-.09.32.15.64.49.64h18.69c.33,0,.57-.32.49-.64-.47-1.77-1.98-3.1-3.84-3.31,0-.02,0-.03,0-.05v-.5c0-.83-.67-1.5-1.5-1.5s-1.5.67-1.5,1.5v.5h-6v-.5c0-.83-.67-1.5-1.5-1.5s-1.5.67-1.5,1.5v.5s0,.03,0,.05c-1.86.21-3.37,1.54-3.84,3.31Z"/><path d="M12 13.67A1.93 1.93 0 1 0 12 17.53 1.93 1.93 0 1 0 12 13.67z"/><path d="m21.5,8H2.5c-.28,0-.5.22-.5.5v10c0,2.49,2.01,4.5,4.5,4.5h11c2.49,0,4.5-2.01,4.5-4.5v-10c0-.28-.22-.5-.5-.5Zm-5.55,7.6c0,.24-.02.48-.07.71l.41.24c.38.22.51.71.29,1.09l-.52.91c-.22.38-.71.51-1.09.29l-.43-.25c-.36.31-.78.55-1.22.71v.48c0,.44-.36.8-.8.8h-1.05c-.44,0-.8-.36-.8-.8v-.48c-.44-.16-.86-.4-1.22-.71l-.43.25c-.38.22-.87.09-1.09-.29l-.52-.91c-.22-.38-.09-.87.29-1.09l.41-.24c-.05-.24-.07-.48-.07-.71s.02-.48.07-.71l-.41-.24c-.38-.22-.51-.71-.29-1.09l.52-.91c.22-.38.71-.51,1.09-.29l.43.25c.36-.31.78-.55,1.22-.71v-.48c0-.44.36-.8.8-.8h1.05c.44,0,.8.36.8.8v.48c.44.16.86.4,1.22.71l.43-.25c.38-.22.87-.09,1.09.29l.52.91c.22.38.09.87-.29,1.09l-.41.24c.05.24.07.47.07.71Z"/></svg>