<svg xmlns="http://www.w3.org/2000/svg" viewBox="0 0 24 24" width="24" height="24"><path d="m2.75,23c.27,0,.53-.15.67-.4l2.36-4.5c.19-.37.05-.82-.32-1.01-.36-.19-.82-.05-1.01.32l-2.36,4.5c-.19.37-.05.82.32,1.01.11.06.23.09.35.09Z"/><path d="m7.12,22.91c.11.06.23.09.35.09.27,0,.53-.15.67-.4l2.36-4.5c.19-.37.05-.82-.32-1.01-.36-.19-.82-.05-1.01.32l-2.36,4.5c-.19.37-.05.82.32,1.01Z"/><path d="m12.18,23c.27,0,.53-.15.67-.4l2.36-4.5c.19-.37.05-.82-.32-1.01-.37-.19-.82-.05-1.01.32l-2.36,4.5c-.19.37-.05.82.32,1.01.11.06.23.09.35.09Z"/><path d="m16.89,23c.27,0,.53-.15.67-.4l2.36-4.5c.19-.37.05-.82-.32-1.01-.37-.19-.82-.05-1.01.32l-2.36,4.5c-.19.37-.05.82.32,1.01.11.06.23.09.35.09Z"/><path d="m20.11,7.25c-.57-3.54-3.49-6.25-6.99-6.25-2.28,0-4.36,1.14-5.68,3.05-3.41-.5-6.43,2.38-6.43,5.95,0,3.31,2.55,6,5.69,6h12.01c2.37,0,4.29-2.02,4.29-4.5,0-1.97-1.21-3.64-2.89-4.25Z"/></svg>