<svg xmlns="http://www.w3.org/2000/svg" width="24" height="24" viewBox="0 0 24 24"><path d="M20.52 18h1.03l.9-2.21c.83-2.04.71-4.41-.32-6.36-1.04-1.94-2.81-3.18-4.86-3.4-1.57-.16-3.2.29-4.52 1.23V5h1.5c.41 0 .75-.34.75-.75s-.34-.75-.75-.75h-1.5v-1c0-.41-.34-.75-.75-.75s-.75.34-.75.75v1h-1.5c-.41 0-.75.34-.75.75s.34.75.75.75h1.5v2.25c-1.32-.93-2.94-1.38-4.52-1.23-2.05.22-3.82 1.46-4.85 3.4a7.53 7.53 0 0 0-.32 6.36l.9 2.21h1.03c-1.37 0-2.48 1.12-2.48 2.5s1.12 2.5 2.5 2.5h17a2.5 2.5 0 0 0 .02-5Z"/></svg>