<svg xmlns="http://www.w3.org/2000/svg" viewBox="0 0 24 24" width="24" height="24"><path d="m22.99,2.21c0-.45-.54-.67-.85-.36l-1.14,1.14h-8l-1.14-1.14c-.32-.32-.86-.09-.85.36v.79s0,0,0,0v6c0,3.31,2.69,6,6,6s6-2.69,6-6V3h0v-.79Zm-8.74,6.79c-.69,0-1.25-.56-1.25-1.25s.56-1.25,1.25-1.25,1.25.56,1.25,1.25-.56,1.25-1.25,1.25Zm5.5,0c-.69,0-1.25-.56-1.25-1.25s.56-1.25,1.25-1.25,1.25.56,1.25,1.25-.56,1.25-1.25,1.25Z"/><path d="m10,9h-5c-.55,0-1-.45-1-1s.45-1,1-1c2.01,0,5-1.2,5-4.5,0-.83-.67-1.5-1.5-1.5s-1.5.67-1.5,1.5c0,1.36-1.54,1.49-2,1.5-2.21,0-4,1.79-4,4,0,1.51.85,2.81,2.08,3.49l.79,8.72c.14,1.58,1.47,2.79,3.06,2.79,1.69,0,3.07-1.37,3.07-3.07v-.93h4v.93c0,1.69,1.37,3.07,3.07,3.07h.02c1.57,0,2.89-1.19,3.05-2.75l.56-5.32c-1.08.67-2.34,1.07-3.7,1.07-3.86,0-7-3.14-7-7Z"/></svg>