<svg xmlns="http://www.w3.org/2000/svg" viewBox="0 0 24 24" width="24" height="24"><path d="m2.65,7h18.69c.33,0,.57-.32.49-.64-.47-1.77-1.98-3.1-3.84-3.31,0-.02,0-.03,0-.05v-.5c0-.83-.67-1.5-1.5-1.5s-1.5.67-1.5,1.5v.5h-6v-.5c0-.83-.67-1.5-1.5-1.5s-1.5.67-1.5,1.5v.5s0,.03,0,.05c-1.86.21-3.37,1.54-3.84,3.31-.09.32.15.64.49.64Z"/><path d="m21.5,8H2.5c-.28,0-.5.22-.5.5v10c0,2.49,2.01,4.5,4.5,4.5h11c2.49,0,4.5-2.01,4.5-4.5v-10c0-.28-.22-.5-.5-.5Zm-13.5,10c0,.55-.45,1-1,1h-1c-.55,0-1-.45-1-1v-1c0-.55.45-1,1-1h1c.55,0,1,.45,1,1v1Zm0-5c0,.55-.45,1-1,1h-1c-.55,0-1-.45-1-1v-1c0-.55.45-1,1-1h1c.55,0,1,.45,1,1v1Zm5.5,5c0,.55-.45,1-1,1h-1c-.55,0-1-.45-1-1v-1c0-.55.45-1,1-1h1c.55,0,1,.45,1,1v1Zm0-5c0,.55-.45,1-1,1h-1c-.55,0-1-.45-1-1v-1c0-.55.45-1,1-1h1c.55,0,1,.45,1,1v1Zm5.5,5c0,.55-.45,1-1,1h-1c-.55,0-1-.45-1-1v-1c0-.55.45-1,1-1h1c.55,0,1,.45,1,1v1Zm0-5c0,.55-.45,1-1,1h-1c-.55,0-1-.45-1-1v-1c0-.55.45-1,1-1h1c.55,0,1,.45,1,1v1Z"/></svg>