<svg xmlns="http://www.w3.org/2000/svg" viewBox="0 0 24 24" width="24" height="24"><path d="m21.22,11.29l-2.97-1.32v-4.38c0-1.18-.7-2.26-1.78-2.74l-3.25-1.44c-.77-.34-1.66-.34-2.44,0l-3.25,1.44s0,0,0,0c-1.08.48-1.78,1.56-1.78,2.74v4.38l-2.97,1.32s0,0,0,0c-1.08.48-1.78,1.56-1.78,2.74v4.38c0,1.18.7,2.26,1.78,2.74l3.25,1.44c.39.17.8.26,1.22.26s.83-.09,1.22-.26l3.53-1.57,3.53,1.57c.39.17.8.26,1.22.26s.83-.09,1.22-.26l3.25-1.45c1.08-.48,1.78-1.56,1.78-2.74v-4.38c0-1.18-.7-2.26-1.78-2.74Zm-13.72,3.64l-2.76-1.23,2.51-1.12,2.76,1.23-2.51,1.12Zm7.75-4.96l-2.5,1.11v-2.84l2.5-1.11v2.84Zm1.25,4.96l-2.51-1.12,2.76-1.23,2.51,1.12-2.76,1.23Zm-4.5-10.79l3.14,1.39-3.14,1.39-3.14-1.39,3.14-1.39Zm-3.75,15.27v-3.18l2.25-1v3.18l-2.25,1Zm9,.22v-3.4l2.75-1.22v3.4l-2.75,1.22Z"/></svg>