<svg xmlns="http://www.w3.org/2000/svg" viewBox="0 0 24 24" width="24" height="24"><path d="m16.91,4.53c-.7-.91-1.84-1.33-2.94-1.12-.75-1.43-2.24-2.41-3.97-2.41-2.48,0-4.5,2.02-4.5,4.5,0,.49.1.97.25,1.43l-2.95,1.31c-1.09.48-1.8,1.55-1.8,2.75v5.77c0,1.45,1.04,2.69,2.46,2.96l16,2.94c.18.03.37.05.55.05.69,0,1.37-.24,1.92-.69.68-.57,1.08-1.41,1.08-2.3v-6.19c0-.65-.22-1.3-.62-1.82l-5.47-7.16Zm-5.41.96h0s0,0,0,0h0Zm-1.5-1.49c.81,0,1.46.63,1.49,1.44,0,.04,0,.07,0,.11,0,.16-.04.33-.11.5-.28.74-1.1,1.2-1.94.84-.2-.08-.36-.18-.52-.34-.27-.26-.43-.64-.43-1.04,0-.83.67-1.5,1.5-1.5Zm-6,12.75v-4.49s16,2.53,16,2.53v1.79s-13.14-2.19-13.14-2.19c-.41-.07-.79.21-.86.62-.07.41.21.8.62.86l13.38,2.23v1.6s-16-2.94-16-2.94Z"/></svg>