<svg xmlns="http://www.w3.org/2000/svg" viewBox="0 0 24 24" width="24" height="24"><path d="m2.17,6.36c-.09.32.15.64.49.64h18.69c.33,0,.57-.32.49-.64-.47-1.77-1.98-3.1-3.84-3.31,0-.02,0-.03,0-.05v-.5c0-.83-.67-1.5-1.5-1.5s-1.5.67-1.5,1.5v.5h-6v-.5c0-.83-.67-1.5-1.5-1.5s-1.5.67-1.5,1.5v.5s0,.03,0,.05c-1.86.21-3.37,1.54-3.84,3.31Z"/><path d="m21.5,8H2.5c-.28,0-.5.22-.5.5v10c0,2.49,2.01,4.5,4.5,4.5h11c2.49,0,4.5-2.01,4.5-4.5v-10c0-.28-.22-.5-.5-.5Zm-5.19,9.69c.59.59.59,1.54,0,2.12-.29.29-.68.44-1.06.44s-.77-.15-1.06-.44l-2.19-2.19-2.19,2.19c-.29.29-.68.44-1.06.44s-.77-.15-1.06-.44c-.59-.59-.59-1.54,0-2.12l2.19-2.19-2.19-2.19c-.59-.59-.59-1.54,0-2.12.59-.59,1.54-.59,2.12,0l2.19,2.19,2.19-2.19c.59-.59,1.54-.59,2.12,0,.59.59.59,1.54,0,2.12l-2.19,2.19,2.19,2.19Z"/></svg>