<svg xmlns="http://www.w3.org/2000/svg" width="24" height="24" viewBox="0 0 24 24"><path d="M23 9.75c0-.41-.34-.75-.75-.75s-.75.34-.75.75V11H18V6c.55 0 1-.45 1-1V1.75c0-.41-.34-.75-.75-.75s-.75.34-.75.75V3h-1.62V1.75c0-.41-.34-.75-.75-.75s-.75.34-.75.75V3h-1.62V1.75c0-.41-.34-.75-.75-.75s-.75.34-.75.75V3H9.64V1.75c0-.41-.34-.75-.75-.75s-.75.34-.75.75V3H6.52V1.75c0-.41-.34-.75-.75-.75s-.75.34-.75.75V5c0 .55.45 1 1 1v5h-3.5V9.75c0-.41-.34-.75-.75-.75s-.75.34-.75.75v.5s.01.05.02.08c0 .06-.02.11-.02.17v11c0 .83.67 1.5 1.5 1.5h5c.83 0 1.5-.67 1.5-1.5V19c0-1.66 1.34-3 3-3s3 1.34 3 3v2.5c0 .83.67 1.5 1.5 1.5h5c.83 0 1.5-.67 1.5-1.5v-11c0-.06-.01-.11-.02-.17 0-.03.02-.05.02-.08v-.5ZM10 9.5c0 .28-.22.5-.5.5h-1c-.28 0-.5-.22-.5-.5v-3c0-.28.22-.5.5-.5h1c.28 0 .5.22.5.5zm6 0c0 .28-.22.5-.5.5h-1c-.28 0-.5-.22-.5-.5v-3c0-.28.22-.5.5-.5h1c.28 0 .5.22.5.5z"/></svg>