<svg xmlns="http://www.w3.org/2000/svg" viewBox="0 0 24 24" width="24" height="24"><path d="m17.5,1H6.5c-2.48,0-4.5,2.02-4.5,4.5v5.5h20v-5.5c0-2.48-2.02-4.5-4.5-4.5Zm-1.75,5.25c0,.41-.34.75-.75.75h-6c-.41,0-.75-.34-.75-.75v-1.25c0-.41.34-.75.75-.75s.75.34.75.75v.5h4.5v-.5c0-.41.34-.75.75-.75s.75.34.75.75v1.25Z"/><path d="m2,18.5c0,2.48,2.02,4.5,4.5,4.5h11c2.48,0,4.5-2.02,4.5-4.5v-5.5H2v5.5Zm6.25-1.5c0-.41.34-.75.75-.75s.75.34.75.75v.5h4.5v-.5c0-.41.34-.75.75-.75s.75.34.75.75v1.25c0,.41-.34.75-.75.75h-6c-.41,0-.75-.34-.75-.75v-1.25Z"/></svg>