<svg xmlns="http://www.w3.org/2000/svg" viewBox="0 0 24 24" width="24" height="24"><path d="m20.5,14c0-1.15-.22-2.26-.67-3.31-.43-1.01-1.04-1.92-1.82-2.7-.32-.32-.66-.6-1.02-.86,0-.04.01-.08.01-.13,0-2.76-2.24-5-5-5s-5,2.24-5,5c0,.04.01.08.01.13-.36.26-.71.54-1.02.86-.78.78-1.39,1.69-1.82,2.7-.44,1.05-.67,2.16-.67,3.31-1.38,0-2.5,1.12-2.5,2.5v3c0,1.38,1.12,2.5,2.5,2.5h3c1.38,0,2.5-1.12,2.5-2.5v-3c0-1.38-1.12-2.5-2.5-2.5,0-.74.15-1.46.43-2.14.28-.66.67-1.24,1.18-1.75,0,0,0,0,0,0,.92,1.14,2.31,1.89,3.89,1.89s2.97-.75,3.89-1.89c0,0,0,0,0,0,.51.51.9,1.09,1.18,1.75.29.68.43,1.4.43,2.14-1.38,0-2.5,1.12-2.5,2.5v3c0,1.38,1.12,2.5,2.5,2.5h3c1.38,0,2.5-1.12,2.5-2.5v-3c0-1.38-1.12-2.5-2.5-2.5Zm-8.5-5c-1.1,0-2-.9-2-2s.9-2,2-2,2,.9,2,2-.9,2-2,2Z"/></svg>