<svg xmlns="http://www.w3.org/2000/svg" width="24" height="24" viewBox="0 0 24 24"><path d="M16.5 4.5c.28 0 .5-.22.5-.5V2h-.09c-.21-.58-.76-1-1.41-1h-7c-.65 0-1.2.42-1.41 1H7v2c0 .28.22.5.5.5z"/><path d="M18 2.05V4c0 .83-.67 1.5-1.5 1.5h-9C6.67 5.5 6 4.83 6 4V2.05C3.76 2.3 2 4.19 2 6.5v12C2 20.98 4.02 23 6.5 23h11c2.48 0 4.5-2.02 4.5-4.5v-12c0-2.31-1.76-4.2-4-4.45m-7.5 13.33c.59.59.59 1.54 0 2.12-.59.59-1.54.59-2.12 0l-2.44-2.44a1.49 1.49 0 0 1 0-2.12l2.44-2.44a1.49 1.49 0 0 1 2.12 0c.59.59.59 1.54 0 2.12L9.12 14zm7.56-.32-2.44 2.44c-.59.59-1.54.59-2.12 0a1.49 1.49 0 0 1 0-2.12L14.88 14l-1.38-1.38a1.49 1.49 0 0 1 0-2.12 1.49 1.49 0 0 1 2.12 0l2.44 2.44c.59.59.59 1.54 0 2.12"/></svg>