<svg xmlns="http://www.w3.org/2000/svg" viewBox="0 0 24 24" width="24" height="24"><path d="m12,21.5c-1.26,0-2.48-.24-3.62-.72-.38-.16-.82.02-.98.41-.16.38.02.82.41.98,1.33.55,2.74.83,4.2.83h.01c.41,0,.74-.34.74-.75s-.34-.75-.75-.75Z"/><path d="m3.23,15.65c-.16-.38-.6-.56-.98-.4-.38.16-.56.6-.4.98.56,1.34,1.36,2.54,2.39,3.56.15.15.34.22.53.22s.38-.07.53-.22c.29-.29.29-.77,0-1.06-.89-.89-1.58-1.92-2.07-3.08Z"/><path d="m18.72,18.71c-.89.89-1.92,1.58-3.08,2.06-.38.16-.56.6-.4.98.12.29.4.46.69.46.1,0,.19-.02.29-.06,1.34-.56,2.54-1.36,3.56-2.39.29-.29.29-.77,0-1.06-.29-.29-.77-.29-1.06,0Z"/><path d="m22.25,11.23c-.41,0-.75.36-.75.77,0,1.26-.24,2.48-.72,3.63-.16.38.02.82.41.98.09.04.19.06.29.06.29,0,.57-.17.69-.46.55-1.34.83-2.75.83-4.21v-.04c0-.41-.34-.73-.75-.73Z"/><path d="m4.73,5.52c.19,0,.38-.07.53-.22.89-.89,1.92-1.59,3.07-2.07.38-.16.56-.6.4-.98-.16-.38-.6-.56-.98-.4-1.34.56-2.53,1.36-3.56,2.4-.29.29-.29.77,0,1.06.15.15.34.22.53.22Z"/><path d="m12,2.5c1.25,0,2.46.24,3.61.71.09.04.19.06.29.06.29,0,.57-.17.69-.46.16-.38-.03-.82-.41-.98-1.32-.54-2.72-.82-4.2-.82h0v.75s0-.75,0-.75c-.41,0-.73.33-.73.75s.35.75.77.75Z"/><path d="m20.77,8.33c.12.29.4.46.69.46.1,0,.2-.02.29-.06.38-.16.56-.6.4-.98-.56-1.33-1.37-2.53-2.4-3.56-.29-.29-.77-.29-1.06,0s-.29.77,0,1.06c.89.89,1.59,1.92,2.07,3.07Z"/><path d="m2.5,12c0-1.25.24-2.47.71-3.62.16-.38-.02-.82-.41-.98-.38-.16-.82.02-.98.41-.55,1.33-.83,2.74-.83,4.19v.02c0,.41.34.74.75.74s.75-.35.75-.76Z"/><path d="M12 5A7 7 0 1 0 12 19 7 7 0 1 0 12 5z"/></svg>