<svg xmlns="http://www.w3.org/2000/svg" viewBox="0 0 24 24" width="24" height="24"><path class="b" d="M12 10.75A2.25 2.25 0 1 0 12 15.25 2.25 2.25 0 1 0 12 10.75z"/><path class="b" d="m18.5,4h-1.2l-1.12-1.12c-.56-.56-1.33-.88-2.12-.88h-4.12c-.8,0-1.56.32-2.12.88l-1.12,1.12h-1.2c-2.49,0-4.5,2.01-4.5,4.5v9c0,2.49,2.01,4.5,4.5,4.5h13c2.49,0,4.5-2.01,4.5-4.5v-9c0-2.49-2.01-4.5-4.5-4.5Zm-6.5,14.25c-2.85,0-5.25-2.4-5.25-5.25s2.4-5.25,5.25-5.25,5.25,2.4,5.25,5.25-2.4,5.25-5.25,5.25Zm8-10.25c-.55,0-1-.45-1-1s.45-1,1-1,1,.45,1,1-.45,1-1,1Z"/></svg>