<svg xmlns="http://www.w3.org/2000/svg" viewBox="0 0 24 24" width="24" height="24"><path d="m14.5,18h-.31s0,0,0,0h-2.19s0,0,0,0h-2c-2.21,0-4-1.79-4-4v-4.5c0-.83-.67-1.5-1.5-1.5-1.93,0-3.5,1.57-3.5,3.5v8c0,1.93,1.57,3.5,3.5,3.5h8c1.93,0,3.5-1.57,3.5-3.5,0-.83-.67-1.5-1.5-1.5Z"/><path d="m19.5,1h-8c-1.93,0-3.5,1.57-3.5,3.5v8c0,1.93,1.57,3.5,3.5,3.5h8c1.93,0,3.5-1.57,3.5-3.5V4.5c0-1.93-1.57-3.5-3.5-3.5Zm-1,12h-6c-.83,0-1.5-.67-1.5-1.5s.67-1.5,1.5-1.5h6c.83,0,1.5.67,1.5,1.5s-.67,1.5-1.5,1.5Zm0-6h-6c-.83,0-1.5-.67-1.5-1.5s.67-1.5,1.5-1.5h6c.83,0,1.5.67,1.5,1.5s-.67,1.5-1.5,1.5Z"/></svg>