<svg xmlns="http://www.w3.org/2000/svg" viewBox="0 0 24 24" width="24" height="24"><path d="m21.28,14.95c-.14-.1-3.61-2.36-9.28-2.36s-9.13,2.27-9.28,2.36c-.42.28-.67.75-.67,1.25v2.35c0,1.1.54,2.15,1.43,2.79.89.64,2.05.81,3.09.45,3.38-1.15,7.46-1.15,10.84,0,.36.12.73.18,1.1.18.71,0,1.4-.22,1.99-.64.9-.64,1.43-1.68,1.43-2.79v-2.35c0-.5-.25-.97-.67-1.25Z"/><path d="m16.68,3.08c-.41-.2-.86.25-.66.66.94,1.99,1.56,4.69,1.68,7.75,0,.21.15.4.36.46,2.5.74,3.96,1.69,4.05,1.75.37.25.67.58.89.95v-1.62c0-4.39-2.59-8.19-6.32-9.95Z"/><path d="m7.83,10.85c-.02.32.27.58.59.53,1.08-.18,2.28-.29,3.58-.29s2.5.11,3.58.29c.32.05.61-.2.59-.53-.26-3.95-1.38-6.95-2.67-8.3,0-.02,0-.03,0-.05,0-.83-.67-1.5-1.5-1.5s-1.5.67-1.5,1.5c0,.02,0,.03,0,.05-1.29,1.35-2.41,4.35-2.67,8.3Z"/><path d="m6.31,11.48c.12-3.05.73-5.75,1.68-7.74.2-.41-.25-.86-.66-.66C3.59,4.84,1,8.64,1,13.03v1.62c.22-.37.52-.7.89-.95.1-.07,1.55-1.02,4.05-1.75.21-.06.36-.25.36-.47Z"/></svg>