<svg xmlns="http://www.w3.org/2000/svg" width="24" height="24" viewBox="0 0 24 24"><path d="M7.5 17h4c.83 0 1.5-.67 1.5-1.5s-.67-1.5-1.5-1.5h-4c-.83 0-1.5.67-1.5 1.5S6.67 17 7.5 17M7.5 12h12c.83 0 1.5-.67 1.5-1.5S20.33 9 19.5 9h-12C6.67 9 6 9.67 6 10.5S6.67 12 7.5 12M7.5 7h7c.83 0 1.5-.67 1.5-1.5S15.33 4 14.5 4h-7C6.67 4 6 4.67 6 5.5S6.67 7 7.5 7"/><path d="M21.5 20h-17c-.28 0-.5-.22-.5-.5v-17C4 1.67 3.33 1 2.5 1S1 1.67 1 2.5v17C1 21.43 2.57 23 4.5 23h17c.83 0 1.5-.67 1.5-1.5s-.67-1.5-1.5-1.5"/></svg>