<svg xmlns="http://www.w3.org/2000/svg" viewBox="0 0 24 24" width="24" height="24"><path d="m17.31,9c-.25,0-.49.02-.74.05-1.32-1.91-3.41-3.05-5.68-3.05-3.5,0-6.42,2.71-6.99,6.25-1.68.61-2.89,2.29-2.89,4.25,0,2.48,1.93,4.5,4.29,4.5h12.01c3.14,0,5.69-2.69,5.69-6s-2.55-6-5.69-6Z"/><path d="m18.09,1.36c-.3-.3-.73-.46-1.16-.44-.28.02-.56.04-.83.09-.38.08-.74.19-1.08.34-.34.14-.67.32-.98.53-.3.2-.59.44-.85.7-.26.26-.5.55-.7.85-.14.21-.25.44-.36.67,2.05.3,3.95,1.32,5.37,2.9,1.92.05,3.65.83,4.98,2.08.03-.06.07-.12.1-.19.15-.35.26-.71.33-1.08.05-.26.08-.54.09-.85.02-.42-.13-.84-.43-1.14-.3-.3-.71-.46-1.14-.44-.08,0-.15.01-.15.02-1.52,0-2.76-1.24-2.76-2.68,0-.04.02-.17.02-.21.03-.43-.14-.85-.44-1.15Z"/></svg>