<svg xmlns="http://www.w3.org/2000/svg" viewBox="0 0 24 24" width="24" height="24"><path d="m22.64,9.15c-.16-.58-.53-1.07-1.05-1.37l-1.14-.66v-1.32c0-1.24-1.01-2.25-2.25-2.25h-1.32l-.66-1.15c-.62-1.07-2-1.44-3.07-.82l-1.14.66-1.14-.66c-1.08-.62-2.45-.25-3.07.82l-.66,1.14h-1.32c-1.24,0-2.25,1.01-2.25,2.25v1.32l-1.15.66c-.52.3-.89.79-1.04,1.37-.16.58-.08,1.19.23,1.71l.66,1.14-.66,1.14c-.3.52-.38,1.13-.23,1.71.16.58.53,1.07,1.05,1.37l1.14.66v1.32c0,1.24,1.01,2.25,2.25,2.25h1.32l.66,1.14c.42.72,1.17,1.12,1.95,1.12.38,0,.77-.1,1.12-.3l1.14-.66,1.15.66c1.07.62,2.45.25,3.07-.82l.66-1.14h1.32c1.24,0,2.25-1.01,2.25-2.25v-1.32l1.14-.66c.52-.3.89-.79,1.05-1.37.16-.58.08-1.19-.22-1.71l-.66-1.14.66-1.14c.3-.52.38-1.13.22-1.71Z"/></svg>