<svg xmlns="http://www.w3.org/2000/svg" viewBox="0 0 24 24" width="24" height="24"><path d="m21.51,5.27l-4.63-2.7c-.79-.46-1.74-.54-2.59-.21L2.92,6.73c-1.15.44-1.92,1.57-1.92,2.8v6.61c0,1.06.57,2.06,1.49,2.59l4.63,2.7c.47.27.99.41,1.51.41.36,0,.73-.07,1.08-.2l11.37-4.37c1.15-.44,1.92-1.57,1.92-2.8v-6.61c0-1.06-.57-2.06-1.49-2.59Zm-6.15-.11l2.68,1.56-9.41,3.62-2.68-1.56,9.41-3.62Zm-5.37,7.87l2.31-.89v5.29l-2.31.89v-5.29Zm3.81-1.46l2.72-1.05v5.29l-2.72,1.05v-5.29Zm4.22,3.66v-5.29l1.97-.76v5.29l-1.97.76Z"/></svg>