<svg xmlns="http://www.w3.org/2000/svg" viewBox="0 0 24 24" width="24" height="24"><path d="m12,1c-.39,0-.78.02-1.16.06-.82.09-1.42.83-1.33,1.65.08.77.73,1.34,1.49,1.34.05,0,.11,0,.17,0,.27-.03.55-.05.83-.05,4.34,0,8,3.66,8,8s-3.66,8-8,8c-.28,0-.56-.02-.83-.05-.82-.09-1.56.5-1.66,1.33-.09.82.5,1.56,1.33,1.65.38.04.77.06,1.16.06,5.96,0,11-5.04,11-11S17.96,1,12,1Z"/><path d="m7.07,18.24c-.47-.38-.9-.8-1.28-1.27-.52-.64-1.46-.74-2.11-.22-.64.52-.74,1.47-.22,2.11.52.64,1.1,1.22,1.74,1.73.28.22.61.33.93.33.44,0,.88-.19,1.17-.56.52-.65.41-1.59-.24-2.11Z"/><path d="m4.05,12.89c-.04-.29-.05-.59-.05-.89s.02-.6.05-.89c.1-.82-.49-1.57-1.32-1.66-.82-.1-1.57.49-1.67,1.31-.05.41-.07.82-.07,1.24s.02.83.07,1.24c.09.76.74,1.33,1.49,1.33.06,0,.12,0,.18-.01.82-.1,1.41-.84,1.32-1.66Z"/><path d="m4.62,7.59c.44,0,.87-.19,1.17-.56.38-.47.81-.9,1.28-1.27.65-.52.75-1.46.24-2.11-.52-.65-1.46-.75-2.11-.24-.64.51-1.23,1.09-1.74,1.73-.52.64-.42,1.59.22,2.11.28.22.61.33.94.33Z"/><path d="m12,7c-.41,0-.75.34-.75.75v4.25c0,.41.34.75.75.75h4.25c.41,0,.75-.34.75-.75s-.34-.75-.75-.75h-3.5v-3.5c0-.41-.34-.75-.75-.75Z"/></svg>