<svg xmlns="http://www.w3.org/2000/svg" viewBox="0 0 24 24" width="24" height="24"><path d="M19.22 3.72A10.94 10.94 0 0 0 12 1C5.93 1 1 5.93 1 12c0 2.76 1.03 5.28 2.72 7.22zm-4.59 1.13 1.2-1.2c.15-.15.38-.15.53 0s.15.38 0 .53l-1.2 1.2c-.07.07-.17.11-.27.11s-.19-.04-.26-.11a.37.37 0 0 1 0-.53m-2.74 2.74 1.2-1.2c.14-.15.38-.15.53 0s.15.38 0 .53l-1.2 1.2c-.07.07-.17.11-.26.11s-.19-.04-.27-.11a.37.37 0 0 1 0-.53m-2.74 2.74 1.2-1.2c.14-.15.38-.15.53 0s.15.38 0 .53l-1.2 1.2c-.07.07-.17.11-.26.11s-.19-.04-.27-.11a.37.37 0 0 1 0-.53m-2.74 2.74 1.2-1.2c.15-.15.38-.15.53 0s.15.38 0 .53l-1.2 1.2c-.07.07-.17.11-.27.11s-.19-.04-.27-.11a.37.37 0 0 1 0-.53Zm-2.74 2.74 1.2-1.2c.14-.15.38-.15.53 0s.15.38 0 .53l-1.2 1.2c-.07.07-.17.11-.26.11s-.19-.04-.27-.11a.37.37 0 0 1 0-.53M4.78 20.28C6.71 21.97 9.24 23 12 23c6.07 0 11-4.93 11-11 0-2.76-1.03-5.28-2.72-7.22zm4.62-1.15-1.2 1.2c-.07.07-.17.11-.26.11s-.19-.04-.27-.11a.37.37 0 0 1 0-.53l1.2-1.2c.14-.15.38-.15.53 0s.15.38 0 .53m2.74-2.74-1.2 1.2c-.07.07-.17.11-.27.11s-.19-.04-.27-.11a.37.37 0 0 1 0-.53l1.2-1.2c.15-.15.38-.15.53 0s.15.38 0 .53Zm2.74-2.74-1.2 1.2c-.07.07-.17.11-.26.11s-.19-.04-.27-.11a.37.37 0 0 1 0-.53l1.2-1.2c.14-.15.38-.15.53 0s.15.38 0 .53m2.74-2.74-1.2 1.2c-.07.07-.17.11-.26.11s-.19-.04-.27-.11a.37.37 0 0 1 0-.53l1.2-1.2c.14-.15.38-.15.53 0s.15.38 0 .53m2.74-2.74-1.2 1.2c-.07.07-.17.11-.27.11s-.19-.04-.26-.11a.37.37 0 0 1 0-.53l1.2-1.2c.15-.15.38-.15.53 0s.15.38 0 .53"/></svg>