<svg xmlns="http://www.w3.org/2000/svg" viewBox="0 0 24 24" width="24" height="24"><path d="M8.75 18.5A2.25 2.25 0 1 0 8.75 23 2.25 2.25 0 1 0 8.75 18.5z"/><path d="M17.75 18.5A2.25 2.25 0 1 0 17.75 23 2.25 2.25 0 1 0 17.75 18.5z"/><path d="m20.46,5H6.84l-.58-1.88c-.39-1.27-1.54-2.12-2.87-2.12h-.89c-.83,0-1.5.67-1.5,1.5s.67,1.5,1.5,1.5h.89l3.02,9.82c.58,1.9,2.31,3.18,4.3,3.18h5.62c1.94,0,3.66-1.24,4.27-3.08l1.99-5.96c.23-.68.11-1.44-.31-2.03-.42-.58-1.1-.93-1.83-.93Zm-4.31,7.24c.39.39.39,1.02,0,1.41s-1.02.39-1.41,0l-1.24-1.24-1.24,1.24c-.39.39-1.02.39-1.41,0s-.39-1.02,0-1.41l1.24-1.24-1.24-1.24c-.39-.39-.39-1.02,0-1.41.39-.39,1.02-.39,1.41,0l1.24,1.24,1.24-1.24c.39-.39,1.02-.39,1.41,0,.39.39.39,1.02,0,1.41l-1.24,1.24,1.24,1.24Z"/></svg>