<svg xmlns="http://www.w3.org/2000/svg" width="24" height="24" viewBox="0 0 24 24"><path d="M13.39 17.28a.49.49 0 0 0-.46-.13c-.3.06-.62.1-.94.1-2.85 0-5.25-2.4-5.25-5.25 0-.32.04-.63.1-.94a.51.51 0 0 0-.13-.46L2.36 6.25a.506.506 0 0 0-.8.11A4.4 4.4 0 0 0 1 8.5v8C1 18.99 3.01 21 5.5 21h10.4c.45 0 .67-.54.35-.85l-2.86-2.86ZM18.5 4h-1.2l-1.11-1.66A3 3 0 0 0 13.69 1H10.3c-1 0-1.94.5-2.5 1.34L6.69 4h-1.2c-.14 0-.28.01-.41.03l-2.8-2.81c-.29-.29-.77-.29-1.06 0s-.29.77 0 1.06l2.23 2.23 4.37 4.37 13.89 13.89c.15.15.34.22.53.22s.38-.07.53-.22c.29-.29.29-.77 0-1.06l-1.62-1.62a4.44 4.44 0 0 0 1.84-3.6v-8c0-2.48-2.02-4.5-4.5-4.5ZM14 12.94c.15-.29.25-.61.25-.94 0-1.2-1.05-2.25-2.25-2.25-.34 0-.65.1-.94.25L8.89 7.83c.88-.67 1.95-1.08 3.11-1.08 2.85 0 5.25 2.4 5.25 5.25 0 1.16-.41 2.23-1.08 3.11z"/></svg>