<svg xmlns="http://www.w3.org/2000/svg" viewBox="0 0 24 24" width="24" height="24"><path d="m11.31,9.7c.39.37.99.37,1.38,0l3.83-3.63c.44-.54.71-1.21.71-1.95,0-1.72-1.4-3.12-3.13-3.12-.81,0-1.53.31-2.09.81-.56-.5-1.28-.81-2.09-.81-1.73,0-3.13,1.4-3.13,3.12,0,.74.27,1.42.71,1.95l3.83,3.63Z"/><path d="m12.69,14.3c-.39-.37-.99-.37-1.38,0l-3.83,3.63c-.44.54-.71,1.21-.71,1.95,0,1.72,1.4,3.12,3.13,3.12.81,0,1.53-.31,2.09-.81.56.5,1.28.81,2.09.81,1.73,0,3.13-1.4,3.13-3.12,0-.74-.27-1.42-.71-1.95l-3.83-3.63Z"/><path d="m19.88,6.77c-.74,0-1.42.27-1.95.71l-3.63,3.83c-.37.39-.37.99,0,1.38l3.63,3.83c.54.44,1.21.71,1.95.71,1.72,0,3.12-1.4,3.12-3.14,0-.81-.31-1.53-.81-2.09.5-.56.81-1.28.81-2.09,0-1.73-1.4-3.14-3.12-3.14Z"/><path d="m9.7,11.31l-3.63-3.83c-.54-.44-1.21-.71-1.95-.71-1.72,0-3.12,1.4-3.12,3.14,0,.81.31,1.53.81,2.09-.5.56-.81,1.28-.81,2.09,0,1.73,1.4,3.14,3.12,3.14.74,0,1.42-.27,1.95-.71l3.63-3.83c.37-.39.37-.99,0-1.38Z"/></svg>