<svg xmlns="http://www.w3.org/2000/svg" viewBox="0 0 24 24" width="24" height="24"><path d="m2.17,6.36c-.09.32.15.64.49.64h18.69c.33,0,.57-.32.49-.64-.47-1.77-1.98-3.1-3.84-3.31,0-.02,0-.03,0-.05v-.5c0-.83-.67-1.5-1.5-1.5s-1.5.67-1.5,1.5v.5h-6v-.5c0-.83-.67-1.5-1.5-1.5s-1.5.67-1.5,1.5v.5s0,.03,0,.05c-1.86.21-3.37,1.54-3.84,3.31Z"/><path d="m21.5,8H2.5c-.28,0-.5.22-.5.5v10c0,2.49,2.01,4.5,4.5,4.5h11c2.49,0,4.5-2.01,4.5-4.5v-10c0-.28-.22-.5-.5-.5Zm-5.25,11.5c-.59.59-1.54.59-2.12,0l-.44-.44.04-.04c-.6.3-1.27.48-1.98.48-2.48,0-4.5-2.02-4.5-4.5s2.02-4.5,4.5-4.5,4.5,2.02,4.5,4.5c0,.71-.18,1.38-.48,1.98l.04-.04.44.44c.59.59.59,1.54,0,2.12Z"/><path d="M11.75 13.5A1.5 1.5 0 1 0 11.75 16.5 1.5 1.5 0 1 0 11.75 13.5z"/></svg>