<svg xmlns="http://www.w3.org/2000/svg" width="24" height="24" viewBox="0 0 24 24"><path d="M22.25 10c.41 0 .75-.34.75-.75s-.34-.75-.75-.75H21v-1C21 5.02 18.98 3 16.5 3h-1V1.75c0-.41-.34-.75-.75-.75s-.75.34-.75.75V3h-4V1.75c0-.41-.34-.75-.75-.75s-.75.34-.75.75V3h-1C5.02 3 3 5.02 3 7.5v1H1.75c-.41 0-.75.34-.75.75s.34.75.75.75H3v4H1.75c-.41 0-.75.34-.75.75s.34.75.75.75H3v1C3 18.98 5.02 21 7.5 21h1v1.25c0 .41.34.75.75.75s.75-.34.75-.75V21h4v1.25c0 .41.34.75.75.75s.75-.34.75-.75V21h1c2.48 0 4.5-2.02 4.5-4.5v-1h1.25c.41 0 .75-.34.75-.75s-.34-.75-.75-.75H21v-4zM16 14.5c0 .83-.67 1.5-1.5 1.5h-5c-.83 0-1.5-.67-1.5-1.5v-5C8 8.67 8.67 8 9.5 8h5c.83 0 1.5.67 1.5 1.5z"/></svg>