<svg xmlns="http://www.w3.org/2000/svg" viewBox="0 0 24 24" width="24" height="24"><path d="m5.02,16.99c0-.07-.02-.13-.03-.2-.22-2.65.64-5.31,2.35-7.48-.49-.63-.92-1.43-.92-2.65,0-1.71.85-2.62,1.53-3.34.62-.66,1.11-1.19,1.12-2.29-.19-.02-.38-.03-.57-.03C4.36,1,1,4.81,1,9.5c0,3.26,1.64,6.07,4.02,7.49Z"/><path d="m14.87,5.03c-.98-1.78-2.51-3.12-4.32-3.7-.1,1.5-.87,2.34-1.51,3.02-.63.67-1.12,1.2-1.12,2.32,0,.66.18,1.11.45,1.51,1.5-1.47,3.32-2.49,5.29-2.94.4-.09.8-.16,1.21-.2Z"/><path d="m6.99,16.63c.08.96.35,1.85.77,2.66,1.01-.65,1.99-.69,2.87-.72,1.01-.03,1.8-.06,2.68-.94s.9-1.67.93-2.67c.04-1.12.08-2.39,1.37-3.69,1.29-1.29,2.56-1.33,3.68-1.37.79-.03,1.44-.05,2.11-.48-.13-.16-.26-.31-.41-.45-1.73-1.72-4.3-2.39-6.87-1.79-1.66.38-3.19,1.24-4.44,2.5-1.92,1.92-2.9,4.45-2.69,6.95Z"/><path d="m13.98,23h0c2.28,0,4.57-.99,6.29-2.72,1.73-1.72,2.72-4.01,2.72-6.29,0-1.19-.27-2.32-.78-3.32-1.01.65-1.99.7-2.88.73-1.01.03-1.8.06-2.67.93-.87.87-.9,1.67-.93,2.68-.04,1.12-.08,2.39-1.37,3.69s-2.56,1.34-3.69,1.37c-.78.03-1.43.05-2.09.47.13.15.24.32.39.46,1.3,1.3,3.07,2.01,5.01,2.01Z"/></svg>