<svg xmlns="http://www.w3.org/2000/svg" viewBox="0 0 24 24" width="24" height="24"><path d="m20.12,5c-.63-1.8-2.34-3-4.24-3h-7.76c-1.9,0-3.61,1.21-4.24,3l-1.73,4.91c-.73.66-1.15,1.59-1.15,2.59v3c0,1.19.6,2.23,1.5,2.86v2.14c0,.83.67,1.5,1.5,1.5h1c.83,0,1.5-.67,1.5-1.5v-1.5h11v1.5c0,.83.67,1.5,1.5,1.5h1c.83,0,1.5-.67,1.5-1.5v-2.14c.9-.63,1.5-1.68,1.5-2.86v-3c0-1-.42-1.93-1.15-2.59l-1.73-4.91Zm-14.12,11c-1.1,0-2-.9-2-2s.9-2,2-2,2,.9,2,2-.9,2-2,2Zm9.2-6.71l-4.06,5.32c-.17.22-.24.18-.16-.08l.88-2.93c.08-.26-.08-.48-.36-.48h-2.5c-.28,0-.36-.18-.2-.4l4.06-5.32c.17-.22.24-.18.16.08l-.88,2.93c-.08.26.08.48.36.48h2.5c.28,0,.36.18.2.4Zm.8,4.71c0-1.1.9-2,2-2s2,.9,2,2-.9,2-2,2-2-.9-2-2Z"/></svg>