<svg xmlns="http://www.w3.org/2000/svg" viewBox="0 0 24 24" width="24" height="24"><path d="m12,5c-4.96,0-9,4.04-9,9s4.04,9,9,9,9-4.04,9-9c0-4.18-2.87-7.7-6.75-8.7,1.24-1.53,3.13-2.52,5.25-2.52.41,0,.75-.34.75-.75s-.34-.75-.75-.75c-1.38,0-2.69.35-3.83.95-.58-.43-1.91-1.23-3.67-1.23-1.57,0-2.8.65-3.46,1.09-.29.2-.29.63,0,.82.66.44,1.89,1.09,3.46,1.09.59,0,1.12-.09,1.6-.23-.38.38-.71.81-1.01,1.26-.2-.01-.39-.03-.6-.03Zm4.5,9c0-.41.34-.75.75-.75s.75.34.75.75c0,3.31-2.69,6-6,6-.41,0-.75-.34-.75-.75s.34-.75.75-.75c2.48,0,4.5-2.02,4.5-4.5Z"/></svg>