<svg xmlns="http://www.w3.org/2000/svg" viewBox="0 0 24 24" width="24" height="24"><path class="b" d="m20.5,16h-5.5v-1h3.5c1.93,0,3.5-1.57,3.5-3.5v-7c0-1.93-1.57-3.5-3.5-3.5H5.5c-1.93,0-3.5,1.57-3.5,3.5v7c0,1.93,1.57,3.5,3.5,3.5h3.5v1H3.5c-1.38,0-2.5,1.12-2.5,2.5v2c0,1.38,1.12,2.5,2.5,2.5h17c1.38,0,2.5-1.12,2.5-2.5v-2c0-1.38-1.12-2.5-2.5-2.5Zm-15.5-4.5v-7c0-.28.22-.5.5-.5h13c.28,0,.5.22.5.5v7c0,.28-.22.5-.5.5H5.5c-.28,0-.5-.22-.5-.5Zm10.25,8.75H4.75c-.41,0-.75-.34-.75-.75s.34-.75.75-.75h10.5c.41,0,.75.34.75.75s-.34.75-.75.75Zm3.75.25c-.55,0-1-.45-1-1s.45-1,1-1,1,.45,1,1-.45,1-1,1Z"/></svg>