<svg xmlns="http://www.w3.org/2000/svg" viewBox="0 0 24 24" width="24" height="24"><path d="m12,1C5.93,1,1,5.93,1,12s4.93,11,11,11,11-4.93,11-11S18.07,1,12,1Zm1,11s-.01.04-.01.06c0,.07-.02.13-.04.2-.02.07-.03.13-.06.19,0,.02,0,.04-.02.06-.04.07-.09.13-.15.19,0,0,0,.01-.01.02-.08.08-.18.14-.28.19-.03.01-.05.02-.08.03-.11.04-.22.07-.34.07,0,0,0,0,0,0,0,0,0,0,0,0,0,0,0,0,0,0-.12,0-.23-.03-.34-.07-.03-.01-.06-.02-.08-.03-.02-.01-.05-.02-.07-.03l-4.55-2.62c-.48-.28-.64-.89-.37-1.37.28-.48.89-.64,1.37-.37l3.05,1.76v-3.52c0-.55.45-1,1-1s1,.45,1,1v5.25Z"/></svg>