<svg xmlns="http://www.w3.org/2000/svg" viewBox="0 0 24 24" width="24" height="24"><path d="m17.96,10.04l-5.21-2.84v-2.45h1.5c.41,0,.75-.34.75-.75s-.34-.75-.75-.75h-1.5v-1.5c0-.41-.34-.75-.75-.75s-.75.34-.75.75v1.5h-1.5c-.41,0-.75.34-.75.75s.34.75.75.75h1.5v2.45l-5.21,2.84c-.64.35-1.04,1.02-1.04,1.76v11.2h4v-3c0-1.66,1.34-3,3-3s3,1.34,3,3v3h4v-11.2c0-.73-.4-1.41-1.04-1.76Zm-5.96,4.46c-1.1,0-2-.9-2-2s.9-2,2-2,2,.9,2,2-.9,2-2,2Z"/><path d="m1,15.31v5.69c0,1.1.9,2,2,2h1v-10.46l-1.92.98c-.67.34-1.08,1.03-1.08,1.78Z"/><path d="m21.91,13.53l-1.91-.98v10.46h1c1.1,0,2-.9,2-2v-5.69c0-.75-.42-1.43-1.09-1.78Z"/></svg>