<svg xmlns="http://www.w3.org/2000/svg" viewBox="0 0 24 24" width="24" height="24"><path d="m16.05,9.09l4.4-2.85c-.16-.14-.33-.27-.51-.39l-5.5-3.56c-1.49-.96-3.4-.96-4.89,0l-5.5,3.56c-.18.12-.35.25-.51.39l4.4,2.85c.91-1.26,2.38-2.09,4.05-2.09s3.14.83,4.05,2.09Z"/><path d="m7.01,12.05l-4.93-3.19c-.04.25-.07.51-.07.77v4.74c0,1.53.77,2.95,2.06,3.78l5.5,3.56c.3.19.62.34.95.45v-5.41c-2-.64-3.47-2.48-3.49-4.69Z"/><path d="m16.99,12.05c-.02,2.21-1.49,4.05-3.49,4.69v5.41c.33-.12.65-.26.94-.45l5.5-3.56c1.29-.83,2.06-2.24,2.06-3.78v-4.74c0-.26-.03-.52-.07-.77l-4.93,3.19Z"/></svg>