<svg xmlns="http://www.w3.org/2000/svg" viewBox="0 0 24 24" width="24" height="24"><path d="m20.25,18h-11.5c-.41,0-.75.34-.75.75s.34.75.75.75h11.5c.41,0,.75-.34.75-.75s-.34-.75-.75-.75Z"/><path d="m5.25,18h-1.5c-.41,0-.75.34-.75.75s.34.75.75.75h1.5c.41,0,.75-.34.75-.75s-.34-.75-.75-.75Z"/><path d="m17.25,21.5H6.75c-.41,0-.75.34-.75.75s.34.75.75.75h10.5c.41,0,.75-.34.75-.75s-.34-.75-.75-.75Z"/><path d="m20.11,7.25c-.57-3.54-3.49-6.25-6.99-6.25-2.28,0-4.36,1.14-5.68,3.05-3.41-.5-6.43,2.38-6.43,5.95,0,3.31,2.55,6,5.69,6h12.01c2.37,0,4.29-2.02,4.29-4.5,0-1.97-1.21-3.64-2.89-4.25Z"/></svg>