<svg xmlns="http://www.w3.org/2000/svg" viewBox="0 0 24 24" width="24" height="24"><path d="m12,10c-3.58,0-6.5,2.92-6.5,6.5s2.92,6.5,6.5,6.5,6.5-2.92,6.5-6.5-2.92-6.5-6.5-6.5Zm2.73,8.89c-.15.29-.36.55-.62.76-.27.21-.58.38-.93.49-.09.03-.19.04-.29.06v.13c0,.49-.4.89-.89.89s-.89-.4-.89-.89v-.16c-.12-.03-.23-.06-.35-.1-.31-.12-.6-.29-.87-.51-.19-.15-.36-.32-.52-.5-.31-.38-.26-.93.11-1.25.38-.31.93-.26,1.25.11.05.06.14.16.26.25.13.11.27.19.42.25.4.16.88.13,1.22.02.14-.05.26-.11.36-.18.07-.05.12-.12.15-.18.02-.04.03-.09.03-.13,0-.12-.02-.21-.05-.28-.02-.03-.04-.07-.11-.11-.08-.05-.21-.1-.36-.13-.18-.04-.41-.06-.66-.06-.39,0-.72-.03-1.03-.09-.36-.07-.68-.2-.95-.36-.32-.2-.57-.47-.73-.8-.16-.32-.24-.68-.24-1.09,0-.33.08-.64.22-.94.15-.29.36-.55.63-.77.26-.21.58-.37.93-.48.09-.03.19-.04.28-.06v-.13c0-.49.4-.89.89-.89s.89.4.89.89v.17c.11.03.23.06.33.11.3.14.57.33.8.58.16.17.3.37.41.58.23.43.06.97-.38,1.2-.43.23-.97.06-1.2-.38-.02-.04-.06-.11-.13-.18-.07-.07-.15-.13-.25-.18-.31-.14-.8-.11-1.13,0-.14.04-.26.1-.36.18-.07.05-.12.11-.15.17-.02.05-.04.09-.04.14,0,.12.02.22.05.29.02.03.04.07.1.11.06.04.16.09.35.13.18.04.41.06.67.06.38,0,.72.03,1.03.1.36.08.68.2.95.37.32.2.57.47.73.79.16.32.25.68.25,1.09,0,.32-.08.64-.22.93Z"/><path d="m10.37,5.31l-.5,1.62c-.11.35.28.64.58.43l1.55-1.03,1.55,1.03c.3.2.69-.09.58-.43l-.5-1.62,1.25-1.25c.23-.23.09-.63-.24-.66l-1.54-.13-.76-1.54c-.14-.29-.55-.29-.69,0l-.76,1.54-1.54.13c-.33.03-.47.43-.24.66l1.25,1.25Z"/><path d="m22.17,6.55l-1.22-.11-.61-1.24c-.14-.28-.53-.28-.66,0l-.61,1.24-1.22.11c-.31.03-.45.41-.23.63l1,1-.39,1.27c-.1.33.27.61.56.42l1.22-.82,1.22.82c.29.19.66-.08.56-.42l-.39-1.27,1-1c.22-.22.08-.6-.23-.63Z"/><path d="m5.78,9.46l-.39-1.27,1-1c.22-.22.08-.6-.23-.63l-1.22-.11-.61-1.24c-.14-.28-.53-.28-.66,0l-.61,1.24-1.22.11c-.31.03-.45.41-.23.63l1,1-.39,1.27c-.1.33.27.61.56.42l1.22-.82,1.22.82c.29.19.66-.08.56-.42Z"/></svg>