<svg xmlns="http://www.w3.org/2000/svg" viewBox="0 0 24 24" width="24" height="24"><path d="m5.08,9h13.84c.24,0,.44-.17.49-.4l.58-2.93c.28-1.42-.16-2.93-1.28-3.84-1.2-.97-2.8-1.12-4.15-.4l-2.56,1.37-2.4-1.28c-1.28-.68-2.86-.69-4.05.12-1.27.87-1.88,2.36-1.58,3.86l.62,3.1c.05.23.25.4.49.4Z"/><path d="m19.56,12.37c-.06-.22-.26-.37-.48-.37H4.92c-.23,0-.42.15-.48.37l-1.83,6.72c-.22.8-.17,1.67.25,2.39.55.96,1.53,1.52,2.61,1.52h2.54v-8.25c0-.41.34-.75.75-.75s.75.34.75.75v8.25h5v-8.25c0-.41.34-.75.75-.75s.75.34.75.75v8.25h2.54c1.08,0,2.06-.56,2.61-1.52.41-.72.47-1.59.25-2.39l-1.83-6.72Z"/></svg>