<svg xmlns="http://www.w3.org/2000/svg" viewBox="0 0 24 24" width="24" height="24"><path d="m21.76,8.64l.09-.09s0,0,0,0c.97-.97.97-2.56,0-3.54l-2.87-2.87c-.97-.97-2.56-.98-3.54,0l-.09.09-.11-.11c-.98-.98-2.56-.97-3.54,0l-.58.58c-.97.97-.97,2.56,0,3.54l2.25,2.25-4.88,4.88-2.25-2.25c-.98-.98-2.56-.97-3.54,0l-.58.58c-.97.97-.97,2.56,0,3.54l.11.11-.09.09c-.97.97-.97,2.56,0,3.54l2.87,2.87c.47.47,1.1.73,1.77.73h0c.67,0,1.3-.26,1.77-.73l.09-.09.11.11c.47.47,1.1.73,1.77.73h0c.67,0,1.3-.26,1.77-.73l.58-.58c.47-.47.73-1.1.73-1.77s-.26-1.3-.73-1.77l-2.25-2.25,4.88-4.88,2.25,2.25c.47.47,1.1.73,1.77.73h0c.67,0,1.3-.26,1.76-.73l.59-.58s0,0,0,0c.97-.97.97-2.56,0-3.54l-.11-.11Z"/></svg>