<svg xmlns="http://www.w3.org/2000/svg" viewBox="0 0 24 24" width="24" height="24"><path d="m17.5,1H6.5c-2.48,0-4.5,2.02-4.5,4.5v13c0,2.48,2.02,4.5,4.5,4.5h11c2.48,0,4.5-2.02,4.5-4.5V5.5c0-2.48-2.02-4.5-4.5-4.5Zm-2.5,3c.55,0,1,.45,1,1s-.45,1-1,1-1-.45-1-1,.45-1,1-1Zm-3,16c-3.31,0-6-2.69-6-6s2.69-6,6-6,6,2.69,6,6-2.69,6-6,6Zm6-14c-.55,0-1-.45-1-1s.45-1,1-1,1,.45,1,1-.45,1-1,1Z"/><path d="m9.3,18.25c-.41,0-.75-.34-.75-.75,0-.93.58-1.42.97-1.74.34-.29.43-.38.43-.59s-.09-.3-.43-.59c-.39-.32-.97-.81-.97-1.74s.58-1.42.97-1.74c.34-.29.43-.38.43-.59,0-.41.34-.75.75-.75s.75.34.75.75c0,.93-.58,1.42-.97,1.74-.34.29-.43.38-.43.59s.09.3.43.59c.39.32.97.81.97,1.74s-.58,1.42-.97,1.74c-.34.29-.43.38-.43.59,0,.41-.34.75-.75.75Z"/><path d="m13.3,18.25c-.41,0-.75-.34-.75-.75,0-.93.58-1.42.97-1.74.34-.29.43-.38.43-.59s-.09-.3-.43-.59c-.39-.32-.97-.81-.97-1.74s.58-1.42.97-1.74c.34-.29.43-.38.43-.59,0-.41.34-.75.75-.75s.75.34.75.75c0,.93-.58,1.42-.97,1.74-.34.29-.43.38-.43.59s.09.3.43.59c.39.32.97.81.97,1.74s-.58,1.42-.97,1.74c-.34.29-.43.38-.43.59,0,.41-.34.75-.75.75Z"/></svg>