<svg xmlns="http://www.w3.org/2000/svg" viewBox="0 0 24 24" width="24" height="24"><path d="m13.45,7.23c1.59.48,2.84,1.73,3.32,3.32.13.42.51.7.95.7h4.11c.62,0,1.1-.57.99-1.18-.8-4.52-4.36-8.09-8.89-8.89-.61-.11-1.18.36-1.18.98v3.75c0,.81.28,1.19.7,1.32Z"/><path d="m16.77,13.45c-.69,2.28-2.94,3.87-5.53,3.49-2.13-.31-3.87-2.06-4.19-4.19-.38-2.58,1.22-4.84,3.49-5.53.42-.13.7-.51.7-.95V2.17c0-.63-.57-1.1-1.19-.99C4.46,2.18.32,7.4,1.09,13.44c.62,4.89,4.58,8.84,9.47,9.47,6.04.77,11.26-3.37,12.26-8.97.11-.62-.36-1.19-.99-1.19h-4.11c-.44,0-.82.28-.95.7Z"/></svg>