<svg xmlns="http://www.w3.org/2000/svg" width="24" height="24" viewBox="0 0 24 24"><path d="M12 1C5.93 1 1 5.93 1 12s4.93 11 11 11 11-4.93 11-11S18.07 1 12 1m4.62 15.04c-.25.49-.6.93-1.06 1.29-.45.36-.98.64-1.58.83-.15.05-.32.07-.48.11v.23c0 .83-.67 1.5-1.5 1.5s-1.5-.67-1.5-1.5v-.27c-.2-.05-.4-.1-.59-.17-.52-.21-1.02-.5-1.47-.86-.32-.26-.62-.54-.87-.85-.53-.64-.45-1.58.19-2.11s1.58-.44 2.11.19c.09.1.23.26.44.43.22.18.46.32.71.42.67.27 1.48.22 2.06.04.24-.08.45-.18.61-.31.11-.09.2-.2.25-.3.04-.08.06-.15.06-.22 0-.2-.03-.36-.08-.47-.03-.05-.07-.12-.19-.19a1.8 1.8 0 0 0-.61-.22c-.31-.07-.69-.1-1.12-.1-.66 0-1.22-.05-1.74-.16-.61-.13-1.16-.33-1.6-.62-.54-.34-.96-.8-1.24-1.35-.27-.54-.41-1.16-.41-1.85 0-.55.13-1.08.38-1.58s.61-.93 1.07-1.3c.45-.36.98-.63 1.58-.82.15-.05.32-.07.47-.1v-.22c0-.83.67-1.5 1.5-1.5s1.5.67 1.5 1.5v.29c.19.06.39.1.56.18.51.23.97.56 1.36.97.28.29.52.63.7.98.38.73.1 1.64-.64 2.02s-1.64.1-2.02-.64c-.03-.06-.1-.18-.22-.3q-.18-.195-.42-.3c-.52-.24-1.36-.18-1.91-.01-.24.08-.45.18-.6.3-.11.09-.2.19-.25.29q-.06.12-.06.24c0 .21.03.38.09.49.03.05.07.11.17.18.09.06.28.15.6.21.31.06.69.1 1.14.1.64 0 1.23.05 1.74.16.61.13 1.15.34 1.6.63.54.35.96.8 1.24 1.34s.42 1.16.42 1.84c0 .53-.13 1.08-.38 1.57Z"/></svg>