<svg xmlns="http://www.w3.org/2000/svg" width="24" height="24" viewBox="0 0 24 24"><path d="M10.5 13.36V18c-.92-.23-1.85-.67-2.27-1.35-.29-.48-.77-.8-1.33-.8-1.16 0-1.89 1.26-1.3 2.27.94 1.62 2.86 2.61 4.9 2.94v.43c0 .83.67 1.5 1.5 1.5s1.5-.67 1.5-1.5v-.43c2.88-.47 5.5-2.26 5.5-5.22s-2.62-4.76-5.5-5.22V5.99c.92.23 1.85.66 2.27 1.34.3.48.77.81 1.33.81 1.16 0 1.89-1.26 1.32-2.27-.99-1.72-3.06-2.63-4.92-2.94v-.44c0-.83-.67-1.5-1.5-1.5s-1.5.67-1.5 1.5v.43C7.62 3.39 5 5.18 5 8.14s2.86 4.75 5.5 5.21Zm5.5 2.49c0 1.16-1.26 1.84-2.5 2.15v-4.3c1.24.31 2.5.99 2.5 2.15M10.5 6v4.29C9.27 9.97 8 9.28 8 8.15S9.26 6.31 10.5 6"/></svg>