<svg xmlns="http://www.w3.org/2000/svg" viewBox="0 0 24 24" width="24" height="24"><path d="m22.07,9.56c-.56-.23-1.21-.1-1.63.33l-.25.25c-1.52,1.52-3.84,1.85-5.79.84,0,0-.01,0-.02-.01,1.01-1.36,1.44-3.09,1.13-4.83-.44-2.47-2.38-4.48-4.83-4.99-1.88-.39-3.8.07-5.27,1.26-1.14.92-1.89,2.2-2.18,3.6-.5,0-1.16,0-1.71,0-.3,0-.53.2-.49.42.11.74.57,2.21,2.31,2.52.16.57.4,1.11.72,1.61-2.08,1.36-3.27,3.78-3.04,6.32.32,3.44,3.38,6.13,6.97,6.13h5.85c5.21,0,9.15-3.65,9.15-8.5v-3.56c0-.61-.37-1.15-.93-1.39Zm-13.57-1.56c-.83,0-1.5-.67-1.5-1.5s.67-1.5,1.5-1.5,1.5.67,1.5,1.5-.67,1.5-1.5,1.5Z"/></svg>