<svg xmlns="http://www.w3.org/2000/svg" width="24" height="24" viewBox="0 0 24 24"><path d="M12 1C5.93 1 1 5.93 1 12s4.93 11 11 11 11-4.93 11-11S18.07 1 12 1M8.97 13.03 8 12.06l-.97.97c-.15.15-.34.22-.53.22s-.38-.07-.53-.22a.754.754 0 0 1 0-1.06l.97-.97-.97-.97c-.29-.29-.29-.77 0-1.06s.77-.29 1.06 0l.97.97.97-.97c.29-.29.77-.29 1.06 0s.29.77 0 1.06l-.97.97.97.97c.29.29.29.77 0 1.06-.15.15-.34.22-.53.22s-.38-.07-.53-.22m4.28 4.47h-2.5c-.41 0-.75-.34-.75-.75s.34-.75.75-.75h2.5c.41 0 .75.34.75.75s-.34.75-.75.75m4.78-5.53c.29.29.29.77 0 1.06-.15.15-.34.22-.53.22s-.38-.07-.53-.22l-.97-.97-.97.97c-.15.15-.34.22-.53.22s-.38-.07-.53-.22a.754.754 0 0 1 0-1.06l.97-.97-.97-.97c-.29-.29-.29-.77 0-1.06s.77-.29 1.06 0l.97.97.97-.97c.29-.29.77-.29 1.06 0s.29.77 0 1.06l-.97.97z"/></svg>