<svg xmlns="http://www.w3.org/2000/svg" viewBox="0 0 24 24" width="24" height="24"><path d="m12.25,20.5c0-.41-.34-.75-.75-.75h-1.5c-.41,0-.75.34-.75.75s.34.75.75.75h1.5c.41,0,.75-.34.75-.75Z"/><path d="m16.75,20.5c0-.41-.34-.75-.75-.75h-1.5c-.41,0-.75.34-.75.75s.34.75.75.75h1.5c.41,0,.75-.34.75-.75Z"/><path d="M20.5 18A2.5 2.5 0 1 0 20.5 23 2.5 2.5 0 1 0 20.5 18z"/><path d="m2.5,22c8.43,0,17.97-17.32,19.03-19.29.39-.73.12-1.64-.61-2.03-.73-.39-1.64-.12-2.03.61C15.2,8.14,7.5,19,2.5,19c-.83,0-1.5.67-1.5,1.5s.67,1.5,1.5,1.5Z"/></svg>