<svg xmlns="http://www.w3.org/2000/svg" viewBox="0 0 24 24" width="24" height="24"><path class="b" d="m21.53,7.23l-8.07-3.71c-.93-.42-1.99-.42-2.92,0,0,0,0,0,0,0L2.48,7.23c-.9.41-1.46,1.28-1.46,2.27,0,.03.01.06.01.09-.01.05-.03.1-.03.16v5.5c0,.41.34.75.75.75s.75-.34.75-.75v-3.47l8.04,3.7c.46.21.96.32,1.46.32s1-.11,1.46-.32l8.06-3.71c.9-.41,1.46-1.28,1.46-2.27s-.56-1.86-1.46-2.27Z"/><path class="b" d="m12,17.8c-.79,0-1.57-.17-2.29-.5l-5.7-2.62v.83c0,2.48,3.69,5.5,8,5.5s8-3.02,8-5.5v-.83l-5.7,2.62c-.73.33-1.5.5-2.3.5Z"/></svg>