<svg xmlns="http://www.w3.org/2000/svg" viewBox="0 0 24 24" width="24" height="24"><path d="m12.49,13.62l9.93-8.28c-.77-1.39-2.23-2.34-3.92-2.34H5.5c-1.66,0-3.09.91-3.87,2.24l9.89,8.37c.28.23.68.24.96,0Z"/><path d="m15.84,12.78l6.32,6.32c.52-.74.84-1.63.84-2.6V7.5c0-.22-.03-.43-.06-.64l-7.1,5.91Z"/><path d="m13.45,14.77c-.42.35-.93.52-1.44.52s-1.03-.18-1.45-.53l-1.22-1.03-6.43,6.43c.74.52,1.63.84,2.6.84h13c.97,0,1.86-.32,2.6-.84l-6.42-6.42-1.23,1.03Z"/><path d="m1.08,6.74c-.04.25-.08.5-.08.76v9c0,.97.32,1.86.84,2.6l6.34-6.34L1.08,6.74Z"/></svg>