<svg xmlns="http://www.w3.org/2000/svg" viewBox="0 0 24 24" width="24" height="24"><path d="m21,5h-3v-1c0-1.66-1.34-3-3-3h-6c-1.66,0-3,1.34-3,3v2.64l-4.51,2.63c-.92.54-1.49,1.52-1.49,2.59v8.14c0,1.66,1.34,3,3,3h1c.55,0,1-.45,1-1v-7.75c0-.69.45-1.25,1-1.25s1,.56,1,1.25v7.75c0,.55.45,1,1,1h13c1.66,0,3-1.34,3-3v-12c0-1.66-1.34-3-3-3Zm-7.5,11.75c0,.41-.34.75-.75.75h-1c-.41,0-.75-.34-.75-.75v-1c0-.41.34-.75.75-.75h1c.41,0,.75.34.75.75v1Zm0-5c0,.41-.34.75-.75.75h-1c-.41,0-.75-.34-.75-.75v-1c0-.41.34-.75.75-.75h1c.41,0,.75.34.75.75v1Zm0-4.5c0,.41-.34.75-.75.75h-1c-.41,0-.75-.34-.75-.75v-1c0-.41.34-.75.75-.75h1c.41,0,.75.34.75.75v1Zm6,9.5c0,.41-.34.75-.75.75h-1c-.41,0-.75-.34-.75-.75v-1c0-.41.34-.75.75-.75h1c.41,0,.75.34.75.75v1Zm0-5c0,.41-.34.75-.75.75h-1c-.41,0-.75-.34-.75-.75v-1c0-.41.34-.75.75-.75h1c.41,0,.75.34.75.75v1Z"/></svg>