<svg xmlns="http://www.w3.org/2000/svg" viewBox="0 0 24 24" width="24" height="24"><path d="m19.44,2.44l-2.23,2.23c-1.47-1.05-3.27-1.67-5.21-1.67C7.04,3,3,7.04,3,12c0,1.94.62,3.73,1.67,5.21l-2.23,2.23c-.59.59-.59,1.54,0,2.12.29.29.68.44,1.06.44s.77-.15,1.06-.44l2.23-2.23c1.47,1.05,3.27,1.67,5.21,1.67,4.96,0,9-4.04,9-9,0-1.94-.62-3.73-1.67-5.21l2.23-2.23c.59-.59.59-1.54,0-2.12-.59-.59-1.54-.59-2.12,0ZM6,12c0-3.31,2.69-6,6-6,1.11,0,2.15.31,3.04.84L6.84,15.04c-.53-.89-.84-1.93-.84-3.04Zm12,0c0,3.31-2.69,6-6,6-1.11,0-2.15-.31-3.04-.84l8.2-8.2c.53.89.84,1.93.84,3.04Z"/></svg>