<svg xmlns="http://www.w3.org/2000/svg" viewBox="0 0 24 24" width="24" height="24"><path d="m13,1c-4.96,0-9,4.04-9,9v7c0,3.25,2.65,6,5.79,6,2.81,0,3.94-1.54,4.93-2.9.48-.66.98-1.34,1.72-1.93.41-.33.82-.63,1.22-.92,2.13-1.56,4.34-3.18,4.34-7.25,0-4.96-4.04-9-9-9Zm4.18,8.99c-.41.07-.8-.2-.87-.61-.13-.75-.47-1.44-.93-1.89-1.3-1.27-3.56-1.27-4.86,0-.51.5-.83,1.16-.95,1.87,1.03.26,1.97.76,2.72,1.5.89.88,1.45,2.01,1.64,3.28.06.41-.22.79-.63.85-.04,0-.07,0-.11,0-.37,0-.69-.27-.74-.64-.14-.94-.56-1.79-1.22-2.44-.48-.48-1.07-.83-1.72-1.04v3.37c0,.41-.34.75-.75.75s-.75-.34-.75-.75v-4.35c0-1.31.53-2.58,1.45-3.48.93-.91,2.17-1.42,3.48-1.42s2.55.5,3.48,1.42c.68.67,1.18,1.66,1.36,2.71.07.41-.2.8-.61.87Z"/></svg>