<svg xmlns="http://www.w3.org/2000/svg" viewBox="0 0 24 24" width="24" height="24"><path d="m15.67,3.03l-1.76,1.76-.35-.35c-.59-.59-1.54-.59-2.12,0-.59.59-.59,1.54,0,2.12l.35.35L3.5,15.2c-.19.19-.33.43-.39.7l-.86,3.43c-.17.69.02,1.4.53,1.9.38.38.88.59,1.41.59.16,0,.33-.02.49-.06l3.43-.86c.26-.07.5-.2.7-.39l8.29-8.29.35.35c.29.29.68.44,1.06.44s.77-.15,1.06-.44c.59-.59.59-1.54,0-2.12l-.35-.35,1.76-1.76c1.46-1.46,1.46-3.84,0-5.3-1.42-1.42-3.88-1.42-5.3,0Zm-8.71,15.06l-1.41.35.35-1.41,8-8,1.06,1.06-8,8Z"/></svg>