<svg xmlns="http://www.w3.org/2000/svg" viewBox="0 0 24 24" width="24" height="24"><path d="m21.5,4H2.5c-.83,0-1.5.67-1.5,1.5v9c0,.83.67,1.5,1.5,1.5h1.5v.5c0,.83.67,1.5,1.5,1.5h1.5v.5c0,.83.67,1.5,1.5,1.5h7c.83,0,1.5-.67,1.5-1.5v-.5h1.5c.83,0,1.5-.67,1.5-1.5v-.5h1.5c.83,0,1.5-.67,1.5-1.5V5.5c0-.83-.67-1.5-1.5-1.5Zm-15.25,6.25c0,.41-.34.75-.75.75s-.75-.34-.75-.75v-2.5c0-.41.34-.75.75-.75s.75.34.75.75v2.5Zm3.25,0c0,.41-.34.75-.75.75s-.75-.34-.75-.75v-2.5c0-.41.34-.75.75-.75s.75.34.75.75v2.5Zm3.25,0c0,.41-.34.75-.75.75s-.75-.34-.75-.75v-2.5c0-.41.34-.75.75-.75s.75.34.75.75v2.5Zm3.25,0c0,.41-.34.75-.75.75s-.75-.34-.75-.75v-2.5c0-.41.34-.75.75-.75s.75.34.75.75v2.5Zm3.25,0c0,.41-.34.75-.75.75s-.75-.34-.75-.75v-2.5c0-.41.34-.75.75-.75s.75.34.75.75v2.5Z"/></svg>