<svg xmlns="http://www.w3.org/2000/svg" viewBox="0 0 24 24" width="24" height="24"><path d="m12.5,4.25h1.5c.41,0,.75-.34.75-.75s-.34-.75-.75-.75h-1.5c-.41,0-.75.34-.75.75s.34.75.75.75Z"/><path d="m8,2.75c-.41,0-.75.34-.75.75s.34.75.75.75h1.5c.41,0,.75-.34.75-.75s-.34-.75-.75-.75h-1.5Z"/><path d="M3.5 1A2.5 2.5 0 1 0 3.5 6 2.5 2.5 0 1 0 3.5 1z"/><path d="m21.5,2C13.07,2,3.53,19.32,2.47,21.29c-.39.73-.12,1.64.61,2.03.23.12.47.18.71.18.53,0,1.05-.29,1.32-.79,3.68-6.85,11.38-17.71,16.38-17.71.83,0,1.5-.67,1.5-1.5s-.67-1.5-1.5-1.5Z"/></svg>