<svg xmlns="http://www.w3.org/2000/svg" width="24" height="24" viewBox="0 0 24 24"><path d="M6.5 22h11c2.48 0 4.5-2.02 4.5-4.5v-4c0-.83-.67-1.5-1.5-1.5s-1.5.67-1.5 1.5v4c0 .83-.67 1.5-1.5 1.5h-11c-.83 0-1.5-.67-1.5-1.5v-11C5 5.67 5.67 5 6.5 5h4c.83 0 1.5-.67 1.5-1.5S11.33 2 10.5 2h-4C4.02 2 2 4.02 2 6.5v11C2 19.98 4.02 22 6.5 22"/><path d="M7 13v2.5c0 .83.67 1.5 1.5 1.5H11c.4 0 .78-.16 1.06-.44l6.72-6.72-4.62-4.62-6.72 6.72C7.16 12.22 7 12.6 7 13M20.5 8.12c.57-.57.88-1.32.88-2.12s-.31-1.55-.88-2.12l-.38-.38c-1.13-1.13-3.11-1.13-4.24 0l-.66.66 4.62 4.62z"/></svg>