<svg xmlns="http://www.w3.org/2000/svg" viewBox="0 0 24 24" width="24" height="24"><path d="M8.5 12A1.5 1.5 0 1 0 8.5 15 1.5 1.5 0 1 0 8.5 12z"/><path d="M15.5 12A1.5 1.5 0 1 0 15.5 15 1.5 1.5 0 1 0 15.5 12z"/><path d="m12,23c6.07,0,11-4.93,11-11S18.07,1,12,1,1,5.93,1,12s4.93,11,11,11Zm-7.81-12.73c.82.24,1.66.37,2.53.37.33,0,.65-.02.98-.05.11-.01.21-.03.32-.05.19-.03.37-.05.56-.08.03,0,.05-.01.08-.02.13-.03.25-.06.38-.1.18-.05.35-.09.53-.15.14-.05.29-.1.43-.16.11-.04.21-.07.32-.12.05-.02.09-.05.14-.07.14-.06.28-.13.42-.2.14-.07.28-.14.41-.22.14-.08.27-.16.41-.25.06-.04.13-.07.19-.11.07-.05.13-.1.2-.15.12-.09.24-.17.35-.26.15-.12.29-.24.43-.36.09-.08.18-.15.26-.24.04-.04.08-.07.12-.11.14-.15.28-.3.41-.45.03-.03.06-.06.08-.09,1.4,2.21,3.69,3.72,6.26,4.15,0,.15.02.3.02.45,0,4.41-3.59,8-8,8s-8-3.59-8-8c0-.59.07-1.17.19-1.73Z"/></svg>