<svg xmlns="http://www.w3.org/2000/svg" width="24" height="24" viewBox="0 0 24 24"><path d="M21.25 2c-.41 0-.75.34-.75.75v.5h-2.41v-.5c0-.41-.34-.75-.75-.75H6.66c-.41 0-.75.34-.75.75v.5H3.5v-.5c0-.41-.34-.75-.75-.75S2 2.34 2 2.75v18.5c0 .41.34.75.75.75s.75-.34.75-.75v-.5h2.41v.5c0 .41.34.75.75.75h10.69c.41 0 .75-.34.75-.75v-.5h2.41v.5c0 .41.34.75.75.75s.75-.34.75-.75V2.75c0-.41-.34-.75-.75-.75ZM3.5 4.75h2.41v2.5H3.5zm0 4h2.41v2.5H3.5zm0 4h2.41v2.5H3.5zm0 6.5v-2.5h2.41v2.5zm17 0h-2.41v-2.5h2.41zm0-4h-2.41v-2.5h2.41zm0-4h-2.41v-2.5h2.41zm0-4h-2.41v-2.5h2.41z"/></svg>