<svg xmlns="http://www.w3.org/2000/svg" width="24" height="24" viewBox="0 0 24 24"><path d="M6.64 17.73 11 14.3l.67-.53c.55-.43.86-1.07.86-1.77s-.31-1.34-.86-1.77l-.68-.53-4.36-3.43a2.22 2.22 0 0 0-2.37-.25c-.78.38-1.27 1.15-1.27 2.02v7.91c0 .87.49 1.64 1.27 2.02.32.15.65.23.99.23.49 0 .98-.16 1.39-.48Z"/><path d="m19.68 10.23-5.04-3.96a2.22 2.22 0 0 0-2.37-.25C11.49 6.4 11 7.17 11 8.04v.38l1.29 1.02c.79.62 1.24 1.55 1.24 2.56s-.45 1.94-1.24 2.56L11 15.58v.39c0 .87.49 1.64 1.27 2.02.32.15.65.23.99.23.49 0 .98-.16 1.39-.48l5.04-3.96c.55-.43.86-1.07.86-1.77s-.31-1.34-.86-1.77Z"/></svg>