<svg xmlns="http://www.w3.org/2000/svg" width="24" height="24" viewBox="0 0 24 24"><path d="M21.16 5.15c-.51-.25-1.13-.19-1.58.16L17.5 6.93V6.5c0-.57-.33-1.1-.84-1.35s-1.13-.19-1.58.16L13 6.93V6.5c0-.57-.33-1.1-.84-1.35s-1.13-.19-1.58.16L8.5 6.93V3.5C8.5 2.67 7.83 2 7 2H3.5C2.67 2 2 2.67 2 3.5v15A2.5 2.5 0 0 0 4.5 21h15a2.5 2.5 0 0 0 2.5-2.5v-12c0-.57-.33-1.1-.84-1.35M9 16.75c0 .14-.11.25-.25.25h-1.5c-.14 0-.25-.11-.25-.25v-3.5c0-.14.11-.25.25-.25h1.5c.14 0 .25.11.25.25zm4 0c0 .14-.11.25-.25.25h-1.5c-.14 0-.25-.11-.25-.25v-3.5c0-.14.11-.25.25-.25h1.5c.14 0 .25.11.25.25zm4 0c0 .14-.11.25-.25.25h-1.5c-.14 0-.25-.11-.25-.25v-3.5c0-.14.11-.25.25-.25h1.5c.14 0 .25.11.25.25z"/></svg>