<svg xmlns="http://www.w3.org/2000/svg" viewBox="0 0 24 24" width="24" height="24"><path d="m17.5,2H6.5c-2.48,0-4.5,2.02-4.5,4.5v11c0,2.48,2.02,4.5,4.5,4.5h11c2.48,0,4.5-2.02,4.5-4.5V6.5c0-2.48-2.02-4.5-4.5-4.5Zm-1,17H7.5c-.83,0-1.5-.67-1.5-1.5s.67-1.5,1.5-1.5h9c.83,0,1.5.67,1.5,1.5s-.67,1.5-1.5,1.5Zm-10.5-7c0-1.1.9-2,2-2s2,.9,2,2-.9,2-2,2-2-.9-2-2Zm10.5,1.5h-3c-.83,0-1.5-.67-1.5-1.5s.67-1.5,1.5-1.5h3c.83,0,1.5.67,1.5,1.5s-.67,1.5-1.5,1.5Zm0-5.5H7.5c-.83,0-1.5-.67-1.5-1.5s.67-1.5,1.5-1.5h9c.83,0,1.5.67,1.5,1.5s-.67,1.5-1.5,1.5Z"/></svg>