<svg xmlns="http://www.w3.org/2000/svg" width="24" height="24" viewBox="0 0 24 24"><path d="M6.27 17.82c-.62.38-.88 1.15-.61 1.82.28.7.4 1.35.45 2 .06.77.72 1.36 1.49 1.36.87 0 1.56-.74 1.5-1.61-.06-.88-.23-1.82-.65-2.87-.34-.85-1.39-1.18-2.17-.7ZM1.12 11.43c.04.28.09.56.16.84.06.28.13.55.22.81.08.26.17.52.27.77s.21.5.32.73a8.7 8.7 0 0 0 .81 1.31c.16.21.32.4.47.56l.1.1s.1.09.1.1c0 0 .06.05.06.06.29.25.64.38 1 .38.41 0 .82-.17 1.12-.5.55-.62.5-1.56-.12-2.12l-.08-.07c-.09-.09-.18-.2-.26-.3-.09-.12-.18-.25-.26-.39-.09-.14-.17-.29-.25-.45s-.15-.33-.22-.5c-.07-.18-.14-.36-.19-.55-.06-.19-.11-.39-.16-.59-.04-.2-.08-.41-.11-.61-.03-.21-.05-.42-.07-.63-.01-.21-.02-.43-.02-.63 0-.21.02-.43.04-.64q.03-.315.09-.63c.04-.21.09-.41.15-.61s.13-.4.22-.59c.08-.19.17-.38.28-.56.1-.18.22-.36.35-.53s.27-.34.42-.5c.14-.15.3-.29.46-.42s.34-.25.52-.35a5.325 5.325 0 0 1 1.2-.52c.22-.07.45-.13.68-.17a8.8 8.8 0 0 1 2.2-.18c.25 0 .5.02.74.04.25.02.49.05.73.08s.47.07.7.12c.23.04.45.1.66.15a9 9 0 0 1 1.13.36c.15.06.3.12.43.19.12.06.23.11.33.17.17.1.33.21.49.32s.32.23.47.34.3.24.44.36.28.25.41.37l.38.38.35.38c.11.13.22.25.32.38.1.12.2.25.28.36.09.12.17.23.25.35.08.11.15.21.22.31l.52.85s.04.08.05.09c.36.75 1.24 1.04 1.99.69.75-.36 1.05-1.27.69-2.02l-.08-.16-.45-.76c-.07-.11-.14-.23-.23-.35-.08-.12-.17-.25-.26-.38-.1-.14-.2-.28-.31-.43-.11-.14-.22-.29-.35-.44a18.334 18.334 0 0 0-.82-.93c-.15-.16-.31-.31-.47-.47s-.34-.32-.52-.47c-.18-.16-.37-.31-.57-.47s-.4-.3-.61-.44q-.315-.225-.66-.42c-.17-.1-.37-.21-.58-.31-.2-.09-.42-.19-.64-.27a11 11 0 0 0-1.47-.47c-.26-.07-.53-.13-.82-.18-.28-.05-.57-.1-.86-.15s-.59-.08-.9-.1c-.31-.03-.62-.04-.93-.05-.32 0-.63 0-.95.01s-.64.04-.96.08-.64.09-.96.16-.64.15-.95.24c-.32.1-.63.21-.94.35-.31.13-.61.29-.9.46a7.56 7.56 0 0 0-1.63 1.29 8 8 0 0 0-1.2 1.61c-.16.28-.3.57-.43.87-.12.29-.23.59-.33.89-.09.3-.17.6-.23.9s-.11.6-.14.9q-.045.45-.06.9c0 .3 0 .59.02.88q.03.435.09.87Z"/><path d="M11.82 23c.88 0 1.56-.75 1.5-1.63-.14-1.92-.75-4.28-3.42-7.9-.14-.2-.31-.41-.5-.64-1.01-1.26-1.76-2.32-1.4-3.41.24-.73.72-1.21 1.48-1.47.85-.29 1.94-.23 2.88.11.62.22 1.31-.03 1.69-.57.55-.8.22-1.93-.69-2.26-1.57-.56-3.35-.63-4.83-.13-1.65.55-2.85 1.75-3.38 3.38-.89 2.72.86 4.91 1.91 6.21.15.19.3.37.42.54 2.22 3.01 2.73 4.76 2.85 6.34.06.79.7 1.41 1.49 1.41ZM17.93 15.25c.07.22.14.45.2.67.07.23.13.47.19.71s.12.49.18.74.12.51.17.77c.06.26.11.53.17.8.14.71.77 1.21 1.47 1.21.1 0 .19 0 .29-.03a1.5 1.5 0 0 0 1.18-1.76c-.06-.29-.12-.58-.18-.86s-.12-.56-.19-.83c-.06-.27-.13-.54-.2-.8-.07-.27-.14-.52-.21-.78s-.15-.51-.23-.75c-.08-.25-.16-.49-.24-.73s-.17-.48-.26-.71-.18-.46-.28-.68q-.15-.345-.3-.66c-.1-.22-.21-.43-.32-.63-.11-.21-.23-.42-.34-.62-.12-.2-.24-.4-.36-.59a12.703 12.703 0 0 0-.81-1.1c-.14-.18-.29-.35-.44-.52A1.51 1.51 0 0 0 15.3 8a1.51 1.51 0 0 0-.1 2.12c.11.13.22.25.34.39.11.13.21.27.32.41s.21.29.3.44c.1.15.2.31.29.47s.19.32.28.49.18.34.26.52c.09.18.17.36.25.55s.16.38.24.58.15.41.23.61c.07.21.15.42.21.64Z"/><path d="M14.99 17.49c.16 0 .33-.03.49-.08.78-.27 1.2-1.13.92-1.91-.1-.3-.21-.59-.33-.86q-.18-.42-.36-.81c-.12-.26-.26-.5-.39-.74s-.27-.46-.4-.68c-.14-.22-.27-.42-.41-.62-.14-.19-.27-.38-.41-.56s-.27-.34-.4-.5-.26-.3-.39-.44c-.12-.14-.25-.26-.37-.38s-.23-.22-.33-.32l-.3-.27a1.504 1.504 0 0 0-1.97 2.27c.07.06.14.12.22.2s.17.16.25.25c.09.09.19.19.29.3s.2.22.31.35c.11.12.21.26.32.39q.165.21.33.45c.11.16.22.32.33.5.11.17.22.35.32.54.11.19.21.39.31.59.1.21.2.42.29.64s.18.46.27.7c.22.62.8 1.01 1.42 1.01ZM14.55 21.59a1.499 1.499 0 1 0 2.99-.19c-.02-.37-.05-.73-.09-1.09-.09-.86-.9-1.46-1.76-1.31-.78.14-1.31.85-1.23 1.64.03.32.06.64.08.96Z"/></svg>