<svg xmlns="http://www.w3.org/2000/svg" width="24" height="24" viewBox="0 0 24 24"><path d="M11 13.5a1.5 1.5 0 1 0 0 3 1.5 1.5 0 1 0 0-3"/><path d="M15.06 1.44C14.78 1.16 14.4 1 14 1H7.5C5.01 1 3 3.01 3 5.5v13C3 20.99 5.01 23 7.5 23h9c2.49 0 4.5-2.01 4.5-4.5V8c0-.4-.16-.78-.44-1.06zM16 20c-.59.59-1.54.59-2.12 0l-.95-.95c-.59.28-1.24.45-1.93.45-2.48 0-4.5-2.02-4.5-4.5s2.02-4.5 4.5-4.5 4.5 2.02 4.5 4.5c0 .69-.17 1.34-.45 1.93l.95.95c.59.59.59 1.54 0 2.12m2.4-11H15c-1.1 0-2-.9-2-2V3.6c0-.22.27-.33.43-.18l5.15 5.15c.16.16.05.43-.18.43"/></svg>