<svg xmlns="http://www.w3.org/2000/svg" width="24" height="24" viewBox="0 0 24 24"><path d="M17.5 1H6C4.35 1 3 2.35 3 4v3H1.75c-.41 0-.75.34-.75.75s.34.75.75.75H3v2.75H1.75c-.41 0-.75.34-.75.75s.34.75.75.75H3v2.75H1.75c-.41 0-.75.34-.75.75s.34.75.75.75H3v3c0 1.65 1.35 3 3 3h11.5c2.48 0 4.5-2.02 4.5-4.5v-13C22 3.02 19.98 1 17.5 1m-5.56 7.22v-.05a.56.56 0 1 1 1.12 0v.05c2.28.26 4.11 2.03 4.4 4.3.04.34-.21.65-.55.65H8.1c-.35 0-.6-.31-.55-.65a5 5 0 0 1 4.4-4.3Zm5 7.17H8.05a.56.56 0 1 1 0-1.12h8.89a.56.56 0 1 1 0 1.12"/></svg>