<svg xmlns="http://www.w3.org/2000/svg" viewBox="0 0 24 24" width="24" height="24"><path d="m22.15,4.85l-.91.91c-1.81-2.83-5.38-4.77-9.48-4.77C6.48,1,2.08,4.19,1.17,8.39c-.18.83.43,1.61,1.27,1.61h.4c.63,0,1.14-.46,1.28-1.08.66-2.8,3.83-4.92,7.62-4.92,3.35,0,6.2,1.66,7.28,3.97l-1.18,1.18c-.31.32-.09.85.35.85h4.29c.28,0,.5-.22.5-.5v-4.29c0-.45-.54-.67-.85-.35Z"/><path d="m11.34,6.03c-1.25-.2-2.34.76-2.34,1.97v8.57c0,.5-.48.87-.97.72-.46-.14-1.04-.32-1.63-.5-1.19-.37-2.41.52-2.41,1.77,0,.6.28,1.16.77,1.5,1.04.75,2.56,1.79,3.46,2.41.5.34,1.09.53,1.7.53h9.07c1.66,0,3-1.34,3-3v-3.5c0-1.45-1.04-2.69-2.46-2.95l-5.92-1.08c-.36-.06-.62-.38-.62-.74v-3.63c0-1-.68-1.92-1.66-2.08Z"/></svg>