<svg xmlns="http://www.w3.org/2000/svg" viewBox="0 0 24 24" width="24" height="24"><path d="m18.5,3h-6.88l-1.12-1.12c-.56-.56-1.33-.88-2.12-.88h-4.38c-1.65,0-3,1.35-3,3v12.5c0,2.48,2.02,4.5,4.5,4.5h13c2.48,0,4.5-2.02,4.5-4.5V7.5c0-2.48-2.02-4.5-4.5-4.5Zm-2.96,10.41c.59.59.59,1.54,0,2.12-.29.29-.68.44-1.06.44s-.77-.15-1.06-.44l-1.41-1.41-1.41,1.41c-.29.29-.68.44-1.06.44s-.77-.15-1.06-.44c-.59-.59-.59-1.54,0-2.12l1.41-1.41-1.41-1.41c-.59-.59-.59-1.54,0-2.12.59-.59,1.54-.59,2.12,0l1.41,1.41,1.41-1.41c.59-.59,1.54-.59,2.12,0,.59.59.59,1.54,0,2.12l-1.41,1.41,1.41,1.41Z"/></svg>