<svg xmlns="http://www.w3.org/2000/svg" width="24" height="24" viewBox="0 0 24 24"><path d="M15.06 1.44C14.78 1.16 14.4 1 14 1H7.5C5.01 1 3 3.01 3 5.5v13C3 20.99 5.01 23 7.5 23h9c2.49 0 4.5-2.01 4.5-4.5V8c0-.4-.16-.78-.44-1.06zm.12 15.12c.59.59.59 1.54 0 2.12-.29.29-.68.44-1.06.44s-.77-.15-1.06-.44L12 17.62l-1.06 1.06c-.29.29-.68.44-1.06.44s-.77-.15-1.06-.44a1.49 1.49 0 0 1 0-2.12l1.06-1.06-1.06-1.06a1.49 1.49 0 0 1 0-2.12 1.49 1.49 0 0 1 2.12 0L12 13.38l1.06-1.06a1.49 1.49 0 0 1 2.12 0c.59.59.59 1.54 0 2.12l-1.06 1.06zM18.39 9h-3.4c-1.1 0-2-.9-2-2V3.6c0-.22.27-.33.43-.18l5.15 5.15c.16.16.05.43-.18.43"/></svg>