<svg xmlns="http://www.w3.org/2000/svg" width="24" height="24" viewBox="0 0 24 24"><path d="M15.06 1.44C14.78 1.16 14.4 1 14 1H7.5C5.01 1 3 3.01 3 5.5v13C3 20.99 5.01 23 7.5 23h9c2.49 0 4.5-2.01 4.5-4.5V8c0-.4-.16-.78-.44-1.06zm.47 12.93-1.46 1.46c-.09.09-.13.23-.09.36l.6 1.95c.1.32-.26.59-.54.41l-1.84-1.23a.36.36 0 0 0-.4 0l-1.84 1.23c-.28.19-.64-.08-.54-.41l.6-1.95c.04-.13 0-.27-.09-.36l-1.46-1.46c-.22-.22-.08-.59.22-.61l1.81-.16c.13-.01.24-.09.29-.2l.89-1.8c.13-.27.51-.27.65 0l.89 1.8c.06.11.17.19.29.2l1.81.16c.3.03.44.4.22.61ZM18.39 9h-3.4c-1.1 0-2-.9-2-2V3.6c0-.22.27-.33.43-.18l5.15 5.15c.16.16.05.43-.18.43"/></svg>