<svg xmlns="http://www.w3.org/2000/svg" width="24" height="24" viewBox="0 0 24 24"><path d="M15.06 1.44C14.78 1.16 14.4 1 14 1H7.5C5.01 1 3 3.01 3 5.5v13C3 20.99 5.01 23 7.5 23h9c2.49 0 4.5-2.01 4.5-4.5V8c0-.4-.16-.78-.44-1.06zm.49 14.06c0 .21-.02.43-.06.64l.37.22c.34.2.46.64.26.98l-.47.82c-.2.34-.64.46-.98.26l-.38-.22c-.33.28-.7.5-1.1.64v.44c0 .4-.32.72-.72.72h-.95c-.4 0-.72-.32-.72-.72v-.44c-.4-.14-.77-.36-1.1-.64l-.38.22c-.34.2-.79.08-.98-.26l-.47-.82c-.2-.34-.08-.79.26-.98l.37-.22a3.5 3.5 0 0 1 0-1.28l-.37-.22a.72.72 0 0 1-.26-.98l.47-.82c.2-.34.64-.46.98-.26l.38.22c.33-.28.7-.5 1.1-.64v-.44c0-.4.32-.72.72-.72h.95c.4 0 .72.32.72.72v.44c.4.14.77.36 1.1.64l.38-.22c.34-.2.79-.08.98.26l.47.82c.2.34.08.79-.26.98l-.37.22c.04.21.06.43.06.64M18.39 9h-3.4c-1.1 0-2-.9-2-2V3.6c0-.22.27-.33.43-.18l5.15 5.15c.16.16.05.43-.18.43"/><path d="M12 13.76c-.94 0-1.74.8-1.74 1.74s.8 1.74 1.74 1.74 1.74-.8 1.74-1.74-.8-1.74-1.74-1.74"/></svg>