<svg xmlns="http://www.w3.org/2000/svg" width="24" height="24" viewBox="0 0 24 24"><path d="M15.06 1.44C14.78 1.16 14.4 1 14 1H7.5C5.01 1 3 3.01 3 5.5v13C3 20.99 5.01 23 7.5 23h9c2.49 0 4.5-2.01 4.5-4.5V8c0-.4-.16-.78-.44-1.06zM10.5 16.88c.59.59.59 1.54 0 2.12-.59.59-1.54.59-2.12 0l-2.44-2.44a1.49 1.49 0 0 1 0-2.12L8.38 12a1.49 1.49 0 0 1 2.12 0c.59.59.59 1.54 0 2.12L9.12 15.5zm7.56-.32L15.62 19c-.59.59-1.54.59-2.12 0a1.49 1.49 0 0 1 0-2.12l1.38-1.38-1.38-1.38a1.49 1.49 0 0 1 0-2.12 1.49 1.49 0 0 1 2.12 0l2.44 2.44c.59.59.59 1.54 0 2.12M18.4 9H15c-1.1 0-2-.9-2-2V3.6c0-.22.27-.33.43-.18l5.15 5.15c.16.16.05.43-.18.43"/></svg>