<svg xmlns="http://www.w3.org/2000/svg" viewBox="0 0 24 24" width="24" height="24"><path d="m15.06,1.44c-.28-.28-.66-.44-1.06-.44h-6.5c-2.49,0-4.5,2.01-4.5,4.5v13c0,2.49,2.01,4.5,4.5,4.5h9c2.49,0,4.5-2.01,4.5-4.5v-10.5c0-.4-.16-.78-.44-1.06L15.06,1.44Zm-6.06,17.06c0,.83-.67,1.5-1.5,1.5s-1.5-.67-1.5-1.5v-4c0-.83.67-1.5,1.5-1.5s1.5.67,1.5,1.5v4Zm4.5,0c0,.83-.67,1.5-1.5,1.5s-1.5-.67-1.5-1.5v-6c0-.83.67-1.5,1.5-1.5s1.5.67,1.5,1.5v6Zm4.5,0c0,.83-.67,1.5-1.5,1.5s-1.5-.67-1.5-1.5v-1c0-.83.67-1.5,1.5-1.5s1.5.67,1.5,1.5v1Zm.4-9.5h-3.4c-1.1,0-2-.9-2-2v-3.4c0-.22.27-.33.43-.18l5.15,5.15c.16.16.05.43-.18.43Z"/></svg>