<svg xmlns="http://www.w3.org/2000/svg" viewBox="0 0 24 24" width="24" height="24"><path d="m16.76,5.19c-.59.33-.88,1.02-.72,1.67.33,1.32.95,5.47-.45,7.26-.29.37-.83.87-2.1.87-1.44,0-2.55-.6-2.97-1.61-.51-1.24.06-2.85,1.53-4.33,1.46-1.46,1.74-2.91,1.72-3.87-.05-2.17-1.59-3.64-1.76-3.8-.35-.32-.82-.45-1.28-.37-.46.08-.86.38-1.07.8-.58,1.15-1.87,2.21-3.12,3.24-.67.55-1.3,1.07-1.85,1.62-2.73,2.73-2.72,5.78-2.69,6.35.02,5.49,4.5,9.96,10,9.96s9.95-4.43,10-9.9c.09-.79.19-4.04-3.44-7.66-.48-.48-1.21-.58-1.8-.24Z"/></svg>