<svg xmlns="http://www.w3.org/2000/svg" viewBox="0 0 24 24" width="24" height="24"><path class="b" d="m11.06,22.95c.32.04.62.05.94.05s.62-.01.92-.05c4.61-.46,8.08-4.31,8.08-8.95,0-3.44-1.97-6.56-5-8.05v-1.95h.5c.83,0,1.5-.67,1.5-1.5s-.67-1.5-1.5-1.5H7.5c-.83,0-1.5.67-1.5,1.5s.67,1.5,1.5,1.5h.5v1.95c-3.03,1.5-5,4.61-5,8.05,0,4.64,3.47,8.49,8.06,8.95Zm-1.06-14.59c.6-.21,1-.78,1-1.42v-2.94h2v2.94c0,.64.4,1.21,1,1.42,2.39.84,4,3.11,4,5.64,0,.34-.04.67-.09,1-2.71-.02-4.06-.92-5.49-1.87-1.43-.95-2.92-1.93-5.61-2.09.7-1.22,1.81-2.19,3.19-2.68Z"/></svg>