<svg xmlns="http://www.w3.org/2000/svg" width="24" height="24" viewBox="0 0 24 24"><path d="M17.04.97c-.29.29-.29.77 0 1.06 3.59 3.59 3.59 9.43 0 13.02s-9.43 3.59-13.01 0c-.29-.29-.77-.29-1.06 0s-.29.77 0 1.06c2.09 2.09 4.83 3.13 7.57 3.13.24 0 .48-.02.71-.03v2.3h-2.5c-.41 0-.75.34-.75.75s.34.75.75.75h6.5c.41 0 .75-.34.75-.75s-.34-.75-.75-.75h-2.5v-2.5c1.97-.41 3.84-1.37 5.36-2.89 4.17-4.17 4.17-10.96 0-15.14a.754.754 0 0 0-1.06 0Z"/><path d="M10.5 1a7.5 7.5 0 1 0 0 15 7.5 7.5 0 1 0 0-15"/></svg>