<svg xmlns="http://www.w3.org/2000/svg" viewBox="0 0 24 24" width="24" height="24"><path d="M9 2A5 5 0 1 0 9 12 5 5 0 1 0 9 2z"/><path d="m10.5,13h-3c-3.03,0-5.5,2.47-5.5,5.5v1c0,1.38,1.12,2.5,2.5,2.5h9c1.38,0,2.5-1.12,2.5-2.5v-1c0-3.03-2.47-5.5-5.5-5.5Z"/><path d="m16.5,13c-.34,0-.51.39-.3.65,1.12,1.31,1.8,3,1.8,4.85v1c0,.7-.16,1.36-.44,1.95-.12.26.07.55.36.55h1.59c1.38,0,2.5-1.12,2.5-2.5v-1c0-3.04-2.46-5.5-5.5-5.5Z"/><path d="m14.8,12c.07,0,.13,0,.2,0,2.82,0,4.96-2.11,5-4.91.03-2.01-1.2-3.84-3.04-4.66-.78-.35-1.49-.45-2.16-.42-.32.01-.49.38-.29.63.94,1.19,1.5,2.7,1.5,4.37s-.56,3.18-1.5,4.37c-.2.25-.02.61.3.63Z"/></svg>