<svg xmlns="http://www.w3.org/2000/svg" viewBox="0 0 24 24" width="24" height="24"><path d="m14.5,20H2.5c-.83,0-1.5.67-1.5,1.5s.67,1.5,1.5,1.5h12c.83,0,1.5-.67,1.5-1.5s-.67-1.5-1.5-1.5Z"/><path d="m17.72,10.54c.07.07.17.07.24,0,.56-.56.9-1.31.92-2.11.01-.82-.3-1.6-.88-2.18l-3.38-3.38c-1.17-1.17-3.08-1.17-4.24,0-.09.09-.09.23,0,.32l7.34,7.34Z"/><path d="m7.33,16.96c.51.51,1.19.85,1.91.91.89.07,1.75-.24,2.38-.87.09-.09.09-.23,0-.32l-7.36-7.36c-.06-.06-.15-.06-.21,0h0c-.51.52-.85,1.19-.91,1.92-.07.89.24,1.75.87,2.38l3.33,3.33Z"/><path d="m15.87,12.75l.56-.56c.2-.2.2-.51,0-.71l-6.91-6.91c-.2-.2-.51-.2-.71,0l-3.23,3.23c-.2.2-.2.51,0,.71l6.91,6.91c.2.2.51.2.71,0l.56-.56,7.19,7.19c.29.29.68.44,1.06.44.41,0,.83-.17,1.13-.51.53-.6.45-1.53-.11-2.09l-7.14-7.14Z"/></svg>