<svg xmlns="http://www.w3.org/2000/svg" width="24" height="24" viewBox="0 0 24 24"><path d="M12 23c6.07 0 11-4.93 11-11S18.07 1 12 1 1 5.93 1 12s4.93 11 11 11m4.42-6.26c.25-.29.7-.65 1.02-.81s.61-.49.65-.73c.05-.25.22-.28.38-.09.16.2.11.64-.12.98s-.74.8-1.14 1.02-.84.34-.98.28c-.14-.07-.06-.36.19-.64Zm-3.44-1.03c.42.02.77.18.77.35s-.09.33-.22.35-.35-.21-.49-.5l-.03-.1zm1.69-1.89c-.28.68-.82 1.23-1.19 1.22-.37 0-.94-.16-1.27-.34s-.68-.45-.77-.6-.51-.37-.91-.48c-.41-.11-1-.02-1.33.21s-.81.47-1.08.55-.67-.17-.88-.54-.43-1.07-.5-1.55.21-1.05.62-1.27 1-.7 1.32-1.08.77-.86 1-1.07.73-.33 1.12-.26.68.34.65.6c-.03.27.14.56.38.65s.59-.15.77-.55c.19-.4.48-.38.65.03.17.42.67 1.31 1.12 2s.58 1.8.29 2.48Zm-.6-5.54c-.32-.08-.78-.14-1.03-.13-.25 0-.67-.21-.93-.48s-.8-.71-1.19-.97-.47-.54-.17-.61 1.04.09 1.65.35 1.36.82 1.68 1.23.31.68 0 .6ZM7.42 5.45c-.07.35-.17.69-.27.86-.15.26-.24.64-.22.84.03.2.38.5.78.66s.62.41.48.55c-.13.14-.69.24-1.23.21s-1.45-.02-2.01 0h-.17c.6-1.25 1.51-2.33 2.63-3.12Z"/></svg>