<svg xmlns="http://www.w3.org/2000/svg" viewBox="0 0 24 24" width="24" height="24"><path d="m2,19c0,2.21,1.79,4,4,4s4-1.79,4-4c0-1.67-1.04-3.11-2.5-3.7v-6.59c1.46-.59,2.5-2.03,2.5-3.7,0-2.21-1.79-4-4-4S2,2.79,2,5c0,1.67,1.04,3.11,2.5,3.7v6.59c-1.46.59-2.5,2.03-2.5,3.7Z"/><path d="m18,10c-.83,0-1.5.67-1.5,1.5v3.8c-1.46.59-2.5,2.03-2.5,3.7,0,2.21,1.79,4,4,4s4-1.79,4-4c0-1.67-1.04-3.11-2.5-3.7v-3.8c0-.83-.67-1.5-1.5-1.5Z"/><path d="m21.56,1.44c-.59-.59-1.54-.59-2.12,0l-1.44,1.44-1.44-1.44c-.59-.59-1.54-.59-2.12,0s-.59,1.54,0,2.12l1.44,1.44-1.44,1.44c-.59.59-.59,1.54,0,2.12.29.29.68.44,1.06.44s.77-.15,1.06-.44l1.44-1.44,1.44,1.44c.29.29.68.44,1.06.44s.77-.15,1.06-.44c.59-.59.59-1.54,0-2.12l-1.44-1.44,1.44-1.44c.59-.59.59-1.54,0-2.12Z"/></svg>