<svg xmlns="http://www.w3.org/2000/svg" viewBox="0 0 24 24" width="24" height="24"><path class="b" d="m3.76,5h8.47c.35,0,.59-.35.47-.67-.69-1.94-2.54-3.33-4.71-3.33s-4.02,1.39-4.71,3.33c-.12.33.13.67.47.67Z"/><path class="b" d="m14.94,5h5.52c.31,0,.54-.27.5-.58-.12-.85-.49-1.73-1.07-2.31-1.47-1.47-3.87-1.47-5.36,0l-.45.45c.36.63.63,1.3.78,2.04l.08.4Z"/><path class="b" d="m19.53,7H4.47c-1.3,0-2.38.99-2.49,2.28l-.73,8.37c-.2,2.34,1.64,4.35,3.98,4.35h13.53c2.35,0,4.19-2.01,3.98-4.35l-.73-8.37c-.11-1.29-1.19-2.28-2.49-2.28Zm-7.53,8.75c-2.32,0-4.25-1.67-4.67-3.87-.09-.46.28-.88.75-.88.36,0,.66.25.73.6.28,1.51,1.61,2.65,3.19,2.65s2.91-1.14,3.19-2.65c.07-.35.37-.6.73-.6h0c.47,0,.83.42.75.88-.41,2.2-2.35,3.87-4.67,3.87Z"/></svg>