<svg xmlns="http://www.w3.org/2000/svg" viewBox="0 0 24 24" width="24" height="24"><path d="m12,16.67c-.96,0-1.92-.04-2.85-.12.59,4.04,1.89,6.45,2.85,6.45s2.27-2.41,2.85-6.45c-.94.08-1.9.12-2.85.12Z"/><path d="m8.97,8.97c-.09.94-.14,1.95-.14,3.03s.05,2.08.14,3.03c.94.09,1.95.14,3.03.14s2.08-.05,3.03-.14c.09-.94.14-1.95.14-3.03s-.05-2.08-.14-3.03c-.94-.09-1.95-.14-3.03-.14s-2.08.05-3.03.14Z"/><path d="m16.55,9.15c.08.94.12,1.9.12,2.85s-.04,1.92-.12,2.85c4.04-.59,6.45-1.89,6.45-2.85s-2.41-2.27-6.45-2.85Z"/><path d="m22.69,9.47c-.96-4.03-4.13-7.2-8.16-8.16.9,1.49,1.53,3.76,1.85,6.3,2.54.33,4.82.95,6.3,1.85Z"/><path d="m12,7.33c.96,0,1.92.04,2.85.12-.59-4.04-1.89-6.45-2.85-6.45s-2.27,2.41-2.85,6.45c.94-.08,1.9-.12,2.85-.12Z"/><path d="m14.54,22.69c4.03-.96,7.2-4.13,8.16-8.16-1.49.9-3.76,1.53-6.3,1.85-.33,2.54-.95,4.82-1.85,6.3Z"/><path d="m1.31,14.53c.96,4.03,4.13,7.2,8.16,8.16-.9-1.49-1.53-3.76-1.85-6.3-2.54-.33-4.82-.95-6.3-1.85Z"/><path d="m7.45,14.85c-.08-.94-.12-1.9-.12-2.85s.04-1.92.12-2.85c-4.04.59-6.45,1.89-6.45,2.85s2.41,2.27,6.45,2.85Z"/><path d="m9.46,1.31C5.43,2.26,2.26,5.44,1.31,9.47c1.49-.9,3.76-1.53,6.3-1.85.33-2.54.95-4.82,1.85-6.3Z"/></svg>