<svg xmlns="http://www.w3.org/2000/svg" viewBox="0 0 24 24" width="24" height="24"><path d="m7.75,13c-.41,0-.75.34-.75.75v7.5c0,.41.34.75.75.75s.75-.34.75-.75v-7.5c0-.41-.34-.75-.75-.75Z"/><path d="m16.25,13c-.41,0-.75.34-.75.75v7.5c0,.41.34.75.75.75s.75-.34.75-.75v-7.5c0-.41-.34-.75-.75-.75Z"/><path d="m21,13.05v-2.05c0-4.96-4.04-9-9-9S3,6.04,3,11v2.05c-1.14.23-2,1.24-2,2.45v4c0,1.38,1.12,2.5,2.5,2.5h1c.83,0,1.5-.67,1.5-1.5v-9.5c0-3.31,2.69-6,6-6s6,2.69,6,6v9.5c0,.83.67,1.5,1.5,1.5h1c1.38,0,2.5-1.12,2.5-2.5v-4c0-1.21-.86-2.22-2-2.45Z"/></svg>