<svg xmlns="http://www.w3.org/2000/svg" viewBox="0 0 24 24" width="24" height="24"><path d="m21.01,4c-1.29-1.29-2.98-2-4.77-2h0c-1.55,0-3.03.54-4.23,1.52-1.2-.98-2.68-1.51-4.23-1.52h0c-1.79,0-3.49.71-4.78,2-2.66,2.69-2.66,6.89,0,9.57l6.89,6.92c.57.57,1.32.88,2.13.88s1.56-.31,2.13-.88l6.89-6.92c2.66-2.68,2.67-6.88,0-9.57h0Zm-15.9,7.46c-1.49-1.49-1.49-3.84,0-5.34.72-.72,1.66-1.12,2.65-1.12h0c.99,0,1.92.4,2.64,1.12l1.16,1.17-1.35,4.06c-.11.32.13.66.47.66h2.65c.33,0,.57.32.48.64l-1.53,5.45-.29.29-6.89-6.92Z"/></svg>