<svg xmlns="http://www.w3.org/2000/svg" viewBox="0 0 24 24" width="24" height="24"><path d="m20.5,4H3.5c-1.93,0-3.5,1.57-3.5,3.5v8c0,2.48,2.02,4.5,4.5,4.5h15c2.48,0,4.5-2.02,4.5-4.5V7.5c0-1.93-1.57-3.5-3.5-3.5ZM5,13.5c0,.28-.22.5-.5.5h-2c-.28,0-.5-.22-.5-.5v-2c0-.28.22-.5.5-.5h2c.28,0,.5.22.5.5v2Zm-1.5-3.5c-.83,0-1.5-.67-1.5-1.5s.67-1.5,1.5-1.5,1.5.67,1.5,1.5-.67,1.5-1.5,1.5Zm14.5,7c0,.55-.45,1-1,1H7c-.55,0-1-.45-1-1V7c0-.55.45-1,1-1h10c.55,0,1,.45,1,1v10Zm4-3.5c0,.28-.22.5-.5.5h-2c-.28,0-.5-.22-.5-.5v-2c0-.28.22-.5.5-.5h2c.28,0,.5.22.5.5v2Zm-1.5-3.5c-.83,0-1.5-.67-1.5-1.5s.67-1.5,1.5-1.5,1.5.67,1.5,1.5-.67,1.5-1.5,1.5Z"/></svg>