<svg xmlns="http://www.w3.org/2000/svg" viewBox="0 0 24 24" width="24" height="24"><path d="m21.06,17.64l-7.44-6.68c.09-.17.21-.31.37-.38.58-.25,1.1-.61,1.54-1.05.94-.94,1.46-2.2,1.46-3.54s-.52-2.59-1.46-3.54c-.94-.94-2.2-1.46-3.54-1.46s-2.59.52-3.54,1.46c-.94.94-1.46,2.2-1.46,3.54,0,.83.67,1.5,1.5,1.5s1.5-.67,1.5-1.5c0-.53.21-1.04.59-1.42.75-.75,2.07-.75,2.83,0,.38.38.59.88.59,1.41s-.21,1.04-.59,1.42c-.18.18-.39.32-.62.42-1.2.52-2.02,1.64-2.24,2.96l-7.62,6.84c-.78.7-1.04,1.78-.67,2.75.37.98,1.29,1.61,2.33,1.61h14.78c1.04,0,1.96-.63,2.33-1.61.37-.98.11-2.06-.67-2.75Zm-15.15,1.36l6.09-5.47,6.09,5.47H5.91Z"/></svg>