<svg xmlns="http://www.w3.org/2000/svg" viewBox="0 0 24 24" width="24" height="24"><path d="m18.01,13.17c-.65.25-1.17.76-1.43,1.41l-1.38,3.45c-.48,1.2.05,2.59,1.2,3.16l.35.18c.61.31,1.33.35,1.98.11.64-.24,1.17-.73,1.44-1.36l1.36-3.18c1.38-3.21,1.12-6.92-.7-9.92-1.74-2.89-4.64-4.71-7.94-4.98-.6-.05-1.21-.05-1.81,0-3.3.27-6.19,2.08-7.94,4.98-1.81,3-2.07,6.71-.7,9.92l1.36,3.18c.27.63.79,1.13,1.44,1.36.28.1.57.15.86.15.39,0,.77-.09,1.12-.26l.35-.18c1.15-.58,1.68-1.97,1.2-3.17l-1.38-3.45c-.26-.65-.78-1.16-1.43-1.41-.44-.17-.93-.2-1.39-.11-.08-1.56.3-3.13,1.13-4.5,1.24-2.06,3.28-3.34,5.61-3.53.44-.04.9-.04,1.33,0,2.32.19,4.37,1.48,5.61,3.53.83,1.37,1.21,2.94,1.13,4.5-.46-.09-.94-.06-1.39.11Z"/></svg>