<svg xmlns="http://www.w3.org/2000/svg" viewBox="0 0 24 24" width="24" height="24"><path d="m17.98,8.23c-.36,1.1-1.14,2.78-2.82,3.97-.2.14-.47-.05-.39-.28.65-1.85.84-3.86-.27-6.03-.79-1.54-2.67-3.15-3.89-4.08-.44-.34-1.07-.09-1.19.45-.23,1.08-.95,2.79-3.05,4.85-2.69,2.63-4.38,5.31-4.38,7.94,0,2.87,1.71,6.43,4.43,7.57.64.27,1.26-.39.97-1.03-1.58-3.42.71-6.33,1.69-7.37.15-.16.42-.05.42.17.17,5.18,2.62,8.59,6.24,8.59,2.08,0,6.25-1.22,6.25-7.94,0-3.68-1.68-5.99-2.79-7.12-.39-.4-1.06-.24-1.23.29Z"/></svg>