<svg xmlns="http://www.w3.org/2000/svg" viewBox="0 0 24 24" width="24" height="24"><path d="m13.5,2.5c0-.83-.67-1.5-1.5-1.5s-1.5.67-1.5,1.5v1c0,.83.67,1.5,1.5,1.5s1.5-.67,1.5-1.5v-1Z"/><path d="m13.5,8.5c0-.83-.67-1.5-1.5-1.5s-1.5.67-1.5,1.5v1c0,.83.67,1.5,1.5,1.5s1.5-.67,1.5-1.5v-1Z"/><path d="m13.5,14.5c0-.83-.67-1.5-1.5-1.5s-1.5.67-1.5,1.5v1c0,.83.67,1.5,1.5,1.5s1.5-.67,1.5-1.5v-1Z"/><path d="m13.5,21.5v-1c0-.83-.67-1.5-1.5-1.5s-1.5.67-1.5,1.5v1c0,.83.67,1.5,1.5,1.5s1.5-.67,1.5-1.5Z"/><path d="m8.47,11.47l-3.19-3.19c-.47-.47-1.28-.14-1.28.53v1.69h-1.5c-.83,0-1.5.67-1.5,1.5s.67,1.5,1.5,1.5h1.5v1.69c0,.67.81,1,1.28.53l3.19-3.19c.29-.29.29-.77,0-1.06Z"/><path d="m21.5,10.5h-1.5v-1.69c0-.67-.81-1-1.28-.53l-3.19,3.19c-.29.29-.29.77,0,1.06l3.19,3.19c.47.47,1.28.14,1.28-.53v-1.69h1.5c.83,0,1.5-.67,1.5-1.5s-.67-1.5-1.5-1.5Z"/></svg>