<svg xmlns="http://www.w3.org/2000/svg" width="24" height="24" viewBox="0 0 24 24"><path d="M17.94 2.32c-.84-.84-2-1.32-3.18-1.32H9.24c-1.18 0-2.34.48-3.18 1.32L2.32 6.06C1.47 6.91 1 8.04 1 9.24v5.51c0 1.2.47 2.33 1.32 3.18l3.74 3.74c.84.84 2 1.32 3.18 1.32h5.52c1.18 0 2.34-.48 3.18-1.32l3.74-3.74c.85-.85 1.32-1.98 1.32-3.18V9.24c0-1.2-.47-2.33-1.32-3.18zM12 20c-.83 0-1.5-.67-1.5-1.5S11.17 17 12 17s1.5.67 1.5 1.5S12.83 20 12 20m.49-5.72a1.498 1.498 0 0 1-1.9-.94c-.27-.78.15-1.64.94-1.9.74-.26 2.38-1.13 2.38-2.02 0-.79-.53-1.51-1.31-1.78-.13-.05-.27-.08-.4-.1h-.1c-.93-.09-1.88.43-2.19 1.28-.29.78-1.15 1.17-1.93.88a1.495 1.495 0 0 1-.88-1.93c.94-2.52 3.92-3.88 6.51-2.96 1.96.7 3.29 2.54 3.31 4.6 0 3.28-3.97 4.72-4.42 4.88Z"/></svg>