<svg xmlns="http://www.w3.org/2000/svg" viewBox="0 0 24 24" width="24" height="24"><path d="m4.7,23h-.15c-.88,0-1.57-.79-1.41-1.65.22-1.22.67-2.04,1.04-2.73.46-.84.82-1.5.82-2.95s-.36-2.11-.82-2.95c-.53-.97-1.18-2.17-1.18-4.38s.66-3.42,1.18-4.38c.31-.56.57-1.05.71-1.75s.71-1.2,1.41-1.2h.15c.88,0,1.57.79,1.41,1.65-.22,1.22-.67,2.04-1.04,2.73-.46.84-.82,1.5-.82,2.95s.36,2.11.82,2.95c.53.97,1.18,2.17,1.18,4.39s-.66,3.42-1.18,4.38c-.31.57-.57,1.05-.71,1.75s-.71,1.2-1.41,1.2Z"/><path d="m11.2,23h-.15c-.88,0-1.57-.79-1.41-1.65.22-1.22.67-2.04,1.04-2.73.46-.84.82-1.5.82-2.95s-.36-2.11-.82-2.95c-.53-.97-1.18-2.17-1.18-4.38s.66-3.42,1.18-4.38c.31-.56.57-1.05.71-1.75s.71-1.2,1.41-1.2h.15c.88,0,1.57.79,1.41,1.65-.22,1.22-.67,2.04-1.04,2.73-.46.84-.82,1.5-.82,2.95s.36,2.11.82,2.95c.53.97,1.18,2.17,1.18,4.39s-.66,3.42-1.18,4.38c-.31.57-.57,1.05-.71,1.75s-.71,1.2-1.41,1.2Z"/><path d="m17.7,23h-.15c-.88,0-1.57-.79-1.41-1.65.22-1.22.67-2.04,1.04-2.73.46-.84.82-1.5.82-2.95s-.36-2.11-.82-2.95c-.53-.97-1.18-2.17-1.18-4.38s.66-3.42,1.18-4.38c.31-.56.57-1.05.71-1.75s.71-1.2,1.41-1.2h.15c.88,0,1.57.79,1.41,1.65-.22,1.22-.67,2.04-1.04,2.73-.46.84-.82,1.5-.82,2.95s.36,2.11.82,2.95c.53.97,1.18,2.17,1.18,4.39s-.66,3.42-1.18,4.38c-.31.57-.57,1.05-.71,1.75s-.71,1.2-1.41,1.2Z"/></svg>