<svg xmlns="http://www.w3.org/2000/svg" viewBox="0 0 24 24" width="24" height="24"><path d="m21.5,12c-.83,0-1.5.67-1.5,1.5v1.75c-.59,0-.85-.16-1.2-.39-.44-.27-.98-.61-2-.61s-1.56.34-2,.61c-.36.22-.62.39-1.2.39s-.84-.16-1.2-.39c-.44-.27-.98-.61-2-.61s-1.56.34-2,.61c-.36.22-.62.39-1.2.39s-.84-.16-1.2-.39c-.44-.27-.98-.61-2-.61v-.75c0-.83-.67-1.5-1.5-1.5s-1.5.67-1.5,1.5v5c0,2.49,2.01,4.5,4.5,4.5h13c2.49,0,4.5-2.01,4.5-4.5v-5c0-.83-.67-1.5-1.5-1.5Z"/><path d="m17.52,9.3c.09-1.63.49-2.54.92-3.49.46-1.04.94-2.11,1.04-4,.02-.43-.31-.81-.75-.81-.39,0-.72.31-.75.7-.09,1.63-.49,2.54-.92,3.49-.46,1.04-.94,2.11-1.04,4-.02.43.31.81.75.81.39,0,.72-.31.75-.7Z"/><path d="m14.02,9.3c.09-1.63.49-2.54.92-3.49.46-1.04.94-2.11,1.04-4,.02-.43-.31-.81-.75-.81-.39,0-.72.31-.75.7-.09,1.63-.49,2.54-.92,3.49-.46,1.04-.94,2.11-1.04,4-.02.43.31.81.75.81.39,0,.72-.31.75-.7Z"/><path d="m21.02,9.3c.09-1.63.49-2.54.92-3.49.46-1.04.94-2.11,1.04-4,.02-.43-.31-.81-.75-.81-.39,0-.72.31-.75.7-.09,1.63-.49,2.54-.92,3.49-.46,1.04-.94,2.11-1.04,4-.02.43.31.81.75.81.39,0,.72-.31.75-.7Z"/></svg>