<svg xmlns="http://www.w3.org/2000/svg" width="24" height="24" viewBox="0 0 24 24"><path d="M12 1C5.93 1 1 5.93 1 12s4.93 11 11 11 11-4.93 11-11S18.07 1 12 1M6.51 8.39c.27-.24.62-.37.98-.37.37 0 .73.13 1.01.37.27-.25.63-.39 1-.39.46 0 .9.2 1.19.56.47.58.36 1.44-.17 1.96l-1.47 1.46c-.29.29-.75.29-1.05 0l-1.47-1.41c-.62-.6-.67-1.63-.02-2.2Zm10.07 6.69c-.6 1.18-1.94 2.92-4.57 2.92s-3.97-1.74-4.57-2.92c-.25-.49.12-1.08.67-1.08h7.79c.56 0 .93.58.67 1.08Zm.94-4.55-1.47 1.46c-.29.29-.75.29-1.05 0l-1.47-1.41c-.62-.6-.67-1.63-.02-2.2.27-.24.62-.37.98-.37.37 0 .73.13 1.01.37.27-.25.63-.39 1-.39.46 0 .9.2 1.19.56.47.58.36 1.44-.17 1.96Z"/></svg>