<svg xmlns="http://www.w3.org/2000/svg" width="24" height="24" viewBox="0 0 24 24"><path d="M20.5 15c.83 0 1.5-.67 1.5-1.5v-7C22 4.02 19.98 2 17.5 2h-11C4.02 2 2 4.02 2 6.5v11C2 19.98 4.02 22 6.5 22h7c.83 0 1.5-.67 1.5-1.5s-.67-1.5-1.5-1.5h-7c-.83 0-1.5-.67-1.5-1.5v-.44l2.47-2.47c.29-.29.77-.29 1.06 0l.41.41c.58.58 1.54.58 2.12 0l4.41-4.41c.29-.29.77-.29 1.06 0L19 13.06v.44c0 .83.67 1.5 1.5 1.5M8 11c-1.1 0-2-.9-2-2s.9-2 2-2 2 .9 2 2-.9 2-2 2M23.25 19.75h-2v-2c0-.41-.34-.75-.75-.75s-.75.34-.75.75v2h-2c-.41 0-.75.34-.75.75s.34.75.75.75h2v2c0 .41.34.75.75.75s.75-.34.75-.75v-2h2c.41 0 .75-.34.75-.75s-.34-.75-.75-.75"/></svg>