<svg xmlns="http://www.w3.org/2000/svg" viewBox="0 0 24 24" width="24" height="24"><path d="M8.5 7A1.5 1.5 0 1 0 8.5 10 1.5 1.5 0 1 0 8.5 7z"/><path d="m11.5,5h1c.83,0,1.5-.67,1.5-1.5s-.67-1.5-1.5-1.5h-1c-.83,0-1.5.67-1.5,1.5s.67,1.5,1.5,1.5Z"/><path d="m20.5,10c-.55,0-1.02.3-1.28.73l-.91-.86c-1.15-1.09-2.96-1.08-4.11,0l-4.31,4.06-.14-.13c-1.1-1.03-2.8-1.09-3.96-.13l-.78.64v-2.82c0-.83-.67-1.5-1.5-1.5s-1.5.67-1.5,1.5v5.81s.01.05.01.07c0,.04-.01.08-.01.13,0,2.48,2.02,4.5,4.5,4.5h11c2.48,0,4.5-2.02,4.5-4.5v-6c0-.83-.67-1.5-1.5-1.5Z"/><path d="m3.5,8.5c.83,0,1.5-.67,1.5-1.5v-.5c0-.83.67-1.5,1.5-1.5h.5c.83,0,1.5-.67,1.5-1.5s-.67-1.5-1.5-1.5h-.5c-2.48,0-4.5,2.02-4.5,4.5v.5c0,.83.67,1.5,1.5,1.5Z"/><path d="m17.5,2h-.5c-.83,0-1.5.67-1.5,1.5s.67,1.5,1.5,1.5h.5c.83,0,1.5.67,1.5,1.5v.5c0,.83.67,1.5,1.5,1.5s1.5-.67,1.5-1.5v-.5c0-2.48-2.02-4.5-4.5-4.5Z"/></svg>