<svg xmlns="http://www.w3.org/2000/svg" width="24" height="24" viewBox="0 0 24 24"><path d="M12 9a2 2 0 1 0 0 4 2 2 0 1 0 0-4M16 13h2v3h-2zM6 13h2v3H6z"/><path d="M22.98 9.33c0-.07-.02-.14-.04-.21v-.05l-1.18-3.93A2.98 2.98 0 0 0 18.89 3h-5.75l-.12-.11c-.59-.54-1.51-.52-2.07.05l-.06.06H5.13c-1.33 0-2.49.86-2.87 2.14L1.08 9.07v.05c-.02.07-.03.14-.04.21 0 .04-.01.08-.01.12V19c0 1.65 1.35 3 3 3h16c1.65 0 3-1.35 3-3V9.45c0-.04 0-.08-.01-.12ZM20 19h-6v-4h-4v4H4v-8h1.88c.79 0 1.56-.32 2.12-.88l4.03-4.03 4.54 4.12c.55.5 1.27.78 2.02.78h1.42v8Z"/></svg>