<svg xmlns="http://www.w3.org/2000/svg" width="24" height="24" viewBox="0 0 24 24"><path d="M19.5 6H18V4.5C18 2.57 16.43 1 14.5 1h-5C7.57 1 6 2.57 6 4.5V6H4.5C2.57 6 1 7.57 1 9.5v5C1 16.43 2.57 18 4.5 18H6v1.5C6 21.43 7.57 23 9.5 23h5c1.93 0 3.5-1.57 3.5-3.5V18h1.5c1.93 0 3.5-1.57 3.5-3.5v-5C23 7.57 21.43 6 19.5 6M7 13.57c0 .4-.45.64-.78.42l-2.35-1.57c-.3-.2-.3-.63 0-.83l2.35-1.57c.33-.22.78.02.78.42zm3.14-7.47 1.57-2.35c.2-.3.63-.3.83 0l1.57 2.35c.22.33-.02.78-.42.78h-3.13c-.4 0-.64-.45-.42-.78m3.96 11.8-1.57 2.35c-.2.3-.63.3-.83 0l-1.57-2.35c-.22-.33.02-.78.42-.78h3.13c.4 0 .64.45.42.78m-1.98-3.4a2.5 2.5 0 0 1 0-5 2.5 2.5 0 0 1 0 5m8.25-2.08-2.35 1.57a.504.504 0 0 1-.78-.42v-3.13c0-.4.45-.64.78-.42l2.35 1.57c.3.2.3.63 0 .83"/></svg>