<svg xmlns="http://www.w3.org/2000/svg" viewBox="0 0 24 24" width="24" height="24"><path d="m19.5,4H4.5C2.02,4,0,6.02,0,8.5v7c0,2.48,2.02,4.5,4.5,4.5h15c2.48,0,4.5-2.02,4.5-4.5v-7c0-2.48-2.02-4.5-4.5-4.5Zm-8.5,3.5c0-.28.22-.5.5-.5h1c.28,0,.5.22.5.5v1c0,.28-.22.5-.5.5h-1c-.28,0-.5-.22-.5-.5v-1Zm0,4c0-.28.22-.5.5-.5h1c.28,0,.5.22.5.5v1c0,.28-.22.5-.5.5h-1c-.28,0-.5-.22-.5-.5v-1Zm-4-4c0-.28.22-.5.5-.5h1c.28,0,.5.22.5.5v1c0,.28-.22.5-.5.5h-1c-.28,0-.5-.22-.5-.5v-1Zm0,4c0-.28.22-.5.5-.5h1c.28,0,.5.22.5.5v1c0,.28-.22.5-.5.5h-1c-.28,0-.5-.22-.5-.5v-1Zm-2,1c0,.28-.22.5-.5.5h-1c-.28,0-.5-.22-.5-.5v-1c0-.28.22-.5.5-.5h1c.28,0,.5.22.5.5v1Zm0-4c0,.28-.22.5-.5.5h-1c-.28,0-.5-.22-.5-.5v-1c0-.28.22-.5.5-.5h1c.28,0,.5.22.5.5v1Zm12,8c0,.28-.22.5-.5.5H7.5c-.28,0-.5-.22-.5-.5v-1c0-.28.22-.5.5-.5h9c.28,0,.5.22.5.5v1Zm0-4c0,.28-.22.5-.5.5h-1c-.28,0-.5-.22-.5-.5v-1c0-.28.22-.5.5-.5h1c.28,0,.5.22.5.5v1Zm0-4c0,.28-.22.5-.5.5h-1c-.28,0-.5-.22-.5-.5v-1c0-.28.22-.5.5-.5h1c.28,0,.5.22.5.5v1Zm4,4c0,.28-.22.5-.5.5h-1c-.28,0-.5-.22-.5-.5v-1c0-.28.22-.5.5-.5h1c.28,0,.5.22.5.5v1Zm0-4c0,.28-.22.5-.5.5h-1c-.28,0-.5-.22-.5-.5v-1c0-.28.22-.5.5-.5h1c.28,0,.5.22.5.5v1Z"/></svg>