<svg xmlns="http://www.w3.org/2000/svg" viewBox="0 0 24 24" width="24" height="24"><path d="m23,9.5c0-4.69-4.93-8.5-11-8.5S1,4.81,1,9.5s4.93,8.5,11,8.5c.05,0,.1,0,.15,0-.17.36-.39.69-.68.98-.41.41-.91.71-1.45.87-.62.19-1.02.77-1.02,1.42,0,.98.93,1.74,1.87,1.46,1.02-.3,1.95-.86,2.73-1.63.97-.97,1.59-2.19,1.81-3.52,4.4-1.11,7.6-4.31,7.6-8.08ZM6.92,13.71c1.35-.98,3.35-.89,4.56.32.29.28.5.62.67.97-.05,0-.1,0-.15,0-1.91,0-3.69-.49-5.08-1.29Zm8.27.81c-.31-.98-.85-1.87-1.59-2.62-1.23-1.23-2.86-1.9-4.6-1.9-1.62,0-3.14.59-4.33,1.66-.43-.67-.67-1.4-.67-2.16,0-2.98,3.66-5.5,8-5.5s8,2.52,8,5.5c0,2.21-2.01,4.16-4.81,5.02Z"/></svg>