<svg xmlns="http://www.w3.org/2000/svg" width="24" height="24" viewBox="0 0 24 24"><path d="m5.99 10.23-2.12 2.12a5.447 5.447 0 0 0-1.61 3.89c0 .71.14 1.41.4 2.07.28.68.68 1.3 1.21 1.82.52.52 1.14.93 1.82 1.21.66.27 1.35.4 2.07.4s1.41-.14 2.07-.4c.68-.28 1.29-.68 1.82-1.21l2.12-2.12c.59-.59.59-1.54 0-2.12s-1.54-.59-2.12 0l-2.12 2.12c-.24.24-.52.42-.83.55-.6.24-1.29.24-1.88 0a2.6 2.6 0 0 1-.83-.55 2.6 2.6 0 0 1-.55-.83 2.53 2.53 0 0 1 0-1.88c.12-.31.31-.58.55-.82l2.12-2.12c.59-.59.59-1.54 0-2.12a1.49 1.49 0 0 0-2.12 0ZM10.23 8.11c.59.59 1.54.59 2.12 0l2.12-2.12c.24-.24.52-.42.83-.55.6-.24 1.28-.24 1.88 0 .31.13.59.31.83.55s.42.52.55.83a2.53 2.53 0 0 1 0 1.88c-.12.31-.31.58-.55.82l-2.12 2.12a1.49 1.49 0 0 0 0 2.12c.29.29.68.44 1.06.44s.77-.15 1.06-.44l2.12-2.12a5.447 5.447 0 0 0 1.61-3.89c0-.71-.14-1.41-.4-2.07a5.4 5.4 0 0 0-1.21-1.82c-.52-.52-1.14-.93-1.82-1.21a5.6 5.6 0 0 0-4.14 0c-.68.28-1.3.68-1.82 1.21l-2.12 2.12a1.49 1.49 0 0 0 0 2.12ZM8.75 5.25v-2.5C8.75 2.34 8.41 2 8 2s-.75.34-.75.75v2.5c0 .41.34.75.75.75s.75-.34.75-.75M5.25 7.25h-2.5c-.41 0-.75.34-.75.75s.34.75.75.75h2.5c.41 0 .75-.34.75-.75s-.34-.75-.75-.75M16.75 21.25v-2.5c0-.41-.34-.75-.75-.75s-.75.34-.75.75v2.5c0 .41.34.75.75.75s.75-.34.75-.75M21.25 15.25h-2.5c-.41 0-.75.34-.75.75s.34.75.75.75h2.5c.41 0 .75-.34.75-.75s-.34-.75-.75-.75"/></svg>