<svg xmlns="http://www.w3.org/2000/svg" viewBox="0 0 24 24" width="24" height="24"><path d="m22.01,1.59c-.55-.22-1.18-.09-1.6.32-.18.17-1.8,1.61-4.61.21-2.25-1.13-6.16-1.8-9.77,0h0C1.66,4.31-.1,9.52,1.66,14.42c.62-1.32,1.41-2.46,2.39-3.42,1.78-1.74,3.75-2.48,5.15-2.79.56-.12,1.09.09,1.43.48-1.13.44-2.4,1.15-3.58,2.31-2.41,2.36-3.76,5.86-4.01,10.39-.05.87.63,1.6,1.5,1.6h0c.79,0,1.45-.62,1.49-1.41.03-.6.09-1.16.17-1.71.59.3,1.2.56,1.86.71.73.17,1.46.25,2.18.25,2.68,0,5.12-1.06,6.32-1.95,1.97-1.48,3.6-2.89,5.2-6.37,1.53-3.33,1.22-9.37,1.21-9.62-.03-.59-.41-1.09-.96-1.31Z"/></svg>