<svg xmlns="http://www.w3.org/2000/svg" viewBox="0 0 24 24" width="24" height="24"><path d="m18.25,2.5c.41,0,.75-.34.75-.75s-.34-.75-.75-.75h-8.5c-.41,0-.75.34-.75.75s.34.75.75.75h1.5v1.25c-.96,0-1.75.79-1.75,1.75v.5c-2.48,0-4.5,2.02-4.5,4.5v8c0,2.48,2.02,4.5,4.5,4.5h5c2.48,0,4.5-2.02,4.5-4.5v-8c0-2.48-2.02-4.5-4.5-4.5v-.5c0-.96-.79-1.75-1.75-1.75v-1.25h5.5Zm-2.25,8v4.72c-1.7-.11-2.69-.5-3.72-.91-1.12-.45-2.28-.91-4.28-1.02v-2.78c0-.83.67-1.5,1.5-1.5h5c.83,0,1.5.67,1.5,1.5Zm-3-5v.5h-2v-.5c0-.14.11-.25.25-.25h1.5c.14,0,.25.11.25.25Z"/></svg>