<svg xmlns="http://www.w3.org/2000/svg" viewBox="0 0 24 24" width="24" height="24"><path d="m22.25,3.5h-5c-.41,0-.75.34-.75.75s.34.75.75.75h5c.41,0,.75-.34.75-.75s-.34-.75-.75-.75Z"/><path d="m20.23,9.74l-6.31-2.99c-1.22-.58-2.63-.58-3.85,0l-6.31,2.99c-.88.42-1.43,1.28-1.43,2.26s.55,1.84,1.43,2.26l6.31,2.99c.61.29,1.27.43,1.93.43s1.31-.14,1.93-.43l6.31-2.99c.88-.42,1.43-1.28,1.43-2.26s-.55-1.84-1.43-2.26Z"/><path d="m21.09,16.07l-6.31,2.99c-.88.42-1.81.63-2.78.63s-1.91-.21-2.78-.63l-6.31-2.99c-.11-.05-.21-.12-.31-.17-.17.34-.27.71-.27,1.11,0,.98.55,1.84,1.43,2.26l6.31,2.99c.61.29,1.27.43,1.93.43s1.31-.14,1.93-.43l6.31-2.99c.88-.42,1.43-1.28,1.43-2.26,0-.4-.1-.77-.27-1.11-.1.06-.2.12-.31.17Z"/></svg>