<svg xmlns="http://www.w3.org/2000/svg" width="24" height="24" viewBox="0 0 24 24"><path d="M19.5 8H12V7c0-.81-.16-1.59-.47-2.34-.3-.71-.73-1.36-1.28-1.9-.55-.55-1.19-.99-1.91-1.29a6.1 6.1 0 0 0-4.67 0c-.71.3-1.36.73-1.91 1.29-.09.09-.18.18-.26.28-.65.74-.39 1.89.51 2.28l.13.05c.57.24 1.23.08 1.64-.38.03-.04.07-.07.1-.11.28-.28.6-.49.95-.64.74-.31 1.6-.31 2.34 0a3.004 3.004 0 0 1 1.59 1.59Q9 6.385 9 7v1h-.5C6.57 8 5 9.57 5 11.5v8C5 21.43 6.57 23 8.5 23h11c1.93 0 3.5-1.57 3.5-3.5v-8C23 9.57 21.43 8 19.5 8m-4.75 9.85v1.4c0 .41-.34.75-.75.75s-.75-.34-.75-.75v-1.4C12.52 17.55 12 16.84 12 16c0-1.1.9-2 2-2s2 .9 2 2c0 .84-.52 1.55-1.25 1.85"/></svg>