<svg xmlns="http://www.w3.org/2000/svg" viewBox="0 0 24 24" width="24" height="24"><path d="m12.5,10.5H4.5c-.83,0-1.5.67-1.5,1.5s.67,1.5,1.5,1.5h8c.83,0,1.5-.67,1.5-1.5s-.67-1.5-1.5-1.5Z"/><path d="m4.5,8h15c.83,0,1.5-.67,1.5-1.5s-.67-1.5-1.5-1.5H4.5c-.83,0-1.5.67-1.5,1.5s.67,1.5,1.5,1.5Z"/><path d="m12.5,16H4.5c-.83,0-1.5.67-1.5,1.5s.67,1.5,1.5,1.5h8c.83,0,1.5-.67,1.5-1.5s-.67-1.5-1.5-1.5Z"/><path d="m17.16,12.74c-.5-.32-1.16.04-1.16.63v6.25c0,.59.66.95,1.16.63l4.86-3.13c.46-.3.46-.97,0-1.26l-4.86-3.13Z"/></svg>