<svg xmlns="http://www.w3.org/2000/svg" width="24" height="24" viewBox="0 0 24 24"><path d="m11.65 15.89-2.12 2.12c-.24.24-.52.42-.83.55-.6.24-1.29.24-1.88 0-.31-.13-.59-.31-.83-.55s-.42-.52-.55-.83a2.53 2.53 0 0 1 0-1.88c.13-.31.31-.59.55-.83l2.12-2.12c.59-.59.59-1.54 0-2.12a1.49 1.49 0 0 0-2.12 0l-2.12 2.12c-.52.52-.93 1.14-1.21 1.82-.27.66-.4 1.35-.4 2.07s.14 1.41.4 2.07c.28.68.68 1.3 1.21 1.82.52.52 1.14.93 1.82 1.21.66.27 1.35.4 2.07.4s1.41-.14 2.07-.4c.68-.28 1.3-.68 1.82-1.21l2.12-2.12c.59-.59.59-1.54 0-2.12a1.49 1.49 0 0 0-2.12 0M20.13 3.87c-.52-.52-1.14-.93-1.82-1.21a5.6 5.6 0 0 0-4.14 0c-.68.28-1.3.68-1.82 1.21l-2.12 2.12a1.49 1.49 0 0 0 0 2.12c.59.59 1.54.59 2.12 0l2.12-2.12c.24-.24.52-.42.83-.55.6-.24 1.29-.24 1.88 0 .31.13.59.31.83.55s.42.52.55.83a2.53 2.53 0 0 1 0 1.88c-.13.31-.31.59-.55.83l-2.12 2.12a1.49 1.49 0 0 0 0 2.12c.29.29.68.44 1.06.44s.77-.15 1.06-.44l2.12-2.12c.52-.52.93-1.14 1.21-1.82.27-.66.4-1.35.4-2.07s-.14-1.41-.4-2.07a5.4 5.4 0 0 0-1.21-1.82"/><path d="M7.23 16.77c.07.07.16.13.25.16s.19.05.28.05.19-.02.28-.05.17-.09.25-.16l4.24-4.24 4.24-4.24c.15-.15.22-.34.22-.53s-.07-.38-.22-.53-.34-.22-.53-.22-.38.07-.53.22l-4.24 4.24-4.24 4.24c-.15.15-.22.34-.22.53s.07.38.22.53"/></svg>