<svg xmlns="http://www.w3.org/2000/svg" viewBox="0 0 24 24" width="24" height="24"><path d="m10.5,10.74v5.76c0,.83.67,1.5,1.5,1.5s1.5-.67,1.5-1.5v-5.76c2.02-.64,3.5-2.51,3.5-4.74,0-2.76-2.24-5-5-5s-5,2.24-5,5c0,2.23,1.48,4.1,3.5,4.74Z"/><path d="m21.74,15.51c-.62-.54-1.46-1-2.5-1.39-.53-.2-1.11-.37-1.73-.52-.84-.2-1.68.38-1.81,1.24-.12.78.39,1.51,1.16,1.69.49.12.94.25,1.35.4.87.32,1.33.63,1.57.84.14.12.2.22.23.2-.02.04-.09.13-.23.26-.23.2-.7.51-1.57.84-.78.29-1.7.51-2.73.67-2.18.34-4.75.34-6.93,0-1.03-.16-1.95-.39-2.73-.68-.87-.32-1.33-.63-1.57-.83-.14-.12-.21-.23-.23-.2.02-.04.09-.13.23-.26.23-.2.7-.51,1.57-.84.41-.15.86-.29,1.35-.4.77-.19,1.28-.91,1.16-1.69h0c-.13-.86-.97-1.44-1.81-1.24-.62.15-1.2.32-1.73.52-1.04.38-1.89.85-2.5,1.39-1.04.91-1.26,1.86-1.26,2.49s.22,1.58,1.26,2.49c.62.54,1.46,1,2.5,1.39.96.36,2.08.63,3.31.83,1.25.19,2.57.29,3.93.29s2.68-.1,3.93-.29c1.23-.19,2.34-.47,3.31-.82,1.04-.38,1.89-.85,2.5-1.39,1.04-.91,1.26-1.86,1.26-2.49s-.22-1.58-1.26-2.49Z"/></svg>