<svg xmlns="http://www.w3.org/2000/svg" viewBox="0 0 24 24" width="24" height="24"><path d="m12,1c-.83,0-1.5.67-1.5,1.5v2c0,.83.67,1.5,1.5,1.5s1.5-.67,1.5-1.5v-2c0-.83-.67-1.5-1.5-1.5Z"/><path d="m12,18c-.83,0-1.5.67-1.5,1.5v2c0,.83.67,1.5,1.5,1.5s1.5-.67,1.5-1.5v-2c0-.83-.67-1.5-1.5-1.5Z"/><path d="m21.5,10.5h-2c-.83,0-1.5.67-1.5,1.5s.67,1.5,1.5,1.5h2c.83,0,1.5-.67,1.5-1.5s-.67-1.5-1.5-1.5Z"/><path d="m6,12c0-.83-.67-1.5-1.5-1.5h-2c-.83,0-1.5.67-1.5,1.5s.67,1.5,1.5,1.5h2c.83,0,1.5-.67,1.5-1.5Z"/><path d="m5.64,16.24l-1.41,1.41c-.59.59-.59,1.54,0,2.12.29.29.68.44,1.06.44s.77-.15,1.06-.44l1.41-1.41c.59-.59.59-1.54,0-2.12-.59-.59-1.54-.59-2.12,0Z"/><path d="m18.36,16.24c-.59-.59-1.54-.59-2.12,0-.59.59-.59,1.54,0,2.12l1.41,1.41c.29.29.68.44,1.06.44s.77-.15,1.06-.44c.59-.59.59-1.54,0-2.12l-1.41-1.41Z"/><path d="m6.34,4.22c-.59-.59-1.54-.59-2.12,0-.59.59-.59,1.54,0,2.12l1.41,1.41c.29.29.68.44,1.06.44s.77-.15,1.06-.44c.59-.59.59-1.54,0-2.12l-1.41-1.41Z"/></svg>