<svg xmlns="http://www.w3.org/2000/svg" viewBox="0 0 24 24" width="24" height="24"><path d="m20.23,6.74l-6.31-2.99c-1.22-.58-2.63-.58-3.85,0l-6.31,2.99c-.88.42-1.43,1.28-1.43,2.26s.55,1.84,1.43,2.26l6.31,2.99c.61.29,1.27.43,1.93.43s1.31-.14,1.93-.43l6.31-2.99c.88-.42,1.43-1.28,1.43-2.26s-.55-1.84-1.43-2.26Z"/><path d="m14.78,16.05c-.88.42-1.81.63-2.78.63s-1.91-.21-2.78-.63l-6.08-2.88c-.5.46-.8,1.11-.8,1.83,0,.98.55,1.84,1.43,2.26l6.31,2.99c.61.29,1.27.43,1.93.43s1.31-.14,1.93-.43l6.31-2.99c.88-.42,1.43-1.28,1.43-2.26,0-.71-.3-1.36-.8-1.83l-6.08,2.88Z"/></svg>