<svg xmlns="http://www.w3.org/2000/svg" viewBox="0 0 24 24" width="24" height="24"><path d="m14.24,17.51s-.07,0-.11,0c-.11,0-.2.02-.31.03-.17-.61-.61-1.77-1.57-2.68,0,0,0-.01,0-.02.01-.08.17-1.36-.33-2.74.11-.09.2-.2.26-.33.03-.06.47-1.06.49-2.36.72-.38,2.19-1.34,2.74-3.19.71-2.4-.61-4.63-.67-4.73-.25-.41-.76-.59-1.21-.42-.1.04-2.43.94-3.16,3.39-.05.17-.07.35-.1.52-.89-.58-1.71-.8-1.76-.81-.47-.12-.95.12-1.15.55-.04.09-.88,2-.24,4.04-.35-.02-.59,0-.62,0-.47.04-.84.4-.9.86-.01.11-.31,2.54,1.26,4.35-.14.05-.24.09-.26.1-.42.19-.65.63-.57,1.08.02.11.48,2.65,2.66,3.81.47.25.95.39,1.42.47-.05.06-.09.1-.09.11-.29.34-.31.84-.06,1.21.06.09,1.54,2.2,4,2.26.04,0,.07,0,.11,0,2.38,0,4.03-1.94,4.1-2.03.29-.34.31-.84.06-1.21-.06-.09-1.54-2.2-4-2.26Z"/></svg>