<svg xmlns="http://www.w3.org/2000/svg" width="24" height="24" viewBox="0 0 24 24"><path d="M11.25 1.5V4c0 .41.34.75.75.75s.75-.34.75-.75V1.5c0-.41-.34-.75-.75-.75s-.75.34-.75.75M3.17 6.38a.745.745 0 0 0-1.04.21c-.23.34-.14.81.21 1.04l1.5 1a.751.751 0 0 0 1.04-.2c.23-.34.14-.81-.21-1.04l-1.5-1ZM6.08 2.63c-.34.23-.44.7-.21 1.04l1 1.5c.14.22.38.33.62.33a.755.755 0 0 0 .63-1.17l-1-1.5a.753.753 0 0 0-1.04-.21ZM20.83 6.38l-1.5 1c-.34.23-.44.7-.21 1.04.14.22.38.33.62.33.14 0 .29-.04.42-.13l1.5-1c.34-.23.44-.7.21-1.04a.753.753 0 0 0-1.04-.21ZM16.5 5.5c.24 0 .48-.12.62-.33l1-1.5c.23-.34.14-.81-.21-1.04a.745.745 0 0 0-1.04.21l-1 1.5c-.23.34-.14.81.21 1.04.13.09.27.13.42.13ZM16.19 18.93c1.57-1.6 2.81-2.86 2.81-5.83C19 9.18 15.86 6 12 6s-7 3.19-7 7.1c0 2.97 1.22 4.21 2.77 5.79l.16.16c.18.18.31.54.41.95H7v3h10v-3h-1.34c.09-.41.23-.77.41-.95z"/></svg>