<svg xmlns="http://www.w3.org/2000/svg" width="24" height="24" viewBox="0 0 24 24"><path d="M12 1C5.93 1 1 5.93 1 12s4.93 11 11 11 11-4.93 11-11S18.07 1 12 1M6.35 12.43a.777.777 0 0 1 .22-1.08L8.6 10 6.57 8.65a.777.777 0 0 1-.22-1.08c.24-.36.72-.46 1.08-.22l3 2c.22.14.35.39.35.65s-.13.5-.35.65l-3 2c-.13.09-.28.13-.43.13-.25 0-.5-.12-.65-.35m10.22 2.65C15.97 16.26 14.63 18 12 18s-3.97-1.74-4.57-2.92c-.25-.49.12-1.08.67-1.08h7.79c.56 0 .93.58.67 1.08Zm.86-3.73c.36.24.46.72.22 1.08-.15.23-.4.35-.65.35-.15 0-.3-.04-.43-.13l-3-2c-.22-.14-.35-.39-.35-.65s.13-.5.35-.65l3-2c.36-.24.84-.14 1.08.22s.14.84-.22 1.08L15.4 10z"/></svg>