<svg xmlns="http://www.w3.org/2000/svg" viewBox="0 0 24 24" width="24" height="24"><path d="m4.5,13.5h6c.83,0,1.5-.67,1.5-1.5s-.67-1.5-1.5-1.5h-6c-.83,0-1.5.67-1.5,1.5s.67,1.5,1.5,1.5Z"/><path d="m4.5,8h15c.83,0,1.5-.67,1.5-1.5s-.67-1.5-1.5-1.5H4.5c-.83,0-1.5.67-1.5,1.5s.67,1.5,1.5,1.5Z"/><path d="m4.5,19h6c.83,0,1.5-.67,1.5-1.5s-.67-1.5-1.5-1.5h-6c-.83,0-1.5.67-1.5,1.5s.67,1.5,1.5,1.5Z"/><path d="m22.56,13.44c-.59-.59-1.54-.59-2.12,0l-1.94,1.94-1.94-1.94c-.59-.59-1.54-.59-2.12,0-.59.59-.59,1.54,0,2.12l1.94,1.94-1.94,1.94c-.59.59-.59,1.54,0,2.12.29.29.68.44,1.06.44s.77-.15,1.06-.44l1.94-1.94,1.94,1.94c.29.29.68.44,1.06.44s.77-.15,1.06-.44c.59-.59.59-1.54,0-2.12l-1.94-1.94,1.94-1.94c.59-.59.59-1.54,0-2.12Z"/></svg>