<svg xmlns="http://www.w3.org/2000/svg" viewBox="0 0 24 24" width="24" height="24"><path class="b" d="m6,18.5c0,2.48,2.02,4.5,4.5,4.5h3c2.48,0,4.5-2.02,4.5-4.5v-.5H6v.5Z"/><path class="b" d="m11.25,16v-2s.01-.05.02-.07c-1.86-.35-3.27-1.97-3.27-3.93,0-.41.34-.75.75-.75s.75.34.75.75c0,1.38,1.12,2.5,2.5,2.5s2.5-1.12,2.5-2.5c0-.41.34-.75.75-.75s.75.34.75.75c0,1.95-1.41,3.58-3.27,3.93,0,.03.02.05.02.07v2h5.92c1.47-1.63,2.33-3.75,2.33-6,0-4.96-4.04-9-9-9S3,5.04,3,10c0,2.25.86,4.37,2.33,6h5.92Z"/></svg>