<svg xmlns="http://www.w3.org/2000/svg" viewBox="0 0 24 24" width="24" height="24"><path d="m19.93,13.43c-2.41.37-4.92-.36-7.24-2.11-1.76-2.33-2.5-4.83-2.12-7.25.13-.84-.21-1.67-.89-2.18-.66-.49-1.53-.58-2.28-.23C3.08,3.72.54,8.31,1.07,13.08c.58,5.13,4.72,9.27,9.84,9.84.42.05.85.07,1.27.07,4.3,0,8.28-2.46,10.15-6.4.35-.74.27-1.62-.23-2.28-.5-.68-1.34-1.02-2.18-.89Z"/><path d="m15.73,6.29c.88.4,1.59,1.11,1.99,1.99l.33.73c.18.39.73.39.91,0l.33-.73c.4-.88,1.11-1.59,1.99-1.99l.73-.33c.39-.18.39-.73,0-.91l-.73-.33c-.88-.4-1.59-1.11-1.99-1.99l-.33-.73c-.18-.39-.73-.39-.91,0l-.33.73c-.4.88-1.11,1.59-1.99,1.99l-.73.33c-.39.18-.39.73,0,.91l.73.33Z"/></svg>