<svg xmlns="http://www.w3.org/2000/svg" viewBox="0 0 24 24" width="24" height="24"><path d="m12,23c4.41,0,8-3.59,8-8s-3.59-8-8-8-8,3.59-8,8,3.59,8,8,8Zm-3.93-9.37l2.34-.34c.11-.02.2-.08.25-.18l1.05-2.12c.12-.24.47-.24.59,0l1.05,2.12c.05.1.14.16.25.18l2.34.34c.27.04.38.37.18.56l-1.7,1.65c-.08.08-.11.18-.09.29l.4,2.33c.05.27-.24.47-.48.35l-2.1-1.1c-.1-.05-.21-.05-.3,0l-2.1,1.1c-.24.13-.52-.08-.48-.35l.4-2.33c.02-.11-.02-.21-.09-.29l-1.7-1.65c-.19-.19-.09-.52.18-.56Z"/><path d="m18.16,8.45c.32.3.84.09.84-.35v-4.09c0-1.66-1.34-3-3-3h-2.5v4.73c0,.24.17.43.4.48,1.62.35,3.09,1.14,4.26,2.23Z"/><path d="m5.84,8.45c1.17-1.1,2.63-1.88,4.26-2.23.23-.05.4-.25.4-.48V1h-2.5c-1.66,0-3,1.34-3,3v4.09c0,.44.52.66.84.35Z"/></svg>