<svg xmlns="http://www.w3.org/2000/svg" viewBox="0 0 24 24" width="24" height="24"><path d="M18 1A2.5 2.5 0 1 0 18 6 2.5 2.5 0 1 0 18 1z"/><path d="m22.15,9.77c-.7-1.68-2.33-2.77-4.15-2.77-1.1,0-2.12.4-2.92,1.08h-.08v.07c-.49.44-.89.99-1.15,1.62l-1.73,4.15c-.19.46-.14.99.14,1.41s.75.67,1.25.67h.06l-.2.73c-.18.64.3,1.27.96,1.27h.68v3.5c0,.83.67,1.5,1.5,1.5h3c.83,0,1.5-.67,1.5-1.5v-3.5h.68c.66,0,1.14-.63.96-1.27l-.2-.73h.06c.5,0,.97-.25,1.25-.67s.33-.95.14-1.41l-1.73-4.15Z"/><path d="M5 1A2.5 2.5 0 1 0 5 6 2.5 2.5 0 1 0 5 1z"/><path d="m1.5,16h.5v5.5c0,.83.67,1.5,1.5,1.5h3c.83,0,1.5-.67,1.5-1.5v-5.5h.5c.83,0,1.5-.67,1.5-1.5v-2.5c0-2.76-2.24-5-5-5S0,9.24,0,12v2.5c0,.83.67,1.5,1.5,1.5Z"/></svg>