<svg xmlns="http://www.w3.org/2000/svg" viewBox="0 0 24 24" width="24" height="24"><path d="m6.5,18.34v3.16c0,.52.27,1,.71,1.28.44.27.99.3,1.46.07l3.33-1.66,3.33,1.66c.21.11.44.16.67.16.27,0,.55-.08.79-.22.44-.27.71-.76.71-1.28v-3.16c-1.58,1.04-3.47,1.66-5.5,1.66s-3.92-.61-5.5-1.66Z"/><path d="m12,1C7.04,1,3,5.04,3,10s4.04,9,9,9,9-4.04,9-9S16.96,1,12,1Zm4.11,8.42l-1.7,1.65c-.08.08-.11.18-.09.29l.4,2.33c.05.27-.24.47-.48.35l-2.1-1.1c-.1-.05-.21-.05-.3,0l-2.1,1.1c-.24.13-.52-.08-.48-.35l.4-2.33c.02-.11-.02-.21-.09-.29l-1.7-1.65c-.19-.19-.09-.52.18-.56l2.34-.34c.11-.02.2-.08.25-.18l1.05-2.12c.12-.24.47-.24.59,0l1.05,2.12c.05.1.14.16.25.18l2.34.34c.27.04.38.37.18.56Z"/></svg>