<svg xmlns="http://www.w3.org/2000/svg" viewBox="0 0 24 24" width="24" height="24"><path d="m22.14,2.58c-.54-.38-1.22-.46-1.84-.24l-12.3,4.56v10.2l.95.35-.3,1.04c-.32,1.11.25,2.28,1.33,2.71l2.2.88c.27.11.55.16.83.16.34,0,.68-.08.99-.23.57-.28,1-.79,1.17-1.4l.22-.77,4.91,1.82c.22.08.46.12.69.12.4,0,.81-.12,1.15-.36.54-.37.86-.99.86-1.64V4.22c0-.65-.32-1.27-.86-1.64Zm-8.41,17.62c-.06.21-.2.37-.39.47-.19.1-.41.1-.61.02l-2.2-.88c-.36-.14-.55-.53-.44-.9l.27-.93,3.63,1.34-.25.88Z"/><path d="m1,11v2c0,2.21,1.79,4,4,4h1.5V7h-1.5c-2.21,0-4,1.79-4,4Z"/></svg>