<svg xmlns="http://www.w3.org/2000/svg" width="24" height="24" viewBox="0 0 24 24"><path d="M18.5 2h-13C3.02 2 1 4.02 1 6.5v9C1 17.98 3.02 20 5.5 20H6v1.95a2 2 0 0 0 1.14 1.81c.28.13.57.2.86.2.45 0 .89-.15 1.26-.45l4.27-3.49h4.96c2.48 0 4.5-2.02 4.5-4.5V6.5c0-2.48-2.02-4.5-4.5-4.5ZM12 17c-.83 0-1.5-.67-1.5-1.5S11.17 14 12 14s1.5.67 1.5 1.5S12.83 17 12 17m3.69-6.69c-.2.48-.49.91-.86 1.27-.36.36-.79.65-1.27.85-.5.21-1.02.32-1.56.32-.83 0-1.5-.67-1.5-1.5s.67-1.5 1.5-1.5a1.05 1.05 0 0 0 .71-.29c.1-.09.17-.2.22-.32s.08-.25.08-.39-.03-.27-.08-.39-.12-.22-.21-.32-.2-.17-.32-.22c-.24-.1-.53-.1-.78 0-.12.05-.22.12-.32.21s-.17.2-.22.32c-.32.76-1.2 1.12-1.97.8-.76-.32-1.12-1.2-.8-1.97.2-.48.49-.91.86-1.27.36-.36.79-.65 1.27-.85.99-.42 2.12-.42 3.11 0 .48.2.91.49 1.27.86.36.36.65.79.85 1.27.21.5.32 1.02.32 1.56s-.11 1.06-.31 1.56Z"/></svg>