<svg xmlns="http://www.w3.org/2000/svg" viewBox="0 0 24 24" width="24" height="24"><path d="m7.44,14.44l-3,3-1.16-1.16c-.47-.47-1.28-.14-1.28.53v4.44c0,.41.34.75.75.75h4.44c.67,0,1-.81.53-1.28l-1.16-1.16,3-3c.59-.59.59-1.54,0-2.12s-1.54-.59-2.12,0Z"/><path d="m6.56,4.44l1.16-1.16c.47-.47.14-1.28-.53-1.28H2.75c-.41,0-.75.34-.75.75v4.44c0,.67.81,1,1.28.53l1.16-1.16,3,3c.29.29.68.44,1.06.44s.77-.15,1.06-.44c.59-.59.59-1.54,0-2.12l-3-3Z"/><path d="m20.72,16.28l-1.16,1.16-3-3c-.59-.59-1.54-.59-2.12,0s-.59,1.54,0,2.12l3,3-1.16,1.16c-.47.47-.14,1.28.53,1.28h4.44c.41,0,.75-.34.75-.75v-4.44c0-.67-.81-1-1.28-.53Z"/><path d="m21.25,2h-4.44c-.67,0-1,.81-.53,1.28l1.16,1.16-3,3c-.59.59-.59,1.54,0,2.12.29.29.68.44,1.06.44s.77-.15,1.06-.44l3-3,1.16,1.16c.47.47,1.28.14,1.28-.53V2.75c0-.41-.34-.75-.75-.75Z"/></svg>