<svg xmlns="http://www.w3.org/2000/svg" viewBox="0 0 24 24" width="24" height="24"><path d="m5.75,3h12.5c.41,0,.75-.34.75-.75s-.34-.75-.75-.75H5.75c-.41,0-.75.34-.75.75s.34.75.75.75Z"/><path d="m17.5,5H6.5c-2.48,0-4.5,2.02-4.5,4.5v9c0,2.48,2.02,4.5,4.5,4.5h11c2.48,0,4.5-2.02,4.5-4.5v-9c0-2.48-2.02-4.5-4.5-4.5Zm-.5,13c0,1.1-.9,2-2,2s-2-.9-2-2,.9-2,2-2c.17,0,.34.03.5.07v-5.2c0-.12-.09-.23-.21-.25l-5-.71c-.1-.02-.17.03-.2.06-.03.03-.09.09-.09.19v6.85c0,1.1-.9,2-2,2s-2-.9-2-2,.9-2,2-2c.17,0,.34.03.5.07v-4.92c0-.51.22-.99.6-1.32.38-.33.89-.48,1.39-.41l5,.71c.86.12,1.5.87,1.5,1.73v7.13Z"/></svg>