<svg xmlns="http://www.w3.org/2000/svg" width="24" height="24" viewBox="0 0 24 24"><path d="M14.23 18.41q-.345.105-.72.18a7.924 7.924 0 0 1-3.02 0q-.36-.075-.72-.18c-.23-.07-.46-.16-.69-.25-.22-.1-.44-.2-.66-.32s-.42-.24-.62-.38-.39-.28-.58-.43-.36-.31-.53-.48-.33-.35-.48-.53c-.15-.19-.3-.38-.43-.58s-.26-.41-.37-.62a7.012 7.012 0 0 1-.75-2.07c-.05-.24-.09-.49-.11-.74-.03-.25-.04-.51-.04-.77 0-.41-.34-.75-.75-.75s-.75.34-.75.75a9.3 9.3 0 0 0 .41 2.68c.09.28.19.56.3.83s.24.53.38.79c.14.25.29.5.45.74s.33.47.52.69a8.808 8.808 0 0 0 1.22 1.22c.22.18.45.36.69.52s.49.31.74.45.52.27.79.38.55.22.83.3c.28.09.57.16.86.22.1.02.21.03.32.05v1.39c0 .83.67 1.5 1.5 1.5s1.5-.67 1.5-1.5v-1.39c.1-.02.21-.03.31-.05.29-.06.58-.13.86-.22.4-.12.62-.54.49-.94a.745.745 0 0 0-.94-.49ZM18.51 17.45c.15-.16.3-.31.43-.48.18-.22.36-.45.52-.69s.31-.49.45-.74.27-.52.38-.79.22-.55.3-.83c.09-.28.16-.57.22-.86s.11-.59.14-.9c.03-.3.05-.61.05-.92 0-.41-.34-.75-.75-.75s-.75.34-.75.75c0 .26-.01.52-.04.77s-.06.5-.11.74q-.075.36-.18.72c-.07.23-.16.46-.25.69-.1.22-.2.44-.32.66s-.24.42-.38.62-.28.39-.43.58c-.11.13-.22.25-.34.37l-1.44-1.44c.62-.83.99-1.84.99-2.95V6c0-2.76-2.24-5-5-5S7.04 3.21 7.01 5.95L2.28 1.22c-.29-.29-.77-.29-1.06 0s-.29.77 0 1.06l20.5 20.5c.15.15.34.22.53.22s.38-.07.53-.22c.29-.29.29-.77 0-1.06z"/><path d="M11.08 16.92c.39.07.78.1 1.15.08.32-.01.46-.41.24-.64l-4.84-4.84a.37.37 0 0 0-.63.26c0 2.45 1.67 4.69 4.08 5.13Z"/></svg>