<svg xmlns="http://www.w3.org/2000/svg" viewBox="0 0 24 24" width="24" height="24"><path d="m18.95,13.05l-2.52-5.05h.07c.83,0,1.5-.67,1.5-1.5s-.67-1.5-1.5-1.5h-1.57l-.03-.07c-.59-1.19-1.8-1.93-3.13-1.93h-.26c-.83,0-1.5.67-1.5,1.5s.67,1.5,1.5,1.5h.26c.19,0,.36.11.45.28l1.36,2.72h-1.86c-.91,0-1.76.4-2.33,1.11l-1.82,2.24-1.52-1.78c-.86-1-2.1-1.57-3.42-1.57h-.12c-.83,0-1.5.67-1.5,1.5s.67,1.5,1.5,1.5h.12c.44,0,.85.19,1.14.52l.56.65c-1.91.52-3.32,2.25-3.32,4.32,0,2.48,2.02,4.5,4.5,4.5,1.96,0,3.62-1.27,4.23-3.03.09.02.18.03.27.03h4.28c.62,1.74,2.27,3,4.22,3,2.48,0,4.5-2.02,4.5-4.5,0-2.33-1.78-4.23-4.05-4.45Zm-13.45,5.95c-.83,0-1.5-.67-1.5-1.5s.67-1.5,1.5-1.5,1.5.67,1.5,1.5-.67,1.5-1.5,1.5Zm13,0c-.83,0-1.5-.67-1.5-1.5,0-.33.11-.63.29-.88l.2-.22c.27-.25.62-.4,1.01-.4.83,0,1.5.67,1.5,1.5s-.67,1.5-1.5,1.5Z"/></svg>