<svg xmlns="http://www.w3.org/2000/svg" viewBox="0 0 24 24" width="24" height="24"><path d="m12,2C5.93,2,1,6.04,1,11c0,2.7,1.48,5.24,4,6.94v2.92c0,.79.47,1.51,1.2,1.83.26.11.53.17.8.17.49,0,.98-.18,1.36-.53l2.58-2.38c.37.03.72.05,1.07.05,6.07,0,11-4.04,11-9S18.07,2,12,2Zm0,15c-.83,0-1.5-.67-1.5-1.5s.67-1.5,1.5-1.5,1.5.67,1.5,1.5-.67,1.5-1.5,1.5Zm3.69-6.69c-.2.48-.49.91-.86,1.27-.36.36-.79.65-1.27.85-.5.21-1.02.32-1.56.32-.83,0-1.5-.67-1.5-1.5s.67-1.5,1.5-1.5c.13,0,.27-.03.39-.08.12-.05.22-.12.32-.21s.17-.2.22-.32c.05-.12.08-.25.08-.39s-.03-.27-.08-.39c-.05-.12-.12-.22-.21-.32s-.2-.17-.32-.22c-.24-.1-.53-.1-.78,0-.12.05-.22.12-.32.21s-.17.2-.22.32c-.32.76-1.2,1.12-1.97.8-.76-.32-1.12-1.2-.8-1.97.2-.48.49-.91.86-1.27.36-.36.79-.65,1.27-.85.99-.42,2.12-.42,3.11,0,.48.2.91.49,1.27.86.36.36.65.79.85,1.27.21.5.32,1.02.32,1.56s-.11,1.06-.31,1.56Z"/></svg>