<svg xmlns="http://www.w3.org/2000/svg" viewBox="0 0 24 24" width="24" height="24"><path d="m20.77,8.03l-4.08,3.4c-.36.3-.36.85,0,1.15l4.08,3.4c.49.41,1.23.06,1.23-.58v-6.8c0-.64-.74-.98-1.23-.58Z"/><path d="m3.5,7h13c.83,0,1.5-.67,1.5-1.5s-.67-1.5-1.5-1.5H3.5c-.83,0-1.5.67-1.5,1.5s.67,1.5,1.5,1.5Z"/><path d="m3.5,13.5h9c.83,0,1.5-.67,1.5-1.5s-.67-1.5-1.5-1.5H3.5c-.83,0-1.5.67-1.5,1.5s.67,1.5,1.5,1.5Z"/><path d="m3.5,20h13c.83,0,1.5-.67,1.5-1.5s-.67-1.5-1.5-1.5H3.5c-.83,0-1.5.67-1.5,1.5s.67,1.5,1.5,1.5Z"/></svg>