<svg xmlns="http://www.w3.org/2000/svg" viewBox="0 0 24 24" width="24" height="24"><path d="m12,2C5.93,2,1,6.04,1,11c0,2.7,1.48,5.24,4,6.94v2.92c0,.79.47,1.51,1.2,1.83.26.11.53.17.8.17.49,0,.98-.18,1.36-.53l2.58-2.38c.37.03.72.05,1.07.05,6.07,0,11-4.04,11-9S18.07,2,12,2Zm2.06,9.2l-.9.9-3.23,3.23c-.11.11-.25.17-.4.17h-1.46c-.31,0-.57-.25-.57-.57v-1.47c0-.15.06-.29.17-.4l3.23-3.23.9-.9c.22-.22.58-.22.8,0l1.46,1.46c.22.22.22.58,0,.8Zm1.6-1.6c-.22.22-.58.22-.8,0l-1.46-1.46c-.22-.22-.22-.58,0-.8h0c.5-.5,1.3-.5,1.8,0l.47.47c.5.5.5,1.3,0,1.8Z"/></svg>