<svg xmlns="http://www.w3.org/2000/svg" viewBox="0 0 24 24" width="24" height="24"><path d="m18.5,2H5.5C3.02,2,1,4.02,1,6.5v9c0,1.95,1.26,3.6,3,4.22v.78c0,.83.67,1.5,1.5,1.5s1.5-.67,1.5-1.5v-.5h10v.5c0,.83.67,1.5,1.5,1.5s1.5-.67,1.5-1.5v-.78c1.74-.62,3-2.27,3-4.22V6.5c0-2.48-2.02-4.5-4.5-4.5Zm-3.5,11.5c0,1.38-1.12,2.5-2.5,2.5h-5c-1.38,0-2.5-1.12-2.5-2.5v-5c0-1.38,1.12-2.5,2.5-2.5h5c1.38,0,2.5,1.12,2.5,2.5v5Zm3.5,1.5c-.83,0-1.5-.67-1.5-1.5s.67-1.5,1.5-1.5,1.5.67,1.5,1.5-.67,1.5-1.5,1.5Zm0-5c-.83,0-1.5-.67-1.5-1.5s.67-1.5,1.5-1.5,1.5.67,1.5,1.5-.67,1.5-1.5,1.5Z"/></svg>