<svg xmlns="http://www.w3.org/2000/svg" viewBox="0 0 24 24" width="24" height="24"><path d="m8.67,22.84l3.33-1.67,3.33,1.67c.21.11.44.16.67.16.27,0,.55-.08.79-.22.44-.27.71-.76.71-1.28v-2.42c-.88.58-1.93.92-3.02.92h-4.96c-1.09,0-2.14-.34-3.02-.92v2.42c0,.52.27,1,.71,1.28.44.27.99.3,1.46.07Z"/><path d="m18.39,3.27c-.8-1.4-2.3-2.27-3.91-2.27h-4.96c-1.61,0-3.11.87-3.91,2.27l-2.57,4.5c-.78,1.38-.78,3.08,0,4.46l2.57,4.5c.8,1.4,2.3,2.27,3.91,2.27h4.96c1.61,0,3.11-.87,3.91-2.27l2.57-4.5c.78-1.38.78-3.08,0-4.46l-2.57-4.5Zm-2.28,6.15l-1.7,1.65c-.08.08-.11.18-.09.29l.4,2.33c.05.27-.24.47-.48.35l-2.1-1.1c-.1-.05-.21-.05-.3,0l-2.1,1.1c-.24.13-.52-.08-.48-.35l.4-2.33c.02-.11-.02-.21-.09-.29l-1.7-1.65c-.19-.19-.09-.52.18-.56l2.34-.34c.11-.02.2-.08.25-.18l1.05-2.12c.12-.24.47-.24.59,0l1.05,2.12c.05.1.14.16.25.18l2.34.34c.27.04.38.37.18.56Z"/></svg>