<svg xmlns="http://www.w3.org/2000/svg" width="24" height="24" viewBox="0 0 24 24"><path d="M5.5 20H6v1.95a2 2 0 0 0 1.14 1.81c.28.13.57.2.86.2.45 0 .89-.15 1.26-.45l4.27-3.49h4.96c2.48 0 4.5-2.02 4.5-4.5V6.5c0-2.48-2.02-4.5-4.5-4.5H5.5C3.02 2 1 4.02 1 6.5v9C1 17.98 3.02 20 5.5 20m8.13-11.23a1.5 1.5 0 0 1 2.2-2.04l3.03 3.25c.54.58.54 1.47 0 2.04l-3.03 3.25c-.29.32-.7.48-1.1.48a1.5 1.5 0 0 1-1.1-2.52L15.7 11zM5.16 9.98l3.03-3.25c.56-.6 1.51-.64 2.12-.08s.64 1.51.08 2.12L8.32 11l2.07 2.23a1.5 1.5 0 0 1-2.2 2.04l-3.03-3.25c-.54-.58-.54-1.47 0-2.04"/></svg>