<svg xmlns="http://www.w3.org/2000/svg" viewBox="0 0 24 24" width="24" height="24"><path d="m12,2C5.93,2,1,6.04,1,11c0,2.7,1.48,5.24,4,6.94v2.92c0,.79.47,1.51,1.2,1.83.26.11.53.17.8.17.49,0,.98-.18,1.36-.53l2.58-2.38c.37.03.72.05,1.07.05,6.07,0,11-4.04,11-9S18.07,2,12,2Zm3.81,10.69c.59.59.59,1.54,0,2.12-.29.29-.68.44-1.06.44s-.77-.15-1.06-.44l-1.69-1.69-1.69,1.69c-.29.29-.68.44-1.06.44s-.77-.15-1.06-.44c-.59-.59-.59-1.54,0-2.12l1.69-1.69-1.69-1.69c-.59-.59-.59-1.54,0-2.12.59-.59,1.54-.59,2.12,0l1.69,1.69,1.69-1.69c.59-.59,1.54-.59,2.12,0,.59.59.59,1.54,0,2.12l-1.69,1.69,1.69,1.69Z"/></svg>