<svg xmlns="http://www.w3.org/2000/svg" width="24" height="24" viewBox="0 0 24 24"><path d="M18.5 2h-13C3.02 2 1 4.02 1 6.5v9C1 17.98 3.02 20 5.5 20H6v1.95a2 2 0 0 0 1.14 1.81c.28.13.57.2.86.2.45 0 .89-.15 1.26-.45l4.27-3.49h4.96c2.48 0 4.5-2.02 4.5-4.5V6.5c0-2.48-2.02-4.5-4.5-4.5Zm-4.44 9.2-.9.9-3.23 3.23a.56.56 0 0 1-.4.17H8.07a.57.57 0 0 1-.57-.57v-1.47c0-.15.06-.29.17-.4l3.23-3.23.9-.9c.22-.22.58-.22.8 0l1.46 1.46c.22.22.22.58 0 .8Zm1.6-1.6c-.22.22-.58.22-.8 0L13.4 8.14a.567.567 0 0 1 0-.8c.5-.5 1.3-.5 1.8 0l.47.47c.5.5.5 1.3 0 1.8Z"/></svg>