<svg xmlns="http://www.w3.org/2000/svg" width="24" height="24" viewBox="0 0 24 24"><path d="M21.25 12.25c-.41 0-.75.34-.75.75 0 4.69-3.81 8.5-8.5 8.5S3.5 17.69 3.5 13c0-.41-.34-.75-.75-.75S2 12.59 2 13c0 5.51 4.49 10 10 10s10-4.49 10-10c0-.41-.34-.75-.75-.75"/><path d="M11.25 13H5c0 3.86 3.14 7 7 7s7-3.14 7-7h-3.75c-.41 0-.75-.34-.75-.75s.34-.75.75-.75H19V9h-3.75c-.41 0-.75-.34-.75-.75s.34-.75.75-.75h3.72C18.71 3.87 15.69 1 12 1S5.28 3.87 5.03 7.5h6.22c.41 0 .75.34.75.75s-.34.75-.75.75H5v2.5h6.25c.41 0 .75.34.75.75s-.34.75-.75.75"/></svg>