<svg xmlns="http://www.w3.org/2000/svg" width="24" height="24" viewBox="0 0 24 24"><path d="M19 2a3 3 0 1 0 0 6 3 3 0 1 0 0-6"/><path d="M20.53 19.47c.29-.6.47-1.26.47-1.97V9.01c-.61.3-1.28.49-2 .49-2.48 0-4.5-2.02-4.5-4.5 0-.72.19-1.39.49-2H6.5c-.71 0-1.37.18-1.97.47L2.28 1.22c-.29-.29-.77-.29-1.06 0s-.29.77 0 1.06l20.5 20.5c.15.15.34.22.53.22s.38-.07.53-.22c.29-.29.29-.77 0-1.06zM2.95 6.84a.5.5 0 0 0-.85.31c-.03.28-.1.56-.1.85v9.5C2 19.99 4.01 22 6.5 22H16c.29 0 .71-.06.85-.1.42-.09.61-.55.31-.85z"/></svg>