<svg xmlns="http://www.w3.org/2000/svg" viewBox="0 0 24 24" width="24" height="24"><path d="m18.28,6.47l2.4-3.04c.51-.65.4-1.59-.25-2.11-.65-.51-1.59-.4-2.11.25l-2.84,3.59c-.48-.1-.98-.16-1.49-.16H4.5c-.83,0-1.5.67-1.5,1.5s.67,1.5,1.5,1.5h8.75l-6.32,8h-2.43c-.83,0-1.5.67-1.5,1.5s.67,1.5,1.5,1.5h.06l-1.24,1.57c-.51.65-.4,1.59.25,2.11.28.22.6.32.93.32.44,0,.88-.2,1.18-.57l2.71-3.43h5.61c3.86,0,7-3.14,7-7,0-2.25-1.07-4.25-2.72-5.53Zm-4.28,9.53h-3.25l5.66-7.17c.96.73,1.59,1.87,1.59,3.17,0,2.21-1.79,4-4,4Z"/></svg>