<svg xmlns="http://www.w3.org/2000/svg" viewBox="0 0 24 24" width="24" height="24"><path d="m18.5,2H5.5C3.01,2,1,4.01,1,6.5v11c0,2.49,2.01,4.5,4.5,4.5h13c2.49,0,4.5-2.01,4.5-4.5V6.5c0-2.49-2.01-4.5-4.5-4.5Zm-13,3h5c.83,0,1.5.67,1.5,1.5v5c0,.83-.67,1.5-1.5,1.5h-5c-.83,0-1.5-.67-1.5-1.5v-5c0-.83.67-1.5,1.5-1.5Zm13,13H5.5c-.83,0-1.5-.67-1.5-1.5h0c0-.83.67-1.5,1.5-1.5h13c.83,0,1.5.67,1.5,1.5h0c0,.83-.67,1.5-1.5,1.5Zm0-5h-3c-.83,0-1.5-.67-1.5-1.5h0c0-.83.67-1.5,1.5-1.5h3c.83,0,1.5.67,1.5,1.5h0c0,.83-.67,1.5-1.5,1.5Zm0-5h-3c-.83,0-1.5-.67-1.5-1.5h0c0-.83.67-1.5,1.5-1.5h3c.83,0,1.5.67,1.5,1.5h0c0,.83-.67,1.5-1.5,1.5Z"/></svg>