<svg xmlns="http://www.w3.org/2000/svg" viewBox="0 0 24 24" width="24" height="24"><path d="m12,6c-3.31,0-6,2.69-6,6s2.69,6,6,6,6-2.69,6-6-2.69-6-6-6Zm0,9c-1.65,0-3-1.35-3-3,0-1.32.86-2.43,2.04-2.83.17,2.09,1.55,3.82,3.45,4.5-.54.8-1.45,1.33-2.49,1.33Z"/><path d="m12,20c-.41,0-.75.34-.75.75v1.5c0,.41.34.75.75.75s.75-.34.75-.75v-1.5c0-.41-.34-.75-.75-.75Z"/><path d="m12,4c.41,0,.75-.34.75-.75v-1.5c0-.41-.34-.75-.75-.75s-.75.34-.75.75v1.5c0,.41.34.75.75.75Z"/><path d="m3.25,11.25h-1.5c-.41,0-.75.34-.75.75s.34.75.75.75h1.5c.41,0,.75-.34.75-.75s-.34-.75-.75-.75Z"/><path d="m22.25,11.25h-1.5c-.41,0-.75.34-.75.75s.34.75.75.75h1.5c.41,0,.75-.34.75-.75s-.34-.75-.75-.75Z"/><path d="m5.28,17.66l-1.06,1.06c-.29.29-.29.77,0,1.06.15.15.34.22.53.22s.38-.07.53-.22l1.06-1.06c.29-.29.29-.77,0-1.06-.29-.29-.77-.29-1.06,0Z"/><path d="m18.72,4.22l-1.06,1.06c-.29.29-.29.77,0,1.06.15.15.34.22.53.22s.38-.07.53-.22l1.06-1.06c.29-.29.29-.77,0-1.06-.29-.29-.77-.29-1.06,0Z"/><path d="m5.28,6.34c.15.15.34.22.53.22s.38-.07.53-.22c.29-.29.29-.77,0-1.06l-1.06-1.06c-.29-.29-.77-.29-1.06,0-.29.29-.29.77,0,1.06l1.06,1.06Z"/><path d="m18.72,17.66c-.29-.29-.77-.29-1.06,0-.29.29-.29.77,0,1.06l1.06,1.06c.15.15.34.22.53.22s.38-.07.53-.22c.29-.29.29-.77,0-1.06l-1.06-1.06Z"/></svg>