<svg xmlns="http://www.w3.org/2000/svg" viewBox="0 0 24 24" width="24" height="24"><path d="M9 6A1 1 0 1 0 9 8 1 1 0 1 0 9 6z"/><path d="M15 6A1 1 0 1 0 15 8 1 1 0 1 0 15 6z"/><path d="M12 6A1 1 0 1 0 12 8 1 1 0 1 0 12 6z"/><path d="m17.5,2H6.5c-2.48,0-4.5,2.02-4.5,4.5v11c0,2.48,2.02,4.5,4.5,4.5h11c2.48,0,4.5-2.02,4.5-4.5V6.5c0-2.48-2.02-4.5-4.5-4.5Zm-3.25,11.75h-4.5c-.41,0-.75-.34-.75-.75s.34-.75.75-.75h4.5c.41,0,.75.34.75.75s-.34.75-.75.75Zm4.75-4.75H5v-2.5c0-.83.67-1.5,1.5-1.5h11c.83,0,1.5.67,1.5,1.5v2.5Z"/></svg>