<svg xmlns="http://www.w3.org/2000/svg" viewBox="0 0 24 24" width="24" height="24"><path d="m5.59,15.79c-.38.38-.59.88-.59,1.41v2.79c0,1.1.9,2,2,2h2.79c.53,0,1.04-.21,1.41-.59l8.07-8.07-5.62-5.62L5.59,15.79Z"/><path d="m20.12,5.5c-1.13-1.13-3.11-1.13-4.24,0l-1.16,1.16,5.62,5.62,1.16-1.16c.57-.57.88-1.32.88-2.12s-.31-1.55-.88-2.12l-1.38-1.38Z"/><path d="m7.12,9.96c1.54-1.5,2.88-2.79,2.88-4.46C10,2.12,5.34,1.27,2.63,1.07c-.88-.07-1.63.62-1.63,1.5,0,.79.62,1.43,1.4,1.5,2.51.2,4.6.89,4.6,1.44-.03.43-1.24,1.61-1.97,2.31-2.17,2.11-5.66,5.49-3.64,10.02.38.85,1.45,1.13,2.22.6.58-.4.82-1.16.53-1.8-1.1-2.44.44-4.21,2.98-6.67Z"/></svg>