<svg xmlns="http://www.w3.org/2000/svg" viewBox="0 0 24 24" width="24" height="24"><path d="m19.5,10h-.5v-4.5c0-1.93-1.57-3.5-3.5-3.5h-1.59c-.21-.58-.76-1-1.41-1h-5c-.65,0-1.2.42-1.41,1h-1.59c-1.93,0-3.5,1.57-3.5,3.5v10c0,1.93,1.57,3.5,3.5,3.5h5.5v.5c0,1.93,1.57,3.5,3.5,3.5h6c1.93,0,3.5-1.57,3.5-3.5v-6c0-1.93-1.57-3.5-3.5-3.5Zm-15,6c-.27,0-.5-.23-.5-.5V5.5c0-.27.23-.5.5-.5h1.5v1.25c0,.41.34.75.75.75h6.5c.41,0,.75-.34.75-.75v-1.25h1.5c.27,0,.5.23.5.5v4.5h-2.5c-1.93,0-3.5,1.57-3.5,3.5v2.5h-5.5Z"/></svg>