<svg xmlns="http://www.w3.org/2000/svg" viewBox="0 0 24 24" width="24" height="24"><path d="m19.5,2H4.5C2.02,2,0,4.02,0,6.5v11c0,2.48,2.02,4.5,4.5,4.5h15c2.48,0,4.5-2.02,4.5-4.5V6.5c0-2.48-2.02-4.5-4.5-4.5Zm-.5,6c0,.55-.45,1-1,1h-6c-.55,0-1-.45-1-1s.45-1,1-1h6c.55,0,1,.45,1,1Zm-12-2c1.1,0,2,.9,2,2s-.9,2-2,2-2-.9-2-2,.9-2,2-2Zm12.5,13H4.5c-.83,0-1.5-.67-1.5-1.5v-4.5h2.25v3.25c0,.41.34.75.75.75s.75-.34.75-.75v-3.25h2.5v3.25c0,.41.34.75.75.75s.75-.34.75-.75v-3.25h2.5v3.25c0,.41.34.75.75.75s.75-.34.75-.75v-3.25h2.5v3.25c0,.41.34.75.75.75s.75-.34.75-.75v-3.25h2.25v4.5c0,.83-.67,1.5-1.5,1.5Z"/></svg>