<svg xmlns="http://www.w3.org/2000/svg" viewBox="0 0 24 24" width="24" height="24"><path d="m20.12,6.5c-1.17-1.17-3.07-1.17-4.24,0l-.94.94h0s-.72.72-.72.72l6.12,6.12.72-.72h0s.94-.94.94-.94c.57-.57.88-1.32.88-2.12s-.31-1.56-.88-2.12l-1.88-1.88Z"/><path d="m9.48,9.81c-1.08.29-1.9,1.15-2.14,2.24l-1.71,7.71c-.13.6,0,1.22.32,1.72l5.61-5.61c-.03-.12-.06-.25-.06-.38,0-.83.67-1.5,1.5-1.5s1.5.67,1.5,1.5-.67,1.5-1.5,1.5c-.13,0-.26-.02-.38-.06l-5.61,5.61c.37.24.79.37,1.23.37.16,0,.33-.02.49-.05l7.71-1.71c1.09-.24,1.95-1.06,2.25-2.14l.92-3.36-6.76-6.76-3.36.92Z"/><path d="m6.2,2.97c-.93-1.33-2.63-1.97-5.2-1.97v3c1.43,0,2.43.25,2.74.69.59.85-.33,3.4-1.07,5.44-.82,2.27-1.67,4.62-1.67,6.86s.66,3.91,1.95,4.81l.52-1.47.68-1.99c-.09-.38-.14-.82-.14-1.35,0-1.71.76-3.81,1.49-5.84,1.13-3.12,2.2-6.06.71-8.19Z"/></svg>