<svg xmlns="http://www.w3.org/2000/svg" width="24" height="24" viewBox="0 0 24 24"><path d="M9.06 13.88c-.03-.12-.06-.25-.06-.38 0-.83.67-1.5 1.5-1.5s1.5.67 1.5 1.5-.67 1.5-1.5 1.5c-.13 0-.26-.02-.38-.06l-6.11 6.11c.36.23.79.36 1.22.36.2 0 .4-.03.59-.08l9.48-2.58c1.3-.35 2.21-1.54 2.21-2.89v-3.23l1.03-1.03-.06-.06-5-5-1.06-1.06-1.03 1.03H8.16c-1.35 0-2.54.91-2.89 2.21l-2.58 9.47c-.17.62-.05 1.27.29 1.8l6.1-6.1ZM19.53 10.47l.06.06L21 9.11a3.01 3.01 0 0 0 0-4.24l-1.88-1.88a3.01 3.01 0 0 0-4.24 0l-1.4 1.4 1.06 1.06 5 5Z"/></svg>