<svg xmlns="http://www.w3.org/2000/svg" viewBox="0 0 24 24" width="24" height="24"><path d="m21.4,5.75L13.4,1.54c-.88-.46-1.92-.46-2.79,0L2.6,5.75c-.99.52-1.6,1.54-1.6,2.66v7.19c0,1.12.61,2.14,1.6,2.65l8,4.21c.44.23.92.35,1.4.35s.96-.12,1.4-.35l8-4.21c.99-.52,1.6-1.54,1.6-2.66v-7.19c0-1.12-.61-2.14-1.6-2.65Zm-9.4-1.56l6.28,3.3-2.33,1.23-6.28-3.31,2.33-1.23Zm0,6.61l-6.28-3.31,2.34-1.23,6.28,3.3-2.33,1.23Zm1.5,8.21v-5.61l2.5-1.32v2.16c0,.41.34.75.75.75s.75-.34.75-.75v-2.95l2.5-1.32v5.61l-6.5,3.42Z"/></svg>