<svg xmlns="http://www.w3.org/2000/svg" viewBox="0 0 24 24" width="24" height="24"><path d="m3.88,4.47s.08.03.12.03c0,4.1,3.29,7.43,7.37,7.49,4.02-.06,7.31-3.21,7.6-7.18.01-.19-.08-.37-.24-.47-1.37-.85-2.99-1.34-4.73-1.34H4s-.08.02-.12.03c-.04,0-.08-.03-.12-.03-.69,0-1.25-.56-1.25-1.25,0-.41-.34-.75-.75-.75s-.75.34-.75.75c0,1.52,1.23,2.75,2.75,2.75.04,0,.08-.02.12-.03Zm7.12,2.03c0,.83-.67,1.5-1.5,1.5s-1.5-.67-1.5-1.5.67-1.5,1.5-1.5,1.5.67,1.5,1.5Z"/><path d="m20.19,6.6c-.61,2.34-2.12,4.32-4.14,5.55-.27.17-.33.52-.13.76.42.51.65,1.19.56,1.92-.16,1.27-1.33,2.17-2.61,2.17h-4.42c-.69-1.19-1.97-2-3.45-2h-2.16c-.47,0-.84.43-.74.88.4,1.83,1.9,3.12,1.9,3.12,0,0-1.5,1.29-1.9,3.12-.1.46.27.88.74.88h2.16c1.48,0,2.75-.81,3.45-2h4.24c5.01,0,9.37-4.1,9.32-9.1-.02-2.07-.74-3.97-1.94-5.47-.25-.32-.77-.22-.88.18Z"/></svg>