<svg xmlns="http://www.w3.org/2000/svg" width="24" height="24" viewBox="0 0 24 24"><path d="m20.98 15.83-2.58-1.72a3.16 3.16 0 0 0-4.1.49l-.77.84c-.79-.48-1.91-1.24-2.82-2.15-.9-.9-1.66-2.03-2.14-2.81l.84-.77a3.164 3.164 0 0 0 .49-4.1L8.18 3.03c-.48-.72-1.21-1.2-2.05-1.36-.85-.16-1.7.02-2.41.51l-1.32.91c-.91.63-1.42 1.67-1.37 2.78.11 2.13.83 7.56 5.19 11.93 4.36 4.36 9.79 5.08 11.92 5.19h.17c1.05 0 2.02-.5 2.61-1.37l.92-1.32c.49-.71.67-1.56.51-2.41s-.64-1.58-1.36-2.05ZM19.25 2.13a.75.75 0 0 0-1.25.56v1.32h-2.5c-.83 0-1.5.67-1.5 1.5s.67 1.5 1.5 1.5H18v1.32c0 .65.77.99 1.25.56l3.13-2.82c.33-.3.33-.82 0-1.11l-3.13-2.82Z"/></svg>