<svg xmlns="http://www.w3.org/2000/svg" viewBox="0 0 24 24" width="24" height="24"><path d="m17.9,6c-1.01,0-1.96-.5-2.55-1.33l-.06-.08c-1.57-2.25-4.14-3.58-6.88-3.58C3.77,1,0,4.77,0,9.41v9.09c0,2.48,2.02,4.5,4.5,4.5h15c2.48,0,4.5-2.02,4.5-4.5v-6.4c0-3.37-2.74-6.1-6.1-6.1Zm1.6,14H4.5c-.83,0-1.5-.67-1.5-1.5v-4.5h2.25v3.25c0,.41.34.75.75.75s.75-.34.75-.75v-3.25h2.5v3.25c0,.41.34.75.75.75s.75-.34.75-.75v-3.25h2.5v3.25c0,.41.34.75.75.75s.75-.34.75-.75v-3.25h2.5v3.25c0,.41.34.75.75.75s.75-.34.75-.75v-3.25h2.25v4.5c0,.83-.67,1.5-1.5,1.5Z"/></svg>