<svg xmlns="http://www.w3.org/2000/svg" viewBox="0 0 24 24" width="24" height="24"><path d="m9.43,22.99c.17,0,.33.01.5.01,2.36,0,4.65-.94,6.33-2.62,1.23-1.23,2.06-2.76,2.42-4.44.23-1.08.62-2.17,1.15-3.25.79-1.6,1.17-2.89,1.17-3.94,0-.85-.19-1.65-.52-2.37.17-.3.61-.9,1.45-1.2.62-.22,1.07-.77,1.07-1.44h0c0-1.04-1.03-1.75-2.02-1.41-1.09.37-1.9,1.02-2.48,1.69-.93-.64-2.05-1.02-3.26-1.02-1.05,0-2.34.38-3.93,1.17-1.16.57-2.45.93-3.67,1.25-1.83.48-3.44,1.52-4.66,3.01-2.64,3.23-2.67,7.93-.07,11.19,1.6,2,3.97,3.23,6.51,3.37Z"/></svg>