<svg xmlns="http://www.w3.org/2000/svg" viewBox="0 0 24 24" width="24" height="24"><path d="m11,9.07c-1.05,0-1.93.89-1.93,1.93s.89,1.93,1.93,1.93,1.93-.89,1.93-1.93-.89-1.93-1.93-1.93Z"/><path d="m21,9.72c-.15-4.84-4.35-8.72-9.5-8.72S1,4.33,1,10.5c0,2.64.76,4.78,2.34,6.52.43.47.66,1.03.66,1.57v2.91c0,.83.67,1.5,1.5,1.5h8c.83,0,1.5-.67,1.5-1.5v-.5h2.5c1.38,0,2.5-1.12,2.5-2.5v-2.5h1.5c.49,0,.95-.24,1.23-.64.28-.4.35-.91.18-1.37l-1.92-4.26Zm-6.04,1.28c0,.24-.02.48-.07.71l.41.24c.38.22.51.71.29,1.09l-.52.91c-.22.38-.71.51-1.09.29l-.43-.25c-.36.31-.78.55-1.22.71v.48c0,.44-.36.8-.8.8h-1.05c-.44,0-.8-.36-.8-.8v-.48c-.44-.16-.86-.4-1.22-.71l-.43.25c-.38.22-.87.09-1.09-.29l-.52-.91c-.22-.38-.09-.87.29-1.09l.41-.24c-.05-.24-.07-.48-.07-.71s.02-.48.07-.71l-.41-.24c-.38-.22-.51-.71-.29-1.09l.52-.91c.22-.38.71-.51,1.09-.29l.43.25c.36-.31.78-.55,1.22-.71v-.48c0-.44.36-.8.8-.8h1.05c.44,0,.8.36.8.8v.48c.44.16.86.4,1.22.71l.43-.25c.38-.22.87-.09,1.09.29l.52.91c.22.38.09.87-.29,1.09l-.41.24c.05.24.07.47.07.71Z"/></svg>