<svg xmlns="http://www.w3.org/2000/svg" viewBox="0 0 24 24" width="24" height="24"><path d="m18.05,2.88c-.32-.26-.8-.21-1.05.12-.26.32-.21.8.12,1.05l3.29,2.63c.53.43.84,1.07.84,1.76v10.56c0,.69-.56,1.25-1.25,1.25s-1.25-.56-1.25-1.25v-4c0-1.52-1.23-2.75-2.75-2.75h-1v-6.75c0-1.93-1.57-3.5-3.5-3.5h-7c-1.93,0-3.5,1.57-3.5,3.5v13c0,1.93,1.57,3.5,3.5,3.5h7c1.93,0,3.5-1.57,3.5-3.5v-4.75h1c.69,0,1.25.56,1.25,1.25v3.89c0,1.33.9,2.55,2.2,2.8,1.76.34,3.3-1,3.3-2.7v-10.56c0-1.14-.52-2.22-1.41-2.93l-3.29-2.63Zm-14.05,3.12c0-.55.45-1,1-1h6c.55,0,1,.45,1,1v2c0,.55-.45,1-1,1h-6c-.55,0-1-.45-1-1v-2Z"/></svg>