<svg xmlns="http://www.w3.org/2000/svg" viewBox="0 0 24 24" width="24" height="24"><path d="m14.86,11.35l-4.74-2.71c-.5-.29-1.12.08-1.12.65v5.42c0,.58.62.94,1.12.65l4.74-2.71c.5-.29.5-1.01,0-1.3Z"/><path d="m13.75,1.14c-.92-.15-1.75.56-1.75,1.48,0,.75.56,1.36,1.3,1.48,3.8.62,6.7,3.93,6.7,7.89s-2.91,7.27-6.7,7.89c-.74.12-1.3.73-1.3,1.48,0,.93.84,1.63,1.75,1.48,5.23-.84,9.25-5.39,9.25-10.86S18.99,1.98,13.75,1.14Z"/><path d="m6.82,5.54c.28,0,.57-.08.82-.24.44-.29.92-.54,1.42-.73.77-.31,1.15-1.18.84-1.95-.31-.77-1.18-1.14-1.95-.84-.68.27-1.34.61-1.95,1.01-.69.45-.89,1.38-.43,2.08.29.44.77.68,1.26.68Z"/><path d="m4.19,6.39c-.74-.38-1.64-.08-2.02.66-.33.65-.6,1.34-.79,2.05-.22.8.25,1.62,1.05,1.84.13.04.27.05.4.05.66,0,1.26-.44,1.45-1.1.14-.51.33-1.01.57-1.49.37-.74.08-1.64-.66-2.02Z"/><path d="m4.27,14.05c-.21-.8-1.03-1.28-1.83-1.07-.8.21-1.28,1.03-1.07,1.83.19.71.45,1.4.77,2.06.26.53.79.83,1.34.83.22,0,.45-.05.67-.16.74-.37,1.05-1.27.68-2.01-.24-.48-.43-.98-.56-1.49Z"/><path d="m9,19.41c-.49-.2-.97-.45-1.41-.75-.69-.46-1.62-.27-2.08.42-.46.69-.27,1.62.42,2.08.61.4,1.26.75,1.94,1.02.18.08.38.11.56.11.59,0,1.15-.35,1.39-.94.31-.77-.06-1.64-.83-1.95Z"/></svg>