<svg xmlns="http://www.w3.org/2000/svg" viewBox="0 0 24 24" width="24" height="24"><path d="m22,9.25v-3.75h-3.75c0,2.07,1.68,3.75,3.75,3.75Z"/><path d="m19.5,1H4.5c-1.38,0-2.5,1.12-2.5,2.5v.5h20v-.5c0-1.38-1.12-2.5-2.5-2.5Z"/><path d="m5.75,5.5h-3.75v3.75c2.07,0,3.75-1.68,3.75-3.75Z"/><path d="m16.75,5.5H7.25c0,2.89-2.36,5.25-5.25,5.25v9.75c0,1.38,1.12,2.5,2.5,2.5h2.51c1.16,0,2.17-.8,2.44-1.94l2.55-11.06,2.55,11.06c.26,1.13,1.27,1.94,2.44,1.94h2.51c1.38,0,2.5-1.12,2.5-2.5v-9.75c-2.89,0-5.25-2.36-5.25-5.25Z"/></svg>