<svg xmlns="http://www.w3.org/2000/svg" viewBox="0 0 24 24" width="24" height="24"><path d="m22.19,7.11c-1.32.13-2.44.56-3.37,1.1-.46-.54-.95-1.08-1.45-1.58-.2-.2-.41-.4-.62-.6.11-.34.18-.7.18-1.12,0-2.52-1.7-3.53-3.06-3.82-.44-.09-.85.25-.85.7v.07c0,.34.25.63.59.7.72.16,1.81.67,1.82,2.31C12.21,2.27,8.56.67,6.69,2.55c-.39.39-.63.86-.74,1.37l-1.84,5.67c.1.32.24.67.42,1.04.37.77.87,1.59,1.5,2.44.66.89,1.43,1.78,2.28,2.63.85.85,1.74,1.62,2.63,2.28.85.63,1.67,1.14,2.44,1.5.37.18.72.32,1.04.42l5.96-1.94c.46-.15.82-.39,1.08-.65,1.71-1.71.53-4.91-1.69-7.9.73-.4,1.58-.71,2.56-.8.38-.04.67-.33.67-.71v-.08c0-.43-.38-.75-.81-.71Zm-9.29,3.99c-3.08-3.08-4.07-5.61-4.04-6.39.64-.04,2.35.61,4.56,2.4-.3.08-.6.14-.84.17-.35.04-.61.35-.61.71v.08c0,.42.36.76.78.71.61-.08,1.3-.25,1.94-.55.19.18.37.34.56.53.47.47.88.92,1.26,1.36-.29.33-.54.64-.73.89-.25.35-.14.83.24,1.04l.06.03c.32.18.72.08.93-.21.11-.16.27-.35.44-.55,1.36,1.86,1.86,3.28,1.84,3.83-.82.05-3.31-.96-6.39-4.04Z"/><path d="m7.24,16.76c-.91-.91-1.72-1.85-2.43-2.8-.57-.77-1.03-1.52-1.41-2.24l-1.89,5.81c-.46,1.41-.09,2.94.96,3.99.75.75,1.75,1.15,2.77,1.15.41,0,.82-.06,1.22-.2l5.81-1.89c-.72-.38-1.47-.84-2.24-1.41-.95-.71-1.89-1.52-2.8-2.43Z"/></svg>