<svg xmlns="http://www.w3.org/2000/svg" viewBox="0 0 24 24" width="24" height="24"><path d="m22.78,21.72l-7.44-7.44,2.68-2.68c.98.72,2.36.64,3.25-.25l.59-.59c.97-.97.97-2.56,0-3.54l-5.09-5.09c-.97-.97-2.56-.97-3.54,0l-.59.59c-.88.88-.97,2.27-.25,3.25l-2.68,2.68L2.28,1.22c-.29-.29-.77-.29-1.06,0s-.29.77,0,1.06l6.67,6.67,7.15,7.15,6.67,6.67c.15.15.34.22.53.22s.38-.07.53-.22c.29-.29.29-.77,0-1.06Z"/><path d="m6.13,10.02c-.21-.21-.55-.21-.76,0-.12.12-.22.22-.22.22-.97.97-.97,2.56,0,3.54l1.46,1.46-4.07,4.07c-.56.56-.63,1.48-.1,2.08.58.66,1.58.68,2.19.07l4.1-4.1,1.51,1.51c.49.49,1.13.73,1.77.73s1.28-.24,1.77-.73l.21-.21c.21-.21.21-.55,0-.76l-7.85-7.87Z"/></svg>