<svg xmlns="http://www.w3.org/2000/svg" viewBox="0 0 24 24" width="24" height="24"><path class="b" d="m13.66,7.72L5.59,15.79c-.38.38-.59.88-.59,1.41v2.79c0,1.1.9,2,2,2h2.79c.53,0,1.04-.21,1.41-.59l8.07-8.07-5.62-5.62Z"/><path class="b" d="m21.5,11.12c.57-.57.88-1.32.88-2.12s-.31-1.55-.88-2.12l-1.38-1.38c-1.13-1.13-3.11-1.13-4.24,0l-1.16,1.16,5.62,5.62,1.16-1.16Z"/><path class="b" d="m6.57,9.31l.62-1.4c.15-.33.41-.59.73-.73l1.39-.62c.42-.19.69-.6.69-1.06s-.27-.87-.69-1.06l-1.39-.62c-.33-.15-.59-.41-.73-.73l-.62-1.41c-.18-.41-.59-.68-1.05-.69h0c-.45,0-.86.26-1.05.67h0s-.63,1.37-.63,1.37c-.14.3-.38.55-.68.7l-1.49.72c-.4.19-.66.61-.65,1.06,0,.45.28.86.69,1.04l1.42.63c.33.15.59.41.73.73l.62,1.4c.19.42.6.69,1.06.69s.87-.27,1.06-.69Z"/><path class="b" d="m22.54,19.3l-.93-.41c-.22-.1-.39-.27-.49-.49l-.42-.94c-.12-.28-.4-.46-.7-.46h0c-.3,0-.57.18-.7.45h0s-.42.91-.42.91c-.09.2-.26.37-.46.46l-.99.48c-.27.13-.44.41-.44.71,0,.3.18.57.46.69l.94.42c.22.1.39.27.49.49l.41.93c.12.28.4.46.7.46s.58-.18.7-.46l.41-.93c.1-.22.27-.39.49-.49l.93-.41c.28-.12.46-.4.46-.71s-.18-.58-.46-.71Z"/></svg>