<svg xmlns="http://www.w3.org/2000/svg" viewBox="0 0 24 24" width="24" height="24"><path d="m20.12,6.5c-1.17-1.17-3.07-1.17-4.24,0l-.94.94h0s-.72.72-.72.72l6.12,6.12.72-.72h0s.94-.94.94-.94c.57-.57.88-1.32.88-2.12s-.31-1.56-.88-2.12l-1.88-1.88Z"/><path d="m13,17c-.13,0-.26-.02-.38-.06l-5.61,5.61c.37.24.79.37,1.23.37.16,0,.33-.02.49-.05l7.71-1.71c1.09-.24,1.95-1.06,2.25-2.14l.92-3.36-6.76-6.76-3.36.92c-1.08.29-1.9,1.15-2.14,2.24l-1.71,7.71c-.13.6,0,1.22.32,1.72l5.61-5.61c-.03-.12-.06-.25-.06-.38,0-.83.67-1.5,1.5-1.5s1.5.67,1.5,1.5-.67,1.5-1.5,1.5Z"/><path d="m2.5,7h1.5v1.5c0,.83.67,1.5,1.5,1.5s1.5-.67,1.5-1.5v-1.5h1.5c.83,0,1.5-.67,1.5-1.5s-.67-1.5-1.5-1.5h-1.5v-1.5c0-.83-.67-1.5-1.5-1.5s-1.5.67-1.5,1.5v1.5h-1.5c-.83,0-1.5.67-1.5,1.5s.67,1.5,1.5,1.5Z"/></svg>