<svg xmlns="http://www.w3.org/2000/svg" viewBox="0 0 24 24" width="24" height="24"><path d="m8.87,1.03c-1.13-.07-2.2.69-2.52,1.81l-.14.47c7.78.48,14.02,6.71,14.49,14.49l.47-.14c1.11-.32,1.87-1.38,1.8-2.52-.43-7.61-6.5-13.68-14.11-14.11Z"/><path d="m5.78,4.78L1.31,20.21c-.2.7,0,1.46.51,1.97.38.38.89.59,1.42.59.19,0,.37-.03.56-.08l15.43-4.47c-.27-7.3-6.15-13.17-13.44-13.44Zm1.22,13.72c-.83,0-1.5-.67-1.5-1.5s.67-1.5,1.5-1.5,1.5.67,1.5,1.5-.67,1.5-1.5,1.5Zm2-7c-.83,0-1.5-.67-1.5-1.5s.67-1.5,1.5-1.5,1.5.67,1.5,1.5-.67,1.5-1.5,1.5Zm4,6c-1.38,0-2.5-1.12-2.5-2.5s1.12-2.5,2.5-2.5,2.5,1.12,2.5,2.5-1.12,2.5-2.5,2.5Z"/></svg>