<svg xmlns="http://www.w3.org/2000/svg" width="24" height="24" viewBox="0 0 24 24"><path d="m3.34 19.6-1.59 1.59c-.29.29-.29.77 0 1.06.15.15.34.22.53.22s.38-.07.53-.22l1.59-1.59 1.24 1.24c.88.88 2.03 1.32 3.18 1.32s2.31-.44 3.18-1.32l1.59-1.59c.88-.88.88-2.3 0-3.18l-1.24-1.24 1.59-1.59c.29-.29.29-.77 0-1.06s-.77-.29-1.06 0l-1.59 1.59-2.12-2.12 1.59-1.59c.29-.29.29-.77 0-1.06a.754.754 0 0 0-1.06 0l-1.59 1.59-1.24-1.24c-.88-.88-2.3-.88-3.18 0L2.1 12a4.51 4.51 0 0 0 0 6.36zM20.66 4.4l1.59-1.59c.29-.29.29-.77 0-1.06s-.77-.29-1.06 0L19.6 3.34 18.36 2.1a4.49 4.49 0 0 0-6.36 0l-1.59 1.59c-.88.88-.88 2.3 0 3.18l6.72 6.72c.44.44 1.01.66 1.59.66s1.15-.22 1.59-.66L21.9 12a4.51 4.51 0 0 0 0-6.36z"/></svg>