<svg xmlns="http://www.w3.org/2000/svg" viewBox="0 0 24 24" width="24" height="24"><path d="M22.03 3.06c-.13-.54-.55-.96-1.09-1.09-.22-.06-3.4-.81-7.17-.28l8.53 8.53c.53-3.77-.22-6.94-.28-7.16ZM1.97 20.94c.13.54.55.96 1.09 1.09.17.04 1.96.48 4.42.48.78 0 1.63-.05 2.51-.16L1.66 14c-.47 3.67.26 6.72.31 6.94M5.58 5.58c-2 2-3.05 4.36-3.59 6.63l9.8 9.8c2.27-.54 4.63-1.6 6.62-3.6 1.94-1.94 2.99-4.22 3.54-6.42L12 2.04c-2.2.55-4.48 1.61-6.42 3.55Zm7.67 4.11.72-.72c.29-.29.77-.29 1.06 0s.29.77 0 1.06l-.72.72 1.22 1.22c.29.29.29.77 0 1.06-.15.15-.34.22-.53.22s-.38-.07-.53-.22l-1.22-1.22-1.44 1.44 1.22 1.22c.29.29.29.77 0 1.06-.15.15-.34.22-.53.22s-.38-.07-.53-.22l-1.22-1.22-.72.72c-.15.15-.34.22-.53.22s-.38-.07-.53-.22a.754.754 0 0 1 0-1.06l.72-.72-1.22-1.22c-.29-.29-.29-.77 0-1.06s.77-.29 1.06 0l1.22 1.22 1.44-1.44-1.22-1.22c-.29-.29-.29-.77 0-1.06s.77-.29 1.06 0z"/></svg>