<svg xmlns="http://www.w3.org/2000/svg" viewBox="0 0 24 24" width="24" height="24"><path d="m19.17,1h-5.17c-.28,0-.5.22-.5.5v2c0,.83-.67,1.5-1.5,1.5s-1.5-.67-1.5-1.5V1.5c0-.28-.22-.5-.5-.5h-5.17c-1.03,0-1.9.79-1.99,1.82l-1.64,18c-.11,1.17.82,2.18,1.99,2.18h6.81c.28,0,.5-.22.5-.5v-2c0-.83.67-1.5,1.5-1.5s1.5.67,1.5,1.5v2c0,.28.22.5.5.5h6.81c1.18,0,2.1-1.01,1.99-2.18l-1.64-18c-.09-1.03-.96-1.82-1.99-1.82Zm-5.67,14.5c0,.83-.67,1.5-1.5,1.5s-1.5-.67-1.5-1.5v-1c0-.83.67-1.5,1.5-1.5s1.5.67,1.5,1.5v1Zm0-6c0,.83-.67,1.5-1.5,1.5s-1.5-.67-1.5-1.5v-1c0-.83.67-1.5,1.5-1.5s1.5.67,1.5,1.5v1Z"/></svg>