<svg xmlns="http://www.w3.org/2000/svg" viewBox="0 0 24 24" width="24" height="24"><path d="m12,10c-3.57,0-6.53,2.69-6.95,6.15-.05.45.29.85.75.85.37,0,.69-.27.74-.64.32-2.73,2.65-4.86,5.46-4.86s5.15,2.13,5.46,4.86c.04.37.37.64.74.64.45,0,.8-.4.75-.85-.42-3.46-3.38-6.15-6.95-6.15Z"/><path d="m12,12.5c-2.18,0-4,1.56-4.41,3.62-.09.46.28.88.74.88h0c.36,0,.66-.25.73-.6.28-1.37,1.49-2.4,2.94-2.4s2.66,1.03,2.94,2.4c.07.35.37.6.73.6h0c.47,0,.83-.42.74-.88-.41-2.06-2.23-3.62-4.41-3.62Z"/><path d="m22.86,15.25c-.84-5.23-5.39-9.25-10.86-9.25S1.98,10.01,1.14,15.25c-.15.92.56,1.75,1.48,1.75.75,0,1.36-.56,1.48-1.3.62-3.8,3.93-6.7,7.89-6.7s7.27,2.91,7.89,6.7c.12.74.73,1.3,1.48,1.3.93,0,1.63-.84,1.48-1.75Z"/></svg>