<svg xmlns="http://www.w3.org/2000/svg" viewBox="0 0 24 24" width="24" height="24"><path d="m19.74,4.2L14.05.94c-.72-.41-1.64-.16-2.05.56-.41.72-.16,1.64.56,2.05l.79.45h-7.85c-2.48,0-4.5,2.02-4.5,4.5v9c0,2.48,2.02,4.5,4.5,4.5h13c2.48,0,4.5-2.02,4.5-4.5v-9c0-2.05-1.38-3.76-3.26-4.3Zm-15.74,4.3c0-.83.67-1.5,1.5-1.5h13c.83,0,1.5.67,1.5,1.5v2.75H4v-2.75Zm1,8c0-.83.67-1.5,1.5-1.5h4c.83,0,1.5.67,1.5,1.5s-.67,1.5-1.5,1.5h-4c-.83,0-1.5-.67-1.5-1.5Zm9,0c0-1.38,1.12-2.5,2.5-2.5s2.5,1.12,2.5,2.5-1.12,2.5-2.5,2.5-2.5-1.12-2.5-2.5Z"/></svg>