<svg xmlns="http://www.w3.org/2000/svg" viewBox="0 0 24 24" width="24" height="24"><path d="M12 1A3 3 0 1 0 12 7 3 3 0 1 0 12 1z"/><path d="m1.71,7.64c-.45.42-.71,1.02-.71,1.64v9.19c0,1.21.94,2.19,2.15,2.25,1.24.06,4.53.38,8.2,2.14.05.02.1.04.15.05v-14c-3.27-1.42-6.69-1.78-8.12-1.87-.6-.04-1.22.18-1.67.6Z"/><path d="m20.62,7.03c-1.43.09-4.86.45-8.12,1.87v14c.05-.02.1-.03.15-.05,3.67-1.76,6.96-2.08,8.2-2.14,1.2-.05,2.15-1.04,2.15-2.25v-9.19c0-.62-.26-1.22-.71-1.64-.45-.42-1.05-.64-1.67-.6Z"/></svg>