<svg xmlns="http://www.w3.org/2000/svg" viewBox="0 0 24 24" width="24" height="24"><path d="m18.5,1H5.5C3.02,1,1,3.02,1,5.5v1.83c0,1.09.39,2.09,1.03,2.89-.02.09-.03.18-.03.28v8c0,2.48,2.02,4.5,4.5,4.5h11c2.48,0,4.5-2.02,4.5-4.5v-8c0-.1-.01-.19-.03-.28.63-.8,1.03-1.79,1.03-2.89v-1.83c0-2.48-2.02-4.5-4.5-4.5ZM7.33,7.33c0,.92-.75,1.67-1.67,1.67s-1.67-.75-1.67-1.67v-1.83c0-.83.67-1.5,1.5-1.5h1.83v3.33Zm3-3.33h3.33v3.33c0,.92-.75,1.67-1.67,1.67s-1.67-.75-1.67-1.67v-3.33Zm4.67,17h-6v-3c0-1.66,1.34-3,3-3s3,1.34,3,3v3Zm5-13.67c0,.92-.75,1.67-1.67,1.67s-1.67-.75-1.67-1.67v-3.33h1.83c.83,0,1.5.67,1.5,1.5v1.83Z"/></svg>