<svg xmlns="http://www.w3.org/2000/svg" viewBox="0 0 24 24" width="24" height="24"><path d="m7.75,8.75h8.5c.41,0,.75-.34.75-.75s-.34-.75-.75-.75H7.75c-.41,0-.75.34-.75.75s.34.75.75.75Z"/><path d="m7.75,12.75h8.5c.41,0,.75-.34.75-.75s-.34-.75-.75-.75H7.75c-.41,0-.75.34-.75.75s.34.75.75.75Z"/><path d="m7.75,16.75h4.25c.41,0,.75-.34.75-.75s-.34-.75-.75-.75h-4.25c-.41,0-.75.34-.75.75s.34.75.75.75Z"/><path d="m3.5,9c.83,0,1.5-.67,1.5-1.5v-1c0-.83.67-1.5,1.5-1.5h1c.83,0,1.5-.67,1.5-1.5s-.67-1.5-1.5-1.5h-1c-2.48,0-4.5,2.02-4.5,4.5v1c0,.83.67,1.5,1.5,1.5Z"/><path d="m22,6.5c0-2.48-2.02-4.5-4.5-4.5h-1c-.83,0-1.5.67-1.5,1.5s.67,1.5,1.5,1.5h1c.83,0,1.5.67,1.5,1.5v1c0,.83.67,1.5,1.5,1.5s1.5-.67,1.5-1.5v-1Z"/><path d="m22,16.5c0-.83-.67-1.5-1.5-1.5s-1.5.67-1.5,1.5v1c0,.83-.67,1.5-1.5,1.5h-1c-.83,0-1.5.67-1.5,1.5s.67,1.5,1.5,1.5h1c2.48,0,4.5-2.02,4.5-4.5v-1Z"/><path d="m6.5,22h1c.83,0,1.5-.67,1.5-1.5s-.67-1.5-1.5-1.5h-1c-.83,0-1.5-.67-1.5-1.5v-1c0-.83-.67-1.5-1.5-1.5s-1.5.67-1.5,1.5v1c0,2.48,2.02,4.5,4.5,4.5Z"/></svg>