<svg xmlns="http://www.w3.org/2000/svg" viewBox="0 0 24 24" width="24" height="24"><path d="m20.76,14.6s-.09-.05-.14-.07c-.22-.12-.45-.21-.68-.29l-1.02-6.24h.08c1.1,0,2-.9,2-2s-.9-2-2-2h-.74v-.06c-.29-1.69-1.75-2.94-3.47-2.94h-1.3c-.83,0-1.5.67-1.5,1.5s.67,1.5,1.5,1.5h1.3c.24,0,.45.18.49.42l1.61,9.87c-.78.3-1.48.81-2,1.5-.28.36-.49.77-.64,1.2h-.26v-6.5c0-1.38-1.12-2.5-2.5-2.5h-5c-3.03,0-5.5,2.47-5.5,5.5v3.94c0,1.29.99,2.35,2.25,2.47.6,1.79,2.27,3.08,4.25,3.08s3.6-1.26,4.22-3h2.55c.62,1.74,2.27,3,4.22,3,2.48,0,4.5-2.02,4.5-4.5,0-1.59-.86-3.09-2.24-3.9Zm-13.26,5.4c-.83,0-1.5-.67-1.5-1.54,0-.3.11-.61.3-.86.33-.44.92-.63,1.42-.58.02,0,.04,0,.05,0,.16.02.31.07.44.15.03.02.07.04.1.06.42.27.68.73.68,1.23,0,.01,0,.02,0,.03h0c0,.83-.67,1.5-1.5,1.5Zm11,0c-.83,0-1.5-.67-1.5-1.5,0-.32.11-.65.3-.9.29-.38.73-.6,1.2-.6.26,0,.52.07.73.19.03.02.05.03.08.04.43.29.68.75.68,1.26,0,.83-.67,1.5-1.5,1.5Z"/></svg>