<svg xmlns="http://www.w3.org/2000/svg" width="24" height="24" viewBox="0 0 24 24"><path d="M18.86 16.92c-.41.66-.86 1.58-.86 2.42 0 .92.67 1.67 1.5 1.67s1.5-.75 1.5-1.67c0-.83-.45-1.75-.86-2.41a.75.75 0 0 0-1.28 0ZM8.86 18.92c-.41.66-.86 1.58-.86 2.42 0 .92.67 1.67 1.5 1.67s1.5-.75 1.5-1.67c0-.83-.45-1.75-.86-2.41a.75.75 0 0 0-1.28 0ZM13.86 18.92c-.41.66-.86 1.58-.86 2.42 0 .92.67 1.67 1.5 1.67s1.5-.75 1.5-1.67c0-.83-.45-1.75-.86-2.41a.75.75 0 0 0-1.28 0ZM3.86 16.92c-.41.66-.86 1.58-.86 2.42 0 .92.67 1.67 1.5 1.67S6 20.26 6 19.34c0-.83-.45-1.75-.86-2.41a.75.75 0 0 0-1.28 0ZM2.5 15h19c.83 0 1.5-.67 1.5-1.5s-.67-1.5-1.5-1.5H21c0-4.45-3.25-8.15-7.5-8.86V2.5c0-.83-.67-1.5-1.5-1.5s-1.5.67-1.5 1.5v.64C6.25 3.86 3 7.55 3 12h-.5c-.83 0-1.5.67-1.5 1.5S1.67 15 2.5 15"/></svg>