<svg xmlns="http://www.w3.org/2000/svg" viewBox="0 0 24 24" width="24" height="24"><path d="m19.5,19H4.5c-.41,0-.79.17-1.06.44s-.44.65-.44,1.06.17.79.44,1.06.65.44,1.06.44h15c.41,0,.79-.17,1.06-.44s.44-.65.44-1.06-.17-.79-.44-1.06-.65-.44-1.06-.44Z"/><path d="m12.53,4.78c.14-.14.22-.32.22-.53v-1.5c0-.21-.08-.39-.22-.53s-.32-.22-.53-.22-.39.08-.53.22-.22.32-.22.53v1.5c0,.21.08.39.22.53s.32.22.53.22.39-.08.53-.22Z"/><path d="m22.25,11.5h-1.5c-.21,0-.39.08-.53.22s-.22.32-.22.53.08.39.22.53.32.22.53.22h1.5c.21,0,.39-.08.53-.22s.22-.32.22-.53-.08-.39-.22-.53-.32-.22-.53-.22Z"/><path d="m3.78,12.78c.14-.14.22-.32.22-.53s-.08-.39-.22-.53-.32-.22-.53-.22h-1.5c-.21,0-.39.08-.53.22s-.22.32-.22.53.08.39.22.53.32.22.53.22h1.5c.21,0,.39-.08.53-.22Z"/><path d="m19.25,6.06l.56-.56c.15-.15.22-.34.22-.53s-.07-.38-.22-.53-.34-.22-.53-.22-.38.07-.53.22l-.56.56-.56.56c-.15.15-.22.34-.22.53s.07.38.22.53c.07.07.16.13.25.16s.19.05.28.05.19-.02.28-.05.17-.09.25-.16l.56-.56Z"/><path d="m6.13,6.79c.09-.04.17-.09.25-.16.15-.15.22-.34.22-.53s-.07-.38-.22-.53l-.56-.56-.56-.56c-.15-.15-.34-.22-.53-.22s-.38.07-.53.22-.22.34-.22.53.07.38.22.53l.56.56.56.56c.07.07.16.13.25.16s.19.05.28.05.19-.02.28-.05Z"/><path d="m18.6,18l-.67-4.04-.67-4.04c-.14-.85-.57-1.58-1.19-2.1s-1.41-.83-2.27-.83h-3.61c-.86,0-1.65.31-2.27.83s-1.05,1.25-1.19,2.1l-.67,4.04-.67,4.04h13.21Z"/></svg>