<svg xmlns="http://www.w3.org/2000/svg" viewBox="0 0 24 24" width="24" height="24"><path d="m21.5,11h-2.58c-.49-3.39-3.4-6-6.92-6s-6.43,2.61-6.92,6h-2.58c-.83,0-1.5.67-1.5,1.5s.67,1.5,1.5,1.5h19c.83,0,1.5-.67,1.5-1.5s-.67-1.5-1.5-1.5Z"/><rect x="11.25" y="1" width="1.5" height="3" rx=".75" ry=".75"/><path d="m19.06,6l.94-.94c.29-.29.29-.77,0-1.06-.29-.29-.77-.29-1.06,0l-.94.94c-.29.29-.29.77,0,1.06.29.29.77.29,1.06,0Z"/><path d="m4.94,6c.29.29.77.29,1.06,0,.29-.29.29-.77,0-1.06l-.94-.94c-.29-.29-.77-.29-1.06,0-.29.29-.29.77,0,1.06l.94.94Z"/><path d="m13.5,21.5v-1.5h1.69c.67,0,1-.81.53-1.28l-3.19-3.19c-.29-.29-.77-.29-1.06,0l-3.19,3.19c-.47.47-.14,1.28.53,1.28h1.69v1.5c0,.83.67,1.5,1.5,1.5s1.5-.67,1.5-1.5Z"/></svg>