<svg xmlns="http://www.w3.org/2000/svg" viewBox="0 0 24 24" width="24" height="24"><path class="b" d="m15.06,11.06l.66.66c.47.47,1.28.14,1.28-.53v-3.44c0-.41-.34-.75-.75-.75h-3.44c-.67,0-1,.81-.53,1.28l.66.66-2.17,2.17c-.25-.07-.5-.11-.77-.11h-5c-1.65,0-3,1.35-3,3v5c0,1.65,1.35,3,3,3h5c1.65,0,3-1.35,3-3v-5c0-.27-.05-.52-.11-.77l2.17-2.17Z"/><path class="b" d="m17.5,2H6.5c-2.48,0-4.5,2.02-4.5,4.5v1c0,.83.67,1.5,1.5,1.5s1.5-.67,1.5-1.5v-1c0-.83.67-1.5,1.5-1.5h11c.83,0,1.5.67,1.5,1.5v11c0,.83-.67,1.5-1.5,1.5h-1c-.83,0-1.5.67-1.5,1.5s.67,1.5,1.5,1.5h1c2.48,0,4.5-2.02,4.5-4.5V6.5c0-2.48-2.02-4.5-4.5-4.5Z"/></svg>