<svg xmlns="http://www.w3.org/2000/svg" width="24" height="24" viewBox="0 0 24 24"><path d="M19.5 15.3V15c0-2.48-2.02-4.5-4.5-4.5h-1.5V8.7C14.96 8.11 16 6.67 16 5c0-2.21-1.79-4-4-4S8 2.79 8 5c0 1.67 1.04 3.11 2.5 3.7v1.8H9c-2.48 0-4.5 2.02-4.5 4.5v.3C3.04 15.89 2 17.33 2 19c0 2.21 1.79 4 4 4s4-1.79 4-4c0-1.67-1.04-3.11-2.5-3.7V15c0-.83.67-1.5 1.5-1.5h6c.83 0 1.5.67 1.5 1.5v.3c-1.46.59-2.5 2.03-2.5 3.7 0 2.21 1.79 4 4 4s4-1.79 4-4c0-1.67-1.04-3.11-2.5-3.7M12 4c.55 0 1 .45 1 1s-.45 1-1 1-1-.45-1-1 .45-1 1-1"/></svg>