<svg xmlns="http://www.w3.org/2000/svg" width="24" height="24" viewBox="0 0 24 24"><path d="M12 1C9.24 1 6.72 2.03 4.79 3.71c-.18.16-.22.43-.1.63l3.12 5.41c.19.33.67.33.87 0l4.97-8.61C13.11 1.06 12.56 1 12 1M1.71 14.5h6.25c.38 0 .63-.42.43-.75L3.8 5.79a.506.506 0 0 0-.84-.05A10.9 10.9 0 0 0 1 11.99c0 .72.08 1.42.21 2.1.05.23.26.4.5.4ZM21.93 7.3a11.08 11.08 0 0 0-6.35-5.7.5.5 0 0 0-.6.23l-3.13 5.42c-.19.33.05.75.43.75h9.18c.36 0 .61-.38.46-.7ZM22.29 9.5h-6.25c-.38 0-.63.42-.43.75l4.59 7.96c.18.31.63.34.84.05 1.24-1.78 1.96-3.93 1.96-6.25 0-.72-.08-1.42-.21-2.1a.514.514 0 0 0-.5-.4ZM2.07 16.7c1.26 2.65 3.55 4.73 6.35 5.7.23.08.48-.02.6-.23l3.13-5.42a.502.502 0 0 0-.43-.75H2.53c-.36 0-.61.38-.46.7M19.21 20.29c.18-.16.22-.43.1-.63l-3.12-5.41a.506.506 0 0 0-.87 0l-4.97 8.61c.54.08 1.09.14 1.65.14 2.76 0 5.28-1.03 7.21-2.71"/></svg>