<svg xmlns="http://www.w3.org/2000/svg" viewBox="0 0 24 24" width="24" height="24"><path d="m21.5,3h-10.85c-.56-1.18-1.76-2-3.15-2s-2.58.82-3.15,2h-1.85c-.83,0-1.5.67-1.5,1.5s.67,1.5,1.5,1.5h1.85c.56,1.18,1.76,2,3.15,2s2.58-.82,3.15-2h10.85c.83,0,1.5-.67,1.5-1.5s-.67-1.5-1.5-1.5Z"/><path d="m21.5,10.5h-1.85c-.56-1.18-1.76-2-3.15-2s-2.58.82-3.15,2H2.5c-.83,0-1.5.67-1.5,1.5s.67,1.5,1.5,1.5h10.85c.56,1.18,1.76,2,3.15,2s2.58-.82,3.15-2h1.85c.83,0,1.5-.67,1.5-1.5s-.67-1.5-1.5-1.5Z"/><path d="m21.5,18h-10.85c-.56-1.18-1.76-2-3.15-2s-2.58.82-3.15,2h-1.85c-.83,0-1.5.67-1.5,1.5s.67,1.5,1.5,1.5h1.85c.56,1.18,1.76,2,3.15,2s2.58-.82,3.15-2h10.85c.83,0,1.5-.67,1.5-1.5s-.67-1.5-1.5-1.5Z"/></svg>