<svg xmlns="http://www.w3.org/2000/svg" viewBox="0 0 24 24" width="24" height="24"><path d="M12 6A6 6 0 1 0 12 18 6 6 0 1 0 12 6z"/><path d="m12,19c-.41,0-.75.34-.75.75v2.5c0,.41.34.75.75.75s.75-.34.75-.75v-2.5c0-.41-.34-.75-.75-.75Z"/><path d="m12,1c-.41,0-.75.34-.75.75v2.5c0,.41.34.75.75.75s.75-.34.75-.75V1.75c0-.41-.34-.75-.75-.75Z"/><path d="m5,12c0-.41-.34-.75-.75-.75H1.75c-.41,0-.75.34-.75.75s.34.75.75.75h2.5c.41,0,.75-.34.75-.75Z"/><path d="m22.25,11.25h-2.5c-.41,0-.75.34-.75.75s.34.75.75.75h2.5c.41,0,.75-.34.75-.75s-.34-.75-.75-.75Z"/><path d="m5.99,16.95l-1.77,1.77c-.29.29-.29.77,0,1.06.15.15.34.22.53.22s.38-.07.53-.22l1.77-1.77c.29-.29.29-.77,0-1.06s-.77-.29-1.06,0Z"/><path d="m17.48,7.27c.19,0,.38-.07.53-.22l1.77-1.77c.29-.29.29-.77,0-1.06s-.77-.29-1.06,0l-1.77,1.77c-.29.29-.29.77,0,1.06.15.15.34.22.53.22Z"/><path d="m5.99,7.05c.15.15.34.22.53.22s.38-.07.53-.22c.29-.29.29-.77,0-1.06l-1.77-1.77c-.29-.29-.77-.29-1.06,0s-.29.77,0,1.06l1.77,1.77Z"/><path d="m18.01,16.95c-.29-.29-.77-.29-1.06,0s-.29.77,0,1.06l1.77,1.77c.15.15.34.22.53.22s.38-.07.53-.22c.29-.29.29-.77,0-1.06l-1.77-1.77Z"/></svg>