<svg xmlns="http://www.w3.org/2000/svg" viewBox="0 0 24 24" width="24" height="24"><path d="m3.5,9c.83,0,1.5-.67,1.5-1.5v-1c0-.83.67-1.5,1.5-1.5h1c.83,0,1.5-.67,1.5-1.5s-.67-1.5-1.5-1.5h-1c-2.48,0-4.5,2.02-4.5,4.5v1c0,.83.67,1.5,1.5,1.5Z"/><path d="m16.5,5h1c.83,0,1.5.67,1.5,1.5v1c0,.83.67,1.5,1.5,1.5s1.5-.67,1.5-1.5v-1c0-2.48-2.02-4.5-4.5-4.5h-1c-.83,0-1.5.67-1.5,1.5s.67,1.5,1.5,1.5Z"/><path d="m20.5,15c-.83,0-1.5.67-1.5,1.5v1c0,.83-.67,1.5-1.5,1.5h-1c-.83,0-1.5.67-1.5,1.5s.67,1.5,1.5,1.5h1c2.48,0,4.5-2.02,4.5-4.5v-1c0-.83-.67-1.5-1.5-1.5Z"/><path d="m7.5,19h-1c-.83,0-1.5-.67-1.5-1.5v-1c0-.83-.67-1.5-1.5-1.5s-1.5.67-1.5,1.5v1c0,2.48,2.02,4.5,4.5,4.5h1c.83,0,1.5-.67,1.5-1.5s-.67-1.5-1.5-1.5Z"/><path d="m22.25,11.25h-5.25v-2.75c0-.83-.67-1.5-1.5-1.5h-7c-.83,0-1.5.67-1.5,1.5v2.75H1.75c-.41,0-.75.34-.75.75s.34.75.75.75h20.5c.41,0,.75-.34.75-.75s-.34-.75-.75-.75Z"/><path d="m15.5,17c.83,0,1.5-.67,1.5-1.5,0-.28-.22-.5-.5-.5H7.5c-.28,0-.5.22-.5.5,0,.83.67,1.5,1.5,1.5h7Z"/></svg>