<svg xmlns="http://www.w3.org/2000/svg" viewBox="0 0 24 24" width="24" height="24"><path d="m19.44,8H4.56l-3.1,7.07c-.44.97-.32,2.13.31,3,1.07,1.49,2.52,2.68,4.2,3.52.3.15.65-.04.71-.37l1.71-9.6c.07-.41.46-.67.87-.61.41.07.68.46.61.87l-1.8,10.06c-.05.25.11.51.36.58,1.13.31,2.33.48,3.56.48s2.42-.17,3.56-.48c.25-.07.4-.32.36-.58l-1.8-10.06c-.07-.41.2-.8.61-.87.41-.07.8.2.87.61l1.71,9.6c.06.33.42.52.71.37,1.68-.84,3.13-2.03,4.2-3.52.63-.88.75-2.03.31-3l-3.1-7.07Z"/><path d="m17.5,1H6.5c-.83,0-1.5.67-1.5,1.5v2.5h14v-2.5c0-.83-.67-1.5-1.5-1.5Z"/></svg>