<svg xmlns="http://www.w3.org/2000/svg" viewBox="0 0 24 24" width="24" height="24"><path d="m17.33,15.21c1.05-1.47,1.67-3.27,1.67-5.21,0-4.96-4.04-9-9-9S1,5.04,1,10s4.04,9,9,9c1.94,0,3.74-.62,5.21-1.67l4.23,4.23c.29.29.68.44,1.06.44s.77-.15,1.06-.44c.59-.59.59-1.54,0-2.12l-4.23-4.23Zm-3.27-3.27c.59.59.59,1.54,0,2.12-.29.29-.68.44-1.06.44s-.77-.15-1.06-.44l-1.94-1.94-1.94,1.94c-.29.29-.68.44-1.06.44s-.77-.15-1.06-.44c-.59-.59-.59-1.54,0-2.12l1.94-1.94-1.94-1.94c-.59-.59-.59-1.54,0-2.12s1.54-.59,2.12,0l1.94,1.94,1.94-1.94c.59-.59,1.54-.59,2.12,0s.59,1.54,0,2.12l-1.94,1.94,1.94,1.94Z"/></svg>