<svg xmlns="http://www.w3.org/2000/svg" viewBox="0 0 24 24" width="24" height="24"><path d="m22.32,19.82c-.15-.1-.3-.23-.51-.43-.61-.55-1.53-1.39-3.21-1.39s-2.6.84-3.21,1.39c-.51.46-.7.61-1.19.61s-.68-.15-1.19-.61c-.61-.55-1.53-1.39-3.21-1.39s-2.6.84-3.21,1.39c-.51.46-.69.61-1.19.61s-.68-.15-1.19-.61c-.25-.23-.55-.5-.94-.75-.98-.62-2.27.13-2.27,1.29h0c0,.51.26.97.68,1.25.14.1.3.23.51.42.61.55,1.53,1.39,3.21,1.39s2.6-.84,3.21-1.39c.51-.46.69-.61,1.19-.61s.68.15,1.19.61c.61.55,1.53,1.39,3.21,1.39s2.6-.84,3.21-1.39c.51-.46.7-.61,1.19-.61s.68.15,1.19.61c.25.23.56.5.94.75.98.62,2.27-.13,2.27-1.29,0-.51-.26-.97-.68-1.25Z"/><path d="m21.5,9h-.5v-4c0-2.21-1.79-4-4-4s-4,1.79-4,4v.5c0,.83.67,1.5,1.5,1.5s1.5-.67,1.5-1.5v-.5c0-.55.45-1,1-1s1,.45,1,1v4h-7v-4c0-2.21-1.79-4-4-4S3,2.79,3,5v.5c0,.83.67,1.5,1.5,1.5s1.5-.67,1.5-1.5v-.5c0-.55.45-1,1-1s1,.45,1,1v4H2.5c-.83,0-1.5.67-1.5,1.5s.67,1.5,1.5,1.5h5.5v2.5c0,.83.67,1.5,1.5,1.5s1.5-.67,1.5-1.5v-2.5h7v2.5c0,.83.67,1.5,1.5,1.5s1.5-.67,1.5-1.5v-2.5h.5c.83,0,1.5-.67,1.5-1.5s-.67-1.5-1.5-1.5Z"/></svg>