<svg xmlns="http://www.w3.org/2000/svg" viewBox="0 0 24 24" width="24" height="24"><path d="m17.46,6.54c-1.22-3.3-4.38-5.54-7.96-5.54C4.81,1,1,4.81,1,9.5c0,3.58,2.24,6.74,5.54,7.96,1.22,3.3,4.38,5.54,7.96,5.54,4.69,0,8.5-3.81,8.5-8.5,0-3.58-2.24-6.74-5.54-7.96Zm-13.46,2.96c0-3.03,2.47-5.5,5.5-5.5,1.7,0,3.25.78,4.27,2.03-.02,0-.05,0-.07,0-.11,0-.21.03-.31.04-.17.02-.33.04-.49.08-.11.02-.22.05-.33.07-.15.04-.3.07-.45.12-.11.03-.22.07-.32.1-.15.05-.29.1-.43.16-.1.04-.21.08-.31.13-.14.06-.28.13-.42.2-.1.05-.19.1-.29.15-.14.08-.27.16-.41.25-.09.05-.17.11-.25.16-.14.1-.28.21-.42.32-.07.05-.13.1-.2.15-.4.33-.77.7-1.1,1.1-.05.06-.1.13-.15.19-.11.14-.22.28-.32.43-.06.08-.11.17-.16.25-.09.14-.17.27-.25.41-.05.09-.1.19-.15.28-.07.14-.14.28-.2.42-.04.1-.09.2-.13.3-.06.14-.11.29-.16.44-.04.1-.07.21-.1.32-.04.15-.08.31-.12.46-.02.11-.05.21-.07.32-.03.16-.05.33-.08.5-.01.1-.03.2-.04.31,0,.02,0,.05,0,.07-1.25-1.02-2.03-2.57-2.03-4.27Zm10.5,10.5c-1.7,0-3.25-.78-4.27-2.03.02,0,.05,0,.07,0,.1,0,.2-.03.31-.04.17-.02.34-.04.5-.08.11-.02.21-.05.32-.07.16-.04.31-.07.46-.12.11-.03.21-.07.31-.1.15-.05.3-.1.44-.16.1-.04.2-.08.3-.13.14-.06.29-.13.43-.21.09-.05.19-.09.28-.15.14-.08.28-.17.42-.26.08-.05.16-.1.24-.16.15-.1.29-.21.44-.33.06-.05.12-.09.18-.14.4-.33.77-.7,1.1-1.1.05-.06.09-.12.14-.18.11-.14.22-.29.33-.44.06-.08.11-.16.16-.25.09-.14.17-.27.25-.42.05-.09.1-.19.15-.28.07-.14.14-.28.2-.42.04-.1.09-.2.13-.3.06-.14.11-.29.16-.44.04-.1.07-.21.1-.32.04-.15.08-.31.12-.46.02-.11.05-.21.07-.32.03-.16.05-.33.08-.5.01-.1.03-.21.04-.31,0-.02,0-.05,0-.07,1.25,1.02,2.03,2.57,2.03,4.27,0,3.03-2.47,5.5-5.5,5.5Z"/></svg>