<svg xmlns="http://www.w3.org/2000/svg" width="24" height="24" viewBox="0 0 24 24"><path d="M21 12c0-.83-.67-1.5-1.5-1.5h-8.6c-.42 0-.81-.04-1.14-.11q-.42-.09-.72-.24a1.7 1.7 0 0 1-.43-.3 1.697 1.697 0 0 1-.45-.75c-.05-.16-.08-.32-.11-.46-.03-.17-.04-.33-.05-.47v-.42s0-.04.01-.09c.02-.07.04-.14.08-.21.04-.09.1-.18.17-.27.08-.11.18-.21.29-.3.14-.11.3-.22.47-.31.21-.11.44-.2.7-.28.3-.09.63-.16.98-.21.75-.1 1.72-.13 2.41.03.27.06.51.15.72.26.17.09.32.2.45.32.11.1.21.22.29.36.07.12.13.24.18.37.29.78 1.16 1.17 1.93.88.78-.29 1.17-1.16.88-1.93-.12-.32-.27-.63-.45-.91-.21-.34-.47-.66-.76-.93-.33-.31-.7-.58-1.12-.8-.44-.23-.93-.41-1.46-.53-1.06-.24-2.38-.23-3.49-.08-.51.07-1 .17-1.46.31-.44.13-.84.3-1.21.5-.35.19-.68.4-.98.65-.28.23-.53.48-.75.76-.2.25-.37.53-.51.82-.13.27-.23.54-.29.82-.06.27-.1.54-.1.79 0 .15 0 .34.01.56.01.24.03.5.08.78.05.32.12.64.22.94.05.17.14.31.21.47H4.48c-.83 0-1.5.67-1.5 1.5s.67 1.5 1.5 1.5h15c.83 0 1.5-.67 1.5-1.5ZM15.9 20.11c.48-.26.93-.59 1.31-.97.34-.33.63-.71.88-1.11.21-.34.38-.71.53-1.09.29-.78-.11-1.64-.89-1.92-.78-.29-1.64.11-1.92.89-.07.2-.16.39-.27.56-.12.2-.26.38-.43.54-.19.18-.4.34-.65.47-.29.16-.62.28-.99.37-.91.21-2.15.19-3.06.03-.4-.07-.75-.17-1.06-.3-.25-.1-.47-.23-.65-.37a1.85 1.85 0 0 1-.57-.71 1.506 1.506 0 0 0-1.98-.76c-.76.34-1.09 1.23-.76 1.98.15.33.34.65.56.94.26.34.57.65.92.92.39.3.83.55 1.31.75.51.21 1.08.38 1.7.49.64.12 1.36.17 2.11.17s1.5-.08 2.16-.23c.63-.15 1.22-.37 1.74-.65Z"/></svg>