<svg xmlns="http://www.w3.org/2000/svg" viewBox="0 0 24 24" width="24" height="24"><path d="m22.94,2.6c-.22-.8-1.04-1.26-1.85-1.04-.03,0-3.47.95-9.1.95S2.94,1.56,2.9,1.55c-.79-.22-1.62.24-1.85,1.04s.24,1.63,1.04,1.85c.02,0,.12.03.28.07-.23.26-.38.61-.38.98,0,.83.67,1.5,1.5,1.5h.39l-.11,2h-.28c-.83,0-1.5.67-1.5,1.5s.67,1.5,1.5,1.5h.11l-.52,9.42c-.05.83.59,1.54,1.42,1.58.03,0,.06,0,.08,0,.79,0,1.45-.62,1.5-1.42l.53-9.58h10.78l.56,9.59c.05.8.71,1.41,1.5,1.41.03,0,.06,0,.09,0,.83-.05,1.46-.76,1.41-1.58l-.55-9.41h.1c.83,0,1.5-.67,1.5-1.5s-.67-1.5-1.5-1.5h-.28l-.12-2h.39c.83,0,1.5-.67,1.5-1.5,0-.38-.14-.72-.38-.98.16-.04.26-.07.28-.07.8-.22,1.26-1.05,1.04-1.85ZM6.89,7h3.61v2h-3.72l.11-2Zm10.33,2h-3.72v-2h3.6l.12,2Z"/></svg>