<svg xmlns="http://www.w3.org/2000/svg" viewBox="0 0 24 24" width="24" height="24"><path d="m22.5,7h-.5v-.5c0-3.03-2.47-5.5-5.5-5.5H7.5c-3.03,0-5.5,2.47-5.5,5.5v.5h-.5c-.28,0-.5.22-.5.5v3c0,.28.22.5.5.5h.32l-.35.7c-.31.62-.47,1.32-.47,2.01v2.79c0,1.56.8,2.93,2,3.74v1.26c0,.83.67,1.5,1.5,1.5h1c.83,0,1.5-.67,1.5-1.5v-.5h10v.5c0,.83.67,1.5,1.5,1.5h1c.83,0,1.5-.67,1.5-1.5v-1.26c1.2-.81,2-2.18,2-3.74v-2.79c0-.69-.16-1.39-.47-2.01l-.35-.7h.32c.28,0,.5-.22.5-.5v-3c0-.28-.22-.5-.5-.5Zm-17.45-1h6.2v5h-6.25v-4.5c0-.17.02-.34.05-.5Zm13.9,0c.03.16.05.33.05.5v4.5h-6.25v-5h6.2Zm-2.95,10c0-1.1.9-2,2-2s2,.9,2,2-.9,2-2,2-2-.9-2-2Zm-10-2c1.1,0,2,.9,2,2s-.9,2-2,2-2-.9-2-2,.9-2,2-2Z"/></svg>