<svg xmlns="http://www.w3.org/2000/svg" width="24" height="24" viewBox="0 0 24 24"><path d="M12 1C5.93 1 1 5.93 1 12s4.93 11 11 11 11-4.93 11-11S18.07 1 12 1M8.5 9c.83 0 1.5.67 1.5 1.5S9.33 12 8.5 12 7 11.33 7 10.5 7.67 9 8.5 9m8.27 6.22a5.8 5.8 0 0 1-1.55 1.55c-.31.21-.63.38-.98.53q-.525.225-1.08.33a5.6 5.6 0 0 1-2.32 0c-.37-.07-.73-.19-1.08-.33-.34-.15-.67-.32-.98-.53a5.8 5.8 0 0 1-1.55-1.55.753.753 0 0 1 .2-1.04c.34-.23.81-.14 1.04.2.15.23.33.44.52.63s.4.37.63.52.47.28.72.39c.26.11.52.19.8.25.56.11 1.15.11 1.71 0 .27-.06.54-.14.8-.25.25-.11.5-.24.72-.39s.44-.33.63-.52.37-.4.52-.63c.23-.34.7-.43 1.04-.2s.43.7.2 1.04ZM15.5 12c-.83 0-1.5-.67-1.5-1.5S14.67 9 15.5 9s1.5.67 1.5 1.5-.67 1.5-1.5 1.5"/></svg>