<svg xmlns="http://www.w3.org/2000/svg" viewBox="0 0 24 24" width="24" height="24"><path d="m19.5,8.08v-2.68l2.92-1.17c.21-.08.21-.38,0-.46l-4.08-1.63c-.16-.07-.34.06-.34.23v5.28c-1.73-.41-3.64-.59-5.25-.63v-2.64l2.7-1.14c.2-.09.2-.37,0-.46l-3.86-1.62c-.16-.07-.35.05-.35.23v5.63c-1.61.04-3.52.23-5.25.63v-2.25l2.92-1.17c.21-.08.21-.38,0-.46l-4.08-1.63c-.16-.07-.34.06-.34.23v5.71c-2,.69-3.5,1.77-3.5,3.42v7.5c0,2.57,4.18,3.49,7.46,3.82.29.03.54-.2.54-.5v-2.32c0-.55.45-1,1-1h4c.55,0,1,.45,1,1v2.32c0,.29.25.53.54.5,3.28-.33,7.46-1.25,7.46-3.82v-7.5c0-1.65-1.5-2.73-3.5-3.42Zm-7.5,1.92c4.34,0,7.01.93,7.82,1.5-.81.57-3.48,1.5-7.82,1.5s-7.01-.93-7.82-1.5c.81-.57,3.48-1.5,7.82-1.5Z"/></svg>