<svg xmlns="http://www.w3.org/2000/svg" viewBox="0 0 24 24" width="24" height="24"><path d="m18.34,11.83c-.25-.51-.77-.83-1.34-.83s-1.09.32-1.34.83l-4.5,9c-.37.74-.07,1.64.67,2.01.74.37,1.64.07,2.01-.67l.59-1.17h5.15l.59,1.17c.26.53.79.83,1.34.83.23,0,.45-.05.67-.16.74-.37,1.04-1.27.67-2.01l-4.5-9Zm-2.41,6.17l1.07-2.15,1.07,2.15h-2.15Z"/><path d="m12.55,13.28c.11-.73-.37-1.41-1.06-1.67-.42-.16-.9-.36-1.42-.62,1.24-1.27,2.23-2.91,2.55-5,.77-.06,1.38-.7,1.38-1.49,0-.83-.67-1.5-1.5-1.5h-3.5v-.5c0-.83-.67-1.5-1.5-1.5s-1.5.67-1.5,1.5v.5h-3.5c-.83,0-1.5.67-1.5,1.5s.67,1.5,1.5,1.5h7.07c-.34,1.34-1.13,2.42-2.07,3.27-.25-.22-.49-.46-.71-.72-.29-.33-.68-.55-1.12-.55h-.22c-1.19,0-1.87,1.39-1.12,2.31.19.24.4.46.61.67-.56.28-1.1.5-1.54.67-.7.26-1.09,1.01-.92,1.74l.03.11-.03-.11c.2.88,1.12,1.39,1.97,1.08.85-.31,1.95-.78,3.06-1.46,1.11.68,2.21,1.15,3.06,1.46.88.32,1.84-.25,1.99-1.19Z"/></svg>