<svg xmlns="http://www.w3.org/2000/svg" viewBox="0 0 24 24" width="24" height="24"><path d="m18,1H6c-1.1,0-2,.9-2,2s.9,2,2,2h12c1.1,0,2-.9,2-2s-.9-2-2-2Z"/><path d="m18,19H6c-1.1,0-2,.9-2,2s.9,2,2,2h12c1.1,0,2-.9,2-2s-.9-2-2-2Z"/><path d="m6.85,12.09l4.23-4.23c.32-.31.09-.85-.35-.85h-4.23c-.28,0-.5.22-.5.5v4.23c0,.45.54.67.85.35Z"/><path d="m6,16.5c0,.28.22.5.5.5h3.23c.13,0,.26-.05.35-.15l7.77-7.77c.09-.09.15-.22.15-.35v-1.23c0-.28-.22-.5-.5-.5h-3.23c-.13,0-.26.05-.35.15l-7.77,7.77c-.09.09-.15.22-.15.35v1.23Z"/><path d="m17.15,11.91l-4.23,4.23c-.32.32-.09.85.35.85h4.23c.28,0,.5-.22.5-.5v-4.23c0-.45-.54-.67-.85-.35Z"/></svg>