<svg xmlns="http://www.w3.org/2000/svg" viewBox="0 0 24 24" width="24" height="24"><path d="m21.24,5.55c-.54-.95-1.54-1.55-2.63-1.55h-3.79c-.41-1.16-1.51-2-2.82-2H3c-1.65,0-3,1.35-3,3v10c0,1.31.85,2.41,2.01,2.82,0,.06-.01.12-.01.18,0,2.21,1.79,4,4,4s4-1.79,4-4h4c0,2.21,1.79,4,4,4s4-1.79,4-4c0-.06-.01-.12-.01-.18,1.17-.41,2.01-1.51,2.01-2.82v-3.62c0-.51-.13-1-.36-1.44l-2.4-4.4Zm-15.24,13.45c-.55,0-1-.45-1-1,0-.21.07-.43.2-.6.11-.15.37-.4.8-.4.11,0,.21.02.29.04.26.08.42.25.51.36.12.17.2.38.2.6,0,.55-.45,1-1,1Zm12,0c-.55,0-1-.45-1-1,0-.21.07-.43.2-.6.11-.15.37-.4.8-.4.11,0,.21.02.29.04.26.08.42.25.51.36.12.17.2.38.2.6,0,.55-.45,1-1,1Zm-3-9v-3h3.61s1.64,3,1.64,3h-5.25Z"/></svg>