<svg xmlns="http://www.w3.org/2000/svg" viewBox="0 0 24 24" width="24" height="24"><path d="m12,5c.41,0,.75-.34.75-.75V1.75c0-.41-.34-.75-.75-.75s-.75.34-.75.75v2.5c0,.41.34.75.75.75Z"/><path d="m11.25,10.25c0,.41.34.75.75.75s.75-.34.75-.75v-2.5c0-.41-.34-.75-.75-.75s-.75.34-.75.75v2.5Z"/><path d="m11.25,16.25c0,.41.34.75.75.75s.75-.34.75-.75v-2.5c0-.41-.34-.75-.75-.75s-.75.34-.75.75v2.5Z"/><path d="m11.25,22.25c0,.41.34.75.75.75s.75-.34.75-.75v-2.5c0-.41-.34-.75-.75-.75s-.75.34-.75.75v2.5Z"/><path d="m4.5,19h-2c-.83,0-1.5.67-1.5,1.5s.67,1.5,1.5,1.5h2c2.48,0,4.5-2.02,4.5-4.5V6.5c0-2.48-2.02-4.5-4.5-4.5h-2c-.83,0-1.5.67-1.5,1.5v4h.05c-.03.08-.05.16-.05.25,0,.41.34.75.75.75h4.25v4.75H1.75c-.41,0-.75.34-.75.75s.34.75.75.75h4.25v2.75c0,.83-.67,1.5-1.5,1.5Z"/><path d="m21.5,2h-2c-2.48,0-4.5,2.02-4.5,4.5v11c0,2.48,2.02,4.5,4.5,4.5h2c.83,0,1.5-.67,1.5-1.5s-.67-1.5-1.5-1.5h-2c-.83,0-1.5-.67-1.5-1.5v-2.75h4.25c.41,0,.75-.34.75-.75s-.34-.75-.75-.75h-4.25v-4.75h4.25c.41,0,.75-.34.75-.75,0-.09-.02-.17-.05-.25h.05V3.5c0-.83-.67-1.5-1.5-1.5Z"/></svg>