<svg xmlns="http://www.w3.org/2000/svg" viewBox="0 0 24 24" width="24" height="24"><path d="m21,15.5V7.5c0-3.58-2.92-6.5-6.5-6.5h-5c-3.58,0-6.5,2.92-6.5,6.5v8c0,2.48,2.02,4.5,4.5,4.5h9c2.48,0,4.5-2.02,4.5-4.5Zm-13,1.5c-1.1,0-2-.9-2-2s.9-2,2-2,2,.9,2,2-.9,2-2,2Zm8,0c-1.1,0-2-.9-2-2s.9-2,2-2,2,.9,2,2-.9,2-2,2Zm2-9.5v2.5c0,.55-.45,1-1,1H7c-.55,0-1-.45-1-1v-4c0-.55.45-1,1-1h10c.55,0,1,.45,1,1v1.5Z"/><path d="m5.25,21l-.77,1.23c-.21.33.03.77.42.77h1.1c.16,0,.31-.07.4-.2l.45-.6c.09-.13.24-.2.4-.2h9.5c.16,0,.31.07.4.2l.45.6c.09.13.24.2.4.2h1.1c.39,0,.63-.43.42-.77l-.77-1.23H5.25Z"/></svg>