<svg xmlns="http://www.w3.org/2000/svg" viewBox="0 0 24 24" width="24" height="24"><path d="m22.08,9.67c.56-.22.92-.77.92-1.38v-2.05c0-1.24-1.01-2.25-2.25-2.25h-3.75v.5c0,.28-.22.5-.5.5s-.5-.22-.5-.5v-.5H3.25c-1.24,0-2.25,1.01-2.25,2.25v2.05c0,.6.36,1.15.92,1.38.93.37,1.58,1.27,1.58,2.33s-.65,1.96-1.58,2.33c-.56.22-.92.77-.92,1.38v2.05c0,1.24,1.01,2.25,2.25,2.25h12.75v-1.5c0-.28.22-.5.5-.5s.5.22.5.5v1.5h3.75c1.24,0,2.25-1.01,2.25-2.25v-2.05c0-.6-.36-1.15-.92-1.38-.93-.37-1.58-1.27-1.58-2.33s.65-1.96,1.58-2.33Zm-5.08,6.83c0,.28-.22.5-.5.5s-.5-.22-.5-.5v-1c0-.28.22-.5.5-.5s.5.22.5.5v1Zm0-3c0,.28-.22.5-.5.5s-.5-.22-.5-.5v-1c0-.28.22-.5.5-.5s.5.22.5.5v1Zm0-3c0,.28-.22.5-.5.5s-.5-.22-.5-.5v-1c0-.28.22-.5.5-.5s.5.22.5.5v1Zm0-3c0,.28-.22.5-.5.5s-.5-.22-.5-.5v-1c0-.28.22-.5.5-.5s.5.22.5.5v1Z"/></svg>