<svg xmlns="http://www.w3.org/2000/svg" viewBox="0 0 24 24" width="24" height="24"><path d="m21.74,10.83c-.01-.11-.03-.22-.07-.32l-1.55-4.48c-.63-1.81-2.34-3.03-4.25-3.03h-1.86v-1c0-.55-.45-1-1-1h-2c-.55,0-1,.45-1,1v1h-1.86c-1.92,0-3.62,1.22-4.25,3.03l-1.55,4.48c-.04.11-.06.22-.07.32-.76.64-1.26,1.59-1.26,2.67v3c0,1.19.6,2.23,1.5,2.86v2.14c0,.83.67,1.5,1.5,1.5h1c.83,0,1.5-.67,1.5-1.5v-1.5h11v1.5c0,.83.67,1.5,1.5,1.5h1c.83,0,1.5-.67,1.5-1.5v-2.14c.9-.63,1.5-1.68,1.5-2.86v-3c0-1.07-.5-2.02-1.26-2.67ZM4,15c0-1.1.9-2,2-2s2,.9,2,2-.9,2-2,2-2-.9-2-2Zm12,0c0-1.1.9-2,2-2s2,.9,2,2-.9,2-2,2-2-.9-2-2Zm-7.86-9h7.73c.64,0,1.21.41,1.42,1.01l1.03,2.99H5.68l1.03-2.99c.21-.6.78-1.01,1.42-1.01Z"/></svg>