<svg xmlns="http://www.w3.org/2000/svg" width="24" height="24" viewBox="0 0 24 24"><path d="M18.85 15.35c-.32-.31-.85-.09-.85.35v1.29H6V15.7c0-.45-.54-.67-.85-.35l-2.44 2.44a.996.996 0 0 0 0 1.41l2.44 2.44c.32.32.85.09.85-.35V20h12v1.29c0 .45.54.67.85.35l2.44-2.44a.996.996 0 0 0 0-1.41zM16 7c.83 0 1.5-.67 1.5-1.5v-2c0-.83-.67-1.5-1.5-1.5H8c-.83 0-1.5.67-1.5 1.5v2C6.5 6.33 7.17 7 8 7s1.5-.67 1.5-1.5V5h1v7h-.75c-.83 0-1.5.67-1.5 1.5s.67 1.5 1.5 1.5h4.5c.83 0 1.5-.67 1.5-1.5s-.67-1.5-1.5-1.5h-.75V5h1v.5c0 .83.67 1.5 1.5 1.5"/></svg>