<svg xmlns="http://www.w3.org/2000/svg" viewBox="0 0 24 24" width="24" height="24"><path d="m20.5,5h-2.5v-1c0-1.65-1.35-3-3-3h-6c-1.65,0-3,1.35-3,3v1h-2.5c-.83,0-1.5.67-1.5,1.5s.67,1.5,1.5,1.5h.5v10.5c0,2.48,2.02,4.5,4.5,4.5h7c2.48,0,4.5-2.02,4.5-4.5v-10.5h.5c.83,0,1.5-.67,1.5-1.5s-.67-1.5-1.5-1.5Zm-11.5-1h6v1h-6v-1Zm.75,13.25c0,.41-.34.75-.75.75s-.75-.34-.75-.75v-6.5c0-.41.34-.75.75-.75s.75.34.75.75v6.5Zm6,0c0,.41-.34.75-.75.75s-.75-.34-.75-.75v-6.5c0-.41.34-.75.75-.75s.75.34.75.75v6.5Z"/></svg>