<svg xmlns="http://www.w3.org/2000/svg" width="24" height="24" viewBox="0 0 24 24"><path d="M12 1C5.93 1 1 5.93 1 12s4.93 11 11 11 11-4.93 11-11S18.07 1 12 1M7 12.78c-.25 0-.5-.12-.65-.35a.777.777 0 0 1 .22-1.08L8.6 10 6.57 8.65c-.36-.24-.46-.72-.22-1.08s.72-.46 1.08-.22l3 2c.22.14.35.39.35.65s-.13.5-.35.65l-3 2c-.13.09-.28.13-.43.13M14.75 17H9.24c-.6 0-.97-.68-.62-1.17C9.21 14.99 10.28 14 12 14s2.79.99 3.38 1.83c.35.49-.02 1.17-.62 1.17Zm2.68-5.65c.36.24.46.72.22 1.08-.15.23-.4.35-.65.35-.15 0-.3-.04-.43-.13l-3-2c-.22-.14-.35-.39-.35-.65s.13-.5.35-.65l3-2c.36-.24.84-.14 1.08.22s.14.84-.22 1.08L15.4 10z"/></svg>