<svg xmlns="http://www.w3.org/2000/svg" viewBox="0 0 24 24" width="24" height="24"><path d="M21 19A2 2 0 1 0 21 23 2 2 0 1 0 21 19z"/><path d="m22.92,10.72c.37-2.85-.63-5.58-2.73-7.5-2.1-1.92-4.93-2.67-7.77-2.05-2.75.61-5.02,2.57-6.05,5.15l11.23,11.23c2.81-1.14,4.91-3.74,5.31-6.83Z"/><path d="m6.33,8.39c-.17-.17-.47-.07-.5.17-.12,1.04-.07,2.07.18,3.08.39,1.58-.02,3.16-1.09,4.23l-2.51,2.51c-.96.96-.96,2.52,0,3.48l.04.04c.44.44,1.02.73,1.64.77.71.04,1.39-.22,1.89-.72l2.72-2.72c1.05-1.05,2.52-1.53,3.83-1.24.92.2,1.9.26,2.87.14.24-.03.34-.32.17-.5L6.33,8.39Z"/></svg>