<svg xmlns="http://www.w3.org/2000/svg" viewBox="0 0 24 24" width="24" height="24"><path d="m12,1C5.93,1,1,5.93,1,12s4.93,11,11,11,11-4.93,11-11S18.07,1,12,1Zm0,4.32c.92,0,1.67.75,1.67,1.67s-.75,1.67-1.67,1.67-1.67-.75-1.67-1.67.75-1.67,1.67-1.67Zm4.19,5.3l-2.51.84v1.67l1.42,4.01c.15.42-.04.88-.44,1.08l-.09.04c-.47.24-1.05,0-1.23-.49l-1.06-2.97h-.56l-1.06,2.97c-.18.5-.75.73-1.23.49l-.09-.04c-.4-.2-.59-.66-.44-1.08l1.42-4.01v-1.67l-2.51-.84c-.46-.15-.71-.65-.56-1.12.15-.46.65-.71,1.12-.56l1.45.48c.7.23,1.44.35,2.17.35s1.47-.12,2.18-.35l1.45-.48c.46-.15.96.1,1.12.56h0c.15.46-.1.96-.56,1.12Z"/></svg>