<svg xmlns="http://www.w3.org/2000/svg" width="24" height="24" viewBox="0 0 24 24"><path d="M17.66 6.11c-.13-.3-.29-.6-.48-.87a1.496 1.496 0 1 0-2.47 1.69c.08.11.14.23.19.35s.09.24.11.36c.02.11.04.23.04.35s-.01.24-.04.36c-.02.12-.06.24-.11.35-.05.12-.12.24-.19.35-.47.69-.29 1.62.4 2.08a1.49 1.49 0 0 0 2.08-.4 4.9 4.9 0 0 0 .77-1.79c.06-.31.1-.64.1-.96s-.03-.65-.1-.96c-.07-.32-.16-.63-.29-.92Z"/><path d="M22.91 6.1q-.09-.465-.24-.93c-.1-.31-.21-.61-.33-.91-.13-.3-.27-.6-.43-.89s-.33-.57-.52-.85-.39-.55-.62-.82a1.495 1.495 0 1 0-2.3 1.91c.16.19.3.39.44.59.13.2.26.4.37.6s.21.41.3.62.17.42.23.63c.07.21.12.43.17.64.04.21.08.43.1.65a7 7 0 0 1 0 1.3c-.02.22-.06.44-.1.65s-.1.43-.16.64c-.07.21-.14.43-.23.64a7 7 0 0 1-.67 1.22c-.14.2-.28.4-.44.59a1.495 1.495 0 1 0 2.31 1.9c.22-.27.42-.54.61-.81.19-.28.37-.57.52-.85a10.4 10.4 0 0 0 .77-1.8q.15-.465.24-.93c.06-.31.11-.63.15-.95.03-.32.05-.63.05-.95s-.02-.64-.05-.95c-.03-.32-.08-.63-.15-.95ZM8 2a5 5 0 1 0 0 10A5 5 0 1 0 8 2M3.5 22h9a2.5 2.5 0 0 0 2.5-2.5v-1c0-3.03-2.47-5.5-5.5-5.5h-3A5.51 5.51 0 0 0 1 18.5v1A2.5 2.5 0 0 0 3.5 22"/></svg>