<svg xmlns="http://www.w3.org/2000/svg" width="24" height="24" viewBox="0 0 24 24"><path d="M18.5 3h-13C3.02 3 1 5.02 1 7.5v9C1 18.98 3.02 21 5.5 21h13c2.48 0 4.5-2.02 4.5-4.5v-9C23 5.02 20.98 3 18.5 3M8 8c1.15 0 2 .85 2 2s-.85 2-2 2-2-.85-2-2 .85-2 2-2m2.5 8h-5c-.28 0-.5-.22-.5-.5A2.5 2.5 0 0 1 7.5 13h1a2.5 2.5 0 0 1 2.5 2.5c0 .28-.22.5-.5.5m7 0h-2c-.83 0-1.5-.67-1.5-1.5s.67-1.5 1.5-1.5h2c.83 0 1.5.67 1.5 1.5s-.67 1.5-1.5 1.5m0-5h-4c-.83 0-1.5-.67-1.5-1.5S12.67 8 13.5 8h4c.83 0 1.5.67 1.5 1.5s-.67 1.5-1.5 1.5"/></svg>