<svg xmlns="http://www.w3.org/2000/svg" viewBox="0 0 24 24" width="24" height="24"><path d="m19.94,5.85l-5.5-3.56c-1.48-.96-3.4-.96-4.89,0l-5.5,3.56c-1.29.83-2.06,2.25-2.06,3.78v4.74c0,1.53.77,2.95,2.06,3.78l5.5,3.56c.74.48,1.59.72,2.44.72s1.7-.24,2.44-.72l5.5-3.56c1.29-.83,2.06-2.25,2.06-3.78v-4.74c0-1.53-.77-2.95-2.06-3.78Zm-7.94,2.15c1.71,0,3,1.29,3,3s-1.29,3-3,3-3-1.29-3-3,1.29-3,3-3Zm.82,11.19c-.5.32-1.13.32-1.63,0l-3.81-2.47c.86-1.05,2.16-1.72,3.63-1.72h2c1.46,0,2.76.67,3.63,1.72l-3.81,2.47Z"/></svg>