<svg xmlns="http://www.w3.org/2000/svg" viewBox="0 0 24 24" width="24" height="24"><path d="m18.51,7c.46.6,1.17,1,1.99,1,1.38,0,2.5-1.12,2.5-2.5s-1.12-2.5-2.5-2.5c-.82,0-1.53.4-1.99,1h-2.7c-.41-1.16-1.51-2-2.82-2h-2c-1.3,0-2.4.84-2.82,2h-2.7c-.46-.6-1.17-1-1.99-1-1.38,0-2.5,1.12-2.5,2.5s1.12,2.5,2.5,2.5c.82,0,1.53-.4,1.99-1h2.51c0,.16.02.32.05.48-.76.4-1.45.9-2.06,1.51-.78.78-1.39,1.69-1.82,2.7-.35.83-.56,1.7-.63,2.59-1.48.59-2.54,2.03-2.54,3.71,0,2.21,1.79,4,4,4s4-1.79,4-4c0-1.65-1-3.07-2.43-3.68.06-.5.17-.99.36-1.46.28-.66.67-1.24,1.18-1.75.51-.51,1.09-.9,1.75-1.18.07-.03.13-.07.19-.1.3.1.62.17.95.17h2c.34,0,.65-.07.95-.17.06.04.12.07.19.1.65.28,1.24.67,1.75,1.18.51.51.9,1.09,1.18,1.75.2.47.3.96.36,1.46-1.43.61-2.43,2.03-2.43,3.68,0,2.21,1.79,4,4,4s4-1.79,4-4c0-1.69-1.05-3.13-2.54-3.71-.07-.89-.28-1.76-.63-2.6-.43-1.01-1.04-1.92-1.82-2.7-.61-.61-1.3-1.11-2.06-1.51.03-.16.05-.31.05-.48h2.51Zm-7.51,0v-2h2v2s-2,0-2,0Z"/></svg>