<svg xmlns="http://www.w3.org/2000/svg" width="24" height="24" viewBox="0 0 24 24"><path d="M2.06 5.94c-.26-.26-.71-.17-.83.18-.15.43-.23.89-.23 1.38v9C1 18.99 3.01 21 5.5 21h9c.48 0 .94-.08 1.38-.23.35-.12.44-.57.18-.83zM22.18 7.68 19 10.33V7.5C19 5.02 16.98 3 14.5 3h-9c-.44 0-.85.07-1.25.19L2.28 1.22c-.29-.29-.77-.29-1.06 0s-.29.77 0 1.06l20.5 20.5c.15.15.34.22.53.22s.38-.07.53-.22c.29-.29.29-.77 0-1.06l-3.97-3.97c.12-.4.19-.81.19-1.25v-2.83l3.18 2.65a.5.5 0 0 0 .82-.38V8.08c0-.42-.49-.66-.82-.38Z"/></svg>