<svg xmlns="http://www.w3.org/2000/svg" viewBox="0 0 24 24" width="24" height="24"><path d="m2.5,11h16c2.8,0,5.01-2.57,4.4-5.47-.36-1.7-1.73-3.07-3.43-3.43-2.18-.46-4.16.67-5.02,2.44-.44.91.29,1.95,1.3,1.95h.26c.51,0,.94-.32,1.2-.76.26-.44.74-.74,1.29-.74.83,0,1.5.67,1.5,1.5s-.67,1.5-1.5,1.5H2.5c-.83,0-1.5.67-1.5,1.5s.67,1.5,1.5,1.5Z"/><path d="m15.5,13h-6c-.83,0-1.5.67-1.5,1.5s.67,1.5,1.5,1.5h6c.83,0,1.5.67,1.5,1.5s-.67,1.5-1.5,1.5c-.55,0-1.03-.3-1.29-.74-.26-.44-.69-.76-1.2-.76h-.26c-1.01,0-1.74,1.05-1.3,1.95.86,1.77,2.85,2.9,5.02,2.44,1.7-.36,3.07-1.73,3.43-3.43.61-2.9-1.6-5.47-4.4-5.47Z"/><path d="m4.5,13h-2c-.83,0-1.5.67-1.5,1.5s.67,1.5,1.5,1.5h2c.83,0,1.5-.67,1.5-1.5s-.67-1.5-1.5-1.5Z"/><path d="M2 4A1 1 0 1 0 2 6 1 1 0 1 0 2 4z"/><path d="M11 4A1 1 0 1 0 11 6 1 1 0 1 0 11 4z"/><path d="M6.5 1A1.5 1.5 0 1 0 6.5 4 1.5 1.5 0 1 0 6.5 1z"/><path d="M8 19A1 1 0 1 0 8 21 1 1 0 1 0 8 19z"/><path d="M22 12A1 1 0 1 0 22 14 1 1 0 1 0 22 12z"/><path d="M3 18A1 1 0 1 0 3 20 1 1 0 1 0 3 18z"/></svg>