<svg xmlns="http://www.w3.org/2000/svg" viewBox="0 0 24 24" width="24" height="24"><path d="m19.5,7H4.5c-1.93,0-3.5,1.57-3.5,3.5v9c0,1.93,1.57,3.5,3.5,3.5h15c1.93,0,3.5-1.57,3.5-3.5v-1c0-.28-.22-.5-.5-.5h-3.5c-1.85,0-3.31-1.68-2.94-3.6.28-1.42,1.61-2.4,3.06-2.4h3.38c.28,0,.5-.22.5-.5v-1c0-1.93-1.57-3.5-3.5-3.5Z"/><path d="m22.5,13.5h-3.5c-.83,0-1.5.67-1.5,1.5s.67,1.5,1.5,1.5h3.5c.28,0,.5-.22.5-.5v-2c0-.28-.22-.5-.5-.5Z"/><path d="m8.85,5.03h9.66c.27,0,.5-.22.5-.5v-.44c0-.6-.18-1.2-.56-1.66-.76-.92-1.98-1.19-3-.75l-6.7,2.87c-.25.11-.17.48.1.48Z"/></svg>