<svg xmlns="http://www.w3.org/2000/svg" width="24" height="24" viewBox="0 0 24 24"><path d="M12 21c1.1 0 2-.9 2-2s-.9-2-2-2-2 .9-2 2a2 2 0 0 0 2 2M8.31 13.54c-.12.06-.24.12-.37.19-.12.06-.24.13-.35.2-.12.07-.23.14-.35.22-.11.08-.23.16-.34.24a1.5 1.5 0 0 0 1.8 2.4l.21-.15a5 5 0 0 1 .46-.28l.24-.12c.75-.36 1.06-1.25.7-2a1.493 1.493 0 0 0-2-.7M5.51 10.41q-.255.15-.51.33c-.17.11-.33.23-.49.35a1.5 1.5 0 0 0 1.8 2.4c.12-.09.25-.18.37-.26.13-.09.26-.17.39-.25.71-.43.93-1.35.5-2.06s-1.36-.93-2.06-.5ZM2.77 7.32c-.22.15-.44.3-.65.46a1.5 1.5 0 0 0 1.8 2.4c.17-.13.35-.25.53-.38.69-.46.87-1.4.4-2.08-.46-.69-1.4-.87-2.08-.4M17.45 16.39c.41-.65.27-1.53-.36-2-.11-.08-.22-.16-.34-.24-.11-.08-.23-.15-.34-.22s-.24-.14-.36-.2q-.18-.105-.36-.18-.18-.09-.39-.18l-.39-.15c-.13-.05-.26-.09-.39-.13-.14-.04-.27-.08-.4-.11l-.13-.03-1.31-1.31c.1 0 .19.01.29.02l.47.06c.16.02.32.05.47.08.16.03.31.07.46.11s.3.08.45.13.3.1.44.15.28.11.43.17c.14.06.28.12.42.19s.27.13.41.21c.13.07.27.15.4.23s.26.16.39.25c.13.08.25.17.37.27a1.498 1.498 0 1 0 1.79-2.4c-.16-.12-.32-.24-.49-.35s-.34-.22-.51-.32-.35-.2-.52-.3c-.18-.1-.36-.19-.54-.28s-.37-.17-.55-.25c-.19-.08-.38-.16-.57-.23s-.38-.13-.58-.2c-.2-.06-.4-.12-.6-.17s-.4-.1-.61-.14c-.2-.04-.4-.08-.62-.11-.21-.03-.41-.06-.62-.08s-.42-.04-.64-.05q-.645-.03-1.29 0c-.21.01-.43.03-.63.05-.21.02-.42.05-.63.08-.08.01-.16.03-.25.04l-.93-.93c.12-.03.24-.06.36-.08.22-.04.44-.08.67-.12s.45-.06.67-.09c.23-.02.46-.04.69-.05.46-.02.93-.02 1.4 0 .23.01.46.03.68.05.23.02.45.05.68.09.22.03.45.07.67.12.22.04.43.09.65.15.22.05.43.12.64.18s.42.14.62.21c.21.08.41.16.61.24s.4.18.6.27.39.19.58.3c.19.1.38.21.56.32s.37.23.55.35.35.25.53.38c.27.2.59.3.9.3a1.5 1.5 0 0 0 .9-2.7c-.21-.16-.43-.31-.65-.46s-.44-.29-.67-.43-.46-.27-.69-.4-.47-.25-.71-.36c-.24-.12-.49-.23-.73-.33-.25-.1-.5-.2-.75-.29s-.51-.18-.77-.26-.52-.16-.78-.22c-.27-.07-.53-.13-.8-.19a20.814 20.814 0 0 0-1.64-.25q-.42-.045-.84-.06c-.56-.03-1.13-.03-1.69 0-.28.01-.56.04-.84.06-.28.03-.55.06-.82.11-.27.04-.54.09-.81.14-.27.06-.54.12-.8.18-.26.07-.53.14-.78.22-.2.06-.4.13-.6.2l-4.2-4.23c-.29-.29-.77-.29-1.06 0s-.29.77 0 1.06l20.5 20.5c.15.15.34.22.53.22s.38-.07.53-.22c.29-.29.29-.77 0-1.06z"/></svg>