<svg xmlns="http://www.w3.org/2000/svg" width="24" height="24" viewBox="0 0 24 24"><path d="M12 17a2 2 0 1 0-.001 4.001A2 2 0 0 0 12 17"/><path d="M14.38 16.24c.08.04.16.08.23.12.08.04.16.09.24.14s.15.09.22.14l.21.15c.27.2.59.3.9.3a1.5 1.5 0 0 0 .9-2.7c-.11-.08-.22-.16-.34-.24-.11-.08-.23-.15-.34-.22-.12-.07-.23-.14-.36-.21-.12-.06-.24-.13-.36-.18a8.099 8.099 0 0 0-.77-.32c-.13-.05-.26-.09-.39-.13-.14-.04-.27-.08-.4-.11-.14-.04-.28-.07-.43-.1-.13-.03-.26-.05-.41-.07-.14-.02-.28-.04-.43-.05-.14-.01-.29-.03-.43-.03q-.435-.015-.87 0c-.14 0-.29.02-.43.03s-.28.03-.44.06c-.13.02-.26.04-.41.07-.14.03-.28.06-.4.09-.14.04-.28.07-.41.12-.14.04-.27.09-.39.13-.13.05-.26.1-.4.16-.12.05-.25.11-.37.17s-.24.12-.37.19c-.12.06-.24.13-.35.2-.12.07-.23.14-.35.22-.11.08-.23.16-.34.24a1.5 1.5 0 0 0 1.8 2.4l.21-.15a5 5 0 0 1 .46-.28c.08-.04.16-.08.25-.12.08-.04.16-.08.24-.11s.17-.07.25-.1.17-.06.26-.09c.08-.03.17-.05.27-.08.09-.02.17-.04.25-.06.1-.02.2-.04.28-.05.09-.01.18-.03.27-.03s.19-.02.28-.02h.57c.09 0 .19.01.28.02.09 0 .18.02.26.03.1.02.2.03.28.05.09.02.17.04.27.06.08.02.17.05.26.07.09.03.17.06.25.09s.17.06.24.09c.08.04.17.07.25.11Z"/><path d="M19.78 13.19c.5-.66.36-1.6-.3-2.1-.16-.12-.32-.24-.49-.35s-.33-.22-.51-.32c-.17-.1-.34-.2-.52-.3s-.36-.19-.54-.28-.37-.17-.55-.25c-.19-.08-.38-.16-.58-.23-.19-.07-.38-.13-.58-.2-.2-.06-.4-.12-.6-.17s-.4-.1-.61-.14c-.2-.04-.4-.08-.62-.11-.21-.03-.41-.06-.62-.08s-.42-.04-.64-.05q-.645-.03-1.29 0c-.21.01-.43.03-.63.05-.21.02-.42.05-.63.08s-.41.07-.62.11a13 13 0 0 0-1.2.31c-.2.06-.39.13-.58.2s-.39.15-.56.22c-.19.08-.37.16-.56.25-.18.09-.36.18-.54.28s-.35.2-.53.3q-.255.15-.51.33c-.17.11-.33.23-.49.35a1.5 1.5 0 0 0 1.8 2.4c.12-.09.25-.18.37-.26.13-.09.26-.17.39-.25s.26-.16.4-.23c.13-.07.27-.14.41-.21s.28-.13.43-.19c.14-.06.28-.12.42-.17.15-.05.29-.1.45-.15.15-.05.3-.09.45-.13s.31-.08.46-.11c.16-.03.32-.06.47-.08l.48-.06c.16-.02.32-.03.48-.04.32-.02.65-.02.98 0 .16 0 .32.02.49.04l.47.06c.16.02.32.05.47.08.16.03.31.07.47.11.15.04.3.08.45.13s.3.1.44.15.28.11.43.17c.14.06.28.12.42.19s.27.14.41.21.27.15.4.23.26.16.39.25.25.17.37.27c.27.2.59.3.9.3.46 0 .91-.21 1.2-.6Z"/></svg>