<svg xmlns="http://www.w3.org/2000/svg" viewBox="0 0 24 24" width="24" height="24"><path d="m8.5,23h7c.83,0,1.5-.67,1.5-1.5v-2.02c-1.43.96-3.15,1.52-5,1.52s-3.57-.56-5-1.52v2.02c0,.83.67,1.5,1.5,1.5Z"/><path d="m17,4.52v-2.02c0-.83-.67-1.5-1.5-1.5h-7c-.83,0-1.5.67-1.5,1.5v2.02c1.43-.96,3.15-1.52,5-1.52s3.57.56,5,1.52Z"/><path d="m12,4c-4.41,0-8,3.59-8,8s3.59,8,8,8,8-3.59,8-8-3.59-8-8-8Zm3.5,9.5h-3.5c-.83,0-1.5-.67-1.5-1.5v-3.5c0-.83.67-1.5,1.5-1.5s1.5.67,1.5,1.5v2h2c.83,0,1.5.67,1.5,1.5s-.67,1.5-1.5,1.5Z"/></svg>