<svg xmlns="http://www.w3.org/2000/svg" viewBox="0 0 24 24" width="24" height="24"><path d="m10.5,17.88v2.12h-2c-.83,0-1.5.67-1.5,1.5s.67,1.5,1.5,1.5h7c.83,0,1.5-.67,1.5-1.5s-.67-1.5-1.5-1.5h-2v-2.12c3.41-.54,6.26-2.9,7.22-6.1.31-1.03.36-2.19.17-3.46h0s-.87-5.63-.87-5.63c-.15-.98-.98-1.69-1.98-1.69H5.96c-.99,0-1.82.71-1.98,1.7l-.87,5.63c-.19,1.26-.14,2.43.17,3.46.95,3.2,3.81,5.56,7.22,6.1Zm-3.68-13.88h10.37l.58,3.8c-2.09-1.03-4.43-.62-6.29,1.16-1.6,1.53-3.57,1.71-5.27.49l-.19-.14c.01-.17.03-.35.06-.53l.74-4.78Z"/></svg>