<svg xmlns="http://www.w3.org/2000/svg" viewBox="0 0 24 24" width="24" height="24"><path d="m2.5,11h16c2.8,0,5.01-2.57,4.4-5.47-.36-1.7-1.73-3.07-3.43-3.43-2.18-.46-4.16.67-5.02,2.44-.44.91.29,1.95,1.3,1.95h.26c.51,0,.94-.32,1.2-.76.26-.44.74-.74,1.29-.74.83,0,1.5.67,1.5,1.5s-.67,1.5-1.5,1.5H2.5c-.83,0-1.5.67-1.5,1.5s.67,1.5,1.5,1.5Z"/><path d="m16.47,21.9c1.7-.36,3.07-1.73,3.43-3.43.61-2.9-1.6-5.47-4.4-5.47h-6c-.83,0-1.5.67-1.5,1.5s.67,1.5,1.5,1.5h6c.83,0,1.5.67,1.5,1.5s-.67,1.5-1.5,1.5c-.55,0-1.03-.3-1.29-.74-.26-.44-.69-.76-1.2-.76h-.26c-1.01,0-1.74,1.05-1.3,1.95.86,1.77,2.85,2.9,5.02,2.44Z"/><path d="m2.5,16h2c.83,0,1.5-.67,1.5-1.5s-.67-1.5-1.5-1.5h-2c-.83,0-1.5.67-1.5,1.5s.67,1.5,1.5,1.5Z"/></svg>