<svg xmlns="http://www.w3.org/2000/svg" viewBox="0 0 24 24" width="24" height="24"><path d="m15.5,1h-7.77c-.87,0-1.72.25-2.46.73-2.07,1.34-2.67,4.13-1.35,6.21l.36.57c-.09.99-.5,1.93-1.17,2.67-1.36,1.49-2.11,3.35-2.11,5.24v3.45c0,2.16,1.4,3.15,2.7,3.15h8.6c1.49,0,2.7-1.21,2.7-2.7v-3.89c0-1.89-.75-3.75-2.11-5.24-.73-.8-1.15-1.82-1.19-2.9.07-.24.17-.47.29-.68.76,1.26,2.08,2.57,4.15,2.86.45.06.86-.29.86-.75,0-.37-.26-.69-.63-.73-1.87-.25-2.84-1.58-3.3-2.5.47-.29,1.02-.45,1.61-.45h.82c.83,0,1.5-.67,1.5-1.5v-2c0-.83-.67-1.5-1.5-1.5Zm-3.55,14.96c-1.63-.11-2.59-.49-3.58-.89-1.01-.4-2.05-.82-3.7-.99.18-.31.39-.61.65-.89,1.18-1.29,1.88-2.96,1.97-4.7,0-.16,0-.33-.03-.49h1.45s-.01.06-.01.09c0,1.89.7,3.7,1.98,5.09.74.81,1.17,1.78,1.28,2.77Z"/><path d="M19 3A1 1 0 1 0 19 5 1 1 0 1 0 19 3z"/><path d="M22 3A1 1 0 1 0 22 5 1 1 0 1 0 22 3z"/><path d="M22 6A1 1 0 1 0 22 8 1 1 0 1 0 22 6z"/></svg>