<svg xmlns="http://www.w3.org/2000/svg" width="24" height="24" viewBox="0 0 24 24"><path d="M17.5 2h-11C4.02 2 2 4.02 2 6.5v11C2 19.98 4.02 22 6.5 22h11c2.48 0 4.5-2.02 4.5-4.5v-11C22 4.02 19.98 2 17.5 2m-1.96 11.41c.59.59.59 1.54 0 2.12-.29.29-.68.44-1.06.44s-.77-.15-1.06-.44l-1.41-1.41-1.41 1.41c-.29.29-.68.44-1.06.44s-.77-.15-1.06-.44a1.49 1.49 0 0 1 0-2.12L9.89 12l-1.41-1.41c-.59-.59-.59-1.54 0-2.12s1.54-.59 2.12 0l1.41 1.41 1.41-1.41c.59-.59 1.54-.59 2.12 0s.59 1.54 0 2.12L14.13 12z"/></svg>