<svg xmlns="http://www.w3.org/2000/svg" width="24" height="24" viewBox="0 0 24 24"><path d="M18.36 5.64c-3.51-3.51-9.22-3.51-12.73 0s-3.51 9.22 0 12.73C7.38 20.12 9.69 21 11.99 21s4.61-.88 6.36-2.63c3.51-3.51 3.51-9.22 0-12.73Zm-.71 12.02C16.14 19.17 14.13 20 11.99 20s-4.15-.83-5.66-2.34c-3.12-3.12-3.12-8.2 0-11.31 1.51-1.51 3.52-2.34 5.66-2.34s4.15.83 5.66 2.34c3.12 3.12 3.12 8.2 0 11.31"/><path d="M13.25 10.75a1 1 0 1 0 0 2 1 1 0 1 0 0-2"/><path d="M16.54 7.46C15.6 6.52 14.34 6 13 6s-2.59.52-3.54 1.46S8 9.66 8 11s.52 2.59 1.46 3.54S11.66 16 13 16s2.59-.52 3.54-1.46S18 12.34 18 11s-.52-2.59-1.46-3.54m-3.29 6.29c-1.1 0-2-.9-2-2 0-.66.32-1.23.81-1.6-.19-.25-.31-.56-.31-.9 0-.83.67-1.5 1.5-1.5s1.5.67 1.5 1.5c0 .34-.12.65-.31.9.49.37.81.94.81 1.6 0 1.1-.9 2-2 2"/><path d="M13.25 8.75a.5.5 0 1 0 0 1 .5.5 0 1 0 0-1"/></svg>