<svg xmlns="http://www.w3.org/2000/svg" viewBox="0 0 24 24" width="24" height="24"><path d="M6 9H18V10H6z"/><path d="m13,14h-1c0,.4-.15.57-.38.84-.28.32-.62.72-.62,1.49s.34,1.17.62,1.49c.23.27.38.44.38.84s-.15.58-.38.84c-.28.32-.62.72-.62,1.49h1c0-.4.15-.58.38-.84.28-.32.62-.72.62-1.49s-.34-1.17-.62-1.49c-.23-.27-.38-.44-.38-.84s.15-.57.38-.84c.28-.32.62-.72.62-1.49Z"/><path d="m16.5,14h-1c0,.4-.15.57-.38.84-.28.32-.62.72-.62,1.49s.34,1.17.62,1.49c.23.27.38.44.38.84s-.15.58-.38.84c-.28.32-.62.72-.62,1.49h1c0-.4.15-.58.38-.84.28-.32.62-.72.62-1.49s-.34-1.17-.62-1.49c-.23-.27-.38-.44-.38-.84s.15-.57.38-.84c.28-.32.62-.72.62-1.49Z"/><path d="m9.5,14h-1c0,.4-.15.57-.38.84-.28.32-.62.72-.62,1.49s.34,1.17.62,1.49c.23.27.38.44.38.84s-.15.58-.38.84c-.28.32-.62.72-.62,1.49h1c0-.4.15-.58.38-.84.28-.32.62-.72.62-1.49s-.34-1.17-.62-1.49c-.23-.27-.38-.44-.38-.84s.15-.57.38-.84c.28-.32.62-.72.62-1.49Z"/><path d="M17.5 6A.5.5 0 1 0 17.5 7 .5.5 0 1 0 17.5 6z"/><path d="m19.5,3H4.5c-.83,0-1.5.67-1.5,1.5v6c0,.83.67,1.5,1.5,1.5h15c.83,0,1.5-.67,1.5-1.5v-6c0-.83-.67-1.5-1.5-1.5Zm.5,7.5c0,.28-.22.5-.5.5H4.5c-.28,0-.5-.22-.5-.5v-6c0-.28.22-.5.5-.5h15c.28,0,.5.22.5.5v6Z"/></svg>