<svg xmlns="http://www.w3.org/2000/svg" viewBox="0 0 24 24" width="24" height="24"><path class="b" d="m18.89,5.66c-.24-.14-.54-.06-.68.18-.33.58-.87.99-1.52,1.17-.65.17-1.32.08-1.9-.25l-3.46-2c-.12-.07-.25-.08-.38-.05-.13.04-.24.12-.3.23l-2,3.46-5,8.66c-.07.12-.08.25-.05.38.03.13.12.24.23.3l2.6,1.5c.08.05.16.07.25.07.17,0,.34-.09.43-.25l4.75-8.23.43.25c1.19.69,1.6,2.22.92,3.42-.07.12-.08.25-.05.38.03.13.12.24.23.3.64.37,1.3.53,1.96.53,1.87,0,3.69-1.31,4.69-3.04.68-1.18.99-2.57.85-3.81-.15-1.41-.87-2.55-2-3.2Zm-12.4,12.47l-1.73-1,4.5-7.79.43.25,1.3.75-4.5,7.79Zm12.68-5.96c-1.03,1.78-3.06,3.05-4.87,2.35.61-1.58,0-3.42-1.51-4.3l-3.03-1.75,1.5-2.6,3.03,1.75c.81.47,1.75.59,2.66.35.73-.2,1.36-.61,1.82-1.19.79.63,1.05,1.52,1.13,2.19.11,1.04-.15,2.2-.73,3.2Z"/></svg>