<svg xmlns="http://www.w3.org/2000/svg" viewBox="0 0 24 24" width="24" height="24"><path d="M18.5 10.5H21V11.5H18.5z"/><path d="M18.28 8.42 19.28 7.75 20.28 7.08 20 6.67 19.72 6.25 18.72 6.92 17.72 7.58 18 8 18.28 8.42z"/><path d="M18.28 13.58 18 14 17.72 14.42 18.72 15.08 19.72 15.75 20 15.33 20.28 14.92 19.28 14.25 18.28 13.58z"/><path d="m15,8.71v-4.21c0-.18-.09-.34-.25-.43-.15-.09-.34-.09-.5,0l-6.88,3.93h-1.37c-1.65,0-3,1.35-3,3,0,1.33.87,2.44,2.06,2.84l1.45,6.28.97-.22-1.36-5.89h1.24l6.88,3.93c.08.04.16.07.25.07s.17-.02.25-.07c.15-.09.25-.25.25-.43v-4.21c.88-.39,1.5-1.26,1.5-2.29s-.62-1.9-1.5-2.29Zm-1,7.93l-6.25-3.57c-.08-.04-.16-.07-.25-.07h-1.5c-1.1,0-2-.9-2-2s.9-2,2-2h1.5c.09,0,.17-.02.25-.07l6.25-3.57v11.28Z"/></svg>