<svg xmlns="http://www.w3.org/2000/svg" viewBox="0 0 24 24" width="24" height="24"><path d="M20.65 6.35 21 6 21.35 5.65 19.85 4.15 18.34 2.65 17.99 3 17.64 3.35 19.14 4.85 20.65 6.35z"/><path d="m21,13c0-4.88-4.12-9-9-9-2.01,0-3.89.71-5.41,1.88l-1.38-1.38,1.14-1.14-.35-.35-.35-.35-1.14,1.14-1.14-1.14-.71.71,18,18,.71-.71-2.23-2.23c1.17-1.52,1.88-3.4,1.88-5.41ZM12,5c4.34,0,8,3.66,8,8,0,1.74-.6,3.37-1.59,4.7l-4.2-4.2h2.79v-1h-3.79l-.71-.71v-3.79h-1v2.79l-4.2-4.2c1.33-.99,2.96-1.59,4.7-1.59Z"/><path d="m12,21c-4.34,0-8-3.66-8-8,0-1.53.47-2.98,1.25-4.21l-.72-.72c-.96,1.43-1.53,3.13-1.53,4.94,0,4.88,4.12,9,9,9,1.81,0,3.51-.57,4.94-1.53l-.72-.72c-1.23.79-2.68,1.25-4.21,1.25Z"/></svg>