<svg xmlns="http://www.w3.org/2000/svg" viewBox="0 0 24 24" width="24" height="24"><path d="m19.5,7h-1.5v-2.5c0-.83-.67-1.5-1.5-1.5H7.5c-.83,0-1.5.67-1.5,1.5v2.5h-1.5c-.83,0-1.5.67-1.5,1.5v11c0,.83.67,1.5,1.5,1.5h15c.83,0,1.5-.67,1.5-1.5v-11c0-.83-.67-1.5-1.5-1.5Zm-12.5-2.5c0-.28.22-.5.5-.5h9c.28,0,.5.22.5.5v2.5H7v-2.5Zm13,15c0,.28-.22.5-.5.5H4.5c-.28,0-.5-.22-.5-.5v-8.5h16v8.5ZM4,10v-1.5c0-.28.22-.5.5-.5h15c.28,0,.5.22.5.5v1.5H4Z"/><path d="m8.5,18c1.38,0,2.5-1.12,2.5-2.5s-1.12-2.5-2.5-2.5-2.5,1.12-2.5,2.5,1.12,2.5,2.5,2.5Zm0-4c.83,0,1.5.67,1.5,1.5s-.67,1.5-1.5,1.5-1.5-.67-1.5-1.5.67-1.5,1.5-1.5Z"/><path d="m15.5,18c1.38,0,2.5-1.12,2.5-2.5s-1.12-2.5-2.5-2.5-2.5,1.12-2.5,2.5,1.12,2.5,2.5,2.5Zm0-4c.83,0,1.5.67,1.5,1.5s-.67,1.5-1.5,1.5-1.5-.67-1.5-1.5.67-1.5,1.5-1.5Z"/></svg>