<svg xmlns="http://www.w3.org/2000/svg" viewBox="0 0 24 24" width="24" height="24"><path d="M15 3 9 3 12 6 15 3z"/><path d="m19.5,7h-5c-.83,0-1.5.67-1.5,1.5v11c0,.83.67,1.5,1.5,1.5h5c.83,0,1.5-.67,1.5-1.5v-11c0-.83-.67-1.5-1.5-1.5Zm.5,12.5c0,.28-.22.5-.5.5h-5c-.28,0-.5-.22-.5-.5v-11c0-.28.22-.5.5-.5h5c.28,0,.5.22.5.5v11Z"/><path d="m4.5,21h5c.83,0,1.5-.67,1.5-1.5v-11c0-.83-.67-1.5-1.5-1.5h-5c-.83,0-1.5.67-1.5,1.5v11c0,.83.67,1.5,1.5,1.5Zm-.5-12.5c0-.28.22-.5.5-.5h5c.28,0,.5.22.5.5v11c0,.28-.22.5-.5.5h-5c-.28,0-.5-.22-.5-.5v-11Z"/></svg>