<svg xmlns="http://www.w3.org/2000/svg" viewBox="0 0 24 24" width="24" height="24"><path d="m20.5,11h-.53c.02-.16.03-.33.03-.5,0-2.23-1.59-4.06-3.75-4.42-.6-1.83-2.29-3.08-4.25-3.08s-3.65,1.26-4.25,3.08c-2.16.35-3.75,2.19-3.75,4.42,0,.17.01.34.03.5h-.53c-.28,0-.5.22-.5.5,0,3.15,1.95,6.19,5,7.81v1.19c0,.28.22.5.5.5h7c.28,0,.5-.22.5-.5v-1.19c3.05-1.62,5-4.65,5-7.81,0-.28-.22-.5-.5-.5Zm-1.5-.5c0,.18-.01.34-.03.5h-5.99c.02-.16.03-.33.03-.5,0-.3-.04-.6-.1-.9,0-.04-.01-.09-.02-.13-.07-.28-.16-.55-.28-.81,0-.02-.01-.04-.02-.06.03-.04.05-.09.08-.13.04-.06.08-.11.12-.16.06-.08.13-.15.19-.22.05-.05.09-.1.14-.14.07-.06.14-.12.22-.18.05-.04.11-.09.17-.12.08-.05.15-.1.23-.14.06-.04.12-.07.19-.1.08-.04.17-.08.26-.11.06-.03.13-.05.19-.08.1-.03.2-.06.3-.08.06-.01.11-.03.17-.04.13-.03.26-.04.39-.05.03,0,.06,0,.1-.01.17-.01.33,0,.5,0,0,0,0,0,0,0,1.81.16,3.17,1.66,3.17,3.48Zm-7-6.5c1.38,0,2.6.8,3.16,2.01-.09,0-.18.04-.27.05-.14.02-.28.04-.41.07-.14.03-.28.07-.41.12-.11.04-.22.09-.33.13-.2.09-.39.18-.58.3-.13.08-.26.16-.38.25-.09.07-.18.14-.26.22-.14.12-.27.25-.39.39-.04.04-.08.08-.12.12-.03-.04-.07-.06-.1-.1-.14-.16-.28-.3-.44-.44-.07-.06-.14-.12-.21-.18-.18-.14-.36-.26-.56-.37-.09-.05-.19-.1-.28-.14-.17-.08-.34-.15-.51-.21-.11-.04-.22-.07-.33-.09-.17-.04-.34-.07-.52-.09-.07,0-.14-.03-.22-.04.56-1.21,1.78-2.01,3.16-2.01Zm-3.83,3.02c.17-.01.34-.02.51,0h0c.84.05,1.64.4,2.24.98,0,0,.02.01.02.02.1.1.19.21.28.32.02.02.04.04.06.07.1.13.19.27.27.41,0,0,0,0,0,0,.29.51.44,1.09.44,1.69,0,.18-.04.32-.06.48-1.14,0-4.42.01-6.9.02-.02-.16-.03-.32-.03-.5,0-1.83,1.36-3.32,3.17-3.48Zm7.11,11.53c-.17.08-.28.26-.28.45v1h-6v-1c0-.19-.11-.36-.28-.45-2.7-1.33-4.5-3.86-4.7-6.55h15.96c-.2,2.69-2,5.22-4.7,6.55Z"/></svg>