<svg xmlns="http://www.w3.org/2000/svg" viewBox="0 0 24 24" width="24" height="24"><path d="m16.5,10.6c-1.3,0-1.97.54-2.56,1.01-.53.42-.99.79-1.94.79s-1.41-.37-1.94-.79c-.59-.47-1.26-1.01-2.56-1.01s-1.97.54-2.56,1.01c-.53.42-.99.79-1.94.79v1c1.3,0,1.97-.54,2.56-1.01.53-.42.99-.79,1.94-.79s1.41.37,1.94.79c.59.47,1.26,1.01,2.56,1.01s1.97-.54,2.56-1.01c.53-.42.99-.79,1.94-.79s1.41.37,1.94.79c.59.47,1.26,1.01,2.56,1.01v-1c-.95,0-1.41-.37-1.94-.79-.59-.47-1.26-1.01-2.56-1.01Z"/><path d="m15.5,3h-7c-3.03,0-5.5,2.47-5.5,5.5,0,.28.22.5.5.5h17c.28,0,.5-.22.5-.5,0-3.03-2.47-5.5-5.5-5.5Zm-11.47,5c.25-2.25,2.16-4,4.47-4h7c2.31,0,4.22,1.75,4.47,4H4.03Z"/><path d="m20.5,15H3.5c-.28,0-.5.22-.5.5,0,3.03,2.47,5.5,5.5,5.5h7c3.03,0,5.5-2.47,5.5-5.5,0-.28-.22-.5-.5-.5Zm-5,5h-7c-2.31,0-4.22-1.75-4.47-4h15.94c-.25,2.25-2.16,4-4.47,4Z"/></svg>