<svg xmlns="http://www.w3.org/2000/svg" width="24" height="24" viewBox="0 0 24 24"><path d="M20.5 4H14c-.82 0-1.54.4-2 1.02C11.54 4.41 10.82 4 10 4H3.5c-.28 0-.5.22-.5.5v14c0 .28.22.5.5.5h5.06c.76 0 1.48.34 1.95.94l1.1 1.37q.09.105.21.15s0 .01.02.01c.05.02.11.03.17.03s.11 0 .17-.03c0 0 .01-.01.02-.01a.5.5 0 0 0 .21-.15l1.1-1.37c.48-.6 1.19-.94 1.95-.94h5.06c.28 0 .5-.22.5-.5v-14c0-.28-.22-.5-.5-.5ZM8.56 18H4V5h6c.83 0 1.5.67 1.5 1.5v13.07l-.21-.26A3.49 3.49 0 0 0 8.56 18M20 18h-4.56c-1.07 0-2.07.48-2.73 1.31l-.21.26V6.5c0-.83.67-1.5 1.5-1.5h6z"/></svg>