<svg xmlns="http://www.w3.org/2000/svg" viewBox="0 0 24 24" width="24" height="24"><path d="M3 15 6 12 3 9 3 15z"/><path d="m19.5,13h-11c-.83,0-1.5.67-1.5,1.5v5c0,.83.67,1.5,1.5,1.5h11c.83,0,1.5-.67,1.5-1.5v-5c0-.83-.67-1.5-1.5-1.5Zm.5,6.5c0,.28-.22.5-.5.5h-11c-.28,0-.5-.22-.5-.5v-5c0-.28.22-.5.5-.5h11c.28,0,.5.22.5.5v5Z"/><path d="m19.5,3h-11c-.83,0-1.5.67-1.5,1.5v5c0,.83.67,1.5,1.5,1.5h11c.83,0,1.5-.67,1.5-1.5v-5c0-.83-.67-1.5-1.5-1.5Zm.5,6.5c0,.28-.22.5-.5.5h-11c-.28,0-.5-.22-.5-.5v-5c0-.28.22-.5.5-.5h11c.28,0,.5.22.5.5v5Z"/></svg>