<svg xmlns="http://www.w3.org/2000/svg" viewBox="0 0 24 24" width="24" height="24"><path d="m6,13.5h1c0-1.93,1.57-3.5,3.5-3.5v-1c-2.48,0-4.5,2.02-4.5,4.5Z"/><path d="m18.56,4.73l-1.73,1.73-1.31-1.31c-.2-.2-.51-.2-.71,0l-1.43,1.43c-.9-.38-1.87-.58-2.89-.58-4.14,0-7.5,3.36-7.5,7.5s3.36,7.5,7.5,7.5,7.5-3.36,7.5-7.5c0-1.02-.19-1.99-.58-2.89l1.43-1.43c.2-.2.2-.51,0-.71l-1.31-1.31,1.73-1.73c.28-.28.66-.44,1.06-.44h.67v-1h-.67c-.67,0-1.3.26-1.77.73Zm-1.97,5.3s-.05.03-.08.04c-.2.14-.27.41-.16.63.42.86.64,1.8.64,2.8,0,3.58-2.92,6.5-6.5,6.5s-6.5-2.92-6.5-6.5,2.92-6.5,6.5-6.5c1,0,1.94.21,2.8.64.22.11.48.03.62-.17,0-.01.01-.02.02-.03l1.23-1.23,2.62,2.62-1.2,1.2Z"/></svg>