<svg xmlns="http://www.w3.org/2000/svg" width="24" height="24" viewBox="0 0 24 24"><path d="M12 3c-4.96 0-9 4.04-9 9s4.04 9 9 9 9-4.04 9-9-4.04-9-9-9m6.09 3.82-2.31 1.42c-.45-.46-1.08-.74-1.78-.74-.05 0-.1.01-.15.01-.6-1.62-1.44-2.78-2.1-3.5.08 0 .16-.01.24-.01 2.44 0 4.62 1.1 6.09 2.82ZM14 11.5c-.83 0-1.5-.67-1.5-1.5s.67-1.5 1.5-1.5 1.5.67 1.5 1.5-.67 1.5-1.5 1.5m-3.51-7.35c.53.48 1.66 1.7 2.39 3.63q-.495.255-.84.69c-3.16-1.22-5.56-.92-6.95-.49a8 8 0 0 1 5.39-3.83ZM4.48 9.3c.7-.37 3.22-1.41 7.11.06-.05.2-.09.42-.09.64 0 .23.04.46.1.67-.62.49-3.79 3.05-5.71 6.48A7.93 7.93 0 0 1 4 12c0-.95.17-1.85.48-2.7m2.14 8.6c1.68-3.15 4.61-5.65 5.45-6.33.38.46.9.78 1.51.88.17 1.15.53 4.77-.87 7.51-.23.02-.47.04-.71.04-2.07 0-3.96-.8-5.38-2.1m7.28 1.86c1.15-2.81.86-6.08.69-7.34.54-.13 1.01-.45 1.35-.87.63.49 2.57 2.14 3.03 4.36a8.04 8.04 0 0 1-5.06 3.85Zm5.68-5.23c-.89-2.13-2.72-3.56-3.18-3.88.06-.21.1-.42.1-.65 0-.32-.07-.63-.18-.92l2.37-1.46a7.92 7.92 0 0 1 .89 6.91"/></svg>