<svg xmlns="http://www.w3.org/2000/svg" viewBox="0 0 24 24" width="24" height="24"><path d="m20.99,10.65c-.03-.19-.17-.34-.36-.4l-3.56-.96.96-3.62c.05-.19-.01-.39-.16-.51-.15-.12-.36-.15-.53-.07l-3.33,1.58-1.55-3.39c-.16-.36-.75-.36-.91,0l-1.55,3.39-3.33-1.58c-.17-.08-.38-.06-.53.07-.15.12-.21.32-.16.51l.96,3.62-3.56.96c-.19.05-.33.2-.36.4-.03.19.05.38.2.5l3.03,2.14-2.12,3.07c-.11.16-.12.37-.02.54.1.17.28.27.48.25l3.66-.33.31,3.73c.02.19.14.36.33.43.18.07.39.02.53-.12l2.6-2.64,2.6,2.64c.1.1.23.15.36.15.06,0,.11,0,.17-.03.18-.07.31-.23.33-.43l.31-3.73,3.66.33c.2.02.38-.08.48-.25.1-.17.09-.38-.02-.54l-2.12-3.07,3.03-2.14c.16-.11.24-.31.2-.5Zm-4.21,2.11c-.22.16-.28.47-.12.69l1.8,2.6-3.1-.28c-.13-.01-.26.03-.37.12-.1.09-.17.21-.18.34l-.27,3.14-2.19-2.23c-.09-.1-.22-.15-.36-.15s-.26.05-.36.15l-2.19,2.23-.27-3.14c-.01-.13-.07-.26-.18-.34-.1-.09-.24-.13-.37-.12l-3.1.28,1.8-2.6c.16-.23.1-.53-.12-.69l-2.56-1.82,3.02-.81c.27-.07.42-.35.35-.61l-.81-3.06,2.81,1.34c.12.06.26.06.39.02.13-.05.23-.14.28-.26l1.31-2.86,1.31,2.86c.06.12.16.22.28.26.13.05.26.04.39-.02l2.81-1.34-.81,3.06c-.07.27.09.54.35.61l3.02.81-2.56,1.82Z"/></svg>