<svg xmlns="http://www.w3.org/2000/svg" viewBox="0 0 24 24" width="24" height="24"><path d="m17.5,3h-9c-.4,0-.78.16-1.06.44-.28.28-.44.66-.44,1.06v4.79l-4.85,4.85c-.14.14-.19.36-.11.54.08.19.26.31.46.31h.5v5.5c0,.28.22.5.5.5h15c.28,0,.5-.22.5-.5V4.5c0-.4-.16-.78-.44-1.06-.28-.28-.66-.44-1.06-.44ZM4,20v-6.29l3.5-3.5,3.5,3.5v6.29h-7Zm14,0h-6v-5h.5c.2,0,.38-.12.46-.31.08-.19.03-.4-.11-.54l-4.85-4.85v-4.79c0-.13.05-.26.15-.35s.22-.15.35-.15h9c.13,0,.26.05.35.15.09.09.15.22.15.35v15.5Z"/><path d="M10 6H12V8H10z"/><path d="M14 6H16V8H14z"/><path d="M14 10.03H16V12H14z"/><path d="M6.5 15H8.5V17H6.5z"/></svg>