<svg xmlns="http://www.w3.org/2000/svg" viewBox="0 0 24 24" width="24" height="24"><path d="m12,5c-4.79,0-9,3.71-9,7.93,0,3.35,4.04,6.07,9,6.07s9-2.72,9-6.07c0-4.22-4.21-7.93-9-7.93Zm0,13c-4.41,0-8-2.28-8-5.07,0-2.43,1.9-5.08,4.75-6.28-.62,1.01-1.25,2.58-1.25,5.35h1c0-3.42,1.01-4.76,1.68-5.65.05-.06.09-.12.13-.18.54-.11,1.11-.17,1.69-.17s1.18.07,1.74.18c-.97.8-2.24,2.48-2.24,5.82h1c0-3.91,1.89-5.15,2.48-5.45.77.29,1.47.68,2.09,1.16-.65.74-1.58,2.16-1.58,4.29h1c0-1.84.8-3.04,1.34-3.64,1.35,1.31,2.16,2.98,2.16,4.57,0,2.8-3.59,5.07-8,5.07Z"/></svg>