<svg xmlns="http://www.w3.org/2000/svg" width="24" height="24" viewBox="0 0 24 24"><path d="M12 21c1.31 0 2.41-.83 2.82-2H9.18c.41 1.17 1.51 2 2.82 2M19.5 17c.28 0 .5-.22.5-.5v-2a.48.48 0 0 0-.2-.4L18 12.75V10c0-2.66-1.74-4.91-4.13-5.7C13.59 3.54 12.86 3 12 3s-1.59.55-1.87 1.31c-1.2.4-2.22 1.16-2.95 2.16L3.36 2.65l-.71.71 18 18 .71-.71L17.71 17zM12 5c2.76 0 5 2.24 5 5v3c0 .16.07.31.2.4l1.8 1.35V16h-2.29L7.89 7.18C8.79 5.87 10.29 5 12 5M12.46 16H5v-1.25l1.8-1.35c.13-.09.2-.24.2-.4v-2.46l-.98-.98c-.01.15-.02.29-.02.44v2.75L4.2 14.1a.48.48 0 0 0-.2.4v2c0 .28.22.5.5.5h8.96z"/></svg>