<svg xmlns="http://www.w3.org/2000/svg" viewBox="0 0 24 24" width="24" height="24"><path d="m6.71,16.58l-1.42,1.43.71.71,1.42-1.43c1.15.99,2.57,1.58,4.08,1.69v2.02h1v-2.02c1.51-.11,2.93-.69,4.08-1.69l1.43,1.43.71-.71-1.42-1.43c.99-1.15,1.58-2.57,1.69-4.08h2.02v-1h-2.02c-.11-1.51-.69-2.93-1.69-4.08l1.42-1.42-.71-.71-1.42,1.42c-1.15-.99-2.57-1.58-4.08-1.69v-2.02h-1v2.02c-1.51.11-2.93.69-4.08,1.69l-1.42-1.42-.71.71,1.42,1.42c-.99,1.15-1.58,2.57-1.69,4.08h-2.02v1h2.02c.11,1.51.69,2.93,1.69,4.08Zm-.69-4.08h3.03c.08.45.25.87.51,1.23l-2.14,2.14c-.81-.96-1.29-2.13-1.39-3.37Zm5.98-2.5c.54,0,1.04.21,1.42.58.37.37.58.89.58,1.42s-.21,1.05-.58,1.42c-.75.75-2.08.75-2.83,0-.37-.37-.58-.89-.58-1.42s.21-1.05.58-1.42c.38-.38.88-.58,1.42-.58Zm-3.87,6.58l2.14-2.14c.37.26.79.44,1.24.51v3.02c-1.25-.1-2.42-.59-3.37-1.39Zm4.37,1.39v-3.02c.45-.07.87-.25,1.24-.51l2.14,2.14c-.96.81-2.13,1.29-3.37,1.39Zm4.08-2.1l-2.14-2.14c.26-.37.43-.79.51-1.23h3.03c-.1,1.25-.59,2.42-1.39,3.37Zm1.39-4.37h-3.02c-.07-.45-.25-.87-.51-1.24l2.14-2.14c.81.96,1.29,2.13,1.39,3.37Zm-2.1-4.08l-2.14,2.14c-.37-.25-.79-.42-1.23-.49v-3.05c1.24.1,2.41.59,3.37,1.39Zm-4.37-1.39v3.05c-.44.07-.86.23-1.23.49l-2.14-2.14c.96-.81,2.13-1.29,3.37-1.39Zm-4.08,2.1l2.14,2.14c-.26.37-.43.79-.51,1.24h-3.02c.1-1.25.59-2.42,1.39-3.37Z"/></svg>