<svg xmlns="http://www.w3.org/2000/svg" viewBox="0 0 24 24" width="24" height="24"><path d="m20.15,3.15l-4.65,4.65-2.23-2.23c-.58-.58-1.54-.58-2.12,0l-1.33,1.33-6.54,3.92c-.13.08-.22.21-.24.37-.02.15.03.31.14.42l9.23,9.23c.09.09.22.15.35.15.02,0,.04,0,.06,0,.15-.02.29-.11.37-.24l3.92-6.54,1.34-1.34c.58-.58.58-1.54,0-2.12l-2.23-2.23,4.65-4.65-.71-.71Zm-7.49,16.52L4.33,11.34l5.71-3.42,3.02,3.02,3.02,3.02-3.42,5.71Zm5.08-7.52l-1.02,1.02-5.88-5.88,1.02-1.02c.2-.2.51-.2.71,0l5.18,5.18c.2.2.2.51,0,.71Z"/></svg>