<svg xmlns="http://www.w3.org/2000/svg" viewBox="0 0 24 24" width="24" height="24"><path d="m20.73,7.56L12.23,3.06c-.15-.08-.32-.08-.47,0L3.27,7.56c-.16.09-.27.26-.27.44v2.5c0,.28.22.5.5.5h1.5v6h-1.5c-.28,0-.5.22-.5.5v3c0,.28.22.5.5.5h17c.28,0,.5-.22.5-.5v-3c0-.28-.22-.5-.5-.5h-1.5v-6h1.5c.28,0,.5-.22.5-.5v-2.5c0-.19-.1-.36-.27-.44Zm-14.73,3.44h2.25v6h-2.25v-6Zm8.75,6h-2.25v-6h2.25v6Zm-3.25,0h-2.25v-6h2.25v6Zm8.5,1v2H4v-2h16Zm-2-1h-2.25v-6h2.25v6Zm2-7H4v-1.7l8-4.24,8,4.24v1.7Z"/><path d="M12 6A1.5 1.5 0 1 0 12 9 1.5 1.5 0 1 0 12 6z"/></svg>