<svg xmlns="http://www.w3.org/2000/svg" viewBox="0 0 24 24" width="24" height="24"><path class="b" d="m20.5,11h-12.21L3.43,2.75l-.86.51,4.56,7.75h-3.63c-.28,0-.5.22-.5.5,0,3.15,1.95,6.18,5,7.8v1.2c0,.28.22.5.5.5h7c.28,0,.5-.22.5-.5v-1.2c3.05-1.63,5-4.66,5-7.8,0-.28-.22-.5-.5-.5Zm-5.22,7.55c-.17.08-.28.26-.28.45v1h-6v-1c0-.19-.11-.36-.28-.45-2.7-1.34-4.5-3.87-4.7-6.55h15.96c-.2,2.68-2,5.21-4.7,6.55Z"/><path class="b" d="M20 7A1 1 0 1 0 20 9 1 1 0 1 0 20 7z"/><path class="b" d="M8 3A1 1 0 1 0 8 5 1 1 0 1 0 8 3z"/><path class="b" d="M17.5 3A1.5 1.5 0 1 0 17.5 6 1.5 1.5 0 1 0 17.5 3z"/><path class="b" d="M12 5A2 2 0 1 0 12 9 2 2 0 1 0 12 5z"/></svg>