<svg xmlns="http://www.w3.org/2000/svg" width="24" height="24" viewBox="0 0 24 24"><path d="M19.45 4.55a5.287 5.287 0 0 0-7.47 0l-7.44 7.44a5.287 5.287 0 0 0 0 7.47C5.57 20.49 6.92 21 8.27 21s2.71-.51 3.73-1.54l7.44-7.44a5.287 5.287 0 0 0 0-7.47ZM5.82 12.12l6.29-6.29 6.05 6.05-6.29 6.29zm-.57 6.63c-1.62-1.62-1.65-4.23-.12-5.91l6.03 6.03a4.29 4.29 0 0 1-5.91-.12m13.61-7.59-6.03-6.03a4.29 4.29 0 0 1 5.91.12c1.62 1.62 1.65 4.23.12 5.91"/><path d="M9 11a1 1 0 1 0 0 2 1 1 0 1 0 0-2M15 11a1 1 0 1 0 0 2 1 1 0 1 0 0-2M12 14a1 1 0 1 0 0 2 1 1 0 1 0 0-2M12 8a1 1 0 1 0 0 2 1 1 0 1 0 0-2"/></svg>