<svg xmlns="http://www.w3.org/2000/svg" viewBox="0 0 24 24" width="24" height="24"><path d="m20.98,9.5c.04-.17,0-.35-.13-.48-.12-.12-.3-.18-.48-.13-2.15.55-4.09,1.65-5.62,3.16.06-.49.1-.99.1-1.5,0-2.57-.85-5.12-2.45-7.35-.09-.13-.25-.21-.41-.21s-.31.08-.41.21c-1.95,2.72-2.74,5.81-2.34,8.86-1.53-1.52-3.47-2.63-5.63-3.18-.17-.05-.35,0-.48.13-.12.12-.17.31-.13.48.56,2.16,1.66,4.11,3.2,5.64.4.4.82.76,1.25,1.09-1.17.15-2.31.64-3.34,1.46-.12.09-.19.24-.19.39s.07.3.19.39c1.25.99,2.66,1.52,4.09,1.52,1.13,0,2.24-.34,3.28-.97v1.97h1v-1.97c1.04.63,2.15.97,3.28.97,1.43,0,2.84-.53,4.09-1.52.12-.09.19-.24.19-.39s-.07-.3-.19-.39c-1.03-.82-2.17-1.31-3.34-1.46.43-.33.85-.69,1.25-1.09,1.54-1.53,2.65-3.48,3.2-5.64Zm-8.98-5.11c1.22,1.91,1.86,4.03,1.86,6.17,0,1.09-.16,2.16-.48,3.18-.08.28-.18.55-.28.82-.03.09-.07.18-.11.26-.08.18-.15.37-.24.55-.05.11-.11.21-.16.31-.08.16-.17.32-.26.48-.06.11-.13.22-.19.33-.04.07-.09.14-.13.21-.04-.07-.09-.14-.13-.21-.07-.11-.13-.21-.19-.32-.09-.16-.18-.32-.26-.48-.05-.11-.11-.21-.16-.32-.09-.18-.16-.36-.24-.54-.04-.09-.08-.18-.11-.27-.1-.27-.2-.55-.28-.82,0,0,0,0,0,0,0,0,0,0,0,0-.96-3.15-.47-6.45,1.38-9.34Zm-7.76,5.73c2.21.75,4.11,2.14,5.44,3.98.01.03.03.07.04.1.13.41.28.81.46,1.22.04.09.08.18.12.28.2.43.42.85.67,1.26.01.02.02.03.03.05-.05-.02-.1-.04-.16-.06-.46-.18-.91-.37-1.33-.59,0,0-.01,0-.02,0,0,0,0,0,0,0,0,0,0,0,0,0,0,0,0,0,0,0-.91-.47-1.77-1.11-2.56-1.9-1.2-1.2-2.12-2.67-2.68-4.31Zm1.05,7.97c1.2-.78,2.49-1.07,3.79-.83.32.17.66.33,1.01.48.1.04.21.08.32.12.23.09.46.18.7.26-1.84,1.17-3.98,1.17-5.82-.02Zm7.6.02c.22-.07.43-.16.64-.24.12-.05.24-.08.36-.13.34-.14.67-.3.99-.47.01,0,.03-.01.04-.02,1.29-.23,2.59.05,3.79.83-1.84,1.19-3.98,1.2-5.82.02Zm1.63-1.77s0,0,0,0c0,0-.01,0-.02.01-.42.23-.87.42-1.34.6-.05.02-.1.04-.15.05.01-.02.02-.03.03-.05.25-.41.47-.83.67-1.26.04-.09.08-.18.12-.28.17-.4.33-.81.46-1.21.01-.03.03-.07.04-.1,1.33-1.84,3.24-3.23,5.44-3.98-.56,1.64-1.48,3.12-2.68,4.32-.79.79-1.65,1.43-2.56,1.9Z"/></svg>