<svg xmlns="http://www.w3.org/2000/svg" viewBox="0 0 24 24" width="24" height="24"><path class="b" d="m19.74,7.06l-7.5-4c-.15-.08-.32-.08-.47,0l-7.5,4c-.16.09-.26.26-.26.44v9c0,.18.1.35.26.44l7.5,4c.07.04.15.06.24.06s.16-.02.24-.06l7.5-4c.16-.09.26-.26.26-.44V7.5c0-.18-.1-.35-.26-.44Zm-7.24-2.73l5.99,3.19-5.99,3.59v-6.78Zm-1,6.78l-5.99-3.59,5.99-3.19v6.78Zm-.47.88l-6.03,3.62v-7.23l6.03,3.62Zm.47.88v6.78l-5.99-3.19,5.99-3.59Zm1,0l5.99,3.59-5.99,3.19v-6.78Zm.47-.88l6.03-3.62v7.23l-6.03-3.62Z"/></svg>