<svg xmlns="http://www.w3.org/2000/svg" viewBox="0 0 24 24" width="24" height="24"><path d="m6,9c1.65,0,3-1.35,3-3s-1.35-3-3-3-3,1.35-3,3,1.35,3,3,3Zm0-5c1.1,0,2,.9,2,2s-.9,2-2,2-2-.9-2-2,.9-2,2-2Z"/><path d="m17,13.26v-5.22c.81.91,2.15,1.96,4,1.96v-1c-2.31,0-3.71-2.15-4-2.63v-1.33c.81.91,2.15,1.96,4,1.96v-1c-2.58,0-4.04-2.71-4.06-2.73-.09-.17-.25-.3-.45-.27-.19,0-.36.11-.44.27-.01.03-1.41,2.72-4.05,2.72v1c1.88,0,3.19-1.03,4-1.94v1.31c-.27.47-1.63,2.63-4,2.63v1c1.88,0,3.19-1.03,4-1.94v3.94h-8v.02c-.17,0-.35.08-.44.24l-4.5,8c-.09.16-.09.34,0,.5s.25.25.43.25h17c.18,0,.34-.09.43-.25s.09-.34,0-.5l-3.94-7Zm-12.65,6.74l3.65-6.48,3.65,6.48h-7.29Zm8.44,0l-3.94-7h6.85l3.94,7h-6.85Z"/></svg>