<svg xmlns="http://www.w3.org/2000/svg" width="24" height="24" viewBox="0 0 24 24"><path d="M12 3c-4.96 0-9 4.04-9 9s4.04 9 9 9 9-4.04 9-9-4.04-9-9-9m0 12c-1.65 0-3-1.35-3-3s1.35-3 3-3 3 1.35 3 3-1.35 3-3 3m2.44-6.15c-.55-.43-1.21-.71-1.94-.8V4.02c1.83.11 3.49.84 4.78 1.98l-2.84 2.84Zm-2.94-.8c-.73.09-1.39.37-1.94.8L6.72 6.01a7.92 7.92 0 0 1 4.78-1.98v4.03ZM8.85 9.56c-.43.55-.71 1.21-.8 1.94H4.02A7.92 7.92 0 0 1 6 6.72l2.84 2.84Zm-.8 2.94c.09.73.37 1.39.8 1.94l-2.84 2.84a7.92 7.92 0 0 1-1.98-4.78h4.03Zm1.51 2.65c.55.43 1.21.71 1.94.8v4.03A7.92 7.92 0 0 1 6.72 18l2.84-2.84Zm2.94.8c.73-.09 1.39-.37 1.94-.8l2.84 2.84a7.92 7.92 0 0 1-4.78 1.98v-4.03Zm2.65-1.51c.43-.55.71-1.21.8-1.94h4.03A7.92 7.92 0 0 1 18 17.28l-2.84-2.84Zm.8-2.94c-.09-.73-.37-1.39-.8-1.94l2.84-2.84a7.92 7.92 0 0 1 1.98 4.78h-4.03Z"/></svg>