<svg xmlns="http://www.w3.org/2000/svg" width="24" height="24" viewBox="0 0 24 24"><path d="M21 17.5v-10c0-.83-.67-1.5-1.5-1.5h-2.77l-2.35-2.82A.53.53 0 0 0 14 3h-4c-.15 0-.29.07-.38.18L7.27 6h-.56L3.36 2.65l-.71.71 18 18 .71-.71-1.67-1.67c.74-.09 1.31-.72 1.31-1.48M7.88 6.82 10.23 4h3.53l2.35 2.82c.1.11.24.18.38.18h3c.28 0 .5.22.5.5v10c0 .28-.22.5-.5.5h-.79l-3.57-3.57A3.9 3.9 0 0 0 16 12c0-2.17-1.83-4-4-4a3.9 3.9 0 0 0-2.43.87l-1.9-1.9c.08-.03.16-.07.21-.14Zm2.41 2.76C10.78 9.23 11.36 9 12 9c1.63 0 3 1.37 3 3 0 .64-.23 1.22-.58 1.71zM4.5 18c-.28 0-.5-.22-.5-.5V7.54l-.79-.79c-.13.22-.21.48-.21.75v10c0 .83.67 1.5 1.5 1.5h10.96l-1-1z"/><path d="m12.42 15.96-1.02-1.02a3.08 3.08 0 0 1-2.34-2.34l-1.02-1.02c-.02.14-.04.28-.04.42 0 2.17 1.83 4 4 4 .14 0 .28-.03.42-.04"/></svg>