<svg xmlns="http://www.w3.org/2000/svg" viewBox="0 0 24 24" width="24" height="24"><path d="m20.5,15h-1c0-1.01-.2-2-.59-2.92-.38-.89-.92-1.69-1.61-2.38-.67-.67-1.45-1.2-2.32-1.57,0-.04.01-.08.01-.12,0-1.65-1.35-3-3-3s-3,1.35-3,3c0,.04.01.08.01.12-.87.38-1.65.9-2.32,1.57-.69.69-1.23,1.49-1.61,2.38-.39.92-.59,1.91-.59,2.92h-1c-.28,0-.5.22-.5.5v3c0,.28.22.5.5.5h3c.28,0,.5-.22.5-.5v-3c0-.28-.22-.5-.5-.5h-1c0-.88.17-1.73.51-2.53.33-.77.8-1.47,1.39-2.07.53-.53,1.15-.94,1.82-1.26.45,1.09,1.52,1.86,2.77,1.86s2.32-.77,2.77-1.86c.67.32,1.29.73,1.82,1.26.6.6,1.07,1.29,1.39,2.07.34.8.51,1.65.51,2.53h-1c-.28,0-.5.22-.5.5v3c0,.28.22.5.5.5h3c.28,0,.5-.22.5-.5v-3c0-.28-.22-.5-.5-.5Zm-14.5,1v2h-2v-2h2Zm6-6c-1.1,0-2-.9-2-2s.9-2,2-2,2,.9,2,2-.9,2-2,2Zm8,8h-2v-2h2v2Z"/></svg>