<svg xmlns="http://www.w3.org/2000/svg" viewBox="0 0 24 24" width="24" height="24"><path d="m12,6c-5.13,0-9,1.72-9,4v4c0,2.21,3.62,3.88,8.5,3.99h0s1,.01,1,.01h0c4.88-.12,8.5-1.79,8.5-4v-4c0-2.28-3.87-4-9-4ZM4,14v-2.11c.6.52,1.46.97,2.5,1.32v2.93c-1.57-.58-2.5-1.38-2.5-2.13Zm8,0h-.5v2.99c-1.52-.04-2.87-.24-4-.54v-2.96c1.31.32,2.84.51,4.5.51s3.19-.18,4.5-.51v2.96c-1.13.3-2.48.5-4,.54v-2.99h-.5Zm5.5,2.13v-2.93c1.04-.35,1.9-.79,2.5-1.32v2.11c0,.75-.93,1.55-2.5,2.13Zm-5.5-3.13c-4.71,0-8-1.58-8-3s3.29-3,8-3,8,1.58,8,3-3.29,3-8,3Z"/></svg>