<svg xmlns="http://www.w3.org/2000/svg" width="24" height="24" viewBox="0 0 24 24"><path d="M19.5 17h-1.28c.64-1.81 2.04-6.72-.13-10-1.31-1.97-3.65-2.98-6.98-3l-1.9-.95a.516.516 0 0 0-.64.16l-5.48 8.01a.5.5 0 0 0 .06.64l2 2c.18.18.47.2.67.04l2.36-1.89H10l-3.75 5H4.5c-.83 0-1.5.67-1.5 1.5v1c0 .83.67 1.5 1.5 1.5h15c.83 0 1.5-.67 1.5-1.5v-1c0-.83-.67-1.5-1.5-1.5Zm.5 2.5c0 .28-.22.5-.5.5h-15c-.28 0-.5-.22-.5-.5v-1c0-.28.22-.5.5-.5h2c.16 0 .31-.07.4-.2l4.5-6c.11-.15.13-.35.05-.52A.5.5 0 0 0 11 11H8a.5.5 0 0 0-.31.11l-2.15 1.72-1.39-1.39 5.02-7.3 1.61.81c.07.03.15.05.22.05 3.03 0 5.14.86 6.26 2.55 2.35 3.55-.19 9.69-.22 9.75a.493.493 0 0 0 .46.69h2c.28 0 .5.22.5.5v1Z"/><path d="M9.5 7c-.55 0-1 .45-1 1s.45 1 1 1 1-.45 1-1-.45-1-1-1m0 1h.5z"/></svg>