<svg xmlns="http://www.w3.org/2000/svg" width="24" height="24" viewBox="0 0 24 24"><path d="M19.5 17h-.42c.8-1.05 1.97-2.97 1.92-5.15C20.93 9.17 18.69 7 16 7h-.02c-1.33 0-2.56.54-3.47 1.43V6h2.5V5h-2.5V3h-1v2h-2.5v1h2.5v2.43C10.6 7.53 9.37 7 8.04 7 5.3 7 3.08 9.16 3.02 11.85c-.06 2.18 1.11 4.1 1.92 5.15h-.42c-.83 0-1.5.67-1.5 1.5v1c0 .83.67 1.5 1.5 1.5h15c.83 0 1.5-.67 1.5-1.5v-1c0-.83-.67-1.5-1.5-1.5Zm.5 2.5c0 .28-.22.5-.5.5h-15c-.28 0-.5-.22-.5-.5v-1c0-.28.22-.5.5-.5H6a.499.499 0 0 0 .35-.85c-.02-.02-2.42-2.46-2.35-5.27C4.05 9.78 5.88 8 8 8h.02c1.5 0 2.86.84 3.53 2.17.17.33.72.33.89 0A3.97 3.97 0 0 1 15.97 8h.02c2.12 0 3.95 1.77 4 3.88.07 2.8-2.33 5.25-2.35 5.27-.14.14-.19.36-.11.54s.26.31.46.31h1.5c.28 0 .5.22.5.5v1Z"/></svg>