<svg xmlns="http://www.w3.org/2000/svg" viewBox="0 0 24 24" width="24" height="24"><path d="M13 6 13 9 10 9 10 10 13 10 13 13 14 13 14 10 17 10 17 9 14 9 14 6 13 6z"/><path d="M10.5 18A1.5 1.5 0 1 0 10.5 21 1.5 1.5 0 1 0 10.5 18z"/><path d="M16.5 18A1.5 1.5 0 1 0 16.5 21 1.5 1.5 0 1 0 16.5 18z"/><path d="m17.27,14.68c-.07.19-.26.32-.47.32h-6.61c-.21,0-.4-.13-.47-.32L5.47,3.32c-.07-.19-.26-.32-.47-.32h-2v1h1.65l4.14,11.03c.22.58.78.97,1.4.97h6.61c.62,0,1.19-.39,1.4-.97l2.76-7.35-.94-.35-2.76,7.35Z"/></svg>