<svg xmlns="http://www.w3.org/2000/svg" width="24" height="24" viewBox="0 0 24 24"><path d="M7 10.5v3c0 .83.67 1.5 1.5 1.5H11v-1H8.5c-.28 0-.5-.22-.5-.5v-3c0-.28.22-.5.5-.5H11V9H8.5C7.67 9 7 9.67 7 10.5M13 10.5v3c0 .83.67 1.5 1.5 1.5H17v-1h-2.5c-.28 0-.5-.22-.5-.5v-3c0-.28.22-.5.5-.5H17V9h-2.5c-.83 0-1.5.67-1.5 1.5"/><path d="M19.5 5h-15C3.67 5 3 5.67 3 6.5v11c0 .83.67 1.5 1.5 1.5h15c.83 0 1.5-.67 1.5-1.5v-11c0-.83-.67-1.5-1.5-1.5m.5 12.5c0 .28-.22.5-.5.5h-15c-.28 0-.5-.22-.5-.5v-11c0-.28.22-.5.5-.5h15c.28 0 .5.22.5.5z"/></svg>