<svg xmlns="http://www.w3.org/2000/svg" viewBox="0 0 24 24" width="24" height="24"><path d="m16.41,10.5h3.59v-1h-3.59c-.13,0-.26-.05-.35-.15l-3-3c-.58-.58-1.54-.58-2.12,0l-2.59,2.59c-.58.58-.58,1.54,0,2.12l3,3c.09.09.15.22.15.35v4.59h1v-4.59c0-.4-.16-.78-.44-1.06l-2.35-2.35,3.29-3.29,2.35,2.35c.28.28.66.44,1.06.44Z"/><path d="M15.5 3A1.5 1.5 0 1 0 15.5 6 1.5 1.5 0 1 0 15.5 3z"/><path d="m18,13c-2.21,0-4,1.79-4,4s1.79,4,4,4,4-1.79,4-4-1.79-4-4-4Zm0,7c-1.65,0-3-1.35-3-3s1.35-3,3-3,3,1.35,3,3-1.35,3-3,3Z"/><path d="m10,17c0-2.21-1.79-4-4-4s-4,1.79-4,4,1.79,4,4,4,4-1.79,4-4Zm-7,0c0-1.65,1.35-3,3-3s3,1.35,3,3-1.35,3-3,3-3-1.35-3-3Z"/></svg>