<svg xmlns="http://www.w3.org/2000/svg" width="24" height="24" viewBox="0 0 24 24"><path d="M19.5 6h-2.77l-2.35-2.82A.53.53 0 0 0 14 3h-4c-.15 0-.29.07-.38.18L7.27 6H4.5C3.67 6 3 6.67 3 7.5v10c0 .83.67 1.5 1.5 1.5h15c.83 0 1.5-.67 1.5-1.5v-10c0-.83-.67-1.5-1.5-1.5m.5 11.5c0 .28-.22.5-.5.5h-15c-.28 0-.5-.22-.5-.5v-10c0-.28.22-.5.5-.5h3c.15 0 .29-.07.38-.18L10.23 4h3.53l2.35 2.82c.1.11.24.18.38.18h3c.28 0 .5.22.5.5v10Z"/><path d="M12 7a2 2 0 1 0 0 4 2 2 0 1 0 0-4M13 12h-2c-1.66 0-3 1.34-3 3v1h8v-1c0-1.66-1.34-3-3-3"/></svg>