<svg xmlns="http://www.w3.org/2000/svg" width="24" height="24" viewBox="0 0 24 24"><path d="M6 8.08V9h1v-.92c0-.94-.42-1.82-1.17-2.48C5.29 5.13 5 4.52 5 3.87V3H4v.87c0 .94.42 1.82 1.17 2.48.54.47.83 1.08.83 1.73M10 8.08V9h1v-.92c0-.94-.42-1.82-1.17-2.48C9.29 5.13 9 4.52 9 3.87V3H8v.87c0 .94.42 1.82 1.17 2.48.54.47.83 1.08.83 1.73M14 8.08V9h1v-.92c0-.94-.42-1.82-1.17-2.48-.54-.47-.83-1.08-.83-1.73V3h-1v.87c0 .94.42 1.82 1.17 2.48.54.47.83 1.08.83 1.73M6.5 21h8a2.5 2.5 0 0 0 2.5-2.5V18h1.5c.83 0 1.5-.67 1.5-1.5v-3c0-.83-.67-1.5-1.5-1.5H17v-1.5c0-.28-.22-.5-.5-.5h-12c-.28 0-.5.22-.5.5v8A2.5 2.5 0 0 0 6.5 21m12-8c.28 0 .5.22.5.5v3c0 .28-.22.5-.5.5H17v-4zM5 11h11v7.5c0 .83-.67 1.5-1.5 1.5h-8c-.83 0-1.5-.67-1.5-1.5z"/></svg>