<svg xmlns="http://www.w3.org/2000/svg" viewBox="0 0 24 24" width="24" height="24"><path d="m18.75,8.65c-.18-3.15-2.74-5.65-5.86-5.65-2.19,0-4.2,1.26-5.2,3.23-.13-.01-.26-.02-.39-.02-2.37,0-4.3,1.97-4.3,4.4s1.93,4.4,4.3,4.4h10.51c1.76,0,3.18-1.46,3.18-3.25,0-1.44-.92-2.69-2.25-3.1Zm-.94,5.35H7.3c-1.82,0-3.3-1.52-3.3-3.4s1.48-3.4,3.3-3.4c.2,0,.4.03.59.06l.39.07.16-.37c.78-1.81,2.53-2.98,4.45-2.98,2.68,0,4.87,2.24,4.87,4.98v.48s.41.07.41.07c1.06.18,1.82,1.11,1.82,2.21,0,1.24-.98,2.25-2.18,2.25Z"/><path d="M7.83 16 7 19.43 8.67 19.43 8.67 22 12 17.72 10.33 17.72 11.17 16 7.83 16z"/><path d="M14.5 16 13.67 18.57 14.92 18.57 14.92 20.29 17 17.71 15.75 17.71 16.58 16 14.5 16z"/></svg>