<svg xmlns="http://www.w3.org/2000/svg" viewBox="0 0 24 24" width="24" height="24"><path d="m20.5,7h-2.5v-2.5c0-.83-.67-1.5-1.5-1.5H7.5c-.83,0-1.5.67-1.5,1.5v6.5h-2.5c-.83,0-1.5.67-1.5,1.5v8c0,.28.22.5.5.5h19c.28,0,.5-.22.5-.5v-12c0-.83-.67-1.5-1.5-1.5Zm.5,13H3v-7.5c0-.28.22-.5.5-.5h3c.28,0,.5-.22.5-.5v-7c0-.28.22-.5.5-.5h9c.28,0,.5.22.5.5v3c0,.28.22.5.5.5h3c.28,0,.5.22.5.5v11.5Z"/><path d="M9 10H11V12H9z"/><path d="M9 14H11V16H9z"/><path d="M9 6H11V8H9z"/><path d="M5 14H7V16H5z"/><path d="M17 14H19V16H17z"/><path d="M17 10H19V12H17z"/><path d="M13 14H15V16H13z"/><path d="M13 6H15V8H13z"/><path d="M13 10H15V12H13z"/></svg>