<svg xmlns="http://www.w3.org/2000/svg" viewBox="0 0 24 24" width="24" height="24"><path d="m14.4,4.2c-.15-.19-.41-.25-.63-.14l-1.93,1.01c-.39-1.2-1.52-2.06-2.84-2.06-1.65,0-3,1.35-3,3,0,.67.22,1.3.61,1.81l-3.34,1.75c-.17.09-.27.26-.27.44v7.5c0,.24.17.45.41.49l17,3s.06,0,.09,0c.12,0,.23-.04.32-.12.11-.09.18-.23.18-.38v-7.5c0-.11-.04-.22-.1-.3l-6.5-8.5Zm-.54.94l5.84,7.64-15.49-2.58,3.18-1.67s.06.03.09.05c.05.03.1.06.15.08.09.05.18.09.28.13.05.02.11.04.16.06.1.03.21.06.31.08.05.01.1.02.15.03.16.03.31.04.47.04.2,0,.4-.02.6-.06.07-.01.13-.04.19-.06.12-.03.25-.06.36-.11.07-.03.14-.07.21-.11.1-.05.2-.1.3-.16.07-.05.13-.1.2-.16.08-.07.17-.13.25-.2.06-.06.11-.13.17-.2.07-.08.14-.15.2-.24.05-.07.09-.15.13-.23.05-.09.11-.18.15-.27.04-.08.06-.17.09-.25.03-.1.07-.2.09-.3.02-.09.03-.18.04-.27.01-.09.03-.17.04-.27l1.86-.97Zm-4.86-1.14c1.04,0,1.92.81,2,1.89,0,.03,0,.08,0,.11,0,1.1-.9,2-2,2-.45,0-.9-.16-1.26-.45-.47-.37-.74-.93-.74-1.55,0-1.1.9-2,2-2Zm-5,13.08v-5.91l16,2.67v2.57l-13.92-2.4-.17.99,14.08,2.43v2.48l-16-2.82Z"/></svg>