<svg xmlns="http://www.w3.org/2000/svg" viewBox="0 0 24 24" width="24" height="24"><path d="M15.62 7.499999999999999A.62.62 0 1 0 15.62 8.739999999999998.62.62 0 1 0 15.62 7.499999999999999z"/><path d="M18.38 7.499999999999999A.62.62 0 1 0 18.38 8.739999999999998.62.62 0 1 0 18.38 7.499999999999999z"/><path d="m19,5h-4l-2-2v2s0,0,0,0v4c0,.35.06.68.14,1h-7.56c-.87,0-1.58-.76-1.58-1.69s.71-1.69,1.58-1.69c1.18,0,3.42-.65,3.42-3.12v-.5h-1v.5c0,2.05-2.17,2.12-2.42,2.12-1.42,0-2.58,1.21-2.58,2.69,0,1.3.89,2.38,2.06,2.63l1.44,9.63c.04.24.25.43.49.43h2.5c.28,0,.5-.22.5-.5v-3.5h5v3.5c0,.28.22.5.5.5h2.5c.25,0,.47-.19.5-.44l.99-8.45c.91-.73,1.51-1.85,1.51-3.1v-4h0v-2s0,0-1.99,2Zm-1.44,15h-1.56v-3.5c0-.28-.22-.5-.5-.5h-6c-.28,0-.5.22-.5.5v3.5h-1.57l-1.35-9h7.48c.69,1.19,1.97,2,3.44,2,.5,0,.97-.1,1.41-.27l-.86,7.27Zm2.44-11c0,1.65-1.35,3-3,3s-3-1.35-3-3v-3h6v3Z"/></svg>