<svg xmlns="http://www.w3.org/2000/svg" viewBox="0 0 24 24" width="24" height="24"><path d="m18.5,4H5.5c-.83,0-1.5.67-1.5,1.5v13c0,.83.67,1.5,1.5,1.5h13c.83,0,1.5-.67,1.5-1.5V5.5c0-.83-.67-1.5-1.5-1.5Zm-10,7c-.83,0-1.5.67-1.5,1.5s.67,1.5,1.5,1.5c.07,0,.15-.01.22-.02l1.87,2.8c.09.14.25.22.42.22h8v1.5c0,.28-.22.5-.5.5H5.5c-.28,0-.5-.22-.5-.5v-10.5h7.73l1.66,2.49c-.24.27-.4.62-.4,1.01,0,.83.67,1.5,1.5,1.5s1.5-.67,1.5-1.5-.67-1.5-1.5-1.5c-.07,0-.15.01-.22.02l-1.87-2.8c-.09-.14-.25-.22-.42-.22H5v-1.5c0-.28.22-.5.5-.5h13c.28,0,.5.22.5.5v10.5h-7.73l-1.66-2.49c.24-.27.4-.62.4-1.01,0-.83-.67-1.5-1.5-1.5Z"/></svg>