<svg xmlns="http://www.w3.org/2000/svg" width="24" height="24" viewBox="0 0 24 24"><path d="M19.5 17h-2.06l-.88-7c.8-.04 1.43-.69 1.43-1.5v-5c0-.28-.22-.5-.5-.5H6.5c-.28 0-.5.22-.5.5v5c0 .8.64 1.46 1.43 1.5l-.88 7H4.49c-.83 0-1.5.67-1.5 1.5v1c0 .83.67 1.5 1.5 1.5h15c.83 0 1.5-.67 1.5-1.5v-1c0-.83-.67-1.5-1.5-1.5Zm.5 2.5c0 .28-.22.5-.5.5h-15c-.28 0-.5-.22-.5-.5v-1c0-.28.22-.5.5-.5H7c.25 0 .46-.19.5-.44l1-8A.497.497 0 0 0 8 9h-.5c-.28 0-.5-.22-.5-.5V4h2v1.5c0 .28.22.5.5.5h1c.28 0 .5-.22.5-.5V4h2v1.5c0 .28.22.5.5.5h1c.28 0 .5-.22.5-.5V4h2v4.5c0 .28-.22.5-.5.5H16c-.14 0-.28.06-.38.17-.09.11-.14.25-.12.39l1 8c.03.25.24.44.5.44h2.5c.28 0 .5.22.5.5z"/></svg>