<svg xmlns="http://www.w3.org/2000/svg" viewBox="0 0 24 24" width="24" height="24"><path d="m20.74,12.36l-3.99-2.16v-5.15c0-.18-.1-.35-.26-.44l-4.25-2.3c-.15-.08-.33-.08-.48,0l-4.25,2.3c-.16.09-.26.26-.26.44v5.15l-3.99,2.16c-.16.09-.26.26-.26.44v5.4c0,.18.1.35.26.44l4.25,2.3c.07.04.16.06.24.06s.16-.02.24-.06l4.01-2.17,4.01,2.17c.07.04.16.06.24.06s.16-.02.24-.06l4.25-2.3c.16-.09.26-.26.26-.44v-5.4c0-.18-.1-.35-.26-.44Zm-4.49,2.37l-3.38-1.83,3.38-1.83,3.38,1.83-3.38,1.83Zm-4.75-6.78v3.96l-3.25-1.76v-3.96l3.25,1.76Zm4.25,2.2l-3.25,1.76v-3.96l3.25-1.76v3.96Zm-8,.92l3.38,1.83-3.38,1.83-3.38-1.83,3.38-1.83Zm.5,4.53l3.25-1.76v4.06l-3.25,1.76v-4.06Zm3.75-12.28l3.48,1.88-3.48,1.88-3.48-1.88,3.48-1.88ZM4,13.84l3.25,1.76v4.06l-3.25-1.76v-4.06Zm8.5,0l3.25,1.76v4.06l-3.25-1.76v-4.06Zm4.25,5.82v-4.06l3.25-1.76v4.06l-3.25,1.76Z"/></svg>