<svg xmlns="http://www.w3.org/2000/svg" viewBox="0 0 24 24" width="24" height="24"><path d="m16.5,6.5s-.09,0-.13,0c-.46-2.03-2.25-3.5-4.37-3.5s-3.91,1.47-4.37,3.5c-.04,0-.09,0-.13,0-2.48,0-4.5,2.02-4.5,4.5,0,1.91,1.22,3.6,3,4.23v3.27c0,.28.22.5.5.5h11c.28,0,.5-.22.5-.5v-3.27c1.78-.63,3-2.32,3-4.23,0-2.48-2.02-4.5-4.5-4.5Zm.87,7.87c-.22.06-.37.26-.37.48v3.14H7v-3.14c0-.23-.15-.43-.37-.48-1.55-.4-2.63-1.79-2.63-3.37,0-1.93,1.57-3.5,3.5-3.5.13,0,.26.02.48.05.13.02.27-.02.37-.1.11-.08.17-.21.19-.34.2-1.77,1.69-3.11,3.46-3.11s3.26,1.34,3.46,3.11c.02.13.13.25.23.33.11.08.29.12.42.09.13-.02.26-.04.39-.04,1.93,0,3.5,1.57,3.5,3.5,0,1.59-1.08,2.97-2.63,3.37Z"/><path d="M6 20H18V21H6z"/></svg>