<svg xmlns="http://www.w3.org/2000/svg" viewBox="0 0 24 24" width="24" height="24"><path class="b" d="m9.5,3h-5c-.83,0-1.5.67-1.5,1.5v5c0,.83.67,1.5,1.5,1.5h5c.83,0,1.5-.67,1.5-1.5v-5c0-.83-.67-1.5-1.5-1.5Zm.5,6.5c0,.28-.22.5-.5.5h-5c-.28,0-.5-.22-.5-.5v-5c0-.28.22-.5.5-.5h5c.28,0,.5.22.5.5v5Z"/><path class="b" d="m17,13c-2.21,0-4,1.79-4,4s1.79,4,4,4,4-1.79,4-4-1.79-4-4-4Zm0,7c-1.65,0-3-1.35-3-3s1.35-3,3-3,3,1.35,3,3-1.35,3-3,3Z"/><path class="b" d="m19.5,5h-2.5v-2l-3,2.5,3,2.5v-2h2.5c.28,0,.5.22.5.5v4.5h1v-4.5c0-.83-.67-1.5-1.5-1.5Z"/><path class="b" d="m7,18h-2.5c-.28,0-.5-.22-.5-.5v-4.5h-1v4.5c0,.83.67,1.5,1.5,1.5h2.5v2l3-2.5-3-2.5v2Z"/></svg>