<svg xmlns="http://www.w3.org/2000/svg" viewBox="0 0 24 24" width="24" height="24"><path d="m5.64,5.64c-1.7,1.7-2.64,3.96-2.64,6.36s.94,4.66,2.64,6.36c1.75,1.75,4.06,2.63,6.36,2.63s4.61-.88,6.36-2.63c1.7-1.7,2.64-3.96,2.64-6.36s-.94-4.66-2.64-6.36c-3.51-3.51-9.22-3.51-12.73,0Zm11.65.37l-5.29,5.29-5.29-5.29c1.46-1.29,3.32-2.01,5.29-2.01s3.82.71,5.29,2.01Zm-13.29,5.99c0-1.97.71-3.82,2.01-5.29l5.29,5.29-5.29,5.29c-1.29-1.46-2.01-3.32-2.01-5.29Zm2.71,5.99l5.29-5.29,5.29,5.29c-1.46,1.29-3.32,2.01-5.29,2.01s-3.82-.71-5.29-2.01Zm11.28-.71l-5.29-5.29,5.29-5.29c1.29,1.46,2.01,3.32,2.01,5.29s-.71,3.82-2.01,5.29Z"/></svg>