<svg xmlns="http://www.w3.org/2000/svg" viewBox="0 0 24 24" width="24" height="24"><path d="m12.99,4.04s0-.02,0-.04c0-.55-.45-1-1-1s-1,.45-1,1c0,.01,0,.02,0,.04-1.93.21-3.72,1.02-5.16,2.37-1.81,1.7-2.85,4.09-2.85,6.57v1.83c0,.63.39,1.17.94,1.39v2.61c0,.73.34,1.39.93,1.81.38.27.83.42,1.28.42.24,0,.49-.04.73-.12,3.2-1.09,7.04-1.09,10.24,0,.69.23,1.42.13,2.01-.29.59-.42.93-1.08.93-1.81v-2.61c.55-.22.94-.76.94-1.39v-1.54c0-4.76-3.49-8.72-8.01-9.23Zm2.29,9.68c-.96-.18-2.06-.3-3.28-.3s-2.32.12-3.28.3v-.75c0-4.63,1.67-7.88,3.2-7.99.03,0,.05.02.08.02s.05-.01.08-.02c1.53.11,3.2,3.36,3.2,7.99v.75Zm-10.93,1.55c-.2-.06-.35-.25-.35-.47v-1.83c0-2.24.9-4.31,2.53-5.84.93-.87,2.03-1.48,3.21-1.83-1.22,1.57-2.02,4.38-2.02,7.67v.97c-1.77.45-2.94,1.07-3.37,1.33Zm14.7,3.53c0,.4-.19.76-.51,1-.32.23-.73.29-1.1.16-3.41-1.16-7.47-1.16-10.89,0-.38.13-.78.07-1.1-.16-.32-.23-.51-.59-.51-1v-2.71c.74-.42,3.29-1.67,7.06-1.67s6.31,1.26,7.06,1.67v2.71Zm.94-4c0,.22-.15.41-.35.47-.43-.25-1.6-.87-3.37-1.33v-.97c0-3.28-.8-6.09-2.01-7.66,3.32,1.01,5.73,4.21,5.73,7.95v1.54Z"/></svg>