<svg xmlns="http://www.w3.org/2000/svg" width="24" height="24" viewBox="0 0 24 24"><path d="M20.35 10.68c.06-.05.13-.09.18-.15.23-.23.43-.48.61-.74.18-.27.34-.55.46-.85.13-.3.23-.62.29-.94.02-.12.03-.24.04-.37v-.14a.45.45 0 0 0-.13-.4.48.48 0 0 0-.4-.14l-.16.02c-.08.01-.16.02-.24.02-2.21 0-4-1.79-4-4 0-.08.01-.16.02-.24l.02-.16c.02-.15-.04-.3-.14-.41a.48.48 0 0 0-.4-.14h-.14c-.12.02-.25.03-.36.05-.32.07-.63.16-.94.29-.3.13-.58.28-.85.46s-.52.39-.74.61c-.23.23-.43.48-.61.74-.18.27-.34.55-.46.85-.13.3-.23.62-.29.94 0 .04 0 .07-.01.11-.36-.06-.72-.1-1.09-.1-3.45 0-6.27 2.7-6.48 6.15a3.486 3.486 0 0 0-2.52 3.35c0 1.93 1.57 3.5 3.5 3.5h11.75c2.62 0 4.75-2.13 4.75-4.75 0-1.43-.65-2.69-1.65-3.57Zm-7.27-4.49a3.8 3.8 0 0 1 .6-1.43c.14-.21.31-.41.49-.59s.38-.34.59-.49A4 4 0 0 1 16 3.12c.07 2.66 2.22 4.81 4.87 4.87-.05.19-.11.38-.19.56a3.935 3.935 0 0 1-.86 1.27c-.1.1-.21.18-.32.27-.67-.37-1.43-.6-2.25-.6-.15 0-.31 0-.47.03a6.53 6.53 0 0 0-3.71-3.18c0-.05 0-.11.02-.16ZM17.25 18H5.5A2.5 2.5 0 0 1 3 15.5a2.5 2.5 0 0 1 2.09-2.46l.41-.12v-.42C5.5 9.47 7.97 7 11 7c2.17 0 4.15 1.29 5.03 3.28l.16.36.39-.07c.26-.05.48-.07.67-.07 2.07 0 3.75 1.68 3.75 3.75S19.32 18 17.25 18"/></svg>