<svg xmlns="http://www.w3.org/2000/svg" viewBox="0 0 24 24" width="24" height="24"><path d="m20.5,16H3.5c-.28,0-.5.22-.5.5v3c0,.28.22.5.5.5h17c.28,0,.5-.22.5-.5v-3c0-.28-.22-.5-.5-.5Zm-16.5,3v-2h13v2H4Zm16,0h-2v-2h2v2Z"/><path d="m18.26,8.32c-.89-.53-1.77-.72-2.29-.78-.07-.53-.3-1.4-1.02-2.16-.88-.91-2.21-1.38-3.94-1.38v1c1.45,0,2.53.36,3.21,1.06.81.84.79,1.91.79,1.92,0,.14.04.27.14.37s.22.15.36.15c.18,0,4.5.09,4.5,5.5h1c0-3.33-1.49-4.93-2.74-5.68Z"/><path d="m10.3,12.39c1.37.89,3.15.95,4.9.18.38-.17.78-.13,1.12.09.43.28.68.78.68,1.33h1c0-.9-.42-1.71-1.13-2.17-.63-.41-1.39-.47-2.08-.17-1.43.64-2.87.6-3.95-.1-1.19-.77-1.84-2.31-1.84-4.33v-3.23h-1v3.23c0,2.37.82,4.2,2.3,5.16Z"/></svg>