<svg xmlns="http://www.w3.org/2000/svg" width="24" height="24" viewBox="0 0 24 24"><path d="M13.55 8.32c-.99-.43-2.1-.43-3.09 0-.47.21-.9.5-1.27.86s-.66.8-.86 1.27l.92.4c.15-.36.37-.68.65-.96s.6-.5.96-.65c.74-.32 1.56-.32 2.3 0 .36.15.68.37.96.65L13.01 11h3V8l-1.18 1.18c-.37-.37-.8-.66-1.27-.86ZM14.11 14.11c-.28.28-.6.5-.96.65-.74.32-1.56.32-2.3 0-.36-.15-.68-.37-.96-.65L11 13H8v3l1.18-1.18c.37.37.8.66 1.27.86a3.9 3.9 0 0 0 3.1 0c.47-.21.9-.5 1.27-.86s.66-.8.86-1.27l-.92-.4c-.15.36-.37.68-.65.96"/><path d="M19.5 6h-2.77l-2.35-2.82A.53.53 0 0 0 14 3h-4c-.15 0-.29.07-.38.18L7.27 6H4.5C3.67 6 3 6.67 3 7.5v10c0 .83.67 1.5 1.5 1.5h15c.83 0 1.5-.67 1.5-1.5v-10c0-.83-.67-1.5-1.5-1.5m.5 11.5c0 .28-.22.5-.5.5h-15c-.28 0-.5-.22-.5-.5v-10c0-.28.22-.5.5-.5h3c.15 0 .29-.07.38-.18L10.23 4h3.53l2.35 2.82c.1.11.24.18.38.18h3c.28 0 .5.22.5.5v10Z"/></svg>