<svg xmlns="http://www.w3.org/2000/svg" viewBox="0 0 24 24" width="24" height="24"><path d="m20.5,7h-1.79l-1.85-1.85c-.09-.09-.22-.15-.35-.15h-1.92c-1.05-2-2.58-2-2.58-2v2.44s0,.04,0,.06v4.5h-6c-1.92,0-2-1.79-2-2v-.5h-1v.5c0,.87.46,2.38,2,2.85v9.65c0,.28.22.5.5.5h3c.28,0,.5-.22.5-.5v-3.5h3v3.5c0,.28.22.5.5.5h3c.28,0,.5-.22.5-.5v-7.14c1.82-.61,3.5-1.65,4.85-3.01.09-.09.15-.22.15-.35v-2.5c0-.28-.22-.5-.5-.5Zm-7.5,13v-3.5c0-.28-.22-.5-.5-.5h-4c-.28,0-.5.22-.5.5v3.5h-2v-9h6.16c.39,1.28,1.48,2.25,2.84,2.45v6.55h-2Zm7-10.21c-1.23,1.18-2.72,2.09-4.34,2.63l-.22.07c-1.35-.03-2.44-1.14-2.44-2.49v-4h3.29l1.85,1.85c.09.09.22.15.35.15h1.5v1.79Z"/><path d="M16 7.25A.75.75 0 1 0 16 8.75.75.75 0 1 0 16 7.25z"/></svg>