<svg xmlns="http://www.w3.org/2000/svg" width="24" height="24" viewBox="0 0 24 24"><path d="M20.35 5.95 7.79 2.59c-.8-.21-1.62.26-1.84 1.06L2.59 16.21c-.21.8.26 1.62 1.06 1.84l12.56 3.36a1.504 1.504 0 0 0 1.84-1.06l3.36-12.56c.21-.8-.26-1.62-1.06-1.84m.09 1.58-3.36 12.56c-.07.27-.34.43-.61.35L3.91 17.08a.49.49 0 0 1-.35-.61L6.92 3.91c.07-.27.35-.43.61-.35l12.56 3.36c.27.07.43.35.35.61"/><path d="M9.97 9.9c-.8-.21-1.62.26-1.84 1.06-.21.8.26 1.62 1.06 1.84.8.21 1.62-.26 1.84-1.06.21-.8-.26-1.62-1.06-1.84M14.8 11.2c-.8-.21-1.62.26-1.84 1.06-.21.8.26 1.62 1.06 1.84.8.21 1.62-.26 1.84-1.06.21-.8-.26-1.62-1.06-1.84"/></svg>