<svg xmlns="http://www.w3.org/2000/svg" width="24" height="24" viewBox="0 0 24 24"><path d="m15.35 6.65-3-3c-.2-.2-.51-.2-.71 0l-3 3c-.2.2-.2.51 0 .71l3 3a.485.485 0 0 0 .7 0l3-3c.2-.2.2-.51 0-.71ZM12 9.3 9.71 7.01 12 4.72l2.29 2.29zM11.65 13.65l-3 3c-.2.2-.2.51 0 .71l3 3a.485.485 0 0 0 .7 0l3-3c.2-.2.2-.51 0-.71l-3-3c-.2-.2-.51-.2-.71 0ZM14.3 17l-2.29 2.29L9.72 17l2.29-2.29zM7 15.5c.13 0 .26-.05.35-.15l3-3c.2-.2.2-.51 0-.71l-3-3c-.2-.2-.51-.2-.71 0l-3 3c-.2.2-.2.51 0 .71l3 3c.1.1.23.15.35.15Zm0-5.79L9.29 12 7 14.29 4.71 12zM17.35 8.65c-.2-.2-.51-.2-.71 0l-3 3c-.2.2-.2.51 0 .71l3 3a.485.485 0 0 0 .7 0l3-3c.2-.2.2-.51 0-.71l-3-3ZM17 14.3l-2.29-2.29L17 9.72l2.29 2.29z"/></svg>