<svg xmlns="http://www.w3.org/2000/svg" viewBox="0 0 24 24" width="24" height="24"><path d="m12,9c-3.31,0-6,2.69-6,6s2.69,6,6,6,6-2.69,6-6-2.69-6-6-6Zm0,11c-2.76,0-5-2.24-5-5s2.24-5,5-5,5,2.24,5,5-2.24,5-5,5Z"/><path d="m12,14.68c-1.14,0-1.29-.39-1.29-.81,0-.39.41-.81,1.29-.81s.97.68.97.81h.32s.32,0,.32,0c0-.46-.29-1.28-1.29-1.42v-.68h-.65v.67c-1.1.11-1.62.79-1.62,1.43s.34,1.46,1.94,1.46c1.29,0,1.29.57,1.29.81,0,.4-.44.81-1.29.81-1.24,0-1.29-.73-1.29-.81h-.65s.02,1.29,1.62,1.44v.66h.65v-.67c1.06-.11,1.62-.77,1.62-1.43s-.34-1.46-1.94-1.46Z"/><path d="M10.24 8 12 6.82 13.76 8 13.18 6.09 14.5 4.76 12.8 4.62 12 3 11.2 4.62 9.5 4.76 10.82 6.09 10.24 8z"/><path d="M19.64 7.29 19 6 18.36 7.29 17 7.41 18.06 8.47 17.59 10 19 9.06 20.41 10 19.94 8.47 21 7.41 19.64 7.29z"/><path d="M5.94 8.47 7 7.41 5.64 7.29 5 6 4.36 7.29 3 7.41 4.06 8.47 3.59 10 5 9.06 6.41 10 5.94 8.47z"/></svg>