<svg xmlns="http://www.w3.org/2000/svg" viewBox="0 0 24 24" width="24" height="24"><path d="m13.5,12c1.65,0,3-1.35,3-3,0-1.9-2.36-4.54-2.63-4.84-.19-.21-.55-.21-.74,0-.27.3-2.63,2.94-2.63,4.84,0,1.65,1.35,3,3,3Zm0-6.73c.78.94,2,2.65,2,3.73s-.9,2-2,2-2-.9-2-2,1.22-2.8,2-3.73Z"/><path d="m18.88,12.98c-.54-.36-1.24-.33-1.75.06l-3.55,2.76-1.89-2.27c-.29-.34-.71-.54-1.15-.54h-5.03c-.83,0-1.5.67-1.5,1.5v4c0,.83.67,1.5,1.5,1.5h8.08c1.05,0,2.04-.47,2.71-1.28l3.6-4.4c.09-.11.13-.25.11-.39-.02-.14-.1-.26-.22-.34l-.9-.6Zm-3.36,5.1c-.48.58-1.18.92-1.94.92H5.5c-.28,0-.5-.22-.5-.5v-4c0-.28.22-.5.5-.5h5.03c.15,0,.29.07.38.18l1.52,1.82h-4.43v1h5.5c.11,0,.22-.04.31-.11l3.93-3.06c.17-.13.41-.14.58-.02l.44.29-3.25,3.97Z"/></svg>