<svg xmlns="http://www.w3.org/2000/svg" width="24" height="24" viewBox="0 0 24 24"><path d="M19.5 4H7.62c-.57 0-1.09.32-1.34.83l-3.22 6.45c-.03.07-.05.15-.05.22v2c0 .83.67 1.5 1.5 1.5h6.25l-1.63 3.92A1.507 1.507 0 0 0 10.52 21h1.5c.16 0 .31-.07.4-.2l4.35-5.8h2.75c.83 0 1.5-.67 1.5-1.5v-8c0-.83-.67-1.5-1.5-1.5ZM16 14.33 11.75 20H10.5c-.17 0-.32-.08-.42-.22s-.11-.31-.05-.47l1.92-4.62c.06-.15.05-.33-.05-.47s-.25-.22-.42-.22h-7c-.28 0-.5-.22-.5-.5v-1.88l3.17-6.34A.5.5 0 0 1 7.6 5h8.38v9.33Zm4-.83c0 .28-.22.5-.5.5H17V5h2.5c.28 0 .5.22.5.5z"/></svg>