<svg xmlns="http://www.w3.org/2000/svg" viewBox="0 0 24 24" width="24" height="24"><path d="m20.2,9.48s-.1.01-.11.01c-.03,0-.06,0-.09,0-1.38,0-2.5-1.12-2.5-2.5,0-.28-.22-.5-.5-.5-1.38,0-2.5-1.12-2.49-2.58,0,0,.01-.11.01-.12.02-.25-.14-.47-.38-.53C8.28,1.83,3,6.34,3,12c0,4.96,4.04,9,9,9s9-4.04,9-9c0-.7-.09-1.42-.27-2.14-.06-.24-.29-.39-.53-.38Zm-8.2,10.52c-4.41,0-8-3.59-8-8S7.59,4,12,4c.49,0,.99.05,1.5.15.07,1.7,1.37,3.1,3.03,3.32.22,1.66,1.62,2.96,3.32,3.03.1.51.15,1.01.15,1.5,0,4.41-3.59,8-8,8Z"/><path d="m12,9c-1.65,0-3,1.35-3,3s1.35,3,3,3,3-1.35,3-3-1.35-3-3-3Zm0,5c-1.1,0-2-.9-2-2s.9-2,2-2,2,.9,2,2-.9,2-2,2Z"/></svg>