<svg xmlns="http://www.w3.org/2000/svg" viewBox="0 0 24 24" width="24" height="24"><path d="m20.69,10.59c-.19-.08-.4-.04-.54.11l-.21.21c-.42.42-.85.74-1.29.96-1.92.96-4.18.69-5.77-.66,1.16-1.08,1.71-2.67,1.44-4.27-.34-2.02-2.06-3.67-4.1-3.91-1.35-.16-2.72.26-3.73,1.16-.82.73-1.34,1.73-1.52,2.8-.15,0-1.06,0-1.97,0,0,0,0,2.63,2.47,2.97.19.36.42.7.7,1.01-.02,0-.04.02-.06.03-2.06.91-3.3,3.03-3.09,5.28.25,2.65,2.62,4.72,5.4,4.72h5.47c4.05,0,7.11-2.79,7.11-6.5v-3.44c0-.2-.12-.38-.31-.46Zm-.69,3.91c0,3.19-2.57,5.5-6.11,5.5h-5.47c-2.27,0-4.2-1.68-4.4-3.82-.17-1.82.83-3.54,2.5-4.27.24-.11.49-.24.77-.43.13-.09.22-.24.23-.4,0-.16-.06-.31-.19-.41-.91-.72-1.43-1.79-1.43-2.93,0-1.07.46-2.09,1.26-2.8.7-.62,1.56-.95,2.49-.95.15,0,.31,0,.46.03,1.61.19,2.97,1.49,3.24,3.08.24,1.42-.34,2.83-1.5,3.67-.12.09-.19.22-.2.37s.04.29.15.39l.09.09c1.9,1.9,4.8,2.35,7.24,1.13.3-.15.6-.34.9-.57v2.31Z"/><path d="M9 6A1 1 0 1 0 9 8 1 1 0 1 0 9 6z"/></svg>