<svg xmlns="http://www.w3.org/2000/svg" viewBox="0 0 24 24" width="24" height="24"><path d="m19.5,9h-2.5v-4.5c0-.83-.67-1.5-1.5-1.5H4.5c-.83,0-1.5.67-1.5,1.5v8c0,.83.67,1.5,1.5,1.5h1.5v2.5c0,.19.11.36.28.45.07.04.15.05.22.05.11,0,.21-.03.3-.1l3.2-2.4v2c0,.83.67,1.5,1.5,1.5h2.83l3.87,2.9c.09.07.19.1.3.1.08,0,.15-.02.22-.05.17-.08.28-.26.28-.45v-2.5h.5c.83,0,1.5-.67,1.5-1.5v-6c0-.83-.67-1.5-1.5-1.5Zm-13,4h-2c-.28,0-.5-.22-.5-.5V4.5c0-.28.22-.5.5-.5h11c.28,0,.5.22.5.5v8c0,.28-.22.5-.5.5h-5c-.1,0-.19.04-.27.09,0,0-.02,0-.03.01l-3.2,2.4v-2c0-.28-.22-.5-.5-.5Zm13.5,3.5c0,.28-.22.5-.5.5h-1c-.28,0-.5.22-.5.5v2l-3.2-2.4c-.09-.06-.19-.1-.3-.1h-3c-.28,0-.5-.22-.5-.5v-2.5h4.5c.83,0,1.5-.67,1.5-1.5v-2.5h2.5c.28,0,.5.22.5.5v6Z"/></svg>