<svg xmlns="http://www.w3.org/2000/svg" viewBox="0 0 24 24" width="24" height="24"><path d="m17.02,9.49l.8-3.18c.26-1.03-.1-2.07-.94-2.72-.84-.65-1.93-.74-2.87-.24l-2.01,1.08-2.01-1.08c-.93-.5-2.03-.41-2.87.24-.84.65-1.2,1.69-.94,2.72l.8,3.18-2.97,10.87c-.04.15,0,.31.08.44.09.12.24.2.4.2h15c.16,0,.3-.07.4-.2.09-.12.13-.29.08-.44l-2.97-10.87ZM7.74,4.38c.41-.32,1.09-.52,1.78-.15l2.24,1.21c.15.08.33.08.47,0l2.24-1.21c.69-.37,1.37-.17,1.78.15.41.32.77.93.58,1.69l-.73,2.93H7.89l-.73-2.93c-.19-.76.18-1.37.58-1.69Zm7.26,15.62v-7h-1v7h-4v-7h-1v7h-3.85l2.73-10h8.24l2.73,10h-3.85Z"/></svg>