<svg xmlns="http://www.w3.org/2000/svg" viewBox="0 0 24 24" width="24" height="24"><path d="m20,11.98c0-.2-.13-.37-.31-.44l-4.19-1.68,3.49-6.11c.11-.2.08-.44-.08-.6-.16-.16-.41-.19-.6-.08l-6.28,3.59-3.51-3.51c-.14-.14-.36-.18-.54-.11-.19.08-.31.26-.31.46v4.13l-5.08-.85c-.21-.04-.43.07-.53.26-.1.19-.06.43.09.58l4.42,4.42-4.48,6.27c-.13.18-.12.43.02.6.14.17.38.23.59.15l6.04-2.59.82,4.12c.04.2.2.36.4.39.03,0,.06,0,.09,0,.17,0,.34-.09.43-.24l2.58-4.3,6.19,3.54c.2.11.45.08.61-.09.16-.17.18-.42.05-.62l-3.46-5.2,3.27-1.64c.18-.09.28-.27.28-.47Zm-4.5,1.46c-.13.06-.22.18-.26.32-.04.14-.01.29.07.41l2.6,3.9-4.77-2.73c-.23-.13-.54-.06-.68.18l-2.17,3.61-.69-3.45c-.03-.15-.12-.27-.26-.34-.07-.04-.15-.06-.23-.06-.07,0-.13.01-.2.04l-4.97,2.13,3.68-5.16c.14-.2.12-.47-.05-.64l-3.62-3.62,4.13.69c.15.03.29-.02.41-.11.11-.1.18-.23.18-.38v-3.52l2.92,2.92c.16.16.41.19.6.08l5.02-2.87-2.87,5.02c-.07.13-.09.28-.04.41.05.14.15.25.29.3l3.69,1.48-2.78,1.39Z"/></svg>