<svg xmlns="http://www.w3.org/2000/svg" viewBox="0 0 24 24" width="24" height="24"><path d="m16.45,4.12l-.65.76,3.33,2.85c.56.48.87,1.17.87,1.9v7.87c0,.83-.67,1.5-1.5,1.5s-1.5-.67-1.5-1.5v-3c0-1.38-1.12-2.5-2.5-2.5h-1.5v-6.5c0-.83-.67-1.5-1.5-1.5h-7c-.83,0-1.5.67-1.5,1.5v13c0,.83.67,1.5,1.5,1.5h7c.83,0,1.5-.67,1.5-1.5v-5.5h1.5c.83,0,1.5.67,1.5,1.5v3c0,1.38,1.12,2.5,2.5,2.5s2.5-1.12,2.5-2.5v-7.87c0-1.02-.45-1.99-1.22-2.66l-3.33-2.85Zm-4.45,14.38c0,.28-.22.5-.5.5h-7c-.28,0-.5-.22-.5-.5V5.5c0-.28.22-.5.5-.5h7c.28,0,.5.22.5.5v13Z"/><path d="M9 7 5 13 7.5 13 6.71 17 11 11 8.5 11 9 7z"/></svg>