<svg xmlns="http://www.w3.org/2000/svg" viewBox="0 0 24 24" width="24" height="24"><path d="m12,3c-3.93,0-7,3.08-7,7h1c0-3.36,2.64-6,6-6s6,2.64,6,6c0,2.72-1.33,3.76-3.01,5.08-.61.47-1.23.97-1.84,1.57-.41.41-.71.89-1,1.36-.67,1.07-1.24,2-2.93,2-1.86,0-3.21-1.26-3.21-3h-1c0,2.28,1.81,4,4.21,4,2.25,0,3.1-1.37,3.78-2.47.27-.44.53-.85.85-1.18.56-.56,1.17-1.03,1.75-1.49,1.75-1.37,3.4-2.66,3.4-5.86,0-3.92-3.07-7-7-7Z"/><path d="m14.12,7.86c.55.54.88,1.34.88,2.14h1c0-1.07-.44-2.13-1.18-2.85-1.51-1.48-4.14-1.48-5.65,0-.74.72-1.17,1.79-1.17,2.85v4h1v-3.45c1.69.25,3,1.69,3,3.45h1c0-2.29-1.73-4.17-3.96-4.44.1-.64.38-1.26.83-1.69,1.14-1.11,3.12-1.11,4.25,0Z"/></svg>