<svg xmlns="http://www.w3.org/2000/svg" viewBox="0 0 24 24" width="24" height="24"><path d="m12,3c-3.93,0-7,3.07-7,7h1c0-3.36,2.64-6,6-6s6,2.64,6,6c0,1.33-.68,2.24-1.4,3.2-.79,1.05-1.6,2.13-1.6,3.8,0,2.87-2.97,3-3,3-1.79,0-3-1.21-3-3h-1c0,2.36,1.65,4,4,4,1.04,0,4-.73,4-4,0-1.33.68-2.24,1.4-3.2.79-1.05,1.6-2.13,1.6-3.8,0-3.93-3.07-7-7-7Z"/><path d="m14.83,12.83c.76-.76,1.17-1.76,1.17-2.83s-.42-2.07-1.17-2.83c-1.51-1.51-4.15-1.51-5.66,0-.76.76-1.17,1.76-1.17,2.83h1c0-.8.31-1.55.88-2.12,1.13-1.13,3.11-1.13,4.24,0,.57.57.88,1.32.88,2.12s-.31,1.55-.88,2.12l.71.71Z"/></svg>