<svg xmlns="http://www.w3.org/2000/svg" viewBox="0 0 24 24" width="24" height="24"><path d="m18.56,3.85c-.58-.58-1.54-.58-2.12,0l-2.44,2.44-1.15-1.15-.71.71,1.15,1.15L5.15,15.15c-.06.06-.11.14-.13.23l-1,4c-.04.17,0,.35.13.47.09.09.22.15.35.15.04,0,.08,0,.12-.02l4-1c.09-.02.17-.07.23-.13l8.15-8.15,1.15,1.15.71-.71-1.15-1.15,2.44-2.44c.58-.58.58-1.54,0-2.12l-1.59-1.59Zm-10.32,14.19l-3.06.76.76-3.06L14,7.71l2.29,2.29-8.05,8.05Zm11.2-11.19l-2.44,2.44-2.29-2.29,2.44-2.44c.2-.2.51-.2.71,0l1.59,1.59c.19.19.19.51,0,.71Z"/></svg>