<svg xmlns="http://www.w3.org/2000/svg" viewBox="0 0 24 24" width="24" height="24"><path d="m20.5,6H3.5c-.28,0-.5.22-.5.5v7c0,.28.22.5.5.5h1.5v1.5c0,.28.22.5.5.5h1.5v1.5c0,.28.22.5.5.5h9c.28,0,.5-.22.5-.5v-1.5h1.5c.28,0,.5-.22.5-.5v-1.5h1.5c.28,0,.5-.22.5-.5v-7c0-.28-.22-.5-.5-.5Zm-.5,7h-1.5c-.28,0-.5.22-.5.5v1.5h-1.5c-.28,0-.5.22-.5.5v1.5h-8v-1.5c0-.28-.22-.5-.5-.5h-1.5v-1.5c0-.28-.22-.5-.5-.5h-1.5v-6h16v6Z"/><path d="M5.5 8H6.5V11H5.5z"/><path d="M8.5 8H9.5V11H8.5z"/><path d="M11.5 8H12.5V11H11.5z"/><path d="M14.5 8H15.5V11H14.5z"/><path d="M17.5 8H18.5V11H17.5z"/></svg>