<svg xmlns="http://www.w3.org/2000/svg" viewBox="0 0 24 24" width="24" height="24"><path d="m19.69,10.39l-6.69-.84v-4.56c0-1.1-.9-2-2-2s-2,.9-2,2v10.19l-1.83-.92c-1.05-.52-2.34-.24-3.07.67l-.31.39c-.26.33-.38.75-.31,1.17.06.41.3.79.65,1.02l5.09,3.4c.08.05.18.08.28.08h11c.28,0,.5-.22.5-.5v-8.62c0-.75-.56-1.4-1.31-1.49Zm.31,9.61h-10.35l-4.97-3.31c-.12-.08-.2-.2-.22-.34-.02-.14.01-.28.1-.39l.31-.39c.44-.55,1.22-.72,1.84-.4l2.55,1.28c.15.08.34.07.49-.02.15-.09.24-.25.24-.43V5c0-.55.45-1,1-1s1,.45,1,1v5c0,.25.19.46.44.5l7.12.89c.25.03.44.24.44.5v8.12Z"/></svg>