<svg xmlns="http://www.w3.org/2000/svg" viewBox="0 0 24 24" width="24" height="24"><path d="M8.5 12A1.5 1.5 0 1 0 8.5 15 1.5 1.5 0 1 0 8.5 12z"/><path d="M15.5 12A1.5 1.5 0 1 0 15.5 15 1.5 1.5 0 1 0 15.5 12z"/><path d="m12,3C7.04,3,3,7.04,3,12s4.04,9,9,9,9-4.04,9-9S16.96,3,12,3Zm0,1c4.19,0,7.64,3.25,7.97,7.36l-2.78-2.47c-.64-.57-1.47-.88-2.33-.88h-5.72c-.86,0-1.68.31-2.33.88l-2.78,2.47c.33-4.11,3.77-7.36,7.97-7.36Zm0,16c-4.18,0-7.61-3.22-7.96-7.31l3.44-3.06c.46-.41,1.05-.63,1.66-.63h5.72c.61,0,1.2.22,1.66.63l3.44,3.06c-.35,4.09-3.79,7.31-7.96,7.31Z"/></svg>