<svg xmlns="http://www.w3.org/2000/svg" viewBox="0 0 24 24" width="24" height="24"><path d="m15.71,3c-1.45.05-2.83.67-3.89,1.73l-5.09,5.09c-2.07,2.07-2.27,5.24-.58,7.32l-3.01,3.01.71.71,3.01-3.01c.9.74,2.01,1.15,3.22,1.15.07,0,.14,0,.21,0,1.45-.05,2.83-.67,3.89-1.73l5.09-5.09c2.2-2.2,2.32-5.66.26-7.71-1-1-2.35-1.53-3.82-1.47Zm-8.27,7.52l5.09-5.09c.88-.88,2.03-1.39,3.22-1.44.06,0,.11,0,.17,0,.94,0,1.81.31,2.52.86l-11.57,11.57c-1.3-1.69-1.1-4.23.58-5.91Zm6.04,6.04c-.88.88-2.03,1.39-3.22,1.44-1,.04-1.93-.27-2.68-.86l4.14-4.14h5.33l-3.56,3.56Zm5.09-5.09l-.52.52h-5.33l6.43-6.43c1.3,1.69,1.1,4.23-.58,5.91Z"/></svg>