<svg xmlns="http://www.w3.org/2000/svg" viewBox="0 0 24 24" width="24" height="24"><path d="m11.99,8c-2.19,0-3.98,1.8-3.99,4.01,0,2.19,1.8,3.98,4.01,3.99,2.19,0,3.98-1.8,3.99-3.99v-.02c0-2.19-1.8-3.98-4.01-3.99Zm3.51,3.99l-.5.02c0,1.64-1.35,2.99-3.01,2.99-1.64,0-2.99-1.35-2.99-3.01,0-1.64,1.35-2.99,3.01-2.99,1.64,0,2.99,1.35,2.99,2.99h.5Z"/><path d="m19.18,9.04c.39-1.18.09-2.5-.82-3.39-.9-.91-2.21-1.22-3.4-.82-.56-1.11-1.69-1.82-2.96-1.82s-2.41.71-2.96,1.82c-1.18-.39-2.5-.09-3.39.82-.91.9-1.22,2.21-.82,3.4-1.11.55-1.82,1.69-1.82,2.96s.71,2.41,1.82,2.96c-.39,1.18-.09,2.5.82,3.39.9.91,2.21,1.22,3.4.82.56,1.11,1.69,1.82,2.96,1.82s2.41-.71,2.96-1.82c1.18.39,2.49.09,3.39-.82.91-.9,1.22-2.21.82-3.4,1.11-.55,1.82-1.69,1.82-2.96s-.71-2.41-1.82-2.96Zm-.81,5.18c-.14.04-.26.15-.31.29-.06.14-.05.29.02.42.48.91.3,2.01-.43,2.73-.72.73-1.82.9-2.73.43-.13-.07-.29-.08-.42-.02-.14.06-.24.17-.29.31-.3.97-1.19,1.62-2.21,1.62s-1.91-.65-2.21-1.62c-.04-.14-.15-.26-.29-.31-.06-.03-.13-.04-.19-.04-.08,0-.16.02-.23.06-.91.48-2.01.3-2.73-.43-.73-.72-.9-1.82-.43-2.73.07-.13.08-.29.02-.42-.06-.14-.17-.24-.31-.29-.97-.3-1.62-1.19-1.62-2.21s.65-1.91,1.62-2.21c.14-.04.26-.15.31-.29.06-.14.05-.29-.02-.42-.48-.91-.3-2.01.43-2.73.72-.73,1.82-.9,2.73-.43.13.07.29.08.42.02.14-.06.24-.17.29-.31.3-.97,1.19-1.62,2.21-1.62s1.91.65,2.21,1.62c.04.14.15.26.29.31.14.06.29.05.42-.02.91-.47,2.01-.3,2.73.43.73.72.9,1.82.43,2.73-.07.13-.08.29-.02.42.06.14.17.24.31.29.97.3,1.62,1.19,1.62,2.21s-.65,1.91-1.62,2.21Z"/></svg>