<svg xmlns="http://www.w3.org/2000/svg" viewBox="0 0 24 24" width="24" height="24"><path d="m18.97,7.37c-.02-.08-.06-.16-.12-.23l-4-4c-.06-.06-.14-.1-.23-.12-.02,0-.04,0-.06-.01-.02,0-.04-.01-.07-.01H6.5c-.83,0-1.5.67-1.5,1.5v15c0,.83.67,1.5,1.5,1.5h11c.83,0,1.5-.67,1.5-1.5V7.5s0-.04-.01-.06c0-.02,0-.04-.01-.06Zm-1.47,12.63H6.5c-.28,0-.5-.22-.5-.5V4.5c0-.28.22-.5.5-.5h7.5v3.5c0,.28.22.5.5.5h3.5v11.5c0,.28-.22.5-.5.5Z"/><path d="M9 12H10V18H9z"/><path d="M11.5 10H12.5V18H11.5z"/><path d="M14 14H15V18H14z"/></svg>