<svg xmlns="http://www.w3.org/2000/svg" viewBox="0 0 24 24" width="24" height="24"><path d="m7.5,2c-2.27,0-4.5,3.22-4.5,6.5,0,2.81.84,5.57,1,6.08v1.92c0,1.38,1.12,2.5,2.5,2.5s2.5-1.12,2.5-2.5v-2c0-1.4.47-2.57.96-3.81.51-1.27,1.04-2.59,1.04-4.19,0-2.17-1.1-4.5-3.5-4.5Zm-1,16c-.83,0-1.5-.67-1.5-1.5v-1.5h3v1.5c0,.83-.67,1.5-1.5,1.5Zm2.54-7.69c-.45,1.13-.9,2.31-1,3.69h-3.17c-.25-.85-.87-3.19-.87-5.5,0-2.67,1.8-5.5,3.5-5.5s2.5,1.81,2.5,3.5c0,1.4-.47,2.58-.96,3.81Z"/><path d="m16.5,5c-2.4,0-3.5,2.33-3.5,4.5,0,1.6.53,2.91,1.04,4.19.5,1.24.96,2.41.96,3.81v2c0,1.38,1.12,2.5,2.5,2.5s2.5-1.12,2.5-2.5v-1.92c.16-.51,1-3.27,1-6.08,0-3.28-2.23-6.5-4.5-6.5Zm1,16c-.83,0-1.5-.67-1.5-1.5v-1.5h3v1.5c0,.83-.67,1.5-1.5,1.5Zm1.63-4h-3.17c-.1-1.37-.54-2.55-1-3.69-.5-1.24-.96-2.41-.96-3.81,0-1.69.78-3.5,2.5-3.5s3.5,2.83,3.5,5.5c0,2.31-.62,4.65-.87,5.5Z"/></svg>