<svg xmlns="http://www.w3.org/2000/svg" viewBox="0 0 24 24" width="24" height="24"><path d="m18.25,12.34l-5.25-.66v-3.68c0-1.1-.9-2-2-2s-2,.9-2,2v8.38l-2.04-1.11c-.63-.34-1.37-.33-1.98.04-.61.36-.98,1.01-.98,1.72,0,.47.25.91.65,1.15l4.59,2.76c.08.05.17.07.26.07h10c.28,0,.5-.22.5-.5v-6.18c0-1.01-.75-1.86-1.75-1.98Zm.75,7.66h-9.36l-4.48-2.69c-.1-.06-.16-.17-.16-.29,0-.36.18-.68.49-.86.31-.18.68-.19.99-.02l2.78,1.52c.15.08.34.08.49,0,.15-.09.24-.25.24-.43v-9.23c0-.55.45-1,1-1s1,.45,1,1v4.12c0,.25.19.46.44.5l5.69.71c.5.06.88.49.88.99v5.68Z"/><path d="m11,4c2.21,0,4,1.79,4,4h1c0-2.76-2.24-5-5-5s-5,2.24-5,5h1c0-2.21,1.79-4,4-4Z"/></svg>