<svg xmlns="http://www.w3.org/2000/svg" width="24" height="24" viewBox="0 0 24 24"><path d="M11 14h2v2h-2zM15 14h2v2h-2zM7 14h2v2H7z"/><path d="M7.5 4h-3c-.28 0-.5.22-.5.5v14c0 .28.22.5.5.5h15c.28 0 .5-.22.5-.5v-12c0-.2-.11-.37-.29-.46a.51.51 0 0 0-.54.08L16 8.89v-2.4c0-.2-.11-.37-.29-.46a.51.51 0 0 0-.54.08L12 8.88v-2.4c0-.2-.11-.37-.29-.46a.51.51 0 0 0-.54.08L8 8.87v-4.4c0-.28-.22-.5-.5-.5ZM11 7.6V10c0 .2.11.37.29.46.18.08.39.05.54-.08L15 7.61v2.4c0 .2.11.37.29.46.18.08.39.05.54-.08L19 7.62v10.4H5V5h2v5c0 .2.11.37.29.46.18.08.39.05.54-.08L11 7.61Z"/></svg>