<svg xmlns="http://www.w3.org/2000/svg" viewBox="0 0 24 24" width="24" height="24"><path d="m19.5,5h-7.29l-1.56-1.56c-.28-.28-.66-.44-1.06-.44h-5.09c-.83,0-1.5.67-1.5,1.5v13c0,.83.67,1.5,1.5,1.5h15c.83,0,1.5-.67,1.5-1.5V6.5c0-.83-.67-1.5-1.5-1.5Zm.5,12.5c0,.28-.22.5-.5.5H4.5c-.28,0-.5-.22-.5-.5V6h15.5c.28,0,.5.22.5.5v11Z"/><path d="m15,11.5c0-1.93-1.57-3.5-3.5-3.5s-3.5,1.57-3.5,3.5,1.57,3.5,3.5,3.5c.91,0,1.74-.36,2.36-.93l1.79,1.79.71-.71-1.86-1.86c.31-.52.51-1.13.51-1.79Zm-3.5,2.5c-1.38,0-2.5-1.12-2.5-2.5s1.12-2.5,2.5-2.5,2.5,1.12,2.5,2.5-1.12,2.5-2.5,2.5Z"/></svg>