<svg xmlns="http://www.w3.org/2000/svg" viewBox="0 0 24 24" width="24" height="24"><path d="m20.5,3h-8.62c-.75,0-1.4.56-1.49,1.31l-.84,6.69h-4.56c-1.1,0-2,.9-2,2s.9,2,2,2h10.19l-.92,1.83c-.52,1.05-.24,2.34.67,3.07l.39.31c.27.21.6.33.94.33.08,0,.15,0,.23-.02.41-.06.79-.3,1.02-.65l3.4-5.09c.05-.08.08-.18.08-.28V3.5c0-.28-.22-.5-.5-.5Zm-.5,11.35l-3.31,4.97c-.08.12-.2.2-.34.22-.14.02-.28-.01-.39-.1l-.39-.31c-.55-.44-.72-1.21-.4-1.84l1.28-2.55c.08-.15.07-.34-.02-.49s-.25-.24-.43-.24H5c-.55,0-1-.45-1-1s.45-1,1-1h5c.25,0,.46-.19.5-.44l.89-7.12c.03-.25.24-.44.5-.44h8.12v10.35Z"/></svg>