<svg xmlns="http://www.w3.org/2000/svg" viewBox="0 0 24 24" width="24" height="24"><path d="m4.31,13.61l6.69.84v4.56c0,1.1.9,2,2,2s2-.9,2-2v-10.19l1.83.92c1.05.52,2.34.24,3.07-.67l.31-.39c.26-.33.38-.75.31-1.17-.06-.41-.3-.79-.65-1.02l-5.09-3.4c-.08-.05-.18-.08-.28-.08H3.5c-.28,0-.5.22-.5.5v8.62c0,.75.56,1.4,1.31,1.49Zm-.31-9.61h10.35l4.97,3.31c.12.08.2.2.22.34.02.14-.01.28-.1.39l-.31.39c-.44.55-1.21.72-1.84.4l-2.55-1.28c-.15-.08-.34-.07-.49.02-.15.09-.24.25-.24.43v11c0,.55-.45,1-1,1s-1-.45-1-1v-5c0-.25-.19-.46-.44-.5l-7.12-.89c-.25-.03-.44-.24-.44-.5V4Z"/></svg>