<svg xmlns="http://www.w3.org/2000/svg" width="24" height="24" viewBox="0 0 24 24"><path d="M4 18.5a2.5 2.5 0 1 0 3-2.45v-8.1a2.5 2.5 0 1 0-1 0v8.1a2.5 2.5 0 0 0-2 2.45m4 0c0 .83-.67 1.5-1.5 1.5S5 19.33 5 18.5 5.67 17 6.5 17s1.5.67 1.5 1.5m-3-13C5 4.67 5.67 4 6.5 4S8 4.67 8 5.5 7.33 7 6.5 7 5 6.33 5 5.5M15 18.5a2.5 2.5 0 0 0 5 0 2.5 2.5 0 0 0-5 0m2.5-1.5c.83 0 1.5.67 1.5 1.5s-.67 1.5-1.5 1.5-1.5-.67-1.5-1.5.67-1.5 1.5-1.5M17.5 10a1.5 1.5 0 1 0 0 3 1.5 1.5 0 1 0 0-3M17.5 4a1.5 1.5 0 1 0 0 3 1.5 1.5 0 1 0 0-3"/></svg>