<svg xmlns="http://www.w3.org/2000/svg" viewBox="0 0 24 24" width="24" height="24"><path class="b" d="m19.56,8h-2.2l.95-.95c.45-.45.7-1.05.7-1.68s-.25-1.22-.7-1.67c-.92-.92-2.42-.92-3.36,0l-2.14,2.14c-.5-1.65-2-2.84-3.81-2.84-2.21,0-4,1.79-4,4,0,.35.05.68.14,1h-.7c-.26,0-.48.2-.5.46l-.85,9.92c-.04.42.11.83.39,1.14s.69.49,1.1.49h14.82c.42,0,.82-.18,1.1-.49s.43-.72.39-1.14l-.85-9.92c-.02-.26-.24-.46-.5-.46Zm-3.91-3.59c.54-.53,1.41-.54,1.95,0,.26.26.4.6.4.97s-.14.72-.4.98l-1.65,1.65h-3.08c.08-.3.13-.61.13-.94l2.66-2.66Zm-9.65,2.59c0-1.65,1.35-3,3-3s2.93,1.26,3,2.96l.5.04h-.5c0,.35-.06.69-.18,1h-5.65c-.12-.31-.18-.65-.18-1Zm13.78,11.84c-.1.1-.23.16-.37.16H4.59c-.14,0-.27-.06-.37-.16-.1-.1-.14-.24-.13-.38l.81-9.46h14.2l.81,9.46c.01.14-.03.28-.13.38Z"/><path class="b" d="m12,14c-1.65,0-3-1.35-3-3h-1c0,2.21,1.79,4,4,4s4-1.79,4-4h-1c0,1.65-1.35,3-3,3Z"/></svg>