<svg xmlns="http://www.w3.org/2000/svg" width="24" height="24" viewBox="0 0 24 24"><path d="M16.5 4C14.57 4 13 5.57 13 7.5s1.57 3.5 3.5 3.5S20 9.43 20 7.5 18.43 4 16.5 4m0 6a2.5 2.5 0 0 1 0-5 2.5 2.5 0 0 1 0 5M7.5 20c1.93 0 3.5-1.57 3.5-3.5S9.43 13 7.5 13 4 14.57 4 16.5 5.57 20 7.5 20m0-6a2.5 2.5 0 0 1 0 5 2.5 2.5 0 0 1 0-5M19 13h-5c-.55 0-1 .45-1 1v5c0 .55.45 1 1 1h5c.55 0 1-.45 1-1v-5c0-.55-.45-1-1-1m0 6h-5v-5h5zM5 11h5c.55 0 1-.45 1-1V5c0-.55-.45-1-1-1H5c-.55 0-1 .45-1 1v5c0 .55.45 1 1 1m0-6h5v5H5z"/></svg>