<svg xmlns="http://www.w3.org/2000/svg" viewBox="0 0 24 24" width="24" height="24"><path d="m10.5,3H3.5c-.28,0-.5.22-.5.5v7c0,.28.22.5.5.5h7c.28,0,.5-.22.5-.5V3.5c0-.28-.22-.5-.5-.5Zm-.5,7h-6v-6h6v6Z"/><path d="m17.44,3.33c-.09-.18-.27-.27-.44-.27s-.35.09-.44.27l-3.67,6.93c-.18.33.07.73.44.73h7.34c.38,0,.62-.4.44-.73l-3.67-6.93Zm-3.28,6.67l2.84-5.36,2.84,5.36h-5.68Z"/><path d="m17,13c-2.21,0-4,1.79-4,4s1.79,4,4,4,4-1.79,4-4-1.79-4-4-4Zm0,7c-1.65,0-3-1.35-3-3s1.35-3,3-3,3,1.35,3,3-1.35,3-3,3Z"/><path d="M10.15 13.15 7 16.29 3.85 13.15 3.15 13.85 6.29 17 3.15 20.15 3.85 20.85 7 17.71 10.15 20.85 10.85 20.15 7.71 17 10.85 13.85 10.15 13.15z"/></svg>