<svg xmlns="http://www.w3.org/2000/svg" width="24" height="24" viewBox="0 0 24 24"><path d="M7.5 11C9.43 11 11 9.43 11 7.5S9.43 4 7.5 4 4 5.57 4 7.5 5.57 11 7.5 11m0-6a2.5 2.5 0 0 1 0 5 2.5 2.5 0 0 1 0-5M16.5 13c-1.93 0-3.5 1.57-3.5 3.5s1.57 3.5 3.5 3.5 3.5-1.57 3.5-3.5-1.57-3.5-3.5-3.5m0 6a2.5 2.5 0 0 1 0-5 2.5 2.5 0 0 1 0 5M5 20h5c.55 0 1-.45 1-1v-5c0-.55-.45-1-1-1H5c-.55 0-1 .45-1 1v5c0 .55.45 1 1 1m0-6h5v5.5-.5H5zM19 4h-5c-.55 0-1 .45-1 1v5c0 .55.45 1 1 1h5c.55 0 1-.45 1-1V5c0-.55-.45-1-1-1m0 6.5V10h-5V5h5v5.5"/></svg>