<svg xmlns="http://www.w3.org/2000/svg" viewBox="0 0 24 24" width="24" height="24"><path d="m19.5,8h-1.51c.3-.45.51-1.07.51-2,0-1.65-1.35-3-3-3-1.83,0-2.92,2.1-3.5,3.7-.57-1.59-1.67-3.7-3.5-3.7-1.65,0-3,1.35-3,3,0,.93.21,1.55.51,2h-1.51c-.83,0-1.5.67-1.5,1.5v1c0,.83.67,1.5,1.5,1.5h.5v7.5c0,.83.67,1.5,1.5,1.5h11c.83,0,1.5-.67,1.5-1.5v-7.5h.5c.83,0,1.5-.67,1.5-1.5v-1c0-.83-.67-1.5-1.5-1.5Zm-4-4c1.1,0,2,.9,2,2,0,1.79-.86,2-1.5,2h-3.37c.4-1.5,1.38-4,2.87-4Zm-9,2c0-1.1.9-2,2-2,1.48,0,2.46,2.5,2.87,4h-3.37c-.64,0-1.5-.21-1.5-2Zm-2.5,4.5v-1c0-.28.22-.5.5-.5h7v2h-7c-.28,0-.5-.22-.5-.5Zm2,9v-7.5h5.5v8h-5c-.28,0-.5-.22-.5-.5Zm12,0c0,.28-.22.5-.5.5h-5v-8s5.5,0,5.5,0v7.5Zm2-9c0,.28-.22.5-.5.5h-7.01v-2s7.01,0,7.01,0c.28,0,.5.22.5.5v1Z"/></svg>