<svg xmlns="http://www.w3.org/2000/svg" viewBox="0 0 24 24" width="24" height="24"><path d="m21,12.5v-1h-1.03c-.04-.66-.15-1.29-.34-1.9l.95-.36-.36-.93-.96.37c-.33-.71-.76-1.37-1.27-1.95l.73-.73-.71-.71-.73.73c-.48-.43-1.01-.8-1.59-1.1l.42-.93-.91-.41-.42.94c-.72-.27-1.48-.43-2.28-.48v-1.03h-1v1.03c-.66.04-1.29.15-1.9.34l-.36-.95-.93.36.37.96c-.71.33-1.37.76-1.95,1.27l-.73-.73-.71.71.73.73c-.43.48-.8,1.01-1.1,1.59l-.93-.42-.41.91.94.42c-.27.72-.43,1.48-.48,2.28h-1.03v1h1.03c.04.66.15,1.29.34,1.9l-.95.36.36.93.96-.37c.33.71.76,1.37,1.27,1.95l-.73.73.71.71.73-.73c.48.43,1.01.8,1.59,1.1l-.42.93.91.41.42-.94c.72.27,1.48.43,2.28.48v1.03h1v-1.03c.66-.04,1.29-.15,1.9-.34l.36.95.93-.36-.37-.96c.71-.33,1.37-.76,1.95-1.27l.73.73.71-.71-.73-.73c.43-.48.8-1.01,1.1-1.59l.93.42.41-.91-.94-.42c.27-.72.43-1.48.48-2.28h1.03Zm-9-7.5c3.27,0,6.02,2.26,6.78,5.3l-3.97.7c-.41-1.16-1.51-2-2.82-2-.55,0-1.07.16-1.51.42l-2.59-3.08c1.15-.84,2.57-1.34,4.1-1.34Zm1,7c0,.55-.45,1-1,1s-1-.45-1-1,.45-1,1-1,1,.45,1,1Zm-3.86,6.38c-2.44-1.1-4.14-3.54-4.14-6.38,0-1.97.82-3.75,2.13-5.02l2.59,3.09c-.45.52-.72,1.19-.72,1.93,0,1.12.62,2.08,1.52,2.6l-1.38,3.79Zm2.86.62c-.67,0-1.31-.1-1.92-.27l1.38-3.78c.18.03.36.05.54.05,1.66,0,3-1.34,3-3,0,0,0-.01,0-.02l3.97-.7c.02.24.04.48.04.72,0,3.86-3.14,7-7,7Z"/></svg>