<svg version="1.1" xmlns="http://www.w3.org/2000/svg" xmlns:xlink="http://www.w3.org/1999/xlink" x="0px" y="0px" viewBox="0 0 24 24" xml:space="preserve" width="24" height="24"><path class="st0" d="M7.3,21c2.4,0,4.3-1.9,4.3-4.2c0-0.8-0.2-1.5-0.6-2.1c1.4,0.2,2.9-0.1,4.3-1.7c1-1.3,2.8-1.3,3.9,0
	c0.5,0.7,0.9,1.6,0.9,2.5s-0.3,1.8-0.9,2.5c-1,1.3-2.8,1.3-3.9,0l-0.8,0.6c0.7,0.9,1.7,1.4,2.7,1.4s2-0.5,2.7-1.4
	c0.7-0.8,1.1-2,1.1-3.1s-0.4-2.3-1.1-3.1c-0.7-0.9-1.7-1.4-2.7-1.4s-2,0.5-2.7,1.3c-2,2.3-4.4,1.2-5.3,0.6c0.9-0.6,1.4-1.5,1.4-2.6
	C10.6,8.5,9.1,7,7.3,7S4,8.5,4,10.3h1C5,9,6,8,7.3,8s2.3,1,2.3,2.3s-1,2.2-2.3,2.2h0c-0.3,0-0.5,0.2-0.5,0.5s0.2,0.5,0.5,0.5h0
	c1.8,0,3.3,1.5,3.3,3.3S9.1,20,7.3,20S4,18.5,4,16.8H3C3,19.1,4.9,21,7.3,21L7.3,21z"/><path class="st0" d="M11,4v0.5C11,7,13.2,9,16,9s5-2,5-4.5V4h-1v0.5C20,6.4,18.2,8,16,8s-4-1.6-4-3.5V4H11z"/><path class="st0" d="M14.5 4.6 15.2 3.8 16 3.1 16.7 3.8 17.5 4.6 16.7 5.3 16 6.1 15.2 5.3z"/></svg>