<svg xmlns="http://www.w3.org/2000/svg" viewBox="0 0 24 24" width="24" height="24"><path d="m12.12,3c-2.34.02-4.6.89-6.31,2.58-1.78,1.76-2.81,4.21-2.81,6.72v5.2c0,1.93,1.57,3.5,3.5,3.5h5.2c2.51,0,4.96-1.02,6.72-2.8,1.69-1.71,2.61-3.96,2.58-6.31-.06-4.92-3.96-8.82-8.88-8.88ZM4,12.3c0-.78.12-1.55.33-2.3h9.17c.28,0,.5.22.5.5v4c0,.28-.22.5-.5.5H4v-2.7Zm13.71,5.19c-1.57,1.59-3.76,2.51-6.01,2.51h-5.2c-1.38,0-2.5-1.12-2.5-2.5v-1.5h9.5c.83,0,1.5-.67,1.5-1.5v-4c0-.83-.67-1.5-1.5-1.5H4.68c.43-1.01,1.05-1.93,1.83-2.71,1.5-1.48,3.45-2.29,5.5-2.29.03,0,.07,0,.1,0,3.65.05,6.74,2.6,7.63,6h-2.73v1h2.93c.04.29.06.59.07.9,0,.72-.09,1.42-.27,2.1h-2.73v1h2.38c-.39.91-.95,1.76-1.67,2.49Z"/></svg>