<svg xmlns="http://www.w3.org/2000/svg" viewBox="0 0 24 24" width="24" height="24"><path d="m19.46,5.52c-2.06-2.03-5.29-2.03-7.34,0l-.12.12-.12-.12c-2.05-2.03-5.28-2.04-7.34,0-.99.99-1.54,2.28-1.53,3.65,0,1.36.55,2.65,1.54,3.63l7.11,7.05c.1.1.22.15.35.15s.25-.05.35-.15l7.11-7.05c.99-.98,1.53-2.27,1.54-3.63,0-1.37-.54-2.67-1.53-3.65,0,0,0,0,0,0Zm-15.46,3.65c0-1.1.44-2.15,1.24-2.94.83-.82,1.9-1.23,2.97-1.23s2.13.41,2.96,1.23l.33.32v11.75l-6.26-6.2c-.8-.79-1.24-1.83-1.24-2.93Zm14.76,2.93l-6.26,6.2V6.55l.33-.32c1.66-1.64,4.27-1.64,5.94,0,.8.8,1.24,1.84,1.24,2.94,0,1.1-.44,2.13-1.24,2.93Z"/></svg>