<svg xmlns="http://www.w3.org/2000/svg" viewBox="0 0 24 24" width="24" height="24"><path d="m5,18.5v-1.79l3-3,1.65,1.65c.2.2.51.2.71,0l5.65-5.65,3,3v1.29h1V5.5c0-.83-.67-1.5-1.5-1.5H5.5c-.83,0-1.5.67-1.5,1.5v13c0,.83.67,1.5,1.5,1.5h7.5v-1h-7.5c-.28,0-.5-.22-.5-.5Zm.5-13.5h13c.28,0,.5.22.5.5v5.79l-2.65-2.65c-.2-.2-.51-.2-.71,0l-5.65,5.65-1.65-1.65c-.2-.2-.51-.2-.71,0l-2.65,2.65V5.5c0-.28.22-.5.5-.5Z"/><path d="M8.5 7A1.5 1.5 0 1 0 8.5 10 1.5 1.5 0 1 0 8.5 7z"/><path d="m20.87,17.79l-1.78-.89-.89-1.78c-.08-.16-.33-.16-.41,0l-.89,1.78-1.78.89c-.08.04-.13.12-.13.21,0,.09.05.17.13.21l1.77.82.89,1.85c.04.08.12.13.21.13h0c.09,0,.17-.05.21-.13l.82-1.77,1.84-.89c.08-.04.13-.12.13-.21,0-.09-.05-.17-.13-.21Z"/></svg>