<svg xmlns="http://www.w3.org/2000/svg" width="24" height="24" viewBox="0 0 24 24"><path d="M18.47 16.03c-.24-.37-.51-.73-.84-1.05-.6-.58-1.32-1.04-2.14-1.37C14.48 13.2 13.3 13 12 13c-1.08 0-2.07.18-2.96.52.24-3.36 1.65-5.39 2.37-6.21.22.72.29 1.58.11 2.6l.98.18c.21-1.18.12-2.19-.14-3.04.57.15 1.17.41 1.8.81l.54-.84c-.99-.64-1.94-.96-2.81-1.09-.97-1.76-2.57-2.55-2.59-2.56l-.43.9c.07.04 1.05.53 1.82 1.6-2.13.1-3.56 1.24-3.58 1.26l.64.77s1.09-.87 2.72-1.02c-.9 1.1-2.32 3.42-2.44 7.13-.63.37-1.2.85-1.68 1.42-.47.56-.78 1.12-.97 1.53-.48-.07-.8-.23-1.14-.4-.52-.26-1.1-.55-2.22-.55v1c.88 0 1.29.21 1.77.45.52.26 1.1.55 2.22.55s1.7-.29 2.22-.55c.48-.24.89-.45 1.77-.45s1.3.21 1.78.45c.52.26 1.1.55 2.22.55s1.71-.29 2.23-.55c.48-.24.9-.45 1.78-.45s1.3.21 1.78.45c.52.26 1.11.55 2.23.55v-1c-.88 0-1.3-.21-1.78-.45-.44-.22-.94-.45-1.75-.52Zm-2.7.52c-.48.24-.9.45-1.78.45s-1.3-.21-1.78-.45c-.52-.26-1.1-.55-2.22-.55s-1.7.29-2.22.55c-.38.19-.73.35-1.29.42.16-.28.36-.58.62-.9.51-.6 1.12-1.08 1.82-1.42.89-.43 1.92-.65 3.08-.65s2.22.18 3.12.54c.7.28 1.31.67 1.82 1.16.12.12.23.23.33.35-.67.09-1.1.31-1.49.5ZM18 19c-1.12 0-1.71.29-2.23.55-.48.24-.9.45-1.78.45s-1.3-.21-1.78-.45c-.52-.26-1.1-.55-2.22-.55s-1.7.29-2.22.55c-.48.24-.89.45-1.77.45s-1.3-.21-1.77-.45c-.52-.26-1.1-.55-2.22-.55v1c.88 0 1.29.21 1.77.45.52.26 1.1.55 2.22.55s1.7-.29 2.22-.55c.48-.24.89-.45 1.77-.45s1.3.21 1.78.45c.52.26 1.1.55 2.22.55s1.71-.29 2.23-.55c.48-.24.9-.45 1.78-.45s1.3.21 1.78.45c.52.26 1.11.55 2.23.55v-1c-.88 0-1.3-.21-1.78-.45-.52-.26-1.11-.55-2.23-.55"/></svg>