<svg xmlns="http://www.w3.org/2000/svg" viewBox="0 0 24 24" width="24" height="24"><path d="M8.5 7A1.5 1.5 0 1 0 8.5 10 1.5 1.5 0 1 0 8.5 7z"/><path d="m5,5.5c0-.28.22-.5.5-.5h1.5v-1h-1.5c-.83,0-1.5.67-1.5,1.5v1.5h1v-1.5Z"/><path d="m18.5,4h-1.5v1h1.5c.28,0,.5.22.5.5v1.5h1v-1.5c0-.83-.67-1.5-1.5-1.5Z"/><path d="M4 9H5V11H4z"/><path d="M9 4H11V5H9z"/><path d="M13 4H15V5H13z"/><path d="m19,11.29l-2.65-2.65c-.2-.2-.51-.2-.71,0l-5.65,5.65-1.65-1.65c-.2-.2-.51-.2-.71,0l-2.65,2.65v-2.29h-1v5.5c0,.83.67,1.5,1.5,1.5h13c.83,0,1.5-.67,1.5-1.5v-9.5h-1v2.29Zm0,7.21c0,.28-.22.5-.5.5H5.5c-.28,0-.5-.22-.5-.5v-1.79l3-3,1.65,1.65c.2.2.51.2.71,0l5.65-5.65,3,3v5.79Z"/></svg>