<svg xmlns="http://www.w3.org/2000/svg" width="24" height="24" viewBox="0 0 24 24"><path d="m7.61 10.26-2.3 1.53c-.15.1-.15.32 0 .42l2.3 1.53c.17.11.39 0 .39-.21v-3.07c0-.2-.22-.32-.39-.21ZM16.39 10.26c-.17-.11-.39 0-.39.21v3.07c0 .2.22.32.39.21l2.3-1.53c.15-.1.15-.32 0-.42l-2.3-1.53ZM12.21 5.31a.252.252 0 0 0-.42 0l-1.53 2.3c-.11.17 0 .39.21.39h3.07c.2 0 .32-.22.21-.39l-1.53-2.3ZM13.53 16h-3.07c-.2 0-.32.22-.21.39l1.53 2.3c.1.15.32.15.42 0l1.53-2.3c.11-.17 0-.39-.21-.39ZM12 10.5a1.5 1.5 0 1 0 0 3 1.5 1.5 0 1 0 0-3"/><path d="M19.5 8H16V4.5c0-.83-.67-1.5-1.5-1.5h-5C8.67 3 8 3.67 8 4.5V8H4.5C3.67 8 3 8.67 3 9.5v5c0 .83.67 1.5 1.5 1.5H8v3.5c0 .83.67 1.5 1.5 1.5h5c.83 0 1.5-.67 1.5-1.5V16h3.5c.83 0 1.5-.67 1.5-1.5v-5c0-.83-.67-1.5-1.5-1.5m.5 6.5c0 .28-.22.5-.5.5H15v4.5c0 .28-.22.5-.5.5h-5c-.28 0-.5-.22-.5-.5V15H4.5c-.28 0-.5-.22-.5-.5v-5c0-.28.22-.5.5-.5H9V4.5c0-.28.22-.5.5-.5h5c.28 0 .5.22.5.5V9h4.5c.28 0 .5.22.5.5z"/></svg>