<svg xmlns="http://www.w3.org/2000/svg" viewBox="0 0 24 24" width="24" height="24"><path d="m20.5,5.5H3.5c-.83,0-1.5.67-1.5,1.5v10c0,.83.67,1.5,1.5,1.5h17c.83,0,1.5-.67,1.5-1.5V7c0-.83-.67-1.5-1.5-1.5Zm.5,11.5c0,.28-.22.5-.5.5H3.5c-.28,0-.5-.22-.5-.5V7c0-.28.22-.5.5-.5h17c.28,0,.5.22.5.5v10Z"/><path d="M5 8H7V10H5z"/><path d="M8 8H10V10H8z"/><path d="M11 8H13V10H11z"/><path d="M14 8H16V10H14z"/><path d="M17 8H19V10H17z"/><path d="M5 11H7V13H5z"/><path d="M8 11H10V13H8z"/><path d="M8 14H16V16H8z"/><path d="M11 11H13V13H11z"/><path d="M14 11H16V13H14z"/><path d="M17 11H19V13H17z"/></svg>