<svg xmlns="http://www.w3.org/2000/svg" viewBox="0 0 24 24" width="24" height="24"><path d="m9,4h2.5v1h-1c-.28,0-.5.22-.5.5v1.5h-1.5c-.83,0-1.5.67-1.5,1.5v11c0,.83.67,1.5,1.5,1.5h7c.83,0,1.5-.67,1.5-1.5v-11c0-.83-.67-1.5-1.5-1.5h-1.5v-1.5c0-.28-.22-.5-.5-.5h-1v-1h4.5v-1h-8v1Zm7,15.5c0,.28-.22.5-.5.5h-7c-.28,0-.5-.22-.5-.5v-5.97c1.75.11,2.76.51,3.81.93,1.1.44,2.23.89,4.19,1.01v4.03Zm0-11v5.97c-1.75-.11-2.76-.51-3.81-.93-1.1-.44-2.23-.89-4.19-1.01v-4.03c0-.28.22-.5.5-.5h7c.28,0,.5.22.5.5Zm-3-2.5v1h-2v-1h2Z"/></svg>