<svg xmlns="http://www.w3.org/2000/svg" width="24" height="24" viewBox="0 0 24 24"><path d="M5.28 18.72a3.513 3.513 0 0 1 0-4.95l2.83-2.83-.71-.71-2.83 2.83a4.51 4.51 0 0 0 0 6.36c.88.88 2.03 1.32 3.18 1.32s2.3-.44 3.18-1.32l2.83-2.83-.71-.71-2.83 2.83a3.513 3.513 0 0 1-4.95 0ZM13.77 5.28a3.513 3.513 0 0 1 4.95 0 3.513 3.513 0 0 1 0 4.95l-2.83 2.83.71.71 2.83-2.83a4.51 4.51 0 0 0 0-6.36 4.51 4.51 0 0 0-6.36 0l-2.83 2.83.71.71 2.83-2.83ZM7.5 2h1v4h-1zM2 7.5h4v1H2zM15.5 18h1v4h-1zM18 15.5h4v1h-4z"/></svg>