<svg xmlns="http://www.w3.org/2000/svg" viewBox="0 0 24 24" width="24" height="24"><path d="m21,12c0-.19-.1-.36-.27-.44l-8.5-4.5c-.15-.08-.32-.08-.47,0L3.27,11.56c-.16.09-.27.26-.27.44s.1.36.27.44l2.94,1.56-2.94,1.56c-.16.09-.27.26-.27.44s.1.36.27.44l8.5,4.5c.07.04.15.06.23.06s.16-.02.23-.06l8.5-4.5c.16-.09.27-.26.27-.44s-.1-.36-.27-.44l-2.94-1.56,2.94-1.56c.16-.09.27-.26.27-.44Zm-1.57,4l-7.43,3.93-7.43-3.93,2.71-1.43,4.49,2.38c.07.04.15.06.23.06s.16-.02.23-.06l4.49-2.38,2.71,1.43Zm-2.94-2.44s0,0,0,0l-4.49,2.38-4.49-2.38s0,0,0,0l-2.94-1.56,7.43-3.93,7.43,3.93-2.94,1.56Z"/><path d="M16 5H21V6H16z"/></svg>