<svg xmlns="http://www.w3.org/2000/svg" viewBox="0 0 24 24" width="24" height="24"><path d="m21.97,10.02c-.03-.23-.22-.41-.45-.43-.04,0-.47-.03-1.04.06,0,0,0,0,0,0,.87-1.78.04-3.62,0-3.7-.1-.22-.34-.33-.57-.27-.06.01-1.02.27-1.9,1-.01-.32-.05-.65-.15-.99-.58-1.91-2.43-2.62-2.51-2.65-.23-.08-.48,0-.6.21-.05.07-1.12,1.85-.54,3.74.5,1.66,1.96,2.41,2.39,2.6-.04,1.13.36,2.02.38,2.08.07.15.2.23.35.26-.53,1.19-.39,2.38-.38,2.45,0,.06.03.12.06.17-1.15.95-1.45,2.35-1.49,2.54-.2-.03-.41-.05-.63-.05-1.44.03-2.44.94-2.9,1.44-.45-.5-1.46-1.41-2.9-1.44-.22,0-.42.01-.63.05-.04-.2-.35-1.6-1.49-2.54.03-.05.05-.11.06-.17,0-.06.15-1.26-.38-2.45.15-.03.29-.11.35-.26.02-.05.42-.95.38-2.08.43-.19,1.88-.94,2.39-2.6.57-1.89-.5-3.67-.54-3.74-.13-.2-.38-.29-.6-.21-.08.03-1.93.74-2.51,2.65-.1.34-.14.67-.15.99-.88-.74-1.84-.99-1.9-1-.23-.05-.47.06-.57.27-.04.08-.87,1.92,0,3.7,0,0,0,0,0,0-.57-.09-1-.06-1.04-.06-.23.02-.42.2-.45.43-.01.08-.27,2.1,1.09,3.52.1.11.21.2.33.29-.44.1-.73.23-.76.24-.21.09-.33.32-.29.54.01.08.39,2.09,2.11,2.99.61.32,1.24.42,1.8.42.03,0,.06,0,.09,0-.39.31-.62.57-.64.6-.15.17-.16.42-.03.61.05.07,1.22,1.72,3.16,1.77.03,0,.06,0,.08,0,1.45,0,2.56-.9,3.02-1.34.46.45,1.57,1.34,3.02,1.34.03,0,.06,0,.08,0,1.95-.05,3.12-1.7,3.16-1.77.13-.19.12-.44-.03-.61-.02-.03-.26-.29-.64-.6.03,0,.06,0,.09,0,.56,0,1.19-.1,1.8-.42,1.73-.91,2.1-2.91,2.11-2.99.04-.23-.08-.45-.29-.54-.03-.01-.32-.14-.76-.24.11-.09.22-.18.33-.29,1.36-1.42,1.1-3.44,1.09-3.52ZM7.09,5.97c.29-.96,1.03-1.53,1.5-1.8.23.54.54,1.53.24,2.52-.29.96-1.04,1.53-1.5,1.8-.23-.54-.54-1.52-.23-2.52Zm-2.82.82c.52.22,1.4.7,1.84,1.61.44.91.29,1.87.14,2.41-.52-.22-1.4-.7-1.84-1.61-.44-.91-.29-1.87-.14-2.41Zm-1.28,3.8c.56.04,1.53.22,2.23.94.69.73.83,1.7.84,2.26-.56-.04-1.53-.21-2.23-.95-.69-.73-.82-1.7-.84-2.26Zm1.97,6.13c-.88-.46-1.3-1.35-1.48-1.87.54-.15,1.52-.31,2.41.16.88.46,1.3,1.35,1.48,1.87-.54.15-1.52.31-2.41-.16Zm3.94,3.28c-.98-.02-1.72-.63-2.1-1.02.42-.37,1.23-.98,2.26-.94.98.02,1.72.63,2.1,1.02-.42.37-1.27.96-2.26.94Zm6.16,0c-1.04.01-1.83-.57-2.26-.94.38-.39,1.12-1,2.1-1.02,1-.03,1.83.57,2.26.94-.38.39-1.12,1-2.1,1.02Zm5.08-7.15c-.69.73-1.67.91-2.23.94.01-.56.14-1.53.84-2.26.69-.73,1.67-.91,2.23-.94-.01.56-.14,1.53-.84,2.26Zm-.44-6.06c.15.54.31,1.5-.14,2.41-.45.91-1.32,1.39-1.84,1.61-.15-.54-.31-1.5.14-2.41.45-.91,1.32-1.39,1.84-1.61Zm-4.55-.1c-.3-.99,0-1.98.24-2.52.47.27,1.21.84,1.5,1.8.3.99,0,1.98-.24,2.52-.47-.27-1.21-.85-1.5-1.8Zm3.86,10.03c-.89.46-1.87.31-2.41.16.18-.52.59-1.41,1.48-1.87.89-.46,1.87-.31,2.41-.16-.18.52-.59,1.41-1.48,1.87Z"/></svg>