<svg xmlns="http://www.w3.org/2000/svg" viewBox="0 0 24 24" width="24" height="24"><path d="m20.73,7.56L12.23,3.06c-.15-.08-.32-.08-.47,0L3.27,7.56c-.16.09-.27.26-.27.44s.1.36.27.44l8.5,4.5c.07.04.15.06.23.06s.16-.02.23-.06l8.5-4.5c.16-.09.27-.26.27-.44s-.1-.36-.27-.44Zm-8.73,4.38l-7.43-3.93,7.43-3.93,7.43,3.93-7.43,3.93Z"/><path d="m12,17c.08,0,.16-.02.23-.06l8.5-4.5-.47-.88-8.27,4.38L3.73,11.56l-.47.88,8.5,4.5c.07.04.15.06.23.06Z"/><path d="m11.77,20.94c.07.04.15.06.23.06s.16-.02.23-.06l8.5-4.5-.47-.88-8.27,4.38L3.73,15.56l-.47.88,8.5,4.5Z"/></svg>