<svg xmlns="http://www.w3.org/2000/svg" viewBox="0 0 24 24" width="24" height="24"><path d="m15.78,3c-1.39,0-2.7.54-3.7,1.53-.98.99-1.52,2.31-1.52,3.69,0,.24.02.48.05.7l-6.9,8.19c-.51.6-.47,1.47.09,2.03l1.06,1.06c.29.29.68.44,1.06.44.34,0,.68-.12.97-.36l8.19-6.9c.23.03.46.05.7.05,1.39,0,2.7-.54,3.7-1.53.98-.99,1.52-2.31,1.52-3.69s-.54-2.7-1.53-3.7c-.99-.98-2.31-1.52-3.69-1.52ZM6.24,19.53c-.2.17-.49.15-.68-.03l-1.06-1.06c-.19-.19-.2-.48-.03-.68l6.61-7.85,3.01,3.01-7.85,6.61Zm8.72-7.16l-3.33-3.33c-.05-.25-.08-.53-.08-.82,0-1.06.4-2.06,1.11-2.85l5.95,5.95c-.79.71-1.78,1.11-2.84,1.11-.29,0-.56-.03-.82-.08Zm4.32-1.79l-5.86-5.86c.69-.46,1.51-.72,2.36-.72,1.12,0,2.19.44,2.99,1.23.8.8,1.23,1.87,1.23,2.99,0,.85-.25,1.66-.72,2.36Z"/></svg>