<svg xmlns="http://www.w3.org/2000/svg" width="24" height="24" viewBox="0 0 24 24"><path d="M11.5 14h1v1h-1z"/><path d="M19.5 4h-15C3.67 4 3 4.67 3 5.5v11c0 .83.67 1.5 1.5 1.5H7v2.5c0 .18.1.35.25.44a.54.54 0 0 0 .51-.01L12.64 18h6.86c.83 0 1.5-.67 1.5-1.5v-11c0-.83-.67-1.5-1.5-1.5m.5 12.5c0 .28-.22.5-.5.5h-7c-.09 0-.18.02-.26.07L8 19.62V17.5c0-.28-.22-.5-.5-.5h-3c-.28 0-.5-.22-.5-.5v-11c0-.28.22-.5.5-.5h15c.28 0 .5.22.5.5z"/><path d="M10.23 7.73c-.47.47-.73 1.1-.73 1.77h1c0-.4.16-.78.44-1.06.57-.57 1.55-.57 2.12 0A1.499 1.499 0 0 1 12 11c-.28 0-.5.22-.5.5V13h1v-1.05a2.488 2.488 0 0 0 2-2.45c0-.67-.26-1.3-.73-1.77-.94-.95-2.59-.94-3.54 0"/></svg>