<svg xmlns="http://www.w3.org/2000/svg" viewBox="0 0 24 24" width="24" height="24"><path d="M11.5 15H12.5V16H11.5z"/><path d="m10.23,8.73c-.47.47-.73,1.1-.73,1.77h1c0-.4.16-.78.44-1.06.57-.57,1.55-.57,2.12,0,.28.28.44.66.44,1.06s-.16.78-.44,1.06c-.28.28-.66.44-1.06.44-.28,0-.5.22-.5.5v1.5h1v-1.05c.48-.1.92-.33,1.27-.68.47-.47.73-1.1.73-1.77s-.26-1.3-.73-1.77c-.94-.95-2.59-.94-3.54,0Z"/><path d="m12,3C7.04,3,3,7.04,3,12c0,2.03.69,4,1.95,5.59l-1.86,2.62c-.11.15-.12.35-.04.52.09.17.26.27.44.27h8.5c4.96,0,9-4.04,9-9S16.96,3,12,3Zm0,17h-7.53l1.52-2.15c.13-.19.12-.44-.03-.62-1.26-1.46-1.96-3.32-1.96-5.23,0-4.41,3.59-8,8-8s8,3.59,8,8-3.59,8-8,8Z"/></svg>