<svg xmlns="http://www.w3.org/2000/svg" viewBox="0 0 24 24" width="24" height="24"><path d="m9.65,7.65l-3,3c-.2.2-.2.51,0,.71l3,3,.71-.71-2.65-2.65,2.65-2.65-.71-.71Z"/><path d="m14.35,7.65l-.71.71,2.65,2.65-2.65,2.65.71.71,3-3c.2-.2.2-.51,0-.71l-3-3Z"/><path d="m12,4c-4.96,0-9,3.14-9,7,0,2.36,1.49,4.51,4,5.82v4.18c0,.2.11.37.29.45.07.03.14.05.21.05.12,0,.23-.04.33-.12l3.95-3.39c.07,0,.15,0,.22,0,4.96,0,9-3.14,9-7s-4.04-7-9-7Zm0,13c-.08,0-.16,0-.23,0h-.15c-.13-.01-.25.03-.34.11l-3.28,2.81v-3.41c0-.19-.11-.37-.28-.45-2.33-1.11-3.72-3-3.72-5.06,0-3.31,3.59-6,8-6s8,2.69,8,6-3.59,6-8,6Z"/></svg>