<svg xmlns="http://www.w3.org/2000/svg" viewBox="0 0 24 24" width="24" height="24"><path d="m19.5,3H4.5c-.83,0-1.5.67-1.5,1.5v11c0,.83.67,1.5,1.5,1.5h2.5v2.5c0,.18.1.35.25.44.08.04.16.06.25.06s.18-.02.26-.07l4.88-2.93h6.86c.83,0,1.5-.67,1.5-1.5V4.5c0-.83-.67-1.5-1.5-1.5Zm.5,12.5c0,.28-.22.5-.5.5h-7c-.09,0-.18.02-.26.07l-4.24,2.55v-2.12c0-.28-.22-.5-.5-.5h-3c-.28,0-.5-.22-.5-.5V4.5c0-.28.22-.5.5-.5h15c.28,0,.5.22.5.5v11Z"/><path d="M13.2 8.67 12 6 10.8 8.67 8 8.89 10.22 10.89 9.33 14 12 12.22 14.67 14 13.78 10.89 16 8.89 13.2 8.67z"/></svg>