<svg xmlns="http://www.w3.org/2000/svg" viewBox="0 0 24 24" width="24" height="24"><path d="M9.65 8.65 6.29 12 9.65 15.35 10.35 14.65 7.71 12 10.35 9.35 9.65 8.65z"/><path d="M13.65 9.35 16.29 12 13.65 14.65 14.35 15.35 17.71 12 14.35 8.65 13.65 9.35z"/><path d="m12,3C7.04,3,3,7.04,3,12c0,2.03.69,4,1.95,5.59l-1.86,2.62c-.11.15-.12.35-.04.52.09.17.26.27.44.27h8.5c4.96,0,9-4.04,9-9S16.96,3,12,3Zm0,17h-7.53l1.52-2.15c.13-.19.12-.44-.03-.62-1.26-1.46-1.96-3.32-1.96-5.23,0-4.41,3.59-8,8-8s8,3.59,8,8-3.59,8-8,8Z"/></svg>