<svg xmlns="http://www.w3.org/2000/svg" viewBox="0 0 24 24" width="24" height="24"><path d="m15.06,3.85c-.58-.58-1.54-.58-2.12,0L3.85,12.94c-.58.58-.58,1.54,0,2.12l5.09,5.09c.29.29.68.44,1.06.44s.77-.15,1.06-.44l9.09-9.09c.58-.58.58-1.54,0-2.12l-5.09-5.09Zm4.38,6.5l-9.09,9.09c-.2.2-.51.2-.71,0l-5.09-5.09c-.19-.19-.19-.51,0-.71L13.65,4.56c.1-.1.23-.15.35-.15s.26.05.35.15l5.09,5.09c.19.19.19.51,0,.71Z"/><path d="m8.29,14.29c-.39.39-.39,1.02,0,1.41.39.39,1.02.39,1.41,0,.39-.39.39-1.02,0-1.41-.39-.39-1.02-.39-1.41,0Z"/><path d="M13.65 19.65 14 20 14.35 20.35 17.35 17.35 20.35 14.35 20 14 19.65 13.65 16.65 16.65 13.65 19.65z"/><path d="M10.35 4.35 10 4 9.65 3.65 6.65 6.65 3.65 9.65 4 10 4.35 10.35 7.35 7.35 10.35 4.35z"/></svg>