<svg xmlns="http://www.w3.org/2000/svg" viewBox="0 0 24 24" width="24" height="24"><path d="M18 4A3 3 0 1 0 18 10 3 3 0 1 0 18 4z"/><path d="m19.98,11.59c0,.14.02.27.02.41,0,4.41-3.59,8-8,8h-7.53l1.52-2.15c.13-.19.12-.44-.03-.62-1.26-1.46-1.96-3.32-1.96-5.23,0-4.41,3.59-8,8-8,.64,0,1.25.08,1.85.22.21-.31.46-.59.73-.84-.82-.24-1.68-.38-2.57-.38C7.04,3,3,7.04,3,12c0,2.03.69,4,1.95,5.59l-1.86,2.62c-.11.15-.12.35-.04.52.09.17.26.27.44.27h8.5c4.96,0,9-4.04,9-9,0-.33-.02-.66-.06-.98-.3.22-.62.42-.97.57Z"/></svg>