<svg xmlns="http://www.w3.org/2000/svg" viewBox="0 0 24 24" width="24" height="24"><path d="m20.35,13.97c-.81.26-1.66.39-2.5.39-4.53,0-8.21-3.68-8.21-8.21,0-.85.13-1.69.39-2.5.06-.18,0-.37-.12-.51-.13-.13-.33-.18-.51-.12-3.83,1.23-6.4,4.75-6.4,8.77,0,5.08,4.13,9.21,9.21,9.21,4.02,0,7.54-2.57,8.77-6.4.06-.18,0-.37-.12-.51s-.33-.18-.51-.12Zm-8.14,6.03c-4.53,0-8.21-3.68-8.21-8.21,0-3.26,1.9-6.16,4.82-7.48-.12.61-.19,1.22-.19,1.84,0,5.08,4.13,9.21,9.21,9.21.62,0,1.24-.06,1.84-.19-1.32,2.92-4.21,4.82-7.48,4.82Z"/><path d="M16 9 16.94 6.94 19 6 16.94 5.06 16 3 15.06 5.06 13 6 15.06 6.94 16 9z"/><path d="M20 8 19.38 9.38 18 10 19.38 10.62 20 12 20.62 10.62 22 10 20.62 9.38 20 8z"/></svg>