<svg xmlns="http://www.w3.org/2000/svg" viewBox="0 0 24 24" width="24" height="24"><path d="m18.5,3H5.5c-.83,0-1.5.67-1.5,1.5v15c0,.83.67,1.5,1.5,1.5h13c.83,0,1.5-.67,1.5-1.5V4.5c0-.83-.67-1.5-1.5-1.5Zm.5,16.5c0,.28-.22.5-.5.5H5.5c-.28,0-.5-.22-.5-.5v-2.79l3-3,1.65,1.65c.2.2.51.2.71,0l5.65-5.65,3,3v6.79Zm0-8.21l-2.65-2.65c-.2-.2-.51-.2-.71,0l-5.65,5.65-1.65-1.65c-.2-.2-.51-.2-.71,0l-2.65,2.65V4.5c0-.28.22-.5.5-.5h13c.28,0,.5.22.5.5v6.79Z"/><path d="M8.5 7A1.5 1.5 0 1 0 8.5 10 1.5 1.5 0 1 0 8.5 7z"/></svg>