<svg xmlns="http://www.w3.org/2000/svg" viewBox="0 0 24 24" width="24" height="24"><path d="m19.3,4.04l-11.4,4.96h-3.4c-.83,0-1.5.67-1.5,1.5v3c0,.83.67,1.5,1.5,1.5h3.4l1.52.66-.59,1.78c-.25.75.13,1.57.87,1.87l3.14,1.26c.18.07.37.11.56.11.22,0,.43-.05.63-.14.37-.17.66-.5.79-.89l.48-1.44,4.01,1.74c.06.03.13.04.2.04.1,0,.19-.03.27-.08.14-.09.23-.25.23-.42V4.5c0-.17-.08-.33-.23-.42-.14-.09-.32-.11-.47-.04ZM4.5,14c-.28,0-.5-.22-.5-.5v-3c0-.28.22-.5.5-.5h2.5v4h-2.5Zm9.36,5.34c-.04.13-.14.24-.26.29-.13.06-.27.06-.4.01l-3.14-1.26c-.25-.1-.37-.37-.29-.62l.57-1.7,4.03,1.75-.51,1.52Zm5.14-.6l-10.8-4.7c-.06-.03-.13-.04-.2-.04v-4c.07,0,.14-.01.2-.04l10.8-4.7v13.47Z"/></svg>