<svg xmlns="http://www.w3.org/2000/svg" viewBox="0 0 24 24" width="24" height="24"><path d="m12,4c-4.96,0-9,3.14-9,7,0,2.36,1.49,4.51,4,5.82v4.18c0,.2.11.37.29.45.07.03.14.05.21.05.12,0,.23-.04.33-.12l3.95-3.39c.07,0,.15,0,.22,0,4.96,0,9-3.14,9-7s-4.04-7-9-7Zm0,13c-.08,0-.16,0-.23,0h-.15c-.13-.01-.25.03-.34.11l-3.28,2.81v-3.41c0-.19-.11-.37-.28-.45-2.33-1.11-3.72-3-3.72-5.06,0-3.31,3.59-6,8-6s8,2.69,8,6-3.59,6-8,6Z"/><path d="M13.2 9.67 12 7 10.8 9.67 8 9.89 10.22 11.89 9.33 15 12 13.22 14.67 15 13.78 11.89 16 9.89 13.2 9.67z"/></svg>