<svg xmlns="http://www.w3.org/2000/svg" viewBox="0 0 24 24" width="24" height="24"><path d="m18,6.9v-.4c0-.28-.22-.5-.5-.5h-.85l-4.37-2.92c-.17-.11-.39-.11-.55,0l-4.37,2.92h-.85c-.28,0-.5.22-.5.5v.4l-2.78,1.85c-.14.09-.22.25-.22.42v10.33c0,.83.67,1.5,1.5,1.5h15c.83,0,1.5-.67,1.5-1.5v-10.33c0-.17-.08-.32-.22-.42l-2.78-1.85Zm1.6,2.27l-1.6,1.06v-2.13l1.6,1.06Zm-7.6-5.07l2.85,1.9h-5.7l2.85-1.9Zm-4.5,2.9h9.5v3.9l-5,3.33-5-3.33v-3.9h.5Zm-1.5,3.23l-1.6-1.06,1.6-1.06v2.13Zm13.5,9.77H4.5c-.28,0-.5-.22-.5-.5v-9.4l7.72,5.15c.08.06.18.08.28.08s.19-.03.28-.08l7.72-5.15v9.4c0,.28-.22.5-.5.5Z"/></svg>