<svg xmlns="http://www.w3.org/2000/svg" viewBox="0 0 24 24" width="24" height="24"><path d="m17.5,17h-1.38c-.96,0-1.87-.44-2.45-1.17-.79-1.01-2.54-1.01-3.34,0-.58.73-1.5,1.17-2.45,1.17h-1.38c-1.93,0-3.5-1.57-3.5-3.5v-4c0-1.38,1.12-2.5,2.5-2.5h13c1.38,0,2.5,1.12,2.5,2.5v4c0,1.93-1.57,3.5-3.5,3.5Zm-5.5-2.96c.97,0,1.87.43,2.45,1.17.39.5,1.01.79,1.67.79h1.38c1.38,0,2.5-1.12,2.5-2.5v-4c0-.83-.67-1.5-1.5-1.5H5.5c-.83,0-1.5.67-1.5,1.5v4c0,1.38,1.12,2.5,2.5,2.5h1.38c.65,0,1.28-.3,1.67-.79.59-.75,1.48-1.17,2.45-1.17Z"/><path d="M7.5 10A2.5 1.5 0 1 0 7.5 13 2.5 1.5 0 1 0 7.5 10z"/><path d="M16.5 10A2.5 1.5 0 1 0 16.5 13 2.5 1.5 0 1 0 16.5 10z"/></svg>