<svg xmlns="http://www.w3.org/2000/svg" viewBox="0 0 24 24" width="24" height="24"><path d="M12 6.17 10.92 8.36 8.5 8.71 10.25 10.42 9.84 12.83 12 11.69 14.16 12.83 13.75 10.42 15.5 8.71 13.08 8.36 12 6.17z"/><path d="m16.04,3.64c-.28-.4-.74-.64-1.23-.64h-5.62c-.49,0-.95.24-1.23.64l-3.47,5c-.36.51-.36,1.2,0,1.71l3.47,5s.04.04.06.07c0,.03-.02.05-.02.08v5c0,.18.09.34.25.43.15.09.34.09.5,0l3.25-1.86,3.25,1.86c.08.04.16.07.25.07s.17-.02.25-.07c.15-.09.25-.25.25-.43v-5s-.01-.05-.02-.08c.02-.02.04-.04.06-.07l3.47-5c.36-.51.36-1.2,0-1.71l-3.47-5Zm2.65,6.14l-3.47,5c-.09.13-.25.21-.41.21h-5.62c-.16,0-.32-.08-.41-.21l-3.47-5c-.12-.17-.12-.4,0-.57l3.47-5c.09-.13.25-.21.41-.21h5.62c.16,0,.32.08.41.21l3.47,5c.12.17.12.4,0,.57Z"/></svg>