<svg xmlns="http://www.w3.org/2000/svg" viewBox="0 0 24 24" width="24" height="24"><path d="m9.64,21c-1.77,0-3.44-.69-4.69-1.94-2.59-2.59-2.59-6.8,0-9.39l7.68-6.55c.16-.14.39-.16.58-.05.18.11.28.32.24.53l-.73,3.66,7.56-4.2c.19-.11.44-.07.6.08s.19.4.08.6l-4.31,7.76h3.87c.2,0,.38.12.46.31.08.19.04.4-.1.54l-6.52,6.7c-1.26,1.26-2.93,1.95-4.7,1.95Zm2.53-16.18l-6.55,5.58c-2.17,2.17-2.17,5.75.03,7.95,1.07,1.07,2.48,1.65,3.99,1.65s2.92-.59,3.99-1.65l5.69-5.85h-3.54c-.18,0-.34-.09-.43-.25-.09-.15-.09-.34,0-.5l3.87-6.97-6.97,3.87c-.17.09-.38.08-.54-.03-.16-.11-.23-.31-.2-.5l.66-3.31Z"/><path d="m10.98,11.34c0,.05.02.1.02.16,0,.83-.67,1.5-1.5,1.5s-1.5-.67-1.5-1.5c0-.05.01-.11.02-.16-1.19.56-2.02,1.76-2.02,3.16,0,1.93,1.57,3.5,3.5,3.5s3.5-1.57,3.5-3.5c0-1.4-.83-2.6-2.02-3.16Z"/></svg>