<svg xmlns="http://www.w3.org/2000/svg" viewBox="0 0 24 24" width="24" height="24"><path d="m12,8c-2.21,0-4,1.79-4,4s1.79,4,4,4,4-1.79,4-4-1.79-4-4-4Zm3,4c0,.35-.07.67-.18.98-.34-.02-.67-.08-.99-.22-.36-.15-.68-.37-.95-.64s-.49-.6-.64-.95c-.16-.37-.24-.76-.24-1.17,0-.34.07-.67.18-.98,1.57.09,2.82,1.39,2.82,2.98Zm-3,3c-1.65,0-3-1.35-3-3,0-1.34.88-2.46,2.09-2.85-.06.28-.09.56-.09.85,0,.54.11,1.06.31,1.56.2.48.49.9.86,1.27.37.37.8.66,1.27.86.27.11.55.19.84.24-.55.65-1.36,1.07-2.28,1.07Z"/><path d="M11.5 3H12.5V6H11.5z"/><path d="M11.5 18H12.5V21H11.5z"/><path d="M18 11.5H21V12.5H18z"/><path d="M3 11.5H6V12.5H3z"/><path d="M16.6 15.89 16.24 16.24 15.89 16.6 16.95 17.66 18.01 18.72 18.36 18.36 18.72 18.01 17.66 16.95 16.6 15.89z"/><path d="M7.4 8.11 7.76 7.76 8.11 7.4 7.05 6.34 5.99 5.28 5.64 5.64 5.28 5.99 6.34 7.05 7.4 8.11z"/><path d="M7.4 15.89 6.34 16.95 5.28 18.01 5.64 18.36 5.99 18.72 7.05 17.66 8.11 16.6 7.76 16.24 7.4 15.89z"/><path d="M16.6 8.11 17.66 7.05 18.72 5.99 18.36 5.64 18.01 5.28 16.95 6.34 15.89 7.4 16.24 7.76 16.6 8.11z"/></svg>