<svg xmlns="http://www.w3.org/2000/svg" viewBox="0 0 24 24" width="24" height="24"><path d="M16.5 10A1.5 1.5 0 1 0 16.5 13 1.5 1.5 0 1 0 16.5 10z"/><path d="M7.5 10A1.5 1.5 0 1 0 7.5 13 1.5 1.5 0 1 0 7.5 10z"/><path d="m12,13c-.83,0-1.5.62-1.5,2s1.5,3,1.5,3c0,0,1.5-1.62,1.5-3s-.67-2-1.5-2Z"/><path d="m21,4h-1c0,1.15-.27,1.96-.79,2.34-.05.03-.1.06-.15.08-1.67-2.13-4.24-3.42-7.06-3.42s-5.39,1.29-7.06,3.42c-.05-.03-.1-.05-.15-.08-.52-.38-.79-1.18-.79-2.34h-1c0,1.51.41,2.57,1.21,3.15.05.04.11.06.16.1-.29.46-.55.95-.75,1.47,0,0,0,0,0,0-.41,1.04-.62,2.14-.62,3.28v9h1v-4.9c1.5,2.9,4.52,4.9,8,4.9s6.5-1.99,8-4.9v4.9h1v-9c0-1.09-.2-2.16-.61-3.22,0-.02,0-.04-.01-.06-.2-.52-.47-1.01-.75-1.47.05-.03.11-.06.16-.1.8-.58,1.21-1.64,1.21-3.15Zm-3.11,2.58c-.14-.02-.23-.05-.23-.05h0c-.14-.04-.28-.08-.42-.11-.07-.02-.14-.03-.21-.04-.25-.04-.51-.07-.77-.07-1.86,0-3.47,1.07-4.25,2.62-.23-.45-.53-.87-.89-1.23-.89-.9-2.08-1.4-3.36-1.4-.26,0-.51.03-.76.07-.08.01-.15.03-.22.05-.14.03-.28.07-.42.11h0s-.09.02-.23.05c1.48-1.62,3.59-2.58,5.89-2.58s4.41.96,5.89,2.58Zm-5.89,13.42c-4.41,0-8-3.59-8-8,0-1.01.19-1.99.52-2.84.67-1.14,1.91-1.85,3.23-1.85,1.01,0,1.95.39,2.65,1.1.71.7,1.1,1.64,1.1,2.65,0,.28.22.5.5.5s.5-.22.5-.5c0-2.07,1.68-3.75,3.75-3.75,1.31,0,2.54.7,3.21,1.82.36.91.54,1.88.54,2.87,0,4.41-3.59,8-8,8Z"/></svg>