<svg xmlns="http://www.w3.org/2000/svg" viewBox="0 0 24 24" width="24" height="24"><path d="m18.35,6.15c-.2-.2-.51-.2-.71,0l-10.5,10.5c-.09.09-.15.22-.15.35v2.5c0,.28.22.5.5.5h2.5c.13,0,.26-.05.35-.15l10.5-10.5c.2-.2.2-.51,0-.71l-2.5-2.5Zm-8.56,12.85h-1.79v-1.79l7.75-7.75,1.79,1.79-7.75,7.75Zm8.46-8.46l-1.79-1.79,1.54-1.54,1.79,1.79-1.54,1.54Z"/><path d="m4.07,15.18c.05-1.79,2.22-3.44,4.14-4.89,1.76-1.34,3.29-2.49,3.29-3.79,0-3.4-7.63-3.5-8.5-3.5v1c1.95,0,7.5.46,7.5,2.5,0,.8-1.47,1.91-2.89,2.99-2.1,1.59-4.48,3.39-4.54,5.66-.03,1.28.65,2.5,2.11,3.73l.65-.76c-1.2-1.02-1.78-1.98-1.75-2.94Z"/></svg>