<svg xmlns="http://www.w3.org/2000/svg" viewBox="0 0 24 24" width="24" height="24"><path d="M11 7A1 1 0 1 0 11 9 1 1 0 1 0 11 7z"/><path d="m20.9,10.75h-.02c-.59-3.26-3.45-5.75-6.88-5.75H5.38c-.76,0-1.38-.62-1.38-1.38v-.62h-1v.62c0,1.31,1.07,2.38,2.38,2.38h.62v1.32c0,3.13,2.55,5.68,5.68,5.68h2.32c.83,0,1.5.67,1.5,1.5s-.67,1.5-1.5,1.5h-4.05c-.23-1.14-1.24-2-2.45-2h-2c-.15,0-.29.07-.39.18-.09.12-.13.27-.1.42.31,1.57,1.01,2.44,1.55,2.9-.55.46-1.24,1.33-1.55,2.9-.03.15,0,.3.1.42.1.12.24.18.39.18h2c1.21,0,2.22-.86,2.45-2h4.05c3.86,0,7-3.14,7-7,0-.4-.04-.8-.11-1.18,0-.02,0-.04,0-.07Zm-9.22,1.25c-2.58,0-4.68-2.1-4.68-4.68v-1.32h7c1.19,0,2.29.35,3.23.95-.23,2.82-2.6,5.05-5.48,5.05h-.07Zm3.23.18c1.67-.93,2.88-2.57,3.23-4.51.88.84,1.51,1.94,1.75,3.19-.07,1.5-1.52,2.54-3.61,2.63-.27-.6-.76-1.07-1.37-1.31Zm-.91,5.82h-4.5c-.28,0-.5.22-.5.5,0,.83-.67,1.5-1.5,1.5h-1.36c.51-1.64,1.48-2.01,1.52-2.03.2-.07.34-.26.34-.47s-.13-.41-.33-.48c-.05-.02-1.02-.39-1.52-2.03h1.36c.83,0,1.5.67,1.5,1.5,0,.28.22.5.5.5h4.5c1.38,0,2.5-1.12,2.5-2.5,0-.01,0-.02,0-.03,1.44-.09,2.62-.58,3.4-1.35-.52,2.78-2.96,4.89-5.89,4.89Z"/></svg>