<svg xmlns="http://www.w3.org/2000/svg" viewBox="0 0 24 24" width="24" height="24"><path d="m17.11,8c-1.19,0-2.29-.53-3.04-1.46l-.96-1.2c-1.19-1.49-2.97-2.34-4.87-2.34-3.44,0-6.24,2.8-6.24,6.24v10.26c0,.83.67,1.5,1.5,1.5h17c.83,0,1.5-.67,1.5-1.5v-6.61c0-2.7-2.19-4.89-4.89-4.89Zm3.89,11.5c0,.28-.22.5-.5.5H3.5c-.28,0-.5-.22-.5-.5v-5.5h2v4h1v-4h2.25v4h1v-4h2.25v4h1v-4h2.25v4h1v-4h2.25v4h1v-4h2v5.5Zm0-6.5H3v-3.76c0-2.89,2.35-5.24,5.24-5.24,1.6,0,3.09.72,4.09,1.97l.96,1.2c.93,1.17,2.33,1.83,3.82,1.83,2.15,0,3.89,1.75,3.89,3.89v.11Z"/></svg>