<svg xmlns="http://www.w3.org/2000/svg" viewBox="0 0 24 24" width="24" height="24"><path d="m19.5,11h-2.5v-5.5c0-.83-.67-1.5-1.5-1.5h-1.5c0-.55-.45-1-1-1h-6c-.55,0-1,.45-1,1h-1.5c-.83,0-1.5.67-1.5,1.5v10c0,.83.67,1.5,1.5,1.5h6.5v2.5c0,.83.67,1.5,1.5,1.5h7c.83,0,1.5-.67,1.5-1.5v-7c0-.83-.67-1.5-1.5-1.5Zm-15,5c-.28,0-.5-.22-.5-.5V5.5c0-.28.22-.5.5-.5h1.5v2h8v-2h1.5c.28,0,.5.22.5.5v5.5h-3.5c-.83,0-1.5.67-1.5,1.5v3.5h-6.5Zm15.5,3.5c0,.28-.22.5-.5.5h-7c-.28,0-.5-.22-.5-.5v-7c0-.28.22-.5.5-.5h7c.28,0,.5.22.5.5v7Z"/></svg>