<svg xmlns="http://www.w3.org/2000/svg" viewBox="0 0 24 24" width="24" height="24"><path d="m19.06,3.35c-.58-.58-1.54-.58-2.12,0l-2.44,2.44-1.65-1.65c-.2-.2-.51-.2-.71,0l-6,6,.71.71,5.65-5.65,1.29,1.29L4.65,15.65c-.06.06-.11.14-.13.23l-1,4c-.04.17,0,.35.13.47.09.09.22.15.35.15.04,0,.08,0,.12-.02l4-1c.09-.02.17-.07.23-.13l12.29-12.29c.58-.58.58-1.54,0-2.12l-1.59-1.59Zm-11.32,15.19l-3.06.76.76-3.06L14.5,7.21l2.29,2.29-9.05,9.05Zm12.2-12.19l-2.44,2.44-2.29-2.29,2.44-2.44c.2-.2.51-.2.71,0l1.59,1.59c.19.19.19.51,0,.71Z"/></svg>