<svg xmlns="http://www.w3.org/2000/svg" viewBox="0 0 24 24" width="24" height="24"><path d="m19.65,10.76h0l-2.69.47-5.46-5.91c-.12-.12-.28-.18-.45-.15l-1.97.35c-.17.03-.31.14-.37.29-.07.15-.05.33.04.47l3.75,5.74-3.91.69-2.31-2.41c-.12-.12-.29-.17-.45-.15l-1.97.35c-.16.03-.3.14-.37.29-.07.15-.05.33.04.47l3.5,5.47c.09.15.25.23.42.23.03,0,.06,0,.09,0l12.8-2.26c1.09-.19,1.81-1.23,1.62-2.32-.19-1.08-1.23-1.81-2.32-1.62Zm.52,2.96l-12.47,2.2-2.92-4.56.97-.17,2.31,2.41c.12.12.28.17.45.15l4.92-.87c.17-.03.31-.14.37-.29.07-.15.05-.33-.04-.47l-3.75-5.74.95-.17,5.46,5.91c.11.12.29.18.45.15l2.95-.52c.54-.09,1.06.27,1.16.81s-.27,1.06-.81,1.16Z"/><path d="M3 19H21V20H3z"/></svg>