<svg xmlns="http://www.w3.org/2000/svg" viewBox="0 0 24 24" width="24" height="24"><path d="m19.4,8.04l-.43-1.71c-.34-1.38-1.57-2.33-2.99-2.33s-2.62.94-2.98,2.29l-2.98,11.17c-.24.91-1.07,1.55-2.01,1.55s-1.79-.65-2.02-1.58l-.38-1.53c.8-.26,1.39-1.01,1.39-1.89,0-1.1-.9-2-2-2s-2,.9-2,2c0,.97.69,1.77,1.6,1.96l.43,1.71c.34,1.38,1.57,2.33,2.99,2.33s2.62-.94,2.98-2.29l2.98-11.17c.24-.91,1.07-1.55,2.01-1.55s1.79.65,2.02,1.58l.38,1.53c-.8.26-1.39,1.01-1.39,1.89,0,1.1.9,2,2,2s2-.9,2-2c0-.97-.69-1.77-1.6-1.96Zm-15.4,5.96c0-.55.45-1,1-1s1,.45,1,1-.45,1-1,1-1-.45-1-1Zm15-3c-.55,0-1-.45-1-1s.45-1,1-1,1,.45,1,1-.45,1-1,1Z"/></svg>