<svg xmlns="http://www.w3.org/2000/svg" viewBox="0 0 24 24" width="24" height="24"><path d="m12,3C7.04,3,3,7.04,3,12s4.04,9,9,9,9-4.04,9-9S16.96,3,12,3Zm-3,16.41v-.44c0-2.42.58-4.82,1.69-6.97h2.63c1.1,2.15,1.69,4.56,1.69,6.98v.44c-.93.38-1.94.59-3,.59s-2.07-.21-3-.59Zm7-.49c0-2.66-.68-5.31-1.94-7.66-.09-.16-.26-.26-.44-.26h-.3l-.97-2.59c-.12-.31-.56-.31-.68,0l-.97,2.59h-.3c-.18,0-.35.1-.44.26-1.26,2.35-1.93,4.99-1.94,7.66-2.39-1.39-4-3.96-4-6.92,0-4.41,3.59-8,8-8s8,3.59,8,8c0,2.95-1.61,5.53-4,6.92Z"/></svg>