<svg xmlns="http://www.w3.org/2000/svg" width="24" height="24" viewBox="0 0 24 24"><path d="M20.16 4.89c-.51-.58-1.23-.85-2-.76-.67.07-1.38.41-2.09.98A8.04 8.04 0 0 0 12.1 4c-2.15.01-4.17.78-5.69 2.27A7.95 7.95 0 0 0 4 11.9a7.85 7.85 0 0 0 .68 3.33c-.41.44-.79 1.08-1.01 1.74-.34 1-.26 1.84.22 2.38.38.43.95.65 1.68.65s1.7-.23 2.79-.7c.06-.03.12-.06.19-.09 1.04.5 2.18.77 3.37.79h.11c2.1 0 4.08-.8 5.58-2.27a7.95 7.95 0 0 0 2.41-5.63 8 8 0 0 0-.45-2.73c0-.01.02-.03.03-.04 1.16-2.02 1.36-3.55.58-4.43ZM7.1 6.98A6.96 6.96 0 0 1 11.99 5h.09a6.967 6.967 0 0 1 6.36 4.25c-1.02 1.63-2.58 3.41-4.46 5.08-1.83 1.62-3.73 2.94-5.43 3.76-.57-.32-1.1-.72-1.57-1.21A6.94 6.94 0 0 1 5 11.9c.02-1.88.77-3.63 2.11-4.93Zm-2.48 11.7c-.23-.25-.23-.76-.02-1.4.15-.43.36-.81.57-1.1.31.5.67.97 1.09 1.4q.54.555 1.17.99c-1.38.51-2.41.56-2.81.11m14.37-6.6a6.92 6.92 0 0 1-2.11 4.93A6.93 6.93 0 0 1 12 18.99h-.1c-.76 0-1.49-.14-2.19-.38 1.59-.87 3.29-2.08 4.93-3.54 1.68-1.49 3.12-3.09 4.18-4.6.11.52.18 1.06.17 1.6ZM17.72 6.4c-.25-.26-.52-.49-.8-.71.47-.33.93-.53 1.34-.58.46-.05.84.1 1.14.43.39.43.24 1.4-.37 2.64a8.2 8.2 0 0 0-1.31-1.79Z"/></svg>