<svg xmlns="http://www.w3.org/2000/svg" viewBox="0 0 24 24" width="24" height="24"><path d="m17.99,5.75c-.37-1.1-1.46-1.87-2.71-1.87-.35,0-.7.06-1.03.19-.53-.67-1.36-1.06-2.25-1.06s-1.72.4-2.25,1.06c-.33-.12-.68-.19-1.03-.19-1.25,0-2.34.77-2.71,1.87-1.18.34-2.01,1.38-2.01,2.57,0,.82.4,1.55,1.02,2.05-.02.08-.03.16-.01.24l2,10c.05.23.25.4.49.4h9c.24,0,.44-.17.49-.4l2-10c.02-.08,0-.16-.01-.24.62-.49,1.02-1.22,1.02-2.05,0-1.19-.83-2.23-2.01-2.57Zm-11.88,5.25h2.94l.9,9h-2.04l-1.8-9Zm3.94,0h3.89l-.9,9h-2.09l-.9-9Zm7.84,0l-1.8,9h-2.04l.9-9h2.94Zm-.73-1H6.84c-1.02,0-1.84-.76-1.84-1.69,0-.81.63-1.5,1.5-1.65.2-.04.37-.19.41-.4.16-.8.92-1.39,1.81-1.39.33,0,.66.09.96.25.12.07.25.08.38.04.13-.04.24-.12.3-.24.32-.58.95-.94,1.64-.94s1.32.36,1.64.94c.06.12.17.2.3.24.13.04.27.02.38-.04.3-.17.62-.25.96-.25.89,0,1.65.58,1.81,1.39.04.2.2.36.41.4.87.15,1.5.85,1.5,1.65,0,.93-.83,1.69-1.84,1.69Z"/></svg>