<svg xmlns="http://www.w3.org/2000/svg" viewBox="0 0 24 24" width="24" height="24"><path d="m19.06,5.85c-.58-.58-1.54-.58-2.12,0l-1.29,1.29h0s-1.41,1.41-1.41,1.41l-5.37,1.46c-.18.05-.32.19-.36.37l-2,9c-.04.17.01.34.13.46l1,1c.09.09.22.15.35.15.04,0,.07,0,.11-.01l9-2c.18-.04.33-.18.37-.36l1.46-5.37,1.41-1.41h0s1.29-1.29,1.29-1.29c.58-.58.58-1.54,0-2.12l-2.59-2.59Zm-.91,6.79c-.06.06-.11.14-.13.22l-1.42,5.21-8.32,1.85,3.71-3.71c.3.18.64.28,1.01.28,1.1,0,2-.9,2-2s-.9-2-2-2-2,.9-2,2c0,.37.11.71.28,1.01l-3.71,3.71,1.85-8.32,5.21-1.42c.08-.02.16-.07.22-.13l.9-.9,3.29,3.29-.9.9Zm-6.15,1.85c0-.55.45-1,1-1s1,.45,1,1-.45,1-1,1-1-.45-1-1Zm8.94-4.65l-1.19,1.19-3.29-3.29,1.19-1.19c.2-.2.51-.2.71,0l2.59,2.59c.19.19.19.51,0,.71Z"/><path d="M5.5 2.5 5.5 5 3 5 3 6 5.5 6 5.5 8.5 6.5 8.5 6.5 6 9 6 9 5 6.5 5 6.5 2.5 5.5 2.5z"/></svg>