<svg xmlns="http://www.w3.org/2000/svg" width="24" height="24" viewBox="0 0 24 24"><path d="M16.5 17.38v-5.17l2.71-2.71 1.44-1.44a1.5 1.5 0 0 0 0-2.12l-2.59-2.58a1.499 1.499 0 0 0-2.12 0l-1.78 1.79-2.35 2.35H6.64L3.46 19.15l1.41 1.41 11.65-3.18Zm.14-13.32a.5.5 0 0 1 .35-.15c.13 0 .26.05.35.15s2.59 2.58 2.59 2.58c.09.09.15.22.15.35s-.05.26-.15.35l-1.44 1.44-3.29-3.29 1.43-1.44ZM7.38 8.5h4.83l2.29-2.29 3.29 3.29-2.29 2.29v4.83L5.31 19.4l4.18-4.18c.3.18.64.28 1.01.28 1.1 0 2-.9 2-2s-.9-2-2-2-2 .9-2 2c0 .37.11.71.28 1.01L4.6 18.69zm2.12 5c0-.55.45-1 1-1s1 .45 1 1-.45 1-1 1-1-.45-1-1"/></svg>