<svg xmlns="http://www.w3.org/2000/svg" viewBox="0 0 24 24" width="24" height="24"><path d="M12 5A1.5 1.5 0 1 0 12 8 1.5 1.5 0 1 0 12 5z"/><path d="M6.5 8A1.5 1.5 0 1 0 6.5 11 1.5 1.5 0 1 0 6.5 8z"/><path d="M17.5 8A1.5 1.5 0 1 0 17.5 11 1.5 1.5 0 1 0 17.5 8z"/><path d="m18,12h-.38c-.53,0-1.04.21-1.41.59l-3.27,3.27c-.09.09-.22.15-.35.15h-1.17c-.13,0-.26-.05-.35-.15l-3.27-3.27c-.37-.37-.89-.59-1.41-.59h-.38c-1.1,0-2,.9-2,2v5h4v-4.79l2.35,2.35c.28.28.66.44,1.06.44h1.17c.4,0,.78-.16,1.06-.44l2.35-2.35v4.79h4v-5c0-1.1-.9-2-2-2Z"/><path d="m14,11.96v-1.46c0-.83-.67-1.5-1.5-1.5h-1c-.83,0-1.5.67-1.5,1.5v1.46l2,2,2-2Z"/></svg>