<svg xmlns="http://www.w3.org/2000/svg" viewBox="0 0 24 24" width="24" height="24"><path d="m16.29,7.71c-.21-.21-.42-.41-.63-.61.4-.47.66-1.07.66-1.85,0-2.57-2.18-3.25-3.34-3.25v1c.24,0,2.34.08,2.34,2.25,0,.5-.17.89-.42,1.19-2.68-2.26-5.71-3.7-7.01-2.4-.11.11-.22.26-.3.44h0s-.01.03-.01.03c-.05.11-.09.23-.12.37l-4,12.29c-.31.96-.06,2.01.65,2.73.51.51,1.19.79,1.89.79.28,0,.56-.04.84-.13l12.37-4.03c.09-.03.18-.05.26-.09l.06-.02h0c.18-.1.33-.2.44-.31,1.2-1.2.07-3.85-1.87-6.35,1.02-.6,2.32-1.08,3.91-1.08v-1c-1.88,0-3.39.57-4.55,1.28-.37-.43-.76-.85-1.16-1.25Zm-8.25-.02c.72,1.5,1.97,3.19,3.53,4.74s3.24,2.81,4.74,3.53c.21.1.41.18.59.26l-4.21,1.37c-.27-.03-.62-.14-1-.32-.43-.21-.89-.49-1.36-.84-.5-.37-1-.8-1.48-1.28-.48-.48-.91-.98-1.28-1.48-.35-.48-.64-.94-.84-1.36-.18-.39-.29-.73-.32-1l1.37-4.21c.07.19.15.39.25.6Zm-1.51,11.9c-.6.2-1.26.04-1.71-.41-.45-.45-.61-1.11-.41-1.71l1.5-4.61c.23.45.51.91.87,1.4.4.54.86,1.07,1.38,1.59.51.51,1.05.97,1.59,1.38.48.36.95.64,1.4.87l-4.61,1.5Zm12.73-4.2c-.09.09-.21.14-.37.17h-.01c-.48.09-1.24-.09-2.13-.51-1.4-.67-2.99-1.85-4.47-3.33-2.88-2.88-4.05-5.52-3.85-6.61v-.03c.04-.14.09-.26.18-.34.13-.13.35-.2.64-.2.98,0,2.78.8,4.84,2.51-.9.43-1.97.44-2.05.44v1c.78,0,1.93-.19,2.84-.75.23.22.47.43.71.67.38.38.72.75,1.04,1.12-1.31,1.02-1.99,2.08-2.05,2.17l.85.53s.63-.99,1.84-1.91c1.95,2.48,2.55,4.52,1.99,5.08Z"/></svg>