<svg xmlns="http://www.w3.org/2000/svg" viewBox="0 0 24 24" width="24" height="24"><path d="m18,9.55v-2.05c0-.83-.67-1.5-1.5-1.5h-2.78c-.18,0-.34.1-.43.25-.09.16-.09.35,0,.5.15.26.3.68.14,1.2-.17.52-.63.94-1.17,1.03-.45.08-.89-.04-1.23-.33-.34-.29-.53-.7-.53-1.14,0-.26.07-.51.21-.75.09-.16.09-.35,0-.5-.09-.16-.25-.25-.43-.25h-2.78c-.83,0-1.5.67-1.5,1.5v2.05c-.41-.09-.83-.07-1.25.07-.89.28-1.56,1.05-1.71,1.96-.12.74.08,1.48.56,2.04.59.69,1.53,1.02,2.41.83v2.05c0,.83.67,1.5,1.5,1.5h2.78c.18,0,.34-.1.43-.25.09-.16.09-.35,0-.5-.14-.24-.21-.49-.21-.75,0-.44.19-.86.53-1.14.34-.29.78-.41,1.23-.33.53.09,1,.5,1.17,1.03.16.52.02.94-.14,1.2-.09.16-.09.35,0,.5.09.16.25.25.43.25h2.78c.83,0,1.5-.67,1.5-1.5v-2.05c.41.09.83.07,1.25-.07.89-.28,1.56-1.05,1.71-1.96.12-.73-.08-1.48-.56-2.04-.59-.69-1.53-1.01-2.41-.83Zm1.98,2.71c-.09.53-.5,1-1.03,1.17-.52.17-.94.01-1.2-.14-.15-.09-.34-.09-.5,0-.16.09-.25.25-.25.43v2.78c0,.28-.22.5-.5.5h-2.05c.09-.41.07-.83-.07-1.25-.28-.89-1.05-1.56-1.96-1.71-.73-.12-1.48.08-2.04.56-.56.48-.88,1.17-.88,1.91,0,.17.02.34.05.5h-2.05c-.28,0-.5-.22-.5-.5v-2.78c0-.18-.1-.34-.25-.43-.16-.09-.35-.09-.5,0-.65.38-1.44.21-1.89-.32-.29-.34-.41-.78-.33-1.23.09-.53.5-1,1.03-1.17.42-.13.82-.08,1.2.14.16.09.35.09.5,0,.16-.09.25-.25.25-.43v-2.78c0-.28.22-.5.5-.5h2.05c-.03.16-.05.33-.05.5,0,.74.32,1.43.88,1.91.56.48,1.3.68,2.04.56.91-.15,1.68-.82,1.96-1.71.13-.42.15-.84.07-1.25h2.05c.28,0,.5.22.5.5v2.78c0,.18.1.34.25.43.16.09.35.09.5,0,.65-.38,1.44-.21,1.89.32.29.34.41.78.33,1.23Z"/></svg>