<svg xmlns="http://www.w3.org/2000/svg" viewBox="0 0 24 24" width="24" height="24"><path d="m19,9.89c-.06-3.34-2.92-6.89-7.5-6.89-4.22,0-8.5,2.58-8.5,7.5,0,2.43,1.04,4.58,3,6.24v4.26h1v-4.74l-.19-.15c-1.84-1.48-2.81-3.42-2.81-5.61,0-4.47,3.89-6.5,7.5-6.5,4.48,0,6.5,3.51,6.5,6l1.73,4h-2.73v3.5c0,.28-.22.5-.5.5h-3.5v3h1v-2h2.5c.83,0,1.5-.67,1.5-1.5v-2.5h1.73c.34,0,.65-.17.84-.46.19-.29.21-.64.08-.95l-1.65-3.7Z"/><path d="m7.33,12.64l.42.73c.18.3.57.41.88.23l.34-.2c.29.25.62.44.97.57v.39c0,.35.29.64.64.64h.84c.35,0,.64-.29.64-.64v-.39c.35-.13.68-.32.97-.57l.34.2c.31.18.7.07.88-.23l.42-.73c.18-.31.07-.7-.23-.88l-.33-.19c.04-.19.05-.38.05-.57s-.02-.38-.05-.57l.33-.19c.31-.18.41-.57.23-.88l-.42-.73c-.18-.31-.57-.41-.88-.23l-.34.2c-.29-.25-.62-.44-.97-.57v-.39c0-.35-.29-.64-.64-.64h-.84c-.35,0-.64.29-.64.64v.39c-.35.13-.68.32-.97.57l-.34-.2c-.31-.18-.7-.07-.88.23l-.42.73c-.18.31-.07.7.23.88l.33.19c-.04.19-.05.38-.05.57s.02.38.05.57l-.33.19c-.31.18-.41.57-.23.88Zm3.67-3.18c.84,0,1.55.71,1.55,1.55s-.71,1.55-1.55,1.55-1.55-.71-1.55-1.55.71-1.55,1.55-1.55Z"/></svg>