<svg xmlns="http://www.w3.org/2000/svg" width="24" height="24" viewBox="0 0 24 24"><path d="M3.5 13h3.52c-.03.98-.44 3.3-3.63 4.01L3 17.1V19h.5c2.62 0 4.62-.67 5.94-2 1.55-1.55 1.56-3.43 1.56-3.5v-7c0-.83-.67-1.5-1.5-1.5h-6C2.67 5 2 5.67 2 6.5v5c0 .83.67 1.5 1.5 1.5M3 6.5c0-.28.22-.5.5-.5h6c.28 0 .5.22.5.5v7c0 .18-.09 4.27-6 4.49v-.1c4.47-1.23 4-5.41 4-5.45L7.94 12H3.5c-.28 0-.5-.22-.5-.5zM14.5 13h3.52c-.03.98-.44 3.3-3.63 4.01l-.39.09V19h.5c2.62 0 4.62-.67 5.94-2 1.55-1.55 1.56-3.43 1.56-3.5v-7c0-.83-.67-1.5-1.5-1.5h-6c-.83 0-1.5.67-1.5 1.5v5c0 .83.67 1.5 1.5 1.5M14 6.5c0-.28.22-.5.5-.5h6c.28 0 .5.22.5.5v7c0 .18-.09 4.27-6 4.49v-.1c4.47-1.23 4-5.41 4-5.45l-.06-.44H14.5c-.28 0-.5-.22-.5-.5z"/></svg>