<svg xmlns="http://www.w3.org/2000/svg" width="24" height="24" viewBox="0 0 24 24"><path d="M14.59 6.59c-.78.78-.78 2.05 0 2.83s2.05.78 2.83 0 .78-2.05 0-2.83-2.05-.78-2.83 0M6 15c-2 1-2 5-2 5s3 0 5-2z"/><path d="M20.5 3h-3.46c-2.08 0-4.09.76-5.65 2.15l-2.02 1.8c-.86-.21-3.49-.63-6.15 1.14-.12.08-.21.22-.22.37s.04.3.14.4l12 12a.485.485 0 0 0 .7 0c1.89-1.89 1.38-5.24 1.19-6.21l1.81-2.04a8.52 8.52 0 0 0 2.15-5.65V3.5c0-.28-.22-.5-.5-.5ZM20 6.96c0 1.84-.67 3.61-1.89 4.98l-1.98 2.23c-.11.12-.15.29-.11.45 0 .03.79 3.27-.54 5.14L4.3 8.6c2.57-1.4 5.01-.63 5.04-.62.17.05.36.02.49-.1l2.23-1.98a7.48 7.48 0 0 1 4.98-1.89H20v2.96Z"/></svg>