<svg xmlns="http://www.w3.org/2000/svg" width="24" height="24" viewBox="0 0 24 24"><path d="M20.29 8.5c-.22-.53-.5-1.05-.83-1.53-.32-.48-.69-.92-1.1-1.33s-.86-.78-1.33-1.1c-.48-.33-1-.6-1.53-.83-.54-.23-1.11-.41-1.69-.52a9.2 9.2 0 0 0-3.63 0c-.58.12-1.15.29-1.69.52-.53.22-1.04.5-1.53.83-.48.32-.92.69-1.33 1.1-.17.17-.32.34-.48.52L2.99 4v5h5L5.86 6.87c.15-.18.31-.36.48-.52.36-.36.76-.69 1.18-.98.43-.29.89-.54 1.36-.74.48-.2.99-.36 1.5-.47 1.05-.22 2.17-.22 3.23 0 .51.1 1.02.26 1.5.47a7.871 7.871 0 0 1 2.54 1.72 8.1 8.1 0 0 1 1.72 2.55c.2.48.36.99.47 1.5.11.53.16 1.07.16 1.61a7.85 7.85 0 0 1-.63 3.11 7.871 7.871 0 0 1-1.72 2.54c-.36.36-.76.69-1.18.98-.43.29-.89.54-1.36.74-.48.2-.99.36-1.5.47-1.05.22-2.17.22-3.23 0a7.3 7.3 0 0 1-1.5-.47c-.47-.2-.93-.45-1.36-.74a7.3 7.3 0 0 1-1.18-.98 8.1 8.1 0 0 1-1.72-2.55c-.2-.48-.36-.99-.47-1.5A8 8 0 0 1 3.99 12h-1c0 .61.06 1.22.18 1.81.12.58.29 1.15.52 1.69.22.53.5 1.05.83 1.53.32.48.69.92 1.1 1.33s.86.78 1.33 1.1c.48.33 1 .61 1.53.83.54.23 1.11.41 1.69.52.59.12 1.2.18 1.81.18s1.22-.06 1.81-.18c.58-.12 1.15-.29 1.69-.52.53-.23 1.05-.5 1.53-.83.47-.32.92-.69 1.33-1.1s.78-.86 1.1-1.33c.33-.48.61-1 .83-1.53.23-.54.41-1.11.52-1.69.12-.59.18-1.2.18-1.81s-.06-1.22-.18-1.81c-.12-.58-.29-1.15-.52-1.69Z"/><path d="M10.57 14.47V9.53H8.53v.93h.95v4.01zM12.29 14.23c.32.21.68.32 1.08.32s.76-.11 1.07-.32.56-.51.75-.89c.18-.38.28-.83.28-1.34s-.09-.96-.28-1.34c-.18-.38-.44-.68-.75-.89-.32-.21-.68-.32-1.08-.32s-.76.11-1.08.32-.57.51-.75.89-.27.83-.27 1.33.09.95.28 1.33c.18.38.44.68.76.9Zm.19-3.1c.08-.23.19-.41.35-.53.15-.12.33-.17.53-.17s.39.06.54.18.27.29.35.53.12.52.12.87-.04.63-.12.86-.2.41-.35.53-.33.18-.53.18-.38-.06-.54-.18-.27-.3-.35-.53q-.12-.345-.12-.87c0-.525.04-.63.12-.87"/></svg>