<svg xmlns="http://www.w3.org/2000/svg" viewBox="0 0 24 24" width="24" height="24"><path d="m13.5,9h-1.5v-4.5c0-.2-.12-.38-.3-.46-.18-.08-.4-.04-.54.09L3.16,11.63c-.1.09-.16.23-.16.37s.06.27.16.37l8,7.5c.15.14.36.17.54.09.18-.08.3-.26.3-.46v-4.5h1.14c1.99,0,3.84.89,5.08,2.44l1.9,2.37c.1.12.24.19.39.19.06,0,.11,0,.17-.03.2-.07.33-.26.33-.47v-3c0-4.14-3.36-7.5-7.5-7.5Zm6.5,9.07l-1.01-1.26c-1.43-1.79-3.57-2.81-5.86-2.81h-2.14v4.35l-6.77-6.35,6.77-6.35v4.35h2.5c3.58,0,6.5,2.92,6.5,6.5v1.57Z"/></svg>