<svg xmlns="http://www.w3.org/2000/svg" viewBox="0 0 24 24" width="24" height="24"><path d="m20.5,9c-.19,0-4.63.03-8.5,1.89-3.87-1.86-8.31-1.89-8.5-1.89-.28,0-.5.22-.5.5v9.06c0,.14.06.26.15.36.1.09.22.14.36.14.04,0,3.87-.1,8.28,1.9.07.03.14.04.21.04s.14-.01.21-.04c4.4-2,8.24-1.89,8.28-1.9.13,0,.27-.05.36-.14.1-.09.15-.22.15-.36v-9.06c0-.28-.22-.5-.5-.5Zm-16.5,1.02c1.24.06,4.58.35,7.5,1.74v7.99c-3.41-1.41-6.35-1.64-7.5-1.68v-8.05Zm16,8.05c-1.15.03-4.09.26-7.5,1.68v-7.99c2.92-1.38,6.26-1.67,7.5-1.74v8.05Z"/><path d="M12 3A2.5 2.5 0 1 0 12 8 2.5 2.5 0 1 0 12 3z"/></svg>