<svg xmlns="http://www.w3.org/2000/svg" viewBox="0 0 24 24" width="24" height="24"><path d="m16.49,4.24c-.24-.13-.54-.05-.68.18l-2.52,4.36c-.4-.16-.84-.26-1.3-.26s-.89.09-1.3.26l-2.52-4.36c-.14-.24-.44-.32-.68-.18-1.36.78-2.51,1.92-3.3,3.29-.79,1.38-1.21,2.93-1.2,4.5,0,.28.22.5.5.5h5.05c.13.9.61,1.69,1.29,2.23l-2.53,4.37c-.14.24-.06.54.18.68,1.36.79,2.91,1.21,4.5,1.21s3.15-.42,4.5-1.21c.24-.14.32-.44.18-.68l-2.53-4.37c.69-.54,1.16-1.33,1.29-2.24h5.05c.28,0,.5-.22.5-.5,0-1.57-.41-3.13-1.2-4.5-.79-1.37-1.93-2.51-3.3-3.29Zm-11.42,3.79c.62-1.08,1.48-1.99,2.5-2.66l2.27,3.93c-.69.54-1.16,1.33-1.29,2.23h-4.53c.07-1.22.43-2.42,1.06-3.5Zm10.49,11.16c-2.19,1.1-4.93,1.1-7.12,0l2.27-3.92c.4.16.84.26,1.29.26s.89-.09,1.29-.26l2.27,3.92Zm-3.56-4.66c-1.38,0-2.5-1.12-2.5-2.5s1.12-2.5,2.5-2.5,2.5,1.12,2.5,2.5-1.12,2.5-2.5,2.5Zm3.45-3c-.13-.9-.61-1.69-1.29-2.23l2.27-3.93c1.02.67,1.88,1.59,2.5,2.66.62,1.08.98,2.28,1.06,3.5h-4.53Z"/></svg>