<svg xmlns="http://www.w3.org/2000/svg" viewBox="0 0 24 24" width="24" height="24"><path d="M8.5 10A1.5 2 0 1 0 8.5 14 1.5 2 0 1 0 8.5 10z"/><path d="M15.5 10A1.5 2 0 1 0 15.5 14 1.5 2 0 1 0 15.5 10z"/><path d="M8 16H16V17H8z"/><path d="m20,11v-2.5c0-.83-.67-1.5-1.5-1.5h-6v-1.09c.58-.21,1-.76,1-1.41,0-.83-.67-1.5-1.5-1.5s-1.5.67-1.5,1.5c0,.65.42,1.2,1,1.41v1.09h-6c-.83,0-1.5.67-1.5,1.5v2.5c-.55,0-1,.45-1,1v4c0,.55.45,1,1,1v2.5c0,.83.67,1.5,1.5,1.5h13c.83,0,1.5-.67,1.5-1.5v-2.5c.55,0,1-.45,1-1v-4c0-.55-.45-1-1-1Zm-1,8.5c0,.28-.22.5-.5.5H5.5c-.28,0-.5-.22-.5-.5v-11c0-.28.22-.5.5-.5h13c.28,0,.5.22.5.5v11Z"/></svg>