<svg xmlns="http://www.w3.org/2000/svg" width="24" height="24" viewBox="0 0 24 24"><path d="M12 9a3 3 0 1 0 0 6 3 3 0 1 0 0-6"/><path d="M18.36 5.64c-.41-.41-.85-.78-1.33-1.1-.48-.33-1-.6-1.53-.83-.54-.23-1.11-.41-1.69-.52a9.2 9.2 0 0 0-3.63 0c-.58.12-1.15.29-1.69.52-.53.23-1.05.5-1.53.83-.48.32-.93.69-1.33 1.1s-.78.85-1.1 1.33c-.33.48-.6 1-.83 1.53-.23.54-.41 1.11-.52 1.69-.12.59-.18 1.2-.18 1.81s.06 1.22.18 1.81c.12.58.29 1.15.52 1.69.23.53.5 1.05.83 1.53.32.48.69.93 1.1 1.33s.85.78 1.33 1.1c.48.33 1 .6 1.53.83.54.23 1.11.41 1.69.52.59.12 1.2.18 1.81.18s1.22-.06 1.81-.18c.58-.12 1.15-.29 1.69-.52.53-.23 1.05-.5 1.53-.83.48-.32.93-.69 1.33-1.1s.78-.85 1.1-1.33c.33-.48.6-1 .83-1.53.23-.54.41-1.11.52-1.69.12-.59.18-1.2.18-1.81h-1a7.85 7.85 0 0 1-.63 3.11 7.975 7.975 0 0 1-1.72 2.54c-.36.36-.76.69-1.18.98-.43.29-.88.54-1.36.74s-.99.36-1.5.47c-1.05.22-2.17.22-3.23 0a7.3 7.3 0 0 1-1.5-.47 7.975 7.975 0 0 1-2.54-1.72c-.36-.36-.69-.76-.98-1.18a7.8 7.8 0 0 1-.74-1.36c-.2-.48-.36-.99-.47-1.5-.11-.53-.16-1.07-.16-1.61a7.85 7.85 0 0 1 .63-3.11 7.975 7.975 0 0 1 1.72-2.54c.36-.36.76-.69 1.18-.98.43-.29.88-.54 1.36-.74s.99-.36 1.5-.47c1.05-.22 2.17-.22 3.23 0 .51.1 1.02.26 1.5.47a7.975 7.975 0 0 1 2.54 1.72c.17.17.32.34.48.52L15.98 9h5V4l-2.16 2.16c-.15-.18-.31-.36-.48-.52Z"/></svg>