<svg xmlns="http://www.w3.org/2000/svg" viewBox="0 0 24 24" width="24" height="24"><path d="m20.15,12.72c.57-1.66,1.35-3.93,1.35-6.72,0-.33,0-1.03-.54-1.19-.66-.2-1.12.52-2.39,2.42-2.06,3.09-5.51,8.27-9.57,8.27-1.21,0-2.33-.58-3.17-1.42.71-.54,1.45-1.08,2.12-1.56,3.32-2.4,5.18-3.82,4.8-5.02-.29-.88-1.62-.99-2.74-.99-2.21,0-3.92.43-5.08,1.27-1.05.76-1.6,1.83-1.6,3.09,0,1.08.41,2.16,1.07,3.08-1.53,1.24-2.39,2.2-2.39,3.07h1c0-.51.89-1.37,2.04-2.3,1.07,1.08,2.51,1.8,3.96,1.8,4.6,0,8.23-5.46,10.4-8.72.38-.57.79-1.19,1.1-1.59-.03,2.54-.73,4.57-1.29,6.21-.56,1.63-.96,2.81-.36,3.66.47.66,1.41.94,3.15.94v-1c-1.31,0-2.09-.17-2.34-.52-.31-.43.04-1.46.49-2.76Zm-15.83-1.87c0-.92.41-1.71,1.19-2.28.98-.71,2.49-1.08,4.49-1.08,1.58,0,1.79.3,1.79.3.12.61-2.73,2.67-4.43,3.9-.81.58-1.54,1.12-2.18,1.61-.54-.77-.86-1.65-.86-2.46Z"/><path d="M2 19H22V20H2z"/></svg>