<svg xmlns="http://www.w3.org/2000/svg" viewBox="0 0 24 24" width="24" height="24"><path d="M9 9A1 1 0 1 0 9 11 1 1 0 1 0 9 9z"/><path d="m15,11c.55,0,1-.45,1-1s-.45-1-1-1-1,.45-1,1,.45,1,1,1Z"/><path d="m8.11,14.49c.25.25.52.47.81.67.29.2.61.37.93.51.33.14.68.25,1.03.32.36.07.74.11,1.11.11s.74-.04,1.11-.11c.36-.07.7-.18,1.03-.32.33-.14.64-.31.93-.51.29-.2.57-.42.81-.67.25-.25.48-.53.67-.81l-.83-.56c-.16.24-.34.46-.55.67-.2.2-.43.39-.67.55-.24.16-.5.3-.76.42-.27.11-.55.2-.84.26-.59.12-1.22.12-1.81,0-.29-.06-.58-.15-.85-.26-.27-.11-.52-.25-.76-.41-.24-.16-.46-.35-.67-.55-.21-.21-.39-.43-.55-.67l-.83.56c.19.29.42.56.67.81Z"/><path d="m5,5.5c0-.28.22-.5.5-.5h3.5v-1h-3.5c-.83,0-1.5.67-1.5,1.5v3.5h1v-3.5Z"/><path d="m5.5,20h3.5v-1h-3.5c-.28,0-.5-.22-.5-.5v-3.5h-1v3.5c0,.83.67,1.5,1.5,1.5Z"/><path d="m20,15h-1v3.5c0,.28-.22.5-.5.5h-3.5v1h3.5c.83,0,1.5-.67,1.5-1.5v-3.5Z"/><path d="m20,5.5c0-.83-.67-1.5-1.5-1.5h-3.5v1h3.5c.28,0,.5.22.5.5v3.5h1v-3.5Z"/></svg>