<svg xmlns="http://www.w3.org/2000/svg" viewBox="0 0 24 24" width="24" height="24"><path d="m14.13,3.17c-.68-.11-1.39-.17-2.13-.17-4.49,0-8,1.98-8,4.5,0,.08.01.17.02.25h-.02v8.75c0,2.61,3.36,4.5,8,4.5s8-1.89,8-4.5V7.75h-.02c0-.08.02-.17.02-.25,0-2.07-2.36-3.81-5.87-4.33Zm-2.13.83c.68,0,1.34.05,1.97.15,2.96.44,5.03,1.81,5.03,3.35,0,.98-.91,1.96-2.43,2.62-1.28.57-2.9.88-4.57.88-3.79,0-7-1.6-7-3.5s3.21-3.5,7-3.5Zm7,12.5c0,1.96-3.07,3.5-7,3.5s-7-1.54-7-3.5v-6.79c1.35,1.38,3.95,2.29,7,2.29,1.81,0,3.57-.34,4.97-.96.85-.37,1.52-.83,2.03-1.34v6.8Z"/><path d="m9.99,9.82c.62.11,1.3.18,2.01.18.14,0,.26-.01.4-.02,1.73-1.72,1.3-3.79.85-4.91-.4-.04-.82-.07-1.25-.07-.47,0-.92.04-1.36.09.19.38.4.91.48,1.53.12.9-.03,2.11-1.13,3.21Z"/><path d="m8.77,9.51c2.03-1.55,1.16-3.54.75-4.23-1.79.41-3.02,1.25-3.02,2.22,0,.83.9,1.56,2.27,2.01Z"/><path d="m17.5,7.5c0-.98-1.25-1.81-3.04-2.23.36,1.21.53,2.95-.57,4.56,2.1-.35,3.61-1.26,3.61-2.34Z"/></svg>