<svg xmlns="http://www.w3.org/2000/svg" viewBox="0 0 24 24" width="24" height="24"><path d="m16.43,2.74c-.18-.3-.68-.3-.86,0l-4.5,7.5c-.09.15-.1.35,0,.5.09.16.25.25.44.25h9c.18,0,.35-.1.44-.25.09-.16.09-.35,0-.5l-4.5-7.5Zm-4.05,7.26l3.62-6.03,3.62,6.03h-7.23Z"/><path d="m17,13c-2.21,0-4,1.79-4,4s1.79,4,4,4,4-1.79,4-4-1.79-4-4-4Zm0,7c-1.65,0-3-1.35-3-3s1.35-3,3-3,3,1.35,3,3-1.35,3-3,3Z"/><path d="m10.5,13H3.5c-.28,0-.5.22-.5.5v7c0,.28.22.5.5.5h7c.28,0,.5-.22.5-.5v-7c0-.28-.22-.5-.5-.5Zm-.5,7h-6v-6h6v6Z"/></svg>