<svg xmlns="http://www.w3.org/2000/svg" viewBox="0 0 24 24" width="24" height="24"><path d="m18.5,3H5.5c-.83,0-1.5.67-1.5,1.5v15c0,.83.67,1.5,1.5,1.5h13c.83,0,1.5-.67,1.5-1.5V4.5c0-.83-.67-1.5-1.5-1.5Zm.5,16.5c0,.28-.22.5-.5.5H5.5c-.28,0-.5-.22-.5-.5v-2.5c.54,0,.78.17,1.11.41.37.26.83.59,1.69.59s1.32-.33,1.69-.59c.33-.24.57-.41,1.11-.41s.78.17,1.11.41c.37.26.83.59,1.69.59s1.32-.33,1.69-.59c.33-.24.57-.41,1.11-.41s.78.17,1.11.41c.37.26.83.59,1.69.59v1.5Zm0-2.5c-.54,0-.78-.17-1.11-.41-.37-.26-.83-.59-1.69-.59s-1.32.33-1.69.59c-.33.24-.57.41-1.11.41s-.78-.17-1.11-.41c-.37-.26-.83-.59-1.69-.59s-1.32.33-1.69.59c-.33.24-.57.41-1.11.41s-.78-.17-1.11-.41c-.37-.26-.83-.59-1.69-.59v-2c.54,0,.78.17,1.11.41.37.26.83.59,1.69.59s1.32-.33,1.69-.59c.33-.24.57-.41,1.11-.41s.78.17,1.11.41c.37.26.83.59,1.69.59s1.32-.33,1.69-.59c.33-.24.57-.41,1.11-.41s.78.17,1.11.41c.37.26.83.59,1.69.59v2Zm0-3c-.54,0-.78-.17-1.11-.41-.37-.26-.83-.59-1.69-.59s-1.32.33-1.69.59c-.33.24-.57.41-1.11.41s-.78-.17-1.11-.41c-.37-.26-.83-.59-1.69-.59s-1.32.33-1.69.59c-.33.24-.57.41-1.11.41s-.78-.17-1.11-.41c-.37-.26-.83-.59-1.69-.59V4.5c0-.28.22-.5.5-.5h13c.28,0,.5.22.5.5v9.5Z"/><path d="M8.5 6A1.5 1.5 0 1 0 8.5 9 1.5 1.5 0 1 0 8.5 6z"/></svg>