<svg xmlns="http://www.w3.org/2000/svg" viewBox="0 0 24 24" width="24" height="24"><path d="M14 7.5A.5.5 0 1 0 14 8.5.5.5 0 1 0 14 7.5z"/><path d="M16 9.5A.5.5 0 1 0 16 10.5.5.5 0 1 0 16 9.5z"/><path d="M15.5 6A.5.5 0 1 0 15.5 7 .5.5 0 1 0 15.5 6z"/><path d="M17.5 8A.5.5 0 1 0 17.5 9 .5.5 0 1 0 17.5 8z"/><path d="M9 12.5A.5.5 0 1 0 9 13.5.5.5 0 1 0 9 12.5z"/><path d="M11 14.5A.5.5 0 1 0 11 15.5.5.5 0 1 0 11 14.5z"/><path d="M7.5 14A.5.5 0 1 0 7.5 15 .5.5 0 1 0 7.5 14z"/><path d="M9.5 16A.5.5 0 1 0 9.5 17 .5.5 0 1 0 9.5 16z"/><path d="m19.57,4.43c-1.77-1.77-4.57-1.87-6.48-.34l-.09-.09c-.39-.39-1.02-.39-1.41,0l-1.59,1.59c-.39.39-.39,1.02,0,1.41l.05.05-3,3-.05-.05c-.39-.39-1.02-.39-1.41,0l-1.59,1.59c-.39.39-.39,1.02,0,1.41l.09.09c-1.53,1.91-1.43,4.71.34,6.48.95.95,2.2,1.42,3.45,1.42,1.08,0,2.15-.38,3.03-1.09l.09.09c.39.39,1.02.39,1.41,0l1.59-1.59c.39-.39.39-1.02,0-1.41l-.05-.05,3-3,.05.05c.39.39,1.02.39,1.41,0l1.59-1.59c.39-.39.39-1.02,0-1.41l-.09-.09c1.53-1.91,1.43-4.71-.34-6.48Zm-14.44,14.44c-1.51-1.51-1.51-3.97,0-5.48L13.38,5.13c.76-.75,1.75-1.13,2.74-1.13s1.98.38,2.74,1.13c1.51,1.51,1.51,3.97,0,5.48l-8.25,8.25c-1.51,1.51-3.97,1.51-5.48,0Z"/></svg>