<svg xmlns="http://www.w3.org/2000/svg" viewBox="0 0 24 24" width="24" height="24"><path d="m8.26,8.26c-2.88,2.88-4.82,6.14-5.19,8.72-.06.44.1.9.43,1.23l2.29,2.29c.29.29.67.44,1.04.44.06,0,.13,0,.19-.01,2.58-.37,5.83-2.3,8.72-5.19,2.13-2.13,3.77-4.5,4.63-6.67.91-2.31.83-4.16-.23-5.21-2.1-2.1-7.32-.16-11.89,4.4Zm-4.2,8.86c.33-2.33,2.21-5.46,4.9-8.15,3.33-3.33,6.71-4.96,8.83-4.96.49,0,.9.09,1.23.27l-14.02,14.02-.79-.79c-.11-.11-.17-.26-.15-.39Zm15.38-8.41c-.81,2.05-2.37,4.3-4.41,6.33-2.69,2.69-5.82,4.57-8.15,4.9-.13.02-.27-.04-.39-.15l-.79-.79,14.02-14.02c.43.82.34,2.14-.29,3.73Z"/></svg>