<svg xmlns="http://www.w3.org/2000/svg" viewBox="0 0 24 24" width="24" height="24"><path d="m7,11c0,2.21,1.79,4,4,4,.92,0,1.76-.33,2.44-.85l2.21,2.21.71-.71-2.21-2.21c.53-.68.85-1.52.85-2.44,0-2.21-1.79-4-4-4s-4,1.79-4,4Zm4-3c1.65,0,3,1.35,3,3s-1.35,3-3,3-3-1.35-3-3,1.35-3,3-3Z"/><path d="m5,5.5c0-.28.22-.5.5-.5h3.5v-1h-3.5c-.83,0-1.5.67-1.5,1.5v3.5h1v-3.5Z"/><path d="m5.5,20h3.5v-1h-3.5c-.28,0-.5-.22-.5-.5v-3.5h-1v3.5c0,.83.67,1.5,1.5,1.5Z"/><path d="m20,15h-1v3.5c0,.28-.22.5-.5.5h-3.5v1h3.5c.83,0,1.5-.67,1.5-1.5v-3.5Z"/><path d="m20,5.5c0-.83-.67-1.5-1.5-1.5h-3.5v1h3.5c.28,0,.5.22.5.5v3.5h1v-3.5Z"/></svg>