<svg xmlns="http://www.w3.org/2000/svg" width="24" height="24" viewBox="0 0 24 24"><path d="M7.25 15H9v1.75h1V15h4.5c.28 0 .5-.22.5-.5V10h1.75V9H15V7.25h-1V9H9.5c-.28 0-.5.22-.5.5V14H7.25zM10 13.25V10h4v4h-4zM3.5 15h2v-1H4v-1.5H3v2c0 .28.22.5.5.5M3 7.25h1v3.5H3zM4 4h1.5V3h-2c-.28 0-.5.22-.5.5v2h1zM7.25 3h3.5v1h-3.5zM15 5.5v-2c0-.28-.22-.5-.5-.5h-2v1H14v1.5zM20 20h-1.5v1h2c.28 0 .5-.22.5-.5v-2h-1zM13.25 20h3.5v1h-3.5zM9 18.5v2c0 .28.22.5.5.5h2v-1H10v-1.5zM20.5 9h-2v1H20v1.5h1v-2c0-.28-.22-.5-.5-.5M20 13.25h1v3.5h-1z"/></svg>