<svg xmlns="http://www.w3.org/2000/svg" viewBox="0 0 24 24" width="24" height="24"><path d="m7.28,4.47l-.4-.92c-1.5.66-2.69,1.86-3.34,3.36l.92.4c.55-1.27,1.56-2.28,2.83-2.84Z"/><path d="m5.33,13.08c-.86-1-1.33-2.27-1.33-3.58v-.21s-1-.03-1-.03v.24c0,1.55.55,3.05,1.56,4.23l.76-.65Z"/><path d="m13.06,5.31l.65-.76c-1.24-1.06-2.85-1.61-4.48-1.54l.04,1h.23c1.3,0,2.57.46,3.56,1.3Z"/><path d="m17.55,8.76c-.54-.28-1.11-.47-1.7-.59h0s-.01-.02-.01-.02c-.12-.59-.31-1.16-.59-1.7l-.88.47c.18.35.33.71.43,1.08-.04,0-.08,0-.11,0-.06,0-.11,0-.17,0-.08,0-.16,0-.24.01-.1,0-.19,0-.3.01-.14.01-.28.03-.42.05-.07,0-.14.01-.2.02h0c-.66.13-1.28.34-1.85.64h0s-.02.01-.03.02c-.25.13-.48.28-.71.44-.07.05-.14.1-.2.15-.19.15-.37.3-.55.47-.05.05-.11.1-.16.16-.17.17-.33.36-.47.55-.05.07-.11.14-.16.21-.16.22-.31.46-.44.7,0,.01-.02.02-.02.04h0c-.3.58-.52,1.2-.64,1.86h0s0,.06,0,.09c-.06.35-.1.71-.1,1.07,0,.1,0,.19,0,.29-.37-.1-.74-.25-1.08-.43l-.47.88c.54.28,1.11.47,1.7.59h0s.01.02.01.02c.12.59.31,1.17.59,1.7l.88-.47c-.18-.35-.33-.71-.43-1.08.03,0,.07,0,.11,0,.06,0,.11,0,.18,0,.09,0,.17,0,.25-.01.09,0,.17,0,.26-.01.15-.01.3-.03.45-.05.06,0,.13-.01.19-.02h0c.66-.13,1.28-.34,1.85-.64h0s.02-.01.03-.02c.25-.13.48-.28.71-.44.07-.05.14-.1.21-.15.19-.15.37-.3.54-.46.06-.05.11-.11.17-.16.17-.17.32-.36.47-.55.05-.07.1-.14.15-.21.16-.23.31-.46.44-.71,0-.01.01-.02.02-.03h0c.3-.58.52-1.2.64-1.86h0s0-.07,0-.1c.06-.35.09-.7.09-1.06,0-.1,0-.19,0-.29.38.1.74.25,1.08.43l.47-.88Zm-2.63,1.64c-.1.6-.29,1.16-.57,1.68-.11.21-.24.41-.38.6-.04.06-.08.11-.13.17-.13.17-.26.33-.41.48-.04.04-.08.08-.13.13-.15.14-.3.27-.47.4-.06.04-.11.09-.17.13-.19.13-.39.26-.59.37-.57.3-1.19.51-1.86.59-.07,0-.14.02-.21.03-.17.02-.33.02-.5.03-.08,0-.16,0-.24,0-.07,0-.15,0-.22,0-.01,0-.02,0-.04,0,0,0,0-.01,0-.02-.01-.14-.02-.29-.02-.46,0-.3.03-.61.08-.9.1-.6.29-1.17.57-1.68.11-.21.24-.41.37-.6.04-.06.08-.11.13-.17.13-.17.27-.33.41-.48.04-.04.08-.08.12-.11.15-.15.31-.28.48-.41.05-.04.11-.08.16-.12.19-.14.39-.27.61-.38.57-.3,1.21-.51,1.87-.59.06,0,.11-.02.17-.02.17-.02.34-.03.52-.03.04,0,.09,0,.13,0,.12,0,.23,0,.33.01,0,0,.02,0,.03,0,0,0,0,0,0,.02.01.14.02.29.02.46,0,.3-.03.61-.08.9Z"/><path d="m20.46,17.09l-.92-.4c-.55,1.27-1.56,2.28-2.83,2.84l.4.91c1.5-.66,2.69-1.85,3.34-3.36Z"/><path d="m10.94,18.69l-.65.76c1.19,1.01,2.74,1.55,4.25,1.55.08,0,.16,0,.23,0l-.05-1c-.06,0-.12,0-.19,0-1.28-.01-2.6-.46-3.6-1.31Z"/><path d="m21,14.5c0-1.55-.56-3.05-1.57-4.23l-.76.65c.86,1,1.33,2.27,1.33,3.58v.21s1,.03,1,.03v-.24Z"/></svg>