<svg xmlns="http://www.w3.org/2000/svg" viewBox="0 0 24 24" width="24" height="24"><path d="m16.95,4.05c2.73,2.73,2.73,7.17,0,9.9-1.24,1.24-2.83,1.91-4.45,2.02v-3.02c1.97-.25,3.5-1.91,3.5-3.95s-1.53-3.7-3.5-3.95v-2.05h-1v2.05c-1.97.25-3.5,1.91-3.5,3.95s1.53,3.7,3.5,3.95v3.02c-1.62-.12-3.21-.79-4.45-2.02-2.73-2.73-2.73-7.17,0-9.9l-.71-.71c-3.12,3.12-3.12,8.2,0,11.31,1.19,1.19,2.67,1.92,4.21,2.21l-3.33,2.22.55.83,3.72-2.48v3.57h1v-3.57l3.72,2.48.55-.83-3.33-2.22c1.54-.28,3.02-1.01,4.21-2.21,3.12-3.12,3.12-8.2,0-11.31l-.71.71Zm-1.95,4.95c0,1.48-1.08,2.71-2.5,2.95v-5.9c1.42.24,2.5,1.47,2.5,2.95Zm-6,0c0-1.48,1.08-2.71,2.5-2.95v5.9c-1.42-.24-2.5-1.47-2.5-2.95Z"/></svg>