<svg xmlns="http://www.w3.org/2000/svg" viewBox="0 0 24 24" width="24" height="24"><path d="m20.5,3H3.5c-.28,0-.5.22-.5.5v3c0,.28.22.5.5.5h2.6l.65,2.83c.16.69.76,1.17,1.46,1.17h7.57c.7,0,1.3-.48,1.46-1.17l.65-2.83h2.6c.28,0,.5-.22.5-.5v-3c0-.28-.22-.5-.5-.5Zm-4.23,6.61c-.05.23-.25.39-.49.39h-7.57c-.23,0-.44-.16-.49-.39l-.6-2.61h9.75l-.6,2.61Zm3.73-3.61H4v-2h16v2Z"/><path d="m12.5,13c0,1.88-.46,2.8-.95,3.78-.52,1.04-1.05,2.11-1.05,4.22h1c0-1.88.46-2.8.95-3.78.52-1.04,1.05-2.11,1.05-4.22h-1Z"/><path d="m9.5,13c0,1.88-.46,2.8-.95,3.78-.52,1.04-1.05,2.11-1.05,4.22h1c0-1.88.46-2.8.95-3.78.52-1.04,1.05-2.11,1.05-4.22h-1Z"/><path d="m14.55,16.78c-.52,1.04-1.05,2.11-1.05,4.22h1c0-1.88.46-2.8.95-3.78.52-1.04,1.05-2.11,1.05-4.22h-1c0,1.88-.46,2.8-.95,3.78Z"/></svg>