<svg xmlns="http://www.w3.org/2000/svg" width="24" height="24" viewBox="0 0 24 24"><path d="M12.32 3.12a.5.5 0 0 0-.65 0L4.59 9.11c-1.02.97-1.6 2.33-1.6 3.72 0 2.85 2.34 5.17 5.22 5.17 1.2 0 2.35-.44 3.28-1.18V20h-3.5v1h8v-1h-3.5v-3.18c.92.74 2.07 1.18 3.28 1.18 2.88 0 5.22-2.32 5.22-5.17 0-1.39-.58-2.75-1.62-3.74l-7.06-5.97ZM15.77 17c-1.32 0-2.58-.62-3.38-1.67l-.4-.52-.4.52A4.26 4.26 0 0 1 8.21 17c-2.33 0-4.22-1.87-4.22-4.17 0-1.14.46-2.2 1.27-2.98l6.73-5.7 6.71 5.68c.83.8 1.29 1.86 1.29 3 0 2.3-1.89 4.17-4.22 4.17"/></svg>