<svg xmlns="http://www.w3.org/2000/svg" viewBox="0 0 24 24" width="24" height="24"><path d="m21,5.5l-4-1.5v4.47c-1.35-.28-2.92-.44-4.5-.46v-2.38l3-1.12-4-1.5v5.01c-1.58.03-3.15.18-4.5.46v-1.85l3-1.12-4-1.5v4.71c-1.79.5-3,1.27-3,2.29v7c0,1.97,4.53,3,9,3s9-1.03,9-3v-7c0-1.02-1.21-1.78-3-2.29v-2.09l3-1.12Zm-11,14.43v-2.93h4v2.93c-.62.04-1.29.07-2,.07s-1.38-.03-2-.07Zm5-.09v-3.34c0-.28-.22-.5-.5-.5h-5c-.28,0-.5.22-.5.5v3.34c-3.29-.37-5-1.29-5-1.84v-5.55c1.58,1.02,4.8,1.55,8,1.55s6.42-.53,8-1.55v5.55c0,.55-1.71,1.47-5,1.84Zm5-8.84c0,.7-2.75,2-8,2s-8-1.3-8-2,2.75-2,8-2,8,1.3,8,2Z"/></svg>