<svg xmlns="http://www.w3.org/2000/svg" width="24" height="24" viewBox="0 0 24 24"><path d="M20 16.67c0-1.2-1.25-2.67-1.25-2.67s-1.25 1.45-1.25 2.67c0 .74.56 1.33 1.25 1.33S20 17.4 20 16.67M9.5 20.5c.69 0 1.25-.6 1.25-1.33 0-1.2-1.25-2.67-1.25-2.67s-1.25 1.45-1.25 2.67c0 .74.56 1.33 1.25 1.33M15.75 19.17c0-1.2-1.25-2.67-1.25-2.67s-1.25 1.45-1.25 2.67c0 .74.56 1.33 1.25 1.33s1.25-.6 1.25-1.33M6.5 16.67c0-1.2-1.25-2.67-1.25-2.67S4 15.45 4 16.67c0 .74.56 1.33 1.25 1.33s1.25-.6 1.25-1.33M12 5c-3.97 0-7.22 3.1-7.47 7H3v1h18v-1h-1.53c-.26-3.9-3.51-7-7.47-7m0 1c3.42 0 6.22 2.65 6.47 6H5.53C5.79 8.65 8.59 6 12 6M12.5 3h-1v2h1z"/></svg>