<svg xmlns="http://www.w3.org/2000/svg" viewBox="0 0 24 24" width="24" height="24"><path d="m12.85,11.15l-4.5-4.5c-.2-.2-.51-.2-.71,0l-4.5,4.5c-.2.2-.2.51,0,.71l4.5,4.5c.1.1.23.15.35.15s.26-.05.35-.15l4.5-4.5c.2-.2.2-.51,0-.71Zm-4.85,4.15l-3.79-3.79,3.79-3.79,3.79,3.79-3.79,3.79Z"/><path d="m16.75,12.5c-2.34,0-4.25,1.91-4.25,4.25s1.91,4.25,4.25,4.25,4.25-1.91,4.25-4.25-1.91-4.25-4.25-4.25Zm0,7.5c-1.79,0-3.25-1.46-3.25-3.25s1.46-3.25,3.25-3.25,3.25,1.46,3.25,3.25-1.46,3.25-3.25,3.25Z"/><path d="m18.25,3c-.65,0-1.26.23-1.75.64-.49-.41-1.1-.64-1.75-.64-1.52,0-2.75,1.23-2.75,2.75,0,.65.24,1.29.71,1.83l3.44,3.28c.1.09.22.14.35.14s.25-.05.35-.14l3.47-3.31c.44-.51.68-1.14.68-1.8,0-1.52-1.23-2.75-2.75-2.75Zm1.35,3.86l-3.1,2.95-3.06-2.92c-.2-.23-.44-.61-.44-1.14,0-.96.79-1.75,1.75-1.75.53,0,1.02.24,1.36.66.19.24.59.24.78,0,.34-.42.83-.66,1.36-.66.96,0,1.75.79,1.75,1.75,0,.53-.24.91-.4,1.11Z"/></svg>