<svg xmlns="http://www.w3.org/2000/svg" viewBox="0 0 24 24" width="24" height="24"><path d="m18,9.29v-2.79c0-.28-.22-.5-.5-.5h-2.79l-2.35-2.35c-.2-.2-.51-.2-.71,0l-2.35,2.35h-2.79c-.28,0-.5.22-.5.5v2.79l-2.35,2.35c-.2.2-.2.51,0,.71l2.35,2.35v2.79c0,.28.22.5.5.5h2.79l2.35,2.35c.1.1.23.15.35.15s.26-.05.35-.15l2.35-2.35h2.79c.28,0,.5-.22.5-.5v-2.79l2.35-2.35c.2-.2.2-.51,0-.71l-2.35-2.35Zm-.85,4.85c-.09.09-.15.22-.15.35v2.5h-2.5c-.13,0-.26.05-.35.15l-2.15,2.15-2.15-2.15c-.09-.09-.22-.15-.35-.15h-2.5v-2.5c0-.13-.05-.26-.15-.35l-2.15-2.15,2.15-2.15c.09-.09.15-.22.15-.35v-2.5h2.5c.13,0,.26-.05.35-.15l2.15-2.15,2.15,2.15c.09.09.22.15.35.15h2.5v2.5c0,.13.05.26.15.35l2.15,2.15-2.15,2.15Z"/></svg>