<svg xmlns="http://www.w3.org/2000/svg" viewBox="0 0 24 24" width="24" height="24"><path d="m12,8c-2.76,0-5,2.24-5,5H3v1h18v-1h-4c0-2.76-2.24-5-5-5Zm-4,5c0-2.21,1.79-4,4-4s4,1.79,4,4h-8Z"/><path d="M11.5 3H12.5V6H11.5z"/><path d="M16.65 7.65 17 8 17.35 8.35 18.35 7.35 19.35 6.35 19 6 18.65 5.65 17.65 6.65 16.65 7.65z"/><path d="M5 6 4.65 6.35 5.65 7.35 6.65 8.35 7 8 7.35 7.65 6.35 6.65 5.35 5.65 5 6z"/><path d="M7.06 22 8.18 22 11.18 16 10.06 16 7.06 22z"/><path d="M3 22 4.12 22 7.12 16 6 16 3 22z"/><path d="M11.06 22 12.18 22 15.18 16 14.06 16 11.06 22z"/><path d="M15.06 22 16.18 22 19.18 16 18.06 16 15.06 22z"/></svg>