<svg xmlns="http://www.w3.org/2000/svg" viewBox="0 0 24 24" width="24" height="24"><path d="m5,5.5c0-.28.22-.5.5-.5h3.5v-1h-3.5c-.83,0-1.5.67-1.5,1.5v3.5h1v-3.5Z"/><path d="m5.5,20h3.5v-1h-3.5c-.28,0-.5-.22-.5-.5v-3.5h-1v3.5c0,.83.67,1.5,1.5,1.5Z"/><path d="m20,15h-1v3.5c0,.28-.22.5-.5.5h-3.5v1h3.5c.83,0,1.5-.67,1.5-1.5v-3.5Z"/><path d="m20,5.5c0-.83-.67-1.5-1.5-1.5h-3.5v1h3.5c.28,0,.5.22.5.5v3.5h1v-3.5Z"/><path d="m7,9.25v5.5c0,.19.11.36.28.45l4.5,2.25c.07.04.15.05.22.05s.15-.02.22-.05l4.5-2.25c.17-.08.28-.26.28-.45v-5.5c0-.19-.11-.36-.28-.45l-4.5-2.25c-.14-.07-.31-.07-.45,0l-4.5,2.25c-.17.08-.28.26-.28.45Zm1,.81l3.5,1.75v4.38l-3.5-1.75v-4.38Zm4.5,6.13v-4.38l3.5-1.75v4.38l-3.5,1.75Zm2.88-6.94l-3.38,1.69-3.38-1.69,3.38-1.69,3.38,1.69Z"/></svg>