<svg xmlns="http://www.w3.org/2000/svg" width="24" height="24" viewBox="0 0 24 24"><path d="M16 12c0-2.21-1.79-4-4-4s-4 1.79-4 4 1.79 4 4 4 4-1.79 4-4m-4 3c-1.65 0-3-1.35-3-3s1.35-3 3-3 3 1.35 3 3-1.35 3-3 3M11.5 6h1V4h-1v2M12.5 18h-1v2h1v-2M18 11.5h2v1h-2zM4 11.5h2v1H4zM17.3 5.99l-.7.71-.71.7.35.36.36.35.7-.71.71-.7-.35-.36zM6.7 18.01l.7-.71.71-.7-.35-.36-.36-.35-.7.71-.71.7.35.36zM17.3 18.01l.36-.35.35-.36-.71-.7-.7-.71-.36.35-.35.36.71.7zM6.7 5.99l-.36.35-.35.36.71.7.7.71.36-.35.35-.36-.71-.7z"/></svg>