<svg xmlns="http://www.w3.org/2000/svg" width="24" height="24" viewBox="0 0 24 24"><path d="M19.5 5h-15C3.67 5 3 5.67 3 6.5v3c0 .83.67 1.5 1.5 1.5h15c.83 0 1.5-.67 1.5-1.5v-3c0-.83-.67-1.5-1.5-1.5m.5 4.5c0 .28-.22.5-.5.5h-15c-.28 0-.5-.22-.5-.5v-3c0-.28.22-.5.5-.5h15c.28 0 .5.22.5.5z"/><path d="M17 7h2v2h-2zM14 7h2v2h-2zM19.5 13h-15c-.83 0-1.5.67-1.5 1.5v3c0 .83.67 1.5 1.5 1.5h15c.83 0 1.5-.67 1.5-1.5v-3c0-.83-.67-1.5-1.5-1.5m.5 4.5c0 .28-.22.5-.5.5h-15c-.28 0-.5-.22-.5-.5v-3c0-.28.22-.5.5-.5h15c.28 0 .5.22.5.5z"/><path d="M17 15h2v2h-2zM14 15h2v2h-2z"/></svg>