<svg xmlns="http://www.w3.org/2000/svg" width="24" height="24" viewBox="0 0 24 24"><path d="M5.5 20h13c.83 0 1.5-.67 1.5-1.5V8.25a.47.47 0 0 0-.15-.35L16.1 4.15a.5.5 0 0 0-.35-.15H5.5C4.67 4 4 4.67 4 5.5v13c0 .83.67 1.5 1.5 1.5M16 19H8v-5.5c0-.28.22-.5.5-.5h7c.28 0 .5.22.5.5zM8 5h6v2.5c0 .28-.22.5-.5.5h-5c-.28 0-.5-.22-.5-.5zm-3 .5c0-.28.22-.5.5-.5H7v2.5C7 8.33 7.67 9 8.5 9h5c.83 0 1.5-.67 1.5-1.5V5h.54L19 8.46V18.5c0 .28-.22.5-.5.5H17v-5.5c0-.83-.67-1.5-1.5-1.5h-7c-.83 0-1.5.67-1.5 1.5V19H5.5c-.28 0-.5-.22-.5-.5z"/></svg>