<svg xmlns="http://www.w3.org/2000/svg" viewBox="0 0 24 24" width="24" height="24"><path d="m19.5,3H4.5c-.83,0-1.5.67-1.5,1.5v4.88c0,.84.4,1.58,1.01,2.06,0,.02-.01.04-.01.07v8c0,.83.67,1.5,1.5,1.5h13c.83,0,1.5-.67,1.5-1.5v-8s-.01-.05-.01-.07c.61-.48,1.01-1.22,1.01-2.06v-4.88c0-.83-.67-1.5-1.5-1.5Zm-7,1h3.25v5.38c0,.9-.73,1.62-1.62,1.62s-1.62-.73-1.62-1.62v-5.38Zm-4.25,0h3.25v5.38c0,.9-.73,1.62-1.62,1.62s-1.62-.73-1.62-1.62v-5.38Zm-4.25.5c0-.28.22-.5.5-.5h2.75v5.38c0,.9-.73,1.62-1.62,1.62s-1.62-.73-1.62-1.62v-4.88Zm6,15.5v-4.5c0-.28.22-.5.5-.5h3c.28,0,.5.22.5.5v4.5h-4Zm9-.5c0,.28-.22.5-.5.5h-3.5v-4.5c0-.83-.67-1.5-1.5-1.5h-3c-.83,0-1.5.67-1.5,1.5v4.5h-3.5c-.28,0-.5-.22-.5-.5v-7.58c.2.05.41.08.62.08.88,0,1.65-.44,2.12-1.1.48.66,1.25,1.1,2.12,1.1s1.65-.44,2.12-1.1c.48.66,1.25,1.1,2.12,1.1s1.65-.44,2.12-1.1c.48.66,1.25,1.1,2.12,1.1.22,0,.42-.03.62-.08v7.58Zm1-10.12c0,.9-.73,1.62-1.62,1.62s-1.62-.73-1.62-1.62v-5.38h2.75c.28,0,.5.22.5.5v4.88Z"/></svg>