<svg xmlns="http://www.w3.org/2000/svg" viewBox="0 0 24 24" width="24" height="24"><path d="m19.95,4.64c-.2-.04-5.02-.84-7.58,1.73-.79.79-1.26,1.79-1.53,2.8-.21-.43-.48-.83-.83-1.19-2.04-2.04-5.83-1.4-5.99-1.37-.21.04-.37.2-.41.41-.03.16-.66,3.96,1.37,5.99,1.24,1.24,3.13,1.49,4.45,1.49.42,0,.79-.03,1.06-.05v5.55h1v-5.58c.35.04.88.08,1.51.08,1.68,0,4.06-.32,5.62-1.87,2.56-2.56,1.76-7.38,1.73-7.58-.04-.21-.2-.37-.41-.41Zm-9.5,8.8c-.93.1-3.41.21-4.75-1.14-1.34-1.34-1.24-3.83-1.14-4.75.93-.1,3.41-.21,4.75,1.14,1.34,1.34,1.24,3.83,1.14,4.75Zm7.48-1.52c-1.83,1.83-5.24,1.62-6.34,1.5-.12-1.11-.33-4.51,1.5-6.34s5.23-1.62,6.34-1.5c.12,1.11.33,4.51-1.5,6.34Z"/></svg>