<svg xmlns="http://www.w3.org/2000/svg" viewBox="0 0 24 24" width="24" height="24"><path d="m20.2,3.1l-3.24,2.43c-.08-.09-.15-.17-.23-.26-1.37-1.37-3.15-2.18-5.01-2.27-1.88-.09-3.61.56-4.88,1.83-2.61,2.61-2.41,7.04.44,9.89.52.52,1.1.96,1.73,1.31v3.96h-3v1h7v-1h-3v-3.5c.73.28,1.5.45,2.29.49.11,0,.23,0,.34,0,1.74,0,3.35-.65,4.54-1.84,1.27-1.27,1.92-3,1.83-4.88-.07-1.42-.56-2.8-1.4-3.98l3.21-2.4-.6-.8Zm-2.21,7.23c.08,1.59-.47,3.06-1.54,4.12s-2.53,1.61-4.12,1.54c-1.61-.08-3.16-.78-4.35-1.97-2.46-2.46-2.65-6.26-.44-8.47,1-1,2.35-1.54,3.83-1.54.1,0,.19,0,.29,0,1.61.08,3.15.78,4.35,1.97.05.05.09.1.14.15l-3.96,2.97.6.8,3.99-3c.72,1.02,1.14,2.21,1.2,3.43Z"/></svg>