<svg xmlns="http://www.w3.org/2000/svg" viewBox="0 0 24 24" width="24" height="24"><path d="m20,6.5c0-1.93-1.57-3.5-3.5-3.5s-3.5,1.57-3.5,3.5,1.57,3.5,3.5,3.5,3.5-1.57,3.5-3.5Zm-3.5,2.5c-1.38,0-2.5-1.12-2.5-2.5s1.12-2.5,2.5-2.5,2.5,1.12,2.5,2.5-1.12,2.5-2.5,2.5Z"/><path d="M16 21 17 21 17 10 16.5 10 16 10 16 21z"/><path d="m7,3v11.05c-1.69.25-3,1.69-3,3.45,0,1.93,1.57,3.5,3.5,3.5s3.5-1.57,3.5-3.5c0-1.76-1.31-3.2-3-3.45V3h-1Zm3,14.5c0,1.38-1.12,2.5-2.5,2.5s-2.5-1.12-2.5-2.5,1.12-2.5,2.5-2.5,2.5,1.12,2.5,2.5Z"/></svg>