<svg xmlns="http://www.w3.org/2000/svg" width="24" height="24" viewBox="0 0 24 24"><path d="M4 10h1v4H4zM4 18.5v.15c0 .01.02.13.02.14 0 .05.02.1.04.15 0 .02.04.12.05.14.02.04.04.08.06.13 0 .01.07.11.08.12.03.04.06.08.08.1.01.02.09.1.1.12.03.03.07.06.11.1 0 0 .1.07.11.08.04.03.09.06.13.08l.15.07.13.05s.13.03.14.04c.05 0 .1.02.16.02h2.65v-1H5.45l-.04.5-.09-.53-.28.42.19-.47-.35.36.26-.45-.06-.09-.44.24.39-.37-.01-.11v-2.5h-1v2.5ZM10 19h4v1h-4zM16 20h2.66c.05 0 .1-.01.15-.02.02 0 .13-.03.14-.04l.14-.05s.11-.05.12-.06c.05-.03.1-.05.13-.08.02-.01.11-.08.12-.09.04-.03.07-.06.1-.09.01 0 .08-.09.09-.1l.09-.12c0-.01.07-.11.07-.12.02-.04.04-.08.06-.13 0-.02.05-.12.05-.14.02-.05.03-.1.04-.14 0-.02.02-.13.02-.15v-2.65h-1v2.6s-.06.13-.06.14l.39.32-.48-.21-.11.08s-.09.04-.1.04l.05.5-.2-.48h-2.5v1ZM19 10h1v4h-1zM20 5.5v-.15c0-.01-.02-.13-.02-.14 0-.05-.02-.1-.04-.15 0-.02-.04-.12-.05-.14-.02-.04-.04-.08-.06-.13 0-.01-.07-.11-.08-.12-.03-.04-.06-.08-.08-.1-.01-.02-.09-.1-.1-.12-.03-.03-.07-.06-.11-.1 0 0-.1-.07-.11-.08a1 1 0 0 0-.13-.08l-.15-.07-.13-.05s-.13-.03-.14-.04c-.05 0-.1-.02-.16-.02h-2.65v1h2.56l.04-.5.09.53.28-.42-.19.47.35-.36-.26.45.06.09.44-.24-.39.37.01.11v2.5h1v-2.5ZM10 4h4v1h-4zM8 5V4H5.34c-.05 0-.1.01-.15.02-.02 0-.13.03-.14.04l-.14.05s-.11.05-.12.06c-.05.03-.1.05-.13.08-.02.01-.11.08-.12.09-.04.03-.07.06-.1.09-.01 0-.08.09-.09.1l-.09.12c0 .01-.07.11-.07.12-.02.04-.04.08-.06.13 0 .02-.05.12-.05.14-.02.05-.03.1-.04.14 0 .02-.02.13-.02.15v2.65h1v-2.6s.06-.13.06-.14l-.39-.32.48.21.11-.08s.09-.04.1-.04l-.05-.5.2.48h2.5Z"/></svg>