<svg xmlns="http://www.w3.org/2000/svg" viewBox="0 0 24 24" width="24" height="24"><path d="m18.5,8H5.5c-.83,0-1.5.67-1.5,1.5v5c0,.83.67,1.5,1.5,1.5h13c.83,0,1.5-.67,1.5-1.5v-5c0-.83-.67-1.5-1.5-1.5Zm.5,6.5c0,.28-.22.5-.5.5H5.5c-.28,0-.5-.22-.5-.5v-5c0-.28.22-.5.5-.5h13c.28,0,.5.22.5.5v5Z"/><path d="M7.87 7 5.4 3.7 4.6 4.3 6.63 7 7.87 7z"/><path d="M11.5 3H12.5V7H11.5z"/><path d="M19.4 4.3 18.6 3.7 16.13 7 17.37 7 19.4 4.3z"/><path d="M16.13 17 18.6 20.3 19.4 19.7 17.37 17 16.13 17z"/><path d="M11.5 17H12.5V21H11.5z"/><path d="M4.6 19.7 5.4 20.3 7.87 17 6.63 17 4.6 19.7z"/></svg>