<svg xmlns="http://www.w3.org/2000/svg" viewBox="0 0 24 24" width="24" height="24"><path d="m18.5,3H5.5c-.83,0-1.5.67-1.5,1.5v1c0,.83.67,1.5,1.5,1.5h.5v10h-.5c-.83,0-1.5.67-1.5,1.5v1c0,.83.67,1.5,1.5,1.5h13c.83,0,1.5-.67,1.5-1.5v-1c0-.83-.67-1.5-1.5-1.5h-.5V7h.5c.83,0,1.5-.67,1.5-1.5v-1c0-.83-.67-1.5-1.5-1.5Zm-2.21,4l-9.29,9.29v-4.09l5.21-5.21h4.09Zm-8.59,10l9.29-9.29v4.09l-5.21,5.21h-4.09Zm-.71-6.21v-3.79h3.79l-3.79,3.79Zm11.5,7.21c.28,0,.5.22.5.5v1c0,.28-.22.5-.5.5H5.5c-.28,0-.5-.22-.5-.5v-1c0-.28.22-.5.5-.5h13Zm-5.29-1l3.79-3.79v3.79h-3.79Zm5.79-11.5c0,.28-.22.5-.5.5H5.5c-.28,0-.5-.22-.5-.5v-1c0-.28.22-.5.5-.5h13c.28,0,.5.22.5.5v1Z"/></svg>