<svg xmlns="http://www.w3.org/2000/svg" width="24" height="24" viewBox="0 0 24 24"><path d="M5.64 5.64c-3.51 3.51-3.51 9.22 0 12.73C7.39 20.12 9.7 21 12 21s4.61-.88 6.36-2.63c3.51-3.51 3.51-9.22 0-12.73s-9.22-3.51-12.73 0Zm13.73 3.25-.24.23c-.79.79-1.45 1.79-2.09 3.16-.13.27-.28.53-.47.77-.69.88-1.75 1.42-2.92 1.49-1.17.06-2.28-.34-3.07-1.12-.76-.76-1.17-1.76-1.17-2.83a4 4 0 0 1 2.33-3.64c1.31-.6 2.34-1.28 3.13-2.07l.24-.24c.93.4 1.79.97 2.53 1.71.75.75 1.32 1.62 1.7 2.54Zm-1.7 8.78c-1.51 1.51-3.52 2.34-5.66 2.34s-4.15-.83-5.66-2.34c-3.12-3.12-3.12-8.2 0-11.31a7.95 7.95 0 0 1 5.66-2.34c.7 0 1.39.1 2.06.27-.69.66-1.58 1.24-2.72 1.76-.54.25-1.03.59-1.45 1.01-.95.95-1.47 2.2-1.47 3.54s.52 2.59 1.47 3.54 2.18 1.42 3.51 1.42h.32c1.45-.09 2.78-.77 3.65-1.88.23-.3.43-.62.59-.96.55-1.19 1.12-2.06 1.77-2.75.7 2.67.02 5.62-2.07 7.71Z"/></svg>