<svg xmlns="http://www.w3.org/2000/svg" viewBox="0 0 24 24" width="24" height="24"><path d="m19.5,5h-10.98c-.49,0-.95.24-1.23.65l-4.2,6.07c-.12.17-.12.4,0,.57l4.2,6.07c.28.4.74.65,1.23.65h10.98c.83,0,1.5-.67,1.5-1.5V6.5c0-.83-.67-1.5-1.5-1.5Zm.5,12.5c0,.28-.22.5-.5.5h-10.98c-.16,0-.32-.08-.41-.21l-4-5.79,4-5.78c.09-.13.25-.22.41-.22h10.98c.28,0,.5.22.5.5v11Z"/><path d="M16.65 8.65 14 11.29 11.35 8.65 10.65 9.35 13.29 12 10.65 14.65 11.35 15.35 14 12.71 16.65 15.35 17.35 14.65 14.71 12 17.35 9.35 16.65 8.65z"/></svg>