<svg xmlns="http://www.w3.org/2000/svg" viewBox="0 0 24 24" width="24" height="24"><path d="m18.15,5.15l-3.71,3.71c-.68-.53-1.52-.85-2.44-.85s-1.76.33-2.44.85l-1.35-1.35,1.65-1.65-.71-.71-1.65,1.65-1.65-1.65,2.15-2.15H3v5l2.15-2.15,1.65,1.65-1.65,1.65.71.71,1.65-1.65,1.35,1.35c-.53.68-.85,1.52-.85,2.44,0,2.03,1.53,3.7,3.5,3.95v2.05h-2.5v1h2.5v2h1v-2h2.5v-1h-2.5v-2.05c1.97-.25,3.5-1.92,3.5-3.95,0-.92-.33-1.76-.85-2.44l3.71-3.71,2.15,2.15V3h-5l2.15,2.15Zm-6.15,9.85c-1.65,0-3-1.35-3-3s1.35-3,3-3,3,1.35,3,3-1.35,3-3,3Z"/></svg>