<svg xmlns="http://www.w3.org/2000/svg" viewBox="0 0 24 24" width="24" height="24"><path d="m18.47,3.09c-1.68-.68-3.62-.13-4.71,1.32l-.65.86c-.52.7-1.7.7-2.22,0l-.65-.86c-1.09-1.45-3.03-2-4.71-1.32-1.54.61-2.53,2.08-2.53,3.74s.2,3.18.58,4.72l1.93,7.73c.25,1.01,1.16,1.72,2.2,1.72h.12c1.01,0,1.91-.68,2.18-1.65l1.13-3.97c.17-.59.71-1,1.32-1s1.16.41,1.33,1l1.13,3.96c.28.97,1.17,1.65,2.18,1.65,1.11,0,2.06-.8,2.24-1.9l1.26-7.55c.26-1.56.39-3.15.39-4.72s-.99-3.12-2.53-3.74Zm1.15,8.29l-1.26,7.55c-.1.61-.63,1.06-1.25,1.06-.56,0-1.07-.38-1.22-.92l-1.13-3.97c-.29-1.02-1.23-1.72-2.29-1.72s-2,.71-2.29,1.72l-1.13,3.97c-.15.54-.66.92-1.22.92h-.12c-.58,0-1.09-.4-1.23-.96l-1.93-7.73c-.37-1.46-.55-2.97-.55-4.48,0-1.24.75-2.35,1.9-2.81,1.27-.51,2.72-.1,3.54.99l.65.86c.45.6,1.16.96,1.91.96s1.46-.36,1.91-.96l.65-.86c.82-1.09,2.27-1.5,3.54-.99,1.15.46,1.9,1.56,1.9,2.81,0,1.52-.13,3.06-.38,4.56Z"/></svg>