<svg xmlns="http://www.w3.org/2000/svg" viewBox="0 0 24 24" width="24" height="24"><path d="m20,7.5c0,.28-.22.5-.5.5h-4v-4h-1v4h-5v-4h-1v4h-4c-.28,0-.5-.22-.5-.5v-3.5h-1v3.5c0,.83.67,1.5,1.5,1.5h15c.83,0,1.5-.67,1.5-1.5v-3.5h-1v3.5Z"/><path d="m19.5,15H4.5c-.83,0-1.5.67-1.5,1.5v3.5h1v-3.5c0-.28.22-.5.5-.5h4v4h1v-4h5v4h1v-4h4c.28,0,.5.22.5.5v3.5h1v-3.5c0-.83-.67-1.5-1.5-1.5Z"/><path d="M18 11.5H21V12.5H18z"/><path d="M13 11.5H16V12.5H13z"/><path d="M8 11.5H11V12.5H8z"/><path d="M3 11.5H6V12.5H3z"/></svg>