<svg xmlns="http://www.w3.org/2000/svg" viewBox="0 0 24 24" width="24" height="24"><path d="m14,12.44V4c0-1.1-.9-2-2-2s-2,.9-2,2v8.44c-2.09.91-3.29,3.06-2.94,5.35.31,2.03,1.86,3.68,3.86,4.1.36.08.72.11,1.07.11,1.15,0,2.26-.38,3.16-1.11,1.18-.95,1.85-2.37,1.85-3.88,0-1.98-1.19-3.77-3-4.56Zm.52,7.67c-.94.76-2.18,1.05-3.39.8-1.57-.33-2.83-1.68-3.08-3.28-.29-1.93.78-3.73,2.62-4.39.2-.07.33-.26.33-.47V4c0-.55.45-1,1-1s1,.45,1,1v8.78c0,.21.13.4.33.47,1.6.57,2.67,2.08,2.67,3.75,0,1.21-.54,2.34-1.48,3.11Z"/></svg>