<svg xmlns="http://www.w3.org/2000/svg" viewBox="0 0 24 24" width="24" height="24"><path d="m19.5,4H4.5c-.83,0-1.5.67-1.5,1.5v13c0,.83.67,1.5,1.5,1.5h15c.83,0,1.5-.67,1.5-1.5V5.5c0-.83-.67-1.5-1.5-1.5Zm.5,14.5c0,.28-.22.5-.5.5H4.5c-.28,0-.5-.22-.5-.5V5.5c0-.28.22-.5.5-.5h15c.28,0,.5.22.5.5v13Z"/><path d="M13 9H18V10H13z"/><path d="M8 9.79 6.85 8.65 6.15 9.35 8 11.21 10.85 8.35 10.15 7.65 8 9.79z"/><path d="M13 14H18V15H13z"/><path d="M8 14.79 6.85 13.65 6.15 14.35 8 16.21 10.85 13.35 10.15 12.65 8 14.79z"/></svg>