<svg xmlns="http://www.w3.org/2000/svg" viewBox="0 0 24 24" width="24" height="24"><path d="m16.5,6v-1.5c0-.83-.67-1.5-1.5-1.5h-6c-.83,0-1.5.67-1.5,1.5v1.5H3v1h2v12.5c0,.83.67,1.5,1.5,1.5h11c.83,0,1.5-.67,1.5-1.5V7h2v-1h-4.5Zm-8-1.5c0-.28.22-.5.5-.5h6c.28,0,.5.22.5.5v1.5h-7v-1.5Zm9.5,15c0,.28-.22.5-.5.5H6.5c-.28,0-.5-.22-.5-.5V7h12v12.5Z"/><path d="M14.65 10.15 12 12.79 9.35 10.15 8.65 10.85 11.29 13.5 8.65 16.15 9.35 16.85 12 14.21 14.65 16.85 15.35 16.15 12.71 13.5 15.35 10.85 14.65 10.15z"/></svg>