<svg xmlns="http://www.w3.org/2000/svg" viewBox="0 0 24 24" width="24" height="24"><path d="m12,3C7.04,3,3,7.04,3,12c0,.28.22.5.5.5h8v6.25c0,1.24,1.01,2.25,2.25,2.25s2.25-1.01,2.25-2.25v-.75h-1v.75c0,.69-.56,1.25-1.25,1.25s-1.25-.56-1.25-1.25v-6.25h8c.28,0,.5-.22.5-.5,0-4.96-4.04-9-9-9Zm-2.12,1.29c-1.09,1.47-1.8,4.08-1.87,7.21h-3.99c.21-3.46,2.64-6.32,5.87-7.21Zm-.88,7.21c.11-4.44,1.63-7.5,2.99-7.5s2.89,3.06,2.99,7.5h-5.99Zm6.98,0c-.07-3.13-.79-5.74-1.87-7.21,3.23.89,5.66,3.75,5.87,7.21h-3.99Z"/></svg>