<svg xmlns="http://www.w3.org/2000/svg" width="24" height="24" viewBox="0 0 24 24"><path d="M5 8.5c0 2 1.5 3.5 3.5 3.5S12 10.5 12 8.5 10.5 5 8.5 5 5 6.5 5 8.5m6 0C11 9.95 9.95 11 8.5 11S6 9.95 6 8.5 7.05 6 8.5 6 11 7.05 11 8.5M20 12c0-1.71-1.29-3-3-3s-3 1.29-3 3 1.29 3 3 3c.67 0 1.27-.2 1.75-.54l1.89 1.89.71-.71-1.89-1.89c.34-.49.54-1.09.54-1.75m-3 2c-1.16 0-2-.84-2-2s.84-2 2-2 2 .84 2 2-.84 2-2 2M3.5 19h10c.28 0 .5-.22.5-.5v-1c0-2.48-2.02-4.5-4.5-4.5h-2C5.02 13 3 15.02 3 17.5v1c0 .28.22.5.5.5m.5-1.5C4 15.57 5.57 14 7.5 14h2c1.93 0 3.5 1.57 3.5 3.5v.5H4z"/></svg>