<svg xmlns="http://www.w3.org/2000/svg" viewBox="0 0 24 24" width="24" height="24"><path d="m9,11c0,1.71,1.29,3,3,3s3-1.29,3-3-1.29-3-3-3-3,1.29-3,3Zm5,0c0,1.16-.84,2-2,2s-2-.84-2-2,.84-2,2-2,2,.84,2,2Z"/><path d="m12.26,3.07c-.16-.1-.36-.1-.51,0l-7.5,4.5c-.15.09-.24.25-.24.43v8c0,.18.09.34.24.43l7.5,4.5c.08.05.17.07.26.07s.18-.02.26-.07l7.5-4.5c.15-.09.24-.25.24-.43v-8c0-.18-.09-.34-.24-.43l-7.5-4.5Zm-.26,16.85l-3.92-2.35s0-.02.01-.02c.13-.19.27-.36.43-.52.16-.16.33-.3.52-.43.18-.12.38-.23.59-.32.21-.09.43-.16.65-.2.23-.05.47-.07.71-.07h2c.24,0,.47.02.71.07.23.05.45.12.66.2.21.09.41.2.6.32.19.12.36.27.52.43.16.16.3.33.43.52,0,0,0,.02.01.02l-3.92,2.35Zm7-4.2l-2.23,1.34s-.02-.05-.04-.07c-.16-.24-.35-.46-.55-.67-.2-.2-.43-.39-.67-.55-.24-.16-.49-.3-.76-.42-.27-.11-.55-.2-.85-.26-.3-.06-.6-.09-.91-.09h-2c-.3,0-.61.03-.91.09-.29.06-.58.15-.85.26-.27.11-.53.25-.76.41-.24.16-.46.35-.67.55-.2.2-.39.43-.55.67-.02.02-.02.05-.04.07l-2.23-1.34v-7.43l7-4.2,7,4.2v7.43Z"/></svg>