<svg xmlns="http://www.w3.org/2000/svg" viewBox="0 0 24 24" width="24" height="24"><path d="m5.5,16c-.83,0-1.5.67-1.5,1.5s.67,1.5,1.5,1.5h.26c1.55,0,3.02-.82,3.83-2.14l2.4-3.9,3.11,5.05c.38.61,1.06.99,1.77.99.88,0,1.67-.55,1.96-1.38l.62-1.74-.94-.34-.62,1.74c-.15.43-.56.72-1.02.72-.37,0-.73-.2-.92-.52l-3.37-5.48,2.67-4.33c.41-.67,1.05-1.17,1.77-1.44-.02.09-.03.18-.03.28,0,.83.67,1.5,1.5,1.5s1.5-.67,1.5-1.5-.67-1.5-1.5-1.5h-.26c-1.55,0-3.02.82-3.83,2.14l-2.4,3.9-3.11-5.05c-.38-.61-1.06-.99-1.77-.99-.88,0-1.67.55-1.96,1.38l-.62,1.74.94.34.62-1.74c.15-.43.56-.72,1.02-.72.37,0,.73.2.92.52l3.37,5.48-2.67,4.33c-.41.67-1.05,1.17-1.77,1.44.02-.09.03-.18.03-.28,0-.83-.67-1.5-1.5-1.5Z"/></svg>