<svg xmlns="http://www.w3.org/2000/svg" viewBox="0 0 24 24" width="24" height="24"><path d="m19.57,7.17c-.47-.52-1.05-1.17-2.17-1.17s-1.71.65-2.17,1.17c-.42.47-.75.83-1.43.83s-1.01-.37-1.43-.83c-.47-.52-1.05-1.17-2.17-1.17s-1.7.65-2.17,1.17c-.42.47-.75.83-1.43.83s-1.01-.37-1.43-.83c-.47-.52-1.05-1.17-2.17-1.17v1c.68,0,1.01.37,1.43.83.47.52,1.05,1.17,2.17,1.17s1.7-.65,2.17-1.17c.42-.47.75-.83,1.43-.83s1.01.37,1.43.83c.47.52,1.05,1.17,2.17,1.17s1.71-.65,2.17-1.17c.42-.47.75-.83,1.43-.83s1.01.37,1.43.83c.47.52,1.05,1.17,2.17,1.17v-1c-.68,0-1.01-.37-1.43-.83Z"/><path d="m19.57,11.67c-.47-.52-1.05-1.17-2.17-1.17s-1.71.65-2.17,1.17c-.42.47-.75.83-1.43.83s-1.01-.37-1.43-.83c-.47-.52-1.05-1.17-2.17-1.17s-1.7.65-2.17,1.17c-.42.47-.75.83-1.43.83s-1.01-.37-1.43-.83c-.47-.52-1.05-1.17-2.17-1.17v1c.68,0,1.01.37,1.43.83.47.52,1.05,1.17,2.17,1.17s1.7-.65,2.17-1.17c.42-.47.75-.83,1.43-.83s1.01.37,1.43.83c.47.52,1.05,1.17,2.17,1.17s1.71-.65,2.17-1.17c.42-.47.75-.83,1.43-.83s1.01.37,1.43.83c.47.52,1.05,1.17,2.17,1.17v-1c-.68,0-1.01-.37-1.43-.83Z"/><path d="m19.57,16.17c-.47-.52-1.05-1.17-2.17-1.17s-1.71.65-2.17,1.17c-.42.47-.75.83-1.43.83s-1.01-.37-1.43-.83c-.47-.52-1.05-1.17-2.17-1.17s-1.7.65-2.17,1.17c-.42.47-.75.83-1.43.83s-1.01-.37-1.43-.83c-.47-.52-1.05-1.17-2.17-1.17v1c.68,0,1.01.37,1.43.83.47.52,1.05,1.17,2.17,1.17s1.7-.65,2.17-1.17c.42-.47.75-.83,1.43-.83s1.01.37,1.43.83c.47.52,1.05,1.17,2.17,1.17s1.71-.65,2.17-1.17c.42-.47.75-.83,1.43-.83s1.01.37,1.43.83c.47.52,1.05,1.17,2.17,1.17v-1c-.68,0-1.01-.37-1.43-.83Z"/></svg>