<svg xmlns="http://www.w3.org/2000/svg" viewBox="0 0 24 24" width="24" height="24"><path d="m19.5,8h-2.5V3.5c0-.16-.08-.32-.22-.41-.14-.09-.31-.11-.46-.05L3.96,7.79c-.58.22-.96.78-.96,1.4v10.31c0,.83.67,1.5,1.5,1.5h15c.83,0,1.5-.67,1.5-1.5v-10c0-.83-.67-1.5-1.5-1.5Zm-3.5-3.77v3.77H6.19l9.81-3.77Zm3.5,15.77H4.5c-.28,0-.5-.22-.5-.5v-10.31c0-.06.01-.13.04-.19h15.46c.28,0,.5.22.5.5v2.5h-4.5c-.83,0-1.5.67-1.5,1.5v2c0,.83.67,1.5,1.5,1.5h4.5v2.5c0,.28-.22.5-.5.5Zm.5-4h-4.5c-.28,0-.5-.22-.5-.5v-2c0-.28.22-.5.5-.5h4.5v3Z"/></svg>