<svg xmlns="http://www.w3.org/2000/svg" viewBox="0 0 24 24" width="24" height="24"><path d="m11.5,16.96v3.04h-2.5v1h6v-1h-2.5v-3.04c2.95-.21,5.49-2.24,6.29-5.1.23-.83.27-1.77.12-2.8l-.81-5.63c-.04-.25-.25-.43-.5-.43H6.39c-.25,0-.46.18-.5.43l-.81,5.63c-.15,1.03-.11,1.98.12,2.8.8,2.86,3.34,4.89,6.29,5.1Zm6.33-5.37c-.72,2.6-3.12,4.41-5.83,4.41s-5.11-1.81-5.83-4.41c-.05-.17-.09-.35-.11-.54.87.63,1.81.96,2.74.96,1.25,0,2.49-.56,3.56-1.66,1.55-1.6,3.46-1.79,5.12-.51l.52.4c0,.49-.05.94-.17,1.35Zm-11.75-2.39l.75-5.2h10.35l.71,4.91c-2.02-1.43-4.39-1.17-6.24.74-1.55,1.6-3.46,1.79-5.12.51l-.51-.39c.01-.19.03-.38.06-.57Z"/></svg>