<svg xmlns="http://www.w3.org/2000/svg" viewBox="0 0 24 24" width="24" height="24"><path d="m9.4,16.87l-3.72,3.26.66.75,3.72-3.26c.27-.23.44-.56.5-.91l.41-2.72h.04s2.94,2.21,2.94,2.21c.08.06.15.15.18.26l1.41,4.68.96-.29-1.41-4.68c-.09-.31-.28-.58-.54-.77l-2.01-1.51.84-5.45,1.04,2.42c.14.33.39.59.71.75l3.67,1.84.45-.89-3.67-1.84c-.11-.05-.19-.14-.24-.25l-1.16-2.71c-.18-.43-.56-.75-1.02-.86l-1.13-.28c-.38-.09-.77-.04-1.11.15l-2.89,1.65c-.26.15-.46.37-.6.63l-1.86,3.73.89.45,1.86-3.73c.04-.09.11-.16.2-.21l2.34-1.34-1.29,8.62c-.02.12-.08.22-.17.3Z"/><path d="M13.5 3A1.5 1.5 0 1 0 13.5 6 1.5 1.5 0 1 0 13.5 3z"/></svg>